<svg xmlns="http://www.w3.org/2000/svg" viewBox="0 0 715.24 875.66"><title>0</title><g id="Layer_2" data-name="Layer 2"><g id="Layer_1-2" data-name="Layer 1"><path d="M99.63,799.75c.58-4,3-6,5.23-8.07,3.49-3.09,7.3-5.83,10.65-9,5.65-5.42,4.46-15.39-2.1-19.6-3.29-2.12-4.35.59-5.73,2.61-.62.91-.77,2.53-2.26,2.26s-1.28-1.8-1.57-2.88c-2.09-7.84-1-15.49,1.37-23.08.36-1.17,1.62-2.62,0-3.51-1.46-.79-2.41.7-3.26,1.67-1.48,1.7-2.88,3.47-4.69,5.68A19.68,19.68,0,0,1,97.3,734c.77-2.83,0-3.77-3-4-6.46-.6-12.86-1.77-18.76-4.7-2.33-1.16-4.14-.79-6.42.62-15.39,9.49-30.71,6.21-45.61-1.19-5.86-2.91-8.89-11.06-7.41-16.68,2.28-8.69,8.66-14.55,16.6-15,4-.23,8,.05,12-.17,10.09-.55,14.5-9,9.39-17.78-1.47-2.51-2.85-1.29-4.47-.23s-3.3,3.35-5.08,2.3-.85-3.74-.66-5.61a51.84,51.84,0,0,1,4.55-17.28c1-2.21,2.89-5.1-2.41-4.17-2.74.47-1.69-1.37-1-2.83,2.61-5.47,7.38-8.41,12.55-10.89q7-3.35,14-6.56c2.43-1.11,3.26-2.33.65-4.2a7,7,0,0,1-1.35-1.47c-.81-1-2.17-2.17-1.41-3.47,1.05-1.78,2.78-.61,4,0,8.24,4.38,17.47,3.77,26.27,5.3.9.16,2.34.12,2.77-.42,1-1.23-.45-2-1.19-2.85-1.79-2-3.57-4-4.45-6.56-.33-1-.54-2.12.33-2.79,1-.81,1.76.22,2.51.86a76,76,0,0,0,16.81,10.66c.9.43,1.74.89,2.66.48.52-1.63-.66-2.29-1.32-3.17s-1.31-1.66-.46-2.63a1.92,1.92,0,0,1,2.32-.27c3.94,1.69,3.85-.55,3.25-3.3a13.3,13.3,0,0,1-.38-2c-.07-1.4-1.12-3.06.65-4.06,1.37-.77,2.57.15,3.68.87,2.42,1.57,4.93,2.82,7.91,2.66,1.12-.06,2.92,0,2.62-1.48a17.38,17.38,0,0,0-2.62-5.28,1.38,1.38,0,0,0-2.48,0c-2.31,3.84-4.26,1.07-5.84-.48-1.39-1.34-2.17-3.31-3.19-5-1.31-2.17-1.82-6.66-5.17-1.12-1.54,2.56-2.69,0-3.32-1.4-2.4-5.3-2.26-11-2.45-16.65-.06-1.52,1.23-3.72-.86-4.46-1.7-.61-2.32,1.43-3.1,2.65-.47.73-1,1.45-2,1.07-1.16-.47-1-1.58-.89-2.59a34.5,34.5,0,0,1,6.75-18.49c1-1.32,3.45-2.39,2.17-4.52-1-1.76-3.1.4-4.91-.6.85-3.68,4.1-4.83,6.86-6.28,12.6-6.6,25.19-4.68,37.52.66,3.24,1.41,5.53,1.72,8.7-.16,12.09-7.19,24.62-5.7,37-.8,3.05,1.2,4.75.93,7.39-1.19,11.57-9.29,24.56-9.06,37.8-4.29a17.63,17.63,0,0,0,10.62.63,44.67,44.67,0,0,1,20.85.06c-1.23,2-4.5,1.28-4.07,3.72.36,2,2.84,2.08,4.45,2.68a11.61,11.61,0,0,0,10.53-1c9.78-5.81,20.43-7.73,31.69-6.43,1.27.15,2.74-.18,3.45,1.4-.48,1.72-4.69.57-3.14,3.16a5.83,5.83,0,0,0,7.42,2.41c1.94-.86,3.58-2.42,5.38-3.62,11.47-7.64,23.91-9.86,37.32-7.07,0,1.6-.84,1.79-1.61,2-.92.29-2.16.28-2.08,1.63.06,1,1.16,1,1.87,1.39,4.23,2.32,8.58,4.45,11.83,8.21a15.91,15.91,0,0,1,3.32,4.94c.41,1.16,1.94,2.29.7,3.59s-2.55,0-3.66-.45c-4.11-1.82-5.19-.48-5.16,3.82,0,5.76,1,11.74-1.72,17.21-.72,1.46-.79,5.06-4.22,2-1.31-1.16-2.24.84-2.86,1.88-1.62,2.71-3.05,5.54-4.62,8.29-1.18,2.06-2.37,2.78-3.79.07-1.61-3.06-3.22-2.13-4.67.23a6.9,6.9,0,0,0-.81,1.26c-4,12.11-14.17,17.48-24.56,22.63-5.5,2.74-5.51,2.84-1,7.46,3.93,4.06,7.71,8.3,12.72,11.13.88.49,1.89,1.05,1.61,2.22s-1.39,1.28-2.32,1.67c-7.22,3.05-7.22,3.07-1.57,8.61,1.3,1.28,3.39,2.61,3,4.28-.43,2.07-3.14,1.87-4.91,2.59-2.63,1.06-7.11.08-7.45,3.59-.32,3.23,3.29,5.53,5.52,7.94,1.34,1.44,3.43,1.05,5.23,1.24,11.57,1.26,23.16,2.33,34.7,3.84a102.25,102.25,0,0,1,24.12,6.09c8.67,3.4,15.53,12.8,14.85,21-.74,9-9.45,17.72-19,19.34s-18.6-.14-27.83-1.27a11.11,11.11,0,0,0-8.77,2.13c-7.23,5.32-15.64,6-24.3,4.72-1.63-.25-3.6-1.1-4.76.21s.09,3.09.67,4.63a158.5,158.5,0,0,0,28.15,48c6.82,7.93,14.92,9.82,24.68,7.79,6.17-1.29,12.17-3.46,18.62-3.38,7.23.09,13,4.31,14.69,10.93,1.37,5.45-2.49,13.57-7.78,16.65-5.57,3.25-11.72,4.66-17.93,5.82-9.47,1.77-17.7,5.35-23.43,13.7-3.5,5.11-8,9.38-14,11.72-6.33,2.48-10.88,1.33-15.5-3.82-2.37-2.64-3.87-5.8-5.59-8.82-1.21-2.13-2.53-2.26-4.44-.94-2.94,2-5,4.82-7.18,7.58-3.28,4.23-6.84,8.16-11.67,10.73-8.14,4.36-14.07,3.09-19.34-4.47a68,68,0,0,1-5.19-9.09c-1.47-3-3-3.15-5.24-.84a53.78,53.78,0,0,0-7.55,9.9,19.72,19.72,0,0,1-21.28,9,78.4,78.4,0,0,0-22.25-2.45c-2.25.08-4.29.35-5.73,2.37-3,4.23-7.52,5.13-12.28,5.48-7.22.52-14.25-1-21.36-1.76-6.21-.62-12.27-.37-18.13,2.18s-12.06,2.44-18.19,1.44a109.33,109.33,0,0,0-29.36-.52c-20,2.15-25.28-3.81-21.83-23.68.6-3.44,1.14-6.89,1.69-10.34.17-1.12.73-2.41-.54-3.18s-2.23-.1-3.29.46c-1.53.81-3.22,3.2-4.7,1.72-1.78-1.77.26-4,1.29-5.75,3.67-6.3,9-11.08,14.63-15.54,1.07-.84,3.38-1.5,2.49-3.19-1.07-2-3-.28-4.41.17A66.34,66.34,0,0,0,99.63,799.75Zm47.62-1.92c-.61-1.69.17-2.42.71-3.24,3.27-5,8.28-8.13,12.77-11.81q10-8.21,2.75-18.74c-3.24-4.67-5.17-4.64-8.4.14-.61.9-.74,2.52-2.31,2.11-1.11-.28-1-1.62-1.25-2.52a18.86,18.86,0,0,1-1-4.32c-.37-6.35,0-12.63,2.23-18.68.45-1.2,1.49-2.72.08-3.62-1.69-1.09-2.64.76-3.62,1.76a25.68,25.68,0,0,0-2.42,3.14c-.49.69-.94,1.47-1.92,1.22s-.93-1.26-.92-2c0-1.83.45-3.71.15-5.47-.61-3.7,4.05-7.62,1.2-10.19-2.29-2.06-7.2-.86-10.45-2.27-7.86-3.42-14.8-2.86-21.22,2.93a1.67,1.67,0,0,1-.43.25,6,6,0,0,0-3.77,6.41c.34,6,1.27,11.88,4,17.36,3,5.93,5.84,11.93,8.66,17.94a15.54,15.54,0,0,1,.69,11.65c-3.38,11-8.69,21.22-13,31.82-4,9.8-6.77,19.84-6,30.57.42,5.47,5.33,10.62,10.37,10,10.66-1.37,21.25-1,31.87.14.93.09,2,.45,2.91-1-3-3.08-3.52-7.16-3.3-11.3.21-3.81-1.39-5.74-5-6.82-5-1.5-5.6-3.63-3.17-8.15.76-1.4,3-2.6,2-4.27-2-3.63.46-6,1.94-8.57,3.45-6.09,9-10.14,14.29-14.46.91-.75,3-1,2-2.82-.88-1.55-2.38-.23-3.61-.14C151.53,795,149.83,797.23,147.25,797.83Zm-37.6-164.24c-8.72-3.28-21.47-1.34-30.18,1.33-14.41,4.42-20.16,12.89-20.71,28-.32,8.57,3,16.65,2.23,25.26-.59,6.66-1.87,8.45-8.68,8.78-6.3.3-12.63-.15-18.87,1.33S22.27,704.71,22,709.94a13.91,13.91,0,0,0,10,13.9,57.34,57.34,0,0,0,22.69,2.43,23.24,23.24,0,0,0,10.29-3.55c2-1.25,2.44-2.51,1.39-4.91-5.66-12.87,1.32-24.64,15.25-26.07,1.13-.12,2.53.25,3.13-1,2.36-5.08,5.95-10.06,6.59-15.37,1-8,2.15-15.75,5.55-23.08.71-1.52,1.06-3.49-1.24-3.16-7.13,1-2.57-2.83-1.73-4.33C97.1,638.91,103.13,636.57,109.65,633.59Zm78.71,104.33a41.89,41.89,0,0,1,8.82,19.38c.48,2.83-.41,7.42,2,8.17,3.41,1,5.11-3.39,7.3-5.72,1.06-1.13,3.75-2.51,1.54-4.29-2-1.6-2.93,1.26-4.28,2.26-.25.18-.34.56-.54.82-.66.85-.78,2.51-2.34,2.08-1.32-.35-1.25-1.86-1.58-2.91-2.09-6.79-.77-13.44.7-20.15.43-1.95,3.19-4.56,1-5.71-2.63-1.38-3.83,2.28-5.53,3.91-.79.76-1.11,2.44-2.48,2-1.7-.5-.94-2.23-1-3.46a6.8,6.8,0,0,1,.23-3c3.8-9.15,2.54-17.62-3.24-25.53-.09-.13-.1-.32-.19-.46-.64-1.06-.58-3-2.34-2.76-1.58.23-1.52,2-1.85,3.26-.64,2.4-1,4.88-1.6,7.3-.33,1.35.26,3.39-1.66,3.78-2.1.42-2.84-1.63-3.46-3-1.48-3.29-2.76-2.72-5-.55a30.89,30.89,0,0,1-9.71,6.91c-4.52,1.84-6.39,4.94-6.07,9.63.14,2.16.19,4.32.36,6.47.81,10,6.52,18.07,10.6,26.74,2.95,6.27,3.76,12.27,1,18.68s-5.48,12.85-8.19,19.29c-.48,1.14-2.06,2.36-.82,3.54s2.36-.49,3.36-1.15c17.5-11.52,26.43-27.57,25.81-48.72C189,749.17,189.42,743.55,188.36,737.92Zm97.47-90.33c3.13,1.13,5.33.33,7.54-.77a42.88,42.88,0,0,0,21.94-24.15,9.87,9.87,0,0,1,6.69-6.52,43.12,43.12,0,0,0,25.62-23.1,17.7,17.7,0,0,1,8.95-8.89,36,36,0,0,0,5.17-3c6.14-4.29,8.73-10.41,8.15-17.68-.55-6.79-2.88-12.87-10.06-15.28-8.67-2.91-17.29-3.27-25.58,1.57-4.87,2.85-5,5.15-.52,8.34,2.58,1.83,4.06-.42,5.75-1.38,5.92-3.36,11.49-3.48,15.86-.07s6,8.5,4.4,13.32c-1.26,3.72-9.78,10.48-13.29,10.53a3.72,3.72,0,0,1-2.61-1.29c-4.11-3.89-8.16-7.85-12.41-11.59-1.06-.93-.58-3.71-2.59-2.92-1.82.71-.71,3-.78,4.52-.32,6.08.94,12.38-2.54,18-.56.9-.85,2.84-2.26,1.78-3.45-2.58-3.88.65-5,2.36-1.46,2.22-2.73,4.58-4,6.91-1.07,1.93-2.36,2.6-3.59.34-2.28-4.2-3.58-1.84-5,.56-2.47,4.13-4.13,8.74-7.5,12.34-1.36,1.45-.65,2.39,1.14,2.64,2.59.36,5.16-.24,8.68-.85-3.6,4.31-5.63,8.45-7.77,12.52-2.48,4.73-4.59,9.67-10.69,10.95-1.84.39-1.68,1.57-.29,2.85,4.36,4,4.32,4-1.37,6.49A13.67,13.67,0,0,0,285.83,647.59Zm-132-77.25a40.3,40.3,0,0,0-13.53,16.37c-1,2.3-2,3.38-4.39,2.43-5.32-2.11-9.59-5.54-11.59-11-3.37-9.19,2.67-17.41,12.47-17.28A20.72,20.72,0,0,1,151.58,567c2.13,2.11,3.45,2.33,4.53-.83a11.38,11.38,0,0,1,2.1-3.38c2-2.43,1.23-4-1.11-5.71a35.07,35.07,0,0,0-13.47-6.27c-8.37-1.83-19.19,3-23.81,10.42-5.24,8.45-4.54,17.75,1.73,25.53a42.2,42.2,0,0,0,8,7.43c4.52,3.34,10.52,5.28,10.69,12.37a2.27,2.27,0,0,0,.73,1.28c6.71,6.85,15.91,10.13,23.27,16.09,1.34,1.09,3.8.64,5-1s-.91-2.46-1.6-3.65c-1.06-1.83-5.3-4.25.79-5,1.27-.16,1.37-1.19,1.27-2.29-.34-4.07,2.17-3.13,4.05-2a20.31,20.31,0,0,0,7.84,3c1.13.17,2.67.08,3-1.19.64-2.47-1.54-3.83-2.75-5.52a1.39,1.39,0,0,0-2.48,0c-2.1,3.6-4.08,1.1-5.39-.4a37.27,37.27,0,0,1-4.09-6.81c-1.06-2-2.14-3.3-3.7-.51-1.84,3.31-2.95,1.75-3.95-.51-2.42-5.48-2.38-11.32-2.4-17.15,0-1.24.74-2.95-.86-3.55s-2.22,1-2.92,2.09c-.55.86-1.13,1.8-2.32,1.23-.88-.43-.71-1.42-.65-2.22C153.29,576.06,153.52,573.65,153.8,570.34ZM326.28,792c1-.12,1.82-.16,2.63-.32,8-1.56,15.93-3.19,23.91-4.69,2.84-.53,1.89-1.72.6-2.87-4.41-4-7.55-8.84-10.48-13.88-6.1-10.48-12.12-21-18.3-31.45-2.77-4.68-3.52-4.65-6.41-.33-6,9-11.64,18.3-20.37,25.06-2.15,1.66-1.19,3.08.1,4.58,5.68,6.52,11.3,13.09,17.05,19.55C318,791,322.39,791.09,326.28,792Zm38.18-.91a6.41,6.41,0,0,0,.28,1.78c5.37,9.19,2.63,18.3-6.9,23.19-5.12,2.63-10.67,3.49-16.23,4.58-8.37,1.65-9,3.54-4.26,10.68,4.06,6.08,6.77,6.65,13.37,3.61,4.33-2,7-5.52,9.74-9.07A37.87,37.87,0,0,1,386,810.91c6.82-1,13.86-1.6,19.24-7.13,3.24-3.33,5.07-6.59,3-11.07-2.37-5.2-5.78-7.15-11.08-6.3-3.61.57-7.33.93-10.74,2.12C379.33,791,372.23,792.93,364.46,791.05ZM195.65,811.2c-2.05.14-2.54.11-3,.21-1.93.43-3.64,3.92-5.36,1.77-1.26-1.57.94-4.23,2.05-6.24.24-.43.64-.77.91-1.19,3-4.71,7.05-8.37,11.44-11.73,1.22-.93,2.35-2.28,1.33-3.84-1.18-1.8-2.64-.23-4,.16-1.16.36-1.76,2.18-3.9,1.12.61-2.77,2.56-4.76,4.4-6.75s.73-3.47-.75-4.62c-2.25-1.74-2.88.41-3.43,1.89-2.5,6.7-4.68,13.52-7.41,20.11-2.44,5.88-5.55,11.46-12.12,16,1.23-4.51,2.21-7.77,3-11.07.23-1,.69-2.54-.73-3.09s-1.83,1-2.44,1.87c-3.53,5.25-6.87,10.67-12.32,14.24-2.58,1.68-5.23,3.33-9.09,2.26,1-1.38,1.81-2.38,2.51-3.45s2.22-2.49.73-3.38c-1.7-1-2.61.94-3.05,2.3-.9,2.83-1.59,5.73-2.3,8.62-.82,3.35-.4,4.91,3.9,5.88,8.32,1.87,17.24,4,18.68,15,.19,1.41,1.4,1.67,2.64,1.76,9.44.68,18.88,1.45,28.33,2,1.69.1,4,.88,5.08-1.67-1.51-1.1-3.06-.67-4.51-.78-7.9-.6-11.48-3.77-12.1-11.53-.31-3.92-2.77-4.73-5.76-5.7-5.59-1.81-6.27-4.25-3.08-9.23C187.84,818.21,191.5,815.33,195.65,811.2ZM318.23,667.05c1.45-.19,4.69,1.35,6.08-.86,1.53-2.43-1.63-4.28-2.73-6.39a2.21,2.21,0,0,0-.31-.39c-2-2.33-1.39-3.56,1.45-4.61,7.88-2.92,7.91-3.08,2-9.36-2.3-2.43-2.06-3.78,1-5,6.48-2.62,6.5-3.07.93-7.35-.66-.5-1.36-.95-2-1.43-6.2-4.52-6.53-4.71-10.29,1.89-5.07,8.91-11.52,15.94-21.95,18-4.24.82-3.3,2.1-1.06,4.13,2.81,2.55,1.64,3.77-1.43,4.5-2.42.58-4.79,1.32-7.2,1.94-1.66.42-3.13,1.41-2.23,3.09,1.93,3.6,3.73,7.7,8.48,8.33,5.43.72,10.91,1,16.36,1.6,3,.31,4.57-.61,3.84-3.85-.8-3.6,1.13-4.37,4.14-4.19C314.62,667.11,316,667.05,318.23,667.05Zm23.87,6.43c-3.49-.26-7-.55-10.46-.78-1.3-.08-2.87-.38-3.27,1.4a3.2,3.2,0,0,0,1.58,3.4,9.91,9.91,0,0,0,4.2,1.43c6.91,1.18,13.91,2.69,19.85,6.33,4.63,2.84,9,2.72,13.79,2,6.76-1,13.57-1.64,20.37-.4,6.3,1.15,9.84,6.26,7.52,11.54-1.74,4-4.6,7.33-9.61,7.73A39,39,0,0,1,370.36,704c-2.95-1-5.23-1.3-5.33,2.94,0,1.26-.84,2.51-1.33,3.75-.73,1.87-.05,2.79,1.88,3.09,9.26,1.44,18.56,2.15,27.78.17,6.84-1.46,10.87-6.31,12.5-12.87,1.39-5.6-2-12.47-7.33-15.82a63.82,63.82,0,0,0-18.78-7.85C367.35,674.32,354.69,674.35,342.1,673.48Zm-77.61-63.67c7.65,2,14.66,4.41,23.05,1.38,4.57-1.65,6.75-3.79,9.62-7.18-6.13-.53-11.18-2.83-16.85-1.7-2.81.56-3.91-1.95-2.55-4.79,2.5-5.21,10.16-7.32,15.64-4.28,4.51,2.51,8.14,2,11.9-1.65.86-.84,2.81-1.69,1.36-3.07s-2-5.4-4.71-4.28c-3.77,1.56-5.17-.94-7.17-2.69-2.64-2.3-5-4.93-7.8-7s-4.82-3.67-1.88-7.08a1.65,1.65,0,0,0-.67-2.84c-1.5-.55-2.67-.06-2.84,1.7a26.94,26.94,0,0,0,0,3c0,6.3.55,12.66-2.56,18.53-.52,1-.95,2.84-2.24,1.73-3.32-2.86-3.83.34-4.94,2-1.46,2.22-2.76,4.55-4,6.9s-2.62,3.67-4.32.31c-1.5-3-3.05-2-4.27.13-1.71,3-3.1,6.26-4.82,9.29-2.63,4.62-1.12,8.53,4,9.92.58.16,2.22-.6,1.43.8-2.9,5.11.85,8.84,2.35,13,1,2.82,2.19,2.87,3.92.27A18.82,18.82,0,0,0,264.49,609.81Zm-32,120.86c.09,1.59.18,3.2,1.61,4.06,2.92,1.76,3.89,4.86,5.56,7.51,3.45,5.51,4.1,11.9,6,17.91,1,3.13,2.05,4.31,4.9,1.23,6.68-7.21,13.21-14.5,18.16-23,1.74-3,3.29-6.16,4.75-9.32s.29-4.84-3.06-5c-4-.19-7.78-1.55-11.66-2.4-2.64-.57-5.69-3.5-8.1,1-.72,1.33-2.3-.39-3.32-1.13-2-1.46-3.26-3.79-5.8-4.61-1.67-.54-3.46-1.15-4.38.78A56.4,56.4,0,0,0,232.49,730.67Zm-124.14-48c.24,12.19-.62,13.08-12.72,13.27a4.67,4.67,0,0,1-1,0c-3.85-.88-5.85.89-7,4.45-2.07,6.52-4.46,12.89-9.27,18-1.9,2-.7,3.29,1.44,4A64.58,64.58,0,0,0,97,725.1c2.22.08,3.16-1.19,4.19-2.85,7.35-11.78,12.34-24.89,21.2-35.89,5.26-6.53,3.77-9.19-4.3-12-8.82-3.12-10.07-2.24-9.78,6.87C108.36,681.69,108.35,682.19,108.35,682.69Zm122.7-74.79c-.54-1.88-2.2-3.39-1.13-5.57.43-.88-.84-2.3-1.71-1.45-5.31,5.25-6.56-.29-8.53-3.21-1.25-1.85-2.43-3.34-4.75-2.42-3.12,1.24-4-.62-5.11-3-2.42-5.24-1.51-10.79-1.79-16.23-.06-1.24.7-2.93-1-3.51s-2.05,1.21-2.83,2.19c-.67.82-1,2.44-2.52,1.71-1-.47-.89-1.65-.74-2.67s1-2-.08-2.72c-1.27-.79-2.16.36-3,1.15-4,3.82-7.83,7.88-9.83,13.06-1.5,3.91-3.47,4.34-6.8,2.61-.89-.46-1.64-1.89-2.71-1.08-2,5.16-.74,8.61,4.3,10.7a9.34,9.34,0,0,0,5.82.35c3-.64,6-.93,8.88.12,3.6,1.33,6.58,4,6.77,7.87s-3.57,3-6.05,3.52c-.22,0-.38.45-.7.86a9.81,9.81,0,0,0,1.17,1.42c5.1,4.35,11.49,6.32,17.36,9.22,1.3.64,3.49-.42,2.59-1.64-2.76-3.72,1.09-7.54-.76-11.13-.56-1.09-1.1-2.67.4-3.6s2.49.3,3.64.9C224.74,606.84,227.36,608.8,231.05,607.9Zm52.11,148.43c.3-5.17-3.76-8.9-6.23-13.32-2-3.52-3.62-3-5.58.24-5.3,8.67-11,17.08-18.62,24-1.83,1.65-1.42,2.89-.2,4.64a177.24,177.24,0,0,0,11.54,14.39c2.07,2.4,3.88,2.21,5.8.1A49.66,49.66,0,0,0,283.16,756.33ZM232,707.26c-2.38,2-1.32,4.31-2.18,6-.42.86-.54,2-1.76,2.17s-1.75-.81-2.23-1.68a37.88,37.88,0,0,1-3-5.74c-1.36-3.88-4.4-5.59-7.83-7.15-2.12-1-3.42-.7-4.37,1.45-6,13.65-8,27.45-1.3,41.45,4.19,8.76,4.12,8.56,9.73.7C226.89,733.49,230.51,721.15,232,707.26Zm-13-139.33c.19-2,1.09-4.71-3-4.91s-3.86,2.63-4,5.34c-.25,6.12,2.83,10.73,6.64,15.08,1.57,1.78,4.32.64,5.72,2.66,4.48,6.49,9.69,11.58,18.54,10.8,2.55-.22,4.62,1.64,6.13,3.8s3.27,2.36,4.25-.4c1.33-3.74,5.2-6.6,3.81-11.32-.34-1.15.45-2.86,1.55-2.75,4,.42,5.52-2.68,7.79-4.82,1.1-1,2.63-1.89,4.11-1,2.91,1.76,3.76-.09,4.68-2.27a19.59,19.59,0,0,0,1.41-9.29c-.11-1.36-.34-2.53-2-3-2.39-.63-4.72-1.56-7.07-2.36-.78-.26-1.64-.7-2.33,0s0,1.49.25,2.24c2.58,7,1.19,11.87-4.45,15.6-8.15,5.39-8.15,5.39-15.48-1.77l-1.08-1c-4.9-4.57-5.77-4.4-8.54,1.74-.34.75-.51,1.59-.84,2.35-.72,1.61-1.82,2-3.63,1.58C225,582.59,218.88,575,218.93,567.93ZM283,730c5.29,8.18,8.79,16,9.25,25.09.06,1.28-.27,2.81,1.31,3.46,1,.43,1.87-.22,2.62-1a129.26,129.26,0,0,0,23.45-30.91c.78-1.45,1-3.14-1.11-3.56-3.23-.65-6.84-2.22-9.78-.73-8.14,4.11-16.58,4.47-25.31,3.5-3.43-.38-4.69,1.66-4.1,4.57.48,2.38,1.08,5,3.3,6.84C283.82,735,282,733.09,283,730Zm-13-57.69c1.16,0,2.33.08,3.49,0,1.41-.12,3.19.59,4.05-1.08s-.48-2.78-1.33-4c-4.25-6.12-4.24-6.12,3-8.5l.48-.17c1.36-.5,3.28-.47,3.54-2.25s-1.51-2.43-2.72-3.24c-4.67-3.16-10.41-4.46-14.64-8.47-1.28-1.21-2.47-.23-3.33.93-3.69,5-8.75,8.07-14.47,10.21-.61.23-1.73.62-1.7.79.89,5.59-4.05,4.28-6.66,5.62-1.18.6-2.9.77-2.58,2.47s2.1,1.44,3.34,1.33c3.74-.31,7.27.72,10.81,1.56,2.37.56,4.46,1.63,3.41,4.85-.41,1.27-.63,2.86,1,3.42s4.55,1.32,5.11-.17C262.7,670.51,266.72,672.54,270,672.29Zm92.75,130.06a9.14,9.14,0,0,0-1.31-4.75c-3.05-5.6-6.85-6.86-14.93-5.23-7,1.41-13.47,4.93-20.81,4.83-4.1-.05-2.78,2.27-1.59,4.2,2.79,4.55,5.56,9.09,7.13,14.23.64,2.07,2,2.3,3.88,1.92,4.39-.87,8.82-1.59,13.23-2.38C355.2,814,362.67,807.31,362.78,802.35ZM235.91,759.57c.77-6.87-3.72-11.53-7-16.6-1.22-1.86-2.54-.65-3.48.76-2.4,3.6-4.7,7.28-7.27,10.75-1.57,2.13-1.93,4.14-.79,6.48,2.28,4.69,1.71,9.38,0,14.07-1,2.82-2.09,5.61-3.09,8.44-1.61,4.58,2.1,6.85,4.66,9s4-1.2,5.36-2.76C231.88,781.14,234.85,770.71,235.91,759.57Zm68.72,34c-8.16.84-15.8,3.82-23.6,6-4,1.13-4.71,5.58-2.57,9.44a52.87,52.87,0,0,1,3.47,6.62c1.4,3.69,3.18,5.35,7.47,3.75,3.2-1.19,6.82-1.3,10.27-1.77,6.05-.81,10.91-3.81,15-8.18.81-.88,2.3-2.27,1.06-3.4-1.4-1.3-2.17.58-3,1.49s-1.36,2.12-2.77,1.5-1-2-1-3.1c-.2-3-.3-6-.46-9C308.35,794.6,307.09,793.41,304.63,793.62ZM230,843.35c2.66.12,4.49.18,6.32.3,3.35.22,3.75-.88,2-3.69-1.82-3-3.21-6.18-4.74-9.32-1.82-3.73-3.63-7.47-5.36-11.24-1.3-2.88-4.09-4.4-6.36-6-2-1.4-2.49,2.41-4.14,3.33-.74.42-1.51,1.12-2.21.39-1.93-2-3.17-.43-4.66.62a15.1,15.1,0,0,1-7.35,2.94c-3.58.28-4.25,2.23-4.29,5.32s1.83,3.79,4.38,4.16c5.94.86,11.81,3,15.15,7.81S225.72,844.05,230,843.35ZM120.4,642.75c-9.09-.49-9.81.15-12.61,8.62-1.52,4.57-1,9.2-1.3,13.82-.13,2.13,1.09,3,3.05,3a32.64,32.64,0,0,1,16.5,4.91c1.22.71,2.67,1.14,3.73.1,4.15-4,8.66-7.8,11.17-13.22.94-2,.3-3.24-2.05-3.16-3.82.14-7.63.37-11.44.5-2.4.08-5.64,1.84-7-.43-1.45-2.48,2.19-3.94,3.33-6,1.23-2.24,4.75-3.86,3.53-6.61S122.5,643.41,120.4,642.75Zm45.28,49.8c-.8-.2-1.21-.45-1.4-.33-3.4,2.07-6.7,4.31-10.18,6.22-1.63.9-3.3,3.26-5.26,1.85s-.53-3.67-.16-5.57c.24-1.25,1.14-2.58-.12-3.72-1.81-1.64-10.39.32-11.34,2.63-2.92,7-4.5,14.66-8.95,21.06-.67,1-.64,2.09.53,2.47a48.76,48.76,0,0,0,19.59,2.32c.62-.06,1.26-1,1.69-1.72C155.24,709.46,160.37,701.14,165.68,692.55ZM296.29,842.4c6.33,0,10-2.53,13.17-5.82,4.82-5,8.68-10.91,14.69-14.79,2-1.29.33-8.2-2.54-10.57-3-2.5-2.94,1.4-4.08,2.38a35.32,35.32,0,0,1-5.51,4.2c-5.19,2.93-11,3.77-16.66,4.9-10.28,2-11.27,4.11-5.71,13.14C291.52,838.88,293.5,842.16,296.29,842.4ZM155,657.14a19.35,19.35,0,0,0,.36,7c.47,1.82,1.33,3,3.34,3.05,5.16.1,9.75,2.08,14.06,4.61,2.34,1.37,4,1.14,5.71-.69,2.82-3.05,5.57-6.16,8.44-9.17s1.52-3.83-1.76-4.68c-4.8-1.23-9.56-.67-14.35-.45-2.38.1-4.16-.17-2.5-3.32,2.25-4.29-1.74-11.56-6.55-12.29A3.69,3.69,0,0,0,157.2,644C155.8,648.32,154.43,652.6,155,657.14Zm93.79,157.63c1.12-1.46,1.77-2.18,2.29-3,.77-1.2,2.57-2.35,1.43-3.86-1.3-1.73-2.68.08-3.89.68a62.47,62.47,0,0,0-5.65,3.18c-3,1.89-6.45,4.19-5.63,8s5.42,3.84,8.39,3.94a34.09,34.09,0,0,1,20.19,7.48,2.38,2.38,0,0,0,2.72.41c8.5-3.73,10.12-10.27,4.23-17.41-.21-.26-.46-.48-.67-.74-2.15-2.67-4.18-3.78-6.49,0-1.31,2.14-3.15,3-4-.42-.64-2.65-1.7-2.26-3.43-1C255.73,813.87,253,815.45,248.78,814.77Zm3.61-18.4c-.55-5-1.67-11.35-5.43-16.88-1.67-2.46-2.81-2.71-4.39.41-2.58,5.08-3.89,10.58-5.82,15.86A94.5,94.5,0,0,1,231.39,807c-1.36,2.61.42,4.5,1.72,6.32,1,1.36,2.06.3,2.83-.6,4.07-4.73,9.29-8,14.46-11.28C251.7,800.57,252.83,799.63,252.39,796.37ZM190.76,666.45c4.13-1.77,7.84-4.21,12.47-4.38a32.38,32.38,0,0,1,17.19,4.39c2.25,1.25,5.48,2.38,5.67-1.48.16-3.14,1.37-3.9,3.8-4.61,1.53-.45,3.22-1,3.8-2.87-6-3.81-14.15-3.37-19.55-9.45-2.69,4.23-7.41,6.8-12.2,8.28C196.45,658,193.77,662.11,190.76,666.45Zm63.55,29.21-1.82.41c-.39,6.09-.88,12.17-1.08,18.26,0,1.48,1.75,1.81,3,2.27,6.1,2.27,12.55,3,18.92,4,3.38.54,3.69-2.29,4.16-4.45.4-1.86,1.53-3.74-1.56-5.32a100.93,100.93,0,0,0-14.1-6.05C257.42,703.37,253.21,702.12,254.31,695.66Zm68.74-126.12c-.27-3.19.74-6.94-3.35-8.61-9.84-4-20.21-5.25-30.74-5.48-1.08,0-2.51-.19-2.5,1.61,0,2.87,4.26,5.22,6.9,3.85,6.43-3.34,12.58-2.66,16.85,1.87s4.42,9,.16,15.69c-2.31,3.66,1.58,5,2.68,7.13s2.8-.48,3.89-1.43A16.75,16.75,0,0,0,323.05,569.54ZM207,632c-2.48.8-2.54,2.56-3.29,3.76-3.72,6-8,8.44-14.63,6.6-4.88-1.35-6.71,1.15-8.56,4.46-1.4,2.52-.58,3.63,2.33,3.64,4.33,0,8.77-.34,12.94.52,6,1.24,9.77-1.85,13.79-5.17,3-2.47,3-5,.38-7.58C208.28,636.55,206.68,634.91,207,632Zm44.68,212.68a14.08,14.08,0,0,0,7.42-2.73c4.74-3.08,4.8-6.81.39-10.4-3.26-2.64-7.11-2.75-10.91-2.76-3.11,0-7.81-2.82-8.74-.69-1.4,3.19,1.61,7.12,3.46,10.4S247.36,844.66,251.66,844.67ZM194.78,676.26c-2.68-.52-4.63,1-5.74,3.41-1.75,3.82-4.39,6.83-.62,12,3.54,4.84,5.17,11.36,8.17,16.9.52,1,1.06,2.8,2.27,1.43,2-2.25,1.12-5.37,1.31-8.13.12-1.67-.56-2.81-2.62-2.75-2.74.09-2.12-1.91-1.89-3.52.66-4.62,2.27-9,3.63-13.41C200.87,677,200.24,676.24,194.78,676.26Zm-54.47-32.57a19.91,19.91,0,0,1,7.6-9.64c.8-.54,2-.88,1.61-2.12s-1.64-.81-2.58-.85a51,51,0,0,0-14.77,1.74c-1.62.42-4.35.35-4.25,2.57.09,1.91,2.68,1.43,4.2,1.77,6.82,1.53,7,1.85,3.1,7.67-1.13,1.71-3.58,3.33-2.25,5.57,1.16,1.94,3.71.41,5.59.82.16,0,.33,0,.5,0,4.13.84,6.16-1.82,6.49-5.07C146,641.72,141.73,646,140.31,643.69Zm106.89,58c-.52-2.51,1.08-6.59-.83-7.11-5.9-1.6-2.83-5.06-2.19-7.74,1.86-7.68-.31-9.91-8.14-8.1-1.49.35-2.16,1.12-1.64,2.38,3,7.2,2.74,15.5,7.24,22.15,1.42,2.1,2,6.61,4.25,5.93C248.71,708.38,246.51,704.24,247.2,701.72Zm-49.83-31.37c.33.37.42.56.56.6,2.81,1,6.16,1.25,8.3,3,2.89,2.39-.72,5.42-.63,8.28.09,2.57.39,4.86,3.76,4.42,4.16-.53,6.43-3.71,5.89-7.93-.33-2.55-1.42-5.42,3-5.69,1.32-.08,1.07-1.3.3-2.23C214.72,666.23,202.16,665.82,197.37,670.35ZM298.93,786.06c-1.17-3.71-2.16-8.45-5.06-12.44-1.4-1.93-2.84-2.54-3.88.21q-3.09,8.11-5.95,16.34c-.6,1.74,0,3.06,2.17,2.62,3.58-.71,7.15-1.46,10.7-2.32C298.62,790.05,299.15,788.65,298.93,786.06ZM159.93,672c-.72.27-3.41.31-1.79,1.74,3.48,3.06.9,5.72.59,8.57-.29,2.6-3.32,6-1.5,7.29,2.53,1.85,5.19-1.7,7.6-3.11,3.24-1.88,8.81-2.92,7.55-7.88-1.14-4.52-6.41-5.16-10.58-6.25C161.32,672.19,160.82,672.12,159.93,672Zm100.9-33.08c-1.6-2.8-3.33-6.17-5.41-9.3-.65-1-1.93,0-2.33.89a25.7,25.7,0,0,1-7.21,9.94c-.52.44-.84,1.31-.29,1.76,2.08,1.7,1.81,4.1,2.06,6.34.12,1,.49,1.44,1.56,1.38C251.48,649.77,260.67,641.6,260.83,638.87ZM163.66,572.8c-.1,4.69,1.89,8.67,4.44,12.38,1.87,2.73,4,1.18,6.07.08s1-2.16.12-3.18c-4.7-5.64-4.32-11.38-.52-17.28.41-.65.89-1.69.64-2.23-.47-1.06-1.66-.66-2.63-.56C166.14,562.55,163.75,565.71,163.66,572.8Zm-7.52,264c-4.62-.23-5.59,1-4.49,5.42,1.25,5,7.16,8.45,12.83,7.52,3.44-.57,4.41-2.46,3.43-5.66C166.53,839.6,162.57,837.13,156.14,836.81Zm79-290.87c-7.78-.2-13.18,3.1-17.91,7.86-.79.8-1.88,1.67-1,3,.67,1,1.77.6,2.74.44,6.52-1,13.34-1.15,18.62-6,1.38-1.26,4.66-1.47,4-3.58s-3.74-1.33-5.78-1.71C235.38,545.87,234.86,545.94,235.14,545.94ZM337.9,720.14c3.27.46,7.48-.42,11.61-1.69,1.17-.36,2.76-.89,2.75-2.47s-1.69-1.25-2.64-1.73c-4.56-2.32-9.58-2.34-14.51-2.83a6,6,0,0,0-6.87,6.34c0,4.5,3.71,1.57,5.61,2.32C334.71,720.42,335.81,720.14,337.9,720.14Zm22-16.29c-.07-3.39-4.39-6.87-8.68-6.83-3.82,0-1,3-1.62,4.53-.77,1.83-1.17,3.78-2.53,5.34-.81.93-1.53,2.28.11,2.78,3.1.94,6.27,3.51,9.43,1.9C359.39,710.15,359.41,706.54,359.88,703.85ZM118.54,705.3a12.14,12.14,0,0,0,.66,2.39c.74,1.59.9,4.11,2.83,4.31,2.23.23,3.12-2.16,4-3.9a69.24,69.24,0,0,0,4.92-13c.69-2.63-.09-3.47-2.71-2.7C124.05,693.58,118.69,700.43,118.54,705.3Zm186.8,11.17c3.36.14,7.79-4.85,7.69-8.66-.13-4.74-4.65-3.84-7.34-5.17-1.25-.61-7.26,7.52-7,9.6C299.26,716.38,303.15,715.36,305.34,716.47ZM276.61,646c1.73-.51,3.8-1.09,5.83-1.75a1.74,1.74,0,0,0,1.3-2.29c-.41-1.73-9.88-8.74-11.75-8.66a3.19,3.19,0,0,0-2.81,1.77c-.85,1.68-2.86,3.27-1.42,5.37A12.26,12.26,0,0,0,276.61,646ZM69.7,710.12c.43,1.61.21,4.6,2.62,5.38,2.13.69,3.2-2,4.33-3.54,2.61-3.49,4-7.64,5.43-11.72.45-1.31,1-3.2-1.61-3C75.71,697.48,69.64,704.45,69.7,710.12ZM170.94,557.34c10.61-1.06,19.88-2,29.21-2.13C191,548,179.9,548.65,170.94,557.34ZM331.16,686.08c-.11,3,.89,5.87,5.78,5.51a14.09,14.09,0,0,1,7.27,1.2c1.81.87,2.91.58,3.8-1.52s.6-3.38-1.47-4.34a65.52,65.52,0,0,0-12.62-4.32C331.7,682.1,330.76,682.86,331.16,686.08ZM214.87,768.17c-.25-2,.52-4.25-1.7-5.07-1.76-.66-2.47,1.24-3.54,2.2q-3.16,2.81-6.41,5.55c-1.1.94-3,1.89-1.33,3.44s2.81,5.2,5.69,3.68C211.42,775.94,214.44,772.71,214.87,768.17Zm7.27-82.57c1.21,3.59,2.39,7.74,4,11.7.89,2.15,2,.82,2.7-.49,2.41-4.44,3.38-9,.85-13.71-1-1.78-1.35-4.8-4.16-4.11S222.48,682.5,222.14,685.6Zm-49.53,17.58a10.45,10.45,0,0,0-.71-2.47c-.74-1.38-1-3.57-3-3.5-1.64.06-2.06,1.95-2.75,3.2a44.82,44.82,0,0,0-3.51,7.08c-.9,2.72-4.39,6.4-2.37,7.82,2.42,1.7,4.91-2.53,7.23-4.31S172.69,707.25,172.61,703.18Zm-69-21.55c-.54-1.29.29-3.39-1.17-4.79-.85-.81-1.9-.12-2.67.54-3.72,3.24-6,7.47-8.06,11.85-.76,1.63.25,2.39,2,2.44A9.56,9.56,0,0,0,103.58,681.63ZM203.45,834.4c-1.26.15-2.81-.48-3.61,1s.3,2.57,1.11,3.57c2.84,3.52,6,6,11.11,4.76,3.74-.9,3.46-2.48,1.6-4.77C211.05,835.74,207.37,834.78,203.45,834.4ZM320.09,680c-2.88-.45-4,.5-2.66,3.52.9,2.11,1.55,4.34,2.33,6.5.63,1.72,2.07,2,3.63,1.88,1.14-.07,2.31-.12,3-1.35C328.17,687.18,324.09,680.18,320.09,680Zm-29,12.67c3.28.36,3.85-2,3.52-4.47-.77-5.55-6-3.39-9.1-4.77-1.22-.54-2.13.15-2.13,1.79A7.25,7.25,0,0,0,291.12,692.69ZM302,719.28c-5.25-1.5-10-3.09-14.94-4.21-3.61-.84-4.14,2.48-4.43,4.7-.36,2.81,2.23,1.55,3.59,1.61a58.26,58.26,0,0,0,8.46,0C297,721.12,299.64,722.06,302,719.28ZM273.42,681c-2.7.12-4.38-.25-4.38,2.13,0,2.54,4.29,10.76,5.34,10.13,2.47-1.46,3.4-4.08,3.38-6.79C277.74,683,276.11,680.75,273.42,681ZM145,618.14c-3.77.3-6.23.45-8.67.73a2.6,2.6,0,0,0-1.56,1,1.11,1.11,0,0,0,.57,1.64c4.39,1.7,8.64,3.92,13.5,4.07.93,0,1.91-.75,1.34-1.47C148.31,621.76,147.1,618.64,145,618.14ZM319,718.87c1.7.12,3.29-.07,3.7-1.84.53-2.32,2.59-4.74.86-7-1.44-1.9-3.71-3.13-5.4.16-.67,1.31-1.29,2.65-1.92,4-.52,1.13-2,2-1.17,3.49S317.72,718.59,319,718.87ZM183.33,677.12l-1-.65c-2.29,3.1-4.47,6.3-6.91,9.29-2,2.49-1.44,4.85-.23,7.34.35.73.59,1.62,1.62,1.55s1.29-.95,1.54-1.72C180,687.66,181.68,682.39,183.33,677.12Zm129.86,13.23c-.19-9.12-3.36-12.52-9.91-11.59-2.33.33-2.66,1.37-1.07,2.75C305.64,684.48,309.26,687.21,313.19,690.35ZM148.78,677.56c-2.89,0-7.87,4.56-8,7.22-.08,1.68,1.05,1.75,2.31,1.69,3.81-.17,8.81-4.09,8.74-6.84C151.79,677.35,150.06,677.72,148.78,677.56Zm41.63-117.08c4,2.91,6.92,5.07,9.9,7.1.85.58,1.48-.06,1.86-1,.65-1.54,1.63-3.1,1-4.76s-2.53-1.27-3.93-1.35C196.79,560.39,194.31,560.48,190.41,560.48Zm73,133.76c1.47,0,2.58-.42,1.93-1.72-1.32-2.65-.82-6.7-4.7-7.44-1.5-.28-3.84,1.42-3.38,2.88C258.21,691,261,692.74,263.41,694.24ZM241.74,554.67c3.9,1.54,7.89.38,11.6,1.32a1,1,0,0,0,1.35-1,2.76,2.76,0,0,0-1-1.53C250.45,550.43,246.5,550.77,241.74,554.67Zm-7.3,62.47c1.56-.63,3.55-1.42,5.53-2.23.93-.37,2.05-.78,1.7-2s-1.6-1-2.47-.68a16.22,16.22,0,0,1-5.84,1c-1.37,0-3.53-.55-3.39,1.63C230.11,616.88,232.24,617,234.44,617.14Zm-3,28.2c1.93-.31,5.27.66,5.4-1.81s-3.35-2.73-5.48-3.19-3.55,1.42-3.67,3.22C227.53,646.28,229.88,645.22,231.45,645.34ZM194.78,821.58c-.36-.93.67-2.82-1.28-2.46-2.8.51-3.57,3.18-4.16,5.54a2.45,2.45,0,0,0,2.61,3.28C196,827.4,193.39,823.61,194.78,821.58Zm-76.93-105c-1.3-1.27-1.76-4.19-3.42-3.74-2.93.79-1.88,4.55-3.31,6.71-.47.69-.2,2,.86,1.66A10.36,10.36,0,0,0,117.85,716.56Zm29.3,107.31c0-1.23.57-3-1.34-2.45-2.71.75-3.36,3.4-3.88,5.8a2.16,2.16,0,0,0,2.14,2.74C148,829.46,146.08,825.82,147.15,823.87Zm95.48-152.71c-1.35.44-4.11-1.07-3.76,1.5s3.32,2.1,5.41,2.16c1.36,0,3.54.6,3.22-1.72C247.09,670.15,244.36,671.64,242.63,671.16Zm-106.74,6.18c-1.43,0-6.41,7.29-5.79,8.47a1.6,1.6,0,0,0,2.52.5c2.6-1.94,3.12-5.19,4.53-7.88C137.45,677.85,136.61,677.38,135.89,677.34Zm70.58,126.77c2-1.83,4.92-2.4,6.14-5a2.22,2.22,0,0,0-.23-2.76,1.45,1.45,0,0,0-2.21,0C208.55,798.68,205.89,800.48,206.47,804.11Zm77-125.74c4.09,2.14,7.38,2.54,10.61,3.09A1.88,1.88,0,0,0,296.4,680c.3-1.43-1-1.49-1.92-1.65A28.67,28.67,0,0,0,283.48,678.37Zm36.55-2c.75-.18,2.66.37,2.35-1.2-.45-2.37-2.39-3.8-4.94-4-1.55-.1-2.61.64-2.5,2.28C315.16,676.63,317.74,676,320,676.35ZM304.57,551.13c3,2.25,6.57,2.93,11.33,3.58C312.08,551.19,308.2,551.6,304.57,551.13Zm-38.71,6.59c2.49,1.66,4,3.55,6.58,2.06a1.81,1.81,0,0,0,.3-1.72C270.86,556,268.78,556.72,265.86,557.72Z" transform="translate(-15.75 -2.5)"/><path d="M537.5,856.65c.58-4.68,4.52-3.95,7.52-4.54,2.31-.46,5.68-.2,6-2.69.38-2.78,2-5.94.19-8.64-.7-1.06-1.69-1.57-.52-2.72s2-.37,2.8.64a36.76,36.76,0,0,0,3,2.81c1.81-.15-.16-3.71,2.61-3.13a3.25,3.25,0,0,1,3,2.77c.67,2.9,2,1.25,3,.08,5.56-6.62,5.6-6.67,11.24.35.93,1.16,1.65,1.41,2.89.78.94-.48,2.7-.42,1.61-2.17-1.31-2.13,3.67-2,1.43-4.25a21.26,21.26,0,0,0-8.57-4.84,22.88,22.88,0,0,0-6.71-1.55c-3.56,0-6-1.62-8.14-4.09-1.71-2-3.15-2.61-5.86-.93-6.18,3.86-13.17,5.9-20.35,7.08-2.48.4-4.53,1.5-4.35,3.92.65,8.32-5.81,10.84-11.25,13.8-3.35,1.81-6.85,3.28-9.84,5.72-1,.83-2.89,1.91-3.48.66-1.21-2.55-4.35-3.73-4.58-6.78a.94.94,0,0,1,1.45-.79c2.12,1.44,3.32,1.84,2.56-1.56-.13-.6,1.22-.6,1.55-.08,2.74,4.27,4.41-.91,6.7-.89a2.43,2.43,0,0,0,.41-4.05,16.61,16.61,0,0,1-3-4.43c-.63-1.16,0-2.28.8-3.16a1.53,1.53,0,0,1,1.31-.43c1.48.56.7,1.56.31,2.41s-.16,1.35.56,1.57a1.25,1.25,0,0,0,1.68-1.3c-.13-2.05,1.11-2.22,2.58-3.17,3.52-2.29,4.19-6.18,2.72-10.18,1.2-.19,1.95,0,2,.75.32,5.44,3.46,5.55,7.18,3.54a7.49,7.49,0,0,1,5.71-.54c5.3,1.21,10.17.94,13.34-4.36,1.18-2,3.25.68,4.54-1.11-2.4-5.16-6.23-8.4-12.64-8.12,4.8-5.91,5.72-5.83,14.09,1-.37-3,.48-4.94,3-6.42,3.23-1.87,1.66-6.08,3-9.06,2.2.94,1.5,2.48,1.28,3.89s-1.83,3,.35,3.82c1.67.6,2-1.3,2.64-2.38a16.42,16.42,0,0,1,1.89-2c1,3-1,5.18-.43,7.57,4.06.34,3.32-3,4-5.55,1.5,4,5.63,5.76,6.5,10.21,2.44-4.21,3-8.16,3.17-12.57.3-7.07-2.57-13.09-5.91-18.49-3.6-5.84-1.6-11.78-2.81-17.57a65.24,65.24,0,0,0,3.82,14.45c1.22,2.87,2.57,7.16,5.44,6.89,3.56-.33,3-5.17,3.24-8,.53-5.59.62-11.22,1.55-16.81a18.13,18.13,0,0,1,2.12-6.34c1.45,1,.89,2,.69,2.92-1.75,7.84-1.4,15.82-1.55,23.76-.07,3.81-1.8,7.25-2.23,11s.9,7.41,1.37,11.07c.23,1.82,2.6.07,4,.27s1.28-2.48.29-3.52c-1.13-1.19-2.23-2.14-1.17-3.78s2.7-.29,4.57-.27c-1.41-3-.49-5.76.55-8.92,1.83,1.35,3.91,2.22,1.54,4.76-1.79,1.91-.47,2.58,1.26,2.82a14.3,14.3,0,0,0,3-.27c1.27-.09,2.92,1.29,3.72,0,1.1-1.83-1.24-2.28-2-3.39-3.09-4.26,2.09-6.11,3.51-7.53,2.17-2.17,2.82-4.81,4.29-7.39-1.5.83-3,1.7-4.5,2.47-.73.37-1.65.71-2.11-.34s.12-1.94,1-1.85c3.31.34,3.35-2.59,4.68-4-.66-2.12-3.23,1.47-3.23-1.35a2,2,0,0,1,2.78-1.92,4.34,4.34,0,0,0,.47.16c.8.19,1.52-.2,1.23-.93-1.64-4.16,1.63-7.53,1.71-11.39-5.45,1.42-1.84-5.74-6.05-6.35-1.72-.25.29-3.48,1.29-4.46a5.73,5.73,0,0,0,1.6-6.72c-.76-2,.18-3.1,1.79-4s3.19-2.4,2.47-4.41c-.95-2.67-2.81.09-4.21-.33l-1-.31c2.79-3.31,5.59-6.61,8.55-10.11-.32-1.45-3.15,1.47-3.12-1.1,0-1.4,1.29-1.83,2.44-2.13,2.87-.72,2.12-2.77,1.21-4.26-1.62-2.64-1.34-4.76,1.37-6.66-5.2-1.18-5.13-1.14-2.61-5.34a12.15,12.15,0,0,1,2.58-2.94,3,3,0,0,0,1.24-2.91c-1.83-1.22-2.09,1.55-3.89.93.34-3.22,5.41-4.37,3.9-8.56-2.25.76-2.58,4.31-5.55,4-.83-1.94.8-3,1.76-3.69,2.69-2.07,3-4.17,1-6.79-.59-.77-1.51-1.79-.66-2.66,4-4.05,2.22-7.61-.71-11.19-1-1.22,0-2.27.7-3.09,1.88-2.26,4-4.31,8.41-4.36l-5-3c4.2-4.49,9.85-7.06,13-12.28a1.25,1.25,0,0,1,2.09-.34,5.21,5.21,0,0,1,1.66,4.51c-.17,1.43-1.16,2.24-2.45,2.9-1.53.79-4.12-3.15-4.1.14,0,1.89,1.42,6.07,4.9,6.4,2.18.21,1.81,1,1.8,2.45,0,5.26,0,10.54.12,15.8.08,3.5.45,7-1.6,10.17a4,4,0,0,0-.62,2.86c4.45,15.7,2.88,32,4.68,48,1.59,14,2.21,28.14,4.91,42,.9,4.66,1.74,5.81,4.93,6.25-.21,2.27-3.73,2.54-3.17,5.21,2.79-1.6,8.88.76,9.93,3.9.14.42.15,1.25-.08,1.38-3.79,2.21-4.82,7.26-9.12,8.89a7.75,7.75,0,0,0-3.49,2.72c-1.51,2-1.88,5.06-.88,6.58,1.51,2.31,2.58-1.36,4.26-1.55,2.95-.34,4.25-2.89,6.13-4.75,2.48-2.45,5-6.88,8.86-1.37.55.78,1.75.82,1.87-.25.15-1.36,2.44-2.89-.14-4.24-1.42-.74-4.16-.89-2.35-3.66,1.28-1.95,2.87-2.79,4.83-.63.6.66,1.45,1,2.12.06a1.47,1.47,0,0,0-.64-2.45c-1.77-.67-2.56-2-3.63-5.17,5.37,4.19,9.92,7.59,17.35,5.82-2.72,3.06-4.09,5.12-5.56,6.67-3.41,3.59-5.08,6.41.45,9.49,2.5-2.13,1.24-8.8,7.21-7.2,3.58,1,7.68-2.81,11.17,2.52-2.68-5.1-1.62-6.47,2.77-5.27a1,1,0,0,0,.49,0c4.56-.74,9.08-1.58,4.37,5.38a2,2,0,0,0,1.67,3.22c3.56.09,3.65.07,2.69,3.3a7.89,7.89,0,0,1-.69,1.87c-2.3,3.58-3.73,6.5,2.87,4.68,2.09-.58,2.75,2.15,5,2.67,0-2.14.22-4.07,2.22-5.07.59-.29,1.68-.77,1.7-.35.27,5.15,3.64,1.09,4.73,1.77a62.12,62.12,0,0,1,5.88,3.83c1.33,1.08,2.26-1.47,3.84-1.41.81,3.58-3,7.77,1.66,10.76.66.43,0,1.91-1,2.49-1.2.76-1.82,0-2.21-1a8.67,8.67,0,0,1-.52-1.92c-.37-2.54,1.32-4.95-4.46-3.84-6.32,1.21-12.08,3.32-18,5.26-2.17.71-3,1.86-3.63,4.07-1.38,4.68-2.79,9.34-6.42,13.15-2.78,2.92-3.34,7.41-6.26,10.56-2.41,2.61-5.48,5.24-4.41,9.61,0,.15-.65.63-1,.71s-1.17-.26-.84-.79c1.48-2.36.59-2.85-1.83-3.32-1.64-.32-1.32-2.6-.21-3.1,4.11-1.88,3.23-5.31,3.14-8.57,3.53-1.75,7.74-3.36,3.47-8.23-2.72-3.12-.9-7.56-3.54-10.64-.5-.59.12-2.27-1.49-1.79a1.67,1.67,0,0,0-.83,2.5c1.41,2.75.24,3.87-2.39,3.58-1.89-.21-1.3,2.27-3,2.14-.05-.63-.11-1.25-.16-1.88-.07-1.14,1.16-3.05-1.12-3-1.31.06-2.39,2.21-2,3,1.79,3.61-1.3,5.4-3,8.34,4.62-.89,8-2.71,10.7-6.29,1,2.33,3.64,3.47,2.19,6.25,6.36.71,1.64,3.89,1.35,6.09a10.55,10.55,0,0,0-2.91.42c-2.61,1.22-4.09.62-4.1-3.64-1.3,3.46-2.16,5.73-3.26,8.65-1.85-3.38-4.37-2.75-6.4-1.33-4.55,3.19-11,2.3-14.83,7.26-1,1.28-4.32.28-6.48.48-2.9.26-3.17-1.22-3.86-3.17-.52-1.49-2.1-2-3.59-2.34l.06.12a13.48,13.48,0,0,0-9.94-.06,19,19,0,0,1-15.64-.91c-.33-.17-.63-1.26-.94-.39-.94,2.71-3,2.33-4.18,1-1.57-1.74.62-3.65,1.09-5.4,1.05-3.86,6.2-3.51,8.05-6.83a38.05,38.05,0,0,1,3.8,3.82c.73,1,.63,3.26,2.1,2.85,1.93-.54,4.32-1.25,5.24-3.63-2.12-1.52-2.67,1.75-4.28.59,1.55-6.38,2.48-7.08,8.38-4.85,2.29.86,4.67,0,6.23-.34,3.47-.8,3.74,3.15,5.34,2.82,2.62-.53-1.77-4.28,1.33-5,4.16-1,5.73-5.71,10-6.45,1.51-.26,3.18-1,2-3-.79-1.29-1.73-3.08-3.93-1.89a10,10,0,0,1-2.29.88c-3,.7-4.15-1.57-5.31-3.53-1.45-2.43.77-3,2.23-4.06,1.31-.92,2.52-2,3.79-3-1.59-2.13-2.73,1.45-4.49-.89-.22-1.57,3.5-2.63,2-5.55-2.28.93-2.79,3.79-4.83,5-1.68-2.45.73-4.26.3-7.4-7.3,5.68-14.68,10.45-23.65,11.63l.13.13c-4.13-1.66-6.13-.65-7.18,3.5-.43,1.69.54,4.57-1.57,4.84-5.11.67-7,7.11-13,6.33-5.43-.71-10.91,2.63-16.6.06-1.21-.55-2.75,1.44-2.09,3.55.33,1.07.78,2.44-.61,3.08s-1.41-1-2.14-1.55a11.4,11.4,0,0,0-3-1.52,2,2,0,0,0-1.62.78,1,1,0,0,0,.44,1.58c4.72,1.59,3.17,4,.87,6.52-.82.88-1.94,1.68-.5,2.78,1.25.95,2.25.42,2.58-1a2,2,0,0,1,2.49-1.78c6.84.49,11.78-5.53,18.51-5.46,1.68,0,3.34-2.08,5,0a1,1,0,0,0,.85.28c1.81-.91-.15-2.59.6-3.49,1-1.26,1.85,1.55,3.37.43a2.46,2.46,0,0,0,1-3.33c-.37-1.07.7-.86,1.28-.72,1.55.37,2.42,1.54,1.86,2.95-.72,1.82-1.74,4.74-3,4.93-7.14,1.11-11,11-19.81,7.3-1.61-.67-2.82.42-4,1.47a20,20,0,0,0-4.45,6.74c-1.56.16-1.36-4.94-3.62-.69a6.82,6.82,0,0,1-11,1.3,28.1,28.1,0,0,1-4-4.93c-1.89-3.25-5.2-1.62-7.53-1-2.07.54-1.94,3.15-1.14,5.13,1.92.83,2.08-2.15,4.13-1.54,0,1.9-.8,4.08.83,5.86a1.32,1.32,0,0,1-.35,2.14,8,8,0,0,1-6.68,0c-1.23-.6-1.74-2.7-2.83.09-.3.76-1.57.52-2.24,0-1-.78-.85-1.68.11-2.48,2.14-1.77,1.35-2.89-.93-3.15-3.6-.42-1.94-5.39-5.32-5.84l.13.14a18.54,18.54,0,0,0,.22-2c.07-2.5,4,1.6,3.18-1.77-.63-2.52-3.33-1.56-5.14-2ZM597,831c.3,1.66,2.25,3.08.68,5-.58.71-1.59,1.81-.31,2.43s2.27-.58,2.42-1.77c.29-2.43.81-5.17-2.92-5.56a17.78,17.78,0,0,1-2.28-2.58c-.64-1.09-1.76-2.37-.86-3.63s2.39-.7,3.65-.29c.58.19,1.08.83,2,.1-.11-2.88-1.57-4-4.45-3.05-2.36.76-4.47,2.5-4.14,4.85C591.17,829.58,593.78,831,597,831Zm66.36,5.29a13.07,13.07,0,0,1-.59,1.47,3.15,3.15,0,0,0,.35,4c.64.62,2,1.32,2.58,1,1.81-.91.72-2.31.41-3.78-.37-1.77,1.41-2.85,2.7-3.81,1.73-1.29,2.06.43,2.87,1.42s1.87,1.27,2.78-.24a57.36,57.36,0,0,1,11.44-14,2.75,2.75,0,0,0,.71-2.73c-.09-.66.25-1.72.88-1.29,1.28.85,2.59,2.53,2.65-.52,0-1.89-1.75-2.12-3.55-2.54-3.25-.77-5.73,1.39-8.69,1.42-8.93.09-17.94,8.24-18.69,17-.1,1.18-1.23,2.73.16,3.68S661.31,835.76,663.33,836.27ZM605.71,838c1.8-3.56-1-8.35,4.83-9.11-3.15-1.19-5.74-4.95-8.72-.21C605.76,830.36,603.86,834.53,605.71,838Zm35.89-39.27c-.15-3.16-3.41-2.78-5.27-4a1.07,1.07,0,0,0-1.59,1.15,7.09,7.09,0,0,0,4.24,5.34C639.84,801.62,641.54,800.73,641.6,798.77Zm-87,57.93c4.09-.24,7.51-2,11-4.25C559.53,848.05,558.14,855.19,554.63,856.7Zm110.58-11c-3.12-.55-5.38-1.28-7.86-.26C660.26,849.5,660.65,849.53,665.21,845.67Zm-31.92-98.42c-.31-1.39-1-2.47-2.53-2.61s-1.61.89-1.4,1.93-.42,3,1.7,2.82C632.11,749.29,633.37,748.82,633.29,747.25Z" transform="translate(-15.75 -2.5)"/><path d="M477.2,106.3c-.08,2.65-1.76,3.34-2.92,4.45-1,.94-4-.17-2.91,2.76.87,2.27,2.35,4.33,5.14,3.85,3.28-.56,7.19-1.2,8.78-4.14,2.65-4.9,7.43-6.85,11.3-10.08,3.7-3.08,7.08-6.54,10.69-9.74,3.14-2.77,2.45-7.28,5.17-11.61a34,34,0,0,1-3.18,22.15c-.94,2-2,3.81-3,5.73-1.94,3.77-4.36,6.56-8.7,8.25-7,2.72-12.73,7.16-14.58,15.23-.46,2-2.12,3.73-3.29,5.54-5,7.78-10.69,15.17-13.74,24.67-3.19-4.77-2.66-9.64-3.77-14.06a98.68,98.68,0,0,0-5.77-17.46c-5-10.73-6.13-22.35-7.3-33.95-1.21-12.08-2.3-24.19-4.08-36.2a70.57,70.57,0,0,1,.36-24.3,29.58,29.58,0,0,1,6.86-13.65c10.28-12,23.63-18.62,39.06-21,9.57-1.48,16.42,4.23,23,10,12.65,11,17.77,25.76,20.54,41.62,2.38,13.65,4.06,27.34,1.43,41.16-.72,3.77.88,7.35,1.38,11l-1.18.43c-3.14-4.48-6.31-8.94-9.41-13.45-3.47-5-8.21-9.17-10.3-15.17-.66-1.91-2.36-3.25-4.23-1.52-1.48,1.36-2.19.91-3.21-.22-1.23-1.37-1.81-3.08-1-4.61,1.05-2.06,2.17-.32,3.08.44s1.72,1.15,2.64.35.91-2.07.35-3.21c-1.45-3-7.05-4.65-9.67-2.5-2,1.64-2.47.68-3.09-.94a37.8,37.8,0,0,0-5.68-10.46c-2.73-3.35-5.84-5.9-10.39-6.13-6.32-.32-9.27-5.94-13.71-9.12-2.9-2.07-5.25-2.88-8.65-1.94-3,.82-5.74,2.36-9.16,1.72-2.78-.51-3.5,2.22-3.77,4.33-.75,5.84,0,11.63,1,17.39.28,1.53,1.51,2,2.59,2.75,2,1.44,4.52,2.38,5.56,4.86.6,1.45,2.67,2.93,1.36,4.42-1.7,1.94-2.19-1-3.36-1.48-1.77-.72-2.17-.16-2.39,1.7-1.2,10,2.38,18.95,7.73,26.69,1.61,2.32,4.59,3,3.73,7-.3,1.42,2.33,3,4.71,1.52C473,108.29,474.42,106.47,477.2,106.3Z" transform="translate(-15.75 -2.5)"/><path d="M611.12,518c-1.3-1.34-1.44-4.91-5.06-1.87,4.73-5.73,9.48-6.44,15.75-2.28-1.23-2.5-2.12-4.3-3.42-6.92,5.74,3.08,4.83-2.38,6.86-4.31,2.68,1.34.93,4.64,3,6.53a6.73,6.73,0,0,0,1.38-8.79c-2.44-3.51-.39-4.2,1.85-5.33,1-.48,2.32-1.93,1.71-1.83-3.77.62-4.66-5.17-8.67-3.49-.93.38-3,1.05-3.29-.91-.26-1.63,1.38-1.24,2.46-1.55,4.1-1.2,5.86-7.7,3-11.42a38.79,38.79,0,0,1-3.19-5.57c-.67-1.21-.58-2.28.72-2.93,1.08-.54,1.73.18,2.54.89,3.7,3.24,6.77,6.79,7.4,11.95a4.07,4.07,0,0,0,1.36,2.62c4.91,3.54,2.42,7.62,1.13,11.75a93.65,93.65,0,0,0-3.46,13,8.19,8.19,0,0,1-5.19,6.71c-2.6,1-2.68,2.4-2.14,4.6,1.18,4.83,2.18,9.7,3.37,14.53.81,3.29,6.5,6.91,9.78,6.31a2,2,0,0,0,1.14-.86c.36-.63-.09-1-.69-.85-1.18.21-2.27.09-1.47-1.37s2.3-.89,3.62-.94c1.65-.06,1.53,1,1.35,1.94a19.09,19.09,0,0,1-6,10.72c-4.45,3.78-2.76,6.53-.09,10.19,1.57-2,3.09-6.91,5.39-.69.07.19.93.28,1.31.12a1.19,1.19,0,0,0,.55-1.69c-.93-1.88-1.46-4.24-4.79-3.83l3.53-4.16c.56,2.67,1.57,4.79,6.18,5.62-5.51-3.94-3-7.76-2.37-11.57.4-2.42.48-4.8,4-4a1,1,0,0,0,.88-.4c3.1-5.74,9-9.92,10.18-16.63.76-4.16-2.76-5.56-6.14-6.47-1-.26-2.25-.38-2.2-1.57.11-2.27,3.23-1.77,3.94-4,.34-1.07,1.06.42,1.2,1.08.36,1.68,2.46,1,3,2.26s1.34,2,2.67,1.3a2.44,2.44,0,0,0,1.11-3c-.25-.8-.6-1.73.25-2.27,1.3-.8,1.57.63,2.26,1.21,1.19,1,2.92,2.05,3.84.47s3.63-2.32,2-5c-1.2-1.91-1.45-3.24,1.73-4.14,3.89-1.1,4.48-4.47,1.75-7.82-.91-1.13-1.77-1.66-1-3.24s1.67-1.46,3.17-.8c1.83.8,3.79-.14,3.45-2.14-1.21-7.33,3.09-14.43.31-22-1-2.85-1.58-3.29-4.09-2.65-1.19.31-2.92.83-3.48-.84s1.42-1.41,2.18-2.1c2.73-2.5,5.83-4.28,4.12-9.42-.67-2-2.22-6,.39-8.8.52-.55.1-1.59-.62-2.2-1-.85-2.6-1.72-1.55-3.16,1.32-1.84,2.34,1.12,3.84.67.11-2-.9-3.05-2.84-3.22s-2.51-1.54-2.68-3.05a2.86,2.86,0,0,1,1.45-3c2.12-1,2.1,1.6,3.29,2.22,3.41,1.78,4.17,5.28,4.72,8.42,2.73,15.53,6.1,31.12,3.94,47a60.55,60.55,0,0,1-10,26.11,86.3,86.3,0,0,0-11.42,25.72c-1,3.55-.87,3.38-4.73,3.44-1,0-2.41,1.7-2.82,2.9-1.13,3.31-3.81,5.4-5.75,8.06-2.28,3.15-2.16,6.38-1.13,10.58,2.72-3,.85-7.73,6.06-8.72-2.76,5.44-2.37,11.16-5.72,16.34-3.65,5.67-5.46,12.54-7.18,19.22-.86,3.34-2.19,6.55-3.06,9.88s-3.45,3.43-6.61,3.08c3.35,2.16,4.14,4.67,2.31,7.86-5.13,9-3.94,19.38-6.6,28.92-.49,1.77-.7,3.24-2.75,3.46a7.6,7.6,0,0,0-5.87,4.17c-1.89,3.23-3.17,1.59-3.89-.64a25,25,0,0,1,0-15,19.61,19.61,0,0,0,.31-8c-.47-2.4-2.34-3.67-5.18-2.91-5.79,1.53-11.18,0-16.34-2.61a9.22,9.22,0,0,1-4.47-4.54c-.83-2.1-2.89-5.46,2.66-4.4,2.78.53,3.62-1.62,2.05-3.75-1.29-1.75-2.29-3.21-1.22-5.39,2-.1,2.56,1.85,3,2.79,2,3.85,5.87,1.42,8.48,2.91.17.1.93-.36,1-.68a2.65,2.65,0,0,0-.91-2.66c-2.24-2.46-5.19-4.07-7.5-6.51-1.76-1.86-2.64-3.64-2.78-7.07,2.79,4,5.89-2.16,8.12,1.65,1.75-.95-.84-6,3.79-3.36.52.29,1.1-.56.87-1.35-1.24-4.21,2.36-6.87,3.21-10.34.62-2.52,6.14-5.83-.49-8.3-.62-.23.44-4.64-.3-5-3.75-1.82-.48-8.33-6-8.6-.14,0-.46-.92-.35-1.31.44-1.54,1.76-1.4,2.87-1.12,3.78,1,6.82.14,9-3.68-1.79-.91-3.27-1.81-3.15-4.5s2.63-1.41,3.5-2.93c-3.18-3.35-6.82-1-10.18-.86-.9,0-1.9,1-2.57-.14s.66-1.5,1.24-2.22c1.91-2.37,4.82-3.9,5.81-7.06.24-.77,1-1.49.3-2.22-1.08-1.11-1.75.1-2.44.69-1.35,1.17-2.33,2.65-4.46,2.89-6.28.71-8.87-2-8.24-8.76,3.27,2.55,3.27,2.55,5.21,6.63,1.24-3.08.52-5.66-.92-9.13,2.62,1.76,4.18,2,4.42-.74,4.48,2.35-1.81,5.07,0,7.26,4-.18,3.5-6.72,8.45-5.6.07,0,.61-.92.48-1.25-.77-2-.86-5.25-3.7-4.84C614.12,513.75,609,512.41,611.12,518Z" transform="translate(-15.75 -2.5)"/><path d="M327.7,355.6c3.81,5,3.92,11.16,4.66,16.85.68,5.14-.78,10.55-.35,15.74-1.78,1.16-2-2.31-3.36-.86-.93,1-.59,2.44,0,3.76,1.26,2.92,1.19,2.87-1.71,3.7-1.54.44-.9,1.61-.31,2.34,1.63,2,.57,3.23-.57,5.17-7.24,12.23-18.58,19.47-30.53,26.13-5.63,3.13-10.13,7.4-12.57,13.65-2.32,5.92-2.2,11.38,2.07,16.34,4,4.61,10.33,6.13,16.44,4.14,1.46-.48,2.75-2.08,4.59-.89-8,5.54-15.44,5.94-21.78,1.19s-8.68-14.45-5.89-22.74c2.92-8.66,8.9-14.65,16.33-19.5,5-3.27,10.06-6.52,14.43-10.64,14.19-13.35,17.53-29.17,10.75-47.36-2.56-6.84-5.05-13.75-6.06-21.05-2.18-15.77,2.88-29.24,13.24-40.91,5.64-6.34,11.6-12.39,17.34-18.65,9.26-10.11,16.51-21.5,19.14-35.06,3-15.23.44-29.19-13.66-36.15-4.8-2.38-9.24-1.44-12.95,1.91-4.41,4-6.77,9.14-5.61,15.19a12.83,12.83,0,0,0,9.52,10.52c3.25.89,5.71-1.39,8-3.33a31.06,31.06,0,0,0,3.63-4.37,3.46,3.46,0,0,1,1.43,3.5c.12,4.31,2.12,9.4-3.43,11.79s-11.47,3-17.16-.3c-9.57-5.52-13.59-13.84-12.31-24.68,1.16-9.68,7.06-15.79,15.66-19.57a22.2,22.2,0,0,1,26.83,7.1c10.34,13.92,12.38,29.27,6.47,45.66-5.05,14-11.1,27.45-21.89,38-6.41,6.27-12.87,12.48-19,19a41.88,41.88,0,0,0-10.37,18.39,6.91,6.91,0,0,0,1.41,6.87c1.3-10.57,6.29-18.43,13.73-24.83-1.46,4.4-4.66,7.81-6.53,12-3.53,7.93-2.89,15.86-.57,23.74a22.89,22.89,0,0,1,1.11,8.29c-3.83,2.24-2.76,4.82-1.11,8.95C328.63,360.76,327.88,358.16,327.7,355.6Zm-7.52-13.14c.14,1.45-.3,3.41,1.46,3.78s1.36-1.48,1.3-2.46c-.1-1.5.74-3.81-1.24-4.22C320,339.19,320.5,341.36,320.18,342.46Z" transform="translate(-15.75 -2.5)"/><path d="M536.44,293.74c4-2.53,6.43-6.95,7.64-10.7,1.58-4.86,5.65-4.46,8.28-6.87-4.77,7.42-10.83,13.94-13.53,22.54,5.73-7,10.72-14.65,18.31-20-3.69,5.17-7.64,10.19-10.64,15.76-10,18.56-13.16,38.12-8.14,58.8,1.26,5.18,1.35,10.91,3.74,15.46,3,5.68,5.29,12.08,12.61,15,4.14,1.66,8.52,3,12.64,4.92s8.4-.68,12.18-2.58c5.64-2.84,11-6.18,16.58-9.23,1.38-.76,2.84-1.65,5.14-1.22-1.9,3.22-4.58,4.73-7.34,6.17-4.27,2.24-8.75,4.11-12.51,7.26-1.07.9-2.91,1.22-1.63,3.35.8,1.33.64,3.3,3.16,3,5.25-.61,10.77,2.78,15.86-1.41,1.45-1.2,3.13.51,4.23,1.75s.05,2.24-.83,2.92c-5.54,4.27-7.85,11-12.28,16.08-.54.62-1,1.35-1.46,2-1.62,2.1-5.79,3.81-1,6.89a1,1,0,0,1,.1,1c-3.22,5.22-.89,11.21-2.31,16.63-.94,3.56-.26,4.4,3.13,5.33s2.38,3.9,2.18,7.63c-3.46-4.73-7.82-4.49-11.66-5.4-2-.47-2.83-.75-2.4-3.14,1.25-6.91-1.76-13.36-2.69-20-.29-2.14-2.43-2.54-4.34-2.6-2.14-.07-4.29,0-7.19,0,3.4-6,6-11.65,10.4-16.26.85-.9,2.67-1.53,1.05-3.06a2.5,2.5,0,0,0-4,.27,46.47,46.47,0,0,0-4.5,5.95c-2.21,3.87-3.62,8.19-7.21,11.21a3.71,3.71,0,0,0-1.06,5c1.19,1.88,2.53.4,3.83-.24,2.33-1.15,3.5.92,4.43,2.2,1.68,2.31-1.3,1.83-2,2.76-3.63,4.64-6.42,2.5-8.78-1.15s-5.55-3.84-9.19-3.64c-1.31.08-2.8.22-3.62-1.13-1-1.7.39-2.76,1.32-3.88,5.19-6.29,8.3-14.08,14.22-19.85,1.16-1.14.87-2.83,1.45-4.18,1.36-3.15-.12-3.79-2.94-3.64-10.17.56-18.48-3.27-25.07-10.95-2.18-2.55-4-2.49-5.88.44-2.05,3.22-4.16,6.44-7.37,8.71-1,.67-1.86,1.65-3.12,1-1.1-.56-.61-1.74-.63-2.69a67.31,67.31,0,0,0-3.31-20.13c-2.56-7.62-.6-14.7,2.26-23.08,1.15,6-1.5,10.77-.1,15.34,1.5,4.87.21,10.59,4.42,14.63,2.72,2.61,5,3,6.91-.95,4.09-8.43,5-17.57,5.88-26.64,1-10.16,1.07-20.28-2.72-30.08-1.44-3.71.06-8-2.07-12.32,5.65,1.37,8.32-1,9-6,.36-2.49,2.62-4.27,2.57-6.91Zm24,110.42c-5.31.78-2.76,3.79-2.45,6.2.2,1.52,1,2.06,2.33,1.73s2-1.42,1.1-2.62C560.24,407.86,561.15,406,560.46,404.16Z" transform="translate(-15.75 -2.5)"/><path d="M130.51,376.5c1.28-5.63,1.68-10.66,3.34-15.48a103.34,103.34,0,0,0,4-13.14c1.22-6.09,3.87-12.06,2.49-18.47s-4.87-11.59-9-16.39a141,141,0,0,0-14.2-14.72C103.93,286.85,96.13,272.07,90,256,84.37,241,85.64,227,93.16,213.28c4.57-8.35,17.65-16.43,29.31-11.64,7.22,3,15.63,13,15.89,20.71.39,11.89-5.13,20.53-14,24.73-7.62,3.6-13.41.27-19.44-3.06-2.76-1.53-2.24-9.49.46-11.15,1.66-1,2.37.41,3.27,1.31,5,4.92,9.08,6.3,12.53,4.22A15,15,0,0,0,128,223c-1.42-6.56-6.36-12-11.77-12.93s-14.07,4.1-17.55,10.5c-4.87,8.91-5.35,18.23-3,28.08,4.59,19.27,17.52,32.87,30.58,46.49,7.07,7.36,13.6,15.18,17.11,24.93,4.27,11.86,2.47,23.58-1.38,35.19a188.31,188.31,0,0,0-5.52,18.14c-3.06,13.79,2.13,25.11,11.4,35,5.75,6.14,13,10.3,19.72,15.18,9.09,6.59,15,15.07,14.32,26.91a16.78,16.78,0,0,1-9.82,14.66c-5.27,2.57-10.81,2.27-16.54-1.25,2.55-1.16,4.41,0,6.24.11,11.83.61,19.37-10.41,14.7-21.35-3.68-8.62-11.13-13-18.67-17.25-8.48-4.77-16.17-10.36-21.7-18.54-.65-1-2.06-2.05-1.31-3,2.24-2.78-1.41-3.27-1.55-4.81-.17-2,1.65-4.57-2.68-3.13-.8.27,0-1.86.08-2.9.14-1.92,2.61-4.9-2-5-.69,0-.68-.6-.68-1.09,0-5.77,0-11.55,0-17.49C129.84,371.21,128,374,130.51,376.5Z" transform="translate(-15.75 -2.5)"/><path d="M357.14,128.37c1.79,4.69,3.79,9.31,5.34,14.08,2.77,8.52,5.54,17,6.91,26,1.46,9.64,1.59,19.19,1.7,28.82,0,1.27.65,2.83-.9,3.57s-2.23-.89-3.29-1.58c-3.13-2.05-4-4.89-4-8.52.05-25-8.3-47.59-20.18-69.11-5.27-9.53-14.08-14.7-23.85-18.62-15.92-6.39-21.85-18-21-34.24.72-13.14,6.44-24.3,16.14-33.29a8.29,8.29,0,0,0,2.59-4.68,15.34,15.34,0,0,1,15.42-11.9c2.43.13,3.54,1.34,4,3.63s-.89,4.2-1.1,6.32c-.42,4.42-3.11,1-4.66,1.39A3.9,3.9,0,0,0,328.44,37c1.76,1.74,1.2,2.8-.46,3.23C313.14,44.07,311,56.72,309.17,68.7,308,76.54,310.69,84,319.08,87.54c2.44,1,4.87,2.12,7.38,2.95,16.54,5.52,26.23,18,33.64,32.86C372.41,148,380,173.75,378,201.66c-.17,2.46.67,6.63-2.36,6.56-2.34-.05-1.3-4.31-1.15-6.61.83-12.73-.72-25.38-3-37.71a114.58,114.58,0,0,0-13.21-36Z" transform="translate(-15.75 -2.5)"/><path d="M116.67,107c-3.77,1.43-5.55,4.82-7.59,7.77-7.15,10.36-12.36,21.67-16.64,33.53-6.49,18-8,36.49-7.48,55.34,0,1.16,0,2.33,0,3.5,0,.85-.17,1.79-1.18,1.9s-1.49-.67-1.63-1.55a63.32,63.32,0,0,1-.83-6.42c-1.51-33.13,8.54-63,26.11-90.56,7-11.07,17.91-17.13,30-21.08,10.73-3.52,14-13.55,12.73-23s-7.23-16.26-11.4-24.1c-1-1.82-3.37-.84-5.13-1-1.46-.15-3.19.14-3.83-1.64-.56-1.56,1-1.82,1.88-2.47,1.36-1,1.12-2.23.49-3.55-.85-1.79-2-3.21-4.19-2.79-6,1.16-4-4-4.64-6.43-.82-3.15,1.41-4.72,4.77-4.64,7.73.17,13.76,5.16,14.95,12.88.41,2.66,2.16,4,3.9,5.51,12.82,11.32,18,33.23,11.82,48.61-3.06,7.59-8.5,13.37-15.82,15.71-20.3,6.49-29.56,22.13-36.44,40.46-4.65,12.36-8.5,24.87-9.87,38-.39,3.8-.39,7.64-.55,11.46-.08,1.82.18,3.82-1.22,5.21-1.6,1.59-3.12,4.45-5.44,3.7-2-.66-.74-3.57-.88-5.49a127.87,127.87,0,0,1,2.29-32.3,132.3,132.3,0,0,1,10.45-31.26A119.4,119.4,0,0,1,116.67,107Z" transform="translate(-15.75 -2.5)"/><path d="M221.11,349.45c0,5.15-.11,10.31.06,15.46a5,5,0,0,1-1.89,4.31c-4.23,3.75-8.44,7.53-12.55,11.4-2.18,2.06-4.49,2-6.87.77a24.19,24.19,0,0,1-4.54-3.08c-3-2.57-5.47-2.31-8.17.6-4.18,4.5-5.57,4-11.12,1.09-7.93-4.2-11.42-9.73-10-19,1-6.51.17-13.29.24-19.95,0-3.76-.14-7.35-3.47-9.93-1.78-1.38-1.19-2.94,0-4.31s2.57-2.61,3.82-3.95c2.44-2.6,4.57-1.92,6.77.41a18.75,18.75,0,0,1,5.2,13.6c-.08,8.33,0,16.65,0,25,0,3.8,1.17,6.84,4.44,8.91,2.59,1.64,4.75,1.34,4.8-2.09.14-10.16.06-20.31-.08-30.46a10,10,0,0,0-3.07-6.7c-4.51-4.61,1.18-5.8,2.78-8.15,1.75-2.56,4.28-3.14,6.72-.55,3.26,3.48,5.6,7.29,5.5,12.4-.17,8.82.1,17.65,0,26.47a10.32,10.32,0,0,0,4.46,9c2.69,2,5.1,1.61,5.19-2,.25-10.15.26-20.32-.11-30.46-.08-2.24-1.82-4.64-3.31-6.56-4-5.16,1.64-6.42,3.57-9,2.18-2.87,4.68-1.81,6.59.66,2.76,3.57,5.16,7.23,4.89,12.15-.26,4.64-.06,9.32-.06,14Z" transform="translate(-15.75 -2.5)"/><path d="M423,375.52c2.46-.52,4,.51,5.64,1.25,2.7,1.2,5.36,2.69,8.48.87.73-.43,2-.18,2.91,0,7.16,1.47,12.43,6.15,17.74,10.78l-10.63-4.73c-1,2.43.83,3.05,1.71,4,4,4.4,9,7.93,12.12,13.19.46.76,1.05,1.7,2.36.83,5.06-3.39,12.3-1.8,13.82,3.68,1.38,5,3.75,9.36,6,13.88.57,1.14,1.07,2.84-.2,3.68-1.67,1.12-1.48-1.73-3.46-2,1.18,4.27-3.94,9.29,2.19,12.22,4.33,2.06,4.21-4.11,7.57-5,2.46,4.74,5,9.52,7.42,14.34,1,2,.21,3.24-2,3.33C490,446,486.47,448.36,483,451c-2.53,1.88-8.13.82-9.39-1.86-1.1-2.34,1.38-2.08,2.48-2.72s2.61-.62,2.43-2.05-1.71-1.29-2.85-1.5a22,22,0,0,1-2.42-.61c-6.73-2.17-7.22-2.21-9.72,4.18-1.77,4.53-5.88,8.26-4.9,13.85.22,1.27-1.24,1.18-2.27,1-2.3-.33-4.62-.54-6.89-1-1.66-.32-3.24-.65-4.88.12s-3.09,3.21-4.64,1.06c-1.42-2-.24-4.38,1-6.49,2.14.87-.11,4.2,2.16,3.85a13.5,13.5,0,0,0,6.17-3.21c1.53-1.3-.32-2.7-1-3.92-1.74-3.28-1.77-3.24.87-5.18a1.77,1.77,0,0,0,.1-2.59c-3.89-3.6-1.33-8.11-1.66-12.12-.37-4.51-1.15-7.4-5.84-10-5.2-2.91-7.93-9.15-11-14.5a1.63,1.63,0,0,1,.58-2.22,4.57,4.57,0,0,1,4.34.08c5.78,3.27,12.15,4.2,18.56,5a15.2,15.2,0,0,1,3,.31c1.54.51,2.7,2.92,4.38-.41,1.42-2.82.82-4.43-1.39-5.79-10.89-6.69-19.27-16.7-30.46-23A17.54,17.54,0,0,1,423,375.52Zm51.66,51.6c-1.36-2.09-.34-6.26-4.19-7.11-1.52-.34-4.67.77-4,3.27.88,3.23,3.63,5.6,6.75,6.83C474.7,430.71,474.61,428.8,474.63,427.12Zm15.43,16.28a69.17,69.17,0,0,0-3.36-6.73c-.58-.92-1.79-.65-2.37.47-.48.92,3.34,7.66,4.3,7.58S490.09,444.06,490.06,443.4Z" transform="translate(-15.75 -2.5)"/><path d="M201.28,159.85c0,5.15-.1,10.3.05,15.45a4.46,4.46,0,0,1-2.13,4.2c-4.39,2.86-7.74,6.83-11.29,10.55-2.89,3-5.68,2.94-8.9,1a14.63,14.63,0,0,1-3.33-2.15c-3.7-4-6.63-2.47-9.38,1.08-2.59,3.35-5.42,2.85-8.78,1-8-4.31-13.28-9.44-11-19.84,1.26-5.72.1-11.95.3-17.94.15-4.65-.3-9-3.89-12.4-1.44-1.36-1.35-2.73.06-3.79,2.52-1.9,3.73-6,7.86-5.24,3.06.54,7.39,7.1,7.48,11.63.18,9.49.14,19,.06,28.48a10,10,0,0,0,3.24,8c1.46,1.33,3.08,2.23,4.94,1.55,1.68-.6,1.62-2.44,1.63-3.89.06-9.33.13-18.65,0-28a12.58,12.58,0,0,0-3.5-8.12c-4-4.45,1.24-5.59,2.84-7.79,1.75-2.4,4.49-3.23,6.79-.54,3.15,3.67,5.85,7.51,5.67,12.87-.28,8.49-.06,17,0,25.49a18.15,18.15,0,0,0,.16,4c.86,3.58,3.25,6.16,6.91,5.93s2.57-3.73,2.61-6c.13-7.49-.07-15,.07-22.48.08-4.37-.91-8.31-3.85-11.54-3.53-3.88.78-5.09,2.37-7.08,1.88-2.34,4.28-4.16,7.14-1.34,3.29,3.24,5.54,7.06,5.52,11.89,0,5,0,10,0,15Z" transform="translate(-15.75 -2.5)"/><path d="M217.73,119.76c0,5.17,0,10.33,0,15.49,0,1.46-.41,3.28,1.33,3.95s2.68-1.06,3.66-2c2.49-2.51,4-5.94,8.84-5.12,5.69,1,8.19,3.76,8.17,10.81,0,8.82,0,17.65-.13,26.47-.05,3.94,1.13,7.25,4.44,9.49,2.35,1.59,2.28,3.25,1,5.5-5.07,8.73-7.41,9-14.09,1.31a13,13,0,0,1-3.26-9.15c.1-8.66.17-17.32,0-26-.07-3.23-.09-6.71-4.39-8-3.42-1-5.42-.09-5.47,3.37q-.21,13.49.11,27c.07,2.94,2.13,4.88,4.83,5.77s2.57,2.19,1.24,4c-1.84,2.57-3.67,5.15-5.6,7.65-1.21,1.55-2.71,1.65-4.4.57-2.38-1.52-4.76-3-7.26-4.34s-3.34-3-2.16-5.68C206,177.71,206,174.4,206,171c0-17.15,0-34.3,0-51.45a4.35,4.35,0,0,0,0-1.49c-3.57-9.24,3.09-12.16,9.37-15.53,2.53-1.37,2.79-.52,2.77,1.73-.06,5.16,0,10.31,0,15.46Z" transform="translate(-15.75 -2.5)"/><path d="M271.84,261.23c0-5.29-.08-9.78,0-14.27a17.22,17.22,0,0,0-3-9.88c-2.36-3.66-1.58-6.12,3.22-9.6,3.2-2.31,5.13-.52,7.08,1.88a17.78,17.78,0,0,1,4.2,11.93c-.11,7.16,0,14.32.06,21.47a21.88,21.88,0,0,0,.5,5.44c.89,3.21,3.35,5.24,6.54,5.07,3.57-.19,2.9-3.45,2.93-5.85.07-6.16-.08-12.32.09-18.48.14-5-.5-9.65-4.42-13.23-1.52-1.4-1-2.67.18-3.82,2.38-2.23,4.27-6.39,7.48-5.92,3.57.53,5.45,4.55,6.92,8a18.82,18.82,0,0,1,1.49,7.77c-.09,7.32.07,14.65,0,22-.06,4.3,1,7.95,4.91,10.2,2.33,1.34,2.21,2.89,1.13,5-4.94,9.57-7.6,9.88-14.55,1.56-.74-.89-1.33-1.9-2-2.84-1.36-1.85-2.58-1.89-3.7.26-.77,1.47-1.69,2.86-2.44,4.35-1.73,3.44-4.06,5.62-8.3,4.44-4.07-1.13-7.22-2.72-7.76-7.75C271.69,272.72,272.08,266.58,271.84,261.23Z" transform="translate(-15.75 -2.5)"/><path d="M191.19,66c.32-10.77,3.5-18.45,11.79-23.33,3.31-1.94,4.46-4,2.89-8.14-2.88-7.63-5.75-15.68,1.83-22.65,1.2-1.1,2.25-3,4.07-2.36s.63,2.59.78,3.95c.84,7.78,4.79,14.48,7.56,21.58,3.32,8.52,6.82,16.92,8.45,26,1.16,6.45.27,12.39-3.15,17.71a86.37,86.37,0,0,1-16.87,19.52c-1.28,1.09-2.58,2-3.7.12C198.54,87.86,192.77,77,191.19,66Zm28.44,11.84c0-6.58-5.76-27-9.25-32.83-.77-1.28-1.42-2.72-3.28-2.6s-2.26,1.72-3,3A20.89,20.89,0,0,0,202,58.94c1.27,7.92,3.4,15.59,7.36,22.57,1.39,2.44,1.8,6.8,6.16,6s3.47-5,4.09-8.11A8.23,8.23,0,0,0,219.63,77.87Z" transform="translate(-15.75 -2.5)"/><path d="M269.16,130a5.53,5.53,0,0,1,1.41.8,56.08,56.08,0,0,0,11.06,8.45c1.35.75,1.34,2.11,1.05,3.53-2.14,10.55-.55,21.21-.94,31.81-.11,3.06,2.27,4.32,4.42,5.51,2.66,1.46,2.75,3,.82,5.09-.34.37-.66.75-1,1.13-5.4,6.47-5.48,6.58-12.26,1.48-3.32-2.5-5.79-3.61-9.19.28-4.3,4.9-10.77,3.36-13.42-3a22.77,22.77,0,0,1-2-8.7q0-15.72-.27-31.46c0-1.84.09-3.4,2.27-3.74,6.09-.95,10.53-4.52,14.56-8.88C266.53,131.38,267.31,130.15,269.16,130Zm-9,28.41h0c0,4.48,0,9,0,13.43a10.82,10.82,0,0,0,2.6,7.32c1.35,1.63,2.87,2.87,5.09,2.39,2.78-.6,2.21-3,2.23-4.87.1-8.45-.18-16.91.14-25.36.16-4.19-1.55-6.87-4.66-9.2-1.27-1-2.43-1.86-4-1.09-1.41.69-1.39,2.11-1.39,3.46Z" transform="translate(-15.75 -2.5)"/><path d="M564.4,179c3.16,8.51,4.67,16.35,8.13,23.48a59.88,59.88,0,0,1,5.65,21.56c.55,6.85,4.68,12.42,7.31,18.45,6.11,14.06,10.16,28.86,16.19,42.93,2,4.66,3.87,9.36,8.78,13-3.94,1-7.13,1.79-10.32,2.56-2.07.5-3.33-.35-4.48-2.17-7-11.1-12.15-22.92-14.54-35.86-.24-1.33-1.64-2.67,1-4,1.93-1,.13-3.61-.5-5.41-3.14-8.91-9.06-16.27-13.91-24.18-5.15-8.39-7.72-16.68-6.54-26.8C562,195.15,563.28,187.75,564.4,179Z" transform="translate(-15.75 -2.5)"/><path d="M262,237.91a209.2,209.2,0,0,0-.05,32.83c.17,1.86-1,3.12-2.41,4.09a58,58,0,0,0-11.87,10.56c-2.4,2.8-4.79,2.73-7.9,1-7.66-4.35-13.8-8.27-11.52-19.59a71.08,71.08,0,0,0-.49-27.77c-.32-1.59.17-2.6,1.74-3,6.28-1.69,11.34-5.33,15.78-9.92,1.27-1.31,2.28-1.44,3.81-.24,3.52,2.75,7.2,5.3,10.85,7.87A4.43,4.43,0,0,1,262,237.91Zm-21.65,15.86h0c0,5.16-.12,10.33,0,15.49.13,4.09,2.92,6.95,6.48,7,4,.06,2.94-4.07,3-6.67.14-7.5-.2-15,.16-22.49.24-4.91-1.53-8.18-5.56-10.77-2.84-1.84-4-1.1-4.09,1.95C240.25,243.44,240.34,248.61,240.34,253.77Z" transform="translate(-15.75 -2.5)"/><path d="M247.67,100.05a74,74,0,0,1-14.29-9.47c-.35-.3-.24-1.26-.17-1.9a207.71,207.71,0,0,0,.18-36.82c-.14-2,.39-2.7,2.13-3.15a29.91,29.91,0,0,0,14.6-9.09c2-2.19,3.26-1.28,5.45-.13C264.86,44.33,269,51.07,267.18,62c-1.15,6.77-.07,13.92.13,20.9a4.38,4.38,0,0,1-2,4.26c-4.7,3-8.38,7.06-12.13,11.06C252,99.54,250.67,100.33,247.67,100.05Zm8.21-28.69c0-3.66-.32-7.35.08-11,.57-5.16-1.58-8.57-5.77-11.14-1.15-.7-2.19-1.81-3.58-1.16s-1.37,2.15-1.37,3.49c0,9.65.09,19.3.06,28.94,0,3.13,1.54,5.36,3.66,7.35,1.39,1.31,3.12,2.19,5,1.62,2.27-.7,1.88-2.87,1.9-4.65C255.9,80.35,255.87,75.86,255.88,71.36Z" transform="translate(-15.75 -2.5)"/><path d="M263,326c0,11.16.1,22.33-.05,33.49-.06,4.12,1.43,7.05,5,9,.58.31,1.6.53,1.68.93.85,4.68-3.36,6.8-5.33,10.05-1,1.71-2.47,3.41-4.84,1.54a3.68,3.68,0,0,0-.39-.3c-5.85-3.47-12.82-6.34-8.12-15.38-.05-21.33.2-42.66-.35-64-.14-5.42,1.23-8.85,5.61-11.45,2.2-1.31,3.93-4.95,6.44-3.74s.22,4.51.25,6.88C263.08,304,263,315,263,326Z" transform="translate(-15.75 -2.5)"/><path d="M194.36,192.87v34.75c0,11.9.19,23.81-.06,35.71-.1,4.48,1.09,7.83,5.15,9.79,2.53,1.22,2.52,2.75,1.12,4.75a2.92,2.92,0,0,1-.29.4c-2.43,2.67-3.88,8-7.05,7.76-3.87-.28-7.56-3.68-11.21-5.94a2.71,2.71,0,0,1-.8-4c2.11-3,1.64-6.37,1.59-9.65-.3-20.44.77-40.89-.59-61.32-.07-1-.16-2.21.82-2.68C187.43,200.33,190.12,196.15,194.36,192.87Z" transform="translate(-15.75 -2.5)"/><path d="M287.8,313.09a27.05,27.05,0,0,1,0,3.49c-.59,4.5,1.49,6.1,5.75,5.56a13,13,0,0,1,3,0c1,.11,2,.46,1.9,1.78-.09,1-.89,1.32-1.73,1.52-.16,0-.33,0-.49.07-2.58.6-6-1.32-7.62,2.06-1.21,2.6-.52,5.59-.54,8.4-.07,7.82.26,15.66-.16,23.46-.28,5.24,1.28,8.91,6.34,10.39,4.72,1.38,4,3.39,1.18,6a13.28,13.28,0,0,0-1,1.1c-5.44,6.18-5.44,6.19-12.63,2.37a34.34,34.34,0,0,0-3.95-2.13c-3.65-1.33-6-2.85-3.06-7.19.91-1.33.73-3.54.75-5.35q.16-17,.16-33.94c0-3.07-.53-5.83-4.72-5.23-1,.15-2.14,0-2.41-1.19s.72-1.74,1.43-2.44a175.74,175.74,0,0,0,13.71-15.16c.8-1,1.6-2.41,3.2-1.71,1.31.57.95,2,1,3.11,0,1.66,0,3.33,0,5Z" transform="translate(-15.75 -2.5)"/><path d="M307.66,123.41c0,1.5.08,3,0,4.49-.2,3.2,1.22,4.66,4.42,4.46a14.78,14.78,0,0,1,2.49,0c1.33.16,3.52-.61,3.47,1.54,0,1.89-2.12,1.66-3.59,1.76-6.68.46-6.73.46-6.76,7.36,0,8.5.33,17-.1,25.48-.32,6.16,1.55,10.39,7.57,12.25,3,.92,2.66,2.07,1,4.18-7.07,8.91-6.85,8.64-17,3.4-5-2.56-6.74-5.11-3.95-10.29.81-1.49.77-3.56.79-5.36.08-10.5,0-21,.1-31.49,0-3.36-.5-6.1-4.85-5.75-1,.07-2.17,0-2.34-1.26-.14-1.09.88-1.68,1.55-2.42q6.4-7,12.74-14.05c1-1.09,1.74-2.94,3.45-2.3s1,2.56,1.07,4S307.65,122.08,307.66,123.41Z" transform="translate(-15.75 -2.5)"/><path d="M165.59,219c-.08,7.93-.08,7.92,7.95,8.39,1.22.07,3.07-.45,3,1.56-.07,1.54-1.71,1.19-2.82,1.28-7.92.66-7.95.66-8,8.53,0,8.48.32,17-.14,25.43-.3,5.63,1.93,8.92,7,10.5,3.73,1.18,4.11,2.87,1.42,5.56a13.88,13.88,0,0,0-1.94,2.26c-2.86,4.46-6.34,5.58-10.77,2.19a6.73,6.73,0,0,0-.9-.42c-2.61-1.42-5.69-2.38-7.71-4.4-2.66-2.65.83-5.47,1-8.37.66-12.63.12-25.26.29-37.89,0-.65,0-1.65-.42-1.89-5.08-3.19-.81-5.12,1-7.14a62.7,62.7,0,0,0,7.55-10.49c.6-1,1-2.89,2.73-2.25,1.25.47.72,2,.75,3.16C165.62,216.37,165.59,217.7,165.59,219Z" transform="translate(-15.75 -2.5)"/><path d="M655.88,462.26c-1.49.75-1.29,2.84-2.85,2.29s-1-2.12-.79-3.07c1.61-6-.53-7.38-6-5.18a18.66,18.66,0,0,1-3.84.76,1.21,1.21,0,0,1-1.46-1,2,2,0,0,1,.39-1.29c2.21.11,2.61-2.21,3.91-2.94,5.92-3.31,6.35-6.16,3.53-12.44-2.08-4.65-4.33-9.2-6.65-13.72-1.88-3.66,2-4.71,3.2-6.8.48-.81,2.43,1,3.07,2.43.42,1,1,2-.85,1.89-.83-.05-1.83-.35-2.06.71-.33,1.48,1.06,1.15,1.85,1.6,4.86,2.78,7.28,7.52,8.58,12.58,1.51,5.92,5,11.46,4.8,17.62-.21,7.73,3,14.77,3.44,22.32.16,2.65.72,5.21,0,7.9-.45,1.8-1,3.93,2.23,4.37,2.21.3.72,1.78.12,2.46a63.1,63.1,0,0,1-6.52,6.85c-3.89,3.28-6.61,7.36-9.29,11.59-1.55,2.45-3.88,5-5.87,0a2.61,2.61,0,0,0-2.86-1.6c-1.85.22-4.17.66-4.43-1.75a4.15,4.15,0,0,1,3.29-4.43c1.56.91,1.32,4.57,1.94,3.83,1.6-1.9,4.3-1.7,5.45-3.6.83-1.38,1.16-2.94,2.42-4.23,6.48-6.59,6.61-6.8,1.46-13.41-1.76-2.25-5.06-.85-7.64-.79-.87,0-1.83,1.14-2.31-.35-.39-1.17.64-1.71,1.49-2.27,1.7-1.1,3.71-.43,5.65-1.37,3.65-1.75,5.3-4.08,5.44-8C654.88,469.71,655.45,466.25,655.88,462.26Z" transform="translate(-15.75 -2.5)"/><path d="M204.59,258.5c0-3.65-.14-7.32,0-11,.24-5-.46-9.34-6-11.16-.91-.29-1.84-.85-1.48-2.17.54-2,8.35-7.94,10.17-7.77,6.77.65,8.91,2.71,9,9.36.12,9.14.13,18.28-.11,27.41-.11,4.2,1.1,7.61,4.54,9.89,2.84,1.9,2.53,3.74.92,6.24-5.56,8.61-6.85,8.75-13.81,1-2.4-2.67-3.84-5.49-3.31-9.43s.12-8.29.12-12.44Z" transform="translate(-15.75 -2.5)"/><path d="M239.21,322.39c-1.33,12.26-.53,24.57-.82,36.86-.11,4.25,1.49,7.38,5.29,9.36.58.3,1.61.59,1.65,1,.51,4.76-3.88,6.91-5.75,10.43-1,1.91-2.43,2.06-4.53.83-6-3.49-10.61-6-8.94-15.45,2.06-11.59.37-23.86.1-35.83-.05-2.06,0-3.41,2.09-4.44,2.65-1.34,5.09-3.1,7.64-4.63.82-.49,1.64-1.34,2.71-.76S239.49,321.4,239.21,322.39Z" transform="translate(-15.75 -2.5)"/><path d="M254.46,471.5c1.6,3.17,2.4,5.74-2.32,6.52-2.19.37-3.22,2.2-4.52,3.69-5.68,6.5-12.58,8.21-20.61,5.08-1.79-.69-3.6-.49-5.42-.62-5.11-.35-9-4.48-9.47-10.07.29-.1.63-.36.87-.29,1.7.52,2.95,4.17,4.76,1.82s-1.73-3.12-3.07-4c-4.73-3-9.34-6.18-13-10.5-.85-1-2.23-2.08-1-3.39s2,.45,2.81,1c2.3,1.51,4,1.4,3.7-1.77-.24-2.75.55-5.29,1-7.87A13.14,13.14,0,0,0,207,442a12.17,12.17,0,0,1-.09-11.1c.74-1.66,2.12-2.82,4-2.25s.92,2.23.74,3.45a11.45,11.45,0,0,0,1.55,8.53c2.24,3.47,1.25,7.36-.36,10.95-1,2.12-2,4.18-3.09,6.25-1.21,2.39-.53,4.06,1.76,5.39,4,2.33,7.93,4.79,11.9,7.19,2.06,1.25,4.14,2.12,1.67,5.22-1.78,2.22.5,2.26,2.06,2.06,7.42-.92,14.64-3.41,22.23-3.06C251.7,474.72,252.35,472.26,254.46,471.5ZM226.7,483.78v.32c2.13-.14,4.27-.2,6.39-.45,1-.11,2-.56,2-1.78S234,480.3,233,480.31c-3.58,0-7.12.47-10.6-1.19a2.52,2.52,0,0,0-3.39,2c-.34,2,1.13,2.54,2.73,2.63S225.06,483.78,226.7,483.78Z" transform="translate(-15.75 -2.5)"/><path d="M235.39,467.9c8,4.82,10.48-4.61,16-5.72-.55,8.78-3.43,11.32-11.21,9.5-2.32-.55-4.24.46-6.34.43-2.53,0-5.34-.31-6.31-3.08s1.78-3.76,3.42-4.77A84.8,84.8,0,0,1,242.81,458a47.51,47.51,0,0,0,11.63-7.35c3.77-3,4.14-10.07,1.4-14.23a4.13,4.13,0,0,0-4.22-2c-1,.1-2,.48-2.24,1.64s.8,1.17,1.48,1.6a7.33,7.33,0,0,1-.13,12.43c-1.37.9-2.19.22-2.85-.87-3.21-5.27-6.14-10.68-4.93-17.19.47-2.53-.07-5,0-7.45,0-1.15.07-2.61,1.52-2.8,1.68-.22,1.7,1.29,1.7,2.42,0,4.3.86,6.77,6.39,6.86,6.15.1,9.26,8.29,6.83,16.08a10.18,10.18,0,0,1-2.27,4.39C250.52,457.67,245.2,465.43,235.39,467.9Z" transform="translate(-15.75 -2.5)"/><path d="M237.2,431.4a10.21,10.21,0,0,1-.11-2.22c.42-1.74,1.89-4.43.42-5-2-.84-5.31-.77-7,.41-2.69,1.86-5.66,2.64-8.56,3.45-2.34.66-3.51,1.76-3.81,3.89-.35,2.42,0,4.64,2.66,5.81,3.66,1.6,6.65,4.23,9.55,6.86,1.25,1.13,4.32,2.63.64,4.82-1.07.64-.38,1.83.35,2.56a5.16,5.16,0,0,1,1.61,3.54c.08,1.88-9.12,8.7-11.35,8.48-3.08-.3-5.45-4.72-4.84-8.79a28.55,28.55,0,0,0,.31-5.46c-.1-2.15.17-3.66,2.86-3.41,1,.08,2.19.06,2.28-1.28.07-1.17-1-1.66-1.94-2-2.4-.83-3.65-2.9-4.89-4.81-2.46-3.78-1.91-8.63,1.56-11,4.5-3,9-6.27,14.34-7.6,3.42-.86,7.32-.24,9.15,3.25C242.05,426,240.82,429,237.2,431.4Z" transform="translate(-15.75 -2.5)"/><path d="M569.45,502.77c.45-3.9,5.68-5.71,3.44-10C571,489.09,570,485,567,482c-1.88-1.88-3.2-4-.78-5.86s3.3,1.12,4.53,2.5c3.73,4.17,5,9.68,7.85,14.32,1.49,2.46-2.52,2.22-1,4.36,1.84-1,3.3-.85,4.58,1.59,3.28,6.25,9,11.07,10.67,18.31a2.1,2.1,0,0,0,.92,1.12c2,1.17,4.43,1.9,3.54,5.09s-2.25,6.57-5.56,7.67a14.58,14.58,0,0,0-7.21,4.76c-1.47-3.29-.19-5,2.25-6.49,4.18-2.55,4.38-7,.41-9.87-2-1.48-3.52-4.12-6.77-3.55a1.05,1.05,0,0,1-.88-1.75c3.78-3.82-.52-6.2-1.48-9.19C577,501.6,577.19,501.14,569.45,502.77Z" transform="translate(-15.75 -2.5)"/><path d="M268.1,479.61c-.38-2-2.66-1.44-2.78-3.1,6.25-2.08,12.84.12,15.76,5.27,3.41,6.05,8,10.16,16.82,8.67-4.27,6.1-9.72,8.42-15.16,10.07-6.87,2.1-12.11-.79-16.07-6.87-1.7-2.61-1.7-6.1-4.58-8.09-1.07-.73,0-1.65.65-2.44C264.16,481.4,266.28,480.79,268.1,479.61Zm2.57,1c-.76.14-1.28.5-1.08,1.62.62,3.61,9,10.11,12.79,9.87.85-.05,1.82-.14,1.83-1.19a1.92,1.92,0,0,0-1.15-1.33c-4-1.25-6.63-4.28-9.3-7.24A4.18,4.18,0,0,0,270.67,480.65Z" transform="translate(-15.75 -2.5)"/><path d="M203.66,480c-3.69,0-6.62-.13-9.52.05-1.76.1-4.36.24-4.29,2.45s2.66,1.3,4.09,1.34a19.2,19.2,0,0,1,10,2.75c.86.55,1.71,1.13,1.4,2.35-.24,1-1.14,1-1.89,1.38-5.85,2.6-11.47,5.65-18.35,4.7-2.89-.41-5.05,2.18-7.26,3.91-.8.63-1.67,1.4-2.65.72-.76-.52-.31-1.49-.2-2.31,1.44-10.59,5.35-19.24,16.64-22.8C196.18,473.08,198.86,473.79,203.66,480Z" transform="translate(-15.75 -2.5)"/><path d="M359.9,283.56c2.51-5,4.9-10,7.54-14.92,8.16-15.19,11.57-31.09,6.64-48-3.61-12.36-15.41-27.1-32.4-25.37-6.86.7-11.73,4.83-16.51,9.18-1.19,1.08-2.21,2.34-3.67,3.91,1.5-7.22,10.4-14.49,17.75-15.82,15.64-2.84,24.56,6.31,32,17.74,11.2,17.19,8.84,35.18,2.07,53.12C370.45,271,366.27,278,359.9,283.56Z" transform="translate(-15.75 -2.5)"/><path d="M549.25,440.2c2.09-.14,4.79.76,5.53-2.82.47-2.28,2-1.08,2.7.18,3.11,5.28,8.62,7.94,13,11.77,2.62,2.28,3.48,4.57,3,7.72-1.35.72-2.81-2.42-3.8-.19s1.26,2.78,2.73,3.38c2.86,1.16,5.8,2.14,9,3.31-6.32,2.55-19.9-.22-23.61-4.63a3,3,0,0,1-.83-2.22c2.39-7-2.43-10.37-6.76-14.05A2.36,2.36,0,0,1,549.25,440.2Z" transform="translate(-15.75 -2.5)"/><path d="M498.39,234.23c3.93,6.06,6.33,12.46,5,19.61-1.08,5.87-2.62,11.65-4.09,17.44-.89,3.54-2,7-2.35,10.67-.1,1.25.21,2.94-1.47,3.35-1.36.33-2.52-.66-3.57-1.46-1.43-1.09-1-2.34-.67-4,2.36-10.6,5.32-21.11,5.38-32.11A43.1,43.1,0,0,1,498.39,234.23Z" transform="translate(-15.75 -2.5)"/><path d="M532,259.93c-.4,4.9-.28,9.48,1.77,14.36,2.72,6.46.37,10.86-5.54,14a3.9,3.9,0,0,1-3.81.23c-1.56-.81-1.06-2.18-.81-3.5a177.25,177.25,0,0,0,2.48-27.21,8.17,8.17,0,0,1,0-1c.36-2.47.82-5.82,3.52-5.7s2.24,3.53,2.38,5.8C532.07,257.93,532,258.93,532,259.93Z" transform="translate(-15.75 -2.5)"/><path d="M462.34,390.89c1.65-.25,2.93-1.1,4.91.65,3.16,2.78,6.95.83,8.3-4.2,4-15.07,9.42-29.82,11.11-45.45.61-5.67,2.68-10.94,3.94-16.89.85,8.79-2.28,16.73-2.63,24.83-.53,12.15-5.26,22.84-9.08,33.94-1.05,3-.81,6.23-.34,9.4s-.66,4.33-3.94,3.32A48.76,48.76,0,0,1,462.34,390.89Z" transform="translate(-15.75 -2.5)"/><path d="M603.26,551.5c0,5.32,0,10,0,14.59,0,1.1.2,2.78-1.14,3-6.76,1.24-10.81,5.88-14.53,11-.22.3-.87.28-1.84.56,1.16-6.55,2.08-14,6.82-17.25,4.11-2.83,4.66-5.67,5.77-9.36C598.75,552.66,600.86,552.29,603.26,551.5Z" transform="translate(-15.75 -2.5)"/><path d="M709.93,859.13c3.18-2.44,2.31-6.31,3.29-9.51.85-2.78-.8-8.09,5.31-4,2.07,1.38,3.84-.29,4.09-2.14.62-4.58,3.43-3.32,7.27-2.92-3.82,3.7-4.5,7.93-5.82,12-1.93,6-7.9,7.31-13.56,8.18a15.12,15.12,0,0,1-.45-1.75Z" transform="translate(-15.75 -2.5)"/><path d="M540.47,183.51c.73,5.65-1,9.53-1.92,13.54s-.6,7.17,4.25,7.73c2.87.33,2.13,2.06,2.25,3.91.25,3.54-2,8.6,6.28,8.66-6.93,2.07-12.25,3.68-17.59,5.26-1.23.37-2.35.3-2.78-1.19s.37-2.26,1.64-2.58c1.61-.41,3.26-.71,4.9-1,5.49-.88,7.4-4.19,5.47-9.31-.62-1.64-2-1.48-3.2-1.83-9.41-2.59-10.78-6.94-4.15-13.84C537.92,190.5,538.42,187.36,540.47,183.51Z" transform="translate(-15.75 -2.5)"/><path d="M317.36,233.66c3.27,4.15,5.41,8.57,9.05,11.91,8.12,7.46,17.33,8.62,26.8,3.08,1.57-.92,3.1-1.92,4.61-2.93.86-.57,1.81-1.24,2.64-.32s-.32,1.78-.83,2.48c-7.82,10.69-24.84,11.17-34.58,1A29.11,29.11,0,0,1,317.36,233.66Z" transform="translate(-15.75 -2.5)"/><path d="M226.91,312c-1.3-7.3,3.22-11.2,8.39-14.63,1.54-1,3.46-1.83,4.15,1.14,1.37,5.93-1.38,13.44-6.33,16.65-1.61,1-3.32,3.09-5.25,2.22C225.58,316.32,227.57,313.68,226.91,312Z" transform="translate(-15.75 -2.5)"/><path d="M608.89,434.69c2.31,0,6.18,4.3,5.76,6.4-.08.41,0,1.21.08,1.23,8.21,1.66,6.31,9.54,8.78,14.6,2.27,4.69-1.11,9.78-6.32,10.79-.82.16-1.78.48-2.31-.32a1.89,1.89,0,0,1,.64-2.63c4.31-2.75,4-5.93,1.34-9.66a3,3,0,0,1,.65-4.41,2.74,2.74,0,0,0,.22-4.06c-2.13-1.9-1.46,1-2.18,1.57a1.24,1.24,0,0,1-2-.58c-1.17-2.73-3.62-4.89-3.73-8.05,0-1.24.16-2.37-1.55-2.49-.87-.05-1.78-.32-1.44-1.44C607.09,434.72,608,434.67,608.89,434.69Z" transform="translate(-15.75 -2.5)"/><path d="M476.19,284.37c7.31-.27,12.79,2.39,18.54,3.85,1.61.4,2,1.74,1.86,3.11-.63,7.27-1.32,14.54-3.31,21.6-.1.37-.64.63-1.74,1.64,0-7.63-2.64-14.2-2.83-21-.12-4.18-2.41-5.34-5-6.72C481.73,285.8,479.38,285.4,476.19,284.37Z" transform="translate(-15.75 -2.5)"/><path d="M477,57.54a12.34,12.34,0,0,0-2.45.23c-1.8.54-4.8.48-4.45,2.88.32,2.14,2.79.14,4.27.43a32.88,32.88,0,0,1,3.89.65c1.94.66,5,1.15,3.55,4.08-1.14,2.36-3.31,4.78-6.67,3.17-1.44-.69-3-1.66-3.94,0-2.22,3.88-3.62,1.49-4.75-.53-1.49-2.67-4-5.89-1.58-8.64C467.92,56.26,472.39,55.39,477,57.54Z" transform="translate(-15.75 -2.5)"/><path d="M87.54,214.05c-11.8,24.39-1.46,45.5,10.24,67.48C83.23,269,74,231.19,87.54,214.05Z" transform="translate(-15.75 -2.5)"/><path d="M140.85,237.08c-.55,5.75-4,9.77-7.78,13.24-6.52,6-14.16,8.53-22.94,5.34a12.72,12.72,0,0,1-3.08-1.55c-.93-.68-1.9-1.66-1.19-2.93.6-1.08,1.75-.56,2.7-.38.33.06.66.13,1,.22,13.19,3.77,23.44-.76,29.72-13.12a2.34,2.34,0,0,1,.61-.72C140,237.09,140.19,237.14,140.85,237.08Z" transform="translate(-15.75 -2.5)"/><path d="M402.36,360.93c-6.59-4.44-12.84-8.68-19.13-12.88-1.93-1.29-4.07-2.29-5.87-3.73-5.23-4.21-11-5.06-17.37-3.38a6.47,6.47,0,0,1-2,.06,7.93,7.93,0,0,1-1.64-.78c4.48-2.29,8.68-5.29,13.07-2.93,11.63,6.26,23.94,11.69,32.67,22.24C402.28,359.72,402.23,360.08,402.36,360.93Z" transform="translate(-15.75 -2.5)"/><path d="M481.3,455.13c-7,6.22-11.61,15.58-22.07,17.12-3.14.46-6.15,1.13-9.4.41,2.48-.93,4.88-1.81,7.27-2.74.61-.24,1.64-.55,1.69-.93.86-6.56,7.08-4.31,10.56-6.5C473.31,460,477.31,457.58,481.3,455.13Z" transform="translate(-15.75 -2.5)"/><path d="M436.41,332.47c-1.4-10.25-2-20.31,8.14-27.82q-3.35,14-6.71,28.06Z" transform="translate(-15.75 -2.5)"/><path d="M527.6,175c-2.63-3.83-2.34-7.87-3-11.75-.56-3.56.09-7.27-1.84-10.68-1.11-2,.27-3.57,2.25-4.16a2.78,2.78,0,0,1,3.78,2.23C530.91,159,526.45,166.79,527.6,175Z" transform="translate(-15.75 -2.5)"/><path d="M137.63,208.05a44.24,44.24,0,0,0-16.38-11.39c-4.42-1.72-8.66-2.33-12.85.1-2.56,1.48-5.94,1-8,3.55a1.19,1.19,0,0,1-1.79-.08c-.72-.93.08-1.42.71-2,6.39-5.57,14-6.88,21.78-4.78A23.85,23.85,0,0,1,137.63,208.05Z" transform="translate(-15.75 -2.5)"/><path d="M629.47,350.83c3.5-6.69,9.19-10.68,16.17-12.82,4.54-1.4,6.83,2.22,9.62,5.29C644.3,338.27,637.51,346.17,629.47,350.83Z" transform="translate(-15.75 -2.5)"/><path d="M237.38,433.18c.49,7.37,2.49,13.52,6.4,18.95a1.34,1.34,0,0,1-.39,2.12,1.71,1.71,0,0,1-2.22-.53c-2.94-3.76-5.91-7.5-8.74-11.34a2.31,2.31,0,0,1,.75-3.48C235,437.74,234.63,435.23,237.38,433.18Z" transform="translate(-15.75 -2.5)"/><path d="M539.05,862.19c.17,1.89-.45,4,1.85,5.25a2.56,2.56,0,0,1,.87,3.88c-1.58,1.69-1.46-.71-2.12-1.31a1,1,0,0,0-.8,0c-2.84,7.06-6.06-2.38-9,.22-1.25-2-1.86-4.37.77-5.36,2.44-.91,5.22-.87,6.87-3.38a16.64,16.64,0,0,1,1.67.88Z" transform="translate(-15.75 -2.5)"/><path d="M553.66,200.91c3.56-10.42.31-20.74-.52-31.53C559.44,177.34,559.71,192.39,553.66,200.91Z" transform="translate(-15.75 -2.5)"/><path d="M129.34,317.92c9.88,8.14,9.77,18.1,5.13,28.85C134.51,336.86,136.14,326.65,129.34,317.92Z" transform="translate(-15.75 -2.5)"/><path d="M597.81,736.7a38.24,38.24,0,0,0-10.31,14.06c-1.47-6.32.59-11.9,2.29-18.16,1.81,2.8-2.11,5.83.9,7.11C593.37,740.86,595.05,737.26,597.81,736.7Z" transform="translate(-15.75 -2.5)"/><path d="M505,189.06c3.71.79,3.22,4.35,3.28,6.24.13,3.9-4,1.61-5.87,2.25-3,1-2.15-2.81-2.43-4.64C499.39,188.69,503.41,190.48,505,189.06Z" transform="translate(-15.75 -2.5)"/><path d="M710.06,859c-2,.12-2.94,2-4.56,2.88-1.55-1.93.29-3.05.91-4.58.94-2.32,2.66-4.5-1.53-6.59-3.91-2-.42-4.33,1.38-6.65,1.27,2-1.71,5.94,3.22,5.18,1-.16,2.21,2.37,1.06,4.13s-.65,3.83-.61,5.78Z" transform="translate(-15.75 -2.5)"/><path d="M510.58,230.72c-1.43-.35-3.62,0-3-2.67.66-2.84-.35-6.63,3.88-7.63,1-.24,1.57.62,1.38,1.5a5.26,5.26,0,0,0,.81,4.27C517.22,230.86,513,230.13,510.58,230.72Z" transform="translate(-15.75 -2.5)"/><path d="M617.52,546.94c-3.91,2.17-6-2.86-9.47-2.22-.06,0-.5-.91-.36-1.17a7.18,7.18,0,0,1,6.13-3.7c2.26-.15,3.57,1.24,3,3.46C616.39,544.79,618.15,545.65,617.52,546.94Z" transform="translate(-15.75 -2.5)"/><path d="M593.57,865.88a6.64,6.64,0,0,0-5,2.45c-1,1-3.37,2.56-4.6.89-1.39-1.89,1.49-2.26,2.21-3.37,2-3.07,4.56-3.71,7.73-3.29,1.24.17,3,.35,2.71,2.21C596.37,866.47,595.19,866.88,593.57,865.88Z" transform="translate(-15.75 -2.5)"/><path d="M569.83,614.61c3.13,12.84,3.13,12.84,1.08,18.51A69.72,69.72,0,0,1,569.83,614.61Z" transform="translate(-15.75 -2.5)"/><path d="M510,208.93c3.74.38-.37,4.83,2,6.52.29.21-1.12,3-2.26,2.67-2.71-.75-3.82-3.66-4.54-5.89C504.62,210.47,506.66,208.76,510,208.93Z" transform="translate(-15.75 -2.5)"/><path d="M504.46,184.68c0,1.42-.33,2.86-1.44,2.46-3-1.08-4.44-3.73-5.23-6.71-.44-1.7.5-2.72,2-2.62C504.5,178.13,501.8,183.32,504.46,184.68Z" transform="translate(-15.75 -2.5)"/><path d="M615.42,495.56c2.28,3.73,2.63,7.48,1.12,10.16-1.12,2-4.67,1.3-7.39.06C614.48,502.68,614.48,502.68,615.42,495.56Z" transform="translate(-15.75 -2.5)"/><path d="M509.24,204.15c-.07,2.25-1.54,2.79-3.3,2.78-2.37,0-3-1.65-3.06-3.65-.12-2.74,2.12-3.39,3.92-3.5C510.11,199.59,507.47,203.18,509.24,204.15Z" transform="translate(-15.75 -2.5)"/><path d="M543.85,141.72c3.45,5,5.5,9.44,6.23,14.87A21.28,21.28,0,0,1,543.85,141.72Z" transform="translate(-15.75 -2.5)"/><path d="M575.27,655c-.32-6.54.21-13.21-3.32-19.24C576.52,639.81,577.54,646.29,575.27,655Z" transform="translate(-15.75 -2.5)"/><path d="M228.43,434.39c.42,1.87-.11,3-1.88,2.88-2.73-.14-3.6-2.63-4-4.47s2-2.87,3.48-2.84C229.1,430,227.34,433.2,228.43,434.39Z" transform="translate(-15.75 -2.5)"/><path d="M501.16,842.58a25.69,25.69,0,0,0-2.82-.68c-1.17-.16-2.58-.12-2.15-1.81.28-1.12,1.23-2.16,2.57-1.28.95.63,1.67,1.06,2.45,0s1.06-2.9,2.73-1.58c.9.7,2.34,1.75,1.88,3.21-.52,1.64-2.31,1.59-3.7,2C501.8,842.47,501.48,842.52,501.16,842.58Z" transform="translate(-15.75 -2.5)"/><path d="M668.45,452.81c4.14,5.38,5.21,12.37,2,18.27-.58-6.82-.46-12.68-2-18.29Z" transform="translate(-15.75 -2.5)"/><path d="M537.44,856.55c-1.68,1.6-4.38,1.9-5.41,4.39a1.5,1.5,0,0,1-2.18.47c-1-.67-.83-1.73-.54-2.69,1.33-4.46,4.21-5.19,8.18-2.09Z" transform="translate(-15.75 -2.5)"/><path d="M506.81,396.43c.52-1.51-1-4.16,1.37-4.49,1.66-.22,3.17,2.17,3.07,3.83-.12,1.94-1,5-2.86,5.08C506.09,401,507.09,398.12,506.81,396.43Z" transform="translate(-15.75 -2.5)"/><path d="M698.11,866.83c-.07-1.52,1.25-2.49-.05-4-1.2,1.14-2.44,2.23-3.57,3.44-.62.67-1,2-2.13.95-.93-.89-.17-1.77.66-2.42a28.26,28.26,0,0,0,3.07-2.46c1.26-1.32,2.55-3.21,4.24-.95S701.46,865.71,698.11,866.83Z" transform="translate(-15.75 -2.5)"/><path d="M486.26,168.48c-.3,1.17.37,3.11-1.64,3-2.25-.1-2.82-2.15-3.08-4-.23-1.66.71-3.24,2.38-3.22C486.59,164.36,486,166.76,486.26,168.48Z" transform="translate(-15.75 -2.5)"/><path d="M532.59,292.17c-1.27,2.65-2.55,5.3-4,8.26C527.08,296.42,527.29,295.89,532.59,292.17Z" transform="translate(-15.75 -2.5)"/><path d="M637.7,863.5c-.2,1.91-.81,3.91-.48,5.73s.55,2.86-1.3,3.47c-.81.27-2,.12-1.83-.85.27-1.62-2-3.36.25-4.84,1.34-.91,2.73-1.79,3.43-3.37Z" transform="translate(-15.75 -2.5)"/><path d="M480.56,398.74c1.39,3.59,4.9,7.08.87,11.72C481.1,406,480.83,402.39,480.56,398.74Z" transform="translate(-15.75 -2.5)"/><path d="M638.08,834.57c-.38,1.66-.28,3.93-1.6,3.66-2.54-.51-1.85-3.37-2.36-5.26-.29-1.1.22-2.86,1.5-2.49C637.54,831,637.65,833.21,638.08,834.57Z" transform="translate(-15.75 -2.5)"/><path d="M558.94,485.16c-.93-7-.65-7.58,3.86-9,.51,1.9-1.72,2.2-2,3.59S559.85,482.51,558.94,485.16Z" transform="translate(-15.75 -2.5)"/><path d="M510.11,822.2c.73-3.18,2.51-4.5,5-4.84,1.87-.26,2.53,1,2.8,3.2C515,819.33,512.78,821.09,510.11,822.2Z" transform="translate(-15.75 -2.5)"/><path d="M620.1,829a31.59,31.59,0,0,1-1.77,3.54c-.68,1.06-1,2.65-2.62,2.68-.42,0-1-.75-1.25-1.29-.78-1.78.81-2.69,1.63-3.84,1.06-1.48,2.68-.93,4.14-1Z" transform="translate(-15.75 -2.5)"/><path d="M668.45,452.79c-.22-4.22-2.06-8.32-.67-12.66a29.26,29.26,0,0,1,.67,12.67Z" transform="translate(-15.75 -2.5)"/><path d="M465.8,458c-.88,0-1.73-.18-1.56-1,.54-2.44,2.33-3.9,4.51-4.8a1.3,1.3,0,0,1,1.73,1.28C470,456.08,467.53,456.79,465.8,458Z" transform="translate(-15.75 -2.5)"/><path d="M572.38,442.3c-1.14-.43-1.58-.46-1.7-.67-1.26-2.19-3.23-4.1-3-6.91,0-.19,1-.57,1.16-.43C571.07,436.31,572.08,438.86,572.38,442.3Z" transform="translate(-15.75 -2.5)"/><path d="M521.2,308.83c1,.34.86,1.29,1.18,2a4.12,4.12,0,0,1-.68,4.61c-.45.57-1.15.81-1.64.15-1-1.36-.39-2.86-.08-4.28C520.18,310.4,519.94,309.22,521.2,308.83Z" transform="translate(-15.75 -2.5)"/><path d="M536.45,293.7c.35-1.88-3.11-4.3,1-5.74,1.63-.57,0-2.63.78-4.07,3.5,4.2-1.78,6.52-1.78,9.84C536.44,293.74,536.45,293.7,536.45,293.7Z" transform="translate(-15.75 -2.5)"/><path d="M493.45,415.42c1.42,3.7-2.38,5.59-1.38,8.53C489.84,420.84,490.25,418.18,493.45,415.42Z" transform="translate(-15.75 -2.5)"/><path d="M499.71,420.72c-.49-3.14.64-5.81,2.53-9.36C503.25,415.75,501.21,418.15,499.71,420.72Z" transform="translate(-15.75 -2.5)"/><path d="M565.85,877.42c-2.68,1.49-5.29.24-7.85.4C561.68,874,561.68,874,565.85,877.42Z" transform="translate(-15.75 -2.5)"/><path d="M642.53,418.17,634,421C635.94,416.65,638.88,416.22,642.53,418.17Z" transform="translate(-15.75 -2.5)"/></g></g></svg>