<svg xmlns="http://www.w3.org/2000/svg" viewBox="0 0 820 850"><defs><style>.cls-1{fill:#fff;}</style></defs><title>0bird</title><g id="Layer_2" data-name="Layer 2"><g id="Layer_1-2" data-name="Layer 1"><path class="cls-1" d="M820,850H0V0H820ZM396.08,476c-4.07,11.42,8.9,14.5,9.77,23.41l1.83-.34v-24l1.71,0c.14,1.54.39,3.07.4,4.61.06,6.17,0,12.34.14,18.5a6.53,6.53,0,0,0,1.51,3.76c2.34,2.78,5.06,5.25,7.39,8,3.68,4.41,7.17,9,11.85,14.89l10-20.19-1.25-1.5H416.85l0-1.66h37.41l.15,1-9.48,1c-.11,2.64-.22,4.88-.34,7.6,2.45-.49,4.61-.45,6.24-1.36,2.26-1.27,5.24-2.88,5.92-5a12.59,12.59,0,0,0-3.65-13.66,41.14,41.14,0,0,1-5.77-6.86c-2.74-4.06-3-7.38-.77-12,.89,9.61,7.14,15.06,11.7,21.61,1.76,2.52,3.69,6.39,3,8.9-1.73,6-6.07,10.9-12.83,10.66-10.14-.36-10.68,9-16.42,13.51,1.22.74,1.63,1.2,2,1.2,17.57.1,35.15.22,52.72.11a5.26,5.26,0,0,0,3.76-2.6,35,35,0,0,0,3-8.45c1.49-6.74-1.82-13.22-8-15.29l4-1.82c-1.13-17.9-.22-21.21,6.2-22.1,0,.5.2,1.15,0,1.42-6.48,7.39-5.09,15.14-1.57,23.31,2.58,6,4.18,12.3,1.77,18.88-.73,2-1.37,4-2.31,6.75,2.42,0,4.21,0,6,0,12.49-.11,25-.27,37.46-.32,1.58,0,3.76,0,4.65,1,3.1,3.32-.85,13.2-5.34,14.15-7,1.48-13.95,2.88-20.84,4.67-17.84,4.63-35.62,9.5-53.45,14.15-4.59,1.2-5,1.79-2.08,5.77,7.78,10.68,15.62,21.31,24.31,33.14,1.77-3,3.53-5.05,4.37-7.46,1.68-4.79,5.78-5.93,9.77-6.4,1.72-.21,3.76,2.27,6.13,3.84-.69.24-.42.22-.39.12a10.1,10.1,0,0,0,.56-1.85c.9-6.05,1.35-5.57,7.13-5.31,4,.19,8.12-2.31,12.71-3.78l3.25,2.49,4.56-9.55c6.75,1.19,13-1,12.25-9.84s.21-17.62.3-26.45c.07-6.49,1.31-13.42-.53-19.36-1.49-4.82-2.81-9-.72-14.71h-47l0-1.36,230.67-3.36c-.36-.61-.73-1.22-1.09-1.84l6.71-9L728,479.79l1.3-1c.92.75,1.84,1.5,2.49,2.05l4.46-5.46c-.61-.83-1.37-1.86-2.08-2.84,1.3-2,2.39-3.95,3.74-5.69a26.35,26.35,0,0,1,3.25-3c2.14-1.95,4-4.47,6.46-5.75,3.81-2,8-3.11,12.13-4.53,4.64-1.61,4.76-2.19.89-5.6l2.92-3.82c-2.16-.7-4.63-2.32-5.61-1.68-5.33,3.47-4.78-.86-5.24-4.06-5.71,2.32-.55,5.5-.91,8.07L746,448.8c.6-3.58,1.12-6.64,1.66-9.86-3.45.48-7.15,2.19-9,1-4.23-2.67-6.34-.83-8.69,2.56l-3.12-3.45-7.27,8.71c-.63-1.84-1.28-3.72-2.25-6.52-1.37,2.83-2.31,4.77-3.45,7.14-2.57-3.75-4.75-3.75-7.81-.92-4,3.67-8.27,2.9-11.45-1.52l-3.47,5a48.39,48.39,0,0,1-6.32-3.22c-4.13-2.93-8.39-2.84-13.09-1.74-2.69.64-5.63.19-8.46.26-4.68.11-9.36.19-14,.41a46.68,46.68,0,0,0-5.63,1.13c-1.4,2.72-4.4,2.49-7.61-1.15-1.6,1.51-3.74,2.56-4.07,4-1.36,5.87-5.51,3.25-8.74,3.21-3,0-6.67-1.54-9-.36-5.24,2.64-10.11,2.19-15.36.89-3.91-1-8-1.25-11.87-2.45-8.67-2.7-17.16-6-25.85-8.61-5.42-1.64-11.09-2.48-17-3.76-.84.59-2.13,2.26-3.45,2.27a151.15,151.15,0,0,1-17.29-.62c-5.49-.56-10.92-2.52-16.38-2.57-31-.24-62-.08-93-.08-2.05,0-4.11-.27-6.68-.44,1.2-5.69,1.49-11,3.49-15.59,2.18-5,5.85-9.34,9-13.86,1.52-2.17,3.4-4.08,5.44-6.48.23-3.56.14-8.18,1-12.61.4-2.07,2.44-5.15,4.13-5.43a190.19,190.19,0,0,1,22.88-2.27c3.26-.15,6.2,1.17,8.07-3.22,1.39-3.24,3.77-6.3,8.64-5.6,1.42.2,3.87-2.12,4.77-3.85,2.78-5.35,6.19-8.29,10.08-7.45l-5.64,9.69,23.67,7.75c-1.46-5.72,3-11.78,8.12-11.85-.87,1.08-1.53,2-2.26,2.8-.87,1-1.84,1.93-2.69,3-2.19,2.65-.71,6.82,2,5.84,4.46-1.61,6.52,1.55,9.68,3.17l1-3.25c2.52.68,4.52,1.28,6.55,1.75,1.23.28,2.51.29,3.74.53,3.53.69,7,1.46,10.56,2.16,5.33,1.08,11.09-2,16.18,1.64.12.09.55-.26,1-.48-.07-1.11-.15-2.23-.21-3.18,2.81.36,5.22.83,7.64,1,8.46.45,16.94.58,25.38,1.21,8.16.6,16.47-1.5,24.51,1.44.84.3,2-.31,2.94-.24,8.81.61,17.92.07,26.35,2.2,12.68,3.2,24.84,8.39,37.3,12.49,3.77,1.25,7.9,3.49,11.54-.66.32-.36,1.27-.19,1.92-.21,5.38-.1,10.84.31,16.12-.45,3.33-.48,6.4-2.71,9.59-4.16-.08-.42-.15-.85-.23-1.28l-11-3.33.06-1,21.57-5.09c-10.09-10.71-22.48-15.11-35-19.29l.33-1.26,10.43-1.12a21.14,21.14,0,0,0-2.51-3.07c-8.49-6.47-18.34-9.92-28.54-12.39-6.91-1.68-14.61-1.54-20.73-4.64-6.59-3.33-14.58-4.71-19-12.6-2.5-4.44-8.54-7.17-13.42-9.87-3.23-1.79-7.44-1.73-10.86-3.27-5.53-2.48-11.29-4.95-16-8.63-6-4.69-14.76-5-19-12.75-1.77-3.21-5.22-5.39-5-9.77,0-1.11-1.17-2.3-1.87-3.42-3-4.87-6.11-9.72-9.16-14.58-1.36-2.18-2.71-4.36-4-6.56-2.21-3.67-6.21-7.39-6.14-11,.09-5.19-2.81-7.31-5.8-9.44-4.27-3-9.13-5.24-13.72-7.84-8.06-4.57-16.72-7.36-23.94-14.3A161.41,161.41,0,0,0,464,188.09c-9.14-4.38-18.42-8.49-27.37-13.23-14.8-7.83-29.2-16.42-44.12-24-12.22-6.22-23.87-13-33.8-22.61C346.59,116.51,334.22,105,322,93.42c-.56-.53-.7-1.48-1.15-2.16-2.14-3.26-3.94-6.85-6.59-9.64s-6.19-4.42-9.1-6.86C297.37,68.27,289.72,61.63,282,55A104.16,104.16,0,0,0,248,35.6c-3.35-1.16-6.7-1.83-11.07.47a16.82,16.82,0,0,0,3,1.13C253,38.3,263.73,45,273.79,52.71q17.15,13.22,33.72,27.17c3.19,2.68,5.49,6.46,8.08,9.82,1.5,2,2.43,4.47,4.2,6.07,5.54,5,11.66,9.35,17,14.54s10.32,11.24,15.29,17c9.55,11.14,21.95,18,35.05,24,6.17,2.81,12,6.38,18,9.52,3.53,1.83,7.33,3.21,10.63,5.38,1.39.92,1.79,3.35,2.64,5.09l-1.09,1.17c-4.39-2.08-8.64-3.22-12.6,1.77,3.45,0,6.43-.43,9.23.1,4,.77,7.56,1.45,9-5.62L430,179.9l-.45,1.24-14.31-3.68-.56,1.85,10.24,3.93a45.83,45.83,0,0,1,4.47,1.8c4.17,2.14,8.11,5,12.5,6.42,4.12,1.37,9.17.51,10.61,6.3.12.46,1.09.66,1.58,1.08,3.06,2.62,6.1,5.27,9.14,7.9L462,208.6,450.23,206c-.12.47-.23.94-.35,1.41,3.64,2.88,8.1,3.42,12.65,3.39,1.11,0,2.81-.73,3.15-1.57s-.27-2.51-.92-3.52a45.16,45.16,0,0,0-3.71-4.48c3.09-.84,6.33-.84,8.24-2.44,3-2.5,4.9-1.51,7.4.23,6.71,4.63,13.74,8.84,20.19,13.8,4.06,3.13,9.78,5.22,10.28,11.58l-15-2.62c-.18.68-.35,1.36-.53,2,5.78,2.48,13.41,1.12,17.46,8.12a111.84,111.84,0,0,1-15.52,1.73c-2.69.18-4.13-.68-4.86-3.64-1.54-6.2-4.59-8.2-11-8.21-.81,0-1.6-.4-2.41-.47-7.45-.66-14.9-1.37-22.37-1.83-1.08-.06-2.25,1.17-3.38,1.8,1,.68,1.93,1.86,3,2,9.08,1,18.18,1.77,27.26,2.79,1.43.16,2.75,1.26,4.13,1.93-.86,1.32-1.5,2.89-2.65,3.88a5.59,5.59,0,0,1-3.66,1.14c-9.61-.62-19.35,3.39-28.85-.89a11.45,11.45,0,0,0-3.33-.82,16.12,16.12,0,0,0-2.85.15c.13,1.23.54,1.58,1,1.66,11.37,2.1,22.73,4.3,34.15,6.16,3,.49,4.24,1.17,3.2,4.38-1.82,5.6-5.23,8.17-11.94,8.66-10.77.79-20.61-2.86-30.48-6.38-2.69-1-2.95-2.69-1.9-5.14,1.69-4,1.54-7.85-1.28-11.26-.54-.64-1.94-.57-2.94-.83,0,.9-.46,2.23,0,2.65,4.55,4.38,1.71,8.5-.83,12-2.67,3.71-5.92,7-11.58,6.17-6.4-.89-12.92-1-19.4-1.31a10.87,10.87,0,0,0-3.15.79l.16,1.41c1.55.14,3.1.35,4.66.4,4.16.13,8.36-.07,12.48.4,2.07.24,4,1.66,6,2.54-1.28,2-2.33,4.3-3.94,6A5.84,5.84,0,0,1,412.7,261c-4.78-.25-9.55-.85-14.33-1.22a12.31,12.31,0,0,0-2.85.4l-.08,1.13,17.42,4.83c-10.63,9.17-20,.42-29.29.4-.14.42-.27.85-.41,1.27L400,274.17c-.17.66-.35,1.31-.52,2-12.31,3.07-22.91-3.5-34-7.53,8,7.94,18.5,10.25,29.75,12.71-6.67,7.53-14.75,6.38-21.91,5.47-7.35-.94-14.41-4.11-21.59-6.31,8.58,6.33,18,10.21,29.14,10.83-1.69,2.19-3.6,4.22-5.62,4.35-13.6.86-26.92-.25-39.22-7a40.73,40.73,0,0,0-5.55-1.94c.79,1.61.89,2.3,1.21,2.41,7.41,2.69,14.85,5.31,22.27,8,2,.7,3.91,1.44,5.86,2.17-.74,1.92-1.09,4.17-2.34,5.66a7.82,7.82,0,0,1-4.78,2.18A36.56,36.56,0,0,1,324.74,299a56.76,56.76,0,0,0-5.41-3.42l-.77,1.31c6.81,7.34,15.23,12.06,26.13,14.26-1.74,3-2.62,5.63-4.39,7.34-3.88,3.72-22.07,5.57-25.89,1.92-3.48-3.32-7.62-3.35-11.37-5.05s-7.1-4.13-10.62-6.25a56.45,56.45,0,0,0-6.32-3.75c-2.48-1.08-3.44.21-2.9,2.7,1,4.68,9.84,11.16,14.63,12.32a59,59,0,0,1,14.38,6c6.76,3.77,12.73,9.41,19.86,12a130.79,130.79,0,0,0,45,7.78,10.92,10.92,0,0,1,6.73,2.82c3.29,3,6.73,4.67,11.23,4.07,2.47-.32,5.07,0,7.46-.58,4-1,5.93.41,6.3,4.53l-2.46.91c0,2.11.71,4.52-.12,5.32-4.06,3.92-3.68,10.69-9.1,13.71-.74.41-.57,2.43-.86,3.7-.21,1-.47,1.92-1.06,4.24-1-2.56-1.52-3.75-2-4.82-1.78,1.1-3.81,1.66-4.59,3-2,3.34-6.16,4.11-7.67,8.45-1.81,5.18-3.07,11.39-9.25,14.09-1.07.46-1.75,2-2.46,3.08-6.76,10.6-15.55,18.56-28.57,21.84l1.57-5.78h-5.7c5-7.64,6.38-15.5,4.31-23.35-2.26-8.6-4.08-18-9-25.05-5.82-8.45-14.39-15.13-22.3-22-6.91-6-14.86-10.7-21.81-16.61-10.45-8.91-19.86-18.84-31.27-26.86-8.82-6.2-15.29-15.74-22.87-23.74-2.05-2.17-4.33-4.13-6.51-6.19-.48.48-1,1-1.45,1.43a28.72,28.72,0,0,0,3,4.25c5.69,5.68,11.52,11.21,17.24,16.87,3.53,3.5,6.75,7.34,10.44,10.67,6,5.44,12.29,10.64,18.52,15.86,14.64,12.27,29.44,24.36,43.92,36.82,4.76,4.08,9.93,8.42,12.85,13.77,8.05,14.77,8.9,30.24,1.48,45.85-3.69,7.75-10,12.09-18.54,12.08-40,0-80-.07-120,.13-5.16,0-10.31,1.46-16.18,2.34l2.2,4.14c-.19,3.09-1.09,5.67-.21,6.65,1.08,1.21,3.64,1.27,5.59,1.48,7.39.77,13.4-5,21-4.2,6.94.73,14,.16,22.93.16-2.15,4.18-2.95,8.56-5.38,9.85-4.43,2.35-9.84,2.85-14.83,4.19a23.47,23.47,0,0,0-2.63,1.17c-2.32.93-4.65,2.6-7,2.62-17.45.2-34.91.09-52.37,0a11.36,11.36,0,0,1-4.67-1.24c-3.81-1.85-7.61-5.72-11.25-5.53-8.35.42-15.69-2.79-23.48-4.24a8.58,8.58,0,0,1-3.93-2c-4.75-4.21-9.88-7.5-16.53-7.14-4,.21-8,1.84-11.8-1-.57-.43-2-.06-2.88.31-5.52,2.39-9.87,9.73-9.64,16,.14,4-.24,8.16.49,12.07.88,4.67-1,5.32-4,4.5l-1.79,8.95,5-3.18c-.36,2.73-.57,4.26-.77,5.8l1.44.31,2.86-9.1c3.57-.16,4.94,1.3,3.91,5.15-.5,1.86-.09,4-.09,6l1.72.62c1.81-2,3.71-3.92,5.41-6,4.74-5.78,11.69-7.29,15.5-3.05.86,1,.64,2.88.91,4.36-1.31-.19-2.64-.29-3.93-.58-1.59-.36-3.44-1.66-4.66-1.19-3.86,1.48-7.28,8.15-6.22,12,.44,1.58,2,3.66,3.4,3.93s3.1-1.47,4.55-2.26l-5-4.14c.68-.81,1.4-2.34,2-2.31,2.41.12,5.45,0,7,1.44,1.06,1,.53,4.43-.22,6.43-1.87,4.91-6.5,6.59-11.75,6.2-4-.3-8.2.68-12.23,1.48-2.51.49-4.87,1.71-8.42,3-1.72,5.43-1.74,5.4-7.91,8.52-.52.26-.49,1.47-1,2-2.48,2.41-4.95,4.85-7.63,7-1.37,1.12-3.24,1.6-4.74,2.59-3.81,2.55-5.76,8.22-11.9,6.93-.63-.13-1.5.89-2.5,1.53l4.9,2c-5.5,2.85-9.47,5.93-9.5,11.29-2.88,1-5.77,2.31-7.2,4.52-1.21,1.87-.72,4.85-1,7.3l-3.87-.75c-1.06,12.16,2.3,21.27,14.39,25.51.69.24,1.65,1.75,1.44,2.21-2,4.45,2.32,6.34,3.35,10.06l3-4.34c.91,1.68,1.29,3.21,2.27,4,2.89,2.43,6,4.58,9.1,6.88,1.39-3.88,4.93-1.43,7.41-.34,3.94,1.74,7.34,4.65,11.19,6.64,5.94,3.07,12,5.86,18.16,8.57,1.76.78,3.88.69,5.73,1.32,4.4,1.52,9.6,2.24,12.88,5.11,4.46,3.9,8.77,6.21,14.63,5.7,3.78-.32,7.57-.46,9.94-.6l21.54,9c1.34-.31,3.56-1.59,4.76-.95a18.26,18.26,0,0,0,12.69,1.88c.61-.15,1.53-.25,1.91.08,3.08,2.72,8.48.5,10.75,5.09.25.49,2,.66,2.85.34,7.52-2.9,13.28,4.75,20.52,3.35a5,5,0,0,1,.47,1l-2.69,1.57c6.42,1.14,12.35,2.15,18.25,3.27,2.78.53,5.51,1.72,8.28,1.81,3,.09,6.09-1,9.15-1.13,6.65-.19,13.3-.06,18.95-.06,3.16-3.38,5.7-6.63,8.82-9.15,1-.83,5.06-.1,5.17.43.59,3,1.63,6.94.22,9-2.42,3.47-.17,4.91,1.06,7.25,2.42,4.62,12.35,7,17.29,5.44,7.33-2.34,8.1-9,11.89-13.8-4.16-3-10.09,1.57-13.87-5.15,4.23,0,7.41.51,10.34-.12,3.7-.8,8.58-1.47,10.54-4,7.95-10.41,15-21.5,22.29-32.42,1.22-1.84,4-3.38,1.51-6.44-2.14-2.66-4.42-3.81-7.79-3a34.2,34.2,0,0,1-5.56.4c4.62-5.66,9.8-5.22,17.84.7l32.63-47.08c-10.71-2.28-20.08-4.2-29.42-6.28q-20.6-4.57-41.15-9.34c-12.24-2.82-11,.59-11.25-13.19-.08-4.3,1.84-5.53,5.71-5.47,7.33.12,14.65.13,22,0,1.63,0,3.24-1,4.85-1.55-.69-1.72-1-3.9-2.18-5.06-3.06-2.9-3.59-6.66-1.71-9.51,1.56-2.37,5.23-3.37,8-5l1.19,2c-1.18.88-2.31,1.85-3.56,2.62-3.94,2.42-4.07,4-1.05,7.3,1.52,1.65,3.13,3.69,3.52,5.77.6,3.16,2.27,3.57,4.88,3.57,19.65,0,39.3.14,58.94-.16a28.42,28.42,0,0,0,11.54-3.14c1.13-.55.73-4.21,1.09-6.44a3.57,3.57,0,0,1,.69-1.32c3-4.35,5.91-8.86,9.22-13s3.32-7.86-.57-11.62c-.83-.81-1.9-1.36-2.78-2.12C391.6,486.52,390.72,480.54,396.08,476ZM668.27,814.87c4.25,1.46,8.31,3.09,12.5,4.27,10.23,2.88,20.5,5.65,30.82,8.21a6.12,6.12,0,0,0,4.88-1.28A14.52,14.52,0,0,1,727,821.6c4.17-.07,8.31-1.82,12.73-2.89-.46-1.84-.79-3.15-.9-3.63,2.9.49,6.12,1.87,9,1.34,8.82-1.64,17.51-4,26.23-6.13,3.51-.88,7-2,11.75-3.49-3.3-1-5.17-1.54-7-2.16-23.57-8.08-47.07-16.36-70.72-24.17-10.37-3.43-21.18-5.49-31.55-8.9-19.63-6.46-39.1-13.38-58.59-20.23-10.35-3.63-20.54-7.69-30.92-11.21-19-6.45-38.13-12.59-57.16-19-11.33-3.8-22.66-7.63-33.87-11.76-10.28-3.78-20.35-8.14-30.61-12-15.23-5.67-30.37-11.67-45.89-16.37a58,58,0,0,0-22.31-1.75c-6.58.7-13,3.84-19.27,6.33-23.43,9.26-46.78,18.71-70.17,28.06-17.57,7-35.11,14.14-52.77,20.93-12.1,4.66-24.47,8.62-36.58,13.25-21.88,8.37-43.57,17.23-65.51,25.44-15.69,5.87-31.73,10.79-47.46,16.55C82.14,798.37,59,807.21,35.81,816c-6.4,2.42-12.73,5-20.06,7.94a25.32,25.32,0,0,0,4,1.68c8.16,1.54,16.33,3.06,24.51,4.47,6.53,1.12,13.12,1.92,19.62,3.15,5.14,1,10.22,2.29,15.28,3.61,2.77.72,5.88,1.19,8.08,2.81,3.22,2.36,6,2.65,9.68,1.33,7-2.54,14.24-4.55,21.31-7,6.81-2.35,13.54-5,20.26-7.44l-9.08-12.4a36.85,36.85,0,0,1,4.43-.6,68.07,68.07,0,0,0,26.2-4.86c9.19-3.66,18.94-6,28.54-8.51,4.69-1.23,9.53-2.37,14.24.76,1.86,1.23,4.38,1.5,6.63,2.07,15.54,3.93,31.14,7.61,46.6,11.79,10.9,2.94,21.9,5.83,32.35,10,16.37,6.55,29.93-3.33,44.67-6.27,7.19-6.73,15.32-2.16,23-1.66,3.9.26,7.69,2.14,12.25,3.5.12.15.72,1.67,1.79,2.15a62.52,62.52,0,0,0,11.43,4.39c9.5,2.22,17.78,10.6,28.86,5.26,7.61-3.67,15.71-6.31,23.43-9.79,2.13-1,3.65-3.27,5.48-5,2.82-.48,6.29-.59,9.41-1.69,8.83-3.12,17.37-3.66,26.51-.61a180.82,180.82,0,0,0,27.52,6.52c4.07.68,8.73-.2,12.75-1.51,10.23-3.35,20.18-7.51,30.36-11,17.71-6.12,35.61-11.68,53.19-18.13,6.84-2.51,13.52-2.13,20.07-.92,9.41,1.74,18.52,5,27.89,7.1,8,1.75,16.17,2.65,24.25,4,1.57.26,3.1.78,5.3,1.35C673.66,806.79,671.08,810.65,668.27,814.87Zm54.14-312.11H698.67c-10.65,0-21.31,0-32,0q-54.32-.17-108.62-.32c-3.11,0-7.11-.58-9.05,1.06-1.53,1.29-.61,5.58-.61,8.54,0,14.8-.12,29.6.08,44.39a24.86,24.86,0,0,0,2,8.58c1,2.39,2.9,2.32,3.91-.06,2.09-5,6.16-5.85,10.76-5.48,7.33.6,14.42.61,21.07-3.47,1.55-.94,4.16-.14,6.28-.14l-1.33-.39,9.74-7.85,2.32,4.47c6.26-3,12.07-6.26,18.21-8.65,4.22-1.65,8.94-2,13.34-3.23,2.27-.65,4.32-2.06,6.61-3.2.08.32.39,1.46.85,3.22l20.78-12.07c.47,1.41.82,2.47,1.17,3.54,2.69-8.19,11-6.56,16-10.31,2.37,3.64,2.37,3.64,8,.38l-2.57-3.43c5.6-.81,12,1.38,14.33-6l1,2.72ZM307.59,651.27c1.56.31,2.24.66,2.8.53,6.33-1.51,11.7.31,16.77,4.14a5.17,5.17,0,0,0,4.72,0c2.7-1.69,5.09-2.15,7.9-.52,2,1.17,4.48,1.73,6.15,3.23,3.69,3.32,6.75,2,10.3-.2,5.29-3.3,10.41-8.78,17.39-1.72,0-7.36-.1-13.59,0-19.82q.47-25.68,1.09-51.35c.3-12.1,0-24.25,7.27-35,14.17-21,35.11-22.19,49.93-1.65A38.68,38.68,0,0,1,439.28,575c-1.07,17,.31,34.24.64,51.38.05,2.63,0,5.26,0,8.85,3.91-2.58,4.86-.11,5.29,1.82,1.08-1.46,2.26-3.07,3.45-4.66,2.41-3.2,5.89-6.08,7-9.68,1.39-4.61.78-9.81,1.18-14.74A18.62,18.62,0,0,1,458,604c.71,1.28,1.87,2.5,2,3.85.56,4.6.61,9.26,1.22,13.85.13,1,1.71,1.88,2.59,2.83a4,4,0,0,1,.46.91l-3.21,1.33v1.49c1.48.19,3.38,1.07,4.36.47,5.64-3.49,11.06-7.33,17.07-11.41l3.35,1.95c-24.59-39.25-53.21-74.41-74.84-114.23l-1.57.5v16.37l-1.58.11c-.65-5.47-1.31-10.94-2.13-17.76-1.81,2.27-3.75,3.63-3.61,4.72.69,5.17-2.74,8.41-5.18,12-9.92,14.54-20.06,28.93-30,43.43-1.86,2.71-4.33,5.57-4.73,8.59-.69,5.25.86,10.77-4,15.07-1,.87-.16,3.63-.46,5.48-.36,2.28-1.51,4.52-1.49,6.77.09,8.78.59,17.57.69,26.35,0,1.06-1.43,2.13-2.2,3.2-.75-1.18-2.36-2.55-2.13-3.49a28.63,28.63,0,0,0-1.8-19.73c-1.74-3.7-2.6-7.82-4.22-12.88C333,613.78,320.46,632.3,307.59,651.27Zm103.7,10.09,2-.25c-.4-2.72-.85-5.43-1.2-8.15a4.19,4.19,0,0,1,.17-2.27c1.17-2.22,3.23-4.21,3.65-6.52.88-4.87.83-9.89,1.41-14.83.18-1.56,1.13-3,1.73-4.56.64,1.64,1.73,3.26,1.83,4.94.26,4.27.09,8.58.09,12.87l1.38.69c.81-1,2.28-2,2.33-3q.82-16.86,1.24-33.75c.25-10.74-.14-21.51.53-32.22.29-4.67-.78-8.06-4.05-11.06a31.27,31.27,0,0,1-3.92-3.79c-6.83-9-15.23-7.23-20.66-2.29-4.77,4.34-9.57,8.67-14.05,13.29a9.48,9.48,0,0,0-2.63,5.83c-.22,14.91-.12,29.82-.12,44.73v24.11l1.4.11c.13-1.68.31-3.35.38-5,.25-6,.38-11.92.77-17.87.07-1,1.18-2,1.8-3,.62,1.16,1.73,2.31,1.77,3.5.35,10,.4,19.94.78,29.9.16,4.17.05,7.67-6.4,7.27,7.58,2.5,6.46,9.16,7.67,14.58l1.56-.48c-.27-2.05-.55-4.1-.67-5,3.15-.49,6-.53,8.61-1.42,5.22-1.79,4.42-6.68,5.15-10.84.33-1.84,1.59-3.51,2.43-5.26,1.48,1.6,3.3,3,4.34,4.87C411.36,657.79,411.1,659.7,411.29,661.36ZM224,274.21c0-3.75-4.4-9.9-8.4-11.33a6.91,6.91,0,0,1-3.16-2.86c-4.89-7.89-10.17-15.6-14.3-23.88-4.55-9.14-9.56-18.51-11.58-28.36-2.81-13.7-3.18-27.92-4.24-41.94-.28-3.73.94-7.55,1.12-11.35.54-11.62.73-23.26,1.45-34.87.35-5.66,1.85-11.24,2.28-16.89.52-6.71-1.36-9.51-6.58-10.1a45.85,45.85,0,0,1,2.49,6c.39,1.46.72,3.69-.05,4.48s-3,.56-4.49.24c-2.35-.52-4.6-1.5-8.34-2.77l5.45-1.88L174.2,97.3c-10.45.71-15.71,8.42-21.13,16.36a12.08,12.08,0,0,1-.73-6.22c1.22-5.87,2.45-12.17,8-15.41,4.13-2.4,9.19-3.16,13.71-5,2.44-1,4.59-2.65,6.88-4L180.5,81l-17.09-5.9c2.08-4.59,4.62-8.61,5.77-13,3.95-15.1,14.85-22.23,29-24.51,10.16-1.64,20.66-1.17,31-1.67,2.16-.11,4.31-.37,6.47-.56l.11-1.61a23.13,23.13,0,0,0-4.81-1.18c-15.71-.53-31.1-.24-46.36,5.49-10,3.74-16.1,9.59-19.17,19.07S160.16,76,157.33,85.41c-1,3.23-2.94,6.16-4.08,9.35-1.77,4.94-3.95,9.91-4.54,15-.34,3,2.08,6.24,3.26,9.38a98.43,98.43,0,0,0,9.23-3.83c4.57-2.42,9-5.21,13.48-7.89,3.86,6.38,5,11.94,4.52,18.2-.84,9.74-1.62,19.57-1.3,29.33.46,13.91,1.41,27.85,3.16,41.65,1.07,8.48,2.71,17.34,6.38,24.94a392.88,392.88,0,0,0,23.38,41.07C213.93,267.48,219.75,270.6,224,274.21ZM383,674c1.42-4.75-.52-7.31-4.4-9a28.65,28.65,0,0,1-6.95-3.79c-4-3.4-8.13-3.13-11.49.15-7.21,7-13.79,4.73-20.51-.45a7.58,7.58,0,0,0-.8-.6c-3.83-2.22-7.63,0-7.9,4.53-.09,1.5-.53,4-1.37,4.26-5,1.58-3.54,5.41-3.24,8.64.18,2.06,1.76,4,1.78,6,0,2.56-.87,5.13-1.37,7.7l1.91,1.09c1.55-1.3,3.4-2.36,4.57-3.94,2.77-3.75,4.1-4,7.25-.54l1.78,1.92c2.52-1,4.79-1.89,7-2.92,1.67-.78,3.22-1.81,4.83-2.72-.11-.48-.23-1-.34-1.43l7.51,4.4.47-.76-3.05-3.43c3.18.23,5.61.49,8,.42.23,0,.4-2.08.4-2.09-3.15-.83-5.38-2-7.58-1.9-7.52.17-15,.8-22.55,1.18-3.38.17-7.11.78-8.18-5.64ZM340.76,548.92c3.47,6.76,13.84,12.37,20.83,10.72a3,3,0,0,0,1.68-.93c5.34-7.44,10.63-14.93,16.07-22.61-1.22-.66-1.94-1.39-2.64-1.37-11.68.27-23.36.6-35,1.11-.8,0-2.05,1.54-2.2,2.5-.59,3.91-.92,7.86-1.15,11.81a15.89,15.89,0,0,0,.7,3.78l1.13-.13C340.35,552.17,340.55,550.55,340.76,548.92Zm95.93-14.46c6,8.63,11.06,16,16.32,23.19a4.51,4.51,0,0,0,3.81,1.29c6.44-1.49,12.88-3.11,19.17-5.15,1.14-.36,1.59-2.84,2.37-4.34l-.5-1.13c-3.67,2.26-3.88.52-4.46-2.17-.81-3.73-2.53-7.27-4-10.84a2.15,2.15,0,0,0-1.69-.81C457.85,534.45,448,534.46,436.69,534.46Zm-153.92,7.68c1,.62,1.8,1.55,2.8,1.77,12.63,2.86,25.31,5.48,37.9,8.49,3.24.77,5.4.62,6.4-3.52l2.32,3.94,1-.19q.33-7.14.65-14.29l2,.06c.27,2.06.55,4.13,1,7.49,0-3.46.35-5.7-.13-7.75-.29-1.23-1.8-3-2.89-3.08a121.81,121.81,0,0,0-14.17-.38c-7.44.2-14.87,1-22.3.94C291.59,535.59,286.39,535.94,282.77,542.14ZM529,536.32c-.31-1-.61-1.93-.92-2.89-12.37,0-24.75-.08-37.12.12-1.23,0-2.86,1.43-3.57,2.63-1.53,2.57-1.91,6.17-4,8-3,2.61-2.5,4.93-1.51,8.31,2.09-.38,4-.58,5.91-1.1,9.29-2.57,18.66-4.87,27.77-8C520.27,541.79,524.5,538.73,529,536.32Zm-204.72,125c-4.68-6-17.06-7.44-20.81-2.67s-6.79,10.27-10.2,15.55l22.93,1.65C316.55,670.23,314.38,662.79,324.23,661.29Zm163-56.13c2.58,5.06,4.2,5.77,9.85,2.53a132.91,132.91,0,0,0,12.6-8.3c.9-.66.88-2.58,1.29-3.92l-1.2-.33c-2.46,4.14-5.7,3.85-9.08-.55-.86-1.13-2.82-2.61-3.65-2.29-1.57.6-2.88,2.24-3.93,3.71C491.13,598.77,489.41,601.71,487.22,605.16ZM197.76,74.68l.88,1.08c3.16-2.68,6.36-5.31,9.42-8.1.35-.31.13-1.58-.19-2.23-2.09-4.25-7.77-6.93-12.1-5.82-3.34.86-7.85,7.7-7.39,11.49a2.89,2.89,0,0,0,1.65,2C192.56,73.82,195.18,74.19,197.76,74.68ZM431.07,566.17c1.26-1.59,3.59-3.36,3.31-4.4-1.42-5.09-3.22-10.18-7.37-14.08-6.78,8.45-6.78,8.45.54,15.19C428.52,563.77,429.47,564.68,431.07,566.17ZM271.6,308.88l-7.75-6.05c-.54,2.34-1,4.13-1.36,5.93l-1.43.65c-1.73-2.57-3.37-5.21-5.24-7.68a11.32,11.32,0,0,0-2.83-2c-.1,1.13-.68,2.53-.22,3.34,1.3,2.28,2.7,4.71,4.68,6.31,1.75,1.42,5.49,3.15,6.34,2.41,2.87-2.49,5-1.06,7.5-.05,1.27.5,2.75.46,5.59.88-1.61-4.29-2.78-7.42-4-10.55l-1.67.54C271.34,304.19,271.42,305.75,271.6,308.88ZM405.08,536.32c-4.3,2.21-8.64,4.35-12.86,6.71a2.64,2.64,0,0,0-.57,2.56c1.45,2.16,3.21,4.11,4.85,6.13l3.87-3.78c.24-.22.46-.63.71-.66C408.06,546.71,405.69,541.58,405.08,536.32Zm-17.17,10c-2.54,5-4.85,9.3-6.87,13.73a3.11,3.11,0,0,0,1,2.9,4.78,4.78,0,0,0,3.59.07c1-.37,1.69-1.54,2.51-2.36C394.26,554.54,394.26,554.54,387.91,546.33Zm19.61,3c11.15,5.08,12.86,4.51,16.69-6-2.78-.7-6.07-2.66-8-1.76C413,543.05,410.66,546.39,407.52,549.36Zm24,23.14c-3.33,7-2.54,36.14,0,39.11ZM228.69,186.06l2.08-.88c-4.81-10.24-6.74-21.69-12.56-31.51l-2.09.86Zm-5.76-6.1-1.29-.41c-1.26,1.73-3.88,3.79-3.55,5.13,1.15,4.69,3.32,9.14,5.1,13.68l1.82-.67c-.47-2.28-2.12-5.73-1.22-6.64C228.51,186.33,223.16,183.59,222.93,180ZM418,213.46l-.51,2c7.27,4.26,15.58,3.91,23.48,5.34.14-.61.29-1.22.43-1.83ZM297.58,680.37l-.64,1.87c.95.55,2,1.71,2.82,1.53a72.41,72.41,0,0,0,7.76-2.53l.4,1-2.16,2.59c2.56.82,4.9,1.7,7.31,2.27.74.17,2.39-.47,2.41-.79.08-2.23-.15-4.48-.23-6ZM232.16,143.44l-3.34-6.14c.87-1.52,2.29-3,2-3.72-.62-1.5-2.17-2.63-3.67-4.28C224,137.43,224.88,140.4,232.16,143.44Zm25.16,8.28,2.35-1.1q-4.64-8-9.25-16.06l-2.14,1.13C249.92,141.74,254.73,146.16,257.32,151.72Zm40.85-24.13,2-.92c-.14-1.87.4-4.33-.58-5.49-1.58-1.86-4.18-2.86-7.05-4.67.6,3.52.47,5.63,1.35,7.16S296.69,126.31,298.17,127.59Zm-65.29,34.6-.65-1.45-6.3,1c2.58,9,4.06,10.82,8.1,10.45C233.64,168.86,226.35,166.45,232.88,162.19Zm213.64,37.32-1.58-.37c-2.06-.72-4.1-1.5-6.19-2.13a4.22,4.22,0,0,0-2.6-.2c-.55.23-1.06,1.94-1,1.95a43.36,43.36,0,0,0,8.06,3.84C443.93,202.82,445.39,200.6,446.52,199.51ZM295.28,113.77l1.71-1.58c-4-3.55-6.05-9-11.11-11.46l-1.42,1.32Q289.88,107.9,295.28,113.77ZM240.2,142.22l-1.86.94q3.41,6.33,6.82,12.66l1.49-.75A21.92,21.92,0,0,0,240.2,142.22Zm18.34-56.39c-1.1,4.91,2.92,10.39,9.65,12.78Zm.58,20-2.06,1.33,8.4,12,2-1.38Zm11.63,19.51-1.06.93c1.36,5.76,4.74,9.47,9.65,9.73Zm155.49,72.12,1.28.45c-.15-2.3.37-5-.6-6.83-1.3-2.48-3.09-5.47-6.88-4.68ZM188.51,119.24a9.15,9.15,0,0,0,.86,12.92C189.05,127.37,188.78,123.3,188.51,119.24Zm67.24,5.17c-1,5.72,2.08,10.69,7.75,12.79C260.7,132.59,258.55,129,255.75,124.41ZM439.54,205.8l-1.11.18c-.32,1.24-.63,2.48-1,3.83l-5.8-.48c-.08.57-.15,1.13-.23,1.69l11.15,1.66ZM265.82,150l1.52-1.33-7.66-8.73L258.35,141C259.18,145.32,262.5,147.63,265.82,150Zm-26.48-46.19L237,105.4l6.54,8.58,2-1.45Zm10-12.58,2-1.45-6.64-8.85-1.9,1.36Zm25.58,8.23-2.3,1.69,6.36,8.11,1.72-1.21ZM243,89.85c.21,6.56,2.52,9.34,7.14,9.14Zm-8.8,37.85-5.74-9.1C226.86,123.72,229.07,127.39,234.24,127.7Z"/><path d="M396.08,476c-5.36,4.58-4.48,10.56,1.46,15.73.88.76,1.95,1.31,2.78,2.12,3.89,3.76,3.84,7.51.57,11.62s-6.18,8.65-9.22,13a3.57,3.57,0,0,0-.69,1.32c-.36,2.23,0,5.89-1.09,6.44a28.42,28.42,0,0,1-11.54,3.14c-19.64.3-39.29.11-58.94.16-2.61,0-4.28-.41-4.88-3.57-.39-2.08-2-4.12-3.52-5.77-3-3.29-2.89-4.88,1.05-7.3,1.25-.77,2.38-1.74,3.56-2.62l-1.19-2c-2.74,1.6-6.41,2.6-8,5-1.88,2.85-1.35,6.61,1.71,9.51,1.23,1.16,1.49,3.34,2.18,5.06-1.61.54-3.22,1.51-4.85,1.55-7.32.17-14.64.16-22,0-3.87-.06-5.79,1.17-5.71,5.47.23,13.78-1,10.37,11.25,13.19q20.57,4.74,41.15,9.34c9.34,2.08,18.71,4,29.42,6.28L327,610.76c-8-5.92-13.22-6.36-17.84-.7a34.2,34.2,0,0,0,5.56-.4c3.37-.84,5.65.31,7.79,3,2.47,3.06-.29,4.6-1.51,6.44-7.28,10.92-14.34,22-22.29,32.42-2,2.57-6.84,3.24-10.54,4-2.93.63-6.11.12-10.34.12,3.78,6.72,9.71,2.16,13.87,5.15-3.79,4.79-4.56,11.46-11.89,13.8-4.94,1.57-14.87-.82-17.29-5.44-1.23-2.34-3.48-3.78-1.06-7.25,1.41-2,.37-6-.22-9-.11-.53-4.14-1.26-5.17-.43-3.12,2.52-5.66,5.77-8.82,9.15-5.65,0-12.3-.13-18.95.06-3.06.09-6.12,1.22-9.15,1.13-2.77-.09-5.5-1.28-8.28-1.81-5.9-1.12-11.83-2.13-18.25-3.27l2.69-1.57a5,5,0,0,0-.47-1c-7.24,1.4-13-6.25-20.52-3.35-.82.32-2.6.15-2.85-.34-2.27-4.59-7.67-2.37-10.75-5.09-.38-.33-1.3-.23-1.91-.08a18.26,18.26,0,0,1-12.69-1.88c-1.2-.64-3.42.64-4.76.95l-21.54-9c-2.37.14-6.16.28-9.94.6-5.86.51-10.17-1.8-14.63-5.7-3.28-2.87-8.48-3.59-12.88-5.11-1.85-.63-4-.54-5.73-1.32-6.12-2.71-12.22-5.5-18.16-8.57-3.85-2-7.25-4.9-11.19-6.64-2.48-1.09-6-3.54-7.41.34-3.08-2.3-6.21-4.45-9.1-6.88-1-.82-1.36-2.35-2.27-4l-3,4.34c-1-3.72-5.33-5.61-3.35-10.06.21-.46-.75-2-1.44-2.21C8.64,586.94,5.28,577.83,6.34,565.67l3.87.75c.26-2.45-.23-5.43,1-7.3,1.43-2.21,4.32-3.47,7.2-4.52,0-5.36,4-8.44,9.5-11.29l-4.9-2c1-.64,1.87-1.66,2.5-1.53,6.14,1.29,8.09-4.38,11.9-6.93,1.5-1,3.37-1.47,4.74-2.59,2.68-2.18,5.15-4.62,7.63-7,.5-.49.47-1.7,1-2,6.17-3.12,6.19-3.09,7.91-8.52,3.55-1.31,5.91-2.53,8.42-3,4-.8,8.2-1.78,12.23-1.48,5.25.39,9.88-1.29,11.75-6.2.75-2,1.28-5.46.22-6.43-1.51-1.4-4.55-1.32-7-1.44-.64,0-1.36,1.5-2,2.31l5,4.14c-1.45.79-3.2,2.53-4.55,2.26s-3-2.35-3.4-3.93c-1.06-3.88,2.36-10.55,6.22-12,1.22-.47,3.07.83,4.66,1.19,1.29.29,2.62.39,3.93.58-.27-1.48,0-3.4-.91-4.36-3.81-4.24-10.76-2.73-15.5,3.05-1.7,2.07-3.6,4-5.41,6l-1.72-.62c0-2-.41-4.1.09-6,1-3.85-.34-5.31-3.91-5.15l-2.86,9.1-1.44-.31c.2-1.54.41-3.07.77-5.8l-5,3.18L60,478.83c3,.82,4.92.17,4-4.5-.73-3.91-.35-8-.49-12.07-.23-6.27,4.12-13.61,9.64-16,.87-.37,2.31-.74,2.88-.31,3.78,2.87,7.81,1.24,11.8,1,6.65-.36,11.78,2.93,16.53,7.14a8.58,8.58,0,0,0,3.93,2c7.79,1.45,15.13,4.66,23.48,4.24,3.64-.19,7.44,3.68,11.25,5.53a11.36,11.36,0,0,0,4.67,1.24c17.46.12,34.92.23,52.37,0,2.34,0,4.67-1.69,7-2.62a23.47,23.47,0,0,1,2.63-1.17c5-1.34,10.4-1.84,14.83-4.19,2.43-1.29,3.23-5.67,5.38-9.85-8.91,0-16,.57-22.93-.16-7.62-.8-13.63,5-21,4.2-2-.21-4.51-.27-5.59-1.48-.88-1,0-3.56.21-6.65l-2.2-4.14c5.87-.88,11-2.31,16.18-2.34,40-.2,80-.14,120-.13,8.51,0,14.85-4.33,18.54-12.08,7.42-15.61,6.57-31.08-1.48-45.85-2.92-5.35-8.09-9.69-12.85-13.77-14.48-12.46-29.28-24.55-43.92-36.82-6.23-5.22-12.49-10.42-18.52-15.86-3.69-3.33-6.91-7.17-10.44-10.67-5.72-5.66-11.55-11.19-17.24-16.87a28.72,28.72,0,0,1-3-4.25c.49-.47,1-.95,1.45-1.43,2.18,2.06,4.46,4,6.51,6.19,7.58,8,14,17.54,22.87,23.74,11.41,8,20.82,17.95,31.27,26.86,6.95,5.91,14.9,10.65,21.81,16.61,7.91,6.83,16.48,13.51,22.3,22,4.87,7.07,6.69,16.45,9,25.05,2.07,7.85.71,15.71-4.31,23.35h5.7l-1.57,5.78c13-3.28,21.81-11.24,28.57-21.84.71-1.11,1.39-2.62,2.46-3.08,6.18-2.7,7.44-8.91,9.25-14.09,1.51-4.34,5.7-5.11,7.67-8.45.78-1.31,2.81-1.87,4.59-3,.43,1.07.91,2.26,2,4.82.59-2.32.85-3.28,1.06-4.24.29-1.27.12-3.29.86-3.7,5.42-3,5-9.79,9.1-13.71.83-.8.12-3.21.12-5.32l2.46-.91c-.37-4.12-2.3-5.5-6.3-4.53-2.39.58-5,.26-7.46.58-4.5.6-7.94-1-11.23-4.07a10.92,10.92,0,0,0-6.73-2.82,130.79,130.79,0,0,1-45-7.78c-7.13-2.57-13.1-8.21-19.86-12a59,59,0,0,0-14.38-6c-4.79-1.16-13.61-7.64-14.63-12.32-.54-2.49.42-3.78,2.9-2.7a56.45,56.45,0,0,1,6.32,3.75c3.52,2.12,6.9,4.57,10.62,6.25s7.89,1.73,11.37,5.05c3.82,3.65,22,1.8,25.89-1.92,1.77-1.71,2.65-4.35,4.39-7.34-10.9-2.2-19.32-6.92-26.13-14.26l.77-1.31a56.76,56.76,0,0,1,5.41,3.42,36.56,36.56,0,0,0,27.95,8.07,7.82,7.82,0,0,0,4.78-2.18c1.25-1.49,1.6-3.74,2.34-5.66-1.95-.73-3.89-1.47-5.86-2.17-7.42-2.65-14.86-5.27-22.27-8-.32-.11-.42-.8-1.21-2.41a40.73,40.73,0,0,1,5.55,1.94c12.3,6.73,25.62,7.84,39.22,7,2-.13,3.93-2.16,5.62-4.35-11.17-.62-20.56-4.5-29.14-10.83,7.18,2.2,14.24,5.37,21.59,6.31,7.16.91,15.24,2.06,21.91-5.47-11.25-2.46-21.72-4.77-29.75-12.71,11.13,4,21.73,10.6,34,7.53.17-.65.35-1.3.52-2l-16.87-6.35c.14-.42.27-.85.41-1.27,9.27,0,18.66,8.77,29.29-.4l-17.42-4.83.08-1.13a12.31,12.31,0,0,1,2.85-.4c4.78.37,9.55,1,14.33,1.22a5.84,5.84,0,0,0,4.11-1.23c1.61-1.73,2.66-4,3.94-6-2-.88-3.94-2.3-6-2.54-4.12-.47-8.32-.27-12.48-.4-1.56-.05-3.11-.26-4.66-.4l-.16-1.41a10.87,10.87,0,0,1,3.15-.79c6.48.32,13,.42,19.4,1.31,5.66.78,8.91-2.46,11.58-6.17,2.54-3.52,5.38-7.64.83-12-.43-.42,0-1.75,0-2.65,1,.26,2.4.19,2.94.83,2.82,3.41,3,7.31,1.28,11.26-1,2.45-.79,4.18,1.9,5.14,9.87,3.52,19.71,7.17,30.48,6.38,6.71-.49,10.12-3.06,11.94-8.66,1-3.21-.19-3.89-3.2-4.38-11.42-1.86-22.78-4.06-34.15-6.16-.46-.08-.87-.43-1-1.66a16.12,16.12,0,0,1,2.85-.15,11.45,11.45,0,0,1,3.33.82c9.5,4.28,19.24.27,28.85.89a5.59,5.59,0,0,0,3.66-1.14c1.15-1,1.79-2.56,2.65-3.88-1.38-.67-2.7-1.77-4.13-1.93-9.08-1-18.18-1.77-27.26-2.79-1.05-.11-2-1.29-3-2,1.13-.63,2.3-1.86,3.38-1.8,7.47.46,14.92,1.17,22.37,1.83.81.07,1.6.46,2.41.47,6.37,0,9.42,2,11,8.21.73,3,2.17,3.82,4.86,3.64a111.84,111.84,0,0,0,15.52-1.73c-4-7-11.68-5.64-17.46-8.12.18-.68.35-1.36.53-2l15,2.62c-.5-6.36-6.22-8.45-10.28-11.58-6.45-5-13.48-9.17-20.19-13.8-2.5-1.74-4.42-2.73-7.4-.23-1.91,1.6-5.15,1.6-8.24,2.44a45.16,45.16,0,0,1,3.71,4.48c.65,1,1.29,2.6.92,3.52s-2,1.56-3.15,1.57c-4.55,0-9-.51-12.65-3.39.12-.47.23-.94.35-1.41L462,208.6l1.14-1.86c-3-2.63-6.08-5.28-9.14-7.9-.49-.42-1.46-.62-1.58-1.08-1.44-5.79-6.49-4.93-10.61-6.3-4.39-1.46-8.33-4.28-12.5-6.42a45.83,45.83,0,0,0-4.47-1.8l-10.24-3.93.56-1.85,14.31,3.68.45-1.24-7.06-11.18c-1.4,7.07-5,6.39-9,5.62-2.8-.53-5.78-.1-9.23-.1,4-5,8.21-3.85,12.6-1.77l1.09-1.17c-.85-1.74-1.25-4.17-2.64-5.09-3.3-2.17-7.1-3.55-10.63-5.38-6-3.14-11.85-6.71-18-9.52-13.1-6-25.5-12.82-35.05-24-5-5.8-9.84-11.73-15.29-17s-11.44-9.55-17-14.54c-1.77-1.6-2.7-4.11-4.2-6.07-2.59-3.36-4.89-7.14-8.08-9.82Q291,65.95,273.79,52.71C263.73,45,253,38.3,239.86,37.2a16.82,16.82,0,0,1-3-1.13c4.37-2.3,7.72-1.63,11.07-.47A104.16,104.16,0,0,1,282,55c7.68,6.59,15.33,13.23,23.11,19.72,2.91,2.44,6.52,4.15,9.1,6.86s4.45,6.38,6.59,9.64c.45.68.59,1.63,1.15,2.16,12.23,11.62,24.6,23.09,36.74,34.81,9.93,9.6,21.58,16.39,33.8,22.61,14.92,7.6,29.32,16.19,44.12,24,9,4.74,18.23,8.85,27.37,13.23a161.41,161.41,0,0,1,42.07,29.24c7.22,6.94,15.88,9.73,23.94,14.3,4.59,2.6,9.45,4.8,13.72,7.84,3,2.13,5.89,4.25,5.8,9.44-.07,3.64,3.93,7.36,6.14,11,1.33,2.2,2.68,4.38,4,6.56,3,4.86,6.12,9.71,9.16,14.58.7,1.12,1.92,2.31,1.87,3.42-.2,4.38,3.25,6.56,5,9.77,4.26,7.75,13,8.06,19,12.75,4.72,3.68,10.48,6.15,16,8.63,3.42,1.54,7.63,1.48,10.86,3.27,4.88,2.7,10.92,5.43,13.42,9.87,4.46,7.89,12.45,9.27,19,12.6,6.12,3.1,13.82,3,20.73,4.64,10.2,2.47,20,5.92,28.54,12.39a21.14,21.14,0,0,1,2.51,3.07l-10.43,1.12-.33,1.26c12.51,4.18,24.9,8.58,35,19.29l-21.57,5.09-.06,1,11,3.33c.08.43.15.86.23,1.28-3.19,1.45-6.26,3.68-9.59,4.16-5.28.76-10.74.35-16.12.45-.65,0-1.6-.15-1.92.21-3.64,4.15-7.77,1.91-11.54.66-12.46-4.1-24.62-9.29-37.3-12.49-8.43-2.13-17.54-1.59-26.35-2.2-1-.07-2.1.54-2.94.24-8-2.94-16.35-.84-24.51-1.44-8.44-.63-16.92-.76-25.38-1.21-2.42-.13-4.83-.6-7.64-1,.06,1,.14,2.07.21,3.18-.42.22-.85.57-1,.48-5.09-3.66-10.85-.56-16.18-1.64-3.52-.7-7-1.47-10.56-2.16-1.23-.24-2.51-.25-3.74-.53-2-.47-4-1.07-6.55-1.75l-1,3.25c-3.16-1.62-5.22-4.78-9.68-3.17-2.72,1-4.2-3.19-2-5.84.85-1,1.82-1.95,2.69-3,.73-.83,1.39-1.72,2.26-2.8-5.12.07-9.58,6.13-8.12,11.85l-23.67-7.75,5.64-9.69c-3.89-.84-7.3,2.1-10.08,7.45-.9,1.73-3.35,4.05-4.77,3.85-4.87-.7-7.25,2.36-8.64,5.6-1.87,4.39-4.81,3.07-8.07,3.22a190.19,190.19,0,0,0-22.88,2.27c-1.69.28-3.73,3.36-4.13,5.43-.88,4.43-.79,9.05-1,12.61-2,2.4-3.92,4.31-5.44,6.48-3.17,4.52-6.84,8.87-9,13.86-2,4.58-2.29,9.9-3.49,15.59,2.57.17,4.63.44,6.68.44,31,0,62-.16,93,.08,5.46.05,10.89,2,16.38,2.57a151.15,151.15,0,0,0,17.29.62c1.32,0,2.61-1.68,3.45-2.27,5.91,1.28,11.58,2.12,17,3.76,8.69,2.62,17.18,5.91,25.85,8.61,3.84,1.2,8,1.48,11.87,2.45,5.25,1.3,10.12,1.75,15.36-.89,2.33-1.18,6,.34,9,.36,3.23,0,7.38,2.66,8.74-3.21.33-1.46,2.47-2.51,4.07-4,3.21,3.64,6.21,3.87,7.61,1.15a46.68,46.68,0,0,1,5.63-1.13c4.68-.22,9.36-.3,14-.41,2.83-.07,5.77.38,8.46-.26,4.7-1.1,9-1.19,13.09,1.74a48.39,48.39,0,0,0,6.32,3.22l3.47-5c3.18,4.42,7.47,5.19,11.45,1.52,3.06-2.83,5.24-2.83,7.81.92,1.14-2.37,2.08-4.31,3.45-7.14,1,2.8,1.62,4.68,2.25,6.52l7.27-8.71,3.12,3.45c2.35-3.39,4.46-5.23,8.69-2.56,1.88,1.19,5.58-.52,9-1-.54,3.22-1.06,6.28-1.66,9.86l5.82-2.25c.36-2.57-4.8-5.75.91-8.07.46,3.2-.09,7.53,5.24,4.06,1-.64,3.45,1,5.61,1.68L760.62,448c3.87,3.41,3.75,4-.89,5.6-4.08,1.42-8.32,2.57-12.13,4.53-2.48,1.28-4.32,3.8-6.46,5.75a26.35,26.35,0,0,0-3.25,3c-1.35,1.74-2.44,3.68-3.74,5.69.71,1,1.47,2,2.08,2.84l-4.46,5.46c-.65-.55-1.57-1.3-2.49-2.05l-1.3,1,5.08,7.24-6.71,9c.36.62.73,1.23,1.09,1.84l-230.67,3.36,0,1.36h47c-2.09,5.7-.77,9.89.72,14.71,1.84,5.94.6,12.87.53,19.36-.09,8.83-1.09,17.72-.3,26.45s-5.5,11-12.25,9.84l-4.56,9.55L524.62,580c-4.59,1.47-8.71,4-12.71,3.78-5.78-.26-6.23-.74-7.13,5.31a10.1,10.1,0,0,1-.56,1.85c0,.1-.3.12.39-.12-2.37-1.57-4.41-4.05-6.13-3.84-4,.47-8.09,1.61-9.77,6.4-.84,2.41-2.6,4.51-4.37,7.46C475.65,589,467.81,578.4,460,567.72c-2.91-4-2.51-4.57,2.08-5.77,17.83-4.65,35.61-9.52,53.45-14.15,6.89-1.79,13.88-3.19,20.84-4.67,4.49-1,8.44-10.83,5.34-14.15-.89-1-3.07-1-4.65-1-12.49,0-25,.21-37.46.32-1.79,0-3.58,0-6,0,.94-2.76,1.58-4.77,2.31-6.75,2.41-6.58.81-12.89-1.77-18.88-3.52-8.17-4.91-15.92,1.57-23.31.23-.27,0-.92,0-1.42-6.42.89-7.33,4.2-6.2,22.1l-4,1.82c6.2,2.07,9.51,8.55,8,15.29a35,35,0,0,1-3,8.45,5.26,5.26,0,0,1-3.76,2.6c-17.57.11-35.15,0-52.72-.11-.41,0-.82-.46-2-1.2,5.74-4.52,6.28-13.87,16.42-13.51,6.76.24,11.1-4.69,12.83-10.66.72-2.51-1.21-6.38-3-8.9-4.56-6.55-10.81-12-11.7-21.61-2.24,4.64-2,8,.77,12a41.14,41.14,0,0,0,5.77,6.86,12.59,12.59,0,0,1,3.65,13.66c-.68,2.11-3.66,3.72-5.92,5-1.63.91-3.79.87-6.24,1.36.12-2.72.23-5,.34-7.6l9.48-1-.15-1H416.9l0,1.66h22.56l1.25,1.5-10,20.19C426,519,422.51,514.4,418.83,510c-2.33-2.78-5.05-5.25-7.39-8a6.53,6.53,0,0,1-1.51-3.76c-.17-6.16-.08-12.33-.14-18.5,0-1.54-.26-3.07-.4-4.61l-1.71,0v24l-1.83.34C405,490.46,392,487.38,396.08,476ZM588,331.77c-4.13-11.22-11.88-17.68-21.68-22.85.34,4,.53,7.23.9,10.47.45,3.81-.9,5.3-5,5.34-5.79.06-11.57,1.14-17.37,1.35-11.44.42-23.07,1.9-34.31.47-15.38-2-30.49-6.08-45.65-9.56-4.25-1-8.26-3-12.38-4.49l.68-1.83c4.2,1.26,8.33,2.87,12.62,3.7,14.45,2.79,28.91,5.61,43.46,7.81,14.26,2.16,28.63,3.23,43,.25a86,86,0,0,1,9-.94c.13-.51.25-1,.38-1.54l-12.81-6.9c.27-.55.55-1.09.82-1.64l14.45,6.47c-.1-1.43.09-2.5-.28-3.32-4.81-10.54-13.62-17.39-22.58-24-.65-.48-3.06.1-3.34.74a5.2,5.2,0,0,0,.48,3.82c1.73,3.34,4.12,6.39,5.53,9.85s-.07,6.08-4.16,6.74c-5.37.88-10.69,2.12-16.08,2.8-11.66,1.47-23.28,4.13-35.13,1.43-7.73-1.76-15.52-3.26-23.25-5-1.11-.25-2.06-1.2-3.08-1.82,25.31,3.3,50.3,4.9,76.73-1.42l-18.27-7.89.69-1.44L538.11,304c.27-4.62-3.28-8.52-7.26-8.07-4.59.52-9.14,1.55-13.74,1.94-9.56.8-19.15,1.27-28.71,2a53.51,53.51,0,0,0-6.87,1.48c.14-4.76-4.15-2.52-6.9-3.1s-5.72-1.05-8.59-1.56l.39-2.05c2.16.32,4.34,1,6.48.88,4.52-.2,9-1.08,13.52-1.16,11.93-.19,23.87.21,35.78-.27,5.12-.2,10.2-1.84,12.86-7.24,1.39-2.83.51-4.16-2.41-4.3-10.11-.51-20.23-1.38-30.34-1.27-8.43.08-15.7-3.57-23.39-5.81-5.16-1.51-7.36-.76-7.22,4.67.13,4.95-1.53,8.41-6.24,10.15-2.65,1-3.15,2.48-2.67,5.37.94,5.77-3,11.22-8.09,11.8-2.43.27-5.24.26-4.67,3.58s-3.11,8.24,3.63,9.49c10.55,2,21,4.6,31.53,6.44,9.62,1.68,19.35,2.67,29,4,3.93.54,8.08.47,11.74,1.78,14.17,5.06,28.73,5,43.38,3.91,5-.36,10-1.27,15-1.93,0-.44,0-.88,0-1.31l-5.18-3,.54-1.15Zm-224.15-23.9a12.2,12.2,0,0,1,1.73.61c13.34,7,26.57,14.32,40.05,21.08,4.77,2.39,10.14,4.08,15.67-.71-19-4.17-33.73-15.29-47.84-27.62a3.73,3.73,0,0,1,2.65.37c13.19,9.91,28.92,14.77,43.55,21.82,4.34,2.09,9.32,2.69,14-.83-19.71-5-34.67-17.24-49.45-31.4-2.17,8-8,7.59-13.77,7.21-.33,0-.67,0-1,0-3.63-.47-5.71.74-7,4.56-1.78,5.39-5.47,9.19-11.81,8.76-2.74-.18-3.7,1-4.33,3.55a11.86,11.86,0,0,1-9.85,9.4c-3.46.68-6.94,1.29-10.51,1.95,6.08,6.43,47.65,18.35,53.69,15.27l-15.82-9.53.76-1.23c7.61,2,13.74,8.82,22.73,6.78l-33.32-19.26,1.08-2.19c5.15,2.05,11,3.18,15.31,6.35,7.56,5.53,14.91,11.06,24.14,13.45,5.27,1.37,10.53,4,16.27-.42C392,331.73,376.49,322.13,363.88,307.87Zm68.51,20.48c2.86,4.18,5,7.41,7.28,10.59.73,1,1.49,2.52,2.52,2.81,5.72,1.63,11.46,3.55,17.32,4.26,15.64,1.9,31.35,3.25,47,4.81,9.73,1,19.47,1.83,29.2,2.89s19.72,3,29.62,3.34c16.47.57,33,0,49.45.26,15.16.22,30.1-.63,44.33-6.4-2.57-6.6-32.59-19.9-42.3-18.18.7,1.55,1.29,3,2,4.46,3.39,6.64,2.75,7.88-4.55,8.75-.82.09-1.63.35-2.45.43-12,1.15-24.08,3-36.15,3.23-13.43.26-26.9-.94-40.35-1.47-3.16-.13-6.37.21-9.47-.26-18-2.73-36-5.67-54.06-8.45-3.43-.52-7.09-.05-10.37-1-5.18-1.52-10.09-4-15.2-5.8C441.89,331.06,437.38,329.87,432.39,328.35Zm155.42-6.25c1.85,3.79,3.37,6.54,4.56,9.43,1.67,4,.65,5.58-3.61,5.94a44.19,44.19,0,0,0-6.45.55c-13.63,3.23-27.34,3.33-41.13,1.39-4.26-.6-8.53-1.23-12.8-1.81-15.93-2.16-32-3.71-47.75-6.66-10.68-2-21-5.93-31.48-9.07-3.8-1.14-10.74,1.09-13.24,4.91,7.09,2.18,13.89,4.88,20.95,6.31,12.62,2.55,25.4,4.35,38.12,6.43,4.41.72,8.85,1.29,13.26,2,11.25,1.78,22.25,6.06,33.94,3.29a9.86,9.86,0,0,1,2.49,0c16.08.38,32.16,1.08,48.24,1,6.57,0,13.16-1.58,19.68-2.79,4-.75,4.61-2.7,1.93-6C607.85,328.89,599.14,324.26,587.81,322.1Zm78.34,30.1c-4.31,1.23-7.83,2.5-11.47,3.21-7.78,1.52-15.57,3.28-23.45,3.94-8.6.73-17.36-.29-26,.55-19.78,1.92-39.42.45-59-1.57-8.24-.84-16.38-2.85-24.63-3.62-13.37-1.25-26.81-1.81-40.21-2.88-5.78-.46-11.52-1.44-17.27-2.24-6.2-.86-12.4-1.79-18.14-2.62l-18,26.67c1.47.52,2.39.45,2.76,0,4.54-5.95,10.08-11.46,13.12-18.1,2.38-5.21,5.38-5.12,9.28-4.48,11.12,1.84,22.15,4.17,33.29,5.85,13.76,2.08,27.65,3.29,41.36,5.62,21.51,3.66,43.13,2,64.7,2.13,10.46.08,21-1.7,31.39-1.15a137.35,137.35,0,0,0,39.43-3.58c1.93-.46,4.14.06,6.18.38s4,1.31,6.07,1.38a39.47,39.47,0,0,0,6.87-.86l14.27-2.05c-10.9-6.81-21.88-9.58-34-12.45ZM345.28,438.07a6.79,6.79,0,0,0,1.59.45c13.64,0,27.28,0,40.92.1,3.51,0,4.59-2.42,4.27-4.83-.72-5.42,2.79-11.48-2.26-16.31-.24-.23.19-1.2.34-1.81,1.65-6.59-2.15-14.84-8.41-18.16-.67,1.5-1.05,3.21-2,4.44-5,6.11-9.81,12.38-15.27,18-4.1,4.23-8.68,8.33-13.8,11.11C347.49,432.8,345.33,434,345.28,438.07Zm54-156.48a10.94,10.94,0,0,0,2.32,2.38c6.23,3.36,12.36,7,18.85,9.77,7.92,3.4,16.09,6.28,24.31,8.91,2.74.87,6,.63,8.92.3,4.56-.51,5.82-4.19,5.94-8,.13-4.08-3.3-3.25-5.84-3.52a18.28,18.28,0,0,1-4.87-.94c-10.89-4.43-21.84-8.73-32.55-13.57C405.81,272.17,407.14,273.79,399.27,281.59Zm60.14-9.65c8,0,12.19-3,13.56-8.53,1-4.11-.35-5.72-4.55-6.15a78.43,78.43,0,0,1-13.69-2.18,54.6,54.6,0,0,1-12.67-5.49c-6.12-3.64-10.87-1.4-15.67,2.39-3.1,2.45-4,8.13-1.39,9.61C436.22,267.89,448.75,269.63,459.41,271.94ZM386.65,291c5.15,4.11,9.77,8.39,15,11.78,3.62,2.35,8.3,3,12.05,5.24,8.27,4.86,16.87,8.61,26.46,9.68,3.12.35,5.64-.65,6-4.36.29-3.5-.26-5.58-4.73-6.38a60.59,60.59,0,0,1-17.78-5.94c-7.87-4.24-15-9.76-22.59-14.59a5.09,5.09,0,0,0-3.94-.76C393.76,287.08,390.66,288.94,386.65,291Zm69.81-3.2c2.92-1.1,6-1.83,8.56-3.4,1.47-.9,2.12-3.16,3.14-4.8-1.56-.87-3-2.09-4.69-2.56-5.84-1.65-11.9-2.62-17.6-4.62-7.8-2.74-15.33-6.24-23-9.28-3.59-1.41-6.48,1.1-9,7-1.74,4.1,1.76,4.06,3.73,4.76,9.32,3.31,18.72,6.4,28.11,9.53C449.11,285.58,452.56,286.61,456.46,287.84Zm21.09-32.67,1.31,2.66c7.21,2.24,14.31,5,21.67,6.53,6,1.22,12.34.87,18.53,1.19a22.07,22.07,0,0,0,4,0c.92-.13,2.21-.49,2.57-1.16,2.18-4.06.71-7.65-1.75-11.09-2.17-3-4.38-4.37-8.42-2.77a21.87,21.87,0,0,1-10.11,1.13c-5.72-.63-11.35-2.12-17-3.12a4,4,0,0,0-2.71.66C482.84,251.12,480.22,253.17,477.55,255.17ZM532,264.6l-1.54.11c-.49,6.08-4.06,6.72-8.77,5.62a19.66,19.66,0,0,0-5.45-.52c-9.91.5-19-2.63-27.89-6.36-3.16-1.32-6.37-2.51-9.55-3.75-3.72,9.85-1.21,14.49,8.18,15.73,2.63.35,5.33.13,8,.32,2.47.18,4.91.66,7.38.82,9.45.61,18.9,1.35,28.36,1.59,2.83.07,6-1.46,5-5.26C534.94,270,533.23,267.36,532,264.6Zm-146.5,79.26c1.35.51,2,.85,2.75,1,14.59,3.62,29,1.51,43.37-1.42,4.67-1,3.91-3.12,2.17-5.9-3.62-5.75-14.06-6.41-18.76-.27s-10.33,6.48-16.21,3.67C393.39,338.4,390,340.88,385.46,343.86ZM516.78,243.65c-2.11-5.85-5.32-8.35-9-8-5.56.56-11.18.44-16.76.86-1.77.14-5,1.19-5,1.59.27,3.09-.8,7.71,3.43,8.35C498.62,247.87,508.07,250.57,516.78,243.65ZM181,548.32l-.07,1.15a8.47,8.47,0,0,0,2.38,1.09c5.08.61,10.25.77,15.24,1.79,2.09.42,4.13,2.33,5.53,4.09.37.45-1.49,3.27-2.84,4.37-2.82,2.28-6,4.15-9,6.19-4.14,2.82-4.45,4.83-.74,8.26,2.17,2,4.85,3.45,7.25,5.21,5,3.7,10.65,6.84,14.85,11.32,3.82,4.06,8.2,4.84,13.07,5.78-.29-1.51-.73-2.87-1.66-3.54-3.39-2.46-6.29-5.11-10.62-6.88-8-3.28-14.69-9.88-21.89-15.15-.26-.19-.13-.92-.16-1.29,4-2.83,8.17-5.28,11.65-8.49,1.7-1.56,3.27-4.86,2.75-6.8a9,9,0,0,0-5.59-5.37c-5.28-1.31-10.83-1.54-16.28-2.09A20.61,20.61,0,0,0,181,548.32Zm116.23-62.4c0,5.79-.11,11.1.08,16.4,0,1.16,1.14,2.29,1.75,3.43.69-1.23,1.86-2.42,2-3.7.29-3.3.07-6.64.14-10,.07-3,2.38-3.6,4.06-2.23,6.67,5.44,12.49-.2,18.63-1.08.79-.11,2.07-1.78,1.9-2.38a3.92,3.92,0,0,0-2.43-2.48c-4.52-.89-9.1-1.54-13.69-2-.94-.1-2.63.62-2.87,1.34-1,2.81-2.73,2.76-5.12,2.29C300.32,485.26,298.84,485.75,297.22,485.92Zm4.84,97.53c-3.08-5.84.88-12.9-3.69-18a118.84,118.84,0,0,0-.92,19.7,2.37,2.37,0,0,0,1.43,1.76c5.15,1,10,4.36,15.65,1.45,1.83-1,4.15-.94,6.17-1.6,1-.32,2.5-1.21,2.48-1.79,0-1.1-.82-2.89-1.65-3.12a93.19,93.19,0,0,0-14.95-3.25C305.38,578.43,303.86,581.42,302.06,583.45ZM404,373.24c.64,5.1,7.82,7.86,17,8.11,2.22-3.9,4-7.46,6.19-10.76,3.55-5.41,7.35-10.67,11-16l-1.38-1.07c-7.65,7-11.2,17.79-20.48,23.32L432,355.57l-1.76-1.41-17.49,22.46ZM323,511.87c4-1.69,6.27,1.64,8.89,4,.67.59,1.57,1.54,2.19,1.42a3,3,0,0,0,1.69-2c.65-3.39,1.2-6.81,1.51-10.24.08-.91-.82-1.9-1.26-2.86a10.84,10.84,0,0,0-2.73,1.69c-1.56,1.78-2.9,3.76-4.33,5.65-2-3.34-3.26-5.52-5-6.06-1.46-.46-3.52,1-5.31,1.6l.36,1.38,3.27,1c-1.95,2.05-4.17,4-5.75,6.31-.44.66,1,3.74,1.59,3.75,2.47,0,5-.66,7.44-1.09ZM276.47,659c-1-3.74-.66-7.61-4.77-7.46-2.23.08-4.61,2.73-6.43,4.68-1,1.07-1.24,3.08-1.32,4.69s0,4.37.82,4.7c2.09.85,5.33,1.65,6.78.61C273.77,664.59,274.89,661.44,276.47,659Zm61.31-81.1c-7.3-3.31-10.24-.77-11.42,8.93,1.74-.51,3.19-.86,4.59-1.37,3.11-1.14,4.11.48,3.79,3.13-.38,3.16-2.54,4-5.46,3.35-1.58-.34-3.18-.58-5.81-1,2.39,4.42,5.62,5.43,8.48,4.63a10.25,10.25,0,0,0,6.05-5.09c2.06-4.91-1-8.25-6-10.27Zm-3-94.67a14.41,14.41,0,0,0,3.21-.58c1.29-.67,2.48-1.53,3.7-2.32-1.33-.7-2.63-1.92-4-2-4.48-.28-7.22,4.81-6.18,9.34,2.91,1,7.19,1.73,7.18,2.48,0,7-6.05,3-9.56,5.2,1.71,1.43,3.62,2.74,5.57,2.82,4,.14,6.48-2.55,7.48-6.15C343.66,486.73,339.09,485.49,334.79,483.19Zm-44.54,122.9,3-2.38c-1.85-.57-4.55-2.19-5.4-1.51-2.35,1.88-4.76,4.5-5.51,7.27-.46,1.67,1.77,5.46,3.46,5.94s5.09-1.42,6.17-3.22C292.76,610.92,290.9,608.08,290.25,606.09ZM173.74,545.31c-.07-3.4-2.33-5.4-5.89-5.22s-6.78,4.74-6.8,9.16c0,3.46,1.58,5.31,5,5.43C170.24,554.82,173.83,550.37,173.74,545.31Zm249-151.66L420.34,392l-25,30.94,1.89,1.51C404.79,413.42,414.86,404.43,422.73,393.65ZM341.17,517.36c3.23-4.46,6.29-4.31,9.94-.48A48.36,48.36,0,0,0,350,505.29a3.16,3.16,0,0,0-2.62-1.52C344.68,504.11,340,513.56,341.17,517.36Zm110.54-52.73c5.58-.57,3-5.14,3.19-8a5.05,5.05,0,0,0-2.61-4.05c-1.32-.47-4.15.27-4.7,1.33-1.46,2.78-2.11,6-2.88,9.11-.09.33,1.05,1.29,1.71,1.38s1.38-.53,1.81-1.06a19,19,0,0,0,1.61-2.77C450.36,461.71,450.89,462.84,451.71,464.63Zm-3.53-274.5,1-1.22c-3.95-4.65-8.1-9.06-14.7-10.3l-2,7.32ZM121.09,485.05c-.36-.65-1-1.72-1.55-2.78-1,.86-2.65,1.56-2.92,2.61-1.59,6.4-2.93,12.87-4.18,19.35-.14.7.77,1.61,1.2,2.42.74-.4,2-.66,2.14-1.22C117.59,498.88,119.23,492.29,121.09,485.05ZM305.58,615.58l1.83-1.18c-.56-3.68-1-7.39-1.79-11-.11-.5-2-1.14-2.81-.89-2.17.68-6.47,9.27-6.16,12.06C299.64,613.82,302.84,609,305.58,615.58ZM454,187.12c-1.42,8,2.09,10.24,12.31,8.08C463.75,190,458.6,189.4,454,187.12Zm246.42,197c-4-7-6.28-15.21-14-19.45C691,371.23,692.34,380.05,700.42,384.13ZM425.93,349.48c-6.24-.81-4.24,7.87-9.65,6.51.8-1.67,1.53-3.22,2.7-5.66l-9.23,1.42c3.13,3.44,5.23,5.76,7.82,8.62Zm.49,5.81L424.59,354c-2.87,7.47-12.54,10-12.32,19.74Q419.35,364.51,426.42,355.29Zm82.46,115.92c8.84,1.63,10.63,1.08,11.15-3.44C512,466.13,509.31,466.94,508.88,471.21ZM447.33,358.85l-1.68-1.22-10.86,14.44,2,1.51C441.06,369.28,443.87,363.81,447.33,358.85Zm243.23,23.39,1.91-1.32-10-16.91-1.9,1.12ZM282.11,601.69c-5.22,2-7.58,9.59-3.67,14.27C279.62,611.39,280.79,606.82,282.11,601.69ZM505.2,456.9l-8.2,8C506,466.53,506.85,465.76,505.2,456.9Zm-52.4-96.51-2-1.41L440.4,373.7l2,1.4Zm63,102c1.3.78,2.34,1.74,3.51,1.95.47.09,1.23-1.5,1.85-2.33-2.27-1-4.53-2.64-6.82-2.68-2.65-.05-4.91,1.65-4,5.88ZM154.29,553.62l2.66.73c1.23-3.91,2.49-7.81,3.62-11.75.08-.28-.89-1.25-1.26-1.19-.72.12-1.79.6-2,1.17C156.21,546.23,155.28,549.93,154.29,553.62ZM456.11,374.1l6.66-12.61-1.11-.71-8.86,12.09Zm227.4,5.13c-.81-7.45-4.84-13.47-8.5-13.91C678,370.24,680.77,374.73,683.51,379.23ZM263.16,507.48l2.84-2.39a46.06,46.06,0,0,0-2.95-6.6c-.17-.26-2.73.94-2.91,1C261.23,502.38,262.19,504.93,263.16,507.48ZM711.6,374.59c3.41,9.51,3.74,9.69,10,6.18l-3.25-3.71-1.67,3.73Zm-7.38,10.89c2.25-2.24-1.93-10.63-7.6-14.39Zm8.71-2.4-9.33-11.4C704.1,377.75,707.92,382.16,712.93,383.08ZM447,372.46c3.95-.33,8.79-6.07,9.24-11.78C453.33,364.39,450.42,368.1,447,372.46Zm38.55,90.74a42.42,42.42,0,0,0,4.84,1.48,14.58,14.58,0,0,0,3.28-.16c-.29-1.28-.17-3.21-1-3.71C489.82,459,487.25,459.48,485.54,463.2ZM483.84,370c4.86.14,6.38-2.53,8-6.22C486.85,362.63,485.55,365.62,483.84,370Zm53.42-.66-.68-1.27c-1.65.56-3.68.72-4.86,1.8s-1.66,3.15-2.44,4.78a23.84,23.84,0,0,0,4.86-1.86C535.4,372,536.23,370.49,537.26,369.32Zm-145,94.74c5.51,1.42,8.41-.42,9.5-5.64Zm84.93-103-1.52-1.51-6.92,7c.46.47.92.93,1.37,1.4C474,367.29,475.22,363.8,477.18,361.07Zm132.91,16.07c.34.91.69,1.82,1,2.73l6.24-2.49c-.5-.88-1.23-2.56-1.46-2.49A57.26,57.26,0,0,0,610.09,377.14Zm-199,36.69-1.65-1.29-5.93,8.17,2,1.37ZM667.2,365.29l-1.65,1.33,7.18,9.48,1.53-1.2Zm-225.84,88-2.43-.51q-1.11,4.94-2.21,9.88l2.25.46ZM504.74,367l-1.51-1.52-6.62,6.85,1.49,1.5Zm41.42,10.47.3.43,7.22-6.59-2-2.07Zm119.25-3.95,1.47-1.44L661,365l-1.73,1.58ZM469.33,361.9l-1.45-1.22-6.44,7.74,1.77,1.48Z"/><path d="M668.27,814.87c2.81-4.22,5.39-8.08,8.3-12.42-2.2-.57-3.73-1.09-5.3-1.35-8.08-1.34-16.26-2.24-24.25-4-9.37-2.05-18.48-5.36-27.89-7.1-6.55-1.21-13.23-1.59-20.07.92-17.58,6.45-35.48,12-53.19,18.13-10.18,3.52-20.13,7.68-30.36,11-4,1.31-8.68,2.19-12.75,1.51a180.82,180.82,0,0,1-27.52-6.52c-9.14-3.05-17.68-2.51-26.51.61-3.12,1.1-6.59,1.21-9.41,1.69-1.83,1.71-3.35,4-5.48,5-7.72,3.48-15.82,6.12-23.43,9.79-11.08,5.34-19.36-3-28.86-5.26a62.52,62.52,0,0,1-11.43-4.39c-1.07-.48-1.67-2-1.79-2.15-4.56-1.36-8.35-3.24-12.25-3.5-7.68-.5-15.81-5.07-23,1.66-14.74,2.94-28.3,12.82-44.67,6.27-10.45-4.17-21.45-7.06-32.35-10C240.6,810.6,225,806.92,209.46,803c-2.25-.57-4.77-.84-6.63-2.07-4.71-3.13-9.55-2-14.24-.76-9.6,2.54-19.35,4.85-28.54,8.51a68.07,68.07,0,0,1-26.2,4.86,36.85,36.85,0,0,0-4.43.6l9.08,12.4c-6.72,2.48-13.45,5.09-20.26,7.44-7.07,2.43-14.29,4.44-21.31,7-3.66,1.32-6.46,1-9.68-1.33-2.2-1.62-5.31-2.09-8.08-2.81-5.06-1.32-10.14-2.64-15.28-3.61-6.5-1.23-13.09-2-19.62-3.15-8.18-1.41-16.35-2.93-24.51-4.47a25.32,25.32,0,0,1-4-1.68c7.33-2.9,13.66-5.52,20.06-7.94,23.18-8.75,46.33-17.59,69.61-26.09,15.73-5.76,31.77-10.68,47.46-16.55,21.94-8.21,43.63-17.07,65.51-25.44,12.11-4.63,24.48-8.59,36.58-13.25,17.66-6.79,35.2-13.91,52.77-20.93,23.39-9.35,46.74-18.8,70.17-28.06,6.3-2.49,12.69-5.63,19.27-6.33a58,58,0,0,1,22.31,1.75c15.52,4.7,30.66,10.7,45.89,16.37,10.26,3.83,20.33,8.19,30.61,12,11.21,4.13,22.54,8,33.87,11.76,19,6.38,38.15,12.52,57.16,19,10.38,3.52,20.57,7.58,30.92,11.21,19.49,6.85,39,13.77,58.59,20.23,10.37,3.41,21.18,5.47,31.55,8.9,23.65,7.81,47.15,16.09,70.72,24.17,1.83.62,3.7,1.15,7,2.16-4.8,1.44-8.24,2.61-11.75,3.49-8.72,2.17-17.41,4.49-26.23,6.13-2.87.53-6.09-.85-9-1.34.11.48.44,1.79.9,3.63-4.42,1.07-8.56,2.82-12.73,2.89a14.52,14.52,0,0,0-10.53,4.47,6.12,6.12,0,0,1-4.88,1.28c-10.32-2.56-20.59-5.33-30.82-8.21C676.58,818,672.52,816.33,668.27,814.87Z"/><path d="M722.41,502.76,701,515.05l-1-2.72c-2.3,7.36-8.73,5.17-14.33,6l2.57,3.43c-5.68,3.26-5.68,3.26-8-.38-4.94,3.75-13.26,2.12-16,10.31-.35-1.07-.7-2.13-1.17-3.54L642.31,540.2c-.46-1.76-.77-2.9-.85-3.22-2.29,1.14-4.34,2.55-6.61,3.2-4.4,1.26-9.12,1.58-13.34,3.23-6.14,2.39-12,5.62-18.21,8.65L601,547.59l-9.74,7.85,1.33.39c-2.12,0-4.73-.8-6.28.14-6.65,4.08-13.74,4.07-21.07,3.47-4.6-.37-8.67.51-10.76,5.48-1,2.38-3,2.45-3.91.06a24.86,24.86,0,0,1-2-8.58c-.2-14.79-.12-29.59-.08-44.39,0-3-.92-7.25.61-8.54,1.94-1.64,5.94-1.07,9.05-1.06q54.31.09,108.62.32c10.65,0,21.31,0,32,0Z"/><path d="M307.59,651.27c12.87-19,25.44-37.49,39-57.5,1.62,5.06,2.48,9.18,4.22,12.88a28.63,28.63,0,0,1,1.8,19.73c-.23.94,1.38,2.31,2.13,3.49.77-1.07,2.22-2.14,2.2-3.2-.1-8.78-.6-17.57-.69-26.35,0-2.25,1.13-4.49,1.49-6.77.3-1.85-.53-4.61.46-5.48,4.86-4.3,3.31-9.82,4-15.07.4-3,2.87-5.88,4.73-8.59,10-14.5,20.11-28.89,30-43.43,2.44-3.58,5.87-6.82,5.18-12-.14-1.09,1.8-2.45,3.61-4.72.82,6.82,1.48,12.29,2.13,17.76l1.58-.11V505.55l1.57-.5c21.63,39.82,50.25,75,74.84,114.23l-3.35-1.95c-6,4.08-11.43,7.92-17.07,11.41-1,.6-2.88-.28-4.36-.47v-1.49l3.21-1.33a4,4,0,0,0-.46-.91c-.88-.95-2.46-1.79-2.59-2.83-.61-4.59-.66-9.25-1.22-13.85-.17-1.35-1.33-2.57-2-3.85a18.62,18.62,0,0,0-1.21,3.92c-.4,4.93.21,10.13-1.18,14.74-1.08,3.6-4.56,6.48-7,9.68-1.19,1.59-2.37,3.2-3.45,4.66-.43-1.93-1.38-4.4-5.29-1.82,0-3.59,0-6.22,0-8.85-.33-17.14-1.71-34.34-.64-51.38a38.68,38.68,0,0,0-7.35-26.11c-14.82-20.54-35.76-19.3-49.93,1.65-7.3,10.79-7,22.94-7.27,35q-.64,25.66-1.09,51.35c-.12,6.23,0,12.46,0,19.82-7-7.06-12.1-1.58-17.39,1.72-3.55,2.22-6.61,3.52-10.3.2-1.67-1.5-4.14-2.06-6.15-3.23-2.81-1.63-5.2-1.17-7.9.52a5.17,5.17,0,0,1-4.72,0c-5.07-3.83-10.44-5.65-16.77-4.14C309.83,651.93,309.15,651.58,307.59,651.27Z"/><path d="M411.29,661.36c-.19-1.66.07-3.57-.68-4.91-1-1.85-2.86-3.27-4.34-4.87-.84,1.75-2.1,3.42-2.43,5.26-.73,4.16.07,9-5.15,10.84-2.58.89-5.46.93-8.61,1.42.12.89.4,2.94.67,5l-1.56.48c-1.21-5.42-.09-12.08-7.67-14.58,6.45.4,6.56-3.1,6.4-7.27-.38-10-.43-19.94-.78-29.9,0-1.19-1.15-2.34-1.77-3.5-.62,1-1.73,2-1.8,3-.39,5.95-.52,11.91-.77,17.87-.07,1.67-.25,3.34-.38,5l-1.4-.11V621c0-14.91-.1-29.82.12-44.73a9.48,9.48,0,0,1,2.63-5.83c4.48-4.62,9.28-9,14.05-13.29,5.43-4.94,13.83-6.69,20.66,2.29a31.27,31.27,0,0,0,3.92,3.79c3.27,3,4.34,6.39,4.05,11.06-.67,10.71-.28,21.48-.53,32.22q-.39,16.88-1.24,33.75c-.05,1-1.52,2-2.33,3l-1.38-.69c0-4.29.17-8.6-.09-12.87-.1-1.68-1.19-3.3-1.83-4.94-.6,1.52-1.55,3-1.73,4.56-.58,4.94-.53,10-1.41,14.83-.42,2.31-2.48,4.3-3.65,6.52a4.19,4.19,0,0,0-.17,2.27c.35,2.72.8,5.43,1.2,8.15Zm-2-104.46-2.07-.18a53.37,53.37,0,0,0-.81,5.73c-.06,1.61.46,3.23.44,4.85-.16,16.21-.42,32.42-.49,48.62,0,.93,1.31,1.85,2,2.78.55-1,1.55-2,1.57-3,.12-4.76-.08-9.53-.09-14.29,0-13.13,0-26.26-.05-39.38A48.92,48.92,0,0,0,409.26,556.9Zm11.67,7.51-1.71-.64c-.65,1.05-1.83,2.08-1.86,3.15-.18,6.3-.15,12.61,0,18.91,0,.8,1.17,1.58,1.8,2.37.59-.83,1.68-1.65,1.69-2.49C421,578.61,420.93,571.51,420.93,564.41Zm-13.47,58.88c-2.56,3.65-3.71,20-2.22,22,.54.75,2.17,1.53,2.77,1.23a3.88,3.88,0,0,0,2-2.84c-.24-4.75-.78-9.5-1.3-14.24C408.49,627.83,408.05,626.22,407.46,623.29ZM386,593.56c-5.9,3.14-1.73,6.82-2.23,9.84-.12.71,1.4,1.7,2.17,2.55l1.47-.69C387,601.63,386.56,598,386,593.56Zm33.25,21.71,1.23-.59v-8.4l-1.75-.4c-.49,1.85-1.36,3.71-1.35,5.56C417.4,612.72,418.61,614,419.27,615.27Z"/><path d="M224,274.21c-4.23-3.61-10-6.73-13.16-11.58a392.88,392.88,0,0,1-23.38-41.07c-3.67-7.6-5.31-16.46-6.38-24.94-1.75-13.8-2.7-27.74-3.16-41.65-.32-9.76.46-19.59,1.3-29.33.53-6.26-.66-11.82-4.52-18.2-4.53,2.68-8.91,5.47-13.48,7.89a98.43,98.43,0,0,1-9.23,3.83c-1.18-3.14-3.6-6.42-3.26-9.38.59-5.11,2.77-10.08,4.54-15,1.14-3.19,3.11-6.12,4.08-9.35,2.83-9.4,5-19,8.06-28.33s9.2-15.33,19.17-19.07c15.26-5.73,30.65-6,46.36-5.49a23.13,23.13,0,0,1,4.81,1.18l-.11,1.61c-2.16.19-4.31.45-6.47.56-10.35.5-20.85,0-31,1.67-14.11,2.28-25,9.41-29,24.51-1.15,4.39-3.69,8.41-5.77,13L180.5,81,181,83c-2.29,1.36-4.44,3-6.88,4-4.52,1.82-9.58,2.58-13.71,5-5.57,3.24-6.8,9.54-8,15.41a12.08,12.08,0,0,0,.73,6.22c5.42-7.94,10.68-15.65,21.13-16.36l1.43,1.43-5.45,1.88c3.74,1.27,6,2.25,8.34,2.77,1.48.32,3.71.56,4.49-.24s.44-3,.05-4.48a45.85,45.85,0,0,0-2.49-6c5.22.59,7.1,3.39,6.58,10.1-.43,5.65-1.93,11.23-2.28,16.89-.72,11.61-.91,23.25-1.45,34.87-.18,3.8-1.4,7.62-1.12,11.35,1.06,14,1.43,28.24,4.24,41.94,2,9.85,7,19.22,11.58,28.36,4.13,8.28,9.41,16,14.3,23.88a6.91,6.91,0,0,0,3.16,2.86C219.58,264.31,224,270.46,224,274.21Zm-47-190.28c-4.12-2.57-8-5.81-12.71-3-1.57,1-2.3,3.31-3.42,5l1.13,1.37Z"/><path d="M383,674l-54.22,1.11c1.07,6.42,4.8,5.81,8.18,5.64,7.52-.38,15-1,22.55-1.18,2.2-.06,4.43,1.07,7.58,1.9,0,0-.17,2.09-.4,2.09-2.42.07-4.85-.19-8-.42l3.05,3.43-.47.76-7.51-4.4c.11.47.23.95.34,1.43-1.61.91-3.16,1.94-4.83,2.72-2.19,1-4.46,1.88-7,2.92l-1.78-1.92c-3.15-3.42-4.48-3.21-7.25.54-1.17,1.58-3,2.64-4.57,3.94l-1.91-1.09c.5-2.57,1.41-5.14,1.37-7.7,0-2-1.6-4-1.78-6-.3-3.23-1.78-7.06,3.24-8.64.84-.26,1.28-2.76,1.37-4.26.27-4.49,4.07-6.75,7.9-4.53a7.58,7.58,0,0,1,.8.6c6.72,5.18,13.3,7.5,20.51.45,3.36-3.28,7.45-3.55,11.49-.15a28.65,28.65,0,0,0,6.95,3.79C382.49,666.73,384.43,669.29,383,674Z"/><path d="M340.76,548.92c-.21,1.63-.41,3.25-.61,4.88l-1.13.13a15.89,15.89,0,0,1-.7-3.78c.23-3.95.56-7.9,1.15-11.81.15-1,1.4-2.47,2.2-2.5,11.67-.51,23.35-.84,35-1.11.7,0,1.42.71,2.64,1.37-5.44,7.68-10.73,15.17-16.07,22.61a3,3,0,0,1-1.68.93C354.6,561.29,344.23,555.68,340.76,548.92Z"/><path d="M436.69,534.46c11.27,0,21.16,0,31,0a2.15,2.15,0,0,1,1.69.81c1.45,3.57,3.17,7.11,4,10.84.58,2.69.79,4.43,4.46,2.17l.5,1.13c-.78,1.5-1.23,4-2.37,4.34-6.29,2-12.73,3.66-19.17,5.15a4.51,4.51,0,0,1-3.81-1.29C447.75,550.45,442.72,543.09,436.69,534.46Z"/><path d="M282.77,542.14c3.62-6.2,8.82-6.55,14.52-6.52,7.43,0,14.86-.74,22.3-.94a121.81,121.81,0,0,1,14.17.38c1.09.1,2.6,1.85,2.89,3.08.48,2.05.13,4.29.13,7.75-.45-3.36-.73-5.43-1-7.49l-2-.06q-.31,7.14-.65,14.29l-1,.19-2.32-3.94c-1,4.14-3.16,4.29-6.4,3.52-12.59-3-25.27-5.63-37.9-8.49C284.57,543.69,283.72,542.76,282.77,542.14Z"/><path d="M529,536.32c-4.45,2.41-8.68,5.47-13.41,7.08-9.11,3.1-18.48,5.4-27.77,8-1.87.52-3.82.72-5.91,1.1-1-3.38-1.46-5.7,1.51-8.31,2.06-1.81,2.44-5.41,4-8,.71-1.2,2.34-2.61,3.57-2.63,12.37-.2,24.75-.12,37.12-.12C528.34,534.39,528.64,535.36,529,536.32Z"/><path d="M324.23,661.29c-9.85,1.5-7.68,8.94-8.08,14.53l-22.93-1.65c3.41-5.28,6.41-10.73,10.2-15.55S319.55,655.29,324.23,661.29Z"/><path d="M487.22,605.16c2.19-3.45,3.91-6.39,5.88-9.15,1-1.47,2.36-3.11,3.93-3.71.83-.32,2.79,1.16,3.65,2.29,3.38,4.4,6.62,4.69,9.08.55l1.2.33c-.41,1.34-.39,3.26-1.29,3.92a132.91,132.91,0,0,1-12.6,8.3C491.42,610.93,489.8,610.22,487.22,605.16Z"/><path d="M197.76,74.68c-2.58-.49-5.2-.86-7.73-1.55a2.89,2.89,0,0,1-1.65-2c-.46-3.79,4.05-10.63,7.39-11.49,4.33-1.11,10,1.57,12.1,5.82.32.65.54,1.92.19,2.23-3.06,2.79-6.26,5.42-9.42,8.1Zm3.69-4.85c2.19-1.31,3.41-3.47,1.17-5.69-1.73-1.73-4.4-3-6.82-.72Z"/><path d="M431.07,566.17c-1.6-1.49-2.55-2.4-3.52-3.29-7.32-6.74-7.32-6.74-.54-15.19,4.15,3.9,5.95,9,7.37,14.08C434.66,562.81,432.33,564.58,431.07,566.17Z"/><path d="M271.6,308.88c-.18-3.13-.26-4.69-.35-6.24l1.67-.54c1.18,3.13,2.35,6.26,4,10.55-2.84-.42-4.32-.38-5.59-.88-2.53-1-4.63-2.44-7.5.05-.85.74-4.59-1-6.34-2.41-2-1.6-3.38-4-4.68-6.31-.46-.81.12-2.21.22-3.34a11.32,11.32,0,0,1,2.83,2c1.87,2.47,3.51,5.11,5.24,7.68l1.43-.65c.41-1.8.82-3.59,1.36-5.93Z"/><path d="M405.08,536.32c.61,5.26,3,10.39-4,11-.25,0-.47.44-.71.66l-3.87,3.78c-1.64-2-3.4-4-4.85-6.13a2.64,2.64,0,0,1,.57-2.56C396.44,540.67,400.78,538.53,405.08,536.32Z"/><path d="M387.91,546.33c6.35,8.21,6.35,8.21.25,14.34-.82.82-1.52,2-2.51,2.36a4.78,4.78,0,0,1-3.59-.07,3.11,3.11,0,0,1-1-2.9C383.06,555.63,385.37,551.33,387.91,546.33Z"/><path d="M407.52,549.36c3.14-3,5.46-6.31,8.64-7.75,2-.9,5.27,1.06,8,1.76C420.38,553.87,418.67,554.44,407.52,549.36Z"/><path d="M431.49,572.5v39.11C429,608.64,428.16,579.48,431.49,572.5Z"/><path d="M228.69,186.06l-12.57-31.53,2.09-.86c5.82,9.82,7.75,21.27,12.56,31.51Z"/><path d="M222.93,180c.23,3.63,5.58,6.37.86,11.09-.9.91.75,4.36,1.22,6.64l-1.82.67c-1.78-4.54-3.95-9-5.1-13.68-.33-1.34,2.29-3.4,3.55-5.13Z"/><path d="M418,213.46l23.4,5.55c-.14.61-.29,1.22-.43,1.83-7.9-1.43-16.21-1.08-23.48-5.34Z"/><path d="M297.58,680.37h17.67c.08,1.47.31,3.72.23,6,0,.32-1.67,1-2.41.79-2.41-.57-4.75-1.45-7.31-2.27l2.16-2.59-.4-1a72.41,72.41,0,0,1-7.76,2.53c-.78.18-1.87-1-2.82-1.53Z"/><path d="M232.16,143.44c-7.28-3-8.19-6-5-14.14,1.5,1.65,3.05,2.78,3.67,4.28.3.75-1.12,2.2-2,3.72Z"/><path d="M257.32,151.72c-2.59-5.56-7.4-10-9-16l2.14-1.13q4.62,8,9.25,16.06Z"/><path d="M298.17,127.59c-1.48-1.28-3.37-2.32-4.3-3.92s-.75-3.64-1.35-7.16c2.87,1.81,5.47,2.81,7.05,4.67,1,1.16.44,3.62.58,5.49Z"/><path d="M232.88,162.19c-6.53,4.26.76,6.67,1.15,10-4,.37-5.52-1.48-8.1-10.45l6.3-1Z"/><path d="M446.52,199.51c-1.13,1.09-2.59,3.31-3.34,3.09a43.36,43.36,0,0,1-8.06-3.84s.48-1.72,1-1.95a4.22,4.22,0,0,1,2.6.2c2.09.63,4.13,1.41,6.19,2.13Z"/><path d="M295.28,113.77q-5.41-5.86-10.82-11.72l1.42-1.32c5.06,2.51,7.12,7.91,11.11,11.46Z"/><path d="M240.2,142.22a21.92,21.92,0,0,1,6.45,12.85l-1.49.75q-3.42-6.33-6.82-12.66Z"/><path d="M258.54,85.83l9.65,12.78C261.46,96.22,257.44,90.74,258.54,85.83Z"/><path d="M259.12,105.79l8.36,11.95-2,1.38-8.4-12Z"/><path d="M270.75,125.3,279.34,136c-4.91-.26-8.29-4-9.65-9.73Z"/><path d="M426.24,197.42,420,186.36c3.79-.79,5.58,2.2,6.88,4.68,1,1.88.45,4.53.6,6.83Z"/><path d="M188.51,119.24c.27,4.06.54,8.13.86,12.92A9.15,9.15,0,0,1,188.51,119.24Z"/><path d="M255.75,124.41c2.8,4.63,4.95,8.18,7.75,12.79C257.83,135.1,254.76,130.13,255.75,124.41Z"/><path d="M439.54,205.8l3,6.88L431.43,211c.08-.56.15-1.12.23-1.69l5.8.48c.34-1.35.65-2.59,1-3.83Z"/><path d="M265.82,150c-3.32-2.32-6.64-4.63-7.47-8.94l1.33-1.12,7.66,8.73Z"/><path d="M239.34,103.76l6.18,8.77-2,1.45L237,105.4Z"/><path d="M249.35,91.18l-6.55-8.94,1.9-1.36,6.64,8.85Z"/><path d="M274.93,99.41l5.78,8.59L279,109.21l-6.36-8.11Z"/><path d="M243,89.85,250.18,99C245.56,99.19,243.25,96.41,243,89.85Z"/><path d="M234.24,127.7c-5.17-.31-7.38-4-5.74-9.1Z"/><path class="cls-1" d="M588,331.77l-8.33-2.49-.54,1.15,5.18,3c0,.43,0,.87,0,1.31-5,.66-10,1.57-15,1.93-14.65,1.07-29.21,1.15-43.38-3.91-3.66-1.31-7.81-1.24-11.74-1.78-9.68-1.31-19.41-2.3-29-4-10.56-1.84-21-4.48-31.53-6.44-6.74-1.25-3.07-6.2-3.63-9.49s2.24-3.31,4.67-3.58c5.06-.58,9-6,8.09-11.8-.48-2.89,0-4.4,2.67-5.37,4.71-1.74,6.37-5.2,6.24-10.15-.14-5.43,2.06-6.18,7.22-4.67,7.69,2.24,15,5.89,23.39,5.81,10.11-.11,20.23.76,30.34,1.27,2.92.14,3.8,1.47,2.41,4.3-2.66,5.4-7.74,7-12.86,7.24-11.91.48-23.85.08-35.78.27-4.51.08-9,1-13.52,1.16-2.14.09-4.32-.56-6.48-.88l-.39,2.05c2.87.51,5.74,1,8.59,1.56s7-1.66,6.9,3.1a53.51,53.51,0,0,1,6.87-1.48c9.56-.74,19.15-1.21,28.71-2,4.6-.39,9.15-1.42,13.74-1.94,4-.45,7.53,3.45,7.26,8.07l-16.71-5.64-.69,1.44L539,307.67c-26.43,6.32-51.42,4.72-76.73,1.42,1,.62,2,1.57,3.08,1.82,7.73,1.75,15.52,3.25,23.25,5,11.85,2.7,23.47,0,35.13-1.43,5.39-.68,10.71-1.92,16.08-2.8,4.09-.66,5.61-3.17,4.16-6.74s-3.8-6.51-5.53-9.85a5.2,5.2,0,0,1-.48-3.82c.28-.64,2.69-1.22,3.34-.74,9,6.63,17.77,13.48,22.58,24,.37.82.18,1.89.28,3.32l-14.45-6.47c-.27.55-.55,1.09-.82,1.64l12.81,6.9c-.13.51-.25,1-.38,1.54a86,86,0,0,0-9,.94c-14.36,3-28.73,1.91-43-.25-14.55-2.2-29-5-43.46-7.81-4.29-.83-8.42-2.44-12.62-3.7l-.68,1.83C456.7,314,460.71,316,465,317c15.16,3.48,30.27,7.6,45.65,9.56,11.24,1.43,22.87-.05,34.31-.47,5.8-.21,11.58-1.29,17.37-1.35,4.06,0,5.41-1.53,5-5.34-.37-3.24-.56-6.49-.9-10.47C576.15,314.09,583.9,320.55,588,331.77Z"/><path class="cls-1" d="M363.88,307.87c12.61,14.26,28.11,23.86,47,27.94-5.74,4.42-11,1.79-16.27.42-9.23-2.39-16.58-7.92-24.14-13.45-4.33-3.17-10.16-4.3-15.31-6.35l-1.08,2.19,33.32,19.26c-9,2-15.12-4.75-22.73-6.78l-.76,1.23,15.82,9.53c-6,3.08-47.61-8.84-53.69-15.27,3.57-.66,7.05-1.27,10.51-1.95a11.86,11.86,0,0,0,9.85-9.4c.63-2.52,1.59-3.73,4.33-3.55,6.34.43,10-3.37,11.81-8.76,1.27-3.82,3.35-5,7-4.56.33,0,.67,0,1,0,5.8.38,11.6.78,13.77-7.21C399,305.35,414,317.6,433.71,322.59c-4.7,3.52-9.68,2.92-14,.83-14.63-7.05-30.36-11.91-43.55-21.82a3.73,3.73,0,0,0-2.65-.37c14.11,12.33,28.87,23.45,47.84,27.62-5.53,4.79-10.9,3.1-15.67.71-13.48-6.76-26.71-14-40.05-21.08A12.2,12.2,0,0,0,363.88,307.87Z"/><path class="cls-1" d="M432.39,328.35c5,1.52,9.5,2.71,13.88,4.27,5.11,1.81,10,4.28,15.2,5.8,3.28.95,6.94.48,10.37,1,18,2.78,36,5.72,54.06,8.45,3.1.47,6.31.13,9.47.26,13.45.53,26.92,1.73,40.35,1.47,12.07-.25,24.1-2.08,36.15-3.23.82-.08,1.63-.34,2.45-.43,7.3-.87,7.94-2.11,4.55-8.75-.73-1.42-1.32-2.91-2-4.46,9.71-1.72,39.73,11.58,42.3,18.18-14.23,5.77-29.17,6.62-44.33,6.4-16.48-.25-33,.31-49.45-.26-9.9-.35-19.74-2.27-29.62-3.34s-19.47-1.93-29.2-2.89c-15.69-1.56-31.4-2.91-47-4.81-5.86-.71-11.6-2.63-17.32-4.26-1-.29-1.79-1.77-2.52-2.81C437.42,335.76,435.25,332.53,432.39,328.35Z"/><path class="cls-1" d="M587.81,322.1c11.33,2.16,20,6.79,26.71,14.9,2.68,3.26,2.08,5.21-1.93,6-6.52,1.21-13.11,2.76-19.68,2.79-16.08.09-32.16-.61-48.24-1a9.86,9.86,0,0,0-2.49,0c-11.69,2.77-22.69-1.51-33.94-3.29-4.41-.69-8.85-1.26-13.26-2-12.72-2.08-25.5-3.88-38.12-6.43-7.06-1.43-13.86-4.13-20.95-6.31,2.5-3.82,9.44-6,13.24-4.91,10.46,3.14,20.8,7.07,31.48,9.07,15.78,2.95,31.82,4.5,47.75,6.66,4.27.58,8.54,1.21,12.8,1.81,13.79,1.94,27.5,1.84,41.13-1.39a44.19,44.19,0,0,1,6.45-.55c4.26-.36,5.28-1.9,3.61-5.94C591.18,328.64,589.66,325.89,587.81,322.1Z"/><path class="cls-1" d="M666.15,352.2l-3.47-5.9c12.16,2.87,23.14,5.64,34,12.45l-14.27,2.05a39.47,39.47,0,0,1-6.87.86c-2-.07-4-1.05-6.07-1.38s-4.25-.84-6.18-.38a137.35,137.35,0,0,1-39.43,3.58c-10.41-.55-20.93,1.23-31.39,1.15-21.57-.16-43.19,1.53-64.7-2.13-13.71-2.33-27.6-3.54-41.36-5.62-11.14-1.68-22.17-4-33.29-5.85-3.9-.64-6.9-.73-9.28,4.48-3,6.64-8.58,12.15-13.12,18.1-.37.48-1.29.55-2.76,0L446,347c5.74.83,11.94,1.76,18.14,2.62,5.75.8,11.49,1.78,17.27,2.24,13.4,1.07,26.84,1.63,40.21,2.88,8.25.77,16.39,2.78,24.63,3.62,19.63,2,39.27,3.49,59,1.57,8.59-.84,17.35.18,26-.55,7.88-.66,15.67-2.42,23.45-3.94C658.32,354.7,661.84,353.43,666.15,352.2Z"/><path class="cls-1" d="M345.28,438.07c.05-4.07,2.21-5.27,5.34-7,5.12-2.78,9.7-6.88,13.8-11.11,5.46-5.65,10.3-11.92,15.27-18,1-1.23,1.37-2.94,2-4.44,6.26,3.32,10.06,11.57,8.41,18.16-.15.61-.58,1.58-.34,1.81,5.05,4.83,1.54,10.89,2.26,16.31.32,2.41-.76,4.86-4.27,4.83-13.64-.1-27.28-.06-40.92-.1A6.79,6.79,0,0,1,345.28,438.07Z"/><path class="cls-1" d="M399.27,281.59c7.87-7.8,6.54-9.42,17.08-4.66,10.71,4.84,21.66,9.14,32.55,13.57a18.28,18.28,0,0,0,4.87.94c2.54.27,6-.56,5.84,3.52-.12,3.8-1.38,7.48-5.94,8-2.94.33-6.18.57-8.92-.3-8.22-2.63-16.39-5.51-24.31-8.91C414,291,407.82,287.33,401.59,284A10.94,10.94,0,0,1,399.27,281.59Z"/><path class="cls-1" d="M459.41,271.94c-10.66-2.31-23.19-4.05-34.41-10.35-2.63-1.48-1.71-7.16,1.39-9.61,4.8-3.79,9.55-6,15.67-2.39a54.6,54.6,0,0,0,12.67,5.49,78.43,78.43,0,0,0,13.69,2.18c4.2.43,5.57,2,4.55,6.15C471.6,268.94,467.44,271.93,459.41,271.94Z"/><path class="cls-1" d="M386.65,291c4-2.1,7.11-4,10.41-5.33a5.09,5.09,0,0,1,3.94.76c7.55,4.83,14.72,10.35,22.59,14.59A60.59,60.59,0,0,0,441.37,307c4.47.8,5,2.88,4.73,6.38-.32,3.71-2.84,4.71-6,4.36-9.59-1.07-18.19-4.82-26.46-9.68-3.75-2.21-8.43-2.89-12.05-5.24C396.42,299.43,391.8,295.15,386.65,291Z"/><path class="cls-1" d="M456.46,287.84c-3.9-1.23-7.35-2.26-10.76-3.4-9.39-3.13-18.79-6.22-28.11-9.53-2-.7-5.47-.66-3.73-4.76,2.5-5.87,5.39-8.38,9-7,7.7,3,15.23,6.54,23,9.28,5.7,2,11.76,3,17.6,4.62,1.67.47,3.13,1.69,4.69,2.56-1,1.64-1.67,3.9-3.14,4.8C462.45,286,459.38,286.74,456.46,287.84Z"/><path class="cls-1" d="M477.55,255.17c2.67-2,5.29-4,8-5.94a4,4,0,0,1,2.71-.66c5.69,1,11.32,2.49,17,3.12a21.87,21.87,0,0,0,10.11-1.13c4-1.6,6.25-.26,8.42,2.77,2.46,3.44,3.93,7,1.75,11.09-.36.67-1.65,1-2.57,1.16a22.07,22.07,0,0,1-4,0c-6.19-.32-12.52,0-18.53-1.19-7.36-1.49-14.46-4.29-21.67-6.53Z"/><path class="cls-1" d="M532,264.6c1.27,2.76,3,5.4,3.71,8.3,1,3.8-2.18,5.33-5,5.26-9.46-.24-18.91-1-28.36-1.59-2.47-.16-4.91-.64-7.38-.82-2.65-.19-5.35,0-8-.32-9.39-1.24-11.9-5.88-8.18-15.73,3.18,1.24,6.39,2.43,9.55,3.75,8.93,3.73,18,6.86,27.89,6.36a19.66,19.66,0,0,1,5.45.52c4.71,1.1,8.28.46,8.77-5.62Z"/><path class="cls-1" d="M385.46,343.86c4.52-3,7.93-5.46,13.32-2.89,5.88,2.81,11.41,2.58,16.21-3.67s15.14-5.48,18.76.27c1.74,2.78,2.5,4.95-2.17,5.9-14.41,2.93-28.78,5-43.37,1.42C387.49,344.71,386.81,344.37,385.46,343.86Z"/><path class="cls-1" d="M516.78,243.65c-8.71,6.92-18.16,4.22-27.27,2.83-4.23-.64-3.16-5.26-3.43-8.35,0-.4,3.19-1.45,5-1.59,5.58-.42,11.2-.3,16.76-.86C511.46,235.3,514.67,237.8,516.78,243.65Z"/><path class="cls-1" d="M181,548.32a20.61,20.61,0,0,1,3.88-.36c5.45.55,11,.78,16.28,2.09a9,9,0,0,1,5.59,5.37c.52,1.94-1.05,5.24-2.75,6.8-3.48,3.21-7.66,5.66-11.65,8.49,0,.37-.1,1.1.16,1.29,7.2,5.27,13.87,11.87,21.89,15.15,4.33,1.77,7.23,4.42,10.62,6.88.93.67,1.37,2,1.66,3.54-4.87-.94-9.25-1.72-13.07-5.78-4.2-4.48-9.82-7.62-14.85-11.32-2.4-1.76-5.08-3.21-7.25-5.21-3.71-3.43-3.4-5.44.74-8.26,3-2,6.17-3.91,9-6.19,1.35-1.1,3.21-3.92,2.84-4.37-1.4-1.76-3.44-3.67-5.53-4.09-5-1-10.16-1.18-15.24-1.79a8.47,8.47,0,0,1-2.38-1.09Z"/><path class="cls-1" d="M297.22,485.92c1.62-.17,3.1-.66,4.43-.4,2.39.47,4.15.52,5.12-2.29.24-.72,1.93-1.44,2.87-1.34,4.59.49,9.17,1.14,13.69,2a3.92,3.92,0,0,1,2.43,2.48c.17.6-1.11,2.27-1.9,2.38-6.14.88-12,6.52-18.63,1.08-1.68-1.37-4-.79-4.06,2.23-.07,3.32.15,6.66-.14,10-.12,1.28-1.29,2.47-2,3.7-.61-1.14-1.71-2.27-1.75-3.43C297.11,497,297.22,491.71,297.22,485.92Z"/><path class="cls-1" d="M302.06,583.45c1.8-2,3.32-5,4.52-4.89a93.19,93.19,0,0,1,14.95,3.25c.83.23,1.61,2,1.65,3.12,0,.58-1.51,1.47-2.48,1.79-2,.66-4.34.65-6.17,1.6-5.61,2.91-10.5-.47-15.65-1.45a2.37,2.37,0,0,1-1.43-1.76,118.84,118.84,0,0,1,.92-19.7C302.94,570.55,299,577.61,302.06,583.45Z"/><path class="cls-1" d="M404,373.24l8.69,3.38,17.49-22.46,1.76,1.41-15.56,21.28c9.28-5.53,12.83-16.33,20.48-23.32l1.38,1.07c-3.7,5.32-7.5,10.58-11,16-2.18,3.3-4,6.86-6.19,10.76C411.85,381.1,404.67,378.34,404,373.24Z"/><path class="cls-1" d="M323,511.87l2.58,4.53c-2.48.43-5,1.14-7.44,1.09-.61,0-2-3.09-1.59-3.75,1.58-2.35,3.8-4.26,5.75-6.31l-3.27-1-.36-1.38c1.79-.61,3.85-2.06,5.31-1.6,1.72.54,2.94,2.72,5,6.06,1.43-1.89,2.77-3.87,4.33-5.65a10.84,10.84,0,0,1,2.73-1.69c.44,1,1.34,1.95,1.26,2.86-.31,3.43-.86,6.85-1.51,10.24a3,3,0,0,1-1.69,2c-.62.12-1.52-.83-2.19-1.42C329.28,513.51,327.05,510.18,323,511.87Z"/><path class="cls-1" d="M276.47,659c-1.58,2.48-2.7,5.63-4.92,7.22-1.45,1-4.69.24-6.78-.61-.8-.33-.9-3.08-.82-4.7s.33-3.62,1.32-4.69c1.82-1.95,4.2-4.6,6.43-4.68C275.81,651.35,275.48,655.22,276.47,659Z"/><path class="cls-1" d="M337.78,577.86,332,580.12c5,2,8.1,5.36,6,10.27a10.25,10.25,0,0,1-6.05,5.09c-2.86.8-6.09-.21-8.48-4.63,2.63.47,4.23.71,5.81,1,2.92.63,5.08-.19,5.46-3.35.32-2.65-.68-4.27-3.79-3.13-1.4.51-2.85.86-4.59,1.37C327.54,577.09,330.48,574.55,337.78,577.86Z"/><path class="cls-1" d="M334.79,483.19c4.3,2.3,8.87,3.54,7.4,8.79-1,3.6-3.45,6.29-7.48,6.15-1.95-.08-3.86-1.39-5.57-2.82,3.51-2.24,9.55,1.8,9.56-5.2,0-.75-4.27-1.52-7.18-2.48-1-4.53,1.7-9.62,6.18-9.34,1.37.08,2.67,1.3,4,2-1.22.79-2.41,1.65-3.7,2.32A14.41,14.41,0,0,1,334.79,483.19Z"/><path class="cls-1" d="M290.25,606.09c.65,2,2.51,4.83,1.76,6.1-1.08,1.8-4.45,3.71-6.17,3.22s-3.92-4.27-3.46-5.94c.75-2.77,3.16-5.39,5.51-7.27.85-.68,3.55.94,5.4,1.51Z"/><path class="cls-1" d="M173.74,545.31c.09,5.06-3.5,9.51-7.67,9.37-3.44-.12-5-2-5-5.43,0-4.42,3.31-9,6.8-9.16S173.67,541.91,173.74,545.31Zm-7.54,6.37c3.49-1.76,4.54-4.25,3.29-7.45-.18-.47-2.43-.82-2.83-.39C164.56,546.06,163.16,548.59,166.2,551.68Z"/><path class="cls-1" d="M422.73,393.65c-7.87,10.78-17.94,19.77-25.54,30.76l-1.89-1.51,25-30.94Z"/><path class="cls-1" d="M341.17,517.36c-1.18-3.8,3.51-13.25,6.23-13.59a3.16,3.16,0,0,1,2.62,1.52,48.36,48.36,0,0,1,1.09,11.59C347.46,513.05,344.4,512.9,341.17,517.36Z"/><path class="cls-1" d="M451.71,464.63c-.82-1.79-1.35-2.92-1.87-4.05a19,19,0,0,1-1.61,2.77c-.43.53-1.26,1.15-1.81,1.06s-1.8-1.05-1.71-1.38c.77-3.1,1.42-6.33,2.88-9.11.55-1.06,3.38-1.8,4.7-1.33a5.05,5.05,0,0,1,2.61,4.05C454.67,459.49,457.29,464.06,451.71,464.63Z"/><path class="cls-1" d="M448.18,190.13l-15.65-4.2,2-7.32c6.6,1.24,10.75,5.65,14.7,10.3Z"/><path class="cls-1" d="M121.09,485.05c-1.86,7.24-3.5,13.83-5.31,20.38-.15.56-1.4.82-2.14,1.22-.43-.81-1.34-1.72-1.2-2.42,1.25-6.48,2.59-13,4.18-19.35.27-1.05,1.92-1.75,2.92-2.61C120.14,483.33,120.73,484.4,121.09,485.05Z"/><path class="cls-1" d="M305.58,615.58c-2.74-6.54-5.94-1.76-8.93-1-.31-2.79,4-11.38,6.16-12.06.81-.25,2.7.39,2.81.89.78,3.64,1.23,7.35,1.79,11Z"/><path class="cls-1" d="M454,187.12c4.6,2.28,9.75,2.83,12.31,8.08C456.09,197.36,452.58,195.12,454,187.12Z"/><path class="cls-1" d="M700.42,384.13c-8.08-4.08-9.42-12.9-14-19.45C694.14,368.92,696.45,377.11,700.42,384.13Z"/><path class="cls-1" d="M425.93,349.48l-8.36,10.89c-2.59-2.86-4.69-5.18-7.82-8.62l9.23-1.42c-1.17,2.44-1.9,4-2.7,5.66C421.69,357.35,419.69,348.67,425.93,349.48Z"/><path class="cls-1" d="M426.42,355.29q-7.08,9.21-14.15,18.41c-.22-9.75,9.45-12.27,12.32-19.74Z"/><path class="cls-1" d="M508.88,471.21c.43-4.27,3.07-5.08,11.15-3.44C519.51,472.29,517.72,472.84,508.88,471.21Z"/><path class="cls-1" d="M447.33,358.85c-3.46,5-6.27,10.43-10.57,14.73l-2-1.51,10.86-14.44Z"/><path class="cls-1" d="M690.56,382.24l-9.95-17.11,1.9-1.12,10,16.91Z"/><path class="cls-1" d="M282.11,601.69c-1.32,5.13-2.49,9.7-3.67,14.27C274.53,611.28,276.89,603.68,282.11,601.69Z"/><path class="cls-1" d="M505.2,456.9c1.65,8.86.79,9.63-8.2,8Z"/><path class="cls-1" d="M452.8,360.39,442.4,375.1l-2-1.4L450.76,359Z"/><path class="cls-1" d="M515.77,462.37l-5.51,2.82c-.86-4.23,1.4-5.93,4-5.88,2.29,0,4.55,1.72,6.82,2.68-.62.83-1.38,2.42-1.85,2.33C518.11,464.11,517.07,463.15,515.77,462.37Z"/><path class="cls-1" d="M154.29,553.62c1-3.69,1.92-7.39,3.05-11,.18-.57,1.25-1.05,2-1.17.37-.06,1.34.91,1.26,1.19-1.13,3.94-2.39,7.84-3.62,11.75Z"/><path class="cls-1" d="M456.11,374.1l-3.31-1.23,8.86-12.09,1.11.71Z"/><path class="cls-1" d="M683.51,379.23c-2.74-4.5-5.49-9-8.5-13.91C678.67,365.76,682.7,371.78,683.51,379.23Z"/><path class="cls-1" d="M263.16,507.48c-1-2.55-1.93-5.1-3-8,.18-.06,2.74-1.26,2.91-1a46.06,46.06,0,0,1,2.95,6.6Z"/><path class="cls-1" d="M711.6,374.59l5.13,6.2,1.67-3.73,3.25,3.71C715.34,384.28,715,384.1,711.6,374.59Z"/><path class="cls-1" d="M704.22,385.48l-7.6-14.39C702.29,374.85,706.47,383.24,704.22,385.48Z"/><path class="cls-1" d="M712.93,383.08c-5-.92-8.83-5.33-9.33-11.4Z"/><path class="cls-1" d="M447,372.46c3.43-4.36,6.34-8.07,9.24-11.78C455.78,366.39,450.94,372.13,447,372.46Z"/><path class="cls-1" d="M485.54,463.2c1.71-3.72,4.28-4.21,7.17-2.39.78.5.66,2.43,1,3.71a14.58,14.58,0,0,1-3.28.16A42.42,42.42,0,0,1,485.54,463.2Z"/><path class="cls-1" d="M483.84,370c1.71-4.36,3-7.35,8-6.22C490.22,367.45,488.7,370.12,483.84,370Z"/><path class="cls-1" d="M537.26,369.32c-1,1.17-1.86,2.63-3.12,3.45a23.84,23.84,0,0,1-4.86,1.86c.78-1.63,1.2-3.65,2.44-4.78s3.21-1.24,4.86-1.8Z"/><path class="cls-1" d="M392.25,464.06l9.5-5.64C400.66,463.64,397.76,465.48,392.25,464.06Z"/><path class="cls-1" d="M477.18,361.07c-2,2.73-3.2,6.22-7.07,6.9-.45-.47-.91-.93-1.37-1.4l6.92-7Z"/><path class="cls-1" d="M610.09,377.14a57.26,57.26,0,0,1,5.82-2.25c.23-.07,1,1.61,1.46,2.49l-6.24,2.49C610.78,379,610.43,378.05,610.09,377.14Z"/><path class="cls-1" d="M411.11,413.83l-5.61,8.25-2-1.37,5.93-8.17Z"/><path class="cls-1" d="M667.2,365.29l7.06,9.61-1.53,1.2-7.18-9.48Z"/><path class="cls-1" d="M441.36,453.34,439,463.17l-2.25-.46q1.09-4.95,2.21-9.88Z"/><path class="cls-1" d="M504.74,367l-6.64,6.83-1.49-1.5,6.62-6.85Z"/><path class="cls-1" d="M546.16,377.45l5.54-8.23,2,2.07-7.22,6.59Z"/><path class="cls-1" d="M665.41,373.5l-6.11-6.91L661,365l5.85,7.05Z"/><path class="cls-1" d="M469.33,361.9l-6.12,8-1.77-1.48,6.44-7.74Z"/><path class="cls-1" d="M409.26,556.9a48.92,48.92,0,0,1,.51,5.1c.05,13.12,0,26.25.05,39.38,0,4.76.21,9.53.09,14.29,0,1-1,2-1.57,3-.7-.93-2-1.85-2-2.78.07-16.2.33-32.41.49-48.62,0-1.62-.5-3.24-.44-4.85a53.37,53.37,0,0,1,.81-5.73Z"/><path class="cls-1" d="M420.93,564.41c0,7.1.06,14.2-.08,21.3,0,.84-1.1,1.66-1.69,2.49-.63-.79-1.78-1.57-1.8-2.37-.15-6.3-.18-12.61,0-18.91,0-1.07,1.21-2.1,1.86-3.15Z"/><path class="cls-1" d="M407.46,623.29c.59,2.93,1,4.54,1.21,6.17.52,4.74,1.06,9.49,1.3,14.24a3.88,3.88,0,0,1-2,2.84c-.6.3-2.23-.48-2.77-1.23C403.75,643.28,404.9,626.94,407.46,623.29Z"/><path class="cls-1" d="M386,593.56c.54,4.44,1,8.07,1.41,11.7L386,606c-.77-.85-2.29-1.84-2.17-2.55C384.29,600.38,380.12,596.7,386,593.56Z"/><path class="cls-1" d="M419.27,615.27c-.66-1.28-1.87-2.55-1.87-3.83,0-1.85.86-3.71,1.35-5.56l1.75.4v8.4Z"/><path class="cls-1" d="M176.94,83.93l-15,3.44L160.81,86c1.12-1.72,1.85-4.07,3.42-5C168.9,78.12,172.82,81.36,176.94,83.93Z"/><path class="cls-1" d="M201.45,69.83l-5.65-6.41c2.42-2.3,5.09-1,6.82.72C204.86,66.36,203.64,68.52,201.45,69.83Z"/><path d="M166.2,551.68c-3-3.09-1.64-5.62.46-7.84.4-.43,2.65-.08,2.83.39C170.74,547.43,169.69,549.92,166.2,551.68Z"/></g></g></svg>