<svg xmlns="http://www.w3.org/2000/svg" viewBox="0 0 882.19 458.19"><title>0dropout</title><g id="Layer_2" data-name="Layer 2"><g id="Layer_1-2" data-name="Layer 1"><path d="M442,459q-218.25,0-436.5.09c-3.75,0-4.6-.84-4.59-4.59Q1.08,230,.91,5.5C.9,1.75,1.75.91,5.5.91q436.5.15,873,0c3.75,0,4.6.84,4.59,4.59q-.17,224.51,0,449c0,3.75-.84,4.6-4.59,4.59Q660.25,458.93,442,459ZM807,326.88c-2,1.15-3.54-2.31-4.79.13-.87,1.72.66,2.87,1.94,4.11,2.91,2.82,3.32,7.51,7.08,9.85.36.23.3,1.65,0,2.33-1.05,2.5.12,4.11,1.86,5.66,2.2,2,3.93.37,5.86-.54,5.13-2.43,10.37-4.68,16.19-4.39,3,.14,5.83.42,8.73-.91,2.21-1,4.21-.4,4.88,2.5a31.85,31.85,0,0,0,1.69,4.14c1.7,4.37.88,9.05,1.56,13.56.15,1-3.5,1.07-2,3.07,1.2,1.56,2.59-.44,3.91-.89a10.33,10.33,0,0,1,2.9-.31c3.17-.11,3.14-.13,5.69-2.91.51-.56,1.18,0,1.79.27,1.27.55,2.33-.31,1.7-1.28-2-3.07-.65-4.19,2.15-5.4,1.59-.69,1.2-2.81.42-4a33.29,33.29,0,0,0-10.24-10.45c-2.54-1.56-3.79-3.11-3.64-5.76.18-3.22-.58-6.29-1-9.41-.82-6,.35-7.24,6.17-6.12,3.92.75,6.56-1.28,7.07-5.21,1-7.85-2-14.29-7.36-19.56-5.85-5.75-6.87-12.43-5.18-20,.49-2.2,1.3-3.63,4-3.3,2.29.28,4.84-.59,5.21-2.92.77-5,1.65-10.17.92-15-.42-2.81-3.81-5.23-7.08-6.48a3.15,3.15,0,0,1-1.92-2.74c-.61-4.95-1.33-9.88-1.75-14.84-.25-3,1-4.2,4.32-3.28,7.14,2,12.13-2.09,11.39-9.33-.38-3.71-1.67-7.29-2.37-11s-4.37-8-7.65-8.46c-5.86-.86-5.16-4.64-5.76-8.16-.38-2.28-.35-4.63-.56-7-.23-2.54-1.72-5.64,3.45-4.37,2,.48,4-1.54,4.46-3.91a38.38,38.38,0,0,0,.93-8.89c-.24-4.05.22-10.1-2.09-11.69-5.57-3.84-4.58-9.42-6.28-14.24-.88-2.49-1.92-5.83.17-7.62,4.4-3.78,5.24-8.37,5.42-13.69.16-5,2.09-10-3.61-13.61-1.88-1.19-2.91-4-2.71-6.71.12-1.65.4-3.57-.27-4.94-1.75-3.53-.14-5.52,2.42-7.6a11.51,11.51,0,0,0,4.59-7.75c.54-3.55.1-7.1.85-10.49.92-4.18,0-6.77-4.26-8a3.89,3.89,0,0,1-3.1-3.55c-.14-6.29-1.55-12.55-.5-18.89.69-4.18-.9-5.85-4.84-4.67-6.57,2-13.14.49-19.82,1.1,1.84-10.29-.83-10.09-6.91-8.76-5.1,1.12-7.41-.62-10-3.81-.5-.62-.66-1.68-1.72-1.36s-1,1.3-.77,2.08c1.23,3.44.56,5.44-3.56,5.58-1.55.05-2.33,1.73-3.41,2.75-6.56,6.19-14.54,2.6-21.89,2.91-3.14.13-2.48-3.7-3.39-5.84a5.36,5.36,0,0,0-2.17-1.94c-6.52-4.2-14.12-3.05-17.84,4.58-2.82,5.79-6.56,5-10.94,4.94a50.44,50.44,0,0,0-5.5,0c-4,.39-6.7-.49-8.39-4.93-1.62-4.26-6.17-8-10.22-7.26-5.22,1-12.09,1.89-13.56,9.25-.56,2.81-2,3.79-4.84,3.65-4.48-.23-9.15-1-13.39-.39-4.49.63-5.63-1.22-6.07-4.38-.94-6.64-2.32-11.07-11.21-9.22-3,.63-4.35.91-5.27,3.38-.77,2.1-1.94,3.88-1.71,6.53s-2,4.69-5.31,4.48c-3.48-.23-7-.53-10.46-.46-3.78.07-6.4-1.46-7.85-4.87-.91-2.13-2.73-3.64-4.61-2.92-4.16,1.59-5.73-.8-7.35-3.69-.92-1.62-3.59-2.76-3.64-1.09-.16,5.13-5.64,6.32-6.61,9.58-2.14,7.12-7.32,4.44-11.53,5.09-1.12.17-2.32-.3-3.46-.22-7.3.53-7.83.22-9.74-6.86-.42-1.57-.94-3.27-2.76-2.77-3.37.92-6.47,1.91-8.56-2.13-.34-.65-1.22-.57-1.62.15-2.61,4.73-10.34,4.71-10.7,11.55,0,.27-.84.79-1.15.71-4.95-1.4-9.79,1.81-14.75.32-.9-.27-2.51.11-2.39-1.09.48-4.91-2.4-5.92-6.16-8.07-2.25-1.28-4.37-.65-6.18-1.81-2-1.27-4.11-2.7-6.29-.88-2.44,2-1.39,4.62.12,7.24-1.6.33-2.91-1.12-3.7-.14-4.64,5.82-11.09,4.6-17.35,5.11-5.63.47-10.1.15-12.84-5.51a8.15,8.15,0,0,0-4.78-4.07c-4.06-1.49-2.56-6.22-4.05-8.68-2.66-.52-2.06,8.39-6.09,1.32-.46-.81-1.69-.49-2.12.28-1.35,2.39-3.77,1.71-5.77,2.19-.9.22-2.11-.35-2.51,1-.27,1,.39,1.59,1.12,2,3.65,2.18,2,6.36,3.47,9.39.6,1.2-.59,2.62-2.33,2.33-5.24-.9-10.5,1.11-15.74-.1-1.57-.37-2.48.66-3.25,1.8-2.66,3.88-2.09,9.37,0,11.58,4.32,4.6,7,8,5.18,15-.86,3.34-.08,8.87,2.27,12.89.84,1.44.48,2.45-1.1,2.32-6.82-.57-5.53,4.35-5.66,8.23a26.84,26.84,0,0,0,.4,5.44c.74,4.47,1.48,9,6.62,10.77,1.64.55,2.13,1.82,2.82,3.21,2.35,4.76,1.88,9.43.93,14.52-.72,3.88-2.18,4.77-5.09,3.16-3.64-2-3.72,2.91-6.24,2.7,1.46,3.92-.34,8.35,1.69,12.1,1.11,2.06,5.65,3,1.58,6.45-.54.46,1.05,1.38,1.94,1.81,3.42,1.63,4.44,5.54,7.29,7.76.49.38,1.15,3.14,0,2.59-3.3-1.61-2.26,2.76-4.21,2.59-1.49-1.69-.07-4.9-3.38-5.8-1.38,5.65.78,10.76,2.25,17.74-4.2-6.27-4,.72-5.8.51-2.18-1-.42-3.25-2.43-4-1.24,3.08-.14,5.94.58,8.74s2.14,5.4,1.52,8.26c-1.68,7.74,2.76,11.72,8.82,14.63a5.6,5.6,0,0,1,3.52,5,62.47,62.47,0,0,1-.08,10c-.5,4.33-3.39,5.72-7.49,4-1-.41-1.3-2.11-3.21-1.38,1.05,3.75-3.18,6.42-1.81,10.84S459,242.32,465.71,244c.83.21.83,1.43.21,2.14-3.34,3.84,0,4.11,2.49,4.35,2.26.21,4.16,1,4.49,3.18.63,4.1.88,8.28-.32,12.35-1,3.33-3.2,4.38-6.54,3.57-1.32-.31-2.76-1.2-4,.55-3.15,4.4-3.45,8.74-.49,13.46a17.47,17.47,0,0,1,2.92,8.35c.18,3.13,1.74,5.16,4.73,5.49,3.58.41,4.27,2.37,4.1,5.47s0,6.34,0,10.11c3.84-3.4,8.26-5.53,11.7-5.63,7.82-.21,15.59,2.89,23.68,1.42,1.28-.23,3.84,0,3.57,2.36-.19,1.68,1.57,4.76-2.36,4.79a1.45,1.45,0,0,0-1.53,1.6c.09,1,1,1.13,1.88,1.29A43.74,43.74,0,0,1,525,324.32a18.3,18.3,0,0,0,7.08,2.08c2.42.31,5.44.27,2.46-3.53-.67-.86-1.2-1.87-.16-2.57s1.85.28,2.55,1c1.66,1.64,3.3,3.3,4.94,5,4.49,4.51,5.1,4.5,9.1-.28.87,1.82,1.73,3.57,2.53,5.34,1.17,2.6,2.88,4.47,5.73,2.51s1.5-3.87-.67-5.53a1.86,1.86,0,0,1-.65-2.63c.84-1.05,1.78.1,2.68.27,1.56.31,3.88,1.31,4-1a8.49,8.49,0,0,0-2.22-5.87c-1.41-1.44-1.75,1.16-2.66,1.86a1.3,1.3,0,0,1-2.09-.46c-1.18-2.07-2.66-1.75-4.66-1.19-3.71,1-7.25-.66-10.68-1.73-2.56-.81-.13-3.24-.8-4.87a2.85,2.85,0,0,0-2.61-1.91c-.84-.11-1.79-.57-1.3-1.57a3.15,3.15,0,0,1,1.94-1.33c1.59-.44,2.85.67,4.17,1.3,1.82.87,3.49,1.67,4.11-1.25a2.64,2.64,0,0,1,2.3-2.33c2.09-.16,1.37,1.82,1.93,2.85,2,3.72,5.36,6.25,9.33,6.57,3.26.27,3.63-3.87,5.35-6a3,3,0,0,0,.25-2.87c-.23-.76.1-1.35.93-1.27s1.27.59.9,1.39c-1.14,2.48.23,4.37,2.23,4.6,6.06.69,7.65,3.63,5.31,9.48-.65-3.64-1.92-6.77-5.81-7s-2,3.58-3.3,5.14c-.79.94-1.93,1.84-.58,2.83,2,1.5,1.48-2.26,2.77-1.93,4.24,5.87-1.64,10.71-1.17,16.19.08,1-1.55,1-2.52,1.06-3.07.09-5.75,1.6-9,1.83-9,.65-16.77,6.12-25.39,8.61-.95.28-1,1.12-1.26,2-1.28,4.77-5.83,7.3-8.15,11.53-1,1.87-3.14,5.2-5.53,5.69-3.69.75-5.07,3.35-6,5.9-1.11,3-2.48,4.29-5.41,3.06s-8.54.5-8-5.8c.07-.85.26-1.73-.69-2.13a1.89,1.89,0,0,0-2.54.9c-.57.91-.82,2.31-2.71,1.76-.33-2.31-.56-4.85-3.62-5.63-2-.52-1.76-2.05-1.2-3.61a21.16,21.16,0,0,0,1.63-5.22c.26-3.21,1.26-5.17,4.89-4.51,1.11.2,2,0,2.28-1.24.09-.43,0-1.27-.23-1.34a51.71,51.71,0,0,0-7-2.11c-2.33-.42-1.82,1.74-2.3,3s-1.3.74-2.31.29c-6.78-3-9.29-1.74-11.09,5.39-2.28,9-3.37,9.37-10.15,3.17-.19-.18-.6-.12-.93-.17a5.84,5.84,0,0,0-.22.87c-.27,4.34-5.38,8.62-.17,13.05.06,0-.22.61-.44.83-1.86,1.89-.77,3.83.16,5.51,2,3.75,4.19,7.39,7.9,10,2.41,1.67,6.36,4.06,4.1,7.37-4.2,6.12-8.39,12.5-15,16.54-4.63,2.81-4.56,7.55.17,10.38,1.55.93,2.19,1.54.31,2.63-.87.5-1.34,1.35-.75,2,2.08,2.44,3.95,5.39,6.61,6.94,6.71,3.9,14,6.12,22,5,1.78-.25,2.88.35,4.38,1.41,4.57,3.25,9.15,5.73,15.44,2.91,4.36-2,7.57-5.62,12.6-6.72,6-1.32,12.72-.26,18.61-5.64-.69,3.61-1.16,6.43,2.54,6.53,3.08.09,4.81,1.56,6.08,4.25.84,1.79,2.15,2.06,4.48,1.42a37.53,37.53,0,0,0,12.69-6.1c3-2.22,7.58-1.92,11.59-1.58s8.23.65,12.35,1c1.12.09,2.3-2.37,3.25-.16.63,1.48-.77,2.32-2,2.95-1,.48-1.68,1.22-1,2.37a1.6,1.6,0,0,0,2.57.46c3.68-3.3,8.49-2,12.69-3.16,2.32-.62,4.52-1.18,4.82-3.48.33-2.52-2.3-3.29-4.15-4.29-2.74-1.47-8.21-.46-5.82-6.56.15-.38-.63-1.11-.93-1.69-1.79-3.43-2.86-7.08-7.5-8.56-1.67-.54-2.17-4.76-5.91-.86,1.35-3-2-4.56-.84-6.15,1.55-2.06,3.92-.44,6,.12,1.35.37,2.15-.55,2.32-1.94a69,69,0,0,1,2.88-13c.31-1,.25-2.15,1.55-2.05a1.77,1.77,0,0,1,1.54,2.19c-.23,1.81-.69,3.59-.92,5.4-.19,1.46-2.1,2.95-1.07,4.11,3.64,4.07,2.57,9.41,4.22,14,4.17,11.52,14.48,20.12,28.06,17.7,5.44-1,5-6.09,6.59-9.65.93-2.08-.7-3.37-3.47-3.84,3.56-.81,6.3,0,8.93.07.61-1.79-.69-2.26-1.37-3.14-1.34-1.72-.67-7.91.82-7.92,5,0,6.16-1,1.43-4.19-.42-.28-.51-1.18-.57-1.82-.5-5-3.3-8.55-6.94-11.61-.94-.79-2.08-1.52-.7-2.69,1-.87,7.19,2.23,7.17,3.67,0,1.18.12,2.12,1.29,2.21,1.44.12.87-1.51,1.31-2,2.12-2.34.86-7.93,6.71-6.91,1.18.21,1.94-2.64.42-2.86-4.84-.7-3.48-3.62-3-6.49.13-.77-1.27-2,.6-2.13a1.65,1.65,0,0,1,1.67,2c-.18,1.62-1,3.75,1.34,4.14,2.69.45,1.8-2.15,2.2-3.54s1.26-2,2.58-1.62c1.49.44,2.44,1.77,1.5,3.05a20.86,20.86,0,0,0-4.24,12.61c-.07,3.24-3,5.69-3.94,9.19-2,7.63-1.9,15.14-1.38,22.73.25,3.54.48,6.24-4,7-1.83.29-3.25,1.74-5.56.87-2.51-.95-3.12,2-4.12,3.42-1.27,1.8.5,2.75,2,3,2.73.52,2.07,5.22,5.31,4.51,4.8-1.07,9.52-2.53,14.43-3.18.55-.07,1.08-.74,1.5-1.23,4.14-4.91,11.17-5.42,16.37-1.17a14.28,14.28,0,0,0,15.81,1.05c6.76-4.19,13.43-8.79,22.09-5.05,1.27.55,3,.3,4.44.18,3.28-.27,6.14-.29,7.89,3.46a5.85,5.85,0,0,0,5.47,3c6.6-.71,14.24,1.13,18.35-6.68.8-1.51,2.68-1.26,4.1-1.27,3.83,0,7.66.18,11.48.23,1.58,0,3.16.07,3.72,1.82,1,3.07,3.59,3.61,6,3.34,3.74-.41,6.19.42,6.65,6.1,2.15-5.23,3.37-9.55,8.91-8.14.27.07.85-.53,1.08-.93,1.91-3.27,5.21-3.26,8.33-3.49a60.92,60.92,0,0,1,10.95.62c3.79.4,6.75,1.47,8.05,5.45.75,2.29,2.48,3.84,5,3,4-1.36,7.44-4.54,12.16-3,.27.08,1.17-.8,1.27-1.32.73-3.8,3.83-3.8,6.57-4,3.13-.27,6.3,0,9.44-.17,4.64-.27,6-2.16,5.36-6.72a20.85,20.85,0,0,1-.21-5.46c.38-3.11,2.19-5.93,5.4-5.32,4.17.8,5.05-1.87,6.49-4.35,4.28-7.37-1.11-13.33-2.93-19.8a4.07,4.07,0,0,0-.82-1.68,2.39,2.39,0,0,0-1.41-.35c-3.32-.19-5-2.13-6-5.14-.47-1.44-.66-3.54-2.85-3.66s-3.09,1.57-3.82,3.33c-1.39,3.33-2.93,6.47-5.83,8.93-3.26,2.76-5.32,6.31-5,10.91.08,1.06.65,3.28-1.5,2.79-1.69-.39-.83-2.12-.45-3.4.92-3.1.31-6.15-2.06-8.12-4.68-3.87-10.89-5.13-15.58-9.49-3.24-3-8-2.57-13-.89-6,2-12.72,2.1-18.33,5.79-1.12.73-2.34,0-3.11-.92-3-3.65-7-5.37-11.59-6.07-1.37-.21-3-.87-2.87-2.29.17-1.72,1.8-1.59,3.18-1.08.78.29,1.73.71,2.1-.35.43-1.25-.59-1.6-1.58-2-2.31-1-4.57-2.14-6.85-3.22,4.61-.13,9.51,2.79,12.12-3.61.2-.49,1.51-.53,2.3-.79,3.63-1.19,5-4.93,2.59-8a8.24,8.24,0,0,1-1.68-4.92c-.27-3.19,3.89-7.46-2.07-9.6-1-.34-.05-1.68,1-2.07s2.73.82,3.37-1.07c-5.42-2.51-5.52-3.88-.67-8a2.85,2.85,0,0,1,.86-.5c1.41-.52,2.25-1.38,2-3-.31-1.86-1.59-2.34-3.25-2.44-1.25-.07-2.82.23-2.23-2.1,1.48-5.86-3.43-12.87-9.65-13.45s-12.51-1.42-19,.82c-8,2.75-13.42,7.75-16.53,15-3.23,7.56-6.38,15.15-9.7,22.68-3.58,8.07-6.44,16.62-1.73,25.52,1.6,3-.86,3-2.71,2.75-7-1-14-.26-21-.57-2.4-.11-4.37.17-6.3,2.08-2.43,2.42-12.64,0-13-3-.53-4.78-4.15-8.86-3-14a2.69,2.69,0,0,0-1.24-2.59c-3.72-2.85-6.26-6.77-9.27-10.26-3.86-4.48-2.9-8.55,2.62-10.92.91-.39,2.36-.69,2.18-1.73-1.13-6.74,3.18-4.11,6.29-3.85,2,.17,4.24.56,5.91-.19,3.6-1.62,7.44-1.22,11-1.16a63.4,63.4,0,0,1,16.88,2.91c3.76,1.12,7.43,1.37,9.15-3.18.88-2.31,2-4.9,1.72-7.2-.47-3.74,1-4.35,4.12-4.23,3.28.13,5.38-2.35,6.46-4.7.92-2-3-1.26-3.62-3.39,2.52-1.52,5.49,0,8.12-1.29,3.66-1.74,7.12-5.75,11.82-2a1.83,1.83,0,0,0,1.66-.5c1.72-5.28,6.51-2.86,9.85-3.9,5.37-1.67,10.57,1.32,15.9,1.14,4.71-.16,9.43-.56,14.11-1.16,3.05-.39,4.86.28,3.78,3.59-1.73,5.3,1.35,7.33,5.49,8.59C805,319,806.93,322.15,807,326.88ZM193.68,450.73c8.31-.14,8.56-.35,7.87-9a61.84,61.84,0,0,1,.52-11.85c.65-5.9.79-11.85,2-17.69.19-1-1.78-2.3.1-2.88,1.67-.52,2.1,1.17,2.53,2.43,2.86,8.56,7.6,16.2,12,24a83,83,0,0,0,6.79,10.41c2.57,3.33,6,2.78,9.54,1.35,2.37-1,4.89-1.62,4.68-4.92-.58-9.41.85-18.75.93-28.13.08-7.83-.35-15.67.09-23.47a99.85,99.85,0,0,0-.6-13.86c-.4-4.89-4.23-4.89-7.39-4s-7.54,1.91-6.88,6.41c1.65,11.38-1.35,22.79.67,34.12.19,1,0,2.22-1.14,2.47-1.78.39-1.51-1.29-1.88-2.28a96.94,96.94,0,0,0-7-15.4c-3.72-6.29-7.62-12.5-10.91-19-2.34-4.61-10.17-7.08-14.25-3.89a2.71,2.71,0,0,0-1.19,2.06c-.82,11.65-2.39,23.3-2.25,34.93.12,9.84-1.67,19.42-2,29.17C185.55,448.53,186.86,450.84,193.68,450.73ZM245.9,292.89a13.83,13.83,0,0,1,4.72,6.87c3,8.86,7.41,17,11.79,25.22s6.6,9.2,15.52,6.81c2.62-.7,3.45-1.91,3.39-4.53-.14-5-.44-10.06.22-15,2-15.16,3.4-30.34,2.23-45.63-.27-3.58-.54-7.71-6-7.33-6.1.43-7.68,2-7.71,7.94-.05,10,.44,20-1.51,29.88-.18.92.31,2.2-1,2.47s-1.52-1-1.93-1.88c-1.2-2.55-2.21-5.21-3.59-7.67-4.79-8.52-9.84-16.89-14.5-25.48-2.55-4.68-9.65-6.91-14.23-4.11a2.79,2.79,0,0,0-1.62,2.8c1.09,12.67-3.18,25-2.34,37.68.57,8.67-.58,17.28-1.18,25.92-.45,6.38.91,7.41,7.11,7.11,1-.05,2-.13,3-.15,3.33-.08,4.64-1.73,4.61-5.08,0-4.15.25-8.31.63-12.45C244.18,308.65,245.05,301,245.9,292.89ZM64.26,287.64c2,1.69,2.46,3.46,3.24,5.08,4.94,10.29,9.87,20.59,14.89,30.84,2.12,4.35,5.89,3.42,9.58,2.77,3.37-.59,5.27-2.22,5.68-5.84.69-6.1-.27-12.23.32-18.28a159.91,159.91,0,0,0-2.22-48.52c-.66-3.12-2-5.41-5.92-3.37a9,9,0,0,1-3.41.48c-2.52.2-3.76,1.59-3.15,4,1.4,5.43.63,11,.79,16.41.18,6.31,1.68,12.53,1,18.86-.13,1.3.06,3-1.65,3.14-1.39.11-2-1.5-1.84-2.54.47-3.18-2-5.16-2.94-7.72C74.73,272.36,67.61,263.38,63.15,253c-1.44-3.34-12.56-3.58-13-.55-.59,3.66-1.49,7.34-1.13,11.23a170.3,170.3,0,0,1,.44,17.65c-.08,6.37-1.27,12.82-.56,19.07.81,7.09.49,14.17,1.07,21.22s2.9,8.6,8.4,6.05c1.34-.62,2.84-.93,4.2-1.52,1.11-.48,2.33-1.46,1.89-2.63-2.1-5.57.53-11.25-.61-16.8C62.53,300.5,63.36,294.34,64.26,287.64Zm3.67,127-1,.4c-4-9.58-8.13-19.13-12-28.76a70.93,70.93,0,0,1-2.6-9c-.42-1.65.65-4.63-1.67-4.55-3,.1-8.33-.78-8.77,1.23-.86,3.95-4.49,6.4-4.59,10.25-.22,9.23-4.27,17.76-4.69,26.93-.51,11.11-1.46,22.23,1.58,33.19a4.64,4.64,0,0,0,3.69,3.58c7.37,1.68,10.32-1.44,8.82-8.79-1.87-9.17-2.65-18.43-.8-27.73.18-.9-.06-2.27,1.19-2.49,1.65-.29,1.78,1.35,2,2.32,2.87,10.38,7.94,19.61,13.76,28.62,4.43,6.86,5.46,7.71,13.63,6.71,4.5-.55,6.27-3.65,6-7.2-.88-10.26.66-20.38,1.13-30.54.52-11.12.55-22.22.43-33.34,0-2.61-1.68-4.73-3.82-4.26-2.86.64-6.1,0-8.62,1.83s-.51,4.3-.69,6.48C70,391.21,68.93,402.93,67.93,414.64Zm234.75-22.26c0-4.33,0-8.65,0-13,.05-7.24.06-7.24-6.81-8.43-4.13-.71-6.73,1.2-7.17,5.32-.74,6.9.77,13.91-1.17,20.78-.62,2.21.8,5.4-3.17,5.56-3.44.13-6.41-.29-7.65-4.49-2.09-7.13-4.58-14.15-7-21.17-1.18-3.44-3.76-4.85-7.37-4.44a43.08,43.08,0,0,1-5.43.46c-3.58-.05-4.48,1.59-3.25,4.72,2.81,7.1,5.47,14.26,8.56,21.23,1.37,3.09,1.09,5.05-1.42,7.4-3.47,3.25-7.83,6.51-9.38,10.66-3.91,10.41,1.09,22.62,10.36,29.15,2.59,1.82,5.24,2.31,8.34,2.56,10.18.84,19.92-3.53,30.17-2.18,2.58.34,4.47-2.17,3.08-5.3-.61-1.36-1.52-2.55-1.34-4.18C303.74,422.18,301.59,407.26,302.68,392.38ZM258.34,81.24h-1.25c-.94,14.25,10.2,25.18,24.38,23.69a67.53,67.53,0,0,0,9.72-1.33c3.3-.86,7.18.6,10-2.25,3.38-3.45,6.8-6.86,10.11-10.38.88-.93,2.46-2.3,1.77-3.35-2.67-4.13-.11-8,.48-11.78,1.53-9.78,0-19.61,1.3-29.41.78-5.78-1.84-10.79-6.42-15.29-6.52-6.4-13.26-7.94-21.53-4.81a9.51,9.51,0,0,1-3.91.6c-10.94-.84-24.85,14.22-24.65,26.82C258.45,62.91,258.34,72.07,258.34,81.24Zm24.55,96c0-4.5-.31-9,.09-13.48.41-4.61-2.14-8.7-1.7-13.27.31-3.28-1.06-5.61-4.72-5.53-8.11.17-9.75,1.18-9.34,6.14.55,6.61,1.55,13.17,2.19,19.77.23,2.32.18,5.5-2.91,5.32s-7.6,1.9-9.18-3.35c-2.06-6.83-6.39-12.61-9-19.2a25.42,25.42,0,0,0-3.42-6.05c-3.19-4.1-7.38-2.39-11-1-4,1.56-1.78,4.73-.8,7.21,1.47,3.71,2.68,7.68,4.92,10.89,5.56,8,4.35,14.05-2.61,20.83-6,5.82-6.83,14.85-3.61,21.86,5.89,12.84,15.19,17.17,29.54,14.7,4.73-.82,9.44-2.06,14.31-1.79,3.78.21,5.6-1.49,5.6-5.24C281.27,202.37,283.93,189.86,282.89,177.19Zm12.38,16.74a28.84,28.84,0,0,1,0,3.48c-1.49,11.63,13.18,22.78,23.33,20.85,5.81-1.1,11.86-1.5,17.5-3.29,12-3.81,12.22.16,12-15.36a11.08,11.08,0,0,0,0-2c-2.31-10.82-.65-21.85-1.56-32.79-.57-6.74-.13-13.79-.46-20.7-.22-4.55-2.47-6.52-6.77-5.5-7.91,1.88-16.12.6-24.08,3.26-6.32,2.12-17.5,11.24-18.91,17.88C293.82,171.08,294.9,182.52,295.27,193.93Zm-103.9,21.44c7.91,1.5,15-.61,21.8-4.6a11.82,11.82,0,0,0,6.15-7.93c3.38-14.36,1.78-28.59-1-42.79a8,8,0,0,0-3.49-5.27,40.55,40.55,0,0,1-7.86-7.62,9.23,9.23,0,0,0-6.78-3.61c-6.14-.41-12.26-1.39-18.39-1.36-8.63.05-14.53,5.8-20,11.48-1.79,1.85-2.71,5.11-2.93,7.8-1,12.66.49,25.2,2.53,37.68a4.28,4.28,0,0,0,1.06,2.2c7.27,7.54,13.84,16.43,26.43,13.88A9.52,9.52,0,0,1,191.37,215.37ZM116.11,370.64c-6.6-.13-12,.22-15.86,5.6-4.62,6.43-9,12.17-8.79,21.26.23,9.35-2.16,18.73-1.34,28.39.92,10.71,9.57,21.9,20.07,24.08,3.44.71,6.57-.7,9.89-.79,8.3-.22,17.75-10.23,18.25-18.5.45-7.4,1.57-14.76,2.31-22.14.77-7.62.73-15.66-2-22.45C134.73,376.33,127.35,369.24,116.11,370.64ZM231.92,90.26c0,2.16,0,4.32,0,6.48-.1,9.18-.11,8.93,9,8.75,4.13-.08,5.75-1.78,5.94-5.5.11-2.16.08-4.33.1-6.49.11-10.62.49-21.25.19-31.86-.14-5,1.93-9.88.65-14.76-2.41-9.15-13.62-17.39-23.07-17.47-4.64,0-9.31.46-13.89-1a5.7,5.7,0,0,0-5.57,1.46c-3.35,3-6.63,6-10,9A7.25,7.25,0,0,0,192.56,45a117.5,117.5,0,0,1-.49,14.22c-1.1,11.3-.84,22.53-.49,33.78.28,8.87.9,9.05,8.89,11.18,3.56,1,5.41-.85,5.83-3.61.63-4.21,1.35-8.44.79-12.86-.46-3.65-.77-7.51-1.14-11.09-.52-5.06,1.71-9.88.34-14.7-1.51-5.3-.33-10.7,1.57-15.09,3.33-7.71,10.78-3.12,16.47-3.37a7.39,7.39,0,0,1,7.43,5.47c2.37,7.69.62,15.7.9,23.51A135.91,135.91,0,0,1,231.92,90.26Zm133,327.5a230.34,230.34,0,0,0-1.69-26.69c-.55-4.86-1.94-9.27-6.1-12.46a21,21,0,0,1-3.88-4.49c-2.37-3.27-5-5.39-9.55-4.88-4.11.46-8.31,0-12.46.09-8.33.1-19,11.27-19.56,19.64-.37,5.54.94,10.87,1,16.27.09,10.31.58,20.6,1.13,30.89.44,8.29.4,8.29,8.69,9.44a6.74,6.74,0,0,1,1.89.61c1.7.8,3.16.71,4.46-.83a3.83,3.83,0,0,0,.52-4.6c-2.2-4.45-2.22-9.55-2.27-14.13q-.18-17.33-.85-34.65c-.19-5,2.67-7.7,6.3-9.1,4.09-1.57,8.76-2.34,12.38,1.9,4.72,5.54,3.79,12.4,4.49,18.83,1.46,13.39-.53,27,2.49,40.33.22,1,.08,2.08,1.15,2.57,3.59,1.64,7.29.73,10.73-.23,3.27-.9,2.33-4.26,2-6.46C364.54,432.34,365.26,424.85,364.94,417.76ZM190.43,334.22c7.57.83,15.94-1.14,24.4-1.51,2.68-.12,4.2-1.56,4.32-4.46.42-10,.49-20,1.27-30.06.75-9.56,2.2-19.21.24-29.06-1.38-6.87-4-10.79-11.17-10.75-6.82,0-13.73.67-20.37-1.15-5.6-1.54-11.22-1.19-16.86-1.34-2.52-.07-4.93,1-4.57,3.35.48,3.19-.68,7.58,3.11,9.26,2.58,1.15,5.82.93,8.78,1.14q11.68.81,23.38,1.43c2.48.13,3.68,1.33,3.7,3.72,0,1.66-.1,3.33-.2,5-.6,10.73-1.32,11.49-12.17,9.43-4.26-.8-5.79.24-6.1,4.44-.55,7.66-.2,8.51,5,8.73,12.61.54,12.49.53,12.08,13.3-.12,3.7-1.59,4.94-5.07,5-8.8.17-17.6.58-26.4.82-2.46.06-5.2.13-5.37,3.11-.21,3.56-2.74,7.51,1.08,10.76a2.74,2.74,0,0,0,3.2.56C178.12,333.41,183.86,334.49,190.43,334.22Zm157.76-59.07c.22-3.86.17-7.2-2.72-10.67-6-7.24-12.41-12.22-22.43-8.69-1.05.37-2.32.07-3.47.23-12.76,1.78-21.75,10.72-23.42,23.7-1.77,13.78-3.34,27.6-4.87,41.41-.84,7.65,2.68,10.76,10.33,9.49,2-.33,3-1.16,3.51-3.39,1.28-5.44,1.19-11,1.12-16.41-.12-10.91,4.09-21.18,3.95-32.1-.08-6.62,14.8-13.72,20.49-10.12a6.72,6.72,0,0,1,3.46,5.76,20.53,20.53,0,0,1-.27,5c-2.63,10.16-2.7,20.68-4.61,30.94a66.09,66.09,0,0,0-1.32,15.39c.14,2.93,1.5,4.34,4.28,4.34,7.47,0,9.2-1.65,9.87-9.17a12,12,0,0,1,.19-1.48C345.43,304.76,346.19,289.87,348.19,275.15ZM146.72,167.5V142.56c0-1.52,0-3-1.49-4-5-3.28-12.2.09-12.52,6.12A65.15,65.15,0,0,0,134,162.57c.69,3.05-.06,4.6-3.6,3.5-3.8-1.18-7.64-2.26-11.5-3.2-8.67-2.11-12.7,0-17.38,7.47-5.11,8.13-4,16.42-.93,24.4,2.9,7.42,8.45,14.15,16,16.17a64.44,64.44,0,0,0,26.73,1.43c4.61-.73,6-2.49,6.06-7.07C149.42,192.62,145.36,180.22,146.72,167.5Zm236.75,85.69c-2.53.19-7.44-2-7.32,3.66.37,18.14-3,36-4,54-.17,3-1.34,4.53-4.15,4.17-3.57-.46-6.94.56-10.39.91-5.23.52-4.39,4.68-4.12,8s2.08,5.83,6,4.67c5.12-1.52,9.79-.15,14.51,1.56,1.22.44,2.85,1.25,3.77.8,4.86-2.33,9.81-.49,14.69-.65a22.41,22.41,0,0,0,7.81-1.41c4-1.64,3-5.69,3.35-8.65s-2.84-2.72-4.89-2.89c-2.82-.23-5.66-.08-8.49-.22-3.17-.15-4.46-1.5-4.38-5.09.21-10.15,2-20.14,3.16-30.16.88-7.39.4-14.85,2-22.21C392.06,254.35,390.79,253.56,383.47,253.19Zm20.61,130.45c0-1.82-.08-2.82,0-3.81.35-3.95-.22-6.87-5.33-6.88-8,0-8.47-.12-7.9,6.12,1.43,15.54.56,31.13,1.73,46.66.51,6.74-.82,8.35-7.38,9.39-1.48.23-2.94.59-4.4.89-8.78,1.76-7.42.71-6.71,9.15.49,5.75,1.41,6.28,6.89,5.18,9.22-1.85,18.5-1.33,27.79-.53a98.46,98.46,0,0,0,10.45.21c3.1-.07,4.31-1.78,4.11-4.92-.55-8.17,1.57-8.32-8-8.25a22,22,0,0,1-4-.38c-3.14-.54-4.71-1.83-4.68-5.64,0-5.56.61-11.32-1.73-16.71a3.58,3.58,0,0,1,.32-3.32,12.12,12.12,0,0,0,.74-9.25C404.36,395.36,405.45,389,404.08,383.64ZM172.67,90.09c-2.45.8-5.21-.79-8.13-1.31-2.64-.47-3.26-2-2.87-4.73a103.31,103.31,0,0,0,.74-12.33c.31-14.44-1.36-28.72-3.8-42.93-.38-2.2.34-5-3.06-5.31-3.22-.24-9.58,3.74-9.2,5.86,1.35,7.44.19,15,1,22.39.94,8.75,1.89,17.5,1,26.32-.83,8.56-1.36,9-10.13,8.25-.33,0-.67,0-1-.08-5.5-.8-7.35.36-8.76,5.52-1,3.65.49,5.79,4.3,6A262.36,262.36,0,0,1,172.19,102c4.61.92,7.29-1,7.61-4.74C180.35,90.67,179.81,90.07,172.67,90.09ZM107.48,320.21c.35,2.71-.81,5.15,1.7,6.13a48.65,48.65,0,0,0,8.13,2.31c2.35.46,3.36-1.06,4.32-3.16,1.67-3.68,0-7.2.07-10.77.17-10.26,2.78-20.32,1.43-30.74-1.25-9.72-1.9-19.51-4.37-29-.61-2.36-2.14-4.07-5.19-3.37-2.33.54-5.39-.21-5.69,3.39a23.31,23.31,0,0,0,.18,7.42c2.75,10.89,2,21.93,1.54,32.92C109.26,303.91,109.14,312.54,107.48,320.21Zm370.38,5.46c-2.77-2-.62-7.91-4.74-7.72a16.74,16.74,0,0,1-11.8-3.74c-2.1-1.6-3.51,1.07-2.9,2.24,2,3.8,1.33,8.4,3.91,11.92.81,1.1,1.82,2.5.89,3.6-3.19,3.78.28,5.86,1.85,8.48a4.07,4.07,0,0,0,5.1,2c1.77-.71,3.47-2.49,3-4.66-.76-3.85.55-6.71,3.19-9.31A11.29,11.29,0,0,0,477.86,325.67Zm26.46,38.75c-3.57-1.84-4.91-3.52-4.35-6.36.28-1.39-1-2.43-2.38-2.67-.92-.16-1.78.41-1.38,1.41,1.72,4.24-.18,4.65-3.66,3.69-1-.26-2.12-.2-2.42,1-.36,1.47,1,1.31,1.84,1.66C495.38,364.63,498.9,365.05,504.32,364.42ZM493.8,314.71c1.25,0,3,.83,3.38-1s-1.72-1.63-2.71-2.37c-2.77-2.07-6-.06-9-1-1.15-.36-2.05,2.31-2,4a1.16,1.16,0,0,0,1.81,1C488,312.76,491,314.7,493.8,314.71Zm8.83,25.45c-1.7,1.64-3.22,3.51-5.85,1.88-1.12-.68-2.23.43-2.76,1.48a1.88,1.88,0,0,0,.73,2.6c2.07.8,4.35,1.87,6.43,1.65s.72-2.78,1.24-4.21C502.73,342.7,503.83,342,502.63,340.16Zm287-21.51c-.75-2.78-3.28-3-5.47-3.28-1.75-.23-3.67.93-3.09,2.86.93,3.11,4.32,1.19,6.41,2.34C788.6,321.18,789.64,320.22,789.63,318.65ZM507.32,345c-1.74,3-3.42,5.51-4.68,8.25-.29.62,1.24,1.5,2.29,1.1,3.54-1.34,2.2-5.08,3.52-7.54C508.59,346.59,507.86,345.86,507.32,345Zm41.48-12.56c-1.09.14-2.73.12-2.38,2.07a3.39,3.39,0,0,0,3.51,3c1.46,0,2.79-.64,2.69-2.26C552.5,333.19,550.82,332.68,548.8,332.48Z" transform="translate(-0.91 -0.91)"/><path d="M588.23,146.29c-4-3.16-3.48-10.06,1.73-14.74,3-2.72,3.41-4-1-4.84-1.56-.3-1.93-1.29-1.14-2.53,1-1.63-.31-4.58,3.07-5,1.62-.21,4.65,2,4.73-1.36.06-2.45-3-2.84-5-3.37-2.51-.65-4.23.46-4.4,3.26,0,.57-.1,1-1.36,1.06-.73-4.64.85-8.85,2.3-13.08a1,1,0,0,1,.31-.38c.49-.41,12.61,3.75,12.47,4.3-1.2,4.68,2.6,5.59,5.4,7.08,2,1,4.1,1.86,5,3.94s4,4.85-1.17,5.89c-.44.09-1.12,1.31-1,1.41,2.55,2.78,1.77,8,4.6,9.44,3.75,1.9,3.24,4.35,3.41,7.21.11,1.86-.83,4.11,1.74,5.21,2.38,1,4.26.85,6.25-1.2,2.36-2.44,6.11-3.65,8.69-1.72,5.57,4.15,11.7,3.41,17.7,3.09,4.55-.25,6.18.92,7,5.6,2.39,13.16-2.11,24.26-9.26,34.64-2.64,3.83-8.2,3.25-13.24-1.5-6-5.61-12.7-8.11-20.83-7.06-6.13.8-13.22-.33-18,3.55-5.18,4.18-6.91.3-10-1.82a42.81,42.81,0,0,0-7.53-3.79c-2.46-1-3.32-2.38-2.19-5,.9-2.09,1.38-4.31,4.48-2.9a3.19,3.19,0,0,0,1.83,0c.8-4.09,6-4.07,7.21-7.9.84-2.56,1.63-4.43-1.15-6.46s-1.16-6.08-3.56-8.71C584.42,147.69,588.32,148.6,588.23,146.29Z" transform="translate(-0.91 -0.91)"/><path d="M691.05,178.13c-1.74-6.87.45-12,2.37-17.18.75-2,2.62-.17,4-.16,1.11,0,2.58.53,2.89-1.06.22-1.14-1-1.67-1.92-1.95-2.37-.75-4.8-1.32-7.19-2-1-.27-2.09-.64-1.95-1.87a1.57,1.57,0,0,1,2.27-1.24c4.2,1.62,4.31-1.18,4.57-4,.14-1.55.39-3.42-1.4-3.78-2.13-.42-1,2.29-1.74,2.74a62.74,62.74,0,0,1-10.16,5c-.76.27-2.79-.28-5.35-1,3.72-1.08,7.1-1,7.07-5.12,0-1.53,1.42-1.35,2.68-1.25a5.28,5.28,0,0,0,5.77-6.12,1.37,1.37,0,0,0-1.2-1.33,2.2,2.2,0,0,0-2.12,1,17.78,17.78,0,0,1-11.45,6.79c-1.24.2-2,1.07-3,1.73-4.57,3.17-7.2,2.55-9.39-2.44-2.42-5.54-5.82-11-6.52-16.82-.51-4.24-2.44-8.74-1.13-13,1.06-3.46,5-3.78,7.89-4.75,1.87-.62,3.83-.67,5.32-2.25a5.93,5.93,0,0,1,6.1-1.35c6.89,2,13.89,1.83,20.9,1.5,3.13-.15,4.61.66,3.18,3.91-1.6,3.64-.7,5.05,3.26,6.8,4.73,2.11,9.6,3.62,14.45,5.25,1.91.65,4.4,1,6-.93,1.48-1.7-1.06-2.44-1.48-5.06,3.77,2.92,8.09,3.15,9.77,7.86,1.25,3.52,5.29,2.31,8,3.23,1.79.62,3.36.51,3.93,2.76a2.61,2.61,0,0,0,3,2.13,6.69,6.69,0,0,0,4.49-2.88c1-1.48-.78-1.71-1.75-2.21-1.19-.63-2.53-1.43-1.92-3s2-.69,3.05-.6,2.93,1.31,3.45-.5a15.5,15.5,0,0,0,.43-6.32c-.16-1.13-1.62-.9-2.2.19s-.28,2.35-1.48,3c-2.09-.43-1-2.14-1.43-3.22-.58-1.55-.9-2.18-2.57-.45-3.83,3.94-13.32,1.39-14.45-3.91-.53-2.52-3.34-3.28-3.55-5.06a158.73,158.73,0,0,1-.7-16c-.05-2.4,1.46-3,3.67-2.83s2.81,1.44,2.83,3.34c0,.49,0,1,0,1.49,0,2.5,4.37,2.71,3.43,4.91-1.31,3.05-3.5-1.37-5.52-.15s-1.71,3-1.82,4.83c-.13,2.28,1.35,3.28,3.14,4,2,.76,2.77-.14,3.4-2.21.8-2.67,3.35-1.17,5.16-1.27,1.28-.07,2.82.61,3.3-1.25s-.87-1.79-2.07-2a1.06,1.06,0,0,1-.93-1.44,1.18,1.18,0,0,1,1.48-1,5.56,5.56,0,0,1,4,3.5,2.64,2.64,0,0,1-1.47,3.74c-1.89.89-5.06,1.42-3.39,4.15,1.41,2.31,3.9,4.88,7.2,4.43,2.51-.34,6.35-1.41,6.71.8.69,4.26,3.65,8.24,2.15,12.82-.13.42-.61,1.09-.83,1.05-4.22-.71-4,.81-2.39,3.92.78,1.46-3.88,4-6.31,3.39-7.42-1.79-21.88,4-25.73,10.39-.91,1.52-2,2.81-3.74,3-4.1.49-5.67,3.31-7.28,6.63-2.87,5.93-8.44,9.19-13.63,12.81-2.78,1.93-3.76,7.34-8.92,4.28Zm-14.24-68.4c-1.74-.17-3.37-1.08-3.72.94s1.3,2.61,2.77,2.84c4,.66,8.14,1.11,12.21,1.66,1.42.19,3.21,1,3.73-1.06s-1.38-2.88-3-3.2C684.71,110.08,680.65,108.25,676.81,109.73Zm22.42,32.45c1.31,0,2.62,0,3.93,0a1.2,1.2,0,0,0,1.24-1.25,1.52,1.52,0,0,0-.88-1.08c-2.8-1-5.52,0-8.07.87-1,.32-.27,1.86.91,2A10.43,10.43,0,0,0,699.23,142.18Zm45.23-7.2c-.92-1.49-1.72-3.27-3.89-3.27-1.78,0-2,1.27-2,2.77.08,2.5,1.79,2.38,3.5,2.32C743.24,136.76,744.5,136.8,744.46,135Z" transform="translate(-0.91 -0.91)"/><path d="M534.32,111.94c4.21.06,7.42-.4,10-2.91a7.92,7.92,0,0,1,7-1.79c6.45,1.74,10-2.14,13.91-5.76,1.89-1.76,4-2.3,5.66-.3,2.07,2.51,6.48,1.86,7.16,6.83.36,2.7,3.26.23,4.34-2.06,1.43,5.86.75,6.68-4.49,5.72a54,54,0,0,1-5.67-1.53c-6.51-1.92-13,.6-18.53,2.48A22.38,22.38,0,0,0,541,124.18c-4.33,9.26-7.18,19-11,28.45-2.33,5.79-5,11.06-3.28,17.49.54,2.08.35,4.32,2.28,5.84.84.67,1.34,1.59.52,2.56s-1.88.55-2.66-.07c-2.34-1.86-5.1-1.22-7.7-1.32-4.26-.17-8.43,1.46-12.87.08a8,8,0,0,0-7.44,1.63c-3.23,2.62-5.71,1.23-5.89-2.73a2.48,2.48,0,0,0-2.16-2.39c-1.72-.29-2.27,1-2.42,2.46-.11,1.09.33,2.72-1.49,2.43-1.44-.23-1.13-1.75-1.21-2.9-.39-6-3.77-10.91-5.48-16.42a1.81,1.81,0,0,0-1.13-.93c-7-2-8.13-9-11.66-13.86-3.41-4.68-2.24-6.24,2.82-8.58,5.46-2.51,11.12-3.88,16.94-3,5.28.76,10.11-1.95,15.52-.83,3.07.63,6,1.55,9,2.32a48.1,48.1,0,0,0,5.81,1.4c6.32.78,9.17-1.34,10.17-7.7a17.12,17.12,0,0,1,2.1-6.07c.75-1.27,1.78-2.91,3.47-1.78,1.16.78,1,2.57.1,3.61-1.32,1.46-2.22,2.94-1.66,4.89a1.14,1.14,0,0,0,1.7.48,6.91,6.91,0,0,0,3.06-5,16.79,16.79,0,0,1,2.58-8.69C540.76,112.78,536.66,113.25,534.32,111.94Z" transform="translate(-0.91 -0.91)"/><path d="M799.26,87.33c1,2.31,2.43,3.3,2.59,5.1.3,3.51-1.3,4.91-4.76,4.13-2.1-.48-4.28-.62-6.41-1s-3.4-1.75-3.54-4.13,1.13-3.27,3.21-3.57c.95-.14,2.23-.07,2.31-1.36.07-1.12-1-1.63-1.92-2.06a107.7,107.7,0,0,0-10.28-4.82c-1.69-.62-2.28-1.68-3.17-3.54-1.88,4.57-2.29,9.19-4.52,13.14-1,1.72-1.55,3.66-2.44,5.43a2.09,2.09,0,0,1-3.36.81c-1.93-1.37.31-1.74.77-2.47,2.82-4.48,1-9.32-4.26-10.88-1.29-.39-4.08-.15-3.09-1.91,1.19-2.1-.45-5.71,3.33-6.47,1.38-.27,3.66.94,3.9-1.78.08-.86-.88-1.2-1.4-1-2.17.67-5.12-1.88-6.58,1.49-.43,1-.17,2.7-1.9,2.16s-.66-2-.6-3.22c.14-3.19,1.05-4.74,4.56-4,2.56.51,2.09-3.14,3.92-3.61,1.63.74.89,1.81.84,2.72-.06,1.14.28,2.06,1.55,2a1.89,1.89,0,0,0,2-1.87c-.1-6.25,4-6.73,8.72-6.55,2.29.08,4.35-.05,6.32-2,2.22-2.22,11.58,1.14,12.5,4.26.64,2.17,2.52,1.83,3.91,2.5,2.85,1.39,6.62,1.72,5.75,6.62-.41,2.31,2.23,2.55,3.79,3.29s3.22,1,4.64,1.77,2.23,1.7,0,3.17c-5.42,3.59-5.33,4-.71,7.7,3.08,2.46,4,11.56,1.49,14.7a6.92,6.92,0,0,0-1.57,2.48c-.72,3.43-2.32,3.71-4.75,1.56-2.64-2.34-5.45-3.09-8.47-.85-1.52,1.12-2.56.46-3.3-.76-.91-1.5.4-2.15,1.47-2.51,2.19-.72,4.19-2.85,6.48-2.21,4.28,1.21,3.52-1.4,2.42-3.21a16.06,16.06,0,0,1-2.26-5.89C805.74,86.61,802.69,87.23,799.26,87.33Zm-6.56-5.85c1,.26,2,.6,2.59-.56a1.52,1.52,0,0,0-.76-2.09,4,4,0,0,1-2-4.6c.21-1.17-.86-2.29-1.72-1.69-2.21,1.53-5.92,2.34-6.13,5-.22,2.85,3.08,3.29,5.62,3.53C791.07,81.19,791.88,81.35,792.7,81.48Z" transform="translate(-0.91 -0.91)"/><path d="M565.17,273.79c4-1.69,7.11.48,10.39,1.33,2.53.65,4.06-.27,6.43-1.53,5.11-2.71,7.84-7.17,11.49-11,1.78-1.87,10.59-.69,12.77.59,5.09,3,7.45,8.72,12.42,11.71a12.29,12.29,0,0,0,2.59,1.45c1.77.52,4.75-.21,4.52,2.52a5.46,5.46,0,0,1-4.17,4.47c-1,.22-2.17.09-2.33,1.35-.19,1.51,1.18,1.92,2.23,2.29,4.5,1.57,6.45,4.51,4.82,9.18-1.13,3.23,2.43,4,3.4,6.78-4.06-1.27-6.11-.45-5,3.92.34,1.27-.88,2-2,2.51-.92.37-1.57-.14-2.21-.71-6.59-5.87-6.59-5.87-10.61.68-1.93-4.13.34-8.25,5.07-9.24s5.39-2.27,2-5.72A3.29,3.29,0,0,1,616,291c.38-2-1.29-2.94-2.84-3.58-1.8-.75-2.85.34-3.36,1.95-.68,2.15-4.36,3.14-2.4,6.33a1.07,1.07,0,0,1-.8,1.54c-3.57.17-6.64-1.06-9.76-2.89-2.77-1.62-.07-4.08-1.63-5.71-.35-.37.27-1.28,1.05-1.31a1.93,1.93,0,0,1,1.28.49c.9.89.48,2.7,2.44,3.19,2.17-2.9,3-5.36-1.55-7-3.25-1.16-6.48-2.25-9.25-4.59s-4.7-1-4.68,2.41c0,5.27-3.15,9.12-5.42,13.39-.39.74-1,1.51-2,1-1.33-.73-.3-1.59,0-2.48,1.34-4,2.76-8.12-2.66-10.46-.28-.12-.75-.47-.72-.58C576.16,274.73,567.63,277.5,565.17,273.79Zm36,8.45c4.58.74,1.67-4,3.47-5.42s1.37-2.95-.52-3.77-2.92.57-3,2.22c-.07,2.61-.68,3.56-3.08,1.7-1.23-1-2.19-.44-2.83.76s-.13,2.22.94,3A8.43,8.43,0,0,0,601.12,282.24Z" transform="translate(-0.91 -0.91)"/><path d="M792.85,408.39c-.8,5.85,1.79,6.49,5.39,6.8s7.09,2.24,10.75-1.42c1.49-1.5,5.58,1.06,8.55.3.74-2.54-2.82-2.26-2.6-5,4,.64,7.94,1,11.76,2,2.81.74,4.81.67,6.28-2.11.67-1.26,2.08-2.18,3.34-1.39s.35,2.17-.12,3.46c-2.88,7.78-7.45,10.27-15.61,11.47-13,1.9-25.69-.16-38.57-1-8.25-.56-16.53-1.83-24.85-1.74-1,0-2.58.63-2.81-1.12-.16-1.19,1.08-1.49,1.91-2s1.93-1,2.27-1.79c1.51-3.4,3.28-2,4.93-.34,2.86,2.85,5.28,7.44,9.63,1.62.29-.4,1.6-.22,2.38,0,2.3.5,4,.48,3.73-2.68-.12-1.2.46-2,1.8-1.19C785.94,415.11,788.67,414.56,792.85,408.39Z" transform="translate(-0.91 -0.91)"/><path d="M579.31,215.38h9.06c.56-2.15-2.62-1.7-1.93-4a51.4,51.4,0,0,1,6.92.77c2.32.57,3.93.41,4.61-2.17.21-.8.35-1.74,1.57-1.21a1.54,1.54,0,0,1,.86,2.07c-.92,2.66.6,3,2.72,3.33,3.65.59,7.24,1.53,10.85,2.32,2.54.55,4.59-1.47,6.29-1.77,4-.71,6.33-2.79,9-5.18,1.19-1.07,2.82.39,4.16,1,2.76,1.16,5.46,2.36,6.74-1.83.22-.72.69-1.18,1.42-1,1,.25,1.07,1.09,1.06,2-.1,4.8-2.6,8-6.69,10.21-8.38,4.46-17.82,6.29-26.56,4.27-7.26-1.68-14.72-1.11-21.76-3.41-2.71-.89-4.78,2.38-7.63,1.12-1.18-.52-3.23-.43-2.7-2.1s1.87-.25,2.81.3a1.34,1.34,0,0,0,1.8-.13c.75-.87.2-1.53-.51-2S579.59,217,579.31,215.38Z" transform="translate(-0.91 -0.91)"/><path d="M645.66,356.61c-.64,2.9,2.06,8.25-5,6.42-.81-.21-2.08-.22-2,.77.41,5.37-2.14,3.31-5.3,2.94-2.9-.35-6.23,2.08-7.46,5-1.32,3.18-4.09,6-3.53,10.28,1.17-5.5-5.77-6.47-5.57-11.36.06-1.65-1.74-1.7-3-2a1.9,1.9,0,0,1-1.76-2c.07-1.21,1-1.5,2-1.8,10.55-3.12,14.33-7.72,15.35-18.5a17.92,17.92,0,0,1,.71-3.92c.51-1.57.83-4.75,2.69-3.61,1.66,1,6.67.71,4.49,5.38-.93,2-.16,3.14,1.86,3.71,1.15.33,3.42.13,2.77,1.91-.78,2.17-.8,4.4-1.45,6.51-.27.88-1.44.28-2.2,0-1.13-.44-2.44-.85-2.8.8s1.13,1.69,2.18,2.15C641.75,361.1,641.74,361.12,645.66,356.61Z" transform="translate(-0.91 -0.91)"/><path d="M832.32,180.38c4.66-1.32,7.59,1.37,11,.92.85-.11,2,.83,1.54,1.46-1.91,2.77.55,8.09-5.6,8.57-2.56.2-4.17,4.84-8,2.75-.23.58-.69,1.18-.65,1.74a1.65,1.65,0,0,0,2.06,1.62c1.66-.32,3,0,2.39,1.86-2.2,6.7,1.33,13.14.62,19.75-.29,2.68.07,5.64-4.09,5.28a2.46,2.46,0,0,0-2.58,2.53c-.23,3.53-2.44,4.34-5.06,3.47-5.07-1.69-10.3-.85-15.65-1.69,4.6,1,6.48-4.63,10.82-3.92a2.35,2.35,0,0,0,1.81-1.41c.56-2.73.93-5.38,4.84-3.59.24.11,1.27-.68,1.34-1.14.36-2.27,1.31-3.57,3.85-3.57a1.14,1.14,0,0,0,.76-2.08c-2.73-1.78-1.52-3.88-1.07-6.14.57-2.87,1.48-5.81-2.1-7.89-2.22-1.3-1.3-4-.94-6,.41-2.35,2.4-1.7,4-1.43s3.21-.11,3.13-2.11C834.65,186.31,838.84,182.52,832.32,180.38Z" transform="translate(-0.91 -0.91)"/><path d="M830.32,166.91c-.44-4.81-5-3.89-7.35-5.78a1.45,1.45,0,0,0-2.28,1.07c-.48,2.56,2.16,1.86,3.56,3.09-5,1-7.75,4.85-11.08,7.82-1,.93-2.58,2.48-2.79.8-.63-5.15-5.18-4.89-8.07-6.9-.37-.27-.67-.64-1.47-1.4,5.92-.88,11.46-1.84,12.91-8.54a1.37,1.37,0,0,1,1.16-.68c5.79,1.74,5.26-2.51,4.86-5.61-.47-3.71,2.92-6.18,2.41-9.86-.17-1.16,1.86-2.42,3-1.5,1.43,1.14,4.62,3.09,3.5,4.08-2.37,2.1-.47,2.44.33,3.74,1.71,2.76-.28,5.56-1,8-.84,2.82-1.26,4.08,1.94,5.12C834.56,161.83,830.63,164.58,830.32,166.91Z" transform="translate(-0.91 -0.91)"/><path d="M772.44,206.24a49.49,49.49,0,0,1,5.73.88c2.52.69,4.29.36,4.85-2.52.16-.83.31-1.79,1.39-1.73s1.22.95,1.27,1.82c.41,7.89,4.46,14.53,8.13,21.07,1.33,2.38,3.09,5.67,6.52,6.67,1.81.52,2.09,2,1.67,3.63-.51,2-2.06.89-3.26,1.07-4.69.69-9.36,1.58-14,2.4-1.18.2-2.54,1.76-3.51.06-.83-1.43.82-2.32,1.46-3.42,1.19-2,2.89-2.28,5.13-1.93,1.91.31,4.14.68,2.74-3.05-1.09-2.89.14-6.74-4.19-7.93-.31-.08-.62-.85-.61-1.29.13-5.56-4-7.31-8-9.69-2-1.22-3.34-3.8-6-4.78Z" transform="translate(-0.91 -0.91)"/><path d="M563.53,407.86c-5.26,3.3-11.65-5.37-15.58,2.6-1.05-.08-.86-.9-.63-1.4,1.52-3.17-.28-5.27-2.57-6.71s-4.69.89-5.49,2.18c-3.91,6.29-8.52,2.45-13.09,1.29,4.91-.25,9-2.68,13.37-4.37.91-.36,2.7-.84,2.44-1.28-2.49-4.21,3-4.42,3.41-7.07.13-.79.22-2,1.18-2,4.95,0,3-5.8,6.24-7.31a1.9,1.9,0,0,0-.92-3.13c-1-.25-2.22-.38-1.28-1.75a1.85,1.85,0,0,1,3-.26c1.24,1.63,2.59,3.15,1.63,5.8a80.65,80.65,0,0,0-3.81,15.4c-.45,3,.54,4.3,3.36,4.89S560.78,405.78,563.53,407.86Z" transform="translate(-0.91 -0.91)"/><path d="M695,416.75c0-2.77,1.15-3.2,3.77-3,3.07.19,7.76,3.79,8.7-2.87,4.66,1.45,7-1.89,9.89-4.47,1-.91,3.18-.52,3.87-2.48.19-.55,1.07-1.41,1.27-1.31,7.14,3.19,12.79-5.88,20.11-2.33,3.23,1.57,5.72-2.9,9.3-2.2,2.36.46,6.22-1.55,6.71,1.46.33,2-4.15,1.33-6.28,2.43a5,5,0,0,1-2.46.12c-7-.51-14-.28-19.73,4.09-2.6,2-5.12-.26-7.82,1.5A68.74,68.74,0,0,0,709.43,419c-1,1.13-2.06.89-3,.06C703,416.18,699.11,416.15,695,416.75Z" transform="translate(-0.91 -0.91)"/><path d="M752.75,237.67c-7.43-1.84-12.8,1.16-18.32,4.17-6,3.3-12.57,2.18-19,1.14-.24,0-.54-.8-.5-1.19a1.19,1.19,0,0,1,1.36-1.15c7.23,1.54,13.63-2.82,20.68-2.87,3.2,0,5.54-3,8.86-3.83C749.53,233,750.92,234,752.75,237.67Z" transform="translate(-0.91 -0.91)"/><path d="M741.63,185.72c1.82.25,2.27,1.22,1.71,2.51-1.85,4.25-1.53,8.56-.57,12.92.59,2.73,2.55,3.62,5,3.91.94.11,2.32.12,1.83,1.58-.42,1.27-1.65.83-2.53.39-2.23-1.15-4.86-.88-7.08-2.28s-3.43-3.52-5-5.44c-2.67-3.3,1.57-4.07,2.09-6.19s3-3.52,3.54-6A4.7,4.7,0,0,1,741.63,185.72Z" transform="translate(-0.91 -0.91)"/><path d="M760.09,352c-3.5-1.09-1.64-5.21-4-6.92-.65-.46,0-1.61.89-1.91,2-.72,3.92-.6,5.09,1.61a3.11,3.11,0,0,0,3.31,1.71c6.11-.76,8.77,3.24,11.15,7.82,1,2,.18,2.5-1.5,2.2-2.11-.37-4.29-1-5.33-3.16-1.79-3.81-3.95-5.83-7.78-2.11A5.68,5.68,0,0,1,760.09,352Z" transform="translate(-0.91 -0.91)"/><path d="M540,304.59c-2.34-6.71.91-12.34,1.67-18.24.14-1.15,1.37-1.26,2.42-.79s1.54,1.2.81,2.31c-1.49,2.26-1.08,3.7,1.74,4.18,1,.17,2.16.41,1.59,1.81a1.7,1.7,0,0,1-2.52.78c-1.43-.76-3-1.62-3.27.81-.21,1.66,1.14,2.18,2.72,1.87a3.89,3.89,0,0,1,3.15,1.19c1.24,1,4.29-.26,3.87,2-.52,2.77-3.19,1-4.54.55C543.93,299.64,541.13,299.56,540,304.59Z" transform="translate(-0.91 -0.91)"/><path d="M685.65,170.57c-2.65-.45-6.57,1.15-4.16-4.15a2.2,2.2,0,0,0-1.87-3c-3.89-.73-2.91-3.78-2.43-5.83.72-3,3.27-.89,4.94-.84s3.51.8,5.27,1.18c1.2.25,2.45.54,2.18,2.08-.21,1.12-1.25,1.46-2.34,1.22-1.37-.32-3.26-1.3-3.61.74-.28,1.63,1.75,1.59,3,1.7a1.89,1.89,0,0,1,1.93,2.31,1.62,1.62,0,0,1-2.27,1.21c-1-.36-1.93-2.11-2.83-.68C682.26,168.46,685.44,168.23,685.65,170.57Z" transform="translate(-0.91 -0.91)"/><path d="M514.49,222.82c-2.33-6.35-9-5.92-13.23-9.28,2-1.41,4-1.25,5.93-.86,2.38.47,4.2.47,5.94-2s5-.42,7.35-.11c.86.11-.8,2.45-1.91,3.33C515.88,216,513.87,218.41,514.49,222.82Z" transform="translate(-0.91 -0.91)"/><path d="M583,154.31c-.4,1.83-1.76,1.76-2.73,1.22-2.26-1.24-5-1.89-6.16-4.67-1.52-3.56-3.64-4.07-6.39-1.09-1,1.06-2.18,2.47-3.73.8s-1-3.31-.05-5.06,2.33-2.19,3.69-1.12c2,1.61,4.23,1.62,6.58,1.58,1.94,0,3.73.53,4.2,2.75C579,151.42,581.8,152.24,583,154.31Z" transform="translate(-0.91 -0.91)"/><path d="M683.07,237.6c8.27-1.12,14.93,4.13,22.58,4.53a.8.8,0,0,1,.45.22c1.27,1.23,4.53-1.6,4.26,1.31-.19,2.12-3.67,1.74-5.22,1.12-5.21-2.07-11.11-1.66-16-4.63C687.28,239,684.22,241.34,683.07,237.6Z" transform="translate(-0.91 -0.91)"/><path d="M568.67,219.74a7.87,7.87,0,0,1-1.22,0c-2.69-.45-7.16-.21-7.49-2.17-.44-2.56,4.48-2.43,6.12-4.94.59-.89,2.21-.48,3,.68,1.22,1.89,3.09,3.74,3.3,5.75C572.5,220.41,569.83,219.5,568.67,219.74Z" transform="translate(-0.91 -0.91)"/><path d="M553.72,199.54c-.14,1.39-1,1.51-1.49,1.42-6.24-1.06-11.33,2.44-16.86,4.19-1.08.34-2.21,1.34-2.86-.31-.46-1.17.67-1.79,1.5-2.24C540.18,199.23,546.64,197.63,553.72,199.54Z" transform="translate(-0.91 -0.91)"/><path d="M560.09,162c-1.35,1.31-1.92,4.08-4.28,3.3-3.25-1.08-6.55-2.36-9.18-4.78-.76-.7-1.46-1.54-.55-2.52.76-.81,1.49-.14,2.14.38,2.58,2,5.72,1.23,8.61,1.68C558.15,160.26,559.45,160.24,560.09,162Z" transform="translate(-0.91 -0.91)"/><path d="M481.45,220.13c-1.31-2.87,1-4.36,1.06-6.68,4.1,2.51,8.29,1.46,12.33,1.71,1,.06,2.27-.16,2.25,1.21s-1.31,1.26-2.31,1.26a30.32,30.32,0,0,1-5.48-.12C486.24,217,483.49,217,481.45,220.13Z" transform="translate(-0.91 -0.91)"/><path d="M723.7,229.83c3-.73,4.72-1,6.1-2.39,1.61-1.66,3.7-1.27,5.54-.27,1,.55,2.06,1.49,2,2.68-.14,1.55-1.64,1.37-2.76,1.37C731.3,231.23,728,231.63,723.7,229.83Z" transform="translate(-0.91 -0.91)"/><path d="M754.81,362.45c-2.59,5.41-7.49-.14-11.14,2.18-.78.49-2.27-2-2.29-3.3,0-1.71,1.56-1.15,2.66-.91C747.66,361.2,751.74,359.33,754.81,362.45Z" transform="translate(-0.91 -0.91)"/><path d="M789.77,113c-4.28.62-7.87,2.75-12.08,1.89C780,109.12,783.9,108.41,789.77,113Z" transform="translate(-0.91 -0.91)"/><path d="M670.58,376.73c-2.33-3.51-1.37-7.51-3.17-10.69-.32-.57.34-1.37,1.05-1.34,1.19,0,2.69.54,2.78,1.69C671.49,369.67,672.74,373.1,670.58,376.73Z" transform="translate(-0.91 -0.91)"/><path d="M542.65,428.13c-1.46-.59-4.34.55-4.16-2.06.12-1.83,1.81-4.3,3.88-4.4,2.24-.12,2.72,2.68,3.19,4.39C546.12,428.12,544.34,428.33,542.65,428.13Z" transform="translate(-0.91 -0.91)"/><path d="M593.47,315.34c-2.33,0-4.58,0-4.35-2.17.42-3.91,4.52-.95,6.39-2.82.7-.7,2,.39,1.88,1.47C597.1,314.43,595,315.05,593.47,315.34Z" transform="translate(-0.91 -0.91)"/><path d="M656,360.05c1.18.06,1.48.64,1.47,1.62,0,3.39-2.69,6.49-1,10.1.31.68-.54,1.12-1.25,1.11s-2-.21-1.76-1.19c1.06-3.51.15-7.3,1.69-10.69A3.87,3.87,0,0,1,656,360.05Z" transform="translate(-0.91 -0.91)"/><path d="M670.42,420.52c-1.15,0-1.07-1-1.27-1.72a22.9,22.9,0,0,0-1.13-3.72c-.51-1.1-2.17-2.05-.63-3.3,1.33-1.07,2.86-.07,4.18.42,2.17.81.91,1.89.09,2.93s.13,1.82.35,2.72C672.34,419.22,671.55,420,670.42,420.52Z" transform="translate(-0.91 -0.91)"/><path d="M541.74,138.91c5.08-1.41,7.09.25,8.28,3.07a2,2,0,0,1-1.38,2.77C544.22,145.11,545.92,140.09,541.74,138.91Z" transform="translate(-0.91 -0.91)"/><path d="M472.63,401.54c1.11,3.45.79,6.31-1.86,8.2-1,.72-3.06-.89-3-1.84C467.77,404.91,470.11,403.33,472.63,401.54Z" transform="translate(-0.91 -0.91)"/><path d="M690.87,411.81c.74,6.83,0,7.27-9.42,5.66C684,414.09,690.31,417.71,690.87,411.81Z" transform="translate(-0.91 -0.91)"/><path d="M738.58,340.44c1.83-1.6,3.61-.65,5.14.07,1.77.82,1,2.61.86,4-.07.95-.11,2.19-1.51,2.11s-1.73-1.38-2.29-2.39C740.07,343,739.33,341.75,738.58,340.44Z" transform="translate(-0.91 -0.91)"/><path d="M758.75,109.1c2.33,1.16,4.83,2.72,7.84,3,.67,0,.87,1,.46,1.6a1.63,1.63,0,0,1-2.17.59,18.94,18.94,0,0,0-6.92-2.2c-1-.19-2-.66-1.57-2C756.68,109.17,757.6,109.15,758.75,109.1Z" transform="translate(-0.91 -0.91)"/><path d="M778.14,230.56c-4.51-.7-9.11,2.2-13.59,0,0-.46,0-.91,0-1.37h13.62C778.18,229.63,778.16,230.09,778.14,230.56Z" transform="translate(-0.91 -0.91)"/><path d="M544.74,280.78c1.17-1.94,4.39.09,4.75-2.92.14-1.17-.08-3.2,2-2.56,1.28.41.7,2.1.25,3.1-.69,1.55.53,4.22-1.91,4.6A5.28,5.28,0,0,1,544.74,280.78Z" transform="translate(-0.91 -0.91)"/><path d="M831.88,401.55c-.21,1.21-1.19,1.59-1.8,1.16-2-1.43-5.65.54-6.53-3-.2-.8.81-1.72,1.59-1.2C827.24,399.9,830.5,398.82,831.88,401.55Z" transform="translate(-0.91 -0.91)"/><path d="M595.89,360.8c-.15,9.43-.15,9.43-6.63,5.72C593,366,595.41,364.48,595.89,360.8Z" transform="translate(-0.91 -0.91)"/><path d="M832.83,175.31c2.94-1.76,5.41-.61,7.62-1.22.85-.24,1.68,1,1.52,2.1s-1.1,1.56-2.2,1.25C837.7,176.85,835.65,176.18,832.83,175.31Z" transform="translate(-0.91 -0.91)"/><path d="M527.82,206.59c-.32,1.82-1.52,2.44-3.23,2.29-1.29-.12-3.35-.1-3-1.71.47-1.9,3.16-.7,4.62-1.85C527,204.77,527.72,205.59,527.82,206.59Z" transform="translate(-0.91 -0.91)"/><path d="M819.49,239.22c-1-.48-3.35.67-2.92-1.29.39-1.76,2.79-2,4.63-2.05,1.13,0,2.78-.09,2.62,1.39C823.52,240,821,238.67,819.49,239.22Z" transform="translate(-0.91 -0.91)"/><path d="M743,370.34c-1.57.23-2.94.37-4.28.65-.87.18-1.73,1.31-2.57.2a2.43,2.43,0,0,1,0-1.84c.46-1.47,1.74-1.43,2.84-1.1C740.29,368.64,741.87,368.64,743,370.34Z" transform="translate(-0.91 -0.91)"/><path d="M734.76,87.77c-1.27-.13-3.23.06-3.15-1.57.12-2.68,2.93-1.21,4.39-2.07s1.35.78,1.4,1.62C737.49,87.59,736.28,87.92,734.76,87.77Z" transform="translate(-0.91 -0.91)"/><path d="M682.55,231.47l1.44-5.31a4.89,4.89,0,0,1,2.26,5.18C686,232.26,684,232.13,682.55,231.47Z" transform="translate(-0.91 -0.91)"/><path d="M829.32,406.18a1.78,1.78,0,0,1-2.86,1c-1.34-.75-3.67.33-4.09-1.82-.24-1.22,1.38-1.7,2-1C825.75,405.89,828.37,404,829.32,406.18Z" transform="translate(-0.91 -0.91)"/><path d="M266.26,426.49c.34-6.52,2.41-8.71,8.9-9.17,3.61-.25,7.59-2.43,10.69-.54,3.61,2.2.43,6.92,1.86,10.14,2.32,5.24-.67,6.5-4.82,7.05-2.78.38-5.58.64-8.38.85C269.14,435.22,266,432,266.26,426.49Z" transform="translate(-0.91 -0.91)"/><path d="M300.24,53.52c-.78,8.9,0,17.86-1.24,26.8-.51,3.6-2.21,6.48-4.52,7.81A26.64,26.64,0,0,1,276.67,91c-2.58-.44-4.41-3.37-4.34-6.53.22-10.69-1.07-21.4,1.36-32.08a15,15,0,0,1,4.18-8.1c4.42-4.13,10.36-4.82,15.83-4.61A6.84,6.84,0,0,1,300.27,47C300.11,49.18,300.24,51.36,300.24,53.52Z" transform="translate(-0.91 -0.91)"/><path d="M259.24,190.41c10.05,0,10.2.73,8.91,11-.69,5.49-3.65,7-8,7.27-4.59.27-9,.9-13.08-3.48-3.5-3.75-2.12-7.11-1.41-10.43.65-3.08,3.89-4.24,7.09-4.34C254.93,190.37,257.08,190.42,259.24,190.41Z" transform="translate(-0.91 -0.91)"/><path d="M332.54,165.79c.61,8,1.53,18.31,1.43,28.72-.05,6-.63,7.35-6.74,8.55-1.63.32-3.25.73-4.9.95-10.36,1.35-12.94-1.07-13.21-11.44a214,214,0,0,1,.93-25.2c.72-7.85,5.23-12.77,12.94-14C332.54,151.83,332.54,151.83,332.54,165.79Z" transform="translate(-0.91 -0.91)"/><path d="M206.81,185.56c0,2.66.05,5.32,0,8-.13,6.3-4.53,9.85-10.91,8.91a21.92,21.92,0,0,0-5.42-.57c-12.58,1.4-15.71-6.21-16.54-15.93a106.38,106.38,0,0,1,.59-22.4,8.1,8.1,0,0,1,7.71-7.53c7.24-.74,15.39-2.09,20.16,5.7,2.8,4.57,3.9,10,4.38,15.35C207,179.89,206.81,182.73,206.81,185.56Z" transform="translate(-0.91 -0.91)"/><path d="M125.65,398.23c-1.75,10,.64,20.19-2.35,30.15-1.72,5.71-5,8.26-12,7.37-4.45-.56-6-3.72-6.53-9-1.09-10.48.61-20.81.77-31.21.09-6.12,4.51-11,9.59-11.13,7.8-.18,10.42,2.41,10.49,10.36C125.66,395.9,125.65,397.06,125.65,398.23Z" transform="translate(-0.91 -0.91)"/><path d="M134.57,194.32c1.11,3.67-.92,4.81-4.51,4.35-6.07-.77-12.56.19-16.48-6.8-2.4-4.3-1.9-8.34-1.21-12.48a3.34,3.34,0,0,1,5-2.56,9.72,9.72,0,0,0,2.41.63C132,179.54,133.88,181.68,134.57,194.32Z" transform="translate(-0.91 -0.91)"/></g></g></svg>