<svg xmlns="http://www.w3.org/2000/svg" viewBox="0 0 899 886"><title>0fence</title><g id="Layer_2" data-name="Layer 2"><g id="Layer_1-2" data-name="Layer 1"><path d="M658,1c.1,9.49.28,19,.28,28.46,0,67.48.35,135-.27,202.43-.52,55.22-.2,110.45-.61,165.67,0,7.62-.35,15.24.17,22.84.31,4.49-1,5.9-5.72,5.87-37.15-.22-74.3-.14-111.46-.15-51.81,0-103.63.33-155.44-.17-32.61-.31-65.23-.56-97.84-.58-4.18,0-5.32-1.3-5.3-5.43q.18-63.46,0-126.95c-.05-17.6-.63-35.19-.66-52.79Q281,120.61,281,1ZM390.07,69.19c-3.66.69-5.88,3.4-8.15,6-.85,1-2,2.17-.72,3.44s2.24,0,3.35-.73c3.19-2.13,3.38-6,5.39-8.82l3.32-.94c1.43-.41,3.06-.74,3.26-2.52.13-1.11-1-1.75-1.93-1.93-1.71-.31-3.17.84-4.27,1.76C389.65,66,390.12,67.89,390.07,69.19ZM635.91,412.9c-2.71-3.93-6.52-4-9-6.2s-4.62-4.37-8.37-4.45c-1.55,0-4.46-.34-4.68-2.84s1.38-3.16,3.64-2.07c.16.08.57-.17.75-.37,3.68-4.16,3.68-4.17,8.92-4.3,3.75-.1,7.24,3.34,5.84,6.45-1.13,2.54-1,4,1,5.48,1.83,1.37,3.52,3.13,5.58,3.93,1.65.64,1.45-1.39,1.4-2.4-.15-2.63-1.33-5.16-.86-7.88,1.59-9-.28-18.1.66-27.23,1-9.69,0-19.57,0-29.38,0-28.8.18-57.6.22-86.4.05-35.27,0-70.54.08-105.81.07-18.48.47-37,.79-55.45.06-3.35-.67-5.28-4.69-5.22-24.64.33-49.28.44-73.92.69-7.29.08-7.32.18-5.93,7a44,44,0,0,0,1.41,5.3c7.08,20.9,14,41.84,21.41,62.64,1.5,4.23,1.08,8,.22,12-.38,1.78-1,3.51-1.5,5.25-3.54,12-4,24.67-7.09,36.67-4.18,16.14-4.91,32.81-9.26,48.91-2.88,10.71-3.09,22.13-6,32.83-4.05,14.93-8,29.86-11.11,45-3.26,15.93-7.51,31.67-9.36,47.87-.39,3.43-2.67,3.94-5.29,3.94-5.32,0-10.64-.16-16-.3-12.25-.33-24.52-1.16-36.77-.44-4.39.25-6-1.69-6.63-5.48-1.66-10.66-3.73-21.27-5.42-31.91-3.06-19.28-6.43-38.5-10.31-57.62-4-19.84-9.28-39.44-13.42-59.27-2.94-14.11-5.76-28.23-9.14-42.25-2.65-11-5.2-22.31-2.66-33.51,3.29-14.55,7.74-28.85,11.9-43.19a199,199,0,0,0,6.22-27.17c.63-4.34-1-5.58-5.09-5.67-10.34-.23-20.63.84-30.94.88-33,.11-66,0-99,0-4.16,0-8.33.08-12.48.35-2.05.13-3.85.77-3.62,3.64,1.26,15.61.59,31.26.72,46.89.22,28.46,0,56.93.5,85.38.31,17,.67,34,.33,50.9-.28,14,.41,28,.41,41.94,0,16.6.1,33.25.4,49.88.06,3-1.36,6.15-.7,8.57a30,30,0,0,1,1.36,9.07c-.11,2.69,1.11,4.14,3.41,3.5s3,.69,4.55,1.51c2.2,1.2,3.4,3.77,6,4.16s2.26,1.54,1.22,3.41c-2.46,4.42-7,5.3-11.15,6.6-1.69.52-3.47.64-3.41,2.81.08,2.47,2.19,1.51,3.44,1.53,28.29.56,56.57-.32,84.87.79,15.58.6,31.27.31,46.91-.39,19.95-.9,39.9.51,59.86.61q63,.35,125.92.76C626.48,412.92,630.73,412.9,635.91,412.9ZM640.45,13c-3.53,5.42-8.9,9.16-11.27,15.42a49.8,49.8,0,0,1-3.67,7.06c-.68,1.18-2.26,2.6-3.15,1.44-2.07-2.66-5-2-7.57-2.81-1.86-.57-1.27-1-1.38-2.7-.31-4.78,3.09-5.73,5.73-7.68,5.08-3.75,10.22-7.41,15.18-11.3.85-.67,2.56-1.65,1.84-3.18s-2.37-.83-3.64-.82c-12.3.16-24.6.4-36.9.54Q543,9.54,490.3,10.05q-58.46.51-116.91.85c-20.67.11-41.33,0-62,.07-1.22,0-3.07-.72-3.52.9-.53,1.91,1.58,1.7,2.65,2.19,3.93,1.79,7.86,3.56,11.85,5.2,3.61,1.48,3,3.45.75,5.55-3.1,3-6.89,4.78-10.69,6.7-2,1-2.49.34-3.58-.84-3.6-3.88-5.08-8.84-7.1-13.54-.56-1.31-.89-3.23-2.92-2.73-1.84.46-1.73,2.27-1.72,3.74q.18,29.73.43,59.46a7.32,7.32,0,0,0,.52,2.74c4.42-.07,7.18,4.76,11.41,4.26a45.71,45.71,0,0,0,19.83-7.44c5.05-3.39,9.88-7.25,15.43-9.67,4.94-2.15,10.33-3.65,16.43-2.55-.69,1-.83,1.36-1.05,1.41a17.54,17.54,0,0,1-3.42.61c-8.2.18-15.07,3.49-21.13,8.81-1.45,1.27-4.17,1.94-3.48,4.29.77,2.63,3.63,2.57,5.92,2.59,5.8,0,11.56-.93,17.43-.48a7,7,0,0,0,7.11-3.66c1.06-2.13,3.08-2.88,5.54-1.93,1.55.6,3.22.87,4.78,1.43,3.63,1.28,3.63-1.94,4.63-3.75,1.33-2.39-.24-3.23-2.26-3.81-2.87-.83-5.71-1.77-8.55-2.68-.77-.25-1.72-.4-1.58-1.52a1.89,1.89,0,0,1,1.73-1.56c2.06-.35,3.89.5,5.78,1.17,6.51,2.32,12.88,3.85,17.53-3.51a6.53,6.53,0,0,1,2.77-2,3.82,3.82,0,0,1,4.94,1.1c1.35,1.69,2.18,4.2.47,5.43-5.89,4.26-.64,8.22-.06,12.27a1.46,1.46,0,0,0,1.8,1.27c8.89-1,18-.11,26.7-2.46,8.87-2.4,17.82-4.34,26.92-4.24,9.39.11,18.66,1.2,27.94-1.72,4.16-1.31,8.48-4.24,9.44-8.52,2.24-10.06,10.43-16.63,15-25.35a1.62,1.62,0,0,1,.76-.63c3-1.2,5.65-2.6,5.63-6.52,0-1,1.13-1.63,2.26-1.5,6,.69,11.85,2,18,1.17,1.9-.26,3.87,1.33,4.81,3.14,1.1,2.14,0,5.08-2.09,4.06-3.61-1.8-7.28-1.08-10.72-2-7.69-2-14.8.1-18.72,7-2.56,4.46-4.66,9.15-8.62,12.68-1,.89-2.72,2.39-1.47,3.73s2.65-.44,3.74-1.28c3.19-2.44,5.72-3,7.12,1.8.44,1.52,1.57.41,2.43.12,3.15-1,6.28-2.72,9.67-1.92,2.08.49,3.75,2.66,6.24.62,1-.82,1.65.56,2.13,1.41s.89,1.93-.3,2.57c-5.4,2.94-9.92,8-17.19,6.3-4.38-1-9-.56-13.43-2-3.39-1.15-5.06,1.25-5.83,3.92-1,3.36,2.2,2.5,3.8,3.11,9.69,3.69,19.35.21,29-.25A2.79,2.79,0,0,0,525.71,72c1.11-2.38,3.33-2.35,5.42-2.9,7-1.81,14.5-1.88,20.34-7.29,6.57-6.09,11.35-6.16,19.12-1.32a70.19,70.19,0,0,0,9.47,5.34c4.72,2,9.75.9,14.59.26,3.39-.44,4.55-3.43,5.61-6.28a2,2,0,0,1,1.14-.9c6.08-2.09,12.78-2.47,18.11-6.64a1.09,1.09,0,0,1,1,0c5.06,2.75,12.2,1.06,15.61,7.41a4,4,0,0,0,4.4,1.76c2.22-.51,1.35-2.73,1.36-4.25q.15-19.5.14-39C642,16.71,642.6,14.93,640.45,13ZM513.93,192.24c7.82-1.33,8-1.31,8.79-7.89.71-5.58-3.13-9-6.41-12.75-4.23-4.8-9.84-3.59-15.22-4-9.34-.72-18.62,2.27-21.28,13.32-1.19,4.93-2.85,10.76,1.73,14.93a12.09,12.09,0,0,1,4.22,9.08c.1,2.71,1.37,3.71,3.75,4.36,6.34,1.75,12.52,2.51,19.12.69,5.44-1.5,11-6.35,11.6-12.1.12-1.28,1.66-3.63-1.12-4-1.92-.29-3.38.75-4.28,2.69-1,2.17.36,7.08-5,4.77-4.86,4.89-11.48,1.13-17.06,3.41-2.53,1-3.63-2.75-4-5.19-.19-1.07-.33-3,1.87-2.54,6.39,1.29,12.75-1.83,19.17,0,1.93.54,2.76-.76,2.12-2.69-1.39-4.2,2.24-5.1,3.61-7.48l1.11.7ZM492.21,139.9c1.52.87,2.18,1,2.32,1.37.68,1.77,4.16,2,3.09,4.33s-2.4-1.7-4.19-.41c-1.58,1.14-2.45.43-2-1.58.17-.71,0-1.45-.88-1.38a2.28,2.28,0,0,0-1.65.85,6.72,6.72,0,0,0-.63,2.83c0,5.89,4.34,8.79,8.57,11.37,3.46,2.1,14.55.51,16.74-1.87a5.78,5.78,0,0,0,1.15-2.16c1.66-5.54-1.35-14.1-6.16-17.68.77-2,4.18-3,1.8-7C506.78,136.06,499.78,137.43,492.21,139.9Zm-34.63,17.91c3.59-.81,7.11-1.5,9.18-4.17,1.64-2.12,5.28-5.13,3.24-7.39-3.23-3.58-.79-4.31,1.38-5.81,1-.7,3-1.12,1.88-2.79s-2.58-.78-3.91.13c-1.61,1.11-3.09,3.62-4.92,3-6.24-2.13-9.35,2.41-13.34,5.39-2.53,1.89-2.87,3.64-1.65,6.68C451.11,157,455,156.2,457.58,157.81Zm85.67.58c7.43.1,10.89-3.33,8.92-9-1.39-4-4.37-7.23-8.71-8-3.74-.71-3.6,3-4.58,5.26-.36.84-1.07,1.09-1.68,1.6-2.48,2.07-.84,5.07-1.43,7.59C538.59,156,540.38,159.25,543.25,158.39Zm-58.68,89c1,1.06,1.74.93,2.29.56,7-4.71,13.88-9.69,21.07-14.12,7.49-4.61,13.6-11.5,22.55-13.7,1.19-.29,1.75-1.7.92-2.26-1.63-1.11.25-3.43-2.13-4.44C517.3,228.46,497.16,233,484.57,247.43ZM494.14,344c-.17,5.78,4.95,11,9.44,9.67,2.62-.76,4.56-2,5.75,1.73.33,1,1.75.64,2.05-.68a8.67,8.67,0,0,1,2-3.95c1.83-2.08.36-3.27-1.38-4.25-1.55-.87-2.91-2.19-4.16.74s-6.11-.1-7.43,3.59c-.51-.38-1.24-.66-1.5-1.18-1.51-3-2.07-6.2-.15-9,1.74-2.58,4.38-2.68,7-.9.82.55,1.88,1.17,2.45-.21a1.8,1.8,0,0,0-1.24-2.39c-2.25-.84-4.39-2.6-7-.86A13.74,13.74,0,0,0,494.14,344Zm7.15-113.49c-.52-1.32-1.91-1.19-2.87-1.75-7.22-4.21-14.59-8.19-20.71-14-2-1.87-4.16-.76-5.21.55s.83,2.47,2.07,3.2c6.12,3.63,12.23,7.27,18.39,10.82a38.18,38.18,0,0,0,5.84,2.71A1.71,1.71,0,0,0,501.29,230.53Zm27.13,17.58c1.92-1.26,4-.86,5.91-1.32s1.49-1.88,1-3.17c-.64-1.61-1.64-1.43-2.59-.3-2.05,2.45-4.35,1.87-6.69.62-4.81-2.57-9.65-5.08-14.35-7.82-1.44-.83-2.9-1.71-3.87-.19-1.29,2,.89,2.3,2.12,2.91l16.36,8.26C527,247.46,527.74,247.78,528.42,248.11Zm-44.83,1.06c-3.61-.32-5.21-2.32-7.24-3.62s-4.26-.72-5.88.83a2,2,0,0,0,.77,3.32C474.9,251.44,478.68,253.47,483.59,249.17ZM482,361.75c.52-1.91-.52-2.08-1.57-2.05-3.05.11-4,2.77-5.06,4.81-.89,1.65,1.05,2.4,2.23,2.41C481.2,367,480,362.83,482,361.75Zm-13-43.28c-1.08,1.62-2.71,3.24-3.25,5.17-.33,1.14,1.78,1.31,2.81,1,1.39-.45,3.84-.36,3.24-2.71C471.42,320.78,471.26,318.83,468.91,318.47Zm19.78,66.62c-1.86.82-2.66,2.84-3.19,4.77-.38,1.38,1.1,2,2.23,1.93,2.83-.07,2.32-2.71,3-4.35C491.2,386.17,490.53,385.25,488.69,385.09Zm-45.61-191c-1.14-1.15-1.46-3.41-3.68-3.42a1.82,1.82,0,0,0-2,2.29,3.5,3.5,0,0,0,3.61,2.85C442,195.87,443.11,195.72,443.08,194.13ZM467.15,313c1.41-.92,3.21-1.71,3.24-3.84a1.69,1.69,0,0,0-2-1.72,3.65,3.65,0,0,0-3.26,3.79C465.09,312.32,465.77,313,467.15,313ZM510,386.36c-2,.68-3.07,2.54-3.74,4.29-.54,1.38,1.12,1.87,2.25,2,2.45.21,2.41-1.77,2.65-3.38C511.35,388.14,511.71,386.88,510,386.36ZM388.21,82.17c1.62-.77,4.3-.48,4.27-3.55,0-.93,0-2.57-1.15-2.21-2.19.69-3.67,2.66-4.89,4.53C385.92,81.75,387.15,82.12,388.21,82.17Zm94,301.5c2.87.33,2.66-1.79,3.14-3.25.36-1.09,0-2.28-1.3-1.88a5.59,5.59,0,0,0-3.6,3.7C480.12,383.47,481.62,383.54,482.23,383.67ZM556,267.6c-.7-.7-.28-2.79-2.14-2.56a4,4,0,0,0-3.17,3.45c-.3,2,1.73,1.59,2.86,1.71C555.06,270.35,556.14,269.65,556,267.6Zm-85.49,66c-.82.93-2.67,1.54-2.36,3.23s2.08,1.22,3.33,1.22,2.57-.22,2-1.93C473,334.93,472.51,333.54,470.53,333.57Zm-11-53.93c.73-1.3,3.48-.55,3.69-2.85.1-1-1.38-1.41-2.29-1.25-1.57.28-3.4.59-3.48,2.72C457.39,279.14,458.11,279.69,459.51,279.64Zm13.88,67.51c.92-.55,3-.11,2.8-2.36a1.93,1.93,0,0,0-2.44-1.86c-1.44.33-3.17.94-3.32,2.56C470.3,346.88,471.88,347,473.39,347.15Zm8.54,22c-2.52.81-4.26,1.88-4.31,4.36,0,.89,1.22,1.21,2,1C482.53,373.82,482,371.59,481.93,369.15Zm-43.07-182c1.16-.24,2.55-.52,2.28-2a3.32,3.32,0,0,0-2.62-2.7c-1.49-.27-2.11.8-2.1,2.09A2.48,2.48,0,0,0,438.86,187.1Zm98.68,161.44a2.06,2.06,0,0,0,2.42-2.36c0-1.11.14-2.64-1.66-2.22-1.37.32-3,.84-3.17,2.61C535,348,536.37,348.31,537.54,348.54Zm34.58-173.26a1.35,1.35,0,0,0-1.91-1.45c-1.69.48-3.8,1-4.14,2.86-.27,1.43,1.6,1.11,2.65,1.25C570.73,178.19,571.7,177.09,572.12,175.28Z" transform="translate(-1 -1)"/><path d="M1,461c2.94,2.89,4.88,2.73,7.6-.95,6.51-8.83,16.07-14.33,24.7-20.81a83.5,83.5,0,0,1,9.25-5.93c3.7-2.07,4.74-4.4,1.6-7.79a8.1,8.1,0,0,1-1.21-2.18c-1.36-2.92-2.17-6.14,1.26-7.87,3-1.48,4.4,1.51,5.62,3.56,10,16.75,22.09,31.91,35,46.44,1.62,1.82,3.15,3.08,5.53,1.88,7-3.54,14.57-5.68,21.82-8.63,2.13-.87,4.66-1.17,1.77-4.61-2.11-2.51.15-5.06,2.86-4.09,7,2.52,12.71,1.66,17.82-3.91,1.12-1.22,3.43-.87,4.64.31,1.49,1.46.44,3.17-.68,4.44-2.09,2.38-.92,3.15,1.44,4.18a112,112,0,0,1,22.86,13.18c2.69,2,4.65,2.48,7.34-.05,8.37-7.88,17.62-14.71,26.92-21.43,2.56-1.85,2.89-3.27,1-5.61a12.53,12.53,0,0,1-2.25-5c-.75-3,.07-5.54,2.79-6.76s3.64,1.51,4.93,3.15c2,2.49,3,6,7.33,5.73a1.82,1.82,0,0,1,1.28,3c-2,2.65-.25,4.52.81,6.79,5.22,11.22,13.63,19.95,22,28.77,1.91,2,2.68,2.42,4.71-.26,5.42-7.14,13.51-11.23,20.54-16.53,2.59-1.95,5.21-3.51,4.86-7.41-.15-1.68,1.2-2.87,2.34-1,1.78,2.92,3.45,1.6,5.39.57a28.61,28.61,0,0,1,3.22-1.38c1.35-.53,2.67-.65,3.41.91a2.1,2.1,0,0,1-.86,3c-8.52,3.9-6,10.05-3.61,16.42,1.7,4.5,2.9,9.2,4.33,13.8.69,2.24,1,4.44-.12,6.58a8.23,8.23,0,0,1-1.18-.19c-.16-9.4-7-16.25-9.39-24.8-.58-2.11-1.49-2.74-4-2.13-7.54,1.84-13.53,6.07-18.92,11.33-2.94,2.85-6.6,5.62-2.38,10.34,1.23,1.38.66,3.11-.79,4.42-2.19,2-1.49,3.83-.22,6.18,2.26,4.18,6.15,7,8.6,11,.5.83,1.4,1.72,2.44,1.42,1.52-.43,1-1.9,1-3,.14-8.49-.08-17,.56-25.47a18.88,18.88,0,0,1,2.46-7.49c.55-1.06,1.46-2,2.8-1.41a2.31,2.31,0,0,1,.92,3.45c-5.73,7.4-2.49,16.07-3.77,24.08-2,12.43,3,21.4,12.31,28.88,3.35,2.7,6.25,6,9.44,8.88,1.47,1.35,2,2.69.43,4.21-2.51,2.35-.72,3.69,1.06,5.14,8.54,7,15.82,15.23,22.91,23.61,3,3.52,5,5.38,10,2.17,6.84-4.37,15.17-5.73,23-8,6.31-1.86,6.36-1.83,3.57-8.05-.18-.39,0-.93,0-2.42,1.66,3,6.43,2.17,5,7-.28,1,2.67.61,4,.39,7.51-1.3,15-2.56,22.46-4.31,11.13-2.62,22.46-4.43,33.39-8,10.41-3.35,20.78-7.55,31.5-9,9.27-1.26,14-4.73,16.61-13.58,1.52-5.13,6.74-8.57,10.85-12.19,3.41-3,4.31-6.44,3.65-10.68q-3.08-20-6.06-39.95c-.2-1.31-.64-2.79-.23-3.93,1.36-3.78-.56-6.22-2.76-8.9-3.3-4-6.24-8.32-5.85-13.91.21-2.9.81-6.14,4.13-6.61,3-.44,4.54,2.36,5.49,4.92,2.93,7.95,7.21,15.42,8.4,24,.3,2.15,1.81,3.49,3.09,5,4.18,4.95,8.3,10,12.55,14.86,1.82,2.1,3.09,2.52,4.27-1,3-8.82,9.91-14.89,16.29-21.17,6-5.94,11.5-12.5,18.29-17.67a4.51,4.51,0,0,0,1.79-3.91c0-2.34.59-4.54,3.1-5.08,2.77-.59,4.34,1.56,5.37,3.63,3.42,6.85,7.11,13.63,9.75,20.79a29.57,29.57,0,0,0,6.75,10.79c3.81,3.93,7.15,8.3,10.78,12.42,1.33,1.52,2.37,2.31,4.08-.24,8.54-12.65,19.67-22.95,30.95-33.07,2.15-1.93,4.24-3.38,3.8-6.89a4.56,4.56,0,0,1,3.58-4.87c2.34-.6,3.82.95,4.83,2.74,4.48,7.93,9.34,15.71,11.34,24.79a5.14,5.14,0,0,0,.94,2.25c5.11,5.69,10.28,11.33,15.45,17,1.57,1.71,2.84,1.3,3.86-.64,7.41-14,19.52-23.83,30.81-34.35,2.17-2,3.92-3.88,3.75-7.14-.14-2.64.85-5.14,3.75-5.77s5.06,1.44,6,3.61c3.31,7.78,8.47,14.74,10.39,23.12.37,1.61,1.48,2.56,2.47,3.66,4.79,5.31,9.63,10.59,14.35,16,1.48,1.67,2.77,2.64,4.17.13,7.28-13,18.73-22.36,28.82-32.9,2.77-2.9,6.31-5.13,5.77-10.14-.25-2.23,1-5,3.87-5a7.66,7.66,0,0,1,7.46,5.67c2.21,8.4,5.95,16.37,9.59,23.94s11.41,13.22,17.43,19.66c1.13,1.2,2.12.53,2.73-.7,6.72-13.72,19.3-22.22,29.38-32.94,1.65-1.76,3.15-3.21,3.06-5.89a4.4,4.4,0,0,1,3.09-4.68,5.24,5.24,0,0,1,6.07,2.47c3.85,7.15,9.87,13,12.26,21,.47,1.57,1.65,2.43,2.75,3.43,5.44,4.9,11,9.71,16.23,14.79,2.45,2.37,3.43,1.71,5.2-.83A344.78,344.78,0,0,1,900,440v8c-2.29,2.38-4.36,5-6.9,7.1-7.56,6.2-13.37,13.93-18.62,22-2.84,4.33-.43,10.31-3.17,15.41-1.24,2.3,2.73,5.28,5,7.43C883.75,506.84,892,512.8,900,519v4c-1.3.18-2.22-.58-3.13-1.29-6.28-4.9-12.67-9.68-18.79-14.78-3.41-2.84-7.41-5.3-9.12-9.72-1.39-3.6-3.09-2.81-4.9-.54-8.1,10.13-16.37,20.13-22.84,31.45-1.41,2.46-4.4,4.64-.55,7.57.82.62-.06,1.81-.67,2.64-4.92,6.72-5,8.19,1.33,13.82,7.31,6.54,15,12.69,22.47,19,3.05,2.57,6.13,5.12,9.16,7.72,1.24,1.07,2,2.5.78,3.91-1,1.18-2.11.33-3-.51-10.38-9.87-22.06-18.2-32.72-27.74-1.94-1.73-4-3.49-4.55-6.38-.51-2.55-2-2.22-3.5-.65-2.92,3-6,5.79-8.81,8.84-6.42,6.91-13.66,13.15-18.24,21.6-1.43,2.65-2.51,5.2,1.29,7,1.76.87,1.58,2.56.3,3.74-2.56,2.36-1.21,4.09.27,6.43,6.28,9.88,15.4,13.27,26.69,13.07,9.89-.17,19.36-2.47,29-4.25,5.79-1.07,7.59-5.94,11-9.31a1.06,1.06,0,0,0-.12-1.72c-2.57-1.7-.79-3,.31-4.4q12.24-16,24.43-32.11c1.08-1.41,1.77-3.27,3.93-3.45v5c-6.54,6.64-11.56,14.45-16.82,22.06-.83,1.2-2,2.87-.95,4.13,2.52,3.11.64,4.95-1.28,7.19-1.56,1.81-1.3,4,0,6,1.15,1.76,2.51,2,4.62,1.85,4.78-.38,9.6-.18,14.4-.22v5c-2.63-.06-5.27-.16-7.9-.18-1,0-2.13-.2-2.64.86-.66,1.34.46,2.21,1.28,2.9,3,2.54,6.16,5,9.26,7.42v5l-15.48-12.4c-2.49-2-4.77-3.75-5.75,1.39-.42,2.25-1.85,2.41-3.5.57-3.1-3.46-8.52-3.11-11.79.71a215.53,215.53,0,0,0-16,21.68c-.81,1.24-2,2.62-.75,4,2.55,2.88.72,4.47-1.54,5.94-1.65,1.08-1.92,2.65-1.8,4.36.24,3.34,2.05,6,4.29,8.22,10.78,10.63,21.69,21.12,32.5,31.71,2.22,2.18,3.51,2.09,5.25-.77A75,75,0,0,1,900,668v6c-4.56,3.48-7.64,8.26-11,12.79-1.69,2.3-3.22,4.88-.13,7.46,1.13,1,.76,2.23-.09,3.12-4.13,4.32-1.11,6.75,2.34,9,2.92,1.92,5.9,3.74,8.85,5.61v5c-5.73-3.57-12.24-6.14-16.12-12.11-1.28-2-2.6-2-4.08-.69-11.54,10-22.92,20.16-32.49,32.15-1.64,2-1.22,3.62.63,5.09,2.24,1.78,2.14,3.6.83,6.06-3.71,7-3.56,7.46,3,12.39,11.84,8.84,23.56,17.82,34.66,27.6,6.42,5.64,6.54,5.48,11.49-1.33a24.39,24.39,0,0,1,2-2.16v30c-2.63-2.82-4.46-2.25-6.39,1-7.18,12.18-14.55,24.25-21.86,36.36-1.74,2.88-2.79,5.61.1,8.56,1.22,1.24.95,3.18.22,4.76-1,2.15-.33,3.75,1.15,5.41,5,5.59,9.86,11.26,14.78,16.9h-6q-6-6.64-12-13.3c-1.17-1.32-2.47-2.78-3.92-.63-3.22,4.76-7.93,8.44-10.12,13.93h-6c4.57-6.12,9.21-12.19,13.69-18.37,2.54-3.52,2.1-7.49-1.13-9.84-8.08-5.9-15.08-13-22.74-19.34-8.07-6.67-16.4-13.08-23.37-20.93-2.25-2.55-3.07-2.42-5.14,0-9,10.54-16.48,22.18-23.63,34-3.32,5.47.53,11.88.41,17.9,0,1.21,2,2.48,3.16,3.71L803,887h-6c-3.45-5.53-9.14-9.07-12.8-14.42-.76-1.11-1.94-1.59-2.89-.4C777.44,877,772.51,881.1,770,887h-6c4.49-6.63,10-12.47,14.92-18.72,2.92-3.67,1.83-7.45-.83-10.66s-5.54-5.74-8.31-8.6c-11.21-11.56-23.14-22.44-33.36-34.95-2.21-2.71-3.84-1-5.22.73-10,12.23-20,24.44-28.42,37.87-1.84,3-3,6-.12,9.12a3.31,3.31,0,0,1,.36,3.79c-1.77,3.23,0,5.12,2,7.38,4.05,4.61,8.6,8.82,12,14h-5c-3.28-5.23-8.56-8.7-12.14-13.69a2.11,2.11,0,0,0-3.49,0C692.69,878,687.83,881.66,685,887h-5c3.48-6.55,9.12-11.34,13.89-16.82,2.29-2.64,2.49-5.35,2-8.34-.37-2.07-2.29-3.23-3.65-4.64-13.09-13.49-26.48-26.7-38.41-41.26-3-3.64-4.39-.24-5.74,1.26-8.91,9.87-16.36,21-25.22,30.84-6.32,7-3.58,15.18-5.58,22.66-.19.71,1.12,1.9,1.83,2.79,3.63,4.52,7.29,9,10.93,13.51h-5c-3.21-3.82-6.45-7.61-9.61-11.47-1.27-1.55-2.85-2.35-4.13-.61-3.14,4.28-7.8,7.25-10.26,12.08h-5c3.17-5.73,8-10.12,12.34-14.84s4.46-9.76,0-14.42c-2.07-2.15-4.21-4.25-6.18-6.49-10.51-12-22.33-22.79-31.6-35.82-2-2.77-2.92-.93-4.15.2-12.67,11.68-22.84,25.41-32.33,39.67-4,6,2,11.63,1.17,17.6-.06.41.88.92,1.3,1.43Q541.78,880.66,547,887h-5c-3.41-4-6.85-7.91-10.22-11.89-1.92-2.27-3.43-1.07-4.9.47Q521.42,881.28,516,887h-6c4.93-5.17,9.8-10.4,14.81-15.48,3.88-3.93,4.05-7.91.36-12.09-10.67-12.08-21.47-24.06-31.84-36.4-2.72-3.24-4.45-3.38-7.65-1.08-12.1,8.7-21.54,20.26-32.66,30-6.54,5.7-2.56,14-6.95,20-.5.66.93,3.07,1.86,4.4,2.58,3.65,5.37,7.16,8.07,10.72h-5c-2.28-3.06-5-5.9-6.73-9.24-2-3.84-3.45-3-5.63-.38-2.78,3.29-5.75,6.42-8.64,9.62h-5c4.77-5.74,9.64-11.4,14.27-17.26,2.09-2.65,3.84-5.53.16-8.62-6.61-5.57-13.11-11.28-19.54-17-3.53-3.17-8-5.46-11.15-8.48s-6.84-6.67-9-11c-1.94-3.86-4.11-4-7-.61-9.25,11.11-19.47,21.57-26.65,34.14-2.47,4.33-1.87,10.57-2,15.95-.05,1.63,1.91,3.42,3.15,5,2.19,2.72,4.53,5.33,6.8,8h-6c-1.64-4.47-6.27-6.74-8.11-11.12-.59-1.41-1.86-.35-2.32.34-2.56,3.83-6.92,6.23-8.57,10.78h-6c4.45-5.16,8.87-10.34,13.34-15.48,3-3.41,3.33-8.29.57-11.18q-10.5-11-21.12-21.94c-6.16-6.29-12.79-12.21-17.58-19.65-2.13-3.31-3.28-3.86-6.08-.79-10.9,12-21.1,24.55-29.17,38.49-2.52,4.35-.95,11.1-1.11,16.75,0,.65,1,1.29,1.44,2,2.95,4.49,7.19,7.82,10.71,11.81h-6c-3.25-3.7-6.52-7.38-9.73-11.12-1.09-1.26-2.48-1.58-3.34-.31-2.86,4.22-7.85,6.57-9.93,11.43h-6c4.68-5.39,9.4-10.75,14-16.18,3.21-3.76,3.19-7.69-.12-11.38-5-5.58-10.24-10.92-15.1-16.61-6.57-7.69-14.6-14.16-19.67-23.12-1.16-2-2.3-1.76-4-.4a85.41,85.41,0,0,0-11.63,11.58c-7.68,9.18-15.85,18-22.34,28.09-.79,1.24.06,17.18,1,18.32L209,887h-6c-.95-3.56-4.21-5.42-6.17-8.24-1.25-1.82-2.93-.92-4.22.39-2.55,2.6-5.07,5.23-7.61,7.85h-5c1.81-4,5.08-7,8.31-9.69,7.34-6,6.17-12.3.56-18.66-10.64-12-21.94-23.59-30.94-37-1.68-2.5-2.65-2.5-4.87-.53-12.79,11.3-23,24.84-33.3,38.25-2.31,3-4.14,6.07-1.27,9.87a3.62,3.62,0,0,1-.08,4.28c-2.44,3-.64,5.28,1,7.58,1.45,2,3.06,3.94,4.59,5.91h-6c-6.16-8.93-7-9-12.93-.49-.09.12,0,.33-.07.49H99c2.24-2.66,4.29-5.51,6.75-8,7.31-7.29,7.11-10.85.4-18.8-10.28-12.19-22-23.18-30.4-36.94-1.37-2.24-2.4-2.26-4.19-.56a323.37,323.37,0,0,0-34.85,39c-1.89,2.48-3.12,5.09-.75,8.16a3.79,3.79,0,0,1,0,4.71c-2.26,2.82-1.49,5.08.71,7.48A41.86,41.86,0,0,1,40,887H35c-6.09-7.66-6.09-7.66-12,0H16c2.69-2.72,5.06-5.92,8.17-8,3.5-2.38,4.6-5.28,4.59-9.19a6.14,6.14,0,0,0-1.17-4.18C19,854.88,11.05,843.54,1,834v-7c9.4,10.31,18.44,20.93,26.78,32.12,2.3,3.08,3.49,3.7,5.92,0,10.51-15.84,24.43-28.84,36.85-43.07,3.15-3.61,3.64-5.77,1.45-8.94-4.81-7-10.54-13.21-16-19.65S43.7,775.72,39.38,768.36c-1.78-3.05-3.09-3.32-5.54-.88C28,773.35,22.1,779.24,16,784.85,10.73,789.66,6.85,795.8,1,800v-6c11.15-11.41,22.05-23.06,34-33.7,3.05-2.72,2.53-6-.09-8.82C23.61,739.31,11.52,727.88,1,715V692c2.08,2.45,3.09.89,4.44-.94a518.55,518.55,0,0,1,34.07-42c.54-.58,1.24-1.43,1.17-2.08-.54-5,.89-10.39-4.07-14.44-3.42-2.78-6-6.58-9-9.94a7.26,7.26,0,0,0-5.74-2.36c-7.26-.22-14,1.94-20.9,3.8v-5c4.56-2,9.18-3.75,14.29-3.68,1.07,0,2.52.22,3-1.15s-.4-2.22-1.25-3A147.79,147.79,0,0,1,1,593V575c3.91,2.26,4.46-1.83,5.86-3.45,10-11.51,20-23.07,31.4-33.24,5.88-5.25,6.58-11.71,1.46-17.72C30.17,509.36,20.46,498.27,11,487c-4.6-5.44-4.46-5.56-10-2v-5c4.71-4.92,4.71-9.4,0-14ZM420.69,680.79c-3.34.48-8.41-1.73-7.91,4.77a1.07,1.07,0,0,1-1.47.93c-2.55-1.33-3.65,1-5.08,2-4.39,3.3-8.36,7.22-13,10.12-5.53,3.48-9.47,10.25-17.56,8.94-1.3-.21-2.18,1.4-2.7,2.65-4.28,10.28-9.57,20.13-13.05,30.74-.5,1.55-1.71,3.23-.41,4.72,3.77,4.31.67,6.79-2.23,9.48-4.59,4.25-6.68,9.24-4.95,15.63,1.43,5.25,5.82,6.88,9.91,9,12.12,6.36,22.89,14.78,34.15,22.44,1.67,1.13,3.07,2.11,5.43,1.33,5.3-1.77,7.57-.37,9.34,4.92,2.12,6.34,1.42,12.85,1,19.3-.13,2,0,3.46,1.59,4.85q13.26,11.73,26.41,23.6c2,1.83,3.48,1.74,5.29-.57,10.27-13.18,22.35-24.57,35.25-35.11,6.38-5.21,7.8-12.74,3.63-20.12-7.12-12.61-14.18-25.26-22.59-37.07-5.86-8.21-6.39-16.63-1.23-25.23,3.86-6.42,8.43-12.42,12-19,5.38-9.9,16.64-16.68,15.57-30.15-.25-3.14-.25-5.48-2.57-7.91-10.7-11.15-22.63-21.07-32.64-32.89-1.58-1.87-2.91-.91-4.37-.23a115.37,115.37,0,0,0-25.73,16.91C416.15,670.51,416,673.52,420.69,680.79Zm-98.41-1c.79-.37,1.4-.45,1.63-.78,8-11.71,18-21.79,27.5-32.24,3.82-4.2,8-7.73,5-14.18a1.7,1.7,0,0,1,1.08-2.43c1.53-.34,1.87,1,2.26,2.08,2.07,6,.65,11.19-3.78,15.47-9.72,9.38-18.09,20-27,30.09-3.08,3.5-6.79,6.72-8.62,11.48,4.5,1.31,8.7-.2,12.92.3a157.17,157.17,0,0,1,35.36,8.47c1.95.7,3.84,1.11,4.71-1.79,1.61-5.31,5.76-8.85,9.52-12.57,7.51-7.46,16.7-12.58,25.68-18,13.08-7.86,25.46-17,40.25-21.7,1.24-.39,2.25-.93,2.17-2.32-.55-10.08,5.81-17.05,11.08-24.45,3.65-5.15,3.63-5.65-2.45-7.42-.79-.23-1.65-.18-2.45-.38-12.68-3.24-24.75-.33-36.67,3.69-8.19,2.76-16.35,5.53-25.13,5.73-12.91.3-24.27-5-35.76-9.82-10.35-4.3-21.06-6.73-32.12-4.72-10.57,1.92-20.62,6.23-31.33,7.77a3.61,3.61,0,0,0-2.85,1.73c-3.31,5.62-5.11,12-8.21,17.6-3.27,6,2.21,12.94-2.93,18.36-.24.25.15,1.31.49,1.86,1.54,2.54,2.82,5.27,5.21,7.25a229.76,229.76,0,0,1,23.29,21.8c2.79,3,4.14,2.56,6.12-.88,4.63-8.07,8.62-16.48,13.6-24.4,3.62-5.76,9.11-10.7,10-18.07.11-.93.95-1.31,1.89-1.09s1.24,1,1.33,1.89c.31,2.85-1.08,5.17-2.47,7.44-5.22,8.51-10.58,16.94-15.65,25.54C324.48,673.7,322.21,676.13,322.28,679.79Zm-11.57-93.57c-.84-.31-2.06.1-3.15,1.49-3.71,4.75-6.14,10.26-9.34,15.32a2.69,2.69,0,0,0-.24,2.85c.88,1.51,2,.46,3.07.21,1.77-.44,3.55-.87,5.27-1.46,13.5-4.63,27.11-7.81,41.53-4.68,9.2,2,17.5,6.29,26.16,9.65,12.59,4.88,25,5.58,37.94,1,17.71-6.33,35.72-11.09,54.47-3.81,2.11.82,3.79.21,5.19-1.71,4.22-5.76,9.4-10.7,13.73-16.41,2.3-3,1.76-4.43-.25-6.57-9.33-9.95-19.16-19.48-27.8-30-5.49-6.69-9.94-10-19.63-7.89-10,2.14-20.32,3.06-30,6.44-18.91,6.61-37.61,13.89-57.39,17.64-3.09.59-5.23,1.53-6.62,4.75-1.49,3.46-4.78,5.29-8.5,6.37-6.84,2-13.95,3.23-20.28,6.76C313.76,586.73,312.66,586.89,310.71,586.22ZM733.44,804.71a6.67,6.67,0,0,0-1.47-4.64q-18.69-21-37.33-42.1c-2-2.23-3.32-2.41-5.62-.15-11.51,11.35-21.39,24.08-31.32,36.76-2.18,2.78-4.29,6.21-.65,9.81,1,1,.61,2.55-.15,3.73-1.84,2.86-.52,5,1.4,7.12,4.93,5.39,9.77,10.87,14.76,16.2,6.7,7.16,13.52,14.21,20.28,21.31,1.93,2,3.31,2.79,5.23-.43,9.25-15.47,20.38-29.55,32.47-42.87C732.46,807.88,733.55,806.38,733.44,804.71Zm-83.26,1.49a7.92,7.92,0,0,0-2.37-6.11q-18.22-20.45-36.14-41.2c-1.83-2.12-2.77-2.8-4.93-.54a383.16,383.16,0,0,0-32.29,37.86c-1.76,2.4-2.39,4.74-.24,7.21,1.24,1.42,1.67,2.85.19,4.39-2.72,2.81-1,5.28.81,7.49,11,13.3,23.1,25.67,34.78,38.4,2.33,2.54,3.55,2.34,5.46-.72,9.5-15.26,20.84-29.14,33-42.36C649.66,809.29,650.62,808.19,650.18,806.2ZM813,802.59c.88-3.34-.66-4.31-1.76-5.52-4-4.44-7.94-8.93-12-13.34-8.3-9.06-16.66-18.06-25-27.13-1.49-1.63-2.84-2.33-4.5-.35-10.16,12.06-21.18,23.44-29.71,36.83-1.85,2.91-3.51,5.81,0,8.82a2.34,2.34,0,0,1,.28,3.23c-3.86,4.2-.62,7.07,1.91,9.72,11.72,12.24,23.63,24.31,35.4,36.52,2.7,2.8,4.19,3.1,6.53-.79,6.7-11.1,13.77-22,22.06-32C810.55,813.37,813.69,808.17,813,802.59Zm-245.45,2.35a5.9,5.9,0,0,0-1.4-4.68c-11.61-13.47-22.35-27.67-34.13-41-2.55-2.89-3.69-2.5-6.05-.18-10.11,9.92-19.19,20.75-28.44,31.45-5.8,6.7-9.84,13.45-2.92,21.82a4.81,4.81,0,0,1,.77,4.29,4.45,4.45,0,0,0,1.29,4.13c9.88,11.24,19.26,22.92,29.63,33.74,2,2.13,3.09,1.66,4.46-.65,9.49-16,21.77-29.74,34.23-43.37C566.5,808.79,567.76,807.23,567.51,804.94Zm326.16-1.57c.76-3.84-1.81-6.19-4.8-8.63-14.45-11.76-29-23.42-43.76-34.75-2.26-1.73-3-1.45-4.46.75-7.35,10.91-13.58,22.46-20.13,33.82-1.06,1.83-1.32,3.5.55,4.83,4.26,3,2.79,5.9-.37,8.42-4,3.15-3.16,5.89,0,9.1,4.78,4.89,10.25,9,15.39,13.41,8.4,7.3,16.91,14.49,25.31,21.8,2.42,2.1,3.9,2.17,5.72-.94,7.79-13.35,15.55-26.72,24.12-39.61C892.71,809.31,894.74,807,893.67,803.37Zm-738.62,7.3c0-4.54-2.88-7-5.18-9.8-9.8-11.7-19.85-23.19-29.48-35-2.42-3-3.45-1.23-5,.27-10.91,10.73-20,23.2-31.21,33.51-6.93,6.4-.36,14.64-5.65,20.42-.32.35,1.17,2.6,2.07,3.77,2.45,3.15,5,6.21,7.57,9.26,7.07,8.37,14.15,16.75,21.29,25.06,1.61,1.87,3.23,4.18,5.76.58a272.14,272.14,0,0,1,37.27-43.35C154,814,155.35,812.5,155.05,810.67ZM689.2,749.46c.19-4.26-3-6.46-5.48-9.1-11.71-12.48-24.48-24-34.82-37.72-2-2.64-3.38-1.68-5.09.23-9.94,11.18-19.87,22.35-28.25,34.78-2,2.9-4.26,5.74-1,9.34.91,1,.31,2.59-.36,3.78-1.48,2.62-.6,4.55,1.27,6.68,10.08,11.5,20,23.09,30,34.7,5.08,5.93,5,6,9.41-.44.75-1.1,1.53-2.19,2.36-3.23,9.25-11.53,18.62-23,28.93-33.56C687.68,753.34,689.18,751.8,689.2,749.46Zm7.06,1.42c-.69,1.6.15,3.06,1.47,4.56,10.09,11.45,20,23,30.21,34.41,5.37,6,5.51,5.89,10-1,.54-.83,1.22-1.58,1.79-2.39,8.75-12.39,19-23.51,29-34.86,2.9-3.3,2.05-6.54-.38-9.2C755.48,728.36,741,715.73,729,700.79c-1.25-1.55-2.5-2.49-4.45-.45-10.86,11.3-21.18,23-29.59,36.3-2.13,3.35-3.26,6.69.5,9.73C696.89,747.53,696.63,749,696.26,750.88Zm-617.16-52c.45-3-.74-5.15-2.45-7.42-9.82-13-21.06-24.8-32-36.81-2.77-3-4.14-.93-5.87,1.05-10.38,11.91-20.29,24.18-29.5,37-2.14,3-4.51,5.76-2.11,9.87a4.91,4.91,0,0,1-.61,5.25c-2.47,3.19-1.45,6.18.76,8.6,9.41,10.29,19,20.4,28.53,30.6,2.23,2.39,3.76,1.85,5.47-.72,2.38-3.6,5-7,7.66-10.45,8.14-10.51,17.19-20.24,26-30.16C76.84,703.58,80.41,702.65,79.1,698.87ZM236,808.27c.06-2.56-1.47-4.31-3-6.12C222.62,789.82,212.1,777.6,202,765c-2.86-3.58-4.47-2.81-6.87-.14C185,776.25,174.57,787.49,164.54,799c-2.64,3-6.28,6.51-2.56,11.36a2.66,2.66,0,0,1-.18,3.31c-3.12,3.26-1,5.84,1,8.27,9.71,11.56,19.53,23,29.25,34.58,2,2.35,3.66,2,5.13-.27,10.37-16.19,23.3-30.21,37-43.55A5.24,5.24,0,0,0,236,808.27Zm371.9-59.41c.53-2.5-.84-4.33-2.51-6.07-5.63-5.88-11.39-11.65-16.83-17.7-6.75-7.52-14.54-14.16-19.89-22.88-1.29-2.08-2.36-1.91-3.84-.38-3.23,3.34-6.6,6.56-9.73,10a239.4,239.4,0,0,0-21.54,26.73c-2.14,3.14-3,6.36.07,9.51.88.9,1.4,1.93.67,3.13-1.69,2.75-.12,4.62,1.56,6.62Q548,772.34,560,787c2.23,2.69,4.37,5.44,6.59,8.14,1.4,1.7,2.71,2.34,4.25,0,10.1-15.55,22.92-28.81,35.64-42.15C607.64,751.68,608.24,750.58,607.87,748.86Zm-292,55.24c.07-2.21-1.24-3.61-2.62-5.16C302.63,787,292,775.12,281.6,763c-2.11-2.44-3.5-2.5-5.54-.23-7.79,8.66-15.69,17.23-23.44,25.92-3.31,3.72-6.75,7.34-9.25,11.73-1.5,2.64-3.54,5.1,0,7.78a1.9,1.9,0,0,1,.18,2.75c-4.75,4.38-1.4,8.15,1.3,11.22,9.45,10.71,19.36,21,28.89,31.67,2.53,2.82,3.48,2.14,5.4-.62,10.24-14.75,20.93-29.19,33.46-42.13A10.56,10.56,0,0,0,315.88,804.1Zm-198.56-50c.36-2.22-.77-3.25-1.79-4.36-6.3-6.85-12.69-13.62-18.81-20.62-4.92-5.62-11-10.29-14.66-16.91-2.12-3.88-3.58-3.3-6.16-.75A319.77,319.77,0,0,0,45.54,747c-2.2,2.93-4.58,5.93-1.46,9.81a2.32,2.32,0,0,1-.6,3.17c-3.13,2.7-2,5.06.22,7.68,9.64,11.64,20.58,22.17,29.4,34.5,1.84,2.57,3.06,1.56,4.55-.34A415.82,415.82,0,0,1,114,761.5,10.41,10.41,0,0,0,117.32,754.06Zm80.31-.61a5.94,5.94,0,0,0-1.69-5.14q-10.41-11.09-20.62-22.37c-4.24-4.68-8.56-9.31-12.38-14.33-4-5.29-3.9-5.57-8.68-.82a294.37,294.37,0,0,0-29,34.22c-2.16,2.92-3.93,5.91-.72,9.37a2.56,2.56,0,0,1,0,3.29c-3.28,4-.51,6.76,1.85,9.56,2,2.41,4.44,4.45,6.44,6.94,6.95,8.71,14.18,17.19,21.26,25.8,1.73,2.1,3,2,4.71-.13a403.18,403.18,0,0,1,36-40C196.63,758,198.08,756.08,197.63,753.45ZM121.93,652.3c-1.74-.3-1.8,1-2.46,1.66-10.35,9.91-19.26,21.11-28.57,31.94-3.32,3.87-7.87,7.63-4.61,13.93.37.73-.28,2.44-1,3.18-2.38,2.48-1.59,4.69-.06,7.18a45.14,45.14,0,0,0,6,7.27c8.11,8.58,16.38,17,24,26.06,3,3.62,4.27,3.39,6.66-.12a235.13,235.13,0,0,1,33.85-39.79c5-4.65,5-6.22.45-11.65q-16.06-19-32.28-38A15,15,0,0,0,121.93,652.3ZM277.54,752c.37-1.9-.61-3.34-2-4.73-6-6.21-12.21-12.28-17.87-18.79-5.45-6.26-12.28-11.41-16.24-18.85-2-3.75-3.66-3.36-6.28-.94a211,211,0,0,0-30.54,35.43c-2,2.83-3,5.59-.06,8.47a2.49,2.49,0,0,1,.41,3.24c-3,4.17,0,6.67,2.38,9.42,2.63,3,5.22,6,7.74,9.08,6.33,7.71,12.57,15.48,19,23.14,1.47,1.77,3,4.55,5.7.93a384,384,0,0,1,35.36-40.56C276.74,756.18,277.93,754.48,277.54,752ZM606.75,647c-1.74.22-2.48,1.43-3.43,2.32C593,659,583.76,669.67,574.81,680.6c-2.69,3.28-5.81,6.86-1.84,11.43a1.94,1.94,0,0,1,0,1.87c-4.26,5.24-.09,8.78,2.83,12,9,10,18.36,19.69,27.65,29.42,5.43,5.7,5.48,5.63,9.85-1.24.72-1.12,1.56-2.16,2.35-3.23a330.83,330.83,0,0,1,27.66-32.72c3.06-3.18,3.25-6,.12-9.49-11.7-13.16-23.15-26.54-34.71-39.82A23.7,23.7,0,0,0,606.75,647Zm156.16-2.14a6.09,6.09,0,0,1-1.18,1.81c-6.92,6.5-13.21,13.61-19.44,20.76-4,4.62-8.34,9.06-11,14.73-1.22,2.57-2.16,4.91.68,7.09,1.42,1.08,1.7,2.74.25,3.85-3.1,2.35-1.38,4.21.31,6.17,11.41,13.24,23.93,25.45,36.08,38,2.45,2.52,3.26.51,4.36-1.26,8.1-13,17.74-24.89,27.86-36.38,1.09-1.24,3.05-2.54,2.44-4.1-1.55-4-1.45-8.47-4.52-11.94-10.89-12.33-21.64-24.78-32.45-37.18A3.06,3.06,0,0,0,762.91,644.83Zm-36.85,46.65c.11-1.91-1.22-2.7-2.25-3.79-12-12.87-24.09-25.71-35.92-38.77-2.22-2.45-3.42-3-5.74-.33-8.24,9.35-16.68,18.53-24.95,27.86-1.65,1.85-2.87,4.08-4.38,6.06-4.6,6.06-.27,12.38-.26,18.53,0,2.36,3.22,4.87,5.27,7,9.4,9.88,19,19.58,28.31,29.54,2.15,2.29,3.12,1.82,4.37-.48a57.46,57.46,0,0,1,4-6.92c8.76-11.72,17.68-23.32,28.28-33.48A9.61,9.61,0,0,0,726.06,691.48ZM527.43,739.93a3.22,3.22,0,0,0,2.51-2.16,30.84,30.84,0,0,1,3.95-6.34c9.1-11.7,18.42-23.19,29.25-33.4,4.7-4.43,4.58-5.35.53-10.29-2.53-3.09-5-6.22-7.56-9.27-8.46-10-17.16-19.9-25.32-30.18-2.17-2.74-3.1-2.65-5.21-.52C515.53,658,506,668.61,496.69,679.5c-2.31,2.7-3.17,5,.36,7.38,3.31,2.19,3.2,4.19.17,7-6.17,5.67-6.15,6.44-.5,12.91,9.08,10.4,18.33,20.65,27.52,31C525.11,738.67,525.93,739.8,527.43,739.93ZM81.58,585.63c.38-2.72-.71-4.81-2.25-6.94-9.85-13.64-21.78-25.5-32.55-38.35-2.23-2.66-3.77-.91-5.3.64-10.86,11-22.24,21.48-31.93,33.58C7.35,577.3,5,580,7.21,583.9a3.82,3.82,0,0,1-.78,4.24c-2.26,2.5-1.17,4.51.53,6.59a242,242,0,0,0,17.18,18.76,4.7,4.7,0,0,0,3.45,1.66c7.87,0,15.37,2.35,23,3.83,2.09.4,3.31-.18,4.67-1.82,7.56-9,15.19-18.07,24-26C81,589.59,82.09,588,81.58,585.63Zm.28-100.09c-1.47.12-2.1,1.22-2.91,2a273.1,273.1,0,0,0-28.1,31.07c-2.27,3-3.78,5.87-1.35,9.5a3.64,3.64,0,0,1,.31,3.85c-3.22,4.49.18,7.25,2.7,9.83a341,341,0,0,1,26.88,31.47c3,3.86,5,3,7.45.21,3.52-4,6.78-8.19,10.33-12.14,7.89-8.77,15.9-17.43,23.83-26.17,2.6-2.86,2.93-5.64-.11-8.65-4.13-4.1-8-8.46-12-12.71-8.62-9.19-19.43-16.31-26.07-27.39A4,4,0,0,0,81.86,485.54ZM238.68,698.27c.08-1.12-.66-1.82-1.31-2.58-4.36-5.23-8.62-10.55-13.1-15.68-7.11-8.13-14.48-16-21.47-24.25-1.87-2.2-3.13-2-4.82-.36-11.12,11-22.13,22.05-31.74,34.41-1.83,2.35-3.4,5.14-.59,8.07a2.5,2.5,0,0,1-.07,3.62c-2.72,3.13-1.49,5.91.77,8.44q14.93,16.71,30,33.3c1.21,1.33,2.4,2.82,4.15.06,10-15.68,23-28.77,35.9-41.92C237.29,700.45,238.56,699.79,238.68,698.27ZM200,645.3c.2-1.74-.77-2.89-1.8-4q-12.81-13.93-25.63-27.88a5.79,5.79,0,0,0-4.32-2.15c-5.36-.06-10.46-1.74-15.65-2.74-2.4-.46-4-.27-5.67,1.71-5.93,7.17-12.13,14.11-17.25,21.92-2.06,3.15-4.27,6-1.75,10a2.91,2.91,0,0,1-.32,2.78c-4.4,4.42-.9,7.36,1.79,10.45,8.28,9.53,16.76,18.9,24.83,28.6,6.06,7.28,5.68,7.34,11.56.18,9.7-11.83,20.51-22.64,31.31-33.45C198.68,649.17,200.42,647.77,200,645.3Zm0-106.69c.3-1.48-.64-2.59-1.7-3.74-12-13.1-22.69-27.32-33-41.78-1.58-2.22-2.4-2.43-4.54-.68a203.44,203.44,0,0,0-23.82,23.32c-4.18,4.75-10.91,9.15-7.68,17.49a1.65,1.65,0,0,1-.38,1.4c-3.11,3.4-1,6.16,1.16,8.76,10,12.2,20,24.34,30,36.53,1.89,2.3,3.12,2.2,4.92-.31,2.59-3.64,5.74-6.87,8.55-10.35,7.13-8.81,15.7-16.23,23.46-24.43C198.59,543.12,200.24,541.43,200,538.61ZM397.39,810.07a2.77,2.77,0,0,0-1.52-2.83c-11.67-8-22.66-17-35.58-23-6.26-2.9-11.09-6.69-11.94-14-.32-2.77-1.6-2.72-3.11-.91a363.74,363.74,0,0,0-22.47,29.26c-1.14,1.67-1.4,3.39,0,5,1.82,2.1,1.48,4.08-.61,5.56-3.14,2.23-2.71,4.53-.65,7.14,1.44,1.83,2.58,3.95,4.24,5.54,10.44,10,20.08,20.8,29.76,31.54,4.69,5.2,4.91,5.21,9-.44a331.91,331.91,0,0,1,27.66-34C394.49,816.45,397.19,814,397.39,810.07ZM10.76,479c.26,2.53,1.83,4.23,3.35,6,9.17,10.75,18.37,21.46,27.41,32.32,2.13,2.56,3.29,3,5.53,0a220,220,0,0,1,31.62-35.24c3.54-3.13,2.19-8.25,5.06-11.64.21-.25-.52-1.49-1-2.11-8.84-11-18.44-21.4-28.24-31.59-1-1.08-2-1.47-3.45-.5-6.87,4.47-13.71,8.75-21.52,11.83C22.18,451,16.29,457,11,463.09c-1.7,2-3.62,4.58-1.75,7.2C11.28,473.12,12.23,475.79,10.76,479ZM278.31,643.91a4.44,4.44,0,0,0-1.41-3.69c-4.17-4.05-8.44-8-12.5-12.16-8.09-8.28-18.51-14.17-24.77-24.31-1.2-1.94-2.41-1.67-4-.19a200.84,200.84,0,0,0-28.22,32.16c-2,2.88-4.22,5.84-.86,9.33a2.15,2.15,0,0,1-.05,2.8c-2.84,3.78-.64,6.44,1.83,9.14,4.82,5.28,9.64,10.54,14.34,15.92s9.16,11,13.87,16.33c1.23,1.41,2.66,4.14,4.85.67,8.64-13.69,19.84-25.29,30.47-37.37C274.33,649.75,277.34,647.18,278.31,643.91Zm559.6,4a12.75,12.75,0,0,0-2.11,1.34c-8.49,7.45-17.1,14.77-25.36,22.47-7.34,6.85-7,11.28.85,17.42,2.31,1.81,2.64,3.15.4,5.05s-1.57,3.45.13,5.46c3.76,4.43,7.17,9.15,10.82,13.68,5.43,6.72,10.89,13.42,16.47,20,1.22,1.45,2.79,4.25,5,1,5.6-8.4,13.52-14.6,20.35-21.85,5-5.34,11.29-9.3,15.94-15,1.55-1.9,2.48-3.34.3-5.49-6.39-6.26-12.78-12.53-18.9-19.05-7.42-7.91-17.85-13.11-21.87-24.1C839.65,648.11,839.12,647.82,837.91,647.94Zm-525.6,40.57a8.18,8.18,0,0,0-2.9-4.84c-7.23-6.36-13.78-13.46-21.41-19.41-3.24-2.52-6.42-5.32-7.82-9.48-.93-2.77-2.34-2.93-4.25-.77-3,3.35-6,6.62-9,10a310.88,310.88,0,0,0-21.39,26.23c-1.83,2.56-3.33,5.1-.47,8a2.13,2.13,0,0,1,.06,3.15c-2.8,3.2-1,5.79,1.06,8.37,9.34,11.49,20.17,21.6,30,32.64,1.84,2.07,3,1.84,4.4-.66,7.2-12.41,16.17-23.52,25.66-34.24,1.39-1.57,2.41-3.23,2.31-5.33-.16-3.45,1.24-6.49,2.32-9.62C311.33,691.08,311.87,689.7,312.31,688.51ZM839.6,742.57c.58-1.58-.54-2.61-1.49-3.78-9.69-12-19.41-24.06-29-36.21-2.26-2.87-3.86-2.29-5.94,0a284.79,284.79,0,0,0-26.68,34.14c-1.63,2.43-2.28,4.81.3,7.1,1.27,1.14,1.67,2.72.63,4-2.54,3.23-.75,5.53,1.37,7.84,11.11,12.12,22.29,24.17,33.29,36.39,2.67,3,4,2.38,5.8-.76,4.86-8.52,9.72-17,15-25.31C837.51,758.81,841.73,751.7,839.6,742.57ZM317.06,796.92a3.17,3.17,0,0,0,3.11-1.79c8.9-13.26,19.38-25.29,29.37-37.7,4.66-5.8,4-11.19-1-16.5a76.87,76.87,0,0,0-26.41-18.3c-4.68-2-9-4.38-11.32-9.21-1.22-2.53-2.69-2.81-4.42-.59-7.48,9.53-15.51,18.64-21.78,29.07-1.89,3.17-3.36,6.18-.38,9.53a2.91,2.91,0,0,1,.24,3.74c-2.47,2.93-.59,4.82,1.26,6.85,9.92,10.94,20.13,21.61,29.33,33.19A12.52,12.52,0,0,0,317.06,796.92ZM557.68,608c-3.36-.19-7.81-.68-11.1,3.65-3.82,5-8.59,9.28-11.91,14.69-2.19,3.56-5.58,7.12-1.27,11.5a2.06,2.06,0,0,1,.29,1.88c-2.45,4.18.37,7.07,2.62,9.78,9.33,11.25,18.89,22.31,28.28,33.51,2,2.45,3.19,2,4.75-.52a60.38,60.38,0,0,1,6.34-8.91c8.64-9.65,17.1-19.45,26.25-28.62,4.35-4.36,4-7.5-.42-11.81-3.93-3.83-8.08-7.51-11.51-11.75C581.88,611.37,571.26,607.65,557.68,608Zm199.07-72.44a3.91,3.91,0,0,0-1.76-3.11c-4.59-3.36-8.27-7.69-12.37-11.57-8.56-8.11-17.59-15.74-24.87-25.1-2-2.61-3.17-.44-4.31.67a267.81,267.81,0,0,0-23.36,25.22c-2.35,3-6.31,6.46-5.61,9.63.94,4.27,1.17,7.39-.78,11.45-1,2.07,2.11,4.91,4.14,7q14.25,14.32,28.46,28.72c3.68,3.73,3.57,3.77,5.67-1.28a23,23,0,0,1,2.66-4.77c8.55-11.72,18.94-21.79,29-32.17C754.86,538.91,756.56,538,756.75,535.57ZM639.93,494c-.84.62-1.49,1.1-2.12,1.59-10.44,8.16-18.72,18.36-26.64,28.8-2.17,2.87-5.91,6.65-1.67,11.06a1.89,1.89,0,0,1,.09,1.83c-4,4.68,0,7.78,2.47,10.63,8.9,10.09,18.1,19.91,27.18,29.84,3.58,3.92,3.66,3.88,6.18-1.07a33.33,33.33,0,0,1,3.26-5C656.89,561,666.91,552,676,542c4.53-5,4.37-5.72-.18-10.61-11.2-12-24.29-22.26-33.93-35.77A10.37,10.37,0,0,0,639.93,494Zm39.92,36.28c.67-.8,1.25-1.37,1.69-2,9-13.45,19.87-25.27,31.57-36.4,2.13-2,4.19-4.55,1.19-7.74q-17.06-18.19-34-36.51c-1.65-1.79-2.52-1.79-4.27.1-3.14,3.41-6.35,7.09-10.28,9.37-8.48,4.9-13.87,12.62-19.73,19.91-2.1,2.61-4.69,6.2-.35,9.57a1.59,1.59,0,0,1,.11,2.28c-3.23,3.66-.38,6.37,1.75,8.62,9.81,10.42,19.84,20.62,29.81,30.88A24.49,24.49,0,0,0,679.85,530.26ZM488.7,704.1a15,15,0,0,0-2.72,2.46c-7.66,11.08-16,21.71-22.35,33.65-3.54,6.64-4.25,13.21.35,19.76a350,350,0,0,1,20.49,33.69c1.79,3.26,3,4.09,5.72.4a285.74,285.74,0,0,1,32.07-36.82c6.78-6.5,6.81-9.08.53-16.08Q507,723.52,491.25,705.82C490.61,705.1,490.28,704,488.7,704.1ZM533.78,535c-5.48,8.28,2.8,11.16,6.17,15.73,3.83,5.21,8.23,10,12.39,14.94q5.46,6.48,10.94,12.93c1.23,1.44,2.55,2.44,3.84.11,7-12.56,17.73-21.84,27.34-32.13q3.74-4,7.5-8c1.74-1.83,1.46-3.3-.35-5-8.11-7.87-16.23-15.75-24.11-23.86-4.13-4.24-9.34-7.64-11.53-13.55-1.36-3.67-3.08-3.6-5.65-.93-8.41,8.74-17.29,17.07-24.7,26.69-2.61,3.39-7.58,7.18-2.12,12.31C533.71,534.45,533.72,534.87,533.78,535Zm257.92-47.7c-.42-.84-.74-2.28-1.63-3.12-10.37-9.85-19.56-20.81-29.34-31.21-2.38-2.53-4.55-6.58-7.31-7.06-3-.51-4.72,4.37-7.46,6.4-.4.3-.74.68-1.16.95-8.63,5.56-15.2,13.26-21.58,21.09-2.81,3.45-5.76,7.33-1.48,11.91a1.92,1.92,0,0,1,.22,1.85c-4,5,.12,8.06,3,10.9,9.74,9.5,19.74,18.74,29.61,28.12,1.63,1.55,2.93,2.07,4.3-.29,7.7-13.22,18.81-23.53,29.43-34.24C789.75,491.2,791.21,489.89,791.7,487.34Zm41.41,49.74c0-1.32-.79-1.9-1.52-2.62-12.7-12.44-25.86-24.45-37.1-38.31-1.75-2.17-3-1.84-4.82,0a270,270,0,0,0-25.62,28.57c-1.95,2.59-4.29,5.47-.64,8.71a1.89,1.89,0,0,1,.09,2.75c-4.34,4-1,7,1.42,9.69q13.1,14.7,26.56,29.08c5.38,5.75,5.49,5.63,9.47-.89a21.06,21.06,0,0,1,1.76-2.42c8.5-10.24,17.58-20,26.93-29.4C831.15,540.67,832.86,539.25,833.11,537.08Zm-351.59-8.27c1.46-.1,2.88-1,3.72.72a1.77,1.77,0,0,1-.51,2.24c-1.25,1.08-2.47,2.35-4.38,1.77-4.22-1.28-7.39-3.75-8.8-8.06-.87-2.68-1.7-5.4-2.3-8.15s-1.62-2.48-3.25-.88a76.52,76.52,0,0,0-9.92,11.14c-4.73,6.87-3.75,13.22,1.24,19,8.95,10.46,18.65,20.28,28,30.42,2,2.21,3.2,2.76,5.07-.43a88.34,88.34,0,0,1,14.35-17.77c6.47-6.44,12.63-13.2,19.05-19.7,3.42-3.48,3.61-6.27,0-10.07C513.26,518,502.1,507.48,493.12,495c-1.62-2.26-2.88-2.09-4.69-.22-3.69,3.81-7.88,7.1-11.35,11.17-5.17,6.06-5.95,11.49-2.4,18.65C476.15,527.61,478.16,529.5,481.52,528.81Zm385.3-43.39c.52-2.34-1.05-3.66-2.55-5-11.94-10.56-23.92-21.07-35.79-31.71-1.87-1.67-2.66-.92-3.94.58a42.31,42.31,0,0,1-7.85,7.62A77.3,77.3,0,0,0,797.6,476.4c-1.86,2.69-3.16,5.63-.1,8.52a2.2,2.2,0,0,1,.36,3.16c-2.82,3.17-.8,5.49,1.2,7.81,10.32,12,22.11,22.56,33.11,33.88,2.41,2.49,3.73.54,4.89-1.5,7.52-13.2,16.85-25.09,26.55-36.71A13.19,13.19,0,0,0,866.82,485.42Zm-630.48,1.27c.65-2.2-.47-3.4-1.62-4.67-8.46-9.37-16.85-18.8-25.32-28.15-5.08-5.62-5-5.44-11.41-1.11-7.94,5.4-16.47,10-23.46,16.68-2.52,2.42-5.35,4.55-3.29,8.79a4.16,4.16,0,0,1-1,4.67c-5.16,4.56-2.28,8.39.75,12.38,9.05,11.91,18.22,23.72,27.8,35.2,2.12,2.54,3.23,2.42,5.15-.27a398,398,0,0,1,29.2-35.94C235.3,491.87,236.72,489.61,236.34,486.69ZM121,642c.61-2.2-.48-4.11-2.17-6-4.61-5-9.39-9.94-13.58-15.3-3.22-4.11-6.11-3.85-10.18-1.42-10.85,6.46-22.75,8.21-35.13,6.62-3-.39-6.12-1.74-7.9,1.78-2.13,4.22-8.39,7.09-4.62,13.37a4.35,4.35,0,0,1-.12,5.2c-2.52,2.83-1,4.71.93,6.79,10.6,11.71,21.67,23,30.84,36,1.64,2.31,3.11,2,4.68-.09,9.62-13,20.77-24.65,31.54-36.66C117.76,649.53,121.75,647.16,121,642Zm443.09-156.8c-.17-1.85-1.48-2.72-2.47-3.83-10.16-11.39-20.41-22.71-30.4-34.25-2.08-2.39-3.25-2.6-5.52-.45-3.25,3.06-6.47,6.45-10.34,8.51-9.2,4.89-14.64,13.2-20.56,21.1-2.19,2.92-2.86,6.44.35,9.45.79.75,1.51,1.7.88,2.58-2.58,3.62-.08,5.86,2.05,8.17,7.78,8.41,15.61,16.77,23.39,25.17,5.37,5.79,5.36,5.8,9.88-.11.3-.39.68-.73,1-1.12,8.3-10.42,17.93-19.6,27.36-28.95C561.54,489.62,563.67,487.88,564.07,485.19Zm92.16,126.13c-1.47.31-2.94.59-4.4.93-10.64,2.49-20.87,6.59-31.77,8.15-3,.44-10.83,10.44-10,13.37,1.09,3.63,3.38,6.85.29,10.55-.2.25,1,1.59,1.42,2.45,1.86,3.43,5,5.75,7.49,8.64,8.2,9.57,16.44,19.09,24.58,28.71,2.28,2.7,3.42,1.62,4.52-.89a35.8,35.8,0,0,1,6.44-9.42c8.89-9.89,17.67-19.88,26.63-29.71,3-3.27,2.81-5.83-.28-8.93-7.16-7.17-14.1-14.55-21.11-21.87A5,5,0,0,0,656.23,611.32Zm-53.1-163.67c-2,.61-3,2.46-4.6,3.65-10.33,7.78-20.78,15.44-27.88,26.6-.86,1.35-3,3.12-1.91,4.26,3,3.09,1.23,5-.69,7.46-1.17,1.53-.41,3.54.81,5.08a91.65,91.65,0,0,0,6.31,7.68c7.73,7.76,15.63,15.36,23.44,23,4.9,4.82,4.87,4.83,8.29-.86a36,36,0,0,1,2.54-3.69c8.25-10.44,16.92-20.49,27.2-29,2.79-2.31,3.79-4.19.6-7.57-10.6-11.21-20.76-22.83-31.09-34.29C605.3,449,604.87,447.55,603.13,447.65Zm7.73,168c3-.5,6.21.64,8.47-2.3,6.4-8.33,14-15.53,21.36-23,2.19-2.23,1.95-3.78-.31-6.19-9.76-10.4-18.88-21.41-29.08-31.42-2.22-2.19-4.47-4.53-5.66-7.53-1-2.44-2.24-2.7-4-.94-11.08,10.79-21.63,22.06-30.74,34.6-1.54,2.12-2.64,4.43.1,6.53,1.4,1.07,1.58,2.4.2,3.24-3.62,2.22-1.55,4.31-.21,6.63C579.89,610.81,595.53,612.93,610.86,615.69Zm-98.49-1.39c1.45-.37,2.92-.67,4.35-1.12,8.88-2.8,17.78-5.56,26.61-8.53,2.31-.78,5-.15,7-2.17,4.19-4.28,8.5-8.44,12.78-12.63,2.33-2.28,2.34-4.23,0-6.81-9.53-10.67-18.68-21.69-28.35-32.22-2.66-2.9-3.92-8.49-7.48-8.56-3.83-.07-6.17,5-9.11,7.9-8.12,7.87-16.18,15.84-23,25-2.22,3-5.05,6.2-1.22,10.13a1.82,1.82,0,0,1-.27,2.7c-3.38,2.75-1.49,5.47.21,7.88,4.43,6.27,9.92,11.64,15.36,17C510.18,613.71,511,614.48,512.37,614.3ZM269.81,544.15a5,5,0,0,0-4.48-3c-4.75-.37-6.93-3.4-8.46-7.36a26.68,26.68,0,0,1-1.82-9.75c0-4.08-.81-7.73-3.82-10.94-4.19-4.47-8.74-8.76-11.7-14.2-1.79-3.3-2.94-2.39-5-.3-9.8,10-18.35,21-26.74,32.19-1.94,2.58-4.13,5.5-1.19,9a2.33,2.33,0,0,1-.23,2.28c-4.81,3.8-1.19,6.9,1.07,9.54,7.15,8.31,14.37,16.55,21.07,25.25,2.15,2.78,3.33,7.91,8.88,5.07.29-.15.94.28,1.35.55,1.71,1.19,2.6.31,3.57-1.13a419.28,419.28,0,0,1,25.37-34A34.18,34.18,0,0,0,269.81,544.15ZM792.31,607c-2.73.45-5.53-1.21-7.73,1.37-5.4,6.31-11.09,12.38-15.64,19.39-1.64,2.53-2.26,4.8.2,7.12,1.29,1.21,1.6,2.72.34,4-2.52,2.46-1.28,4.44.5,6.45,9.49,10.71,19,21.39,28.45,32.14,1.84,2.09,3.37,2.36,4.24-.52,1.33-4.41,4.52-7.33,7.72-10.22,9.36-8.46,18.76-16.89,28.27-25.18,2.45-2.13,2.15-3.46,0-5.58-6.95-6.91-13.74-14-20.53-21.07-1.75-1.82-3.42-3.55-6-4.28C805.58,608.74,799,607.12,792.31,607Zm-92,8.77a4.07,4.07,0,0,0-2.5,1.75c-2.9,4.06-6,8-8.61,12.24-1.59,2.54-1.85,5.38.91,7.64,1.4,1.16,1.67,2.5.31,3.83-2.27,2.22-.78,3.89.73,5.54,10.19,11.17,20.46,22.26,30.56,33.51,2.89,3.22,4.83,4.11,6.91-.67a29.72,29.72,0,0,1,4.49-6.56c8.39-10.33,17.4-20.11,26.46-29.84,2.4-2.56,5.29-5.41,1.89-8.94-5.29-5.51-11-10.59-16.4-16-1.88-1.92-3.53-2.22-6.16-1.65-6.79,1.48-13.59,3.29-20.65,2.91C712.63,619.22,707.23,617.55,700.34,615.79Zm-539.4-27.3c.37-2.16-1-3.57-2.33-5.15q-16.77-20.39-33.4-40.9c-2-2.49-3.49-1.9-5.25-.05-10.39,11-20.91,21.88-30.11,33.94-2.2,2.88-4.15,5.7-1.69,9.42a2.24,2.24,0,0,1-.22,2.82c-3.21,3-1.28,5.65.51,8.37,2.32,3.51,5.79,6,8.25,9.33,3.07,4.12,6.17,4.16,10.21,1.77,12.39-7.33,25.76-8.19,39.57-5.63a4,4,0,0,0,4.38-1.37c2-2.39,4.42-4.51,6.53-6.85C158.88,592.53,161.44,591.51,160.94,588.49ZM125.09,458.35a4.33,4.33,0,0,0-1.53.29c-9.41,5.06-20,7.26-29.45,12-4.5,2.27-4.49,8.73-8.22,12.21-.34.31.23,2,.75,2.74a36.94,36.94,0,0,0,4.27,5.5c10.2,10.29,20.54,20.43,30.69,30.77,2.39,2.43,3.57,2.28,5.66-.43a214,214,0,0,1,27.83-29.26c4.22-3.75,6.38-8.08,8.1-13.29,1.47-4.47-.08-6.76-3.5-8.39-7.21-3.44-12.61-10.46-22.21-9.49C134,461.39,129.41,459.8,125.09,458.35ZM797.75,587.52c-.06-1.29-1.46-2.24-2.58-3.48-11.92-13.2-24.67-25.66-35.77-39.58-1.23-1.53-2.18-2.54-3.93-.79-10.26,10.22-20.82,20.2-29,32.21-2.07,3-4.8,7,.1,10.43a1.41,1.41,0,0,1,.28,2.2c-3.43,3-.45,5.12,1.19,7,3.44,4,7.2,7.82,10.85,11.69,2.12,2.24,4.4,2.77,7.63,1.94,12.54-3.24,24.85-7.67,38-8,1.87,0,12.83-10.3,13.22-12.15A11.76,11.76,0,0,0,797.75,587.52ZM454.54,639.46c1.45,3.57,1.62,8.22,5.46,11.7,7.76,7,15.09,14.54,22.63,21.81,2.5,2.41,4.86,6.13,7.76,6.66,3.65.68,4.31-4.78,7.09-6.76a2.32,2.32,0,0,0,.35-.35q12.8-15,26.86-28.8c2.34-2.31,3.58-5.33,1.22-8-4.48-5.14-9.4-9.89-14.13-14.8-1.27-1.31-2.86-.66-4.27-.57-8.71.51-17.19-.08-25.57-3-13-4.49-13.14-4.32-20.89,7C458.06,628.78,454.88,633.16,454.54,639.46ZM719.72,588a3.19,3.19,0,0,0-1.43-2.53c-5.58-4.76-10.07-10.57-15.18-15.77-6.88-7-14.34-13.51-20.48-21.1-3.34-4.13-4.67-3.51-7.59-.34-4.38,4.77-9.31,9-13.58,13.9-4.58,5.21-9.77,10-13.21,16.11-1.42,2.51-3.39,5.34.56,7.7,1.58.95,1.09,2.35-.11,3.27-2.82,2.16-1.78,4.3-.08,6.41,2.29,2.84,4.64,5.63,7,8.41a4.6,4.6,0,0,0,4.47,1.68c12.58-2.3,24.81-.56,36.81,3.34,2.15.7,3.46-.09,4.83-1.46,5.28-5.27,10.61-10.5,15.87-15.79A5.9,5.9,0,0,0,719.72,588ZM286.09,607.25c3.9.48,6.56-.47,8.25-4.58a107.09,107.09,0,0,1,7.75-14.47c4.47-7.37,4.59-7.31-.6-14.16A143.77,143.77,0,0,0,278,549.1c-2.71-2.21-4.43-2.49-6.95.38-7.7,8.75-14.5,18.18-21.31,27.61-2.52,3.49-5.49,6.73-6.78,11-.6,2-1.06,4.55,1.59,4.9,9.33,1.24,16.78,6.91,25.26,10.12C275.1,605.1,280.41,607,286.09,607.25ZM165,596.34c.19,4.84,6.4,10.11,11.14,9.69,8.54-.75,15.91-4.44,23.22-8.57s14.62-8.86,23.6-8.55c2.83.1,5.64-.12,6.82-2.95,1.07-2.6-1.52-4.15-2.91-5.83-8-9.76-16.35-19.28-24.17-29.21-2.26-2.86-3.44-2.81-5.71-.49-9.41,9.65-19.34,18.81-27.51,29.61-2.12,2.79-5,5.15-2,9.12.89,1.19-.12,2.56-1,3.58A4.61,4.61,0,0,0,165,596.34Zm165.44,97.43c-2.09.39-4.55-.89-5.83,1-2.24,3.3-5.79,4.94-8.53,7.56-4.34,4.16-4.42,7-.12,11.29a12.57,12.57,0,0,0,3.64,2.6c12.57,5.65,23.89,13,33.17,23.36,2.12,2.35,3.13,1.5,4.06-1.07a107.92,107.92,0,0,1,4.86-12c3.42-6.78,5.23-14.27,9.4-20.7,1.49-2.29-.51-2.93-2.06-3.45C356.36,698.14,343.55,694.77,330.39,693.77Zm-99.08-93.95c-1.44-1.5,1.46-5.76-2.92-5.91-5.43-.2-10.8.18-15.95,2.56-10.68,4.93-20.38,12-32.17,14.53-3.4.71-2.29,2.45-.75,4.17q9.31,10.4,18.61,20.79c1.78,2,3.23,2.48,5-.19,7.65-11.54,16.82-21.83,26.52-31.66C230.7,603,231.74,601.92,231.31,599.82Zm57.19,14.82c-.18-2.26-1.66-2.6-3.22-2.57-5.82.11-11.09-1.84-16.31-4.12-7.31-3.19-14.64-6.33-22-9.48-1.2-.52-2.52-1.28-3.69-.14s-.7,2.51-.37,3.78a8.46,8.46,0,0,0,2.75,4.06c10.36,9.36,20.71,18.71,31,28.18,2.25,2.09,3.11,1.47,4.1-1,2.28-5.72,4.75-11.35,7.14-17C288.14,615.68,288.35,615.06,288.5,614.64Zm124,51.41c-.63.29-1.11.45-1.53.7-10.48,6.39-21.3,12.38-29.83,21.42-3.43,3.63-6.89,7-4.15,13.65,1.92,4.69,3.24,3.59,5.67,1.89,8.84-6.19,17.71-12.35,25.53-19.84,1-1,2.18-1.78,1.48-3.31-1.08-2.37.27-3.58,1.84-5a13.32,13.32,0,0,0,3.13-4.45C415.57,668.86,415.08,666.88,412.5,666.05ZM133.78,606.22a59.82,59.82,0,0,0-24.52,5.91c-3.73,1.74-4.25,3.54-1.31,6.59,4.28,4.42,8.38,9,12.44,13.64,2,2.33,3.16,1.89,4.87-.52,4.33-6.11,9-12,13.51-17.94,1.46-1.94,5.08-3.74,4.15-5.62-1.33-2.69-5.17-2.09-8.13-2.07ZM58.17,619.93c13,2.77,24.33.36,35.27-5.28,3.07-1.58,3.56-3,1-5.49-4-3.93-8-7.93-10.67-13-1-2-2.16-2-3.82-.35C72.41,603.24,65,610.77,58.17,619.93ZM468.88,492.44c.43,3.15.9,6.76,1.42,10.37.4,2.89,1.76,2.92,3.56,1.08,4.65-4.76,9.24-9.57,13.91-14.31,1.4-1.42,1.76-2.76.22-4.27a139.43,139.43,0,0,1-14.31-15.93,1.81,1.81,0,0,0-2.13-.87c-1,.36-.87,1.3-.85,2.12C470.87,477.79,469.69,484.85,468.88,492.44Zm388.9,118c-.58-.2-.91-.43-1.19-.38-10.38,2-20.66,4.94-31.43,3.34-.66-.1-1.4-.22-1.74.48-.56,1.16.42,1.84,1.08,2.51,5,5.08,10.15,10.07,15.1,15.21,2.09,2.18,3.09,1.43,4.48-.76,2.49-3.91,5.46-7.52,7.92-11.44C853.87,616.37,856.81,614,857.78,610.4ZM720,613.88c4.1.35,8.33-.66,12.6-1.13,1.37-.15,3.25,0,3.83-1.74s-1.13-2.56-2.16-3.53c-4-3.75-8-7.47-11-12-1.5-2.26-2.36-2.21-4.07-.45-4.27,4.38-8.64,8.68-13,13-2.52,2.46-1.41,3.52,1.38,4.27A37.67,37.67,0,0,0,720,613.88Zm-47.78-4.46c-1.84.14-3.85.13-5.79.46-2.43.42-3.24,1.72-1.28,3.71q8.18,8.34,16.42,16.59c1.67,1.68,3.09,1.82,4.07-.73a36.7,36.7,0,0,1,7.64-11.54c2.58-2.77,1.39-3.7-1.48-4.69A71.55,71.55,0,0,0,672.22,609.42Zm105-2.26c-9.27,1.16-17.88,3.72-26.53,6.05-2.31.63-3.68,1.59-1.19,4,3.86,3.67,7.53,7.53,11.27,11.31,1.64,1.66,3.2,1.9,4.28-.48,3.16-6.94,8.38-12.32,13.38-17.87.56-.62,1.33-1.15,1-2.09C779,606.77,777.86,607.2,777.27,607.16ZM498.44,615.4a8.23,8.23,0,0,0,1.49,0c1.53-.27,3.64.9,4.47-1,.76-1.7-1.37-2.38-2.23-3.48-4.08-5.17-9.63-9.14-12.39-15.4-.9-2-2.55-2.17-3.94-.63-3.53,3.93-7.73,7.25-10.69,11.7-.89,1.34-1,2.51.76,3.11C483.28,612.16,490.58,614.86,498.44,615.4ZM340.45,571c-1.79-.67,2.22-5.92-3-4.37-7.74,2.29-15.54,4.25-23.05,7.46-5.13,2.2-3.65,5.67-2.52,8.35,1.44,3.4,4.13.66,6.17-.24a38.37,38.37,0,0,1,10.83-3.35,24.46,24.46,0,0,0,9.34-3.15C339.84,574.71,341.31,573.6,340.45,571Zm311,34.66a3.45,3.45,0,0,0-.32-.92c-2.2-3.1-4.35-6.24-6.66-9.25-1.07-1.41-2.32-.81-3.37.25-4.89,4.95-9.79,9.89-14.65,14.85-.67.69-1.63,1.48-1.08,2.55.72,1.39,2,.73,3.07.42q10.25-3,20.5-6C650,607.23,651.25,607.15,651.4,605.61ZM527.09,630.88c.67-.54,1.37-.83,1.64-1.34,3-5.8,7.17-10.72,11.21-15.76a2.11,2.11,0,0,0,.41-1.78c-.38-.93-1.38-.75-2.15-.51-6.78,2.18-13.58,4.29-20.29,6.65-2.41.85-1.51,2.61-.25,3.92,2.4,2.51,4.9,4.94,7.4,7.36A16.38,16.38,0,0,0,527.09,630.88Zm66.24-13.4-.74,1.33c4,4.12,7.94,8.26,11.93,12.37.66.69,1.57.93,2.13.09,1.75-2.62,3.45-5.28,5-8,.64-1.16-.4-1.81-1.47-2C604.51,620.1,598.78,619.58,593.33,617.48ZM260.06,522.73c-1.64,0-2,.4-2.27,1.13-1.4,4.22,3.36,13.14,7.8,13.73a20.67,20.67,0,0,1,6.52,2.14c.9.44,2,1,2.73.1,1-1.28-.23-2.1-1-2.88-4.36-4.35-8.76-8.65-13.11-13A3,3,0,0,1,260.06,522.73Zm-228,99,8.86,10.55c1.06,1.26,2.24,1.49,3.27,0,1.44-2,2.79-4.12,4.12-6.22.6-1,.75-1.9-.71-2.21C42.71,622.86,38,620.72,32.06,621.75ZM409,820a17.82,17.82,0,0,0-.52-7.32c-.32-1-.77-1.86-2.08-1.53-3,.77-5.94,6.4-4.57,9.09,1.28,2.5,3,5.88,5.73,5.38C410.49,825.05,408.61,821.31,409,820ZM564,603.41c1.91-1.17,5.93,1.48,5.88-2a8.51,8.51,0,0,0-5.07-7.22c-1.3-.51-8,6.21-7.47,7.35C558.75,604.71,561.74,602.51,564,603.41ZM345.55,564.27l.4,1.92a180.46,180.46,0,0,0,28-6.31c-.09-.44-.19-.88-.28-1.31ZM455.87,438c.32,4.44,3.11,7.77,5.76,11.13a2,2,0,0,0,1.72.59c1-.29.88-1.32.57-2q-2.28-5.49-4.72-10.9c-.4-.92-1.09-1.78-2.27-1.42S456.06,437,455.87,438ZM801.63,602.41c1.16.06,2.38.63,2.73-.68a3.3,3.3,0,0,0-.73-2.17,16.24,16.24,0,0,0-1.93-2.23c-1.11-1.19-1.66-3.88-4-2.26-1.81,1.25-4.43,2.73-4.28,5s3,.88,4.62,1.47A29.56,29.56,0,0,0,801.63,602.41ZM432.75,654.15a76.8,76.8,0,0,0-15.81,9.31c-1,.77-1.47,2.08-.55,3,1.39,1.44,2.52,0,3.11-1,1.68-2.86,4.62-4.12,7.05-6C428.67,657.81,431.39,656.85,432.75,654.15ZM765.68,450.81c-1.41-3.11-2.71-6.28-4.29-9.3-.48-.91-1-3-2.75-1.85-1.47.95-2.21,2.48-.83,4.25C759.92,446.6,762,449.33,765.68,450.81ZM164.56,604c-1.67-1.67-1.38-5.38-4.34-5.73-2-.25-4.47,2.25-4.45,3.91,0,3.78,4.06,1.82,6.07,3.05C162.74,605.75,164.12,605.94,164.56,604ZM615.17,452.34c-1.48-3.08-2.93-6.17-4.44-9.24-.57-1.16-1.11-2.67-2.87-1.7a2.4,2.4,0,0,0-.81,3.81C609.09,448.14,611.08,451.17,615.17,452.34ZM466.79,474.22a23.68,23.68,0,0,0,.31-12.44,2.83,2.83,0,0,0-1.66-1.57,1,1,0,0,0-1.12,1.21C465.74,465.58,463.92,470.28,466.79,474.22ZM538.92,450c0-4-2.62-6.29-3.55-9.18-.4-1.24-1.21-2.6-2.89-1.54-1.43.91-1.11,2.26-.37,3.46C533.74,445.32,535.29,448,538.92,450Zm299.84,1.94c-.71-3.68-3.73-5.21-4.78-7.91-.46-1.19-1.47-2-2.74-1A1.93,1.93,0,0,0,831,446C833.1,448.29,835.14,450.59,838.76,451.9ZM688.9,449.81c-1.33-2.68-2.63-5.38-4-8a1.55,1.55,0,0,0-2.11-.71,1.47,1.47,0,0,0-.77,2.06C683.8,445.67,684.9,448.88,688.9,449.81Z" transform="translate(-1 -1)"/><path d="M128,1c6.55,7.49,10.47,16.91,18,23.78,5,4.61,10.39,6.2,16.87,4.63A10,10,0,0,0,169.08,25c3.63-5.32,7.65-10.35,9.61-17.84,3.93,7.53,11,8.49,16.82,11.27,3,1.45,3.68,2.84,2.1,5.65-2.83,5-2.63,9.73,1.21,14.3a10.68,10.68,0,0,0,7.79,3.82c1.47.12,3,.52,3.46,2.35s-.7,2.52-1.81,3.64a52.15,52.15,0,0,0-12.85,21.41,6.81,6.81,0,0,0,.83,6.21,33.23,33.23,0,0,0,14.08,11.74c6.9,3.15,13.93,1.78,21.61,3.58-3,2-5,3.74-7.39,4.89-4,2-3.57,4.41-1.07,7,4,4.26,9.65,6.23,14.57,9.11,3.46,2,5.36,5.34,8.44,7.55,1.48,1.05.4,2.22-1,2.18-2.61-.09-5.2.22-7.81-1-10.91-5.14-20.26,3.71-21.56,12.86-.89,6.31-1.91,12.74-.46,19.3.88,4-1.74,5.42-5.5,3.7-11.19-5.12-19.09-1.92-23.78,9.16-4.3,10.15-3.71,21-5.33,31.57-.24,1.57.65,3.73-1.25,4.49-2.07.84-2-1.7-2.93-2.63-3-2.93-5.78-1.1-7.88,1-2.8,2.76-4.13,2.89-6.82-.54-5.73-7.31-13.05-12.48-22.88-13A14.57,14.57,0,0,0,128,191.16C122.41,196.73,117,202.58,116.1,211a1.35,1.35,0,0,1-.11.49q-1.87,4.49-3.77,9c-2.59-1.46-3-4.58-4.9-6.55-3.21-3.23-6.79-2.11-10.2-.75-3,1.17-5.69,2.9-9.84,5.08,3.36-4.66,2.72-8.77,2.72-12.79,0-7.41-6.79-11.63-13.71-8.58-6.09,2.68-6.21,2.61-6.22-4.13,0-2.16.12-4.34,0-6.49s1.26-5.18-2.13-5.8c-3.06-.56-6.2-.72-8.53,2.48-2.93,4-6.26,7.77-9.47,11.59-1.38,1.64-3.2,3.7-5.19,3.21-2.47-.61-1.13-3.41-1.28-5.24-.22-2.65,0-5.33-.1-8,0-1.44.32-3.18-1.5-3.87A3.09,3.09,0,0,0,38.34,182c-2.61,3.48-6.76,4.46-10.19,6.6-1.15.72-2.6,1.34-3.68.23-1.43-1.46.25-2.22,1.09-3.16,1.43-1.61,2.67-3.42,4.2-4.93,7.05-7,7.14-12.87.45-20.19-3-3.31-5.68-6.94-9.41-9.57-2-1.38-1.08-2.47.6-3.26,2.26-1.05,4.57-2,6.82-3.09,3.53-1.7,4.7-4.31,2.24-7.62s-2.31-6.25.18-9.51c3.07-4,3.16-8.88.31-12.6-2.29-3-5.56-6.34-10.28-5.38-2.54.51-2.76-.82-3-2.65-.91-6.5-4.12-9.77-10.77-10C3.2,96.72,2.76,95.21,2.43,92,1.38,81.93,3,74.24,13.88,69.5c6.17-2.68,9.53-9.59,12.49-16.37,3.09-7,2.42-13.9,2.69-20.93.07-2.1.25-3.51,2.89-4.38,5.38-1.78,9.82-5,12.28-10.53C46.6,12,49.31,6.87,50,1h5c.92,2.11,2.09,4.07,2.84,6.31,1.42,4.19,8.54,9.35,10.92,7.77,3.42-2.28,7.73-1.82,10.92-4.42,2.51-2.05,4.61-1.09,6.24,1.4a35.52,35.52,0,0,0,7,8.33c3.25,2.68,8.69,3.32,11.92.68s5.82-2.74,9.13.14c4.11,3.58,10.61,1,10.8-4.42C125,11.5,126,6.29,126,1Zm26.47,112.35c-.36-8.34-.66-14.06-2.26-20a42,42,0,0,0-10.83-18.79C134.8,68,127.69,61,117.11,60.73a5.2,5.2,0,0,1-2.26-1c-3-1.76-6.24-2.06-9.62-2.09-4.14,0-7.65,2.58-11.4,3-10.78,1.27-17.6,8.18-24.52,15.27C64.37,81,62.08,87.27,60,93.91c-4.29,13.46-2.58,26.31,2.3,39.1,1.62,4.27,4.78,7.5,7.39,11.11,4.27,5.88,10,9.75,16.16,13.34C91.6,160.83,98,160.25,104.1,161c15,1.76,28-3.68,37.31-14.74C149.69,136.46,156.6,125.08,154.47,113.35Zm28.76-21.8c-2-1.48-1.53-4.15-2.72-6-1.64-2.59-4,.26-6.31-.21-4.33-.87-2.59,4.56-4.52,6.72-.89,1,5,6.94,6.59,6.23A15.16,15.16,0,0,0,183.23,91.55Zm-21.11,56.16c-2.48-.06-7.65,5.37-6.8,7.76.93,2.62,4.14,3.38,6.22,5.11.81.67,7.51-4.76,7.49-5.85A7.26,7.26,0,0,0,162.12,147.71ZM107.43,187c2.46-.51,5.82-.17,5.79-3.89S111,177.2,107,176.88c-4.22-.33-5,2.28-5.24,5.52C101.39,186.65,104.73,186.38,107.43,187Zm27.51-139c.11,2.78,2.06,4.47,5.08,4.24,3.37-.26,5.23-2.35,5.24-6,0-3.34-1.46-4.65-4.8-4.75C136.09,41.45,135.21,44.1,134.94,48.06ZM69.81,42.62c-.12,3.34,2.21,5.86,4.67,6a5.63,5.63,0,0,0,6-4.95c.27-2.69-4.09-5.59-7.6-5.64S70.19,40.68,69.81,42.62ZM37.21,86.41c-3.44.22-1.9,3-2.23,4.83-.64,3.57,1.32,6.4,4.47,6.25,2.15-.1,5.78-1.7,5.41-5.44C44.42,87.64,41.09,86.63,37.21,86.41Zm16.5,64.38c-4.67-2.24-4.91,2-5.18,4.18-.34,2.87,3.08,4.3,5,4.51a4.62,4.62,0,0,0,4.72-4.67C58.12,152.61,58.15,148.71,53.71,150.79Z" transform="translate(-1 -1)"/><path d="M802,1c-.66,6.5,3,12.08,4,18.24.51,3.09,1.71,6.05,1.55,9.29-.09,2-.29,4.09,3,3.93,1.9-.09,1.43,1.31.73,2.42-2.73,4.37-.89,8.77.29,13,1,3.38,4.27,3.53,7.11,3,3.82-.68,1.19-3.39,1.19-5.17,0-3.82-.29-7.63-.43-11.45-.07-1.81.41-3.85-1-5.26-3.65-3.66,1.51-3.46,2.25-5.17.12-.27,1.6.09,1.46.79-1.4,6.77,4.89,9.7,7.21,14.59a26.11,26.11,0,0,0,2,2.88c2,3.14,4.26,5.73,8.67,2.85-2.66,3.79-6,6.16-9.35,8.44-.81.55-2.22,1-2.38,1.64-1.68,7.58-5.85,2.27-7.25.72-3.69-4.06-9.26-4.92-13.17-5.2-8.46-.62-17.53-3-25.81,2.15-2.31,1.44-5.26.54-5.38-2.89-.09-2.71-1.54-4.24-3.2-5.88a37.51,37.51,0,0,1-6.79-8.56c-.91-1.67-.84-4.49-4.4-2.84-1.74.81-1.21-1.48-.9-2.27a23.2,23.2,0,0,1,5.82-8.92c2.38,7.58,7.92,11.47,14.36,14.46a6.1,6.1,0,0,1,2.29,1.77c2.26,3.21,3.93,2.09,5.64-1.35a12.56,12.56,0,0,1,.39,6.86c-.37,2.26-.32,4.08,2.53,4.31s4.48-1,4.48-4c0-5.82,0-11.65,0-17.48,0-8.41.8-16.91-2.77-24.93Z" transform="translate(-1 -1)"/><path d="M900,107c-3.71-.58-7.26-.44-10.58,1.68a7.79,7.79,0,0,1-5.76,1.23c-6.95-1.6-12.68,3.21-19.28,3.45-2.28.09-2.47,2.07-1.22,4.37-6.42-2.91-15-2.13-18.09,1.84.72-5.19,1.21-9.66,2-14.08.46-2.55,2.71-1.88,4.48-1.89,11.31-.07,22.62.4,33.91-.69,1.11-.1,2.21-.31,3.25-.47.31-1.91-3.25-1.85-1.73-3.57s4.16-1.41,6-.44c2.27,1.18,4.33,2.48,7,1.57Z" transform="translate(-1 -1)"/><path d="M828.82,184.6c-2.61-10.81-11.49-12-18.32-15.18-5.31-2.5-2-6.72-3.43-9.89-1-2.25,2.47-2.27,3.94-2.29,2.47,0,3.62-3.08,6.3-2.4-2.87,4.35-.59,10.17,5.48,14.23,1.23.82,2.74,1.18,3.52,2.66.66,1.23.7,3.35,2.66,3.14s2.72-2.32,3.37-4c2.46-6.15,1.45-9.44-4.06-13.24-2.57-1.76-5-3.81-8.61-5.09,4.28-2.8,8.37-4.88,11.14-8.59,1-1.3,1.81-.78,2.66.48,7.18,10.64,16.31,19.63,24.81,29.14,1.38,1.55,2.76,4.43,6.08,2.82,1.35-.65,1.91,1,2.5,1.92,2.58,4,5.11,8.11,7.63,12.18.66,1.06,1,2.35-.07,3.16s-1.72-.36-2.43-1.07c-6.53-6.56-14.51-11.33-21.49-17.33-3.41-2.92-6.87-5.78-10.3-8.67-2.51-2.11-4.45-1.62-4.86,1.62C834.65,173.81,831.55,178.27,828.82,184.6Z" transform="translate(-1 -1)"/><path d="M727.4,86.61c8,5.77,11.18,6,18.62,1.55,2.5-1.51,2.45.25,2.42,1.9-.1,6.63-3,12.75-3.33,19.61-2.93-5.57-7.48-5-12.48-5-5.3,0-10.57.7-15.86.34-2.73-.19-5.13.27-7,2.77a5.17,5.17,0,0,1-6.8,1.36c-4.29-2.56-8.84-2.29-13.47-2.45-1.89-.07-4.84.52-5.09-2.63S687,101,689,100.88c8-.3,15.43-3.19,23.31-4a49,49,0,0,0,11.93-3.22C727.12,92.62,730,90.87,727.4,86.61Z" transform="translate(-1 -1)"/><path d="M733.36,142.66c4.74-2.06,9.73,1.14,13.82-3.41,3.71-4.13.72-8.83,2.74-13.73,2.27,7.75,6.89,12.89,10.94,18.37,1.35,1.82,2.4,2.9-1,3.46a11,11,0,0,0-7.11,5.06c-2.31,3.55-6,5.92-8.19,9.2-4.14,6.26-11.32,10.36-12.89,18.52-.38,2-2.39,3.8-4.49,5.12-3.23,2-6.54,4-9.07,7-.59.69-1.26,1.91-2.35,1-.94-.81-.27-2,.28-2.71,5.1-6.73,8.66-14.38,13.09-21.52,4.28-6.9,8.67-13.73,12.31-21,1.25-2.51.8-3.27-1.84-3.28A9.36,9.36,0,0,1,733.36,142.66Z" transform="translate(-1 -1)"/><path d="M795.67,231.74c-.76-1-1.27-1.29-1.31-1.68-.86-8.22-2.48-16.41-3-24.57-.57-8.52-2.57-16.69-3.61-25.05-.25-2-.36-4-2.27-5.29-2.16-1.46-1.65-3.1-.63-5.16,2.27-4.6.7-9.1-3.85-11.54,2.57-2.2,4.64-.46,6.82.54,3.06,1.39,7.87-.33,9.28,3.23,1.1,2.78-.36,6.5-.39,9.8-.08,10.31,0,20.62,0,30.93a30.17,30.17,0,0,0,1.79,11.15C800.71,220.06,797,225.51,795.67,231.74Z" transform="translate(-1 -1)"/><path d="M758.9,40.54C758.55,51,765.27,53.94,774.26,55c-4.38,3.49-8.39,6.58-12.27,9.83-1.33,1.11-1.77.64-2.63-.53-6.81-9.23-15.47-16.67-23.77-24.47-1.29-1.2-2.22-2.55-4-.72-1.53,1.53-1.9-.31-2.45-1.1-2.91-4.22-5.77-8.48-8.63-12.74-.51-.77-1.59-1.59-.66-2.55s2-.33,2.77.2c6.9,4.57,13.79,9.15,20.63,13.81,2.6,1.77,5.07,3.73,7.58,5.63C754.9,45.49,755.56,45.37,758.9,40.54Z" transform="translate(-1 -1)"/><path d="M840.34,76.85A45.61,45.61,0,0,0,833.17,66c-.85-.89-1.52-2.68,0-2.71,4.81-.09,6.12-4.27,8.59-6.87,6.28-6.61,12.17-13.59,18.2-20.44.65-.73,1.7-1.64,1.65-2.39-.5-6.54,4.49-8.56,8.84-11.2,1.27-.76,2.3-1.9,3.51-2.77.92-.65,1.35-3,3-1.43,1.32,1.24-.19,2.21-.93,3.32-7.53,11.29-15,22.59-22.36,34-1.47,2.29-3.94,4.67-2.09,8,.38.69-.13,1.27-.86,1.48C845.12,66.67,843.41,71.84,840.34,76.85Z" transform="translate(-1 -1)"/><path d="M726.37,73.32c7.27-1.12,14.59-2.14,19.56-8.61,1.45-1.88,2-.43,2.83.58,1.83,2.13,2.5,5.38,6.39,5.51,1.93.06,1,1.94.42,3.11-1.43,3-3.88,5.39-4.41,8.82-.17,1-1.18,2.1-2.08,1.07-3-3.44-6.91-2-10.3-1.83-4.36.28-8.85-1.83-13.12.67-.87.51-1.4-.57-1.63-1.38-.5-1.75-.91-3.52-1.4-5.27C721.53,72.07,724.12,72.87,726.37,73.32Z" transform="translate(-1 -1)"/><path d="M869.93,134.73c-8.83-1.93-15.51,3.26-22.47,7.15-2.28,1.28-2.93,1.44-3.7-1.11-.36-1.2-1.47-2.18-2.25-3.25a8,8,0,0,1,.83-10.94,2.44,2.44,0,0,1,3.21-.4c2.75,2.28,5.86,1.59,8.5.63,5.57-2,10.36,1.48,15.6,1.56,2.07,0,2.9,2,2.8,4.08C872.38,134,871.71,135,869.93,134.73Z" transform="translate(-1 -1)"/><path d="M867.7,65.08c-6.8,2.79-7.55,8.15-7,14.07.35,3.58-2.19,6.48-2.15,10.14,0,2.35-2.85,1.42-4.53,1.72-2.58.47-5.33-2.59-7.86.53-.59.74-1.49-.38-1.6-1.21a15.24,15.24,0,0,1-.18-4.46c.49-2.68-2.83-4.34-2.17-6.29,1-3,3.77,1.43,5.81-.67,3.48-3.57,7-7.17,9.38-11.5S861.72,62.42,867.7,65.08Z" transform="translate(-1 -1)"/><path d="M729.94,114.37a9.58,9.58,0,0,1,8.43.55c1.67.85,3.33,1.43,5.23.76s4.19-1.33,4.58,1.69c.35,2.76,2.58,6.52-1.16,8-6.74,2.75-10.73,8.15-14.49,13.68-2.46,3.62-5.74,2.61-7.7,1.32-3-1.93-.57-4.46,1.39-6,4.81-3.66,6-9.37,8.45-14.37C736.48,116.35,732.39,116.2,729.94,114.37Z" transform="translate(-1 -1)"/><path d="M760.57,158.1c.88-.95,2.17-2.23,3.35-3.61,3.54-4.14,7.86-4.09,11.09.13a1.81,1.81,0,0,1,.47,1.78c-2.57,7.72-2.23,15.48-.22,23.24.33,1.28-.19,2-1.26,2.18-1.61.26-2.89,2.06-4.61,1.29-1.29-.58-.78-2-.66-3.11C769.7,171.47,766.44,164.61,760.57,158.1Z" transform="translate(-1 -1)"/><path d="M766.39,127.28c1.31-1.64,2.58-1.11,3.66-1.34,2.93-.64,2.87-2.55,2.45-4.94-.27-1.53-3.93-1.74-1.8-3.56a7,7,0,0,1,6.13-1.11c1.26.35,2.57.49,3.86.74s3.08-.47,3.14,1.44c.06,1.71-1.7,1-2.71,1.23-2.15.48-2.08,1.74-1.18,3.31,2.19,3.81.22,5.28-3.3,5.33C773.34,128.43,769.84,129.53,766.39,127.28Z" transform="translate(-1 -1)"/><path d="M821.74,120c-.26,1.8-.59,3.6-.78,5.41s-1.13,2.5-2.81,2.94c-2.82.74-4.24-1.09-5.9-2.7s-.25-2.24.67-3.18,1.11-1.79-.14-2.85c-3.18-2.7-1-3.29,1.56-3.56C819.69,115.51,821.76,116.63,821.74,120Z" transform="translate(-1 -1)"/><path d="M765.94,138.65c4.54,0,9.09,0,13.63,0,.65,0,1.33.14,1.42,1a1.1,1.1,0,0,1-1.13,1.29c-4.64.05-9.32.65-13.87-.43C766,139.9,766,139.27,765.94,138.65Z" transform="translate(-1 -1)"/><path d="M809.85,82.08c-.27,2.45-1.39,2.62-2.29,2.38-1.58-.41-4-.06-3.79-2.74.11-1.17.9-3,2.47-2.37S809,81.42,809.85,82.08Z" transform="translate(-1 -1)"/><path d="M805.73,180.89c-.59-2.52-1.27-5.06.31-8C808.49,176.23,807.53,178.6,805.73,180.89Z" transform="translate(-1 -1)"/><path d="M334,346.88c1.7-4.17,1.64-4.09,5.51-1.26a6,6,0,0,0,3.33.59c13.78,0,27.56-.08,41.34.08,3.34,0,3.66-.75,3.54-4.1-.45-12.06-.17-24.15-.27-36.23,0-1.45,1.13-4-1.25-4.1-1.72-.09-1.4,2.32-1.33,3.74.54,12.54-1.57,25-.62,38.22-3.63-2.09-6.76-3.78-9.77-5.66a5.17,5.17,0,0,1-2.54-5.06,156.27,156.27,0,0,0-.34-22,4.71,4.71,0,0,1,2.21-4.65c1.33-.92,3.06-1.44,3.73-4.23H344.27c2.23,1.27,4.59,3.24,7.89,3.32,1.88.05,3.51.47,2.73,2.9-2.17,6.84-2.07,13.74-.88,20.71,1,5.84-1.78,9.76-7.22,12.29l.6,1.14h15.88l0,1.46c-6.54,0-13.08,0-19.62,0a3,3,0,0,1-3-3.38c.47-5.93-1.17-11.83.77-17.87,1.09-3.37-.25-7.5-.29-11.28a45.1,45.1,0,0,1,.6-6.44c.29-2.21-.53-3.71-2.76-3.87-2.88-.2-1.93,2.12-1.94,3.56-.07,7.36,0,14.73,0,22.5-2.76-1.05-1.93-2.6-1.94-3.71-.07-6,0-12,0-18,0-1.84,0-3.49-2.11-4.58-3-1.52-1.86-3.66-.32-5.72,7-9.45,14-18.89,21-28.39,2.24-3.06,5.18-5.52,6.93-9,1.08-2.19,3.32-2.06,4.92-.06,7,8.68,13.85,17.4,20.8,26.09,3.32,4.15,6.61,8.32,10.08,12.34,2.8,3.25.93,4.82-2.05,4.75-4.48-.11-4.61,1.94-4.47,5.54.41,10.42.49,20.86.48,31.3,0,5.08,3.78,11.84,8.47,13.92,3.5,1.55,5,5.14,7.91,7.56-27.13.13-54.15,1.09-82.35-.47,4.59-3.83,5.81-9,9.82-12.09-.24,2.5,1.14,3.1,3.33,3.07,11.43-.11,22.84,1.16,34.27.38,1.25-.09,2.32,0,3.41,2.4-14.42.57-28.45-2-42.32.73h63.63c-3.34-.06-4.37-4.2-7.55-4.21-11.78,0-23.57-.32-35.35-.23C346.94,348.92,340.4,348.72,334,346.88ZM364.94,293l.44,1.77c5.73,0,11.46,0,17.18,0,1.06,0,2.58.67,3.06-.83.42-1.33-1-1.93-1.77-2.76C378,284.44,372,277.82,366.27,271c-1.55-1.84-2.16-1.27-3.79-.11-4.09,2.92-4.61,8.1-8,11.59a31.88,31.88,0,0,0-6.48,9.15c-.92,2.11-.83,3.14,1.71,3.13,3.66,0,7.32,0,11,0,1,0,2.21,0,2.62-1,.55-1.43-.77-1.44-1.68-1.74-1.88-.62-1.67-1.87-.73-3.09s1.43-2.49.45-4.13c-2,1.24-2,3.47-2.9,5.17-1.27,2.41-3.67.78-5.36,1.68-.62.32-1.38-.33-1.31-1.05.21-2.16,2.26-.73,3.12-1.51.57-.51.73-1.46,1.26-2.05,2.24-2.55,3.23-6.07,6.17-8,1.48-1,3.56-2.73,4.64-2.3,2.46,1-1.28,2.57-.48,3.4,3.37,3.51,1.32,5.19-1.87,6.87l6.52-.83C372.35,291.31,369,292.43,364.94,293ZM385,355.38l0,1.7,15,.66,0-1.6C395.13,353.91,390,355.49,385,355.38Zm-49.65-57.46a9.22,9.22,0,0,1,2,.17c5.12,1.86,4.06-3.5,6.07-5.25.52-.45.09-1.38-.63-1.51-3.14-.56-4.14,2.1-5.66,3.93C336.55,295.89,336.17,296.63,335.34,297.92Zm22.43-.14c4.34.68,7.65,1.13,10.93,1.73a2.23,2.23,0,0,0,2.57-.91c.4-.62.06-1.73-.47-1.57C366.79,298.22,362.64,294.27,357.77,297.78Zm-12.9,0c3.64,1.7,6.6.47,9.43.86a1,1,0,0,0,1.24-1.14c0-.39-.69-1.09-.82-1C351.78,297.59,348.42,295.22,344.87,297.78Zm32.95,2c1.35.48,2.84-.67,4.33-1.72a1.33,1.33,0,0,0,.14-1.26c-1.83-1.56-3.34-.38-4.86.66a1.26,1.26,0,0,1-.49.11c-1.08.22-3.07-1.32-3,.94C373.92,300.27,375.92,299.57,377.82,299.75Z" transform="translate(-1 -1)"/><path d="M362.16,340.13c-4.29,1-4.92-1.61-4.61-5.4.44-5.41-.64-11.42,1.43-16.07,1.75-3.92,1-7.1,1.09-10.66a2.06,2.06,0,0,1,.78-1.59c1-.46,1.58.46,1.68,1.25.59,4.36,3.27,8.27,2.79,12.83-.11,1.07-.17,2,.71,2.7,2.9,2.18,4.76,4.38,1,7.53-.64.53,0,1.53.32,2.3C370,338.9,369.09,340.16,362.16,340.13Z" transform="translate(-1 -1)"/><path d="M394.71,193.53c2.12.58,5.46-.85,5.56,3.62.09,4.28-2.76,4.94-5.72,5.19s-5.46-.92-5.55-4.33C388.91,194.37,391.17,193.08,394.71,193.53Z" transform="translate(-1 -1)"/><path d="M377.53,179.66c-3.38-.31-5.64-1.48-5.46-4.54.11-1.71.88-4.61,2.92-4.28,2.91.46,7.71-1.08,8.14,3.56C383.42,177.62,380.22,179.26,377.53,179.66Z" transform="translate(-1 -1)"/><path d="M411.58,202.11c3-.13,4.54,1.89,4.08,4.66-.56,3.39-3.86,3.15-6.34,3.13s-4.88-1-4.44-4C405.4,202.19,408.42,202,411.58,202.11Z" transform="translate(-1 -1)"/><path d="M423.9,208.93c3.1-.83,5.38.49,5.8,3.57a4.18,4.18,0,0,1-4.08,4.77c-2.74,0-5.05-1.17-5.87-4.82C418.68,207.7,422.17,209.76,423.9,208.93Z" transform="translate(-1 -1)"/><path d="M395.9,116.05c-2.9-.52-6-.71-6-4.94,0-2.75,1.76-3.51,3.84-3.39,3,.18,5.7,1.46,5.95,4.8A3.12,3.12,0,0,1,395.9,116.05Z" transform="translate(-1 -1)"/><path d="M423.24,109.53c2.66-1.5,3.82-.34,4,2.48.24,3.16-1.59,4.12-4.28,4s-6.67.75-6.71-2.93S419.89,109,423.24,109.53Z" transform="translate(-1 -1)"/><path d="M384.21,183.69c2.84-.06,4.77,1,4.62,4-.11,2,0,4.66-3.4,4.21-2.67-.36-5.69-.53-5.65-4.19C379.81,185,381.38,183.41,384.21,183.69Z" transform="translate(-1 -1)"/><path d="M432.67,107.48c-2.81-.09-5.14-.11-5-3.3s2.43-3.75,4.89-3.7,5.19.33,5.13,3.42C437.62,107.27,434.51,107.1,432.67,107.48Z" transform="translate(-1 -1)"/><path d="M402.11,116c3.07-.38,5.59-2,8.51-1.32,1.48.34,3.1.53,2.81,2.65-.23,1.67-.54,3.26-2.71,3.61C406.76,121.6,404,120.13,402.11,116Z" transform="translate(-1 -1)"/><path d="M443.48,391.43c.09,2.14-.62,3.48-3.14,3.23s-4.74-1.41-4.49-4.15c.13-1.41.84-4,3.13-3.75C441.45,387,444,387.91,443.48,391.43Z" transform="translate(-1 -1)"/><path d="M424.43,360.77c1.61,2.65,7.8,3.35,3.31,8.52-1.78,2-3.26,1-4.77.1C420.48,367.89,420.53,367.79,424.43,360.77Z" transform="translate(-1 -1)"/><path d="M449.19,403c-1.86-.24-4.15.1-3.77-2.37s1.32-4.86,4.62-4.9c3.06-.05,3.62,2.17,3.67,4.3C453.79,403.39,450.63,402.14,449.19,403Z" transform="translate(-1 -1)"/><path d="M465.27,404.07c-.38,2.38-2.09,2.82-4,2.76-2.46-.06-4.34-1.2-4.2-3.82s2.7-2.73,4.49-2.74C463.74,400.26,465.08,401.8,465.27,404.07Z" transform="translate(-1 -1)"/><path d="M435.33,378.55c-.24,1.71-1,3.22-3,3.12s-4.12-1-4.13-3.32c0-1.39.52-3.44,2.91-3.12C433.1,375.5,435.12,375.79,435.33,378.55Z" transform="translate(-1 -1)"/><path d="M400.67,46.26c-3.32.14-6.65.14-9.95.45-4.34.39-6.6,3-6.2,6.76,7.76-4.39,10.55-4.2,17.3,2.09A5.55,5.55,0,0,0,405.73,57c2.15.16,4.33,0,6.48.13,1.82.12,3.82.24,4.35,2.54a3.53,3.53,0,0,1-1.78,4.25c-1.81,1-4,2-5.51.26-2.9-3.42-8-3.46-10.53-7.31a2,2,0,0,0-2.71-.57c-2.82,1.68-5.76.94-8.73.82-4.82-.21-9.49,0-13.59,3.42a8.34,8.34,0,0,1-7.33,1.63c4.6-2.22,7.45-5.56,11.76-6.44,1.56-.32,2.86-1,2.93-2.89.17-4.39,2.81-6.47,6.77-7.44A8.74,8.74,0,0,0,391,44c1.24-.92,1.06-2.44.69-3.68-.42-1.41-1.58-.6-2.5-.47-2.94.41-7-.07-7.43-2.38-.47-2.73,3.67-3.77,6.21-4.56,2.71-.85,5.8-.25,8-2.88.73-.87,8.65,3.42,8.58,4.63-.18,3.31-2.12,5.39-5.1,6.73-1.8.8-5.27-.73-5.23,2,0,2.18,3.5.42,5.11,1.51a6.44,6.44,0,0,1,1.19,1.47Z" transform="translate(-1 -1)"/><path d="M535.92,43.34c-.31,0-.52,0-.63-.09-3.83-2.86-2.51,5.88-7.51,3-3-1.7-5.07,2.58-5.7,6.06-.33,1.87-1.62,1.41-3.07.85A64.59,64.59,0,0,0,509.2,50c-2.15-.47-2.26-1.33-1.84-3.07,1-4.24,7.29-8.51,11.66-8,5.61.64,11.23,1.12,16.85,1.69,1.44.15,3.93-1.37,3.92,1.27C539.79,44.3,537.23,43,535.92,43.34Z" transform="translate(-1 -1)"/><path d="M400.54,46.36h5.75c.35-1.19-.67-1.38-1.26-1.86-.83-.69-2.82-1-2.1-2.24s2.45-2,3.86-2.85c1.08-.62,1.8,0,2.27,1.12,1.34,3.16,3.65,3.17,6.6,2.29s5.69-.38,5.39,3.51c-.24,3.07,2.35,3.75,3.68,5.47.76,1,1.56,2.77-.05,2.39-2.91-.7-7-.44-8-4.4-.48-1.8-1.59-1.9-2.81-2.18s-2.8-.34-2.91,1c-.22,2.71-1,4.22-3.94,3.2s-6.32-1.38-6.31-5.61Z" transform="translate(-1 -1)"/><path d="M492.62,179.61c2.06.55,5.36-1.25,5.29,2.71-.06,3.05-2.3,4.17-5.16,4.14-2.69,0-5.35-.73-5.52-3.78C487,178.58,490.53,180.1,492.62,179.61Z" transform="translate(-1 -1)"/><path d="M510.54,179.61c2,.42,5.12.12,5,2.75-.12,3.22-3.44,3.44-6,3.61-2.27.14-4.61-.34-4.34-3.29C505.48,179.48,508.33,180,510.54,179.61Z" transform="translate(-1 -1)"/><path d="M499,190.24c-.26-2.47-.55-5.21,2-5.09,3.18.15,3.2,3.72,4,6.07.74,2.2-.9,2.73-2.77,2.94C498.53,194.57,498.8,192.16,499,190.24Z" transform="translate(-1 -1)"/><path d="M104.84,84.4c-2.86-1-6.86.11-9.53-3.34-1.38-1.79-3.71-1-5.65-1.15-.94-.08-2.2.27-2.19-1.23,0-.88.78-1.36,1.66-1.61C94.82,75.47,98.38,72,99.59,66c.78-3.9,4-3.69,6.74-2.72,2.32.83,6.88-.77,5.52,5.14-.91,3.91,3.57,5.84,6,8.3.9.9,3.61-.09,3.5,1.91-.13,2.47-2.82.73-4.06,1.63A21.25,21.25,0,0,1,104.84,84.4Z" transform="translate(-1 -1)"/><path d="M86.44,125.34c-3-1.15-6.31-2.2-9.41-3.64-1.93-.9-1-2.31-.1-3.69,4.41-6.56,11.36-9,18.93-6.5a5,5,0,0,0,1,.3c2.52.25,5,.44,6.09,3.37,1.32,3.72-2.69,4.52-4,5.15C95,122.16,91.22,124.76,86.44,125.34Z" transform="translate(-1 -1)"/><path d="M125,125.16A43.71,43.71,0,0,1,111.55,118c-2.7-2.07-1-4.86,2.42-5.66,5.1-1.18,10-2.54,15.2-.16a20.61,20.61,0,0,1,5.15,2.8c1.71,1.46,3.44,3.14,3.16,5.31-.31,2.51-3.12,1.88-4.88,2.51C130.11,123.66,127.56,124.38,125,125.16Z" transform="translate(-1 -1)"/><path d="M94,131.64c-4-.82-7.82-.47-11.63-.07-1.21.13-3.06.32-3-1.6.09-1.43,1.74-1.38,2.85-1.27a45,45,0,0,0,11.42.12c1.29-.19,3.58-.9,3.66,1.19C97.41,131.94,95.17,131.42,94,131.64Z" transform="translate(-1 -1)"/><path d="M112.21,106.8c-1.38-3-2-5.78,0-8.39a6.46,6.46,0,0,0,1.38-3.64c.11-1.32-.61-3.62,1.65-3.3,1.82.26,1,2.49,1.1,3.86C116.5,99.63,112,102.29,112.21,106.8Z" transform="translate(-1 -1)"/></g></g></svg>