<svg xmlns="http://www.w3.org/2000/svg" viewBox="0 0 891 822.25"><title>0strong</title><g id="Layer_2" data-name="Layer 2"><g id="Layer_1-2" data-name="Layer 1"><path d="M1,106a97.77,97.77,0,0,0,9.93.84c10-.11,19.78,2.44,29.59,3.71,8.37,1.08,16.95,3.64,25.36,5.66s17,3,24.87,6c14.92,5.71,30.72,8.2,45.64,14.14,14.63,5.83,28.7,12.48,42.74,19.52q20.48,10.24,40.6,21.13a174.22,174.22,0,0,1,22.77,14.86c8,6.1,16.22,11.9,24.36,17.82,2.84,2.07,4.9,1.48,6.19-1.83,1.15-2.94,2.23-5.92,3.57-8.77,2.38-5.06,5.55-5.06,10.82-4.25,9.49,1.46,15.94,8.8,24.81,11.2,3.17.85,5.31,3.66,6.53,6.54,2.27,5.32,6,9.51,9.63,13.79,5.45,6.35,4.91,12.71-1.78,17.52-4.6,3.3-8.07,8-13.19,10.61-1.79.93-1.8,2.73-1.52,4.4,1.87,11.43-3.07,19.55-12.18,25.87-6.83,4.74-11.07,11.94-16.23,18.19-11.06,13.4-21,27.63-30.91,41.93a574.17,574.17,0,0,0-31.43,51.5c-3.86,7.11-5.34,14.64-5.76,22.27-1.23,22.14-9.45,42-19.68,61-5.9,11-13.49,21.19-18,32.83-2.56,6.66-5.45,13.31-7.16,20.38-3.68,15.23-6.24,30.63-6,46.26.12,8.53.38,16.74-2.93,24.87-1.11,2.73-.61,6.26-.33,9.38.49,5.56,6.05,6.69,9.52,8.42,9.22,4.6,15.25,11.4,17.43,21.12,1.82,8.11,7.22,10,14.17,10.32a19.55,19.55,0,0,1,9.42,2.7c10.52,6.18,9.43,15.95,9.1,26-.34,10.39-4.12,20.64-1,31.2,1.56,5.26,4.67,9.82,5.87,15.31.72,3.29,5.23,3,8.27,3.19a17.9,17.9,0,0,0,9.18-1.93c9-4.7,18.72-7.25,28.6-9.24,5.62-1.13,10.72-3.82,16.93-3.32,4.13.33,7.8-4.12,12.49-4.33,11-.5,21.85-3.76,33-.8,4.24,1.13,7.68,3,8.46,7.34.86,4.75-2,8.23-5.78,10.72-5.09,3.35-11.1,4.41-16.73,6.42-11.49,4.09-22.92,8.38-34.56,12-5.31,1.64-10.21,3.53-14.74,6.82-3.46,2.51-7.46,3.34-12.06,3.59-6.19.33-12.09,3.27-16.86,7.82a27.73,27.73,0,0,1-19.11,8,7.45,7.45,0,0,0-4.88,2c-5,4.1-10.16,8.11-17.26,7.82-1.62-.06-2.94.37-1.6,2.75,1.82,3.23-.54,3.61-2.73,2.74-5.06-2-9.31-.54-13.7,2-9.16,5.33-19.42,8.64-27.69,15.66-8.44,7.17-18.82,12.69-25.46,21.18-7.54,9.64-16.41,18.8-20.78,30.74A25.51,25.51,0,0,0,108,863H35c-2.38-4.34-4.07-9.29-7.28-12.91C19.16,840.42,10,831.33,1,822V808c9,7.88,15.26,18.42,25.35,25.31-2.58-6.64-6.31-12.56-9.89-18.62-2.88-4.88-7.76-8.13-10-13.45C4.8,797.1,2.84,793.08,1,789V735c3.8-3,6.08-7,8-11.24,1.38-3,3.68-6.43,1.32-9.25S4.22,713,1,714V592c8.56,2.08,17.5,1.86,26,4.33,5.83,1.69,10.21.23,13.32-5.34,1.12-2,1.38-2.9-.49-4.47-3.71-3.1-7.32-6.23-11.84-8.18-5.52-2.37-7.42-7-7.8-13,3.49.9,4.06,4.79,6.14,5.66A74,74,0,0,1,44.15,581.3c1.72,1.38,4.39-.32,5.44-2.19s-1.19-2.37-2.42-3.05c-1.54-.86-3.9-1.24-2.94-3.75,1.25-3.3,4.41-4.6,7.47-5.17,2.79-.51,2,2.21,2.47,3.84s.65,4.8,3.48,3.54c2.11-.95,5.55-1.56,5.85-3.78.21-1.52-2.34-3.88-4.16-5.1-2.28-1.53-5.12-3.29-7.64-3.17-7.09.34-11.37-4.87-16.81-7.63-8.41-4.25-11.13-14.74-19.79-18.94-.5-.24-.6-1.21-1.06-1.66-4-3.87-7-9-13-10.24v-6c3,1,6.9,4.51,6.94-2.55A1.3,1.3,0,0,1,9.06,514c1.25-.13,1.76.77,2.08,1.74,1,3.07,3,4.68,6.34,4.45,1.3-.09,3.11-.28,3.47,1.23.52,2.14-1.69,2.06-3,2.55-2.38.93-2.73,2.4-2,4.74,1,3.1,2.57,5.53,5.86,6.08,2.63.44,3.45-1.38,3.39-3.74,0-1.05.22-2,1.5-2.18a1.53,1.53,0,0,1,1.8,1.33c.74,4.38,3.53,3.56,6.41,2.6,1.55-.51,3.53-1.58,4.38.45,1,2.25-1.67,2.33-2.85,3.28a20.18,20.18,0,0,0-2.93,2.68c-3.27,3.95-2.7,6.27,2,8.4,3.89,1.77,7.19.14,9.28-4.68.79-1.83,2.13-4.74,3.74-2s3.8,6,3.22,10.07c-1,7.18-.82,7.26,6.24,8.62a19.51,19.51,0,0,0,5,.17c2.2-.14,3.92.38,5,2.43,2,3.59,4.2,2.88,6,0a120.59,120.59,0,0,0,5.86-10.85c.48-1,.12-2.6,1.78-2.41,5.2.57,8.67-3,12.59-5.28,8.21-4.72,10-13.51,4.32-20.93-2.2-2.89-2.72-6.39-4.21-9.52-1.15-2.41.94-3.25,3-2.86s3.08,2.1,3.78,4.17c2.28,6.76,7.31,11,13.75,13.49,4.42,1.71,12-.69,13.77-4.55,3.2-7.17,8.37-12.61,13.77-18.06s10-10.85,8.87-19.92c-1.12-9.33,3.92-16.91,11.8-22.24.9-.6,1.93-2,3-.83,2.62,2.89,2.9-.2,3.69-1.39,4.16-6.25,7.08-13.08,9.94-20,9.92-24.11,8.39-46.94-6.91-68.36-1.52-2.14-3.89-4.9-6.94-4.1s-2.94,4-2.92,6.74c0,1.16.23,2.59-.33,3.43-4.63,6.85-3.72,14.6-3.91,22.19-.05,1.83,0,3.67-.2,5.49-.1,1-.52,2.09-1.76,2-1,0-1.06-1.05-1.35-1.84-1.64-4.59-2.69-9.23-1.75-14.16.36-1.9,1.27-4.61-.68-5.46-2.26-1-4.89.34-6.8,2.05a14.93,14.93,0,0,0-2.18,3.29c-.58.92-1.36,1.64-2.45,1.08a1.67,1.67,0,0,1-.53-2.22c1.69-4,2.27-8.84,8.09-9.59,3-.39,5.44-2.49,7.55-4.64,2.36-2.41,4.28-11.8,2.63-13.48-3.93-4-7-9-12-11.8-6.84-3.93-13.53-8.74-22.27-6.16-7.34,2.17-14.7,4.3-20.6,9.51-6.79,6-14.44,10.14-23.59,10.77a58,58,0,0,0-28.52,9.48,8.68,8.68,0,0,0-4.2,5.35l10-4c1-.42,2.22-1.39,3.07,0,.6,1-.19,2-1,2.56-8,5.83-15.52,12.3-25.95,14.16-9.7,1.73-18.22,5.63-22,16.38-1.91,5.48-5,11-11.26,13.23V385c3.07-3,6.09-6.07,9.22-9a80.14,80.14,0,0,1,20.7-13.69c9-4.22,19.29-4,29.12-5.14,7.56-.87,15.15-1.71,22.48-3.92,8.4-2.53,15.14-8,22.51-12.48,5.54-3.34,10.64-7.62,17.37-9.21,6-1.42,12.24-1.49,18.09-3.46,5-1.68,8.45.77,11.22,4.29,12.56,15.93,26.71,29.64,47.46,35.46a66.55,66.55,0,0,0-3.27-17.31c-1.6-5-5.83-7.54-8.42-11.49-6.81-10.36-13.75-20.46-23.48-28.57a184.84,184.84,0,0,0-18.61-14c-5.13-3.28-11.38-4.57-16.58-7.23-12.08-6.19-24.76-8.71-37.84-9.44C66.56,278.45,43.3,284.59,20.29,292c-6.68,2.14-12.43,6.39-19.29,8V275c10.14-1.75,20.3-3.33,30.4-5.3,9.56-1.87,19.36-3.25,28.49-6.46,11.7-4.11,23.17-2.75,34.81-1.26a39.57,39.57,0,0,1,8.18,1.53c7.29,2.5,13.66,6.84,20.82,9.52,1.57.59,3.53,2.32,4.8,0,1.43-2.63-1.15-3.53-2.8-4.33-9.29-4.45-16.22-12.63-26-16.3-1.36-.52-1.83-1.77-2.45-3-3-5.88-7.75-9.1-14-11.53-6.62-2.55-14.79-4.2-17.08-13-.15-.56-.75-1.34-1.23-1.42-6.26-1.07-10-7-16.66-8-3.29-.52-7.2-.29-10.39-2.29-4.54-2.85-9.76-4.33-13.4-9A14.13,14.13,0,0,0,15,199.3c-5.85-.19-10.5-1.59-14-6.3V177c3.26-.32,5.88,1.46,8.76,2.33,6.35,1.93,10.47,7.4,16.76,9.09a25.72,25.72,0,0,1,6.54,2.24c7.33,4.21,14.26,9.15,22.14,12.38,2.12.87,4.24,2.61,6.59,1.51,4.83-2.26,8.45,1,10.75,3.58a109.3,109.3,0,0,0,29.12,22.93c2.56,1.38,5.92,1.92,7.63,4.4,3.65,5.3,9,8.86,13.41,13.32,4.15,4.17,8.4,8.77,15.45,7.18a3.42,3.42,0,0,1,3.94,2.41c2.77,7,8.53,11.69,13.25,17.18,3.3,3.84,8,8.11,12.41,7.09,7.77-1.79,15.61-3.9,23.22-6.41,7.24-2.38,13.47-3.7,20.7.9,5.66,3.6,7.33,9.76,4.38,15.48-4.39,8.5-7.68,17.63-14.1,25.15-5.75,6.73-2.61,18.8,5.48,24.08,5.11,3.34,16.37-.19,19.07-7.26,3.44-9,10-13.29,18.06-17.33,5.86-2.95,12.79-6.55,14-13.94s6-11.89,11.24-15.57c9.76-6.81,15.37-16.92,22.44-25.88a4.58,4.58,0,0,0,.84-2.8c-.13-4.41.19-8.73-2.4-12.93s-6.38-3.84-10.23-4.55c-6.89-1.26-12.77.24-18,4.95a82.34,82.34,0,0,0-10.91,11.64,152.81,152.81,0,0,1-23.48,25c-.79.66-1.47,1.93-2.78,1.13-.83-1.41.12-2.27.63-3.3,6.85-13.8,17.59-24.95,25.86-37.8,4.78-7.43,3.26-21.14-3.38-26.92-14.35-12.5-31.4-20.72-47.45-30.54-10.19-6.23-20.7-11.89-31.41-17.19-8.33-4.12-16.37-8.91-24.89-12.57-11.1-4.77-22.66-8.46-33.83-13.09-20.73-8.58-41.75-16-64-19.66C31.61,120.74,16.48,117.89,1,118ZM91.82,785.9a6.21,6.21,0,0,0,6.35-5.17,43.92,43.92,0,0,1,2.53-7c3.75-8.54,11.82-12.29,18.52-17.57,1.15-.91,2.63-1.45,3.47,0,1.56,2.74,2.58.73,3.68-.22,3.76-3.25,7.31-6.76,11.23-9.81,9.4-7.32,18.82-14.66,28.53-21.57,6.22-4.43,11.12-10.61,19.43-12.41,4.52-1,6.86-6.34,8.91-10.72.54-1.17-.12-2.23-.75-3.25-6.1-9.87-6.1-9.84-17.91-10.16-2-.05-3.92-.65-5.89-.87-4.17-.45-7.25,2.36-6.61,5.6,1.93,9.82-3,16.59-8.51,23.41-5.1,6.3-11.42,11.94-18.48,14.87-5.54,2.29-10.63,4.63-14.89,8.58s-7.83,8.61-12,12.62c-7.84,7.5-16.11,14.56-22.46,23.48-1.41,2-2.54,4-1.21,6.42A6.47,6.47,0,0,0,91.82,785.9Zm23.54-86.65-1-.73c-2.37,3.16-4.8,6.28-7.11,9.48-8.53,11.87-19.86,21.39-28.17,33.43A33.06,33.06,0,0,1,65.4,753.32c-2.74,1.25-5,4.49-2.66,7.24a81.81,81.81,0,0,1,6.9,8.39,3.27,3.27,0,0,0,3,1.51c5.38-.22,12.56-6.09,13-11.36.57-7.35,4.19-13.19,8.17-19,3.06-4.45,7.9-6.59,12-9.67,7.74-5.78,13.66-13.94,20.62-20.83,6.56-6.48,11.73-14.45,20.23-18.9,2.74-1.44,5.58-4.46,5-6.94-1.2-4.85-1.61-10.11-4.54-14.44a4,4,0,0,0-2.21-1.06c-9.41-2.52-12.69-.52-14.77,9.08-.6,2.75-.81,5.59-1.5,8.31-2.49,9.86-7,18.51-15.19,24.93-.76.6-1.68,1.5-2.65.8-1.13-.81-.8-2-.2-3.14Q113,703.78,115.36,699.25Zm36.28,55c-6.43,4.33-11.56,9.56-17.74,11.55-11,3.52-18,11.45-25.87,18.77a12.3,12.3,0,0,0-4.09,10.57c.12,2,.49,4.12,2.45,5.12s3-.74,4.4-1.63a15.87,15.87,0,0,0,5.14-6,16.39,16.39,0,0,1,4.66-5.77c12.32-9,26.14-15.65,38.57-24.43a261.74,261.74,0,0,1,24.56-15c4.66-2.58,10.43-8.88,17.28-3,.31.27,1.27-.06,1.85-.28,5.24-2,6.28-5.62,6.23-11.35-.06-7-2.85-9.84-9.53-11.3-3.92-.86-6.82-.87-9.44,1.82-3.24,3.31-6.85,6.42-9,10.57-6.84,13.09-17.83,21.56-30.62,28.13-.86.44-1.76,1.25-2.62.19-.72-.89-.28-1.9.18-2.81C148.84,757.88,151.22,757.62,151.64,754.23ZM105.53,635.59l.69,1.37c4.53-1.85,9.87-2,12.84-7.1,3.67-6.3,9.84-9.2,16.35-11.28C146.69,615,152.08,608.47,153,597c.45-5.62,1.64-11.18,1.89-16.79.42-9.33,0-18.62,1.12-28a158.14,158.14,0,0,1,8.14-33A130.54,130.54,0,0,1,179,489.44a87.19,87.19,0,0,0,8.43-15.33c-2.91,1.41-3.82,2.94-4.37,4.34-3.34,8.41-9.33,15.24-13.78,23a206.89,206.89,0,0,0-16,34.56c-2.06,5.83-1.59,12.57-4.34,17.72-3.87,7.23-5,15.14-6.94,22.63-2.29,8.85-4.39,17.62-8.34,25.86-4.92,10.24-10.72,19.81-20.35,26.51C110.46,630.67,108.1,633.28,105.53,635.59Zm94.4,139.74c2.82,1.42,5.55-.55,7.61-3.38a66.56,66.56,0,0,0,5.91-9.78c1.52-3.12-1-9-3.76-8.92-6.1.11-12.22,1.3-16.5,5.81a83.49,83.49,0,0,1-27.06,19c-2.34,1-4.85,3.86-6.69-.85-.58-1.47-2.24-.35-3,.32-4.36,4-9.73,6.22-14.95,8.76a64,64,0,0,0-24.6,21.11c-1.54,2.19-4,4-1.63,6.85s5.21,4.11,8.71,1.63c2.71-1.91,5.41-3.68,7.35-6.58a33.07,33.07,0,0,1,15.49-12.78,84.41,84.41,0,0,0,21.71-12.41C177.43,777,187.61,774.14,199.93,775.33ZM46.36,741.72c2.93-6,3.89-12.07,6.77-17.52,4.56-8.64,8.39-17.67,12.48-26.56,1.3-2.82,1.26-5.39-1.38-7.63-2.94-2.51-5.27-1-7.37,1-2.85,2.72-6.32,4.14-9.91,5.46s-5.92,3.64-6.61,7.43c-.17,1-.35,2.11.7,2.69s1.29-.61,1.93-1c2-1.22,2.24-1,2.38,2a41.22,41.22,0,0,1-4.64,20.7c-3.41,6.81-8.89,12-13.16,18-5.76,8.17-4.14,10.83,3,13.28a9.16,9.16,0,0,1,2.12,1.3c6.13,4.25,9.32,3.82,13.94-1.94,1.39-1.73,1.54-2.72-1.19-3.24-7-1.32-9.57-7.91-5.6-13.82a20.77,20.77,0,0,1,1.45-2c.92-1.07,1.27-3.1,3.16-2.71C46.62,737.63,44.85,739.85,46.36,741.72ZM64.73,666.9a72.53,72.53,0,0,0-8.68-28.63c-2.49-4.59-3.48-10.14-8.15-13.48-1.82-1.3-3.5-1.86-5.5-.73a3.94,3.94,0,0,0-1.82,5.17c2.8,7.16,3.19,14.87,5.31,22.2,1.94,6.71,1.93,13.7-2.74,19.45-3.16,3.89-1.68,6.52.89,9.57,2.78,3.32,5.19,1.45,7.77-.2a13,13,0,0,1,3.56-1.73C63.37,676.43,64.75,674.77,64.73,666.9ZM158,640.36c1,2.86,1.38,7.3,3.69,10.26,3.63,4.65,4.83,10,5.34,15.22.59,6.23,2.15,10.14,9.17,10.09,3.71,0,7.06,2.55,10.94,1.9-1.2-3.4-2.46-6.79-3.61-10.21-3.17-9.4-9.39-18.31-4.77-29a3.18,3.18,0,0,0-.24-1.93c-1.27-4-9.58-9.06-13.7-8.33C160.43,629.13,158,633.13,158,640.36ZM106.27,654c5.24-2.57,5.24.33,4.65,3.27-1,5.19-2.25,10.32-5.39,14.82-3.89,5.57-7.31,11.47-11.28,17-2.38,3.31-2.48,6.73-2,10.4.48,3.29,2.25,4,4.81,2a46.33,46.33,0,0,0,8.55-8.25c8.38-10.84,13.75-23.4,20.59-35.12,1.26-2.18.68-4-1.3-5.67-3.49-2.95-6.37-5.89-11.9-5.81-3.47,0-4.68.26-5.33,3.35A38,38,0,0,1,106.27,654ZM288.78,207.18c-1.78,0-3.19.49-3.94,2.36a49.68,49.68,0,0,0-2.51,10.11,2.08,2.08,0,0,0,1.11,2.5c6.13,2.77,9.65,8.48,14.41,12.79,1.78,1.61,3.32,2.55,4.74.05,1.91-3.39,5.11-4.71,8.49-5.52,3.82-.92,4.15-2.9,3-6.22C312.18,217.49,295.81,206.93,288.78,207.18ZM141.38,626.23c-3,.75-6.38.94-9.18,3-4.59,3.35-4.74,9.19-.61,13,3.63,3.31,6.38,7.43,6.77,12.4.43,5.4,3.62,7,8.22,7.37,4.84.37,7.94,2.74,9.22,7.53.32,1.21-.17,3.57,2,3.21,1.71-.27,1.54-2.35,1.71-3.78a8.48,8.48,0,0,0-1.3-5.12c-4.36-8.27-11.6-14.93-13.59-24.55-.53-2.53-1.83-4.94,2.57-3.71,1.54.43,1.61-.48,1.7-1.55A7.37,7.37,0,0,0,141.38,626.23Zm59.3-339.77c-.75.14-1.56.32-2.38.43-10.23,1.45-16.14,9.34-23.11,15.6-1.45,1.3-.62,2.71.64,3.83a59.86,59.86,0,0,1,10.07,11c1.32,2,2.43,1.73,3.79-.09,5.27-7,10.74-13.93,15.88-21.06,1.4-1.95,2.52-4.56,1.32-7.07S203,287,200.68,286.46Zm21.47,462.27c1,4,1.57,7.52,2.78,10.77,1,2.57,3.17,3.37,5.6,1.48a12.77,12.77,0,0,0,3.12-3.19c2.48-4,5.86-5.89,10.68-5.95a54.24,54.24,0,0,0,8.29-1.23c7.83-1.34,9.32-3.86,7.58-11.59a22.88,22.88,0,0,1-.33-2.47c-.34-2.93-2.19-3.92-4.87-3.7-2.53.2-5.24.25-4.35,4.17.32,1.41-.63,2.46-1.51,3.52-3.25,3.9-7.7,5.64-12.34,7.08-1.7.52-3,.14-3.46-1.73-.66-2.46-2.77-3.57-4.5-2.29C226.53,745.31,222.61,745.44,222.15,748.73ZM86.68,795.36c-.92,1.36.36,2.21.61,3.26s.8,2.4-.41,3.17-2.1-.17-2.86-1.14c-2.33-2.95-3.8-1.5-5.14,1a21.76,21.76,0,0,1-7.61,8.43c-.69.43-1.48,1.15-2.25.57-1-.76-.48-1.77,0-2.69,1.23-2.38,3.26-4.59,1.57-8.28-1.24,2.79-2.25,5-3.21,7.27-1.85,4.33-.63,9.92,2.73,12.66s11.45,3.16,14.43.42a28.61,28.61,0,0,1,9.18-5.74c3.5-1.37,4.08-3.85,2-6.72a59.31,59.31,0,0,1-5.21-9C89.82,797.15,89.06,795.09,86.68,795.36Zm124.11-91.09a62.89,62.89,0,0,1,.14-18.73,80.47,80.47,0,0,0,1.2-11.36c.11-4.1.5-9-4.64-10.32-3.72-1-7.82-.58-11.75-.5a2.73,2.73,0,0,0-2.67,3c0,1,.23,2.52,1.27,2.35,4.37-.71,4.47,3.07,5.2,5.29,3.29,10,7.32,20,4.65,31-.82,3.37,2.54,4.9,4.81,5.29,2.91.49,1.37-2.55,1.76-4A8.17,8.17,0,0,0,210.79,704.27Zm-164,132.58c1.42-7.3,2.16-7.68,8.58-5.45a12.47,12.47,0,0,0,3.89.78c2,0,2.66-1.77,3.43-3.2a1.78,1.78,0,0,0-1.14-2.78c-5.7-1.69-6.84-6.76-8.52-11.39-.56-1.54-.5-3.56-2.71-3.62-2-.06-4,.18-5.28,2.14a10.55,10.55,0,0,0-2.12,6.5C43.15,825.51,44.73,830.83,46.77,836.85ZM313.25,720.67h-4.32c-10.22,0-11.21,1.57-7,10.38,1.15,2.43,3,3,4.83,2a85.59,85.59,0,0,1,22.77-8.26c1.58-.31,3.45-1.37,3.19-3.31-.34-2.59-2.77-1.76-4.44-1.9C322.94,719.12,317.8,721.71,313.25,720.67ZM49.91,801.6c5.65.56,9-1.1,9.62-5.23A45.59,45.59,0,0,1,63,785.57c.82-1.94,1.47-4.08-.75-5.31-3-1.7-5.45-5.27-9.74-3.86a1.75,1.75,0,0,0-1.34,1.87c.35,3-1.64,5.32-2.46,8-1,3.27-1.13,5.5,2.38,7.39C55,795.74,55.24,798.57,49.91,801.6ZM288.7,737.48c1.93-1.19,5,.54,5.94-2.46.72-2.36-6.06-10.13-7.91-9-4.85,2.92-10,3.79-15.4,4.23-.91.07-1.83,1.35-2.56,2.24-1.47,1.8-.23,3.43.55,5,.55,1.13,1.53,2.19,2.72,1.41C277.34,735.43,282.92,735.51,288.7,737.48ZM33.22,781.56c0-6.51-5.46-10.67-11.13-8.85a3.21,3.21,0,0,1-1.88.21c-1.52-.56-3-2.76-4.31.31a5.11,5.11,0,0,0,1.37,6.31c1.94,1.82,4.32,3.34,5.72,5.5,1.58,2.43,3.24,3.92,6,2.93C32.08,786.88,32.65,783.94,33.22,781.56Zm72.18,50c-.2-2.3-.74-3.2-2.24-3.08-2.63.22-5.3.25-7.89.73-7.8,1.43-11.38,5.32-11.83,12.38-.1,1.57.11,2.67,1.9,2.73,1.25,0,3.4.38,3.12-1.33-1.14-7,3.55-6.09,7.68-6.13C100.6,836.85,101.58,831.72,105.4,831.59ZM79.68,660.18c8.78-3,13.73-7.93,16.51-16.94C89.8,648.67,84.07,652.82,79.68,660.18ZM227.53,364.45l-1.11-.76c-2.56,5.19-7,8.64-10.76,12.74a7.25,7.25,0,0,0-2,6.42c.16.78.13,1.75,1.07,2s1.44-.58,1.84-1.27Q222.07,374.06,227.53,364.45ZM59.14,842c10.74-2.41,11-2.39,11.14-4.5s.86-5-2.62-6.85C68.33,836.63,63.73,838.43,59.14,842Z" transform="translate(-1 -40.75)"/><path d="M1,122a253,253,0,0,1,63.65,10.57C82,137.7,99.29,143,116.19,149.71c14.18,5.67,28.15,11.82,42,18.19a244.26,244.26,0,0,1,22.3,11.54c5,2.94,10.24,5.62,15.33,8.45,13.84,7.69,25.91,18,37.69,28.39,4.53,4,7.42,10,10.63,15.33,1.55,2.59.56,5.4-.28,8.48-2.57,9.39-11.31,14.66-14.55,23.46a9.12,9.12,0,0,1-4.9,4.81c-3.05,1.45-5.8,1.92-8.51-1.17s-2.1-6.1-.32-8.68c4.19-6,6-13.64,12.54-18.2,2.3-1.61.26-11.79-2.07-14.87-3.25-4.29-7.51-7.48-11.37-11.08-12.21-11.41-27.46-18.13-41.49-26.76-13-8-26.84-13.92-40.47-20.38A332.64,332.64,0,0,0,101,154.7c-13.27-4.69-26.71-8.93-40.13-13.19a221.15,221.15,0,0,0-36.79-8.34C16.38,132.11,8.78,130.42,1,130Z" transform="translate(-1 -40.75)"/><path d="M458,863c2-3.18.18-6.25-1.54-8.14-5-5.54-4.68-12.63-6.58-19.07-3.1-10.51-2.3-21.34-2.7-32.06-.17-4.51,1.36-8.31,3.9-12.39,4.45-7.16,8.91-14.55,9-23.76.07-5.41,2.16-10.79,3.36-16.22,2.41.55,1.85,2.16,1.85,3.32q0,19.23-.05,38.45c0,1.13.39,2.61-.89,3.08-.51.19-1.51-1-2.41-1.6-.42,2.27.54,4.38.88,6.56.26,1.59,1,3.77-.8,4.56-4.57,2-3.16,6-2.54,8.78a74.78,74.78,0,0,1,1.4,23.79c-.63,6.18-.92,12.2.83,18.26.58,2,.2,4.28.26,6.44Z" transform="translate(-1 -40.75)"/><path d="M1,459c4.5,4.82,10.14,6.65,16.57,8.08,6.68,1.49,12.44,6.11,18.14,10,4.77,3.27,9.76,3.12,15.66,3.81-1.42-3.32-4.16-2.58-5.72-3.8-1-.8-2.64-1.37-1.9-3,.65-1.45,2-.68,3.07-.28,10.51,4.14,20.82,2.46,31.06-1.05,1.09-.37,2.35-1.07,3.05.38.78,1.63-.5,2.41-1.72,3.05-5.66,3-11.55,5.21-18.11,4.63-2.25-.2-3.47-.25-3.62,2.89-.26,5.13-5.14,3.49-8.16,4.3-1.23.33-2.88-.53-4.25-1.08-5.72-2.3-11.45-4.29-17.81-3.84-4.23.31-8.11-1.66-12-3A32.26,32.26,0,0,0,1,479Z" transform="translate(-1 -40.75)"/><path d="M1,532c1.47.62,2.93.22,4.4,0,1-.17,2.62-.08,2.43.92-.87,4.49,3.53,5.48,5.18,8.25.93,1.56,2,2.56,1.31,4.82-1.47,4.75,1.77,7.87,6.55,6.19,3.46-1.22,4.79-1.23,5.63,3,.68,3.33,4.28,4.3,7.67,4,2.88-.28,4.71,0,3.33,3.67s2.34,5.8,4.27,9.73c-4.53-1-8.09-1.86-11.11-4.49-5-4.33-9.85-8.71-16.12-11.41-4.25-1.84-6.71-6.67-7.65-10.55S3.76,541.2,1,540Z" transform="translate(-1 -40.75)"/><path d="M892,432c-5.45-.45-7.7-4.62-8.8-8.87-2.52-9.65-3.57-19.62-1.67-29.46,1.55-8,4.52-10.19,10.47-8.67v7c-4.6-.3-5.38,2.88-5.86,6.38-.68,4.9,3.21,4,5.86,4.62v8c-2.11-.72-4.5-2.38-5.72,1s2.25,10.22,5.72,12Z" transform="translate(-1 -40.75)"/><path d="M892,506c-2.61,2-4.48,4.84-7.87,5.9-5.38,1.69-8.74-.74-7.54-6.33C879.3,493,883.24,480.9,892,471v8a7.67,7.67,0,0,0-4.17,6.73c.06,2.18,2.77.69,4.17,1.27v6c-8.46,1.66-9.11,2.25-9.79,8.47a3.83,3.83,0,0,0,1.14,3.58c1.35,1.22,2.43.12,3.57-.44,2.13-1.05,3.44-3,5.08-4.61Z" transform="translate(-1 -40.75)"/><path d="M1,440l9.19-9c.73-.71,1.48-1.52,2.56-.87,1.35.81.92,2,.35,3.07-1.46,2.61-3,5.15-4.53,7.74-1.8,3.13-1.52,5.69,2.06,7.36a13.93,13.93,0,0,1,2.5,1.63c.8.62,1.59,1.4.82,2.49-.58.82-1.42.4-2.25.25A17.73,17.73,0,0,1,1,447Z" transform="translate(-1 -40.75)"/><path d="M744.77,244.21a108.1,108.1,0,0,0-26.83-3.37c-5.36-.06-10.48-1.46-15.84-2,4.2-2.37,9-2.3,13.49-3.08Q783,224,850.46,212.46c7.53-1.3,15.08-2.53,22.55-4.1,3.9-.82,5.33.5,5.94,4.28,2.84,17.43,5.93,34.81,8.86,52.22.89,5.28.32,5.62-5,4.14-5.56-1.52-11.15-2.91-16.85-3.92,1.91,2.51,4.9,2.14,7.41,2.95,4.41,1.42,8.9,2.64,13.39,3.8,4.22,1.09,3,4.69,3.24,7.33.16,1.77-1.65.93-2.68.65a898.61,898.61,0,0,0-88.19-19.38c-17.38-2.88-34.82-5.48-52.36-7.36-15.86-1.69-31.69-3.62-47.6-4.68-11.1-.74-22.23-1.14-33.34-1.71-1.07-.05-2.32.57-3.4-1,1.83-1.82,4.33-1.13,6.4-1.66,17.17-4.41,34.36-3.73,51.83-1.39,7.92,1.06,16.09,2.65,24.27,1.43,1,1.88,2.8,1.42,4.41,1.59,11.9,1.23,23.76,2.74,35.57,4.69,6.94,1.16,13.93,2,20.89,3-14.35-3-28.65-6.27-43.26-7.56C756.58,245.31,750.84,242.93,744.77,244.21Z" transform="translate(-1 -40.75)"/><path d="M441.72,486.22c1.76,2.16.58,4.74.89,7.08.13,1,0,2.28.58,2.8.95.87,1.67-.43,2.46-1,11.39-7.51,23.57-8,36.3-4.23,6.9,2.05,9.58,7.19,10.74,13.65a3.5,3.5,0,0,1-1.89,4.16A8.61,8.61,0,0,1,479,505.35a9,9,0,0,0-7.42-5,30.55,30.55,0,0,0-13.8,1c-3.3,1.06-6.24,3.2-6.37,6.83-.15,4,3.2,5.37,6.59,6.24,8.22,2.1,16.51,4,24.62,6.43,8.74,2.63,13.25,10.41,11.1,19.06-2,8-7.12,13.79-14.93,16.14-9.34,2.81-19,3.51-28.46,0-4-1.48-4.58-.2-4.07,3.36,1.13,7.87,3.28,15.58,3.67,23.57.08,1.6.8,3.22-.77,5.73-4.69-10.55-9.82-20.17-9.11-31.78-3.83,3.26-2.51,7.65-3.13,11.41a58,58,0,0,0-.6,13.93c.44,5.62-5.57,6-7.22,9.83-.31.72-1.86,0-2.14-1.18a10.2,10.2,0,0,1,.7-6.27c2.33-6.17,4.56-12.43,4.46-19.18,0-1.41.31-3-1.7-4.23A58.16,58.16,0,0,0,424.65,591c.19,3.18-2.38,7.28.18,9.3,2,1.57,6.22-.06,9.14.81,5.48,1.63,11.6,1.82,16.11,7,1.32-5.22-3.21-10.1,1.56-15.41a146.69,146.69,0,0,0,5.47,30.79c3.32,11.84,4.41,24.08,7.49,36,2,7.63.4,15.72.74,24.94-3.48-2.94-3.59-5.85-4.42-8.36-1.33-4.06-1.4-8.54-4.11-12.16-.68-.91-1.49-2.13-.6-3.18,1.23-1.46,2.06,1.18,3.43.59-.05-4.81.35-9.66-3.05-13.77a5.08,5.08,0,0,1-.76-2.83c-.15-3.06-1.54-5-3.58-7.54-2.89-3.53-3.78-8.72-5.47-13.22-.87-2.33-1.73-4.67-2.38-7.07-2.38-8.65-16.85-12.58-24.75-4.54-1.35,1.38-.93,3.07-.56,4.71,1.2,5.41,4.13,10.15,5.85,15.35.45,1.35,3.06,3.74.21,4.42-2.36.57-6.15,1.83-7.77-1.25a215.69,215.69,0,0,1-13.33-31.16c-.42-1.25-.56-3,1.2-3.26,2.39-.43,5-1.09,7.06,1,1,1,1,3.6,3.47,2.6s2.34-3.57,2.14-5.52c-1.14-10.94,2.18-21.12,5-31.41.7-2.56,1.13-5.2,1.68-7.8.66-3.1,1.85-5.2,5.75-5,2.88.18,2.93-2.85,3.2-4.77q1.61-11.54,2.74-23.14c.82-8.22,1.4-16.42,3.44-24.52,1.07-4.25.45-8.93.64-13.42C440.39,488.16,440,486.84,441.72,486.22Zm1,36.11c0,3.89,0,7.62,0,11.35,0,.82.31,1.93,1.2,2,4.2.09,4.75,3.45,5.91,6.3a7.89,7.89,0,0,0,3.76,3.8c5.86,3.31,12,3.31,18.33,1.87,4.82-1.1,8.5-4.05,8.63-9,.14-5.37-4.79-5.82-8.84-6.86C462.1,529.27,452,528,442.77,522.33Z" transform="translate(-1 -40.75)"/><path d="M530.18,341.85c6.35.51,14.52-1.57,22.93-.25,11.35,1.78,18.11,11.47,14.84,22.38-3.23,10.76-11.16,16.12-21.17,19-3.94,1.14-4.41,2-1.26,4.72,10.89,9.24,15.27,22.74,22.36,34.48,1.19,2,.76,3.5-2,3.56-3.66.07-7.3.33-11,.48-2.83.12-4-1.9-5.15-4-5.08-9.14-9.76-18.49-15.8-27.1-4-5.75-9.07-9.06-16.2-9-4,0-8,0-12,0-2.59.05-4,1-4.69,4-2.26,10.23-3.59,20.58-4.83,31-.25,2.1,0,5-2.34,5.55a21.72,21.72,0,0,1-10.86-.09c-1.46-.43-.93-2.36-.76-3.61,1.15-8.39,2.07-16.83,3.66-25.14,3.23-16.94,6.55-33.88,11.8-50.37.74-2.32,1.59-4,4.23-4.07C510.74,343.21,519.43,341.39,530.18,341.85Zm1.78,8.79c-5.59-.57-12.36.69-19.17.7-2.86,0-4.25,1.42-4.85,4-1.17,5-2.47,10-3.53,15-.66,3.14.11,5.06,4.07,4.83,5.81-.34,11.67,0,17.48-.26,7.47-.41,15-.9,21.85-4.41,4.63-2.37,7.62-7.63,6.76-11.74-1.14-5.46-4.28-7.89-10.87-8.16C540.21,350.52,536.71,350.64,532,350.64Z" transform="translate(-1 -40.75)"/><path d="M442.61,357.17a13.1,13.1,0,0,1-1.09-9.72c1.53-6.46.53-12.95,1-19.4.27-4.07-1.42-3.68-4-2.1a43.41,43.41,0,0,1-23.87,6c-7.21-.13-10.31-5.68-6.8-12.05,8.6-15.6,22.3-23.13,39.6-24.91a15.62,15.62,0,0,1,6.87,1.05c5.21,1.86,6.47,5.1,4.22,10.2-1.31,3-4,5.3-4.56,8.66,4.39,1.47,6.51-.08,7.87-4.31,4.25-13.2,26.19-25.27,40.82-20.18,1.91.67,3.08,0,3.81-2,.85-2.33,2.31-4.45,3-6.82.95-3.16,3.18-3.35,5.83-3.36,3.37,0,4.06,1.28,2.82,4.34-3.44,8.48-6.71,17-10.06,25.53-1.16,2.94-2.33,5.87-3.55,8.79-2.07,4.95-5.37,6.87-10.11,4.88-2.23-.94-3.66-.42-5.52.18-6.69,2.17-13.46,3.93-20.57,2.5-2.71-.54-3.1.78-3.07,3,.09,5.83-.16,11.67.1,17.49.17,3.86-2.57,5.3-4.9,4.42-4.81-1.84-8.3,1.21-12.39,1.92C444.72,351.9,442.13,352.74,442.61,357.17Zm35.73-38.86c9.78.11,20.09-7.31,22.32-16.09.82-3.22.65-6-3.25-7.11-9.46-2.71-22.9,4.73-25.74,14.27C469.91,315.29,472.1,318.23,478.34,318.31Zm-55.46,6.9a27,27,0,0,0,9.59-2.46c9.19-3.85,9.93-5.22,8.36-15a16,16,0,0,1-.32-4c.22-2.54-.33-3.18-3-2.33-8.62,2.74-15.31,7.7-19.56,15.79C415.33,322.18,417.24,325.28,422.88,325.21Zm21-24.14c2.35,1.1,2,2.55,1.47,4.49-.27,1,.51,2.93,1.94,3,1.86.06,1.45-1.83,1.6-3C449.31,302,447.29,300.93,443.85,301.07Z" transform="translate(-1 -40.75)"/><path d="M558.38,525.6c-11.91,1.68-23.94.33-35.86,1.58-4.76.49-5.66,1.89-4.15,6.48,2.39,7.22,6.76,12.22,14.86,12.66s15.3-1.59,19.81-8.84c2.56-4.12,5.49-5.66,10.29-4.57,5.75,1.32,6.31,2.4,3,7.38-8.66,13.16-21.34,17.18-36.27,15.94-6.76-.56-13.11-2.42-18.13-7.33-7-6.83-8.89-15.61-7.8-24.73,1.45-12.09,5.35-23.06,15.94-30.9,9.93-7.34,33.88-9.51,42.78.47,7.36,8.27,9.66,17.5,8.1,28.06-.36,2.44-2.18,3.69-4.61,3.78C563.71,525.67,561,525.6,558.38,525.6ZM545,515.67v-.53c3.16,0,6.32.12,9.47,0,1.61-.09,3.55-.4,3.25-2.79-.59-4.73-1.93-9.06-6.38-11.75-10.45-6.32-26.18-.83-30.36,10.66-1.08,3-.84,4.69,3.15,4.53C531.09,515.47,538.05,515.67,545,515.67Z" transform="translate(-1 -40.75)"/><path d="M414.58,424.14c-2.71.21-4.33,2-6.25,3.15-9.55,5.64-20.56,4.46-27.16-3.13-4.13-4.75-4.11-10.75-2.84-16.15,3.88-16.46,12.57-29.67,28.52-36.85,6.83-3.08,14-4.43,21.14-.39a3.29,3.29,0,0,0,1.35.62c3.08,0,3.81-4.43,7.6-3.7,5.07,1,3.31-3,3.42-5.47,0-.68.21-1.33,1.7-1.61,1.47,4.55-.3,9.33.53,13.88-4.17-.17-3.37,3.74-4.41,5.84-1.61,3.24-2.42,6.89-3.45,10.41-1,3.35-1.91,6.73-2.7,10.13s-1.31,6.86-2.11,10.26c-.83,3.56-1.9,7.07-2.8,10.61-.86,3.38-1.67,6.78-2.46,10.18-3.21,13.85-15.66,24-29.81,25.37-7.33.73-13.82,0-19.85-4.09-4.22-2.88-6.26-10.77-4.2-15.34A3,3,0,0,1,374,436c2.42.2,5.82-.35,6.61,2.3,1.22,4.06,3.06,6.74,7.27,7.88,4.8,1.29,9.25,0,13.52-1.7C410.33,440.89,413.34,433.23,414.58,424.14Zm10.06-34.81c.38-9.23-5.35-13.52-12.69-11.39-13.11,3.8-19,13.65-22.12,25.89-.25,1-.25,2-.46,3-1,4.63-.08,8.67,3.87,11.56s8.33,1.69,12.34.07C419.29,412.86,421.93,400.26,424.64,389.33Z" transform="translate(-1 -40.75)"/><path d="M609,426.33c-7.73.82-14.34-1.83-20.49-5.65-6.89-4.27-9.08-11.62-9.9-18.82-1.15-10.16.32-20,6.21-29.1,10.83-16.71,39-19.26,52.26-4.42,6,6.69,6.27,14.74,5.81,23-.15,2.7-2.33,2.39-4.12,2.43-13.28.28-26.57.57-39.85.76-7.33.11-8,1.23-6.35,8.26s6.08,10.81,12.44,12c9.73,1.87,17.39-1.82,21.84-9.42,2.09-3.57,9.08-5.13,12.49-2.68,2.89,2.07,1.32,4.63.15,6.66-3.67,6.35-8.8,11.35-15.7,14C619,425.24,614.13,427.25,609,426.33Zm2.15-42v0c4.49,0,9,.07,13.46,0,5.15-.11,6.11-1.61,4.43-6.57-2-6-9.39-10.15-17-9.52-8.27.68-16.13,6.53-17.45,12.61-.64,3,.67,3.53,3.08,3.52C602.17,384.29,606.66,384.31,611.14,384.31Z" transform="translate(-1 -40.75)"/><path d="M629.19,460.28c4.23-.84,6,1,7.39,6.32q5.48,21.73,10.7,43.53c1.55,6.45,2.7,13,4,19.52.26,1.32.32,2.81,1.93,3.15,2,.41,1.91-1.54,2.45-2.56,9.6-18,19.21-36,28.63-54.14,2.22-4.26,3.71-8.88,5.68-13.28,1.67-3.71,9.46-6.42,13-4.53,2.15,1.16,1,2.78.28,4.27-6.27,13-12.4,26.1-19.59,38.66C678,511,672.67,521,667,530.72c-2.92,5-6.23,9.77-9.59,14.48-1.9,2.66-9.95,4.07-12.92,2.69-1.07-.49-1.26-1.34-1.51-2.34-3-11.75-5.4-23.61-8.62-35.3-3.87-14.08-7.53-28.22-11.94-42.15C620,460.3,620.07,460.26,629.19,460.28Z" transform="translate(-1 -40.75)"/><path d="M715.28,424.5c-19.55,2.1-30.21-15.56-28.46-33.35.54-5.45.44-11,2.88-16.1,5.85-12.15,17.1-16,29.58-12.54,13.86,3.83,21.26,13.56,22.18,27.86.33,5.19-.54,5.93-5.94,5.64-10.12-.55-20.24-1.12-30.36-1.4-6.48-.19-7.35,1.19-5.65,7.44,1.78,6.54,7.25,11.69,13.64,12.11,6.85.46,12.86-1.1,16-8.32,1.44-3.29,7-4.41,10.36-2.21,3,1.94,1,4.63.17,6.72C736,420.16,728.3,424.51,715.28,424.5ZM722.93,386c3.12-.65,7.75,1.51,6.49-4.33-1.3-6-8.25-10.95-15-10.95-8,0-12.19,3.29-14.11,10.51-.75,2.83.18,3.77,2.72,3.75A117.74,117.74,0,0,1,722.93,386Z" transform="translate(-1 -40.75)"/><path d="M423.71,517c0,11.44-.12,22.89.07,34.34.06,3.58-.65,5.81-4.72,5.77s-6.27-1.12-6.73-5.86c-1.19-12.1-1-24.2-1-36.31,0-7.59-3.6-12.45-9.87-13.43-7.38-1.15-15.69,3.46-17.8,9.82-2.46,7.45-2.14,15.1-1.62,22.74.39,5.63,1.17,11.23,1.66,16.86.17,1.94,1.43,4.8-2.34,4.62-3-.13-6.78,1.8-7.92-3.4-1.5-6.88-1.72-13.89-2-20.81-.49-11.41-.09-22.85,0-34.27,0-2.38-.5-5.12,3.41-5.4,3.24-.23,6.24-1.29,7.12,3.56.6,3.35,2.48,1.22,3.88.21,8.57-6.21,17.72-6.73,27.36-2.88,7.7,3.08,10.55,9.12,10.57,17V517Z" transform="translate(-1 -40.75)"/><path d="M311.54,518.54c.41-6.07.79-13.53,5.87-19.77,5.82-7.15,13.21-9.73,22.18-8,8.34,1.62,13.28,7.16,16.36,14.59a56,56,0,0,1,3.88,16.92c.41,5.1-.27,5.78-5.37,5.53-9.64-.48-19.28-.79-28.91-1.31-4.18-.23-5,1.49-3.57,5.09,2.37,5.86,5.37,11.06,12,13s11.29,0,14.06-6.45c1.87-4.31,3.74-4.7,9.26-2.58,4.25,1.63,2.56,4.34,1.55,6.9-5.21,13.26-18.27,15.27-30.46,9.16C315.61,545.25,311.75,533.43,311.54,518.54Zm20.5-1.7c3.62-.58,7.83.7,12.12.9,2.27.11,4.17-.44,3.76-3.21-.69-4.72-2.54-9.09-6.63-11.7a12.66,12.66,0,0,0-13.25-.39c-3.68,1.95-7.92,9.44-6.6,12,2.09,4.09,6.2,1.69,9.38,2.36A10.92,10.92,0,0,0,332,516.84Z" transform="translate(-1 -40.75)"/><path d="M518.54,611.15c.56,7.11,1,14.24,1.71,21.33s-2.57,12.5-9.62,14.18c-9.44,2.26-19,3.18-28.57.58-3.08-.83-6.1-1.79-7.54-5.08-.37-.86-.24-2.11.57-2,3.21.31,6.46-.55,9.61,1.39,7,4.3,14.43,2.29,21.67.51,1.08-.27,2-1.73,2.72-2.79s1.27-2.51.38-3.72c-1.07-1.45-2.3-.32-3.56,0-9.52,2.43-19,3-28.18-1.39-8.33-4-12.71-11.74-11.28-19.62,1.18-6.54,9.16-12,17.93-12.54,7.08-.45,14.14-1.23,20.74,2.35,1,.53,2,.66,2.69-.28,2.6-3.66,6.48-2.75,9.39-1.64s1.13,4.74,1.48,7.25a10.58,10.58,0,0,1,0,1.49Zm-28-2.88a7.64,7.64,0,0,0-2.85.05c-4.14,1.2-8.63,2.35-10,7.14-1.5,5.22.7,11.81,5.1,14.1,6.65,3.48,13.73,5.05,20.95,1.24,6.61-3.5,7.67-13.36,1.78-18.08A19.81,19.81,0,0,0,490.56,608.27Z" transform="translate(-1 -40.75)"/><path d="M753.76,479.39c9.84-.17,15.53,4,16.22,13,1.31,17.2-11.52,45.52-37,47-7,.41-11.46-2.7-12.91-9.54-3.59-17.06,9.35-42.13,25.31-49A19.55,19.55,0,0,1,753.76,479.39Zm-24.15,42.8c0,4.74,2.81,8.67,6.62,8.46a20.86,20.86,0,0,0,9.85-3c9.69-6,12.71-15.84,15.07-25.93,1.27-5.42-2-12-5.83-12.4-4.45-.45-8.85-.14-12.59,3.21C733.81,500.44,730.58,510.79,729.61,522.19Z" transform="translate(-1 -40.75)"/><path d="M674.31,340.36c1.83,0,3.66,0,5.49,0,3.26.05,4.63,1.47,4.57,5s-1.63,4.45-4.87,4.51-7.64-1.31-8.53,4.32c-.92,5.78-.36,6.62,5.61,6.71,2.7,0,5.77-.83,6.15,3.69.31,3.63-.57,5.19-4.44,5.24-7.14.11-7,.28-7.17,7.22-.24,14-.63,27.93-2.41,41.8-.55,4.35-6.19,7-10.06,4.81-1.52-.85-1.21-2.28-1.15-3.53.64-12.13,1.57-24.23,1.75-36.38a31.77,31.77,0,0,1,.34-6.4c1.19-5.38-.33-8.33-6.28-8.12-3.84.13-3.32-2.68-3.44-5.19-.14-2.91,1.29-4,3.91-3.75,4.15.42,5.29-1.28,5.24-5.42C658.88,343.82,662.75,340.37,674.31,340.36Z" transform="translate(-1 -40.75)"/><path d="M779.44,391.7a87,87,0,0,1,.61-9.43c2.65-15.87,16.94-15.45,25.35-9.39s11.42,15.21,12.51,25.11c.31,2.84-1.24,3.74-4,3.62-6.48-.28-12.79-2.11-19.33-1.92-5.85.18-6,.14-4.53,5.91a27.86,27.86,0,0,0,2.56,6.48c2.05,3.72,5.56,4.91,9.65,5s5.84-2.69,6.77-5.57c1.24-3.82,3.57-4.91,6.75-3.63,3.41,1.37,2.08,4.4,1.23,6.88-2.4,7.05-6.87,11.7-14.7,12.27-6.59.48-14.05-4.13-17.39-10.34C780.73,408.88,779.89,400.35,779.44,391.7Zm25,.38c1.12-.95,4.45,1.35,4.4-2.46-.07-5-3.28-8.26-7.21-10.61-3.72-2.22-7.49-1.08-10.58,1.54-2.29,1.95-2.72,5-2.22,7.77s3.43,2.39,5.35,2.36C797.55,390.63,800.65,392,804.44,392.08Z" transform="translate(-1 -40.75)"/><path d="M250.18,442.33c-3.21.07-3.45-.22-1.47-5.85,7.08-20.14,16.62-39.11,27.13-57.65a6.66,6.66,0,0,1,5.06-3.5C287,374.23,293,373,299,371.92c5.36-.93,8.6,1.82,8.83,7.39.2,4.78-1.35,9.26-3.22,13.48A183,183,0,0,1,285,427.34C276.72,438.53,265.54,441.63,250.18,442.33Zm11.15-10.55c5.11-1,10.62-1.21,14.77-5,10.28-9.26,16.25-21.31,20.76-34,3.92-11.07,1.7-13.35-9.74-11-3.32.68-7.15.54-9.16,4.13a320.88,320.88,0,0,0-19.72,41.87C257,430.89,257.82,432.24,261.33,431.78Z" transform="translate(-1 -40.75)"/><path d="M352.18,428.38c-1.2-.21-2,1.06-2.91,1.93-4.49,4.4-10,5.71-16,5.51a8.35,8.35,0,0,1-8.28-8.18c-.36-5.69,1.89-10.79,3.91-15.84a292.55,292.55,0,0,1,12.49-28.26A10.55,10.55,0,0,1,344,380c1.78-1.33,4.47-1.78,6.09-.85,2.25,1.3-.06,3.23-.77,4.68-4.86,9.83-9.56,19.74-13,30.17-1.11,3.36-3.21,7-.26,10.34,1.86,2.1,9.27,1,12.62-1.84a34.29,34.29,0,0,0,9.88-13c4.12-9.79,8.35-19.54,12.53-29.32,1.15-2.67,2.48-5.15,5.7-5.73,1.43-.25,3-1.1,4.22.28s.08,2.82-.47,4.17c-3.81,9.37-7.83,18.67-11.38,28.14-2.74,7.29-4.86,14.81-7.31,22.21a6,6,0,0,1-7.86,3.8C351.14,432.1,354.57,429.53,352.18,428.38Z" transform="translate(-1 -40.75)"/><path d="M582.52,283.33c1.16,0,2.33,0,3.49,0,11.34.29,13.92,3.11,14.18,14.39.12,5.55-1.45,11.3,1.56,16.63a1.77,1.77,0,0,1-1.65,2.81c-2.89,0-6.09,1.23-8.49-1.45-1.92-2.13-4.06-1.92-6.35-.87-8.93,4.08-18.26,4.59-27.79,3-4.09-.68-7.92-2.06-8.63-6.87-.76-5.1,2.34-8,6.41-10.22,7.41-4,15.77-3.47,23.71-4.91,2.28-.42,4.62-.53,6.93-.87,1.52-.23,3.29-.75,3.42-2.41.16-1.9-1.56-2.89-3.24-3.26-7.19-1.6-14.24-1.44-20.57,2.81-2.75,1.85-5.46,3-8.81,2.71-2.86-.28-3.11-1.65-1.51-3.55a17.52,17.52,0,0,1,10.5-6.28C571.24,284,576.82,283,582.52,283.33ZM568.1,312.51c3.52-.41,6.7-.54,9.76-1.19,3.94-.84,7.72-2.24,10.22-5.72.88-1.22,1.74-2.65.91-4.14s-2.35-.95-3.63-.78c-6.08.84-12.2,1.47-18.2,2.72-2.87.6-7.17,1.28-6.59,5.38.49,3.57,4.66,3,7.43,3.72C568.16,312.54,568.33,312.52,568.1,312.51Z" transform="translate(-1 -40.75)"/><path d="M376.91,669.87c-6,1-12,1.73-17.9,3.23-15.4,3.94-30.7,1.13-46-.3-13.37-1.24-26.69-3-40-4.62-5.43-.64-10.87-1.22-16.28-2-3.5-.51-6.49-5.85-5.11-9.08,1-2.38,3.21-1.2,4.82-1,8.57,1.07,17.1,2.46,25.67,3.5,20.92,2.52,41.82,5.12,62.87,6.51,10.55.7,21.11,1.84,31.71,2.26Z" transform="translate(-1 -40.75)"/><path d="M753.71,282.35c16,.69,26.58,3.95,35.1,12.34,1.2,1.18,3.68,2.64,2.27,4.26s-4.09,1-5.72-.87c-5.52-6.2-12.73-8.68-20.68-9.75-8.84-1.2-12.43,2.78-9.91,11.18,4,13.22,20.72,25.13,34.56,24.2,2.59-.17,6.91.49,6.93-3.87,0-3.95-2.43-6.81-6.64-7.57-3.1-.57-6.21-1.12-9.32-1.59A4,4,0,0,1,777,308c-.37-.89-1.15-1.79-.51-2.79s1.73-.7,2.71-.56c4.94.73,9.87,1.46,14.82,2.15a6.77,6.77,0,0,1,5.49,3.84c2.07,4.35,3.87,8.84,5.92,13.19,1.21,2.56.21,4-1.91,5.32a17.84,17.84,0,0,1-11.95,2.69c-20-2.6-34.84-12.95-44.72-30.51C740.32,289.69,745.93,281.79,753.71,282.35Z" transform="translate(-1 -40.75)"/><path d="M287.32,626c-12.24-1.08-22.63-5.85-30.05-16.12-.86-1.19-3.19-2.79-1.55-4.08,1.84-1.44,4.53-1.07,6.06,1.37,3.87,6.19,9.86,9.21,16.56,11.18a10.46,10.46,0,0,0,2.91.66c3.05,0,7,1.26,8.27-2.63,1.12-3.44-1.77-6-4.33-7.77-5.36-3.76-11.69-5.54-17.65-8.08a81.28,81.28,0,0,1-12-6c-5.46-3.5-8.44-9-9.65-15.2-1.45-7.57,3.07-12.5,10.8-11.47,12,1.61,20.05,9,26.09,19,1.21,2,.43,3.09-1.93,3.2-2.93.14-4.46-1.6-5.87-3.84-3.48-5.51-8.42-8.88-15-9.5-2.55-.25-5.3-.29-6.53,2.43s-.13,5.3,1.81,7.32c3.33,3.44,7.74,5.12,12.12,6.71,9.11,3.29,18.08,6.7,24.71,14.32a43.84,43.84,0,0,1,4.75,6.38c4.19,7.07,1.39,12-6.86,12.17Z" transform="translate(-1 -40.75)"/><path d="M716.08,321.35c-.17,0-.38.07-.49,0-6-4.23-12.27-.23-18.41-.52-13.37-.64-26.16-11-28.69-24.07-.86-4.44,2.55-9.39,7.66-10.74a31.34,31.34,0,0,1,18.63.72c1.06.36,2.05,1.48,3.15.51s.07-2.15-.2-3.21c-.12-.48-.42-.91-.55-1.39-.49-1.84-3.22-4.13,0-5.42,2.81-1.14,6-.83,7.45,2.83,3.45,8.46,7,16.86,10.41,25.35,1.58,4,2.82,8.16,4.1,12.28C720.27,321.43,720.16,321.49,716.08,321.35Zm-28.6-30.65c-7,0-9.73,2.77-8.55,8.71,1.91,9.58,12.29,16.49,21.79,14.48,3.92-.82,5.94-2.89,5.69-7.28C705.88,297.54,698,290.73,687.48,290.7Z" transform="translate(-1 -40.75)"/><path d="M826.12,486.56c0,2.4.07,3.74,0,5.06-.62,10-2.94,12.32-12.9,13.22-4.13.37-8.24,1.07-12.38,1.39-3.36.25-4.56,2.43-5.09,5.2s-1.56,6.1,1.17,8.39c2.32,1.95,5.21,1.33,7.57,0a23.25,23.25,0,0,0,8.24-7.84c1.22-1.87,2.9-3.27,5-2,2.4,1.53.2,3.26-.64,4.59A32.55,32.55,0,0,1,798.61,529a8.88,8.88,0,0,1-11.56-9c.75-8.59,3.77-16.46,7.18-24.25a41.7,41.7,0,0,1,13.64-17.48c4.11-3,8.85-5,13.51-2.36A9.65,9.65,0,0,1,826.12,486.56Zm-6.47,3.69c-.25-1.87-.08-4.49-2.46-5.74a6.31,6.31,0,0,0-7.05.82c-3.31,2.73-6.45,5.68-8.18,9.85-.9,2.16-.81,3.18,1.82,2.85,3.61-.45,7.22-.95,10.84-1.34S819.88,494.26,819.65,490.25Z" transform="translate(-1 -40.75)"/><path d="M660.81,587.44c2.15,0,3.49-.08,4.81,0,5.71.44,7.85,3.35,5.8,8.57s-4.54,10-6.82,14.92a42.36,42.36,0,0,0-2.36,5.47c-1.17,3.94-4.58,6.49-8.29,4.91-2.65-1.14-4.35-.34-6.47.57-6.35,2.71-13.12,3.58-19.9,4.21-3.15.29-6.84.07-8.2-3.34s.86-6,3.31-8.26c5.92-5.41,13.42-7,20.89-8.67,4.85-1.11,9.63-2.56,14.46-3.77,2.6-.66,3.47-2.41,3.23-4.84-.24-2.59-2.29-2.47-4.13-2.44-7.65.11-15,1.21-20.42,7.36-2.44,2.74-5.62,1.84-8.4,1.36-2.21-.38-.71-1.93,0-3,3.27-4.49,7.92-7.22,12.92-9C647.81,589.24,654.49,587,660.81,587.44ZM634.53,621a37.15,37.15,0,0,0,17-5.73,14.94,14.94,0,0,0,5-5.44c.74-1.32.46-2.55-1.35-1.9-7.35,2.64-15.19,3.7-22.34,6.92-1.66.75-3.4,1.89-3.06,4.08C630.25,621.52,632.58,620.63,634.53,621Z" transform="translate(-1 -40.75)"/><path d="M354.07,307c-1,2.94-2.09,5.88-4.76,7.93-2.23,1.72-4.31,3.64-6.53,5.38-1.14.9-1.94,1.79-1.32,3.35,1.31,3.26-.32,5.87-2.13,8.26-8.5,11.21-19.59,18.19-33.61,20.34-3.59.55-7.16,1.28-10.71,2.11-1,.24-2,.54-2.71-.31-.87-1,0-1.76.59-2.59,9.36-13.92,19.28-27.43,29.43-40.77a10.16,10.16,0,0,1,7.1-4.14c6.58-.81,12.93-3.09,19.62-3.21C351.53,303.29,353.73,303.82,354.07,307Zm-47.26,38.72c4.68-1.69,10.22-2.15,15.21-4.6,4.18-2.05,7.14-5.33,9.76-9,1.09-1.51,1.44-3.72-.82-3.91-6-.5-12.41-.27-17.21,3.19-3.84,2.76-6.12,7.72-9,11.78C303.56,344.9,303.94,346,306.81,345.71Zm13.62-22.61a49.65,49.65,0,0,0,14.07-3,19.14,19.14,0,0,0,9.52-6.93c1.2-1.69,1.36-3-1.24-3.49C333.68,307.88,323.82,313.69,320.43,323.1Z" transform="translate(-1 -40.75)"/><path d="M251.32,511.13c.3-5.2-.53-11.22.67-17.17.3-1.48.35-3,2.19-3.54a2.7,2.7,0,0,1,3.55,1.86c.9,2.28,1.92,1.41,3.33.35,8.12-6.12,16.4-3.13,18.76,6.74a31.19,31.19,0,0,1,1.17,7.38,202.35,202.35,0,0,0,2.45,35.8c.32,1.9,1.51,5-2.29,5.48-3.34.41-4.38-1.84-4.79-4.51-1.32-8.7-2.78-17.38-2.54-26.26a95.7,95.7,0,0,0-.62-10.95c-.32-3.51-1.94-5.93-5.81-6.33s-6.38.88-7.91,4.55c-2.62,6.28-1.72,12.82-1.55,19.26.14,5.46,1.1,10.9,1.7,16.36.2,1.79,1.76,4.06-1.81,4.41-2.94.3-4.54-1-4.7-3.8-.42-7.13-2.2-14.15-1.83-21.36C251.43,516.91,251.32,514.41,251.32,511.13Z" transform="translate(-1 -40.75)"/><path d="M330.91,677.88l-22.76,3.86c-15.42,2.62-30.85,5.16-46.25,7.92-3.57.64-5.23,0-5.61-3.94A92.6,92.6,0,0,0,254,673c-1-4.27.55-5.25,4.55-4.7q14.55,2,29.17,3.59c13.52,1.47,27.07,2.77,40.61,4.13C329.14,676.06,330,676,330.91,677.88Z" transform="translate(-1 -40.75)"/><path d="M386.9,636.38c-16.19.28-30.88-9.07-36-22.82-3.43-9.28.68-15.88,10.42-16,16.07-.16,29.16,5.7,37.72,19.94a22,22,0,0,1,1.13,2.22c4.49,10.2.77,16.2-10.31,16.64C388.9,636.42,387.9,636.38,386.9,636.38Zm-4.75-5.53c7.81,0,10.6-2.32,9.32-7.84-2.75-11.8-15.74-19.24-25.47-18.38-5.06.44-7.38,3.86-6.15,8.7C362.39,623.24,372.05,630.84,382.15,630.85Z" transform="translate(-1 -40.75)"/><path d="M614.77,308.46c-1.42-5.12-.41-11.83-1.23-18.42-.75-6.1,2.09-8.66,7.61-6,2.27,1.09,3.9.81,6,.3a39.85,39.85,0,0,1,22.13.66c4.47,1.47,7.78,4.39,8.82,9.27,1.36,6.34,2.76,12.67,4,19,.33,1.73,1.67,4.48-1.62,4.63-2.84.12-6.8,1.81-7.94-2.76a105.21,105.21,0,0,1-2.33-12.71C648.41,287.76,642,287,629.34,289.2c-3.64.64-5.2,3.39-5.07,7,.18,5.47.38,10.94.78,16.4.23,3.18-.34,5.09-4.17,4.81-3.37-.26-6.55-.27-6.12-5C614.84,311.56,614.77,310.72,614.77,308.46Z" transform="translate(-1 -40.75)"/><path d="M308.43,551.6c-8.48-.2-13.47-5.6-14.65-15.15a230.13,230.13,0,0,1-1.34-30.38c0-2.65.25-5-3.27-6.28-2.73-1-2.72-7.78-.07-8.44,5-1.28,4.8-4.86,4.71-8.49a12.18,12.18,0,0,1,4.93-10.34c.89-.71,1.81-1.72,3.08-1.15,1.45.66.75,1.95.63,3.07-.46,4.11-.92,8.23-1.31,12.35-.2,2.17.12,3.91,3,4.11,3.16.21,4,2.25,3.77,5.23s-1.49,4.7-4.66,4.5c-2.3-.14-3.32.86-3.32,3.21,0,10.79-.12,21.59,1.88,32.27.49,2.67,1.48,4.51,4.61,5,4.46.67,4.68,4.7,5.32,8C312.16,551.43,310.27,551.72,308.43,551.6Z" transform="translate(-1 -40.75)"/><path d="M582.94,584.41c-1.94,10.81-3.71,21.65-5.85,32.41-2,9.93-2.16,9.93,7.48,8.92,7.43-.77,14.85-1.69,22.29-2.43,1.49-.15,3.7-.9,3.93,1.65.21,2.24-1.47,3.08-3.47,3.48-10.44,2.08-21.06,2.65-31.63,3.5a64.17,64.17,0,0,0-7.33,1.12c-3.15.63-4.79-.19-4.1-4.35q3.25-19.61,5.52-39.38c.92-7.86,2.31-9.33,9.94-8.49C582.08,581.1,583,582.14,582.94,584.41Z" transform="translate(-1 -40.75)"/><path d="M851.14,409.76c.19,5,.91,9.94-.06,14.93-.34,1.76-.55,3.36-2.87,3.21s-2.52-1.89-2.47-3.6a225.6,225.6,0,0,0-.92-27.87A31.92,31.92,0,0,0,843,388.2c-1.14-3.05-3.52-5.1-6.82-4.88s-4.57,2.57-5.19,5.74c-1.46,7.48.64,14.85.39,22.31a118.7,118.7,0,0,0-.28,11.94c.19,2.75-1.55,3.35-3.84,3.31-2.52-.05-2.26-1.75-2.27-3.5-.12-14.79,0-29.59-3.14-44.17-.37-1.74-1.06-3.86,1.4-4.64,2-.62,3.54.09,4.27,2.28.43,1.3,1.1,1.62,2.62.84,7.44-3.87,14.33-1.33,17.73,6.29,2.42,5.43,3,11.22,3.25,17C851.25,403.76,851.14,406.77,851.14,409.76Z" transform="translate(-1 -40.75)"/><path d="M761.11,401.82c0,6.17,0,12.33,0,18.49,0,3.9-2.72,4.22-5.45,4.11-2.51-.1-4.49-1.08-4.15-4.33,1.74-16.63-.49-33.13-1.74-49.67-.11-1.53-1.82-3.5.16-4.53s5.15-.63,6.08.66c2.45,3.44,4,1.42,6.37.18,3.84-2,7.48-.12,10.9,1.6,2.78,1.39,1.54,4.05,1.48,6.26-.07,2.53-1,3.4-3.84,2.76-7.27-1.64-9.72.41-9.91,8-.13,5.48,0,11,0,16.46Z" transform="translate(-1 -40.75)"/><path d="M400.91,302.79c7.66.09,10.3,4.61,6.18,11.14-8.95,14.18-21.42,23.48-38.14,26.49-3.32.59-6.89.84-9.18-2.29-2.11-2.86-.38-5.78.81-8.48C367,315,385.7,302.59,400.91,302.79ZM373,333.31c8.76,0,21.42-9.52,25.51-19.28,1.73-4.11-.07-6.61-4.57-5.78-11.43,2.11-19.37,9.09-24.79,19C367.13,331,368.83,333.29,373,333.31Z" transform="translate(-1 -40.75)"/><path d="M674.5,618.23c-2.31.19-2.55-.9-1.61-2.7,5.16-9.88,10.27-19.78,15.5-29.62a5.3,5.3,0,0,1,7.23-2.5c2.73,1.51,4.39.49,6.34-.68a30.05,30.05,0,0,1,13.2-4.24c6.38-.48,9.11,3,6.31,8.52-4.12,8.12-9,15.87-13.64,23.71a4.94,4.94,0,0,1-2.61,2.17c-1.52.43-3.49,1.48-4.73.1s.65-2.62,1.34-3.81c3.25-5.61,6.6-11.16,9.84-16.77.9-1.55,2.2-3.37.91-5.08-1.48-2-3.7-1.5-5.94-1-9.48,2.07-15,8.6-19.39,16.61-2.15,4-4.58,7.74-6.59,11.75C679.31,617.35,677.06,617.91,674.5,618.23Z" transform="translate(-1 -40.75)"/><path d="M756.16,570.82c3.28.07,7,2.71,9.46-1.92.39-.74,1.89-.73,2.73,0,1.42,1.21.38,2.29-.26,3.47-5.37,10-11.89,19.17-18.28,28.47-1.48,2.16-2.51,4.8-5.52,5.38a11.8,11.8,0,0,1-2.28.24c-1.38-6.79-4.12-.67-5.73-.33a60.36,60.36,0,0,1-9.82,1.41c-3.8.19-6.18-2.93-5.09-6.72,3.6-12.63,19.5-27.86,33.3-30A10.56,10.56,0,0,1,756.16,570.82ZM734.07,602a7.88,7.88,0,0,0,2.18-.38c8.6-3.89,15.67-9.37,19.22-18.54.62-1.6,1.31-3,.09-4.66-1.37-1.84-3.35-1.74-5-1.17-9.86,3.41-16.54,10.32-20.45,19.84C728.91,600.07,730.56,601.88,734.07,602Z" transform="translate(-1 -40.75)"/><path d="M697.43,543.1c-2.84.31-3.77-.62-2.78-4a408.11,408.11,0,0,0,11.85-52.29c.25-1.59.43-3.65,2.5-3.85a28,28,0,0,1,7.82.17c1.13.22.39,2,.19,3.15-3.28,17.58-7.06,35-12.74,52C703.07,541.89,701,543,697.43,543.1Z" transform="translate(-1 -40.75)"/><path d="M856.83,480.53c0,8.22-4.1,15.31-6.47,22.87-1.25,4-3,7.75-4.61,11.58a8.61,8.61,0,0,1-2.93,4c-.84.59-1.78,1.17-2.72.45s-.48-1.74-.1-2.69c2.74-7,5.36-14,8.2-20.88a43.51,43.51,0,0,0,2.76-11.1c.4-3.08-1.15-4.37-4.26-3.22-3.5,1.3-5.64,4-7.21,7.2-4.59,9.42-7.92,19.36-11.82,29.06-1,2.39-1.45,5.19-4.91,5.6-2.28.26-3.36,0-2.16-2.51a275.06,275.06,0,0,0,15.92-44c.64-2.36,2.6-3.51,4.55-2.12s3.22.88,4.76-.34c2.52-2,5.43-3,8.36-1.43S856.92,477.65,856.83,480.53Z" transform="translate(-1 -40.75)"/><path d="M791.69,455.92c2.85-.33,4.07,1,3.53,3.8-3,15.31-6.15,30.6-11.45,45.33-3,8.27-6,16.5-9.71,24.51-.78,1.71-1.63,2.72-3.43,3.09-1.29.26-2.61,1.08-3.66-.27-.86-1.1-.09-2.22.36-3.26a249.64,249.64,0,0,0,9.92-26.58c4.11-13.84,7.9-27.75,9.84-42.09C787.48,457.6,788.32,455.6,791.69,455.92Z" transform="translate(-1 -40.75)"/><path d="M328.26,390.62c-4.44.14-7.74,3.42-10.4,7.32-5.76,8.43-9.39,17.87-12.71,27.45-1.08,3.14-2.34,6.22-3.35,9.38-1.07,3.36-3.67,3.94-6.33,3-3.34-1.16-.57-3.44-.1-4.89a286.94,286.94,0,0,1,19-44.39c1.86-3.54,3.85-6.84,8.69-4,.85.51,1.57-.1,2.26-.55a23.88,23.88,0,0,1,2.5-1.64c3-1.47,6-3.34,9.33-1.09,1.26.83,1,2.11.22,3.06C335.07,387.07,334.19,391.65,328.26,390.62Z" transform="translate(-1 -40.75)"/><path d="M814,301.91c11.09,1.52,19.63,8.84,24.79,20.43a26,26,0,0,1,2.6,9c.39,6.12-2.34,9.13-8.47,8.27-7.72-1.08-13.3-5.95-18.17-11.44-4.66-5.24-8.28-11.39-9.63-18.32C803.89,303.4,805.81,301.67,814,301.91Zm21,26.26c-1.16-9.09-9.29-19.21-18-20.87-2.58-.5-4.72.35-4.91,3.45-.44,7,10.49,20.56,17.48,21.94C833.62,333.49,834.34,330.83,835,328.17Z" transform="translate(-1 -40.75)"/><path d="M861.75,402.34c-.37,5.56,0,11,2.73,16,1,1.8,1.95,3.59,4.34,3.58s3.56-1.61,4.38-3.53a43.85,43.85,0,0,0,1.44-4.23c.35-1.13-.37-3.08,1.7-2.95,1.78.12,2.88,1.3,3.23,3.25.76,4.31-4.07,13.58-8,15.18-3.76,1.51-7.87-.36-10.28-4.74-4.33-7.86-4.76-16.55-5-25.18-.12-4.75-.55-9.65,1.6-14.27,2.9-6.25,6.45-6.91,12.52-3.66,4.6,2.47,6.77,7.15,7.92,12.2.4,1.74,0,2.91-1.82,3.46s-2.43-.39-2.93-1.81c-.39-1.1-.89-2.16-1.37-3.22-1.07-2.41-2.61-4.61-5.5-4.21-3.25.45-4.58,3.14-4.87,6.11C861.55,397,861.75,399.68,861.75,402.34Z" transform="translate(-1 -40.75)"/><path d="M324.93,630.71c-6-.52-11-3.6-14.64-9.11-4.12-6.28-6.84-13.28-10.36-19.87a11.21,11.21,0,0,0-5.42-5.34c-2.94-1.38-5.85-3.49-1.24-6.65,1.34-.92.55-2,.16-3.12-.56-1.57-1.2-3.11-1.65-4.71-.7-2.47,1-3.83,2.79-4.66,2.11-1,2.93.8,3.58,2.39.82,2,1.73,4,2.35,6.05,1.06,3.62,2.66,6.46,7,6.52a3.76,3.76,0,0,1,3.4,2.58c.83,1.94,2,4.09-1.83,3.73-2.68-.24-2.93,1.09-1.93,3,3.29,6.34,6,13,9.95,19,1.43,2.22,3.1,3.82,6,3.78a4.74,4.74,0,0,1,4.32,2.09c.65,1.07,2.36,1.85,1.69,3.34S326.75,630.47,324.93,630.71Z" transform="translate(-1 -40.75)"/><path d="M236.34,518c-.87-14.68.73-29.18,3.22-43.62.49-2.87,1.36-5.08,4.63-4.3s1.89,3.39,1.55,5.39c-3.63,21.09-4.55,42.23-1.35,63.46.25,1.67.87,3.56-1.55,3.95s-4.45-.5-4.89-3.1c-.7-4.07-1.24-8.17-1.56-12.28C236.14,524.39,236.34,521.21,236.34,518Z" transform="translate(-1 -40.75)"/><path d="M888,344.92c-.11,4.62-3.07,6.74-7.88,5.29-6.83-2-10.82-7.41-14.36-13.13a53.28,53.28,0,0,1-7.3-16.82c-1.12-5.12,1.71-7.89,6.91-7.17,9.37,1.28,17.35,12.82,19.51,19.6.7,2.2-.08,3.18-2.55,2.41q-5-1.58-10.06-2.84c-.91-.22-2.24-.33-2.85.16-1.16.94,0,2.09.42,3.07a15.85,15.85,0,0,0,5.3,6.5c2,1.38,4.6,2.68,6.6,0,1-1.39,1-3.72,3.76-2.53C888,340.53,887.78,342.79,888,344.92ZM877.74,328A14.24,14.24,0,0,0,869,319.4c-1.77-.71-3.38-.38-4.17,1.42s-.42,4,1.5,4.6C869.85,326.55,873.39,327.85,877.74,328Z" transform="translate(-1 -40.75)"/><path d="M812.56,586.38c-2.63-.54-4.26,1.56-6.34,2.45-3.78,1.64-8.6,4.8-11.39,1.23-2.94-3.75,2.17-6.84,4.56-9.79,4.59-5.67,11.16-8.16,17.66-10.73,3.09-1.21,6.33-2.18,8.37-5.1.8-1.14,1.28-2.46.42-3.71s-2.1-.49-3.18-.24a15,15,0,0,0-8,4.82,21.23,21.23,0,0,1-3.31,3,2,2,0,0,1-2.73.07c-1-1-.13-1.9.46-2.61,5.14-6.14,11.11-11,19.35-12.23,4.61-.66,6.25,1.54,4.34,5.89-4,9.16-10.68,16.76-15.38,25.54C816.52,586.65,814.55,587.09,812.56,586.38Zm-9-.44A29.75,29.75,0,0,0,816,578.59c1.12-1.12,3.56-2.51,2.16-4.27-1.15-1.45-2.88.69-4.36,1.18-1.25.41-2.51.83-3.71,1.36a21.38,21.38,0,0,0-7.48,5.52,2.23,2.23,0,0,0-.46,2.73C802.42,585.57,803.15,585.74,803.51,585.94Z" transform="translate(-1 -40.75)"/><path d="M838,579.39c-1.7.78-3,1.38-4.34,2-1.72.82-3.64,1.45-5.22.26-1.82-1.39-1.64-3.86-.88-5.55,5.09-11.23,12.16-20.79,22.82-27.58,3.52-2.24,7.6.81,10.9-2.36.94-.91,1.85,1.08,1,2.57-6.85,11.78-13.59,23.66-21.91,34.49A24.4,24.4,0,0,1,821.47,593c-1.19.06-2.45.38-3-1a3.9,3.9,0,0,1,1.13-4.53c1-.94,2.07-1.78,3.55-1.2,5.8,2.24,9.2,1.46,13.13-3.22C837,582.18,838.15,581.57,838,579.39Zm-2.8-2.75a28.79,28.79,0,0,0,3.23-1.33c7.23-4,10.9-10.91,14.37-17.91.53-1.06.7-2.83-.5-3.72-1.45-1.08-3,0-4.12.81-6.56,4.8-11.15,11.27-14.84,18.38C832.52,574.41,832.89,576.17,835.18,576.64Z" transform="translate(-1 -40.75)"/><path d="M780,594.58c-2.57-.29-4.77,2.27-7.57,3.08-3.37,1-7.3,4-10.16.44-2.56-3.15.92-6.15,2.6-8.86,4.19-6.79,8.54-13.48,12.83-20.2a24.12,24.12,0,0,1,1.49-2c1.24-1.53,3-2.84,4.71-1.61,2.06,1.44-.1,3-.83,4.18-3.88,6.39-7.94,12.68-11.89,19-.75,1.2-2.58,2.45-1.37,3.88,1.33,1.58,3.39.83,5.12.14,7.37-2.95,11.86-8.92,15.86-15.33,2.64-4.23,5.09-8.57,7.73-12.8a21.11,21.11,0,0,1,3.16-3.84,2.21,2.21,0,0,1,3.16-.22c1,.86.33,1.95-.18,2.72-6.42,9.72-11.77,20.12-18.8,29.44C784.5,594.42,782.92,595.28,780,594.58Z" transform="translate(-1 -40.75)"/><path d="M882,479.49a17.76,17.76,0,0,1-.32,3c-.39,1.67-1.16,3.46-3.18,3.21-1.72-.21-1.31-2-1.34-3.29,0-1.71-.13-3.46-2.17-4s-3.19.67-4.31,1.92c-6.69,7.46-9,16.9-11.12,26.24-.64,2.8,1.82,4.07,4.69,2.75,3.55-1.65,5.14-5.06,7.09-8.12.9-1.41,1.75-3.41,3.69-2.4,2.2,1.14.55,2.92-.2,4.25-2.65,4.65-5.69,9-10.28,12-2.43,1.57-5.14,2.93-7.94,1.48-3-1.52-3.25-4.61-2.65-7.45,2.61-12.27,6.5-24,14.68-33.92a10.09,10.09,0,0,1,1.68-1.83c2.4-1.8,4.85-3.74,8.15-2.33C881.18,472.12,882,474,882,479.49Z" transform="translate(-1 -40.75)"/><path d="M331.65,606.41c.3,4.76,2.72,8.25,4.57,11.93s3.78,7,5.72,10.53c1.45,2.61.32,3.42-2.17,3-2.27-.42-4.3-1.1-5.69-3.46A261.52,261.52,0,0,1,318,596.92c-.47-1.09-1.09-2.37.21-3.12a3.92,3.92,0,0,1,4.6.94c2.23,2.45,3.87,2.37,6.58.54s10.21-.06,12.57,2.5c1.3,1.41,1.17,3.11.63,4.69s-2.08,1-3.39,1C336.22,603.39,332.23,601.39,331.65,606.41Z" transform="translate(-1 -40.75)"/><path d="M874.89,562.33c-4.64,6.54-10.08,11.12-17.46,13-3,.78-5.19-1.73-4-4.81,4.74-11.83,12-21.81,22.83-28.81,1.77-1.15,3.8-1.55,5.57,0s1.94,3.3,1.21,5.44c-2.28,6.72-5.25,12.37-13.58,13.18-3.51.34-8,.46-9.42,5.16-.41,1.34-1.55,2.93.1,4.09,1.24.87,2.68.06,3.72-.67,1.89-1.33,3.59-2.94,5.38-4.41C870.63,563.39,871.59,561.52,874.89,562.33Zm-7.56-6.73a56.36,56.36,0,0,0,7.91-2.07,4.14,4.14,0,0,0,2.23-5.76c-1.27-2.32-3.16,0-4.59.69C870.2,549.83,868.79,552.48,867.33,555.6Z" transform="translate(-1 -40.75)"/><path d="M376.2,299.33c-.59.88-1.27,2-2.05,3.06-9.86,13.33-20.3,26.24-29.26,40.24a4.7,4.7,0,0,1-3.66,2.26c-1.09.12-2.34,1.19-3.26.06-1.19-1.44.33-2.36,1.06-3.37,8.93-12.36,17.83-24.74,26.84-37.05,2-2.77,3.95-5.84,7.79-6.56C374.75,297.76,376,297,376.2,299.33Z" transform="translate(-1 -40.75)"/><path d="M855.22,343.15A4.11,4.11,0,0,1,851,340.3q-6.37-14.85-12.72-29.7c-.55-1.3-.89-3.45,1-2.64,3.77,1.66,8-.12,11.53,2.19,1.3.84,2.54,1.58,3,3.15s.39,3.23-2,2.67c-5-1.19-4.09,2.12-3.24,4.56,2.24,6.42,4.81,12.71,7.33,19C856.53,341.21,857.34,342.69,855.22,343.15Z" transform="translate(-1 -40.75)"/><path d="M720.85,461.44c-1,8.92-3.42,11.66-9.6,10.64-2.87-.47-1.86-2.53-1.66-4.24,1.13-9.61,1.93-10.6,8-10C720.6,458.12,721.14,458.72,720.85,461.44Z" transform="translate(-1 -40.75)"/><path d="M434.06,221.36c-3-15.21-4.71-30.53-3.7-46.1C433.2,190.48,434,205.89,434.06,221.36Z" transform="translate(-1 -40.75)"/><path d="M420.94,79.9c-2-4.65.26-8.68-.45-12.65-.45-2.5.47-5.25.79-7.89.13-1.1-.11-2.59,1.65-2.46,1.18.09,1.52,1.22,1.63,2.22A34.7,34.7,0,0,1,420.94,79.9Z" transform="translate(-1 -40.75)"/><path d="M427.82,142.16c-.2-2,1.93-3.18.39-4.72-1-1-2.88-2-1.63-3.51.59-.71,2.7-.36,4.08-.18,3.6.47,5,3.54,6.29,6.24.84,1.77-1.28,2.12-2.5,2C432.35,141.67,430.28,141.23,427.82,142.16Z" transform="translate(-1 -40.75)"/><path d="M438.52,270.2q.78,12,1.58,24l-1.74.11c-1.57-7.94-2.7-15.9-1.72-24Z" transform="translate(-1 -40.75)"/><path d="M429.4,170.75c-3.15-8.25-.68-16.95-2.41-25.3C431.27,153.55,430.26,162.18,429.4,170.75Z" transform="translate(-1 -40.75)"/><path d="M434.7,248.72c-2.58-8.29-.56-15.82-1.64-23.15C436.2,228.48,437.11,242.55,434.7,248.72Z" transform="translate(-1 -40.75)"/><path d="M427.16,124.76c-3.81-2.85-3-6.62-3.37-10.07-.35-2.91.56-5.93-.66-8.8-.33-.78-.64-1.68.35-2.09s1.5.41,2,1.09a2.19,2.19,0,0,1,.43.88C426.33,112.1,426.74,118.43,427.16,124.76Z" transform="translate(-1 -40.75)"/><path d="M465.26,46.73c0,.49-.06,1.48-.16,2.47s-.56,1.94-1.85,1.78a2,2,0,0,1-1.82-2,25.55,25.55,0,0,0-.5-4.41c-.46-1.61-1.63-3.2,1.24-3.58,2.53-.33,3.19,1.08,3.09,3.25C465.24,44.9,465.26,45.56,465.26,46.73Z" transform="translate(-1 -40.75)"/><path d="M420.74,44c-.38,1.25-.14,3.19-2.1,2.73a5.46,5.46,0,0,1-4.27-4.43c-.31-2.08,1.79-1.43,2.94-1.48C419.43,40.74,420.8,41.68,420.74,44Z" transform="translate(-1 -40.75)"/><path d="M280.4,260.35c-1.39,6.92-6.48,11.44-11.32,15.95-2.1,1.94-3.94,3.37-4.47,6.57-.81,4.83-4.18,8.68-7.1,12.43-1.91,2.44-5.56,2.15-8.37,1.15-2.51-.9-1.94-3.23-.13-4.23,7.78-4.32,8.41-12.51,11-19.63,1.74-4.72,6.57-6.94,8.88-11.24,1.2-2.22,2.73-4.22,2.36-6.89-.34-2.43.71-3.77,3-4.36,2.51-.64,3.82,1,4.72,2.76A14.52,14.52,0,0,1,280.4,260.35Z" transform="translate(-1 -40.75)"/><path d="M217.4,323.94c-.15,2.33-8.09,11.07-10.3,11.42-1.67.26-2.39-.45-1.55-1.87,2-3.41,4.1-6.78,6.43-10,1-1.4,3-1.33,4.63-1.13C217.26,322.46,217.6,323.18,217.4,323.94Z" transform="translate(-1 -40.75)"/><path d="M216.71,331.75c5-4,7.64-8.87,12.35-11.68,1-.59,2.57-1.56,3.57-.05.89,1.33-.69,2-1.37,2.81-2.15,2.53-4.27,5.08-6.59,7.45C222.82,332.18,220.44,332.35,216.71,331.75Z" transform="translate(-1 -40.75)"/><path d="M48.35,461.43a19.18,19.18,0,0,0-9.22-3.4,13.27,13.27,0,0,1-8.57-3.66,53.52,53.52,0,0,0-10.69-8.78c-3.37-2-3.36-8.62.16-13.09a34,34,0,0,0,4.77-9.24,21,21,0,0,1,24.32-13c13.07,2.77,25.11,8.58,37.88,12.21,7.85,2.24,11.68,9.91,10.73,18.66-.18,1.65-.88,3.39-.57,4.93,2.07,10.18-4.41,14.53-11.93,18.67-7.85,4.33-16.33,5.84-25,5.63-5-.12-10-2.23-14.95-3.64-1.46-.41-2.9-1.75-2.49-3.34C43.59,460.49,46.55,462.48,48.35,461.43Z" transform="translate(-1 -40.75)"/><path d="M124.93,453.9c6.59.09,9.75,4.88,12,9.46,4.28,8.51,8,17.5,9.27,26.95.82,5.95-3.89,10.15-8.61,13.4a26.15,26.15,0,0,0-6.67,5.91c-1.24,1.69-2.18,5.13-4.56.44-1-2.06-2.66.6-3.77,1.34-6,4-13.27,3.55-16.76-1.74a34,34,0,0,1-4.54-10.4c-1.72-7-2.84-14.63-.26-21.05a83.34,83.34,0,0,1,9.14-16.28C113.73,456.91,119.23,454.84,124.93,453.9Z" transform="translate(-1 -40.75)"/><path d="M68,494.39c4.86-1.55,11.35-3.32,16.88-6.9,4.81-3.11,7.34.09,9.77,2.64,2.71,2.85,5.14,6.45,2.1,10.68-1.06,1.47-2.71,2.59-3.53,4.16-2.18,4.15-6.48,6.77-7.27,12.14-.44,3-3.2,6.23-6.47,7.88-4.09,2.06-7.72,4.41-9.83,8.76a3.57,3.57,0,0,1-5.22,1.42c-4-2.38-7.87-5-9.86-9.52a5.13,5.13,0,0,1-.05-4.77c2.29-4.36,2.29-8.72.75-13.45C53,500.48,58.52,494.25,68,494.39Z" transform="translate(-1 -40.75)"/><path d="M142.94,440.93c-4.23-.34-8.3-1.4-12.7-1.33a12.18,12.18,0,0,1-11.71-7.89c-2.77-6.89-5.23-13.9-7.87-20.84-.3-.79-.92-1.62-.13-2.24,1-.82,1.92.05,2.48.81,2.14,2.94,5,5.69,6.09,9,1.61,4.74,5.1,8.08,7.33,12.28,1.39,2.61,4,3,6.42,3.06,4.23.12,7.46,2.57,11.11,4.05,1.15.47,2.17,1.25,1.61,2.62S143.87,441,142.94,440.93Z" transform="translate(-1 -40.75)"/><path d="M126.07,446.88c.73.05,1.93-.12,2.1,1.23.13,1-.69,1.37-1.53,1.64-5.87,1.86-11.65,3.92-16.77,7.45-.76.52-1.64.72-2.17-.15a2.3,2.3,0,0,1,.06-1.83c1.07-2.32,2.69-4.6,5-5.35C117,448.49,121.46,447.87,126.07,446.88Z" transform="translate(-1 -40.75)"/><path d="M75.12,545.22c-.75,2.18-2.24,3.74-4.37,3.46-3.62-.47-3.84-3.82-4.17-6.53-.25-2,1.16-4,3.21-3.55C73.07,539.29,74,542.44,75.12,545.22Z" transform="translate(-1 -40.75)"/><path d="M20.45,496.47a2.78,2.78,0,0,1-1.82,2.17A5.35,5.35,0,0,0,15,502.35c-.64,2.27-2.39,2.83-4.21,1.69a3.23,3.23,0,0,1-1.09-4.74c2.08-3.41,6.26-3,9.26-4.86C19.73,494,20.46,495.37,20.45,496.47Z" transform="translate(-1 -40.75)"/><path d="M38.1,508.55c1.72,0,2.43.88,1.37,2.12a8.77,8.77,0,0,0-2.2,4.86c-.17,1.55.42,3.63-1.91,4s-3.52-1.58-4.51-3.25a3.61,3.61,0,0,1,1.1-4.89C33.79,510.09,36.08,509.44,38.1,508.55Z" transform="translate(-1 -40.75)"/><path d="M106.23,449.4c-.3,2.08.14,4.88-3,5.19-1.76.18-2-1.58-1.7-2.9.44-2.3,0-5.51,3.05-6C106.21,445.45,106,447.85,106.23,449.4Z" transform="translate(-1 -40.75)"/></g></g></svg>