<svg xmlns="http://www.w3.org/2000/svg" viewBox="0 0 794.79 631.27"><title>0trip</title><g id="Layer_2" data-name="Layer 2"><g id="Layer_1-2" data-name="Layer 1"><path d="M425.28,34q195.48,0,391-.11c5,0,6,1.44,6,6.13q-.18,164.49-.08,329c0,6.76-.06,6.75-6.81,6.75q-178.48,0-357,.05-212.48,0-425,0c-4.72,0-6-1.56-6-6,.13-20.49,0-41,0-61.49q0-130.49,0-261C27.44,34,27.44,34,40.81,34Zm-.79,336.58v0H812.41c6.88,0,7.41-.55,7.41-7.37V46.32c0-6.75-.56-7.32-7-7.32H47c-4.17,0-8.34.13-12.5,0-3.2-.11-4.58,1.56-4.9,4.39a50.2,50.2,0,0,0-.1,5.49q0,157.22,0,314.44c0,6.55.72,7.3,7.05,7.3Z" transform="translate(-27.44 -33.89)"/><path d="M445.34,614.52c0-13.49,0-27,0-40.47,0-6.17.63-6.72,7-6.75,6,0,12-.2,18,0,8.45.33,14.9,3,17,12.87,1.51,7,3,14,1,21.13-.81,2.91-1.64,5.78-4.54,7.45-2.08,1.19-2.55,2.56-.17,4.06,4.6,2.9,5.73,7.56,5.89,12.48.21,6.49.13,13,.08,19.48-.07,10.09-4.1,14-14,15.68-8.32,1.43-16.6.48-24.88,1-4.25.28-5.49-1.55-5.45-5.52.13-13.83.05-27.65.05-41.48Zm24.74,17.26h0c0-3,.13-5.95-.05-8.91-.1-1.71-.89-3.39-3-3.35-2.3,0-2.4,2-2.41,3.62-.05,5.79-.05,11.57,0,17.36,0,1.33-.5,3.19,1.78,3.43s3.38-1.33,3.52-3.25C470.24,637.73,470.08,634.75,470.08,631.78Zm.19-37.84c-.16-2.63.56-5.31-.49-7.87a2.84,2.84,0,0,0-3.12-1.94c-1.32.13-1.44,1.19-1.47,2.2-.16,4.79-.36,9.59-.39,14.38,0,1.3.41,2.79,2.09,2.92s2.43-1,2.89-2.3C470.63,598.93,470.36,596.42,470.27,593.94Z" transform="translate(-27.44 -33.89)"/><path d="M329.32,634.44q0-29.66,0-59.32c0-6.78.85-7.79,7.71-7.78,7.31,0,14.63.2,21.92.71a14.29,14.29,0,0,1,13.16,13.35c.59,6.72,2.08,13.4.43,20.3-.84,3.52-1.31,6.8-4.58,8.92-1.27.83-2.9,2-.89,3.41,6,4.11,5.95,10.58,6.28,16.57.48,8.8,0,17.64.15,26.46,0,3.14-1.06,4.54-4.34,4.47-16.25-.38-13.64,2.3-13.88-13-.1-6.32,0-12.65-.07-19a19,19,0,0,0-.43-4.95c-.51-1.8-.72-4.63-3.28-4.3-2.72.35-1.83,3.12-1.84,5,0,10.32-.2,20.64.11,31,.14,4.31-1.36,5.69-5.44,5.32a40.74,40.74,0,0,0-8.48,0c-4.86.56-6-1.79-5.89-6.11.21-7,.05-14,.05-21Zm20.33-41.24h0c0,2.32-.07,4.65,0,7,0,1.08-.19,2.56,1.33,2.84a2.44,2.44,0,0,0,3-2c.59-4.92,1.07-9.88-.31-14.76-.32-1.15-1-2.19-2.42-2.1-1.66.1-1.53,1.49-1.56,2.6C349.61,588.89,349.65,591.05,349.65,593.2Z" transform="translate(-27.44 -33.89)"/><path d="M612.1,615c0,9.33-.08,18.66,0,28a29.42,29.42,0,0,1-1.55,9.31c-1.63,5.16-5,8.37-10.62,9.29-9.46,1.55-19,.58-28.43.72-3.75.06-4.78-2.57-4.72-5.72.29-14.65.19-29.32,1.14-43.92.78-12,.33-24,.55-36,.17-8.72,0-8.71,9-8.74a88.82,88.82,0,0,1,22.7,2.45c7.83,2,12,7.5,12.18,15.61.17,9.66,0,19.32,0,29Zm-24.35-9.4h-.64c0,11.95,0,23.9,0,35.85,0,1.29-.76,3.34,1.63,3.44,1.8.08,2.61-1.42,2.92-2.91a45.06,45.06,0,0,0,1-7.38c.51-13.77-.75-27.57.7-41.34a12.75,12.75,0,0,0-.72-4.39c-.4-1.5-1.17-3-3-2.72-2,.25-1.92,2-1.93,3.5C587.73,595,587.75,600.27,587.75,605.59Z" transform="translate(-27.44 -33.89)"/><path d="M242.35,617.54q1.34-20.84,2.69-41.67c.39-6,1.27-6.81,7.23-6.84,2.5,0,5,0,7.5,0,6.41,0,6.85.29,6.24,6.82-1.8,19.34-4.11,38.64-5.54,58-.57,7.79-2.09,15.48-2,23.33,0,6.33-.65,6.81-6.82,6.81-6.5,0-13-.13-19.49.06-3.1.09-4.42-.94-4.84-4.08q-5.7-42.68-11.72-85.31c-.44-3.1.63-4.1,3.16-4.2,4.65-.19,9.32-.07,14-.21,3.36-.1,3.8,2.4,4,4.65,1.17,11.91,2.25,23.84,3.17,35.77A11.6,11.6,0,0,0,242.35,617.54Z" transform="translate(-27.44 -33.89)"/><path d="M506.83,616.29c.43-9.49-.72-20,.93-30.41C510.58,568.07,528.69,560,543,570.4c5.5,4,7.73,10.11,7.88,16.51.36,15.29.22,30.6,0,45.91a73,73,0,0,1-1.4,13.26c-2.21,11.27-11.77,18.71-22.42,17.78-12.34-1.08-19.83-8.91-20.23-21.65C506.62,633.9,506.83,625.58,506.83,616.29ZM526,618.06c0,8.7,0,16.36,0,24,0,1.66-.83,4.17,1.86,4.42s3.17-2,3.13-4.12c-.38-18.31,1.84-36.57,1.06-54.88-.08-1.86.15-4-2.41-4.15-2.72-.17-2.32,2-2.62,3.85C525.29,597.8,526.26,608.46,526,618.06Z" transform="translate(-27.44 -33.89)"/><path d="M461,504.34c.77,3.91-.57,8.5-1.45,13-1.56,8-7.15,12.34-14.91,14.35-14.4,3.74-26.26-4.24-27.9-18.86a57.06,57.06,0,0,1-.73-9.94,13.17,13.17,0,0,1,0-2c1.81-8.31,8.37-3.09,12.64-4.25,3-.81,6.12-.18,6,4.34a93.7,93.7,0,0,0,.26,9.48c.13,1.83.53,4,3,3.81,2.11-.16,2.66-2,3.07-4,2-9.57-3.16-15.18-10.36-20.08-14.61-9.95-19.55-30.38-11.94-46.57,3.58-7.61,15.67-11.16,23.9-9.18,14.29,3.44,20.46,14,17.26,28.78a3.41,3.41,0,0,1-3.43,3,110.79,110.79,0,0,1-11.95-.07c-2.42-.17-3.77-1.75-3.55-4.47.18-2.15,0-4.32,0-6.49,0-1.64-.57-3.08-2.4-3.26s-2.58,1.4-2.91,2.85c-1,4.56-.82,8.89,2.54,12.64,2.7,3,6,5.27,9.14,7.7C458.79,484,460.82,487.12,461,504.34Z" transform="translate(-27.44 -33.89)"/><path d="M375.17,487.73c3.06-10.11,2.23-20.62,3.26-30.94.57-5.75,1.9-11.48,1.29-17.34-.23-2.14.95-3.3,3.2-3.61a73.89,73.89,0,0,1,12.44-.72c3.3.1,4.4,1.87,4,4.89-2.73,22.21-5.72,44.4-8.05,66.66-.69,6.59-2,13.14-2.05,19.78,0,3.29-1.53,4.39-4.6,4.34-6.16-.1-12.33-.22-18.48,0-4.37.16-5.85-2.09-6.22-5.93q-3.92-40.92-7.9-81.84c-.76-7.88-.74-7.88,7.57-7.92,1.66,0,3.33,0,5,0,3.91-.15,5.93,1.88,6.26,5.59.92,10.4,2.14,20.8,2.43,31.23C373.48,477.25,375.47,482.29,375.17,487.73Z" transform="translate(-27.44 -33.89)"/><path d="M170.27,640.2q0-31.22,0-62.41c0-6.49.91-7.43,7.51-7.49,6.82,0,13.66.12,20.48,0,3.15-.06,4.71,1,4.46,4.29-.14,2,0,4,0,6,0,8.58,0,8.67-8.5,9.35-2.3.18-3.35.9-3.22,3.27.11,2,0,4,0,6,0,7.77.1,7.24,7.57,8.66,7.68,1.47,3,8.13,4,12.36.77,3.1-.25,5.68-4.37,5.28-1.16-.12-2.34.07-3.5,0-2.75-.09-3.85,1.19-3.75,3.94.13,3.83.13,7.67,0,11.49-.13,3.41,1.35,4.72,4.72,4.85,9.54.39,9.56.48,9.54,10.1,0,10.78.8,9-8.94,9.13-7,.09-14-.07-21,.14-3.38.1-4.38-1.38-4.33-4.47.1-6.83,0-13.66,0-20.49Z" transform="translate(-27.44 -33.89)"/><path d="M279.67,615c0-13.5.09-27-.07-40.49,0-3.79.62-5.22,5.07-5.73,7.5-.85,14.95-.48,22.41-.89,4.26-.24,5.68,1.53,5.39,5.56a69.3,69.3,0,0,0,0,9c.22,3.93-1.54,5.22-5.37,5.19-7.11-.08-7.11.1-7.11,7.41,0,1,0,2,0,3,0,6.78,0,7,6.86,6.85,4-.08,5.51,1.44,5.27,5.24-.09,1.49,0,3,0,4.5,0,7.91,0,8-7.89,8.38-3.25.15-4.52,1.48-4.27,4.63.11,1.32,0,2.66,0,4,0,10.45,0,10.52,10.53,11.52,2.66.26,4,1.38,4.06,4a4.21,4.21,0,0,0,0,.5c1.49,13.53.93,14.22-12.44,14.78-5.15.22-10.32.35-15.48.41-6.11.07-6.7-.51-6.73-6.85,0-13.67,0-27.33,0-41Z" transform="translate(-27.44 -33.89)"/><path d="M409.87,595a162.48,162.48,0,0,1,3.44-23.65c.63-3.1,1.86-4.34,4.92-4.16,2.48.15,5,0,7.48,0,5.63,0,6.26.86,4.75,6.39-4.52,16.49-8.51,33.11-11.82,49.89-2,10.24-.72,20.58-1,30.88-.15,6.92-.09,7.11-6.86,7-12.46-.17-11.8,1.93-11.09-11.09,1.1-20.11-3.39-39.23-8.09-58.44C389.94,585,388.52,578,387,571c-.33-1.49-.48-3,1.16-4s13.29-.73,14.74.3c1.73,1.22,1.8,3.1,1.91,4.92.37,6.29,2.6,12.34,2.44,18.71C407.23,592.3,407.58,593.64,409.87,595Z" transform="translate(-27.44 -33.89)"/><path d="M647.45,595.56c1.19-6.11,2.45-12.21,3.55-18.35,1.16-6.48,1.83-7.1,8.4-6.89,11.62.38,12,.94,8.69,11.82-4.42,14.46-8.28,29.08-11.82,43.78a58.6,58.6,0,0,0-1.14,12.4c-.14,6.32.16,12.61-.38,18.95-.43,5.23-2.84,5.83-7.14,5.47-10.88-.9-11-.79-10.35-11.56a164.49,164.49,0,0,0-5.41-53.27c-2.13-7.85-3.45-15.91-5.34-23.82-.89-3.74.11-5.09,4.07-5.14,11.14-.12,10.83-.18,13.33,10.67C645.14,584.93,643.82,590.59,647.45,595.56Z" transform="translate(-27.44 -33.89)"/><path d="M493.39,493.12c-13.4,0-13.4,0-13.39-13.38,0-7.36,0-7.37,7.45-7.37,5.16,0,10.32.11,15.47,0,3.33-.05,4.92,1.27,4.77,4.74-.16,3.83-.25,7.67,0,11.48.2,3.62-1.52,4.65-4.77,4.52S496.55,493.12,493.39,493.12Z" transform="translate(-27.44 -33.89)"/><path d="M320,493.14c-13.2,0-13,0-13.12-13.08,0-4.69,1.09-6.61,6.07-6.14,5.27.49,10.51-1.09,15.87-.9,3.94.14,6,1.18,5.55,5.46a56.77,56.77,0,0,0,0,6c0,8.6,0,8.6-8.84,8.68Z" transform="translate(-27.44 -33.89)"/><path d="M727.13,238.65c-1.55,2.88.46,3.92,1.63,5.15,2.4,2.54,4,5.47,3.58,8.93s2.37,5.94,2.51,9.45c.36,9.3-3.82,17.26-6.55,25.64-.87,2.68-1.32,5-.2,7.66A34,34,0,0,1,731,308.34c.05,3.26-.59,6.58,1.18,9.75a3.33,3.33,0,0,1-.85,4.52c-1.64,1-2.58-.82-3.81-1.54a34.46,34.46,0,0,1-10.32-9.24c-.62-.81-1.25-1.89-2.33-1.56-6.16,1.9-10-1.75-13.71-5.64-1.66-1.74-2.88-2.61-4.24.54-.63,1.44-2.69,2.33-4.21,3.31-1.26.81-2,3.32-4,1.94-1.73-1.21-1.54-3.75-.7-5,1.82-2.78.64-6.24,2.65-8.91,1.06-1.41,0-3.21-1.12-4-5.94-4.32-8.94-10.39-11-17.17a13.43,13.43,0,0,0-3-5.11c-2.63-2.74-1.21-4.38,1.15-5.95a14.22,14.22,0,0,1,1.83-.79c4.27-2,8.11-3.16,6.25-10.09s3.35-13.15,7.23-18.9c1.66-2.46,4.16-4.34,5.8-6.8,1.77-2.65,4.57-2.11,6.77-2.3a9.59,9.59,0,0,0,7-3.76c1-1.22,2.24-3,4.08-2.22s.93,2.94,1.13,4.5a13,13,0,0,1,0,2.5c-.22,3.8,1.17,5.56,5,3.73,2.17-1,3.54-.49,3,1.8C724.16,234.87,727.78,236.38,727.13,238.65ZM722.55,240c-1.17,3.28-1.8,6.47-5.77,5.62-.65-.14-1.47,0-1.4.89a2.33,2.33,0,0,0,.94,1.54c1.32.89,2.71,2.13,4.41.72C723.32,246.64,724.58,244.13,722.55,240Zm-4-3.16c-.25-1.12.66-3.1-1.53-2.86a2.88,2.88,0,0,0-2.52,3.2c.1,1.22.09,3.14,1.66,3.23C718.43,240.56,718.34,238.47,718.55,236.86Z" transform="translate(-27.44 -33.89)"/><path d="M130.59,240.49c1.58-5.82-2.14-11-1-16.35.33-1.55-.77-3.64.92-4.6s3.32.66,4.4,1.57a17.86,17.86,0,0,0,7.58,3.79c7.66,2,12.22,8.15,15.88,14.83,2.37,4.33,4.89,8.73,3.73,14-1.23,5.57,2.21,8.38,6.38,10.15,3.65,1.54,4,3.24,2.25,6.43-2.94,5.5-4.7,11.58-8.07,16.9-.7,1.11-1,2.67-2.3,3.15-4.67,1.68-3.37,5.44-3.17,8.8,0,.63.55,1.21.75,1.84.9,2.92,1.71,6.92-.19,8.46-1.68,1.36-4.75-1.92-6.65-3.59-2.59-2.28-3.44-3.2-6.52.08-2.75,2.93-6.69,7-12.18,4.45-.95-.44-2.15-.41-2.61.7-2.21,5.32-7.67,6.92-11.6,10.27-2.15,1.85-2.83.76-2.94-1.49A87.48,87.48,0,0,1,118.16,293c1.08-4-.47-7.49-1.88-10.52-4.52-9.67-3.12-19.69-2.54-29.59.19-3.32,1.24-7.21,4.32-9.71a5.88,5.88,0,0,0,2-4.88c0-1.48-.18-3.14.42-4.38.84-1.77.9-4.82,3.84-4.47,2.7.33,3,2.8,3,5C127.28,237,128.38,238.78,130.59,240.49ZM137,278.76c-.31.28-.93.64-.89.85,1.06,4.81,1.89,9.6,1,14.56-.18,1,.91,1.24,1.76,1.2.62,0,1.61-.22,1.37-1C138.64,289.32,141.67,283.33,137,278.76Zm-14.18-36.27c-1,1.31.22,2.1.86,2.89,1.13,1.37,2.32,2.86,4.43,2.47a1.37,1.37,0,0,0,.89-1c0-2.23-2.22-2-3.4-2.94C124.78,243.33,124.33,241.81,122.78,242.49Z" transform="translate(-27.44 -33.89)"/><path d="M72.85,102.39c1-3.25,2.52-5.48,5.68-6C81.26,95.87,84,96,86,97.88c2.21,2,2,4.79.92,7.42-2,4.83-.86,9.43.85,14,.31.84.87,1.56,1.77,1.41a2,2,0,0,0,1.27-1.28c.85-3.64,2.63-7.17.84-11.11-.65-1.43-.51-3.24-.66-4.87-.24-2.59-.19-5.35,2.67-6.34,3.15-1.09,6.64-1.49,9.59.56,2.56,1.78,2.64,5,1.63,7.31-5,11.72-4.54,24.06-5.32,36.4a47.15,47.15,0,0,0,2.15,19c2.5,7.41-1.72,13.06-9.07,12.77-9.9-.38-12.74-3.84-9.39-14.33,2.59-8.1,0-15.72-.7-23.55a1.52,1.52,0,0,0-1.66-1.49c-1.14.05-1.22,1-1.26,1.8-.29,6.07-2.71,11.84-2.11,18.11.36,3.64,2.57,6.67,2.2,10.58-.57,6.08-2.83,8.79-8.8,8.8-1.5,0-3,0-4.49,0-8,0-11.69-5.79-8.11-13.19A16.79,16.79,0,0,0,60,152.2c-.09-8.49,0-17-.05-25.47-.06-6.28-.46-12.45-4.11-18C54.09,106,55.73,98.58,58,97.08s9.43-.39,11.62,1.8C70.52,99.81,71.39,100.81,72.85,102.39Zm-2.92,10.54c-.72,3.42.6,6.69,3.3,9.39.81.81,1.91.28,2.47-.7,1.94-3.4,3.23-6.87,1.09-10.71-1.23-2.21-2.1-6.17-4.39-5.73C69.35,105.76,69.84,109.64,69.93,112.93Z" transform="translate(-27.44 -33.89)"/><path d="M412.39,138.75c-1.4,6.1.63,11.83,2,17.63,1.11,4.55,2.87,9.07.62,13.81-.44.92-.69,2.15-1.7,2.29-5.22.71-10.66,1.83-15.59-.52-3.5-1.66-4.59-7.9-3.07-13.09,1.78-6.05,3.18-12.21,2.59-18.52-.7-7.54,3.5-14.44,2.37-22-.42-2.8-.28-5.61-2-8-2.14-3-1.68-6.35-1.48-9.66a4.26,4.26,0,0,1,3.38-3.86c7.35-2.26,14,1.52,15.55,9,1.23,5.81,2.25,11.66,3.5,17.47.53,2.46.59,6.64,3.27,6.35,3.36-.36,1.92-4.54,1.56-6.74a54.51,54.51,0,0,0-4.65-15.6c-3-6,0-10.56,6.59-10.65,9.63-.12,12,3.92,8.11,12.65s-2.65,17.87-2,26.94c.65,8.84,3.5,17.41,3.27,26.38-.09,3.45-2,6.29-3.26,9.18-1.12,2.58-4.47,1.81-6.47,0a15.78,15.78,0,0,1-5-8.93c-1.43-7.42-4.31-14.5-5.31-22A2,2,0,0,0,412.39,138.75Z" transform="translate(-27.44 -33.89)"/><path d="M126,147c-1.11,5.35,1.43,11.64,1.25,18.11-.21,7.25-.84,7.92-8,7.9-2.16,0-4.34.11-6.49-.07-3.46-.29-5.44-2.21-5.65-5.76a45.51,45.51,0,0,1,2.45-17,6.05,6.05,0,0,0,.62-2.36c-1.19-9.19,2.26-18,1.9-27.18-.19-4.83-.17-9.42-2.87-13.89s.76-9.6,5.92-10.21c9.38-1.11,12.31,2.73,9.41,11.86-1,3-3.62,6.39.48,9.43,1.35,1,2.31,2.52,4.24,1.77a4.81,4.81,0,0,0,3.12-4.16,13.62,13.62,0,0,0-1.64-8.67c-2.07-3.48-.51-6.33,1.55-8.52,3-3.18,7.23-2.11,10.82-1.19,3.16.8,2.66,4,2.93,6.71.39,3.8-1.16,7.25-2,10.69-2.25,9.65.91,19,.52,28.56-.25,6.17,2.22,12.33,4.34,18.31s.67,8.48-5.46,10.83a13.82,13.82,0,0,1-4.84.93c-7.82.15-11.14-3.43-8.51-10.88,3.14-8.87-.35-17.59.79-26.33a2.9,2.9,0,0,0-2.89-3.37c-2,0-2,1.86-2,3.36C126,139.2,126,142.53,126,147Z" transform="translate(-27.44 -33.89)"/><path d="M631.68,255.82c1.08-8,1.69-15.87-3.35-22.94-2.17-3.06.45-9.56,4-10.1a22.3,22.3,0,0,1,7.47.05c4.56.88,6.18,4.68,4.16,9.24-4.93,11.14-3.24,22.64-2,34.12a23.38,23.38,0,0,1,.43,2.43c0,8.5,0,17-.07,25.5,0,2.21-.31,4.49-3.16,4.84-2.38.3-4.21,0-5.55-2.76A98.29,98.29,0,0,1,625.28,270a8.3,8.3,0,0,0-.78-2.84c-.7-1.18-1-3.47-2.89-2.78s-.31,2.49-.36,3.81c-.34,8.56,5.51,15.82,4.87,24.47-.32,4.29-1.86,6.58-6.36,6.36-1.83-.08-3.66,0-5.5,0-8.14,0-9.14-.72-11-8-.61-2.33,1.24-4.1,2-5.83,2.48-5.87,2-12.12,2.5-18,1-11.4,3.3-23.17-1.73-34.32a6.56,6.56,0,0,1,1.25-7.82c2.95-2.92,7-3,10.76-1.92,5.54,1.63,6.47,7,7.92,11.51C628.13,241.56,628.09,249.17,631.68,255.82Z" transform="translate(-27.44 -33.89)"/><path d="M682.79,122a24,24,0,0,0-2.34-12.53c-1.56-3.18-1.86-7.05.82-10.33,2.94-3.59,7-3.1,10.59-2.28,3.19.72,4.6,4.14,5.45,7.09,2.24,7.74,4.15,15.58,6.15,23.39.28,1.06-.08,2.62,1.65,2.5,1.37-.09,1.95-1.27,1.93-2.52-.09-6.22-.7-12.58-4.3-17.66-3-4.2-1.46-7.52.19-11,1.83-3.91,5.56-1.67,8.43-2,3.52-.38,5.32,2.31,6.81,4.91.78,1.36.06,2.85-.51,4.3-3.25,8.27-5.46,16.84-3.89,25.73a173.45,173.45,0,0,1,3.1,31.41,16.3,16.3,0,0,1-1.47,6.7c-.91,2.06-1.95,3.35-4.33,3.36s-3.27-1.56-4.47-3.3c-4.67-6.78-5.26-14.77-6.93-22.42a20.43,20.43,0,0,0-1.84-5.05c-.7-1.36.06-4.27-2.05-3.92-2.64.45-1.75,3.65-1.28,5,1.87,5.44,1,11.35,4,16.7,4,7.19.14,13-7.9,13a19.33,19.33,0,0,0-3.49,0c-9.27,1.76-12.39-7.76-8.42-14,2.16-3.39,1.94-7.91,1.94-11.53C680.64,138.9,682.79,130.52,682.79,122Z" transform="translate(-27.44 -33.89)"/><path d="M599.93,96.52c14.93,0,21.4,10.6,14.58,24.11-2.34,4.62-3.54,8.5,1.09,12.87,3,2.87,3.68,7.48,4.86,11.69,1.93,6.91.51,14.53,4.92,20.95a4.7,4.7,0,0,1-1.41,7c-3.06,1.9-5.77,3.75-9.37.65-4.22-3.65-6.3-8.28-6-13.48.47-7.06-1.86-13.74-1.82-20.69,0-1.64-.63-3.75-2.77-3.37-2.39.42-1,2.39-1.11,4-.35,8.55,3.36,16.44,3.78,24.8.26,5.17-2.77,8-7.85,8.1-2,0-4,.06-6-.05-6.37-.33-9.7-4.68-7.9-10.83,3.14-10.67,4-21.56,5-32.59.72-8-.37-15.13-1.89-22.75-1.41-7.09-1.24-10.94,8.3-10.35C597.6,96.58,598.77,96.52,599.93,96.52ZM605,115.34h-.05c0-1.32.06-2.64,0-4s.5-3.55-1.63-3.45-2.63,2.26-2.46,4.15a30,30,0,0,0,1,5.3c.39,1.44-1.18,4,1.12,4.15,2.5.16,1.89-2.5,2-4.2C605,116.67,605,116,605,115.34Z" transform="translate(-27.44 -33.89)"/><path d="M257.21,282.26c1.11-5.25-2.78-10.82-2.56-17,0-1.25-.64-4.24-3.1-3.54-2,.57-2.29,3.27-1.54,4.77,3.07,6.07,1.72,13,4.18,19.22,2.81,7.1.1,14.57-9.67,13.27-3-.41-6.34,1.08-9.09-1.44-4-3.69-3.59-8.49-1.72-12.43,3.18-6.7,2.77-13.88,3.72-20.78,1-7.68.22-15.63.21-23.45,0-3,0-5.69-2.24-8.35-2.49-3-.14-8.36,4.11-9.23a45.61,45.61,0,0,1,17.27.06c5.48,1,8.62,8.86,8.26,14-.3,4.24-.92,8.77-3.62,12.61-2,2.89-2.08,5.5,1.42,8,4.52,3.26,4.76,8.88,5.56,13.81,1.2,7.31,1.69,14.74,5.1,21.52.78,1.56,1.41,3.74-.07,4.6-2.63,1.53-5.62,3.07-8.87,2.2-5.46-1.45-6.29-6.31-7.28-10.81C256.86,287.34,257.21,285.27,257.21,282.26Zm-8.73-43c0,3.26-.31,7.89,2.58,7.82,3.57-.08,2.41-4.69,2.4-7.49,0-2.32.61-6-2.65-6C247.31,233.63,249.05,237.44,248.48,239.24Z" transform="translate(-27.44 -33.89)"/><path d="M721.81,134.52c1-9.93,1.52-20,6.21-29.15,1.72-3.37,4.41-5.78,7.18-8.18s5.88-.91,8.9-.72c9.45.58,9.49.53,9.41,10.46,0,3.57.84,7.32-2.42,10.27-2,1.79-3.33,2-4.63-.48-.61-1.18-1.3-2.32-1.79-3.55-.61-1.56.17-4-2.61-4.1-2.42-.12-3.4,1.63-4.37,3.47-3.17,6-1.89,12.38-1.16,18.49.38,3.1,4.22,5,7.36,5.06,3.47.11,2.45-3.26,1.8-4.88-1-2.43-1.9-4.39,1.12-5.74,3.2-1.43,6.3-4.46,10.05-1.3,2.47,2.09,1.77,4.66.9,7.3-1.88,5.68-1.55,11.75-.61,17.29,1.9,11.09-5,16.91-11.86,22.9-4.36,3.8-12.66,1.43-16.15-4.6-3.15-5.44-5.79-11.06-5.78-17.75C723.37,144.42,721,139.65,721.81,134.52Z" transform="translate(-27.44 -33.89)"/><path d="M506.41,222.67c2,0,4-.11,6,0,3.83.23,5.83,2.36,7.48,5.89,2.76,5.94,1.73,11.31-.73,16.81-.87,2-.68,3.51.7,5.47,6.74,9.54,9.85,19.75,6.62,31.68-1.26,4.65-2.94,8.62-6.14,12-5.47,5.74-19.66,6.46-25.8,1.51-3.77-3-4.83-6.79-2.5-11a27.2,27.2,0,0,0,3.7-12.56c.16-10.29,3.09-20.36,2-30.69a17.39,17.39,0,0,0-1-4.33C491.62,223.41,495.17,222.17,506.41,222.67Zm7.1,42.86V262c0-2.18-.76-4.31-3.07-4.35-2.8,0-1.73,2.58-1.93,4.19a11.73,11.73,0,0,0,0,3c.31,2.53-1.29,6.73,2.67,6.69C514.72,271.43,513,267.29,513.51,265.53Zm-5.05-27c.44,1.78-1.1,4.8,1.19,5.13s2.24-2.64,2.21-4.51.49-5.15-2.1-5.19C507.48,233.87,509,236.87,508.46,238.48Z" transform="translate(-27.44 -33.89)"/><path d="M439.89,134.58c-2.08-13.25,2.28-25,9.53-35.92,2-3.06,5-4.27,8.48-3,2.15.8,4.49,1.53,6.26.56,3.92-2.15,5,.74,5.4,3.07.81,5.51,1.89,11.18-1.06,16.51-.63,1.12-.83,2.82-2.54,2.66s-2.55-1.58-3.26-2.84c-.63-1.11-.57-2.6-1.15-3.76a4.68,4.68,0,0,0-4.34-2.87c-2.13,0-2.73,1.8-3.11,3.39-1.38,5.87-4.27,11.71-.66,17.76a11.94,11.94,0,0,0,2.3,3.21c1.74,1.42,3.77,3.51,6.08,2.27,2.55-1.36,1.65-3.81.73-6.15s-.87-4.75,2.84-4.49c1.43.1,2.45-.65,3.58-1.42,1.92-1.31,3.86-.8,5.43.75s2.27,3.32.51,5.24c-1.5,1.63-1.41,3.64-1.41,5.65,0,6.82,0,13.64,0,20.46,0,3.22.25,6.23-3.73,7.76-2.12.81-2.43,3.71-4,5.49-6.14,7.11-15.51,5.29-19.87-3.06C440.85,156.09,438.37,145.8,439.89,134.58Z" transform="translate(-27.44 -33.89)"/><path d="M389.12,141.38a62.67,62.67,0,0,1-1.57,19.72c-1.1,5-9.22,13.7-14.22,14.2s-8.81-2.27-11.09-6.22c-4.71-8.15-6.53-17.26-6.94-26.59-.59-13.37,1.25-26.42,6.58-38.77,3.43-7.94,12.7-10.9,17.58-5.62,3.27,3.53,5.16,8.34,6.18,12.88C387.86,120.94,390.26,131,389.12,141.38Zm-11.33-11.75c.51-6.39-2.87-12.51-4.09-19.08-.23-1.23-1-2.66-2.68-2.42-1.29.18-1.78,1.32-2.28,2.42-3.84,8.5-.85,16.84.78,25.14.45,2.27,1.89,5.19,5,4.51,2.9-.62,3.32-3.37,3.23-6C377.75,132.83,377.79,131.5,377.79,129.63Z" transform="translate(-27.44 -33.89)"/><path d="M268.58,148.77c-.67,4.23.7,8.31,2.35,12.32s.9,7.56-2.25,10.44c-2.18,2-10.08,2.26-12.42.52-3.75-2.8-3.3-6.69-2.13-10.42,1.8-5.74,5.05-10.89,6.75-16.76,1.2-4.16,1.6-8.4,2.38-12.56.88-4.65.44-9.47,1.85-14.21,1.47-4.93-1.59-9.59-2.41-14.42-.19-1.15-.9-2.37,0-3.27a17.27,17.27,0,0,1,11.47-5.29c4-.18,6.56,3,7.79,6.08,2.51,6.4,3.15,13.3,4.34,20.08,2.14,12.18,2.53,24.91,8.74,36.19,1.89,3.42.5,10.44-2.17,13s-10.54,3.57-13.73,1.76c-4.13-2.35-5.91-11.06-3.22-15.64,2.83-4.82,1.43-10,.95-15-.21-2.21-2.6-2.83-4.76-2.66a3.53,3.53,0,0,0-3.5,3.56C268.46,144.55,268.58,146.55,268.58,148.77Zm1.33-27.44c.86,1.13-1.26,4.22,2.31,4.08,2.68-.12,2.85-2.26,2.75-4.39s-.29-5-3-4.86S270.21,119.14,269.91,121.33Z" transform="translate(-27.44 -33.89)"/><path d="M644.68,147.79c-.26,4.49,1.4,8.44,3.4,12.32,2.1,4.06,1.1,8.36-2.58,11.58-2.1,1.83-9.62,2.06-11.85.22-4.09-3.37-3.66-8.21-1.85-11.87a99.52,99.52,0,0,0,8.48-26.22,19.87,19.87,0,0,0,.69-5.38c-.74-8.25,2.35-16.71-1.31-24.84a3.82,3.82,0,0,1,.46-2.86c2.36-4.37,6.88-4.86,11-5.58,3.73-.65,6.05,2,7.23,5a74.78,74.78,0,0,1,5.18,20.53c1,10.81,2.34,21.66,6.54,31.76,1.92,4.6,2.85,9,2,13.87-.54,3.27-5.4,6.48-10.26,6.74-4.58.25-8.11-1.38-8.88-6.07s-1-9.24,1.67-13.9c1.73-3,1-7.2.16-10.77-.63-2.62-3-3.17-5.51-3.37-2.72-.23-3.32,1.6-4.17,3.42S644.75,146,644.68,147.79Zm3-27.29c.6,1.64-1.12,4.36,1.87,4.86a2.67,2.67,0,0,0,3.26-2.89c-.15-2.48-1-5.65-3.08-6.15C647.19,115.7,648.2,118.89,647.64,120.5Z" transform="translate(-27.44 -33.89)"/><path d="M195.84,162.31c1.24,5.48-1.65,8.5-6.46,10.09-4.15,1.36-8.34,1.45-11.49-2.13s-3.65-7.78-1.36-12.41c1.8-3.66,3.14-7.63,2.77-11.93-.31-3.57-3.48-7.36-6.41-6.88-3.66.6-4.23,3.69-4.39,6.77-.2,3.82-.27,7.59,2.1,11s1.53,7.44,1.23,11.16c-.28,3.42-5.31,5.63-10.68,5.06-3.84-.41-6.58-1.77-6.33-6.52A25.28,25.28,0,0,1,157.89,155c3.05-5.58,4.4-12.32,5.41-18.73,1.21-7.63,2.73-15.33,1.87-23.18-.22-2,0-3.9-.84-5.85-2.24-5.15-.39-8,4-10.21,5.94-3.06,11.3-1.65,14,2.66,2.21,3.47,2.9,7.6,3.29,11.3.51,4.92.77,10.1,2,14.7,2.47,9.43,2.21,19.53,6.78,28.43A12.35,12.35,0,0,1,195.84,162.31ZM177.28,122.6c-2.27-1.52-1-5.94-3.42-6.21s-3.06,3.36-3.44,5.64a2.75,2.75,0,0,0,3.14,3.41C175.06,125.29,176.82,124.88,177.28,122.6Z" transform="translate(-27.44 -33.89)"/><path d="M786,118c0,3.19.31,5.38-.08,7.45-.43,2.35-.8,5.54-4.64,2.64-2.28-1.72-3.24-.14-3.51,2a16.13,16.13,0,0,0,2.59,11c2.59,4,6,4.16,10.32-.18,2.08-2.1,3.32-1.12,3.38.5.34,9.5,2.47,19.1-1.21,28.47-.94,2.4-2.4,3.26-4.9,3.22-7-.11-14,0-21-.09-4.58-.09-5.86-2.25-4.14-6.47A55.92,55.92,0,0,0,767.15,145c0-7.83,0-15.65,0-23.47,0-4.94.08-9.67-2.68-14.36-3-5.07.39-10.13,6.25-10.61,5.25-.42,10.46.11,15.8-1.16,4.37-1,5.31,4,5.85,7.13.69,4,.13,8.29.09,12.45,0,1.4-.27,2.77-2.05,2.86a2.49,2.49,0,0,1-2.85-2.23,8.07,8.07,0,0,0-3.24-5.4c-1.7-1.38-3.81-1.94-5.52-.63a4.07,4.07,0,0,0-.62,5.48C779.88,117.42,780.88,122.09,786,118Z" transform="translate(-27.44 -33.89)"/><path d="M544.8,299c-3.34,0-6.69-.23-10,.06-3.78.33-4.85-2.11-3.63-4.5,3.51-6.88,3.11-14.49,4.46-21.7,1.3-6.93.24-14.28.45-21.44a51.22,51.22,0,0,0-2.73-19.55c-2-5.45.93-8.93,6.77-9.24,4.88-.25,9.92,1.21,14.6-1.75,2-1.3,3.78.41,4.93,2.2,3.3,5.14,2.62,10.84,2.06,16.45a3.18,3.18,0,0,1-2.76,3.14c-1.91.18-1.79-1.66-2.55-2.62s-1.15-2.23-2.07-2.76c-2.22-1.28-4.6-3.67-7.23-2.11-2.19,1.3-1,3.85-.31,5.9.91,2.88,2.29,4.92,5.77,3.43,1.73-.74,2.53-.07,2.54,1.7a27.58,27.58,0,0,1-.2,6c-.33,1.52-1.16,3.49-2.37,4.13-1.77.94-2.23-1.31-3-2.48a2,2,0,0,0-2.1-1,1.51,1.51,0,0,0-1.36,1.75c0,2.83-.38,5.77.26,8.45,1.28,5.3,7.51,8.22,12.15,5.22,3.7-2.39,4.36,0,4.58,2.11.68,6.43,1,12.92-.2,19.36a32.85,32.85,0,0,0-.84,3.86c-.24,4-2.44,5.53-6.24,5.44s-7.33,0-11,0Z" transform="translate(-27.44 -33.89)"/><path d="M590.9,244.12c-.12,4,1.15,8.06-2,11.36-1.88-.29-2-3.61-4.46-2.39-2.23,1.12-2.2,3.45-1.84,5.28,1.77,9.11,4.28,13.71,13.24,8.95,2.24-1.19,3.37-.37,3.32,1.7-.2,8.75,1.41,17.6-1.4,26.24-.87,2.67-2.38,3.77-5.08,3.75-6.66-.06-13.32.1-20-.07-5-.12-6.55-3-4.59-7.66a46.3,46.3,0,0,0,3.75-17.23c.16-8.82,0-17.65,0-26.47,0-5.33,0-10.46-2.54-15.53-2.38-4.83,1.06-9.1,6.56-9.45,5-.33,10.16,1.21,15.08-1.69,1.87-1.1,4,.52,5.11,2.8,2.77,5.57,1.4,11.44,1.52,17.19a1.77,1.77,0,0,1-1.92,1.86,2.48,2.48,0,0,1-2.59-1.07,23.9,23.9,0,0,1-1.84-3.5c-1.19-3.49-3.88-4.09-6.81-3.23s-2.23,3.59-1.48,5.46c1,2.65,2.08,6.14,6.36,3.9A5.41,5.41,0,0,1,590.9,244.12Z" transform="translate(-27.44 -33.89)"/><path d="M518.56,151.13c0-1.48,0-3.31,0-5.14a3.69,3.69,0,0,1,2.48-3.42c1.4-.61,2,.54,2.71,1.51,1.6,2.19,3.9,1.68,5.91,1,2.16-.69,1.15-2.81,1.31-4.34a12.25,12.25,0,0,0-3.15-9.63,26.56,26.56,0,0,1-.18-33.34c1.46-1.8,5.07-2.43,7.73-2.54,6.7-.28,9.82,2.19,11.44,8.77a17.31,17.31,0,0,1-.48,11.2c-1.39,3.31-3.15,2.75-4.51.37a18.6,18.6,0,0,1-2.69-6.87,3.17,3.17,0,0,0-3.56-2.82c-1.88.22-2.6,1.76-2.82,3.59-.36,2.92,1,4.9,2.81,7.06,3.84,4.46,9.47,7.4,11.23,13.65,2,7.18,4.19,14.56,2.48,21.85-1.4,6-1.26,12.7-6.68,17.53-6.27,5.57-14.38,4.59-19.49-2.38A23.68,23.68,0,0,1,518.56,151.13Z" transform="translate(-27.44 -33.89)"/><path d="M465.07,233.91c0,2-.05,2.82,0,3.65.16,2.35-.29,4.62-2.91,5-2.88.46-3.36-1.7-3.72-4.1s-1-5.12-4.11-5.47a3.69,3.69,0,0,0-4,2.4c-1.12,2.63.19,4.43,1.94,6.17,2.6,2.57,5.09,5.26,7.71,7.8,4.81,4.65,6.66,10.49,7.06,16.94.58,9.36.08,18.49-4.92,26.86-2.31,3.86-5.21,6-10,5.92s-8.57-.91-11.21-5.51a37.62,37.62,0,0,1-4.84-18.71c-.07-4.79,1.89-6.14,6.47-5,1.92.47,3.92,1.27,5.36-1,1.23-1.92,1.64-3.7.33-6-2.31-4-4.16-8.31-6.28-12.45-4.27-8.33-3.08-19.76,2.67-25.39,3.71-3.64,7.14-4.46,12.71-2.53C464.3,225,465.52,229,465.07,233.91Z" transform="translate(-27.44 -33.89)"/><path d="M337.3,242.44c.17,5.89-.1,11.58-5.22,15.81a9.72,9.72,0,0,1-5.7,2.49c-3.81.36-4.5,2.8-3.63,6.39a231.77,231.77,0,0,1,4.71,24c.62,4.68-2.82,7.65-7.59,7.81-1.83.06-3.66,0-5.49,0-8.1,0-12.74-6.39-8.76-13.29s3.19-14.4,4.1-21.6c1-7.69.24-15.6.23-23.42,0-2.93.21-5.67-2.17-8.31s-.13-7.24,1.7-7.72c5.5-1.45,10.36-5.2,17.17-2.76,8.07,2.88,9.28,9,10.61,15.58A25.08,25.08,0,0,1,337.3,242.44Zm-17.09-2.16c0,1.15-.07,2.31,0,3.46.13,1.71-.36,4.14,2.32,4,2.18-.1,2.7-2.16,2.7-4.08,0-2.47-.07-4.94-.19-7.41-.1-1.94-1.26-3.18-3.15-3-1.7.13-1.62,1.8-1.67,3.1S320.21,239,320.21,240.28Z" transform="translate(-27.44 -33.89)"/><path d="M387.68,236.18a25.27,25.27,0,0,1,0-4c.49-2.94.76-6,1.88-8.71,1.88-4.53,5.13-.43,7.74-.67,4.3-.41,8.66-.12,13-.16,2.94,0,4.69,1,4.87,4.3.26,4.72,3.15,9.3.82,14.13-.65,1.35-.37,3.8-2.72,3.56-1.82-.19-2.62-1.88-3-3.61-.27-1.43-.19-3.59-2.13-3.28s-1.25,2.61-1,3.83c2,9.9.49,20.06,2.67,30C411,276.73,412,281.9,413.25,287c1.63,6.57-2.52,11.89-9.15,12-1.17,0-2.34,0-3.5,0-8.43.62-11.29-5.79-9.16-12.48a100.75,100.75,0,0,0,4.47-34.22c-.13-3.94,1.54-7.46,1.49-11.28,0-1.12.19-2.59-1.41-2.74-1.19-.12-1.42,1.13-1.83,2-.48,1.06-1.12,2-1.65,3.08a2.48,2.48,0,0,1-2.92,1.35c-1.43-.26-1.8-1.35-1.83-2.59,0-2,0-4,0-6Z" transform="translate(-27.44 -33.89)"/><path d="M215.62,96.52h4c8.63,0,10.06,1.1,11.24,9.51.41,2.94.08,6,.07,9a4.05,4.05,0,0,1-3.43,4.3c-2.12.22-3.43-1.67-3.84-3.83-.15-.81-.19-1.65-.38-2.46s-.62-1.64-1.61-1.62c-1.24,0-1.66,1-1.71,2,0,1.32-.42,3,.2,3.92,2.92,4.44,1.89,9.34,1.9,14.06,0,9.45,2.26,18.47,5.14,27.3s-.73,14.36-10.15,14.33c-11.29,0-14.77-5.74-9.74-16.13,2.55-5.26,1.2-11,2.44-16.54,1.5-6.64-.75-13.84,2-20.6.63-1.55.11-3.62-.09-5.43a1.76,1.76,0,0,0-1.5-1.74c-1-.07-1.37.72-1.55,1.59a12.42,12.42,0,0,1-.66,2.89c-.59,1.2-1.51,2.33-3,2.22a2.87,2.87,0,0,1-2.55-2.72c-.72-6.29-.67-12.57,1.36-18.69.48-1.45,1.77-1.32,2.91-1.33,3,0,6,0,9,0Z" transform="translate(-27.44 -33.89)"/><path d="M573.52,111.27c.73,7.18-1.86,13.4,1.9,19.25,1,1.49.58,3.25.56,4.89-.1,8.62.64,17,4.21,25.08,3,6.79-1.33,12.52-8.73,12.57-.67,0-1.34-.05-2,0-11.7,1.11-12.48-4.32-10.06-14.94,1.22-5.33,2.14-10.55,2.87-16,1.13-8.44,1.12-16.85,1.29-25.29,0-1.58,0-3.17,0-5-.87.34-1.34.4-1.38.55-.7,3.29-2.43,6.88-5.64,6.44-1.86-.26-3.07-4.85-2.87-7.68a34.15,34.15,0,0,1,3.58-13.3c1-1.88,2.29-1.76,4.13-1.64,5.13.32,10.31.72,15.41-.23,4.37-.82,4.49,3,5.24,5.26.91,2.75,1.18,5.7,2.32,8.52,1.39,3.4-1.42,6-3.34,8.34-1.34,1.65-2.76-.16-3.47-1.35C576.64,115.32,576.43,113.37,573.52,111.27Z" transform="translate(-27.44 -33.89)"/><path d="M221.92,237.61c1.18,8.18-2,16.11,2.37,23.55a5.07,5.07,0,0,1,.33,2.94c-.85,8.11,1.74,15.71,3.47,23.41S227,299,219.49,299a27.67,27.67,0,0,0-5,0c-5.69,1-7.1-3-7.77-7.75s1.35-9.1,2.2-13.56A79.32,79.32,0,0,0,210,269c.71-9.05,2.65-18,1.81-27.16-.13-1.37.8-3-.83-4.11-1.67.77-.94,2.77-2,3.78-1.28,1.19-2.05,3.6-4.12,3.07-1.85-.48-2.39-2.73-2.68-4.46-1-6.17,1-11.78,3.56-17.26.59-1.26,1.32-1.62,2.76-1.16,5.5,1.78,11.1,1.41,16.66.26,1.75-.36,3.16-.06,3.78,1.48,2.41,6,4,12.12,1.62,18.53a3.53,3.53,0,0,1-3.07,2.27c-1.74.17-2-1.39-2.74-2.43S224.22,238.82,221.92,237.61Z" transform="translate(-27.44 -33.89)"/><path d="M335.21,173.07a35.55,35.55,0,0,0-4.5,0c-10.55,1.34-12-7.45-9.63-14.93,1-3.13,2.42-6.41,2.24-9.54-.57-9.84,3-19.36,1.89-29.16-.48-4.24-1.21-8.6-3.26-12.34s-.56-6.85,1.52-9.07c2.88-3.07,7.28-1.78,10.89-1.12,3,.56,3.41,4.19,4.76,6.6.18.32-.09,1-.26,1.41-5.35,13.48-3,27.25-1.52,41,.45,4.26,2.31,3.86,4.78,1.45l.35-.35c5.32-5.12,7.45-4.71,9.18,2.34,1.68,6.84-.77,13.43-2.5,19.91-.62,2.29-3.07,3.85-5.95,3.76-2.67-.08-5.33,0-8,0Z" transform="translate(-27.44 -33.89)"/><path d="M370.85,299c-10.42-.05-14.05-5.91-9.26-15.27,1.41-2.76,1.66-5.56,2.07-8.54,1.44-10.59,1.17-21.19,1.28-31.81a33.56,33.56,0,0,0-1.33-9.81c-2.29-7.95.21-11.11,8.41-10.9,6.57.18,9,4.29,7.15,10.77-1.74,6.14-3.47,12.43-1.6,19a14.64,14.64,0,0,1,.12,4c0,10.28.79,20.36,4.56,30.13C384.92,293.41,379.51,299,370.85,299Z" transform="translate(-27.44 -33.89)"/><path d="M289.11,299c-1.67,0-3.34-.1-5,0-3,.23-4.29-1.47-4.52-4.09-.61-7,1-13.77,2.23-20.57.11-.64.64-1.28.57-1.87-1-8.51,1.44-16.7,2.35-25,.59-5.5-1.52-10.31-3.18-15.26-1.11-3.29-1.09-6.46,2.24-8.31a11.18,11.18,0,0,1,11.38-.05c3.2,1.91,3,5.39,1.73,8.53-4.19,10.12-3.11,20.41-1.24,30.77a24.33,24.33,0,0,1,.3,5.46,30.75,30.75,0,0,0,3.28,15.33c1.74,3.59,1.08,7.87.33,11.77-.46,2.37-2.49,3.35-5,3.24-1.82-.09-3.66,0-5.49,0Z" transform="translate(-27.44 -33.89)"/><path d="M432.58,233a57.86,57.86,0,0,1-6.39,25c-.65,1.21-1.13,2.52-2.88,2s-2.34-1.65-1.82-3.44c.24-.79,0-1.77.37-2.44,3.21-5.81.88-11.08-.95-16.69-2-6.2-1.74-12.4,3.1-17.7,2.6-2.85,4.47-2.3,6.11.72A20.41,20.41,0,0,1,432.58,233Z" transform="translate(-27.44 -33.89)"/><path d="M492.46,168.38c.27,7-.53,13.75-4.54,19.86-1.15,1.75-2,3.16-4.15,2s-1.22-2.59-.59-4.25a18.6,18.6,0,0,0-.39-15.33c-2.51-5.14-2.69-10.22.14-15.22,2.26-4,5.65-3.8,7.93.25S492.26,164.12,492.46,168.38Z" transform="translate(-27.44 -33.89)"/></g></g></svg>