<svg xmlns="http://www.w3.org/2000/svg" viewBox="0 0 888.78 688.93"><title>33</title><g id="Layer_2" data-name="Layer 2"><g id="Layer_1-2" data-name="Layer 1"><path d="M897,281c-4.14,6.3-11.12,9.4-16.24,14.52-3.18,3.18-5.4,7.5-7.42,11.61-1.74,3.55-4.17,4.23-8,3.59,3.57-4.22,7.7-7.78,10-12.29,1.31-2.61-.4-6.74-.77-10.39,3.32-.29,6.71-.4,10-1,2.1-.35,4.37-1.23,4.34-4s-2.39-2.08-4.07-2.42c-2.94-.6-5.2-2.88-9.28-3.08,4-2.79,7.74-4.07,10.59-1.78,3.75,3,7.07,2.57,10.89,1.18Z" transform="translate(-8.22 -54.92)"/><path d="M551.5,178.87c0,4.83-.23,9.68.07,14.49a15.19,15.19,0,0,1-3.86,11.39c-6.62,7.82-13.06,15.81-19.51,23.77a9.16,9.16,0,0,1-8.09,3.74c-9.32-.29-18.66-.13-28,0-3.28,0-5.4-1.09-7.32-4-5.12-7.7-10.68-15.13-16.15-22.6a16.94,16.94,0,0,1-3.77-11c.27-8.16.33-16.34,0-24.49-.23-5.23,1.7-9.18,4.75-13.18s7.63-6.88,8.39-12c.83-5.52-4.52-8.1-7.39-11.63a23.78,23.78,0,0,1-5.78-17.78,219.09,219.09,0,0,0,.05-22.49A14.67,14.67,0,0,1,468,83.44c5.58-7.64,11.07-15.36,16.26-23.26A10.7,10.7,0,0,1,493.75,55c8.83-.1,17.67.15,26.5-.08,5.69-.15,8,4.31,10.92,7.59,5.74,6.36,11,13.15,16.51,19.72a15.13,15.13,0,0,1,3.91,10.9c-.33,8-.21,16,0,24,.08,3.58-1.07,5.2-4.84,5.12-7-.17-14-.14-21,0-3.64.07-5.13-1.41-5-5.06.18-4.33,0-8.67.06-13,.09-3.46-1.13-5.32-4.9-5.21-5,.15-10,.07-15,0-3.1,0-4.51,1.27-4.43,4.52.15,6,.15,12,0,18-.09,3.32,1.38,4.25,4.5,4.35,11.24.36,11.24.45,11.24,11.77,0,6.16-.23,12.34.06,18.49.18,3.84-1.77,5-4.95,5.33-1,.1-2,0-3,.05-8.61,0-8.6,0-8.58,9,0,3.83.13,7.67-.06,11.49s1,5.54,5.12,5.31a129.25,129.25,0,0,1,15,0c3.87.23,5-1.58,5-5,0-6.83.24-13.68-.11-20.49-.22-4.28,1.4-5.47,5.4-5.34,7,.22,14,.14,21,0,3.18-.06,4.49,1.14,4.4,4.38-.15,6,0,12,0,18Z" transform="translate(-8.22 -54.92)"/><path d="M351.5,177.61c0-5.83.1-11.66,0-17.49-.07-3.12.94-4.53,4.3-4.44q10.74.28,21.5,0c3.73-.08,5,1.53,5,5.09-.13,7,.08,14-.08,21-.08,3.45,1.24,4.79,4.68,4.68,5.16-.17,10.33-.14,15.49,0,2.89.07,4.31-.81,4.23-4-.15-6-.11-12,0-18,0-2.8-1.17-3.66-3.9-3.79-11.82-.55-11.82-.63-11.82-12.39,0-6,.16-12-.05-18-.15-3.92,1.59-5.31,5.28-5.49,10.47-.51,10.46-.58,10.46-11.08v-10c0-3.3-1.43-5.47-4.89-5.58-5-.15-10-.24-15,0-2.8.12-4.5,1.74-4.43,4.9.1,4.66-.08,9.33,0,14,.08,3.21-1.3,4.51-4.48,4.46q-11-.14-22,0c-2.86,0-4.31-.82-4.27-4,.1-9.5,0-19,0-28.5a6.35,6.35,0,0,1,1.33-4.19c7.82-9.45,15.67-18.87,23.44-28.36,1.26-1.54,2.8-1.55,4.48-1.55,10,0,20,0,30,0A6.81,6.81,0,0,1,417,58.08c6.39,9.29,13,18.45,19.48,27.65a10,10,0,0,1,1.6,6.15c-.08,7.5-.48,15,.11,22.49s-1.79,13.28-6.67,18.54c-1.92,2.06-3.42,4.51-5.4,6.49-3,3-2.36,5.85,0,8.8,3.21,4,6.32,8.13,9.57,12.1,1.92,2.35,2.35,5.06,2.36,7.9,0,8.5,0,17,0,25.49a15,15,0,0,1-3,9.23c-5.95,8.13-11.73,16.39-17.46,24.68a8.4,8.4,0,0,1-7.56,3.89c-9.33-.06-18.66-.22-28,.06-4.92.14-7.1-3.54-9.55-6.34-6.31-7.23-12-15-18.11-22.4a12.36,12.36,0,0,1-2.94-8.7C351.63,188.62,351.5,183.11,351.5,177.61Z" transform="translate(-8.22 -54.92)"/><path d="M153.86,424.22c2.68-.7,3,1.11,3.35,3,1.41,7.6,4.94,14.4,8.3,21.23a135,135,0,0,0,16.13,25.36c3.75,4.62,6.57,10.35,12.6,13.24a4.72,4.72,0,0,0,.58-4.77c-3.42-5.77-2.54-12.61-5-18.6s-2.78-12.86-4.51-19.26c-1.3-4.78-3-9.43-4.51-14.12a85,85,0,0,0-24.45-37.73,24.43,24.43,0,0,1-8.09-18c-.06-6.37-.95-11.93-5.59-16.55-2.83-2.82-2.34-5.91.11-10.29.37,6.15,2.14,10.39,7.07,12.61a3.29,3.29,0,0,1,1.66,2.9c.24,2.47-1.18,6.47,4.14,4.42,1-.38,1.58,1.12,1.5,2.13-.26,3.33,3.34,5.81,2,9.36-.1.24.14.61.23.92,6.26-2.37,2.36,5.84,6.61,6.25s6.34,4.75,7.56,7.92c1.82,4.74,6.87,8.83,4.21,14.9a2,2,0,0,0,.2,1.78c6.25,5.34,5.68,13.31,7.84,20.2,3,9.6,6.08,19.11,11.68,27.65,3.2,4.89,4.83,10,2.46,16.28-2,5.4-2.15,11.32,1.83,16.53,2,2.6,1.48,6,2.16,9.08,1.15,5.09,3.25,9.31,8.7,10.92,2.06.6,15.42-3.62,16.56-5.17.85-1.17.1-2.21-.07-3.32-.86-5.62-3-11-.35-17,1.35-3-1.5-6.27-3.55-8.89-4.56-5.82-9.41-11.4-13.7-17.47-2.16-3.06-.48-6-1.63-8.88-1.72-4.35-2.35-9.14-4.29-13.47-.69-1.57-.68-3.35.78-3.93,2.08-.82,2.12,1.42,2.58,2.68,3.85,10.71,9.93,20.22,15.87,29.81,1.65,2.67,3.1,5.46,4.7,8.16.48.83.88,2,2.08,1.88s1.1-1.41,1.56-2.24c4.12-7.37,2.76-15.89,5.4-23.87,3.4,1.22,4.68,3.81,3.58,7.17-1.82,5.52-1.89,11.35-3.77,16.92a17.19,17.19,0,0,0,3.71,17.5c.71.81,2.55,1.89,1,3.27-1.31,1.14-1.78-.59-2.63-1.24a22.27,22.27,0,0,0-5.64-2.87c4.4,6.69-3.28,11.59-1.92,17.84.41,1.87-1.8,2-3.09,2.65-2.27,1.12-1.91,2.4-.07,3.65,3.44,2.31,7.18.85,7.58-3.14.25-2.45,2-3.14,3.71-3.26,1.83-.13,2.86,1.44,3,3.3.22,3.3-.5,6.67.94,9.86a2.1,2.1,0,0,1-.16,1.28c-7.05-.07-1.65,4.13-2.21,6.29-1.73,6.67,0,14.26-6.14,19.83-2.39,2.19-2.29,6.53-5.47,9-1.54-4-3.08-7.75-4.47-11.58-1.74-4.8-.21-6.5,4.71-7.07,2.65-.3,4.17-3.27,4.73-5.77a38.17,38.17,0,0,0,.82-9.89c-.12-2.8-3-2-4.72-2.43a2.2,2.2,0,0,0-2.94,2.38c0,1.34.27,2.66-.52,3.87a2.19,2.19,0,0,1-1.78-2.09c-.75-7.25-4.43-10.19-11.54-9.17-3.07.44-5.44.8-6.78-3.46-.94-3-4-5.6-6.67-7.67-2-1.55-4.17-2.41-4-5.45,0-.86-1-1.26-1.87-1.32-5.92-.35-8.1-6.34-12.79-8.56-.31-.15-.44-1.24-.25-1.76.29-.8,1.08-.62,1.67-.24.95.61,1.87,1.29,2.9,2,.76-2-.5-3-1.41-4.1a182.16,182.16,0,0,1-19.85-27.47,155.67,155.67,0,0,1-9.06-19.3c-2-4.85-3.75-9.5-3.1-14.79Zm15.72-27.48c.7-1.64,2.71-2.52-.72-4-5.13-2.16-7.52-8.41-14.11-11C157.36,390.09,165.6,391.13,169.58,396.74Z" transform="translate(-8.22 -54.92)"/><path d="M836.27,346.24c-3.65,3.41-7.95,6.1-11.44,10.37,4.18.56,6.43-2.35,8.95-4.25,1.33-1,2.46-2.19,3.7-.73s-.56,2.35-1.46,3.17c-9.95,9.12-15.19,21.36-21.6,32.78a25.21,25.21,0,0,1-7.54,8.33c-3.14,2.25-4.72,5-3.6,9,3.49,12.35.3,15.48-10.74,21.59-11.49,6.35-18.5,15.18-22.92,27.29-4,11.07-7.62,22.32-12.49,33.12-2.37,5.25-1.19,11.47-1.42,17.28-.27,7.25-2.22,14-7.2,19.61-3.21,3.58-8.19,4.21-12,6.89-3.23,2.3-3.32,4-.11,6.93-2.29,1.17-4.14-.45-6.14-.92-2.45-.58-3.41-1.46-1.37-4s.37-5.11-2.67-4.92c-2.1.13-4.51.39-5.94,2.19-6,7.49-13.57,13.53-18,22.46-2.94,6-9.05,9.47-14.51,13.23a5.39,5.39,0,0,1-4.29.72.93.93,0,0,1-.52-1.56c1-1.21,1.63-2.92,3.57-3.19,1.37-.2,3.36.77,3.89-1.24s-2.91-.83-2.58-3.35c3.44,2,6.34.33,8-2.35s3.55-4.75,3.87-8.56,1.59-8,2.67-12c.38-1.4.87-3.13,2.75-3.12s1.18,1.67,1.44,2.68.53,1.82,1.46,1.76c3.41-.19,4.52-3.62,7-5.23s-.13-3.47-.53-5.18c-.53-2.23-1.54-3.54-4.24-2.26-1.28.61-3.23-.51-2.88-1.81,1.4-5.32-1.67-11.33,2.56-16.19.65-.75,1-1.91,2.1-1.89,1.49,0,1.65,1.42,1.86,2.52.65,3.38,1.23,6.23,6,3.91,1.65-.81,5-1.45,6.31,1.13,1.51,2.9-1.57,3.81-3.16,5.28-1,1-3,1.5-2.42,3.32.72,2.14,2.49,1.69,4.16,1,.76-.3,1.89-.6,2.27.27,2.5,5.72,8,5.5,12,4.25,4.6-1.44,6.78-6.5,9.21-10.89,2.86-5.2,1.63-9.94,1.12-15.26a27.31,27.31,0,0,1,4-17.9c2.29-3.53,3.47-8,4.79-12.18,2.26-7.21,1.89-15.28,7.61-21.53,4.94-5.39,7-12.25,6.4-19.8-.17-2.08-1.14-5,2.09-5.89,2.79-.78,4.87.37,6,3.07.85,2,2.38,1.83,3.58.71,3.7-3.44,8.67-4.62,12.69-7.45,2.11-1.48,3.55-3.26,3.34-6.21-.43-6,1.27-12.22-2.74-17.79-1.47-2.05-3.2-3.71-5.38-4.12a38.53,38.53,0,0,1-9.68-3.64c-4.35-2.08-9.75,0-12.06,5a35.43,35.43,0,0,1-6.62,9.25c-2.3,2.45-5.73,4.47-3.69,8.77-4.87,3.92-3.29,10.54-6.17,16-2.92-4.34-1.7-8-.83-11.84,2.52-11.05,10.92-18.74,15.93-28.35,1.21-2.33,4.46-2.85,4.63-6.17.08-1.5,1.68-.54,2.77-.07,3.92,1.71,7.82,3.42,12.25,3.59a9.87,9.87,0,0,1,7.27,3.73c3.9,4.42,7.34,3.7,8.82-2,.73-2.82,1.54-3.66,4.42-3.66,3.82,0,5.59-3.39,5.75-6.28.21-3.81,1-7,3.36-9.93,4.32-5.43,6.12-12.77,12.89-16.42,1.93-1.05,3.44-1.82,5.46-.82Z" transform="translate(-8.22 -54.92)"/><path d="M154,424.08a2.08,2.08,0,0,1-1.93-1.94c-.54-5.95-3.32-11.26-4.83-16.92a10.23,10.23,0,0,0-2.81-4.59,40.65,40.65,0,0,1-7.93-10.74c-2.48-5.21-8.28-7-13.42-4.5a34.28,34.28,0,0,1-5.43,2.38c-7.41,2-11.1,6.75-11.15,14.51a2.67,2.67,0,0,1,0,.49c-1.93,9.65,3,14.92,11.42,18a10.22,10.22,0,0,1,2.81,2c2.34,2,4.41,3.87,6.21-.73.77-2,3-2.42,5.19-1.76s2.2,2.12,2,4.24c-.79,8.1,1.89,15.19,6.59,21.78,3.21,4.5,6,9,5.87,15.32a24,24,0,0,0,3.61,11.87c5.2,8.63,9.05,18.11,6.11,28.55-2,7.21,5.59,18.51,10.49,21.54,2.63,1.62,9.57-.59,11.47-3.18.84-1.14,1.83-2.71,3.63-1.34,1.55,1.17,2.81.92,3.79-.61,1.07-1.7-.67-2.17-1.43-3.16-1.48-1.93-5.52-3-3.84-6s4.9-1.42,7.58-.44,3.62-.6,4.06-2.88c.34-1.78.39-4.29,2.37-4.51s1.57,2.72,2.57,3.72c4.54,4.49-.37,9.93,1.73,14.69.48,1.08-1.4,2.35-2.86,1.65-3-1.43-3.48.58-4,2.57-.4,1.54-2.55,3-1.3,4.46,2,2.35,4.29,5.24,7,6,3.45,1,1.58-3.43,2.95-5,3.09.82,3.88,3.75,3.95,5.85.15,4.34,2.62,8.06,2.51,12.49-.07,2.56,2.49,4.7,4.47,6.3,2.86,2.31,4.4,6.53,9.17,6.48a4.17,4.17,0,0,1,2.91,3.58c0,.45-.74,1.11-1.27,1.33-1.81.74-3-.24-4.4-1.41-3.81-3.27-7.82-6.32-11.73-9.49a3.44,3.44,0,0,1-1.22-1.51c-1.57-6.52-7.09-10.51-10.58-15.74a39.36,39.36,0,0,0-10.26-9.79c-1.66-1.14-4.15-1.95-6.1-.27s-1.47,3.72.27,5.6c1.27,1.37.09,2-1.11,2.43-2.18.72-4.39,1.38-8.28,2.6,4.75-4.31,4-6.62.12-9.17s-8.63-2.73-11.63-6.48c-4.21-5.27-6.88-11.59-6.31-17.94,1.16-13.06-4.12-24.29-8.31-35.87-3.36-9.26-6.1-18.81-11.2-27.38A33.53,33.53,0,0,0,116,426.87c-4.91-2.14-8.53-5.65-12.1-9.34-3-3.1-2.07-7-1.21-10.4,1.45-5.71,1.39-10-4.73-13.18-3.23-1.69-4.75-5.63-6.65-9-6-10.68-11.15-22-20.29-30.59-1.26-1.19-3-2.44-1.45-3.95s2.28,1.05,3.43,1.73A76.19,76.19,0,0,0,80,356c1.34.62,2.4.24,1.58-1.62l-.12.1c1.38-.35,2.74-.51,3.25,1.23.38,1.28.59,3.6-.23,3.71-3.6.52-2.42,2.71-2,4.65a1,1,0,0,0,1.46.87c1.92-.73,1.57-2.76,2.58-4.56,2.26,3.76,5.33,6.43,5.26,11.4-.06,3.65,1.76,7.72,6.9,7.25,3.08-.28,2.92,2.08,3.6,3.77,2.6,6.47,4.93,7,9.17,1.49,1.93-2.53,4.39-2.69,6.88-3.31,1.59-.41,3.28-.39,4.89-.74,2.61-.56,4.93-1.88,7.36-2.92,3.88-1.68,2.11,3.48,4.63,4.14,2.74.71,3.77,3.91,4.81,6a32.24,32.24,0,0,0,6,8.37c5.33,5.48,5.58,13.19,8.65,19.66,1.36,2.84-.79,5.8-.82,8.76Z" transform="translate(-8.22 -54.92)"/><path d="M425.26,346.56c7.23-4.26,7.43-4.53-.1-10.14-5.45-4.06-10.06-8.52-12.44-15-.23-.63-.76-1.19-.82-1.81-.19-2.17-2-5.29.71-6.21,2.51-.86,2.18,2.64,3.05,4.24a64.67,64.67,0,0,0,14,17.68c8.47,7.42,13.41,17.18,19.66,26.06,3.83,5.45,3.67,5.42,7.64-.26,6.71-9.6,12.82-19.66,21.45-27.87,5.44-5.17,10.85-10.6,13-18.24a2.15,2.15,0,0,1,2.14-1.79c1.73.15,1.52,1.67,1.35,2.69-1.22,7.33-4.15,13.72-10.4,18.2a40.3,40.3,0,0,0-4.32,3.33c-6,5.67-5.94,5.7.59,10-13.17,1-15.31,13-21.48,20.88-1.39,1.78,0,2.21,1.49,2.47,4.3.73,7.05-2,9.27-4.78,4.64-5.82,10.55-8.76,17.78-9.6,3.29-.38,5.23-4.38,5-8.63-.49-7.65,2-14.62,6.29-20.77s9-11.86,15.24-16.25c1.69-1.19,3-2.74,4.94-.55,1,1.17,1.68.3,2.3-.53,2.22-3,4.75-1.49,6.23.32,2.32,2.85,4.28,1.85,6.28.19a13.74,13.74,0,0,1,4.52-3c.91-.28,1.18-2.63,2.67-.93,1.09,1.25.53,2.48-.32,3.62-.1.14-.21.26-.31.4-1.32,1.95-5.78,2-4.53,5,1.15,2.82,3.85,5.18,6.6,7A52.51,52.51,0,0,1,554,332.64c2.37,2.81,5.32,3.53,8.81,3.2a21.81,21.81,0,0,1,5,.23,1.91,1.91,0,0,1,1.9,1.93c0,1.24-1,1.64-2,1.8-3.77.59-7.64-.52-11.39.78-1,.35-1.47-.82-1.63-1.5-1-4.15-4-6.17-7.49-8-1.71-.9-3.84-2.14-4.47-3.74-2.88-7.26-10.54-8-15.86-11.84-3.88-2.78-8.62.75-11.75,3.3-7.23,5.89-13.84,12.57-14.77,22.71a23.07,23.07,0,0,0-.24,4c.67,8.37-2.92,13.7-11.14,14.24-6.73.44-11.12,3.77-14.86,8.59a14.41,14.41,0,0,1-6.95,4.57c-3.82,1.36-8.12,1.08-11.76,3.34a3.43,3.43,0,0,1-2.92,0c-7.34-4-17-3-22.63-10.95-2.95-4.16-7.47-6.07-12.85-6.46-7.85-.57-11.09-4.9-11.11-13.54,0-14-10.2-27.43-22.89-30.73-2.25-.58-3.67-.42-5.33,1.12a11.2,11.2,0,0,1-4.23,2.49c-6.3,1.89-8.53,8.36-13.45,11.69-3.67,2.5-8.17,4-8.54,9.41-.05.7-.62,1.26-1.39.84-3.6-2-7.5-.85-11.26-1.17-1.15-.1-2.55,0-2.5-1.68,0-1.31,1.24-1.33,2.24-1.44a2.69,2.69,0,0,1,.49,0c8.21.75,14-3.44,18.87-9.35,2.95-3.59,7.38-5.36,10.28-9.14,2.19-2.87,3.26-4.62-.75-6.28-1.36-.56-1.87-1.85-2.65-2.89a1.89,1.89,0,0,1,.51-2.66c.83-.73,1.47.1,2.13.58a28.3,28.3,0,0,1,3.61,2.63c2.44,2.52,4.42,3.53,7.37.27,1.53-1.69,4.51-3.36,6.43.4.19.37.88.9,1.05.8,7.26-3.79,9,3.67,12.9,6.48,7.77,5.68,10.46,15,15.24,22.82a5.56,5.56,0,0,1,.39,1.33c-5.48.92.81,6.39-3.07,7.93,3,1.77,2.53,6.8,7.23,7.14A21.85,21.85,0,0,1,434.65,364c2.41,2.94,5.24,6.09,9.83,5.89,2.63-.12,3.39-1,1.8-3.36-3.93-5.75-7.6-11.7-11.85-17.2C432.39,346.72,428.31,348,425.26,346.56Z" transform="translate(-8.22 -54.92)"/><path d="M620,358.55a55,55,0,0,1,1.45,15c-1.24,24.42-.9,48.76,2.08,73.12.9,7.32,3.6,13.58,6,20.62,3-2.46,3.76-5.78,4.63-8.79,1.82-6.31,2.91-12.83,4.82-19.11,1.53-5,3-10,3.22-15.32.06-1.48.94-2.87,2.39-2.62s1.25,1.86,1.32,3.27c.47,9.66-3.45,18.38-5.67,27.44-2.68,10.89-5.74,21.69-4.59,33.12.19,2,.73,3.15,2.66,3.56.47.09,1.29,0,1.37.26,3.33,8.83,11,5.09,17,5.86.93.11,2.05-.36,2.79,1.11-5.52.41-10.91.92-16.32,1.12-1.41.06-3.35-1.14-3.85.75-.57,2.12-.93,4.57.56,6.67,1.31,1.84,3,1.18,4.46.42,5.34-2.81,9.55,1,14.31,1.44l-.05,1.29a21.19,21.19,0,0,1-4.61.25c-9.47-1.55-15.32,4.21-18.24,13.1-.87,2.68-3.51,3.81-4.83,6.13s-4.1,4-.26,6.68c1.51,1,.44,3.13,0,4.69-2.26,7.35,0,14.22,2.75,20.77,2.09,4.92,6.87,6,12,6.48,5.37.45,10.67-1.69,16.17.3,2.1.75,4.89-1.25,7.6-3-3.71-1.55-5.93,2.85-9.35,1.21,1.31-2.25,3.34-3.62,4.64-5.61,1.53-2.36,7.81,1.18,8.44,4.92.45,2.64.85,5.18-2.93,6.61-3.49,1.33-6.45,4-9.66,6.1s-3.19,2-4.39-1.47c-.3-.88-.84-.87-1.44-.88-1.5,0-3.16-.37-4.47.14-6,2.3-10.5-.63-14.38-4.31-3.63-3.45-7.42-7.12-7.8-12.74a2.8,2.8,0,0,0-2.09-2.59c-4.19-.88-3.57-3.43-2.56-6.37,2.54-7.44,1.88-8.17-6.12-8.27-2.59,0-4.86,1-7.29,1.36-1.65.26-3.8.48-2.05-2.41a3.49,3.49,0,0,0,.28-1.46c.24-3.23-1.32-8.78,5-3.19,2.3,2.05,10-.87,10.92-4,1.33-4.39,4.19-8.33,4-13.16a3.05,3.05,0,0,1,2-3.11c4.69-2.26,3.66-3.87-.55-5.35-1.88-.66-3.14-1.64-.26-3.13s3-4.46,3-7.38c-.29-11.35-4.64-21.57-8.64-31.92-4.08-10.57-8.79-21-11.52-32-2.62-10.47-6-21.07-4.73-32.24.33-2.92.52-5.77,2.6-8.71a18.18,18.18,0,0,1,1.7,8.08c-.2,6.32.51,12.66-.49,19a3.56,3.56,0,0,0,.91,3.23,10.05,10.05,0,0,1,3.06,8.6c-.12,1,.18,2.24,1.31,2.37s1.39-1.13,1.6-2a7.37,7.37,0,0,0,.16-2c-.69-12.48,1.45-24.89.94-37.37-.16-3.91.3-8-3.31-10.92a1.49,1.49,0,0,1-.24-2.23c4.56-4.07,2-9.39,2.57-14.15C618.28,363.39,617.74,360.89,620,358.55Z" transform="translate(-8.22 -54.92)"/><path d="M299.36,539.62c-4.89,1.14-8.74-1.88-13.28-.85-4.39,1-5.32,2.72-3.76,6.51,1.48,3.59,2.58,7-2.64,8.58a2.59,2.59,0,0,0-1.41,1.93c0,7-5.53,10.32-9.49,14.58-3.8,4.09-8.85,2.59-13.65,2.24-1.55-.12-5.94-2.94-4.23,2.87.36,1.23-1.51,1.87-3,1-4.71-2.75-8.69-6.67-13.9-8.62-1-.37-.76-1.34-.91-2.12-.77-4.2,2.35-6.62,5-8.35,2.33-1.55,4.46.68,5.6,3.27.31.72,1.53,1.05,2.5,1.67-3,2.3-5.26-2.12-8.12-.26,2.92,2.22,5.71,3.55,9.54,2.2,2.28-.81,4.91-.35,7.41.09,8.18,1.44,17.53-.36,19.83-11.36,1.18-5.66,2.57-10.9.62-16.53-.31-.88-.53-2.49-.09-2.82,5-3.75,1.2-6.45-1.3-8.65-4.22-3.72-3.9-10-8.5-13.62-3.3-2.62-6.13-4.69-10.54-4.26-2.42.23-5.12.67-8.9-1.29,6.4-1.05,11-4.34,16.42-1.74,1.33.64,3,1.34,3.86-.62a9.25,9.25,0,0,0,.6-6.27c-.59-1.91-2.36-1.21-3.83-1.19-5.46.08-10.91,0-16.36,0v-2c4,0,8-.16,12,.05,2.95.16,5.26-.3,6.24-3.49a3.1,3.1,0,0,1,1-1.69c9.88-5.74,5-15.12,3.83-22.06-1.3-8-3.84-16.18-6.09-24.2-1.6-5.73-3.36-11.38-3.31-17.45,0-1.79-1.11-4.1,1.42-4.4,2.19-.26,1.89,2.14,2.19,3.75a306.77,306.77,0,0,0,9.91,38.1,5.76,5.76,0,0,0,2.56,3.51c2.55-6.56,5.08-12.64,6.1-19.85,3.06-21.65,3.3-43.33,3.13-65.06-.07-7.57-1.74-15.15.79-22.84,2.64,4,1.29,8.45,1.52,12.61.15,2.66-.23,5.32,2.23,7.29,1.15.93,1.53,2.32.07,3.38-3,2.17-3.05,5.46-3,8.53.13,13.14.48,26.27.77,39.4a5.39,5.39,0,0,0,2.78,5.07c-.75-6.74,4.25-11.18,4.19-17.41-.07-7.93-.9-15.94.94-24,2.07,2.12,2.88,4.56,3,8.35.35,8.69-1.51,17-3.29,25.5-2.78,13.27-8.31,25.49-13.06,38-4,10.5-8,21-8.68,32.39-.15,2.41.28,4.94,2.31,6.23,4.78,3,1.92,3.63-1.14,4.48a22.58,22.58,0,0,0-3.32,1.71c8.18,3.27,7,11.1,9.5,16.94,2.15,5,8.83,8.77,13.41,5.62,3.67-2.52,3.39-.71,3.27,1.84A10.12,10.12,0,0,0,299.36,539.62Z" transform="translate(-8.22 -54.92)"/><path d="M718.54,490.06c2.16.76,4.24-3.41,5.59-.57.87,1.82-2.58,2.49-4,3.57-3.28,2.49-5.61,6.93-10.78,6.29-.27,0-1,.81-.9,1.06,1.4,4.49-4.65,4-4.93,7.46a1.32,1.32,0,0,1-2,.74,2.34,2.34,0,0,1-.46-2.22c3.11-5.33,1.48-11.88,5.27-17.35,2.5-3.61,2.06-9.46.09-13.54-2.63-5.44-.89-10.73,1.48-14.16,9-13,11.94-28,16.21-42.71.7-2.42.77-5.41,3.93-6.45a1.29,1.29,0,0,0,.74-1.67c-2.13-7.15,2.63-12,5.64-17.51a17.45,17.45,0,0,1,6.09-6.22c1.62-1.08,4-2.2,2.75-5.09a1.9,1.9,0,0,1,.24-1.26c5.46.13,3.32-4.93,5-7.36,1.31-1.9.11-6.3,5.1-4.15,1.26.54,2-1.87,1.62-3.42-.54-2.09.09-4,1.8-4.76,4.71-2.2,6.25-6.15,6.4-11.25,3.51,3.87,3.59,6.73-1.2,11.62-2.86,2.93-3.13,5.8-3.23,9.33-.26,9.74-3.31,18.33-10.74,25.09-11.49,10.46-18.6,23.53-23.42,38.21-3.78,11.49-6.33,23.26-9.3,34.93-1.21,4.78-1.36,9.79-3.73,14.31-.72,1.37-.6,3.23,1,5.65,17.77-18.33,30.74-39.06,38.09-64.77,2,4.26,2,7.32,1.05,9.91-6.72,18.54-16,35.62-29.4,50.3C720.89,485.8,718.84,487.37,718.54,490.06ZM750.67,383c-5.27,2.9-8.7,7.84-13.57,10.93-.76.49-2.17.21-1.27,1.74.62,1.07,1.42,1.11,2.45.32,3.37-2.6,6.89-5,10.17-7.72C749.87,387.09,751.65,385.72,750.67,383Z" transform="translate(-8.22 -54.92)"/><path d="M657.62,731.14c-.4-1.74-1.06-2.86-.77-3.6,2.52-6.42,1.56-13.44,3.68-19.94,2.59-8,1.39-16.52,3.5-24.59,2.66-10.2,1.23-20.19-1-30.32-1.17-5.36.17-11.16-2.1-16.53-.49-1.16-.5-2.51-1.21-3.71-1.54-2.61-.69-4,2.39-4,7.36.16,12.9-3.85,17.48-8.75,1.92-2,4.34-4,5.9-7.15-3.85.53-6.11,3.21-9,4.67-1,.52-2.31,1.38-3.14.17-.94-1.38.62-1.82,1.46-2.57,3.64-3.26,7.87-5.56,12.16-7.8a2.26,2.26,0,0,1,2.78.12c-2.47,2.61,2.69,6-1.26,8.83-8.38,5.93-13.22,14.69-17.08,23.88-1.38,3.28-1.65,7.22,1,10.39a8.64,8.64,0,0,1,2.15,4.37c-1.17-4.37,2.37-6.85,3.68-10.12,3-7.46,6.7-14.38,13.54-19.22,2.54-1.79,1.65-5.16,2.42-7.77.64-2.15-.77-6.43,3.2-6.1,3.81.32,2.14,4.15,2.51,6.57.3,2-.75,3.42-1.61,5s-1.63,3.52-.13,5.14c1.29,1.39,3.17,1,4.65.46,2.49-1,4.41-.57,7,2.18-4.88.57-9.26,1.31-11.7,5.06-2.16,3.3-4.58,4.75-8.71,5.26-3.32.42-4.23,5.13-5.76,8-7.07,13.33-10.91,27.74-14.24,42.44-2,8.93-2.84,17.95-4.58,26.86C663.93,723.23,662.13,727.53,657.62,731.14Z" transform="translate(-8.22 -54.92)"/><path d="M196.34,629.33c2.4-3.1,5.6-2.08,8.41-2.08,4.17,0,5.24-1.71,3.24-5.22-1.6-2.78-1.59-5.72-1.41-8.72a3.2,3.2,0,0,1,3.09-3.33c1.93-.1,1.92,1.82,1.84,2.94-.64,9,6.08,13.64,11.15,19.26a10.56,10.56,0,0,1,2.47,4.1,49.06,49.06,0,0,0,7,13.56c3.83-3.13,4.82-7.65,2.64-11.86-4.19-8.12-7.78-16.6-15.63-22.23-1.77-1.27-4.63-3.11-1.75-6.32.42-.47-.75-2.36-1.42-4.28,7.2,1.72,12.53,5.33,17.32,10-2.68,1.17-2.62,1.06-5.48-.41-1.88-1-3.18-3-6.46-3.12,6,8.11,12.05,14.8,22.28,15.49,3.26.23,3.83,1,2.93,4.25-1.6,5.77-4.14,11.21-2.93,17.82.77,4.21-1.78,8.92-2.43,13.55-1.34,9.5,1.87,18.45,2.12,27.68s4.28,17.7,4,26.92c0,1.74.94,3.5,1.3,5.28.45,2.18,1.48,4.43-.35,6.77-3.3-3.5-6-7-6.59-12a262.26,262.26,0,0,0-5.61-31.7,202.72,202.72,0,0,0-10.52-33c-1.81-4.22-4.62-8-7-12-.34-.55-1-1.38-1.42-1.3-5.82,1.18-7.69-4.15-11.07-6.81C203.19,630.38,199.63,630.74,196.34,629.33Z" transform="translate(-8.22 -54.92)"/><path d="M699.34,508.8c-.48,7.07-3.5,9.4-9.5,8.06-4.49-1-10.52,4-10.12,8.47.11,1.21-.13,2.12-1.13,2.39-1.65.45-1.37-1-1.32-1.86.19-3.41-1.86-3.89-4.51-3.58-2.92.35-3.44,1.86-3,4.74.53,3.38-.36,7.08,2,10,1.26,1.57,1.74,5.21,5.42,2.22,1.49-1.21,4.22,3.72,3.17,6.84-1.5,4.48-3.31,8.85-5.24,13.94-4.18-8.76-10.81-15.84-11-25.74,0-2.22-1.22-4.52.49-6.74.46-.59.36-2.5-.09-2.76-5.84-3.4-1.09-8.46-2-12.62-.46-2.16,1.91-2.2,3.62-2.2s2.62.73,2.88,2.63a5,5,0,0,0,7.88,3.19c2.09-1.65.86-3.21-.76-3.8-2.79-1-3.26-2.92-3.11-5.44a5.17,5.17,0,0,0-.24-2.46c-1.8-3.78-3.88-7.48-.64-12.18-4.18.63-6.36,2.75-8.56,4.82-1.41-2-.3-3,.43-3.94,4.93-6,5.78-12.5,3.2-19.87-1.73-4.95-1.41-10.42-3.33-15.46-1-2.76.8-5.06,3.46-6.91,1.94,5.17,2.39,10.51,3.25,15.73a16.75,16.75,0,0,0,2,6.61c.82,1.28-.26,3.87,2.19,3.9,2,0,2.11-2.33,3-3.63,6.8-10.15,12.5-20.94,18.36-31.64.78-1.41.75-3.24,1.31-4.79.4-1.11.33-3.05,2.34-2.53s2,2.24,1.3,3.65a38.13,38.13,0,0,0-4,13.39c-.89,11.73-9.69,18.82-16,27.34-2.63,3.51-4.84,6.7-2.54,11.75,1.88,4.11-.08,8.85-1.32,13.09-.84,2.9-.18,4.63,2.34,5.48a75.11,75.11,0,0,0,13.27,3.66A6.77,6.77,0,0,0,699.34,508.8Z" transform="translate(-8.22 -54.92)"/><path d="M428.68,459.54c-3.54.07-4.55,1.92-5.1,4.26-1.18,5-4.38,9.13-5.23,14.39-1.45,9,2.62,13.59,11.58,11.45,3-.72,4.75-1.51,4.81,2.9,0,2.95,4.76,4.09,9.21,2.69,2.18-.68,4.38-1.34,6.58-2,.2,0,.53.33,1.89,1.26-4.44.58-6.59,4.24-10.45,4.37s-7.63,0-11.05,2.2a2.65,2.65,0,0,1-2.36,0c-4.29-2.9-8.85-2-13.33-.95-1.73.41-3.17.45-3.75-1.18-.8-2.28,1.44-2.1,2.68-2.61s2.4-.84,3.81-1.33c-1.44-3.06-5.78-2.84-6.31-5.43-.48-2.38,3.34-3.88,3.34-6.81,0-2,.7-4.24-1-5.63-2-1.66-3.25.75-4.66,1.63-5.63,3.52-12.07,5.24-18,8.21-1.17.59-3.74,1.7-4.36-.34s1.92-1.34,3.1-1.89c4.62-2.16,9.37-4.17,13.62-6.94,2.13-1.39,4.62-.52,6.45-2.19,2.77-2.54,5.88-4.81,5.93-9.13a2.85,2.85,0,0,1,.47-1.41c3.09-5.05,6.81-9.94.8-15.62-1.16-1.1-.22-2.78,1.73-1.62,4.23,2.53,7.63-.45,11.25-1.57,2.68-.83,2.44-3.47,1.1-4.86-3.42-3.56.87-5.19,1.6-7.61.36-1.19,1.68-.5,2.29.43a8.3,8.3,0,0,1,1.08,4.29c.38,6.77,2.5,8.56,9.4,8.05,1.25-.1,1.25-.1,4.37,1.73-4.3.84-7.84,3.26-11.72-.54-1.6-1.58-3.5.85-4.5,1.91a6.7,6.7,0,0,1-5.59,2.53c-1.45-.06-3.41-.44-3.88,1.36a3.52,3.52,0,0,0,1.95,4.18A17.34,17.34,0,0,1,428.68,459.54Z" transform="translate(-8.22 -54.92)"/><path d="M596.39,448.73a75.42,75.42,0,0,1,0,24c-1.13,6.31-2.92,12.38-7.51,17.5a5.51,5.51,0,0,0,1.56,8.61c4.81,2.49,6.16,8.48,11.44,10.37a2.34,2.34,0,0,1,.84,3.49c-1.42,1.91-.87,4.2-1.64,6.17-.49,1.24,0,3.36-2.29,3.2-1.9-.13-2.28-1.87-2.64-3.22a8.72,8.72,0,0,1-.27-4.43c1.27-4.6-.12-7.34-4.48-9.56s-7.39-2.42-10,2c-1.54,2.57-4.34,4.18-5.08,7.26a1.72,1.72,0,0,1-2.29,1.33c-1.27-.39-1-1.62-1-2.54.34-4.33,1.35-8.55.18-13-.53-2-.87-4.12-2.44-5.14-5.22-3.38-10-7.62-17.38-4.45-5.21,2.22-11.18,2.84-16.88,3.64-4.84.69-9-3.29-13.92-2.85a1.22,1.22,0,0,1-1.29-1.65,2.28,2.28,0,0,1,1.46-1.13,4.17,4.17,0,0,1,2.43.07c7,3.14,13.83,1.24,20.31-1,12.72-4.45,24.55,1.12,31.49,12.51a2.84,2.84,0,0,0,3.19,1.6c1.64-.22,3-1.21,2.78-3-1-8,4.12-14.08,6.1-21.11,2-7.18,5.4-14.25,4.93-22.08A9.91,9.91,0,0,1,596.39,448.73Z" transform="translate(-8.22 -54.92)"/><path d="M647.62,357.54c-.45,1.68-1.9,1.65-2.88,2-6.24,2-6.56,2.8-4.42,9.43,2.89,8.89,6.14,17.66,8.36,26.78.91,3.71-1.46,6.77-.59,10.54-2.17-.7-2.21-2.21-2.37-3.58-.83-6.9-2.69-13.64-4.15-20.36-1.82-8.35-5.94-16.15-11-23.4-2.76-3.95-3.86-9.34-.89-13.94,2.62-4.07,3.49-7.77-.38-12.72,4.25,1.5,6.28-1,8.73-2.3,8.91-4.76,18.63-3.72,28.16-4,.83,0,1.66,1,2.54,1.43,8.76,4.52,13.49,1.93,15.85-7.44,3,3.53,2.73,7.2.47,10.1-3,3.89-1.4,6.24,1.94,7.74,4.13,1.86,4.19,4.62,3,8.15-.3.92-.22,2.11-1.63,2.07a1.76,1.76,0,0,1-1.75-2c.47-5.28-1.43-8.3-7.15-8.2-.61,0-1.31-.95-1.84-1.57a13.81,13.81,0,0,0-10.33-5.05,109.34,109.34,0,0,0-19.35.76c-7.88.86-17.21,14.48-16.45,22.33.28,2.89,2,2.71,4.11,3.06C639.59,358,643.69,355,647.62,357.54Z" transform="translate(-8.22 -54.92)"/><path d="M258.75,405.69c-3.25-9,.35-17.05,3-25,1.84-5.45,3.43-10.93,4.9-16.47.92-3.47.52-5.61-3.76-5.27-1.68.13-3.1-.7-4.64-1.63,2.18-2.19,4.45-1.17,6.71-1.08,3.22.13,7.42,1.76,9.37-1.22s.45-7.24-1.34-9.88c-4.62-6.79-8.65-14.89-19.08-14.16-5.4.37-10.75-1.38-16.25-.33-3.41.66-6.43,1.49-8.55,4.39-.3.4-.58,1.08-.93,1.13-6.13.82-9.06,4.26-9.05,10.46,0,1.16-1.07,1.62-2.07.55-2.41-2.57-1.35-8.47,1.9-9.84,3.91-1.65,5-3.65,2.45-7.61-1.84-2.87-2.54-6.4-.39-9.88,2.77,1.46,1.34,4.63,3.32,6.42,4.31,3.91,8.72,2.73,12.85.44a12,12,0,0,1,8.55-1.29c2.58.47,5.3.13,8,.28,5.49.33,10.86,1,15.63,4.24,1.95,1.32,3.89,3.15,7,2.11-3.86,4.5-2.09,8.31.1,12.31,2.77,5.06,1.95,10.33-1.12,14.73-6,8.61-10.09,17.72-11.56,28.23-.73,5.19-2.23,10.35-3.19,15.56A3.56,3.56,0,0,1,258.75,405.69Z" transform="translate(-8.22 -54.92)"/><path d="M452.66,393a9.39,9.39,0,0,0,3.67-5c.41-1.27.94-3.07,3.08-2.35,1.31.44,2.45,1.09,2.69,2.63s-.56,2.24-2.15,2.62c-2.42.57-2.09,2.3-.9,3.8,1.95,2.44,3.61,5.66,6.2,6.93,5.18,2.55,8.16,7.63,13.13,10.22,1.46.77,2.15,2.18,1.44,3.25-3.11,4.67-3.42,9.06,1.17,13.06-3.92,1.91-5.54,0-6.92-2.53-5.49-10-12.23-19.12-19.08-28.19-1.37-1.81-2.18-1.56-3.33,0-4.3,6-8.87,11.8-12.89,18-2.7,4.14-6.22,7.77-8,12.51a2.79,2.79,0,0,1-4.06,1.73c-1.93-1.16-.22-2.44.62-3.62a6.65,6.65,0,0,0-.15-8c-2.45-3.47-.32-5.09,1.92-6.91,5.13-4.19,10.49-8.12,15.31-12.63,1.83-1.72,6.45-4.57.44-7.36-1.12-.52-.93-1.68-.77-2.64.25-1.57,1.73-2,2.88-2.4s1.76.66,2.18,1.56C450.06,389.65,450.57,391.81,452.66,393Z" transform="translate(-8.22 -54.92)"/><path d="M348.41,342.64c-3.79,5.44-2.21,11.69-2.14,17s-1.31,8.27-5.46,9.28c-7.7,1.86-10.31,8.7-14.89,13.6-.76.81-1.08,2.06-2.38,2.18-.3,0-.87-.55-1-.93-.3-1.49.55-2.16,1.72-3.11,2-1.66,2.29-4.68,4.35-6.61.86-.8-.24-3-1.43-3.26-3.42-.72-4.68-3.74-6.93-5.69-1-.84-2.58-1.18-1.91-3a3.41,3.41,0,0,1,2.73-2,3.29,3.29,0,0,1,3.77,1.63c2.83,4.4,11,6.78,15.63,4.55,2.05-1,3.54-2.36,3.05-5a40.14,40.14,0,0,1-.21-4.4c-.5-7.73-.67-7.14-8.1-9.13-6.39-1.72-13-2.6-19.25-4.6-3.63-1.16-7.34-2.28-10.17.88-3.06,3.4-3.57,7.7-2.12,12.11.41,1.25.91,2.47,1.28,3.73a1.48,1.48,0,0,1-1,2,3.13,3.13,0,0,1-2.32-.33c-2.67-2-4.52-10.69-3-13.68.53-1,1.34-1.88,2-2.86,1.07-1.73,1.31-4.38-.11-5.05-5.89-2.79-1.24-7.43-2.29-11a2,2,0,0,1,1.65-2.17c1.45-.18,1.77.85,2.27,2,2.13,5.16,5,9.73,10.86,11.35,1.1.31,2.48.82,3.38.43,7.48-3.23,13.83.53,20.37,3.07C340.88,345.27,344.76,346.09,348.41,342.64Z" transform="translate(-8.22 -54.92)"/><path d="M556.91,343.25c7.89,5.48,14.31-.29,21-2.14,2.81-.78,5.47-1.5,8.24-.95,9.26,1.84,15.51-1.77,17.89-10.67.3-1.12.09-2.62,1.57-2.67a2.31,2.31,0,0,1,2.23,2.79c-.65,3.66,3,8-2.08,11.08-1.58,1-1.06,3.58.1,5.47,3.22,5.24,3,11.18-.54,15.52a2.4,2.4,0,0,1-3.12.81c-1.37-.69-1.38-1.76-.84-2.93a14.85,14.85,0,0,0,1.47-9.67c-1.31-6.18-4.92-8.63-10.84-6.46-6.73,2.46-13.88,2.66-20.74,4.51-7.8,2.11-8.7,2.05-8.83,10.06-.06,3.33-1.49,7.83,4,9.27,4.73,1.24,12.81-.49,14.85-4,1-1.65,1.79-2.65,3.76-2.45a3,3,0,0,1,2.72,1.87c.83,2.31-1.61,2.39-2.43,3.55a16.25,16.25,0,0,1-6.6,5.57c-1.55.73-2.16,3.09-.82,3.68,3.13,1.35,1.74,5.83,5.33,6.7,1.07.26,1.19,2,0,2.89s-2.1.24-2.76-.95a35.39,35.39,0,0,0-17.67-16c-1.76-.72-3.15-1.74-2.73-3.59,1-4.24-1.11-8.36-.16-12.6C560.61,348.68,559.51,345.82,556.91,343.25Z" transform="translate(-8.22 -54.92)"/><path d="M478.37,457.88c5.16-.68,9.24,1.82,10.07,6.44,1.59,8.76,7.34,13,14.76,15.39,5.2,1.7,9.24,5.85,14.87,6.43.73.07,1.77.43,1.43,1.54a1.78,1.78,0,0,1-2.39,1.22,82.28,82.28,0,0,1-7.82-3.06c-4.45-2.1-8.93-4.18-13.14-6.7-1.47-.89-2.59-1.37-4-.7-1.73.81-1.36,2.52-1.25,4,.09,1.14.14,2.66.85,3.32,5.09,4.71.66,6.7-2.42,9.13-.25.2-.48.43-.73.66.59,1.54,2,1.53,3.22,1.89s3.43.53,3,2.57c-.52,2.44-2.55,1.4-4.08,1.09a29,29,0,0,0-10.75-.22c-9.41,1.58-17.75-1.1-25.6-6,2.46-.5,4.65.24,6.91,1,5.65,2,8,.92,10.21-4.61.82-2,2.1-1,3.26-.81,12.11,1.78,13.9.22,12.44-12C486.27,470.89,482.47,464.36,478.37,457.88Z" transform="translate(-8.22 -54.92)"/><path d="M183.63,728.2c-2.08,3.82-1,8.32-4,11.45-1,1-1.38,3-3.32,2.29s-1.68-2.58-1.28-3.86c5.5-17.59,2.1-35.66,2.92-53.49A45.25,45.25,0,0,0,175.63,668a14.13,14.13,0,0,1,.05-9.66c.07-.19,1.23-.27,1.34-.08,1.53,2.59,1.22,5.73,2.13,8.38,2.81,8.2,2.55,16.88,4.56,25.16,2.86,11.77,3.7,23.78,4.29,35.81.07,1.33.84,3.44-1.06,3.89S185.33,729.27,183.63,728.2Z" transform="translate(-8.22 -54.92)"/><path d="M332.92,495c0,5.66-1.36,11.31.06,17,.2.81.51,2.18-.67,2.61-1.44.53-1.95-.79-2.57-1.76a55.36,55.36,0,0,0-6.63-8.64c-2-2.11-4.34-2.86-6.65-1.18-2.83,2.05-7.76,2.78-6.37,8.11a11.23,11.23,0,0,1-.53,8.26c-.56,1.13-1.33,2-2.67,1.81s-1-1.53-1.29-2.38c-.92-2.62-.58-5.61-2.54-7.94a1.37,1.37,0,0,1,.45-2.15c4.9-1.45,6.09-6.76,9.93-9.32,5.69-3.78,6-6.14,2.39-12.13-7.33-12.31-9.12-25.58-6.74-40,3.31,1.52,2.88,4.45,3,6.5.43,10.6,4.25,20.25,8.3,29.76,1.68,3.94,2.88,7.75,2.66,12-.13,2.44.51,4.36,2.95,5.1,3,.93,2.91-1.77,3.65-3.46.64-1.5,1.56-2.59,3.44-2Z" transform="translate(-8.22 -54.92)"/><path d="M625.66,196.3c-1.35.72-2.47.85-3.24-.86a6.33,6.33,0,0,1,.18-5.73c2.85-5.84,5.7-11.79,5.37-18.47-.23-4.75,1.92-9,1.45-14-.56-5.95-3.69-10.09-6.36-14.66s-2.47-13.48,1.37-14.93,7.56-3.76,12-3.68a54.12,54.12,0,0,0,8.41-.47c4.3-.58,7.55-2.17,9.42-5.82,5.12,7.59,4.61,16.24,5.38,24.62a3.4,3.4,0,0,1-.71,2.34c-4.35,4.81-3.11,10.43-2.64,16,.18,2.1,1.41,5.77-1,6s-2.87-3.42-3-5.95c-.21-3.14-.56-6.27-.65-9.42,0-1.29,0-3.12.73-3.8,5.6-5,3-11.45,3.51-17.34.24-2.81-1.06-3.93-3.91-3.52-5.52.79-10.93,2-16.68.73-4.21-.92-8.58,2.7-9.64,6.69-1.37,5.14.13,9.19,5.22,11.37,3.36,1.45,3.49,2.53,1.58,5.33-2.52,3.68-2,8-1.14,12.07,1.37,6.17.46,11.7-1.6,17.79-1.68,5-6.36,9.59-4,15.68Z" transform="translate(-8.22 -54.92)"/><path d="M722.9,729.61,719.47,734c-2.87-6.22-1-12-.22-17.69,1.82-13.08,3.51-26.18,5.83-39.18,1-5.45,3-10.72,3.3-16.34a1.92,1.92,0,0,1,1.27-1.3,1.41,1.41,0,0,1,1.61,1.49c.12,2.32.61,4.8,0,6.94-5.37,18.43-2.6,37.28-3,55.95-.09,4.35,1.55,8.77,2.52,13.12.37,1.64.93,3.28.45,4.91-.59,2-1.39,2.71-3.38.77C724.36,739.27,725,734.45,722.9,729.61Z" transform="translate(-8.22 -54.92)"/><path d="M664.35,401.88a7.94,7.94,0,0,1,3.07,6.57c1.34-.8,2.25-1.74,3.28-1.89,4.21-.6,4.62-3.31,4.32-6.77a16.34,16.34,0,0,1,.54-4.41c.31-1.56,1.59-1.35,2.76-1.38,1.68,0,1.46,1,1.78,2.23,2.18,8.19-2,15.14-4.33,22.37-2.48,7.69-5.66,15.15-8.47,22.74-.45,1.2-.21,3.08-1.87,3.13-2.23.06-1.68-2.32-1.86-3.45-1.09-6.72-.78-13.57-1-20.33-.13-4.52.5-9.22.27-13.86A6.49,6.49,0,0,1,664.35,401.88Z" transform="translate(-8.22 -54.92)"/><path d="M243.08,400.62c0,15.06,1.25,29.15-1.11,43.15l-1.36.26c-3.59-9.38-7-18.85-10.82-28.14-4-9.6-3.68-19.75-5-30.52a6.36,6.36,0,0,1,1.8,5c0,.77.34,2.17.64,2.2,6.15.67,4,5.46,4.19,8.77.14,2.39.8,3.6,3.13,4.23a21.91,21.91,0,0,1,4.3,2.29C238.78,405.28,239.51,403,243.08,400.62Z" transform="translate(-8.22 -54.92)"/><path d="M728,357.44a30.21,30.21,0,0,0-8.43,8.31,20.63,20.63,0,0,0-2.15,5c-.77,2.3.2,3.82,2.55,3.48,3.91-.56,8,.67,11.77-1.32,1.6-.85,3-.76,3.48,1.21.58,2.33-1.33,2.31-2.73,2.32-5,0-9.65.7-11.77,6.26a1.87,1.87,0,0,1-2.51,1.06c-1.61-.62-3-1.67-2.87-3.61.06-1.18.57-2.48-1.16-2.71s-2.18.9-2.72,2.3c-1.73,4.51-2.34,9.12-.41,13.56,1.05,2.39,1.24,4.86.26,6.67-3.08,5.67-2.18,11.89-3.27,17.81a5,5,0,0,1-2.3,3.55c-3.13-5.13-1.4-10.1-.33-14.94a72.81,72.81,0,0,0,1.32-21.68c-.29-3.63.25-7,3.16-9.5a12.17,12.17,0,0,0,4.3-8.13,10.25,10.25,0,0,1,2.41-5.37c1.88-2.31,3.9-4.71,1.17-7.9a2.19,2.19,0,0,1,.78-3.42c1.21-.64,2.87.26,2.71,1.27C720.28,357.27,724.61,356.32,728,357.44Z" transform="translate(-8.22 -54.92)"/><path d="M252,117.21c3.69,7.13,10,6.5,15.31,6.51,5,0,9.14,2.42,13.8,3.2,4,.67,5.43,10.59,2.63,15-3.15,4.93-7.08,9.5-7.22,15.92a17.84,17.84,0,0,0-5.85-11.29,12,12,0,0,0,7.18-2.6c2.4-1.72,3.18-3.95,3.23-6.77.12-6.37-4.37-10.93-10.71-9.79a31.7,31.7,0,0,1-12.25-.51c-6.56-1.31-7.3-.7-7.33,5.75,0,5.22-.08,10,3.05,15.12,3.33,5.43.54,12.17-1.36,18.16a1.9,1.9,0,0,1-1.48,1c-1.13,0-1-1.1-1-1.88a53.85,53.85,0,0,1,.35-6c.68-4.81,1.38-9.49-2.38-13.63-2.13-2.34-.3-5.49-.76-8.18C246,130.28,249.23,124.5,252,117.21Z" transform="translate(-8.22 -54.92)"/><path d="M197.27,408.46c1.78-2.65-.47-4.8-1.61-7.31a11.57,11.57,0,0,1,.1-9.21c1.88-4.71.6-9.1-.91-13.52a2.24,2.24,0,0,0-2.66-1.71c-1.59.25-.75,1.47-.8,2.36a4,4,0,0,1-3.4,3.75c-1.72.36-2.35-1.25-3.18-2.57-2.24-3.6-5.86-4.5-9.84-4.48-1.62,0-3.77.32-3.27-2.35.42-2.22,2.21-1.59,3.59-1,3.82,1.53,7.88.18,11.84,1.13,2.16.52,2.69-2,1.91-4-1.79-4.46-3.87-8.74-8.67-10.81-.9-.39-2-.77-1.6-2.06.3-.93,1.31-.92,2.13-.85,3,.27,4.85-.49,4.11-4.1-.32-1.58.82-1.91,2.19-1.82,2.11.15,2.12,1.69,1.38,2.81-2.37,3.62-.45,6.27,1.71,8.89a10.39,10.39,0,0,1,2,5c.6,3.16,1.6,6,4.47,8a7.16,7.16,0,0,1,3,6.5c-1.47,11.34,1.64,22.25,2.5,33.35.16,2,.87,5.46-1.6,5.52s-2.45-3.32-2.58-5.66C197.93,412.48,197.57,410.69,197.27,408.46Z" transform="translate(-8.22 -54.92)"/><path d="M715,557.62c-5.41,5.29-4.82,13,1.73,15.2.86.3,2.26.6,1.82,1.84s-1.83,1.11-3,.84c-7.46-1.66-7-1.38-11.28,5.22a93.31,93.31,0,0,1-12.79,15.55c-7.57,7.52-13.23.49-19.69.39,4-1.77,8.28-1.86,12.37-3.46,9.64-3.76,14.16-11.94,18.94-20,1.47-2.49,1.54-5-2.45-5.14-1.32-.06-2.44-.63-2.45-1.93,0-1.62,1.29-2.1,2.77-2.16s2.75-.19,2.93-2c.2-2.1-.13-5.32,2.05-5.56C708.71,556.11,712,555.59,715,557.62Z" transform="translate(-8.22 -54.92)"/><path d="M187.16,572.93c5-1.91,8.81-4.32,7.8-10.13a13.24,13.24,0,0,1-.33-1.95c-.06-1.94-3.92-2.85-1.92-4.93s5.07.73,7.48-.83a1,1,0,0,1,.88.3c1.17,4.05,2.23,8,7.35,9.09.69.15-.87,2.68-2.45,2.63-4.77-.16-4,2.75-2.61,5.12,6.43,10.61,13.17,21,27.45,21.83,1.24.07,2.45.83,4.33,1.51-5,1.23-9.37,2.34-13.76,3.34-.77.18-2,.27-2.41-.16-6-6.16-13.22-11.28-16.86-19.47a17.08,17.08,0,0,0-3.56-5.36c-1.94-1.91-4-2.63-6.06-.47C190.59,575.45,189.21,574.77,187.16,572.93Z" transform="translate(-8.22 -54.92)"/><path d="M638.47,579c4.07,1.84,7.82.51,11.56-.52,1.64-.44,2.69-.17,2.89,1.55s-1.1,2.12-2.59,2.11-3.62-1.85-4.21.59c-.49,2,2,2.81,3.36,3.82,3.58,2.57,7.22,2.89,11.56,1.22,5.19-2,10.88-2.09,16.47-2.22,4.73-.12,6.59-4.37,9.26-7.15a90.16,90.16,0,0,1,8.62-7.43,4.22,4.22,0,0,1,5.38-.14,34.09,34.09,0,0,1-6.75,5.55c-2.36,1.66-4.9,4-5.8,6.63-2.7,7.81-9.42,6.27-14.9,6.63-2.72.18-5.4.71-8.06.43-.73,2.56,2.23,2.57,2.23,4.37a5.07,5.07,0,0,1-5,.65c-4.08-1.58-7.69.27-11.18,2-1.88.91-3.7,3.27-5.6,1.1-1.52-1.74-1.57-5-.11-6.55,3.73-4,.76-5.11-2.14-6.62C641.11,583.78,638.61,582.69,638.47,579Z" transform="translate(-8.22 -54.92)"/><path d="M599.91,617.84c-3.64-4.93-3.48-10.23-1.75-15.36,2.23-6.6,5.36-12.84,10.24-18,1.51-1.58,2.13-3.09.14-5.49,5.85,1.82,8.57,5.14,10.52,9.5,1.65,3.68,4.69-.33,7.1.84-.27,2-2.08,1.82-3.27,2.29-1.9.74-3.18,1.73-2.86,4,.28,2.08.83,3.78,3.28,4.38,3.51.86,6.92,2.17,10.45,3,3.18.7,6,1.81,8.17,5.15-8.43-2.4-17.33-1.71-23.79-8.71-1.92-2.08-3.28-3.84-3.31-6.78,0-2.5-1.09-3.15-3.39-1.19a17.61,17.61,0,0,0-6.21,10.32C604.34,607.53,599.09,611.55,599.91,617.84Z" transform="translate(-8.22 -54.92)"/><path d="M267.51,577.61c-.32,4.72-3.7,5.59-6.08,7-2.72,1.64-3.3,3-1.12,5.36,1.29,1.37,1.17,3.06,1.11,4.71-.09,2.91-2.34,3.53-4.08,2.4-4.79-3.11-9.73-4.32-15.32-3.15-.87.18-2.12.43-2.74-.53-.79-1.22.6-1.54,1.14-2.28,2-2.81-.7-2.89-2.11-3a109.91,109.91,0,0,0-11.48-.07c-3.55.15-6.06-1-7.58-4.38-2.28-5.05-6.79-8-10.85-11.44-1-.8-3.4-1.23-2-3.24,1.17-1.62,2.81-.1,4,.37,3,1.19,5.14,3.73,7.14,6.11,2.34,2.79,5.25,5,7.73,7.61s6.88,1,10.41,1.56c3.79.56,7.64.89,11.15,2.35,5.4,2.26,8.89-.86,12.63-3.72.89-.68,1.53-1.46,1-2.49s-1.61-.86-2.6-.42a6.39,6.39,0,0,1-1.91.53c-1.41.16-2.81,0-2.82-1.85s1.62-2,2.87-1.8C259.67,578,263.18,580,267.51,577.61Z" transform="translate(-8.22 -54.92)"/><path d="M410.29,443.05c-.52-.19-1-.22-1.12-.44-2.47-4.85-7.27-6.5-11.62-9-3.4-2-1.8-9.43,2.37-12.89,3-2.51,6-4.79,10.31-5.35,7.79-1,11.22-7.49,14.85-13.41,3.74-6.09,7.11-12.42,11-18.39,1.67-2.55,4.16-4.7,7.69-4.71a2.19,2.19,0,0,1,2.32,1.49c.35,1,.1,2.23-1,2.45-7.43,1.46-8.51,8.54-12,13.47-3.36,4.78-6.42,9.77-9.56,14.71-3.34,5.27-8.82,6.72-14.33,8a10.1,10.1,0,0,0-6.11,4c-3.66,4.88-2,8.85,4.07,10,5.37,1,7.19,5.28,4,9.48A3.39,3.39,0,0,1,410.29,443.05Z" transform="translate(-8.22 -54.92)"/><path d="M463.78,378c3,.31,4.88,3.18,6.52,5.63,4.72,7.08,9.29,14.3,13.33,21.78,2.78,5.13,6.92,8.44,12.2,9.16,8.19,1.12,11.88,6.61,14.49,13.13,1.5,3.75-2.22,6.05-4.89,6.87s-4.71,1.64-6.12,4.24c-.8,1.5-2.24,3.68-4.11,3.07-2.46-.82-.93-3.77-1.71-5.7-.61-1.5.67-3.15,2.52-3.72a9.38,9.38,0,0,0,1.47-.25c2.55-1.26,7.19.26,7.21-4.37s-2.61-8.94-7.12-9.58c-11.07-1.58-16.43-8.84-21.44-17.73a173.08,173.08,0,0,0-10-15.88c-1.14-1.6-2.72-1.76-4.16-2.44-1.2-.57-2.6-.78-2-2.72S461.94,378.21,463.78,378Z" transform="translate(-8.22 -54.92)"/><path d="M296.28,578.76c-.36,3.82,2.34,5.6,4.09,7.87,5.46,7.1,9.38,14.76,8.62,24.09-.17,2-.22,4-2.34,5.32-2.69-7.36-5.08-14.67-8.52-21.58a16.62,16.62,0,0,0-3-3.93c-.79-.86-1.64-1.81-3-1.19-1.18.54-.83,1.69-.76,2.63.4,5.38-4.28,8.16-7.4,9.6-5.18,2.38-10.87,5.07-17.17,4.08-.46-2.32,1.54-3,2.89-3.1,4.42-.32,8.08-3.12,12.4-3.52,3-.28,4-2.41,4.25-4.73s-1.39-3.49-3.74-3.7c-1-.1-1.74-.88-2.42-2.77,6.37,2.42,8.58-2.05,10.64-6.11C292.15,579.22,294.93,580.65,296.28,578.76Z" transform="translate(-8.22 -54.92)"/><path d="M124.94,276.7c-1.16-8.72-9.14-13.3-9.47-20.06-.38-7.63-9.82-10.73-7.82-19.42,2.45,1.85-.41,6.5,4.19,5.86,2.39-.33,4.94.62,7.11-1.32,1.31-1.17,3.12-.86,4.77-1,8.14-.75,16.63,2,24.43-2.4a1.78,1.78,0,0,1,2.56.84c.89,2.28,1.44,4.59,3.76,6.11,1,.65.39,2.24-.6,3s-2,0-2.45-.83c-2.32-4.34-6.5-4.21-10-3.27-6.41,1.71-12.82,1.55-19.28,1.57-2,0-4-.22-5.08,2.15s0,3.73,1.51,5.25c4.7,4.75,5.65,11.32,8.18,17.13C127.58,272.3,126.67,273.74,124.94,276.7Z" transform="translate(-8.22 -54.92)"/><path d="M751.8,249.86c-.65-4.24,3.61-6.41,4.28-10.14.23-1.27,1.71-1.1,2.51-.65,7.5,4.21,15.64,2.2,23.49,2.26,3.34,0,5.7,1.76,8.55,2.52,1.81.49,3.92-.14,5.9-.26l-.1-.1c.75.82,1.17,2.32.37,2.62-4.41,1.68-3.35,5.93-4.58,9.08-1.32,3.37-2.25,6.93-5.12,9.5-3.23,2.88-4.22,7.12-5.94,11-1.35-2.39-.88-4.34-.43-6.62,1.27-6.5,4.53-11.72,8.48-16.83,2-2.58.53-6.21-2.4-6.09-9,.37-17.71-.76-26.53-1.81a4.45,4.45,0,0,0-4.7,3,3.41,3.41,0,0,1-3.92,2.4Z" transform="translate(-8.22 -54.92)"/><path d="M31.07,276.12c-4,1.83-7,3.94-10.59,4.61-1.14.21-2.59,0-2.77,1.52a3.76,3.76,0,0,0,1.79,3.33c2.92,2.31,6.4.56,9.57,1.45,2,.58,3.24.35,2.61,3.1-2.34,10.22,5.79,14.65,11.06,20.48-5.34,1.63-8.53-1.93-10.79-6.33-3.37-6.55-7.29-12.35-14.3-15.5-4.24-1.9-4.48-7.74-9-9.5-.65-.25-.43-1.29,0-1.76a2.63,2.63,0,0,1,3.2-.7c3.09,1.76,5.25.59,8.12-1.1S26.81,274.31,31.07,276.12Z" transform="translate(-8.22 -54.92)"/><path d="M219.52,357.23c9.68,3.37,9.62,3.37,9.53-6.35a17.09,17.09,0,0,0-1.23-5.75c-.44-1.2-.69-2.36.65-3s1.61.76,2.21,1.44a8,8,0,0,1,2.29,5.35c-.08,4.52.59,8.38,4.85,11.17,2.6,1.71-.15,3.17-1.27,4.2-2.58,2.39-6.32,3.38-5.29,8.65a2.94,2.94,0,0,1-5.24,2.41C222.29,370.12,221.49,363.8,219.52,357.23Z" transform="translate(-8.22 -54.92)"/><path d="M674.75,372.16c1.66-4.73-2.21-5.07-3.91-6.57-2.47-2.17-4.54-3.41-.48-6.18,2.12-1.45,3-4.24,2.73-7.13a10.39,10.39,0,0,1,2.41-7.87c.66-.8.83-2.49,2.38-1.77,1.25.58,1.26,1.87.68,3-1.47,2.95-1.3,6.11-1.3,9.26,0,5.17,1.42,6.22,6.09,4.22.91-.39,1.69-1.31,2.66-.57a2.24,2.24,0,0,1,.47,3.16c-2.8,3.35-2.27,7.83-4.18,11.45-1.09,2.07-2.11,4.86-4.87,4C675.18,376.42,675.25,373.53,674.75,372.16Z" transform="translate(-8.22 -54.92)"/><path d="M660.52,201.93c-8.18-.41-16.07,1.39-24,3.08-5.59,1.18-7.48,4.19-8.47,11.61-.23,1.73.32,3.58-.61,5.38-2.86-3.28-3.5-7.31-1.64-11.84,1.32-3.19,2.45-6-.45-9.11-1.12-1.19-.41-3.18.28-4.75h0c4.49,5.35,10,6.77,16.09,4.29,4.09-1.67,7.92-4.06,12.7-3.57,2,.2,3.81-1.06,5.35-2.41.83-.73,1.52-2.11,2.75-.63a2.12,2.12,0,0,1-.11,3.14c-1.83,1.3-1.31,3.27-1.89,4.92Z" transform="translate(-8.22 -54.92)"/><path d="M279.24,221.5C278,221,278.16,220,278.06,219c-.24-2.46-.15-5-.88-7.35-1.17-3.68-3-6.29-7.78-6.94-7.29-1-14.37-3.25-21.87-3.54-2-.07-3.71-3.68-4.25-6.07s1.5-2.89,3.18-1.45c6.07,5.18,14.47,3.63,21.11,7.62,3.26,2,7.32-.66,10.62-2.72.88-.55,1.76-2,2.89-.56a2.12,2.12,0,0,1-.3,2.77c-3.08,2.9-2,5.78-.38,8.92s1.11,6.8.28,10.23C280.49,220.67,280.27,221.47,279.24,221.5Z" transform="translate(-8.22 -54.92)"/><path d="M636.56,251.18c2.56,5.34,1.83,10,2.15,14.12.57,7.54,1.59,15.38-.69,22.77s-2.37,15.1-6.09,21.82c-1.68,3-3.72,5.8-4.37,9.29-.12.64-.7,1.3-1.4,1a2,2,0,0,1-1.1-1.47c.08-2.57-.32-5,1.16-7.64A98.73,98.73,0,0,0,632,297.74c5.46-14.4,3-29.11,3.87-43.67A25.58,25.58,0,0,1,636.56,251.18Z" transform="translate(-8.22 -54.92)"/><path d="M329.29,551.08c-3,1-6,2-8.94,2.81a2.37,2.37,0,0,1-2.87-1.35c-1.24-2.15-3.47-4.08-3.82-6.33-.83-5.25-.64-10.65-1.77-15.92a2.39,2.39,0,0,1,1.86-2.63c1.45-.12,1.51,1.51,1.93,2.51.32.75.16,2.08.64,2.32,6.28,3.18,6.55,9.93,9.16,15.25C326.29,549.4,328.36,549.24,329.29,551.08Z" transform="translate(-8.22 -54.92)"/><path d="M576.64,552.34c1.69-1.29,3.23-1.85,3.61-2.86,2.47-6.52,5.13-12.86,10.4-17.76.69-.63.18-2.69,1.8-2.38,1.31.25,2.66,2.07,2.19,3-2.52,4.71-.61,9.88-1.88,14.59-.66,2.45-2.67,4.53-4,6.78-1.65,2.69-3.56,1.22-5.55.48C581.32,553.45,579.36,553.08,576.64,552.34Z" transform="translate(-8.22 -54.92)"/><path d="M721.68,574c13.36-7.2,18.17-19.61,20.43-33.46,3.84,2,5.31,5.29,2.87,10.48-2.9,6.17-5.07,12.78-9.42,18.23a17.82,17.82,0,0,1-8.17,6.29C725.58,576.15,723.83,576.55,721.68,574Z" transform="translate(-8.22 -54.92)"/><path d="M751.66,249.72a15.31,15.31,0,0,1,.51,2.38c.38,6,4.16,8.59,8.51,4.68,4.72-4.25,7.21-.71,10.48.94a4,4,0,0,1,2.39,3.35c-3.6,1-7.21,2.11-10.91,2.86-4,.79-7.9,1.36-8.51,6.67a2.59,2.59,0,0,1-1.86-2.89c.3-3.61-.9-6.78-2.27-10.06-1.16-2.74-2.82-6.15,1.81-7.79Z" transform="translate(-8.22 -54.92)"/><path d="M615.69,614.76c6.34,1.59,13.25,1.6,19.85,4.38,3.62,1.52,7.7,2.45,11.54,3.81,2.25.8,3.13,2.24,2.51,4-.68,2-2.47.87-3.78.31-9.48-4.1-19.21-7-29.7-6.54a3.62,3.62,0,0,1-1-.1c-2.39-.63-5-2.24-4.9-4.28C610.39,613.89,613.52,615.37,615.69,614.76Z" transform="translate(-8.22 -54.92)"/><path d="M489.06,446.41c-1.26,3.41-1.62,6-4.17,7.65s-2.58,2-3.3-1.1c-.37-1.57-1.59-1.58-2.71-1.47a7.76,7.76,0,0,1-7.45-3c-1.56-2-3.42-2.17-5.59-.66-3.1,2.16-6.41,2.84-10,.46,1.17-1.69,2.91-.93,4.37-1.07,6-.59,9.55-4.18,9.75-10.22.05-1.74.15-3.44,1.58-4.47.79-.57,1.7.48,1.74,1.21.14,2.21,4.2,3.46,1.79,6.08-2.76,3-1.3,4.41,1.43,6C480.28,448.17,484.18,448.34,489.06,446.41Z" transform="translate(-8.22 -54.92)"/><path d="M184.69,573.92c-4.28,2.25-6.92,0-9.55-1.89-5-3.55-7.73-8.89-10-14.32a58.21,58.21,0,0,0-3.12-6.65c-2.75-4.76-1.25-10,3.91-12.3-5.33,5.81,2.81,8.2,2.15,12.84A12.59,12.59,0,0,0,173.81,564C178,566.69,180.91,570.28,184.69,573.92Z" transform="translate(-8.22 -54.92)"/><path d="M77.7,319c1.73-.15,3.09-.13,3,1.53-.26,3.4,1.44,5.67,3.88,7.65.79.64,1.5,1.59.8,2.58s-1.87.54-2.67,0a20.26,20.26,0,0,0-8.27-3.22c-3.49-.69-6.92-.72-9.83,2a15,15,0,0,1-3.86,2.22,3.62,3.62,0,0,1-4.5-1.18c-1.38-1.91,1.23-2.07,2-3.08C63.32,321,71.63,322,77.7,319Z" transform="translate(-8.22 -54.92)"/><path d="M296.77,614.21a10.18,10.18,0,0,1-9.83,5.63c-9.31-.15-17.86,2.52-26.25,6.15-1.17.5-2.72,2.17-3.72-.12a2.79,2.79,0,0,1,1.82-4C271,617.68,282.94,612.61,296.77,614.21Z" transform="translate(-8.22 -54.92)"/><path d="M153.33,269.71c-4.19-9.4-14.31-4.75-20.17-9.76,1.16-3.34,5.4-3.9,7.9-6.44.91-.91,1.74.32,2.37,1.06a7.12,7.12,0,0,0,5.1,2.82c2.88.14,5.89.24,5.56-4.16-.1-1.26,0-3.11,1.75-2.93s1.31,2.06,1.31,3.32a7,7,0,0,1-.45,3.42C154.38,260.93,153.84,265.25,153.33,269.71Z" transform="translate(-8.22 -54.92)"/><path d="M802.85,125.58c-8.48,1.38-12.16,6.15-13.62,13-.33,1.53-1.18,3.36.75,4.43a3.35,3.35,0,0,0,4.5-.54,4.91,4.91,0,0,1,4.06-1.56c.9.07,1.74.41,1.74,1.38,0,.51-.67,1.5-.94,1.47-8.45-1-8.93,6.71-12.55,11.15-3.28,4-7.4,7.36-11.2,10.94a1.47,1.47,0,0,1-2.22-.1,1.52,1.52,0,0,1,.06-2.23,74.85,74.85,0,0,1,6-6c6.52-5.41,10.26-11.58,7.34-20.49-1.39-4.26,2.6-7.06,4.77-9.69S797.37,122.36,802.85,125.58Z" transform="translate(-8.22 -54.92)"/><path d="M829.94,320c3.39,1.29,7.48,1.47,11.16,2.52s6.36,4.71,9.42,7.33a1.1,1.1,0,0,1-.34,1.71c-1.13.66-2.27,1.65-3.65,1.22a8,8,0,0,1-3-1.7c-6-5.57-12-3.58-18.18-.44-1.06.54-2.28,2.16-3.38.53-.83-1.23.17-2.33,1.33-3.29a7.83,7.83,0,0,0,3.2-6C826.5,319.53,828.07,319.9,829.94,320Z" transform="translate(-8.22 -54.92)"/><path d="M344.09,487.07c3.42-4.17,8.1-2.48,11.91-1.71,8.37,1.69,16.48,4.71,25.19,2,1-.33,3.15-.77,3.4.92.35,2.38-2.06,2-3.51,2.5-12.93,4.43-24.9-.71-37.08-3.77Z" transform="translate(-8.22 -54.92)"/><path d="M271.49,290.41c-3,.79-3.31-1.32-3.6-3.35a89.86,89.86,0,0,1-.15-24.24c.45-3.57-1-7.59,2.64-10.84l1.11,38.44Z" transform="translate(-8.22 -54.92)"/><path d="M740.33,304.75c1.69,1,2.19,2.34,1.32,3.84-5.2,9-8.49,19-15.48,27.07-2.14,2.47-4.71,5.34-5.22,9.12-.13,1-.7,2.58-2.27,2-1-.39-.76-1.7-.77-2.67,0-2.8,2.25-4.42,3.57-6.4,5.19-7.79,10.46-15.44,14-24.22.85-2.1,2.7-3.86,3-6.42C738.58,306.2,739.68,305.51,740.33,304.75Z" transform="translate(-8.22 -54.92)"/><path d="M836.4,346.4c-1-5.38,4.27-4.5,6.55-5.65,3.15-1.58,5.92-3.05,8.34-5.72,1.64-1.81,3.45-3.77,6.38-4.31a4.89,4.89,0,0,0,3.7-5.71c-1-3.79.7-4.91,3.52-6.13,1.06-.46,1.75-1.76,3.39-2.33-1.43,3.15-3,6.23-4.23,9.46-2.47,6.71-8.55,9.7-13.78,13.45-2,1.47-3.32,3.49-5.19,5-2.73,2.26-5.26,4.35-8.82,1.73Z" transform="translate(-8.22 -54.92)"/><path d="M666.73,209.55c5.41,6.85,2.82,12.9-1.5,18.42-2.23,2.86-2.56,5.15-1.09,8.5a22.87,22.87,0,0,1,.7,15.89,12.06,12.06,0,0,1-1.8-7.25c0-3.55.24-6.94-2-10.32a7.26,7.26,0,0,1,.45-8.76C665,221.29,667.79,216.07,666.73,209.55Z" transform="translate(-8.22 -54.92)"/><path d="M42.75,318.86c2.07.54,4.12.53,3,3.77a6.37,6.37,0,0,0,4.66,8.17c1,.25,2.07.18,2.68,1.07,3.72,5.39,9.39,7.77,15.15,10.09,1.11.45,3.07,1.23,1.73,2.71-.79.87-1.36,3.65-4.12,1.74s-5.47-3.49-7.69-6c-1.44-1.62-3-3.74-4.9-4.22-6.63-1.68-8-8-11.43-12.35C40.8,322.61,39.39,319.88,42.75,318.86Z" transform="translate(-8.22 -54.92)"/><path d="M241.2,250.74c-.63-5.75-.61-10.58,1.27-15.36,1.14-2.88,1.06-5.65-1.37-8.22-5.23-5.53-5.76-11.79-2-18.8,1.41,1.52.75,3.22.87,4.71.28,3.64.76,7,3.33,10.07,4.59,5.49,4.39,7.6.31,13.89-1,1.53-.3,3.23-.52,4.84C242.7,244.57,244,247.53,241.2,250.74Z" transform="translate(-8.22 -54.92)"/><path d="M410.6,310.79c-.86-1.49-2.22-2.76-2.16-4,.33-5.8-4.21-7.86-8-8.41-6.83-1-11.89-5-18-8.09,4.09-1.21,7.42.78,10.78,1.74,3.77,1.07,7.24,3.15,11,4.22C410.83,298.16,413.08,301.16,410.6,310.79Z" transform="translate(-8.22 -54.92)"/><path d="M523.29,291.8a11.91,11.91,0,0,0-7.07,3.57c-2.39,2.33-5.72,2.27-8.81,2.91-6.68,1.37-10.76,5.43-11,13.17-3.74-5.58-3.27-9.66,1.45-12.45,7.12-4.22,15.21-6.17,22.94-8.94C521.59,289.78,522.41,290.3,523.29,291.8Z" transform="translate(-8.22 -54.92)"/><path d="M468.26,468.16c3.49,4.84,3,8.15-1.73,11.58s-4.39,4,1.07,6.35c.41.18.7.6,1.42,1.25-3.22,2.57-6.74,1.74-10,1.41-1.85-.19-2.34-2.27-2.17-4,.26-2.63,1.49-5.38,4.17-5.51,4.08-.19,5.16-1.91,4.83-5.58C465.68,471.66,466.63,469.89,468.26,468.16Z" transform="translate(-8.22 -54.92)"/><path d="M307.62,489.58c-.34,1.09-.35,1.85-.64,2-4.6,1.93-8.55,4.31-9.06,10.05-.12,1.38-1.83,1.68-2.57.33-2.39-4.37-6.59-4.87-10.82-5.54-1-.17-2.57-.28-2.43-1.87s1.56-1.5,2.7-1.45c2.29.08,4.56-.2,6.88.48,2.88.85,5.81,1.07,8.17-1.67C301.74,489.68,304.54,490,307.62,489.58Z" transform="translate(-8.22 -54.92)"/><path d="M281.87,197.05c-1.45-12.4-11.46-22.27-6.27-35.29,1.89.79,1.65,2.1,1.66,3.1.1,7.31,3,14.06,4.14,21.14.34,2.05,2.46,2.46,2.76,4.48C284.49,192.75,284.42,194.61,281.87,197.05Z" transform="translate(-8.22 -54.92)"/><path d="M485.49,506.07c14-1.49,24.16,5.9,35.51,10.52C518.22,518,496.52,511.48,485.49,506.07Z" transform="translate(-8.22 -54.92)"/><path d="M649.87,225c-6.35-2.43-11.6,1.68-17.26,3.5-1.54.5-2.48.81-3.24-.7a1.94,1.94,0,0,1,1.1-2.85c6.3-3,12.68-5.81,19.95-4.92,1.6.2,3.69.23,3.46,2.57C653.67,224.65,651.69,224.69,649.87,225Z" transform="translate(-8.22 -54.92)"/><path d="M385.13,515.38c10.94-4.4,21.12-11.31,34-9.32l-33.42,11.27C385.52,516.68,385.33,516,385.13,515.38Z" transform="translate(-8.22 -54.92)"/><path d="M437.16,486c1.38-1.57,4.31-.8,4.12-2.64a4.36,4.36,0,0,0-3.35-3.76c-.77-.14-1.62-1.26-1.94-2.11a8.48,8.48,0,0,1,.6-6.75c.32-.67,1.09-1.19,1.59-.8,1.92,1.46,2.11,3.52,1.82,5.79-.32,2.43.25,4.19,3.34,4.28,3.26.09,6.21,1.3,5.59,5.29-.58,3.78-4,2.5-6.38,2.71C440.59,488.19,438.62,488.11,437.16,486Z" transform="translate(-8.22 -54.92)"/><path d="M601.46,490.57c1.15.45,2.47.59,3.26,1.32,4.78,4.39,10.25,3.33,15.79,2.32,1.37-.25,3.41-.91,3.74,1.13.27,1.71-1.67,1.67-2.94,1.86-4,.58-7.68,1.81-10.12,5.35-1.57,2.27-2.92.7-3.08-.66-.54-4.68-2.68-7.48-7.5-8.13a1.59,1.59,0,0,1-1.3-2.25C599.59,491,600.69,490.88,601.46,490.57Z" transform="translate(-8.22 -54.92)"/><path d="M377.39,521.15c-7.35,9-16.87,8.42-25.79,9.67-1.69.24-2.42-1.12-3-2.2-.7-1.42.4-2.6,1.49-3.26A3.73,3.73,0,0,1,353,525C361.43,528.37,368.88,524.77,377.39,521.15Z" transform="translate(-8.22 -54.92)"/><path d="M260.35,220c5.22-.79,10.14,2.37,15.39,4.23,1.67.59,1.58,1.94,1.05,3.31-.69,1.75-1.7,1.39-3.15.73-5.73-2.57-11.49-5.11-18.07-4.33-1.48.18-3.31-.13-3.09-2.25.17-1.68,1.78-1.69,3.14-1.69Z" transform="translate(-8.22 -54.92)"/><path d="M111.89,143.73c4.39-1.44,7-1.76,7.74,3.51.65,4.74,4.83,7.63,8.23,10.73,1.7,1.55,3.45,3.07,5.16,4.62.78.71,1.35,1.63.57,2.57a1.7,1.7,0,0,1-2.64-.07c-5.09-5.65-13.57-8.48-14.5-17.64C116.27,145.59,113.74,145.32,111.89,143.73Z" transform="translate(-8.22 -54.92)"/><path d="M271.49,290.42c4.45,6,3.35,14.35,8.42,20.17,2.29,2.64,1.79,5.79.83,9.07-6-5.28-11-21.43-9.25-29.25Z" transform="translate(-8.22 -54.92)"/><path d="M181.72,335.16c-2.78-.38-3.35-2.94-4.64-4.76-4.79-6.74-8.17-14.27-11.8-21.65a5.38,5.38,0,0,1,.19-4.57c.72.48,1.77.78,2,1.37,3.18,9.28,8.64,17.33,13.71,25.59a5.07,5.07,0,0,1,.93,3.78Z" transform="translate(-8.22 -54.92)"/><path d="M753.79,235.85c-2.48-5.82,2.26-8,3.7-11.35,2.18-5,5.56-9.43,8.3-14.19.63-1.09.63-3.11,2.22-2.68,1.88.5,1.35,2.61.77,3.78-2.15,4.37-4.08,9-7,12.78C759.05,227.63,756.23,231,753.79,235.85Z" transform="translate(-8.22 -54.92)"/><path d="M152.33,234.16c-3.42-5-6.69-10-10.2-14.87-1.95-2.68-2-6.26-4.5-8.7a2,2,0,0,1,.52-3c1.08-.54,1.94.21,2.31,1.23,2.82,7.71,8.56,13.71,12.27,20.9C153.7,231.57,154.4,232.79,152.33,234.16Z" transform="translate(-8.22 -54.92)"/><path d="M533.31,525.1c1.45,0,3.48-.62,4.28.11,4.53,4.11,9.17,2.46,13.91.86a5.07,5.07,0,0,1,3.9.07,3.2,3.2,0,0,1,1.89,3.68c-.26,1-1.27,2.68-2.24,2.3-6.78-2.62-14.77.09-21-4.86A1.74,1.74,0,0,1,533.31,525.1Z" transform="translate(-8.22 -54.92)"/><path d="M623.09,94.06c.41-2.39.61-4.17,1-5.89a12.54,12.54,0,0,1,16-9.12c.82.24,1.79.49,1.5,1.49a2.53,2.53,0,0,1-2.84,1.53c-4.46-.45-7.61,1.42-9.79,5.16-.57,1-.7,2.32-1.43,3.12A42.5,42.5,0,0,1,623.09,94.06Z" transform="translate(-8.22 -54.92)"/><path d="M264.18,81.06c10.46-4,16.93-3,18.56,13C276.83,88.64,274.58,79,264.18,81.06Z" transform="translate(-8.22 -54.92)"/><path d="M819.54,334.47c-3.34,7.14-10.21,10.72-15.64,15.73-3.24,3-7,5.4-10.55,8.11-1,.77-2.08,2.53-3.2,1.09-1.31-1.68,1-2.19,1.83-3.25,1.5-2,3.89-2.21,5.78-3.39C805.9,347.66,811.41,339.57,819.54,334.47Z" transform="translate(-8.22 -54.92)"/><path d="M872.27,269.55c1.49-2.65,2.6-4.09,4.16-4.5,6-1.58,9.15-6.69,13.19-10.64,1.07-1,1.64-2.86,3.37-1.42,2,1.63,0,2.54-.83,3.94C887.72,264,880.31,266.06,872.27,269.55Z" transform="translate(-8.22 -54.92)"/><path d="M90.4,335.86c.79.7,1.54,1.31,2.22,2a101.9,101.9,0,0,0,22.5,17.95c.94.53,2.54.91,1.43,2.43-.86,1.18-2.09.59-3.06-.19-8-6.41-15.95-12.81-23.87-19.29-.47-.39-.46-1.48-.49-2.24C89.12,336.34,89.86,336.13,90.4,335.86Z" transform="translate(-8.22 -54.92)"/><path d="M282.69,698.69V666.35h.87v32.43Z" transform="translate(-8.22 -54.92)"/><ellipse cx="614.82" cy="628.94" rx="0.63" ry="22.12"/><path d="M118.25,140c-2.71-7.07-4.75-13.92-14.31-14.11,4.87-2.65,7.69-2.18,11.51,1A11.33,11.33,0,0,1,118.25,140Z" transform="translate(-8.22 -54.92)"/><path d="M284.87,119.53a3.25,3.25,0,0,1-1.44,3.21c-1.62.72-1.71-1.14-2.2-2a48.89,48.89,0,0,1-3.78-7.51c-.58-1.66-.42-4.1,1.58-4.72,2.21-.68,1.68,1.9,2.26,3C282.62,114.21,283.74,117,284.87,119.53Z" transform="translate(-8.22 -54.92)"/><path d="M134,191a23.19,23.19,0,0,1,0,3.44c-.17,1.16-1.35,2-2.08,1.14a26.9,26.9,0,0,1-4.69-7.11c-.28-.69-1-4.61,2.23-4.32,2.23.21,5.31.6,4.49,4.42a21.38,21.38,0,0,0-.24,2.41Z" transform="translate(-8.22 -54.92)"/><path d="M773.88,196.83c-2.16-3.14-.49-6.23-.69-9.2-.14-2.14,1.58-2.66,3.18-3.16.88-.29,2.08-1,2.45.4.46,1.68,1.28,4.43.55,5C777,191.81,776.25,194.88,773.88,196.83Z" transform="translate(-8.22 -54.92)"/><path d="M623.37,124.2c-2.11-2.7-2.07-4.93-.8-7.3.84-1.59,1.54-3.26,2.37-4.85.68-1.31.32-4.18,2.3-3.51,2.16.72,2.32,3.38,1.29,5.53C627,117.31,625.28,120.48,623.37,124.2Z" transform="translate(-8.22 -54.92)"/><path d="M26,264c-4.71-.17-11.56-5.12-12.76-9.23a1.85,1.85,0,0,1,.58-2.23c.73-.51,1.76-.72,2.25,0,2.74,4.31,7.47,6.91,9.83,11.53Z" transform="translate(-8.22 -54.92)"/><path d="M239.13,191.19c.54,4.32,2.46,6.23,5.16,8.36s-.43,5.07-3,7.79C241.05,201.69,235.9,197.78,239.13,191.19Z" transform="translate(-8.22 -54.92)"/><path d="M660.53,202c1.62-3.55,7.06-4.23,6.73-9.31,3.13,5.54-2.23,9.58-1.77,14.65-3.56-.56-3.07-4-5-5.48A.64.64,0,0,0,660.53,202Z" transform="translate(-8.22 -54.92)"/><path d="M551.24,302.39c-5.59-.28-10.52-2.42-15.38-4.75a1.39,1.39,0,0,1-.53-2.11,2,2,0,0,1,2.71-.26c2.6,2.08,6.21,2.07,8.66,4.55C547.87,301,549.71,301.55,551.24,302.39Z" transform="translate(-8.22 -54.92)"/><path d="M182.08,626.7c0,1.74-1.46,1.49-2.45,1.15-3.23-1.1-5.22-4-7.8-6-1.15-.91-.11-2.13,1.12-2.58C173.66,619,182,625.73,182.08,626.7Z" transform="translate(-8.22 -54.92)"/><path d="M723.57,628.38c3.17-2.72,5.7-5,8.37-7.11a2.06,2.06,0,0,1,3.09.39c.71,1.06-.2,1.73-1.09,2.33C731,626,729,630.13,723.57,628.38Z" transform="translate(-8.22 -54.92)"/><path d="M203.61,721.87c2.28,4.54.57,8.58,1.93,12.19a1.45,1.45,0,0,1-1.22,1.86c-1.3.27-1.91-.73-1.91-1.73C202.39,730.3,201.37,726.3,203.61,721.87Z" transform="translate(-8.22 -54.92)"/><path d="M356.13,302c4.44-3.27,8.57-7.3,15.89-6.85C366.9,300,361.22,300.29,356.13,302Z" transform="translate(-8.22 -54.92)"/><path d="M703.94,724.33c0,3.84,0,7.69,0,11.53,0,.86-.33,1.68-1.31,1.8s-1.76-.6-1.54-1.43c1-3.93-.5-8.2,1.38-12Z" transform="translate(-8.22 -54.92)"/><path d="M238.38,276.19c-1.6-3.91-1.61-6.88,0-14C240.57,266.74,240.59,272.41,238.38,276.19Z" transform="translate(-8.22 -54.92)"/><path d="M667.18,261.7c2.32,5.68,2.15,10.28,1.18,16.18C665.5,272.14,666.59,267.44,667.18,261.7Z" transform="translate(-8.22 -54.92)"/><path d="M772.78,367.52c4.16-3.49,8.27-6.89,14-6.91C782.1,363,778.12,366.77,772.78,367.52Z" transform="translate(-8.22 -54.92)"/><path d="M108.4,208.05c-2-4.91-2-8.75-1.86-12.61,0-.68.16-1.36.9-1.55,1.08-.29,1.25.51,1.62,1.31C110.91,199.14,109.43,202.9,108.4,208.05Z" transform="translate(-8.22 -54.92)"/><path d="M798.2,208.29c-1.18-5.77-2.71-10.22,1-15.48C800.38,198.28,800.42,202.75,798.2,208.29Z" transform="translate(-8.22 -54.92)"/><path d="M182.08,334.92c4.16,1.24,4.81,5.34,6.69,8.4.48.79-.25,1.94-1.2,2.46-.69.38-1.58-.06-1.56-.64.17-4.05-5.1-5.71-4.29-10Z" transform="translate(-8.22 -54.92)"/><path d="M119.57,358.84a41.83,41.83,0,0,1,14.23,7.26l-.6,1.26-14.11-7Z" transform="translate(-8.22 -54.92)"/><path d="M205.81,428.28c-.36,1.21.59,3.82-1.23,3.55-3.12-.45-2.28-3.89-2.82-6.1-.31-1.27.33-3.6,2.06-3.07C206.28,423.41,205.68,426.12,205.81,428.28Z" transform="translate(-8.22 -54.92)"/><path d="M81.59,354.33c-4.36-.72-5.52-5.65-9.38-7.15-.8-.31-.65-1.8.8-2,2.78-.38,8.81,6.21,8.47,9.25Z" transform="translate(-8.22 -54.92)"/><path d="M75.91,313.41c-3.67-.89-6.84-2.44-10.5-2.22-.42,0-1.21-.75-1.24-1.2a2,2,0,0,1,1-1.49c2.61-1.55,5.08-.94,7.2,1A46.26,46.26,0,0,1,75.91,313.41Z" transform="translate(-8.22 -54.92)"/><path d="M831.79,314.12c5.79-7.08,6.59-7.29,10.93-3.39C839.45,313.21,834.93,311.17,831.79,314.12Z" transform="translate(-8.22 -54.92)"/><path d="M528.78,309.57c.92-3.12,3.26-4,2.82-6.28a2.32,2.32,0,0,1,2.09-2.82,1.82,1.82,0,0,1,2.11,1.62c.05,1.52.6,3.61-1.5,4.11C532.46,306.64,531.33,308.06,528.78,309.57Z" transform="translate(-8.22 -54.92)"/><path d="M700.78,428.78c.1-2.32-.36-4.82,2.09-5.21,1.34-.21,2.33,1.89,2,3.33-.52,2,.07,5.42-2.48,5.69C699.51,432.89,701.68,429.72,700.78,428.78Z" transform="translate(-8.22 -54.92)"/><path d="M100.27,182a2.07,2.07,0,0,1,2.16,1.44c.62,2,1.15,4,3.39,5,.73.34.73,1.47.16,2.19a1.69,1.69,0,0,1-1.26.5c-1.85-.1-6.16-6.35-5.5-8C99.42,182.59,100,182.22,100.27,182Z" transform="translate(-8.22 -54.92)"/><path d="M563.24,545.27c-1.35-1.17-4.84,1.05-4.67-2.47,0-1.15,1.69-3.17,3.61-2.42,1.65.64,4.27.76,4.09,3.49C566.15,545.58,564.87,545.9,563.24,545.27Z" transform="translate(-8.22 -54.92)"/><path d="M807.25,184.79c-.55,2.92-3.25,4.42-4.74,6.74-.47.73-1.57.53-2.1-.31a1.79,1.79,0,0,1,.49-2.63,6,6,0,0,0,3.32-4.63c.1-.88.65-2.11,1.93-1.78S807,183.79,807.25,184.79Z" transform="translate(-8.22 -54.92)"/><path d="M343.08,544c-.95-.46-3.09.78-2.84-1.5s2.38-3.14,4.37-3.31c1.26-.12,3.09.78,3,2.06C347.4,543.7,345.18,543.94,343.08,544Z" transform="translate(-8.22 -54.92)"/><path d="M333.05,495.14c2.23-4.67,5.45-8,11-8.07L344,487c-2.27,4.64-7.47,5.24-11.08,8Z" transform="translate(-8.22 -54.92)"/><path d="M168,356.45c-2.45,2.35-5.22,2.51-7.95,2.75-1,.08-2.68.25-2.88-1.09-.22-1.52,1.33-1.63,2.49-1.65C162.39,356.42,165.17,356.45,168,356.45Z" transform="translate(-8.22 -54.92)"/><path d="M376.85,307.33c-2.55.5-3.91-1.18-5.63-2s-1.34-2.48-1.05-3.94c.19-.92,1-1.26,1.87-1.38,2.11-.3,1.72,1.42,2.16,2.57C374.82,304.26,375,306.2,376.85,307.33Z" transform="translate(-8.22 -54.92)"/><path d="M255.44,95.66c1.23.89,2.38,1.76,3.57,2.58,1,.67,2.93.77,1.61,2.71-1.07,1.57-2.41,2.09-4.14.78C254.22,100,253,98.19,255.44,95.66Z" transform="translate(-8.22 -54.92)"/><path d="M652,98.1c-.33,2.26-1.43,4.15-3.68,4.61-1.54.32-3.24-1.1-3-2.51.45-2.59,4-2.2,5.33-4.34C650.76,95.71,651.87,97.11,652,98.1Z" transform="translate(-8.22 -54.92)"/><path d="M139,315.25c1.72,3.9,2.57,6.83.33,10C136.55,322.25,136.62,319.29,139,315.25Z" transform="translate(-8.22 -54.92)"/><path d="M750.09,358.18c-4.34,3.23-7.87,1-11.42-.36C742.25,357.47,745.85,356.53,750.09,358.18Z" transform="translate(-8.22 -54.92)"/><path d="M169.25,663.58c1.29,5,2.59,9.92,0,14.91Z" transform="translate(-8.22 -54.92)"/><path d="M100.5,150A56.5,56.5,0,0,1,96,144.3c-.47-.76.86-2.25,1.67-1.51,1.82,1.68,4.86,2.34,5.2,5.32C103,149.08,102.13,149.87,100.5,150Z" transform="translate(-8.22 -54.92)"/><path d="M808.76,143.05a1.67,1.67,0,0,1,1.81,1.34c.2,1-4.3,5.7-5.3,5.54s-1.16-1-1.22-1.86C804,146.53,807.21,143.07,808.76,143.05Z" transform="translate(-8.22 -54.92)"/><path d="M619.88,709.59c2.06,4.2,1.48,7.54-.09,11.1C617.36,717,617.88,713.62,619.88,709.59Z" transform="translate(-8.22 -54.92)"/><path d="M810.7,173.2c-1.42,1.7-2.73,3.82-5.2,4.52-.64.18-1.58-.79-1.29-1.7a8.06,8.06,0,0,1,4.52-4.82C809.76,170.72,810.44,171.77,810.7,173.2Z" transform="translate(-8.22 -54.92)"/><path d="M100.62,177.17c-2.11-.59-3.2-2.68-4.36-4.53-.52-.82.44-1.71,1.29-1.64,2.61.19,3.52,2.7,5,4.28C103.41,176.18,102.05,176.9,100.62,177.17Z" transform="translate(-8.22 -54.92)"/><path d="M235.59,282.82c1.53,2.6.8,4.94.87,7.11,0,1-.16,2.66-1.9,2.14a2.15,2.15,0,0,1-1.34-2.85C233.85,287.24,234.65,285.32,235.59,282.82Z" transform="translate(-8.22 -54.92)"/><path d="M773,293.73c.31-1.72-.55-3.92,1.69-4.24,1.81-.25,1.82,1.64,1.7,2.86-.16,1.7-.18,4.13-2.25,4.29C772.24,296.79,773.69,294.51,773,293.73Z" transform="translate(-8.22 -54.92)"/><path d="M745.72,296.92c-1,1.32,0,3.91-2,4.51-1.37.41-2.33-1.19-2-2.66.36-1.64.09-3.95,2.25-4.43C745.3,294,745.62,295.57,745.72,296.92Z" transform="translate(-8.22 -54.92)"/><path d="M171.61,642c3.8,2.93,3.85,5.51,2.41,8.32-.16.3-1.06.61-1.18.49C170.46,648.38,171.86,645.63,171.61,642Z" transform="translate(-8.22 -54.92)"/><path d="M734,643.72c.47.83.74,1.1.77,1.39.29,2.43.84,5-1.18,6.94-.49.47-1.17-.34-1.43-.95C731,648.38,731.51,646,734,643.72Z" transform="translate(-8.22 -54.92)"/><path d="M204,676.67c-1-3.56-1.32-7.18.25-10.75C205.41,669.48,204.89,673,204,676.67Z" transform="translate(-8.22 -54.92)"/><path d="M161.64,288.85c-.47,1.51-.66,3.41-2.27,2.95s-1.6-2.7-2-4.22c-.28-1.1.22-2.57,1.75-2.31C161.13,285.61,161.05,287.63,161.64,288.85Z" transform="translate(-8.22 -54.92)"/><path d="M165,297.71c-.13,1.71,0,3.72-1.68,3.32-2.46-.58-1.45-3.29-1.94-5.06-.29-1-.17-2.84,1.34-2.37C164.55,294.19,164.62,296.4,165,297.71Z" transform="translate(-8.22 -54.92)"/><path d="M619.36,655.45c.5.25.69.28.78.4a6,6,0,0,1,.68,6.95,1.43,1.43,0,0,1-1.27.12C618,660.57,617.22,658.13,619.36,655.45Z" transform="translate(-8.22 -54.92)"/><path d="M736.81,679.38a15.88,15.88,0,0,1-.1-10.17C738.59,672.52,738.15,675.93,736.81,679.38Z" transform="translate(-8.22 -54.92)"/><path d="M136,308.61c-.38,0-.58,0-.63-.07-1.83-2.31-1.72-4.86-.82-7.46,0-.09,1.16-.08,1.33.18C137.45,303.7,137.07,306.16,136,308.61Z" transform="translate(-8.22 -54.92)"/><path d="M286.75,707.79c.73,3.93,2.5,7,.09,10.18C284.35,713.88,284.32,713.4,286.75,707.79Z" transform="translate(-8.22 -54.92)"/><path d="M796.53,243.59c2.75-5.19.79-11,2.46-16.35,0,4.91,0,9.83,0,14.74,0,1.86-.89,2.34-2.54,1.52C796.43,243.49,796.53,243.59,796.53,243.59Z" transform="translate(-8.22 -54.92)"/><path d="M746.66,292.75c-.44-.88-.71-1.17-.71-1.46,0-2.07-.87-4.38,1.37-5.9a1.32,1.32,0,0,1,1.18.45C749.31,288.3,749.29,290.6,746.66,292.75Z" transform="translate(-8.22 -54.92)"/><path d="M286.64,653.86c2.38,3,1.43,5.33-.92,8.48C284.68,658.88,284.43,656.42,286.64,653.86Z" transform="translate(-8.22 -54.92)"/><path d="M670.18,283.5c2.34,2.65,2.31,5.12,2.77,7.37a1.39,1.39,0,0,1-1.26,1.75c-1,.05-1.43-.86-1.47-1.61C670.1,288.83,670.18,286.64,670.18,283.5Z" transform="translate(-8.22 -54.92)"/><path d="M204.22,480.2c-1.2-2.06-3.1-3.92-1.84-6.51a1.36,1.36,0,0,1,1.29-.18C206,475.44,204.59,477.87,204.22,480.2Z" transform="translate(-8.22 -54.92)"/><path d="M289.46,723.13c.38.19.78.26.91.49,1.22,2.1,1.58,4.32.28,6.49-.37.62-1.19.31-1.57-.34C287.75,727.48,287.37,725.24,289.46,723.13Z" transform="translate(-8.22 -54.92)"/><path d="M616.13,732.65c-1.66-3.22-1.5-5.64-.08-8.19C618.67,727.63,618.67,727.63,616.13,732.65Z" transform="translate(-8.22 -54.92)"/><path d="M134,173.72c-.1.63.16,1.78-1.09,1.59a4.27,4.27,0,0,1-3.68-3c-.38-1.29.71-1.81,1.74-1.81C132.93,170.52,134.06,171.53,134,173.72Z" transform="translate(-8.22 -54.92)"/><path d="M776.55,282.64c0-1.69.09-3.53,2.09-3.85,1.05-.16,1.47,1.22,1.26,2.25-.33,1.64-.18,4-2.15,4.33C776.33,285.64,776.73,283.7,776.55,282.64Z" transform="translate(-8.22 -54.92)"/><path d="M25.94,264.08c4-.86,6.36,1.25,8,4.66-2.33-2.13-6.34-1.3-7.9-4.77Z" transform="translate(-8.22 -54.92)"/><path d="M588.16,558.13c1.34,3.1,3.51,4.71,2.07,7.31-.11.21-1.08.25-1.31,0C587.09,563.7,586.78,561.64,588.16,558.13Z" transform="translate(-8.22 -54.92)"/><path d="M767.21,325.93c-.41-1.41-.71-1.89-.64-2.31.4-2.28-1.18-4.91,1.15-6.84a1,1,0,0,1,.85.18C769.1,319.78,769.69,322.63,767.21,325.93Z" transform="translate(-8.22 -54.92)"/><path d="M777.55,172.77a4.63,4.63,0,0,1-3.35,3c-1.25.32-1.89-.56-1.86-1.69a3.12,3.12,0,0,1,3.12-3.22C776.56,170.78,777.38,171.33,777.55,172.77Z" transform="translate(-8.22 -54.92)"/></g></g></svg>