<svg xmlns="http://www.w3.org/2000/svg" viewBox="0 0 870.54 893.25"><title>8ball</title><g id="Layer_2" data-name="Layer 2"><g id="Layer_1-2" data-name="Layer 1"><path d="M654,1H846c1.66,8.94,3.56,17.84,4.93,26.82C853.68,46,857.4,64,859.12,82.3c.85,9,2.71,18,3.61,27,1.61,16.33,2.64,32.71,4.29,49,2.18,21.61,3,43.3,3.69,65,.4,12.19,1,24.44.78,36.72-.22,11-.22,22-.37,33-.26,19.21-.58,38.41-1.09,57.61-.29,11.1-.5,22.12-1.77,33.26-2.33,20.32-4.17,40.83-3.22,61.4.09,1.82,0,3.66-.08,5.49-.5,17.75-3.19,35.38-3,53.17,0,3.29.72,6.59.61,9.87-.42,12.19-.57,24.41-1.8,36.53-.69,6.68.11,13.16.15,19.73.11,19,.61,38-.16,56.91-.54,13.3-.55,26.58-.75,39.87,0,.33,0,.67,0,1-2.12,24,.22,48-.34,72-.19,8.11,1.4,16.07,1.32,24.14,0,3.81-1.11,7.49-1,11.36.23,9.22.84,18.53-.21,27.64a458.39,458.39,0,0,0-3.17,54.1c0,12.39.35,24.66-1.61,36.91H790c.78-3-.84-5.86.36-9.22,3.79-10.69,4.32-21.95,3.6-33.23,0-.6-.4-1.6-.79-1.7-6-1.44-7.84-7.89-13.1-10.56-7.12-3.62-13.46-8.77-20.37-12.86-3.19-1.88-6.59-2-8.73,2.28a33.64,33.64,0,0,1-7.15,9.5,19.88,19.88,0,0,0-5,8.54c-1.38,4.29-3.06,8-7.29,10.47-5.08,2.91-10.41,5.8-14.56,9.8-5,4.82-9.73,3.32-15,1.52a32.39,32.39,0,0,0-6.24-1.63c-10.84-1.39-21.61-3.77-32.66-3a6.14,6.14,0,0,1-2.9-.52c-5.33-2.57-11.17-2.58-16.72-2.27a116.48,116.48,0,0,1-25.52-1c-5.15-.84-10.23,0-14.17,4.15-.75.8-2.07,1.68-3,1.56-4.12-.48-5.42,2.18-6.65,5.22a4.41,4.41,0,0,1-1.75,2.29c-8.27,3.87-16.63,7.55-24.9,11.45-2.3,1.08-4.91-.85-7.09,1.31-3.66,3.62-8.53,4-13.34,4.39-3.42.31-6.63,1.09-10-1.23-1.93-1.33-3.69,1.45-5.49,2.52-2.29,1.35-1.23-4.68-4.33-2.13-.25.21-.6.48-.87.44-3.51-.45-8.26,1.2-10.25-1.75-3.11-4.62-8.16-4.35-12.13-5.92-3-1.16-5.52-1.9-7.34-4.55-.73-1.07-1.42-2.5-2.49-3-7.57-3.33-12.59-9.32-17.13-15.88-1.21-1.74-2.4-3.92-4.77-4-8.6-.33-17.12-2.58-25.75-1.45a80.89,80.89,0,0,1-20.8-.05c-8.93-1.16-17.76-.15-26.47.69a198.4,198.4,0,0,1-21.23.49c-4.11,0-6.89.72-8.9,4.14-1.34,2.28-3.19,3.74-5.88,3.41a1.66,1.66,0,0,0-2.12,1.46c-.91,4.77-4.7,5.52-8.51,6.16a13.31,13.31,0,0,0-3.66,1.36c-4,1.88-7.2,6.84-12.74,3.83a1.39,1.39,0,0,0-1.29.44c-1.37,4-5.25,1.75-7.6,3.17s-1.85-2.52-3.74-1.75c-5.91,2.41-11.74.37-17.51-.62-3-.51-7-2.43-8.72-1.93-5.15,1.52-9.22-5.14-14.19-1.08-.94.78-2-.77-3.05-1.22-7.42-3.23-13.17-8.93-19.64-13.53a10.38,10.38,0,0,1-4.54-6.29c-.6-3.06-3.7-5.44-5.86-5.25-5,.42-9.51-1.14-14.24-1.63-6.05-.64-12.11,1.81-17.75.68-9.29-1.86-18.28,1.05-27.57,0-6.66-.73-13.69-.48-20.58-.88-7.19-.41-14.39-.74-21.69.64-4.58.87-9.49-.83-12.71,4.29-1.82,2.89-4.47,5.25-6.57,8-3.7,4.8-5.28,10.61-7.41,16.15-1,2.64.82,4.87,2.43,3.72,3.37-2.42,6,.07,8.88,0,6.33-.11,12.19,1.23,17.24,5.38,1.2,1,2.81,1,4.61.91a140.83,140.83,0,0,1,25,.89c8.25.92,16.57,1.78,24.87.81,10.49-1.22,20.87.26,31.31.64,9.46.34,18.66,3.5,28.12,2.92,8.34-.51,16.48.63,24.62,1.74,8.5,1.15,16.94,2.46,25.55,1.36A1.66,1.66,0,0,1,316,894H237c-3.29-2.42-7.11-1.91-10.82-1.94A93.88,93.88,0,0,0,204,894h-5c-6.5-4.26-13.7-1-20.54-1.76-3.63-.39-7.67-.11-11.17-.56-6.88-.89-13.82.5-20.7-1.49-4.77-1.38-9.91-3.27-15.18-.68-2.3,1.12-4.34-.55-6.27-2-3.86-2.88-6.34-2-7.73,2.57A20.9,20.9,0,0,0,117,894H96c2.15-17.34,1.52-34.81-.36-52-1.77-16.17-2.09-32.36-2.53-48.49-.51-18.19-.29-36.45-.34-54.68,0-1.15-.42-2.3-.41-3.45.11-12.49-3.3-24.66-3.18-37.16q.22-23.57,0-47.14c-.13-12.33,1-24.6,1.15-36.92.05-5.24-.21-10.53.12-15.71.49-7.73,2-15.27.82-23.18-.84-5.35-2.55-11.09-1.61-16.22,2.13-11.69.91-23.34,1.23-35,.28-9.85-.68-19.74-.76-29.62-.14-15.44.81-30.84,1.76-46.25C93,430.63,93.22,413,94.29,395.46c.88-14.54,2.08-29.08,3.74-43.54,1.92-16.89,5.45-33.59,5-50.73-.06-1.92-.13-5.21,3.49-4.84,13.34,1.34,26.48-2.26,40-1.14,8.19.67,16.72-1,25.14-.47a53.94,53.94,0,0,0,8.37.31c7.39-.7,14.84-2,22.3-.28,3.94.93,7.79.36,11.78-.47,6-1.23,12-2.63,18.22-2.27,8.26.47,16.37,3.06,24.72,1.89,6.14-.85,12,.22,18,1.38s12.45,2.35,18.79,1.53a109.14,109.14,0,0,1,13.87-1.14c18.43,0,36.86-.1,55.29-.08,2.17,0,3.54-.43,4.6-2.65,3.07-6.41,6.61-12.59,9.74-19,5.7-11.59,11.17-23.29,16.87-34.88,2.55-5.21,5.66-6.64,9.71-5.52,5.52,1.52,4.52,5.82,3.66,9.3-2.41,9.8-4.91,19.56-6.25,29.58-.79,5.9-2,11.74-2.65,17.64-.15,1.31-1.49,3.78,1.67,4.12,10.72,1.16,21.41-.63,32.17-.05,9,.49,18.14-.19,27.21,0,6.57.16,13.89,2.43,17-6.46a2.54,2.54,0,0,1,.56-.83c2.37-2.63,5.18-2.73,8.15-1.25s4.47,3.54,3.09,6.8c-.68,1.6-.1,2.6,1.26,2.17,5.57-1.74,11.21.44,16.75-.6,6.77-1.28,13.64-2.26,20.47-1.68a86.82,86.82,0,0,0,16.52-.06c7.22-.76,14.42-2.31,21.64-2.39,10.75-.13,21.38,2.2,32.19,2.37,5.28.09,10.63-.37,15.77,0,11,.9,22,2.7,33.13,1.68,7.1-.65,13.69,2.89,21,2.6,11.21-.46,22.48.88,33.73,1.37,5.36.23,10.68,1.33,16.1.57,6.44-.9,12.37,2.93,18.93,2,10.09-1.42,20.18-4,30.45-.85,1.32.41,2.94-.24,4.43-.34,6.25-.42,12-4.5,18.41-3.06,4.71,1,8.94,1,13-2.69a973,973,0,0,0-181.92-90.91L622.24,213c3.17,17.36,8.23,34.48,4.82,52.52-1.13,5.93-3.76,10-9.66,11.8a28.06,28.06,0,0,1-14.09.69c-7.84-1.59-18.21-8.06-20.64-17.86-3.51-14.17.12-28,.47-42a108.56,108.56,0,0,1,2.8-23.16c.48-2,.53-4-2.47-5-16.66-5.64-33.69-10-50.63-14.63-2.37-.65-3.07.16-2.57,2.46,1.57,7.25.9,14.62.54,21.89-.3,6-2.07,12-9,14.16a30.74,30.74,0,0,1-21.8-1.09c-11.17-4.79-15.45-14-15.88-25.69-.25-6.52,1-12.93.9-19.42,0-1.63.29-3.62-2.2-3.69-2.87-.07-5.45-1.41-8.21-1.83-31.2-4.68-62.34-9.81-93.95-11.08-9.38-.37-18.75-1.1-28.14-1.56-13.34-.65-26.7-1.07-40-1.34-33.87-.7-67.77.44-101.65-1.08-14.2-.63-28.43-.69-42.63-1.39-12.89-.64-25.73-2-38.58-3.32q-24.52-2.51-48.64-7.11A654.32,654.32,0,0,1,1,115v-4c1.73-.75,3.22.18,4.79.65,5.4,1.61,10.88,3,16.18,4.88,3.68,1.3,6.72.64,9.82-1.42,25.52-17,51.3-33.53,75.64-52.2a137,137,0,0,1,12.11-8.73c3.93-2.38.71-5.89,1.9-8.76.65-1.58-2.49-1.59-3.93-2-7.59-2.34-15.2-4.73-22.86-6.74A465.7,465.7,0,0,1,33.54,15.76C22.67,11.22,11.85,6.59,1,2c.9-2.07,2.7-.94,4-.94Q97.51,1,190,1c-1.69,3.27.62,3,2.63,3q24,0,48,0c1.62,0,3.45-.55,5.59,1.24-12.16,2.89-23.9,4.47-35,8.66a17.11,17.11,0,0,0,5.41,3c13.39,4.49,25.65,11.43,38.16,17.79,3,1.55,5.9,3.68,4.18,7.86-1.42,3.46-5.68,4.57-9.92,2.7-1.52-.67-3-1.48-4.46-2.26C229.11,34.83,213,28.29,196.6,22.37c-3.07-1.11-4.83-.88-6,2.63-2.44,7.56-4.83,15.12-6.77,22.84-1,4,.7,4.88,4.25,5.23,13.53,1.31,27,3.06,40.56,4.24s27,2.57,40.54,3.13c10.61.44,21.22.73,31.82,1.5,9.42.68,18.88.32,28.32.63,8,.25,16,.89,24,.79,12-.16,24.11,1.31,36.16,2.17,2.84.2,3.75-1.14,4.06-3.75.5-4.11,1.52-8.15,2-12.26,1.27-10.84,5-21.35,4.46-32.42-.15-3.37,1.77-4.86,4.51-5.69,7.75-2.34,11.72.66,13.26,9.38,1,6,2,12,4.52,18.38C430.08,26.51,435.58,13.51,442,1H554c6.47,2.09,13.19,2.92,19.9,3.78,3.44.45,7.58,2.91,10.15,1.07C588,3,591.83,4.22,595.69,4c5.95-.29,11.93-.08,17.89-.08l0,1.46c-8.17,2.56-16.59,1.78-25,1a11.82,11.82,0,0,0,3.75,1.57c15.94,3,31.94,5.63,47.81,9,4.15.87,6.85-.25,9.9-2.43C655,10.94,653.7,5.78,654,1Zm49.47,395.69c3,1.3,4.2,7.23,1.5,9.58-1.3,1.13-2,2.16-.89,3,2.09,1.49.88,3.16,1,4.82.46,6.1-3.67,12.61,1.6,18.3.17.19-.15,1.23-.29,1.24-4.95.43,1.35,2.26-.39,3.05,2.69,5.61,2.47,11.87,4,17.75.49,1.94.48,2.28,2.88,2.36,3.93.12,8.61,1.24,11.54,3.09,7.72,4.84,16.83,5.93,24.49,10.59,3.54,2.15,5.64,1.11,5.35-3.41-.39-6.11-1.13-12.51-.26-18.31,1.37-9.14.61-18.44,2.84-27.48,1-4.05-.51-8.51-1.35-12.45-.53-2.48-1.66-4.5-.37-6.95,2.71-5.15,2.69-10.81,2.57-16.33s3.06-14.74,7.84-15.58c7.15-1.24,11.72-6.64,18.06-9,2.66-1,6.48-1.5,7.84-3.23,3.92-5,9.49-7,14.58-9.85,9.78-5.5,17.3-13.81,26.14-20.46,2.84-2.13,5.15-4.28,5.08-9.46-4.4,4.87-8.53,2.52-12.78,1.24-3.9-1.17-7.92-2.58-11.91-2.65-3.3-.06-5.75-.59-7.58-3.27-1.41-2-2.94-2.13-5.09-1-4.66,2.44-10.16,3.28-13.83,7.61a4.68,4.68,0,0,1-4.65,1.3c-5.46-1.28-9,1.73-12.81,5-2.79,2.37-4.89,6.17-9.31,6.08-3-.07-5.44,1.15-8.23,3.95.41-3.45-1.4-5-2-6.19-5.06,7-11.13,11.66-20.83,9.47,1,2.44,4.3.73,3.66,3.57-.45,2-2.33,1-3.49,1.4-2,.75-5.56.73-5.76,1.09-2.2,3.72-5.21,2.56-9.22,1.15,5.37,4.41,5.12,6.17-.23,9.24-1.43.82-4.29,1.94-4.22,2.13,1.41,4.09-7.33,5.92-2.38,10.66.23.23-.16,1.74-.45,1.8-5.24,1.21-2,3.17-.71,5.31a6.35,6.35,0,0,1,.59,4.35c-1.39,5.52.8,11.51-2.27,16.78-1.13,0-.73-2.77-2.41-1.5-1.3,1-.37,3.46,0,3.52,4,.79,1.53,3.65,1.46,6.18C705.64,401,705.64,401,703.47,396.69ZM285.17,613.08a141.38,141.38,0,0,0-1.68-21.29c-.53-3.11-2.34-4.12-5.29-3.86a126.5,126.5,0,0,1-19.66,0c-2.31-.15-4.78-1.3-6.86-.75-10.76,2.83-21.17-.79-31.69-1.52-14.89-1-29.73-.65-44.6-.25-9.42.25-18.79,1.62-28.24,1.08-2.37-.13-2.77,1.61-2.86,3.25-.53,9.39-1.78,18.85-1.16,28.18.69,10.31-.14,20.42-.92,30.62-.37,4.85-1.57,9.8-1.26,14.45.24,3.74.66,7.75.58,11.42-.12,5.08-1.12,9.92.31,15.15,2.78,10.18-.79,20.55.06,30.93.91,11.17-1,22.48.19,33.68a70,70,0,0,1,.08,13.34c-.48,5.28-1.27,10.48-2,15.72a16.7,16.7,0,0,0,1.26,9.63c2,4.45-1.44,8.85-2,13.24-1,8.51-.52,17.21-.53,25.83a4,4,0,0,0,2.09,3.78c3.46,1.4,6.77,3.1,10.89,1.93,6.6-1.88,13.86-1.71,20.13-.63,10.24,1.77,20.57,3.46,30.76,3.4,12.53-.08,25.07.11,37.6.1a6.63,6.63,0,0,0,5.81-3.32c1.35-2.19-1.61-2.35-2.41-3.6-1.84-2.85-6.35-6-5.86-8,1.83-7.6-6.86-11.24-5.71-18.11-6.18-5.13-5.27-13.13-5.86-19.45-.75-8.2-1.59-16.91.36-25.31.48-2.07-1.64-4.05-.3-6.27,3.24-5.33.7-11.74,3.45-17.38,2.25-4.62-1-10.7,3.08-15.26a2.49,2.49,0,0,0,.25-1.9c-.8-3.18.8-5.36,2.73-7.57,2.83-3.25,5.27-6.47,5.21-11.39-.07-5.77,1.58-11.2,6.45-15.31a12.49,12.49,0,0,0,4.27-9.67,5.37,5.37,0,0,1,4.17-5.54c2.66-.68,3.63-2.54,5-4.4,3.54-4.88,5.85-11,12.67-12.67.57-.14,1-.83,1.52-1.25,3.54-3,5.46-7.68,10.05-9.64.46-.19.8-1.52.65-2.21C283.61,631.74,286.92,621.09,285.17,613.08ZM865.22,194.81c-1.67-16.56-2.11-34.11-4-51.6-1.73-16.12-2.89-32.3-4.88-48.41-.56-4.52-2.93-6.39-6.4-7.85-19.13-8-38.11-16.43-57.68-23.4C765.54,54,738.61,45.16,711.14,38c-16.68-4.32-33.48-8.14-50.21-12.23-2.95-.72-4.91-.78-5.22,3.24-.42,5.58-1.54,11.12-2.26,16.68-2.4,18.73-4.8,37.45-8.51,56-1.65,8.23-1.64,8.23,6.31,11.28,1.4.54,2.75,1.23,4.18,1.66a828.66,828.66,0,0,1,123.42,49.19c15,7.36,29.95,14.92,44.54,23.23,12.38,7.05,24.74,14.14,36.89,21.58,1.28.79,2.64,2.2,4,1.39,1.62-1,2-3.08,1.66-4.91A34.76,34.76,0,0,1,865.22,194.81ZM617.74,673.19c.63,1.57.75,4.66,2.52,3.58,5.77-3.54,5.67,2.73,8,4.46,3.67,2.68,4.77,7.46,6.9,11.27,3.33,6,7,12,9.53,18.26,2.61,6.48,4.54,13.64,4.22,20.71-.37,8,3.3,15.81.41,23.86-.55,1.56-2,3-1.26,5.13,2.11,6.22-.26,12.73,1.08,19.06a6.42,6.42,0,0,1-.79,4.81c-3.17,3.81-2.47,8.47-3.19,12.74-.44,2.68-.69,5.72-2.23,7.54-7.32,8.63-6.29,21.23-14.71,29.47-4.16,4.07-6.6,9.87-10.14,14.65-2.36,3.17-2.58,4.64,1.93,5.31,14.42,2.15,28.84,3.68,43.38,1.14.58-.1,1.54-.08,1.81.28,3.41,4.42,8.74,3.92,13.09,4.06,11.61.36,22.88,3,34.35,4.08,3,.3,2.79.8,2.62-2.2-.44-8.12-.74-16.26-1-24.39-.1-2.94.74-5.73.46-8.83a244.67,244.67,0,0,1-1-27.87c.1-4,.64-7.87-.59-11.79a6.86,6.86,0,0,1-.16-3.93c2.36-7.22.8-14.73,1.69-22.09,1.18-9.8,0-19.86.48-29.78.67-13.49-3.83-26.6-2.33-40.17.85-7.68-.77-15.45-.1-23.23S710,654.07,710.8,646c.87-8.55.5-17.23,1.16-25.86a91.7,91.7,0,0,0-.82-24.19c-.53-2.82-2.1-3.5-4.74-4.05-5.24-1.08-10.57,1-15.7-.79-7.88-2.72-15.82.59-23.85-.43-11.63-1.47-23.47-1.27-35.2-2-2-.13-3.7.78-6.1-.13-5.86-2.23-12.18-3.37-18.39-4.55-4.66-.88-5.76.33-4.75,5,.4,1.85-.36,3.22-.62,4.81-1,6-3.16,12.35-1.39,18.14,3.27,10.67-1.19,21.24.92,32,.86,4.33-.8,9.79,2.2,13.55,2.85,3.56,5.89,7.46,10.37,9.37C616.83,668.16,620.2,668.9,617.74,673.19Zm-83.63-91.63c-1,.35-1.7.38-1.85.68-3,6.13-9.45,9.22-12.92,14.89a3.56,3.56,0,0,1-2.28,1.76,24.16,24.16,0,0,0-12.65,8.27c-1.43,1.69-3.82,3.91-6,2.83-3.12-1.59-5.34-.42-8,.66-1.5.62-3.41,1.36-4.8.94-6.89-2.05-14.11-1.13-21-2.73-8-1.84-16.39-.42-24.35-2.76a22.37,22.37,0,0,0-6.43-.49c-12.75,0-25.49-.25-38.08-2.61-2-.37-3.9-.7-5.86-1-3.61-.58-5.42,1.31-5.64,4.63-.79,12.07-6.78,23-7.08,35.34-.23,9.62-1,10.77,7.61,15.18,2.18,1.11,5.22,2.34,5.92,4.24,2.29,6.23,7.45,10.82,9.33,17.12,1.07,3.55,1.74,7.44,4.65,9.78,3.88,3.12,5.24,7.83,7,11.76,3.26,7.26,6.29,14.84,6.44,23.3.08,5.13,1.22,10.32,1.69,15.53.64,7,3.75,13.82.67,20.91a2.17,2.17,0,0,0,.71,2.66c2.27,1.48,1.17,3.34.55,4.83-3,7.22-3.42,15-4.84,22.52-1.16,6.17-2.44,13.06-5.29,17.81-4.17,6.92-8.76,13.8-12.76,20.89-3.3,5.86-9.46,9.23-12.17,15.5-1.59,3.67-.79,4.62,3.1,4.77a146.41,146.41,0,0,0,19.64-1c7.8-.75,15.81-1.43,23.39,1.85a2.94,2.94,0,0,0,1,.06c10.21.2,20.36-1.86,30.62-.85,1.45.14,3.67-.58,4.38-1.66,1-1.56-1.82-2.3-2-3.11-1.16-5.07-2.24-10-7.52-12.53-2.33-9.59-6.4-18.58-9.51-27.9-3.6-10.78-4.61-22.13-6.15-33.33a17.2,17.2,0,0,1,.73-8.89c.57-1.41,1.25-3.08.47-4.35-2-3.28-.7-6,.88-8.82a12.48,12.48,0,0,0,1.27-5.77c.16-5.34.35-10.72,3.28-15.5a25.14,25.14,0,0,0,4-13.6c0-3.3.91-6.19,4.18-8.36s6.22-5.67,6.39-9.58c.2-4.85,1.54-8.54,4.92-12,2.17-2.19,3.62-5.11,5.31-7.76,2.43-3.8,6-8.85,8.79-9.6,4.3-1.15,5-3.81,6.78-6.32a1.88,1.88,0,0,1,1.21-.75c3.55-.22,5.34-3,7.77-5,2-1.6,3.64-3.74,6.58-4.21,3.41-.54,8,.77,9.13-4.52,0-.17,1-.37,1.35-.22,3.21,1.32,4.4-.94,5.91-3,.93-1.29,2-3,3.78-3,4.69,0,4.58-3,4.64-6.45.19-10,.46-19.92,1-29.87C532.45,595.79,533.38,588.85,534.11,581.56Zm219.26-14.7c-2.92,2.81-5,5.72-8.11,7.66-7.83,4.88-15.59,9.93-22.9,15.53-2.78,2.13-6,6-5.86,9,.11,3.62.67,7.47.59,11.18-.15,7.19.72,14.32.2,21.59-.49,7-2.11,14-.62,21.25,1.21,5.9,2.73,12,2.17,18.16-1.1,12.21-.19,24.4,0,36.61.17,10.24,1.35,20.44.63,30.77-.59,8.53-2,17.09-1.07,25.76.51,4.91,1.76,10.22,1.16,14.68-1.3,9.73-.83,19.39-1.35,29.06-.71,13.45,2.34,26.71,1.06,40.12a5.4,5.4,0,0,0,3.05,5.38c2,1,2.7-1.29,3.95-2.18a5.65,5.65,0,0,1,1.69-1c6.11-1.56,9.16-6.9,10.16-11.74,1.72-8.32,7.08-13.44,13.2-17.37,3.55-2.28,3.75-4.32,3.73-7.43,0-7,1-14.21-.43-20.88-1.54-7,3.69-13,1-20.36-1.12-3.06,1-8.47,1.13-12.88.31-9,1.36-18,1.3-26.79-.06-7.3-1.08-14.68-.37-22.1.17-1.74-1.35-3.87-.78-5.3,3.08-7.75-3.66-16.18,1.82-23.66.14-.2-.07-.65-.09-1-.34-5.63-1.77-11.12-.95-16.91,1.14-8-2.38-16-.84-24.17a49.05,49.05,0,0,0,1-9.88C757.57,609.08,756.63,588.25,753.37,566.86Zm-351-228.74c-.08,2.38-1,3.71-3.25,4.3s-3.11,2.17-1.38,4.09c2.43,2.7.74,2.89-1.54,2.82-1,0-2.27-1.23-2.56.8-1.2,8.47-2.92,16.91-3.47,25.43-.92,14.13-3.6,27.92-6.81,41.63-3.64,15.49-9.65,30.13-16,44.68-2.38,5.41-5,7.54-10.94,7.21-9.56-.54-10.71,1.66-6.65,10.64.75,1.67,1.64,3.28,2.46,4.92a8,8,0,0,1,.94,4.8c-1.43,10.5,1.37,20.8,1.57,31.21.18,9.28,2.92,18.24,2.43,27.65a126.5,126.5,0,0,0,1.15,24.83c1.88,12.79,3.59,25.62,3.47,38.5-.08,8.82-.13,17.62.09,26.44a7.14,7.14,0,0,0,4.67,6.83c2.3.71,3.85-2.61,4.77-4.95a101.14,101.14,0,0,0,6.2-28.44c1.38-16.53,3.36-33,4-49.66.41-11.3,2.3-22.61,4.1-33.75,1.74-10.74,3.28-21.57,4.1-32.31.69-8.9,1.18-17.69,3.75-27H377.22c.53-2.86,2.32-4.19,3.5-5.92,7-10.27,16.49-18.85,19-32,1.95-10.36,7.39-19.36,13.95-27.7,2.65-3.38,4.32-7.47,9.15-8.36a3.84,3.84,0,0,0,2.8-2.59c3.54-8.16,7.13-16.31,10.64-24.48,6.26-14.58,11.72-29.5,19.12-43.59,1-1.85,3.15-3.35,2.73-6.35-4.8,2.49-8.22,6.2-12.79,8.39-3.34,1.6-5.44,2.38-8.33-1.73,1.57,6.89-3.66,5.48-6,5.81-4.68.66-4.75.1-4.64,4.69-2.82-2.68-6-1.95-7.43,2.54-.49-5.27-3.36-3-5.31-3.46-.67,2.37,5.77.14,1.58,4.08-.93.87.78.94,1.16,1.48s1.5.95,1.14,2-1.38,1.07-2.43,1.24c-2.87.45-5.07-2.07-7.95-1.76.79,2.81,1.23,5.32-2.3,6.78C403.69,344.63,405.51,340.91,402.36,338.12Zm217.5-142.8a34.69,34.69,0,0,0,2-5.52c2.83-14.49,7.53-28.53,10.08-43.1,1.63-9.29,3.79-18.48,5.83-27.69.78-3.51.08-5.87-3.79-6.62-1.46-.28-2.86-.87-4.3-1.24-24.37-6.24-48.49-13.47-73.26-18.13-15.54-2.92-30.9-6.82-46.89-8.73A16.53,16.53,0,0,1,512.16,90c2.92,11.22,5.34,22.54,7.66,33.91,2.91,14.25,6.74,28.33,9.25,42.68.4,2.3,1.3,3.15,3.17,3.7,17.32,5,34.66,10,51.92,15.19,3.14.95,4-.44,4.09-2.84.58-9.77,3.75-19.21,3.71-29.06,0-3.75,1.93-6,5.6-6.31,4-.35,9.15-1.59,10.31,4,1.58,7.65,4.5,14.91,5.7,22.67C614.69,181.2,616.2,188.46,619.86,195.32ZM516.94,474c.27,3.81.48,7.62.82,11.41.76,8.25,1.08,16.58,2.53,24.71,1.19,6.6.94,14.34,10,17,3.47,1,6.45,3.4,10.23,1.64,1.29-.6,1.84-.35,2.81.75,6.44,7.26,10.25,16.21,14,24.77,4.63,10.59,12.13,19.17,17.39,29.23,5.56,10.66,12.52,20.57,17.92,31.35.67,1.34,1.12,3.15,3,2.77,1.6-.32,1.32-2.07,1.39-3.37.38-7.44-.49-14.93.87-22.33,2-11.23-1-22.59.77-33.78,1.08-6.72-.64-13.44,1.24-20.25,1.74-6.33.11-12.45-4.41-18a63.54,63.54,0,0,1-10-16.29c-3.78-9.49-9.15-18-14.35-26.59a5.58,5.58,0,0,0-4-2.59c-14.42-3.21-28.94-5.75-43.71-6.49C516.92,467.67,516.92,467.82,516.94,474ZM501,83.05c-7-2.42-13.88-2.9-20.72-3.78-13.94-1.79-27.86-3.78-41.84-5.14-2.59-.25-6.32-3.38-8,.14-1.07,2.27.07,5.88.88,8.7a132.21,132.21,0,0,1,4.5,44.85c-.33,5.14-2.59,9.88-7.48,12.58-13.79,7.61-37.92-1.7-38.55-20.55a89.51,89.51,0,0,0-.94-12.72c-.64.26-1.05.29-1.19.5-7.49,11.11-14.41,22.59-22.4,33.37-1.95,2.63-1.6,4.5,2.47,4.57,13.89.25,27.69,1.71,41.53,3,22.79,2.14,45.31,5.82,67.85,9.51,9.11,1.49,9,1.48,9.83-7.74,1.12-12,2.36-24,5-35.87,1.49-6.74,3.17-13.61,3-20.6C494.89,89,495.31,84.85,501,83.05ZM531.22,336.3c.87-2.47-4.06-6.41,1.82-7.75.56-.13.09-1.55-.47-2.17s-1-.42-1.57.22a4.44,4.44,0,0,1-5.12,1.55c-1.11-.33-2.74.39-2.73,1.52,0,3.5-2.53,6-3.22,9-.64,2.82-2.76,6.12,1.3,8.89,1.78,1.22,2.37,4.46,1,6.92-2.51,4.65-4.54,9.78-8,13.63-7.31,8.18-12.91,17.65-20.33,25.7-4.16,4.51-6,10.18-7,16-2.29,12.49.15,25.23-1.84,37.76-.21,1.31-.86,3.5.7,4,1.81.59,2.59-1.55,3.51-2.86,6-8.6,11.13-17.68,13.9-27.88.81-3,4.12-3.9,4.66-7.32,1.76-11.11,4.12-22.12,6.2-33.19A24.93,24.93,0,0,1,517,373c1.94-3.54,4.86-3.78,8-2,4.69,2.55,4.18,7,3.07,11-2.42,8.66-3.86,17.49-5.54,26.29-2,10.39-4.38,20.73-4.73,31.37,0,1.1-.53,2.54.68,3.19s2.45-.21,3.53-1.1A160.17,160.17,0,0,1,540.94,428c1.1-.67,3-1.72,1.59-2.89-3-2.55-2.26-6.87-5.67-9.58-2.5-2-5.18-6.24-3.8-10.26,3.4-9.85,6.15-19.64,14-27.84,7.1-7.38,13-16.23,19.34-24.52,6.53-8.54,12.57-17.46,18.91-26.33-3.51-1.21-6.26-3.13-4.9-7.24,1.3-3.95,4.52-4.95,8.41-4.22a9.32,9.32,0,0,0,2.45.25c.94-.08,1.34-.83,1.5-1.73.19-1.05-.42-1.22-1.26-1.64-6.38-3.18-12.85-5.77-20.21-4.06a4.06,4.06,0,0,1-2,0c-10.55-3.48-16.49,2.4-22.37,10-2.75,3.55-3.08,10.29-10,9.77-.23,0-.72.45-.69.62C537.1,332.5,533.13,333.74,531.22,336.3ZM353.52,566.51c0-1.33,0-2.66,0-4-.11-5.81-1.61-6.76-7-4.38-3.59,1.57-7,3.3-11,4.19a28.2,28.2,0,0,0-11,5.42,56.87,56.87,0,0,1-25.44,12c-7.93,1.46-10,3.31-10.48,11.18a35.37,35.37,0,0,0,.86,11.87c1,3.61,2.13,7.75,1.33,11.23-1.89,8.28-.77,16.47-.7,24.7,0,4,2.21,5.47,5.18,3a41.33,41.33,0,0,1,6.68-4c7.71-4.26,15.69-6.48,24.18-1.85,1.27.69,3.56,1.61,4.16,1.07,3.73-3.38,6.59-.24,9.94.57,3.71.89,8.09-.35,11.47,1,4.18,1.73,4.73-.24,4.19-3-1.09-5.54-.12-10.89,1.2-16.07,2.17-8.48-2.56-16-2.39-24.39C354.88,585.65,354.88,576,353.52,566.51Zm78.49,8c-4.82,5.3-11.2,7.93-15.36,13.34-1.46,1.92-.15,3,1.72,2.53,2.87-.64,5.61.47,8.43.08,2.34-.32,3.77.78,2.94,3.15-2,5.79,1.78,6,5.66,6.2,6.09.28,12.27-.81,18.19,1.63,4.6,1.9,9.37,1.87,14.19.92a10.52,10.52,0,0,1,4-.1,115.38,115.38,0,0,0,17.46,2.26c7.75.38,8.5-.72,9.53-8.64.58-4.54-.72-9,.2-13.36s0-7.06-4.72-7.86c-1.66-.28-3.55-.91-3.19-3.07.31-1.87,2.31-2.15,3.64-1.69,6.56,2.23,8.83-2.51,11.28-6.79a22,22,0,0,1,4.64-5.81c1.6-1.38,2.47-2.86,1.56-5.21-1.94-5-1.63-10.54-1.8-15.72-.26-7.94-1.91-13.64-9.87-17.51-4.34-2.1-6-2.22-8.66,1.54-4.7,6.6-8.89,13.51-13.31,20.25-4.62,7.07-11.6,12.58-16.35,19.8-.44.68-1.12,1.78-3,.84,2-4,3.56-8.35,6.16-11.94,7.75-10.69,15.92-21.08,23.91-31.59,1-1.3,1.54-2.77-.07-3.9-1.39-1-3-1.64-4.29.36a21.69,21.69,0,0,0-2.29,3.79c-1.08,2.73-2.11,5.81-4.1,7.81-5.26,5.27-10.32,10.54-14.47,16.84a85.71,85.71,0,0,1-13.8,16.15c-1.42,1.3-3.16,3.47-2.17,5.77s3.36,1.46,5.31,1.52c2.15.07,4.43,1.07,6.38.59,4.59-1.12,5.15,2.41,5,4.8-.15,3,.43,5.88.05,8.81-.13.94-.85,2.09.54,2.49,1.24.35,1.58-.91,2.07-1.73,3.31-5.51,6.52-11.08,9.92-16.53,6.09-9.74,12.19-19.49,18.53-29.07,2.17-3.28,2.23-8.16,7-9.69,1.39,1.8.59,3.79-.12,5.21-2.19,4.42-5,8.52-7.23,12.93-6.55,13.09-16.54,24-23.26,37-2,3.93-4.91,7.33-5.87,11.89-.4,1.91-1.81,4.42-4.39,4-2.81-.44-1.8-3.14-1.86-5-.16-4.43-1.27-8.81-.12-13.32.7-2.75-.14-4.63-3.76-4.81a57.54,57.54,0,0,1-11.12-2c-5.08-1.28-6.28-.58-7.39,4.81-.84,4-1.77,8.06-5.12,11.33C430.75,583.43,433.87,579.54,432,574.5Zm304-20c0-15.81-1.21-16.81-11.93-12.23l-.91.41a3.34,3.34,0,0,0-2.21,3.49,41.68,41.68,0,0,1-7.32,24.72c-2.24,3.39-4.53,4.51-8.23,3.45-4.31-1.23-8.62-2.16-13.18-1.36-3,.53-4.59-.71-4.5-4.13.18-7.11-.12-14.23.13-21.33.15-4.08-1.94-5.36-5.38-5.42-4.83-.08-9.53,1.6-14.25,1.62s-5,2.13-5.22,5.66c-.59,8.3-2.16,16.33-7.58,23.13-1.24,1.56-2.57,2.87-4.43,2.73-8-.61-15.94-1.42-23.9-2.19-2.11-.2-4.14-1.71-3.12-3.47,3.69-6.38.7-13.54,2.92-20,1.5-4.38-1.25-5.72-4.79-5.52A64.56,64.56,0,0,0,609,545.8c-3.46.93-6.14,2.61-6,7.66.2,6.68,1.25,13.55-.91,20.22a3.08,3.08,0,0,0,2.37,3.88c5.53,1.56,11,3.63,16.69,4.16,8.83.85,17.66,1.86,26.56,2.25,10.42.44,20.87,1.16,31.29,2,11.88.92,23.77,3,36,.48,6.89-1.44,11.74-5.37,17.2-8.67a6,6,0,0,0,2.87-5.49C734.5,565.61,735.57,559,736,554.48Zm-576.83,6.26c.56-3.38-.58-6.62-.75-9.94-.24-4.5-2.42-6.22-6.83-5.07-5.16,1.35-10.43-.11-15.72.68-5,.75-8.1,1.9-8.82,6.66a78.27,78.27,0,0,0-1,12.87c.12,8,.61,8,8.46,9.92,8.45,2,16.93,2.15,25.57,2.33,10.25.21,20.5,1,30.75.39,6.75-.41,13.33,1,20,1.34,9.83.46,19.68,1.84,29.49,2.52,5.44.38,11.39-.52,16.9-.1,7.86.61,15.45-.48,23.17-1,2.67-.18,3.75-.85,3.9-3.73q.66-13.07,2-26.09c.2-2-.41-3.16-1.94-3.29-3.07-.26-5.62-2-8.51-2.58-4.69-1-7.42.49-8.07,4.17-.94,5.36-1.49,10.85-3,16.06-3.37,11.87-8.92,14.95-18.76,13.31-5.31-.88-10.51-2.36-16-1.29-1.75.34-2.28-.32-2.07-2.2.36-3.29.16-6.64.53-9.93a107.7,107.7,0,0,1,2.24-14.59c1.15-4.46-.14-7.83-4.52-8.07a156,156,0,0,0-18.22,0c-4.12.28-6.9,1.85-7.34,7.27-.52,6.29-.36,12.84-3.44,18.9s-7.42,8.81-14.16,7a45.8,45.8,0,0,0-19-1.54c-3.39.51-5-1.44-4.56-4.1C160,567.22,158.55,564,159.19,560.74ZM175.94,447.1c-5.73.56-9.28-3.19-7.48-8.26,5.64-15.88,8.33-32.52,12.6-48.75.35-1.34,1.81-2.93.23-4.1s-3.21.07-4.65.83C164.36,393.37,152.11,400,140.7,408c-2.64,1.85-5.4,2.53-8.38.67-.91-.58-2.52-1.76-2.75,0-.31,2.38,0,6.8.53,7.07,4.5,2.38,3.07,7.29,5.14,10.5,4.09,6.34,4.12,14.09,7.55,20.69,1,1.95,3.29,2.83,3.45,6,.13,2.72.46,6.42,1.73,8.75,3.7,6.77,6.08,14,9.1,21.05,4,9.15,3.56,8.77,11.33,2.08,5.92-5.08,8.22-12.83,14.44-17.51,1.2-.91.91-2.77.31-4.24a33.63,33.63,0,0,1-2.4-11.05C180.64,450,180.65,445.72,175.94,447.1ZM486.89,782c-1.28,6.12,8.11,13,11,22.32,1.23,3.9,5.09,8,8.54,11.53,2.87,3,3.83,3.34,6.77.36,3.35-3.37,4-9,8.9-10.84,3.3-1.24,4.53-3.72,4.73-6.89a6.88,6.88,0,0,1,2-4.47c1.87-2,2.24-4.29,2.21-6.89-.08-7.13.2-14.26-.06-21.37-.27-7.5,1.17-14.95.76-22.37-.29-5.36-.75-10.55.88-15.74,1.18-3.77-.54-7.56-3.52-8.34-3.5-.91-4.45-3.08-5.88-5.45-1.53-2.54-3.11-4.57-6.82-4.07-1.23.16-4-.18-4.94-2.56s-2.2-1.16-3.41-.11A84.26,84.26,0,0,0,495.84,720c-3.19,4.22-6.29,8.84-6.35,13.74C489.32,748.21,488.41,762.65,486.89,782ZM266,758.34q0,11.45,0,22.88c0,3.33-.13,7.39,1.88,9.5,4.77,5,6.49,11.72,10.63,17.09,2.87,3.74,4.48,3.39,7.29.81,5.76-5.3,9.57-12.09,14-18.36,5.23-7.32,4.21-15.92,4.17-24.07,0-7.15.87-14.16,1.45-21.22,1-12.25,1.4-24.46-2.15-36.43-.29-1-.89-2.4-1.81-2.07-3.68,1.32-3.67-1-4-3.45a2.47,2.47,0,0,0-2.17-2.34c-2.47-.46-3.8-2.46-5.08-4.42-2.69-4.14-5.58-4-7.83.42-2.61,5.18-4.76,11.24-9.18,14.52-5,3.72-5.36,8.65-6.14,13.32C265.25,735.68,266.05,747.05,266,758.34ZM344.9,512.5a3,3,0,0,0-1.88-2.59c-7-4-13.83-8.37-22.17-9.11a9.93,9.93,0,0,1-6.16-2.75c-2.69-2.49-6.44-5.11-9.76-3.06-6.51,4-14.71,6.43-17.27,15.08-.46,1.56-.83,3.32-1.81,4.52-5.41,6.62-10.4,13.75-16.67,19.46-11,10-19.34,22.07-29.24,32.88-2.86,3.13-2.37,4.08,1.83,5.35,3.79,1.14,7.55.75,11.35.5,5.16-.34,6.78-3.37,7-8.26.36-7.16,2.62-13.94,5.75-20.39.95-2,2.58-2.79,4.58-3.47,6.93-2.34,13.78.75,20.67.12a1.43,1.43,0,0,1,1.19.7c.83,3.83,2.94,1.58,4.27.72,7.5-4.83,15.22-9.34,22.28-14.87,3-2.32,5.51-5.39,9.26-6.46,4.33-1.25,8.11-3.68,12.25-5.3C342.23,514.86,343,512.81,344.9,512.5ZM261.6,311.23c-4.41-.37-8.29.15-11.9,3.44-2.68,2.44-6.57,4-9.32,6.08-3.85,2.91-8.47,4.53-12,8-7.29,7.24-11.52,16.51-17.27,24.75a20.68,20.68,0,0,0-2,3.95c-.73,1.76-.24,2.69,1.77,1.91,9.14-3.52,18.81-5,28.24-7.42,4.76-1.21,10.77-3.67,14.38-.28,5,4.66,7.19.38,10.42-1.19a19.28,19.28,0,0,0,3-2.46c8-6.37,18.56-9.56,23.87-19.25a2.08,2.08,0,0,1,1.05-1c5.71-1.66,2.64-4.82.74-6.78a42.58,42.58,0,0,0-13.47-9.09c-2.73-1.19-5.5-3.24-8.47-1.78S264.7,311.53,261.6,311.23ZM220.94,538c10.24,0,11.29-.53,16-7.49,2.32-3.4,4-7.33,6.73-10.34,7.86-8.7,12.51-19.37,18.54-29.18,1.15-1.86,1.65-4.76-1.1-6.62-4.15-2.81-8.17-6.9-12.74-.58a2,2,0,0,1-1.29.7c-8.57,1.06-14.07,6.68-19.21,12.85-16.25,19.53-31.71,39.73-49.1,58.3-2.7,2.89-4.84,6.31-7.19,9.51-1.32,1.81-1.31,4.05,1,4.25,5.27.44,10.33,2.53,15.76,1.73,4-.59,6.11-2,5.93-6.71a38.89,38.89,0,0,1,4.14-19.71c2-3.78,4.4-6.45,9.33-7.08S217.6,537.71,220.94,538Zm454.43-2.18c12.64.23,12.64.23,18-11.74.27-.6.74-1.11,1.05-1.69,5-9.66,9-19.85,13.17-29.85,3.24-7.8,5.74-15.68,11.43-22.13,1.73-2,1.68-4.57-1-5.21-3.8-.91-8.17-1.58-11.25,1.81-4.34,4.77-8.5,9.73-12.39,14.87-5,6.58-10.53,12.72-15.76,19.07-3.17,3.85-6.71,7.1-7.66,12.13a18.82,18.82,0,0,1-3.3,7.71c-7.73,10.5-14.39,21.77-23.13,31.56a58.13,58.13,0,0,0-8.31,12.24c-1.45,2.83-1.06,3.41,1.89,3.45,4.29.06,8.55-.25,12.87.75,3.11.73,4.91-1.56,4.94-4.76a67.34,67.34,0,0,1,1.44-12.77C660.06,538,662.48,535.6,675.37,535.83Zm-523.66,5.09c5-.91,9.49-1.21,10.62-6.82.26-1.32,1.53-2.52,2.51-3.61,11.63-12.89,23.71-25.37,34.69-38.84,2.46-3,3.2-5.65.66-8.69a33.52,33.52,0,0,0-11.57-9c-2.85-1.35-5.1-1.08-6.76,1.81-3,5.26-7.54,9.2-11.7,13.48-5.38,5.54-11.54,10.24-16,16.75-6.67,9.65-15.5,17.78-20.11,28.93-1.14,2.74-.77,3.59,2,4.47C141.48,541.09,147.33,536.47,151.71,540.92Zm198.36-16.87c0-1.67,0-3.33,0-5,0-1.12.3-2.54-1.12-3s-1.73,1.12-2.52,1.86a36.22,36.22,0,0,1-11.1,7.05,88.52,88.52,0,0,0-13.95,7.29c-6.95,4.42-13.09,10-20,14.49-3.29,2.14-7.94,3.49-9.28,7.81-1.85,6-2.43,12.31-2.86,18.58-.17,2.39.91,2.75,3.07,2.21A92.68,92.68,0,0,0,316,565.92c10.12-5.87,21.25-8.92,31.74-13.66,3.1-1.4,4.32-2.65,4.27-6C351.93,538.78,349.74,531.53,350.07,524.05Zm424.34-10.5a100.14,100.14,0,0,0-4-19.7c-.42-1.29.15-3.17-2.13-3.38-2.11-.19-2.76,1.23-3.71,2.69q-12.37,19.16-24.93,38.19a6.09,6.09,0,0,0-.89,5.69c2,4.61,2,9.3,1.27,14-.9,5.79,2.46,11.46.21,17.24a1.92,1.92,0,0,0,.49,1.75c1,.6,1.76,0,2.59-.73,6.09-5.22,12.43-9.86,17.06-16.92C768.05,540.59,773.16,528.22,774.41,513.55ZM162.73,555.22c.2,1.92.44,4.39.74,6.86.13,1.07-.44,2.62,1,3a2.92,2.92,0,0,0,3-1.46c4.79-7.47,12-13,16.95-20.17,6.36-9.27,14.32-17.16,20.92-26.23,4.62-6.36,9.79-12.76,16.24-17.77,3.57-2.78,3.06-5.06-.51-7.25-2.79-1.72-6.35-.95-8.85-2.9-4.38-3.41-6.81-1.2-9,2.57-1.74,3-3.22,6.24-5.55,8.69-3.53,3.72-6.8,7.57-10,11.58-4.19,5.27-8.36,10.6-13.6,15-4.31,3.63-8.2,8.16-10.17,13.26C162.21,544.65,163,549.86,162.73,555.22ZM705.23,569c7.93-.05,7.73-.09,9.18-7.62a44.23,44.23,0,0,0,.61-9.92,31.64,31.64,0,0,1,1.81-10.25c1-3.25,2.76-4.66,6.35-5.1,5.71-.7,11.23-2.41,14.65-7.84,5.27-8.37,10.35-16.9,16.08-25a98.92,98.92,0,0,0,10.22-17.52c1.06-2.42,2-5.94-2.13-5.77s-7.89-.78-11.77-1.33c-2-.29-2.56.25-3.27,1.76a181.94,181.94,0,0,1-17.16,29.35c-12.3,16.79-20.24,35.94-31.55,53.18-1.45,2.2-1,3.86,1.7,5.08A11.89,11.89,0,0,0,705.23,569Zm-12.48-8.64c8.44-13.25,13.86-27.82,24.36-39.24,5.22-5.68,7-13.09,11.14-19.29,5-7.64,9.26-15.84,15-23,1.08-1.34,1.65-3-.25-3.68-5.53-1.89-9.92-6-15.67-7.53-4.42-1.22-6,.59-6.27,4.3-.2,3.11-1.48,5.67-2.66,8.42-3.19,7.43-8.45,13.85-10.36,21.9s-4.56,16-9.12,22.91c-4.77,7.24-6.33,15-6.2,23.42C692.79,552.44,692.75,556.37,692.75,560.31Zm-459.3,2.25c.16,1.84-.32,3.71,1.17,4.07,2.36.56,3.59-1.86,4.38-3.29,4.25-7.72,10.13-14,15.81-20.68,10.58-12.37,22.24-23.79,32.16-36.73,1.76-2.28,2-3.49-.62-5-4.82-2.83-9.89-5.42-14.16-9-4.72-3.91-6.24-.64-8.21,2.56a17.79,17.79,0,0,0-1.06,2.25c-4.85,11.13-11.38,21.22-18.49,31-3.67,5.06-7.56,10.65-8.86,16.54S235.72,557,233.45,562.56Zm374.94-22.78c4.64.18,8.08-1.25,11.66-1.76,3.15-.45,6.63-1.15,8.31-3.73,7.37-11.31,16.39-21.55,22.25-33.87,1.73-3.65-1.37-10.05-7-12.56-3.91-1.75-3.29,2.87-4.84,4.49-.33.35-.4,1-.75,1.27-7.84,7.06-13.67,16-21.45,23-4.53,4.07-6.77,9.88-11.9,13.33-2.76,1.86-1.32,4.68-.56,7.27C605,540.15,607.19,539.79,608.39,539.78ZM502.84,591.89a32,32,0,0,1,.42,5.62c-.07,1.62,1.1,2.94,3,1.48a273,273,0,0,0,26.94-23.1,5.81,5.81,0,0,0,1.9-3.94c.25-8.43-1-17,1.78-25.22a3,3,0,0,0-1.43-3.42c-1.22-.6-1.92,1-2.73,1.72-5.68,5.31-10.78,11.18-16.73,16.26-2.44,2.08-5.12,4-7.42,6.38C502.11,574.34,503.5,582.66,502.84,591.89ZM479.37,359.7c3.25-.84,4.79-3.05,6.6-4.51,6.7-5.4,14.78-8.95,20.58-15.56,2.7-3.08,3.06-7.14,1.55-9.79a72.33,72.33,0,0,0-13.05-16.79c-3.25-3.08-7.75-1.11-11.42-.59-2,.29-1.71,4.23-1.68,6.7.06,4.82-1.28,9.51-1.48,14.26C480.1,342,478.74,350.55,479.37,359.7ZM630.75,565.08a11.28,11.28,0,0,0,1.49-1.14c3-3.19,3.59-7.71,6.14-11.23,6.39-8.85,12.39-18,18.88-26.77,8.1-11,7.73-12.54,1.71-20.83-2.51-3.47-3.85-3.22-6,.18-7.21,11.49-14.08,23.21-22.15,34.14a4.36,4.36,0,0,0-.72,3.8A44.53,44.53,0,0,1,630.75,565.08ZM408.59,580.27c.14,1.13-.91,3.77.93,4.8,2,1.13,3.26-1.61,4.71-2.65,10-7.17,18.67-16.14,29-22.93,1.64-1.07,1.44-2.63,1.27-4.7-.34-3.95-5-4.53-5.21-7.93-.13-2.61-2-3.43-3.6-4.25s-2.58,1.11-3.5,2.11c-5.73,6.16-10.94,12.89-17.16,18.5C409.94,567.84,408.33,573.1,408.59,580.27Zm-5.71-14.76A5.24,5.24,0,0,0,409,561.8a8.81,8.81,0,0,1,2.7-3.37c6.87-6.36,13.54-12.93,20.38-19.32,4.07-3.8.41-5.72-1.73-8-2.4-2.56-4.72-3.31-7.51-.18a153.6,153.6,0,0,1-13.31,13.8c-4.9,4.29-9,9.55-14.92,12.73-2.15,1.15-4.77,4.07-.39,5.84C396.88,564.36,399.65,565.89,402.88,565.51ZM401,596.27c3.81.08,4.5-.2,4-3.15-1-5.28-.61-10.6-.9-15.89-.21-3.76-2.09-5.17-5.48-5.17a17.14,17.14,0,0,1-8.81-2.81c-1-.6-1.31-2.86-2.89-1.89a4.71,4.71,0,0,0-1.58,3.48c-.17,6.44-.29,12.89,0,19.32a5.26,5.26,0,0,0,5.36,5.43C394.08,595.77,397.54,596,401,596.27Zm106.53-80.65a87.7,87.7,0,0,1-1.61-12.05c-.36-6.06-1.54-12.08-2.4-18.11-.14-1-.4-2-1.58-2.29-.9-.23-1.42.17-2,1-4.15,5.77-8.45,11.43-12.56,17.23-1.1,1.54-2.41,3.4.58,4.79C494.21,509.06,500.37,512.14,507.52,515.62ZM133.67,395.81c1,.58,1.18.76,1.24.73,13.86-8.07,27.29-16.92,42.26-22.93a2.16,2.16,0,0,0,1.23-2.48c-.16-1.37-1.37-1.05-2.24-1.4-5.75-2.35-10.69-1.15-15.3,2.86s-9.41,8.48-14.52,11.25C140.57,387,139.09,392.85,133.67,395.81ZM145.14,44.24l.24,1.25c7.13,1.25,14.26,2.44,21.37,3.79,1.61.3,2.68,0,3.07-1.55,1.32-5.25,2.65-10.5,3.77-15.79.43-2-.55-3.59-2.76-2.37C162.21,34.36,153.69,39.34,145.14,44.24Zm74,339.73c-5.2-2.72-10.27-3.58-14.85-5.59-3.2-1.41-4.64-.31-5.54,2.44-1.59,4.86-3.2,9.73-4.5,14.68-.79,3-3,5.86-1.58,10.62C199.64,396.1,208.66,389.74,219.13,384Zm338,69c-3.05-3.23-4.43-7.09-5.91-10.72-1-2.5-1.88-2-3.57-1.33-4.9,1.87-8.1,6.22-12.68,8.54-1.74.88-4.11,2.07-2.86,4.36,1.1,2,3.67,1.29,5.4.48C543.81,451.33,550.16,449.75,557.11,453ZM187.23,346.54c1,3.79,2.24,7.37-3.41,8.18-.39,0-2.56,2.3-1.08,4.12s9.13,2.58,10.3.66c3.29-5.45,6.12-11.18,9.46-17.4-2.16.63-2.7,2.16-4.31,1.93a3.26,3.26,0,0,0-3.45,1.48C191.18,351.48,191.19,351.48,187.23,346.54ZM219,370.62c2.65,1,4.48,1.75,6.31,2.48s3.46,2.57,5.49,1.2c5.18-3.49,10.23-7.16,15.69-11C237.14,365.44,227.75,365.46,219,370.62Zm267.4,107.66c3.64-1.7,4.29-5.67,7.18-7.62.66-.45.37-1.64-.77-1.63-2.42,0-5.23-1.06-7.15.5-1.46,1.19-.65,3.66-.18,5.56C485.68,476,486,477,486.37,478.28Zm37.71,58.32c.65,1.65-.92,4.47,1.65,4.6,2.23.11,5-1.89,5-4.06s-1.9-4.85-4.59-4.95C522.55,532.05,525.11,535.26,524.08,536.6ZM673.45,390.84c-.36,3.59,3.46,4.91,3.61,8,.09,1.73,1.22,1.89,2.34,1.9a2.47,2.47,0,0,0,.81-4.81C676.79,395.63,675.28,393.17,673.45,390.84Zm19.48-29.69c3.24,7.19,3.24,7.19,8,4.41-.67-2.72-3.69.34-4.88-1.83.91-1.35,2.89.09,3.37-1.76C697.47,359.83,695.11,361.37,692.93,361.15Zm-15.55,16.23c2.35-3.4.65-6.72.22-10a1.38,1.38,0,0,0-1.69-1.34,1.09,1.09,0,0,0-.69,1.57C676.66,370.69,675.7,374.33,677.38,377.38ZM686,357.09c.12-1.67-.4-3.5-2.14-3.08-.93.23-2.82,1.55-2.77,3.34s1.55,2.4,3.06,2.48C686.1,359.94,686,358.43,686,357.09Z" transform="translate(-1 -0.75)"/><path d="M746,894c7.68-10,17.8-17.43,27.29-25.56,6.32-5.42,11.53-12.14,19.91-16,.22,5.6-4.11,8.19-6.87,11.38-7.13,8.21-15.88,14.72-24.13,21.73-3.18,2.7-7.45,4.23-9.2,8.48Z" transform="translate(-1 -0.75)"/><path d="M110.91,269.81c11.24-.71,22.37,1.64,33.62,2.44,3.21.22,7.42.22,8.69,4.46.91,3-.78,5.4-2.94,7.49-1.84,1.79-4.05,1.5-6.12,1.17-18.76-3-37.66-3.45-56.61-3.43-4.58,0-5.78,1.56-5.66,5.77.33,11.9,2.46,23.61,3.62,35.42,1,10.3,4.74,20.31,3,30.91-.71,4.46-3.08,7.21-7.36,7s-5.86-3.2-6.29-7c-1.25-11.3-1.55-22.68-4.46-33.83-1.61-6.18-1.37-12.84-1.91-19.29-.12-1.35,0-2.86-1.65-3.21-1.36-.29-1.87,1.05-2.62,1.9a355.56,355.56,0,0,0-26.88,34.52,11.34,11.34,0,0,1-2.81,2.76c-2.91,2.05-6.06,3.26-8.94.15s-1.8-6.23.28-9.12c4.65-6.47,9.25-13,14.2-19.21,5.64-7.11,10.94-14.55,17.83-20.59A2.83,2.83,0,0,0,59.06,285c-.61-1.8-2.28-1.15-3.42-1a221.49,221.49,0,0,0-37.48,7.48c-5.67,1.73-10.24.34-11.07-3.3-.79-3.45,2.45-6.89,7.67-8.36,15.64-4.4,31.41-8,47.73-8.69,3.89-.16,5.66-2,6.13-6.2a311.29,311.29,0,0,1,13.53-62c2.34-7.13,7.36-8.66,11.79-4.17,1.75,1.77,2.08,3.61,1.29,6.21A408.42,408.42,0,0,0,83.3,256.27c-.25,1.5-.93,3.18.44,4.17,1.76,1.28,3-.46,4.28-1.43a230.08,230.08,0,0,1,29.35-19.62c4.29-2.37,8.27-1.53,10.07,2.34,2.12,4.53-1,6.6-4.33,8.43-8.14,4.5-15.68,9.9-23.22,15.29-1,.74-3,1.57-2.18,3.39.64,1.4,2.36.79,3.65.89C104.51,270,107.66,268.93,110.91,269.81Z" transform="translate(-1 -0.75)"/><path d="M92.54,157c1.22-2.26-1.59-5.57,1.87-6.84,1.65-.61,5.91,5.22,5.44,7.54-.57,2.8-2,6-5.21,5.59C90.49,162.83,94,159,92.54,157Z" transform="translate(-1 -0.75)"/><path d="M93.56,335.17c-1-4.68-1-4.74-.08-8.86C98,330.07,98,330.9,93.56,335.17Z" transform="translate(-1 -0.75)"/><path d="M217.29,684.19c-3.06-.43-5.08,1-7.32,1.49-2.66.54-5.25,1.36-7.11-1.62-.3-.48-1.19-1.1-1.53-1-5.61,2.28-11.36-.44-17,.56s-5.76.15-6.71-5.24c-1.37-7.78,1-15.11,1.59-22.63.38-4.81-1.94-9.49-.46-14.16,1.72-5.44,1.79-11.2,3.36-16.6,1.63-5.57,5.71-9.78,10.54-12.69a96.26,96.26,0,0,1,8.65-4.23c6.56-3.07,17.4.87,20.87,7.45a47.26,47.26,0,0,1,4.39,32.35c-.78,3.82.92,7.27.51,11.06-.49,4.49-1.4,9-.36,13.72C227.58,676.5,220.06,684.29,217.29,684.19Z" transform="translate(-1 -0.75)"/><path d="M686.65,680.48c-4.67,3.84-10.63-2.64-15.95,1.28-7.28-3.34-15.3,2.51-22.83-2.06a4,4,0,0,1-2.21-4c1.18-8.34-.11-16.79,1.21-25.1,1.44-9.06,6.42-16.77,9.41-25.19,2-5.53,4.24-7.85,10-9.79,7.4-2.5,7.14-3.33,13.3,1.76,5.19,4.29,8.09,10.56,13.63,14.37a2.36,2.36,0,0,1,.94,2.19c-.45,14-.81,28-1.46,42.05C692.55,678.82,692,682.37,686.65,680.48Z" transform="translate(-1 -0.75)"/><path d="M453.86,680.17c-4.94,2.93-9.09,1.49-13.46-1.63-.56-.4-5,.85-7.27,1.86-4.53,2-9.05,1-10-3.76-1.74-8.46-3.73-17.08-1.4-25.74,1.74-6.45-1.19-13.69,2.73-19.53,4.87-7.25,6.46-17.28,16.61-20.31,1.68-.5,2.77-.84,4.33.51,1.11,1,3.07,1.13,4.69,1.26s2.8-2.76,4.33-.79c2.24,2.91,6.32,5,6.42,8.87.19,7.37,2.67,14.29,3.21,21.58.92,12.33-.4,24.21-5.27,35.64C457.77,680.45,456,680.79,453.86,680.17Z" transform="translate(-1 -0.75)"/><path d="M488.16,575c.91,7.39,0,13.74-3.31,19.76-1.72,3.08-3.91,4.67-7.58,4.24a43.73,43.73,0,0,0-7,0c-1.28.06-2.82.78-3.21-1.13a4.76,4.76,0,0,1,.29-3.34,3.66,3.66,0,0,1,4-1.26c9,2.18,11.72.21,12.12-8.76C483.74,579,484.32,577.71,488.16,575Z" transform="translate(-1 -0.75)"/><path d="M499.23,783.05c.7-3,.65-6.17,2.09-8.35,3.2-4.86.78-8.27-2.27-11.37a7,7,0,0,1-2.12-5.71c.11-3,.44-6,0-9-1.16-7.16,4.6-10.49,7.91-15.19.09-.12.38-.25.42-.22,3.34,3.21,8.84,1.39,11.35,3.35a13.28,13.28,0,0,1,4.18,13c-.9,3.73-.09,8.64-5.64,10-.92.22-1.14,1.88-.18,2.53,2.63,1.77,3,5.55,5.39,6.9,2.79,1.57,2.62,3.56,2.41,5.75A113.36,113.36,0,0,1,521,786.93c-.91,4.34-4.32,7.79-8,8.48a9.35,9.35,0,0,1-10.47-5C501.3,787.91,499.85,785.55,499.23,783.05Zm15-33.1c.17-3.37-.1-6.59-4.42-6.92-4-.31-10.75,4.5-10.8,7.46-.06,3.42,4,7.31,7.84,7.5C511.08,758.21,514,755,514.21,750Zm-9.13,28.84c-.23,5,2.49,6.93,5.32,8.08s4.48-1.18,5.51-3.66c.64-1.53,1.41-3,2-4.56,1.2-3.43-.26-5.79-3.34-7.21C511,769.79,505.18,775.08,505.08,778.79Z" transform="translate(-1 -0.75)"/><path d="M274.31,771.46c1.55-4.52-.4-10.72,3.3-15.8a2.26,2.26,0,0,0-.06-3.16c-5.64-6-3.68-13.46-2.89-20.26.4-3.51,4.18-7.18,7.9-7a8.23,8.23,0,0,1,7.83,7c1.23,5.88,3.81,11.31-.14,17.29-1.35,2,.51,4.81,2.51,6.52,2.63,2.25,3.43,5,3.28,8.43-.25,6.12-1.28,12-4.19,17.45-.67,1.27-1.45,2.66-2.9,2-2.73-1.3-4.64-1-6.21,1.71a1.25,1.25,0,0,1-2.12-.18C278.4,781.11,273.72,778,274.31,771.46ZM290,767.69a15.36,15.36,0,0,0,0-3.46c-.6-2.54-2.49-3.71-4.94-4.21-1.78-.35-4-.08-4.31,1.44-.67,3.8-2.46,7.6-1.07,11.59.85,2.46,3,2.9,5.18,3.1s3.31-.78,4.25-2.69A11.46,11.46,0,0,0,290,767.69Zm-2.52-26.88c-.13-3.89-1.6-7.59-5.65-7.5-4.34.09-3.39,4.74-3.63,7.47-.26,3,1.54,6.59,4.59,6.57S287.21,743.86,287.5,740.81Z" transform="translate(-1 -0.75)"/></g></g></svg>