<svg xmlns="http://www.w3.org/2000/svg" viewBox="0 0 833.69 874.99"><title>afteryou</title><g id="Layer_2" data-name="Layer 2"><g id="Layer_1-2" data-name="Layer 1"><path d="M694,1c1.91,3,5.36,3.81,8.27,4.83,6.17,2.15,12.49,5,16.75,9.2,4.58,4.5,11.15,7,14.09,13.23a7,7,0,0,0,3.13,3.11c5.52,2.58,7.65,6.84,8.4,12.82.44,3.55,3.72,6.74,6,9.44,4.25,5,5.47,11,8,16.58a92.67,92.67,0,0,1,5.71,16.16c.91,3.86.48,8.07.42,12.11-.09,6.64,1.11,13.14,1.66,19.68,1.17,13.85,11.27,20.22,20.5,27.64,2,1.63,3.93,3.44,5.76,5.06-.22,1.21-1,1-1.57,1.18-1.73.49-4.87-1.25-4.93,1.5-.06,2.23,2.65,3.79,5.18,4.13.7.09,1.64-.72,1.62.73,0,1.06-.93,1.11-1.71,1.41-3,1.17-5.29-3-9.12-.95,9.6,4.38,20.84,2.73,28.62,10.39-4.93-.85-9.46-3.5-14.58-3.4-.33,2.15,1.2,1.88,2.17,2.28,7.88,3.19,8.73,10.72,10.72,17.52a21.68,21.68,0,0,1,.32,4.29c5.69-3.3,1.2-10.44,6.06-13.85,1.23,3.65,2.8,7.16,3.56,10.84,1.17,5.67-1.07,10.59-4.28,15.21-6.81,9.83-7.46,14.29-.33,24.11,4.3,5.93,10.1,10.74,13.25,17.54.41.89,1.36,1.64.7,2.54-1,1.3-2,.45-3-.24-3.68-2.63-8.37-3.21-12.43-6.62.07,3.85,2.46,5.07,4.52,5.9,9,3.66,13.67,12.18,20.63,18.1,2,1.72,1.29,5.54.44,8.08a46.85,46.85,0,0,1-22,26.61c-5.55,3.16-11.24,5.95-16.94,8.78-5.29,2.63-5.7,4.73-2.24,9.53,9.24,12.84,13.27,27.24,10.8,42.8-1.64,10.28-7.89,18.09-16.91,23.64-3.78,2.33-7.37,4.78-11.64,6.32-7.29,2.62-14.13,0-20.85-1.62-4.15-1-6.4.15-8.36,3-4.53,6.59-9.18,12.62-16,17.49-5.22,3.72-10.35,7.33-16.16,9.88-7.26,3.19-14.17,3-21.39-1.32-5.48-3.23-8.9-8.5-14.09-11.86-1.69-1.1-2.22-1-3.74.54-7.21,7.44-15.33,13.76-26.37,13.41-6.6-.21-12.48-3.27-18.15-6.7a40.37,40.37,0,0,1-14.58-15.64c-1.62-2.94-3.38-2.33-5.88-.37-7.21,5.65-12.25,13.83-21.42,17.24A31.21,31.21,0,0,1,562,408.4c-2.42-2-1.85-6.12-3-9.13-3.55-9.22-7.36-18.28-17-23.14a4.8,4.8,0,0,0-4.63-.29c-8,3.49-11.26.65-12.87-7.89-1.69-9-1-17.85-1.49-26.76-.2-3.79-2.22-5.31-5.84-5.14-.83,0-1.67,0-2.5,0-8.72,0-10.84-2.82-9-11.66.3-1.45,1-2.73,2.33-2.93,4.63-.65,2.72-2.66,1.82-5.46-2.62-8.19-4.36-16.31-3.29-25.39a61.27,61.27,0,0,1,8.89-25.84,4.53,4.53,0,0,0,.44-4.73c-2.71-4.81-3-10.3-4.44-15.45-.49-1.72-.92-2.28-2.73-2.62-10.66-2-21.41-1.56-32.14-1.6-1.17,0-2.34.08-3.5,0-9.41-.77-9.41-.78-9.42,8.63q0,24,0,48c0,2.94.61,6-1.37,8.69a3.2,3.2,0,0,0-.25,1.95c1.24,15.6-.52,31.19-.1,46.8s-.66,31.39.42,47c.49,7-.67,13.79-.57,20.7.09,6.5,2.44,12.61,2.07,19.14-.16,2.94,2.92,5,4.53,7.48,6,9.07,11.61,18.32,17.59,27.37,8.93,13.53,18.08,26.91,27,40.45.76,1.16,2,1.76,2.58,2.9,2.28,4.07,3.21,2.06,6.27,0,6-4,8-12,15.61-14.21,2.32-.67,2.59-4.47,5.27-5.64,9.47-4.17,17.86-10.57,28.2-13.07,7.16-1.72,14.68-1.49,21.47-3.13,6.14-1.49,11.76,1.64,17.63-.73,2.4-1,6,1,9,1.64,13,2.69,25.6,6.45,36.41,14.67a5,5,0,0,0,7.17-.63c3.7-4.16,8.85-6.29,13-9.86,3.86-3.34,5.67,1.56,7.18,3.27,4.56,5.17,8.89,10.5,13.8,15.4,2.86,2.86,4.93,6.51,8.36,9,1.95,1.42,1,2.91-.8,4.33-4,3.12-8.25,5.91-11.78,9.62-3.09,3.26-3.32,6.4-.79,10.19a16.28,16.28,0,0,1,3,9.72c-.11,2.91,2.39,4.67,3.18,7.38,1.24,4.25.18,8.94,2.71,12.84a3.74,3.74,0,0,1,.39,2.41c-2.5,15.77-3.1,31.94-12.41,46-7.82,11.82-16.81,22.07-28.59,30.26-6.58,4.58-13.39,9-20.63,11.41-6.15,2-12.23,6.71-19.63,4.46-1.78-.54-2.94,1.85-4.54,2.69-2.68,1.42,0,3,.77,4.31,6.18,10.46,13.55,20.13,20.35,30.18,2.71,4,5.81,7.93,7.82,12.53,2.35,5.39,6,10.07,9.62,14.71,2.1,2.71,2.78,6.27,5.58,8.62,1,.84-.07,2.38-1.06,3.43-1.73,1.86-3.91,1.58-6,1.58q-42.51-.06-85-.13c-2.12,0-4.24.27-6.24-1.15a4.64,4.64,0,0,0-3.83-.43c-7.26,3-14.79,1.27-22.17,1.43-13,.29-26-.15-39,.16-4.9.12-9.27-2.05-14.18-1.85-8.29.35-16.7,2.07-24.79,1.31-11-1-21.94,1.37-33.17-.7a63.4,63.4,0,0,0-24.34-.11c-5.27,1.12-10.9.71-16.38.74-10.16,0-20.37-.63-30.48,0-8.56.57-16.63-3.2-25-2-5.79.81-11.68-1.65-17.47,1.12-1.48.7-4-1.43-6.39-1.33-6.16.25-12.34-.16-18.5.13-25.26,1.16-50.41-1.8-75.64-2.07-12.71-.14-25.46-1.62-38.22-2.22-3.43-.16-6.92-1.53-10.47-2.11-4.29-.71-5.09-3.7-2.83-7.93,4-7.61,10.41-13.47,15.35-20.41,6.7-9.42,14-18.42,21.07-27.57,1.59-2.06,3.49-3.84,4.64-6.29.56-1.19,3-2,1.63-3.47-1-1-2.43-2.62-4.29-2.19-4.29,1-7.86-2.11-10.57-3.72a148.16,148.16,0,0,1-26.39-19.59c-7.91-7.56-13.54-17.15-18.62-27.06-4.28-8.36-6.07-17.45-7.35-26.22-.77-5.27-2.34-11.49.11-17.45a67.79,67.79,0,0,0,4.42-15.14c.73-5.08,3.45-8.74,4.7-13.2.94-3.33-1.68-9.06-6-11.73-2.93-1.84-5.73-3.89-8.59-5.83-2-1.36-1.58-3,.05-4,2.72-1.63,3.74-4.64,5.87-6.62,6.21-5.77,10.58-13.17,17.08-18.71,5.07-4.32,4.75-4.49,9.82.71,2.42,2.47,4.9,4.95,7.43,7.26,2.19,2,5.88,3.15,8.63.44,7.87-7.77,18.36-10.72,28.26-13.53,4.64-1.32,9.25-4.62,15-3.6,5.31.95,10.92.16,16.39.3,5,.13,9.94.54,14.91.72,4,.15,6.89,3.14,10.89,3.91a29.16,29.16,0,0,1,11.35,5.06c6.13,4.55,12.59,8.76,18.87,13,4.46,3,6.76,7.15,10.47,10.28,2.27,1.91,5.25,2.17,7-.13,5-6.46,10.08-12.95,14.07-20,3.78-6.7,8.72-12.32,13.64-18,3.16-3.66,5-8.14,8.24-11.8,7.08-8,13.91-16.2,20.94-24.17,7.33-8.32,8.89-17.26,8-27.25-.7-7.5-.39-15-.44-22.44-.12-18.67-.29-37.34.06-56,.19-10.13.5-20.23,0-30.36-.25-5.13-2.52-10-1.58-15.22,3.25-18.15.54-36.48,1.58-54.69.29-5.11-1.27-6.76-6.38-6.38-6.13.45-12.32.12-18.49.13a15.71,15.71,0,0,0-3,0c-2.19.45-4.38-3.45-6.17-.44-1,1.64-.21,4.23-.49,6.36a86.76,86.76,0,0,1-5.8,22.57c-.81,1.93-.63,2.59.56,4.1a41,41,0,0,1,8.41,20c.35,2.59,1.83,4.7,2,7.48.45,8.53-2.05,16.25-5.73,23.61-1.45,2.89-1.31,3.73,1.6,5.12,3.78,1.8,5.45,7.56,3.67,11.24A5,5,0,0,1,340,338c-1.67,0-3.33,0-5,0-6.8,0-9.48,4-8.09,10.8,2.23,10.89-.1,21.25-5,31-1.79,3.56-4.29-.31-6.53-.23s-4.19-3-7.24-1.42a26.45,26.45,0,0,0-8,6.62c-5.42,6.37-8.31,13.88-10,22-1,4.82-5.56,7.18-9.38,8.36-4.5,1.38-9.42,3-13.87,3.19-4.6.2-9.86-2.22-14-5.21a49.51,49.51,0,0,1-7.1-6.38c-3.13-3.39-8-6-12.08-9-1.56-1.16-2.14.63-2.85,1.76-6.23,9.93-14.76,17.19-26,20.51-4.47,1.32-9.28.13-14.08-.64-7.12-1.15-11.87-5.48-17.21-9.2-1.13-.78-2.35-1.5-2.76-3.28-.38-1.62-1.6-2-3.18-.27a74,74,0,0,1-15.06,12.62A22.05,22.05,0,0,1,131,420.3a73.32,73.32,0,0,1-31.12-26.55c-3.49-5.3-3.71-5.4-9.85-2.94a27.86,27.86,0,0,1-9.89,2.47c-8,.15-14.76-3.15-21-7.68-2.82-2-5.07-4.88-8-6.79-5.82-3.85-7.22-10.41-7.94-16-1.93-14.92-.49-29.6,10.2-41.72,4-4.54,3-10.16-2.64-12a76.38,76.38,0,0,1-24.92-13.41c-6-4.93-10.94-11.67-12.75-19.62-1.2-5.25-.67-10.37,4.21-14.47,3.46-2.91,6-6.94,9.64-9.78,2.67-2.08,6.84-2,8.72-6-6.65-1.4-9.68,4.9-15.09,6.38.8-4.65,3.93-7.91,6.89-10.83,4.88-4.82,8.07-10.75,11.82-16.28,4.3-6.34.78-12.34-2-18.1C36,204,33.9,201.46,32.93,198.2c-2.09-7,1.08-12.78,3.92-19.16,2.5,2.74.43,5.93,1.85,8.65,1.22,2.36,5.94.68,4.91,5.05.22-2.36,3.36-4.39.19-6.67-1-.75-.17-1.51.35-2,1.77-1.81,4.09-3.15,1.63-6.41-.71-1,1.51-3,3.4-3.62,2.92-1,5.8-2.09,9.31-3.36-6.59-2.56-11.26,3.34-17.84,3.19,2.29-3.55,4.25-5.57,7.77-5.84s6.46-2.61,10.08-2.37a1.64,1.64,0,0,0,1.71-1.49c.5-2.47-2.58-1.54-3.2-3.46,2.66-1.06,5.63-1.46,7.85-3.83a4,4,0,0,0-4.4-.15,2.06,2.06,0,0,1-3-.77c-1.12-1.89,1-1.41,1.66-2,5.92-5.19,12.32-10,17.46-15.86a33.78,33.78,0,0,0,7-13.37c2.22-7.9-.78-16.18,3.16-23.61a6.8,6.8,0,0,0,.09-4.44c-2.23-8.41,1.67-15.33,5.37-22.21,3.34-6.23,5.11-13.18,9.59-19a25.84,25.84,0,0,0,3.85-5.92c.54-1.38.64-1.93-.24-4.1a1,1,0,0,1,.15-.84c2.49-3,4.48-6.89,7.65-8.79A48,48,0,0,0,128.6,21.49c2-2.85,5.23-4.46,7.89-5.69,7.59-3.52,14.53-8.26,22.36-11.33A27.46,27.46,0,0,1,169,2.6c12.64,0,25.37-1.59,37.89.68C219,5.47,230.65,9.21,241,16.08a45.4,45.4,0,0,1,11.11,10.33c7.42,10.16,16.85,19.32,20.95,31.52,3.65,10.85,8.7,21.12,12.37,32,1.48,4.37,4.7,8.36,5.17,13,.43,4.24,5,6.81,3.9,11.43-.31,1.25,1,1.51,1.71,2.15,7,6.14,12,13.33,11.81,23.14,0,1.39-.29,2.73,2.12,1.39,1.31-.71,1.08,1.57.91,2.41-.31,1.59.38,3.13.44,4.22.29,5.25,3.66,3.74,6.55,4.21,10.89,1.77,22,0,32.71,1.61,6.95,1,13.76.88,20.62,1.38,3.64.27,4-1.5,3.82-4.52a464.59,464.59,0,0,1-.08-55.85c.43-8,.13-16,.15-24,0-9.11,0-18.22,0-27.33a79.9,79.9,0,0,0-.77-12.93c-.49-3.09.68-4.49,4.12-4.29,5.15.29,11.08-1.57,15.34.4,8.1,3.75,16.57.78,24.69,3.34,5.31,1.67,11.62-.16,17.38.47,8,.87,15.92,2.18,24,1.75,3.14-.17,3.53,2.41,3.53,4.92q0,13.75,0,27.5c0,15.15.42,30.32-.27,45.43-.22,4.75-1.59,10.14-.8,14.38,1.2,6.51.7,12.84,1,19.23.19,4.07-2.28,7.86-1.62,12.17.48,3.13,1.8,5,5,5,21,.5,41.92,2.5,62.92,2.42,7.51,0,9.06-1.62,9.19-9,.08-4.4-.59-8.87.48-13.49,2.43.54,1.2,2.53,2.1,3.86a5.23,5.23,0,0,0,.24-1.31c-1.74-12,3.51-21.05,11.83-29.08,2.59-2.5,3.43-6.62,4.63-9.91,4.24-11.56,8.85-23,13.72-34.26A34.66,34.66,0,0,0,574.51,62c1.12-6.29,4.12-11.86,7.37-17.41,5.67-9.69,14-17.07,21.15-25.41,5.34-6.19,12.22-10.3,20.31-12.84C628.56,4.7,633.57,2.22,639,1ZM203.13,406.93c-.22-3,3.49-2.39,4.7-5.32l-14.08,6.18c4,2.9,6.39-1.67,9.57-1a13.73,13.73,0,0,1-2,2.11c-.64.45-1.05.78-.43,1.42.3.31,1.05.66,1.24.52,3.59-2.62,9.7-1.11,11.55-7.4C210.12,405.2,207.17,407.91,203.13,406.93Zm445.75-2.17c3.07-.5,5.58,3,10.24,1.43l-15.36-6.51c1.7,2.93,1.7,2.93,5.26,5.24-4.44.79-8.1-1.1-11.65-3.53,1.61,3.48,5.28,3.89,7.92,5.76C649,409.76,648.85,407.3,648.88,404.76ZM111.12,372c-3.15-1.25-5.91,2-9.21.75-.76-.29-1.07,1.4-.08,2.19,5,4,9.12,9.23,15.59,11.44-4.13-4.05-5.07-9.42-6.49-14.56.71-.2,1.8,1.75,2.14-.25.62-3.69-2.52-4-5.17-4.83Q109.52,369.4,111.12,372ZM100.75,228.61c.63.51,1.52.9,1.82,1.56.63,1.36,1.33,3.54,2.8,2.34s3.62-2.64,3.58-4.93c0-2.62-6.71-8.45-9.6-9-2-.41-2,2.3-3.92,2.2-.27,0,.84,1.45,1.42,2.18,1.46,1.87,4.3,2.78,4,5.86-4.1-.43-6-5.26-11.8-5.42,6.57,4.57,9.82,10.58,14.67,16.12C104.85,234.55,100.37,232.33,100.75,228.61Zm638,142.66c.37-2.46,2.63-4.29,2.58-7.17-4.28.92-4,4.87-6.65,7.67l4.22-.66c.43,2.67-2.74,1.82-3.52,3.6-.51,1.16-2.92,1.69-2.29,3.37s2.51-1.67,3.66.43c-.59,1.6-2.93,2.35-3,5,4.69-2.27,7.91-5.65,11.73-8,5.72-3.52.3-5.44-.85-7.2-1.61-2.44-2.59.86-3.9,1.51A13.2,13.2,0,0,0,738.79,371.27ZM202.94,15c3.24,3.44,9.72.93,11.66,6.74-.51-5.72-3.37-9.88-7.33-13.47-5.16-4.66-6.63-4.19-8.86,3-3.06-.73-4.68-5.84-9.21-3.3,4.14,5,10.23,6.52,14.24,11.22C204.58,17,202.28,16.36,202.94,15ZM628.86,10.6c-.9,1.41-.24,3.29-1.52,4.65a2.17,2.17,0,0,0,.17,3.16c1.56,1.24,1.7-.9,2.53-1.43.66-.42,1-1.33,1.7-1.74,1.43-.9,2.6-3.52,4.5-2.06,2.12,1.64-.93,3-1,4.68,0,.26.27.54.69,1.28,1.54-4,5.32-4.35,8.34-5.87a19.54,19.54,0,0,0,5.49-4.15c1.31-1.38.91-3,.42-4.63-1.88.81-3.19-3-5.53-.52-1,1.06-3.18,6.06-4.6-.1-.24-1-1.48-.32-2,.3-2.27,2.69-6.07,3.08-8.41,5.65.18-.91,1-2.15.1-2.68-1.21-.76-2.71,0-3.67.82-2.91,2.43-6.38,4.63-8.25,7.75s-2.43-.73-3.49-.07c-.19,2.12-.41,2.35-2.82,3.88A1.52,1.52,0,0,0,611,20.8c1.34,5.46-5.84,7.7-4.94,13.09.15.91-1.38,1-2.37.32a2.59,2.59,0,0,0-3.37.06c1.11,2.2,3.29,3.83,3,6.9-.24,2.28,2.49,2.75,4.07,2.67,1.89-.1.79-1.89.78-3.1-.07-7.35,2.29-10.59,9.68-13.78.65-.29,1.09-1.13,1.56-1.77,2.81-3.78,6-7.38,6.87-12.22C626.5,11.22,627.5,10.86,628.86,10.6Zm-448.37.7c-.49,0-1.4-.12-1.4-.1-.45,4-2.68,2-4.73,1.62-5-1-6.71,1.12-5.47,6,.86,3.43.8,6.15-4.18,5.65-2.4-.25-5.22-.69-7.38,1.55l14.19,11c.73.56,1.85,2,2.37,1,2.55-4.87,5.12-1.74,7.73.24.09-5.34-1.08-10.61,2.87-14.34,2.09-2,2.8-3.15.95-5.53-.6-.77-.31-2.23-.42-3.38,3,0,4.31,6,6.91,3.26,1.59-1.69-2.92-4.4-4.61-6.71-.48-.65-.84-1.73-1.44-1.87a45.4,45.4,0,0,0-5.6-.75ZM603.26,115.35l-.12-.14c-.53,1.87-2,4.17-1.43,5.55,2.66,6.16.64,12.48,1.37,18.65.57,4.83,1.21,9.85,3.67,14,3.09,5.19,4.6,11.21,8.8,15.87,1.22,1.36,3.8,4.5-.72,6.26-1.4.55-.75,2.21.08,3.45,2.56,3.81,5.23,7.58,7.49,11.58,4.76,8.4,11.54,15,19.24,20.4a15.63,15.63,0,0,0,14.17,1.71,77.45,77.45,0,0,0,27.68-16.48,89.08,89.08,0,0,0,22.71-30.88c.53-1.21,1.23-3.34-.61-3-4.12.68-7.74-3.62-12-.77-1.5,1-2.59.27-2.19-1.7.84-4.14,1.13-8.59,6.15-10.28,2.63-.88.88-4,2.52-5.47.35-.32-.19-.64-.72-.83-2.68-1-2.78-1.13-.82-3s5.79-3.26,6.43-5.52c2.21-7.74,2.29-15.65-1-23.36-.65-1.49-3.08-2.91-1.57-4.8,1.72-2.18.26-3.14-.89-4.59-3.89-4.91-7.26-10.11-8.14-16.51C692.17,77,682.12,75,679.92,67.27c-4.51.35-9-2.92-12.76-2.21-9.38,1.76-18.69,1.2-28,1.26-2.43,0-4.26,2.84-5.55,2.06-5.86-3.56-10.49,0-15.71,1.54-6.94,2.09-9.32,7.33-11.4,13.33-2.5,7.25-3,14.92-4.77,22.33C601,108.62,600,112.55,603.26,115.35ZM433.1,362.12c0-1.8-.07-3.6,0-5.4.07-1.39-.48-3.37,1.72-3.5,1.95-.12,3,1.54,3.25,3.15.32,2.63.09,5.32.16,8,0,1.3-.1,2.9,1.89,2.85,1.6,0,1.57-1.36,1.67-2.55s-.32-2.68,1.41-2.64a2.69,2.69,0,0,1,2.62,2.56,31.23,31.23,0,0,1,.13,3.49c0,5.33-.06,10.67,0,16,0,1.27-.9,3.47,1.45,3.54s1.86-2.21,1.59-3.41c-1.59-6.95,0-13.86,0-20.79q.14-64.49.05-129c0-1.34-.08-2.68,0-4,.24-2.58.94-3.62,4.3-3.72,10.48-.32,20.72,1.93,31.16,1.9,7.37,0,14.91-1.88,22.16,1.23,1.1.48,2.71-.07,2.53-1.53-.43-3.48,1.46-6.39,2.16-9.55,1.31-6,1.73-12.23,4.26-18,3-6.83,5.5-13.87,8.29-20.79,1.38-3.41.63-5.77-3.25-5.89-11.84-.36-23.65-.4-35.52-1.49-11-1-22.11-1.27-33.19-1.72-2.84-.11-5-1.84-4.16-4.25,2.46-7.21,1.09-14.5,1.14-21.71.21-32.33.09-64.67.09-97,0-2.63.57-5.9-3.48-5.82-4.48.09-2.51,4-2.26,5.69,1.47,10-.59,19.9-.16,29.85a11.29,11.29,0,0,1-.27,4c-.43,1.33-1,3.31-2.61,3.22s-2.09-1.89-2.09-3.5c0-1.34,0-2.67,0-4q0-15.26,0-30.5c0-2.36-.56-4.68-3.29-4.6-2.89.08-1.79,2.8-1.71,4.32.62,11-1.15,21.78-3.89,32.46-1.4-.51-2.6-1.23-2.62-2.76,0-6-.87-12.18.32-17.93,1.07-5.12-1.63-9.66-.51-14.51.19-.86-.42-1.58-1.48-1.5s-.89.82-.92,1.45a34.09,34.09,0,0,0,0,3.5c1.08,16.58-1.67,33-1.7,49.57,0,1.35-.08,2.61-1.27,3.6-.78.66-1.45,1.49-2.56,1.18s-1.1-1.41-1.34-2.39c-2.34-9.42,0-19-1.39-28.51-.1-.72.45-1.55.71-2.32a12.37,12.37,0,0,0-.1-9.19c-.87-2-1.23-4.16-.54-5.82,1.44-3.48.8-6.64-.1-10-.34-1.28-.14-3-2-2.82s-1.3,1.91-1.59,3.16c-.89,3.82,1.87,7,1.88,10.57,0,8.67.11,17.33,0,26a14.53,14.53,0,0,1-4.75,10.48c-.9.87-1.74,2.25-3.34,1.12a2.83,2.83,0,0,1-1-3.58c2.22-4.46.64-9.21,1.33-13.75.73-4.75-2.45-9.33-1.21-13.62,1.68-5.82.67-11.54,1.11-17.27.12-1.51-.05-3.47-1.94-3.36s-1.06,2.13-1.09,3.31c-.15,6.21,1.17,12.41,0,18.63a59.46,59.46,0,0,1-5.62,16,2.43,2.43,0,0,1-4.65-.93c.38-5.28-1-10.8.75-15.82,2.54-7.46-.31-14.1-1.07-22-2.26,2.34-1.62,4.09-1.63,5.63-.06,11.66,0,23.33,0,35q0,41,.06,82c0,4.55-1.93,6.63-6.56,6.75-3.24.09-6.14-1.44-9.11-1.62-10.19-.62-20.42.16-30.62-1.52-6.18-1-12.76,1-18.85-.81-3.65-1.07-6.9-.9-10.45-.66.83,4.34,4.83,5.9,6.38,9a234.52,234.52,0,0,1,13.3,33.56c1.23,3.88,3.48,7.35,3.2,11.73-.13,2,1.95,2.6,3.67,2.44,13.94-1.37,27.61,2.45,41.51,2,6.58-.23,7.62.9,7.48,7.47-.43,20.4.21,40.77-1.28,61.21-1.51,20.72-.32,41.64-.29,62.47a11.78,11.78,0,0,0,.38,3,34.87,34.87,0,0,1-.08,20.43c-.68,2.12-.32,3.78,2,5,.83-5.86,2.14-11.25.47-17-.8-2.75-.11-5.95,0-8.95a3.33,3.33,0,0,1,2.73-3.17c2-.43,1.47,1.61,2.14,2.55,2.3,3.18,1.44,6.69,1.46,10.09,0,6,1,12.26-.41,17.91s-.62,10.86-1.12,16.24c-.09,1,0,2.18,1.29,2.34s1.15-1.17,1.57-2c1.8-3.59,1.61-7.43,1.39-11.2-.49-8.41.92-16.81-1.26-25.27-1.24-4.84-.21-10.27-.11-15.44,0-2.07,1-3.6,3.29-3.54,2.66.08,1.9,2.23,2,3.74.1,1.66-.07,3.33,0,5s-.63,4.35,2,4.27,2.06-2.78,1.81-4.43c-.71-4.6-1.66-9.13,0-13.72.63-1.7-1.08-4.87,1.42-5s2.7,3.33,3.72,5.29c.48,1,.23,2.29.23,3.46,0,7.33.15,14.66,0,22,0,3.08.82,6.29-1.23,9.21-.82,1.16-1.22,2.86.21,4.06a2.9,2.9,0,0,0,2.22.72c1.81-.56,1.67-2.26,1.66-3.76-.15-18.85-.22-37.71,1.84-56.49.25-2.31-1.22-6.3,1.51-6.49s2.74,4.06,3.54,6.53a9.62,9.62,0,0,1,.06,3,3.17,3.17,0,0,0,1.68,3.24c3.21,1.94,4.38,5,4.24,8.77A91,91,0,0,0,433.1,362.12Zm-162.23,302c-.68-.28-1-.58-1.27-.49-9.15,3.39-17.94,7.7-28.22,7.43-3.72-.1-7.49,2.28-11.35,0-.37-.22-1.23.25-1.82.52-2.77,1.26-5.33.83-8.13-.29-5.46-2.18-9.38-.76-13.59,3.23-3.19,3-4.55,7.19-7.6,10.21-5.33,5.26-8.94,11.89-13.76,17.61-5.55,6.59-9.92,14.18-14.87,21.29-1.75,2.5-1.48,4.2,1.76,4.3,5.93.2,11.77.89,17.66,1.61,15.94,1.94,32.08.88,48.12,2.65,15.78,1.74,31.78-.68,47.68,1.72,8,1.22,16.39,0,24.62.1,66.47,1.27,132.93-1.07,199.43,2.18,43.56,2.12,87.3.6,131,.67,5.48,0,6.58-1.7,3.91-6.73a119.68,119.68,0,0,0-6.5-10.85c-11-16.37-21.06-33.43-32.74-49.39-1.53-2.09-2.85-3-5.17-2.62-5.34.87-11,.07-15.8-1-14.51-3.11-28.09-9.28-41.32-17.18a9.3,9.3,0,0,0,2.3,6.63,70.56,70.56,0,0,1,5,6.74c5.2,7.71,10,15.72,15.66,23.08,2,2.56,1.84,3.27,0,5.4-1.72,2-3.52,2.1-5.73,2.09-11.18-.07-22.38.34-33.46-1.83-3.75-.73-7.74,0-11.36.32-4.37.43-9-1.93-13.34,1.14-1.53,1.08-5,.89-6.72-.14-2.42-1.46-4.73-1.36-7.15-1.36-32.34-.06-64.68-.13-97,0-5.5,0-10.87-1.36-16.24-1.43-34.83-.41-69.66-.42-104.49-.56a26.58,26.58,0,0,1-6.91-.68c-5.16-1.4-6.28-2.81-4.17-7.62,1.5-3.42,3.19-6.94,6.17-9.48C267.76,669.34,269.2,666.72,270.87,664.12Zm57.77-80.85c3.36-4.25,7.08-8,9.65-12.44,4.21-7.28,9.65-13.64,14.41-20.5,7.25-10.48,14.95-20.69,23-30.59,4-4.94,6.49-10.68,10.1-15.82,6.31-9,12.81-17.81,19.29-26.66a112.14,112.14,0,0,1,8.49-10.76c1.86-2,3.68-2.43,6.43.49,7.39,7.8,10.72,18,17,26.42s11.33,18.15,18.23,26.16,12.23,17.46,17.9,26.32c9.15,14.3,19.36,27.93,27.85,42.69,1.3,2.27,2.67,5.45,5.66,7a6.54,6.54,0,0,0-.31-4.15c-1.44-4.87-4.5-10.2-3.55-14.63,1.48-6.94.18-14.09,2.71-20.85,2-5.49,1.86-11.74,4.88-16.9,2.84-4.83,4-7.84.07-14-12.35-19.42-26.73-37.56-37.53-58-3.36-6.35-7.8-11.93-11.62-17.95-5.13-8.09-10.79-15.86-16.09-23.82-4.7-7.07-10.43-13.5-14.18-21.1a106.41,106.41,0,0,0-7.67-12.29c-1.78-2.66-4.65-3.39-6.62-.62-2.56,3.61-5.85,6.52-8.42,10.07-5.77,8-11.37,16.07-17.46,23.78-6.54,8.28-12.85,16.72-19,25.27s-12.39,16.83-18.68,25.18c-6.69,8.88-13.12,18-20.37,26.43-5.15,6-7.24,14-13.84,19a18.61,18.61,0,0,0-6,8.82c-.72,2.33,2.19,4.82,3.53,7.21a81.56,81.56,0,0,1,10.72,41.3A6.53,6.53,0,0,0,328.64,583.27ZM217,133.38c1.56-3.2-2.33-7.73,3-10,.82-.34.59-1,.23-1.61-2.4-4.32,1.44-4.81,3.82-5.69a58.48,58.48,0,0,1,9-2.16c4.18-.83,8.87-2,12.81,1.59,1,.88,2.23,2.86,3.67,1.57.8-.72,1-3.1.43-4.23-2.79-5.71-2-12.1-3.77-18.07-1.45-4.86-1.86-10.43-4.91-14.27-6.18-7.77-14.49-11.57-24.76-8.76a2,2,0,0,1-2.71-1.39c-.5-1.54-1.52-1.09-2.75-1.13-6.23-.18-12.37,1-18.75,0a33.38,33.38,0,0,0-15,.73c-4.57,1.34-8.48,1.48-9.95,6.75-.19.68-1.69.92-2.39,1.56-2.45,2.24-6.65,4.4-6.89,6.91-.9,9.23-9.17,15.38-9.5,24.64,0,.62-.93,1.42-1.61,1.77-1.24.62-1.41,1.17-1.67,2.73-.75,4.5-.61,9.08-1.07,13.56-.43,4-.45,9.11,4.18,12.2,2.62,1.75,5.78,3.86,2.32,7.87a2.13,2.13,0,0,0,.93,3.6c4.09,1.59,7.47,7.22,7.19,11.38-.14,2-.34,3.72-2.78,1.71-3.9-3.21-8,.41-12-.28-1.45-.24-1.39,1.93-.68,2.69,2.75,2.93,2.82,7.06,4.85,10.24,9.36,14.67,20.86,27.35,36.46,35.46,12,6.23,24,4.18,32.26-4.89a96.24,96.24,0,0,0,16.88-24.79c.66-1.44,3.39-3.49-.63-4.76-1.2-.38-1.17-2.25-.37-3.55,1.48-2.37,3.07-4.68,4.43-7.12,2.28-4.12,5-8,5.07-13.1,0-2.76-1.59-6.65,3.56-7,.27,0,.74-1.16.67-1.72-.45-3.49,1.62-6.79.27-10.52-.76-2.06-.12-4.74.6-7.25,1.06-3.66,2.16-7.9-1.89-10.91-4.43-3.3-12.21-2.11-16.25,2.91,3.17,0,6-.3,8.69.08,3.31.46,6.94,1.7,8.1,4.87.82,2.26-1.1,4.93-2.25,7.46-2.83,6.24-8.56,5.56-13.1,6.06-2.06.22-9,.82-7.85-6.11.23-1.33-1.2-1.23-2.2-.78C219.57,132.16,219.05,133.83,217,133.38Zm277.2,458c-2.1,2.31-3.09,4.45-5.56,4.41-2.27,0-4,1-5.94,1.87-5.43,2.48-11.18,4.26-16.83,6.23a2.85,2.85,0,0,1-3.21-.79,1.6,1.6,0,0,1-.13-1.32c3.59-1.79,3.72-6.85,8.44-8,3.44-.88,6.7-3,10.24-4.18,1.65-.52,3.14-1.29,3.39-3.64-5.55,1-9.64,4.68-14.56,6.39-1.39.48-2.8,3.08-4.19,1-1.85-2.74,2.38-1.87,2.7-3.54a3.32,3.32,0,0,0,0-.94c-5-1-6.79,6.43-13.55,4.32l7.82-7.07c-3.37-.11-5.78-.14-7.85,2-1.88,2-3.26.25-4.5-1.1-.76-.84-1.94-2.43-.57-2.88,5.18-1.69,7.62-6.67,12.07-9.32,4.87-2.9,10.49-4.75,14.34-9.33,1.27-1.51,1.53-2.4.3-4.2-4.87-7.1-9.43-14.42-14.22-21.58-1.65-2.47-3.07-2.94-4.84.41-4.57,8.67-5.39,18.65-9.92,27.3-1.78,3.39-1.8,7.7-6,9.8-2,1-4,1.41-5.66.47-2.18-1.27.14-2.8.53-4.23.86-3.07,3.34-6.37-1.51-9.19,1,4-1.4,6.94-1.85,10.31-.13.94-.53,1.55-1.54,1.56-1.39,0-1.74-1-1.55-2,1.58-8.19,2.57-16.52,4.19-24.61.7-3.5,2.65-7.18,2.44-11.09-.15-2.94,1-5.5,1.55-8.23.23-1.07.56-2,1.85-1.78a2.18,2.18,0,0,1,1.71,2.16,35.55,35.55,0,0,1-2.9,18.76A20.38,20.38,0,0,0,437.46,562c1.17-3.94,3.7-7.14,5.37-10.82,3.22-7.13,2.72-15,5.89-22.15a9.92,9.92,0,0,0-1.83-11.21c-2.78-2.7-4.29,1.57-7.76,2.09,3.07-4.79,4-8.94.79-13.13-.87-1.17-1.66-2.07-3.09-2.1-2.09-.05-1.26,1.84-1.85,2.81-1.49,2.48-1.07,7.65-3.52,7.37-3.4-.38-.28-4.73-1.31-7.22a4.82,4.82,0,0,1,.54-3.81c1.76-3.62,1.43-7.18-.41-10.85-1.06-2.12-2.42-4-4.58-3.5s-1.55,3-1.55,4.77q0,22.5,0,45a13.88,13.88,0,0,1-.09,4,77.91,77.91,0,0,0-3.14,25.3,23.08,23.08,0,0,1-.07,3c-.14,1.45-.87,2.81-2.35,2.77s-1.2-1.66-1.33-2.76c-1.22-10.09.8-20,2.23-29.85.51-3.52-1.4-6.38-.42-9.62,2.1-6.89,1.35-14.06,1.67-21.1.4-8.82.1-17.67.1-26.5,0-1.83,0-3.66,0-5.5,0-1.33-.55-2.46-1.88-2.51-1.84-.07-1.3,1.54-1.34,2.59-.17,3.76-.82,7.5-1.2,11.17-.48,4.6-3.08,9-.76,14.35,1.86,4.26,1.49,9.93,1.34,14.52-.18,5.45-.49,11.15-1.18,16.69-.25,2.05-2,3.84-1.16,6.17,4,10.65-.88,21.18-.52,31.79a2,2,0,0,1-1.95,2c-1.5.11-1-1.42-1.49-2.07-3-3.64.13-7.2-.06-10.74-.39-7,.64-13.94.4-21-.28-8,1.72-16.08,1.17-24.22-.3-4.47.84-9.07-.56-13.39a13.75,13.75,0,0,1-.06-9.15c1-2.88.78-6.06,2.37-8.88a3.29,3.29,0,0,0-.93-4.09,1.42,1.42,0,0,0-2.17.34c-2.63,3.87-5.91,7.15-5.82,12.61.14,7.86.61,15.72.32,23.62-.49,13.21,2.64,26.32,1.63,39.62-.37,4.8,0,9.66,0,14.49,0,1.07.79,2.57-.92,2.86a2.27,2.27,0,0,1-2.72-2.29c.8-7.48-3.31-14.61-1.84-21.93.79-3.9,2.57-7.95,1.34-11.59-2.39-7-1.51-14.14-1.4-21.18.08-5.21-1.39-10.11-1.72-15.19-.17-2.57-1.47-2.59-3.28-1.05s-2.05,3.28-2,5.37c.06,5.16.41,10.37-.08,15.49-.8,8.24,1.57,16.16,3.16,23.88,1.3,6.32,2.91,12.43,2.65,18.92a4.82,4.82,0,0,0,1,3.27c.54.71.82,1.56,0,2.19s-2,.82-2.63-.14-1-2.42-2.46-1.4-.54,2.3.2,3.44a3.14,3.14,0,0,1,.19,3.72,1.9,1.9,0,0,1-1.74.45c-1.43-.6-2.79-1.67-2.49-3.36,1-5.48-3.45-9.49-3.82-14.66-.13-1.73-2.59-4,.05-4.9s4,1.79,4.31,4.22c.31,2.66,1.48,4.76,3.1,7.3a22.3,22.3,0,0,0-1.8-14.59,20.59,20.59,0,0,1-2-7.63c-.54-7-2.37-13.93-1.75-21.1.17-2-.92-5.26-2.82-5.18-2.18.09-2.91,3.11-3.11,5.47a6.3,6.3,0,0,0,.1,2c1.1,4.46,1.76,9.09,3.86,13.22,1.89,3.68.85,7.47.89,11.22A2.08,2.08,0,0,1,387,552c-1.24,0-1.48-1-1.74-2-1.59-6.24-1.68-12.89-5-18.68-.43-.74.15-2.19-1.4-2.07a2,2,0,0,0-1.83,2c-.11,1.32-.45,2.78-.06,4,2.23,6.8,3.38,13.84,5,20.77.31,1.28.7,2.29-.36,3-1.65,1.06-2.28-.2-2.84-1.57-1.63-4.07-3.44-8.07-3.57-12.57-.05-1.9-.46-3.77-2.42-4.55a3,3,0,0,0-3.51,1.28c-1.28,1.69-.78,3.14.36,4.94,2.63,4.18,4.86,8.62,7.19,13,.7,1.31,1.62,3-.25,3.89-1.61.74-2.76-.63-3.52-2-1.67-3.05-3.24-6.15-5-9.15s-4.53-3.23-6.6-.35c-1.78,2.48-3.34,5.15-5.28,7.5-4.3,5.2-4,8.85,1.66,12.18,4.35,2.57,8.74,4.87,11.63,9.34,1.12,1.72,3.15,2.94,4.93,4.13,1,.66,3.27.33,2.74,2s-2.52.86-3.91.62c-.83-.13-1.32-1.75-2.72-.35,1.25,2.79,4.45,3.66,6.24,5.92a1.09,1.09,0,0,0,1.75.09c1.52-2.19,4.27-2.35,6.19-4,7.51-6.24,16.82-8.19,26-9A43.8,43.8,0,0,1,440,588.22c9.5,6.63,18.44,14.23,19.86,27.32.88,8.18,1.42,8.12,9.89,8.47.67,0,1.46-.16,2,.13,8.17,4.54,17.08,3,25.76,3.08,7.39.12,14.79,0,22.67,0-4.43-6.89-8.24-13.17-12.45-19.15-1.37-2-3-5.4-6.1-3.92-5.42,2.57-11.2,3.55-16.86,5.12-4.89,1.35-9.72,2.93-14.58,4.39-1.06.32-2.37,1-2.94-.55-.51-1.42.85-2.28,1.76-2.66a24.55,24.55,0,0,0,5.62-3.13c-3-1.09-5.75,2.12-8.92,0,1.52-1.61,2.85-2.89,4.86-3.44,8-2.18,16.43-2.91,23.69-7.62,1.93-1.25,3.69-2,2.32-4.34-1.25-2.16-3-4.19-6-3.37a2.2,2.2,0,0,0-1.45,1.16c-.27,1.14.72,1.24,1.56,1.32Zm-104.59,83.8c3.77,1.7,7.75,1.26,11.68,1.47,1.25.07,3.6-.79,3.39,1.56-.15,1.58-2.29,3.23-3.69,2.5-4.84-2.53-9.57.56-14.28-.26-5.43-.93-10.75,1.4-16.45,0-2.39-.56-7-.8-10.62,2.16,1.93.19,3,.34,4.16.4,18.68,1,37.36.25,56.11,1.45,33.65,2.15,67.51-.07,101.24,2.36,4.7.33,9.37-.79,14.29-.12,6.7.92,13.63.24,20.46.22,1.63,0,4,.34,4.08-1.75.06-2.63-2.58-1.37-3.87-1.36-17.43.15-34.86-1-52.3-.09a47,47,0,0,1-9-.27c-11.83-1.71-23.75-.22-35.64-1.09-7.72-.56-15.61,1.35-23.37-1.29-1.9-.64-3.89-1.22-3.67-3.18s2.51-1.18,3.81-1c11.44,1.32,22.95.42,34.37,1.21,5.64.4,11.19-.36,17,.81,8.27,1.65,17.1,3.9,25.53,1.85a47.3,47.3,0,0,1,18.61-.92,134,134,0,0,0,16.18,1.2c3.19.13,5.79-1.28,8.31-3.31a16.65,16.65,0,0,0-5.17-.73q-38.94,0-77.87,0c-1.49,0-3.17.29-4.44-.27a20.68,20.68,0,0,0-17.11,0c-1.41.59-3.59.95-4.25-.13-2-3.29-9.25,1.64-8.53-5.54,0-.07-1.13-.07-1.34-.38-1.18-1.73-3.47-.9-4.84-2.13a4.16,4.16,0,0,1,4.42-2.61c13.31,1.12,26.83-2.12,40,1.85a4,4,0,0,0,1.95-.2,58.15,58.15,0,0,1,29.15-.09c4.17,1,8.86,1.3,12.84-.1a19,19,0,0,1,13.79-.09A10.71,10.71,0,0,0,545,666.11c.51-.37,1.33-.44,1.25-1.25-.1-1.05-1-1.22-1.84-1.22-7.66,0-15.33-.24-23,.13-2.5.12-5,2.32-7.59.84-2.24-1.29-4.49-1.09-6.77-1-4.47.12-9.23,3-13.14-1.59-.14-.17-.64-.06-1-.06-8.83,0-17.69-.36-26.48.22-3.68.24-7.33,1.75-11.19,1.41-1.35-.11-2.71-.22-3.46-1.55-.52-.92.11-1.61.78-2.1a2.27,2.27,0,0,1,3.47.36,2.75,2.75,0,0,0,4.05.12c3-3.53,7-2.37,10.67-2.67,2.54-.2,5.34.94,8.22-1.44-5.45-.46-10.21-1-15-1.21-2.62-.11-5.21-.87-4.83-3.55.31-2.21,3.24-2.61,5.43-2.1s4.16,1,6.35-.44c-5.08-1.32-10.25-2.16-15.42-3-.91-.15-2.25.34-2.45-1-.26-1.74,1.2-1.63,2.35-1.71,5.67-.4,11.17-.5,16.77,1.56,6.16,2.27,12.86.81,19.31,1.22s12.77.48,19.11,1a46.84,46.84,0,0,0,17.93-2.59c-1.38-1.64-3.15-1.2-4.68-1a139,139,0,0,1-18.54.76c-6.6-.25-13.48-1-20.12-.68-9.59.45-18-3.36-27.39-4.94,2.82-2.81,5.91-3.33,9.13-1.87,8.56,3.85,20.71,4.49,29.46,1.16-13.08.78-25.42-3.52-39.15-5.27,6.21-5.18,12.56-1.11,18.38-1.66-4.82-2-9.43-4.54-14.68-3.46a62.74,62.74,0,0,1-16.11,1.31,79.57,79.57,0,0,0-10.7.16c-8,.62-16,1.13-23.85-1.49a8.15,8.15,0,0,0-4.88.38c-10,3.55-20.35,2.57-30.53,1.77-10.52-.82-21-.2-32.73-.5,1.85,1.2,2.52,2,3.21,2,4.93.1,9.9,1.28,14.76-.62a9,9,0,0,1,6.31,0,2,2,0,0,1,.16,1.76,6.51,6.51,0,0,1-6,2.78c-.33,0-.67,0-1,0-6.24-.62-12.47,1.47-18.75.07-1.18-.27-2.94-.78-4,.76.21,1.22,1.08,1.26,1.9,1.28,8.9.3,17.62,2.72,26.62,1.95,3.33-.29,3.39.14,2,3.23-.68,1.52,0,2.23,1.39,2.38s3,.16,4.48.23c1.07.05,2.15.39,2.05,1.61-.07.9-1.12,1.1-2,1.08-6.32-.1-12.72.38-18.93-.52-4-.58-7.12,1.49-10.79,1.68,7.65.85,15.24.8,22.82.89,1.86,0,4.78-.66,4.82,2.1s-2.78,3.23-5.19,3.25c-3.92,0-7.84,0-11.76,0,6.63,1.47,13.22,3.3,20,1.51,2-.53,2.86.72,3.14,2.27a2.45,2.45,0,0,1-2.45,3.08c-6.09.6-12.13,3.74-18.36.23-1-.58-3.52-.82-3.7,1.16s2,1.16,3.1,1.18c10.76.22,21.5,1.41,32.27.47,1-.09,2.67-.59,2.92,1s-1.29,1.73-2.41,1.84a42.39,42.39,0,0,0-14.12,4c7.5-.34,14.94-.72,22.38-1,1.62-.06,3.8-.05,3.74,2.18-.06,2-2.1,2.28-3.82,2.3C394.54,675.23,392.05,675.21,389.57,675.21ZM445,624c2.56,0,4.9.1,7.22,0,2.58-.14,4.46-1.65,3.49-4.19-2.49-6.53-3.85-13.31-8.75-19.15-7.68-9.16-17.72-12.68-28.52-14.24-11.19-1.62-21.88,1.86-31.38,7.71-7.88,4.85-13.09,12-13.59,21.77-.09,1.8.21,3.61-.89,5.31-1.59,2.45.1,4.24,2.11,4.37,4,.26,7.58,2,11.68,1.81a83.09,83.09,0,0,0,18.32-3c3.7-1.05,7.95-3.1,11.66.91.76.82,2.86.33,4.32.56C429,627.09,437,623.47,445,624ZM169.61,213.88c-.58,5.84.74,11.36-1.69,16.57-2,4.33-2.08,9.24-3.33,13.79-2.09,7.65-4.3,15.39-9.65,21.62-2.69,3.13-2.89,7.64,0,7.94,7,.73,13.79,3.25,20.92,2.88,2.47-.13,5.66-1,5.84-3.43.57-7.59,1-15.31.25-22.85-.74-7.2.1-12.51,5.19-15.29-3.06,4.4-1.53,8.42.81,13.22.95-10.74,4.92-19.45,13-27.75C188,226.26,179.27,219.44,169.61,213.88ZM662.94,241c0-1,0-2,.16-2.92.31-2-1.09-5.33,1.72-5.43,2.65-.09,3.68,3.1,4,5.73a18.26,18.26,0,0,1,0,4c-.84,9.42,1.59,18.65,1.6,28,0,1.73.37,2.88,2.48,2.75,6.73-.43,13.54,1,20.2-1.35,3-1,4.55-2,2.43-5.18-4.52-6.7-7.09-14.43-9.27-21.92-2.8-9.59-6.71-19.24-5.56-29.68.13-1.24.43-2.93-1.07-3.56-1.29-.54-1.89,1.06-2.86,1.57-7.4,3.8-14.62,8.32-23.83,6.73C656.41,226.59,662.56,232.33,662.94,241ZM351.77,589.65c.19,2.89,2.68,2.05,3.76,3.27a37.56,37.56,0,0,0,4.22,3.46c1.47,1.27.94,9.7-.66,10.48a1.85,1.85,0,0,1-1.46,0c-4.84-2.39-10-4.35-14.37-7.42-3.48-2.44-7.3-3.11-11.08-4.43,2.39,1.6,3.91,4,6.92,5a60.43,60.43,0,0,1,17.09,9.37c1,.78,3.6.61,2.23,2.83-1,1.62-2.29.12-3.36-.56-.63-.39-1.22-.37-1.88.59.56.65,1.19,1.35,1.79,2.09.42.52.79,1.15.31,1.77-.74.95-1.43.32-2.11-.17-8.15-5.81-17.92-7.85-27-11.58-1.49-.62-3.52-1.31-4,1.19-.79,4.56-3.53,8-5.85,11.81-1.21,2-2.1,4.68,1.32,5.45,7.38,1.66,15.18.32,22.49,2.82a2.09,2.09,0,0,0,1.48,0c5.81-2.84,11.56-1.32,17.36.08,4.94,1.18,6.63-.59,5.5-5.47a4.38,4.38,0,0,1,0-1.94,52.93,52.93,0,0,1,9.86-20.85c1-1.24,1.24-2.33-.47-3.7-4.39-3.5-8.53-7.33-12.71-11.08-2.88-2.58-10.57-6.29-14.37-6.26,9.78,5.17,18.77,11.29,25.78,19.75-6,3.06-9.76,0-13.7-3.61C357.24,590.92,354.34,590.61,351.77,589.65ZM447,671.2c2.4,4,5.32.59,8,.71,7.71.35,15.39.8,23.1,1.49A148.27,148.27,0,0,0,513,672.18c10.85-1.59,21.65,2.78,32.62,1.57,2-.21,4.36.56,5.14-2.75-2.27,0-4.26.1-6.25,0-16-.93-32.13,2-48.05-1.62a4.13,4.13,0,0,0-2.46.19c-6.55,2.94-13.68,2.16-20.07,1.07C464.66,669.06,455.9,668.66,447,671.2ZM704.37,71.7c2.2-1.55,3.69-.74,5.12.66.44.44.51,1.32,1.77.42,2.86-2,10.83-.1,12.92,2.8,1.8,2.5,4.14,4.7,5,7.73.81,2.85,3,1,4.07,1,1.53-.11.5-1.77,0-2.71-3.53-6.23-9.39-10-14.84-14.28a2.76,2.76,0,0,0-2.41-.22c-3.46,1.62-6.43-.11-9.32-1.39-4.49-2-8.47-1.37-12.7,1.36,2,1.43,4.23,1.84,5.2,3.74-4.18,1.11-7-2.27-10.65-3.25,5.27,5.38,11.42,8.41,19.13,8.11C707.41,73.14,705.18,73.41,704.37,71.7ZM780.1,204.26c-1.69-.6-2.29.89-3.17,1.72-3.66,3.4-4.4,8.81-8.23,12.12-.88.76.13,1.15.59,1.4.83.47,1.44.27,1.93-.72.82-1.64,2-3.72,4.07-2.33,1.83,1.2,1,3.17-.06,4.87-.58,1-.6,2.23-1.11,3.25-1.53,3.06-1.57,3,.67,4.29.21.11.17.59.31.87,1.56,3.05,3.61,2.7,6.22,1.21s2.86-4.34,5-6c1.06-.81,3.25-1.56,2.21-3.32-.77-1.3-2.82-.95-4.12-.35s-2.18.46-3-.57-.3-2,.05-3.16c.63-2.07,3.48-3.48,2-6.36-1.75.75-2.23,4.45-5,2.37s-.68-3.84.38-5.85C779.36,206.73,781,205.91,780.1,204.26ZM681.77,11.31c0-1.15-.63-1.64-1.58-2.21-2.27-1.36-4.52,1.59-7.55-1.08-2.46-2.18-9.83,7.27-7.82,10.73,1.5,2.6,4.63,4.19,4.39,7.9-.06.88,1.27.65,2.06.37C677.2,24.91,682,17.73,681.77,11.31ZM70.09,207.23c.41,3.16,3.26,5,3,8-.1.95.18,2.18-1.1,2.46a3.89,3.89,0,0,1-2.37-.32c-1.08-.51-.71-3.74-2.7-2.13-1.63,1.33.66,2.88,1.3,4.29.33.75,1.1,1.31,1.35,2.07.53,1.6.86,3.53-.24,4.78-1.39,1.58-2.48-.1-3.69-.94a2.15,2.15,0,0,0-3.37.85,17.82,17.82,0,0,1,5.13,6A4.54,4.54,0,0,0,71.74,235c5.19-.19,6.14-2.21,4.87-7.25-.57-2.27-4.34-4.2-1.62-7s3.68,1.69,5.79,1.69c.26,0,.52-.25,1.09-.55C77.61,217.35,76.56,210.44,70.09,207.23Zm154-189.59c2.92,5.18,5.92,8.73,7.14,13.77,1.39-1.92,1.48-3.22.58-4.37-.66-.86-1.34-1.81-.4-2.54,1.39-1.09,1.21,1.61,3.24,1.15-1.73-2.63-.75-6.74-5.55-6.85-.85,0-1.21-.19-1.06-1.09,1-5.81-4.38-5.74-6.95-8.3.15,2.53,2.68,4,1.83,7.92C219.75,10.11,213.26,9,208.4,5.48c3.38,4.94,6.35,10,10.86,13.92C221.37,21.22,223.19,24.19,224.09,17.64ZM780.44,260.31c-.88-.14-1.29-.35-1.49-.23-4.23,2.55-5.79-1.06-7.92-3.39-3.66-4,1.89-2.69,2.42-4.22a9.36,9.36,0,0,1,2.47-3.64c.93-.91.66-1.8-.29-2.49s-2.89-.92-3,.19c-.27,3.87-4.35,4.22-5.65,6.67-2.93,5.54-7.36,10.29-8.81,17,3-3.45,7.46-3.42,10.92-5.15S777.58,264.71,780.44,260.31ZM175.68,51c-6.24-14.44-20.36-22.73-32.06-18.58,6.12.56,12.63.18,16.68,6.16-1.24.55-2.86-.57-3.78,1,3.11,2.24,7.15,3.83,9,6.78C168.13,50.68,171.7,50.42,175.68,51ZM770.81,303.51c6.33,9.08,12,17,20.19,22.74,1-1.86.2-2.6-1.12-3.34s-1.64-2.18-.18-2.63c3.79-1.15,1.28-3.22.47-4.18C785.34,310.36,779,306.75,770.81,303.51ZM500,658.29c4.2,4.2,9.36,2.4,14.06,2.66,3,.16,6,.52,8.75-2.19,2.05-2,5.34-1.81,7.58.61,1.9,2,4.2,1.8,6.46,1.52,1.73-.22,3.36-1.39,3.25-3.2-.12-2-2.15-1.55-3.57-1.65C524.32,655.19,512.29,657,500,658.29ZM135.68,316.13a9.38,9.38,0,0,0,0-1.5c-.28-1.75,1-4.31-2.29-4.54s-2.2,2.57-3,4.13c-1.84,3.63,1.7,6.76.79,10.24-.76,2.91,1.44,5,2,7.53.46,2,2.23,1.57,3.65.76,1.26-.73,2.54-1.17,1.62-3.37A33.18,33.18,0,0,1,135.68,316.13ZM689,33.94a33,33,0,0,0,10.44-5c-13.82,1.54-21.9,7.92-23.44,18.82l21-13.86C693.81,34.26,691.86,36,689,33.94ZM347.75,642.18c-7.49-.68-14.18-2.88-21.33-2.35-2.13.16-3.85,2.13-5.95,1.16-4.3-2-8.78-.63-13.16-.94-1-.07-2.23.13-2.12,1.45s1.36,1.22,2.35,1.24q3.72.09,7.46.13c7.08.08,14.09-.82,21.19,1.43C339.45,645.34,344,646,347.75,642.18ZM693.45,22c-9-2.72-14.66.61-19.47,6.52-.8,1-2.46,1.52-1.63,3.11A3.41,3.41,0,0,0,675.84,33a11.73,11.73,0,0,0,5.08-1.69C685,28.57,688.77,25.5,693.45,22ZM78.59,305.43c-4.06,2.39-4.44,7.26-7.69,7.07-6.36-.38-7.65,5.39-11.27,8.2-1.66,1.3-.87,3.53,1.7,4.44,1.86.66,3.89,2.4,4.47-1,.37-2.2,2.22-2.73,3.32-4.07C72.56,316,76.43,312.12,78.59,305.43Zm14.89-31.57c-2.92-2.53-3.5-6.2-5.23-9.14-2.92-4.94-6.63-9.18-10.09-13.65-.44-.57-.7-1.19-1.4-.73-.49.33-1.1,1-1,1.5a4.08,4.08,0,0,0,2,3.19c4.09,2.3,2.78,5.28.27,7.45-2.28,2-.62,3.71.32,4C83.79,268,88.91,270.14,93.48,273.86Zm626,40.44c0-.83,0-1.66,0-2.49-.08-1.63.19-3.71-1.94-4a3.61,3.61,0,0,0-3.68,2.83c-.74,5.34-.87,10.75-1.85,16.1-.33,1.77,1.44,2.84,3.33,2.91,1.24,0,2.69-.25,2.46-1.73C717.05,323.16,719.57,318.9,719.45,314.3Zm-277,253.85c.35-.13.82-.17.91-.37,5.25-11.22,6.86-23.76,12.57-34.84.45-.87.55-2.46-.66-3.12s-1.7.71-2.49,1.2c-1.41.86-1.34,2.42-1.86,3.78-2.2,5.76-2.33,12-4.65,17.78C444.27,557.49,439.85,562,442.42,568.15ZM784.65,331.83c-3.33-2.65-1-6.26-2.19-7.76a136.11,136.11,0,0,1-9.52-13.21c-.64-1.08-1.65-.77-2.58-.16-.76.51-2.6.48-2.1,1.56,1.57,3.42,2.46,9.2,4.48,9.91C778,324,778.79,329.69,784.65,331.83ZM342,661.86c-19.71.41-38.62-.69-57.49,1C290.61,665.31,338.91,664.55,342,661.86ZM132.74,77c8.69.7,16.27-4,24.73-5.37C152.34,65.59,137.79,69,132.74,77ZM739.5,227.86c.69,3.13,4.54-1.54,4.84,2.37,0,.49,1.47-.63,1.68-1.15,1.55-3.81,4.41-6.55,7.4-9.11,2.63-2.27.35-4.16-.59-5.56-1.11-1.65-2.56-.08-3.64,1-1.68,1.6-3.64,3-5,4.81A88.17,88.17,0,0,0,739.5,227.86ZM325.89,670.17c-4.95-2.43-9.65-1.35-14.46-1.1-9.45.48-18.94.11-28.41.19-1.43,0-3.3-.86-4.35,1.24,2.07,1,4.06.45,6,.44,4.56,0,9.12.09,13.67-.17C307.44,670.27,316.58,674.8,325.89,670.17ZM82.43,314.7c-.65-1.11-1.67-2.49-3.37-1.43s-3.41,1.86-4.28,4a31.23,31.23,0,0,1-5.25,8.82c-.75.85-1.86,1.68-.67,2.94,1,1,2.17,1.91,3.49.89,1.57-1.24,4-1,4.37-4.44.31-2.52.84-6.65,4.74-7.94C81.92,317.35,82,316,82.43,314.7Zm342.2,31.36c-2.83,3.45-2,6.43-1.63,9.29.15,1.07,1.23,1.91.71,3.24-2.53,6.43-.57,13.13-1.06,19.68-.13,1.62-.08,3.73,2.41,3.39s1.61-2.72,1.44-4c-.41-3.17-2.86-6.23-.92-9.47a9.56,9.56,0,0,0,.79-8.15C424.71,355.65,425.39,351.22,424.63,346.06ZM435,397c0-6.57,0-12.64,0-18.72,0-2.45.51-5.05-1.57-7-.67-.63.47-2.91-1.78-2-1.77.7-2.27,2.39-1.15,3.6,1.78,1.91,1.22,4,1.27,6.09q.12,6.24,0,12.47C431.74,393.67,432.06,395.6,435,397ZM721.32,138.5c0-1.37-.15-2.69-1.45-3.47-.7-.42-1.17.06-1.55.68-1.21,2-2.47,4-3.71,6,4.45,1.51,1,3.06.26,4.93-.63,1.61-.61,4.17,1,5.15s2.46-1.25,3.68-2.2C723.84,146.27,720.12,142.06,721.32,138.5ZM357.38,587.84c0-.79.13-1.2,0-1.38-3.56-4.28-9.21-4.53-13.82-6.69-2.34-1.09-4.56,2.23-6,4.81-1,1.78-1.16,3.35.56,4.29,4.55,2.47,9.24,4.67,14.57,7.32-2.26-5-6.91-4.25-9.87-6.42-1.5-1.1-4.47-1.53-2.93-4,1.2-1.9,2.29-5.7,6.47-3.06C349.7,584.86,353.57,586.12,357.38,587.84ZM133.5,106.9c-1.56-1.75-3.73-.06-4.76-1.84-.43-.76,2.61-2.53-.6-2.39a4,4,0,0,0-3.53,3.09c-.54,3.64-2.25,6.73-3.65,10-.37.86-.48,1.59.52,2a1.17,1.17,0,0,0,1.63-.63C125.22,112.42,129.17,109.44,133.5,106.9Zm1.83,43.28c-.39-1.38-1.39-3.05-.94-3.67,3-4.09-2.12-5.18-2.75-7.88-.17-.72-1.31-1-2.1-.34-.53.46-.81,1.48-.2,1.66,3.22,1,1.17,3.46.68,4.2-2.31,3.53-.22,6.28,1,9.23.39.9.95,2,2.11,1.63,1.53-.51.91-1.95.6-2.93a11.32,11.32,0,0,0-1.71-2.61ZM351.2,610.78c-6.11-6.27-14.61-8.31-22-12.42a1.2,1.2,0,0,0-1.9.84c-.25,1.27.68,1.55,1.57,2.1C335.84,605.56,344,607,351.2,610.78ZM160.75,50c-.22,1.8,2,2.11,1.45,3.91-3.17-1.14-6.32-2.51-10.24-2.32,3.87,3.8,8.79,4.62,12.52,7.49,2,1.53,2.58-.24,3-1.69C168.36,53.77,166,51.13,160.75,50Zm-41.3,39.89L131,73.24l-1-.83c-2.34,3.65-6.24,5.34-9,9C117.1,86.61,116.32,86,119.45,89.88ZM594.82,227.29c2.48-.15,3.84-2.92,6.09-1.66.81.45,2.62.84,2.62.14,0-3.21,3.32-3.88,4.22-6.24.1-.26-.74-.93-1.2-1.34-1.94-1.75-3.74-1.34-5.73.11C597.87,220.45,597.19,224,594.82,227.29ZM194,266.34c-1.14,5.51,3.45,6.44,5.84,9.23,3.27,3.83,6.81.13,9.93,1.79C203.29,275.66,200.45,269,194,266.34ZM526.55,638.73c-.09-.59,0-1-.22-1.19-2.76-2.47-19.41-2.12-21.75.48a1.47,1.47,0,0,0-.26,1.32,1.44,1.44,0,0,0,1.25.55C512.47,638.17,519.58,639.69,526.55,638.73ZM728.29,114.49c.63-5.45-3.3-9.53-3.94-14.62-.15-1.16-2.17-1.2-3.69-.65,5.18,4.81-2.91,2-2.22,4.74C722.16,106.58,725.87,109.78,728.29,114.49ZM697.79,47c-2.1,1.74-4.83,1.39-7.07,2.63-1,.55-2.56.17-2.23-.81,1.5-4.43-1.8-1.93-2.65-1.73-3.29.77-3,3.55-2.77,6s2.1,1.84,3.33,1.2C690.38,52.28,695,51.17,697.79,47ZM360.07,669.53c-2.07-.19-4,.05-5.61-.58-6.11-2.39-12.4-.57-18.58-1.13-.93-.09-2.21,0-2,1.43.12.94,1.23,1.08,2,1C343.81,669.27,351.88,673.14,360.07,669.53Zm216-561.28c6.88-.81,10.38-4.89,13.83-8.88-4.77-2.61-7.39,4.29-12.51,1.79C581.32,104.23,578.76,106,576.07,108.25ZM759.3,221.06c-8,1.86-11.81,7.35-13.5,14.71C750.42,231,754.6,225.78,759.3,221.06ZM242.4,41c3-5.11-2.13-9.06-1.67-14.23-1,.74-1.82,1.81-2.53,1.75-5.79-.47-2.31,2.7-1.92,4.67.28,1.39,1,2.12,2.46,1.55,1.75-.7,2.39,0,2.64,1.67C241.59,37.9,240.67,39.7,242.4,41Zm79.79,634.67,0,.92h24.91l0-.92ZM470.79,588c6.39-2.91,12.29-4.27,16.57-8.72C483,577.87,476.36,581.16,470.79,588Zm37.79,43c-7.84-2-15.1,1.64-22.73,1.94C493.52,633.26,501.21,634,508.58,631ZM200.32,258.48c1.29,1.31,0,3.41,2.91,5.32-1.39-6.3-2.56-11.51-.39-16.7-5.3,6.69-6.79,13.38-4,15.68C199.89,261.63,198.61,259.78,200.32,258.48ZM315.45,627.41l-.17,1.78h18.17C327.2,625.75,321.22,627.76,315.45,627.41ZM734.17,366c5.75-4.91,5.69-11.64,7.61-17.58C738,353.64,734.2,358.84,734.17,366ZM344,682.63c-7.85-2-15.71-1.86-23.57-1.22v1.22ZM142.26,78.84c5.55.57,10.49-.78,15.4-2.15,1.3-.36,2.68-1.36,2.08-2.84s-2.14-.94-3.37-.45C151.77,75.19,146.82,76,142.26,78.84ZM479.55,569.32c-7.25,3-17.65,9.95-19.6,13.28C467.36,578.35,474.29,575.08,479.55,569.32ZM270.46,110c2.12,0,2,0,1.58-1.44-1.07-4.14-4.66-4.9-7.6-6.41-1.13-.57-3.21.66-2,2.12C264.74,106.92,267.2,109.83,270.46,110ZM656.59,263.1c-2,4-5.71,4.45-7.3,7-1.19,1.93-5.74,1.46-4.22,4,1.67,2.75,4.08-1.15,6.23-1.68C654.47,271.62,657.9,269.18,656.59,263.1ZM350.85,676.37a51.44,51.44,0,0,0,20-.8C364,674.13,357.39,673.64,350.85,676.37ZM567.7,372.75c1.68,3.71-2.86,5.32-.61,8.24,1.74,2.25,4.77-.77,6.69,1.67C572.88,379,571.89,375.73,567.7,372.75ZM601.41,209c-3.88-1.74-5.93,1.31-8.53,2.38-1.18.49-1,2.1-.41,3.1.67,1.23,1.66.39,2.55,0C597.63,213.35,600,212,601.41,209ZM649,12.86c4.51-1.38,6.83-4.06,9.8-5.67,1.25-.68,1.2-1.9.8-3A1,1,0,0,0,658,3.73C655.33,6.6,651.48,8.36,649,12.86ZM135.69,239.11c0-2.46-.17-4.94.05-7.38a11.88,11.88,0,0,0-1.94-7.42c-.62-1-1.73-1.78-2.86-.83a1.67,1.67,0,0,0,.18,2.61C135.17,229.53,135.07,234.28,135.69,239.11ZM112,186.69c-.52-1.83-2.63-3.53-2.79-3.22-1.27,2.51-3.49,4.35-4.66,6.81-.57,1.2.88,1.43,1.91,1.49C110.26,192,109.71,187.84,112,186.69ZM299.9,682.29c-9.54-1.85-19.12-1.15-28.69-.93C280.76,682.26,290.39,681.26,299.9,682.29ZM231.5,66c5.17-1.36,5.73-5.18,8-7.42,1-1,2.08-2.16.79-3.29-1.52-1.35-2.74-.08-3.6,1.26C235,59.23,234.58,62.59,231.5,66ZM670.33,5.43c-8.3,3.64-10.12,5.39-12,11.77C662.68,13.15,666.84,10.22,670.33,5.43Zm43.81,232.76a21.36,21.36,0,0,1,.07-4.87c.8-3.32,1.21-6.91,3.62-9.52.84-.9,1.7-1.42,1.35-2.75a1.25,1.25,0,0,0-1.47-1,3.1,3.1,0,0,0-2.65,2.57C714,227.73,712.32,232.76,714.14,238.19Zm-644,62.91c7.62,1.78,9.5,1.19,17.22-5.29a18.09,18.09,0,0,0-7.92,3.58C76.84,301.25,73.6,299.36,70.12,301.1ZM276.5,385.49c2.22.41,1.88-3.57,3.46-1.89,2.28,2.44,2.79.42,3.36-.86,1.19-2.67-1.32-3.59-2.87-4.43-2.12-1.17-2.11,1.28-2.11,2.18C278.34,382.43,276.35,383.52,276.5,385.49ZM111.55,357.08c-.92,6.6.83,9.92,5.84,11.55C114.8,365.27,115.83,360.17,111.55,357.08ZM294.69,647.49c4.41.92,8.85,1.39,13.27.08C303.58,645.24,299.15,645.61,294.69,647.49Zm-51.42-354c-3.93,4.81-7.29,8.62-7.68,14C238,303.17,242.26,299.85,243.27,293.52ZM610,50.88c-.08,4.82,3.07,7.27,6.3,9.67C615.33,56.7,615.69,52,610,50.88ZM342.73,655.65c-6.62-1.27-12.17.68-17.39-1.31-1.11-.42-2.08-1.27-3.14-.23a1.92,1.92,0,0,0-.46,1.71,2.79,2.79,0,0,0,3.51,1.16C330.55,655.16,336.05,656.12,342.73,655.65Zm398.9-474.57a2.26,2.26,0,0,0-2.13,2.58c.14,3,1.85,4.4,4.72,4.48.9,0,2.61-.1,2-1.26C745,184.71,743.12,182.91,741.63,181.08ZM106.13,384.71c-3.48-3.8-6.77-7.77-10.59-11.2A21.54,21.54,0,0,0,106.13,384.71Zm-4.26-75c-.79,3.48-1.33,6.9,0,10.38.31.82-.31,2.07,1.29,1.86,1.07-.15,1-1.1,1-1.9C104.22,316.44,102.14,313.28,101.87,309.67ZM777.25,176.56c-4.66-.42-8.09-4.52-13.51-4.33C767.71,176.78,772.16,177.8,777.25,176.56Zm-32,204.65c5.05-1.53,7.12-5.73,9.45-9.7C750,373.36,748.76,378.28,745.27,381.21ZM148.91,60.34c3.67,2.94,6.33,4.6,9.33,5.67a2.43,2.43,0,0,0,1.86-.24c.74-.49.25-1.37-.22-1.61A27.25,27.25,0,0,0,148.91,60.34ZM724,206.22c2.9-3.58,4.89-7.5,4.89-12.65C725.81,197.59,724.71,201.83,724,206.22ZM487.8,604.48c4.52-1.43,7.86-2.46,11.18-3.55a1,1,0,0,0,.7-1.54A1.12,1.12,0,0,0,498,599C495.11,600.65,491.19,600.09,487.8,604.48ZM127,206.12c-.66-1.84-1.6-3.72-3.82-4-1.45-.19-1.27,1.35-1.14,2.2.31,1.93,1.3,3.76,3.14,4.37C126.08,209,127.13,207.62,127,206.12Zm434,84.15c1.28,4,4.92,6,6.94,9.38A14.64,14.64,0,0,0,561,290.27ZM358.27,682.15a14,14,0,0,0-10.95.11C351,683,354.61,683.38,358.27,682.15Zm165.37-349c2.87-1.28,5.37-2.33,8.33-2.25-.42-2-1.32-3.37-3-2.89C526.7,328.68,524.32,329.66,523.64,333.17Zm.2-122.84c-2.75,1.76-2.18,4-1.58,7.44,2.13-6.24,2.42-1.59,3.39-.51A8.41,8.41,0,0,0,523.84,210.33ZM290.32,292.26c-3.35,1.29-6.38,2.91-7.52,6.7C286.14,297.73,288.14,294.84,290.32,292.26ZM315,635.17c3.85,3.12,7.55,1,11.3,0Zm386.23-580-11.32,5.9.63,1.21C694.43,60.45,698.37,58.7,701.22,55.17Zm60.63,238.06c1.25,2.43,3.87,1.64,5.72,2.62a1.17,1.17,0,0,0,1.79-1c0-1-.69-1.38-1.6-1.45C765.86,293.26,763.92,293.68,761.85,293.23ZM325.15,332.1c-.5-2-2.07-2.48-4-2.44-1.35,0-2.39.51-2.26,1.92.29,2.93,3.13,1.11,4.56,2.18C324.3,334.42,325.19,333.53,325.15,332.1ZM744.88,180c0,3,2.62,3.39,3.77,4.84.78,1,1.75,2,2.71.59.77-1.12-.21-2.25-1.24-2.84C748.59,181.7,746.94,181,744.88,180ZM154.08,58c2.3.84,3.71,2.7,5.57,3.89a2.58,2.58,0,0,0,2.27-.15c.63-.4.19-1.39-.33-1.63C159.22,59,157.35,56.27,154.08,58Z" transform="translate(-5.67 -1)"/><path d="M589.31,869.71c-14.42-1.52-28.9-.82-43.36-1.16-1.61,0-3.54.28-4-2a4,4,0,0,1,1.73-4.39c2.56-1.75,4.89-3.6,8.49-3.49a10.63,10.63,0,0,0,11-9.51c.86-9.49,1.49-19,1.83-28.54.15-4.07-3.34-6.8-5.43-9.88q-14.94-22-30.45-43.69c-3.47-4.85-7.27-9.64-14.29-9.48-1.48,0-3.05-.63-3.23-2.5a4.25,4.25,0,0,1,1.89-4.25c4.26-3.14,9.09-2,13.5-1.57,11.48,1,23,.39,34.43.82,2.22.08,5.6-1.46,6.29,2.12.62,3.23-2.76,4.13-4.77,5.7-1.14.89-2.54.73-3.85.69-2.91-.1-6-.12-7.58,2.68s.92,5,2.33,7.15c7.61,11.44,15.36,22.78,23,34.2,1.35,2,2.48,3.29,4.35.58,7.55-10.91,15.2-21.74,22.65-32.72,4.47-6.59,3-9.3-4.8-10.53-2.37-.37-6.64.48-6-4,.49-3.53,3.65-5,7.05-4.94,9,.23,17.92.76,26.88,1,3.95.12,7.91-.13,11.87-.12,1.51,0,3.16.29,3.82,1.82.73,1.7-1.19,2.1-2,3a8.78,8.78,0,0,1-6.3,3.43c-7.45.63-12.09,5.72-16.15,11.32-10.32,14.23-20.48,28.57-30.85,42.76-1.82,2.49-2.21,5.28-2.36,8-.55,9.58-.83,19.18-.94,28.78-.07,5.62,2.09,7.56,7.81,8.06,3,.25,5.93.59,8.9.91,1.39.15,2.69.64,3.12,2.07a4,4,0,0,1-1.12,4.07C599,870.55,594.1,869.82,589.31,869.71Z" transform="translate(-5.67 -1)"/><path d="M114.2,849.07c-10.14.88-21,1.66-31.84,3.55-1.71.31-3.37.85-4.38-1-.91-1.71,0-3.28,1-4.62,1.55-2.11,3.89-2.94,6.26-3.86,5.21-2,6.46-4.69,4.13-9.71-2.79-6-6-11.83-9.13-17.71-1.27-2.42-3.49-3-6-2.65-10.67,1.35-21.32,2.77-32,4.11-1.42.17-2.72.33-3.08,1.94-1.57,7.11-4.9,13.83-4.77,21.3.1,5.74,1.75,7.33,7.49,7.47.66,0,1.33,0,2,0,2.3,0,5.45-.45,5.5,2.69A6.22,6.22,0,0,1,44,856.86c-11.51,1.34-23.07,2.3-34.61,3.32-1.21.11-2.87.57-3.52-1-.57-1.41.42-2.53,1.25-3.58a12.73,12.73,0,0,1,5.23-3.73c5.81-2.38,8.24-7.43,9.63-12.93,2.11-8.33,4.07-16.82,6.64-24.89,4.21-13.24,8.23-26.56,12.59-39.77,2.59-7.86,4.65-15.89,7-23.84a20.29,20.29,0,0,1,1.29-3.78c1.73-3.31,4.07-6.58,7.79-7.11,4-.57,4.67,3.52,6.09,6.23q20.41,38.78,40.81,77.53c1.7,3.23,3.67,6.33,5.27,9.61,2.32,4.79,6.17,6.7,11.28,6.59,2.54-.06,6-.16,5.93,2.9A6.76,6.76,0,0,1,121,849,47.56,47.56,0,0,1,114.2,849.07ZM53.7,763.59c-3.41,13.81-7.4,25.92-10,38.42-1,4.64-.47,5.6,4,4.73,6.72-1.29,13.51-1.54,20.28-2.08,4.48-.36,5.3-1.66,3.39-5.65-3.37-7-6.73-14-10.19-21C59.05,773.57,56.67,769.25,53.7,763.59Z" transform="translate(-5.67 -1)"/><path d="M770.13,865.5c2-1,4.62-1.42,4-4.84-2.75,1.1-5.47,1.81-8.07,3.29-13,7.41-30.21,1.42-35.59-12.57-1.92-5-1.61-10.63-.31-15.66,2.47-9.59,5.87-18.93,8.9-28.38.35-1.09.87-2.13,1.15-3.23,2.21-8.45,2.14-8.55-5.89-12.24-1.47-.67-3.39-1.09-3.35-3.21s1.91-2.77,3.57-3.62c2.38-1.22,4.86-1.07,7.33-1q8.7.36,17.38,1c3.29.24,4.32,2,3.07,5.14-3.68,9.19-6.52,18.72-9.57,28.09-2.88,8.82-7,17.92-4,28.05,2.29,7.82,13,10.79,19.9,7.37,10.66-5.3,13.85-15.21,17.1-25.31,1.32-4.1,2.65-8.21,4.32-12.17,1.84-4.36.93-7.27-3.48-9.22-2.46-1.09-6.64-1.85-5.7-5.11.86-3,4.65-4.3,8.17-4.27a115.85,115.85,0,0,1,20.27,1.92c2.5.46,2.92,1.56,2.08,3.83-1.89,5.11-3.55,10.3-5.38,15.42-4.62,12.9-7.68,26.33-13.42,38.86-1.79,3.91-.13,7,4.43,9.31,2,1,6,.3,4.89,4a7.37,7.37,0,0,1-7.33,5c-5.51-.43-10.94-1.82-16.41-2.81C773.84,872.4,773,868.08,770.13,865.5Z" transform="translate(-5.67 -1)"/><path d="M629.49,831.24c-1.55-23.69,21.06-41.33,43.18-41.82,23.85-.52,42.64,15.25,42.42,41.36-.2,23.92-18.77,42.42-45.74,42.07C646,872.55,629.09,856,629.49,831.24Zm66.43-.55c1.23-9-1.19-16.53-6.35-23.62-8.48-11.65-27.78-11.44-35.72,2.66a42.29,42.29,0,0,0-.74,41.5c7.68,14.84,26.31,16.12,36.53,3A30.76,30.76,0,0,0,695.92,830.69Z" transform="translate(-5.67 -1)"/><path d="M323.66,820.82c-8.33,0-16.67.13-25-.06-3.42-.08-4.58,1.31-4.13,4.45,1.49,10.3,4.24,20.18,14.45,25.17,12.17,6,24.2,4.25,35.58-2.71,2.26-1.38,4.31-3.12,6.44-4.72a3.35,3.35,0,0,1,4.15-.11c1.57,1,1.67,2.32,1.5,3.89-.46,4.39-2.39,8.1-6.1,10.39-15,9.29-31,13-48,6.57-20.2-7.68-27.5-24.13-25.26-44a39.77,39.77,0,0,1,11.66-24.24c5.87-5.81,13.13-9,21.33-10.92,9.71-2.31,18.74-1,27.85,1.93s18.12,14.82,18.65,24.4c.39,7.09-2.45,10.06-9.61,10.06H323.66Zm-6.08-9.65c6.91,0,11.89,0,16.88,0,3.74,0,5.07-1.6,3.61-5.37-3.51-9.08-11.16-13.94-22-13.71a21.33,21.33,0,0,0-19.89,14.54c-1.37,4.28-.35,5.93,3.93,5.1C306.6,810.47,313.06,811.5,317.58,811.17Z" transform="translate(-5.67 -1)"/><path d="M175.05,819.54c.75,7-1.12,15.75-.13,24.48.81,7.18,3,8.77,10.24,9.36a35,35,0,0,1,4.91.56c1.38.31,3.15.39,3.38,2.38.21,1.73-1,2.53-2.19,3.55-4,3.34-8.66,2.42-12.93,1.89-10.63-1.31-21.24-.75-31.84-.36-1.92.07-3.3,0-4.23-1.52-1.19-1.92.42-3.07,1.6-4.19,1.95-1.84,4-3.71,6.85-3.73,5.73,0,6.77-3.87,6.94-8.32.26-7.28.4-14.57.49-21.86.07-7-.24-14,.1-21,.21-4.33-1.43-5.67-5.46-5.19-1.8.22-3.66,0-5.49,0a3.31,3.31,0,0,1-3.55-2.16c-.61-1.57.46-2.55,1.47-3.39,2.55-2.15,5.11-4.35,8.84-3.87,3.34.44,4.16-1.17,4.18-4.33,0-7.53.54-15,4.33-21.87,6-11,13.73-19.63,27.22-20.42,5.46-.32,10.83,1,16.13,2.25,2.85.68,3.42,2.8,1.82,4.93a35.12,35.12,0,0,1-8.48,8.37,3.68,3.68,0,0,1-3.77.43,51.58,51.58,0,0,0-5-2.11c-8.65-2.82-14.41-2.76-14.77,8.71-.19,6.09-1,12.19-.68,18.33.24,4.51,1.47,7.16,6.77,6.66,4.63-.44,9.32-.07,14-.09,1.79,0,3.48.29,4,2.24.44,1.76-1.13,2.57-2.2,3.6-4,3.82-9,2.82-13.72,2.81-8.77,0-8.77-.05-8.75,8.49C175.06,808.71,175.05,813.21,175.05,819.54Z" transform="translate(-5.67 -1)"/><path d="M401.44,799.61c4.49-3.24,6.95-8.17,11.41-11.14,7.83-5.21,19.33-4.33,25.73,2.42A4.41,4.41,0,0,1,440,794c0,4.86-10.62,11.45-14.87,9.14-9.93-5.42-16.18-1.92-20.56,7.82a33.23,33.23,0,0,0-2.83,14.58,222.45,222.45,0,0,1-.78,22.35c-.49,6.38,1.43,7.82,7.7,9.41,2.48.63,6.71-.9,7.05,3.74.15,2-6.09,6.35-8.65,5.75-4.31-1-8.72,0-12.88-.83-7.69-1.6-15.25.25-22.87,0-2.15,0-4.64.4-5.44-2.29s1.73-3.72,3.29-5c2.08-1.76,4.8-2.26,7.38-2.88,3.63-.88,5.29-3.3,5.53-6.78.36-5.47,1.35-10.91.92-16.43-.65-8.5,1-16.91.91-25.39-.1-6.52-1.08-7.74-7.44-9.11A3.86,3.86,0,0,1,376,798c-2.48-.87-6.67.12-6.86-3.37s3.79-4.66,6.69-5.63c7.09-2.35,14.55-3,21.89-4.16,2.81-.43,4.65.57,4.28,4.27C401.62,792.46,399.76,795.77,401.44,799.61Z" transform="translate(-5.67 -1)"/><path d="M243.89,822.5c0,6.66,0,13.32,0,20,0,8.38,2,10.39,10.21,10.43,3.17,0,6.34-.12,9.49,0,3.6.18,4.74,2.2,2.47,4.7-3.87,4.26-7.82,8.67-14.62,7.62-4.43-.67-9-.68-13.35-1.62-8-1.72-12.38-7.82-12-18.15.51-14.46.57-28.91.58-43.36,0-5.87-.88-6.57-6.69-6-2.86.29-7,1-7.66-2.18-.81-4,3.51-5.78,6.64-6.66,8.64-2.45,8.71-2.21,8.7-11.23,0-8.46,5.8-17.13,13.54-19.89,3.38-1.19,3.56,1.41,3.59,3.64.07,7.49.3,15-.06,22.48-.2,4.15,1.34,5,5.09,4.94,5.13-.06,10.26.57,15.4.81,3.09.15,3.48,1.8,2,3.9-2.22,3.07-5.21,5.12-9.24,5.1-3.16,0-6.34.13-9.49-.1-3.43-.25-4.72,1-4.61,4.53C244.06,808.5,243.89,815.5,243.89,822.5Z" transform="translate(-5.67 -1)"/><path d="M753.62,454.67c-1.67,2.36-3.28,4.78-5,7.08-2.14,2.83-1.56,5.13,1.81,6.32a25.25,25.25,0,0,0,3.88.83c1.13.2,2.26.34,3.45.51,0,2.3-1.53,2.83-3.2,3.18a5.71,5.71,0,0,1-1.49.06c-3.5-.23-7.2.52-8.66,3.58-1.32,2.76,3.21,3.58,4.22,6.35-3.08,1.48-5.14-1.36-7.65-1.78-7.71-1.29-13.44-6.2-17.15-12.72-1.89-3.34-1.73-7.87-2.39-11.88-.18-1.09-.25-2.5,1.3-2.81a2.46,2.46,0,0,1,2.79,1.66c.77,2.29,2.28,2.51,4.26,2.12,2.34-.46,2.76-2.13,2.57-4.12a3.52,3.52,0,0,1,2.28-3.53c1.78-.81,1.46,1.35,1.93,2.13,4.16,6.91,4.75,7.09,12.8,3.43a33.37,33.37,0,0,1,3.58-1.19Z" transform="translate(-5.67 -1)"/><path d="M78.92,459.41c3.36-.69,5.06,1.31,7,2.15,6.66,2.8,7.86,2.34,9.72-4.46.26-.92.58-1.82.92-2.89,2.41,1.22,2.31,3.59,3.1,5.45,1.49,3.52,3.38,4.5,6.57,1.54,1.11-1,1.94-2.83,4.14-2.76,2.26,4-1.22,7.41-1.24,11.23,0,5.59-8.73,14-14.18,15.54-3.55,1-6.79,3.09-10.4,4.81-.72-2.67,1.4-3.27,2.46-4.5,2.48-2.86,1.74-5.75-1.93-6.64s-6.92-2.64-10.87-2.21v-1.36c2.66-.95,5.26-2.25,8-2.78,4.89-.94,4.16-3.29,2-6.23C82.62,464.12,80.92,462,78.92,459.41Z" transform="translate(-5.67 -1)"/><path d="M131.14,492.81a6.26,6.26,0,0,1-.1,1c-.64,2.39-12.17,6.63-14.1,5.06-2.56-2.08-5-4.36-7.39-6.62-2.23-2.1-1.39-3.49,1.21-4.12a13.29,13.29,0,0,0,3.67-1.25c5.46-3.05,11.74-1.67,15.79,3.19A3.74,3.74,0,0,1,131.14,492.81Z" transform="translate(-5.67 -1)"/><path d="M700.69,487.72a45.51,45.51,0,0,1,4.49-4.51c2-1.54,2.85-4.81,6.13-4.46,4.73.51,8.62,3.11,12.61,5.39a1.24,1.24,0,0,1,.38,2.08c-2.23,2.2-4.3,4.72-6.91,6.36-2.9,1.82-5.72.81-8.34-1.59C706.8,488.93,702.54,491.28,700.69,487.72Z" transform="translate(-5.67 -1)"/><path d="M709.93,497.36a2.63,2.63,0,0,1-.4,1.12,25.86,25.86,0,0,1-9.54,5.83c-1.2.47-8.35-6.92-8.62-8.49-.4-2.44,3.66-5.92,6.11-4.77,3.53,1.64,7.28,2.51,10.89,3.83A2.13,2.13,0,0,1,709.93,497.36Z" transform="translate(-5.67 -1)"/><path d="M131.76,510.59c-2.58-2.35-5.49-4.55-7.79-7.27-1.17-1.36.48-3,1.93-3.29,3-.59,5.49-2.1,8.15-3.4s5-.17,6.58,2c1.7,2.34-.16,3.8-1.9,5.31s-3.65,2.84-4.41,5.22C134,510.14,133,510.52,131.76,510.59Z" transform="translate(-5.67 -1)"/><path d="M108.43,485c-1.15,0-3-.08-2.18-1.57,1.36-2.63,2.49-6.09,5.65-6.76,2.35-.5,4.08,1.9,4.9,4.07C117.4,482.31,112.52,484.74,108.43,485Z" transform="translate(-5.67 -1)"/><path d="M728,480.48l-12.57-4.21C720.17,469,721,469.25,728,480.48Z" transform="translate(-5.67 -1)"/><path d="M195.23,130.35a25,25,0,0,0-2-3c-.76-.81-1.67-2.26-2.83-1.34-1.31,1-.28,2.3.6,3.27,1,1.14,1.53,2-.26,3.09-6.05,3.76-12.49,4.59-19.46,3.6-2.65-.38-2.48-2.93-4.41-4-2.69-1.57-4.06-5.11-7.11-7.09-2.8-1.81-1.62-4.08,2-5.46,5.12-1.94,10.39-1.54,15.65-1.58,2.31,0,4.62,0,7.94,0-3.19-2.11-5.51-3.77-8-5.22-1-.6-1.55-1.2-1.21-2.33s1.27-1.1,2-.92c5.9,1.36,11.78,2.85,16.26,7.34,1,1,2.53,2.23-.22,3.21-2.14.76-.46,1.65,0,2.53A8.3,8.3,0,0,1,195.23,130.35Zm-15.37,1.21V132c2.15,0,4.3,0,6.45,0,1.34,0,2.35-.4,2.05-2a1.9,1.9,0,0,0-2.62-1.56,19.12,19.12,0,0,0-3.5,1.76c-2.76,1.52-5.5,2.24-8-.36-.73-.75-1.35-1.51-2.47-.83a.87.87,0,0,0-.28.81c.38.93.94,2,2,2C175.57,131.91,177.72,131.67,179.86,131.56Z" transform="translate(-5.67 -1)"/><path d="M196.63,178.84c1.94.49,3.93-.73,4.62,2.22.51,2.23,2.19.33,3-.23,4.68-3.37,9.67-1.13,14.44-.67,2.37.22,2.31,3.58.71,4.08-4.07,1.27-4,4.91-5.52,7.65-3.44,6.4-12.25,9.35-17.73,5.35-4.33-3.15-8.19-7-12.23-10.5-.35-.3-.37-1.05-.73-1.26-1.83-1-4.85-1.91-4.17-4.18.84-2.8,4.07-1.2,6.19-1.24A48.37,48.37,0,0,0,196.63,178.84Zm6.45,15.87c1.86-.63,4.33-1.3,6-3.07,1.25-1.31,2-4-.82-4a141.62,141.62,0,0,1-18.52-1.68,2,2,0,0,0-1.7.6c-.52.85.19,1.69.85,2.06C193.26,191,197.44,193.87,203.08,194.71Z" transform="translate(-5.67 -1)"/><path d="M215.11,163.47c-2.68,7.27-8.41,9.46-14.2,5.66-1.37-.89-2.43-2.13-4.3-2.08-.93,0-2.73.63-2.43-1.3.17-1.13,1.44-1.75,2.72-1.72,1.46,0,3.07-.31,4.16,1,4.09,5,7.78,3.11,11.41-.59a4.46,4.46,0,0,1,1.22-.83A5.48,5.48,0,0,1,215.11,163.47Z" transform="translate(-5.67 -1)"/><path d="M659.36,124.32c-2.73.29-3.7,2.43-5.71,2.33-1.74-6.59,5.11-7.25,7.83-10.79-.58-.37-.89-.71-1.08-.66-1.91.61-4.34,3.17-5.64,1s2.3-3,3.67-4.39c3.37-3.44,8.43-3.46,12.57-5.42,1.33-.63,2.39.77,3.69,2-2.89,1.25-4.45,4.13-7.68,5.21,4.21-.08,8.28.93,12.32.66,4.48-.3,7.88,1.85,11.56,3.62,1.51.72,2.56,2.15.94,2.78-5.06,2-6.24,7.56-10.57,10.26-5.22,3.27-10.46,1.82-15.75,1.24C664.77,132,664,131,662.9,131,658.28,130.94,656.35,129.2,659.36,124.32Z" transform="translate(-5.67 -1)"/><path d="M603.26,115.35c.93-3.38,3.25-4.33,6.61-4.49,6.38-.3,12.49.48,18.15,3.5,1.78,1,4.49,1.75,2.25,4.88a2.09,2.09,0,0,0,.83,3c3.7,1.89.73,5,1.46,7.45.07.25-.14.59-.21.88-4.54-1.41-5.33,3.91-8.72,4.83-3.65,1-7.27.72-10.82.45-4.11-.31-9.62-9.4-8.68-13.34a3.71,3.71,0,0,1,2.66-2.69c4.53-1.34,9-3.35,14-2.25-3.72-5.77-9.75-6.58-17.62-2.4Zm11.38,11.29c-.62,6.3,3,7.42,11.44,4.85C622,130.33,617.42,132.56,614.64,126.64Z" transform="translate(-5.67 -1)"/><path d="M639.3,176.28c10.09-1,20.05.11,30,1.11,1,.1,2.16-.13,2.53,1.07s-.47,2.15-1.57,2.75c-5.73,3.11-10.24,7.68-14.91,12.11-4.5,4.26-12.45,2.51-16.67-1.9-3.29-3.44-3.84-8.74-8.46-11.07a1.29,1.29,0,0,1,.48-2.49C633.77,177.77,636.39,176.17,639.3,176.28Zm21.15,7.55L641.54,185a1.27,1.27,0,0,0-1.38,1.1c-.19,1.12.5,1.55,1.29,2.28C646.37,192.92,656.55,190.05,660.45,183.83Z" transform="translate(-5.67 -1)"/><path d="M644.08,169.12c-2.69-.68-5.05-1.16-6.7-2.83-1.42-1.45-3.52-3.79-2.14-5.35,1.58-1.79,2.57,1.48,4,2.09,3.05,1.27,6.15,5.52,9.21-.3,1-1.93,3.59-1.23,5.54-1.21,1.38,0,2.91.4,2.75,2.09s-1.75,1.3-2.82,1.17c-2.11-.25-3.27,1.29-4.82,2.14C647.43,167.85,645.57,168.48,644.08,169.12Z" transform="translate(-5.67 -1)"/><path d="M424,567.15c-.31-9.6,3.51-18.58,4.17-28a1.52,1.52,0,0,1,1.57-1.56c1.16,0,1.95.49,2,1.69.05,1.82.44,3.81-.14,5.44-3.05,8.58-3.23,17.56-4.07,26.46-.16,1.7.52,4.34-2.15,4.13-2.28-.17-1.12-2.67-1.33-4.15A29.35,29.35,0,0,1,424,567.15Z" transform="translate(-5.67 -1)"/><path d="M390.89,576.37c0,2.25-1.06,3.73-2.62,2.91-1.92-1-5.38,0-5.65-1.94-.48-3.46-3.92-5.63-3.59-8.94s3.76-3.88,6.12-4.74c2.51-.91,2.17,1.7,2.78,3.38C389.1,570.25,389.08,573.8,390.89,576.37Z" transform="translate(-5.67 -1)"/><path d="M402.6,662.1c-1.59-.75-4.23,1-4.39-2s2.21-2.74,4.2-2.74,4.56-.06,4.62,2.43C407.09,662.84,404.11,661.44,402.6,662.1Z" transform="translate(-5.67 -1)"/><path d="M393.22,654.93c-.76-.2-2.77.64-2.59-1.48.2-2.41,2.72-2.71,4.42-3.22,1.06-.32,2.94,1.11,2.77,2.29C397.53,654.58,395.66,655.24,393.22,654.93Z" transform="translate(-5.67 -1)"/><path d="M388.61,659.67c-1,2.2-2.61,2.29-4.33,2.2-1.39-.08-2.27-.65-2.08-2.11a2.53,2.53,0,0,1,3.12-2.38C386.93,657.56,387.65,658.83,388.61,659.67Z" transform="translate(-5.67 -1)"/><path d="M440.41,662c-1.58-.15-3.56.45-3.56-2.21,0-2.31,1.68-2,3.13-2.09,1.76,0,3.61.29,3.71,2.36S441.77,661.76,440.41,662Z" transform="translate(-5.67 -1)"/><path d="M448.48,653.32c-2.3.12-4.13-.12-4.24-2.57-.08-1.64,1.36-1.57,2.48-1.59,2,0,3.71.73,3.95,2.82C450.88,653.78,449,653,448.48,653.32Z" transform="translate(-5.67 -1)"/><path d="M379.94,649.7c1.74.28,3.34,1.24,3.77,2.69.3,1-1.09,2.45-2.5,2.42a3.59,3.59,0,0,1-3.64-3.26C377.39,650.15,378.79,649.88,379.94,649.7Z" transform="translate(-5.67 -1)"/></g></g></svg>