<svg xmlns="http://www.w3.org/2000/svg" viewBox="0 0 864.01 873.47"><title>air</title><g id="Layer_2" data-name="Layer 2"><g id="Layer_1-2" data-name="Layer 1"><path d="M138.84,76.92c3.41,1.23,8.73.52,7,7a1.51,1.51,0,0,0,.58,1.25c6.94,4.56.11,4.84-2,5.81-4.4,2-9.11,3.34-12.17,7.46a12.84,12.84,0,0,0-2.56,5.9c-.16,1.22.24,3.14-1.47,3.26-2,.15-2.08-1.71-2.16-3.25,0-.8.09-1.68-1.1-2.34-2.36,3.19-1.6,6.24.68,8.88,17,19.63,34.13,39.15,51.11,58.81,3,3.48,4.29.48,5.73-1.18,12.38-14.17,24.66-28.42,37-42.64,3.82-4.4,7.63-8.82,11.54-13.14a19.74,19.74,0,0,0,3.76-6.4c.5-1.33.31-3-1.17-3.39-1.92-.55-1.23,1.43-1.65,2.31s-.45,2.33-2.3,2.76a55.37,55.37,0,0,0-2.38-7.25c-2.86-5.94-8.61-7.9-14.26-10.07-2.41-.92-8-1.76-1.49-5.46a1.42,1.42,0,0,0,.61-1.73c-.34-1.27-2.76-2.58-.75-3.73s4.41-1.18,6.67-1.62a1.32,1.32,0,0,1,1,.74c2.38,8.25,10.41,11.45,15.46,17.3,1,1.18,2.61,1.38,4.52.43-3.9-3.68-7.79-7.13-11.43-10.83-2.36-2.41-5-4.77-5.46-8.45,4-.09,4.3,3.93,6.19,6,8.85,9.63,19.19,15.68,32.56,16,4.48.12,8.93.93,13.41,1.35,1.11.1,2.65.33,2.95-1.13.36-1.8-1.35-1.55-2.38-1.69-6.26-.81-12.55-1.49-18.81-2.34-2.34-.32-4.42.55-6.95.95,2.18-3.2,4.15-6.57,6.65-9.11a84.77,84.77,0,0,1,6-5.95c4.95-4,8.77-9.1,13.31-13.39A131.08,131.08,0,0,0,287.78,54.2c2.85-3.58,6.3-1.54,10-1.12-1.45-1.85-4.66-1-4.47-3.56.14-1.93,1.83-3,3.72-3.6.58-.17,1.51-.64,1.52-1,.25-5.24,4.08-4.22,7.37-4.08.1-1.86-3.3-2.4-1.43-4.69,1.61-2,3.44-2.31,5.78-1.56a33,33,0,0,0,8.6,1.73c-2.07-1-4.09-2-6.2-2.83-3.65-1.43-3.75-3.52-1-5.86,3.21-2.74,4.81-5.33,1.09-9a4.09,4.09,0,0,1-.37-5.9c1.7-2,3.77-2.84,6.09-1,1.33,1,2.31,1.11,3.3-.35C323.62,8.62,326,7.75,329,9.59c1.53.95,2.81.08,4.24-.38A8.83,8.83,0,0,1,345,19.4c-.38,2,.1,3.62.49,5.54,1,5-1.34,10-1,15.25.18,2.49-4,3.23-6.51,1.19-3.58-3-5.55-.83-8.35,1.42-3.35,2.7-4,8.39-9.51,8.57.37,3.48-3.12,4.32-4.33,6.33-5.64,9.34-14.07,16.43-19.84,25.45C291.87,89.52,286,94.3,282.4,101c-1.1,2-3.11,4.09-5.68,3.17-4.07-1.45-7.31,1.13-11,1.56-.55.07-1.39.55-1.48,1a1.29,1.29,0,0,0,1.44,1.58c2.09-.52,5.25,3,6.36-1.84.33-1.48,2.63-1.43,3.93-.58,1.6,1,.33,2.24-.2,3.43-1.67,3.74-5.28,2.42-9.56,3.16,3.61,1.36,5.68,2.59,4,5.68-.22.41.53,1.51,1,2.13,5.2,6.54,10.73,12.69,18.06,17,1.72,1,4.76,1.52,4.48,4a59,59,0,0,1-2.9,11c-.31.95-1.34.49-2.07-.08-2-1.53-3.15-1.17-4,1.34s-2.41,2-3.49.17c-1.53-2.57-2.69-5.37-4.21-7.94-2.85-4.83-6.9-8-12.66-8.7-1.07-.12-2.64.72-3.09-.66-.52-1.62,1.11-2.19,2.28-2.76a28.92,28.92,0,0,1,3.2-1c-4.2-2.49-6.54-.27-8.53,1.94-5.8,6.41-11.41,13-17.12,19.51-12,13.64-23.85,27.36-36,40.81-2.91,3.22-2.75,5.32-.09,8.42,24.8,29,49.07,58.39,72.41,88.54,14.47,18.68,29.12,37.3,40.56,58.13a62,62,0,0,1,3.57,8.23c.44,1.16,1,2.68-.28,3.72s-2.65.56-3.8,0a40.64,40.64,0,0,1-6-3.57c-18.52-13.5-34.48-29.83-50.54-46-27-27.2-52.9-55.38-78.4-84-2.84-3.19-4.33-3.17-7.21,0-24.41,27.09-49,54.07-74.58,80-17.19,17.41-34.21,35.05-54,49.65a42.86,42.86,0,0,1-5.51,3.42c-1.45.76-3.23,1.65-4.66.32s-.61-3.18-.06-4.7c2.81-7.74,7.26-14.61,11.83-21.37,18.19-26.92,38.25-52.43,58.83-77.53q23-28,46.3-55.68c2.18-2.6,2.1-4.23-.12-6.74q-26.64-30.12-53.07-60.42c-2.19-2.5-4.53-4.78-8.36-3.29,0,1.54,1.08,1.23,1.75,1.41,1.36.36,2.88.91,2.8,2.39-.12,2.07-2,1.09-3.18,1.2-5.85.6-9.68,4.09-12.58,8.81-1.31,2.13-2.3,4.44-3.47,6.64-1.4,2.62-2.79,4.79-4.59.21-1-2.44-2.28-1.63-3.79-.32-2.38,2.07-3.86,1.2-4.56-1.68-.57-2.39-1.22-4.77-1.83-7.14a3.63,3.63,0,0,0,4.93,1.11c7.58-4.47,14.5-9.77,19.52-17.16a11.84,11.84,0,0,0,1-3.16c-7.28,8.31-16.21,14-25.42,19.32-1.55-1.66-1.35-2.76.86-3.69,9-3.79,15.76-10.4,21.86-17.76,1.32-1.59,3.72-3.07,1.24-5.85-1.13-1.27,0-2.43,1.72-2.61,1-.11,2.44.57,2.76-1.56-2-1-4.13.3-6.13-.12a5.37,5.37,0,0,1-4.39-4.83c-.27-2.26,2.12-1.44,3.4-1.79.42-.12,1.31.05,1.35.24,1.7,7.26,5.67.62,8.4,1.52-4.1-.88-7.45-4.5-12.07-3.26-2.31.62-4.6.24-5.78-1.82-3.81-6.69-9.64-11.76-14.12-17.94A167.58,167.58,0,0,0,49.33,68.2c-2.72-2.93-6.64-5.45-7.54-9.91-.21-1.07-1-1.07-1.7-1.52-4.26-2.9-4.21-3.62.51-6.47-7.73,3.82-9.11-3.76-12.49-7-3.19-3-5.39-5.07-9.4-1.72a3.77,3.77,0,0,1-5.43-.44c-1.48-1.55-2.4-3.63-1-5.42,1.9-2.41,1.41-4.08-.63-5.91-.44-.39-.88-1.38-.69-1.78,2.29-4.62.23-9.83,2-14.42A8.32,8.32,0,0,1,23.25,8.82c2.29.71,4.5,0,6.52.21,4.65.38,9.06,2.42,14,2.8,2.61.2,3,4.77.38,7-3,2.65-2,5.16-.19,7.38,3.95,5,4.09,4.86-1.42,8.24a10.92,10.92,0,0,0-.94.77c1.89.87,3.61-.1,4.94-.71,2.89-1.33,4.73-.56,6.29,1.89,2,3.13-2.75,2.17-2.54,4.28,2.31.77,6.39-1.71,6.81.79.72,4.3,4.53,4.25,6.43,6.59,1.39,1.7.76,2.66-1.18,3.17A17.67,17.67,0,0,0,55.85,54c2.21-.57,4.44-1,6.62-1.71,2.64-.8,5.27-.64,6.73,1.71,1.67,2.67,5,4.28,6,6.56,2,4.69,7,6.09,9.3,10.47,1.54,2.94,4.73,5.6,7.46,7.67,6.16,4.67,10.93,10.6,15.88,16.27,2.46,2.83,3.7,2.25,5.92.94,8-4.73,15-10.51,20.25-18.21,1.35-2,2.77-4.37,5-.71-3.71.32-4,4-5.86,6.09-4.47,5.21-9.7,9.61-15.64,14.32,2.46.08,3.92.13,5.2-.86,5.88-4.58,11-10,16.25-15.22C140.47,79.82,139.81,78.38,138.84,76.92Zm79,71.91.11.11c.32-1.94,1.77-3.17,2.95-4.54q8.91-10.47,17.88-20.87c4.73-5.49,4.18-10.39-2-15.4a15.67,15.67,0,0,1-2.74,5.66q-30.17,34.65-60.12,69.49C137.29,226,101,269,67.36,314.2c-8.65,11.61-17.28,23.27-24.28,36-1.28,2.33-3.27,4.56-2.86,7.61,2.19.31,3.31-1.15,4.63-2,10.12-6.85,19-15.22,27.71-23.65,37.56-36.18,72.68-74.7,107.49-113.49,26.81-29.89,53.23-60.12,79.79-90.15-6.23-4-9.68-4.3-12.84-.74-7.5,8.47-14.95,17-22.49,25.45-1.13,1.26-2,3-5.29,3.52l25.33-29.13c-5.18-4.18-7.11.52-9.72,3.3-1.71,1.83-3.07,4-4.94,5.63C225.54,140.3,223.27,146.08,217.89,148.83ZM318.8,357.72c-1.46-2.9-2.72-5.72-4.24-8.38C306,334.42,295.77,320.69,285.43,307c-26.51-35.06-54.64-68.8-83-102.4-2.26-2.68-3.54-2.67-5.71-.08a154.82,154.82,0,0,1-11.59,12.81c-3.59,3.44-3.23,5.76,0,9.36,29,32.09,58.35,63.91,89.1,94.37,12.41,12.3,24.79,24.66,39.11,34.82C314.79,356.86,316,358.56,318.8,357.72ZM153.4,173.3l-.78.69c-2.91-3.16-5.87-6.28-8.73-9.49q-16.44-18.42-32.81-36.92c-1.57-1.77-3.2-2.76-5.65-2.1s-6,.94-7,3.14,2.74,2.56,4.08,4.16c7.18,8.52,14.6,16.85,21.94,25.24,10.08,11.52,20.22,23,30.23,34.58,2.54,3,4.38,3.87,7.21.09,3.81-5.1,8.1-9.85,12.4-14.55,2.26-2.46,2.23-4.27,0-6.76q-10.8-12.12-21.25-24.53c-10.82-12.8-22.73-24.67-32.74-38.46-.67,1-1.39,2.06-2.1,3.15-2.82,4.35-3.19,7.85,1.15,12.14,6.37,6.29,11.67,13.65,17.49,20.5,4.86,5.72,9.82,11.37,14.73,17l-1.23,1.14a7.77,7.77,0,0,0-.88-1.78q-14.64-16.68-29.33-33.33c-1.79-2-1.65-1.67-3.34-1.07-4,1.41-2,2.91-.4,4.68Q134.91,152.06,153.4,173.3ZM42.19,16.25c.24-1.19,0-1.8-.73-2-1.38-.48-2.14.58-3,1.34-7,6.35-14.13,12.66-21.11,19.08-1.08,1-3.44,2.22-1.74,3.89,1.55,1.53,2.93-.69,4.07-1.69,6.87-6.06,13.67-12.2,20.46-18.34A24,24,0,0,0,42.19,16.25Zm273.93-2.16c-.47.42-.95.65-1.12,1-.54,1.16.32,1.84,1,2.5,7.35,6.7,14.68,13.41,22.07,20.05.91.82,2.19,2.26,3.39.92C343,37,341,35.91,340.07,35c-7-6.39-14-12.7-21-19A22.39,22.39,0,0,0,316.12,14.09ZM270.41,124.32c.76,2.56.37,4.16,1.58,5.33a187.73,187.73,0,0,0,17,14.49c1.25,1,2.48,1.12,2.84-.93.21-1.27,1.72-3.15-1-3.29-2.37-.11-3.94-1.57-5.75-2.67C279.77,134,276,129.11,270.41,124.32Zm56.6-112c-1.21-.24-1.78,0-2,.76a3,3,0,0,0,1.25,3.06q6.24,5.7,12.57,11.31c.93.83,2,2.34,3.35,1.06,1.53-1.48.1-2.72-1-3.72q-6-5.57-12.18-11A17.6,17.6,0,0,0,327,12.28ZM32.15,14.2c.29-1.24,0-1.8-.67-2.11-.92-.42-1.62.11-2.24.66C24.49,16.91,19.73,21.06,15,25.3c-.83.75-1.64,1.87-.48,3,.91.91,1.9.39,2.66-.27q7.11-6.27,14.15-12.62A3.88,3.88,0,0,0,32.15,14.2Zm69.57,81.17c-6.54.8-12.62,1.48-18.68,2.35-1.24.17-3.66-.5-3.31,1.78.3,1.91,2.49,1.18,3.85,1,6.91-.71,13.81-1.56,20.71-2.38.77-.09,1.85.08,1.89-1.07s-1-1.69-2-1.79A14.18,14.18,0,0,0,101.72,95.37Zm17.11,9L93.84,127A75,75,0,0,0,118.83,104.37Zm145.51,22.92c-8.85-7.51-17.1-15.67-25.87-23.25C245.9,113.12,253.93,121.55,264.34,127.29Zm-198-48.06,15.27-2.4c.83-.13,1.72-.3,1.72-1.36a1.63,1.63,0,0,0-1.91-1.76c-5,.72-10,1.48-15,2.41-.9.17-2.64.26-2.26,1.95C64.49,79.57,65.91,79.21,66.37,79.23Zm212.88-5.15a32,32,0,0,0-4.31.31c-.39.09-.74,1-.85,1.53,0,.24.55.82.92.88q8,1.32,16.09,2.5c.81.12,1.76,0,2-1,.37-1.4-.83-1.52-1.73-1.84C287.31,75,283.05,74.71,279.25,74.08ZM74.17,91.35l.21,1.72c7-.81,14-1.6,20.92-2.45a1.09,1.09,0,0,0,.94-1.44,1.36,1.36,0,0,0-1.52-1C87.78,88.76,80.85,89.39,74.17,91.35Zm208.64.78c-5.56-2.64-11.55-2.58-17.31-3.74-1.53-.31-4.38-1.23-4.48,1.24-.08,2,2.72.87,4.2,1.27a14.3,14.3,0,0,0,3.38.69C273.33,91.63,278,93.32,282.81,92.13Zm17.9-25.35c.65,0,2.07.62,2.43-1,.26-1.21-.86-1.65-1.84-1.88-4-.93-8-1.86-12-2.72a1.85,1.85,0,0,0-2.41,1.19c-.28,1.24.83,1.67,1.79,1.88C292.52,65.09,296.4,65.88,300.71,66.78ZM287.55,85c-6.73-1.87-13.53-3.48-20.62-2.66C273.71,83.9,280.4,86,287.55,85ZM90.41,83l-.31-2L69.51,83.92l.27,1.85C76.75,85.57,83.53,83.9,90.41,83ZM70.55,62.57a1.75,1.75,0,0,0-2.2-1.46C64,62,59.64,63,55.3,64c-.86.2-1.6.72-1.23,1.72.43,1.19,1.51,1.1,2.51.9q5.84-1.2,11.65-2.46A2.67,2.67,0,0,0,70.55,62.57Zm213,5.79c-.7.18-2.32-.5-2.59,1-.32,1.77,1.43,1.36,2.44,1.56q5.61,1,11.24,2c.93.16,2.21.53,2.45-.77s-1.16-1.18-2-1.55C291.52,69.08,287.61,69.36,283.57,68.36Zm-207.3,1c-.36-1.26-1.45-1.19-2.4-1-4.09.67-8.18,1.41-12.26,2.16-.79.14-1.86.26-1.74,1.33.16,1.42,1.39,1.16,2.33,1,4.09-.66,8.17-1.39,12.26-2.07C75.32,70.63,76.07,70.44,76.27,69.37ZM24.76,37.31l1.37,1.42L40.94,25.32l-1.42-1.54ZM317.7,24.08l-1.18,1.17a89.32,89.32,0,0,0,14.67,13.16l1.08-1.26Zm-8.79,35.8C304.2,56.32,294,54.45,291,56.52,296.85,58.06,302.23,59.94,308.91,59.88ZM65.73,55.72c-5.85-.7-11.28.78-16.47,3.48C55.07,59.76,60.41,57.83,65.73,55.72Zm270.11-44c-.57.28-1.8,0-1.88,1.42,0,1,5.7,6.32,6.73,6.23,1.34-.12,1.55-1.14,1.4-2.15C341.59,13.86,339.61,12,335.84,11.75ZM23,12.8c0-.4-.45-.82-1.12-1-1.95-.52-3.53.34-4.93,1.54a4.84,4.84,0,0,0-1.91,4.77,1.26,1.26,0,0,0,1.29,1.16C17.49,19.34,23.08,14.27,23,12.8ZM322.58,41.4a26.23,26.23,0,0,0-13.77-4.71C312.72,40.11,317.62,40.84,322.58,41.4Zm-288.15,0c5-.79,10.13-1.41,14.16-5.06C43.66,37.47,38.5,37.89,34.43,41.44Zm277.25,11.1c-4.12-1.72-8.17-3.51-12.7-3.23A24.51,24.51,0,0,0,311.68,52.54Zm-56.19,62-.82,1,11,9.43C263.29,120.39,259.23,117.66,255.49,114.57ZM57.78,49.25a23,23,0,0,0-12.22,3.49A28.26,28.26,0,0,0,57.78,49.25Zm258.85-2.72c-3.46-1.14-6.6-3.45-11.75-3C309.33,45.75,312.78,46.9,316.63,46.53Zm-276.2,0a19.78,19.78,0,0,0,11.34-3.2C47.12,43,43.83,45,40.43,46.53Z" transform="translate(-10.93 -8.43)"/><path d="M660,694.45c-15.57.2-28.78,1.2-41.4-1.7-8.76-2-16.87-1.74-25.58-1-16,1.39-31.7-2.52-47.55-4.17-12.49-1.3-23.4-6.37-33.78-12.69-18.63-11.34-38.19-11.12-58.25-5.57-16.2,4.48-31.83,10.72-47.76,16-11.1,3.7-22.65,5.36-34.21,6.35-11.92,1-23.94.92-35.92,1.39a14.76,14.76,0,0,1-9-2.29c-3.23-2.1-6.53-2.49-9.64.23a8.75,8.75,0,0,1-6.54,1.89c-26.91-1.18-53.88-.3-80.69-4.39-14.29-2.19-28.53-4.56-42.51-8-8.47-2.07-17-4.52-25.41-6.58-14.06-3.45-27.61-8.37-41.36-12.58-17.47-5.37-31.06-17-34.71-35.2C82.87,612,84.31,597,92.86,583.93a10.63,10.63,0,0,0,1.81-4c2-14.56,11.48-22.95,23.75-29.29A107.43,107.43,0,0,1,155,538.93c7.5-.89,13.95-4.65,21-6.47,5.37-1.37,11-1.5,15.79,2.2,2.45,1.88,4.8,2.08,7.85,1.43a130,130,0,0,0,19-5.92c14.1-5.31,28.31-10.79,43.79-5.42a4.51,4.51,0,0,0,3.88-.07c8.29-4.85,17.66-7.76,24.85-14.63,6.3-6,14.82-6.31,22.22-1.45,2.89,1.9,11.15.61,14.52-2.27,9.52-8.13,11.52-8.36,22.51-2.68,3.75,1.94,11.86-1.51,13.35-5.68a16.35,16.35,0,0,1,19.1-10.55c1.9.46,3.43.72,5.2-.23a48.15,48.15,0,0,1,16.39-5.68c3.33-.44,4.81-2.05,4.29-5.66-.81-5.65,2.58-9,7.1-11.47a9.5,9.5,0,0,1,6.32-.83c1.79.32,3.44,3.77,5.43.53,1.87-3.05,4.52-6.11,1.5-9.95a5.32,5.32,0,0,1-.5-.87c-6.38-11.72-2.16-20.22,11.15-22.4,1-.16,2.27.07,2.67-1,2.31-5.83,7.57-10.54,5.65-17.95-2.05-7.89,1.66-13.44,9.52-15.93,4.16-1.32,6.52-5.06,9.21-8,1.71-1.88-.6-4.66-1.35-6.94-2.37-7.26-4.09-14.59-.43-21.83,3.87-7.65,18.24-12.88,27.69-10.3a47.28,47.28,0,0,1,8.4,3.18c9.27,4.6,12.28,11.54,9.26,21.45-1,3.37-1.09,5.17,3.41,4.84,24.72-1.79,48.12,4.65,71.4,11.78,14.62,4.48,29.43,8.38,43.62,14.19a3,3,0,0,0,3.93-1.08c1.27-1.74,2.3-3.65,3.53-5.41,2.14-3.08,1.71-5.11-1.66-7.29-5-3.25-9.66-7-11.39-13.33s-.94-11.53,4.37-16.12,10.34-6.81,17.18-3.66c9.58,4.4,16.65,11.46,22.41,20a17.28,17.28,0,0,1,2.86,8.94c.17,3.51.49,7.18,2.5,10.07,6.52,9.41,7.94,20,7.42,31-.25,5.2,1.24,8.8,5.65,11.69a47.26,47.26,0,0,1,8.57,7.62c3.58,3.89,7.47,7.79,5.79,14-.26,1,.32,2.29.79,3.33,6.23,13.8,11,28.11,15.55,42.54,2.9,9.25,9,17,12.34,26.15,2.72,7.55,4.13,15.08,1.33,22.9a7.45,7.45,0,0,0,1.74,8.23,29.85,29.85,0,0,1,7.63,13.8c1.12,5,1.53,10.13-1.37,14.5-4.17,6.3-3.62,13.26-2.56,19.79,2.5,15.35.5,30.1-3.67,44.81-6.11,21.58-21.5,32.11-42.47,36.53C678.69,695.55,668.05,693.75,660,694.45Zm-30.1-32.16a126.22,126.22,0,0,0,24.88-2c16.43-2.88,32.24-8.1,47.61-14.48,11.9-4.93,23.23-11,30.54-22.35,1-1.52,2.66-3.22,1.79-5-2.27-4.56-.79-9.46-1.78-14.11a9.74,9.74,0,0,1-.21-4.44c.36-1.31-3.22-1.49-.71-2.76A6.36,6.36,0,0,0,735,594c4.87-9.69,3.69-19.61-3.89-27.66-3.67-3.89-4.18-7.55-2.7-12.66,2.8-9.73.84-18.83-6.3-26.37-8.23-8.7-17.38-16.55-24.81-26A479.45,479.45,0,0,0,665,464.62c-11.06-11.35-22.44-22.45-36.17-30.48A119.46,119.46,0,0,0,577.93,418c-19.47-1.63-38.86-1.89-58.21,1.39a31.72,31.72,0,0,0-20.45,11.83c-14,17.21-26.21,35.64-37.89,54.45-8.29,13.35-16.09,27-30.28,35.39-9.5,5.59-18.32,12.57-30.2,12.32-11.14-.24-22.24-.57-33.37,1.31a29.88,29.88,0,0,1-11.87-.26c-20.82-5.28-41-1.87-60.41,5.42-9.72,3.64-18.44,9.88-27.77,14.64-8.67,4.43-16.85,9.65-26.4,12.56-10.84,3.32-21.9,2.67-32.74,3-8.08.24-16.41-2.67-24.5-4.88-18-4.9-36-9.39-54-14.06a13.68,13.68,0,0,0-7.86.39,34.53,34.53,0,0,0-13.22,7.82c-13.39,12.58-16.14,23-5.38,37.94,7.89,11,16.56,21.27,25.39,31.48s19.3,16.26,33.3,14.2c3.12-.46,6.25-.9,9.36-1.43,14.54-2.51,28.74-2.57,42.36,4.5,7.37,3.82,15.12,6.93,22.77,10.22a24.75,24.75,0,0,0,21.68-.57q7.61-3.79,15.13-7.71c12-6.26,24.52-10.4,38.23-9.67,11.66.63,22.63,4.31,32.76,9.7,5,2.67,6,1.37,8.8-2.66C364.37,629,380.56,620.93,400,619.67c16.11-1,32.28-.85,48.43-1,33.41-.34,62.66,11.08,90.42,28.51,8.57,5.37,16.26,12.44,28.21,12.31C588,659.27,609,661.23,629.93,662.29ZM326.45,679.72l.32-.19c0,.83,0,1.66,0,2.48.05,7,1.89,8.83,8.93,8.85,5.67,0,11.35.15,17-.18,17.74-1,35.55-1.72,52.62-7.46,14.18-4.77,28.26-9.86,42.52-14.39,23.47-7.45,46.3-8.17,68.05,6.13,6.44,4.24,13.63,7.9,21.49,9.14,12.46,2,24.94,4.14,37.5,5.13,9.66.76,19.6,2.5,29.13-1.51,2.54-1.07,4.89.26,7.24,1,1.73.55,3.35,1.64,5.11,1.9,14.21,2.12,28.54,2,42.85,2.07,3.68,0,7.46-.56,6.47-4.11.23,2.7,2.8,4.67,8,4.28,3-.22,6-.61,9-.79,14.71-.91,27.58-6.58,37.34-17.3,12.18-13.41,13-30.88,14.32-48-3.63,3.27-6.75,6.86-10.6,9.75-10.16,7.62-21.79,12-33.56,16.25C667,661,643.47,665.59,618.73,663.49c-13.75-1.17-27.62-1.35-41.44-1.43-24.29-.16-48.61,1.1-72.77-2.74-28.76-4.56-57-1.26-85,6-15.94,4.17-31.37,4.28-46.86-2.12-11.86-4.91-23.37-10.51-34.95-16-14.94-7.06-30.44-9.27-46.6-4.45-10.95,3.27-20.71,9.05-30.87,14-5.94,2.9-11.92,4.68-18.74,3-9.31-2.33-17.63-6.91-26.18-10.9-10.94-5.1-22.07-8.4-34.27-6.77-5.44.74-10.9,1.38-16.33,2.23-14,2.19-26.07-.93-35.44-12.23-3.71-4.49-8.07-8.45-11.65-13-7.86-10.06-17-19.25-21.61-31.57-1.17-3.13-2.42-1.16-3.28.21-3,4.77-3.76,10.26-4.7,15.64-1.82,10.42-2.69,20.83,2.18,30.78a19.65,19.65,0,0,0,6.79,8.23c-.86-5.58-2-10.8-1.19-16.3,2.24,6.61,2.45,13.77,5.61,20,3.46,6.84,9.78,9.73,16.72,11.86-3.7-4.57-5-9.48-4.22-15.56,2.07,1.36,2,2.7,2.17,4,.81,7.16,4,12.42,11.31,14.76,8.23,2.64,16.37,5.56,24.55,8.35.93.32,1.89.79,3.24-.41-2.48-3.23-4.81-6.76-3.27-11.47,2.23,5.36,4,11,9.85,13.51,5.19,2.24,10.35,4.63,16.15,5.21,0-1.85-2.42-2.16-1.92-4a2.32,2.32,0,0,1,2.76.8c4.42,5,10.67,5.73,16.59,7.27,2.21.58,4,.71,3.27-2.4,3.61,5,9.72,4.76,14.65,5.92,9.48,2.24,19.32,3.09,29.06,4.06,21.9,2.18,43.88,2.59,65.87,2.78,3.84,0,7.12-.69,10.08-3.15,1-.8,1.66-2,3.66-1,3.08,1.53,5.06.4,4.49-3.49A23.89,23.89,0,0,1,326.45,679.72Zm-197.2-132c.52,1.82,1.7,1.72,2.58,1.92,6.8,1.58,13.82,2.53,20.4,4.75a329,329,0,0,0,42.86,11.19c24.12,4.67,47.31,2.22,69-11.29,11.55-7.19,22.86-15.34,36.47-18.76,10.76-2.71,21.37-6,32.72-5.77,8.79.14,17.43,1.41,26.13,2.27,10.85,1.07,21.53-2,32.36-1.15,7.33.61,14.79,1.26,21.59-2.14,14.52-7.25,28.2-15.57,37.25-29.8,10.73-16.84,21.09-33.93,32.64-50.23,9.26-13.08,19.18-25.73,31.85-35.56,9.23-7.16,19.25-13.68,31.53-14.93,2.17-.22,4.76-1,4.83-3.5.07-2.26-2.69-2-4.27-2.48-11-3.17-22.34-3.25-33.61-3.49a31.27,31.27,0,0,0-15.6,3.46c4.55,1.37,7.11,3.61,5.84,7.48-1.42,4.31-5.56,4.16-9.14,4.66a24,24,0,0,1-3.5.05c-3.33,0-6.66-.18-10-.13-6.79.08-11.08,6.15-8.81,12.35,1.09,3,2.19,5.92,3.25,8.9s1,5.9-1.39,8.36c-2.5,2.64-5.34,1.69-8.36,1s-5.41-4.93-8.16-3.11c-2.49,1.65-3.56,5.46-5.24,8.33a14,14,0,0,1-1.25,2.16c-2.13,2.45-1.77,4.87-.74,7.79,1.59,4.49,3.61,8.86,3.5,13.93-.1,4.45-1.31,8.09-5.4,9.8s-7.3-1.09-10-3.85c-4.39-4.43-4.89-4.37-7.85,1.25a9.22,9.22,0,0,0-.8,4.36c-.08,3.33.18,6.69-.13,10-.68,7.46-3.21,14-10.5,17.49-6.23,3-10.66.27-10.66-6.56a30.4,30.4,0,0,1,1.11-6.87c1.26-5.49-.56-7.28-5.88-6-2.43.57-4.83,1.25-7.21,2-11.75,3.77-13.22,5.67-14,17.86-.08,1.33-.08,2.67-.18,4-.44,6.12-2.65,8.89-7.57,9.51-4.66.6-8-1.78-10-7.19a18.23,18.23,0,0,1-.87-2.87c-.61-3.12-2.13-3.65-4.95-2.23a20.87,20.87,0,0,1-10.61,2.27c-2.16-.12-3.41.68-4.74,2.67a72.12,72.12,0,0,1-9,10.62c-3.26,3.25-10.25,3.06-13.89.1s-2.11-6.12.6-9.63c-2.75.58-4.78,1.59-6.57,1.28-5-.87-7.66,2.26-9.4,5.71-3.36,6.67-9.26,10-15.57,12.5-8.15,3.28-14,0-14.15-7.66-5.86,2.86-10.73,7.5-17.37,8.17-5.17.52-9.15,3.62-13.26,6.33a51.56,51.56,0,0,1-10,5.49c-6.2,2.34-11.6-1.54-11.29-7.62.09-1.91,2.82-2.59,1.64-4.83-3.52.58-6.62,2.16-9.8,3.51s-6.18,3.63-9.23,3.56c-5.21-.13-9.7,2.88-14.84,2.43-1.22-.11-1.25,1.23-1.6,2.17-2,5.34-6.84,8.82-11.15,8.08-2.77-.48-6.42-6.56-6.35-10.85,0-1,1.63-2.07-.26-2.8a2.89,2.89,0,0,0-3.16,1c-1.76,1.74-4,2.09-6.34,2.51C151.47,541.63,140.16,543.42,129.25,547.69ZM554.56,660.78l.24-1.67c-3.72-2.09-7.54-4-11.15-6.29-13.36-8.43-26.7-16.82-41.72-22.21-10.95-3.93-21.73-8.2-33.56-8.74-23.11-1.06-46.19-1.89-69.32,0a63.37,63.37,0,0,0-33.48,12.84,49.94,49.94,0,0,0-11.42,12.44c-1.84,2.75-2.35,5,1.93,6.85,11.33,4.8,22.59,9.63,34.67,12.27a31.34,31.34,0,0,0,11.89.24c18.47-3.08,36.46-8.74,55.28-10.09,12.8-.93,25.6-1.36,38.35-.17,14.87,1.39,29.65,3.64,44.57,4.48C545.4,661,550,660.78,554.56,660.78ZM720.81,523.41c1-1.25.6-1.85.27-2.37a82.91,82.91,0,0,1-10.61-25.64c-2.72-11.06-8.24-21-12.06-31.66a10.75,10.75,0,0,0-3.72-4.6c-6.59-5.35-13.05-10.85-19.71-16.08-12-9.38-24.4-18.1-38.57-23.75-25.21-10.05-51.29-17.48-77.51-24.41-1.3-.35-3-1-3.78.17-4.21,6.1-11.28,5.85-17.22,8.06-9.34,3.46-18,8-25.32,15a7.63,7.63,0,0,0,3.52,0c11.41-2.58,23-3.31,34.65-3.59,8.86-.21,17.64.79,26.43,1.37,21.17,1.38,40.9,7.79,58.21,20,24.29,17.17,43.47,39.63,62.1,62.52C704.7,507.32,713.2,514.86,720.81,523.41ZM519.83,387a80.83,80.83,0,0,1,21.94,1.84c22.29,4.72,44.11,11.12,65.84,18,20.55,6.49,40.55,13.84,58.18,26.69,9.7,7.07,18.79,14.84,28.13,22.33,1.07.86,2.38,2.8,3.72,1.67,1.66-1.39-.18-3-1-4.34a27,27,0,0,0-6.08-7.22c-5.15-4.21-10.22-8.52-15.44-12.64a179.27,179.27,0,0,0-43.65-25.85c-17.09-6.92-34.94-11.67-52.57-17.06-23.08-7.06-46.37-11.59-70.66-9.71-6.1.48-11.63,2.56-17.22,4.64-2,.74-2.26,2-.37,3.13s3.62,2.93,6.34,1.61C504,386.71,511.47,386.67,519.83,387ZM652.66,397.4c-.65-6.55-4.19-11.27-9.62-14.74-3.94-2.51-8-4.88-10.22-9.27a9.46,9.46,0,0,1,1.45-11.14c2.92-3.32,5.92-.78,8.53.63,6.8,3.67,12.4,8.87,17.73,14.43a15.85,15.85,0,0,1,4.78,13.1c-.4,4,.86,7.49,2.81,10.9,4.46,7.81,6.31,16.37,7,25.25a18.8,18.8,0,0,0,.55,3.91,1.68,1.68,0,0,0,1.86,1.33c1.12-.2.94-1.16.89-2-.61-11.3-.69-22.72-7.75-32.49a11.22,11.22,0,0,1-1.75-5.65c-1.65-16.69-12.16-26.4-26.44-32.78-6.15-2.74-15.91,2.75-17.57,9.22-2.19,8.59,8,24.3,16.83,24.29C646.68,392.4,649.32,394.65,652.66,397.4Zm-200.95,66c-.33-2.13-.53-4.28-1-6.37-1.79-8.19-7.45-14.72-9.85-22.67a2.26,2.26,0,0,0-1.39-1.22c-4.43-1.28-13.64,8.09-11.9,12.49,3.17,8,6.8,15.89,12.37,22.6,2,2.42,4.68,4.88,8.15,3.32C451.37,470.11,451.82,466.77,451.71,463.44Zm-24,17.14c0-1.83.07-3.66,0-5.48-.27-6.34-4-10.13-9.06-9.35s-9,6.65-7.87,11.91c1,4.89,2.11,9.8.34,14.72-1.22,3.41-1.45,6.92,1.7,9,3.36,2.2,6.33-.48,9-2.43,2.19-1.61,3.29-4.11,4.34-6.57C427.76,488.58,427.47,484.55,427.72,480.58ZM449.81,409a33.56,33.56,0,0,0,14.41,22.7c2.47,1.74,5.63,3,8.28.54,2.42-2.22,1.31-5.15.44-7.91-2.64-8.44-6.1-16.27-12.4-22.89-3.2-3.36-3.91-4.23-7.34-1.08A10.65,10.65,0,0,0,449.81,409ZM488,402.59c3.31-.27,6.63-.42,9.92-.83,1.89-.25,3.67-1.29,3.94-3.31s-1.42-3.31-3.19-3.9c-4.79-1.59-9-4.25-13.15-6.95-7.6-4.91-20.52,2.65-23.68,9.24a3.11,3.11,0,0,0,.49,3.3c1,1.27,2,.58,3-.16,2.67-2,5.47-1,8.07,0A33.38,33.38,0,0,0,488,402.59Zm-16-25c0,5.73,1.24,5.86,6.91,6.74,6.91,1.07,12.6-1.71,18.7-3.41,4.5-1.26,5.23-3.63,2.09-7.08a30.54,30.54,0,0,0-11.38-7.88C479.5,362.42,472.12,367.79,472,377.57Zm-2-6.68c1.9-.25,2.17-1.38,2.62-2.17,3.25-5.68,8.26-6.92,14.13-5.44,5.46,1.37,9.83,4.72,13.94,8.44.85.77,1.83,2.7,2.95.46,1.86-3.73-1.35-14.22-5-16.54-3.44-2.19-7.48-3.63-11.33-3.17-5.93.72-12.15.68-15.29,8.4C470.54,364.51,472.54,367.77,470,370.89Zm202.22,56.26a44.83,44.83,0,0,0-5.27-23.83c-1.47-2.78-3.58-5.48-3.17-8.76,1.1-8.75-3.07-14.95-9.19-20.35-4.6-4.07-9.12-8.24-15-10.56-2.18-.86-3.87-.62-5,1.67-.82,1.71.05,2.26,1.57,2.81,8.07,2.94,14,8.78,19.4,15.11A16.85,16.85,0,0,1,660.08,394C660.4,406.3,667.17,416.41,672.21,427.15ZM304.87,507c-6.09,0-23.37,11.46-26.26,17.29-1.11,2.25-.41,3.29,1.87,4,4.25,1.29,8,.41,12-1.36,7-3.13,10.6-9.32,14.67-15.15.8-1.16,3-1.84,2.24-3.48S306.5,507.12,304.87,507Zm74-17.79c-6-.13-9.64,3.54-12.5,7.91-2,3.07,0,12.9,2.65,15.55,1.82,1.78,3.83,3.22,6.66,2,2.63-1.17,4.23-2.81,4.4-6a102.91,102.91,0,0,1,1.58-15.81C382.33,489.68,381.67,488.93,378.86,489.22Zm283.26-67.79c.22-3.18-.85-5.06-1.79-6.94-3.27-6.56-6.84-12.94-12.22-18.06-2.14-2-4.74-2.72-7.28-1-2.25,1.54-3.4,3.56-1,6.19.42.47.17,2.14-.35,2.76-2.72,3.2-.4,4.12,2,5.31,3.28,1.6,6.49,3.36,9.66,5.18C654.67,416.89,658.11,419,662.12,421.43ZM260.6,527.06c-6.1-1.65-11.88-3.15-17.93-2.42-5.42.65-10.39,2.16-14,6.58-1.82,2.25-3.66,4.72-1.71,7.62s5.21,2.74,8.09,1.56C243.93,536.77,250.31,528.38,260.6,527.06Zm86-23.92c-4.93-1.82-9.11-1.85-12.92,1.18s-7.28,6.24-11,9.3c-2.8,2.34-2.05,4.08.7,5.73,4.41,2.64,8.56,1.56,12.59-3.17C339.52,512.08,341.77,507,346.63,503.14Zm311.73-99.75c1.86-13-8.94-29.27-21.5-32.86-.77-.21-1.62-.76-2.33-.1-1,1,0,1.82.4,2.61,2.14,3.79,5.94,5.67,9.35,8,5.91,4,10,9,10.82,16.36A8.92,8.92,0,0,0,658.36,403.39ZM443.19,433.8c.45,1.88.52,3.29,1.13,4.41.83,1.54,1.35,3.89,3.33,4s2.19-2.22,3-3.58c1.56-2.55,3-5.15,4.47-7.77,1.19-2.16-1.79-9.81-4-10.64a1.22,1.22,0,0,0-1.66.58C447.28,425.23,445.16,429.69,443.19,433.8ZM175.06,538.48c-.06,5.18,2.4,9.62,5.09,9.61,4,0,10.63-8.76,8.62-12a6.93,6.93,0,0,0-7.57-2.63C178.38,534.23,174.31,534,175.06,538.48Zm297-182.34c-9.78,3-8.41,19.4-1.23,30.11C469.33,376.21,464.59,366.08,472.09,356.14Zm31.67.74c4.76,6.87,2,14.18.89,22.57C511.63,369.42,511,361.79,503.76,356.88Zm-34.43,43.94c-1.93.36-4.05.72-3.72,2.71s1.74,4.5,4,4.41,4.89-2.07,4.88-4.11C474.45,401,471,401.83,469.33,400.82Z" transform="translate(-10.93 -8.43)"/><path d="M582.9,55c2.42-.58,4.81-1.29,7.25-1.7s4.52.71,5.11,3-2.06,2.17-3.37,2.72a84.38,84.38,0,0,1-8.13,2.49c4.24.48,7-1,9.93-1.76,3.73-.92,6.89-.24,8.17,3.56.86,2.56,3.7,2.26,4.64,4.13C610,74.39,616.7,78.35,621.59,84c2.86,3.29,5.88,6.91,9.82,9.28,3.51,2.11,5.09,6,7.48,9,2.56,3.17,4.07,1.46,5.65.57a63,63,0,0,0,19.8-17.29c.5-.66.89-1.42,1.4-2.07.71-.91,1.55-2.12,2.78-.92,1.09,1-.27,1.61-.82,2.36-4.48,6-9.31,11.7-15.44,16.16-.88.64-2.27,1.36-1.17,2.72.84,1,1.9.22,2.61-.4a192.59,192.59,0,0,0,16-15c1.08-1.18.81-2.7.83-4.83,3,2.36,8.19,1.54,6.06,7.23-.15.39.38,1.35.84,1.59,4.42,2.38,2.5,3.83-.73,5-8.1,2.82-15.66,6.07-16.88,16.18-.24,2-1.9,1.09-2.4,0a29.64,29.64,0,0,1-1.35-5.31c-3.47,4.52-1.06,7.73,1.38,10.62,6,7.13,12.23,14.07,18.35,21.11,10,11.56,20.18,23.05,30.07,34.74,2.69,3.18,4.19,3.46,7.09.07,15.58-18.22,31.43-36.21,47.16-54.3,1.63-1.87,3.34-3.69,4.19-6.14.64-1.82,1.23-3.46-.93-4.6-1.54.58-1,2-1.48,3-.37.77-.81,1.6-1.71,1.6-1.07,0-1.12-1-1.26-1.83-1.33-8.24-7.24-11.85-14.35-14.34-1.83-.65-5.4-1.34-5.07-2.33,1-3.15,3-6,2-9.55,3.87-.83,7.73-1.7,11.61-2.43.88-.16,1.31.71,1.78,1.46,4.07,6.45,9.73,11.3,16.07,15.37,6.92,4.43,7.06,4.43,11.68-2.17,3.46-4.93,8.18-8.49,12.41-12.62a61.34,61.34,0,0,0,7.61-8.24c1.38-2,2.42-4,5-4.45,1.55-.27,1.39-1.44,1.79-2.53,1.69-4.64,11-11.33,15.42-11.27-.14-1.46-3.69-1.33-1.76-3.71,1.18-1.45,2.47-3,4.56-2.4,6.84,2,13.66,4.06,20.46,6.18,1.88.58,1.76,1.7.48,2.93-8.79,8.46-15.88,18.42-23.26,28-4.43,5.76-9.82,10.89-13.33,17.42a6.33,6.33,0,0,1-6.75,3.32c-1.52-.19-3.14-.86-4.73.2,1.66,1.66,5.71-1.12,5.69,3.08,0,2.39-3.29,4-8.79,4.62,3.76,4.84,4.78,11.33,10,15.65a147,147,0,0,0,17,12.44c-6.16-.23-9.78-3-13.21-6s-6.84-6.27-10.7-9.85c-.5,3.93,1.8,5.77,3.8,7.5,4.77,4.14,9.6,8.25,14.68,12,2.23,1.65,3.06,3.38,2.39,5.85-.76,2.81-2.63,1.65-4.38,1.09-1.2-.39-1.65.48-2.1,1.51-1.74,4-3.17,2.14-4.48-.33s-2.43-4.75-3.73-7.07c-3.42-6.1-9.07-8.44-16.72-8.93,4-3.95,7.6-4.8,12.51-1.44-3.95-5.35-10.73-4.74-15.14.34-8.08,9.3-16.12,18.63-24.24,27.9-9.23,10.52-18.42,21.07-27.84,31.41-2.74,3-2.6,4.94,0,8,29.9,35.13,59.38,70.61,86.85,107.7,9.4,12.69,19,25.34,26.18,39.51a34.5,34.5,0,0,1,2.33,5.5c.5,1.63,1.9,3.68,0,5-1.63,1.12-3.54.17-5.15-.8-9.19-5.54-17.18-12.61-25-19.88-37.93-35.33-72.77-73.64-107.44-112.1-2.88-3.2-4.28-3.13-7.16.06-34.25,38-68.57,75.87-106,110.8A206.87,206.87,0,0,1,578,363.19a49,49,0,0,1-5.94,3.65c-1.15.58-2.69,1-3.83.05s-.92-2.53-.42-3.72a92.39,92.39,0,0,1,4.62-9.93c12.23-21.51,27.51-40.88,42.63-60.33,22.17-28.53,45.23-56.36,68.73-83.81,2.35-2.75,2.84-4.55.18-7.54-17.46-19.67-34.87-39.39-51.93-59.41-3.5-4.11-7.64-4-12-4.44-1.29-.12-2.82.91-3.42,3.26,4.36-2.35,8.21-2.44,12.57,2.31-12.3-.69-16.77,7.17-20.73,15.74-1.15,2.49-2.89,4.35-4.5.24-1-2.48-2.13-2.06-3.64-.64-.72.67-1.62,1.78-2.54,1.24-3.94-2.3-2.23-7.27-4.72-10.43-1.44-1.84.84-2.45,2.06-3,8.44-4,15.22-10.07,21.09-17.23,1.45-1.76,3.24-3.31,1.61-6.12-1.34-2.31.67-2.32,2.24-2.33,1,0,2.23-.11,2-1.47s-1.52-1-2.47-.94-1.63.33-2.45.46c-3.59.55-4.71-2.11-5.4-4.65-.87-3.23,2.68-1.35,4.15-3.42-10.47,2.72-11.56-7.1-16.47-11.57-5.41-4.94-9.58-11.36-13.66-17.4-3.93-5.82-10.73-9.52-12.41-16.88-10.73-5.33-.71-5.78,1.87-8C577.91,56.54,580.13,54.66,582.9,55ZM744.83,168.78l.12.11c9-10.62,17.9-21.31,27-31.8,2-2.26,3-2.91-.7-4.53-2.74-1.21-2.7.81-3.46,1.66q-16.79,18.93-33.42,38a8.43,8.43,0,0,1,2.11-4.38q16.23-19,32.51-37.87c4.49-5.21,3.77-10.54-2.28-14.75a13.13,13.13,0,0,1-2.81,5.69q-37.08,41.85-73.16,84.59c-30.88,36.45-61.46,73.14-90.16,111.36-10.19,13.59-20.31,27.22-28.14,42.38-.56,1.09-1.94,2.36-.42,3.49,1.07.8,2.25-.26,3.12-1,5.37-4.21,10.91-8.23,16-12.78,22.19-19.9,42.82-41.4,63.21-63.11,38.18-40.65,75.27-82.28,112-124.28,7.71-8.82,14.58-18.46,23.76-25.93-6-5.19-9.8-5.09-14.86.59-8.74,9.81-17.43,19.68-26.23,29.44C747.89,167,747.13,169,744.83,168.78Zm103,192.73c-1.82-3.37-3.46-6.83-5.47-10.07C829.72,331,815.08,312,800.3,293.15c-22-28.06-44.79-55.41-67.7-82.7-1.79-2.14-3.24-2.54-5.11-.15a130.79,130.79,0,0,1-13.59,15c-2.28,2.14-1.38,3.85.5,5.9,35.67,39.12,71,78.53,110,114.51,6.36,5.87,12.79,11.68,20.09,16.4C845.63,362.9,847,364.14,847.85,361.51ZM651.1,115.22c-1.73,1-1.84,3.18-2.9,4.79-2.51,3.81-1.79,6.83,1.61,10,3.75,3.5,6.89,7.66,10.22,11.6,6.16,7.27,12.27,14.58,18.4,21.88a45.47,45.47,0,0,1-8.6-8.12c-6.26-7.12-12.69-14.11-18.67-21.47-2.27-2.8-4.07-.86-5.3.09-1.87,1.44.57,2.41,1.36,3.34,3.87,4.57,7.91,9,11.82,13.54,4.28,5,8.48,10,12.72,15-10.12-9.57-19.38-19.88-28.52-30.29-4.3-4.91-9.91-4.82-14.52.67,3,1,4.85,3.33,6.81,5.59q25.29,29,50.65,57.91c1.94,2.22,3.35,2.81,5.43,0,4-5.36,8-10.75,13.06-15.26,2.46-2.2,2.2-4.41,0-6.87-8.93-10.11-17.85-20.23-26.56-30.53C669.17,136.51,659.27,126.68,651.1,115.22Zm-31.7,15.05c-7.09,7.26-13.81,13.95-22.69,17.81-1.26.54-2,1.2-1.69,2.57.46,1.77,1.73,1.18,2.78.71,8.67-3.9,15.2-10.35,20.93-17.72C619.24,133,619.11,131.84,619.4,130.27Zm-8.82-24.39c1.28,1.73,2.71,1.33,3.93,1.22q9.93-1,19.84-2.11c1-.12,2.83.12,2.62-1.48s-1.94-1.53-3.28-1.39c-5.29.55-10.6,1-15.85,1.79C615.49,104.26,612.81,103.77,610.58,105.88Zm190.12,1.24V107l4,.28c1,.06,2.22.34,2.46-.95s-1-1.51-2-1.63c-7.06-.85-14.11-1.71-21.18-2.49-1.14-.12-2.68.13-2.72,1.51,0,1.57,1.62,1.32,2.69,1.45C789.54,105.88,795.12,106.49,800.7,107.12Zm-32-3.92c-5.75-5.51-11.91-10.06-16-16.56a1.86,1.86,0,0,0-3-.27c-1.21,1.09-.63,2,.32,2.91,4.73,4.41,9.42,8.86,14.2,13.21C765.15,103.32,766.24,104.33,768.72,103.2ZM615.26,82.92c-.9-1.07-1.18-1.72-1.52-1.76-6-.8-11.64,1.54-17.47,2.21a1.24,1.24,0,0,0-1,1.45,1.2,1.2,0,0,0,1.38,1.08A79.14,79.14,0,0,0,615.26,82.92ZM806.8,81c-1.06-.08-2.88-.53-3.14,1.08-.35,2.1,1.79,1.83,3.1,2.06,4.39.77,8.79,1.42,13.18,2.17,1.21.21,2.52.41,2.87-1s-1-1.86-2.15-2C816.12,82.45,811.58,81.74,806.8,81ZM650.26,111.08c-8.65,7.31-16.46,15.57-25.36,22.6C635.4,128.44,643.14,120.1,650.26,111.08Zm-22-14.42c-4.66-2-19.55-.16-23.65,3A113.81,113.81,0,0,0,628.3,96.66Zm-27.9-5.15c.05.51.11,1,.16,1.52,6.48-.81,13-1.61,19.44-2.45.66-.09,1.29-.53,1.14-1.32-.21-1.05-1.18-1.2-2-1.05C612.93,89.41,606.44,89.33,600.4,91.51Zm211.87,7.38c-7-1.63-14.08-3.91-21.44-2.53C797.83,98.47,804.93,99.69,812.27,98.89ZM788.46,129l-22.22-20.69C772.79,116.1,778.66,124.67,788.46,129Zm28.89-36c.06-.59.12-1.18.17-1.77-4.46-.64-8.9-1.47-13.39-1.83-2.38-.19-6.13-2.92-6.85.16-.52,2.25,4.05,1.21,6.24,1.69C808,92.2,812.67,93.24,817.35,93ZM588.6,73.47c3.3-.71,7.19-1.54,11.06-2.41,1-.21,2.24-.42,2-1.69-.29-1.53-1.77-1.33-2.87-1.11-3.74.74-7.46,1.59-11.18,2.44-1,.24-2.68.11-2.21,1.88C585.72,73.77,587,73.39,588.6,73.47ZM819.27,68.3c-.66,0-2.11-.37-2.47,1.1S818,71.23,819,71.46c3.72.83,7.47,1.51,11.22,2.2,1,.19,2.15.07,2.29-1.21.1-.94-.79-1.36-1.63-1.55Zm18.07-1.75c-4.48-3-9.64-3.17-14.48-4.45a1.81,1.81,0,0,0-1.62.66c-.42,1,.4,1.56,1.22,1.73C827.37,65.54,832.23,67,837.34,66.55Zm-256.58-.12c5.55-.28,11.13-.55,16.06-3.53A28.37,28.37,0,0,0,580.76,66.43Zm230,9.16c-.13.61-.25,1.22-.38,1.83l16,2.55c.09-.62.17-1.24.26-1.86C821.4,76.92,816.2,75.49,810.75,75.59ZM591.47,78.8a30.34,30.34,0,0,0,15.82-2.66C601.74,75.45,596.53,76.72,591.47,78.8ZM590.21,57c-5.29-.85-11.14.93-13.79,3.9ZM841,60.08a27.16,27.16,0,0,0-13.29-3.74A29.27,29.27,0,0,0,841,60.08Zm-70.93,47.63c3.22,4,6.55,7.88,11,10.49C778.23,113.85,774,110.89,770.05,107.71Zm-150.21,8c1.35-.94,4.18.37,5-2.36.3-.94-.9-1.42-1.7-1-2.05,1-5.1-.38-6.26,2C616.28,115.58,618.29,115.58,619.84,115.69Zm177.26-2.85c-1.06.14-2.88-.86-2.8.89.11,2.22,2.35,1.89,3.93,2,1.22,0,3.28.52,3-1.36C800.94,112.06,798.47,113.42,797.1,112.84Zm-159.52,4.9.08,0q4.46-4.44,8.93-8.86l.15.18Z" transform="translate(-10.93 -8.43)"/><path d="M415.65,270.87c-9.67,0-19.34-.14-29,.09-3.42.09-4.2-1.14-4.27-4.28C382.1,253,382,253,395.75,253c9.83,0,19.67-.18,29.49.07,4.06.11,5.2-1.31,5-5.21a158.59,158.59,0,0,1,.05-18c.29-4.59-1.54-5.63-5.77-5.55-12.32.24-24.66,0-37,.17-3.92.07-5.17-1.14-5.14-5.11q.27-27.24,0-54.48c0-3.59.9-5,4.74-5,13.86-.13,13.86-.26,13.85,13.51,0,9.5.06,19-.13,28.49-.07,3.41.92,4.79,4.52,4.66,7-.24,14-.26,21,0,3.37.13,3.86-1.35,3.84-4.14-.08-12.16.15-24.33-.13-36.49-.1-4.56,1.26-6.06,5.92-6,18.49.24,37,.21,55.48,0,4.16-.05,5.41,1.24,5.38,5.38-.1,12.56.07,12.6-12.48,12.67-10.16,0-20.33.17-30.48-.1-4-.1-5.24,1.29-5.06,5.17a176.77,176.77,0,0,1,0,18c-.23,4.33,1,5.73,5.57,5.62,12.47-.3,25,.09,37.45-.05,4,0,5,1.42,5,5.25q-.23,26.73.09,53.48c.05,4.32-1.15,5.73-5.63,5.65-12.9-.25-12.9,0-12.91-12.71,0-9.66-.08-19.33,0-29,0-3.68-.88-5.44-5.17-5.1a143.76,143.76,0,0,1-18.45.13c-4.5-.22-6.15,1.15-6,5.86.31,12,0,24,.2,36,.08,3.81-1.16,4.83-4.84,4.74C434.64,270.71,425.14,270.87,415.65,270.87Z" transform="translate(-10.93 -8.43)"/><path d="M715.82,804.26c2.08,0,3.11,1.09,4.2,2.17,10,10,20,20,30.14,29.78,2.63,2.53,3,4.23.29,6.9Q735.08,858,720,873.27c-3,3-5.11,2.52-7.89-.31Q697.25,857.87,682,843.12c-2-1.93-2.43-3.56-.53-5.47q16.23-16.21,32.57-32.32A7.37,7.37,0,0,1,715.82,804.26Zm.81,32.67c2.27-.35,4.45-1.37,4.42-3.8,0-2.66-2.31-4-4.79-4s-4.81,1.4-4.73,4S714.2,836.56,716.63,836.93Zm4.49,11.73a4.29,4.29,0,0,0-4.4-3.82c-2.45,0-4.84,1.27-5.07,3.77-.23,2.69,2.2,4.08,4.59,4.14A4.68,4.68,0,0,0,721.12,848.66Zm4.66-6.43c-1,0-1.72,0-2.38,0-1.17,0-2.56,0-2.82,1.44-.31,1.75,1.14,2.18,2.48,2.47a6.63,6.63,0,0,0,2.45.36c2.21-.38,6.07,1.91,6.29-1.35S727.89,842.63,725.78,842.23Zm-.81-2.54c2.57-.38,7.06.1,6.74-2.93s-4.61-1.2-7.15-1.22c-1.78,0-4.16.51-3.86,2.76S723.36,839.46,725,839.69Zm-21.11,7c2.74-.14,5.51.19,7.36-2.32a1,1,0,0,0-.29-1.69,12.28,12.28,0,0,0-7.3-.08c-1.55.36-3.86.74-3.7,2.66C700.13,847.64,702.53,846.36,703.86,846.67Zm.35-11.34c-1.29-.06-2.66-.49-3.76.55a1.12,1.12,0,0,0,.12,1.73c2.77,2.4,6.08,2.19,9.39,1.84.82-.09,1.93-.6,1.57-1.49-1.3-3.17-4.34-2.24-6.82-2.58C704.55,835.35,704.38,835.35,704.21,835.33Z" transform="translate(-10.93 -8.43)"/><path d="M450.09,840.84c0,1.12-.79,1.75-1.48,2.48C437,855.66,425.44,868,413.94,880.39c-2.06,2.22-3.45,1.87-5.2-.24-10.7-12.91-22.59-24.74-34-37-2.9-3.15-.8-4.91.86-6.68,6.58-7,13.44-13.77,20.07-20.75,4.56-4.8,9.1-9.65,13.27-14.78,2-2.41,3-2.35,5-.2,11.25,12.37,22.6,24.64,33.9,37C448.71,838.62,450,839.32,450.09,840.84Zm-39.21-31.92a7.72,7.72,0,0,0-3.27,2.46c-7.72,8.49-15.39,17-23.16,25.45-2.2,2.4-1.72,4.22.33,6.43q12,13,23.79,26.16c2.12,2.37,3.81,2.72,6.09.16q11.79-13.2,23.83-26.2c1.88-2,2.36-3.73.27-6-8.13-8.79-16.15-17.68-24.23-26.53C413.64,809.89,412.79,808.8,410.88,808.92Z" transform="translate(-10.93 -8.43)"/><path d="M591.15,836.54c.1,1.62-.81,2.42-1.58,3.28-4.21,4.72-8.48,9.39-12.61,14.18-2.22,2.59-4.05,2.11-6.22-.08-8-8.1-8.06-8.07-15.33.42-4.38,5.11-4.46,4.93-8.85,0-6.89-7.7-5.82-10.93-14.12-.54-2.42,3-4.51,2.81-6.93.14-4.24-4.68-8.5-9.34-12.85-13.92-1.83-1.93-2.06-3.54-.09-5.54q6.66-6.75,13.11-13.72c2.38-2.56,4.46-2.36,6.67.18,2.51,2.89,5.23,5.6,7.65,8.56s4.43,2.71,6.86,0c4.13-4.68,4.4-4.74,8.51.16,2.6,3.1,4.52,2.54,6.87,0,2.81-3.07,5.75-6,8.64-9,1.69-1.74,3.55-2.7,5.56-.56,4.66,5,9.26,10,13.86,15.07A6.86,6.86,0,0,1,591.15,836.54Zm-7,.41c-.29-1.93-1.9-3-3.12-4.31-8.18-8.7-6.38-8.25-14.48-.26-4.26,4.21-4.26,5.13-.18,9.3,7.35,7.48,7.36,7.48,14.86-.19C582.49,840.2,584,839,584.15,837Zm-55.38,11.78c.65-.26,1.23-.32,1.53-.64,2.94-3.15,7.15-5.91,8.39-9.64,1.52-4.59-4.5-6.55-6.68-10.06-.92-1.49-2.33-2.43-4.23-1.62a7,7,0,0,0-1.64,1.1c-8.78,7.26-8.91,8.55-1.71,17.1a24.67,24.67,0,0,0,2.33,2.56A11.6,11.6,0,0,0,528.77,848.73Zm29.48-7.07c-.12-1.87-5.8-8.35-7.3-8.33-1.94,0-7.62,6.63-7.53,8.73.09,1.8,6.08,8,7.65,7.93S558.37,843.43,558.25,841.66Z" transform="translate(-10.93 -8.43)"/><path d="M582.9,55c-2.77-.37-5,1.51-7.59,1.84-7.55,3.15-12.18-.8-16.18-6.55-2.08-3-4.48-4.83-8.15-1.81a4.49,4.49,0,0,1-6,0c-1.9-1.64-1.54-3.9-.86-6a23.16,23.16,0,0,1,1.19-2c-5.24-4-.56-9-1.36-13.49-1.36-7.59,4.35-12.55,11.77-10.47a10.75,10.75,0,0,0,4.79.11c5.13-.75,9.5,2.94,14.84,2.88,2.54,0,2.72,4.5.47,6.55-3.15,2.87-1.85,5.41,0,7.79,3.9,5,4,4.93-1.54,7.52a5.46,5.46,0,0,0-1.11,1c1.61,1.45,3,.08,4.12-.43,2.82-1.28,5.25-1.38,6.9,1.49,2,3.43-3,2.26-3,4.62,2.66.77,7.4-2.65,8.16,2.12C589.9,53.45,584.58,52.61,582.9,55ZM574,23.16c-.31-.57-.43-1.2-.76-1.34-1.3-.56-2.26.35-3.09,1.09q-11,9.82-21.87,19.74c-.87.78-2,1.74-1,2.9,1.23,1.44,2.4.21,3.37-.66q10.77-9.69,21.49-19.44A20.75,20.75,0,0,0,574,23.16ZM547.83,36a3.13,3.13,0,0,0,.91-.39c4.89-4.5,9.79-9,14.64-13.54a1.47,1.47,0,0,0,0-2.22,1.52,1.52,0,0,0-2.24.06q-7.25,6.48-14.4,13.05a1.93,1.93,0,0,0-.55,2.27A1.38,1.38,0,0,0,547.83,36Zm8.58,8.38,1.32,1.45c4.86-4.51,10.28-8.42,14.67-13.42l-1.22-1.36ZM548.61,27c2-1.89,4-3.79,6-5.76a1.39,1.39,0,0,0,0-1.34c-.71-.86-1.79-.68-2.76-.61-2.45.18-3.86,1.7-4.69,3.85-.41,1.06-.94,2.21-.06,3.27C547.31,26.72,547.91,26.75,548.61,27Zm16.73,20.8L565.7,49c4.44-.15,8.41-2.33,12.65-3.32.8-.18,1.64-.68,1.3-1.7a1.5,1.5,0,0,0-2.09-.74C573.47,44.7,569.41,46.26,565.34,47.8ZM571.86,54a25.47,25.47,0,0,0,11.94-3.59C579.75,51.35,575.34,51.1,571.86,54Z" transform="translate(-10.93 -8.43)"/><path d="M836.87,47.77c-4-2.87-3.23-6.91,1-6.56a20.42,20.42,0,0,1,3.31,1c1.08.3,2.11,1.14,3.34.42.34-.87-.39-1.09-.92-1.31-5.79-2.43-5.79-2.43-1.52-7.16,2.27-2.52,3.78-4.92.26-7.91-1.93-1.63-2-4.22-.34-6.34,1.55-2,3.59-2.2,5.78-.89a9,9,0,0,0,1.71.79c3.26-5.58,8.83-1.85,13.09-3.29,6.27-2.11,12.88,3.22,11.83,9.76-.39,2.38.17,4.39.43,6.62.55,4.67-.89,9.4-.9,14.25,0,3.05-4.44,3.3-6.89,1.26-3.12-2.58-5.54-1.18-7.23,1-1.81,2.38-4.5,3.88-5.85,6.69-1.12,2.3-3.37,2.41-5.66,1.74-5.42-1.57-10.86-3.07-16.26-4.72-1.55-.48-4.26-.47-3.58-3,.59-2.2,2.56-3.41,5.16-2.32A3.37,3.37,0,0,0,836.87,47.77Zm34.47-2.84a7.31,7.31,0,0,0-1-1.63q-11.43-10.41-22.93-20.76c-.88-.79-2.08-1.6-3-.31s.23,2.12,1.11,2.92c4.44,4,8.86,8.05,13.31,12.06q4.82,4.34,9.7,8.61c.61.53,1.37,1.1,2.2.52C871,46.1,871.09,45.5,871.34,44.93Zm-.79-8.48c2.22-1.05,1.82-2.41.56-3.59q-6.75-6.3-13.65-12.42c-.87-.78-2.09-1.49-3.08-.31s.07,2.15.91,2.92q6.6,6.09,13.28,12.11A14.26,14.26,0,0,0,870.55,36.45ZM860,45.83l1.38-1.42L847.29,31.68l-1.35,1.52Zm11.28-21.3c-.56-3.08-2.21-5.23-5.78-5.24-1.09,0-3,.4-2.22,1.63a14.87,14.87,0,0,0,6.8,6C871.26,27.32,871.26,25.68,871.32,24.53ZM851.84,49.45c.17-.53.34-1.06.52-1.6-4-1.56-8.06-3.16-12.12-4.64a1.47,1.47,0,0,0-2,.91c-.1.35.17,1.13.43,1.22C843,46.75,847.44,48.09,851.84,49.45Zm-6,4.86.19-1.24-12-3.13C837.7,52.31,841.52,54.18,845.83,54.31Z" transform="translate(-10.93 -8.43)"/><path d="M507.52,805.52c2.08-.21,3.79,2,5.39,4.1,2.67,3.54,5,3,7.57-.11a11.37,11.37,0,0,1,18.09.32c4.21,5.41,5,5.55,9.21.34,2.6-3.21,4.49-3.58,7.29-.13,4.56,5.63,5.06,5.47,9.37-.31s15.63-6,20.42-.47c3.76,4.39,4.8,4.37,8.44,0,.84-1,1.63-2.28,2.73-2.8,2-.91,4.43-1.71,6.07.17,1.87,2.13-.44,3.6-1.71,5-3,3.32-6.19,6.52-9.28,9.78-2.16,2.29-4.16,2.34-6.29-.12s-4.7-4.76-6.76-7.36c-2.67-3.36-5-3.93-7.95-.28-2.41,2.95-5.45,5.39-8,8.27s-4.77,3.44-7.15,0c-2.58-3.77-5.2-3.77-7.75,0-2.35,3.48-4.59,3.12-7.11.08-2.23-2.69-4.71-5.17-7.1-7.72-3.89-4.16-4.68-4.14-8.63.18-1.34,1.48-2.76,2.89-4,4.43-2.36,2.86-4.74,2.76-7.15.18-3-3.16-5.85-6.39-8.77-9.58-.68-.74-1.48-1.47-1-2.59C504,805.48,505.28,805.64,507.52,805.52Z" transform="translate(-10.93 -8.43)"/><path d="M324.55,837.67c0,1.82-1.07,2.72-1.9,3.73-9.87,11.91-19.83,23.75-29.59,35.76-2.8,3.45-4.78,3.76-7.76.12q-14.73-17.94-29.9-35.52c-2.24-2.6-2.07-4.55,0-6.9,9.9-11.23,19.88-22.4,29.6-33.79,3.12-3.66,5.25-3.44,8.24.07,9.82,11.54,19.85,22.89,29.78,34.33A23.1,23.1,0,0,1,324.55,837.67ZM289.06,873c1.06,0,1.83-.93,2.58-1.81q13.14-15.33,26.27-30.68c1.49-1.75,1-3.22-.39-4.83-8.49-9.8-17-19.61-25.33-29.54-2.37-2.82-4.26-2.58-6.45,0q-12.45,14.63-24.95,29.2c-1.86,2.16-1.9,3.93,0,6.11,8.23,9.58,16.36,19.25,24.56,28.87C286.28,871.44,287.12,872.78,289.06,873Z" transform="translate(-10.93 -8.43)"/><path d="M593.71,873.62c-3.26-.21-5.09-2.15-6.79-4.25-2.67-3.3-5-3.54-8.09-.12-5.84,6.43-9.73,6.07-15.37-.74-3.67-4.44-4.27-4.43-8.27.12-3.72,4.22-4.18,4.22-8-.07s-4.58-4.23-8,0c-5.34,6.71-10.3,6.91-16.05.67-4-4.29-4.44-4.36-8.42.12-2.32,2.61-4.74,4.7-8.51,4.21-2.2-.28-3.25-1.24-1.42-3.19,3.87-4.12,7.82-8.17,11.79-12.2,2.1-2.12,3.81-.92,5.54.75,7.09,6.87,7.11,6.85,13.77-.39,4.13-4.49,4.32-4.42,8.33.1,7.67,8.63,6.06,8.77,13.51.22,4.34-5,4.35-5,9-.21.35.36.71.7,1.07,1.06,5.95,5.92,6,6,11.74,0,2.45-2.59,4.31-2.51,6.58,0,3,3.36,6.14,6.57,9.19,9.87.76.82,1.95,1.6,1.2,3S594.57,873.62,593.71,873.62Z" transform="translate(-10.93 -8.43)"/><path d="M203.15,839.55c0-9.8.11-19.6-.06-29.39-.06-3.39,1.46-4.41,4.46-4.4,3.16,0,3.82,1.87,3.82,4.57q-.08,29.16,0,58.31c0,3.05-1,4.65-4.31,4.59s-4.08-1.79-4-4.81c.14-9.62.05-19.25.05-28.87Z" transform="translate(-10.93 -8.43)"/><path d="M127.84,839.6c0,9.81-.08,19.62,0,29.43,0,2.64-.59,4.14-3.49,4.22s-4.1-1.19-4.1-4.19q.08-29.47-.09-59c0-2.57.74-4.18,3.63-4.18s4.26,1.18,4.24,4.2c-.08,9.83,0,19.66,0,29.49Z" transform="translate(-10.93 -8.43)"/><path d="M132.45,843.88c3.55-4.59,7-7.33,10.26-10.27q10.18-9.17,20.25-18.46c1.86-1.72,3.45-2.34,5.56-.38,9.37,8.73,18.8,17.39,28.18,26.11.3.27.29.87.43,1.34-1.79,1.14-2.47-.45-3.33-1.24-7.84-7.2-15.76-14.32-23.4-21.72-3.46-3.35-6.06-2.94-9.33.17-7.46,7.1-15.13,14-22.75,20.91A11.9,11.9,0,0,1,132.45,843.88Z" transform="translate(-10.93 -8.43)"/><path d="M132,868.19c11-10.11,21.14-19.42,31.28-28.72,1.17-1.07,2.54-1.88,4-.56,10.14,9.24,20.24,18.53,30.55,28-2.34,1.57-2.89.08-3.61-.58-7.94-7.33-16-14.55-23.68-22.14-3.6-3.56-6.32-3.16-9.69.06-7.47,7.11-15.1,14-22.69,21C136.74,866.56,135.66,868.42,132,868.19Z" transform="translate(-10.93 -8.43)"/><path d="M423.3,238.9a7.69,7.69,0,0,1-15.36-.54c.19-3.69,3.93-7.12,7.72-7.08A7.81,7.81,0,0,1,423.3,238.9Z" transform="translate(-10.93 -8.43)"/><path d="M463.51,185a7.26,7.26,0,0,1,7.69,6.88,7.35,7.35,0,0,1-7.44,7.66,7.12,7.12,0,0,1-7.6-7.41C456.17,188,459.2,185,463.51,185Z" transform="translate(-10.93 -8.43)"/><path d="M415.71,199.58a7.53,7.53,0,0,1-7.69-7.53,7.45,7.45,0,0,1,7.55-7.1c4.2,0,7.6,3.12,7.72,7A7.54,7.54,0,0,1,415.71,199.58Z" transform="translate(-10.93 -8.43)"/><path d="M133.71,851.1c1.18-3.31,4.23-5,6.51-7.11,7.35-7,15-13.64,22.41-20.53,1.82-1.69,3.42-2.68,5.54-.69Q182.36,836,196.52,849.3a1.59,1.59,0,0,1,.39,2.09c-2.5-.15-3.58-2.54-5.09-3.9-6.92-6.2-13.58-12.68-20.33-19.06-5-4.67-6.18-4.67-11.13-.16q-12,10.9-24,21.75C135.74,850.6,135.31,851.82,133.71,851.1Z" transform="translate(-10.93 -8.43)"/><path d="M195.7,858.94c-3.63-3.27-7.29-6.53-10.9-9.83-4.66-4.27-9.27-8.59-13.92-12.86s-5.27-4.27-9.85-.1c-8.91,8.12-17.85,16.19-26.92,24.4-1.11-2.17.43-2.85,1.28-3.64,9.28-8.56,18.65-17,27.88-25.63,1.74-1.62,3.19-1.64,4.76-.21q14.43,13.26,28.82,26.58Z" transform="translate(-10.93 -8.43)"/><path d="M463.37,231.31a7.44,7.44,0,0,1,7.8,7.37,7.26,7.26,0,0,1-7.24,7.32,7.17,7.17,0,0,1-7.72-7.28A7.42,7.42,0,0,1,463.37,231.31Z" transform="translate(-10.93 -8.43)"/><path d="M196.65,835.33c-8.63-7.93-16.78-15.42-24.92-22.93-5.88-5.42-6-5.48-12.08,0-6.78,6.12-13.43,12.38-20.2,18.5-1.65,1.49-3.16,3.3-6.91,4.55,4.31-5.68,8.92-9,12.94-12.9,5-4.82,10.37-9.31,15.39-14.14,3.16-3,6.3-2.94,9.25-.27,8.47,7.65,16.79,15.48,25.13,23.28A3.43,3.43,0,0,1,196.65,835.33Z" transform="translate(-10.93 -8.43)"/><path d="M193.32,872.45c-4-.75-5.68-4.35-8.31-6.55-5.21-4.37-10.17-9.08-14.94-13.93-3.11-3.16-5.64-2.68-8.53,0q-9.42,8.9-19,17.64c-1.12,1-1.91,2.83-4.35,2.38.91-3,3.48-4.28,5.45-6.08,6.49-5.92,13-11.8,19.47-17.79,1.56-1.46,3.09-2.22,4.77-.67,8.55,7.85,17,15.79,25.51,23.72C193.55,871.34,193.38,871.79,193.32,872.45Z" transform="translate(-10.93 -8.43)"/><path d="M146.28,871.72c6.23-5.71,11.81-10.83,17.4-15.94a2.52,2.52,0,0,1,3.61-.18c5.89,5.23,11.74,10.51,18,16.11-2.65,1.15-3.68-.22-4.83-1.31-3.36-3.19-6.93-6.2-10.08-9.6-3.32-3.57-6.11-3.85-9.5-.09a120.88,120.88,0,0,1-9.34,8.9C150.37,870.64,149.49,872.34,146.28,871.72Z" transform="translate(-10.93 -8.43)"/><path d="M133.38,825.71l21-19.32,1.14,1.23c-6.42,7.06-14.06,12.79-20.87,19.41Z" transform="translate(-10.93 -8.43)"/><path d="M154.59,870.87a34.85,34.85,0,0,0,4-2.84c7.12-6.67,12.52-5.35,17.13,4.66-2.63-.76-4.12-2.59-5.58-4.17-3-3.26-5.72-3.35-8.82-.13a47.62,47.62,0,0,1-5.24,4.19Z" transform="translate(-10.93 -8.43)"/><path d="M196.57,826.59,176.2,808.15c.35-.4.71-.79,1.07-1.18a209.37,209.37,0,0,1,20.29,18.53Z" transform="translate(-10.93 -8.43)"/><path d="M146.6,807.8l-12.13,10.75-1-1.14a98.37,98.37,0,0,1,12-10.9Z" transform="translate(-10.93 -8.43)"/><path d="M196.8,817.54a32.65,32.65,0,0,1-11.29-9.92C190.52,809.47,193.68,813.5,196.8,817.54Z" transform="translate(-10.93 -8.43)"/><path d="M198.56,180.74c.85-1.17,1.61-2.42,2.56-3.5,5.16-5.81,10.37-11.58,16.44-16.61l-18.23,20.59Z" transform="translate(-10.93 -8.43)"/><path d="M217.89,148.83c-2.58,6.09-8,9.78-12.31,14.46,3.82-5,7.26-10.42,12.42-14.35Z" transform="translate(-10.93 -8.43)"/><path d="M72.18,321.29c-1.42,2.93-3,5.77-6.39,6.81A14.41,14.41,0,0,1,72.18,321.29Z" transform="translate(-10.93 -8.43)"/><path d="M284.88,320.34c4.35,2,5.79,4.91,7.3,7.76C288.93,326.84,286.92,324.4,284.88,320.34Z" transform="translate(-10.93 -8.43)"/><path d="M461.26,553.32c-.29-15.55,7.24-27.74,16.72-39.05a6.45,6.45,0,0,1,7.71-1.95c2.33,1,4.3,2.8,4,5.74-1.41,13.77,14,25.56,29.67,19.35,23.48-9.28,47.26-17.83,71-26.58q30.18-11.15,60.48-22c3.39-1.22,6.83-1.42,9.79,1.41,4.91,4.68,4.46,9.21-1.81,12.77-14.46,8.21-29,16.21-43.63,24.23-26.52,14.6-53,29.32-79.65,43.65-10.68,5.75-21.69,11-32.81,15.8-15.23,6.62-31.18-.18-37.43-15.51a67.59,67.59,0,0,1-3.3-9.93C461.36,558.7,461.47,556,461.26,553.32Zm2-.82a41.11,41.11,0,0,0,3.7,18c6.51,14.37,21.23,20.74,35.12,14.43q19.95-9.06,39.3-19.44c23.9-12.81,47.57-26,71.32-39.12q22.5-12.39,44.94-24.91c2.38-1.33,5.28-2.91,3.67-6.57-1.5-3.41-4.06-5.13-8-4.21a31.56,31.56,0,0,0-3.4.73c-12.36,4.42-24.73,8.77-37,13.34q-46.68,17.35-93.28,34.9A27.3,27.3,0,0,1,493.76,536c-4.29-3.08-7.89-10.26-7.12-17.3.26-2.32-.41-4.39-2.47-4.85a4.51,4.51,0,0,0-5.43,3.28c-.58,2-1.26,3.89-2.82,5.16C466.27,530.1,464.29,541.11,463.26,552.5Z" transform="translate(-10.93 -8.43)"/><path d="M498.38,623.75c-12.81-4.63-26.09-7.2-39.59-8.8,12.85.53,25.66,1.13,37.87,5.78a2.39,2.39,0,0,1,1.68,3.1Z" transform="translate(-10.93 -8.43)"/><path d="M535.05,639.21c8.71,5.13,18.63,8.45,25.15,16.89C551.87,650.37,543,645.54,535.05,639.21Z" transform="translate(-10.93 -8.43)"/><path d="M560.6,598.1l10.89,28.16C567.32,617.08,562.16,608.26,560.6,598.1Z" transform="translate(-10.93 -8.43)"/><path d="M530.17,637.13c-6.19-1.41-10.28-4.58-15-6.22a1,1,0,0,1-.61-1.58,1.32,1.32,0,0,1,2-.57C520.9,631.1,525.53,632.88,530.17,637.13Z" transform="translate(-10.93 -8.43)"/><path d="M498.34,623.83c4.54-2.18,10.81.19,13.34,5.26-5-.83-8.77-4-13.28-5.37Z" transform="translate(-10.93 -8.43)"/><path d="M601.16,542.62c4.78-3.67,9.65-7.21,15.64-8.59C611.39,536.54,606.7,540.33,601.16,542.62Z" transform="translate(-10.93 -8.43)"/><path d="M678.33,561q4,8.31,8.08,16.64l-1,.47-8.11-16.62Z" transform="translate(-10.93 -8.43)"/><path d="M592.26,560.87q3.29,7.26,6.58,14.53C595.13,571.3,593.54,566.18,592.26,560.87Z" transform="translate(-10.93 -8.43)"/><path d="M557.39,568.7c3.91-3.17,8.08-6,13.27-6.66Z" transform="translate(-10.93 -8.43)"/><path d="M466.31,512.25c5.69,1.6,8.56-4,13.21-4.92C475.54,510.13,472.33,514.89,466.31,512.25Z" transform="translate(-10.93 -8.43)"/><path d="M171,619.23q2.15-7.79,4.28-15.57C175.54,609.26,173,614.16,171,619.23Z" transform="translate(-10.93 -8.43)"/><path d="M597.11,607.36c-2.84-3.26-3.78-7.4-5.53-11.18C594.57,599.33,595.53,603.51,597.11,607.36Z" transform="translate(-10.93 -8.43)"/><path d="M649.33,550.43q2.85,5.09,5.71,10.17C651.71,558.08,650.23,554.48,649.33,550.43Z" transform="translate(-10.93 -8.43)"/><path d="M716.73,668.85c-3.12-4.45.44-8.15.59-12,0-.2,1-.63,1.17-.49.49.36,1.18,1,1.1,1.46C719,661.44,719.26,665.35,716.73,668.85Z" transform="translate(-10.93 -8.43)"/><path d="M266.84,675.47c-.48,3.6,1.06,6.59,3.05,9.39.34.5,1.9.33.87,1.48-.67.75-1.61.44-2.07-.41A14.49,14.49,0,0,1,266.84,675.47Z" transform="translate(-10.93 -8.43)"/><path d="M267,540.29c-5.14,2.16-10.18,4.63-15.46,6.41a259.59,259.59,0,0,0-24.9,10.06,23.14,23.14,0,0,1-11.1,2.08c-2.28-.12-4.37-.4-5.46-2.66a6.38,6.38,0,0,1,.57-6.64,25.62,25.62,0,0,1,3.87-3.85c.72-.65,1.52-1.51,2.6-1.07,1.3.54.49,1.65.53,2.58.14,3.44,2.35,4.41,6.36,3.14,12.64-4,25.44-7.52,38.34-10.64a34.78,34.78,0,0,1,4.34-.55Zm-19.69,6.34a4.18,4.18,0,0,0-4.14-.28c-5.74,1.63-11.46,3.43-17.3,4.66-3.5.74-7.53,2.42-10.21-2.08-.7-1.19-1.76-.43-2.47.32-1.73,1.8-3,4-1.29,6.23a6.05,6.05,0,0,0,7.48,2.19C228.47,554.07,237.24,549.67,247.31,546.63Z" transform="translate(-10.93 -8.43)"/><path d="M597.53,333.37c1.14-3.64,4-5.75,6.8-8C602.81,328.65,601,331.67,597.53,333.37Z" transform="translate(-10.93 -8.43)"/><path d="M744.83,168.78c-.76,4.63-5.1,6.26-7.19,9.77l-1.06-.91L745,168.9A1.36,1.36,0,0,0,744.83,168.78Z" transform="translate(-10.93 -8.43)"/><path d="M673.77,169a128.77,128.77,0,0,1,16.5,18.63A126.05,126.05,0,0,1,673.77,169Z" transform="translate(-10.93 -8.43)"/><path d="M411.83,823.76c2.33,0,4.66,0,7,0,1.3,0,2.83-.29,3.59,1.1.88,1.62-.78,2.29-1.55,3.26a9.35,9.35,0,0,1-.69.72c-10.85,11-7.42,10-18.84-1.16-2.06-2-1.56-3.65,1.52-3.77s6,0,9,0Z" transform="translate(-10.93 -8.43)"/><path d="M411.68,856.19c-3,0-6,.15-8.95,0-2.58-.17-3.29-1.57-1.42-3.57,2.5-2.65,5.14-5.18,7.73-7.75,1.35-1.35,2.86-1.81,4.36-.35,2.86,2.75,5.73,5.51,8.4,8.44,2,2.17.71,3.33-1.67,3.47-2.81.15-5.63,0-8.45,0Z" transform="translate(-10.93 -8.43)"/><path d="M424.53,831.83c3.38.18,7.76,7.89,6.21,10.48a37.11,37.11,0,0,1-3.57,4.73c-1.29,1.51-2.74,1.52-4.33.29-5.23-4.05-5.12-11.16.28-14.81A9.16,9.16,0,0,1,424.53,831.83Zm2.75,8.19c-.26-1.3-.66-2.64-2.3-2.6a2.51,2.51,0,0,0-2.46,2.55c-.15,1.61,1,2.4,2.36,2.5C426.44,842.59,427.2,841.59,427.28,840Z" transform="translate(-10.93 -8.43)"/><path d="M397.8,832c2.11,0,7.54,7.06,6.55,9a48.75,48.75,0,0,1-4.91,6.79,2.1,2.1,0,0,1-1.35.5c-1.84.18-6.91-5.89-6.92-8.24S395.89,832,397.8,832Zm2.5,7.76c-.22-1-.43-2.34-2.16-2.32s-2.25,1.16-2.24,2.59a2.23,2.23,0,0,0,2.45,2.4C399.76,842.35,400.2,841.31,400.3,839.71Z" transform="translate(-10.93 -8.43)"/><path d="M529,840a2.6,2.6,0,0,1-2.37-2.72,2.16,2.16,0,0,1,2.3-2.13,2.07,2.07,0,0,1,2.32,2.06A2.61,2.61,0,0,1,529,840Z" transform="translate(-10.93 -8.43)"/><path d="M289.28,851.07c3.12-.08,7.26,1.35,4.43-4.65-1.17-2.48,1.92-2.47,3.62-2.52,2.42-.07,4.74.53,3.68-3.59-.68-2.6,2.26-2.08,3.54-1.79,2.19.5,5-2.42,6.25.29,1.11,2.43-2.06,3.82-3.46,5.55-4.61,5.66-9.31,11.26-14,16.85-3.53,4.2-4.74,4.14-8.1.13-5.55-6.61-11.18-13.15-16.79-19.72-1-1.14-2.27-2.32-1.25-3.91,1.14-1.77,2.24.08,3.39.3a29.5,29.5,0,0,0,4.42.35c1,0,2.57.32,2.36,1.27-1.12,5.34,2.84,4,5.46,4.35,1.52.23,2.93,1.06,2.22,2.54C282.32,852.27,286.45,851,289.28,851.07Z" transform="translate(-10.93 -8.43)"/><path d="M271.11,833.09c5.4-7.8,11.07-13.36,16.15-19.39,1.15-1.37,2.8-1.11,4,.14A214,214,0,0,1,306.58,832c-3.69.75-6.47-.71-9.34-.76-1.71,0-2-1.42-1.51-2.94,1-3-.56-3.94-3.2-4-2.32,0-4.64-.13-7,0-1.86.1-3.39,1-2.74,3.16,1,3.45-.79,4-3.56,4.14A76.3,76.3,0,0,0,271.11,833.09Z" transform="translate(-10.93 -8.43)"/><path d="M295.33,838.24c0,2-4.37,6-6.63,5.81a6.08,6.08,0,0,1-5.51-6c-.13-2.85,2.94-4.57,5.76-5.24C290.7,832.4,295.33,836.6,295.33,838.24Z" transform="translate(-10.93 -8.43)"/></g></g></svg>