<svg xmlns="http://www.w3.org/2000/svg" viewBox="0 0 897.21 880.58"><title>bbb</title><g id="Layer_2" data-name="Layer 2"><g id="Layer_1-2" data-name="Layer 1"><path d="M678,882c3.11-12.14,4.37-24.44,2.64-36.91-1.49-10.77-8.88-16.19-18.33-19.6-2.65-1-5.39-1.66-8-2.73-17-7-16-11.72-15.33-26.55.17-3.82,2-7.09,4.41-10.32,6.36-8.42,8.78-18.62,10.22-28.77.68-4.76-3.13-8.92-6.61-12.36-1.51-1.5-3.17-.37-4.59.41-4.81,2.63-9.65,5.21-14.31,8.08-7.76,4.8-16.8,4.64-25.22,6.85-3.85,1-7.38,3-11.43,3.43-6.05.61-11.45-1.35-16.74-3.87-3.2-1.52-6-2-9.24.55a14.92,14.92,0,0,1-8.79,3.14c-6.22.12-10.89,3.1-14.52,7.59-9.57,11.87-22.84,12.26-36.21,11.75-10.73-.41-19.93-5.89-29.09-10.79-5.54-3-8.93-8.43-11.86-13.87-11.32-21.06-18-43.67-23.19-66.94a142,142,0,0,1-3.49-34.54c.31-11.85-.15-23.79,2.06-35.76,1.66-9,2.62-18.32,3.8-27.46,1.91-14.77,1.48-29.75,4.75-44.37,2.73-12.15,2.89-24.65,4.24-37,1.54-14.11,1.06-28.57,6.16-42.16,1.53-4.07.68-6.73-3.44-8.92-7.78-4.12-8-8.57-1.5-14.28a9.67,9.67,0,0,0,3.7-7.77c-.08-6.64-1.82-13.24-1.57-19.72.52-13.8-3.84-27.39-1.22-41.2a18.63,18.63,0,0,0,.07-5.48c-.63-5.44-.6-7.8-7.51-7.89-6.33-.09-12.39-3.47-19-3.44a1.72,1.72,0,0,1-1.74-1.51,2,2,0,0,1,1-2.13c.43-.26.9-.72,1.32-.68,6.71.66,13.84-2.53,20.13,2.06,1.2.87,2.19,2.23,3.91,1.33s1.06-2.6,1.28-4c.58-3.64-1.31-6.51-3.26-9.12a5.74,5.74,0,0,1-.72-6.41,60.85,60.85,0,0,0,2.24-7.09c1.19-4.15,2.28-8.21-4.16-9-1.05-.13-2.26-1.57-2.82-2.69-4.07-8.23-11-11.86-19.77-13.09-5.76-.81-5.72-1.08-1.78-6.23a25.4,25.4,0,0,0-9.84-2.55c-7.89-.4-15.76-1.11-23.65-1.5-4-.2-4.79-2.26-3.85-5.64,1.67-6,3.28-12,6-17.72,2.14-4.5,1-8.46-2.65-10.33-3.39-1.76-8.94.14-8.66,3.62.74,9.23-4.47,17.4-3.85,26.51.26,3.81.85,6.74,4.68,9,3.64,2.13,6.24,5.94,10.39,7.56.93.37,1.92,1.31,2.71,1.14,6.6-1.39,7.84,3.29,9.24,7.88s3,7.59,9,8.53,11.3,5.24,16.93,8c1.44.71,1,1.93.89,3-.16,1.45-1.44,1.47-2.51,1.95-6.63,2.92-12.54.43-18.5-2.16-6.57-2.85-10.05-2.5-12,1-2.17,3.94.64,12.44,5.13,14.86,3.33,1.78,6.64,3.68,10.51,4.27,2.77.43,4.45,2,2.49,4.81-1.29,1.88-.89,3.83-1,5.77a3.26,3.26,0,0,1-1.74,2.83c-1.62.87-1.85-.7-2.57-1.48-4.58-5-10.86-7.45-16.64-10.6-3.27-1.77-5.9-.37-8.49,2-2.79,2.57-3.08,5.34-1.83,8.55,2.35,6,2.36,5.94-3.94,8.41-2.67,1-4.93,2.57-6.06,5.51-1.63,4.28-.95,6.16,3.47,7.3,12,3.08,20.84,10.54,26.6,21,7.21,13.07,2.37,25.57-9.64,34.2-7.35,5.27-15.84,7.47-24.37,9.46-3.23.76-3.34,1.89-2.22,4.33A30.36,30.36,0,0,1,362.32,496c-13,13.3-28.82,18.4-47,17.13a15.54,15.54,0,0,1-3.84-.9c-2.78-.93-4.19-.51-4.74,2.87-1,6.08-4.62,10.43-10.11,13.36-12,6.42-24.76,5.49-37.56,3.91-3.76-.47-7.56-.75-11.19-2.18-1.83-.72-3.83-.69-5,1.75-5,10.14-14.29,15-24.22,18.7-3.39,1.25-4.33,3-4.47,6.08a25.4,25.4,0,0,0,1.13,8.84c1.87,6,.55,11.92-1.74,17.4-2.58,6.2-10.19,9.41-17.15,8.07s-11.42-6.46-12.44-13.57a61.75,61.75,0,0,1,0-20.79c.57-2.93,0-5.09-3.61-6.38-9-3.2-17.22-7.86-22.48-16.36-1.13-1.83-2.8-2-4.73-2.07-5.15-.08-10.31.5-15.41-.86a5.68,5.68,0,0,0-5.48,1.81c-10.45,10.52-43.07,7.84-53.19-4a39.43,39.43,0,0,1-8.13-16.87c-1.34-5.75,2-10.48,5.46-14.83,1-1.22,3.11-2,2.33-4-.61-1.55-2.53-1.45-3.92-1.62-16-1.89-25.07-12.82-32.23-25.55-4.62-8.21-8.07-17.16-7.39-27,1.25-18,9.58-31.29,26.09-39.33,20.35-9.89,40.07-8.1,59.5,2.49,3.3,1.8,12.74-2.43,13.35-6a2.65,2.65,0,0,0-1.31-2.52c-12.52-10.4-7-25.68.31-35.24,9.13-11.95,21.51-18.48,36.75-18.75,4.4-.08,3.41-3.11,3-5.17-1.59-8.5-2.41-17.09-3.33-25.67-.36-3.38-.38-6.75-1.34-10.17-1.56-5.56,1.55-10.46,5.7-13.41,2.12-1.5,6.49.22,9.42,1.74,5.17,2.67,7.15,7.46,7.52,13,.79,12.1.81,24.24,2.23,36.3.51,4.33,2.07,7.56,6.66,9.36,2.35-6.22,1.7-12.8.92-18.94-.91-7.28-1.08-14.62-1.28-21.82-.46-15.61-1.27-31.19-1.86-46.79-.12-3,.49-6,.67-8.93.24-4-1.87-6.2-5.59-7.08-4.39-1.05-5,2.65-5.81,5.2-1.21,3.6-1.57,7.47-2.55,11.16-.3,1.14-.88,2.87-2.48,2.73-2.07-.18-1.8-2.07-1.81-3.52,0-5.09,1.39-9.32,3.74-14.21,4.86-10.12,13-19.48,12.08-31.73-.33-4.47-1-8.81.14-13.25.37-1.39.74-2.51,2.78-3,.3,8.14,3.73,15.57,4.5,23.55.41,4.2,1.91,7.52,5.92,9.62,2.18,1.14,3.67,3.27,5.19,5.3,2.71,3.61,6.81,3.36,8.68-.79a40.78,40.78,0,0,0,3.3-23.44,9.61,9.61,0,0,1,.66-4.84c1.73-5.09,1.59-5.69-2.07-9.59,5.87-3.52,7.68-.64,7.92,4.65.3,6.47.16,13,.06,19.45-.07,5.12.53,9.91,4.42,13.78,1.6,1.59,2.52,3.44.32,5.55a2.91,2.91,0,0,0-.18,3.71,2.24,2.24,0,0,0,2.7.71c1.56-.55,1.23-1.91,1.5-3.23.82-4,5-5.33,7.42-8.1,3.32-3.78,4-6.69,1.37-11-5.85-9.52-5.13-20.39-5.67-31a12.3,12.3,0,0,1,1.14-5.31c.56-1.28,1.63-2.69,3.45-2.33,1.67.34,1.27,2,1.81,3,2.3,4.58,4.29,9.1,3.79,14.45-.17,1.88,1.73,2.25,3.3,2.16,3.64-.2,4.1,1.27,3.18,4.58-.77,2.78-1.67,5.83-.26,8.8,1.52,3.19,2.9,6.5,7.47,5.82a5.1,5.1,0,0,1,3.3.81c2.4,1.37,3.85.5,3.79-2.32,0-2.22.14-4.32,1.67-6.09s2.72-2.78,5.3-1c4.78,3.23,6.78,2.66,10.61-1.81,1-1.2,1.62-3.31,3.74-2.62,1.91.62,1.69,2.78,1.87,4.24,1.6,12.65,5.26,24.94,6.19,37.72.38,5.21,2,10.32,3.2,15.92,2.56-1.84,3.28-3.91,3.74-6.48,1.3-7.12,4.38-14,2.57-21.52-.34-1.44,1.15-2.64,2.81-3,6.61-1.49,9.78-6.31,11.89-12.23a39.51,39.51,0,0,1,7.09-12.76c.56.33,1,.45,1.07.67,2.16,9.51,4,10.67,13.83,8.89,3.3-.6,4.77-3.45,5.44-5.91,1-3.51,1.68-7.24-.4-11-2.2-4-1.26-5.3,3.36-5.53a99.2,99.2,0,0,1,10.49,0c3.46.2,5.37,3.25,3.74,6.32-5.82,10.92-8.39,23.06-13.22,34.34a16.58,16.58,0,0,0-.78,9.34c1.24,7.54,9.44,10,15.69,4.76a46.53,46.53,0,0,0,5.31-5.29c2.59-3,4.49-3.52,6.53.68,1.33,2.75,3,5.53,6.84,5.87,6.6.59,9.43-2.31,9.77-11,.12-3.09,1-4.87,4.31-4.37,1.71.26,3.36.71,1.67,3.21a33.26,33.26,0,0,0-4.52,11c-.56,2.31.58,3.58,2,4.59,1.71,1.24,3.19-.16,4.32-1.32,3.67-3.72,2.64-8.5,2.13-12.82a86.43,86.43,0,0,1,.68-24.31c1.06-6.45-5.18-15.26-11.69-16.26a3.83,3.83,0,0,0-4.57,2.86c-.47,1.41-.68,2.91-1,4.37-.59,2.57-3.06,2.48-4.75,2.79-2.37.43-2.2-2.17-2.46-3.53-1.31-7.14,2.67-10.7,9.44-8.65,5.88,1.78,19.59-3,23.94-8.31,7.09-8.68,14.64-8.93,22.43-.7,3.15,3.32,7.56,4.73,11.2,7.33,2.38,1.7,4,3.14,3.34,6.38a6.16,6.16,0,0,0,3.35,7.11c2.89,1.53,3.73,4,3.25,7.09-.78,5.13-.25,9.89,3.9,13.69a3.58,3.58,0,0,1,1,4.52c-1.18,2.12-3.18,1.56-4.89,1.05-13.24-4-26.68-2.57-40.1-1.58-4.56.34-6.83,3.15-6.91,7.59-.12,5.83-.15,11.67,0,17.5.09,4.09,5.56,8.67,12.08,10.21a73.75,73.75,0,0,0,19.32,1.64c2.09-.06,4.69-.64,5.27,2.32.49,2.52-2.19,2.51-3.54,3.48a9.29,9.29,0,0,1-5,2c-4.74.22-6,3.07-4.93,7.18a91.21,91.21,0,0,0,4,13.31c1.38,3.26,4.91,5.18,8.08,6,2.64.69,4.63-2.68,7.09-4,1-.52.61-2.1.3-3.27a67.36,67.36,0,0,0-1.91-7.23c-1.31-3.39-1.36-5.39,2.92-6.8,3.33-1.09,2.85-5.14,1.09-7.15-2.82-3.22-.52-4.29,1.45-5.7a15.92,15.92,0,0,1,3.24-1.26c5.73-2.34,7.71-5.14,7.63-11.46-.07-5.7-.16-11.36,3.42-16.26,1-1.33,1.85-2.94,3.18-3.78a49.27,49.27,0,0,0,16.68-18.08c1.39-2.47,4.35-4,6.47-6.12,9.25-9.16,12.83-20.32,10.92-33.09-.68-4.62,2.34-7.85,3.22-11.85,1.82-8.19,1-16.55,1.55-24.79,1.18-19,1.21-38.16,1.67-57.25,0-1.53.08-3.1,1-4.29,5.71-7,6.77-16,10.45-23.88,5.46-11.67,11.74-22.65,24.15-29.2,22-11.59,44.76-14,69-10.4,10.26,1.51,20.81,1.55,31.06,3.4,5.23.94,9.42,4.09,13,8.27,6.86,8.09,14,15.94,21.21,23.71,2.14,2.3,4.78,2,5.55-1.38A13.26,13.26,0,0,1,707,46.06c2.71-1.32,1.79-5.18,5.23-6,.84,4.34,1.91,8.05-1.31,12.5-2.31,3.19-2.28,8-5.52,11.28-1.59,1.63-.05,4.32,2,5.48,5.46,3.14,6.22,8.21,6,13.73a8.38,8.38,0,0,0,2.57,6.76,5.92,5.92,0,0,1,2,2.77c2,12,6.09,23.78,3.34,36.32-1.29,5.87-.17,12,.82,17.84,1.13,6.65.92,13.3.65,19.92-.46,11.33,3.67,21.08,9.18,30.51.42.71.84,1.41,1.23,2.14a5.69,5.69,0,0,1,.32,1c-.22.18-.48.53-.66.5-6.77-1.37-5.67-1-8,5.72-3.57,10.14,1.54,16.13,7.53,22.66,3.59,3.91,6.52,8.34,11.77,10.37,1.8.69,3.49,1.34,5.2.19s1-3,.85-4.57c-.74-6.34-3.37-11.83-6.37-17.48-2.46-4.65-6.44-8.63-7.09-14.41,4.81,4.62,10.15,8.8,14.27,14s9.15,9.57,12.54,15.39c1.57,2.67,3.79.6,5.26-1,4-4.39,6.58-9.9,10.87-14.2a34.56,34.56,0,0,1,10.82-7.64c8.2-3.58,9-5.78,6.11-14.23-1.88-5.47-5.31-10.29-6.11-16.25-1-7.21,3.2-12.27,6.49-17.74.65-1.07,1.81-.73,2.62,0a12.34,12.34,0,0,1,2.77,2.87c6.08,10.42,14.59,19.52,16.49,32.22.63,4.24,2.56,8.19,7.88,9.85,6.59,2.07,12.88,5.21,19.07,8.35,3.8,1.93,5.16,6.67,9.09,8.8,4.55,2.47,4.59,6.92,4,11.37-.48,3.69,2.41,6.75,2.23,10.12-.57,10.18,2.68,20.39-.55,30.58-1.4,4.42-3.14,5.45-7,2.8a7.83,7.83,0,0,1-2.56-2.28c-3.15-5-7.79-6.44-13.37-5.06-4.25,1.06-6.29-.45-6.56-4.86s-1.53-10.22-4.26-11.81c-5.24-3.07-5.37-8.51-8.6-12.16-4.65-5.26-17.22-1.19-19.09,6.38a31.9,31.9,0,0,0,6.33,28.62c8.81,11.07,20.14,19.71,29.59,30.12,5,5.5,7.12,13.08,9.43,20.08,2,6.05,3.55,12.66,3.33,19-.44,13-2.07,26.13-9,37.71-2.47,4.13-4,8.2-3.66,13.11.78,11-4.51,20.66-8,30.58-2.15,6.09-4.61,12-6.1,18.35-1.32,5.55-5,7.91-10.51,6.81-1.59-.32-2.55-.1-3.29,1.3-2.08,4-5.25,7.18-7.51,11.09-2.36,4.08-.67,5.43,2.62,6.46,7.28,2.28,8.2,3.06,7.64,10.37-.74,9.67,3.8,17.28,8.73,24.87,1.8,2.77,2.93.53,3.51-.59,3.62-7,9.87-11.89,14.54-18a14.86,14.86,0,0,1,4.59-3.67c5.29-3.18,8.52-7.64,9.3-13.9.81-6.49,4.14-10.87,10.62-13.13a24.81,24.81,0,0,0,10.23-6.93c1.07-1.18,2.54-2.45,4.37-1.7s1.57,2.9,1.59,4.4c.17,10.48-1.15,20.88-2,31.31-1.3,15.16-2.71,30.31-4,45.48-.29,3.3-.42,6.62-.67,9.93-.65,8.43.34,16.47,4.73,24a33.73,33.73,0,0,1,4.53,15.65c.07,1.73,1.11,3.21,2.32,3.45s1.56-1.76,2.23-2.82c2.59-4.08,1.82-9.11,3.76-13.35A84.36,84.36,0,0,1,898,551V758c-1.51,1-3.84-.36-4.91,1.72-1.93,3.73-5,6.53-7.62,9.71-3.6,4.39-3.14,7.41.71,11.8A25.12,25.12,0,0,0,898,789v18c-8.42-6.8-18.6-6.07-28.46-6.6-5.8-.31-11.1,1.68-16.19,4.18-3.09,1.52-3.67,3.58-.71,6.08a13.84,13.84,0,0,1,4.7,6.87c.85,3-.14,5.12-2.63,6.15-2.87,1.18-5.23,0-6.31-3.08-.61-1.71-1-3.48-1.56-5.21-.92-3-2.63-4.49-5.93-3.34-4.2,1.47-8.34,2.63-11.25,6.68-4.8,6.69-11.45,6.9-16.17,1-3.41-4.23-7.33-5.51-12.53-3.38-14.35,5.87-26.06,15.17-34.4,28.3-4.15,6.54-6.81,13.91-4.83,21.76,1.3,5.16,2.21,10.36,3.27,15.55H740c1.19-6-2.31-12-.19-17.76,2.19-5.89.45-10.7-3.16-14.65a179.34,179.34,0,0,1-17.8-23.84c-1-1.57-2.24-3.76-4.55-3.27-2.07.44-2.21,2.65-2.59,4.45-2.76,13.09-5.89,26.12-8.14,39.3-.88,5.14-2.5,10.38-1.57,15.77ZM243.59,360.52c-3.55,2.44-4.16,5.39-1.74,8.93,2.23,3.29,2.4,6.75,1.25,10.49-1.66,5.34-5.75,8.4-10.18,11.1a4.75,4.75,0,0,1-6.33-1.27c-1.63-2,.3-3.64,1.76-5,.72-.69,1.4-1.43,2.14-2.1,5.37-4.79,4.56-11.57-1.79-15-4-2.16-8.32-1.94-12.65-2.08-3.37-.1-4.3,1.3-4.21,4.45.14,5.28.66,10.61-2.36,15.54a4.86,4.86,0,0,0,.54,5.64c1,1.15,2.35,2.21,1,3.82-1.11,1.38-2.85,1-4.23.71-2.72-.55-5.18-2.19-8.17-1.71-3.58.57-6.07-1.39-8-4-4.22-5.71-7.23-12.14-10.54-18.37a17.83,17.83,0,0,1-2-7.15c-.3-5.42-2.5-10.32-3.62-15.5-.55-2.57-2-3-4.27-2.83-17.14,1.29-32.83,14.26-35.46,30.37-1.33,8.17,5.48,17.11,13.78,17.52,13.17.66,21.89,10.3,21.35,23.16-.18,4.42-3.26,4.88-6.08,4.9-3.25,0-4.22-2.08-3.59-5.52,1-5.64-2-11.56-6.26-13.56-7.88-3.71-16.41-1.77-22.06,5-1.62,1.95-2.35,3.86-.61,6.28,2.71,3.76,3,8.35,4,12.72.53,2.47-.72,3.82-2.85,4.52a4,4,0,0,1-5.36-2.26,25,25,0,0,1-1.25-4.27c-2.07-7.55-5.14-14.63-12.55-18.28-16.76-8.27-33.58-9.32-50.34.42-11.37,6.61-19.83,22.5-18.32,34.75a62.46,62.46,0,0,0,6.56,21.63c8.53,16.38,23.34,26.07,42.37,21.75a118.77,118.77,0,0,1,13.25-2.17c3-.34,7.14-.28,7.63,3,.57,3.75-3.87,4.39-6.52,4.33-5.82-.14-10.74,2.14-15.54,4.68-11.26,5.94-16.27,13.71-8.16,26a20.5,20.5,0,0,0,11.39,9c8.53,2.72,17.11,4.29,25.79.93,5.55-2.14,5.73-3.87,1-7.55a17.22,17.22,0,0,1-6.36-11.93c-.89-7.41,5.15-13.55,14.46-15.4,3.08-.61,6.81-.71,7.72,2.52.87,3.08-3,3-5.15,4.11-3.11,1.59-7.34,2.36-7.93,6.69-.65,4.65,2.24,7.7,5.62,10.42,6.46,5.21,14,5.57,21.75,5.07,2.35-.15,3-1.85,3.51-3.62,2-6.59,6.71-10.47,12.66-13.3,3.17-1.52,6.8-2.09,8.42,1.1,1.76,3.49-2.31,4.45-4.62,5.68-8.87,4.73-10,13.62-2.63,20.31a51.8,51.8,0,0,0,10.66,7.27c4.19,2.26,5.92,1.39,6.76-3.26a303.62,303.62,0,0,1,6.93-31c.61-2.11,1.17-5,4.23-4.78a5.55,5.55,0,0,1,5.19,4.12c2.79,11.22,7.49,21.95,8.91,33.5.39,3.11,1.57,3.7,4.22,2.8A35.87,35.87,0,0,0,230,536c4.74-4.49,7.92-10.52,2.24-16.61a12.54,12.54,0,0,1-2.59-5.36c-.52-2-1.19-4.63,1.55-5.58,2.22-.76,4.72-.68,6.21,1.76a34.77,34.77,0,0,1,2.31,4.4c2.06,4.8,5.68,7.43,10.73,8.73a138.11,138.11,0,0,0,18.08,3c8.93,1.07,17.2-.2,24.85-4.76,6.59-3.93,6.3-10.71-.17-14.75a54.6,54.6,0,0,1-8.17-6.48c-1.84-1.73-2.56-3.85-.12-6,2.16-1.89,4.07-2,6,.19a32.14,32.14,0,0,0,16.94,9.78c16.75,3.94,32,1.52,44.91-10.6q13.26-12.45,7.69-29.85a11.64,11.64,0,0,0-6.68-7.62c-2.35-1-6.28-.83-5.45-4.31.79-3.33,4.64-2.17,7.35-2.28a3.73,3.73,0,0,1,1,.17c9.67,2.19,18.79.22,27.45-4.05,12.65-6.23,20.65-20.1,9.37-33.37-5.31-6.23-10.95-11.75-20.27-10.06-2.1.39-4.19-.39-6.32-.94-5.12-1.32-11.14-2.73-15.6-1.79-8.59,1.81-17.19,5-22.43,14-4.65,8-13.39,9.75-22.23,9.62-2.11,0-4.22-1-4.31-3.38-.1-2.7,2.3-2.9,4.3-2.95a25.5,25.5,0,0,0,8.66-2.08,10.8,10.8,0,0,0,7.15-8.84c.48-4-1.91-7.21-4.46-10.13-.85-1-1.83-.92-2.48.09-3.34,5.16-7.52,2.53-11.53,1.27-1-.32-2.39-.6-1.86-2.29,1.91-6.18-2.29-2.93-4.15-2.51-2.45.56-3.81,4.2-5.57,4.22-5.4.05-10.29,2.73-15.66,2.36-2.13-.15-4.78.35-5.22-2.54-.49-3.13,2.09-3.9,4.47-4.18a40.45,40.45,0,0,0,13.27-4c3.43-1.68,6.53-3.61,7.62-7.37.86-3-3-2.84-4-4.87-1.51-3.1-3-6.38-6.88-7.41-2.91-.78-4.54-2.86-6.12-5.42-3.87-6.28-6.7-13.93-17.24-10.59-4,1.26-4.12,2.17-2.59,5,2.75,5,4,10.14,2,15.74-.56,1.55-.77,3.82-2.59,3.7-1.48-.09-2.68-2.1-3-3.7a25.92,25.92,0,0,1,.09-9.93c.35-1.75.84-3.46-.06-5.21C245.36,364.34,245.36,364.34,243.59,360.52ZM600.26,735.75c6.29,2.06,11.6.19,13.83-5.16s5.44-8.12,11.47-8.49c10-.6,17.32-7,24.42-13.25,3.78-3.34,7.61-5.8,12.92-4.4a11.8,11.8,0,0,0,8.78-.63c9.11-4.88,18.48-9,27.08-15.19,15.27-11,30.27-22.56,46.5-32.34,8.55-5.15,16.33-11.77,23.8-18.47,4.81-4.31,9.82-8.19,15-12.05,7.23-5.4,12.8-12.75,20.19-18.17,7.71-5.65,17.36-4,20.35,4.94,2.51,7.52,6.09,14.57,8.58,22.06a7.4,7.4,0,0,0,6.39,5.5c7.66,1,15,4.42,23.11.39,3.08-1.52,3.37-2,2.25-4.47-.55-1.2-1.42-2.24-2-3.41-4.63-8.76-10.77-16.7-12.5-27-2.21-13-4.11-26.21-8.42-38.79-2.6-7.58-4.13-15.68-10.62-21.54-2.85-2.57-6.05-4.53-9-6.9-6.5-5.25-14.81-5.74-21.33-.76a49.88,49.88,0,0,0-13.18,14.72c-4.63,8-8.45,16.48-14.88,23.41-3.27,3.52-7.28,6.21-10.09,10.22-4.73,6.75-11.3,11.56-18.06,16.13a24.74,24.74,0,0,0-5.74,4.69,63.2,63.2,0,0,1-17.89,15.33c-9.52,5.58-19.44,10.42-28.47,17-4.15,3-6.44,7.33-10.56,10.21-6.7,4.69-13.41,9.47-16.15,18.15-1.9,6-6,11.24-13.16,11.2s-10.78-5.21-13.35-11.14a4.66,4.66,0,0,0-4.6-3.14,70,70,0,0,0-8.45.44c-5.81.74-9.59-1.28-11.43-6.37-1.3-3.61.7-8.7,4.48-11.19,6.94-4.55,11.19-11.36,15.59-18.13,3.49-5.38,3.07-11.83,5.31-17.43,2.63-6.58,2.7-13.23,2.58-20a19.59,19.59,0,0,1,2.41-10.57c3-5,4.79-10.58,6.93-16,.57-1.45,1.11-2.95.47-4.33-2.34-5.09-4.27-10.51-7.45-15-4.94-7-11.08-13.11-16.42-19.89-6.38-8.12-15.66-13.67-21.95-22.09a2.54,2.54,0,0,0-3.49-1c-3.44,1.82-6.73,3.8-7.44,8.1-.52,3.18-1,6.38-1.59,10.68-1.42-3.82-2.57-6.69-3.55-9.62a14.65,14.65,0,0,0-6.33-8c-2.28-1.44-3.81-1-4.49,1.62-3.23,12.23-4.31,24.87-8.4,37-3.78,11.22-5.13,23.24-7.74,34.87-5,22.33-5.14,45.11-5.74,67.78-.33,12.15-1.84,24.31.55,36.6s2.91,24.64,9.31,35.85c2.41,4.23,5.09,5.47,9.26,4,6.08-2.18,12.07-4.58,18.08-6.94,3.74-1.46,7.1-1.08,10.14,1.69,2.79,2.55,3.09,5.52,2.3,9C606.79,730,603.34,732.66,600.26,735.75Zm-138.84-45.1c-1.12,5.86,1.93,10.89,3.41,16.28,3.93,14.38,9.32,28.08,20.15,38.74,4.47,4.4,8.56,9.63,15.19,11.33,12,3.08,22.4-1.67,32.68-6.57,3.43-1.64,6.3-2.63,9.69-.47,1.36.87,2.78,1.86,4.53.5,3.47-2.69,5.9-11.62,4.43-15.89A313.27,313.27,0,0,1,540.24,694c-.65-3.26-1.9-5.94-4.81-7.74-5.24-3.26-6.5-6.54-5.73-12.44,1-7.42,4.11-14.24,5.19-21.7,1.51-10.48,2.62-21,3.83-31.48.27-2.32.23-5.09-1.74-6.39-1.45-1-3.15,1.21-4.77,1.92-1.82.79-3.5,1.89-5.31,2.71-8.16,3.7-18.51-1.64-19.83-10.65-2.46-16.84,1.15-32.7,11.43-46.06,6.47-8.4,11-18.23,18.93-25.56,1.21-1.11,1.65-3.23,2.08-5,2.52-10.38,9.59-17.62,17.22-24.25a130.77,130.77,0,0,0,9.92-9c2.4-2.56,2.48-8.35-.09-10.84-2.83-2.76-4.91-.18-7.32,1.32-3.7,2.31-7.92,3.23-11.6.11-3.37-2.86-3.27-6.61-1.26-10.4a53.36,53.36,0,0,0,2.27-5c1.42-3.53,1.69-6.43-3.27-7.27a39,39,0,0,1-7.62-2.36c-3.91-1.54-6.86-.18-9.13,2.88a36,36,0,0,0-3.67,6.44c-5.67,12.25-7.6,25.76-12.83,38.11-3.76,8.85-3.65,18.94-9.17,27.16-1.75,2.61-3.78,5.19-4.82,8.1-4.1,11.54-7.47,23.35-11.88,34.76-2.73,7-4.6,14.58-9.23,20.79a10.75,10.75,0,0,0-2.18,6.93c.19,13-1.66,25.71-4,38.42-1,5.32-2.36,10.67-5.72,14.7-5.63,6.74-6.37,13.93-4.45,22A48.61,48.61,0,0,1,461.42,690.65ZM619,109a23.73,23.73,0,0,0-3.34,4c-3.55,6-7.54,12.47-15.59,12.07-10.45-.51-20.7-3.16-29.22-9.41-6.52-4.78-7.76-5.58-14.9-1.49-2.27,1.31-4,3.69-6.79,3.94-4.16.38-5.59,3.08-5.88,6.67-.31,4-1.3,7.8-1.42,11.81-.14,4.76,1.55,7.13,6.4,7.44,9.06.58,15.87,5.28,21.42,12.15,3.86,4.77,3.63,11.13-1.38,14.5-6.1,4.11-7.31,10.29-8.49,16.62-.94,5,1.2,8.33,6.26,9.65,2.82.74,4.93,2.54,7.07,4.48,3.46,3.15,5.29,7.35,7.53,11.22,2.16-.92,2.41-2.49,2.39-4.25,0-2.67.08-5.33,0-8-.12-3.3.94-6.15,4.06-7.33a7.37,7.37,0,0,1,8.22,2.08c6.15,6.31,8.93,13.72,6.22,22.27-1.36,4.3-4.43,7.82-9.43,8.6-4.29.67-8.2-.16-9.76-4.71-1.48-4.31-3.27-3.19-5.65-1-6.08,5.61-12.6,8-20,2.39-1.6-1.2-3.25-1.68-5.08-.56-2.47,1.52-2,4-1.92,6.28.09,2.08,1.21,3.05,3.32,3.66,3.66,1.06,7.58.85,11.1,2.58,9.43,4.63,18.17,10.25,25.58,17.75,5,5.07,4.18,11.39-1.57,15.73-4.55,3.42-9.7,3.95-15.06,4-1.46,0-3.48-.25-3.69,1.64-.29,2.61,1.45,4.64,3,6.59,1,1.19,2.21,1.79,3.4.54,4.85-5.12,11.11-3.63,16.94-3.52,5.07.09,7,4.33,4.66,8.92-.89,1.76-2.55,2.53-3.83,3.78-4.23,4.15-3.52,8.1,2,9.65,16.53,4.66,31.45,1.86,44-10.33,6-5.8,10.11-13,14.58-19.93,6.45-10,6.57-15.18-.53-24.79-5.53-7.48-5.3-13.69.52-18.47,3.08-2.53,6.61-1.71,10-1.7,3.16,0,5.3-1.61,6.85-4.17,1.31-2.15-.26-3.78-1.62-4.66-4.42-2.88-6-7.28-7.42-12-1.32-4.35-5.06-5.2-8.32-2-.95.92-1.65,2.08-2.54,3.07-4.21,4.64-6.93,4.88-12.14,1.52-3-1.91-3.82-4.8-4.72-7.88-.72-2.47-.61-5.59-4.18-7A19.19,19.19,0,0,1,621,205.52c-1.85,1.22-3.64,1.81-5-.36C611.33,198,605.23,192,600.05,185.4c-4.12-5.25-7.13-11.33-12.39-16.08-4.34-3.91-2.08-9.73,3.65-11.44,13.53-4,31.2,2.43,36,18.25a72.46,72.46,0,0,0,3,9c2-2.52,2-5.24,1.63-7.8-1.06-6.71-1.35-13.46-1.84-20.22-.38-5.29-1.22-10.55-4.13-15.26a22.93,22.93,0,0,1-3.08-9.42C622,124.66,619,117.33,619,109ZM577.67,439.46l5.48-.32c6-.32,11.13,1.91,15.59,5.54,5.51,4.48,4.63,10.78-1.73,14.65s-6.26,4.51,0,8.47a27,27,0,0,1,6.88,6.47c6,7.77,13.58,14,20.58,20.77,10.25,9.85,21.28,18.91,31.25,29.1,3.91,4,6.64,3.49,9.3-1.35a7.48,7.48,0,0,0-.35-8.38c-5.69-9-6.84-18.1,0-27.3,2.46-3.29,3.68-7.35,4.85-11.31,1-3.42-.2-6-3-8.26-16.51-13.43-33.86-24.88-54.86-30.81-13.47-3.8-26.7-8.76-40.38-11.84-7-1.58-14.29-3.69-21.62-1.29-4.91,1.61-7.32,5.65-8.52,10.26-.85,3.29.36,7,3.34,8.2,4.33,1.69,10,4.67,13.73,1.78C564.46,439.1,570.94,439.53,577.67,439.46ZM369.34,326.81c-1.68-.77-1.33-2.06-1.32-3.16,0-7.14.37-14.3-2.06-21.2-1-2.83.56-4.65,2.49-6.49,3.38-3.23,6.88-6.68,7.15-11.6a53.25,53.25,0,0,1,2.4-12.63c2.48-8.13-2.65-12.1-9.95-11C357.22,262.46,351,270.1,352,281c.47,5-.29,9.32-5.22,12.38-5.15,3.19-7.23,8.45-7.27,14.47,0,2.83-.45,5.66-.5,8.44-.19,10.21-1.3,20.44,2.54,30.48,1.14,3,2.89,5.46,4.06,8.31.57,1.4,1.22,3.37-.06,4.19-1.84,1.18-2.93-1-3.87-2.13-1.71-2-1.34-4.7-1.45-7.19-.17-4.12-3.16-6.37-6.4-7.41s-5.11,1.81-6.36,4.39a31.92,31.92,0,0,0-3.07,16.92c.43,4.69,3.92,7.77,8.54,8.33,5.05.6,9.06-.22,11.11-5.76.76-2.06,2-5.68,5.65-3.22,2.8,1.9,5.45,2.83,8.82,1.76a4,4,0,0,1,4.23.81c3,3.32,4.26,2.25,4.59-1.72a9.31,9.31,0,0,1,1.1-3.31c5.23-10.13,7.47-21.22,10.22-32.14a28.78,28.78,0,0,0,.56-6.89c0-1.3-.29-2.94-1.76-3.3-1.31-.33-2.64.61-3.43,1.63C372.33,322.2,370.87,324.56,369.34,326.81Zm251.74.2c3.06.51,5.51-1.05,8-2.34,8.06-4.22,15.77-9.27,24.18-12.59,8.74-3.45,16.71-8.74,26-10.9a11.28,11.28,0,0,0,4.24-2.54c3.19-2.66,3.47-5.82,1.13-9.21-.76-1.09-1.88-2-2.33-3.22-1-2.66-1.75-5.61.67-7.86s5.3-2,7.81-.15a24.94,24.94,0,0,1,4.51,4.61c4.77,6,8.94,7.47,16.17,5.32a45.24,45.24,0,0,1,11.66-2.2c4.22-.11,5.06-1.59,2.81-5.39-2-3.43-4.93-6.54-6.16-10.21-4.56-13.56-14.31-21.93-26.42-28.32-4.82-2.55-6.85-2-9.81,2.64-3.69,5.83-3.06,12.1-2.26,18.38.92,7.23-1.15,12.53-6.31,13-6.72.67-9.77,4.76-12.17,10.17a18.58,18.58,0,0,1-3.22,5.56c-13.38,13.77-27.27,26.75-48.11,27.51-1.22,0-2.4.26-2.76,1.64s.56,2.17,1.61,2.76A25.44,25.44,0,0,0,621.08,327Zm45.18,108.35c.47-2.11-1.22-3.72-1.38-5.71-1.09-13.92-9.72-21.93-22-25.77-16.68-5.21-33.2-11.24-50.67-13.67-5.4-.76-10.74-1.93-16.13-2.76-4.56-.7-10,3.09-10.91,7.59-1.11,5.49,3.54,6,6.85,7.47,2.56,1.12,5.34,1.71,8,2.7,18.58,7.07,37.62,12.94,55.5,21.78,8.73,4.31,17.42,8.72,26.92,11.24C665.22,439,666.6,438.55,666.26,435.36ZM215.89,358.93a44.06,44.06,0,0,1,13.32,1.39c1.84.48,3.77.49,5-1.29,2.12-3.15,5.18-5.13,8.37-6.88,2.45-1.35,3.11-3.1,2.59-5.74-1.6-8.05-5.19-14.88-11.61-20.17-1.77-1.46-3.9-3.07-3.51-5.7,1.28-8.69-2.65-16.2-5.26-24-1-3.11-1.05-7-3.82-9-4.71-3.49-5.14-8.44-6-13.51-.86-5.32-.8-10.94-4.65-15.46-.81-1-1.47-1.8-2.66-1.84-1.77-.07-2.23,1.8-2.39,2.74a55.73,55.73,0,0,0-1,15.32c1.24,12.48,2.3,25,3.37,37.47.47,5.45.67,10.91,1.23,16.34.11,1-.4,3.15,1.63,3a3.72,3.72,0,0,0,3.27-2.73,16.44,16.44,0,0,0,.43-3.44c.15-2.07.45-4.41,2.86-4.59,2.26-.18,1.67,2.3,2.17,3.72a9.21,9.21,0,0,0,.88,2.3C227.86,338.45,223.3,348.53,215.89,358.93ZM710.68,738.4c11-.56,19.12-6.61,27.16-12.89a8.92,8.92,0,0,0,3.78-7.19c.1-5.34-.61-10.62-3.44-15.28-2.67-4.39-12.9-6.67-17.17-3.91-5.14,3.33-9.88,7.58-15.64,9.56-9.19,3.14-15.59,10.52-24.08,14.62-1.29.62-2.46,1.64-2.08,3.54.8,4,5.41,8,9.69,8.07a33.78,33.78,0,0,1,7.36.85C701.1,736.85,706,737.57,710.68,738.4ZM465.3,579.66a100,100,0,0,0,11.49-34.39c2.45-17,9.74-32.16,15.78-47.8,2.54-6.59,6.46-12.65,9.89-18.87a37.46,37.46,0,0,0,4.34-13.12c.27-2,.34-4.18-1.75-5.35a5.64,5.64,0,0,0-6.52.73,17.68,17.68,0,0,0-2.75,2.85c-5.63,6.93-9.72,15-15.18,21.93-6.65,8.5-8.47,17.9-7.4,28,.94,8.89.6,17.55-2.29,25.94C466.42,552.59,466.59,566.19,465.3,579.66ZM567.44,322c1.62-.48,4.45,1.15,5-1.45.47-2.12-1.49-3.82-3.41-5.05a71.43,71.43,0,0,1-11.86-9c-7-6.92-15.79-11.47-24-16.68-3.18-2-6.28-1-8.39,2.51a71.71,71.71,0,0,0-10.6,33.76c-.13,2.59.55,5,3.61,4.87,8.75-.38,17.24-1.64,23.11-9.34,5.61-7.36,9-8,16.66-2.86A16.25,16.25,0,0,0,567.44,322Zm-3.28,46.18a13.31,13.31,0,0,0,13.08-5.81c2.83-4.17,6-7.29,10.64-9.28,2.92-1.27,4.94-4.07,4.13-7.17-.77-2.92-4-3.22-6.72-2.95q-9.39.93-18.75,2.07c-3.82.45-6.2,2.62-7.57,6.25a13.76,13.76,0,0,1-11.48,9.06c-4.78.71-7.71-2.57-9.87-6.26a6.87,6.87,0,0,0-7.31-3.78c-4.62.41-9.27.46-13.89.88s-6.87,3.78-6.42,9.38c.35,4.19,2.88,6.23,7.63,5.61a39.75,39.75,0,0,1,9.42-.47C539.4,367.06,551.94,365.29,564.16,368.19ZM796,800c4.66-2.86,11.82-5,18.46-8.22,1.76-.86,1.61-3,1.09-4.93-2.52-9.43-6.21-18.44-9.66-27.54-1.21-3.21-3.1-5.48-6.38-6.42-4.11-1.16-6.92,1.39-5.61,5.4,1.58,4.85.48,9.1-1.82,13.27-1.52,2.75-3.28,5.38-4.67,8.19-.77,1.56-1.47,1.55-2.59.61s-1.93-1.86-3-2.61c-1.75-1.2-3.62-2.81-5.77-.87-1.95,1.75-1.39,4-.52,6s2.51,3.89,4.73,4c5.33.32,7.21,3.37,7.93,8.17C788.66,798.06,789.88,801,796,800ZM277.31,313.1c-.32-7.45-1-15.07-5.24-21.42-2.1-3.11-5.42-5-5.43-9.63,0-3.18-1.16-7.56-5.58-7.72s-4.5,4.09-5.44,7.19a8.68,8.68,0,0,0-.3,1c-1.06,7.49-1.71,15.12,3.18,21.49,1.9,2.48,2.36,4.78,2.81,7.58,1.28,8,0,16.24,1.73,24.23.49,2.32,2.48,6,3.52,4.89,2.38-2.64,6.16-1.25,8-3.88,3-4.43,5.82-8.87,3.76-14.78A16.58,16.58,0,0,1,277.31,313.1ZM729,343.67c.71,3.55-2.59,7.06-7.19,9.72-3.2,1.85-4.56,4.34-1.83,7.19,2.47,2.58,5.33,4.94,9.2,5.59,5,.84,5.88.17,6.07-4.87.21-5.81-.67-11.62.43-17.42.85-4.5,2.7-7.21,7.9-7,4,.2,5.69-2.33,4.67-6.2-1.27-4.81-2.58-9.61-4.22-14.29-2.33-6.62-4.86-11.18-14.53-10.5-6.64.46-9.25,4-7.09,10.44C725.12,324.51,728.24,332.57,729,343.67Zm-33.07,38.21c.17-4.47-.29-7.75-3.37-9.91-5.49-3.85-11.69-6.31-17.87-8.76-1.59-.63-3.85-.95-4,2-.23,5.39-3.2,8.87-7.75,11.3-2,1.07-3.19,2.61-1.75,4.85,2.4,3.73,4.38,7.55,7.95,10.67,5.28,4.63,11.51,7,17.62,9.85,4.31,2,5.9,1.21,7.34-3.28C696,392.82,694.06,386.64,695.91,381.88ZM847.52,769.16A29.32,29.32,0,0,0,833,759.34c-4.08-1.08-6.64,1.3-5.47,5.26,1.31,4.44,2.38,9,4.78,13,1.86,3.13,3.92,6.82,8,6.64,3.78-.16,5-3.91,6.21-7a7,7,0,0,1,1-1.39c2.25,2.38,4.07,5,7.68,5.21,7.26.48,14.49-1.19,21.76-.09,2.37.37,3.44-1.59,4.56-3.25,1.54-2.27-.88-2.75-1.76-3.91-2.65-3.53-6.26-5.67-10.14-7.74-3.46-1.84-6.31-2.69-9.5.06-.89.77-2.09,1.44-3.17.54C852.59,763.06,850.09,766.19,847.52,769.16ZM690,802c-.38,4.71,1.45,9.25,2.66,13.89.44,1.73.75,4.18,2.84,4.26,2.43.09,2.22-2.89,3.37-4.38.34-.44,0-1.33.21-2,3.66-11.11,1.08-23,4.22-34.18a62.71,62.71,0,0,0,1.63-7.28c1-6.38-1.52-9.4-8.06-9.51a43.82,43.82,0,0,1-8.38-.81c-3-.63-4.91.36-4.49,3.91.51,4.42.66,8.91,2.07,13.15A71.8,71.8,0,0,1,690,802ZM512.58,248.62a11.4,11.4,0,0,0,5.54,8.37q9.32,5.65,18.77,11.06c1.43.81,3.05,2.93,4.78,1.21,1.45-1.44.46-3.51-.41-5.12-3.26-6-3.82-12.47-4.41-19.13-.69-7.78-2.77-15.24-10.34-19.77-2.45-1.47-3.72-1.49-4.92,1.24-3,6.82-5,14-8.6,20.59A6.7,6.7,0,0,0,512.58,248.62ZM735.86,401.27c.53-2.48.22-4.8-1.69-5.69-5.43-2.52-9.82-6.76-15.45-9-3.18-1.25-5-.88-6,2.57-1.24,4.12-2.88,8.12-4.12,12.24s-.71,8,2.62,11a37.31,37.31,0,0,0,13.06,7.91c3.14,1,4.62,0,6.18-2.21A28.16,28.16,0,0,0,735.86,401.27Zm-102.52-19c1.65-.23,4,.76,5-.92,1.27-2-.36-4-1.32-5.95-2.58-5.31-6.83-9.33-10.42-13.83s-12.7-7.1-16.23-4.48a145.28,145.28,0,0,0-12.66,11.17c-1.81,1.69-1,3.52.88,4.45A95,95,0,0,0,633.34,382.29Zm64.88-41.9c-.72-4.29-.4-9.59-3.19-14.16-1.08-1.78-2.19-3.69-5-3.05-8.49,1.93-17,3.63-25.51,5.61-2.2.51-5.34,2-2.77,4.55,4.75,4.76,9.68,9.59,16.64,11.29,3.68.9,7.37,1.88,11,3.11C696.21,350.11,698.2,348.7,698.22,340.39ZM442.5,212.86a31.65,31.65,0,0,0-14.6,3.56c-2.67,1.38-5,3.71-4.07,7.18s3.64,3.67,6.7,2.62c.89-.31,2,.1,3-.06,6.74-1.11,13,2.62,19.67,1.93,1.57-.16,3.63.72,4.52-1.06s0-3.7-1.1-5.54c-1.67-2.88-4.87-3.34-7.09-5.24-1.14-1-3.64-1.7-1.82-4.11,4-5.27,3.1-8.26-3.37-10.13-3.44-1-5.77-2.09-5-6.4a2.94,2.94,0,0,0-3.11-3.63c-3.14.14-2.82,2.59-2.24,4.37,1.11,3.39-.53,4.8-3.2,6.13-1.42.71-4.05.48-3.58,3.27.37,2.24,2.16,3.15,4,4.09C434.68,211.68,438.49,212.29,442.5,212.86Zm65.82,187.63h.06c0,1.83-.12,3.67,0,5.48.25,3.21,1.42,3.85,4.35,1.92,5-3.3,9.31-7.4,13.8-11.29a65.66,65.66,0,0,0,4.92-5c1.24-1.33,2.94-3,2.18-4.7s-3.17-2-5.15-2a48.33,48.33,0,0,0-10.38.77c-7.39,1.52-9.48,3.74-9.79,11.28C508.28,398.17,508.32,399.33,508.32,400.49Zm-158.25-9.32c-.43-.71-.82-1.44-1.3-2.12-4.61-6.61-11.6-9.54-19-10.72-4.68-.75-6,4.3-8.1,7.66s1.34,3.58,2.48,4.79c2,2.17,4.37,4,5.51,6.91.62,1.58,1.6,2.73,3.84,1.58a84,84,0,0,1,15.09-6.42C349.28,392.65,350.18,392.28,350.07,391.17ZM812,311.11a1.89,1.89,0,0,0-2.14.85c-.87,1.48.22,2.34.88,3.51,4,7,8.35,13.75,10.61,21.53,1,3.63.66,7.62,2.39,11.1.6,1.22-.21,3.69,1.82,3.51,1.74-.15,2.2-2.34,2.32-4,.43-5.91,2.89-11.35,1.79-17.79C828.18,321.16,820.6,311.79,812,311.11ZM474,401c0,3.18-.65,6.85,2.81,8.44,3,1.39,6.24.18,8.65-2.11A16,16,0,0,0,490.3,394c-.48-5.67-4.42-7.64-9.81-5.61C474.4,390.63,474.16,395.81,474,401ZM803.32,224.43c-3.54.36-6.47,2.5-9.78,3.48-4.06,1.2-7.93,2.22-5.53,8,.68,1.63-.34,3.25-1.44,4.56-1.32,1.57-.45,2.79.62,3.91,1.36,1.42,2.77,1,3.81-.35,3.94-5.34,10-8,14.92-12.19,1.43-1.24,3.2-2.12,2.15-4.34A4.66,4.66,0,0,0,803.32,224.43ZM486.55,354.1a14.18,14.18,0,0,1-2.66,6.35,34.81,34.81,0,0,0-3.14,5.05c-1.73,3.72-.89,4.8,3.2,4.45,6.15-.53,9.68-5.16,8.83-11.35-.61-4.39-2-8.81-.19-13.25.77-1.88.79-3.66-1-4.87-2-1.34-3.6-.25-5.27,1.12-3,2.51-3.47,5.37-1.36,8.51C485.78,351.38,486.75,352.45,486.55,354.1ZM705.24,436c-1.5-.19-2.56.86-3.06,2.38-1.58,4.82-1.9,9.94-3.82,14.74-.8,2,.83,4.13,2.84,5.34,1.29.77,2.32,0,3-1a137.17,137.17,0,0,0,7.69-11.56C713.93,442.21,709.76,436,705.24,436Zm37.66,341c2.17-.66,5.56-1.45,6.87-4,1.43-2.79-.84-5.67-2.58-8-1.63-2.21-3.84-3.75-6.84-2.87-1.85.55-3.05,2.23-2.32,3.8,1.62,3.54-1.25,8.08,2.63,10.95C741,777.15,741.63,777,742.9,777.05Zm68.88-142.17a1.93,1.93,0,0,0-1.36-2.34,3.68,3.68,0,0,0-4.11.9c-3.67,3.62-7.32,7.27-11,10.89-.88.87-1.76,1.9-.78,3a2.72,2.72,0,0,0,3.2.81q6.36-3.78,12.54-7.83C811.81,639.29,812.1,637.59,811.78,634.88ZM773.34,496.52a13.07,13.07,0,0,0-2.41,1.16c-4.29,3.17-5.21,8.29-6.79,12.83-.83,2.41,2,2.36,3.36,1.63a26.57,26.57,0,0,0,9.87-8.65C779.12,500.87,776.53,496.42,773.34,496.52ZM842.08,721.1a6.64,6.64,0,0,0-.41-2.42c-2.86-4.46-7.64-6.67-11.8-9.54-1.25-.86-2.7.08-3.58,1.65-.68,1.22-.87,2,.26,3,3.88,3.32,7.36,7.14,11.92,9.6C840.87,724.68,842.3,724.16,842.08,721.1ZM256.31,235.94c1.6,2.81-.33,7.35,4.09,8.7,2.17.66,6.69-3.41,6.72-5.61s-4.85-7.85-6.89-7.68C257.56,231.56,257.08,233.83,256.31,235.94ZM741.12,799.38c.82,2.77.81,7.41,4.48,8.91,1.67.68,4.12-2.94,4-5.87-.12-3.21.16-6.94-4.72-7.07C742.71,795.29,740.87,795.71,741.12,799.38ZM283.54,324.26a33,33,0,0,0-.79,15.9,3.47,3.47,0,0,0,3.94,3c2.42-.34,2.66-2.42,2.22-4.22A55.76,55.76,0,0,0,283.54,324.26Zm13.89-30.86c.66,6.85,2.32,13.52,2.81,20.36.1,1.31,1.38,1.86,2.58,1.9s1.19-1,1.23-1.77A29.9,29.9,0,0,0,297.43,293.4Zm390.12-106c.72-6.95-6.61-12.89-14.6-11.92C678.07,179.59,683.39,182.42,687.55,187.42ZM808.61,339.87c1.84-5.37-1.32-8.21-3.63-11.23a2.7,2.7,0,0,0-3.26-.54c-1.49.84-1,2.41-.53,3.58C802.49,335.08,805.48,337,808.61,339.87Zm-350.86-28c-2.69.5-5,2.79-5.32,5-.28,1.81,3.15,2.9,5.2,3s3.64-1.45,3.64-3.89C461.27,313.81,460.61,312.1,457.75,311.9ZM642,95.34c-.76-1.48-1-3.78-3.7-3.46-1,.12-2.67.53-2.4,1.84.49,2.3,2.88,3,4.71,3.75C642,98.07,641.85,96.53,642,95.34Zm.53,256c-1.34.27-1.6,1-1.47,2.21.21,1.93,1.49,2.52,3.09,2.55,1,0,2.33-.45,1.87-1.66A4.72,4.72,0,0,0,642.5,351.35Z" transform="translate(-0.92 -1.51)"/><path d="M1,2A39.88,39.88,0,0,0,7,2C24.32-.74,35.59,9,45.76,20.85c5.08,5.89,7.54,7,14.65,4.25,4.77-1.84,9.17-4,13.08,1.7,1.05,1.53,3.58,2.32,5.9,2.24s5-.71,6.13-2.72C86.81,24.1,84.15,23,83,21.48c-.83-1-1.7-2-2.47-3.11-1.55-2.15-2.6-4.56-.3-6.67,2-1.79,6.89-.23,8.14,2.52.94,2.06,1.86,4.15,1.66,6.64-.37,4.86,2.08,7.07,7.09,6.06A23.78,23.78,0,0,1,106,27c3.21.53,6,1,5.89,5.16,0,2,1.39,2.06,2.77,1.84,2-.32,3-1.42,3.26-3.68.51-5.51-2.62-10.54-1.91-16,.16-1.21-1.4-3.62,1.38-3.05,2.22.46,6-.88,6.32,2.76A19.71,19.71,0,0,0,125.6,21c1.08,2.23,3.34,2.38,5.65,2.08,1.58-.2,3.17-.5,3.59-2.15.52-2.08-1-3.46-2.47-4.53a5.08,5.08,0,0,1-2.34-5.1c.37-2.88,1.79-4,4.33-2.18,7.55,5.54,15.53,2.76,22.49-.2,4.59-1.95,9.24-.29,13.54-2.5,1.21-.62,4.26,1.2,3.87,3.51s-3,1.43-4.23.88c-4.57-2-6.86.91-9,3.92s-4.23,5.58-8.46,4.9a2.13,2.13,0,0,0-2.64,1.74c-.25,1.94,1.68,2.16,2.7,2.22,6.74.4,13.27-.88,18.82-4.73,5.79-4,9.47-3.64,12.4,2.59,2.6,5.53,6.7,8.71,12.52,10.38,3.12.9,5.93,2.92,8.84,4.5a2.82,2.82,0,0,1,1.65,2.85c-.37,3.59.42,6.61,5.53,8.22-8,3.77-13.63,9.36-22.3,6.91-5.42-1.54-9.17,1.41-10.17,6.93-.6,3.3-2.65,4.83-5.95,4.67A16.29,16.29,0,0,0,164,68.79a3.71,3.71,0,0,0-2,3.27c.07,1.79,1.74,1.63,2.89,2.16,4.12,1.91,8.45.57,12.58,1,8.3.87,16.58.75,24.86.78,6.58,0,13.23.71,19.77-.83,3.55-.83,6.86.61,10.27,1.12,2.61.39,5.22,1.35,7.81,1.31,8.62-.16,7.34,1.19,8.41,7.83a69.8,69.8,0,0,1,1,16.36,38.63,38.63,0,0,0,1,10.91c1.31,6.2-1.79,11.42-7.48,14.16-12.4,6-25.77,7.87-39.18,8.41-22.78.91-45.54.35-67.48-7.24a77.62,77.62,0,0,1-14.78-7c-2.69-1.61-3.2-4.5-3.21-7.44,0-5.16.25-10.34-.77-15.43-.5-2.54-.73-5.09-3-7.11-4.28-3.78-4.15-3.94-7.18,1.07-.08.14-.08.41-.19.45-5.17,2.3-5.85,5.48-2.53,10.1,1,1.47-.69,3-2.2,3.94-3.55,2.13-5.68,5.28-7.49,9-3.17,6.52-6.39,7.56-13.28,5.36a11.64,11.64,0,0,0-3.91-.59c-4.58.21-8.63-.25-12.25-3.88a7.14,7.14,0,0,0-9.65-.69,7,7,0,0,0-3,5.5c-.08,2.62,2.46,2.24,4,2.86,6.19,2.52,12.43,4.61,19.33,3.92,4.83-.48,7.07,2.72,7.45,6.92.64,6.89-1.05,13.77,0,20.74.42,2.93-2,5-4.62,6.55a25.6,25.6,0,0,0-10.34,10.54c-1.09,2.16-2.35,2.52-4.72,2.28-6.41-.65-9,1.4-10.53,7.66-1,4.31-2.65,8.1-7,10.21-1.21.59-2.06,2.12-2.83,3.37-3,4.86-8,5.55-13,6.2-2.26.3-2.72-1.52-3-3.62-.49-3.67-.47-7.65-4.27-10.06-3.36-2.13-5.56-1.44-6.67,2.39-.28,1-.84,2.05-.61,2.9,2.24,8.43.58,17.24,2.71,25.69,2.07,8.21,2.17,16.82,2.58,25.11.51,10.52,2.3,20.95,1.66,31.69-.67,11.19.27,22.6.39,33.91.12,11.14-1.57,22.23-.23,33.41.51,4.3.59,8.61,2,12.76a13.75,13.75,0,0,1,.91,4.35c-.07,8.87,3.39,16.09,9.05,22.86,3.42,4.11,1.9,6.6-3.7,7.67-3.55.68-5.08,3.34-7,5.86-2.53,3.35-.56,5.37,1.75,7.61a5.11,5.11,0,0,1,1.45,4.11c-.63,6.79.52,13.53.38,20.36-.33,15.52-1.38,31.16,1.69,46.64,2.3,11.64,1.83,23-3.82,34-4.87,9.42-3.81,19.34-1.11,29.21A46.47,46.47,0,0,1,26.86,548c.25,3.37.34,6.63-1.64,10-2.8,4.76-2.31,10.36-1.09,15.6,1.56,6.73,1.16,13.6,1.48,20.34.64,13.42,3.44,26.56,3.88,40,.6,18.38,2.25,36.72,3.31,55.08a151.72,151.72,0,0,1,0,15.38c-.2,4.94,1.67,9,4.45,12.86,4.2,5.85,3.33,7.91-3.57,9.4a5.65,5.65,0,0,0-4,8.26c4.39,8.43,1.54,17.12,2.55,25.49,1.25,10.25-3,20.1-.33,30.13.77,2.92-2,5.32-1.78,8.15.84,9,1,18.07,3.61,26.81a17,17,0,0,1,.35,8.41,31,31,0,0,0,.8,16.28C38.65,860.79,39.3,872.47,46,882c-13.83,0-27.67-.11-41.5.09-3,0-3.59-.61-3.58-3.59.12-39,.08-78,.08-117V558c3.37,2.71,7,3,10.64.77,7-4.32,9.36-12.18,7.71-20.38-.6-2.94-2.37-3.8-5.21-4.3C9.77,533.33,5.19,535.36,1,533ZM17,763c0-.5.09-1,.11-1.49,0-1.3,1.67-3.1-.8-3.64-1.95-.43-2.4,1.41-3,2.73a8.08,8.08,0,0,0-.6,2.38c-1.6,14-3.22,27.95-2.91,42.12.12,5.48-1.15,11.52-5.51,15.56-3.47,3.2-1.47,4,1.3,4.85a5.6,5.6,0,0,0,6.24-1.92c1.84-2,4-3.32,7.08-2.48,2.47.67,4.66-.07,5.6-2.78s0-4.85-2.34-5.89c-4-1.8-5.18-5.19-5.11-8.89C17.31,790,14.17,776.47,17,763ZM56.13,71.91c2.31-.37,6.87-.26,4.51-3.8-2.67-4-4.52-8.37-7-12.42-2.13-3.52-8.54-3.55-12.46-.28-3.54,3-1.5,5.92.41,8.73C45.06,69.19,50.13,71.27,56.13,71.91Zm40.59,6.44c-6,0-6,0-5.92,6,0,1.48-.83,2.43-1.39,3.61a4.09,4.09,0,0,0,2.17,5.83c2.34.78,4-1.5,4.2-3.76a10.44,10.44,0,0,1,3-6.61C100,82.15,102,80.8,101.19,79,100.45,77.5,98.13,78.68,96.72,78.35ZM77.6,67.57c.38,1.78.32,4.15,2.69,4.16s3.54-1.81,3.4-4c-.12-1.83-.78-3.48-3.21-3.65C77.61,63.85,78,66,77.6,67.57Zm3.16,10c0-1.17.09-2.51-1.67-2.33-2.19.24-2.23,2.16-2.48,3.71-.15.91,0,2.32,1.35,2C79.62,80.65,81,79.61,80.76,77.55Z" transform="translate(-0.92 -1.51)"/><path d="M898,398c-5.43-.53-6.74,3.84-8.66,7.39-1.18,2.18-2,4.58-3.14,6.77-.78,1.45-1.91,2.95-3.84,2.76-6.92-.69-10.68,4-13,9-5.13,11.17-14,19.21-21.9,28a8.13,8.13,0,0,1-1.8,1.72c-1.95,1.15-3.94,3.26-6.28,2s-.72-3.67-.56-5.51c.68-8.18,3.42-16,6.44-23.38,5.75-14.13,7.46-29.09,11.11-43.64,3.93-15.63,4.2-31.92,9-47.29,1.73-5.54,3.55-11.25,3.87-16.77.48-8.33,2.78-16.21,3.8-24.37,1.33-10.66,3.6-21.23,4.34-31.92.73-10.37,6.77-19,8.06-29.09a154.55,154.55,0,0,1,3.1-16.11c.86-3.57,2.22-5.73,5.58-6.6,1.79-.47,2.56-2,3.86-3Z" transform="translate(-0.92 -1.51)"/><path d="M898,161c-3.31-1.54-6.84-1.05-10.31-1.05-6.83,0-13.44-.93-19.67-4-5.56-2.7-11.25-5-17.64-4.61-.91.05-2.37-.24-2.71-.86-3.46-6.29-8-12.29-6-20.23a20.05,20.05,0,0,0,.33-4.46c.14-8-.21-15.91.86-23.87.47-3.48,2.14-5.28,5-5.85,6.79-1.34,13.84-1.58,19.44-6.62,1.58-1.43,7.74,3.29,9,6.63,1.77,4.62.74,9.53,1.49,14.3a91.8,91.8,0,0,1,1.32,15.34c0,3.67.39,8,5.29,8.93,6.43,1.2,9.64-.6,12-6.11.51-1.21,1.09-2.39,1.63-3.58Z" transform="translate(-0.92 -1.51)"/><path d="M898,521a11.54,11.54,0,0,0-1.73.74c-1.36.85-1.52,4-4,2.5a6.63,6.63,0,0,1-3.24-5.73c-.43-8.65,1.36-17.1,2.14-25.65.85-9.36,2.42-18.62,3-28,.73-11,1.46-22,3.84-32.83Z" transform="translate(-0.92 -1.51)"/><path d="M832,882a2.39,2.39,0,0,1,2.15-1c7.57-.31,15.14-.68,22.71-.91,13.71-.42,27.43-.76,41.14-1.13.5,2.5-.5,3.08-3,3.07C874,882,853,882,832,882Z" transform="translate(-0.92 -1.51)"/><path d="M898,95c-6.61-2.65-9.83-11.78-6.14-17.73,1.35-2.17,3.15-4,6.14-3.27Z" transform="translate(-0.92 -1.51)"/><path d="M898,199c-1.83-1.86-3.64-3.72-5.48-5.57-3-3-2.4-5.76.65-8.32,1.62-1.36,3.22-2.74,4.83-4.11Z" transform="translate(-0.92 -1.51)"/><path d="M898,36c-2.35-1.89-2.91-4.83-3.72-7.39-.94-3-.43-6.05,3.72-6.61Z" transform="translate(-0.92 -1.51)"/><path d="M384,605.75c0,1.73-.05,3,0,4.32.68,16.3-.79,32.57-1.14,48.85-.25,11.18-.78,22.5-3.8,33.49-1,3.78-3,7-4.69,10.4a3.94,3.94,0,0,1-5.19,1.83c-2.69-1-5.63-.21-8.28-1.5a2.2,2.2,0,0,0-2.91,1.3c-.31.81.65,1.41,1.41,1.79,9.9,5,9.68,11.49,3.43,20.52-9.56,13.83-20.18,26.75-34.22,36.39-2.59,1.78-2.9,4.19-2.43,7,2.71,16.23,4.6,32.54,3.9,49-.48,11.36-14.83,22.14-27.79,14.92-8.43-4.69-11.85-13.61-9.53-23.26,1.32-5.45,2.22-11,3.37-16.48.21-1,.83-1.85-.59-2.4a2.27,2.27,0,0,0-2.64.78c-8.28,7.83-18,13.51-27.87,19.06-4.31,2.42-8.1,3.48-12.52.87-2.39-1.41-3.87-.84-3.63,2.17.25,3.26-1.67,4.71-4.3,5.88-6.77,3-14,3.8-21.24,4.45-10.4.94-20.89,2.1-31.27,1.63a58.47,58.47,0,0,1-34.32-13c-7.44-5.93-14.75-11.9-20.44-19.61-.76-1-1.27-2.68-3-1.85-1.35.66-1.45,2.06-1.25,3.48a15.51,15.51,0,0,1-2.88,11.68c-5.35,7.26-18.25,4.9-23.48-3.87S103.26,786,104.48,777a52.93,52.93,0,0,1,2.31-11.14c2.15-5.9.83-11-3-16.16a135.39,135.39,0,0,1-14-23.42,47.58,47.58,0,0,1-4.06-25.55c.39-3.77,3-5.24,5.52-7.14.86-.65,2.24-1.31,1.88-2.63s-1.88-1.28-3-1.19c-4.39.36-4.6-2.23-5.37-5.8-3.81-17.53-2.12-35.4-3.51-53.06-.52-6.6-.51-13.45-.46-20.19a20,20,0,0,1,.67-4.4c1.41-5.86,5.56-7.26,9.66-3s8,8.81,11.81,13.44c4.48,5.5,5.06,5.26,8.75-.62,10.26-16.34,17.47-34.29,27.15-50.91,3.46-5.93,8.81-6.09,12.31-.24,12.51,20.9,26.55,40.92,36.73,63.18,1.4,3.08,2.83,2.2,4.34.5a17.12,17.12,0,0,0,1.82-3.54c3.23-6.18,6.1-6.69,11.11-2,.9.83,1.49,2.7,3.11,1.8s.25-2.36.15-3.58c-.29-3.47-.26-7-.87-10.41-1.19-6.63,2.55-11.64,5.66-16.54,3.55-5.62,6.6-11.5,10-17.18,4.49-7.51,9.12-7.82,14.71-1.08,5.39,6.49,10.83,13,16.25,19.43,2.9,3.47,4.11,3.37,5.47-.88,2.31-7.26,4.38-14.6,6.47-21.92.62-2.16,1.26-4.57,3.89-4.35,2.32.2,1.81,2.74,2.31,4.42,3.17,10.53,3.55,21.55,5.72,32.25.49,2.39.58,6.07,2.9,6.3s2.91-3.53,3.86-5.68c7.51-16.78,14-34,22.23-50.48,1.52-3,2.95-6.27,7.07-5.86,3.46.34,5.41,2.91,6.83,5.85,6.49,13.43,12.73,27,17.59,41.09,1.2,3.5,1.88,8.61,5.64,9.23,3,.5,4.28-4.49,6.15-7.12q12.69-17.8,25.07-35.83c1.78-2.57,3.44-4.92,7-4.53s2.61,3.66,3.8,5.58c2.73,4.41,5.69,8.64,5.77,14.07.12,8.75,1.68,17.51-.26,26.27-.49,2.21-1.13,4.57-3.06,5.3C386.52,610,386.47,606.67,384,605.75ZM342.76,707.08c-3.42,7.08-1.93,14.42-3.08,21.42-.4,2.44-1.23,5-3.93,5.1-2.89.16-4.84-1.82-5.6-4.69-.94-3.52-1.77-7.06-1-10.74a42.48,42.48,0,0,0-.74-21.18c-.95-3.19-3-7,1.85-8.92,3.54-1.36,5.54-5.15,9-6,4.61-1.16,10.44,4.2,10.38,9.06-.05,4.2,1.52,6,5.73,4.85a15.19,15.19,0,0,1,7.91-.16c3.82,1.07,4.7-.78,5.88-3.92,4.95-13.18,4-27.12,4.5-40.6q1.26-34,1.89-68.1c0-.6-.15-1.66-.42-1.72a3.15,3.15,0,0,0-2.32.2A9.06,9.06,0,0,0,371,584q-21.13,30.76-42.27,61.53c-4.33,6.29-8.57,12.65-13.19,18.72-4.45,5.86-8.78,6.09-13.57.61-5.34-6.1-11.24-11.73-15.69-18.59-.88-1.35-2-3.28-3.73-2.86-2.3.56-1.1,2.88-1,4.31.46,6.39-.85,12.59-1.81,18.81-.76,5-6,9.34-10.76,9.52-8.54.3-16.86-4.7-18.84-11.43s-1.92-13.91-.89-20.76c1.42-9.47,3.82-18.79,5.84-28.17a8.68,8.68,0,0,0-2-8.3c-4.79-5.29-9.34-10.79-14-16.15-7.1-8.11-7.27-8.19-13.23.9-4.44,6.79-9.24,13.56-8.1,22.45.54,4.28.89,8.58,1.3,12.88,1,10.62.33,20.88-6,30.1-1.78,2.61-3.93,3-6.44,2-2.66-1.08-2.82-3.54-2.2-5.94a38.88,38.88,0,0,1,1.82-4.1,33.7,33.7,0,0,0,2-5.62c.89-4.48-2.37-7.09-5.51-8.5-3-1.33-3.85,2.5-5,4.43-2.42,3.94-3.88,8.57-6.74,12.12s-2.68,7.2-2.81,11.14c-.32,9.29-.52,18.6-1.31,27.86-1.21,14-3.28,27.93-8.86,41.09-1.76,4.16.28,7,4.7,7,5.7-.11,11.17,1.22,16.76,1.87,2.44.28,4.55,1,4.53,3.6,0,2.84-2.47,3-4.78,3.1-7.19.29-14.28-1-21.26-2.16-8.46-1.46-12-6.62-9.34-13.57,6.22-16.42,7.8-33.71,10.4-50.83.15-1,.67-2.55-.81-3s-1.93,1-2.49,2c-1.72,2.83-3.3,5.75-5,8.61-3.93,6.68-9.21,7.57-14.33,1.88-10-11.08-19.59-22.46-29.39-33.69q-15.72-18-31.55-35.92c-.91-1-1.74-2.91-3.5-2.28s-1,2.62-1,4c.24,17.43.6,34.85,2.22,52.23.79,8.51,1.38,9.14,9.86,9.17a9.39,9.39,0,0,0,1.5,0c6.5-1,12.59,4.59,15.27,12,.74,2-.39,3.55-2.38,4.27-2.55.93-4.35,0-6.09-2-1.55-1.79-2.81-4.38-5.83-4.15-4.38.35-10.79,8.4-10.47,12.71.88,11.63,4.3,22.26,11.52,31.57.76,1,.74,2.73,2.56,2.48,2-.29,1.81-2,2-3.49.76-5.89,1.57-11.78,2.32-17.68.52-4,3.53-5.55,7.15-3.75,2.82,1.4,3.26,4,3.68,6.67q3.83,23.52,7.55,47.06c.42,2.59.4,5.11,2.2,7.47a182.7,182.7,0,0,0,25.69,27.81C168,812,176.85,817.52,189,817.53c11.77,0,23.52-1,35.29-.51,3.73.18,7.56-.92,11.28-1.73a4.63,4.63,0,0,0,3.92-5.5c-.72-6.76,1-13.21,2.57-19.65,1.53-6.15,3.43-11.71,11.71-11.78,4.47,0,9.4-1.38,8.77-8a5.2,5.2,0,0,1,.75-2.84c1.25-2.18,3.19-3.55,5.77-2.89s4,2.14,3.44,5.14a28.82,28.82,0,0,0-.3,6.44c.15,3.1-1.32,4.71-4,6.13-3.83,2-8,2.29-12,2.84-4.61.61-3.94,4.75-5.3,7.53a3.91,3.91,0,0,0,1,5c4.48,3.76,11.73,4,17,.89,10.27-6.17,19.62-13.62,29.1-20.88a10.32,10.32,0,0,0,4-7.13c1.87-12.28,5.89-24.17,6.86-36.63.27-3.47,1.45-6.54,5.39-6.46,4.15.08,5.58,3.68,5.63,7,.09,6.24,2.61,12,3.07,18.1.22,2.86,1.24,4.42,4.43,1.86,10.79-8.64,17.62-20.59,26.3-31,.84-1,1.66-2.44.39-3.59C349.85,716.08,347.59,710.59,342.76,707.08Z" transform="translate(-0.92 -1.51)"/><path d="M399.87,151.27c-14.32,3.12-28.16-1.82-34.29-11.58-2.64-4.21-1.74-9,2.49-11.6,5-3.07,10.71-4.52,16.32-5.91,2.53-.63,5.09-.45,7.37-2.29,1.49-1.19,3.67-1.53,6.44-.25-4.33.42-7.15,2.84-10.72,3.85a15.59,15.59,0,0,0-10.57,11.17c-1.23,4.47,2.59,8.14,6.27,9.78C388.38,146.76,393,150.38,399.87,151.27Z" transform="translate(-0.92 -1.51)"/><path d="M458.52,120.11c4.53-.69,8.28-1.79,12-1.67,3.23.1,6.41,1.46,7.75,5.18,1.09,3-1,4.55-2.62,6.37-.82.95-1.95,1.55-3.1.88C467.61,128,462.25,125.62,458.52,120.11Z" transform="translate(-0.92 -1.51)"/><path d="M801.77,88.53c4.18.1,9.39,4.28,8.64,7.45-.8,3.34-4,4.84-7.07,5.43-2.8.54-6.72-4.14-6.54-7.38S798.05,88.48,801.77,88.53Z" transform="translate(-0.92 -1.51)"/><path d="M750.53,87.74c2.74-.51,5.19.83,7.59,2.45s3.07,4,2,6.07c-1.22,2.4-3.9,2.79-6.5,1.84-1.84-.68-3.38-1.92-5.29-2.59-2.08-.72-4.74-2.12-4.14-4.89C744.84,87.66,747.52,87.25,750.53,87.74Z" transform="translate(-0.92 -1.51)"/><path d="M299.58,540.51c5.57-5.47,19.05-3.61,22.44,2.84.32.61.7,1.16.13,1.76a2.12,2.12,0,0,1-3.12.29C313.5,540.07,306,543.16,299.58,540.51Z" transform="translate(-0.92 -1.51)"/><path d="M857.4,184.15c-3.68,2.73-7.46,2.93-11.29,2.64-1.71-.13-4.92.88-4-2.49.69-2.47,1-6.47,5.28-5.89C851.32,178.92,854.2,181.48,857.4,184.15Z" transform="translate(-0.92 -1.51)"/><path d="M848.15,80.49c-3.12-2.22-5.57-1.26-8-1.33s-4.13-.85-4.74-3.44,1.18-4.67,2.12-6.88c.29-.66,1.29-.45,1.58.24,1.7,4,5.05,6.45,8.45,8.85C847.86,78.12,847.8,78.79,848.15,80.49Z" transform="translate(-0.92 -1.51)"/><path d="M677.91,23.93a5.2,5.2,0,0,1-4.31,4c-1.73.37-2.44-1-2.45-2.3,0-2.89,2.67-2.82,4.48-3.47C676.66,21.79,678,22.08,677.91,23.93Z" transform="translate(-0.92 -1.51)"/><path d="M418.53,116.58c-3.67,2-7.28,1.92-11.37.29C411.14,114.88,414.71,113.29,418.53,116.58Z" transform="translate(-0.92 -1.51)"/><path d="M438.55,395.69c-.53.42-.78.8-1,.8-2.23,0-4.68.93-6.4-1.3-.13-.17.48-1.3.95-1.51C434.63,392.54,436.88,392.9,438.55,395.69Z" transform="translate(-0.92 -1.51)"/><path d="M842,167.66c-.17,2.07.31,4.27-2.46,4.3-1.66,0-1.6-1.38-1.58-2.53,0-1.75.41-3.23,2.55-3.61C842.85,165.4,841.56,167.23,842,167.66Z" transform="translate(-0.92 -1.51)"/><path d="M427.5,383.93c-2.82-1.18-5.17-2.07-4.64-5.47.11-.72.51-1.45,1.16-1.14C426.59,378.53,427.77,380.59,427.5,383.93Z" transform="translate(-0.92 -1.51)"/><path d="M266.2,479.77c.31,3.46.68,6.93.91,10.41.15,2.33-.36,4.38-3.21,4.73s-4.13-.74-5-3.52c-1.49-4.52-.36-9.22-1.58-13.78-.73-2.7-1.34-3.48-4.22-3.11a129.6,129.6,0,0,1-15.88,1c-4.37,0-6,2.3-6.12,6.13-.08,2.5-.51,4.92-.8,7.37-.4,3.29-2,4.09-5,4.08-3.65,0-3.29-2.42-3.31-4.79a21.4,21.4,0,0,1,.89-6.86c1.49-4.74.56-6-4.3-6.56-2.14-.26-3.19.24-2.45,2.63.34,1.14,1.72,2.5,0,3.48a4.31,4.31,0,0,1-4.3-.43,6.83,6.83,0,0,1-3.64-4.53,2.25,2.25,0,0,0-2.4-2c-1.57,0-1.92,1.14-2.27,2.23-1.25,3.94-2.55,7.88-3.62,11.88-.77,2.87-2.38,4.4-5.34,3.78-3.13-.66-3.08-3.32-2.63-5.59a102,102,0,0,1,2.77-10.06c.72-2.34.37-3.76-2.4-4.25-4.57-.82-9.1-1.89-13.63-2.91-2.18-.49-3.44.43-4.34,2.32-1.28,2.71-2.58,5.41-4,8-.79,1.4-1.36,3.23-3.19,3.64-2.06.45-4.06,3.07-6.29.53-2-2.28-.36-4.4.66-6.42.9-1.77,2.14-3.36,3-5.12,1.14-2.2,3.82-4.83-.05-6.65-3.2-1.49-6.84-3.16-9.55,1.37-1.61,2.69-3.73,5.06-5.59,7.6a5.77,5.77,0,0,1-5.56,2.65c-3.1-.35-4.22-2.75-2.43-5.29s3.68-5.12,5.67-7.56,2.4-4-1.38-5.52c-4.25-1.71-8.57-3.51-12.34-6.36-2.58-1.95-2.92-3.76-.78-6.15.93-1,2.87-1.43,1.43-3.87-.69-1.15,2.13-2.34,3.21-1.91,3,1.19,5.44-.05,8.11-.86,16-4.87,32.22-9,48.89-11a225.21,225.21,0,0,1,56.06.32c14.74,1.85,28.81,6,42.8,10.67a29,29,0,0,1,5,2.31c2,1.12,3.62,1,6,.21,11.33-4,20.82,4.28,20.35,14.54-.12,2.66-1.25,5.07-3.63,6.17s-3.47-1.53-4.57-2.88c-2.73-3.34-5.2-1.38-7.87-.16-7.36,3.35-7.37,3.33-4.17,10.48a57.45,57.45,0,0,0,2.61,5.87c1.66,2.79.74,5.18-1.54,6.43-2.54,1.39-4.92-.41-6.12-2.63a57.42,57.42,0,0,1-3.73-9.19c-1.26-3.77-3.49-5-7.14-3.3a50.67,50.67,0,0,1-15.33,4C266.85,472.09,265.21,474.49,266.2,479.77Zm-50.63-19.54c.26-.76,2.47-1.39,0-2.31a38.09,38.09,0,0,1-6.28-3c-5.93-3.63-11.63-7.7-10.92-15.72.37-4.11-1.25-4.58-4.49-3.88-1.28.28-2.6.45-3.89.69-3.33.63-5,2.23-5.14,6-.35,8,3.65,13.79,9.11,18.49a25.42,25.42,0,0,0,13.16,5.56c3.86.52,4.41-4.21,7.45-5.15a4.11,4.11,0,0,0,1.14-.89c1,2.76-2,4.86-1.15,8H233.9c14,0,23.79-6.92,29.87-19.22,3.17-6.41,1.1-10.22-5.83-11.7-1.13-.25-2.28-.43-3.39-.73-3-.82-4.55.19-4.26,3.41.74,8.54-8,16.44-15.74,18.47C228.16,459.91,221.68,457.88,215.57,460.23Z" transform="translate(-0.92 -1.51)"/><path d="M235,396.64c-1.2-.28-3.39.48-3-2,.43-2.8,3-2.78,5.09-3,1.2-.15,3-.36,2.79,1.72C239.58,396.05,237.48,396.62,235,396.64Z" transform="translate(-0.92 -1.51)"/><path d="M323,497c-1.73-.44-3.3-1.5-3.32-3.15a3.29,3.29,0,0,1,3.28-3.56c2.09,0,3.15,1.6,3.24,3.63S324.46,496.34,323,497Z" transform="translate(-0.92 -1.51)"/><path d="M801.81,576.35c1.84-5.87-.52-12.31-2-19a9.8,9.8,0,0,1,4-10.36c3.54-2.59,6.51-1.74,10,.43a14.77,14.77,0,0,1,7.07,11.41c.43,4,1.1,7.86,1.74,11.78,1.28,7.74-2.08,14.64-7.91,16.4C807.49,589.22,801.73,584.92,801.81,576.35Z" transform="translate(-0.92 -1.51)"/><path d="M244.76,743.91a29.11,29.11,0,0,1-1.67,10.8c-3.38,8.5-13.7,10.58-20.48,4-5.08-5-7-10.85-6.29-18.45.82-8.91,2.94-17.69,2.88-26.67,0-6.38,2.24-12.34,3.1-18.56.83-6,.68-12.26,3.46-18,.84-1.73.5-4.21,3.22-4.23,2.42,0,2.76,2.13,3.16,3.86,2.5,10.81,5.71,21.53,7.12,32.48,1.23,9.55,4.59,18.67,4.88,28.34C244.21,739.62,244.55,741.76,244.76,743.91Z" transform="translate(-0.92 -1.51)"/><path d="M212.74,776c-17.59-.25-35.13-1.88-52.74-1.72-2.58,0-5.48-.5-5.84-3.47s2.51-3.61,4.72-4.23c5.28-1.48,9.89-4.59,15.32-5.82,3.68-.83,6.77-.7,9.87,1.41a6.42,6.42,0,0,0,7.85.06c4.82-3.16,9.5-2.63,14.33.59,5.51,3.66,11.18,7.22,18.39,6.58,2.11-.19,4.86.55,4.81,3.22-.06,2.92-2.79,3.33-5.22,3.37C220.4,776,216.57,776,212.74,776Z" transform="translate(-0.92 -1.51)"/><path d="M196.72,791.93c-8.61,2.17-18.11-.18-27.62-2.33-2.61-.59-5.14-1.49-4.27-4.82.82-3.18,3.62-3.42,6.08-2.47,12.45,4.77,25.24,2.72,38,2.18.81,0,1.72-.59,2.41-.36,1.63.53,4.21.14,4.5,2.33s-1.88,3-3.61,3.54A46.52,46.52,0,0,1,196.72,791.93Z" transform="translate(-0.92 -1.51)"/></g></g></svg>