<svg xmlns="http://www.w3.org/2000/svg" viewBox="0 0 764.06 841.85"><title>beatanyprice</title><g id="Layer_2" data-name="Layer 2"><g id="Layer_1-2" data-name="Layer 1"><path d="M624.55,304.75c2.09,2.63,3.77,4.81,7,3.88a2.53,2.53,0,0,1,2.13,1c1.65,2.46-1.39,5.23.25,7.9a8,8,0,0,1-4.07,1c-13.07-1.49-25.27,2.71-37.66,5.66-6.33,1.51-7.12,2.15-11.66-4.64,3.85-.72,7.34-1.35,11.06.27,1.37.6,5,.7,4.35-.87-1.08-2.48,2.75-6.51-2.11-7.44a42.37,42.37,0,0,1-12.25-4.12c-1.62-.87-3.17-.58-4.34,1.31l16.29,5.44c-2.28,2.09-4.2,2.26-6.15.84-4.16-3-8.69-.91-13.06-1a2.38,2.38,0,0,0-2.13,1.84,1.89,1.89,0,0,0,1.2,2.45c7.17,1.22,3.43,6.91,5.14,11.41-3.88-2.24-4.85-5.64-6.49-8.23-2.19-3.46-4.41-3.4-7.53-2a30.2,30.2,0,0,0-7.77,5.34c-4.2,3.7-9.63,3.48-14.22-.29l.37-.29c1.35-1.06,4.62,1.09,4.37-1.5-.24-2.37-2.81-1.07-4.52-.54a1.83,1.83,0,0,1-2.46-1.73c-.13-1.43,1.17-1.32,2.14-1.36a15.72,15.72,0,0,1,3,0c4.06.56,5.24-2.37,3.68-4.7s1.34-6.74-3.55-7.22c-.49-.05-.4-1.18.22-1.64.38-.29.93-.36,1.31-.65,2-1.53,7.13.23,6.19-3.85-.67-3-5-1.16-7.64-1.49a6.22,6.22,0,0,1-1-.31c-.69-1.75,1.52-1.83,1.8-3.06.51-2.18,2.09-4.8-2.26-4.51-2.14.14-3.14-.9-2.9-3,.32-2.77-.62-3.79-3.32-2.56-1.41.65-4-.92-4.23,1.34-.21,2.61,2.9,1.22,4.45,2.29-.68,2.18-2.71,3.6-2.75,6.16,0,2-2.14,2.39-4,2.9-3.41.9-7.05-.21-10.29,1.44-.21.11-.28.52-.45.84,1.43,2.42,6.71-1.16,6.37,4.38-2.21-.09-4.26-2.73-6.35-1-1,.85,1.12,1.85.83,3.1-1.43,1.67-2.83-2.64-4-.17-.67,1.44.92,2.72,1.67,4,1,1.76,2.52,1.36,3.86.43,3.36-2.34,9.12-1.89,9.27-8.07,0-1.3,1.57-.85,2.47-.85,1.47,0,2,.9,2,2.29a7.39,7.39,0,0,1-2,4.43c-4,5-3.73,7.28,1.45,10.65-3.5,1.18-7.51.31-9.82,3.65-.24.36-1.69.2-2.37-.13-3.17-1.53-6.26-3.21-10.18-5.25,3.82-.71,6.62,1.51,10.48-.29-4.27-1.26-7.36-4-11.36-1.33-2.34,1.53-2.7-.22-3.38-1.86-2.95-7.14-6.11-8-13.59-5.63-4.93,1.57-8.73,4.72-12.89,7.31a8.19,8.19,0,0,1-6.57.9c-4.66-1-9.08-3.18-14.05-2.5a2.47,2.47,0,0,1-1.31-.47c1.07-4.83-3.42-6.25-5.51-9.14-1.6-2.2.88-2.74,1.85-3.84.69-.76,1.43-1.49,1-2.6s-1.51-1.11-2.49-1.2c-1.75-.17-4.16.59-4.75-1.71-1.61-6.23-5.87-4.18-9.06-2.58-4.69,2.36-9,5.35-15.68,4.08,2.18,3.26,4.62,4,6.61,5.2,1.1.7,2.72,1.07,2.55,2.69s-1.71,1.93-2.88,2.5a9.89,9.89,0,0,1-5.82,1c-11.89-1.77-23.89-1.81-35.85-2-9-.17-16.37-3.81-23.43-8.73-.54-.37-1.3-.73-.91-1.46a2.38,2.38,0,0,1,1.53-1.07c.58-.08,1.23.39,1.87.49a14.76,14.76,0,0,0,2,0c-.2-2.93-1.71-2.58-3.71-2.11-1.43.33-3.76.64-1.87-2.37.74-1.18-5.29-10.64-6.71-10.93-2.77-.57-.87,2.26-2.4,3.15-1.71-3-.8-6.71-2.73-9.84,4.46.84,9.19-.19,12.92,3.31,1.95,1.82,3.82,2.09,6.7,1,3.65-1.39,8.22-.42,11.41-5.92-9.51,1.78-18.48,4.67-26.78-1.18-.83-.86,2.57-2,.34-3.18a8.88,8.88,0,0,0-5.29-.8c-1.86.35-2.05,2.58-2.14,4.14-.42,7-5.38,9.75-11.35,6.09a7.19,7.19,0,0,0-3.64-1.43c-1,0-2.14-.26-2.64.84s.47,1.75,1.33,2.27c2.56,1.54,5,3.23,7.7,4.6,4.35,2.23,5.26,5.32,3.31,10.05-1,2.5-2.85,6.43-.81,7.79,2.38,1.59,4.64-1.7,6.4-3.91s3.7-4.28,6.75-4.8c-1.44,9.41,1.1,17.87,5.84,25.76,2.67,4.45,4.73,9.54,10.41,11.35,1,.32,2.53,1.52,2.12,2.52-2.28,5.65,4.27,6.59,5.41,10.63-.63-4.18,5-5.56,3.88-9.9-.35-1.39,1.17-1,2.16-.95,2.71.25,5.26,1.68,6.12,3.8,1.36,3.34,4.47,4.11,6.61,6.19,11.64,11.35,26.15,18.55,39.46,27.43a92.83,92.83,0,0,0,39.6,15.26c7.31,1,15,.51,22,3.74a5.59,5.59,0,0,0,3.44.14c3.35-.81,4.36.79,4.93,3.79.71,3.7,1.54,6.34-4.2,4.72-4.44-1.26-4.88-.35-4.27,4.9,1.55,1.41,2.27-3.36,3.82-.58.82,1.47-.68,2.4-1.7,3.22-1.46,1.17-2.92,1.71-4.22-.24a16.55,16.55,0,0,0-2.27-3.21c-1.76-1.63-3.55-2.61-3.63,1.23-.05,2.44-1.76,2.65-2.79,1.14-2.1-3.08-3.94-1.22-5.92-.25-2.82,1.39-5.4,3.36-8.69,3.58-3.14.22-4.52-.62-2.69-3.95a24.79,24.79,0,0,0,2.85-11c0-.89.34-2.19-1.07-2.39-1.16-.17-1.82.71-2.14,1.71-.46,1.42-.77,2.89-1.2,4.33-.95,3.17-3.61,4.56-6.41,4.74-2.51.16-2.76-2.59-3.06-4.47-.58-3.75-4.79-2.43-6.49-4.72-.17-.24-1.92,1.91-1.47,3.57,1,3.7-1.74,5-4.1,4.37-4.39-1.1-8.87-1.88-12.69-5.22C433.66,390,427.68,387,422.5,383c-7.29-5.56-14.37-11.65-19.52-19.16-3.27-4.76-8.52-7.67-10.84-13.07-.81-1.9-2.39-2.42-4.06-1.3s-.93,2.4-.15,3.9a149,149,0,0,0,35.87,44.78,34.93,34.93,0,0,1,4,4.42c1,1.25,2.79,2.82-.8,2.85a1.49,1.49,0,0,0-.78.35c1.63,5.77-3.45,3.27-5.22,3.71-4.64,1.16-7.62,4.52-12.48,7.66,4.55-.91,7.92-1.37,11,2.31-5.34,1-10.12,3.56-15.54,1.1-.56-.25-1.54-.62-1.78-.38-2.63,2.58-3.79.7-5.25-1.4s-2.4-3.82-.56-6.25c.77-1,1.58-3.17-.42-3.79a3.65,3.65,0,0,0-4.71,2.63,6.31,6.31,0,0,0,.76,5.27c2.27,3.5,4.52,7,7.67,9.81a200.77,200.77,0,0,1,18,18.53A7,7,0,0,0,423,447.8c-4.27-6.4-10.95-10.07-14.33-16.59,4.09-.08,5.54-4.43,9.15-5,.75-.12,1.35-1,2.09-1.32,3.25-1.58,6.71-4.53,9.74-4.15,2.07.26,1.8,6.15,5,8.25.87.57.42,1.8-.41,2.6a12.78,12.78,0,0,1-13.79,2.32c-1.75-.73-3.43-2.09-5.93-1.44,2.57,3.84,7,3.92,10.24,6.05a111.7,111.7,0,0,0,12,6.95,37,37,0,0,0,19.46,3.23c5.17-.42,10.3-.68,15.33.76,1.51.43,2.51-.18,3.72-.75a3.91,3.91,0,0,1,4.6.63c3.2,2.72,6.66,1.87,10.06.29.88-.4,1.71-1.21,2.6-1.27,1.36-.09,2.82-1.94,4.07-.22.79,1.08-.06,2.12-.91,3-1.07,1.18-1.62,3.08-3.87,1.85-2.82-1.54-5.1-1.63-5.83,2.33-.28,1.52-1.66,2.12-3,2.24-5,.45-8.4,3.74-12.45,6.19-7.79,4.71-16.4,8.08-26,6.87-.81-.1-1.89.09-2.11-.88a3.42,3.42,0,0,1,1.45-3.49c4.47-2,6-7.07,10-9.42,1-.56,3.12-1.33,1.48-2.77-.93-.81-2.94-1.83-4.62-.36C447.25,456.85,443.65,460,439,464c2-6,7.41-7.75,9.11-12.58-3.31-.64-6.54-.32-10.19-.1,1.47,3.15,4.43.93,6.56,2.61-9,6-18.12,11.36-26.57,18.17-.16-.44-.12,0,.05.09,9.16,3.05,17.86,8.39,28.16,5.9,4.48-1.09,8.57-3.42,13.22-4.13,2-.31,3.87-.78,5.82.08a4,4,0,0,0,4.62-.75c.48-.44,1.15-1.11,1.62-1,9.15,1.55,15.45-5.67,23.46-7.54a61.54,61.54,0,0,0,6.18-2c1-.35,2-.74,2.49.55.63,1.58-.57,2-1.72,2.4-4.86,1.66-9.69,3.39-14.57,5-2.68.87-5.48,2-4.88,5.22s1.86,6.13,6.42,6.17c6.75.05,11.71-4.52,17.8-6a20.84,20.84,0,0,0,2.28-1c1.69-.64,2.5.64,3.15,1.75,1,1.67-.63,1.93-1.61,2.29-2.53.91-4.71,2.95-7.93,1.39-1.5-.73-3.44.68-5,1.64-6.82,4.11-13.61,8.18-19.63,13.53-3.77,3.36-7.5,6.88-12.18,9.22-2.29,1.15-4.18,3.18-2.56,6.57,1.76,3.67-2.9,7.44-.3,11.37.15.22-.93.79-1.63.47a1.65,1.65,0,0,0-2.43,1.58c.38,7.86-6.21,11-10.42,15.71-.71.79-2.33,1.37-1.24,2.73.82,1,1.81-.05,2.63-.52,6.9-4,14.67-6.07,21.56-10.27,7.71-4.69,14.53-10.55,22-15.5,4.56-3,9-6.3,14.76-6.76,1.53-.12,2.73-.37,3.84,1.28,4.62,6.85,11.87,6.37,18.76,6,2.79-.15,5.59-.51,8.41-.66,4.6-.25,6,3.18,6,6.23,0,3.32-2.53,5.1-6.56,4.7s-8.31-.87-12.32.91c-2.27,1-4.23-.48-6.18-1.24-5.18-2-4.77,2.47-6,5s-1,4.74,2.37,5.78c1.75.54,3.93.29,5.66,2.16-2.53,1.21-4.55-.2-6.58-.11-1.27,0-2.92-.51-3.23,1.39-.27,1.61,1,2.4,2.31,2.82,3.77,1.21,7.57,2.32,11.72,3.58-1.81,2-4.12.27-6.18,2,4,2.89,8.28,3.76,12.8,4,2.65.18,5.32-.27,7.95.54a3.94,3.94,0,0,1,2.86,3.69c.19,1.72-.73,2.72-2.38,3.3a23.19,23.19,0,0,1-7.89,1.71c-5.31.06-10.62,2-15.88,3.4a3.48,3.48,0,0,0-2.41,3.49c0,1.83,1.5,2.38,2.86,3.06,2,1,4.49,1,6.26,3.32-2.41,1.59-4.61-.71-6.37,0-6.64,2.73-12.3-1.13-18.36-2.29-2.34-.45-4.73-.67-5.88,2.24-.74,1.87-2.45,1.45-3.88,1.45q-56,0-112,0c-2.26,0-3.56-.48-4.15-3.08a11.63,11.63,0,0,0-3.35-6c-5.06-4.27-3.45-8.12.14-12,1.2-1.31,2.32-2.68,1.28-4.36s-2.27-.08-3.47.12c-2.9.5-11.93-6.44-13-10-3.62-12.43-5.23-25.27-7.47-38-.74-4.18,3.3-7.3,2.41-11.59,3.72,1.78,8.92-1.83,12.71-8.7-3.24-.66-5.72,1.5-8.54,2-1.8.34-3.1.26-3.53-1.52a38.18,38.18,0,0,0-4.33-10.27c-1.55-2.69-.15-7.09.91-10.65.93-3.13,1.09-6.48,1.58-9.59,1.91-12.15-1.46-24.07-.2-36.19,1.49-14.38,1.7-29,4.59-43.13.93-4.53.73-9.24,2.41-13.83,1.4-3.82,2.94-7,6.1-9.24,2.58-1.79,1.86-3.11.11-4.6a16.73,16.73,0,0,0-4.42-3.15c-4.25-1.66-4.57-4.5-2.69-8,1.28-2.34,1.32-3.2-1.71-3.95-4.22-1-5-3.84-2.71-7.51.64-1,.07-1.44-.34-2.11-2.75-4.52-7.68-5.17-12.05-6.82a1.65,1.65,0,0,0-1,0c-3.16.91-7.79,10.65-6.26,13.65,2,3.9,2.22,8.44,5,12.13,1.82,2.41.46,5.7.58,8.56.41,9.37-1.69,18.39-2.79,27.52-.92,7.64-.72,15.26-1,22.89-.16,4.8-3.43,9.05-2.67,14.07.05.37-.73,1.11-1.25,1.28-4.14,1.39-3.81,4-2,7,1.06,1.85.83,3.82.45,5.83-1.38,7.27-.69,14.63-.85,22,0,1.08-.33,2.74,1.32,2.67,1.48-.06,1.2-1.7,1.38-2.81a29.61,29.61,0,0,1,2.11-7.82v48.23c-2.94-1.89-1.57-4.69-4.3-6-1.45,4.78-4.9,9.17-3.86,14.53.76,3.89.65,7.78.76,11.58.45,16.35-3.56,31.68-12.94,45.2-4.31,6.23-10.31,11.21-13.37,18.45-1.09,2.57-3.75,3.26-6.73,3.28-22.15.14-44.32-.71-66.47.39a16.45,16.45,0,0,1-2.91-.46c-2.58-.34-6.85,1.16-7.41-.69-.9-3,3.67-4,5.29-6.36,4.08-6.07,9.63-4.3,15.16-2.81,3,.8,5.9,2,9.4,1.77-1-4.84-3.86-8.55-6.38-12.26-2.2-3.23-1.79-5.5.35-8.47,2.38-3.33,4.1-7.13,6.23-10.95-4.82-1.29-8.14,1.78-11.91,2.69s-5.74,0-7.5-2.9c-1.47-2.41-2.84-4.89-4.35-7.28-1-1.63-1.75-4.61-3.5-4.36-2.35.34-1.9,3.53-2.29,5.46-.63,3.07-.79,6.23-1.3,9.35-.68,4.08-2.44,6.17-6.69,6.5-5.62.43-10.8,3.38-16.59,3.13-.69,0-1.41.71-3.14,1.64,5.48,2,10,3.93,14.71,5.26,8.17,2.31,9.05,3.46,7.23,11.45-2,8.81-2,8.81-11.22,8.81-38.17,0-76.33,0-114.5.12-4.27,0-6.11-.73-6.1-5.69q.21-277.72.14-555.46c0-6.54,0-6.58,6.55-6.58q221,0,442-.08c3.51,0,5.36.61,6,4.54.45,2.73.11,6,2.6,8.57,1.06-2.84-.43-5.17-.7-7.51-.47-4.05.38-6.14,4.87-5.57a35.55,35.55,0,0,0,4.5,0q101,0,202-.07c4.69,0,5.91,1.37,5.9,5.93-.13,50.67,0,101.33,0,152,0,33.44-.14,66.88.08,100.31a28.49,28.49,0,0,1-4.53,15.91c-4,6.34-7.55,12.84-7.23,20.7.08,2-1.11,3-2.82,3.65-3.54,1.25-6-.68-8.56-2.71s-.94-3.74.76-5.81c-4.44-.51-6.78-.74-8.93,3.81-2.83,6-9.8,6.77-15.95,7.29a30.06,30.06,0,0,0-5.76.77c-3.44.95-6.87,1.64-10.5-.7a11,11,0,0,0-9.88-.79c.65,2.93,3.3,1.3,4.53,2.56-6.05,1.52-33,3.21-37,1.86,7-1.63,3.61-5.85,4-9.49.58-5-2.71-6.36-5.1-8.94a4.83,4.83,0,0,0-5.92-1.09c-1.66.75-2.41,2.31-2,4.56.51,2.6-.07,5.11-3.71,3.12C629,301.64,628.08,307.92,624.55,304.75ZM443.83,531.69l0,0c-.44-1.91.72-2.91,2-4.12,2.38-2.28,4.52-4.84,6.71-7.32.65-.73,1.42-1.61,1-2.65s-1.69-.78-2.63-.81c-1.52,0-3.14,0-4.17,1.25-2.27,2.7-5.57,2.75-8.55,3.59-2.35.66-4.22-.12-5.92,3.83-2.2,5.12-3.92,11.75-10.09,14.76a2.77,2.77,0,0,0-.76,4c.95,1.32,2.4.77,3.63.19,7.16-3.41,14.53-6.43,20.73-11.57,1.08-.9,2.67-1.51,1.73-3.5C446.06,529.91,444.65,530.33,443.83,531.69ZM587.46,162.94c.71-2,.79-3.74,3.39-3.86s2.7-1,.86-3,1.1-5.12-.66-7.55c4.31-.72,5.24-6.33,10.13-6.63,3.33-.21,5.89-2.21,2.93-6-1.39-1.79-1-3.76-1.22-5.71-.82-6.51,4-12.82.64-19.42-.25-.49.1-1.3.24-1.95.64-2.93,1.42-5.83,1.93-8.78,1.52-8.88,1.17-17.81-6.18-23.86A89.58,89.58,0,0,0,570.65,60c-3-1-4.72-1.79-2.12-5a3.08,3.08,0,0,0-.68-4.83c-7.8-4.5-14.45-11.57-24.46-11.38a8.78,8.78,0,0,1-3.92-.51c-8.61-4.32-17.85-3.13-27-3.37-6.54-.17-11.19,3.87-16.24,6.93-3.57,2.15-1.59,6.49-3,9.59-.77,1.64-1.07,3.51-1.84,5.15-1.2,2.57-1.43,4.76,1.3,6.5s1.8,3.21-.51,4.28c-6.75,3.11-11.85,8.52-17.77,12.78s-7,11.7-8.11,18.09,3,12.72,2.46,19.49c-.17,2.25,1.74,2.76,4.23,2.79,5.47,0,10.95.61,16.44.28,1.19-.07,2.65-.07,2.4,1.62-.44,3-3.33,3.84-5.42,5.39-1.57,1.17-2.24.61-3.66-.55-3.41-2.8-7.67-1.33-11.52-1.11-3.59.21-4.32,4.52-6,6.67-2.85,3.56,2.5,10.2,7.55,10.51,1.16.07,3.5-.5,2.83,1.48-1.36,4,2.06,4.22,3.66,4.13,4.1-.21,7.66,5.57,12.21.81,1.46-1.52,2.73-2.72,1.62-4.51-1.27-2-3-.87-4.06.45-1.72,2.18-3.69,1.68-5.78,1.13-.5-1.77,2.49-2.63,1-4.54-.74-.92-3-1.31-1.82-2.91,1.05-1.42,2.74.11,4.16.22s3,0,4.48.09c7.18.52,9.94-7.27,16.18-8.64.9-.2,1.73-1.95,2.9-1.28,2,1.14-.06,2.18-.41,3.26-.28.85-.36,1.8.36,2.31,3.48,2.43,1.19,4.36-.34,6.56-2,2.86-3.68,6-5.68,8.81-1.76,2.52-3.21,6.9-7.11,1.87-.66-.86-1.85-.62-2.72,0-.66.49-.68,1.43,0,1.62,3.19.92,3.39,4.49,5.51,6.49,3.12-5.65,8.83-7.56,14.29-4.74-1.86-.43-3.32.65-4.88,1-6.74,1.6-7.84,8.39-12,12.34-2.5,2.39.15,3,1.5,3.84,1,.61,2.44,2.17,3.24.11,1.17-3-2.74-.73-3-2.52,3.11-3.41,3.11-3.41,6.34.31.49-5.31,1.07-5.57,6.3-3.3,1.52.66,3.28,1.31,3-1.75-.32-3.27,1.65-3.66,3.53-1.79a5.39,5.39,0,0,0,6.38,1.3c4.65-2.56,9.44-1.53,14.13-1.35,6.65.25,14.54,0,18.86,4.9,3.83,4.31,6.61,4.42,10.94,3,.62-.21,1.44,0,1.93-.32,1.06-.69,3.1-.67,2.52-3-.57.09-1,.12-1.47.23-1.38.35-2.74,2.45-3.91,1.28-1.81-1.79,1.6-1.93,1.66-3.32a28.81,28.81,0,0,0,.05-3.94c-.22-2.43-2-4.68-2-6.82-.1-3.49-1.33-2.84-3.13-1.63-1.22.82-2.22,1.82-2.88-.34-.44-1.43-.81-2.72,1.29-3.59,3.51-1.46,5.25,1.11,7.26,2.84,1.21,1,1.83,2.83,3.94,1.88-.69-2-.39-4.2-3.09-5.19-1.55-.57-1.56-2.56-.1-3.72,1.28-1,2.5-.47,3.32.88a15,15,0,0,1,1.26,2.14c.6,1.57,1.12,3.71,3.29,2.42,1.8-1.07.64-2.55-.61-3.61a2.38,2.38,0,0,1-.6-2.74c.22-.73,1.16-1.28,1.48-.86,2.7,3.58,6.61.76,10.33,1.72a50.26,50.26,0,0,0-8.8,12C583.08,159.16,588,156.37,587.46,162.94Zm-93.14,60.54c.55,3.93-.24,8,1.28,11.7,1.08,2.63,1.3,6.69,4.11,7.27,7.15,1.48,9.25,8.17,14,12,2.3,1.83-1.24,4.47,1.55,6.11,3.27,1.93,3.82-2.61,6.41-2.24,11,1.57,22.12.57,33.19.33,1.37,0,3.71.2,4.18-1.9,1.23-5.54,5.51-8.38,9.65-11.36,1.41-1,1.95-1.39.16-2.75-4.64-3.49-9-7.49-14.6-9.3-3.65-1.18-2.83-5-5-6.87,3.13-.54,0-6.59,5.2-5.7,1.73.3,2.78-2.06,2.2-3.74-.7-2-2.45-2-4-.69-1.36,1.12-2.75.67-4.26.46-1.94-.26-4.55-1-5.79-.11-6.64,4.89-13.06,2.16-19.55.09q-5.22-1.66-10.34-3.58c-1.13-.42-2.16-2.13-3.33-.39s1.93,1.6,1.36,3.72c-1.9-1.72-4.41-1-6.43-2.27-5.32-3.18-8.61-1.84-9.68,4.07-.25,1.38-.47,2.68-2,3.13-2.56.75-1.72,2.89-2.44,4.56C492.85,226.45,491.69,223.3,494.32,223.48ZM170.57,262.67c-8.93,1.91-16.54,1.15-24.11,1.37a6,6,0,0,1-5.82-3c-3.53-5.68-6.59-11.65-10.46-17.13-1-1.4-1.55-4.18-3.59-3.38-1.55.61-1.92,3.14-1.92,5.23,0,4.47-.07,9-.38,13.42-.46,6.42-1.61,7.29-7.93,7.47s-12.81-.33-18.94,1.65c-.12,1.44.82,1.62,1.45,2.1,5.77,4.3,12.62,6.68,18.72,10.42,2.49,1.53,3.55,3.24,3.22,6-.66,5.59-1.23,11.2-1.92,16.79-.13,1.1-1.12,2.33.28,3.1s2-.73,2.84-1.41c4.39-3.57,8.87-7,13.08-10.81,2.72-2.43,5.09-2.63,8.43-1.09,7,3.2,14.17,5.85,22.54,9.24-3.74-5.63-5.91-10.42-9-14.76-5.76-8.13-5.54-8.16,2.31-14.5A66.45,66.45,0,0,0,170.57,262.67Zm33,208.43c-7.81,2-15.8,2-23.48,3.79a6.17,6.17,0,0,1-7.52-3.94c-1.56-5-6.08-7.89-7.56-12.71-.26-.85-.91-2-2.16-1.58s-1.1,1.55-1.2,2.51q-.51,5-.94,9.94c-.63,7.4-2,9.06-9.17,10.83a44.69,44.69,0,0,1-5.41.82c-2.91.34-4.45,2.69-5.1,4.8-.86,2.81,2.45,2.5,4,3.3a27.84,27.84,0,0,0,6.57,2.35c4.11.88,4.88,3.46,5.09,7.28.23,4-1.25,7.43-2.2,11.07-.34,1.31-.89,2.88.23,3.77,1.52,1.19,2.5-.62,3.15-1.49,2.11-2.82,5.32-4.36,7.49-7.21,3.33-4.38,7.62-6.49,13.51-4.14,3.39,1.35,6.68,2.95,10.13,4.14,2.82,1,5.47,2.7,9.23,2.51-3.45-5-6.41-9.54-9.69-13.87-2.73-3.6-2.91-6.61,1.1-9.22C195,480.59,198.26,475,203.59,471.1ZM150.12,350.32c8.29,3.51,15.5,6.83,22.92,9.59,3.54,1.32,4.65,3.48,4.13,6.77-.69,4.39-1.62,8.75-2.46,13.12-.23,1.18-.35,2.33.75,3.17.89.68,1.52,0,2.16-.52,3.44-2.85,7.34-5.3,10.22-8.63,3.88-4.47,7.69-5.23,12.59-2.12,1.35.86,3,1.7,4.59.26s.93-3.29.38-4.68c-1.39-3.55-3.24-7.18-2.79-10.88.63-5.19-1.32-8-5.88-9.73-.59-.22-.9-1.29-1.25-2-3.12-6.41-6.19-12.83-9.33-19.21-.48-1-.86-2.44-2.35-2.12-1.19.25-1,1.6-1.12,2.49-.4,3.3-.77,6.61-.94,9.92-.51,9.8-1.78,11.13-11.71,11.81a9.13,9.13,0,0,0-1.49.05C162.86,349.11,156.77,348.06,150.12,350.32ZM409.67,503.7c.25-3.21,1.82-4.3,3-5.64,2.85-3.24,5.73-6.45,8.5-9.76.52-.63,1.82-1.43.66-2.47-.74-.66-1.57-.19-2.09.58-1.57,2.32-2.11,2-3.52-.49-1.27-2.25-4-4.79-6.75-4.13s-4.92,3.37-5.47,6.58a13.68,13.68,0,0,1-1.61,5.18c-.77,1.22-1.52,2.28-3.16,1.42-.82-.44-1.68-1.56-2.56-.46s.18,2.29.95,3c5.07,4.67,10.24,9.23,15.39,13.83,1.66-1.48-.79-2.71.31-3.77,7,2,13.91,4.67,21.34,1.91a5.3,5.3,0,0,1,3.91-.08c4.84,2.8,8.47-.27,12.46-2.06a103.65,103.65,0,0,1,9.78-3.67c4.46-1.46,7.31-5.07,10.76-7.87a2.18,2.18,0,0,0,.1-3.18c-.9-.95-1.79-.24-2.58.4-9.41,7.55-20.65,11.14-31.93,14.59a12.9,12.9,0,0,1-7.91,0c5.26-4,9.18-8.37,11.05-14.18.52-1.62,1.53-1.38,2.64-1.5,8.32-.87,13.42-7.21,19.84-11.37a29.13,29.13,0,0,0-5.89,1.16c-.87.2-2.75.49-2.46-.45,1.16-3.7-1.34-1.89-2.56-1.94-10-.36-17.56,5.49-25.66,10-.28.15-.48.47-.75.64C419.79,493.58,415.91,499.33,409.67,503.7Zm33.42-269.65c-.09-.85-.19-1.7-.28-2.55-4.5,5.06-7.66,1.39-11.39.45-3.45-.87-5.05-2.62-6.32-5.51-2-4.43-4.12-8.78-6.19-13.16l-1.29.33c-.51,3.89-1.37,7.79-1.44,11.69-.1,4.78-2.33,6.45-6.82,6.45-5.52,0-11.08,0-17.19,2,4.61,2.6,8.59,4.9,12.63,7.09,6.86,3.74,7.17,4.53,4.26,12a8.52,8.52,0,0,0-.76,1.84c-.32,2.72-3.84,6.25-1.65,7.57s4.68-2.49,6.68-4.63c5.5-5.85,9.86-6.41,17.17-2.78,3.74,1.86,6.88,4.89,11.63,6.21-1.58-5.83-4.86-10.09-7.12-14.81-1.19-2.47-.95-4,.89-5.64C438.31,238.46,440.7,236.25,443.09,234.05Zm-86.25-71.84-.58,1.47c4.44,2.83,8.81,5.77,13.35,8.44,4.1,2.42,5.1,5.49,3.6,10-1.24,3.77-2.77,7.65-2.22,12.18,4.63-1.7,7.79-4.78,11.13-7.38s6-2.52,9.37-.31c4.21,2.75,8,6.29,13.52,8.42-1.86-5.6-4.54-9.94-7-14.34-1.66-2.94-1.53-5.29,1.27-7.4a32.65,32.65,0,0,0,3.27-3.07c.87-.88,2.87-1.25,2.1-2.88-.36-.76-2-1-3.08-1.31a22.39,22.39,0,0,0-2.48-.27c-5.61-.88-11-1.76-13.61-8.14-1.16-2.86-3.74-5.13-6.07-8.2-.7,3.17-1.4,5.55-1.73,8-.49,3.62-2.18,5.12-6,4.86C366.74,162,361.78,162.21,356.84,162.21Zm-140.57,4.51c.38,1.43.37,1.89.56,2,5.66,3.47,10.72,7.91,16.79,10.68,3.61,1.65,5,4.22,4.3,8-.49,2.77-1,5.54-1.7,8.27-.6,2.42-3.95,5.33-1.33,7,2.18,1.4,4.68-2.07,7-3.66,3.5-2.46,7.07-5.48,11-6.39,2.29-.53,5.43,2.6,8.19,4.09.44.23.83.56,1.29.76,1.17.5,2.4,1.94,3.6,1,1.48-1.22.05-2.65-.38-4-1.95-6.36-6.76-11.13-9.44-17.17a91,91,0,0,1-3.71-9.25c-1.52-4.77-4.14-9.26-6.11-15.3-1.32,4-2.48,6.57-3,9.29-.72,3.75-2.61,4.86-6.44,5.31C230.11,168.07,223.46,168.82,216.27,166.72Zm40.91,180.61c-.26,1.41-.53,2.52-.67,3.64-1.08,9.11-3.07,17.35-15,16.77-1.2-.06-2,1-2.18,2.35-.26,2.16,1.37,2.86,2.81,3.64,7.77,4.22,7.73,4.21,6.76,12.59-.2,1.73-.65,3.77,1.45,4.88,1.37.73,2.79,1.1,4.21,0,3-2.25,6.28-4.12,9.34-6.16,3.59-2.39,6-5.66,10.08-1.28a1.61,1.61,0,0,0,2.25.27c.91-.71.48-1.5-.08-2.14-3.35-3.87-.92-5.9,2.09-8.48,3.37-2.88,8.05-4.34,10.77-9.18a125.29,125.29,0,0,1-18,.73c-2,0-3.75-.6-4.68-2.3-1.93-3.52-5.66-6-5.87-10.6A4.87,4.87,0,0,0,257.18,347.33ZM199.79,53.19C196.93,62.47,196.3,70,199,77.74a54.25,54.25,0,0,1,2.81,10.57c1.2,8.64,4.35,16.22,11.43,21.55,4.24,3.19,9,5.73,13.49,8.51.93.57,2,1.63,3.08.37.76-.88.16-1.87-.31-2.77-1.94-3.68-3.88-7.36-5.79-11-2-3.88-5.5-7.67-.71-12a1.77,1.77,0,0,0,.26-1.35c-.53-4.5-3.23-8.59-6.71-10.06-5.23-2.21-7-6.16-8.9-10.57C205.3,65.43,202.81,60,199.79,53.19ZM149.07,400.76l-.63-1.47c-7.37,1.48-15.1.79-22.17,4-2.47,1.12-3.73.05-5-1.67-1.69-2.26-3.25-4.63-5.09-6.77-1-1.13-3.4-2.12-3,.38,1,5.36-2.13,9.21-3.74,13.62-.68,1.87-1.09,3.47.86,4.83,3.84,2.67,3.65,5.71.57,8.79-1,1-1.47,1.87-.73,3s1.81,0,2.65.18c2.53.44,6.08-1.74,7.42.54,2.91,4.92,7.88,4.75,12.16,6.05,3.35,1,5.54-1.78,4.56-5.27a16.23,16.23,0,0,0-3.9-6.87c-2.11-2.21-2.12-5,0-6.62,2.31-1.76,3.94-4.19,6.71-5.6C143.21,406.12,146,403.18,149.07,400.76ZM250.66,293.32c-3.78-.31-7.45-.79-11.26.17-9.6,2.41-13.91.25-18.22-8.53a9.82,9.82,0,0,1-.58-1.38c-.57-1.8-1.82-2.36-3.48-1.7-2,.79-.84,2-.33,3.22,1.13,2.65,1.49,4.91-.35,7.84-1.25,2-1.42,6.28-.08,7.9,2,2.44,1.41,4.71,1.77,7.12.19,1.25-.94,2.68.45,3.74,6.88,5.24,13.13,11.56,22.72,13.26-1.13-5.15-4.17-8.77-6.11-12.89-1.48-3.14-2.1-6.33,1.42-8.28C241.72,301,246,297.07,250.66,293.32Zm-105.11-193c-1.93,6.18-.77,11.9-2.23,17.34-.77,2.9-1.55,4.38-4.67,4.54-1.64.09-4.92,1-3.92,2.56,2.54,3.88-.83,4-2.63,4.91.72,2.27,3.11.74,3.77,2.33,2.31,5.58,7,10.58,4.55,17.36-1,2.91-.68,5.93-1,8.89-.13,1.3-.36,2.82,1.14,3.52a3.76,3.76,0,0,0,4.19-.78c3.05-2.81,6-5.74,9-8.63a2.34,2.34,0,0,0,.72-2.25c-1.12-6.37-1.72-12.88-3.4-19.1a81.11,81.11,0,0,1-3-23.92A9.9,9.9,0,0,0,145.55,100.35Zm138,141.28c.08,7-4.34,6.42-8.47,6.31a34.87,34.87,0,0,0-9.93.68c-.9.23-2.18-.21-2.44,1.13s.91,1.94,1.91,2.56c3.38,2.11,6.61,4.49,10.11,6.36s4.11,4.41,3.17,7.9c-1.08,4-2,8.06-3,12.08-.24.91-1.16,1.92.11,2.56,1,.51,1.88-.34,2.55-1.09s.94-1.39,1.5-2c3-3.34,6.59-6.44,10.65-7.95,3.16-1.18,5.6,2.92,8.63,4.11.23.09.6-.16,1.48-.43C295.31,262.86,288,253.36,283.53,241.63Zm133.78,130c1.69-1.24-1.72-2.86.21-3.82,1.45-.71,2.79.68,4.15,1.16s2.17,1.56,3.37,2.1c6.57,3,11.51,9,19.1,10.12.55.08,1.49.7,1.47,1-.22,3.75,4.77,4.63,3.31,9.45,3-2.3,2.41-6.58,5.64-5.39,4.46,1.64,9-.54,13.34.9a4.08,4.08,0,0,0,4.56-1.12,29,29,0,0,1-10.28-1.39c-14.84-4.71-28.7-11.26-40.95-21.11-2.6-2.1-4.77-6.71-9.64-4.08-.21.11-1.08-.38-1.07-.57.15-4.88-4.73-4.42-7-6.65-.67-.65-1.63-1.55-2.53-.49s-1.07,2.48-.3,3.27C406.12,360.66,409.31,368.59,417.31,371.65ZM576.84,232.88a39.38,39.38,0,0,0,6-17.38c.42-4.8-.42-9.68.49-14.32,1-5.2,1.63-10.42,2.38-15.64.19-1.32.78-3.54-1.15-3.82-1.77-.26-2.25,2-2.32,3.29-.33,6-2.38,11.65-3.58,17.46-1.31,6.32-1.24,6.33-6.69,9.45-2.06,1.18-4,3.39-6.31.28-.15-.21-1-.12-1.35.11a1.86,1.86,0,0,0-.35,1.21c3.15,1.44,1.06,4.67,2.47,7,.33-1.85.47-3.5,2.52-4.27,1.83-.69,2.83-.88,2.91,1.48C572,223.18,576.86,227.12,576.84,232.88Zm-188,200c7.8-3.09-1.48-4.89,1.08-8.7s.94-6.4-3.21-9.53c.54,3.53,1,6.76.33,10a35.46,35.46,0,0,0,.56,17.16c.54,1.93.62,4.79,3.7,5.27,2.83.43,4-1.57,5.62-3.31,2.27-2.43,2.81-7.07,7.84-6.11-1-2.28-4.44-1.7-4.37-4.05.1-3.92-2.49-2.47-4.38-2.67C393.92,430.76,392.62,432.91,388.89,432.9ZM470.1,298.61c2.49.73,5.08-.07,7.1,2.16,1.15,1.26,3.92,1.21,5.22.26,4.7-3.45,10-1.47,14.92-2.15,1.74-.23,4.81,1.14,4.8-1.72,0-2.38-2.89-2.08-4.89-2-.36,0-.72-.32-1.08-.49,6.58.89,11.81-2.3,17.11-5.22-3.09-1.24-3.16-1.35-6.17.39-1.54.89-2.8,1.59-4.53.44-5.24-3.48-9.31-2.16-11.32,3.79-.43,1.26-.75,2.14-2.17,2.18a2.59,2.59,0,0,1-2.91-2c-1.48-3.84-5.78-4.39-7.71-.83-1.3,2.39-2.88,2.82-5.13,3C472.15,296.46,470.58,296.24,470.1,298.61Zm-73.92,94c-2.46,2.09-5,4.12-7.4,6.34-3.21,3,.25,5.57,1,8.06s2.17-.47,3.39-.6c5-.51,8.5-4.17,12.82-6.15,5.72-2.62,5.55-7.35.35-10.9A8.07,8.07,0,0,1,404,386.9c-.86-1.47-1.67-1.33-2.73-.36s-1.77,1.87-.64,2.92,2.44,2,.93,3.09c-2,1.54-2,4.32-3.83,5.93C395.25,396.82,398,394.47,396.18,392.57Zm24.26,58.94a34.21,34.21,0,0,1-5-1.87c-2-1.13-3.37-4.09-6-.52-1.43,2-5.07,2.13-4.64,5.76.24,2-1.18,3.39-2.09,5-1.78,3.05-3.58,3.33-6.19.61a15.73,15.73,0,0,1-3.4-5.95c-.36-1-.75-2.72-2.17-2.23-1.8.61-.76,2.21-.36,3.34,3,8.5,10.72,12.22,17.08,17.73.89-2,0-2.71-.73-3.24-3.64-2.49-2.86-4,.21-6.88C411.37,459.28,416.43,456.27,420.44,451.51Zm227.07-332h-.25c.08-1.32.27-2.64.24-3.95,0-1.93,1.18-4.49-.59-5.63-2.07-1.34-3.31,1.42-4.92,2.38s-3,2-4.6,3-2.57,2.18-2.09,4.08a23.82,23.82,0,0,1,.29,9.4c-.22,1.52-.11,2.53,1.81,2.76,8.61,1,10.54-.76,10.25-9.52C647.62,121.13,647.56,120.3,647.51,119.47Zm-334,191.33-1.19-.57c-.48,5.83-2.95,9.55-8.88,9.63-1.15,0-2.3.19-3.45.26s-2.41.21-2.9,1.47c-.55,1.44.65,2,1.56,2.72,3,2.34,6,4.7,8.87,7.14,1.15,1,2.14,2.33,3.78,2,2.11-.39,1.49-2.24,1.51-3.65a3.09,3.09,0,0,1,1.71-2.78c3.42-2.12,2.41-5.54,1.91-8.42C315.91,315.93,314.47,313.41,313.46,310.8Zm-13.2,119.6c-.11,2.86,6.39,14.12,8.28,14.91.89.37,1.56-.2,2.15-.82,1.57-1.65,1.63-11.53-.35-12.42-6.14-2.75-7.18-9-10.37-13.83-.65-1-.54-3.26-2.29-2.59s-.6,2.56-.37,4C298,423.5,302.67,426.37,300.26,430.4Zm62.39,15.08c2.69,1.18,5,2.54,7.52,3.2,4.16,1.1,7.43,2.8,8,7.56.13,1,.42,2.14,1.72,2s1.22-1.35,1.38-2.31c.87-5.16-.14-10.26-.53-15.37-.11-1.49-1.24-3-2.57-1.81C373.9,442.64,367.76,441.78,362.65,445.48Zm233.27-147c-2.6-1.19-4.58-2.5-5.84-5-1.77-3.54-4.76-.83-6.24,0-2.39,1.26-2.28,2.09-3.28,1.08-3.06-3.12-5.53-4.27-8.13.64-.94,1.77-2.8,3.21-1.51,5.22,1.17,1.81,3.41,1.08,5.07.62,2.54-.69,4.91-2.23,7.68-1.32C587.87,301,591.81,299.55,595.92,298.49ZM400.71,524.75a4.11,4.11,0,0,0,1.4,3.57c1.63,1.2,3.86,1.63,5,0,2.32-3.42,7.4-6,6.67-10-.43-2.34-5.48-4.21-9-5.24a1.69,1.69,0,0,0-2.21,1.44C401.9,517.91,401.32,521.33,400.71,524.75ZM706.9,265.15c-1.55-2-2.66-2.17-3.6-1.14-1.66,1.82-3.4.52-4.39-.31-3.22-2.65-5-3-5.56.88-.87,5.7-5.22,5.33-8.4,7.23-1,.6-2.64.43-2.85,1.52,3.33,5.43,8.32,5.29,11.07,1.49C696.72,269.92,700.55,266.38,706.9,265.15ZM365.22,333.54c-.69-3.56-1-6.5-1.85-9.3-1.93-6.56-4.06-8.18-10.82-8.8-1-.09-2-.48-2.68.6s.16,1.8.72,2.63C354.37,324.31,359.31,328.8,365.22,333.54ZM445.52,536a4.9,4.9,0,0,1-.55.2c-7.54,2-17.39,14.61-17.68,22.66,0,.83-.12,1.76.76,2.19,1.29.63,1.76-.46,2.23-1.31,1.91-3.49,4-6.86,5-10.83a9.17,9.17,0,0,1,6.72-7.23,7.56,7.56,0,0,0,4.75-3.35C447.39,537.15,447.22,536.06,445.52,536ZM608.08,165c.51-4-1.5-5.29-3.94-5.52-2.61-.24-2.83,2.09-3.36,4.07-.3,1.16,1.91,2.75-.14,3.2-2.84.62-2.89,2.95-3.63,4.79-.44,1.1-1.67,2.56-.44,3.66,1.39,1.25,3.26.8,4.63-.17C605,172.33,606.93,168.37,608.08,165Zm109.41,85.11c-5.44.1-11.08-.14-11.1,7.77,0,1.73-1.72,1.1-2.72,1.43s-1.45,1.56-.6,1.69c2.84.42,6.74,2.28,8.41,0C713.85,257.7,719.29,255.93,717.49,250.08Zm-212.63,294c-2,.07-4.2.54-5,3.26-.88,2.89,1.69,3.1,3.26,4.05s3.13,1.83,4.72,2.71c2.18,1.21,3.64.6,4.78-1.64C514.93,547.94,511.74,544.2,504.86,544.13ZM206.36,424.07l-.11,1.22c3.67,1.25,7.27,2.76,11,3.68a5.64,5.64,0,0,0,6.83-4.24c.78-3.12-2.9-3.61-4.81-3.4C214.93,421.79,210.66,423.1,206.36,424.07Zm84.28,10.48c-.24-1.41-1.25-1.76-2.5-1.93a30.8,30.8,0,0,0-12.32.27c-.95.26-2.26.26-2.4,1.38-.2,1.64,1.52,1.29,2.41,1.85,4.49,2.81,9.12-2.05,13.66.28C290.05,436.69,290.67,435.46,290.64,434.55ZM561.18,289c-2.06.4-5.36-.57-5.15,3.38s4,3.77,6,3.46c1.8-.28,6,1,5.68-2.65C567.47,290.21,564.59,288.79,561.18,289Zm-64.12-81.1,1.29-.25q-1.55-7.05-3.1-14.09c-.58-2.57-1.11-5.14-1.81-7.67-.31-1.13-1.1-2.3-2.49-1.75s-1,1.88-.36,2.88c2.06,3,1.9,6.6,2.63,10C494,200.82,494.73,204.68,497.06,207.93Zm113-43.28c.17,1.18-.4,2.63,1.06,3.1,1.66.54,2.46-.95,3-2a68,68,0,0,0,2.72-6.86c.31-.84.23-1.76-.77-2-2.29-.51-5.17-1.88-6.76-1-1.84,1,1.17,2.9,1.35,4.54A16.44,16.44,0,0,1,610.07,164.65Zm12.61,137.88c-2.12,3.65-4.67,5.72-7.13,7.92-1.48,1.32-4,3.21-1.87,5.24,1.79,1.73,4.15.79,6-1.36C622.38,311.06,623.53,307.51,622.68,302.53Zm23.2-132.88c3.71.06,5.55-.86,5.62-2.38.06-1.3-5-7.19-6.26-7.22a2.48,2.48,0,0,0-2.68,3.28C643.16,165.83,643.24,168.94,645.88,169.65ZM454.26,280.14c-1.15,2.75-2.17,5-3,7.27-.49,1.35-1.17,2.95.32,4.12s3.26.26,4.76-.16c2-.57,1.25-2.34,1-3.76A13,13,0,0,0,454.26,280.14ZM391.2,484.27c-.17,2.64.52,4.22,2.27,5.23.88.51,2,.05,1.93-.74-.27-4.58,1.74-9.2-.3-13.76-.44-1-.81-2-2-1.53-1.42.61-.58,1.58.07,2.33,1.41,1.62.39,3-.3,4.53S391.59,483.34,391.2,484.27Zm27.7,31.85c6.85,4.71,21.77,3.27,25.23-2.36C436.28,517.25,428.15,517.29,418.9,516.12Zm-85.63-292.9c-3.15-1.42-4.74-2.51-4.5-5.45a3.37,3.37,0,0,0-4.72-3.48c-3.15,1.27.15,2.23.73,3.33.13.24,0,.62,0,.93C325,223,327.41,224.62,333.27,223.22Zm267.58,77.94c2.48,1.3,6.28,2.27,1.83,5.18-.59.38-.28,1.11.25,1.68,2.51,2.66,7.75,1.61,9.92-2.52a14.62,14.62,0,0,1-2.49,1.12,8.7,8.7,0,0,1-2.45.11c-1-.07-1.86,0-1.44-1.7C607.34,301.52,605.49,300.12,600.85,301.16ZM421.39,537.85c2.34-1.54,5.15-3.08,6.17-6.3.41-1.3,1.64-3.28.29-4.09-1.9-1.13-2.71,1.18-3.68,2.38-1.44,1.79-2.83,3.64-4.11,5.55C419.37,536.42,419,537.61,421.39,537.85ZM601.65,233c1.5,3.44-2.77,3.53-2.58,4.57.87,4.56,4,6.32,7.06,2.22C608.12,237.15,604.61,235.08,601.65,233Zm-39.87,39c-1.52.78-4.56.27-4.86,2.29-.35,2.32,2.7,1.63,4.18,2.37a13.72,13.72,0,0,0,3.37.81c1.22.25,2.7,1.35,3.5-.35s-.67-2.79-1.81-3.68A6.36,6.36,0,0,0,561.78,272ZM511.36,516.93c-.33-1.84-.67-4-3.38-3.66-1.6.21-4.39-.43-4.36,2,0,2.7,2.64,4,5.09,4.49C510.59,520.15,511.28,518.79,511.36,516.93Zm85.33-320.44a7.45,7.45,0,0,0,.62,2.27,2,2,0,0,0,1.74-.25c1.27-1.88,2.74-3.77,3.32-5.89.23-.85,0-3.35-1.6-3.77-2-.52-2,1.67-2.72,2.87A9.16,9.16,0,0,0,596.69,196.49Zm-109.57-12c0-1.47-.85-2.12-1.24-3-1.41-3.11-4.95-2.82-7.09-4.72-.73-.64-1.72-1.46-2.51-.42s.19,1.84,1,2.38c2.85,1.87,6.15,3.18,7.8,6.52.14.29,1,.56,1.22.4A3.84,3.84,0,0,0,487.12,184.45ZM127.82,533.31c-2.77-1-4.74,1-7,1.7-1.76.56-1.56,2.33-1.37,3.8.07.58.45,1.56.8,1.61,1.47.2,2.35-.87,3-2C124.53,536.52,127.05,535.74,127.82,533.31Zm382.36-231c.88-.4,2.41-.66,1.9-1.3-1.43-1.81-.27-5.54-3.73-5.62-1.28,0-3.53.91-3.37,2.37C505.29,300.56,508.28,301,510.18,302.33Zm99.1-182.21a20.14,20.14,0,0,0-.94,12.15c.16.94,0,2.23,1.4,2.17a1.89,1.89,0,0,0,1.77-2.49C609.94,128.64,610.53,124.93,609.28,120.12Zm-56,107c-1.26,3.55,2.28,3.22,4.35,4.1a1,1,0,0,0,1.24-1.46c-1.23-1.93-.13-5.48-3.72-5.73C553.54,223.94,552.71,224.91,553.28,227.14ZM417.36,552c-.21-.85-.68-1.77-1.53-1.71-2.94.2-4.14,3-6.17,4.5a1.09,1.09,0,0,0,0,1.72,1.1,1.1,0,0,0,.41.26C411.58,557.4,417.54,553.51,417.36,552ZM523.47,273.52a3.87,3.87,0,0,0-.68-1.12c-.83-.68-7.66,1.89-7.79,3-.07.58.12,1.54.52,1.78,2.21,1.32,3.4-1.46,5.39-1.5A2.44,2.44,0,0,0,523.47,273.52Zm-8.9-71.76c2.69,0,5,0,7.21-1,.8-.36,1.62-.71,1.28-1.74s-1.3-.78-2.11-.7c-2.07.22-3.45,2.88-6,1.63a2.85,2.85,0,0,0-3.66.51,1,1,0,0,0,0,.92C512.31,202.81,513.72,201.57,514.57,201.76ZM601.85,318.7c2.15.06,3.59-.61,3.62-2.73s-1.65-2.3-3.16-2.32c-1.2,0-3-.46-2.88,1.65C599.52,316.91,599.62,318.82,601.85,318.7ZM549.33,215.1c2.35-4.54,1.36-8.11,2-11.45.18-.93-.19-1.64-1.23-1.71-1.23-.08-1.27.68-1,1.59C549.93,206.94,549.07,210.39,549.33,215.1Zm-26.67,75.31c-2.6.6-5.77-.43-7.29,2.69-.41.83.45,1.56,1.25,1.84C520.79,296.39,520.32,291.58,522.66,290.41ZM397,469.07c-.26-1.46-.51-3.08-2.4-3.27a2.35,2.35,0,0,0-2.69,2.33c-.25,2,1,2.62,2.7,2.72C395.88,470.92,397,470.76,397,469.07Zm2,38.34a8,8,0,0,0-4.82-4.19c-.64-.19-1.67.44-1.33,1,1.25,2,2.63,4.16,4.86,5.25C398.42,509.81,399,508.7,399,507.41ZM475,170.79c1.75.08,3-.48,2.91-2.47,0-1.36-.79-2.33-2.17-2.09s-3.21.44-3.37,2.34C472.17,170.27,473.47,170.76,475,170.79Zm86.56,136.59c-3-1.71-5.9-2.17-8.07-1.25C558.4,308.85,558.4,308.85,561.51,307.38ZM480.56,195c-.68-1.39-1.13-3.32-3.18-3.72-1.36-.26-1.47.93-1.5,1.93-.07,2.33,1.71,3,3.43,3.5C480.24,196.93,480.76,196.19,480.56,195Zm122.7-45c2.54.46,5,1.25,7.61.22a1.74,1.74,0,0,0,0-1.21,9,9,0,0,0-7.4.15C603.35,149.1,603.37,149.35,603.26,149.9Z" transform="translate(-13.96 -10.34)"/><path d="M670.92,424.92a35.65,35.65,0,0,0-17.85-12.1c-2.1-.67-3.14.42-4.48,1.19-1.51.86-2.56,2.56-4.91,2.6,2.15-5.65,4.2-10.81,10.28-13.17,2.14-.83,3.82-4.19,4.26-5.37,2.1-5.74,6.83-8.51,11.07-11.64,10.05-7.42,18-17.16,28.09-24.56,3.91-2.87,9.29-4.91,10-10.94-6.43-.55-7.13,7.62-13.13,8.31.22-3.62,4.29-6.85.59-10.83-1.88,3.47-2.77,7.47-5.61,10.53-3.56,3.84-4.25,4.16-7.9,0-1-1.16-1.66-.45-2.51-.08-1,.44-2.36,2.09-3-.22-.42-1.54-.68-3.33,1.67-4a30,30,0,0,0,13.42-8.25c2.13-2.19,5.43-1.54,7.3-.88,2.84,1-.3,4,.11,6.15,3.08.58,3.3-2.39,4.7-3.74,1.91-1.85,3.88-2.71,5.22,0,1.8,3.6,3.66,2.48,5.82.75,3.33-2.68,6.47-5.62,10.85-8-.39,3.92-.9,6.63-5.14,7.1-1.64.18-4.06,1.46-4.45,2.74-.43,1.43,1.38,3.15,3.27,3.67-.62,2.14-3.61,1.39-3.84,4,2.63.86,5.12,2.61,7.63-.67.87-1.13,2.63-1.24,4.19-1.27s3-.69,3.16-2.51c.07-.76,0-2-.51-2.27-1.38-.86-2.41.59-3.62,1-.75.25-1.48.52-2.5.88,3-6.48,6.64-6.77,11.18-2.24,2.17,2.17,5.64,3.07,8.46,4.74a8.33,8.33,0,0,1,3.8,10.06c-1.32,3.94-1.35,9-5.77,11.68-1.27.77-.92,2.68-.89,4.21a53,53,0,0,1-2.66,16.39c-1.72,5.72-3.74,6-7.91,1.92-.5-.48-1-1.08-1.64-.58a3.19,3.19,0,0,0-.77,1.7c-3.28,14.47-4.31,29.14-4.18,43.95,0,5.62.19,11.34-2.58,16.57-.31.58-.81,1.39-.62,1.86,3.83,9.69-1.71,18.81-1.92,28.3C717.41,500,716,508.5,711.16,516c-3.35,5.13-4.9,11-2.78,17.56,1.52,4.69.31,9.19-3.43,13.19s-4.26,9.57-4.23,14.91c0,1.86-.6,3-2.18,3.28-6.12,1-9.39,5.94-13.35,9.72-2.18,2.08-4,3.54-7.13,3.53-41-.08-82,0-123-.09-1.22,0-2.93.75-3.59-.8s1.21-2.11,2.06-3c2.52-2.49,2.72-4.52-.31-6.92s-4.56-6-2.61-9.33c2.41-4.17,1.19-10.65,7.56-12.43.43-.12.84-1,.87-1.63.05-1.13-.9-1.13-1.75-1.18-1.27-.09-2.71.41-3.65-.95.07-.33,0-.79.21-.91,2-1.37,5.41-.9,5.59-4.71s-1.87-5.31-4.93-6.57a4.12,4.12,0,0,1-2.35-5.43c1-3.07,2.72-5.84,5.83-7.1,1.77-.72,2,1.24,2.51,2.38,1.26,2.93,2.9,4.86,6.46,3.16,2.15-1,2.17.53,2.06,2s.12,2.52,1.71,2.34,1.24-1.62,1.21-2.76c0-1.32-.43-2.88.12-3.92,1.78-3.4-.73-3.92-2.84-4.92-2.27-1.07-5.38-.31-7.84-4.19,5.38.93,9.53,1.8,12.85,4.9,7.22,6.76,14.26,13.76,26.21,14.76-5,3.19-3,4.43-.33,5.85a23.36,23.36,0,0,1,9.61,8.45c.87-7.67-.76-13.1-4.94-17.75-.45-.5-.77-1.2-.22-1.78a1.25,1.25,0,0,1,2.09.33c1.39,3.2,6.21,4.1,5.6,8.73-.19,1.46,1.67,2.2,2.89,3.12,6,4.53,12.38,8.63,17.57,14.21a4.21,4.21,0,0,1,1.35,4.29c-.89,4.7,1.1,9.1,2.25,13.56.42,1.61,1.85,1.73,3.22,1.76,5.5.15,10.72.24,15.25-4.18,5.76-5.6,9.73-12.32,14.5-18.74-2-1.11-2.53.07-3.28.88-2.47,2.7-4.94,5.4-7.47,8-.78.82-1.69,2-2.94,1.39-1.47-.76.09-2.13-.19-3.08-2-7,3.27-9.63,7.34-13.55,6.25-6,11.14-13.19,13.19-21.91.25-1.09,1.2-2.45-.39-3-1.77-.57-3,.67-3.07,2.35a12.69,12.69,0,0,1-3.81,8.83,5,5,0,0,1-.91-.7c-1-1.34.59-4.6-1.92-4.3-2,.24-.56,3.1-.91,4.76-.29,1.38,1,3.43-.77,4-2,.71-2.54-2.35-4.44-2.57a1,1,0,0,0-.35,1.63c4.11,4.65,4.12,4.62-1.11,7.72-1.15.68-2.2,1.51-3.38,2.14-7.14,3.8-10.38,2.94-14.58-3.82-2.5-4-2.5-4-2.61-6.77,3.57,2,5.13,5.58,7.59,8.28.92,1,1.68,3.51,3.14,2.31,1.8-1.47-.53-2.79-1.48-4-2.13-2.74-4.29-5.46-6.49-8.26.95-1.71,2.74-1.75,4.2-2.3,2.05-.79,4.65-1.75,5.2-3.56,1.81-5.86,6.9-7.35,11.26-10.32,10.95-7.46,19.27-17.2,21.7-30.83.34-1.9,1-4.28-2.6-3.69-1.1.18-1.3-.77-1.14-1.68.58-3.55-1.62-4.65-4.5-5.14l.14.12c5.38-6.12,11.15-12.05,10.48-21.16-.13-1.72.36-3.48-1.57-4.9-1.53-1.11-1.07-2.84.39-4.24,2.58-2.47,3.47-9.88,1.65-12.64-.45-.69-.95-1.57-1.9-1.24a2,2,0,0,0-1,1.47c-.2,7.08-7.16,8-10.87,11.84-.82.85-2.83.95-2.85,2.38,0,2.15,2.48.54,3,1.43,2.1,3.35,6.51-.15,8.57,2.95.19,1.87-5.18-.62-2.35,3.62,4.08,6.08,3.47,8.21-1.79,13.86a6.77,6.77,0,0,1-1.84,1.48c1.33-6.09-2.64-9.39-6.06-12.93-2.92-3-5.89-3.68-9.55-.71-3.42,2.77-2.41,5.25-.76,8.53-1.55-1.4-3.19-2.72-4.63-4.22-1.69-1.76.16-2.56,1.17-3.53,4-3.78,8.54-7.11,11.79-11.43,5.15-6.85,11.8-12.33,16.75-19.22,3.14-4.37,4.75-9.39,2.26-15.18-.9-2.1-3.66-1-3.63-3.21,1.51-2.38,4.86,2.74,4.93-.78,0-2-3-5-5.32-5.9s-.62,3.09-2.91,4.05c-1.62-5.53-7.13-5.62-11.27-6.85-2.87-.85-5.32,3.27-8.16,5.19.59.3,1,.64,1.12.55,4.33-2.75,6.75-1.83,10.16,2.52,2.61,3.33,5.62,8.18,11.34,8.29,1.56,0,.89,1.53.73,2.32a1.48,1.48,0,0,1-2.23,1.2,20,20,0,0,1-2.83-2.31c0,3.52-5,6.77,1.39,9.19,1.35.52.13,2.43-.66,3.45s-1.87,2.51-3.7,1.44c-1.29-.75-2.56-1.52-3.84-2.27ZM566.82,547.84c-1.8.14-3.6.37-5.4.39a3.61,3.61,0,0,0-3.68,2.63c-.88,2.22.16,3.91,1.24,5.5s2.9,1.14,4.46.45c1.8-.8,3.54-1.74,5.36-2.52a3.18,3.18,0,0,0,2.14-3.93C570.45,548.23,568.85,547.57,566.82,547.84ZM732.38,369c1.13-2.5-3.41-4.47-2.33-7.93a3.1,3.1,0,0,0-1.3-3.91c-1.23-.64-2.15.39-3.12,1-1.68,1-2.45,2.78-1.5,4.21,2.18,3.27,2.56,7.07,3.84,10.6.36,1,.53,2.54,2,2.5s1.49-1.58,1.84-2.6A27.25,27.25,0,0,0,732.38,369Zm-57.69,139.4c-3.15.05-5.33.69-5.24,3.49.06,2.26,1.11,4.31,4,3.93,2.65-.35,5.19-1.69,5.3-4.42S676.06,508.57,674.69,508.38ZM731.91,364c3.06-1.95,3.57-2,6.56-.32,1.65.9,2.48-.34,3.3-1.33s.64-1.79-.73-2.66C736.76,357,733.58,356.69,731.91,364Zm-57.42,173c3.5-2.08,2.41-5.85,4.46-8,.18-.19-.22-1.26-.63-1.62-.76-.68-1.52-.16-2.12.44C673.69,530.35,673.74,533.32,674.49,537.06Z" transform="translate(-13.96 -10.34)"/><path d="M375,719.52v23.34c0,34.33-.1,68.66.09,103,0,4.73-1.08,6.34-6,6.14-9.06-.38-9.05-.09-9.06-9,0-68.32-.24-136.65,0-205,.05-14.3-1.09-28.59-.12-42.89.22-3.29.22-5.24,4.86-4,10.44,2.81,10.06,2.53,11.6,12.78,2.43,16.23,4.57,32.51,6.86,48.75,2.37,16.75,4.54,33.56,6.8,50.33,1.14,8.5,1.32,17.18,3.72,25.43,1.48.07,1.24-.87,1.24-1.36,0-42.94.06-85.88-.1-128.82,0-4.33.88-5.76,5.51-5.37,9.47.8,9.5.51,9.5,10.19q0,58,0,116c0,9.43.49,18.9-.15,28.29-.61,9.11.42,18.15.16,27.22-.72,24.28-1.64,48.56-1.08,72.85.08,3.51-1.09,4.56-4.56,4.55-9.22,0-9.44.18-10.79-8.91-2.57-17.42-4.7-34.92-7.31-52.34-2.37-15.87-4.31-31.81-6.89-47.66C378,735.21,377.24,727.29,375,719.52Z" transform="translate(-13.96 -10.34)"/><path d="M577.79,798.54c0-15.17-.52-30.35.11-45.49,1.17-27.82-.4-55.66.78-83.44.92-21.66.19-43.3.67-65,.14-6.19,1-6.89,7.09-6.18,5.77.67,11.55,1.3,17.35,1.56,10,.45,13.65,3,16.68,13.12,3.83,12.81,5.09,26,5.26,39.34.18,15.16.93,30.37-.54,45.45-1.5,15.45-2.55,31.18-10.43,45.23-.82,1.48-1.54,2.73-.57,4.6,4.29,8.31,4.89,17.6,5.91,26.59,2.62,23.06,4.49,46.21,6.7,69.32.78,8.18.84,8.18-7.66,8.17-9.73,0-9.67,0-10.56-9.65-1.86-20.2-3.52-40.42-5.84-60.56-.85-7.37-.77-15-3.39-22.06-.72-2-.56-5.58-3.61-5-2.65.49-1.4,3.7-1.41,5.67-.11,15.33-.35,30.67,0,46,.33,14-1.25,27.91-1.1,41.87,0,2.75-.81,3.89-3.71,3.81-14.45-.37-11.55,1.86-11.73-11.39-.19-14,0-28,0-42Zm18.12-119.92h-.44c0,7.14,0,14.29,0,21.43,0,1.57-.76,3.73,1.12,4.49a7,7,0,0,0,6.67-.56,10.2,10.2,0,0,0,4.38-6.46c2.36-12.61,3-25.26.56-38a9.15,9.15,0,0,0-3.13-5.5c-2.31-1.95-5.12-1.68-7.6-1S596,656.36,596,658.2C595.85,665,595.91,671.81,595.91,678.62Z" transform="translate(-13.96 -10.34)"/><path d="M765.15,586.55c1.32,25.58-1.43,50.94-.19,76.64-1.45-.56-1.9-2.08-3.61-2.1-6.82-.09-13.64-.43-20.44-.86-3.41-.21-4.48,1.57-4.49,4.5,0,11.16,0,22.32-.09,33.49,0,3.34,1.95,3.77,4.56,3.75,5.33,0,10.67.1,16,0,3.25-.09,4.29,1.32,4.4,4.46.54,15-1.86,29.9-1.13,44.88.13,2.61-1.41,2.91-3.52,2.88-5.67-.08-11.34.1-17-.06-3.1-.09-4.5.78-4.5,4.19q0,20.72-.49,41.45c-.09,3.58,1.25,4.7,4.65,4.57,4.66-.19,9.33,0,14,0,8.13,0,10.46-1.93,11.91-10.24,2.77-15.92,8-31.2,12.1-46.89.36,8,1.33,16-.27,24a100.84,100.84,0,0,1-2.28,10.23c-1.43,4.58-1.8,8.74,2.12,12.39,1.3,1.21,1,3.11,1,4.76,0,16.33,0,32.67.11,49,0,3.63-1.5,4.47-4.81,4.45q-25.5-.2-51,0c-3.39,0-4.68-.84-4.63-4.45.53-43.3.32-86.62,1.55-129.91q1.49-52.17,1.57-104.34c0-1.5.11-3,.16-4.49.1-3.43,1.56-4.84,5.29-4.84,11.65,0,23.17,2.08,34.83,2,3.8,0,4.41-1.12,4.24-4.42C765,596.5,765.15,591.52,765.15,586.55Z" transform="translate(-13.96 -10.34)"/><path d="M75.43,663.52c-6.28-.53-6.88-1-6.87-7.8a50.45,50.45,0,0,0-2.12-16.22c-1.51-4.59-4.94-3-7.82-3.19-3.67-.18-2.52,2.81-2.55,4.7-.13,6.8,0,13.59-1.13,20.37-.53,3-2.21,4.86-3.88,7.25-1.92-2.23-.46-4.64-1.63-6.36-2,1.09,1.37,7-4.58,5.1-.31-.1-1.38,5.17,0,7.21a25,25,0,0,1,4.45,13c.27,5.72,1.39,10.44,7.27,13.41,2.26,1.14,3.31,4.82,4.73,7.44,1.58,2.91,2.69,3.22,4.87.25,2.53-3.45,4.14-7.58,7.49-10.41,1-.86,1.84-2.81,3.67-1.45a3.69,3.69,0,0,1,1.6,4c-1.19,3.78-.13,6.84,2.32,9.69,1.18,1.37,1,3.13,1.09,4.77.11,2.11-.61,2.77-2.65,1.57a31.94,31.94,0,0,0-8.41-3.69c3.93,2.24,5.14,8,11,7.75,2.83-.13,3,2.6,3.63,4.62,1.79,5.61,1.33,11.51,2.07,17.26A234.4,234.4,0,0,1,89.35,791c-1,12.64-1.52,25.56-6.1,37.7-3.77,10-10.09,14-20.68,13-5.79-.54-11.62.26-17.41-1.05-2.88-.65-4.07-1.82-4-4.58,0-.67,0-1.33,0-2,.34-32-1.12-63.92-1.11-95.89,0-23.44.23-46.92-.72-70.33-1-24.66-.17-49.29-.65-73.92,0-.83,0-1.67,0-2.5.73-8.38,2.3-9.82,10.63-9.82h15c7.31,0,10.28,2.1,13,9,3.3,8.42,4.63,17.29,6.14,26.13,2.19,12.88,1.13,25.87,1.57,38.81.11,3.51-.57,6.19-4.1,7.25s-3.75,3.47-3.68,6.5a52,52,0,0,1-.62,10.44c-.33,1.74.38,5.17-2.93,4.78a6,6,0,0,1-4.86-5.06c-.65-4.12-.81-8.28,3.3-11.26C73.58,667.08,75.4,665.85,75.43,663.52Zm-3,96c.11-6.06.09-11.87-1.34-17.57-1.55-6.23-5.81-8.82-11.92-7.47-1.75.38-2,1.46-2,2.89q.26,22.17.49,44.34c0,2.26,1.08,3.15,3.34,3.35,6.23.56,9-1.25,10.13-7.44A75.56,75.56,0,0,0,72.39,759.49Z" transform="translate(-13.96 -10.34)"/><path d="M336.61,625.34c1.94,3.74,1.4,7.48,1.65,10.95,1.85,26,4.25,52,5.83,78.05,1.3,21.32,3.37,42.6,5.11,63.89,1.18,14.53,1.46,29.16,3.62,43.56,1.18,7.92.21,15.93,2.09,23.76.45,1.89,1.28,5.19-1,5.87-3,.93-6.54,1.37-9.6-.77-5.67-4-7.16-10-7.31-16.22-.18-7.29-1.18-14.66.76-21.88,1.15-4.27-1.88-6-4.67-7.75-1-.62-2.73-.4-2.77,1.06-.17,5.28-4,4-6.87,3.84-3.63-.15-5.57.35-6.21,4.8-1.15,8-.88,15.93-1.16,23.88-.44,12.53-2.35,14.27-14.8,12.08-2.42-.43-2.56-1.84-2.35-3.52,1.19-9.75.26-19.81,4.85-29.05,1.13-2.27,1.31-5.19,1.32-7.81,0-9.14.7-18.31-1.06-27.4-.28-1.43-.47-3.24.15-4.42,3.05-5.76,2.44-11.71,2.06-17.92-1-16,.9-31.9,2-47.82q1.74-25.86,3.53-51.72c1.33-18.7,2.76-37.4,4.11-56.1q.33-4.49.44-9c.08-2.94.63-5.29,4.33-5.35s6.49,2,6.76,5.24c.35,4.13,1.76,8.26,1.28,12.34-1.09,9.33,2.5,18,3.1,27.1.06.82.16,1.8,1.14,2,1.36.25,1.5-1,1.82-1.87C335.88,632.16,333.92,628.58,336.61,625.34Zm-11.25,44.25c-.44,7.67-.94,15.33-1.28,23-.26,6,.1,12-.52,17.94-1.36,12.87-2.28,25.75-2.38,38.69,0,1.13-.31,2.67,1.08,3,2.75.68,5.79,1.1,8.33-.08s1.2-3.82,1.11-5.89c-.61-13.25-3-26.42-2.29-39.71.44-8.37-1.3-16.5-2-24.73C327.06,677.79,327.82,673.6,325.36,669.59ZM307.9,812.23c.18,5.88-.8,11.81.81,17.58.31,1.14.25,3.14,2.1,2.75s1.08-2.22,1-3.41C311.44,823.36,308.8,818,307.9,812.23Z" transform="translate(-13.96 -10.34)"/><path d="M157.73,666.6c6.25,4.67-1.8,9.92,2.22,14.16,2.06-.68,2.71-1.8,2.92-4.78.6-8.41-5.64-15.19-4.75-23.56.84-7.94-.21-16.4,2.27-23.72,1.88-5.57.28-9.46-.91-14.06a10.15,10.15,0,0,1-.43-1.95c-.16-2.29.33-5.15,2.55-5.32,2.59-.2,2,2.78,2.14,4.66.06,1-.11,2,1.07,2.92,1.69-2.3,1-4.36,0-6.47-2.73-5.93-3-12.2-2.68-18.58.13-2.62.73-4,3.85-3.53,3.93.64,7.92.92,11.9,1.17,3.4.21,3.49,3.05,3.68,5.07,1.25,13.22,2.11,26.49,3.3,39.72,1.22,13.57,1.22,27.24,3.33,40.75.59,3.77.66,7.62,1,11.43.09,1,.17,2.31-.79,2.71-3.4,1.43-2.85,5-4.33,7.35-5.36,8.65-2.08,17.25-.55,25.89s-1,16.88-1.45,25.32c-5.67-26.69-7.23-53.75-9.14-80.95-1.81.88-1.32,2.36-1.36,3.5-.34,8.78-.35,17.58-.92,26.35-1.11,17.07-2.65,34.13-2.43,51.26a64.82,64.82,0,0,0,1.57,12.78c.7,3.27,2.18,6.39,6.49,3.18.51-.38,1.55,0,3.14,0-2.7-2.81-2.88-5.86-2.45-9,.12-.85.44-1.77,1.43-1.71s1.18,1,1.26,1.87a2.07,2.07,0,0,0,0,.5c.63,1.76-1.34,5.09,2.11,5.06,3.22,0,3.4-3.35,3.65-5.74a147.45,147.45,0,0,0,1.14-16.37A129.85,129.85,0,0,1,188,715.7a5.88,5.88,0,0,0-1.91-5.56c-2.56-2.6-.39-6.24.5-9.35a1,1,0,0,1,1.63-.41,5.55,5.55,0,0,1,2.12,3.84c.56,4.79,1.62,9.6,1.49,14.37-.48,17.13,3.43,33.82,4.63,50.78.87,12.39,1.81,24.82,3.22,37.13,1.33,11.7,1.34,23.51,3.26,35.14.55,3.29.16,5.57-4.46,5.56-11.94,0-11.9.2-12.89-11.51-.79-9.42-1.77-18.83-2.47-28.27-.18-2.39-1.11-3.25-3.35-3.21s-4.66,0-7,0c-10,.17-8.12-1.4-8.67,8.64-.48,8.85-1.65,17.68-1.1,26.61.37,5.94-.85,6.87-6.5,5.95-3.14-.51-7.33,2.18-9.17-1.18-1.34-2.46-.41-6.18-.45-9.34-.16-14.65,2-29.16,2.73-43.76,1-20.56,3.08-41,3.77-61.65.26-7.66,0-15.61,2.62-23.14,1.08-3.09.28-6.35.21-9.55A182,182,0,0,1,157.73,666.6Z" transform="translate(-13.96 -10.34)"/><path d="M525.91,731.92c0-46.58,0-86.23,0-125.87,0-1.67,0-3.34.19-5,.34-3.68,1.85-5.2,5.94-4.09,6.33,1.72,12.92.69,19.38.63,5.21-.05,8.38,2.08,10.58,6.64,4.72,9.8,6.07,20.36,7.18,30.93A339.35,339.35,0,0,1,571,676.48c-.36,20.6-1.06,41.19-5.22,61.48a53.43,53.43,0,0,1-6.13,16.72c-2.75,4.65-6.75,6.93-12,6.47-4.74-.41-5.86,1.46-5.79,6,.25,15.82.19,31.65,0,47.47-.09,11-1.13,21.94-.6,32.93.15,3.16-1,4.49-4.3,4.4-14.07-.38-11.46,2-11.49-11C525.47,802.26,525.22,763.62,525.91,731.92Zm28.53-51.83c0-4.22.19-7.06,0-9.86-.42-5.11-.64-10.27-2.58-15.13-1.31-3.26-4.49-3.26-7.11-3.58-2.12-.25-1.72,2.12-1.66,3.45.75,15.93-1.59,31.79-1,47.71.06,1.78-1,4.28,2.14,4.7,2.57.35,5,.26,6.56-2.36a19.61,19.61,0,0,0,2.4-7.54C553.87,691.25,555,685,554.44,680.09Z" transform="translate(-13.96 -10.34)"/><path d="M661,741.85c-.91-14.81-.2-30.67.83-46.41,1.62-24.65,2.87-49.47,9.77-73.47.77-2.68.94-7.16,3.14-7.35,2.72-.23,6.14,1.93,8.13,4.63,1.66,2.26,4.4,3.6,5.31,6.5.56,1.77,2.13,1.76,3.69,1.87,4.35.32,7.13,3,10.32,5.83,7.51,6.69,7.07,15.45,7.77,24.06.52,6.28.87,12.58,1.44,18.86a9.27,9.27,0,0,1-3.13,8c-2.63,2.54-5,5.33-7.6,7.93-.86.86-1.54,2.6-3.14,1.83-1.45-.68-.92-2.35-.95-3.61a97.56,97.56,0,0,0-2.69-21.74c-.86-3.42-1-8.23-5.39-8.64s-4.64,4.53-5.88,7.55c-2.51,6.06-2.93,12.62-3.52,19a586.24,586.24,0,0,0-2.32,72.21c.39,13-.24,26.32,3.48,39.12.14.48,0,1.06.25,1.47,1.38,2.59,2.41,6.27,5.61,6.33,2.78.06,3.7-3.34,4.64-5.85,3.87-10.29,3.88-21.18,4.93-31.91.31-3.07-.48-7.6,2-8.55,1.92-.71,3.21,4.23,5.12,6.4,8.11,9.22,8.08,19.86,6.49,31.35-1.71,12.33-3.14,24.7-5.33,37-.84,4.73-2.33,9.35-3.44,14-.64,2.73-2.21,3.71-5,3.64-6.66-.17-13.33-.2-20,0-3.07.08-4.34-1.07-5.15-4-4.31-15.64-6.23-31.67-7.6-47.74A503.67,503.67,0,0,1,661,741.85Z" transform="translate(-13.96 -10.34)"/><path d="M236.8,649.51c-7.73,4-6.5,10-5.6,16.49.64,4.62,2.18,10-2.58,14-.81.68-.55,1.86.06,2.77,2.52,3.76,2.76,8.21,2.75,12.36-.14,38.46,1,76.92.12,115.38-.07,2.7-.25,5.22-1.78,7.63a9.65,9.65,0,0,0-.52,8.72c3.15,7.34,2.46,14.84,2.19,22.85-4.05-1.64-8.15-2.52-12.39-1.25-1.94.58-2.15-.87-2.53-2.18a30.43,30.43,0,0,1-1-8.4q0-39.72,0-79.46c0-15.25.36-30.5-.14-45.74-.29-9-.77-17.95-.59-26.93.21-10,1.52-20,.15-30.08-.11-.79-.06-2.25-.26-2.29-5.1-.85-4-4.86-4.26-8.15-.09-1-.31-2.16-1.51-2.26-1.49-.12-1.89,1.14-2.06,2.31a15,15,0,0,0-.11,3c.2,2.82-.79,4.42-3.87,4.52-2.84.09-4.53-.43-5.07-3.85-1.5-9.61-.79-19.19-.46-28.81.24-6.73-.36-13.49-.41-20.23-.09-12.41,0-12.32,12.17-12.23,10.32.08,20.65.14,31-.22,4.45-.16,6.5,1.31,6.58,5.72.09,4.65.38,9.3.41,14,.06,12.83.12,25.65,0,38.48,0,2.36,1.75,5.88-1.91,6.9C241.9,653.41,238.39,653.24,236.8,649.51Z" transform="translate(-13.96 -10.34)"/><path d="M444.59,676c1.75-15.12,3.45-30.24,5.26-45.35,1.29-10.71,2.82-21.39,4.06-32.11.33-2.82,1.6-3.66,4.24-3.51a68.34,68.34,0,0,0,9.49.08c4-.33,4.94,1.72,4.46,5.09-2.34,16.4-4.76,32.79-7.06,49.2-2.41,17.28-4.16,34.68-7.19,51.85-6.14,34.78-5.83,69.81-5.71,104.89,0,14-1.08,27.92-.8,41.89,0,1.6.34,3.46-2.14,3.78s-3.19-.88-3.44-3.08a53.28,53.28,0,0,0-1.36-6.81c-.23-1-.8-2.09-1.94-2s-1.28,1.34-1.3,2.35c0,2.16-.07,4.33-.08,6.49,0,2.42-1.41,3-3.57,3.09-2.41,0-2.64-1.37-2.68-3.22-.2-9,.7-17.95.82-26.92.33-24.31.48-48.63,0-72.94-.2-9.88-2.2-19.74-3.49-29.59-2-15.5-4.12-31-6.18-46.48q-4.8-36-9.59-72.07c-1-7.44-.83-7.7,6.53-7.6,10.57.14,10.66.13,11.85,10.57,2.19,19.27,4.21,38.56,6.43,57.83.56,4.87,1.59,9.69,2.4,14.54Zm-3.42,90.81c2.48-9.53,2.73-9.78,7-5.88.28-3.6,1.18-7-.82-10.25-.67-1.08-1.23-2.55-3-2.15-1.29.31-1.8,1.4-2.11,2.57A43.69,43.69,0,0,0,441.17,766.8Z" transform="translate(-13.96 -10.34)"/><path d="M543.15,451.4c.35,1.44.13,3.05-1.56,2.79-1.53-.24-.72-2-.45-3,.59-2.2.61-4.14-2.44-5.79,8.44-2.5,15.83-2.43,23.18.31,1.36.5,3.32,1.05,3,2.82-.41,2.06-2.46.92-3.82,1.12a13.72,13.72,0,0,0-2,.63c1.68,3.16,4.83.78,6.73,2.2,3.32,2.46,3.36-1.16,5-2.35,3.55-2.65,7.87-1,10.75.9,7.25,4.76,15.45,4.58,23.36,6,3.6.66,7.28.87,10.83,1.7,3,.7,4.24,3.83,6.37,5.74,3.68,3.33,6.84,7.24,10.18,11,.52.58,1.27,1.49,1.12,2-.3,1.08-1.54,1.24-2.53,1-6-1.21-12.29-1.18-17.34-5.36-6.9-5.71-15.22-9.36-21.94-15.47-2.29-2.08-6.43-2.86-9.74-2.9a10.57,10.57,0,0,1-7.6-2.87c-1.32,4.9-4.87,5.36-15.71,2.13,1.64,3-.09,5.11-1.62,7.1-1,1.33-1.7,2.59-.63,4s2.05-.22,3.05-.49a16.66,16.66,0,0,1,14.11,2.41c5.46,3.79,11.85,5.07,17.73,7.67,9.34,4.13,19.87,3.94,29.39,7.54,2.1.79,5.76.16,4.51,4.51-.08.28,1.48,1,3.13,2.11-5.81.43-10.44-1.52-15.77-2,3.6,3.81,6.29,8,10.13,10.37a46.86,46.86,0,0,1,11.24,9.46,21.29,21.29,0,0,0,7.84,6.06c.74.32,2.12.66,2.12,1-.08,5.16,2.75,1.36,4.28,1.44a3.48,3.48,0,0,1,1.77.42c-3.36,1.49-6.15,3.16-8.13,6.57-1.32,2.25-5.15.82-7.19-.85-2.64-2.16.64-3.48,1.87-5.2-14.76-3.13-25-12.8-35.69-21.64-2.92-2.4-6.56-5.21-2.6-9.79a1.73,1.73,0,0,0-.13-2.31c-1-.85-1.73,0-2.54.6-6,4.39-5.1,13.86,1.69,19.46,7,5.78,15.33,9.26,23.24,13.44,1.45.77,3.23.95,3.38,3.26H620c.37.61.49,1.11.8,1.3,3.51,2.19,7,4.42,10.59,6.43,1.3.72,1.9,1.63,1.14,2.7s-1.48.11-2.25-.61c-4.14-3.89-9.75-4.44-15.34-6.95,1.18,4.14,5.27,4.94,6.3,8.09.4,1.19,2.4,2.34,1.23,3.41-1.35,1.25-3.55,1-5.15-.1-3.31-2.21-6.32-4.8-8-8.57-1.34-3-3.11-5.15-7.2-3.21,3.91-7.27,3.8-7.44-3.09-11.19-2.29-1.25-4.38-2.88-7-4.09,3.21,6.9,7,13.55,8,21.42-3-5.26-7.55-8.92-12-12.87-1.12,2,1.46,2.31,1,4-.26.09-.68.4-1.06.34-5.24-.78-8.43-4.32-8.3-9.4,0-1.38-.28-2.25-1.5-2.78-.7-.31-1.19-1.35-.83-1.49,6.54-2.57-1.17-5.45.51-8.33,2.7-.83,3,3.59,6.09,3.18-1.08-3.5-4.4-4.19-6.68-6-2.68-2.12-5.83-4.31-8.88-2.37a23.9,23.9,0,0,1-8.47,3.76c1.22-3,3.42-5.14,5.2-7.06,2.52-2.7,5.76-.65,8.55,1.07,1.69,1,4.16,3.74,5.5,1.32s-2.63-3.45-4-3.78c-3.71-.87-6.43-3.25-9.64-4.82-2-1-3.75-2.21-6.47-1.17s-7.06-2.86-6.74-5.44c-4.26-.1-7.44,3-11.52,3.86-2.54.51-1.13,5-.33,7.4.45,1.39,2.18,2.53-.11,3.34-1.47.52-3.75,1.37-4.45-1.42-.29-1.19-.63-2.6-2.14-1.95-1.27.56-.61,2.1-.47,3.17.09.76.83,1.43,1,2.21.39,1.79,3.51,3.13,2.18,4.53s-4.17,1.64-6.39,2.12c-1.65.35-1.64-.91-1.79-2.2-.43-3.57,1.28-6.53,2.16-10.1-3.09,1.89-6.3,3.6-9.22,5.71-2.56,1.84-.27,3.38,1.19,5.08-4.37.85-7.94,1-9-4.16-.43-2.08-1.87-1.53-3.1-1.25-3.21.74-6.44,1.47-9.59,2.42s-5,.62-3.63-3.91c-5.27,7.17-7.2,15.67-13.25,21.6,1.39,1.44,2.69-1.41,3.67.22.72,1.18-.17,2.4-1.06,3-8.62,6.09-17.05,12.47-26.6,17.19,4.94-5,11.45-8.15,16.08-13.58-3.82.54-6.17,3.7-9.46,5.24-.66-4.57,10.62-23.58,17.22-28.34a107,107,0,0,1,22.56-12.68c7.25-2.91,14.26-7.19,22.53-6.65-.6-4.29-8.51-7.33-13-4.16-.57.4-.7,1.62-1.73,1.26-1.31-.45-.93-1.69-.68-2.55.9-3,.72-5.42-3.05-6.07a1.18,1.18,0,0,1-.43-.25c-2.85-2.18,1.83-3.19.81-4.9-1.53-2.57-3.2,2.64-3.46.55-.53-4.21-2.81-2.2-4.58-2-5.59.7-10.58,3.87-17.8,4.34,3.65-4,7.86-4,11.19-5.39,2.6-1.05,4.64-1.28,3.43-4.81-.5-1.49-.71-3.24,2.24-3.17.79,0,1.64-3.08,2.51-4.72.71-1.32,1.31-3.31,2.88-.55,1.08,1.91,2.29.26,3.35-.08,6.57-2.05,13.12-3.3,20-1.39,2.75.77,3,1.35.74,3.2-2.57,2.06-2.45,2.18-.26,4,1,.89-.24,1.71-.16,2.61s-.15,2.26-1.61,1.56c-1.27-.6-2.22-1-2.5.82-.23,1.38.64,2.16,1.81,2.65,1.55.65,3.16,1.26,4.82.55a5.33,5.33,0,0,1,3.83,0c1.75.51,3.82,2.15,5.44-.12,1.51-2.12,2.24-4.48.59-6.95l12.24,1.66C551.17,446.58,547.09,450.07,543.15,451.4ZM584,476c.2-1.43-.64-2.75-2-2.65-4.66.33-8.16-2.58-12.15-4-6.51-2.35-12.81-3.29-19.37-.22a4.88,4.88,0,0,1-5.63-.71c-1-1-2.18-1.92-3.44-.89s-.76,2.83-.69,4.26c.11,2.17,1.88,1.25,3,1.38,3.29.38,7.19-.24,9.75,1.33,5.42,3.32,11.63,4.73,17,8,3,1.82,6.38,3,10,2.16,1.74-.42,3.83-1.25,4.06-3.25s-1.73-2.51-3.41-2.89c-.94-.22-2.27-.42-1.91-1.74.44-1.64,1.75-1,2.84-.62C582.7,476.4,583.28,476.89,584,476Zm-58.83-9.41c-.73-2.25-2.18-3.63-4.31-3.61-3.18,0-3.33,3.16-4.47,5.14-.32.56.85,1.73,1.57,1.07C520,467.33,523.78,470.06,525.19,466.62Z" transform="translate(-13.96 -10.34)"/><path d="M472.5,377.37c-6.61-2.38-13.37-2.62-19.36-6.18-4.34-2.57-6.7-5.62-6.31-10.7.1-1.22.94-2.58-.28-3.72-.34.05-.84,0-.92.17-1.82,3.61-1.54,9.69-8.5,3.07-3.4-3.24-8.75-5.54-12.55-9.12-6.4-6-13.83-10.58-20.77-15.83-4.48-3.4-10.2-5.36-13.16-10.56-1.06-1.86-2.74-1.27-5.3-1.45,3.44-2.4,3.53-4.33.83-6.2a2.77,2.77,0,0,1-.92-3.57,1.94,1.94,0,0,1,2.51-1.09c7.44,2.67,15.2.75,22.78,1.7,14.14,1.78,28.06,5.25,42.12,6.83,14.28,1.6,28.1,6.57,42.71,5.63,4.2-.27,8.06,1.57,11.2,4.36a12.46,12.46,0,0,0,5.5,3.08c5.7,1.44,6.82,7.85,4.23,13-6.19,12.31-17.14,8.58-26.85,8.88-2.12.06-4.56-.62-6.84-.94-8.08-1.12-10-7.94-12.45-13.89a21,21,0,0,0-4.73-6.83c-1.24-1.27-3.35-1.95-3.09-4.16.31-2.71,3.21-1.63,4.78-2.84-4.75-3-8.57.23-11.22,2.67-2.25,2.06-2.36,6.36-1.39,9.86,2.56,9.22,10,13.32,18,16.52,8.78,3.52,18.18,3.68,27.5,3.91,3,.07,6.45-.64,6.11,5.35,3.45-4,6.19-6.72,9.89-2.59.85.95,3.53,1,2,3-1,1.42-1.95,4-4.53,3s-4.76-.4-7.07.93c-2.74,1.59-4.47,2.77-1.17,5.8,2.6,2.41.45,3.8-2,4.28-2.67.51-5.26-.32-7.88-.83-3.71-.71-7.39.61-11.24.1s-4.79-2.08-4.5-5.42c.11-1.32,0-2.65,0-4,0-.81.16-1.81-.93-2s-1.4.71-1.5,1.53c-.22,1.79.11,3.86-2.39,4.33s-2.38-1.52-3-3-1.86-1.23-3-.55c-1.44.89-1,1.77,0,2.78C470.17,374,472,374.74,472.5,377.37ZM427.67,335.2c2.07-2.65,3.62-5.76,7.56-7.39-2.06-1.57-3.41-3.19-5.13-3.81-5.39-1.91-9.41,3-14.78,2.91.93,2.31,2.69,2.39,4.2,2.87,1,.31,2.26,1,1.42,2-3.45,4.32.7,3,2.38,3.22a31.84,31.84,0,0,0,4.48.07l-2.58,3c.31,2.18,2.95,1.07,3.21,3.06.67,5.11,5.14,2.68,5.74,1.56,3.21-6,5.68,0,8.39.16,1,.07,1.81,1.7,3.06.46-4.36-11.4-6.8-12.07-16.53-8.59C428.62,334.93,428.13,335.06,427.67,335.2Zm57.86,2.47,1.65.8c4.72,2.27,10.72-.71,15,3.81.78.82,3.52-1.66,2.88-2-3.8-2-4-7.05-8.45-8.51C490.52,329.74,488.81,334.52,485.53,337.67Zm-26.26,16.07c1.82,3.54,5.66,4.07,5.61,7.82,0,1.31,6.41,1.66,7.46.41s1.19-2.61-.78-2.83C467.29,358.66,464.11,355.82,459.27,353.74Zm-53.21-24.57c1.59-.44,3.49,1,4.55-.95.52-1-.22-1.87-.84-2.65-1.45-1.82-2.93-1.81-4.51-.11-.71.76-1.49.14-2.26-.06-1.05-.28-2-.16-2.15,1.19a1.94,1.94,0,0,0,1.89,2.37C403.87,329.1,405,329.11,406.06,329.17Z" transform="translate(-13.96 -10.34)"/><path d="M652.76,639c0,6.83.32,13.67,0,20.48-1.44,26.44-.1,52.92-1.26,79.32-1.57,35.62-.46,71.23-1.21,106.83-.11,5.11-1.46,6.55-6.49,6.34-9.54-.4-9.73-.11-9.52-9.58.79-35.12.43-70.26,1.18-105.36.49-23.31-.34-46.63.74-69.91.92-20,.36-40,.49-59.94,0-4.63,1.53-6.06,6.07-5.82,10.76.56,10.29-1.86,10.09,10.15C652.64,620.67,652.76,629.83,652.76,639Z" transform="translate(-13.96 -10.34)"/><path d="M602.9,355.66c2.57,1.49,4-2.47,5.88-.45,1.56,1.71-1.43,2.49-1.55,4.25a49.25,49.25,0,0,0,24.51-15.53c2.29-2.7,3.35-6.43,5-9.7.29-.58.52-1.19.78-1.78,5.17,3.19,4.54-3.81,7.68-4.37,4.72-.85,9.38-2,14.08-2.95,6.63-1.36,13.55-.73,20-2.94,3.59-1.21,7.29-.7,10.91-.49,3.84.22,4.66,2.8,2.86,6.37-2.94,5.86-9,4.41-13.65,6.15-.87.32-2,0-3,0-7.87.12-8.36.6-6.4,8,.67,2.51.35,4.48-1.76,5.59-4.51,2.38-7.8,6.35-11.68,9.42-4.77,3.79-9.67,7.45-14.55,11.14-5.58,4.23-12.19,6.59-18.22,10-2.11,1.2-3.9,1.3-4.86-1.88-.79-2.6-3-3-5.72-2.06-3.12,1.1-6.12,1.11-6.44-3.41-.27-4-5.07-.71-5.92-3.72-2.47,1-1.58,3-1.35,4.68.33,2.31-1.52,5.72,3.73,5.67,2,0-1,2.63-1,4.64l16.22-2a15.16,15.16,0,0,1-10.92,4.47,205.08,205.08,0,0,0-27.14,2.09c-1.81.25-3.44-.67-3.4-2.09.07-2.19,2-1.4,3.43-1.13,5.52,1.05,11.05-.67,16.58.06.75.1,1.14-.61,1.24-1.29.12-.9-.2-2-1.15-1.78-4.05.8-8.5-4-12.28,1-.88,1.16-3-.31-3.08-.45-1.52-3.94-4.24-1.27-6.44-1.29s-11.11-10.15-10-10.79c1.84-1.05,1-5.9,5.55-3.47,5.22,2.79,10.7.62,15.74-1.58,1.87-.82,3-2.66,4.13.94.77,2.37,3.15-.11,4.82-.09s1.62-1.63,1.42-2.63c-.38-1.94-2.12-.9-3.28-1.17-6.64-1.5-14,.88-20.06-3.75a1.72,1.72,0,0,0-2.28.38c-4.32,4.44-9.31,1.43-12.1-.85a52.27,52.27,0,0,1-6.59-6.44c3.08-.74,6.64-.87,4.79-5.65-.56-1.43.43-3.56,1-5.3.47-1.58,1.09-3.44,3.26-3.08,1.9.31,2.54,1.81,2.68,3.69.11,1.33-.62,3.47,1.52,3.64s1.16-1.88,1.47-3a1.87,1.87,0,0,1,2.28-1.46c1.43.39.19,1.22,0,1.87-.35,1.32.83,1.61,1.38,1.26,2.39-1.52,6.9-1.07,6-5.84-.44-2.3,1.43-2.33,2.59-2.94a2,2,0,0,1,2.58.95c1,1.47-.77,1.91-1.29,2.82-.64,1.11-2,1.82-1.91,4.15,5-2.72,11.18,1.23,15.51-4.08.81-1,2.19-.21,3.32,0s2.11.12,2.37-1.13-.82-1.74-1.72-2.1c-3.93-1.56-7.24,1.21-10.88,1.72-.89.12-1.69,1.21-2.63.2a2.1,2.1,0,0,1-.63-2.26c.46-1.14,1.58-1,2.53-1.19,7.13-1.46,14.68-.32,21.53-3.35,3.34-1.47,6.38-3.68,10.16-4,1.58-.14,3.81-1,4.55.51.86,1.8-1.42,2.68-2.65,3.68a13.67,13.67,0,0,1-2.14,1.17c.49,2.44,3.15.35,4,2a3.28,3.28,0,0,1-3.92,1.49c-2.54-.77-4.18.35-5.75,1.95C607.15,341.66,605.36,348.86,602.9,355.66Zm60.91-24.92c-4.8-5.18-9.52-2.23-14.31-1,.18,2,2.29,2.32,2.55,4.28.18,1.32,3.91,1,3.53.25-1.69-3.17,1.08-1.87,1.84-2.1C659.44,331.59,661.53,331.24,663.81,330.74Z" transform="translate(-13.96 -10.34)"/><path d="M124,637.46c-.24,4.19-3,4.14-5.44,3.73-5.49-.9-6.74,1.55-6.46,6.58.4,7,.15,14,.08,21-.06,5.63-.8,6-5.5,3.28-.36-.21-1.15-.39-1.27-.23-1.42,1.89-2.85,3.38-5.25,1.27-2.6-2.29-4.46-4.93-4.24-8.6,0-.17,0-.33,0-.5-.26-24.77-.45-49.54-.85-74.3-.07-4.25.48-6.42,5.63-5.75s10.3.06,15.46.17c2.14,0,4.59-.08,6.33.89,2.65,1.48,4.64,1.26,7.32.12,4.81-2.06,8,0,8.38,4.94,1.08,15.77,1.22,31.54.82,47.34-.08,3.18-1.1,4.46-4,3.84C131.4,640.43,126.41,643.82,124,637.46Z" transform="translate(-13.96 -10.34)"/><path d="M142.14,829.61c0,4-.12,8,0,12,.12,2.81-.91,4.18-3.73,3.75-11.07-1.69-22.28.07-33.38-1.44-5.89-.8-6.65-1.34-6.7-7.45q-.37-39-.76-77.9c0-3.64-1.14-7.3,0-10.92.9-2.8,1.7-5.58,5-1.49,1.14,1.42,3.36,2.88,5.43.61,1.76-1.94,2.6-1,2.75,1,.13,1.81.44,3.9-.28,5.42-2.53,5.37-.52,10.09,1.74,14.7,2,4.06,2.37,8.25,2.2,12.61-.1,2.52.12,4.38,3.55,4.67,4.41.38,5.06,4.89,6.7,7.89,2.08,3.82,3.48,4.36,5.79.37.76-1.32,1.34-3.61,3.38-3.06s1.86,2.87,1.93,4.68c.23,6.21.82,12.28,5.19,17.25,1.07,1.21.93,2.84.95,4.31.09,4.33,0,8.66,0,13Z" transform="translate(-13.96 -10.34)"/><path d="M646.25,394.73c-1-1.6-.24-2.23,0-3,.33-.92.86-1.95-.12-2.74-1.24-1-2.13.31-3.15.67s-2.57.92-1.57,2.38c1.5,2.19.74,3.79-.91,5.22-1.86,1.61-2.69-.46-4.07-1.13-2.44-1.18-4.38.62-6.11,2.2s-.64,2.24.79,3.32.43,2.09-1,2.26c-1.25.16-2.68-.38-3.57,1.68,3.37.86,6.14-.53,8.95-1.48.84-.28,1.81-.52,2.26.29.65,1.19-.4,1.93-1.3,2.21-5.77,1.77-10.83,6-16.84,6.36a107.13,107.13,0,0,1-21.83-1.12c-2.65-.38-3.95-4.36-6.93-5.83-3.15-1.55-7-2.16-9.06-5.71a2.09,2.09,0,0,0-3.07-.67c-1.36.9-.82,2,0,3,1.07,1.3,1.82,2.85-.09,3.7-2.39,1.06-1-1.77-1.91-2.3-2.87-1.68-1.38-6.85-5.87-7.25-.77-.07-.85-1-.55-1.62a1.29,1.29,0,0,1,1.66-.64c1.19.29,2.57,2.23,3.52.77,4.92-7.57,12.52-4.17,18.75-4,5.82.12,9.69-3.63,14.88-4.6,11.95-2.24,22.85-7.53,33-14.22,6-3.92,13.16-5.5,19.08-9.6,1.76-1.22,3.46-.11,4.22,1.38,1.32,2.63,1.11,2.7,3.84,1.27a10.94,10.94,0,0,1,2.49-.45c-2.26,4.49-7.74,5-9.59,9.84,4.35-.88,6.56-3.92,9.38-6,.85-.61,1.49-2.22,2.85-1.21,1.07.8.8,2.12.28,3.22-.85,1.79-1.5,3.71-3.2,5C663.15,382.11,654.82,388.34,646.25,394.73Zm-23.81-4.41c1.55-1.73,4.8,2,5-.75.31-3.68,2.91-3.42,4.9-4.49,2.5-1.36,5.18-2.54,6.88-6.77-11.21,5.4-22,8.35-32.93,10.84-.66.15-1.23.38-1.32,1.19-.18,1.81-.2,2-1.64,1.87-3.79-.25-5,1.48-4.71,5.13.28,3.91,1.81,7.38,2.92,11,.69,2.3,2.08,3.37,3.9,2.62,2.84-1.18,6.89,2.37,8.8-2.57.88-2.28,1.85-4.76,5.19-5.4,7.32-1.39,10.08-8.11,15.51-13.4-3.59,0-5.28,1.4-7.06,2.46-2.62,1.57-4.38,1.16-5.31-1.86Zm35.19-8.59c-.29-1.24-1.14-1.86-2.2-1.58-1.88.48-3.35,1.69-3.31,3.77,0,1.25,1.23,1.39,2.27,1.08A4.08,4.08,0,0,0,657.63,381.73Z" transform="translate(-13.96 -10.34)"/><path d="M479.12,440.37c2.15-2.25,3.91-4.32,3.07-7.81-4.5.87-8.57,2.46-12,5.87s-15.78,4.73-19.47,2.35c-1-.63-1-1.62-.39-2,3.66-2.52,1.67-4.42-.5-6.44-.48-.45-.59-1.19.24-2.08,3.67,2.61,6.59,1.25,9.32-2a33.78,33.78,0,0,1,11.21-8.3c-9.77-1.17-19.49,0-29.86,1.37,1.55-3.07,4.91-.08,5.1-3.55.16-3-2.13-3.23-4-4.16-5.43-2.7-6.43-8.67-9.38-13.47,5,2.27,10,4.73,15.12,6.75,11.29,4.46,23.1,6.52,35.19,7.39,5.1.36,10.21,1.45,14,5.4,1.19,1.23,3.4,3.45,1.05,4.16-1.86.56-3.17,6.54-6.26,1.4-1.17-1.94-2.33-1-2.76.47-.5,1.76-2.09,3.36-.41,5.57,1.57,2,3.15,2.75,5.54,2a5.46,5.46,0,0,1,2-.22c2.28.16,5.42-.19,5.63,2.73.17,2.49-3,2.06-4.72,2.49C491.16,439.69,485.39,441,479.12,440.37Z" transform="translate(-13.96 -10.34)"/><path d="M750.17,578.74c-6.06-6.39-8.95-13-11.89-19.65-2.32-5.18-3.28-10.76-4-16.37a4.85,4.85,0,0,1,.17-2.88c4.95-7.72,5-16.71,6.8-25.27,2.53-12.12,5.26-24.21,8.9-36.23Z" transform="translate(-13.96 -10.34)"/><path d="M674.57,471.63a3.46,3.46,0,0,1,.43.86c.57,2.72-4.43,3.09-2.89,5.31,1.1,1.58,2.3,3.05,3.4,4.73,2.47,3.75.85,6.52-.54,9.61a26.06,26.06,0,0,1-1.54,2.57c-3.48,5.78-3.49,5.78-10.2,1.44,5.74,6.33,1.46,8.31-2.17,10.72-2.47,1.65-4.69,3.68-7.07,5.47-.62.46-1.44.95-2.17,0a1.61,1.61,0,0,1-.06-1.83c2.64-6.08-.12-10.6-4.41-14.56-1.87-1.71-2.94-3.06.54-3.89,1.43-.34,2.15-1.53,3-2.49a23.61,23.61,0,0,1,10.52-7c4.74-1.51,7.44-6.4,11.36-9.42.64-.49,1.29-.95,1.93-1.43A1.79,1.79,0,0,0,674.57,471.63Zm-11.12,24.14c1.88-2.46-1-4-1-6,0-1.07,2.48-2.92-1-2.48-2,.25-3.53.89-3,3.5C659.1,493.65,661.1,494.82,663.45,495.77Zm-5.84,3.44c1.18-.36,2.53-.73,2.44-2.12a4,4,0,0,0-3.17-3.43c-1.72-.33-2.24,2-2.38,3.1C654.26,498.61,656.37,498.62,657.61,499.21Z" transform="translate(-13.96 -10.34)"/><path d="M631.84,445.71c-6.3,3.84-8.84,3.19-15-1.12-7.07-4.94-14.71-9.07-22.12-13.52-.85-.51-1.92-.68-2.71-1.25-3.61-2.58-7.18-5.42-8.93,1.73-.08.33-1.1.62-1.68.61-3.93-.1-2.44-3.69-3.54-5.62s-.39-3.73,1.47-4c9.84-1.24,19.83-3.39,28.94,3a12.91,12.91,0,0,1,4.72,5.06c3,6.79,8.09,10.51,15.21,12A4.84,4.84,0,0,1,631.84,445.71Z" transform="translate(-13.96 -10.34)"/><path d="M636.14,467.1c-4.72-1.29-8.18-4.74-12.12-7.51,5.1,0,10,.48,14.88-.66a13.68,13.68,0,0,0,5-1.84c2.69-1.87,5.14-1.29,7.82,1.13,4.44,4,7.29,9.46,12.25,12.89,2.76,1.9,2,2.91-.44,4.6-5,3.49-10.49.88-15.5,2-5.76,1.24-7.88-2.33-10.51-5.75-.7-.92-1.28-2.14-.19-3.15.86-.79,1.89-.23,2.79.16,2,.88,4.12,1.89,4.9,4,.67,1.79,2.31,1.71,3.38,2.65a1.51,1.51,0,0,0,2.24,0,1.74,1.74,0,0,0-.5-2.61,46.41,46.41,0,0,1-11.33-10.23c-.69-.82-2.28-1.51-3.17-.78C633.5,463.63,637.42,464.74,636.14,467.1Z" transform="translate(-13.96 -10.34)"/><path d="M636.64,452.72l22.1-11.52c-5.59-1.81-10.27,5.41-15.51,1.25.29-2.52,4-.43,3.43-2.7a5.88,5.88,0,0,0-4.65-4.1c-5.41-.83-4.25-3-1.21-5.42,1.93-1.53,2.22-5.31,5.07-5a21.63,21.63,0,0,1,10.65,3.92c10.32,7.73,10.26,7.92.47,15.69C653.19,447.84,640.65,453.27,636.64,452.72Z" transform="translate(-13.96 -10.34)"/><path d="M498.53,417.11a5,5,0,0,1,5.82,0c4,3.09,8.08,2,12.26.79a7.75,7.75,0,0,1,2.88-.53c1.43.16,3.27.33,3.56,2.09.32,1.92-1.36,2.47-2.86,2.72-6.38,1.08-10.94,5.42-15.92,9-1.62,1.14-3.21,1.36-4.57.58-2-1.17-1.33-3.71-.45-4.85C502,423.31,501,420.24,498.53,417.11Z" transform="translate(-13.96 -10.34)"/><path d="M573,429c3.33-.17,4.57.52,2.1,3.39-1.46,1.71-.15,2.34,1.34,2.56a63.74,63.74,0,0,0,6.44.72c6.36.29,9.5,5.65,13.9,8.94,1.38,1-.57,1.85-1.73,1.59-3.88-.88-7.79-1.72-11.58-2.92-3.11-1-5.87-2.88-9.4-2.83-1.67,0-2.89-1.35-2.88-3.43a5.79,5.79,0,0,0-.76-3.3C567.39,429.56,569.46,428.79,573,429Z" transform="translate(-13.96 -10.34)"/><path d="M335.16,578.14c-1.53-1.41-6,2.52-6-2.69,0-5.88,3.4-9.5,8.33-9.61,4.47-.09,5.62,3,5.78,6.5C343.52,577.32,342.25,578.16,335.16,578.14Z" transform="translate(-13.96 -10.34)"/><path d="M776.23,672.46V607.23h1.31v65.22Z" transform="translate(-13.96 -10.34)"/><path d="M648.08,560c1.39,1.93,4.72,1.06,4.54,3.74-.15,2.12-2.36,3.13-4.06,4-2.08,1.11-3.81-.2-5.35-1.55-4.78-4.17-4.85-6,.1-10A33.62,33.62,0,0,1,651,552C649.73,554.58,652,558.22,648.08,560Z" transform="translate(-13.96 -10.34)"/><path d="M589.09,468.13c-7.75-1.75-15.33-3.81-22-8.31-.67-.46-1.64-.72-1.26-1.78s1.3-.7,2.12-.71C576.85,457.28,583.6,461.42,589.09,468.13Z" transform="translate(-13.96 -10.34)"/><path d="M510,470.52c-4.16,3.31-7.05,6.53-12.09,4.29-1.86-.82-1.86-.46-2,1.73-.13,2.73-2.38,1.43-3.7,1.49-1.89.1-4.59.53-4.69-2.24a3.09,3.09,0,0,1,4-3.16c1.49.37,1.6-.72,2.21-1.39.79-.86,2-2.24,2.86-1.52C500.62,473.08,504.79,470.2,510,470.52Z" transform="translate(-13.96 -10.34)"/><path d="M703.58,333.45c2.52.42,1.79,2,1.78,3.15,0,1-.37,2.16.62,2.73,1.18.7,1.67-.48,2.28-1.23,1.3-1.63,2.88-1.28,4.48-.55,2,.89,2.36,2.56,2.37,4.52s-1.42,2.89-2.69,3.89c-1.11.88-1.46-.23-2.23-.86-2.08-1.72-4.11-3.62-6.94-4.23-1.37-.29-3.8-1-3-2.38C701.22,336.81,702.77,335.23,703.58,333.45Z" transform="translate(-13.96 -10.34)"/><path d="M735.23,321.46c0,4.45-3.66,7-7.45,5.45a1.69,1.69,0,0,1-.73-2.82c2.41-2.83-.51-8.65,3.86-9.34C734,314.26,735.72,318.14,735.23,321.46Z" transform="translate(-13.96 -10.34)"/><path d="M670.78,424.79a4.74,4.74,0,0,1,.32.94c.27,1.93,3.12,3.93.45,5.76s-3.61-1.36-5.19-2.49a40.72,40.72,0,0,1-4.55-3.86c-.94-.9-2.11-2-1-3.41s2.43-.62,3.56.16c2,1.38,3.72,3.41,6.55,3Z" transform="translate(-13.96 -10.34)"/><path d="M300.12,786.4c0,1,0,2,0,3a3,3,0,0,1-2.49,3.24c-1.78.36-1.9-1.41-2.34-2.58-.82-2.19-1.37-4.34-.46-6.72.63-1.66,1.07-3.14,3.31-2.75,2,.35,2,1.88,2.05,3.38,0,.82,0,1.64,0,2.47Z" transform="translate(-13.96 -10.34)"/><path d="M748.81,407.91c-3.27-8.34.86-16.71,0-25.06h1.36v25.06Z" transform="translate(-13.96 -10.34)"/><path d="M562.22,427.6a3.24,3.24,0,0,1-2.86-3.64c.63-3.32,3.32-4.65,6.49-4.91,2-.16,2.57.93,2.35,2.8C567.76,425.53,564.74,426.31,562.22,427.6Z" transform="translate(-13.96 -10.34)"/><path d="M777.52,710.78c-.23,7.05,1.06,14.1-.24,21.15C776.72,724.88,773.64,717.83,777.52,710.78Z" transform="translate(-13.96 -10.34)"/><path d="M621.89,338.81c-2.39,3.12-3.95,6.77-7,9.25-1.51,1.21-3.14,3.25-4.91.76s1-5,2.19-5.11C616.21,343.42,618.71,340.67,621.89,338.81Z" transform="translate(-13.96 -10.34)"/><path d="M85.4,698.91c-5.71-3.61-1.53-8.61-1.87-13a1,1,0,0,1,1.27-1.13c.82.11.91.82,1.08,1.47C87,690.47,88.39,694.65,85.4,698.91Z" transform="translate(-13.96 -10.34)"/><path d="M769.72,711c-2.35-3.41-2.32-6.79-2.17-10.09.07-1.62,1-3.53,3-3.43s1.76,2.08,1.85,3.54A16.66,16.66,0,0,1,769.72,711Z" transform="translate(-13.96 -10.34)"/><path d="M562.45,372.83c3.23,1.57,5.22,4.42,6.9,7.56.69,1.28.93,2.6-.48,3.47-1.56,1-2.71-.12-3-1.41C564.93,379.09,558.27,377.73,562.45,372.83Z" transform="translate(-13.96 -10.34)"/><path d="M773.26,618.34c2.1,1.7,1.49,3.64,1.55,5.37a10.63,10.63,0,0,1-1.93,6.91c-.42.56-1.33.28-1.62-.38-1.2-2.77-1.76-5.65-.46-8.52A20.75,20.75,0,0,1,773.26,618.34Z" transform="translate(-13.96 -10.34)"/><path d="M633.36,410.94c-6.23,5.05-13.33,6.29-19.31,9.76-.74.43-1.69.56-2.11-.39s.28-1.53.91-2.12c2.72-2.53,6.5-2.25,9.69-3.55S628.87,411.4,633.36,410.94Z" transform="translate(-13.96 -10.34)"/><path d="M771.23,517.64a6.31,6.31,0,0,1,0-1.47c.74-2.23,1-6,3.47-5.62,2.64.42,1.23,3.83,1,6a4.67,4.67,0,0,1-.39,1.43c-.58,1.2.37,3.64-1.74,3.47S771.36,519,771.23,517.64Z" transform="translate(-13.96 -10.34)"/><path d="M52.16,692.73c0-5.33,0-9.23,0-13.12a2.18,2.18,0,0,1,.92-1.55,1,1,0,0,1,1.45.79C55.11,683.18,56.7,687.68,52.16,692.73Z" transform="translate(-13.96 -10.34)"/><path d="M533.39,509.61c4.07-2.06,8.43-.42,12.52-1.5a1.18,1.18,0,0,1,1.51.93c.18,1.09-.67,1.42-1.46,1.64C541.62,511.88,537.52,510.75,533.39,509.61Z" transform="translate(-13.96 -10.34)"/><path d="M553.68,507.58c3.22-4.41,7-2.77,10.79-1.56.85.28,1.57.65,1.22,1.71a1.25,1.25,0,0,1-1.58.86C560.76,507.67,557.15,509.92,553.68,507.58Z" transform="translate(-13.96 -10.34)"/><path d="M522.7,507.75c-5.4.8-9.78-3.19-15.34-1.44C511.32,502.13,515.67,502.66,522.7,507.75Z" transform="translate(-13.96 -10.34)"/><path d="M679.62,339.75c-2.19,2-4.19,4.66-7.1,3.37-1.43-.63-1.95-3.91-1-4.74C674.31,336,676.75,339.53,679.62,339.75Z" transform="translate(-13.96 -10.34)"/><path d="M447.2,629.87c-.28,1.8.31,4.77-2.17,4.7s-1.62-3.46-2.28-5.27a2.85,2.85,0,0,1,3-3.56C448.24,626.05,446.78,628.39,447.2,629.87Z" transform="translate(-13.96 -10.34)"/><path d="M574.07,405.76c-.49,2.27-2.46,3-4,3.39-2,.54-2.91-1.71-3-3.12-.17-2.28,2.45-3.47,3.81-3.87C572.51,401.69,572.49,404.89,574.07,405.76Z" transform="translate(-13.96 -10.34)"/><path d="M297.27,600.22a2.8,2.8,0,0,1,1.38,2.41c.31,2.13.62,4.35-1.12,6.08a1.16,1.16,0,0,1-2-.53c-.4-2.26-2.27-4.63.26-6.84C296.26,600.94,296.39,600.18,297.27,600.22Z" transform="translate(-13.96 -10.34)"/><path d="M652.19,401.59c-4.74,2.75-7.38,8.25-13,9.85C642.85,407.31,646.8,403.54,652.19,401.59Z" transform="translate(-13.96 -10.34)"/><path d="M360.15,557.85c-2.08-.94-3.75-2.16-3.88-4.65-.06-1,.23-2.45,1.37-2.18,2,.46,4.41,1,4.57,3.77A2.75,2.75,0,0,1,360.15,557.85Z" transform="translate(-13.96 -10.34)"/><path d="M750.07,295.33a14.18,14.18,0,0,1,.24,7.22,2.63,2.63,0,0,1-3.68,2.21c-1.83-1,.15-2,.77-3C748.65,299.85,746.88,296.79,750.07,295.33Z" transform="translate(-13.96 -10.34)"/><path d="M653.53,480.64c-2.83,1.59-5.65,3.2-8.49,4.78-.74.41-1.59.76-2.16-.21s.07-1.81.93-2.44c2.75-2,6.18-1.87,9.15-3.2Z" transform="translate(-13.96 -10.34)"/><path d="M655.36,391.73a21.81,21.81,0,0,1-9.35,7.64C647.85,395.36,651.67,393.58,655.36,391.73Z" transform="translate(-13.96 -10.34)"/><path d="M299.63,689.17c-.47,1.58,0,3.72-1.92,4.67-.74.37-1.69-.58-1.74-1.37-.17-2.7,2-5.16.89-8.1-.12-.31,1.76-.48,2.09.76S299.4,687.74,299.63,689.17Z" transform="translate(-13.96 -10.34)"/><path d="M542.8,549.85c-4.26,1.37-7.87,0-12.32-.32A13.31,13.31,0,0,1,542.8,549.85Z" transform="translate(-13.96 -10.34)"/><path d="M14,762.37V748.05C17,753,17,758.61,14,762.37Z" transform="translate(-13.96 -10.34)"/><path d="M505.69,312c-2.29-.12-3.53,4.49-6.33,1.4-.61-.68-1.93-1.53-.7-2.37C501,309.41,503.35,310.79,505.69,312Z" transform="translate(-13.96 -10.34)"/><path d="M546.26,496.47c.15,1.35-.67,1.52-1.49,1.6-2.42.23-3.65-1.09-4-3.31-.15-1.05-.31-2.84,1.26-2.5C544.21,492.72,544.72,495.32,546.26,496.47Z" transform="translate(-13.96 -10.34)"/><path d="M541.29,501.26a19.79,19.79,0,0,0-6.19.53c-.68.18-1.77.21-1.87-1s.83-1.46,1.62-1.4C537.09,499.6,539.69,498.47,541.29,501.26Z" transform="translate(-13.96 -10.34)"/><path d="M613.74,446.37c-3.55.37-5.61-1.53-7.84-4.71C609.91,442,611.63,444.52,613.74,446.37Z" transform="translate(-13.96 -10.34)"/><path d="M509,70.13c7.35-.64,14.46,4.26,12.92,8.88-1.35,4.07,0,6.82,1.2,10.09A6.74,6.74,0,0,1,523,94c-.67,1.68-1.45,3.85-3.75,3.17s-1.05-2.65-.76-4.2c1.26-6.61-2-12.6-2.82-18.94C515.31,71.69,511.83,71.78,509,70.13Z" transform="translate(-13.96 -10.34)"/><path d="M556.22,132.41c-.35,3.76.78,7.85-3.24,10.62-1.24.85.7,1.77,1.46,2.51,1.46,1.43,2.25,3.61.72,4.76s-2-1.46-3-2.34c-2.49-2.21-2.57-5.61-3.65-8.45-1-2.52,3.92-8.76,6.6-9.2C557,130,556.73,131.27,556.22,132.41Z" transform="translate(-13.96 -10.34)"/><path d="M491.57,129.36c1.8-4.92,9.49-8.68,16.13-7.91-1,3.14-4.85,3.52-6,6.39a1,1,0,0,1-1.67.13c-2.56-6.21-4.07-.76-5.93.5C493.48,128.92,493,129.7,491.57,129.36Z" transform="translate(-13.96 -10.34)"/><path d="M532.4,92.43c-1,5.52,3.34,2.68,5.45,4.46-4.45,1.3-3.17,6-6.08,8.63C531.67,101.32,527.57,97.24,532.4,92.43Z" transform="translate(-13.96 -10.34)"/><path d="M552.13,106.34c-5-6.58-6.64-11.12-5-15.12C548.38,96.52,551.72,100.29,552.13,106.34Z" transform="translate(-13.96 -10.34)"/><path d="M503.49,89.81c2.21-.09,4.05.19,4.29,2.59a1.93,1.93,0,0,1-2.5,2.23c-1.91-.35-4.14-.68-4.37-3.2C500.72,89.27,502.56,89.94,503.49,89.81Z" transform="translate(-13.96 -10.34)"/><path d="M543,101.19c-.08.94.19,2.4-1.1,2.32-2.09-.13-2-2.25-2.51-3.71a1.35,1.35,0,0,1,1.47-1.93C542.9,98,542.77,99.77,543,101.19Z" transform="translate(-13.96 -10.34)"/><path d="M519.29,225.64c2,3,3.9,3.48,6.76,2.94,3.8-.72,7.37,1.86,9.47,4.2,2.25,2.51-.58,5.36-3.45,6.25-2.46.75-3.75,1.35-4.2,4.35-.43,2.84-3.73,3.5-6,2.24a47.69,47.69,0,0,0-7.51-3.54c-2.59-.89-3.23-2.5-1.05-4.83,4.22-4.5-1.82-4.34-2.84-6.48-.9-1.89,4.33-6.49-2.74-5.76-1.59.16-2.46-.79-2.77-2.26-.33-1.62.64-2.43,1.95-3s3-1.07,3.45.45c.7,2.37,6.43.7,4,5.29-.71,1.34-1.84,3.28,1.16,3.59C517.53,229.27,520.22,230.39,519.29,225.64Z" transform="translate(-13.96 -10.34)"/><path d="M443.83,531.69c-4.39,2.52-8.23,6.37-13.91,5.94-.06-.55-.23-1-.11-1.14,2.9-2.11.2-8.38,4.74-8.14,2.84.16,6.08,2.37,9.29,3.37C443.86,531.73,443.83,531.69,443.83,531.69Z" transform="translate(-13.96 -10.34)"/><path d="M564.45,470.58c2.31,1.75,6.7.53,8,4.43.17.5.1,4.23-3,4.11-2.91-.12-9.13-4.5-8.72-6.35C561.07,471.13,562.34,470.4,564.45,470.58Z" transform="translate(-13.96 -10.34)"/><path d="M622.61,390.22c-3.59-.62-7,2-11.86.87,4.37-2.19,8-2.33,11.46-2.84,1.89-.28,1.16,1.2.25,2.06Z" transform="translate(-13.96 -10.34)"/></g></g></svg>