<svg xmlns="http://www.w3.org/2000/svg" viewBox="0 0 886.16 890.19"><title>beliefs</title><g id="Layer_2" data-name="Layer 2"><g id="Layer_1-2" data-name="Layer 1"><path d="M809,891H619c-7.36-3.64-15.57-3.27-23.36-4.87-16.43-3.38-32.9-6.59-49.37-9.78-9.95-1.93-19.93-3.63-29.88-5.53-9.63-1.83-19.18-4.2-28.87-5.51-5.35-.72-10.23-3.22-15.34-3.71-16.76-1.59-33.05-5.73-49.51-8.73-17.49-3.19-35-6.3-52.44-10-22.94-4.8-46.14-8.33-69.12-12.93-7.18-1.43-14.41-2.53-21.58-4-10.59-2.13-21.17-4.28-31.78-6.27-9-1.69-18-3-27-4.79-16.31-3.16-32.54-6.76-48.9-9.69-16.68-3-33.29-6.41-50-9.16-7-1.15-14.15-2.07-21.09-3.73-16.79-4-33.87-6.54-50.79-9.88-3.79-.74-5.16-2.08-4.79-5.85,1.13-11.61,3.93-22.94,6.13-34.34,2-10.56,3.75-21.21,6-31.74,2.75-12.66,5-25.43,7.54-38.15a7.62,7.62,0,0,1,3.64-5.13c4.6-3,5.7-6.46,2.53-10.58-2.43-3.18-2.6-6.26-1.88-9.82q3.64-18.06,7.16-36.13a6.13,6.13,0,0,1,3.5-4.49c5.26-2.82,6.3-7.26,2.48-11.85a8.42,8.42,0,0,1-1.68-8.34c3.37-12,4.31-24.51,7.28-36.57,2.4-9.71,3.06-19.69,5.8-29.34s2.61-19-4.38-28c-4.28-5.5-8.39-7.6-14.91-7.34-8.14.32-10.33,3.14-8.2,11,1.44,5.34,2.38,10.81-2.27,15.39a4.31,4.31,0,0,0-.85,4.68c1.45,4.42.28,8.93.56,13.4.1,1.65-.11,3.45-2,4.21-3,1.2-3,3.49-2.69,6.19.5,4,1,8-4.08,9.94-2,.76-2.22,3.2-3,5-.7,1.5-1,3.54-2.61,4.12-6.89,2.5-6.55,8.83-7.41,14.23a19.07,19.07,0,0,1-3.35,8.6c-2.07,2.9-6.24,4.06-7,7.56-1.05,4.57-4,6.66-7.85,8.24a10.32,10.32,0,0,0-4.25,3.36,53,53,0,0,1-9.21,9.06c-4.86,3.8-7.47,8.34-7.45,15.24.28,86.8.19,173.6.19,260.4,0,1.83.11,3.66.16,5.49-.63-.41-2.12,1-2-1,.06-1.16,0-2.33,0-3.5Q1,446,.91,5.5C.91,1.75,1.75.9,5.5.91Q339.75,1.06,674,1c-1.32,1.94-1.37,4.37-4.23,5.71A38.75,38.75,0,0,0,655.5,17.94a11.39,11.39,0,0,1-3.54,3.4c-11.05,6.1-21.9,12.56-30.08,22.44-3.62,4.37-10,6.63-11.6,12.08-1.93,6.43-5.95,11.45-8.84,17.18s-6.29,10-14,8.37c-3.9-.82-10.16,5-12,9.2-1.88,4.4-4.36,8.54-6.16,13-1.89,4.64-6.89,7.14-8.56,11.32-3.94,9.94-10.1,18.41-15.48,27.44-2.5,4.18-3.11,9.43-5,14A29.72,29.72,0,0,0,538.35,173c1,6.1-.54,11-5.81,14.81-3.62,2.61-5.51,6.29-3.12,10.87,2.16,4.15,1.51,7.82-2.14,10.67-3.11,2.44-4,5.46-3.63,9.24a27.9,27.9,0,0,1-.45,5.95c-1.78,14.65-10.34,27.1-13.48,41.37-.79,3.59.26,7.51-1.73,10.69-3.53,5.63-5.29,12.23-9.6,17.41a11.58,11.58,0,0,0-2.61,6.87,149.54,149.54,0,0,1-5.64,32.39c-.87,3-.06,5.53,1.67,8,1.86,2.63,3.24,5.51,2.79,8.85a27.61,27.61,0,0,0,4.3,18.56c3.75,5.93,5.46,12.67,8,18.93,4,9.76,5.2,20.63,14.54,27.5a4.47,4.47,0,0,1,1.23,2.13c2.81,8,6,15.87,8.23,24,2.37,8.6,6.2,16,13.09,21.79,3.41,2.87,5.78,6.34,4.82,11.26a7.91,7.91,0,0,0,1.59,6.15c4.59,6.37,8.76,12.93,10.26,20.82a3.51,3.51,0,0,0,2.62,2.7c11.13,4.12,22.78,6.92,33.27,12.64,6.55,3.56,14.28,6.36,18.85,11.73s9.43,6.18,15.08,6.49a13.92,13.92,0,0,1,9,3.41c1.56,1.37,3.32,2.62,3,4.81-.4,2.57-2.88,1.59-4.51,2-1.91.46-4.59.19-5.13,2.35-.6,2.37,1.64,3.84,3.58,4.83,3.92,2,5,5,3.87,9.12a13.92,13.92,0,0,0-.21,4.47c.21,2.76-.84,4.22-3.62,5-5.16,1.46-5.52,2.46-2.9,6.87,1.3,2.18,2.4,3.91-.42,5.89-2,1.42-1.37,3.12.58,4.38a90.66,90.66,0,0,1,7.83,5.26c1.14.93,3.37,1.88,2.58,3.78s-2.94,1.12-4.52,1c-7.67-.54-14.91-3.3-22.56-4.21-8.74-1-17.34-3.17-26-4.85-2.2-.43-4.73-2.22-6.46.16-2,2.66,0,4.84,1.74,7a7.79,7.79,0,0,0,4,2.66,117.84,117.84,0,0,1,12.5,4.83,57.76,57.76,0,0,0,23.54,5.72c6.49.28,13,.87,19.47.58,9.29-.42,18.61,1.94,27.86-.36,1.43-.36,3.56-.26,3.69-1.94.16-2.07-2-2.22-3.64-2.62-.48-.12-1-.16-1.46-.3-1.24-.36-2.86-.41-2.7-2.28a3.26,3.26,0,0,1,2.27-3,16.27,16.27,0,0,1,3.86-1c7.47-.46,14.91-1.08,22.35-2.09,11.4-1.56,23-1,34.38-2.27,7.46-.81,15.46,1.27,22.36-3.4,3-2,6.37-2.67,9.87-3.17a40.72,40.72,0,0,0,12-3.19c2.43-1.15,2.74-3.14,2.54-5.43-.15-1.75-.63-3.53-2.65-3.71-6.56-.61-12.47-4.57-19.44-3.38-4.1.7-7.82-1-11.1-3.61-1.27-1-2.07-2.52-.38-3.08,6.6-2.16,11.78-7.56,18.88-8.35a69,69,0,0,0,9.1-2.08c7-1.75,13.93-4.81,21.44-2a11.87,11.87,0,0,0,7.39.26c2.14-.61,2.64-2.31,2.86-4.23s-.71-3.35-2.35-3.13c-6.72.88-8.35-3.06-9.29-8.55-.51-3,.23-5.14,2.89-5,8.87.41,17.84-3,26.61.67a4.59,4.59,0,0,0,3.9,0,5.4,5.4,0,0,1,5.67.31,9.27,9.27,0,0,0,8.66.53,6,6,0,0,1,5.66.55,97.05,97.05,0,0,0,10.18,5c3.51,1.48,7.25,2.38,10.6,4.09,6.17,3.13,12.21,6.5,19.09,7.89V816l-58.78-.28c-2.37,0-4.29.65-5,3.14a72.74,72.74,0,0,0-2.62,9.58c-1.92,13-4.84,25.74-7.16,38.62C812,875,810.21,883,809,891ZM152.52,256.64c2.78,2.46,6.23,4.72,7.23,8,1.88,6.16,5.4,9.46,11.67,10.35,1.73.25,2,1.7.44,2.87-3.78,2.9-7,6.66-12,7.62-2.15.42-4.42.79-4.45,3.76,0,3.19,2.31,3.69,4.69,4.1,1.14.2,2.32.24,3.46.46,1.42.27,3.36-.32,4.05,1.3.86,2-1.16,3.07-2.36,3.88-4,2.69-3.21,5.67-1.74,9.52,1.83,4.77,5.08,8.32,8,12.29,2,2.78,6.53,6.64,4.27,9.3-4.63,5.46-2.78,9,1,13.08.21.22.18.64.34.93,4.22,8,4.73,17.55,10.59,25.1,2.26,2.9,4,4.51,7.51,4.09a20.2,20.2,0,0,1,5-.1c4.82.63,6.51,3.72,4.53,8.22-1.21,2.73-2.84,5.3-3.89,8.09-2.12,5.65-6.24,8.42-12,8.85-3.2.23-4.65,1.76-5.19,4.9-.78,4.57-.91,9.76-3.77,13.31a63.62,63.62,0,0,1-27.17,20c-6,2.27-12.12,1.88-18.12,3-1.85.35-4.34.55-4.16,3.36.15,2.29,1.27,4.41,3.73,4.72,3.26.41,5.84,2.27,8.75,3.33,4.4,1.59,8.17,4.93,13.55,4.14,3.47-.5,4.18,1.83,2.18,4.78-1,1.53-2.6,1.86-4.13,2.53-3.4,1.49-6.42,3.63-7.07,7.62s3,4.1,5.4,5.32c.43.22.76.65,1.18.91A164,164,0,0,0,178,489.25c1.34.55,3.34.57,2.75,2.71-.52,1.89-2.34,1.53-3.81,1.36-11.59-1.34-23.3-1.26-34.84-3.13a17.17,17.17,0,0,0-5.94.05c-3.72.73-4.44,3.65-4.15,6.9.27,3.06-.24,6.79,4.35,7.15,7.33.57,14.06,4.24,21.53,4a5.51,5.51,0,0,1,6.07,5.38c.35,4.41.94,9-.5,13.33-2.41,7.35.81,12.72,8,15.48,4.79,1.84,9.77,2.88,14.46,4.63,7.54,2.81,15.38,4.14,23.1,5.73,13.66,2.83,27.12,6.5,40.81,9.25,12.26,2.47,24.83,4.14,36.41,9.75,3.44,1.67,9,3.1,9.27,5.64.44,3.81-4.27,6.53-7.71,8.86a3.82,3.82,0,0,1-.46.21c-7.82,3.63-11.6,11-16.17,17.62-3.09,4.46-4.23,10-8.09,14.1a8.74,8.74,0,0,0-2.76,5.23c-.65,10.89-7.28,19.84-9.57,30.28-3.14,14.32-9.69,28-7.4,43.22a9.87,9.87,0,0,1-.37,4c-2.31,8.33-1.48,16.9-2.06,25.35a7.89,7.89,0,0,0,1.23,5.27c1.66,2.29,2,4.84,2.11,7.55.62,12.13,11.57,25.33,23.26,28.81,9,2.68,18.15,4.07,27.39,5.32,8.52,1.15,16.43,1.46,23.52-5.1,5.14-4.76,6.64-10.84,8.75-16.87.7-2,1.51-3.69,4.13-3.43s3.79,2.08,3.83,4.41a76.9,76.9,0,0,1-.38,11.47c-1.11,8.24,1.11,15.87,4.31,23.15,1.3,3,2.9,7,6.41,7.78,10.65,2.45,21,6.55,32.09,6.76a45.7,45.7,0,0,1,11.28,2c6.15,1.69,12,2,16.93-3.59a26.37,26.37,0,0,1,7.6-5.59c2.88-1.54,7.15-3.13,7.83-5.53,1.09-3.91,3.13-7.19,4.71-10.73,3.52-7.89,6.21-15.85,7.2-24.57.74-6.64.41-11.76-4.62-14.93-4.08-2.59-8.42-1.34-12.76.8-6.79,3.37-14.2,3.43-20.52-.59-8.14-5.16-13.44-12.2-8.24-22.64a6.94,6.94,0,0,0,.22-1.48c2.2-10.56,2.25-21.7,8.9-31,3.91-5.51,5.73-12.19,9.83-17.68,4.58-6.13,11.19-10,16.33-15.58,8.33-9,9.66-12.14,4-23-5.4-10.36-13.19-17.77-25.56-19a27.8,27.8,0,0,1-6.23-1.68,9.9,9.9,0,0,0-11,2.37,101.21,101.21,0,0,0-10.06,11.67A111.63,111.63,0,0,0,358,648.93c-3.08,8-3.91,16.79-8.38,24.36-1.42,2.41-3.19,4.66-3.91,7.5-3.73,14.66-8.31,29.12-10.47,44.15a42.51,42.51,0,0,1-.78,5.43c-.87,3.14-3.8,3.85-6,1.51a16.23,16.23,0,0,1-2.63-3.64c-4.43-8.57-11.83-9.65-20.62-9.49-8.18.15-16.66-.53-22.52-8.12-3.68-4.75-3.88-8.21.3-13.87,3.87-5.23,8.29-6.71,13.25-4.56,3.37,1.45,6,4.16,9.63,5.22,5.62,1.65,9.88-.61,12.3-5.85,2.1-4.55,2.36-9.33,3.09-14.07,1.9-12.25-2.57-17.81-14.75-16.65-7.07.68-10.31-2.51-13.33-7.81-2.46-4.31.68-7.77,1.33-11.47,1-5.85,9-11.33,13.77-10,7,2,14,4.27,19.53,9.47,4,3.71,13.58,1.48,15.26-3.72,2.31-7.21,6.72-13.35,9.28-20.58,3.07-8.64.84-16.07-7.27-19.65a85.94,85.94,0,0,1-9.37-4.51c-1.43-.86-3.39-2.3-2.76-4.34.68-2.22,3-1.66,4.77-1.63,9.44.15,18.26,3.54,27.25,5.73,13.1,3.2,25.67,8.19,39.21,10.08s26.52,5.77,39.87,8.34c6.65,1.27,13.5,2.31,19.89,4.52,7.11,2.45,14.51,3.55,21.72,5.25,8,1.89,16.05,3.93,24.16,5.55,17.73,3.56,35.25,8.13,53.24,10.44a74,74,0,0,1,7.25,1.67c6.23,1.43,11.34,5.5,17.64,6.79,15.45,3.16,31,5.65,46.41,9.31,19.38,4.62,38.79,9.13,58.16,13.79,12.26,2.95,24.26,7,36.78,8.8,18.93,2.66,37.52,7.5,56.67,8.7,1.84.12,3.51.95,5.26,1.44,4.79,1.35,8.91,4.6,14,5a159.1,159.1,0,0,1,34.55,7c3.31,1,6.41,1.34,7.56-3A96.33,96.33,0,0,0,850.21,684a362.67,362.67,0,0,1,7.26-37.15c1.27-5.3.14-6.5-5-8.17-9.25-3-18.9-3.92-28.34-5.7-12.51-2.35-24.93-5.53-38-5-20.59.81-41.22-.15-61.68,3.77-12.86,2.46-25.79,5.21-39.07,4.64a20.64,20.64,0,0,0-7,.47c-12.11,3.82-24.34,2.51-36.64,1.6-5.53-.42-10.45-3.31-16.11-3-7.72.4-15.17-1.25-22.6-3.39-3.77-1.08-6.59-3.62-10.16-5-5.16-2-10.87-2.14-15.65-4.68-9.42-5-16.51-12.75-23-21.07a25,25,0,0,1-5-11.69c-1.22-7.4-4.47-9.7-12.1-11-8.36-1.37-16.69-3-25-4.59-19.1-3.62-38.05-8-57.34-10.51-1.53-.21-3.85.29-4.12-1.89s1.48-3.12,3.45-3.61c2.53-.62,4.84-1.51,4.83-4.76,0-5.34,0-10.67,0-16,0-2.81-1.78-4.95-4.29-4.41-7.53,1.61-15.95-.12-22.07,7.07-4.44,5.2-17.15,3.26-19.06-2.48-1.7-5.09-4.81-10-3.4-15.84a5.5,5.5,0,0,0-.93-3.77,22.05,22.05,0,0,1-3.38-9.83,7.83,7.83,0,0,0-3.26-6c-7.1-4.42-12.79-11.33-21.84-12.36-3.78-.43-6.1-2.57-7.39-6.42-1.61-4.78-2.12-9.75-3.42-14.56-.65-2.4-.94-5.13-3.63-6.2-3-1.18-3.53-3.55-4-6.31-.85-4.81-3.35-9-8-10.46-9-2.79-17.62-7.2-27.22-8a3,3,0,0,1-2.42-1.55c-2-3.4-5.21-3.66-8.66-3.83-7.65-.36-15.58.22-22.87-1.65-13.07-3.36-25.8-3.08-38.72-.16a5.52,5.52,0,0,1-3.41-.33c-2.83-1.42-5.79-.93-8.74-1.23-6.8-.68-13.63-.29-20.39-1-4.62-.48-6.34-3.8-4.72-7.83,4.43-11,8.85-22,5.81-34.27-.42-1.69-.62-4.44,1.43-4.79,3.6-.62,6.12-3.4,9.55-4,4-.69,4.44-3.18,3.2-6.24A51.63,51.63,0,0,0,232.6,362c-3.19-4.9-3.24-5.91,1.3-9.22,3.35-2.44,6.34-5.7,6.95-9.46,1.69-10.32,3.16-20.89.34-31.18-1.12-4.1-2.91-8.72-7.18-11-2.3-1.24-3.44-2.6-3.72-5.27a6.82,6.82,0,0,0-6.5-6.5c-5.14-.35-6.19-3-5.23-7.35.23-1,.38-2-.6-2.67a2.12,2.12,0,0,0-2.34.06c-4.46,2.27-6.17,7.37-3.87,12.43-1.14-.39-2.09-.63-3-1-2.66-1.2-5-1.45-7.12,1.2s-.29,4.34.68,6.64c1.05,2.5,4.32,2.76,4.67,5.56.14,1.1.82,2.39-.55,3.15-1.52.84-2-.46-2.57-1.47-1.83-3.24-4.38-5.38-8.3-5.54-2.49-.1-5-.25-7.47-.55-3.59-.44-4.87-3-3.44-6.23a49.18,49.18,0,0,0,1.87-5.65c.45-1.48-.87-3.52,1.23-4.45s3.17.84,4.56,2c5.79,5,8.8,4.33,12.09-2.57a8.16,8.16,0,0,1,4.7-4.12,15.43,15.43,0,0,0,9.48-11.38c1.49-9,7.19-15.8,10.57-23.75,2.29-5.37,4.14-10.79.63-16.13a42.22,42.22,0,0,0-7.87-8.89c-3.76-3.19-7.79-6.55-13.22-2.26-1.63,1.29-4.19.65-6.33.13-6.39-1.56-9.44.85-8.82,7.5.54,5.8.76,11.88,2.78,17.21,1.8,4.75,2.58,10.75,8.44,13.32,1.2.53,3.18,1.76,2,3.88-2.38,4.42-9.39,6.58-13.48,3.54a17.23,17.23,0,0,0-10.21-3.3c-3.72-.12-5.75-1.58-6.6-5.29a9.86,9.86,0,0,0-3.93-6.21c-1.71-1.13-1.79-2.58-1.22-4.42,3.09.89,5.95,2.37,9.2,2.23,2-.09,4.1-.55,4-2.83-.26-4.35,1.2-8.5.74-12.9a68.92,68.92,0,0,0-3.82-17.69c-1.86-4.91-4.47-7.89-8.93-8.72-8.19-1.51-16.59-.83-24.84-.28a128.63,128.63,0,0,1-21.94.06,21.8,21.8,0,0,1-15.44-9.08c-1.72-2.37-5.47-4.87-3.61-8.13s5.77-1.39,8.8-1.34c18.42.3,35.57,7.87,53.83,9.39,12.92,1.07,25.43,1.08,37.58-4.36,6.63-3,12.67-7.12,19.68-9.33,2.57-.81,4.76-3.61,3.19-5.83-3.46-4.91-.09-7.28,2.62-10.15,3.4-3.62,7.66-6.66,9.22-11.62,2.62-8.38,3.8-16.9.92-25.54-1.9-5.69,0-10.12,4.73-13.45a16.14,16.14,0,0,0,7.19-12.72c1.13,5.38,4,5.46,7.18,3.38a117.71,117.71,0,0,0,9.89-7.53c1.1-.9,2.13-2,3.44-1s.53,2.51.08,3.68c-.61,1.53-1.6,2.91-2.33,4.4-2.19,4.53.3,8.55,2,12.33,1,2.25,4.3,2.74,6.74,1.92,3.93-1.31,6.36-.07,8.23,3.36,1.17,2.14,2.88,2.29,5.08,1.16,5.88-3,5.35-12.78-1.32-17a5.78,5.78,0,0,1-3.08-5.61c0-6.64-1.3-7.65-8.09-6.66-1.32.2-2.63.46-3.95.63s-2.31-.6-1.5-1.62c4.64-5.81,6.64-13.81,12.84-18A26.32,26.32,0,0,0,300,61C304,50.7,308.1,40.5,304.65,29.05c-1.48-4.92.37-9.9,1.39-14.78.48-2.33,2.44-2.66,4.31-2.46,11,1.18,21.89-1.61,32.88-1.49,2.18,0,4.7-.05,4.76-3.09s-2.55-3-4.67-3.21c-5.81-.56-11.67.12-17.43-.18-17.82-.95-35.64-.37-53.45-.62-8-.11-16-.18-24-.14-2.07,0-4.88-.16-4.85,2.92,0,2.7.8,5.42,4.52,5.36,5.08-.08,8.46,5.21,13.87,4.37,1-.15,1.26,1.31,1.4,2.35a11.64,11.64,0,0,0,.77,3.87c4.36,8.16,4.34,17.39,6.38,26.1,1.24,5.28-1.38,10.43-2,15.64-1.06,8.42-.65,8.47-8.92,10.12-2.12.42-4.26.79-6.36,1.33a17.43,17.43,0,0,0-12,9.67c-5.79,12.32-13.32,23.28-24.13,31.78-3.34,2.63-6.08,5.78-10.27,7.61-6.48,2.84-12.28,7.2-19.7,7.68-.85.06-1.56,1.38-2.47,1.6-5.18,1.3-10.38,4.39-15.66.26-1-.78-2-.64-2.43.48-.58,1.39-1,3.84.62,3.84,4.44,0,7.94,3.19,12.43,2.84A90.73,90.73,0,0,0,222.83,126c2.94-1.93,6.81-3.1,9.83-1.85s.36,4.81.6,7.33c.19,2,.06,4,.1,6,.08,3.22-1,5.94-2.4,8.92-3.34,7.22-10.08,11.34-14.64,17.42a11,11,0,0,1-10.18,4.35c-7.1-.78-14.22-1.47-21.3-2.41a13.56,13.56,0,0,1-6.65-3.24,16.32,16.32,0,0,0-8.65-3.46c-10.75-1.17-19.95-7-30-10.43C133,146.39,126,145.69,121,151c-1.86,2-2.76,2-3.87-.38-.88-1.93-2.64-1.93-3.58-.56-4.82,7-13.11,12.14-11.59,22.56,1.06,7.24-3.47,11.61-9,15.36-3.77,2.58-8.06,3.95-12.18,5.64-4.39,1.8-6.06,4.27-4.34,8.8,1.2,3.15-.29,4.35-3.3,4.32-5.17-.06-10.33-.08-15.5-.22-1.57,0-4,.28-4.12-1.76-.15-1.89,2.18-1.53,3.55-1.73,2.14-.3,3.3-1.31,3.38-3.55.08-2.54-1.42-3.57-3.59-4-2-.4-4.34-.55-5.72.93-2.57,2.75-6.3,3.81-8.82,6.41-3.35,3.45-4.72.78-4.63-1.8.19-5.67-1-11.79,3.29-16.7a4.51,4.51,0,0,0,1-3.74c-1.95-14.2,14.76-25.42,27.77-22.7,1.38.29,3.63.28,4.3-.54,2.92-3.62,7.45-3.35,11.1-5.1s7.18-1.78,10.72,1.06c3.81,3.07,6.32,2.07,8.56-2.46,1.77-3.56,1.23-7.52,2.24-11.22,2.14-7.81.28-9.66-7.83-8.17a14.16,14.16,0,0,0-3.36.92c-8.46,3.93-17.51,3.76-26.45,3.47-7.75-.25-8-.74-9.94,6.9-1.61,6.29-4.67,10.55-11.59,11a2.34,2.34,0,0,0-1.41.44c-7.09,6.75-17.5,11.25-16.07,23.8a4.87,4.87,0,0,1-1.41,3.09c-3.49,4-7,7.88-12,10.3a45.6,45.6,0,0,0-10.11,7.26c-2.4,2.13-3.13,5.32-1,8.08,2,2.61,4.52,3.37,7.85,1.4,2.72-1.61,4.35-4,6.32-6.2.87-1,1.6-1.91,2.54-.11,2,3.86-.25,15.87-3.86,18.52a22.47,22.47,0,0,0-5.33,5.13c-3,4.33-6.09,4.5-10.21.16V253q0,21.25,0,42.5c0,1.43-.36,3.14,1.42,3.92a3,3,0,0,0,3.23-.71c7.66-6.08,16.79-10.82,17.87-22.38.25-2.72.58-4.36-1.72-6.42-3.26-2.92-8-3.15-10.86-6.76-2.22-2.76-2.52-5.05.76-6.26,3.75-1.4,5.25-3.8,6.5-7.4,2.76-7.92,7.49-9.38,14.92-5.49a41,41,0,0,1,5.29,3.69c4.37,3.23,6.92,2.37,10.06-2.09,2.15-3.07,2.42-6.93,4.86-9.76,1.89-2.19,3.81-3.18,5.15.3,2.81,7.31,10,12.75,17.81,11.52,5.82-.92,9.68,1,13.89,4.28,3.29,2.58,1.82,4.15-.42,5.71A9.36,9.36,0,0,1,87.37,259c-5.74.59-9.73,3.48-12.87,8.31-3,4.66-7,9.09-13,9.19-9.28.16-14.05,5.21-17.26,13.17-1.24,3.1-2,7.39-6.92,7.46a1.78,1.78,0,0,0-1.61,2.15c.13,1.11,1,1.65,1.91,2.14,4,2.16,9.38.13,11.56-4.75,1.65-3.7,3.72-7.63,6.8-9.56,6.17-3.85,12.52-8.3,20.73-6.49,1.8.4,3.9-.51,5.86-.81,8.77-1.34,15.47-7.34,23.45-10.41,9.55-3.69,19-8.07,29.68-3.61,2.72,1.15,5,2.5,6.48,5.12,1,1.73.81,5.08,3.76,4.42,2.61-.58,4.24-3.25,5.06-5.75.64-2,.4-4.27.49-6.42S150.92,258.82,152.52,256.64Zm211.67.85a7.28,7.28,0,0,1,7.83.07c3.79,2.51,7.75,2.76,12,2.12,2.42-.37,5.13-.47,6.63,1.28,6.56,7.64,14.17,6.59,22.26,3.39,2.92-1.16,4.78-.31,6.44,2.66a16.61,16.61,0,0,0,14.27,8.63c6,.29,11.87.35,17.67,2.48,4.37,1.61,6.88-.54,7.47-5.29a41.39,41.39,0,0,0,.21-5q0-29.23,0-58.48,0-25.5,0-51c0-3.45-.18-6.79-4.33-8C445.94,147.84,438,143.7,429.8,140c-2.72-1.25-5.73-1.22-8.4-3-4.57-3-9.64-5.5-15-6.42-9.85-1.71-18.51-7.38-28.62-8.1-2.07-.15-4.49-1.36-4.37-4,.12-2.93,2.85-2.69,4.9-3.18a87.65,87.65,0,0,1,20.2-2.53c3,0,4.58-1.78,5.35-4.36.91-3.06-1.52-4-3.56-5.16a24.06,24.06,0,0,0-9-2.8c-19.35-2.23-38.69-4.53-58-6.79-10.74-1.25-13.77.56-16.18,11.25-1.09,4.82-4.15,7.46-7.2,10.78-5.56,6.06-13,11.09-14.78,19.74-1.23,6.16-5.47,9.66-9.44,13.44-2.16,2.07-4.55,4.17-8,4.6-7.21.9-9.58,3.47-9.88,10.65-.21,5.09-2.2,8.28-7.43,8.92-3.25.4-4.7,2.47-4.8,5.41s1.49,5,4.36,6a11.09,11.09,0,0,0,12.87-3.31,10.35,10.35,0,0,1,4.52-3c6.86-2.33,12.8-5.89,17.28-11.83,2.54-3.37,6.12-4.61,10.12-2.14,1.84,1.14,3.34.72,5.11-.21a21.32,21.32,0,0,1,5.15-1.76,73.33,73.33,0,0,0,17.35-6.38c8.37-4.35,17-6.78,26.31-5.55a53.93,53.93,0,0,0,22.6-1.88,62.94,62.94,0,0,0,14.91-6.48c.71-.42,1.42-1.13,2.21-.47.95.81.33,1.85.07,2.77-.35,1.24-1.44,1.74-2.39,2.42-5.88,4.25-12.79,7-18.08,12.09q-8.79,8.49-20.56,5.24c-1.89-.51-3.64.11-5.34.78a3.17,3.17,0,0,0-2.06,4.41c.74,2,2.25,2.14,4.07,1.46,1.4-.53,2.85-.94,4.3-1.33,2.15-.57,4.36-.11,5,2,.57,1.82-1,3.62-2.77,4.2a29.42,29.42,0,0,1-8.24,1.69c-2.22.06-1.82-2.88-3.07-4.13a21.21,21.21,0,0,0-3-2.57c-3.08-2.08-5.24,0-7.55,1.69s-4.22,3.82-3.07,6.69c1,2.56,3.82,3,6.39,2.89,2.16-.12,4.29-.65,6.44-.88,1-.1,2.15-.19,2.47,1.08.22.92-.64,1.41-1.27,2-4,3.39-8.07,6.35-13.54,6.87a10.28,10.28,0,0,0-6.44,2.44c-4.56,4.36-11.15,6-15,11.37-.9,1.26-2.76,1-4.11,1.61-7.87,3.44-16.59,4.24-24.4,7.88-2.38,1.11-4.27,3.39-7.17,3.29-5.47-.17-8.74,3.12-11.88,7-5.4,6.72-4.18,10.76,4.1,13.25A126.93,126.93,0,0,0,293,242.44a99.51,99.51,0,0,1,20.26,4.9c7.37,2.52,14.72,4.95,21.82,8.18a7.87,7.87,0,0,0,8.51-1.06,7.56,7.56,0,0,1,5.58-1.67c.79,0,1.85.08,2,1.1.07.49-.42,1.15-.81,1.6-4.95,5.73-4.43,7.66,2.75,10.28,2.6,1,5.8,1,7.42,3.67,4,6.71,10.1,9.39,17.61,9.44,4.17,0,8.33-.1,12.49-.15,2,0,4.46.12,4.84-2.41a4.73,4.73,0,0,0-3.48-5.41c-7.85-2.56-14.74-7.63-23.2-8.64C366.18,262,365.26,259.66,364.19,257.49ZM106.94,707.64c0,4.44-1.76,9.29,1.3,13.12a84.4,84.4,0,0,0,12.67,13.29c8.67,7,19.79,8.5,30.13,10.43,13,2.42,26.39,3.4,39.59.09,7-1.76,14.42-2.28,20.5-7,12.32-9.62,15.64-23.62,18.49-37.74,1.83-9-2.63-17.52-3.42-26.36a4.92,4.92,0,0,0-1.4-2.58c-7-7.52-12.5-16.92-23.92-19.14-3.61-.69-3.72-2.84-.57-4.92,3.31-2.19,6.54-4.48,9.85-6.66,6-4,11.27-8.26,13.79-15.63,3.65-10.66,6-21.49,4.84-32.62-.87-8.55-2.6-17.61-10.59-22.69-5.5-3.51-11.18-7.11-17.66-8.86-10.35-2.8-21-3-31.61-4.07a14.9,14.9,0,0,0-10,2.48c-9.1,6-14.7,14.68-19.35,24.07-1.42,2.87-2.79,5.8-4.93,8-5.17,5.33-7.79,12.17-10.08,18.72-3.68,10.51-8,21-8.62,32.41a23.48,23.48,0,0,1-1.22,5.83c-2.41,7.36-3.53,15.1-4.83,22.61C107.84,682.6,107.83,695.2,106.94,707.64Zm457.6,132c3.49,0,7,.26,10.47-.05,9-.83,10.47-2.68,13.69-11,2.38-6.19,2.75-12.62,4.17-18.9,1.2-5.32-.71-13.79-4.22-16.44-4.89-3.68-15.18-4.63-20-1.85s-15.55.5-19-4.07c-6.33-8.46-3.47-16.93,0-25.34a10.55,10.55,0,0,1,13.75-6c2.5.89,5,1.65,7.54,2.59,3.82,1.45,6.83-.27,8.63-3.14a21.36,21.36,0,0,0,2-20.06c-1.39-3.47-3.76-5.52-8-5.41-8.32.19-13.43-5.32-12.16-13.56,1-6.26,4.09-11.73,8.52-16.49,3.22-3.45,6.93-4,10.88-2.64a20.3,20.3,0,0,1,9.67,6.67c3.55,4.39,5.35,9.4,7.35,14.52,2.78,7.12,8.74,10.16,13.84,3.65,3.68-4.71,8.21-9.36,7-16.33a6.15,6.15,0,0,1,.36-3c3.41-9.51,2.73-19.32,2.37-29.15a11,11,0,0,0-4.81-9.23c-4.6-3.41-10.22-4.67-14.94-7.83-10.82-7.26-22.77-11.45-35.8-9.16-6.81,1.19-14.59,2.83-18.3,9.78-5.06,9.49-12.08,17.86-15.8,28.09-.8,2.18-1.24,4.62-2.53,6.45-4.77,6.78-7.6,14.55-9.5,22.3-2.5,10.2-6,20-9.42,29.88a130.92,130.92,0,0,0-6.91,46,11.35,11.35,0,0,1-1.4,5.19c-4.65,10-.92,24.2,8.37,29.91C527,835.09,545.56,838.26,564.54,839.59Zm245.07-96c-.37-7.11-.88-13.9-3-20.72-4-12.77-13.34-20.81-25-23.38-10.45-2.3-20.19-1.16-29.43,3.88-7.64,4.16-14.39,9.74-18.6,17.36-4.67,8.47-3.72,18.49-6,27.68-.33,1.35.52,2.53,1,3.76,4.18,9.64,12,16.33,19.42,23.14,7.61,7,13.74,24.1,8.09,34.45-4.11,7.5-11.48,12.22-19.9,12.09-11.21-.17-15.85-8-20.23-16.06-4.13-7.57-13.54-9.14-19.3-2.44a38.47,38.47,0,0,0-5.44,8.83c-2.53,5.38-2.52,11.4-5,16.7a19.31,19.31,0,0,0-1.15,13.69c3.66,12.38,11.17,22.52,20.69,31,7.1,6.3,16.53,8.11,25.31,10.94,4.1,1.32,8.44,3.19,12.55,2.93,14.9-.94,28.66-5.11,39.44-16.42,10.5-11,16.32-23.69,16.2-39.17-.15-20.65-4.73-39.24-20-54.51-7.59-7.6-12.28-17-7.93-28.63,2.79-7.48,11.35-10.28,17.66-5.17,2.44,2,4.95,3.92,7.23,6.08,3,2.81,6.21,4.88,10.28,3.14C810.88,751,808.84,746.68,809.61,743.64ZM601.45,812.5c0,7.49-.5,15,.16,22.47.52,5.87-.85,12.52,4.9,17.08,11.56,9.16,24.78,11.59,38.91,9.1,2.93-.51,7.15-2.06,7.34-6.44.15-3.62.6-7.24-.32-10.93-1.09-4.35-2.5-8.57-3.76-12.83-3.39-11.43-7.13-22.75-10.56-34.16-1.76-5.86-1.72-12.15,1.9-17.85,1.81-2.87,4.23-4,7.16-2.9,4.79,1.8,9.91,2.72,14.36,5.56,4.61,2.93,9.74,1.07,11.91-4,.65-1.52.94-3.2,1.53-4.75,4.84-12.7,3.31-15.35-9.92-17.39-5.11-.78-9.13-3-11.87-7.87s.77-8.39,2.47-12c6.13-12.91,18.25-16.52,30.82-9.52,3.47,1.93,6.76,4.19,10.19,6.2,5,2.91,9.47,2.64,11.85-2.28,5-10.3,9-21.33,6.32-32.93a17.8,17.8,0,0,0-12.12-13.41c-8.46-2.85-16.78-6-25.37-8.64-18.41-5.56-32.52,1-41.92,16.4-4.95,8.13-5.5,18.65-13.72,24.92a2.54,2.54,0,0,0-.63,1.83c0,5.27-1.75,9.93-3.65,14.8-1.35,3.45-3.55,6.33-4.8,9.76-3.08,8.49-4.44,17.44-6.12,26.17C603.76,783.23,601,797.72,601.45,812.5ZM508.93,677.58a67.39,67.39,0,0,0-.52-18.41c-1.23-8.34-2.23-16.88-6.83-24.31-2.62-4.23-8.17-6.89-11.24-5.21A32.38,32.38,0,0,0,478.45,640c-6.5,9.72-13.7,19-17.9,30.1-2.38,6.32-6.2,12.1-8.58,18.42-5.39,14.35-8,29.5-11.92,44.25-1.1,4.07.72,8.52-1.13,12.35-2.59,5.4-2.32,11-2.18,16.64a42.63,42.63,0,0,1-1.44,10.81c-1.18,5.07-3.18,10.88-1.74,15.4a58.6,58.6,0,0,1,2.36,19c-.07,4.56,4.85,11.82,8.89,12.73,7.54,1.71,17.12-2.12,21.61-8.36,4.67-6.49,7.67-14.07,13.05-20.1a15.87,15.87,0,0,0,3.26-6.6c1.38-4.78,2.52-9.78,4.84-14.11,4.58-8.57,7.14-17.79,10.25-26.87,2.68-7.83,2.4-16.18,4.55-24,3.69-13.36,7.21-26.63,6.44-40.64C508.8,679,508.83,678.78,508.93,677.58ZM252.09,365.91c0,.69,0,1.85.14,3,.56,7.87,1.18,7.8,9.09,9.45,5.55,1.15,11.75.4,16.55,2.82,6.95,3.51,14.8,3,21.59,6.51a13.53,13.53,0,0,0,5.75,1.37c8.84.28,17.57-.1,26.54,1.32,9.8,1.55,20,3.64,30.21,1.92,5.07-.86,10.17-1.74,15.39-1.18a13.85,13.85,0,0,0,9.06-2c3-1.85,6.66-2.26,9.57-.43,6.13,3.84,11.27.72,16.36-1.82,2.19-1.1,4.8-3,4.6-6s-2.43-4.72-5.33-5.94c-7.23-3-14.51-5.62-22.35-6.66-5.68-.75-10.63-4.75-16.81-3.72a8.68,8.68,0,0,1-8.74-3.67,7.08,7.08,0,0,0-7.35-3,8.62,8.62,0,0,1-8.05-3.2c-3-3.76-7.42-6.06-10.07-10.24-1.3-2.05-3.75-4.3-6.27-2.51-3.56,2.54-5.38.18-6.8-2-1.71-2.61-3.88-3.93-6.64-3.28-3.64.87-4.6-.91-6.18-3.69-1.47-2.59-2.06-7.34-6.27-6.75-3.92.54-5.52-1.61-7.24-4-2.5-3.46-5.24-6.81-5.07-11.56.07-2.08-1.42-4.36-3.16-4.78-6.08-1.49-7.2-6.42-9.21-11.17-1.31-3.09-2.1-6.3-3.3-9.39-4.16-10.63-8.75-21.12-10.27-32.62-1.35-10.28-12-19-21.95-18.29a3.75,3.75,0,0,0-3.36,1.87c-1.24,2.9-3.3,4.1-6.37,4.79-3.65.82-2.74,4.46-3.09,7.13-.24,1.85-.18,4,2.08,4.5a5.94,5.94,0,0,0,6.23-2.19c1.16-1.39,2.53-2.62,3.7-4s2.37-1.57,3.15,0c3.05,6.19,7.67,11.87,7.63,19.18,0,11.27.46,22.53.4,33.81-.06,13.22-2.41,26.37-1.07,39.62a6.23,6.23,0,0,1-.9,3.3,8.18,8.18,0,0,0-.63,6.76,10.5,10.5,0,0,1-.34,7.31A26.06,26.06,0,0,0,252.09,365.91ZM44.31,121.44c.29,6.36,1.2,7.4,7.79,9.45,9.95,3.1,13.6-.07,11.79-10.25-.12-.66-.22-1.32-.38-2-.74-3,.17-4.9,3.08-6.43s6.1-2,8.32-4.38c3.33-3.61,6.87-2.83,10.21-.33,2.37,1.79,4.35,4.09,7,5.56.75.41,1.46.91,1.15,1.91a1.7,1.7,0,0,1-2,1.08c-6.17-.71-10.16,3.26-14.52,6.58-2.19,1.66-4.74,2.93-3,6.28a5.17,5.17,0,0,0,7.35,2.21c5.72-3,12.23-3,18.08-5.5,4.87-2.1,9.66-1.47,14.78,1.14,9.38,4.77,19.81,5.31,30.21,4.93,1.37,0,2.82-.62,2.83-2.25s-1.42-2-2.78-2.36c-12.17-3.19-24-7.21-34.85-13.87-3.09-1.89-6.15-3.42-8.63-6.21C94.59,100.19,88.11,93.67,82,86.78,79.1,83.45,76.56,79.52,76.41,75c-.26-8,.12-15.93,0-23.9,0-3.43,1.14-5.38,4.74-5.54,5.95-.27,10.86-4,16.65-5,2.55-.42,3.72-2.83,4.16-5.16a39.67,39.67,0,0,0,.88-8.93,30.17,30.17,0,0,1,3.6-16.29c3.29-6,2.57-7-4.61-7-12-.08-24-.05-36-.09C57.32,3,55.59,5.1,57.15,13.56c.35,1.89,1.44,3.34,2.24,5,1.65,3.31,2.5,7.14.14,10-2.8,3.34-2.79,6.94-3.06,10.72-.26,3.58.3,7.45-3.72,9.64a2.1,2.1,0,0,0-.62,2.72c1,2.64.24,5.25.08,7.89-.28,4.84-.21,9.66,2.84,13.85.8,1.1,1.67,2.62,1,3.71-2.45,4.27-8.38.53-11.18,4.61-.58.85-1.69.13-2.5-.68-3.61-3.62-5.6-3.06-8.45,1.3-5.27,8.07-6.58,17.65-10.37,26.28-1,2.3-1.44,6.73,1.24,7.06,5,.63,6.31,3,6.46,7.23,0,.62,1,1.27,1.63,1.78C36,127.08,39.57,126.16,44.31,121.44ZM458.86,334.05H459v-37c0-4.34-1.43-7.87-6.37-7.8-10.28.14-19.81-4.25-30-4.64-2.93-.12-5.64-1.73-8.8-1.2q-16.21,2.71-32.48,5.05c-2.75.4-5.25.86-6.86,3.39-.83,1.3-3.68,1.38-2.8,3.51.65,1.59,2.86,1.63,4.46,1.69,5.62.22,8.11,3,7.73,8.59-.17,2.62.75,5.07,3.26,6.3,7.58,3.7,11.33,11.29,15.16,17.65,6.65,11,11.62,23.12,18.17,34.37,2.76,4.74,6.07,9,8.9,13.69a6.82,6.82,0,0,0,7.71,3.38c5.8-1.49,12-.4,17.56-4.25,2.81-2,4.35-3.37,4.31-6.8C458.77,358,458.86,346,458.86,334.05ZM186.38,39c1.73,3,1.28,5.88,1.73,8.6,1,6.37.7,12.39-3.11,18.15-2.12,3.2-4.65,6.62-4.37,11,.15,2.25.6,4.34,2.93,5.37,2,.88,3.93.8,5.5-.9a6.07,6.07,0,0,1,5-1.82c4.86.28,9.22-2.23,12.2-4.84,5.15-4.5,10-10.15,12.86-16.31,6.32-13.77,5.05-28.63,3.48-43.28-.24-2.34-1.24-4.14-4-4.21s-3.61,1.7-4,4.1c-.25,1.69.25,4.42-2,4.48-2,.06-3.52-1.85-4.7-3.92-2.12-3.71-4-7.64-7.34-10.55s-6.82-2.18-8.83,1.6c-.66,1.23-.88,2.7-2.71,1.18-3.91-3.26-4,.12-4.21,2.63-.2,2.81.09,5.66,0,8.49-.07,2.45.79,5.36-1.28,7.15-3.71,3.22-5.55,7.25-7,11.82s-8.9,6.15-12.75,3.14c-5.38-4.19-10.68-4.29-15.91-.4-1,.72-1.62,3.26-3.4,1-1.25-1.55-1.13-3.14.76-4.18,2.43-1.32,2.19-3.54,1.06-5.13-2.37-3.34-3.46-7.16-5-10.83-.63-1.49-1.63-2.63-3.37-2.42-1.89.23-2.16,1.87-2.4,3.35a11.91,11.91,0,0,0,2.3,9.86c1.44,1.8,2.86,4.62-1.54,4.61-5,0-5.58,2.65-4.26,6.52,2.6,7.59-1.36,9.52-7.15,8.63-4.68-.72-5.93.74-4.11,5.15,1.64,4,2.59,8.37,4.5,11.92,2.82,5.25,5.4,12.36,14,11.11a4,4,0,0,1,3.62,1.33c1.41,1.63,3.15,1.65,5,1.11a11.51,11.51,0,0,1,6.37.13A17.68,17.68,0,0,0,167.37,81C173.4,77.87,183,62.86,184,55,184.73,49.81,184.39,44.42,186.38,39ZM663.69,632.63c6.1,1.49,14.07-3.76,22.72-3.79,13.45-.06,26.17-4.66,39.39-6.16a84.89,84.89,0,0,0,9.32-1.74c1.23-.28,2.93-.55,2.86-2.26-.05-1.31-1.47-1.74-2.57-2-13.06-3.67-26.28-6.26-39.92-4.46-5.43.72-10.75,2.21-16.33,1.05a6.7,6.7,0,0,0-5.23,1.24,14.57,14.57,0,0,1-8.54,2.39c-6.83.12-13.66.33-20.48.17-10-.24-20,0-29.9-1.88-3-.57-5.75.35-7.14,3.31-1.46,3.12.3,5.36,2.5,7.42a8.82,8.82,0,0,0,5.33,2.5C630.75,629.73,645.8,631.05,663.69,632.63ZM2.86,503.38c3.07-4.4,8.24-4.57,11.91-7.15,2.7-1.91,6.48-2.33,9.82-3.28,1.1-.31,2.54-.36,3.14.85.78,1.55-.83,1.91-1.73,2.47-2.35,1.45-4.19,3.59-7.28,4s-4.2,3.44-5.7,5.74c-.17.26.4,1.38.85,1.57a6.5,6.5,0,0,0,7.39-1.23c1.56-1.38,3.79-1.35,5.47-2.27,3.61-2,9.67-1.19,11-4.49,2.69-6.8,8.74-12.26,8.15-20.55-.2-2.81.3-7,5-7.4,2.2-.17,5.46-.36,4.53-3-1-2.83-1.88-9.12-5.64-7.2-4.26,2.16-10.16,3-12.58,6.39a42.5,42.5,0,0,1-7.58,8.28c-.88.73-2.24,1.78-2.18,2.59.36,5-3.86,6.36-6.7,8.82a40.16,40.16,0,0,0-4,3.72c-1.12,1.27-2.12,3.15-3.91,1.39s0-2.81,1.41-3.79a5.07,5.07,0,0,0,1.85-5.78c-.54-2.16-2.68-2.25-4.5-2.41-2-.18-4-.21-6-.28s-2.74.8-2.73,2.69C2.88,489.85,2.86,496.62,2.86,503.38Zm38.22-126c-1.25,8.07,3.28,16.3,4.32,25.13.26,2.19,2.23,3.63,3.68,5.23,1.94,2.13,3.35,1.9,4.19-.88,3.65-12,6.56-24.08,1.66-36.53-1.18-3-1.56-6.14,0-9.19,4.55-8.69,10.15-16.87,11.85-26.89.49-2.88-.25-3.7-2.62-4-3.84-.46-5.61,2.5-7.45,4.94a62.09,62.09,0,0,0-9.59,18.37C44.76,361,40.29,367.91,41.08,377.33ZM122,336.7c-4.73.8-9.52,1.37-14.17,2.5-2.2.54-4.4,2.24-4.74,4.64-.36,2.55,2.47,2.68,4,3.71,6.16,4,13.66,3.07,20.41,5.68,9.23,3.57,16.28,9.15,22.73,16.12,1.05,1.14,1.21,4.23,3.79,2.38,1.9-1.35.79-3.45-.11-5-3.35-5.63-6.64-11.34-10.37-16.72C138.34,342.52,132.39,335.85,122,336.7ZM595.06,615.2c.3-4.84-3.65-7.33-6.92-9.92a45.18,45.18,0,0,1-11.68-13.94c-3-5.62-7.51-7.09-12.74-8.1-2.7-.52-4.48.43-4.07,3.83a34.59,34.59,0,0,0,7,17.2c5.74,7.61,12.68,13.21,21.88,16C592.37,621.47,595,619.79,595.06,615.2ZM2.9,158.36c0,3.14-.06,6.8,0,10.45,0,1.37-.47,3.23,1.62,3.68,1.69.36,2.8-.61,3.67-2,2.88-4.57,7.87-7.24,10.44-12.27,2.19-4.28,4.86-8.11,4.95-13.23s-2.44-9.63-2-14.71c.15-1.76-1.67-2.79-3.37-3.18s-2.68.89-3.5,2.2c-1.93,3.09-3.36,6.7-5.91,9.15C3.11,144,1.92,150.49,2.9,158.36ZM189.17,105c6.43-2.08,13.78-1.68,19.42-5.55,7.33-5,14-11.09,20.88-16.75.87-.71,2-1.64.87-2.89a2.13,2.13,0,0,0-3.16-.14c-4.84,4.79-11.52,4.78-17.4,6a137.08,137.08,0,0,0-23.95,6.73c-3.68,1.47-8.61,4.15-7.92,7.15.91,4,6.23,5.32,10.76,5.48C188.84,105,189,105,189.17,105Zm-156,49.42c6.76-.56,17.58-3.47,22.59-10.65,1.35-1.94,1.68-3.47.86-5.43-1.67-4-15.8-7.25-19-4.43A8.19,8.19,0,0,0,35.54,136c-2.11,4.11-5.28,7.59-6.86,12C27,152.85,28,154.46,33.19,154.41Zm41.23,11.9c.39,5.13.68,9.78,1.11,14.41.15,1.7.71,3.4,2.82,3.56,1.83.14,3.81.12,4.86-1.76,2.86-5.1,7.05-9.1,10.84-13.44,2.23-2.56,2.08-8.78-.33-10.59-5-3.74-10.38-2.9-15.61-.76C74.06,159.38,75,163.51,74.42,166.31Zm47.41,144.07a2.49,2.49,0,0,0-1.78-2.28c-4.5-1.9-11.79.43-14.5,4.8a25.14,25.14,0,0,1-6.25,6.86C92,325.33,84,330.19,79,338.39c-.6,1-2.59,1.71-.86,3.15a2.8,2.8,0,0,0,3.71-.12c4.76-5.17,10.91-8.29,16.71-12,6.63-4.24,11.83-10.5,19.28-13.7A7.33,7.33,0,0,0,121.83,310.38ZM5,546.44a17.41,17.41,0,0,0,2.1-.52c1.74-.66,4.4-.43,4.3-3.2-.09-2.37-2.07-2.64-4-2.64-1.15,0-2.14-.67-1.58-1.85,1.8-3.77,1.74-8.38,5.93-11.07s8.56-5.59,13-8.08c2.26-1.26,4.38-3.46,3.17-5.93-1.14-2.32-4.21-1.78-6.32-.82-2.83,1.29-5.77,2.41-8.17,4.65-2.09,2-4.45,2.63-5.54-1.24-.42-1.48-1-3-3-2.45-1.54.41-2,1.69-2,3.1q-.06,13.93-.06,27.89C2.86,545.82,3.26,547,5,546.44Zm263.8-399.62c1.61.14,3.37-1,4.47-2.67,3.14-4.74,7.6-8.28,11.16-12.63,1.79-2.18,2.39-4.3.83-6.22s-4.17-1.31-5.86.15c-4.47,3.91-12.37,3.84-13.57,11.59-.06.38-.67.73-1.08,1-2,1.27-4.23,2.38-2.81,5.43C263.21,146.13,265.57,146.68,268.82,146.82ZM24.56,554.42c2,1.81,3.27,3.26,4.8,4.43,3.16,2.41,5.09,1,5.44-2.42a22.94,22.94,0,0,0-6.66-19c-3.06-3.15-4.91-2.54-5.29,1.8-.45,5.25-1.52,10.12-4.58,14.5a7.74,7.74,0,0,0-.88,2.84c-.35,1.69.17,3,1.94,3.48s3.32.12,4-1.8C23.78,557.22,24.05,556.1,24.56,554.42Zm15.2-27.29c2.16.51,2.64,4,5.17,2.49,2.06-1.23,1.26-3.59,1.32-5.5s.36-4.28-1-5.75c-2.46-2.55-3.18-5.76-4.25-8.88-1-2.75-1.48-7-5.3-5.66-3.09,1.1-2,5.16-1.39,8.06a21.57,21.57,0,0,0,1.35,3.2c.78,2,1.63,4,2.21,6,.29,1,.6,2.47-.78,3.08-1.15.51-1.67-.72-2.39-1.33-.88-.74-1.71-1.8-3-1A3.68,3.68,0,0,0,30,525.28c0,2.25,4.27,8.62,6.11,8.34,3.25-.49,2.33-3.81,3.23-5.9A3.59,3.59,0,0,1,39.76,527.13Zm805.23,14a15.79,15.79,0,0,0-2.48,0c-2.6.42-6.47-.51-6.67,3.36-.17,3.43,2.87,5,6.12,5.34a16.08,16.08,0,0,1,7.45,2.5,54.41,54.41,0,0,0,6.28,4,4.32,4.32,0,0,0,5.12-.62,3.81,3.81,0,0,0-.14-5.06C856.67,545.56,852.78,540.08,845,541.12Zm-734.24-467c.16-4.18-6.75-10-10.8-9-3.41.77-4.54,4.12-2.52,6.91a25.64,25.64,0,0,0,6.16,5.75C107.27,80.3,110.57,78.52,110.75,74.09Zm-108,34.1c-2.21,5,3.19,5.84,6.34,7.69,2.08,1.22,4.06.19,3.89-3.08-.23-4.68-3.67-7.72-5.63-11.45-1.17-2.21-3.58-1.17-4.25,1.35C2.7,104.11,2.87,105.67,2.73,108.19ZM176,21.67c-.27-1.1-.7-3.37-1.43-5.55a3,3,0,0,0-2.85-2.4c-1.7.07-1.93,1.65-2.21,2.88-.77,3.36-.91,6.84-2.4,10.09-.82,1.79.39,3.14,2.15,3.83s3.64.75,4.83-1.12A12,12,0,0,0,176,21.67ZM484.41,90.05c2.06-.15,4.16-.46,4.41-3a11.6,11.6,0,0,1,3.26-7.5,3.22,3.22,0,0,0,.34-4.13c-1-1.62-2.54-1.18-4-.9-1.72.33-2.79,1.46-2.52,3.11.47,2.84-.64,4.56-2.86,6.21a4.3,4.3,0,0,0-1.08,5C482.36,89.93,483.38,90.07,484.41,90.05ZM131.13,299c-.81-2.92-2.29-4.77-5.24-4.69-2.64.07-5.37,2-4.48,4.08,1.17,2.71,2.21,7.29,5.13,7.41C129,305.92,129.48,301.25,131.13,299ZM41.66,445.62A4.84,4.84,0,0,0,37,441.83c-2.47-.11-3.85,1.94-3.83,4.24s1.13,4.44,3.86,4A5.23,5.23,0,0,0,41.66,445.62ZM3.54,117.25c-.29,3.67-2.46,7.71,1.9,10.22,1.6.92,3.38-.16,4.17-1.74C12.92,119.11,4.81,120.7,3.54,117.25Zm189.8,131.8c-1.33.14-2.06.7-2,2.22.08,2.43,5,7.73,7,7.43,1.5-.22,1.68-1.31,1.65-2.58C200,253.74,195.5,249,193.34,249.05ZM585,11.61c-3.22.41-4.55,2.25-4.48,4.83a4.24,4.24,0,0,0,4.62,4.25c2.31-.1,3.08-2.44,2.91-4.48S587.58,11.78,585,11.61ZM357.37,285.22c-1.77.19-4.37.27-4,2.91s3,3.8,5.61,4c2.4.19,3.19-1.59,3.18-3.55C362.12,285.64,359.85,285.37,357.37,285.22ZM491.08,37.62c.13-2.24-.61-4.17-3-4.25-2.95-.1-3,2.48-3.29,4.57s.61,3.87,2.71,4C490.12,42,491,40,491.08,37.62Zm-144,276.25c-.28-2-.21-4.46-2.5-4.43s-3.55,2.3-3.66,4.61,1,4.39,3.13,4.44C346.85,318.56,346.6,315.68,347.07,313.87ZM485,51.38c.27,1.88.29,4.25,2.57,4.29,2.75.06,3.28-2.44,3.37-4.65s-.85-4.37-3.16-4.2S485.09,49.4,485,51.38Zm-12.6,38.8c2.44-.1,3.47-1.63,3.6-3.86s-1.26-3-3.13-3c-2.25,0-3.16,1.6-3.39,3.57S470.41,89.92,472.36,90.18Zm94.57,487.33c-2.59-2-5.53-1.82-8.15-2.49a2.19,2.19,0,0,0-3,1.81c-.15,1.39,1.07,2.12,2.12,2.39A10.51,10.51,0,0,0,566.93,577.51ZM488.65,60.84c-2-.16-2.54,1.39-2.84,3.1-.34,2,.44,3.36,2.52,3.34,1.75,0,3.9,0,3.81-2.71C492.08,62.51,491,61.19,488.65,60.84ZM121,43.8A12.47,12.47,0,0,0,121,42c-.27-1.45.61-3.87-1.79-3.79-1.79.06-1.4,2.25-1.56,3.66a6,6,0,0,0,0,1.47c.28,2-.53,5.46,1.65,5.47C121.78,48.86,120.4,45.39,121,43.8ZM3.24,178.79v16.9H4.56C4,190.05,5.45,184.41,3.24,178.79ZM25,173.71c1.68,0,2.83-.82,2.72-2.32-.2-2.59-2.42-2.75-4.37-2.94-1.46-.15-2.84.48-2.62,2.1C21.06,172.92,23.3,173.17,25,173.71ZM12.19,3.16c-1.36.26-3.64.13-3.36,2.41.25,1.91,2.41,2.05,4.08,2.1s3.2-.57,3-2.49S14.08,3,12.19,3.16ZM11.22,586a2.23,2.23,0,0,0,1.66-2.83c-.23-1.52-.65-3.06-2.57-3-1.73.07-2,1.49-1.91,2.87C8.47,584.72,9,586,11.22,586ZM490.27,10.77c0-1.63-.48-3.14-2.24-3.21-2.22-.09-2.4,1.78-2.41,3.45,0,1.51.14,3.22,2.09,3.23C489.84,14.25,490.18,12.5,490.27,10.77Zm-2.56,11.3a2.37,2.37,0,0,0-2.15,2.74c.16,1.39.28,3.35,2.15,3.2,1.56-.12,2.11-1.9,2.27-3.37S489.22,22.27,487.71,22.07Z" transform="translate(-0.91 -0.91)"/><path d="M887,518c-3.63,2-7.28,4-10.88,6-1.68,1-3.58,1.69-5.23.79-7.59-4.08-16.49-1.76-24.1-4.92-10.27-4.28-22.41-3-31.45-11-2.24-2-5.79-1-8.67-1.77-1.52-.4-3.32.22-4.64-1.09,8.53-6.18,6.22-15.64,7.25-23.79.53-4.26-.16-8.5,2.71-12.28.82-1.06.9-2.84.94-4.3.13-5,.13-10,.1-15a58.33,58.33,0,0,0-1.88-14.18c-1.26-4.94-2.27-10.68-1.47-15.63,1.6-9.93-.87-19.52-.7-29.29.2-10.78.68-21.65-2.06-32.31-1.37-5.34,2.45-9.87,3-15a1,1,0,0,1,.61-.73c9.64-1.55,6.63-10.73,9.28-16.27,1.82-3.83,2.4-6.15,7-4.21a9.36,9.36,0,0,0,4.91.36c2.29-.37,5.27,1.19,6.74-1.75.58-1.15-5.5-6.9-7.3-6.54-4.72.95-8.61-.14-10-4.83a16.11,16.11,0,0,1,4.13-16.2,23.22,23.22,0,0,0,4.23-6.53c1.39-2.86,1.35-4.3-1.72-6.37-4.13-2.77-.81-7.47.74-9.37,7.4-9.05,7.08-20.45,10.84-30.51,2.52-6.74,3.12-13.92,6.3-20.49,1.86-3.84,1.57-8.74,2.14-13.18.74-5.78,3.4-11.08,4.09-16.9.33-2.75,3.2-2.57,5.29-2.64,3.83-.13,7.67,0,11.42-1,1.05-.27,2.66-.05,2.62-1.64,0-1.15-1.37-1.21-2.34-1.44-3.38-.81-6.51-2.47-10.08-2.68s-5.33-2.6-4-5.8c3.85-9.52,4.14-19.83,6.2-29.67,2.3-11,5.72-22.23,4.87-33.86-.09-1.27-.28-2.35-1.56-2.81s-2.22.23-2.81,1.39c-.38.72-.75,1.46-1.73,1.56-.48-4,3.14-10.64,6.51-11.5,2.29-.58,2.78-2.1,3.08-4,1.33-8.31,3.8-16.45,3.71-25,0-2.2.41-4.87-2.62-5-2.86-.08-5,1.29-5,4.86,0,2.27.8,6.27-2.32,6.11-4.23-.21-1.35-4.18-1.79-6.46-1.12-5.79,3.93-8.77,6.72-12,5.69-6.59,11.68-13.15,18.9-18.3V206c-4,3.11-2.94,7.77-3.28,11.83-.32,3.78-.58,7.28-2.32,10.88s-1.93,8-1.89,12.08c0,1.55.42,3.51,2.67,3.52,1.75,0,2.49-1.32,3-2.81s.38-3.33,1.79-4.5v77c-4.86,2.79-9.67,5.7-14.61,8.35-8.58,4.63-9.88,7.84-6.25,16.83,5.07,12.56,10.34,25,14.82,37.85,1.54,4.42,2.69,9.28,6,13Zm-1-70.79a17.54,17.54,0,1,0-17.5,17.56A17.81,17.81,0,0,0,886,447.21ZM881.33,251.4c-.09-2-.35-4.15-2.69-4.06-2.53.1-2.86,2.42-2.74,4.46s-.18,5.28,2.33,5.31C881.6,257.15,880.41,253.4,881.33,251.4Zm-23.27-35.62c-.23-1.17-.45-2.53-1.84-2.54-1.78,0-2.52,1.43-2.48,3a2.24,2.24,0,0,0,2.18,2.25C857.57,218.49,857.94,217.14,858.06,215.78Z" transform="translate(-0.91 -0.91)"/><path d="M887,22a90,90,0,0,0-7,6.24c-3.7,4.07-8.85,5.67-13.44,8.15-2.84,1.54-5.47.49-5.1-3.42.6-6.4-1.46-9.89-8.26-11.86-4.46-1.29-6.12-7.43-9.52-11-.56-.58,0-1.76.84-2.08,3.34-1.31,3.36-4.17,3.44-7,12.17,0,24.33.07,36.5-.06,2.15,0,2.63.4,2.57,2.56C886.88,9.66,887,15.83,887,22Z" transform="translate(-0.91 -0.91)"/><path d="M830,1c-4.21,8.41-13,9.51-20.4,12.91-6.48,3-14,3.82-19.11,9.65-1.61,1.85-4.73,4.23-6.07,2.73-2.76-3.06,2-5.41,3.22-5.75,6-1.73,7.4-9,13.69-10.51C805,9.13,806.24,5,806,1ZM817.26,5.14c-.26-1.27-.75-2.57-2.35-2.58s-2.27,1.28-2.36,2.65.38,2.86,1.93,3C816.21,8.25,816.9,6.79,817.26,5.14Z" transform="translate(-0.91 -0.91)"/><path d="M887,357c-5.65-6.62-6.79-15.14-9.51-23a4.64,4.64,0,0,1,3.19-6.33c2.42-.75,3.7-3.35,6.32-3.7Z" transform="translate(-0.91 -0.91)"/><path d="M731.53,140.38c2.23,3.61,1.77,5.08-2.21,5.69-4.89.75-8.35,4.77-13.26,6.21-5.69,1.67-11.95,2.59-16.77,6.72a1.2,1.2,0,0,1-2-.57,2.83,2.83,0,0,1,1.46-3.75,110.65,110.65,0,0,0,11.84-7.18c9.38-7.06,21.24-10.15,29.72-18.61a1.81,1.81,0,0,1,1.32-.6c7.28,1.72,13.46-2.78,20.28-3.55,5.67-.65,11-2.52,16.44-4.13,3.71-1.1,5.14-4,4.81-7.75-.13-1.49-.41-3-.39-4.46s.59-2.76,2.38-2.46c1.49.26,1.66,1.42,1.3,2.72-.47,1.69-.61,3.42,1.14,4.44,1.95,1.12,2.95-.82,4.3-1.62,3.1-1.84,6.55-3.19,2.21-7.63-1.83-1.86,1.73-11.52,4.39-12.68a14.46,14.46,0,0,0,5.59-4.8c3.78-5,9.34-6.69,14.72-6.93,5.69-.25,10.32-2.27,14.79-5a31.54,31.54,0,0,1,8.73-3.33c4.86-1.3,10.38-1.72,12.85-7.36a1.89,1.89,0,0,1,1.56-.89,1.77,1.77,0,0,1,1.16,2C857.59,70.57,860,76.22,856,82s-1.69,13-2.06,19.58c-.26,4.68.16,9.25-2.67,13.43-1.33,2-1.82,4.82-.82,6.75,2.53,4.91,1.3,9.6-.55,13.92-2.23,5.18-1.61,10.93-3.68,15.84a46.26,46.26,0,0,0-3.78,13.79c-.49,5.33-2.37,10.31-3.51,15.47-.67,3-3,3.1-5.23,3.66s-4.38,1.38-.74,3.44a3.59,3.59,0,0,1,1.05,5.63c-3.73,4.53-4.56,10.18-6.69,15.32-.46,1.12-.24,3.11-2.18,2.63-1.75-.43-1.91-2.16-1.58-3.72.55-2.61,1.21-5.19,1.83-7.78.28-1.16,1.72-2.4-.17-3.42-1.4-.75-2.94-1-4.2.13-2.73,2.53-5.72,3-9.22,1.88-1.89-.59-3.5.61-5,1.7-2.29,1.63-4.58,3.28-7,4.74-2.78,1.69-7.16,2.24-7.95-.28-.62-2-1.79-6.17,1.48-8.89,2.79-2.33,6.13-3.93,8.53-6.82,2-2.38,2.11-4.71.15-6.65s-4-5.44-7.64-4.22c-2.66.89-4.66.85-7-.79-2.56-1.83-5-1.31-5.76,1.92-.81,3.48-3.27,4.19-6.1,5-2.32.62-3.28-.1-4-2.32-1.57-5.08-4.66-6.39-9.25-3.87s-9.17,4.64-11.52,10c-3-7.44-2.16-10.61,3.81-14.26,1.79-1.1,3.28-2.16,3.65-4.39.67-4,5.08-3.87,7.19-6.42,3.61-4.34,8.18-5.26,13.4-2.72,2.34,1.15,4.6,0,6.69-1,3.94-1.87,7.71-2,11.34.63,1.33,1,2.83,1.74,3.93.14,3.59-5.19,9-5.29,14.32-5.15,4.53.12,7.43-1.28,9.23-5.82,2.06-5.19,1.56-9.81-1.82-13.85-2-2.41-4.22-4.55-5.81-7.37-2.61-4.66-9.43-4.57-14.88-.08-4.85,4-7.94,4.32-13.4.94-2.56-1.58-5.23-2.61-8-1.73-5.83,1.83-11.64,3.82-17.27,6.18-3.11,1.31-6.34,2.88-9.5,2.62-5.19-.42-8.94,1.81-12.68,4.65C738.05,142.6,735.14,143.82,731.53,140.38Zm111.33-40.16c-.65,2.16-1.3,4.74-2.2,7.24a26.72,26.72,0,0,0-1.8,7.76c-.42,9.34-4.25,18-5.12,27.3-.22,2.3-2.47,4-2.25,6.52.11,1.36.11,2.79,1.38,3.57,1.5.93,2.4-.42,3.43-1.21a8.25,8.25,0,0,0,3.61-6.81c-.1-5.27,2-10.05,2.92-15.06,1.67-8.61.81-17.54,3.61-26.14,1-3.13.33-6.89,2.57-9.87a2.65,2.65,0,0,0,.21-3.26c-.78-1.15-2-1-3.16-.84-3,.34-4.61,1.82-4.22,5C842.07,96.18,842.46,98,842.86,100.22Zm-29.21-4.8c-1.18-2-3.61-2.3-5.79-2.31-4,0-4.5,3.59-5.07,6.3-.41,1.94,1.8,2.5,3.53,2.56C807.9,102,813.67,97.19,813.65,95.42ZM848.79,76.9a71.8,71.8,0,0,0-3.28,6.68c-.7,2,.65,3.31,2.36,3.7s2.25-1.22,2.36-2.54A13.81,13.81,0,0,0,848.79,76.9Zm-57.74,90.71c2-.24,3-1.71,3.53-3.52.36-1.19-.5-1.86-1.59-2-2.59-.35-2.88,1.62-3.34,3.41C789.37,166.62,789.44,167.5,791.05,167.61Z" transform="translate(-0.91 -0.91)"/><path d="M604.12,453.44c-3.9,3.55-7.58,5.23-12.25,4.9-4-.28-8.62,4-8.85,7.57-.39,5.83,2.85,10.95,7.58,11.9a138.17,138.17,0,0,0,25.57,3.08,28.45,28.45,0,0,0,8.76-1.65c1.57-.47,3.56-.88,4,1.51.33,2-.43,3.85-2.71,4-3.07.22-5.93,2.41-8.46,2.32-4.34-.16-7.84.81-11.88,2-2.55.75-9.41,2.26-11.48-4a2,2,0,0,0-1.69-.83c-3.64.4-6.74.35-6.3-4.77.09-1.07-1.23-1.27-2.23-1.57-6.27-1.86-8.46-6.74-5.86-12.85a5.11,5.11,0,0,0,.76-2.34c-1-6.62,3.12-6.69,7.79-6.4,2.35.15,5-.16,6.69-1.61C596.73,452,600,452.87,604.12,453.44Z" transform="translate(-0.91 -0.91)"/><path d="M647.36,449.43c3.59-.34,7.6-3.87,9.54-3.07,4.45,1.84,8.52,0,12.69.69,4.52.78,9.26-.11,13.73,1.64.83.32,2.42.31,2.87-.22,5.34-6.25,9.75,1.3,14.68.95,1.21-.09,1.67,1.44,1.68,2.68a1.91,1.91,0,0,1-1.79,2c-4.1.45-7.22,3.22-11,4.53-1.93.68-3.5,1.13-5.63.42-2.68-.89-5.63-1.1-7.46,2-.53.89-1.12,1.74-2.34,1.15-1.47-.71-1-1.71-.56-2.91,1.44-3.93-.61-5.06-4.19-5.95C662.34,451.59,654.66,452.38,647.36,449.43Z" transform="translate(-0.91 -0.91)"/><path d="M773.76,199.64c1.28-.15,4.17,1.06,5.91-2a1.26,1.26,0,0,1,2.1-.26,1.54,1.54,0,0,1-.45,2.18c-5,2.5-6.37,6.36-5.78,11.78.27,2.45-2.5,2.48-4.62,2.17s-3.67-.64-2.85-3.35A2.52,2.52,0,0,0,767,207.1c-2-1.06-3.13-2.18-2.2-4.69,1-2.67,3.16-2.55,5.27-2.76C770.87,199.58,771.71,199.64,773.76,199.64Z" transform="translate(-0.91 -0.91)"/><path d="M724.3,217.85c-3.85.83-6.21-2.47-9-4.18-2.14-1.33.49-2.33,1.77-2.45,3.76-.36,7.55-.5,11.33-.62,1.28,0,2.84-.16,3.48,1.28.73,1.64-1.23,2.08-1.74,3.19C729,217.57,727,218.22,724.3,217.85Z" transform="translate(-0.91 -0.91)"/><path d="M722.88,187.82c-1.37,0-2.66.15-3.41-1-.88-1.32.25-2.23,1-3,2.95-2.86,5.93-5.7,9.81-7.31,1.14-.47,2.29-.79,3.05.54s-.22,2.18-1.28,2.72a4.71,4.71,0,0,0-2.61,3.43C728.7,187.08,725.71,187.47,722.88,187.82Z" transform="translate(-0.91 -0.91)"/><path d="M673,493.09c-1.49,4.64-5.6,6.72-9.21,9.21-1.3.91-3.28,1.42-4.23-.7-.78-1.73-.84-3.36,1.09-4.78,3.76-2.76,7.76-4.31,12.48-3.6Z" transform="translate(-0.91 -0.91)"/><path d="M784.89,204c2,.23,3.23.85,2.46,2.25-1.28,2.34.41,6.6-3.17,7-2.19.25-6.21-1.76-5.51-4.4C779.24,206.73,783,205.42,784.89,204Z" transform="translate(-0.91 -0.91)"/><path d="M673.14,493.22c.24-.94.16-2.31.77-2.75,3.5-2.55,7.26-4.72,10.1-8.14.48-.57,2-1.37,3.83.32-5.62,2.83-8.06,9.4-14.84,10.43Z" transform="translate(-0.91 -0.91)"/><path d="M651.77,600.49a16.36,16.36,0,0,1,11.36-1.91c1.3.27,3,.4,3,2.07-.09,1.88-1.84,1.55-3.12,1.39C659.22,601.57,655.5,601,651.77,600.49Z" transform="translate(-0.91 -0.91)"/><path d="M707.44,210.6c2.32,0,4.73.69,4.42,2.58-.49,2.9-3.64,3.41-6.17,3.87-1,.18-3.2.37-2.57-1.74S704.33,210.24,707.44,210.6Z" transform="translate(-0.91 -0.91)"/><path d="M660.38,467.59c1.39.24,3.13,0,2.41,1.38-1,1.8,0,5.22-3.52,5.14-1.59,0-4-.12-3.85-2.19C655.57,468.87,659,469.05,660.38,467.59Z" transform="translate(-0.91 -0.91)"/><path d="M751.74,212.55c-2.85.9-5.36,2.86-8.43,2.06-1.23-.32-2.95-.61-2.63-2.32a2.37,2.37,0,0,1,3.51-1.62C746.6,212.14,749.28,211.47,751.74,212.55Z" transform="translate(-0.91 -0.91)"/><path d="M622.28,452.73l13.07-1.23C631.28,454.89,626.11,455.5,622.28,452.73Z" transform="translate(-0.91 -0.91)"/><path d="M187.78,444.93c2.72-.13,3.93.23,5,1.12,8.52,6.85,18,12.36,26.57,19.2,5.61,4.48,12.56,7.42,18.27,11.95,6.47,5.13,13.15,10,20,14.48,4.56,3,9.8,4.87,13.67,8.91,1.67,1.74,4.63,3.64,3,6-1.42,2-4.37,2.95-7.63,2.28-7.64-1.56-15.05-4.27-22.9-4.88a6.44,6.44,0,0,1-3.35-.89C230,494.64,216.7,492.22,205.17,486c-4.51-2.43-8.23-4.77-10.32-9.26-3-6.58-10.53-8.33-14.63-13.85-2.32-3.12-4.82-6.56-3-9.8C179.69,448.86,183.86,445.72,187.78,444.93Z" transform="translate(-0.91 -0.91)"/><path d="M96.54,215.47c-2,.44-4.37,1.05-6.8,1.47-1.1.2-2.5.35-3.16-.83a2.9,2.9,0,0,1,1-3.57,30.9,30.9,0,0,0,8.8-13.39c1.5-4.2,5.11-4.63,7.39-.76,3.1,5.25,6.77,9.66,11.93,12.86a3.17,3.17,0,0,1,1.37,3.5c-.72,3.7-3.4,6.06-6.35,7.82s-4.5-1-6.17-2.75C102.42,217.65,100.3,215.59,96.54,215.47Z" transform="translate(-0.91 -0.91)"/><path d="M55.81,228.89c-.17,1.42.45,2.91-.92,3.43A3.1,3.1,0,0,1,51,230.86c-2.25-5.55-6.73-6.25-11.85-6.19-1.58,0-3.46-.27-4.1-2.23s.4-3,1.89-4.13c2.29-1.71,2.32-5.06,4.85-6.81,3.43-2.37,5.71-1.78,6.32,2.27.37,2.52,1.5,4,3.41,5.64C54.29,221.83,55.36,225.49,55.81,228.89Z" transform="translate(-0.91 -0.91)"/><path d="M128.85,228c6.79-7.54,15.69-5.16,23.83-6,1.13-.12,2.78,0,2.76,1.4,0,1.71-1.8,1.68-3.07,1.65-2.31,0-4.63-.49-6.93-.4-3.9.14-7.91-.26-11.15,3C133.08,228.86,130.93,228.77,128.85,228Z" transform="translate(-0.91 -0.91)"/><path d="M261.86,86.71c.26.17.89.35,1,.68.16.57.23,1.58-.09,1.81-2.35,1.67-3,4.19-3.7,6.72a2.15,2.15,0,0,1-1.44,1.13c-.67.16-1.12-.38-1.36-1.09C255.59,93.92,259.68,86.89,261.86,86.71Z" transform="translate(-0.91 -0.91)"/><path d="M62.34,223.38c-1.08-2.27-4.55-1.54-4.14-4.68a1,1,0,0,1,1.49-.74C61.41,219,64.08,219.44,62.34,223.38Z" transform="translate(-0.91 -0.91)"/><path d="M176.83,679.68c.29,3.42-1.12,6.89-3.15,10.25-3.38,5.59-6,7-11.76,5.71-5-1.13-5.84-5.69-6.51-9.6-1.11-6.44,1.11-12.4,4.13-18,.74-1.37,2-1.58,3.38-1.74C169.87,665.45,177.08,672.09,176.83,679.68Z" transform="translate(-0.91 -0.91)"/><path d="M188.09,608.15c-.35,8.51-7.55,17.44-15.34,19.3-2.08.5-4.62,1-6-1.12-2-3-4.1-6.26-2.63-10.22,1.81-4.88,4.25-9.41,8.64-12.49,3.28-2.32,6.44-4.28,11-2.22C187.33,603,188.68,605,188.09,608.15Z" transform="translate(-0.91 -0.91)"/><path d="M147.92,54c.05-3.94,9.62-10.19,13-8.93,2.22.82,1.61,2.25.53,3.46q-4.29,4.81-8.79,9.41a2.77,2.77,0,0,1-3.25.53C147.39,57.4,148.31,55.25,147.92,54Z" transform="translate(-0.91 -0.91)"/><path d="M202.79,34.54a4.41,4.41,0,0,1-.61,2.1c-1,1.48-2.28,3.53-4,3.21-2-.37-1.12-2.79-1.23-4.31-.31-4.29-.43-8.59-.66-12.88,0-.83-.28-1.72.52-2.25.63-.42,1.56-.14,1.62.51C198.85,25.45,203.22,28.54,202.79,34.54Z" transform="translate(-0.91 -0.91)"/><path d="M137.53,58.86c2.17.57,3.82,1.83,5.93,1.6,1.25-.13,3-.29,3.15,1.56a4.56,4.56,0,0,1-2.06,4.29c-1.32.9-3,1.28-4.15,0C138.59,64.44,136.61,62.47,137.53,58.86Z" transform="translate(-0.91 -0.91)"/><path d="M869.47,445.74c-1.49-1.05-3.07-2-4.46-3.19-.93-.79-2.28-1.72-1-3.26s2.6-.72,3.74.38a16.92,16.92,0,0,1,1.39,1.42c1.6,2,5.47,3.66,4.61,5.84-1.18,3-4.42,5.16-6.85,7.62a1.76,1.76,0,0,1-2.64-.09c-1.19-1.07-.83-2.16.19-2.93,1.73-1.29,3.61-2.38,5.43-3.55Z" transform="translate(-0.91 -0.91)"/></g></g></svg>