<svg xmlns="http://www.w3.org/2000/svg" viewBox="0 0 891.2 874.21"><title>bliss</title><g id="Layer_2" data-name="Layer 2"><g id="Layer_1-2" data-name="Layer 1"><path d="M356,875q-175.35,0-350.7.09c-3.47,0-4.42-.54-4.41-4.29Q1.12,755.9,1,641c6.51,2,13,4.12,19.55,5.8,11.54,3,22.59,8.12,34.84,8,1.46,0,2.86.49,4.13-.91,4.7-5.22,5-5.35,8.95.31,10.28,14.72,22.77,27.71,32.88,42.55,3.29,4.82,9.33,5.92,14.61,3.28,8-4,15.5-8.48,21.26-15.74,4.09-5.16,4.6-8.29.33-13.43-4.14-5-8.11-10.1-12-15.26-1-1.36-3.19-2.62-2.11-4.68s3.26-1,5-1.33c4.93-.84,8.74-1.5,7.64,6.23-.62,4.38,3.57,8.39,5.66,12.54a15.25,15.25,0,0,0,20.22,6.72c6.59-3.16,13.34-6,19.82-9.37a28.55,28.55,0,0,1,16.29-3.27c3.18.29,4.28.56,3.71,4.31a64.74,64.74,0,0,0-.29,15.43c.56,6.08,6.55,10.72,13.72,10.75,19.66.06,39.32-.18,59-.24,13.83-.05,27.66,0,41.5,0,9.52,0,14.5-5,14.51-14.28,0-3.33,0-6.66,0-10,0-6.52-4.2-11.12-10.82-11-8.33.14-16.61-1.26-24.94-.54-1.35.12-3.53.81-3.74-1.22s2-1.88,3.4-2.09a20.82,20.82,0,0,1,2.5-.07c8.08-.24,13.34-5.5,13.31-13.69,0-6.77,2.59-14.18-5.13-18.87,2.09-1.66,3.07-.76,4.08-.33,6.1,2.61,12.17,5.3,18.31,7.8,11.79,4.81,17.69,2.28,22.91-9.11,1.74-3.82,1.74-5.37-3-5-18.8,1.39-37.84-2.79-56.5,2.56-7.85,2.25-16.16,1-24.15,2.49-2.11.41-4.52.41-5.61-2.1-1.24-2.88-3.58-3-6.2-3-15.34,0-30.67,0-46,0a11.09,11.09,0,0,0-4.88.75q-18.76,8.67-37.57,17.27c-6,2.76-12,5.63-18.11,8.21-1.18.5-4.28,2.4-3.86-1.05.67-5.43-1.12-10.53-1.23-15.85-.07-3.43,1.52-9.16-5.35-9.57-1.87-.11-1.07-2.08-1.07-3.31q0-95.75.08-191.47c0-6.34,0-6.35-6.48-5.36-3.06.47-7.66,2.37-8.87.45-1.87-3,2-6.16,3.44-9.2,1.12-2.3,2.66-4.74,5.17-.8,1.19,1.87,3.38,2.06,5.42,1.52,1.38-.36,1.51-1.73,1.36-2.9-1.56-11.46,1.93-22.95-.3-34.4a4.87,4.87,0,0,1,1.36-4.09c4.34-5.5,4.35-11.24.52-17a9.34,9.34,0,0,1-1.75-5.58c.07-5.49-.05-11-.06-16.49q-.09-38.49-.16-77c0-3.53-.21-6.71-5.15-5.29-1.39.4-3,1.65-3.89-.27-.82-1.71.87-2.88,2-3.62,9.29-6.14,6.78-15.29,6.76-25a19.58,19.58,0,0,0-1.78,2.32c-1.7,3.46-3.89,4.33-7.42,3.5-1.9-.45-4,0-6-.2-3.34-.3-6.55-1.87-7.55-4.84-.78-2.33,2.53-3.44,4.35-4.76,5.42-4,10.37-8.63,16.43-11.69,1.79-.91,2.18-2.25,2.18-4.06,0-11,0-22,0-33,0-1,.36-2.1-.67-2.72s-1.81.27-2.65.78c-7.33,4.51-13.68,10.35-20.81,15.19-12.15,8.24-24.31,16.61-35.4,26.4-5,4.37-5.73,8.26-.8,12.77Q82.49,220,89.17,226c3.81,3.4,3.76,4.29-1,6.51s-8,6.82-12.47,9.81c-1.67,1.12-2.36,4.8-5.27,4.65C62,246.51,59.67,255.61,53,257.84a1,1,0,0,0-.55.76c.52,4.4-2.49,3.57-5.13,3.65-5,.16-10.91,4.44-12.39,8.74-1.73,5-2.11,9.5,3.66,12.42,1.39.7,2.3,2.36,3.39,3.62A10.21,10.21,0,0,0,55.64,289c11-7.48,21.94-15.09,33-22.56,8.67-5.87,17.45-11.58,26.15-17.4,3-2,4.58-1.59,4.39,2.35-.08,1.82.11,3.65-.77,5.38-.71,1.4-1.08,3.27,0,4.26,3.32,2.92,1.48,6.54,1.74,9.86.06.85.41,2.22-1.11,2.25-1.13,0-1.64-.91-2-1.94-.59-1.92.41-4.3-1.7-6.14a9.07,9.07,0,0,0-1.11,1.85c-3.16,10.84-6.22,21.71-10.2,32.29-.39,1,0,2.67-1.53,2.82-6.3.6-11.49,4.18-17.19,6.34-7.65,2.89-11.42,7.3-6.59,14.35,1.6,2.32,2.81,4.9,4.25,7.33,6.26,10.56,11.77,21.59,19.2,31.43,1.31,1.73.62,2.88-.27,4.45-1.07,1.89-2.12,1.15-3.66.84-4.48-.87-6.3-3.18-7.1-7.84-1.06-6.14-2.85-12.14-10.47-14.38-4.79-1.4-8.4,1.05-12.57,1.52-14.67,1.67-28.84,6-43.36,8.32-8,1.3-15.57,4.59-23.78,4.66Q1,182,.92,5.1c0-3.21.35-4.21,4-4.21q441.63.18,883.25,0c3.73,0,3.92,1.16,3.92,4.26Q892,268.58,892,532q-15.36-18.91-30.7-37.85c-5.23-6.46-10.36-13-15.56-19.48-1.39-1.72-1-5.21-4.83-4.56-1.13.19-3,.42-3.17-1.49a2.92,2.92,0,0,1,2.26-3c6.88-1.06,10.5-8.75,18-8.65,1.31,0,2.68-2.27,4-3.57a26.44,26.44,0,0,1,2.61-2.94c4.89-3.61,5.27-5.18,2-10.16-1.17-1.81-2.44-3.58-3.77-5.27-2.12-2.71-10.78-6-13.38-5.09-3.09,1.12-6.05,2.67-9.19,3.58C832,435.9,824,439,816,441.94c-.9.33-2.07.66-2.66-.44-.43-.8.19-1.56.72-2.23,2.46-3.13,2.29-6.68.71-9.9-2.14-4.38-5.66-8.27-3.14-13.72.22-.49-.55-1.51-1-2.22-5.46-9.29-6-20.12-9.46-30.06-.43-1.24-1-3.08.71-4,1.47-.81,2.4.64,3.55,1.19,10,4.8,17.37,13.68,27.6,18.18a7.21,7.21,0,0,1,1.85,1.66c4.29,4.29,8.05,5.06,13.47,2.48,3.6-1.71,7-3.75,10.63-5.47,3.44-1.65,3.5-3.7,1-6.15-3-2.91-5.81-5.92-9-8.61-14.36-12-29.49-23.18-42.77-36.39-4-4-11.69-5.61-11-13.65.07-.87-1.86-1.85-.39-2.91,1.21-.87,2.14.29,3,1,7.14,5.63,14.46,11.05,21.37,16.94,13.41,11.41,27.45,22,41.26,32.88,1.62,1.27,3.63,2.38,5.52,1,4.08-2.87,7.18-6.88,7.58-11.8.3-3.63-3.19-5.79-6-7.94a114.61,114.61,0,0,0-13.8-8.57c-9.42-5.3-17.81-12.34-27.7-16.86-6.5-3-8.18-9.75-12.62-14.34a15,15,0,0,1,7.38,4.14,3,3,0,0,0,3.2.84c1.47-.57,1.06-1.94,1-3-.32-3.12-.34-6.36-1.24-9.33-3.27-10.81-4.1-22.1-6.65-33.05-1.64-7.07-2.63-14.29-4.08-21.4-.87-4.26-3.26-6.74-8.07-6.22a20.47,20.47,0,0,1-7.37-.81c-6.33-1.65-11.74,2.45-11.44,8.66a126.33,126.33,0,0,0,1.75,12.79q2.73,17.68,5.52,35.36c.42,2.63,0,4.26-3,5.23-2.43.79-4.76,2.44-4.74,5.76,0,2,1.5,5-1.35,5.54-2.16.43-2-2.45-2.35-4.18,0-.25-.38-.45-.58-.68-2.8-3.12-7.23-4.81-8.23-9.51-.21-1-1.05-.81-1.93-.88-2.81-.19-5.13-1.29-5.13-4.62,0-2.22-1.2-3.3-3.06-4-3.41-1.34-6.8-2.79-10.57-2.66-3.31.1-6.12-1.47-9-2.7-1.51-.64-2-2.19-2.14-3.72s1.08-1.56,2.06-1.51c6.63.29,13.29-.83,19.89.73,5.27,1.25,10.66.64,15.89-.07,4-.54,4.13-4.19,4.13-7.49,0-3.11-1.63-4.24-4.61-4.67-10.61-1.52-21.18-3.3-31.77-4.94-3-.47-6.75-.64-7.59-3.75s3.06-4.69,5-6.77c1.15-1.23,3.65-3.08,4.73-1.57,3.54,5,9.48,6,13.86,9.43,6,4.71,5.93,4.73,11.33-.52,1.78-1.73,3.65-3.38,5.41-5.14,1.44-1.45,2.81-3.2,2.36-5.26-.77-3.49,1.06-6.51,1.23-9.8.07-1.33.41-2.32,2-2.12,3.68.47,2.87-1.53,2-3.6a6.49,6.49,0,0,1-.18-4.41c1.42-4.76,2.15-9.71,4.15-14.33,1-2.24,1.8-4.72-.72-6.73-1.46-1.17-.86-1.91.57-2.42s3.79,0,3.76-2.34c0-2-2.27-2.1-3.53-3.05-.93-.71-2.75-.48-2.83-3.18,3.27,1.18,6.21,2.31,9.21,3.27,1.21.38,2.88.95,3.5-.65a3.61,3.61,0,0,0-.78-3.71c-1.86-1.83-3.91-3.47-5.46-4.82-.74-2.22,4.84-2,1.27-3.74-1.46-.71-4.54-6.65-7.42-.8a1.42,1.42,0,0,1-1.34.16c-3.6-2.75-6.2.82-9.24,1.45-1.61.33-3.06,2.14-1.85,3.3,3.06,2.94.94,3.86-1.26,5.43s-3.33,4.1-4.48,6.47c-4.94,10.14-10.09,20.2-14.48,30.58-1.81,4.28-3.13,2.92-4.85.66-2.62-3.42-4.81-7.19-7.46-10.59-2.06-2.64-1.52-4.16,1.44-5.13,3.5-1.16,4.35-3.7,4-7a21.92,21.92,0,0,1-.17-5.48c.84-5.83-2.25-8.4-7.29-10.09-3.67-1.23-4.71-.49-4.68,3.39.12,20.32,0,40.65,0,61q0,148.71-.07,297.44c0,1.1-.61,2.53.6,3.22,1.62.92,2.22-.86,3.23-1.58q13.33-9.66,26.69-19.27c1.06-.76,2.24-1.92,3.57-.93s.91,2.35.28,3.63c-1.71,3.44-2.06,7.11-2.59,10.89-1.24,8.68-6.36,16.31-7.52,25.11a6.22,6.22,0,0,1-1.11,2.21c-1.68,2.74-3.13,3.27-5.62.4-3.78-4.38-7.71-8.71-12.88-11.66-3.5-2-4.73-1.22-4.64,2.79.19,7.49-.1,15,.23,22.49.19,4.4-.89,6.14-5.75,6-13-.35-26,0-39-.17a13.36,13.36,0,0,0-9.11,3.08c-7.8,6.23-15.52,12.59-23.68,18.31-4.83,3.38-7,7.09-6.79,13.09.18,4.76.67,8.41,5.79,10.1,1.29.43,2.23,1.93,3.34,2.93,5.85,5.25,15.91,6.23,21.68,1.72,11.4-8.89,22.61-18,33.93-27,9.76-7.75,19.58-15.44,29.36-23.16,1.36-1.08,2.87-2,4.56-1.19,1.94.92,1.5,3.06,1.18,4.47a114.94,114.94,0,0,1-3.56,12.33,6.94,6.94,0,0,0,4.8,9.39c1.27.38,2.52.82,3.75,1.31,8.15,3.27,12.65,1,15.52-7.35,6.33-18.37,11.51-37.09,17.18-55.66,2.56-8.42,5.16-16.84,7.52-25.32.79-2.83,1.42-5.92-1.53-8.25-6.4-5.07-14.45-4.51-20.24,1.48-1,1-1.67,3-3.43,2.3-1.5-.59-1.51-2.65-1.42-3.95.42-6.06-2.81-9.63-7.71-12.25a33.9,33.9,0,0,1-5.62-3.17c-2.24-1.81-4.1-2-6.07.17-1.73,1.87-2.33,1.12-3.35-.92-2.6-5.24-4.55-10.88-8.74-15.25-1.25-1.3-1-2.79.62-3.76,2.51-1.48,4.19-3.73,6-5.93,1.54-1.87,3.34-2,3.8.84.55,3.23,2.44,5.23,4.83,7.2,9.5,7.85,20.11,14.11,30,21.4,5.2,3.83,11.46,6.18,16.34,10.13S814.2,547,819,550.83c4,3.24,9.07,5.41,12.45,9.15,3,3.36,5.68,5.76,10.35,5a2.13,2.13,0,0,1,2.52,1.17c.42,1.13-.52,1.86-1.27,2.48-3,2.42-5.91,4.86-9,7.15-9.85,7.37-19.82,14.58-29.6,22-5.66,4.31-6.33,9.39-2.11,15.19a84.07,84.07,0,0,0,7,7.77,14.69,14.69,0,0,0,19.91,1.89q20.6-15.16,41.08-30.49C877.4,587,883.33,580,892,577q0,147,.1,294c0,3.42-.68,4.1-4.1,4.09q-236-.15-472-.09c.89-3.36,2.08-6.68,2.63-10.09,1.74-10.79-2.59-16.82-13.11-19.19-17.79-4-35.56-8.16-53.32-12.31-14.54-3.4-29-7.16-43.61-10.18-5.95-1.24-12.86-1.82-16.82,4.26-5.45,8.38-7.85,17.76-5.76,27.89.39,1.89,1.61,2.67,3.37,3.18,13.57,4,27.45,6.57,41.16,9.9C339.05,870.53,347.85,871.51,356,875ZM264.39,308c0,2.85.06,4.85,0,6.84-.05,1.2-.45,2.37-1.78,2.72-1.16.3-1.88-.59-2.43-1.39-3-4.33-4.79-1.86-6.41,1.08-1.13,2.06-2.32,4.42-1.7,6.66,1.88,6.84.34,13.5-.42,20.23-.38,3.28,1,5.45,4.53,5.72,3.15.24,6.35.06,9.46.52,6.74,1,8,.07,7.3-7-.25-2.68-.67-5.25.26-7.86.57-1.6,1.67-2.54,2.72-.81,1.59,2.6,3.77,3.51,6.3,2.5,2.72-1.08,2.73-3.94,2.7-6.44-.14-11.13,1.83-22.2,1.08-33.36-.24-3.49,2.16-6.67,1-10.28-1.55-4.69-1.17-9.38-.14-14.19.86-4.05-.92-7.8-2.89-11.29-.48-.85-1.53-1.67-2.48-.79-3.77,3.51-4.69-.94-6.54-2.37-2.27-1.74-1.77-4-.59-6.28,2.77-5.43,1.36-9.62-4.29-12.18-1.61-.73-1.45-1.91-1.87-3.12-1.61-4.68-1.12-9.84-3.5-14.39-.85-1.62-1.75-3.5-3.43-2.8-4.24,1.79-8.24,2.93-12.43.07a1,1,0,0,0-.94.16c-3.54,4.14-8.38,1.72-12.58,2.43-2.36.41-4.55-.26-5.54-3.07-.76-2.15-2.92-2.87-4.39-1.33-2.86,3-4.7,1.46-6.36-.92s-3.36-3.49-5.9-.92c-1.47,1.48-3.08,1.58-4.67-.32-2.48-3-5.23-3.16-8.08-.27-1.7,1.72-3.14,1.34-4.36-.78-1.87-3.29-3.94-2.77-6.33-.34-1.07,1.09-2.27,3.41-4.39,1.05-1.33-1.47-2-4.45-4.89-2.93-2.65,1.39-2.94,4-3.21,6.84-.32,3.2,1.74,6.18.66,9.3-1.95,5.61-1.86,11.39-1.76,17.2a177.76,177.76,0,0,1-1,21.12c-1.31,12.72-2.54,25.38-2.66,38.17a8.69,8.69,0,0,1-.72,3.88c-2.1,3.95-1.72,7.88-1.06,12.13.43,2.82,2.46,5.72.76,8.69-2,3.57-2,7.47-1.3,11.17a15.49,15.49,0,0,1-1.51,10.07,8.94,8.94,0,0,0-.15,8.57c1.39,2.89,1.19,5.55-.2,8.58-1.24,2.71-2.73,5.62-1.8,9,1.35,4.9,1.46,9.84-.65,14.61-1.5,3.37-1.21,6.84-.54,10.27.29,1.48.87,2.81.2,4.34-2.6,5.88-2.5,11.88-2.54,18.31-.06,8.12.29,16.84-1.48,24.45-2.4,10.31,1.82,20.9-2.9,30.74-.55,1.15-.1,3,.39,4.39a15.11,15.11,0,0,1-.6,11.23,15.1,15.1,0,0,0-.46,10.7A13.93,13.93,0,0,1,157,516.5c-2,4.39-1.63,9.15-.18,13.59,1.54,4.69,4.68,5.88,9,3.48,2.2-1.23,3.81-1.07,5.31.54,2.1,2.26,4.28,2.09,6.74.81s4.63-2.09,7.1.48c1.81,1.88,4.28.09,6.46,0,5.6-.29,11.27.43,16.9.85.57,0,1.08.73,1.63,1.1,1.71,1.17,3.46,1.48,4.84-.38,2.35-3.14,4.36-1.88,6.51.22,2.47,2.4,5,3.36,7.38-.16,1.36-2,2.79-1.93,4.47-.2s3.88,2.92,6.12.86c2.61-2.4,4.43-2.14,6.4.86,2.14,3.25,4.79,2.78,6.77-.21,1.75-2.62,3-5.42,2.34-8.91-.55-2.9-.32-6-.34-8.95,0-1.13-.11-2.55,1.14-3.08s1.94.85,2.82,1.55c3.71,2.93,5.61,2.12,7.74-2.33,2.27-4.75,3-9.38,1.17-14.4-.43-1.2-.58-2.77.55-3.76.76-.66,1.84-.41,2.84,0,6,2.45,8.29,1.18,9-5.27.9-8.07.21-16.19,1.08-24.33C282,456.63,282,444.28,282.25,432c.19-10,.08-20-.17-29.93-.09-3.53-1.36-6.84-5.92-6.35-3.92.43-4.39-1.63-4.21-4.75.25-4.48.66-9-1.23-13.3-1.21-2.78-2.58-5-6.3-4-2.56.68-3.58-.66-3.64-3.23-.09-3.65.49-7.34-.52-10.94-1.2-4.25-5.85-5.8-9-2.95-1.64,1.49-3.18,1.49-3.92-.57-1.71-4.8-4.21-3.09-6.75-1-2.29,1.87-4.32,2.87-6.47-.26-.89-1.29-2.48-2.11-3.71-.29-2.39,3.55-4.1,1.34-5.73-.61-3.86-4.62-4.88-4.72-9.12,0-1.5,1.68-2.92,2.44-4.43.41-2.14-2.88-4.07-2.28-6,.08s-3.17,2.24-4.67-.46c-2.06-3.74-4.87-4.3-8-1.09-.83.85-1.58,2-2.85.92-1.08-.92-.63-2.17-.07-3.22,2.46-4.62,2.72-9.44,1.72-14.51-.45-2.24-.83-4.83-.15-6.9a27,27,0,0,0,.78-12.8,7.71,7.71,0,0,1,.2-3.95,32.28,32.28,0,0,0,2.14-18.48,14.51,14.51,0,0,1,1.14-7.32,10.89,10.89,0,0,0,.69-6.36c-2.1-8.54,2.68-17,.18-25.49a3.32,3.32,0,0,1,1.77-3.84c1.69-.91,2.39.84,3.16,1.69,2.31,2.52,4.53,3.26,6.94.3,2-2.47,3.26-1,4.69.69,1.88,2.2,3.8,3.11,6.11.24,2.05-2.55,4.3-1.57,5.7.71,2.37,3.85,4.66,2.67,6.5-.07,2-2.93,3.1-1.84,4.6.26.92,1.31,2.72,3.87,3.5,2.87,4.5-5.76,6.87-.8,9.87,1.47a2.16,2.16,0,0,0,1.46.22c3.75-.48,4.12,1.85,3.84,4.63a23.62,23.62,0,0,0,2,11.21c1.66,4.18,3.42,4.62,6.91,2,.79-.61,1.45-1.54,2.56-1.05,1.45.65,1,2.09.73,3.08a29.57,29.57,0,0,0,0,13.81,9.31,9.31,0,0,1-.72,5.86A18.33,18.33,0,0,0,264.39,308ZM423.92,72.42c1.77-2.25,4.2-2.64,6.61-3.23A105.45,105.45,0,0,0,443,65.77c10.05-3.84,20-7.93,30.53-10.32,3.08-.7,7.73-2.28,6.57-6.52a37,37,0,0,0-8.28-14.48,5,5,0,0,0-4.58-1.57c-4.9.84-10.08,1.07-14.61,2.88-9.11,3.64-18.83,5.18-28.19,6.56-13.56,2-26.27,6.62-39.47,9.56-3.12.7-6.05,3.07-4.94,6.39,2.09,6.31,2.63,13.31,7.25,18.64,1.67,1.92,1,3.77-.21,5.45-.92,1.28-.82,3.66-2.81,3.73-1.65.06-2.4-1.82-2.91-3.11-4.07-10.35-10.53-19.48-15.08-29.6-2.7-6-3.88-6.09-11.71-3.15-3.59,1.35-4.33,4.7-3.66,9.61,1,7.5,6.09,13,8.87,19.6,1.56,3.71,1.87,8,4,11.2,6.64,10.28,9.74,22,14.4,33.11,1.75,4.16,3.22,8.69-4,9.25-1.13.09-1.41,1.31-1.93,2.14s-1.84,1.8-2.42,1c-2.93-3.86-9-2.74-11.36-7.43a7.86,7.86,0,0,0-4.08-3.53c-2.37-1-3.92-2-4.11-5.37-.2-3.83-4-6.43-7.7-6.65-8.68-.53-17.54-2.85-26,1.34a2.16,2.16,0,0,1-1.88,0c-4-3.29-8.31-2.59-13.09-2.45-8.39.26-16.84-3.48-25.18,1.15-3.05,1.69-6-1.11-9-1.64-3.34-.58-7.53-.46-8.61,2-2,4.49-7,8-5.41,14,.65,2.54-1.39,3.44-3.55,3.84s-2.61-1-3.18-2.77c-1.73-5.44-5.42-8.81-11.07-10.43-3.47-1-7-.14-10.38-1.05-5.34-1.44-9.69,1.12-11.76,6.33-2.35,5.93-2.7,12.3-4.31,18.38-1,3.77,0,4.88,4,4.87q86.13-.18,172.28-.11c5.45,0,5.47-.06,3.67-5.6-.82-2.5-1.72-5.44,1.87-6,6.44-1,8.8-5.14,10-10.76.41-1.95,1.31-3.67,3.77-2.12,4.95,3.1,10.28,3.09,15.74,2,5.8-1.16,11.59-2.41,17.39-3.62,4.54-.94,6.6.89,5.88,5.5-.45,2.91.31,5.61.91,8.34,1.13,5.14.68,5.81-4.68,5.84-8.83,0-17.66,0-26.5,0-1.63,0-3.36-.38-4.86.65s-4.06,1.9-3.62,4.27c.49,2.64,3,1.38,4.6,1.38q56.75.12,113.49,0c7.41,0,15.26,1.68,21.18-5.13-1.88-2.13-4.5-2.06-7.17-2.36s-5.07-1.35-7.81-2.13c1.35-1.47,2.53-.65,3.62-.73s2.39.19,2.76-1.39c-6.68-2.33-10.08-1.37-13.62,3.42-.9,1.22-2,3.16-3.85,2.58s-1.07-2.64-1-4c.31-4.57.16-9.28-5.17-10.47-9.14-2-18.61-4.21-27.43.94-4,2.31-5.31.9-6.42-2.62-.79-2.53-1.73-4.88-4.89-5.52-1.56-.32-3-1.44-4.44-2.21-1.71-.88-3.58-.62-5.39-.76-1.41-.12-3,.6-4.19-.53,9.71-4.8,19.13.92,28.78.51,6.9-.3,18.77-8.69,19.15-15.67a4,4,0,0,0-.74-2.8c-2-1.92-3-4.35-4.17-6.73-.8-1.67-2.07-2.85-3.91-2.49-6.91,1.35-8.7-3.89-11.08-8.4-1-1.91-2-3.82-2.86-5.82a5.77,5.77,0,0,0-5.4-3.78,117.59,117.59,0,0,0-22.88,1c-8.17,1.22-16.39,2.15-24.61,3C428.86,74.8,426.2,74.55,423.92,72.42Zm84.75,436.23c-5.19,1-6.06.19-4.64-4.61,1.66-5.62.14-10.47-3-15.08-1.1-1.64-2.46-2.87-4.57-1.9-4.4,2-4-1-3.69-3.6,1.25-10.12-.94-20.16-.49-30.32.36-8-3.47-9.78-10.93-6.47-1.4.62-2.38.73-3.53-.46-2.31-2.39-4.26-1.23-5.69,1-2.23,3.51-4.59,7.41-3.88,11.5.92,5.36.07,10.52.16,15.73.15,8.79,1.8,17.46,1.19,26.44-.45,6.49,2.1,8.11,8.22,8.28,2.34.06,2.74,1,2.87,3,.27,4.14.63,8.28,1.16,12.4.6,4.59,4.22,6.66,8.4,4.66,2.88-1.37,3.94-.4,4.46,2.36.64,3.41.05,7,1.49,10.31,1.23,2.84,2.54,5.31,6.19,2.69a3.87,3.87,0,0,1,5.44.46c3.28,3.29,5.87,2.22,8-1.27.78-1.25,2.18-2.56,3.13-1.48,3.15,3.56,6.46,2.92,10.15,1.31.88-.38,1.85.2,2.75.78,4.13,2.64,10.67.73,12.68-3.84,2.21-5,4.07-10.21,6.24-15.26.58-1.35.95-3.65,3.38-2.61,2.85,1.23,4.63-.18,6.6-2a66.27,66.27,0,0,1,7.47-5.76c1.3-.89,3.17-2,4.31.12s-.65,2.76-2.26,3.5c-3,1.38-6,2.83-8.91,4.48-8.28,4.74-10.82,12.32-6.39,19.15,1.1,1.69,1.83,4.15,4.72,3.75s3.86-2.89,5.26-4.83c.5-.69.34-1.94.29-2.93-.16-3.16.77-5.15,4.44-5,2.86.11,4.31-1.79,5.66-4.14,2.16-3.79,1.17-7.8,1.49-11.72.22-2.62.11-5.16,3.59-6.3,5.3-1.74,7.38-7.8,5.15-13.95-2.53,1.6-3.06,5.35-6.38,6.34a4.82,4.82,0,0,1,1.8-4.78c4-3.91,4-8.32,2.29-13.14-.27-.76-.72-2,.25-2.12,3.87-.58,2.32-3.55,2.35-5.47.08-4.82-.46-9.65-.41-14.47.1-9.81-1.79-19.5-1.41-29.37.25-6.17-4.09-8.75-9.59-6.56-2.7,1.07-2.83-.32-2.82-2.24,0-3.5.24-7,0-10.49-.35-6-4.11-8.88-9.24-7.22-3.15,1-3.37-.85-3.48-3-.21-4-.15-8-.66-12-.59-4.45-4.21-6.47-8-4.2-4.08,2.46-4.26-.07-4.33-2.81-.07-3,.55-6,.25-9s-1.33-8.62-3.63-7.75c-4.89,1.85-9,.74-13.57.25-1.32-.14-2.7,2.72-4.66.71-1.56-1.58-1.48-3.42-1.2-5.55.67-5.11,1.31-10.3-1.29-15.16-1.6-3-4.81-3.83-6.93-1.74-1,1-1.23,3.29-3.14,2.41-1.5-.69-1.91-2.71-2-4.29-.25-3.15-.09-6.33-.2-9.49-.08-2.31-.95-4.33-3.24-5.15s-2.6,1.42-3.61,2.62c-1.94,2.3-3.68,2-5-.66-1.58-3.34-3.42-3.81-5.95-.88-1.77,2-3,1.57-3.78-1-.52-1.78-1.13-3.55-.68-5.38,1.29-5.31.8-10.53-.25-15.83-1.13-5.69.53-11.62-1.34-17.33-.4-1.22-.44-3.24,1.4-3.86s2,1.24,2.79,2.23,1.58,2.77,3.51,1.35c2.42-1.78,5.51-10.73,3.76-12.9-4.16-5.15-1.66-11.59-3.91-17.08-.68-1.66-.34-4.13,2.61-4.38,7.51-.62,13.15-5.51,19.51-8.72,2.2-1.1,4.07-2.34,6.18.07,1.91,2.19,1.7,4.18-.24,6.14-3,3.08-5.9,6.37-9.2,9.14-4,3.32-1.17,6.06.68,8.36,2.38,3,4.28.77,5.79-1.5,1.14-1.72,2.16-3.13,3.92-.34,2.69,4.25,3.31,4.11,6.26,0,.69-1,.4-2.75,2.1-3,1.77.87,1.92,2.74,2.85,4.07,1.23,1.78,3.24,2.77,4.53.9,4.82-6.92,3.86.27,5.12,2,.74,1-.44,2.75,1.92,3.58a26,26,0,0,1,1.62-2.22c5.24-5.81,4.95-9-1.31-13.78-.79-.61-1.48-1.34-2.25-2-5.29-4.37-5.21-5.05.92-7.6,7.86-3.27,9.34-6.75,6.26-14.22-1.34-3.24-3.12-4.37-5.87-1.64-1.93,1.9-3.34,3-5.54.14-1.31-1.69-3.33-2.78-5.19.16-1.28,2-3.08,1.23-4.67-.14-1.84-1.58-3.8-2.93-6.13-.7s-4.43,1.83-6.58-.17c-1.81-1.69-3.94-1.76-5.06.36-2.54,4.84-4.26,2.2-6.45-.21-1-1.13-2.3-3.75-4.21-1-2.12,3-3.55,1.56-5.48-.2-3-2.7-5.28-2.15-6.86,1.55a24.8,24.8,0,0,0-1.85,9.75c0,3.44.49,7-4.94,6.17-1.21-.19-1.92,1.16-2.65,2.06-3.74,4.55-2.57,10-2.79,15.22-.05,1.35,1.17,3.26-1.79,2.65-5.61-1.14-6.31-.36-7.89,5.11-1.35,4.69,0,9.24-.27,13.83a161.2,161.2,0,0,0,1.92,37.11,19.87,19.87,0,0,1,.23,7.73c-.66,3.27.66,7.2,3.73,8.4,3.49,1.37,2.67-3.24,4.23-4.81.2-.2.58-.23,1.11-.41a63.76,63.76,0,0,1,1.54,6.68,18.67,18.67,0,0,1-.05,6c-.67,3.37,0,6.66.26,9.94.4,4.73,3.43,6.27,7.35,3.82,1.95-1.21,2.85-.34,3.47,1.16.75,1.82,1.41,3.77.9,5.8-.89,3.55-.2,7,.86,10.32,1.26,4,3.23,4.59,6.6,2.15.82-.6,1.11-2.45,2.66-1.43,1.13.74.77,2.1.84,3.23.36,5.45-.63,11,1.19,16.35.57,1.68,1,3.22,2.87,3.66a3.9,3.9,0,0,0,4.61-2.19c1.77-3.61,3.2-3.9,5,0,1.66,3.48,3.92,4.6,6.65.88,2.09-2.86,3.42-1.83,4.43.84a9.42,9.42,0,0,1,.16,5.87,22.6,22.6,0,0,0,.51,11.85c.45,1.63,2.12,4.18,2.79,3.62,4.56-3.74,8.57-2.43,12.71.46.28.19.95-.15,1.43-.27,4.35-1.1,6.25.48,5.09,4.76a21.35,21.35,0,0,0,.45,12.22c1.32,4.35,3.68,5.84,7.75,3.93,3.74-1.75,4,.19,4,2.94,0,3.66-.16,7.33,0,11,.13,2.46-.32,5.66,4,5.08a1.18,1.18,0,0,1,1,2.05c-4.84,3.53-3.87,8.67-4,13.5-.05,1.61-.23,3.08-2.15,3.38-8,1.27-9,7.26-9.23,13.7a8.94,8.94,0,0,1-13,7.74c-5.53-2.76-11.59,1.63-17.11-1.31-.17-.1-.68.17-.86.4-2.92,3.72-9.22,4.31-9.53,10.5a2.1,2.1,0,0,1-3,1.73,2.58,2.58,0,0,1-1.55-3.66C507.28,513.84,508.51,511.65,508.67,508.65ZM610.41,277.37a3.19,3.19,0,0,1-2.38-1.78c-2.14-3.19-4.2-3.06-6,.39a19.68,19.68,0,0,0-1.2,3.27c-.61,2-.36,29.34.45,31.63.7,1.95,1.23,4,.49,5.85a12.9,12.9,0,0,0,.27,10.11c1.6,4,2.64,8,1.23,12.42a8.23,8.23,0,0,0,.81,5.82c2,4.27,3.89,4.6,6.41.68,1.69-2.63,2.4-1.58,3.17.4,1.28,3.26,2.23,6.43,1.4,10.15-.92,4.07-1,8.36,2.21,11.8,1.29,1.39,2.78,2.75,4.46.43,1.06-1.46,1.8-4,3.75-3.51s1.68,3.37,2.58,5.11.28,3.58,0,5.39c-.47,3.34-.47,6.65,1,9.8,1.54,3.31,3.93,3.71,6.55,1.08,3.75-3.77,3.52-3.69,5.31,1.53,1.68,4.87-1.3,9.53-.11,14.3.53,2.11-.59,5,2.42,6,2.53.82,4.54-.42,6.11-2.36,1.14-1.4,2.2-1.86,3.67-.38,3.15,3.15,5.83,2.59,8-1.18,1.23-2.13,2.77-2,3.62,0,1.5,3.67,4.49,7,2,11.63-1.3,2.45-.67,5.59-.22,8.38.26,1.62,1,3.28,2.84,3.73a3.18,3.18,0,0,0,3.69-2c1-2.39,4.48-2.81,4.5-6.2,0-1.52,1.73-1,2.59,0s.33,2.58.61,3.85-1,3.34.73,4.1,3.18-.59,4.27-1.79c2-2.21,2.9-2.13,3.82.91,1,3.3,1.43,6.41.23,9.72a12.62,12.62,0,0,0-.18,7.38c1,4,3.58,5.35,7.49,4.44,6.35-1.46,8.43.25,7.38,6.57-.88,5.31-.57,10.25,2.48,14.84.93,1.42,1.48,3,.57,4.7-2.7,5.19-1.86,10.29.46,15.34.49,1.08,1,2.32-.1,3.18-.93.69-1.88-.25-2.71-.71-5.08-2.82-7.09-2.14-8.9,3.35-1.45,4.4-3.34,8.83-.65,13.49.58,1,.61,3.11-.64,2.73-4.39-1.31-4.15,2.35-5.47,4.4a11.87,11.87,0,0,1-6.34,5.33c-4.6,1.44-9.25,2.7-13.84,4.16-8.7,2.77-17.25,6-26.18,8.06-4.08.92-3.17,4.1-3.15,6.79,0,1.88,1.45,4.82,2.69,3.84,4.92-3.86,9.21-1.37,13.81.1.9.28,2.17-.63,3.26-1a5.83,5.83,0,0,1,4.21.23c5.67,2.12,11.81-.05,17.64,1.39.18,0,.45-.46.73-.64,2.34-1.57,4.45-3.48,7.35-.47a3.48,3.48,0,0,0,5-.56c1.33-1.67,3.78-2,4.54-4.39s-2.76-3.23-2.12-5.54c4.84.33,7,2.61,5.78,7.69,2.43-2.8.92-6.27,2.72-8.94,1.59-2.36,2.76-4.15,5.69-1.52,3.8,3.42,7.19,2.55,9.27-2.15a20.24,20.24,0,0,0,.94-13.63c-.38-1.45-1.21-2.64,1.2-3.36,8.91-2.64,11.54-6.86,8.44-15.51-1.93-5.4-2.56-10.2-.89-15.74.7-2.31.65-6.42-2-7.58-2.44-1.06-3,2.88-4.66,4.3-.48.41-.66,1.24-1.18,1.54-1.35.78-2.78.88-2.75-1.21.12-6.48-2.45-13.1-1.72-19.05,1.07-8.8-3.44-15-6.19-22.13-.62-1.61-1.71-3.42-.51-4.5s3,.39,4.34,1.29a13.3,13.3,0,0,1,1.66,1.83c1.22,1.25,1.73,3.87,3.82,3.45s2.41-3,3.09-4.8c1.56-4-.78-6.55-5-5.76-4.76.9-6.76-.76-5.77-5.64.66-3.24.2-6.27-.26-9.31-.71-4.76-5.61-7-9.2-4.62-3.82,2.58-6.59,1.32-7.12-3.28-.26-2.35.42-4.62.74-6.92.71-5.14-3-9.37-6.29-7.17-3,2.05-4.05.58-5.38-1.42-2.16-3.22-3.62-6.32-2.3-10.64,1.57-5.13-2.06-8.4-6.75-6.61-1.63.62-2.18.18-3.21-1-2.8-3.27-5.79-5.75-9.74-1.08-1.82,2.13-3.68.52-4.91-1.09a5.67,5.67,0,0,1-.72-5.69,12.24,12.24,0,0,0,.18-8.31c-.5-1.48-1.34-3.22-3.31-3.36-1.77-.13-2.62,1.33-3.39,2.58-1,1.59-1.76,3.31-2.65,5-2.42-1.43-.27-3.62-1.75-5.14-3.19-3.26-2.66-7.26-1.52-11.23a14,14,0,0,0-1.08-9.74c-1.09-2.45-3.61-3.28-5-.83-2.43,4.12-4.33,2.1-6.58.22-1.28-1.07-2.49-3.51-4.36-1-4.18,5.53-4.88.78-6-2a9.05,9.05,0,0,1,.06-6.84c.79-1.94,1.27-4.14.58-5.85-2.48-6.22-2.1-12.56-1.8-19,.13-2.7-.28-5.11,3.71-4.6,1.92.25,2.94-1.29,3.63-2.89.93-2.12-1.15-2.45-2.11-3.37s-1.9-1.34-2.79-2.08-2.41-1.22-1.36-2.63c.72-1,1.75-.16,2.65.31,1.74.9,3.13,2.5,5.28,2.65,1-2.67,2.43-5.11.87-8.12-1-1.91-.08-3.07,2.24-3.15,3.06-.1,5.44-1.31,6.27-4.6.76-3,1.76-2,3.09-.24,3.68,4.79,4.41,4.7,7.92-.38.73-1.06,1.58-2.05,2.57-3.31,2,2.12,2.59,6.38,5.79,5.64,2.75-.64,2.37-5.1,4.67-7,1.63,1,1.18,2.51,1.57,3.7,1.91,5.9,2.78,6.27,7.45,2.35,1.65-1.37,2.51-.86,3.75.31,3.38,3.21,2.77,7.22,2.29,11.16-.35,2.93.51,5.67,2.88,6.94,2.21,1.2,3.87-.9,5-2.89.87-1.53,2.23-1.29,2.54.06.87,3.87,4.3,7.45,3.28,11.26-2.54,9.49,4.47,18.29,1.4,27.64,0,.13.08.32.15.47,1.27,2.83,2.57,5.47,6,2,1.68-1.71,3.16-1.72,5,.25,2.88,3,5.73,2,7.82-1.18a16.5,16.5,0,0,0,2.09-13.39,31,31,0,0,1-1-10.8c.24-2.07,2-5.32-1.94-6.1-3.28-.66-6.22-.32-7.35,3.8a52.75,52.75,0,0,1-3.28,8.31c-.75,1.6-2.51,2.74-4,1.86s-.06-2.31.5-3.46c2.48-5.13,4.94-10.16.59-15.69-1.28-1.63-1.59-4-2.45-6.36,2.52.29,3.56,1.95,5,2.91,2.9,1.88,9.39,1.26,9.43-.94a30.3,30.3,0,0,1,1.09-6.31,6.7,6.7,0,0,0-2.53-6.66c-1.71-1.39-3.68-.65-5.17,1.24-1.09,1.39-1.73.29-2.61-.68-2.59-2.85-4.27-6.66-9.06-7.15-2.22-.23-2.24-3.17-1.84-5.12.5-2.51,2.71-1.58,4.09-1.2,4.1,1.14,5.27,0,3.88-4.07a4.84,4.84,0,0,0-3.79-3.52c-2.13-.43-3.53.69-4.2,2.64-1.19,3.43-2.77,2.69-4.52.5a7.57,7.57,0,0,1-1.93-5.46c.21-3,.18-6,.17-9a5.42,5.42,0,0,0-2.57-4.63c-1.93-1.24-3.11.46-4.2,1.58-1.64,1.69-2.71,1.72-4.45-.13s-4.11-3.64-6.56-.28c-1.65,2.26-3,.66-4.46-.64-2.5-2.29-5.2-2.63-7.19.46-1.82,2.84-3.39,3.13-5.83.79a3.07,3.07,0,0,0-4.53.39c-2.45,3.38-3.33,2.3-4.91-.77-2.15-4.19-4.33-4.2-7.21-.58-1.63,2-3,3.41-5.6,1-2.09-2-3.23-1-4.76,1.54-2.85,4.68-2.7,9.31-1.62,14.21.21,1,.81,2.06,0,2.79s-1.84,0-2.63-.66c-3.72-3-5.55-.25-6.7,2.61a29.08,29.08,0,0,0-1.57,7.75C609.09,270.5,611.37,273.66,610.41,277.37Zm-279,244.16c1.21-2.42,2.25-4.67,3.48-6.81.55-1,1.36-2.19,2.74-1.53s.46,1.72.24,2.63-.41,1.61-.63,2.41c-1.82,6.57-3.7,13.11-5.41,19.71-.55,2.15-.51,4.45,1.81,5.72s3.92-.15,4.94-2c1.65-3,2.45-1.3,3.75.3,3.78,4.63,5.59,4.78,8.72.15,1.91-2.82,3-2.63,4.47,0,1.09,1.91,3.15,3.79,4.72,2,3.19-3.6,5.57-3.15,8.29.11,5.5-2.79,11.2.67,16.48-.42,2.73-.57,4.6-2.3,7.16.23,1.21,1.2,2.79.3,4.06-.69a9.33,9.33,0,0,0,3.62-9.3c-.86-5.27-1.36-10.4-.06-15.74.87-3.58-.23-7.37-1.92-10.65s-4.15-5.33-8-2.84a3.28,3.28,0,0,1-3.75.3,7.09,7.09,0,0,0-7.58-.06,3.07,3.07,0,0,1-3.69-.54c-2.63-2.27-4.88-1.58-8.23-1-4.81.83-10.29-.47-15.4-.94-3.6-.34-6.23-1-8.8,1.75-1.4,1.48-2.61,2.11-4.7.74-3.58-2.35-5.87-.66-7.17,3-.4,1.13.17,2.79-1.93,3.39a29.54,29.54,0,0,1-2.21-8.39c-1-13.71.94-27.37.59-41.12a135.52,135.52,0,0,1,1.27-22.39c1.43-9.8-1-19.42.69-29,.47-2.74-1.12-5.14-1.61-7.74-.18-.95-.79-2-.56-2.83,2.73-10,1-20.24,2.24-30.32.67-5.55-.54-11.25,1.91-16.71.75-1.65.42-4,.08-5.9-1.58-8.94-1.21-18-.51-26.87.83-10.64.77-21.24.81-31.86.07-15-.75-30,.42-45,.33-4.18,1.09-8.25-.53-12.2-1.15-2.8-2.13-6.36-6.64-3.92a3.86,3.86,0,0,1-4.23-.69c-1.58-1.24-2.63-3.78-5.39-2.11a7.42,7.42,0,0,0-3.68,7.14,43.72,43.72,0,0,1,0,5.49c-.4,4.24.07,6.69,5.65,7,8.07.46,9.12,2.85,6.86,10.81-.73,2.56-1.55,5.09-2.28,7.65-.3,1.06.07,2.66-1.56,2.68s-1.95-1.41-2.2-2.8c-.85-4.89-1.79-9.76-2.66-14.65-.19-1-.51-2.08-1.7-2.11-1.37,0-1.37,1.11-1.43,2.14-.15,2.47-.75,5-.47,7.4.92,8.09-.12,16.24-.68,24.15-1.13,16.06-.54,32.18-2.14,48.22-.65,6.46,1.48,13.16-.77,19.7-.28.84.23,1.94.37,2.92,1.49,10.53.24,21.08-.06,31.6-.12,4.14-.84,8.34,0,12.39a18.47,18.47,0,0,1-.27,8.27c-1.89,8.05.9,16.66-2.71,24.56,3.37,9.95,0,20.09.28,30.14.25,7.7-.6,15.65-.53,23.6.14,16.23-1.12,32.47-1.73,48.71-.13,3.47-.4,7,1.47,10.21,2.31,4,4.7,4.62,7.64,1.09,2.05-2.45,3.28-2.24,4.94.07,1.95,2.72,3.25,2,4.6-.69,2.58-5,6.46-9.61,4.6-15.94a5.24,5.24,0,0,1,.21-3c.42-1.22.77-3,2.09-3.18C331,517.77,329.31,520.66,331.36,521.53Zm214,92.76v0c-7.5,0-15,.07-22.48,0-2.62,0-3.11.64-3.06,3.42.16,9.8-.23,19.6,2.09,29.25a6,6,0,0,1-.51,3.39c-1.84,4.57-2.13,8.94.6,13.35a7.08,7.08,0,0,1,.55,3.87c-.25,4.71,0,9.42-.42,14.16-.47,4.9,2.87,9.41,2.71,14.54-.05,1.65,1.67,3,3.52,3,4.46-.14,8.92-.45,13.37-.85,5.32-.47,6.06-4.81,7.06-8.8.54-2.18,2.31-4.76,3.67-2.41,3.15,5.44,6.75,5.3,11.4,3a.85.85,0,0,1,.5,0c4.86.88,8.5-1.51,12.32-4.08,4.25-2.84,7.86-7.75,11.93-9.06,6.73-2.17,11.93-6.28,17.93-9.27,3.26-1.62,4.78-5.7,7.58-6.36,5-1.17,8.52-4.14,12.64-6.49,4.6-2.61,8.45-6.81,13-8.67,5.31-2.16,10-5.08,14.89-7.83,3.38-1.92,4.42-6.26,3.38-9.55-2.8-8.84-11.29-11.7-19.29-7-7.27,4.3-14.41,8.82-21.6,13.26q-20.12,12.45-40.23,24.9c-1.09.67-2.4,1.64-3.59.35-.91-1-.38-2.33.29-3.24,2.75-3.75,2.17-7.77,1.38-11.94A218.83,218.83,0,0,1,571.81,618c-.18-2.85-1.26-3.75-3.95-3.72C560.37,614.36,552.87,614.29,545.38,614.29Zm-121-236c.57-.89,1-1.74,1.61-2.48.91-1.14,1.58-3,3.31-2.61s1.82,2.29,2.31,3.59c1.49,4-1.72,6.43-4.05,8.27-4.75,3.75-5.67,8.19-4.44,13.66a21.24,21.24,0,0,1-.07,9.87,21,21,0,0,0-.39,9.41c1.26,5.8.56,11.61.94,17.4.48,7.35-2,14.84-.73,21.81,1.62,9.17-1.68,18.13.55,27.17,1.16,4.68-1.48,9.46-.92,14.35a238.78,238.78,0,0,1,1.42,38.56c-.24,5.12,3.2,7.37,7.92,5.31a4.42,4.42,0,0,1,4.24-.13c6.66,3.45,9.86,1.47,10.52-6.13.26-2.91-1.88-6-.9-8.28,4.4-10.34,1.36-21.16,1.38-31.46,0-10.07,2.27-20.78-1.77-30.8a3.19,3.19,0,0,1,0-2c3-9.88.07-20,.87-30,.86-10.89-1.76-22-2-33.05-.37-14.68,1-29.41.68-44.06s.13-29.43-1.1-44.05c-.41-4.87,1-9.6.12-14.14-1.35-6.81-.64-13.59-1.11-20.35-.37-5.16-.89-10.29-.06-16.2-2.86,1.89-4.29,4.28-4.14,5.89.86,9.93-5.72,8-11.44,7.66-3-.17-4.67,1.2-4.65,4.42.07,12.57-1,25.26.48,37.67.86,7.46-.22,14.73.48,22.15,1,11,1.29,22.22-.76,33.28A5.37,5.37,0,0,0,424.39,378.32Zm-4.9,236c-18.49,0-37,0-55.47,0-2.69,0-5.35.13-5.72,3.36-.67,5.81-2.93,11.23-3.89,16.94-.82,4.87-.16,9.44,4.29,12.42,8.06,5.39,17.17,5.69,26.41,5a2.58,2.58,0,0,0,1.67-.85c4.27-5.51,7.68-11.42,8.27-18.57.09-1,.19-2.05,1.13-2.64s1.71,0,2.45.83c3.13,3.66,7.56,5.36,11.76,7.26,14.69,6.64,29,14,43.06,21.84,10,5.56,20,11.23,30.44,16,7.26,3.34,13.44,2,19-3.83a33.36,33.36,0,0,0,6.45-10c2.77-6.55.76-12.31-5.55-15.94s-12.42-7.07-18.72-10.42c-7.64-4.06-8.46-5.68-6.5-14.33.15-.65.43-1.26.59-1.91.87-3.55.37-5.4-4.19-5.34C456.47,614.44,438,614.29,419.49,614.28ZM243.83,723.42c2-.15,3.63-.33,5.29-.39,9.34-.37,14.09-5.26,14.13-14.61,0-1.34,0-2.67.07-4s-.15-2.5-1.45-2.89c-3.93-1.16-7.28-3.61-11.66-3.9-9.55-.61-18.85,2.18-28.41,1.41-10.66-.86-21.22,1.72-32,1.33-8.56-.31-17.23.35-25.79.64-6.43.21-13.08.39-19.6.59-4.74.15-10.31,1.43-12.31,5.87-3.38,7.52.13,14.34,7.62,17.85a9.29,9.29,0,0,0,4.84.9c6.19-.48,12.63,1.24,18.48-2.28,1-.63,2.21.35,3.3.72,8.71,2.93,17.72,2,26.65,2.11,3.31-5.6,7-1.56,10.92-.88a39.75,39.75,0,0,0,16.33-1c3.94-1,8.71-3.32,11.74-2.34C236.32,724,240.21,722.42,243.83,723.42ZM594.39,96.59c-.75,3.77,1.39,7.1,3.6,10.51,1.57,2.41,4.86,2.75,6.09,5,3,5.35,9.17,6.07,13.23,9.82,1.38,1.28,3.31.88,5.16,0,3.17-1.5,6.85-3.08,10-1.4,7.64,4,16.08,6.18,23.49,10.65,6.93,4.19,8.47,4,14.77-.78,7.77-6,7.1-13.26-1.63-18-2.41-1.31-8.13.19-5.13-5.9.1-.2-.52-.78-.82-1.16-5.15-6.62-13.52-10.12-17.4-18a.79.79,0,0,0-.39-.3c-7.34-2.87-10.18-10.2-15-15.47-7.45-8.1-20.08-11-28.73-6.23-3,1.68-4,4-3.32,7s1.59,6.21,5.89,6.18a9.44,9.44,0,0,1,7,3.35c.67.71,1.85,1.25,1.22,2.36s-1.69.15-2.58-.08C601.46,82,594.34,87.49,594.39,96.59Zm2.24,50v0a45.49,45.49,0,0,0,5.48-.05c1.63-.2,4.18,1.23,4.65-1.29.36-1.89-1-3.69-2.94-4.8-5.7-3.28-9.57-7.78-10.76-14.59-.88-5-9.53-12.28-13-10.43-5.69,3-10,.11-14.88-1.13-2-.51-4.3-.18-6.43-.44-3.07-.37-5,1.23-5.46,3.87-.86,5-3.61,9.63-3.27,15,.21,3.13.47,6.44-.3,9.41-1,3.77.64,4.47,3.64,4.48,5.49,0,11-.23,16.46.11,4.54.28,6.77-.77,6.41-5.92-.2-2.82.66-6.86,3.94-7.15,2.7-.25,4.15,3.67,4.15,6,0,7.49,4.65,7.38,9.86,7C595,146.52,595.8,146.58,596.63,146.58ZM556.86,318.46c-.37,2.82-.81,5.66.57,8.34.88,1.7,1.18,4.07,3.73,4.18s2.69-2.06,3.48-3.65c1.61-3.24,3-2.38,4.29.27,1.65,3.44,3.67,2.9,5.61.35.89-1.16,2-2.63,2-3.95-.18-8.52-.63-17-1-25.57a1.28,1.28,0,0,0-.17-.47,16.32,16.32,0,0,1-.58-10.27,19.39,19.39,0,0,0-.46-11.79c-.91-2.32-2.58-4.57-5.19-3-4.89,3-5.28.17-5.39-3.55-.05-1.5,0-3-.16-4.49-.12-1.13-.67-1.74-2-1.22-5.75,2.24-12.73,12.37-8.26,19.22,2.09,3.21,6.76,5.78,2,10.34-.38.37.2,1.62.11,2.43C554.44,303.35,557.36,310.8,556.86,318.46ZM626.81,448c-4.55,2.6-7.7,2.15-10.68-.41-1.79-1.54-3.45-.12-4.14,1.25-1.88,3.76-4.75,7.32-3.56,12a73.08,73.08,0,0,1,2.21,25c0,.16.05.33,0,.5-.18,3.44,2,4.73,4.91,5a27.87,27.87,0,0,0,5.48,0c7.95-.75,13.46-5.28,12.34-11.36-1.42-7.7-2.6-15.24-1.17-23,.32-1.74-.11-3.68-2.51-3.17C625.26,454.84,625.55,452.3,626.81,448Zm43.4-301.44c0-.42.1-.84.14-1.26-5.43-2.76-10.77-5.75-16.33-8.24-9.34-4.2-18-9.85-28-12.65-5.94-1.68-8.43-.61-11,4.87a67.82,67.82,0,0,1-3.53,6.56c-1.49,2.43-3,4.47-1.14,7.69s4.49,3,7.26,3q21.93.08,43.85.07C664.36,146.61,667.29,146.6,670.21,146.6ZM268.74,93c-4.37-.49-8.15-.4-8.9,4.88-.61,4.3,2.47,10.18,5.8,10.39,6.61.42,13.26.41,19.88.61,2.1.07,3-.85,3.06-2.94.07-3.94-4.13-9.86-8-10.88C276.62,94,272.66,92.71,268.74,93Zm470.42,98h0c0,2.82,0,5.63,0,8.45a3.73,3.73,0,0,0,1,3.19c2,1.75,9.69,1.62,12.59-.15,3.79-2.31,4.37-5.42,2.75-9.37a15.41,15.41,0,0,1-.55-4.39c-.42-4.81-2.86-7.59-7.82-8a15.9,15.9,0,0,1-4.35-.78c-2.67-1-3.71-.25-3.6,2.58S739.16,188.18,739.16,191Zm-556,424.51a1.8,1.8,0,0,0-2-1.26q-16.44,0-32.88,0c-.79,0-1.91-.1-1.88,1a3.42,3.42,0,0,0,1.24,2c3.77,3.5,7.53,7,11.42,10.36,1.66,1.44,3.42,1.75,5.9,1,7.23-2.14,11.29-8.63,17.51-12C182.81,616.41,183,615.83,183.16,615.51Zm452.49-.38c-1-1.38-2.41-.8-3.65-.81q-10.68-.08-21.38,0c-1.24,0-3-.78-3.6.74-.69,1.77,1.31,2.49,2.31,3.4C616,624.46,625.89,622.93,635.65,615.13ZM529.27,118.76c2.47,0,5,.12,7.42,0,1.46-.09,3.91,1.06,4-1.35s-2.41-1.89-4.07-2.48c-5.6-2-12.11.06-17.25-4.38-1.76-1.52-4,.57-5.51,2.08S511.73,116,512.8,118s2.74,2.34,4.66,1.56C521.29,118.06,525.4,119.42,529.27,118.76ZM442.64,246.68a21.17,21.17,0,0,0-1-9.5c-.59-1.78-1.28-3.81-3.3-3.93s-3.61,1.62-4.94,3.05c-1.54,1.66.08,3,.9,4.38,1.26,2.13,2.3,4.4,3.63,6.49,1.11,1.73,1.12,5.31,3.49,4.82C444.38,251.38,442,248,442.64,246.68Z" transform="translate(-0.89 -0.89)"/><path d="M1,584c10.85-1.83,13.5-6.52,12.3-17.69-.73-6.67-2.8-13.35-1.56-20.21.17-.93-.35-2.17.68-2.71,1.4-.73,2.17.61,2.78,1.46,4.17,5.77,8.33,11.56,12.34,17.44,6.37,9.32,12.58,18.76,19,28.07,2.13,3.1,2.83,5.57-1.31,7.55a53.65,53.65,0,0,0-5.44,3.46c-2.46,1.56-5.13,3.52-5,6.44.28,5.41-2.94,4.27-5.73,3.48-9.38-2.64-18.7-5.51-28-8.29Z" transform="translate(-0.89 -0.89)"/><path d="M1,393c4.43,2,8.35-1,12.54-1.46a189.37,189.37,0,0,0,26.79-4.87c4.49-1.13,9-2.49,13.44-3.88,1.62-.5,3.15-.5,3.92,1,.84,1.67-.85,2.23-1.95,2.88q-26,15.27-52,30.5A3.58,3.58,0,0,1,1,418Z" transform="translate(-0.89 -0.89)"/><path d="M7.28,523.87c0-8.43-1.9-16.62-2.93-24.93-.77-6.16.1-12.45-1.12-18.7-.62-3.15,2.07-2.3,3.63-1.27,4.43,2.92,8.93,5.78,13.08,9.07,12.1,9.57,24.9,18.22,36.5,28.46,4.29,3.78,8.91,5.4,14.15-1a42.54,42.54,0,0,1,5.86-6.13c3.34-2.68,5.35-5.39,2.66-9.67-.57-.91-1-2.62,0-3.19s3.06-1.13,4.16,0c2.47,2.58,3.82,1.3,5.47-.91,2.1-2.81,5.7-1.56,8.53-2.44,3.74-1.16,7.9.59,11.61,1.87,3.51,1.21,3.33,3.43.37,5.77C95.48,511.73,81.74,522.74,68,533.71c-1.81,1.44-4.06,2.7-4.44,5.17-.83,5.39-3.07,2.6-4.54.7C55.35,534.86,51.89,530,48.53,525c-5.84-8.55-9.93-9.8-19.27-5.36-5.83,2.78-11.93,5.09-16.93,9.39-.87.75-2,1.74-3.06.76C7.55,528.29,7.8,525.88,7.28,523.87Z" transform="translate(-0.89 -0.89)"/><path d="M68.84,554.52c5.68,1.81,7.91,6.15,11.71,8.29,1,.56,2,2.19,2.68,2,7.94-2.27,8.59,5.3,12.18,8.83,2,2,1.22,4.71,1.6,7.12.62,3.91,1.24,7.83,1.77,11.76.12.91.39,2.15-.91,2.5a2.3,2.3,0,0,1-2.49-1.26Z" transform="translate(-0.89 -0.89)"/><path d="M31.52,461.55c9.94,2.52,17.68,7.44,26.2,10,7.94,2.43,8,9.05,9.83,15,.22.73.49,1.78-.58,2.09a2.69,2.69,0,0,1-1.74-.58c-5.07-3-10.81-5.92-14.83-9.55C44.47,473.19,37.42,468.81,31.52,461.55Z" transform="translate(-0.89 -0.89)"/><path d="M42.69,422.43c3.13,1,6.77-3.48,9.8,1.79.71,1.24,4.81-.74,5.79-2.47,2.83-5,8.16-5.26,12.43-7.46,2.43-1.26,3.07.33,2.57,2.35a7.94,7.94,0,0,1-6.36,6.29,11.92,11.92,0,0,0-8.07,5.16,4.07,4.07,0,0,1-5.29,1.41c-3.85-1.69-7.49-3.87-11.22-5.85Z" transform="translate(-0.89 -0.89)"/><path d="M16.45,438.81c1.67-.11,1.69,1.08,1.53,2-.79,4.5,1.45,8,3.69,11.47.66,1,1.37,1.94.28,3.05-1.28,1.29-2.36.56-3.41-.41-3-2.81-6.11-5.56-9.09-8.41-1.81-1.72-2.72-3.38,1-3.72C13.17,442.52,14.1,439.48,16.45,438.81Z" transform="translate(-0.89 -0.89)"/><path d="M101.39,619.61c0,1.18.1,2.88-1.42,2.66-2.39-.35-3.33-2.62-3.91-4.64-.5-1.74,1.08-2.28,2.44-2.26C101.37,615.42,101.15,617.73,101.39,619.61Z" transform="translate(-0.89 -0.89)"/><path d="M73.24,409.76c.79-2.43,1.35-4.27,2-6.08.38-1.06.68-2.58,2.09-2.39,1.82.25,1.37,2,1.35,3.23C78.63,407.34,78.3,407.62,73.24,409.76Z" transform="translate(-0.89 -0.89)"/><path d="M828.5,471.3c-1.08,1.86-1.22,2.38-1.57,2.65-10.52,8.28-7.5,17.12-.41,26.32,3.15,4.09,6.06,8.19,10.19,11.71s6.39,9.3,9.83,13.86c.62.82,1.09,1.95.44,2.78-1.06,1.33-2.12-.06-3-.48-7.31-3.32-13.34-8.65-20-13C813,508,802.51,500,791.81,492.4c-5.16-3.67-5.35-4,.08-6.67A226.58,226.58,0,0,1,828.5,471.3Z" transform="translate(-0.89 -0.89)"/><path d="M774.74,474.51c2.24-9.6-1.63-18.49-3-27.61-1.27-8.69-2.69-17.34-3.91-26-.42-3-.68-5.89-2-8.67-1.11-2.24-.76-4.69-.5-7.05l1.37-.24c2.54,10.44,5.07,20.88,7.67,31.56,3.48-1.45,1.81-6,5.12-7.69,1.25,2.12.64,4.27.57,6.31-.25,6.84,3.05,10.38,9.86,9.86a86.65,86.65,0,0,0,11.2-2.13c1.76-.38,3.49-1.08,5.5.79a94.4,94.4,0,0,1-19.43,8.69c-2.2.74-4.31,1.71-6.46,2.6-4.15,1.72-5.26,4.68-3.69,8.84S778,471.42,774.74,474.51Z" transform="translate(-0.89 -0.89)"/><path d="M763.82,355.1c-3.55,7.49-5.83,15.06-14.4,17.29C751.29,367,758.91,357.62,763.82,355.1Z" transform="translate(-0.89 -0.89)"/><path d="M774.93,479.68c.22,1.45-.57,2-1.71,1.82-4.14-.54-7.29,1.29-10.14,4-1.21,1.16-2.79,1.75-3.74.06s-.56-3.87,1.6-4.43c3.91-1,7.91-1.27,11.37-4C773.86,475.9,774.07,478.8,774.93,479.68Z" transform="translate(-0.89 -0.89)"/><path d="M243.88,488.06c0,1.5,0,3,0,4.5.1,3.07.25,3.8-4.13,3.38-6.12-.57-12.77-2.31-18.91.14-2,.79-2.95,1-4-.81-1.84-3.12-4.15-2.82-6.68-.92-2.19,1.65-4.39,3.2-7,.71a.51.51,0,0,0-.47-.1c-6.49,3.23-11.33-2-16.95-3.26-2.13-.48-1.86-1.68-1.81-3.31q.44-16.09.64-32.19c.05-3.83.9-7.7.8-11.39-.26-9.25,2-18.36,1.52-27.44-.51-9.28,1.31-18.41.63-27.63a8.54,8.54,0,0,1,.95-3.83c.84-1.87,1.86-2.67,3.52-.43,4.14,5.54,4.34,5.53,8.71.65,1.34-1.49,2.17-1.09,3,.39,2.43,4.22,5.05,6.31,9,1.31,1.28-1.63,2.61-1.08,3.89.79,2.88,4.23,4.37,4.35,7.46.41,1.94-2.46,2.9-2,4.37.23s3.54,3.69,6.11,1.22,3.93-.93,5.48,1.24,2.77,4.39,6.4,2.87c2.62-1.09,2.1,1.36,2,3-.4,5.11-1.43,10.29,1.87,15,1.91,2.72,3.89,4.7,7.26,2,.73-.58,1.31-1.78,2.46-1.08s1,2.17.73,3.19c-2.07,8.39-.46,17.22-3.13,25.53-.4,1.24-.89,2.74-.55,3.89,2.7,8.91-.79,17.78,0,26.66.24,2.58.21,4.34-3.36,2.75-5.31-2.35-9,.06-9.64,6a61,61,0,0,0,0,6.49Z" transform="translate(-0.89 -0.89)"/><path d="M182.94,350c0,.17-.8,1.28-1.29.83-2.25-2.05-5.39-3.32-6.6-6.28-.56-1.37.85-1.89,2.19-1.81C181.34,343,182.22,346,182.94,350Z" transform="translate(-0.89 -0.89)"/><path d="M192.39,366.52c-.08,3-1.08,5.29-3.92,6.25-.78.26-1.84-.57-1.25-1.44,1.59-2.36,1.28-5.93,4-7.32C192.24,363.48,192.16,365.65,192.39,366.52Z" transform="translate(-0.89 -0.89)"/><path d="M182.09,366.58c.28,2.34-1.42,2.89-2.91,3.42-1.16.42-1.9-.32-1.83-1.51.1-1.83.47-3.82,2.48-4.3C181.46,363.79,181.76,365.49,182.09,366.58Z" transform="translate(-0.89 -0.89)"/><path d="M325.22,130.6c-.45,1.69-1.14,3.17,1.7,3.79,4.59,1,9,2.74,14,4.33-2.4,2.13-4.63,1.6-6.75,1-5.2-1.55-10.81-1.44-15.75-3.93-1.14-.58-2.66-1.16-2.12-2.87.44-1.4,1.82-1,3-1.15C321.22,131.51,323.13,131,325.22,130.6Z" transform="translate(-0.89 -0.89)"/><path d="M400.9,117.82c-1.8-2.88-3.63-5.75-5.37-8.66-.5-.84-.92-1.9,0-2.7s1.94-.33,2.78.15C402.84,109.14,402.37,113.28,400.9,117.82Z" transform="translate(-0.89 -0.89)"/><path d="M300.43,128.73c3.33.86,6.84,1.74,10.33,2.68a1.23,1.23,0,0,1,1,1.44,1.42,1.42,0,0,1-2,1c-3.72-1.15-7.33-2.66-11.34-2.65a1.07,1.07,0,0,1-.82-1.52C298.16,128.5,299.31,128.85,300.43,128.73Z" transform="translate(-0.89 -0.89)"/><path d="M630.27,357.7c-1.3-6.45.5-11.45,1.88-16.51.26-.95.19-2.17,1.52-2.16s2,1.06,2.16,2.3c.54,4-1.2,8.3,2.15,11.88.8.86-.37,1.88-1.49,1.81C634.21,354.87,632.37,355.85,630.27,357.7Z" transform="translate(-0.89 -0.89)"/><path d="M674.22,251.32c3.59,1.3,5,2.44,3.83,5.45a37,37,0,0,1-4.94,9.06c-.49.64-1.27,1.35-2.1.84-1.1-.68-.66-1.65,0-2.53,1-1.49,2-3,3-4.5C675.61,257.27,676.55,254.8,674.22,251.32Z" transform="translate(-0.89 -0.89)"/><path d="M322.1,290.14c-2.29.1-3.42-.83-3.17-3,.22-1.77.39-4.31,2.65-4,1.8.29,4.5,1.08,4.6,3.83S323.73,289.67,322.1,290.14Z" transform="translate(-0.89 -0.89)"/><path d="M548.15,666.18c0-2.18-.06-3.68,0-5.18.11-2.5,1.71-3.88,3.34-1.74,3.17,4.16,7.35,2.93,11.35,3.25,1.34.11,3.35-.6,3.78,1.39.34,1.6-1.5,2-2.52,2.7-4.32,3-9.45,5.06-11.05,10.85A2.46,2.46,0,0,1,550.2,679c-1.64-.28-1.32-1.79-1.17-2.83C549.56,672.53,546,669.26,548.15,666.18Z" transform="translate(-0.89 -0.89)"/><path d="M428.18,432.85c1.72-3.77,2-7.93,5.87-10,2-1.05,3.7-2,5.92-.5,2,1.34,1.63,3.13,1.18,4.85-.59,2.21-1.2,4.63-4.18,4.83S431.15,431.54,428.18,432.85Z" transform="translate(-0.89 -0.89)"/></g></g></svg>