<svg xmlns="http://www.w3.org/2000/svg" viewBox="0 0 698.99 884.77"><title>born</title><g id="Layer_2" data-name="Layer 2"><g id="Layer_1-2" data-name="Layer 1"><path d="M664,1c10.15,7.45,20.76,14.23,30.34,22.48,24.33,21,44.21,45.36,58.57,74.17.59,1.17,1.39,2.23,2.09,3.35v14c-4.67-7.26-7.71-15.36-11.87-22.91-3.15-5.7-6.41-11.68-10.81-15.89-5.39-5.15-10-11.16-15.91-16-3.3-2.66-7.75-5.77-9.56-10.91-1-2.87-5.08-4.54-7.39-7.09C690,31.81,679,23,668.71,13.49,663.44,8.63,656.49,5.77,651,1Z" transform="translate(-56.01 -1)"/><path d="M755,189a4.69,4.69,0,0,1-4.67-1.05c-4.37-3.45-9.29-3.41-14.24-2.13-9.63,2.48-17.9-2-26.49-4.87-1-.32-2.31-1-1.73-2.57a2.92,2.92,0,0,1,3.17-2c3.82.68,6.89.56,8.06-4.11.4-1.59,1.86-1,2.75-.07s1.79,2.16,2.8,3.41c1.69-2.44,0-6.77,2.68-7.14s2.84,3.89,4.42,5.9c3.15,4,6.79,2.29,10.44,1.2,3.86-1.14,2.69-4,2.13-6.53-.93-4.2-2-8.39-2.94-12.58-.28-1.15-.67-2.45.7-3.05s2.06.68,2.78,1.54c4.52,5.34,7,11.64,8.46,18.38A11.15,11.15,0,0,0,755,178Z" transform="translate(-56.01 -1)"/><path d="M478,1c-6.48,7.51-5.12,15.77-2.57,24.29,1.21,4,1,8.26.43,12.39s-2.57,5-5.8,2.08c-1.6-1.45-3.05-1.76-4.93-.85-.71.35-1.63.85-2.26,0s0-1.82.54-2.67c1-1.65,4.58-2.65,2.53-5-1.72-2-4.93-1.73-7.55-1a30.83,30.83,0,0,0-4,2c-1.08.49-2.15,2.4-3.35.79s1-2.09,1.63-3.15c.32-.57.67-1.39,1.18-1.55C461,26,461.24,19.4,463,13.74c.37-1.21,1.42-2.46.34-3.72s-2.42-.13-3.64.11c-5.12,1-10.09,2.54-15.2,3.88a22,22,0,0,1,12.4-9.31A34.59,34.59,0,0,0,465,1Z" transform="translate(-56.01 -1)"/><path d="M755,205c-6.14-1.72-12.55-1.29-18.79-2.31a40.64,40.64,0,0,1-13.06-4.75c-2.44-1.35-3.21-.72-3.15,1.95.14,6.5.35,13-1.2,19.4-.23.94,0,2.15-1.23,2.45s-1.7-.74-2.33-1.52c-2.76-3.43-4.87-6.75-4-11.73,1.1-6.53,1.21-13.24,1.61-19.87.1-1.8.27-3.3,2.44-2.12,7.73,4.18,16.12,5.6,24.71,5.74,5.38.09,10.65-.07,15,3.76Z" transform="translate(-56.01 -1)"/><path d="M428,1c-4.4,5.27-11.11,7.07-16.5,10.88-9.12,6.43-18.63,12.16-26.59,20.3-3.94,4-8.2,9-14.85,9.44-1.41.08-3.3.79-4-.94-.64-1.5,1.17-2.24,2-3.1A233,233,0,0,1,408.35,5c1.94-1.25,3.77-2.67,5.65-4Z" transform="translate(-56.01 -1)"/><path d="M491,1c-.2,4.16-.29,8.36,1.1,12.33a18.34,18.34,0,0,1-2.1,17.1c-.61.93-1.84,2-.95,3s2.57.38,3.72-.12a18.48,18.48,0,0,1,11.73-.85c3.19.73,4.47,2.26,1.29,4.88-1.16.95-2.22,2.28-3.75,2.31-6.15.12-12,2.35-18.25,2.06-3.06-.14-3.81-1-2.56-3.88,4.07-9.53,3.63-19.38,1.27-29.16-.93-3.85,2.31-5.17,3.5-7.71Z" transform="translate(-56.01 -1)"/><path d="M755,313c-5,8.44-9.67,17-15,25.27A226.48,226.48,0,0,1,704,381.63c-.09-2.45,1.26-3.1,2.2-4.05a37.79,37.79,0,0,0,2.86-3.44c5.22-6.77,11.37-12.79,14.57-21.12,1-2.63,4.43-4.64,6.44-7.28,3.7-4.85,7.07-9.83,8.66-15.82,0-.16,0-.37.13-.47,6.1-6.11,5.8-15.38,10.82-22C752.28,304,751,298.77,755,296Z" transform="translate(-56.01 -1)"/><path d="M521,1a10.12,10.12,0,0,1-2.75,5.21c-2.75,2.73-1.9,4.45,1.39,5.78,5.06,2,8.05,5.62,8.07,11.32,0,2.7-.7,4.59-3.61,5.74-5.47,2.17-6.62,1.92-9.15-3.53-.77-1.65-1.37-3.38-2.07-5.06-3.17-7.52-5.53-8.18-12.37-3.47-1.1.75-2.17,2.94-3.58,1s.39-3.33,2-4.19c2.35-1.23,4.9-2.08,7.15-3.45,4.91-3,5.1-5.77.88-9.34Z" transform="translate(-56.01 -1)"/><path d="M369.3,691.92c-1.19-7.46,2.2-16.49,0-25.34-1.92-7.64-1.27-15.08-.57-22.73.41-4.55-.49-9.28-1.2-13.86-.59-3.84-3.82-3.13-6.37-2.71-3.53.59-7.71,2.78-5.76,6.35,4.83,8.86,2.11,17.82,1.83,26.68-.46,14.55,3.48,28.73,3,43.25a80.23,80.23,0,0,0,.61,11.38c1.21,10.63-6.21,15.67-13.59,20.18s-15.44,8.06-23.22,12c-11.57,5.83-23.89,7.24-36.7,6.86-8.66-.26-17.2-.08-25.61-2.91a13.77,13.77,0,0,1-9.24-9c-3.29-9.28-1.61-17.92,4-25.85a10,10,0,0,1,3.6-3.37c10.19-4.72,19.31-11.61,29.94-15.33,10.17-3.56,20.59-6.43,31-9.34,2.28-.63,3.1-1.39,3.59-3.78a42.27,42.27,0,0,0,.15-17.81,12.84,12.84,0,0,0-2.83-6.18c-6.65-7.54-6.73-13.59-.6-21.58,1.34-1.74,2.33-4,1.39-6.06s-3.35-2-5.31-1.74c-10.18,1.4-20.45,2.11-30.65,3-6.9.61-14.12-1.21-21.12-2.91-17.68-4.29-35.23-9.45-53.81-8.28a254.91,254.91,0,0,0-33.43,4.7c-7.05,1.39-12,7-17.2,11.48-3.5,3-5,2-7.11-.71-4.81-6.26-6-13.92-8.23-21.21-3.14-10.34-5-21-6.74-31.58-1.84-11.46-3.55-22.94-5.21-34.43-1-7.09-2.62-14.05-4.14-21-2.44-11.22-4.31-22.6-8.55-33.33-2.87-7.26-6.22-14.34-9.48-21.44-1.09-2.37-3.2-3.16-5.8-2.9-8.75.89-13.25-1.84-15.17-9.9a94,94,0,0,0-4.9-14c-1.52-3.71-3.48-7.51-2.47-11.95.78-3.45-1.29-6.45-2.49-9.48a23.85,23.85,0,0,1,1.24-21.11c1.4-2.56,1-4.74.3-7.15-2.41-8.9-.49-12.67,7.91-15.5a15.24,15.24,0,0,0,6.05-3.41c10.35-10.35,23.16-17.18,35.4-24.79,7.51-4.66,16.3-6.67,24.21-10.54,14.51-7.09,30.06-11.62,44.64-18.44,7.91-3.7,15.7-7.9,23.87-10.74s15.63-8,24.42-9.58c3-.55,6.42-2.24,6.42-6s-3.46-4.88-6.25-5.43c-6.83-1.34-12.19-5.08-17.31-9.39-6.53-5.49-5.42-14.95,1.75-19.31,10.42-6.34,22-6.43,33.55-7.41,1.82-.16,3.67,0,5.5,0,9.05,0,9.43-1.11,12.32-9.56,5.74-16.82,8.69-34.85,20.15-49.34,2.66-3.37,5.09-7,8.25-9.88,7.42-6.65,20.11-5.06,25.38,3.44,2.32,3.75,6.64,5,8.69,8.74a1.16,1.16,0,0,0,2.21-.44c1.28-6.41,6.87-8.82,11.6-11,11.42-5.16,21,1.27,26.61,11.89,8,15.12,7.15,31.44,8.88,47.47.39,3.59,1.16,7.12,1.15,10.83,0,3.91,3.2,5.3,6.83,6,10.73,2,21.41,4.2,31.74,7.83,4.3,1.52,7.89,4.27,11.64,6.66,4,2.57,4.89,9,1.93,12.81-3.45,4.49-7.08,8.65-13.6,9.08-3.73.25-7.36,2-11,3.14-2.48.78-2.74,1.7-.72,3.75,4.12,4.19,9.81,5.46,14.59,8.41,11.42,7,22.93,14,34.75,20.28s23.68,12.41,35.5,18.62c5.28,2.77,10.82,5.54,16.06,8.52,7.24,4.12,14.69,8.1,21.77,12.45,7.36,4.51,13.61,3.4,20.56-.07,4.31-2.16,9.18-2.63,13.3.42,4.85,3.6,4.5,9.23,3.51,14.25-.88,4.5-1.46,8.61.23,13.06a16.25,16.25,0,0,1-.38,12.21,11.81,11.81,0,0,0-.46,6.4c.51,3.44.06,6.62-2.27,9.4a7.44,7.44,0,0,0-1.89,5.05c.19,6.26-3.24,11-7.54,14.54a20.73,20.73,0,0,0-7.71,14c-1.72,14.17-6,27.41-11.6,40.56-13.22,31.14-17.53,63.92-15.82,97.61.56,11.12.67,22.27.85,33.41.07,4-2.59,5.63-6.41,4.1a40.52,40.52,0,0,1-12.43-8.21c-4.56-4.29-9.9-6.67-15.69-8.28-4.82-1.35-8.67-4.7-13.73-5.72-15.55-3.16-30.81-7.42-47.06-6.54-9.63.52-19.19,1.88-28.85,2.09-5.73.12-11.46,2.12-16.81,4.43-4.58,2-5.1,6.33-1.34,9.54,6,5.16,9,14.45,2.9,21.64a12.21,12.21,0,0,0-2.59,12.47c1.49,4.65,1.4,9.81,1.93,14.75.77,7.16,3.54,10,10.73,10.46,6.13.43,12.26-.42,18.42-.06a134.78,134.78,0,0,1,16.81,2,4.73,4.73,0,0,1,2.63,1.21c2.68,3.18,6.6,4.45,10.18,4.9,8.83,1.09,14.4,7.32,20.62,12.26,6.39,5.08,5.7,19.82,0,27.34s-13.47,8.8-21.69,8.9c-18,.22-35.68-1.56-53-7.66-6.65-2.34-13.57-4-20.14-6.85-7.65-3.34-11.6-8.79-12.48-17.1A211.08,211.08,0,0,1,369.3,691.92Zm-27.74-62c1.71-2.27,3.85-3.65,3.41-5.62-1.16-5.29,0-10.73-1-15.82-.93-4.64.91-4.48,4.16-4.47,17,.08,34,0,51,.07a16.94,16.94,0,0,0,7.67-1.66,142.85,142.85,0,0,0,54.08-44.77c24.64-33.67,33.54-71.28,25.21-112-8.91-43.58-34-76-72.72-97.78-3.26-1.84-6.43-4-10.59-4q-60.72.15-121.44.06a17,17,0,0,0-8.12,2c-28.47,14.87-50.21,36.33-64.5,65.28-14,28.32-18.58,58.05-12.2,88.89,9,43.72,33.68,76.46,72.36,98.72a38.58,38.58,0,0,0,21.32,5.41c14.14-.5,28.31,0,42.47-.23,3.65-.06,5.7,1.45,5.53,4.67C337.79,615.67,339.73,622.27,341.56,629.88ZM299.84,308.75c-1.43.37-4-1.71-5.37.88s.14,4.82,1.35,7c4.59,8.42,18.79,13.36,27.9,9.81,3.89-1.51,7.09-3.64,8.61-7.7.82-2.2.74-4.49-1.4-5.74s-3.39.32-4.7,2.15c-3.26,4.55-8.35,4.14-10.68-.73-1.31-2.76-3-4.47-6.29-4.86C306.31,309.24,303.39,308.5,299.84,308.75Zm55.47,5c-2.51.73-6.42-1.86-7.87,1.81s1.5,6.49,3.87,9.08c5.86,6.39,13.6,6.82,21.12,5.28,5.39-1.11,10.81-3.75,11.84-10.57.23-1.53.73-3-.93-4s-2.9,0-4,1.08c-.82.8-1.29,1.95-2.12,2.74-2.64,2.49-7.35,2.54-7.86,0-1.05-5.28-3.76-7-8.9-5.52C359,314.13,357.18,313.76,355.31,313.76Zm-9.46,325.69c-.17-1.34-.42-4.83-3.6-5.36s-3.44,2.85-4,5.24a6.79,6.79,0,0,0-.25,1c-.34,3.58-2,5.43-5.85,4.81a5.78,5.78,0,0,0-4.24,1.16c-1.54,1.06-1.45,2.5-.77,4,.85,1.86,2.05,1.1,3.24.36.84-.52,1.79-.89,2.57-1.48,1.4-1,2.89-2.06,4.51-.89s1.22,3,.77,4.6c-.69,2.39-1.83,4.7-1.2,7.27.54,2.18.54,5.33,3.43,5.39s4.14-2.33,5-5.22C347.38,653.8,344.92,647.38,345.85,639.45Zm102.94,81.88c5.39-.22,10.52-2.49,15.47-5.21,1.22-.67,2.79-1.39,2.58-3.31s-1.74-2.73-3.36-3.22c-6.88-2.1-13.07-1.32-18.12,4.35-1.45,1.63-3.34,3.14-2.28,5.58S446.48,721,448.79,721.33ZM94.94,391c-1,0-2-.07-3,0-3.85.31-6.47,2.53-6.55,6.21-.08,4,3,5.52,6.76,5.73a33.32,33.32,0,0,0,4,.25c3.93-.29,7.53-2,7.78-6.09.28-4.59-3.48-5.87-7.5-6Zm-6.55,51.23c.08,5.15,1.93,6.69,6.83,5.8a15.41,15.41,0,0,0,7.69-4.28c3-2.84,3.08-9,.17-10-4.4-1.53-8.13,1.31-12.06,2.91C88,437.9,88.79,440.29,88.39,442.23Zm3.75-17.13a12.35,12.35,0,0,0,7-2.16c2.25-1.53,3.5-3.57,2.8-6.35-.76-3-3.11-3.59-5.81-3.39-1.64.12-3.29.46-4.93.43-3.78-.08-6.74,1-6.71,5.32C84.53,422.62,87.92,425.14,92.14,425.1ZM380.6,652.17a41.49,41.49,0,0,0-1.31,6.24c-.11,1.66.55,3.53,2.66,3.54,2.42,0,2.23-2.05,2.17-3.68a15.06,15.06,0,0,0-.63-3.89c-.94-3-1.51-5.15,2.81-6.55,4.58-1.48,4.25-5.25.32-8.2-2.56-1.92-6.59-2.8-6.6-7.23,0-.32-1-.94-1.52-.88a1.87,1.87,0,0,0-1.29,1.24,11,11,0,0,0,0,3.92C378.44,641.82,382.41,646.36,380.6,652.17ZM280.48,716.92c-2.51-.13-4.42.73-4.25,3.52.15,2.39.41,5.15,3.78,5.36,3.93.25,7.86-.8,11.83.21,2.48.63,3.52-1.61,4.31-3.32,1.14-2.48-1.46-2.39-2.68-3.17C289.49,716.94,284.68,718.45,280.48,716.92ZM107.23,451.45c-4.89.08-10.25,3.91-9.77,7.43.38,2.76,1.61,5.5,5.21,5.62,3.4.11,10.56-6.76,10-9.91C112.16,451.77,109.77,451.27,107.23,451.45ZM559.2,437l-3.79.19c-1.46.07-2.61.56-2.77,2.21-.13,1.36,0,2.79,1.38,3.44,2.54,1.16,5.18,2.49,8,2.28,2.62-.2,5.86-1.1,6-4.15.12-2.64-3.12-2.89-5.21-3.58A16,16,0,0,0,559.2,437ZM156.48,532.58c.59-.29,1.17-.59,1.75-.89q-7.29-13.73-14.56-27.46l-1.29.66A69.68,69.68,0,0,0,156.48,532.58ZM556.76,423.36c3,4.15,6.9,4.77,10.76,5,1.73.12,4.62.92,4.71-1.94.08-2.42-2.45-3.55-4.62-3.64C564.33,422.7,561,423.12,556.76,423.36Zm9.94-11.95c1.06-1.22,4.84,1.75,4.66-1.49-.19-3.41-3.91-3.92-7.08-3.73-2.31.14-5.58.05-5.4,2.93s3.66,1.8,5.76,2.27A11.66,11.66,0,0,0,566.7,411.41Zm-4-19.82c3.72,4.28,7.35,2.59,10.91,1.1,1-.42,2.43-.79,2-2.33-.36-1.37-1.74-1.6-2.85-1.36C569.6,389.69,566.49,390.59,562.66,391.59Zm-187.56-114c3.87.77,8.42.71,10.23-.14C380.91,274.45,379.8,274.46,375.1,277.62Z" transform="translate(-56.01 -1)"/><path d="M56,854.45c0-4.49,0-9,0-13.49,0-2.47.54-4.28,3.36-1.85a3.48,3.48,0,0,0,1.64,1c12,1.32,23.09,8,35.4,6.8,13.46-1.32,26.73,1.3,40.2.67a376.64,376.64,0,0,1,52.14,1.34c14.64,1.34,29.27,1.6,43.88,2.66,14.23,1,28.4-.56,42.67.3a249.15,249.15,0,0,0,28.63-.27c8.38-.47,16.86-.44,25.27-.23,13.76.36,27.33-2,41-2.33,12.71-.35,25.53-1,38.07-2.58,12.34-1.51,24.89-.79,37.12-3.84,6.18-1.54,12.84-1,19.23-1.9,12.15-1.64,24.49-1.48,36.53-4.16,4.36-1,8.84-1.46,13.28-2.11,12.43-1.84,25-3.18,37.27-5.58,15.08-3,30.34-5,45.16-9.37,5.05-1.49,10.49-3,16.1-2.33,2.57.32,3.83,1,3.76,3.94-.21,7.66-.09,15.32-.06,23,0,1.74,0,3.25-2.16,3.89-3.5,1-6.85,2.9-10.4,3.39-11.79,1.61-23.27,4.71-34.94,6.83-17.47,3.17-35,6.23-52.52,8.85-21.82,3.25-43.64,6.71-65.58,8.75-17.34,1.61-34.51,5.2-52,5a124.6,124.6,0,0,0-23.7,1.59c-13.75,2.57-27.53.32-41.21,2.16-10.71,1.43-21.57.65-32.36.75-18.66.17-37.33.56-56,.12-8.64-.2-17.41,1-25.84-.33-13.23-2-26.52-1.17-39.75-2.28-18-1.51-36.11-3-54.26-2.76-8.92.14-17.73-2.11-26.68-1.65-13.91.72-27-3.81-40.49-6-2.26-.37-2.86-1.94-2.84-4,0-4.67,0-9.33,0-14Zm263,17.17c-.31-2.67-1.69-4.46-4.4-4.52a4.4,4.4,0,1,0-.22,8.8C317.12,876,318.55,874.23,319,871.62Z" transform="translate(-56.01 -1)"/><path d="M616.73,244.53V227.12q0-44-.09-88c0-2.1,1.13-5.2-.79-6.09-3.68-1.72-6-5-9.76-6.66-9.18-4-19-2.31-28.34-3.94-9-1.58-18.18-2.16-27.14-4.31-8.68-2.07-17.74-3.11-26.66-1.88-5.69.78-11.13-.41-16.26-1.63-11.41-2.73-23.18-1.76-34.39-4.07-8.73-1.8-18,1-26.2-3.74-3.47,2.48-6.75,0-10.11-.37-19.95-2.19-39.89-3.85-60-4.54-17.88-.61-35.83.07-53.62-1.59-13.28-1.24-26.59-1-39.89-2.43-15.78-1.72-31.55-4-47.56-4.2-12.32-.16-24.57-3.22-36.91-4-9.37-.61-18.68-1.39-28-2.54-20.55-2.53-41.18-3.43-61.74,0-4.2.7-8.61,1.27-12.27,3.87-1.78,1.26-3.84,1.85-5.57.56S90.33,88,90.69,86c2.7-14.68,13-21.48,26.35-24.27A148.26,148.26,0,0,1,155.24,59c20.4,1.12,40.81,1.45,61.2,2.4,18.23.86,36.61.67,54.65,3,12.83,1.66,25.73,2,38.54,3.1,13,1.15,26.11,1.71,39.18,2.45,24.72,1.42,49.47,2.45,74.14,4.75,16.69,1.55,33.4,2.91,50.09,4.49,23.43,2.23,46.87,4.43,70.24,7.34,19.53,2.43,39.12,4.43,58.53,7.76l.5.07c13.81,1.82,14.41,2.5,14.4,16.12,0,5.17.06,10.34,0,15.5-.05,2.55.53,3.86,3.56,4,10.81.53,11.35.68,10.78,11.25-.68,12.59-1.62,25.19-3,37.76-1.42,13.22-2.74,26.45-4.67,39.6C622.09,227.37,620.42,236.13,616.73,244.53Z" transform="translate(-56.01 -1)"/><path d="M696.87,275a3.61,3.61,0,0,1,5.09-1.68c2.1.93,3.89,1.56,5.66-.84,1.3-1.78,2,.06,2.18,1a30.14,30.14,0,0,1-.15,4.44,3,3,0,0,0,1.7,2.85c1.31.62,2.12-.32,2.94-1.22,1.45-1.59,2.93-3.17,4.51-4.63,2.38-2.2,4.56-3.71,8.32-1.83,3.5,1.75,3.56,4.18,4.38,7.36,2.89,11.09-3.48,18.68-9,26.74-.53.8-1.13,2-2.26,1.24-1.33-.88-1.11-2.38-.52-3.62,2.1-4.46,2.86-9.47,6-13.56,1.29-1.72,2-4.21-.9-5.43-2-.83-4.09-2.67-6.2.07a4,4,0,0,0-.88,3.65c.36,1.6,2.72,3.16,1.53,4.43-2.87,3.08-5.45,6.57-9.21,8.76-4.49,2.61-7.6-1.37-10.93-2.82-2.51-1.08-1.23-4.89-.8-7.38a8.92,8.92,0,0,0-.85-6.32c-1.66-3.29-4.29-7.47-.47-11.37-.3,5.15,4.26,8,5.73,12.2,2.17,6.14,7.34,5.06,11.7,6.28,2.37.67,2.63,0,2-2.12C714.2,283.61,704.5,275.49,696.87,275Z" transform="translate(-56.01 -1)"/><path d="M544.43,5.67c1.89.08,3.3-.24,4,.81,1,1.47-.68,2.3-1.23,3.42-2.82,5.85-1.79,12-.8,18,.31,1.89,2.51,3,4.62,3.34,1.71.3,3.39.66,2.75,3.1-.55,2.07-1.9,3.39-4,2.9A89.93,89.93,0,0,1,534,31.33a3,3,0,0,1-1.6-1.83c-1.09-6.62-1.7-13.68,1.15-19.56C535.14,6.7,540.93,6.33,544.43,5.67Z" transform="translate(-56.01 -1)"/><path d="M693.65,331.17c2,1.12,2.39,4.2,5,2.65,1.37-.82,3.53-.61,4-2.55.42-1.72-1.2-2.59-2.21-3.63-2.76-2.88-5.71-5.59-8.29-8.61-2.8-3.28-5.08-3.17-7.55.27-.86,1.2-1.61,3.88-3.45,2.48s0-3.27,1.14-4.7c6.66-8.6,6.67-8.6,16.15-3.13.43.24.84.53,1.28.77,10.49,5.72,11.46,8,7.72,19.23-.84,2.52-3,3.89-5.28,5s-4.8,2.27-7.22,3.36c-1,.45-2,1.51-3.17.52s-.67-2.17-.4-3.27C692,336.88,692.81,334.22,693.65,331.17Z" transform="translate(-56.01 -1)"/><path d="M669.91,103.24c-3.44-.49-3.28-4.12-4.93-6.17-1.16-1.43-1.33-3.67-1.91-5.56s-2.16-4.37,2-4c1.17.1,2.16-.89,2.78-1.88,2.38-3.76,6.12-6,9.41-8.79.76-.64,2.22-1.16,2.27-1.81.55-8,4.31-2.09,6.75-1.61a10.5,10.5,0,0,1,1.8.85c6.13,2.58,6.52,3.35.61,6.93-6.25,3.79-9.84,10.29-16,14-2.25,1.34-2.53,3.26-.93,5.48S671.64,103,669.91,103.24Z" transform="translate(-56.01 -1)"/><path d="M583.47,41.72c-5.84-.06-7.63-2.85-6.62-8.3,1-5.18,1.9-10.44,1.47-15.78-.23-3,.89-5.11,3.92-6.08s4.75.65,6.34,2.71c2.5,3.26,3.95,6.21,1.59,10.74-2.06,4-2.64,8.89-3,13.46C586.9,41.78,585.33,41.84,583.47,41.72Z" transform="translate(-56.01 -1)"/><path d="M650.74,49.2c-8.82,3-11.23,10.56-14,17.17-1.5,3.55-2.61,5.17-5.88,3.35-2.88-1.61-3.52-4.63-2-7.63,2.12-4.31,4.33-8.6,6.82-12.71,1.8-3,1.44-5.59-.25-8.34-1.22-2-4-.18-5.19-2.23,4.94-2.32,11.66-.41,13.91,4C645.48,45.62,646.89,48.27,650.74,49.2Z" transform="translate(-56.01 -1)"/><path d="M718.38,252.92a41,41,0,0,1,5.52.69c5.05,1.29,9.68,2,12.3-4.18.83-2,3.21-3.12,5-2,2.19,1.41.51,3.59-.33,5.29-1.16,2.37-2.68,4.57-3.77,7-1.85,4.08-7.54,7-11.67,5.2-2.76-1.2-5.63-1.89-8.43-2.88s-5.87-2.07-5.3-6C712.37,251.58,716.08,253.73,718.38,252.92Z" transform="translate(-56.01 -1)"/><path d="M739.77,239.85c-.07,2.86-1.74,3.18-4,2.56-3.68-1-7.48-1.56-11.13-2.47-5.12-1.27-7,1.22-8.39,5.16-.59,1.7-.62,4.1-3.32,2.94-2.1-.9-1.8-2.91-1.19-4.76,0-.16.1-.32.16-.47,1.69-4.31,2.32-9.71,5.34-12.65,3.44-3.32,8.51,1.6,13.07.84.61-.1,1.28.31,1.94.35C738.44,231.74,739.94,233.41,739.77,239.85Z" transform="translate(-56.01 -1)"/><path d="M568.5,14.73c-.52,6.08-1,11.52-1.46,17-.26,2.75-1.14,4.83-4.61,4.42-3.25-.39-5.48-1.62-5-5.31a114.74,114.74,0,0,1,2.08-12.25c.93-3.68-.3-5.18-3.85-5.78-1.63-.27-3.87-.16-4.45-2.49a3,3,0,0,1,1.21-3.1c1.93-1.52,3.73-.33,5.54.49a42.84,42.84,0,0,0,7.3,3.07C568.06,11.4,568.84,12.85,568.5,14.73Z" transform="translate(-56.01 -1)"/><path d="M696.53,99.08a11.82,11.82,0,0,1,5.92,5.71c.9,1.8-1.76,2.4-3.05,3.26-1.8,1.21-3.73,2.19-5.55,3.37-6.76,4.38-6.72,4.39-5,12.19.34,1.53,1.16,3.68-.78,4.37s-2.79-1.22-3.45-2.83c-1.89-4.59-2.35-9.65-4.87-14.06-.85-1.49.64-2.88,1.92-3.65,4.41-2.66,8.89-5.19,13.36-7.76A13.71,13.71,0,0,1,696.53,99.08Z" transform="translate(-56.01 -1)"/><path d="M715,125.61c.22,2.73-1,3.89-3.11,4.79A126.21,126.21,0,0,0,700.31,136c-2,1.09-3.48,2-4.82-.63-1.09-2.14-2.37-4.44.51-6,3.11-1.65,5.52-4.26,8.52-5.9s4-3.64,2.73-6.82a13,13,0,0,1-.7-3.4c-.11-1-.95-2.54.78-2.84a2.68,2.68,0,0,1,2.9,1.5C712,116.59,713.51,121.29,715,125.61Z" transform="translate(-56.01 -1)"/><path d="M619.28,27.19a6.35,6.35,0,0,1,6.09,8c-1.43,4.56-2.73,9.25-5.58,13.24-.56.78-.92,2-2.11,1.78s-1-1.52-1-2.44c0-2.61.54-5.23-2.31-7-1.07-.68-.14-2.17.2-3.24.59-1.89,1.41-3.7.84-5.79C614.34,27.83,616.7,27.12,619.28,27.19Z" transform="translate(-56.01 -1)"/><path d="M597.45,20.11c4.38-3.25,7.9-2.5,10.52,2,.61,1.06,1.19,2.06.21,3.14s-2.08.74-3.16.15a6.2,6.2,0,0,1-.83-.54Z" transform="translate(-56.01 -1)"/><path d="M341.24,594.65c-40.62-1.46-73.32-16.52-98.07-47.79-16.22-20.48-23.81-44-24.52-69.84-.08-2.72-.94-4.16-3.54-5.21-5.05-2-10.29-3.76-14.05-8.21s-3.63-7,1-10.27a50.88,50.88,0,0,1,16.78-7.44c3.28-.87,4.94-2.56,6.06-5.77,9.45-27.07,26.11-48.47,51.06-62.89,6.78-3.92,11.49-8.73,14.55-16.08,6-14.3,21.45-20.09,34.69-12.13,10.58,6.36,19.68,7.26,29.9.06,11.06-7.78,31.42-1.82,35.23,12,2.51,9.09,9.86,13.11,17.07,17.63a113.19,113.19,0,0,1,47.45,58.62c1.79,4.89,4.11,8.09,9.62,9.36a34.59,34.59,0,0,1,13.92,6.48c5,4,5.09,7.72.11,11.74a36,36,0,0,1-12.74,6.74c-3.17.91-4,2.76-4,5.86-.11,35.17-14.54,64-40.56,86.77-20.3,17.73-44.36,28-71.67,29.46C346.36,593.94,343.23,594.43,341.24,594.65Zm-1.4-5a117.86,117.86,0,0,0,70.08-22.33c15.48-11,27.1-25.22,35.84-42.07,7.54-14.51,10.11-30.12,11.86-46,.36-3.28-1.09-4.2-4.12-3.5-5.84,1.36-11.66,2.79-17.54,3.92-3.37.65-5,1.8-5.25,5.74-.4,8.05-4.32,12.14-12.29,13.26-21.3,3-42.76,3.41-64.23,3.43-4.36,0-6.06-2.59-6.88-6.46-.75-3.56-2.72-6.05-6.82-6-3.9.05-6.19,1.91-6.89,5.81-.89,4.92-3.91,6.89-8.88,6.72-12.47-.42-25-.45-37.42-1-7.46-.32-14.93-1-22.32-2.05-11.07-1.52-13-3.4-15.23-14.46-.6-3-1.91-4.22-4.7-4.78-5.71-1.16-11.42-2.38-17-3.93-3.56-1-4.37.19-4.33,3.54a98.07,98.07,0,0,0,4.7,29.43A116.6,116.6,0,0,0,339.84,589.61Zm118.1-139c-52.76-16.57-211.49-16-235.36,1.09,12.81,2,24,7.25,35.14,12.32C289.65,478.58,322.64,486,358,482.35c18.25-1.89,35.61-6.54,52.61-13,15.07-5.69,29.16-13.93,45.11-17.35A11.1,11.1,0,0,0,457.94,450.65Zm-61.87-55.83c2.25.12,3.85-.2,2.57-3-4.88-10.92-9.33-22.09-15.41-32.41-4.75-8.06-16.11-11-24-6.19-12.05,7.31-23.86,10.07-36,.52a7.26,7.26,0,0,0-1.34-.66c-9.32-4.57-20.53-1.55-25.32,7.68-5.2,10-9.49,20.5-14.24,30.76-1.59,3.43-.07,3.64,2.78,3.09,7.18-1.4,14.44-2.21,21.7-3.1,5.65-.69,11.28-.09,16.89-.89,10.59-1.52,21.27-1.12,31.85-.38C369.09,391.14,382.81,391,396.07,394.82ZM281.55,379.21a78.22,78.22,0,0,0-14.75,9.47,112,112,0,0,0-36.6,50.1c-1,2.7-1.3,4.15,2.46,3.42,6.69-1.31,13.43-2.38,20.16-3.51,2.86-.49,4.36-1.85,5.44-4.85,3.82-10.62,6.52-21.74,12.17-31.61C274.47,395.17,278.51,388.19,281.55,379.21Zm118.53.55c-.8,1.82.36,2.82.75,4,2.53,7.83,8,14.2,11,21.75,3.64,9.11,7,18.34,10.19,27.62,1.19,3.47,3.19,5.18,6.68,5.73,6.24,1,12.46,2.11,18.69,3.16,1.24.2,2.66,1.3,3.68-.11.81-1.13-.39-2.17-.76-3.22C443.82,420.18,432.53,404.91,418,392,412.58,387.27,406.91,382.65,400.08,379.76Zm66.36,76.07c-11.76.18-22.46,4.95-33.28,9.19-3.92,1.53-2,5.18-2.07,7.92-.07,1.65,1.63,1.9,3,1.59C446,472,458,469.78,468.88,464.06c2.37-1.25,6.91-1.95,6.05-5.48C474,454.8,469.63,456.28,466.44,455.83Zm-251.62.09c-.83,0-1.66,0-2.49,0-2.63.14-6.13-.22-6.84,2.68-.56,2.26,2.74,3.33,4.59,4.63a21,21,0,0,0,3.08,1.62c9.66,4.74,20.13,6.76,30.53,9,1.88.4,4.73,2.38,5.4-.87.56-2.75,1.81-6.61-2.31-8.25C236.47,460.59,226.2,456.21,214.82,455.92Z" transform="translate(-56.01 -1)"/><path d="M293.12,565.17c-2.95-5.46-2.19-10-2.59-14.3-.44-4.83.87-8.23,4.93-11.45a121.45,121.45,0,0,1,37.83-20.73,25.2,25.2,0,0,1,14.12-.06c14.17,4.55,26.92,12.06,38.57,21.39,2.47,2,4.09,4,4,7.43-.09,5.52.36,11.07-1.72,16.18-1.33.12-1.79-.46-1.87-1.08-1.81-14.46-16.46-25.79-31.17-28.07-9.13-1.41-18.06-1.92-27.24-.45C310.3,536.87,297.87,545.58,293.12,565.17Z" transform="translate(-56.01 -1)"/></g></g></svg>