<svg xmlns="http://www.w3.org/2000/svg" viewBox="0 0 649.41 881.66"><title>burglar</title><g id="Layer_2" data-name="Layer 2"><g id="Layer_1-2" data-name="Layer 1"><path d="M643.48,75.27c0,2.33-.06,4.66,0,7,0,1,.18,2.1,1.3,2.47,1.3.42,1.57-.74,2.14-1.54,1.81-2.53,3.1-1.7,5,.31,2.66,2.78,4.86,4.19.76,8.28-2.56,2.56-1.86,7.89.88,11.63,4.06,5.55,4,7.07.09,12.78a16.24,16.24,0,0,0-2.88,8.88c-.14,3.55,1.42,5.51,4.23,7.65,4.34,3.3,3.55,24.17-.56,27.56-6.06,5-6.18,12.21-.3,17.44,4.4,3.91,4.39,5.39,0,8.8-6.69,5.19-6.8,13.26-.25,18.77,5,4.2,4.74,24.14-.35,28.11-5.94,4.61-6.39,12-1.08,17.18,4.5,4.4,4.73,6.26-.22,9.79-4.51,3.22-4.37,7.94-5.24,12.35-.46,2.36,1.63,3.9,3.41,5.15A10.43,10.43,0,0,1,655,287.3a76,76,0,0,0,.06,8c.43,5.24-1.07,9.22-5.77,12.25-4,2.59-2.84,10.26,1.74,13.82,6.13,4.77,6.13,5.48.1,10.53s-6,11.61.13,16.78c2.6,2.19,4.1,4.57,3.79,8.13a69.39,69.39,0,0,0,0,10c.32,5.24-1,9.4-5.93,12.18-2.86,1.6-3.35,9.31-1.16,12.19.3.39.73.67,1.07,1,5.94,6.54,5.94,6.54,0,13.27a11.13,11.13,0,0,0,1.34,16.07c1.18,1,2.44,2.06,2.6,3.55.79,7.29,1.13,14.6-1.1,21.74a6.92,6.92,0,0,1-2.93,3.32c-5.43,3.87-5.6,10.78-.4,15.33,5.73,5,5.72,6.34-.08,11.09-3.58,2.94-5,12-1.59,14.44,8,5.75,6.37,13.95,6.33,21.75,0,4.79-1.48,8.8-6.31,11.45-3.2,1.74-2,9.79,1.56,13.52,5.46,5.79,5.53,5.87-.22,11a13.67,13.67,0,0,0-4.64,10.62,6,6,0,0,0,2.07,4.89c9.71,8.23,9.68,24.52,0,32.47-2.75,2.26-3.31,8.29-1,11.3.4.52,1,.86,1.47,1.35,6,6.41,6,6.41-.26,12.94a11,11,0,0,0,1.09,16.59,6.09,6.09,0,0,1,1.72,1.75c2.11,3.9.27,16-3.08,19.17-2.42,2.25-3.3,4,.06,6.15,2.89,1.88,3.85,4.78,3.61,8.25a61.36,61.36,0,0,0,0,9.49c.44,5.2-.71,9.25-5.58,12.23-3.5,2.14-2.12,11.3,1.84,15a30.42,30.42,0,0,1,3,2.61c2.1,2.51,2.8,5-.78,6.95-5.32,2.85-4.91,8.26-5.69,13.05a4.19,4.19,0,0,0,1.57,3.49c7.67,4.26,6,11.34,5.7,18-.07,2,0,4-.15,6a7.28,7.28,0,0,1-3.51,6.21,10.67,10.67,0,0,0-1.06,17.42c6,5.06,6,5.37,0,10.26-5.66,4.64-5.78,12.26-.23,16.65a7.78,7.78,0,0,1,2.43,3.69c2.56,7,2.07,14,0,21.06a7.08,7.08,0,0,1-2.46,3.64c-6,4.92-6.37,10.78-1.11,16.55,6.68,7.34,3.76,18.67-5.87,21.33-4.52,1.25-8.89-.4-12-4.28-3.36-4.26-4.63-4.42-7.59.25-2.36,3.73-5.51,4.62-9.63,4.92a138.39,138.39,0,0,1-18.89-.31c-4.87-.31-9.15-1.16-11.26-6.5-1.32-3.34-8-3.75-11.76-1.06a14.56,14.56,0,0,0-3.57,4.12c-2.28,3.42-5.85,3.58-7.8.08-2.91-5.24-7.43-6.17-12.72-5.66-1.53.15-3.17.55-4,1.79-6.19,9-15.19,6.24-23.56,5.56a11.09,11.09,0,0,1-9.5-6.17c-2-3.66-8.64-2.61-12,1.44-5,6.08-5.57,6.11-11.56.53s-17.74-5.37-23.11.64c-1.81,2-4.25,2.48-6.58,3.32-5.89,2.15-11.81-.36-17.73.09-1.53.12-2.82-1.52-3.85-2.93-4.39-6-12.77-5.74-17,.54-3.66,5.45-6.3,5.52-10.36.29-4.37-5.62-10.64-6.08-15.89-1a12.75,12.75,0,0,1-10.32,4,83.46,83.46,0,0,0-9.49,0,11.23,11.23,0,0,1-8.12-3.24c-7.07-6.29-14.2-5.76-19.87,1.52-2.35,3-4.37,3.59-7-.07-4.84-6.84-12.77-7.11-18.69-1a11.57,11.57,0,0,1-8,3.64c-4.83.18-9.67,0-14.5.07-2.44,0-4-1.31-5.4-3.08a11.24,11.24,0,0,0-17.47-.44c-4.49,5-5.31,5-10.18.35-4.34-4.14-12.43-3.84-16.67.65a11.09,11.09,0,0,1-5.54,3.13c-5.27,1.39-10.6,1-15.9.74a9.67,9.67,0,0,1-6.92-3.55c-4.7-5.48-12-5.56-17.15-.33-4.93,5-5.75,5.05-10.82.07-5.57-5.46-10.91-5.44-16.67,0a5.06,5.06,0,0,1-2.05,1.32c-7.7,1.93-15.48,1.37-23.23.43-.86-.11-1.69-1-2.38-1.73-5.66-5.72-12.72-5.69-18.69.13-4.14,4-5.21,4-9.18-.37-5.07-5.54-12.39-5.63-17.63-.26-4.39,4.5-10.25,3.62-15.52,3.45-5-.17-10.41,0-14.33-5.25-2.58-3.41-11.08-.85-14.56,3.55-4.75,6-4.75,6-11,1.38-5-3.75-5.72-3.66-9.87,1.25s-12.26,6-16.6,2.32c-5.5-4.63-6.67-12.68-2.08-17.76,2.34-2.59,1.58-4.5,0-6.51-2.26-2.81-2.73-4.68.78-7.26,5.69-4.18,5.5-12.15,0-16.86A8.54,8.54,0,0,1,9.42,826c.48-4.83.31-9.65.31-14.47a6.34,6.34,0,0,1,2.78-5.5,9.91,9.91,0,0,0,1.11-14.6c-1.15-1.19-2.68-2.11-3.53-3.47-1.78-2.83-1.1-5.17,1.64-7.32,6-4.71,6.38-11.32,1-16.76a8.82,8.82,0,0,1-2.94-7c.19-4.82.15-9.66,0-14.49-.08-3,1.39-5.08,3.65-6.68,2.07-1.48,5-1.93,4.82-5.58-.24-4-1.46-7.51-4.5-10.12-5.13-4.42-5.18-5.58.19-10,5.64-4.71,5.63-11.38,0-15.76-3.19-2.46-4.59-5.68-3.68-9.63a19.31,19.31,0,0,0,0-8.88c-.77-3.33.08-6.28,3-8.32,6.3-4.35,6.62-10.51.77-15.67s-5.7-5.79.56-10.78a10.05,10.05,0,0,0,.18-15.41c-5.78-5-4.06-11.93-3.57-18.24.33-4.29,1.89-8.39,5.75-11.11a5.47,5.47,0,0,0,2.25-5.73c-.94-5.38,0-11.28-5.81-15.13-2.59-1.73-1.51-5.08.85-6.89,4.19-3.2,5.28-7.35,5-12.32-.14-2.5-.6-4.51-2.82-6-3.21-2.11-4.41-5.19-4.2-9,.18-3.32-.15-6.67,0-10a12.78,12.78,0,0,1,3.33-8.63c5.6-5.81,5.23-12.73-1.1-18.18-3.15-2.73-3.18-5,0-7.69,6.57-5.54,6.68-13.54.42-19.53a9.51,9.51,0,0,1-.74-.67c-3.54-4.09-2.6-22.2,1.33-26a11.67,11.67,0,0,0-.18-17.06c-4.32-4.14-4.24-5.68.52-9.78s4.83-13.57,0-17.57a9.08,9.08,0,0,1-3.65-7.79,83.46,83.46,0,0,0,0-9.49c-.38-4.8.7-8.57,4.79-11.76s2.84-11.6-1.52-15.64c-4.63-4.27-4.58-5.57.35-9.5s4.84-13.47,0-17.26a13.42,13.42,0,0,1-1.51-1.3c-3.82-4.1-2.9-22.58,1.29-26.28,5.15-4.54,5.19-10.65.1-15.39-4.74-4.43-4.76-5.2-.21-10,5.41-5.67,5.4-12.42-.2-17.81a7.82,7.82,0,0,1-2.76-5.15c-.26-6.32-.24-12.65-.15-19,0-2.22,2.11-3.3,3.55-4.6,4.8-4.37,5.38-11.58.44-16-4.72-4.25-5.79-5.61-.06-11,5.16-4.89,4.95-12.6,0-17.54-5.83-5.79-5.85-22.25,0-28.21,5.58-5.72,5.38-11.41-.58-16.94-3.18-3-3.37-6.36,0-9.46a14.71,14.71,0,0,0,4.9-8.43c.62-3.64,1-7.31-3.14-9.59a6.25,6.25,0,0,1-2.81-3.37,40.58,40.58,0,0,1-.11-22,6.74,6.74,0,0,1,3.64-3.94c3.25-1.75,3.58-3.46.28-5.79-4.13-2.92-4.06-3.93.55-6.45,3.81-2.09,2.86-4.42.19-5.89-3.61-2-4.07-5-4.2-8.39a84.41,84.41,0,0,1,.91-16.42c.42-2.66,2.13-4,4-5.42,2.7-2,3.32-3.85.19-6.23-3.8-2.9-5.85-6.51-4.36-11.69,1.56-5.43,5.33-8.35,10.24-9.95,3.5-1.14,6,.87,7.85,3.8,3.36,5.29,11.44,5.91,15.67,1.27C55,11.12,67.55,8.64,74.9,12.4a11.27,11.27,0,0,1,3.33,2.95c5,6.21,12,6.24,16.89,0,3.67-4.68,5.33-4.65,8.8.15a10.84,10.84,0,0,0,17.64.42c2.38-3.07,5.66-4.13,9.1-4.59a41.88,41.88,0,0,1,12.93.2,8.68,8.68,0,0,1,6,3.93c3.74,5.4,8.13,6,13.33,1.87a23.44,23.44,0,0,0,3.36-3.66c3.33-4.05,5.91-4.27,8.63,0,1.9,3,4.52,4.31,7.54,5.23,3.29,1,6,.44,8.38-2.55,4.58-5.87,19.77-8.57,26.4-5,1.57.84,2.43,2.25,3.43,3.56,4.4,5.79,11.64,5.82,16.14,0,4.27-5.5,6.07-5.44,9.61.28s12.56,6.72,16.24,1.06c4.41-6.8,11-5.05,17.1-5.44,5.05-.32,10.15-.15,12.06,6.24A4.25,4.25,0,0,0,296.17,20c6.6-.75,13.88.25,18.3-6.73,2.12-3.33,4.82-3,6.63.23,3,5.29,8.31,4.84,13,5.82,2.15.44,3.41-1.26,4.33-2.82,3-5.07,7.48-6.74,13.11-6.35,3,.2,6,0,9,.08s5.49,1.05,7.19,3.74c3.35,5.29,11.89,5.95,16.13,1.31,6.26-6.84,6.26-6.84,12.21-.29,3.67,4,12.76,3.5,15.92-.95.19-.27.26-.62.45-.89,4.29-6,24.52-6.19,28.91-.27,2.85,3.85,7.46,5.51,11.48,3.51,2.74-1.36,5.64-2.63,7.44-5.61,2-3.28,5.66-3.42,7.6,0,3.07,5.37,8.38,4.73,13.06,5.88,1.67.41,2.2-1.09,3-2.09,7.82-9.36,23.87-10,32.17-1.22,2.77,2.92,11.53,2.25,15.11-1.19a17.34,17.34,0,0,0,2.31-2.62c2.47-3.69,5.56-4,8-.57,4.65,6.51,11.18,5.54,17.64,5.19A4.13,4.13,0,0,0,563,11.88c2.09-4.35,6.07-4.83,10.14-4.94,4.33-.13,8.68.15,13-.06,4-.19,7.12.8,9.41,4.3,2.17,3.32,4.44,2,5.58-.72,2.12-5,5.79-6.39,10.79-6.11,4.74.26,9.31-2.89,14.23-.58,2.59,1.21,5,2.3,6.68,4.89,2.94,4.43,5,4.19,7.46-.38s6.5-6.39,11.22-5.38c1.23.26,2.38.61,2.44,2,.08,1.79-1.19,1.61-2.42,1.43-2.56-.36-5.32.54-5.87,2.7s.61,4.77,1.47,7c.55,1.44,2.05.22,3.12.24,4.1.08,5.85,2.29,3.93,5.7-1.73,3.07-1.48,5.4.21,8.3,1.47,2.52,2.46,5.57-2.78,3.85-2.22-.73-3.31,1.19-4.29,2.69-1.14,1.72-.18,3.16,1.08,4.4,1.07,1.06,2.1,2.34,3.78.93.73-.6,1.45-1.67,2.4-.39a2.66,2.66,0,0,1-.09,2.84c-2.67,5.55-2.93,10.8.42,16.47,1.9,3.22-2.61,4.79-4.12,7.06-1.12,1.67-3.32.76-4-1.58-.24-.84-.73-1.71-1.7-1.19a2.9,2.9,0,0,0-1.38,1.9c-.28,2.65-.31,5.31-.44,8Zm-31,673.22c4.34,0,8.67-.07,13,0,2.28.05,3.65-.35,4.09-3.07.58-3.62,1.66-7.19,6.07-8.25,1.39-.33,2-1.73,2.07-3.15.29-5.09.13-9.86-4.49-13.52-4.2-3.34-4-5.14.51-8.48,2.72-2,3.86-4.35,4.22-7.89.51-5,.26-8.91-4.8-11.28-.75-.36-1.16-1.55-1.62-2.41-2.91-5.45-2.53-11.39-1.84-17.11.39-3.28,1.73-6.9,5.54-8.33,2.9-1.1,2.72-2.24.48-4.12-7-5.89-6.73-17.66.52-22.95a4.17,4.17,0,0,0,2-3.27c.31-5.4.53-10.71-4.88-14.24-3.46-2.26-2.53-5-.23-7.54A25.13,25.13,0,0,1,635.4,611c5.5-4.83,5.68-11.57.44-16.42-5.05-4.66-5.84-22.63-1.23-27.73a2.94,2.94,0,0,1,.72-.69c3.47-1.66,5.12-4,4.95-8.23a13.58,13.58,0,0,0-4.21-9.25c-5.2-5.4-5.28-5.33.48-9.93,5.53-4.42,5.81-11.93.63-16.52-1.38-1.21-2.62-2.46-2.82-4.52-.46-5-1.29-9.93-.85-14.92.3-3.41.41-6.87,3.59-9.42,5.49-4.4,5.45-11.13.22-16.21-6.07-5.89-6.06-6.4,0-12a10.34,10.34,0,0,0,0-15.51,8.12,8.12,0,0,1-3.07-6.53c.11-4.17,0-8.34,0-12.5,0-4.42,1.12-8.24,5.82-10.05a4.77,4.77,0,0,0,3.07-4.76c-.12-4.79-1.37-9.16-5.55-12.16-3.52-2.53-3.9-6.13-.32-8.51s4.66-6,5.78-9.55c1-3.09.44-6-3.17-7.36s-4.64-4.55-4.8-8c-.17-3.82.13-7.67,0-11.49a10.89,10.89,0,0,1,5.61-10.42c3.15-1.89,3.69-4.59,3.37-7.66-.4-3.86-1.35-7.49-5.22-9.61-4.19-2.3-3.27-5.2-.6-8.08.79-.85,1.83-1.47,2.58-2.34,3.32-3.86,3.74-11.45.51-13.54-5.35-3.44-6.78-8.4-6.11-14.22.71-6.15.06-12.93,7-16.48a3,3,0,0,0,1-2.19c.38-5.34,1-10.65-4.59-14.26-3.13-2-3.11-4.86-.28-7.46,1.22-1.13,2.53-2.19,3.64-3.43,2.93-3.3,3.69-11.88.71-13.78-4.94-3.15-5.37-7.55-5.1-12.58a89.71,89.71,0,0,0,0-10.5c-.21-3.24,1.23-5.36,3.68-7.14,5.55-4,5.9-11.69.79-16.52-6-5.71-6-5.69-.13-11.4,3-2.93,4-6.92,4.6-10.85.48-3.29-2.92-4.05-4.89-5.69s-2.7-4.29-3.09-6.66a39.14,39.14,0,0,1,0-13.44c.71-3.78,2-7.48,6-9.25a3,3,0,0,0,2.08-2.57c.29-5.33.8-10.53-4.44-14.41-4.69-3.48-4.41-4.3-.38-8.51,2.35-2.44,5.18-4.4,5-8.68-.14-3.9-1.31-6-4.76-8.08-3.83-2.36-2.79-24.34.66-27.53,7.46-6.91,7.49-11.67.12-19.11-3.19-3.21-3-5.65.54-8.75a27.89,27.89,0,0,0,2.92-2.72c3.78-4.4,3.3-6.91-1.59-9.78a50,50,0,0,1-4.3-3.33c-3-2.21-5.83-2.64-8,1a8.32,8.32,0,0,1-7.43,4.26c-5.16.14-10.32.33-15.48.19a9.49,9.49,0,0,1-7.77-4c-2.45-3.53-4.47-2.61-6.66.08-1.85,2.29-4.07,3.91-7.18,3.91l-22,.05c-1.87,0-4.19,0-4.72-2-1.37-5.25-5.35-3.67-8.51-3.36-4.13.4-8.75,1.11-9.73,6.18-.8,4.09-3.23,4.32-6.49,4.31s-5.37-.75-5.77-4.54a5.94,5.94,0,0,0-5.23-5.36c-3.3-.49-7.7-.48-9.14,2.3-2.54,4.92-6.72,6-11.07,6.4-7.56.73-15.77,2.82-20.94-5.77-.8-1.33-2.44-1.48-4-1.56-5.34-.29-9.69.89-12.62,6-1.88,3.32-5.16,3.22-7.75.28-1.66-1.88-3.24-3.8-5.49-5-3.84-2.09-10.49-1.71-11.78,1.16-2.33,5.21-6.31,6.86-11.6,6.74-4.16-.09-8.33.15-12.49.08-2.33-.05-4.56-.39-6.2-2.55-4.58-6-12.71-5.74-17.7.5-3.75,4.69-4.85,4.73-8.7.42-2.64-3-5.67-4.79-9.94-4.84-4-.05-7,.33-8.84,4.54-.63,1.41-3.25,2.23-5.12,2.76-5.7,1.63-11.6,1.09-17.39.8a6.53,6.53,0,0,1-6.13-4.4c-1-3.59-3.33-3.9-6.53-3.6-3.58.35-6.12,2-8.54,4.5-5.95,6.1-6,6-11.24-.54-4.54-5.74-17.06-5.49-21.1.41-3.65,5.35-22.6,6.8-27.09,2.08a13.46,13.46,0,0,1-.89-1.21c-4.54-6.23-12-6.28-16.63-.11-4.31,5.77-5.69,5.75-10.11-.14s-11.77-6.14-16.14-.56c-2.25,2.88-5.41,3.8-8.77,4.15-4,.41-7.94-.06-11.92-.26s-6.56-1.76-8-4.85c-1.65-3.43-4.18-3.73-7.35-3.55A10.46,10.46,0,0,0,175,28.4c-2.49,4.31-5.35,4.3-8.4.14-1.55-2.11-3.38-3.92-5.78-4.52-3-.76-7.24-2.86-9.1.66-3.54,6.69-9.24,7.85-15.51,7.27-5.23-.48-11.4,2.17-15.28-4.34-3.5-5.87-12.52-5.55-16.75.18-4.75,6.44-5.24,6.46-9.68.46a9.89,9.89,0,0,0-16-.27,9.32,9.32,0,0,1-7.79,3.73c-4.17.09-8.35-.13-12.5.09C54.5,32,52,30.66,49.94,27.52c-3.85-5.75-11.4-5.53-15,.33a23.16,23.16,0,0,1-5.63,6.87c-2.15,1.63-3.13,3.86.3,5.29,3,1.25,3.63,3.56,3.58,6.44a95.9,95.9,0,0,0,.07,11c.59,6-1.13,10.72-6.25,14.13-2.22,1.48-2.48,2.92.44,4.17,3.74,1.61,5,4,1.31,7.05-2.68,2.23-2.5,3.94,0,6.47,3.27,3.3,3.82,22.42,1.17,26.15a13.31,13.31,0,0,1-2.23,2c-3.76,3.29-4.19,12.3-.78,16.1,5.29,5.86,5.28,6.41,0,12.06-3.83,4.08-3.91,11.87.11,15.51,3.06,2.76,3.49,6.32,3.68,10s-.1,7.34.08,11-1.34,6.37-3.92,8.77c-4.08,3.78-4.11,12.93-.16,16.81,5.18,5.09,5.17,6.33-.1,11.09C22,222.86,22.2,231.38,27.1,235c1.68,1.25,2.86,2.54,2.88,4.88,0,3.64,1,7.34.55,10.9-.48,4.09.95,8.69-3.12,12.08-6.94,5.8-6.7,12.5.33,18.64,3.65,3.18,3.62,5.3-.1,8.53-6.78,5.88-7,11.52-.77,17.53A8.82,8.82,0,0,1,30,314.66a64.54,64.54,0,0,0,.05,8c.39,5.11-.62,9.19-5.18,12.55-4.39,3.24-3.51,12.4.84,15.84,5.89,4.64,5.91,5,.69,10-5.36,5.16-5.41,13.51.42,18,3.35,2.6,3.45,5.8,3.45,9.27,0,3.16-.46,6.34-.25,9.48.23,3.54-1.25,6-3.71,8.27a11.08,11.08,0,0,0,.16,16.64c5.41,4.93,5.41,5.88,0,10.69a10.57,10.57,0,0,0,.15,16.2,8.46,8.46,0,0,1,3.37,6.9c0,3.66-.31,7.37.14,11,.67,5.42-1,9.39-5.78,12.06-1.72,1-2.92,2.34-2.26,4.49,1.38,4.45,1.17,9.54,6.52,12.17,2.62,1.3,3.22,4.15.4,6.59a24.8,24.8,0,0,0-3.4,3.62c-2.18,2.86-2.69,12-.46,13.68,9.75,7.3,4.56,17.36,5,26.34,0,1-1.45,2.16-2.46,3a12,12,0,0,0-1.13,17.27c5.47,5.62,5.47,5.73,0,10.76-6.53,6-6.15,15.2.85,20.43,2,1.46,3.39,3.15,3.37,5.77,0,4.83.07,9.67-.05,14.5-.09,3.54-1.18,6.53-5.08,7.69-2.8.83-3.63,3.05-3.88,5.77-.47,5,1.68,8.61,5.62,11.45,3.56,2.57,3.59,4.9-.09,7.18-3.46,2.14-5.11,4.87-6,9-1,5.07.8,7.12,4.88,9.32A7.87,7.87,0,0,1,30,676.27c-.27,3.48-.11,7-.06,10.49s-1.62,6-4.29,8c-5.81,4.36-5.7,11.33.27,15.76,5.35,4,5.34,5.24,0,8.94-6.36,4.38-7.14,12.4-.82,16.8,6.67,4.65,5.92,22.11,2.09,26.44a7.31,7.31,0,0,1-1.53,1.23c-6.72,4.22-7,13.42-.33,17.57,2,1.23,3,2.52,2.84,4.74s-1.76,2.83-3.53,3.63c-6.11,2.77-7.36,12.75-1.93,16.53A11.81,11.81,0,0,1,28,815.93c.32,3.87-.34,7.65-.38,11.46a7.07,7.07,0,0,1-3.88,6.83c-2.44,1.44-6.24,3-5.17,7,1.15,4.22,2.07,8.7,6.55,11.27,2.69,1.55,3.73,3.85.16,6.09-3.23,2-4.22,4.06.6,5.36.58.16,1.05.78,1.54,1.23,6.48,5.81,8,5.77,13.23-1.43,2.12-2.92,4.18-2.85,6.74-1.17,1.53,1,2.88,2.3,4.45,3.23,4.62,2.76,11.71,2.66,14.38-.75,3.14-4,6.91-5.34,11.77-4.93a79.05,79.05,0,0,0,9.49,0c3.7-.15,6.64.7,9.17,3.84,3.26,4,10.31,3.83,13.71.15,5.1-5.53,7.41-5.56,13.12-.18,4.54,4.28,12.56,4.08,17-.43,4-4.07,23-5.08,27.5-1.44a11.83,11.83,0,0,1,1.35,1.47c3.74,4.25,11.42,4.64,15.47.79,5.73-5.45,5.73-5.45,11,0s12.4,5.41,17.31-.48a9.8,9.8,0,0,1,8.25-3.79c3.17.05,6.34-.09,9.5,0,4.56.17,9,.67,11.74,5.16a4.15,4.15,0,0,0,4.17,2.28c4.38-.73,8.74-1.21,12-5.11,2.94-3.57,6-3.19,9,.41,3.69,4.45,11.71,5.26,16,1.43,7.77-7,16.68-6.65,25.95-4.28a7.94,7.94,0,0,1,3.95,2c4.88,5.06,11.25,5.2,16.24.41,5.43-5.21,5.43-5.21,10.75-.06,3.89,3.78,12.29,5.34,15,2,4-4.91,9-6.63,14.86-6.4,6.29.26,13.24-1.18,17.3,5.86.81,1.4,2.29,1.78,3.87,1.95,4.84.49,8.7-.92,11.8-4.92s6.37-3.92,8.82-.14c3.32,5.11,11,6.1,15.73,2,8.29-7.17,24.55-7.29,32.73-.3a5.86,5.86,0,0,0,3.06,1.59c7.38.41,14.72.66,19.89-6.26,3-4,5.7-3.81,8.55.34,4.74,6.9,11.12,7.46,16.46,1.42a9.56,9.56,0,0,1,3.7-2.45c6.95-2.8,14-1.73,21-.42a5.34,5.34,0,0,1,4.52,3.48c1.46,4.24,4.76,4.54,8.51,4a13.22,13.22,0,0,0,8.34-5c3.29-3.9,5.46-3.72,8.73.33a18.11,18.11,0,0,0,3.07,3.23c4.7,3.55,9,2.84,12.44-1.94a8.81,8.81,0,0,1,6.22-3.77c7.76-1,15.5-1.65,23.34-.19,4.33.81,8,2,10.22,6.14,1.78,3.31,3.79,2.9,5.43-.06,1.54-2.79,3.1-5.55,5.63-7.53,6.13-4.83,6.63-10.55,1.24-15.86a6.24,6.24,0,0,1-2.28-4.31c-.06-6.66-.06-13.33-.05-20a5,5,0,0,1,2.41-4.14c5.65-4,6.13-11.15,1.13-16-5.16-5-5.11-5.93.57-10.82,4.53-3.92,5.88-12.82,1.88-16a15,15,0,0,1-5.92-11.49c-.13-2.09-.69-3.46-3.15-3.55-3.65-.15-7.28-.78-10.92-.79-25.79-.06-51.57-.18-77.35-.68-23.47-.45-46.92-.87-70.38-1.71-17.8-.63-35.63-.41-53.45-.86-16-.41-32,.52-47.88-.3-16.8-.87-33.6.15-50.41-1.13s-33.93-.56-50.9-.82c-49.12-.78-98.25-.19-147.37-1.74-21.9-.69-43.83,0-65.73-1.1-1.57-.08-3.83.51-3.73-2s2.41-1.83,3.91-1.8c11,.22,22,.33,33,.46q46.16.58,92.3,1.81c31.11.85,62.26.5,93.38,1.39,31.61.9,63.23-.46,94.85,1.07,20.78,1,41.62.24,62.45.73,34.43.82,68.88.53,103.32,1.66C557.89,748.39,585.2,747.34,612.46,748.49ZM595.69,861H592c-6.1,0-6.08,0-4.93,6a2.84,2.84,0,0,1-.2,1.9c-1.47,2.38-.12,3.27,1.89,3.91,6.31,2,12.8,1.54,19.23,1.14,2.41-.15,4.22-1.74,1.61-4.33-1.17-1.16-1.5-2.21.19-3.13,5-2.76.46-3.55-1.08-4C604.21,861.28,599.62,860.46,595.69,861ZM129.51,22.25c-1.87,1.14-4.86,1.36-4.17,4.24.72,3,3.43,1.89,5.42,2,3.47.12,7,.07,10.44.05,1.51,0,3.06-.08,3.66-1.88a2.58,2.58,0,0,0-1.57-3.6c-1.95-.93-2.2-2.11.16-2.83,1.27-.38,2.85-.31,2.71-2.17s-1.53-2.8-3.24-3.31c-3.79-1.11-7.58,0-11.36,0-2.6,0-5,.84-5.86,3C124.59,20.29,128.36,19.93,129.51,22.25Zm70.85-1.1c-1.48,1.54-4.41,1.27-4.27,3.45.17,2.54,3,2.18,4.76,2.71,4.08,1.24,8.07-.93,12.2-.62,1.17.08,4.66-1.44,1.18-3.81-2.43-1.66-1.47-2.41.54-3.24,1.27-.52,2.34-1.4,2.16-3-.22-1.77-1.65-2.39-3.12-2.79-3.58-1-7.25-.36-10.87-.46-2.47-.07-5.28-.33-6.42,2.56C195.22,19.25,199.26,19,200.36,21.15ZM12.23,749.49h0V755a4.21,4.21,0,0,0,0,.5c.34,4.39,1.8,5.23,5.52,2.8,1.78-1.16,2.57-1.07,3.25.91.32.95.95,1.87,2.17,1.58a2.4,2.4,0,0,0,1.68-2.25c.59-4.45,1.48-8.92.57-13.38-.51-2.44,0-7.56-5-2.95-.87.81-1.41-.23-2.09-.58-4.51-2.35-6-1.51-6.12,3.39C12.2,746.49,12.23,748,12.23,749.49Zm51.29-721V28.3c2.33,0,4.66.17,7-.05a3.56,3.56,0,0,0,3.29-2.67c.43-1.89-1.07-2.1-2.4-2.4-.89-.2-1.57-.78-1.4-1.72s1.09-1.13,1.94-1.25c1.48-.22,3.34-.28,3.1-2.37a3.86,3.86,0,0,0-3.47-3.14A31.56,31.56,0,0,0,56.32,16c-2.93.95-3.36,2.73-.08,4.18,1.44.65,2.56,1.62.52,2.61-1.67.82-3.1,1.37-2.3,3.54s2.71,2.12,4.58,2.1C60.53,28.45,62,28.46,63.52,28.46ZM19.93,687.31c1.46,1.38,1.06,4.11,3.17,3.89s2.76-2.59,2.77-4.26c0-4.46-.37-8.93-.71-13.39a2.38,2.38,0,0,0-1.55-2.37c-1.54-.36-1.88,1-2.37,2-1,2.17-2.13,2.77-3,0-.5-1.67-1.21-2.78-3.09-2.37a3.43,3.43,0,0,0-2.89,3.57c0,3.33,0,6.66,0,10,0,2.25.23,4.32,2.63,5.44C17.5,691.05,18.12,688.27,19.93,687.31Zm.36-82.64c-1.67-1.33-.79-4.6-3.42-4-1.73.4-1.62,2.63-2.14,4.17-1.56,4.58.6,9.19-.26,13.79-.24,1.28,1,2.63,2.22,3,1.5.52,1.7-1.17,2.2-2.12.85-1.62,1.71-2.09,2.65-.09.6,1.28-.43,4,2.32,3.38,2.3-.48,3.49-2.45,3.54-4.85.07-3.65.1-7.3,0-11-.05-2.09.45-4.6-2-5.69C22.54,600.09,22.05,603.25,20.29,604.67Zm-2.61,223c1.58,1.58,2.29,4.47,5.08,3.29,2.42-1,2.11-3.58,2.17-5.66.1-3.32.06-6.65-.14-10-.25-3.88-2.15-5-5.51-3-1.5.89-2.26,1.13-3.14-.42-.62-1.09-1.42-2-2.79-1.28-1.17.6-1.35,1.75-1.31,3,.1,4.15.1,8.3.23,12.45.05,1.59-.67,3.72,1.1,4.56C15.88,831.84,15.69,828.36,17.68,827.69ZM271.46,22.18c-2,.77-4.9,1.4-3.68,4.49,1.07,2.72,3.68,1.6,5.7,1.72,3,.17,5.89-.78,8.92-.21,1.68.32,2.72-1,3.35-2.46s-.14-2.07-1.4-2.62c-1.88-.83-1.62-1.94,0-2.75,1.39-.69,3.86-.66,2.92-3a4.86,4.86,0,0,0-4.77-3c-3,.08-6-.17-9,.05-2.27.18-4.92.39-5.73,3.12S270.61,19.85,271.46,22.18Zm148.43-2.63c-.09,0-.69.33-1.26.67-1.44.83-3.19,1.62-2.52,3.71.57,1.8,2.48,1.34,3.85,1.71,4,1.08,7.91-.8,11.9-.38,1.69.17,3.46,0,4.13-2s-1-2.48-2.25-3.27c-2.11-1.31-1.44-2.17.53-2.9,1.3-.49,4.13.82,3.53-2-.48-2.26-3-3.12-5.19-3.07a88.37,88.37,0,0,0-10.89,1c-1.71.25-4-.16-4.86,1.88C415.78,17.57,419.66,16.8,419.89,19.55Zm221,199.72c0,2.17-.05,4.33,0,6.5,0,1.32.07,2.8,1.63,3.32s2.15-.46,2.87-1.84c1.33-2.56,2.9-2.83,3.67.49.27,1.17.34,2.44,2,2.21,1.18-.16,1.5-1.19,1.7-2.19a48.27,48.27,0,0,0,.31-16.35c-.16-1.15-.49-2.43-1.83-2.73-1.63-.36-1.77,1-2.14,2.11-.73,2.16-1.8,2.41-2.82.24-.6-1.27-.39-3.43-2.65-2.56a4,4,0,0,0-2.77,3.81C640.87,214.61,640.86,216.94,640.86,219.27Zm10.79,143c0-2.15.1-4.31,0-6.45a3.22,3.22,0,0,0-2.45-2.83,1.68,1.68,0,0,0-2.29,1.25c-1.62,4.8-2.6,2.87-3.51-.32-.48-1.72-1.81-2.52-2.55-.6-2.19,5.73-2.29,11.78-1.52,17.81a2.66,2.66,0,0,0,2.31,2.34c1.67.13,1.5-1.38,1.81-2.44.24-.79.51-1.62,1.54-1.66s1.33.82,1.58,1.61c.34,1,.16,2.6,1.81,2.45,1.26-.11,1.71-1.41,2.29-2.41C652.21,368.22,651.66,365.19,651.65,362.24ZM494.5,17.84c-.77,2-2.42,1.19-3.54,1.69a2.05,2.05,0,0,0-1.38,2.35c.17,1,1,1.26,1.88,1.3,5.81.3,11.63.65,17.42-.11,2-.27,3.84-1.64,1-3.46-2.24-1.45-2.37-2.56-.28-4,1.13-.8,2.36-1.63,1.67-3.18s-2.15-1.25-3.48-1.39c-5.17-.52-10.24.81-15.38.82A2,2,0,0,0,490.25,14c0,1.17-.15,2.41,1.36,2.8C492.54,17,493.64,16.69,494.5,17.84ZM642.43,585.72a8.8,8.8,0,0,1,.79,1.41c.43,1.44-.56,3.88,1.94,3.89,2.2,0,2.85-2.23,3.08-4a48.27,48.27,0,0,0-.55-14.39,2.6,2.6,0,0,0-1.71-2.26c-1.22-.36-1.73.5-2.24,1.43s-.23,2.41-1.75,2.66c-2-.73-1.07-5.08-4.19-3.89-2.68,1-2.67,4-2.63,6.5s.52,4.94.62,7.43-.08,5.8,2.66,6.35c3,.62,1.63-3.35,3.07-4.75A4.39,4.39,0,0,1,642.43,585.72ZM639.14,291.1c.42,3.37-.49,6.12.82,8.62.9,1.72,1.73,4.51,3.67.55,1.14-2.35,2.39-2.21,3.07.35.3,1.15.28,2.48,1.91,2.35a3,3,0,0,0,2.66-2c1.63-5.71.67-11.44-.36-17.11a2.6,2.6,0,0,0-2.7-1.85c-1.36.06-1.34,1.21-1.45,2.19s-.31,1.74-1.31,1.83c-1.21.11-1.73-.78-2-1.81s-.5-2.25-1.78-1.84a3.26,3.26,0,0,0-1.9,2.09C639.34,286.87,639.28,289.36,639.14,291.1ZM632.6,753.3c.1,2-.48,4.31.5,6.55.54,1.24,1.07,2.66,2.48,2.93,1.95.37,1.83-1.35,2.18-2.6a2.2,2.2,0,0,1,1.1-1.4c1-.31,1.45.5,1.77,1.31.43,1.1-.13,3.1,2,2.7,1.36-.26,2-1.69,2.57-2.88,1.88-4-.24-8.22.76-12.3a3.11,3.11,0,0,0-1.56-3.84c-1.72-.82-2.73.05-3.67,1.48s-2,1.82-2.83-.21c-.51-1.27-.27-3.52-2.33-3.15-1.53.27-1.52,2.41-2.18,3.7C632.18,747.91,632.6,750.47,632.6,753.3Zm1.84-74h-.08c0,2.49-.06,5,0,7.49,0,1.12,0,2.55,1.35,2.94,1.61.46,1.81-1,2.19-2.08.64-1.85,1.67-2.15,2.65-.38.86,1.54,1,4,3.63,2.89,2.4-1,2.39-3.48,2.15-5.62a28.69,28.69,0,0,1,.16-9.43c.37-1.69.35-3.42-1.26-4.51s-3.15-.31-4.41,1c-1.46,1.5-2.5,1.49-3.09-.75-.24-.93-.5-2.14-1.83-1.88-1.16.22-1.41,1.42-1.44,2.37C634.37,674,634.44,676.62,634.44,679.29Zm13.74-526.57c1.75,1.18.64,4.75,3.64,4.2s2.77-3.13,3.25-5.48c.72-3.49-.06-6.9.1-10.35.12-2.49-1.7-5.13-3.74-3.69-2.85,2-4.06,2.64-5.82-.8-.46-.91-1.85.17-2.09,1.2-1.35,5.75-.8,11.56-.33,17.35a2,2,0,0,0,2,1.86c.94,0,1.31-.82,1.48-1.71S646.61,153.23,648.18,152.72ZM20.32,457.24c-1.67-1.08-.85-4.09-3.44-3.33-1.66.48-1.88,2.2-2,3.68a63.76,63.76,0,0,0,.95,14.79c.32,2.06,1.68,2.85,2.88,1,1.39-2.16,2.05-1.41,3.74-.39,2.65,1.61,4.89.95,4.95-2.71s.08-7.29-.15-10.92c-.12-1.89-.14-4.08-2.44-5C22,453.13,21.89,456.26,20.32,457.24Zm.07-129.65c1.43,2.9,4.29,5.61,6,1.26a22,22,0,0,0-.14-16.45c-.69-1.67-3.34-4.52-4.5.3-.21.85-.4,1.74-1.39,1.74s-1.22-.95-1.4-1.78c-.22-1-.64-2.1-1.77-2.11-1.62,0-1.4,1.55-1.7,2.59-1.24,4.23-.53,8.57-.65,12.86-.05,1.65-.11,3.56,1.71,4.33C19,331.34,18.51,328.1,20.39,327.59ZM637.53,435.5h.14c0,2.48-.07,5,0,7.45a3.11,3.11,0,0,0,.83,2.17c1.11.77,1.69-.4,2.35-1.09,1.35-1.39,2.65-3.53,4.58-.66.62.93.86,2.59,2.19,2.29,1.58-.37,2.18-2.09,2.22-3.56q.23-6.94,0-13.88c0-1.24-.43-2.9-2-3-1.39-.09-1.66,1.37-2,2.47-.26.84-.69,1.64-1.62,1.6s-1.28-.86-1.23-1.79c.07-1.37.18-2.85-1.89-2.6-1.59.19-3,1-3.14,2.69C637.69,430.21,637.67,432.86,637.53,435.5ZM342,24.58a38.84,38.84,0,0,0,20.22,1,2.07,2.07,0,0,0,1.38-1.17c.24-1-.72-1.31-1.52-1.56-4.07-1.28-3-2.84-.14-4.26,1.23-.61,2.69-.87,2.16-2.68-.46-1.55-1.86-1.77-3.23-1.76-4.49.06-9,0-13.46.31-2.73.18-4.36,2.58-2.39,4.35C349.09,22.37,345.14,22.66,342,24.58ZM20.7,399.26c1.28,1.25,1.18,4,4,2.82,2-.83,2.93-2.15,2.73-4.23a64,64,0,0,1-.07-11.91,4.08,4.08,0,0,0-2.91-4.23c-2-.78-1.92,1.08-2.61,2.1-1.18,1.73-2.09,1.26-2.63-.56-.36-1.2-1-2.29-2.43-1.83s-.92,2-.94,3c-.08,4.5-.11,9,0,13.49,0,1.57-.66,3.74,1.28,4.43C19.38,403.19,18.75,399.89,20.7,399.26ZM533.23,872.07c-5.65-3.38-7.39-6-1.45-8.1a1.61,1.61,0,0,0,1.09-2c-.24-1-1.13-1.2-1.91-1.34a52.3,52.3,0,0,0-15.35-.13c-2.08.23-3.22,1.87-.78,3.2,3.79,2.06,2,3.38-.29,4.79-2,1.24-3,3.17-.13,3.63C520,873,525.74,872.77,533.23,872.07Zm83-852.4v-.39c2.15,0,4.3,0,6.44,0,2.86-.08,4.32-.85,1.84-3.7-1.92-2.22-1.64-3.85,1.48-4.56a2.06,2.06,0,0,0,1.4-1.1c.26-1.05-.75-1.43-1.5-1.57a42.07,42.07,0,0,0-17.7.08c-2.75.66-4.67,2.72-.79,5,1.13.67,2.64,1.11,1.6,2.9-.54.92-3.27.48-1.89,2.49.88,1.29,2.66,1,4.18.85S614.56,19.67,616.21,19.67ZM20,64.93c1.69-3.45,2.71-4.79,5.58-1.32,2.1,2.53,4.16-.28,4.33-2.83.3-4.45.19-8.94.21-13.41,0-1,0-2.13-1.08-2.56s-1.58.72-2.23,1.43c-1.2,1.33-2.4,4-4.29.73-.6-1-.2-2.93-2.22-2.43a2.85,2.85,0,0,0-2,3.12C18.39,53.08,17.38,58.59,20,64.93Zm7.53,185.3c-.1-1.82-.4-4.46-.36-7.09.05-2.8-.68-3.91-3.39-2.15-1.81,1.17-3.57,2.06-4.83-.69-.36-.79-.9-1.49-1.86-1.25-1.26.3-1,1.47-1.24,2.4-1.23,5.24.29,10.48,0,15.72-.06,1.09-.26,2.62,1.3,2.78,1.39.13,1.84-1.13,2.05-2.35.16-1,.36-2.16,1.61-2.1,1.42.07,1.1,1.36,1.15,2.29.05,1.11.48,2,1.66,2.06a3.13,3.13,0,0,0,3.18-1.94C27.68,255.71,27.38,253.36,27.48,250.23ZM632,825.41h-.08c0,2.65,0,5.31,0,8,0,.79-.11,1.73.85,2.14s1.47-.32,2-1c2.42-3.32,4.34-3.46,5.71.82a2,2,0,0,0,1.45,1.1c.95,0,1.32-.82,1.47-1.69,1-5.91.22-11.84.09-17.76a2.06,2.06,0,0,0-1-1.57c-.92-.36-1.51.36-1.81,1.21-2.17,6.17-3.74,2.19-5.34-.34-.45-.7-.69-1.61-1.71-1.52-1.26.11-1.56,1.15-1.58,2.16C631.91,819.76,632,822.58,632,825.41ZM15.75,535.11h.08c0,2.66-.05,5.32,0,8,0,1,.11,2.1,1.15,2.59,1.24.58,1.72-.43,2.24-1.29,1.14-1.92,2.46-2,3.93-.32.75.86,1.48,2,2.83,1.49,1.52-.61,1.34-2.18,1.38-3.45.1-3.66.18-7.32.08-11-.07-2.94.46-7-4.59-3.28a2.14,2.14,0,0,1-2.79-.11c-4.21-4.18-4.3-1-4.34,2.38C15.74,531.78,15.75,533.44,15.75,535.11ZM228.12,864.33c-2.81.49-6.67-1.36-9,1.62-1.65,2.09,2.56,5.85-1.51,8.08-.39.21,1,1.58,2,1.64,4.95.32,9.93.68,14.85-.25,2-.38,3.37-1.47.61-3-1.95-1.07-2.61-2.15-.34-3.5,1.19-.71,2.45-1.42,2-3-.54-1.92-2.3-1.53-3.74-1.57S230,864.33,228.12,864.33ZM15.74,176.49h0c0,1.83-.06,3.66,0,5.49.07,1.58-.57,3.6,1.53,4.3,1.92.65,3-.62,3.89-2.24.8-1.44,1.93-2,2.79,0,.4,1,.76,2,2,1.7s1.4-1.74,1.4-2.89c0-4.33.07-8.65,0-13-.06-2.84-.24-5.86-3.68-1.72-.82,1-1.61.52-2.6,0-5.23-2.55-5.31-2.47-5.35,3.26C15.73,173.16,15.74,174.82,15.74,176.49Zm7.14-67.86c.44.46.88.75,1,1.15.45,1.18.34,3,2.12,2.85s1.23-2,1.52-3.19c1.07-4.41.69-8.88.49-13.34-.05-1-.2-2.1-1.31-2.45s-1.89.27-2.31,1.32c-.59,1.42-1.31,2.65-2.62.63-.84-1.31-1.51-2.76-3.41-1.83a4.3,4.3,0,0,0-2.3,4.12c0,3,.43,5.92.65,8.88.16,2.08-.57,4.65,2,5.62C21.94,113.59,21.22,109.71,22.88,108.63ZM649.19,507.87h0c0-2.15,0-4.31,0-6.46,0-1.28.36-2.87-1.23-3.45s-2.28.76-3,1.9c-1.68,2.61-3.27,3.86-4.15-.51-.21-1-.69-1.94-1.94-1.73-1,.17-1.09,1.15-1.1,1.95q-.09,7.95-.07,15.89c0,.8,0,1.74.94,2.11,1.21.48,1.85-.35,2.29-1.27,1.66-3.42,3.15-2.84,4.64.12.47.94,1.24,1.68,2.36,1.35s1.21-1.47,1.22-2.45C649.22,512.83,649.19,510.35,649.19,507.87ZM441.86,873.08c3.09.84,6.14.18,8.91-.59,6-1.67-3.69-7.09,1.9-9.41.58-.25-.25-1.77-1.46-1.93a2.32,2.32,0,0,0-1,0c-3.54,1.16-7.2.74-10.82.84-1.38,0-2.69.25-3.27,1.72s.62,1.92,1.57,2.61c1.61,1.17,1.22,2.13-.56,2.71-1.28.42-3.54-.13-3.25,2.06s2.58,1.67,4.09,1.95A20.89,20.89,0,0,0,441.86,873.08ZM578.51,11h0c-2,0-4-.14-6,.05-1.75.16-4.91-.57-4.23,2.39.54,2.35-.77,6.68,4.08,6.63,4.29,0,8.58.33,12.87-.49,2.58-.49,4.21-1,3.77-4.32-.39-3.06-1.37-4.55-4.58-4.3C582.5,11.14,580.5,11,578.51,11ZM299,863.47v0c-2.33,0-4.66,0-7,0-1,0-2.15.13-2.33,1.35-.16,1,.84,1.32,1.59,1.63,2.11.88,2.31,2,.81,3.78-2.43,2.84-.72,3.71,2.05,3.87,3,.18,6,.23,8.95.49,1.39.13,2.69.34,3.55-1a2.75,2.75,0,0,0-.52-3.62c-.94-1-1.88-2.1-.06-3.2.9-.55,2.64-.53,2-2.22-.49-1.32-1.91-1.07-3.06-1.08C303,863.46,301,863.47,299,863.47ZM155.13,875.05h2.48c4.53,0,4.49,0,3.4-4a3.15,3.15,0,0,1,.32-2.37c3.87-5.11,0-4.95-3.41-5.09-2.32-.09-4.65-.15-7,0-2.89.16-6.48,0-3.28,4.61a2.33,2.33,0,0,1-.14,2.81c-2.94,3.82-.26,4,2.61,4.08C151.81,875.07,153.47,875,155.13,875.05Zm-72.78,0v0c2,0,4,0,6,0,1.12,0,2.55.37,3-1.07s-.87-2-1.94-2.35c-1.94-.66-3.06-2.07-1.88-3.76,2.95-4.25-.13-3.84-2.73-3.83-2.17,0-4.33.15-6.49.28-3,.17-7.46-.8-3.51,4.66a1.92,1.92,0,0,1-.14,1.84c-4.78,5-.11,4.09,2.68,4.24C79,875.12,80.68,875.05,82.35,875.05ZM634.3,649.12c-.19,7.74.55,6.35,6.84,7.15a3.82,3.82,0,0,0,4.48-3.68c.23-3.14,2.48-6.38,0-9.5a1.14,1.14,0,0,0-.87-.41c-3,.52-5.91,2.73-9,.4a8,8,0,0,0-1.12,2.09A30.47,30.47,0,0,0,634.3,649.12ZM371.6,873.3v.07a11.29,11.29,0,0,0,2.47,0c2.29-.52,7.48,1.28,3.48-4.46-1.17-1.67.63-2.55,2.26-2.82.79-.14,1.76-.13,1.85-1.22s-.86-1.25-1.64-1.41a33.34,33.34,0,0,0-14.27-.15c-2.05.46-3.84,1.57-.7,3.24,2.12,1.12,1.58,2,.22,3.29-2.36,2.21-.7,3.11,1.38,3.44A31.42,31.42,0,0,0,371.6,873.3ZM30.72,23.72c-.41-3.18,1.19-7.17-3.63-7.7-3.59-.39-9.15,5.15-8.84,8.62.64,7.28,7,3,10.35,4.34C31.75,30.26,29.92,25.42,30.72,23.72Zm601.22,845c-1.68,3.21-.18,4.18,2.22,4.43,3.61.39,7-3,7.43-7.27.65-6.67-4.91-4.83-7.76-4.79C625,861.22,632.6,866.51,631.94,868.75ZM20.52,878.37c1.4,0,2.75,0,3.39-1.09,1-1.79-.77-2.15-1.74-2.91-1.39-1.1-1.89-2.34-.38-3.71.92-.85,2.79-1.39,1.88-3s-2.65-.49-4-.2a22.51,22.51,0,0,1-2.46.4c-4.07.42-5.28,2.4-3.7,6.17C14.82,877.27,17.65,878.06,20.52,878.37ZM175.73,21.25c-.55-2.68-2.14-4.83-4.43-5a4.79,4.79,0,0,0-5.12,4.48,4.31,4.31,0,0,0,4.16,4.77C172.91,25.65,174.63,23.51,175.73,21.25ZM646.29,250.94c-2.57.69-4.54,2.45-4.51,5.05,0,2.23,1.22,4.83,4.13,4.66a4.9,4.9,0,0,0,4.67-5A4.58,4.58,0,0,0,646.29,250.94ZM464,13.64c-2.67.45-4.67,1.57-4.81,4.38a4.19,4.19,0,0,0,4.31,4.56,5,5,0,0,0,5.08-4.6C468.69,15.46,466.25,14.23,464,13.64Zm186.09,312.8c-.55-2.14-1.64-4.29-4.14-4.1a5.05,5.05,0,0,0-4.76,4.92,4.13,4.13,0,0,0,4.06,4.27C647.86,331.44,649.56,329.32,650.07,326.44ZM395,20.42c-.47-2.75-2.33-4.73-4.52-4.76a4.86,4.86,0,0,0-4.85,4.74c-.17,3,2.52,4.21,4.53,4.23C392.31,24.65,394,22.56,395,20.42ZM649.15,399.15c-.59-2.32-1.89-4.55-4.16-4.36a5,5,0,0,0-4.62,5c-.06,2.88,2.19,4.22,4.62,4.22C647.85,404,648.38,401.31,649.15,399.15ZM104.19,22c-.29-2.65-1.88-4.68-4.22-4.81a5,5,0,0,0-5.24,4.35c-.27,2.73,2,4.59,4.73,4.68S103.54,24.42,104.19,22Zm142.59-.73c-1.3-2.16-2.49-4.45-5.46-4.21-2.44.2-3.94,1.67-3.82,4.23a4.13,4.13,0,0,0,4.42,4.29C244.34,25.47,245.89,23.6,246.78,21.23Zm-231.06,626A4,4,0,0,0,20,651.51a4.5,4.5,0,0,0,4.08-4.74c-.09-2.71-2.11-5.24-4.23-5.25C17.18,641.51,15.65,644.19,15.72,647.24Zm623.77,73.5c3.1-.41,4.43-2,4.41-4.73s-1.51-4.55-4.12-4.62c-2.81-.07-3.94,2.32-4,4.67S637.05,720.44,639.49,720.74ZM317.5,16.89c-2.41.53-4.5,2.29-4.3,4.86a4.44,4.44,0,0,0,4.85,4,4.89,4.89,0,0,0,4.24-5.17C322.2,18.59,320.42,16.79,317.5,16.89ZM636.38,616.12c1,2.18,1.75,4.67,4.51,4.79a4.6,4.6,0,0,0,4.67-4.33,4.55,4.55,0,0,0-4.18-4.71C638.61,611.61,637.65,614.13,636.38,616.12ZM642.49,466c-2.31.63-3.14,2.52-3.2,4.77-.06,2.42.48,4.94,3.44,5,2.38.06,3.78-1.66,4-4.17C647.06,468.55,645.19,467.17,642.49,466Zm-4.2,319.09c-2.38.69-3.91,2-4,4.55-.05,2.78,1.6,4.72,4.06,4.78,2.77.08,3.78-2.75,3.91-4.94S640.37,785.89,638.29,785.11ZM20.57,361c2.54-.94,4.26-2.7,4.23-5.42a4,4,0,0,0-4-4.26c-3.05,0-3.92,2.7-4.08,5.2S18.2,360.39,20.57,361Zm1.85,425.06c-.15-2.66-1.39-4.76-4-5-2.93-.23-4,2.36-4,4.65s1.32,4.66,4.2,4.66C21.23,790.42,22.14,788.41,22.42,786.08Zm0-651.28c-2.22,1-4.07,2.27-4.28,4.94-.18,2.48.87,4.47,3.4,4.62,2.84.18,4-2.12,4.21-4.55S24.74,135.75,22.47,134.8Zm-1.68,146c-2.1,1.19-3.91,2.81-4,5.52a3.62,3.62,0,0,0,3.93,4.08c2.93,0,3.89-2.29,3.94-4.76S23.43,281.59,20.79,280.78Zm4.1,219.36c.05-2.79-1.3-4.79-3.85-5-2.77-.25-3.32,2.32-3.55,4.44-.25,2.32.72,4.69,3.09,4.91C23.14,504.71,24.67,502.73,24.89,500.14Zm0-287.35c-.15-2-.78-4.38-3.35-4.46-2.77-.08-4,2.37-4,4.83s1.21,4.41,3.76,4.42S24.91,215.62,24.9,212.79ZM15.68,715.16c0,2.76,1.57,4.53,4.16,4.54a4.07,4.07,0,0,0,4-4.29c-.07-2.67-1.73-4.78-4.72-4.76C16.34,710.68,15.64,712.72,15.68,715.16ZM642.32,548.09c2.31-.72,4.22-2,4.34-4.67a3.83,3.83,0,0,0-3.56-4.12,4.41,4.41,0,0,0-4.72,4.1C638.18,545.77,640,547.23,642.32,548.09Zm5.43-360.84a5.1,5.1,0,0,0,3.8-5c0-2.15-1.71-4.34-4.09-4.06s-4,2.21-3.86,4.94C643.69,185.69,645.11,187,647.75,187.25Zm-623,241.48c-.4-2.24-.74-4.63-3.77-4.89s-3.34,2.37-3.51,4.3c-.2,2.14.52,4.53,3.24,4.67C23.17,432.93,24.57,431.34,24.73,428.73ZM649.12,114.41c2.54-.63,4-2.24,3.89-4.62a3.85,3.85,0,0,0-4.3-3.9,3.68,3.68,0,0,0-3.43,4.13C645.55,112.13,646.52,114.19,649.12,114.41Zm-161,756.3c1.62-1.34,3.81-2.39,3.65-4.88a3.69,3.69,0,0,0-4.17-3.42,3.9,3.9,0,0,0-3.9,3.84C483.74,868.75,485.89,869.69,488.11,870.71ZM24.59,572.19c-.31-2.24-1-4.42-3.62-4.66-2.91-.25-3.72,2.34-3.78,4.31s1,4.31,3.8,4.33C23.53,576.19,24.3,574.38,24.59,572.19ZM20.91,855.4c.28-2.63-1.6-4.5-4.43-4.93a2.58,2.58,0,0,0-2.5,3.09c.69,2.42,1.2,5.49,4.46,5.88C20.72,859.71,20.93,857.8,20.91,855.4ZM118,865.81c-2.23.45-4.33,1.15-4.26,3.85.06,2.44,2.07,3.27,4.11,3.37,2.35.12,4.34-1,4.54-3.51C122.61,866.61,119.86,866.62,118,865.81ZM561.8,867.4c-.88-2.06-1.64-4.22-4.48-3.85-2.24.28-3.16,1.88-3,3.88.17,2.26,1.56,3.84,3.95,3.52A3.76,3.76,0,0,0,561.8,867.4Zm-517.33-.24c-1.88.87-3.92,2.15-4.08,4.3-.13,1.62,1.25,3.92,3.37,3.27s4.66-1.62,4.64-4.32C48.39,868.47,46.63,867.41,44.47,867.16Zm150,2.85c-.58-2.07-1.4-4-3.85-3.94-2.61,0-3.94,1.88-4,4.23s1.72,3.25,3.72,3.07S194.31,872.63,194.43,870Zm68.41-4.28c-1.91.53-4,1.07-4,3.54a3.59,3.59,0,0,0,3.77,3.76c2.52.06,3.81-1.93,4-4.18S264.69,866.12,262.84,865.73Zm148.07,2.44c-.56-1.75-1-4.1-3.23-3.73a4.08,4.08,0,0,0-3.52,4.24c.15,2,1.52,3.74,3.41,3.8C410.09,872.56,410.38,870.12,410.91,868.17ZM538.11,20.59c1.78-.47,2.85-1.62,2.61-3.54a4.34,4.34,0,0,0-4.18-4.16c-1.91-.11-2.42,1.54-2.34,3.12A4.61,4.61,0,0,0,538.11,20.59ZM338.66,867.93c.11-1.78-.85-2.68-2.32-2.69a3.23,3.23,0,0,0-3.42,2.91c-.23,1.45.27,2.76,1.94,2.81A3.62,3.62,0,0,0,338.66,867.93Z" transform="translate(-8.54 -2.64)"/><path d="M262.75,233c4.5,2.72,5.51,5.52,5.69,9.45.77,17.09,2.2,34.15,3,51.24.71,15.11,2.53,30.19,1.9,45.37-.1,2.51-.94,3.65-3.46,3.75-4,.15-8,.35-12,.73-3.67.35-5.25-1.3-5.29-4.83-.06-6-3.08-11.57-2.62-17.66a2.9,2.9,0,0,0-.58-1.86c-2.17-2.73-12.93-.9-14.32,2.31-1.08,2.49.39,3.61,2.24,4.05,6.42,1.5,7.36,6.59,8.7,11.9,1.87,7.38,3,14.6.92,22.14-2.16,7.76-7.82,12.33-15.76,12.31-1.66,0-3.33,0-5,0-13.32,0-19.21-5.74-19.07-19.44a132.27,132.27,0,0,0-2.55-28.72,18.61,18.61,0,0,0-1-3.35,2.3,2.3,0,0,0-2.42-1.39,2,2,0,0,0-2,1.9,25.7,25.7,0,0,0-.13,5.47c1.58,12.54-6.89,26.76-22.09,29.07a15.85,15.85,0,0,1-11.81-3C157.09,346.84,153,339,152.33,329c-.7-9.76-2.91-19.42-3.44-29.18-.78-14.33-5.23-28.58-1.15-43.07.91-3.21-1.14-4.42-4-3.68a46,46,0,0,0-7.41,2.92c-2,.9-3.36,2.43-2.73,4.76,3.09,11.43.48,22.41-2.71,33.29-.52,1.75-.22,2.15,1.1,2.94,6.66,4,9.43,10.24,10.71,17.63,1.58,9.14,4.82,18,4,27.53-1,11-12.6,23.94-23.63,25.26a32.87,32.87,0,0,0-10.47,2.93c-3.79,1.81-7.78,1.51-11.77,1.57-1.82,0-2.57-.86-3.11-2.54a75.75,75.75,0,0,1-3.39-18.57c-.83-13.3-3.84-26.3-6.22-39.38-1.31-7.21-2.33-14.47-3.69-21.66-2.79-14.72-4.69-29.58-6.89-44.39-.43-2.91.18-5.66.38-8.42.22-2.95,2.7-4.35,5.78-4.09,2.63.23,5,.6,2.7,4.14-.48.73.31,1.23,1,1.24a3,3,0,0,0,3.16-2c.76-2.63,1.64-5.23,4.41-6.19,3.63-1.25,7.51-3,11.24-1.39,2.17.91,2.63-2.95,4.63-.85s7,.41,6,6.16c-.24,1.4,4,4.58,6.67,5.24,3.92,1,5.82,3.49,7.33,6.52,1.41,2.81,3,2.63,5.15,1.18,10.81-7.2,22.84-12.07,34.39-17.82,2.88-1.44,3.74-3,3.45-5.66-.56-5.24-2.13-10.53,1.39-15.42a2,2,0,0,0,0-1.87c-3.29-3.64-1.13-6.91-.45-10.91,1-6,3.72-13-1.66-18.83-.88-1-.15-2.23.32-3.3,3.14-7.14,3.7-14.25.07-21.44-1.08-2.13-.09-4.24.66-6.27,3.85-10.55,3.28-21.28.53-31.83-1-4,.17-5.34,3.55-5.65a95,95,0,0,1,10-.15c4.56.09,9-.19,12.85-3,1.42-1,3.39-1.5,4.77-.71,5.65,3.2,10.63.28,15.69-1.44a29.7,29.7,0,0,1,18.08-.54c2.23.62,3.06,1.64,2.54,3.9-2,8.8,0,16.36,5.47,23.75C258.29,144.14,270,157.42,285,167.33c15.64,10.32,32.25,18.6,51.13,21.12a42.36,42.36,0,0,0,25-4.26,143.6,143.6,0,0,0,28.68-18.52c9.38-7.67,18-16.27,24.39-26.78a20.33,20.33,0,0,1,5.35-6c1.71,4.9-2,8.22-4.09,10.27-4.84,4.71-7.16,11.16-12.19,15.6-3.09,2.73-5.68,6-8.54,9-.7.73-1.7,1.45-1.14,2.48.7,1.3,2.06.84,3.11.42,4.15-1.66,8.28-3.21,11.43-6.8a31.21,31.21,0,0,1,8.35-7c6.79-3.62,8.21-9.62,8.2-16.34,0-4.48,2.58-9.22-1.11-13.44-.22-.25-.08-1,.13-1.43,3.12-6.32,1.91-12.65.09-19-.86-3,1.46-3.46,3.37-3.68,2.63-.31,5.32-.11,8-.17,1.83,0,3.93.37,5.44-.36,12.08-5.9,26-1.82,38.15-7.18,3.69-1.62,7.12.89,10.66,1.47,1.81.29,1.92,2.16,1.22,3.68-1.94,4.17-1.43,8.33-.73,12.7.45,2.85-1.15,6-.58,8.83,1.88,9.26-.32,18.4-.24,27.59,0,4.92,2.31,8.93,3.66,13.33.48,1.57,1.21,3.44.77,4.85-2.5,8.1-1.54,15.93,1.13,23.72a1.48,1.48,0,0,1,.1,1c-3.74,8.2-1.05,16.25.31,24.4.4,2.44,1,3.7,3.42,4.69,7.05,2.91,14,6.21,20.89,9.39,2.14,1,4.48,2.26,6.59,1,2.33-1.41,1.83-4.24,1.32-6.43-1.12-4.78.38-5.65,4.82-4.24a94.06,94.06,0,0,0,11.72,2.43c3.17.56,4.86,1.89,3.86,5.44-.58,2.07-.76,4.24-1.15,6.37-1.37,7.63-1.18,7.88,5.53,11.95,1.68,1,4.47,2.08,3.12,4.83-1.19,2.42-3.45,1.18-5.29.44-5.45-2.19-11.28-2.5-17-3.36-3.2-.48-5.88-.77-7.73-4.21-2.46-4.61-7.62-5.69-12.19-7.11s-9.54-2.41-14.31-3.61a3.32,3.32,0,0,0-3.66,1c-2.82,4-6.78,6.15-11.39,7.36A2,2,0,0,0,482,244c5.09,1.32,9.66,1.85,14.13,3.67,7,2.84,9.72,8.4,11.84,14.8,2.52,7.6.38,15.2.09,22.79-.41,10.95-5,21.44-3.68,32.6.19,1.48-.31,3.35.43,4.41,6.66,9.61.57,17.8-3.29,25.75-4,8.18-13.81,8-18.23.23-1.73-3.06-3.5-3.06-6-1.22-6.85,5.11-13.1,3.42-16.35-4.6-3.11-7.65-3.62-15.83-4.25-23.94-.43-5.46-3.11-7.46-8.46-5.87a24.09,24.09,0,0,0-5.45,2.46c-3.47,2.09-7,2.9-10.93,1.48-1.22-.44-2.74-.9-3.46.76s.72,2.24,1.67,3.19c3.23,3.24,7.91,3.12,11.76,5s5.8,4.08,7.05,7.61c3.2,9.06,4,18.38.49,27.36-3.71,9.61-10.59,12.81-21.28,11.23a19.82,19.82,0,0,1-16.42-16.59c-.42-2.95-1.21-5.85-.93-8.91.26-2.9-1.26-4.24-4.22-4.19-5.16.09-10.33,0-15.49,0-6,0-7.61-1.13-7.51-7.13.1-5.58-1.52-10.84-1.83-16.31-.14-2.71-.41-6.22-4.35-6.14-3.61.07-5,2.76-5.33,6.1-.56,5.95-3.09,11.55-2.87,17.69.11,3.16-2.3,4.46-5.34,4.77-5,.52-9.93-.86-14.93-.92-3,0-3.26-2.82-3.64-5.16-1.73-10.72.16-21.24,2.58-31.54,1.61-6.83,2.15-13.78,3.6-20.56,4.25-19.85,5.78-40.13,10.05-60,1.75-8.14-1-11-9.38-11.07-25.82-.24-51.4,3-77,5.38-8.38.77-8.45,1.16-8.4,9.46C266.68,229.37,267.53,232.41,262.75,233Zm133.16-8.36c1.79,18.07,5.07,38.1,6,58.34.5,10.85,3.64,21.28,4.57,32.05.55,6.29-.2,12.66,1.13,18.9.31,1.43.39,3.32,2.36,3.3a3.2,3.2,0,0,0,3.11-3.29c.17-3.15,0-6.32,0-9.48-.14-5.54.18-11.16,2.71-16.06a17.33,17.33,0,0,0,1.46-11c-2.48-17.12-2.71-34.21,2.63-50.77,2.62-8.13,3.94-15.94,2.51-24.35-.51-3-1.35-4.6-4.6-5.37-4.81-1.14-9.64-.22-14.41-.91C395.82,214.91,395.81,215,395.91,224.67Zm-93.72-38.82c1.17.11,2.51.29,2.9-1.18s-.72-1.95-1.86-2.49a135.79,135.79,0,0,1-28.14-17.59c-4.21-3.49-9-6.6-12.26-10.86-6.1-8-14-14.68-17.73-24.38a2.51,2.51,0,0,0-2.72-1.79c-1.51.25-1.56,1.69-1.31,2.79,1.44,6.42.39,12.93.85,19.38.23,3.08,1.67,5.31,4.25,7.43,9,7.39,18.37,14,28.89,19.05C283.77,180.36,292.63,184.07,302.19,185.85Zm172.38-17.44c-.48-9.54,1.51-19.32-2.27-28.55-.94-2.29-.4-6.26-3.62-6.45-2.38-.14-3.62,3.11-4.74,5.26-.65,1.25-3.67,2.45-1.59,3.86,2.82,1.9,2,4.31,2.09,6.61.13,8,.35,16,0,24-.17,3.78,2.32,7,1.56,10.72-1.49,7.44,1,14.83.35,22.29-.24,2.68,1.92,3.56,4.37,3.67,3,.13,3.11-1.82,3.06-4C473.48,193.33,475.33,180.9,474.57,168.41ZM291.21,194.72c2.5-.18,5-.32,7.47-.56.79-.08,1.76-.24,1.87-1.29a1.65,1.65,0,0,0-1.5-1.7c-4.35-.75-7.91-3.42-12-4.81a128.24,128.24,0,0,1-39.2-22.07c-1.07-.87-2.05-2.72-3.73-1.56-1.49,1-1.57,2.9-1.18,4.57.84,3.56,1.76,7.1,2.72,10.63.63,2.28,2.31,3.37,4.47,4.27,4.76,2,9.81,3.14,14.51,5.09A106.15,106.15,0,0,0,291.21,194.72Zm-64.42-21h-1.41c0-6.3.27-12.61-.11-18.89-.21-3.58-.64-7.29-2.33-10.63a3.15,3.15,0,0,0-4.11-1.83c-1.81.57-1.71,1.86-1.69,3.54.13,14.08,0,28.15.1,42.23,0,6,.54,11.92.79,17.88.07,1.83.54,3.31,2.58,3.66,1.89.33,3.65.17,4.92-1.56a7.8,7.8,0,0,0,1.32-5.14C226.72,193.18,226.79,183.43,226.79,173.68Zm-24.65,7.78c0-2.16.07-4.33,0-6.48-.07-1.66-.11-3.52-2-4.2-2.29-.81-3.55,1.18-4.26,2.55-2.51,4.81-5.41,9.61-2.81,15.51,1.3,2.95.64,6.24.53,9.39-.17,5-.25,10,.94,14.88.41,1.71.11,4.16,2.82,3.75,2.17-.34,4.89-.49,5.37-3.55a34.93,34.93,0,0,0,.31-4.46C203.22,199.7,202.73,190.58,202.14,181.46ZM451.9,152.82c-.42.24-1,.38-1.24.75-2.93,5.58-11.72,7.84-8.36,17.19,1.62,4.53,0,10.18.07,15.32.07,4.63.33,9.27.72,13.88.19,2.13,1.37,3.95,3.82,3.73,1.52-.13,3.68-.49,3.29-2.82-1.23-7.45-.56-14.93-.06-22.33.54-7.81-3.46-16.28,3-23.4C454,154.18,453.73,152.9,451.9,152.82Zm-63.5,38.74c2.63,1.88,5.26,3.1,8.28,3.05,7-.11,13.79,1.37,20.45,3,3.77.92,4.7-.68,5-3.26.47-4.43.06-8.92.88-13.37.36-1.95-.47-3.28-2.9-2.25C409.66,183.13,399.87,189.15,388.4,191.56Zm35.5-28c-.39-1,1-2.9-.66-3.7s-2.53,1.16-3.73,1.91a15,15,0,0,0-2.62,2.29,70.87,70.87,0,0,1-20.09,14.16c-1.09.52-2.26,1.18-1.92,2.53.43,1.71,2,1.53,3.29,1.27,3.28-.63,5.88-2.87,9.12-3.81,5.7-1.67,10-6,15.21-8.78C424.51,168.35,424,165.93,423.9,163.56ZM245.92,191c-1,4.15,3.53,6.22,4.1,10,.13.83,2.14,1.19,2.63.66,3.91-4.26,9.32-1.92,13.86-3.33,1.24-.39,3-.1,3.2-1.69.31-2-1.72-2.52-3-2.64-6-.58-10.84-3.78-16-6.33C247,185.71,245.47,186.61,245.92,191Zm-44.67-33.5c.3-4.31-.26-8-2.63-11.26-1.54-2.15-2.48-1.82-3.29.46a45.71,45.71,0,0,0-2.41,20.45c.1,1,.09,2.1,1.24,2.47a2.83,2.83,0,0,0,3.35-1.54C199.51,164.64,202.15,161.42,201.25,157.45Zm172.36,41.26c-2.61-.31-4.14.85-5.22,3.08-.72,1.48.07,2.23,1.08,2.85,1.71,1.07,3.25,3.34,5.64,1.39,1.81-1.47,3.71-1.15,5.68-.65s4.14,1.26,6.26,1.6c1.69.26,3.56-.15,4.21-1.94.74-2-1.39-2.32-2.54-3.06C384.06,199,378.37,201.13,373.61,198.71ZM437.42,233c-3.43-.78-6.44.33-8.38,3.87-1,1.77.12,3.08,1.45,2.52,4.77-2,9.2-.19,13.74.56,2.16.35,2.93-1,3.48-2.71.62-2-.39-2.6-2.08-3.12A18.89,18.89,0,0,0,437.42,233Zm11.77-83.23c-.41-2.93-.81-5.87-1.26-8.79a2,2,0,0,0-1.87-1.95,1.83,1.83,0,0,0-2,1.15c-1.71,4.31-3.32,8.65-2.14,13.4.26,1.06.62,2.73,2.1,2C446.48,154.39,449.37,153.32,449.19,149.73Zm-329,177.68c-.1-4.4-1.54-8.32-2.75-12.29a2.38,2.38,0,0,0-3.06-1.84c-1.62.42-1.77,1.7-1.55,3.18.57,3.77.9,7.58,1.63,11.32.36,1.85.84,4.47,3.35,4.26C120.51,331.82,119.83,329.08,120.19,327.41ZM172,242.57c2.82,1.3-.2,5.78,3.25,6.29,3.25.47,6,1.28,8,4.08a1.1,1.1,0,0,0,1.72.11c.25-.27.39-1.08.2-1.27C181.45,247.9,179.27,241.91,172,242.57Zm4.71,57c-.8-1.74,1.35-5.5-2.81-5.42-2.8.06-3.24,2.61-2.68,4.86.51,2.06-.89,5.7,3.28,5.35C177.33,304.1,177.11,301.84,176.73,299.54Zm47,23.19c1.63-.68,4.58.85,5.17-2,.4-1.89-1.77-2.69-3.44-2.56-2.1.17-4.6.72-5,3.15C220.21,323.26,222.33,322.49,223.7,322.73Zm208.07,25.39c-.4-1.82-1.75-2.63-3.47-3-1.28-.26-2.32-.09-2.56,1.49-.33,2.25,1.14,2.9,2.89,3.24C430.07,350.13,431.26,349.81,431.77,348.12ZM108.11,270.77c-1.21.15-2.63.18-2.58,1.73a3.88,3.88,0,0,0,3.4,3.69c1.62.28,1.86-1.62,1.94-2.8C111,271.61,109.81,270.77,108.11,270.77Zm373.33,13.11c-2.81-.89-5.34-.95-7.75.81-.18.12-.07,1.11.1,1.18a8.34,8.34,0,0,0,7-.68C481,285.08,481.09,284.66,481.44,283.88Z" transform="translate(-8.54 -2.64)"/><path d="M105,391.7q31.89,1.23,63.77,2.43c9.81.36,19.63.68,29.44.88,25.94.51,51.88,1.29,77.82,2,30.07.78,60.11,2.06,90.2,2.31,31,.26,61.91,1.23,92.84,2.56,19,.82,37.94.55,56.87,1.46,18.27.88,36.55.21,54.81,1.58a210.82,210.82,0,0,0,25.88,0c5.11-.25,6.47,1.89,6.27,6.41-.64,14-.72,28-1.88,41.86-1,12.32-.09,24.65-1.25,36.95-2.09,22.18-2.31,44.47-3.3,66.72-.5,11.08-.16,22.22-1.13,33.25-1.57,17.92-1.18,35.9-2.39,53.81-1.12,16.61-.73,33.23-1.12,49.84a47.11,47.11,0,0,1-1.31,8.38c-.55,2.6-2.38,3.42-5,4-11.15,2.57-22.23-.31-33.35-.1-15.14.27-30.33.28-45.44-.6-21.43-1.26-42.9-2.24-64.32-2.16-17,.06-33.9-.94-50.87-.52a269.33,269.33,0,0,1-39.83-1.59,22.93,22.93,0,0,0-2.49-.11c-31.49-.21-63,.1-94.46-.79-26-.73-52,.31-77.94-.71q-44.19-1.74-88.37-1.68a15.44,15.44,0,0,1-4-.28c-2.68-.72-4-2.5-1.5-4.58,3-2.49,3.34-5.52,3.24-9-.33-11-1-22.07-.53-32.92.88-21-1.49-41.85-.08-62.82.68-10.21-.48-20.59,0-30.91.61-12.78-.21-25.6,0-38.34.38-21.06-.41-42.15.78-63.15.93-16.28.28-32.57,1.37-48.83.26-3.89,1.43-7.68.3-11.78-.77-2.81,2.21-3.31,4.39-3.38,4.16-.13,8.32,0,12.49,0Zm386,159c-7,.53-14.62-.5-22.19-1.53-2.08-.29-4-1.17-4.37-3.47s1.68-3.36,3.3-3.9c6.49-2.19,11.84-6.61,18.29-8.92,9.87-3.54,12.44-8.27,10.57-18.59-.57-3.17-.28-5.75,2-8.28,3-3.31,2.33-4.93-1.87-6.91-2.07-1-4.66-1.24-5.87-3.53-2-3.74-5.35-4.07-8.59-2.84-9.93,3.76-20.36,6.14-30,10.73-5.22,2.49-8.15.69-8.33-5.26-.19-6.14.27-12.27-.76-18.43-1.08-6.41-2.51-7.54-8.27-4.27s-11.68,5.65-17.57,8.36c-4.78,2.2-6.44,1.06-5.73-4.27.83-6.27,2-12.48,3.11-18.71,1.82-10.67-.83-18.6-8.34-22.69-15.11-8.24-28.24-19.22-41.86-29.53A27.76,27.76,0,0,0,349.38,403c-8.65-.7-17.3-.44-25.95-.69-24.6-.72-49.2-1.65-73.8-2.33-10-.28-20-.08-29.93-.2-2.11,0-4.4-1.11-5.64,1.64-1,2.31.2,4,1.33,5.95,4.09,7.11,10.29,12.64,14.58,19.53,12.82,20.62,27.36,40,41.46,59.75,11.78,16.46,26.05,31.08,36.25,48.73,2.52,4.37,5.38,8.58,9.6,11.32,14.22,9.22,29,17.66,42.23,28.3,5.83,4.65,12.25,8.62,18.14,13.08,4.94,3.73,9.73,7.87,14.87,11.43A413,413,0,0,0,432,623.73c8.87,4.78,15.21,12.26,19.45,21.42,8,17.22,23.09,30.69,26.34,50.43.4,2.44,2.54,4,5.56,4.15,18.92.72,37.84,1.6,56.77,2.38,3.64.15,7.3.22,11,.22,10.1,0,20.2-.09,30.24-1.4,2.77-.36,3.4-2.31,3.49-4.66q1.65-42.79,3.26-85.6c.16-4.16-.15-8.34.1-12.49.13-2.15-2.42-3.7-.9-6.11,1.67-2.63,1.48-5.72,1.58-8.72.22-7.32-.2-14.76,1.08-21.9,1-5.4-1.9-6.82-5.3-6.49-7,.68-14.24,1-20.93,4-3.7,1.64-4.53,4-3.15,7.57,1.63,4.21,3,8.39,1.76,13.07-.8,3,.71,5,3.73,6,5.22,1.71,10.38,3.59,15.6,5.3,1.66.54,3.43.88,3,3.16s-2.37,2.31-4,2a86.46,86.46,0,0,1-9.66-2.45c-5.47-1.71-10.7-4.64-16.64-1.11-1.56.93-3.79.23-5.78-.49-8.59-3.1-10.7-1.32-9,7.61,2.24,11.76,2.45,23.8,5.06,35.5.42,1.91.48,4.17-1.33,5.55-2,1.54-3.66-.26-5.48-.95-7-2.67-11.63-8.76-18.16-12.07-2.07-1-4.21-2.68-6.49-1s-2.43,4.27-2.14,6.82c.46,4,1.27,7.91,1.54,11.88.75,11.2.77,10.84-10.17,7.81-9.48-2.63-12.65-5.21-19,6.83-1.36,2.55-3.9,4.51-6,6.63a1.93,1.93,0,0,1-2.73,0,1.56,1.56,0,0,1,.18-2.57c4-3.38,5.24-8.41,7.6-12.76,3.82-7.06,6.32-8.2,14.05-6.19,1.45.38,2.86.94,4.33,1.19,3.61.6,5.83-.88,4.85-4.65-1.66-6.38-.91-12.94-1.87-19.35-.29-1.94-.92-4.3.91-5.61s4.07-.36,6.14.53c6.71,2.89,12.74,6.94,18.85,10.86a5.78,5.78,0,0,0,5.17,1c2.29-.79,2-2.89,1.8-4.67-.58-6.77-.89-13.58-2.65-20.21-1-3.89-1.63-7.8.85-11.56,1-1.47,3.52-2.71,1.63-5.09s-4.32-3.69-7.44-2.86c-2.25.61-4.48,1.29-6.66,2.11-6.58,2.45-8.07,1.58-10.09-4.94-1.82-5.9-1.26-11.88-1.47-17.85-.38-11.13-2.73-13.36-13.74-13.29C495.28,550.67,493.44,550.65,491,550.65ZM102,396c-2.17,0-4.34-.11-6.5,0-3.7.22-5.86,3.55-5.1,5.93,1.79,5.69.4,11.21.56,16.77.3,10.3.17,20.6.09,30.9-.07,9-.14,17.94-.51,26.9-.42,10.29,1.64,20.58-.16,30.88a6.46,6.46,0,0,0,3.24,6.38c9.62,6.07,18,14,28.22,19.1,14,6.95,26.89,15.87,40.15,24.06,8.69,5.37,17.17,11.21,25.72,16.84,11.32,7.48,22.34,15.38,33.59,22.94,5.94,4,11.75,8.16,17.72,12.09,3.84,2.53,7.71,3,11.2-.84,4.54-5,10.12-8.92,14.34-14.29,7.78-9.9,17.52-18,25.88-27.39,3.77-4.24,6.71-9.19,11.38-12.86,5.78-4.54,6.52-8,3.69-12.36-5.1-7.74-10.52-15.3-16.14-22.67-6.24-8.18-13.12-15.87-19.23-24.12-8.38-11.33-16-23.21-24.51-34.46-9.88-13.14-18.2-27.34-28.29-40.35A212.66,212.66,0,0,0,201.88,402c-2.06-2.13-4.75-2.82-7.75-2.8-14.62.13-29.17-1.41-43.81-1.31C134.21,398,118.09,397.16,102,396Zm279.42,301.9v.06c4.84,0,9.67.05,14.5,0,1.89,0,4.26.78,5.35-1.57,1-2.16-.24-4-1.1-6.09-2.46-5.88-7.91-9.38-11.12-14.62-.79-1.28-2.93-2.6-1.23-4.24s3.42,0,4.78,1.14a59,59,0,0,1,15.06,20.24c2,4.31,4.92,6,9.33,6s8.67-.07,13,0c10.74.3,11.74.16,6.6-11-2.5-5.43-4.88-10.93-7.21-16.44-.57-1.36-1-3.16.74-3.94,1.55-.67,2.34.81,2.92,2,1.7,3.56,4.07,6.7,5.4,10.58a49.51,49.51,0,0,0,8.36,15.81c1.38,1.66,2.79,2.87,4.94,2.86,5,0,9.86,1,14.89.16,3.5-.55,4.39-1.85,4-5.26-.9-7.94-4.85-14.45-9.15-20.8-5.29-7.82-11.21-15.31-14.89-24.05-4.35-10.33-11.79-17.74-21.33-22.81-9.39-5-18.46-10.46-27.3-16.29-8.54-5.63-17-11.35-25.12-17.68-6.16-4.81-12.48-9.64-18.77-14.38a294.64,294.64,0,0,0-35.95-23.33c-3.46-1.89-6.46-1.22-10,1.43-6.41,4.86-10.9,11.56-17.23,16.41a30.55,30.55,0,0,0-4.9,4.88c-8.51,10.36-18,19.86-27.3,29.47-5,5.13-8.63,10.48-6.2,18.48,2.63,8.62,6,16.9,9.32,25.23a22.82,22.82,0,0,0,9.81,11.56,160.21,160.21,0,0,0,19.64,9.64c10.31,4.33,20.2,9.41,25.54,20.2,1.95,3.94,5.35,5.7,9.8,5.64,6.66-.07,13.32-.09,20,.06,4.32.09,5.2-1.69,3.92-5.58a39.05,39.05,0,0,0-7-12.57c-.65-.81-1.14-1.74-.31-2.67s1.82-.65,2.73-.11a8.87,8.87,0,0,1,3.26,3c2.66,4.41,5.74,8.61,8,13.23,1.9,3.91,4.73,5.33,8.69,5.36C371.11,697.89,376.27,697.86,381.43,697.86ZM168.3,620.12c5-.11,6.12,1.18,4.94,6.79a35.29,35.29,0,0,1-1,4.39c-1.52,4.41,1,5.71,4.62,6.21a18.35,18.35,0,0,0,4,0c4-.35,6.19,1,6.42,5.45.38,7.33,3.39,13.26,9.74,17.58,15.48,10.55,30.78,21.37,46.15,32.08a16.39,16.39,0,0,0,7.35,2.8,125.44,125.44,0,0,0,13.43.85c13.14.29,26.3-.91,39.43.71,2.4.29,5.42.22,6.47-2.56,1.17-3.07-.21-5.8-2.57-8-7-6.68-15.7-10.3-24.44-14-7.25-3.1-14.88-5.62-20.05-12.45-7.09-9.34-10.69-20.28-14.2-31.07A28.13,28.13,0,0,0,237.75,614c-1.75-1.26-3.64-2.36-5.28-3.75-11.3-9.56-24-17.19-36.24-25.34-18.39-12.22-37.38-23.56-55.76-35.8-13.83-9.21-29.24-15.62-42.8-25.29-4.79-3.42-7.3-1.67-7.37,4.2-.1,7.66,0,15.33-.07,23a10.06,10.06,0,0,0,2.14,6.46c5.07,6.78,9.4,14.22,15.13,20.38,7.73,8.32,12.65,16.91,9.47,28.64-.41,1.5-.93,4.2,1.38,4.73A7.2,7.2,0,0,0,124.5,610a24.11,24.11,0,0,0,2.29-2.63c5.94-6.63,11.61-13.52,18.27-19.49,1.34-1.2,2.64-2.24,4.38-1.41s1.35,2.6,1.2,4c-.82,7.92-1.42,15.87-3,23.7-1.25,6.38-.14,7.46,6.58,7.71C158.83,622.05,163,620,168.3,620.12ZM597,434c.37-7.89-1.91-9.38-7-6.91-6.25,3.06-11.25,8.57-18.28,10a28.21,28.21,0,0,0-14.11,8c-7.47,7.57-16,11.76-26.28,12.6a10.55,10.55,0,0,0-9.27,6.52,7.15,7.15,0,0,1-5.48,4.53c-8.39,1.53-13,6.55-15.79,14.6-3.88,11.06-4.38,10.84,7,13.41,2.67.61,6.54.58,6.88,3.81.29,2.79-3.35,3.75-5.59,5-5.86,3.33-7,5.48-5.79,12.16.23,1.31.43,2.63.72,3.93.83,3.68-.06,6.32-3.67,8.26-5.66,3-11.09,6.52-16.58,9.87-1.26.77-2.75,1.67-2.39,3.45.42,2.1,2.4,2,4,2.29a18.58,18.58,0,0,0,2.48.22c5.15.21,10.31.37,15.45.62,6.83.34,8,1.92,10.34,8.22s1.66,13.13,3,19.61c1,5,3,6.21,8,5.72s10-.9,14.86,2.28c3.18,2.07,7.72,3.89,11.62.41,4.45-3.95,6.18-9.12,3.94-13.31-7.06-13.18-.85-13.29,8.77-16.19.32-.1.67-.06,1-.15,6.72-1.92,13.83-1.88,20.5-4.28,4.56-1.63,6.56-4.48,6.92-9.21.6-7.78.39-15.61.5-23.37C593.09,487.89,596.92,459.84,597,434Zm-147,46.2a88.64,88.64,0,0,0,.08,10.48c.67,6.33,2.2,7.26,8.13,5.4q15.22-4.77,30.37-9.78c2.85-.93,6-1.9,7.13-5,2.79-7.9,8.06-12.85,15.87-15.85,5-1.93,6-5.84,3.65-10.62-3.21-6.69-4.62-13.88-5.67-21.11-.36-2.52-1.45-6.89,2.12-7.18,3.34-.28,3.18,4.11,3.35,6.72a52.78,52.78,0,0,0,4.2,16.33c1.3,3.23,3.64,4.36,7.08,4.26,8.7-.24,16.5-2.23,23.27-8.35a77.75,77.75,0,0,1,26.19-15.69A43.71,43.71,0,0,0,592.79,418c1.44-1.56,3.44-3.07,2.41-5.56-.93-2.21-3.27-2.14-5.2-2.3-19-1.59-38.11-2.24-57.19-2.7-24.52-.59-49-.84-73.56-1.75-26.76-1-53.54-1.07-80.31-1.52-1.57,0-3.61-.66-4.26,1.53-.61,2,.12,3.65,1.69,5.33,5.38,5.75,12.29,9.41,18.54,14,4.41,3.21,8.88,6.55,13.79,8.84,7.05,3.28,11.17,8.29,11.16,16,0,5.48.42,11-.69,16.43-.56,2.76-.79,6,1.73,7.89,2.32,1.74,4.89-.08,7-1.24,5.21-2.93,10.37-6,15.29-9.39,3.91-2.68,5.54-1,6,2.71C449.65,470.39,449.64,474.56,449.92,480.21ZM194.76,694.68v.57h9.45c8.65,0,17.32.58,25.95-.37,1.43-.15,3.24,0,3.53-2,.23-1.62-.71-2.61-2-3.66-4.56-3.63-9.6-6.51-14.38-9.78C208,673,199.15,666,189.92,659.49c-2.42-1.7-4-3.09-4.74-6.28-2.27-10-4.57-11.32-14.84-10.47-7.93.65-8.91-.47-7-8,.16-.64.48-1.24.7-1.86,1.82-5.18,0-7.29-5.33-6.41-4.1.68-8,2.19-12.29,2-5.19-.21-6.57-1.91-5.83-7.19.71-5.1,1.5-10.22,1.7-15.35.14-3.7-3-5.33-5.6-3-3,2.73-6.32,5.22-8.89,8.57-4.23,5.5-8.28,11.25-14.17,15.25-1.22.82-2.48,2.08-4,1.31s-.88-2.37-.86-3.63a37.12,37.12,0,0,1,1.13-9.83c3.16-11.16,4.87-22.35-4.67-31.67-3.63-3.54-5.14-9-10.55-10.94-3.57-1.26-5.14-.21-5,3.44.17,6.15.63,12.3.62,18.44,0,13.12-.52,26.25-.39,39.37.14,13.63.89,27.25,1.14,40.87.07,4-.73,7.85-.38,11.91.46,5.31,3.34,6.87,7.85,6.88,8.15,0,16.22,1.33,24.41,1,23-.9,45.93,1.26,68.91.72C192.76,694.66,193.76,694.68,194.76,694.68Z" transform="translate(-8.54 -2.64)"/><path d="M554.87,256.48c7.15,5.79,14.39,6.57,22.89,4.49-2.56,5,.16,5.17,3.65,5.19,8.48,0,13.69,5.46,14,14,.45,12.15-3.47,23.64-5.29,35.44-2.74,17.83-5.27,35.73-9.48,53.32-.55,2.29-1.47,3.1-3.64,3-2.49-.09-5,.07-7.48-.09-4.52-.31-8.12-1.59-7.81-7.29.06-1.24.61-3.47-1.4-3.81s-2.78,1.49-3.06,3.2c-.63,3.9-2.8,4.14-6.17,3.22-13.31-3.63-14.08-1-12.2-18.7.56-5.28-.21-10.57,1.09-15.87,2.17-8.82,4.67-17.54,6-26.61C548.41,289.59,551.79,273.34,554.87,256.48Z" transform="translate(-8.54 -2.64)"/><path d="M302.12,315.25c-1.78,6.94-1.54,13.91-1.46,20.84,0,3.27-.88,5.14-4.4,5.09a7.56,7.56,0,0,0-1.47.26c-11,2.17-13.53.24-14.56-10.7-1.25-13.36-.8-26.7-.52-40.09.26-12.54-1.09-25.12-1.64-37.68-.16-3.66,0-7.33,0-11,0-7.44.58-8.62,8-8.36,4.95.17,9.1-2,13.72-2.59a18.68,18.68,0,0,1,11,1.57c10.46,4.75,11.94,13.34,12.3,22.87.39,10.26.54,20.53.72,30.8.27,15.61,1.14,31.2,1,46.83,0,4.88-1.13,7.17-6.49,7.57-15.77,1.17-11.61,1.32-13.6-11.42C304,324.56,304,319.73,302.12,315.25Zm-.45-7.27c.74-.42.95-.47,1-.57,3.26-12.66-.56-25.38.25-38.07A1.58,1.58,0,0,0,301,267.6c-1.61.33-1.15,1.79-1.15,2.86,0,9.29-.15,18.58.09,27.87C300,301.5,301,304.64,301.67,308Z" transform="translate(-8.54 -2.64)"/><path d="M124.69,760.66a117.21,117.21,0,0,1,20.84,1.09c6,1,11.76,2.69,14,8.88,2.43,6.77,2,13.49-4.06,18.66-3.1,2.65-2.45,4.3.88,6.34,5.87,3.58,7,10,5.32,16.62-2.15,8.55-8.38,11.3-15.57,12-11.14,1.16-22.46,2.85-33.47-1.27a2.84,2.84,0,0,0-1.93-.21c-6.18,3.3-4.47-1.66-4.48-4.38-.09-17-.07-33.93-.07-50.89,0-6.79.07-6.86,7.07-6.89Zm6.55,35.74H128c-3.13,0-7.29.79-7.32,3.63-.06,4.4-2.3,9.25.94,13.43a3.8,3.8,0,0,0,2.15,1.14c6.76,1.33,13.49,1.57,19.92-1.43,2.85-1.33,5.14-3.4,4.7-6.89s-1.6-6.4-5.29-7.74C139.2,797.11,135.28,795.86,131.24,796.4Zm.8-10.1a40.66,40.66,0,0,0,6.44-.06c4.11-.66,6.14-3.62,7.11-7.41.9-3.56-2.13-4.68-4.23-5.92-5.68-3.38-11.75-2.69-17.74-.8-1.88.59-2.68,2.07-2.8,4.2C120.4,784,123.29,786.68,132,786.3Z" transform="translate(-8.54 -2.64)"/><path d="M538.91,818.14a43.71,43.71,0,0,0-.49,4.94c0,5.81-.59,6.49-6.46,6.64-7.23.18-8.67-1.34-8.41-8.23q.88-22.69,1.53-45.4c.27-9.46,2.41-11.52,11.63-10.9,8.11.56,16.23,1.18,24.36,1.4s14.39,4.17,17.52,11.19A16.31,16.31,0,0,1,575.77,796c-2.1,2.34-2.72,4.94-.82,7.67,5,7.15,2.77,15.92,5.41,23.6.33.94.08,2.4-1,2.51-3.93.41-8,1.44-11.77-.43-3.17-1.56-2.91-4.58-2.75-7.42a19.29,19.29,0,0,0-1.32-8.82c-2.07-4.81-5.33-8-11.06-7.52H552C537,805.44,539.89,805.09,538.91,818.14ZM553,794.81c1.19-.22,3-.47,4.76-.91a8.53,8.53,0,0,0,6.39-6.35c.94-3.34-1-5.57-3.15-7.82-3.78-3.85-8.45-3.39-13.05-3-5.75.52-8.47,3.9-7.59,9.67.41,2.69-.4,6.49,3.63,7.36C546.69,794.38,549.55,794.44,553,794.81Z" transform="translate(-8.54 -2.64)"/><path d="M347.56,762.46a39.62,39.62,0,0,1,19.83,4.4c5.72,3,8.87,7.81,10.37,13.93.53,2.17.15,3.41-2.32,3.91-7.14,1.42-10.56,0-14.12-6.35-1.53-2.71-4.15-3.78-6.85-4.63-11.91-3.74-24.59,3-25.71,17-.49,6.14-.74,12,1.92,18,4.54,10.11,23.73,11.26,30.41,3.26,1.6-1.92,2.52-4,1.72-6.4s-3-1.52-4.72-1.69c-7.39-.76-9.08-2.16-8.28-7,.41-2.46,1.57-3.74,4.25-3.94,7.52-.55,14.9,1,22.37,1.26a4.41,4.41,0,0,1,4.45,4.51c.06,3.15.59,6.4-.64,9.4a29.7,29.7,0,0,0-1.85,12.72c.11,2.58-.22,5.21-2.87,6.41s-5,.68-7.13-1.72c-2.72-3.1-5.93-.9-8.73.05a41.49,41.49,0,0,1-26.91.36,24.2,24.2,0,0,1-14.28-11.55c-7.86-13.79-6.63-27.73,1.41-40.17C325.69,765.23,336.16,762.07,347.56,762.46Z" transform="translate(-8.54 -2.64)"/><path d="M509.16,348.17c2.12-10,1.59-20.7,4.29-31.08,2-7.7,2.24-15.69,2.39-23.63a39.18,39.18,0,0,1,1.57-10.3,105.71,105.71,0,0,0,4.29-22.5c.14-2.21,1.17-4.15,1.67-6.2.7-2.9,1.86-2.77,4.2-2,4.23,1.37,8.59,2.37,12.9,3.49,3,.77,3.85,2.72,3.43,5.65-2.89,20.22-6.32,40.39-8.36,60.69-1.17,11.63-4.15,22.85-5.57,34.37-.42,3.46-1.87,4.73-5.28,3.87s-6.82-1.49-10.21-2.3C509.21,357,509.74,352.53,509.16,348.17Z" transform="translate(-8.54 -2.64)"/><path d="M245.9,804.2c0-12.77.09-25.55-.06-38.32,0-3.42,1.42-4.33,4.48-4.23,11.15.36,22.32.27,33.44,1a17.16,17.16,0,0,1,15.4,11c2.65,6.37,1.68,12.38-2.38,17.8-2.14,2.87-3.1,5-.81,8.73,4.2,6.83,4,15,4.75,22.75a2.64,2.64,0,0,1-1.46,2.86c-4.63,2.6-11.49-.19-12.51-5.26-.72-3.58-1.27-7.21-1.7-10.83-.4-3.34-2.36-5.42-5.1-6.91-4.75-2.6-10-2.78-15.1-2-4.08.59-5.54,3.82-5.67,7.71-.14,4.15-.29,8.29-.59,12.44-.44,6.16-4.58,5.08-8.24,5.14-4.28.07-6.08-2.52-5.63-6.46C245.3,814.5,245.06,809.36,245.9,804.2Zm25.43-13.79c1.66,0,3.33.09,5,0,5.42-.36,8.24-3.19,8.52-8.44.25-4.79-2.4-7.8-7.7-8.61a49.71,49.71,0,0,0-6.43-.67c-8.86-.21-11.89,3.42-10.44,12.33.53,3.23,2.37,5.07,5.59,5.36C267.67,790.53,269.5,790.39,271.33,790.41Z" transform="translate(-8.54 -2.64)"/><path d="M504.7,829.76c-4.58,1-6.88-2-8.38-6.44-2.68-8-3.65-8.62-12.09-8.77-3-.06-6,.2-9-.08-5.82-.53-8.93,2.52-10.82,7.54a10.52,10.52,0,0,1-15.27,5.71c-1.61-.9-1.5-2-.89-3.31,6.58-14.69,11.77-30,18.84-44.47,1.3-2.67,2.08-5.59,3.25-8.34,1.7-4,3.94-7.35,9-7.38,8.56-.07,11,1.13,13.13,6.86q9.57,25.35,19.07,50.72C514,828.31,512.8,829.83,504.7,829.76Zm-23.65-24.14c6.61,0,8.1-2,6.11-8.28-.9-2.85-1.91-5.66-2.88-8.49-.46-1.36-1.25-2.44-2.79-2.45a3.35,3.35,0,0,0-3.09,2.21c-1.13,2.58-1.67,5.52-3.19,7.82C471.45,802.16,475.63,806.13,481.05,805.62Z" transform="translate(-8.54 -2.64)"/><path d="M216.06,789.55a213,213,0,0,1,.92-23.42c.2-2.75,1.13-4.18,4.15-4.41,8.48-.65,8.86-.4,9.3,8.06.64,12.1,1.23,24.21,0,36.27-1.3,12.58-9.63,19.42-22.38,20.31a58.19,58.19,0,0,1-19.58-2.13c-6.84-1.85-11-6.35-12.2-13.14-2.38-13.18-1.61-26.49-.86-39.77a16.47,16.47,0,0,0,.3-3.46c-.81-5.09,2.37-6.39,6.37-6.74,3.81-.33,6.51.61,7.1,5.31,1.1,8.64.64,17.27.32,25.88-.2,5.3.45,10.52.37,15.78,0,1.95,1.23,3.37,2.55,4.71,4.81,4.86,10.8,4.25,16.37,2.68,5.23-1.48,7-6.32,7.26-11.44C216.23,799.22,216.06,794.38,216.06,789.55Z" transform="translate(-8.54 -2.64)"/><path d="M393,800.31c.35-10.31.27-20.62,1.12-30.91.35-4.23,2.64-6.25,7.37-5.94,3.7.25,6.17,1.39,6,6.06-.46,12.63.4,25.28-.55,37.92-.55,7.3,1.78,9.1,9.22,9.66,6.31.48,12.6.9,18.92.78,2.68,0,4,1,4,3.81s.53,5.94-3.31,6.79a12.94,12.94,0,0,1-4.47.22c-10.6-1.5-21.26-.68-31.89-.77-4.4,0-6.5-1.7-6.46-6.16C393,814.62,393,807.46,393,800.31Z" transform="translate(-8.54 -2.64)"/><path d="M215.13,85.18c-.3,2.38-1.19,4.33-4.53,1.79-1.71-1.29-5-.78-5-3.93,0-1.9-.42-4.74,2.66-4.93C211.15,77.93,215.19,82,215.13,85.18Z" transform="translate(-8.54 -2.64)"/><path d="M466.39,79.46c-.3,2.13-1.1,4.3-2.53,3.43-2.3-1.4-6.48-.31-6.8-4.49-.13-1.72.27-3.51,2.62-3.27A8.29,8.29,0,0,1,466.39,79.46Z" transform="translate(-8.54 -2.64)"/><path d="M46.52,644.2c1.16,2.84-.92,4.11-2.09,5.39a10.65,10.65,0,0,0-2.7,10.08c.29,1.36,1.07,3.5-.82,3.71s-1.43-2.21-1.66-3.5C38.07,653.09,41.34,648.37,46.52,644.2Z" transform="translate(-8.54 -2.64)"/></g></g></svg>