<svg xmlns="http://www.w3.org/2000/svg" viewBox="0 0 848.84 726.95"><title>cafe</title><g id="Layer_2" data-name="Layer 2"><g id="Layer_1-2" data-name="Layer 1"><path d="M1,202c1.77-3.69,1.9-7.64,2-11.65.72-22.43,8.61-41.88,26.33-56,8.8-7,19-12.55,31.11-12.57,4.4,0,8.73-1.63,13.29-1.47,10.85.37,20.87,2.55,30.72,7.85,11.1,6,19.65,14.44,28.11,23.22,2,2.09,3,5.13,4.48,7.76a2.51,2.51,0,0,1-.58,3.48c-3.2,3.08-6.21,6.37-9.15,9.71-3.22,3.67-1.08,8.67-3,12.83-1,2.24-1.23,4.69-4.26,4.41s-3.52-2.88-3.08-5.27c1.3-7-3.89-10.62-7.82-14.62-5.34-5.43-8.52-12.59-14.63-17.4-3-2.35-6.44-2.29-9.73-2.92-2.33-.45-3.19,2-3,3.73.74,9.17-2.08,18.16-1.1,27.32,1.78,16.77,1.41,33.6,1.38,50.42,0,9.49-.12,19-.28,28.48-.06,3.57.58,4.51,4.88,4,12.42-1.46,19.79-9.92,27.73-17.91,4.31-4.34,4.23-4.12,8.32.75a70.94,70.94,0,0,0,8.52,8.28c2.38,2,2.84,3.45.59,6.11-6.17,7.28-13.91,12.42-21.61,17.86-6.81,4.81-14.49,6.3-22,8.65-3.15,1-4.79,2.12-4.56,5.75.61,9.57.45,19.18.83,28.76.23,5.72,1.74,11.82-.45,18s.13,10,6.15,12.38c9.7,3.84,13.5,11.53,16.11,21,2.24,8.16-1,15.17-2.48,22.57-.89,4.57-4.49,7.79-8.33,10.21-3.29,2.08-2.3,3.28.27,4.73a46.46,46.46,0,0,1,18,18.67c2,3.7,4.13,7.26,3.53,11.66-.4,3,1.44,5.43,1.66,8.25a69.4,69.4,0,0,1-3.79,28.36c-2.33,6.67-7.18,12.36-12.67,17.39-10.08,9.23-22.13,12.61-35.26,13.31-4.06.22-5.53,2.3-4.63,5.81,3,11.67,1.16,23.51,1.37,35.26.08,4.25,1.67,8.11,1.77,12.25.17,6.69-1,13.28-1.49,19.92a8.22,8.22,0,0,0,.44,3.41c1.49,4.08.61,8,.22,12.17a118.31,118.31,0,0,0,.13,23.8c.54,4.85,2.6,9.55,2.21,14.64-.34,4.36,1.41,8.45,2,12.69,1.33,9.48.4,18.95,1.16,28.39a10.19,10.19,0,0,1-1.33,5.25c-.7,1.47-1.77,2.44-3.52,2.25-2.17-.24-2-2-1.92-3.41.37-7.24-.63-14.52.84-21.71.06-.32.21-.74.08-1C60.73,651,62.14,643.27,61.21,636c-1-8-3.15-15.75-2.63-24,.68-10.8.36-21.66.13-32.49-.15-7.21,1.37-14.4.07-21.62-2.42-13.48-1.48-27.12-1.84-40.7-.19-7.11-4.16-10.46-11.53-10.49-12.5,0-25,0-37.5,0-2.32,0-4.68.27-6.91-.69V347c11.46-.09,22.93-.3,34.39-.21,4.08,0,5.6-1.41,5.59-5.53,0-4.35-1.63-8.59-1.53-12.68.36-14.28-3.22-28.34-2.05-42.62a38,38,0,0,0,0-4,3.68,3.68,0,0,0-1.61-3.44c-8.53-5.08-15.51-11.57-20.1-20.6C9.48,245.77,2.35,234,3,219.6c.17-4,0-7.95-1.95-11.6Zm69.32-23.1c0-9.5,0-16.66,0-23.83,0-6.2-.81-6.32-7.13-5.43-5.78.82-6.85,3.48-7,8.86-.16,6.93.22,13.82.23,20.73,0,10.56-.94,21.08-1.39,31.61-.64,14.89,2,29.8-.19,44.74-.63,4.17,2.51,6.9,7.08,7.25,1.94.15,3.81-.1,5.68,1.24,3.65,2.61,5.3,1.65,5.62-2.73.9-12.38-.46-24.74-.67-37.1C72.29,208.35,69.46,192.54,70.32,178.9ZM48.28,310c-2,10.45,2.41,21.47,1.52,32.77-.25,3.21,1.83,3.89,4.48,3.88,5.82,0,11.64,0,17.47,0,1.49,0,3.57.13,3.9-1.49.91-4.44,2.09-9.06,1.66-13.46-.27-2.86-1-5.8-1-8.77,0-9.65,0-19.3,0-28.95,0-1.94.38-4.53-2.42-4.67-8-.41-15.53-3.3-23.43-4.14-2.71-.29-4.59.88-3.62,3.66C49.1,295.56,47.44,302.41,48.28,310ZM79.61,462.41a204.51,204.51,0,0,0-5.7-41,5,5,0,0,1-.12-3.38c1.26-2.87-.47-3.63-2.79-3.67-4.83-.07-9.66,0-14.48,0-1.73,0-3.52.39-3.54,2.63,0,5.32-.67,10.78.26,15.94a188.93,188.93,0,0,1,2.64,28.51c.14,5.22,2,10,2.06,15.17,0,2.21,1.84,2.88,4,2.73,3.47-.23,7-.32,10.44-.52,5-.28,7.18-2.51,7.25-7.48C79.64,468.4,79.61,465.41,79.61,462.41ZM60.88,390.5a44.61,44.61,0,0,1,4.48,0c4.21.43,5.59-1,6.58-5.57,1.65-7.58.21-15.61,3.6-22.87,1.07-2.29-.76-2.71-2.37-3.37a43.78,43.78,0,0,0-18.52-2.88c-3.57.12-4.77,1.29-5,5-.41,6.86,1.94,13.36,1.69,20.21C51,391.4,49.89,390.55,60.88,390.5ZM45.72,428.3c0-2.83.1-5.66,0-8.48-.09-1.83-.54-4.29-2.58-4.27-2.4,0-1.38,2.59-1.39,4q-.1,27.17,0,54.34c0,1.73-.65,4,1.72,4.68,2.05.6,4.47,1,6.21-.47s1.32-3.83.52-5.59C48.9,469.8,49,467,49,464.22c-.06-3.15.24-6.37-.33-9.44C47,446,45.54,437.25,45.72,428.3Zm35.51-9.16a142,142,0,0,0,1.36,15.23c1,9.12,2.52,18.18,2.51,27.42a7.24,7.24,0,0,0,.45,2.9c.57,1.27,2.13,1.8,2.7.55,1.09-2.39,4.16-3.65,3.94-6.61-.47-6.27,2.41-12.07.58-18.9C90.69,432,87.89,425.48,81.23,419.14Zm3.47-44.48c.59-2,.77-4.84-2-4.8S80.4,373,80.3,375.11a8.46,8.46,0,0,0,0,3c.67,2-2.47,5.2.14,5.46s3.66-3.72,4.66-6.3C85.35,376.59,84.87,375.65,84.7,374.66Z" transform="translate(-1 -21.15)"/><path d="M434.56,189c-2.19,2-2.66,4.48-2.61,7.3a168.31,168.31,0,0,0,2.77,29.51c2.06,10.55,1.5,21.79-.4,32.67a7.64,7.64,0,0,0-.38,1.95c1.13,11.3-2.48,22.28-2.09,33.6.43,12.46-.9,24.9-2.81,37.27-.67,4.4-.1,9-.15,13.48,0,3.13,2,3.32,4.36,3.32q18.75,0,37.49.08c.83,0,1.67-.05,2.5-.06,7.88-.08,8.93-.21,8.69-8.09-.34-11.65,2.94-22.95,2.26-34.57-.26-4.41-.67-8.93,1.28-13.28.95-2.1,0-4.15-2.13-5.55-9.13-5.93-16.14-13.61-22.12-22.9-4.19-6.53-5.85-14-10-20.33-1.9-2.95-1.69-7.14-1.51-10.1.57-9.84-5.24-19.34-1.12-29.33,1-2.44.34-5.6.34-8.42a37.69,37.69,0,0,1,4-17.06c2.35-4.68,3.28-9.84,5.94-14.6a82.47,82.47,0,0,1,22.63-25.65c5.41-4.09,11.73-5.93,18-8.27,10.54-4,21.18-1.61,31.74-2.32,2.54-.17,3.82,1.77,5.83,2.41,10.46,3.35,19.16,9.25,26.79,17.23,3.45,3.62,5.93,7.93,9.62,11.32,3.05,2.79,2.1,5.93-1,8a109.42,109.42,0,0,0-9.6,8c-4,3.48-5.69,3.51-8.7-1-2.07-3.13-5.17-5.17-7.3-8.18-1.38-2-3.38-1.47-3.55.65-.69,8.53-3.39,17-3,25.36.29,5.7.72,11.52.86,17.28.1,4.28-.12,8.29-2.22,12.72-2,4.11-2.42,9.72-2.77,14.84-.6,8.72-1.78,17.4-2.6,26.11-.13,1.38-.72,3.31.88,4.08s2.77-.72,4-1.45c7.73-4.5,14.56-9.88,18.44-18.31a17.39,17.39,0,0,1,3.39-4.3c1.29-1.37,3.09-1.75,4.48-.44,4.11,3.87,8,7.93,12,11.91a5.24,5.24,0,0,1,.75,7.22,74.75,74.75,0,0,1-44,32.47c-2.72.7-3.52,2.7-3.52,5.31,0,9.12-1.85,18.1-2.37,27.13-.41,7-2.32,13.47-3.61,20.17a33.12,33.12,0,0,0-.29,4.47c-.17,3.26,1.16,4.37,4.22,2.89q3.81-1.84,7.59-3.74c9.45-4.74,19.71-3.8,29.42-2.62a37.63,37.63,0,0,1,19.16,8.77c3.64,3.08,8.15,5,11.21,8.88,2.87,3.65,3.16,7.84,0,11.05-4.65,4.67-6.23,4.58-12.16-.28-4.68-3.83-10.35-5.3-16.09-6.85-5.32-1.43-10.36-.67-15.55.1-6.62,1-14.34,5.06-13.47,14a138.77,138.77,0,0,1,.06,20c-.23,5.1,1.79,6.7,6.74,6.53,9-.31,18,.06,27-.15,3.92-.1,5.38,1.22,5.13,5.17a127.53,127.53,0,0,0,0,14.5c.22,4.25-1.72,5.6-5.63,5.57-9.17-.09-18.34.15-27.5-.08-4.35-.11-5.78,1.37-5.69,5.77.24,12,.44,24-.19,36-.29,5.68,1.62,10.12,5.56,13s7.88,6,13.38,5.79c6.48-.22,13.12.69,18.52-4.08,2.82-2.49,5.53-5.1,8.18-7.77,3.24-3.25,6-3.39,8.69.38,1.36,1.91,3.34,2.66,4.9,4.1,1.93,1.79,3.1,4,1.6,6.16-2.39,3.52-4.82,7.35-8.14,9.83-7.27,5.41-14.87,10.93-24,12.45-9.28,1.55-18.64,2-28-1.22a65.26,65.26,0,0,1-26.84-17.9c-4.75-5.15-7.74-11.47-11.6-17.21-5.13-7.63-5.25-16.84-9.12-24.85-1.7-3.51-1.65-8.08-2-12.1-.94-11.42-1.08-23.14,1.73-34.16a142.45,142.45,0,0,1,9.58-25.82,73.75,73.75,0,0,1,9.11-13.73c4.6-5.84,5.54-12.33,6.86-18.79A274.83,274.83,0,0,0,521,319.35c.54-6.27,1.31-12.49,1.94-18.74.2-2,.14-4.67-2.62-4.49-7.46.49-14.39-2.18-21.59-3.13-2.89-.38-3.41.63-3.95,3.35-1.63,8.21-.06,16.75-1.79,24.63-2,8.89-1.21,17.81-2.19,26.63-.89,8-3,16-2.41,24.34.93,13.71-1.27,27.46-2.15,41.13-.57,8.9-1.29,18.09-2,27-1.39,18.27-.67,36.72-.58,55.1,0,8.63,1.05,17.27-.1,25.89-1.5,11.34-1.27,22.8-2.22,34.13a148.19,148.19,0,0,1-3.73,21.84,3.48,3.48,0,0,0,.39,2.81,5,5,0,0,1,.62,4.34c-3.49,7.71-2.38,16.34-5,24.12-1.15,3.39.36,6.18.29,9.26-.23,9.83-.43,19.69.12,29.49A88.58,88.58,0,0,1,470.7,675c-.35,1.3-.6,2.69-2.08,3.18-2,.65-4,.71-3.71-2.12.77-7.05,1.67-14.09,2.84-21.09.3-1.79,1.13-3.68.64-5.36-2.13-7.35-.13-14.62.18-21.91.17-4.09-1.34-7.81-1.65-11.72-.51-6.48,1.63-12.75,2.25-19.17.59-6.06,2.38-11.92,2.61-18.12a74,74,0,0,1,2.6-18.53,16.68,16.68,0,0,0,.44-5.43c-.43-10.65-.37-21.42,1.71-31.76,2-9.84.76-19.29.29-29a651.4,651.4,0,0,1-.33-67.16c1-17.84,2.92-35.63,2.89-53.54a16.64,16.64,0,0,1,.8-4.39c.41-1.56.15-2.68-1.57-3-8.36-1.5-16.82-2.25-25.19-.8-7.1,1.22-8,2.71-8,9.91-.16,17.43.09,34.9,0,52.32-.19,25.63.15,51.27-.35,76.9-.09,4.81-1.57,5.7-6.38,4.47a16.19,16.19,0,0,0-2.92-.56c-8.39-.63-8.2-.35-8.78,8.07-1,14.65.69,29.27-.39,44C425.35,576.43,426,592.79,425,609c-.79,12.78.57,25.7-1.48,38.19-1.4,8.53-2.22,17.23-4.23,25.69a6.28,6.28,0,0,0-.26,2.95c2.12,7.3.18,14.22-1.77,21.17-.84,3,.54,5.86.72,8.81.39,6.36-5,10.31-6,16-.29,1.58-2.57,2.73-4.54,2-2.23-.84-1.3-2.49-.8-4.17.71-2.36,1.11-4.68,3-6.66a8.22,8.22,0,0,0,2.2-5.46c.11-8.42.7-16.82,1.24-25.2.6-9.45.26-19.1,2.16-28.35,1.44-7,.36-14.26,2.61-21.1.68-2.05-.71-3.86-.63-5.88q.85-22.07,1.58-44.13c.07-2.44-.49-4.9-.55-7.35-.32-11.52,2.15-22.9,1.75-34.45-.19-5.59.3-11.38-1.24-16.63-1.2-4.12,1.48-7,1.27-10.64-.22-3.8-.91-5.8-5.35-5.67-7.46.21-7.5,0-7.51-7.62Q407,438,407,375.5c0-9.32-1.71-11-11-11.07-6.17,0-12.33-.08-18.5-.07-1.62,0-3.45-.41-4.68,1.1-2.52,3.12-4.13,1.62-5.59-1a53.82,53.82,0,0,1-4.4-10.55c-1.36-4.41-.53-5.72,4.18-5.75,11.84-.09,23.67-.05,35.5-.05,4.33,0,8.67-.1,13,0,3,.07,4.4-1.18,4.23-4.12-.56-9.49,1.63-18.81,1.77-28.3.08-5.79,1.23-11.77,2-17.66.38-3.09-1.08-5.89-.39-8.83,2.88-12.36.82-25,2.54-37.57,1.18-8.67,2.74-17.67,1.74-26.64-.6-5.39-2.43-10.53-3-16-1.13-10.09.32-20.11.14-30.17-.18-10.62-5.32-17.59-15-21.83-6.38-2.81-13.09-3.62-19.66-4.08a34.17,34.17,0,0,0-15,2.15c-6.48,2.64-8.86,6.32-8.86,13.27,0,6.33.21,12.67-.09,19-.2,4.29,1.09,5.88,5.6,5.76,10.66-.3,21.34.18,32-.21,5-.18,6.59,1.65,6.05,6.3a45.85,45.85,0,0,0,0,5.5c0,11.68.35,9.42-10.33,9.47-9.27,0-18.58-.36-27.86-.63-4.21-.12-5.44,1.44-5.41,5.51.16,20.5,0,41,.17,61.49.05,4.3-1,5.83-5.56,5.73-13.16-.28-26.33-.23-39.5,0-4.59.07-6.22-1.63-6.1-6.15.23-8.49.05-17,.1-25.49,0-1.28-.55-2.9.7-3.74,1.63-1.11,2.1,1.05,3.19,1.51,1.59.67,3.25,2.58,5,1s1.15-3.66,0-5.48c-7.3-11.3-8-24.45-8.4-37-.28-10.11.61-20.74,4.54-30.61,3.56-8.9,8-17.31,14.14-24.64,6.62-7.86,13.92-14.66,24.06-18.38,4.7-1.73,8.83-5.16,14.12-6.07,9.59-1.65,19.21-1.32,28.77-.32,10.81,1.13,21.27,4.74,32.4,3.82,8.38-.69,8.42-.29,8.42,8.42,0,15.83,0,31.66-.05,47.49,0,2.11,1.24,5.38-2,5.84-2.78.4-2.19-3.23-3.56-4.74C435.58,191,436,189.69,434.56,189Zm82,30.37v0c-2.49,0-5,.2-7.49,0-4.51-.43-6.13,1.27-6,5.93.29,12,.37,24,0,36-.16,5.1,2.14,7.7,6.46,8.41,4.06.66,8.29.36,12.45.28,2.06,0,2.83-1.63,2.73-3.49-.34-6.34,1.27-12.54,2-18.71.75-5.95.52-12.12,2.52-18.05,2.6-7.69.31-10.32-7.68-10.31Zm.67-26.37v0c2.34,0,4.67,0,7,0,7.31,0,8.6-1.39,8.75-8.71.09-5.11.07-10.14,1.25-15.29,2.24-9.84,1.81-9.93-7.54-13.45a18.23,18.23,0,0,0-1.86-.71c-9.74-2.5-17.85-.92-18.23,12.46a80.76,80.76,0,0,1-3.16,21.8c-.75,2.43,0,3.9,2.8,3.88C509.86,193,513.53,193,517.19,193Z" transform="translate(-1 -21.15)"/><path d="M714.79,130.26c25,.39,50-.38,75,.31,5.48.15,10.9-.13,16.32,1.1,2.49.57,2.73,1.16,1.9,3.6-4.63,13.65-11,26.51-17.13,39.52-2.93,6.24-5.89,12.51-8.52,18.88-1.69,4.09.92,8.24,6.37,12.3,8.73,6.5,16.19,14.52,24.5,21.43,6.38,5.32,12.06,11.41,18.69,16.5,4.49,3.44,8.63,7.51,13.28,10.9a3.08,3.08,0,0,1,.88,4.06c-1.16,2.15-3.75,2.61-5.66,2.46-27.45-2-54.92-.14-82.37-.75-3.89-.09-6,.94-7.88,4.84-10.28,21.54-20.07,43.28-29.68,65.11-.63,1.44-.91,3.52-3,3.48-1.79,0-2.27-1.79-2.88-3.11-3.51-7.61-6.89-15.28-10.46-22.86-5.66-12-9.84-24.77-16.58-36.33a12.42,12.42,0,0,1-1.32-3.2c-2.17-8.77-4.36-8.88-12.76-7.23-4,.78-10.1,3.42-10.49,9.69-.27,4.48-2,8.66-2,13.21a110.53,110.53,0,0,1-2.9,26.91c-.66,2.86-.32,6-.35,9-.06,6.95.11,13.87-1.37,20.78-.88,4.09-1.62,9.15,5.56,8.81,1.93-.09,2.19,1.71,2.18,3.3-.07,13.15-.19,26.3-.22,39.46,0,6.13.35,12.26.19,18.39-.13,5.21-.64,10.42-1.25,15.6-.22,1.81.88,3.24.9,4.7.17,13.26,1.69,26.56-.74,39.75-.88,4.81-.58,9.61-.35,14.4.12,2.55,2.5,2.26,4.28,2.27,6.67.05,13.37.41,20-.1,6-.45,11.64,2,17.75.6,3.23-.72,6.35,1.69,6.22,6.07-.11,3.67-.19,7.34,0,11s-1.52,4.52-4.82,4.49c-12.83-.13-25.67-.06-38.5,0-6.32,0-6.82.27-6.58,6.36,1.07,26.46-2.7,52.8-1.81,79.25.35,10.66.09,21.33.07,32,0,1.65.27,3.34-.7,4.87s-1.57,4.07-4.16,3.57c-2.35-.45-1.93-2.69-2.23-4.47-5.41-32.35-2.51-65-2.78-97.46-.05-6.08,1.1-12.44,1.36-18.71.16-3.84-1.24-5.49-5.17-5.39-6.33.15-12.67-.11-19,.07-4,.11-5.67-1-5.35-5.46.52-7.33-.69-14.65-1.16-22-.23-3.56,1.41-7,1.4-10.76q-.23-57.24-.1-114.48c0-7.42.08-7.47,7.4-7.44,15.67.06,13.65.36,13.7-13.8a34,34,0,0,1,1.25-10.31,13,13,0,0,0-1.61-11.44c-5.75-8.49-8.89-17.76-7.83-28.22A23.82,23.82,0,0,0,632.81,274c-1-2.55-.67-5.17-.17-7.83.71-3.7-.64-5.52-4.77-5.47-11.61.15-23.23,0-34.84,0-1.88,0-4.3.68-5.13-1.9s1.17-3.36,2.66-5c3.93-4.38,8.52-8,12.64-12.17,1.11-1.11,2.59-3.42,5.06-1.65.67.48,1.34-.21,1.49-.85,1.53-6.57,7.28-9,12-12.39a16.78,16.78,0,0,0,3.59-4c4.41-6.16,11.76-8.89,16.68-14.62,2.36-2.74,6-4.28,8.82-7.21,3.9-4.11,2.88-7.77.9-11.24-4.69-8.19-7.82-17.06-11.95-25.45-4.54-9.22-8.14-18.79-12.46-28.07-2.41-5.17-2-5.79,3.92-5.8q31,0,62,0Zm-17.31,135c7.21.93,14.32.19,21.4.59,4.34.24,6.18-1.75,7.58-5.48,2.87-7.63,1.15-15.48,1.61-23.22.11-1.77.33-3.92-2.17-4.39s-4.14.51-5,3c-1.13,3.17-3.4,5.12-6.85,4.5-4.08-.73-6.31,1.06-7.68,4.59-.47,1.22-.93,3.07-2.6,1.43-2.31-2.25-2.89.16-3.6,1.23a30.55,30.55,0,0,0-5.5,15.28c-4.25-8.12-7.77-14.87-11.3-21.63-1.27,2.28-1.34,3.86-.49,5.73,6.49,14.07,12.77,28.24,19.14,42.37q6.35,14.06,12.82,28.06c.53,1.16,1.12,2.56,2.68,2.68,1.15.08,1.62-.86,2.18-1.74,3.41-5.43,5.41-11.56,8-17.31,6.12-13.5,12.12-27.07,18.33-40.54,2.58-5.58,5.55-11,7.6-16.78.85-2.39,3.62-6.68,1.32-7.46-2.67-.92-2.41,4-3.73,6.21-1.23,2-2,5.9-4.67,5-3.33-1.11-7.06-.21-10-2.41-3.27-2.42-4.48-.84-4.55,2.51s.07,6.63-1.61,9.73c-1.35,2.49-2.9,5.58-.31,7.78s5.33.31,7.74-1.31c.17-.11.54.06,1.16.15-.58,1.39-.3,3.24-2.13,3.61-3.74.74-7.8,2.34-11.25,1.54-8-1.85-15.9-.73-23.82-1.17C700,267.68,697.94,268.18,697.48,265.27Zm24.17-66.86c.36-2.15.25-3.07.61-3.33,2.91-2.09,5-4.39,4.28-8.46-.29-1.56,1.25-2,2.71-2.23,7.12-1.17,7.13-1.21,5.22-8.16-.4-1.43-1-2.79-1.56-4.18-1.09-2.85-3.59-4-6-2.85-5.1,2.57-10.41,1.52-15.65,1.83-1.47.08-3.94-.39-4.15.83-.91,5.11-6.24,8.2-5.87,13.85.26,3.78.35,7.6-1.17,11.3a5.42,5.42,0,0,0,.06,4.35c3.55,5.27,2.85,11.12,2.76,16.88-.07,4.79,2.56,6.91,6.85,7.54,5.09.76,10.25-1.24,15.36.36,1,.3,1.79-.62,2.48-1.39,7.08-7.9,8.37-17.58,8.47-27.61,0-1.25-.41-2.74-1.83-2.38C730.35,195.75,725.76,193.6,721.65,198.41Zm-10.86,40.83c1.5-.36,3-.66,4.4-1.08,2-.61,3.23-2,2.64-4.1s-1.93-3.77-4.38-2.67c-1.94.86-3.53-.2-5.27-.25-2.66-.08-5.93.22-6.4,3.36-.49,3.29,2.55,3.69,5.13,4C708.22,238.65,709.51,239,710.79,239.24Zm-22,1.8c2.22-1.21,5.32-1.67,6.29-4.68.46-1.46-4.75-6.68-6.22-6.59-3.21.21-5.27,2.24-4.76,5.12C684.52,237.22,684.43,240.94,688.79,241Zm24.52-91.82c-2.3.63-6.38-1.08-6.38,1.84,0,3.09,4.16,1.93,6.5,2,2,.07,5.75,1.38,5.79-1.57C719.27,148,715.37,149.91,713.31,149.22Zm-3.47,81.09c2.41-1.25,7.21,2,7.32-2.11.07-2.78-4.81-1.3-7.42-1.35-2.38,0-6.58-1.26-6.51,2.2C703.28,231.44,707.49,229.58,709.84,230.31Zm35-27.31c.35.82-.27,2.22,1.07,2.44,1.55.25,1.74-1.3,2.13-2.3.87-2.2,3.23-4.06,1.92-6.82a1.49,1.49,0,0,0-2.19-.52C745.72,197.7,745.14,200.28,744.8,203ZM690,247.24c.18,1.4-.14,3.32,1.94,3.37,2.25,0,2.95-1.93,3.21-3.7a2.5,2.5,0,0,0-2.54-3C690.29,243.77,690.15,245.51,690,247.24ZM733.89,186c-1.1.37-2.64.54-2.31,2.35.24,1.25.63,2.65,2.32,2.68,2.09,0,2.22-1.46,2.14-3C736,186.77,735.57,185.8,733.89,186Z" transform="translate(-1 -21.15)"/><path d="M153.59,748.1c-1.07-1.57-2.08-3-2-4.7.31-6.18-.83-12.29-1-18.43-.76-32.45-1.33-64.91-1.41-97.38,0-15.93,3.61-31.41,3.86-47.15a112,112,0,0,1,1-12.89c1.89-14.11,1.15-28.31,1.75-42.46a69.59,69.59,0,0,1,1.72-14.65c1.14-4.33-1-6-3.62-7.43-9-4.92-13.48-12.61-16.48-22.24-4.89-15.7-4.54-31.68-4.57-47.71q-.07-36.49,0-73c0-3.14.09-6.28.38-9.4.35-3.8,3.6-2.89,5.77-2.92,6.46-.09,12.93.28,19.4.33,7.3.06,7.08-.08,7.8-7.3,1.14-11.47-.62-23,1-34.41,1.49-10.61.88-21.2,1.12-31.8,0-1.67.8-4.21-1.7-4.59-2.76-.41-2.06,2.34-2.65,3.91-1.1,2.93-2.69,5.68-3.05,8.89-.25,2.27-2,2.3-3.77,2.3-5.17,0-10.33-.06-15.5,0-3.49.05-4.69-1.73-3.5-4.74,4.48-11.27,6.32-23.31,10.11-34.83,2.67-8.14,5.35-16.59,8.17-24.67s5.64-16.44,9.29-24.41c3.36-7.35,6.31-15,10.17-22.08,6.46-11.89,12.61-24.15,22.87-33.4,9.46-8.53,19.54-16,33.58-12.08a30.49,30.49,0,0,1,15.35,10.63,154.13,154.13,0,0,1,26.74,48.87c2.48,7.47,6.12,14.75,8.59,22.25,3.18,9.67,6.61,19.29,9,29.28,1.49,6.33,3.81,12.56,5.1,19,1.43,7.1,3.7,13.95,5.72,20.88,1.45,5,.06,6.23-5.45,6.44-11.67.45-23.27-.89-34.91-1.08-5.82-.09-7.65,1.22-7.45,7.11a148.51,148.51,0,0,1-.81,20.78c-1.57,14.31.69,28.67-1.37,42.71a161.71,161.71,0,0,0-1.15,28.78c.5,15.49-.93,30.94-2.2,46.22-1.77,21.47-1.16,42.86-1,64.25.13,18.46-2.53,36.76-1.93,55.2a11.43,11.43,0,0,0,2.2,7.2c1.85,2.52.89,7.05-.47,10.18a22.87,22.87,0,0,0-1.56,10.83,212.42,212.42,0,0,1-.06,25c-.3,4.19-1.22,8.19.14,12.4,1.61,5-3.06,9.1-2.18,14.16,1,5.69-2.41,10.72-3,16.24a4.22,4.22,0,0,1-5.63,3.54c-3.7-1.26-.7-3.71-.77-5.71-.2-5.64,3.78-10.6,2.4-16.32a3.09,3.09,0,0,1,.26-2.38c3-5.42,1.92-10.84,0-16.22a15,15,0,0,1-.29-10.1c.94-3.07.13-6.51-.38-9.85a94.44,94.44,0,0,1-.12-25c.64-5.67.93-11.47,1.63-17,1.07-8.38,0-16.77,1.65-25.17s1.2-17.25,0-25.81c-1-7.29-1.51-14.34.16-21.65,1-4.42,1.36-9.26-.62-13.74a12.05,12.05,0,0,1-.55-6.41c1.83-15.51.49-31.17,1.81-46.62,2.16-25.46-.47-51,1.53-76.3,1-13.25.28-26.53,1.78-39.63,1.38-12,1.71-24,2.77-36,.49-5.68-.88-6.48-6.74-6.26-2.32.08-4.65,0-7,.08-8.89.19-12.48,3.7-12.66,12.82-.17,8.33,0,16.67-.07,25-.06,4.45.43,8.87-1.23,13.31-1.24,3.31,1.63,6.59,1.37,10.22-.75,10.41-1,20.86-1.71,31.27-.28,4.3,1.23,5.89,5.65,5.89,12.09,0,12.1.18,12.1,12.13,0,32.66.19,65.32-.06,98-.06,8.34-.51,17-3.3,24.82-3.4,9.51-9.08,17.63-19,22.22-7.32,3.37-14.72,4.36-22.54,4.22-7.33-.13-14.68.26-22-.28-4.4-.32-5.13,2.09-4.61,5a11.18,11.18,0,0,1-1.41,7.61c-.71,1.35-1.56,2.47-.44,4.08,1.23,1.77.92,4,.56,5.84-2.15,11.32-.84,22.82-2,34.11-.63,6-.22,12.25-2.47,18.1-1,2.55-.05,5.28.25,7.91.59,5.26-1.77,10.09-2,15.22-1.79,34-.25,67.94-.78,101.91-.18,11.3,1,22.64-1,33.89C155.71,744.77,155.54,746.54,153.59,748.1ZM174,457.86h0c0,2.66,0,5.33,0,8,.05,11.11,5.93,18.89,16.74,20.17s19-1.28,22.5-13.94c.59-2.16.29-3.28-2.35-2.61-1.59.41-3.57,1.7-4.42-1.21-1.2-4.13-2.92-8.42-2.38-12.56.84-6.51,1.36-12.86-.11-19.31-.28-1.23-.34-3,.33-3.89,3.53-4.69,1.9-10.22,2.4-15.26.86-8.59-.45-17.41.65-25.95,1.69-13.29,3-26.54,3-39.94a81,81,0,0,1,.92-15.39c1.52-8.14-.51-16.38.51-24.56.09-.74-.49-1.56-.71-2.36a23,23,0,0,1,0-12.33c1.69-6.08,1.46-12.36.49-18.31-.86-5.36-1.79-10.36.1-15.6.94-2.62-.17-5-1.95-6.87s-4.07-.74-6,.1c-6.93,2.95-12.84,7.55-19,11.79-5.93,4.08-7.65,9.45-7.76,16.61-.28,19.58-.26,39.17-.83,58.75-.85,28.89-2.62,57.8-2.08,86.74C174.16,439.23,174,448.55,174,457.86Zm34.55-232.39c8.32,0,16.64,0,25,0,6.07,0,6.39-.59,4.82-6.28-1.83-6.68-4.2-13.15-6.51-19.66-3.58-10.13-7.81-19.79-13.67-28.71-2-3-4.9-6.13-9-4a18.78,18.78,0,0,0-7.32,6.65c-4.58,7.46-8.27,15.42-12.34,23.14C186,203.2,185.59,210.72,181,217s-2.68,8.4,5.14,8.42C193.59,225.47,201.08,225.45,208.56,225.47Zm3.88,233.92c1.76-.7,1.33-2,1.34-3.09,0-6.81.07-13.61,0-20.42,0-1.2.88-3.61-1.53-3.25-1.55.24-2.63,2.28-2,4,1.83,5.46.66,10.93.44,16.41A10,10,0,0,0,212.44,459.39Z" transform="translate(-1 -21.15)"/><path d="M783,347.9c14.56-.6,26.88,4.23,38.32,13.51,12,9.76,18.41,22.23,23.06,36.42a111.52,111.52,0,0,1,5.14,42.7c-.47,6.87-2.55,13.62-3.79,20.45a77.56,77.56,0,0,1-12.69,30.39c-6.65,9.62-14.64,18.35-26.37,22.45-6.94,2.42-13.46,5.66-21.16,6-6,.29-8.76,8.52-6.33,16.47a75.54,75.54,0,0,0,3.3,8.87c1,2.22,1.76,4.64,1.05,6.78-2,6-1.27,12.42-2.83,18.54-1.66,6.46-.53,13.23-.36,19.78a198.94,198.94,0,0,1-2.06,34.24c-1.54,10.5-.75,20.85-1.32,31.25a14,14,0,0,1-.35,3.45c-.61,1.89-1.27,3.83-3.93,3.81s-3.6-1.93-4-3.8a81,81,0,0,1-1.88-13.72c-.3-16.93,1.4-33.81,2-50.72.34-9.61.65-19.32,1-29,.2-5.18-1.63-10.4-1.93-15.64-.55-9.58-5.09-18.93-1.54-28.77.94-2.62-1.06-4.25-3.31-4.66-9.21-1.69-16.21-7.29-23.09-13-11.45-9.42-17.34-22.27-21.67-36.05s-5.52-27.93-4.64-42.23c.86-13.89,4-27.25,10.46-39.8,5.47-10.63,12.22-20,22.15-26.9,9.3-6.5,19.06-11.22,30.75-10.67C779.05,348.24,781.05,348,783,347.9Zm36.66,96.85c-.61,3.13,1.88,3.52,2.72,5,.55,1,.81,1.86-.17,2.64s-1.78,1.71-3,1.46-.6-1.22-.53-2c.25-2.5-.75-2.39-2.66-1.48-2.69,1.27-5,.84-6.66-2.09-1.21-2.17-4-1.81-4.13-.07-.38,4-3.39,2.08-5.05,3a1.4,1.4,0,0,1-2.24-1.06c-.15-1-.25-2.17,1-2.53s3-.19,2.32-2.22c-.5-1.45-2.1-1.46-3.43-1.51a2.39,2.39,0,0,0-2.66,2.39c-.2,2-1.16,4.09-1,5.81.53,5.76-3.51,12.05,1.77,17.27a1.19,1.19,0,0,1,.09,1.73c-3.43,5.27-2.47,11.21-2.56,17,0,1.92-.77,4.73,1.41,5.37a7.71,7.71,0,0,0,7.07-1.32c6-4.94,12.26-9.43,16.3-16.53,1.75-3.09,1.51-6.83,3.17-9,2.59-3.43-.18-8.78,4.63-10.91a1.66,1.66,0,0,0-.08-1.4c-2.11-2.18-.18-4,1.09-6.66C823.26,449.18,822.25,445.89,819.7,444.75Zm-62,14.77c-.13,8.22,1.75,15.37,3.57,22.5.31,1.2.89,3.39,2.83,2.62,1.46-.57,1-2.34.27-3.48a6.7,6.7,0,0,1-.78-4.27,175.54,175.54,0,0,0-.07-25.33,8.36,8.36,0,0,0-1.48-4.15c-.75-1.08-1.32-2.5-3-1.9a2.3,2.3,0,0,0-1.23,2.95C759,452.44,757.22,456.35,757.74,459.52ZM777,468.38c0,2.52-.09,4,0,5.5s-.72,3.63,1.18,3.79c2.09.17,1.43-2.26,1.6-3.52.72-5.16.38-10.6,1.92-15.47,2.16-6.86-1.65-12.28-2.81-18.33-.07-.36-1-.67-1.62-.74-.23,0-.83.72-.78,1,1,5.65-2.78,11-1.16,16.61C776.53,461.23,777.5,465.21,777,468.38Z" transform="translate(-1 -21.15)"/><path d="M307.69,344c13.2-2.11,23.88,5.21,34.31,13.35,2.35,1.84,2.44,3.73,1.2,6.06a36.07,36.07,0,0,1-2.68,4.79c-2.07,2.81-2.6,7.56-8.61,3.81-5.4-3.38-12-5.06-18.18-7-7.93-2.44-16.71-.25-18.8,10.47-1.21,6.16.9,10,6.32,13.63,10.31,6.84,22.06,11,32.13,18.37,13.39,9.75,24,21.64,27,38.12a74.76,74.76,0,0,1-.28,29.08A42.51,42.51,0,0,1,349.74,495c-7,7.5-15,13.81-25.91,16.17-15.31,3.31-29.35-.24-42.82-6.3-6.39-2.88-13.27-6.05-17.65-12.33-1.73-2.48-5.92-2.49-6.39-6.43-.44-3.74,3.52-4.6,4.49-7.39a11.37,11.37,0,0,1,1.53-3.08c4.66-6.24,4.83-6.43,11.15-1.79,7.83,5.74,16.88,9.06,25.45,13.28,6.35,3.12,17.21-2.61,20.38-9.1,7.63-15.66-.17-23.95-12.26-33.46-7.45-5.86-16.7-8.42-24.88-13-8.9-5-17-10.7-22.18-19.92a38.78,38.78,0,0,1-4.55-26.08,55.64,55.64,0,0,1,8.71-22.1c4.78-7.45,11.67-11.67,19.1-15.64C291.12,344,298.79,343.64,307.69,344Z" transform="translate(-1 -21.15)"/><path d="M584.52,154.31c-3.66.34-4.79-1.54-5.91-3.44-1.26-2.12.07-3.37,1.47-4.67a97.4,97.4,0,0,0,12.33-14.72c7-9.66,15.5-4.59,19.62,1.94,1.52,2.41.55,4.66-2.07,6.26-7.11,4.36-14.93,7.57-21.26,13.25C587.47,154,585.3,154.07,584.52,154.31Z" transform="translate(-1 -21.15)"/><path d="M846.54,519.31c0,5.46-4.55,10.83-9.22,10.89-5,0-9.47-5.39-9.42-11.54A10,10,0,0,1,838,508.49C842.54,508.47,846.55,513.53,846.54,519.31Z" transform="translate(-1 -21.15)"/><path d="M814.13,160c-.15,3.92-2,6.54-5.76,6.91-3.49.33-6.36-3.47-6.09-7.5.24-3.74,1.7-6.15,6.06-6.12C813.2,153.29,814,156.32,814.13,160Z" transform="translate(-1 -21.15)"/><path d="M597.47,38.66c.69-1.2,1.42-2.49,2.15-3.78.91-1.59,1.85-3.16,2.7-4.78,1.22-2.31,1.65-6.6,5.42-4.5s.47,4.64-1,6.87c-1.06,1.61-.46,3.57-.71,5.37-.39,2.83-2.87,3.51-5,3.85C599.52,41.94,597.86,40.89,597.47,38.66Z" transform="translate(-1 -21.15)"/><path d="M14.86,89.84c10.29-1.68,17.7-11,29-11C41.37,84,26.19,90,14.86,89.84Z" transform="translate(-1 -21.15)"/><path d="M754.42,31.07c-1.53-.63-4.59-.08-5.72-2.13s-2.63-4.87-.85-7,3.56.45,5.28,1.08a17.26,17.26,0,0,1,4.33,2.38c1.14.84,2.67,1.91,1.66,3.65A3.81,3.81,0,0,1,754.42,31.07Z" transform="translate(-1 -21.15)"/><path d="M382.58,609c-1.17,0-2.42.06-3.27-.82a14.1,14.1,0,0,0-7.7-4c-1.52-.32-3.67-1-3.53-3.5a1.75,1.75,0,0,1,1.35-1.79,3.9,3.9,0,0,1,4.69,1.9c2.08,3.7,5.78,3.85,9.17,4.78,1.1.3,3.16-.56,2.9,1.5C386,608.74,384.11,608.91,382.58,609Z" transform="translate(-1 -21.15)"/><path d="M788.69,44.22c4.22-1.63,6.11,1.65,8.57,3.81C794.23,47.17,791.78,45,788.69,44.22Z" transform="translate(-1 -21.15)"/><path d="M721.61,211.56c2.31.29,5.15,0,5.14,2.95s-2.39,4.63-5.34,4.79c-3.41.18-6.76-2.25-6.64-4.69C714.91,211.92,719.16,212.18,721.61,211.56Z" transform="translate(-1 -21.15)"/><path d="M710.44,188.33c2.71.39,3,2.42,3.22,4.06s-1.37,2.55-2.93,2.56c-1.86,0-4.09-.79-3.84-2.75C707.09,190.59,708.79,189,710.44,188.33Z" transform="translate(-1 -21.15)"/><path d="M192.07,463.85c-.47-3.86-4.53-7.23-1.62-12.49C192.58,455.84,193.89,459.56,192.07,463.85Z" transform="translate(-1 -21.15)"/></g></g></svg>