<svg xmlns="http://www.w3.org/2000/svg" viewBox="0 0 764.57 815.55"><title>caution</title><g id="Layer_2" data-name="Layer 2"><g id="Layer_1-2" data-name="Layer 1"><path d="M768,323.69c0,33.32.35,66.65-.18,100-.21,13.29,5.1,24.13,11.84,34.61,5.24,8.13,8.68,16.66,6.64,26.21-1.35,6.3-6.33,10.7-11.44,14.52a110.69,110.69,0,0,1-19.81,12.37,187.68,187.68,0,0,1-34.47,11.93c-7.82,1.89-15.67,3.42-23.62,4.59-5.19.77-10.46,1.24-15.62,1.85-23.59,2.78-47.42,2.81-71.07,1.59a349,349,0,0,1-40.71-4.23,210.43,210.43,0,0,1-37.8-10.49,21.56,21.56,0,0,1-6.32-3.83c-3.71-3.16-8.2-2.85-11.7-1.21-6.23,2.92-12.46,1.49-18.65,1.47-3.25,0-5.37-2.77-5.18-6.24.64-11.82-.9-23.63-2.15-35.2-1.13-10.49.48-21.19-2.53-31.55-1-3.39-.34-7.29-.22-10.94.1-2.84-.75-4-3.85-4.41-8.49-1-12.54-4.9-13.12-11.71-.62-7.31,3.49-13.47,11.14-15.62,3.14-.88,3.94-1.92,2.5-4.74a2.92,2.92,0,0,1-.15-1.48c1.16-13.3-1.41-26.45-1.74-39.71-.24-10-1.12-20.12-1.92-30.15-.36-4.5-1.19-9.1-1.34-13.7-.08-2.13-1-2.88-3.1-2.92-5.19-.1-10.08-1.73-15-3.25-11.08-3.46-14.57-10.6-11.22-21.76,1.73-5.74,3.23-7.44-5.6-9-3-.54-2.46-2.52-2.62-4.45-1-11.47,1.91-22.75,1.52-34.23-.38-11.09-.75-22.19-3.48-32.94-1.37-5.37-4.5-10.3-6.83-15.43-.45-1-1.81-1.93-.55-3.05s2.36.06,3.44.83c7.88,5.65,9.19,14.36,10.91,23,2.51,12.49,1.42,25.11,1.67,37.69.09,4.29,2,5.61,5.74,3.3,4.83-3,8.16-2.13,11.42,2.18a26.34,26.34,0,0,0,6.05,5.92c6,4.08,3.68,9.83,0,14-3.21,3.58-3.14,6.57-.28,10.05,4.51,5.5,7.49,11.64,7.92,18.9.32,5.58,1.72,6.81,7.25,6.82,1.34,0,2.67,0,4,0,6.22-.09,8.44-3.52,5.43-9.22a16,16,0,0,1-1.66-7.62c-.26-12.57-1.67-25-3.1-37.52a30.86,30.86,0,0,1,.72-12.36c1.75-6,.62-12.38,2.06-18.68,2.43-10.64,5.33-21,9.91-30.86,7.39-15.88,18.78-28.9,31.79-40.29,13.17-11.53,26.71-22.81,43.75-28.49,2.16-.72,2.88-2.45,3.28-4.06,2.26-9.12,9.57-12.26,17.35-13.15,7.42-.85,11.84-4.38,15.63-10.22,7-10.89,23.1-14.67,34.11-7.6,5.51,3.54,9.11,8.57,13,13.44a11.64,11.64,0,0,0,5,3.92,75.37,75.37,0,0,1,23.4,13.76c2.48,2.17,5.81,2.52,8.76,3.45,10.88,3.42,19.68,9.84,27.48,17.93,4.6,4.76,10,8.88,14,14.12,6,7.88,12.21,15.68,16.38,24.8a160.18,160.18,0,0,1,11,34.22c3.94,18.73,1.25,37.37,1.92,56,.7,19.64.15,39.32.15,59Zm-85.6,29.86h0c0-29.15-.06-58.31.06-87.46,0-4-1-5.35-5.32-5.55-9.51-.44-18.72,3-28.2,1.77-4.89-.62-5.89,1.75-5.88,6.07.12,29.82.06,59.64.09,89.46,0,5,1.62,6.7,6.38,5.15,6.92-2.24,13.87-1,20.79-1.46,3.93-.23,6.47,2.16,6.49,5.4s-3.4,3.86-6.43,3.84c-7.49-.06-15,.16-22.48-.1-3.76-.13-4.88,1.14-4.85,4.85q.21,34.23,0,68.47c0,4.1,1.56,4.84,5.26,5.15,9,.76,17.8-1.75,26.75-1.76,5.94,0,7.31-1.42,7.31-7.37Q682.42,396.78,682.4,353.55Zm39.13-60.23c0-2,0-4,0-6q0-16,0-32c0-1.85.17-4.16-2.86-2.84-7,3.06-14.55,3.94-22,4.78-6.86.76-8.41,1.94-8.3,8.67.46,27.38-1.45,54.8,1.68,82.13a49.05,49.05,0,0,1,0,10c-.34,3.86.84,5.52,5,5.21s8.33,0,12.5-.06c2.83,0,5.37,1,5.27,4-.09,2.63-2.59,3.57-5.19,3.56-4.33,0-8.68.21-13-.07-3.55-.24-4.63,1-4.58,4.51.19,11.16.08,22.33.1,33.49,0,5.67,0,5.58,5.52,4,5.7-1.6,11.41-1.9,17.1.25,1.61.61,2.52,1.48,2.35,3.29-.21,2.22-1.9,2-3.35,2-6.16,0-12.33,0-18.49-.17-2.08-.07-3.14.32-3.13,2.58,0,7,0,14-.06,21,0,2.68,1.21,2.78,3.46,2.58,7.61-.66,14.75-3.27,22.11-4.9,3.46-.77,4.52-2.5,4.58-5.88.6-35.54-1.41-71.1,1.29-106.64C722.25,315.7,721.54,304.48,721.53,293.32Zm3.39,135.11c0,7.83.19,7.75,6.63,6.19,5.13-1.24,8.94-5,13.9-6.4,3.52-1,5.25-3.05,5.35-6.73.76-29.56-.73-59.1,1.32-88.71,1.76-25.37.47-51,.26-76.45,0-3.94,1.84-7.38,1.71-11.25-.13-3.6-1.67-4.58-4.75-3-5.31,2.81-11.09,4.26-16.76,6-2.6.77-3.51,2.13-3.59,4.57-.81,26.82,1.83,53.7-2.2,80.5-1.34,9-.08,18.3-.28,27.46-.11,4.7-.28,8.79,6.47,7.72,1.45-.23,3.08,1.12,4.69,1.43,3.86.72,3,3.63,2.49,5.86-.58,2.59-2.85,1.91-4.46,1.05-1.86-1-3.92-.74-5.77-1.37-3-1-3.32.33-3.41,2.86C725.91,395.23,728.29,412.39,724.92,428.43ZM553,335.88c1.53-8.79-2.31-17.65-1.52-26.84.32-3.66-2-3.07-4.25-1.86-6.23,3.36-12.63,6.59-19.51,8.14-4.24,1-5.23,3-5.51,6.75-.88,11.66,2.79,23,1.9,34.67a2.56,2.56,0,0,0,.14,1c3.2,9.49.34,19.58,3.5,29.32,2.11,6.51,1,14,1.75,21.08,1.48,14.09,2,28.32,3.37,42.47.36,3.9,1.58,6.83,4.41,8.93a44.87,44.87,0,0,0,21.75,9c2.35.28,2.33-.65,2.63-2.3.59-3.19-1.74-5.65-1.86-8.67-.36-9.24.37-18.41-1.39-27.73-1.6-8.5-.23-17.44-1.58-26.23-1.43-9.27-.77-18.78-1.45-28.2C554.45,362.44,553.1,349.37,553,335.88ZM636.54,314h0c0-15.32-.18-30.64.11-46,.1-4.81-1.64-5.83-6-5.84-5.32,0-10.42,1.79-16,.37-5.85-1.48-6.37-.33-6.35,5.92,0,10.16.11,20.32,0,30.47,0,3,.53,5.12,3.18,7.18,6.17,4.83,6.44,9.78,1.12,15.55a10.57,10.57,0,0,0-2.78,7.67c-.09,5.65,2.26,10.9,2,16.68-.52,10.8-.11,21.65-.22,32.47,0,2.84.6,4.85,3.05,6.78,5.69,4.46,7.12,11.81,3.86,18.45-1.46,2.95-1.66,5.95-2,9.12-.81,8.19,1.68,16.09,1.62,24.22-.1,15.14-2.12,13.63,14.56,13.74,2.77,0,3.92-1.05,3.92-3.8q-.06-37.22,0-74.43c0-2.21-.47-2.64-2.93-2.26a64.53,64.53,0,0,1-12.44.3c-2.54-.1-4.68-1.62-4.22-4.44s3.27-3.68,5.47-2.77c3.22,1.31,6.65.68,9.7,1.63,4.67,1.47,4.48-.79,4.45-4.09C636.48,345.31,636.54,329.65,636.54,314ZM584,364.69c-.17-23.56.7-47.14-1.65-70.66-.37-3.73-1.62-3.9-4.29-2.43C572,295,566,298.42,559.85,301.74c-2.08,1.13-1.93,3-1.82,4.77.49,8.39-.21,16.72,1.4,25.22,1.8,9.47.13,19.39,1.92,29.16,1.44,7.9,1.2,16.25,1.26,24.22.13,14.95,2.67,29.7,2.43,44.61a48.05,48.05,0,0,0,0,5.5c.37,3.78,1.36,6.73,6,7.93,3.23.84,6.64.35,9.71,1.88,3.82,1.89,4.73.24,5-3.64.6-9.67-1.43-19.15-1.58-28.73C583.86,396.68,584,380.68,584,364.69Zm6.51,63.61c0,6.49.21,13-.07,19.48-.21,4.86,1.9,4.49,4.86,2.6,3.91-2.5,7.76-5.08,11.53-7.79a9,9,0,0,0,4-8.07c-.19-6.95-2.9-13.65-1.86-20.72a7.09,7.09,0,0,0-1.83-5.5c-2.33-3-1.92-5.37,2.28-5.81,2.83-.29,3.47-1.91,3.72-4.35.38-3.73-.94-6.64-4.11-8.42-4-2.26-5.14-5.67-5.09-10,.1-9.33.14-18.66,0-28-.13-6.93.66-13.87-1.22-20.81a10.3,10.3,0,0,1,3-10.93c2.44-2.23,4.83-6,0-8.56-4-2.15-5-5.47-5-9.49,0-5.16,0-10.33-.07-15.49-.06-2.6,1.27-6.25-.82-7.54-2.57-1.59-4.35,2-6.39,3.48a3.51,3.51,0,0,1-.88.46c-4.24,1.53-5.59,4.56-5.35,9,1,19.56-.07,39.11,1.33,58.75C590.44,376.38,588.45,402.41,590.55,428.3ZM499,278c0,7.43.22,13.43-.07,19.41-.19,4,2,5,4.85,4,5.13-1.74,10.48-2.44,15.61-4.06A303.3,303.3,0,0,0,559,281.72c10.75-5.12,21.14-10.92,31.86-16.07,1-.49,2.56-1,2.33-2.27-.34-1.9-2.13-1.05-3.31-1-9.46.32-18.63-1.63-27.91-3-15.23-2.31-29.07-9.06-43.88-12.5-9.35-2.16-15.37-2.57-17.9,9.82C498.58,264.33,499.86,271.85,499,278Zm144.11-64.77h0q0,17,0,33.92c0,6.12,1.39,6.9,7.39,5.91,8.57-1.4,17.22-2.42,25.88-3.24,5.33-.51,7.48-2.46,5.57-7.17-1.79-4.41-1.71-8.79-1.52-13.22.32-7.33-1.28-14.46-2-21.67-.87-8.41-2.83-16.72-4.48-25-.58-2.92-.65-7.62-4.12-7.47-7.4.33-14.32-2.37-21.63-2.25-4,.07-5.2,1.55-5.16,5.31C643.23,189.91,643.14,201.55,643.14,213.19Zm-38.15,40c9.09,0,17.73-.22,26.36.09,4.22.15,5.36-1.23,5.32-5.34-.2-20.65-.12-41.29-.13-61.93,0-13.82,0-13.82-13.69-12.88-.33,0-.72-.08-1,.07-3.45,2-9.78.39-9.92,6.32-.16,6.67-3,13-2.18,19.68a14.12,14.12,0,0,1-.43,4.92c-2.2,8.76-.74,17.85-3.22,26.75C604.21,237.66,606.4,245.36,605,253.15ZM518.27,199l-.63-1.47c5.67-2.82,11-6.34,17.13-8.23,2.66-.81,4.75-1.83,6.16-4.88,7.59-16.43,16.2-32.31,29.42-45,3.61-3.47,4.95-8.86,10.39-10.88,3-1.13.5-3.76-.37-5.48-1.21-2.43-3.6-2.21-5-.74-6.07,6.14-13.88,10.19-19.76,16.44-9.65,10.26-20.32,19.47-29,30.79-9.34,12.2-17,24.71-21.51,39.66-3.33,11,2.9,23.63,14.07,27.22,3.24,1,4.29.76,5-2.77,2.27-12.17,5.39-24.11,11-35.27.93-1.86,2.8-4.13.73-5.9s-3.94.69-5.83,1.45C526,195.51,522.16,197.3,518.27,199ZM494.46,456.54c-.23,4.8-1.06,9.66,1,14.26.43.94-.49,2.67,1.19,2.84s2-1.45,2.6-2.61c3-5.51,5.6-11.32,9.22-16.4,2.92-4.11,2.71-7.89,1.36-12.13a11.15,11.15,0,0,1-.77-2.86,364,364,0,0,0-3.17-36.37c-1.55-12-2.21-24.21-3.34-36.33-1.17-12.64-2.38-25.28-3.53-37.92-.24-2.56.14-5.12-3.69-5.08-4,.05-9-.48-10.07,4.16a31.07,31.07,0,0,0,.06,14.85c2.79,10.07,1.54,20.44,3,30.63,2,14.06,3.59,28.61,2.45,43.08a5.35,5.35,0,0,0,.1,1.49C493.47,430.83,491.72,443.87,494.46,456.54Zm193.8-221.06c0,3,.17,6,0,9-.27,3.79,1.94,4.28,4.69,3.57a169.45,169.45,0,0,1,25-5c1.8-.19,3.26-.87,3-3.14-.92-7-1.52-14-2.84-20.93-1.93-10.11-4-20.22-6.78-30.13-1-3.68,0-9.89-5.69-10.24-7.92-.47-15.64-2.77-23.64-2.27-2.26.14-2.4.89-2.17,3.13.55,5.53,2.4,10.78,3,16.33.43,3.85,1,7.78,1.51,11.69C685.44,216.86,688.83,225.89,688.26,235.48ZM572.5,235c0,5.05,0,9.21,0,13.38,0,1.64.22,3.3,2.24,3.11,7-.66,13.73,2.25,20.77,1.73,3-.22,3.59-1.21,3.54-3.88-.13-6.49-1.2-13.28.3-19.42,2.29-9.41,1-19,2.9-28.38,1.54-7.48,1.19-15.37,3.31-22.86.42-1.49.61-3.63-1.46-3.4-6.82.74-13.6,1.91-20.38,3-1.37.23-1.27,1.8-1.64,2.86-1.54,4.32-2.53,8.79-3.65,13.24C575,208.08,572,221.73,572.5,235Zm3.65-54.81c-10.5,2.46-19.78,3.66-28.39,7.55-1.15.52-2.28.53-2.92,2.18-5.71,14.7-11.06,29.47-13.86,45.09-1.22,6.79-.5,8.35,6.35,9.74,7.07,1.44,14.15,2.77,21.3,3.85,6.47,1,6.61,1.69,6.33-4.81-.43-10.31-.15-20.68,1.89-30.66C569,202.48,570.28,191.43,576.15,180.22Zm-60.4,146.37c0-1.67.08-3.34,0-5-.12-1.82-1-2.77-3-2.16a91,91,0,0,1-9,2.67c-3.23.63-3.77,2.78-3,5.14,2.29,7.5,2.43,15.27,3.6,22.9.79,5.07.44,10.26,1.71,15.17a94.52,94.52,0,0,1,3,21.92,25.1,25.1,0,0,0,.33,6c2.89,10.86,3.08,22.09,4.7,33.12.85,5.85,2.37,11.64,2,17.65-.06.9.67,1.85,1.06,2.77,1.38,3.23,4.9,3.19,7.22,3.32,2.09.11,1.54-3.45,1.14-5.09-1.84-7.54-1.29-15.18-1.43-22.79a3.22,3.22,0,0,0-.13-1c-2.77-8.79-2.37-18-2.8-27-.56-11.73-3.27-23.34-2.12-35.15a2.37,2.37,0,0,0-.09-1C515.37,347.83,519.19,336.85,515.75,326.59ZM731.48,240c6.64-2.3,13.54-3.72,20.29-5.71,1.59-.47,1.49-2,1.29-3.72-.61-5.16-3-9.74-4.18-14.69A127.69,127.69,0,0,0,738,186.4c-.85-1.62-1.46-3.4-3.83-3.32-4.82.18-9.42-1.52-14.09-2.29-4.39-.72-3.95,1.45-3.33,3.47,1.76,5.8,2.77,11.74,4,17.64a315.87,315.87,0,0,1,5.76,33.4C726.85,238.75,728,240.18,731.48,240ZM504.28,505.75c3.91,1,7.92-1.19,12.16-1.61A116.65,116.65,0,0,0,556.82,493c19.9-9.86,38.66-21.54,53.41-38.67,1.31-1.52,2.52-2.61,1-4.63-1.67-2.24-2.75-.42-4.06.44-14.26,9.31-27.72,19.94-43.32,27.08-10,4.55-18.91,11.13-29.46,14.42-6.27,1.95-12.45,4.79-18.85,5.46-5.69.59-11.2,3.29-17.11,1.9-1.47-.35-3.68-2.54-4.24.76-.46,2.71-.17,5.59,3.55,6C499.73,505.91,501.75,505.75,504.28,505.75ZM659.1,481.56c6.33,1.4,13.72-1.48,21.33-1.73,2.32-.08,3.5-1.42,3.61-3.88a81.24,81.24,0,0,0-1.81-21.16c-.41-1.86-1.53-2.25-3.31-2.08-10.75,1-21.23,4.28-32.14,3.87-2.49-.1-3.67.83-3.64,3.46.08,6,.06,12,0,18,0,2.56,1.07,3.61,3.59,3.55C650.37,481.5,654,481.56,659.1,481.56ZM594.89,139.18c-1.27-1-3.31-2.22-4.72-3.93-2.7-3.3-4.62-2.68-7.44.1a175.6,175.6,0,0,0-32.85,44.42c-.55,1.07-2.07,2.16-1,3.51.91,1.16,2.2.05,3.22-.23,6.48-1.78,12.88-3.85,19.39-5.49,4.3-1.09,6.77-3.7,8.14-7.72A94.72,94.72,0,0,1,589,150.31C590.92,147.19,593.49,144.22,594.89,139.18Zm5.61,129.63c-1.71.59-2.32.74-2.88,1-13.29,6.25-25.27,14.89-39.14,20.23-8.3,3.2-16.61,6.52-25,9.64a125.76,125.76,0,0,1-26.18,7.12c-6.87,1-13.52,3.49-20.48,3.74-5.29.2-3.43,3.86-3.59,6.45-.22,3.61,2.24,4.17,5,3.53,11.47-2.66,23.12-4.69,34.18-8.9q13.13-5,26.1-10.41C563.26,295,577,287,590.38,278.42,594,276.13,598.36,274.44,600.5,268.81Zm13.24,212.81v0c6.33,0,12.66-.05,19,0,2.35,0,3.86-.54,3.83-3.29-.07-6.16,0-12.33,0-18.49,0-1.36-.15-2.55-1.79-3.14-5.73-2.08-17.09.76-21.55,5.19a183,183,0,0,1-19.56,16.68c-.79.6-1.91,1.13-1.52,2.26s1.69.8,2.64.8C601.07,481.63,607.41,481.62,613.74,481.62ZM690,463.74h0c0,3.49,0,7,0,10.46,0,2.4.8,3.54,3.72,2.89,6.87-1.53,13.84-2.62,20.77-3.88a4,4,0,0,0,3.59-4.12c.1-6.8.08-13.61.06-20.42,0-2-1-3.33-3.13-2.66-5,1.6-10.22,2.25-15.34,3.34-9.78,2.08-9.71,2.4-9.72,12.9Zm4.19-292.26h4.39c6.27,0,6.3-.28,3.62-6-3.5-7.56-8.32-14.26-13-21-5-7.2-5-7.15-13.38-4.19-.62.22-1.29.3-1.93.46-2.95.74-3.33,2.69-2.8,5.36,1.21,6.12,3.84,11.85,4.73,18.08.32,2.21,1.08,5.5,4.1,5.56C685.07,169.76,689.83,172.84,694.21,171.48ZM467,298c3.6.48,4.45-.61,4.58-3.23.31-6.58-3.72-11.35-7.16-15.94-4-5.39-3.08-9.75.47-14.33,1.35-1.74,1.57-3,.1-4.75a53.68,53.68,0,0,0-12.63-11.06c-2.64-1.69-5.2-.18-6.12,2.31-1.22,3.33-1.64,7-2.23,10.5-.38,2.24.64,3.29,2.92,4.3,7.44,3.32,9.51,7.8,7,13.82-1.73,4.12-5,9.05.92,13.31C458.91,295.89,463.64,296.49,467,298ZM726.45,174.91c1.42-.47,3.6,1.42,4.47-.22,1-1.88-1.07-3.58-2-5.27-.77-1.45-1.82-2.74-2.68-4.14-4.29-7-8.6-14.07-14-20.22S700.8,133.46,695,127.77c-1.19-1.15-2.6-3.93-4.18-2.25-1.22,1.29-2.7,3.84-1.72,6.32a13.29,13.29,0,0,0,1.89,3.5,114.57,114.57,0,0,1,17.26,28.16C711.79,172,718,174.74,726.45,174.91Zm-1.54,279.27c0,5.28-.07,8.94,0,12.59.06,2.24,1.16,3.7,3.51,2.45,5.12-2.72,10.78-4.11,15.88-7,3.35-1.86,4.68-3.94,4.79-7.78.18-5.69-1.36-11.48,1.41-17.14,1.16-2.38-.69-3.63-3.38-2.46-3.92,1.72-7.75,4.13-11.86,4.85C725.65,441.44,722.63,446.74,724.91,454.18ZM759,275.2c-.44,18.19-.7,33.59-1.36,49-1.24,28.76-.37,57.61-.42,86.42a40.7,40.7,0,0,1-.52,5.93c-.25,1.65-2.15,3.71.54,4.63,2.06.71,3.11-1.5,4.28-2.82s.69-2.85.75-4.32c.37-10.13-1.21-20.2-1.34-30.24-.54-39.3-.22-78.61-.21-117.91a38.06,38.06,0,0,1,1-8.31c1.26-5.68.44-11.58.31-17.4,0-.85-.54-1.71-1.53-1.51a2,2,0,0,0-1.22,1.37,21.75,21.75,0,0,0-.32,4C759,255.33,759,266.66,759,275.2ZM643.13,157.28v3.5c0,6.54,0,6.52,6.59,6.52,1.48,0,3.49-.37,4.35.42,4.08,3.75,8.88,1.7,13.34,2,2.55.19,3.15-1,2.54-3.84-1.21-5.65-3.72-10.91-4.48-16.73-.38-2.9-1.46-7-6.49-4-1.27.76-3.25.36-4.9.48C643.78,146.35,643.11,147.05,643.13,157.28Zm-32.61-6.42c.79-4.66-1.57-5.87-3.92-6.69-3.64-1.28-6.44.23-8.48,3.35A108.46,108.46,0,0,0,589.2,164c-1.26,2.94-5.08,6.61-3,8.7,1.89,1.88,6.79-.52,10.11-.46,8.72.15,11.91-3.33,11.62-11.85C607.83,156.78,609.86,153.12,610.52,150.86Zm26,6.53c0-10.12,0-10.12-10.41-10.14a17.39,17.39,0,0,1-3,0c-4.41-.76-6.3,1.79-6.46,5.51-.18,4.63-1.75,9-2.41,13.49-.58,3.93,1,3.2,3.32,3.75,4.49,1.06,7.65-2.6,11.79-2.68,7.15-.14,7.14-.28,7.16-7.4C636.57,159.05,636.56,158.22,636.55,157.39Zm76-24.25c-.3,3.45,1.77,5.61,3.85,7.9a170.56,170.56,0,0,1,19.42,26.74c2.44,4,2.88,10.55,9.74,11.11,1.2.09,2.49,1.39,3.66.36,1.37-1.21-.09-2.53-.55-3.54a94.78,94.78,0,0,0-11.25-17.92C730.34,148.49,721.7,140.73,712.59,133.14Zm38.94,53.06c-3.48.56-7.1-.74-5,4,4.88,10.84,9.08,21.92,10.94,33.74.19,1.21.49,2.5,1.87,2.59s1.79-1.32,2.29-2.32a7,7,0,0,0,.18-6.27c-.91-1.89-.87-3.83-1.16-5.8-1.14-7.84-2.75-15.55-6.06-22.85C753.66,187.16,752.61,186,751.53,186.2Zm-185,272.39c0,2,.12,4,0,6-.27,3.64,1.65,3.72,3.79,2.08,4.22-3.22,9.42-4.87,13.28-8.65,2.81-2.74,2.55-4.29-1-6.19-2.51-1.32-5.25-.58-7.77-1.37-8-2.51-8.29-2.28-8.24,6.16C566.53,457.26,566.52,457.92,566.53,458.59Zm189.31-17.24h0a32.92,32.92,0,0,0,.06,5c.26,1.77-1.26,4.79,1.34,5,2.07.17,3.77-2.4,4.77-4.53a7.47,7.47,0,0,0,.29-2.94c0-3.66.17-7.32-.06-11-.1-1.65,1.28-4.7-1.89-4.53a4.55,4.55,0,0,0-4.5,5C755.92,436,755.84,438.69,755.84,441.35ZM483.29,410.51c-.9-.63,1.34-3.15-1.28-3-1.69.08-4.05.66-3.78,3.54.17,1.86.15,3.87,2.69,3.86C483.71,414.88,483.13,412.62,483.29,410.51Z" transform="translate(-22.32 -14.5)"/><path d="M450.19,646.35a25.79,25.79,0,0,0,7.28,6.29c5.19,2.91,5.11,5.13-.21,7.62-8.3,3.87-16.83,2.81-25.22.15a37.68,37.68,0,0,1-15.29-9.78C409.12,643,401.2,635.54,394,627.51a19.83,19.83,0,0,0-13-6.32c-6.18-.72-12.46-.61-18.64-1.81-2.39-.47-4.94.19-7.18-1.44a3.32,3.32,0,0,0-2.87-.37c-7.67,4.07-15.24-.48-22.85-.43-5.09,0-10.39-1.43-15.69-1.38-1.24,0-2.12-.8-3.06-1.51a16.91,16.91,0,0,0-10.14-3.36,114.21,114.21,0,0,1-24.88-3.38c-4.95-1.14-10.2-.79-15.26-1.18-6.92-.55-13.78-1.7-20.61-2.54-7.47-.93-15.15-.48-22.47-2.63a1.08,1.08,0,0,0-.49-.1c-9,1.43-17.39-2.78-26.34-3.11-6.92-.26-14.18-.48-21.05-2.49a5.33,5.33,0,0,0-2-.31c-8.84.92-17.61-1.14-26.11-2.4-10.08-1.49-20,.9-29.87-1.07-12.61-2.53-25.57-2-38.16-4.71-2.34-.49-4.47-.44-5.69,2.5-.82,2-2.7,2.83-5,1.37-2-1.31-5.62-2.12-4.3-5.12,2.43-5.54,1.11-11.5,2.93-17.09,2.08-6.37,4.12-7.4,9.79-3.89,3.29,2,7.58,2.41,10.91,2.4,6.88,0,13.41,1.9,20.2,2.19,7.7.32,16,.53,22.84,3.58,13.55,6.1,28,4.33,41.74,7.25,10.85,2.3,21.86,2.75,32.74,4.36,7.24,1.07,14.42,3.55,22,2.79-6.36,1.88-12.92.23-19.35,2.21,3.21.72,6.39,1.86,9.64,2.06,12.2.78,24.25,3.23,36.09,5.62,11.4,2.29,23.3,1.65,34.43,6.36,5.32,2.25,12.08.44,18.08,2.17,2.3.66,4.88.14,7.28,1.23,1.9.85,3.65.29,3.9-2.28.2-2.07-.19-3.73-2.73-3.78-14.84-.25-29.15-4.43-43.81-6.17-10-1.19-20.3-1.64-30.19-4.37-3.19-.88-6.83-.14-10.27-.79a12.59,12.59,0,0,1,10.61-.86c3,1.14,5.8,1,8.71,1.4,12.87,1.79,25.86,2.4,38.72,4.58a157.32,157.32,0,0,0,17.17,1.89,77,77,0,0,0,16-1.1c7.83-1.2,16,.76,23.92,2.54,3.88.88,7.86-.18,11.81,1.34,2,.77,3.31-2.3,4.41-4.11s2.36-4.09,4.94-3.24,4.85,2.54,5,6.06a8.66,8.66,0,0,0,13.05,7.19c2.41-1.33,4.12-3.38,2.91-6.61-.88-2.32-1.32-4.82-2.32-7.09-3.92-8.91-3.27-18.16-2.25-27.45.11-1,.54-1.89-.28-2.78-8.79-9.55-10.78-22.59-17.11-33.41-.17-.28-.49-.65-.42-.88,2.29-7.39-3-12.71-5.77-18.3-6-12.2-10.43-25.1-17.1-37-1.42-2.53-2.64-4.59-6-5.25-6.46-1.29-8-7.72-10.62-12.34-9.07-16-17-32.67-25-49.3-7-14.62-14.29-29.08-21-43.8-3.24-7.07-6.31-14.22-9.59-21.28-1.9-4.12-4.53-6.3-8.83-7.8-8-2.8-15.8-6.41-19.11-15.38-.64-1.73-1.51-3.33-1.33-5.24.23-2.52-.91-4.35-2.58-6.21-3.15-3.51-4.71-8.1-7.22-12.07-1.75-2.76-1-7.18,2.1-10.51,4.85-5.13,10.54-9.14,16-13.42,2.67-2.08,5.73-3.61,3.6-8.33,3.61,3,6.76,5.55,11.57,5,3-.35,3.88-2.23,4.92-4.2,1.25-2.38-1.26-2.54-2.35-3.56-2.6-2.41-4.07-4.37-2.75-8.88,2.81-9.62,5.16-19.39,8.54-28.85a2,2,0,0,0-.69-2.62c-1.43-.87-1.92.52-2.84,1.13-10.85,7.18-22.29,12.76-35.73,12.67-.5,0-1.15.19-1.48,0-4.67-3.33-9.08-1.62-14-.24-3.39.94-6.46,1.48-9.29,3.9a220.27,220.27,0,0,1-40.32,27.65c-3.49,1.84-6.69,4.23-10,6.39-2.75,1.78-5.37,2.09-8.37.22-1.88-1.17-4.13-2.17-6.31.18-4.94,5.33-10.66,5.47-16.79,2.14-2.79-1.52-5.46-1.61-8.89-1.47-12.36.49-25,2.66-36.47-5.82a37.26,37.26,0,0,0-24.89-7.11c-3.44.24-6.89-.63-8.29-4.14-1.68-4.24.14-9.58,3.72-11.72,4.11-2.45,1.76-4.15-.48-5.9-5.36-4.19-11.62-4.36-18-4.08-3.47.14-6.42-3.1-5-5.49s3.45-5.05,5.88-6.34c7.53-4,15.87-2.37,23.93-2.47a2.51,2.51,0,0,1,2.64,2.46c-.14,1.45-1.85,1-2.94,1-4.84,0-9.67,0-14.5,0-1.49,0-3-.21-4.39.62-.69.42-1.61.77-1.39,1.8s1.2,1,2,1c9.71.22,18.46,3.73,27.05,7.83a27.55,27.55,0,0,1,8.56,6.73c1.23,1.37,2.87,2.77,1.81,4.75s-3.29,1.44-5,1.2c-3.43-.48-6.71-1.83-10.29-1.53-2.47.2-5.47-.44-6,3s2.44,3.11,4.62,3.9c13.65,4.88,27.24,9.94,40.83,15,3.91,1.45,7.93,1,11.83.52,2.71-.33,3.47-2,1.38-4.6-5.22-6.4-8-13.86-9.87-21.93C96.12,227,88.53,218.86,77.2,214.39c-9.44-3.73-19-5.39-28.79-.87-1.45.67-3.92,1.16-4.4-.58-.65-2.34,2.11-1.74,3.45-2.35,11.34-5.21,22.48-4.6,33.42,1.19a49.1,49.1,0,0,1,12.55,9.6c1.83,1.9,3.4,3.89,4.19-.92a8.45,8.45,0,0,1,5.64-7.08c2.66-.89,3.92-3.37,5.79-5.2,6-5.87,12.34-11.36,20.08-15,8.83-4.11,17.43-8.74,26.69-11.85,2.21-.75,2.33-1.71,1.61-3.69-2.93-8.06-6-16.16-6.93-24.73-.71-6.76-.32-13.63-.5-20.44-.05-1.84,1.13-5-3-3.16-1,.43-2-.34-2-1.6.06-3.08-.94-6.77,2.56-8.52,3.69-1.85,5.21-4.77,6-8.5a31.41,31.41,0,0,1,1.76-4.13c6-15.7,16.68-27.76,30.12-37.34,7.15-5.09,15.63-7.54,24.15-9.73,10.53-2.7,21.19-1.64,31.74-1.32,7.15.22,14.06,3,20.27,7,.56.36,1.16.63,1.72,1,2.94,1.82,4.66,2.13,4.33-2.45a100.12,100.12,0,0,1,0-15.49c.73-8.7,1.49-17.41,5.71-25.42a21.66,21.66,0,0,1,5.71-6.8c3.75-3,9.66-1.4,13,4.23a85.84,85.84,0,0,1,9.41,24c2,8.31,4.27,16.54,5.09,25.09.23,2.39,1.78,1,2.93.46,5.15-2.36,10-.1,10.12,5.47.09,4.25,2.34,8,1.89,12.24-.17,1.53.48,2.69,2.39,2,3.93-1.53,7.88-3,11.51.59s4.26,8.32,3.48,13c-1.26,7.47-2.76,15-8.4,20.74-1.31,1.34-2.42,2.84-4.5.87-1.64-1.57-1.58-2.66-.38-4.64,3.83-6.31,6.44-13.09,5.87-20.71-.12-1.65.26-3.6-1.54-4.45s-3.24.59-4.5,1.52a60,60,0,0,0-5.1,4.76,3.79,3.79,0,0,1-4.18.73c-1.63-.62-1.31-2.14-1.32-3.44,0-5.66,0-11.33-.06-17,0-1.29,0-3-1.6-3.26-1.92-.32-1.65,1.68-2.21,2.75a15.48,15.48,0,0,0-1.36,5.78,4,4,0,0,1-4.13,3.63c-2.47.08-1.95-2.07-2.27-3.64-2.95-14.49-3.44-29.53-8.51-43.47-2.32-6.39-3.59-13.5-8.42-18.91-2.69-3-4.22-2.92-6.32.65-4.11,7-5.52,14.77-5.95,22.69-.34,6.32,0,12.67-.06,19a22.91,22.91,0,0,0,5,14.47c3.65,4.9,6.11,10.66,8.26,16.44,1.46,3.94,3.14,6.82,8.36,6.6,6.56-.28,12.27,8.92,10,15.16-.35.93-.62,1.9-1,2.82-1.82,4.38-1.07,5.76,3.5,5.89,8.32.25,16.35,1.54,23.69,5.81,3.95,2.3,7.42.71,10.6-1.7s7.23-6.11,6.15-9.52c-1.95-6.2-.95-12.19-1.2-18.24-.4-9.92,4.8-16.44,13.43-20.8,8.05-4.07,16.65-5.63,25.43-7.23,9-1.64,17.76-5,26.72-7.08,10.58-2.51,20.77-6.23,30.94-9.84,11.19-4,22.49-8.09,32.08-15.48,2.76-2.13,5.62-2.85,8-.3,2.52,2.71.47,5.19-1.64,7.32-5.36,5.42-12,8.83-18.93,11.55-10.16,4-20.34,7.93-30.71,11.28-14.38,4.64-28.78,9.21-43.74,11.93-8.69,1.58-17.64,2.76-25.46,7.7-5.41,3.42-8.19,11.89-6.89,18.12,1.9,9.13,3.05,18.39-5.46,25.74-5.41,4.67-5,5.77,1.31,9.09,7,3.66,14.11,6.71,22.32,5.81,1.82-.2,3.68,0,5.29-1.08,1.43-.94,4.33,0,4.33-2.49,0-2-2.52-.93-3.69-1.71s-2.78-1.75-2.18-3.48,2.28-1.18,3.52-1a32.54,32.54,0,0,1,8.13,1.92c8.46,3.44,14.73-1.79,21.42-4.79,3.69-1.66,3.49-5.45.15-8.24-1.93-1.63-1.91-2.56.55-3.31,3.74-1.14,7.45-2.38,11.21-3.44,6.79-1.92,7.91-3.4,7.44-10.44-.09-1.35.2-2.63,1.66-2.46,4.29.49,6.26-2.78,8.55-5.23a43.23,43.23,0,0,0,7.21-10.53c.45-.9,1-1.92.29-2.8-1.06-1.32-2.11-.13-3.08.33-6.26,3-12.49,6-19.27,7.78-1.9.5-3.79,1.55-4.55-.83s1.46-3.09,3.24-3.61a104.1,104.1,0,0,0,19.23-7.86c9.13-4.81,17.48-10.51,23.37-19.28,1.72-2.57,4.79-4,6-7.21.53-1.41,2.28-1.31,3.54-.75,1.51.68.73,1.74.35,2.91-1.13,3.5-3.47,6-6.21,8.21-9.7,7.75-15.41,18.39-21.44,28.88-3,5.25-6.12,10.69-12.29,13.12-2.26.88-2.63,2.79-1.5,4.44,1.45,2.11,2.63,0,3.46-.93,1.78-2.1,4.9-1.87,6.62-4.19.77-1,1.76,0,2,1.11,2.34,9.81,3,19.12-2.17,28.77-5.57,10.36-10.67,21-17.22,30.76-8.63,12.82-17.45,25.79-32.27,32.63-1.42.65-2.66,1.38-3,3.07-.92,4.69-4.38,7.57-7.58,10.63-5.63,5.4-11.2,10.84-13.61,18.59-.45,1.45-1.11,3.16.72,3.91s2.61-.75,3.41-2.12c1-1.71,2.19-3.32,3.28-5,.59-.89,1.37-1.68,2.43-1.06s.84,1.69.24,2.62a48.16,48.16,0,0,0-6.66,17.53C374,264.34,372,273,374.1,282.42c1.6,7.3,2,15,3.86,22.38A103.25,103.25,0,0,0,394.32,340c7.51,10.45,17.5,16.94,29.5,20.63,5.5,1.69,11.37,2,16.82,4,1.15.43,2.95-.23,3.21,1.66s-1.22,3.22-2.66,3.85a27.42,27.42,0,0,1-17.57,1.6c-15.37-3.77-27.84-12.67-37.08-25-4.28-5.75-10.72-7.79-15.15-13-6.81-8-13.71-15.8-18.18-25.35a64.69,64.69,0,0,1-5.9-24.76c-.3-6.81-.09-13.66,0-20.49,0-2.2-.44-3.59-2.95-4.38a23.4,23.4,0,0,1-9.1-5.07c-2.08-2-2.79-.71-3.38,1.07-1.82,5.42-3.78,10.8-5.24,16.31-.53,2-1.1,3.14-3.13,2.85-4.41-.64-5.85,2.3-6.92,5.6-3,9.37-7.25,12.8-17.1,13.66-1.33.11-2.87,0-3.57,1.31-2.54,4.86-7.83,7.5-10.35,12-2.67,4.75-6.13,9.63-2.26,16.34,6,10.45,12.17,21.25,15.53,32.7,4.86,16.53,13.33,31.33,19.58,47.15,3.92,10,10,19.06,14.22,28.91,7.88,18.32,17.45,35.83,25.51,54,4.68,10.58,8.79,21.82,15.52,30.84,7.66,10.26,13,21.51,17.67,32.85,3.39,8.21,8.71,15.38,11.29,23.89,1,3.41,3.24,4.36,6.53,2.36,2.34-1.43,4.74-1.08,5.88,1.52s-1.12,3.82-3.11,4.71c-3.83,1.72-3.41,4.31-1.72,7.32,2.17,3.85,6,5.62,9.55,7.7,10.51,6.2,20.46,13.31,31.86,18.05,4,1.68,7.65,4.92,8.36,10.26a28.67,28.67,0,0,0,3.21,8.79c2,3.92,1,8.47,3.14,12.35,1,1.82-.17,3.53-1.77,4.73s-3.44.86-5.08-.24c-2.78-1.87-5.54-3.77-8.31-5.65C450.81,645.49,450.5,645.92,450.19,646.35ZM258.35,175.18c-3.24,4.76-6.33,8.48-8.49,12.67-2.39,4.64-6.37,7.63-9.81,11.18-7.81,8.05-24.36,11.85-34.06,2.16-1-1-2.3-2.73-3.77-1.38-4.44,4.1-10.1,5.45-15.5,7.39-1.95.7-2,1.68-.72,2.82,2.31,2.07,4.14,4.55,7.14,6.06,6,3,12.52,3.42,18.75,5.12,8.71,2.37,16.86.56,24.92-1.4A64.14,64.14,0,0,0,261,208.41c4.42-3.43,10.08-6.69,11.13-12.2,1.19-6.2,2.77-12.62,1.92-19.17a14,14,0,0,1,.92-6.32,75.6,75.6,0,0,1,19.42-30.92c1.75-1.68,3.35-4,1.56-5.55-5.16-4.61-1.42-7.23,1.58-10.3a21.79,21.79,0,0,0,2.63-3.59c2.3-3.59,1.9-7.09-1.07-10-1.82-1.77-10-.56-11.1,1.91-1.77,3.85-5.84,5.94-7,10.12a2.63,2.63,0,0,1-3.92,1.85c-2.25-1-.58-2.43-.1-3.71,1.24-3.37,4.24-6.07,3.83-10.09-.15-1.39-.5-2.66-1.82-3.34-1.58-.83-2.52.38-3.38,1.34a11.33,11.33,0,0,1-4.37,3.22c-1,.4-2.13,1.52-3.07.15-.78-1.12-.14-2.24.73-3.13q3.15-3.19,6.34-6.37c1.65-1.63,3.17-3.51.87-5.47s-3.15.71-4.33,1.86c-1.9,1.85-3.57,4-5.54,5.74-1.44,1.31-3.62,1.85-5,.37-1.65-1.79.58-2.84,1.65-4,2.55-2.63,5.07-5.3,7.73-7.8,2.44-2.3,2.36-4.39.34-7-10.74-13.58-25.19-19.09-42-19.94-3.51-.18-6.3,1.73-9.64,1.88-13.79.63-25.62,6.28-35.82,15.21a68.59,68.59,0,0,0-20.6,30.37c-1.76,5.3-2,5.58,3.56,6,6.1.44,9.29,4,9.16,10,0,2-.41,3.76-2.19,4.69-2.1,1.11-3.42-.59-4.64-1.91-2.1-2.28-4.74-3.93-7.47-2.22-2.37,1.48-3.38,4.44-3,7.47.44,3.3,1.21,6.57,1.38,9.88.67,13.07,5.4,24.77,11.68,36,1,1.88,2,1.93,3.9,1.17,3.17-1.26,4.71-4.16,7.1-6.17,2.06-1.73,4.22-3.43,6.49-1.12s.22,5.07-1.55,6.33c-8.35,6-14.92,15.71-27.35,13.49-1.08-.19-2.53-.19-2.81,1.34-.21,1.17.82,1.74,1.72,2.17a11.45,11.45,0,0,0,3.66,1.49c13.52,1,26.48-.36,37.68-9.13,4.36-3.42,7-3.09,9.34,1.89,1.48,3.2,3.79,4.52,6.65,5.31,9.36,2.6,23.19-3,28.39-11.13a73.28,73.28,0,0,1,6.59-9.27C252.8,178.1,254,175.28,258.35,175.18ZM271.77,303c9,.85,14.08-2.21,18.09-8.9,2.15-3.59,1.17-4.67-1.62-5.8-8.57-3.47-15.64-9.16-22.73-14.88a11.19,11.19,0,0,0-10.77-2.3,50.31,50.31,0,0,1-6.28,1.14C240,273.88,233,277.91,229,286c-1.87,3.76-1.65,7.19,2.77,9,2.53,1.07,2.78,3.05,3.48,5.41,1.24,4.12.08,9.37,4.3,12.16a7.45,7.45,0,0,1,3.64,5c.7,3.64,2.87,5.26,6.35,4.76,3.64-.53,4.95-3.2,4.51-6.58-.71-5.38,2.35-9,6.51-10.55C264.37,303.78,268.68,302.25,271.77,303Zm104.82-85.73c-1.74-.09-2.78-.42-3.61-.14-10,3.38-20.39,4-30.87,3.62-2.46-.09-2.52,1.67-3.23,3.49-2.13,5.51-.87,11.49-2.88,17-.72,2-1,4.91,1,6,7.71,4.35,15.59,8,25,4.9,3.58-1.2,4.56-2.57,3-6.06-1.77-4-1.37-7.93.45-12A64.94,64.94,0,0,1,376.59,217.22Zm-18.8,43.44c-1.65.52-4.87-.79-4.86,1.09,0,4.86-4,9.2-2.13,13.92,2.53,6.3.7,13.17,3.21,19.39,3.09,7.62,5.42,15.66,12,21.27,1.08.92,2.49,2.34,3.94,1.36s1-3.05.54-4.6c-4.39-15.09-6.59-30.31-3.38-46,.34-1.64,1.37-4.45-1.55-5C363,261.7,360.61,260,357.79,260.66ZM300.17,288.1A8.3,8.3,0,0,0,307.1,286c3-2.79,6.2-6.64,5.24-10.57-.86-3.56-5.5-3.26-9.06-3.39a58.29,58.29,0,0,1-14.49-2.65c-6.27-1.87-12.53-3.75-18.73-5.82-2.3-.76-3,.61-3.79,2.08s-1,3.21.43,4.55c7.75,7.07,17.08,11.66,26.38,16.16C295,287.34,297.52,288.74,300.17,288.1ZM400.28,598.29c-4-.27-4.38,3.6-6.31,5.61-3.37,3.51-2.54,8.34,1.69,10.72,9,5.08,18.21,9.9,27.21,15,2.51,1.42,4.24,1.23,6.06-.86,2.11-2.42-.16-3.61-1.41-4.89-7.9-8-15.88-16-23.78-24A4.28,4.28,0,0,0,400.28,598.29ZM100.88,226c.06,3.27-.2,6.47.81,9.81,3.91,12.88,13.4,21.44,22.5,30.37,1.17,1.15,2.68,1.17,4.2,1s2.77-.28,3.25-1.8-.47-2.56-1.52-3.42c-1.92-1.57-4.22-2.51-6.1-4.24-11.34-10.48-17.32-23.45-18.45-38.75-.1-1.38-.07-2.87-1.89-2.9a2.63,2.63,0,0,0-2.74,2.42C100.74,221.05,100.88,223.55,100.88,226ZM343.71,462.27l-1.87.81c5.75,17.95,17,33.59,23.09,51.41.73,2.15,1.55,4.81,5.73,5.1C361.5,500.12,352.61,481.19,343.71,462.27Zm42.81,112.89a32.1,32.1,0,0,0,0,3.7c.19,1.52-.85,3.63,1.38,4.29,1.87.56,3.31-.56,4.89-1.7,3.15-2.27.61-4.57.29-6.69-.44-3-.48-8.06-3.79-7.81C385.13,567.28,386.93,572.27,386.52,575.16Zm40.19-447.38c-2.95,1-4.82,2-7,2s-2.2,1.57-2.25,3.11c0,1-.3,2.24.68,2.71,1.66.82,2.17-1,3-1.81C422.79,132.16,424.27,130.44,426.71,127.78Zm-114,295.1-1.38.67c.85,3,1.44,6.08,4.14,8l1.3-.74Zm-12.6-25.16c.58,4.72,2.44,7.29,4.29,9.88C303.58,404.53,304.16,401,300.08,397.72Zm29,34.64c-4.95,1.89-3.7,3.78-2.44,5.86.5.81.65,2.23,1.83,1.48C332.2,437.3,326.11,435.59,329.06,432.36Zm-23.88-22.15q2.6,5.3,5.2,10.57C309.4,416.9,308.87,412.85,305.18,410.21ZM297,393.31c.65-3.56-.12-6.46-2.72-8.26l-1.31.75C294.31,388.31,295.66,390.81,297,393.31Z" transform="translate(-22.32 -14.5)"/><path d="M683.25,829.63c4.78-2.35,8.55-3.52,11.34-6.59a17.49,17.49,0,0,0,5-12.12c0-27.5.14-55,0-82.5A18.36,18.36,0,0,0,681,710.25q-216.73,0-433.49,0c-11.3,0-19.46,8.27-19.45,19.5q0,39.25,0,78.5c0,9.4,3.7,16.34,13,19.62.86.3,2.07.33,2.33,2.1-4.37.54-7.56-1.71-10.47-4.24-4.63-4-6.6-9.07-6.54-15.46.26-27,.11-54,.1-81,0-13.14,7.87-21,21.09-21q216.5,0,433-.18c10.86,0,21.6,9.27,21.36,21.27-.53,27.32-.1,54.66-.1,82C701.74,821.29,693.26,830.44,683.25,829.63Z" transform="translate(-22.32 -14.5)"/><path d="M419,393.7c-.92-7,5.74-7.77,9.35-10.84s8.05-5,11.83-7.88a20.75,20.75,0,0,0,6-7.12c5.72-11,10.1-22.91,20.45-30.87,1.63-1.26,3-4.19,5.25-2.54,2.79,2-.44,3.55-1.42,5.19-4,6.62-5.63,14.07-7.29,21.44-3.28,14.51-11,26-22.66,35a33.68,33.68,0,0,1-9.53,5C424.53,403.47,419,400,419,393.7Z" transform="translate(-22.32 -14.5)"/><path d="M298.62,773.78c-5.93,2.17-6.82,7.87-9.85,12-4.69,6.36-8.84,6.69-14.21.94-2.32-2.48-4.39-3.78-7.71-2.42-.94.38-2.37,1.05-2.71-.87-.24-1.37.29-2.4,1.77-2.38,3.68.06,3.81-2.35,2.91-4.69-2.95-7.6-5.36-15.42-5.61-23.5-.21-6.89-.43-14.3,6.14-19.36,4.53-3.49,8.71-3.47,12.85.61,4.93,4.86,7,11,8.34,17.68,1.29,6.36,2.36,12.65,2,19.16C292.26,775.91,296,773,298.62,773.78Zm-8.8-8.91c0-1.67.08-3.33,0-5a50.41,50.41,0,0,0-5.75-20.41,9.94,9.94,0,0,0-9.35-5.58,7,7,0,0,0-6.56,4.66,35.33,35.33,0,0,0-2.57,10.53c-.36,8.14,1.76,15.71,4.32,23.22,2.4,7.07,2.48,7,9.64,5.44C289.8,775.44,289.8,775.44,289.82,764.87Zm-8.88,23.46c2.15-1,5.08-.65,6-3.62.41-1.29.61-2.74-.53-3.71-2.22-1.89-4.31-.74-6.34.52-.28.17-.6.29-.87.48-1.23.89-4.35-.2-3.39,2.93C276.54,787.24,278.75,787.83,280.94,788.33Z" transform="translate(-22.32 -14.5)"/><path d="M295.45,730.3c2.42,11.15,4.62,22.39,10.82,32.25a105.8,105.8,0,0,0,8.92,12.59c4.91,5.76,3.25,11.26-4,14s-7,2.63-5.2,9.66c1.27,5,2.07,10.07,3.1,15.11.35,1.71,0,3-1.93,3.33s-2.09-.85-2.39-2.32c-1.46-7.12-3.16-14.19-4.54-21.33-.73-3.74,2.8-6.85,8.18-7.6s6.41-2.75,3.8-7.39a42.11,42.11,0,0,0-4.16-5.58c-9.93-12.39-13.23-27.34-16.22-42.36-.42-2.09-1.77-5.91,1.83-6S294.84,728.33,295.45,730.3Z" transform="translate(-22.32 -14.5)"/><path d="M488.08,743.05c-2.27,4.85-1.16,8.25-.91,11.65.15,2,.87,4.75-2.35,5.09-3.69.38-3.21-2.55-3.24-4.8q-.09-9,0-18c0-1.94-.32-4.19,2.64-4.48,2.73-.26,4.1.82,5.07,3.54,1.26,3.57,1.51,7.74,5.57,11.48,0-4.31,0-7.55,0-10.79,0-2.19.42-4.13,3.19-4s2.43,2.35,2.44,4.09c0,6.48,0,13-.05,19.44,0,1.69,0,3.48-2.4,3.6-1.93.11-3.44-.17-4.23-2.46C492.22,753,490.31,748.62,488.08,743.05Z" transform="translate(-22.32 -14.5)"/><path d="M475.58,747.34c0,1,0,2,0,3-.26,8.84-6.05,12.74-14.38,9.4-3.35-1.34-3.7-5-4.27-8a26.94,26.94,0,0,1,1.88-16.1c2.12-4.87,6.53-3.37,10.4-3.17,3.48.18,5.58,1.78,5.84,5.43.22,3.14.51,6.28.77,9.41Zm-5.73-.84h0c0-2,0-4,0-6,0-2.66-1-4.65-4-4.57-2.81.07-3.4,2.37-3.48,4.55-.17,4.13-.11,8.26-.05,12.39,0,2.59,1.33,3.91,4.05,3.83,2.56-.07,3.47-1.46,3.44-3.81C469.83,750.79,469.85,748.64,469.85,746.5Z" transform="translate(-22.32 -14.5)"/><path d="M376.5,756.66c1.83-7,3.62-14.25,5.66-21.43.61-2.15,2.52-2.82,4.78-2.76a3.61,3.61,0,0,1,3.83,3.18c1.53,7.11,3,14.24,4.53,21.36.31,1.43.46,2.75-1.52,2.89-1.76.12-3.59-.06-3.63-2.35,0-2.55-.72-4-3.62-4.16s-4.16,1.3-4.74,3.9a3,3,0,0,1-3.63,2.6C376.23,759.65,376.39,758.26,376.5,756.66Zm11.73-13.27c-.25-1.42.44-4-1.27-3.76-3.31.42-1.64,4-2.68,6.09A1.59,1.59,0,0,0,386,748C389.07,747.68,387.77,745.06,388.23,743.39Z" transform="translate(-22.32 -14.5)"/><path d="M400.82,744.83c0-3,0-6,0-9,0-1.38.33-2.8,2-2.93,1.95-.15,2.6,1.23,2.63,2.89.06,4.49,0,9,.08,13.49a24.73,24.73,0,0,0,.54,4.93,3,3,0,0,0,2.86,2.4,3.2,3.2,0,0,0,3.56-2.09,15,15,0,0,0,1.47-6.25q-.12-6,0-12c0-1.49-.67-3.73,2.07-3.59,2,.1,2.11,1.86,2.11,3.36,0,5.66.15,11.34-.16,17-.31,5.48-3.83,8.19-9.49,7.87-4.84-.28-7.64-3.31-7.82-8.57-.08-2.5,0-5,0-7.5Z" transform="translate(-22.32 -14.5)"/><path d="M355.63,745.65c.06-10.72,4.78-15.53,12.74-13.13,3.23,1,4,3.19,3.73,6.13-.1,1.07-.48,2-1.73,2a1.68,1.68,0,0,1-1.8-1.4c-.59-2.25-1.47-4.48-4.27-3.65s-3.52,3.29-3.48,6c.07,3.65,0,7.32.3,11,.16,1.71.74,3.8,3.06,4,2.52.26,3.48-1.51,4-3.57.34-1.25.29-2.94,2.2-2.7,2.14.27,1.8,2.12,1.71,3.54-.18,3.12-1.58,5.91-4.88,5.88s-7.64,2.2-10-2.91C355.5,753.15,355.67,749.45,355.63,745.65Z" transform="translate(-22.32 -14.5)"/><path d="M338.5,801.84c0-6.56-.42-13,.44-19.17.13-1,6.19-2.6,9.44-1.12,2.18,1,3.49,1.34,5.79.06,4.23-2.35,7.66-.36,8.09,4.48.38,4.29.17,8.64.16,13,0,1.13,0,2.61-1.51,2.71-2,.12-1.85-1.58-1.87-2.85-.07-3.49,0-7,0-10.48,0-2.14.39-4.59-2.75-4.93s-4.11,1.94-4.33,4.35c-.34,3.79-.28,7.62-.41,11.43,0,1.12.3,2.77-1.24,2.78s-1.23-1.67-1.24-2.77c-.05-3.65-.19-7.32,0-11,.14-2.72-.43-4.83-3.5-4.8-2.87,0-4.61,1.8-4.71,4.76-.11,3.49,0,7-.07,10.47C340.75,799.87,340.83,801.13,338.5,801.84Z" transform="translate(-22.32 -14.5)"/><path d="M569.45,797c2.3-4.45,2.75-8.35,3.62-12.15.3-1.3.35-3.4,2.33-3.36s1.89,2,2,3.44c.22,4,2.29,7.65,2.17,11.82,1.44-3.37,3-6.63,2.83-10.39a6,6,0,0,1,.66-3.87c.7-1,1.66-1.73,3-1.19s1,1.49.73,2.52c-1.51,5.41-3,10.83-4.44,16.26-.27,1-.42,2.08-1.64,2.18s-1.35-1.11-1.83-2c-1.81-3.3-1.39-7.16-2.77-10.56a1.84,1.84,0,0,0-1.66-1.45c-.63,3.47-1.21,7-1.94,10.46-.32,1.56-.4,3.6-2.6,3.74s-2.08-1.79-2.41-3.17c-1.21-5-2.4-10-3.51-15-.22-1-1.18-2.58.55-2.91s1.8,1.34,2.08,2.68C567.35,788,568.32,792,569.45,797Z" transform="translate(-22.32 -14.5)"/><path d="M669.05,752.45c-.08,2.51.31,6.2-.85,9.76-1.46,4.45-6.75,6.64-10.46,4.25-1.18-.76-2.83-2-1.6-3.59s1.91.27,2.67,1c1.79,1.7,3.58,1.48,5.32,0a2.57,2.57,0,0,0,1.17-2.59c-.32-1.2-1.45-1.33-2.44-1.21-3.88.45-7.55-.5-8.41-4.45-1.1-5-1.38-10.38,2.57-14.63,2.89-3.11,6.7-1.33,10-1,3,.27,1.86,3.39,2,5.37S669.05,749.31,669.05,752.45Zm-3.1-1.63a36.55,36.55,0,0,0-.77-5.86c-.49-1.73-1.42-3.58-3.68-3.49s-2.92,1.92-3.44,3.73c-.94,3.26-.7,6.58-.34,9.88.17,1.53.87,2.89,2.68,3.16s3.19,0,4.31-1.64C665.94,754.77,665.77,752.83,666,750.82Z" transform="translate(-22.32 -14.5)"/><path d="M614.75,745.44c0,3.66,0,7.32,0,11,0,2.46-1,3.45-3.58,3.63-9.14.64-10.44-.47-10.42-9.68,0-2-.08-4,.06-6,.28-3.83,2.87-6.22,6.23-5.65,4,.67,4.7-.57,4.53-4-.07-1.29-.74-3.57,1.55-3.45,1.86.09,1.66,2.21,1.69,3.65.06,3.5,0,7,0,10.49Zm-3.08,4.34a22,22,0,0,0-.56-4.56c-.59-1.82-1.26-4.07-3.72-4.08-2.73,0-3.45,2.2-3.86,4.39a23.58,23.58,0,0,0,.18,8.86c.35,1.77.43,3.73,3,3.86s4-1.47,4.55-3.7A28.52,28.52,0,0,0,611.67,749.78Z" transform="translate(-22.32 -14.5)"/><path d="M429.05,747.34c0-2.33-.06-4.65,0-7,.09-2.53-.05-4.75-3.49-4.59a1.48,1.48,0,0,1-1.69-1.44c-.05-1.27.86-1.76,1.93-1.77,4.15,0,8.3,0,12.45,0,1.13,0,2,.54,1.86,1.8s-1.17,1.55-2.17,1.48c-3.59-.26-4,1.88-3.94,4.74.11,5.14.05,10.3,0,15.44,0,1.73.53,4-2.44,3.82-2.62-.16-2.5-2.19-2.52-4C429,753,429.05,750.16,429.05,747.34Z" transform="translate(-22.32 -14.5)"/><path d="M524,788.22c0,2.33,0,4.66,0,7,0,7.33,0,7.33-7.32,7.56-4.06.13-6.28-2.34-6.58-7.67a45,45,0,0,1,.19-8c.54-4.36,2.54-7.36,7.61-6,3.94,1,3.58-1.44,3.56-3.88,0-1.13,0-2.66,1.61-2.49,1.29.14.94,1.55.94,2.48,0,3.66,0,7.32,0,11Zm-3.23,3.44c-.31-3.13.48-8.22-3.5-8.41-4.91-.23-4.8,4.85-4.63,8.68.14,3.24-1.28,8,3.73,8.17C521.72,800.23,520.51,795.29,520.8,791.66Z" transform="translate(-22.32 -14.5)"/><path d="M557.91,759.57c-1.13-2.78-.38-5.79-.62-8.68-.18-2.15-.17-4.32-.55-6.43a3.51,3.51,0,0,0-3.85-3.18c-2,.17-2.75,1.9-2.84,3.58-.19,4-.11,8-.21,12,0,1.24.28,3-1.78,2.83-1.51-.11-1.55-1.53-1.55-2.7q0-11.73,0-23.46c0-1.24.2-2.48,1.83-2.35a1.74,1.74,0,0,1,1.47,2.22c-.84,5.41,1.94,6.68,6.64,6.16,1.37-.16,3,.59,3,2.08.17,6,.07,12,.07,18Z" transform="translate(-22.32 -14.5)"/><path d="M630.05,793.93c0-1.83.06-3.65,0-5.48-.1-2.48-.61-4.81-3.78-4.77-2.84,0-3.53,2.15-3.62,4.46-.16,3.81-.14,7.64-.22,11.46,0,1.14.09,2.54-1.47,2.73a2.28,2.28,0,0,1-2.57-2.44c-.17-5.47-.17-10.95-.14-16.42a2.59,2.59,0,0,1,.87-1.69c3.59-3.11,13.32-.3,13.89,4.25s.26,9,.23,13.42c0,1.17-.49,2.6-1.82,2.62-1.68,0-1.33-1.54-1.34-2.66C630,797.59,630.05,795.76,630.05,793.93Z" transform="translate(-22.32 -14.5)"/><path d="M638.23,792c.11-2.66-.11-5.31,1.24-7.79a6.41,6.41,0,0,1,8.88-2.58c2.69,1.68,4.45,7.54,2.84,9.84-1.3,1.85-3.34.94-5.07,1.06-2,.15-4.15,0-4.46,2.77a4.39,4.39,0,0,0,2.16,4.67c2.48,1.41,3.61-.38,4.72-2.1.53-.81,1-2.08,2.16-1.38s.49,1.68,0,2.6A6.44,6.44,0,0,1,638.67,798,36.2,36.2,0,0,1,638.23,792Zm7.06-2.67c1.41-.33,3.58.08,3.2-2.51-.29-2-1.55-3.35-3.67-3.22a3.09,3.09,0,0,0-3,3.26C641.75,789.25,643.52,789.31,645.29,789.36Z" transform="translate(-22.32 -14.5)"/><path d="M484,792.4c.06-8.06,3.38-12.07,8.55-11.46,3.39.4,5.63,4,5.39,8.85-.19,3.88-3.17,2.39-5.22,2.7-1.72.26-3.91-.6-4.94,1.45-.82,1.62-.07,3.37.85,4.72,1.57,2.29,3.48,3.07,5.5.31.6-.82,1-2.64,2.44-1.48,1.13.9.09,2.16-.52,3.1-2,3-6.24,3.19-9.06.36S484.15,794.75,484,792.4Zm7.37-3c1.63,0,3.34,0,3.24-2.13-.09-1.89-.8-3.71-3.15-3.6a3.64,3.64,0,0,0-3.54,3.51C487.73,789.69,490,789.07,491.39,789.4Z" transform="translate(-22.32 -14.5)"/><path d="M368,786.05c.15-3.67,2-5.35,6-5.17s5.78,1.84,5.88,5.82c.11,4.48-.57,9,.48,13.44a3.86,3.86,0,0,1-.37,1.77c-3.43-.58-6.74,1.64-10.16.49-2.09-.71-2.48-2.51-2.55-4.43-.11-3.29,1-5.85,4.22-7.2.92-.38,1.77-.95,2.7-1.29,2.46-.89,3.12-2.72,1.8-4.7-1.42-2.14-3.46-1.58-5.11,0a13,13,0,0,0-1.58,2.41Zm8.55,9.91c-.17-1.47.1-3.51-1.93-3.39a4.8,4.8,0,0,0-4.58,4.34c-.27,2,.71,3.83,3,3.58S376.5,798.29,376.58,796Z" transform="translate(-22.32 -14.5)"/><path d="M429.07,786.65c-.33-4,1.52-5.64,5.34-5.74,3.62-.11,6.06.62,6.15,5.09.1,5.34-1.27,10.82,1.77,16-2.5.69-4.15-1.21-6.27,0-2.57,1.48-5.76,1.68-7.13-1.78s-.74-6.9,2.72-9.14a17.7,17.7,0,0,1,3.63-1.62c1.51-.54,2.73-1.24,2.59-3.12a2.66,2.66,0,0,0-1.95-2.59,3.88,3.88,0,0,0-4.16.78C431,785.27,430.94,786.83,429.07,786.65Zm9,9.59c0-1.62.22-3.6-2.2-3.52s-3.81,1.82-4.23,4.11a2.83,2.83,0,0,0,2.47,3.62C436.8,800.69,437.53,798.48,438,796.24Z" transform="translate(-22.32 -14.5)"/><path d="M558,792.06c0,8.41-2.12,11.27-7.95,10.72-4.94-.47-6-3.9-6.13-8.11-.28-9.49,1.16-13.11,5.58-13.75,5.05-.74,8.29,2,8.49,7.15C558.08,789.4,558,790.73,558,792.06Zm-3.19-.44h0c0-1,0-2,0-3,.12-2.51-.16-5-3.32-5-2.85-.07-4.69,1.68-4.86,4.59a75.52,75.52,0,0,0,.08,8,4.27,4.27,0,0,0,4.46,4.44c2.9,0,3.61-2.44,3.65-5C554.87,794.27,554.85,793,554.85,791.62Z" transform="translate(-22.32 -14.5)"/><path d="M681.77,802.78c-3.06.22-5.44-.21-7-2.61-.66-1-1.18-2.24-.09-3.16,1.28-1.07,2,0,2.72,1A6.11,6.11,0,0,0,679,799.9c2.06,1.32,4,.89,5-1.26.9-1.82.53-3.57-1.74-4.39a42.08,42.08,0,0,1-4.63-1.84c-3.26-1.63-4.69-5.94-3-8.87,1.4-2.47,6.83-3.72,9.4-2a8.34,8.34,0,0,1,2.08,2.71,1.69,1.69,0,0,1-.2,2.28c-.83.6-1.49,0-1.94-.82a3.53,3.53,0,0,0-4.55-2,2.6,2.6,0,0,0-1.94,2.59c-.14,2.41,1.78,2.93,3.39,3.76,1.32.68,2.66,1.33,3.91,2.14,2.75,1.79,3.35,4.46,2.58,7.45C686.52,802.83,683.94,802.91,681.77,802.78Z" transform="translate(-22.32 -14.5)"/><path d="M385.23,781.48c3.72,3.51,2.9,8.57,4.79,12.66.44.94-.15,2.7,1.56,2.55,1.37-.13,1.38-1.63,1.65-2.77.85-3.52,1.68-7,2.7-10.52.36-1.22,1.11-2.78,2.8-2,1.39.65.57,2,.26,3.08-2.13,7.31-3.75,14.79-7.55,21.51a7.92,7.92,0,0,1-2.33,3.15c-1.22.81-2.58,1.26-3.51-.12s.34-1.86,1.43-2.44c3.24-1.74,3.46-4.31,2.29-7.6C387.32,793.32,385.2,787.66,385.23,781.48Z" transform="translate(-22.32 -14.5)"/><path d="M597,802.8a5.93,5.93,0,0,1-5.86-2.72,2.13,2.13,0,0,1,.53-3.1c1.43-1,2.17,0,2.31,1.34.25,2.29,1.75,2.61,3.56,2.39a3.18,3.18,0,0,0,3-2.82c.26-2-1.17-2.85-2.77-3.62-3.71-1.79-7.95-3.2-7.16-8.75.37-2.67,1.76-4.24,4.46-4.52s5.36-.12,7,2.56a1.88,1.88,0,0,1,0,2.32c-1,1.18-1.73.16-2.37-.56-1.19-1.33-2.53-2.15-4.38-1.5-1.42.49-1.33,1.7-1.41,2.87-.16,2.42,1.75,3,3.35,3.75.74.36,1.61.47,2.34.84,3.09,1.57,5.19,4,4.12,7.56C602.9,801.89,600.26,803,597,802.8Z" transform="translate(-22.32 -14.5)"/><path d="M450.77,746.14c0,3.49,0,7,0,10.47,0,1.8-.29,3.37-2.65,3.34-2.05,0-2.44-1.37-2.44-3q0-10.73,0-21.44c0-1.72.7-2.94,2.62-2.89s2.44,1.39,2.44,3.07c0,3.48,0,7,0,10.46Z" transform="translate(-22.32 -14.5)"/><path d="M472.23,780.93c1.89-.09,3.57.13,4.78,1.45s2.63,2.86,1,4.25c-1.43,1.24-2.13-.67-2.76-1.79-.92-1.64-2.35-1.64-3.9-1.14a2.64,2.64,0,0,0-2,2.54,3.11,3.11,0,0,0,2.42,3.33,17.86,17.86,0,0,1,6.82,3.94,4.81,4.81,0,0,1,.94,6c-1.47,3.17-4.55,3.6-7.67,3.4-2.27-.14-4.25-.91-5.13-3.28a1.86,1.86,0,0,1,.43-2.28c1.21-.82,1.74.13,2.15,1.12.95,2.27,2.73,2.8,4.9,2.13a3.28,3.28,0,0,0,2.32-3c.3-2.84-2.06-2.87-3.81-3.71-3-1.42-6.17-2.6-6.19-6.9S468,780.6,472.23,780.93Z" transform="translate(-22.32 -14.5)"/><path d="M581.06,760.1a18.81,18.81,0,0,1-3.57-.37c-1.54-.43-2.19-2-2.94-3.23-.14-.22.22-1.06.52-1.17,1.77-.66,2,1.1,3,1.89,1.82,1.53,4.31,2.11,5.63,0s.29-4.41-2.15-5.26c-3.12-1.09-5.78-2.47-6.9-5.84-1-3.08,0-5.57,3-6.31s6.74-1.48,8.73,2.44a1.9,1.9,0,0,1-.2,1.77c-.79.8-1.49.12-2-.56-1.26-1.71-2.64-3.11-5-2a2.8,2.8,0,0,0-1.62,2.87c.25,2.28,1.83,3.36,3.9,4a13.64,13.64,0,0,1,2.67,1.28c2.89,1.59,4.5,3.81,3.72,7.32C587,760.77,583.94,759.81,581.06,760.1Z" transform="translate(-22.32 -14.5)"/><path d="M648.05,749.82v2.49c.07,7.56-2.36,9.43-9.8,7.63a3.82,3.82,0,0,1-3.18-3.9c-.14-4.47-.1-8.95-.1-13.42,0-1,.22-2.17,1.46-2.2,1.52,0,1.81,1.23,1.81,2.44,0,3.65-.14,7.3,0,10.94.06,1.77-.88,4.36,2.35,4.49a4.2,4.2,0,0,0,4.68-4.15c.33-3.45.09-6.95.24-10.43,0-1.32-.74-3.65,1.36-3.57s1.08,2.37,1.16,3.71C648.14,745.84,648.05,747.83,648.05,749.82Z" transform="translate(-22.32 -14.5)"/><path d="M667.78,787.14c-2.85-2.19-5.94-6.47-8.17-1.88-1.8,3.71,3,4.6,5.78,5.81,3.3,1.46,4.16,4,3.8,7.34-.24,2.19-1.06,4-3.47,4.22-3.13.33-6.42.92-8.49-2.49-.61-1-1.53-2.11-.14-3,1.14-.74,1.69.32,2.17,1.27a3.79,3.79,0,0,0,5,2.06,3.1,3.1,0,0,0,2.15-3.08c0-2.39-1.95-2.82-3.66-3.46a10.18,10.18,0,0,1-6-5.61c-1.14-2.64.23-4.53,1.9-6.23,1.92-2,4.44-1.5,6.56-.73S668.24,784.05,667.78,787.14Z" transform="translate(-22.32 -14.5)"/><path d="M253.66,791c-3.39-3.18-4.27-7.14-5.52-10.83A73,73,0,0,1,244,752.29c.07-1.22-.3-3,1.72-2.86,1.21.08,1.19,1.42,1.09,2.41-1.26,12.15,2.78,23.26,6.59,34.43C253.88,787.59,254.9,788.94,253.66,791Z" transform="translate(-22.32 -14.5)"/><path d="M449.64,781.92c1,4.15.24,8.41.48,12.61.13,2.44-.42,5.85,2.84,6s5-2.87,5.33-6.12c.39-4.22-.66-8.53.76-13.15,2.37,1.34,1.67,3.3,1.72,4.89.1,3,.05,6,0,9-.07,7.6-.34,7.85-7.94,7.74-2.45,0-4.45-1-4.54-3.62-.2-5.74-.06-11.48-.06-17.22Z" transform="translate(-22.32 -14.5)"/><path d="M410.29,791.69c.17-8.06,2.4-11.16,7.78-10.79a4.93,4.93,0,0,1,3.92,1.82c.82,1.1,2.69,2.3,1.26,3.71S421,786,420.12,785c-2.49-2.67-4.53-1.66-5.87,1a13.09,13.09,0,0,0,0,12c.64,1.31,1.49,2.73,3.36,2.47a3.25,3.25,0,0,0,3.12-2.75c.24-1.32.47-3.07,2.3-2.32s.62,2.31.22,3.48c-1.11,3.18-3.56,4.14-6.71,3.9s-5.07-1.65-5.61-4.69C410.52,796,410.48,793.84,410.29,791.69Z" transform="translate(-22.32 -14.5)"/><path d="M393.73,124.6c-2.46-.13-6.23.64-6.27-2.32,0-3.5,3.89-2.54,6.37-2.62,5.18-.17,10.15-.76,14-4.77,1-1.06,2.32-2.42,3.7-.68,1.08,1.36.35,2.71-.78,4C406.15,123.24,400.05,124.17,393.73,124.6Z" transform="translate(-22.32 -14.5)"/><path d="M534,760.24c-3.22-1.54-2.46-3.43-2.49-4.93-.1-4.65-.07-9.3,0-13.95,0-3.58-.1-6.91-5.15-6.39-.81.08-1.77-.29-1.78-1.31s.95-1.24,1.79-1.24c4.15,0,8.3.05,12.45.09.87,0,1.78.18,1.84,1.21s-.89,1.44-1.71,1.34c-5.18-.67-5,2.69-5,6.24C534.09,747.37,534,753.44,534,760.24Z" transform="translate(-22.32 -14.5)"/><path d="M621.55,749.5V746c0-5.41,2.45-7.47,7.71-6.47a2.9,2.9,0,0,1,1.49,1.1c.1.13-.36,1.05-.68,1.13-6.62,1.64-4.69,7-5.11,11.4-.21,2.15,1.12,6-1.55,6-3.25,0-1.4-4-1.84-6.17a18.45,18.45,0,0,1,0-3.49Z" transform="translate(-22.32 -14.5)"/><path d="M531.53,791.59c0-1.16,0-2.32,0-3.48,0-5.68,1-6.76,6.47-7a2.5,2.5,0,0,1,1.74.64,1,1,0,0,1-.4,1.66c-7,2.42-5.09,8.33-5.31,13.4a10.53,10.53,0,0,1,0,1.49c-.26,1.33.72,3.76-1,3.75-2.38,0-1.21-2.57-1.35-4-.2-2.14-.05-4.31-.05-6.47Z" transform="translate(-22.32 -14.5)"/><path d="M569,750.15c0,2.48,0,5,0,7.46,0,.86-.28,1.74-1.27,1.85-1.26.15-1.81-.8-1.83-1.83-.08-5.14-.09-10.28-.07-15.41,0-1.05.51-2.09,1.66-2.15,1.31-.06,1.48,1.12,1.5,2.12C569,744.84,569,747.5,569,750.15Z" transform="translate(-22.32 -14.5)"/><path d="M609.78,791.73c0-2.81,0-5.61,0-8.42,0-.82.37-1.77,1.44-1.48a1.92,1.92,0,0,1,1,1.49c.06,5.61,0,11.23,0,16.84,0,.82-.18,1.76-1.25,1.77s-1.18-1-1.19-1.78c0-2.8,0-5.61,0-8.42Z" transform="translate(-22.32 -14.5)"/><path d="M280.46,796.69c-3.9,1.24-6-.66-7.1-4.28Z" transform="translate(-22.32 -14.5)"/><path d="M661.55,413.22c3.83,0,7.65,0,11.47,0a9.38,9.38,0,0,1,4.83.95c1.17.66,2.55,1.24,2.09,2.92-.42,1.52-1.85,1.12-2.94,1.12-5.82,0-11.64,0-17.46.06-3.13.06-6.25-.32-9.41.51-2.19.58-4.7-.37-4.93-2.89-.26-2.92,2.5-2.54,4.38-2.59,4-.11,8,0,12,0Z" transform="translate(-22.32 -14.5)"/><path d="M552.86,445.86c-3.91-.71-6.58-3.33-9.68-5.18-2.12-1.26-4.28-2.44-6.38-3.75a3.24,3.24,0,0,1-1.14-1.48c-.08-.18.49-.85.87-1,2.64-.79,17.08,5.06,18.55,7.44C556.85,444.81,554.73,445.27,552.86,445.86Z" transform="translate(-22.32 -14.5)"/><path d="M624.05,416.58c3.7-.07,7-.27,7,3.76,0,3.21-3,2.89-5.31,2.9-2.75,0-5.6,0-5.78-3.76S622.76,416.75,624.05,416.58Z" transform="translate(-22.32 -14.5)"/><path d="M518,251.78c2.82,7.9,3,16,2.72,24.18-.06,1.7-.29,3.69-2.22,4-2.11.31-2.47-1.55-2.78-3.3C514.22,268.15,516.11,260,518,251.78Z" transform="translate(-22.32 -14.5)"/><path d="M226.75,108.05c-8.81-.49-15.17,3.34-19.63,10.85-1,1.6-1.82,4.62-4.74,2.65-2.24-1.51-4-3.26-2.08-6.58,2.57-4.43,4.38-9.22,8.33-12.84,6.51-6,17-7.24,24.17-2.35,1.67,1.14,4.21,2.19,3.37,4.93s-3.11,3.66-5.92,3.36A34,34,0,0,0,226.75,108.05Z" transform="translate(-22.32 -14.5)"/><path d="M196.26,174.87c-8.1-.08-12.32-6.51-9-13.87,1.08-2.39,1.92-5,4-6.82,1-.93,1.89-2.81,3.63-1.48,1.36,1,.39,2.38-.19,3.59a25.74,25.74,0,0,0-2.32,5.46c-1,4.5,1,6.32,5.4,5.36,1.92-.42,4-2.85,5.76-.25a5.71,5.71,0,0,1,.13,5.32c-1.08,2.47-3.39,2.94-5.88,2.69C197.27,174.83,196.76,174.87,196.26,174.87Z" transform="translate(-22.32 -14.5)"/><path d="M210.72,164.94a12,12,0,0,1,2.07,1.66c4.29,5.15,9.88,8.69,15.28,12.46,1.51,1.06,2.79,2.2,4.79,2.36,1.77.15,3.42,1.27,2.68,3.29s-2.85,2.27-4.63,1.35c-2.76-1.44-5.42-3.09-8-4.8-4.54-3-7.9-7.42-12.66-10.22a4.49,4.49,0,0,1-1.76-4.87C208.7,165.3,209.48,164.92,210.72,164.94Z" transform="translate(-22.32 -14.5)"/><path d="M175.59,152.37c-.05,2.3.09,5.67-2.7,5.46-3-.22-4.92-3.08-4.75-6.56.14-2.7,1-5.46,4.09-5.15C175.61,146.45,175.74,149.57,175.59,152.37Z" transform="translate(-22.32 -14.5)"/><path d="M223.11,139.06c.06,2.83-.46,6.14-3.32,5.77-2.35-.29-3.32-3.57-3.21-6.46.09-2.48.84-5.63,3-5.39C222,133.26,223.52,136.23,223.11,139.06Z" transform="translate(-22.32 -14.5)"/></g></g></svg>