<svg xmlns="http://www.w3.org/2000/svg" viewBox="0 0 895.08 886.09"><title>chanel</title><g id="Layer_2" data-name="Layer 2"><g id="Layer_1-2" data-name="Layer 1"><path d="M572,887c-2.44-10.2-3.29-20.76-7.63-30.54-2.26-5.1-1.29-10.84-1.31-16.32,0-2.71,0-5.32-1.93-7.52a2.76,2.76,0,0,1-.84-1.76c1-8.07-4.07-15-4.32-22.87a58.44,58.44,0,0,0-7.54-26.5c-3-5.41-2.38-12-4.38-17.72-2.23-6.43-1.87-13.3-4.29-19.87-1.54-4.16-1.58-9.55-2.38-14.29s-3-9.21-4-14.07c-1.2-6.3-4.75-11.87-6.06-18.22-.63-3.09-1.89-5.8,2.28-7.26a2.87,2.87,0,0,0,1.94-3.63c-1.51-4,.24-9.1-4.28-12.29-1.91-1.35-.26-4.15-.78-6.2-.65-2.57.05-7.19-5.09-3.54-1.72,1.21-1.7-.84-2.17-1.62-3.08-5.16-2.51-11.22-4-16.77a27.51,27.51,0,0,1-1.17-9.33c.11-1.47,1.38-5.41-3.45-3.13-2.17,1-1.78-2.54-1.31-3.42,2.92-5.58,1.57-11.29.82-16.93-.59-4.42-1.68-8.76-2.6-13.13a9,9,0,0,0-1-3.28c-1-1.51-5.87-.28-2.82-4.83,1.47-2.21-.23-5.51-.65-8.29-.55-3.67-.1-7.54-3.34-10.6-1.18-1.12-1.47-3.84-1.21-5.69,1.36-9.88,0-19.46-2.19-29.07-1-4.5-.65-9.34-1.39-13.86-.77-4.76-.5-10.35-4.88-13.83-2-1.6.16-2.34.37-3.19,1.58-6.38,0-12.87.93-19.27.38-2.62.22-5.32,1.36-7.79,4.65-10.1,6.88-21.28,13.11-30.65s12.06-18.93,21.27-25.34c6.18-4.31,12.87-8.4,21.32-7.89,6.2.38,12.43-1.88,18.75-.05,3.51,1,6.65,2.61,8.1,5.9,2.52,5.73,7.55,9.56,10.53,15.05a33,33,0,0,0,13.71,13.1c2.75,1.45,2.66,4.32,3.28,6.36,3.8,12.56,11.62,22.71,19.88,32.27a233.74,233.74,0,0,1,22.43,31.48C652,532,657.91,544,661.19,556.86c3.57,13.92,7.86,27.64,9.89,42.06,2.74,19.54,6.35,39,5.58,58.74-.65,16.75-2.88,33.35-5.5,49.92-1.28,8.16-3,16.21-4.38,24.32a25.87,25.87,0,0,1-2.34,7.05c-.69,1.41-2.25,3-.31,4.41,2.15,1.51,2.24-1.59,3.82-2.41a28.32,28.32,0,0,0,5.13,10.87c1.75,2.37,1.06,5.15-.14,7.12-4.17,6.83.72,13.26.42,19.88-.08,1.59,1.64,2.11,3,1.93,8.07-1,8.93,5.89,11.57,10.61,1.77,3.17.07,7.9,4.79,10,1.18.51,1,3.25-.25,4.55-2.2,2.32-.66,5.55-2.29,8-.65,1,.36,1.93,1.38,2.2,4.82,1.27,4.63,6,6.42,9.33a3.86,3.86,0,0,1,0,3.37c-2.75,3.78-1.38,5.31,2.61,6.64s5.66,4.62,4.57,8.78c-.69,2.63-1.43,4.8,1.18,7.06,2.88,2.48,2,6.83,4.13,9.91,4.84,7.17,7,15,5.42,23.68-.11.63.72,1.42,1.11,2.14ZM522.89,628.8c-.11,2,.22,3.76-.37,5.16-2.41,5.69-.95,10.67,1.49,16,3.35,7.33,6.76,14.76,7.43,23,.2,2.44.37,4.41,3.37,5.74,1.71.76,4.11,3,4.2,5.81.22,7.66,4.15,14.3,7.52,20.5,3.71,6.83,4.09,15.69,11.33,20.57a2,2,0,0,1,.67,1.73c-1.18,3.61,3.5,6.49,1.23,10.29-.21.35.81,1.85,1.56,2.3,1.95,1.14,5.12,1.25,3.22,4.94-.17.33.86,1.08,1.54.67,3.48-2.07,4.32.88,5.46,2.93,1.39,2.5,3.05,2.55,4.62.51,1.3-1.68,1.92-2.48,3.09.08.39.86,1.86.39,2.7-.21,1.15-.81,1.74-3.23,3.64-.4,1.31,2,3.46,3.45,1.38,5.86a7.17,7.17,0,0,0-1.59,4.06c-.32,2.49-1.23,2.66-3.69,1.94-4.13-1.22-5-5.37-7.85-7.59-.91-.7-1.51-2-2.87-1.06a3.42,3.42,0,0,0-1.72,2.9c.06,1.93.87,3.82,2.61,4.52,5.36,2.14,9,6.57,13.71,9.65,8,5.28,16.3,9,26.12,6.55,5.33-1.33,7.1-5.74,3.45-9.73-3.26-3.56-4.92-7.51-6.27-11.92-1.47-4.81-8.42-8.45-13.49-7.07-2.43.67-2.71-.26-3.2-2.21-1.18-4.72.93-9.18.8-13.77-.09-3.36,1.69-4.53,4.5-4.56a35.45,35.45,0,0,1,5.89.24c1.88.29,5.53,1.3,5.88-.77.83-4.93,4.59-4.82,7.78-6a3,3,0,0,0,2-2.12c.84-3.81,3-6.75,5.6-9.58,1.57-1.72,1.09-4.15.45-6.18-.59-1.87-2.52-1.91-4.21-2-5.47-.29-11.26.43-16.32-1.18-3.73-1.18-6.09-1-9,1-1.26.86-2.73,1.28-2.62,3.17s1.69,1.7,2.92,2,2.43.63,1.58,2.28c-.28.52-7.75-.16-7.81-.71-.49-4.26-3.25-2.61-4.93-1.55-7.47,4.74-13.86.94-19.83-2.74-8.36-5.14-14.23-12.92-19.08-21.29-7-12.13-11.5-25.34-15.63-38.66-1.28-4.11-2.58-8.23-3.46-12.43-1-4.67,3.44-4,5.82-5.19,1.53-.74,3.79-.8,3.91,1.49.2,4,2.34,7.25,3.7,10.71,5,12.67,10.59,25,23.67,31.76,1.12.57,2.16,2.18,3.46,1.06,1.52-1.31.23-3-.53-4-4-5.63-6-12.2-8.58-18.44-5.13-12.26-7.76-25.26-10.42-38.23a192.41,192.41,0,0,1-3.65-34c-.21-8.18,1-16.22,2.22-24.27.32-2.13,1.54-5.09-1.24-6.22s-3.31,1.93-4.64,3.51c-6,7.08-8.25,15.76-10.91,24.31-.86,2.75,1,6.64-2.38,8.18s-5.05-2.55-7.87-3.38c-4.65-1.37-6.19-5-6.49-9.53-.23-3.58,1.17-6.89,1.24-10.38.28-12.64,4.68-23.91,11.39-34.42,5.17-8.11,11.88-13.36,22.19-11.67,3.11.51,6.2,1.13,9.28,1.75,4,.82,7.66,1.15,10.58-2.89,2.2-3.06,5.74-4.15,9.56-4.39,4.95-.32,9.49.92,14.07,2.63,5.5,2,11.05,3.65,12.37,10.66.6,3.19,2.74.31,4.37.35a13.05,13.05,0,0,0,2.18,10.62c3.36,4.66,5,9.83,6.13,15.31,1.69,8,6.13,15.11,7.16,23.18.62,4.84,1.53,9,5,12.82,2.42,2.66,1.09,8.12-1.35,8.37-3.63.37-7.29.41-10.94.44-1.27,0-2.79-.09-2.95-2-.13-1.66-.15-4-2.46-3.35a4.43,4.43,0,0,0-3.43,5.36c1.51,6.08,3.12,12.12,4.4,18.26.42,2.05.31,5.78,3.15,6s.6-4,3.05-5.22c1.8,4.44,3.78,8.9,8.79,2.62.77-1,1.41.14,2,.56s.94,1.09.22,1.53c-4,2.39-1.43,4.47.47,6.19s3,5.17,6.1,4.51c3.77-.81,2.79,1.32,2.78,3.26,0,5.29-1.07,10.75,1,15.77a20.59,20.59,0,0,1,1.39,9.23c-.22,4.63-.39,9.26-.45,13.9,0,1.19-.43,2.92,1.5,3.2,7,1,9.2,6.49,10,12.14.55,4.16,1.55,8.11,2.47,12.15,1.51,6.57,2.61,13.22,3.91,19.84.22,1.14-.46,2.8,1.51,3.06,1-.43.94-1.36,1.2-2.11,5.25-15.26,7.46-31.3,9.28-47.08,2.34-20.44.06-41.08-3.47-61.45-2.32-13.4-6.5-26.28-10.19-39.31a193.27,193.27,0,0,0-14.83-36.48,35.78,35.78,0,0,0-4-6.79c-4.17-5-8.42-10.12-11.62-15.77-2.85-5.05-7.36-8.65-10.18-13.59-2.64-4.61-6.13-8.56-8.59-13.45-3.58-7.12-3.45-17.78-14.7-19.25-.19,0-.3-.86-.39-1.32-1.4-7.29-6.78-12.11-11-17.63-1.67-2.19-4.24-3.21-5.29-6.49-1.11-3.49-4-7.12-8.42-7.58-9-.95-18.07-2.86-27.08.27-11.17,3.87-18.53,12.23-25.52,21.14-5.32,6.78-7.75,15-11.91,22.39-7,12.27-8.51,25.27-6.73,38.92,1.25,9.66,3.43,19.15,4.44,28.88.47,4.55.86,9.2,1.69,13.78,1.55,8.51,2.16,17.13,3.9,25.67,1.29,6.3,2.16,12.61,4.52,18.65a19.38,19.38,0,0,1,1,4.33c1.15,7.9,2,15.83,3.39,23.68S516.66,634,522.89,628.8Zm70-20.21a17.44,17.44,0,0,0-.6-8.58c-2.95-9.39-5.55-18.79-10.57-27.56-3.27-5.73-5-12.47-8.84-18.08-1.14-1.66-2-3.71-4.34-3.64-2.49.08-3.15,2.52-3.66,4.24-2.26,7.6-4.62,15.23-4.59,23.26,0,15.15,2.8,29.91,6.79,44.46,1.91,7,4.22,13.83,8.58,19.75,3,4.14,6.27,8.17,10.72,10.89,2.35,1.44,5.39,2.68,6.18-1.49,1.31-6.83,2.57-13.72,2.15-20.73C594.22,623.2,595.28,615.19,592.87,608.59Zm15.81-31.45a1.89,1.89,0,0,1,1.65,1.73c.17,3,2,4,4.35,2.82s6-1.67,5.89-4.92c-.05-3-3-2.32-5.13-2.19s-3.74,0-3.76-2.67c0-4.86-3.47-8.72-4-13.41-.52-4.52-5.28-5.51-7.07-8.85-2.38-4.42-6.41-7-10.17-9.91a2.88,2.88,0,0,0-3.7-.19,3.11,3.11,0,0,0-.77,4.06,35.74,35.74,0,0,0,2.37,3.79c5.85,9,11.36,18.16,14.24,28.64.5,1.8.27,4.33,2.85,4.71S607.14,577.92,608.68,577.14Zm6.73,63.31c0,6.67-.06,11.15,0,15.63,0,1.28-1.35,3.3,1,3.67,1.78.28,3.15-1,3.68-2.74,1.37-4.55,3.56-9.08,3.77-13.7.36-7.83-.51-15.72-.95-23.58a3.78,3.78,0,0,0-4.17-3.46c-1.83.14-4.55-.19-5.56,2.05a2.8,2.8,0,0,0,1.7,4c1.14.43,1.25,1.35,1,2.45C614.45,630.71,615.77,636.71,615.41,640.45ZM611.06,788.3c-1.51.16-3.86-.91-4.13,1.41-.31,2.69,2.15,2.31,3.93,2.37,1.15,0,2.28-.07,3.07,1.13a3.06,3.06,0,0,0,4.39,1c2-1.57,4.4-3.08,5.24-5.75.37-1.14-.76-1.92-1.64-2.15-2.38-.6-5-1.26-7,.74C613.72,788.28,612.66,788.75,611.06,788.3ZM644,674.36c.09-1.38-.47-2.82-1.35-2.4-2.57,1.2-3.68,3.83-4.46,6.39a1.76,1.76,0,0,0,1.89,2.3C643.87,680.08,642.92,676.44,644,674.36ZM592.73,789.64c1.62.26,2.62-.17,2.49-1.36-.41-3.67-4.57-2.44-6.34-4.53-.39-.46-2.19.87-1.8,1.68C588.26,787.88,591.66,787.52,592.73,789.64Zm-57-91.91a6.45,6.45,0,0,0-1.65,3.88c-.05,1.93.86,2.78,2.74,2.58,1.06-.12,2.23-.54,1.71-1.79C537.88,700.83,538.18,698.63,535.72,697.73ZM523,658.83c-1-1.28-.71-3.77-2.76-4.45-1-.34-1.34,1.16-1.31,2.17,0,1.91.47,3.71,2.65,4.17C522.49,660.91,523,660.11,523,658.83Zm56.36,121.78c1.5.16,2.08-.48,2-1.34-.08-2.86-3.09-2.72-4.57-4.17-.11-.11-1,.56-1.5.87C577.43,777,577.91,779.51,579.37,780.61Z" transform="translate(-1 -0.91)"/><path d="M765,887c-1.33-2.45-2.35-4.81-1.45-7.84,1.18-3.95-3.25-5.74-4.09-9.2a84.6,84.6,0,0,1-2.72-15.49c-.23-4.16,3.43-6.16,4.62-9.62,1.65-4.79,1.93-7.76-2.22-11.78-4.31-4.17-5.69-10.76-7.27-16.59s-2-11.75-3.2-17.48c-1-5.07-2.52-9.62-2.31-15.14.22-5.7-3.84-11.16-4.41-17.3-.7-7.57-6.21-13.53-7.81-20.88-.53-2.43-1.21-4.82-1.86-7.21-1.55-5.69-5.26-10.43-6.47-16.4-1-5-2.27-10-2.74-15.07a7.61,7.61,0,0,0-.9-3.8c-3.89-5.85-3.79-12.8-5.43-19.28-1.88-7.44-2.22-15.95-10.55-20.11-2.56-1.27-2.84-3.47-1.12-5.28s1.16-3.07.26-5.14c-1.89-4.35-1.56-9.37-3.5-13.82-3.54-8.14-4.63-17-7.43-25.37a44.7,44.7,0,0,1-1.85-8.73,20,20,0,0,0-2.93-7.77c-2.44-4.19-3.25-9.16-4.93-13.73a110,110,0,0,1-5.85-25.61c-.33-3-2.78-5.18-4.65-7.48S671,546,672,543.05c2.75-7.83-.17-14.24-4.77-20.26-.82-1.08-1.94-2-1.87-3.41.44-7.74-4.08-14.16-5.55-21.38-1-4.86-2-9.66-4.75-14-1.42-2.27.28-5-.32-7.76-1.66-7.56-5-14.68-6.1-22.3-.82-5.64-3.1-11.2-1.78-17.08.19-.89.06-1.82-.77-2.16-6.6-2.71-6.26-9.5-7.62-14.62-1.27-4.72-2.59-9.54-3.9-14.27-3.42-12.34-8.09-24.28-10.85-36.87-1.23-5.62-5.27-10.64-6.09-16.55-1.3-9.41-7.3-16.86-10.08-25.58-1.67-5.26-3.22-10.76-2.58-16.49.3-2.73,7.63-7.6,9.81-6.18,2,1.29,1.11,4.73,3.81,5.95,1.2.54,1.57,3,3.47,2,1.6-.85,1-2.72.9-4.12-.4-4.55-1.73-9.06,1-13.47.78-1.26.11-3.82,2.47-3.52s5,.45,6.35,3.2a67.86,67.86,0,0,0,9.45,13.41c2.46,2.88,4.93,6.6,2.53,11.29s.11,8.52,4,10.84c3.63,2.17,5.08,4.94,5.41,8.94s1.14,7.91,4.68,10.55a4.13,4.13,0,0,1,1.41,3.59c0,4.8,0,9.59-.4,14.52.61-5.47-6.05-6.4-6.77-11.16-.11-.75-3.83-2.58-3.92,1.34-.07,2.75-1.79,3.73-3.29,2-3.12-3.62-4.7.52-6,1.33a4.62,4.62,0,0,0-.84,6.69,60.86,60.86,0,0,1,9.24,16.2c.05.15.12.39.23.43,4.19,1.29,3.89,5.49,5.69,8.36,2.27,3.62,3.85,7.6,5.77,11.32s1.21,8.55,1.94,12.86c.82,4.84.3,10.29,5.69,13.29a4.79,4.79,0,0,1,1.73,3c.69,3.35,2.49,5.74,4.8,8.32,2.62,2.93,2.1,7.66,2.27,11.41.31,6.78,3.05,12.09,6.91,17.15a15.59,15.59,0,0,1,3.51,9.59c0,5.44,4.24,9.26,5.54,14.25.67,2.55,2,4.91,1.93,7.66a4.7,4.7,0,0,0,1.18,3.72c5.58,5.14,6.38,12.48,8.87,19,1.53,4,1,8.83,4.14,12.13,5.82,6.08,6,14.19,8.25,21.57.44,1.49.85,3.09,2,3.9,4.11,2.86,5,7,5.79,11.57.49,3,.12,8,6,7.23.34,0,1,.81,1.18,1.36,3.43,10.43,7,20.84,10.07,31.37.88,3,4,3.33,5,5.9,4.63,11,12.4,20.42,16.54,31.78,1.21,3.32,3.89,6.12,6,9.09,2.46,3.47,4.38,7,3.78,11.54a3.65,3.65,0,0,0,.67,2.81c4.11,3.58,4.87,8.93,7.42,13.23a23.05,23.05,0,0,1,3.18,14.16c-.21,3.06,1.2,5.11,2.71,7.62,4.59,7.59,12.38,13.18,14.19,22.49.12.65.61,1.35.47,1.91-2,8.49,4.52,11.8,9.65,15.79,2.16,1.68,2.84,3.16,1.16,5.26s-1.31,3.05,1.36,2.71a3.18,3.18,0,0,1,3.79,3.53c-1.12,7.27,3.92,12.15,6.74,17.68,4.9,9.64,10.92,18.7,16.42,28,.83,1.42,2,3,1.92,4.52-.22,6.81,4,11.22,7.88,15.92a91.53,91.53,0,0,1,5.24,7.61c.17.26.07.8.27.94,7.13,4.86,6.48,14.52,12.43,20.09.61.57,1.07,1.46,1.77,1.73,10.17,3.91,10.19,14.33,14,22.19C886,883,889.47,884,891,887Z" transform="translate(-1 -0.91)"/><path d="M896,269a118.12,118.12,0,0,0-21.56-3.32c-6.94-.43-14.05-.75-21.1-.72-19,.08-38,.49-56.94-.13a116.59,116.59,0,0,1-29.83-4.49,14.15,14.15,0,0,0-9.77.33c-8.36,3.86-16.24,1.6-24.08-1.12-2.76-1-5.23-3-4.79-6.74a8.92,8.92,0,0,0-1.28-5.77c-3-4.78-1.54-9.4,1.44-13,4.73-5.7,5.59-12,6.44-19.07,2-16.59,2.31-33.17,2.25-49.8,0-10.82-1.83-21.49-3-32.22-1-9.86-3.36-19.62-3-29.6.25-7.69,2.44-15,4.85-22.29.86-2.6,3.37-3.56,5.21-4.28,4.63-1.81,7.87-7.28,14.23-5.07,2,.7,3.17-2.41,3.58-4.51.65-3.34,2.11-3.92,5.15-2.35,2.42,1.25,4.79,2.66,7.87,2.66,2.77,0,5.2,8.85,3.33,12.62-1.37,2.76-1.41,6.78-5.74,7.39-1.26.18-1.41,1.29-1.06,2.35a3.84,3.84,0,0,0,2.73,2.69c1.21.29,2.65,0,3-1.21,1.25-5,7.43-.49,9-4.77A9.29,9.29,0,0,1,784.1,88c1.69,2.74,0,9.26-3.14,9.73-3.94.59-8.44,2.74-12-1.33a2.7,2.7,0,0,0-2.69-.79,17.38,17.38,0,0,1-9.72-1.54c-3.43-1.54-5.18-.22-6.11,3.32a52.32,52.32,0,0,0-.42,24.21c3.47,16.21,7,32.39,9,48.85a286.79,286.79,0,0,1,1.73,32.38c0,5.18,2,6.75,6.32,4.25,3.32-1.93,6.66-1.86,10.08-2.07,8-.48,16.1-.77,24.15-1.14.33,0,.76.14,1,0,8.27-5.4,18.27-2.79,27.13-5.81,3.95-1.34,8.54-.91,12.86-1.11a79,79,0,0,0,16.57-3,2.29,2.29,0,0,1,1-.16c12,2.46,24.12-1.79,36.15.23Z" transform="translate(-1 -0.91)"/><path d="M416,1c0,1.32.52,2.86,0,3.92-4,8.26-4.21,17.22-5.31,26.06-.38,3-1.93,5.65-4,8.29-3,3.82-2.75,9.26-4,14-.5,1.95-.31,3.93-2.55,4.87a1.18,1.18,0,0,0-.65.72c-1.26,8.6-7.52,15.87-6.65,25,.05.5.3,1,.17,1.48-3.62,12-2,25.62-8.89,36.38-3.67,5.76-7.89,12.77-15.94,14.61-.46.11-1.12.39-1.24.75-1.62,4.71-6.55,6.7-8.87,10.85-.67,1.2-.93,3.36-2.88,2.84-1.77-.47-2-2.47-2.35-4.08-1.48-7.15-3.12-14.26-5-21.32-.92-3.41-2.3-4-5.28-2.65a49,49,0,0,0-9.35,5.69c-4.24,3.17-5.81,2.69-6.94-2.63a145.41,145.41,0,0,0-4.73-15.7c-4-12.21-10.95-23-16.12-34.71C299.05,61,292.58,46.71,285.85,32.53,280.81,21.9,275.3,11.5,270,1ZM333.58,90.22c-1.56-2.87-2.94-5.67-4.55-8.32-3.33-5.5-4.17-12.08-7.81-17.47-1-1.52-1.83-2.4-3.46-1.55-1.29.69-1.64,1.79-.9,3.36a248.93,248.93,0,0,1,9.69,25.5c.49,1.46,1.35,3.44,3.5,2.83S332.8,91.91,333.58,90.22Z" transform="translate(-1 -0.91)"/><path d="M896,145c-1.84-.58-2.36-2.24-3-3.74a33,33,0,0,0-8.47-12.21c-9.84-8.51-18.68-18.45-31.63-22.81-3.94-1.33-6.36-4.62-8.14-8.76-5-11.51-6-23.59-6.63-35.83-.09-1.8-.51-3.58-.81-5.59-5.85.71-8.52,5.25-9.59,9.38-2.06,7.93-8,13.45-13.1,18-5.32,4.71-10.21,11.32-18.13,13-2.1.45-3.53,2.41-5,4-1,1-1.94,2.72-3.49.62-.86-1.17-2.62-1.67-1.16-4,1.57-2.52,4-3.56,5.82-5.24,5.21-4.77,12.49-7,16-14.06,1.9-3.82,6.09-6.67,9.66-9.41a9.8,9.8,0,0,0,4.12-9.66c-.16-1.3-.59-2.38,1.14-2.54,7.69-.7,8.67-7.46,10.1-12.6a25.93,25.93,0,0,0-1.46-17A151.85,151.85,0,0,1,824,1h8c.38,1.43,1.19,2.89,1.06,4.27-.3,3.47,2.41,4.45,4.52,5.05,2.47.69,4.51-1.29,5.2-3.62.54-1.82,1.75-3.61,1.22-5.7,16.17,0,32.33.1,48.5-.09,3,0,3.59.61,3.58,3.59Q895.9,74.75,896,145ZM874.08,92.91c-.33,3.41,1.79,5.71,3.81,7.84a3.36,3.36,0,0,0,4.58.15,2.62,2.62,0,0,0-.62-4.26c-2.18-1-2.3-2.41-2.39-4.29s-.82-3.8-3.16-3.64C873.64,88.9,874.29,91.26,874.08,92.91Z" transform="translate(-1 -0.91)"/><path d="M1,293c4.14-7.13,11-11.27,17.39-16,7-5.19,14.61-6.51,22.8-3,2.79,1.2,4.76,2.86,4.68,6.3-.12,5.66-.13,11.33,0,17,.07,3.21-1.6,4.56-4.45,4.83a52.12,52.12,0,0,1-6,.19c-9.52-.23-15.2,4.66-20,12.66-7.84,13-9.18,26.8-8.12,41.22.54,7.32,3.27,14.17,5.79,21,4.45,12.11,11.45,22.67,20,32.1,5.71,6.29,13.28,10.48,21.24,13.14s17.16-3.24,21-11.43c4.06-8.75,5.55-18,6.7-27.44a130.3,130.3,0,0,0,1.19-23.35c-.17-3.05.94-4.67,3.93-5.29a48.86,48.86,0,0,0,5.71-1.77c7.56-2.56,7.76-2.61,9.31,5.4,2.34,12,1.59,24.24.76,36.33-1,14.94-5.91,28.88-13.14,41.92-1.69,3-4.62,5.41-7.08,8-2,2-4.3,3.7-5.43,6.44-.21.53-.9,1.27-1.34,1.24-5.34-.3-9.29,3.42-14,4.81-3.77,1.11-7.19.27-10.7-1-11.08-4-22.28-7.57-30.78-16.57A98.37,98.37,0,0,1,5.48,419.47C4.22,417.15,3.13,414.71,1,413Z" transform="translate(-1 -0.91)"/><path d="M252,887c-1.74-7.83-5.52-14.9-8.33-22.34s-5.86-14.79-8.7-22.22c-.8-2.1-1-3.36,2.25-4.38,23.08-7.34,45.78-15.83,68.18-25,10.57-4.34,21.06-8.9,31.72-13.06,2.23-.87,3-.34,3.75,1.45q9,22.71,17.94,45.42c1.09,2.76-.9,3.68-2.71,4.42C338,858.72,320.22,867,301.69,873.48c-12,4.19-24.12,8.14-35.69,13.52Z" transform="translate(-1 -0.91)"/><path d="M278,887c13.69-5.37,27.41-10.64,41.05-16.13S346,859.8,359.46,854.25a4.46,4.46,0,0,1,1.38-.56c14.37-.17,25.22-9.32,37.51-14.77,7.89-3.49,15.52-7.58,23.16-11.62,4.91-2.6,9.85-4.81,12.51-10.69,1.69-3.73,6.65-5.29,10.38-7.46,2.7-1.57,5-5.37,7.86-4.63s2.55,5.31,3.94,8.06c1.79,3.54,2.64,7.56,4.49,11.06,2.2,4.16.78,6.77-2.47,9.35-10.16,8.1-21.62,14.18-32.58,21-19.47,12.16-40.49,21.22-61.12,31.06-1.47.71-3,1.28-4.52,1.92Z" transform="translate(-1 -0.91)"/><path d="M1,709c.3.39.86.78.88,1.18.32,9.85,5.91,18.14,8.28,27.41.88,3.47,1.31,7.47,3.95,10.73,1.85,2.28,1.67,6.4.18,8.65-4.34,6.57.33,11.81,1.67,17.51,1.13,4.77,5.52,7.33,8,11.18.81,1.24,2.3,1.17,3.66,1.17,6.16,0,12.33-.05,18.49,0,1.83,0,2.85-.31,3.77-2.27,1.15-2.48,3.21-5.58,5.34-.35.23.57.9.95,1.36,1.42,3.24-4.11,5.83.93,8.57.59,5.08-.64,5.53,3.91,6.93,6.31s-1.52,4.72-4.19,5.59c-2.15.7-3.93.16-2,3.87s3.12,9.32,1.75,13c-1.78,4.87-4.4,9.68-10.21,12.77-10.2,5.43-20.69,4.09-31.24,4.34-1.85,0-3.7.11-4.8-1.88-.22-.4-.87-1-1.11-.89-7.64,2.71-8.62-6.08-13.65-8.09C4.93,820.56,3.27,818.54,1,818Z" transform="translate(-1 -0.91)"/><path d="M169,887c-2.48-6.86-4.84-13.76-7.46-20.56-3.22-8.33-3-8.69,5.54-10.9,18.92-4.89,37.89-9.66,56.36-16.12,4.31-1.51,6.27-.92,8.23,3.67,6.18,14.38,10.65,29.36,16.33,43.91Z" transform="translate(-1 -0.91)"/><path d="M133,887c-1.76-4.8-3.6-9.58-5.26-14.42-1.94-5.67-.75-7.6,5-8.49,6.21-1,12.44-1.84,18.63-2.89,2.72-.46,4,.22,5,3.09C159,872,162.09,879.44,165,887Z" transform="translate(-1 -0.91)"/><path d="M88,887c.13-2.64.36-5.29.38-7.93,0-3.53,2.43-6.12,5.06-6.37s5.24,2.33,6,5.49c.66,2.91,1.08,5.87,1.6,8.81Z" transform="translate(-1 -0.91)"/><path d="M66.23,498C75.48,505.11,83,514,92.62,520.74c13.41,9.42,27.77,15.63,44.31,17.53a89.65,89.65,0,0,0,33.31-2.59c17.91-4.63,31.33-15.39,42.33-29.88,11.48-15.1,16.24-32.48,18.54-50.88,1-7.64.63-15.27.8-22.91,0-1.4-.35-3.53,1.81-3.34,1.76.16,1,2.16,1.08,3.36.34,8.62,1.86,17.17,1.28,25.84-.27,4.09.58,8.25-2.45,11.85-.81.95-.64,2.87-.62,4.35.17,12.82.34,25.65.64,38.47.28,11.92,11.25,27,25.82,26.74,4.21-.08,8.14,1.33,12.71.33,15.29-3.37,21.17-14.39,20.47-28.68-.58-11.92-.9-24.07-3.93-35.59-3.73-14.17-3.63-28.59-4.85-42.91-.55-6.41,1.5-12.93,1.66-19.51.32-12.45,2.44-24.77,2.38-37.28a96.35,96.35,0,0,1,8-39.3c4.93-11.28,12.15-21.22,20.35-30.4.89-1,1.68-2.07,2.47-3.14,3.27-4.38,6.86-7.79,13-8,7.59-.21,14.8-3.6,22.57-3.11,3,.19,5.91.39,8.47,2.37,2.4,1.85,4.91,1.7,6.09-1.38,1.69-4.41,5.59-7.45,7.05-11.93,1.15-3.53,2.5-2.09,4-.32C384,285.24,385,295,382,300.7c-2.29,4.32-4.71,8.58-7.06,12.84a4.61,4.61,0,0,1-2.33-3.14c-3.45-9.6-8.49-11.73-18.57-11.32-7.75.31-15.44,2.1-23.17,3a8.65,8.65,0,0,0-5.36,2.3c-6.27,6.31-13,12.21-17,20.46-2,4.14-4.92,7.83-7.16,11.94-11,20.19-10.78,42.09-10.57,64.09.07,6.94-1.25,13.89-1.35,20.84-.1,7.43.29,14.89.9,22.29.19,2.3.73,4.62.53,6.92-.91,10.75,3.22,20.52,5.85,30.58a417.43,417.43,0,0,0,31.58,82.17A229.91,229.91,0,0,0,364,614.88c5.48,6,12.49,10.24,19,15.1-1.86,1.81-3.58-1-5.22.28,8.5,12.91,64.76,8.73,73.14-12.94,2.47,4.16,1.82,10.56-2,13.75-6.83,5.66-14.23,9.95-23.52,11-10,1.14-19.79,4.1-30,3.65-2.15-.09-2.5,1.27-1.91,3a62.29,62.29,0,0,0,3.29,8.87c1.29,2.44.54,3.65-1.43,4.89-5.5,3.45-10.62,7.79-16.52,10.28-22,9.26-42.09,22.28-64.26,31.1a15.91,15.91,0,0,0-6.93,5.35c-2.68,3.48-7.4,4.4-11.31,6-20.93,8.41-42,16.44-63.09,24.51C224.13,743.2,214.7,746,205.8,750c-4.8,2.18-9.47.18-14,1.46-10.38,2.93-20.83,5.65-31.14,8.8-10.14,3.1-20.49,5.34-30.73,8-.64.16-1.48,0-1.93.39-8.8,7.27-20,5.54-30.08,8.24-1.63.44-2.61,0-3.29-1.94q-3.69-10.32-7.93-20.44a3.88,3.88,0,0,1,.8-4.85c15.34-16.94,19.78-37.21,17.43-59.28-2.05-19.18-8.57-37.06-16-54.8-8.93-21.37-19.93-41.5-32-61.2-9.21-15-18.86-29.69-29.36-43.83-.89-1.2-2.27-2.55-1.13-5,5.5,7.21,10.89,14.1,16.07,21.16,3.78,5.16,6.86,10.8,10.15,16.24,8,13.3,16.7,26.52,28.52,37,9.57,8.45,24.37,7.71,33.65-2.16,5.19-5.52,10-10.54,11.4-18.59,1.6-9.52-1.28-17.35-7-24.36-7.74-9.53-15.9-18.74-23.9-28.06-.75-.88-1.56-2.1-2.54-2.32-6.38-1.46-9.47-6.77-13.35-11.13C74.94,508.31,70.62,503.1,66.23,498Zm81.26,210.39c3-1.18,6.21-.76,9.28-1.36a443.1,443.1,0,0,0,64.51-18.1c14.86-5.31,29.54-11.07,43.52-18.37s27.57-15.15,41.29-22.85c2.81-1.58,5.53-3.75,5-7.38-.66-4.57-1.84-9.16-5.06-12.73-2.35-2.59-5.19-4.2-8.83-2.15-8.37,4.71-16.81,9.27-25.12,14.07-21.75,12.6-44.83,22.09-68.61,30.14a465.18,465.18,0,0,1-61.38,16,6,6,0,0,0-5.22,4.55c-1.37,4.51,3.29,15.67,7.7,17.54A17.32,17.32,0,0,0,147.49,708.35Zm148.82-103.9a24,24,0,0,0-.33-4.06,76.81,76.81,0,0,0-2.55-7.54c-2.18-5.35-6.79-7.2-11.47-3.93-14.27,10-30.1,17.05-45.58,24.7-14.12,7-28.55,13.4-43.61,18.16-21.36,6.76-42.87,12.94-65,16.56-3.07.5-5.85,2.72-5.58,6.13.43,5.28,2,10.42,5.54,14.55a6.72,6.72,0,0,0,6.36,2.12,280,280,0,0,0,40.76-8.94c21.93-6.59,43.84-13.15,64.48-23.47,18.13-9.06,36.51-17.57,53.49-28.75C295.3,608.32,296.59,606.37,296.31,604.45Zm8.6-68.94c-1.29,1.94-.49,3.15-.15,4.39a223.79,223.79,0,0,0,12.52,33c7.63,16.74,16.82,32.38,30.35,45.12,1,.94,2,3.13,3.49,2,1.88-1.44-.69-2.35-1.29-3.46a18.56,18.56,0,0,0-2.78-4.09c-15.34-16-24.73-35.45-32.39-56C312,549.41,311,541.4,304.91,535.51Z" transform="translate(-1 -0.91)"/><path d="M398.44,455.55c-3.43-1.19-3.06-4.72-4.36-7.19-5.49-10.5-9.54-21.82-17.61-30.84a27.8,27.8,0,0,0-3-2.65c-1.42-1.2-2.95-2.52-4.91-1.44a5,5,0,0,0-2.36,4.69c.25,13.08-.18,26.08,3.12,39.09,4.61,18.15,16.29,31,29,43.45,1.14,1.11,3,1.4,4.33,2.41,7,5.56,10.49,2,11-6a300.12,300.12,0,0,0,.35-30.45c-.27-8.38-2.13-16.41-3.74-24.53-.29-1.51-1.07-3.15,1.14-4.28,7.58-3.86,7.39-10.44,5.54-17.31-.72-2.66-.59-5.28-.69-7.92,0-1.1.56-2.06,1.82-1.78,1,.23,2.76-.59,2.78,1.25.09,5.47,3.65,9.72,5.09,14.79q6.9,24.33,13.58,48.76c4.9,18,9.47,36.12,13.16,54.45,2.32,11.54,6.25,22.74,9,34.2,6.6,27,13.7,53.92,20,81,3.93,17,8.91,33.73,14.37,50.34,5.21,15.85,9.89,31.89,14.17,48,4.16,15.67,8.3,31.4,13.61,46.7,3.17,9.09,6.43,18.26,9.3,27.39,4.44,14.08,9.14,28.18,12,42.76,1.38,6.95,5.15,13.34,5.89,20.55.11,1.08.86,2.23-.87,3.63-2.89-9.26-9.26-16.39-12.22-25.71-2.13-6.72-6-13.45-9.81-19.69-5.54-9.13-8.35-19-10.17-29.17-2.34-13.13-6.38-25.72-10.72-38.21-4.44-12.77-6.78-26-9.77-39-3.46-15.14-5.46-30.51-10-45.54-6-19.93-11.43-40.12-15.55-60.62a117.26,117.26,0,0,0-6.23-21.35c-3.46-8.44-4.71-17.78-6.9-26.74a14.2,14.2,0,0,0-.44-2.42c-.54-1.18-1.07-2.59-2.76-2.47-2,.13-1.68,1.75-1.82,3q-1.27,11.88-2.5,23.76c-.17,1.63,0,3.37-1.86,4.67-2.08-4.59-1.05-9.3-.14-13.55,2.48-11.56,1.48-22.76.26-34.45-1.42-13.75-5.63-26.54-9.25-39.53-3.15-11.28-5.37-22.91-10.31-33.67-.54-1.17-.65-3-2.34-2.76-2.2.27-1.5,2.25-1.44,3.61.88,18.53-2.06,36.86-2.61,55.29A65.38,65.38,0,0,1,420,558.84a16,16,0,0,1-7.21,9.25c-5.76,3.25-11.66,6.37-18.27,7.7-9.86,2-19-.31-27.7-4.81-4.85-2.51-9-6.13-13.33-9.37-3.85-2.85-4.48-6.23-3.19-10,1.92-5.64,4.47-11.06,6.07-16.83,1.15-4.16,3.65-3.87,6.22-1.46,4.75,4.46,10.48,7.06,16.52,9,8.37,2.67,15.73.12,22.21-5.25,1.93-1.59,1.77-3.72-.26-5.56a102.51,102.51,0,0,0-10.4-7.68c-14.15-9.89-23.6-23.72-31.16-38.85-7.49-15-10.3-31.13-10.68-47.76,0-1.71.8-3.86-2-4.27-2.54-.37-3.4,1.22-4.29,3.23-5.94,13.28-6.47,27-3.43,41,.32,1.46.53,2.95.71,4.43,1.06,8.79.88,8.94-7.61,12.85-3.12,1.44-4.33.34-4.67-2.68-1.26-11.32-2.5-22.64-3.81-33.95-1.08-9.25-2.4-18.43-.58-27.79,2.07-10.64,7.46-19.3,14.7-27.09,4-4.25,7.84-8.6,12.57-12,5.87-4.23,6.2-11.16,8.22-17.08s7.3-10.7,13.75-9.7c11.81,1.84,19.81,8.49,24.1,19.69,1.63,4.24-.68,8.12-.76,12.19a19.77,19.77,0,0,1-.76,4.42c-.35,1.36.58,3.42-1.28,3.94s-3.37-.95-4.21-2.19c-3.4-5.05-9.28-5.53-14.06-8-1.27-.66-2.94-1.24-4.12.28s-.55,2.82.22,4.21c3,5.37,5.78,10.83,8.88,16.13,7.58,12.94,14.33,26.21,18,40.87Z" transform="translate(-1 -0.91)"/><path d="M642.94,139.29c0,4.67,0,9.33,0,14,0,2.1.56,3.63,3.1,3.43,14.18-1.13,28.38-2.12,42.54-3.44,6.56-.61,7.94.14,8.17,6.91.22,6.32,0,12.66.07,19,.05,3.33-1.55,4.68-4.71,5.19-8.62,1.39-17.28.32-25.9.78-5.8.31-11.61.48-17.39.91-4.78.36-6.94,3.14-7.12,7.93-.45,12.15,1.86,24.19,1.28,36.36-.23,4.91,4.27,5,7.25,4.51,10.2-1.51,20.53-1.38,30.72-3.22,7.95-1.43,16.24-.06,24.27-1.72,1.83-.38,2.51.62,2.75,2.54,1.17,9.24.46,18.56,1.24,27.82.25,2.9-1,4.09-4,5.06-8.51,2.72-17.34,2.41-25.91,3.84-12.81,2.14-25.88.53-38.55,3.75-5,1.27-10.22,1.33-15.34,2-2.67.34-4.09-.67-4.16-3.51-.31-11.13-.68-22.27-1-33.4-.14-4.31-1.27-8.48-1.17-12.86.71-31.62,1.09-63.24,1.9-94.85.29-11.61,1.42-23.2,2.29-34.79.41-5.44,2-6.92,7.67-6.74a46.27,46.27,0,0,0,16.58-2.56,10.15,10.15,0,0,1,7.67.16c3.93,2,8.39-.2,12.06,2.22a1.11,1.11,0,0,0,1,0c9.33-4.67,19.71-3.45,29.56-5.22,6.43-1.16,6.56-1,6.5,5.32s1.89,12.44,1.33,18.82c-.29,3.25-1.16,4.36-4.74,4.64-12,1-23.93,2.61-35.91,3.82-3.47.36-7,.17-10.49.19-7.76.06-11.41,3.56-11.52,11.17,0,4,0,8,0,12Z" transform="translate(-1 -0.91)"/><path d="M133.18,860.05c-5.08,2.06-6.25-1-7.54-4.82-1.84-5.51-4.27-10.83-6.48-16.22-1.15-2.8-.79-4.19,2.78-4.3a67,67,0,0,0,11.85-1.58c10.32-2.19,20.88.14,31.35-2.85,16.9-4.81,33.76-9.77,50.67-14.58a3,3,0,0,0,1.32-.62c8.78-9,21.21-9.58,32.06-13.71,19.84-7.54,39.75-14.9,59.2-23.42,6.38-2.79,13.13-4.69,19.27-8.06.43-.24.91-.65,1.34-.62,14.25.91,24.55-8.62,36.38-14,10.42-4.7,20.35-10.48,30.52-15.74,2.13-1.1,4-2.24,4.54-4.88.43-2.13,2.32-3.16,3.95-4.32,4.6-3.26,9.32-6.37,13.79-9.82,2.31-1.78,2.86-.92,3.64,1.3,2.43,6.9,4.43,14,7.75,20.53.7,1.39.92,2.43-1,3.57-5.56,3.29-10.44,8.25-16.36,10.32-19.05,6.66-35.07,19.25-53.83,26.46-6.75,2.59-13.91,5-19.22,11.07-2.47,2.81-7.38,3.4-11.09,5.2-21.4,10.38-44,17.65-66.19,26-8.67,3.29-17.46,6.24-26.05,9.73-3.5,1.43-6.92-.24-10.24.67-7,1.92-13.9,4.21-20.93,6-14.3,3.69-28.67,7.17-43,10.74-.64.16-1.45.15-1.88.55C152.08,859.86,141.84,857.39,133.18,860.05Z" transform="translate(-1 -0.91)"/><path d="M204.83,56.6c-.15-7.89,4.82-12.15,8.8-16.92,1-1.23,2-.2,3,.54,9.72,7.46,20.86,13,29.57,21.82a69.88,69.88,0,0,1,9.26,11.08c5.48,8.45,12.63,15.38,19.44,22.63,1.06,1.13,2.21,3.18,4,1.74,1.6-1.26,1.34-3.43.35-5-10.38-16.87-18.41-35-28.36-52.08-3.5-6-6.91-12.08-10.48-18-2.18-3.62-1.86-6.49,2-8.67a16.8,16.8,0,0,0,6.19-5.72c2.07-3.43,3.69-1.88,5,.22,3.38,5.33,6.7,10.71,9.73,16.24,5,9.13,10.27,18.18,14.57,27.65,9.81,21.58,21.53,42.28,29.68,64.64,2.16,5.91,5,11.57,7.45,17.39,2,4.84-1.62,12.91-6.51,14.59-1.77.61-2.84-.75-3.61-2-5-7.88-13.24-12.36-19.66-18.72-5.86-5.8-11.35-12-15.35-19.42a57.85,57.85,0,0,0-19-20.79c-1.22-.82-2.44-2.27-3.95-1.08-1.27,1-1,2.76-.69,4.22a10.14,10.14,0,0,0,1.24,3.26c14.11,22.57,25,46.85,37.29,70.4,1.62,3.11,1.57,5.31-.7,8-3.72,4.47-7.79,8.65-10.93,13.6-1.23,1.94-2.94,2.95-4.3-.2-6.72-15.57-14.57-30.59-22.31-45.67-9.21-17.94-18.23-36-27.79-53.76-4.52-8.4-9.11-16.75-13.09-25.41A15.34,15.34,0,0,1,204.83,56.6Z" transform="translate(-1 -0.91)"/><path d="M598.76,94.42c1.2,4.31.7,8.55.08,12.5-1.32,8.54-1.19,17.22-2.47,25.65-2.55,16.88-3.24,33.92-4,50.84-.68,14.86-2.62,30,.3,44.93a18.49,18.49,0,0,1,.17,3c.34,14.07.78,28.13,3.78,42,.63,2.88-.32,4.57-3.48,4.42a16.11,16.11,0,0,0-7.74,1.56c-3,1.39-4.73.61-5.73-2.4-4-12.1-8.21-24.16-12-36.36-5.32-17.31-8.48-35.13-13.35-52.54-.42-1.48-.23-3.87-2.5-3.71s-2.7,2.33-2.71,4.17c-.07,17.13-2.65,34.31-.84,51.33,1.39,13.12,1.9,26.47,5.35,39.39.6,2.25,2.6,6.24-2.38,7.1-8.06,1.39-11.32.12-12-4.81-2.87-20-6.15-40-5-60.33.58-9.88,2.62-19.68,3.21-29.56.55-9.08,1.24-18.25-.51-27.32a10.53,10.53,0,0,1-.4-2.45c.77-14.64-2.09-29.17-1.36-43.81A9.82,9.82,0,0,1,546,108.5c2.48.27,2,2.53,2.37,3.84,4.5,15.4,8.93,30.82,13.15,46.3,3.52,12.91,6.75,25.91,10.09,38.87.45,1.75.49,4.08,3,3.94,2.84-.15,2-2.7,1.93-4.3-.56-14.48.68-28.92,1.59-43.31,1.11-17.65,3.91-35.18,6-52.76.29-2.43,2-3.36,4.14-3.63A37.91,37.91,0,0,0,598.76,94.42Z" transform="translate(-1 -0.91)"/><path d="M113.44,279.87a10.36,10.36,0,0,0,.78,3c7.3,13.8,12.8,28.46,20.45,42.12,3,5.28,5.24,11,8.2,16.32,1,1.82,1.26,4.26.34,5.83a131.48,131.48,0,0,1-10.05,15.06c-2.34,2.94-2.86-.53-3.33-1.86-4.59-12.84-11.15-24.72-17.94-36.46-8.79-15.22-20.39-28.63-29.24-43.76-4.16-7.12-10.56-12.29-14.19-20-2.59-5.52-7.58-10.69-12-15.49-3.4-3.7-5.05-8.12-7.52-12.18a4,4,0,0,1,.49-5,79.93,79.93,0,0,0,8.69-13.9c1.63-3.14,2.79-3.68,5.19-.48,6.06,8.09,12.41,16,18.71,23.89,3.62,4.56,5.88,10,9.69,14.46,3.42,4,5.5,3.85,8.82-.37,5.93-7.58,12.09-15,18.29-22.34,3-3.59,3.3-6.68.22-10.59-10.05-12.78-18.3-26.89-28.79-39.36-2.34-2.78-2.53-5.2.79-7.54a53.5,53.5,0,0,0,5.89-5.3c2.54-2.43,4.5-2.08,6.39.89,8.81,13.85,18,27.47,26.49,41.51,7.48,12.34,16.46,23.73,23,36.7,6.7,13.39,13.6,26.67,19,40.65,1.5,3.86,3.47,7.54,5.11,11.35A7.54,7.54,0,0,1,172,307.11c-2,.57-2.24-1.12-2.63-2.21-5-13.77-12.61-26.22-19.69-39-2.95-5.33-6.11-10.57-8.84-16-1.63-3.28-3.56-4-6.53-1.23-4.73,4.39-6.81,10.53-10.7,15.5-2.54,3.24-5.19,6.39-7.84,9.54A8.07,8.07,0,0,0,113.44,279.87Z" transform="translate(-1 -0.91)"/><path d="M200.76,225.32q3,10.25,6,20.49a3,3,0,0,0,.19.46c4.05,9.61,3.81,18.26-5.32,25.13a13.13,13.13,0,0,0-5.22,7.09,2.5,2.5,0,0,1-2.46,2.12c-1.58-.11-1.4-1.47-1.72-2.58-4.88-16.85-10.08-33.6-15.38-50.33-4.26-13.43-7.11-27.29-10.84-40.88-4.91-17.89-9.84-35.78-15.31-53.5-1.34-4.35-2.47-8.86-4.4-13.09-2.06-4.49-3-8.76,1.89-12.68,3.72-3,6.74-6.86,9.82-10.55,1.9-2.27,3.08-1.45,4.75.15,10.62,10.15,18.89,22.16,27.47,34,9.85,13.54,19.74,27.1,31,39.58q13.13,14.6,26.43,29c1.57,1.7,3.65,2.89,5.35,4.48,2.31,2.16,2.72,4.34.06,6.77-2.2,2-4.08,4.38-6.09,6.6-4.1,4.51-5.86,4.54-9.79-.39-3.62-4.55-7.05-9.27-10.41-14-2.43-3.43-6-4.55-8.62-1.49-5.08,5.89-11.29,10.77-15.55,17.42A13,13,0,0,0,200.76,225.32Zm6.52-47.66a8,8,0,0,0-2-5.46c-8.43-11.28-16.61-22.78-27.11-32.35-.88-.81-1.19-2.71-3-1.85-2,.92-1.07,2.43-.59,3.84,2.44,7.2,4.95,14.38,7.28,21.62,2.7,8.36,5.25,16.76,7.85,25.15.84,2.72,2.39,5.17,5.22,2.81,4.28-3.58,8-7.82,11.87-11.86C207.27,179,207.2,178,207.28,177.66Z" transform="translate(-1 -0.91)"/><path d="M224.22,805.69c-2.85.57-3.5-.9-4-2.3-5.58-14.38-11-28.8-16.73-43.13-1.55-3.9-1.25-5.44,3.28-7,31.58-10.73,63-21.95,93.32-35.93,7.34-3.38,7.34-3.21,10.29,4.24,5.07,12.78,10.22,25.53,15.34,38.29,2.29,5.7,2.13,5.34-3.74,8.1-26.83,12.59-54.91,22-82.55,32.47C234.12,802.45,228.74,804.13,224.22,805.69Z" transform="translate(-1 -0.91)"/><path d="M866.22,317.4c-11.36-2.49-19.37,4.38-28.4,8.17s-16.3,9.81-24,15.58c-7.94,5.94-16.2,12.26-26.94,12.94-2.58.17-3.69,3.3-6.39,3.6-5.75.63-11.45,1.27-16.74-2a5.4,5.4,0,0,0-3.31-.73c-8.53,1.12-15.55-1.53-22.28-6.95-6.31-5.09-13.67-8.86-21.08-12.27-4-1.84-8.08-4-10.43-7.43-4.47-6.58-11.63-9.45-17.24-14.32-6.27-5.44-13.59-9.91-18.15-17.23-1.86-3-1.19-5.14,1.49-7.2a55.3,55.3,0,0,0,5-4.74c.48-.47,1-1.44,1.38-1.36,6.25,1.51,10.54-3.93,16.17-4.51a7.73,7.73,0,0,0,2.94-.45c8.49-4.93,13.4,1.26,18.19,6.26,4.26,4.46,8.83,8.43,13.41,12.51,10.8,9.64,24.12,14.23,37,19.82,4.88,2.13,10.37,2.23,15.67,2.13,9.62-.18,19.25.55,28.8.41,6.42-.1,13.26-2.53,19.42-5.57a47.56,47.56,0,0,1,8.29-3.37c2.21-.61,4.27-1,7,.43,3.57,1.87,7.6-.75,11.25-2.1a11.21,11.21,0,0,0,4.55-3c3.92-4.67,9-1,13.43-2.2.75-.2.87.76,1,1.43C876.81,309.5,870,317.48,866.22,317.4Z" transform="translate(-1 -0.91)"/><path d="M478.82,279.15c0,4.33-.27,8.68.08,13,.34,4.11-1.68,5.78-5.23,6.43-1.14.21-2.31.23-3.46.38-6.83.86-7,.17-5.82-7.07,1-6,.74-12.24,1.14-18.36,1.18-18.1,4.29-35.94,7.32-53.79,2.52-14.8,4.91-29.63,7.48-44.43,2.08-11.93,2.36-24.06,4.87-35.91.92-4.36,1.77-8.74,2.67-13.11.36-1.78,1.92-2.3,3.31-2.66a79,79,0,0,1,9.71-2c2.58-.33,2.91,2,2.92,3.73a204.14,204.14,0,0,0,1.27,22.37c1.39,11.79,2.17,23.65,3.47,35.46s2.07,23.81,4,35.61A552.52,552.52,0,0,0,527,281.25c1.08,3.75,1.71,6.69-3.68,6.58a4.18,4.18,0,0,0-1,.16c-8.22,2.12-8.34,2.15-10.35-5.95-2-7.86-5-15.46-5.66-23.63-.19-2.54-1.72-3.61-4.05-3.26-6.52,1-13,2-19.5,3.24-2.85.56-3.74,3.05-3.75,5.77,0,5,0,10,0,15Zm21.65-62s-.1-1.5-.26-3c-1.26-11.16-2.48-22.32-3.83-33.46-.33-2.78.47-7.46-2.88-7.43-3.57,0-3,4.81-3.14,7.67a186.64,186.64,0,0,1-2.21,19.7c-1.21,7.36-2.71,14.66-3.94,22-.39,2.28-1.34,5.25,1.86,6.44C492.4,231.42,500.53,225.41,500.47,217.13Z" transform="translate(-1 -0.91)"/><path d="M429.62,815.62c-.44,2.7-2.38,3.74-4.28,4.78-17,9.33-33.9,18.85-51.86,26.3-1.07.45-2.12,1-3.16,1.48-4.67,2.29-6.57,1.79-8.45-3.08-6-15.46-11.75-31-17.58-46.5-1.13-3-.1-5,2.87-6.38,18.8-8.63,37.47-17.55,55.52-27.71,5.12-2.88,6.59-1.91,9,3.81,6.23,14.69,11,29.92,16.76,44.78C428.81,814,429.28,814.89,429.62,815.62Z" transform="translate(-1 -0.91)"/><path d="M334,765.71c-2.86-.75-4.07-3.12-5-5.61-5.29-14.12-10.4-28.31-15.84-42.37-2.56-6.65-2.15-7.73,4.23-10.51,13.11-5.71,25.79-12.28,38.33-19.15,5.38-3,11.07-5.35,16.43-8.34,3.6-2,5.51-.25,6.6,2.61,5.94,15.63,11.65,31.35,17.56,47,1.07,2.83.57,4.85-1.94,6.35-18.87,11.3-38.8,20.49-58.84,29.45C335.06,765.33,334.59,765.48,334,765.71Z" transform="translate(-1 -0.91)"/><path d="M217.2,807c.39,3.54-.8,4.5-3.15,5.14-17.54,4.84-35,9.92-52.55,14.69-3.33.91-6.8,1.31-10.13,2.36s-5-1.54-6-4c-6.09-15.62-12-31.3-17.93-47-1.26-3.38.23-5.34,3.73-6.09,13-2.76,25.85-6,38.56-9.88,7.43-2.27,14.91-4.41,22.25-7,3.58-1.25,5.8-.5,7.1,3q9,23.67,17.84,47.38A3.22,3.22,0,0,1,217.2,807Z" transform="translate(-1 -0.91)"/><path d="M403.83,288.67c0,9,0,15.65,0,22.31,0,1.83.14,3.75-1.36,5.15-1.06,1-2,2.73-3.55,2.44-2-.38-1.1-2.44-1.32-3.75-4.14-24.37-4.13-49-3.62-73.54.29-14,3-27.94,4.12-42,.89-10.86,1.61-21.76,2.74-32.61.44-4.31,3.28-6.27,5.87-8.73.71-.68,1.69-1.38,2.67-.72s.68,1.76.57,2.75q-2.38,21.94-4.75,43.88a33.19,33.19,0,0,0-.14,4c.1,5.79,1.22,6.18,7.05,5.36a112,112,0,0,0,17.81-4.44c3.41-1.06,5.17-2.71,5.22-6.67.22-17.8.77-35.6,1.16-53.4.11-4.9,4.82-9.76,9.71-9.94,1.47-.06,1.6.91,1.61,1.92a64.54,64.54,0,0,1,0,8c-2.92,26.89-.57,53.85-1.26,80.77-.29,11.13-.19,22.3.24,33.42a228.39,228.39,0,0,0,3.93,34.48c.77,3.94.08,5.7-4.14,6.59-11.51,2.42-12,2.64-12.68-8.74-.86-14.58-3.31-29-3.5-43.65-.05-4.16,1.68-8.09,1.18-12.32-.47-4-2.18-5.44-5.44-3.19-4.72,3.25-10.12,2.94-15.23,4-6.43,1.31-7.63,2.45-7.85,9.12C402.39,263.12,404.93,277,403.83,288.67Z" transform="translate(-1 -0.91)"/><path d="M236.06,492.37c0-5.65.27-11.33-.08-17-.29-4.48,1.67-6,5.74-5.89,8.81.28,17.61.71,26.41.79,16.22.15,17,0,18.8,15.36,1.22,10.47,2.4,21.13,1.74,31.77-.6,9.53-10.1,18.53-19.79,19.36-20.18,1.72-32.53-11.46-32.78-30.46-.07-4.66,0-9.32,0-14Z" transform="translate(-1 -0.91)"/><path d="M122.46,573.83c-.26,19.6-17,32.14-34,26.76-4.72-1.49-7.6-5-10.11-8.49-6.79-9.42-14.28-18.27-21.54-27.32-2.86-3.57-2.36-5.76.88-8.76,8.53-7.9,16.71-16.16,25-24.29,5.77-5.64,7.55-5.41,12.67.74,6.23,7.49,12.65,14.85,19.19,22.09C119.77,560.37,123.06,566.8,122.46,573.83Z" transform="translate(-1 -0.91)"/><path d="M238.63,444.64c0-5.5,0-11,0-16.49,0-3.56,1.47-5,5.16-5,10,.19,20,.23,30,.06,3.68-.07,5.59,1.84,5.66,4.89.24,11.45,1.76,22.78,2.84,34.15.33,3.43-.94,4.53-4.49,4.5-11.64-.09-23.26-.13-34.86-1.34-3.06-.32-4-1.43-4-4.32.12-5.49,0-11,0-16.48Z" transform="translate(-1 -0.91)"/><path d="M84,524.87a28.38,28.38,0,0,1-1.94,2.34Q68.84,540,55.57,552.71c-1.71,1.64-2.79,1.5-4.32-.54-6.65-8.87-13.5-17.59-20.33-26.33-3.69-4.72-3.36-5.76,1.09-9.89,7.29-6.75,14.6-13.45,22.29-19.73,1.87-1.53,3.32-2.52,5.41-.14,7.31,8.32,14.11,17.09,22,24.92C82.68,522,83.19,523.48,84,524.87Z" transform="translate(-1 -0.91)"/><path d="M116.59,832.1c-4.27.15-5.53-2.71-6.52-5.22q-7.54-19.23-14.69-38.63c-2.1-5.7-.46-7.84,5.55-8.64,6.37-.85,12.74-1.79,19-3.07,2-.41,3-.45,3.7,1.7,5,15.15,11.22,29.82,17.09,44.63,1.38,3.49,1.77,5.15-3.21,5.92C130.35,829.9,123,830,116.59,832.1Z" transform="translate(-1 -0.91)"/><path d="M432.45,748.36c3.12-.3,4.49.79,5.32,3,5.21,13.65,10.54,27.25,15.7,40.92,1.16,3.08.32,5.67-2.48,7.9-5.07,4-10.65,7.27-16,10.9-2.16,1.48-2.75.25-3.47-1.62-4.08-10.53-8.31-21-12.41-31.53-1.68-4.3-2.92-8.8-4.81-13-1.28-2.83-1-4.35,1.73-6,4.94-3,9.59-6.51,14.41-9.73A6.62,6.62,0,0,1,432.45,748.36Z" transform="translate(-1 -0.91)"/><path d="M421.75,710.48c.07,3.06-1.64,4.89-3.76,6.28-4.71,3.1-9.65,5.85-14.23,9.11-2.6,1.85-3.76,1.23-4.8-1.36-3.32-8.29-6.74-16.54-10-24.85-2.65-6.76-5-13.61-7.69-20.36-.89-2.24.51-3,1.84-4,4.74-3.33,9.49-6.66,14.31-9.87,3-2,6.07-2.47,7.76,1.63,5.68,13.78,11.43,27.54,16.16,41.68A16.21,16.21,0,0,1,421.75,710.48Z" transform="translate(-1 -0.91)"/><path d="M86,745.17c3.13-12.92,5.71-26,4.67-39.21A307.39,307.39,0,0,0,82.94,658c-6.13-25.34-15.83-49.27-27.1-72.67A83.45,83.45,0,0,1,50,569.51c1.17,1.77,2.45,3.49,3.49,5.33,12.63,22.39,25.94,44.47,35,68.62,6.25,16.59,11.23,33.49,12.58,51.45s-3.2,33.68-12.68,48.44C87.88,744.15,87.54,745.19,86,745.17Z" transform="translate(-1 -0.91)"/><path d="M355.25,216c-.5-7.8-2-14.49-1-20.83.87-5.81,2.1-11.54,2.11-17.48,0-2.53,2.15-2.78,4-2.61a52.8,52.8,0,0,1,18.38,5.61c3.3,1.63,2.77,6.23,2.25,9.61-.8,5.21-2.22,10.33-3.38,15.49-.47,2.08-1.58,2.86-2.72.64-1.29-2.52-3.73-3.26-5.84-4.36-8.76-4.57-12.78-2.09-12.68,7.56A10.73,10.73,0,0,1,355.25,216Z" transform="translate(-1 -0.91)"/><path d="M398.34,455.65c3.34,7.92,4.93,16.34,7,24.62.79,3.16,2.93,6.12,2,11-3.64-9-5.41-17.13-7.17-25.24-.74-3.43-3.53-6.6-1.71-10.47Z" transform="translate(-1 -0.91)"/><path d="M479.6,487.59c-.09-3.85.22-7.1,3.9-10.21C484.12,481.93,485,485.58,479.6,487.59Z" transform="translate(-1 -0.91)"/><path d="M558.34,709.88c4.65,1.68,4.72,3.2.83,10.41C556.76,717,558.19,713.6,558.34,709.88Z" transform="translate(-1 -0.91)"/><path d="M147.83,704.53c-2.51.26-4-1.4-4.76-3.15a44.16,44.16,0,0,1-2.54-8.56c-.57-2.8.71-4.16,3.74-4.54a283,283,0,0,0,46.06-10.07c26-7.78,50.77-18.54,75.14-30.28,10.17-4.9,19.77-10.88,29.3-16.94,6.71-4.28,8.12-3.85,10.43,3.46s2.34,7.35-4.54,11.62A433.91,433.91,0,0,1,189,695.31C175.52,699.12,161.58,701.5,147.83,704.53Z" transform="translate(-1 -0.91)"/><path d="M132,667.17c-1.37.34-2.23-1.42-3-3.39s-1.71-3.6-2.43-5.46c-1.45-3.74-.51-6,3.85-6.56,35.91-4.92,69.35-17.9,102.43-31.88,17.29-7.31,33.25-17.23,49.52-26.51,5.05-2.87,6.5-2.61,8.67,2.61.7,1.69,1.13,3.5,1.94,5.13,1.37,2.78.09,4.39-2.19,5.7-16,9.23-31.55,19.18-48.5,26.58-23.71,10.36-47.63,20.26-72.78,26.63A312.87,312.87,0,0,1,132,667.17Z" transform="translate(-1 -0.91)"/></g></g></svg>