<svg xmlns="http://www.w3.org/2000/svg" viewBox="0 0 872.62 737.27"><title>christ</title><g id="Layer_2" data-name="Layer 2"><g id="Layer_1-2" data-name="Layer 1"><path d="M814.18,245.71c8.33-2.57,17.1-3.11,24.42-.69,5.12,1.69,9.61.79,14.3,1.57a11,11,0,0,1,2.13.87c-2,3.07-4.95,3.54-8,4.12-11.2,2.11-22.52,2.19-33.83,2.46-25,.6-49.94,1.11-74.91,1.68-3.6.08-7.47-.6-8.16,4.91-.29,2.31-3,1.75-4.7,1.4-5.26-1.1-8.94.74-11.84,5.15-2.5,3.8-6.3,6.38-9.78,9.22s-7.47,1.78-11.08,1.11a52.89,52.89,0,0,0-26.58,2.23c-9.48,3.13-19.19,1.62-28.78,1.94-15.13.52-30.28,0-45.38,1.54a39.28,39.28,0,0,1-17.75-1.92c-7-2.57-13.82-2.19-21.07-1.7-8.93.61-18-.18-26.91,1.14-8.5,1.27-16.94.55-25.42.56a12.85,12.85,0,0,1-6.77-1.44,31.59,31.59,0,0,0-16.65-4.54c-3.54,0-5.83-1.38-5.56-5.33.2-2.93-2.57-4.48-3.06-7.22-2-10.87,1-15.68,11.54-22s21.91-6.1,33.37-6.4c19.42-.5,38.82-.37,58.23-2.43,14.11-1.5,28.58-2.43,42.69,1.52,9.58,2.68,19.1.86,28.7-.38,8.62-1.11,16.6-6.2,25.82-3.71s18.3,5,27.72,6.34c2.38.34,3.13,2.2,3.85,4.12,1,2.61,2.78,4.16,5.69,3.94,6.4-.48,12.54,1.18,18.76,2.23,1.39.23,2.85.46,3,2.1.32,4.46,3.3,4.05,6.46,4q39.21-.79,78.41-1.42c1.37,0,2.8.12,3.48-1.33C817.44,247.22,814.61,247.43,814.18,245.71ZM496.94,265.36c-1.26-1.25-2.36,1.05-3.65.11-.93-.68-2.07-1.27-3,.11a1.29,1.29,0,0,0,0,1.78,2.88,2.88,0,0,0,3.67.26C495,267,496.62,267.05,496.94,265.36Z" transform="translate(-6.62 -35.14)"/><path d="M30.5,252c3.11-1.14,6-2.58,9.21-.64a3.24,3.24,0,0,0,2.86.08c9.37-5.94,19.32-2.66,29.09-2.39.37,2.27-3.1,2.2-2,4.31,1,1.86,2.84,1.38,4.46,1.41,26,.47,52,.89,77.92,1.43,3.08.06,5.72.16,6.06-3.91.14-1.58,1.67-1.92,3-2.17,6-1.14,12-2.83,18.27-2.3,3.36.29,5.41-1,6.29-4.28.5-1.87,1.53-3.48,3.61-3.7,11.29-1.18,21.85-5.82,33.15-6.94a19.08,19.08,0,0,1,7.86.9c14.79,4.71,29.82,7.11,45.15,3.11,13-3.42,26.28-2.06,39.23-.79,12.46,1.23,24.88,1.57,37.33,2s24.64.27,36.93.95c10.84.61,19.83,6.31,27,13.74,4.35,4.52,2.2,11.35.19,17.12-.26.77-1.24,1.46-1.19,2.14.61,7.64-4.91,7.38-9.9,7.75-4,.3-7.69,1.69-11.42,3.25-9.35,3.91-19.25,3.13-29,2.05-9.28-1-18.52-1.87-27.86-1.39a28.44,28.44,0,0,1-4.95-.36c-6.33-.77-12.56-1-18.64,1.62-8.6,3.66-17.85,3.24-26.6,2-10.84-1.54-21.61-.36-32.39-1-7.63-.48-15.32-.31-23-.16-7.16.13-13.46-3.51-20.48-4.17-5.69-.54-11.28-1.28-16.86.17-8,2.07-13.42-1.87-18.32-7.3a30.26,30.26,0,0,1-2.88-3.45c-2.79-4.21-6.52-5.88-11.54-4.89-2.83.57-5.15.37-5.6-3.57-.36-3.19-3.49-2.63-5.67-2.65-21.15-.21-42.27-1.43-63.44-1.42-16.25,0-32.59-.61-48.76-3C34.9,255.14,32.9,253.28,30.5,252Z" transform="translate(-6.62 -35.14)"/><path d="M153.12,83.56c2.54-2,4.31-1.24,6-.79,2.25.58,4.45,1.46,6.73,1.85,11.37,1.94,12.06.23,10.74-11.27a8.23,8.23,0,0,1,.63-4.86c2-4.71,1.4-9.86.92-14.78-.47-4.75.45-6.71,5.84-7.08,9.05-.61,18.37.4,27.11-3.14a2.68,2.68,0,0,1,2.36.25c4.47,4.33,10.74,7.79,10.59,14.94-.1,4.84,2.22,8.52,3.67,12.66.27.78.6,1.73,1.59,1.67,1.32-.08,1.35-1.28,1.43-2.24.75-8.94,2.29-17.86,1.28-26.88-.4-3.52.4-4.56,4.3-4.25,20.7,1.61,41.38,3.44,62.13,4.53,28.65,1.49,57.23-1.13,85.82-.05a39.37,39.37,0,0,1,12.16,2.38A46.93,46.93,0,0,0,410.62,49c7.92.44,10.89,6.9,15.22,11.5,2.81,3,1.84,6.71-1.31,9.75-2.84,2.72-5.29,5.6-9,7.43-3.32,1.62-7.15,3.69-7.54,8.46-.07.83-1.06,2.2-1.73,2.27-5.47.54-9.43,4.75-15.35,5.1-7.4.45-14.78,1.86-22.28,1.64-1.47,0-3.33.59-4.26-.72-1.12-1.57.76-2.68,1.51-3.82,3.55-5.35,5.27-11.48,7.49-17.38.52-1.4.77-3.29-.69-4.12-2-1.13-2.36,1.18-3.17,2.21-4.3,5.47-5.93,12.5-11.11,17.64-3.69,3.66-6.59,5.35-12.29,5-16.42-.92-33-2.48-49.38-.32-21,2.76-42,3.32-63.16,3.13-6.13-.06-12.34-.61-18.43.62-2.85.58-5.13-2.34-7.7-1.39-8.69,3.21-17-.51-25.44-1.14-6.44-.48-12.68-.94-17.46-6.73C162.17,85.36,157.81,84.32,153.12,83.56ZM273.89,93A19.21,19.21,0,0,0,277,84.1c.1-.78.13-1.77-1-1.95a1.61,1.61,0,0,0-1.76,1.4A20.4,20.4,0,0,0,273.89,93Z" transform="translate(-6.62 -35.14)"/><path d="M514,64c-2.55,5.33.55,9.29,1.85,13.24a31.37,31.37,0,0,0,5.47,10.59c2.08,2.47.54,3-1.77,3.24a86,86,0,0,1-29.11-2.65c-4.78-1.21-12.45-1.68-13.63-10.11-.4-2.87-4.89-4.29-7.79-5.58-4.27-1.92-6.11-6-9.1-8.94-2.43-2.41-.66-8.1,2.79-10.52a24.23,24.23,0,0,0,5.91-5.79c2.6-3.54,7.4-2.59,11.18-3,6.18-.63,12-2.49,17.92-4,4.79-1.2,9.62-.69,14.36-.67,19.46.05,38.92,1.11,58.37.83,15.24-.23,30.54-.56,45.72-2.49,11.71-1.49,23.59-.9,35.25-3,2.36-.43,3.53.75,3.16,3.12-1.42,9,.3,17.93.8,26.88.08,1.42-.42,3.48,1.52,3.73,2.13.28,1.47-2.14,2.24-3.23,2.54-3.56,2.77-7.54,3.06-11.73.48-6.87,6.4-10.13,10.79-14.3a3.29,3.29,0,0,1,2.85-.24c9,3.72,18.69,2.52,28.07,3.37,3.19.3,4.49,1.36,4.37,4.53-.25,6.41-1.48,12.8,1.89,19,1.05,1.95-1.35,4.85-1.08,7.65.58,6.17,2.43,7.9,8.64,6.89a54,54,0,0,0,7.7-2,11.45,11.45,0,0,1,6.81-.1c-3.41,1.45-5.56,2.45-7.79,3.25-1.09.4-2.52.43-3,1.54-3.16,7.06-9.87,6.37-15.76,7.13s-11.56,2.21-17.25,2.3-11.38.27-17,0c-19-.86-38,.4-56.87-.92-12.92-.9-25.73-3.18-38.72-3.21s-26-.1-38.89,1.37c-2.46.28-4.69-.21-6.31-2.2-4.08-5-8.77-9.62-10.81-16C518.82,69,516.44,66.94,514,64Zm98.12,24.16c1.13-6.89.61-8.74-3-11C608.9,81.18,609.45,84.72,612.13,88.19Z" transform="translate(-6.62 -35.14)"/><path d="M786.56,451.6c2.84-2.4,8.31-3,6-9.13-1-2.76,1.49-3.44,3.38-3.85A24.38,24.38,0,0,1,814.6,442c2.91,1.89,6.32,1.82,9.23,4.29-4.61-2.11-6.32.28-6.67,4-.24,2.56.53,5.15-2.53,6.8-1,.55-.39,2.22.88,2.78s2.89,1.48,3.7-.71c.32-.86-.22-2,1-2.57,4.59,4.5,4.59,4.51,13.1,4.16,5.31-.22,10.61-.45,15.92-.74,1.93-.11,3.9.08,5.22-2.11,1.19-2,3.55-1.55,4.87-.42,1.82,1.57,4.18,1.91,6.46,3.57-3.51,2-7.13,1.95-10.57,2.17-13.1.84-26.2.54-39.34.16-17.58-.52-35.21.44-52.81.27-21.3-.2-42.61.55-63.91-.21-9.13-.33-18.29.6-27.43.64-11.64,0-23.29-.41-34.93-.34-21.11.11-42.2-.59-63.31-.34-23,.27-45.9-.57-68.86-.79-11.14-.1-22.26,1.16-33.41.47a62.83,62.83,0,0,1-6.43-.68c-2.17-.35-3.17-1.71-2.69-3.94,1.36-6.26,1.07-12.61.88-18.93-.11-4,1.53-5.05,5.28-5.24,18.33-.93,36.62.79,54.94.64,21.31-.17,42.63.21,63.94.47,30.1.37,60.2.51,90.29,1.38,30.94.9,61.87.81,92.81,1.15,2.83,0,5,.46,6.74,3.16,1.39,2.19,3.57,3.6,6.22,1.07,1.77-1.69,3.72-1.26,5.33.34s.91,3.23-.62,4.67A4.78,4.78,0,0,0,786.56,451.6Zm12.51-3.26c2.11-.22,4.71.33,4.85-1.83.12-1.82-1.71-3.32-4.28-4C800.05,444.66,800.36,446.55,799.07,448.34Z" transform="translate(-6.62 -35.14)"/><path d="M32.49,460.56c-.32,1.88-.72,3.4,2.33,3.45a211.05,211.05,0,0,1,22.86,1.61c5.4.67,12.18-7.25,11-12.6-.94-4.15.56-6.08,4.14-7.78a26.69,26.69,0,0,1,18.41-2.12c2.22.54,4.45,1,2,4.24-1.55,2,1.9,7.79,4.43,8.11.89.11,1.7,0,2-1a3.68,3.68,0,0,0-.86-3.24c-.89-1.24-4.13-1.61-1.86-4.05,1.67-1.79,3.75-2.75,6.15-.75s4.13.34,5.4-1.47a6.88,6.88,0,0,1,6.43-3.07c20.8.9,41.59-1,62.38-.48,21.65.58,43.24-1.3,64.88-1.24,22.29.07,44.58-.06,66.86-.55,30.29-.68,60.6.25,90.87-1.46,6.29-.35,12.64.33,19,.4,3.2,0,4.31,1.52,4.42,4.62.24,6.62-.59,13.28,1.31,19.86.84,2.92-2,3.54-4.15,3.65-6.64.34-13.3.92-19.92.59-18.63-.94-37.24,0-55.87-.07q-27.42-.07-54.84.18c-22.28.2-44.57.88-66.85.75-17.64-.11-35.28-.43-52.92-.36-23.65.1-47.29.16-70.93-.07-16.47-.15-32.92.12-49.38.45-8.44.17-16.91-1-25.37-1.55-1.07-.07-2.6.19-2.68-1.49-.05-1.22,1.29-1.27,2.09-1.8a15.85,15.85,0,0,1,8.89-2.68Zm57.38-7.79c-1.66-2.06-5.39-2.33-3.15-4.83L81,451.72C83.94,451.29,86.43,454.13,89.87,452.77ZM68.14,465.34a3.4,3.4,0,0,0,2.7-3c.15-.94-.41-1.73-1.36-1.56a3.45,3.45,0,0,0-2.86,3C66.45,464.72,67.12,465.21,68.14,465.34Z" transform="translate(-6.62 -35.14)"/><path d="M415,671.3c0,5.68.05,10.35,0,15-.07,6.37-2.57,8.75-8.8,8.74-16.91,0-33.85.92-50.7.48-16.63-.43-33.16.77-49.73.58-3.62,0-7.22-.93-10.82-1.5-2-.31-2.85-1.36-2.37-3.51,2.71-12.2,2.21-24.82,4.91-37.05.77-3.47,2.07-5.31,5.81-5.37,30.79-.48,61.57-1.06,92.35-1.58,4.16-.07,8.32,0,12.49,0,3.5,0,5.45,1.51,5.95,5.25C415,659,414.69,665.67,415,671.3Z" transform="translate(-6.62 -35.14)"/><path d="M524.15,644.25c13,0,26,0,38.94,0,6.82,0,13.64.25,20.46.44,2.5.07,4.37.8,5,3.77,2.75,12.89,2.82,26.11,5,39.07.5,3.08-2.17,2.71-4,3.11-9.38,2.05-18.78,1.38-28.26.66-10.39-.78-20.84.12-31.24.2-10.08.08-20.22-.49-30.33-.73-6.65-.17-13.31,0-20,0-6.12,0-8.35-2-8.34-8,0-11,.36-22,.57-33,.08-4.4,2-6.69,6.75-6.65,15.15.13,30.31,0,45.46,0Z" transform="translate(-6.62 -35.14)"/><path d="M464.42,560.84c.69-4-1.33-7.41-1.17-11.11.15-3.54.78-5.49,5.27-5s8.63-1.9,13.22-1.76c13.28.4,26.61,1.15,39.87.6,24.95-1,49.94.91,74.86-1.18,4.52-.38,7.91,1.86,11.61,3.47,9.75,4.27,19.89,6.71,30.54,6.3,6-.23,11.35,2.2,17,3.29,3.54.67,3.41,3.47,3.53,5.67s-2.45,2.82-4.09,2.79c-11.27-.19-21.28,4.65-31.81,7.45-3.57,1-7.84-.43-11.73-1.08-2.73-.46-4.9-.19-6.58,2.21-1.51,2.16-3.77,2.34-6.22,2.37-30.59.35-61.19,1-91.79,1.05-9.32,0-18.65,1.4-27.89.53C470.22,575.64,464.1,571.45,464.42,560.84Z" transform="translate(-6.62 -35.14)"/><path d="M248.46,556.28c13.5.32,24.4-3.38,34.76-8.92a8.48,8.48,0,0,1,4.8-.81c22.14,1.29,44.31,0,66.42.76,17.48.65,34.89-.85,52.34-.22,4.63.17,8.83,2.93,13.7,1.67,1.58-.41,2.47,1.7,2.39,3.23-.33,6.39-.35,12.87-2.08,19-1.5,5.35-8.15,9.87-13.68,9.52-22.11-1.41-44.25-.18-66.38-1.12-17.6-.74-35.24-.34-52.87-.46-1.65,0-3.79.64-4.74-.83-3.54-5.43-8.5-4.24-13.27-3-5.34,1.41-10.26-.1-14.87-2a65,65,0,0,0-21.82-4.82c-2.31-.12-5.38.2-5.64-3.43-.24-3.41,1.13-5.47,4.86-6C238.27,558.11,243.83,555.09,248.46,556.28Zm48.4,1.11a16.07,16.07,0,0,0,12,.56C304.84,555.13,300.78,557.51,296.86,557.39Z" transform="translate(-6.62 -35.14)"/><path d="M404.14,370c0-.79-.1-1.59-.1-2.38-.07-7.94-.67-7.56-8.76-6.77-3.21.31-7.32-.33-11-.85-7.61-1.1-15.32-1.36-22.85-2.57-6-1-11.8-3.27-17.92-3.83-16.7-1.54-33.36-4-50.24-1.73-6.57.89-12.06,3.69-17.14,7.55-1.73,1.31-2.87,1.31-4.84.5a53.26,53.26,0,0,0-26.74-4c-9.9,1.16-19.78,2.52-29.73,3.36-13.07,1.1-26,3.53-39.09,4.75-9.27.88-18.49,2.23-27.69,3.4-15.46,2-31,3.68-46.35,6.65a189.4,189.4,0,0,1-40.15,3.26c-5.72-.14-11.53.73-17.79-.64a9,9,0,0,1,6.94-4.33c10.48-1.71,20.66-4.81,31.31-5.92,6.44-.68,12.58-4.56,19.21-4.37,12.89.36,25.28-3,37.93-4.37,15.92-1.68,31.74-4.41,47.52-7.29,4.49-.82,9.48-2.52,14.12.47a2.93,2.93,0,0,0,2.81-.33c5.22-5.93,12.68-4.17,19.1-5.31,11.09-2,22.12-4.15,33.16-6.33,4.08-.81,8.1-1.92,12.11-3a8.5,8.5,0,0,1,5.86.51c7.06,3.16,14.55,3,22,3.54,23.7,1.68,47.38,3.8,71.08,5.54,13.11,1,26.3.85,39.38,2.48,5,.63,7.13,3.21,6.58,7.53-.13,1-.24,2.3-1.18,2.61C405.89,360,404,364.26,404.14,370Z" transform="translate(-6.62 -35.14)"/><path d="M480.58,361c-.26-3.55-1.73-5.43-5.06-6.58s-3.09-6.75.27-9.08c2.31-1.61,5-1.72,7.67-1.89,23.41-1.51,46.83-2.77,70.22-4.49,15.42-1.13,30.79-2.92,46.27-3.22a14.93,14.93,0,0,0,6.31-1.38c6.54-3.33,12.82-2.58,19.7-.66,16.65,4.63,33.79,7.05,50.9,9.39.66.09,1.61,0,1.93.34,4.05,4.83,9.28,1.87,14,2.27a149.58,149.58,0,0,1,21.37,3.65c5.62,1.31,11.6,1,17.29,2.15,14.41,2.83,29.1,3.6,43.58,6.08,7.19,1.23,14.86.4,22.07,2.59,12.21,3.71,25,4.51,37.29,7.89,2.45.67,6.73,1,6.4,3.43-.36,2.77-4.42,1.5-6.95,1.68-15.37,1.1-30.56-1.54-45.81-2.45-8.15-.49-16.27-3-24.51-4.16-15.48-2.18-31-3.56-46.52-5.73-14-2-28-3.91-42-5.18-16.28-1.48-32.48-6.19-49.08-3.14-1.47.27-3.15.16-4.38.84-6.3,3.52-11.44,1.93-17.51-1.64-10.1-5.94-21.83-5.56-33.12-4.72-11.09.83-22.21,1.67-33.24,3.43-6,1-11.8,3.48-18,3.4-7.59-.1-14.93,2.11-22.57,1.87-3.86-.13-7.74,1-11.76.31C482.34,355.51,482.65,359.24,480.58,361Z" transform="translate(-6.62 -35.14)"/><path d="M820.08,177.06a26.28,26.28,0,0,1-.42-9.13c.67-6-3-10.35-4.46-15.5-.23-.8-.43-1.79-1.45-1.76-.5,0-1.4.66-1.41,1-.22,6.16-3.61,5.89-8.34,3.57,4,5.22-.28,8.88-1.59,12.84-.8,2.38-3.51,1.34-4.61.08-4.32-5-10.43-4.44-16-5.68-1.65-.36-4.2.32-4.07-2.44.12-2.56-1.24-5.75,2.63-7.23a106.06,106.06,0,0,1,11.55-3.15c1.56-.4,3.16-.62,3.91-2.59,4.73-12.44,15.57-18.07,25.68-17.34,17.51,1.28,34,5.78,48.9,15.46,11.58,7.54,11.68,9.38.71,16.9-6.58,4.52-14.27,6.86-21.08,10.91-1.73,1-3.57,1.85-3.46-1.57,0-1.08-.89-1.65-1.69-2.3-3.4-2.74-3.25-5.27.39-7.43,2.5-1.49,6-2.31,4.66-6.41-1-3.13-7.57-7-10.42-6-3.41,1.27-5.7.3-7.91-2.23-1-1.2-2.38-2.64-4.28-1.64a3.37,3.37,0,0,0-1.67,3.89c1.3,4.61-.54,9.58,1.81,14,.35.67.6,1.91.25,2.34C824.83,169.26,822.88,173.38,820.08,177.06Zm40.81-23.93a5.79,5.79,0,0,0-4.45-3.21c-.92-.17-1.83.39-1.41,1.34a5.84,5.84,0,0,0,4.36,3.58C860.29,155,860.82,154.24,860.89,153.13Z" transform="translate(-6.62 -35.14)"/><path d="M66.47,181.58c-3.08-3.57-4.1-8.18-7.74-11.08a2.37,2.37,0,0,1-.28-2.3c3.09-4.14.52-9.15,2.19-13.54a4.2,4.2,0,0,0-1.3-5c-2-1.36-3.62.43-4.66,1.73-2.06,2.57-4.16,3.11-7.33,2.08-3.61-1.17-9.18,1.84-10.59,5.29-1.11,2.71-.46,5,2.35,6.18a9,9,0,0,1,3.71,2.4c1.69,2.06,3.57,4.05-.79,5.26-1.09.3-2.52,1.15-2.32,2.34,1,6.35-2.42,2.63-4.11,1.78C27,172.38,18.19,168.61,10.3,163c-4.67-3.31-4.87-4-.77-8.2,6.56-6.69,14.68-10.76,23.27-14.08,11.9-4.62,24.24-7.52,37-6.44,10.26.87,17.11,7.22,20.67,16.84.67,1.81,1.79,2.15,3.26,2.51,3.39.82,6.77,1.71,10.16,2.53,3.77.9,4.83,3.38,4.78,7,0,2.15-.73,3.18-2.7,3.34-6.49.53-12.7,1.53-18,5.92-2.38,2-4.51,1.35-5.16-2.32-.53-3-2.39-5.52-1-9.07,1-2.59-1.71-2.19-3-1.18-3.26,2.55-3.79.72-4.07-2.16-.12-1.23.05-3-1.77-3.11-1.53-.1-1.42,1.55-2,2.5C66.54,164.68,65.87,172.92,66.47,181.58Zm-34.7-26.53c-.17-1.23-.91-1.53-1.79-1.28-2.09.59-4.17,1.4-4.66,3.84A1.29,1.29,0,0,0,27,158.92C29.24,158.4,30.62,156.78,31.77,155.05Z" transform="translate(-6.62 -35.14)"/><path d="M543.92,194.13c3.76-1.83,7.79,1.36,10.91-1.67.62-.59,2.37-.45,1.69-1.84-2.47-5,.7-4.44,3.84-4.05,3.78.48,6.55-2.19,6.11-4.95-.78-4.82,3-8.51,1.36-13.55,6,4.21,6.27,5.33,3.55,11-1.18,2.44-.23,5,.35,7.19.72,2.68,3.2.42,4.69.15,13.09-2.36,26.22-1.06,39.35-.78.66,0,1.7.29,1.91,0,3.26-4.64,8.34-1.78,12.37-3.11.76-.25,1.9-.2,2.26-.72,2.14-3.1,3.92-1.94,6,.13,1.83,1.83,3.66,2.83,4.18-1.15.21-1.61,1.68-1.67,2.68-.8,4.57,3.95,10.25,3.23,15.25,2.6,7.16-.91,14.62,1.42,21.55-2.14,1.54-.79,3.06.79,4.39,3.24-7,.23-13.48.84-20,1.27-10.09.67-20.16.87-30.2,2.74-16.83,3.12-33.7,6.09-50.86,7.12-6.94.41-13.83-1-20.81.24-5,.87-10.23.61-15.36.76C547.45,195.82,545.49,196.58,543.92,194.13Z" transform="translate(-6.62 -35.14)"/><path d="M244.11,188c4.18-6.29,9.56-2.32,14.6-1.53,1.72.27,3,1.49,5,0s2.49.9,2.85,2.11c.64,2.15,1.57,2.08,3.63,1.74,8.33-1.37,16.83-.76,25.26-1.67,4.18-.46,9.35,1.06,14.08,1.67,1.56.2,3.54,2.41,4.47.66,1.17-2.19,2.05-5.66.65-7.56-4-5.41.84-7.88,3-11.42-.78,4.65,2.54,8.5,1.87,13.27-.4,2.94,2.44,5.53,6,5.26,3.16-.23,6.09-.95,4.74,3.95-.27,1,.62,1.4,1.17,2,2,2.18.48,3-1.5,3.06-2.47,0-4.95-.47-7.43-.52-19.42-.42-38.85-.72-58-4.42-1.84-.35-4.1-.13-5.09-2.5a1.82,1.82,0,0,0-1.53-.9c-7.95,2.62-15.37-1.71-23.16-1.72-10.47,0-20.93-1-31.39-1.56-1.1-.06-2.18-.34-3.74-.59,1.61-2.42,3.41-3.77,5.62-2.76,7.85,3.61,16,1.29,24,1.6,4.25.17,8.26,0,12.41-2.4C244.79,181.94,242.26,186.58,244.11,188Z" transform="translate(-6.62 -35.14)"/><path d="M370.68,749.79c0-5.66,0-11.32,0-17,0-2.4.77-3.86,3.43-3.73s2.59,2,2.63,3.91c.08,2.79-1.2,6.11.62,8.25s4.9-.23,7.49-.11c6.53.31,9.84,3,10.19,9.65.29,5.65.09,11.32.13,17,0,2-.34,3.64-3,3.53s-2.82-1.82-2.82-3.78c0-4.66.05-9.32,0-14-.08-4.08-1.57-7.35-6.15-7.62-4-.24-6.37,2.71-6.46,7.66-.09,4.33,0,8.66-.06,13,0,2.11.47,4.65-2.88,4.69-3.66,0-3.1-2.71-3.12-5,0-5.49,0-11,0-16.48Z" transform="translate(-6.62 -35.14)"/><path d="M506.45,741.24c7.93.17,10.25,2.14,11.35,9.53.88,5.92-.2,12,1,17.89.55,2.75-1.95,3.12-3.61,2.53-2.94-1.05-5.52-.35-8.19.57-4.45,1.55-8.35.19-11.34-3-2-2.13-3.39-5.11-1.83-8.26,2.1-4.27,5.16-7.31,10.37-7.18a20.67,20.67,0,0,0,2.49,0c1.71-.17,4,.72,4.67-1.7a4.45,4.45,0,0,0-1.28-4.59c-1.67-1.54-3.59-2.53-5.88-1.46a14.61,14.61,0,0,0-4.59,3.77c-1.1,1.22-2.62,1.76-3.95.49s-1.06-2.76-.08-4.09A11,11,0,0,1,506.45,741.24Zm1.43,16c-4.54-.09-9,2.64-8.54,5.32a5.79,5.79,0,0,0,5.49,4.89c3.26.31,6.74-3.07,7-6.29S510.52,757,507.88,757.25Z" transform="translate(-6.62 -35.14)"/><path d="M445.51,741.24a9.77,9.77,0,0,1,9.64,4.27c1.11,1.62,1.65,3.67,0,5s-3.59.69-4.6-1.3a7.13,7.13,0,0,0-4.18-3.37c-3-1.09-5.53,0-6.39,3s1.37,4.09,3.93,4.63c1.61.34,3.2.82,4.79,1.3,4.72,1.41,7.92,3.81,7.53,9.52s-4.5,6.82-8.78,7.87c-5.57,1.36-11.71-1.29-14.1-5.89-.71-1.39-1.68-2.9,0-4s3.56-1.13,4.74.95c1.59,2.82,3.78,4.56,7.19,4.45,2.61-.08,4.71-1,5-3.81.26-2.57-1.45-3.9-3.76-4.55-1.91-.54-3.84-1-5.73-1.64-5.79-1.9-7.6-4.34-7-9.24.57-4.34,3.85-6.84,9.38-7.13C443.79,741.21,444.45,741.24,445.51,741.24Z" transform="translate(-6.62 -35.14)"/><path d="M352.46,741.33c5-.69,8.43,1.54,10.86,5.59.94,1.55,2.41,3.32.26,4.76s-3.6.32-4.9-1.69c-2.38-3.66-5.4-6-9.95-3.24-4.35,2.65-4.48,6.93-4.42,11.34a9.9,9.9,0,0,0,5.28,9c3,1.61,5.81.11,8-2.21.79-.83,1.18-2.08,2-2.77a3.48,3.48,0,0,1,4.22-.06c1.58,1.08.44,2.34-.17,3.47a12.87,12.87,0,0,1-13,6.59c-6.5-1-10.82-5-12-11.54a19,19,0,0,1,2.95-14.74A10.3,10.3,0,0,1,352.46,741.33Z" transform="translate(-6.62 -35.14)"/><path d="M466.78,733.42a3.44,3.44,0,0,1,3.21,3.71c0,2.2.38,3.59,2.93,4.35,3.14.94,2.33,3.13,0,4-3,1.08-3,3.15-3,5.54,0,3.48,0,7,0,10.46,0,2.82-.37,5.85,3.67,6.45a1.69,1.69,0,0,1,1.41,1.79c0,1.16-.83,1.72-1.76,2.19-3.27,1.64-7.92-.76-8.83-4.64-1.2-5.07-.63-10.25-.73-15.39-.06-2.81.34-5.56-3.68-6.5-2.09-.49-2.59-3.2,0-3.76,3.32-.73,3.73-2.59,3.87-5.28A2.76,2.76,0,0,1,466.78,733.42Z" transform="translate(-6.62 -35.14)"/><path d="M539.32,755.77v-9.46c0-.83,0-1.66,0-2.49.07-1.91,1.46-3.11,2.92-2.38,3.72,1.85,8.58-3,11.34,1.75,1.13,1.94-.71,3.64-3.26,3.66-3.87,0-5.14,2.31-5.09,5.84.07,4.81,0,9.62.05,14.44,0,2.08-.08,4.11-3,4.16s-3.05-2-3.06-4.07c0-3.82,0-7.63,0-11.45Z" transform="translate(-6.62 -35.14)"/><path d="M401.24,756c0-3.67.06-7.33,0-11-.06-2.78,1.1-4.23,3.91-3.52,2.55.64,5-.2,7.45-.21,1.66,0,3.12.3,3.08,2.34,0,1.57-.53,3.18-2.48,3.13-5.85-.14-6.24,3.67-6.11,8,.11,3.67.21,7.34,0,11-.11,2.17,1.28,5.56-3,5.44-3.69-.11-2.77-3-2.82-5.22-.09-3.33,0-6.67,0-10Z" transform="translate(-6.62 -35.14)"/><path d="M419.73,755.63c0-3.48,0-7,0-10.44,0-2.14.15-4,3.09-4,2.61.06,2.85,1.72,2.85,3.69q0,11.18,0,22.36c0,2.1-.15,4-3.09,4s-2.77-2.23-2.78-4.2c0-3.81,0-7.62,0-11.43Z" transform="translate(-6.62 -35.14)"/><path d="M531.28,756.33c0,3.83,0,7.66,0,11.49,0,2.11-.6,3.57-3.11,3.46-2.25-.1-2.69-1.5-2.69-3.37,0-7.82,0-15.64,0-23.46,0-2,.71-3.12,2.86-3.18s3,1.1,2.94,3.08c0,4,0,8,0,12Z" transform="translate(-6.62 -35.14)"/><path d="M652.65,139.53a11.41,11.41,0,0,1,7.29,2.82c6.23,4.94,9.12,4,11-3.45,1.64,1.07.72,3.1,1.77,4.43s3,1.27,4.92,3c-5.4,1.32-8.73,6.88-15,4.65-1.26-.45-3.25-.6-3.15-1.91C659.82,144.25,655.37,142.85,652.65,139.53Z" transform="translate(-6.62 -35.14)"/><path d="M232.94,143.5c.19,2.44-1.56,2.71-2.81,3.25a4.7,4.7,0,0,0-3,3.6c-1.12,5-4.12,6.67-9,4.73-3.18-1.27-6.15-3.07-10-5,4.1-1.18,6.81-5.34,10.94-.84,1.66,1.8,3.77-.27,5.21-1.5A16.9,16.9,0,0,1,232.94,143.5Z" transform="translate(-6.62 -35.14)"/><path d="M314.64,167.7c1.78-6.44,4.83-12.82,1.22-21,7,5.76,7,4.77,10.46-1.21,1.14,2.06.09,4.47,1.54,6.14a1.59,1.59,0,0,1,.05,1.33C321,155.68,322.24,165.41,314.64,167.7Z" transform="translate(-6.62 -35.14)"/><path d="M560.15,141.92c2.29,4.28,6.85,5.92,9,10.4,1.83,3.86-.7,8.32,2.56,11.62.27.28-.33,1.4-1.1,1.26-.5-.1-1-.74-1.29-1.24-3.51-5.51-7.21-10.91-9.64-17A5.31,5.31,0,0,1,560.15,141.92Z" transform="translate(-6.62 -35.14)"/><path d="M169.09,179c2.11-1.38,3.65-.62,5.21-.15,2.61.8,5.12.52,6.71-1.82,1.77-2.6,3.19-1.59,4.77,0,2.32,2.29,4.09,5.36,8,5.32a1.24,1.24,0,0,1,1.15,1.78c-.52,1.7-2,1.68-3.3,1.36-5.77-1.47-11.52-3-17.26-4.63C172.78,180.42,171.26,179.77,169.09,179Z" transform="translate(-6.62 -35.14)"/><path d="M710.43,176.72a68,68,0,0,1-16.34,4.9c-1.38.25-2.91,0-3.2-1.62-.42-2.29,1.51-1.65,2.68-1.71,2.06-.11,3.33-1.49,4.53-2.83,2.59-2.88,5.14-4.88,8.55-1C707.5,175.4,709.34,174.67,710.43,176.72Z" transform="translate(-6.62 -35.14)"/><path d="M733.54,161.62c.34,4.5,2.12,7.7,6.81,9-3.91-.27-7.21-.06-9.8,2.89-.51.59-1.94.35-2.71-.46a2,2,0,0,1-.07-2.73C730.3,168,731.57,164.83,733.54,161.62Z" transform="translate(-6.62 -35.14)"/><path d="M683.89,128.81c5-1.94,8.68-3.11,12.69-1.9,1,.31,2.57.44,2.51,1.93s-1.55,1.83-2.61,1.72C692.77,130.17,689,130.59,683.89,128.81Z" transform="translate(-6.62 -35.14)"/><path d="M507.37,193.12c5.27-5.25,9,.36,14.23.89C517.57,196,513.7,195.64,507.37,193.12Z" transform="translate(-6.62 -35.14)"/><path d="M201.86,132.41c-4.86,2.2-8.76,2.18-12.63,2.14a2,2,0,0,1-2-1.9c0-1.28,1.21-1.47,2.16-1.56C193.16,130.75,196.91,130.44,201.86,132.41Z" transform="translate(-6.62 -35.14)"/><path d="M382.13,195.67c-4.71,3.27-9.95,3.71-15.8,2.87C370.91,192.9,377.14,197.48,382.13,195.67Z" transform="translate(-6.62 -35.14)"/><path d="M222.44,136.05c7-1.52,14-3,21.15-.61C236.58,136.19,229.49,135.15,222.44,136.05Z" transform="translate(-6.62 -35.14)"/><path d="M662.36,131.36c-6.6-.29-13.2.3-19.79,0C649.16,128.26,655.77,130.69,662.36,131.36Z" transform="translate(-6.62 -35.14)"/><path d="M530.51,190.32c1.5.05,3.34.68,2.93,1.48a6.4,6.4,0,0,1-4.66,3.68c-1.58.19-3.35-.9-3.11-2.43C526.1,190.36,529.16,191.44,530.51,190.32Z" transform="translate(-6.62 -35.14)"/><path d="M355.42,151.35c4.36-.59,7.57-.66,11.63,1.56C362.63,154,359.34,155.18,355.42,151.35Z" transform="translate(-6.62 -35.14)"/><path d="M528.18,730.65c1.62.14,2.94.73,3,2.58s-.59,3.33-2.68,3.45-3-1.28-3.09-3.12S526.46,730.9,528.18,730.65Z" transform="translate(-6.62 -35.14)"/><path d="M425.57,733.48c-.14,1.87-.95,3.17-3,3.18-1.82,0-2.66-1.1-2.73-2.8-.08-2,.87-3.13,2.92-3.09C424.47,730.81,425.55,731.62,425.57,733.48Z" transform="translate(-6.62 -35.14)"/><path d="M520.37,149c2.22-2.56,4.78-1.64,6.87-2.31.94-.3,2.52-1,2.62.88a2.37,2.37,0,0,1-2.26,2.25A13,13,0,0,1,520.37,149Z" transform="translate(-6.62 -35.14)"/><path d="M158.43,175.84c0,1.65-1.06,1.9-2.32,1.87-1.49,0-2.72-.59-2.62-2.3a2.74,2.74,0,0,1,3-2.68C158.22,172.83,158,174.65,158.43,175.84Z" transform="translate(-6.62 -35.14)"/><path d="M32.58,460.64c4.92-1.73,9.72-3.84,15-4.3-5,1.39-9.14,5.94-15.1,4.24C32.49,460.56,32.58,460.64,32.58,460.64Z" transform="translate(-6.62 -35.14)"/><path d="M361.33,196.41c-2.08.49-2.64,4.62-5.32,2.33-.54-.46-3-2.23-1.95-3.23C356.43,193.23,358.72,196.56,361.33,196.41Z" transform="translate(-6.62 -35.14)"/><path d="M154.69,167.67c0,1.7-.49,3.1-2.24,3.32-1,.13-1.2-.91-1.17-1.74,0-1.58.58-3,2.27-3.27C154.6,165.82,154.51,167,154.69,167.67Z" transform="translate(-6.62 -35.14)"/></g></g></svg>