<svg xmlns="http://www.w3.org/2000/svg" viewBox="0 0 869.16 857.58"><title>circle</title><g id="Layer_2" data-name="Layer 2"><g id="Layer_1-2" data-name="Layer 1"><path d="M410.58,7.35c11.74-1.78,23.58-1.69,35.35-1.16C463,7,480,8,497,10.35a462.38,462.38,0,0,1,64.65,13.89A412.87,412.87,0,0,1,615,43.53a447.38,447.38,0,0,1,83.46,48.56,412.68,412.68,0,0,1,51.74,45.15A425.11,425.11,0,0,1,859.55,332.83c2.66,10.31,4.73,20.72,6.74,31.13,1.7,8.79,2.64,17.74,3.52,26.67a436.13,436.13,0,0,1-4.32,118.69,381.57,381.57,0,0,1-11.93,49.36,423.62,423.62,0,0,1-31.27,75.41,478.65,478.65,0,0,1-42.47,65.17C772,709.38,763,718.4,754.56,728c-12,13.75-25.88,25.43-39.77,37-28.37,23.7-59.75,42.72-93.25,58.33-24.18,11.27-49.29,19.82-75,26.77a379.91,379.91,0,0,1-64.63,11.38,493.42,493.42,0,0,1-82.27.41,416.8,416.8,0,0,1-74-12.43,424.52,424.52,0,0,1-82.15-30.59c-26.26-13.07-51.28-28.24-74.4-46.35-11.65-9.12-22.56-19.11-33.49-29.12a378.72,378.72,0,0,1-38-40.81A414.29,414.29,0,0,1,45.87,621.7a450.56,450.56,0,0,1-23.78-59.23C14,537.07,8.88,511.09,5.68,484.65c-3.4-28-3.55-56.21-1.56-84.25a389.52,389.52,0,0,1,15.36-84.18,439.09,439.09,0,0,1,40.69-94.46,416.5,416.5,0,0,1,41.05-58.9,431.23,431.23,0,0,1,54.53-54.58,442.39,442.39,0,0,1,73.79-50,423.66,423.66,0,0,1,69.07-29.79c20.82-6.83,42-12.59,63.58-16,11.73-1.86,23.48-4.56,35.53-4.3C402,8.26,406.17,6.15,410.58,7.35Zm-275.5,384.4c-.14-1.13.11-2.68-1.25-3-4.51-1.08-9.06-2.06-13.63-2.85-1.71-.29-2.81.82-2.86,2.67-.12,4.63-2.21,8.18-5.79,11.05a5.71,5.71,0,0,0-2.13,5.77,31.78,31.78,0,0,1-.31,11.9c-.83,4.06,1,4.62,4.47,3.49,9.53-3.1,15.47-9.27,17.45-19.24.71-3.54,1.37-7.23,4.17-10-1,8.91-2.69,17.81-2.81,26.73-.23,18.11-.47,36.19,2.1,54.3,3.38,23.78,8.54,47,16.92,69.49A305.84,305.84,0,0,0,313.93,714.85c27.48,12.21,56.31,19.67,86.22,23.58,25.49,3.32,50.83,2.79,76.14-.45a285.34,285.34,0,0,0,46.61-10.37A299.92,299.92,0,0,0,624.64,674c21.65-17.43,41-37.06,56.83-60,2.14-3.09,4.56-6,6.85-9-1.44,8.17,1.17,14.87,6.26,20.86,2,2.41,3.84,2.45,5.35-.49a37.32,37.32,0,0,1,6.12-9.06c2.64-2.74,4.64-5.59,2.66-9.77-.84-1.77-.36-3.91.24-5.88,2.19-7.21,2.17-7.21-4.87-10.49-.6-.29-1.19-.62-1.8-.86-2-.76-3.64-1.3-2.24-4.21,1.28-2.68,2.54-3.49,5.27-2.12a63.06,63.06,0,0,0,6.93,2.79c1.69.61,3.44.81,3.8-1.63.78-5.38,4.69-8.18,8.78-10.82,1.59-1,3.08-1.93,3.32-4.05A37.16,37.16,0,0,1,732,557c1.83-3.73,0-4.24-3.14-4.34-5.24-.16-9.84,1.75-15.12,5,6.65-14.78,11.31-29,15.75-44.82A29.47,29.47,0,0,0,738.37,525c2.6,2.07,5.25,2.51,6.28-1.74a24.52,24.52,0,0,1,5.41-11.07c1.7-1.89,1.32-4,.1-6A13.77,13.77,0,0,1,749,493.73c1-2.89-.47-3.62-2.57-4.2a90.82,90.82,0,0,0-9.16-2.29c-3.27-.56-2.08-2.83-2.06-4.61,0-2.51,1.69-2.37,3.52-2,3.09.65,6.22,1.12,9.31,1.8,2.84.62,4.21-.55,4.13-3.31-.13-4,1.84-7,4.59-9.59,1.53-1.48,3.14-2.83,3-5.41-.18-4.5-.08-9,0-13.5,0-2.82-.92-4-4-3.08a24.31,24.31,0,0,0-16,14c-.55,1.23-.58,2.81-2.35,3.57a12,12,0,0,1-.12-2.27c2.49-15.9,1.86-32,.87-47.84a292,292,0,0,0-20.89-92.55c-18.28-44.9-45.24-83.57-81.55-115.64a306.13,306.13,0,0,0-93.09-56.14c-30.43-11.79-62.06-17.63-94.38-19.57-27-1.62-53.86,1.69-80.24,7.55a288.35,288.35,0,0,0-75,28.26C243,194,203.14,231.73,174.54,281.15c-4.09,7.06-4.13,7-11.49,4-1.7-.69-3.37-1.47-5.1-2.06-2.81-1-5-.44-5.6,2.88a10.33,10.33,0,0,1-5.89,7.63,10.77,10.77,0,0,0-6.23,8.41,26.94,26.94,0,0,1-3.66,10.2,2.7,2.7,0,0,0,0,3.28,2.56,2.56,0,0,0,3.06.94,69.72,69.72,0,0,1,7.24-1.57c5.06-.78,8.75-3.95,12.66-7.17A414,414,0,0,0,140.11,366a23.32,23.32,0,0,1-.34-5c.08-7.49-3.93-12.93-9.24-17.47-1.9-1.62-4.58-3.33-5.81,1.42a25.45,25.45,0,0,1-4.59,9.91c-2.26,2.75-2.3,5.32-.53,8.22,2.13,3.48,2.77,7.19.87,10.94-1.54,3.05-.16,4.26,2.59,4.89,3.88.89,7.74,1.92,11.65,2.62,1.42.25,2.73,0,2.26,2.07C136.35,386.32,135.72,389,135.08,391.75Zm472.12-277c.09-8.3-2.35-13.16-6-17.74-6.54-8.18-16.32-11.16-24.88-16.09-1.8-1-2.87.36-3.45,1.77-1.49,3.69-2.86,7.44-4.18,11.2-.55,1.56-.57,3.11,1.72,3.14,9.29.13,12.55,6.07,13.66,14.09.33,2.34,1.71,3.87,4,3.64,4.4-.45,8.1,1.56,12,2.91C606.87,120,607.24,119.82,607.2,114.71ZM261.69,755.82c.81,11.41,7.92,19,17.6,24.82,4.26,2.56,9.31,3.52,13.23,6.8,1.8,1.52,3,.28,3.73-1.54,1.55-4,3.19-8,4.58-12.1,1-2.91-1-2.69-3-2.74-6.5-.16-9.6-2.46-11.71-8.64a45.87,45.87,0,0,1-1.43-6.29c-.32-1.72-1.19-3-3-2.44-5,1.45-9.47-.8-14-2.27C263,749.87,261.75,750.44,261.69,755.82ZM805.76,479.74c0-12.82-3.41-22.72-13.94-29.08-2.54-1.53-4.06-1.79-4.74,1.88-.77,4.2-.67,8.67-2.77,12.53-1.64,3-.8,5.44,1.09,7.75,3.86,4.71,4.42,9.8,2.14,15.35-.55,1.34-1.41,3.14.81,3.65,4.66,1.07,9.38,1.92,14.1,2.69,1.52.25,3.51-.14,3-2.2C804.24,487.64,806.6,483.13,805.76,479.74ZM606.42,755.67c0-6.22-.22-6.24-6.08-4.28A45.18,45.18,0,0,1,589.23,754c-3.4.23-4.94,1.15-5.78,4.59-1.7,6.94-6.23,11.25-13.54,12.09-2,.23-3.23.5-2.19,3q2.34,5.5,4.34,11.15c1,2.78,3,2.83,4.61,1.33,4.07-3.68,9.39-5,13.83-7.9C598.78,772.84,605.75,766.44,606.42,755.67ZM790.85,369.83c-.83,2.23-.73,4.42,2.88,4,4.93-.52,9.85-1.27,14.77-1.93,1.38-.18,1.72-1.15,1-2.09-3.62-4.63-3.56-10.63-6-15.73-4.56-9.75-10.87-17.39-22-19.86-3.49-.78-5.15.16-4.42,4,.64,3.42,1.63,6.83,1.18,10.35-.48,3.8,1.19,6.06,4.3,8.17C787,359.76,791.37,363.1,790.85,369.83ZM58.41,481.5a18.76,18.76,0,0,1,0,3c-.64,4,.32,6,4.94,5.1a110,110,0,0,1,11.34-1.34c2.27-.21,3.22-1.54,2.17-3.33-3.65-6.23-.22-10.37,3.87-14.4,1.63-1.6,2.92-3.44,2.13-5.75A40.68,40.68,0,0,1,81,449.53c.1-2.24-.93-3.28-3-2.35-5.18,2.34-10.08,5-13.34,10.05C59.9,464.68,58.67,472.94,58.41,481.5ZM77.7,498.93c.83-2.79,1.11-5-2.53-4.31a64,64,0,0,1-12.88,1.17c-2.56,0-3.4,1.22-2.2,3.5,2.19,4.16,2.89,8.83,4.67,13.12,4.47,10.76,11,19.35,23.26,21.91,3.48.73,4.82,0,3.65-3.73-1.29-4.14-2.34-8.38-1.88-12.75.36-3.34-1.05-5.18-4-6.57A13.58,13.58,0,0,1,77.7,498.93ZM810.9,386.28c0-1.66,0-3.32,0-5,.07-2.12-.92-3.14-3-2.91-4.11.46-8.2,1-12.31,1.49-3.38.37-4.32,2-2.79,5s1.43,6.82-.9,8.87c-4.57,4-4.72,8.57-3.69,13.81a62.61,62.61,0,0,1,.57,6.44c.19,2.21-1.86,5.19.61,6.47,2.72,1.41,5.22-1.15,7.65-2.42a14.69,14.69,0,0,0,2.31-1.89C808.85,408.4,810.72,397.69,810.9,386.28ZM713,679.2c.25-5.14-2-9.4-4.49-13.56-1.31-2.15-2.35-2.27-4,0-2.93,4-5.9,8.06-10,11a5.4,5.4,0,0,0-2.45,5.91c.61,4,.32,7.84-2.21,11.43-1.65,2.33-6.29,3-5.23,6.29.81,2.47,4.11,4.14,6.32,6.15,1,.89,2.06,1.69,3,2.64,2.37,2.44,4.29,2.38,5.55-1a33.57,33.57,0,0,1,4.61-7.64C708.73,694.06,712,687.09,713,679.2Zm-58.5-546.36a19.8,19.8,0,0,0-11.8,2.15c-4.27,2.34-4.43,3.29-.6,6,2.83,2,6.38,3.55,8.31,6.23,3,4.1,6.37,4.25,10.76,3.93,4.05-.29,8.3,0,11.81,2.8,5.57,4.46,5.6,4.44,10.9-.65,1.32-1.26,2.49-2.68,3.88-3.85,3.27-2.76,2.06-4.15-1.29-5.43a35.35,35.35,0,0,1-7.06-3.61C672,135.56,664.25,132.26,654.47,132.84ZM432.71,68.14h.06c0-1.83-.11-3.67,0-5.48.26-3.4-.65-4.63-4.21-3.09S420.87,61.2,417,61.81c-11.55,1.8-21.85,5.91-27.52,17.13-1.91,3.77-.33,6,3.81,5.08A28.18,28.18,0,0,1,404,84c3.76.62,7.23.44,10.17-3.2a13.67,13.67,0,0,1,12.38-5c6.17.61,6.17.6,6.13-5.65C432.7,69.47,432.71,68.8,432.71,68.14ZM544.3,793.66c6,.78,12.89-2.62,20.24-2.7,1.81,0,2.46-1.59,1.73-3.33-1.72-4.15-3.53-8.25-5.23-12.41-.74-1.8-1.9-1.75-3.11-.76-5.88,4.8-11.72,3.31-17.48-.11-2-1.15-3.77-1.52-5.52,0-3.59,3.06-8.1,3.66-12.38,4.9-1.68.49-4.17,0-4.67,2.13-.55,2.39,1.5,3.86,3.17,5.25C527.38,791.86,534.85,793.69,544.3,793.66ZM436,800.51h0c0,2,0,4,0,6-.05,2.51,1.3,3.62,3.43,2.54,5.86-3,12.4-1.46,18.46-3.24,9.25-2.71,17.15-7.1,21.78-15.87,2.3-4.36,1.66-5.07-3.17-5.13-5.32-.07-10.64.42-15.94-.4-2-.31-3.22.69-4.55,2.26-3.92,4.63-8.85,7.93-15.17,6.06-4.2-1.24-5.14.06-4.87,3.8C436,797.85,436,799.18,436,800.51ZM159.15,188.3c.16.87.31,2,.61,3.15a57.23,57.23,0,0,0,1.85,6.19c1.59,4.05,3,4.37,5.92,1,2.7-3.17,5.13-6.73,9-8.43s4.64-4.56,4.39-8.37c-.23-3.46-.24-6.9,2.14-10,1.54-2,6-2.09,4.79-5.41-.78-2.21-3.63-3.7-5.6-5.46-1.24-1.1-2.69-2-3.85-3.16-2.86-2.91-4.27-2.7-5.65,1.48-.94,2.88-3.22,5.41-5.25,7.8C162.32,173.13,160.25,180.38,159.15,188.3Zm16.94,425.33c.39-8.08-6.31-14.49-7.82-22.66-.25-1.38-1.87-1.05-3-.54-3.46,1.57-6.93,3.15-10.37,4.79-2.18,1-3.08,2.75-1.44,4.8,4.29,5.33,3.29,10.87.74,16.39-1,2.1-1.09,3.68.69,5.33,2.79,2.6,5.33,5.32,6.88,9,.83,1.94,2.72,4.38,5.41,1.71C172.22,627.45,176.35,622,176.09,613.63ZM693,253.7a42.66,42.66,0,0,0,.74,5.9c1.52,5.77,5.14,10.75,6.37,16.68.38,1.83,2.29,2.28,4.1,1.43,3.44-1.63,6.71-3.57,10.4-4.72,2.21-.68,2.75-2.48,1.2-4.3-4.41-5.19-3.41-10.72-1.23-16.35.66-1.73,1.68-3.67,0-5.07-3.51-3-5.78-6.8-8.24-10.54-1.14-1.74-2.55-2.47-4.49-.72C696.63,240.75,693,246.24,693,253.7ZM67.47,374.26c-2.56.05-3.15.15-3.22,1.79-.43,10.06-2.43,20.3,2,30a24.86,24.86,0,0,0,11.45,12.09c2.56,1.31,4.63,1.34,4.52-2.42-.17-5.37.15-10.64,2.29-15.67.77-1.79-.39-3.08-1.24-4.55-2.26-3.88-4.6-7.81-3-12.64,2-6.12,1.84-6.32-4.8-7.08C72.69,375.44,70,374.74,67.47,374.26Zm34.63,192.6c-1.33-.06-2.08.88-2.92,1.68-6,5.71-7.56,13-7.28,20.91.23,6.73,3.77,12.7,4.55,19.32a2.31,2.31,0,0,0,3.31,2c4.53-1.56,9-3.29,13.46-5.1,2-.84,2.28-2.72.74-4-5.49-4.53-4.18-9.55-1.37-14.7,1.17-2.15,1.5-4-.54-5.77-3.58-3.17-5.53-7.41-7.42-11.67C104.09,568.36,103.77,567,102.1,566.86ZM439.2,67h.17c0,2.49-.07,5,0,7.47.06,1.75,1,3.07,2.87,2.37,6.87-2.59,11.9.3,16.31,5.17a4.28,4.28,0,0,0,5.34,1.3c4.48-1.88,9.17-1,13.8-.87,1.58,0,3.42,1.31,4.6-.47s-.12-3.48-1-5.06C476.38,68,467.94,64.34,458.79,62c-4.31-1.1-8.92-1-13.19-2.23-6.32-1.76-6.34-2-6.4,4.68C439.19,65.28,439.2,66.11,439.2,67ZM657.1,733.27a48.32,48.32,0,0,0,16.66-4.36c6.07-2.94,10.67-7.94,16.76-10.72,2.43-1.11,1.65-2.48.09-3.73-3.37-2.7-6.74-5.42-10.18-8-1.63-1.24-3.23-1.63-4.53.68-3.19,5.71-8.44,7.13-14.45,6.46-2.07-.22-3.56.06-4.59,2a27.93,27.93,0,0,1-10.58,11c-3.3,2-2.26,3.9.59,4.81C650.14,732.43,653.49,733.62,657.1,733.27Zm-441.61-600a27.1,27.1,0,0,0-3,0c-12.14,1.32-21.36,8.4-30.55,15.54-1.28,1-1.41,2.28-.13,3.37,3.55,3,7.09,6,10.76,8.84,1.18.92,2.72,1.47,3.47-.84,1.83-5.71,6.27-7.35,11.69-7,4.3.29,7.66-.3,9.44-5.08.81-2.17,3.14-3.78,4.84-5.6s6.6-2.58,5.57-5.33c-1.17-3.16-5.89-2.86-9.13-3.87A11.27,11.27,0,0,0,215.49,133.28ZM395.94,785.79c-2.31,0-4.32.11-6.31,0-3.42-.23-4.13,1-2.65,4.07a28.43,28.43,0,0,0,10.5,11.59c8.9,5.85,19.34,5.42,29,8,2.06.56,3.1-1,3.15-2.88.09-4,0-8,0-12,0-2.43-1.09-3.48-3.44-2.62-6,2.21-10.67,0-14.69-4.4-1.63-1.78-3.48-3.45-6-2.59C402.24,786.07,398.93,785.64,395.94,785.79ZM787.3,498c-2.71-.26-3.61,1-3.39,3.57.45,5.21-2.31,8.39-6.81,10.46-2.3,1.06-4.71,2.4-4.7,5.28a39.35,39.35,0,0,1-2.27,14.11c-1.08,2.88.44,4.88,4,3.91a36.64,36.64,0,0,0,11.69-5.35c9.2-6.45,12.31-16.62,16.65-26.07a2,2,0,0,0-1.58-3C796.4,499.83,791.85,498.91,787.3,498Zm-573,238.65c3.7-.72,7.88-1.07,11.7-2.8,1.22-.54,2.38-1.43,2.31-2.95-.06-1.29-1.09-2-2.21-2.45a29,29,0,0,1-9.94-7.37,10.61,10.61,0,0,0-9.59-3.94c-5.41.44-10.24-.73-13.1-6.11-1-1.92-2.59-1.88-4.07-.35-2.88,3-5.72,6-8.6,9-2,2.05-1.54,3.59,1.1,4.37,3.75,1.1,6.78,3.43,10,5.49C198.56,733.82,206.05,735.82,214.27,736.61ZM98.2,284.69c0,9.09,2.37,15.7,8.21,21,2.14,1.93,3.52,1.75,4.32-.94a51.32,51.32,0,0,1,6.21-13,7.07,7.07,0,0,0,.44-7.41c-2-4.63-2.52-9.31,1.45-13.42,1.8-1.86,1.78-3.56-.86-4.61-4-1.58-8-3.11-12.08-4.65-1.66-.63-3.32-.4-3.42,1.55C102.07,271,97.44,278.06,98.2,284.69Zm-2.45,48.49c-5.68.55-10.3,3.38-14.56,7-7.68,6.46-10.46,15.93-14.9,24.38-1.1,2.09.59,2.6,2.09,3,4.52,1.08,9,2.16,13.58,3.11,1.73.37,3.15-.35,2.87-2.36-.91-6.71,3.36-10,8.33-12.8,1.68-.94,3.09-1.76,3.18-4A46,46,0,0,1,99,337.32C100.26,334,98.87,333,95.75,333.18ZM353.51,86a7.3,7.3,0,0,0-.92-1.66c-4.18-4.47-9.12-7.77-15.29-8.55-10.3-1.31-20.47-.07-30.58,2-2.41.49-2.46,2-1.78,3.69,1.41,3.54,3.05,7,4.47,10.53,1.09,2.71,2.38,3.16,4.79,1.22,2.66-2.16,6.07-3.81,9.24-2,7,3.91,13.27,2,19.64-1.15,2-1,4.15-1,6.31-1.13C351.11,88.8,353.08,88.51,353.51,86Zm-88.66,26.15c-.09,4.6.56,5,4.72,3.06,3.94-1.89,8-3.31,12.41-3.21,3.59.09,5.22-1.44,6.42-4.75,2-5.54,5.89-9.2,12.26-9.1,3.33.06,3.64-1.85,2.71-4.22-1.44-3.7-3.13-7.3-4.79-10.91-1.12-2.45-2.79-2.7-4.62-.76a15.38,15.38,0,0,1-6.55,4.36,30.58,30.58,0,0,0-11.8,7.2C270.29,98.9,265.14,104.14,264.85,112.18ZM146.65,229.32c.4-2.49-1.15-2.35-2.45-2.39a33.64,33.64,0,0,0-18,4.51c-8.66,4.91-12.76,13.68-18.52,21.05-1.49,1.9-.37,3,1.47,3.71,3.85,1.53,7.7,3.05,11.52,4.67,3.54,1.51,5.15,0,5-3.43s1.69-6.14,4.19-6.72c6.94-1.61,9.15-6.7,11.21-12.44.82-2.27,2.61-4.2,3.95-6.29C145.65,231,146.23,230,146.65,229.32ZM727.7,641.15c6,.29,11-1.71,15.81-4.58,8.35-5,12.44-13.59,18.22-20.75,1.24-1.54-.15-2.82-1.63-3.46-4.08-1.76-8.19-3.49-12.33-5.1-2.36-.92-3.28.24-3.43,2.6-.23,3.56-1.82,7-5.17,7.86-7,1.76-9.35,7.07-11.64,12.8-.67,1.68-1.83,3.16-2.67,4.78s-3.18,2.55-2.21,4.64C723.76,642.33,726.25,640.65,727.7,641.15Zm49.22-359.53c.15-9.3-3.65-16.17-4.93-23.64-.31-1.82-2.18-1.22-3.33-.72-4.11,1.78-8.16,3.69-12.22,5.58-2.06,1-3,2.41-1,4.17,4.46,4,3.74,8.44,1.61,13.14-.87,1.94-1.31,3.87.48,5.49,3.72,3.35,5.53,7.8,7.27,12.29,1.54,4,3.36,3.64,6.15,1C776.38,293.64,775.93,286.6,776.92,281.62Zm-62-97.93c-.18-5.74-2.18-10.76-4.86-15.64-3.25-5.92-8.81-10-12.29-15.69-1.09-1.79-2.42-1.38-3.68-.11-2.93,3-5.89,5.89-8.77,8.88-1.93,2-2,3.41,1,4.77,3.77,1.69,6.73,4.33,6,9.25a4.63,4.63,0,0,0,2.76,4.92c4.64,2.26,7.65,6.33,11.36,9.63,1.51,1.33,2.07,4.44,4.77,3.67s2.37-3.78,3.25-5.83C714.94,186.38,714.76,184.92,714.87,183.69Zm-366.33,572v.1c1.17,0,2.33-.07,3.49,0,7.39.49,8.18-.63,5.61-7.64-3.58-9.8-11.48-14.25-20.85-16.6-3.81-.95-7.53-5.7-10.61-3.55-2.91,2-3.53,7.23-5.34,10.95-1.37,2.78-1.25,4.1,2.38,4.4,6,.5,10.77,3.18,13.18,9.11.92,2.27,2.8,3.19,5.16,3.22S346.22,755.65,348.54,755.65ZM770.13,583.22c.66-7.72-1.16-14.23-6.5-19.52-2.53-2.51-4.38-2.55-5.83,1.2a85.7,85.7,0,0,1-5.22,11.3,8.88,8.88,0,0,0-.91,8c1.65,4.81,2.45,9.67-1.73,14-2,2.07-.07,3.36,1.66,4.07,3.83,1.59,7.75,3,11.66,4.4,1.07.39,2.58.86,2.68-.92C766.41,597.88,771.54,591,770.13,583.22ZM154.82,686.33c-.51,3.11.75,6.65,2.14,10.29,3.11,8.08,10.25,13,15,19.75,1.3,1.84,2.62.43,3.7-.64,2.83-2.82,5.59-5.71,8.46-8.48,2.38-2.3,1.51-3.82-1.11-4.76-4.52-1.62-6.3-5.23-7-9.52-.33-2.06-.73-3.79-2.72-5a39.28,39.28,0,0,1-12.26-11.54c-1.89-2.72-3.46-2-4.94.27C154.33,679.43,154.93,682.52,154.82,686.33Zm358.74-574.2c-3-.21-3.5.4-3.24,3.28a22.24,22.24,0,0,0,4.58,11.33c4.67,6.35,11.76,8.38,18.69,10.49,3.32,1,6.12,5.71,9.68,3.1,3-2.16,3.12-6.77,4.74-10.2a8.5,8.5,0,0,0,.4-1.44c.58-2.3-.39-3.66-2.67-3.73-6.82-.22-10.87-4.19-13.72-9.85a3.76,3.76,0,0,0-4.09-2.17C523.09,113.43,518.34,112.63,513.56,112.13Zm222.1,199.92c3.72.26,5.55-.47,3.79-4.81a27.26,27.26,0,0,1-2.25-11.16c.1-2.57-.83-3.9-3.39-4.64a16.25,16.25,0,0,1-9.86-7.16c-1.13-1.87.14-5.21-3.07-5.69-2.41-.37-4.24,1.68-6.45,2.38a54.71,54.71,0,0,0-6.46,2.64c-1.76.81-3.66,2.18-1.74,4.11,3.62,3.64,5.21,8.46,8,12.59C719.39,308,727.07,310.85,735.66,312.05Zm-410.26,481c8.8,1,16.1-2.38,22.92-7.16,1-.73,2.61-1.33,2.45-2.89-.21-2-2.11-1.1-3.23-1.48-5.34-1.79-11.09-2.44-15.88-5.74-1.82-1.26-3.44-.41-5.2.13-5.47,1.66-10.9,2.78-16.07-1.12-1.63-1.24-3.21-.7-3.94,1.33-1.4,3.91-2.73,7.84-4.08,11.77-.64,1.84,0,3.14,2,3C311.58,790.33,318.3,794.34,325.4,793.09ZM676.68,215.66c3.32.36,6.67-.52,10.05-1.54s4.06-2.63,1.4-5.18a32.19,32.19,0,0,1-6.62-9.3c-1.47-3.1-3.62-3.93-6.74-3.88s-6.19.45-9.12-1.59c-7.34-5.1-7.42-5-13.89,1.4-.7.7-1.41,1.4-2.16,2.05-2.39,2-2.29,3.83.49,5.42,4,2.32,7.65,5.27,11.42,8A23,23,0,0,0,676.68,215.66ZM133.57,556.87c-3.27-.49-4.73.74-3.49,4.78s2.35,8,2.21,12.17c-.07,1.94.75,2.8,2.77,3.36,5.33,1.48,9.76,4.26,11.5,10,.79,2.57,2.55,2.77,4.73,1.88l4.6-1.91c8.3-3.51,8.29-3.5,3.73-11-1-1.7-1.88-3.52-2.88-5.25C151.72,562.14,144.3,557.28,133.57,556.87ZM297.16,149.75c6.21,1.19,11.57-2.67,17.51-4,8-1.73,7.92-1.61,5.32-9-.6-1.73-1.42-3.33-2.09-5-1-2.53-2.73-2.84-4.75-1.53-5.3,3.41-10.61,3.17-16.1.49-2-1-4.15-1.43-6,.47a43.17,43.17,0,0,1-10,7.33c-2.78,1.56-3,3.32-.51,5.35C285.3,147.72,290.43,150.59,297.16,149.75ZM543,75.81c-2.36,0-4.2,0-6,0-6.56-.13-11.63,3.35-16.67,6.9-1.08.76-2.21,1.76-1.77,3.28s1.93,1.08,3,1.26c5.43.94,10.79,2.2,15.48,5.21,2.17,1.4,4,1.12,6.08.1,5.14-2.57,10.17-2.93,15.06.63,2.09,1.52,3.49,1.31,4.43-1.43,1.19-3.45,2.84-6.73,4.12-10.15.56-1.51,1.22-3.77-1.49-3.66C557.45,78.25,550.19,74.3,543,75.81ZM221,667.86c-.24-1.69-1.46-2-2.41-2.65a85.37,85.37,0,0,1-7.72-5.35c-8.26-7-17.58-8.73-27.87-6-3.1.81-4.22,2.5-2.1,5.43,1.84,2.55,4.19,4.92,5.3,7.77,1.73,4.41,4.61,5.55,8.88,5,3.09-.41,5.67,1,8.43,2.26s3.46,6,7,4.27c2.57-1.21,4.45-3.89,6.61-5.94a37.2,37.2,0,0,0,2.75-2.87A10.92,10.92,0,0,0,221,667.86ZM429.74,750.3h-.05c0-1.83,0-3.66,0-5.49-.07-2.08-1.33-3.33-3.23-2.66-5.05,1.75-10.22.8-15.32,1.09-8.8.5-15.16,5.22-20.49,11.72a4.39,4.39,0,0,0-1,4.64c.68,1.61,2.26,1.1,3.52,1.14a33.76,33.76,0,0,1,12.63,2.37,6.47,6.47,0,0,0,7.35-1.31,14,14,0,0,1,11.57-3.55c4.21.65,5.42-1.17,5-5A29.82,29.82,0,0,1,429.74,750.3Zm192-51.6a39.9,39.9,0,0,0,.68,5.91c.89,3.39,2.34,5.36,6.33,2.76a39.13,39.13,0,0,1,9.94-4.44c3.78-1.16,5.61-3.14,5.15-7.18a12.47,12.47,0,0,1,1.76-8.12c1.31-2.16,5.23-2.64,4.44-6-.69-3-4.1-3.68-5.95-5.79a30,30,0,0,0-3-2.67c-2-1.78-3.71-1.64-5.43.57-2.75,3.53-5.75,6.86-8.54,10.36C623.75,688.35,621.3,693,621.72,698.7Zm-172.88-573c3.78.82,8.28-.82,12.88-1.39,7.44-.92,12.72-5.26,16.82-11.25,2-2.88,1.37-4.55-2.2-5.13-4.71-.77-9.55-.94-14-3a4.36,4.36,0,0,0-5.08.82,15.56,15.56,0,0,1-13.77,4.14c-2.92-.51-3.93,1-3.72,3.68a31.42,31.42,0,0,1,0,3.5C439.47,125.67,439.47,125.67,448.84,125.69ZM250.57,168c-.23-1.81-.43-3.62-.71-5.42-.79-5.12-2.58-6-6.93-3a26.86,26.86,0,0,1-9,4.07c-3.31.76-5.21,2.4-4.82,6.24a12.46,12.46,0,0,1-3.24,9.64c-4.71,5.38-4.67,5.4,1,10.17a51.64,51.64,0,0,0,4.1,3.61c2.12,1.45,4,1.72,5.88-.92a100.5,100.5,0,0,1,7.74-9C248.49,179,250.91,174.08,250.57,168Zm-69.64,89.2a22.38,22.38,0,0,0-6-14.3c-1.47-1.65-3.91-3.75-5.49-.23-3.31,7.39-12.76,12.44-8.77,22.68.25.64-.22,1.61-.47,2.4C158,275,158,275,165.06,278.28c1.5.71,3,1.47,4.53,2.08,1.88.75,4.2.65,4.71-1.31C176.19,271.71,180.74,265.17,180.93,257.23ZM520.57,754.69v0a22.93,22.93,0,0,1,3,0c5.06.67,9.06-.42,11.43-5.58.77-1.66,2.8-2.75,4.3-4.06,2.06-1.82,6.23.29,7.09-3.5.67-2.93-1.85-5.23-2.35-8a28,28,0,0,0-.75-3.41c-.79-2.61-2.57-3.68-4.92-2.14-4.79,3.13-10.4,4.41-15.35,7.17s-9.63,6.48-11.55,12c-2.61,7.5-2.32,8.05,5.11,7.56C517.9,754.62,519.23,754.69,520.57,754.69ZM752.36,385.05c-3.3.25-6.59.62-9.9.73-3.75.13-4.56,1.94-3.51,5.24a59,59,0,0,1,2.18,9.11c1.47,9.71,6.72,16.67,16.14,20.26,3.55,1.35,5.08.3,5-3.36s-.25-7.39.88-10.87c1-3.19.23-5.44-2.13-7.5-2.88-2.52-4.86-5.66-4.4-9.54C757,385.48,755.39,384.68,752.36,385.05ZM361,116.18c.45-2.7-.74-3.64-3.36-3.3-5.26.68-10.5,1.57-15.85,1.25a3.86,3.86,0,0,0-3.9,2.5c-2.19,4.45-5.89,6.65-10.56,8.31-6.31,2.25-1.08,6.42-.31,9.29.68,2.54.35,8.2,6.12,5.87a168.16,168.16,0,0,0,15.33-7C355.32,129.51,359.73,123.94,361,116.18ZM197.56,219.48c10.27.28,17.48-5.43,24.15-12.26,2.06-2.11,5.53-3.89,6-6.28.61-3.27-4.16-3.52-6.06-5.71-.87-1-2-1.74-2.9-2.72-2.18-2.4-4-2-5.53.64-1.38,2.39-3,4.37-5.9,4.93-7.13,1.39-12.12,4.41-15.49,11.87-4,8.88-5.11,8.39,4.77,9.45ZM574.11,719.3c-5.64-1.08-11,.65-15.89,3-3,1.41-8.22-1.1-8.9,3.4-.46,3.06,1.87,6.55,3,9.84.21.63.53,1.23.79,1.84.88,2,2.24,3,4.26,1.49,5.46-4.07,11.19-3.52,17-1.08a3.58,3.58,0,0,0,4.78-1.44c2.56-3.95,6.49-6.08,10.35-8.32,2.49-1.44,2.53-2.75.13-4.37C584.92,720.47,580,718.27,574.11,719.3ZM436.47,750.19c0,8,0,8.06,7.95,7.92,3.25-.06,6.25.33,8.86,2.45a6.57,6.57,0,0,0,6.11,1.23A59.27,59.27,0,0,1,473,759.41c4.17-.14,4.87-2,2.38-5.41-5.24-7.16-12.38-10.62-21.21-10.82-4.3-.1-8.74.87-12.86-.55-3.9-1.34-4.82.24-4.85,3.57C436.47,747.53,436.48,748.86,436.47,750.19ZM248,700.66c.5-2.75-.4-5.69-1.82-8.61-3.76-7.77-11.15-12.16-16.71-18.25-1.29-1.42-2.68-.84-3.85.45-2.23,2.46-4.34,5-6.76,7.3-2.63,2.46-2.44,4.1.92,5.38,2.5,1,4.7,3.13,5,5.24,1,7.84,7.14,9.85,12.79,12.67a39.68,39.68,0,0,1,4.58,3c3.47,2.39,5.37,1.55,5.86-2.69A44,44,0,0,0,248,700.66Zm-110.6-57.24c-.28-.64-.67-1.55-1.09-2.44a41.8,41.8,0,0,1-3.76-10.74c-.66-3.67-2.35-6.3-6.06-7.77-4.08-1.6-7-4.36-6.72-9.34.17-2.7-1.17-3.2-3.41-2.17-3.89,1.8-7.73,3.72-11.68,5.36-3.09,1.29-3.35,2.79-1,5,3,2.85,5.17,6.4,7.63,9.73,5.82,7.87,13.94,12.5,23.49,14.57C136.26,646,137.51,645.7,137.36,643.42ZM117,483.44c2.37-.29,6.14-1,9.94-1.15,3.5-.14,3.71-1.91,3.15-4.61-.74-3.58-1.25-7.21-2-10.78-2-9.08-7.25-15.48-16.14-18.72-1.66-.61-3.13-.9-3.14,1.37,0,5.54-1.27,10.86-2.5,16.2a3.12,3.12,0,0,0,1,3.19,12.88,12.88,0,0,1,5.13,11.8C112.18,482.92,113.53,483.66,117,483.44ZM422.28,125.69c10.26,0,10.26,0,10-11.35,0-.17,0-.34,0-.5.19-2.92-1.17-3.86-4-3.37-3,.51-6.06.85-8.74-.88-4.69-3-9.21-4.57-14.76-1.65-2.48,1.3-5.81,1.06-8.77,1.36-4.08.41-4.61,1.42-2.3,4.94a21.7,21.7,0,0,0,2.51,3.07C403.16,124.53,412,125.94,422.28,125.69ZM127.1,489.58c-3.3-.64-6.44.84-9.72,1.16-2.65.26-2.93,1.41-2.16,3.65a12.09,12.09,0,0,1-1.4,11.37c-1.63,2.38-1.6,4.64-.09,7.39a55.83,55.83,0,0,1,4.58,11.47c.86,3,2.38,3,4.28,1.66,5.85-4.27,10.27-9.51,10.17-17.28-.07-4.8-1-9.68-.38-14.38S131.51,488.59,127.1,489.58ZM734.15,223.22c-2.7-.14-4,.73-2.25,3.43a30.85,30.85,0,0,1,5.4,14.79c.15,2,1.55,2.76,3.24,3.27,5.05,1.52,8.29,4.67,9.12,10,.28,1.83,1,3.36,3.29,2.39,4.26-1.85,8.48-3.79,12.68-5.76,1.85-.86,2-2.24.46-3.45-3.52-2.73-5.13-6.89-7.9-10.16C751.82,230.23,744.34,224.48,734.15,223.22ZM317.07,726.79c.35-2.17-.09-3.56-2.42-3.55-4.57,0-8.76-1.81-13.13-2.76a28.72,28.72,0,0,0-21.63,3.27c-2.53,1.51-3.57,3.11-.58,5.19a40.3,40.3,0,0,1,10.07,9.6c1.33,1.88,2.88,1.82,5.13.85,3.88-1.69,8.13-3.88,12.36-1.35,4.52,2.7,6.27.21,7.63-3.41C315.5,732,316.27,729.26,317.07,726.79Zm365.36-76.54c.05-1.32-.54-2-1.38-2.12-3.23-.62-6.33-1.52-9.79-1-7.79,1.29-13.86,5.25-18.93,11-2.47,2.82-8,4.06-7.66,7.76s5.81,4.82,8.5,7.74c2.21,2.39,4.29,2.56,6.37-.6,1.51-2.29,3.24-4.89,6.4-5.11,6.06-.42,8.75-4.39,10.88-9.37,1-2.24,2.66-4.17,4-6.23C681.41,651.59,682,650.82,682.43,650.25ZM737,374.89c-1.35,5,1.66,5.17,5.33,4.49,2.61-.49,5.15-1.39,7.87-1.16,3.34.29,4.68-1.09,3.73-4.45a13.65,13.65,0,0,1,1.5-11.51,5.12,5.12,0,0,0,.25-5.67c-2.29-3.86-4.44-7.74-5.23-12.31-.45-2.54-1.91-3.56-4.6-1.5C739,348,735.27,354.54,736,363.33,736.36,367.13,736.69,370.94,737,374.89ZM624,160.71c-2.51.89-2.81,2.88-3,4.86-.85,9.43,4.38,15.61,10.8,21.62,9.77,9.16,9.54,9.41,18.43-.39a3.82,3.82,0,0,1,.36-.34c1.87-1.85,1.8-3.27-.69-4.61a14.62,14.62,0,0,1-7.65-11,3,3,0,0,0-2.79-2.87c-4.84-.76-9-3.31-13.09-5.71C625.58,161.75,624.79,161.2,624,160.71ZM575.66,149a31.84,31.84,0,0,0,12.11-3.71c2.63-1.45,3.48-3.17.36-5.08a37,37,0,0,1-10-8.86,4.22,4.22,0,0,0-5.24-1.56,18.49,18.49,0,0,1-12.58,0c-1.77-.62-3.62-.77-4.52,1.59-1.17,3.1-2.44,6.17-3.62,9.26-.65,1.7-.83,3.58,1.45,3.94C561,145.72,568,148.49,575.66,149ZM376.1,93.32a63.52,63.52,0,0,1,.71,6.43c.08,4.14,2,5.61,6,4.77s8.28-.6,12.44-.68a35.15,35.15,0,0,0,14.35-3.79c1.88-.89,4-2.24,3.8-4.77s-2-4.17-4.31-5a29.41,29.41,0,0,0-14.18-1.75c-5.18.74-10.26,2.69-15.7,1.48C377.14,89.57,375.72,90.89,376.1,93.32ZM87.35,420.58a48.74,48.74,0,0,0-.28,5c.24,8.39,6.54.85,9.4,3.41,1.2,1.06,5.86,2.17,6-1.27.46-8.38,2.85-16.81.29-25.22-.93-3.07-2.08-6.55-5.85-6.48s-6.24,2.69-7.36,6.41A52.49,52.49,0,0,0,87.35,420.58ZM733.19,571.87c.38,3,.47,6.15,3.43,7.42,3.27,1.41,6.14-.21,8.46-2.62,4.77-4.94,6.8-11.25,8.89-17.59,3-9.14,3.15-9.08-5.94-11.53-3.78-1-6.88-1.78-7.6,4-.41,3.28-2.77,6.33-4.26,9.48A37.09,37.09,0,0,0,733.19,571.87ZM289.33,122.22c-.41-2.59-1.69-4.73-4.57-5a18.64,18.64,0,0,0-7.34.7,60.49,60.49,0,0,0-16.34,8.24c-2.49,1.75-7.76,1.09-7.15,5.33.45,3.11,3.46,5.89,5.5,8.7.86,1.19,2.21,2.42,3.8,1.31,7.06-4.92,15.9-6.78,22.21-13A12.23,12.23,0,0,0,289.33,122.22Zm483.74,226c-.05-.75-.09-1.58-.15-2.41a36.81,36.81,0,0,0-3.15-11.43c-1.46-3.5-.33-8.68-3.31-10.45-3.29-2-7.46,1.6-11.41,2a4.79,4.79,0,0,0-1.44.33c-1.21.5-2,1.46-1.5,2.73,3.15,7.5,2.75,16.09,7.2,23.18,2.05,3.27,4.37,6.1,8.76,4.94S772.73,352,773.07,348.21ZM94.81,518c.47,8.68,4.26,16.29,6.15,24.37a1.93,1.93,0,0,0,1.39,1.17c4.57,0,8.76-1.66,12.92-3.25,1.14-.44,1-2.1.65-3.19-2.55-7.54-3.72-15.58-7.85-22.55-1.78-3-4.15-5.43-8.08-4.49C95.72,511.1,95.21,514.69,94.81,518ZM364.73,778c2.74.49,3.8-1.2,3.63-3.43-.27-3.7,3.26-7.61-.57-11.08a1.37,1.37,0,0,0-1-.2c-8,.67-15.58-3.1-23.57-2.5-4.24.33-9.76.34-10.53,5.27s4.56,7,8.56,8.31C348.87,776.82,356.92,776.89,364.73,778ZM190.48,200.31c.32-5.48-1.65-7.11-5.32-7.09s-6.28,2-8.77,4.22c-5.76,5.18-8.49,12.69-13.86,18.18a1.89,1.89,0,0,0-.29,2.29c.51,1.06,10.15,6.77,11.4,6.74s2-.83,2.69-1.85c3.17-4.46,6.52-8.79,9.72-13.24C188.4,206.3,190.24,202.79,190.48,200.31ZM589.58,749a19.62,19.62,0,0,1,2.68-.86c7.21-1.35,13-5.72,19.48-8.74,7.1-3.33,7.2-3.12,3-9.85-.53-.85-1.08-1.68-1.61-2.52-1.88-3-4-3.28-7-1.28s-6.82,3.41-10.19,5.2c-4.09,2.18-8.26,4.23-11.5,7.73-1.86,2-2.94,4.43-1.79,6.82S586.76,748.49,589.58,749ZM767.2,419c0,3.67,0,6,0,8.32,0,1.14-.21,2.81,1.1,3,4.41.63,8.87,1.2,13.32.66,1.69-.21,1.51-1.94,1.57-3.24.23-5,.55-9.93.62-14.89a21.77,21.77,0,0,0-1.49-9.25c-1.26-2.86-3.24-5.84-6.17-5.87-3.2,0-5.3,3-6.46,6.08A35.71,35.71,0,0,0,767.2,419ZM137.35,627.45c1.28,3.81,1.93,7.76,4.35,11.12,2.7,3.77,5.7,7.48,7.54,11.68s3.59,5.24,7.18,2.17a15.71,15.71,0,0,1,2.17-1.21c6.44-3.89,6.41-3.88,2.67-10.2-1.52-2.57-2.89-5.23-4.33-7.85a27,27,0,0,0-10.55-11c-1.8-1-3.62-1.79-5.6-.46A7.38,7.38,0,0,0,137.35,627.45Zm332.78,152.3c6.95.51,13.54-2.29,20.41-1.65a1.76,1.76,0,0,0,2.12-2.11c-.55-3.44-.21-7-1.33-10.36-.58-1.75-1.49-2.62-3.23-2.21-7,1.67-14.17,1.15-21.19,2.26-3.09.49-6.19,1.18-8.69,3.39-3.53,3.13-3.25,6.5.85,8.75C462.56,779.74,466.36,780,470.13,779.75ZM135.19,296.84c-.11-3.06.72-6.67-3.32-8s-6.79,1.05-8.93,3.9a38.24,38.24,0,0,0-7.45,16.6c-.51,3.05-5.49,5.57-2,8.7,2.26,2.06,6,2.47,9.16,3.54,3.38,1.16,5.47.11,5.92-3.62.32-2.69,1.73-5,2.79-7.41C133.25,306.19,135.53,301.89,135.19,296.84Zm637.43,140c-1.79.89-5.77-1.59-5.91,2.07-.3,7.61-3.14,15.06-1.75,22.7.66,3.66,1.67,8.12,6,8.84s6.67-2.91,8.28-6.58a18.58,18.58,0,0,0,1.74-7.19c.07-4.31-1-9.13.58-12.81,2.83-6.6-1.48-6.16-5.21-6.83A32,32,0,0,0,772.62,436.85ZM731.24,240.52a14.13,14.13,0,0,0-1.19-5.48c-2.61-7.33-7.65-13.33-12.21-19.22-3.59-4.65-6.71,3-10.62,3.76-1.42.28-3.82,1.18-2.5,3.84a13.84,13.84,0,0,0,.74,1.29c2.72,4.15,5.53,8.24,8.14,12.46a24.4,24.4,0,0,0,8.63,8.76C727.28,248.8,731.31,246.47,731.24,240.52ZM223.45,705.76c-3.22,0-5.7.37-7.1,2.86s.26,4.38,1.53,6.34a19.92,19.92,0,0,0,4.53,4.54c5.69,4.61,13,6.72,18.35,11.77,1.7,1.58,3.05.25,4.22-1,7.18-7.59,7-9.51-1.71-15-1-.62-1.88-1.37-2.87-2C234.86,710.07,229.52,706.33,223.45,705.76ZM649.67,157.89c.14-2.38-1.19-4.07-2.64-5.71-4.37-5-10.13-8-15.94-10.83-2.94-1.42-5-5.66-8.39-4.52-3.22,1.08-3.74,5.56-6.13,8.08-2.09,2.19-1.71,3.92,1.12,5.43,3.5,1.86,6.79,4.12,10.17,6.22,4.53,2.81,9.24,5.2,14.59,6.05C646.45,163.24,649.6,161.19,649.67,157.89Zm29.62,510.86c-.25,6.15,2.71,8.07,7.56,6.07,10.3-4.23,14.25-14.37,19.56-22.63,2.4-3.72-5.88-4.7-8.79-7.56-1.6-1.57-3.57-1.34-4.61.68-2.46,4.8-6.34,8.51-9.43,12.83C681.13,661.57,679.08,665.18,679.29,668.75ZM522.09,107.07c2.14,0,3.47-.06,4.79,0,4.21.21,9.19-.54,9.71-4.79s-4.06-6.67-8.22-7.94a2.59,2.59,0,0,1-.48-.12c-7.5-3.06-15.83-1.34-23.4-4.1a2.38,2.38,0,0,0-3.35,2c-.54,3.07-1,6.16-1.56,9.23-.31,1.82.37,2.94,2.25,3.07C508.9,104.94,515.68,107.82,522.09,107.07Zm-419.88,243c-.24,2.48,0,5.76,3.76,6.95s6.31-.77,8.43-3.74a30.22,30.22,0,0,0,4.36-8.39c1.31-4.1,2.13-8.38,4.21-12.2,1.81-3.32.52-4.93-2.77-5.76s-6.59-2.87-9.51-2.33c-3.83.71-1.69,5.93-3.93,8.43a5.21,5.21,0,0,0-.88,1.78C104.22,339.5,102.13,344.08,102.21,350.07ZM471.94,87.16c-1.5-.54-3.58,1.2-5.92,1.1-3.77-.17-7.1,1.33-7.52,5s3,5.36,6.28,6.62c8.23,3.15,17.1,1.26,25.45,3.4a2.58,2.58,0,0,0,3.25-2.84c-.39-3.67,2.54-7.31,0-10.88-.21-.3-.93-.34-1.41-.34A138,138,0,0,1,471.94,87.16ZM278.57,748.9a6.62,6.62,0,0,0,5.62-3c1.2-2,.34-4-1-5.53a49.27,49.27,0,0,0-4.9-4.9c-5.59-5.11-12.88-7.38-19.4-10.76-4.06-2.1-4.67,4.79-7.46,7-1.27,1-2.5,2.9-.69,4.76a3.1,3.1,0,0,0,.86.47c5,2.65,9.93,5.34,14.93,7.93A45,45,0,0,0,278.57,748.9ZM720.64,613.19a8.74,8.74,0,0,0-4.22,1.39c-6.27,3.32-9.38,9.22-12.36,15.19-1.37,2.74-5.46,4.49-4.53,7.74.87,3.06,5.14,3.24,7.58,5.25,2.74,2.24,5.1,2.72,6.82-1.54,1-2.54,3.09-4.71,4.87-6.9a40.06,40.06,0,0,0,6.88-13.16C727.25,616.33,725.13,613.18,720.64,613.19Zm46.62-94.76c-.62-2.8-1-6-4.2-7.31-2.92-1.21-5.06.66-7,2.55a17,17,0,0,0-3.6,4.71c-3.08,6.12-3.63,13.14-7,19.15a1.71,1.71,0,0,0,.43,2.27,23.16,23.16,0,0,0,12.69,3.73c3.7-.11,1.75-4,2.77-6,.45-.89.87-1.79,1.28-2.7C765,529.64,766.2,524.14,767.26,518.43ZM398,780.85c2,.29,5.16-.72,8.4-1.33a4.21,4.21,0,0,0,3.64-3.61c.31-2,.36-4-1.69-5.31a16.23,16.23,0,0,0-3.35-2.07c-8.75-2.72-17.95-2-26.92-3-3.69-.41-2.55,4.35-3,6.75s-2.28,5.2.79,7.21a3.18,3.18,0,0,0,1.94.3C384.14,779,390.33,780.64,398,780.85ZM126.22,572.17a34.89,34.89,0,0,0,0-3.8c-1-7.32-5.61-13.46-6.68-20.77-.16-1.1-1.47-1.25-2.49-.94-4.09,1.26-9,1.6-12,4.14-2.36,2,2.09,5.35,2.49,8.43a19,19,0,0,0,.71,2.38c1.37,4.79,3,9.38,5.94,13.57,2.29,3.25,5,4.32,8.51,3.48C126.62,577.73,126.07,574.29,126.22,572.17Zm58.47,105.74c-.16-.56-.46-1.5-.72-2.46-2.31-8.5-9.57-13.88-13.52-21.37a2.11,2.11,0,0,0-2.7-.72c-3.66,1.61-8,2.85-10.15,6-1.92,2.86,2.85,4.6,3.67,7.37a5.84,5.84,0,0,0,1,1.71c4.25,5.9,8,12.36,15.37,15C181.36,684.8,184.76,682.28,184.69,677.91Zm42-518.33c.77-.16,1.9-.44,3-.64,9-1.6,15.25-8.65,23.51-11.71.84-.3,1.53-1.08,1.19-1.93a37.77,37.77,0,0,0-6.67-10.37c-.78-.92-2.31-.45-3.2.38-3.5,3.23-8,4.8-11.93,7.2s-8.19,4.49-10.76,8.65c-1,1.65-2.84,3.1-1.5,5.33S223.83,159.46,226.67,159.58ZM86.92,448.17c0,4.46-.58,10,1.7,15.19,1.26,2.86,3.11,5.37,6.54,5.28,3-.07,4.43-2.62,5.42-5.14.78-2,1.67-3.91,1.66-6.18,0-6.12.16-12.24.31-18.37,0-1.44-.09-2.95-1.78-3-4.29-.1-9-.93-12.77.47-2.76,1-.07,5.43-.77,8.27A27.45,27.45,0,0,0,86.92,448.17ZM690.27,184.42c-3.62,0-5.88,2.46-5.6,5.82a16.55,16.55,0,0,0,2.22,7c3,5.23,6.85,9.78,10.36,14.61,1.07,1.47,1.66,4.44,4.23,3.21,3.8-1.84,8-3.25,10.76-6.73.24-.3-.07-1.4-.47-1.8-5.17-5.21-8.06-12.18-13.37-17.28A19.06,19.06,0,0,0,690.27,184.42Zm-192,582.42c.22,2.45.42,3.77.45,5.1.12,4.8,2.26,6.07,6.68,4.18,2.77-1.18,5.79-1.25,8.8-1.37,5.66-.24,11.37-.82,16.16-4.16,1.79-1.24,4.2-2.89,3.85-5.41s-3-3.2-5.23-4a22.8,22.8,0,0,0-12.77-.75c-4.22.85-8.41,1.88-12.73,1.9C499.56,762.31,497.46,763.68,498.3,766.84ZM347.77,108.39c2.47-.2,5-.29,7.41-.61,2.61-.35,5.41-.43,7.72-1.5,2.68-1.25,6.69,1.43,8-2.07,1.1-2.89-1-6.12-1.18-9.24-.18-2.71-1.47-3.36-3.91-3-3.42.52-6.9.75-10.31,1.35-6.15,1.08-12.57,1.5-17.84,5.37-4,2.94-3.59,6.15.86,8.21C341.49,108.27,344.59,108.42,347.77,108.39ZM143.46,249.6c-.07,5.3,3.38,7.48,8.19,5.2a15,15,0,0,0,6.14-4.94c3.75-5.46,7.35-11,11-16.54,1-1.5,1-2.84-.61-3.84a74.72,74.72,0,0,0-7.67-4.59c-1.87-.89-3.7-.7-5.05,1.58-2.61,4.42-5.64,8.59-8.3,13C145.29,242.56,143.63,245.83,143.46,249.6ZM743.4,297.08c.69,7.15,4.11,14.29,6.1,21.8.49,1.82,2.15,2,3.69,1.3,3.66-1.7,8.33-.84,11.21-4.45.14-.17,0-.66-.13-1-3.26-7.08-3.44-15.27-7.93-21.92-2.2-3.25-5-5.83-9.05-4.76S743.72,293.09,743.4,297.08ZM588.5,119.61c-3-.21-5.5.9-6.92,3.35s.57,4.34,2,6.18a15.55,15.55,0,0,0,5.2,4.57c4.55,2.37,9.07,4.82,13.6,7.23,6.93,3.69,6.93,3.68,11.34-3.3.18-.28.37-.55.57-.82,2.18-3,1.71-5-2.14-6.07-2.27-.6-4.1-2.11-6-3.43C600.72,123.62,594.7,121.36,588.5,119.61Zm56,588.07c-1.68.26-4.23.08-6.19,1.07-6.5,3.25-12.79,6.92-19.15,10.45a2.34,2.34,0,0,0-1,3.39A31.29,31.29,0,0,0,624,731.1c1.11,1.06,2.45,1.31,3.5.08,2.62-3,6.45-3.92,9.76-5.73,4.48-2.46,9.3-4.52,12.06-9.22,1.1-1.86,3.61-3.16,2.23-6S647.5,708,644.47,707.68Z" transform="translate(-2.82 -5.86)"/><path d="M434.41,735.8c-162.83-2.73-294.34-133.21-295-298.6-.71-167.63,134.4-300.71,298.75-300.52,164.73.18,298,134.36,297.88,299.1C735.91,602.92,601.57,736.71,434.41,735.8Zm-250-409.21c5.66,1.67,11.1,1.67,12.36,8.48.9,4.87,2.9,9.54,4,14.39a6.15,6.15,0,0,0,4.39,4.82c6.52,2.49,12.91,5.33,19.49,7.64,3.68,1.3,2.6,3.48,2,5.94-.73,3.08-2.49,3.59-5.18,2.5-4-1.62-8-3.22-12.08-4.72-1.15-.43-2.41-1.67-3.68-.49-1.07,1,0,2.23.23,3.26,1,4,2.17,8,3.38,12,.79,2.62.07,3.38-2.61,2.71-4.57-1.14-8.38-2.71-9.13-8.3-.53-3.93-2.15-7.7-2.94-11.61-.57-2.83-2.18-4.27-4.73-5.21-7.64-2.8-15.28-5.62-22.85-8.61-2.94-1.16-4.52-.73-5.53,2.5-2.7,8.59-4.6,17.37-6.58,26.14a5.12,5.12,0,0,0,1,4.66c9.44,11.86,19,23.64,28.89,35.1a7.63,7.63,0,0,0,6.48,2.88c7.17-.14,14.34.08,21.5-.13,3.9-.11,3.58,2.29,3.72,4.89.16,2.87-.58,4.27-3.82,4.24-20-.22-40-.11-60-.57-3.49-.08-3.45,1.1-3.47,3.51A262,262,0,0,0,150.57,462c.31,3,1.88,3.5,4.34,3.36q8.73-.48,17.46-.89c1-.05,2.17.16,2.58-1s-.86-1.61-1.5-2.3l-9.09-9.92c-1.81-2-1.65-2.56,1.27-3.26,5.68-1.37,9.89-.4,13.28,4.68,2,3,5,5.33,7.39,8.12a6.94,6.94,0,0,0,6.11,2.55c6.66-.23,13.32-.36,19.83-2,3.53-.86,5.43-.33,5.79,4,.31,3.72-.62,5.29-4.24,5.53-2.31.15-4.6.58-6.91.81-3.12.32-7.3-.48-9,1.78s2.23,4.62,3.42,7.06,1,3.19-1.72,4.08c-5,1.62-7.21-1.16-9.72-4.59-1.87-2.58-3.2-6.46-7.09-6.44-9,0-18,.6-26.95.84-3.13.09-4.08,1.5-3.49,4.46,1.29,6.53,2.93,13,3.56,19.65.59,6.34,4.21,7.63,9.58,8.23q14.63,1.67,29.14,4.31c4.6.83,8.73.89,13.08-1.13,4.81-2.25,9.9-3.9,14.88-5.77,1.65-.62,4-1.92,4.28,1,.23,2.22,3.41,5.12-.48,6.93-7.53,3.51-15.08,7.2-22.85,9.82-11.19,3.76-22.19,8.06-33.42,11.67-2.47.8-3.57,2.15-2.35,4.88C172,548,176,557.47,180.18,566.93c1.61,3.69,2.9,2.58,4.46-.17,3-5.35,6.47-10.48,9.36-15.9a15.13,15.13,0,0,1,8.86-7.55c1.17-.4,2.45-1.75,3.64-.48s.51,2.9-.22,4.19c-2.79,4.92-5.73,9.75-8.52,14.68-.67,1.18-2.51,2.45-1.08,3.88,1.17,1.17,2.44-.42,3.51-1q18.9-10.2,37.73-20.52c2.46-1.35,4.39-3.18,6.71.87,2.1,3.68.6,4.81-2.11,6.49-12.63,7.8-26,14.27-39,21.41-1.78,1-4.14,1.07-5.23,3.26,1.45,1.64,3,.65,4.36.66,6.14,0,12.33-.71,18.34,1.32,1.29.44,2.73.77,2.81,2.39s-1.57,1.34-2.53,1.83c-7.8,4-16.23,4.59-24.77,4.64-1.29,0-3-.56-3.75.61-1,1.54.65,2.72,1.41,3.93,6,9.59,12.93,18.58,19.79,27.59,1.46,1.93,2.82,2.59,4.89.67,2.8-2.6,5.8-5,8.72-7.46.86-.74,2.27-1.28,1.88-2.66-.47-1.67-2.15-1.14-3.4-1.34-4.44-.7-9.11-.51-13.55-3.2,5.3-4.16,9.82-7.49,17-5.74,8.07,2,16,1.06,22.6-5.47,4.23-4.15,9.73-7,14.4-10.73,4.47-3.59,5.63.65,7.71,2.83,2.83,3-.5,3.53-2,4.64-3.58,2.72-7.26,5.3-10.9,7.95-.92.67-2.16,1.27-1.55,2.73.48,1.17,1.68.89,2.62.84a32.51,32.51,0,0,1,10.83,1.45c1.08.32,2.39.7,1.86,2.35s-8.21,6.56-9.91,6c-5.54-2-11.26-.55-16.86-1.18a5.58,5.58,0,0,0-4.31.83c-6.35,5.11-12.65,10.28-19,15.35-1.88,1.5-2,2.74-.32,4.5a321.36,321.36,0,0,0,34.25,32c1.87,1.49,3,1.44,4.55-.3,3.52-4,7.28-7.8,10.69-11.88,2.09-2.51,6.81-5.23,5.81-7.35-1.47-3.11-6.27-.54-9.58-1.14-2.38-.43-5.85,1.28-7-.92-1.2-2.38,2.05-4.53,3.08-6.9s2.92-2.44,5-2.44c5.17,0,10.34-.1,15.5,0a6.78,6.78,0,0,0,6-2.73c3.45-4.27,7.24-8.28,10.67-12.56,3.23-4,5.21-.13,7.47,1.07,3,1.6.07,3-.54,4.32a12.34,12.34,0,0,1-1.87,2.33c-1.66,2.07-4.91,4.38-4.64,6.16.51,3.49,4.59,1.35,7,2.18,2.69.91,3.86,1.62,1.74,4.4-2.59,3.39-5.43,5.8-10.05,5-5.93-1-10.43.89-14.18,5.83-4,5.29-8.79,10-13.17,15-6.53,7.47-6.25,7.18,1.59,13.41,4.68,3.71,8.46,3.33,13.49.94,12-5.72,23.67-12.25,36.64-15.71,2.54-.68,3.71-2.57,4.86-4.66,3.28-6,6.89-11.81,9.89-17.92,2-4.05,3.93-1.83,6.37-.89,3.58,1.39,1.6,3.17.67,4.94-9.27,17.7-18.49,35.43-27.87,53.07-1.41,2.67-1.41,3.92,1.71,5.07,7.17,2.65,14.19,5.71,21.32,8.5,6.21,2.43,6.18,2.34,8.42-4.17C358.8,688,365.14,670,371.3,651.86c1.16-3.43,2.59-4.23,6.19-3s3.95,2.82,2.8,6.12c-6.49,18.54-12.69,37.18-19.25,55.69-1.45,4.07,0,5.22,3.57,6.08,13.92,3.33,28,5.63,42.16,7.62,1.93.28,3.24,0,3.42-2.35.6-7.63,1.33-15.25,1.94-22.88.08-1.06.49-2.47-.94-3.06-1.1-.46-1.82.55-2.6,1.09-3.95,2.78-7.9,5.56-11.78,8.43-1.87,1.38-2.94,1.57-3-1.25-.08-5,.54-9.56,5.56-12.44,3.59-2.07,6.82-4.76,10.33-7a5.86,5.86,0,0,0,3.09-4.76c.55-6.46,1.53-12.89,1.8-19.36.14-3.46,1.41-4,4.5-4,3.3,0,4.59,1.09,4.2,4.35a19.84,19.84,0,0,0-.1,4.49c.32,3-2.65,6.93-.27,8.45,2.83,1.81,5.32-2.29,7.9-3.84s3-.65,3.2,1.82c.45,4.72-.71,8.19-5.17,10.82-3.07,1.81-7.31,3.17-7.61,7.88-.66,10.47-.29,21-1.59,31.41-.28,2.28.63,3.48,3,3.51,16.8.24,33.59.48,50.29-2.14,3.36-.53,3.22-2.32,2.66-4.54-1.4-5.47-3.73-10.83-4.28-16.37C470.32,692,465.73,685.1,455,683a16.79,16.79,0,0,1-2.77-1.13,3.68,3.68,0,0,1-2.45-3.44c-.2-2.57-.48-5.14-.78-8.33,4.55,2,8.61,3.81,12.68,5.59.88.38,1.82,1.14,2.75.32s.5-1.85.3-2.82c-.94-4.56-1.72-9.17-2.91-13.66-.67-2.5-.17-3.22,2.35-4.14,4.23-1.55,6.29-.56,7,3.8.31,2,.87,3.89,1.17,5.85,2.46,16.11,2.45,16.11,16,21.73,5.85,2.42,7.78,5.8,7.18,13l-12-4.79c-1-.42-2.06-1.58-3.2-.79-1.36.95-.67,2.52-.35,3.7,1.79,6.75,4,13.41,5.5,20.22.72,3.21,2.11,3.52,4.86,3a295,295,0,0,0,42.39-11.3c3.5-1.25,3.94-2.85,2.83-5.87-1.89-5.14-4.4-10.2-5.35-15.53-1.85-10.33-7.82-15.35-17.86-16.63-3.72-.48-4.73-3.69-5.49-6.92-.59-2.47.37-2.58,2.31-2,3.17,1,6.37,2,9.58,2.83,2.57.69,3.92.36,2.68-2.89-2.08-5.44-3.42-11.19-5.83-16.46-2.3-5,2.21-4.62,4.15-5.92,2.85-1.92,3.12.95,3.81,2.71,1.92,5,4.45,9.77,5.62,14.9,2.23,9.84,7.58,15.6,17.83,16.71,4.35.47,5,4.41,5.88,7.75.49,1.83-.79,1.82-2.1,1.45-3.2-.92-6.41-1.81-9.6-2.76-.94-.28-1.87-1-2.79-.18s-.38,1.83-.06,2.76c1.88,5.51,3.9,11,5.57,16.56,1.13,3.77,3.22,4.16,6.38,2.65,5.25-2.51,10.55-4.9,15.79-7.44a259,259,0,0,0,44.92-27.82c.87-.67,2.24-1.19,2.06-2.59s-1.53-1.61-2.67-1.81a226.07,226.07,0,0,1-26.51-6.83c-.94-.29-2-1-2.78-.18-1,1.09-.12,2.17.55,3.1,2.34,3.25,5.08,6.25,7.17,11.27-5.22-2.44-10.68-2-13.39-5.93q-12.23-17.94-22.72-37c-1.4-2.55-.75-3.67,1.62-5.09,2.57-1.54,3.67-.91,5.07,1.42,3.18,5.27,6.8,10.28,9.93,15.58a9.1,9.1,0,0,0,5.15,4.31c13.84,4.89,28.13,8,42.38,11.39,1.05.24,2.4,1,3.11-.44.54-1-.44-1.82-1.06-2.57-5.28-6.43-10.63-12.81-15.83-19.29-7-8.69-14.24-17.16-20.58-26.33-1.22-1.76-2.59-3.09-.41-5.56,3.55-4,5.21-1.26,7.19,1.3,12.34,15.94,25.23,31.41,38.48,46.6,2.08,2.4,3.2,2.6,5.36.29,3.85-4.15,8-8,12-12,10.31-10.2,10.26-10.18,5.42-23.64-3.37-9.39-7.19-18.67-9.13-28.49a14.75,14.75,0,0,0-6.16-9.76c-5.25-3.81-10.22-8-15.44-11.87-3.66-2.69-.47-4.46.59-6.57,1.44-2.84,3-1.5,4.68-.22,14.38,10.79,28.64,21.72,42.44,33.25,9.39,7.84,9.57,7.87,15.94-2,11.59-18,20.06-37.55,27.23-57.69,1.06-3,.43-4.5-2.83-5.39a88.73,88.73,0,0,1-11.71-4.27c-7.94-3.42-15.8-7.06-23.71-10.57-.84-.38-1.83-1.29-2.73-.36-1.19,1.25.19,2,.78,2.92,4.59,7.33,9.32,14.58,13.66,22.06,3.26,5.61,8.55,10,10,16.7-1.24.81-2.08.22-3-.24-16.38-8.53-32.61-17.37-49.75-24.36-2.23-.91-4-1.77-2.51-5.1,1.57-3.52,3.44-2.7,5.93-1.7,8,3.24,16,6.6,23.68,10.6.94.48,1.92,1.92,3,.64s-.27-2.14-.85-3.07c-2.66-4.24-5.27-8.5-8-12.66a126.91,126.91,0,0,1-13-24.52c11.08,5,21.15,9.64,31.27,14.16s19.93,9.21,30.6,12.1c2.28.62,3.17.55,3.87-1.89a274.05,274.05,0,0,0,8.18-38.46c.4-3-.77-4.43-3.55-4.84-11.66-1.74-23.34-3.43-35-5.19q-13.31-2-26.58-4.16c-2.24-.37-4.18-1.19-3.54-4.24.56-2.64,1.82-3.52,4.57-3.05,3.27.55,6.66.4,10,.87,16.76,2.37,33.54,4.65,50.25,7.39,4.82.79,6-1.12,6.09-5.14.22-8,.38-16,.77-24,.17-3.41-1.18-5.37-4-7.22-10.38-6.73-21.94-11.22-32.51-17.56-1.58-1-3.14-.44-4.82-.18q-13.08,2-26.22,3.58c-1.64.2-4.1.89-4.09-2.06,0-2.13-1.57-5,2.69-5.6,6.73-.9,13.42-2.18,20.07-3.59,4.45-.94,10.16.74,13.16-3.2,7.75-10.15,17.12-18.62,26.21-27.42a3.78,3.78,0,0,0,1.28-4c-2.62-10.13-5.83-20.06-9.2-30-1-2.78-2.22-3.25-4.8-2.21-6.79,2.74-13.45,6.16-20.51,7.75-11.8,2.65-17.64,10.34-20.43,21.12-1.64,6.36-6.45,8-12.14,9.67.52-2.46.8-4.4,1.35-6.26s1.57-3.35,2-5.12c.61-2.64,4-5.51,1.85-7.62-1.78-1.77-4.69,1.24-7.09,2.13-6.61,2.46-6.28,2.36-8.74-3.32-1.11-2.59-.28-3.2,1.63-4,3.24-1.32,6.37-3,9.71-3.91,9.16-2.45,15-7.88,17.17-17.25a10.89,10.89,0,0,1,8.11-8.58c1.33-.37,2.58-2,4-.45,1.28,1.38.29,2.87-.19,4.22-.89,2.51-1.94,5-2.93,7.42-.42,1-1.52,2.06-.52,3.18s2.14.18,3.19-.21c6.55-2.44,13.07-5,19.68-7.26,3-1,3.89-2.33,2.47-5.47-6.32-14-13.11-27.68-21.59-40.51-1.77-2.69-3.1-3.24-5.91-1.36-7.06,4.71-14,9.72-21.58,13.5-9.33,4.66-13.52,12.26-15.26,21.85-.29,1.59-.52,3-2.34,3.36-2.73.56-5.06,4.76-7.17,3.09-2.37-1.89.2-5.55.63-8.44.16-1.07,1.28-2.36-.1-3.14-1.17-.66-2.12.52-3,1.21a14.34,14.34,0,0,0-2.05,1.42c-3.33,3.56-5.13,1.16-7.37-1.49-2.83-3.33-1-4.65,1.81-6.2,2.48-1.35,4.61-3.34,7.12-4.61,7.37-3.73,12.3-9.31,14.43-17.39.68-2.55,2.29-4.87,2.87-7.43,1-4.37,3.78-6.84,7.66-8.47,1.48-.63,3-2.75,4.36-1.7,1.75,1.39.36,3.66-.09,5.56-1,4.08-3.57,7.66-4.22,12.86,6.71-4.18,12.53-8,18.55-11.5,3.39-2,3.33-3.75,1.22-6.71-9.24-12.92-20-24.48-30.9-36-2.13-2.26-3.39-2.1-5.55.08-14.3,14.42-28.84,28.6-43.06,43.1-3.11,3.16-4.91,2.35-7.87,0-3.6-2.87-1.19-4.4.66-6.26,14.34-14.39,28.65-28.81,43.09-43.1,2.19-2.16,2.45-3.56,0-5.58-11.44-9.44-23.09-18.57-35.69-26.47-2.91-1.83-4.45-1.11-6,1.53-2.38,4-5,7.85-7.36,11.88-.83,1.44-3.06,2.92-1.51,4.76,1.27,1.51,3.07-.06,4.63-.41,4.36-1,8.68-2.41,14.63-2.2-4.57,4.28-5.39,10.17-11.44,11.34-4.24.82-8.39,2.17-12.64,2.87a7.61,7.61,0,0,0-5.16,3.36c-5,6.48-8.6,13.86-13,20.72-2.09,3.26-3.94,2-6.19.75-2.43-1.35-3.38-2.85-1.55-5.58,2.59-3.87,4.82-8,7.16-12,.56-.95,1.78-1.91.89-3.1s-2.19-.39-3.31-.36c-3.31.12-6.49,2.3-10,.95,2.14-6.89,5.86-11.2,13.49-11.19,5.92,0,9.92-2.93,12.6-8.59,3-6.44,7.06-12.44,10.93-18.46,1.56-2.44,1.35-3.87-1.11-5.2a307.59,307.59,0,0,0-45.66-20.06c-2.57-.89-3.94-.34-4.82,2.44a127.54,127.54,0,0,1-6.12,16.29c-3.45,7.31-4.82,14.91,1.66,21.71a23.57,23.57,0,0,1,2,2.88c1.58,2.24,1,11.64-1,12-3.71.6-4-3.65-6-5.55a12.38,12.38,0,0,1-1.63-2.5c-.51-.83-.85-1.94-2.07-1.89-1.55.07-1.63,1.46-1.95,2.52-1.28,4.3-2.64,8.58-3.72,12.92-.55,2.23-.54,4.43-3.92,3.06-2.57-1-5.8-1.17-4.36-5.47s1.86-9,4-12.8c5.08-9,2.62-16.8-2.67-24.47-.19-.28-.4-.54-.56-.83-3.41-5.9-2.94-11.2,1.72-17.33,2.46,4.68,4.83,9.23,7.24,13.76.52,1,.9,2.35,2.41,2.09,1.23-.22,1.08-1.5,1.39-2.4,1.47-4.24,3-8.44,4.4-12.72,2.26-7.07,2.29-7.4-4.55-9.31a263.8,263.8,0,0,0-62.39-9.56c-1.11,0-2.55-.45-3.22.69-.78,1.3.69,2.06,1.34,2.9,4.06,5.28,8.13,10.55,12.35,15.7,2.47,3,2.58,5-1.5,6.6s-7.77,3.83-11.79,5.4c-3,1.19-3.4,2.59-1.68,5.2,3.2,4.86,6.27,9.82,9.34,14.76,3.8,6.13,7.55,12.29,11.46,18.66-6.78,1.19-11.31-.3-14.35-6.22-2.66-5.15-6.25-9.82-9.42-14.7-.62-1-1.09-2.57-2.35-2.24-1.74.45-.9,2.21-.9,3.45,0,4.83-.17,9.67.06,14.49.18,3.64-1.39,4.41-4.72,4.47-3.78.08-3.84-1.85-3.84-4.67,0-19.83-.19-39.66,0-59.48,0-4.1-1.23-5.12-5.06-5-14.66.3-29.07,2.63-43.48,5-2.8.46-2.65,2.16-2.34,4,1.29,7.43,2.72,14.85,4.35,23.65,4.74-7.87,8.78-14.56,13.32-22.08,1.66,7.67,2.62,14-2,20-2.69,3.55-4.37,7.85-6.72,11.68a10.47,10.47,0,0,0-1.15,8.54c1.49,6.3,2.43,12.74,3.68,19.1.71,3.66-2.22,3.5-4.26,4.17-2.35.78-3-.47-3.6-2.67-1-3.94-1-8.17-3.21-12.31-4.22,4.71-5.45,10.75-9.65,16.67-.45-6.25-3.14-11-.58-16.15,1.85-3.73,3.46-7.6,5.62-11.13a9.38,9.38,0,0,0,1.26-7.12c-2-10.12-4-20.22-5.78-30.37-.49-2.79-1.72-3.29-4.08-2.63a354.47,354.47,0,0,0-48.38,17.21c-2.92,1.3-3.09,2.91-1.55,5.47a62.14,62.14,0,0,1,5.07,9.74c4.69,12.47,12.44,21.69,25.57,25.81,5.45,1.71,8.22,6.14,10.29,11-1.13,1.06-2.13.55-3,.2-4.16-1.7-8.27-3.5-12.41-5.24-1.17-.5-2.42-2.05-3.57-1-1.5,1.37.36,2.69.9,3.93,1.27,2.9,2.64,5.76,4.16,8.53,1.24,2.27,1.31,3.87-1.25,5.34-3,1.7-3.82-.37-4.88-2.29a41,41,0,0,1-3.26-6.17c-4.24-12.29-12.17-20.67-24.87-24.22-4.09-1.14-4.62-5-5.8-8.14-.73-2,.87-2.23,2.34-1.82a24.7,24.7,0,0,1,7.38,3c1,.7,2.5,1.64,3.63.51s-.22-2.13-.71-3.11c-2.21-4.48-4.64-8.86-6.63-13.43-1.21-2.8-2.71-2.94-5-1.68-10.56,5.69-20.72,12-30.72,18.64-1.43.94-2.81,2.18-1.71,4.11,2.9,5.09,5.91,10.11,8.95,15.27,1.63-1.47,1.19-2.88,1.19-4.16,0-2.83-.1-5.66-.11-8.49,0-1.77.54-3.51,2.33-4,2-.59,2.21,1.52,3,2.69a12.07,12.07,0,0,1,1.87,7.12c-.11,4.83.2,9.68-.12,14.49-.25,3.84.77,6.14,4.66,7.53,5,1.78,9.71,4.33,14.62,6.37a8.07,8.07,0,0,1,4,3.52c.48.82,1.57,1.48,1.07,2.6-.62,1.39-2,.85-3.1.94-3.88.31-7-1.9-10.37-3.25-.76-.31-1.58-.84-2.27,0s-.14,1.53.34,2.23c2.18,3.15,4.25,6.38,6.55,9.43,1.88,2.48,1.27,3.89-1.19,5.57s-3.38.31-4.74-1.35c-3.14-3.81-4.89-8.77-9.4-12.24-1.11,4.77.32,9.13-1.37,13.27-6.13-5.36-6.28-12.13-5.7-19,.38-4.54-1.21-7.42-5.86-8.21-5.89-1-8.32-5.32-10.32-10.28,2.83-1.44,4.51,1,6.64,1.52.84.2,1.74.46,2.33-.26s0-1.51-.46-2.21c-1.61-2.54-3.2-5.08-4.74-7.64-6.48-10.77-4-9.33-13.52-2.47-2.53,1.82-4.26,3.64-3,7.44,5.64,16.41,5.9,33.77,7.35,50.77.54,6.32,2.64,9.93,6.74,13.53.76.66,1.51,1.32,2.19,2,1.49,1.56,4.16,2.73,1.16,5.45-2.32,2.1-3.74,4-7.25,1-14.81-12.66-28.87-26.13-43.21-39.3-2.16-2-3.41-2.55-5.51.13A344.78,344.78,0,0,0,194.64,280c-3.08,4.9-3,5.31,2.86,5.51,9.15.31,18.32.19,27.49.28,3.33,0,7,.55,7,4.62s-3.77,4.52-7.08,4.53c-4,0-8-.15-12-.19-1,0-2.17-.25-2.65.86-.67,1.54.8,2,1.69,2.56q15.24,10,30.53,20c2.6,1.68,5.95,2.45,3.35,7-2.83,5-5.31,1.89-8,.36-15.9-9.13-30.65-20-46.11-29.86-3.75-2.38-5.57-2.09-7.61,1.92-6.27,12.33-11.89,24.94-17.05,37.76-1.22,3-.39,4.13,2.38,5.1,5.81,2,11.54,4.31,17.29,6.51.91.35,1.86,1.22,2.75.47,1.12-.93.31-2.13,0-3.23C187.86,338.62,186.27,333.05,184.41,326.59Zm69.25-61c-.92-8.63-1.66-16.21-2.57-23.78-.76-6.25-1.68-12.49-2.64-18.72-.2-1.32,0-3.31-2.31-3s-6.8,6.26-6.55,8.83c.48,4.94.8,9.9,1.35,14.83.92,8.26.63,17.06,9.43,22,.8.45,1.2,1.78,2.38,1.4A1.24,1.24,0,0,0,253.66,265.56ZM160.74,419.62v.15c3.15.15,6.3.34,9.45.43,2.39.06,3.31-1.15,1.63-3-6-6.65-11.57-13.67-17-20.78-.51-.67-1.1-1.29-2.06-1s-1,1.23-1.06,2c-.34,3.78-.7,7.57-1,11.36-.27,3.6-.48,7.2-.71,10.8ZM321.21,676.17c-.19-2.18-1.48-1.46-2.47-1-7.24,3.31-14.45,6.68-21.69,10-2.58,1.18-2.42,2.52-.18,3.78,3.75,2.13,7.58,4.12,11.38,6.16,2.09,1.13,3.32.33,4.32-1.69,2.58-5.19,5.32-10.32,8-15.48A15.87,15.87,0,0,0,321.21,676.17Zm333.31-84.88c-2,.66-1.36,1.84-.9,3.12,2.45,6.88,4.9,13.77,7.21,20.7.43,1.28,1.08,2.65,2.17,1.6a39.26,39.26,0,0,0,8.19-11.11c.67-1.35-1-2.2-2.06-3-4.37-3.31-8.68-6.69-13-10.05Zm47.57-194.2.7,1c6-.81,12.05-1.56,18.05-2.5,1.67-.26,2.49-1.54,2.15-3.35a29.38,29.38,0,0,1-.71-4.43c-.08-2.53.12-6-1.85-6.91-2.52-1.18-4,2.34-5.72,3.93C710.38,388.76,706.28,393,702.09,397.09Zm23.48,16c-.16-1.23-.57-3.85-.84-6.47-.21-2.05-1.46-2.53-3.12-2.09-4.2,1.12-8.51,1.24-12.79,1.59-1,.08-2.25.14-2.5,1.19s.94,1.56,1.82,2c4.68,2.46,9.41,4.84,14,7.43C725.08,418.39,726.13,417.7,725.57,413.07ZM439.2,162.78c0,2.29,0,4.45,0,6.61,0,1.45.29,2.56,2.35,2.13,7.46-1.57,8.78-4.73,4.19-10.4a3.79,3.79,0,0,0-.32-.38c-1.86-2-2.81-6.46-5.3-5.61S439.85,160.22,439.2,162.78ZM180.4,519.65l-.31-1.5c-5.05-.53-10.11-1-15.15-1.58-1.39-.16-3.74-1.68-3.92-.17-.29,2.45.87,5.1,1.56,7.63a2,2,0,0,0,2.8,1.33C170.41,523.52,175.4,521.57,180.4,519.65ZM232,233c-2.25,2.39-3.51,3.89-4.95,5.21-2,1.81-2.26,3.46-.13,5.36,1.73,1.53,3.29,3.24,5,4.77a2.09,2.09,0,0,0,1.75.39c.69-.23.54-1,.43-1.67C233.38,242.7,232.75,238.34,232,233Z" transform="translate(-2.82 -5.86)"/><path d="M226,435.82C224.57,321,319.75,224.44,436.31,224.74c116,.3,210.58,94.42,210.42,210.55C646.56,555,552.14,643.7,443.34,647.35,320.62,651.46,223.91,550,226,435.82ZM436,639.13c112,.12,200.53-89.69,202.79-198.63,2.4-115.79-90.77-208.6-204.24-207.75C324.35,233.58,234,321.81,233.7,436.22,233.44,547.52,323.06,639.2,436,639.13Z" transform="translate(-2.82 -5.86)"/><path d="M452.16,425.71c-7,.45-13.42-1-19.83-2.77a31.57,31.57,0,0,1-14.12-8.11,9.54,9.54,0,0,0-7-3c-5.3-.18-10.36-1.51-11.82-7.84-.46-2-2.13-2.32-3.76-2.79-2.08-.59-4.14-1.25-6.18-2-1.17-.41-2.49-2.08-1.68-2.46,7.55-3.55-.18-3.71-1.07-5.36a2.5,2.5,0,0,1-.34-1.8,1.61,1.61,0,0,1,2.16-.66c2.63,1,5.23,2.16,7.84,3.24,1.35.56,2.85,1.94,4.15.95,1.61-1.24.43-3.12-.07-4.62-5.07-15.2-2.43-29.55,4.74-43.39a58.38,58.38,0,0,0,4.21-9.58,51.8,51.8,0,0,0-.2-30.52c-.42-1.41-1.4-3.1,0-4.19,1.84-1.43,3.06.66,4.2,1.57,2.84,2.28,5.3,5.05,8.18,7.27C436.12,320.94,453,313,460,303.28a40.82,40.82,0,0,0,7.49-16.14,63.42,63.42,0,0,1,2-6.16c2.83,7.73,5.11,14.58,7.82,21.26,7.07,17.46,16.1,33.64,31.48,45.33,4.8,3.65,10.08,6.47,16.2,7.26,1,.13,2.19-.18,2.68.87.66,1.38-.81,2-1.45,2.85-3.26,4.47-8.25,7.77-8.81,14-.51,5.66,0,6.11,5.45,5,13.81-2.88,27.44-7,41.73-7,2.05,0,5.59-.88,5.69,1.3.12,2.77-3.34,1.47-5.25,1.69a380.4,380.4,0,0,0-47.08,8.82c-1.51.37-3,1.07-2.91,2.91.1,2.4,2.07,1.64,3.41,1.67a217.71,217.71,0,0,0,50.15-4.44c2.3-.5,6.28-2,6.72.15.66,3.2-3.48,2.5-5.62,2.94a222.36,222.36,0,0,1-51.07,4.78c-4.1-.12-6.58.95-8.61,4.93-4.81,9.46-11.28,17.57-21.37,22.18-4.52,2.06-3.41,6.23-2.25,9.6,4,11.55,10.42,21.59,20.08,29.18,11.36,8.92,13.33,20.5,10.25,33.62-1.63,7-1.66,7.39,5.09,8.75,21,4.22,42.3,5.18,63.66,3.91,7.75-.45,15.33-.06,22.64,2.66,5.91,2.2,10,6.91,9.23,10.49-.71,3.37-6,6-12.11,6.09-8.82.14-16.94-3.35-25.44-4.85-14.3-2.53-28.76-3.49-43.2-4.53A146.16,146.16,0,0,1,510,508.35c-1.44-.38-3.13-1-4.09.59s.53,2.7,1.42,3.89a33.07,33.07,0,0,0,11.91,10.35,18.12,18.12,0,0,0,17.2-.06c7.85-4,11.37-3.32,16.78,3.54,8.52,10.8,11.28,23.06,9.5,36.59-.7,5.29-1.47,10.39-3.94,15.3-3.12,6.21-7.15,10.28-14.64,9.6-6.86-.63-10.57-5.18-13.15-10.79a38.29,38.29,0,0,1-3.47-12.44c-.27-3-1.71-5.57-4.87-6.26-17.28-3.78-28.43-15.78-38.88-28.75-3.23-4-6.42-8.06-9.49-12.19-4.19-5.66-10.45-7-16.73-7.51-7.45-.6-15-.3-22.47-.37-1.14,0-2.46-.36-3.2.83-.89,1.46.24,2.45,1,3.52a81.86,81.86,0,0,1,11.41,20.41c1.65,4.36,3.27,9,.14,13.31-3.44,4.73-8.53,5.79-13.88,4.49-21.94-5.32-39.61-16.51-48.6-38.09-3.86-9.27.67-14.77,10.77-14.61,3.94.06,5.4-.7,4-5.18-1.49-4.82-3.3-9.83-2-15.13,1.67-6.67,6.1-10.29,13-11.25,9.94-1.41,18.12,3.52,26.63,7.09a45.66,45.66,0,0,1,10.54,5.6c2.36,1.82,4.5,1.16,4.64-2.33a31.36,31.36,0,0,1,6.58-18.44c2.9-3.78,2.65-8.56,1.56-13-.87-3.53-3.36-3.42-6.3-2.17q-16.29,6.89-32.67,13.56a408.14,408.14,0,0,1-58.85,18.39,50.33,50.33,0,0,1-21.34.28,14.7,14.7,0,0,1-8.12-4.65c-11.71-12.79-7.17-36.55,7.81-42.6,8-3.25,15.62-.09,22.36,3.8,4.29,2.48,5.94,1.22,8.29-2,2.17-2.93,4.7-5.56,8.7-6.18,3.73-.57,5.78.69,6.14,4.52a16.22,16.22,0,0,1-1.33,8.76c-2.07,4.32-1.43,5.57,3.3,4.86,7.87-1.2,15.66-3,23.45-4.67,13.64-3,27.24-6.12,40.48-10.63A3,3,0,0,0,452.16,425.71Zm-33.62-50.24c1.74-3.81,5.8-5.26,8.63-8,2.31-2.29,5.58-1.11,7.67,1.82,4.12,5.79,3.13,12.58-3,17.53-3.08,2.5-3,3.71.69,5.46,10.46,5,19,.95,27.23-5.18,11.39-8.52,19-30.46,12.66-47.15-6.15-16.13-23.79-21.24-36.7-9.85a45.36,45.36,0,0,0-14.37,24c-.4-3-.27-6-.43-8.9s-.53-6-3.8-6.94c-3.06-.84-5.37,1.16-7.24,3.45a19.58,19.58,0,0,0-1.74,2.43c-5.68,9.47-7.41,19.89-6.82,30.69.29,5.21,1.83,10.3,6.44,13.51,2,1.39,2.81,2.05,1,4.43-2.1,2.76-.86,4.24,2.63,3.86a14.41,14.41,0,0,1,9.11,2.08c4.4,2.67,4.79,6.58.56,9.53-3.84,2.68-2.31,4.41.3,6.32A22,22,0,0,0,425.7,417c23.2,9.93,53.64-.33,66.21-22.23.47-.83.46-2.47,2.61-1.76a26.2,26.2,0,0,1-5.48,9.87c-5.67,6.79-12.88,11.47-20.74,15.27-1.06.51-2.47.86-2.23,2.29s1.61,1.31,2.81,1.06c18.32-3.82,31.95-13.56,39.06-31.3,2.56-6.41.11-14-5.46-18.36-4.7-3.66-10.75-3.6-16.7.61-3.1,2.2-5.78,5-8.67,7.48-10.41,9-21.66,16-36.15,15.77-9.39-.13-17.7-4.32-26.55-6.47a2.75,2.75,0,0,1-1.84-1.54,22.07,22.07,0,0,1-2.19-14.52c.25-1.42.75-3,2.58-3.32s2.48,1.24,3.19,2.56C416.75,373.53,416.82,375.07,418.54,375.47Z" transform="translate(-2.82 -5.86)"/><path d="M356.62,482.91c-7.27,7.75-16,12.2-25.33,15.21-17.74,5.71-35,4.12-51.77-4.25-27.13-13.54-41.57-46.12-33.94-75.43,5.93-22.77,20.12-37.66,41.34-46.5,2.05-.85,2.94-1.81,2.9-3.94-.07-3.17-.12-6.34.05-9.5a23.26,23.26,0,0,1,4.65-13.42,32.6,32.6,0,0,0,6.86-19.45,26.15,26.15,0,0,1,5.72-16.13c1.66-2.12,3-2.78,5.28-.91a48.68,48.68,0,0,0,4.69,2.84c1.65,1.07,2.26,2.38.7,4.08-3.06,3.34-4.27,7.52-5,11.8-1.22,7.51-4.88,13.76-9.81,19.29-4.41,4.94-5.84,10.55-5.51,17,.19,3.9,2,4.89,5.38,4.59,30.4-2.76,52.6,10,67.73,36a17.06,17.06,0,0,1,1.87,4.05c1,3.82,4.86,7.72,3,11.24-2.12,4.07-7.87,5.14-11,9-1.09,1.35-2.43-.11-3.59-.58-3.85-1.55-7.46-3.75-11.62-4.42-11.31-1.82-19.29,3.75-25.37,12.32-7.29,10.27-6.56,28.56.88,38.78,6.6,9.07,16.13,8.73,25.72,8.12C352.36,482.55,354.1,481.79,356.62,482.91Z" transform="translate(-2.82 -5.86)"/></g></g></svg>