<svg xmlns="http://www.w3.org/2000/svg" viewBox="0 0 885.22 877.28"><title>cry</title><g id="Layer_2" data-name="Layer 2"><g id="Layer_1-2" data-name="Layer 1"><path d="M46,883c-14.17,0-28.33-.06-42.5.06-2.15,0-2.95-.41-2.52-2.56a10.27,10.27,0,0,0,0-2V126c19.6-.29,39.22-1.43,58.79-1.5,19.25-.06,38.43-1.42,57.67-1.66,18.52-.24,37.12-.19,55.64-2,9.48-.9,9.51-.65,11.18-9.7,1.31-7.1.08-9.39-6.6-12.6-4-1.94-8.05-3.89-12-6a4.15,4.15,0,0,1-2.52-4c.18-1.87,1.52-2.57,3.31-3.15,3.93-1.26,7.6-3.15,11.65-4.27,7.34-2,8.94-5.08,8.32-13-.37-4.79-.47-9.61-.84-14.41a4.82,4.82,0,0,1,2.21-4.7c1.9-1.25,3.55,0,4.94,1.19,2.15,1.83,4.19,3.81,6.22,5.78,8.4,8.12,12.41,8.4,21.43,1,3.12-2.54,6.19-5,10-6.56,2.43-1,4.18-.55,3.87,2.36-.68,6.26-1.22,12.59-2.66,18.69-.93,4-.33,6.33,3.27,8.08,4.47,2.17,8.86,4.48,13.3,6.7,2.35,1.18,4.48,2.89,4.4,5.54-.07,2.33-2.39,3.29-4.51,4.11-4.51,1.73-8.89,3.77-13.41,5.45-3.36,1.25-5.32,3.13-5,7a26.74,26.74,0,0,1-.34,6c-.53,3.9.71,5.39,5,5.76,12.34,1,24.63-.88,36.94-.18,2.66.15,5.65-.59,7.9.41,3,1.34.47,5.14,1.87,7.52a3.48,3.48,0,0,0,.49.44c1.32-1,1.88-2.11,1.17-3.8-1.36-3.3.66-5,3.38-5a176.46,176.46,0,0,0,19.37-1.29c2.93-.34,4.18.9,4.15,4-.19,25.47-.27,51-.37,76.43,0,1.5.06,3,.15,4.49.05.88.45,1.77,1.39,1.79,1.38,0,1.54-1.17,1.35-2.15-1-5.17.19-10.29.19-15.44,0-21.49.08-43,0-64.47,0-3.36.91-4.81,4.53-4.71,31.82.88,63.6-1.53,95.42-1.28,20.09.16,40.15-1.35,60.22-1.75,5.52-.11,11-.14,16.55-.47,5.2-.31,10.23.86,15.57.4,12.57-1.1,25.28-.54,37.94-.67,2.48,0,5-.18,4.77,4,2.18-4.28,5.61-4,9-4q62.76,0,125.5.07c3.63,0,7.72-1.44,10.78,2.09.41.47,1.06.21,1.7-.23,4.58-3.15,8.14-2.39,12.42,4-2.37-5.9.57-6.32,3.26-5.74,4.13.89,8.09-.07,12.13-.08q78.75-.15,157.5-.13c2.15,0,4.3-.24,6.45-.37q0,382.25.09,764.5c0,3.75-.84,4.6-4.59,4.6q-106.25-.2-212.5-.1c-.81-3.7.62-7.25.73-10.9.36-12,.58-23.94,1.65-35.84,1.91-21.16,1.44-42.42,3.34-63.58,1.5-16.86,2.21-33.79,3.34-50.68a29.23,29.23,0,0,1,1.17-7.36c1.34-3.95.07-6.86-2.9-9.26-2.41-2-4.53-4.36-8-4.79a3.47,3.47,0,0,1-3.23-3.24c-.4-4-3.2-6.05-6.76-6.53-4-.53-6.44-1.64-6.22-6.39.2-4.29-3.07-6.52-6.7-7.63s-7.39-3.31-11.33.86c3.19.82,5.9,1.36,8.48,2.26,1.26.44,3.31,1.52,1.14,3.12-2.62,1.92-5.42,4-8.45,4.81-2.58.72-3.24,1.64-3,4,1.1,10.24-1.4,20.28-3,30.16-3,19.31-4.36,38.78-7,58.11-2,14.9-2.91,30-3.87,45-1.24,19.36-5.12,38.47-5.47,57.91h-2c.09-3,.4-6,.25-9-.67-13.12-1.76-26.21-1.84-39.37,0-9.63-1-19.25-1.69-28.86q-1.49-19.81-3.3-39.61c-.87-9.28-.75-18.64-1.63-27.88-2-20.41-2-40.84-2.14-61.3,0-1.28-.31-3.44,1.13-3.44,7.16,0,3.41-5.57,4.47-8.57.47-1.31-.42-3.1,0-4.41,2.24-6.45,2.47-13,2.92-19.8,1-15.46.19-30.74-1.29-46.06-.12-1.28.54-3-1.32-3.22-2.1-.24-1.91,1.74-2.37,3.12-2.94,8.73-.79,17.82-2,26.7-.59,4.39,1.19,9.3.33,13.32-2.2,10.38-.7,20.78-1.67,31.12-.32,3.44-1.45,4.21-4.42,4.28-2,.05-4.57-1.2-5.63,1.72-.83,2.32-2.77,3.43-5,6,0-7.17.13-13.14,0-19.09-.14-5-5.3-9.9-8.5-7.81-5.25,3.44-4.77-1.1-5.26-3.37q-3.64-16.51-7.15-33.07c-4.33-20.48-7.76-41.11-11.76-61.64-3.3-16.95-5.93-34-8.88-51.06C542,489,536.38,477,536.54,463.77c0-.32-.23-.63-.26-1-1.11-11.15-5.29-21.56-7.83-32.37-.42-1.79-1.08-3.63-.31-5.39,2.25-5.15,4-10.69,7.11-15.27,9.42-13.76,15.19-29.47,24.11-43.53,5.46-8.61,4.07-10-6.37-10a25.37,25.37,0,0,1-3.49,0c-4.33-.61-7.46,1.14-9.59,4.81-2.92,5-5.68,10.1-8.65,15.07-3.51,5.87-5.28,12.57-9.08,18.3-1.48,2.23-2.59,3.92-4.16.12-1-2.37-2.45-4.7-5.2-4.84-3.06-.15-3.75,2.94-5.05,4.94a25.07,25.07,0,0,0-1.83,4.6c-1.09,2.78-1.43,6.93-3.44,8.05-4.87,2.72-1.64,4.46-.12,6.59,2.16,3,2.29,5.49-1.79,6.8-1.89.61-4.11,3.47-5.53-.63-.09-.27-.9-.39-1.38-.4-4.17,0-8.35-.25-12.49.06-3.36.26-5.95,4.6-4.32,7.43,2.32,4,3.87,8.42,6.54,12.32,3.46,5.05,7.48,10.4,7.17,16.71-.4,7.91-2,15.8-3.49,23.61-2.83,14.48-6.25,28.84-9,43.34-2.54,13.57-6.14,26.87-9.86,40.1-2.54,9-4.41,18.19-8.48,26.93-2.19,4.69-2.68,10.84-4.71,16.06-2.28,5.84-4.7,11.69-8.58,17.34a7.39,7.39,0,0,1-.56-1.64,13.39,13.39,0,0,1,.37-2,198.78,198.78,0,0,0,5.09-63.62c-1.19-13.68-1.24-27.46-7.86-40.15-1.95-3.75-2.58-8.23-5.1-11.8s-.59-4.88,2.71-5.48a14.16,14.16,0,0,1,3-.15c4,.08,5.22-1.88,3.49-5.33a89.75,89.75,0,0,0-9.23-14.67,260,260,0,0,1-15.12-22.25c-2.57-4.19-4.45-8.63-8.51-11.62-2.19-1.61-3.56-3.88-3.24-6.34s3-3.27,5.29-3.86c7.22-1.85,12.57-6.51,17.51-11.76,1.6-1.7,2.21-3.33-1.11-3.34-3.71,0-3.28-1.88-2-4.17a67.56,67.56,0,0,1,7.73-11.61c2.66-3.14,3.86-6.38.58-10.14-2.27-2.61-3.86-5.81-5.9-8.63-5.93-8.2-5.52-9.31,4.68-10.53-5.2-7.13-10.54-13.27-18.8-16.59a84.23,84.23,0,0,0-27.11-5.72c-9.83-.49-19.78-2.44-29.68-.48-5.28,1-7.54,4.36-6.44,9.61.44,2.13.1,4.34.43,6.23.76,4.4-1.36,8.64-.4,12.72,1.41,6,.31,12.05.78,18.07.79,10.11-.51,20.26-.13,30.48.8,21.8.25,43.65.34,65.48a5.26,5.26,0,0,1-2.24,4.65c-7.27,5.5-11.6,13.26-14.95,21.36-9,21.7-10.37,44.85-11.51,67.91a174.15,174.15,0,0,0,.9,26.88c1.67,15.83,2.29,31.77,5.91,47.36a5.43,5.43,0,0,1-.2,3.89c-2.79,5.47-3.87,14-4.17,19.42-.1,1.82.21,3.68-.64,5.41a3.84,3.84,0,0,0,.36,4.23c3.24,4.38,3,10.5,1.86,14.2-2.24,7.36-1.06,14.45-1.5,21.62-.39,6.29-.8,12.73.1,18.92.67,4.59,1.06,8.84-.55,13.17a15.27,15.27,0,0,0-1,5.36c0,8.48-2.14,16.71.44,25.57,1.38,4.74.75,11.06.73,16.67a102.87,102.87,0,0,0,7.13,38c5.85,15,13,29,30.1,34.08H301c1.5-3.88-.75-6.43-3.05-9.08-2.79-3.21-4.85-3.15-6.79.62-.85,1.64-.81,3.93-3.23,4-2.72-6.45,5.17-8.92,4.95-14.53-.06-1.57,2.33-1.57,3.79-1,2.41.9,1.51,2.94,1.46,4.7-.09,2.88,5.14,10,7.33,9.35,3.3-1,1.2-4.55,2-6.86.38-1.1.5-2.28.86-3.39a5,5,0,0,0-2.18-6.11c-2.15-1.15-5.4-3.21-7.39-1.24-2.71,2.69-5,.53-7.34.5a2.8,2.8,0,0,1-2.88-3.36c.47-2.14,2.19-1.33,3.65-.83,3.1,1.06,7.45.27,8-1.81,1.09-4.06,3.82-6,6.48-8.44,1.32-1.19,2.44-2.46,1.6-4.28-.68-1.46-2.18-1-3-.35-1.59,1.19-5.78-.06-4.88,2.66,1.49,4.52-2.71,6-3.47,9.15a2.08,2.08,0,0,1-3.32,1c-2.68-2.93-7.36,2.2-9.41-2.53a2.36,2.36,0,0,0-1.36.35c-3.89,3.35-4.27,1.19-3.93-2.4a1.46,1.46,0,0,0-1.47-1.67c-.45,0-1,.73-1.27,1.26-2.17,4.89-.32,13.17,3.41,16.44,1.34,1.17,2.13.17,3.08-.27s2.1-.61,2-1.88-1.18-1.42-2.2-1.57c-1.43-.21-3.76-.26-2.94-2.21,1.11-2.61,2.58-.21,3.88.48.72.38,1.83.3,2.29.83a7.54,7.54,0,0,1,2.26,5.74c-.09.93-.57,2.64-1.47,2.07-2.22-1.41-4.11.88-6.26,0-2.61-1.11-3.61.47-4.54,2.91C273.94,875.5,277,879,277,883H91c11.5-13.66,19-29.26,20.81-47,.78-7.59,4.15-13.49,8-19.53.44-.69.55-1.69,1.65-1.4a1.42,1.42,0,0,1,.94,2c-2.52,4.76-.13,9.52.07,14.2.48,11.33,1.95,22.49,9.06,32.1,4.1,5.55,8.31,6.29,13.15,1.38,4.26-4.33,6.91-9.69,9.23-15.27,4-9.69,6.28-20,10.11-29.93a91.17,91.17,0,0,0,5.4,26.32c2.08,5.68,4.77,11.5,10.56,12.95s9.12-4.34,12.68-8.23c.21-.24.23-.67.46-.88,4.16-3.72,3.13-11.31,9.84-13.2.45-.12,1-1.88.75-2.13-3.88-4,0-7.55.66-11.09,1.06-5.27,3-10.35,5-16.76,2.45,7.42,2.72,13.83,3.41,20.16,1.17,10.61,2.48,21.23,8.77,30.29,3.84,5.54,10.37,6.76,15.15,1.54a31.28,31.28,0,0,0,5.21-7.88c7.81-16.66,11.3-34.34,12.62-52.56.15-2,.3-4.12,2.62-6.36,1.39,8.26,5.21,15.14,3.77,23.25a6.27,6.27,0,0,0,4.51,7.39c3.29.82,4.61-2.21,4.82-4.52a126.16,126.16,0,0,0,.11-14.94,3.41,3.41,0,0,0-2.2-3.12c-2.77-1-3.38-3.43-4-5.88-3-12-4.29-24.17-5.34-36.38a49.21,49.21,0,0,0-4.09-15.77c-1.47-3.36-3.46-2.72-5.21-.51-2.26,2.87-1.86,6.25-1.09,9.59a87.25,87.25,0,0,1,2.56,20.74A259.33,259.33,0,0,1,245.17,822c-2,9.35-4.37,18.93-10.75,26.54-4.77,5.67-8.85,4.69-11.48-2.33a80.38,80.38,0,0,1-4.22-17.91c-2.47-19-3.48-38-1.35-57.16,1.16-10.38,3.14-20.72,2.86-31.25-.06-2.65-.17-5.28-3.33-5.85-3.46-.63-3.94,2.3-4.69,4.65a20.5,20.5,0,0,0-.57,2.93c-2.56,16.19-1.94,32.7-6,48.81s-7.42,32.36-13.93,47.74a22.71,22.71,0,0,1-6.7,9.19c-3.51,2.77-6.51,2.14-8.6-1.72-2.23-4.11-5.21-9.58-3.81-13,2-4.83-.9-7.49-1.17-11.07-.85-11-1.91-22.29.3-33.32.74-3.74,0-8.78,6-9.91,1.46-.28,2.77-3.13-.59-3.59-4-.55-3.32-3-2.64-5.5A67.15,67.15,0,0,0,176.73,756a10.23,10.23,0,0,1,1.84-5.57c5.77-8.15,8.66-17.51,11.3-27,3.77-13.5,4.84-27.44,6.65-41.24.55-4.24.86-8.56,1.18-12.84.23-3.15-1.39-6.45-5-6.11-3.34.31-4.06,3.32-3.29,6.56a21.13,21.13,0,0,1,.48,5.44,214.44,214.44,0,0,1-5.42,42.48c-1.79,7.51-3.95,15.14-8,21.91-3.84,6.4-11.7,6.89-15.53.63a60,60,0,0,1-7-15.88c-2-7.39-1.51-14.92-2.28-22.36-.59-5.66-2.93-10.81-2.18-17,1.38-11.53,1.71-23.1,7.53-33.58,1.37-2.47.07-4-1.88-5.42-2.13-1.56-3.26-.35-4.52,1.21a18.94,18.94,0,0,0-4,9c-1,6.38-2,12.77-2.63,19.18-.31,3.06-.88,3.78-3.33,1.54-12.53-11.46-27.24-10.53-42.32-7.35-1.07.22-2.15,1.42-3.13.16-.69-.89,0-1.85.41-2.79,2.26-5.84,4.67-11.23,9.24-16.1,7.44-7.93,10.63-18.53,14.56-28.62,5-12.8,10.33-25.39,8.74-39.54-.55-4.85,3.35-6.29,6.18-8s5.64.77,8,2.57c.82.63.67,2.3,2.31,2.41.38-.85.57-2.28,1.21-2.53,4.31-1.65,2-3.71.35-5.48-4.11-4.51-9-3.78-14.3,1.92-.81.87-1.47,2.8-3,1.84s-.66-2.55.22-3.51c3.53-3.84,4-8.79,4.42-13.47.4-4.13,2.66-7.94,1.93-12.19-.22-1.3-.35-3-1.89-3.19s-2,1.55-2.22,2.84c-.64,3.59-.94,7.26-1.82,10.8-1,4.24-1.14,8.74-3.15,12.72-3.36,6.65-7.29,13.13-4.14,21.07a11,11,0,0,1-.35,8.3c-2.64,6.64-5.23,13.3-8,19.9-.62,1.5-.84,3.59-3.12,4-.83-1.28-.36-2.41-.21-3.52,1.48-10.65,3.71-21.25,4.27-31.94,1-17.93.94-36-1.48-53.78-1.89-13.88-3.57-28-8.29-41.35-4.16-11.81-8.08-23.64-18.1-32.21-6.15-5.25-17.17-7.66-22.12-4-4.6,3.43-9.87,6.32-12,12.26-1.44,4-3.11,7.83-8.44,7.53-.27,0-.55.35-.84.52a54.58,54.58,0,0,0-21.87,25c-7.91,17.38-8.58,36.11-10.21,54.55-1.24,14.06-.35,28.29-.79,42.44a232.81,232.81,0,0,0,.74,30.39c1.09,11,2.11,22.1,4.63,32.93,3.58,15.38,7,30.82,17,43.72,3.94,5.07,8.49,8.86,15.25,9,2.34,0,2.37.9,2.19,3.12C50.17,721,47.32,723,46,726c-6.33,13.71-11.2,28.09-18.69,41.28-1,1.71-1.1,4.08-4,3.06-2.67-.93-4.87-2.23-4.85-5.52.06-18.45-1.35-36.88-.24-55.37.4-6.79,2.39-13.55,1.38-20.31-.84-5.56-.06-11.79-4.83-16.25-1.54-1.45-3.23-2.43-5.4-1.78-2.46.73-2.59,2.9-2.62,4.87,0,3.62.61,7.69,3.7,9.36,3.73,2,3.49,4.76,3.43,7.85-.07,3.32-.33,6.64-.43,10-.19,6.48-.83,13-.75,19.4.23,19.66,2.32,39.3.65,59-.25,3-1.6,6-1.33,8.82.8,8.83.18,17.64.34,26.46.2,11.2,1.81,21.79,6.85,32.25C25.64,862.54,32.38,875.34,46,883ZM714.47,166.66c1.44-5.56.87-6.34-6.23-7.23,2.63,2.57,5.14,4.36,6.25,7.2.45.85,1.1,2.18-.69,1.54a7.64,7.64,0,0,1-4.85-4.42c-.53,4.57-2.84,6.52-6.2,7.33-1.22.29-2.35.57-2.56,1.94-.3,1.94,1.06,1.51,2.25,1.53s1.16.89.72,1.72c-.94,1.75-.43,3.53-.32,5.36.19,3.42,2.84,6.68.64,10.27-.45.75-.83,1.49-1.74,1.58s-1.49-.53-1.55-1.49-.31-2.21-1.69-1.64c-1.64.67-1,1.68-.13,2.7,1,1.19,1.24,2.4-.52,3.15-2.2,1-1,1.58-.07,2.78,1.22,1.55,4.27,3,1.89,5.52-1.22,1.3-1.35,2.39-.51,3.43,1.36,1.68,1.73-.67,2.68-.94,3-.86,4.52,1.48,6.43,3,.75.58,1.2,1.51.57,2.13-1.73,1.72-2.71-1.43-4.38-.88a5.26,5.26,0,0,1-1.49.06,3.86,3.86,0,0,0-3.88,2.63c-.84,2.6,1.37,1.19,2.26,1.63,1.13.55.38,1.41-.23,1.94-1.26,1.1-2.36,1-4,.18-2.29-1.19-2.69-.65-2.09,2a5.26,5.26,0,0,1-.41,3.85c-.49.9-2.63.75-1.8,2.35.45.86,2.43,1.29.61,2.47-1.25.81-2.09-.36-2.86-1.28s-1.7-1.31-2.61-.55c-1.09.91.18,1.72.39,2.6,1,4.12,3.89,7.31,5.33,11.23.74,2,2.75,2.55,4.78,3.12,4.5,1.25,8.44-1.55,12.76-1.36,2.08.09,5,.39,5.31-2.18s-1.38-6.5-3.58-6.5c-5.74,0-6.58-5.2-10.11-7.19.91-1.94,3.3-.46,3.78-2.45.27-1.12-.57-3.17,1.64-2.89,1.84.24,1.81,1.94,1.87,3.53.14,3.62,3.1,1.11,4.64,1.9,2.41,1.23,1.07-1.41,1.66-2.12,2.19-2.61-1.09-5.48.51-8.07,3.19-5.14,2.37-8.53-2.86-11.29-1.11-.59-2.19-1-2-2.43a1.84,1.84,0,0,1,1.42-1.06c1.26,0,3.6-.62,3.59.59-.06,5.09,3.21,2.47,5.46,3.28,5.63,2,3.4-1.17,3.18-3.85-1.1,2.08-2.07,3.63-4.34,2-1-.71-2-2.56-1.42-2.56,3.28,0,.05-6.19,4.52-4.57-.21-1.6-.81-3.09,0-4.85.34-.75-1.25-.21-1.95-.34-2.61-.47-7.05-8.75-6.07-11.2.53-1.3,1.48-1.87,2.75-1.26.81.39,1.88,1.08.76,2.2-2.36,2.35.8,2.68,1.39,3.95,1.77-1.08,2.15,1.56,3.59,1.51,1.45-6.83-4.5-13.17-.63-20.22C721,167,717.63,164.86,714.47,166.66ZM184.63,343.23c-7.48,3.26-8.07,2.85-7.9-4.9a38.19,38.19,0,0,1,.42-6c1.54-8.35-1.47-14.22-9.19-17.74-2.11-1-4.17-2.07-6.26-3.11-1.78-.88-4-1.58-3.81-4s2.26-3.11,4.06-4a25.2,25.2,0,0,1,3.25-1.28c2.59-.83,3-2.47,1.68-4.63-1.07-1.83-2-4.2-4.71-3.7-2.43.44-3.37,2.45-3.68,4.71-.11.77.35,1.82-.83,2s-1.74-.84-2.18-1.74c-2.35-4.8-1.31-10.47,3.38-13.06,7.49-4.14,11.64-10.79,15.18-18,5.37-10.95,5.35-21.95.2-33.09-1.55-3.36-4.35-5.89-5.63-9.08-.63-1.6.17-3.36-2.47-3.32-3,0-2.31,2.17-2.35,3.92a9.93,9.93,0,0,0,0,3c1,3.18-.67,5.28-3.08,6.54-2.83,1.49-4.93-1.11-6.31-2.74-2.88-3.36-6.38-5.71-9.95-8.14-3.29-2.24-6.17-1.87-9.11.49a66.8,66.8,0,0,1-11.49,7.84c-1.73.88-3.49,2.9-5.39,1.44-1.68-1.29-1.22-3.87-.73-5.67,1.24-4.6.72-9.28,1.16-13.9.14-1.51.27-3-1.63-3.69-7-2.68-15.27,2.66-15.32,10-.09,15,0,30-.29,45-.1,4.5,1.79,8.9.41,13.38s-.87,9.25-1,13.9c-.08,2.51,1,4,3.29,5,4.25,1.88,8.49,3.85,12.55,6.1,1.74,1,4.34,1.64,4.17,4.4-.17,2.59-2.36,3.44-4.37,4.28-4,1.68-7.92,3.47-12,4.93-3.31,1.19-4.38,3.21-4.57,6.73-.32,5.84,1.31,11.58.48,17.4-.38,2.68,1.54,3,3.5,3,4.83,0,9.66,0,14.49,0,3.23,0,4.79-1.52,4.82-4.94,0-7.49.36-15,.55-22.47.17-6.28.77-12.55,0-18.84-.18-1.5.12-3.23,1.84-3.71,2-.57,2.4,1.38,3,2.67,1.85,4.16,5,7.46,7.42,11.22,6.76,10.42,13.66,20.77,20.3,31.27,2.93,4.63,1.35,9.69.35,14.54-.32,1.55-1.92,1.66-3.3,1.62-8.8-.27-17.47,1.75-26.31,1.27-7.14-.39-14.33,0-21.49-.09-3.33,0-5.49,1.07-5.54,4.79s1.76,5.48,5.43,5.62c4,.15,8,.49,12,.65,5.94.23,6.11.72,6.08,6.8-.06,14.92-2.24,29.84,0,44.78.44,3,0,5.67,4.4,5.39,3.89-.25,7.51-.28,7.64-5.56.13-5.11.45-10.21.57-15.32.19-8.56.44-17.13.37-25.7-.07-8.39,1.53-10.64,8.8-11.2,8.91-.69,9.23-.65,8.32,8.12q-1.85,17.79-4.62,35.47c-2.31,14.57-5.21,29-7.66,43.59-1.68,10-1.86,20.19-3.12,30.19-1.49,11.81-3.69,23.6-5.62,35.39-.81,5-1.56,10-1,15,.19,1.77.76,3.38,2.69,3.75s3-1.09,3.6-2.73a25.94,25.94,0,0,0,.8-3.38c2.56-12,1.28-24.45,3.7-36.55,2.59-13,4.21-26.15,5.66-39.36,1.5-13.67,4.41-27.19,6.77-40.77.29-1.68-1-4.32,1.22-4.83s2.79,2.45,4.29,3.67c.35.29.46.87.72,1.28a20.39,20.39,0,0,0,15.83,9.67c6.89.52,13.95,1.6,20.92.2,2.16-.44,2.85.49,3.42,2.44q8.73,29.82,17.67,59.59c4.62,15.26,9.33,30.53,16.14,45,4.61,9.79,8.29,20,12.12,30,5,13.15,9.41,26.61,14.25,39.88,1.49,4.07,3.82,8.2,1.69,12.92-.62,1.36.09,2.92.78,4.3.47,1,.93,1.77,2.17,1.62a1.9,1.9,0,0,0,1.72-1.57c1.36-5.46,3.55-11.16,1.22-16.55-4.16-9.62-7.66-19.46-11.37-29.25q-11.4-30-23.47-59.84c-11.59-28.76-18.77-58.86-27.25-88.57-.83-2.92.15-4.29,2.42-6.12,10.19-8.23,15.14-18.72,14.33-32.2-.57-9.31-4.56-16.69-10.79-22.76-5.66-5.52-12-10.79-21-9.7-3.93.48-5.92-1.28-6.58-5C185,348.72,184.26,346.35,184.63,343.23Zm108,128.19c-2.91-1.06-2.9,4.22-5.48,2.79-4.28-2.36-9.43-4.4-12.11-8.1-5-6.93-11.71-13.07-12.9-22.41-.8-6.31-4.25-12.08-3.5-18.82.45-4.06,2.3-7.6,3.08-11.53,2.12-10.68,7.67-19.53,15.62-26.92,1.73,1.56.62,4.18,3.76,6.05-3-8.55,2.47-11.22,7.93-14.07A29.57,29.57,0,0,1,301.85,375c2.83-.12,5.86,1.05,8.19.5,9.51-2.25,17,1.58,24.46,6.45a51.91,51.91,0,0,0,8.31,4.54c2.93,1.22,5.84-.73,4.85-3.15-2-4.9-.6-9.51.24-14.24,1.24-7-.1-9.81-6.78-12.39-15.54-6-31.53-9.13-48-4.62-21.58,5.92-38.31,18-49.22,38.21-9,16.57-11.36,34.3-8.58,52.1,3.33,21.36,15,38.29,33.83,49.91,4.76,2.93,12.23,4.26,10.69,12.76,0,0,.57.13,1,.23a23.56,23.56,0,0,0,.36-2.44c.07-1.34-.12-2.84,1.79-3,1.15-.07,2.52-.21,3.28.79,1,1.29.17,2.6-.67,3.64-1.33,1.64-2.36,3.69-4.63,4.28s-2.6,2.07-2.23,3.82c.91,4.32,0,8.64.24,13,.1,1.65-.34,3.36.71,4.84.92,1.28,2.17,2.32,3.78,1.88,2-.53.12-1.89.32-2.86s-.06-2.61,1.78-2.24,1.83-.17,1.65-1.78a10.42,10.42,0,0,1,.53-5.4c1.37-2.84-2.22-7.89,5-8.62,3.11-.32,3.94-1.67,4.23,2a1.61,1.61,0,0,0,2,1.67c1.48-.18,1.2-1.24,1-2.24a14,14,0,0,0-1.53-4.71c-1.42-2.51-.56-3.92,2.28-4.63a28.9,28.9,0,0,1,10.91-.82c12.33,1.69,22.05-4.88,32.34-9.72,2.19-1,2.23-3,2.42-5.08.51-5.78.43-11.62,1.74-17.32.32-1.4.94-3.15-.6-4.13a4.12,4.12,0,0,0-4.29.26,22.55,22.55,0,0,0-3.34,2.18c-12.89,10.86-27.47,14-43.78,9.87C290.45,477,289.81,476.16,292.64,471.42Zm20.14-219.85c-2-1.67-1.27-3.25-1.26-4.66q.12-15.74.28-31.46c0-.91.57-2.29-.76-2.49-1.63-.23-1.72,1.31-1.73,2.42-.1,9.3-.38,18.6-.13,27.89.23,8.69.86,17.32-3.86,25.23-1.35,2.27-2.55,4.65-3.67,7.05-5,10.84-9.18,22-14.41,32.79-4.71,9.68-8.9,19.62-13.2,29.49-2.11,4.86-.52,7.48,4.69,7.61,4.32.11,8.65-.35,13-.29,3.59,0,5.32-1.82,6.58-4.9,2.68-6.56,5.82-12.91,8-19.69,1.4-4.3,4.23-7,9.47-7.15,5-.18,9.86.86,14.79.56,9.12-.56,18.23-1.31,27.39-1.12,2.71.06,4.36,1,5.42,3.39,3.87,8.75,7.84,17.46,11.64,26.24.7,1.62,1.95,1.56,3.2,1.83,5.3,1.14,10.56.55,15.87-.07,5.51-.65,6.47-2,4.34-7.28-5.64-13.85-11.8-27.5-18-41.09-5.73-12.61-12.3-24.87-17.32-37.81-2.95-7.62-6.85-14.75-10.22-22.15-3.77-8.28-7.28-16.68-11.09-24.94-1.12-2.44-1.89-6.05-5.31-5.86s-4.6,3.93-6.35,6.48c-.27.39-.23,1-.42,1.43Zm427.88,353.3-1.28-.63a90.75,90.75,0,0,0-.69-39.46c-2.19-9.65-7.35-17.21-14.22-23.88a3.87,3.87,0,0,0-2.64-1.25c-5.75.93-8.68-3.32-12.06-6.53-4.54-4.3-8.07-4.46-12.35.09-12.51,13.28-16.77,29.53-16.91,47.26a11,11,0,0,1-.19,2.44c-2.76,11.71-2.62,23.27,1.7,34.63a29.24,29.24,0,0,1,1.81,10.65c0,4.51-3,7.81-3.42,11.69a137.11,137.11,0,0,0-.41,22.66c.7,12.9,3.83,25.29,12.17,35.49,11.38,13.92,28.25,16.89,40.55.11,7.67-10.47,9.2-22.71,9.8-34.95.71-14.28-.14-28.56-4.54-42.38-.5-1.58-.81-3,1.9-2.48A74.09,74.09,0,0,1,773,634.66a5,5,0,0,1,2.18,3.25c.51,6.7,2.77,13.2,1.54,20.14a63.66,63.66,0,0,0-.71,13.71c.2,4.16.75,8.1-.7,12.16-1.59,4.43-.14,8.51,2.32,12.19,1.62,2.43,3.51,2.26,5-.32a35.77,35.77,0,0,0,4.24-14.26c.15-1.34-.05-3-1.91-2.81-3.67.42-3.39-2-3-4.12a95.87,95.87,0,0,0,.63-26.69c-.09-.81-.5-1.68.51-2.17s1.6.11,2.27.6a10.61,10.61,0,0,1,2.83,3.43c4,6.74,8.08,13.32,7.78,21.72-.11,2.81,2.15,6.13,4.94,6.06,3.54-.1,3.56-3.88,3.33-6.69-.54-6.66-2.75-13-4.3-19.44-.33-1.38-1.79-1.75-2.8-2.56-5.82-4.58-9.79-10.91-14.83-16.26-.63-.67-.4-2.24-.41-3.4-.08-15.31-2.38-30.48-3.37-45.73-.56-8.5.83-15.2,5.38-21.89a24.69,24.69,0,0,0,4.21-9.53c1-5.51-2-10.12-3.7-14.9-1.14-3.23-5.4-3-7.68-.19-3.71,4.56-5.22,9.6-5.47,15.6-.38,9.1-.13,18.45-7.07,26.16-2.85,3.17-5.74,6.43-8.5,9.73C750.88,594.13,745.67,599.42,740.66,604.87Zm-38.79-316c-.62,2.27,1,3,1.34,4.21,1.5,4.77-1.83,11.39-5.65,10.93-1-.11-2-.92-2.32.52-.36,1.62,1.06,1.76,2.2,2.07,1.77.49,2.69-.91,3.94-1.65,9.3-5.57,12.64-5.39,19.86,2,12.29,12.53,24.23,25.4,37.79,36.62,3.59,3,5.76,2.36,6.3-2.27a73.83,73.83,0,0,0,.17-11.9c-1-22.95,0-45.92-1.25-68.88-.83-16.11-.09-32.29-.88-48.43-.42-8.59-2-10.15-10.61-9.39-2.48.21-5,.55-7.42,1-2.75.48-4.35,1.8-4.18,5,.24,4.82,0,9.66,0,14.49.11,20.82.26,41.65.34,62.48,0,1.56.55,3.48-1.3,4.51s-3.55,0-5-1.13c-5-3.71-9.44-7.59-9.79-14.61a35.33,35.33,0,0,0-1.19-8.85,5.07,5.07,0,0,1,2.92-6.17c1-.49,3.19-.28,2.59-2.26-.52-1.72-2-2.13-3.54-.9-.59.47-1.21.65-1.68-.08a1.15,1.15,0,0,1,.47-1.68c1.22-.8,2.51-2.32,3.67-2.23,6.46.49,2.43-5.17,4.39-7.29.39-.42-.39-1.74-1.35-1.66-5.92.51-3.53-3.79-3.11-6,1-5.6,5.89-9.32,7.82-14.66.63-1.75,1.62-3.1.84-4.93a1.7,1.7,0,0,0-2-1.05c-2,.59-1.26,2.45-1.65,3.79a25.12,25.12,0,0,1-1.12,3.3c-.57,1.25.94,3.44-1.3,3.76-1.72.25-3.66.09-4.31-2.35s-2.9-1-3.64-.56c-1.55,1-3.77,2.92-3.63,4.25.24,2.35,2.33-.87,3.68.37-2.47,3.53-.9,7.46-.87,11.27,0,1.82.83,3.9-.41,5.34-4.24,4.9-7,10.88-11.14,15.71-2.85,3.32-2.66,5.78-.43,8.73,2.78,3.69,4.5,8.12,8.23,11.17,2.45,2,1.85,5,1,7.45s-3.34,1.71-5.29,1.57C710.13,290.11,705.88,290.32,701.87,288.88ZM546.36,203.52c-6.88,1-12.76,1.9-18.05,4.51-15.8,7.79-28.27,19.1-36,35.25-1.15,2.42-.4,3,1.86,2.91a8,8,0,0,0,2.42-.53,4.44,4.44,0,0,1,5.39,1.46c1.72,2,0,3.74-1,5.36-.81,1.24-1.93,2.29-2.85,3.47-9.52,12.22-9.58,12.78-2.4,23,.48.67,1.17,1.18,1.63,1.85,2.08,3,6.38,5.81,4.15,9.8-2,3.53-6.07,1.95-9.54,1-2.61-.7-4.51-.22-3.24,3.58,1.57,4.71,2.57,9.57,5.48,13.79,5,7.26,10.08,14.3,17.5,19.54,7.82,5.53,15.83,10.41,25.12,13,1.92.53,3.57.79,4.85-1.14s2.9-4,4.14-6.16,2.26-4.23.84-6.59c-2.14-3.54-4.33-6.77-8.27-9-11.91-6.73-22-15.32-26.37-29.07-4.8-14.92-4.21-29.15,4.6-42.45a47.81,47.81,0,0,1,8.37-9.88c7.53-6.47,15.37-12.57,26.21-12.3,3.14.08,6.3-.56,9.8-.9-1.66-2.34-3.58-1.87-5.3-1.7-5.45.55-10.9,1.07-16.3,1.94a3.67,3.67,0,0,1-3.91-1.28c-1.22-1.44-.61-2.87.25-4.13C538.92,214.13,542.2,209.48,546.36,203.52ZM244.92,282.81v0h8.5c13.35,0,13.77-.59,12.43-14.24-.41-4.15-2.1-6-6.2-6-13.1-.09-26.23.64-39.22-2.14-2.68-.57-4.1-1.26-4.8-3.93-1.51-5.7.07-11.19.61-16.78.44-4.54,2.53-6.59,7.14-6,5.93.75,11.83-1.79,17.8-.18,1.37.37,2.06-.55,2.47-1.83,2.72-8.36,1.48-11.32-6.61-15.66a19.37,19.37,0,0,1-2-1.46,25.27,25.27,0,0,0-17.32-4.66c-6,.42-12.22.68-18.26-.53-3.77-.76-7,1.26-6.82,5.24.46,10.54-.28,21-.76,31.54-.39,8.65.51,17.27-.19,25.93-.62,7.8,8.19,13.12,15.21,9.52,4.29-2.19,7.58-5.89,12.1-7.79,2-.86,4-2.21,6.06-.82s.87,3.39.45,5.05c-.91,3.55.24,4.91,3.91,4.78C234.6,282.67,239.76,282.81,244.92,282.81Zm194.59-79.18c-13.16-.82-29.37,5.94-37.14,20.66-5.69,10.79-5.09,21.75,0,32.48,5.62,11.82,17.28,15.84,28.1,20.75,1.25.57,3.57,1.94,4.79-.35,1.71-3.2,5.45-6.08,2.8-10.34-4-6.4-7.81-13-12.46-18.89-4.76-6.07-2.77-13.5,2-17.8,7.94-7.2,16-5.84,24.7.39,2.07,1.48,1.88,6.16,5.06,4.71,1.77-.81,2.19-4.58,3.22-7,.7-1.65,1-3.83,3.4-3.71s3.41,1.74,3.81,4c.23,1.27.38,3,1.91,3.14s2.75-1.29,3.46-2.54c1.41-2.48,1.13-4.91-.4-7.47C465.14,208.88,453.89,203.09,439.51,203.63ZM798.8,756.76c3.52,4.11,6.2,8.26,9.62,11.81,2.32,2.41.32,3.25-2,3.7-12.21,2.33-20.68,9.45-27.15,19.93-5.08,8.23-7,17.35-9.61,26.34-.77,2.66,3.26,8.94,5.47,8.58,3.73-.61,4.23-3.68,4.2-6.86a25.45,25.45,0,0,1,0-3.49c1.56-12.16,6.46-22.55,16.58-29.89,5.49-4,12.11-4.13,18.59-4.41,3.39-.15,6.89-.19,8.39-4,1.43-3.65-.46-6.21-3.07-8.67a163.72,163.72,0,0,1-24.92-29c-8.43-12.92-14.62-27.21-24-39.61-3-4-5-4.14-7.53.18-1.72,2.9-.82,5.55.83,7.94,4.89,7.09,9.77,14.21,15,21.09,6.37,8.45,9.62,18.16,12.07,28.22.74,3.07-.44,5.55-3.92,5.43-4.3-.14-8.57-.89-12.86-1.33s-8.65-1.62-12.81-1.11c-17.83,2.22-35,7.59-52.39,11.91-2,.5-4.61,1.33-4,4.2.6,2.69,2.67,5.81,5.38,4.54,3.68-1.72,9.79,5.19,11.3-3.24.05-.28,1.2-.37,1.84-.55,2.39-.65,4.74-1.5,7.17-1.91,9.45-1.58,18.34-5.6,28.16-5.64,9.38,0,18.53,1.28,27.75,2.69s13.92-4.32,11.65-13.21A4,4,0,0,1,798.8,756.76ZM166.24,167.36c-.11,1.49-.11,3-.34,4.47a18.45,18.45,0,0,0,10,19.25c3,1.46,6.92,2.64,8.36,5.14,2.66,4.63,6.92,4.35,10.79,5.24,2.49.56,5.23.18,7.84,0,15.78-1.2,25.93-9.14,30.15-24.87.21-.77.47-1.94,1-2.14,4.69-1.81,2.52-4.79,1.51-7.66a28.72,28.72,0,0,1-1.12-4.31c-2.62-14.14-11.09-29-29.76-31.39-12.36-1.56-29.49,6.74-34.49,16.77-.43.86-.42,2.06-1.81,1.92-1.14-.11-2-2.61-3.25-.77s1.32,1.8,1.8,2.84a2.41,2.41,0,0,1,.12,1.87C164.8,158.13,166.2,162.79,166.24,167.36ZM631,274.61c-1.4-6.85-.57-15.63-3.53-24.18-2.15-6.18-5.84-11.4-8.68-17.1-1.88-3.78-4.34-8.75-8.85-9.65a79,79,0,0,0-20.28-1.45c-4.06.24-5.77,3.48-6.74,6.49s2.37,3.41,4.31,4.5a6.64,6.64,0,0,1,2,1.42c5.88,7.57,13,14,15.71,24.05,4,14.71,2,28.07-5.25,41-1.19,2.13-4.22,4.63-3.09,6.31,1.56,2.31,5.12.86,7.84.54,2.28-.27,4.92-1.34,6.49.95,1.81,2.67-.11,5.2-1.56,7.32-2.72,3.95-5.79,7.66-8.7,11.48-.75,1-1.38,2.08-.15,3.05,1,.79,1.86-.05,2.6-.7C619.15,314.84,630.54,298.55,631,274.61ZM808.89,612.77c-.33-4.28.56-10.75,1.75-17.09,1.12-6,.39-12.39,4.29-17.76,1.41-1.95,2.81-3.33,5.29-2.8,7.76,1.67,15.75,2.12,23.2,5.41,5.5,2.43,9.3,6.31,10.38,11.92,3.15,16.4,1.26,32.15-7.49,46.73a12.85,12.85,0,0,0-2,4.52c-1.18,8.92-8.1,14.58-12.83,21.15C824.81,674,817,682.71,806.36,688c-2.15,1.06-4.23,3-3.11,6.08,1.06,2.89,2.89,4.78,6.35,4.44A20.51,20.51,0,0,1,822.07,701c3.44,2,7.3,3.14,10.9,4.83,10.5,4.94,21.65,8.89,28.66,19.11,1.5,2.18,3.68,4.69,6.47,2.18s2.11-5.76-.21-8.07a63.09,63.09,0,0,0-11-9.25,166.9,166.9,0,0,0-29.62-14.19c-5.8-2.16-6.41-5.57-2.4-10.16,7.74-8.85,15-18,20.84-28.36,1.76-3.15,1.31-7.82,4-9.35,4-2.26,4.74-5.5,5.91-9.1,1.48-4.5.81-10.51,8.09-11.18,1.54-.15,1.39-3.45-.06-4.11-3-1.37-2.14-3.44-1.61-5.4,1.5-5.56,1.47-11.25,1.09-16.87-.7-10.35-3-20.4-12.62-26.25-10-6.09-21.46-7.8-32.92-8.59-4-.28-10.06,6.28-10.13,10.19-.25,13.67-4.38,26.83-5.16,40.41-.36,6.25-1.57,12.74,2,18.54,1.06,1.76,2.24,4.67,5.23,3.36,2.71-1.18,2.62-4,1.61-6.08C808.27,627,809.15,621,808.89,612.77ZM458.08,301.6c-.95,3.61-1.3,7.13-2.77,10.1a19.63,19.63,0,0,1-16.82,11c-7.75.36-15-3.12-18.65-11a44.32,44.32,0,0,1-2.68-8.51c-1-4.27-3.78-5.2-7.51-4a38.84,38.84,0,0,1-9.26,1.68c-4.71.35-7.25,2.95-6.53,7.51,1.79,11.46,6.09,21.62,15.85,28.83,8.83,6.53,18.8,7.1,29.3,7.07,27.33-.08,43.85-24.39,41.06-48.66-.16-1.4-.36-3.38-2.17-3.41-1.58,0-2.29,1.53-2.72,3.1-1.45,5.32-4.57,9.92-6.7,14.94a3.67,3.67,0,0,1-3.39,2.56c-1.92,0-2.38-1.62-2.94-2.95C461,307.17,460.48,304.2,458.08,301.6ZM237,722.52a20.48,20.48,0,0,0,5.74-13.93c2.75,1.85,3.6,4.55,4.5,7.14a14.33,14.33,0,0,0,4.63,7c11.28,8.67,11.44,8.67,11.13,22.8-.07,3.38,1.88,6.44,1.23,9.61a42.89,42.89,0,0,0,.21,16.21c.33,2,.63,5.06,3.28,4.82,2.88-.26,2.65-3.26,2.86-5.62.64-7.1.26-14.19,0-21.28-.4-10.25.38-20.58-1.62-30.73-.36-1.81-.23-4.5-2.55-5s-2.52,2.24-3.24,3.72c-1.3,2.66-2.72,3-5,1.1a23.81,23.81,0,0,1-4.15-4.24c-4.33-5.79-6-12.2-6.65-19.44-.92-11.16-2.47-22.15,2.47-32.84a16.05,16.05,0,0,0,1.38-6.31c0-2.68-.49-5.89-3.7-6.23-2.81-.3-4.07,2.23-4.72,4.88-2.2,8.87-3.88,17.73-2.71,27,.43,3.41.92,7.09-.74,10.59a30.65,30.65,0,0,0-4.23-12c-4-6.68-10.4-7.81-15.1-2.2-7.81,9.3-12.3,20.28-14.82,32.1-.79,3.74.61,7.52,3.89,8,3.81.6,4.27-3.4,4.66-6.67,1.06-8.88,3.53-17.29,9.32-24.37,2.53-3.11,5.69-2.88,7.08.31,1.08,2.48-.56,4.48-1,6.7-.54,3,4,.44,4.09,4.14,0,3.86,1,7.82.92,11.8-.05,1.87,0,3.74,1.38,5.17C237.7,717,238.65,719.38,237,722.52Zm403.84-436a67.23,67.23,0,0,0,5.11-6.71,48.28,48.28,0,0,1,4.74-6.37c3.89-4.54,3.63-9.26-.36-13.85-2.26-2.61-4.45-5.3-6.5-8.08-1.65-2.24-2.4-4.81-.9-7.45s4-1.63,6.26-1.31c4.11.57,8.28.85,12.31,1.72,4.84,1.05,8.32-1.27,9.64-5.09,1.49-4.29,6.44-8.67.94-13.9-8.5-8.07-16.61-16.56-25-24.76-1.21-1.19-2.85-2.76-4.81-1.34-1.68,1.22-2.75,3-2,5.2s.44,4.62.51,6.93c.6,20.9-1.46,41.8,0,62.71C641.12,278.34,640.87,282.46,640.87,286.56Zm23.86,36.63h-.11c0-3.82-.12-7.65,0-11.47.07-1.83-1-6.12,3.24-2,1.17,1.15,3.46,1.06,5.13,0,.33-.2.44-1.3.2-1.77-.85-1.71-2-3-4.28-2.58a4.11,4.11,0,0,1-1,.12c-2.44-.1-3.88-.58-3.53-3.83s-.43-6.89-.67-10.35c-.16-2.35-1.48-1.86-3.13-1.63-5.24.73-10.59,2-15.75,1.53-4.12-.38-3.92.85-4.1,3.95-.82,14.26,2.66,28.39,1.15,42.68-.41,3.86,2.4,5.82,6.73,4.93a37,37,0,0,1,9.88-.74c4.36.27,6.08-2,6.15-5.93C664.8,331.83,664.73,327.51,664.73,323.19ZM143.31,170.58c-2.57-2.74-4.83-4.92-6.83-7.32a317.86,317.86,0,0,0-25.14-26.88c-1.49-1.41-3-3.46-5.53-2.34-2.27,1-2.22,3.31-2.2,5.19.21,14.75-1.92,29.44-1.11,44.19.41,7.41.45,7.21,7.69,5.69,4.76-1,6.49-3.43,6.43-8.31-.08-6.3-.71-12.61,2.39-18.8,1.94-3.87,3.88-4.11,6.94-2.62a24.08,24.08,0,0,1,9,6.94A9.51,9.51,0,0,0,143.31,170.58ZM244.46,325.3v0c-4.31,0-8.63.1-12.94,0-9.73-.28-9.73-.33-9.4,9.48,0,.33,0,.66,0,1,.17,9.68.17,9.75,9.83,9.68s19.6.56,29.34-.79c2.17-.29,5.38-.05,5.57-3.07.25-4.26,1.71-8.41.82-12.82-.54-2.71-1.66-3.58-4.27-3.53C257.09,325.38,250.78,325.3,244.46,325.3ZM149.38,151.48h-.55c0,4.32,0,8.64,0,13,0,1-.53,2.5,1.4,2.52,1.31,0,11.23-6.48,11.21-7.75-.13-7.21,2.82-14.36-.05-21.64-1.52-3.88-4.49-3.41-7.4-3.21s-4.81,1.78-4.68,5.19C149.5,143.52,149.38,147.5,149.38,151.48ZM461.54,361c0-3.75-2-4.93-4.8-5-3.14-.11-6.29,0-9.42-.19-5.33-.34-7.36,2.16-5.81,7.33,1.4,4.66,4.67,8.33,6.88,12.56,1.17,2.23,4.85,2.08,6.12.44C458,371.5,459.93,366,461.54,361ZM280.66,308.21c2.18-3.2.5-7.86,4.75-10,.23-.11.25-1,.15-1.42-1-4.47.64-9,1.07-13.21.71-6.84-.53-11.13-6.53-15.1A155.74,155.74,0,0,0,280.66,308.21Zm-10-142.93c.13-2.89,0-4.87-.88-6.73-2-4.29-5.1-5.82-8.6-3.69-3.95,2.41-4.69,6.32-4.19,10.78a10.58,10.58,0,0,0,6.25,8.83c.84.43,1.56-.15,2.34-.31C271.44,173,270,168.16,270.69,165.28Zm14.88,256.83c2.25,3.34,1.38,8,6,8.44,5.32.51,7.12,3.45,6.73,8.39-.1,1.23-.61,3.14,1.26,3.15s1.7-2.17,1.93-3.49c.15-.87-.57-1.85-.79-2.81-.82-3.57,4.24-6.78.64-10.53.43-.22.85-.47,1.3-.66,1.06-.46,2.4-.85,2-2.34s-2.31.49-2.84-1c0-1,.86-1.36,1.41-1.94,1.22-1.26,1.39-2.69.13-3.95-1.55-1.57-2.69-.12-3.77.81-.75.64-1.81,1.37-2,2.19-.66,3.82-3.42,3.75-6.25,3.73Zm-6.72,355.6c-1.26,4.49-2.78,8.95-1.88,13.61,1.25,6.41.59,12.82.75,19.23.17,6.21-1.68,12.26-.36,18.68.6,2.9,2.48,7.06-.27,10.41-1,1.26-2.62,2.9-.34,4,2.07,1,2-1.57,2.78-2.62s1.72-2.3,1.57-4c-.44-5-.29-10.11-1.67-15-.9-3.22-.11-4.85,4.17-2.62-2.12-4.14-1.5-7.69-1.67-11.11C281.43,798,277,788.19,278.85,777.71ZM694.07,159.48c3.57.36,6.77,1.31,9.95-.77,2.09-1.37,2.88-4,5.38-4.86-3.83-2.58-1.55-8-5.06-10.8-1.73-1.41-1.3-2.5,1.08-2.68,1.06-.08,2.18.84,3.24-.15-2-2.07-2.81-5.7-6.49-5.28-2,.23-2.64,2.34-3.19,4.07-.68,2.13-1.43,4.35,1.67,5.13-.91,1.94-3.79.66-3.83,3.06,0,2.14,1.78,2.56,3.3,3.2a1.82,1.82,0,0,1,.78.61c.83,1.35,3.86,1.22,3.06,3.3-.66,1.74-3.16,2.3-4.81,1.67C695.83,154.73,695.13,156.84,694.07,159.48ZM213.86,345.29c.1-.56.2-1.12.31-1.68-4.31-3-7.74-7.18-12.83-9.07-2.63-1-8.51,1.62-9.33,4-.95,2.71,1.42,6.43,4.94,6.66C202.56,345.56,208.22,345.29,213.86,345.29ZM606.77,569h.07c0,5.14,0,10.28,0,15.41,0,1,.2,2.21,1.47,2.21s1.23-1.33,1.22-2.24c-.09-9.94-.4-19.88.61-29.8.11-1.12.09-2.61-1.43-2.75-1.91-.18-1.94,1.44-2,2.75C606.74,559.42,606.77,564.22,606.77,569Zm111.1-431.22a5.73,5.73,0,0,1-.68-2c0-5.6-4.89-9.11-6-14.22-.27-1.24-.24-3.09-2.28-2.09-1.76.87-.56,2.08-.1,3.33,2,5.44-.22,12.59,6.62,16.09.17.08-.22,1.22-.33,1.87s.07,1.35.86,1.48,1.23-.51,1.39-1.15C717.58,140.17,717.66,139.17,717.87,137.81Zm-437.4,26.5,1.45,0c-1.71-5.94,3.88-10.83,1.59-16.88-.4-1.07.23-1.89,1.06-2.57,1.6-1.28,1.52-2.9.6-4.45a2.65,2.65,0,0,0-2.72-.89c-2,.24-2.25,1.9-2.22,3.37a183.28,183.28,0,0,1-.49,20.3C279.71,163.56,280.22,164,280.47,164.31ZM838,812.46c0,5.06,1.62,8.75,3.75,8.4,3.32-.56,3.67-3.58,3.68-6.12,0-3.18-.77-6.62-4.68-7S838.42,810.71,838,812.46Zm-538.14-347c-.25-5,4.42-9.77.48-14.92-1-1.33.38-4.06-1.59-4.26-2.76-.28-.42,2.76-1.72,3.77-3.26,2.52-2.28,4.23,1,5.66,2,.88.91,2.17.06,3.16C295.72,461.71,297.54,463.56,299.9,465.44ZM140.37,590.36c1.17,3.25.22,4.63-3,4a21.7,21.7,0,0,1-4.15-1.5c-1.47-.62-2.41-.31-2.11,1.37.61,3.38,3.44,4.36,6.23,4.79,4.24.65,6.82-2.59,7.71-5.67S141.5,592.55,140.37,590.36ZM270.3,648.65c-.68-2.95-1.28-6.06-3.21-8.66-.79-1.08-1.83-2.22-3.3-1.49s-1.41,2-1.22,3.47c.45,3.25,2.14,5.83,4.13,8.31.69.86,1,2.39,2.52,1.59C270.37,651.27,270.28,649.93,270.3,648.65Zm335.59-127c-1.88,8.88-1.92,18.18-1.24,27.48h1.24ZM696,185.36c-.12.95-.59,2,.68,2.55a1.48,1.48,0,0,0,2-.83c.54-3.27,2.83-6.48.66-9.91-.64-1-1.6-1.91-2.84-1.56-1.51.43-1.14,1.77-.86,2.91C696.26,180.78,696.73,183,696,185.36ZM575,394.67c-.55-1.93-1.59-3.33-3.49-3-2.33.35-3.95,1.78-3.5,4.42.3,1.79.94,4.08,3.13,3.69C573.66,399.3,574.11,396.56,575,394.67ZM721.42,150.28c-1.15-2.25-1.73-4.19-4.27-5.24-2.37-1-3.35,3.52-5.54.84-1.22,1-.25,1.5.4,2.25C714.49,151,717.58,151.19,721.42,150.28ZM279,726.43a24.61,24.61,0,0,0-.43,12.36,2.15,2.15,0,0,0,1.11,1.45,1,1,0,0,0,1.26-1.07C280.81,734.86,281.2,730.45,279,726.43ZM168.85,553.08c.68-3.18-1.12-4.4-3.4-4.63-1.94-.19-2.17,1.82-2.24,3.19-.15,2.8,1.94,3.48,4.19,3.76C169.89,555.72,168.51,553.66,168.85,553.08ZM67.23,222.75c1.9-.16,3.78-.25,3.91-2.84.08-1.84-.91-2.25-2.51-2.09-2.25.22-4.63.88-4.88,3.25C63.51,223.22,66,222.27,67.23,222.75Zm229.83,253.6c1.72-.34,4.08-1,4.77-2.87s-1.46-2-3-2.16c-2.78-.4-4.41,1.65-5.15,3.37C293.07,476.18,295.55,475.73,297.06,476.35ZM691.14,138.94c.11.89-.34,2.68,1.35,2.9s.92-1.76,1.54-2.57a4.61,4.61,0,0,1,1.4-1.28c1.08-.57,2.26-1.27,1.69-2.56s-2-.61-3.12-.72C690.92,134.4,691.09,136.56,691.14,138.94ZM227.62,522.22c-3.79-2.66-7.31-.68-10.9-.06-1,.17-2.24.25-2.12,1.49.16,1.65,1.79,1.52,2.74,1.15C220.66,523.52,223.87,521.93,227.62,522.22Zm-12.1,46.66,10.74,6.45C224.56,570.22,220.74,568.51,215.52,568.88ZM701.2,352c.11,3.73-1.25,6.6,1.87,8.45a1.46,1.46,0,0,0,2.12-.6C706.2,356.68,704.2,354.78,701.2,352ZM605.11,517.51c3.16-5.23,2.85-9.7,0-14.23ZM880,871.85c-.93,1.64-1.6,3.16-3.68,3.56a2.08,2.08,0,0,0-1.58,3.06c.86,1.44,2.27.56,3.55.16C882.06,877.43,880.73,874.66,880,871.85ZM81.15,404.69c-.25-1.07.42-3-1.14-2.78a4.55,4.55,0,0,0-3.9,3.87c-.26,1.6.69,2.44,2.25,2.58C81.3,408.63,80.59,406.17,81.15,404.69Zm213.06,436.8c-.19-1.61.35-2.74-.68-3.41-.79-.51-1.57-.09-2.26.44a2,2,0,0,0-.5,3c1.21,1.74,1.54,3.22-.47,4.66a1.21,1.21,0,0,0,0,2.09,1.48,1.48,0,0,0,2-.88C293.13,845.29,293.72,843.08,294.21,841.49Zm542.8-339c.29,1.52,0,3.6,2.75,3.6,1.76,0,2.38-.92,2.06-2.51-.42-2-1.5-3.9-3.63-4.07C836.84,499.45,836.94,501.18,837,502.53ZM194.5,582.76c1.19-2.8,2.32-5.55,1.93-8.6-.05-.47-1.65-.86-2.19-.1-1.75,2.47-1.61,5.25-.82,8C193.48,582.32,193.94,582.43,194.5,582.76ZM689.73,122c-2.47,1.19-.49,4.06-1.53,6-.6,1.09.48,2,1.61,1.54,1.85-.83,3.45-2.17,3-4.54C692.58,123.5,692.26,121.87,689.73,122ZM200.87,120.8c3.55,0,6.07,0,8.59,0a1.2,1.2,0,0,0,1.32-1.13c0-.38-.45-1.08-.74-1.11C207.19,118.28,204.11,117.1,200.87,120.8ZM170.75,430.7c2,1.23,1.3,4.06,3.89,4.26,2.29.17,3.62-1.21,4.17-3.85C176.32,431.11,174.1,429.74,170.75,430.7ZM739.08,166.84c2-1.76,5-1.83,3.77-5.28-.48-1.36-1.39-2.91-2.72-2.06C737.58,161.13,738.76,163.75,739.08,166.84ZM229.36,582.89c.07,2.75-1,5.56.89,8.17.08.1,1.12-.17,1.17-.4.65-2.76,1-5.5-1.22-7.81C230.13,582.77,229.89,582.86,229.36,582.89Zm643.8-357.74c.22,1.55-.28,3.59,2,3.87,1.74.21,2.2-1.17,2-2.61-.23-1.78-.48-4-2.59-4.24S873.46,224,873.16,225.15ZM267.37,867.44c-2.24,2.66-3.95,4.6-5.56,6.62-.47.6-1.07,1.47-.16,2.17s1.6.08,2.21-.46C266.09,873.82,266.84,871.16,267.37,867.44ZM731,204.17c-1.35,1-2.85,1.5-2.8,2.93.08,2.17,2.13,2.12,3.63,2.46,1,.23,2.19-.21,1.68-1.5A23.29,23.29,0,0,0,731,204.17ZM279.06,644c-2.2,4.64,1.34,6.66,4.68,10.27C283.05,649.56,278.53,648,279.06,644ZM699.36,119.3c.26,2-.59,4.45,2.29,4.69,1.06.09,2.72-.63,2.66-1.69C704.17,119.47,701.42,119.86,699.36,119.3ZM235.21,745.11c1.06-.68,1.57-1.05,2.11-1.35,1.45-.78,3.19-1.28,3.6-3.13a1,1,0,0,0-1.27-1.1c-1.9.55-3.94,1-4.56,3.32A10.25,10.25,0,0,0,235.21,745.11Zm-3.86-212.33c-.44-2-1.08-4.07-3.46-4.84-.63-.2-1.5.51-1.18,1.15a26.94,26.94,0,0,0,3.43,5.49C230.55,535.06,231.32,533.84,231.35,532.78Z" transform="translate(-0.87 -5.81)"/><path d="M393,883c18.13-13,23.67-32.54,27.24-53,.61-3.54,1.48-6.44,5-8.45,4.88-2.75,8-7.41,10.8-12.21,1.81-3.14,3.53-6.32,5.46-9.79,1.93,1.92,1.52,4,1.53,5.83.06,12.14,1.73,24.12,3.36,36.11.62,4.58,3.15,8.41,5.67,12s6.48,3.57,9.83.24a43.47,43.47,0,0,0,9.49-14.54c2.7-6.59,5.16-13.28,7.82-19.89.57-1.43.76-3.87,2.8-3.48,1.8.34,1.73,2.61,1.71,4.25-.07,7.93,1.23,15.58,5.29,22.48,4.16,7.07,10,7,15,.54,7.68-10,9.31-22.25,13.08-33.71.31-.94.37-2,.62-2.93.17-.64.49-1.23,1.34-1.15s1,.8,1.07,1.43c.38,3.13.9,6.26,1,9.4a71.88,71.88,0,0,0,7.36,28.75c3.94,8.17,13,8.54,17.53.53a83.1,83.1,0,0,0,9.73-29.12c1.39-9.84,3-19.66,4.54-29.48.17-1.08.05-2.64,1.62-2.64,1.39,0,.89,1.45,1.2,2.3,1.93,5.35,1,11.18,3,16.59,1.16,3.09,2,6.48,3.76,9.12,4.11,6,4.71,12.78,4.62,19.56-.16,12.12-1,24.21-2.38,36.27-.54,5-.12,10-.14,15Z" transform="translate(-0.87 -5.81)"/><path d="M70,883c-7.45-2.8-15.11-4.91-22.38-8.34C40,871,34.68,865.28,30.72,858.32a91,91,0,0,1-12.36-48.1c.11-4.33.23-8.68-.05-13-.34-5.27.56-9.09,5.68-12.47,5.63-3.72,6.94-11.11,9.7-17.08,3-6.45,5.42-13.16,9-19.8.67.74,1.12,1.17,1.5,1.65.63.81,1.38,1.76,2.39.91a1.46,1.46,0,0,0-.51-2.48c-3.23-1.46-2.15-3.44-1-5.66a92.09,92.09,0,0,0,5.3-11.81c1.72-5,6-8.71,7-14.16.64-3.44,4.32-4,6.82-5.3,10-5.19,16.91-13.18,22-23,.37-.74.78-1.47,1.14-2.22.57-1.2,1-2.65,2.7-2.49s1.45,1.79,1.69,2.74c1.41,5.47,2.57,11,3.87,16.49.44,1.82-.47,2.47-2,2.63-12.4,1.27-16.18,10.92-19.66,20.59-7.21,20-7.14,40.77-4.78,61.57A87.21,87.21,0,0,0,84.6,828.88a21.06,21.06,0,0,0,6.05,5.88c4.13,2.55,8.25,3.57,12.44.16.66-.54,1.41-1.17,2.22-.74,1.06.56.93,1.71.66,2.66-4.32,15.48-9.32,30.61-22,41.69-3.43,3-8.28,2.22-12,4.47ZM28.25,822.38c-1.91,0-3.52.37-3.45,2.65a3.94,3.94,0,0,0,3.67,4,3.11,3.11,0,0,0,3.69-3.13C32.25,823.38,30.2,822.77,28.25,822.38Z" transform="translate(-0.87 -5.81)"/><path d="M288,883c.73-4.23,5.11-4.85,7.57-7.38,1.32-1.37,2.22.85,1.89,2A4.94,4.94,0,0,0,299,883Z" transform="translate(-0.87 -5.81)"/><path d="M58.59,55.93c-.51-3.2.24-6.9-1-10.49-.94-2.71,1.1-4.39,3-5.77,2.07-1.53,3.33.39,4.64,1.55,3.6,3.19,7.1,6.49,10.75,9.62,3.3,2.83,6.78,3.07,10.44.45q6.09-4.36,12.37-8.42c1.76-1.13,3.62-2.6,6-1.1s1.62,4.1,1.1,5.89c-1.18,4.08-.49,8.29-1.46,12.36-1.73,7.28-.73,9.17,6.2,12.41,3.6,1.69,7.33,3.09,10.94,4.75,2.23,1,4,2.89,3.85,5.36s-2.2,3.53-4.38,4.27c-3.31,1.13-6.61,2.28-9.85,3.55-8.22,3.23-10.1,6.53-8.85,15.41.43,3,.94,5.93,1.49,8.87.47,2.53,0,4.66-2.31,6.08-2.53,1.59-4.61.16-6.27-1.44-3.6-3.46-7.56-6.45-11.39-9.62-3.35-2.77-5.87-2.16-8.88,0-4.17,3-8.41,5.94-12.64,8.88-1.52,1.06-3.22,2.11-5.05,1-1.67-1-1.63-3.08-1.13-4.55,1.75-5.09.65-10.49,2.16-15.7,1-3.59-1.22-6.9-5-8.8a156.56,156.56,0,0,1-14.38-8c-4.47-2.87-4.21-5.06.71-7.2,4.1-1.77,8.09-3.78,12.53-4.86C58,69,59.26,65.82,58.59,55.93Z" transform="translate(-0.87 -5.81)"/><path d="M652.28,75.81c1.69-3.62.75-7.74,2-11.6,1.6-5.13.23-8-4.63-10.56-4.24-2.25-8.49-4.46-12.79-6.59-1.26-.63-2.4-1.25-2.51-2.78s1.17-2.28,2.41-2.81c5.19-2.21,10.34-4.51,15.61-6.54,3-1.15,4-3.18,4-6.14-.11-5-.25-10-.27-15,0-1.57-.55-3.44,1.59-4.28,2-.77,3.81-1.1,5.58.49,2.35,2.11,4.9,4,7.12,6.22,5.8,5.76,9.71,6.28,16.1,1.36a54.15,54.15,0,0,1,9.69-6.05c1.62-.78,3.11-2.31,5-.74,1.62,1.37,1.37,3.2,1,5.07-.76,3.9-1.53,7.8-2.07,11.74-.95,7,.38,9.12,6.87,11.86,3.82,1.61,7.8,2.9,11.1,5.54,1.16.93,2.76,1.62,2.4,3.43s-1.53,2.7-3.37,3.24c-4.29,1.25-8.53,2.7-12.73,4.24-4.82,1.77-7.79,4.74-7.08,10.48.52,4.24.38,8.56.63,12.83A4.62,4.62,0,0,1,696,83.63c-1.37.93-2.52-.46-3.48-1.19-3-2.3-6-4.73-8.91-7.19-6.33-5.36-9.14-5.51-15.76-.85-2.56,1.8-5.19,3.52-7.88,5.13-1.76,1.06-3.41,3.28-5.76,1.91C652.24,80.3,653.41,77.69,652.28,75.81Z" transform="translate(-0.87 -5.81)"/><path d="M531.8,71.47c-.33-3,.88-6.38,1.47-9.81.86-5-.28-8.53-5.33-10.75-4.36-1.92-8.38-4.61-12.52-7-1.33-.76-2.58-1.75-2.25-3.52.28-1.51,1.61-1.93,2.93-2.34,4.12-1.3,8.18-2.74,12.3-4,5.76-1.76,8.22-6.83,6.9-13.93-.58-3.17-.72-6.42-1-9.63-.17-1.75.14-3.31,1.87-4.27,1.94-1.08,3.13.27,4.38,1.33,3.54,3,7.67,5.2,10.92,8.66,2.74,2.92,6.65,2.38,9.77.89,3.54-1.7,7.18-3.41,10.14-6.28,1.68-1.63,3.82-4.05,6.46-2.6s1.56,4.57,1.3,6.88c-.48,4.29-1.45,8.51-1.39,12.88,0,3.05.71,5,3.73,6.79,4.17,2.42,8.45,4.62,12.67,6.94,1.35.74,3.14,1.17,3,3.46s-1.75,3.06-3.43,3.77c-4.43,1.88-8.89,3.68-13.34,5.52-3.12,1.3-4.69,3.48-4.35,7,.43,4.46.61,8.94,1.05,13.4a4.37,4.37,0,0,1-2.56,4.85c-2.08,1.12-3.37.27-4.86-1-3.24-2.8-6.48-5.62-9.91-8.17s-7.07-3.8-11.22-.27c-3.25,2.76-7.36,4.49-11.06,6.72-1.4.84-2.67,2.42-4.44,1.56s-1-2.93-1.22-4.5A24.85,24.85,0,0,1,531.8,71.47Z" transform="translate(-0.87 -5.81)"/><path d="M533.72,654.92c-1.89-3.77-3.41-7.44-5.49-10.76-1.86-3-4.31-5.94-8.41-5.11-3.84.78-5.93,3.49-7.25,7.3-4,11.57-4.62,23.72-6.63,35.63a6.36,6.36,0,0,0,.35,2.95c.88,2.64,2.32,5.22,5.35,5.21,3.27,0,4-3.1,4.74-5.62s-.45-4.93-.64-7.4c-.56-7.38.61-14.61,1.88-21.83.33-1.9,1.11-3.81,3.14-4,2.18-.24,2.81,1.91,3.68,3.51,1.35,2.47.63,5.26,1.28,7.83,1.24,4.84,1.11,10.55,8.16,11.44,2.16.27,1.52,2.6,1.62,4.2a68.65,68.65,0,0,0,10.28,33c1.89,3,4.07,6,7.37,7.23,3.65,1.37,3.56,3.83,4,7,2.33,17.84-.53,35.53-2,53.17-1.21,15.16-4.82,30.17-7.91,45.13-.93,4.44-3.66,8.53-5.66,12.74-1,2-2.47,3.81-4.85,3.83-2.55,0-3.37-2.16-4.37-4.16-3.67-7.31-4.24-15.36-5.5-23.19a150.22,150.22,0,0,1-1.26-42.19c.66-5.44,1.58-10.86,1.12-16.38,0-.33-.1-.89,0-1,5.09-2.66,1.42-5.6,1-9-.83-6.49,0-13.29.85-19.86a121.94,121.94,0,0,0,.57-12.93,5.1,5.1,0,0,0-3.67-5.37c-3-1-3.37,2.08-4.62,3.57s-1.31,3.72-1.38,5.73c-.56,16.63-.72,33.28-1.78,49.88-.92,14.28-4.15,28.27-7.91,42.07-2.09,7.66-3.75,15.49-7.71,22.55a15.79,15.79,0,0,1-3.27,4.35c-3.05,2.7-4.6,2.19-6.15-1.54-3.77-9-3.45-18.67-3.5-28.07-.1-18,3.13-35.74,6.59-53.34,2.08-10.59,4.14-21.12,5-31.91.28-3.55-1.7-5.09-3.79-6.23-2.42-1.32-3.19,1.69-4.33,3.1-2.75,3.44-2.5,7.88-3.16,11.88-2.43,14.76-4.6,29.56-5.47,44.52-.7,12.27-5.36,23.62-8.78,35.23-2.91,9.85-6.36,19.57-11.33,28.64-1.11,2-2.43,4-3.72,5.88-.83,1.24-1.76,2.68-3.55,2.14-1.56-.47-2.18-1.94-2.65-3.41-2-6.38-2.71-13-3.39-19.6-2-18.87-2.43-37.6,1.29-56.51,2.57-13,5.91-25.94,8-39.08a17.66,17.66,0,0,0,.38-3.94,5.11,5.11,0,0,0-3.28-4.65c-2.36-.86-3.38,1.23-4.13,2.73-1.47,2.94-3.17,6-3.62,9.17-1.71,12.13-4.05,24.17-5.79,36.3-1.52,10.47-4.22,21.11-9.06,30.89-2.22,4.48-4.16,9.09-7.94,12.55-.81.74-1.58,2.09-2.9,1.23-.92-.6-.46-1.75-.4-2.75.92-15.38,2.28-30.68.92-46.21-1-12-.8-24.24-1.76-36.34-.42-5.27-1.26-10.5-1.91-15.75-.14-1.14-.47-2.39.84-3.1,1-.55,1.91,0,2.74.61,3.35,2.42,7,2.65,10.92,1.68,2.75-.7,5.11-.42,7,2.2C445,715,449.6,714.9,454.14,714s6-4.23,6.53-8.4c.38-2.93,1.46-4.19,4.56-1.9,7,5.15,10.2,4.65,15.47-2,6.6-8.4,7.35-18.81,8.75-28.7a291.19,291.19,0,0,0,2.67-45.27,112.27,112.27,0,0,1,1.23-14.74c.72-6-.79-12.53-3-18.42-1.14-3-3.22-3.27-5.58-.36-3.3,4.06-1.51,8,0,11.75a17.87,17.87,0,0,1,1.53,6.2c.37,21.46-.36,42.88-3.59,64.13a39.7,39.7,0,0,1-6.16,16.66c-3.42,5-6.4,5-10.47.25a51,51,0,0,1-9.35-14.67c-4.1-10.63-9.57-20.91-9.12-32.9.16-4.19.38-8,2.47-11.93,11.2-21.13,17.76-44,24-66.92,5.19-19.24,10.3-38.51,13-58.32.8-5.86,2.46-11.6,3.74-17.44.56.22,1,.3,1,.42.76,10.26,3,8.89,11.28,8.28,8.49-.63,8.59-1.28,8.59-9.87,0-10.49.31-21-.12-31.49-.23-5.53,2.64-9.42,5.07-13.71.65-1.15,1.62-2.13,2.19-3.31s.48-3.38,2.37-3.39c2.26,0,2.6,2.21,3.26,3.87,3.39,8.46,4.66,17.38,6.12,26.3,1.68,10.28,4.36,20.37,6.53,30.54,2.69,12.61,5.73,25.17,7.49,38,1.67,12.18,3.92,24.27,6.43,36.32,2,9.77,3.23,19.7,5.16,29.49,2.12,10.73,3.78,21.53,6.56,32.16,4.62,17.62,8.51,35.43,12.73,53.16a6.78,6.78,0,0,1-1,5.23,54.29,54.29,0,0,1-10.61,13.76c-4.59,4.09-9.4,3.95-13.25-1-4-5.14-5.65-11.48-6.75-17.57-1.53-8.57-2.38-17.19-1.42-26.19,1.06-10,.93-20.19,3.3-30.1,1-4,2.79-7.85,2.57-12.16-.14-3-.38-6.4-3.72-6.71s-4.67,3-5.08,5.85c-1.48,10.35-2.7,20.73-4,31.11C535.31,651.57,535.87,653.34,533.72,654.92ZM477.94,719.5a7.51,7.51,0,0,0-2-6.66c-.95-1-1.19-3.1-3.17-2.36a3.63,3.63,0,0,0-2.24,3.61c0,3-.3,6.07,1,8.86.74,1.62.67,4.52,3.51,4,2.27-.42,2.68-2.7,2.92-4.73A24,24,0,0,0,477.94,719.5Zm20.29-33c1.22-2,2.08-3.36,2.91-4.75s0-2.56-.92-3.51c-.41-.42-1.41-.91-1.64-.73a3.32,3.32,0,0,0-1.3,3.47C497.61,682.61,497.83,684.22,498.23,686.54Z" transform="translate(-0.87 -5.81)"/><path d="M397.92,490.09a45.76,45.76,0,0,1,20.4,7.39c8.34,5.48,14.39,12.43,17.86,21.37,2.26,5.81,6.3,11.5,4.34,18.41,5.76,5.7,2.3,13.27,3.94,19.83,1.18,4.73,2,9.74-2,14.09-1.78,2-2.08,4.79-2.4,7.49a354.84,354.84,0,0,0-2.78,44.68c0,4.57-.73,10-6.21,12.58-2.61,1.24-2.56,4-1.7,6.16,2.49,6.19-2.26,10.31-4.15,15.16-.66,1.67-3,.88-4.31-.39a14.28,14.28,0,0,0-7-3.68c-2.23-.55-4.69-1.37-6.4,1a6.62,6.62,0,0,0-.68,7.12c3.2,6,3,12.65,2.95,18.86-.06,5.62-5.12,9.83-9.38,13.35a57.72,57.72,0,0,1-12.8,7.67c-2.52,1.15-5.57,3.57-8.63.22-1.05-1.15-2.32,0-3.53.69-3.11,1.74-6.05,1.34-9.28-.46-9.34-5.22-14.54-13.75-19.22-22.78-1-2-1.48-3.71.44-5.83a6.56,6.56,0,0,0-2.5-10.68c-3.54-1.47-4.46-3.83-5.1-7.15-5-26.13-5.71-52.57-4.71-79,.65-17.47,3.16-34.86,11.33-50.73,4.68-9.07,10.7-17.19,20.4-21.69,3.12-1.45,6.94-1.37,9.68-2.38,7.12-2.61,11.57,1.8,17,3.84,3.1,1.16,6.29.25,7.75-2,1.74-2.68.68-5.82-2.55-7.55a11.76,11.76,0,0,1-1.7-1.05c-1.51-1.18-4.81-1.24-4.37-3.42C393.17,488.57,396.07,491.27,397.92,490.09Zm26.85,152.46c0-4.5-2.32-10-4.88-15.35-4.8-10.06-13.48-9.6-20.66-2.91-10.2,9.5-15.25,22.36-22.22,34-.79,1.31-1.74,3.15-.06,4.56s3.61,2.48,5.94,1.32c1.78-.88,3.41-2.18,5.53-2.09,2.43.1,4.65-.63,4.84-3.2.22-2.83-1.92-4-4.57-4.08-2.32-.1-2.94-1-1.77-3.19,4.49-8.37,8.94-16.68,17.2-22.19,2.35-1.57,4.57-2.12,6.95-1.06s2.9,3.38,2.74,5.91a15.11,15.11,0,0,0,2.95,10.28c1.36,1.85,2.26,4.54,5.23,3.49C424.61,647.07,424.68,644.47,424.77,642.55Zm-12.66-72.37c-.13-3.23-2.27-5.28-4.59-4.63-3.34.94-6.78,6.49-6.1,9.84.76,3.73,4.62,5.79,6.82,3.48A15.3,15.3,0,0,0,412.11,570.18Zm-24.5,7.41c-.87-2.65-2-5.09-4.81-5.89-1.83-.53-6.52,4-6.32,6.11.26,2.89,1.92,5.12,5,5.19C384.88,583.08,386.51,580.52,387.61,577.59ZM358.42,668c-.77-1.66-1.61-3.26-2.25-4.93-.74-1.92,1.25-5.26-.92-5.79-2.88-.7-1,3.85-3.47,4.93-1.37.61-1.55,2.93-.43,3.93,1.65,1.47,3.47,3.1,5.93,3.18C358,669.35,358.35,668.67,358.42,668Zm59.35-120.44c-.31-2-.86-4.53-3.06-4.44s-1.81,2.69-1.79,4.44.22,4.18,2.44,4.22C417.8,551.83,417.38,549.26,417.77,547.56ZM362.89,673.29c-.54.61-1.16,1-1.31,1.54-.27,1,.38,1.58,1.3,1.73,5,.81,3.7,2.71.79,4.75-.8.56-1.36,1-.7,1.87.26.34,1,.77,1.2.64,2.09-1.21,4-3.24,3.82-5.37C367.82,676,365.19,674.68,362.89,673.29Zm4.66-18.72c-2,.41-1.26,2-1.26,3.11s-.84,3.05,1.19,3c1.48-.07,2.29-1.86,2.34-3.26A2.89,2.89,0,0,0,367.55,654.57Z" transform="translate(-0.87 -5.81)"/><path d="M385,711.59c-4.24,16.95-1.38,32.4.65,48,1,7.77,2.15,15.5,4.48,22.85,4.68,14.75,8.18,30.39,22.38,39.88,1.74,1.16,1.54,3,1.2,4.53-2.68,12.34-4.63,25-12,35.71-3.29,4.8-7.2,9.11-12.72,11.48-9.08,3.9-17.68.75-26-2.46s-12.66-10.75-16.41-18.36c-8.6-17.4-11.48-35.9-11-55.19.18-6.44.11-12.93.18-19.39,0-3,.15-6,4.8-4.08,2.6,1.09,4.34-1.15,6-2.69,6-5.51,9.71-12.64,13.56-19.58,6.29-11.32,12.33-22.79,17-34.9C378.45,714.22,381.66,713.81,385,711.59Z" transform="translate(-0.87 -5.81)"/><path d="M416.17,739.56c1.43,8.15,1.44,18.6,1.71,29,.29,11.08.36,22.18-1.42,33.2-.4,2.44-.13,5-.26,7.47-.08,1.46.2,3.35-1.49,3.93s-2.79-.81-3.85-1.85a47.34,47.34,0,0,1-11.93-20,201.94,201.94,0,0,1-9-65.26c.12-5.21,4-9.1,4.08-14.2,5.77-1.68,10-6.43,15.88-7.83,2-.48,3.64,1,3.89,3.53C414.8,717.51,416.48,727.34,416.17,739.56Z" transform="translate(-0.87 -5.81)"/><path d="M339,761.29a27,27,0,0,1,2.39-6.88c2-3.88.68-6.77-3.66-7.64-2-.41-1.93-1.3-1.93-2.64,0-9.82-1.49-19.92.36-29.37a196.87,196.87,0,0,0,2.93-26.4c.08-1.39.45-3.24,2.08-3.64,2-.49,2.09,1.64,2.89,2.79,5.16,7.41,8.16,16.5,16.8,21.19,1.89,1,3.52,2.41,5.84,2.55,3.27.2,4.15,1.74,3.09,5-5,15.64-12.92,29.81-22.1,43.33a28.32,28.32,0,0,1-4.1,4.32,2.91,2.91,0,0,1-3.64.68C338.75,763.91,339,762.59,339,761.29Zm9.27-59.19a1.53,1.53,0,0,0-1.83.85c-2.39,3.82,1.24,7,1.18,10.64,0,.76,1.47,1.34,2,.9,2.38-2,1.22-5.13,2-7.7C352.26,704.74,349.57,703.41,348.25,702.1Z" transform="translate(-0.87 -5.81)"/><path d="M381.14,396.33c0-5.49,0-11,0-16.48,0-2.47.65-4.11,3.62-4.17,9.35-.19,18.55-.52,26.77,5.54,3.27,2.41,5.6,4.74,6.71,8.71,4.07,14.7-3.13,25.17-18.34,26.29-2.42.18-4.36,1.53-6.48,2.47-6.85,3-12.27-.5-12.29-7.87,0-4.83,0-9.66,0-14.49Z" transform="translate(-0.87 -5.81)"/><path d="M381.4,487.84c0-15.1,0-28.67,0-42.25,0-.83,0-1.84.94-2.07,1.14-.27,1.79.78,2.33,1.53,4.84,6.72,9.7,13.42,14.39,20.24,3.23,4.7,6.21,9.57,10.42,16.1C397.83,475.55,389.64,480.22,381.4,487.84Z" transform="translate(-0.87 -5.81)"/><path d="M572.39,799.2c-1.17-9.53-4.66-18.71-4.26-28.44.17-3.91-.79-7.62-1.38-11.32-1.62-10.16.93-20.19.17-30.27-.08-1.16.36-2.5-.08-3.46-3.37-7.29,1.83-11.37,5.76-16,.64-.75,1.33-1.62,2.48-1,.85.44.85,1.36.82,2.2-.07,2.49.38,5.17-.37,7.44-2.33,7-.81,14.15-.77,21.18.07,11.29-.14,22.63-.74,33.84-.32,6-.47,12.12-.92,18.16a53.91,53.91,0,0,0,.5,7.58Z" transform="translate(-0.87 -5.81)"/><path d="M417.66,688.25c-.68-2.44,1.7-4.44,3.19-6.76,1.35-2.09,3-4,4.22-6.15,1.38-2.42,3.28-3,5.35-1.47,7.67,5.75,15.42,11.47,19.78,20.43.88,1.82,2,3.82.65,5.63-1.2,1.61-3.11.13-4.69.16-8.71.21-16.66-3.67-25.15-4.73C417.14,694.88,418.05,691.59,417.66,688.25Z" transform="translate(-0.87 -5.81)"/><path d="M447.88,676.94c-4.87-3.79-9.43-7.33-14-10.89a3.87,3.87,0,0,1-1.47-4.84c1.53-3.86,3-7.72,4.61-11.56a1.75,1.75,0,0,1,1.87-1.33,1.46,1.46,0,0,1,1,.9c1.67,9.19,5.92,17.55,8.51,26.45C448.46,675.91,448.17,676.25,447.88,676.94Z" transform="translate(-0.87 -5.81)"/><path d="M505.1,425.64c.17-6.8,3.58-12.56,5.53-18.79a2.09,2.09,0,0,1,2.73-1.53c1.17.42.85,1.58.86,2.56,0,2.49-1.38,4.35-2.56,6.35C509.43,418,507.28,421.84,505.1,425.64Z" transform="translate(-0.87 -5.81)"/><path d="M579.05,663.43c-.13,1.07.13,2.93-1.4,2.5-2-.57-1.43-3.06-2-4.69-.36-1-.08-2.25,1.3-1.87C578.84,659.91,578.85,661.79,579.05,663.43Z" transform="translate(-0.87 -5.81)"/><path d="M15.48,609.27c-1-9.59-.65-26.07.52-42.5,1.35-18.84,1.93-37.87,9.26-55.74a56,56,0,0,1,13.08-19.84c1.8-1.69,1.85-5.89,4.49-5.32,6.58,1.42,13.32-3.76,19.87,1.27,3.88,3,8.87,4.49,13.8,5.4,2.16.4,3.51,1.71,4.92,3.16,2.33,2.38,5.45,2.56,7.63.62,2-1.8-.47-3.75-1.49-5.57-3.49-6.29-9.12-9.24-15.76-11.24-4.23-1.27-7.69-4.49-12.07-5.76-2.11-.62-1.74-2-.25-3.32,2.12-1.87,4-4,6.23-5.74,6.18-4.8,11.39-.13,16.37,2.42,5.73,2.93,9.53,8.16,12.29,14,5,10.6,7.71,21.78,9.73,33.31A305.81,305.81,0,0,1,108.58,579a259.64,259.64,0,0,1-6.48,48.23,235.93,235.93,0,0,1-13.85,41.42c-4.52,10.37-9.09,21.15-17.71,29.21-2.29,2.14-5,5.83-6.5-.77a3.23,3.23,0,0,0-3.77-2.59c-2.13.43-2.67,2.1-3.15,4-1.58,6.31-4.33,9.13-8.15,8.08-5.66-1.54-10.75-4-14.21-9.23-5.26-7.9-7.93-16.84-10.53-25.76C19,653.5,16.75,634.91,15.48,609.27Zm63.24,10.55c0,.49,0,1-.12,1.49-.47,3.21,1,5.4,3.59,7.08,1.39.91,2.53.39,3.59-.56a6.74,6.74,0,0,0,2.14-7.19c-.79-3.4-1.3-6.86-2.85-10-5-10.36-13.41-10.25-20.23-4.15C57.22,613.26,52.12,622.16,49,632c-1.11,3.46-1.08,7,1.12,10.06,1.93,2.68,4.15,5.15,6.23,7.72,1,1.18,1.92,2.63,3.64,1.37,1.34-1,2.47-2.29,2.11-4.22a10.6,10.6,0,0,0-2.66-4.71c-2-2.46-4.32-5.08-3.52-8.47,1.87-7.89,5-15.19,12-20.07,2.56-1.78,5.45-3,8.41-1.4S79,617,78.72,619.82ZM75,572.44a5.12,5.12,0,0,0-3.92,4.75c-.21,2.51,3.94,6.7,6.55,6.45a4.71,4.71,0,0,0,4.53-4.92C82.25,576.29,77.78,572.34,75,572.44Zm-26.68,4.47c.09,2.26.06,6.05,2.76,5.79,3.14-.3,5.17-3.9,6-7.12a4,4,0,0,0-3.66-5C49.72,570.45,48.55,573.39,48.36,576.91Z" transform="translate(-0.87 -5.81)"/><path d="M133.39,838.54c-.27-2.33-2.79-1.43-3.32-3.11,1-2.11,3.1-1.35,4.78-1.67,1.42-.28,4,1,3.85-1.57-.12-1.93-2.11-3.34-4.38-3.27-7,.22-6.58.22-6.54-7,0-9.83,0-19.71,2.32-29.25,2.06-8.65,2.66-17.57,5.31-26.06,1.11-3.55.11-6.93.05-10.39,0-2-1.12-3-3.13-3s-3.67.52-4,2.78c-1,6.4-2.5,12.8-2.81,19.24-.5,10.56-4.23,20.05-8.31,29.5-.41,1-.64,2.64-2.21,2.14a3.07,3.07,0,0,1-2.13-3.53c1.57-11.67,1.1-23.32-.34-35-1.79-14.47-3-29-5.87-43.36-.22-1.13-.83-2.39.15-3.31,1.27-1.19,2.41,0,3.6.51,6.25,2.54,12.37,5.91,19.3,5.72a22.58,22.58,0,0,0,14.19-5.07c1.94-1.61,2.59-2.37,3.73,1.09,3.68,11.22,6.23,23.23,17.55,30.15,2.69,1.65,1.65,9-1.54,11.78-1.38,1.21-2.51,2.3-1.82,4.18,4.39,12,2,23.87-1.34,35.55s-5.51,23.88-10.25,35.25c-2,4.91-4.13,9.81-7.58,14-3.23,3.88-5.05,3.77-8.24.1a17.27,17.27,0,0,1-4.25-10.41C129.92,841.57,129.19,838.65,133.39,838.54Z" transform="translate(-0.87 -5.81)"/><path d="M107.25,778.57c.83,5.26,1.86,10.56,1.26,14.75-1.32,9.14.22,18.26-1.22,27.22-1,6.51-10.26,9.4-15.71,5.51-5.77-4.12-8.28-10.41-10.71-16.54-6.65-16.75-9.71-34-7.32-52.17,1.51-11.39,3.36-22.6,9.38-32.62,2.93-4.87,6.45-8.88,13.11-8,2.5.33,3.7.93,4.17,3.7,2.42,14.24,4.55,28.51,6.12,42.88C106.91,768.58,107.85,773.77,107.25,778.57Z" transform="translate(-0.87 -5.81)"/><path d="M143.86,702.7c1.44,7.21-9.46,15.59-17.18,13.51-5.64-1.52-10.75-4.29-16.24-5.91-6.77-2-9.28-6.74-10.49-12.87-.64-3.25-1.08-6.54-1.7-9.8-1.28-6.64-.93-8.21,5.46-9.9C121.51,673.05,142.93,680.06,143.86,702.7Z" transform="translate(-0.87 -5.81)"/><path d="M656.65,872.08a15.3,15.3,0,0,1-.22-8.37c.69-2.23,1.5-4.2.85-6.57-.24-.9-.29-2.3.73-2.71,7.46-3,5.47-9.5,4.53-14.55-2.32-12.4-4.28-24.68-1.66-37.25.16-.78,0-2.11,1-1.87a6.68,6.68,0,0,1,5,4.34c.7,2.13,3,4.77-.27,6.58-3.69,2-4.42,3.58,0,5.35.85.34,1.57,1,1.35,1.85-2.1,8.2.76,16.6-1,24.79C665.06,853.39,664.88,863.79,656.65,872.08Z" transform="translate(-0.87 -5.81)"/><path d="M669.72,780.71c.19,1.39,0,2.53-1,2.26-2.66-.76-4.31-2.9-5.64-5.17a1,1,0,0,1,1.3-1.42C666.63,777.44,670,777.38,669.72,780.71Z" transform="translate(-0.87 -5.81)"/><path d="M669.34,767c-3-.31-5.35-1.25-5.49-4.53-.05-1,.45-2.37,1.53-2.2C669.11,760.89,668.2,764.6,669.34,767Z" transform="translate(-0.87 -5.81)"/><path d="M664.27,792.61a6.93,6.93,0,0,1,4.4,4.76c.22.73-.84,1.31-1.31,1-1.83-1.25-4.6-1.31-5.49-3.6C661.47,793.74,662.68,792.69,664.27,792.61Z" transform="translate(-0.87 -5.81)"/><path d="M670,772.92c-.09,1-.48,2.34-1.64,1.74-1.8-.92-3.9-1.85-4.45-4.12-.22-.93.54-1.44,1.55-1.21C667.55,769.8,669.81,770,670,772.92Z" transform="translate(-0.87 -5.81)"/><path d="M667.9,790.72c-1.69-1-3.79-1.51-3.87-3.94,0-1.07.65-2,1.84-1.66,1.87.61,2.61,2.37,3.27,4C669.54,790.15,668.9,790.62,667.9,790.72Z" transform="translate(-0.87 -5.81)"/><path d="M125,252c0-4.65.09-9.3,0-13.95-.08-3.08,1.8-4.76,4.24-4.08,4.69,1.32,9.56.32,14.2,1.85,8.88,2.92,13.28,10.65,10.93,19.77-3.09,12-14,18.66-25.89,15.93-3.34-.77-3.81-3.27-3.8-6.1V252Z" transform="translate(-0.87 -5.81)"/><path d="M165.66,391.82c-.06-2.74-.08-6.3,1.66-9.79,1.25-2.49,2.06-4.76,5.37-5a4.31,4.31,0,0,0,3.49-3.25c.77-3,3.37-3.44,5.5-4.55,1.93-1,3-.37,3.51,1.83,2,8,4.15,16,6.28,24,1.36,5.12,2.65,10.27,4.23,15.33.77,2.45.11,3.26-2.18,4.44-9.3,4.81-27.43-4.38-27.85-17.56C165.62,395.73,165.66,394.23,165.66,391.82Z" transform="translate(-0.87 -5.81)"/><path d="M202.16,409.51c-4.63-12.24-6.5-25.26-10.26-37.75-.48-1.61-.31-3.85,2.37-2.77,8.3,3.35,13.85,9.73,15.4,18.24,1.46,8,.76,16.35-6.76,22.08A3,3,0,0,1,202.16,409.51Z" transform="translate(-0.87 -5.81)"/><path d="M162.63,365.8c-.38-6.24,1.05-11.38,1.53-16.61.17-1.92,1.09-3.86,3.35-3.58,3.37.41,7.46-2.11,10,2.08a35.72,35.72,0,0,1,2,4.56c1.27,3,2.76,5.2-2.79,6.16C171.91,359.23,167.16,361.94,162.63,365.8Z" transform="translate(-0.87 -5.81)"/><path d="M335,290.12c-3.65,0-7.3-.15-10.94.05-2.94.15-3.63-.92-2.55-3.5,4-9.57,8-19.15,12-28.71a3.85,3.85,0,0,1,2.8-2.6c1.6-.23,1.67,1.34,2.08,2.33,3.5,8.56,7.06,17.1,10.4,25.72,2.33,6,1.86,6.59-4.37,6.64-1.66,0-3.32,0-5,0H335Z" transform="translate(-0.87 -5.81)"/><path d="M736.24,643.41c.54,12,.12,23.75-2.34,35.35a33.88,33.88,0,0,1-8.51,16.6c-7.43,7.93-21.56,7.72-29.45-2.64-9.66-12.68-10.55-27.24-9.9-42.21.19-4.46,1-8.9,1.32-13.36.4-4.78,2-5.75,5.88-2.82,6.69,5.09,14,5.31,21.83,3.82,4-.75,6.77-4.34,11.91-3,2.84.72,3.75-4.25,3.34-7.58-.14-1.11-.79-2.47.84-2.92a1.86,1.86,0,0,1,2.38,1.9C733,632.47,737.1,637.65,736.24,643.41Z" transform="translate(-0.87 -5.81)"/><path d="M700.06,544.69c-.38,3.45-4.12,6.44.62,8.32,1.21.47,2.23.87,3.05-.37,3.14-4.7,7.4-3.1,11.12-1.5a10.12,10.12,0,0,1,6.37,9.8c0,4.06-1.21,8.06,0,12.19.75,2.62,1.44,5.15,4.64,4.64,2.91-.46,3.23-3.23,2.95-5.55-.57-4.83-1.5-9.62-2.5-15.79,4.25,3,5.1,6.46,6,9.58a71.27,71.27,0,0,1,1.08,32.54c-.22,1.23-.21,3-1.73,3.36-1.69.43-2-1.45-2.85-2.35-5.37-5.65-10.74-7.79-19-3.17-5.69,3.17-12.65,4.11-16.71,10-.75,1.08-1.64,2.07-2.42,3.14s-.64,3.4-2.82,2.71c-1.68-.54-1.46-2.42-1.68-3.86-2.72-17.73-.64-35,5.17-51.86A23.23,23.23,0,0,1,700.06,544.69Z" transform="translate(-0.87 -5.81)"/><path d="M770.65,584c-.5,5,4.23,8.66,2.48,14.36-1.1,3.59.18,8.23,1.35,12.12,1.33,4.4.1,8.94,1.48,13.27.22.68-.52,2-1.19,2.56-1,.88-1.78-.19-2.51-.79A79.89,79.89,0,0,0,750,612.42c-3.09-1.22-2.47-2.39-.83-4.25C756.22,600.15,763.66,592.48,770.65,584Z" transform="translate(-0.87 -5.81)"/><path d="M717.6,622.52c.19,5.61-3.08,8.68-10.4,8.82-6.69.13-14.64-4.46-14.69-9.08,0-4,8-14.13,11.35-14.16C710.61,608,718.72,614.93,717.6,622.52Z" transform="translate(-0.87 -5.81)"/><path d="M727,614.26a2.67,2.67,0,0,1-2.44-1.4c-.93-1.35-1.82-2.73-2.64-4.15s-3.48-3-2.1-4.45c1.84-2,3.25,1.08,4.85,1.83,2.22,1,2.95,3.41,3.68,5.61C728.79,612.94,728.59,614,727,614.26Z" transform="translate(-0.87 -5.81)"/><path d="M212.63,184.78c-1-2.3-1.82-4.25-2.76-6.12-.35-.68-.93-1.57-1.92-1.13s-.92,1.33-.48,2.1c1.21,2.13,3.22,4.69,1.34,6.68a11.73,11.73,0,0,1-10.12,3.33c-16.17-2.22-23.13-13.24-20.47-28,1.72-9.56,9.25-15.47,19-17,7.38-1.17,14.17,1.41,19.37,6.78,6.53,6.73,6.43,21,.2,28.73C215.56,181.66,214.18,183.05,212.63,184.78Z" transform="translate(-0.87 -5.81)"/><path d="M715.12,187.8c1.94,3.4,4.38,5.94.73,9.54C715.14,194.15,713.51,191.59,715.12,187.8Z" transform="translate(-0.87 -5.81)"/></g></g></svg>