<svg xmlns="http://www.w3.org/2000/svg" viewBox="0 0 751.01 842.38"><title>defend</title><g id="Layer_2" data-name="Layer 2"><g id="Layer_1-2" data-name="Layer 1"><path d="M759,1c-2.87,3.51-7.22,6.25-6.61,11.66.49,4.3,1.29,8.55,1.85,12.84,1.38,10.55,1.85,20.9-.92,31.54a45,45,0,0,0-.57,17.73c.26,1.68.7,3.94-1.18,5.06-2.17,1.28-3.22-.6-4.37-2.06a2,2,0,0,0-1.73-.52c-5.84,2-12.25,2.34-17.31,6.75-3.1,2.71-7,4.65-11.44,2.15a7.34,7.34,0,0,0-4.84-.79c-1.82.28-2.69,1-1.68,3,3.82,7.9,8.16,15.64,11,23.89,2,5.8,5,11.56,5,18,0,3.69,1.89,6.91,1.75,10.71-.29,8.23-2.45,15.71-7.25,22.37-1.85,2.56-1.43,5.16-.3,7.56,1.58,3.36,1.34,6.82,1.34,10.29,0,1.44.2,3.27-1.85,3.56s-3-1.07-3.59-2.78c-.77-2.2-1.52-4.4-2.41-6.55-.36-.89-.89-2-1.65-2.35-1.22-.52-1.53.85-2,1.7-.52,1-.89,2.41-2.41,2s-1.2-2.12-1.64-3.32c-4.13-11.19-3.13-22.85-3.34-34.42,0-1.7-.1-4.38-2.52-4-1.95.31-1.33,2.93-1,4.36,3,12.64,1.93,25.48,2.38,38.26.2,5.74,1.58,11.43,1.07,17.48-.66-.29-1.43-.62-1.43-.64,3.14-7.68-4.73-12.82-4.53-19.95.19-7-.69-14-.75-20.95,0-4.74-2.64-8.89-1.87-14.12-4.21,3.22-5.51,7.94-3.82,11.56,2,4.34,3.27,8.62.12,13.15-1.93,2.77-.7,6.17-1,9.28-.16,2-.47,3.93-.78,6.43-3.78-1.67-3.73-4.75-4-7.57-.2-2.19-.84-3.49-3-1.66a7.35,7.35,0,0,1-4.58,1.61c-1.71.13-3.06,1.06-3.07,2.72,0,5.73-3.42,11.29-.84,17.13,1.34,3,.86,6.43,1.85,10.66,1.67-3.32,2.89-5.4,6.45-5,2.13.21,1.23-3,1.9-4.59.49-1.15.42-3,2.31-2.56,1.56.39.76,1.94.71,3-.15,3.71-.79,7.36,4.73,8.12,2.37.33,3.21,3.4,3.51,5.61a181.13,181.13,0,0,1,1.82,18.58c.41,11.83,2.76,23.36,4.52,35a160.9,160.9,0,0,1,1.73,16.81c.35,7.62,0,15.2,1.77,22.79,1.27,5.46-.43,6.8-5.91,7.21-14.19,1-28.24,2.62-42.06,6.45A48.45,48.45,0,0,1,641,316c-6.71-.41-13.12,1-19.51,3.11a60.08,60.08,0,0,1-10.22,1.9c-12.43,1.68-24.92,2.72-37.34,4.49-12.26,1.74-24.12,5.36-36.71,5.83-13.88.52-27.34,5.08-41,7.68-7.28,1.38-14.84,1.4-22.18,2.79-6,1.13-12.19,1.49-18.1,3.29-7.07,2.16-14.51,1.62-21.72,2.93-13.23,2.41-26.49,4.66-39.8,6.53-10.35,1.46-20.85,1.8-31.17,3.39-22.67,3.48-45.19,8-67.92,11-11.32,1.49-22.61,3.37-34,4.45a118.11,118.11,0,0,0-23,4c-4.61,1.39-9.56.49-14.36,1.43-11.35,2.23-22.74,4.65-34.24,5.69-17,1.55-33.65,5.48-50.51,7.95-5.41.8-10.89.5-16.37,1.29-13.24,1.91-26.16,5.63-39.71,6-8.66.24-17.28,2.58-25.88,4.18-4.28.8-6.07-.49-6.57-4.94-1.81-16.38-3.91-32.72-6.11-49.05-1.15-8.48-1.85-17.16-2.65-25.74-.64-6.85-.26-13.89-2.35-20.62-1.23-3.95.5-6.38,4.69-6.91,10.2-1.28,20.51-2,30.59-3.88,11.41-2.15,22.81-4.68,34.33-5.57,12.3-1,24.14-4.22,36.31-5.68,16.45-2,33-3.62,49.25-6.73,19.24-3.69,38.76-5.09,58-8.31q19.06-3.18,38.16-6.2c2.29-.36,4.65-.21,7-.34.84,0,1.74-.22,2-1.14s-.62-1.42-1.08-2.06a3.76,3.76,0,0,0-3.48-1.59c-5.74.45-11.55-.38-17,2.81-3.6,2.11-8.1,1.43-12.25,1.36-1.66,0-3.38-.6-5-.3-5.72,1.1-8.49-1.69-9.79-6.86,8.65,3.13,17.16,2.2,25.43-.86,4.66-1.73,9.55-1.1,14.24-2.29,2.5-.63,4.77-1.25,6.58-3.17a5.22,5.22,0,0,1,4.93-1.86c2,.4,4.4,1,5.11,2.71,1.16,2.82-1.88,4.66-2.81,7.06-.52,1.31-3.16,1.6-2.32,3.37s3.06.94,4.53.73c9.66-1.34,19.25-3.26,28.95-4.27,11.74-1.22,23.24-3.88,35-5.13,10.36-1.1,20.65-2.62,30.92-4.41,4.19-.73,8.25-2.4,12.63-2.22,2,.08,3.85-.41,4.8-1.78-11.77-3.1-24.39-.1-36.93-4.44,3-2.09,5.75-1.44,8.27-1.48,6.33-.1,12.66.18,19,0,1.77,0,4.41,1.23,5.25-1.32.75-2.3,1.34-5.24-.64-7.14-2.38-2.29-2.24-4.94-2.42-7.76-.53-8.35-4.45-15.46-8.58-22.45-.8-1.35-1.44-3-3.63-.76-1.74,1.79-2.5-1.11-2.95-2-2.82-5.58-6.23-10.91-7.75-17.09-1.46-5.9-4.91-11.29-4.25-17.78.17-1.76-1-3.32-3.24-1.58-7.72,6-17.11,6.77-26.24,8.37-1.8.32-3.8.23-5.36,1-7.32,3.65-11.67,2-13-8-2.22,1-3.92,3.06-4.1,4.69-.59,5.46-5.67,6.37-8.39,9.56-4.65,5.44-12.27,5.6-17.16,10.71-2.13,2.22-6.07,2.74-9.07,4.6-2.78,1.72-5.42,3.61-8,5.56-7.9,6-15.62,12.26-23.88,17.82-2.57,1.73-4.15,5.13-5.77,8a3.57,3.57,0,0,0,1.13,4.91,5.89,5.89,0,0,0,7-.6,54.81,54.81,0,0,1,13.57-8.81c1.28-.62,2.63-1.47,3.55-.17,1.07,1.52-.95,2-1.53,3-2.28,3.88-6.52,5.32-9.49,8.27-1.71,1.69-1.77,2.55,1.07,3a172.86,172.86,0,0,0,31.34,1.31q5.49-.22,11-.15a18.89,18.89,0,0,0,9-2.11c5.62-2.79,12.09-1.69,18.15-2.65a59,59,0,0,1,10.48-.22c4.65.1,9.22.52,13.42-2.45,1.85-1.31,4.49-1,6.84-1a267.34,267.34,0,0,1,31.86,2.53c-11.3,1.19-21.95.91-32.44,2.63a27.49,27.49,0,0,0-7.58,2.2,29.36,29.36,0,0,1-12.63,2.4c-9.95.05-19.88-.54-29.75,2-12.91,3.36-26.23.38-39.33,1.68-6.09.6-12.2,1-18.23-1.31-2.93-1.12-5.42,1.36-7.42,3.21-4.18,3.89-8.53,7.7-11.1,13.4-1.68-4.88,1.37-14.13,5.83-16.29,4.12-2,3.54-5,2.52-7.83-3.07-8.49-2-12.11,5.72-17.34,1.79-1.2,2.52-3.27,4.07-4.8A129.61,129.61,0,0,1,293,184.52c7.3-4.28,11.54-10.2,16.56-16.13,2.31-2.73,4.88-6,9.21-6.32a3.24,3.24,0,0,0,2.2-1c5.46-8,16.56-8.35,22-16.38.86-1.28,2.16-2.57,4-.48,1.59,1.79,3-.24,4.26-1.05,1.53-1,3.1-1.63,4.56-.27,1.71,1.6.47,3.06-.77,4.22a9.82,9.82,0,0,0-2,3.39c-1,2.09-4.33,3.82-1.93,6.38,2.2,2.33,5.76,1.25,8,.09,5.79-3,12.58-4.13,17.66-7.67,3.16-2.2,7.9-1.62,9.86-5.93,2-4.51.77-8-4.07-9.32a2.83,2.83,0,0,0-.5-.05c-1.06-.15-2.48-1.25-2-1.63,3.46-3-.56-7.35,1.87-10,1.08-1.16,3.15.85,4.62,2,3.54,2.85,4.46,7.31,7,10.81,2.13,3,4,3.66,6.62.81.65-.7,1.47-1.65,2.29-1.75,3.88-.45,7.92-.35,10.07-4.55,7.15.89,13.13-3.6,19.51-5.35,8.33-2.29,17.41-1.45,25.23-5.94,2.13-1.22,5.2-.8,7.84-1.12,5.87-.69,7.27-1.92,7.15-7.92-.3-15.31-.13-30.63-.46-45.95-.21-9.84-.53-20,2.36-29.71.76-2.59,2.32-4.77,3.46-7.12,2.28-4.67.92-8.81-.64-13a5.54,5.54,0,0,0-5.65-3.21c-6.33.5-8.92-.73-11.55-6.58A17,17,0,0,1,459,1h31c-1,2.14-.75,5.57-3.85,5.75-3.37.19-4.4,1.27-3.75,4.51s2.89,4.2,5.81,4c3.68-.21,7.08-1.58,10.54-2.69,1.79-.58,2.42-2.14,2.56-3.89A14,14,0,0,0,500,1h6c.45,4.1.91,8.2,1.34,12.31.1,1-.15,2.15,1,2.51s1.7-.71,2.35-1.45c3.56-4,5.8-8.74,8.28-13.37h32a220.5,220.5,0,0,0,13.26,34.07c4,8.12,5.48,17.13,9.32,25.22,8.63,18.2,14.24,37.62,23.25,55.67,4.91,9.86,8.72,20.27,13.09,30.41,1,2.2,2.27,3.36,4.35.87a35.44,35.44,0,0,1,3.85-3.9c1-.93,2.4-1.48,3.6-.39s.8,2.22-.27,3.43a27.15,27.15,0,0,0-2.63,4.19c-.44.76-.66,1.69.16,2.23s1.52,0,2-.81c2-3.14,4.91-5.36,7.5-7.92,2.07-2,4.46-3.8,6.82-1.19,2.21,2.44-.33,4.09-2.11,5.59a5.92,5.92,0,0,0-.89,1.23c6.38-.58,6.33-.56,4.71-5.73-3.91-12.56-11.07-23.68-15.71-36a171.07,171.07,0,0,0-11.14-23.89C602.72,71,597.79,56.43,591.6,42.58S580,14.82,574,1h20c-4.6,5.54-9.77,11-3.61,19.1,1.56-4.29,4.47-7.56,7.15-11C599.35,6.74,600.91,4.15,601,1h29c-6.13,12.14-12.58,24.08-21.93,34.13-1.45,1.56-2.06,3.7-4.1,4.88-5.14,3-5.36,4.59-2.06,9.77a23.71,23.71,0,0,1,1.94,4c3.19,8.14,5.83,16.53,9.63,24.37,3.23,6.68,7.29,13,8.73,20.37,1.93,9.94,9.21,17.74,11,27.84,1-6.47,2.37-13,2.38-19.21,0-16.6,2.46-33,3.25-49.47.27-5.51.67-11-.73-16.38-1.18-4.51-.55-8.84-.31-13.33.49-9.16,2.87-18,4.23-27h14a13.16,13.16,0,0,1,1.24,5.31c.71,6.48.37,13,.46,19.46.29,22.6,3.94,45.06,3.11,67.71a7.94,7.94,0,0,0,.32,2,62.22,62.22,0,0,1,.09,23.79c-.9,5.29-2.26,10.37,1.23,15.75,4.6,7.09,8.46,14.72,10.09,23.24.42,2.15,2.22,1.34,3.66.79,2.53-1,5.1-1.9,7.43.4,3,2.9,4,1,4.4-1.83a8,8,0,0,0-1.16-6.2c-2.45-3.42-3-6.92-.26-10.56a8.1,8.1,0,0,0,1.27-5.26c0-1.28-.31-2.46-2-2-4.48,1.33-4.08-1.82-4.2-4.51-.06-1.65.47-3.6-.22-4.92-3.63-7-3.69-14.67-4.73-22.16-.34-2.45.16-5.41-1.05-7.28-3.68-5.68-3.53-11.76-3.19-18,0-1,.34-2.33-.17-2.88-3.65-4-2.27-8.82-2.36-13.36-.07-3.16.41-6.39-1.1-9.31-2.41-4.66-2.17-9.65-2.13-14.64,0-1.82.42-3.89-.28-5.42C662,21.51,664.76,10.67,661,1h12c.08,5.76,4.15,11,2.45,16.94-1.49,5.18,2.74,11.5-3.17,15.74.89,5.17-1.34,10.21-.58,15.36.21,1.38.53,2.87,2.89,3.34.32-4.26-2.34-7.81-1.83-11.78.28-2.23-.14-4.75,3.48-3.32,1.35.53,1.92-.28,1.85-1.43C677.58,27,679.59,18,677,9.24c-.42-1.39-.62-2.61.56-3.61s2.41-.6,3.73-.1c1,.37,1.34,2.07,2.9,1.29.29-1.93.57-3.87.86-5.82h8c1,2.34-.59,5.65,2.69,7.55,1.2-2.7.13-5.16.31-7.55h23c0,.81.26,1.85-.13,2.41-4.88,6.87-1.6,14.46-1.9,21.71,0,1.07.27,2.94,1.72,3.32,2,.53,2.3-1.62,3-2.72,2.57-3.85,2.23-8.59,3.58-12.84.8-2.52,1.49-5.25,4.34-5.44C734,7.15,735.07,4.31,736,1h7c-2.34,4.24-1.85,9-2.52,13.58-.18,1.22-.84,3.07.8,3.48,1.93.49,2.1-1.61,2.71-2.88,2.28-4.76,3.61-10,7-14.18ZM533.86,191.37c-.35-5.62-1.53-11.06-.09-16.68.92-3.61,1.62-7.68.9-11.23a70.9,70.9,0,0,1-1.27-20.83c.2-2.31-.79-3-2.75-3.13a23.8,23.8,0,0,1-3.49-.08c-4.72-1-5.43,1.29-5.55,5.45-.2,6.89,2.58,12.94,4.48,19.22,3.2,10.59,4.41,21.43,4.85,32.39,0,1.09-.2,1.92.94,2.38a2.13,2.13,0,0,0,2.58-.93c.77-.93.52-3.18,2.36-2.63s1.51,2.73,1.82,4.3a11.49,11.49,0,0,1-.91,6.83c-.71,1.67-1.79,2.84-3.75,2.71a3.86,3.86,0,0,1-3.79-3.39,110.74,110.74,0,0,1-2.1-12.73c-.66-9.19-4.49-17.51-6.63-26.28-1.86-7.61-5.57-14.89-4.67-23,.45-4.1-1.27-4.2-4.82-4.47-6.68-.5-11.21,4.23-17,5.87a9.09,9.09,0,0,0-6.78,8.11c-1.62,15.23-1.12,30.78-6,45.58-.43,1.3.87,4.1-1.94,3.55-1.83-.37-1-2.63-.56-3.91,1.86-4.86,1.44-9.79,1-14.79a31.94,31.94,0,0,1,1.48-13.33c2.19-6.14,1.6-12.5,1.48-18.82-.05-2.35-.69-4.47-3.69-4.17-2.66.26-5.92.55-5.79,4.14.43,11.73-1.84,23.53,1.2,35.23,1.11,4.27,1.93,8.73,1.2,13.34-.7,4.41,2.25,8.56,4.91,10.48,3.35,2.42,3.67,4.68,3.38,7.84-.4,4.47,3.29,7.1,4.81,10.7.88,2.06,3.81.11,5.55.89,3.49,1.56,6.55-.57,9.71-1,7.25-1,14.79-.64,21.72-2.38,7.24-1.82,14.61-3.07,21.84-4.18,18.7-2.87,37.48-5.21,56.12-8.57,5.81-1.05,11.81-3.28,17.76-1.89,6.66,1.56,12.85,0,19.09-1.47,8.41-2,16.57-5,25.25-5.82,3.15-.29,3.91-2.08,4.14-5.06.55-7.34-1.15-14.52-1.11-21.8,0-5.47,2.25-11.29-2.85-15.88-.48-.43-.34-1.59-.42-2.42-.51-5.76-2.91-10.91-6-15.56a30.49,30.49,0,0,1-5.48-18.78c.82-16.49.14-33-.39-49.44-.22-6.86-.43-6.68-7.17-6.34-3.56.17-5.14,1.3-4.79,5.1a93.3,93.3,0,0,1,.19,11.47c-.41,13.15-.5,26.31-.92,39.46s4.15,25.12,12,35.63c3.53,4.69,5.13,10.14,2.7,14.92a41.86,41.86,0,0,0-3.89,13.15c-.31,2-1.21,4-3.37,3.38s-1.25-2.65-.52-4.14c.44-.89,1.27-1.89,0-2.53s-1.41.86-2,1.53c-3.46,3.76-6.2,8.21-10.94,11.11,1.93,1.39,3.3,1.39,4.63-.22.66-.79,1.64-1.49,2.52-.51s-.13,1.7-.86,2.39a7.09,7.09,0,0,0-1.46,1.9c-1.69,3.28-3.82,3.75-6.51,1.14-.44-.43-1.15-1.34-1.24-1.28-6.26,4.13-5-2.55-6-4.62-3.65-7.43-3.38-7.25-11.92-5.92a61.16,61.16,0,0,1-18.42.4c-11.26-1.71-14.45-6.23-12-16.71.72-3.08-.64-4.81-3.32-5.75-2.5-.88-5.09-1.51-7.34-3-3-2-6.19-2.32-9.91-2.06a44,44,0,0,1-21.39-3.43c-1.85-.83-3.87-2.78-3-4.65,1.73-3.86-.23-8.67,3.83-12,2.31-1.89.77-5-.29-7.41-.66-1.51-2-3.15-3.66-3.06-2.7.15-2.71,3-3.7,4.78a6.34,6.34,0,0,0-.51,4.75c1.48,6.5-.51,13.27,2.6,19.86,2.6,5.52-2.43,11-2.27,16.95C535.83,183.72,536.53,187.84,533.86,191.37Zm-70.7,35.26c-11.43.46-22.34-3.43-33.64-4.12-1.48-.09-3.88-.56-3.56-2.59.28-1.8,2.48-1.64,4.18-1.73,9.34-.55,18.35,2.57,27.69,2.39,3.26-.06,6.63-.54,9.92.46,4.72,1.43,6.05.67,6-4.33s1.61-9.77-.77-15.55c-2.5-6.07-2.52-13.7-3.6-20.63-1.59-10.09-1.23-20.63-.44-30.88.5-6.4-2.26-13.37,2.4-19.32a1.83,1.83,0,0,0-.6-2.64,2.48,2.48,0,0,0-2.82.3,15.84,15.84,0,0,1-6.24,3c-11.44,1.82-22.21,6.22-33.54,8.6-4.41.93-8.34,4.44-13.44,3.82-.45-.05-1.15.67-1.48,1.19-1.74,2.77-4.25,3.31-7.33,3.11-3.35-.22-9.23,5-8.77,8,.85,5.55,1.23,11.21,3.4,16.51,4.89,11.93,12.51,22.78,15,35.65,1.25,6.55,6.19,11.9,3.66,19.92-2.37,7.53.53,10.41,6.22,10.12,7.8-.39,15.46,1.89,23.46-.28s16.24-2.46,24.39-3.55c1.81-.24,2.2-1.31,1.7-2.82-.91-2.77-2.69-4.57-5.77-4.66C467.15,226.59,465.15,226.63,463.16,226.63ZM572.5,115.43c3,8.72,4.21,16.34-2.16,23.38a20.9,20.9,0,0,0-3.3,6.06c-.94,2.21-.93,3.74,1.6,5.78A51.4,51.4,0,0,0,590,161.21c4.54,1,7.8,4,12,5.13,2.53.65,5.25.31,7.09,2.9a3,3,0,0,0,4.1.45c1.36-.84.43-2.09,0-3.12-2-5.2-3.31-10.91-6.32-15.46-4-6-6.33-12.73-9.12-19.16-4.43-10.22-10-19.95-13-30.87-2.21-7.94-6.85-15.17-9.47-23C573,71.13,569,65,567.21,57.88c-1.24-5-3.52-6.22-8.25-3.9-2,1-3.94,2.17-6.12,1.84q-13.27-2-26.59-3.57c-5.1-.61-5,1.58-4,4.36,3.91,11.43,3.45,23.59,6.28,35.2,1.06,4.36,2.87,5.84,7.27,5s9-1.52,13.21.66c1.61.83,4.78,1.34,4,3.51-1,2.83-2.15-1.78-3.73-.68-.25.17-.65.12-1,.22a23.24,23.24,0,0,1-12.81,0c-2.5-.64-3.7.22-3.88,2.91-.37,5.47,1.95,10.39,3.36,15.41.45,1.57,1.53,4.22,3.91,5.38,7.87,3.84,11.55,13.8,7.72,21.42-1.25,2.5-3.21,6.24.48,9.1,6.38,5,14,2.26,21,3.54.55.11,1.23-.5,1.22-1.31s-.81-.83-1.36-1.14c-7.13-4.08-8.72-12.28-2.3-17.49,6.16-5,6.94-10.79,6.25-17.67C571.78,119.29,571.2,117.78,572.5,115.43Zm-87.62-4c4-3,3.78-2.91,2.83-6.71-1.34-5.34-1-10.88-3.72-16.15-1.65-3.26-.67-7.84-.94-11.82-.12-1.79-.94-3.87,1.73-4.42a3,3,0,0,1,3.78,3.45c-1,8.36,4,15.75,3.57,24-.14,2.47,1.52,3.94,3.38,5.13.74.48,2.23.1,2.21-.4-.12-2.7,4-4.14,2.24-7-1.19-1.94-1.81-3.52-.19-5.38.72-.83,1.56-1.4,2.54-.52,1.78,1.6,1.38,3.58.81,5.56a4.27,4.27,0,0,0-.13.48c-.24,1.21-.38,2.46,1.23,2.73,1.22.19,1.62-.82,2-1.77,1.82-4.21,1.11-8.53.55-12.81-.44-3.45-4.52-.93-5.46-4.62a16.93,16.93,0,0,1-.8,3.18c-.77,1.27,1.2,4-1.45,3.94-1.86,0-2-2.35-2.15-4-.42-5.46-.84-10.92-1.2-16.39-.13-2.06.29-5,2.41-4.72,3,.42,7.78-2.34,8.46,3.54,2.05-.63,1.89-3.67,4-3.05s1.93,2.91,2.29,4.65a10.73,10.73,0,0,1,.19,3.48c-.82,6.62.59,13.3-.54,19.93-.4,2.34-.32,5.06,3.42,4.38,2.59-.47,7.09,1.48,5.68-4.41-2.45-10.28-3.25-20.85-5.32-31.22-2-9.92-1.19-10.08-11-12.27-.32-.07-.67,0-1-.12-2.86-.89-3.47-3.62-1.26-5.67.79-.74,2.4-.42,2.59-2-3.71-1.63-7.06,1-10.67,1-2-.05-4.56,3.48-5.93.48-1.1-2.4,1.64-5,3.32-7.18.56-.72,1.79-.86,2.58-1.46,3.74-2.84,5.82-6.92,8.35-10.94-5.09,3.58-10.61,3-16.05,2.91-1.65,0-3.73-.28-4.12,1.85-1.45,8-5.91,15-5.82,23.53.2,18.93-.2,37.87-.36,56.8,0,1.88,0,3.73,2.23,4.52,3.94,1.41,4.59,3.59,1.44,6.54-.91.85-1.26,1.57,0,2.29,2,1.13,8.34-1.17,9.1-3.39C491,113.46,488.6,112.2,484.88,111.46ZM230.3,313.38c.18,4,.39,6.95.43,9.94,0,1.65.07,3.69-1.95,4.15s-2.16-1.74-2.66-3q-5.42-13.09-10.62-26.29c-1-2.55-1.87-5.29-5.52-4.1-3.37,1.09-7.6.61-7.55,6.54.09,11.66,1.41,23.27,1.27,34.88-.08,7.45,3.31,14.71.93,22.2-.3.94.28,1.56,1.14,1.9,2.42.92,8.08-2.79,8-5.39-.16-9.15-.43-18.29-.61-27.44,0-1.51-1.24-3.74,1.13-4.22s2.88,1.67,3.57,3.42c3.35,8.51,7,16.92,10.08,25.5,2,5.46,6.16,3.32,9.58,3.22,3.62-.1,2.44-3.34,2.53-5.43.65-15.46-2.57-30.75-2-46.2.08-2.28-2-4.25-.64-6.76.93-1.76,1.38-4.16-.45-5.47s-3.82.36-5.73.75c-2.51.52-2.1,2.54-2.14,4.37C229,302.16,231.21,308.15,230.3,313.38Zm116.59-6.73c0,6,.26,10.55-.08,15-.35,4.68,1.14,9.15,1.07,13.75,0,1.92.76,2.71,2.65,2.72,5.25,0,7.9-2.62,7.85-7.95s.07-10.66-.28-16c-.33-5.12,2.44-6.21,6.72-6.33s7.17.81,7,6c-.21,5.82-.15,11.65-.1,17.47,0,1.47-.63,3.56,2.34,3.18,7.05-.9,9.33-3.25,9.14-10.4-.44-16.62-1-33.23-1.58-49.84-.08-2.25,1-5.3-3.23-5.3-4.82,0-8,2-8.08,5.8-.11,5.49-.07,11,0,16.48,0,5.26-3.84,5.45-7.55,5.9-4,.5-5.95-1.37-6.06-5.29-.13-5-.2-10-.31-15,0-1.7.93-4.35-1.85-4.22-2.55.13-6.41-.1-7.26,2.58s-2.15,6-1.49,8.63C347.78,292,346.11,300.12,346.89,306.65ZM68.21,337.19c.64,11.48,1.33,22.92,1.91,34.37.39,7.71.33,7.71,7.76,6.65.66-.09,1.35,0,2-.09C85.57,377,91.22,375,95,370.83c6.92-7.56,7.57-17.66,7.41-27.22-.11-6.47-2.57-12.82-5.22-19-3.42-8.06-13.92-12.4-20.71-11.59-9.46,1.13-9.35,1.32-9.58,11C66.79,328.52,70,332.58,68.21,337.19ZM639.29,260a53.27,53.27,0,0,0,3.21,20.76c1.8,5.06,9,11.55,13.63,11.93,7.13.57,14.66-3.63,17.34-10.12,6.3-15.3,5.83-30.82-.67-45.72-3.62-8.32-8.38-12.79-16.66-11.23-5.36,1-9.16,4.48-12,9C639.57,242.07,639.36,250.37,639.29,260Zm-115,6.18h.16c0-5,0-10,0-15,0-2.15-.05-4.18-3-4-2.62.17-6.12-.18-6.44,3.23-.51,5.44-2.75,10.8.19,16.53,1.92,3.73-1.16,7.41-5.61,8.13-6.95,1.11-8.65.18-9-5.4-.31-4.47-.18-9-.49-13.46-.14-2.06.62-5.68-2.84-5-2.53.5-6.63-.26-6.72,5.25C490.14,275.31,492,294,492,312.8c0,1.5-.06,2.95,2,3.38,4.16.85,8-1.92,8.06-6.17,0-6.15-.21-12.3-.14-18.44,0-3.44,4.39-6.45,9.15-6.23,3.67.17,4.35,2.88,4.45,6,.19,5.79-.14,11.55,1,17.37.57,3,1.6,3,3.77,2.83,5.5-.31,6.32-1.14,6-6.64Q525.31,285.53,524.27,266.17ZM250.35,336.85q0,4.48,0,9c0,6.77.13,7.25,6.52,5.77,6.61-1.54,13.83-2,18.35-8.6,8.59-12.49,8.89-26,3.72-39.35-5.66-14.61-9.38-17-24-16.33-4.07.19-7,1.29-6.54,6.37.31,3.12-.1,6.31,0,9.45C248.72,314.38,250.51,325.56,250.35,336.85Zm203.83-46.67c-.08-7-.32-13,2-18.75,2.89-7.14,7.39-8.34,13-3,3.34,3.19,5.54-.33,7.86-1.42,2.5-1.17.51-3.23-.41-4.59-7.09-10.41-22.11-9.12-27.52,2.77-7.07,15.53-5.64,31.62,0,47.09,2,5.46,7.44,9.37,14.32,9,6.36-.31,11.53-2.74,14.62-8.6,3.69-7,3.54-14.73,4-22.26s.11-7.49-7.47-5.55a31.06,31.06,0,0,1-4.45.47c-1.75.17-4.23-.25-3.77,2.58s-2.17,7,2.17,8.24c3.89,1.13,4,3.73,3.69,6.51-.4,3.87-2.41,7.13-6.25,8.25a6.84,6.84,0,0,1-8.19-3.1C454,302,453.8,295.65,454.18,290.18Zm-281.88,35c-1,11.57,1.84,23.22,1.47,35-.06,1.92.48,3.24,2.79,3.12,5.29-.26,10.73.18,15.77-1.58,3.85-1.34,3.7-5.19,3.38-8.45-.36-3.69-3-1.14-4.64-1.26-2.55-.2-5.86.91-6.51-2.8-.69-3.89-1.25-8.06.05-11.84,1-3,4.78-2.4,7.25-3.54.15-.07.36,0,.49-.09,3.84-2.14,2-5.63,1.57-8.4-.34-2.49-2.74-2.56-4.76-1.46-2.61,1.43-4.57.64-5.88-1.71-3.37-6-.5-12.26,6.2-13.75,5.34-1.2,2.93-5.55,3.22-8.6.32-3.37-2.43-3-4.57-2.68-3.78.51-7.53,1.33-11.32,1.77-5.09.59-6.44,4.59-5.67,8.16C172.44,313,171.41,319,172.3,325.15Zm-47.86-19c-4.44-.75-8.42,1.72-12.78,1.77-2.11,0-2.55,2-2.4,3.74,1.1,13.23-.1,26.53,1.55,39.76a148.17,148.17,0,0,1,.88,19.66c0,2.65,1.28,2.13,2.72,2.15,4.35.08,8.35-1.91,12.73-2,5.57-.1,6-1.2,5.81-6.63-.17-4.28-3.32-3.82-5.61-3.89-5.09-.17-6.8-2.59-6.13-7.33a12.46,12.46,0,0,0,0-3c-.44-4.42,1.84-6.74,6-6.8,5.77-.09,3.74-4.26,4.12-7.16.52-4-2.13-3.69-4.79-3.49-4.49.34-6.19-2.27-6.52-6.33s.06-8.11,5.34-8.31c6.18-.24,5.44-4.51,5.53-8.42C131,304.88,127.13,306.47,124.44,306.18Zm270.64,13.41a43.7,43.7,0,0,1,0,5.49c-.61,4.75,1.77,5.71,5.88,5.21,3.14-.38,6.3-1.84,9.2-1.68,6.39.35,7-2.95,6.72-7.87-.17-2.92,0-4.64-4.12-3.34-6.24,2-7.49.59-7.49-6.06a19,19,0,0,0,0-2c-.51-4.67.29-8.09,6.09-8.6,4.93-.44,2.76-5,3.13-7.57.41-2.73-2.61-2.73-4.84-2.78s-4.48.42-5.69-2.05a10.1,10.1,0,0,1,4.87-13.55c.76-.34,1.51-.7,2.28-1,4.26-1.77,2.63-5.61,2.15-8.24-.51-2.87-3.56-1.67-5.42-.93a17.33,17.33,0,0,1-6.34,1c-7.69.12-8.95,1.67-8.42,9.28C394.07,289.8,393.69,304.73,395.08,319.59Zm159.47-22.76c-6.83.52-7.73-.66-8.16-7.44-.35-5.44,1.27-9.15,6.69-10.53,4.63-1.19,3.52-4.82,3.15-7.66-.46-3.5-3.19-1.75-5.14-1.4a4,4,0,0,1-4.59-2.15c-4.11-7.27-1.62-12.71,6.54-14.64,4.51-1.06,3.25-4.79,3.05-7.74-.23-3.29-2.56-2.89-4.79-2.16-4,1.28-8.17,1.15-12.23,1.95-3.52.7-4,2.25-3.74,5,1.21,11.88,1.73,23.77,1.81,35.72,0,3.11-.63,7.29,2.63,10,1,.86.44,2.19-.32,3.17-2,2.53-1,5.45-1.05,8.21-.07,2.26,1.38,2.69,3.39,2.3,4.55-.9,9.1-1.92,13.7-2.47,5.86-.71,3.61-5.1,3.7-8.08C559.31,295.28,556.22,297.05,554.55,296.83ZM142.43,356.26c0,2.51,0,4.35,0,6.18-.1,6.78.49,7.14,7,5.79,3.66-.75,4.44-3.42,4.46-6.26a60.43,60.43,0,0,0-1.1-10.36c-1.46-8.55-.54-10.12,7.62-13.05,4.41-1.58,2.37-5.25,2.12-8.1-.28-3.25-2.61-2.9-4.84-2-1.3.54-2.56.91-3.74-.1-3-2.61-3-6.3-2.76-9.71a5.22,5.22,0,0,1,5.31-5.06c5.24,0,6-2.95,6.2-7.23.21-4-1.32-5.41-4.89-4.49a58.74,58.74,0,0,1-12.3,1.74c-3.34.13-4.94,2-4.68,5.59.28,4,.1,8,.19,12,.18,7.39-.75,15,4.19,21.49.42.57.58,2.16.34,2.28C140.12,347.85,143.63,353,142.43,356.26ZM599.94,240.92c-.71,3.78.07,5.76,4.58,4.63,2.54-.63,4.58.91,5.11,3.6a41.21,41.21,0,0,1,1.18,7.33q.35,18.39,1.22,36.77c.07,1.64-.47,4.37,2.69,4.48,5.54.17,8-2.24,8.18-7.82.46-12.87-1.67-25.62-1.74-38.48,0-5.13.59-8.71,6.68-9.39,2.63-.29,4-2.75,2.55-5.33-1.21-2.24.15-6.94-5.52-5.41a156.15,156.15,0,0,1-20.4,3.88C600.6,235.7,599,237.13,599.94,240.92Zm-6.85,1.92c-.61-2.12,1.2-6.39-3.42-5.37-8,1.76-16.27.85-24.18,3-5.12,1.4.52,5.8-2.28,8-.67.51-.37,2.05.66,2.56a4.49,4.49,0,0,0,2.37.07c6.39-.8,8.09.31,7.56,6.72-.64,7.73,1.12,15.3.59,23.08-.33,4.78,1.26,10,1.3,15.07.06,7.91.19,8,7.76,5.94,2.31-.63,3-1.65,2.93-3.74-.09-3.16-.09-6.33-.2-9.49q-.64-16.93-1.34-33.87c-.13-3.23.84-5.49,4.4-6.1C592.43,248.13,593.83,246.2,593.09,242.84Zm-273.8,87.3c0,2.49-.11,5,0,7.48.09,1.59-1.33,4.49,1.45,4.34,2.61-.14,6.2,1.38,7.9-2.47,1.17-2.66,2-5.42,1.12-8.2-1.07-3.25-1.05-6.52-1.12-9.84-.18-8-.71-16.05-.6-24.11.11-7.87-.59-7.85,6.45-10.86,4.25-1.82,1.6-5.51,1.94-8.3.31-2.51-2.06-2.86-3.91-2.41-7.24,1.77-14.64,2.34-22,3.23-4.78.57-3.63,5.38-4.23,8.33-.69,3.36,2.62,2.63,4.6,2.47,3.87-.29,6.78.6,6.68,5.13C317.34,306.72,318.93,318.4,319.29,330.14ZM723.88,42.79c-1.33,1.43-1,4-2.88,4-3.89,0-3.69,2.67-3.39,5.13.66,5.32-.55,9.63-4.79,13.37-3.1,2.73-.61,6.76,2.48,8.92,5.34,3.73,9.76,3.52,14.68,0,.45-.33,1.3-.07,2-.12,5.19-.38,7.45-3.62,5.76-8.45a120.89,120.89,0,0,1-6.21-26c-5.07,9.69-2.82,20-4.74,29.74C722.53,61,725.26,51.93,723.88,42.79ZM684,49.06c0,.59,0,1.59,0,2.59.1,7.8,1.69,9.4,9.3,9.05a9.2,9.2,0,0,1,8.51,4.17c.85,1.2,2,2.67,3.64,1.58,1.23-.79,1.22-2.47.65-3.65-1-2-.79-6.44-2.18-6-6,1.74-7.18-4.09-7-6,.68-8.73-4.1-16.41-3.87-24.9,0-1.12.16-2.72-1.27-2.89-1.63-.2-1.3,1.48-1.59,2.53-.53,1.9-.76,4.06-1.83,5.62C684.6,36.5,683.57,42.38,684,49.06ZM481,142.33c7.95-.84,15.35-4.53,22.69-8.56,2.55-1.4,3.14-2.87,2.59-5.53-.37-1.83-.26-3.82-2.66-4.12s-5.08-1.33-6.32,2c-.45,1.22-1.71,2.42-2.57,1.45-3.43-3.9-7-.23-10.45-.56-5.39-.52-8.29,1.63-9.73,7C473.24,138.89,475.21,142.28,481,142.33ZM706.52,95.72l-1.82.56c1,4.84,2.95,9.56,4.48,14.14a37.5,37.5,0,0,1,2,15.57,9.2,9.2,0,0,0,.07,3.92c2.48,6.46,2.94,13.16,3,20,0,2.4-1.7,6.25,1.83,6.79,2.77.42,3.48-3.44,4.35-5.78,1.72-4.67,1.57-13.43.42-18.13-1.73-7.06-3.26-14.16-6.44-20.77Q710.42,103.88,706.52,95.72ZM648.31,10.83c-.33.58-.65,1.11-.93,1.65-2.68,5.15-.19,11-1.91,16.1-2.66,7.89.94,15.43.45,23.15-.17,2.69,2.26,2.27,4.06,2.21s3.18-.64,3-2.95c-1-11.88-1.8-23.76-2.82-35.64C650,13.86,650.34,12,648.31,10.83ZM604.06,183.94a17.68,17.68,0,0,0,7.5-.17c1.11-.3,2.27-.55,1.84-2.28-.63-2.5-7.21-9.15-9.63-9.21-2.59-.07-4.83-.39-6.6-2.61-1-1.26-2.75-1.06-4.2-.63-1.81.52-1.37,2-1.12,3.28.48,2.47-.63,4.57-1.59,6.65-1.12,2.41-.82,3.82,2.11,3.94C596.32,183.08,600.11,185,604.06,183.94ZM520.3,101.43c-1.48.68-4.56-.71-4.74,2a36.38,36.38,0,0,0,.88,11.79c.68,2.48,4.15,2.2,6.5,2.87,4.79,1.37,5.88.57,4.74-4.26-.83-3.51-2.76-6.7-3.24-10.39C524.16,101.38,522.27,101.26,520.3,101.43Zm-.92,32.44c2.76-.27,6.4-.62,10-1,1.42-.15,2.69-.66,2.86-2.26s-.85-2.43-2.21-2.93a18.13,18.13,0,0,0-6.31-1.34c-3.12,0-6.4.48-9.31-.32-3.58-1-4.59,1.23-5.59,3.39-1.49,3.19,1.74,2.84,3.24,3.65C514.09,134.14,516.34,133.69,519.38,133.87ZM506.91,110c0-4.72-.34-5.14-4.24-5.08-3.24.05-8.74,6.22-8.19,9.61.52,3.21,3.5,1.88,5.29,2C505.83,116.92,506.9,115.76,506.91,110Zm185,15.52c1.26-7.73-2.09-14.37-2.34-21.36,0-.77-.49-1.69-1.52-1.6s-1.13,1.1-1.14,1.88C686.83,111.66,685.92,119,691.87,125.56Zm-50.34,61.3c2.14-1.06,3-3.15,4.51-4.46,1.29-1.14,4.21-4.16,2.48-5.55-2.09-1.68-1.68,2.79-3.62,3.37-1.22.36-1.33,2.61-3,2.19s-.9-1.88-1-3c-.08-.81,0-1.76-1-2a1.57,1.57,0,0,0-1.84,1.27,7.65,7.65,0,0,1-2.59,3.57c-.73.62-.75,2,.06,2C637.84,184.44,640.08,184.43,641.53,186.86ZM529.74,20.48c5.3-3.05,9.74-7.21,15-10.2,1.26-.71,1.52-2.51,1.45-4.06,0-.81,0-1.82-1.08-1.95a2.15,2.15,0,0,0-1.64.75C539.39,10.59,533.94,14.91,529.74,20.48ZM711.3,19.06c0-1.82.06-3.63,0-5.44-.06-1.33-.35-3.16-1.79-3.08-1.84.1-1,2-1.12,3.24-.39,4.48,1.14,9.27-2.1,13.32a1.07,1.07,0,0,0,.34,1.68,1.75,1.75,0,0,0,2.21-.48C711.57,25.72,711.13,22.33,711.3,19.06ZM409,138.36c-3.88-.54-6.44,2.18-9.46,3.76-1,.51-2.44.24-2.86,1.61a1.08,1.08,0,0,0,1,1.37c1.37.07,2.94,1.17,4-.61,1.68-2.73,4.5-3,7.25-3.34,1.19-.17,3.09.66,3.1-1.31C412.12,138.05,410.26,138.42,409,138.36Zm231.17,14.28c-1.41,1.51-2,3.09-3.75,3.68-.92.31-1.57,2.05-.34,2.11,2.86.14,4.14,2.35,6.13,3.61.67.42,1.48.91,2.26.29s.36-1.61-.18-2.12C642.2,158.22,642.36,155,640.19,152.64ZM550.85,31.16c1.65-1.55,4.69-1.93,4.5-4.8-.1-1.5-1.28-3.52-3.31-2.75-1.59.6-4.37,1-3.57,3.8C548.85,28.71,548.39,31,550.85,31.16ZM346,156.36c-.9-1.44-.26-4.26-2.15-4.06-2.49.26-3,3.23-3.39,5.3-.27,1.4.63,3.84,2.43,3.71C345.68,161.12,345,158.06,346,156.36Zm359.62-30.88c-1.27,4.9-.43,9.38,2.76,14.57C709,134.1,706.23,130,705.63,125.48ZM414.42,136.9a21.42,21.42,0,0,0,8.53.46,1.69,1.69,0,0,0,1.7-2c-.19-1-1.09-1.25-1.93-1C420.08,135.14,417,134.3,414.42,136.9Zm12.48-4.22a9.91,9.91,0,0,0,10-.61C432.83,130.6,429.84,131,426.9,132.68Z" transform="translate(-7.99 -1)"/><path d="M443,1a47.84,47.84,0,0,1-7.11,23.92c-3.63,5.95-2.75,8.42,3,13.1,7.05,5.75,10.46,13.61,12.28,22.28.3,1.41.63,3.33-.84,4.12-1.87,1-3.27-.84-4.08-2.05a94.54,94.54,0,0,1-5.38-9.46c-7.6-14.55-21.45-17.08-35.8-18.6a7.68,7.68,0,0,0-2.88.67C395,37.25,390.47,44.77,382,44.71c-1.88,0-2.85,3-3.92,4.87-3.66,6.51-6.19,13.66-10.8,19.58-1,1.29-2,4-4.44,3.31-2.57-.78-.58-3.55-1.54-5.48-2.26.63-4.36,2.11-6.88.27-1.58-1.14-2.77.62-3.1,2.17-2.25,10.32-9.47,13.14-18.92,12.71-1,0-2,0-3,0-4.44.11-6.88,4.06-5,8,.69,1.46,1.75,1.22,2.92.82,7.42-2.47,15.61-2.61,22.28-7.37.61-.44,1.87-.85,2.29-.54,4.5,3.32,7.81-.3,11.41-1.88,2.63-1.16,4.82-1.55,7.33.59,3.31,2.83,7.62,1.31,11.44,1.56,7.13.47,14.33-.41,21.45.64a21.35,21.35,0,0,1,14,8.41c1.74,2.21,1.62,4.13-.43,7.5-1-5.2-3.83-7.79-7.61-9.85a10,10,0,0,0-5-1.44c-11.32,0-22.9-1.57-33.86.38a92.77,92.77,0,0,0-22.22,7c-4.33,2-3.12,8.09-6.21,11.53-2,2.22-3.76,7-6.31,5.53-3.71-2.16.53-5.7,1.31-8.65.2-.75,1-1.33,1.41-2,.81-1.26,1.94-2.64.83-4.09s-2.47-.06-3.73-.06c-5.74,0-10.55,3.76-16.41,3.67-8.37-.13-10.2-1.87-10.6-10.18-.22-4.62,1.05-8.86,1.88-13.23.49-2.58-.15-4.27-2.29-6C294,60.94,282.37,46.89,272.1,31.67c-1.82-2.71-2-6-3.64-8.71-1-1.74-1.6-3.63-4.31-3.21s-3.58,2.44-4,4.53a78.51,78.51,0,0,0-1.56,12.37c-.2,9,.05,18,0,27a5.09,5.09,0,0,0,3.27,5.1c9.41,4.15,17.86,10.08,27.09,14.58,3.87,1.89,7.88,4.81,9.87,9.25,1.52,3.38,4.06,5.85,6.52,8.55,2.93,3.22,4.18,7.87,4.42,12.32.14,2.82,1.19,4.28,3.61,5.23,6.13,2.39,8.72,12.42,3.61,17.41-3.62,3.52-7,4.09-12,1-.54-.34-.95-1.38-1.38-1.36-10.88.63-6.26-9.36-9.49-13.95-.66-.93-.27-2.6-.38-3.93A2.74,2.74,0,0,0,291,115c-1.86-.15-2.71.62-3.14,2.38a17.66,17.66,0,0,1-1.66,4.14c-1.32,2.46-3.14,3.53-6.17,2.67a16.17,16.17,0,0,0-13.78,2.14c-4.26,2.7-9.35,1.86-14.07.77-2.18-.51-2.61-2.82-3-4.8-.24-1.06-.44-3-1.88-1.66-1.83,1.73-3.95,4.18-3.46,6.73a6,6,0,0,0,5.1,4.88c3.53.24,6.17,1.09,8.37,4.29,1.76,2.55,10,1.93,12.46-.66a10.06,10.06,0,0,1,8.09-3.09c2.9.07,5.53,1.39,4.41,5s.77,4.42,3.68,4.52c4.29.15,4.58,2.4,3.09,5.69-2.74,6-14.74,13.15-21.27,12.65-1.95-.15-3.9-.66-4.64-2.44-1.34-3.2-3.94-3.42-6.44-2.72a6.33,6.33,0,0,0-4.46,6c-.73,14-4.69,27.32-8.54,40.63-4.56,15.76-10.33,31-21.81,43.31-1.8,1.94-3.74,4.76-6.56,2.42-2.65-2.2-1.36-4.84.51-7.47,9.39-13.15,17.37-27,21.55-42.83,2.06-7.81,5.39-15.27,7-23.25.57-2.77.43-4.13-2.72-2.63-2.21,1.07-3.72.35-5.18-1.45a2.64,2.64,0,0,0-3.55-.9c-1.5,1-.16,2,.24,3,1.07,2.7-1,3.75-2.75,4.43a53.57,53.57,0,0,1-17.92,3.79c-2.7.06-4.5-.63-4.9-3.65a5.56,5.56,0,0,0-2.15-3.84,7.32,7.32,0,0,0-7.19-.59c-2.78,1.1-.87,3.56-.59,5.25.83,4.88,3.95,8.74,6.7,12.65a31.22,31.22,0,0,1,5.94,22,12.7,12.7,0,0,1-1.16,4.31c-2.74,5.48-7.54,6-10.71.79a73.5,73.5,0,0,1-9-22.33c-1.41-6.16-1.32-13.15-5.65-18.63-1.24-1.56-2.19-2.27-4.1-1.43-6.48,2.84-13.16.76-19.75.65-3.62-.06-4.3-3-3.51-5.81.7-2.51,2.24-5.25,4.82-6,3.87-1.13,7.17-3.53,10.93-4.57,3.93-1.08,3.91-3.27,2.34-5.82-3.16-5.13-4.93-11-10.26-15-4.31-3.18-4.67-9-5.7-14-.13-.65,0-1.33-.1-2-.27-2.46-.63-6.12-3.27-5.69s-.61,3.65-.21,5.57c1.75,8.48-.1,17,.09,25.42,0,.87-.37,1.79-1.32,1.85-1.52.08-1.9-1.16-2-2.35-.69-7.29-6.8-11.7-8.9-18.5-2.63,2-1.43,4.17-1.65,6-.28,2.31-.19,4.66-.56,6.95a2.52,2.52,0,0,1-2.76,2.36c-1.43-.14-1.8-1.43-1.91-2.57a31.85,31.85,0,0,1-.06-5c.21-3.56.05-7.23-1.57-10.28A27.86,27.86,0,0,1,131,110.41c.5-6-1.68-11.8-2-17.77-.06-1.16-.27-2.52-1.78-2.58-1.72-.07-1.63,1.31-1.54,2.49.77,10.76.85,21.68,3.33,32.15a83.48,83.48,0,0,1,2.22,18.13c0,1.66-.17,3.65.64,4.91,4,6.16-.61,7.27-4.84,8.53-2.38.72-2.26-1.32-2.35-2.68-.74-10.28-2.35-20.5-2.94-30.75s-2.63-20-4.12-29.92c-.19-1.24-.5-2.39-1.95-2.49s-2,1-2.17,2.23c-.16,1.48-.61,3.15-.13,4.44,3.83,10.25,1.91,21.14,3.77,31.58,1,5.54,2.33,11,2.37,16.68,0,4.92-.78,3.53-5,3.77-8.65.5-3.19-6.63-6.29-9.39-.82,3.56,0,7.85-5.5,7.89-1.58,0-.65,2.42.06,3.77a1.74,1.74,0,0,1-.65,2.57c-.49.24-1.62.19-1.8-.12-4.73-7.87-8,.05-11.48,1.37-2.28.86-3.6,3.94-4.39,6.46-3.67,11.74-5.6,23.88-7,36-.88,7.4.07,14.95,1.17,22.31A52.41,52.41,0,0,1,79,230.92c-.15,2.7-1.51,5.5,1.33,7.81,1,.82.43,2.24-.37,3.17A4.06,4.06,0,0,1,75.38,243a18.54,18.54,0,0,1-11.8-10.68C60.92,226,61,219.21,60.33,212.5c-.65-6.27,2.45-11.17,4.37-16.49a39.74,39.74,0,0,0,2-12.22c.37-9.3-.82-18.65.88-27.92.56-3-1.64-3.16-3.73-3.26-7.88-.34-15.59.95-23.21,2.75a12,12,0,0,1-9.5-1.23c-5.09-2.93-10.52-1.8-15.72.23-2,.79-4,2.4-6.07,1.07s-1-3.66-1-5.58c0-6.48-.43-13,.27-19.43a11.52,11.52,0,0,1,7.87-9.4c4.18-1.52,8.47-2,11.53,2.66,1.88,2.88,3.32,3.58,7.28,1.21,3.24-1.94,7.86-2.53,11.56-4.75,7.58-4.56,15.79-5.41,24.43-4,2.53.41,6.1.42,6.41-2.89.33-3.66-3-6.4-6.09-6.57C64.7,106.3,60.11,101.12,54,99.3c-4.27-1.27-8-3.56-11.85-5.67-2.16-1.18-4.49-1.63-5.9-4-1.2-2-3.72-2-5.45-1.38-4,1.43-8.6,1.44-12.19,4.05-1.89,1.37-4.06,1.54-6.16,1.78-2.49.29-3.9-.85-4.23-3.65C7.1,81,10,72.21,17.12,67.33c4.17-2.85,8.47-4.79,11.33-9.29.87-1.36,3.33-2.35,5.41-2.13,5.36.57,4.7-2.61,3.22-5.53a25.25,25.25,0,0,1-2.74-11c-.1-3.8-.19-7.26,6.45-5.9C37.61,30,38,26.5,37.18,23.4c-1.62-6-3.62-12-10.77-13.94C25.19,9.14,24.2,8.4,24.51,7a2,2,0,0,1,2.74-1.47C36.12,10.25,32.59,4.85,31,1h5c.24,2.43,1.94,4.9.6,7.28-2.42,4.3-.11,7.15,2.45,10.19,5.57,6.62,6,12.86.71,18.67-2.49,2.74-4.42,7.17-1.36,10A51.85,51.85,0,0,1,48.57,60.18a2.09,2.09,0,0,0,2.48,1.21c1-.33,1-1.29.91-2.09-.28-5.55-1.17-11.15-.72-16.63.37-4.48-2.34-8-2.29-12.24.12-9.81,0-19.62,0-29.43h56a8.59,8.59,0,0,1-2,5.44,30.93,30.93,0,0,0-6,25.37c2.25,11,1.91,21.81.26,32.73-.15,1-.6,2.35-.15,2.87,4,4.5,3.52,10.49,5.71,17.14,0-3.93.13-6.41,0-8.86-.38-5.77-1.35-12-.55-17.19.85-5.5.09-10.67.39-16,.11-1.81-.42-3.66-.32-5.47.09-1.61.28-3.56,2.5-3.75s2.8,1.49,3.05,3.22c.68,4.77,1,9.61,2,14.3,2,9.08-.23,18.59,3,27.51.47,1.29.11,3.64,2.12,3.25s.9-2.34.74-3.77c-1-9.71-2.48-19.41-2.88-29.15C112.33,38.41,110,28.23,111,17.88a4,4,0,0,0-.64-2.35C107.46,11,107.77,6,108,1h7c-.11,8.45,3.71,16.43,2.82,25-.29,2.78.43,5.72,3.63,8.64-.77-7.61.38-14.18-1.24-20.77C119.18,9.67,116,5.75,118,1h13c-.27,7.18,1,13.85,4.86,20.18S134.65,35.94,140.47,42c2-.83,2-4.9,4.81-3.39,2.22,1.18,3.28,4,3.05,6.5a28.17,28.17,0,0,0,1,9.37c1.67,7.07,1,14.19,1.17,21.34.14,7.41,1.38,14.8,2.22,22.19.13,1.18.81,2.47,2.13,2.4,1.68-.07,1.28-1.66,1.29-2.73a15.73,15.73,0,0,0-1.54-7.78c-1.43-2.54-1.3-5,1.18-5.86,3-1,4.37,1.7,4.72,4.34.63,4.78,1.58,9.5,1.73,14.36.19,6.3,4.55,11.81,3.76,18.37a1.21,1.21,0,0,0,1.3,1.22,1.2,1.2,0,0,0,1.14-1.38c-.2-5.86-1.26-11.8,1.56-17.4.11-.23-.07-.67-.22-1a89.83,89.83,0,0,1-6.14-14.46c-1.52-5.1-4.56-9.56-5.79-15.06-2.54-11.44-6-22.69-8.86-34.09-1-4-1.13-8.33-2.54-12.06A117.44,117.44,0,0,0,133,1h8c.31,4.44,3.81,7.25,5.57,10.94,5.48,11.49,8.05,24,12.34,35.91q2.76,7.68,5.79,15.27c.53,1.34,1.36,3,3.2,2.64,8-1.7,14.6,6.6,22.85,3.38.12,0,.36.17.47.12,3.32-1.6,6.63,3.25,9.63.33A8,8,0,0,1,207,67c1.16,0,2.49,0,2.87-1.4A2.5,2.5,0,0,0,208.65,63c-3-2.25-3.21-4.91-2-8.37,1.65-4.77-.72-8.5-5.38-10.35a37.75,37.75,0,0,1-10.21-5.74c-7.52-6.42-10.8-15.29-10.56-25.22.06-2.14-.13-5,2.53-6s3.52,1.91,5.19,3.08c.21.15.61,0,1.18,0,.83-3.84-2.91-6.08-3.39-9.41h8c2.22,4.49,4.94,10.14,9.13,11.19,5.57,1.39,9.87,5.52,15.61,5.9.85.06,1.87.36,1.83,1.3a2.92,2.92,0,0,1-1.25,2,10.5,10.5,0,0,1-9.56,1.14c-1-.37-2.57-1.94-2.81-.32-.7,4.58-9,5-6,11.4.48,1-2.54,2.62.19,3.55,2,.68,2.79-.9,3.84-2.31,2.94-3.93,5.58-3.94,8,.13,1.64,2.75,3.59,3.1,6.28,2.29,1.59-.48,3.35-1.28,4.87-.52,6,3,8.86-3,13-4.77,2.06-.89,3.2-1.78,5.51-1,2.52.89,3.19,2.2,3.88,4.83,1.86,7.1-.95,11.57-6.15,15.86-1.51,1.25-6,.29-4.49,3.85S241.36,57.22,244,57c7.78-.54,8.8-2.08,8.88-9.93s-.51-15.65.39-23.46a7.62,7.62,0,0,0-2.23-6.38c-3.64-3.78-6.17-10.29-13.31-5.2-.45.32-1.3,0-2,.12C226.81,13,221.08,8.4,217,1h9c4.45,4,11.54,4,14,0h21c1.72,3.38,1.93,6.8-.28,10.31l1.25.38L268,1h11c-1.45,2.61-2.39,5.75-4.46,7.71-4.16,4-2.52,7.9-.62,11.74,1.46,2.94,3.66,5.52,5.59,8.21,5.7,8,12.62,14.94,18.33,22.93A47.37,47.37,0,0,0,309.42,63c1.69,1.17,2.39,1.06,3.2-.92,1.51-3.71,3-7.34,2.68-11.5a10.75,10.75,0,0,1,.7-5.38c3.86-8.84,2.48-15.42-4.47-21.89-3-2.81-3.06-5.87.48-7,7.72-2.49,14.08-7.43,21.26-10.84,3-1.42,5.92-1.63,8.69,1.1a6.31,6.31,0,0,0,6.78,1.84c3.29-1,6.15-.56,8.24,3.34,2.56,4.77,7.11,4.13,9.57-.75,1.71-3.39,3.63-6.68,5.45-10h8a20.44,20.44,0,0,1-1.1,3.81C373.4,15.57,366.5,25.6,362,36.87,359.55,43,356.81,49,356,55.61c-.28,2.38.55,3.06,2.76,2.61,4-.8,3.19-3.39,2.35-6.08-.51-1.62-.86-3.35.62-4.66s2.68,0,3.86.87c1.45,1,3.1,1,3.9-.54,2.47-4.74,6.19-8.57,9.06-12.91A51,51,0,0,1,388,23.65a27.42,27.42,0,0,0,9.18-16c-3.26,2.84-6.65,5.26-10.2,1.71-2.21-2.21-4.92-4.61-5-8.33h26c.06,6.3-4,12-2.73,18.49.41,2.09-1,4.94,2.78,5.26,3.27.28,6.32-1.3,6.72-4,1-6.6,4.61-12.8,3.23-19.77ZM246.35,97.29c.14-4.17.59-8.07-4-10.44-3.69-1.9-16.26-2.66-19.35-.18-1.61,1.29-4.94,3-2.88,5.38s1.47,4.57,1.71,6.9.7,3.88,3.15,5c4,1.92,4.82,5.92,2.69,9.31-2.77,4.39-1.11,9.57-3.5,13.87a1.6,1.6,0,0,0,.77,2.13,1.07,1.07,0,0,0,1.54-.79c1.39-4.87,5.45-4.31,9-4.21s5-1,4.84-4.51a18.56,18.56,0,0,1,3.21-10.86A17.93,17.93,0,0,0,246.35,97.29ZM81.46,90.58c-.31-6.16,2.28-13-6.17-16.79-5.94-2.7-8.7-2.93-11.08,3-.86,2.17-1.44,4.82-3.88,5.45-3.93,1-5.29,4.65-8,6.88-1,.85-.65,1.7.21,2.49a35.34,35.34,0,0,0,14.84,7.81c3,.82,6.19.68,8.46,3.4a3.71,3.71,0,0,0,4.12,1c1.76-.63,1.44-2.43,1.47-3.87C81.51,96.89,81.46,93.74,81.46,90.58ZM52.67,146.1c4.14.67,8.84-1.52,13.76-2.16A2.67,2.67,0,0,0,69,142c1-3.33,2.38-6.6,2.78-10,.31-2.66,2.44-5.73,1.31-7.58-1.63-2.68-5.08.66-7.76-.37a15.72,15.72,0,0,0-3-.31c-5.8-.94-10.19,2.82-14.89,5-3.33,1.52-1.86,6-2.56,9.18a4.33,4.33,0,0,0-.08.5C43.58,146.21,43.58,146.21,52.67,146.1ZM351,45.46c-6,6.08-12.07,5.18-18.25,1.25-1.92-1.22-2.59.13-2.63,1.47-.11,4.89-3.12,8.87-3.81,13.72-1.7,12-2.08,11.75,9.84,12.07,4.7.12,7.41-1.61,9.48-5.57C349.38,61.23,348.31,53.09,351,45.46ZM88,39.57c0-4.32.06-7.49,0-10.65,0-1.2.65-3.25-1.16-3.29-2.16-.05-1.61,2.15-1.58,3.5.15,6.94,0,13.84,1,20.83,1.84,13.18.91,26.57.71,39.86-.11,7.4,1,14.88-1.22,22.35-.43,1.46,4.13,4.39,6.44,6.59a5,5,0,0,0,1.1-.86c3.23-3.09,3.13-7.88,5.77-11.32.51-.67-.11-2.3-1.49-1.28-3,2.21-2.51-.35-2.52-1.79,0-6,.1-11.93.24-17.89,0-.76.73-2.08-.26-2.08-4.55,0-3.21-3.54-3.22-5.65a162.62,162.62,0,0,0-1-20.8C89.85,50.85,86.05,45,88,39.57Zm131.6,42.69c-6.81,1.93-9.39-2.58-11.61-7.32-.82-1.74-1.95-2.47-3.45-1.77-6.55,3.06-11.86,7.18-11.87,15.37a18.87,18.87,0,0,1-.41,4.45c-1.16,4.69-1.12,8.28,5.4,7.3.64-.1,1.43.67,2.14,1.07,3.91,2.2,9.54-.74,10.73-5.11A25.53,25.53,0,0,1,219.55,82.26ZM76.19,148c-4.71,13.22-4.68,26.65-4.24,40.11a14.15,14.15,0,0,1-1.54,6.61c-1.33,3-4.73,5.82-3.69,8.89,2.3,6.77.4,13.81,2.25,20.51.35,1.25.12,2.93,2,2.83,1.72-.1,2-1.73,2-3-.31-5.71.73-11.24,1.8-16.8a10.24,10.24,0,0,0-.53-4.42c-3-10.89,1.29-21.23,2.73-31.71.49-3.58.13-7.62,2-11.09C81.48,155.23,81.07,151.13,76.19,148Zm164.19,1.3c.77,0,1.94.07,3.1,0,2.05-.14,4.72,1,5.83-1.53s0-4.88-1.55-7.35c-3.79-6.1-11.16-4.37-16-8-2.49-1.84-4.61.48-6.9,1.25-4,1.36-5.18,3.25-2.88,6.26C226.45,145.83,231.44,151.11,240.38,149.3Zm-51.16,21.47c0-3.14.83-6.1-.17-8.18-2.35-4.86-2.21-9.92-2.91-15-1-7-2.9-13.88-4.53-20.79-.49-2.07-1-2.94-3.69-1.33-2.4,1.45-2.94,4.68-4.47,5.14-3.5,1.05-2.86,2.44-1.68,4.61,3.79,6.95,6.36,14.52,10.75,21.19,1.89,2.87,3.66,5.88,3.41,9.67C185.8,167.93,187.17,169.29,189.22,170.77ZM172,74c-3.67-.12-3.83-.11-3.67,2.22.58,8.25,3.47,15.79,7.53,22.89.74,1.29,1.82,3.31,3.83,2.38s1.69-3,1.08-4.82c-1.06-3.25-1.33-6.06,1.12-9.28,2-2.56,1.75-7.56-.17-9.21C179.12,76,175.74,73.12,172,74Zm46.87,90.28c1.57,2.92.87,5.86,1.57,8.5.21.8.5,1.73,1.48,1.7s1.2-1,1.22-1.84a58.55,58.55,0,0,0-2.41-19.13c-1.88-6.07-3.76-12-3.56-18.41.05-1.67-.09-3.11-2.06-3.3-2.26-.22-2.86,1.33-2.82,3.19.07,3.82.09,7.65.38,11.46.23,3.22-.22,6.71,3.61,8.65,1.5.76,1.19,2.56.07,3.88-3.31,3.91-3.19,9.37.4,14.17C218.64,170.66,217.37,167.4,218.83,164.32Zm-3.37-39.67c1.32-.18,2.71.37,3.29-1.05a3.34,3.34,0,0,0-1-3.66c-2.57-1.78-3.64-4.55-5.29-6.93-1.82-2.62-3.35-3.74-6-.6-2.18,2.56-4.74,1.72-6.59-1-.51-.75-.53-2.58-1.57-2.07-2.93,1.41-5.89,2.86-6.15,7s2.61,3.53,4.93,3.67c5.68.35,11.79-1.24,16.25,4.1C213.72,124.64,214.86,124.53,215.46,124.65ZM228.92,67c-2.07.87-5.52.95-5.24,4s.81,7,5.26,7.4c4.13.36,8.3.33,12.44.64,1.46.11,3.07,1,3.66-1.12.49-1.76.75-3.48-.91-5C239.88,68.94,234.44,68.23,228.92,67ZM81.53,65.65c.22-2.73-1.22-5.19-1.38-7.81-.24-4.12-2.35-5.34-6.2-5-3.06.28-6.37,1-8.64-2.23-.47-.67-1.42-1.1-2-.13-.3.45-.38,1.58-.11,1.77,2.85,2.06,2.58,5.63,4.09,8.34,2.3,4.09,6,5.64,9.94,7.33,1.09.47,1.58,2.54,3.16,1.77S81.45,67.1,81.53,65.65Zm235.74,16.4c.3-.22,1.08-.5,1.27-1,1.84-4.92,5.64-10.26,4.81-14.73-.89-4.83.07-8.76.38-13.21.58-8.51,2-16.57,6-24.13a1.62,1.62,0,0,0-.71-2.49c-1-.44-1.58.25-1.92,1.05-1.17,2.7-2.72,5.12-2.93,8.34-.49,7.18-4.49,13.87-3.27,21.37a1.21,1.21,0,0,1-.34.91c-3.51,3.27-2.78,7.57-2.9,11.69-.08,2.93.51,6-2.36,8.25a2.27,2.27,0,0,0-.38,2.78C315.33,81.73,316,82.06,317.27,82.05ZM202.59,200.94c-1.3-2.87-1.08-6-2.14-9-1.95-5.57-6.62-9.51-8-15.22-.3-1.23-.77-3.21-2.22-2.66a2.79,2.79,0,0,0-.95,4.25c1.9,2.56,1.58,5.7,2.63,8.33,2.1,5.26,1.83,11.1,4.5,16.12.62,1.17.76,3.46,2.81,2.54C200.89,204.52,202.9,203.47,202.59,200.94ZM255,105.09h-.13a16.83,16.83,0,0,0,0,3.48c.64,3-2.07,7.62.93,8.72,3.19,1.18,6.05-3,9-5,2-1.37,2.8-3.27,1-5-1.54-1.44-3.58-4.22-6-.69-1,1.44-2.08,1.56-3-.08-2-3.46-.21-10,3.45-11.59,2-.86,2-2,1.28-3.51-.82-1.76-2.23-1.82-3.72-.9a5.69,5.69,0,0,0-2.75,5C255,98.79,255,101.94,255,105.09ZM59.88,28.83c1.29-.13,2.73.6,3.85-.41,3.5-3.13,5.91-7.12,8.44-11a1.47,1.47,0,0,0-.2-1.33c-.51-.59-1.11-.31-1.75,0-4.51,2.48-8.82,5.34-14.1,6.13-1.61.23-2.19,1.93-2.42,3.47A2.26,2.26,0,0,0,55,28.2C56.54,29,58.21,28.89,59.88,28.83Zm147.43,134c-1.25-3.81-.9-8.17-1.51-12.42-.19-1.33-.75-3.89-2.49-2.17-2.37,2.35-5.62,5-3.66,9.31a6,6,0,0,1,.34,5.25c-.6,1.3-1.49,2.94.27,4,1.51.86,3.22.4,4.79-.26S207.68,165,207.31,162.82Zm89.95-52.36c3.26.11,6.49-2.76,5.31-4.4A20.55,20.55,0,0,0,295,99.18c-2.89-1.38-4.09,1.65-5.8,2.85s-.48,3.23.83,4.16C292.38,107.88,295.05,109.19,297.26,110.46Zm-108,24.27c0,1.77,2.78,10.28,3.68,11.68a1.52,1.52,0,0,0,2.48.44c.9-.65,1.07-1.37.34-2.5-4.13-6.38-4.15-6.5,2-10.45a3.43,3.43,0,0,0,1.65-3.73c-.11-1.36-.81-2-2.2-2.18C193.39,127.46,189.33,130.85,189.3,134.73ZM121.62,54.17c2,6.94.93,14,1.23,21.07a34.71,34.71,0,0,0,.87,4.88c.19,1,.41,2.17,1.59,2.22,1.53.08,1.78-1.27,1.9-2.42A39.71,39.71,0,0,0,121.62,54.17Zm140.8,94.4c4.88,1.61,8.72.37,12.39-2.54,1.42-1.13,1.91-1.5.29-2.77C271,140.07,265.43,142.3,262.42,148.57Zm2.39-53.83c3,.36,4.42,3.91,6.39.52a10.55,10.55,0,0,1,5.3-5,2.13,2.13,0,0,0,1-3.35c-1.81-2.81-4.77-1.66-7.3-1.63-1.46,0-2,1.28-1.15,2.54C271.49,91.64,269,93.13,264.81,94.74ZM83.66,140c1.09-3.48-1.4-7.2-1.1-11.19.09-1.19.15-3.52-2.08-2.9-1.66.46-1.43,2.13-.89,3.76a28.45,28.45,0,0,1,1.6,11.12c-.19,2.41-2.37,6.71.15,6.81C84.55,147.69,83.19,143.12,83.66,140ZM352.33,40.37C356.16,37,356,32,358.05,28c.44-.85,1.3-1.81.1-2.54-1-.6-1.78.34-2.56.94C350.74,30.18,351.48,35.16,352.33,40.37ZM105.42,109.81c-.68,6.18-1.16,10.9,1.66,15.26C106.58,120.41,110.71,115.4,105.42,109.81ZM98,134.54c-1-1.66.46-4.65-1.54-4.9-2.34-.29-2.34,2.64-2.88,4.45a9.26,9.26,0,0,0-.26,2c-.07,1.59-1,3.86,1,4.41,2.56.7,2.35-2.16,3.13-3.62A8.8,8.8,0,0,0,98,134.54Zm-77.48-1.8c0,1.46-.69,3.66,1.86,2.72,1.75-.65,5.07,1,5.12-2.28,0-2.77-2.83-4.3-5-4.53C19.66,128.36,21.13,131.35,20.51,132.74Zm232.4-69c-.15-1.34-.2-3.69-1.45-3.1a10.23,10.23,0,0,0-4.78,5c-.45,1.11,2.11,3.24,3.65,3.12C253.24,68.56,252.49,65.66,252.91,63.79Zm86.71-41.86.87-1.08c-2.15-1.23-4.17-2.84-6.46-3.6-2-.67-3.8,1.27-4,2.89-.26,2.58,2,1.08,3.21,1.19C335.39,21.51,337.5,21.73,339.62,21.93ZM63.36,5.89A65.59,65.59,0,0,0,56.6,4c-1.2-.22-2.54.92-2.18,2.12,1.07,3.63,4.65,2.23,7.1,3C62.89,9.5,63.28,8,63.36,5.89ZM10.84,135.39c-1.89,2.73-1,5.11-1.15,7.34-.07,1-.17,2.09.92,2.63,1.36.67,2.18-.44,3-1.18s1.65-1.72.83-3Zm93.85-42c-.61-1.94.49-5.77-2.25-5.51-2.51.24-1.17,3.85-1,6,.09,1.45.25,3.54,2.08,3.32C105.47,97,104.51,94.85,104.69,93.38ZM56.53,50.91c-1,1.73.36,3.21.49,4.8s-.75,3.49,1.18,4.47c.93.48,1.67-.37,1.77-1.18.25-2,1.85-4.24-.28-6C58.76,52.21,58.17,50.7,56.53,50.91Zm84.33,0c0,3.1,0,6.21,0,9.32,0,1.23.58,2.59,1.78,2.61,1.76,0,1.1-1.64,1.15-2.65A13.89,13.89,0,0,0,140.86,50.92Zm75.36,53.28c-1.24,4.78-1.21,8.45,4,10.72C220.11,110.79,219.81,107.21,216.22,104.2ZM36.15,148.56c2-3.08,3.72-5.19,4.06-8,.13-1.12-.19-2.53-1.43-2.88-1.69-.48-1.74,1.12-1.87,2.14C36.57,142.37,35,144.74,36.15,148.56Zm143,15.14c-2,.32-1.83,1.78-1.89,3.08a4,4,0,0,0,3.06,4.52c1.4.4,1.92-.67,1.57-1.69C181.21,167.56,181.71,164.85,179.19,163.7ZM221.32,54.64c-1.69,1.12-1.8,2.86-1.75,4.46.05,2.17,1.83,2.62,3.55,2.59,1.48,0,2-1.2,1.65-2.47A6.83,6.83,0,0,0,221.32,54.64Zm25,110.88c-.29-1.33.26-3.35-1.81-3.43a3.21,3.21,0,0,0-3.15,3.17c-.1,1.86,1.75,2.84,3.26,3.07C246.53,168.61,246.09,166.72,246.28,165.52ZM187.23,118.1c-1.67-3.45.78-6.72-1.89-9.38-.14-.13-1.15.25-1.15.41-.1,2.89-.9,5.9,1.25,8.45A10.5,10.5,0,0,0,187.23,118.1ZM44.42,73.82c-.76,3.51-1.33,5.71-1.69,7.94-.15.95.08,2.18,1.28,2.31s1.53-1.11,1.52-2C45.51,79.8,46.12,77.5,44.42,73.82Zm121.24,96.84c1.38-.35,3.47.31,4-1.83.3-1.24-1-1.82-1.94-1.44-1.69.65-4.45-.66-5,2C162.51,170.6,164.39,170.58,165.66,170.66ZM290.79,91.23c.15-1.56-.57-2.21-2-2.12s-2.13.85-1.95,2.2.23,3,1.76,3.07C290.53,94.45,290.39,92.46,290.79,91.23Zm-55.92,67.21c-.1-1.12-.37-2.26-1.84-2.32-1.74-.07-2.21,1.12-2.05,2.58.14,1.26.24,2.88,2,2.8S234.52,159.73,234.87,158.44ZM345.26,21.55c-1.37.21-2.8.51-2.53,2.33.2,1.38,1.46,1.73,2.68,1.73,1.55,0,2.56-.77,2.46-2.43S346.42,21.65,345.26,21.55Z" transform="translate(-7.99 -1)"/><path d="M214,1c.59,2.62-.06,4.51-2.89,5.33-2.66.78-5.11,1.36-6.92-1.65A27.58,27.58,0,0,0,201,1Z" transform="translate(-7.99 -1)"/><path d="M268.29,748.43c-3.22.25-4.72,2.6-6.39,4.8-4.82,6.36-11.07,8.89-16.48,7.25-2-.62-3-1.93-4-3.41a195.67,195.67,0,0,1-22.72-43.74c-.39-1.08-.33-2.32-.74-3.38-1.65-4.38.15-5.67,4.36-5.36a19.77,19.77,0,0,0,5.93-.54c3.49-.8,5.65-.21,4.92,4.6,3.68-2.43,7-4.2,8.76-7.82.68-1.38,1.75-2.62,3.35-2.53s1.85,1.66,2.45,2.85c3.63,7.26,4.37,14.89,3.37,22.85-.21,1.7-.86,4,1,5.07,2.31,1.28,2.59-2,4.68-2.61.36,1.75-1.31,5.14,2.93,4.28,1.47-.3,2.77,1.49,2.82,3,.09,2.33-2,1.53-3.32,1.77s-2.75-.06-3.29,1.62c2.83,3.21,6.89.41,10.16,2.25-6.4-.14-12.17,2.63-18.46,2.38l.1,1.39c5.88,0,11.75.1,17.62,0,2.26-.06,3.22.51,4.94,2.49,13.74,15.8,27.86,31.22,46.05,42.28s37.74,19,58.72,22.79a175.94,175.94,0,0,0,63.53-.08A171.37,171.37,0,0,0,476.67,799c1.16-.51,2.62-.59,3.37-2.78-10.81,0-21.37-.15-31.92.07a70.27,70.27,0,0,1-15.34-1.58c-4.8-1-9.17-2.67-11.42-7.79-1.34-3-10.7-3.62-12.28-.66-4.64,8.68-13,9.45-21.05,9.82-12.47.59-25,.27-37.49.07a37.7,37.7,0,0,1-9.78-1.73c-6.4-1.89-9.34-6.79-8.38-13.44.92-6.32,2.55-12.45,6.15-17.8,1.82-2.69,1.32-4.16-1.11-6.17-14-11.6-25.42-25.29-33.31-41.8-2.1-4.4-1.88-4.86,3.14-5.18.81,0,1.62-.29,2.43-.41,6.94-1,12.59.11,18.43,5.35,22.93,20.59,50.24,30.94,81.1,30.75,20-.13,38.61-5.93,56.13-15.45,3.22-1.75,2.21-3.39.36-5.37q-14.32-15.29-28.58-30.63c-1.87-2-3.92-1.12-6-.77-9.21,1.52-18.47,2.67-27.79,1.25-13.16-2-24.54-8-35.38-15.46C350.84,667.55,337,653.07,328.5,634c-1.89-4.25-3.46-8.66-5-13.06-.43-1.25-1.23-3.21.84-3.83,1.75-.52,2.35.8,3,2.44,8.9,24.07,27.13,38.39,50.23,47.31A90.5,90.5,0,0,0,404.09,673c-5.18-2.46-10.73-4-15.41-7.54-10.73-8-16.38-18.3-14.31-31.84.68-4.41-1-7.27-3.72-10.1q-21.42-22.35-42.8-44.73c-.77-.81-1.19-2.36-2.55-2.07s-1,1.84-1.22,2.94c-2.07,10.49-.47,20.86,1,31.23.23,1.61,1.56,3.46-1.07,3.89-2.31.37-2.61-1.76-2.78-3.37-1-9.37-3.24-18.69-1.52-28.22a3,3,0,0,0-1.23-3.35c-4.56,6.12-8,12.81-11.38,19.5-2.09,4.14-3.8,8.49-5.49,12.83-.77,2-1.84,3.43-4,2.79-2.81-.85-.72-2.79-.34-4a113.84,113.84,0,0,1,20.15-37.63c2.29-2.9,2.33-4.46-.19-7-10.67-10.93-21.2-22-31.68-33.13-2.37-2.52-3.56-2.68-6.06.31a179.43,179.43,0,0,0-27,44c-5.8,13.48-9.21,27.66-12.13,42-2.49,12.24-.89,24.47-1.47,36.68-.19,4,2.56,8.42-1.62,12-.5.42-.49,2.5,0,2.83,4.7,3.33,1.27,5.79-.37,9s-1.28,6.38,3.78,6.07c1.16-.07,2.53,0,2.61,1.58,0,1-1,1.08-1.85,1.17-1.48.16-3.94-.95-4,1.49,0,2.09,2.32,3.2,4.09,4,2.78,1.2,1.18-2.54,2.81-2.83,1.67,4.25,1.67,4.24-2.71,4.92-.46.07-1.31.22-1.31.36-.25,7.07-4.49,1.72-6.78,2-1.52.22-3.2-.65-5.4-1.18,1.71-1,4.06-.7,4-3-.06-1.9-.38-3.71-2.27-4.67-2.63-1.33-5-5.16-7.39-4.21s-1.06,5.12-1,7.8c.11,4.1-3.31,4.72-5.49,5.23-3,.7-2.58-2.59-2.95-4.57-1.29-6.84-2.52-13.69-3.86-20.51-.3-1.51-1.37-3.23,1.62-2.38a2.36,2.36,0,0,0,.86-.09c-3.93-3.09,1.93-4.21,1.36-6.82a68.8,68.8,0,0,1-1-8.86c-.16-1.91-1.48-3-2.85-3.87a5.08,5.08,0,0,1-2.41-4.55c-.29-5-.37-5,6.74-8.88-.79-1.58-2.3-1.78-3.77-1.88s-3.12,0-2.9-2.32c.2-2,.41-3.91,2.93-4.64s5.21.67,8.17,0c-1.38-2.88-3.94-2.59-6-2.64-3.55-.09-4.5-1.45-4.12-5a204.81,204.81,0,0,1,27.94-83.53,199.73,199.73,0,0,1,39.63-47.83c5.45-4.8,10.74-9.9,17.12-13.63a9.62,9.62,0,0,1,6-1.64,8.41,8.41,0,0,0,6.93-2.64c-2-1-4,.66-5.59-.5,12.52-8.71,25.45-16.54,39.79-22.07,29.8-11.48,60.63-16.61,92.36-14.31,14.65,1.06,29.08,4.79,43.3,9.05C510,455,539.32,474,563.65,500.53a190.79,190.79,0,0,1,38.43,62,196.68,196.68,0,0,1,11.34,45.28c.35,2.81.42,6.51,2.17,8.08,2.15,1.94,5.67-.28,8.61-.66a30.24,30.24,0,0,1,3.5,0c-1.71,2.4-3.82,2.41-5.87,2.37-3.4-.07-6.59.19-8.88,3.25-.71,1-3.72.28-2.3,2.65,1.2,2,2.44-.66,3.73-.62,1.25,1.35-1.13,2.23-.3,3.66,1,1.66.49,2.07-1.14.91-.63-.45-1.53-.23-1.6.51-.32,3.65-4.58,5.8-3.82,9.93,2,.38,2.94-1.39,4.35-2.05,1-.49,1.84-2.55,3.16-.8.91,1.2,0,2.54-.95,3.56a4.87,4.87,0,0,1-1.57,1.22c-6.88,3-8.35,9.47-9,15.67-.31,2.77-1.27,2.73-2.93,3.2-1.44.4-2.85.93-4.29,1.32-3.63,1-5.63,2.87-5.14,7,.65,5.53-3.76,3.47-6.48,4-3.65.72-3.15-1.64-3.16-3.85a26.66,26.66,0,0,1,1.12-7.8c2.58-8.79,1.36-17.87,1.4-26.82,0-8.37-.28-16.82-3.22-25.58-4.36,6.08-9.86,10-13.92,15.91-5.55,8.05-12.07,16.38-19.46,22.33-8,6.48-8.84,13.51-9.36,21.94-.21,3.35.67,6.92-1.45,10.42-1.9-2.31-1.15-4.76-1.23-6.92-.15-4.07-3.47-2-5.67-3.23,2.9-1.47,6.64-1.76,5.44-6.58-1.65-6.61-7-2.2-11.29-4.14,3.33-.76,5.64-1.32,8-1.8.89-.19,1.77-.53,1.64-1.48a1.56,1.56,0,0,0-2-1.13c-7.23,1.24-5.38-3.23-4.27-6.95,7-23.46-2.74-42.82-15-61.58-.16-.24-.57-.32-.86-.47a1.24,1.24,0,0,0-1.07,1.41c2.26,25.71-6.12,48.44-19.49,69.79a76.77,76.77,0,0,1-20.36,22.27c-1.95,1.38-3,2.56-.6,5,7.26,7.5,14.19,15.32,21.16,23.1,2.12,2.37,3.77,2.91,5.81-.11,1.56-2.32,3.75-4.22,5.29-6.55,1.78-2.71,4.26-3.51,7.22-3.65,6.81-.31,13.64.58,20.44-.77,3-.59,2.68,1.29,2,3.4-3.25,10.76-8.39,20.64-14.33,30.09-1.74,2.75-1.93,4.67.35,7,5.83,5.94,11.64,11.89,17.31,18,2.17,2.33,3.49,2,5.55-.28a170,170,0,0,0,33.07-56.53c1.25-3.53,2.82-4.69,6.37-4.59,7.83.2,15.67.14,23.5,0,2.79,0,3.75.32,2.82,3.6-6.67,23.33-17.74,44.36-32,63.89-10.17,13.91-21.57,26.76-35,37.37a224,224,0,0,1-49.32,30.08,205.91,205.91,0,0,1-46.71,14.27,211.72,211.72,0,0,1-66.57,1.18c-32.89-4.62-62.46-17-89.18-36.37a205.27,205.27,0,0,1-34.94-32.62c-2.45-2.85-1.15-4.85.79-6.9C258.68,760,263,753.83,268.29,748.43Zm110.4-209.34c14.56.13,24.94,8.29,28.69,21,3.35,11.34-2.12,25-12.62,31.51-5.48,3.41-5.57,4.08-1.27,8.86a40,40,0,0,1,3.17,3.83,4,4,0,0,0,4.72,1.84,50.87,50.87,0,0,1,22.63-1c9.41,1.87,17.93,5.62,23.91,13.17,10.83,13.65,11.15,23.64,2.25,38.85-.76,1.31-1.94,2.76-.13,3.86s3.36.13,3.66-1.87c.39-2.58,1.44-3.21,4-2.77,1.14.2,2.71-1.09,3.83-2,20.15-16.64,34.15-37.18,39-63.19,1.93-10.44,3.61-21.52.43-31.58-7.92-25.08-24.3-43.67-48.08-55.18-16.32-7.9-33.61-11.12-51.7-8-26.64,4.62-47.45,18.19-62.22,41-1.38,2.12-1.46,3.24.36,5,4.27,4.18,8.42,8.51,12.43,12.94s3.78,4.37,6.32-1C362.61,544.79,370,539.48,378.69,539.09Zm193.24,65.18c4.81-5.75,5.38-11.82,2-17-3.11-4.81-8.5-6.41-14.84-4.16-2.45.86-4.26.53-5.51-1.74s.25-3.86,2-4.86c3.82-2.11,7.78-3.64,12.31-2.18,2.91.94,4.36.32,2.76-3-.42-.89-.57-1.91-1-2.82-9.87-22.62-24.4-41.83-42.8-58.16-3-2.69-5.76-5.87-9.87-7.66a8.65,8.65,0,0,0-.56,2.11c.55,14.94-5.86,27.67-12.72,40.27-.88,1.6-2.39,3.3-1.73,5.06,2.62,7,3.27,14.84,7.52,21,8.26,12,15.74,24.24,21.29,37.7.56,1.37.12,5.46,3,3.36,2.32-1.68,8.71.95,6.86-6.17a14,14,0,0,1,8-16.55c6.15-2.7,13-.79,17.73,4.82C568.9,597,570.38,600.3,571.93,604.27ZM340.37,486.57a2.37,2.37,0,0,0,1.8,1.57,91,91,0,0,1,27.38,11.76c2.36,1.51,4.57,1.1,7.05,0a86.09,86.09,0,0,1,22.13-7.31A90.44,90.44,0,0,1,454.9,501a6.27,6.27,0,0,0,6.5-.14,102.76,102.76,0,0,1,17.26-7.83c4.75-1.5,9.53-2.93,14.59-4.48C464.6,464.12,375.43,463.18,340.37,486.57ZM403,567.09c1-11.7-8.19-21.71-18.7-23.08-11.41-1.49-20.14,4.69-23.76,16.59-.9,2.95-.2,4.95,1.65,7.23,5,6.2,11.29,11.23,16.19,17.56,2.6,3.36,5.64,6.37,11,3.65C398.42,584.43,403.41,577.67,403,567.09Zm108.53-59.42c0-8.6-2.14-12-9-13.06-13.1-2-24.78,2.14-35.75,8.9-1,.59-2.12,1.23-1.52,2.71,1.08,2.71,8.27,5.11,11,3.84a111.92,111.92,0,0,1,28.94-8.89c1.59-.27,3.57-.86,3.89,1.66.26,2.13-1.29,2.83-3.07,3.2-2.93.61-5.88,1.12-8.77,1.89-5.46,1.45-10.93,2.86-16.27,4.66-2.67.9-4.38,2.72-1.33,5.45,7.39,6.6,12.82,14.75,17.95,23.11,1.44,2.35,2.31,1.88,3.33-.16C506.14,530.42,511.5,519.89,511.55,507.67ZM333.06,491.6c-2.72-.49-5.68,2.36-9,4-2.7,1.35-6.38,2-5.64,6.4.55,3.3-1.87,7.27-.71,9.49,4,7.57,5.24,16.74,13.14,22.27,2.75,1.91,3.65,2.54,5.64-.29a93,93,0,0,1,13.94-16.24c4.12-3.68,3.9-4.29-1.28-6.56-7.84-3.43-16.14-5.2-24.41-7.13-1.73-.4-3.53-1-3-3.14s2.44-2,4.12-1.51c10.24,2.76,20.82,4.54,30,10.42,1.79,1.15,9.79-2.43,10.48-4.58.41-1.3-.56-1.8-1.38-2.29A75.75,75.75,0,0,0,333.06,491.6ZM414.7,608.4c-2.63.16-5.95.31-9.26.59-1.93.16-3.06,1.14-1.25,2.81,6.57,6.05,11.68,13.5,18.75,19.13,2.29,1.83,3.07,1.27,4.78-.16,3.3-2.78,6.84-2.33,10,.22s4.36,8.61,1.74,10.78c-5.28,4.38-1.79,6.64,1.34,9.39a29.65,29.65,0,0,1,3.14,3.2c1.74,2.07,3.06,1.49,4.21-.54,5-8.76,6.47-17.82,1.32-27C442,613.68,430.16,608.33,414.7,608.4Zm123.17,29c.15,3.29.22,5.58.37,7.86.2,3.11,1.52,3.71,4.11,1.91,4.33-3,8-6.47,9.57-11.72.51-1.68.93-3.4,3-4.27,6.06-2.51,9.51-7.61,12.13-13.29a10.79,10.79,0,0,1,4.39-5c5.86-3.61,8.06-8.21,6.73-13-2.4,4-4.07,8.55-9.34,10.92.6-3.79-.57-6.61-1.2-9.5-1.07-4.89-7.48-10.42-12.06-10.78-4.91-.38-10.14,3.1-12.06,8-3.1,8,4.15,17.49,13.53,17.92,2.37.11,6-1.33,6.8,1.07.75,2.16-2.05,4.65-3.67,6.71s-3.78,4-6.16,3.65c-2-.28-.91-3.49-2-5.12-.35-.51-.26-1.31-.51-1.91-3.11-7.41-11.54-10.52-16.48-6.08-.72.64-1.84,1.34-1.27,2.41s1.64.45,2.55,0c4.51-2.17,8.55-1.32,11.54,2.57,2.15,2.79,3.9,6.63,1.69,9.63-2,2.72-5.71,1.72-8.8.49-1.23-.49-3-2.51-3.77-.76-1,2.26,1.86,2.66,3.39,3.35a14.06,14.06,0,0,0,3.43.56c1.72.27,4.07-1,5,1s-.92,3.69-1.9,5.36c-1.28,2.18-3,4.71-5.47,4.63C538.05,643.84,540.39,639.92,537.87,637.4Zm-158.23-3.8c-1.48-.2-1.74.59-1.69,1.46.19,3.8-.55,7.62.71,11.39,4.91,14.68,16.67,20.31,30.49,23.23.93.19,2.16.38,2.62-.79s-.73-1.67-1.37-2.37q-14-15.21-28-30.43C381.49,635.13,380.43,634.32,379.64,633.6ZM496.08,789.48c5.89-4,10.75-7.39,15.68-10.67,3.16-2.1,3.43-4.32.41-6.63-5.43-4.16-9.47-9.71-14.42-14.35-2-1.84-3.33-3.53-6.22-1.43s-2.3,4-.69,6.66C495.49,770.7,498,778.91,496.08,789.48ZM227.63,666.08c-1.68.46-4-.92-5.13,1.7-2.88,6.58-.95,12.63,5.2,16.12,4.34,2.46,4.8,2.06,5.23-2.72.36-4.08-1.77-4.36-4.81-4-1.06.11-2.68.66-2.81-1s1.57-1.51,2.61-1.4c4.09.43,5.13-1.6,5.07-5.32C232.92,665.29,230,666.37,227.63,666.08Zm313.43-47.39c-2.38-.21-3.86.89-4.12,3.23-.3,2.66,4.42,6.61,7.67,6.48,1.5-.06,3-.32,3.16-2.38C548,622.57,544.54,618.78,541.06,618.69Zm-226.22-102c.28-3.58-1.11-6.67-.79-10,.11-1.2-.21-3.58-1.33-3.29a16.69,16.69,0,0,0-6.27,3.6c-.92.8-.53,2.72.81,3.42C310.21,511.92,312.26,514.48,314.84,516.66Zm259,63.67a10.43,10.43,0,0,0-1.08-1.35c-3-2.73-11.93-3.22-15.17-.89-.56.4-1.12.8-1,1.55a1.25,1.25,0,0,0,1.93.85,13,13,0,0,1,13.21.94C572.73,582,573.7,582.2,573.85,580.33ZM216.48,695.17c.89-8,.77-10.25-.52-13.18A28.8,28.8,0,0,0,216.48,695.17Zm15,14.19c-3.16-.86-6,.77-8-1.62-.74-.88-2-1.68-2.53.31-.32,1.21-.13,2.6,1.43,2.61C225.16,710.66,228.13,711.66,231.5,709.36ZM223,638.68h9.24C229.24,636.79,226.12,637.36,223,638.68ZM557.12,619c-1.07.26-2.91-.78-2.93,1.38,0,1.38.13,3.33,2.11,3.25a3.69,3.69,0,0,0,3.32-3.14C559.91,618.74,558.15,619.23,557.12,619Z" transform="translate(-7.99 -1)"/><path d="M290,651.71c-1.13-9.73,2.68-20.16,4.41-30.87.29-1.82.18-5.11,3.46-4.27s1.6,3.46.93,5.34c-2.39,6.62-2.53,13.64-3.65,20.47-.69,4.2-.15,8.46-2.83,12.39-1.64,2.41-.07,5.44,1,8.07.46,1.13,2,2.1.83,3.52-.27.31-1.25.27-1.79.09a3.27,3.27,0,0,1-2.38-3.39C290,659.73,290,656.41,290,651.71Z" transform="translate(-7.99 -1)"/><path d="M360.1,235.76c-11.78,1.43-22.68,8.13-35.72,6,4.76-6.52,12.25-1.76,17.51-5.9S353.86,234.43,360.1,235.76Z" transform="translate(-7.99 -1)"/><path d="M592.51,685.93h-13c-.76,0-1.81.35-1.95-.85a1.75,1.75,0,0,1,1.68-2.06,131.5,131.5,0,0,1,27.34-.48c1.15.1,2.58.31,2.32,1.91-.18,1.15-1.42,1.26-2.43,1.26h-14Z" transform="translate(-7.99 -1)"/><path d="M388.68,76.41c-.39-3.11,2.05-3.68,4.08-3.94,8.14-1,16.25.1,24.37.72.33,0,.63.65,1.29,1.38-10.14,1.82-20.05.93-29.83,1.81Z" transform="translate(-7.99 -1)"/><path d="M440.52,88.55c-4-3.73-10.07-3-14-6.82a6.79,6.79,0,0,0-2.45-1.56c-1.09-.4-2.39-.46-2.5-2a1.89,1.89,0,0,1,1.28-1.94c1.33-.52,2.94-.61,3.63.65,1.5,2.74,3.73,2.41,6.32,2.54C438.16,79.72,439.3,84.17,440.52,88.55Z" transform="translate(-7.99 -1)"/><path d="M516.85,688.92c-1.61,0-3,.09-4.27,0-1-.08-2.68.64-2.42-1.37.13-1.08,1.2-1.46,2.29-1.48,6.86-.1,13.79.75,20.46-1.65,1.07-.38,2.05-.22,2.12,1.19.09,1.74-1.14,2.27-2.57,2.37C527.16,688.31,521.86,688.61,516.85,688.92Z" transform="translate(-7.99 -1)"/><path d="M393.51,114.76c-5.67,4.21-11.09,3-16.31,3a1.34,1.34,0,0,1-1.44-1.11c-.13-1,.6-1.4,1.39-1.81C382.23,112.21,387.3,112.93,393.51,114.76Z" transform="translate(-7.99 -1)"/><path d="M309.46,702.13c-2.87,1-5.3-1.7-7.33,2-.59,1.1-3.13-1.74-4.19-3.31s-1.54-3.4.06-5c.32-.33,1.06-.74,1.27-.61C302.7,697.48,306.07,699.82,309.46,702.13Z" transform="translate(-7.99 -1)"/><path d="M298.08,204.66a2.1,2.1,0,0,1-2-1.2c-.38-.84-.31-2,.37-2.27,4-1.78,6-5.44,8.75-8.47.92-1,1.84-.47,2.15.75C308,195.9,300.59,204.76,298.08,204.66Z" transform="translate(-7.99 -1)"/><path d="M440.14,94.69a4.65,4.65,0,0,1-1.94,3.72c-2.06,1.56-4.51,2.63-5.72,5.24-.61,1.33-2.23,1.28-3.55.95-.55-.14-1.42-.73-1.42-1.12,0-1.47,1.54-1.42,2.4-2.09,2.53-2,5.46-3.67,6.25-7.2a1.77,1.77,0,0,1,2.1-1.61A2.29,2.29,0,0,1,440.14,94.69Z" transform="translate(-7.99 -1)"/><path d="M388.59,76.38c-3.5,2.18-7,4.26-11.41,3.87-1.69-.15-4.2.35-4.06-2.31.13-2.2,2.38-2.59,4.22-2.5,3.77.19,7.53.62,11.32,1Z" transform="translate(-7.99 -1)"/><path d="M374.14,119.25c-2.45,2.13-11,3.27-13.19,2a2.19,2.19,0,0,1-1-1.48c0-1,1-1.2,1.75-1.41A18.36,18.36,0,0,1,374.14,119.25Z" transform="translate(-7.99 -1)"/><path d="M356.5,124c-3.39,1.86-6.63,3.7-9.94,5.42a3.16,3.16,0,0,1-3.75-.37c-1.21-1.13-.62-2.43.65-2.67a20.38,20.38,0,0,0,9.28-4.08C353.85,121.41,355.59,122,356.5,124Z" transform="translate(-7.99 -1)"/><path d="M322,154.63c-2.83-.71-3.77-3.24-4-5.53-.15-1.76,1.1-3.69,1.9-5.46a1.53,1.53,0,0,1,2.11-.7,1.56,1.56,0,0,1,.91,2c-1.18,2.6-1.15,4.85.73,7.24C324.52,153.3,323.41,154.29,322,154.63Z" transform="translate(-7.99 -1)"/><path d="M27,187.86c1.9.35,4.37.45,4.15,3.15-.17,2.12-2.32,2.73-4.21,2.63s-4.39-.22-4.13-3.1C23,188.23,25,187.92,27,187.86Z" transform="translate(-7.99 -1)"/><path d="M409.07,116.15c1.69-4.12,5.69-6.49,7.19-10.66.25-.68.87-1.09,1.51-.6a2,2,0,0,1,.51,2.25C417,112,413.28,114.27,409.07,116.15Z" transform="translate(-7.99 -1)"/><path d="M291.06,673.66c.24-1.24-.47-3,1.74-2.89,2,.09,3.74.82,3.39,3.22-.23,1.57.51,4.18-2.3,4.11S291.73,675.29,291.06,673.66Z" transform="translate(-7.99 -1)"/><path d="M323.46,243.2c-4,2.63-7.55,2.07-10.92,2.32a1.6,1.6,0,0,1-1.9-1.24c-.18-1.4.95-1.61,1.94-1.59C315.86,242.77,319.18,242.1,323.46,243.2Z" transform="translate(-7.99 -1)"/><path d="M325.46,141.72c-.19,0-1.36-.78-.6-1.73a37.4,37.4,0,0,1,5.63-5.4c.54-.45,2.19.48,1.8.91C330.34,137.61,328.07,139.41,325.46,141.72Z" transform="translate(-7.99 -1)"/><path d="M724,537.64c-.06,1.36-.07,2.88-2,2.76a2.83,2.83,0,0,1-2.7-3,2.12,2.12,0,0,1,1.92-2.46C723.09,534.77,723.86,535.9,724,537.64Z" transform="translate(-7.99 -1)"/><path d="M299.12,684.76c-2.1,1.13-4.07,2.1-5.56-.36-.59-1-1-2.53.43-3.46.72-.45,2.06-.34,2.05.38C296,683.41,298.56,683.06,299.12,684.76Z" transform="translate(-7.99 -1)"/><path d="M656.67,558.43c1.12,2.19.48,4,.52,5.81,0,1.08.68,3.13-1.57,2.72-1.61-.3-1.63-2-1.27-3.3C654.81,562,654.88,560.11,656.67,558.43Z" transform="translate(-7.99 -1)"/><path d="M376.7,135.4a15.61,15.61,0,0,1-2.1,1.67,5.33,5.33,0,0,1-5.14,0c-.67-.4-.91-1.2-.38-1.59,1.4-1,3.11-.66,4.72-.56C374.44,134.93,375.06,135.1,376.7,135.4Z" transform="translate(-7.99 -1)"/><path d="M655.65,544.9c-1.81.43-3.41,3.1-5.45.75-.86-1-1.65-3,.85-2.44C652.5,543.57,654.18,543.67,655.65,544.9Z" transform="translate(-7.99 -1)"/><path d="M679,544.5c-.48-.57-.78-.79-.87-1.07-.59-2-2.14-3.93-.6-6,.39-.55,1.3-.2,1.69.36C680.75,540,680.28,542.13,679,544.5Z" transform="translate(-7.99 -1)"/><path d="M558.92,100.37c3.38.15,11.34,7.39,11.79,10.65.1.76-.05,1.36-.69,1.64-.36.15-1.17,0-1.31-.2-1.57-2.76-6-2.26-6.71-6.15-.35-1.9-2.51-1-3.88-1.29s-2.64-1-2.54-2.54C555.72,100.49,557.36,100.37,558.92,100.37Z" transform="translate(-7.99 -1)"/><path d="M78.12,343.6c0-5.46,0-9.45,0-13.44,0-2-.13-4.18,2.37-4.91a5.57,5.57,0,0,1,6.2,2.08c3.16,3.8,3.57,8.55,4.31,13.07,1,6.4,1.5,12.86-1,19.18a10.4,10.4,0,0,1-4.37,5.23C82.07,367,80.24,366,79.33,362,77.86,355.41,78.21,348.77,78.12,343.6Z" transform="translate(-7.99 -1)"/><path d="M667.27,258.38a38,38,0,0,1-1.6,17c-.52,1.5-1.15,3.17.62,4.55a1.89,1.89,0,0,1,.16,2.71c-.75,1-1.75.5-2.7.08a4.61,4.61,0,0,0-2.34-.66c-6.55,1.23-8.72-3.18-9.79-8.09-2.07-9.53-4.47-19.12-1.38-28.95,1.07-3.42,2.13-6.94,6.23-7.57,4.36-.67,6.57,2.34,8.39,5.74C667.31,247.81,667.45,252.75,667.27,258.38Z" transform="translate(-7.99 -1)"/><path d="M271.46,321c-.36,5.74.7,12.41-5.75,16.94-3.52,2.47-4.66.83-5.6-2.22a2.5,2.5,0,0,1-.09-1c.78-10.1-2.82-19.89-2.06-30,.2-2.68-.23-5.6,3.08-6.57s5,1.39,6.44,3.62C271.2,307.47,271.33,314,271.46,321Z" transform="translate(-7.99 -1)"/><path d="M473.43,567.92c.33,14.7-11.16,27.26-26.68,28.2-12.5.77-26.25-14.38-26.07-28,.21-15.74,11.92-28.28,26.39-28.25C461.9,539.91,473.47,552.22,473.43,567.92Zm-4.9.09c0-13.73-8.41-23.19-20.67-23.23a22.46,22.46,0,0,0-22.44,22.64c-.06,12.44,10.13,24,21.46,24S469.63,580.2,468.53,568Z" transform="translate(-7.99 -1)"/><path d="M395.63,571.78c-.07,4.24-3.9,8.45-7.66,8.41-4.3,0-8.65-4.62-8.4-8.84.23-4,4.36-8.27,8-8.29S395.7,567.71,395.63,571.78Z" transform="translate(-7.99 -1)"/><path d="M566.22,608.36c1,4.9-2.5,5.42-6.28,5.52-8,.2-14.57-5.07-14.48-11.54a8.5,8.5,0,0,1,8.32-8.64C561,593.66,566.13,599.57,566.22,608.36Zm-7.11,3c3.73,0,4.73-.78,4.86-3.95.22-5.5-4.69-11.17-9.71-11.21-4.13,0-6,2.43-6.22,6.17C547.79,607.28,553,611.34,559.11,611.4Z" transform="translate(-7.99 -1)"/><path d="M441.79,580.3a7.72,7.72,0,0,1-8-7.66c0-4.32,4-8.72,8-8.76s8.07,4.33,7.94,8.65A8,8,0,0,1,441.79,580.3Z" transform="translate(-7.99 -1)"/></g></g></svg>