<svg xmlns="http://www.w3.org/2000/svg" viewBox="0 0 843.93 890.29"><title>destiny</title><g id="Layer_2" data-name="Layer 2"><g id="Layer_1-2" data-name="Layer 1"><path d="M433,1a77.15,77.15,0,0,1,23.57,12.58,57.77,57.77,0,0,1,16.15,19.31c6.43,12.38,8.44,26.1,12.12,39.35,2.5,9,6.45,17.57,10,26.26,1.8,4.47,2.6,9.24,6.79,12.84,2.62,2.25,4.1,6.39,3.61,10.5a5.44,5.44,0,0,0,.14,2.48c4.38,11.77-1.34,21.87-5.51,32.1-5.45,13.38-17.91,18.86-29.66,24.85a8.28,8.28,0,0,1-7.16-.42c-1.12-.63-2.26-2.12-3.08-.21a2.79,2.79,0,0,0,1.81,3.65,61.44,61.44,0,0,0,8,2.3C478,188.28,481.61,192,483,200.43c.17,1.1-.68,3.09,1.74,2.6,3.51-.7,5.91,1.24,8.53,3.06,1.91,1.33,3.84,2.37,6.58.65a6.73,6.73,0,0,1,7.16-.09c2.93,1.7,6.48.22,9.6-.35,5.57-1,10.84.79,16.23,1.1,13.49.8,25.81,6.27,37.63,12.16A75.15,75.15,0,0,1,598,243c7.27,10,13.53,20.48,17.7,32.17a40.26,40.26,0,0,1,2.5,8.59c.13,1.09-.2,2.83,1.35,2.73,1.73-.12,4.59-.87,4.4-2.5-.83-7.14,4.38-11.87,6.44-17.82,1.22-3.53.87-5.29-3.3-6.43s-4.63-5.75-4.33-9.06c.37-4.06-1.17-7.64-2.34-10.92-1.08-3-1.32-5.31,0-7.82,1.24-2.34,0-4.23-.66-6.16-1.53-4.34-2.89-8.51.71-12.6,1.08-1.24.32-2.54-.57-4-4.06-6.62-3-13.29,3.19-18a6.63,6.63,0,0,0,2.87-6.76c-1-10,4.06-12.65,12.9-11.27,4.12.64,8.06,2.47,12.34,2.62a1.35,1.35,0,0,1,.93.32c6.24,8.19,16.92,8.35,24.73,13.66,6.11,4.16,8.94,10.48,10.32,17.43.77,3.9,1.07,7.88,2.89,11.5.69,1.39,1.25,3,.78,4.34-2.63,7.71-2.59,15.88-4.13,23.77a40.55,40.55,0,0,1-9.18,19.39c-2.09,2.43-2.36,6.45-3.42,9.76-.52,1.6.44,2.15,1.79,2.15,6.32,0,12.49,1.43,18.53,2.78,5.57,1.23,11.18,2.5,16.73,3.91a25.42,25.42,0,0,0,5.69.5c8,.26,15.55,3.71,24,3.06.27-1.67.63-4.28,1.14-6.87.29-1.49.85-3.18,2.64-3.17,2.14,0,1.13,1.91,1.36,3.06a25.08,25.08,0,0,1,.91,3.81c.16,4.52,2.33,5.47,6.81,6.18,7.1,1.12,14.19,2,20.67-.65s12.22-1.27,18.13.56c5.22,1.61,5.65,4.88,1.72,8.78-3.15,3.13-7.08,4-11.21,4.23-2.73.13-3.65.72-2.3,3.53,7,14.56,8.84,30.67,13,46,4.68,17.17,8.51,34.65,12.13,52.11,3,14.56,5.85,29.17,9.1,43.69,3.56,15.81,7.2,31.61,10.73,47.43.51,2.26,2,3.7,3.37,5.38,2.35,2.92,2.83,5.38-1.4,7.46a19.55,19.55,0,0,0-7.58,6.88c-2.4,3.61-6.77,4.75-10.6,6-12.57,4.16-24.61,9.63-37,14.28-3.64,1.36-6.89-.2-10.27-.39a80,80,0,0,1-33-9.08c-5.72-3-11.74-5.29-16.24-10-4-4.15-7.43-8.85-11.18-13.25-1.24-1.47-.19-2.66.52-3.54,5.26-6.43,7.62-13.92,9.74-21.88,1.63-6.1,4.73-11.91,6.44-18.15,1.22-4.44,3.32-8.68,4.17-13.17,1.07-5.65,4.13-10.31,6.26-15.44,4.07-9.8,6.64-20.11,9.86-30.21,2.39-7.5,5.06-14.92,7.83-22.29,2.84-7.57,4.72-15.48,7.53-23,3-8,6.25-16,9-24.15,2.52-7.55,5.09-15.08,7.45-22.67,1.39-4.52-.1-6.07-4.57-4.74-4,1.19-8,2.33-12.21,2-2.28-.16-3.06,1-2.62,3.07,1.09,5-.41,9.82-1.53,14.57-1.31,5.57-3.38,6.71-8.95,5.82-4.61-.73-7.15-3.82-7-8.55.1-2.79.84-5.47.82-8.33,0-6-1.75-8.38-7.94-8.35a17.81,17.81,0,0,1-7.16-1.5c-10.22-4.31-21.15-2.84-31.75-4a112.42,112.42,0,0,0-11.9-.48c-5.92,0-9.83,5.25-6.87,10.32,2.4,4.13,1.17,8.15,1.86,12.16,1.14,6.71.36,13.68,2.88,21.55,1.92-5,.51-8.79.31-12.48-.41-7.93-2.16-15.76-2.06-23.75,0-1.59-.48-3.56,1.84-4,2.49-.52,2.88,1.36,3.59,3.14,3.4,8.58,3.89,17.75,5.53,26.67,2,10.74,3,21.63,4.07,32.51,1.38,14.41,2.25,28.83-3.28,42.55-2.71,6.69-6.59,13-13.69,16.42-2.25,1.1-3.21,3.3-3.36,6.18-.57,10.55-4.15,20.21-9.74,29.14a8.88,8.88,0,0,0-.81,1.25c-4.18,10.15-13.5,14.93-21.53,21.23-7,5.52-15.43,6.23-23.35,8.71a3.8,3.8,0,0,1-2.47,0c-11-4.78-24.49-4.71-31.14-17.9-2.8-5.55-8.26-9.67-11.47-15.45-3.72-6.68-4.29-14.25-7.4-21-.59-1.29-.75-3.35-2.62-3-1.42.25-1.32,2.19-1.47,3.43-1,8.18.68,16.18,2.08,24.18.14.8-.53,3.86,2.78,1.84,1.29-.78,2.73,3,3.22,4.69,2.33,8.24,4.69,16.5,5.57,25.08.15,1.47.87,3.12.44,4.39-2.62,7.79.32,14.93,2.28,22.18,2,7.48,2.23,15.42,5.72,22.55.66,1.34.87,2.87,2.29,3.7,3.88,2.26,3.21,5,.61,7.64-7.19,7.37-14.91,14.1-24.52,18.18-3.61,1.53-5,3.12-1.56,6.21,6.24,5.54,7.11,13.26,8.44,20.78,1.72,9.73,4.38,19.33,4.79,29.25.47,11.19,3.28,22.07,2.86,33.51-.29,7.82,1.37,16,2.17,24.08,1,9.84,1,19.76,1.33,29.61.67,19.26,2.86,38.43,2.85,57.71,0,11.49,0,23,0,34.48a41.15,41.15,0,0,1-1.5,10.8c-.76,2.9-2.07,4.78-5,4.24s-7-.4-7.19-4.72c-.33-7.09-2.61-14-2.41-21,.45-15.76-1.5-31.39-2.14-47.09-.44-11-.3-21.91-.72-32.86-.74-19.23-2-38.4-3.85-57.56-.91-9.2-1-18.58-2.35-27.73-1.5-10.15-1.14-20.39-2.49-30.52-.94-7.07-1.7-14.19.64-21.22.82-2.49,0-3.73-3-2.85-9.67,2.85-19.52,5.22-29.58,5.71-12.39.61-24.72,0-36.12-6.08-6.22-3.34-12.77-6.06-18.89-10.71-.53,4.37.15,8.22-1.2,11.85-1.48,4-4,7.66-8.17,7.68-4,0-6.64-3.59-7.7-7.45-1.74-6.38-3.25-12.87-1.15-19.9-4.33.9-8.26,1.47-10.46-3.14-2.79,2.3-1.47,5.23-1.94,7.69a249.63,249.63,0,0,0-4.1,34c-.33,6.34-2.56,12.51-2.88,19-.48,9.59-2.41,19.11-2.83,28.69-.39,8.65-1.78,17.11-3.1,25.59a43.68,43.68,0,0,0-.13,15.34,3.78,3.78,0,0,1,0,2.42c-3.54,5.51-1.64,11.69-2,17.51-.69,10-1.08,20.15-1.46,30.21-.2,5.27-.16,10.8.17,16.22a233.3,233.3,0,0,1-.29,26,6,6,0,0,1-3.07,5.35c-2.75,1.35-2.31,4.63-3.63,6.88-.88,1.5-1.68,3-3.76,2.52-1.91-.43-2.56-1.81-2.7-3.68-1-13.82-.26-27.61.45-41.42.5-9.78,1.53-19.55,1.32-29.37-.1-4.37-.63-9.16,5-11.22,1.12-.41,1-2,1-3.16-.25-19,2-37.91,3.38-56.85.46-6.4,2.22-12.69,2.87-19.09,1.11-10.86,1.77-21.77,2.69-32.65a82.75,82.75,0,0,1,2.37-14,63.53,63.53,0,0,0,1.41-9.43c.86-8.42,3.26-16.5,4.53-24.8.61-4,4.12-6.28,4.56-10.57.39-3.83-.91-4.51-3.62-4.25-8.85.87-17.62-.63-26.43-.63-2.46,0-4.91-.7-7.38-.78s-5-.33-4.81-3,1-5.91,4.84-5.76c6.12.24,12.17,0,18.35,1.1,7.23,1.27,14.81-.19,22.13-1.38,2.45-.4,2.56-3.43,2.94-5.33.44-2.23-2.25-1.63-3.33-1.77-4.6-.63-9.25-.91-13.89-1.11-9-.38-18-.16-26.9-1.08-7.53-.77-15.2-.53-22.6-2.56-1.67-.46-3.64-.63-3.3-2.8S369,505,370.32,505c8.64-.13,17.23,1.4,25.81,1.32,10.71-.09,21.34,2.61,32.09.66,2.19-.39,4.56.26,6.85.42,1.93.15,4,.77,4.6-2.18.26-1.23,1.57-2.18,2.36-.32,1.48,3.5,4.32,2.89,7.11,2.8,4.91-.16,10-1.49,14.35,2.13a212.94,212.94,0,0,0,8.64-30.23c-24.8,1.18-50-.56-76.13,2.18,2.81,2.38,7.14-.32,6.76,3.55-.27,2.81-3.83,2.5-6.33,2.41-4.22-.15-8.44-.48-12.66-.47a14.2,14.2,0,0,0-5.8,1.05c-7.46,3.48-14.61,3.3-22.76,1.41a102.1,102.1,0,0,0-20.12-2.86c9.37,8.18,16.28,17.06,24.56,24.57,2.17,2,2.4,4.6,3.76,6.81,4.46,7.25,10.41,13.59,13.42,21.74,1.26,3.42,4.37,5.29,6.86,7.7,3.43,3.32,3.31,6.8-.58,9.57-2.21,1.57-4,4-7.31,3.82-2.94-.12-2.82,2.41-2.58,4.37.37,2.93,2.14,5.12,4.24,7.13,9.59,9.18,7.78,23.33-2.13,31.88-3.29,2.84-6.57,5.46-10.84,6.78-2.2.69-2.46,2.31-1.85,4.78.71,2.88,2.9,4.7,3.81,7.43,2.36,7.13,1.87,14.49,2.83,21.69,1.38,10.36,1.8,20.79,3.34,31.1,1.61,10.8,3.06,21.63,4.58,32.44.5,3.61-1.27,6.82-4.22,7.57s-7.31.69-8.69-3.62c-1.73-5.37-5.09-4.73-9.26-3.35a10.14,10.14,0,0,1-8.16-.39c-3.52-2-3.69-4.91-1.5-8,1-1.42,1.92-2.26.36-4.18-6.36-7.84-2.88-13,6.11-13.88a42.19,42.19,0,0,1,4.5-.06c2.05,0,3.16-.86,2.88-3-1.84-14.36-1.22-29-3.92-43.26-.79-4.19-.31-8.64-.22-13a10.81,10.81,0,0,0-2.58-7.61,17.7,17.7,0,0,0-4.29,9.35c-1.94,12.89-3.34,25.9-6.45,38.57-3,12.2-6.59,24.24-8.62,36.68-.74,4.53,1,9.4-2,13.63-1.67,2.36-2.93,6.9-6.07,5.12-2.91-1.65-6.8-4.69-5.81-9.47.45-2.18.52-3.44-2.13-3.86-6.07-1-9.92-8.69-6.89-14.42a10.71,10.71,0,0,0,1.19-7.94c-1.31-6.24,3.64-10.41,9.55-8.38,3.56,1.23,5.31.79,5.95-3.65,1.53-10.6,4.31-21,6.7-31.42,1.94-8.52,5-17.18,1.56-26.25-1.26-3.29-2.28-6.65-4.52-9.35a23.15,23.15,0,0,1-5.62-14.55c-.09-3.75-2.54-2.39-4.37-2.71a18.62,18.62,0,0,1-2.95-1.06c-2.57,3.11-1.68,7.11-1.31,10.2,1.48,12.3-1.81,24.24-1.77,36.38a4.74,4.74,0,0,1-3.16,4.67c-6.38,2-10.52,8-17.45,9.19-2.25.37-3.5,3-.61,5,1.93,1.31,2.87,4,6,3.82,1.24-.08,1.62,1.55,1.44,2.78-1,7.22,1.39,14.41.08,21.65-.46,2.53.24,5.43-3.77,5.71-1.76.13-1.42,2-1.45,3.26-.3,10.68-.62,21.36-.83,32,0,2-.32,4.23-1.83,4.91-5.22,2.35-3.69,6.9-3.67,10.68,0,3.47.43,7,.24,10.46-.1,1.65,0,3.74-2.35,3.64-2.19-.1-2.27-2-2.21-3.78a3.68,3.68,0,0,0-1-3.46c-.19,4.24-.86,8-.42,11.57,1.15,9.57-.74,19.07,0,28.69.91,12.5-.05,25.12,0,37.69,0,4.1-2,6.06-5.72,6.82-9.5,1.94-15.45-2-15.62-11.84-.14-8.79-1.79-17.47.19-26.56,1.83-8.38,0-17.48.58-26.21.59-9.67-.89-19.47,1.95-29,1.43-4.81-1.15-9.48-.3-14.16-2.41-.93-1.65,3.53-3.85,1.7-1.26-1-.92-2.88-.47-4.24,1.43-4.34-.24-8.77.65-13.11.36-1.78.08-4.37,2.3-4.26s.91,2.72,1.3,4.19c.33,1.23-.92,2.63.8,4.07.92-3.38,2.13-6.34,1.71-9.88-1.12-9.55,2.75-18.6,3.14-28,.16-3.94.86-7.86,1.23-11.79.79-8.29,1.78-9.42,9.39-10.29-2.33-3-6.36-2.75-9-5-4.63-3.83-7.26-9.09-9.91-14.18-1.59-3.07-3.4-5.91-6-7.72-7.31-5-11.79-12-15.24-19.91-1-2.4-2.22-4.41-5.46-3.86-2.94.49-3.81-1.84-4.1-4-1.54-11.47-10-15.84-19.45-19.14a19.8,19.8,0,0,1-9.65-7.41c-5.76-8-11.6-16.21-14.13-25.8s-6.07-19.24-6.95-29.39a59.65,59.65,0,0,0-2.43-12c-2.3-7.59-1.63-15.15.21-22.55a48.48,48.48,0,0,0,1.36-10.8c.18-8,2.92-15.49,5-23.11,1.17-4.28,2.11-8.63,3.46-12.84,2.62-8.17,5.57-16.24,8.13-24.43.73-2.32.43-4.93.88-7.36,1.9-10.16,5.71-19.82,7.08-30.19,2.11-16,8.15-31.19,13-46.5A192,192,0,0,1,228.21,295c.22-.44.81-1,.68-1.26-2.9-5.49,3.41-6.72,4.78-10.25,1.54-4,3.46-7.8,7.44-10.27,1.5-.93,2.81-3.08,1-5.17-1-1.17-.69-2.73.12-3.11,3.52-1.66,5.62-5.68,9.16-6.53,3.36-.8,3-4.23,5.46-5.25,5.17-2.13,9.22-6.12,14.38-8.39,9.85-4.35,19.37-9.47,29.22-13.81,4.22-1.85,8.49-3,12.23-6.21,2.42-2.1,6.73-2.2,10.27-2.76,2.4-.38,4.53-.64,5.65-3.18.78-1.74,2.62-1.7,4.15-2.3,3.77-1.47,5.73-3.78,5.88-8.53a16.54,16.54,0,0,1,5.79-11.74c2.81-2.4,5.95-4.41,8.89-6.68,1.06-.81,2.17-2,1.78-3.34-.44-1.55-2-.44-3-.69-.32-.07-.77.13-1,0-7.47-5.54-18-5.38-23.86-14.57-3.9-6.16-7.1-12.7-11.11-18.75-2.37-3.58-6.91-6-5.34-11.35-6.06-9.57-1.27-17.22,4.6-24.45,5-6.11,6.85-13.16,9-20.61,3.67-12.83,3.37-26.36,8.9-39,3.07-7,5.77-14.27,9.28-21.17,3.13-6.14,7.55-11,14-13.44,4.28-1.59,7.45-6.48,12.38-5.37,5.64,1.28,8.66-1.27,11.68-5.26,4.12-5.42,11-5.87,16.66-8.48,1.08-.5,3.19-.55,3.85.13,3.91,4.07,7.51,1.43,11-.31,2.08-1,4.17-.8,6.3-1C421,1.66,423.69,3,426,1ZM308.7,395.27c1.85-10.23-3.81-18.1-7.94-26.46.72,9.42,2.62,18.46,8,26.38,2.62,11.05,9.09,20.16,15,29.52,3,4.8,7.59,9,3.42,15.36,0,0,.46.35.77.59,2-.67,1.24-3.86,4-4.2.35,4.54,4.19,4.26,7.34,5.36,10.91,3.82,21.33,8.24,33.68,5.49,12.15-2.71,23.93-5.71,35.18-11.24,6.9-3.39,12.47-8.46,18.39-12.95,4.16-3.15,9-5,12.95-8.24,7.14-5.86,15.33-10.09,23-15.14,8.8-5.8,17.08-12.07,23.74-20.61,5.06-6.49,7.35-14.23,11.73-21,2.27-3.49,5.34-7.88,2.67-13.18-1.11-2.19,1.12-3.87,3.37-4.57a8.52,8.52,0,0,0,5-3.62c9.28-14.14,15.86-29.65,23-44.87.65-1.38,2-3.47.17-4.49s-2.79,1.18-3.69,2.48c-4.9,7-9.73,14.08-14.6,21.13-7.82,11.3-15.73,22.54-23.43,33.92-6.55,9.68-12.84,19.54-19.33,29.26-.6.9-1.91,2-2.74,1.94-4.18-.54-5.46,2.73-7.7,5-2.08,2.16-4.26,5.43-7.75,4.43-2.56-.73-3.65.32-5,1.72-4.11,4.13-8.05,8.45-12.4,12.32-2.11,1.88-4.44,5.91-8,1.34-.9-1.17-1.81.13-2.47.71-5.69,5-11.47,10-16.95,15.23-4.52,4.34-4.93,4.56-7.54-1.12-1.28-2.81-1.92-3-4.44-1.1-4.34,3.28-9.12,6-13.76,8.85-2.25,1.4-20.24-.29-21.95-2.24-1.3-1.47-2.42-3.51-.36-5.27a7.57,7.57,0,0,1,4.41-2c10.77-.81,20.92-3.34,30-9.73,6.71-4.71,13.95-8.68,21-12.84,2.45-1.44,5.06-3.19,7.68.19,1,1.33,2.3.27,3.21-.81,5.41-6.36,12.63-10.71,18.56-16.49,1-1,2.7-2.23,3.88-2.06,4.79.67,6.46-3,9.12-5.59,3.86-3.78,5.86-9,10.63-12.18,2.95-1.94,6.41-3.24,8.65-6.45,2.9-4.15,5.91-8.46,9.74-11.67,9.34-7.82,14.54-18.74,21.74-28.1,7.59-9.84,14.19-20.52,21.52-30.63,1.14-1.57,3-2.48,4.76-1.29,2.26,1.52.24,2.73-.69,4a11.47,11.47,0,0,0-1.37,2.65c-.32.82-1.39,1.81-.12,2.57a2.28,2.28,0,0,0,2.76-.52,9.09,9.09,0,0,0,2-2.78c4.85-12.37,13.72-22.69,17.94-35.38.25-.75.83-1.88,1.39-2,5.12-.73,7.17-5.31,10.62-8.13,4-3.29,3.51-3.3-.46-6.74-7-6-15.75-7.2-23.9-9.91-11.26-3.74-23.38-3.58-34.76-7-1.71-.51-4.91-1-3.16,3.06a2,2,0,0,1-1.2,2.82c-4.93,2.31-8.54,1.3-11.73-3.38A21.06,21.06,0,0,0,489,211.4c-1.46-1.25-3.49-1.36-3.55,1.17-.17,7.22-4,12.6-8.14,18s-9,9.63-13,15c-3.25,4.32-8.56,7.24-13,10.3-11.23,7.69-22.72,15.85-37,16.89-11.95.87-24,1.37-35.2-4.27-1.77-.9-3.7-1.57-2.84-3.8.94-2.44,2.82-1.11,4.62-.64a44.3,44.3,0,0,0,17.57,1.21c.9-.13,2.13.35,2.41-1.1s-.9-1.6-1.71-2.11c-4.57-2.9-10.17-3.92-14.23-7.81a1.65,1.65,0,0,0-2.3.25c-3,4.69-5.14,1.26-7.37-.77-8.57-7.75-12.26-18.66-18-28.23-1-1.59-1.53-3.13-3.49-2.42s-1.05,2.52-.62,3.83c2.14,6.5,5.12,12.7,6.48,19.47,1.73,8.66,8.37,14.58,12.62,21.83a39.39,39.39,0,0,0,14.37,14.61c3.7,2.16,7,4.91,11.24,6.14a2.64,2.64,0,0,1,2,3.46,2.22,2.22,0,0,1-2.74,1.59c-6.91-1.52-14.17-3.18-19.33-7.94-6.35-5.86-13.7-11.06-17.34-19.51a26.88,26.88,0,0,0-4.6-6.45c-6.8-7.84-10.43-16.75-10.18-27.27.07-3,1.83-7.44-1.08-8.73-2.75-1.22-5.12,2.81-7.42,4.85-3.05,2.71-6.3,4.52-10.27,2.13-1.75-1.05-2.87,0-4.09.65-1.73,1-3.25,2.36-5,3.18-16.73,7.67-31.34,19.21-48.2,26.62-4.66,2-4.12,4.53-1.76,8.17A153,153,0,0,1,277.26,286a208.29,208.29,0,0,1,11.29,28.54c3.72,11.75,7.33,23.57,11.76,35.06,2.63,6.83,3.29,14.33,6.84,20.69,3.19,5.7,4.89,11.92,7.63,17.75a6.82,6.82,0,0,1-.27,6.71C312.78,397.58,310.59,394.79,308.7,395.27Zm54-309.17c.15-6.38,2-12,2.31-18s.66-12.36,4-17.8c1.09-1.77,2.17-4.44,4.82-3.19,2.3,1.08,2.15,3.42,1.82,6-1.08,8.34-2.64,16.66-2.52,25.12,0,1.43-.35,3.61,1.48,3.8,3.49.36,5.86,3.4,9.71,3.1,10.46-.81,14.38,9,21.29,13.92,2.1,1.5,1.69,4.69,1.22,7.11a34.18,34.18,0,0,1-2.54,7.52,9.2,9.2,0,0,0,.31,8.65c1.75,3.09,2.2,5.69-.36,8.53-1.46,1.62-.72,3.31.49,4.95s2.69,2.14,4.33,1.39a13.4,13.4,0,0,1,7.18-1.53c1.26.13,1.7-.66,1.76-1.84s-.54-2-1.68-2c-1.47,0-2.9.24-4.27-.72s-.92-2-.42-3c.42-.86,1.35-1.36,2-.58,2.22,2.72,4.42,1.63,7.14.78,2-.63,4,1,5.18,3.1,2,3.56.71,8-4.45,10-7.34,3-14.4,7.23-23,6.45-3.92-.36-6.8-1.59-8.24-5.2-1.89-4.76-2.78-9.61.32-14.29a3.38,3.38,0,0,1,3.56-1.3c2.94.41,3-1.33,3.24-3.58.38-4.15-2.79-7.48-2.45-11.51.26-3.09-1.61-3.45-3.72-2.91-4.11,1-8.3.21-12.41.89-3.42.56-7.75-2.79-9.95-.29-1.86,2.12-.92,6.61-1.47,10A21.88,21.88,0,0,0,371,135.77c3.84,5.93,6.36,12.24,4.27,19.7-2.73,9.76-1.4,19,6.46,26,5.43,4.83,10.73,10.5,19.29,9.55,5.1-.56,10.41.08,15.33-1.1,3.59-.86,7.38,1.87,10.07-.27,3.79-3,7.47-6.12,11.36-9.06a63.64,63.64,0,0,0,12-12.59c4.79-6.33,8.86-13.11,5-21.66-1.2-2.64-.67-5.51.3-8.17,1.18-3.21,2.81-6.27,3.75-9.54,2.73-9.42,2.4-19.24,3.21-28.9.21-2.42-.39-5.31-4.32-3.92a3,3,0,0,1-2.77-.58c-6.58-4.26-12.17-3.2-17.8.49-1.2.78-2.84,1.79-2,3.55a3.25,3.25,0,0,0,4.2,1.75c4.87-1.81,7.93,1.69,10.89,4.16,1.76,1.46,1.92,5.45-1.44,5.78-6.53.65-13.35,3.61-19.67-1.28a6.15,6.15,0,0,0-5.59-.71c-2.46.73-3.35-1-2-2.71,1.94-2.38,3.27-5.58,6.66-6.47,1.5-.4,3.27-.72,2.72-2.73s-2.09-.56-3.26-.45c-3.58.33-5.61-1.42-6.3-4.88a5.12,5.12,0,0,1,4.06-6.45c3.94-.89,8.7-2.27,11.91-1.66,7.57,1.43,17.13-1.84,22.12,8.12,1.63-6.87,1-22-.94-29.84-.61-2.44-1.78-5.3.17-7.14,2.47-2.34,1.19-3.87-.32-5.38-5.56-5.54-16.71-10.64-25.54-5.23-2.42,1.48-3.67.48-5.64-.87-3.26-2.23-.51-4.55-.24-7-5.79,1-10.21,3.75-14.58,6.71-1.8,1.22-4,1.85-6,0-1.43-1.29-1.49-2.88-.9-4.57.38-1.11,3.34-.68,2-2.55-1-1.39-2.75-.33-4,.5-5,3.25-10.71,1.65-16.06,2.55A2.73,2.73,0,0,1,384,36.58c-.32-5.17-5.48-5.84-8-8.94-1.42-1.73-2.91-.85-2.78,1.75.23,4.34-3.77,7.17-4.28,11.41-.15,1.24-3.57,1.62-3.78,3.55-.32,2.9-1.42,4.15-4.38,4a2.7,2.7,0,0,0-2.72,2.47,2.36,2.36,0,0,0,1.76,2.7c1.82.51,2.47,1.5,2,3.25-2,7.78,0,15.84-1.58,23.67C359.91,82.28,359.65,84.54,362.71,86.1ZM783.5,499c10,.56,19.74.93,29.47,1.72,4.44.36,5.53-.52,4.5-4.77-2-8-4.19-16-5.57-24.12-3-17.64-7.84-34.84-11.68-52.28-2.8-12.7-6.14-25.29-9-38-.71-3.2-1.23-6.44-2-9.65-2.31-9.27-4-18.7-6.21-28-1.59-6.57-3-13.15-4-19.84-.11-.78-.13-1.81-1.29-1.73-.94.07-1.34.86-1.51,1.72-2.05,10.52-4.85,21-6,31.59-1.76,16.8-7.08,32.84-9.37,49.51-1.19,8.64-4,17.05-5.78,25.63-2.25,10.8-3.62,21.82-6.47,32.45-2.76,10.26-3.55,20.89-6.6,31.06-.38,1.27-.76,3.4,1.83,2.94,5.52-1,10.81,1.28,16.31.95,3-.18,4.13-.77,4-3.92a73.59,73.59,0,0,1,1.8-19.16c1.82-8.71,4.73-17.32,2.7-26.44-.22-1,0-2.08,1.23-2.36,1.48-.33,1.85.58,2.33,1.85,2.15,5.72,4.32,11.42,6.27,17.22C782.09,476.28,787.31,486.86,783.5,499ZM232.8,478.15c-8.63.21-12,3.08-13,9.88-.34,2.33-.9,4.77-2.54,6.37-3.92,3.8-5.62,8.93-8.59,13.28a28.36,28.36,0,0,1-3.06,3.91c-1.78,1.84-3.9,3.62-6.56,2.08s-3.11-4.18-2.64-7c.72-4.32,3.56-7.41,6.31-10.53,1.27-1.44,3.85-3.09,3.64-4.23-.87-4.6,2.93-6.24,4.7-9.2,3.14-5.25,8.9-6.59,13.47-9.67,8.89-6,18.87-8.38,29.48-8.23,1.11,0,2,.15,2.49-.83s1.2-2.56.18-3.22c-2.4-1.57-4.5-4.28-8-3.24-8.2,2.49-17,3.92-23.63,9.78-8.53,7.5-17.16,14.94-24.73,23.47-.72.8-1.11,2.34-2.6,1.88-3.46-1.08-6.55-8.57-4.56-11.73,5.93-9.4,13.5-17.31,23.4-22.5,10.3-5.42,21.79-7.25,33.08-9.37,4-.74,8.48-1.26,12.12,1.16,2,1.36,3.87.95,6,1.08-7.53-5.6-15.26-10.83-21.17-18.17a3,3,0,0,0-1.27-.71c-10.63-4.08-19.2-17.88-18.74-26.95.44-8.75.59-17.5-.66-26.27-.84-6-1.51-12.29-.65-18.21.9-6.27.52-12.73,2.68-18.9.68-1.93,1.83-4.79-.62-7.2-7.8,11.91-8.95,25.95-12.2,39-2.35,9.43-3.66,19.36-6,28.95-4,16.69-6.95,33.7-14.24,49.44-5.06,10.92-5.59,22.78-6.86,34.39-.54,5-2.51,10.17-.52,15.26,4.88,12.51,11.93,24,18,36.47,2.72-4.73,4.51-2.67,6.18.41,3.25,6,10.51,8.91,12.56,15.91,0,.08.59,0,.86,0,.62-.65.15-1.19,0-1.82-2.51-10.92-8-21.49-3.92-33.22.35-1,0-2.3-.2-3.44-.25-1.81-.54-3.6-.9-5.39a2.43,2.43,0,0,1,1.47-2.85c1.43-.69,2.27.53,2.76,1.45a17,17,0,0,1,1.38,4.23c1.32,5.78,2.28,11.67,3.94,17.35,2.58,8.9,6.2,17.54,8.31,26.53a265.71,265.71,0,0,0,8.62,29.79,7.9,7.9,0,0,0,4.44,4.66c-.58-4.61-2.91-8-3.66-12.1-1.8-9.85-5.15-19.51-6.76-29.32-2.21-13.52-3.93-27.19-5.7-40.81-.22-1.7-.89-3.78,1-4.3,2.11-.58,2.91,1.73,3.72,3.33a7.57,7.57,0,0,1,.6,2.38c1.25,8,2.14,16.05,3.86,23.94.72,3.28.21,7.29,3.86,11.25-.27-7.54-2.12-13.42-1.87-19.48.09-2.1-2.05-5.46.95-5.87,2.4-.32,1.76,3.29,1.92,5.34.09,1.12-.18,2.39,1.22,3.1a3.15,3.15,0,0,0,2.06-3.51c-.7-6.26.63-12.46.33-18.71-.32-6.41-1.27-12.9,3.88-18.31,1.42-1.5,1.77-4,3-6.94-3.73,1.8-6.38,3.31-9.21,4.37-1.78.67-4.4,1.38-5.13-1.2-1.6-5.57-4-3-6.21-.81-3.15,3.18-5.93,6.72-9.11,9.86-2.77,2.73-5.7,2-6.5-1.63-.51-2.33-.74-4.82,1.35-7C226.86,483.21,228.86,480.63,232.8,478.15Zm102.63-24.61c2.13,3.73,3.33,6.82,3.54,10.16.18,2.76,2.24,3.49,4.3,3.86a98.13,98.13,0,0,0,40.24-.73,36.6,36.6,0,0,1,6.87-.77c1.82-.09,3.8.35,4,2.16s-2.2,2.33-3.63,2.7c-3.63.93-7.33,1.55-11,2.47-7.63,1.91-15.13,5.36-23.19,4.48-4.3-.47-8.58-.61-12.87-.86-.93-.05-2-.89-2.32.65a2.63,2.63,0,0,0,.6,2.77,5.72,5.72,0,0,0,3.67,1.22c7.54.7,15.06,1.59,22.6,2.3,2.75.26,6.24.75,7.54-2.06,1.59-3.43,4.56-4.1,7.31-5.42,4.58-2.2,9.78-1.77,14.5-3.16,11.27-3.3,22.75-3.71,34.31-3.12,14,.71,28.25-1.73,42.09,2.42,1,.3,1.49-.83,1.52-1.58.21-7.07,3.33-13.35,5.23-20,.36-1.27,1.16-3.32-.84-3.77-6.07-1.34-2.16-3.42-.65-5.57,2.9-4.13,6.36-7.73,8.16-12.8,1.69-4.76,3-9.7,5-14.31,5.23-12.23,7.3-25.43,12.2-37.76,2.87-7.21,4.69-14.83,6.91-22.29.34-1.14,1.94-2.6.4-3.48s-2.64.92-3.52,2a26.1,26.1,0,0,0-1.94,3.48c-7.1,12.64-13.12,25.73-23,36.89a134.17,134.17,0,0,1-32,26c-3.08,1.85-6.62,3.19-9.19,5.58a55.9,55.9,0,0,1-11.58,8c-8,4.44-16,8.87-24.61,12.33-14.21,5.69-28.62,9.91-43.81,11C353.5,457,344.86,455.48,335.43,453.54Zm-45.9-51.28c-.26-1.67-.56-3.13-.68-4.61-1-12.5-3.64-24.73-6.19-37-1.46-7-4.64-13.44-5.74-20.5-1.85-11.94-6.94-23.1-8.38-35.17-.79-6.7-5.66-12.86-2.52-20.15.34-.8-.33-2.34-1-3.2a47.85,47.85,0,0,1-4.27-7.78c-1.82-3.65-4-3.78-6.73-.55-2.09,2.5-2.33,5.88-4,8.57a209.08,209.08,0,0,0-19.26,40.19c-.62,1.76-1.21,3.46.83,4.2,4.46,1.6,3.48,5.17,3.2,8.34-.25,2.79-.4,5.67-.9,8.34-1.31,6.95.71,13.73.21,20.59-.38,5.17-1.6,10.45,2.12,15.1a3.45,3.45,0,0,1,.62,2.81c-2.23,6,.84,11.36,2.06,16.83a74.47,74.47,0,0,0,5.6,15.72c2.68,5.59,7,10.44,9.86,16.08,2,3.86,3.68,8,9,8.92,1.72.3,3.41,2.08,4.67,3.56,2.81,3.26,3.21,8.65,8.74,9.55a2.13,2.13,0,0,1,1.31,2.47c-1.08,4.4,3,3.16,4.34,3.2,2.79.09,1.45-2.31,1-3.68a6.41,6.41,0,0,1,.42-4.32c.81-2.33,2.37-5,1.87-7.09-1.46-6.09.66-11.76,1-17.61C287.22,417.34,287.59,409.59,289.53,402.26ZM321.88,580.6c-3.87-3.59-4.59-8.87-7.51-12.89-1-1.41-1.3-4.23,1-4.54,3.18-.43,6,1.31,8.29,3.76,1.44,1.53,3.84,2.45,1.8,5.19-.81,1.09-.49,2.19.81,2.89s2.58.75,3.55-.53c1.65-2.18,2-4.59.07-6.66-2.62-2.75-.72-5.38.29-7.65,1.14-2.57,3.76-2.16,6-1.13,3.33,1.51,7.17,2.67,5.2,7.81-.21.57.6,1.46.76,2.24.81,3.92,4,6.79,4.61,10.82.35,2.43,1.84,3.36,4.31,2.68,2.75-.76,2.82-3,2-4.76a27.51,27.51,0,0,1-2.81-11.23c0-2.48-.83-4.42-3.72-5-1.52-.31-3.12-1.67-2.27-3.23,1.55-2.88,1-7.29,4-8.69,3.2-1.52,5.18,2.6,7.82,4,1.26.66,2.11,2.09,3.13,3.19s1.3,2.12.43,3.16c-3.75,4.48-1.09,9.2-.57,13.81.19,1.64.76,3.28,2.94,3.47s3.21-1.08,4.1-2.89c2.41-4.88.7-17.47-3.15-21.74a3.67,3.67,0,0,1-1-3.17c1.4-9.75-3.09-17.28-8.67-24.72-5.85-7.8-14.32-14.43-13.32-25.84.11-1.31-1-2-1.69-2.93-3.72-4.95-10.44-5.74-14.34-10.3-5.28-6.16-12.92-4.94-19.61-6.67a5.24,5.24,0,0,0-3.44.16c-8.25,4.31-18.39,5.06-23.93,14.54-2.07,3.55-2.07,5.08.63,7.21,4.6,3.64,7.65,8.6,11.19,13.11,3.1,3.95,1.24,11.58-2.93,14.24-2.45,1.56-1.84,3.62-.49,5.57.74,1.08,2.17,1.92,2.42,3.06,1.52,6.8,6,11.06,11.4,15,4.74,3.5,10.8,6.66,8.21,14.56a3,3,0,0,0,1.23,2.56c3.7,1.94,5.58,5.37,7.79,8.62A6.23,6.23,0,0,0,321.88,580.6Zm264.7-181.1c-1.92.73-2.26,1.94-2.72,3.19-1.74,4.74-1.93,9.75-2.42,14.66-.77,7.78-3.15,15.21-1.54,23.47,1.77,9.05,3.58,17.64,9,25.31,4.16,5.89,14.29,10.58,20,7.59,7.34-3.87,15.55-5.64,22.67-9.81,6.92-4,14.62-7.33,18.37-15.19,2.28-4.78,4.2-9.73,6.41-14.54,1.2-2.62.56-3.93-2.33-3.49-4.28.66-7.31-.95-9.45-4.55-1.62-2.71-3.43-5.07-6.65-6.22-2-.7-2.47-2.84-3-4.85-1.55-5.51-3.06-11-4.48-16.57-2.34-9.13-5-18.19-6.64-27.48-1.25-6.93-2.59-13.85-3.6-20.81-.23-1.55-1.22-4.2,1-4.81,2.38-.66,2.31,2.21,3.2,3.66.61,1,.21,2.85,3.19,2.72-3.35-11.8-2-23.81-2.49-37.08-3.32,5.1-3,9.88-4.83,14-4.25,9.85-7.39,20.23-16.12,27.42-.95.78-1,2-1.25,3.18-2,9.47,1.3,18.62,1.81,27.93.24,4.36-.36,10.18,6.7,10.75.3,0,.62.72.82,1.16C616.42,408.64,625,415,630,424.06c2.09,3.8,1.39,5.45-1.26,7.81-3,2.66-4.74.6-6.7-1.34a21.75,21.75,0,0,1-4.82-6.26c-2.2-4.76-4.61-9.43-7-14.12-.43-.88-.76-2.12-1.85-2.17-1.37-.07-1.15,1.29-1.43,2.2-1,3.25-2.06,3.08-4.25.59-3.38-3.84-5.61-8.43-9-13.14-.93,3-1.38,5.9-.29,7.76,3.07,5.26,1.43,11.15,2.94,16.71,2.45,9.07,4.31,18.38,6.9,27.46.77,2.68,2.46,5.09,3.48,7.72.53,1.38.65,3.1-1,4-1.36.75-2.55,0-3.55-1a33.29,33.29,0,0,1-7.23-10c-5.28-12.13-5.51-25.29-7.87-38A39.22,39.22,0,0,1,586.58,399.5Zm-40.13,53.69c1.75-.56,1.17-1.76,1.14-2.61-.16-5.65-2.06-10.91-3.38-16.34-3.31-13.63-5.89-27.44-8.77-41.17-.41-1.95-.79-3.9-1.31-5.82-.22-.85-.22-2.23-1.68-1.92a1.82,1.82,0,0,0-1.29,1.94,9.24,9.24,0,0,1-1.95,6.56c-4.09,4.76-4.52,12.33-11.51,14.91-.63.23-1,1.68-1.16,2.62-1.83,9.68-3.36,19.42-5.47,29-1.14,5.2-.23,10.51-1.88,15.71-1.53,4.83-3.94,10.89-2.29,14.88,2.61,6.32-2.33,9.2-3.23,13.71a4.07,4.07,0,0,0,0,.5,94.34,94.34,0,0,1-2.48,17.6c-.55,2.32-.08,3.4,3,3.19,6.45-.43,12.45-3.29,19-3,1.71.06,1.85-1.68,2.56-2.73,2.73-4,2.77-9.22,5.68-13.2,1.45-2,2.29-3.92-.69-5.66a4.13,4.13,0,0,1-1.85-4.85c1.58-3.76,1.3-8,4-11.57s4.2-7.78,6.24-11.72c1.25-2.42,1.64-6.42,4.53-6.47C547,446.71,545.24,451.1,546.45,453.19ZM465.12,210.71c-1-1.75-2.61-1.39-3.69-2.11-3.68-2.47-8.09-4.36-8.59-9.57-.58-6.11-1.59-12.19-1.15-18.85-2.36,2.11-4.28,3.8-6.15,5.62-6.33,6.11-12.82,12.61-21.55,14.72-5.81,1.41-12.17.45-18.29.62-4.39.13-5.59,2.07-3.9,6.12,1,2.28,2.56,4.32,2.39,7-.11,1.66.18,3.45-1.66,4.38s-3.5-.07-4.89-1.34c-3.78-3.44-6.59-7.37-6.74-12.77-.11-3.81-2.11-4.15-4.68-2.05-2.06,1.68-3.5,3.6-6.87,2.6-1.77-.52-3.27,1.67-3.42,4-.34,5.33,0,9.34,6.26,12.14,10.47,4.72,16.21,14.3,20.09,24.79.91,2.45,2.24,4.44,4.41,3.18,6.1-3.52,13.43-2,19.42-5.2,4.95-2.63,10.2-4.52,13.61-10A49.65,49.65,0,0,1,453,220.25C457.08,217.26,461.47,214.29,465.12,210.71Zm93.5,111.56c10.76-6.48,21.27-12.53,31.42-19.13,2.88-1.87,5.38-4.75,8.65-5.69,5.66-1.64,9.57-5.82,14.37-8.68,2-1.18,1.12-2.33.25-3.65a184.88,184.88,0,0,1-14.67-26.44c-3.1-7-10.4-10.51-13.56-17.52-1-2.26-4.32-1.64-6.51.19-9.19,7.68-15.45,17.67-22,27.43,9.38,1.89,1.43,8.86,4,13.18.74-1.7,1.34-2.85,1.76-4.07a2.79,2.79,0,0,1,3.1-2c1.82.32,1.32,2,1,3.28-.45,2.11-1,4.19-1.46,6.31-1.6,8.44-2.84,17-4.85,25.31C559.21,314.48,557.09,317.82,558.62,322.27Zm1.09,63.62a79.27,79.27,0,0,1,16.1-29c3.92-4.52,8.73-8.51,13.84-10.47,3.63-1.4,7.85-2.48,11.82-3.65,1.09-.32,2.52,0,2.56-1.61,0-1.12-1-1.64-2-1.95-3.12-1-4.8-3.13-3.62-6.27,1.3-3.47,4.37-4.11,7.37-2.45,2.52,1.39,3.44.16,4.77-1.53,4-5.07,4.6-11.59,8.57-17.93-3.55,1.5-5.91,2.59-8.35,3.5-7.57,2.84-14.93,6.28-22.23,9.66-5.24,2.42-13.24,3.55-12.8,12.54.07,1.32-.76,3.14-2.88,2.49-1.8-.55-2.06-1.84-1.52-3.58.37-1.17,1.33-3.84-1.21-2.75a162.12,162.12,0,0,1-17.3,6.74c-.81.25-2.07.76-1.64,2.09s1.63,1.61,2.79.93c2.4-1.4,4.3-.68,4.1,1.93-.36,4.62.17,9.22-.58,13.88-.82,5.15-2.61,10.52-.92,15.67C557.82,377.94,558.64,381.74,559.71,385.89Zm200.42-20.76a29.72,29.72,0,0,0-5.29,10.21c-3.06,12.35-7.81,24.17-11.42,36.37-3.26,11-7.34,21.84-11,32.77-5.55,16.75-10.32,33.76-17,50.11-.93,2.28-.17,2.92,2.3,2.58,3.09-.43,6.14-1.32,9.34-1,4.87.55,7.93.28,8.41-6.57,1.2-16.84,6.86-32.92,10.29-49.4,1.81-8.68,3.11-17.45,5.69-26.07,2.06-6.85,2.94-14.49,4.17-21.78C757.14,383.36,759.25,374.41,760.13,365.13ZM280.21,637.39c.38-1,.66-1.36.58-1.59-4.61-12.33-8.76-24.67-9.76-38-1-13.13-2.77-26.26-2.78-39.39,0-17.85-1.73-35.63-1.37-53.5.22-10.24,5.41-16.8,13-22.32,4.55-3.31,10-4.87,14.92-7.44.83-.43,2-.74,1.72-2.05a1.4,1.4,0,0,0-1-.86c-3-.08-6.63-1.41-8.67.72-2.66,2.77-5.95,3.28-9.05,4.65a45.1,45.1,0,0,0-11.34,6.86c-4.93,4.26-7.6,9.27-7,16.42.92,11.64-3.72,23.32-.17,35.06a11.37,11.37,0,0,1,.77,4.37c-1,8.78.61,17.47,1.25,26.13A423.87,423.87,0,0,0,268,616C269.66,624.36,274.63,630.82,280.21,637.39ZM496.1,536.74c-.4,2.85.31,3.62,3.61,3.48,11.79-.51,23.45,1.29,35.15,2.12,7.09.5,6.76,1,5-6-1.56-6.17-7.08-11.18-5.26-18.35a2.26,2.26,0,0,0-2.69-2.76c-2.65.29-4.15-1.35-5.09-3.26-1.94-4-5.08-4.26-8.79-3.52-4.34.85-8.66,2.14-13,2.35s-6.11,2.51-6.44,6C497.92,523.49,497.66,530.2,496.1,536.74Zm145.14-154c3.35-6.16,4.81-12.59,2.47-19.17-1.3-3.64-1.7-7.43-2.82-11.05-1-3.42.13-7.3-1.34-10.26-3.43-6.92-2.88-14.5-4.64-21.67-.66-2.7-.55-5.59-1-8.37-.53-3.55,2.61-4.05,4.53-4.76,2.14-.78,2.14,1.86,2.75,3.29,2.19,5.09,2.34,10.63,3.48,15.94,1.53,7,2.14,14.27,3.12,21.42.18,1.31.69,2.28,2.14,2.23,1.16,0,2.18-.94,1.84-1.89-2-5.57,2.35-8.06,5.24-11.2,2.47-2.68,4-5.5,3.7-9.32-.58-7.51.42-15,1.89-22.29,1-4.75-.81-5.26-4.77-5.43-8.54-.37-16,3.64-24,5.44-3.1.7-6,2.43-3.06,6.95,1.05,1.61,1,4.6.77,7.2-.58,5.63-1,11.45.31,17a107.47,107.47,0,0,1,2.94,18.47C635.37,364.72,638.91,373.5,641.24,382.72Zm-97.46,162c7.73-2.81,14.05-.86,20.35-.12,4,.47,3.9-1.34,3.33-3.84-2-8.84-4.21-17.64-6.31-26.47-.39-1.66-1.29-2.36-3.09-2.56-6.37-.73-8-2.7-8-9.28.12-11.57,7.29-22.94.95-34.69-.14-.26,0-.65,0-1,0-1.37,0-2.94-1.59-3.2-1.45-.25-1.76,1.58-2,2.41a47.14,47.14,0,0,1-6.29,13.34c-.75,1-.35,2.54,0,3.87a50.1,50.1,0,0,1,.66,21.49c-.7,4-3.11,8.47,2.76,10.94.7.29,1.24,1.66,1.34,2.58C546.8,526.62,549.87,535.12,543.78,544.75ZM655,188c1.67,3.32,1.33,6.55.67,9.79-.27,1.37-.54,2.67,1.13,3.35,1.47.59,3.19,2.14,4.46.32,1.64-2.36,3.21-1.11,4.59-.23,2.29,1.47,3.44,4.23,6.22,5.36,1.64.67.4,1.87-.39,2.71-2.51,2.7-5.8,2.12-8.91,2s-4.47-.2-3.68,4.15c1,5.52,3.39,7.62,8.63,7.55a4.29,4.29,0,0,1,3.76,2.89c.8,1.8-.8,2.73-2.07,3.47-2.66,1.53-4.33,4.78-8,4.59-1.4-.08-1.42,1-1.6,2-.58,3.19-.18,5.69,3.84,5.73,2,0,4.16.35,4.15,2.56,0,2.55-2.57,2.61-4.53,2.82-2.62.28-5.24.43-7.85.72-1.48.17-3.85-.85-3.88,1.73a4.26,4.26,0,0,0,3.43,4.36c1.89.35,4.12.62,5.79,0,3.45-1.4,6.25-.72,8.58,1.75,2.72,2.87,3.75,1.59,5.24-1.25,5.31-10.12,5-21.5,7.41-32.24a5.09,5.09,0,0,0-.3-2.93c-2.22-5.18-4.6-10.25-3.45-16.22.22-1.15.13-3.36-1.52-4C669.17,196.26,662.76,191.18,655,188ZM477.86,541.14c2.5,0,5,0,7.5,0,1.83,0,3.58-.32,3.54-2.52-.14-7.36,1.89-14.44,2.67-21.67.31-3-.39-4.11-3.58-4.32-3.42-.23-6.78-.7-10.16.12a2.43,2.43,0,0,1-3.28-2.1c-.38-2.31,1.64-1.27,2.65-1.6,2.67-.86,5.26-1.76,8.21-1.7,7.51.16,7.49,0,8.64-7.46a30.61,30.61,0,0,1,1-3.32c1-3.64-.15-4.65-3.87-4.05-4.16.67-8.16,2.84-12.6,1.37-1.42-.47-1.38.83-1.67,1.79-4.41,14.47-8.78,29-13.37,43.38-1,3,.49,3.53,2.5,2.84C470,540.55,473.91,541.3,477.86,541.14Zm27.6-112.9c-2.54,1-3.21,4.42-6.07,4.74-3.41.39-4.57,2.92-5.49,5.58-2.41,7-4.2,14.29-7.18,21s-3.12,14.32-6.14,21.21c-2.92,6.65-.56,8.7,6.55,7.67a38.68,38.68,0,0,1,5.93-.71c3.83,0,3.51-2.71,3.71-5.14.26-3.25-2.12-2.71-4-2.74-1.67,0-3.33,0-5,0-1.91,0-3.64,0-3.86-2.67s.55-4.33,3.07-4.87,5.41-.91,7.87.11c3.1,1.3,4-.23,4.3-2.69C500.88,455.92,504.29,442.31,505.46,428.24Zm66.7,9.43c.71-6.27-1-12.22-1.76-18.24-.45-3.33-1.08-6.17,3-7.74,1.69-.65,2.27-1.92,2.16-4.28-.51-10.65,2.25-20.75,7.07-30.17,2.71-5.29,7.88-8.77,11.12-13.79,2.31-3.57,3.7-7,2.69-11.35-4.63,1.45-7.75,4.63-11.09,7.13-6.8,5.08-11.93,12.07-13.27,20.56a164.86,164.86,0,0,0-2.19,24.67c0,3.08-1.11,7.78-4.09,7.7-4.53-.12-2.71,2.63-2.6,3.95C563.79,424.19,567.39,431.15,572.16,437.67ZM467.9,111.25c1.87-2.24,2.63-5.63,5.54-3.82,2.25,1.41,1.7,3.76.25,6.09-.85,1.36-.5,3.47-.75,5.82,1.65-1.15,2-3.52,4.1-2.82a2,2,0,0,1,1.49,2.3c-.93,3.62,0,7.69-2.68,10.91-1.18,1.41-2.64,2.87-1.54,5.39a43.64,43.64,0,0,0,5.69-6.33c1.13-1.56,2.13-3.33,4.06-4.23,5.05-2.33,4.38-8.53,7.95-12,1-1-6.54-12.11-8.4-12.86-4.67-1.88-8.78-5.07-10-9.65-1.74-6.31-2-13.05-2.64-19.63A20.44,20.44,0,0,0,468.6,62c-1.3,7.62,1,14.09-1.32,20.18a1.93,1.93,0,0,0,.28,1.43c4,6.68,3.29,13.44.4,20.24A9.78,9.78,0,0,0,467.9,111.25ZM468.13,51c-.77-2.7-1.42-5.63-2.45-8.41-2.76-7.49-6.08-14.54-12.61-19.78s-14.32-7.31-21.58-10.69c-6.41-3-7-2.19-8.23,4.4-.6,3.28.21,3.64,2.81,2.27s5.26-1.83,7.95-.1c1,.66,2,1.35,1.7,2.72s-1.42,2.8-2.69,2.53c-4.81-1-7.3,3.67-11.39,4.4-.92.16-3.08.82-2.32,2.54.49,1.11,2.48,1.12,3.51.65,5.35-2.47,10.87-.55,16.28-.67,2,0,3.64-2.1,5.62-.85,6.36,4,13.94,6.89,15.85,15.32.68,3,2.91,4.7,4.35,7.05.5.82.92,2.08,2.06,1.79C468.49,53.76,467.92,52.24,468.13,51ZM347.77,175.37c-2.07-3.3.79-7.91-1.91-10.2-4.59-3.86-3-8-1.69-12.07.69-2.12,1.08-6.4,4.77-4.88,2.59,1.07.71,4-.22,6-.7,1.53-.94,3.19.74,3.86,3.29,1.32,3.33,1.14,2.56,4.53-.52,2.28.57,4.26,1.56,6.13.74,1.4,1.79.11,2.5-.31,2.06-1.21,3.08-3,2.34-5.46-.52-1.71-.46-3.59-1.82-5.08a7.52,7.52,0,0,1-1.59-4.61c-.91-10-1.44-20.14-3.19-30.1-.19-1.07.39-2.45-1.08-3-.37-.14-1.21,0-1.34.31-1.24,2.64-4.55,4.83-3.45,7.94,1.66,4.72-.16,8.26-2.32,12.09a85.74,85.74,0,0,0-5.58,11.64c-1.1,2.92-2.52,4.77-7.24,4C337.39,163,339.68,171.49,347.77,175.37ZM546.51,409.26c1.36-10.28-.67-20.21-2.22-30.23-1.63-10.49-6.32-21.34,2.11-31.24a4.41,4.41,0,0,0,.55-1.89c.2-.91,1-1.88,0-2.73a2.47,2.47,0,0,0-2.81,0c-1.92.94-3.77,2-6,2.07-6.61.32-7.16,1.32-5.56,8.16,2.83,12.07,5.39,24.2,8.29,36.25C542.44,396.23,543.15,403.08,546.51,409.26ZM279.37,600.35l1.5.36c2.38-4.82,4.81-9.61,7.12-14.46.64-1.34,1.43-2.54,2.95-1.9,1.85.77.86,2.13.19,3.29-3.84,6.66-4.15,15-10.12,20.69-1.57,1.49-.37,3.43.67,4.35,1.51,1.33,2.13-.85,2.94-1.62,3.13-3,3.43-7.41,5.39-11,4.3-7.88,6.78-16.53,10.46-24.67a6,6,0,0,0-1-6.59c-2.22-2.46-4.67-4.73-7-7.06-1.64-1.61-2.49-1.18-2.81,1.06-.84,5.84-1.66,11.7-2.7,17.51-.63,3.52-.27,8.08-6.12,7.53-1.48-.13-2.06,1-2,2.3C278.93,593.54,279.17,597,279.37,600.35Zm371.82-211c1.38,4.6.58,9.38.83,14.12.07,1.23-.17,3.68,1,3.35,2.94-.81,6.44.74,8.9-2,2-2.26,4.8-3.36,7.25-5,4.63-3,9-6.72,9.39-13,.1-1.67-.11-3.54-1.55-4.42s-2.64.53-3.85,1.44a77.72,77.72,0,0,1-7.4,5c-4,2.34-8.11,5.56-12.71.93A1.46,1.46,0,0,0,651.19,389.37ZM349,92.06c-.95,2.29-2,4.53-2.82,6.87A111,111,0,0,1,331,128.53c-1.62,2.24-3.63,4.13-3.89,7.28-.14,1.68-.84,4.23-4.15,1.93-2.63-1.82-2.49,1.38-2.07,2.54,1.7,4.66,4.43,8.81,7.21,12.9a1.65,1.65,0,0,0,2.2.61c1.2-.76.43-1.78-.15-2.54a8.81,8.81,0,0,1-1.79-7c1.15-6.8,5.83-11.59,9.55-17,4-5.84,10.89-9.79,11.74-17.82A72.35,72.35,0,0,0,349,92.06ZM307.09,445.53c2.16-.61,2.64-3.44,5-2.46,2.54,1.06,1.83,3.43,1.66,5.2-.4,4.29,2.22,6.3,5.33,8.13,1.55.9,3.05,3.79,4.79,1.82s3-6.6,1.57-7.73c-6.25-4.92-7.49-13.14-13.1-18.29a15,15,0,0,1-3.16-4.32c-3.53-6.87-7.44-13.54-11.87-21.46.8,5.44-1.25,9.61,3.08,13.64,3.83,3.58,1.57,9.75,2.91,14.93.63-.27.76-.77,1-1.18.86-1.34,1.38-3.46,3.53-2.73s1.32,2.79,1.44,4.36C309.56,438.82,307.35,441.68,307.09,445.53ZM529.32,333.26c2.7.14,4.93-.44,5.51-4.28,1.52-10.05,6.08-19.2,9-28.84.61-2,2.56-4.42-.28-5.51-2-.77-2.88,2-3.78,3.66-3.57,6.71-7.24,13.36-10.75,20.1a64.67,64.67,0,0,1-9.81,14.09c-1.19,1.29-2.36,2.92-1.1,4.37,1.66,1.92,2.86-.36,4-1.22C524.17,334.11,526.13,332.61,529.32,333.26Zm-196-222.45c1.73-2.49,2.77-4.08,3.9-5.61,7.25-9.87,6.79-22.45,11.56-33.2.68-1.53-.1-4.44-2.43-3.67-1.94.63-6.1-2.77-5.88,2.42.17,4.18-1.94,7.82-2.43,11.92-.56,4.6-.28,9.52-2.38,14.27A24.63,24.63,0,0,0,333.3,110.81ZM442.21,247c5.89-1.39,10.47-3.93,13.14-9.24.57-1.12,1.18-2.78,2.69-2.69,3.67.24,5.12-2.65,7.11-4.72,4.05-4.18,8.83-7.48,12.33-12.43,2-2.78,4.32-5.13,5.2-8.55.28-1.08,1.15-2.36-.33-3-1.08-.45-1.61.82-2.19,1.6-4,5.33-8.16,10.59-13.39,14.62a263.55,263.55,0,0,0-22,19.58C443.58,243.34,441.77,244.32,442.21,247Zm57.7,170c5.44-4.07,9.18-8,10.38-13.24a335.47,335.47,0,0,0,6.12-37.05c.12-1.12,2.1-3.73-.82-3.82-2.24-.06-1.36,2.53-1.65,4-.79,4.2-1.18,8.54-2.55,12.55C507.32,391.37,503.77,403.47,499.91,416.94ZM308.5,597.83c-1.67,9.26-5.78,17.64-8,26.58-.66,2.66-8.32,6.17-9.87,4.68-.77-.75-.94-2.5-2.28-.85-1.69,2.08-1.7,4.68-1.17,7.13.36,1.65,1.71,1.12,2.76.47,7.93-4.89,17.25-8.57,17.14-20.3,0-1.61.79-3.22.83-4.84C308,606.38,310.38,602.2,308.5,597.83Zm212.07-209c8.56-10.56,11.9-21.78,4.81-34.67C522.17,365.69,521.82,377.3,520.57,388.79Zm-247,136c-1.9,10.51,1.21,20.58,1.81,30.9,2.2-.24,2.65-2.91,5.51-1.82,2.42.92,3.27-2.06,2.21-4A99.19,99.19,0,0,1,273.58,524.82ZM373,93.15c-5.82,0-6.17.45-5.47,5.7s.83,5.41,4.93,2.3a12.33,12.33,0,0,1,8.26-2.68,23.89,23.89,0,0,1,12.73,4.43c.65.42,1.75,1.32,2.66.39a2.24,2.24,0,0,0,0-2.78,5.34,5.34,0,0,0-4.28-3.05c-5.69-.42-11.39-.61-16.43-3.88A4.67,4.67,0,0,0,373,93.15ZM630.21,204.32c3.15,1.1,5-.9,7.27-1.26,3.88-.61,6.25-2.65,5-7-.5-1.79,1.32-5.17-2.86-4.56-5.12.75-8.71,3.74-7.56,6.63S632.27,202.67,630.21,204.32ZM415.85,262.6c3.49-.13,5.3-3.24,8.21-4.36,3.52-1.35,7-2.85,10.45-4.34a1.81,1.81,0,0,0,1.24-2.36,1.22,1.22,0,0,0-1.91-.76,64.37,64.37,0,0,1-19.72,5.27c-.84.1-4,0-2.83,2.15C412.2,259.89,412.89,262.77,415.85,262.6ZM279.08,464.12a6,6,0,0,0-5.67-.74c-8.33,2.16-18.14,1.26-23.48,11.45C260.25,472.8,268.48,467,279.08,464.12Zm183.4-304.59c8.41-4.64,9.87-7.19,8.32-13.47-.26-1.06-.56-2.35-1.79-2.75s-1.48,1-2.17,1.58C462.46,148.7,464.29,154.08,462.48,159.53Zm-5.66,353.93c-3-.57-5.89.57-8.84.74-1.27.07-3.44-.71-2.8,1.94.43,1.81.61,4,3.75,3.14s6.49-1.42,9.54.52c.94.59,1.71.54,1.7-.51,0-1.93,2.56-3.2,1.63-4.95C460.78,512.41,458.48,513.88,456.82,513.46Zm38.88-381c-3.08,4.86-3.08,4.86-8.6,7.79a11.19,11.19,0,0,0-5,12.94C487.41,146.91,495.44,142.67,495.7,132.5Zm178.92,214a2.58,2.58,0,0,0-1.17,3.05c1.18,7-.05,14.13.49,21.18.11,1.31-.39,2.95,1.55,2.87a2.45,2.45,0,0,0,2.49-3c-.51-5.57-.57-11.21-1.51-16.71C676.06,351.45,677.17,348.42,674.62,346.46ZM638.56,230.39c-4.9-.61-3.83,3.69-4.34,6.06-.66,3.11,2.2,3.64,4.52,3.64s4.65-.94,4.26-3.61C642.63,234,643.51,229.9,638.56,230.39ZM453.1,539.45a15.31,15.31,0,0,0,5.43-16.68c-.69,3.07-1.94,5.52-4.46,6.37-2.67.89-2.42,2.64-2.16,4.56C452.15,535.46,452.62,537.2,453.1,539.45Zm-95-499.33c-10.05,2.08-15.54,9.71-14.63,18.05C349.43,53.67,350,44.83,358.12,40.12ZM344.66,590.89a40.12,40.12,0,0,1-3.13-2.9c-1-1.19-1.56-3.46-3.5-3-1.66.43-1.51,2.74-2.15,4.16-1,2.21,1,3.87,2.14,5.48.65.94,2.12.82,3.2.12A8.62,8.62,0,0,0,344.66,590.89ZM390,242.43c-3.1-12.84-6.79-15.78-14-16.7ZM366.63,217c-4.8-1.81-9.51-3.51-12.05-8.38-.59-1.13-1-3.21-3.13-1.59-1.56,1.21-1.64,2.66-.67,4.35C352.47,214.3,363.07,218.49,366.63,217Zm264.4.62c1.08,2.69-2.93,4.85.7,5.93,2.84.84,6.25.44,9.24-.2,1.69-.36,2.52-2.56,1.41-4.48-.61-1-2-1.93-2.75-.54C637.14,223.18,634.78,220,631,217.57ZM366.5,692.76a12.38,12.38,0,0,0-1-5.88c-.86-1.88-2.15-1.1-3.28-.55-1.32.64-1.61,1.37,0,2.26s1.09,2.07.29,3.36c-.93,1.48-.7,3.25-.39,4.84s1.35,3.3,3.31,2.93c2.13-.4,1.48-2.07,1.09-3.58A15.38,15.38,0,0,1,366.5,692.76Zm4.16-103.51c-.2-.37-.38-1.09-.63-1.12-3.8-.4-5.24,4.38-9,4.19a1,1,0,0,0-.64,1.53,9.55,9.55,0,0,0,.93,1.17c1.24,1.45,2.73,2.91,4.68,1.81C368.75,595.25,369.28,592,370.66,589.25Zm-82,79.87c2.36-5.7,2.36-10.92,2.43-16.09,0-2.11-1.76-1.58-3-1.48-1.79.16-1.69,1.2-.85,2.39s.15,2.48.15,3.73C287.47,661.21,286.84,664.88,288.7,669.12Zm87.41-118.36c0-.32,0-.76-.14-1-3.38-3.75-5.16-8.41-7.37-12.82a1.15,1.15,0,0,0-1.67-.55c-.67.39-.64,1.09-.27,1.72a33.91,33.91,0,0,1,4.58,13,2.43,2.43,0,0,0,3.11,1.84A2.46,2.46,0,0,0,376.11,550.76Zm-63.71-80.4c3.56,4.89,4.94,5.74,11.49,7.34C322,471.17,320.7,470.33,312.4,470.36Zm7.47,220.78c-2.64,1.34-4.3,4-2.79,5.92a6.87,6.87,0,0,0,7.69,1.7c2.56-1.21.88-3.88.7-6.3-1.8.86-2.14,3.24-4.1,2.72C319.14,694.59,321.63,692.4,319.87,691.14Zm40.35-577.72c4.26-4.6,2.24-9,2.72-13,.09-.8.57-2.22-.83-2.39s-1.87,1.07-1.88,2.3C360.2,104.24,360.22,108.18,360.22,113.42ZM642.46,249.84a2.78,2.78,0,0,0-1.67-2,23.51,23.51,0,0,1-4-2.74c-.88-.7-1.53-1.92-2.84-1.63s-.79,1.57-.9,2.45c-.2,1.48.51,3.12,1.77,3.08,2.51-.07,4.69-.12,6.44,2.07C641.63,251.52,642.33,250.74,642.46,249.84Zm-345,143c-1-4.59-1.22-9.48-5-13.38C290.8,385.52,295,388.85,297.46,392.84Zm253.6-116.47c-2.31,4.24-4.62,8.48-7,12.83,4.47.49,4.3.44,5.33-3.27C550.26,282.83,549.59,279.38,551.06,276.37ZM374,240.67c0-4.56-2.86-7.37-5.24-10.43-.5-.64-1.23-1.28-2.05-.45a1.61,1.61,0,0,0,.13,2.25C369.17,234.94,371.58,237.79,374,240.67Zm87.16-69.36c2-3.32,5.62-4.14,4.91-7.55-.28-1.31-2.86-1.17-3.44-.75C460.29,164.7,460.52,167.3,461.13,171.31ZM285,624.11c1.32-2.48,2.51-4.58,3.55-6.76a1.92,1.92,0,0,0-.17-1.77,1.7,1.7,0,0,0-1.7.09C284.78,617.94,281.82,620,285,624.11ZM650.13,418.17c1.71-1.57,3.84-1.25,5.63-2.09.72-.33,1.88-.32,1.71-1.36A2.94,2.94,0,0,0,656,413C652.63,411.25,650.55,413,650.13,418.17ZM633.28,188.08c1.89-1.56,3.06-2.69,4.39-3.57s4.73.39,4.14-2.1c-.74-3.15-2.52.88-4.1.25C632.33,180.52,632.93,184.06,633.28,188.08ZM346.52,590.38c3,3.89,6,3.07,9.09,2.56,1-.17,1.76-.61,1.66-1.44a1.45,1.45,0,0,0-2.23-1.16C352.49,591.72,349.93,590.65,346.52,590.38Zm177.25-43.69c-3.22,1.32-6.36-.93-9.16,1.3a1.42,1.42,0,0,0,0,1.24c3.1,1.34,5.93-.17,8.83-.94A9.81,9.81,0,0,0,523.77,546.69ZM390.45,25.09c-.05-1.15-.41-2.37-1.48-2.32-2.14.11-2.74,2.07-3.36,3.71-.49,1.29.25,1.74,1.51,1.63C389.07,27.94,389.93,26.67,390.45,25.09ZM364.6,205.18c-.06-2.49,1.07-4.77-1.15-6.3-.72-.5-1.67.1-2,.88C360.33,202.38,362,203.66,364.6,205.18Zm-115,357c.94,3.35-1.36,7.36,2.14,10.71C252.17,568.78,252.65,565.14,249.64,562.21ZM663.13,371.94c-1.76.83-1.91,2.73-2.24,4.44-.22,1.2.5,1.94,1.7,1.65,2.23-.54,2.35-2.44,2.4-4.25C665,372.76,664.71,371.82,663.13,371.94ZM275.51,561.45c2.05,2.58-2.49,6,1.31,8.61C277.9,566.77,279.88,563.72,275.51,561.45Zm379.9-180.76c2-4.81,2-4.81-.2-9.16C653.54,375.05,653.54,375.05,655.41,380.69Z" transform="translate(-23.81 -1)"/><path d="M240,1c.29,4.57,2.39,8.61,3.73,12.87,3.17,10.07,6.59,20.15,4.26,31-.83,3.87-1.66,7.71-5.94,9.68-5.16,2.38-9.9.34-10-5.39-.17-8.27-1-16.59.64-24.84,1-5,1.76-10.11,2.61-15.17.5-3,1.23-6,3.72-8.11Z" transform="translate(-23.81 -1)"/><path d="M557,1c5.11,10.08,5.83,21.14,6.91,32.07.49,4.94,0,10,.11,15,.13,4.44-2,7.45-5.94,8.77-2.71.9-7.93-3.41-9-6.91-2.57-8.54-1.87-17.16.16-25.62,1.39-5.78,3.65-11.35,5.54-17,.68-2,1.64-4,1.19-6.27Z" transform="translate(-23.81 -1)"/><path d="M677.53,873c-1.12,8-1.12,8-8.78,8-4.58,0-9.11.71-13.75.14-3-.38-4.16-1.39-3.9-4.32.39-4.38.89-8.76.95-13.15.08-7.15-.65-14.3.79-21.44.73-3.59,2.36-5.24,6-5.18,4.17.08,8.36-.27,12.49.13,3.33.32,7.22-.19,8.51,4.78.73,2.81,2,.49,2.93-.55,4-4.48,8.71-7.25,15.16-6.23,3.14.49,5,2.26,6.8,4.51s3.66,3.26,4.83-.32c.77-2.39,2.15-2.75,4.39-2.93,8.16-.65,16.29-1.27,24.29,1,1.49.43,2.06-.28,2.81-1.27,1.82-2.38,4.44-2.23,6.81-1.45s1.14,3,1.24,4.76a25.48,25.48,0,0,1-.08,6.92c-.39,1.82.33,3.52,3,4.59,0-4.7.1-9,0-13.21a4.22,4.22,0,0,1,3.62-4.63c2.09-.32,3.67.87,4.47,3.56,1.67,5.61,7.26,8.44,10.42,13.12a25,25,0,0,0,9.76,8.92,56.13,56.13,0,0,0,.58-16.35c-.8-8.22,2.42-10.64,10.22-7.34,1.79.76,2.8-.13,4.11-.6,5-1.82,6.85-.94,9,3.68,1.47,3.22,1.74,8.7,5.63,8.61s4.44-5.57,6-8.93,6.47-6.61,9.8-5.79c2.94.72,3.35,2.74,3.06,5.69-.58,5.69-4.7,9.71-8.09,12.63-7.17,6.17-6.83,13.41-6.21,21.2.43,5.51-.89,6.88-6.2,6.81-4.71-.06-6-2.84-5-6.52,3.14-10.84-.62-19.4-8.08-26.93-1.49-1.5-1.4-5.25-3.39-4.86-3,.59-.91,4.05-1.06,5.94-.68,8.94-.43,18-.63,26.94,0,1.83,1,4.28-1.68,5.17-2.36.79-3.7-1.06-4.94-2.59-5.05-6.22-10.36-12.17-17.25-16.4-1.58-1-1.61-3.34-4.46-3.8,0,6.08-.19,12,.06,17.88.17,3.9-1.21,5.48-5.15,5.19-3.65-.27-5.32-1.38-4.85-5.59a162.08,162.08,0,0,0,.52-17.78c0-1,.58-3-1.58-3-1.83,0-2,1.65-1.88,3,.39,6.73-.93,13.49.29,20.19.42,2.32-.61,3.06-2.62,3.12-3.18.08-6.88.64-7.19-3.95-.27-3.87.07-7.8.12-11.68a155.08,155.08,0,0,0-.51-18.79c-1.75,1.74-3.28,2.91-5.47,2.59-4.37-.64-5.68,2-5.32,5.59.76,7.78-1.46,15.47-.31,23.31.62,4.19-3.25,3.6-6,3.81-3.55.28-4.51-1.68-4-4.61,1.39-7.48.62-15.07,1.31-22.59.48-5.24-.67-6.08-5.86-5.63-1.19.1-2.5.32-3.35-.51-1.87-1.81-2.75-1.1-4.25.67-1.89,2.23-4.58,3.6-7.24.85-1.88-1.93-3.81-1.79-5.85-.6a2.38,2.38,0,0,0-1.36,2.49c.65,2.43,2.8,2.32,4.77,2.73,8,1.66,15.11,10.33,13,17.82s-12.4,14.47-20.13,12.12c-3.9-1.18-6-4.58-8.85-7.09C679.36,874.3,678.7,873.87,677.53,873Zm-5.07-.75a13,13,0,0,0,2.87-.25c3.32-1.06,1.27-4.15,2-6.2.17-.47-1.83-3.93-3.22-2.56-2.8,2.77-5.66.82-8.26.8-3.52,0-3.74,2.12-4.23,4.28-.61,2.71,1.88,2.88,3.44,3.22A56.23,56.23,0,0,0,672.46,872.23ZM686,864.78c0,4.46,3,8.06,6.94,8.37,2.11.17,4.44-.6,5.13-2.26a5.15,5.15,0,0,0-1.74-6.13c-1.27-.87-2.82-3.33-4.81-.44-1.13,1.63-1.81.15-2.49-.77-.46-.63-1-1.52-1.91-1.16C686.05,862.82,686.1,864,686,864.78Zm-14.56-16.54c-2.53.09-4.68,1.61-7,.06-.82-.54-2.39.27-2,1.36.89,2.15,4.38.73,5.32,3.32.08.22,1.59.29,1.7.06C670.22,851.62,670.73,850.1,671.44,848.24Zm6.7,15.2c1.75-2.06,3.76-2.89,6.4-2.11-.58-2.86-2.53-4.05-4.33-3.66C677.8,858.18,677.93,860.77,678.14,863.44Zm.8-9.37c.26-.18.65-.33.64-.45-.12-1.58.83-3.41-.75-4.62a2.25,2.25,0,0,0-2.18.28C675.21,851.83,677.86,852.56,678.94,854.07Z" transform="translate(-23.81 -1)"/><path d="M449.22,629.71c-2.55,1.62-2.4,3.19-2.48,4.62-.61,10.71-1.42,21.42-1.69,32.14-.16,6.56.9,13.14.72,19.7-.3,10.9-1.14,21.79-1.77,32.68-.48,8.38-1.35,17-.47,25.1,1.36,12.47-.61,24.78.45,37.12.2,2.36-.41,4-3.06,4.93-3.49,1.17-4.46.92-5.86-3.28-3.1-9.29-2.35-18.81-2.7-28.07-.59-15.61,1.32-31.3,1.3-46.95,0-20.74.78-41.42,2.65-62.05.86-9.47,1-19.13,4.72-28.22,1-2.49.49-5.59,1-8.34.26-1.31.73-3.05,2.7-3.13,2.23-.1,2.09,1.83,2.44,3.14,1.59,6-.45,12.1,1.31,18.37.5-3.62,1.43-7.25,1.4-10.87,0-6.33,1.77-12.52,1.12-18.86a2.93,2.93,0,0,1,1.7-3.29c2.12-1,2.1,1.58,3.6,2.37.52-1.61.93-3.09,1.47-4.52s1.39-2.43,3-1.63c1.19.6,2.19,1.43,1.94,3.11a247.53,247.53,0,0,0-2.9,29.51c-.16,6.4-.44,12.81-.19,19.19.47,11.93-1.63,23.77-.89,35.7.16,2.51-.39,5-3.46,5s-2.68-2.42-2.92-5a78.25,78.25,0,0,1,.21-16.83c.35-2.83.55-5.72-2.71-8.29-3.08-2.43-1.76-7.39-1.29-10.87C449.15,638.16,448.59,634.34,449.22,629.71Zm5-5.72c1.09-5.86,2.54-11.71,1-17.7C455.47,612.22,454.76,618.1,454.2,624Z" transform="translate(-23.81 -1)"/><path d="M531,617.47c-.5,12.07,1.39,24.08,1.07,36.14,0,.78.1,2,.59,2.28,7.52,4.5,5.19,12.37,6.23,18.87,1.54,9.78,2.3,19.68,3.16,29.56a98.44,98.44,0,0,1,0,13.74c-.51,9.25.47,18.49-.2,27.73-.2,2.78.33,5.62.55,8.43,1.18,14.91,2.79,29.79,3.83,44.72.38,5.59-1.17,11.2.55,16.72a2.68,2.68,0,0,1-1.7,3.66c-1.65.55-3.24.8-4.68-.51-2.5-2.28-3.78-5-3-8.43a9.52,9.52,0,0,0-.11-5.23c-.78-2.76-.68-5.57-4.07-6.71-.53-.18-1-1.45-1-2.19.33-6.16-2.83-11.8-2.15-18.13.89-8.38-1.52-16.79-1.18-25.15.52-12.89-2-25.69-.41-38.61.56-4.52-.61-9.24-.72-13.9q-.4-18.51-2.17-37c-1.23-12.81-.54-25.82-.48-38.74a136.88,136.88,0,0,0-.94-13.9c-.21-2.16.08-4,3-4.12,2.63-.06,3.57,1.6,3.76,3.74C531.1,612.8,531,615.14,531,617.47Zm1.52,50.65c-1.21,6.71-.14,21.39,1.91,24C532.65,684.65,535.18,676.92,532.47,668.12Z" transform="translate(-23.81 -1)"/><path d="M219.85,884.82c7.2-11.47,13.14-22.27,17.78-33.76.78-1.92,1.06-3.81,3.79-3.72,2.42.08,2.83,1.77,3.51,3.52a244.9,244.9,0,0,0,14.51,31.59c1.16,2,3.46,4.9-.25,6.09-2.8.9-6.75,1.73-8.17-3-.9-3-1.14-7.47-5.64-6.73-5.64.94-14-2.91-15.33,7.26-.34,2.62-2.25,3.21-4.19,3.51-4.1.64-8.27.16-12.43.55-3,.28-3.78-3.27-3.9-5.44-.23-4.09-2-7.7-2.65-11.63-.12-.76.12-1.76-1-2s-1.73.54-2.24,1.47a68.18,68.18,0,0,0-6.47,15.06c-.46,1.76-.85,3.4-2.7,3.69-2.36.37-2.34-1.86-2.87-3.32A79.22,79.22,0,0,0,185,874.62c-.56-.94-.94-2.31-2.47-2s-1.44,1.55-1.74,2.71c-.73,2.87-2,5.56-1.86,8.69.13,2.26.07,4.8-2.68,5.78-2.38.86-5,1.47-7.09-.43s-1.43-4.73-.85-7c1.25-4.94,3.14-9.71,4.39-14.64,1.49-5.91,2.63-11.91,3.85-17.89.47-2.27,1.34-4.55,3.76-4.65s3.49,2,3.91,4.33c1.42,8.07,5.11,15.31,8.49,22.66.33.7.23,1.76,1.36,1.82s1.12-.92,1.46-1.64a134.36,134.36,0,0,0,8.34-21.68c.55-2,1.09-3.76,3.17-3.76s2.67,2.07,3,3.92C212.09,862.06,215.64,872.87,219.85,884.82ZM243,868.31c-.43-1.34.74-4.18-1.46-3.94-3.05.33-2.46,4-3.54,6.2-.44.89.21,1.72,1.69,1.43C241.81,871.58,243.7,871.27,243,868.31Z" transform="translate(-23.81 -1)"/><path d="M506.06,864.17c.52,12.49-11.15,23.3-26,23.73-11.23.32-23.05-10.3-22.89-20.72.25-15.63,11.7-25.87,27.32-25.63C494.08,841.69,507.64,851.25,506.06,864.17Zm-24.24,13.68c8.26.27,15.56-5.93,15.78-13.38.2-7-6.29-13.39-13.7-13.58-9.89-.25-16.82,5.57-16.9,14.21C466.93,872.23,473.14,877.57,481.82,877.85Z" transform="translate(-23.81 -1)"/><path d="M626.65,838.91c10.9-.34,21.62,7.34,23.14,19.42.69,5.46-1.84,10.26-5.2,14.59-4.66,6-10.86,8.67-18.29,9-3,.15-5.92.58-8.88.89-3.7.38-5.51-.85-5.31-5,.5-10.35.53-20.72,1.07-31.07.21-4.11.61-8.5,7.07-7.47C622.15,839.62,624.5,839,626.65,838.91Zm11.82,22.24c-.3-9-1.68-10.41-10.34-12.58-3.57-.9-4.23.42-4.85,3.39-1.29,6.24.51,12.5-.53,18.72-.31,1.89.86,2.44,2.68,2.6C633.28,874,638.73,869,638.47,861.15Z" transform="translate(-23.81 -1)"/><path d="M365.48,881.41c-.39,2.36,2,6.45-3.61,6.55-4.74.09-5.23-.85-5.08-5.62.32-10.22.36-20.46,0-30.68-.13-4.39,1.15-6.57,5.62-6.42s9.17.08,13.69.61c5.6.66,8.71,3.82,9.8,9.1,1.34,6.56.15,9.65-5.48,12.91-3.08,1.79-4,3.5-1.27,6.39,1.81,1.9,2.93,4.37,5.18,6,2,1.42,2,3.73,1.56,5.92a2.83,2.83,0,0,1-3.37,2.26c-2.2-.82-5.49,1.46-6.69-2.38-1.09-3.52-3.51-6.35-5.65-9.26-.73-1-1-3.26-3.13-2.5s-1.57,2.66-1.61,4.27C365.46,879.38,365.48,880.22,365.48,881.41Zm.78-21.94c.08,1.61-1,4.92,4.13,4.59,4.5-.29,5.45-3.45,5.36-6.39-.13-4.3-4.44-4-7.28-4.18C365.11,853.27,366,856.18,366.26,859.47Z" transform="translate(-23.81 -1)"/><path d="M550.62,867.64c-.71-7.46,1.64-14.82,1-22.28a4.06,4.06,0,0,1,4.11-4.67c4.88-.05,9.78.37,14.66.73s7.29,3.94,8.64,7.88c1.71,5-.06,9.46-3.85,13.07-5.27,5-5.32,5-.26,10.28a12.83,12.83,0,0,1,3,4.49c.78,2.13,2.09,5.06-.54,6.14s-6,1.42-8-1.86c-1.82-3-3.62-5.94-5.37-8.94-.68-1.19-1.38-2.62-2.9-2.12s-1.39,2.13-1.44,3.45c-.05,1.5,0,3,0,4.49-.18,5-2.92,6.84-7.53,5.24a2.1,2.1,0,0,1-1.65-2.52C550.77,876.57,550.62,872.11,550.62,867.64Zm18.45-13.82c.27-3.23-1.75-4.71-4.46-4.66-2.92.06-4.32,2.07-4.1,5.1.19,2.52.59,4.55,3.91,4.53C567.92,858.77,569.2,857.06,569.07,853.82Z" transform="translate(-23.81 -1)"/><path d="M458.91,499a16.49,16.49,0,0,0-12.44,2,5.54,5.54,0,0,1-3.4.35c-9.67-1.34-19.4.19-28.8,1.31C403,504,392.69,500,381.84,500.26c-1.68,0-3.52-1-5-1.94a3.58,3.58,0,0,1-1.32-5.2c1.07-1.6,2.39-2.52,5.24-2.12,5,.71,10,1.79,15.33,1.58,6.2-.24,12.49-.84,18.68-.47,7.61.46,15.93,1,22.53-.94,6.91-2,13.57-.66,20.09-2.4a6.6,6.6,0,0,1,2.45-.38c2.89.39,7.28-1.53,8,2.81s-2.88,6.26-6.67,7.28C460.31,498.7,459.5,498.84,458.91,499Z" transform="translate(-23.81 -1)"/><path d="M536.27,858c0-4,.07-8,0-12-.11-4.68,2.93-4.89,6.36-4.71,3.61.18,4,2,3.76,5.37-.52,6.41-.37,12.87-.43,19.31-.13,14.84-13,23.85-26.62,18.13a13.82,13.82,0,0,1-8.7-13.46c.3-8.4-.07-16.76-.46-25.13-.15-3.06,1.86-3.6,4.26-3.42,2.23.18,5.58-1.16,5.49,3-.14,6.12.64,12.23-.71,18.36-1.79,8.17,2.63,13.72,10,13.33,4.36-.23,6.78-2.49,7-6.82.16-4,0-8,0-12Z" transform="translate(-23.81 -1)"/><path d="M856.12,168.86c4,9.36,8.13,18,10.57,27.52,2,7.89,1.21,15-3.15,21.31-4.54,6.61-11.26,9.19-16.63,3.87a8.66,8.66,0,0,1-2.4-6.73c.13-11.52,2.84-22.64,6.62-33.42C852.51,177.46,852.62,173,856.12,168.86Z" transform="translate(-23.81 -1)"/><path d="M35.41,143.77c3.18,2.09,2.35,5.31,3.32,7.83a113.24,113.24,0,0,1,7.78,33.18c.51,7.32-.8,11.94-6.23,13.89-3.85,1.38-10.9-2.65-13.43-7.84-2.21-4.56-3.51-9.41-2.89-14.48C25.41,164.72,30.06,154.2,35.41,143.77Z" transform="translate(-23.81 -1)"/><path d="M277.59,890.51c-6.34.74-10.83-2.71-14.2-8-1.18-1.83-3.05-4,0-6,2.66-1.77,5.39-2.41,7.27.83a8.47,8.47,0,0,0,8.52,4.72c3-.12,4.69-1.09,5.13-4.09s-.55-5.32-3.49-6.36c-3.1-1.1-6.34-1.8-9.44-2.92-5.05-1.82-8.78-7.32-8.38-12,.38-4.29,4.82-9.13,10-9.75,5.5-.66,11.31-1.42,16,2.86,1.66,1.5,3.21,3.07.94,5.4-1.8,1.84-3.26,3.9-6.17,1.47a16.68,16.68,0,0,0-4.86-2.44c-2.71-1-5-.11-6.05,2.5-1.52,3.63,1.69,3.31,3.7,4.12,5.42,2.17,11.85,3.25,15.24,8.32,6,9-.95,21.14-11.84,21.33Z" transform="translate(-23.81 -1)"/><path d="M338,846.33a48.61,48.61,0,0,0,9.94-.18c2.6-.36,5.74-.21,6,4,.25,3.71-2,3.7-4.7,4.14a34.49,34.49,0,0,1-8.25,0c-2.46-.18-5.08,0-5,3.81s2.8,3,5,3.09c3.09.15,6.05-1.67,9.3-.24,2.12.93,4.07,1.66,3.82,4.4-.23,2.48-1.11,4.12-4.05,4.8-4.1,1-7.8-.27-11.65-.9-2.16-.36-3.93-.33-2.62,2.67,1.14,2.59-2.1,5.77.77,7.93,2.48,1.87,5-1.11,7.67-.59a33,33,0,0,0,5.85,1c2.39,0,2.61,1.73,3.06,3.26a3.31,3.31,0,0,1-1.91,4.16c-1.63.76-3.4,1.71-5.26,1.23-5.43-1.4-10.92-.78-16.38-.68-2.59,0-3.9-1-3.57-3.52,1.45-10.87.8-21.84,1.33-32.75.21-4.29,1.11-5.71,5.23-5.3A38,38,0,0,0,338,846.33Z" transform="translate(-23.81 -1)"/><path d="M118.15,478c-6.48.05-13-7.57-11.86-14.44s2.41-13.87,5.39-20.53,4.39-13.88,7.38-20.55c.45-1,.17-3.09,2.26-2.31a2.37,2.37,0,0,1,1.42,3.25c-2.25,7.31,0,14.23,1.94,21.19a81.35,81.35,0,0,1,2.44,25.71C126.91,474.58,122.57,478,118.15,478Z" transform="translate(-23.81 -1)"/><path d="M780.63,65.24c3.36,4.28,4,9.22,4.49,13.44.85,6.66,1.74,13.37,2.7,20,.84,5.8-.47,10.81-2.75,15.89-1.66,3.7-4.42,5-8.34,4.5-3.51-.42-5.51-2.2-6.92-5.48a16.74,16.74,0,0,1-1.18-10.72c2-7.64,2.88-15.59,6.12-22.93C776.8,75.33,778.53,70.55,780.63,65.24Z" transform="translate(-23.81 -1)"/><path d="M110.2,40c6.84,11.94,9.47,24.77,12.66,37.37,1.09,4.28-.16,8.8-2.29,12.5-2.78,4.81-9.7,6.9-13.7.24-2.86-4.75-4.66-9.88-3.68-15.6,1.69-9.82,3.4-19.64,5-29.47A12.51,12.51,0,0,1,110.2,40Z" transform="translate(-23.81 -1)"/><path d="M651.81,26.12c4,3.22,4.15,7.86,4.84,11.85,1.81,10.57,4.36,21.12,3.22,32-.07.66,0,1.33,0,2-.31,4.32-2,7.85-6.37,9.16-2.92.87-7.93-3.19-9.2-7.08-3-9.22-2-18.37.78-27.41C647.14,39.86,649.47,33.17,651.81,26.12Z" transform="translate(-23.81 -1)"/><path d="M437.72,888.08c-5.91-.09-6.27-.35-4.93-6.27,2.34-10.34-.37-19-7.86-26.4-.83-.81-1.53-1.78-2.42-2.51-2.14-1.74-3.2-3.88-2.29-6.56a4.76,4.76,0,0,1,4.22-3.07c2.78-.11,5.65.7,7.3,3.25,1.52,2.34,2.58,5,3.91,7.43.91,1.7,1.25,4.34,3.41,4.5s2.68-2.52,3.67-4.11c1.4-2.25,2.62-4.61,3.91-6.92.65-1.16,1.2-2.5,2.58-2.9,2.41-.7,5.29-1.37,7,.51s.29,4.32-1.1,6.27c-2.58,3.63-5.51,7-8.15,10.59-4,5.43-4.65,11-3.32,17.28C445.14,886,443.49,888.16,437.72,888.08Z" transform="translate(-23.81 -1)"/><path d="M239.61,165.25c3.28,11.5,6.8,22.53,9.48,33.77,1.48,6.22-.87,12.43-3.57,18-2.08,4.27-8.14,4.2-11.22.33a15,15,0,0,1-3.31-8.7,88.1,88.1,0,0,1,7.36-39.59C238.87,167.84,238.25,166.33,239.61,165.25Z" transform="translate(-23.81 -1)"/><path d="M157.68,295.28c-.35,4.82-1,8.61-6.22,9.46-5.84.95-8.13-.19-10.05-5.84-3.16-9.34-1-18.59.77-27.83,1-5.33,2-10.66,2.89-16,.18-1.11-.34-2.58,1.34-2.6a2.42,2.42,0,0,1,2.57,1.92c.46,2.25,1.15,4.48,1.4,6.76.83,7.48,4.78,14.06,5.91,21.51C157,287.08,155.89,291.64,157.68,295.28Z" transform="translate(-23.81 -1)"/><path d="M43.34,325.62c1.49,5.5,3.71,10.92,4.32,16.52,1,9,3.13,17.92,1.34,27.12-.64,3.33-2,5.61-4.94,6.89s-5.31-.33-7.52-2.25c-5.85-5.1-4.61-11.88-3.85-18.16C34,345.18,40,336,41.9,325.59Z" transform="translate(-23.81 -1)"/><path d="M848.89,350.42c3.91,14.53,11.78,27,10.14,41.88-.43,3.85-5.16,9.83-8.73,10.56-2.87.59-6.69-2.57-7.36-6.17-1.94-10.49-.22-20.87,1.57-31.13C845.34,360.82,846.14,355.88,848.89,350.42Z" transform="translate(-23.81 -1)"/><path d="M345.19,792.76c-.72-8.29-1.5-16.58-2.14-24.87-.59-7.64,1.65-15.17,1-22.82-.15-1.72.08-2.66-2.48-3.45-4.23-1.32-2.41-5.88-2.59-9.16-.11-1.79.19-4.27,2.59-4,2.77.28,6.41-.21,7.71,3.25.93,2.47.58,5.36.6,8,.13,19.9,2.4,39.72,2,59.64-.06,2.46.48,6-2.51,6.21-3.43.25-4-3.4-4.33-6.22a56,56,0,0,1-.05-6.48Z" transform="translate(-23.81 -1)"/><path d="M309.9,847.34c3.16,0,6.37.35,9.47-.09,3.84-.54,5,1.37,5.11,4.56.14,3.55-2.51,3.34-4.82,3.19-4.3-.29-5.62,1.07-5.25,5.77.66,8.33-1.23,16.69,0,25.14.52,3.6-3.11,3.68-5.78,3.71-2.95,0-5-1.49-4.59-4.5,1.1-8,.7-16,.8-24,.07-6.14.32-6.17-5.72-6.06-5.08.09-5.91-1.19-4.23-5.72.74-2,2.14-1.85,3.57-1.88,3.82-.07,7.64,0,11.46,0Z" transform="translate(-23.81 -1)"/><path d="M662.22,605.54a44.39,44.39,0,0,1-2.09,15.36c-.71,2.18-1.32,3.63-3.69,3.83s-4.43-.28-5.88-2.71c-4-6.74-3.15-13.76-1.43-20.79,2.23-9.13,3.76-18.45,7-27.34.43-1.2.13-3.07,1.87-3,1.57,0,1.79,1.81,1.8,3.08C659.86,584.26,662.51,594.36,662.22,605.54Z" transform="translate(-23.81 -1)"/><path d="M362,738.4c1.48,11.57,1.24,24.18,1.74,36.75.26,6.31,1,12.8-.83,19.09-.61,2.07-1.46,3.91-4.05,3.37-2.39-.51-1.87-2.29-2.34-4.27-1.29-5.47,0-10.85,0-16.12,0-8.47-1.19-16.89-.73-25.41.34-6.27-.32-12.63.25-19,.18-2-.34-4.61,2.44-4.6,2.52,0,3.35,2.4,3.53,4.7C362.07,734.44,362,736,362,738.4Z" transform="translate(-23.81 -1)"/><path d="M472.12,594.9c-.83,11.64.91,22.2-.4,32.75-.15,1.15.08,2.36-.17,3.48-.41,1.87-1.6,3.65-3.49,3.62s-2.07-2.11-2.43-3.78c-1.18-5.45.16-10.86.13-16.29,0-6.26.39-12.52.67-18.77.1-2.22-.54-5.48,2.61-5.5S472.45,593.32,472.12,594.9Z" transform="translate(-23.81 -1)"/><path d="M472.65,618.23c-.35-5.33-.54-9.24,5.51-9.53,1.78-.08,3-2.4,2.93-4.69a2.19,2.19,0,0,1,2-2.41c1.34-.19,2.47.36,2.67,1.67.64,4.19,4,7.06,5.08,11.16s-.4,5.52-4.1,5.91c-3.55.38-7.11.37-10.14,3.07-1.56,1.4-3.6.64-3.95-1.84A17.76,17.76,0,0,1,472.65,618.23Z" transform="translate(-23.81 -1)"/><path d="M402.18,533c2.36.1,6.86,7.93,6.23,10.73-1.06,4.69-3.47,8.86-5.76,13-.89,1.62-2.43,2.87-4.54,2.08-1.82-.67-1.49-2.46-1.41-3.84a91.76,91.76,0,0,1,2.69-18.51C399.8,535,400.6,533.43,402.18,533Z" transform="translate(-23.81 -1)"/><path d="M400,572.2c-.11,3.3.6,7.12-1.95,10.5-1,1.35-2.13,1.36-3.44,1.33a2.1,2.1,0,0,1-2.29-2.13c-.13-5.51-.54-11.08,1.19-16.43.54-1.65,1.48-3.68,3.77-3.29,2.45.42,2.82,2.44,2.73,4.6C399.94,568.44,400,570.1,400,572.2Z" transform="translate(-23.81 -1)"/><path d="M760.89,834.7c4.94-.88,9.15.82,13.36-.06,1-.2,2.83,0,3.48,1.38.76,1.57-.74,2.39-1.66,3.26-1.57,1.49-2.7,6-5.16,3.29C768.05,839.44,763.6,838.87,760.89,834.7Z" transform="translate(-23.81 -1)"/><path d="M327.94,731c4.83-.81,4.78,3.27,5.49,6.34.55,2.34-1.45,3.26-3.26,3.57s-7.92-5.3-7.8-6.73C322.54,732.07,324.39,731,327.94,731Z" transform="translate(-23.81 -1)"/><path d="M307.78,657.21c0,1.48,0,3,0,4.44,0,1.93-.47,4-2.72,3.83-1.85-.12-2.45-2.11-2.39-3.83.12-3.24.39-6.47.68-9.7.12-1.31.36-2.86,2.09-2.85,2,0,2.25,1.62,2.3,3.17s0,3.29,0,4.94Z" transform="translate(-23.81 -1)"/><path d="M333.71,751.76c.33-1.53-.42-4.56,2.87-4.2s2.92,3.82,3.44,5.94c.38,1.53-.63,4.27-3.23,4C333.71,757.21,333.64,754.62,333.71,751.76Z" transform="translate(-23.81 -1)"/><path d="M388.11,600c-.37-2.66.4-4.33,2.69-4.24,2.76.11,3.26,2.19,3.2,4.61s-.76,3.68-3.43,3.7C386.65,604.09,388.49,601.19,388.11,600Z" transform="translate(-23.81 -1)"/><path d="M766.68,827.32c1.65-2-5.47-3.23-.69-5.26,1.44-.62,5.06.84,5,4.23-.07,2.27-1,4.63-3.53,4.56C763.51,830.73,767.69,828.53,766.68,827.32Z" transform="translate(-23.81 -1)"/><path d="M410.66,816.54c-1.53,3.72-3,4.72-5.23,3.68a2,2,0,0,1-.89-2.94C406.3,815.1,408,818.19,410.66,816.54Z" transform="translate(-23.81 -1)"/><path d="M337.9,248.79c1.32,2.86,2.78,4.79,3.1,6.89,2,13.73,6.49,27.05,7.06,41,.11,2.75,1.4,3.15,3.42,2.67,4.48-1.06,8.18-.44,10.57,4,1,1.79,2.81,1.91,4.38,1.26,4.32-1.78,6.67-.78,6.74,4.16,0,2,.91,2.31,2.48,1.18,5.44-3.9,12.13-2.53,18.14-4.17,3.18-.86,6.58-1.07,9.26-3.1,2-1.53,4.31-1.75,6.5-2.16,4.44-.84,8.72-1.92,12.15-5,2.62-2.37,6.11-2.74,9.16-3.55,7.95-2.1,13.4-7.79,19.09-12.79,11.18-9.83,23.39-18.35,34.38-28.5,7.69-7.11,17.07-12.5,24-20.72a2.76,2.76,0,0,1,4-.54c1.42,1.33-.08,2.79-.94,3.86-5.62,7-12.16,13.14-18.43,19.54-.92.93-2.37,1.67-2.17,3.17.66,5.1-3,7.65-5.86,10.9-8.11,9.35-19,15.39-27.93,23.65C445.56,301,432.22,308.44,418.44,315c-6.26,3-13.37,4.21-20.14,6.06-11.55,3.15-22.77.07-33.93-2.37A14.15,14.15,0,0,1,357,314c-3.8-4.25-9.38-2.28-14.16-2.51-5.7-.28-8-1.81-9.18-7.43-.81-3.92-2.31-7-1.38-11.9,2.14-11.28,6.18-22.38,5.81-34.17C338,255.29,336.16,252.69,337.9,248.79Z" transform="translate(-23.81 -1)"/><path d="M374.63,390.23c.28-1.1.22-2.56.92-3.23,1.21-1.15,2.93-1.78,4.38-.1s1.86,3.6-.24,4.63a22.07,22.07,0,0,0-8.1,6.23,3.2,3.2,0,0,1-3.17,1.11c-9.3-1.69-18.4-2.28-25-11.59-5.92-8.3-12-16.74-19.48-24.09-6-5.91-8.8-14.45-12.07-22.21-4.07-9.67-8.48-19.35-9.65-30-.15-1.39-1.23-3.19.89-3.67,1.61-.36,2.71.94,3.17,2.56.36,1.28.7,2.56,1.11,3.82A26.12,26.12,0,0,0,314,325c4.4,4.34,6,10.94,8.11,16.77,3.75,10.22,10,18.95,15.19,28.36,5.27.47,7.49,7.26,13.49,6.41,2.35-.33,3.16,2,4.51,3.44,2.38,2.47,3.89,5.52,8.83,4.57C367.88,383.79,370.19,389.25,374.63,390.23Z" transform="translate(-23.81 -1)"/><path d="M539.36,241c-.7,6.18-5.36,8.36-8,12-5.88,7.88-12.17,15.45-18.34,23.11-1.45,1.8-3.07,3.46-4.62,5.18a2.77,2.77,0,0,1-3.65.48c-1.39-.85-1.08-2.46-.31-3.55,2.45-3.52,5.25-6.8,7.6-10.37,6.48-9.84,14.38-18.43,22.76-26.63.85-.84,1.55-2.43,3.24-1.54A3.48,3.48,0,0,1,539.36,241Z" transform="translate(-23.81 -1)"/><path d="M284.37,281.4a7.46,7.46,0,0,0,2.55,6.38c1.41,1.39,1.7,2.69.49,3.73-1.45,1.25-3.19.62-4.28-.93a14.06,14.06,0,0,1-1.8-3.54c-1.22-3.52-2.08-7.19-5.84-9.17-1.7-.9-1.8-2.71-1.21-4.39a1.89,1.89,0,0,1,1.43-1.06c1.81.2,1.86,2.07,2.75,3.18s0,3.59,2.23,3.27c2.69-.38,1-2.64,1.22-4.05.43-3.1,1.76-4.12,4.7-2.53.82.44,1.27,1.35,2.49,1.37a7.79,7.79,0,0,1,8.06,7.82c0,1.4-.73,3.52-1.87,2.39C291.8,280.39,287.31,286.67,284.37,281.4Z" transform="translate(-23.81 -1)"/><path d="M483.48,243.5c-2.32-2.13-3.76-3.46-2.16-5.71,1.82-2.55,6.13-3.93,3.05-8.69-.93-1.44,1.9-4.22,3.78-5.27,2.61-1.47,2.17,1.83,3.2,2.63,2,1.54,4.71.49,7.11-.21,1.58-.46,3.71-2.15,4.74-.06,1.52,3.09-1.5,4.67-3.27,6.54-1.37,1.45-2.72,2.66-4.2,0-1.13-2-2.12-.57-3,.33-2.71,2.7-5.43,5.38-8.07,8.15A8.79,8.79,0,0,0,483.48,243.5Z" transform="translate(-23.81 -1)"/><path d="M303.26,296.14c-1.13,1-2.82,3.45-4.61.63-1.28-2-3.87-4.94-1.07-7,2.15-1.59,2.85,2.32,4.9,3.18,1.88-.42-.27-4,2.42-3.76,2,.17,2.1,2.37,3,3.64,2.3,3.19,4.38,6.54,6.59,9.8,1.05,1.56,1.27,3.08-.17,4.46-1.74,1.67-3.42.69-4.91-.42C305.89,304,306.48,299.09,303.26,296.14Z" transform="translate(-23.81 -1)"/><path d="M554.08,244.39c-1.56,5.19-4.63,9.69-7.65,14.18-.66,1-2.55.7-3.75.08a1.88,1.88,0,0,1-.8-2.61c3.13-3.73,2.64-8.82,5-12.77a4.36,4.36,0,0,1,5.13-2.15C553.49,241.52,553.88,242.92,554.08,244.39Z" transform="translate(-23.81 -1)"/><path d="M304,278.1c1.88,0,13.27,8.44,13.71,9.78a3.62,3.62,0,0,1-1.13,4c-1.42,1.38-2.43.17-3.43-.54-3.54-2.5-8.2-3.61-10.28-7.93C301.81,281.32,300.92,279,304,278.1Z" transform="translate(-23.81 -1)"/><path d="M340.48,340.38c0-7.08-.11-14.17.07-21.25.06-2.51,5.24-5,7.45-3.87a1.83,1.83,0,0,1,.56,3C343.56,324.84,342.76,332.73,340.48,340.38Z" transform="translate(-23.81 -1)"/><path d="M523.29,245.25a4.15,4.15,0,0,1-2.08-3.7c-.09-3.35,8.34-11.78,11.78-11.6,3.14.17,3,2.84,1.72,4.3-3.24,3.75-7,7.07-10.52,10.55A3.6,3.6,0,0,1,523.29,245.25Z" transform="translate(-23.81 -1)"/><path d="M308.76,265.21c2.8,0,6.59,4,6.51,6.75-.06,2-1,3.61-3,3.79s-6.07-4.95-6.18-7.6C306,266,306.94,265.08,308.76,265.21Z" transform="translate(-23.81 -1)"/><path d="M542.11,250.31c0,1.86-6,7.69-7.79,7.69-.9,0-1.74-.32-1.93-1.19-.72-3.37,2.41-4.75,3.79-7,1-1.57,2.34-2.3,4.18-1.57C541.29,248.57,542.16,249.08,542.11,250.31Z" transform="translate(-23.81 -1)"/><path d="M397.94,160.54c-2,0-3.5,0-5,0-2.78.07-5.84,0-6-3.54-.22-3.84,3.9-4.85,6-4.66,11.19,1,22.55-.35,33.6,2.33a8,8,0,0,1,2.65,1.19c.92.65,2,1.45,1.39,2.86-.43,1.05-.85,1.87-2.41,2a35.29,35.29,0,0,0-6.16,1.64c-2.15.6-4.65.48-2.39,4.17,1.46,2.39-2,6-5,5.2-3.29-.86-6.54-.72-9.83-.76C397.86,170.9,395.6,167.77,397.94,160.54Z" transform="translate(-23.81 -1)"/><path d="M244.66,342.35c1.83,6,4.14,11.89,5.34,18,1,5.25,3.46,9.95,4.87,15,1.47,5.28,2.3,10.19,1,15.39-.37,1.47-.49,1.86,1.13,2.32,4.3,1.21,7,5,10.89,7,2.84,1.48,3,5,4.51,7.55,1.88,3.11,1.71,5.54-1.14,7.8-1.37,1.08-.72,2.28-.26,3.59.51,1.48.54,3.14-1.34,3.7-1.46.43-3.13.36-3.93-1.28a87.78,87.78,0,0,1-3.55-8.22,2.42,2.42,0,0,1,1.39-2.92c1.07-.55,3.24-.44,2.29-2.29-.86-1.7-.65-4.27-3.6-4.73-4.3-.69-8.07-2.28-8.38-7.6-.06-.89-.77-1.13-1.8-1.15-9-.14-13.59-5-13.34-13.75s.61-17.83,2.43-26.58c.83-3.95,2.37-7.73,2.06-11.95Z" transform="translate(-23.81 -1)"/><path d="M249,330.16c0-14.11.07-28.22,2.76-42.15a34.46,34.46,0,0,1,1.37-4.79c.53-1.48.51-4.1,2.31-3.89,2.4.27,2.19,3.38,2,4.87-1.23,11.85-.65,23.81-2.3,35.64a37.77,37.77,0,0,0,.1,10.93c.46,2.94,1.12,6.05-2.42,6.46-4,.46-3.66-3.31-3.85-6.07C249,330.83,249,330.49,249,330.16Z" transform="translate(-23.81 -1)"/><path d="M319.88,534.12c-.11,2.57-.33,3.94-2,4.19-1.47.21-3.33.48-3.87-1.34-2.61-8.82-10.69-14.27-13.88-22.76-.63-1.67-1.6-3-.17-4.43s2.68-.33,4.08.25c2.7,1.11,4.62,3.07,6.62,5.11C316.16,520.77,315.49,529.16,319.88,534.12Z" transform="translate(-23.81 -1)"/><path d="M337,533.76c.23-3,0-7.74,2.43-8.24,2.88-.6,3.43,4.17,4.7,6.66a9.84,9.84,0,0,1,.77,8.14c-.49,1.23-.76,2.58-2.55,2.58-1.59,0-2.89-.23-3.59-2C337.84,538.62,336.69,536.39,337,533.76Z" transform="translate(-23.81 -1)"/><path d="M357.94,544.57c2,.17,2.3,1.51,2.24,3.15-.05,1.42-.69,2.21-2.16,2-1.63-.27-2-1.52-2-3S356.28,544.4,357.94,544.57Z" transform="translate(-23.81 -1)"/><path d="M615.23,380.5c.37,1.68-.36,2.73-2,2.48-3.8-.57-4.41-3.47-4.23-6.63.09-1.56-.83-4.5,2.06-3.89C615.13,373.32,614.59,377.39,615.23,380.5Z" transform="translate(-23.81 -1)"/><path d="M609.53,363.88c.18-2,.16-4.21,2-4,3.4.43,3.86,3.61,4.27,6.34.27,1.85-.09,4.23-2.53,3.8C609.67,369.41,611.17,365.4,609.53,363.88Z" transform="translate(-23.81 -1)"/><path d="M622.57,384.73c.32,2.56-.61,4.4-2.09,3.85-3.27-1.23-2.73-4.93-3.63-7.62-.4-1.21.25-3.27,1.68-3C622.55,378.81,621.75,382.75,622.57,384.73Z" transform="translate(-23.81 -1)"/><path d="M617.28,390a8.76,8.76,0,0,1,4.44,6.37c.25,1.42-.9,4-2.72,3.27-2.89-1.21-3.42-4.5-4-7.39C614.81,390.92,615.42,390,617.28,390Z" transform="translate(-23.81 -1)"/><path d="M422.1,242.7c-2.88.18-3.52-1.54-2.76-4.12a6.55,6.55,0,0,1,1.62-3.06c4.58-3.83,7.06-9.09,9.89-14.12.78-1.39,1.71-2.57,3.51-2.16s1.84,2.27,2.06,3.63a8.47,8.47,0,0,1-1.77,6.06c-2.47,3.7-5,7.38-7.28,11.18C426.16,242.11,424.39,242.52,422.1,242.7Z" transform="translate(-23.81 -1)"/><path d="M574.32,296.3c-.14-12.61,3-24.52,3.65-36.68a25.81,25.81,0,0,1,.7-2.89c.25-1.35.44-2.83,2.3-2.56a2.48,2.48,0,0,1,2.34,3.13c-1.25,8.83-.63,17.86-2.65,26.6a11.21,11.21,0,0,0,.05,5.37c1.43,5.9-1.31,11.36-2.05,17-.12.94-.61,2.52-2.15,2.28s-1.4-1.68-1.38-2.8C575.18,302.46,573.56,299.29,574.32,296.3Z" transform="translate(-23.81 -1)"/><path d="M477.08,517.74c1.5-.06,3.82-1.35,6.26,0,1.1.62,2.6,1.51,1.46,2.16-3.2,1.83-4.3,6-8.11,6.91-1.71.41-4.18,1.23-5-.54a10.18,10.18,0,0,1-.26-6.57C472,518,473.93,516.76,477.08,517.74Z" transform="translate(-23.81 -1)"/></g></g></svg>