<svg xmlns="http://www.w3.org/2000/svg" viewBox="0 0 886.19 882.16"><title>ditchwork</title><g id="Layer_2" data-name="Layer 2"><g id="Layer_1-2" data-name="Layer 1"><path d="M1,266Q1,135.5.9,5C.9,1.58,1.58.9,5,.9Q154,1.08,303,1c0,2.66.3,5.39-.16,8-1.69,9.38-2.63,18.84-3.56,28.32-.27,2.71,3.16,8.29-4.12,7.3-3.67,5.29-8.76,4.21-14,3.34-3.1-.52-5.73.49-6,4.25-.14,1.82-1,2.48-2.58,1.75-1.9-.87-3.6.4-5.35.26-3.81-.3-7.32,2.89-10.87,1.48-2.64-1-4.44-1-6.26.82-1.48,1.47-3.09,1.28-5,1.38-5.08.25-10.77-1.26-15.11,1.45-7.24,4.51-15.54,7.41-21.37,14.31-2.24,2.66-5.9,4.4-9.39,6.06s-7.79,2.5-10.42,5.88c-3.75,4.85-5.9,10.47-8,16.15-1.71,4.59-.47,7,4.53,7.32,2.2.13,4.28-.06,5.54,2.37.61,1.17,2,1.07,3.16.68,4.42-1.53,4.66,0,2.53,3.37a1.93,1.93,0,0,0,.26,2.69c.9.86,2.3,1.64,3.14.84,4.86-4.67,8.23-.12,11,2.34,5.53,5,11.17,5.16,17.43,2.4a19.61,19.61,0,0,1,4.36-.83c7.35-1.39,14.94-1.57,22.53-4.13-.85-.52-1.25-.75-1.64-1-3.87-2.62-9.61-.09-12.33-2.47-4.6-4-10-3.74-14.68-4-8.2-.52-15.14-4.54-22.85-6.16-1.57-.32-6.74-2.14-2.23-6.21,1.46-1.32,1.17-3-.93-3.91-1.48-.67-3.19-1-4.25-2.41,4-3.15,11-1,12.87-7.81.25-.92,3-1.87,4.43-1.63,4.89.84,7.07-2.69,9.47-5.56a8.06,8.06,0,0,1,3.5-2.56,104.32,104.32,0,0,1,19.11-4.66c5-.76,11.58,1.22,14.69-5.41.42-.9,1.75-.22,2,.53,1.2,4.06,3.42,1.56,5.35.93a31.65,31.65,0,0,1,15.47-1.2c2.57.46,4.6,1.17,7.41.46s7-2.21,8.37,1.52c.94,2.49,2.22,5.27,2.26,8a166.71,166.71,0,0,0,3.55,33.32c1.81,8.29,2,16.89,5,25a8.15,8.15,0,0,1-.65,7.41C306.85,145,306.33,150,302,153a1.45,1.45,0,0,0-.43,1.34c3.09,6-6.16,6.57-5.29,12.44.37,2.5-3.29,10.07-3.12,13.71.24,5.09,3.66,9.23,3.25,14.55-.51,6.58-.44,13.23,1.43,19.75,1,3.5,5.39,8.25,8.11,7.63,4.12-.94,2.66-4.72,2-6.52-1.72-4.57,0-8.49,1.4-12.35.8-2.27-.28-5.07,2.2-6.88,4.32-3.16,7.06-7.85,11.38-11.25,3.84-3,4.26-1.71,5.68,1.24q5.06,10.46,10.21,20.86c.57,1.15,1,2.78,2.7,2.42s1.37-2.06,1.38-3.3c0-6.33-.06-12.66.06-19,0-1.69-1-4.24,1.16-4.86,2.38-.68,2.54,2.12,3.32,3.61a175.57,175.57,0,0,0,17.76,26.69c3.37,4.3,7.27,8.15,10.36,12.64,3.84,5.57,7.77,11.06,12.72,15.73.94.88,1.94,2.18,3.4,1.08s1.46-2.3.87-4a98.71,98.71,0,0,1-3.2-12.33,284.9,284.9,0,0,0-10.74-37.32c-5.2-14.89-7.11-30.38-11.05-45.45-2.52-9.68-3.21-20-5.41-29.95a16.58,16.58,0,0,1,.28-8.83,7.2,7.2,0,0,1,3.09,5,146.12,146.12,0,0,0,7.49,22c6.46,15.66,17.88,27.54,30,38.56a86.87,86.87,0,0,0,27.13,16.89,63.8,63.8,0,0,0,49.75-1c11.52-5,19.32-14.19,27-23.43A95.57,95.57,0,0,0,517.21,147c4.18-7.69,7-15.91,9.87-24.25,3.15-9.28,3.1-18.54,3.36-27.77.31-10.67-2.53-21.29-1.92-32.1.22-4.1.34-8.16-1.62-12.2-1.07-2.18-.52-5.23-.42-7.88,0-1.16,2.08-2.38,2.19-1.56.52,3.82,5.35,4.54,5.22,9.23-.27,9.56-.66,19.15,1,28.78,1.6,9.2.84,18.69,1.72,28.1,1.2,12.76,2,25.74,2.12,38.65.2,20.33,0,40.66.1,61a135.86,135.86,0,0,1-1.66,24.18c-.32,1.8-.18,4.09,2,4.62,2.38.58,2.59-1.87,3.48-3.39,7.19-12.37,11.46-26,16.6-39.23,3.07-7.88,5.82-16.07,7.11-24.57.28-1.81-.06-3.93,2.61-4,3.14-.07,2.68,2.42,2.69,4.3.07,10.83.05,21.66.09,32.5,0,1.81-.37,3.71.7,5.36.67,1,.65,2.9,2.48,2.63,1.36-.2,1.46-1.58,1.78-2.71,2.26-7.89,5.26-15.63,6.67-23.66,1.54-8.73,5.59-16.75,6-25.87.2-4.27,0-9.07,1.55-13.14,2.37-6.34,2.71-13,2.9-19.4.64-21,.26-42,.24-63a39.36,39.36,0,0,0-.41-4.45c-.77-6.66-2.53-13.15-3.4-19.83a131.19,131.19,0,0,0-4.46-22.52C584.36,10.31,582.21,5.89,582,1Q732.5,1,883,.9c3.42,0,4.1.68,4.09,4.1q-.15,265.5-.09,531l-51.47,0-95,0c-5.92,0-6.77,1-5.72,6.61.33,1.79,1.73,3.35,1.24,5.28-1.49,5.87.34,12-1.39,17.85-.52,1.75.8,4.29-2.06,5-2.66.61-4.71-.15-6.43-2.58s-3-5.49-7.07-4.51c-1.85.43-2-1.51-1.83-2.81.34-3.49-1.49-4.37-4.52-4.06-2.73.27-4.21-.6-4.6-3.73a11.1,11.1,0,0,0-3.48-6.49c-2.13-2-3.68-2.39-5.25.86-1.81,3.72-1,7.52-1.19,11.29-.17,3.32-1.87,4.58-4.4,2.66s-5.46-2-8.24-2.79c-3.39-1-6.67.84-9.46-.14-5.25-1.84-10.76-2.38-16.16-3.89,1-1.77,2.46-1.31,3.7-1.29a4.75,4.75,0,0,0,5-3.3c1.56-4.37,4.84-6.21,9.1-7.55,6.6-2.08,7.06-3.54,5.27-10.44-1-3.67-1.16-7.47,1.18-10.56,2.83-3.74-1.45-7.93,1.38-11.83,1-1.44-2.65-1.76-3.79-3.21-.78-1-.91-3.61-2.92-2.58-1.67.85-3.33,2.56-3.12,4.75.32,3.47-2.24,6.26-2,9.69a2,2,0,0,1-1.66,2.19c-1.8.09-1.38-1.52-1.44-2.56-.16-2.5-.07-5-.32-7.49a6.74,6.74,0,0,0-4.49-5.53c-2.83-1-2.37,2.42-3.29,4-.48.81-.48,2.09-1.8,2.06-1.15,0-1.71-1-2-1.93-.91-2.69-1.22-5.25,1.81-6.95,1.07-.6,2.82-.89,2-2.77-.57-1.4-1.94-1.73-3.32-1.82-2.31-.16-4.76.19-6.92-.47-13.83-4.17-28.06-6.65-42.07-10.05s-28.26-6.18-42-10.68c-9.41-3.08-19-5.72-25.54-14.19-5.53-7.19-10.32-14.68-13.15-23.4a170.18,170.18,0,0,1-6.73-30.81,81.45,81.45,0,0,0-2.45-13.51c-3.25-10.53-8.64-20.19-12.47-30.49a80.89,80.89,0,0,1-3.85-16.71,72.19,72.19,0,0,0-2.75-12.52c-1.9-5.62-4.81-11-5.89-16.77-2.26-12-.88-24.54-5.3-36.36-1.3-3.49-3.3-5.46-6.2-5s-3.65,3.51-2.95,6.45a19.78,19.78,0,0,0,1.13,3.82,17.14,17.14,0,0,1,1.39,10.09c-.75,5.6-1.08,11.79,2.29,16.42,7.39,10.13,3.65,21.13,3.49,31.79-.09,6.18-1.86,12.32-2.61,18.5-1,7.95,3.7,15.87.06,23.94-.8,1.76-.33,4.29-3.09,4.27s-2.68-2.34-3-4.34c-1.67-9.93-.41-19.92-.78-29.88a19.62,19.62,0,0,1,.41-4.45c1.31-6.76,3.15-13.44,3.07-20.42,0-2.5-.66-5.3.24-7.44,2.75-6.51-.19-10.82-4.65-14.87a9.67,9.67,0,0,1-3.39-7.37c-.11-7.5,6.19-15.75-2.46-22.32-.2-.15-.2-.63-.2-1,0-3.13-.72-5.94-4.45-5.92-3.39,0-6.16,1.8-7,5.24-1.57,6.35-3.09,12.73-4.15,19.18-1.58,9.55-2.32,19.33-5.69,28.41-2,5.45-3.91,10.8-4.64,16.57a4.45,4.45,0,0,1-2.84,3.69c-2.84-5.72-2.37-11,1.28-16.16a11.57,11.57,0,0,0,1.59-4.13c1.74-8,3.7-16,5-24,.85-5.39,3.39-10.36,3.68-15.79a21.67,21.67,0,0,1,4.65-11.86c3.31-4.49,7.24-5.31,12-2.64a10.17,10.17,0,0,0,8.62.74c4.4-1.45,10.18.05,11.73,4.37,2.47,6.87,7.21,13,6.34,21.13-.57,5.44-1.35,11.21,1.25,16.69,5.41,11.38,6.88,23.83,9.36,36,1.41,6.89,3.43,13.65,5.21,20.47.65,2.48,2.47,3.78,4.87,3.13a44.75,44.75,0,0,0,9.18-3.52c9.06-4.8,16.94-11.41,24-18.66a67.73,67.73,0,0,0,15.82-27.31c1.77-5.7,2.59-11.55,3.6-17.42a210.59,210.59,0,0,0,2.85-23.44c.22-3.77-2.23-7.29-1.59-11.24.73-4.6-1.09-9-2.54-13-3-8.28-5.68-16.88-11.57-23.83-1.78-2.1-2.88-5.24-6.32-4.89s-4.41,3.56-5.14,6.13c-2,7.14-6,13.23-9.68,19.51-.72,1.23-1.74,2.64-3.56,2.07a3.9,3.9,0,0,1-2.86-3.21c-.33-3.3-1-6.9.39-9.89,2.72-6,1.65-12.18,1-18.08-.35-3.1-2.28-6.39-1.29-9.55,1.58-5.1-1.41-7.46-4.91-9.48a22.1,22.1,0,0,1-7.42-7.16,50.21,50.21,0,0,1-8.49-26.88c-.11-3.54-3.24-3.71-4.25-2.25-1.82,2.63-4.78,3.4-6.7,5.69a48.42,48.42,0,0,1-21.59,15.24,95.74,95.74,0,0,1-21.45,4.83c-5.64.57-11.09-1.69-16.51-1.88-9.15-.32-16.58-4.49-23.66-8.93-7.63-4.79-15.46-9.61-21.76-16.32a3.6,3.6,0,0,0-4.15-.9c-1.79.75-1.49,2.48-1.34,3.91a23.15,23.15,0,0,0,1,3.29c3.07,11.8,7.42,23.55,1.16,35.68a4.59,4.59,0,0,0-.28,2.93c1.37,5.74,3.09,11.4,4.25,17.17,1.37,6.77,4.18,13.25,4.17,20.26,0,2,1.07,4.72-1.74,5.67-2.59.87-4.91-.2-6.64-2.34-5.77-7.11-11.78-14.05-17.18-21.43-2.26-3.08-4.3-2.84-6.58-1.12-3.68,2.77-7.4,5.54-10.89,8.5-4.22,3.57-11.15,5.78-9,13.71a1.73,1.73,0,0,1-1.08,2c-3.54,1.95-3.94,5.16-.82,7.69a9.11,9.11,0,0,1,3.65,7.7c-.31,11.33,2.72,22.06,5.07,33,3.29,15.37,11.7,27.63,21.3,39.19,11.65,14,26.8,23.49,43.74,30.09,3.94,1.54,10.38.55,11.23-1.73,1.78-4.79,3.7-9.55,5.14-14.44.72-2.43,2.12-3,4-2.43,2.64.81,1.49,2.72.91,4.48-2.28,7-6,13.24-8.95,19.9-2.07,4.72-3.11,9.31-1.67,14.87A63.17,63.17,0,0,1,433,411c.23,10.16-.06,20.33.14,30.49.07,3.85-1.32,7.29-2.87,10.42-5.36,10.76-15,17.05-25.05,22.9-11.66,6.81-25.38,8.5-37.13,15.11-2.36,1.33-5.33,1.63-8.06,2.23a131.53,131.53,0,0,0-22,7.14,90,90,0,0,1-17.37,5.21c-8.71,1.65-17.13,4.41-25.82,6.08-2.92.57-5.89.78-8.81,1.35-7.86,1.54-15.27,5.14-23.57,4.79-3.35-.13-7-.37-10.09.39-14.36,3.6-29,3.78-43.62,4.85-4.45.33-4.06-2.11-2.32-4.4,7.05-9.3,12.32-19.57,17.52-29.95,2.28-4.54,4.16-10.4,11.34-9.58a1.57,1.57,0,0,0,1.59-1.62,3.1,3.1,0,0,0-2.3-3c-2.86-1-2.56-2.25-1.29-4.8,4.54-9.15,8.59-18.55,12.9-27.81.94-2,2.5-2.86,4.22-.74,2.46,3,6.5,4,8.89,7.08,1.28,1.67,2.73,1.08,4.35,0,2.4-1.62,3.11-4.3,4.48-6.5,2.57-4.13,7.34-6,9.85-10,12.72-20.28,20.85-42.22,23.44-66.12.28-2.6,1.55-5.15,1.55-7.73,0-15.62.57-31.17,1.77-46.77,1.11-14.41.22-29,.22-43.48,0-3.86-2.4-5.9-5.7-5.13-4.05.94-8.17,1.16-12.17,2-11,2.23-21.78,2.68-32.68-.19a11.73,11.73,0,0,0-5.43.07,172.07,172.07,0,0,0-23.52,6.88c-10.24,3.94-20,8.93-26,18.35-8,12.5-15.42,25.41-21.08,39.22-1,2.45-3,4.68-3.33,7.19-1.11,7.55-5.85,13.55-8.4,20.48-1.79,4.87-4.43,9.72-5.43,14.73a67.73,67.73,0,0,1-16.45,32.72c-3.62,4-6.68,8.58-10.07,12.83-5.88,7.35-11.12,15.21-17.66,22-1.2,1.25-2.32,2.24-4.33,1.48-4-1.52-8.24-1.86-12.34-3.07C82,430.7,63.63,425.8,45.25,420.77c-1.92-.53-4.23-1.09-5.5.89s.27,3.57,1.67,5.17c7.72,8.84,14.16,18.69,21.82,27.61,6.11,7.11,11.32,15,17.37,22.16,2.37,2.8,3.06,4.88.86,7.81-6.73,9-13.3,18.08-20.14,27S47.23,529.11,40.22,538c-.89,1.13-2.13,2.53-1.29,4s2.81,1.26,4.08.77c6-2.33,12.45-3.49,18.3-5.87,10.87-4.42,22.47-6.51,33.16-11.34,1.56-.71,3.87-1.6,5.2-.38,1.53,1.38,1,3.9.28,5.65-4.09,9.64-2.3,20.18-4.75,30.11-1.16,4.67.8,9.79,1.29,14.65a64.82,64.82,0,0,0,9.73,27.87c5.91,9.55,14.52,15.66,26.75,14.6,3.36-.28,5.78-2.53,8.77-3.25,11.47-2.77,22.95-5.56,34.68-7.06,3.27-.41,6.33-1.56,9.65-2,6.82-.88,13.92-1.61,20.33-3.71,13.3-4.37,27.06-6.63,40.54-10.08,9.69-2.48,19.34-5.19,29-7.72a239,239,0,0,0,38.68-13.51c4.6-2.1,10.06-1.88,13.94-4.41,4.63-3,10-4.11,14.65-7.17,5-3.24,11.32-4.94,16.86-7.69,16.6-8.25,33.12-16.66,49.44-25.48,7.55-4.08,15.05-8.47,23-12s15.48-8.48,22.7-13.65c5.55-4,11.67-7.12,17-11.43,1.89-1.52,4.34-1.95,6.14-4,4.73-5.41,4-11.94,2.64-17.54-2.23-9.13-1-18.35-2.39-27.52-1.78-11.5-.43-23.48-.43-35.26a23.91,23.91,0,0,1,.11-3.49c.17-1.14,1.53-2.09,2-1.24,1.67,2.86,6.23,4.24,6.17,7.09-.13,6.08,2.21,11.79,2,17.7-.74,18.48,1.29,36.86,1.6,55.3a11.64,11.64,0,0,0,1.43,5.23c3,5.85,8.06,9.36,13.56,12.45,4,2.24,8.48,3.92,11.89,6.85,7.4,6.34,16.55,8.25,25.4,10.12,8.51,1.79,16.25,5.32,24.12,8.43,7.06,2.8,14,6.16,20.94,9.38,10.45,4.85,21.52,8.34,32.16,12.8,8.38,3.51,17.24,5.64,25.9,7.7,8.45,2,16.35,5.82,25.16,6.8,7.94.89,15.52,4.32,23.72,4.2,1.91,0,3.84.11,3.84,2.74,0,10,0,20-.06,30a3.61,3.61,0,0,1-3,3.56c-1.74.46-3.85.34-4.44-1.28-1.18-3.21-3.78-3.72-6.44-4.55a10.12,10.12,0,0,1-5.9-4.38c-1.44-2.46-2.22-5.39-6.19-3.7-1.1.46-1.7-.77-1.63-1.91.09-1.6-.8-2.84-1.41-4.2-.85-1.88-2.37-3.15-4.25-2.87-2.52.38-1.29,2.68-1.3,4.13-.09,9.5-.2,19,0,28.5.13,6.85-3.69,13.58-.47,20.57.49,1.07-.87,2.52-2.21,3-1.75.6-2-1-2.86-2-1.11-1.42-.78-3.94-2.79-4.48-5.85-1.58-5.67-9.55-11.73-10.84-.28-.06-.63-.88-.57-1.3.41-3.16-2.49-4.53-3.6-6.86-.46-.94-1-1.88-2.16-1.61s-1.35,1.31-1.45,2.35c-.14,1.29.35,3.34-1,3.65-6.24,1.5-6.06,8-9,11.94a87.78,87.78,0,0,0-6.8,11.33c-1.14,2.21-3.23,2.4-4-.8a4.8,4.8,0,0,0-.89-2.22c-4.76-4.53-4.78-10.39-2-15.11A60.79,60.79,0,0,0,617.73,604c1.95-6.29,5.35-12.22,4.11-19.2-.31-1.78.76-3.19,1.62-4.62,3.71-6.18,4.53-13.39,7-20,.84-2.27.48-5.35-2.06-6-4.9-1.3-8.93-4.35-13.64-5.93a365.61,365.61,0,0,1-39.9-16.06c-15-7.08-30.56-12.3-46.25-17.35-6-1.94-12.72-2.65-16.73-8.66-.57-.85-2.05-1-2.93-1.75-5.34-4.41-11.84-7.05-17.32-11.3-1.79-1.39-3.93-4.44-6.74-3.09a86.77,86.77,0,0,0-13.19,7.77c-8,5.77-16.9,9.84-25.43,14.54-5.23,2.87-10.34,6.1-15.93,8.52-6.61,2.87-12.38,7.6-18.78,11-12.2,6.54-24.59,12.75-37.39,19.35,3.81,2,7.49.9,10.95.94,11.51.15,16.62,7.18,19.15,16.23A52.27,52.27,0,0,1,404,597c-1.13,4-3.27,5.83-7.4,6.91-9,2.37-18.31.44-27.32,2.32-2.61.55-5.55.77-6.28-3s1.71-4.37,4.61-4.92c3.26-.62,3.27-.81,2.33-3.9-.27-.89.14-1.19.79-1.43,2.51-.92,2.2-3,2.09-5-.33-5.67-.8-11.27-.34-17,.75-9.47-7.76-15.18-16.76-11.66-7.92,3.1-15.79,6.36-23.5,9.94-11.19,5.19-22.37,10.39-34.22,13.94-3.9,1.17-5.63,5-4.85,7.7,1.79,6.16,2.37,12.62,4.73,18.58,1.94,4.92,4.25,9.71,6.49,14.52a4.36,4.36,0,0,1-.39,4.68c-1.94,2.91-.82,4.94,1.88,6.6,1.55.95,2.87,2.34,4.49,3.1,4.48,2.1,3.3,4.67.84,7.42-1.21,1.34-2.63,2.39-3,4.42-1.66,8.65-6.49,14.69-14.67,18.35s-12.52,11-12.88,19.59A20,20,0,0,1,275.25,701c-6.09,6.95-9.3,14.59-8.73,24,.34,5.75-1.32,11.34-2.89,16.88-1.84,6.48-7.28,10.56-10.41,16.21-2.33,4.19-3.05,9.35-7.37,12.52-1.67,1.23-.74,2.51,1.13,3.69,3,1.87,6.29.74,9.17,1.74,14.78,5.17,29.94,9.42,44,16.51,9,4.54,18.15,8.74,27,13.57,9.53,5.18,20.27,2,30.46,2.8,4.28.33,8.22-1.11,11.88-3,13.35-6.81,27.53-11.35,42.31-12.58,11.55-1,23.5-1.89,34.48,4.53,3.47,2,7.72,2.41,12.44,1.25,4.33-1.07,8.78-2.43,13.41-3,5.46-.61,10.64-3.28,16.27-3.79,2.28-.21,2.92-3.18,5.31-3.34,7.54-.5,14.74-2.62,21.76-5.14,3-1.08,8.26-1.25,8.64-4,.78-5.63,6.06-6.65,8.53-10.4,1.74-2.63,3.12-3-.21-5.07-3.62-2.26-2.4-11.13,1.61-12.62,2.62-1,4.93-.38,5.88,2.75.39,1.29-.25,3.43,2.06,3.32,1.76-.08,2.09-1.9,2.85-3.16a6.28,6.28,0,0,0,.33-6.17c-1.44-3.36-1.89-7.22-3.39-10.37-2.55-5.36-2.68-12.7-10.13-14.85a2.19,2.19,0,0,1-1.22-2.52,2.54,2.54,0,0,1,2.31-2.28,63.41,63.41,0,0,1,8.84-1.12c4.68,0,6.65,2.49,4.33,5.5-3,3.82-2.31,7.06.42,10.32,1.18,1.41,1,4.59,3.71,4,2.47-.58,3.22-3.24,3.57-5.54a9.65,9.65,0,0,0-.67-6.31c-3.22-6.07-2.07-7.89,4.74-8.06,2.17-.06,4.34-.09,6.49-.27,1.74-.15,2.26,1.05,2.91,2.23a2.58,2.58,0,0,1-.77,3.53c-8.57,7.35-8.36,18.46-12.18,28.07,6.35-7,17.19-3.16,23.18-10.34a3.09,3.09,0,0,1,2.82-.6c3.91,1.64,7.3-.49,10.92-1.06,2.11-.34,2.41-.85,1.83-2.82a21.39,21.39,0,0,1-.3-5c-.09-2.23-1.27-3.32-3.21-2.09-5.69,3.61-11.71-.2-17.49,1-1.1.24-2.66-.2-2.69-1.6,0-2.06,1.83-1.46,3-1.54,2.64-.16,5.12.71,6.85-3,1.07-2.29,4.63-3.45,8-1.78,2.83,1.4,5.85,2.49,8.75,3.71,4.43,1.88,6.23,5.13,6.87,9.14.34,2.1-.3,3.49,2.79,3.49,2.5,0,3.28,2,1.73,4.29-.68,1-2.44,1.67-1.45,3.3,3.58,5.85,4.23,10.92-2.38,15.47-2.21,1.52-3.6,2.74-5.92.94a3.56,3.56,0,0,0-5.34.5c-4,4.74-9,5-14.51,4.16-2.65-.38-3.93-.42-2.88-3.77,1.44-4.63-.56-6.17-5.2-4.77-3.65,1.1-7.17,2-6.77,7.12.09,1.28-1.13,2.72-1.91,4s-2,1.62-2.76.2c-1.83-3.53-4.2-2.56-7.15-1.63-2.53.8-5.53-1.18-8.1.87a5.34,5.34,0,0,0-2.23,3.72c-.56,4.87-3.06,7.89-8.19,8.25-1.37.1-1.92.82-2.28,2.15-1.05,3.91-4.44,5.82-7.8,6.24-4.89.61-8.67,4.25-13.71,4.18-1.2,0-2.27,1.24-2.48,2.78-.16,1.24.34,3.09-1.36,3.38-2.45.41-1.19-1.63-1.46-2.71-.37-1.48-1.54-.59-2.42-.7-4.58-.6-8.92.71-13,2.29-4.86,1.87-10,.87-14.75,2.32-6.81,2.1-13.52,4.25-20.73,4.42-5.11.12-10,1.74-15.07,2.41-7.77,1-15.42,3-23.13,4.58-1.1.22-2.5-.24-3.12,1-.71,1.49.4,2.4,1.34,3.4,9.33,10,10,22,7.45,34.44-1.42,6.88-3.74,13.57-5.49,20.38-.75,2.91-.29,4.59,3.69,3.89a48.55,48.55,0,0,0,8.12-2.11c5.25-1.89,11.31-.36,16.08-4.3,2-1.62,4.22-.83,6.06,1.37s5,2.47,6.38-.11c3.2-5.81,9.25-6.44,14.18-7,11.26-1.3,21.67-5,32.29-8.37,5.72-1.82,11.07-4.76,17-5.83,13.38-2.42,26.07-7,38.8-11.56,5.59-2,10.83-5.28,16.21-7a138.66,138.66,0,0,0,22.22-8.94c2.89-1.52,5.81-3.82,9.34-4.25,1-.13,2.54-1.32,3,.35.84,3.09-.06,7.62-2.46,7.83-6.56.55-10.7,5.74-16.64,7.2-1.85.46-3.46-.83-5.31.23-4.7,2.7-10.59,3.14-14.34,7.79-1.15,1.43-3.23,1.53-5.14,1.39a12.83,12.83,0,0,0-6.77,1.19A138,138,0,0,1,529.76,853c-2.34.59-5,1.53-6.28,4.43-3.18,7.18-1.56,15.07-3.6,22.41-.25.89.72,2.12,1.12,3.2H511c.75-5.42-1-11,1-16.32,1-2.65,1.55-5.51.22-7.69-1.64-2.71-3.67.61-5.68.73-13.6.83-25.56,8.32-39.11,9.75-5.15.54-10.06,3.37-15.22,4-10.24,1.24-19.61,5.76-29.76,7.16-1.09.15-1.4,1.31-1.41,2.38H393c.47-2.29,2.09-1,3.13-.85,2.19.39,3.38-.5,4.39-2.35,4.46-8.22,9.1-16,10.65-25.81,1.94-12.12-1.3-22.53-6.73-32.61-2.66-5-6.78-9.22-13.5-7.31-8.78,2.49-17.73,1.79-26.65,1.83-2.24,0-3.74,3.5-5.08,2.37-3.66-3.08-7.86-2-11.82-2.64-6.9-1-13.51-3.7-20.67-3.32A46.07,46.07,0,0,1,310.2,810c-8-2.69-16.21-3.12-24.17-4.21a233.13,233.13,0,0,0-26.65-2.08c-9.15-.2-18.32-.1-27.48,0a14.58,14.58,0,0,1-6.63-1.64c-4.45-2.12-9-4.6-13.76-5.35-6.25-1-12-3.2-18-4.85a160.56,160.56,0,0,0-28.42-5.68c-5.62-.5-9.79-6.09-7.25-11.25,2-4,1.15-7.79,1.33-11.7.06-1.32,0-2.81-1.67-3.25a3.8,3.8,0,0,0-4.34,1.72c-4.07,6-9.12,11.33-13.3,17.21-3.06,4.3-6,4.28-10.07,3a10.9,10.9,0,0,0-3.86-.84c-13.94.92-27.83-1.24-41.8-.54-17,.86-33.69,2.6-50.17,7.19C21.33,791.15,9.82,796,1,806V690c12.44-3,24.08-8.64,36.61-11.41,1.39-.31,3.6-.81,3.23-3.1-.33-2.06-2-2.9-4-3.23-12.13-2-24-5.4-35.89-8.26V296a4.91,4.91,0,0,0,2,.11c12.75-4.84,25.86-8.55,38.89-12.51,1.59-.49,4.08-1,4.26-3,.24-2.58-2.81-2.86-4.29-3.29C28.27,273.34,14.62,269.72,1,266ZM424.47,424.94c0-2.17.1-4.34,0-6.5-.4-7.25.94-14.54-1.52-21.76-.95-2.81-.51-6.36.13-9.4,1.8-8.43,1.86-8.09-6.47-10.52-10.48-3.06-20.52-7.34-28.62-14.94-2.61-2.44-6.5-3-8.44-5.93-3.66-5.55-8.59-10-12.75-15.11-5.92-7.26-10.55-15.15-14.92-23.25-4.66-8.63-6.41-18-8-27.76-2-12.53-1.92-25.24-4.47-37.66-.63-3.07-1.93-3.81-4.31-2.76-5.87,2.58-12.44,2.91-17.76,7.78-3.5,3.2-5.66,5.61-5.78,10.43-.76,31.21,2.09,62.48-1.58,93.62-.73,6.18-2.47,12.27-2.82,18.46-.31,5.5-3.3,10-4.28,15.18-1.89,10.11-6.29,19.27-11.66,27.88a91.08,91.08,0,0,1-16.33,19.87c-2.43,2.16-3.21,4.65-3.31,7.9-.24,8.32,2.88,16.22,2.27,24.66-.73,10.18-.45,20.43,3.06,30.33,1.36,3.84,3.13,5,7.05,3.43a34.58,34.58,0,0,1,10-2.61c8.67-.66,16.53-4.2,24.75-6.38,5.35-1.43,10.27-4.74,15.65-5.73,13.33-2.46,25.9-7.38,38.74-11.32,10.84-3.32,21.1-8.58,31.57-13.09,13.72-5.91,21.35-15.67,19.87-31.34C424.1,434,424.46,429.43,424.47,424.94Zm319.6-85.64c.13-2.52,4-3.23,2.52-5.32a77.93,77.93,0,0,1-8.74-17.31c-1.32-3.49-3.73-6.8-5.34-10.46-2.12-4.78-3.64-9.89-6.75-14.26-1.14-1.61-1.94-2.75-3.82-1.17-.63.54-1.31,1.27-2.13.59s-.61-1.82,0-2.7c1.19-1.81,1.79-4,.52-5.63-2.27-2.93-3.21-6.76-5.64-9.28s-4.82-5.47-7.73-7.86c-3.93-3.23-8.62-4.91-12.7-6.94-4.87-2.43-10.16-5.09-16.51-5.27-9.88-.29-19.32,2.2-29.06,2.57-11.48.43-22.68-1.78-34-2.11-4.44-.13-5.85,1.68-4.45,5.81a186.52,186.52,0,0,1,5.81,18.9c2.65,11.82,5.09,23.7,8,35.46,2.26,9.09,2.64,18.44,4.78,27.57a295.42,295.42,0,0,0,14.34,44.59C648.21,399,653,411.65,658.45,424c2.94,6.71,4.3,6.77,8.82,1.22a9,9,0,0,1,2.35-1.74c3.18-1.95,4.82-5,5.94-8.37,1.41-4.18,2.44-8.49,3.86-12.68.87-2.6,2.41-3.3,5.41-2.21,3.33,1.21,3.07,4.07,4.06,6.29,4.23,9.58,9.56,18.52,15.07,27.41,3.33,5.36,7.51,7.51,13.49,5.49,2.42-.82,4.74-2.55,4.54-5.28-.22-2.91-2.49-3.51-5.24-2.72-.84.25-1.91-.31-2.87-.5-1.13-.22-2.53-.19-2.85-1.58a2.86,2.86,0,0,1,1.86-3.21c3-1.44,6-2.84,9.11-4,2.25-.83,4.39-2.22,4-4.47-.82-4.13,3.22-6.71,2.72-10.64-.11-.84,1-2.18,1.89-2.74,4-2.5,6.78-6.12,9.65-9.71a3.92,3.92,0,0,0,1.08-3.17c-.53-3.24-2.28-7.73,3.62-2.68a3.45,3.45,0,0,0,5.16-1.31c.71-1.57.16-2.86-1.67-3.49-1.67-.58-5.32,2-4.76-1.92.48-3.33,3.63-.26,5.48-.86a1,1,0,0,1,.5,0c3.67.8,2.88-2.69,3.51-4.2.93-2.21-1.41-2-2.8-2.1s-2.85.25-3.22-1.53a3.33,3.33,0,0,1,1.71-3.74c2.9-1.95,4-6.65,8.86-5.69.21,0,1-1.27.9-1.47-1.63-2.32-.35-6.42-3.2-7.48-4-1.48-3.29-4.2-3.3-7.1C752.05,342.39,749,339.13,744.07,339.3ZM609.44,277.79c2.48-5.74-1.76-10-3.35-14.68-2.15-6.33-4.58-13.16-10.64-17.05-5-3.18-9.71-7-15.88-8-1.83-.3-3.7-2.47-5.39-.51-1.53,1.79-.6,4.07.17,6.16,5.38,14.5,6.81,29.69,7.77,45,.38,6-1.83,11.87-1.58,17.63.56,13.26-6.3,23.53-12.17,34.2-3.62,6.59-7.68,13.06-14,17.72-9,6.64-18,13.11-28.59,17.21-4.95,1.92-5.78,5.41-3.31,10.19,1.13,2.17,2.52,4.22,2.49,6.93-.11,8.29,3.08,16,4.3,24.12,1.34,8.87,4.87,17.12,8.27,25.32,2.4,5.77,5,11.5,9.82,16,6.5,6.14,13.39,10.46,22.65,11.9,10.66,1.67,20.94,5.66,31.52,8,14.22,3.13,28.85,4.3,42.8,8.78,2.21.71,4.64-.2,4.68-2.37.09-4.37,2.23-8.2,2.52-12.45.75-11.23-1.46-22.56,1.47-33.74a9.38,9.38,0,0,0-.51-6.86,210.71,210.71,0,0,1-14.09-32.2c-3.51-9.86-6.35-20-9.8-29.87a142.35,142.35,0,0,1-5.24-18c-1.49-7.21-4.07-14.14-5.08-21.51a181.56,181.56,0,0,0-3.95-21.75C611.69,297.93,612,287.69,609.44,277.79Zm-466-245.12c0-7.33,0-14.65,0-22,0-1.1.26-2.48-1.15-3s-2.16.56-3,1.38A13.8,13.8,0,0,0,137,11.69c-3.41,6.12-8,11.31-12.8,16.3-2,2-4.27,3-6.74,2.1C113,28.43,108.36,27.32,103.8,26c-8.17-2.46-16.25-5.21-24.35-7.86C69.79,14.94,60.09,11.9,50.5,8.53c-2.82-1-5.77-2.32-7.7.35s.62,4.8,2.29,6.88c5.08,6.28,10.35,12.43,15,19,8.41,11.82,16.61,23.8,26.25,34.67,2.4,2.71,2.74,5.9.7,8.07-2.65,2.82-4.59,6.07-7,9C75,93,69.73,99.39,64.77,105.93c-7.15,9.42-14.69,18.55-21.57,28.17-.85,1.19-2.54,2.05-1.53,3.74.92,1.54,2.93,1.44,4.07.84,3.17-1.68,6.74-1.36,10-2.58,9-3.36,18-6.75,27.14-9.41,10.75-3.1,21.53-6,31.94-10.21,2.67-1.07,5.28-1.06,7.42,1.92,5.15,7.21,10.64,14.18,16,21.24,4,5.24,8.26,10.31,11.88,15.8,1.38,2.11,2.5,4.25,4.66,5.59a3.13,3.13,0,0,0,3.34-.05c1.23-.74,1.07-1.95.75-3.11-2.32-8.48-3-17.13-3.17-25.88-.09-5.5-.43-11.05-2.71-16.24a8.88,8.88,0,0,1-.78-3.85c.65-12.53-4.47-24.17-5.57-36.5-.75-8.39-2.06-16.84-3.08-25.26C142.88,44.39,143.44,38.5,143.45,32.67Zm172,772.38c-.74-2.16-2.18-2.36-3.34-2.83-13.38-5.39-26.81-10.69-40.17-16.14-3.52-1.43-6.92-3.11-10.5-4.42-3.76-1.38-7.57-.2-11.33-1.09a66.56,66.56,0,0,0-29.49-.13,42.34,42.34,0,0,1-17.72,0c-6.26-1.31-12.41-3.36-18.89-3.11-3.94.15-7.58-.43-10.91-2.64-2.58-1.71-5.51-1.08-8.26-.8s-3.16,3-3.63,4.86c-.64,2.51,2.08,1.74,3.38,2.45,4,2.18,8.66,2.11,12.9,2.88,13.32,2.42,26.25,6.21,39.13,10.11,7.55,2.3,14.61,5.57,22.92,4.37s16.73,1.61,25.17,1.41c9.24-.23,18.21,2.38,27.52,2.41,4.51,0,9.63.1,14.11,2C309.26,805.57,312.11,805.39,315.44,805.05ZM284,627.43c-.15-2,0-3.56-2.33-4.07-7.81-1.67-15.67-3.11-23.36-5.37-7.52-2.21-15.1-4.25-22.81-5.81-1.79-.36-3.54-1.67-4.9,0s0,3.33.83,5c2.46,4.9,7.15,7.81,10.36,12,7.07,9.3,13.85,18.85,22.13,27.16a15.86,15.86,0,0,1,3.18,4.39c.84,1.76,1.9,4,4.22,3.54s3.41-2.58,4-5.12c1.78-7.44,2.74-15.09,6.08-22.16C282.83,634,283.2,630.45,284,627.43ZM46.06,443.83A17.77,17.77,0,0,0,28.6,426.24a17.77,17.77,0,0,0-.19,35.53A17.85,17.85,0,0,0,46.06,443.83Zm225.69,226c-.22-1.34-.19-2.48-1.49-2.66a2.24,2.24,0,0,0-2.39,1.47c-1.58,3.64-4.65,6-7.19,8.86-4.86,5.41-9.39,11.1-14.24,16.53-6.69,7.49-12.65,15.62-19,23.43-.73.9-3.07.89-2.12,2.67s2.77.77,4.4.6c5.82-.61,10.63-4.13,16.38-5.19,5.39-1,11.07-2.7,13.21-9.08,2.41-7.18,5-14.3,7.45-21.47C268.53,679.87,270.17,674.7,271.75,669.85ZM387.57,561.29c-5.91-.07-9.73,5-8.14,10.4.8,2.73.9,5.49,1.52,8.15.93,4,.28,8.22,1.9,12.23,2.09,5.18,4.78,6.28,8.92,2.56,8-7.22,8.53-16.85,3.78-27.28C393.93,563.78,392.38,559.45,387.57,561.29ZM403.69,807c8.19.7,14.53-2.1,21.2-2.82a61.77,61.77,0,0,0,7.28-1.22,2.9,2.9,0,0,0,1.57-1.74,1,1,0,0,0-1.17-1.19c-3.62.68-6.74-1.41-10.2-1.73-9.17-.85-18.06,2.07-27.17,1.75a6.53,6.53,0,0,0-1.88.57c-5.33,1.61-10.61,3.32-15.39,6.3-1.4.87-4.57-.23-4.23,2.28.36,2.73,3.31.93,5.06,1.37a4.67,4.67,0,0,0,2.44-.23C389,807.87,397.15,808.68,403.69,807Zm282-275.14a24.72,24.72,0,0,1,5.8-.42c2.23.24,4.69-1,6.93-1.9a2.38,2.38,0,0,0,1.41-2.87,2.92,2.92,0,0,0-1.83-1.4C695.5,524.63,687.19,528.93,685.68,531.89Zm71.6-157.84c4,2,4.32,5.2,3.75,8.71-.45,2.74,1.55,3.39,3.43,3.89.91.24,1.68-1,1.14-1.62-3.66-4.08-.15-10.24-4.47-14.29a13.27,13.27,0,0,1-1.42,1.77A19.39,19.39,0,0,1,757.28,374.05ZM275.35,140.85l-1.05-1.67c-2.3,2.64-4.9-.85-7.21.34-1.17.61-2.28,1.51-1.2,3.14.95,1.43,1.17,3.93,3.6,3.37C272.2,145.42,273.66,143.07,275.35,140.85Zm-38-5.34c0-1.66.06-3.33,0-5-.06-1.24.3-3.09-1.62-3-1.48.08-1.94,1.64-1.95,3.06,0,2.5-.06,5,0,7.48.06,1.89-.49,4.79,2.28,4.55,2.34-.2.95-3,1.26-4.62A13.77,13.77,0,0,0,237.33,135.51ZM576.8,754.3c-1-1.29-1.62-3.29-3.66-3.53a5.78,5.78,0,0,0-5.34,2,1,1,0,0,0,.47,1.6c2.35.61,4.72,1.18,7.11,1.57C576.17,756.09,577,755.59,576.8,754.3ZM336.13,245.21c-2.44,0-4.56-.06-6.68,0a1.8,1.8,0,0,0-1.85,1.9c0,1.23.88,1.66,2,1.72C332.42,249,335.26,249.07,336.13,245.21Zm365,268.54c-2.86,2.72,1.92,5.87-1,8.21-.57.45.82,1.23,1.61,1,2.11-.51,3.59-1.77,3.41-4.11S702.24,516,701.14,513.75Zm-102,239.81c-3-.64-4.4-4.22-7.66-4.23-.81,0-1.74-.07-2.11.85-.13.3.14,1.11.39,1.19C592.77,752.35,595.13,755.92,599.1,753.56ZM283.86,5a23,23,0,0,0,3.05.69c1.81.05,3.69.1,4.67-1.86a1.27,1.27,0,0,0-.44-1.18c-1.74-.93-3.08.18-4.48,1C286.12,4,285.52,4.17,283.86,5Zm273.71,758c-.45-1.4-1.1-2.77-2.85-2.93-1.52-.14-2,1-2,2.26,0,1.55.71,2.55,2.37,2.58C556.32,764.86,557.42,764.57,557.57,762.93ZM712.29,449.19c1.44-.05,1.61-1.07,1.53-2.08-.1-1.4.34-3.25-1.72-3.58-1.29-.2-1.62,1-1.62,2C710.48,447,710.56,448.55,712.29,449.19Z" transform="translate(-0.9 -0.9)"/><path d="M887,634c-2.26-3.82-4.59-7.61-6.74-11.5-.45-.8-.2-2.1-1.48-2.25a2.72,2.72,0,0,0-2.85,1.66c-3,7.45-10.09,11.17-15.2,16.69a5.83,5.83,0,0,0-1.49,3.62c-.14,1.87-1.47,2-2.87,1.91-1.73-.06-2.11-1.12-2.2-2.66-.24-4.18,1.58-8.29,1.5-12.13-.25-11.81,2.89-23.36,2.05-35.16a12.48,12.48,0,0,0-2.68-6.93c-1.38,2-2.73,3.84-3.86,5.78-.74,1.27.31,3.83-2.28,3.69-2.32-.13-.46-3.12-2.52-4.06a8.78,8.78,0,0,0-2.54,5.49c-.56,4.07-5,6.65-8.57,4.7-2.14-1.17-3.25-1.85-4.44,1-.64,1.54-2.05,3.42-4.23,2.74s-1.75-3-1.76-4.73c-.07-14.15,0-28.3-.05-42.45a23.06,23.06,0,0,0-.1-4c-.31-1.69-1.16-3.28-3-3.59s-1.75,1.63-2.48,2.62c-2.8,3.81-4.69,8.86-11,7.81-1.08-.18-1.86.58-1.56,1.91.37,1.66-1.06,3.24-1.9,2.94-3.7-1.29-3.92,1.07-5.21,3.5a6.9,6.9,0,0,1-7.73,3.38c-2.82-.73-1.63-3.65-1.65-5.63-.13-8.66,0-17.32-.12-26,0-3,.71-4.71,4.1-4.7q46.44.21,92.88.31Z" transform="translate(-0.9 -0.9)"/><path d="M853,883c-.91-6.62-.2-13.28-.43-19.91-.17-4.78.54-9.6-1.47-14.27-.66-1.54-.16-3.61-.09-5.43.1-2.29,1.84-2.84,3.66-3.45s2.68,0,3.65,1.47c4.12,6.24,9.61,11.19,15.36,15.88,1.44,1.17,2.82,2.54,4.83,2.09,2.32-.51,1.44-2.62,1.79-4.12,1-4.49,3.56-8.54,3.64-13.32,0-1.62,1.71-1.79,3.06-1.94,0,13.5-.06,27,.06,40.5,0,2.15-.41,2.59-2.56,2.57C874,882.92,863.5,883,853,883Z" transform="translate(-0.9 -0.9)"/><path d="M821,883c0-7.38,1.39-14.79-1.12-22.11-.64-1.85-.81-5.12,1.84-5.37,2.28-.22,5.76-.69,6.69,3.33.73,3.18,2.32,6.16,3,9.34.79,3.64,2.49,5.65,6.38,5.46.6,0,1.74.38,1.74.58,0,4.56,4.73,5.56,6.46,8.77Z" transform="translate(-0.9 -0.9)"/><path d="M678,883c1-3.85,4.78-3.93,7.7-5.35a28,28,0,0,0-2.25-3.3c-.8-.9-2.71-1.28-1.44-3,1.38-1.88,2.1-.06,3,.7.6.48,1.24.22,1.64-.43.77-1.23-1.26-6.41-2.68-6.65s-2.88,0-3-1.83c-.08-2,1.59-2.23,3.07-2.52.91-.18,2,.51,2.92-.86-1.78-2.09-4.19-4.35-1.51-7.43,1.5-1.74,3.53-1.72,5.52-1.35,2.24.42,2,2.31,2,4,.1,9.39,2.44,18.63,1.91,28.06Z" transform="translate(-0.9 -0.9)"/><path d="M1,871l8,12c-8,0-8,0-8-8Z" transform="translate(-0.9 -0.9)"/><path d="M516,1c-.82,2,3.3,3.69,1,5.08-1.82,1.1-2.77-2.22-4.41-3.19C511.91,2.5,511.52,1.65,511,1Z" transform="translate(-0.9 -0.9)"/><path d="M697.35,771.73c-.71,3.94-1.39,5.68-4.69,3.29-1.88-1.36-3.41,2.79-6.11,2.28-4.12-.79-2.4,2-2.62,4.07-.4,3.77-3.42,5.64-6.85,6.28-3.61.68-7.25.7-8.62,5.24-.53,1.78-1.83.72-2.52-.33-.89-1.35-.6-2.91-.6-4.39,0-9.66,0-19.33,0-29a9.1,9.1,0,0,1,1-4.81c1.15-2,.81-4.23.6-6.36a6.17,6.17,0,0,0-4.24-5.13c-2.55-.94-2.54,2-3.47,3.36-1.16,1.62-1.56,3-4.43,2.49-4.67-.78-7.53,3.66-10.13,6.39-3.09,3.23-7.42,3.24-10.49,6-1.11,1-3.28,0-3.36-2.31s-.71-4.93.09-6.94c2.62-6.55.21-13.27,1.22-20,1.64-10.91.5-22.23.53-33.38,0-1-.07-2,0-3a3.84,3.84,0,0,1,3.33-3.8c2-.36,2.89.87,3.95,2.33,2.23,3.06.2,6.83,1.71,10.23,1.83-1,1.14-2.5,1.31-3.64.32-2.15,2.2-2.36,3.66-2.91,1.73-.64,2.18.91,2.86,2,1.61,2.67,3.8,5.12,4.85,8,1.81,4.92,5.74,6.51,10.12,7.8,1.37.4,3-.22,2.22-1.39-3.31-5,.59-9.61.44-14.42-.31-9.49.52-19-.33-28.47-.5-5.54,4.48-6.31,6.1-9.82.47-1,2,.24,2.59,1.32,1.4,2.41,2.79,4.84,4.31,7.19,1,1.55,2.27,3.26,4.4,1.7s4.14-.71,5,1.18c1.8,4.11,7.6,5.08,7.76,10.4,0,1.27,1.37,1.22,2.38.8a3.85,3.85,0,0,0,2.47-3.94q0-23.55.11-47.1c0-.67,0-1.34,0-2,.06-.84.22-1.73,1.19-2a1.62,1.62,0,0,1,2,1c1.84,6.9,8.29,10.29,12.83,14.41,4.15,3.77,5.8,8,8.22,12.33,1.07,1.92,3.57,2,4.09.77,1.46-3.55,4.76-5.56,6.38-9.23s3.84-8.38,7.44-10.48c5.19-3,6.72-8.19,9.49-12.61,1.68-2.69,4.53-4.43,5.61-7.55a1.44,1.44,0,0,1,2.47-.49c4.14,4.51,9,8.36,11.21,14.49,1.13,3.19,2.32,6.65,6.24,7.9a3.37,3.37,0,0,1,1.9,2.15c1.16,5.69,6,8.89,8.79,13.51.5.84,1.47,1.45,1.82,2.33.68,1.73.12,4.33,3.18,4.16s2.08-3,2.68-4.61c2.68-7.31,7-12.86,14.75-15.35,1.72-.55,4-1,4-3.81a1.76,1.76,0,0,1,1.74-2c1.54,0,1.79,1.23,1.85,2.45s.08,2.34,0,3.5c-.68,13.39,1.6,26.91-1.92,40.18-.48,1.82.43,3.52,1.46,5.14,1.41,2.24,2.72,1.88,3.47-.2,1.34-3.73,4.79-5.83,6.53-9.34,1.65-3.33,4.31-2,5.49.78,1.91,4.52,3.37,2.23,5,0,.19-.27.23-.66.45-.89,1.71-1.74,1.43-5.85,5.17-5.1s5.14,4.6,5.25,7.63c.41,11.14.26,22.32.07,33.47,0,2.73-2.39,5.13-1.77,8.14.35,1.68-.72,3.89,1.58,4.82s3.75-.79,5.12-2.22c3.78-3.94,6.28-8.94,10.35-12.65.45-.42.74-1.71.88-1.68,5.08,1.22,6.57-4.14,10.19-5.49s4.91,1.07,4.87,3.68c-.08,5.92,1.36,12-1.21,17.76-.57,1.3-.42,2.93-.5,4.42-.57,9.91,1.24,19.92-1.47,29.76-1,3.48,1.05,6.79,1.4,10.22.13,1.3.58,2.95-.52,3.81-1.48,1.18-2.2-.84-3.3-1.36a47.6,47.6,0,0,1-16.31-13.17c-.65-.79-1.53-1.63-2.54-1.25-2.27.85-3.18.36-3.68-2.16-.4-2-2.55-2.74-4.4-2.37-1.69.34-1.93,2.12-1.89,3.68.2,7.65-.27,15.28.28,23,.45,6.26-.19,12.59-.37,18.89a4.19,4.19,0,0,1-2.78,3.82,2.63,2.63,0,0,1-3.58-1.84c-.83-3.07-3.85-2-5.64-3.4-4.1-3.14-3.67-8-5.33-12s-7.84-8.77-12-8.39c-2,.18-1.93,1.58-1.88,2.87.4,11.89-3.54,23.6-1.14,35.66.59,2.95-.52,6.53-.77,9.84a3.48,3.48,0,0,1-3.12,3.41c-1.95.19-3-1.37-3.6-2.94-2.7-7.19-8.48-10.9-15.07-13.85-2.64-1.18-3.87-.81-6.06,1.66-6.7,7.57-8.22,18-15,25.47-4.21,4.65-9.11,9-11.14,15.36a1.38,1.38,0,0,1-2.46.16c-2.64-6.18-8-10-12.17-14.72-1.69-1.91-2.3-6.17-4.15-9.05a46.84,46.84,0,0,1-6-12.88c-1.08-3.88-5.46-6.87-8.46-10.16-.27-.3-1.29-.16-1.82.08-6.79,3.07-13.19,6.6-17.11,13.4-.89,1.54-1.1,4.5-3.87,3.69-2.27-.67-4.5-2.82-4.16-5.08,1.33-8.85-3.81-17.27-.57-26.49C701.85,787.35,699,780,697.35,771.73Zm96.25-35.25a6.37,6.37,0,0,0-2.59-6.41,20.21,20.21,0,0,1-5.33-7.1,31.11,31.11,0,0,0-11.81-12.48,5.83,5.83,0,0,1-2.65-2.85c-2.52-6.3-6.53-9.14-12.88-9.28-2.34-.05-4.1.16-4.72,3.11s-2.56,5.45-6.1,5.62c-2.14.11-3,1.84-4.42,3-6.7,5.54-10.49,13.64-17.11,19.32-3.18,2.73-2.24,6.33,1.54,7.69,1.32.47,1.65,1.4,2.28,2.36,1.43,2.2,2.57,4.67,4.76,6.26,4.41,3.2,8,7,9.59,12.38,1.07,3.64,2,7.06,6.81,7.3a3.33,3.33,0,0,1,2.24,2.37c0,4,4.11,5.9,4.38,9.83.13,1.94,3,2.27,3.84.71,1.33-2.48,4.21-4,4.42-7,.1-1.54.47-2.75,2.17-2.71,3.13.07,4.6-1.89,5.17-4.45,1.21-5.47,4.83-9.58,8.57-13,3.19-2.93,4.62-7.92,8.54-9.15C793.8,740.84,793.78,739.21,793.6,736.48Zm-145-18c-1.8,3.73,1.61,6.24,1.09,9.31a1.76,1.76,0,0,0,2.19,2c1.62-.3,1.33-1.86,1.09-2.81A23.7,23.7,0,0,0,648.64,718.44ZM637,738.71c2-.12,2.82-1.5,3-3.27.08-.91-.56-1.71-1.53-1.35-1.63.61-3.73,1-3.74,3.29C634.7,738.51,635.94,738.73,637,738.71Z" transform="translate(-0.9 -0.9)"/><path d="M567.34,603.89c-3.51.06-7,.32-9.84-2.48-.49-.48-1.82-.84-2.22-.54-5.44,4.11-11.35,0-17,1-1.58.28-4-.38-4.52-2.37s1.56-2.89,2.86-3.69c4-2.42,5.33-5.34,3.7-10-1.1-3.1-.59-6.52,0-9.88,1.21-7.36,3-15-5.52-19.78-1.78-1-1.25-3-1-4.55s1.79-1.71,3.11-1.93a10.7,10.7,0,0,1,12.35,10.36c0,1.52-.1,3.06.9,4.29,1.27,1.56,2.48,2.55,4.34.31,2.47-3,4.58-3.56,8.72-.9,8.71,5.6,9.18,13.83,9.48,22.42.12,3.57.21,6.6,4.6,7.57,1.81.4,3.46,2.08,2.87,4.1-.87,3-3.48,4.79-6.35,5.62C571.77,604.06,569.5,603.78,567.34,603.89Zm-12.26-7.55c6-6.74,5.09-14.79,5.38-22.94-3.43,1.55-4,5.82-6.85,7-3.13,1.32-3.11,3.25-3.78,5.93C548.43,591.92,552.88,593.6,555.08,596.34Z" transform="translate(-0.9 -0.9)"/><path d="M379.81,660c1-2.52,2.62-4.8,1.47-7.52-1.58-3.77.9-4.68,3.59-5.49,1.42-.42,2.91-.61,4.35-1,3.78-1,6.09.61,6.27,4.63.16,3.75,0,7.51,0,12.39,4.28-3.85,3.24-7.44,2.77-11-.76-5.56,3.08-8.86,8.43-7.25s6.24,3.62,2.68,7.88-2.7,9.41-3.5,14.19c-.77,4.61-1.69,9.06-4.06,13.16-2.1,3.65-4.37,2.91-6.7.41a14.68,14.68,0,0,1-4.27-9.33c-.07-1.14-.1-2.71-1.56-2.71s-1.4,1.62-1.42,2.72a16.06,16.06,0,0,1-3.77,10.1,4.15,4.15,0,0,1-7.08-1.13q-3.29-9.28-6.48-18.6c-1-3-1.69-6-3.43-8.75-2.31-3.7-.83-5.91,3.49-6.09,7.48-.32,8.28.53,8.25,8.08C378.87,656.45,377.46,658.39,379.81,660Z" transform="translate(-0.9 -0.9)"/><path d="M512,678.77a6.42,6.42,0,0,0-4.86.63c-2.48,1.44-4.44.38-6.51-.78-1.05-.59-2-1.15-2-2.59a2.56,2.56,0,0,1,2.52-2.62c4.52-.2,4.41-3,3.81-6.25-.81-4.37-2-8.72-2.27-13.12-.17-2.5,1.09-5.1,1.69-7.65,1.24-5.23-.4-8.75-5.26-11.11-1.43-.69-2.79-1.49-2.67-3.22.14-2.14,2-1.77,3.44-1.94,7.72-.88,13.12,4.7,11.71,12.28-.42,2.28.46,4.28.8,6.38.25,1.58,1.54,1.47,2.72.81.88-.49,2.48-.4,1.47-2.29-1.9-3.54.43-3.75,3.19-4.68A28.1,28.1,0,0,1,534,641.14c2.54.44,4,1.23,4.46,3.72.58,3-1.7,3.56-3.74,4.29-3.43,1.23-7.05,2-9.87,4.58-4,3.72-3.05,8.21,2,10.45,4.72,2.06,8.22,6.08,13,8.27,2.44,1.12,1.57,4.06-.59,5.81-2.48,2-14.93,2.31-17.35.35-2.26-1.83-.11-3.13.78-4.55,1.87-3-.42-5-1.86-7.12a4.19,4.19,0,0,0-5.27-1.74,5.07,5.07,0,0,0-3.27,5.11c0,2,.91,2.85,2.74,3.55,1.38.51,3.71,1.2,3.13,3.21s-2.83,1.93-4.68,1.87A14.76,14.76,0,0,1,512,678.77Z" transform="translate(-0.9 -0.9)"/><path d="M505.75,714.55A13.75,13.75,0,0,1,519,732.34a18.36,18.36,0,0,0-1.17,5.33c0,2.87,1,5.47,4.69,5,2.87-.36,4.44,1.29,4.36,3.52-.09,2.64-.37,6.28-4,6.55s-7.18,2.78-11.06,0c-1.69-1.2-4.08.55-6.15,1.06-4.86,1.19-9.8,2.34-14.27-1.26-6.88-5.55-5.75-15.13,2.44-18.56,4.89-2,9.83-3.93,14.62-6.2,2.33-1.1,2.4-1.95.34-3.34-4.62-3.13-7.9-2.41-10.32,2.65-1.34,2.78-3.22,3.84-6.25,3.92-3.27.09-3.69-2.56-4.65-4.45-1.34-2.62.08-4.65,2.15-6.47A23.28,23.28,0,0,1,505.75,714.55ZM501.9,746c2.86.39,4.75-1.32,6.56-3.05,1.4-1.34,3.62-2.75,2.54-4.91-1.25-2.48-3.35-.71-5.16-.17s-3.66.47-5.25,1.21c-1.77.84-4.83,1-4.29,4S499.66,745.73,501.9,746Z" transform="translate(-0.9 -0.9)"/><path d="M502.59,584.94c-.77,5.54,3,8.13,7.11,9.49s7.79-.47,10-4.49c1.94-3.54,5.14-4.55,8.44-2.88,3.66,1.84,2.79,5.1,1.24,8.23a12.23,12.23,0,0,1-6.68,6.27,44,44,0,0,1-12.62,2.72c-5.39.54-9.43-2.12-12.56-6.64-6.92-10-9.47-18.49,2.33-28.65a25.14,25.14,0,0,1,9.09-5.43c8.44-2.59,18.94,3.76,20.72,12.46.6,2.92-3.44,7.4-7.31,8.13s-7.27-1.31-8-4.78c-.48-2.3,1.11-5.58-3.21-6.13-3.86-.5-5.24,2-6.76,4.62A11.62,11.62,0,0,0,502.59,584.94Z" transform="translate(-0.9 -0.9)"/><path d="M475.54,603.81c-5.79,0-8.66-2.64-11.3-7.83-3.26-6.42-1.54-13-1.79-19.48-.11-2.91-.78-4.41-3.9-4.21a7.36,7.36,0,0,1-2.92-.52c-1.61-.58-3.94-.37-4.09-2.9s2.27-2.39,3.69-3.35c3-2,7.45-2.56,7.15-8-.08-1.41.41-4.56,3.19-5s3.53,1.93,4.64,3.72a1.59,1.59,0,0,1,.26.43c1.23,5.59,3.81,8.64,10.37,7.32,2.31-.47,6,1.31,5.91,4.79-.09,3.21-3.37,3.71-5.93,4.37-2.2.56-5.17-.81-6.59,1.31-1.69,2.54-1.58,5.93-2.84,8.85-.77,1.8.79,4,2.54,5,2.24,1.37,2.11-1.19,2.94-2.15,1.8-2.11,4.28-3.22,6.67-2a9.23,9.23,0,0,1,5.19,7.79C489.12,598.6,483.29,603.79,475.54,603.81Z" transform="translate(-0.9 -0.9)"/><path d="M473.85,719.74c-.41,7.38,1.42,14.23,1,21.26-.23,3.63,1.91,6.63,5.82,7.62,1.34.34,2.79.43,2.68,2.25a2.94,2.94,0,0,1-2.9,2.91c-2.77.13-5.42,1.45-8.34.46a9.29,9.29,0,0,0-6.34.37A12.83,12.83,0,0,1,448,744.08a76,76,0,0,1-.87-8.88c0-10.83,5.11-16.54,15.89-18,1.36-.18,3.4.49,3.53-1.69.12-2-1.68-2.25-3.2-2.31a6.84,6.84,0,0,1-4-1.77c-1.1-.84-2.31-1.54-1.94-3.12.42-1.83,2.07-1.21,3.29-1.39a8.26,8.26,0,0,0,1-.07c10.15-2.84,11.6-2.33,12.14,10.29C473.88,718.15,473.85,719.15,473.85,719.74Zm-15.07,18.53a4.62,4.62,0,0,1,.09-1c.45-1.4-1-4.17,1.39-4,2.74.19.55,2.58.66,4s-.25,2.8.24,3.92c.71,1.57.93,3.92,2.89,4.34s3.28-1.22,4.43-2.67c2.1-2.63,2.57-6.38.77-8.33-3-3.24-6.05-7-10.77-8.17-.57-.14-1.68.58-2,1.2-2.27,3.88-4.29,7.94-4.31,12.53,0,2.3,1.37,4.42,3,6.09a4,4,0,0,0,4.68.65c2-1,.05-2.17-.43-3.17C458.53,741.9,458.79,740.08,458.78,738.27Z" transform="translate(-0.9 -0.9)"/><path d="M473.29,662.08c-.33,4.2,1.25,6.93,5.3,8,2.48.64,3.74,2.67,5.09,4.55a2.76,2.76,0,0,1,0,3.67c-2.21,2.63-10.66,5.11-14,3.87-3.63-1.35-7.66.38-11.2-1.7-1.67-1-4.22-1.08-4.26-3.57s2.24-3,4-3.91c2.21-1.19,5.8-.39,6.48-3.81,1.07-5.36,2-10.8,1-16.26-.36-1.87-2.34-2.11-4-2.34a23.49,23.49,0,0,1-4.38-.79c-2-.7-2.53-2.49-2.49-4.45s1.59-2.18,3.07-2.6c3.09-.9,6.32-1.61,9.31-.36,4.94,2.07,9.59,1.22,14.5,0,7.78-2,13.69,2.81,13.28,10.25a5,5,0,0,1-3.52,4.9c-2.33.78-4.88,1.36-7-.61-2-1.79-3.25-5.35-6.79-3.45C474.21,655.21,472.87,658.42,473.29,662.08Z" transform="translate(-0.9 -0.9)"/><path d="M414.5,660.83c-.62-10.25,7.27-17.13,20.51-17.85,5.34-.29,15.09,10.11,15.61,16.66,1.08,13.71-5.48,21.91-18.55,22.51C424.08,682.52,415.19,678.66,414.5,660.83Zm25.08,2.67c0-4.94-2.62-10.25-5.15-10.38-6.93-.35-12.14,4-12.16,10.2,0,4.51,5.62,9,11.79,9.31C437.3,672.82,439.55,669.08,439.58,663.5Z" transform="translate(-0.9 -0.9)"/><path d="M417.82,567.41c3.8.09,7.43.8,4.51-4.95-1.48-2.93-1.44-6.75,2.13-8.84,3.41-2,6.45-.67,8.93,2,2.76,3,2.4,6.07-.24,8.86-1.57,1.66-1.83,2.71-.56,5,3.49,6.31,2.38,13.51,2.85,20.37.24,3.62.91,5.78,5.28,4.83,3.06-.67,5.43,1.53,7.23,3.51a4.07,4.07,0,0,1-2.71,6.76,51.58,51.58,0,0,0-9.06,2.17,9.38,9.38,0,0,1-7.64-.66c-3.33-1.91-7.25-.39-10.74-1.63-2.14-.75-4.92-.9-4.53-4.19.34-3,2.71-2.8,4.93-2.91,4.87-.24,8-4,8.73-10.13.41-3.7-.65-7.24-1.2-10.83-.29-1.86-2-2.58-3.61-3a22.23,22.23,0,0,0-3.94-.49c-2.39-.25-5.06-.59-5-3.66C413.27,565.91,416.46,568.05,417.82,567.41Z" transform="translate(-0.9 -0.9)"/><path d="M379,744.12c.59-4.28,1.94-7.59.8-11.44s-2.86-5.14-6.73-4.62c-2.16.29-5.42,1.85-6.17-1.88-.78-3.94,2.49-4.91,5.31-5,5-.19,7.23-2.28,6.91-7.34-.14-2.27.88-4.66,3.25-5.05s2.84,2.28,3.76,4c.16.29.34.57.48.87,3.36,7.34,3.37,7.56,11.87,6.83,3.29-.29,3.72,1.88,4.27,3.7.72,2.35-1.26,3.08-3.19,3.45-.32.06-.66.06-1,.1-9.06,1-10.71,2.9-10.19,12.14.13,2.27,1.16,4.5,3.68,4.64,2.35.12,4.72-.8,5.05-3.71.39-3.4,1.95-2.32,3.58-1.07,3.72,2.87,5.32,6.16,3.83,11.16-1,3.4-3.63,3.87-5.86,4.66-4.82,1.7-9.72,4.24-14.76-.32C380.23,751.87,380.78,747.3,379,744.12Z" transform="translate(-0.9 -0.9)"/><path d="M431.69,762.16c-.14-5.14-1.61-5.27-5.12-4.75-7.6,1.14-15.11-5.83-16.12-13.65-.86-6.61-1.7-13,3.25-18.82,5.73-6.73,17.89-7.42,24.35-1.13s6.4,13.76,4.89,21.88c-.81,4.4-2.56,7.54-6.94,8.49C432.25,755,433.4,758.39,431.69,762.16Zm-4-33.19c-6.34.16-13.21,4.23-13,7.67.5,6.66,6.22,10.8,14.35,10.77,4.48,0,5.19-3.19,5.37-6.22C434.82,735.46,430.89,728.88,427.72,729Z" transform="translate(-0.9 -0.9)"/><path d="M763.59,537.69c6,0,12-.06,18,0,2,0,5.37-.61,4.87,2.47-.43,2.69-.31,6.67-4,7.71-2.07.59-4.06,1.7-6,2-5,.85-5.33,4.27-5.42,8-.09,3.33,0,6.66,0,10,0,1.49-.25,3-2.17,2-3-1.59-6.21-.87-9.31-.85-3.29,0-4.64-1-3.64-4.47,1.45-5.07.45-9.88-2-14.48-1.88-3.47-4.26-5.86-8.64-5.37-3,.33-4.78-1.07-4.8-4.27,0-3.54,2.68-2.77,4.66-2.8C751.27,537.63,757.43,537.69,763.59,537.69Z" transform="translate(-0.9 -0.9)"/><path d="M739.75,624.72c0,5.2-3.39,10.54-7.49,12.1-3.59,1.36-6.5.28-8.65-2.79s-1.42-6.31-.78-9.52c.23-1.14,1.55-1,2.54-.6,1.47.53,1.89-.15,2.38-1.52a6.09,6.09,0,0,1,7.43-4.09C738.5,619,740.71,621.26,739.75,624.72Z" transform="translate(-0.9 -0.9)"/><path d="M798.78,632.39c.69,4-1.46,6.48-4.67,8s-4.81-1.29-6.64-3.09a13.61,13.61,0,0,1-4.24-10.18c0-4.22,2.42-5.76,5.73-6.11,2.93-.3,5.17,1,4.72,4.7-.1.77.24,2,1.19,1.78C800.27,626,798.23,630.23,798.78,632.39Z" transform="translate(-0.9 -0.9)"/><path d="M734.61,839c0,3.5-4.84,10-7.29,9.86-2.16-.1-8.26-7.55-8.2-10,.1-4,4.24-8.32,7.83-8.23C731,830.69,734.67,834.73,734.61,839Z" transform="translate(-0.9 -0.9)"/><path d="M779.79,841.12c0-3.89,4-9.1,6.75-8.1s7.07.33,7.67,3.86c.92,5.46-4.49,14-7.82,13.77C783.93,850.46,779.79,844.46,779.79,841.12Z" transform="translate(-0.9 -0.9)"/><path d="M627.15,637.26c-.6-3.15.06-5.77,4.73-5.32,1.34.13,1.94-1,2.46-2.11,1.48-3.26,4.67-4,7-2.47,2.82,1.86,2,5.57.49,8-2.25,3.68-7.12,5.14-8.5,9.92-.43,1.51-5.94-1.25-6.2-3.5A42,42,0,0,1,627.15,637.26Z" transform="translate(-0.9 -0.9)"/><path d="M607.72,714.19a64.82,64.82,0,0,1-.13,8.93c-.19,1.33,1.33,4.46-1.86,4-2.55-.41-6.53-.91-6-4.65.81-5.78.16-11.92,3.49-17.24.83-1.33,1.57-2.8,3.27-2.57,2.22.3,1.41,2.26,1.45,3.61.07,2.66,0,5.31,0,8Z" transform="translate(-0.9 -0.9)"/><path d="M885.58,657.82c-5.72-.52-12.37-7.71-12.2-13,0-1.46-.27-3.16,1.53-3.82s3,.74,4.45,1.41C886.2,645.6,885.57,651.67,885.58,657.82Z" transform="translate(-0.9 -0.9)"/><path d="M712.4,594.77c2.45,4.4,4,5.22,5.37,1.23.4-1.18,1.55-2.5,3.06-2,1.78.59,1,2.83,2.08,4.12.72.87-.83,1.46-1.63,2-1.86,1.15-5.15-.6-5.87,1.68-1.17,3.69-1.29,7.71-1.8,11.61-.08.63.25,1.32.18,2-.16,1.53.84,4-1.28,4.26-2.82.34-1.11-2.46-1.58-3.74-.66-1.83-.74-3.81-2-5.53-1.64-2.26-1.33-6,.2-6.82C712.42,601.76,711.77,599,712.4,594.77Z" transform="translate(-0.9 -0.9)"/><path d="M882.11,833.14c1,4-1.27,6.24-5.33,6.79-2.16.29-7.17-5.4-6.82-7.7.45-3,2.45-5.55,5.31-5.79C880.64,826,882.1,827.69,882.11,833.14Z" transform="translate(-0.9 -0.9)"/><path d="M609.91,726.53c.2-1.92-.47-4.09,1.17-5.63,1.33-1.26,2.91-4.07,4.61-2.25,1,1.11,4.2,4.12.53,6.54-1.13.74-1.17,1.92-1.17,3.08,0,2-.4,3.69-3,3.46s-2.07-2.11-2.16-3.71C609.88,727.52,609.91,727,609.91,726.53Z" transform="translate(-0.9 -0.9)"/><path d="M609.88,816.38c.08-2.19,0-5.06,2.9-4.71,3.17.38,2.24,4,3,6.15s-1.2,2.91-2.93,3C609.33,821.07,610.13,818.33,609.88,816.38Z" transform="translate(-0.9 -0.9)"/><path d="M677.19,621.15c.81,3,5.48,5.37,1.23,9.2a2.68,2.68,0,0,1-1.64.85c-1-.12-1.07-1.07-1.08-1.91,0-2.69,0-5.38,0-8.07Z" transform="translate(-0.9 -0.9)"/><path d="M786.53,577.87c-.43,1.79-1.46,3-3.33,3.08s-2.06-1.32-2.19-2.7c-.17-1.91,1.17-2.1,2.55-2.08S786.28,576,786.53,577.87Z" transform="translate(-0.9 -0.9)"/><path d="M483.87,810.45l-.95-2.49c-.66-1.74-3.61-2.28-2.62-4.82.3-.78,1.25-.46,1.7,0C483.77,804.67,486.06,806.09,483.87,810.45Z" transform="translate(-0.9 -0.9)"/><path d="M741.76,575.26c-.19,1.37-.56,2.83-2.17,2.91s-1.44-1.48-1.47-2.58.12-2.49,1.64-2.61S741.71,574,741.76,575.26Z" transform="translate(-0.9 -0.9)"/><path d="M456.75,163.15c-13.62.75-22.63-5.1-29.66-14.28-1.79-2.33-4.28-3.53-6.08-5.65s-2.16-3.12.88-4.75a55.62,55.62,0,0,1,32.48-6.6,21.45,21.45,0,0,0,7.75-1.13c9-2.43,17.17.81,25.05,4.84,1.32.67,1.27,1.8.54,3-6.16,9.85-11.47,20.49-24,24.06C460.86,163.41,458.09,163,456.75,163.15Zm-6.91-21c-3.5,0-6.16-.07-8.81,0-1.23.05-3.08-.77-3.52.85-.5,1.85,1.42,2.36,2.76,2.88,7.08,2.73,14.41,1.87,21.53.71,3-.5,6.82.11,9.21-3,.82-1.06,2-1.91.8-3.39a2.64,2.64,0,0,0-3.46-1C462.17,142.06,455.63,142.47,449.84,142.19Z" transform="translate(-0.9 -0.9)"/><path d="M355.27,37.37c-1.23-10.23,4.41-18.81,9.06-27.68.66-1.25,2-2.7,3.62-1.51s.31,2.33-.46,3.4c-5.14,7.18-8.54,14.87-7.22,24,.51,3.55-.57,6.88-1.83,10.16-.3.79-.52,1.67-1.52,1.67-1.31,0-1.6-1.08-1.63-2.07C355.22,42.87,355.27,40.38,355.27,37.37Z" transform="translate(-0.9 -0.9)"/><path d="M383.94,66.87c12.95,4.14,25-1.13,38.11-3.71C413.32,72.62,392.39,74.52,383.94,66.87Z" transform="translate(-0.9 -0.9)"/><path d="M490.85,65.46c-3.45-2.33-7.33-1.83-11.09-2.24-1.74-.2-3.92-1.67-3.14-3.68.88-2.28,2.65-.18,4.12.07a39.55,39.55,0,0,0,21.36-2,8.12,8.12,0,0,1,1.79-.81c1.44-.17,3.53-.73,4.09.67.76,1.92-1.68,1.94-2.76,2.78C501,63.53,495.48,63.06,490.85,65.46Z" transform="translate(-0.9 -0.9)"/><path d="M362,93.93c.09,1.81-.31,3.65.52,5.41.4.85.88,2.1-.69,2.23-1.25.1-1.45-1.07-1.56-2.1-1-9.81-3.87-19.39-3.52-29.39.11-3.06-2.63-5.85-1.2-9.16.33-.79.73-1.64,1.66-1.64s1.23.93,1.28,1.78C359,72.09,360.62,83,362,93.93Z" transform="translate(-0.9 -0.9)"/><path d="M477.23,28c-.91,5.34-5.65,5.84-7.55,8.9-.27.44-1.24-.16-1.52-.8a2.13,2.13,0,0,1,.77-2.66C471.38,31.71,473.94,30.14,477.23,28Z" transform="translate(-0.9 -0.9)"/><path d="M466.16,107c-1.45,2.56-2.42,4.33-4.89,3.22-.86-.39-2-1.43-1.47-2.18C461.31,106.06,463.58,107.38,466.16,107Z" transform="translate(-0.9 -0.9)"/><path d="M31.41,452.37a32.12,32.12,0,0,1-8-7.58c-1.83-2.32,1.33-3.23,2.39-4.62A32.06,32.06,0,0,1,30,436a1.75,1.75,0,0,1,2.64,0c1.1,1,1,2,0,2.94a5.15,5.15,0,0,1-.69.71c-4,2.72-4.06,5.4-.08,8.24.88.62,2,1.5,1.37,2.85C32.93,451.37,32.1,451.78,31.41,452.37Z" transform="translate(-0.9 -0.9)"/><path d="M747,736.79c0-5.24,3.53-9.29,4.89-14.11.77-2.74,3.88-3.86,7.13-2.24,1.28.64,2.89.61,4.34.9,5.5,1.12,7.38,3.22,7.65,9,.1,2.06,1.26,3.25,2.39,4.71,2.9,3.73,1.5,10.56-2.91,11.78-4.06,1.13-6.09,3.92-8.29,6.78-1.33,1.73-3.1,2.64-3.35.1-.61-6-6.15-7.34-9.42-10.57C747.17,741,747.08,739.19,747,736.79Z" transform="translate(-0.9 -0.9)"/></g></g></svg>