<svg xmlns="http://www.w3.org/2000/svg" viewBox="0 0 895.19 876.25"><title>drugs</title><g id="Layer_2" data-name="Layer 2"><g id="Layer_1-2" data-name="Layer 1"><path d="M1,561a18.06,18.06,0,0,1,5.86,6.56c6.11,11,15.65,19.26,23,29.25,3.9,5.31,8.33,6.22,14.34,6.14,23.49-.3,47-.24,70.48,0,4.47,0,5.16-1.86,4.44-5.34-.93-4.52-3-8.7-3.73-13.33-.32-2-2-2.7-3.9-.66-3.52,3.68-1.25,7.42-.45,11.12.33,1.5,1.32,3.12-.78,3.65-1.77.44-1.76-1.43-2.21-2.66-1.52-4.13-4-8.19.58-12.12,1.12-1,0-2.14-.8-3-8.57-9.43-18.23-17.2-30.86-20.54-3.57-.94-4.81-4.73-8-6.43-4.21-2.24-8.69-4.42-11.71-8.5,6.59,4,13.94,6.17,20.69,9.44a58.06,58.06,0,0,1,10.75,6.15c4.18,3.32,8.95,5.62,13.27,8.68a108.44,108.44,0,0,1,10.86,9.14c.34.32.47,1.13.78,1.17,8.69,1.34,7.54,8.61,8,14.23.74,8.84.32,8.87,9.1,8.88,12.2,0,12.16,0,16.71-11.47,2-4.91,4-9.82,6.18-14.61,2.35-5.07,3-10.46,3.16-15.89.23-8.65.58-17.36-.07-26-.77-10.28,2.83-19.16,7.15-27.95,1.21-2.46.35-3.39-1.84-3.86-9.35-2-15.35-8.76-21.65-15.13-1.4-1.42-1.4-5.18-4.82-3.37-2.34,1.23-3.36,7.43-1.67,9.58,2.74,3.48,6.22,6.28,10.57,7.07a13.87,13.87,0,0,1,6.68,3.37c-1.9,4.62-5.36,4.8-9.57,4.26-6.7-.87-13-2.66-18.33-6.87-4.23-3.36-3.48-6.92,1.56-8.87,1-.4,2.62.09,3-1.34.46-1.89-1.63-1.76-2.51-2.58-2.64-2.44-5.5-4.65-8.16-7.08a11.71,11.71,0,0,0-8.13-3.39c4.15-3.38,8-3.45,10.85.54,2.35,3.32,6,5.09,8.29,8.38,1,1.51,2.87,2,3.43.05,1.18-4.08,3.59-7.48,5.31-11.24,1-2.16.68-3.36-1.9-3.81-10.77-1.88-21.57-2.82-32.48-1.27a5.16,5.16,0,0,0-4.14,3.24c-.79,2,2.22,1.25,3,2.83-18.31-1.84-36.46-1.15-55.13-6.93,7.15-1,12.87.51,18.45,1.35,12.19,1.82,24.09.63,36-1.43,11.53-2,23-1.87,34.63-.65a91.4,91.4,0,0,0,27.7-1.32,13.39,13.39,0,0,1,3.85-.24c-4.7,2.22-9.77,2.52-14.79,3-2,.19-4,0-6,.16-1.65.16-3.74.45-4,2.32-.4,2.48,2.16,1.29,3.28,1.87,6.47,3.39,13.31,6.15,19.52,9.93,7.39,4.5,14.84,6.28,24,2.93-4.33,3.84-4.32,3.77-8.93,3s-7.47.18-9.74,5.17a183.78,183.78,0,0,0-10.59,30.86c-1.16,4.54-.28,9.61-.28,14.44,0,2.18,1.58,2.14,3.15,2.16,1.81,0,3.73-.56,5.39.41s4.77,1.62,4.26,4.18c-.44,2.19-2.66,3.66-5.18,4.07-6.63,1.09-6.31,1.19-5.65,7.83.86,8.64-1.69,16.81-5.63,24.39-2.44,4.7-3.5,10-6.94,14.3-1.29,1.59-1.07,3.73,1.87,3.57,7.26-.41,14.66,1.31,21.74-1.51.93-.37,1.79-.89,2.86-.5,8.54,3.11,17.43,2,26.2,2,18,.13,36,0,54,0,2.78,0,5.61.85,5-4.14-.43-3.65,4.05-4.29,6.32-4.27,9,.09,15.7-5.87,23.69-8.15,8.51-2.43,16.64-6.5,25.91-6.14,10.4.4,20.95-1.17,30.86,3.69,1.91.94,3.95,1.52,5.69,2.9s3.66,2.85,6.25,1.29a3.52,3.52,0,0,1,2.91.06c10.42,5.4,22.18,4.48,33.17,7.15a57.58,57.58,0,0,0,31.66-1,10.15,10.15,0,0,1,4-.17,125.58,125.58,0,0,0,28-.21c9.69-1.19,19.29-3,29.12-2.32,1,.07,2.27,0,2.27-1.3,0-1.93-1.54-2.47-3.14-2.39-6.78.32-13.17-1.58-19.3-3.94-13.73-5.29-28.4-5.65-42.53-8.79-1.28-.29-2.52-.76-3.79-1.11-2.38-.65-4.4-1.57-3.69,2.77.62,3.75-2.94,3.18-5.33,3.26-2.56.09-4.92-.84-5.26-3.51-.24-1.93,1.71-2.55,3.57-2.55.76,0,1.81.24,2.08-.8.33-1.28-.75-1.75-1.66-2.1-2.92-1.13-6-2-8.82-3.29-9.36-4.19-17.34-9.95-23.4-18.55a128.84,128.84,0,0,0-15.27-17.65c-2.25-2.21-6.41-2.31-9.33-4-7.7-4.51-15.82-8.69-19.7-17.5-4-9.16-5.41-17.71-.33-27.76,2.73-5.4,6.83-8.08,10.3-12a110.94,110.94,0,0,0,11.48-14.95c1.94-3.17,1.47-7.52.27-11.07-2.65-7.81-7.95-13-15.51-16.94C324.26,418.6,309,407.83,298.9,391.5c-7-11.33-6.86-22.9.89-34.11,2.9-4.21,5-9.05,9.38-12.08,1.6-1.1,1.13-2.3,0-3.27-8.65-7.37-16.79-15.48-27.7-19.67-2.44-.94-4.48-2.94-7.25-2.32-.65-1.8.42-2.55,1.28-3.19q5.4-4,10.92-7.8c6.1-4.19,6.07-4.65,1.34-10.07-9.53-10.93-21.08-19.47-32.63-28-5.19-3.84-5.27-4.51-.78-8.79,6.8-6.51,15-10.93,23-15.61,14.15-8.26,28.57-16.07,43.72-22.39,27.34-11.4,54.75-22.67,83.85-28.95,17.06-3.68,34.41-6.22,51.24-10.72,11.2-3,22.59-5.07,33.83-7.64,11.49-2.63,22.89-6,34.8-7.1,10.53-.95,21-2.29,31.62-2.66a16.66,16.66,0,0,0,8.29-2.44c2.34-1.41,5.71.61,8.86.41,20.93-1.29,41.93-2.27,62.87-1.21,18.32.92,36.78.78,54.87,4.68a31.28,31.28,0,0,0,6,.19c1.35,0,2.52-.46,2-2-.49-1.33-.25-1.85,1.07-1.92s2.69,0,2.58,1.54c-.27,4,2.37,3.35,4.89,3.6,15.39,1.57,30.85,1.81,46.1,5.59,9.63,2.4,19.32,5.33,29.51,5.91,4.84.28,9.68,2.84,14.54,4.3,5.49,1.64,11.29,2.43,16.49,5.13,1.79.92,3.86-.19,5.82-.6,3.34-.69,6.63-.81,8.19,3.4.84,2.26,3.31,2.72,5.27,3.46,10.54,4,21.1,8,30.67,14.11,2.08,1.33,4.53,1.82,6.66,3.23,2.48,1.66,2.56,3.12.54,4.58-7.94,5.74-15.72,11.71-22.6,18.64-4.31,4.33-10.48,7.78-9.9,15.58.2,2.62-2.34,4.16-4.81,4.1-3.56-.08-5.39,2.13-7.33,4.43-2.14,2.53-2.08,4.42,1,6.4,5.21,3.32,5,6.22-.23,10.11A136,136,0,0,0,809.8,294c-2.27,2.4-4.43,4.84-1.45,8.58,2,2.57-.86,4.05-2.67,4.6-5.88,1.77-7,7.8-10.7,11.43-1.22,1.19-.45,2.75.86,3.31,4.53,1.93,7.49,6,11.72,8.31,1.43.78,2.93,3.32,4-.65.43-1.6,2.47-.31,3.19.64,2.58,3.46,5.63,3.82,9.58,2.55a9.35,9.35,0,0,1,7.7,1.2c1.75,1.07,3.59,2.34,3.19,4.61s-2.16,3.64-4.54,4a12.29,12.29,0,0,1-1.49.07c-1.43,0-2.9.41-3.19,1.86-.41,2,1.65,2.36,2.85,2.84,4.77,1.93,9.64,3.59,14.46,5.39a105,105,0,0,1,23.44,11.94c7.49,5.23,10.69,13.27,12.33,21.95,1.15,6.11,2.79,12,7.5,16.4,1.26,1.18,1.33,2.55,1.41,4.07.25,4.86,2.58,7.14,8,7.95v35c-5.06-2.24-4.74,2.56-5.28,4.7-1,4.15,2.34,4.27,5.28,4.3v13c-6.43.39-12.72,0-17.35,6.5-3.34,4.67-4.14,4.09,1,6.49,3.79,1.76,4.74,6.28,1.46,8.78s-7.45,4.89-11.82,2.72c-5.78-2.88-10.21-.4-14.67,2.71-3,2.09-1.79,5.21-1.38,7.79.46,2.85,2.76.92,4.36,1.07,3.2.32,6.8.48,8.66,3.81,2.47,4.43-.87,9.24-6.81,8.09-10.42-2-15.94,4.65-22.32,10.33-.91.81-1.86,1.76-1.13,3s1.7.07,2.58-.19c3.43-1,6.67.29,9.48,1.75,4.43,2.31,4.19,7.47-.25,9.82-4.7,2.48-9.28,1.4-13.85-.76s-3-5.72-1.82-9.64a13.77,13.77,0,0,0-2.42,1.2c-7.89,6.82-17.32,9.53-27.45,9.62-11,.1-21.43-3.63-32.13-5.62-1.11-.21-2.29-1-3.1.35a2.36,2.36,0,0,0,.35,2.81A43.82,43.82,0,0,1,775.24,555c2.5-1.72,1.43-5.71,4.49-5.91,3.61-.22,7.29-.67,10.89.58,2.26.79,4,1.79,3.55,4.55-.37,2.51-1.49,4.08-4.27,4.71-4.74,1.07-9-.58-13.47-1.79,3,4.75,7.63,7.55,11.8,10.94,5.61,4.58,13.91,5.55,17.33,13,.82,1.78,2.49,1,4,1,3.51-.21,7.66-.47,9.64,2.67,3.35,5.3,8.91,6.66,13.81,9.17,3.31,1.7,7.18,4.34,9.84-1.25.27-.56,1.44-.67,2.19-1,4.32-2,8.58-1.31,13.07-.27,4.79,1.11,6.07,2.75,4.51,7.5-.4,1.23-1.9,1.94-1.53,3.9,5.73,0,11.51,0,17.29,0,.58,0,1.55-.2,1.66-.53.25-.76-1.83-1.69.3-2.54,1.36-.54,2.22.39,3.32.52,7.23.8,9.17-1,9.45-8.31.3-7.94-1.16-16,1.06-23.83a3.66,3.66,0,0,0-.59-2.83c-1.62-2.08-1.62-4.11-.93-6.56.88-3.16.39-5-3.92-4a25.87,25.87,0,0,1-14.27-.45c-4.51-1.61-5.46-5.62-2.29-9.21,3.33-3.75,10.36-4.83,15.93-2.37,2.46,1.09,5.16,3.22,5-2.11-.08-2.1,1.74-1.45,3-1.51V779c-4.23-1-8.25-2.21-11-6a4.2,4.2,0,0,0-4-1.59c-6.22,1.23-5.56-2.88-5.46-6.67a21.31,21.31,0,0,0,0-3c-.15-1.36.67-3.22-1.41-3.76a3,3,0,0,0-4,2c-.79,2.1-1.8,3.13-4.47,2.47s-4.24,1.7-3.66,3.91c1.45,5.45.5,10.88.7,16.31A18.33,18.33,0,0,1,857.37,797c-2.06,2.1-2.47,5.16-1.23,6.89,3.16,4.4,2.37,10.61,7.14,14.24,1.46,1.12,2.46,2.3,4.52,2.38,7.87.3,15-2.72,22.3-4.87,4-1.19,3.87-4.86,2.4-7.25s-3.41-5.22-7.16-5.56c-2.91-.26-2.88-.62-3.43-4.42,5.57-.36,9.61,3.18,14.09,5.64v56a16.88,16.88,0,0,0-12.91-.1,5.84,5.84,0,0,1-4.84,0,17.59,17.59,0,0,0-14.3-.39,5.32,5.32,0,0,1-2.86.53c-6.94-1.81-13.75,1.26-20.66.47-2.41-.27-3.57,1.5-3.62,3.82S838,868,840.49,868c1.83,0,3.85.5,5.45-.11,5.31-2,10-.3,14.56,2,5.22,2.63,11.07-1.56,16.2,1.69.27.17,1.15-.5,1.68-.88a10.2,10.2,0,0,1,6.17-1.52c3.82,0,7.63-.12,11.45-.19,0,6.83-.11,13.67.07,20.5,0,2.16-.42,3-2.57,2.52a10.27,10.27,0,0,0-2,0H481c.41-1.76.71-3.55,1.24-5.28,3.64-11.89-.84-22.07-8.26-30.49-6.24-7.08-14.82-11.79-21.48-18.91s-9.59-15.64-11.66-24.54a24.22,24.22,0,0,1,.36-12.37c.31-1,.67-2.37,2.28-2.15,1.2.16,1.57,1,1.81,2.08.62,2.57,1.74,5,1.48,7.79-.13,1.4-.44,3.25,1.81,3.43,2,.15,2.55-1.7,2.9-2.95a82.26,82.26,0,0,0,1.59-8.73c.14-.89.39-1.63,1.39-1.75a1.91,1.91,0,0,1,2.05,1.06c2,3.59-.33,13.44-4,15.63-2.69,1.63-3.8,3.34-2.54,6.52,3.26,8.2,6.58,16.26,15,20.75,3.36,1.79,6.64,3.74,9.88,5.75,5.07,3.14,9.59,6.73,9.31,13.54-.08,1.87.49,3.57,2.17,4.13,4.63,1.56,9.11,4.81,14.14,3.51,4.78-1.24,9.09.37,13.58.78,1.93.18,4.43.55,5.09,3.28s-1.41,3.4-2.94,4.6c-2.28,1.79-2.11,4.32-2,6.87.11,3,2.9,2.37,4.45,3.07a5.63,5.63,0,0,0,6.48-1.08c2.27-2.22,1.94-4.79,1.14-7.42-.68-2.22-1.94-5.62,1-5.85,5.07-.4,10.33-2,15.17-1.1a31.46,31.46,0,0,0,15.19-.55c5.86-1.82,13.16-2.76,14.75-10.1,1.13-5.24,1.83-10.62,3.27-15.82,1.93-6.91-.35-13.24-2.32-19.68-1.45-4.76,1.63-11.75,5.94-12.89,2.34-.61,3.67-2,5.29-3.43,5.24-4.44,8.66-10.21,12.55-15.75,4.13-5.88,8.23-11.12,7.33-18.81-.2-1.66.87-3.52,1.55-5.2,4.9-12.2,4.21-24.66,2.41-37.34-.86-6-2.45-11.92-2.9-18.07-.48-6.73-4.1-12.79-6.1-19.18-1.38-4.42-6.89-7.7-10.87-11.12a82.94,82.94,0,0,0-19.88-12.92c-2.19-1-4.24-1.76-5.94-.17s-1.13,3.72-.11,5.57c.72,1.29,1.71,2.42,2.44,3.7,1.41,2.49,3.92,4.66,2.21,8.9a8.34,8.34,0,0,0-8.12-4.19c-1.33.08-2-.94-2.61-2-1.46-2.54-.69-4.51.88-6.85,3.88-5.78,1.52-10-5.38-10.24-.65,0-1.54.29-1.92,0-6.64-5.61-15.1-3.83-22.67-5.59-4.58-1.07-7.44,1.61-6.66,6.31a22.09,22.09,0,0,0,4.12,10c3,4,6,8.06,5.71,13.8-.44,8.28.25,16.57,3.73,24.3,1.29,2.87,1.25,5.82,1.13,8.8-.06,1.65.68,4.17-2.25,4-2.37-.13-2.67-2.2-2.59-4.12a38.63,38.63,0,0,0-2.17-13.64,33.06,33.06,0,0,1-1.63-12.24c.74-11.54-1-13.65-12.3-16.17-4.59-1-6.22-5.32-3.05-8.78a11.23,11.23,0,0,0,2.52-6.35c.36-2.37-.3-5.33-2.43-6.67a8,8,0,0,0-7.71-.26c-2.47,1.36-1.77,4.15-.93,6.61.24.69.95,1.86-.27,2.61-.75-1.07-1.26-2.38-2.22-3.08a163.41,163.41,0,0,0-14.3-9.91c-2.41-1.41-5.27-.49-6.71,2.41-.43.85-.4,2.28-1.8,1.72-3.12-1.25-7.42-.18-8.76-5.15-.58-2.14-2.94-3.66-5.51-4.63-5.62-2.11-11.09-1.52-16.92-1.34-9,.28-16,4-23.36,8.19-5.2,3-9.35,7.49-14.78,9.94-7.74,3.5-12.45,10.61-19.1,15.38-1.73,1.24-2.92,2.66-5.42,2.89-3.63.33-5.82,2.55-5.82,6.73,0,7.06-2.31,13.66-5.3,19.93a89.91,89.91,0,0,0-8.19,25.8c-1.77,12.23-6,24-5.62,36.69.32,11.8-3.67,23.75,1.91,35.27,1,2,.85,4.19,1.14,6.32.8,6,1.21,12.26,3.09,18,3.72,11.34,6.94,22.77,15,32.54,3.31,4,3.37,10.6,9.43,13.61,2.56,1.28,4.32,4.42,7,6.15,5,3.15,8.43,2.53,11.49-2.59.83-1.39,1.58-2.92,3.31-2.21,6.37,2.62,7.72-1.84,9.18-6.26,1.35-4,1.85-8.54-1.35-11.42a5.4,5.4,0,0,1-2.09-5.4c.68-5.06,0-10.13.63-15.25,1.09-9.5,1.12-19.13,1.77-28.7.16-2.45.32-5,1.68-7.21.72-1.13.79-3.21,2.95-2.79s1.53,2.3,1.4,3.63c-.53,5.44-1.44,10.83-1.23,16.35a54.81,54.81,0,0,1-.66,11.4c-2,11.63-1.09,23,5.35,33.34,1.59,2.54,2.92,5.21,4.49,7.7,2.4,3.8,5,8.2,9.22,9.81,3.4,1.3,6.3,2.65,8.48,5.5H117c.22-2,2.15-2.82,3.13-4.29,1.09-1.65,2.34-3.39,1.22-5.47-1.29-2.41-3.67-2-5.72-1.66-6.09,1-7.7,5.07-4.63,11.42-35.36,0-70.73-.07-106.09.11-3.57,0-4.19-.9-4-4.18C1.23,882.64,1,877.31,1,872c4.88,2.8,9.64,5.19,14.92.44,1.08-1,3.5-.56,5.31-.61,5.39-.15,10.72,2.33,16.17,0s10.19-.81,14.81,2.53a13.13,13.13,0,0,0,7.94,2.5c10.3-.13,20.61-.07,30.91-.08,3.58,0,6.67-1.51,6.7-5.12s-2.49-5.52-6.62-5.75c-6.51-.37-12.86,1.06-19.35,1-4,0-7.79-2.36-11.72-1.36-4.43,1.12-8.2,1.56-10.6-3.43-.39-.8-2-1.35-3.06-1.42-5.66-.37-11.4-2.65-16.95.7a6,6,0,0,1-3.77,1c-8.3-1.58-16.44,1.65-24.69.59V723a6.37,6.37,0,0,0,6.56-4.43c1.36-5.78,6-6.93,10.24-8,3.43-.84,4.53-2.73,4.47-5.44s-1.07-4.66-4.21-6.38C11.94,695.41,6.64,697.13,1,699V589c3.63,1.06,7.58,1,10.84,3.35,4.09,2.91,2.11,6.57.81,10.45,4.84,0,9.16,0,13.47,0,.77,0,1.84.26,2.06-.82a2,2,0,0,0-.71-1.7c-5.37-3.13-7.6-9-11.77-13.28-4.48-4.54-9.28-9-11.43-15.39A5.77,5.77,0,0,0,1,568ZM442.74,300.92c-.82-.09-1.43,0-1.72-.21-3.52-3-5.66-3-6.17,2.33-.35,3.61-2.62,3-4.91,1.68-3.06-1.73-6.34-3.87-9.66-1.26-1.86,1.46-3.06,1-4.89.51-1.58-.41-4-2.06-5,0-1.17,2.54,2.13,2.2,3.3,3.29a15,15,0,0,0,2.64,1.4c1.65,1,4.23,1.78,3.42,4.14-.65,1.9-3,2.18-5.13,2.18-2.77,0-6.24-.89-8,1.56-2.78,3.84-6.41,3.44-10.2,3.42-5.33,0-10.66.09-16-.05-2.88-.07-5.88.58-7.08,2.88-2.05,3.94-5.39,4.05-8.42,3.25-10.81-2.83-19.41,2.39-28.2,7.05-2,1.06-5.13,2.29-4.58,4.59.77,3.15,3.68-1.1,5.47.53.7,1.49-.67,2.08-1.37,2.84-7.34,8.05-9.4,17.64-8.27,28.16.15,1.4-.42,3.34,1.71,3.58s2.2-1.72,2.77-3a7.24,7.24,0,0,0,.48-2.42c1-13.26,7.29-23.7,17.7-31.49,3-2.21,5.27-5.61,9.17-6.95.15.85.34,1.21.25,1.47a21.51,21.51,0,0,1-1.31,3.22A46.15,46.15,0,0,0,353,360.92c.31,3.12,1.18,6.26,1,9.36-.22,4.2,1.63,5,5.3,4.85,14.21-.77,28.11,1,41.33,6.39,3.08,1.26,7.17,1.57,9.83,6.07-5.52-1.84-9.85-4.74-14.35-3.5-4.82,1.32-9.51,1.11-14.3,1.26-6.29.2-12.55-.07-18.86.68-5.08.6-4.73,3.7-3.06,6.09,5.62,8.1,9.09,17.31,13.92,25.8,2.52,4.41,4.81,3.45,7.6.58a38,38,0,0,1,8.24-6.37c8.89-5.18,18.49-3,27.85-3.06,7.53-.08,14.47,2.35,21.65,6-2.82,2.21-5.38,3.86-1.67,6.9,1.35,1.11-.51,2.53-1.67,2.84-3.79,1-6.65,3.83-10.14,5.24-6.24,2.52-12.46,4.75-19.69,3.23-4.27-.89-8.61,2.88-13.52,1.63-1.22-.31-3.06,1.77-4.58,2.73-1.05-1.94,4.44-4.16-.86-5.31-1.07-.23-.24-1.58.5-1.72,1.61-.3,3.5-.86,4.88-.31,9.34,3.73,18.56.15,27.8-.35,3.55-.19,6.83-2.38,9.65-4.77a6.54,6.54,0,0,0,1.84-8.05c-1.16-2.43-4-3.26-7.1-3.11,1,2.6,4.16,4,2,6.59-2.32,2.85-9.39,2.6-12.24-.21,1-1.27,2.4-.71,3.69-.75s2.62-.81,2.27-2.07c-.43-1.57.86-4-.73-4.54-3.08-1.13-6,.64-8.26,2.48-1.85,1.53-2,3.9-.17,6.19,2.52,3.16,6.14,3.27,9.62,4.15a23.18,23.18,0,0,1-6.46.33c-5.79-.67-8.82-4.36-8.09-10.07.4-3.12-1.75-2.29-3.08-2.18-11.78,1-17.06,10.49-23.67,18.22a1.92,1.92,0,0,0-.22,1.45c1.2,5.63,2.06,11.36,3.74,16.85,4.4,14.48,13.52,26.09,23.85,36.69,15,15.43,31.82,29,47.55,43.69,9.7,9.05,20.07,17.37,29.87,26.32a66.65,66.65,0,0,0,43.49,18,86.19,86.19,0,0,0,19.36-1c10.38-1.93,21.16-2.29,31.11-5.94,22.75-8.34,45.92-15.68,64.94-32,7.55-6.5,17.11-10.68,25.83-15.78,15.51-9.06,30.44-18.8,41.57-33.3,7-9.15,9.79-19,4.84-30-1.24-2.74-.19-3.81,2.18-4.16,1.79-.27,3.67.09,5.49-.1,3-.31,6.3.89,9.08-1.28-10.92.52-21.45-1.79-32-3.8-9.43-1.79-17.15-7.74-26-10.89-6.22-2.22-8.76-.73-10,6.2-1.25,7.25-9.41,16.1-15.91,16.81,2.3-2.1,4.34-3.95,6.36-5.82,1.39-1.27,2.79-2.77,2.13-4.72s-2.8.58-4-1c1.53-5,4.85-9.13,7.67-13.47,1.74-2.68,2-4.57-.22-7-3.77-4.15-4.79-9-3.67-14.58.75-3.74,1.71-7.43,2.38-11.16.9-4.95,2.61-9.79,2.14-15-.82-9.08-6.25-15.67-12.08-21.67-15.07-15.51-34.55-24.69-53.5-34-14.9-7.3-31.24-11.89-47.24-16.67-16.42-4.9-32.16-11.58-47.44-18.95-10.89-5.25-20.09-1.7-30,.48a3.12,3.12,0,0,0-2.25,1.82c-1.35,3.12-4,1.86-6.05,1.64-2.72-.29-1.73-2.77-1.89-4.42a9.59,9.59,0,0,1,.91-5.35,1.52,1.52,0,0,0-.9-2.39,1.88,1.88,0,0,0-2.29,1.42c-.23.61-.16,1.33-.35,2-.8,2.73-3.87,4.15-4.21,7.16-2.66-.43-5.44-.34-7.84-1.92-1.4-.91-3.27-2.06-4.58-.79-1.82,1.75,1.09,2.62,1.43,4.06A8.85,8.85,0,0,1,442.74,300.92Zm362-45.68c2.14-.56,2.86,1.45,4.2,2.25,12.25,7.24,11.13,7.07,17.81-1.79.9-1.19,1.81-2.36,2.78-3.48,4.38-5.14,8.55-10.54,13.91-14.69,7.59-5.89,15.48-11.4,23.27-17.05,2.94-2.13,3.25-3.44-.51-5.39-20.6-10.69-41.62-20.24-64.1-26.39-14.8-4-29.76-7.18-44.78-10.18-9.23-1.85-18.53-3.23-27.83-4.45-7-.92-14.13-2.82-21.25-1.06a32.4,32.4,0,0,1-11.35.38c-11.34-1.21-22.56-3.89-34-3.47-9.3.34-18.49-.93-27.74-1.23-21.13-.7-42.19,2.06-63.32,1.28a2.76,2.76,0,0,0-.49.07c-15.9,2-31.76,4.43-47.7,6-17.29,1.66-34.34,4.82-51.31,8.08-19.43,3.73-38.54,9.17-57.71,14.15-14.09,3.66-27.83,8.61-41.81,12.59a378.23,378.23,0,0,0-38.84,13.75c-14.86,6-28.87,14-43.32,20.91-10.77,5.2-20.58,12.15-31.54,17-4.09,1.82-4.32,4.25-1.22,6.63,12.08,9.28,24.18,18.57,34.62,29.76,2.67,2.86,5,2.89,8.26.85,10.79-6.77,21.92-13,32.6-20,11.71-7.62,24.54-13.1,36.59-20.06a195.25,195.25,0,0,1,31.54-14.47c14.09-5.07,28.18-10.46,43.21-12.41,7.81-1,15.62-2.11,23.42-3.18a12.24,12.24,0,0,1-6.36,2.58c-14.41,1.29-28.2,5.3-42,9.33-28.49,8.31-54.23,22.71-80.18,36.52-20.33,10.82-38.39,25.3-57.81,37.62-1.12.71-2.41,1.51-2.27,3s1.77,1.08,2.78,1.45c11.29,4.13,22.86,7.75,30.21,18.43,1.34,1.94,3.16,1.38,5.22.11,7.34-4.53,14.67-9.13,22.61-12.53,6.23-2.68,6.5-3.84,1.17-8.14-4-3.23-5.62-7.08-3.79-12.23,3.66-10.35,11-18.26,18.71-25.26,15.47-14.06,35.24-21.31,53.38-31.14a6.41,6.41,0,0,1,1.9-.55c14.27-2.71,27.51-9.31,42.11-10.9,11-1.19,21.71-4.46,32.85-4.17,8.95.23,17.87.14,26.86.86,13.69,1.1,27.51.43,41.28,1.37,11.51.79,23,.55,34.52,2.62,17.56,3.17,34.69,6.89,50.14,16.34,8.68,5.29,17.87,9.38,28.28,10a92.11,92.11,0,0,1,24.79,4.55c13.47,4.69,26.64,10.46,37.72,19.85,4,3.42,8.46,7,10,12.12.95,3.32,2.78,4.37,5.36,5.7,12.19,6.27,26.44,5.83,38.68,12,2.1,1.06,3.76-.06,4-2.83.17-2.52-.92-4.54-2-6.57-2.08-3.89-2.18-8.17-3.24-12.82,8.07,5.45,3.51-3.79,5.9-4.57,1.72.57,1.46,2.06,2.15,2.92.85,1.07,2.78,1.25,2.85.27.34-4.38,1.21-7.63,6.77-6.33.28.07.93-1.25,1.34-2s1.37-1.43,2-1c2.64,1.84,4.09,0,6.49-.8,5.75-1.9,9.52-6.79,15.23-8.42,2.32-.66,2.65-3.19,2.44-5.5-.25-2.66-2.33-3.13-4.33-3.2a16.71,16.71,0,0,1-5.34-.84c-13.21-4.83-26.84-8.27-40.28-12.35-14.23-4.32-28.43-8.63-43-11.65-17.18-3.55-34.71-4.6-52-7.15-17.17-2.51-34.66-3.19-52-3.74-17.57-.56-35-4-52.64-2.84a4.23,4.23,0,0,1-1.38-.47c1.77-1,3.46-.54,5.08-.53,12.92,0,25.81,1.36,38.63,1.81,21.22.75,42.39,2.29,63.6,3.14a29.5,29.5,0,0,1,3,.26c11.57,1.55,23.11,3.25,34.69,4.64,14.3,1.72,28.58,3.46,42.55,7.09,9.09,2.36,18,5.43,26.86,8.44,4.88,1.65,9.59,4.08,14.52,5.25C807.05,257.17,804.22,256.87,804.69,255.24ZM100.56,860c.2,4.17.47,8,1.78,11.64,2.68,7.5,7,8.72,13,3.51,1-.92,2.46-3.08,3.61-1.55,3.43,4.59,6.74,2.35,10.46.74,3.92-1.71,7.94-1.19,12.14-.29,5.74,1.23,11.41-1.85,17.3-1.2a29.33,29.33,0,0,0,9.37-.82c9.66-2.08,19.38-3.38,28.37,2.62,1.61,1.07,3.55.75,5.37.77,9,.08,17.79-2.07,26.65-2.23,14.67-.26,29.29-1.46,44-1.42,1.66,0,3.55.32,4.92-.35,3.07-1.5,5.69-1.1,8.47.53s6.07,1.72,8.42-.48c3.88-3.65,8-2.83,12-1.1a15.78,15.78,0,0,0,12,.4c4.45-1.51,9-2.51,13.62-.46a17.56,17.56,0,0,0,13.61.4c5.81-2.12,11.62-4,17.82-1.45a24.69,24.69,0,0,0,2.85.86c3.08.86,6.06.05,7.37-2.63,1.64-3.36.72-6.83-2.21-9.49s-4.54-.61-6.79,1.15c-3.35,2.63-6.82,5.18-11.52,1.65a11.44,11.44,0,0,0-10.1-1.4c-3.29,1-6.6.64-9.88,1-8.74,1-17.43-3-26.2-.09-1.9.62-3.85-.68-5.72-1.4-2.43-.93-4.92-2.78-7.52-1.94-7.93,2.59-16.06,2.13-24.16,2.09a21.47,21.47,0,0,0-9.18,1.71c-4.73,2.11-9.66,3.48-14.78.55a10.16,10.16,0,0,0-8.3-.71c-11.43,4.13-23.29.5-34.81,2.37-6.27,1-12-1.89-18.07-2.5-11.45-1.16-22.93.31-34.26,1.54-5.5.61-11.21,1.3-16.67,1.67-7.68.52-16.43,1.31-21.58-7.52-2-3.41-3.07-5.92-.1-9.25A20.79,20.79,0,0,0,117,833.87c.45-10.78.87-21.66-1.78-32.19-1.45-5.77-2.54-11.74-6.38-16.91-6.74-9-9-20.26-12.72-30.62-3.18-8.77-1.66-18.27.79-27.3.69-2.53,2.62-5.19,5.07-4.45,2.08.64,1.07,3.72.33,5.71-1.26,3.36-.37,5.15,3.27,6.23a37.17,37.17,0,0,0,17.77.47c8.08-1.54,16.19-.69,24.07-.17,5.11.34,10.07-1.87,15.11-.17.74.25,2.42-.76,2.92-1.63,4.18-7.11,9.81-3.74,15.08-2.15,12.14,3.66,22.79,12.13,36.33,11.29a1.72,1.72,0,0,1,.48.13c6.41,1.55,13,2.6,19.15,4.82,4.23,1.53,9.26-.72,12.78,3a4.87,4.87,0,0,0,6.29,1.13,5.41,5.41,0,0,1,3.81-.16c8.31,1.77,16.74,3.16,24.39,7.09,3.07,1.59,7.05-.12,9.42,2.27,2.64,2.66,5.53,2.85,8.68,2.56,7.76-.7,15.45,1.12,22.48,3.27,7.81,2.38,15.59,1.54,23.29,2.91a5.41,5.41,0,0,0,6.43-4.29c1-4.68,1.26-9.61,2.87-14.06,2.55-7.09,1.28-14.85,4.34-21.74,2.89-6.52,3.9-13.61,6.43-20.27,2.43-6.42-.59-9.74-7.54-9.52-3.63.12-7.29,1.35-10.85,1-8.11-.7-16-2.83-23.91-4.69-15.44-3.61-31.51-3.35-47-7.46-9.35-2.48-18.85-4.56-28.41-6.34-11.15-2.07-21.64-6.87-32.87-8.87-6-1.08-12.58-2.11-17-6.19-4.93-4.55-10.93-5.71-16.58-7.27-7-2-13.53-5.12-20.47-7.17-7.69-2.28-14.52-6.8-22.36-8.77-10.72-2.7-21.44-5.38-32.06-8.42-4.59-1.31-9.82-1-13.68-4-2.52-1.93-4.3-1.2-6.74-.61-3.45.83-6,4.25-10.19,3-4.91-1.47-8,1.1-9,6.19-1,5.64-2,11.43-4.18,16.67-1.55,3.73-1.78,7.25-2,11-.34,5.1-1.18,10.18-1.91,15.25-.91,6.36-3.09,12.81-2.6,19.05.66,8.49-.75,16.62-1.44,24.91-.6,7.16.19,14.12,4.28,20.36,7.39,11.23,16.27,21.45,22.5,33.46a5.46,5.46,0,0,0,1.6,1.9c5.71,4.13,8,11,12.87,15.84a2.71,2.71,0,0,1,.08,3.68c-1.13,1.62-2.29.41-3.51.22-2.86-.44-3.53-2.51-4.27-4.85-1-3-2-6.14-6.36-5.47-2.5.39-8.56,5.78-8.54,8.16,0,3.75,2.62,5.94,5.82,6.52,4.18.75,4.72,4,4.44,6.64-.34,3.16-3.83,2.56-6.13,2.34-5.56-.53-9.06,2.63-12.3,6.34a5.11,5.11,0,0,0-.31,6.51,4.16,4.16,0,0,0,5.46,1c3.31-1.85,6.69-1.43,10.15-1.19a35.39,35.39,0,0,0,10.89-.85c5.62-1.34,7.26-5,4.16-10.06-1.07-1.77-1.72-3.54.11-4.8s3.08.45,4.11,1.74a8.88,8.88,0,0,1,1.71,3,57.36,57.36,0,0,1,1,25.11C103.69,848.29,99.36,853.69,100.56,860ZM639.79,707.86v-.05c-5,0-10,0-15,0-9.63.09-14.6,7.61-11,16.67.73,1.83,1.84,3.48,1.69,5.63-.56,7.94.64,15.89-1.09,23.87A46.15,46.15,0,0,0,614,767.9c.29,3,1.53,4.16,4.41,3.88,8-.77,16.34,2,24-2.23a3.12,3.12,0,0,1,1.93,0c6.11,1.42,12-.94,18-1.11,5.11-.14,9.95-5.76,15.38-.73.71.66,2.27,0,3.2-.8,2.36-2.13,4.76-3.1,8.12-1.86,2.28.84,4.67.08,6.89-1.75,3.13-2.6,6.45-5,10.82-5.72,3.35-.54,7.07-1.41,9.68-3.39,6.9-5.24,14.52-8.76,22.5-11.92,5.52-2.19,11.58-3.3,16.47-6.89,11-8.06,23.54-13.2,35.42-19.6q9.9-5.33,19.7-10.82a7,7,0,0,1,5.79-.74c3.75,1.44,7.52,1,11.3,1,5.3.05,14,7.49,14.87,12.71.16.9.38,1.62-.63,2a1.63,1.63,0,0,1-2.14-.7,14.71,14.71,0,0,1-1.56-2.51c-1.17-3-3.55-5.37-6.35-3.6-2.45,1.55-3.37,4.6-1.38,8.22,2.16,3.94,4.29,8.37,3.33,13.19-1.82,9.21-3.1,18.5-5.69,27.57-1.77,6.17-2.74,12.53-5.66,18.38-1.76,3.51-3.5,3.36-6.12,1.19a5.59,5.59,0,0,1-1.81-6.31c1-3.42,1.4-7.14,4.75-9.53A3.38,3.38,0,0,0,820,761c-2.81-3.22-1.18-5.62.79-8.27,1.84-2.46,1.77-5.08-1.55-5.74-3.84-.77-8.21-1.43-10,3.76-.52,1.5-1.37,2.55-2.89,1.61-7-4.39-13-1.39-18.82,2.57-2.17,1.47-3.29,1.47-3.22-1.53s-1.35-5.86-4.58-4.7c-10.24,3.68-17.22,13.25-19.39,24.14-1.35,6.72,1.33,12.62,1.82,18.93.29,3.7,1.54,8.47,4.68,10.13,6.65,3.49,6.53,9.53,7.36,15.23,1.24,8.59,4.24,11.19,12.78,10.07a4.19,4.19,0,0,1,1.47-.15c5.64,1.4,8-1.57,8.54-6.59.51-4.78,3.51-8,6.43-11.37a3.76,3.76,0,0,1,5-.74c1.78,1.32-.23,2.67-1.19,3.46-2.6,2.14-3,4.93-3.21,8-.42,5.69-1.78,10.36-7.66,13.76-3.91,2.27-7.67,4.28-12,5.31-2.38.56-4.5,1.53-3.66,4.2.77,2.42,3.33,2.88,5.46,1.87,2.7-1.27,4.28-.07,6.16,1.58,2.54,2.22,4.9,2.29,5.77-1.62.32-1.42,1.45-3.36,1.91-3.24,5.87,1.52,8.26-4.46,11.87-5.54,6.45-1.93,6.36-5.22,6.3-10,0-1.66-1.07-4.67.85-4.83,2.34-.19,3.31,2.72,3.88,5a15.45,15.45,0,0,1,.13,3c.19,4,.57,7.94,1,11.9s3.8,6.9,2.88,11.29c-.85,4.09-2.36,5.52-6,3.74a6,6,0,0,0-5.69,0,22.74,22.74,0,0,1-10.7,1.8c-9.56-.36-18.87-3.44-28.53-2.57a15.3,15.3,0,0,1-5.38-.85c-11.21-3-22.5-2.47-33.77-.45-5.42,1-10.79,1.78-16.3.94a155.39,155.39,0,0,0-29.07-2.16c-4.08.15-3.26,2.69-3.44,5.1-.2,2.69.57,4,3.56,3.87a80,80,0,0,1,15.07.38c12.21,1.87,24.38,2,36.61,2a21.52,21.52,0,0,1,9.65,1.87c5.28,2.5,10.74,6,16.29.24a4.34,4.34,0,0,1,2.81-.77c10.59-.17,21.09.36,31.42,3.1,2.73.72,5.44,2.4,8.56,1.12,4.77-2,9.1-1.16,13.38,1.8,3.77,2.61,6.16,1.55,6.39-2.94.64-12.19,1.64-24.41-1.58-36.46-1.4-5.21-3.24-10.35-1-16a11.89,11.89,0,0,0-.07-7.41c-4-12.53,2.63-22.15,9.23-31.12,7.6-10.32,14.46-20.77,18.84-32.92,2.62-7.28,2.84-14.91,4.87-22.25a31,31,0,0,0,.79-14.26c-1.45-7.18-2.62-14.38-2.46-21.72.23-10.42-3.12-20.34-4.16-30.56-.8-7.87-6-14.44-5.74-22.49a3,3,0,0,0-1.84-2.8c-5.68-2.53-12-4.3-17.67-2.21-11,4.07-22.29,7.2-33.29,11.24-6.42,2.37-12.09,6.11-18.19,8.92s-11.88,5.64-16.88,10.17c-4.53,4.1-7.77,9.32-12.64,13.21-3.32,2.65-7.8,1.91-10.59,5-3,3.28-7.07,4.87-10.68,7.21-6,3.86-13.08,4.63-19.45,7.41-5.15,2.23-10.41,4.22-15.66,6.17-9.49,3.53-19.75,4.34-29.21,7.68-6.36,2.25-12.57,2.42-19,2.46Zm47.64-105.05c10.33,0,20.67-.26,31,.12a10.64,10.64,0,0,0,10-5.07,338.17,338.17,0,0,0,22.06-37.22c2.26-4.33,1-8-3.13-10.95a3.83,3.83,0,0,1-1.67-3.43c.12-7.15-.71-14.22-1.24-21.32-.56-7.48-2.1-14.76-3.29-22.09-1.9-11.73-5.1-23.24-5.57-35.2-.1-2.56-.51-5-3.74-4.56s-7.41,1.17-6.21,5.85c1.45,5.65-.56,10.33-2.74,15.1-2.68,5.83-7.58,9.94-11.75,14.58a207.9,207.9,0,0,1-31.55,28.69c-10,7.35-21.41,12.83-29.54,22.66-3,3.6-7,6-10.92,8.51-14,9.12-27.85,18.65-43.62,24.8-7.47,2.92-14.84,4.29-22.74,1.91-3.76-1.14-6.8-3.41-10.09-5.31-1.65-1-3.39-1.61-5,.08-1.77,1.85,0,2.86,1,4.15,3.54,4.79,7.36,9.42,10.37,14.53,1.91,3.22,4,4.26,7.57,4.24,21.82-.11,43.65,0,65.47-.09,2.27,0,5.13,1.19,6.44-2.15a.85.85,0,0,1,1.56,0c1.19,3.61,4.17,2.09,6.36,2.12C666.77,602.9,677.1,602.81,687.43,602.81ZM175.54,802.13c8.43,5.25,15.11,10.7,18.26,18.85,2.8,7.25,4.56,9.09,12.4,9.56,5.91.35,11.47-1.92,17.3-1.48,5.05.38,6.95-1.56,5.47-6.4-1.33-4.34-.61-9.31-4.25-13-1.08-1.1-.73-3.21-.07-4.81,1.64-4,3.37-8,6.16-11.36,5.43-6.5,8.11-13.23,2.73-21.11a8,8,0,0,1-1.36-4.72c.07-3.52-1.21-5.92-5.13-6.69a8.93,8.93,0,0,1-5.44-4.17c-4.12-6.37-9.59-9.64-17.5-8.89-4.63.43-7.38,3.52-5.77,8,.6,1.68,1.88,3.1,2.75,4.69.73,1.35,1.46,3.28,0,4-2,1.09-2.29-1.38-2.79-2.52-2.6-5.87-8.51-9.26-14.26-7.83-7,1.74-13.15,5.42-19.27,9-2.19,1.3-3,3.82-3,6.51.06,3.49,0,7,0,10.49,0,2.2-.25,4.49-1.83,6.1-5.84,5.9-3.86,12.75-1.51,18.89,1.94,5,5,10,6.1,15.15,1.48,6.64,5.52,7.18,10.82,7.49,3.67.22,5.89-2.11,8.35-3.83,5.23-3.65,5-9.48-.92-11.73C178.21,810.69,176.7,807.86,175.54,802.13ZM791,374.9c6.13-7.09,7.78-15.16,7-23.92-.17-1.78-.53-4.29-2.48-4.39-2.2-.11-2.37,2.35-2.53,4.19-.38,4.26-2.72,7.77-4.37,11.53-.32.73-.83,1.53-1.87,1.27s-1.06-1.07-1.06-2,1.59-2.3-.55-2.74a3,3,0,0,0-2.66,1.06c-4.05,3.78-4.08,3.77-5.32-1.45-.2-.83-.24-1.72-1.22-1.93a1.71,1.71,0,0,0-1.28.41c-1.28,1.15-3.71,12.46-3.07,14,2.67,6.7,0,11.22-7,11.54-2.56.12-3.85.71-2.93,3.54s-.42,4.08-3.23,3.93c-2.57-.14-4.5.06-4.38,3.56.07,2-1.43,2.66-3.55,2a25.44,25.44,0,0,0-4.9-.53c-3.61-.37-4.55,1.31-3.35,4.46.67,1.76,1.59,3.78,0,5.05-1.44,1.11-3.51.57-5.16-.5-2.47-1.59-4.61-1.52-5.12,1.77-.55,3.57-3.12,3.7-5.09,2.58-4.66-2.64-8.53,4-13,.73-.06,0-.66.36-.69.59-.44,4.5-4.1,3.41-6,2.54-4.85-2.24-4.74,2.1-5.27,4-.86,3.17,2.25,3.61,4.45,3.76a39.77,39.77,0,0,1,9.17,1.67c4.2,1.3,8.33,3.72,13.43,3.1-2.34-3.94-7.74-2.72-9.77-7.25,10.16,1.61,19.42,6.65,30.34,4.62-3.52-3.32-8.38-2-11.82-5.43,13.74-1.53,27.46,2.22,40.88-3.38-2-1.12-4.06-1.28-5.78-3.68h14.49c-3-2.65-5.71-2.12-7.89-3.13-1.46-.68-2.89-.88-2.44-2.9s2.05-1.3,3.26-1.28c4.33.05,8.66.23,13,.26,1.21,0,3.08.56,3.22-1.31.12-1.63-1.65-1.11-2.69-1.38a8,8,0,0,1-5.73-4c9.2,2.23,15.75-3.17,23.24-4.8,3.82-.83,6.78-3.38,9.43-6.23,1.29-1.39,2.89-3.74,4.69-2.23,1.5,1.26.1,3.69-1,5.37-.44.69-1.17,1.21-1.59,1.91s-.31,1.56.76,1.85c3.4.93,7.38-3.06,6.58-6.58-.84-3.68-1.56-7.39-2.54-11-.31-1.17-1.09-2.21.59-2.76,1.11-.36,1.85.3,2.36,1.3,1.51,3,2.22,7.12,7.29,5,.38-.15,1.37.41,1.66.89,2.94,4.77,7.07,8.85,8.48,14.51.33,1.32,1.18,4,1.47,3.41,1.4-2.84,6-.4,6.08-3.64.17-4,1-8-1.79-12A52.68,52.68,0,0,0,832,362.82c-7-3.27-7.86-1.36-11.34,3.4-3.16,4.32-7.31,6-12.28,6.35C802.62,372.9,796.7,371.58,791,374.9Zm-57.74-55.27a8.92,8.92,0,0,1,7.64-.89c3.77,1.18,7.63,2,10.88,4.43.8.6,1.92,1.07,2.65,0a2,2,0,0,0-.73-2.63c-1.91-1.56-3.89-3.05-5.93-4.42-6.2-4.16-13.59-5-20.44-7.38-5.78-2-11.71-3.77-17.52-7.71,6.91-1,11.59,4.2,17.63,3.81a3.65,3.65,0,0,0-2-2.8c-6-4.07-12.28-7.74-17.87-12.55-4.22-3.63-9.55-6-14.39-8.88-1-.59-2.31-1.53-3.09-.28-1.11,1.77.86,2.07,1.87,2.73,1.51,1,3.38,1.65,4.35,4.26-5.11-1.78-9.37-3.72-14.11-3.54-1.08,0-2.93-.38-2.92,1,0,6.07-3.36,3.53-6.32,2.85-1.67-.39-3.56-.86-5.29.26,1,4.88,4,6.58,8.77,5.9a30.52,30.52,0,0,1,12.3,1.23,61.75,61.75,0,0,1,20.42,9.23c-7.23,1.7-13.88,1.09-20.34,1.88s-14.63-1.7-18.47,6.81c-.22.49-1.44.65-2.23.74-5.26.6-10.48,1.82-15.83,1.23-9.15-1-17.16,3-25.72,5.4a5.65,5.65,0,0,0,3.6,2.25c13.73,3.65,27.5,7.2,40.22,13.81.7.36,1.52.93,2.25.16a1.79,1.79,0,0,0-.26-2.65c-.93-.94-2-1.7-3-2.62-4.11-4-9.64-5.83-14.22-9.15a59.15,59.15,0,0,1,10.86,2.88c9.86,3.88,18.39,10.42,23.5,19.2,5.45,9.37,7.79,20.46,9.66,31.34.21,1.23-.38,3,1.61,3s3.37-.88,3.35-2.91c-.06-3.68,1.05-7.11.52-11.09-.67-5-.9-8.68-4.66-13-5-5.8-9.14-12.51-14.95-17.8-.91-.83-2.85-1.46-1.77-3.63,7.74,4.4,14.81,9.45,20.15,16.62.79,1.05,1.64,2.66,3.08,1.56,1.63-1.25-.36-2.28-.87-3.32-3-6.06-6.1-12.08-9.78-19.33,6.25,4,11.35,7.23,16.42,10.5.8.52,1.51,1.62,2.55.76s.16-1.83-.24-2.68a26.11,26.11,0,0,0-4.41-6.62c-.85-.91-3.14-1.83-1.52-3.42,1.17-1.15,2.77,0,3.92,1.08,5.34,5,12.56,1,18.36,3.8.13.07.66-.31.71-.54.88-4.5,2.86-1.38,4.46-.65,1.21.56,2.36,1.22,3.57,1.77.95.44,2.1.62,2.73-.31s-.19-1.81-.75-2.65C739.62,323.66,735.86,322.51,733.28,319.63ZM606.75,840.55h0c0,1.33-.07,2.67,0,4,.23,3.46-.65,5-4.59,3.7A38.68,38.68,0,0,0,595,847c-2.79-.37-3.25-1.59-3.19-3.86,0-1.78.45-3.93-2.28-4.14-2.29-.17-4.36.3-5.21,2.85-1.3,3.93-2.79,7.81-3.85,11.81-1.57,5.93.51,8.87,6.64,8a109.16,109.16,0,0,1,20.09-1.27,6.62,6.62,0,0,0,1.91-.51,27.41,27.41,0,0,1,12.85-.29c5.33,1,10.42,1.35,15.71-.06a11.7,11.7,0,0,1,9.65,1.16c1,.65,2,1.43,3.2.92,5.31-2.2,10,.23,14.76,1.95,2.8,1,5.5,1.31,7.84-1.13,1.67-1.74,3.43-2.3,5.76-.87,1.42.88,3.53,2.55,4.9.55,1.64-2.41,1-5.45.64-8.26-.29-2.48-2.25-1.75-3.78-2.14-6.47-1.64-13.19,1-19.58-1.2-5.87-2-11.73-3.11-17.94-1.44-1.65.45-4.19.42-5.33-.56-5.13-4.4-12.6,1.75-17.34-4.07-.29-.36-2.1.73-3.22.76-1.36,0-2.58,2.57-3.85.57-.83-1.32.26-2.87,1-4.16a40,40,0,0,1,2.4-3.8c2.53-3.22,7.55-4.44,8.46-2s2.56,2.2,4.32,2.21c2.22,0,2.82-1.48,3.63-3.35,2.1-4.85,4.67-9.25,9.52-12.33,4.31-2.74,8.74-5.43,11.72-10.23,3.29-5.28,8.74-8.86,13.35-13.09,4-3.64,8.88-6.3,12-10.77a12.43,12.43,0,0,1,5.57-4.75c4.36-1.79,6.23-5.49,7.93-9.46.69-1.62,1.29-3.1-.43-4.44s-3.22-.79-4.67.08a24.26,24.26,0,0,1-11.78,3.41c-2.95.14-5.61,2-4.72,6,.69,3.05-.56,5.24-2.75,7.48-3.56,3.65-8.37,5.92-11.07,10.61-1,1.72-3.42,2.38-5.72.74-3-2.14-4.74-1.13-5.69,2.38-1.15,4.26-3.69,7.45-7.23,10.36-4.43,3.64-9.24,7.1-12.34,12.15-.82,1.34-.82,3.73-2.77,3.62-2.12-.12-2.58-2.53-3-4.18-.74-2.67-2.06-4.05-4.89-3.6-4.5.72-8.54,2.8-12.46,4.87a6.21,6.21,0,0,0-3.13,6.35c.35,2.48,2.43,1.82,3.94,2,1.71.21,2.22,1.21,2.22,2.71C606.76,836.55,606.75,838.55,606.75,840.55ZM772.91,571.33c2-.54,2.38.92,3.24,1.51s1.57,1.59,2.56.74.18-1.81-.33-2.64a16.8,16.8,0,0,0-1.86-2.89c-3.7-3.85-6.18-8.51-8.88-13-3.49-5.82-6.89-11.7-10.43-17.5-1-1.61-2.76-3.25-4.51-2.06s-1.31,3.47.15,5.19a11.81,11.81,0,0,1,2.6,8.33c-.24,10.63-4.9,19.67-10.33,28.33-4.57,7.28-8.69,14.88-14.27,21.53-2.13,2.55-1.54,4,2.17,4,12.82-.1,25.64,0,38.46,0,1.09,0,2.55.54,3.08-.87.4-1.07-.72-1.75-1.43-2.4-2.11-1.93-4.27-3.81-6.41-5.71l1-1.06c4.87,1.75,8.32,5.76,12.66,8.35,1.2.72,2.74,2.67,3.81,1.19,1.39-1.93-1.17-2.55-2.37-3.44-6.69-5-11.44-11.65-16.88-17.9,2.06-1.33,2.95-.17,3.91.71,5.13,4.72,10.76,9,15.24,14.3,5,5.83,10.66,7.69,17.94,7,3.34-.34,4.06-1.15,2.78-4.28-1.56-3.83-3.43-7.76-3.86-11.78-.74-7.11-6.31-8.74-11.16-11.37-.86-.46-2-.72-2.66.36s.19,1.94.94,2.56c1.95,1.64,3,3.94,4.63,5.81,2,2.32-1.44,2.66-1.4,4.52,0,1.37-1.88.05-2.66-.56C782.56,583.47,777.73,577.6,772.91,571.33Zm-506.81,30,.57,1.45H272c65.65,0,131.3-.1,197,.18,6.62,0,11.28-1.64,14.78-7.56-.87-.09-1.75-.47-2.35-.21-7.12,3-14.74,3.84-22.27,4.41-7.16.54-14.35,2.48-21.61.69a36.16,36.16,0,0,0-19.63.17,21.47,21.47,0,0,1-7.89.63c-9.48-.66-18.43-3.94-27.72-5.58-13.6-2.39-27.08-5-40.46.86-.54.23-1.31.21-1.9-1,3.23-1.12,6.47-2.11,9.58-3.39,1.18-.49,3.52.08,3.24-2.21-.19-1.44-1.84-1.58-3.1-2.08-9.86-3.86-19.57-6.6-30.67-5.27-10.27,1.23-20.23,2.53-29.65,6.93-3.46,1.62-7.13,2.83-10.51,4.6C274.47,596.23,270.33,598.88,266.1,601.37Zm89.56,185.42a9.07,9.07,0,0,0-4.56-7.59c-2.83-1.69-4.5.95-6.27,2.62s-3.38,3.21-5,4.85c-3.44,3.42-6.77,3.78-9.62,0-2.49-3.33-5.83-5.14-9-7.38s-6.3-4.1-8.86-7.08a8.8,8.8,0,0,0-7.15-3,29.69,29.69,0,0,1-14.9-3c-3-1.42-4.31.45-5.91,2-2.11,2-1.06,4.39.46,5.76,5.47,5,10.73,10.47,17.47,13.5,3.19,1.43,3.52,2.71,2.94,5.35-1,4.53.49,6,5,4.68,1.84-.54,3.75-1.33,5.18,0,4.92,4.73,11.22,7.48,16.42,12,4.78,4.11,7.82,9.32,12,13.73,3.28,3.47,8.66,4.78,10.19,10.11.3,1,1.83,1.57,3,1.2a2.91,2.91,0,0,0,2-3.1c-.85-5-.25-10.47-2.57-15-1.89-3.67-3.41-7.5-5.31-11.15-.9-1.73-1.12-3.69-2.68-5.22-4.26-4.16-4-5.57,1.82-6.76C354.48,792.45,355.09,789.73,355.66,786.79ZM782.56,488c-2.37,1.28-5.17.15-5.32,2.67-.14,2.11,2.16,2.67,3.88,3.27a15,15,0,0,0,4.79,1.17c14.22.26,28.12-1.28,41.27-7.15,2.1-.93,3.83-1.75,6.23.24,2.16,1.79,5.11-.58,4.69-3.55-.21-1.46.53-1.61,1.55-1.88a44.27,44.27,0,0,0,5.22-1.58c12-4.79,21-13.6,30-22.46,4.79-4.72,7.38-10.47,6.9-17.33-.08-1.2,1-3.46-1.66-3.22-1.89.17-1.87,1.6-1.89,3.33-.06,4.26-.39,8.5-3.13,12.19-8.77,11.85-20.65,19.58-34.13,24.61-4.66,1.74-10.26,3.12-15.71.53,8.83-2.13,16.51-6.53,24.25-10.86,8-4.46,13.86-11.24,20.12-17.61.57-.58,1-1.41.35-2.2-.51-.58-1.16-.31-1.82-.08-3.71,1.34-7.32,2.77-10.4,5.44-5.63,4.88-11.37,9.44-18.73,11.9-4.33,1.44-9,2.45-12.93,4.81-10.82,6.49-22.74,9.52-34.9,11.86-4.84.93-9.83,1.57-14.47-1.48a19.17,19.17,0,0,1,1.68-1.48c1.25-.86,4.15.75,4-1.66-.15-1.9-2.78-1-4.34-1.19-2.71-.26-5.63-.4-5.19-4.21.4-3.44-1.2-4.24-4.23-4.52a37.38,37.38,0,0,1-8.15-2c-4.92-1.6-10.66-1.87-13.34-7.48-1.26-2.63-4-4.95-6.06-3.5-2.33,1.61-.26,4.77,1,7.06a2.19,2.19,0,0,0,.68.71c11,7.82,21,17.2,34.24,21.66C778.87,484.71,780.38,486.44,782.56,488Zm-362.9,46.23,9.35,2.21c1.26.29,2.78,1.09,3.55-.51.86-1.76-1-2.16-2-2.85-4.65-3.15-9.29-6.32-14-9.37-5.79-3.76-12.39-4.5-19.07-4.78a1.5,1.5,0,0,0-1.11.73c-1.44,2.86-1.44,2.91-4.49,1.38-1.65-.82-4.09-1.25-3.85.88.77,6.75-3.3,2.72-4.88,2.17-6.23-2.16-11.39-6.35-16-10.83-5-4.88-8.18-11-7.06-18.56.53-3.59,5.28-7,.71-11-.12-.11.37-.86.53-1.33.8-2.28,3.2-5.36.95-6.78s-3.6,2.59-5.63,3.83c-.83.5-1.35,1.48-2.12,2.1-3.85,3-3.81,7.24-2,10.84,6.2,12.09,11.38,24.71,21.39,34.66,5.86,5.83,10.73,12.33,19.7,13.36,1.2.14,2.35,1.21,3.39,2,9.92,7.75,19.78,15.59,32,19.52,1.89.6,4.64,3.4,5.52,1.14,1-2.55-3-2.73-4.88-3.61a96.44,96.44,0,0,1-28.1-19c-.8-.79-2.18-1.37-1.29-2.78.75-1.21,1.81-1,3-.44,2.58,1.1,5.26,2,7.9,2.93,4.12,1.47,4.13,1.47,3.6-2.74.31,0,.69,0,.92.16,2.08,1.47,4.55,4.67,6.59,2.89S419.54,537.61,419.66,534.26ZM12.93,821.76a9.59,9.59,0,0,0,3.54-.39A62.19,62.19,0,0,1,30.3,817.6a11.46,11.46,0,0,0,7.62-5C40,809.36,40,806.78,36.05,805c-3-1.36-5.82-3.2-9.25-3.56a2.62,2.62,0,0,1-2.39-3.24c.47-2.17,2.08-1.46,3.56-.92,2.51.92,5.37.68,6.93,3.9.9,1.86,3.44,1.62,5.29.19a3.91,3.91,0,0,0,1.1-5.33,6,6,0,0,0-4.81-3.17c-2.94-.44-4.31-2.41-4.55-5.11-.14-1.53-.94-3.87,1-4.48,2.27-.73,4.88-1,7.08,1a5.42,5.42,0,0,0,6.09.69,3.55,3.55,0,0,0,1.7-3.82,5.65,5.65,0,0,0-4.89-4.36,39,39,0,0,1-9.15-3.4c-10.49-4.79-14-5.69-16.36,7a6.62,6.62,0,0,1-.4.91Q11.2,797.32,5.47,813.38C3.13,820,4.41,821.72,12.93,821.76ZM492.61,241.15c1.11.17,2.25.26,3.34.53,4.32,1.06,8.61,2.22,12.94,3.22.85.19,2.13.45,2.59-.76.38-1-.54-1.29-1.3-1.69-8.43-4.49-17.65-5.55-26.93-6.29-4-.31-7.88.77-11.8,1.1-13.86,1.16-27.3,4.28-40.69,7.77-1.29.34-2.78.92-2.56,2.56s1.83,1.26,2.87,1.15c8.62-.9,17.09,1.56,25.78.78,10.18-.9,18.68,6.88,29,6.47,4.27-.17,7.76,3.89,12.19,3.87,6.41,0,12.61,1.07,18,4.41,7.9,4.9,16.54,8.25,24.66,12.65,1,.55,2,.64,2.58-.43.84-1.46-.64-1.56-1.37-2-4.48-2.79-9-5.58-13.49-8.33-12.63-7.67-25.72-14.3-39.85-18.91-6.42-2.09-13.16-3-19.43-5.56a122.52,122.52,0,0,1,31.34,6.44c1.21.42,2.69,1.44,3.3-.45.5-1.58-1.35-1.69-2.26-2.11C498.65,244.18,495.25,243.91,492.61,241.15Zm177.56,564.2c.3,1.62.12,3.58,1,4.79a93.37,93.37,0,0,0,12.4,14.71c5.31,4.91,10.89,9.88,10.63,18.11-.08,2.33.29,4.73,2.45,5.53s3.21-1.82,4.56-3.12a24.5,24.5,0,0,0,2-2.84c.86-1.1,1.88-2,3.41-1.37,4,1.63,6.08-.35,7.93-3.7a13.16,13.16,0,0,1,5-4.69,7.56,7.56,0,0,0,2.54-10.44c-1.15-2.06-2.85-3.28-5.27-2.83-2.24.42-2.71,2.16-2.63,4.17,0,1.36-.06,2.69-1.27,3.61-2.47,1.87-14.82-.61-16.59-3.29-5.36-8.1-10.85-16.12-16.07-24.31-2.25-3.52-4.6-3.07-7.4-1.07C670.55,800.28,670.39,802.77,670.17,805.35Zm-375.7,23.78a3.94,3.94,0,0,0-3.54,1.41c-3.7,5.18-5.76,11.11-7.36,17.18-.4,1.51,1.07,2.73,2.33,3.56,1.57,1,2.63-.32,3.33-1.27,3.55-4.86,6.86-3.15,10.28.11,2.1,2,4.72,4,7.51,2.52,2.44-1.32,3.49-4.25,3.56-7.25.05-1.78-.32-3.58,1.17-5.16,6.07-6.42,12-13,18.12-19.37,1.57-1.62,2.78-3.37,1.7-5.17s-2.4-4.05-5.48-4.12c-4.92-.1-8,2-11.45,5.57C309.15,822.78,306,833.27,294.47,829.13Zm33.92-489c-7.48,4.67-13.45,11.22-15,19.51-1.91,10.44-.13,21.19,3.7,31.27,4.54,11.94,15.72,17.65,25.13,24.52,4.18,3.06,8.8,5.66,12.32,9.53s7.35,1.58,11.11,1.38a1.13,1.13,0,0,0,.86-1.55c-2.75-5.8,1.13-3.19,3.31-2.61,1.24.33,2.35.43,3-.92a2.17,2.17,0,0,0-.65-2.7,14.8,14.8,0,0,0-3.18-2.34,87.47,87.47,0,0,1-19.4-12c-2-1.54-3.75-3.28-5.7-4.83a2.51,2.51,0,0,0-2.82-.31c-1.07.57-.78,1.6-.89,2.6-.24,2.25,4.16,3.58,1.93,5.26-1.75,1.31-3.49-2.26-5.71-3.06-10.94-3.92-15.72-13.69-17.91-23.48-2.83-12.65-1.11-25.47,9-35.51C328.78,343.62,330,342.31,328.39,340.17ZM490.05,601.31l.45,1.5c7.44,0,14.87,0,22.3,0,2.73,0,4.63-.32,6.52-3,4-5.7,9-10.59,13.95-15.55,2.07-2.09,6.94-3.43,5.48-6.73-1.24-2.77-5.78-.84-8.83-1.18-9.1-1-17.4.49-24.38,7.16-2.72,2.6-6.18,4.46-9.43,6.46-5.48,3.36-10.08,7.72-15.45,12.75,6.33,0,9.41-4,13.37-6.39s8.12-4.84,12.65-6.12l.6,1.27ZM50.5,807h0c0,5-.06,10,0,14.94,0,3.3.6,4.92,5.07,4,6.5-1.39,10.29-4,10.07-11a3.62,3.62,0,0,1,.92-2.23c2.18-2.53,1.73-5.09.57-7.88a17.19,17.19,0,0,1-1.63-5.7c-.44-8-2.89-10.48-10.71-11-2.78-.18-4.39.9-4.32,4C50.58,797.07,50.5,802.05,50.5,807Zm768.36-75c3-.06,5-1.86,5.42-5.63s-1.57-4.9-5.06-4.85c-8,.13-16,.1-23.93,0-2.65,0-4.81,1.08-7,2.3-1.62.9-1.63,2.38-1.39,3.9a2.65,2.65,0,0,0,2.63,2.51c1.69.09,3.38.2,4.29,2,1.5,2.9,3.88,2.1,5.32.56,3.17-3.4,6.88-2.46,10.57-2.06C812.51,731,815.29,731.49,818.86,732ZM575.32,248.81c3.08-.28,4.21,2.83,6.89,3.58,11.26,3.16,22.48,6.51,33.72,9.75,1.05.31,2.52.92,2.94-.65.46-1.74-1.42-1.52-2.32-1.93-4.37-2-8.83-3.73-13.18-5.75A176.05,176.05,0,0,0,558.07,240c-.81-.14-1.8-.28-2.24.54a1.27,1.27,0,0,0,1,1.89C563.12,244.11,567.85,250.8,575.32,248.81Zm61.14,81.36c-14.44-12-32.77-8.09-49.14-12.16a16.46,16.46,0,0,0-11.12.65C595.45,326.76,616.3,326.71,636.46,330.17ZM408.76,513.33c2.18,4.23,6.72,5.43,10.1,8.07,4.07,3.17,9.32.61,13.44,3.32,1.09.71,3.45,2.82,4.08.59s4.35-4.53.25-7.49c-4.53-3.27-8.43-7.42-12.65-11.14-.78-.7-1.69-2.17-2.81-.92s.15,2.09,1.12,2.79c.54.38,1.14.67,1.68,1.06.81.58,1.79,1.26.95,2.37-.68.89-1.45,0-2.18-.26-3.41-1.34-6.85-2.63-10.28-3.93-.59,1.92.57,2.11,1.33,2.7,1.27,1,3.5,2.16,2.63,3.71-1.16,2.07-2.79-.36-4.19-.75C411.12,513.14,410.17,512.39,408.76,513.33ZM817.13,407.66c-2.25.18-5.06.55-5.21,3.36-.25,4.61-3.4,7-6.21,9.67-5.55,5.37-13.41,7.18-19.06,12.36-1.57,1.44-5.57,1.86-4.26,4.43,1,2,3.7-.82,5.61-1.4,13.49-4.09,24.35-11.72,31.46-24.19.59-1,1.48-1.9.9-3.15S818.4,407.78,817.13,407.66ZM669.9,295.86c-4.16.46-5.19-3.92-8.55-4.65a218.75,218.75,0,0,1-43.14-14.37c-1.15-.52-2.78-2.39-3.77-.46-.91,1.77,1.27,2.35,2.51,3,14.22,7.93,29.18,13.93,45.29,16.63C664.56,296.44,667,298.94,669.9,295.86ZM842.73,603a8.1,8.1,0,0,0-4.07-2.89c-6.85-2.84-13.66-5.78-20.5-8.66-2.23-.94-4.75-3-6.85-1.56s.52,3.9.47,6a16.64,16.64,0,0,0,.45,2.93c.51,3.05,2,4.66,5.38,4.06,2.24-.4,4.71-1.31,6.76-.77C830.16,603.58,835.92,602.3,842.73,603ZM213.47,851.82c4.12.56,6.91-2.21,9.66-4.81,1.78-1.68,1.38-4,.71-6.08-.62-1.91-2.4-2-4.12-2.06-2.73-.08-5.31.1-7.9-1.78a4.18,4.18,0,0,0-6,1.59A8.92,8.92,0,0,0,213.47,851.82Zm597.95-343,.16,1.55C803.81,515,795,513.54,785.81,514c2.57,3.5,5.48,1.89,7.87,2.4,1.78.38,4.72-1.39,5.13,1.25s-2.59,2.25-4.45,2.65c-1.08.24-2.37.46-2.1,2.75,10.63-1.22,18.42-6.9,25.54-14.65-11.3-2.85-24.81-3-29.19.4Zm-250,93.66c-2.84-3.67-5.16-6.79-7.62-9.78a4.5,4.5,0,0,0-5.52-1A64.09,64.09,0,0,0,534,602.5Zm-57,278.22c.24-2.3.38-5.85-3.28-6-4-.17-8.5-2.44-12.05,1.56a4.37,4.37,0,0,0-1,2.68c-.58,5.22.16,5.95,8.55,8.18C502.73,888.78,504.28,887.64,504.34,880.72ZM360.61,312.89c-3.84-.77-6.25-3.05-8-6.21-.88-1.58-2.61-2.58-4.11-1.1-1.2,1.2-.37,2.79.87,3.88,6.28,5.5,12.8,10.38,21.84,10,1.75-.08,3.78.33,3.89-1.76.13-2.25-2.15-1.35-3.45-1.46-4.62-.37-4.71-.4-6.42-4.59a3.11,3.11,0,0,0-1-1.1c-3.67-2.92-6.79-6.17-7.68-11.06a2.23,2.23,0,0,0-2.63-1.8,2.58,2.58,0,0,0-2.09,2.46,6.41,6.41,0,0,0,1.41,4.58C355.35,307.8,358.43,309.92,360.61,312.89ZM568,881.61c-.57-1,1-3.27-1.69-3.61-4-.5-7.7,0-10.07,3.73-1.45,2.24-1.11,4.77-.19,7.15.55,1.41,1.86,1.74,3.28,1.72C563.3,890.55,568,885.91,568,881.61ZM447,573.72a244.52,244.52,0,0,1-41.78-18.3C416.46,567.74,431.77,570.61,447,573.72ZM186.45,837.2a9.18,9.18,0,0,0,3.32,6.81c2.25,2,5,2.35,7,0s1.93-4.88-.56-7c-.76-.63-1.72-1.05-1.95-2.12-.62-2.91-2.57-3.66-5.2-3.13S186.92,834.73,186.45,837.2ZM368.78,428.86c-2.33-.06-4.62-.36-5.82,1.48-1.35,2.08,1,3.56,1.64,5.31,1.17,3,4.22,3.38,6.62,4.69,2.86,1.56,4.11.16,4.25-2.49.12-2.21,1.31-5.35-2.94-5.23C372.48,430,372.09,427.64,368.78,428.86ZM650.41,783.72c1.08,2.46-.23,6.18,3.85,6.72,2.36.3,7.58-4.36,7.57-6.57,0-2.74-3.71-7.38-6-7C652.24,777.56,651.38,780.77,650.41,783.72Zm157.2-442.21c.1-4.14-11.82-19.08-15.67-20.13a1.81,1.81,0,0,0-2.19.63,1.36,1.36,0,0,0,.3,1.79c5.39,5.75,11.75,10.67,15.18,18.06.26.56.83,1.21,1.54.79C807.24,342.37,807.48,341.69,807.61,341.51ZM541.25,889.25c4.18.24,5.19-3,5.33-5.78.1-2.11-.63-5.62-3.92-5.13s-5.94,2.6-5.95,6.68C536.71,888.26,538.3,889.46,541.25,889.25ZM503.77,272.77c-1.08-.15-1.68,0-1.88.79a1.51,1.51,0,0,0,.78,1.66c5.1,3.69,9.78,8,15.34,11,1.2.65,2.85,2.22,4,.59s-.58-2.55-1.89-3.4c-1.1-.72-2-1.78-3-2.59A80.29,80.29,0,0,0,503.77,272.77ZM523.52,239c5.58,4.12,12.39,4.82,17.82,8.42,1,.66,2.69,2.43,3.81.51s-.37-3.4-2.17-4.24c-3.44-1.6-6.77-3.74-10.39-4.5C529.91,238.63,526.85,236.36,523.52,239ZM755.63,455c3.21.21,5-.85,6.79-1.59,1-.39,1.81-1.11,1.54-2.24s-1.52-1-2.47-1.08c-5.06-.43-10.24.91-15.21-1.05a1.83,1.83,0,0,0-1.7.57,1.71,1.71,0,0,0,1.23,2.33C749.4,453.17,753.05,454.22,755.63,455ZM391.87,287.14c0-2.79-.3-5.25.76-7.63.44-1,.86-2.37-.47-3-1.14-.58-2.19.25-3.17.88-3.58,2.33-1.83,5.94-2.2,9-.33,2.81.76,5.52,3.5,5.47C393.9,291.81,391.06,288.47,391.87,287.14ZM342.66,484.55c.59-.4,1.27-.86,1.94-1.33,4-2.77,5.34-7.37,7.68-11.27a1.41,1.41,0,0,0-.15-1.32c-.79-.78-1.4-.1-2.09.38-3.21,2.24-5.12,5.88-8.67,7.84-1.26.7-1.17,2.63-.63,4.14A2.35,2.35,0,0,0,342.66,484.55ZM386.2,303.64c0-1.34-6.16-8.61-7.48-8.59-1.63,0-4.09-.71-3.58,2.43s5.88,7.62,9,7.5C385.05,305,386.32,305.28,386.2,303.64ZM874.34,727.88c0-2.82-.29-5.82-3.36-5.89s-4.18,2.59-4.22,5.58c0,3.25,2.07,4.5,4.67,4.66C874.66,732.44,874.2,729.71,874.34,727.88Zm-101.41,115a3.56,3.56,0,0,0,4.65-3.58,3.61,3.61,0,0,0-4.26-3.71c-2.18.45-5.26,1-5.14,4.28C768.29,842.69,770.43,843.22,772.93,842.92ZM466.67,275.51c0-1.22-.35-1.55-1.86-1.76-2.93-.41-8.5,5.57-7.75,8.41a2.1,2.1,0,0,0,1.31,1.23C460,283.73,466.69,277.27,466.67,275.51Zm5.3,9.76c.16-2.34-1.15-2.4-2.82-1.67-3.85,1.69-3.86,5.56-4.58,8.81-.31,1.4,1.77,1.75,2.55.89C469.21,291,471.21,288.51,472,285.27ZM708.19,427.6l.54-1.35c-3.34-2-6.66-4-10.06-5.88a1.89,1.89,0,0,0-2.67.41c-.58,1,.21,2,1,2.54A22.82,22.82,0,0,0,708.19,427.6ZM385.46,290c-1.91-.75.23-4.39-2.91-4.95-1.57-.28-2.3,1.1-2.33,2.54a4.57,4.57,0,0,0,3.54,4.7C385,292.67,385.55,291.87,385.46,290ZM831.54,415.12a8.45,8.45,0,0,0-4,6.21c-.18,1.1.72,1.35,1.61,1.14,3.08-.72,2.85-3.68,3.78-5.81C833.25,415.89,832.88,415.05,831.54,415.12ZM758,358c-.15-2-1.61-1.77-2.94-1.75s-2.16.81-1.92,2.24,1.57,1.46,2.73,1.5C757.25,360.08,758.17,359.63,758,358ZM678.28,406.4c2.84-2.88,2.63-5.26,1.44-8.3C677.05,400.62,678.09,403.11,678.28,406.4Z" transform="translate(-0.88 -15.88)"/><path d="M1,188a122.35,122.35,0,0,0,52,28.72c11.68,3.14,23.68,4.55,35.51,6.91a211.88,211.88,0,0,0,46.51,3.88c5.29-.12,9.95,1,13.58,6.15,2.88,4.08,8.43,5.66,13,8,3.81,2,7.78,3.67,11.72,5.42a8,8,0,0,0,6.06.61c3.36-1,3.66-1.85,1.63-4.58-3.13-4.19-4.51-9.2-5.35-14.28-.72-4.32,1.28-5.82,5.48-5.47,6.26.52,12.5.87,18.82-.47,5.49-1.16,11.22-1,16.84-1.62,14.55-1.7,29.09-3.33,43.31-7a4.68,4.68,0,0,1,3.53.53c-5.64,1.3-11.22,2.89-16.92,3.83-11.07,1.84-22.17,3.81-33.34,4.77-8.23.71-16.44,2.09-24.79,1.61-5.45-.31-6.17.88-4.53,6.09C186.58,239,192.19,245,198,251.91a39.85,39.85,0,0,1-13.46.34c-14.26-2.06-27.71-6.51-39.52-15.09-3.29-2.39-5.39-6.53-10.06-6.85-3.26-.22-6.64-2-8.6,3.09-1,2.66-4.23-.42-6.49-.28-.3-5.47-5.18-3.91-7.74-4.2-17.86-2-35.45-5.4-53.14-8.42-15.35-2.61-29.1-8.23-42.67-15.15-1.75-.89-4.28-1.24-5.69.22C7.86,208.41,4.41,208.48,1,209Z" transform="translate(-0.88 -15.88)"/><path d="M153.88,55.89c-4.4,4.11-10.4,4.58-15.69,6C121.88,66.38,106,72,90.05,77.56c-14.71,5.11-29.2,10.85-42.74,18.52-14.07,8-28.62,15.32-40.67,26.44C4.71,124.3,3.55,126.87,1,128V114c.82-.11,1.77-.54,2.44-.27C9.55,116.21,14.07,113,19,110,35.3,100,51.62,90,69.67,83.25c1.56-.58,3.79-1.63,3.13-3.87-.59-2-2.51-2.58-4.52-1.78-1.54.62-2.22-.21-2.55-1.43s.26-2,1.55-2.63a8.54,8.54,0,0,1,11.27,3.09c1.1,1.82,2,1.72,4,1.16a291.88,291.88,0,0,0,28.53-9.68c3-1.2,6.56-.38,9.29-3,1.44-1.38,2.42-2.1,1.05-3.93-.87-1.15-1.4-2.95.13-3.38,2-.57,4.65-2.59,6.26-.71,3.77,4.38,7.91,2.88,12.21,1.76,4.6-1.19,9-3.19,13.93-2.88Z" transform="translate(-0.88 -15.88)"/><path d="M96.1,498.75c-10.1-2.5-19.94,1-29.86,1.67-9.29.67-18.55.52-27.81,1.06a18.88,18.88,0,0,0-11.1,4.88c-8,6.87-15.49,14.4-24.15,20.53A17.84,17.84,0,0,1,1,528v-2c6.28-4.14,11.61-9.39,16.8-14.74a43.66,43.66,0,0,1,21.94-12.58c7.82-1.87,15.3-1.73,23-1,8.34.83,16.54-1.32,24.85-1.34,3.1,0,5.94.47,8.36,2.52Z" transform="translate(-0.88 -15.88)"/><path d="M896,389c-4.23-.43-8.6.14-12.49-2.41-3.33-2.18-4-5.78-1.33-8.7,3.8-4.11,8.8-4.05,13.82-3.89Z" transform="translate(-0.88 -15.88)"/><path d="M896,241c-2.76,1.1-5.53,2.21-8.57,2-3.56-.2-6.06-2.1-6.67-5.57s2.36-4.45,4.72-5.53c3.65-1.68,7.12-.36,10.52,1.06Z" transform="translate(-0.88 -15.88)"/><path d="M896,538c-2-.17-3.14-.75-2.21-3.14,1.29-3.33-.49-4.74-3.59-4.67-4.46.11-4.48-3.2-4.75-6.09-.28-3.12,1.1-6,4.34-6.19,4.27-.32,6.45-1.18,4.32-5.92-.43-1,1.08-1.47,1.89-2Z" transform="translate(-0.88 -15.88)"/><path d="M1,428c4.06-3.86,8.62-3.72,13.37-1.59,2.18,1,3.15,2.37,2.53,5.11s-2.09,3.61-4.51,3.55C8.5,435,4.37,436,1,433Z" transform="translate(-0.88 -15.88)"/><path d="M1,26c3.66.57,7.66-1.31,10.86,2.51,2.49,3,2.79,5.15-.48,7.37S4.59,37.85,1,37Z" transform="translate(-0.88 -15.88)"/><path d="M1,496c4.68-4.64,6.21-11.16,9.81-16.44.78-1.14.68-3.07,3.53-3.31C10.06,486.86,6.92,497.5,1,507Z" transform="translate(-0.88 -15.88)"/><path d="M896,304a20.64,20.64,0,0,1-2.2-1.12c-2.42-1.62-6.73-2-5.58-6.28,1-3.62,3.95-5.44,7.78-5.6Z" transform="translate(-0.88 -15.88)"/><path d="M896,797a6.17,6.17,0,0,1-4.65-2.54c-1.54-1.79-3.9-3.65-2.58-6.36,1.48-3.05,4.25-3.34,7.23-2.1Z" transform="translate(-0.88 -15.88)"/><path d="M1,284c1.57-.6,2.86.24,4.19.82,1.7.74,3.51,1.65,3.31,3.74a4.41,4.41,0,0,1-3.42,3.77c-1.4.43-2.72,1.1-4.08,1.67Z" transform="translate(-0.88 -15.88)"/><path d="M896,156a5.82,5.82,0,0,1-1.41-.34c-2.12-1.15-5.16-2.13-4.75-4.89s3.44-3.55,6.16-3.77Z" transform="translate(-0.88 -15.88)"/><path d="M896,506a48,48,0,0,1,0-26Z" transform="translate(-0.88 -15.88)"/><path d="M1,367c2.46,1.11,4.71,2.47,4.48,5.63C5.29,375.34,3.19,375.8,1,376Z" transform="translate(-0.88 -15.88)"/><path d="M1,451c5.76,3.15,5.76,3.74,0,9Z" transform="translate(-0.88 -15.88)"/><path d="M359.23,61.16v-1c0-10.62,0-10.51,10.55-10.44,2.94,0,4.62,1.07,5.73,3.69,1.61,3.82,3.44,7.54,5.13,11.32.51,1.14,1.17,2.12,2.51,2,1.17-.09,1.43-1.32,1.76-2.18a7.64,7.64,0,0,0,.64-3.37c-.71-6.68,1.83-13.12,1.33-19.8-.22-3,.95-4.59,4.6-3.58,10.23,2.85,10.07,2.7,9.15,13.59-.85,10.07-1.39,20.17-1.73,30.27-.15,4.19-2.15,5.11-5.87,5.64-7.7,1.1-12.7-2.15-16.14-8.62-.73-1.38-1.49-2.91-3.28-2.42a3.94,3.94,0,0,0-3.11,4,24.76,24.76,0,0,1-.11,4.48c-.51,2.87,1.85,6.86-2.18,8.37C363.13,95.07,358,95.44,353.53,91c-4.81-4.72-8-10.59-11.82-16-4-5.64-7.45-11.72-11.06-17.66-2.41-4-1.86-4.68,2.54-5.13,7.31-.73,12.58,1.19,15,8.9,1,3.24,3.23,6.12,5,9.12.7,1.2.9,3.3,2.88,2.9a4,4,0,0,0,3.11-4c.15-2.66,0-5.33,0-8Z" transform="translate(-0.88 -15.88)"/><path d="M73.08,125c0-3.33,0-6.66,0-10,0-2.45,1-3.81,3.74-3.13,1.12.28,2.3.3,3.43.55,7.17,1.63,9,4.52,7.64,11.78a112.52,112.52,0,0,0-1.44,29.2c.39,5.18-.66,6.15-6.06,6.52-6.36.45-11.79-.29-14.91-6.94-.81-1.72-2.55-3.81-5.2-3s-2.22,3.34-2.3,5.45a12.13,12.13,0,0,1,0,2.49c-.65,2.67,1.9,6.67-1.62,7.9-5.07,1.76-10.6,3.15-15.1-2.06A214.83,214.83,0,0,1,23,139.69c-2-3.2-4.28-6.29-6.32-9.49-1.51-2.36-1.51-3.95,2-4.1,7.05-.28,13.44-.17,16.26,8.39,1.07,3.28,3.82,6.11,5.27,9.49.59,1.37,1.51,3.44,3.5,3s1.89-2.45,1.88-4.17c0-4.49.14-9-.05-13.48-.16-4,1.16-5.71,5.42-5.69,9.24.05,9.19-.11,13.27,8.65,1.29,2.76,2.19,6.91,6,6.25,4.42-.75,2.41-5.09,2.75-8A47.85,47.85,0,0,0,73,125Z" transform="translate(-0.88 -15.88)"/><path d="M154,56c5.57-3.93,12.47-3.84,18.58-6.15,2.79-1.06,7.41-.53,4.58-6-.57-1.11.67-2.53,2.36-2.42,1.48.09,3.52-.22,4.34.61,6.15,6.21,12.54,1.62,18.77.59,12.36-2,24.65-4.44,37-6.48,13.13-2.17,26.28-4.32,39.49-6,4.73-.6,9.4-1.73,14.29-1.65,11.25.18,22.29-3.06,33.61-2.48,2.6.13,2.53-1.74,1.79-3.43-.65-1.49-.85-2.65,1.08-2.93,1.76-.26,4.24-.66,4.19,2-.06,3.88,2.42,3.43,4.65,3.22,16.24-1.56,32.53-1.25,48.81-1.22,9.81,0,19.39,2,29,3.7,12,2.17,24.15,4.1,35.11,9.89C463.2,43.29,475.67,47.92,486,56.34c2,1.67,4.21,2.39,7.77,2.69-5.07,3.06-1.34,5.8-1.12,8.65.76,9.77,1.38,19.59-2.95,28.86-5.12,10.95-12.93,19.74-21.76,27.81-4.5,4.13-8.2,9.15-12.8,13.13-9,7.81-19.08,14.16-29.54,19.89q-21,11.49-42.54,21.72c-17.31,8.25-35,15.6-53.61,20.35l.09.11c1.67-3.26,5.2-3.49,8-4.34C352.6,190.66,366.79,184,381,177.36c15.19-7.06,30.11-14.61,44.64-23,10.48-6,20.92-12.43,29.65-20.53a141.74,141.74,0,0,0,22.57-26.25,31.29,31.29,0,0,1,2-2.8c8.37-10.1,10.75-21.14,7.95-34.26-2.07-9.75-8.22-13.91-16-17.64C461,47.69,450.45,41.78,439.44,37c-7.06-3.09-14.74-4.64-22.41-6.08-13.36-2.52-26.87-3.35-40.33-4.63a96.61,96.61,0,0,0-23.9.35,48,48,0,0,1-4.93.59c-15.69.71-31.34,1.63-47,3.47-9.66,1.14-19.48,1.23-29.16,2.69-9.45,1.41-19,2.39-28.4,3.9-11.91,1.9-23.75,4.23-35.64,6.22-16.47,2.75-32.38,7.63-48.38,12.21-1.69.48-3.61.17-5.43.22Z" transform="translate(-0.88 -15.88)"/><path d="M235.49,77.29c6.65-2.06,10.68,3.15,14.55,8.2,1.63,2.13,3.46,4,5.23,6,1.11,1.23,2.36,2.77,4.21,1.75s1.12-3.08.46-4.45c-2.26-4.72-2.06-10-3.51-14.83-.89-3,.24-4.08,3-4.11,2.16,0,4.33.06,6.49,0,3.12-.08,5.14,1.43,5.8,4.37,2.15,9.47,4.18,19,6.21,28.46.51,2.39.93,4.81,1.24,7.24.43,3.29-.93,4.75-4.45,5a17.48,17.48,0,0,1-13.84-5.38c-2.61-2.54-5.47-4.82-8.22-7.22-1.21-1-2.73-1.89-4-.77s-1,2.8-.31,4.19c1.75,3.76,1.61,8.13,3.88,11.73.76,1.21.85,2.51-.81,3.32-3.26,1.6-10.32-.27-12-3.44-6.18-11.7-10.25-24.22-14-36.85-.63-2.14.37-3.16,2.52-3.16S232.27,77.29,235.49,77.29Z" transform="translate(-0.88 -15.88)"/><path d="M121.45,168.85c10.07-1,18.21,1.76,24.65,8.57,8,8.41,7.85,18.77-.83,27.62a59.06,59.06,0,0,1-6,5.83c-6.81,5.25-14.21,4.42-21.77,2.58-3.21-.78-5-3.29-6.22-6-4.18-9-8.08-18.18-12.44-27.11-1.73-3.54.18-4.94,2.55-6.31C107.81,170.28,114.47,167.41,121.45,168.85Zm14.2,21.48c1.71-9.32-8.37-14-14.54-11.8-2.56.92-3.61,2.46-3,4.85,1.61,6.52,3.29,13,5.23,19.46,1.08,3.61,4.14,2.92,5.89,1.14C132.92,200.19,136.47,196,135.65,190.33Z" transform="translate(-0.88 -15.88)"/><path d="M184.34,153.59c6.24.63,12.47,2.51,17.55,7.12s5,9.17.39,14.22a44.75,44.75,0,0,1-5.67,5.6c-3.79,2.87-2.09,4.29,1.14,5.53,4.47,1.72,8.94,3.45,13.44,5.09,1.12.4,2.45.55,2.36,2.06s-1.52,1.39-2.62,1.68c-5.85,1.58-11.33-.3-16.66-2.13-2.68-.92-5.41-1.53-8.09-2.37-3.42-1.07-4.65.62-4.14,3.91.05.31.46.62.43.89-.34,2.31,3.69,4.92-.11,6.85-3.62,1.84-9.48,0-11-3.38-4.13-9.55-8.12-19.17-11.84-28.89-.92-2.38-1.06-5.36,1.66-7.24C168.07,157.81,175.19,153.77,184.34,153.59Zm-3.7,24.9a12.45,12.45,0,0,0,6.66-4.92c1.95-3,6.5-6.06,3.55-9.84s-7.06-.06-10.35,1.19c-4.41,1.68-5.61,7.85-2.68,11.63A4,4,0,0,0,180.64,178.49Z" transform="translate(-0.88 -15.88)"/><path d="M178.05,88.77c1.33,0,2.67-.06,4,0,5.23.31,8.11,3,8.42,8.32.13,2.19.13,4.66,2.86,5.17,2.45.45,3.31-1.78,4.31-3.48a77.33,77.33,0,0,0,6.74-14.32c1.44-4.21,4.27-4.23,7.46-2.59,7.16,3.68,8.14,6.71,4.48,14-2.38,4.73-5.07,9.31-7.71,13.91-1.49,2.58-1.73,4.34,1.72,5.61,4.62,1.7,8.44,5.21,13.51,6.07,1,.18,2.49.76,2.51,2.1,0,1.54-1.32,2.06-2.66,2.52-4.1,1.4-8,1.68-12-.61a92.11,92.11,0,0,0-9.08-4,3.11,3.11,0,0,0-3.67.65c-1.08,1-1,2.24-.58,3.65,2.38,8.33,1.9,8.36-6.51,7-6.19-1-6.44-6.35-8.19-10A162,162,0,0,1,173,95.06C171.21,88.65,171.16,88.66,178.05,88.77Z" transform="translate(-0.88 -15.88)"/><path d="M312.07,104.76c-15.56,2.76-26.59-12.31-27.66-25.43-1-12.51,7.07-20.53,19.54-19.9,2.14.11,4.31-.18,6.44,0,8.68.8,13.68,6.29,17.73,13.46,3.74,6.6,4.05,13.58,3.61,20.75-.31,5.15-6.88,10.62-13.07,11.07C316.35,104.9,314,104.76,312.07,104.76ZM301.81,80.51A19,19,0,0,0,307.11,97c4,4.23,8.62,3.17,10-2.47,2.39-9.47-1.34-17.62-6.44-25.14-2-2.92-5.84-1.93-7.78,1.35C301.11,73.87,301.88,77.26,301.81,80.51Z" transform="translate(-0.88 -15.88)"/><path d="M268,147.88c-.73-5.52,1.59-10.38,5.92-14.52a11.9,11.9,0,0,1,8.42-3.6c6.92-.12,13.93-1.38,20.24,2.92,4.22,2.88,6.09,7.27,7.82,11.74a1.92,1.92,0,0,1-1.82,2.83c-4.69.31-9.22.46-12.59-4-1.71-2.26-2.69-6.77-6.79-5.12-3.83,1.54-5.08,5.42-5.1,9.45,0,2.75-1.76,6.42.67,8,3,1.94,6.08-1.28,9.18-2,4.33-1,8.16-5,13-2.83,3.41,1.53,8.25,2.82,8,7.19-.34,6.26-1.87,13.15-8.61,15.67-5.76,2.16-12.18,3.57-18.39,1.85C275,171.89,268,162.15,268,147.88Zm32.47,15.81c.12-1.63-.5-2.77-2.51-2.6s-3.54-.69-5.3-1.07c-2.28-.5-5.1-3.07-6.77-.46-1.33,2.1,1,4.52,2.5,6.52,1,1.32,1.85,2.65,3.49,3.33C295.54,170.91,300.45,167.77,300.49,163.69Z" transform="translate(-0.88 -15.88)"/><path d="M344.25,162.48c-4.4.75-10.47-1.12-16.59-2.66-1.18-.29-2.43-.44-2.35-2,.05-1.2,1.13-1.38,2.11-1.72,3.17-1.07,6.16-1.62,9.61-.52,4.13,1.31,8.58.73,12.85.21,1.08-.13,2.92-.66,2.89-2.28s-1.74-1.18-2.77-1.48c-5.39-1.57-11.08-1.55-16.46-3.34-2.36-.79-4.64-1.69-6.91-2.69-8.43-3.69-8.64-9.63-6.79-17.51,2-8.67,8.19-12.42,17.32-12.37,5.89,0,11.92-.73,17.13,3.12,4,3,7.44,12.19,6.23,16.91a3.06,3.06,0,0,1-2.32,2.31c-5.75,1.81-12.87-2.57-13.95-8.56-.26-1.44.79-3.56-1.94-3.81a4.73,4.73,0,0,0-5.25,3.68,24.21,24.21,0,0,0-.67,7.88c.13,2.16,1.72,3.06,4.06,3.53,6.77,1.36,13.46,3.13,20.15,4.86,3,.78,6.89,1.68,7,5.24s-2.52,6.44-5.85,8.57C356.86,163,351.54,162.12,344.25,162.48Z" transform="translate(-0.88 -15.88)"/><path d="M243.18,187.54c-9.73,1-17-2.6-22-11.24-4.65-8.13-7-17-9.1-26-.47-1.95.41-2.83,2.24-3A28.4,28.4,0,0,1,227,149.26c1.62.61,1.82,2,2.3,3.53,2.38,7.38,2.25,15.43,6,22.46a19.8,19.8,0,0,0,2.36,3.76c1.55,1.81,3.3,2.79,5.69,2s2.13-3,2.28-5c.77-10-3.3-19.06-5.71-28.44a16.61,16.61,0,0,0-.91-3.34c-2.08-4.12,1-4.63,3.42-4.11a38.88,38.88,0,0,0,9.34,1c2.21-.06,2.82,1.69,3.21,3.23,1.89,7.51,4,15,5.32,22.61C262.51,179.57,258.52,187.43,243.18,187.54Z" transform="translate(-0.88 -15.88)"/><path d="M122.81,100.92a16.5,16.5,0,0,1,3.85.67c2.43,1.15,5.16,2.91,5.2,5.46,0,1.83-3.17,2.34-5.22,3-3,.93-6,2-8.93,3.12-2.44.88-3.64,1.81-2.62,5.1,2,6.52,1.64,6.67,8.4,4.51a9.91,9.91,0,0,1,5.41-.21,7.38,7.38,0,0,1,5.49,5.23c.52,2.57-2.83,2.15-4.44,3a61.91,61.91,0,0,1-7.85,3.11c-2.54.87-3.46,2.6-2.65,5,1,2.89,3,1.73,4.91,1a54.7,54.7,0,0,1,6.61-2.24c2.27-.53,4.8-.84,6.77.59,1.38,1,3.87,1.44,3.75,3.57s-2.43,2.38-4.08,3c-3.08,1.23-6.42,2.06-9.17,3.8-5.73,3.63-11.08,2-16.52-.32a7.8,7.8,0,0,1-4.73-4.84,166.46,166.46,0,0,0-9.65-24.37c-1.06-2.2-.43-4.92-1.91-7.12-.49-.73.18-1.55,1-2A116.41,116.41,0,0,1,122.81,100.92Z" transform="translate(-0.88 -15.88)"/><path d="M26.48,465.29c5.76-9.5,13.27-16.29,25.15-16.39,2.67,0,5.35-.2,8,0a12.43,12.43,0,0,0,11-4.19c4.41-4.62,11.13-5.52,17-5.54,7.71,0,13.44-2.89,19.27-7.44,19-14.86,38.39-29.34,57.62-44,.66-.5,1.62-1,1.78-1.7,1.49-6.29,7.52-5.67,12.11-7.39-3.61,3-7.14,6.13-10.86,9q-30.3,23.32-60.66,46.6c-.89.69-3.1.71-2.3,2.61s2.51,1.12,4,1a222.56,222.56,0,0,1,28.29-1.45c14.71.42,29.22,3.49,44,3,3.8-.11,7.37,2.93,11.41,3.62-2,.55-3.76,2.74-6,.27-1-1.06-2,.25-3,.87-7.89,4.92-16.65,5.43-25.51,4.41-4.14-.48-7.91-2.25-6.34-7.8.39-1.39-.29-1.71-1.41-1.94-10.21-2.14-20.56-1.47-30.79-.89-7.87.45-15.66,2.25-23.62,2.09a46.65,46.65,0,0,0-21.58,4.56c-1.42.69-3.71,1-3.22,3.14.45,1.92,2.54,1,3.91,1.09,10.46.42,20.83-2,31.31-1.12l3.89.33c-19.8,3.67-39.53,3.52-59.26,3.14-7.19-.13-12.57,3.1-17.26,8.23-2,2.22-3.19,5.71-7,5.76Z" transform="translate(-0.88 -15.88)"/><path d="M376.27,106.1c1.89.18,4-.2,6.16.51,3.06,1,4.19,2.65,4.47,6.07.65,8,2.25,15.91,3.12,23.89.25,2.23,2.71,5.33-1.17,6.83s-11-.87-11.81-3.78c-2.61-9.49-5.19-19-7.56-28.55C368.35,106.47,369,106.1,376.27,106.1Z" transform="translate(-0.88 -15.88)"/><path d="M193.75,483.87l101-80c-.44,3.26-2.45,5.22-4.71,6.9-16.86,12.52-33.55,25.25-49.66,38.73-8.36,7-17,13.59-25.58,20.37-.77.61-2.25,1.23-2.23,1.82.13,5.89-4.41,5.29-8.1,6.73s-6.51,4.52-9.73,6.89Z" transform="translate(-0.88 -15.88)"/><path d="M184.45,455.23c-8.68,3.83-17.24,6.78-26.73,6.21a50.93,50.93,0,0,1-9.27-1.5c-2.91-.73-4.63-2.81-4.11-5.89.58-3.44,3.22-1.07,4.84-1.27,7.19-.88,14.43,1.51,21.61-.11C175.7,451.57,179.64,455,184.45,455.23Z" transform="translate(-0.88 -15.88)"/><path d="M117.18,529.88a2.64,2.64,0,0,1-.72-.1c-.48-6.06-6.78-4.24-9.86-7.14-5.71-5.36-6.14-7.63.45-11.81,1.15-.72,1.81-.3,2.64.24,4.56,2.95,9.28,5.7,13.63,8.95,3.7,2.76,3.27,4.5-.93,6.74C120.65,527.69,119,528.78,117.18,529.88Z" transform="translate(-0.88 -15.88)"/><path d="M883,316.26h2.48c3.56,0,6.74.89,7.53,4.85.83,4.16-2.34,6.26-5.43,7.21a15.64,15.64,0,0,1-14.07-2.53,3.68,3.68,0,0,1-1.31-4.46c1.14-2.74,3.72-4.07,6.36-4.94,1.34-.45,3-.08,4.44-.08Z" transform="translate(-0.88 -15.88)"/><path d="M867.76,353.72c-2.71-.59-5.42-.8-7.82-1.79-3.8-1.56-4.05-6.44-.68-8.84,3.66-2.61,12.44-2.52,16.11,0,2,1.37,3,3,2.54,5.41a5,5,0,0,1-4.5,4A22,22,0,0,0,867.76,353.72Z" transform="translate(-0.88 -15.88)"/><path d="M872.79,268.64c-2.28-.65-4.8-1-7-2.07-2.49-1.2-2.17-5.71.4-7.45,4.07-2.76,8.52-2.26,12.82-.93a4,4,0,0,1,2.88,4.68c-.45,1.95-.9,4.27-3.73,4.6A52.35,52.35,0,0,0,872.79,268.64Z" transform="translate(-0.88 -15.88)"/><path d="M857.42,282.48a15.06,15.06,0,0,1,3.94.27c2.39.8,4.89,2.28,5.06,4.82.15,2.38-2,3.88-4.42,4.74-3.2,1.14-6.2,1.85-9.57.33-2.62-1.19-4.78-2.33-4.35-5.68.41-3.16,3.07-3.6,5.38-4.25a15.3,15.3,0,0,1,3.95-.06Z" transform="translate(-0.88 -15.88)"/><path d="M292.62,396.75,234.75,365l.61-1.28c5.82,2.94,11.69,5.8,17.46,8.85,3.25,1.72,6,5.06,10.3,2.63.42-.24,1.65,0,1.79.36,3.56,8.29,12.82,8.64,18.84,13.51,2.95,2.39,6.46,4.1,9.71,6.11Z" transform="translate(-0.88 -15.88)"/><path d="M841.3,317.47a18.08,18.08,0,0,1-4.42-.08,4.64,4.64,0,0,1-3.69-3.58,3.53,3.53,0,0,1,2-4.14c3.76-1.48,7.54-3.27,11.82-1.25,2.16,1,3.85,2.11,3.35,4.7s-1.93,4.18-4.64,4.35c-1.48.09-3,0-4.45,0Z" transform="translate(-0.88 -15.88)"/><path d="M221.84,590.84c0-5.53,4.45-5.16,7.11-5.33,3.06-.18,6.81,1,7.49,5,.48,2.76-4.77,6.43-8.51,5.48C225.33,595.32,221.3,594.94,221.84,590.84Z" transform="translate(-0.88 -15.88)"/><path d="M46.4,45.84a57.41,57.41,0,0,1-6.25-1.37,2.75,2.75,0,0,1-1.79-4c1-2.16,1.9-5,5.21-4.08a18.86,18.86,0,0,0,4.79,1c3.15.11,4.93,1.42,4.64,4.92S50.54,46.19,46.4,45.84Z" transform="translate(-0.88 -15.88)"/><path d="M189.84,577.82c.83,0,1.66.06,2.48,0,2.94-.26,5,1.17,5.47,3.88.57,3.15-2.47,3.68-4.48,4.35-1.8.6-3.91.33-5.89.36-3.06,0-5.37-1.37-5.4-4.5s2.11-4.58,5.34-4.15a18.63,18.63,0,0,0,2.48,0Z" transform="translate(-0.88 -15.88)"/><path d="M33.09,72.2c-3.84.53-6.1-3-8.93-5.33-1-.84.17-1.6.65-1.9,2.15-1.34,3.84-4.31,6.77-3.26,2.42.87,4.56,2.62,6.67,4.19A3.17,3.17,0,0,1,38.89,70C37.86,71.88,35.79,72.27,33.09,72.2Z" transform="translate(-0.88 -15.88)"/><path d="M16.4,88.65c2.18.06,4,0,5.7.79a4.89,4.89,0,0,1,3.11,5.11c-.18,2.63-2.38,2.92-4.35,3.08a20.08,20.08,0,0,1-5.9-.12c-3.15-.71-4.65-3.09-4.37-6.24C11,86.79,14.68,89.5,16.4,88.65Z" transform="translate(-0.88 -15.88)"/><path d="M387.48,146.12c3.3-.13,6.1.79,6.75,4.41.38,2.13-4.3,5.48-7,5.35-3.43-.17-7.4-3.45-6.87-6C381.15,146,384.47,146.17,387.48,146.12Z" transform="translate(-0.88 -15.88)"/><path d="M107,529.62c-8.69,1.56-16.13-2.2-23.6-5.66-3.81-1.77-7.25-3.26-11.8-1.59-3,1.1-6.7.21-10.18-.3a29.24,29.24,0,0,0,14.81-4.3,2.39,2.39,0,0,1,2.29.25c3.67,4.23,9,5.27,13.79,7.4A68.79,68.79,0,0,0,107,529.62Z" transform="translate(-0.88 -15.88)"/><path d="M48.91,434.12c2.36.9,4.88,1.46,6.72,3.2s1.43,4-.74,4.85c-2.42,1-4.88,2.46-8,.74-2-1.14-5.22-2.08-4.55-4.2C43.11,436.34,45.89,434.46,48.91,434.12Z" transform="translate(-0.88 -15.88)"/><path d="M864.28,198.68a22.78,22.78,0,0,0,3,0c2.62-.34,3.4,1.53,4.21,3.37,1,2.34-1.18,2.61-2.31,3.63-3.09,2.81-6.35,2-9.62.49a4.17,4.17,0,0,1-2.41-4.85c.4-2.12,2.09-2.78,4.16-2.61,1,.08,2,0,3,0Z" transform="translate(-0.88 -15.88)"/><path d="M229,360.89c-8.25-2.89-16.33-3.28-24.56-.11-8,3.06-13.6,9.46-21.37,15C194,358.77,218.45,351.16,229,360.89Z" transform="translate(-0.88 -15.88)"/><path d="M880.25,181.12c-3.55.14-7.06-.85-6.93-4.6.1-2.81,3.57-4.12,6.47-4.07,3.21.06,6.79.92,6.7,4.89C886.41,180.92,883.13,181.26,880.25,181.12Z" transform="translate(-0.88 -15.88)"/><path d="M24.06,401.34c3.54-.5,6.33,1.17,6.44,4.78.09,3-2.74,3.82-5.62,4-3.84.22-7.23-1.67-7.6-4.8C16.85,401.62,20.76,401.29,24.06,401.34Z" transform="translate(-0.88 -15.88)"/><path d="M12.56,351.16c-3-.28-6.73.46-6.92-4.17-.19-4.42,3.29-4.3,6.23-4.3,3.18,0,7,.34,7.13,4.33S15.9,351.54,12.56,351.16Z" transform="translate(-0.88 -15.88)"/><path d="M204.28,561.42c-3.41.16-7.07-.29-7.14-4.32-.06-3.24,3.33-4.23,6.26-4.16,3.16.08,6.92.44,7,4.55C210.55,561.26,207,561.15,204.28,561.42Z" transform="translate(-0.88 -15.88)"/><path d="M329.41,199.44c-16.63,4.74-33.05,10.41-50.51,11.43,15.57-3.36,30.92-7.58,46.25-11.87a4.88,4.88,0,0,1,4.33.53Z" transform="translate(-0.88 -15.88)"/><path d="M288.06,575.67c.2,2.78-2.63,3.46-5.24,3.17s-6.77,0-7-3.86,3.47-4.47,6.38-4.64S288,570.6,288.06,575.67Z" transform="translate(-0.88 -15.88)"/><path d="M14.74,267.45c-3,.09-6.15-.44-6.09-4s2.75-4.84,6.27-4.59c3.29.24,7.28,3.46,6.45,6C20.41,267.84,17.3,267.43,14.74,267.45Z" transform="translate(-0.88 -15.88)"/><path d="M242.47,561.43c2.8,1,6.41.72,6.7,4.74s-3.26,3.82-5.58,3.85c-2.73,0-6.29.21-6.76-4C236.32,561.52,240.42,562.8,242.47,561.43Z" transform="translate(-0.88 -15.88)"/><path d="M62.78,411.36a19.21,19.21,0,0,1,3.57,0c2.08.46,3.8,1.78,3.82,3.89,0,1.86-1.89,2.46-3.57,2.79-.65.13-1.29.27-1.94.39-3.74.72-6.95-1.41-7.29-4.3C56.94,410.37,61,411.56,62.78,411.36Z" transform="translate(-0.88 -15.88)"/><path d="M179.82,520.15c2.33.21,5.73-.5,5.4,3.63-.27,3.33-3.08,3.83-5.89,3.93-3.23.11-6.14-2.23-6.21-4.34C173,519.48,176.89,520.28,179.82,520.15Z" transform="translate(-0.88 -15.88)"/><path d="M53,360c-1.89-1.06-6.08-.11-5.89-3.88.15-2.93,3.53-4.45,6.25-4.58,3-.14,5,3.1,5.29,5.2S56,360.1,53,360Z" transform="translate(-0.88 -15.88)"/><path d="M38.13,377.32c2,.73,5.9-.6,5.91,3.7,0,4.6-4.41,3-6.68,3.65-1.89.53-5.18-1.12-5.1-3.87S35,377,38.13,377.32Z" transform="translate(-0.88 -15.88)"/><path d="M77.58,386.33c3.37-.09,6.4.74,6.32,4.27-.06,2.79-3.27,2.93-5.46,3.1-3.36.26-4.89-2.22-5.07-5C73.16,385.43,76.14,386.77,77.58,386.33Z" transform="translate(-0.88 -15.88)"/><path d="M256.72,545.14c-2.71-.17-5.44-2-5.28-3.76.3-3.34,3.66-3.47,6.62-3.63s4.85,1.33,4.45,3.86C262.08,544.4,259.11,544.8,256.72,545.14Z" transform="translate(-0.88 -15.88)"/><path d="M33,236.92c-3.14,1.53,5.64,5.79-1.79,5.24-2.88-.22-7.79.77-8.17-4.69A3,3,0,0,1,26.79,234C28.83,234.39,31.7,234.16,33,236.92Z" transform="translate(-0.88 -15.88)"/><path d="M217.85,536.55c-1.8-1.08-4.9-.55-4.85-3.91.06-4,3-3.71,5.74-3.61,2.41.08,5.24.39,5.18,3.36C223.84,535.83,220.47,535.77,217.85,536.55Z" transform="translate(-0.88 -15.88)"/><path d="M193.5,502.67c-2.24-.2-5.2.15-5.3-3s2.52-4.42,5.38-4.42c2.44,0,5.13,1.08,5.18,3.56C198.81,501.57,196.38,502.87,193.5,502.67Z" transform="translate(-0.88 -15.88)"/><path d="M452.32,582.81c1.49.13,5.06-.35,5.34,2.91s-3.51,3.73-5.78,3.89-5.37-.42-5.53-3.66S448.88,582.72,452.32,582.81Z" transform="translate(-0.88 -15.88)"/><path d="M871.7,119.81c-2.57-.1-6.08-1.22-6.19-3.45-.11-2.43,3.2-3.82,6.08-3.94,2.67-.1,4.91,1.12,4.85,3.74C876.4,118.29,874.46,119.83,871.7,119.81Z" transform="translate(-0.88 -15.88)"/><path d="M374.16,564c2.72-.32,5,.57,5.22,3.67s-2.43,3.46-4.78,3.51c-2.81.06-5.9-1.61-6.1-3.67C368.27,565.2,371.24,563.8,374.16,564Z" transform="translate(-0.88 -15.88)"/><path d="M54.76,276c-1.22-.13-4.15-.31-4.21-3.87,0-2.7,2-3.34,4.46-3.39,3.16-.06,5.29,1.79,5.69,4.35C61.13,275.88,58.52,276.29,54.76,276Z" transform="translate(-0.88 -15.88)"/><path d="M335.08,555.09c2.72.48,5.24,1.12,5.12,4s-3.23,3.32-5.2,3.35-5.3-.85-5.21-3.46C329.88,556.14,333.08,555.83,335.08,555.09Z" transform="translate(-0.88 -15.88)"/><path d="M231.93,510.94c-1-.34-4.41,0-4.33-3.64.06-2.73,3.13-3.08,4.91-3.11,2.08,0,5.06.88,5.12,3.58C237.67,509.76,236.23,511.89,231.93,510.94Z" transform="translate(-0.88 -15.88)"/><path d="M839.39,164.82c2.18-.14,5.38.25,5.36,2.67,0,3-3.48,3.42-6.13,3.59-2.14.13-4.78.4-4.58-2.89C834.22,165.15,836.66,164.77,839.39,164.82Z" transform="translate(-0.88 -15.88)"/><path d="M59.53,16.06a13.62,13.62,0,0,1,1.85,0c2,.33,5.53-.92,5.69,1.41.19,2.78-3.62,3-5.8,3.3-3.09.38-7.37-.4-7.69-3.55C53.35,15.05,57.7,16.75,59.53,16.06Z" transform="translate(-0.88 -15.88)"/><path d="M94.5,22.38c2.72-2,5.89-1.21,8.92-1.06.31.91.29,1.48-.47,1.86S100.74,23.6,101,25s1.53.89,2.46,1,2.54-1.22,3,.52c.5,1.93-1.52,1.69-2.55,2.34-2,1.27-3.75.94-5.44-.55-.62-.54-1.28-.94-1-2C98.76,22,98.74,22,94.5,22.38Z" transform="translate(-0.88 -15.88)"/><path d="M296.72,552.77c-2.47-.06-5.47.1-5.57-2.81-.08-2.1,2.37-3.73,4.68-3.27s5.87.12,5.77,3.8C301.51,553.81,298.46,552.42,296.72,552.77Z" transform="translate(-0.88 -15.88)"/><path d="M105,426.27c-3.06.15-5.94-.15-6.22-3.55-.18-2.23,2-2.6,4-2.62,3.16,0,5.92.82,6.14,4.3C109.13,427.43,106.24,425.76,105,426.27Z" transform="translate(-0.88 -15.88)"/><path d="M887.73,93.47a3.43,3.43,0,0,1-4.24-3.14c-.38-3.08,2.51-3.1,4.5-3.32,2.22-.23,4.79.57,4.59,3.13C892.42,92.27,890.26,93.6,887.73,93.47Z" transform="translate(-0.88 -15.88)"/><path d="M855.21,145.27c-1.84-.54-4.55.1-4.46-3.24.08-3,2.21-3.27,4.46-3.38,2.47-.12,4.55,1.11,4.72,3.36C860.17,144.9,857.31,144.78,855.21,145.27Z" transform="translate(-0.88 -15.88)"/><path d="M353.7,534.79c-.43,2-2.07,2.62-3.92,2.88a4.22,4.22,0,0,1-5.07-3.5c-.21-1.64,2.23-2.48,4.07-2.73C351.28,531.11,352.85,532.31,353.7,534.79Z" transform="translate(-0.88 -15.88)"/><path d="M142.55,511.87c-10.23,3.88-20,1.24-29.77-2.35C122.63,510.85,132.27,515.12,142.55,511.87Z" transform="translate(-0.88 -15.88)"/><path d="M200.06,18.37c-.21,1.9-.46,4-3,3.58s-6.08-1.36-6.1-4c0-3.4,3.53-1.47,5.48-1.74C197.91,16,200.43,15.16,200.06,18.37Z" transform="translate(-0.88 -15.88)"/><path d="M93.66,368.3c-3-.83-5.88-1.21-5.89-4,0-1.94,2.56-2.59,4.31-2.69,2-.12,4.09.82,4.48,3.09C97,367.34,91.74,364.39,93.66,368.3Z" transform="translate(-0.88 -15.88)"/><path d="M818.73,133.18c-1.16,1.8-2.64,3.13-4.84,2.84-1.92-.25-4.46-.65-4.33-3.07.12-2.19,2.34-3.24,4.47-2.8C815.83,130.53,818,130.77,818.73,133.18Z" transform="translate(-0.88 -15.88)"/><path d="M798.25,156.14c2-.11,3.74,0,3.61,2.77-.09,1.81-1,3.18-2.66,2.74-2.06-.53-5.47,0-5.61-2.89C793.5,156.83,796.23,156.25,798.25,156.14Z" transform="translate(-0.88 -15.88)"/><path d="M830.18,109.85c-2.24,0-4.36-.33-4.18-2.73s2.76-3,4.53-3c1.5,0,4.25.26,4.13,2.53C834.53,109.16,832.34,110.05,830.18,109.85Z" transform="translate(-0.88 -15.88)"/><path d="M75.1,579.85c-1.71-3.24-.11-4.73,1.43-6.27,1.19-1.2,3.22-2.05,1.45-4.38-.89-1.16.34-1.33,1.13-1.23,2.21.28,2.65,2.29,3.42,3.85,1,1.94-.92,2.3-2,2.6C77.94,575.16,76.69,577.23,75.1,579.85Z" transform="translate(-0.88 -15.88)"/><path d="M271.1,513.92c2,.08,4.67.23,4.87,2.81.18,2.43-2.63,2.88-4.39,3s-4.22-.91-4.44-3.13C266.89,514.14,269.07,514,271.1,513.92Z" transform="translate(-0.88 -15.88)"/><path d="M65.45,328c.67,1.8-1.53,3-.22,4.09,1.67,1.37,2.32-.31,3.34-1.44A2.26,2.26,0,0,1,72,331c.81,1.18-.28,2.23-1.08,3-1.82,1.67-4,1.24-6.07.58s-2.63-2.66-2.79-4.33C61.92,328.33,64.07,328.63,65.45,328Z" transform="translate(-0.88 -15.88)"/><path d="M68.84,244.9c2.52.12,4.49,1.28,5,3.83a1.92,1.92,0,0,1-2.52,2.19c-2.43-.65-5.75-.66-6.2-3.91C64.81,244.68,67.23,245.11,68.84,244.9Z" transform="translate(-0.88 -15.88)"/><path d="M222.08,425.63c4.85,2,10,.3,15.86.91C231.76,430,226.86,428.32,222.08,425.63Z" transform="translate(-0.88 -15.88)"/><path d="M83.19,587.57c-.71,1.92.82,5.25-1.86,4.94s-1.35-3.92-1.91-6c-.41-1.57.27-3.35,2.15-3.11C84.59,583.77,82,586.47,83.19,587.57Z" transform="translate(-0.88 -15.88)"/><path d="M26.44,465.22c.56,1.73-.09,4.24,3.27,4.33-5.61.56-10,3.38-14.83,5.13,2.81-4.52,9.84-3.67,11.62-9.36Z" transform="translate(-0.88 -15.88)"/><path d="M136.81,34.61c-1-2.52-.12-3.78,2.63-3.54,1.07.1,3-.83,2.57,1.68a6.43,6.43,0,0,1-4.47,4.91C135.59,38.15,136.81,35.83,136.81,34.61Z" transform="translate(-0.88 -15.88)"/><path d="M310.15,527.74c-1.37-.17-3.31.5-3.26-1.91,0-2,1.16-3.27,3.18-2.87,1.65.31,4.17.39,4.06,2.71C314,527.67,311.85,527.7,310.15,527.74Z" transform="translate(-0.88 -15.88)"/><path d="M40.18,543.3c2.42-3.46,6.62-5,9.17-8.32C48.59,540.22,44.75,542.15,40.18,543.3Z" transform="translate(-0.88 -15.88)"/><path d="M218.86,372.35A20.11,20.11,0,0,0,204.22,374C208.36,369.6,213,369.05,218.86,372.35Z" transform="translate(-0.88 -15.88)"/><path d="M96,498.89c3.44,2.27,6.9,4.51,10.32,6.82.77.52,1.81,1.21.82,2.35-.75.86-2,1.08-2.61.17-2.32-3.61-7.09-5-8.4-9.47Z" transform="translate(-0.88 -15.88)"/><path d="M121.24,317.83c-2.13.33-3.79-.7-3.94-2.32s1.72-2.46,3.23-2.37c1.81.11,4,.87,4.22,2.77C125,318.51,122.32,317.18,121.24,317.83Z" transform="translate(-0.88 -15.88)"/><path d="M246.18,486.29c-1.94-.37-3.37-1.15-3.12-3.24.17-1.38,1.11-2.73,2.57-2.5,2,.29,4,1.74,4.23,3.45S247.56,485.78,246.18,486.29Z" transform="translate(-0.88 -15.88)"/><path d="M809.08,72.27a4.11,4.11,0,0,1-3.87,2.16c-1.34-.15-3.15-.75-3-2.58a2.71,2.71,0,0,1,3.16-2.38C807,69.66,808.63,70.12,809.08,72.27Z" transform="translate(-0.88 -15.88)"/><path d="M116.23,395.74c.84,1.61-1.75,3.24.5,4.14,1.86.74,2.51-.21,2.61-2.19.07-1.29,1.21-.5,1.8-.07.82.59,1.59,1.44.91,2.47-1.1,1.64-2.94,1.22-4.5,1.09s-3.65-.39-4.22-1.95C112.61,397.3,114.42,396.49,116.23,395.74Z" transform="translate(-0.88 -15.88)"/><path d="M83.45,46.59c1.83,1.39-1.74,2.34.25,3.86.6.46-.12,2.66-.27,4.45-2.42-1-4-2.4-3.84-4.77S81.8,47.21,83.45,46.59Z" transform="translate(-0.88 -15.88)"/><path d="M289.07,491.54c.23,2.51-1.77,2.44-3,2.88-2.08.76-3.15-.77-3.42-2.46s1.2-1.84,2.38-1.73C286.52,490.37,288.51,489.41,289.07,491.54Z" transform="translate(-0.88 -15.88)"/><path d="M132.63,376.26c-2.06-.23-4.44-.1-4.34-2.44.07-1.65,2.37-2.21,3.86-2.27,1.79-.06,3,1.64,3.1,3.21C135.42,376.84,133.39,375.86,132.63,376.26Z" transform="translate(-0.88 -15.88)"/><path d="M197.64,449.09c5.06-.56,10,1,14.75-.94C208,452.16,202.29,452.45,197.64,449.09Z" transform="translate(-0.88 -15.88)"/><path d="M773.8,126.09c-1.43-.13-3.29.26-3.49-1.8a2.57,2.57,0,0,1,2.78-2.78c1.68,0,3.49.77,3.77,2.52C777.21,126.21,775.2,125.94,773.8,126.09Z" transform="translate(-0.88 -15.88)"/><path d="M164.81,410.75a20.91,20.91,0,0,0-17.48,2.53C151.38,408.3,159.11,407.21,164.81,410.75Z" transform="translate(-0.88 -15.88)"/><path d="M29.39,325.44c2-.05-4.08-6.59,2.07-5.35a2.26,2.26,0,0,1,1.81,2.56C33.15,325.94,30,325,29.39,325.44Z" transform="translate(-0.88 -15.88)"/><path d="M152.55,423c5.48.45,10.89.87,15.73-2.45C163.55,424.55,158.45,426.34,152.55,423Z" transform="translate(-0.88 -15.88)"/><path d="M325.24,498.94c1.31.06,2.84-.18,2.68,1.92s-1.82,2.08-3.31,2-3.39-.48-3.11-2.38S323.79,499.07,325.24,498.94Z" transform="translate(-0.88 -15.88)"/><path d="M236.4,25.13c.45,3-3.87,1.27-2.72,3.49,1.57,3,4-1.14,6.33.08-1.41,3.54-4.1,2.7-6.57,2.2-1.37-.27-2.53-1-2-2.78C232.16,25.68,234,25.09,236.4,25.13Z" transform="translate(-0.88 -15.88)"/><path d="M264.38,393.5c-3.9-3.81-8.84-1.59-13.28-2.54C255.76,387.9,260.33,388.67,264.38,393.5Z" transform="translate(-0.88 -15.88)"/><path d="M788.82,96.09c1.58.15,3.28.08,3.11,2-.2,2.14-2.14,1.61-3.55,1.7s-2.79-.42-2.53-2.19C786.13,95.61,787.91,96.42,788.82,96.09Z" transform="translate(-0.88 -15.88)"/><path d="M865.3,55.14A3.41,3.41,0,0,1,861.76,57c-1.14-.21-3.29-.78-3-1.7.51-1.73,2.54-2.42,4.36-2.46C864.33,52.81,865.13,53.73,865.3,55.14Z" transform="translate(-0.88 -15.88)"/><path d="M221.85,382.87c-4.6,3.93-10.48,4.5-14.32,1.26C212.57,386.45,217.16,384.15,221.85,382.87Z" transform="translate(-0.88 -15.88)"/><path d="M127.8,450.18c-5.17,2.62-9.12-.9-13.22-.74C118.68,449.38,122.83,448,127.8,450.18Z" transform="translate(-0.88 -15.88)"/><path d="M757.71,147.4c1.4.21,2.57,1,2.49,2.49a2.43,2.43,0,0,1-2.73,2.29c-1.88,0-1.78-1.65-2-2.9C755.24,147.62,756.36,147.37,757.71,147.4Z" transform="translate(-0.88 -15.88)"/><path d="M186.35,360.07c-1-.39-3,.73-3-1.46,0-1.62,1.41-2.09,2.81-2.19a2.39,2.39,0,0,1,2.73,2.26C189.07,360.58,187.38,359.82,186.35,360.07Z" transform="translate(-0.88 -15.88)"/><path d="M211.65,437.14c-5-1.05-9.44-1.61-15,.82A13,13,0,0,1,211.65,437.14Z" transform="translate(-0.88 -15.88)"/><path d="M748.53,86.89c1.45.06,2.74.3,2.73,1.73,0,1.87-1.5,2.31-3.07,2.35-1.19,0-2.38-.11-2.4-1.69C745.76,87.24,747.3,87.08,748.53,86.89Z" transform="translate(-0.88 -15.88)"/><path d="M846.59,78.57c1.12.28,2.83-.34,2.66,1.48-.22,2.18-2,2.43-3.78,2.19-1.16-.15-3.28.6-3.11-1.34C842.56,78.57,844.91,78.78,846.59,78.57Z" transform="translate(-0.88 -15.88)"/><path d="M295.06,468.2c2.22-1.76,3.19-3.83,5.61-2.26.69.46,1.64,1.23,1,1.95C300.1,469.6,298.12,468.88,295.06,468.2Z" transform="translate(-0.88 -15.88)"/><path d="M24.82,325.62c-3-.45-3.84-2.5-3.77-4.65,0-1.16,1.88-1.8,3.11-1.84,1.41-.05,1.17,1.28,1.09,2.24C25.15,322.67,25,324,24.82,325.62Z" transform="translate(-0.88 -15.88)"/><path d="M524.19,758.55c-.73,4.14-4.38,7-7.14,10.42-.82,1-1.94,1.77-2.51,3-2.84,6.32-9.24,11.46-13.76,10.55-9.17-1.84-15.66-5.68-17.86-14.09a7.16,7.16,0,0,0-.83-2.31c-4.88-6.9-1.13-12.45,3.6-16.8,4.15-3.82,8.34-7.9,13.59-10.44,4.36-2.11,8.27-.91,11.24,2.38a40.05,40.05,0,0,0,8.19,7C522.12,750.52,523.8,753.92,524.19,758.55Z" transform="translate(-0.88 -15.88)"/><path d="M581.55,762.22c1.25,5-.71,8.74-4,12.22a77.2,77.2,0,0,0-6.62,8.67c-1.68,2.31-3.51,2.36-6.07,1.29-5.12-2.13-9.18-5.89-13.9-8.62-2.29-1.32-3.4-4.12-4-6.72-1.89-8.63,4.1-23.23,11.31-28.08a6.08,6.08,0,0,1,4.75-1c6,1.25,11.57,2.5,14.57,9.15C579.53,753.45,583.23,757,581.55,762.22Z" transform="translate(-0.88 -15.88)"/><path d="M520.69,828.73c-.93-4,2.47-6.15,3.42-9.26,1.49-4.89,3-9.77,4.58-14.63a12.18,12.18,0,0,1,3.19-5.56c1.75-1.55,3.92-2.89,6.3-2.27s3.19,3,3.45,5.1c1.16,9.15,6,16.7,10.65,24.23,1.54,2.48,2.29,4.59.51,6.74s-3.9,1.1-5.77-.18c-3.17-2.15-5.11-1.25-6.4,2.23-1.16,3.09-2.59,6.09-4,9.08-.67,1.45-1.88,2.55-3.53,2.22-1.87-.38-2.64-2-2.6-3.78a17.11,17.11,0,0,1,.69-5.37,4.53,4.53,0,0,0-.69-5c-1.63-2-3.47-.94-5-.29C521.83,833.52,520,832.92,520.69,828.73Z" transform="translate(-0.88 -15.88)"/><path d="M437.42,714.51c-2.61,6.33-2.38,13.28-4.28,19.79-.73,2.48,1.15,3.61,3.49,3.7,1.47.06,2.61.25,2.57,2.14-.05,2.16-.33,4.9,2.69,5,3.36.11,6.77-.77,8.27-4.31.69-1.6.92-3.74,3.08-2.49,1.79,1,1.57,3.77.37,4.88-3.55,3.28-4.89,8.08-8.76,11.23-7,5.68-13.53,4.57-16.33-3.89-2.24-6.78-5.26-13.68-.81-21,1.53-2.54-.4-6.32,1.62-9.13s3.47-6.65,8.18-5.77Z" transform="translate(-0.88 -15.88)"/><path d="M528.83,743.67c-5.77-8-14-12.87-22.14-17.79-5-3.06-10.1-2.34-15.5.36-10.35,5.16-15.47,13.8-18.31,24.39-.48,1.79-1.23,3.83-3.59,3.32s-1.18-2.73-1.36-4.2c-.66-5.43,2.5-9.58,5.26-13.59,4-5.86,9.71-10.33,15-15.07a9.87,9.87,0,0,1,10.05-2c7.75,2.51,15.39,5.47,22,10.1C524.77,732.39,528.65,737.13,528.83,743.67Z" transform="translate(-0.88 -15.88)"/><path d="M500.41,801.75c-9.19-1.82-18-4.45-23.77-12.76-1.24-1.77-2-4.12-.55-5.45,1.82-1.65,4.15.14,5,1.74,4.29,8.09,12.83,8.75,20,11.9,1.39.61,2.84,1.1,4.29.18,6.82-4.34,15.47-5.46,21-12.05.61-.73,1.53-1.57,2.45-.45a2.5,2.5,0,0,1,0,2.81c-3.86,7.6-10.53,11.34-18.52,12.49C507,800.63,503.91,802.34,500.41,801.75Z" transform="translate(-0.88 -15.88)"/><path d="M594.15,761.26c-.1,8.3-5.27,14.72-8.38,21.88-1.36,3.13-3.68,5.86-5.7,8.67-6.87,9.55-14.47,10.71-24.62,4.52-2.65-1.61-4.89-3.87-7.88-5a4.91,4.91,0,0,1-3.14-3.64c-.22-1.06-.66-2.49.66-3.12s1.47.87,2.12,1.51c4.69,4.55,8.86,9.63,16.56,9.42,10-.28,16.21-5.2,19.42-15,2.55-7.78,6.55-15.08,7.19-23.46a1.87,1.87,0,0,1,2-1.79c1.29,0,1.68.9,1.73,2C594.19,758.59,594.15,759.93,594.15,761.26Z" transform="translate(-0.88 -15.88)"/><path d="M381.62,724c-3-.76-2.74-2.74-2-4,3.1-5,3.25-12.11,10.05-14.59.58-.21.95-.92,1.49-1.3,1.43-1,2.28-4.06,3.91-3.24,2.36,1.2-.6,3-.74,4.59-.2,2.26,1.39,3.22,2.56,4.55.82.92,1.89,1.37.53,3.14C393.2,718.7,385.19,718.1,381.62,724Z" transform="translate(-0.88 -15.88)"/><path d="M583.09,736.48c-1.35-.63-2.56-.89-3.37-1.62-8.74-7.79-18.23-7.19-28.12-2.69-1.2.54-2.77,1.36-3.27-.5s.46-4.18,2.06-4.6c3.33-.87,5.75-3.31,8.91-4.33,5.64-1.81,10.51,1,14.82,3.51C577.78,728.37,584,729.17,583.09,736.48Z" transform="translate(-0.88 -15.88)"/><path d="M382.62,777c-2.88,4.63-5.07,8.08-7.18,11.58a18.86,18.86,0,0,0-2.23,4.41c-.43,1.52-.95,3.64.67,4.58,1.95,1.15,3.21-.52,4.5-2,1.92-2.15,2.94-5.27,6.1-6.17,1,1.06.65,1.9-.19,2.65-3.72,3.25-6,7.43-7.94,11.89-.43,1-.85,2.55-2.22,2.37-1.64-.23-.93-1.86-1-2.9-.13-2,.11-3.94-1.71-5.46-1.06-.88-1.07-2.4-1.1-3.73C370.22,788.72,376,780,382.62,777Z" transform="translate(-0.88 -15.88)"/><path d="M407.27,695.75c-1-4.79-.23-7.52,3.34-9.07,2.73-1.18,2.83-3.4,1.8-5.86a2.79,2.79,0,0,1,.91-3.56,4.12,4.12,0,0,1,4.28-.14c.69.32,1.59,1.17.78,1.93-4.75,4.5-3.72,11.32-6.75,16.49-1,1.64-1.3,4.65-3.58,4.12C405.58,699.08,407.44,696.2,407.27,695.75Z" transform="translate(-0.88 -15.88)"/><path d="M387.75,756.19c-3.66,4.37-4.64,10.68-10.57,13.45a7.77,7.77,0,0,0-4.25,6.92c0,1,.11,2.29-1.32,2.14a2.13,2.13,0,0,1-1.75-2.61c.32-1.58.77-3.44,1.84-4.52C376.89,766.32,381.1,760.06,387.75,756.19Z" transform="translate(-0.88 -15.88)"/><path d="M461.88,687.9a78.71,78.71,0,0,1-5.88,6.86c-1,.94-2-.61-2.87-1.31-1-.84-1.51-1.9-.63-3s2-2.23,1.64-3.94c-.27-1.5-2.23-3.66,1.45-3.73C459,682.7,460.77,684.42,461.88,687.9Z" transform="translate(-0.88 -15.88)"/><path d="M400.53,821.48c-3.34,6.23-7.32,11.62-10.13,17.66-.74,1.59-2.18,2.86-2.5,4.74-.19,1.18-1,1.77-2.13,1.21a1.43,1.43,0,0,1-.53-2.15c4.92-6.84,6.38-16,13.83-21.15A6.31,6.31,0,0,1,400.53,821.48Z" transform="translate(-0.88 -15.88)"/><path d="M492.69,840.64a1.48,1.48,0,0,1,1.44,1.68c-.27,4.55.86,8.83,2.26,13.1a1.91,1.91,0,0,1-1.46,2.29,1.88,1.88,0,0,1-2.46-1.16c-1.25-4.6-2.65-9.21-1.77-14.09A2,2,0,0,1,492.69,840.64Z" transform="translate(-0.88 -15.88)"/><path d="M383.42,810.79c-2.92,5.42-5.23,9.71-7.56,14-.4.74-1,1.49-1.91.8-.4-.31-.74-1.45-.52-1.71C376.78,820,376.68,813.69,383.42,810.79Z" transform="translate(-0.88 -15.88)"/><path d="M424.46,694.06c1.83,2.63,5.53,2,7.29,4.67.47.72,1,1.89.19,2.15-2.76.94-5.36-.64-7.89-1.35-1.58-.45-1.08-2.86-.81-4.47C423.29,694.75,423.87,694.52,424.46,694.06Z" transform="translate(-0.88 -15.88)"/><path d="M447.75,682.52c-3.57,1-4.53,3.48-4.7,7.09a77.27,77.27,0,0,1-3.46-9c-.42-1.59,1.2-1.66,2.41-1.08C443.9,680.46,446.1,680.79,447.75,682.52Z" transform="translate(-0.88 -15.88)"/><path d="M386.56,821.64c0,5.35-3.8,9-5,13.72-.16.64-.77,1.21-1.49.79-1.09-.63-.92-1.73-.44-2.59C381.92,829.56,384.26,825.61,386.56,821.64Z" transform="translate(-0.88 -15.88)"/><path d="M410.24,838.31l-6.64,12.14c-.24-5.38,2.95-9,5.64-12.85Z" transform="translate(-0.88 -15.88)"/><path d="M437.51,714.61c.58-2.3,6.56-6.94,8.39-6.4.55.16,1.33.78,1.36,1.24.08,1.15-1,1.76-1.88,1.91-2.91.46-5.83.77-8,3.13Z" transform="translate(-0.88 -15.88)"/><path d="M400.19,721.41c-1,3-3.39,4.22-5.14,6a1.77,1.77,0,0,1-2.63-.09,1.46,1.46,0,0,1,.79-2.36C395.59,724.17,396.85,721.2,400.19,721.41Z" transform="translate(-0.88 -15.88)"/><path d="M399.72,807.61c-1.61.33-1.74-.7-1.74-1.74,0-1.58.13-3.1,2.35-2.92,1.13.09,2.44-.18,2.57,1.57C403.07,806.91,400.89,806.78,399.72,807.61Z" transform="translate(-0.88 -15.88)"/><path d="M465,880.73c2.18,1.43,3.17,3.26,2.44,5.42-.3.89-2,.85-2.68.23C462.51,884.37,465.07,882.68,465,880.73Z" transform="translate(-0.88 -15.88)"/><path d="M866.77,566.5c4.08,0,7.58-.46,9.87,3.31s1.76,7.07-2.1,9.27c-3.48,2-13.17,1.08-16.24-1.53-4.35-3.68-3.5-8,1.76-10.24C862.53,566.24,865,566.79,866.77,566.5Z" transform="translate(-0.88 -15.88)"/><path d="M825.34,557.82c3.57.23,8.58-.85,10.15,5.13.77,3-.36,5.45-3.46,5.85-3.46.45-6.81,1.1-10.57.57-4.23-.58-5.63-2.56-5.46-5.7.19-3.57,1.73-6.88,6.58-5.87A17.85,17.85,0,0,0,825.34,557.82Z" transform="translate(-0.88 -15.88)"/><path d="M881.54,793.57c-3.53-1.92-5.63-3.91-4.36-7.61.36-1.07,1.42-2.26,2.65-1.36C883,786.89,881.15,790.12,881.54,793.57Z" transform="translate(-0.88 -15.88)"/><path d="M577.43,495.51c-.3,1.29-1.12,2-1.83,1.87-7-.95-12,4.43-18.29,5.62-2,.38-3.17,1.24-2.28,4.22,4,13.25-4.88,26.24-18.53,28-3.58.46-7.18,2.46-10.59,2.09-8.8-.94-17.49,1.07-26.38-.25-7.88-1.17-13.14-5.75-18.9-10-2.82-2.1-4.23-4.56,0-6.87.59-.33,1.14-.69.91-1.51s-1-.85-1.59-.9c-1-.08-2-.06-3-.07-2.67,0-5.35.17-8-.07-6.07-.55-7.22-2.57-4.7-7.83,4.12-8.58,12.13-12.56,21.39-11.05,3.57.58,7.25.36,10.81,1.4,2.33.69,4-.43,5.26-2.63,2.06-3.57,5.2-4.65,9.49-4.94,14.29-1,27.91,3,41.82,4.75,6.5.83,12.87.88,18.69-2.79C574,493,575.63,494.73,577.43,495.51Zm-39.38,18.67a17.93,17.93,0,0,0-5.62,2.1,23.6,23.6,0,0,1-8.47,2.55c-1.84.22-4,0-4.24,2.39-.22,2.6,2.31,2.94,4.1,3.54a4.76,4.76,0,0,0,3.37,0A71.86,71.86,0,0,1,545,518.67c2-.41,3-2,3.75-3.68.49-1.08.89-2.31-.16-3.2s-2.18-.25-3.17.39C543.58,513.38,542.07,515.52,538.05,514.18Zm-.77-12.75c2.23,0,4.05.09,5.87,0,1.17-.08,3.11.54,3.07-1.41,0-1.56-1.76-.95-2.81-1.09-8.56-1.15-17.13-2.26-25.68-3.47-1.65-.23-3.05-.32-3.42,1.68s.52,3.28,2.69,3C524,499.31,530.74,501.82,537.28,501.43Zm-33,25.66c2.78-.68,5.29-1.37,7.85-1.87,1.53-.3,3.74.37,3.38-2.28a3,3,0,0,0-4.07-2.51c-2.58.89-5.17.76-7.78,1-1.69.18-4.29.66-3.89,2.82C500.09,526.09,502.41,527,504.28,527.09Z" transform="translate(-0.88 -15.88)"/><path d="M474.07,373.38c1.9-2.68,4.75-2.92,7-4.16,11.67-6.31,23.12-13.06,35-18.92,8.72-4.29,16-10.58,24.13-15.56s17.77-5.61,27-4.45c8.66,1.08,17.17,3.46,25.69,5.48,1.14.27,3.73-.17,3.24,2-.39,1.78-2.61,1.06-4,.91-12.07-1.35-24.14-.63-36.22-.24-3.74.13-6.45,1.65-9.08,4.36-8.65,8.92-16.86,18.6-28.59,23.66-12.34,5.33-24.89,10.34-38.89,8.63A12.54,12.54,0,0,1,474.07,373.38Z" transform="translate(-0.88 -15.88)"/><path d="M566.15,400c-3.62.16-7.07.41-10.33-2.14-3-2.3-4.69-4.4-3.15-8.29,1.06-2.67-.09-3.92-2.91-2.94-10.22,3.58-20.16,7.64-27.09,16.6-1.1,1.43-2.65,2.73-4.13,1.26-1.22-1.22.75-2.18,1.46-3.18,7.27-10.29,17.41-15.28,29.6-18.08,9-2.07,18.07-1.71,27-3.1,2.11-.33,4.32.11,6.24-1.22.4-.27,1.16-.66,1.35-.5,5,4.06,9.54-.6,14.29-.69,1.68,0,4.83-1.06,3.65,3.09-.55,1.92,1.1,1.6,2.21,1,3.36-1.76,6.69-1.39,10.48-.12-2.87,2.85-6.4,3.4-9.59,4.41a15.28,15.28,0,0,0-8.72,6.21c-8.3,12.76-21.29,12.35-34.31,12.35,2.26-.95,6-.54,3.79-4.79a13.16,13.16,0,0,0,7.29-.9c3-1.12,5.9-2.69,5.73-6s-1.52-6.67-5.92-7.42a22.06,22.06,0,0,0-12.8,1.4c-2,.87-4.13,1.39-4.11,4.24a6.15,6.15,0,0,0,3.24,5.78C561.59,398.17,563.91,399,566.15,400Zm12.51.1c7.77-.87,10.72-6.15,14.82-9.76,1.4-1.24.64-2.16-.86-3-2.54-1.35-5.33-1.69-8-2.28-2.14-.47-3.43.81-2.77,2.79C583.23,392.23,582.07,395.91,578.66,400.11Z" transform="translate(-0.88 -15.88)"/><path d="M519,381.27c19.45-9.93,39.15-12.72,59.9-8.7-3.32,0-6.65.16-9.95,0a79.15,79.15,0,0,0-24.53,2.66c-4.07,1-7.34,3.81-10.74,6.15-5.32,3.64-10.65,7.32-14.94,12.24-.59.69-1.3,1.9-2.36.88s0-1.8.65-2.5c2.46-2.43,4.45-5.35,7.63-7,1.61-.84,3.76-2.24,3-3.94-.95-2.19-2.74.55-4.28.36C522.32,381.23,521.46,382.78,519,381.27Z" transform="translate(-0.88 -15.88)"/><path d="M482.84,483.54c-8-1.76-16.2-3.37-23.27-7.83-5.53-3.49-7.44-10.39-5.21-16.61,2.39-6.65,5.48-13.1,4.93-20.5-.38-5.12-2-9.91-3.05-14.93a22.73,22.73,0,0,1,5.35,14.19c.37,7-1.87,13.83-3.86,20.37-3.8,12.45,3.06,17.12,14.43,20.55C475.94,479.92,479.86,480.4,482.84,483.54Z" transform="translate(-0.88 -15.88)"/><path d="M508.91,334.49c10.74-7.91,22.26-13.16,35.67-12.9C532.33,325,520.52,329.69,508.91,334.49Z" transform="translate(-0.88 -15.88)"/><path d="M510.21,343.26c11.27-7.7,22.86-14.7,36.89-16.24C534.19,331.09,522.42,337.63,510.21,343.26Z" transform="translate(-0.88 -15.88)"/><path d="M517.25,469.55c-7-.44-13.25,2.17-19.68,4.07-1.17.35-2.91.83-3.22-1.07-.2-1.24,1-2.05,2.24-2.25C503.42,469.12,510.26,468.28,517.25,469.55Z" transform="translate(-0.88 -15.88)"/><path d="M392,398.16c-3.29,1.56-6.17,3.3-9.28,4.3s-4.69,4-7.81,5.56C377.47,401.87,384.67,397.79,392,398.16Z" transform="translate(-0.88 -15.88)"/><path d="M527.32,456.38c3.58,2.17,6.28,3.71,6.82,7.23.14.91.36,2.14-1,2.39-1.11.2-1.18-.9-1.54-1.58C530.35,462.09,529.11,459.77,527.32,456.38Z" transform="translate(-0.88 -15.88)"/><path d="M407.82,397.07c-4.45,2.2-7.78-.15-11.12,0A21,21,0,0,1,407.82,397.07Z" transform="translate(-0.88 -15.88)"/><path d="M499.86,407.5c-1.07,4.76-1.28,8.74,4.08,10.49C496.47,416.56,495,413,499.86,407.5Z" transform="translate(-0.88 -15.88)"/><path d="M494.79,229.25c2.22-.57,4.43-1.18,6.66-1.68s5.78.64,5.92-2.22a21.6,21.6,0,0,0-2.38-11c-.25-.5-1.46-.73-2.22-.7-5.8.24-11.61.17-17.41.39-6.27.23-3.63-6.65-5.74-10-1.81-2.85,1.84-3.06,3.89-2.86,5.21.52,10.19-1.17,15.32-1.38,1.95-.08,3.42-1.29,2.48-3.27s-.16-4.38-1-6.32c-2-4.49-.14-5.47,4.12-5.44s8.65.7,12.9-.59c1.61-.49,2.54.38,2.95,1.85s.71,2.9,1.07,4.35c1.86,7.41,1.87,7.5,9.34,6.83,3.6-.32,7.24.19,10.84-1,1.46-.46,4.13-1.07,4.82,1.2,1,3.42,3.09,7.41,1.43,10.43-.92,1.66-5.43,1.6-8.35,1.8s-5.95,1.17-8.82,1.17c-5.64,0-4.87,2.9-3.78,6.45,1.95,6.38,1.68,5.69-4.25,7.81-5,1.8-10.14,2.46-15.13,3.9C503.11,230.33,498.89,229.45,494.79,229.25Z" transform="translate(-0.88 -15.88)"/><path d="M809.26,243.19a22,22,0,0,1,8.58,4.81c3.49,2.84-1.31,6.12.39,9.13a2.88,2.88,0,0,1-2.19-.2c-4.64-3.68-9.24-7.42-14-11.28,2.41-1.13,3,1.26,4.43,1.69,1.64.5,3.29,2.72,4.92,1C812.82,246.78,810.23,245.62,809.26,243.19Z" transform="translate(-0.88 -15.88)"/><path d="M336.5,744c-2.6-3.59-4.51-6.44-9.11-4.23-1.61.78-1.74-1-1.78-2.11-.06-2.26,0-4.52,0-7.49-3.13,2-5.12,3.41-6.17,6-1.23,3-4,5.65-6.81,4.7-3-1-7.15-1.61-8.4-6-1.56-5.54-2.83-5.86-7.43-2.55-2.49,1.8-5.58,2.86-7.95,1.46a11.36,11.36,0,0,1-5.78-8.78c-.16-2,0-4,0-6,0-1.41.47-3.32-1.71-3.53-1.83-.18-3.82-.92-5.12,1.69s-2.86,5.27-3.14,8.29c-.23,2.43-1.3,4.06-3.72,3.48s-1.25-2.68-.81-4.12a15.14,15.14,0,0,0-.52-11.11,15.11,15.11,0,0,1-1.14-4.8c-.11-1.2-.59-2.89,1.16-3.4s2.09,1,2.55,2.26c.89,2.55,2.65,3.5,5,1.87,2.19-1.52,3.82-1,4.75,1.16,1.58,3.72,3.68,2.48,5.8.81,5.05-4,9.81-3.11,13.07,2.47a36.87,36.87,0,0,0,2.16,3.91c1.39,1.84,2.93,3.35,5.19.79.78-.87,1.77-2.44,3.28-1.4a3.88,3.88,0,0,1,1.29,4.07c-.43,2.1-1.26,4.11-1.84,6.18-.79,2.85-1.72,6.35,1.76,7.55,3.69,1.26,5.15-1.84,5.85-5.06a16.42,16.42,0,0,1,1.25-4.25c1-1.91.43-7.26,5.06-2.67.91.9,2.15.28,3.18-.46,2.72-1.95,5.94-1.33,8.69-.71s5.47,3.37,3.75,6.29C335.9,733.2,334.21,738,336.5,744Zm-40.89-22.25c.39-3.12-1.05-6-3.79-5.92a5.27,5.27,0,0,0-5.12,5.94c.26,3-.38,6.23,4.28,6.15C295.34,727.83,295.24,724.64,295.61,721.74Zm33.59,5.65c-.13,2.87,1.5,4.68,4.09,4.62,2,0,3.51-1.87,3.48-4.19a4.59,4.59,0,0,0-4.14-4.83C329.74,722.67,329.23,725,329.2,727.39Z" transform="translate(-0.88 -15.88)"/><path d="M78.66,755.36c-4.66-4.78-5.25-10.2-5.47-15.58-.27-6.65.45-13.36-.16-20-1.09-11.73,7.9-17.2,17.71-18.26,6.28-.68,11.2,2.67,16.66,4.35,7.1,2.18,14,5,21,7.6a23.84,23.84,0,0,0,9.2,1.93,10.36,10.36,0,0,1,4.22,1.29c1.77.8,1.5,2.44,1.13,3.89a2.23,2.23,0,0,1-3.11,1.64c-9.61-2.83-19.56.29-29.32-1.73-3.74-.77-4.72-3.17-6.36-5.39-3.09-4.15-9.77-6.61-13.55-4.27-5.81,3.61-10.16,8.7-11.26,15.55-1.42,8.84-3.71,17.79-.21,26.72C79.26,753.51,78.94,754.08,78.66,755.36Z" transform="translate(-0.88 -15.88)"/><path d="M170.41,710.29c-6,0-9.09-3-9.81-9.31-.19-1.61.37-3.36-1-4.76s-2.49-2.91-4.22-.35a20.25,20.25,0,0,1-2.82,2.81c-2.57,2.49-6,4.4-8.94,2.31-3.1-2.21-7.3-4.34-6.9-9.56.25-3.34.57-6.7,2.67-9.32,2.34-2.9,5.63-5.25,9.42-4.59,4.32.76,6.24,4.68,7.62,8.48,2.12,5.85,3.14,6.52,8.32,3,4.28-2.94,7.79-2.69,11.57.52,2.9,2.44,5,9.13,3.75,12.74C177.54,709.8,176.92,710.31,170.41,710.29Zm-4.9-11.2c-.26,3.57.29,6.34,4.82,6.38,4,0,5.17-2.34,5.21-5.66.05-3.55-1.35-6.27-5.38-6.21C166.73,693.66,165,695.57,165.51,699.09ZM151,689.52c-.62-2.77.42-6.78-4.24-6.54-4.21.21-4.59,4.07-4.79,7s2,5,5,5.15C150.91,695.26,150.63,692.05,151,689.52Z" transform="translate(-0.88 -15.88)"/><path d="M227.51,719.81c-3-4.41-6.29-4.91-11.27-3.71-2.91.71-8.88,1.78-9.76-4.78-.25-1.88-2.19-2.36-4-2.28a3.24,3.24,0,0,0-3.28,3.12c-.15,1,.47,2.64-1.31,2.61s-2-1.54-2.1-2.89c-.53-5.56.9-10.83,2.64-16,.5-1.45,1.77-3.44,4.16-2.53,2.84,1.08,6.42,1.38,6.56,5.61.07,2.15-.05,4.31,0,6.47,0,1.43-.31,3.25,1.8,3.52,1.94.25,4,.66,5.28-1.62,1.41-2.59,3-5.09,4.24-7.78.69-1.51,1.44-2.61,3.1-2.8,1.81-.2,2.09,1.47,2.63,2.54C229.53,705.79,228.77,712.59,227.51,719.81Zm-20.66-19.9c-.41-1.64-.47-4.52-3.51-4.45-2.38,0-2.88,2.42-2.88,4.52,0,2.44.76,4.14,3.69,4.18S206.86,702.38,206.85,699.91Zm15.27,4.46c-1.77.17-2.31,1.7-2.61,3-.38,1.78.8,2.72,2.51,2.9s2.2-1,2.23-2.47S224,704.89,222.12,704.37Z" transform="translate(-0.88 -15.88)"/><path d="M234.3,717.13c-1.38-3.85,1.87-7.26,2.92-11.17.61-2.27,6.72-2.63,9.43-.87,3.53,2.29,5.8,9.08,4.47,13.35-1.64,5.28-5.73,8.31-11,8.12C234.63,726.36,234.24,725.77,234.3,717.13Zm5,1c.67,1.22-1.68,4.19,1.45,4.83a4.05,4.05,0,0,0,4.86-3.21,12.53,12.53,0,0,0,.21-5.84c-.38-1.75-.11-3.72-2.88-3.63-2.6.1-3.35,1.75-3.61,3.86A36.39,36.39,0,0,0,239.28,718.17Z" transform="translate(-0.88 -15.88)"/><path d="M126.19,686.27c-.88-4.18-1.12-6.94.91-9.37s0-4.34-.79-6.39c-.64-1.56-1.56-3.32-.09-4.61s3.63-.7,5,.56c2.32,2.11,6.08,4.09,1.64,7.84C129.56,677.11,128.89,681.63,126.19,686.27Z" transform="translate(-0.88 -15.88)"/><path d="M637.62,749c4.19-2.5,6.43-4.89,6.2-8.88,0-.57.29-1.58.67-1.7,4.47-1.39,5.69-4.58,7-9,1.71-6,7.51-7.11,12.72-3.78,2.13,1.36,4.62,2,6.22-.38,1.89-2.82,3.28-2.48,5.43-.41,2.32,2.23,4.82,3.26,6.64-.77.47-1,1.2-2.15,2.64-1.84s1.32,1.64,1.7,2.73c1.53,4.34,1.18,8.81,1.18,13.26,0,1.12.27,2.46-1.13,3s-2.25-.1-3.12-1c-.59-.58-1.17-1.18-1.77-1.76-4.05-3.9-4.27-3.87-6.6,1.41-.61,1.39-1.72,3.58-2.94,2.34-3.4-3.47-5-.36-7.4,1.12a32.13,32.13,0,0,1-6.85,2.88c-1.65.54-2.92.18-4.22-1.51-4-5.27-4.66-5.1-9.06.29C643.33,747,641.6,748.85,637.62,749Zm20.69-8.69c3.12,0,5.6-1.82,5.69-4,.13-3-3.15-7.34-5.66-7.25-4.09.15-3.78,3.51-4.09,6.18C653.9,738.31,654.83,740.6,658.31,740.35Z" transform="translate(-0.88 -15.88)"/><path d="M780.69,807.27c-.33-3.19.16-5.56,2.38-7.25a10.29,10.29,0,0,0,3.47-5.91,6.62,6.62,0,0,1,3.84-4.82c4-1.78,4.37-6.81,8.13-8.81,1.16-.61,2.18-1.9,3.52-1.47,1.73.54.76,2.25.92,3.45a18.41,18.41,0,0,0,.08,2.48c1.65,5.56,1.63,9.82-6,10.32-3.43.23-3.35,3.29-2.4,5.81a9.06,9.06,0,0,1-2.25,10.46c-3.21,3.18-6.57.45-9.82,0C779.55,811.11,781,808.43,780.69,807.27Z" transform="translate(-0.88 -15.88)"/><path d="M710.68,729.18c0,2.28.91,4.72-1,5.51s-3.59-1.05-5.12-2.27c-1.13-.89-2-2.43-3.82-1.43-1.59.86-1.4,2.43-1.68,3.9s1.23,4.1-1.57,3.65c-1.85-.3-4-2.07-2.74-4.88,1.72-4-1.53-7.71-.5-11.67.31-1.2-.71-2.81.74-3.64s2.77,0,4,1c3,2.67,5.55,3.08,6.46-1.8.25-1.32.69-2.23,2.15-2.19,1.72.06,1.76,1.41,1.57,2.53C708.45,722,711.33,725.63,710.68,729.18Z" transform="translate(-0.88 -15.88)"/><path d="M717.31,725c.24-4.37.5-9,.74-13.56.07-1.43.46-2.75,2-3a4.47,4.47,0,0,1,4.4,1.76,114,114,0,0,1,6.81,12c1,2,1.31,4.55-2.71,3.29-2-.63-4.22-.69-5.74,1.61-1.13,1.7-2.25,4.37-4.72,3.45S718.17,727,717.31,725Z" transform="translate(-0.88 -15.88)"/><path d="M775.41,790.63c-3.78.55-5-2.18-5.2-5.69-.27-4.08,3.76-9.35,7.12-9.49,2.72-.11,6.66,3.67,6.59,6.34C783.83,784.85,778.69,790.55,775.41,790.63Z" transform="translate(-0.88 -15.88)"/><path d="M837.62,765.2c-1.3-10,6.53-17.56,5.61-27.18-.12-1.2.68-3.49,2.23-3.41,2.12.11,1.07,2.33,1.34,3.65,1.84,8.91-2.83,16.3-5.72,24.08C840.54,763.79,839.44,765.3,837.62,765.2Z" transform="translate(-0.88 -15.88)"/><path d="M754.35,707.1c2.91-.11,5.73,2.67,7.4-1.21,1.32-3,.06-9.9-2.22-11.39-1.31-.86-1.92-.54-6.73,3.63-1.24-3.2-2.17-5.88,1.76-7.94,3.74-2,6.64-1.21,8.19,2.5,3.34,7.94,4.65,13.12-1.08,17-1.57,1.08-2.5,3.76-4.82,2.87C754.86,711.84,754.93,709.4,754.35,707.1Z" transform="translate(-0.88 -15.88)"/><path d="M776.83,678.54c-.07-1.72,0-3.49,1.88-4.19,1.21-.45,2.79-.72,3.75.34,1.17,1.3.22,2.81-.26,4.19-.89,2.53-2.5,5.29,2.37,5.31,2.11,0,2.51,1.51,1.78,3.12a12.16,12.16,0,0,0-.89,4.82c0,1.09,1.47,2.81-.83,3.17a2.83,2.83,0,0,1-3.22-1.77C779.31,688.71,777.09,683.92,776.83,678.54Z" transform="translate(-0.88 -15.88)"/><path d="M838.45,669.76,831,671.07c-1.12.19-2.4.68-2.87-.92-.43-1.43.36-2.09,1.7-2.44,2-.52,2.44-2,2.26-3.87-.19-2-1.61-2.23-3.22-2.33-1.28-.08-2.86.09-3.07-1.78s1.17-2.64,2.24-3.67a2.51,2.51,0,0,1,3.62-.06c2.48,2.18,6,3.62,5.3,8.14C836.66,665.88,837.88,667.83,838.45,669.76Z" transform="translate(-0.88 -15.88)"/><path d="M630.26,737.46a19.09,19.09,0,0,1,6.67-11.41c2.14-1.68,4.54-.78,5.88,1.56.57,1,1,3.14-1.19,2.83-3.09-.45-5.11.16-6.35,3.2-1.33,3.23-1.67,6.38-.1,9.58.68,1.38,2.74,3.08.69,4.15-1.7.89-2.55-1.39-3.19-2.93C631.78,742.31,630.33,740.38,630.26,737.46Z" transform="translate(-0.88 -15.88)"/><path d="M776.65,702c0,1.22-.27,2-1.2,2.29a1.87,1.87,0,0,1-2.1-.89,11.27,11.27,0,0,1-2.62-6.3A22.63,22.63,0,0,0,768.9,689c-.77-1.74-.47-3.12,1.09-3.61s1.28,1.39,1.84,2.25C774.79,692.11,774.83,697.52,776.65,702Z" transform="translate(-0.88 -15.88)"/><path d="M849.57,709.6c-5.89-1.78-7.56-6.41-11-8.9-.53-.39-.06-1.25.74-1.41,1.39-.27,2.85-.18,3.45,1.25C844.1,703.67,847,705.54,849.57,709.6Z" transform="translate(-0.88 -15.88)"/><path d="M818.52,795.29c-1.27,1.9-1.17,5-4,5.69-1.78.43-1.73-1.59-1.35-2.37,1-2,0-5.31,3.45-5.58C817.91,792.93,818.78,793.67,818.52,795.29Z" transform="translate(-0.88 -15.88)"/><path d="M708.22,523c2.77,3.86.89,6-1.06,8.76-6.26,8.91-11.91,18.24-18,27.29a120.75,120.75,0,0,1-9.95,12.67c1.06-4.49,3.91-7.8,6.49-11.37,1.31-1.81,6.25-3.67,1.46-7-.21-.15-.17-1,.06-1.35C694.17,542.36,701.14,532.78,708.22,523Z" transform="translate(-0.88 -15.88)"/><path d="M698.44,530.39c6.76-10.61,12.6-21.72,20.43-31.51.55-.69,1.47-1.82,2.44-.79s-.44,1.44-.94,2.19c-4.63,6.84-9.08,13.81-13.67,20.69C704.37,524.46,702.43,528.31,698.44,530.39Z" transform="translate(-0.88 -15.88)"/><path d="M198.85,785c-.78,2-.5,4.29-2,6-1.85,2.12-3.93,4-6.85,2.56S187.48,789,188.3,787c1-2.67,3.2-5,5.09-7.22.79-1,2.17-.78,3.23-.06C198.51,781,198.23,783.15,198.85,785Z" transform="translate(-0.88 -15.88)"/><path d="M220.51,784.56a15,15,0,0,1-.79,4.71c-.79,2.55-2,4.3-4.9,3.56s-3.11-3-2.45-5.52c.28-1.11.37-2.27.62-3.39.47-2.15-1.09-5.83,2.95-5.5C219.36,778.7,221,781.33,220.51,784.56Z" transform="translate(-0.88 -15.88)"/><path d="M201.91,811.61c2.66-1.94-.84-6.59,3.33-8.27.46-.19,6.54,8.62,6.4,9.28-.35,1.69-2.49,3.2-2.94,2.3C207.11,811.73,201.57,818.48,201.91,811.61Z" transform="translate(-0.88 -15.88)"/><path d="M178.39,772c2.4,4.78-.95,7.88-2.12,11.38-.3.87-1.5.67-2.2.21a2.71,2.71,0,0,1-.77-3.59C174.71,777.33,176.52,774.87,178.39,772Z" transform="translate(-0.88 -15.88)"/><path d="M789.33,594.7a46.15,46.15,0,0,1-18.12-16.47C779.12,581.61,783.91,588.54,789.33,594.7Z" transform="translate(-0.88 -15.88)"/><path d="M568.75,387.66c3-.16,6.09.42,6.38,3.88.31,3.68-3.16,4.11-5.83,4.66a7.67,7.67,0,0,1-5.71-1c-.52-.33-1.36-.29-1.37-1.17a2.55,2.55,0,0,1,.25-.87C567.18,394.29,563.78,386.18,568.75,387.66Z" transform="translate(-0.88 -15.88)"/></g></g></svg>