<svg xmlns="http://www.w3.org/2000/svg" viewBox="0 0 682.93 861.31"><title>everything</title><g id="Layer_2" data-name="Layer 2"><g id="Layer_1-2" data-name="Layer 1"><path d="M742,139.65c-5.9-.53-9.49-5-14.14-6.89-6.86-2.79-12.69-7.17-18.75-11-9.91-6.22-20.32-11.88-29-20-3.21-3-8.24-4.23-10.89-7.52-3.6-4.46-8.41-6.44-12.9-9.25a4.76,4.76,0,0,0-3.76-.83c-8,2.1-15.86,3.5-22.93,9.05a268,268,0,0,1-23.88,16.34c-11.52,7.17-24,13.37-32.38,24.88-3.17,4.37-4.94,9.26-6.54,14.27a232.15,232.15,0,0,0-7.92,34.75c-.5,3.2-.06,6.34.21,9.43.65,7.49,8.4,10.9,15.6,9.09s14-3.66,20.17-7.5c9.07-5.64,16.37-12.58,19.55-23.52,1.83-6.28,3.92-12.43,5.23-18.89,1-5.15,5.68-3.37,9.14-3.32,3.69.06,2.33,3,2.37,4.85.11,4.7,2.4,6.45,6.91,8a14.61,14.61,0,0,0,14-1.86,31.22,31.22,0,0,0,7.89-8.78c1.71-2.64,3.46-5.18,5.41-7.66,2.59-3.31,6.49-4.56,9.41-2.51,3.9,2.74,3.27,4.67,1.26,9.58-2.77,6.77-10.59,11.92-7.77,20.5,1.66,5.07,1.86,10.39,2.71,15.46a185.23,185.23,0,0,0,4.12,19.16c2.73,9.65,2.12,19.74,5.65,29.25,2.36,6.34,2.8,13.46,3.59,20.28.6,5.2,3.36,9.91,2.53,15.47-1.27,8.42-.56,17-4.58,25.11-5.17,10.4-11.07,20.1-20,27.69-3.81,3.25-8.36,5.38-12.74,7.74-5.55,3-24-3.66-26.57-9.83a16.62,16.62,0,0,1-1.67-7.22,111.55,111.55,0,0,0-.7-18.45c-.16-1.33.69-3.63-1.54-3.49s-1.72,2.54-1.52,4a89.56,89.56,0,0,1,.44,17.47c-.86,14.19-4,27.66-14.35,38.37a43.81,43.81,0,0,1-8.9,7.14c-3.19,1.93-4.38,4.51-2.57,8.41,7.63,16.45,12.46,33.46,12,52-.33,13.83-.61,27.62-3.31,41.18-3.51,17.58-12,32.81-22.39,47.3-8.91,12.44-16.39,25.8-20.49,40.77a19.23,19.23,0,0,0-.61,5.91c.1,2.77.65,5.6,3.62,6.51a8.38,8.38,0,0,0,9.11-2.26c5.35-5.5,5.49-12.74,6.47-19.49.67-4.64.92-9.6-.65-14.35-.95-2.87.88-5.24,2.29-7.4,4.55-7,9.27-13.82,14.09-20.61,2.61-3.69,4.06-3.58,5.76.54a157.21,157.21,0,0,1,10.86,42.84,175.37,175.37,0,0,1,1.12,28.81,70.83,70.83,0,0,1-11.62,35c-6,9.41-5.79,11.21,4.84,13.49,11.22,2.4,20.75,8,29.73,14.65,7.5,5.58,9.26,5.1,11.15-4.23a108.22,108.22,0,0,1,4.52-16.76c1.47-3.92,3.69-5.14,8-2.43,7.66,4.83,13,11.78,18.52,18.57,13,15.82,25.41,32,37.77,48.3,8,10.56,7,21.88,6.77,33.7-.3,13.15-8.6,21.75-16.13,31-11.35,13.91-23,27.56-35.38,40.55-8.71,9.11-18.34,17-30,21.75-4.16,1.71-9,4.88-14.13,1.44-2.44-1.63-3.85-3.51-3.89-6.47-.27-19.73-1.38-39.46,2.17-59.07,2.55-14-5.27-23.61-16.56-29.23-5-2.47-10-1.07-14.44,2.45-8.56,6.86-13.08,16.23-16.31,26.33-7.45,23.3-10.48,47.66-16.73,71.22-3.55,13.36-6.84,27-14.87,38.88-5.41,8-12,15.25-21.11,17.37-13.17,3.08-27,4.61-38.52-5.89-2.23-2-5.32-2.5-7.67-4.56-5.74-5-7.33-12.22-10-18.71-6-14.43-12-28.88-15.59-44.2-1.26-5.37-.58-10.58-.54-15.87,0-2.24.72-4.52-2.73-5.35-1.76-.43-1.91-3-2.14-4.77-1.87-13.81-4.69-27.47-5.4-41.49-.34-6.72-.08-13.59-1.51-20.31s2.06-11.92,5.51-17a99.82,99.82,0,0,0,9.65-18.5c.65-1.62,1.13-3.32,3.1-3.47,2.18-.15,1.81,2,2.4,3.21,4.16,8.63,6.06,18.34,12.53,25.88,1.22,1.41,1.11,3.5,1,5.31-1.22,18.67,2.37,36.75,7.55,54.46,2.31,7.86,5.23,15.68,10.68,22.36,13,15.9,26.88,12.51,37.82,0,9.19-10.5,13-23.74,15.25-37.38,3.32-19.85,3.88-40,6-59.94,1.63-15.54,5-30.48,13-44.15a54.84,54.84,0,0,1,6.85-9.13c1.34-1.49,2-3.17,1.38-5-.72-2.09-2.7-1.59-4.3-1.53-7.28.27-13.41-2-17.89-8-.86-1.16-1.93-1.89-3.41-1.47s-1.82,2-1.71,3.26c.28,3.48,1.06,6.93,1.19,10.4a134.68,134.68,0,0,1-6.61,46.65c-3.46,10.68-9.8,19.16-16.73,27.42-9.48,11.28-21,12.38-33.77,5-14.76-8.47-21-22.11-25.88-37.33-4.52-14.19-6.46-28.7-8.36-43.37-2.09-16.09-1.65-32.19-2.49-48.28-1.25-23.89,5.42-45.63,15.15-66.91,7.79-17,18.76-32.15,27.88-48.37,2-3.62,4.54-7,6.3-10.74s3.57-3.31,6.45-1.13c8.35,6.31,16.72,12.64,25.42,18.45,9.89,6.59,10.77,10.76,3.24,20.1a186,186,0,0,0-34.29,65.93c-5,17.34-9,34.79-9,52.9,0,7.81,1.26,15.55,5.25,22.59,2.27,4,6,4.92,9.79,4.07s5.93-4,5.73-8.29c-.4-8.37-3.57-15.11-11.36-19-3.77-1.9-5.5-4.88-4.93-8.92,2.19-15.62,4.35-31.25,10.48-46,1.39-3.36,2.16-7,3.4-10.39,1.52-4.19,3.77-4.67,6.22-.86,2.87,4.43,7.54,7.61,8.91,13.06a2.06,2.06,0,0,0,2.69,1.61c1.08-.42.58-1.72.6-2.67a1,1,0,0,0-.11-.48c-6.63-10.63-2.21-21.06,1.1-31.17,5.72-17.44,14.31-33.58,23.92-49.21s19-31.29,23.19-49.34a79.5,79.5,0,0,0-.55-38.5,137.18,137.18,0,0,0-8.1-22.52c-.93-2-2-3.6-4.47-4.12-7.72-1.61-15.07-4.16-21.18-9.45-.9-.78-2-1.46-3.11-.48a3.52,3.52,0,0,0-1.06,3.67c1.22,4,2.56,7.89,4,11.76a185.14,185.14,0,0,1,10.89,48,37.45,37.45,0,0,1,0,6c-.18,2.81-1.57,3.8-3.82,1.75A230.77,230.77,0,0,1,529,393.59c-2.34-2.76-1.67-7-2.24-10.55-1.22-7.58-2.44-15.1-7.94-21.13-1.78-2-3.58-3.1-6.05-2.3s-3.58,2.82-3.83,5.71c-.92,10.56,4.67,18.48,10.34,26.3,9.21,12.7,20.8,23.24,31.71,34.39,3.12,3.2,6,6.58,9.89,9.05,3.28,2.09,3,5.53,1.37,8.48-4.15,7.58-8.55,15-12.89,22.49-1.58,2.72-3.27,3.22-5.92.81-11.57-10.53-25.1-18.52-37.2-28.36-7.57-6.16-12.55-14.54-16.92-23.21-11-21.77-17.46-45-20.81-68.94-1.88-13.55,2.2-26.42,8.57-38.36,3.87-7.26,15.52-9.73,24.09-5.64a26.2,26.2,0,0,1,7.83,5.23c.88.91,2.41,2.05,4,1.09a2.7,2.7,0,0,0,1-3.14c-2.22-9.63-.7-19.1.48-28.7.49-4-3.19-7.47-4.57-11.37-2-5.77-2.3-11.55-.12-17.18,3.3-8.48,1.09-17-6.18-23.21a16.33,16.33,0,0,1-5.43-8.37c-1.66-6.38-3.29-12.73-3-19.47.16-4.17-4.54-8-9-8.65-9.1-1.31-18.44-2.76-26.57-7.36a15.73,15.73,0,0,1-8.22-14.44c.08-13.83,0-27.66,0-41.5a19.35,19.35,0,0,1,1.42-8.19c2.54-5.78-3.69-13.81-9.81-15.28-7.79-1.87-16.07.69-23.11-1.71-9.7-3.31-19.76.59-29-3.41a2.17,2.17,0,0,0-1-.06c-14.6,1.3-29-2.42-43.56-2.06-6,.14-12-2.23-18.15-1.6-2,.2-2.52-1.45-2.37-3.07.49-5.37-1.2-10.82,1.44-16.18,1.92-3.88-1.07-7.93-5.17-9.69-4.47-1.92-9-1.91-13.6-1.71-3.24.14-4.45-.84-4.4-4.18.15-10-.06-20,.06-30,.09-7.11,2.76-8.68,9.32-5.83C322,26,328.89,21.3,329,11.72c0-3.14-.82-6.9,4.51-3.81.88.51,2.3.16,3.46.09,15.3-1,30.63.36,45.73,1.79,16.87,1.61,33.83,1.9,50.55,3.82,10.57,1.21,21.25-.26,31.42,1.92,9.72,2.08,19.39.72,29.05,1.9,6.75.83,13.59,1.85,20.58,1.74,11.54-.19,23.4,0,34.59,1.91,14.32,2.39,28.46.21,42.53,1.8,8.94,1,18.12-.17,26.68,1.63,9,1.89,17.8,1.35,26.63,1.24,6-.07,8.63,3.23,11.5,7.11,3.38,4.56,4.32,10.35,7.1,15.07,4.23,7.18,6.26,15.23,10.09,22.51,1.76,3.34,2.73,7,3.9,10.56,2,5.93,6.29,8.78,11.12,11.77,6.39,3.94,12.36,8.55,18.66,12.63,8.08,5.24,16,10.74,24.81,14.81,2.56,1.19,4.56,3.41,7.6,4,1.42.29,2.49,2,2.45,4C741.89,132,742,135.82,742,139.65ZM365.45,49.94c-2,0-4.09.38-6-.07-5.62-1.35-7.06,2.13-8.05,6.41-.95,4.09,2.41,9.51,6.23,9.65,7.61.29,15.26,1,22.78,1.12,13.39.17,26.48,4.16,39.92,2.52a2.35,2.35,0,0,1,1,.06c10.24,3.57,21,.71,31.63,3,11.44,2.51,23.65-.74,35.57,1.93,7.58,1.69,15.54.24,23.5,1.89,9.54,2,19.66-.19,29.57,1.77,6.09,1.21,12.62.31,18.94.2a45.81,45.81,0,0,1,9.68,1c2.39.49,4.91,1.29,7.44,1.31,10.16.08,20.32,0,30.48,0,2.49,0,5.32-.53,7.38.45,2.83,1.34,3.92,0,5.37-1.69,2.8-3.25,2-6.73.79-10.26-.69-2-1.42-3.32-4.12-3.29-20.77.21-41.49-.08-62.09-3.51C546.8,61,537.93,62.9,529,60.59c-7.75-2-16.3-1-24.47-1.52-17.59-1-35.14-1.87-52.72-3.57-16.66-1.61-33.45-2-50.18-3.65C389.69,50.64,377.51,50.46,365.45,49.94Zm183.41,140v-7.48c0-7.79-.38-8.83-8.2-7.75a110.47,110.47,0,0,1-22.2,1.23c-5.93-.37-8.83,3-11.26,7.27-3.51,6.17-1.59,13-1.82,19.54-.32,9.33,5.91,17.08,14.62,20.41a137.71,137.71,0,0,0,18.76,5.43A135.44,135.44,0,0,0,562.44,232c6.54.32,12.74-1.62,19.1-1.75,4.39-.09,7.38-2,10.65-4.42,4.44-3.25,3.28-8.6,5.29-12.76,1.52-3.13-4.39-8.36-7.08-6.82s-5.94,1.87-8.66,3c-7.89,3.39-15.92,3.55-24.18,3a5.13,5.13,0,0,1-4-2.18C548.45,204.1,548.32,197.13,548.86,189.9Zm-39.62-24.66c8-1,16,1.22,23.8-1.79,7.14-2.75,14.81-4.83,16.81-13.52,1.91-8.26.36-16.33-3.11-24a2.79,2.79,0,0,0-1.87-1.51c-4-.16-7.62-2.7-11.21-2.54-14.63.64-29-2.4-43.64-1.82-1.3,0-3,.23-3.83-.48-2.16-2-3.8-.09-4.69.87a21.61,21.61,0,0,0-4.46,7c-3.08,8.53-2,17.37-.69,26,.84,5.67,4.36,8.94,10.75,10.48C494.64,165.72,502,164.11,509.24,165.24Zm69.83,111.84c10.65,1.53,23-6,24.4-14.78,1-6.21,1.45-12.43-.54-18.65-2.21-6.91-3.82-8.57-10.25-7.66a72.85,72.85,0,0,0-11.08,2.17c-6,1.84-11.88,3.53-18.26,3.08-3.48-.24-7,.1-10.49-.08a65.3,65.3,0,0,1-18.63-3.28c-5.21-1.83-9,0-11.15,5-3.24,7.4-3.08,15.16-2.53,22.89.38,5.26,9.68,14.12,14.06,12.71,8.42-2.7,16.79-.76,25.14-1.17,2.77-.13,6.88-2.35,8.56,2.43.05.13.66.21.68.17C571.32,274.51,576.11,278.47,579.07,277.08ZM565.3,292.43c-4.9,5.21-4.91,5.23-11,1.06-2.84-1.94-5.31-5.06-10-2.61,4.24,4.23,9.42,6.41,14,9.31,2.86,1.8,5,.08,5.92-3C564.67,295.61,565,294,565.3,292.43Z" transform="translate(-59.05 -6.76)"/><path d="M355.86,641.51c-.61-6.71-2-12.86-2.32-19.18-.25-4.76-2.93-5.87-8.41-6.43-8.64-.88-17.18-.33-25.74-.69-16.7-.7-33.35-2.54-50.11-1.85-4.56.19-7.13-4-5-8.44,1.22-2.56,1.5-4.42.22-6.91-1-1.9-1.51-4.34.3-6a4.43,4.43,0,0,1,5.87-.64c1.09.69,2.92.24,4.42.25,12.5,0,25.08-.89,37.47.27,12.6,1.18,25.14,1,37.72,1.38,2.18,0,4.2.45,4.63-2.87,2.05-15.91,7.35-30.91,13.05-45.8.58-1.51,2.53-3.54.78-4.92s-3.79-.24-5.91.74c-6.19,2.84-9.16,7.71-11.86,13.74a35.55,35.55,0,0,1-12.62,15.5c-6.09,4-12,7.55-19.94,8.05-4.51.28-9.46,2.21-14,1.33-10.74-2.08-22.17-2.39-31.35-9.55a25,25,0,0,1-9.82-16.55A31.65,31.65,0,0,1,266,533.16c3.52-7.07,10.43-10.29,18.09-12.11,3.77-.89,7.66-1.38,11.31-2.53,8.58-2.69,11.79-1,12.37,7.67.22,3.14,0,6.2,1.31,9.26,1,2.29-.24,3.87-3,3.63-4-.34-7.08,2.08-10.59,3.19-4.06,1.29-6.51,5.18-5.78,8.15.94,3.82,5.16,6.3,9.54,6.61,7.72.55,10.87-1.32,13.75-8.52,2.73-6.83,6.18-13.49,11-18.73a36.66,36.66,0,0,1,23.14-11.85c4.26-.45,7.84-2.64,12.32-2.68,7.37-.07,14.35,1.62,21.39,2.92,2.4.45,3.21-.16,4.45-1.63a54.7,54.7,0,0,1,5.47-5.81c10.19-9.08,20.44-8.42,31.43-.87,11.41,7.84,20.84,18.06,25.67,31.66.69,2,1.27,4,.73,5.85-2.67,9.31-1.77,18.84-1.69,28.27.05,6.31-.44,12.31-4,17.63-4,5.86-7.59,12-13.18,16.6-2.94,2.44-5.2,3-7.72-.76a23.68,23.68,0,0,0-8.63-7.41,7,7,0,0,0-9.38,3.58c-.31.89-.37,1.8.5,2.17,6.23,2.65,7.78,8.75,10.15,14.08,1,2.22,1.3,2.52,3.72,1.71,9-3,14.73-9.88,20.66-16.55a64,64,0,0,0,4-5.7c.72-1,1.11-2.74,2.86-2.16,1.55.51,1.29,2.12,1.5,3.41,2,12.58,1.32,25.62,4.94,37.87,5.41,18.27-4,32.08-12.77,46a66.81,66.81,0,0,1-10,12.36c-7,6.82-16.2,7-23.38,4.21-11.67-4.61-23.3-3.83-35.12-4.65-13.52-.94-27.08-1-40.54-2-5.65-.41-11.37-1.64-17.21-1.69-.21,2.64,2,2.79,3,2.82,5.26.17,10.13,2.17,15.28,2.8,4.68.58,9.33,1.23,13.79,3,4.28,1.73,9,1,13.57,1.9,9.75,1.86,19.59,3.56,29.39,5.06,5.43.83,10.86,2.42,16.51,2.41,5.44,0,6.85,1.82,6.87,7.19a43.69,43.69,0,0,1,0,5c-.37,3.37,1.91,7.28-5.55,7.13-5.62-.11-11.92-.4-17.58,1-11.1,2.76-22.43.73-33.41,2.29-7.66,1.08-15.19.54-22.74,1.17-6.3.54-12.47,2.17-18.94,2.48,4.84,1.34,9.84,1.16,14.6,2.38a2.79,2.79,0,0,0,1,0c18.08-1.57,35.94,2.15,54,2.55,7.75.17,15.72.79,23.59,1.25,4.67.27,6.84,4.8,4.59,10.24-.75,1.82-1.53,3.06-.05,4.86,1.17,1.4.29,2.79-.84,4s-2.47,1.53-3.88.22-3.16-.85-4.78-.86c-7.34,0-14.73.61-22-.14-10.91-1.13-22.06.11-32.68-1.45-23.57-3.45-47.36-3-70.91-5.86-4.11-.5-9.28,1-12.08-1.64-2.46-2.31-.29-7.17-.17-10.91.16-4.83.12-9.67,0-14.5-.08-2.75.85-4,3.73-3.8,12.61.87,25.22-.94,37.61-2.14,10.84-1.06,21.63-.82,32.4-1.73,2.07-.18,6.05-.43,5.85-2.67-.27-3-4-1.91-6.35-2.09-6.33-.5-12.48-2-18.7-3.08-4.34-.73-8.59-1.91-12.9-2.71-9.13-1.7-18.45-2.12-27.49-4.58A56.2,56.2,0,0,0,267,703.92c-2.43-.15-3.2-1.26-3.19-3.44,0-7.5.08-15,0-22.5,0-2.22.72-3.59,3.12-3.42,10,.69,20.27-2,30.13,1.78a5.22,5.22,0,0,0,2,.17c22.28-.88,44.45,2.72,66.73,1.51,1.35-.07,3.24,1,4-.95.51-1.38-.74-2.44-1.6-3.45-.22-.25-.57-.46-.65-.74-2.57-9.09-9.56-8.21-17.09-9.06-17.81-2-35.69-.58-53.35-2.25-9.59-.91-19.1-.76-28.63-1.19-3.39-.16-4.85-1.1-4.67-4.63.22-4.49,0-9,.12-13.49.08-3.8,2.63-5.4,6.18-4.19a13.93,13.93,0,0,0,4.38.52c8.67,0,17.44-.84,26,.19,16.89,2,33.78,1.45,50.69,1.57C352.52,640.37,354,641,355.86,641.51Z" transform="translate(-59.05 -6.76)"/><path d="M122.58,520.71a1.83,1.83,0,0,0-1.12-2.12c-6.38-1.43-12-4.89-18.41-6.39s-12.42-3.73-18.57-5.81c-2.38-.8-1.5-3.1-1.5-4.78q-.06-33,0-66c0-6.17.11-12.34-.15-18.5-.15-3.48,1-4.78,4.52-4.69,8.82.22,17.66.33,26.49.19,3.21-.05,4.51.79,4.32,4.17-.24,4.49.11,9-.11,13.49-.16,3.44,1,4.7,4.54,4.59,8.42-.26,16.85-.1,25.28-.25,10.3-.18,20.44,1.94,30.77,1.68,13-.33,26,0,39-.16,3.76-.06,5,1.15,4.82,4.86-.26,4.65-.07,9.33,0,14,0,2.71-1.18,4.27-3.95,3.62-3.65-.85-7.3-.36-10.94-.38-28.33-.09-56.66,0-85-.19-3.57,0-4.71,1.15-4.5,4.6.24,4-.17,8,.14,12,.28,3.69-.86,5-4.69,4.85-7.35-.21-14.83-1-22.29,2.51a19.68,19.68,0,0,0,10.1,4.45c8.52,1.08,15.38,6.15,23.38,8.53,11.3,3.38,22.26,8.22,33.45,12.25a16.57,16.57,0,0,0,5.8,1c7.17,0,14.37.4,21.49-.17,4.07-.33,7.36,2.63,11,2,6.81-1.18,13.51,1,20.24.07,3.16-.45,4,1,3.9,4a121.6,121.6,0,0,0,0,13.5c.25,3.87-1.39,4.79-5,4.74-12.5-.18-25,.43-37.49-.26a82.75,82.75,0,0,0-34.75,5.63c-9.15,3.52-18.82,5.44-27.81,9.1s-18.7,5.73-27.64,9.73c-4.43,2-6.66.47-6.8-4.32-.1-3.49,0-7,0-10.49,0-8.77,2-12.14,10.42-13.21,5-.64,9.48-2.28,14.07-3.81C111.16,522.79,117,522.07,122.58,520.71Z" transform="translate(-59.05 -6.76)"/><path d="M152.71,237.48c-6.14.7-12.36-1.21-18.45,1.39a10.25,10.25,0,0,1-3.88.59c-12.49,0-25-.12-37.48.07-3.93.06-5.32-1.22-5.16-5.17.26-6.56.07-13.15.07-21.06,3.85,6.15,8,5.43,12.47,3,.42-.23,1-.69,1.31-.55,7.21,3.58,14.25-1.31,21.55-.38a107.41,107.41,0,0,0,22,.18c22.71-1.78,45.45-1.75,68.2-1.52,3,0,4.88-2.5,8-2.2,4.07.39,6.28,1.78,6,6.1-.11,1.66,0,3.33,0,5,0,11.37-.94,12.63-11.58,16.26-11.18,3.82-22.4,7.42-33.13,12.53-7.38,3.52-15.48,5.5-23.52,8.25,1.31,1.62,2.88,1,4.22,1,19.16,0,38.32,0,57.48-.15,3.65,0,5.18.87,4.88,4.74s0,8-.11,12c-.06,3.48-1.42,5.74-5.39,5.53-22.41-1.19-44.73,2.08-67.14,1.51-8.18-.21-16.76-1.62-24.46.31-12.23,3.07-24.33.41-36.39,1.69-4.94.52-6.52-1.54-6.08-6.25a46.49,46.49,0,0,0,0-10.48c-.7-5.22,2.42-7.65,6.41-8.65,11.57-2.92,22.64-7.46,33.44-12.15,7.68-3.33,16.68-3.52,23.3-9.43.84-.74,2.47-.59,3.73-.85Z" transform="translate(-59.05 -6.76)"/><path d="M421.85,254.68c-.7,13.08-6.66,22.66-18.43,29.1-8.77,4.8-18.31,7.61-27.76,9.42-6.68,1.29-13.71,3.73-20.85,2.29-5.41-1.08-10.35,1.75-15.78,1.72-3.47,0-5.86-2.52-9.43-1.87-8.9,1.62-18,0-26.44-2.09-10.36-2.56-21.18-5.62-28.78-14.61-7.43-8.78-9.22-18.84-5.19-28.95a31.54,31.54,0,0,1,12.62-14.81c8.42-5.3,17.48-8.68,26.81-11.56a69.05,69.05,0,0,1,9.17-1.77,214.06,214.06,0,0,1,53.84-1.89c10.74,1,22.2,2.3,32,8.09,5.8,3.42,11.41,7.22,15.41,12.92C422.05,245,421.83,249.73,421.85,254.68Zm-80.92,17.15c6.49,0,13,.52,19.45-.15s12.56-3.34,18.75-5.36c6-2,8.69-11.41,4.61-16.23-6-7-14.83-6-22.32-6.86-11.87-1.3-24-.35-36,1.37-7.55,1.09-14.28,2.92-20,7.85-3.56,3-3.83,11.15-.37,13.33a38.39,38.39,0,0,0,18.93,6C329.6,272,335.27,271.82,340.93,271.83Z" transform="translate(-59.05 -6.76)"/><path d="M340.08,356.47c6.66,0,13.34.31,20-.08a44.33,44.33,0,0,0,22.54-7.72c3.35-2.29,4.3-8.11,2.48-12.11-4-8.83-10-12-19.4-10.54-2.24.36-2.66,1.59-2.64,3.43,0,2.67.24,5.35,0,8-.24,2.91-.65,6.08-5,3.52a2.51,2.51,0,0,0-1.88-.32c-6.38,2.56-13.09,1.33-19.65,1.78-3.78.27-5.51-1.69-5.5-5.39,0-9.16.08-18.32,0-27.48,0-2.51.92-3.71,3.53-3.59s5.34-.12,8,.09c15.11,1.19,30-2.46,45.09-2.18,7.37.14,13.09,2.68,17.64,7.39,5.38,5.59,11.48,10.58,13.55,19.13,2.48,10.17,1.74,19.5-4.38,27.6-7.2,9.53-18,13.6-29.16,17.25-20.4,6.66-41.33,5.33-62.18,5.18-9.28-.07-18.28-2.58-27.28-5-8.75-2.39-16.42-6.15-22.56-12.77-7.66-8.26-9.59-17.65-6.64-28.71,1.4-5.28,2.42-10.33,6.78-13.82,4.75-3.83,10.48-6,16-8.49A41.65,41.65,0,0,1,303,307.9c3.12-.25,6.3-1,6.83,4.3.42,4.27,3.17,8.25,4.43,12.5,1.5,5.05.58,6.06-4.72,6.75-4.13.53-7.59,2.39-9.69,6.05-3.21,5.62-2.79,8.62,2.46,12.4a33.8,33.8,0,0,0,19.25,6.58c6.16.13,12.32,0,18.49,0Z" transform="translate(-59.05 -6.76)"/><path d="M163.16,599.33c17.71,4.5,34.41,3,51,3.11,4.21,0,6.54.33,5,5.89-1.18,4.16-.37,8.93-.19,13.42.12,3.18-.93,4.5-4.28,4.4-6.82-.2-13.8.8-20.46-.25-23.47-3.7-47.12.17-70.46-2.14-13.77-1.35-27.41-.9-41.11-1.4-1.88-.07-2.48-.27-2-2.61,1.34-6.28,1-6.42-5.39-6.44-4.16,0-8.33,0-12.49,0-2,0-3.69-.23-3.71-2.85,0-2.8,1.9-2.66,3.77-2.66,4.67,0,9.34-.13,14,.08,3.2.14,4.45-.88,4.34-4.24-.22-6.65.09-13.33-.11-20-.39-13,5.68-19.33,16.86-23.25a47.33,47.33,0,0,1,16.24-2.81c13.82.41,28.08,1.51,39.46,11.32.87.76,2,1.61,2.27,2.6,1.32,6.13,4.6,2,6,.71,5-4.9,11.65-6,17.86-7.61,6.61-1.7,13.23-3.31,19.77-5.29a99.32,99.32,0,0,1,11.57-2.24,28.86,28.86,0,0,0,3-.19c6.5-1.95,6.48-2,6.47,5,0,4.67-.34,9.37.13,14,.4,3.88-1.82,5.82-4.59,6.49a82.9,82.9,0,0,1-8.53,1.95c-6.63.88-12.86,3.22-19.24,5-3.11.87-6.26,2.37-9.37,2.31C172.31,591.47,169,596.57,163.16,599.33Zm-53.45-7.39c0,6.83,0,6.66,6.73,6.88,5.57.19,11.23-1.05,16.72.78,1.38.46,2.22-.27,2.89-1.28,2.55-3.91-1.27-14.69-5.82-15.29-4.23-.55-8-2.81-13.07-.56C111.52,585,109.73,585.52,109.71,591.94Z" transform="translate(-59.05 -6.76)"/><path d="M186.44,403.85c-9.49,0-19.13-1-28.44.34-6.7,1-13.23-.46-20,.57-5.24.8-11.81.24-17.53.26-8.17,0-16.51.21-24.77.43-11,.3-11,.07-11-11.14,0-3.33-.12-6.67.08-10,.14-2.16.86-3.4,3.83-3.06,13.42,1.51,26.93.33,40.4.67,1.91.05,2.65-1,2.64-2.8,0-6,0-12,0-18,0-1.92-1.3-3.2-2.82-1.84-2.25,2-4.7,1.39-7.08,1.41-10.83.1-21.66-.05-32.49.09-3.3,0-4.87-.65-4.65-4.41.33-5.48,0-11,.12-16.49.11-4.36,2.22-6,6-4.22,2.48,1.12,4.4.15,6.64-.15,5.64-.74,11.41,1.08,16.79.39,3.28-.42,6.5.65,10-.43,3-1,7.12-.44,10.73-.45,28-.09,56,0,84-.14,4.15,0,5.62,1.05,5.24,5.25-.36,4,0,8-.09,12-.07,5.8-.81,6.51-6.82,6.52-14.83,0-29.66.15-44.48-.08-4.41-.06-6.45.92-6,5.77a114.5,114.5,0,0,1,.09,13.49c-.07,2.9.88,4.3,4,4.14,11.52-.6,23,.55,34.63-1.24a52.89,52.89,0,0,1,13.38-.58c2.46.27,3.66,1.06,3.62,3.62-.08,5.33-.15,10.67,0,16,.08,3.32-1.39,4.29-4.53,4.25-10.5-.13-21-.05-31.5-.05Z" transform="translate(-59.05 -6.76)"/><path d="M134.74,155.48c-4.26,1.58-8.46,2.63-12.11,4.66-3.13,1.74-4.52,5.27-4.47,8.91.06,4.38,3.43,6.76,6.64,8.62,4.44,2.58,9.73,3,14.71,3.39,7.62.55,15.44,1,23-.09,9.92-1.45,20.48-.76,29.44-6.76,4-2.68,6.53-6.23,6.56-11,0-5.3-3.28-9.42-7.26-11.71-3.2-1.84-7.84-1-11.74-.1-2,.45-2.43,2.55-2.44,4.49a62.41,62.41,0,0,1-.08,7c-.28,2.2-1.21,2.9-4.09,3.4-6.87,1.19-13.77.14-20.54,1.36-4.54.82-5.94-.86-5.16-5.41,1.44-8.48,1.28-17.1,1-25.66-.12-4.22.79-5.9,5.47-5.62,7.8.46,15.81,1.11,23.44-.11,8.42-1.36,16.81-1.24,25.19-2,6.46-.57,10.35,3,14.63,6.46,1.41,1.13,2.38,2.79,3.74,4,11,9.83,11.51,21.69,7.58,34.91-3.62,12.21-13.88,16.72-23.82,21.21-7.64,3.44-15.88,6.3-24.12,7.38s-16.39,3.43-25,2.55a129.52,129.52,0,0,0-20.47,0c-5.45.31-10.13-2.44-15.24-3-6.12-.63-11.14-3.53-16.42-6.14-7.89-3.91-13.21-9.11-15.84-18.3-3-10.34.64-18.77,3.8-27.72.65-1.84,2.46-2.57,4.13-3.31.83-.37,1.5-1,1.13-1.92-.46-1.1-1.27-.6-2-.09s-1.73,1.32-2.58.2c-.63-.82.16-1.5.56-2.2,1.13-2,.84-4.58,2.77-6.25.9-.78,1.2-2.82,3-1.34,1,.87,1.82,2,.63,3.43-.67.8-2.38,1.46-1.13,2.73a3.22,3.22,0,0,0,3.8.11c6.72-4.89,15.16-4.41,22.4-7.47,2.74-1.15,3.4-.27,4.3,2C130.68,142.45,131.17,149.5,134.74,155.48Z" transform="translate(-59.05 -6.76)"/><path d="M217.05,808.12c.9,12-2.72,25.18-1.54,38.49.2,2.23-.42,3.74-3.07,2a3.25,3.25,0,0,0-1.94-.34c-11.47,1.11-22.76-1.55-34.14-2.19-10.71-.6-21.59-.08-32.1-1.77-7-1.12-14.21.34-20.63-1.65-9.54-3-19.35-.09-28.81-3-4.11-1.28-8.93-.37-13.43-.21-3.7.12-5.59-.95-5.23-5.11a493.09,493.09,0,0,0,1.56-51.57c0-2.62,1.19-3.26,3.61-3.56,8-1,15.65,2,23.59,2.1,3.14,0,3.11,3.19,3.36,5.79.8,8.34-1.61,16.46-1.59,24.74,0,6.74.65,7.4,7.48,7.32,2.16,0,4.33,0,6.5,0,8.25.14,7.34.57,7.35-7.06,0-7.17-.06-14.33,0-21.5.08-5.52,2.42-6.67,7.57-4.68,4.75,1.83,9.91,1,14.81.63,5.26-.37,6.54,1.45,6.31,6.42-.36,7.81.11,15.66,0,23.49-.06,4.32,1.46,6.38,6.11,6.39,5.52,0,11.06-1,16.54,1.72,3.37,1.64,5.27-.68,4.35-4.56-.8-3.31,2.14-6,1.39-9.22-1.65-7.13.3-14.29-.07-21.44-.16-3.21-.28-6.82,4.69-3.18,1.13.83,3.21.56,4.84.48a97,97,0,0,1,19.69,1.47c2.63.41,2.76,1.84,2.75,3.78C217,796.87,217.05,801.87,217.05,808.12Z" transform="translate(-59.05 -6.76)"/><path d="M219,667.59c0,8.66-.11,17.32.05,26,.07,3.35-.81,4.68-4.47,4.69-17.91.09-35.91-.84-53.59-2.47-16.11-1.5-32.15.11-48-1.72-10.11-1.17-20.14-1.08-30.22-1.18-2.56,0-3-1.27-3-3.4,0-17.65,0-35.3,0-53,0-2.9,1.38-3.83,3.93-3.84,7.66,0,15.32-.18,23,0,2.94.06,4.46,1.11,3.84,5-1.56,9.87-.74,19.89-.44,29.85.06,1.93,1.62,3.23,3.72,3.43.66.06,1.33,0,2,.07,13.85.46,13.27.41,14.43-13.26.53-6.35,1.61-12.68,1.58-19.11,0-2,1.64-3,3-2.16,5.88,3.77,12.3,1.78,18.45,2,8.21.34,6.9-.24,6.92,7,0,7.83.08,15.66-.08,23.48-.06,3,.81,4.5,4,4,6.36-1.06,12.39,1.61,18.68,1.63,3.58,0,4.56-1.25,4.49-4.66-.2-9.66,0-19.32-.17-29-.07-3.29.61-4.79,4.34-4.67,7.82.26,15.65.19,23.47-.05,3.4-.11,4.3,1.16,4.25,4.34-.15,9-.05,18-.05,27Z" transform="translate(-59.05 -6.76)"/><path d="M171,740.54c-10.12-.69-19.54-4.56-29.43-6.33-7.09-1.26-14.7-1.68-21.55-5.06-3.07-1.51-7.06-.2-10.64-1.7-7.34-3.07-15.49-4.38-23.08-5.35-8.22-1-6.49-5.19-6.57-9.77-.07-4,.07-8-.1-12-.1-2.52,0-3.58,3.17-2.63,8.49,2.55,17,5,25.72,6.75s17,4.26,25.58,6.22c8.15,1.85,16.33,4,24.44,6.2,6.22,1.72,12.59,3.19,18.83,4.77,5.66,1.44,11.84,1.52,17.2,4.77,2.78,1.69,6.76,1.91,9.85,2,4,.11,7.06,2.23,10.74,2.81,4,.63,3.6,5.38,2.81,8.32a36.26,36.26,0,0,0-.89,9.34c-.08,6.41-2,9.21-8.18,9a77.39,77.39,0,0,0-20.07,2.26c-10.71,2.45-21.75,1.6-32.35,4.74-5.37,1.6-11.4.57-17.15,1.89-7,1.61-14.36,1-21.25,3.49a9.11,9.11,0,0,1-4,.2c-7.33-.83-14.35,1.85-21.67,1.82-3.3,0-6.77,1.89-10.46,1.84-2.89,0-4.35-.81-4.25-4,.14-4.83.08-9.66,0-14.49,0-2.47.8-4.74,3.27-4.78,4.17-.07,8.15-2.12,11.89-2.07,9.34.12,18.46-1.65,27.74-1.94a134.51,134.51,0,0,0,26.05-3.43,7.43,7.43,0,0,1,2.48-.21C156.58,744.2,163.68,741.81,171,740.54Z" transform="translate(-59.05 -6.76)"/><path d="M346.5,487c-13.13-.58-26.3,0-39.46-.19-3.27,0-4.4,1-4.2,4.28.27,4.29,0,8.6.12,12.9.1,5.14-1.45,5.77-6.43,5.07-6-.86-12.26-.54-18.41-.56-12.74,0-12.74,0-12.73-12.82,0-7.49,0-15,0-22.48,0-2.47-.36-5,1.31-7.22a2.25,2.25,0,0,0,.42-1.87c-4.29-6.88,1.72-13.67.14-20.55-.53-2.33,0-2.76,3.15-2.43,8.56.9,17.27.4,25.93.43,6.58,0,6.59,0,6.56,6.48,0,3.83,0,7.66-.12,11.49-.09,2.4.51,3.86,3.28,3.66,15.74-1.12,31.33,1.74,47,1.71,19,0,38,.12,56.94-.12,4.15-.05,5.26,1.3,5.05,5.14-.24,4.48.07,9-.05,13.48-.14,4.85-1.79,5.8-6.23,3.85-.15-.07-.36-.23-.45-.18-4.93,2.75-10.42-2.47-15.3,1.06-.51.37-1.27.85-1.75.71C376.54,484.5,361.43,487.67,346.5,487Z" transform="translate(-59.05 -6.76)"/><path d="M122.86,299c8.5,0,17.08.8,25.47-.15,23.5-2.68,47-1.42,70.56-1.91,4.33-.09,5.51,1.33,5.24,5.38a116.61,116.61,0,0,0,0,14c.19,3.39-1.15,4.3-4.31,4.22-37.2-.94-74.29,3.55-111.5,2-6.26-.25-12.34,2.34-18.74,1.57-4.38-.53-5.15-1.69-3.94-6.06s.71-9,.37-13.39c-.37-4.83,1.47-5.88,5.88-5.77C102.2,299.19,112.54,299,122.86,299Z" transform="translate(-59.05 -6.76)"/><path d="M91.57,204c2-1.13,4-1.48,5.91-2.4,3.94-1.88,10.7,1.6,12,5.85.51,1.67.89,3.76-1.42,4.7-1.43.58-3,3.05-4.2,1.42-1.11-1.45-2.67-3.51-1.87-5.86.4-1.18,1.92-2.47.51-3.53s-2.1.76-3,1.57C96.26,208.51,94.18,205,91.57,204Z" transform="translate(-59.05 -6.76)"/><path d="M88.23,288.9c2.48,3.3,5.79,3,9.13,2.84,2-.08,4.83-.6,4.35,2.93-.45,3.32-3.08,2.1-5.07,2.07C91.5,296.67,89.66,293,88.23,288.9Z" transform="translate(-59.05 -6.76)"/><path d="M59.35,263.91V254c2.22,3.12,6.14,3.21,6.29,6.22.15,3.23-4.22,1.81-5.24,4.5Z" transform="translate(-59.05 -6.76)"/><path d="M82.64,629.86c-1.18,0-3,1.27-3.27-.75s1.73-1.38,2.9-1.69a16.37,16.37,0,0,0,2.23-1A2.2,2.2,0,0,1,87.61,628c.66,2.25-1.32,1.71-2.48,1.85A20.67,20.67,0,0,1,82.64,629.86Z" transform="translate(-59.05 -6.76)"/><path d="M60.17,600.4c-1.85-2.44-1-4.68-.23-7.11C64.67,595.75,61.17,598.13,60.17,600.4Z" transform="translate(-59.05 -6.76)"/><path d="M101.46,212c-3.58.4-6.6,2.12-7.81-2.59C96.25,209.3,98.73,209.16,101.46,212Z" transform="translate(-59.05 -6.76)"/></g></g></svg>