<svg xmlns="http://www.w3.org/2000/svg" viewBox="0 0 892.1 887.1"><title>ez</title><g id="Layer_2" data-name="Layer 2"><g id="Layer_1-2" data-name="Layer 1"><path d="M95,1c.3,2.52,1.19,4.1,4.18,3,.87-.31,2.19-.46,2.41.88s-1,1.47-2,1.59c-3.12.4-3.53,2.21-2.18,4.59C100.19,16,99.75,17,94,17.45,95,20,98.25,20.92,99.34,21c6.43.46,5.51,5.37,6.74,9.27,1.39,4.41,3.31,8.64,1.44,13.37a4.15,4.15,0,0,0,1.54,1c1.06.36,2.23,1.59,1.59,2-3.91,2.53.45,7.28-2.85,9.86-.59.46-.31,1.16.23,1.7,4.81,4.94,5.11,11.63,6.66,17.77.63,2.48,1,4.65,3.21,6.39s4.53,4.17,2.22,7.64c-.76,1.14-.25,1.89,1.14,1.86,1.66,0,2.81.89,2.48,2.38a84.92,84.92,0,0,1-3.55,12.62c-.61,1.56-4.46,2.61-3.47,4.13,1.34,2.06,3.48,4.3,6.39,4.92.48.1.94.27,1.73.5-1.57,2.18-5.27,1.9-5.49,5.25,5.79.86,10.26-3.07,15.18-4.84,6-2.17,12.34-4,17.85-7.53,1.23-.78,3-1.25,2.73-3.15s-2.05-1.24-3.18-1.67c-3.69-1.39-7-3.77-11.17-4a3.28,3.28,0,0,1-2.86-3.6c.32-2.38,2.62-2.55,4.32-2.42,6,.48,11.92-.92,17.87-1.29,1.58-.1,3.82-.06,4.23-1.86s-2-1.88-3.11-2.68c-1.45-1-3.94-1.54-3.49-3.65.5-2.37,3.25-3.2,5.2-3,8,.66,15.47-2.62,23.35-2.41,1.88.05,3.52-.79,5.61-1.8-2.45-3-4.73-5.93-7.15-8.75-2-2.36-1.11-3.72,1.49-4.08,8.55-1.18,17.14-2.23,25.8-1.63,3.22.22,4,2.67,1.86,5.33-1.44,1.81-3,3.48-4.57,5.22-.71.83-2.12,1.43-1.38,2.85.59,1.11,1.75.7,2.7.58,5.78-.73,11.65.51,17.43-.91,2.26-.56,5.64-.47,6.27,1.62.78,2.6-1.71,4.66-4.33,5.75-.88.37-1.71.87-3.39,1.74,3.87,2.49,7.25,1.16,10.49.88,2.55-.22,6.39-1.82,7.22.47.94,2.57-3.14,3.8-5.24,5-4.89,2.83-9.86,6.76-15.84,1.55-1.09-.95-3.54-.26-5.33-.53-1.34-.2-2.69-.83-3-2.3s.62-2.47,1.79-3.29c1.75-1.21,4.58-2.67,4-4.49-.72-2.16-3.84-1-5.83-.9-13.27.74-26.52,1.68-39.78,2.55-1,.07-2.17.1-2.57,1.15-.57,1.49.95,1.9,1.72,2.68a5.31,5.31,0,0,0,.78.62c2.06,1.38,5.6,1.64,4.69,5.4-1,4.05-4.51,2.52-7.06,2.71-5.53.39-11.21-.79-17.09,1.61,3,1.5,5.65,2.74,8.21,4.09,1.54.82,2.78,2,2.3,4a3.93,3.93,0,0,1-3.11,2.9c-2.6.74-7.17.71-6.79,3.52s4.84.84,7.45,1.31c3.75.68,7.7.17,12.52.17-2.73,2.5-4.68,4.41-6.78,6.14-.82.68-2.51.54-2,2.25s2,1.64,3.3,1.64c6,0,12,.47,18-.16,6.23-.67,12.42-1.78,18.69-2.28,5.84-.46,6.35-1.57,3.29-6.41-2.17-3.45-.1-4.46,2.87-4.83,2.58-.33,5.24.5,7.75-1.14s4.39-3.09,1.1-5.87c-2.1-1.78-1.53-3.86.12-5.7.9-1,2.2-1.41,2.85,0,1.86,4.12,5.95,5.09,9.35,7,1,.58,2.18,1,2.07,2.49s-1.39,1.62-2.4,2.17c-2.82,1.55-5.87.89-8.83,1.06-6.9.39-8.2,2-5.91,8.21.92,2.48.55,3.79-2.19,4.21-5.4.83-10.76,2-16.18,2.51-3.44.31-4.12,1.67-3.79,4.79.9,8.6.53,9.12-7.84,10.78a49.32,49.32,0,0,1-10.36.94c-4.18-.07-4.7-1.4-2.41-4.75,1.5-2.21,3.06-4.31,5.57-5.54,1-.48,2.34-1,1.87-2.54-.42-1.33-1.67-1.56-2.87-1.49-5.14.28-10.35-.08-15.4,1.1a34.59,34.59,0,0,1-9.94.41c-2.85-.16-2.86-1.81-1.33-3.69s3.43-3.94,5.06-5.8c-3.18-.79-6.33-1.92-10.51-.35-3.69,1.38-8.32,2.2-12.69.63-2.71-1-4.09,1.29-5.73,3-2.14,2.16.29,2.3,1.07,3.41,1.15,1.62-.14,3.09-1.05,4.5-1.86,2.88-3.71,5.8-.07,8.76a1.77,1.77,0,0,1,.7,1.23c-.22,2.3-4.63,6.72,2.7,5.11.15,0,.74,1.05.8,1.65.12,1.31-.89,1.73-1.93,1.72a3,3,0,0,0-3.42,2.77c-.21,1.12-1.06,2.27,0,3.24s2.12,0,3.07-.64c1.25-.77,2.7-2.09,3.87-.3,1,1.5-.4,2.8-1.34,3.93s-4.25,2.14-2.25,4-.17,7.85,5.72,5.78c1.34-.47,1.21,1,1.1,2-.53,5.07,3.28,10.86-2.52,15,3.11,3.53-1.4,7.39.44,10.92s-3.09,2.95-2.94,4.85,3.83,2.54,1.33,5.71c-3,3.76-2,5.95,2.45,7.93,1,.44,2.54,0,2.86,1.48.14.66-.46,1.15-1.21,1.29-1.39.25-2.65.3-3.32-1.33-.16-.38-.68-.61-1.72-1.5.75,3,1.19,5.3,1.89,7.49.86,2.7,3,5.17-.37,7.93-1.36,1.12.28,2.23,1.69,2.66,2.36.74,2.9,2.56,1.45,4.21s-2.27,2.78.3,4a1.17,1.17,0,0,1,.39.8c-4.4,3.63-1.58,9.16-3.55,13.41-.19.42-.54,1.11-.79,1.11-9.38-.26-2,2.7-.73,4.13,3.13,3.54,2.52,5.7-2.71,8,1.06.75,2,1.38,2.89,2.05,1.72,1.28,2.27,2.61-.13,3.65s-4.52,2.06-1.66,4.9c1,1,.44,1.85-.55,2.41s-1.54,1.27-1.15,2.42c1.68,4.94-.89,8.88-3,13-1,2-1.64,3.62,1.24,5.26s2.05,6.28.49,7.07c-4.22,2.16-2.38,5.65-2.39,8.2s.59,4.26-2.37,5.44c-2.29.91-2.42,3.41-2.48,5.61,0,1.64.84,2.56,2.53,2.15,5.92-1.46,11.76,1.19,17.68.34,1.23-.18,2.89-.26,3,1.7a2.69,2.69,0,0,1-2.73,3c-2.28.18-4.63.72-6.82-.61a4.16,4.16,0,0,0-2.25-.89c-1.93.26-4.91-2.38-5.54.62-.45,2.14,2.79,2.17,4.72,2.37,1.17.12,2.78,0,2.86,1.37.25,4.62,3.54,3.38,6.14,3.41,6.67.06,13.33,0,20,.08,1.31,0,2.93-.18,3.32,1.48.46,1.9-1,2.61-2.53,3.09-.79.24-1.61.42-2.38.73a2.15,2.15,0,0,0-1.41,2.39c.13,1.43,1.3,1.33,2.25,1.29,4-.16,8,.52,11.93-.59a14.06,14.06,0,0,1,4.42-.48c1.28.08,3,.39,3.23,1.83.29,1.86-1.63,1.78-2.83,2.07-4.83,1.15-9.68,2.3-14.56,3.25a4.39,4.39,0,0,0-3.92,3.91c-.42,2.75,2.1,2.6,3.64,3.18,2.32.88,4.76,1.44,7.14,2.18,1.19.37,2.21,1.14,2,2.47s-1.5,1.1-2.47,1.14a44.48,44.48,0,0,0-9.38.84c-2.19.55-5,0-4.71-3.4.21-2.75-2.15-2.53-3.46-3.55-1-.79-2.56-1.32-2.19-3,.28-1.28,1.61-1.59,2.69-2a20.66,20.66,0,0,1,2.93-.64c1.36-.27,2.83-.7,2.81-2.29,0-2-1.72-2.19-3.27-2.22-2.66-.05-5.33,0-8,0-1,0-2.16,0-2.61-1.07-.64-1.46.89-1.87,1.56-2.72,1-1.29,4.24-.92,3.21-3.56-.81-2.09-3.14-1.45-4.91-1.45-6.45,0-13-.65-19.29.42-4.4.75-10.35.58-12,7-.32,1.23-1.74,2,.34,2.95,1.45.69,2.15,3.28,4.44,1.7,6.35-4.38,10.66,2,15.88,3.29,2.46.59.56,4.38-.87,4.61-7.17,1.17-13.26,9.09-21.58,3.58-1.39-.92-4-1.95-4.65.56-.84,3.18,2.05,1.28,3.27,1.7.81.28,1.88,1.34,1.25,1.57-4,1.46-.9,8.38-6.88,8.26,6.65.82,13-1.72,19.31-.22.43,1.08-.31,1.65-1.11,1.76-4.69.61-4.64,3.65-3.32,6.89,1.5,3.67-.3,4.57-3.36,5.32-5,1.24-10.18.1-15.29,1.43a9.36,9.36,0,0,0-5.61,3.47c-2.94,3.43-6,5.91-7.29,11.06-.75,3-3.95,7.13-6.63,10.38-1.4,1.7-3,3.67-1.61,6.33a1.75,1.75,0,0,1-1.17,2.75c-4.54,1-5.53,5.14-7.94,8.17-2.59,3.25-4,7.64-8.84,9.17-2.72.85-2.48,5.08-4.34,7.38-.47.58-.23,2.11-.67,2.28-9.27,3.64-9.9,15.31-18.39,19.71a8.93,8.93,0,0,0-3.48,4.14c-1,2.16-2.26,2.95-4.57,3.77-3.8,1.36-5.79,5.36-8.06,8.54-1.13,1.58-1.49,3.53-3.71,4.18a2.85,2.85,0,0,0-1.75,1.59c-1.9,6.23-6.7,8.69-12.54,9.9-.21,0-.34.51-.53.81.92,2.27,3.47.47,5,2.16C6.22,512.57,3,513.92,1,517V413c3.05-2.59,8.6-2.68,8.34-8.69,0-.86,2.07-2,3.37-2.68a3.78,3.78,0,0,1,4.2.65,1.46,1.46,0,0,1,.46,1.26c-.78,1.84-2.45-.06-3.49.77-.21.17-.27.53-.58,1.19,6.09,2,12.4.7,17.77-.81s10.08-5.44,16.25-4.41c.81.14,1.82.29,1.93-.84a2.28,2.28,0,0,0-1-1.61c-7.9-5.9-17.07-7.54-26.59-7.3C14.29,390.71,7.6,393.86,1,397V10c1.12.21,2.23.49,3.35.64,6.81.89,12.54,5.6,19.74,5.39,2.21-.07,3.56-.12,4.82-2.2,4-6.64,4.13-6.56-2.35-11A9.76,9.76,0,0,1,25,1H52c.6,2.41.37,4.35-2.62,4.81C48.21,6,46.56,4.23,46,6.25,45.44,8,47.9,7.66,48.47,8.86a19.64,19.64,0,0,0,2,3.46c.77,1,1.64,2.28,3.25,1.11s3.16-1.74,4.76.18c2,2.43-2.06,2.51-1.53,4.71,4-.4,8-.59,6.8,5.53-.09.43,1,1.24,1.74,1.66,1.14.67,2,1.76,1.53,2.83-2.42,5.28,2,7,4.88,9.2,2,1.51,1.82,1.54,0,3.32-4.5,4.42-10.6,4.64-15.89,6.83C53.24,48.82,53,52.83,49.47,52,54,56,57.31,62,65,59.23c-2.63,3.89-5.47,3.77-8.69,1.83-1.22-.73-3.39-1.87-3.08.77.33,2.85-.39,6.59,2.28,8.41,3.08,2.1,4.87-1.66,7.23-2.83a3.56,3.56,0,0,0,.75-.66c4.78-4.33,6.41-4.08,9.55,1.75,2.11-4-1.52-5.82-3.22-8.64,2.92-.66,5-.8,6.69,1.55.57.81,1.51,1.51,2.56.82.83-.54.5-1.41.28-2.25-1.08-4,.77-5.84,4.61-6-.54-2.86-4-2.58-4.63-5.09-.52-2.11-1.07-3.91-3.18-.85-1.11,1.61-2.42.28-3.37-.54s-1-2,.15-2.45c6.45-2.34,3.09-8.8,5.4-12.91.59-1-.94-2.5-2.49-1.1-1.25,1.13-3.27,2-4,.91-2-3.14-4.21-6.54-4.89-10.12s1.94-6.12,5.77-7.44c2.62-.91,7-1.74,6.69-4.93-.34-3.73-5.24-2.31-7.81-3.87a1.47,1.47,0,0,0-.48-.11,1.49,1.49,0,0,0-1.7.71c-.38.73.06,1.25.6,1.69,3.46,2.8,1,2.63-1.33,2.78-2,.12-3.93.57-5.91.74-1.51.13-3.73,0-3.57-1.73.27-3-1.71-5.8-.21-8.71h4c1,1.87-1,2.65-1.26,4.4C64,3.59,68.81,6.53,69,1ZM85.72,150.52c.19-1.76-1.65-4.56,2.44-4.25,1.8.14,1.65-1.77,2-2.93.37-1.43-.83-2.06-1.86-2.52-2-.86-4.35-1.14-5,1.22-.83,3-1.91,6.68,2.51,8.38-2.45,3.48-1.1,5.94,2,8.16,3.48,2.51,1.22,4.73-1,6.74,1.64.9,3.32,1.14,4,.09,2.32-3.7-1.33-7.09-1.35-10.48,4.07-1.8,6.43,2.5,10.16,1.77,2.61-.52,6.5-.91,4.66,4.28,2.37-.22,2.51-2.09,3.52-3.09,1.54-1.51,1.85-4.44.44-4.6-2.23-.25-3.37-4.93-6.55-1.39-2.89,3.22-5.17.62-6.55-1.93-.92-1.71-1.26-3.4-3.69-2.52-.19,1.53,2.24,2.74.5,4.13-1.45,1.15-2.29-.65-3.37-1.22A2.44,2.44,0,0,0,85.72,150.52Zm9.72-63.09c-2-.53-3.55-1.05-5.14-1.34-2.87-.51-5.65-.44-1.71-4.23,1.11-1.07,4.56-3.62,2.1-6.64-2.26-2.77-5.35-2.11-8.29-1.48-1,.2-2.14,1.28-2.69,1C74.58,71.9,70.9,77.11,66.29,77c-1,0-2.12.73-1.92,1.9.48,2.78-1.31,2.79-3.2,3.15-1.24.24-2.81.89-2.55,2.55a4,4,0,0,0,3.05,3c5.75,1.56,6.22,2.67,2.5,7.48-2.4,3.11-1.73,4.26,2.14,4.45,5.17.26,8.19,5.23,13,6.42.38.09.75,1.12.74,1.71-.1,5.91,2.62,9,8.3,11.24,4,1.58,6.2-.59,7.6-2.39,1.27-1.64-1.2-4.18-3-5.46s-4.15-1.64-4,1.75c.21,3.82-1.95,2.19-3.36,1.55a3.61,3.61,0,0,1-2.06-3.71c.15-1.86,1.63-2.1,3.14-2.59,4.14-1.36,8.67,1.1,12.74-1.52.82-.53,3.25,1.44,3.38-1,.08-1.5-2.26-1.66-3.59-2.2a4.5,4.5,0,0,0-2.42.14c-2.69.56-3.65-1.26-3.12-3.13,1.23-4.3.83-7.18-4.36-7.75a1.87,1.87,0,0,1-1.63-2.18C87.91,89.3,88.94,89,90,89,91.75,89.05,93.67,90,95.44,87.43ZM89.57,120.6c-4.63,1.48-6.63-1.91-9.48-3-4.21-1.65-6-4.19-6.89-8-.22-1-.07-2.24-1.33-2.33-1.63-.11-1.87,1.66-2.68,2.62-1,1.17.16,1.79,1,2.19,3.92,1.88,3.06,3.68.43,6.25-1.5,1.47-3,4.08-.55,6.07,1.45,1.17,3.19,5,5.57.46.55-1.05,2.7-.77,3.72,0C84.13,128.16,86.8,125.71,89.57,120.6Zm9.49,22.47c2.36.67,4,.88,5.23-1.92,1.14-2.61.22-3.37-2-4.34s-1.9-2.89-1.07-4.71c.92-2-.32-2.37-1.8-2.34a9.74,9.74,0,0,0-6,1.91c-1.54,1.27-3.77,2.94-3,5.24.72,2.05,3.18,1.05,4.9,1.25.65.07,1.32,0,2,.05,1.45.11,3.32-.29,4,1.26C102.35,141.54,99,140.84,99.06,143.07Zm1.26,21.55c-2.57,1.91-7.29,0-5.92,6.28a8.61,8.61,0,0,1-2.6,8,8.4,8.4,0,0,0-2.42,8.41c2.44-4.4,4.17-7.91,7.72-9.8a2.36,2.36,0,0,0,.55-2.72c-.89-2.06,4.26-4.25,0-6.49C97.54,168.3,100.66,167.74,100.32,164.62ZM83.13,32.13c-3.42,3-2.19,6.59-1.48,10.1s3.48,4.63,6.4,5.44c1.11.31,2-1.5,1.48-1.53-4.13-.26-2-4.64-4.4-6.2S81.3,35.45,83.13,32.13Zm-4,34.9c1.7,1.18,2.09,1.7,2.47,1.68,2.93-.1,6-.89,8.75-.37,6.78,1.29,3.73-3,3.73-5.8,0-1.32-.62-1.74-1.77-1.79-.91,0-1.75.22-2,1.13C89,67.11,85.23,68,79.14,67ZM53.84,85.86c-2,.58-1.43,1.55-.42,2.81,2.17,2.69,2.61,5.54,0,8.16-.77.76-1.72,1.22-.76,2.26s1.94.44,2.6-.33a32.42,32.42,0,0,0,3.91-5.1C60.5,91.26,56.7,85.75,53.84,85.86Zm1.39-53.25c3.91.15,4.94-2.71,6.09-4.87s-.6-4-2.42-5.31C58,21.79,57.35,20.3,56,21.25s-.13,1.91.17,3c.64,2.27,3.38,5.26-1.39,6.48-.28.07-.68.92-.57,1.06A4,4,0,0,0,55.23,32.61ZM28.15,85.16c.29,2.53,2.93,3.8,3.23,6,.56,4.13,3.62,3.06,6,3.08a2.39,2.39,0,0,0,2.44-2.62c-.2-1.32-1.71-1.7-2.82-1.31-3,1-4.6.12-5.58-2.88A3.19,3.19,0,0,0,28.15,85.16Zm86.14,304.67c-1.64-1.74-3.89-1.18-5.86-1.21-1.72,0-3.52.52-3.06,2.84.35,1.72,1.33,3,3.51,2.52S113.37,392.83,114.29,389.83Zm74.82-256.77c-1.52.82-4.85-.62-4.76,2.08.13,3.51,4,1.76,6,2.7,1.42.66,2.58-.27,2.6-2C193,133.25,191.24,133,189.11,133.06ZM102.66,175c.16,1-1.17,2.62.58,2.93s1.51-1.3,1.37-2.45c-.21-1.76.86-1.81,2.16-1.81,1,0,2.72.72,2.33-1.37a2.43,2.43,0,0,0-2.68-1.82C103.59,170.55,102.11,171.93,102.66,175ZM199.94,72.88c1.8-.29,3.38-1.09,3.75-3.14a1.2,1.2,0,0,0-1.83-1.35c-1.57.92-4.38-.27-4.77,2.4C196.85,72.45,198.47,72.72,199.94,72.88ZM12.61,131.81c2.11,3.76,4.88,4.09,7.64,4.29.91.07,2.17.15,2.09-1.31a1.39,1.39,0,0,0-1.79-1.24C17.92,134.64,16,132.47,12.61,131.81Zm36-51.88c2,.21,4.25,2.08,5.7-.47.38-.68-.1-1.85-.19-2.8A9.8,9.8,0,0,0,48.57,79.93Zm12.14,45c-.14,3-.34,4.5,1.93,4.88,2.44.4,5,2.43,7.76-.77C66.87,128.38,63.4,129,60.71,124.94Zm38.77,65.17c-1.34.31-1.47,1.4-1.45,2.31a3.83,3.83,0,0,0,3.39,4.06,1.19,1.19,0,0,0,1.18-1.68C101.94,193,101.2,191.17,99.48,190.11Zm-3.71-6.41c-.74,2.62-4,3.27-4.67,6C96,189.72,97.09,188.47,95.77,183.7ZM74.15,159.4c2.74,1,5.12.09,6.62,2.33a1.68,1.68,0,0,0,2.9-.4c.78-1.43-.82-1.4-1.53-1.85C79.87,158,77.52,158.19,74.15,159.4Z" transform="translate(-1 -1)"/><path d="M1,696c1-.81,2.5-.52,3.56-1.61,2.14-2.17,2.25-2.07,4.48.88,1.25-3.73,3.2-5.77,7.28-3.65,1.7.88,3.22-.44,4-2.1,1.74-3.86,4.82-3.21,7.45-1.75,1.36.76,2.1,1.26,3.35.28s1.56-2,.46-3.37c-.91-1.12-.5-2.21.5-3.07s1.79-.4,2.78,0c3.58,1.43,7.12-.71,9.67-3.8,1.92-2.32,4.66-3.68,3.28-7.35-.23-.6.62-1.09,1.34-1.16a1.38,1.38,0,0,1,1.66,1.42c0,2.14,1.87,3,2.78,4.56a1.48,1.48,0,0,0,2.78-.19c2.44-5.16,6.25-5.69,11-3.59a6.67,6.67,0,0,0,1.81.56c2.63-5.74,10.78-.23,13.19-6.52.84-2.18,3.1-1.86,4.82-1.42,5.5,1.39,10-.27,13.24-5.13,1.08-1.64,2.46-2.56,3.94-.62,3.74,4.92,7.34,1.65,9.55-1,3.9-4.59,7.49-8.42,14.2-6.34,1.89.59,2.72-.76,3.62-2.47,3-5.67,7.33-7.13,13.65-6.39,2.64.31,4.75-2.7,7.64-3.56,3.56-1,6.81-2.44,10.63-3.16,4.62-.87,10.61-1.57,14-6.4.57-.81,1.38-2.2,2.18-1.71,4.48,2.8,5.89-.78,8.13-3.38,3.19-3.72,7.22-3.56,11.24-1.35,1.35.74,2.57,1.9,4,.45,1.21-1.27,1.82-2.83.51-4.48-1.95-2.47-.23-2.76,1.67-2.6a6.7,6.7,0,0,1,4.15,1.49c7.4,6.67,15.62,5,24.22,2.57,1.15,2.52-2.94,3.11-2.53,5.74,3.25.51,4.23-2.52,4.6-4.13.92-4,4.11-5.62,7-6.77,3.5-1.4,7.38-2.94,11.31-2,1.54.34,4.79,0,4,3.12a4,4,0,0,1-5.63,2.6c-4.72-2.61-8.72,2-13.83-.93.79,1.87.83,2.26,1,2.39,5.55,3.64,5.47,6.26-.41,11.09-.63.52-1.47.81-2.1,1.33-1.62,1.33-1.29,3.26-1.35,5,0,.28.72.86,1,.82,1.74-.2,2.26-1.72,3-3,2.95-4.88,5.23-10.59,12.57-10.11.56,0,1.39-.91,1.76-1.58,2.15-4,4.7-4.71,9-2.56,4,2,8.41-2.24,7.51-7.38a29.45,29.45,0,0,1-.77-6.76c.15-2.84-3.52-1.26-4.43-3.52,2.62-1.79,4.77-1.35,6.77,1,.76.91,1.73,1.81,2.84.37,1-1.26.41-2.11-.84-2.76-2-1-3-1.68-1.72-4.73s-2.5-2.94-4.3-2.41c-2.76.81-5.25,3-6.86-1.59-.29-.84-3-.89-4.62-1.17-1.43-.24-2.28-.94-1.72-2.34.73-1.8,1.47-.7,2.56,0,2.7,1.73,4.17-.22,4.56-2.46.51-2.91,1-3.78,3.44-1.29,1.4,1.42,3.2,2.72,4.55-.51.64-1.52,2.68-1.61,2.9.13.48,3.73,2.78,2.7,5.06,2.76,3.4.09,5.51,4.12,9.6,3,2.48-.66,5.23,0,7.81-1.17,1.25-.56,3.47-.81,4.32-.09,3,2.54,5.73,2.17,9.37,1.28,2.55-.62,3.54-.49,3.7-3.44.21-3.74,1.11-7.52,4.88-9.65a4.48,4.48,0,0,0,2.2-3.16c.33-1.5,1.18-3.14,2.57-3.45,1.81-.4,1.58,1.72,2.13,2.79s1.53,2,2.22,1.11c2.52-3.16,5.43-1.28,8.27-1.12,1.76.1,3.61.5,5.21-.95,2.48-2.25,5.53-2.77,8.8-2.67a16.89,16.89,0,0,0,4.91-.51c2-.56,4-4.08,5.58,1.09.49,1.55,5.72,1,9.24-.41-2.54-1.53-5.56-.34-7.25-2.59.72-2,2.62-1.6,3.86-1.51,4.71.35,8.95-1.13,13.14-2.88.82-.34,1.88-.87,2.23-.18,1.88,3.72,4.87,2.52,8,2.63s5.51,1.23,5.5-3.23c0-.29,1-.83,1.57-.83,1.22,0,1.59,1,1.77,2,.79,4.57,4.14,3.29,5.71,1.57,2.55-2.8,5.44-2.06,8.3-2.15,2.11-.06,4.32.32,2.68,3.46-.4.77-.48,1.69.46,2.11s1.54-.3,1.94-1.07c1.06-2,3.28-2.13,5-3.12s3.66-.8,3.92-4.54c.32-4.5,3.93-1.44,5.84.31,1.69-1.29.58-2.31.11-3.21-.69-1.31-3-2.51-.37-4,2.06-1.15,4.43-.6,5,1.6,1.77,7,4.51,3.7,7.53,1.1a13.16,13.16,0,0,1,4.34-2.39c2.59-.88,4.92-1.7,5.3-5a2.11,2.11,0,0,1,2.64-1.74c2,.77.1,1.74-.11,2.67s-.92,2.4.35,3.16a2.6,2.6,0,0,0,3.54-.91c2.05-3.09,4.25-3.69,6.64-.61,1.13,1.45,2,.59,3,.17,1.61-.7,3-1.61,2.39-3.75-.39-1.3-1-2.85.92-3.23s3.86-1.75,5.72-.25c1.09.87,1.79,3.1,3.46,1.76,2.56-2,6.9-1.27,8.2-4.94a11.74,11.74,0,0,1,4.25-5.88c1-.73,2.33-1.93,1.54-3.32-1.49-2.66.28-3.3,2.1-3.79,2.11-.58,4.19-1.08,5.41,1.79,1.31,3.1,2.72,6.9,6.81,2.26a2,2,0,0,1,1.75-.54c1.77,1,1.9,3.53,3.95,4.3,3.31,1.24.62,2.72.22,4.17-1.08,4-.23,8.27-2.35,12.07-.51.92.86,1.67,1.31,2.52.76,1.46,2.29,3.46,1.82,4.46-2.72,5.9,2.67,8.64,4.41,12.78,1.48,3.48,3.94,4,7.25,3.35,6.91-1.4,13.93-.89,20.9-.93,2.33,0,5.59-.06,6.43,2.71s-.94,5-3.38,6.63c-1.55,1-3.81,2.33-2.53,4.72,1.06,2,3.32,1.26,5,.87,5.58-1.28,11.22-1.33,16.89-1.31a12.24,12.24,0,0,1,5.32,1.13c3.37,1.61,3.32,3.19.32,5.3-1.26.89-4.16.69-3.57,2.7s3.24.68,4.92,1.1c4.55,1.14,8.89-2.47,13.66-.27,2.29,1.06,3.66,2.42,3.85,4.56s-2.3,2.05-3.64,2.75c-5.22,2.73-11.58,3-16.68,7.75,3.88,1.47,7.34,2.69,10.72,4.1,2,.81,4.46,1.6,4.22,4.27-.25,2.87-3,2.61-5,3-5.48,1.19-11,2.38-16.63,2.42-2.3,0-2.58.81-2.31,3.06.63,5.21-1,7.33-6.24,7.13-8.08-.3-15.73,1.94-23.6,2.84,3.3,9.69,6,12.91-9,13.69-6.29.33-12.55,1.46-18.89,1-1.67-.12-4.36.8-4.55-1.68s-1-5.82,2.61-7.36c1.45-.62,3.37-.61,4.3-2.82-4.17-.91-8-1.44-11.61,1.68a18.18,18.18,0,0,1-5.1,3.08c-5.43,2.12-7,6.62-3.69,12-6.85-.1-8.54,4.22-9.56,9.9-1.1,6.15-6.41,9.85-10.16,14.41-.49.6-1.19.46-1.67-.18a1.85,1.85,0,0,1,.06-2.32c1.19-1.62,2.59-3.17,2-5.39-.71-2.48-4.64-2.6-4.45-5.85a1.22,1.22,0,0,0-.88-.24c-5.77,3.06-4.87-1.61-5.2-4.57-.38-3.45-2.83-2.94-5.11-3.06-1.17-.05-3.12.62-3-1.43.09-1.47,1.89-.85,2.94-1.12,1.24-.32,2.64.53,3.82-.44-.48-4.81-4.54-1.39-6.49-2.63-.17-2,1.38-1.94,2.35-2.1,7.71-1.27,9.3-6.63,9.8-13.37.28-3.78,1.59-7.75,7-8.13-3.51-2.53-6.4.81-9.4,0-.2-.06-.76.34-.75.52.21,5.75-6.23,7.54-7.47,12.49-.25,1-.54,1.44.13,2.48,1.9,2.93-1,3.88-2.63,5-2.18,1.53-3.2,0-4-1.91a8.41,8.41,0,0,1-.56-4.39c.44-4.08-.77-6.25-5.56-4.57,2.21-1.82.78-5.36,4.1-6.69,1.35-.54,0-2.32-1.11-3.12-2.5-1.76-1.38-3.7.63-3.81,7-.38,5.79-6.25,5.68-9.64-.22-6.57,4.88-4,7.27-4.72,3-.93,1.78,2.44,2,4.15s.54,3.57.79,5.35c.21,1.56,1.2,1.85,2.51,1.54,1.08-.26,2.15-1.13,1.55-2.08-2.42-3.8-.58-7.79-.91-11.66-.22-2.69,1-5.87-2.41-7.92-1.52-.91.54-2.85.56-4.29-1.85-.66-2.81.22-3.62,1.36-.46.63-.68,2.14-1.43,1.74-6.62-3.47-9.26,4.26-14.26,4.88-2,.25-4.75-.31-6.07-1.61-1.81-1.79,1.43-2.24,2.46-4.19-5.25,0-10.12,0-15,0a2.66,2.66,0,0,0-1.83.63c-2.94,3.74-4.92,4-5.68-1.36a1.9,1.9,0,0,0-1.24-1.31c-1.1-.09-1.08,1-1.24,1.75-.75,3.5,1.48,6,5.67,6.52,1.45.16,3.37-.63,4.22.77,1.24,2-2.23,2-2.22,3.8,3.39.15,3.39.15,6.41-3.28.25,4.5,3.45,4.36,6.44,4.91,1.34.24,4.25-.6,3.74,1.86s.65,5.79-2.62,7c-4.46,1.7-9.15,1.41-13.81,1.1-.72,0-1.36-.4-1.4-1.13-.11-2,2.32-1.6,3-2.9-.76-1.86-2.81-1.67-4-2.79-2.16-2.08-3.77-1.36-4.07,1.37-.38,3.33-2.43,2.75-4.67,2.74-3.4,0-7.55-1.79-9.22,3.28A1.15,1.15,0,0,1,401,626a2.13,2.13,0,0,1-1.12-2.51c.15-1.11.92-2.33-.58-3-1-.46-1.46.36-2,1-.86,1.1-1.48,2.07-.39,3.52,1.25,1.67,1.68,4,4.38,4.3.95.1,2.09.74,2,1.88-.14,1.7-1.69,1.2-2.75,1.29-4.15.38-10.57,5.8-11.47,9.65-.39,1.69,1.06,1.74,1.88,2.45,1.44,1.25,1.3,2.92-.18,3.77-1.83,1.06-1.26-1.39-1.89-1.75-3.83-2.19-4-4.54-1-7.66.6-.64-.44-2.55-1.19-2.19-3,1.47-6.67-.29-10.15,2.3,3.28.88,6.46,1.52,5.38,5.66-.12.49,2.2.85.83,2.09-.89.82-2.47,1-3.22.09-3.64-4.61-9.45-1.73-13.77-4.11-1-.55-3.71-.56-2.58,2.3.36.9,2.42,1.38,1.08,2.67-1.13,1.08-2.79.87-4.2,0-1-.61-1.95-2.48-3.28-.93-1,1.13.51,2,1.19,2.9.86,1.13.52,2.18-.25,3.19-.41.53-1.27,1.19-1.16,1.55,2.91,9.17-3.39,3.81-5.56,3.2-3.3-.92-5.51-1.25-5.71,3.84-1.11-5.51-4.67-3.69-7.75-4.11-5.21-.71-10.27-2.46-15.41-3.68-15.6-3.72-30.95-8.79-47.05-9.8-10.6-.67-21.29-.88-31.81,1.38-6.23,1.34-12.6.4-18.9,1.38-15.23,2.38-30.37,5-44.87,10.48-11.23,4.26-18.75,15-16.82,24.77,1,5.13,4,9.51,6.43,14,4.09,7.61,4.16,15.93,6.05,23.91.61,2.55,1.59,5,1.41,7.79-.26,3.75.66,7.79-3.72,10-.37.18-.45.88-.76,1.26-2,2.43-1.46,7.29-7.09,6.06-3.36-.74-7-.09-9.63-3-1.18-1.31-2.78-1.34-3.17.19-1,3.93-3.21,3.81-6.22,2.66-5.29-2-10.35,2.84-15.67.61-2.86,3.78-7.53,3.6-11.39,5.18-2.47,1-4.93,2.11-7.62.52-.5-.29-1.58-.38-1.89-.06-4.5,4.55-10.43,3.24-16.57,3.62,2.85,2.78,2.7,3.88-.85,4.57-4,.77-7.55,3.19-11.41,4.68-5.3,2-5.47,9.54-1,13.66.89.82,1.81,1.64,1.22,3s-1.66,1.49-2.91,1.56c-4.52.24-9-5.27-7.66-9.66.71-2.25,1.42-4.78-.89-5.72-1.89-.77-3.66,1-4.76,3.17-1.51,2.92-3.34,1.94-5-.12-.7-.88-1.39-2.21-2.75-1.12a9.79,9.79,0,0,0-3.91,5.61c-.26,1.36.79,2.3,2.16,3,9.6,4.63,16.9,11,16.12,22.86-.17,2.6,1.81,3.66,2.89,5.79-3.47,1-6.88,1.92-4,6.66.58.93-.92,4-3,3.8-5.34-.5-9,3.6-13.9,4.48-3.53.64-7.31,1.94-8.27,7.08-.36,1.92-4.28,5.1-7.81,2.67-7.77-5.37-16.87-8.3-24.64-13.43-3.85-2.54-7.64-5.36-11.48-8Zm505.07-62c1.63,1.33,3,.81,4.28.9,10.34.74,20.46-1.43,30.68-2.27,2.86-.24,6.33-.31,5.93-4.29-.35-3.47-2.31-5.92-6.66-5.73-3,.13-5.17,2.08-7.86,2.83s-5.32,1.79-7.38-.47c-1.89-2.07-4-2.67-6.59-2.91-3.16-.29-5.81-2-5.38-5.29.37-2.8,1-6.58,5.73-5.72,2.43.45,4-1.41,5.77-2.53,2.16-1.35,3.85-3.67,7-2.54,1.41.5,1.85-.58,2-2,.41-5,2.6-2.68,4.8-1.16s2.17,5.13,4.94,5.83c3.79,1,6.68,2.06,5.09,6.88-.25.76.41,1.6,1.25,2,3.72,1.58,7.44,3.86,11.54-.06-3.4-1.8-6.16-3.63-2.93-7.94.91-1.22-.51-3-2.81-2.83-4.49.34-5.28-.81-3.39-4.58,2.12-4.25.69-6.78-4-5.94-11.25,2-22.61-.13-33.84,1.33-1.53.2-3.82-.91-4.28,1.32s1.17,3.61,3.49,3.91c1.29.17,2.31.68,1.9,2.25s-1,2.93-2.81,3.06a37.4,37.4,0,0,1-4.49.06c-2.33-.13-3.55.86-3.26,3.21.46,3.67-.48,6.5-4.05,8.2a2.28,2.28,0,0,0-1.38,2.88,2.58,2.58,0,0,0,2.36,1.57,20.33,20.33,0,0,1,3.95.44c3.08,1.07,5,2.85,2.75,6.31C507.72,631.79,506.93,632.82,506.07,634ZM2.53,785.34c-.15,2.39,1.69,2.95,1.67,4.71-.1,6-.42,12.18,5.32,16.35a2.31,2.31,0,0,1,.43,1.83c-.65,4.86,3.92,5.65,6.48,7.07s1.15-3.13,3.24-4.26c1.61-.86,1.32-4,3.39-5.27,1-.65.89-2.22-.3-2.16-4.18.21-6.81-4-11-3.54-1.31.14-3.57.27-3.16-2,.35-1.92,2.5-1.56,3.78-1.09,5,1.85,9.5-2.24,14.46-1.06a2.25,2.25,0,0,0,2.44-2.06c.12-1.71-1.42-1.53-2.52-1.52-2.23,0-4.65-1.07-6.48,1.31-.79,1-2.06,2.29-3,.23a2.1,2.1,0,0,1,1.53-3.11c2.24-.55,4.33-1.56,6.78-1.45,8.56.37,16.74-.44,24.79-4.38,4-2,2.61-3,1.35-5.19-1.14-2-3.22-2.14-5.08-2.66a40.48,40.48,0,0,0-15.86-.77c-7.7.94-15.52,2.25-20.86,9.08C7.91,787.94,5.38,787.81,2.53,785.34ZM286.38,606c-.86,1.56-2.4,1-3.18,1.81-1.28,1.3-3.35,2.12-3.2,4.33a1.92,1.92,0,0,0,2.36,1.73c1.91-.39,3.79.56,4.09-2.71.16-1.77,2.84-1.93,4.54-2.34,1-.24,1.48.57,1.16,1.58-1.12,3.54,2.72,2.11,3.81,3.67.91,1.3,2.83.21,3.57-1.25.59-1.16,1.18-1.92,2.56-1.85,5.29.26,9.78-4.12,15.29-2.62.51.14,1.23-.23,1-.63-2.45-3.64,1.79-2.44,2.65-3.65,1.05-1.48,3.77-1.29,4.26-3.92-4.71-.44-9.62,1.27-13.38-2.71a2.06,2.06,0,0,0-2.78.11c-3.81,5-5.36,2.19-6.72-1.8a5,5,0,0,0-1.25-1.53c-.8-.81-1.66-2-2.9-1-1,.78-.2,1.83.27,2.67,1.16,2.07,2.39,4.12-1.61,4.22-1.75,0-3.32.54-4.77-1.51-1.34-1.89-4.42-2.45-5.7-.24-1.71,3-2.76,2.16-4.14.21-.66-.94-1.19-1.71-2.27-.81s-.56,1.72.08,2.62C281.75,602.74,283.44,605.07,286.38,606Zm54.71,29.44a4.25,4.25,0,0,0,1.55,5.2c1.86,1.1,3.28-.78,4.61-2,1.05-1,1.55-.95,3.11,0,2.43,1.48,3.9,6,8.17,3.54.77-.45,2.21-.09,2.11-1.48a2,2,0,0,0-2.08-1.76c-4.59-.17-5.64-3.16-5.7-7,0-1.67-.92-3.55-2.47-2.12-2,1.81-4,1.18-6,1.43C341.94,631.54,339.54,631.82,341.09,635.45Zm140,22.82c3.23-1.57,2.6-5,4.16-7,3.29-4.19,2.34-6.92-1.84-9.4-.91-.53-2.25-1-1.85-2.56s-.28-2.71-1.92-2.77-2.21,1.23-2.84,2.45c-1.78,3.44,1.73,3.11,3.06,4.34.93.87,2.82,1.12,2.61,2.68-.24,1.81-2,1.22-3.27,1.35s-2.55.25-2.28,1.87c.22,1.26,1.39,1.71,2.66,1.82.92.07,1.82-1.12,2.94.16C482,653.39,481.55,655.73,481,658.27Zm1.84-73.54c-4.7.66-8.43,2-10.77,6.26-1.05,1.9-.06,2.33,1.48,2.61a56.4,56.4,0,0,0,5.88,1c1.26.08,3-.18,3-1.84s-1.59-1.17-2.73-1.07a2.16,2.16,0,0,1-2.44-1.33c-.36-1.25.95-1.51,1.71-2.09C480.25,587.33,482.38,587.54,482.88,584.73Zm43.56,3.88c-.73-2.92-2.93-5.24-5.45-7-2.15-1.5-4.53,1-7,.66a2.3,2.3,0,0,0-.37,1.25,1.17,1.17,0,0,0,1.48.93c4.57-1.1,6.43,2,8.1,5.27a1.68,1.68,0,0,0,2,1.08C526.17,590.61,526.41,589.82,526.44,588.61Zm-93.27,11.57c1.15-5.93,3.86-2.58,6.35-1.38,1.25-4.6-4.7-5-4.41-9-2.06,2.46-3.61,5.06-7,5.82C431.1,595.47,431.37,598.18,433.17,600.18Zm-52.26,24.33c.61-3.87,1.69-6.48-.86-8.15-1.27-.84-2.39.67-3,1.85C375.05,622.05,379.22,621.69,380.91,624.51Zm-25.12-3.94c3.31,1.36,6.16,2.14,8.72,0,1.08-.92-.13-1.63-.92-2.21C360.33,616,358.21,617.71,355.79,620.57Zm113.26-19.39c.89-4.67-3.52-5.31-5.11-7.82-.4-.63-.61-2.33-1.91-1.18-.84.74-1.12,1.83.23,2.89C464.54,596.87,466.6,599,469.05,601.18Zm31.19,14.65c1.64-4.93-2.1-5.47-4.24-7-.58-.42-1.61.11-1.86,1.07a1.69,1.69,0,0,0,.93,2.07A13.15,13.15,0,0,1,500.24,615.83ZM259,627.41c-1.51,0-3.24-.25-3.33,1.94-.06,1.55.76,2.63,2.4,2.36s3.28-1.36,3.49-3S259.89,627.65,259,627.41Zm255.26-89.23c-.1-1.14-.55-2-1.78-1.79-2.15.45-2.65,2.27-2.81,4.13-.11,1.26-.05,3.44,1.48,3C513.23,542.85,512.83,539.86,514.21,538.18ZM244.07,633.76c3.28.55,5.3-1.13,6.84-3.5.51-.79.87-2-.37-2.53-.94-.42-2.2-.36-2.35.92C247.9,631.29,245.79,632.23,244.07,633.76Zm31-23.9c-.17,1.81-1.53,3.06-.71,4.9.43,1-.09,2.52,1.58,2.61a2,2,0,0,0,1.55-1c.47-1.09,1.5-2.55-.69-3.1C275,612.85,276.19,611,275.06,609.86Zm-117.25,33c-.19-1-.16-2.77-1.62-2.36-1.82.51-1.34,3-2.48,4.37-.51.61.77,1.19,1.62,1.09C157.09,645.74,157.84,644.63,157.81,642.86Z" transform="translate(-1 -1)"/><path d="M672.26,875.28c-.42,2.93,1.77,2.55,3.18,2.09,4.57-1.51,8.41-1.61,12.6,1.84,2.26,1.86,5.13-.64,7.21-3.36-2.65-.81-3.87,1.4-5.69,1-.1-.33-.34-.85-.26-.92,4-2.92,8-5.83,12-8.65.5-.35,1,.12,1.37.86,1.3,2.67,1.87,2.82,4.35,1.12,1.87-1.29,3.29-2.94,6.07-1.23.74.46,4.8.78,4.93-3.08,0-1.23,1.46-2.5,2.44-3.57a2.15,2.15,0,0,1,3.15-.13c1.18,1.07.48,1.67-.54,2.68-1.76,1.75.19,5.3,3.07,5.95,0,2.15-2.41,4.5.07,6.34,1.21.89,3.09.63,4.53-1.09-2-.94-3.46-1.76-2.73-4.45.67-2.44-1.22-.67-2-.65-.23-2.14-.62-3.71,2.91-3.42,1.74.15,4.2-2.44,5.44-4.36.86-1.34-1.33-2.85-2.41-3.89-1.25-1.21-2.81-2.32-2.26-4,.65-2,3.3-2.53,4.63-2,4.6,1.92,6.41-2.67,9.71-3.6.87-.24.74-1,.51-1.64-2.63-7,2.65-8.34,7.67-10.42-1.5-1.69-3.41-3.42-2.22-5.82.92-1.87,2.91-1.94,4.77-2,1.48-.05,3.61-.6,3.88,1.18.47,3-2.78.35-3.76,2.29,1.36,1.66,4.19,3.4,1.58,6.27,2,1.26,3.81,2.84,5.94,3.66,1.51.58,2.9.2,2.83-2.46,0-1.7,1.9-1.19,2.79.05,1,1.4,1.18,3.49,3.43,3.92-.71-5.07-1.59-5.78-7.28-6.33-1.28-.13-3.56.8-3.34-1.58.15-1.61,2.14-1.12,3.41-1,2.86.15,6.06-.88,7.88,2.71.56,1.09,1.69,3.27,3.36,1.78,2.51-2.24-1.43-2.35-1.79-3.77,3.47-3.15,6,1.61,8.87,1.23,1-2.3-3-1-1.77-3.29.49-.88,1-1.83,2.12-1.91,2.17-.15,2.72,1.58,2.9,3.42,1.79-1,1.25-2,1-2.86s-.43-2,.78-2.52c1-.43,1.82,0,2.69.68,2.58,1.94,11.71,1.49,13.22-1.13,1.1-1.93,1.84-2.61,4-2.42,1.84.16,1.83-.87,1.28-2.62-1.49-4.65-.93-5.18,4.09-5.3a3.68,3.68,0,0,0,.81-.14c-.55-5.17,3.28-2.62,5.35-3,3.74-.65,5.87-3.39,8.06-6,1.76-2.12-2-2.15-1.7-4,3.44-.86,5,2.94,7.79,3-1.93-3.63,2.06-5.92,2.33-9.15.07-.86,1.72-1.62.5-2.85-1.41-1.41-1.75-.17-2.42.88a1.91,1.91,0,0,1-3,.28c-1.22-1.09-.3-2.27.58-2.94,2.85-2.18,5.9-4.1,3-8.39-.48-.71.34-1.67,1.32-1.53,1.46.21,1.73,1.3,1.52,2.62-.18,1.14-1.77,2.61.35,3.31,1.77.59,1.55-1.83,2.82-2.3,2.89-1.08.07-1.71-.26-2.53-.24-.6-.85-1.54-.67-1.73,2.17-2.25,5.27-3.69,6.08-7.12,3,1.61,5.64-2.45,8.62.16,1-2.7-2.38-3.68-1.24-5.92a7.26,7.26,0,0,0,1.76-.24c1.32-.5,2.95,2.17,3.85-.13a4.86,4.86,0,0,0-1.07-5.15c-2-1.72-5.86-2.86-7.23-1.27-2.2,2.56-4.49,1.66-6.82,2.27-8.91,2.34-18,3.93-26.59,7.55a30,30,0,0,1-4.26,1.33,1.93,1.93,0,0,1-2.33-1.39c-.35-.87-1.17-1.87-.14-2.72,5-4.13,9.14-9.49,16.86-8.85a7.11,7.11,0,0,0,6.4-3.12c1.56-2.36,4.79-2.77,7.25-2.29a9.13,9.13,0,0,0,6.62-1.08c4.21-2.35,9.45-2.85,13.21-5.15,6.2-3.8,12.45-4.19,19.11-4.45,2.25-.09,5.57-6.14,4.69-8.21a2,2,0,0,0-1.43-1.08c-1.56-.07-1.72,1.18-1.92,2.38-.24,1.48-.4,3.15-2.47,3.1a2.24,2.24,0,0,1-1.58-1c-.89-1.44,2.06-6.59,3.93-6.78,1.62-.17,3.28,0,5.29,0-1-2.75-2.38-4.42-5.27-4.71-1.56-.15-3.12-1.14-3-2.82.16-2.14,2.19-2.21,3.85-2.3,2-.12,4,0,6-.17,1-.08,2.72.64,2.88-1s-1.17-2.18-2.65-2.31c-.76-.07-1.69.24-2.14-1,2.15-3.39,5.09-.25,7.55-.8q0,82,.1,164c0,3.42-.67,4.11-4.1,4.1-35.67-.16-71.33-.1-107-.1.69-2.07,3.2-3.56,2-6.22-.45-1-1.6-2.06.27-2.76a2.29,2.29,0,0,1,3.24,1.39,9.76,9.76,0,0,0,3.21,4.52,59.88,59.88,0,0,0-.34-6.53c-.32-1.87-1.9-4.44.63-5.08,2.31-.57.23,3.37,2.18,3.94,4.43-2.45,9.64,0,14-2.87-1.44-.51-1.88-1.57-1.86-3.06,0-2.68-.44-6.82-3.77-5.1-4.59,2.37-3.8-3.4-6.42-3-1.4.23-.84,1.51-1.08,2.39-.44,1.6-2.82,3-3.12,2.45-1.58-2.77-5-2-6.75-4-.09-.11.39-.81.69-1.16,2.75-3.35,1.67-6.89.38-10.46,1.12,5.17-5.77,9.74-.92,15.24a1.45,1.45,0,0,1-.67,2.12c-1.1.43-1.27-.34-2-1.15-2-2.38-3.07-5.16-4.58-8.3-1,6.21-6.55,7.64-10.4,10.51-2.55,1.91-2.76,2.93-.11,3.84,3.2,1.11,2.08,3.14,1.3,4.69-1,2.07-3,3.16-5.3,4.09-3.27,1.31-8-.16-9.67,4.5H646c1-1.62,1.74-3.47,0-4.85-1.46-1.19-2.69.34-3.85,1.18a5.91,5.91,0,0,1-5.22.59c-3-.87-3.78.6-4,3.08H615c.07-3.25,2.41-4.4,5-5.38,1.76-.67,2.21-1.44.17-2.42-.41-.2-1.89-.34-1-.86,3.24-1.78.09-2.27-.56-2.79-1.36-1.11-2.21,0-3.2,1.05-2.8,3.06-2.34,6.77-2.42,10.4H566c-.9-5.37,3.79-3.33,6.14-4.34-1.39-2.17-4.13.53-6-3,6.09,2.32,9.46-3.54,14.74-2.86a1.23,1.23,0,0,0,1.48-1.5c-.11-1.09-1.1-1.24-1.91-1.09-1.86.35-3.72.85-4.33-1.75-.25-1.08-1.37-2.27-.37-3.25,1.34-1.3,1.89.85,2.7.95,2.25.26,5.13,2.79,6.58.52s5-4.73,2.21-8.7c-1.11-1.59-1.68-2.06-3.38-1.37a1.6,1.6,0,0,1-2.35-1.13c-.08-1.17,1.13-1.47,2.2-1.43,5.28.2,9.63-2.85,14.71-3.63-.48-2.23-5.14-2.06-2.58-4.2.93-.78,2.14-5.5,6-2.4,1.65,1.33,5.13.33,6.37,3.34,0,0,1.07-.19,1.17-.47a3.61,3.61,0,0,0,.09-1.85c-.53-2.69-3.35-2.07-5.16-3,1.39-3,3.59-1.39,5.39-1.57.23-1.61-4.19-1.44-1.46-3.87.3-.26.67-.78.59-1-.89-2.86-.92-3-.46-3,2.05,0,4.86-2.8,5.63,1.86.53,3.15,2.13,4.35,4.72,1.17.92-1.13,2.46-.59,4.82,0-3.51.69-4.24,2.33-2.75,5.7,1.23-5.87,6.25-2.36,9-4.34,0-2.41-2.71-1.46-3-3.13,5.36-1.87,7.39-1.06,9.21,3.75,2.57-2,5.34-3.61,4.76-7.83-.42-3.09,2.92-3.64,5-4.88,2.23-1.36,3.24.48,4.34,2a5.33,5.33,0,0,0,4.19,2.31c1.1.07,2.56.6,1.78,2.19-.51,1-1.74.73-2.69.37a3.07,3.07,0,0,1-1.26-.77,4.34,4.34,0,0,0-6.17-.15c-1.36,2,.65,3.92,2.41,5.58,1.92,1.81,5.1,3.13,3.5,7.05-.67,1.63-1.85,1.65-3,2.2.49,2.31,5.13,2.62,3.37,5.51-1.85,3.05-5,4.92-9,3.56a4.73,4.73,0,0,0-3.69-.28c.5,1.59,3.38.76,3.11,2.8s-2.22,1.84-3.41,2.55c-5.29,3.15-5.41,4.31-.79,8.11.77.63,3.14.63,1.94,2.56-.73,1.19-2-.14-2.75-.1-2.51.11-3.33,2.82-5.46,4.43,8.73,2.78,15.81.74,22.86-4.6-2.81-1.78-4.31-.12-5.65,1s-3.57,2.82-4.66,1.23c-1.51-2.22,1.76-2.35,2.88-3.41.44-.42,1.18-.5,1.17-1.47-1.59-1.59-3.72-.5-5.57-.89A2.72,2.72,0,0,1,641,869.7c-.41-1.35,1-1.35,1.66-2,4.22-3.6,8.44-7.66,8,2.68,0,.24.72.62,1.16.75a9,9,0,0,0,2,0c-2.87-4.88-1.16-5.09,3.51-4.94,2.3.07,7.06,1.1,8.42-3.51.21-.72,1.48-1.74,2.47-1.08s.09,1.53-.31,2.44c-1.67,3.76-2.72,7.63.54,11.19-3-.88-6.22-1.3-8-4.34a1.69,1.69,0,0,0-2.17-.65c-.3.09-.71.9-.6,1.1,1.49,2.55,4.38,3.33,6.54,5.05,1.75,1.41,3,.13,4.14-1.26l4.11.2ZM626.05,854.2c1.53,5.17-1.76,6.32-5.62,6-2.57-.2-5.41,2.38-7.88-.83-.73-.95-2.46.45-2.18,1.62a23,23,0,0,0,2.46,5.9c1.21,2.18,2.58-.4,3.82-.12,2.62.59,5.29,0,7.83,0,5.4-.12,2.78,2.48,1.94,4.36-1.24,2.82-3.22,1.07-4.47.15-3.63-2.69-4.78,1.36-7,2.37a1,1,0,0,0,1.51,1.3c5.06-4,7.37-1.16,8.84,3.55a1.74,1.74,0,0,0,2.16,1.42c.73-.09,1.51-.59,1.17-1.2-4.15-7.53,3.31-.78,3.52-2.89-2.69-4.3-2.07-12.41,1-16.68,1.58-2.22-.27-3.86-2.06-3.93S628,853.93,626.05,854.2ZM593.7,866.67c.16-1.19.31-2.45-1.27-2.75-3.24-.62-.95,2.65-2.47,3.67s-.19,2.19,1.2,2.82c1,.44,1.58,2.21,2.85,1.09,1.64-1.43-.7-1.71-1-2.6S593.47,867.41,593.7,866.67ZM860.51,765.14c-1.36-4.07.54-4.64,3.3-4.39,1,.09,2.05,0,2.23-1.32a2.52,2.52,0,0,0-.39-1.25c-2.17.53-4.56.75-6.44,1.84C856.88,761.36,858.67,763,860.51,765.14Zm-22.06,38.25c1.87-1.29,3.82,2.13,5.42-.52.49-.82,1-2.75-.88-3.27C840.26,798.86,839.36,800.92,838.45,803.39ZM665.53,883c-.35-1.43-1.14-2.69-2.85-2.84-1.46-.13-1.64.89-1.11,1.95s-.52,3.36,2,3.28C665,885.3,665.64,884.5,665.53,883Z" transform="translate(-1 -1)"/><path d="M893,397c-.32,0-.74.07-1-.1-7.73-5.81-15.4-5.69-24.49-2.19-17.19,6.61-35.21,10.83-53,15.6a26.12,26.12,0,0,1-10.37.8c-1.69-.23-2.94.13-3.11,2.2s.62,3.13,2.78,3.11q8,0,16,0c9.67,0,19.16,1,28.23,4.77a21,21,0,0,1,9.43,7.06c1.44,2,1.66,3.55-1,4.64a15.58,15.58,0,0,0-3.45,2c-1.82,1.34-3.3,1.16-3.57-1.16-.66-5.88-4.76-6.89-10.16-7.23,4.53,5.29-1.21,6.77-3.43,8.68-1.9,1.63-3.87,4.15-7.27,3.72l.27,1.82c4.49,0,9,.14,13.45-.05,3.43-.14,5.3.14,4.1,4.55-1.46,5.35,0,10.55,4.08,16.11A27.13,27.13,0,0,0,839.61,460a9.65,9.65,0,0,1-5.76-1.22c-1.61-1-3.14-2.06-3-4.2.11-2.51,2.56-1.53,3.85-2.3.94-.57,2.24-.53,3.37-.8s3.2.67,3-1.39c-.15-1.73-2.22-1.17-3.36-1.13a79.11,79.11,0,0,1-16.78-1.76c-9.41-1.75-19,1.72-28.44-1-.57,3.33,2.11,3.38,2.84,5.08.84,1.93,2.92,3.66,1.3,5.7a5.47,5.47,0,0,1-5.93,1.68c-5.19-1.87-10.2-.09-15.27.21-1.19.07-2.64.35-2.63,1.74,0,1.66,1.58,1.28,2.69,1.33A6.09,6.09,0,0,1,777,462c2.69.84,6.37,1.43,6.6,4.43s-3.05,4.27-5.82,5.19c-1.7.57-3.32,1.4-5.6,2.37a13.88,13.88,0,0,0,8.75,2.05,65.55,65.55,0,0,1,8.42.57c1.56.14,3.24.25,3.72,1.91.56,1.92-1,3.08-2.42,3.93a53.75,53.75,0,0,0-6,3.62,175.37,175.37,0,0,0,45.56.93c-4.56-9.82-4.55-9.75,5.79-11.11,4.58-.61,9.11-1.06,13.57.43.84-2.48-1.15-2.45-2.11-2.86-3.09-1.33-4-3.68-2.72-6.46,1.42-3,4.05-5.5,7.57-4s7.17,3.46,11.23,3.85a3.85,3.85,0,0,1,.49.08c-.87,4.54,3.16,3.15,5.1,3.95,2.93,1.22,5.68,2.71,8.48,4.16,2,1,5.11,1.26,4.62,4.22s-3.62,3.19-6,3.49c-7.23.9-14.46,1.95-21.79,1.33-1-.08-1.94,0-3.3,0a4.79,4.79,0,0,0,4,2.92c1.74.33,2.47,1.63,2.75,3.17.34,1.84-.92,2.82-2.39,3.33-3.69,1.28-7.14,2.47-11.47,1.82-7.32-1.1-14.85-.8-22.29-1a2.52,2.52,0,0,0-2.75,1.73c-.36,1.34.59,2.14,1.39,3,1.72,1.85,3,3.34,3.1,6.55.21,4.71-2.68,4.19-4.82,4.23-8.54.12-17.1-.15-25.65-.35-2.59-.05-6.85,1-7.31-1.25-.63-3.13-.58-7.46,2.23-10.09,2.57-2.4.72-3.21-1-3.67a29.68,29.68,0,0,0-6.42-.56c-5.13-.26-10.27-.44-15.4-.74-1.86-.11-3.79-.44-4.32-2.66s1-2.93,2.56-3.71c.51-.26,2.34-.31.86-1.19-1.7-1,0-4.11-2.86-4-2.37.12-4.65-1.16-6.79-1-3.11.17-6.77.75-5.94,5.75a6.14,6.14,0,0,1-2.25,6.28c-2.11-1.31-.83-3.35-1.19-5-.58-2.69-.58-5.38-3-7.58-3.24-2.88.27-5.86,1.15-8.47s2.49-.09,3.65.71a1.93,1.93,0,0,0,2.33.21c2.91-2.29,6.49-2.43,9.86-3.24,2-.48,4.42-1,4.23-3.37-.17-2.14-2.6-2.53-4.58-3.11-5.91-1.71-11.61-3.91-16-9.08,7-4.43,14.28-1.52,21.31-1.71.8,0,1.66.7,2.4.57,2.23-.39,5.69-.39,6.34-1.7,1.25-2.51-2.3-2.78-3.7-4.14s-3.57-2.43-2.57-4.9c.92-2.26,3.15-1.26,4.82-1.65,10.3-2.42,20.47.44,30.71.6,1.62,0,3.54.43,4.14-1.75a3.23,3.23,0,0,0-1.8-3.77c-3-1.66-5.08-4.47-3.07-7.23a6.9,6.9,0,0,1,8.85-2.32c.34.18.85,0,1.39,0,0-2.12-1.36-1.57-2.36-1.61-4.65-.17-9.31-.13-13.93-.54-4.22-.38-7.8-8.25-5.52-11.84,1.35-2.13,3.66-1.07,5.53-1.35,3.49-.51,4.79-1.81,1.77-4.54-3.2-2.9-2.26-6.44-1.77-9.79s1.63-6.79,2.46-10.18c1-3.94-.1-5.25-3.81-4.16-4.37,1.28-6.63.72-6.31-4.65.13-2.28-1.47-4.65-2.47-7.51,8.34,5.58,15.64,0,23.39-1.18-4.18-2.75-8.79-3.6-13.43-4.42-3.62-.65-8.07-.15-8.49-5.69a1,1,0,0,0-1.49-.8,2.55,2.55,0,0,0-1.31,2.52c-.1,3.8-.1,7.6-.16,11.4,0,1,.07,2.05-1.2,2.59-2.09-1.14-1.25-3.2-1.26-4.83,0-6.3.21-12.6.27-18.91,0-1.34-.39-2.83,1.47-3.14a2.45,2.45,0,0,1,3,2c.48,4.87,3.9,4.87,7.22,4.29,8.15-1.43,16.47-2,24.38-4.75,4.15-1.43,8.51-1.53,12.84-1.55,11.49,0,23,0,34.48,0,1.7,0,3.53.44,5.14-1.53-7.79-.52-15.57-1.15-23.37-1.53-12.64-.61-25.21-1.29-37.16-6.2-7.41-3-12.7-8.4-17.33-14.52-1.46-1.93-2.51-3.76-5.12-4.13-1.58-.22-2.17-1.39-2-2.94a2,2,0,0,1,2.49-1.82c2.48.78,8-3.08,6.63,4.09-.22,1.16,1.61,1.47,2.57,2.07,7.19,4.4,15.12,6.37,23.39,7.66,12.25,1.9,24.41,4.37,36.63,6.51S880.91,339,893,341v11c-18.41,1.17-36.84,1.44-55.28,1.6-11.41.09-22.33,2.7-33.17,5.88-1.25.36-2.6.66-2.91,2.3,1.87,1.84,4.27,1.76,6.56,1.62,9.07-.56,17.76,2.1,26.64,3.09,1.79.2,4,.59,3.83,3.05-.15,2.31-2.24,2.62-4.09,2.78a35.41,35.41,0,0,1-4.49,0c-5.52-.24-11.17-.33-16.16,2.17-6,3-11.62,3.16-17.5.15-.66-.34-1.67-.27-2.09,1.12a44,44,0,0,0,11.3,4.48c12.21,3.07,24.77,2.24,37.14,3.28,17,1.44,34.06,2.12,50.22,8.44Zm-81.9,6.08C826,399.14,842,394.91,858,390.64c1-.26,1.95-1.1,1.7-2.16s-1.54-1-2.53-1.11c-14.81-1.69-29.79-1.44-44.55-3.74-2.76-.43-3.27.8-3.68,3.2a60.83,60.83,0,0,1-2.85,10.5C804.38,401.9,805.12,403.23,811.1,403.08Zm38.71-64.7c-11.9-3-23.64-6.7-36-6.92C825,338.46,837.81,336.3,849.81,338.38ZM891.06,346c-4.58-4.56-7.3-4.72-10.82-1-1.36,1.44-2.66,2.41-4.74,1.95-1.68-.37-3.89-.56-3.74,1.73.13,1.88,2.47,1,3.81,1.08C881.22,350.27,884.8,343.43,891.06,346Z" transform="translate(-1 -1)"/><path d="M171,888c-2-1.78-2.62-6-7-3.46-1,.59-2-1.41-1.93-2.86.11-1.93,1.13-3.2,3.14-3.14s3.92,0,5.35-1.86c1-1.26,1.88-1.54-.26-3.13-1.63-1.21-1.45-4.89.23-7.18.84-1.14,1.36-2,0-2.82s-2.16.24-2.61,1.38-.79,2.59-2,3.32a2.15,2.15,0,0,1-2.77-.06c-1.1-1.11.18-1.53.69-2.32,1.59-2.46,2.95-5.06,4.37-7.62.32-.57.86-1.64.73-1.74-4.41-3.37-1-6.6,0-9.94.31-1.13.67-2.81-.59-3.73s-2.06.5-3.09.9c-5,2-3-1.83-3.42-3.65,1.27-1.13,1.63-.2,2.22.33a3,3,0,0,0,4.1.05c1.18-.85.35-1.77-.26-2.53-.93-1.16-1-3.73-3.37-2.7-1.66.72-2.91,1.26-3.24-1-.23-1.65-.17-3.46,2.08-3.9,1.13-.22,2.52-.17,2.52-1.77,0-1.39-1.23-1.82-2.29-2.35a12.44,12.44,0,0,1-2.11-1.32c-4-3.14-3.8-5.07.6-7.15.75-.35,1.54-.62,2.3-1s1.55-.89,1.17-1.86-1.22-1-2.09-.7c-1.12.36-2.44.88-3.21-.29-1-1.56.85-1.82,1.53-2.57a2.25,2.25,0,0,0,.32-2.72c-1.38-3.37-.37-6,3.22-8.19-3-1.7-4.74-.21-6.53,1.17-.89.7-1.93,1.73-3,.53-.91-1-.42-2.06.39-3.11A22.65,22.65,0,0,0,161,787.2c.44-4.38,2.94-6.82,7.83-7.05-.33,2.16-2.07,3.07-3,4.41-1.73,2.42-2.87,4.56.32,6.72,1.48,1,1.57,2.44.74,4-.56,1-1.41,2.33.18,2.91a10.45,10.45,0,0,0,4.4.29c1.61-.15,1.63-1.52,1.31-2.69C171,789.14,177,791,179.61,790c3.78-1.37,3.63,2.79,3.86,4.8,1.48,12.6,4.57,25,3.48,37.91-.57,6.8,2.37,13.35,2.27,20.21,0,2.69,2.09,3.68,4.38,4.77,11.7,5.55,24.57,6.87,36.91,9.66,14.72,3.33,29.91,4.34,45.21.8,8.24-1.91,16.49-3.26,24.4-6.57,4.4-1.85,6.8-4.39,7.61-8.88,2-11.08,3.77-22.19,6.2-33.2,1-4.35,4.06-8,3.77-12.7-.08-1.22,1.69-2.37,2.42-1.11,1.73,3,6.5,5.09,3.26,9.79-1.21,1.75-.55,3.67,1.34,4,7.16,1.11,8.35,7.16,10.66,12.3a2.5,2.5,0,0,1-2,3.39c-5.68,0-6.46,2.78-4.68,7.69-1.85-2.13-3.8-3.77-3.83-6.53,0-3.06-2.76-3.74-4.5-3.54-2.53.29-.76,2.57-.74,4.05a6.91,6.91,0,0,1-.42,2.87c-.88,2-1.05,3.16,1.83,2.89,2.53-.24,3.76,2.95,6.6,2.76,1-.07,1.18,2.07.69,3-1,1.84-2.34,4.13-4.64,3.6-3.43-.78-2.87.95-2.32,2.84a9,9,0,0,1,0,4.43c-.13.66-.78,2.08.53,1.87,5.17-.8,2.3,3.09,2.81,4.81.76,2.56-1,3.49-3.92,3.23,1.35,1.72,5.07-.06,3.68,3.39a1.75,1.75,0,0,0,.41,1.15c5.44-1.12,5.43,5.86,9.7,6.51a1.79,1.79,0,0,1,1.3,1.93c0,1.28-1,1.4-2,1.68-5,1.41-9.12-1.11-10.19-6.29-.19-.92,0-2.26-1.49-2-1.22.19-1.21,1.47-1.22,2.44,0,3.39,1.49,6.92-.95,10.08Z" transform="translate(-1 -1)"/><path d="M413,888c.71-2.9-1.6-3.92-3.38-3.74-3.45.36-6.5-1-9.75-1.33-2.18-.23-4.22-.82-4.1-3.36.11-2.36,2.54-2.42,4.2-2.76,3.22-.67,6.52-.35,7.13-5.2.42-3.29,0-5.08-3.19-6-1.74-.51-3.13-1.38-2.66-3.52a3.6,3.6,0,0,1,3.22-3.22c2.76-.45,5.41-1.54,8.14-2.18,1.36-.32,3.17-1,3.48,1.41.21,1.6,1,2,2.4,1.45s3.38-.76,3-2.72c-1.31-7.21,4.06-7,8.5-8.07,3.38-.81,6.78.56,10.23-.52-4.3-1.88-8.34-4.38-13.25-4.14-1.43.07-3,0-3.22-1.56-.28-2,1.48-2.61,3-2.43,4.33.51,8.89-.39,12.74,3.14,1.52,1.4,4.55,1.26,6.92,1.62.92.14,1.4-.74,1.46-1.66a2.1,2.1,0,0,0-1.37-2.38c-3.8-1.49-7.25-4.17-11.41-4.4s-5.89-2.81-6-6a27.89,27.89,0,0,0-1.68-9.18c-1.07-2.88-.13-4.38,3.08-3.15,3.72,1.43,8.08.67,10,6.46,1.85,5.5,8.19,5.93,13.47,2.67,2.86-1.77,6.1-1.22,9.12-.24a2.86,2.86,0,0,1,1.64,3.34c-.39,2.75-3.39,1.38-5,2.79,1.48,2.55,3.76,2.39,5.69,1.74,5.88-2,11.89-.76,17.83-1.07,1.53-.09,3.07.07,3.89,1.65,1.88,3.63,6.46,5.8,8.85,6.38,5.56,1.35,10.51,6,16.57,4.44,7.46-1.89,11.26,4,15.91,7.4,2.36,1.75,2.35,6.11-.7,8.16-2.89,1.93-3.11,3.85-2,6.63.44,1.07.52,2.28.93,3.36.54,1.42-2.29,3.2.36,4.26,1.74.69,3.22-.62,4.61-1.39.94-.52,1.75-2.18,2.81-1,1.58,1.74-1.43,2-1.4,2.57.33,5.94-3.82,2.59-5.79,2.58s-2.65-.05-4.11,1.68c-2.34,2.76-6.3,2.61-9.72,1.7a18.69,18.69,0,0,0-3.62-.69c-4.89-.35-8.62.21-7.95,6.48Zm38.39-7.23c.54-2.29-1.56-2.71-2.65-2.67-3.82.16-4.63-2-4.95-5.12-.23-2.27-.64-4.91-4.24-3.08a2.28,2.28,0,0,1-3.07-.92c-3-6-5.15-.72-7.25.71-1.6,1.09-1.68,3.17-.57,4.94a4.31,4.31,0,0,0,5.07,2.17c5.08-1.28,11.8,1,14.26,5,.57.94.37,2.46,2.08,1.89C451.48,883.26,451.18,881.86,451.39,880.77Zm-2.82-22.23c1.69,1.8,3.21,3.93,6.31,3,.81-.26,1.67-1.43,1.23-1.79-2-1.66-4.29-2.92-7.08-1.85C448.91,857.89,448.86,858.1,448.57,858.54ZM445.9,834c4.8,3.76,7.69,1.8,11.56-1.9C453.08,833,450.09,834.28,445.9,834Z" transform="translate(-1 -1)"/><path d="M688,1c-11.76,13.31-23.53,26.6-36.13,39.14-.58.57-1.56,1.41-1.44,1.92,1.38,6.12-3.61,7.65-7.19,10.15-1.23.86-2.19,1.89-1.58,3.26.81,1.8,1.91-.14,2.93-.13,8.26.11,16.52.14,24.78.21,1.5,0,3.18,0,4,1.46,1,1.83-1.1,2.52-1.75,3.74s-2.79,1.78-1.91,3.62c.78,1.66,2.58,1.2,4,1.22,4.66,0,9.33,0,14,0,1.38,0,3.29-.68,4,1.12.82,2.19-.92,3.56-2.51,4.33-4.76,2.3-9.4,5-14.76,5.79-1.62.24-3.75.21-3.81,2.34-.06,1.84,2.12,1.77,3.39,2.4,3.69,1.82,8,1.91,11.41,4.64,1.26,1,3.31,1.34,3,3.45-.32,2.26-2.51,2.75-4.2,2.88-5.47.4-11,.39-16.46.68-1.41.07-3.45-.85-4.13.73-.91,2.11,1.73,2.39,2.7,3.55s2.85,1.75,2.34,3.5c-.61,2.08-2.7,2.09-4.52,2.4-7.89,1.3-15.92-1.14-23.79.9-1.27.33-2.64.25-3.93.53s-3-.16-3.18,1.69c-.19,1.62,1.5,1.44,2.41,2,2.1,1.31,4.65,2.49,4.21,5.52s-2.77,3.67-5.65,4.45c-7.77,2.1-15.56.38-23.3,1-1.6.14-3.08-.42-3.49-2.17a4.2,4.2,0,0,1,1.34-4.08c.23-.23.59-.32.83-.55,2-1.88,5.21-2.63,5.88-5.66.22-1-1.46-1.44-2.37-1.17-3.68,1.12-8.8-3-11.33,3.6.05-3.68-1.55-4.27-4.35-3.69-2.41.51-5,.38-7.42.69-1.92.25-3.82.42-4.61-1.77s.13-3.8,2.27-4.85c1.36-.67,3.91-.67,3.29-3-.57-2.08-2.85-1-4.38-1.16-5.78-.63-11.56,1.21-17.34,0-1.34-.27-3.41.57-3.61-1.62-.17-1.85,1.75-2.24,3-2.86,4.79-2.28,9.6-4.49,14.42-6.7,2.92-1.35,3.21-2.36.5-4.8-2.89-2.59-6.28-2.81-9.57-3.74-2-.57-4.09-1.23-4-3.73.14-2.65,2.45-2.54,4.43-3,6.87-1.61,14,.67,20.86-1.59,0-1.83-1.31-2.65-2.56-3.34C591,63.45,590,62,590.29,60c.34-2.2,2.54-3,4.17-2.9,7.83.56,15.55-1.44,23.35-.88,1.47.11,3.34.88,4-.85s-.67-3-2.16-4c-1.9-1.26-4.53-2.4-3.62-5.26,1-3.08,4-3.65,6.82-4.2,7.2-1.4,14.5-.23,21.73-.93A6.27,6.27,0,0,0,649,39c5.75-6.2,11.63-12.28,17.41-18.46q7.3-7.83,14.49-15.78c.95-1.06,2.33-2,2.15-3.73ZM591.5,89.79c5.58,0,10.81-.16,16,0,3.8.15,5.5-1.54,4.17-5.06-1.54-4.09-.54-6.74,3.71-8a11.35,11.35,0,0,0,7.52-6c.68-1.42,2.43-5.82,3.28.13.18,1.28,1.14.91,1.88.54,3.66-1.85,6-.23,7.83,2.88,1.24,2.1,3.28,2,5.31,1.8,3.49-.42,4.17,1.46,3.32,4.24-.74,2.42-1.95,4.66-4.68,5.43-2.89.81-5.43,2.36-8.12,3.61-4.33,2-8.93,3.73-12.91-1.12-1.34-1.63-3.61-2-4.48.14a40.86,40.86,0,0,1-4.89,8.06,3.33,3.33,0,0,0-.38,3.33c.63,1.36,2,.9,3.09.86,6.57-.27,13.14-.47,19.71-.83,4.63-.25,9.27-.63,13.88-1.17,1.12-.14,3.07,0,3.07-1.82,0-1.49-1.68-1.32-2.71-1.66-3.19-1-3.4-2.94-1.38-5.2a5.8,5.8,0,0,1,4.53-1.75c3.16,0,6.31,0,9.47-.07,1.4,0,2.76-.4,3-2s-1.2-1.71-2.29-1.87c-1.66-.25-3-.91-3-2.74a4.5,4.5,0,0,1,2.74-4.35c2.09-1.06,4.78-.84,6.87-3.1-3.84-1.57-7.45-1.21-11-1.23-2.67,0-6.1,1.63-7.43-2-1.44-4,3.39-3.64,5.31-7-8.91.56-17.49-5.87-24.87,2.68-1.7-1.43,2.67-4.29-.79-4-5.48.43-10.94.21-16.4.58-1,.06-2.09.11-2.24,1.44a1.83,1.83,0,0,0,1.11,2c2.06.85,2.7,2.2,2,4.37-.83,2.62-2.93,2.28-4.89,2.31-2.82,0-5.63-.19-8.39.81-2.56.92-2.79,2.82-1.08,4.09,5.11,3.8,1,5.54-1.41,7.68C594.72,86.91,592.51,86.88,591.5,89.79Zm14.69,6.56c-1.5,2-5,.51-5.64,3.5-.21,1,1.48.82,2.4.92C605.8,101.07,606.64,99.43,606.19,96.35Z" transform="translate(-1 -1)"/><path d="M1,603c2.7,1.36,5.57.46,8.36.64,1.55.11,3.06.17,3.84-1.54a4.36,4.36,0,0,0-.64-4.7,43.05,43.05,0,0,0-3.08-3.27c-3.51-3.65-3.24-4.93,1.46-7,3.36-1.51,6.9-.69,10.36-.79,4.33-.13,8.66-.14,13-.11,1.77,0,4-.43,4.64,1.91.75,2.57-1.39,3.53-3.13,4.42a16.81,16.81,0,0,0-7.64,8.17c4.05,2.73,8.53,1.6,12.77,1.67,6.15.1,12.32-.09,18.45-.53,3-.21,6.11-.09,3.44-5.42-4.7-9.37-7.31-19.49-4.57-30.22.7-2.71.75-5.48,4.12-6.74,2.3-.87,1.78-3.28,1.48-5.28-.88-5.76,3.69-13,9.25-14.4,1.21-.32,2.85-.74,3.53.8.61,1.36-.86,1.53-1.71,1.85-2.8,1.05-1.15,2.73-.38,3.9,1.75,2.65,1.66,5.09.14,7.81-5.65,10.13-5,20.73-2.12,31.47,2.44,9.26,10,13.65,17.23,18.42,8.07,5.37,17.17,7.75,26.66,8.94,1.23.16,3.18,0,3.3,1.59.15,2-2,1.84-3.31,2.37-3.46,1.42-7.25-2-10.68.8-.11,1.16.94.93,1.64,1.08,1.21.26,2.44.72,2.25,2.15s-1.66,1.37-2.79,1.43c-6.36.37-12-2.55-17.75-4.41-2.26-.73-3.71-1-5.9.26C77,621.75,69.55,622.36,63.28,626c-1,.58-2.23.66-2.3,2.17s.74,2.17,2,3c4,2.75,8.74,3.54,13.22,5,1.89.62,3.83,1.1,5.68,1.81.89.34,1.93.86,1.92,2s-1.19,1.45-2.14,1.63c-1.78.33-3.71,1.11-5.37.74-6.25-1.41-12.18.36-18.2,1.3-1.75.28-3.89.26-4.65,2.35-.84,2.34,1.3,2.53,2.65,3.39a3.5,3.5,0,0,1,1.51,3.48c-.19,1.39-1.48,1.78-2.61,2a32.53,32.53,0,0,1-6.93.65c-7.85-.57-15.59,1-23.41.94a4.19,4.19,0,0,0-4.2,2.89c-.89,2.09,1.25,2.42,2.21,3.34,2.12,2,4.18,4.21,2.79,7.35s-4.18,3.86-7.46,3.8c-5.66-.09-11.32.09-17,.15V654c9.89-2.88,20.06-2.23,30.16-2.39a18.31,18.31,0,0,0,9.65-2.48c-1.26-1.09-2.12-1.87-3-2.59-1.81-1.46-4.22-3.09-3.11-5.54,1-2.15,3.71-2.55,6.15-2.47,1,0,2,.05,3,.05H61.62c-1.64-3-3.06-4.66-6-4.86a15.76,15.76,0,0,1-5.19-1.67c-1.64-.74-3.57-1.55-3.23-3.87.26-1.83,1.6-2.82,3.39-3.22A33.25,33.25,0,0,0,55,623.85c2.94-1.1,6.07-1.9,8.5-4.13a2.88,2.88,0,0,0-3-1.22c-6.16,1.1-12.27-.35-18.4-.25-1.4,0-3.36.67-4-1.13-.7-2.06,1.44-2.64,2.62-3.71a22.17,22.17,0,0,1,5.51-3.34c1.32-.65,2.81-1.32,2-3.36s-2.49-2.2-4.09-1.54c-2.1.86-4.32.4-6.32.88-5.53,1.32-11.12.24-16.69.83-6.57.7-13.45,2.42-20.16.12Zm65.55-.6c-1.13,5.19-6.12,4.88-9,7.32-.89.75-2.18,1.21-2,2.52.21,1.71,1.86,1.14,2.84,1.19,5.88.29,11.77.45,17.65.58.57,0,1.48-.27,1.67-.68.55-1.2-.56-1.8-1.33-2.3A40.26,40.26,0,0,1,66.55,602.4ZM28.84,590.65c-3,0-5.65-.14-8.27.05-1.77.12-4.47-.53-4,2.79.39,2.9,2.5,3.77,5.06,3.46C25.23,596.52,28.07,595,28.84,590.65ZM7.63,669.5c2.17-.66,4.63-1.2,5.14-3.85.33-1.73-1.4-2.09-2.67-2.11-2.43,0-4.65.73-5,3.49C4.88,668.45,6.13,669.29,7.63,669.5Z" transform="translate(-1 -1)"/><path d="M893,206c-8.09,4.21-17,3.6-25.67,4.29a25.17,25.17,0,0,0-3-.12c-2.36.48-5.84-1-6.86,1.53s2.81,2.48,4.22,3.94c3.47,3.61,3.39,5.4-1.22,7.22-5.64,2.23-11.74,1.59-17.61,2.32a39.39,39.39,0,0,1-12.35-.18c-3.3-.64-4.41-3.2-2.11-5.61,1.89-2,4.19-3.58,5.94-5.86-7.38-1.26-14.27-.54-21.16,0-3,.22-6,.33-9,.4-1.35,0-2.79,0-3.14-1.75-.29-1.45.9-2,1.84-2.67.68-.47,1.47-.77,2.19-1.19s2-.87,1.81-2.08-1.54-1-2.47-1.08c-5-.23-10-.74-14.87.75a7.83,7.83,0,0,1-7.56-1.23c1.39-2.95,3.64-4.22,6.88-4.83,2.68-.5,5.25-2.08,7.62-3.58,1.51-.95,4-1.93,2.81-4.54a4.48,4.48,0,0,0-5.81-2.6c-1.82.6-3.45,1.06-5.23,0-1.41-.82-3.56-1.28-3.27-3.26.33-2.19,2.22-3.26,4.46-3.1,5.59.4,10.76-1.52,16.08-2.65,2.29-.49,4.44-.41,1.35-3.33-2.81-2.65-.06-4.23,2-5a34.17,34.17,0,0,1,14.1-2.52,75.54,75.54,0,0,0,12.93-.76c1.39-.15,2.64-.61,2.9-2.23s-1-2.21-2.26-2.79-3.41-.66-3.22-2.55a4.93,4.93,0,0,1,3.11-4.19c1.39-.55,2.79-1.51,4.18-1.5,8.64.08,17.11-2.38,25.78-1.54,1.24.12,2.93-.47,3.36,1.29.35,1.38-.43,2.54-1.6,3.4-.66.48-1.61,1-1.77,1.66-.45,1.88-4.24,1.95-2.69,4.61,1.33,2.28,3.84,1.53,5.94,1.37,7.76-.62,15.51-1.33,23.27-2Zm-7.39-24.23a3.19,3.19,0,0,0-3.43-1.5c-3.45.32-6.95-.39-10.39.78a4.3,4.3,0,0,1-4.54-1.45c-.75-.87.09-1.8.48-2.71.75-1.75,4.35-2.17,3.11-4.29s-4,0-6.09-.33a13,13,0,0,0-3,0c-11.59.68-23.37-.63-35,3.51,1.63,1.45,4.92,1.38,4.12,4.36-.69,2.57-2.78,3.58-5.35,3.62a21.4,21.4,0,0,0-3,.07c-3.27.57-6.72.75-9.71,3.66,1.22.22,1.85.36,2.49.44,1.62.22,3.75,0,4,2.11s-1.63,3.07-3.44,3.62a12.81,12.81,0,0,0-5.28,3.51c5.55,2.37,10.84-.29,16,.68,1.07.2,2.53-.49,3.12.87.66,1.55-.79,2.63-1.67,3.28a60.16,60.16,0,0,1-6.67,3.78c1,2.1,2.78,1.61,4.41,1.71,7.33.45,14.37-1.88,21.66-2.11,6.6-.22,13.31.7,19.82-1.23.87-.26,2.14.36,2.49-1s-.89-1.58-1.63-2.17c-1.13-.9-3-1.81-1.86-3.47s1.6-4.06,4.6-3.78,6.31,0,9.47.06c2.86,0,5.68-.07,8.15-2.17-1.71-1.44-3.18-.32-4.59-.45a6.19,6.19,0,0,1-5.63-4.23c-.7-2.49,2.36-2.17,3.71-3.13A40.62,40.62,0,0,1,885.61,181.77Z" transform="translate(-1 -1)"/><path d="M1,870c7.63,0,15.26,0,22.89.16,1.33,0,3.4-1,3.89.89s-1.22,3.22-3,3.91c-.75.29-1.68.29-2,1.79,3.73,2.25,8,1.84,12,1.32a30.59,30.59,0,0,1,10.37.11c1.44.3,3.44-.16,4.11,1.23,1,2.09-2.55,1.78-2.48,3.7.71,1.44,1.66.28,2.49.16s1.77-.07,2.07.85c.35,1.11-.64,1.34-1.41,1.59a14.34,14.34,0,0,1-6.28.73c-3.23-.35-7-2.09-9.66,1.56H13l9.86-4L1,883Z" transform="translate(-1 -1)"/><path d="M1,626c5.47-1.2,9.36-6,15.35-6.34,2.59-.14,4.53.17,6.24,2a6.58,6.58,0,0,0,4.75,2.31c1.79.05,4.53.15,4.72,1.9a9.42,9.42,0,0,1-2.15,7.36,3,3,0,0,1-1.24.8c-4.94,1.62-9.32,4.44-14.05,6.42-2.94,1.23-6.34,1.16-7.9-3.25C6,635.07,3,635.53,1,635Z" transform="translate(-1 -1)"/><path d="M893,429a39.77,39.77,0,0,0-9.11,6.62c-1.68,1.54-3.72,3.42-6,2.42-1.85-.79-4-2.51-4.18-4.58s2.51-1.58,4-2.15c6.37-2.57,12.2-5.78,15.39-12.31Z" transform="translate(-1 -1)"/><path d="M63,888c.81-4.2,3.35-5,6.88-3.26,3,1.48,4.12.56,3.71-2.54-.29-2.15.37-3.24,2.63-3,2.42.22,2.54,1.93,2,3.63A6,6,0,0,0,79,888Z" transform="translate(-1 -1)"/><path d="M1,816c5.18,4,6.28,8.63,3.06,12.34-1,1.15-1.95.87-3.06.66Z" transform="translate(-1 -1)"/><path d="M798,746c-.31,1.07,0,3.06-1.23,3-4.8-.34-6,4.28-9,6.26-2.75,1.78-1.85,6.3-5.49,8.1-1,.5,1.5,2.23,2.67,2.73a17,17,0,0,1,7.91,6.61c1.19,1.89,1.48,3.88-1.59,4.45-1.81.34-4.85-.78-4.89,2,0,3.15-1.64,7.13.92,9.47,3.67,3.36,1.79,7.24,1.78,10.73,0,2-2.4,4.59-5.33,1.55-1.74-1.8-3.32-2.44-5.11.41-1.66,2.64-7.43,3.17-9.92,1.39a3.59,3.59,0,0,1,.66-6.14c1.94-.77,3.58-2.3,5.9-2.36,1.48,0,2.2-1.35,2.17-2.87,0-1.17,0-2.7-1.49-2.71-7-.08-10.07-5.42-13.53-10.14-1-1.33-2.13-2.54-3.64-2.05-6.68,2.15-12.64-1.87-19.09-2-5.57-.16-11-1.19-16.72-.2-3.72.64-7.65-.95-11.46,1.45a39.58,39.58,0,0,0-3.65,3c-1.44,1.15-3,2.24-5,1.06-.47-.28-1.09-1.09-1-1.47.54-1.84,2.92-.21,3.75-2-1.08-2.77-5.44-.71-6.21-3.82-.63-2.54-.88-5.17-1.44-8.68-3.26,4.84-8.58,2.18-12.13,5-.65.51-2.61-.06-2.4-1,.81-3.55-3.17-4.73-3.49-8a5.4,5.4,0,0,0-6-5c-3.24.18-6.53-1-9.83-1.38-2.34-.25-3.74-1-3.65-3.64s-.32-5.12,2.94-6.07a18.7,18.7,0,0,0,3.69-1.35c.93-.49,1.53-2.23.67-2.37-4.53-.76-1.68-5.21-3.82-7.13-.64-.57-.38-2.08-1-2.76-5.67-6.39-1.93-13.82-2.39-20.77a3.84,3.84,0,0,1,.59-2.38c6.28-8.3,8.16-18.42,11.57-27.9,1.54-4.28-.14-8-3.27-10.62-4.18-3.51-8.82-6.48-13.33-9.59-5.11-3.53-11.27-2.91-16.9-3.33-10.1-.74-17.21-6.48-24.52-12.25-.71-.57-1.16-1.41-.46-2.12.91-.92,1.91-.12,2.69.37,4.72,3,8.88,7.11,14.75,8.09,2.94.5,5.94,1.88,8.78,1.58,12.88-1.35,21,7.7,30.64,13.48,2.7,1.62,2,5.82,5.23,8.41.13-4.93-2.09-8.1-4.91-10.7a117.63,117.63,0,0,0-9.47-7.25,3.71,3.71,0,0,1,3.53-2.06c10,1.11,19.06-3.75,28.77-4.06,12-.38,24-3,36.06-.05,1.17.28,3.15-.11,2.81,1.91s-2.18,1.82-3.66,1.52c-10-2.05-19.81-.13-29.63,1.52-7.69,1.3-15.4,2.51-23.1,3.77-1.08.18-2.56-.14-2.81,1.42-.17,1.13.91,1.69,1.69,2.27,4.95,3.66,7.06,9.12,9.15,14.56,1.71,4.43-1.25,8-2.67,11.76a81.12,81.12,0,0,1-7.35,14.67c-2.52,4-3.29,8.32-4.33,12.63-.6,2.49-1.09,5.78,1.36,7.47s5.9,0,7.82-1.32c8.83-6.25,19.11-7.34,29.21-9.2a5.34,5.34,0,0,1,2.94.27c4.07,1.75,8,2.31,11.61-1,0-1-1-1.13-1.68-1.49-1.77-.94-4.68-.88-4-4,.61-2.78,2.39-5.22,5.23-5.42,9.9-.69,19.7-2.64,29.69-2.3,2.77.1,5.19,1,7.71,1.87,1.27.41,2.83.69,2.6,2.45-.19,1.55-1.5,2-3,2-1.21.06-3.26-.4-2.88,1.59.33,1.76,2.26.49,3.46.69,2.78.46,4.79-4.74,8.08-.65-.16,1.66-2.93.72-3.45,2.92,3.37.33,6.72.76,10.09,1s5.42,1.23,6.59,4.78c1.42,4.27,4.31,7.52,9.51,7.27a4.21,4.21,0,0,1,3.8,1.85c.69.88,1.81,2.3,3.24,1.59.92-.44.75-3,2.71-1.57,1.27.92-.75,2.37,0,3.2,5.29,5.55.89,7.56-3.35,9.7-2.38-1,.67-3.13-1.23-4.53-2.3,2.57-5.06,4.37-8.89,3.68a2.45,2.45,0,0,0-2.54,2c-.5,1.69.88,1.8,1.94,2.25.75.31,1.88.74,2,1.31,1.2,5,5.69,3.79,8.95,4.87Zm-49.24,20c6.12.4,12,3.12,17.6-.8,1.08-.75,2.36-.05,2.51,1.43.1,1.13.43,2,1.51,2.3,6,1.67,5.89,7.36,7.67,11.74.38.94.28,2,1.54,2,1.47,0,1.29-1.26,1.37-2.19.19-2.31-.12-4.68.81-6.9.7-1.69.84-3.63-.77-4.53-3.38-1.87-2.28-4.19-1.22-6.69,1.13-2.68,1.7-5.08-2.08-6.28-2.08-.65-3-2.27-3-4.62,0-3.12-2.25-2-4-1.64,1.37,3.68-5.66,5.17-2.45,9.38a1.73,1.73,0,0,1,.06,2.3,1.41,1.41,0,0,1-2.19-.06c-3.15-3.21-6.32-1.28-9.7-.4C753.45,761.9,750.12,761.77,748.78,766Z" transform="translate(-1 -1)"/><path d="M299.57,669.21c1.91,4.24,5.31,7.87.6,11.57-.63.5-.22,1.54.58,2.1,1.14.79,3.27,1.41,1.46,3.2a3.22,3.22,0,0,1-4.57-.15c-3-3.38-3.68-2.42-4.16,1.51-.45,3.61-3.11,2.18-5.4,1.82-1.45-.23-3.08-2-4.54-.14a2,2,0,0,0,.1,1.82c1.23,1.65,2.81,1.8,4.86,1.35,3.94-.88,4.48.45,2.9,7-2.52-1.24-1.87-6.37-6.14-5.12-2.71.8-5.38,1.56-7.77-1-1.49,2.69-1.6,5.1-5.63,6.12-14.91,3.78-29.65,1.8-44.54.89-16.64-1-32.55-5-48.15-10.46-9.88-3.44-9.84-12.76-2.93-18a65,65,0,0,1,31.34-12.84c5.72-.79,11.43-1.9,17.08-3,16-3.09,32.11-1.71,48.17-1.85,8.46-.08,17,.2,25.21,2.5,8.6,2.41,17.18,4.9,25.77,7.36.63.18,1.81.37,1.81.55,0,2,3.88,2.18,2.52,4.09-1.13,1.59-3.34.77-4.75-.78-1.59-1.73-3.68-1.27-5.63-1.16-2.34.14-3.06,2-3.21,3.84-.22,2.45,1.8,1.73,3.2,1.75,1.17,0,2.78,0,2.87,1.29.12,1.83-1.83,1.89-3,1.77-2.9-.32-5.11-.19-7.84,1.84-2.32,1.72-4.43-1.82-5.85-4C303,671.61,302.91,669.48,299.57,669.21Zm9.13-4.1c-1.13.35-3.2-.72-3.3,1.07-.12,2.14,2.08,1.59,3.44,1.66s3.19.4,3.13-1.42S309.94,665.32,308.7,665.11Z" transform="translate(-1 -1)"/><path d="M618.22,345.41c1.92,1.28,5,1.42,4.31,4.35s-3.6,2.6-5.81,2.46c-8.51-.57-16.91,1.21-25.4,1a12.49,12.49,0,0,0-3.92.61c-2.18.68-3.48,1.67-.79,3.57,2.49,1.76,6.63,3.11,5.23,6.87-1.29,3.43-5.33,1.17-8.1,1.66-5.59,1-11.25.92-16.9,1.09a13.39,13.39,0,0,1-2,.13c-2.11-.25-5.06-.42-5.53-2.35-.49-2.09,1.38-4.22,3.45-5.6,1.74-1.16,5.53-1.07,4.55-4-.92-2.73-4.32-1.77-6.75-1.52-6.93.72-13.84,1.62-20.78,2.32-1.3.14-3.27.89-3.67-1.33-.35-1.94.82-3.14,2.65-3.63,1.48-.4,3.33-.76,3.05-2.62-.36-2.27-2.6-1.79-4.11-1.65-4,.36-7.89,1.08-11.86,1.46-1.68.17-4.16,1.06-4.7-1.34s2.13-2.68,3.67-3.32c7.6-3.14,15.49-1.92,23.32-1.34,1.5.11,3,.27,4.47.4s3.58-.43,4.37,1.56-.86,2.56-2.21,3.26a1.22,1.22,0,0,0-.63,1.67,2.63,2.63,0,0,0,2.84,1.64c7.23-1.66,14.64-.39,21.86-1.31,7-.9,13.91-.63,20.87-.92,1.14,0,2.53.31,3.13-.95s-.34-2.09-1.05-3.07c-2.69-3.69-1.89-5.39,2.86-5.84,5.09-.48,10.27.61,15.39-.75-.09-2.77-2.71-2.22-3.92-3.36s-2.54-1.48-2.35-3.43,1.2-2.58,2.77-3c1.12-.33,2.19-.8,3.27-1.22s1.87-.93,1.47-2.18c-.34-1-1.27-.75-2.09-.71-3.45.16-6.85-1.36-10.33-.16-1.29.44-2.74.61-3.55-.83s-.14-2.55.83-3.61c.61-.67,2-1.09,1.33-2.28s-2.05-.78-3.18-.75c-11,.27-21.84,2.19-32.83,1.65-1.34-.07-3.62.94-3.8-.95s2.16-2,3.76-2.32c5.33-1,5.67-1.6,3-6.3-.91-1.62-1.27-3.13-.28-4.66a4.18,4.18,0,0,1,4.48-1.56c7.49,1.42,14.83,1.35,22.11-1.16,1.42-.49,3.14-.49,3.9,1.22.91,2-.4,3-2,3.85a6.76,6.76,0,0,0-2.78,1.94c-1,1.54-3.67,2.84-2.15,5s2.77-.77,4.29-.91c7.61-.68,15.15-2.15,22.83-1.85,1.36.06,2.73.27,3.38,1.7.83,1.85-.74,2.2-1.85,2.87s-1.42,1.64-.43,2.43c1.85,1.46,4.15,1.1,6.27.91,2.55-.23,1.83-2.39,1.84-3.9.1-12.35-3.75-23.84-7.75-35.3-2.18-6.25-4.34-12.51-6.55-18.75-.35-1-.84-2.18.26-2.62,1.63-.67,1.85,1,2.13,2,4.11,14.09,10.44,27.44,13.94,41.74,1,4.13.65,8.3.5,12.44-.13,3.56,1.23,4.91,4.64,4.5a3.36,3.36,0,0,1,1,0c1.93.41,5-1.19,5.43,1.83C648,323,645,322.8,643,323.51c-2.92,1-6.11,1.44-6.63,6.08-.49,4.41.36,6.6,4.68,7.49,1.29.27,3.47.12,3.24,2.29-.2,1.86-2.24,1.76-3.58,2.16a29.45,29.45,0,0,1-4.44.56,2.76,2.76,0,0,0-2.58,2.54c-7,34.7-24.4,63.67-48.44,89.13C576,443.51,566,452.45,557.61,463a39,39,0,0,0-8.53,22.85c-.19,3.86,3.31,5.88,6.1,8,1,.76,2.88,1.29,1.92,2.89s-2.44.28-3.6-.16c-3.87-1.46-9.23-10.27-8.19-14.39,1.72-6.86,4.06-13.39,8.61-19.23,8.81-11.29,19.74-20.53,29.07-31.27,10.57-12.16,20.57-24.74,28.25-39,3.85-7.16,8.71-13.81,11.35-21.56s5-15.43,7.23-23.22c1.45-5,.63-5.84-4.49-4.94C623,343.37,620.21,342.52,618.22,345.41ZM633,330.15c-.22-1.08.52-3-1.63-2.68-1.82.3-4.26.72-4.21,3.25,0,1.76,1.82,2.86,3.43,3C633,333.89,632.76,331.77,633,330.15Z" transform="translate(-1 -1)"/><path d="M430.56,216.18c2.83,0,5.66,0,8.49,0,1,0,2.19-.08,2.52,1.11s-.75,1.81-1.6,2.25c-4.71,2.46-9.48,4.82-14.19,7.28-1,.51-2.46.65-2.58,2.06-.15,1.78,1.58,1.94,2.68,2.48,3.12,1.55,6.21,3.22,9.83,3.39,1.2.05,2.43.31,2.61,1.78s-.93,2.06-2,2.52c-4.41,1.85-9.12,1.38-13.72,1.67-1.65.11-3.33-.17-4.87.7-2.09,1.18-3.38,2.5-.61,4.35,1.59,1.07,3.17,2.5,2.47,4.38s-2.95,1.06-4.51,1.24c-7.58.9-15.17,1.66-22.76,2.42-1.72.17-3.45.29-4,2.31s1,2.41,2.34,3.24c1.5.95,3.22,2.33,2.69,4.34s-2.54,1.72-4.19,2c-6.94,1.3-14.1.07-21,1.93a2.23,2.23,0,0,1-2.81-1.49,3.08,3.08,0,0,1,1.05-3.59,40.51,40.51,0,0,1,4.35-3.27c1.05-.68,2.09-1.29,1.59-2.68s-1.75-1.42-2.93-1.4q-8.73.1-17.47.26a27.22,27.22,0,0,1-4.94.05c-1.66-.3-4.06.25-4.6-2.13-.6-2.61,1.68-2.76,3.38-3.34a2.22,2.22,0,0,0,1.54-2.33c-.08-1.68-1.46-1.6-2.59-1.57-5.65.15-11.31.44-17,.49-1.69,0-4.23.63-4.6-1.78-.33-2.2,2.1-2.53,3.7-3.35,4.86-2.5,10.28-3.75,14.82-7,2.23-1.6,2.21-2.35-.05-3.82a17,17,0,0,0-7.86-2.86,21.93,21.93,0,0,1-5.29-1.26c-1.95-.73-3.74-2-3.08-4.44s2.95-1.83,4.69-1.78c5.63.19,11.25.55,16.87.78,2.05.08,4.36-.15,5-2.34.82-2.7-2.06-2.5-3.47-3.28-1.87-1-3.57-2.09-3.06-4.52s2.69-2.19,4.45-2.09c8.51.48,16.87-1.54,25.35-1.42,1.11,0,2.53.55,3.15-.76.7-1.48-.86-2.34-1.41-3.48-.06-.14-.23-.24-.36-.35-2.27-1.79-6-3.17-4.52-6.78s5.39-2.39,8.45-2.56c4.63-.25,9.3.42,13.91-.75A10.17,10.17,0,0,1,399,193c4.16.91,4.61,2.37,1.87,5.67-.63.76-1.43,1.4-2,2.19-1.12,1.5-4.17,2.15-3.07,4.53.86,1.87,3.59,1.68,5.43,1.74,5.13.16,10.31.8,15.41-.47a23.4,23.4,0,0,1,3.46-.46c2.27-.22,4.81.17,5.67,2.21,1.05,2.52-2.27,2.7-3.37,4.15-.88,1.17-3.56.86-3.12,2.63.52,2.09,2.83,1,4.35,1.12,2.32.16,4.66.05,7,.05Zm-36.09-4.79c-10.19-.63-20.2,1.15-30.25,2.33-1.3.15-3,.43-3.46,1.67-.62,1.77,1.4,1.88,2.43,2.5,1.6,1,2.6,2.23,2,4.09s-2.09,2-3.69,1.68c-3.83-.75-7.63.24-11.44.08-2-.09-4.49-.37-4.76,2.34-.28,2.88,2.23,2.76,4.23,2.86a4,4,0,0,1,4.06,3.7c.32,2.33-1.82,3-3.46,3.62a13.21,13.21,0,0,0-4.41,2.19c-.74.65-1.9,1.12-1.57,2.28s1.59,1.12,2.54,1.12c4.16,0,8.32-.18,12.47-.16,1.4,0,3.34-.77,4,1s-1.35,2.41-2.17,3.56-2.9,1.94-2.19,3.5,2.8,1.89,4.44,1.66c12.18-1.69,24.47-1.75,36.72-2.53,1.77-.12,4-.14,4.7-2.16s-1.57-2.63-2.75-3.68c-.75-.67-1.71-1.27-1.48-2.4.3-1.48,1.75-1.18,2.78-1.6,3.85-1.56,7.88-.94,11.83-1.22,1.29-.09,2.92-.16,3.2-1.79.22-1.29-1.15-1.92-2-2.6-5.59-4.35-5.61-4.33.72-7.38a2.35,2.35,0,0,0,.45-.22c1.22-1,3.56-1.39,2.79-3.49-.54-1.46-2.42-1.47-4-1.32a63.28,63.28,0,0,1-7.38.6c-2,0-4.86,1.23-5.66-1.55-.59-2.05,1.5-3.46,3.18-4.6.28-.18.58-.32.86-.51.86-.57,1.75-1.3,1.57-2.36-.28-1.68-1.81-1.1-2.84-1.12C402.13,211.36,398.3,211.41,394.47,211.39Zm-15,52.85c1.55-.22,3.81.21,3.89-2.39,0-1.36-.45-3.13-2.52-2.87s-4.53.37-4.72,3.25C375.94,264.49,377.88,264,379.43,264.24ZM387,203.32c1.28-1.09,3.45-2,3.69-3.37.33-1.75-1.9-2.38-3.53-2.36s-3.1.74-3,2.54A3.74,3.74,0,0,0,387,203.32Z" transform="translate(-1 -1)"/><path d="M130.44,515.41c-.55,3.49,1.74,6.77.17,10.26-.17.37,0,1.3.23,1.39,4.84,1.83,1.76,7.42,4.81,10.08.76.66.39,1.51,0,2.26l-.73,1.31c3.88.26,3.55,5.43,7.05,6.09,2.31.43,5.87-.78,4.14,4.08-.33.93,1.39,3.55,2.59,3.89,7.14,2.06,8,8.81,11.52,13.7,4.76,6.5,2.57,12.77,1.63,18.65-1.15,7.09-6.85,12.35-12.1,17.29a2.64,2.64,0,0,1-1.87.37c-4.36-.49-4.69,2-4.64,5.5.08,5.83-5.38,10.74-11,10.37a5.53,5.53,0,0,1-4.59-8.28c1.63-2.68,3.32-5.74,5.81-7.42,6.26-4.23,9.52-10.86,14.17-16.34,3.64-4.28,1.93-8.55.24-13.65-3.55-10.71-13.64-17.29-16.48-28.35-.84-3.3-3.61-6.2-3.78-10a1.84,1.84,0,0,0-1.47-1.77c-5.6-1.67-5.94-8-9.74-11.21a1.42,1.42,0,0,1-.23-1.35c4.15-4.56-1-6-2.91-8.31-2.89-3.44-3.14-4.17-.62-6.8-2.8-1-5.18-1.83-6.2-5.43-.76-2.65-1.74-6.16-5.07-7.63a1.86,1.86,0,0,1-.78-1.61c3.27-7.2-4-4.88-6.32-6.95-.19-.17-.85.19-1.3.31,1.48,3.6-2.45,5.53-2.62,9.26-.31,6.78-2.23,13.43-.59,20.4.42,1.77-2,2.73-3.67,2.3-2.51-.63-3.5-2.93-3.9-5.21-1.25-7,2.72-13,3.8-19.48,1.37-8.2,7.72-15,6.2-23.89-.59-3.49,2.81-6.29,2.64-10-.06-1.34,1.54-1.39,2.73-1.56,4.25-.62,8.1,1.67,12.28,1.6,1,0,1.28.92,1.28,1.81a2.08,2.08,0,0,1-1.71,2.18c-3.85.75-5.43,3.55-6.35,6.9-.65,2.39-1.57,5.16,2.13,5.87,2.68.51,2.45,5.5,6.55,4.05.4-.14.78,3.05-.79,4.17-3.29,2.32-.57,4.43.85,4.78,5.18,1.28,6.19,6.54,9.69,9.38,1.89,1.53.49,4-1.61,5.37a1.7,1.7,0,0,0-.87,2.1c.36,1,1.23,1,2.06.78,4.1-1.05,4.08,1.83,3.9,4.36C124.46,517.37,124.36,517.36,130.44,515.41Z" transform="translate(-1 -1)"/><path d="M304.94,733c3.3,4.07,7.49,3,11.63,2,5.76-1.46,7.95-.41,9.1,4.49.29,1.24.21,2.38-1,3s-1.88.05-2.4-1-1.27-2.06-2.71-1.3a3.37,3.37,0,0,0-1.68,2.9c-.14,1.72,1,2.16,2.38,2.61,2.77.89,2.84,1,7.7-1.57-2,4.67-4.45,8.4-5,13a9.54,9.54,0,0,1-1.38-.78c1.85-5.63-.37-8.25-6-9.69-4.19-1.08-7.06-4.88-10.26-7.76-2.33-2.09-4.66-2.45-7.31-1.17a77.55,77.55,0,0,1-34.78,7.37c-9-.08-18.4.23-27.21-3.6-4.17-1.82-8.94-2.09-13-4.55-2-1.21-4.23-.28-6.27,1.52-6.13,5.4-13,9.18-21.64,8.29a3.28,3.28,0,0,0-2.34.39c-2.18,2.25-4.27,3-5.83-.35-1.47-3.18-.93-6,2.43-7.92a16.93,16.93,0,0,0,2.51-1.55c1.31-1.06,1.84-2.61.94-4-1.09-1.69-2.31-.17-3.39.37-5.7,2.81-8.45,1.21-9.16-5.35-.39-3.57-1.53-7.19,2.95-9.44,1.14-.58,1.86-2.85,2-4.41.32-4.17,2.45-4.84,6.07-4.11,2.25.46,4.66.11,6.92.53,1.25.23,2.65,1.46,2,2.92-.95,2.27-1.84.38-2.87-.28-1.91-1.24-4.26-1.27-5.11,1-1.15,3-2.54,6.94,1.06,9,4.66,2.67,10.26,2.69,15.51,3.07,3.08.23,3.62-3,3.6-5.58,0-3.13,1.06-4.68,4.39-4.4,3.72.31,3.09,2.59,2.56,5-.83,3.87,1.21,5.63,4.77,6,2.32.22,4.68.05,7,.33,4.2.51,7.19.26,6.6-5.46-.41-4.1,3.58-4.16,6.06-3.93,3.67.35,1.72,2.81,1.09,4.82-1.92,6.22-.38,8.27,6.16,8.26a64.4,64.4,0,0,0,8.44-.64c4.26-.56,8.36-1.26,7.87-7.29a2.83,2.83,0,0,1,3.33-2.93c2.12.38,1.61,2.37,1.44,3.7-.54,4.26,1.37,5.79,5.4,5.54,2.15-.13,4.36.25,6.49,0,4.52-.59,9.56-.57,8.8-7.66-.32-3,2.45-3.09,4.67-3.11,3,0,2.54,2.33,2.22,3.94-.91,4.45.71,6.22,5.19,6,1.63-.09,4.38-1,4.59,1.46S306.2,731,304.94,733Z" transform="translate(-1 -1)"/><path d="M345.86,477.59a18.25,18.25,0,0,0-6.77-5.49c-1.44-.67-2.75-1.37-2.65-3.19a4,4,0,0,1,3-3.62,25.29,25.29,0,0,0,8.25-4.36c-3-2-5.85-2-8.75-2-2.32,0-4.65.07-7,0-1.36,0-2.83-.39-3.3-1.75-.55-1.58,1.27-1.58,2.05-2.31.93-.87,2.59-1.62,2.15-3.06-.61-2-2.81-2.38-4.51-2.45-5.48-.23-11-.39-16.47-.1-4.91.26-9.91-1.09-14.76.78-.85.33-2,0-2.92-1.39a21.41,21.41,0,0,0,4-1.08c2.79-1.39,8-2,2.13-6.57-1-.81-3.16-4.42.08-5.88,2.87-1.3,6.31-.77,7.6,2.52,1.49,3.77,3.43,4.59,6.8,2.65.55-.32,1.5-.65,1.16-1.37-2.56-5.33,2.08-4.67,4.37-4.62s5.55-2.83,6.5.71c.84,3.13-3,3.81-5.13,5.11-1.52.92-3.92,1.44-3.42,3.65s2.9,1.84,4.68,1.82c7.82-.1,15.64-.34,23.46-.36,1.62,0,4.14-1,4.6,1.53.36,2-2,2.32-3.33,3.17-1.55,1-4.22,1.09-3.38,4,.74,2.56,2.93,2.44,4.92,2.35,4.8-.23,9.66.68,14.39-.85,1.69-.54,3.27.37,4.9.62,1,.15,2.2.21,2.34,1.42.17,1.41-1.11,1.75-2.14,2.34-5,2.84-10.7,3.27-15.94,5.24-2.28.85-5,1.48-5,4-.11,3.05,3.17,3.07,5.25,3.55,3.63.84,6.69,2.91,10.15,4.08,1.46.5,2.73,1.64,2.52,3.35-.25,2.1-2.24,1.77-3.58,1.78a181.31,181.31,0,0,0-19.91,1c-1.8.21-3.94-.28-4.8,1.8-1.18,2.87,2.09,1.72,2.93,2.88,1,1.46,3.11,2.6,2.71,4.5s-2.7,1.57-4.22,1.86c-8.66,1.67-17.36.28-26,.28-1.32,0-2.65-.2-4-.14a2.54,2.54,0,0,0-2.35,1.6c-.44,1.12.19,1.89,1.11,2.47,2.32,1.48,3.43,4,5.14,5.95,3.64,4.16.46,5-2.43,5.16-7.14.39-14.31.4-21.46.25-2.95-.06-7.11,1.6-8.44-2.27-1.2-3.48,3.62-4.09,5-6.69,1.05-2,5.51-2.38,4.22-5.28-1.18-2.64-4.8-.85-7.31-1.24a56.69,56.69,0,0,0-20.69.72c-1.71.37-3.56.06-4.48-1.46-1.24-2.07,1-2.8,2.07-3.89.71-.7,1.49-1.32,2.23-2s2.43-1.08,1.85-2.55-2.08-.41-3.09-.76c-5.94-2.07-11.79.05-17.68.29-1.8.07-4,.58-4.48-1.9s2-2.52,3.38-2.78c4.5-.86,8.19-3.63,12.48-4.92,2.37-.71,4.36-1.28,5.6,1.94,1,2.54,3.62,2.8,6,2.31,3.86-.77,7.61.37,11.42.38,1.24,0,2.36.52,2.46,2,.09,1.21-.86,1.68-1.82,2.07a4.42,4.42,0,0,0-1.32.71c-1.3,1.2-4.63.51-3.82,3.58.68,2.58,3,2.63,5.32,2.62,13.13,0,26.26,0,39.39,0a19.06,19.06,0,0,0,4.95-.51c1.49-.41,3.69.36,4.36-1.67s-.49-3.45-2.28-4.46a2.13,2.13,0,0,1-.8-3,4.75,4.75,0,0,1,4.45-2.67c5.29-.28,10.58,1,15.87-.06C344.18,477.8,344.78,477.74,345.86,477.59Zm-53,25.43c.22,2.44,1.84,2.67,3.57,2.57s4.48.64,4.6-2.23c.09-2.24-2.17-2.75-4-2.72S293.38,501,292.82,503Z" transform="translate(-1 -1)"/><path d="M315.73,784.38c2.77,3,1.91,6.46,1.32,9.71-1.74,9.6-5.17,18.76-7.81,28.12-1.5,5.29-1.64,10.81-3.23,16.1-.74,2.46-1.77,3.13-4.05,3.31-7.69.62-8.14,1-9.73,8.51-.42,2-1.78,2.26-3.17,2.61-2.09.52-2-1.25-2.22-2.47-.95-4.73-4.29-5.33-8.27-4.79-1.8.24-3.57.72-5.38.91-4.34.48-8.25,1.13-7,7.19.41,2-.86,3.91-3.08,3.5-1.79-.33-2.16-2.45-1.73-4.08,1.16-4.47-1.69-5.12-4.92-5.42-1.49-.14-3-.06-4.5-.08-2.47,0-5.11-1.21-7.39,0-2.85,1.45-1,4.51-1.51,6.8-.34,1.45-.8,2.6-2.42,2.65-2,.06-2.27-1.37-2.42-3-.74-7.61-.77-7.64-8.15-8.83-2-.31-4-.34-6-.57-2.9-.33-5,.35-5,3.79a4.54,4.54,0,0,1-1.92,3.87,3.28,3.28,0,0,1-3.31.42c-1.41-.57-1.11-1.75-1-3,.51-8.4-3.69-11.87-12-10a3.72,3.72,0,0,0-3,3.51c-.24,1.66-.79,2.89-2.75,2.84a3.84,3.84,0,0,1-3.84-2.64,7.84,7.84,0,0,1-.57-2.41c-.19-10.22-.24-20.44-.55-30.65a50,50,0,0,0-1.35-9.81c-1.3-5.52-1.17-11.12-1.32-16.69,0-1.39-2-3.94,1.49-4.13,2.91-.15,4.24,1.63,4.35,4.26a8.54,8.54,0,0,1-.91,3.85c-1.14,2.37-3.45,4.64,1.3,5.89,1.56.41,1,1.89-.5,2.37s-2.27,1.65-.93,2.43c5.25,3.05,3.47,8.38,3.8,12.56,1,13,1.25,13.65,14.12,17.08a53.6,53.6,0,0,0,18.78,1.44c5.17-.46,10-.31,12.55,5.34.67,1.49,2.26,1.16,3.45,1.62,2.61,1,5.54,1.62,6.63,4.75.43,1.25.64,2.78,2.54,2.35,1.52-.33,2.85-1,3.09-2.8.81-6,5.46-7.41,10.31-8a203.84,203.84,0,0,1,23.85-1.63c8.68-.1,15.36-7.09,17.36-16.6C310.8,804.44,313.77,794.6,315.73,784.38ZM289,835c-1,0-2.13.12-1.83,1.14.52,1.77.12,4.26,2.59,4.86a1.77,1.77,0,0,0,2.25-2A4.51,4.51,0,0,0,289,835Z" transform="translate(-1 -1)"/><path d="M737.77,314.93c2,.31,4.08.57,5.73-.9,3.33-3,6.74-2.29,10.11-.3,3.2,1.89,6.17,3.2,9.49.08.82-.78,2.51-.79,3.82-.87,2.67-.16,3.47,2.07,3.71,3.92.3,2.35-2,1.62-3.27,1.76a21.5,21.5,0,0,1-3.5,0c-9.5-.48-13.51,3.08-11.41,12.52,1.69,7.6,1.62,15.42,4.06,22.93,1.44,4.41,6.06,6.75,6.25,11.92.07,1.82,1,3.3-.87,4.51s-3.83,1.85-6,.2c-1.56-1.2-2.45-3.27-4.6-3.68-1.28-.23-2.83-.79-3.72.5s-.46,2.78.8,4A31.11,31.11,0,0,0,762.79,379c2.35.58,6.1-.26,6.29,4.11.13,2.91-.81,4.26-4,4.22-15.32-.21-31.43-13.15-32.41-28.55-.61-9.61-1.5-19.85,2.55-29.41,1.11-2.63,3.62-3.89,4.74-6.32.52-1.12,2.34-1.82,1.43-3.38-.65-1.12-2-.88-3.18-.95-.34,0-.67,0-1,0-1.77-.16-4.33.13-4-2.46S736.07,314.84,737.77,314.93Zm8.12,38.76c-.13-1.61-2.35-2.45-1.55-4.49a1.4,1.4,0,0,0-1.44-2c-1.23,0-2.09.78-1.58,1.86,1,2.19.69,5,2.59,6.7.55.51,1.58-.09,1.86-1.06A6.53,6.53,0,0,0,745.89,353.69Z" transform="translate(-1 -1)"/><path d="M195.18,719.83c1.45-.34,2-.49,2.63-.61,2-.4,5.13,1.1,5.29-2.73s0-7.67-4.87-8.34a122.54,122.54,0,0,0-12.43-.82c-2.69-.09-2.85,2.26-3.56,4.1-.56,1.45-.43,3.88-2.51,3.8s-1.92-2.46-2.47-3.93c-1.22-3.25-.79-6.86-2.38-10.14-1-2.1.53-2.5,2.42-1.82a144,144,0,0,0,17.09,4.95c21,4.72,42.25,6.81,63.68,7.74,1.71.07,4.15-1.11,4.11,2.54,0,1.71,1.69.47,2.74.41,4.68-.28,9.13-3.38,14-1,2.55,1.22.72-3.55,3.59-2.74,2,.57,4.29.23,6.46.24a30.68,30.68,0,0,0,7.93-.67c1.88-.49,3.83-.62,4,2.14s-1.77,2.82-3.7,2.86a20.82,20.82,0,0,1-2.5,0c-3.47-.33-5.32,1.19-5.65,4.69a7.7,7.7,0,0,1-.84,3.33,6.47,6.47,0,0,1-7,2.73c-2.42-.56-.2-2.8-.08-4.2.29-3.34.05-5.73-4.28-5.09a19.59,19.59,0,0,1-3.47-.26c-7.11-.24-9,1.2-10.35,8.2-.28,1.46-.72,2.58-2.36,2.7-3,.23-6.08.41-9.34.63.34-2,1.82-1.69,2.73-2.11,2.14-1,3.07-2.52,2.44-4.8-.54-1.95-.33-4-3.3-4.87-5-1.37-9.9-1-14.85-.71-2.88.18-3.78,2.58-4,5-.22,2.94-2.06,4.06-4.33,3.38-2.59-.78-.57-2.81-.13-4.1,1.31-3.81.38-5.63-3.89-5.83-3.63-.18-7.23-1-10.86-1.41s-6,1.48-6,5c0,5.38-3.27,5.6-6.93,4.78C200.2,722.32,197.74,722.18,195.18,719.83Z" transform="translate(-1 -1)"/><path d="M811.33,479c-3.41.12-6.76-.39-8.92-3.82-.83-1.33-2.35-1-3.63-1.2a7.13,7.13,0,0,1-6-8.88c.43-2,1.79-1.94,3.25-2.36,3.31-.94,6.76-.68,9.39-4.35s15-2.09,17.77,1.61c1.2,1.64,2.42,1.82,4.12,2,4.05.38,6.52,2.26,6.58,6.81,0,3.38-1.36,5.18-4.57,5-4.19-.21-7.79,1.52-10.9,3.68A8.5,8.5,0,0,1,811.33,479Z" transform="translate(-1 -1)"/><path d="M627.58,643.86c-5-.27-7.68-3.41-10-6.33a20.56,20.56,0,0,1-4.28-15.28c1.44-11.55,2.76-23.22,7.46-34.09.26-.6.56-1.41,1.06-1.64,6.15-2.83,3.37-6.72,1.14-10.31-1.75-2.8-4-5.31-5.87-8-.56-.78-1.18-1.86-.35-2.73,1-1.1,1.71.06,2.37.73,5.28,5.31,10.18,10.88,13,18,1.41,3.52-.58,6.45-1.5,9.5-2.12,7-6,13.29-9,19.93-4.73,10.38-5.58,19.55,4.64,28.26A10.81,10.81,0,0,1,627.58,643.86Z" transform="translate(-1 -1)"/><path d="M688.25,287.51c.74-6.27,2.29-14.1,2.29-22.11,0-3.49.18-7-1.2-10.31-.68-1.65-1.9-3.68.63-4.66s5-.53,6.22,2.39A23.82,23.82,0,0,1,697.82,265a157,157,0,0,0-.93,32.36A15.27,15.27,0,0,0,701,307c.49.5,1,.87.73,1.6a1.57,1.57,0,0,1-2.11.77c-3.27-1-6.24-2.69-7.75-5.85C689.71,299,687.94,294.32,688.25,287.51Z" transform="translate(-1 -1)"/><path d="M302.36,478.3c-5.7-1-9.75-3.72-14-5.72-2.63-1.24-1.32-6.08,1.93-7,4-1.09,7.88-2.3,11.3-4.89,1.59-1.19,3.8-.82,5.73,0,3.17,1.44,6.3,3,9.54,4.22,3.67,1.42,3.85,3.66,1.19,5.89C313.29,474.85,307.05,475.67,302.36,478.3Z" transform="translate(-1 -1)"/><path d="M539.74,325.86c1.66,0,3.33,0,5,0s3.51-.06,4.3-1.85c1-2.29-1.13-2.59-2.43-3.54-2.2-1.61-1.85-2.54.8-3.57,4.43-1.71,8.89-.76,13.34-.89.79,0,2.11,1,1.74,1.31-3.17,3-.45,5.83-.17,8.8.17,1.75-2.23,2-3.94,2.06-4.16.12-8.32.43-12.48.34-2.31-.06-4.38.35-4.35,2.8s2.42,1.42,3.93,1.7c1.79.34,4.49-.77,5.08,1.67.32,1.33-1.5,2.87-2.94,3.67-2.33,1.31-5.31.82-6.22-1.14-1.5-3.22-3.88-3.09-6.51-3.41a23,23,0,0,1-9.9-3.18c-.83-.53-2-1.06-1.85-2.17s1.37-1.15,2.33-1.39C530.16,325.91,534.94,325.87,539.74,325.86Z" transform="translate(-1 -1)"/><path d="M208.6,102c.14,2.23-.8,4.54-2.74,4.81-3.63.49-6.09,2.71-9,4.35s-6.28,2-9.16-.9c-1.44-1.44-3.61-1.6-5.45-2.32-2.8-1.1-3.88-5.92-1.49-6.66,5.36-1.68,9.48-6,15.13-6.74C199.65,94,208.49,99.35,208.6,102Z" transform="translate(-1 -1)"/><path d="M635.26,498.34c10.35,6.72,17.34,20.12,5.37,32.47-4.73,4.89-8.86,10.27-11.26,16.83-2.6,7.09-1.7,10.17,4.84,14,2,1.16,4.09,2.05,5.61,4-4.45.94-11.25-2.17-14.41-7.2a12.41,12.41,0,0,1,.06-13.24c3.25-5.5,7.29-10.55,10.86-15.87,1.82-2.71,5.09-5,2.88-9.09a1.73,1.73,0,0,1,.22-1.43c4-5.48.82-9.9-1.94-14.52C636.47,502.56,634.86,500.86,635.26,498.34Z" transform="translate(-1 -1)"/><path d="M581.07,340.22c-4.62,1.78-7.85-2.28-11.88-2.55a3,3,0,0,1-1-5.83c4.61-2.23,9-5.13,13.82-6.66,6-1.9,10.54,2.68,15.47,5.09,1.34.66.81,1.71,0,2.83C593.22,338.6,586.53,338.08,581.07,340.22Z" transform="translate(-1 -1)"/><path d="M631,569.34c5.46-.39,9.63,2.25,13.86,3.4,10.15,2.76,20.45,1.93,30.62,3,10.48,1.14,21.11.86,31.59,2.45a13.67,13.67,0,0,0,6.9-.57,6.93,6.93,0,0,1,3.38-.62c2.12.41,5.68,0,5.42,3-.25,2.8-3.14,2.79-6,2.49-11.7-1.22-23.45-2-35.18-2.93-15.77-1.22-31.95-.47-46.89-7.31A6.28,6.28,0,0,1,631,569.34Z" transform="translate(-1 -1)"/><path d="M668.47,801.39c5-4.84,5-7.5.67-10.24-1.44-.93-2-.91-3.26.23-1.5,1.35-3.46,1.52-5.8,0,2.28-1.63,4.57-1.91,6.24-3.69s4.37-.38,5.82,1.06c1.92,1.89,3,5.06,6.45,2.29.17-.14,1,.21,1.22.54.4.64.12,1.22-.62,1.54-2.91,1.26-3.73,3.49-2.92,6.44-3.49.89-2.16,7.08-7.44,6.55-1.14-.11-4.69.73-5,3.86-.15,1.62-1.64,2.9-2.49,1.27-1.46-2.8-3.48-2.77-6-2.79-2.74,0-3.25-2.09-2.67-4.18a7.42,7.42,0,0,1,7.09-5.9c1.77-.17,6.24,1.83,4.65-3.49-.22-.72.85-.92,1.5-.86a1.82,1.82,0,0,1,1.82,1.43C668.08,797.28,668.21,799.1,668.47,801.39Z" transform="translate(-1 -1)"/><path d="M810.61,762c-4.38-.27-5.49,1-3.82,5.83,1.87,5.44.45,9.46-3.72,13-2.56,2.16-4.53,1.6-5.2-1.61a24.68,24.68,0,0,1-.52-2.91c-.1-1.42-2.82-2.18-1.27-3.78s2,.91,3.06,1.21c2.1.61,2-1,1.84-2.39-.3-2.46-.55-4.93-1-7.35-.89-4.4,1.24-6.82,5-8.37,2-.8,4.7-.26,5.57-3.21.2-.69,1.9-.8,2.18-.21,1.2,2.58,4,4.68,3.22,7.86C815.26,763,812.71,762.2,810.61,762Z" transform="translate(-1 -1)"/><path d="M707,330.36c-2.12-9.69,2.57-17.35,5.49-25.24,1.69-4.54,4.58-8.71,5.81-13.55.21-.81.7-1.6,1.72-1.39s1,1.29.9,2c-1,5.34-1.18,11-4.24,15.68-2.34,3.59-2.39,5.8,2.39,6.54.81.13,1.76.26,1.74,1.34a1.66,1.66,0,0,1-1.69,1.55c-4.73.12-6.15,2.81-6.75,7.15C712,327.09,709.56,329.11,707,330.36Z" transform="translate(-1 -1)"/><path d="M251.53,822.33c-6.11,1.42-10-1.47-12.21-7.4-.27-.75-1.1-1.44-.43-2.18a2.11,2.11,0,0,1,1.8-.33c5.9,1.54,11.89.27,17.82.64,3.07.19,5.25-.47,2.58,4.37C258.66,821.86,256.28,823.19,251.53,822.33Z" transform="translate(-1 -1)"/><path d="M741.75,843.56c-1.91,1.18-4.71.42-4.74,3.69,0,1.55-11,4.83-12.52,3.9-2.75-1.69.82-1.94.8-3.14-2.17-.64-4.36-1.31-6.56-1.93a3.27,3.27,0,0,1-1.61-5.52c3.85-3.85,10-2.93,12.92,1.82.64,1,1.7,2.62,3,2,1.48-.74.38-1.86-.46-2.75a1.13,1.13,0,0,1,.36-2,4.29,4.29,0,0,1,4.73.19c1.8,1.35-.29,1-.73,1.56-.87,1.09.44.53.66.52A5.15,5.15,0,0,1,741.75,843.56Z" transform="translate(-1 -1)"/><path d="M217.62,819.74c-4.7,0-9.33.67-10-5.93-.27-2.6.11-3.56,2.48-3.26,5.78.73,11.57.45,17.36.52,2.75,0,2.87.94,1.8,3.34C226.78,819.93,222.45,820.64,217.62,819.74Z" transform="translate(-1 -1)"/><path d="M571.19,505.25c3.17-2,6.76-.76,10-1.38,10.67-2,20.67-5.94,30.68-9.92,3.5-1.4,7-3.23,11-2.56,1.17.19,2.38.47,2.29,2.07a1.52,1.52,0,0,1-1.61,1.52c-10.24.31-18.73,6.33-28.36,8.67-6.43,1.56-12.75,3.7-19.5,3.14C574.2,506.66,572.33,507.52,571.19,505.25Z" transform="translate(-1 -1)"/><path d="M755.9,278.81c-7,.14-12.14,1.87-17.24,3.87-1.23.48-2.77,2.39-3.83.42s.36-3.42,2.23-4.26c1.66-.74,3.29-1.6,5-2.18,8.47-2.83,16.78-3.23,24.75,1.68,1.63,1,3.09,2.26,3.38,4.09s1.6,4.82-.82,5.76-2.13-2.27-3.1-3.6C763.35,280.6,759.46,278.61,755.9,278.81Z" transform="translate(-1 -1)"/><path d="M823.5,783c.19,4.56-2.45,4.85-5.62,4.5,1.8.6,2.49,1.7,2.19,3.36a1.39,1.39,0,0,1-1.93,1c-1.65-.48-4.84-1.31-4.65-1.62,1.67-2.77-3.21-4.4-1.92-4.6,4-.63,4.33-6.4,8.65-5.67s8.61-.63,12.82-1.37a4.43,4.43,0,0,0,3.72-5c-.09-1.25-.42-3.9,2.21-3.57s1,2.63,1.23,4c.3,2.08.12,4-2.39,4.8-.92.29-1.35.8-1.39,2.13-.08,2.25-.39,2.17-2.63.91s-4.59-2.65-5.12,1.65c-.18,1.42,0,3.23-2.13,3.4C823.77,787.19,824.61,784.55,823.5,783Z" transform="translate(-1 -1)"/><path d="M295.81,812.39c-.58.54-1.54,1-1.68,1.64-1.48,7.12-6.91,6.88-12.49,7.41-5.18.49-7-2.38-8.79-6.14-.44-1-.28-1.84.66-1.92C280.81,812.74,288,811,295.81,812.39Z" transform="translate(-1 -1)"/><path d="M375.53,547.63c1.45-6.42,7.79-5.26,11.39-8.15,1.22-1,4.1-.35,5.2,1.59,1.28,2.24-1.29,2.57-2.36,3.58s-2.6,2.4-.76,3.58c4,2.57.82,5.69.89,8.48,0,1.71-1.8,1.64-3.13,1.26-2.07-.58-4.06-1.47-6.28-1.35s-2.64-1.18-2.18-2.89,1.84-2.19,3.51-1.46,3.06,2.82,4.68.69c.53-.69-.05-2.6-.61-3.7-1-2.07-3.26-2.4-5.16-1.93S377.4,548.8,375.53,547.63Z" transform="translate(-1 -1)"/><path d="M280.79,860.17c-11,3.83-22.1,4.11-33.33,3.37-1.53-.1-2.59-.91-2.36-2.55.21-1.46.48-3.19,1.82-3.94s1.88.67,2.31,1.75a2,2,0,0,0,.46.84c2.06,1.8,14.9,2.35,17.45,1.15s3.48-3.2,3.39-6c-.06-1.87.34-3.79,2.83-3.93,3.08-.17,2.44,2.27,2.35,3.86C275.51,858.37,278.45,858.7,280.79,860.17Z" transform="translate(-1 -1)"/><path d="M578.66,184.65c1.11-11.85,2.16-23.7,5.14-35.26.33-1.28.64-3,2.34-2.56,1.47.42.54,1.89.34,3-2,11.2-3.4,22.46-4.37,33.8-.32,3.75.8,7.21,1,10.83.06,1,.81,2.11-.5,2.55s-1.72-.9-1.9-1.75C580,191.73,578.47,188.35,578.66,184.65Z" transform="translate(-1 -1)"/><path d="M254.44,460.08c3.69.41,7.7-1.63,7.87,4.36.05,1.87,3.57,3.08,6.15,3.36,1.23.13,2.32.54,2.5,1.95a2.42,2.42,0,0,1-2.17,2.86c-3.23.35-8.23,4.39-8-3.53,0-1.56-1.74-2-3-1.93-3.57.29-6.26-2-9.38-2.94-1-.29-2.13-.7-2.16-1.78,0-1.46,1.39-1.76,2.5-1.91C250.84,460.25,253,460.19,254.44,460.08Z" transform="translate(-1 -1)"/><path d="M150.1,370c-2.61,2.37-3.45,4.23-.68,6.14,2.46,1.7,1.76,2.84-.85,3.33-2.42.45-4.85.87-7.28,1.24s-3.25-1.49-3.68-3.21c-.61-2.45-3.47-5.27-1.76-7.11s5.42-2.06,8.44-1.62C145.91,369,147.5,369.47,150.1,370Z" transform="translate(-1 -1)"/><path d="M706.85,354.81c0-3-.1-4.65,0-6.29s-.7-4.18,2.12-4.16c2.58,0,3,2.23,3,4.33a103.31,103.31,0,0,1-.1,11.41c-.32,3-.3,5.85,1,8.67.73,1.54,1,3.59-1,4.25-2.19.73-2.78-1.43-3.11-2.95C707.61,364.62,706.36,359.14,706.85,354.81Z" transform="translate(-1 -1)"/><path d="M360.4,870c.54.41,1.53,1,1.47,1.14-1.78,5.26,6.18,4.47,5.3,7.8-.65,2.47-1.31,6.31-4.83,7.27a4.73,4.73,0,0,1-5.51-2.3c-.72-1.12.62-12.33,1.66-13.07A10.1,10.1,0,0,1,360.4,870Z" transform="translate(-1 -1)"/><path d="M685.92,511.74c5.3.08,10.53.1,15.78.24A59.23,59.23,0,0,0,726,507.52c1.07-.43,2.3-1.4,3.1-.13s-.54,2.15-1.28,3a4.22,4.22,0,0,1-2,1.34C713,514.76,700,515.85,687,512.6,686.62,512.49,686.29,512,685.92,511.74Z" transform="translate(-1 -1)"/><path d="M637.87,825.92a16.26,16.26,0,0,0,1.78.4c1.4.18,3,.59,2.72,2.19s-2.19,1.38-3.36,1c-2.74-.79-5.21-2.21-8.28-.42-1.11.64-3.47-.39-3.88-2.29-.5-2.26,1.89-1.6,2.83-2.39,3-2.51,7.75-1.42,9.94-5.34.5-.91,2.56-.78,2.41-.12-.87,4,3.86,2.89,4.62,5.77h-8.81Z" transform="translate(-1 -1)"/><path d="M442.07,690.86c0-4.18,2.31-6.14,5.6-7.34,1.21-.45,2.23-.84,2.91.62.52,1.12.74,2.34-.51,3.09-3.69,2.22-6.7,5.24-9.94,8-1.63,1.39-4.33,1.2-5.34-.46-1.13-1.86-1.27-4.75.95-6.27,1.55-1.06,3.8-1.75,4.85,1.12C440.73,690,441.27,690.2,442.07,690.86Z" transform="translate(-1 -1)"/><path d="M279.14,460.36c-3,.05-10-6.36-9.15-8.9.9-2.77,3.76-2.86,6.29-2.6,1.8.18,4.09.27,2.47,3.2-1.08,2,.46,2.57,1.66,3.48,1.37,1,4.39.92,3.92,3.08S281.05,460.17,279.14,460.36Z" transform="translate(-1 -1)"/><path d="M768,338.65c1.29.1,2.63-.3,3.25,1a2.58,2.58,0,0,1-.82,3.14c-2.87,2.14-2,4,0,6.06.74.74,1.67,2,.63,3s-2.54.59-3.62-.22a36.82,36.82,0,0,1-3.63-3.33c-1.85-1.83-3.33-4-2.06-6.6S765.67,339,768,338.65Z" transform="translate(-1 -1)"/><path d="M189,766.18c1.61-.38,5.4-4.74,3.24,1.78-.45,1.37,1.38,1.92,1.37,3,0,2.49,2,5.91-2.37,6.79-1.66.33-4,1.4-5-.45s-1.88-4.24-.41-6.46c1.08-1.63,2.23-3.2,3.35-4.8Z" transform="translate(-1 -1)"/><path d="M442.94,553.05c2.14-3.13,4.17-5.92-1.95-5.51-1.65.11-3.81-2.76-4.11-5-.2-1.46,1.31-3.15,3.2-3.31,2.89-.25,4.06,1.36,4.47,4.15.2,1.34,1.49,2.5,2.2,3.79C448.72,550.72,447.76,552.67,442.94,553.05Z" transform="translate(-1 -1)"/><path d="M745.25,835.19c-2.12.33-4.65.34-5.24-1.42-.88-2.66-2.28-5.59-1.13-8.55.52-1.35,1.77-1.87,3.25-1s3.08,1.9,4.69,2.71c.87.43,1.33.93,1.15,1.88a1.51,1.51,0,0,1-1.73,1.39c-6.18-1.12-3,1.34-1.34,3.35C745.16,833.9,745.11,834.47,745.25,835.19Z" transform="translate(-1 -1)"/><path d="M295.52,853.47c.44-4.72,3.27-7.87,7.05-7.75,2.16.07,2.3,1.46,2.13,3.07-.29,2.78-5.14,7.48-7.65,7.54C294.83,856.38,295.23,855,295.52,853.47Z" transform="translate(-1 -1)"/><path d="M176.77,786.87c-1.11-.16-3.17,1.28-3.3-1.08-.09-1.49,1.53-2.36,3.15-2.59,1.16-.17,2.91.91,3.28-1.05.31-1.63-1.64-1.22-2.4-2a2.36,2.36,0,0,1-.58-3.09c.65-1.19,1.86-1.29,3-1.42,1.69-.18,1.73,1.06,1.83,2.26a14.34,14.34,0,0,0,.39,1.93C183.59,786.1,183.27,786.53,176.77,786.87Z" transform="translate(-1 -1)"/><path d="M808.7,805.11a18,18,0,0,1,.18,3.08c-.31,1.72,1.47,4.55-1.47,4.89-2.67.3-2.13-2.79-2.91-4.45-1.57-3.34,1.14-6.32.82-9.58,0-.31.9-1,1.43-1a1.73,1.73,0,0,1,1.93,1.79C808.78,802,808.7,804.08,808.7,805.11Z" transform="translate(-1 -1)"/><path d="M715.59,382.38c-.15,2-.17,4.4,1.78,6.46,1.22,1.28.24,2.66-1,3.25-1.81.87-1.58-.76-1.89-1.84-1-3.35-3.27-6.16-3.14-10.07.08-2.16-.57-4.25,2.1-4.4s1.92,2.47,2.12,4.12C715.65,380.56,715.59,381.23,715.59,382.38Z" transform="translate(-1 -1)"/><path d="M648.33,818.45c-1.44-3.42,5.87-4.72.66-7.85,2.22-1.48,3.17.5,4.61.61,2.25.18,4.16,2.15,3.84,3.75-.58,2.9-1.32,6.17-3.91,8.15a2.2,2.2,0,0,1-3.4-.86c-.69-1.7.8-1.6,1.94-1.92,2.93-.8,1.33-4.08,4.56-5.66C651.66,813.69,651.07,817.77,648.33,818.45Z" transform="translate(-1 -1)"/><path d="M236.16,767.83c-.25,1.61-.37,4.18-2.16,2.91-2.14-1.52-6.45,1.44-6.29-2.34.11-2.6,2.08-6.77,5.28-6.8S235.36,765.67,236.16,767.83Z" transform="translate(-1 -1)"/><path d="M247.4,764.69c-.3,1.74-.55,3.16-.79,4.59-.41,2.53-2.61,2.3-4.26,2.46-2.16.21-2.06-1.57-2.07-3.1,0-1.8-.13-3.6-.11-5.41,0-1.39.34-2.72,2.09-2.78a2.77,2.77,0,0,1,2.65,1c1.13,1.88-1,1.53-1.65,2.22s-1.16,1.46-.49,2.15C244.72,767.86,245.26,764.57,247.4,764.69Z" transform="translate(-1 -1)"/><path d="M875.48,463.22c1.93-3.46,3.42-6.16,4.92-8.85,1.37-2.44,2.9-1.53,4.41-.17s2.62,2.3.47,4.33C882.59,461.09,879.34,461.74,875.48,463.22Z" transform="translate(-1 -1)"/><path d="M221.87,860.24c-2.2-.25-4.79,0-2.14-3.55,1.23-1.64,1.55-4,2.28-6,.51-1.4,1.44-2.33,3-2,2.23.53.88,1.88.69,3.08a35.18,35.18,0,0,0-.31,5.43C225.39,859.67,224.11,860.47,221.87,860.24Z" transform="translate(-1 -1)"/><path d="M612.1,567.26a50.05,50.05,0,0,1,10.27,12.13c.62,1.05,1.07,2.81-.55,3.46s-1.68-1.15-2.28-2.05c-2.8-4.23-5.63-8.45-8.45-12.68Z" transform="translate(-1 -1)"/><path d="M677.54,786.63c4.33-4.77,9.05-2.42,12.61-4.26.62-.32,1.23.62,1.17,1.25-.2,2.28-2.16,3.23-3.74,4.3-1.13.76-3.09,2.14-3.85.38C682.66,785.82,680.86,786.16,677.54,786.63Z" transform="translate(-1 -1)"/><path d="M254.07,649.11c5.59-3.84,11.64-2.65,17.69-1.74C266.15,650.63,260,648.86,254.07,649.11Z" transform="translate(-1 -1)"/><path d="M212.23,761.43c-.52,5.65-4.78,8.7-9.12,7.08a3.24,3.24,0,0,1-2.11-3.6c.46-2.2,1.89.09,2.58-.24C206.34,763.34,210.13,764.91,212.23,761.43Z" transform="translate(-1 -1)"/><path d="M798.16,746.16a11,11,0,0,1-.29-1.94c.08-2.29-.1-4.79,2.57-5.85,1-.4,2.86-.44,3.09.63.45,2.15.87,4.7.1,6.61-1.19,3-3.71,0-5.61.4Z" transform="translate(-1 -1)"/><path d="M243.71,790.29a3.93,3.93,0,0,1,.67-4.24c.83-1,2-1.5,3.07-.78,1.9,1.22.13,1.62-.61,2.35-.93.92-.73,2,.61,2.09,3,.25,1.72,2.38,1.5,3.63-.32,1.78-2.07,2.07-3.57,1.84-2-.31-1.93-1.91-1.68-3.48A9.52,9.52,0,0,0,243.71,790.29Z" transform="translate(-1 -1)"/><path d="M363.36,858.11c.29.26.94.59,1.16,1.1,1.23,2.88,2.46,2,3.79.11.6-.86,1.34-1.65,2.36-.6a1.53,1.53,0,0,1-.19,2.23c-1.72,1.74-2.64,4.73-6.27,3.43a3.63,3.63,0,0,1-2.72-4.09C361.52,859.25,361.69,858.29,363.36,858.11Z" transform="translate(-1 -1)"/><path d="M191.19,760c-2.18-.72-5.77-.12-5.63-3.28.07-1.62,3.33-2.35,5.56-2.19,2.4.19,2.76,2,2.72,4S192.73,760.65,191.19,760Z" transform="translate(-1 -1)"/><path d="M610.51,238c-4.09-1.66-6.08-5.29-8.53-8.48-.72-.92-1.1-2.33.08-3.09s2.33.3,2.86,1.22C606.89,231,608.66,234.52,610.51,238Z" transform="translate(-1 -1)"/><path d="M282.57,764.4c3,.65,3.2,3.21,3.85,5.34.36,1.18-.61,3-1.58,2.23-1.91-1.51-5.43-.87-5.93-3.48C278.57,766.67,280.72,765.2,282.57,764.4Z" transform="translate(-1 -1)"/><path d="M435.06,783.23c-.35,2.23-1.81,3-3.56,2.67s-4.31-.78-4.12-2.57a5.19,5.19,0,0,1,4.21-4.07C433.48,779.14,434.63,781.36,435.06,783.23Z" transform="translate(-1 -1)"/><path d="M290.61,789.85c.5,1.45,2.25,2.09,1.32,3.66a1.49,1.49,0,0,1-1.65.79c-1.63-.25-1.85-1.7-2.39-2.88-1.13-2.51.85-3.66,2.25-4.94a1.85,1.85,0,0,1,3,.4c.66,1,2.18,2.1,1.09,3.46C293.26,791.54,292.28,789.51,290.61,789.85Z" transform="translate(-1 -1)"/><path d="M450.53,524.37c-.1-2.8,1.66-3.7,4.06-3.75,1.53,0,3.39.33,3.07,2.27-.5,3-3.36,4-5.76,4.57C450.2,527.84,450.85,525.54,450.53,524.37Z" transform="translate(-1 -1)"/><path d="M437.32,521.52c-2,.17-2.58-1-2.65-2.41-.1-2.27,1.23-3.42,3.36-3.31,1.75.08,4.39.31,4.37,2.27C442.38,521.05,438.59,519.88,437.32,521.52Z" transform="translate(-1 -1)"/><path d="M331.34,777.88c.13,2.18-.92,4.07-2.86,3.81-2.14-.29-2.8-2.52-2.37-4.65.24-1.2-.58-3.43,2-2.89C330.07,774.56,332.13,775.13,331.34,777.88Z" transform="translate(-1 -1)"/><path d="M819.61,798.84a2,2,0,0,1-2.17-2c-.16-1.16.32-2.14,1.52-2,2.09.28,2.9-.47,3.28-2.52.31-1.67,1.94-1.77,3.16-1.07,1.41.8.71,2.21-.06,2.93C823.48,796,821.4,797.43,819.61,798.84Z" transform="translate(-1 -1)"/><path d="M96.7,553.56c-1.15-.22-3.15.46-2.74-1.67a4.51,4.51,0,0,1,4.17-3.68c1.7-.2,3.15.44,3,2.34C100.88,553.11,98.76,553.4,96.7,553.56Z" transform="translate(-1 -1)"/><path d="M100.76,796.24c-.2,2.26-2.15,2.58-3.92,2.82s-4.14-.09-4-1.87c.24-3,3.64-2,5.57-3C99.64,793.63,100.56,794.66,100.76,796.24Z" transform="translate(-1 -1)"/><path d="M195.12,657c-4.61,1.1-8.61,3.58-12.92,5.35-.95.39-2.17.68-2.61-.41-.54-1.34.77-1.5,1.72-1.75C185.87,659,189.87,655.49,195.12,657Z" transform="translate(-1 -1)"/><path d="M735.82,827.43a11.74,11.74,0,0,1-5.27,5.05c-.7.35-2.14-.66-1.7-1.11,1.92-2,1-6,4.66-6.52C734.84,824.66,735.55,825.75,735.82,827.43Z" transform="translate(-1 -1)"/><path d="M866.15,445.7c0,1.48-.72,2.55-1.67,2.27-2.79-.84-4.61-3.06-5.89-5.52-.38-.73.85-2.12,1.78-1.93C863.35,441.11,864.65,443.71,866.15,445.7Z" transform="translate(-1 -1)"/><path d="M591.75,134.31a9.65,9.65,0,0,1-.58,2.24c-1.46,2.55-.51,6.13-3.38,8a.89.89,0,0,1-1.35-.87c1-3.48,2.08-6.91,3.22-10.33a1.32,1.32,0,0,1,1.2-.37A4.32,4.32,0,0,1,591.75,134.31Z" transform="translate(-1 -1)"/><path d="M673.68,814.18c-1.75,1.7-3.12-.63-4.63-.24-.14.35-.34.62-.31.87.13,1.23,2.66,1.26,1.56,3a1.87,1.87,0,0,1-1.73-.06c-1.46-1.64-2.48-3.54-1.67-5.84.42-1.17,1.54-2.33,2.57-1.42C670.85,811.74,673.19,812,673.68,814.18Z" transform="translate(-1 -1)"/><path d="M267.74,766.74c1.35,1.79,5.66-1.71,5.58,1.92-.05,2-4.46.28-6.67,2-.89.7-1.6-1.68-1.59-2.92C265.08,766.13,266.11,765.91,267.74,766.74Z" transform="translate(-1 -1)"/><path d="M615.31,835c-1.83-.18-3.34-1.08-5-.27-.65.31-1.93.33-2-.68a6.19,6.19,0,0,1,.89-3.25,1.12,1.12,0,0,1,2,.16c1,1.87,2.73,1.45,4.35,1.5,1,0,2.19.3,2,1.6S616,834.94,615.31,835Z" transform="translate(-1 -1)"/><path d="M159.77,849.8a4.09,4.09,0,0,1-3.44-3.53c-.27-1.25,0-2.45,1.58-2.37a4.09,4.09,0,0,1,3.92,3.08C162.23,848.46,161.3,849.41,159.77,849.8Z" transform="translate(-1 -1)"/><path d="M308.51,573.62c-.68,1.73-2.43,1.4-3.72,1.85a5.14,5.14,0,0,1-4.27.07c-.67-.37-.39-1.16,0-1.67a4.89,4.89,0,0,1,4.28-2C306.19,572,307.77,571.91,308.51,573.62Z" transform="translate(-1 -1)"/><path d="M655.46,858c1,0,2.25.7,1.8,1.21-1.53,1.71-.51,5.21-2.85,5.59-2,.34-2.1-2.79-2.4-4.22C651.55,858.46,654.25,858.81,655.46,858Z" transform="translate(-1 -1)"/><path d="M754.66,811c-1.5.18-3.19.84-3.47-1-.25-1.67,1.54-1.2,2.54-1.5a6.23,6.23,0,0,1,.95-.22c1.39-.17.92-3.9,3.43-1.83.88.72,1.72,1.61,1,2.94C758.09,811.48,756.2,811.1,754.66,811Z" transform="translate(-1 -1)"/><path d="M421.6,560.58a3.94,3.94,0,0,1-3.36,3.63,1.59,1.59,0,0,1-1.9-1.74,4.58,4.58,0,0,1,3.14-4C420.87,558.07,421.43,559.27,421.6,560.58Z" transform="translate(-1 -1)"/><path d="M119.53,70.89c-1.57-.13-3.29.29-3.14-1.8S118.26,67,119.76,67s3.57-.1,3.5,1.86C123.17,71.28,120.46,69.9,119.53,70.89Z" transform="translate(-1 -1)"/><path d="M302.9,764.45l-4.56,4.82c-.67-2.25-3.09-4.17-1.6-5.92C298,761.84,300.43,765,302.9,764.45Z" transform="translate(-1 -1)"/><path d="M631.1,489.32c1.21.29,3.32-.33,2.93,1.65s-2.55,1.75-4.2,1.75c-1.15,0-2.78,0-2.65-1.49C627.4,488.81,629.64,489.64,631.1,489.32Z" transform="translate(-1 -1)"/><path d="M778.74,388.2c.09-1.26,0-2.91,1.44-2.86,2.65.1,2.28,2.94,3.18,4.53.71,1.24-.83,2.17-2,2.16C778.82,392,778.92,389.9,778.74,388.2Z" transform="translate(-1 -1)"/><path d="M338.13,882c3.16-3.46,7.28-1.19,11.38-3C344.25,882.76,343.58,882.92,338.13,882Z" transform="translate(-1 -1)"/><path d="M620.2,701.34c1.15.16,2.88,0,2.46,1.61a5.34,5.34,0,0,1-4.11,3.8c-1.16.26-1.72-.87-1.7-1.93C616.9,702.66,618.15,701.56,620.2,701.34Z" transform="translate(-1 -1)"/><path d="M290.67,585.05c-.1-1.89.37-3.37,2.68-3.17,1.29.12,2.29.89,2.1,2.28-.24,1.72-1.08,3.33-3,3.57S290.4,586.56,290.67,585.05Z" transform="translate(-1 -1)"/><path d="M360.55,826.56c1.93.55,2.15,1.85,2,3.23-.15,1.84-1.18,2.65-3,2.31-1.07-.2-2.77.09-2.28-1.7A5.8,5.8,0,0,1,360.55,826.56Z" transform="translate(-1 -1)"/><path d="M820.78,809c-1.24,1.64-2.35,3.76-4.83,4.21a1.1,1.1,0,0,1-1.15-1.64,9.71,9.71,0,0,1,4.57-4.25C820.29,807,820.82,807.75,820.78,809Z" transform="translate(-1 -1)"/><path d="M418.46,742.57c-.75,1.57-.74,3.8-3.21,3.84a1.56,1.56,0,0,1-1.62-2,4.09,4.09,0,0,1,3-3.63C417.8,740.5,418.29,741.48,418.46,742.57Z" transform="translate(-1 -1)"/><path d="M797.11,786.87a3.52,3.52,0,0,1-4.08,2c-1-.2-2.81-.44-2.37-1.81.52-1.61,2.37-2.06,4.05-2C795.84,785.08,797,785.32,797.11,786.87Z" transform="translate(-1 -1)"/><path d="M263.07,606.53c-.73,1.05-1.08,3.39-2.08,2.92-1.55-.71-4-1.27-4.27-3.28-.19-1.34,1.63-1.42,2.77-1.2S262.64,604.19,263.07,606.53Z" transform="translate(-1 -1)"/><path d="M665.24,830.23c-1.28-.91-3.38-1.3-3.36-3.64a1.76,1.76,0,0,1,2.33-1.85c2.18.48,2.46,2.51,2.76,4.27C667.13,829.91,666.51,830.56,665.24,830.23Z" transform="translate(-1 -1)"/><path d="M194.37,850.67c2.21-.2,4.16-2.57,6.33-.9.75.58.41,2.13-.43,2.62C198,853.71,196.06,852.71,194.37,850.67Z" transform="translate(-1 -1)"/><path d="M215.88,767c.55-1.29-.62-3.77,1.71-3.91,2.1-.12,1.48,2.14,1.61,3.43.14,1.47-.08,3.21-2.09,3.17C215.52,769.66,215.67,768.27,215.88,767Z" transform="translate(-1 -1)"/><path d="M237.48,796.17c-2.59-3.35-.76-6.26-1.59-8.8-.07-.21.49-.83.86-.94.8-.24,1,.48,1.31,1.05C239.53,790.22,238.45,792.72,237.48,796.17Z" transform="translate(-1 -1)"/><path d="M176.65,745.75c1,.11,2.7.5,2.09,1.24-1.11,1.37-1.2,3.93-3.64,4a1.72,1.72,0,0,1-1.93-1.8C173.4,747.22,174.41,745.79,176.65,745.75Z" transform="translate(-1 -1)"/><path d="M803.23,793.24c1.66,0,3.09.27,2.92,2-.18,2-2,1.82-3.4,2s-2.78-.14-2.62-2C800.31,793.27,802.21,793.69,803.23,793.24Z" transform="translate(-1 -1)"/><path d="M424.67,787.85c-.68,2.25-2.93,2-4.36,2.94-1,.65-3,.77-3.16-1-.19-1.62,1.49-1.55,2.6-1.33C421.44,788.78,422.73,785.88,424.67,787.85Z" transform="translate(-1 -1)"/><path d="M294.4,766.07c-.87,1.43-2.35,2.6-3.89,2.43s-1.22-2.1-1.19-3.34c.06-2.08,1.15-1.38,2.24-.72C292.48,765,294.44,763.62,294.4,766.07Z" transform="translate(-1 -1)"/><path d="M189.1,766c-1.81-.82-5,.74-5.09-3,0-.86.44-1.82,1.34-1.75,3,.23,3.26,2.64,3.61,4.93Z" transform="translate(-1 -1)"/><path d="M404.08,755.62c1.3.5,3.56-.09,3.52,2.3,0,1.42-1.53,1.47-2.65,1.54-1.59.11-3-.31-3.22-2.16C401.55,755.7,402.73,755.51,404.08,755.62Z" transform="translate(-1 -1)"/><path d="M801.9,718.43a2.21,2.21,0,0,1-2.29,2.08c-1.39,0-2.82-.55-2.8-2.08s1.5-2.1,2.84-2.11A2.13,2.13,0,0,1,801.9,718.43Z" transform="translate(-1 -1)"/><path d="M269.11,787.66c-1.94,2.36,1.47,6.61-3.5,8.43C267.05,793,264.84,789.34,269.11,787.66Z" transform="translate(-1 -1)"/><path d="M672.38,875.41c-.54-2-3.35-2.23-3.58-4.84a4.78,4.78,0,0,1,5.68,2.22c1,1.58-1.23,1.82-2.23,2.48Z" transform="translate(-1 -1)"/><path d="M230.4,790.3c.09,1.34-.39,2.49-1.09,2.23-1.88-.67-2.58-2.61-3.4-4.26-.33-.69-.07-1.95,1-1.78C229.12,786.87,229.14,789.38,230.4,790.3Z" transform="translate(-1 -1)"/><path d="M86.08,77.38c-1.06,2.37-2.39,3.74-4.72,3.26a20.36,20.36,0,0,1-4.16-1.52A2.21,2.21,0,0,1,76,77.77c-.13-1.21,1.16-2.17,1.77-1.58C80.23,78.56,83.67,74.78,86.08,77.38Z" transform="translate(-1 -1)"/><path d="M76.66,87.73c-1.63.37-3.21.57-3.26-1.28-.05-2.15,1.95-2,3.31-1.87,1.93.17,5.43-1.26,5.41,1.32C82.1,88.94,78.17,86.45,76.66,87.73Z" transform="translate(-1 -1)"/><path d="M842.93,197.59c-2.76-.9-6.93-3.72-11.91-4.5-1.25-.2-2.93-3.35-.55-4.27,6.93-2.69,12.2-8.8,20.44-9,5.39-.11,8.63,4.31,13.69,4.85,2.46.26,2.33,6.66-.36,7.4C857.74,193.89,852,198.3,842.93,197.59Z" transform="translate(-1 -1)"/><path d="M383,240.38c-4.41-1.33-9.15-2.43-13.17-5-3.32-2.14-2.88-5.48.69-7.36,3.32-1.74,6.85-3,10.11-5s6.87-2.14,9.83,1.38c1,1.2,2.69,1.86,4.14,2.63,4.32,2.27,4.7,4.78.38,6.93-3.35,1.66-6.9,2.7-9.4,5.74C385.16,240.22,384,240.13,383,240.38Z" transform="translate(-1 -1)"/></g></g></svg>