<svg xmlns="http://www.w3.org/2000/svg" viewBox="0 0 808.11 801.76"><title>fentanyl</title><g id="Layer_2" data-name="Layer 2"><g id="Layer_1-2" data-name="Layer 1"><path d="M20.64,568.34c0-10.5.19-21-.08-31.5-.14-5.24-2.25-10.3-1.69-15.71.36-3.46-.2-7,1.4-10.3a3.74,3.74,0,0,0,.29-2.45c-2.62-8.51-.37-17-.34-25.49,0-7.7-.12-15.82-2.58-23.45a4.2,4.2,0,0,1,.39-3.36c4-7.73,2.88-15.69,1.47-23.82a40.4,40.4,0,0,1,.36-17.33,27.42,27.42,0,0,0-.09-15.24c-.77-2.48-1.36-5.05-.68-7.34,2.79-9.35,1.18-18.87,1.46-28.3s.45-18.68-.05-28,.11-18.35.11-27.52q0-143.55,0-287.09c0-6.18,1.78-8.28,8-8,7.22.3,14.41-.87,21.74.92,3,.72,7-1,10.69-1,20.33,0,40.66,0,61,0,4.28,0,8.63-.67,12.77,1.36,2.17,1.06,4.14-1.16,6.2-1.17,7.28,0,14.61-1.24,21.83.86a10.49,10.49,0,0,0,4.91.46c11.19-2.52,22.3-2.06,33.55-.13,4.26.73,8.82,1,13.25-.84,2.81-1.18,6.23-.49,9.19-.32,6.83.41,13.59-.5,20.39-.4,3.43.05,6.17,2,9.61,2,4.69-.08,9.21-1.4,13.74-1.57,6.6-.25,13.3-.4,19.94,1.17a24.4,24.4,0,0,0,11.35-.48c5.77-1.44,11.53-.95,17.54.09a70,70,0,0,0,25.29-.2,19.63,19.63,0,0,1,3.83-.82c13.5,0,27.14-1.23,40.47.28,23.3,2.63,46.56.56,69.81,1.34,5.11.17,10.33-1.07,15.27-1.13,13.65-.17,27.36-1.5,41-.14,4.3.43,8.43-.82,12.71-.43,4.11.37,8.28-.32,12.3,1.43a6.64,6.64,0,0,0,5.32-.29c3.91-1.71,7.84-1.74,12.29-1.53,12.22.59,24.59,1.78,36.78-.9a7.65,7.65,0,0,1,5.37.39,6.62,6.62,0,0,0,4.83.84c7.68-2.11,15.31-.22,23-.12,4.8.07,9.59-.17,14.45,0,6.87.3,13.79-.94,20.69-1.33,3.13-.18,6.3-.56,9.38.73a10.3,10.3,0,0,0,8.25,0,7.09,7.09,0,0,1,2.86-.6c11.7.43,23.47,1.93,35.06,1.06,8.78-.66,17.52-1.24,26.3-1.26,22.84,0,45.68.1,68.52-.12,4.65,0,6.94,1.9,8.65,5.83a31.07,31.07,0,0,1,2.53,16.85c-1.1,9.86-2.17,20.23,1,30.18,1.17,3.61-1.74,6.56-1.64,10.15.27,10.32-.68,20.74.31,31s-1.33,20.3-.25,30.44a10.31,10.31,0,0,1-.8,5.37c-1.27,2.87-.71,5.7-.07,8.74,1.41,6.65,1.8,13.42-.26,20.08-.1.32-.45.7-.36.9,3,6.47-.93,13.21.78,19.73a14.89,14.89,0,0,1,.65,2.91c.41,8.74.48,17.44,1.42,26.2,1.22,11.41.35,23,.33,34.56,0,3.77.33,7.54-1.66,11.11a7.13,7.13,0,0,0-.62,5.74c2.87,9.63,3.62,19.45.52,29.16a16.47,16.47,0,0,0,0,9.46c2.91,12.05,2.7,24.2.31,36.34a14.61,14.61,0,0,0,.13,4.42c.08.61,1,1.21.9,1.73-1,7.24.71,14.55-.4,21.72-.51,3.31-1.52,6.34.18,9.56a8.37,8.37,0,0,1,.59,3.37c.18,4.67-2.42,9.59,1.33,13.91-3.16,6.91.92,15-3.61,21.74-2.67,4,.47,7.63,1.91,11.08a27,27,0,0,1,1,17.89,40.49,40.49,0,0,0-.15,17.36c1.56,8.25,1.87,16.3-.05,24.54a28.55,28.55,0,0,0,.07,13.38c1.39,5.44,2.18,10.65-.24,16a2.83,2.83,0,0,0,0,2.4c4.25,5.33,1,10.83.86,16.35-.11,4.5.56,9.14.54,13.74,0,3.47.42,7-1.29,10.28a4.17,4.17,0,0,0,.4,4.27c2.87,4.48,3,9,1.35,14.21-1.28,4.14-.94,8.88.16,13.32.12.47.54.87.63,1.35.83,4-9.89,13.86-13.62,12.29a15.41,15.41,0,0,0-6.26-1.16c-14.5,0-29-.46-43.49.19-7.66.34-15.24-.76-22.84-.17-9.64.74-19.27-.19-28.9,0s-19.38,2.45-29.24,1.72c-4.58-.34-8.92-2.94-13.59-1.67-12.3,3.34-25,2.47-37.16,1.17-16.32-1.74-32.57-1.66-48.73-.91q-35.88,1.65-71.72,1.22c-11.67-.15-23.39-1.3-35-1.81-12.67-.54-25.57-.2-38.35.33-4.57.19-9.21-.81-13.72,1.37-2.34,1.13-4.56-1.51-7.16-1.48-12,.14-24.15-1.1-35.95.44s-23.19,1-34.76,1.19c-17.09.29-34.27,1.13-51.27-.15C253,608.38,212.39,611,171.84,610c-19.6-.46-39.09,2.75-58.73,1.73-8.09-.42-16.11-3.28-24.18-1.64-13.7,2.79-27.52,1.69-41.2,1.23-7.36-.25-15.2-.09-22.35-3.17a7.19,7.19,0,0,1-4.81-7.32c.11-10.84,0-21.67,0-32.5ZM754.07,375c-1,2.4-3,3.93-4.84,5.58-2.8,2.5-7.69,2.32-8.6,7.33-.85,4.64,3,7.16,4.14,10.87.23.78.85,1.44,1.12,2.21,1.47,4.38,5.15,5,8.47,3.7,3.11-1.22,6.09-1.24,9.17-1.33,7.53-.22,11.14-6.32,8-13.29-1.66-3.65-5.13-5.85-6.9-9.36-2.2-4.38-6-5.9-10.67-5.58a9.53,9.53,0,0,1,1.9-2.28c3.87-2.38,3.64-5.26,1.79-8.91a11.5,11.5,0,0,0-2.94-3.85c-2.63-2.16-3.13-4.46-1.17-7.36,1-1.5,1.66-3.25,2.55-4.84s1.86-3.14,0-4.89-3.34-3.43-6-2.73a19.28,19.28,0,0,0-4,1.84c-1,.53-2,1.62-3.12.68s0-1.74.23-2.65c.8-2.67-1-4.48-2.7-5.81a5.43,5.43,0,0,0-6.53,0c-6.49,4.55-6.51,15.57-.18,20.22,3,2.19,6.48,2.91,9.91,3.87,3.19.89,4.67,2.38,2.47,5.72a42.92,42.92,0,0,0-3.13,6.16c-1.73,3.85.15,6.65,4.43,6.31C749.69,376.43,751.87,375.54,754.07,375ZM391.93,357.61c-1.78-.3-3.56-.62-5.34-.88a4.78,4.78,0,0,1-4.23-3.64c-2.25-7.29-3.95-8.42-11.27-8.13-2.33.09-4.45.48-5.17,3s-.41,4.79,2.41,6.28c3.14,1.65,2.7,3.1-.45,4.62-3.37,1.63-5.26,4.65-3,8.17s1.13,5.21-2.38,6.34a6.81,6.81,0,0,0-4.68,6.88,7.68,7.68,0,0,0,6.08,6.48c1.11.25,2.54.23,3.25.93,5.28,5.19,10.84,5.56,17,.73.35,2.62-1.93,3.5-1.87,5.48.09,3.34.57,6.43,3.75,8.06,4.23,2.16,8.64,2.36,12.75-.42,2.88-2,4.29-4.33,2.52-8-1.64-3.42-2.58-7.22-6.85-8.41-.65-.18-1.53-.49-1.18-1.22,2.23-4.65-.27-9.73,1.76-14.61,1.68-4,1.85-8.85-3.23-11.65.74-1.47,2.36-1.7,3.61-2.19,2.69-1,2.14-3.19,1.86-5-.41-2.56-2.15-3.8-4.91-3.81-2.6,0-4.51.78-5.53,3.23-.9,2.17-.29,4,1.82,4.92C390.11,355.39,390.82,356.67,391.93,357.61Zm269.72-55.16c.11.44.46,1,.3,1.31-1,1.91-2.63,4-.78,5.88,2,2.07,4.46,1.3,6.7-.37,1.45-1.07,3-.95,4.5.41,3.4,3,7.54,2.73,10.38-.76,1.88-2.31,2.15-5,0-7.19-4.81-5-11.16-5.55-17-1.88-1.41.88-2.78,1.81-4.18,2.71,2.36-9.74,2.9-10.12,12.83-9.27,1.37.12,2.63,1.12,3.73,1.09,3.89-.11,8.28,4.79,11.63-.59,3-4.77,6.4-8.73,11.86-10.72,1-.38,1.79-1.89,2.45-3,6.17-10.31,5.62-21.74,4.63-33-.66-7.51-7.11-10-14.42-7.37-4.53,1.63-7.11,5.31-10.68,7.92-1.44,1-3.38,3.76-5,1.77-1.23-1.55,1-3.75,2.49-5.3a2.56,2.56,0,0,1,.84-.51c6.74-3,11.66-8,15.43-14.22,1.75-2.92,3.71-3.75,5.94-.26a85.19,85.19,0,0,0,15.23,17.69,5.45,5.45,0,0,1,2.12,3.25A23.9,23.9,0,0,0,731,266.72c1.3.92,1.46,1.84.76,2.88-4.42,6.56-8.18,13.89-17.88,13.82-4.58,0-13,7.27-13.09,10.81a9.34,9.34,0,0,1-3.92,6.95c-.56.36-1,.87-1.59,1.2-7,4-11.34,11.56-19.44,14.31-3.17,1.08-2.61,7.78.64,9.54a13.49,13.49,0,0,0,6.07,2.11c2,0,3,1.24,3.21,3.16a4,4,0,0,1-2.51,4.42,10.15,10.15,0,0,1-4.88.8c-2.2-.1-3.77,1.1-4.05,3-.59,3.92-1.46,8.62,2,11.22a9.41,9.41,0,0,0,10.84-.12c4.14-3.06,8.55-2.82,12.89-2.29a23.45,23.45,0,0,0,7.69-.26c9.37-1.94,13.56-9.16,16-17.35,1.78-6-2.17-10.37-6.66-13.37a13.81,13.81,0,0,1-5.73-8.31c-.83-2.84-1.2-5.81-3.8-7.83-.53-.41-1-1.9-.78-2.11,1.87-1.75,3.12-4.52,6.29-4.32a4.17,4.17,0,0,1,4.18,5.1c-1.85,11.07,6.87,15.21,13.63,19.79,3.9,2.64,7.52,4.76,10,9,1.74,2.93,5.07,3.76,8.17,1.35s2.07-5.5.51-8c-1.94-3-4.53-5.79-8.16-7-1.65-.55-2.6-1.16-2.22-3.13,1.57-8.36,1-9.13-7.2-10.44-2.36-.38-4.85-1.08-4.23-4.25.46-2.37,6.63-5.76,8.94-5.24a18.06,18.06,0,0,1,14,17.71c0,5.78,3,7.59,8.63,5.52a32.48,32.48,0,0,0,15.24-12.23c3.7-5.38,7.54-10.75,11.3-16.08,5.3-7.49,5.67-15,1.81-22.68-5-10.07-10.55-19.88-18.29-28.34-3.48-3.81-7.16-7.66-9-12.91-3.37-9.59-4.38-19.94-9.58-29-3.29-5.69-5.81-12.31-10.89-16.28-12.84-10-27.48-16-44.18-16.27-3.77,0-7.08,1.43-10.68,1.72-3.29.28-5.28-.3-4.06-4.29.76-2.52-.2-4.76-1.62-6.89a72.29,72.29,0,0,1-10-20.84c-1.18-4.32-2.12-10.17-6.2-10.27s-8.16-1.81-12.16-.14c-1.1.46-2.27,1.17-3.13-.06s.3-2.11,1-3c3-4,2.6-8.59.75-12.67-3.75-8.23-10.79-12.71-19.28-15a23.17,23.17,0,0,1-6.93-3.66c-5.24-3.58-9.22-9.94-17.09-8.21-1.68.37-2.68-1-3.49-2.37-4-6.49-18.54-8.68-24-3.3-6.76,6.71-11.73,14.85-16.19,23.14-4.17,7.76,1.29,15.74,10.34,15.85a20.7,20.7,0,0,1,8.66,2,6.71,6.71,0,0,1,3.95,7.79c-.67,3.53-3.73,1.66-5.74,2.05-2.6.51-6.07-1.18-7.41,2.43-1.07,2.89-2.12,3-4.09.91a4.59,4.59,0,0,0-5.89-1.14c-2.58,1.39-4.79,8.17-3.08,10.2,2.52,3,6.12,3.77,9.38,1.66,2.2-1.41,2.88-1.09,4.21.82,4.69,6.74,9.55,13.41,16.5,18.09,8.19,5.52,16.89,10.19,27.12,8.32a20,20,0,0,1,8.91.41c7.59,1.92,7.34,1.77,3.07,8.44-2.24,3.51-4.69,4.36-7.71,2-7.18-5.53-15.78-8.19-23.59-12.38-5.19-2.79-10.27-3.21-15.74-3.11-3.58.06-6.61,2-9.94,2.91-11.26,3.15-17.06,11.57-21,21.72-1.67,4.26-2.77,8.57-6.39,12.07-4.74,4.6-8.89,10-11.09,16.37-1.71,5-4.53,4.23-7.51,2-8.61-6.5-18.53-8.14-28.91-8.38-2.48-.06-5.26.42-7.4-.5-9-3.85-18.3-6.54-27.56-9.47a11.73,11.73,0,0,1-5.38-3.46C453,189.42,449.16,186,445.82,182c-4.72-5.59-10.4-9.73-18.48-8.72a62.7,62.7,0,0,1-9,.08c-1.64,0-3.08-.19-4.35-1.8-3.66-4.68-8.91-4.64-12.9-.22-3.24,3.58-6.25,7.41-9.78,10.66A21.31,21.31,0,0,0,384,198.24c-.07,5.18-3.2,7.9-9,8.39-2.15.18-4.52-.23-6.43.53-12.77,5-25.69,9.88-35.63,19.94-2.18,2.21-5.39,2.59-6.47.56-2.59-4.91-8.23-5.46-11.36-9.25-2.4-2.9-5.74-4-9.09-4.79-10-2.43-12.2-4.64-13.63-14.63-1.28-9-6-15.85-13.15-21.2-7.83-5.86-17.16-8.21-26.2-11.29-1.72-.58-4.65-1.18-3.59-3.74.88-2.09,3.67-1.4,5.32-.51,8.25,4.48,16.29,2.9,24.51-.09,2.93-1.07,6.85-.95,7.66-4.47.66-2.88,2.21-5.78,1.93-8.64-.76-8,2.64-13.44,8.94-18,4.39-3.2,3.94-8.42-.13-12a17.12,17.12,0,0,0-13.36-4.1c-1.21.1-2.82.36-3.25-1.47-.33-1.42.75-2.08,1.67-2.8s1.55-1.25,2.39-1.8c8.85-5.81,11.34-12,8.88-22.17-1.22-5-5.45-7.42-10.48-5.75-1.32.44-2.86,1.12-3.74,0-2.77-3.58-6.58-2.4-10.11-2.62-1.52-.1-3.7.7-3.88-1.86s1-4.32,3.58-4.58a25.06,25.06,0,0,1,8.83.73c9.25,2.34,17.12.2,21.05-10.26,2.07-5.5,1.72-10.45,1.55-15.94-.26-8.31-9.31-17-17.24-16.59-12.12.71-24.06-.66-35.37-6.05a22.76,22.76,0,0,0-12.11-2.19c-2.78.3-5.84.56-8.43-.27-8.66-2.74-16.45.81-23.76,3.91-6.68,2.83-12.16,8-19.88,9.36-8.78,1.58-12.52,9.63-16.83,16.37-1.81,2.83-3.95,6.11-2.75,9.78,2.23,6.87-1,12.2-4.51,17.46-.9,1.35-2.67,2.28-2.5,4.14.84,9.13-3,19,4.52,27.12,1.24,1.33,1.32,3.69,2.17,5.46,2.06,4.29,3.15,9.21,7.26,12.24,2,1.51,4.48,1.8,6.46.14,1.5-1.26,1.92-3.76.51-5-3.71-3.22-3.75-8-5.86-11.86-3.84-7-1.73-14,1.2-20,2.57-5.21,3.89-10,3.63-15.6-.18-3.65-.11-7.33,0-11s1.8-6.55,6.21-8.89c-6.7,8.89-4.08,17.83-4.44,26.38-.13,3.25-.24,6.54-2.09,9-4.25,5.75-3.31,11.67-.9,17.44,1.35,3.23.47,7.15,3.21,9.8.79.78,1.31,2.6,3.09,1.35,1.4-1,2.17-2.14,1.08-3.76-1.64-2.45-1.47-5-.71-7.67A71.7,71.7,0,0,1,187.7,94.7c2.17-4.25,1.87-8.72.43-13-1-3-.65-5.74-.14-8.76.69-4.17,3.47-7.37,4.46-11.33a1.61,1.61,0,0,1,1.7-1.46c1,0,1.39.79,1.46,1.68.19,2.49.44,5-.53,7.4s-2.11,4.9.48,6.77,2.78-2.27,5.22-2.89c-.71,5.61,1,10.16,2.63,14.91,1.42,4.08,2.78,8.44,2.37,13.09-.37,4.35-2.82,7.74-4.46,11.47-1.47,3.35,1.2,5.26,1.84,7.8.41,1.63,3.05,1.88,4.42,1.13,5.07-2.78,10.45-.84,15.64-1.42a4.63,4.63,0,0,1,3.71,1.15c.84.76,2.15,1.46,1.55,2.82s-1.93,1.08-3,.55c-1.53-.75-3.14-1.6-4.76-.78-4.89,2.46-10.14-.46-15.1,1.18-1.42.47-2.86-.48-4.15-1.35-3-2-6.18-3.07-9.06-.16s-1.6,5.56.47,8.45c2.22,3.07,1.35,5-2.74,4.7a9,9,0,0,0-7.39,2.4c-5.67,6-13.1,5.54-19.53,3.77-6.69-1.84-12.55-.54-18.37,1.34-9.07,2.92-16.39,8.69-23.31,15.38-4,3.86-8,9.19-13.84,10a41.75,41.75,0,0,0-21.09,9.05c-1,.82-2.62,2.54-3.82.77s.59-3.1,2-3.86c4.66-2.46,9.42-4.71,14.1-7.14,11.38-5.91,16.25-18.15,10.94-29.7a30.39,30.39,0,0,1-2.54-13.47c0-5.83,0-11.66,0-17.5a14.8,14.8,0,0,1,1-4.71c1.74-5.16,6.28-7.54,9.76-11,2.63-2.61,6-4.82,5.79-9.15-.2-4-4.06-3.8-6.46-5.13C114.06,75.76,113,73.47,115,70a33.05,33.05,0,0,0,1.66-3.57c1.49-3.47.13-6-3.58-6.36a10.42,10.42,0,0,0-5.4.54c-3.51,1.58-6.93,1-10.64.23C92.93,60,88.68,56.66,84.32,60a16.12,16.12,0,0,1-12,3.42c-2-.21-2.78,1.33-3.77,2.76C64.72,71.68,65.6,77.91,65.64,84c0,1,.38,2.18-.8,2.63s-1.75-.59-2.21-1.46c-1.69-3.2-4.18-3-7.19-2.09s-5,3.13-4.82,5.7c.28,4.5.36,10,2.9,13.13,3.86,4.74,12.76,1,13.84-5.09.16-.95.28-2.69,1.15-2.3a22.13,22.13,0,0,1,6.54,4.29c1.65,1.66-.47,3-1.52,4.11-4.26,4.44-6.37,9.77-8.19,15.63-1.71,5.48-1.35,11.1-2.53,16.59-1,4.81-3,9.37-3.64,14.13-.74,5.73-2.44,11.26-3.05,16.91-.71,6.66-2.22,13.8,1.24,20.07,4.69,8.5,9.57,16.84,13.62,25.7,1.62,3.54,5.48,6.19,9.42,7.63,2.5.92,5.55,1.06,7.71-.65,3.94-3.13,7.59-2.3,11.64-.45a37.12,37.12,0,0,0,8.48,2.72c8.37,1.59,22.47-1.3,25-13.34,1.09-5.14.75-10.61.7-15.93a21.31,21.31,0,0,1,2.89-10.78c.49,8.26.51,16.49.48,24.73,0,3.16.46,6.48-.35,9.44-3,11.09-2,22.68-4.54,33.79-.34,1.46.6,2.92.78,4.35.55,4.23,3.37,8.41,2,12.54s-.36,7.24,1,10.93c1.56,4.22,3,9.13,1.45,13.32a83.81,83.81,0,0,1-17.64,28c-2.83,3.06-5.15,6.27-6.23,10.48-1.83,7.16-4.5,14.13-6.07,21.34-.73,3.35-2.59,6.61-2,10.17,2.75,15.63,9.06,28.6,25.5,34,2.22.73,4.53.57,6.75,1.6a8.26,8.26,0,0,0,10.06-2c2.08-2.41,1-5.55-.32-8.43-2.71-5.93-4.47-12.13-3.78-18.76.37-3.63,1.49-7.14,2.25-10.68,1.38-6.5.35-13.45,4.48-19.55,3.54-5.22,8.33-8.72,12.83-7.25-11.3,11.92-15.62,26.35-14.31,42.3.64,7.7,1.21,15.94,8.33,21.43a19.14,19.14,0,0,1,4.36,4.71c6.24,9.69,15.73,15,26.52,15.07,7.64.06,11.65,4.72,17.15,7.63a2.15,2.15,0,0,1,1,1.6c0,1.06-1,1.13-1.86,1.18a29,29,0,0,1-3.49,0c-4-.23-5.74,1.57-5.55,5.68a10.9,10.9,0,0,0,3.5,7.87,9,9,0,0,1,3.19,5.43c1.38,11.93,11.85,16.32,19.71,22.23,4.08,3.05,8.24,5.6,10.91,10,1.44,2.37,3.19,4.67,5.77,5.23,4.56,1,3.69,3.33,2.79,6.58-1.87,6.78-5.33,13.34-2.56,20.85,3.48,9.38,4.79,19.73,13.08,26.78,3.27,2.79,4.79,6.82,6.31,10.66,3.13,7.92,6.76,15.51,12.11,22.18,1.42,1.78,1.75,3.73,2,6,.93,7.25-2.16,14-1.9,21.25.24,6.78,6.8,12.37,11.44,12.52,7.92.24,15.92,1.09,23.84-1,3.58-1,7.49-1.17,11.07,1.17,2.22,1.45,4.9,1.62,7.63,1.81,14.34,1,28.47-2.48,42.79-1.79,3.07.15,5.8-1.54,8.31-3.08,3-1.86,1.47-5.14,1.54-7.81.06-2.43-1.83-3.65-3.92-3.78-3.64-.24-7.68-1.05-10.88.17-6.2,2.35-10.91.13-15.84-2.89-9.92-6.08-18.74-13.77-29.06-19.3-3.35-1.8-5.5-5.18-7.05-9.15-1.74-4.45-.9-8.89-1.79-13.24-1.62-7.91-3.39-15.79-4.6-23.77a119.15,119.15,0,0,0-6.35-24.05c-2.44-6.47-2.33-12.47-1.05-18.95,1.36-6.95,1.62-13.9-3.5-19.84-6-6.92-7.88-16.14-8.54-24.16-.95-11.43-6.38-20.41-10.67-30.11-1.59-3.61-4.88-7.37-9.74-5.74-4.26,1.43-5.66.39-5.28-3.8.82-9.07,2-18.22,1.13-27.25-.94-9.45-1.71-19.19-7.33-27.53-1.49-2.21-2.74-4.68-1.85-7.5,2.81-9,3.48-18.15,3.14-27.49-.11-3-.47-6,.61-8.91,3.05-8.19,5.21-16.67,8-24.92,1.9-5.61.11-9.31-2.78-13.53-4.32-6.3-8.78-12.34-15.4-16.5-1.92-1.2-3.19-3.48-1.39-5.56s4.07-1.44,6.25.09,3,3.59,4,5.6c6.55,12.26,18.13,18.57,29.7,24.57,6.51,3.37,13.95,4,21.37,3.43,4.07-.3,8.32.29,11.23,3.07,4.92,4.71,10.65,5.5,16.93,5.35,3.13-.08,4.71-1.68,4.68-4.61-.05-4.57,1.95-3.88,5.32-3,4.51,1.18,9,3.88,13.95,1.89,19.77-7.95,36.82-18.94,45.7-39.6,1.64-3.82,5.22-7.79,9.36-7.74,5.74.08,8.07-5.78,13.24-5.92.24,0,.7-.81.68-1.22-.17-3.35,1.44-7-1.88-9.81-3.12-2.64-6.16-2.42-9.67-.7-6.83,3.35-13.17,1-17.33-5.72-1.63-2.64-1-4.67,1.1-6,4.07-2.66,7.84-5.38,10-10,.54-1.16,2.72-2.47,4.12-1.16,1.16,1.06.44,2.86-.77,4a29.74,29.74,0,0,1-6.2,4.94c-2.88,1.5-3.2,4.16-2.16,6.87s3.26,3,5.81,2.7c2.22-.29,4-1.62,6-2.41,2.64-1.06,5.93-2.39,7.81,1,2.13,3.82,4.25,7.39,8.37,9.4,1.06.52,1.37,1.78,1.61,3,1.79,8.94,5.94,12.84,14.56,12.38,5.77-.31,8.48,2.16,10.28,7.2,1.62,4.52,3.85,9,8.71,10.9a15.61,15.61,0,0,1,6.44,4.48c3.95,4.59,9.46,6.47,14.58,9.21,6.85,3.67,14.61,2.33,21.52,5.05,2.78,1.09,5.57,2,8.65,1.65a14.7,14.7,0,0,1,9,2.08c3.63,2,7.69,1.8,11.57.3,3.23-1.26,6.27-3.2,9.6-3.93,10.52-2.3,18.48-8.47,25.44-16.17a24.54,24.54,0,0,0,6.44-19.16c-.64-9.29-.22-18.65-.12-28,0-1.66-.74-4.48,1.64-4.57,2.66-.1,1.67,2.78,1.72,4.34.15,5.33,0,10.67,0,16,.07,9.06-1.11,18.29,4.57,26.48,1.3,1.88,0,4.24-2.57,4.12-5-.23-6.47,3.6-8.2,6.84a21.36,21.36,0,0,0-2.25,10.07c0,5.43,1.59,11.18-.94,16.26-6,12.07-6.19,25.12-7.17,38.07a11.62,11.62,0,0,0,0,4c1.51,5.14,1.11,10.59,4,15.61,4.55,7.88,11.58,9.71,19.62,10.06A6.92,6.92,0,0,0,596.3,345c1.29-2.68-1.7-3.53-2.79-5.16-.62-.91-1.9-1.33-2.73-2.13-2.42-2.36-2.87-5.46-.29-7.42,4.6-3.5,9.78-5.58,16-4.34,4.88,1,9.08,4.22,14.23,4,4.18-.17,4.75-1.69,3.78-5.59s-4.73-4.38-6.94-6.67c-2-2.11-3.29-4.47.21-5.76,7.12-2.62,13.81.05,19.35,4.08,6.1,4.43,5.76,4.66,11-.45C652.66,311.23,654,303.53,661.65,302.45ZM663,485.77c-1.35-3.17-.61-6.41-2.14-9.22-1.44-2.65-2.69-5.68-6-4.55-3.76,1.28-2.68,4.67-1.81,7.64,1,3.3,3.31,6.56,2.46,10-1.78,7.1-.71,13.92-.18,21,1,13,4.91,25.13,7.84,37.59,1.77,7.53,2.8,15.93.09,22.6-4.7,11.59-12.34,21.57-26.86,22.61-5.49.4-7.63,3.15-7.42,7.93.17,4.18,3,6.66,8.11,6.92a27.7,27.7,0,0,0,7.85-.9c7.07-1.66,14.12-3.1,21.62-2a230.68,230.68,0,0,0,29.08,2.73c7.93.17,13.11-7.48,11.89-15.1-.7-4.34-1.65-8.33-4.33-11.9a6.38,6.38,0,0,1-.32-6.7,14.25,14.25,0,0,0,.83-10.23c-1.27-4.24.35-8.24-.13-11.86-1.28-9.66,3.76-17.43,6.24-25.75,2.66-8.91,4.39-17.5,2.31-26.46-1.39-6-1.75-12.62-7.41-16.86-1.84-1.38-2.2-3.43-2.47-5.72-.72-6.17,2.24-11.6,3-17.36,1.16-8.63,4.1-16.83,4.21-25.83.1-7.84,2.33-15.92,4.51-23.76,3.27-11.79,8.53-23,8.73-35.71.13-9.07-3.24-17-11.17-21.42-6.4-3.54-18.18-2-23.58,2.95-2.84,2.63-6,2.73-9.1.58-7.22-4.95-15.66-4.82-23.74-5-6.68-.14-9.88,6.08-6.84,11.9a102.67,102.67,0,0,0,7,11.38c2.92,4.17,4.9,3.82,7.33-.88.68-1.31,1.56-2.51,2.77-4.44.61,4.55.4,8-3.14,9.91-4.23,2.3-7.85,1.12-10.5-2.87-2.19-3.3-4.16-6.76-6.52-9.93-1.31-1.77-2.65-4.1-5.51-3.55-2.69.53-1.94,3.08-2.67,4.81a4.91,4.91,0,0,0,.12,4.59c2.13,4.27,1.45,8.92-.44,12.74-5.08,10.28-1.81,20.3.12,30.34,1.42,7.44,4.17,14.55,3.95,22.36-.22,8,3.26,14.54,10.34,18.58C660.45,462.3,666.41,478.1,663,485.77ZM480.75,597.32a5.49,5.49,0,0,0,2.59,6c5.19,3.6,11.24,4.39,17.16,4,11.1-.7,22.08-4.54,33.33-.86,1.76.58,3.54,0,5.35-.58a31.79,31.79,0,0,1,17.24-.28c5.09,1.38,9.14-.09,13.05-2,7-3.4,9.44-12.15,7.46-20.72-2.4-10.44-2-21,0-31.56.88-4.7,4.15-8.37,5.2-12.82,2.3-9.69,6.86-18.7,8-28.75.73-6.39,1.81-13,1.71-19.17-.1-7.06-1.54-14.95-8-20.2-1.81-1.46-2-2.94.81-3.86,9.19-3,16-9.81,23.77-15.06,9.52-6.4,16.07-15.09,21.1-25.14,2.44-4.87,3.79-9.64,1.39-15.19-2.24-5.18-4.54-9.67-9.51-13.16-6.17-4.34-10.56-4.39-14.78,1.83-2,3-4.12,4.59-7.71,1.71-2.42-1.94-6.29-4.66-8.55-2.92-7.27,5.57-15.26,2.16-22.82,3.18-3.75.51-6.75,3.85-10.8,3.33s-6.57,1.28-7.41,4.93c-.89,3.87,2,5.46,5,7,1.93,1,4.38,1.59,4.66,4.61.56,6.08-9.48,14.86-15.38,13.27-5.54-1.5-7.65-.63-9.5,4.69-2.4,6.91-3.1,14.23-6.46,21-3.08,6.23-3.72,14.17-1.18,20.44,3,7.37,3.41,15.07,3.76,22.28.65,13.36,2,26.73,2,40.12A36.73,36.73,0,0,0,534.82,557c1.52,3.91,1.14,7.22-2.16,10.36-6,5.71-12.19,10.93-19.95,14.33-8.2,3.6-15.4,9.37-25.29,8.76C484.44,590.23,479.9,592.07,480.75,597.32ZM154.57,503.7c3.26,5.9,4.88,6.05,9.17.9,6.41-7.7,10.77-16.19,10.3-26.58a14.46,14.46,0,0,1,.65-4.41c2.17-7.82,5.3-15.46,4.34-23.85a6.55,6.55,0,0,1,1.52-4.66c4.52-5.85,4.09-11.56,0-17.4a11.89,11.89,0,0,1-1.58-3.65c-3.34-12.27-13.21-18-23.71-22.23-8.34-3.33-17.75-3-26.62-4.88-8.38-1.76-9.68.25-9.69,9.05a149.34,149.34,0,0,0,1.75,25.73c1.14,6.71.59,13.85,3.47,20.16,3.49,7.64.47,18.32-5.12,23.83a34.3,34.3,0,0,0-9.86,21.74,105.48,105.48,0,0,0,4.11,39.83c2.94,10,3.61,19.81-.38,30-2.26,5.8-6.07,10.69-8,16.6a17.74,17.74,0,0,0,4.31,18.45c4.42,4.58,11.36,3.9,17.21,3.64,8.41-.37,16.73-4.32,25.21-.75,3.87,1.62,7.8,1.33,11.78,1.45,5.95.18,11.86-.23,17.83,1.35,6.38,1.69,12.52-4.68,11-10.67-1.25-4.75-5.21-5.78-9.34-5.62-6,.23-11.83-.35-16.48-4.25-4.07-3.41-8.29-6.61-12.37-10-6.4-5.26-9.23-14.09-6.2-20.21,5-10.1,6.68-21.41,12.05-31.35,1.24-2.29,1.31-5.09,2-7.62.77-2.74-.79-5.74-3.14-7.34-2.6-1.78-3,1.67-4.37,2.72-.9.68-1.59,1.78-3.37.51C154.18,511.4,150.13,506.38,154.57,503.7ZM701.73,77.89c2.6-5.4-1.57-8.06-4.69-10.65-4.57-3.79-6.3-10.08-11.33-13.11-11.61-7-22.23-15.38-33.51-22.82-9.39-6.19-19.17-12.39-31-4.88-1.24.79-2.83-.17-4.27-.68-3.22-1.15-6.42-3.5-10-2.25-6.63,2.34-13.59,3.41-19.86,7.28-13.59,8.38-13.93,17.41-7.82,29.81,1.57,3.19,4.54,5.12,8.42,6.34,5.25,1.67,10.61.57,15.68,2,2.33.64,4.25.55,5.12-1.38a5.57,5.57,0,0,0-.56-6.09c-1.76-2.13-4.31-3.06-6.38-4.69-.86-.66-2.46-1.31-1.63-2.61s2.48-.74,3.51.14c2,1.7,3.88,3.58,5.79,5.41,1.09,1,2.12,2.39,3.72.78,1.14-1.14,2.49-2.05,1.64-4.21a13.57,13.57,0,0,0-3.45-5.35c-.94-.86-2.87-1.59-1.45-3.54C617,51.17,620,59,616.71,65.88c-.75,1.57-1.4,3.1-.84,4.77a27,27,0,0,0,17.21,17.73c9.53,3.46,17.9,8.35,20.83,19,.8,2.9,2.22,4.66,5.17,4,3.36-.74,3.81-3.75,3.11-6.4-1.54-5.87-4.3-10.63-10.37-13.57-5.34-2.58-11-5.3-15.87-10.18,5.92.08,9.51,3.33,13.48,5.53,8.33,4.61,17.5,8.47,20,19.24a12.07,12.07,0,0,0,1,2.27c1.86,4,4,4.36,7.09,1.16a10.43,10.43,0,0,0,3.26-7.52c.1-8.14-3-13.83-10.78-17.06-5.46-2.27-11.25-4-16-7.6-8.57-6.39-14.61-15.13-21.06-23.47a2.39,2.39,0,0,1,.23-3.45c5.89,5.11,9.7,11.94,14.78,17.67,5.77,6.51,12.67,11.49,21.2,13.66a17.82,17.82,0,0,1,13.51,17.6,35.87,35.87,0,0,1-4.36,17c-1.22,2.2-1.47,4,.76,5.63s3.87.89,5.41-1.23a26.62,26.62,0,0,1,3.61-3.41c1.71-1.61,3.49-3,1.66-5.87-1.66-2.62.3-3.25,2.47-2.87a15.85,15.85,0,0,1,3.66,1.52c6.27,2.88,8.3,1.73,8.1-5.09-.11-3.79.39-6.49,4.34-8.33s2.93-5.73,1.72-8.77-1.56-7.25-7-6.78c-4.63.39-9.13-.89-11.36-6a11.8,11.8,0,0,0-2.47-4.26c-1-.92-3.15-2.1-2-3.46,1.49-1.84,3.18.1,4.76.91C696.1,70.48,697.18,75.86,701.73,77.89ZM282,346.17c4.28-2.77,4.68-3.31,7-10.23,1.37-4.07,2.26-8.4,8.27-8,1.71.11,3.67-1.37,5.26-2.49,1.85-1.31,1.83-3.07.09-4.61s-9.07-1.4-10.21.58c-1.65,2.85-2.91,2.39-5.47,1.07-6.83-3.52-16-.09-19.05,6.66-2.66,6,.77,12.77,8,15.91,1.51.66,2.83,1.09,2.18,3.51-1.28,4.8,1.3,7.8,6.3,8.09,2.22.13,4.55-.48,6.77.59-3.06,5.46-2.53,10.39,2.3,11.92,5.36,1.69,10.32,5,16.53,4.34,4.21-.43,7.27-2.18,8.58-5.64,1.79-4.72,5.44-3.58,6.86-1.56,5.1,7.29,13.3,4.44,19.81,6.86,2.31.86,5.32.34,7.9-.15,4.56-.86,6.26-4.92,4.09-9a41.86,41.86,0,0,0-7.56-9.82c-3.31-3.31-1.81-9.2,2.49-11,3.93-1.66,8.32-2.4,11.57-5.43,2.11-2,3.7-4.36,2.88-7.39-.89-3.31-3.55-3.53-6.59-3.83-7.08-.69-13.22,2.16-19.59,4.3-3.33,1.13-5.79-.68-5.34-4.06s-1.34-6.12-3.2-8.62c-1.63-2.19-4.25-1.57-6.49-1.17-2.09.37-2.94,2.16-3,4.1-.1,3.76-.69,7.61,1.8,11,.76,1.05,2.61,2.73.61,3.69-1.56.75-2-1.55-2.74-2.8-2.46-4.28-6.15-4.17-8.74.14-1.68,2.8-1,5.85-.9,8.78.05,3.14-1.09,5.32-2.9,8-3,4.39-7.56,2.68-11.1,4.41-.87.43-2,1.14-2.7.12-.91-1.29.58-2,1.14-2.92.8-1.29,2.05-1.34,3.39-1.63,4-.86,6.08-3.45,5.29-7.56-.71-3.71-3.17-6.9-6.91-6.74-4.31.18-5.52,3.94-4.5,7.75.94,3.53-1,4.26-3.2,3.15C287.84,344.87,285.09,345.43,282,346.17ZM424.08,93.31c5.14.22,8.24-3.72,5.83-8-2.28-4.07-2.37-8.57-3.87-12.75-1.27-3.54-.44-7.07,2.68-10,4.06-3.77,9.26-4.94,14.08-7,2.12-.91,4.57-1.51,4.46-4.61-.11-2.87-2.71-3.08-4.45-4.08-5.54-3.19-11.67-1.59-17.56-1.82C418,44.76,414.11,41.31,414,34.13a13.63,13.63,0,0,0-3.38-8.63c-3.62-4.52-9.2-3.67-11.14,1.68-.9,2.47-1.1,5.25-2.3,7.54-1.86,3.56-.46,8.83-6.48,10.34-6.47,1.61-12.73,3.9-19.5,4.36-2.29.15-5.27.47-5.44,4-.14,3,1.51,4.43,4.4,5a60.6,60.6,0,0,1,7.63,2.26c8.23,2.83,9.24,4.58,7.76,13.3a8.07,8.07,0,0,1-.75,2.35c-1.44,2.73.4,4.9,1.66,6.74s3.36,1.19,5.44.49a20.88,20.88,0,0,0,7.82-5.11c4.82-4.57,6.28-4.52,10.42.4,3,3.56,6.11,7,8.5,11.07C419.91,92,421.49,93.68,424.08,93.31Zm79.8,307.09c.07,6.11,7,9.75,11.71,7.2,3.59-1.93,6.06-5.08,8.44-8.29.85-1.15,1.41-2.62,3.5-1.67,4.83,2.21,9.61,2.94,14.32-.71,1-.76,2.91-.3,4.41-.33,6.31-.13,6.93-1.12,5.08-7.13-1.26-4.09-1.63-8.26,1.84-11.63,2.57-2.5,3-5,.51-7.77-1.77-2-1-2.85,1.29-3.83,1.38-.59,3.68-1.4,3.34-3.8-.5-3.57-8.5-8.21-12-6.86a18,18,0,0,1-13,0c-5-1.78-11.21.08-12.33,4.3-.93,3.49-2.59,2.17-4.24,1.6-1.38-.48-2.53-1.63-3.9-2.13-2.76-1-4.94.62-6.66,2.34-1.52,1.53-.6,3.79.63,5,4.38,4.17,6.23,10.16,10.72,14.28,2.87,2.64,2.77,5.43-1,7.64-2.71,1.59-5.3,3.41-7.84,5.26S503.77,397.92,503.88,400.4Zm-85.95-22.61c2.78-3.47,5.5-5.82,9.94-6.21s6.82-4.68,4.53-8.29c-3.76-5.92-8.53-11.14-14.92-14.2-3-1.44-7-2.1-9.89.45-3.45,3.08-.83,6.23.73,9.37,1.07,2.15,3.65,4,2.21,7-1.65.23-2.15-1.08-2.9-1.84-2.19-2.24-4.84-3.72-7.42-1.48-2.41,2.09-2.48,5.24-.95,8.19a15.71,15.71,0,0,0,6.21,6.28c4,2.27,5.38,4.56,2.29,8.48a2,2,0,0,0,.08,2.35c2.45,3.42,1,6.24-1.33,9-2.74,3.26-2.65,6.49-.26,10,1.64,2.4,4.28,1.47,6.34,2.1,4.12,1.25,8.63,2.37,12.81,1.93,7.11-.74,10.92-7.3,16-11.46,2.62-2.17.55-6.95.93-10.54,1-9.48-8.35-15.07-16.8-11.45A11,11,0,0,1,417.93,377.79Zm67.83,21.52c.14,1.06-.77,1.32-1.31,1.88-2.6,2.71-6.52,2.08-9.55,3.83-3.59,2.07-4.32,5.17-4.16,8.86.1,2.13-.47,5,2.21,5.46,4.11.67,6.7,3.36,9.71,5.62,1.45,1.1,3.12,2.2,5.06,1.69,5.39-1.42,11-2.56,15.75-5.5,5.51-3.39,4.92-10.17-.75-13.14-1.55-.81-3.68-1.39-4.16-3.35-1.17-4.71-4-7.19-9.39-7,5.46-2.15,7.54-5.59,6.4-10.8-.34-1.55.16-1.85,1.74-2,3.13-.27,10.26-9.54,10-12.66a5.17,5.17,0,0,0-.48-1.9c-1.35-2.66-2.86-5.36-5.3-7.06-4.48-3.13-9.3-7-15-4.4-4.81,2.18-4.36,7.4-4.12,11.93.13,2.57-.93,4.33-2.72,6.08-2.21,2.19-4.6,4.19-6.27,7-2,3.38,1.2,5.94.74,9.1-1,6.87.94,7.1,7.9,6.92C483.3,399.9,484.35,398.48,485.76,399.31ZM422.15,523.24a22.3,22.3,0,0,0,4.48-.06c1.84-.39,4.34,1.89,5.36-.48a7.64,7.64,0,0,0-1-7.58c-.78-1.07-1.34-2.31-2.15-3.36-2.15-2.83-1.91-5.59.32-8.16a28.67,28.67,0,0,1,4.94-4.85c3.43-2.37,4.63-5.87,2.92-9.06-1.33-2.49-4.79-2.59-8-1.86a22.24,22.24,0,0,1-17.6-3.09c-4.32-2.78-8-1.49-8.94,3.5-.68,3.54-2.66,5.32-5.56,6.95s-5.9,2-8.78,3.19c-2.07.85-3.51,2.17-3.81,4.2a4.64,4.64,0,0,0,3.15,5.13c8.21,1.93,8.23,9,9.72,15,1.22,4.88,5.46,7.72,9.23,4.51C411.34,523,416.54,523,422.15,523.24Zm-25.28-108,.66,1.41c-2,1.64-4,3.33-6.07,4.91-1.46,1.1-3.3,2.74-4.9,1.86-2-1.1-.14-2.84.44-4.28a1.82,1.82,0,0,0,0-1.45c-4.62-7.3-4.8-17.75-16.12-20.28-6.66-1.5-11.84,1-11.86,7.78q0,3.75,0,7.5c0,7.06.63,8,7.74,7,4.54-.65,7.31,1.24,9.83,4.09,2.16,2.45,8,2.19,5.91,8.05-.57,1.62,1.34,2.84,3.23,3,10.89,1.19,23.14-2.35,27.16-14.22,1.33-3.92.22-6-2.85-7.49-3.72-1.82-8.83-1.61-9.75-7.26-.06-.39-1.42-.76-2.19-.8-3.37-.17-6.44.36-7.29,4.38C389.79,414.16,392.9,415.09,396.87,415.21ZM66,313.36c2.56,0,3.73-.07,4.89,0,3.58.26,5.85-1.49,6.34-4.88.56-3.85-2.52-4.82-5.36-5.08-3.92-.35-3.93-2.09-3.2-5.37,2.16-9.7-.7-18.21-7.41-21.17-3.23-1.43-4-2.48-2.71-5.82,1.45-3.77-.57-6.82-4.21-7.54-3.37-.66-6.45,1.69-6.86,5.49a48.17,48.17,0,0,0,0,6.47c.14,4.66.11,8.9-3.77,12.76s-1.47,10.83,3.49,13.35c3.92,2,8.13,3.53,10.33,7.79S63.44,313.54,66,313.36Zm72.9-211.71c-4.4-.25-8.76-1-10.78,3.7-1.86,4.35-.84,8.44,2.43,11.87,1.63,1.71,1.83,3.72,2,6,.29,4.37,2.37,8.39,7,8.25a38,38,0,0,1,20,4.43,2.34,2.34,0,0,0,3.15-.45c1-1.07,1.54-2.17.66-3.56-1.46-2.3-1-4.76-.76-7.26.75-9.65-1-16.22-10.67-20C147.53,103,143.22,101.25,138.85,101.65ZM558.79,88.34c7.76,0,12.25-7.11,8.35-13.78-1.68-2.87-1.64-4.43,1.43-5.78a37.78,37.78,0,0,0,3.85-2.2c2-1.17,3.64-3.23,2.91-5.2-1.41-3.79-2.1-7.93-4.94-11.2-4.22-4.89-9.71-4.44-13.42.9-5.83,8.38-7.74,17.77-7.91,27.69C548.93,86.39,550.94,88.31,558.79,88.34ZM605.72,365c1-3.31-3.5-5.07-3.35-8.57.16-3.85-2.31-4.59-5.5-4.77-4.11-.23-8.25.67-12.33-.73-4.59-1.58-9.23,1.48-8.68,6.29a48.14,48.14,0,0,1-.19,12.92,4.55,4.55,0,0,0,.17,2c.48,1.57,14.62,9.56,16.27,9.24.88-.16,13.4-13.47,13.5-14.36C605.67,366.52,605.67,366,605.72,365ZM469.32,376.1c5.59.69,7.54-1.64,8.05-5.06.61-4.16-1.24-7.37-5.07-9.27s-8-2-12.14-1.79c-4.66.23-9,0-13.39-2.59-3-1.78-6.35-1.18-8.56,3-2,3.89.7,6.7.9,10,.59,9.8,3.59,11.39,12.62,7.33.45-.21,1-.73,1.32-.6A15.18,15.18,0,0,0,469.32,376.1Zm164.74-24.39c2,.53,4.26-2.14,6.91-1.62,4.77.92,6.37-2,7.63-5.63,1.71-4.9-3.63-12.38-8.18-10.72-4.19,1.53-9,2.15-12.4,5.5-1.86,1.87-3,1.86-4.9.07-3.12-2.95-6.86-2.24-8.79,1.7a80.09,80.09,0,0,0-5,12.28c-.7,2.37-1.45,5.57,1,7.45s5.14.77,7.46-.69c2.74-1.72,5.74-3.19,7-6.58,1-2.75,2.54-4.17,5.56-2.12C631,351.83,632.27,351.56,634.06,351.71ZM747.41,506.3c0,3.63,1.52,5.27,5.1,5.46,3,.16,5.51-1.25,8.09-2.16,3.36-1.17,5-1.51,5.31,3,.26,4.09,4.92,8.06,7.53,7.22,4.37-1.41,4.09-5.15,3.82-8.68a16.23,16.23,0,0,0-1-3.84c-1-3.19-1.17-6,1.63-8.65,1.64-1.53,3-3.74,1.07-6.17s-4.35-3.3-7.07-2.11c-1.88.84-3.82.9-5.68,1.4-7,1.87-13.62,4.33-17.67,11A6.05,6.05,0,0,0,747.41,506.3Zm-289-101.64c-9.5-1.94-12.23-1.4-16.22,3-2.55,2.81-2.13,5.87-.18,8.6,2.23,3.14,10.35,5.4,13.7,3.56,4.18-2.3,5.11-6.74,5-11.07-.05-2.25-.5-3.48,2.45-4s4.24-4.74,3-5.72c-4.12-3.21-3.5-8.22-5.84-11.94s-7.78-4.7-12.32-1.76c-3.76,2.43-2.71,6.05-1.39,9.3a11.48,11.48,0,0,0,5.9,5.8C454.5,401.39,457,401.73,458.44,404.66Zm-327.08-343a14.11,14.11,0,0,0-8,1.6,7.67,7.67,0,0,0-4.4,7c-.15,3.21,1.81,4.3,4.31,5.2,4.57,1.64,7.59,3.74,4.43,9.45-1.13,2-.3,5.21-.32,7.86a1.91,1.91,0,0,0,2.14,2.15c1.19,0,2.44,0,2.67-1.56.82-5.48,5.68-5.64,9.39-6.56,6.29-1.55,7.76-4.89,3.68-10-1.32-1.66-2.83-3-3-5.51C141.67,62.07,141.13,61.67,131.36,61.67Zm-53,186.66c1.49,0,3,0,4.48,0,5.88-.23,11.7-10.24,9-15.4-2.38-4.5-16-10.58-21-9.32a8.4,8.4,0,0,0-2.12,1.14c-4,2.39-3.06,6.32-2.89,9.85C66.24,244.47,69.88,248.33,78.33,248.33Zm15.35,75a5.57,5.57,0,0,0-2.43.24c-6.7,3.51-13.51,6.9-18.88,12.44-1.93,2-1.9,4-.35,6.24,2.79,4.12,7.17,5.28,11.51,2.7,2-1.17,3.6-2.22,5.7-.07,3.21,3.3,5.1,1.4,6.6-1.92,1.69-3.76,2.45-7.83,4.25-11.6S98.63,323.38,93.68,323.29Zm175-39.86c-1.94,0-3.81-.43-5.09,2-1.73,3.24-1.64,5.74,1.07,8.43,3,3,6.71,4.44,9.72,1.78s4-1.89,6.15.54a6.53,6.53,0,0,0,8.6,1.43,6.71,6.71,0,0,0,3-8.24,26.77,26.77,0,0,0-4.31-7.72c-2.9-3.65-6.86-4.1-9.48-1.57a13.73,13.73,0,0,1-8.68,3.39C269.3,283.42,269,283.44,268.63,283.43Zm-196.1-6.84c.34,0,.67,0,1,0,4-.32,8.22-.65,9.88-5.06,1.56-4.16-2-5.23-4.79-6.79-1.54-.87-1.35-2.12.3-3,2-1,4-2.15,2.46-4.93s-4-4.56-7.2-4.19c-6.86.77-10.52,4.41-11.77,11.21S65.81,276.6,72.53,276.59Zm130-178.92a37.15,37.15,0,0,0-4.67-15c-.52-1-1.4-2.07-2.72-1.87s-1,1.54-1.16,2.45c-1.51,7.23-3.17,14.25-7.54,20.61-3.07,4.47-1.31,10.66,2.42,13.43,2.2,1.63,5.3,2.33,6.52-.15A86.76,86.76,0,0,0,202.48,97.67ZM514,418.43c0,5.42,4.45,8,9.66,6.11,3.92-1.42,6.55-4.31,9.22-7.24,1.38-1.52,2.74-3.2,4.87-.93s4.31,2.9,6.39.45a7.27,7.27,0,0,0,.76-8.84c-1.79-2.56-4.79-1.43-6.91.61-1.35,1.3-2.56,1.46-3.8,0-2.44-2.87-5.18-1.78-7.59-.26a39.55,39.55,0,0,1-8.74,4.5C514.73,413.86,513.59,415.71,514,418.43Zm-200.16-32c.19,1.34-.08,3.27.72,4.53,3.24,5.1,8.58-.25,12.64,2.25,1.42.87,3.62-.07,4.62-2,3.35-6.36.64-14.66-4-18.14-2.94-2.19-5.85-2.19-8.37.67A20.91,20.91,0,0,0,313.85,386.43Zm35.43,15c4.64,1.22,7.58-1.23,10.3-4.43,3.18-3.74,3.13-6.33-1.16-8-2.77-1.09-4.68-2.84-6.9-4.55-2.64-2-6.67-2.23-8.68,0-2.34,2.54-5,6-3.17,10.28S343.45,403,349.28,401.43ZM296.09,296.91c-2.8.5-3.85,2.3-3.77,5,.1,3.39-1.67,4.84-4.94,4.77-2-.05-4.07-.08-4.74,2.54-.62,2.42.39,4.12,2.08,5.73,3.77,3.61,7.54,3.84,11.88.83,2.33-1.62,5.47-4.28,8-1.6,2.23,2.33,3.24,2.16,4.81,0,1.8-2.49.33-4.15-1.78-5.19-3.81-1.86-6-4.88-7.49-8.73A5,5,0,0,0,296.09,296.91ZM784,444.19c0-5.65-8-14.88-13.15-15.71-2.34-.38-3.79.81-5,2.56s-2.36,3.11-1.13,5.41c1.72,3.19,2.94,6.65,4.64,9.85a9.21,9.21,0,0,0,9.5,5.06C782.63,450.86,785,448,784,444.19Zm-43.87,25.89c-3.61-.9-4.42,1.11-4.59,4.63-.18,3.77,1.33,7.11,1.74,10.68.51,4.53,4.13,5.31,7.31,6.06,3.81.9,6.81-1.33,8.6-4.52,2-3.59-1.61-5.33-3.38-7.39-1.48-1.72-3.87-2.75-4-5.38C745.65,470.6,743.6,469.67,740.14,470.08Zm2.3-46c-.11,6.28,1.93,9.9,4.85,10.77,4.15,1.23,8.4-1.84,12.18-8.55,1.93-3.42.95-6.35-1.09-9.18-.33-.47-1.26-.45-1.74-.86-3.54-3-5.11,1.77-7.77,1.9C743.58,418.4,742.56,421.88,742.44,424.06ZM98.8,271.68c-6.48-.05-8.28,1.11-8.09,5.21.26,5.52,5.85,11.15,11.34,11.43,5.18.25,6.9-1.37,7-6.63C109.15,274.54,106.27,271.73,98.8,271.68ZM762.69,466.5c-1.09-.17-2.78,1.05-3.73,3.2-1.45,3.26-2.58,6.67-4.12,9.88-.81,1.7-1.22,3,.44,4.33s2.73,2.89,5.14,2.2a20.73,20.73,0,0,0,10.17-6.66c2.24-2.61,1.65-5,.19-7.71S767.49,466.85,762.69,466.5Zm-713.56-250c-.41,4.75,1.09,8.7,6,9.75,4.23.9,7.83-1.56,9.81-5.1,2.42-4.34-.14-7.48-3.84-9.85a16.65,16.65,0,0,1-1.41-1.38c-1.86-1.6-3.87-3.58-6.42-2.73-2.72.91-3.08,4-4.1,6.37C48.81,214.35,49.12,215.47,49.13,216.46ZM463,440c5.93.11,12.92-5.6,12.54-10.64-.26-3.32-2.34-5.82-5.88-6.07-5.4-.37-12.07,5.63-12.34,10.58C457.07,438,458.69,440.18,463,440ZM57.47,196.78c-.55-5.49-4.63-10.13-7-15.49-.42-.94-1.58-1-2.58-1.27-4.16-1-5.76,1.77-6.69,4.89-1.15,3.81-1.22,7.59,2.81,10,2.51,1.52,5.38,2.46,7.14,5.13a3.91,3.91,0,0,0,4.91,1.34C57.92,200.72,57.13,198.86,57.47,196.78ZM271.4,318.34c4.6.32,6.85-2.25,7.48-6s-6-10.43-9.81-10.54c-4.07-.11-8.45,3.71-8.39,7.33C260.75,314.07,265.83,318.3,271.4,318.34Zm496,142.12c-.26,2.2,1.45,3.91,3,5.54,2.21,2.25,4.62,4.3,6.93,6.45,1.54,1.45,2.65,3.24,5.43,1.45,2.56-1.64,3.47-3.62,2.72-6.22a17.11,17.11,0,0,0-12.62-12.16C770,454.74,767.25,456.13,767.35,460.46Zm-38.14-37.13c5.95,0,9.81-3,9.67-7.49-.13-4.16-5.53-9.24-9.64-9.08-3.24.13-6.77,5.21-6.83,9.79C722.36,421.45,724.23,423.32,729.21,423.33ZM301.48,80.13a5.34,5.34,0,0,0,5.15-3.28,63.45,63.45,0,0,0,3.82-12.2,5.35,5.35,0,0,0-3.89-6.14c-2.82-.92-3.67.79-4.71,3.35-1.45,3.54-2.24,7.53-5.56,10.25-1.65,1.35-1.07,3.76-.42,5.64C296.58,79.79,298.5,80,301.48,80.13ZM90.8,304.34c-.11,6.9,2.33,10.66,6.93,10.65,3.44,0,7.52-4.11,7.74-7.8.23-3.92-5.1-10.39-8.54-10.36C93.33,296.87,90.87,299.88,90.8,304.34ZM414,425.43c.1,4.42,3.16,6.57,6.86,5.65,4.64-1.16,7.73-4.39,10.54-7.86,1.76-2.17,1.06-4.34-1.1-6-2.65-2.05-5.17-2.86-8.65-1.19A13.19,13.19,0,0,0,414,425.43Zm-371.72-107c0,2.87,0,4.77.87,6.72,1,2.28,2.13,3.67,4.79,3.05,4.64-1.08,8.41-6.63,7.69-11.35-.76-5-4.82-8.27-9-6.65C42.68,311.69,42.67,315.74,42.31,318.42Zm470,111.33c.1-3.38-3.11-6.39-6.8-6.38-4.73,0-9.6,3.94-9.83,7.94-.2,3.36,3,6.87,6.29,6.94C506,438.33,512.23,433.2,512.32,429.75ZM548.44,96.64c-1.63.14-3.41-.36-4.8.82-2.54,2.15-2.59,13.93,0,15.94,2.29,1.76,4.78,2.91,6.08-1.19.81-2.55,2.7-4.47,4-6.73C556.74,100.32,554.47,96.68,548.44,96.64ZM443.36,433.25c1,0,2,0,3,0,3.59-.16,5.42-2.66,7.06-5.38,1-1.58.27-2.88-.87-4-2.4-2.33-5-3-8-1.08a4.33,4.33,0,0,1-2.39.51c-3.95-.17-7.81,1.61-7.71,5.2.13,4.34,4.69,4.75,8.48,4.75ZM69,327.39c-.17-1.38.56-3.52-1.37-3.76-3.36-.41-7.17-1.48-10.09.6-4.43,3.15-5.31,8.3.26,11.4,3.15,1.75,5.14.07,7.25-.93A6.8,6.8,0,0,0,69,327.39ZM733.19,448.27c4.28-.11,9.32-4.65,8.88-8.06-.51-3.94-3-5.74-7.29-5.29-4.08.44-7.65,3.52-7.27,7.55C727.84,446,730.42,447.75,733.19,448.27ZM557.33,394.75c-.16,1.89.29,3.94,2.44,4.69,3.83,1.32,6.45-1.49,9.26-3.31,2.19-1.42,2-3.75,1.28-5.8-1.09-3-3.37-5-6.63-5C561.06,385.38,557.29,391.17,557.33,394.75Zm3.16-247.35c-.18,2.11,1.74,4.4,3.87,5,3.31.91,6.8,3.27,10.23,1.67,2.15-1,3.54-3.33,1.42-6.18-2.59-3.47-9.73-5.89-13.82-4.44C560.52,144,560.54,145.24,560.49,147.4ZM45.39,254.08c-.72,3.1.84,4.2,3.72,4.17,4.88,0,5.91-4.44,7.75-7.42,1.45-2.34-1-4.7-2.78-6.34-1.51-1.37-3.24-3-5.7-1.79-2.24,1.14-2.73,3.13-2.73,5.43C45.65,250.11,45.48,252.09,45.39,254.08Zm11-122.36c-4.92-.13-8,2.8-8.29,6.76-.24,3,3.33,7.44,6.06,7.53s6.84-4.45,6.44-7.73S59.2,132,56.35,131.72Zm66-15c-3.51-.06-6.63,2.77-6.6,6a7.59,7.59,0,0,0,6.8,7.26c2.85.12,6.3-3.36,6.4-6.45C129,120.53,125.32,116.72,122.34,116.67Zm440,.62c0-3.48.38-7.34-3.93-7-4,.36-4.61,4.86-5.81,7.82-1,2.37-1.11,5.7,1.68,7.75,1.53,1.13,3.07.84,4.58-.27A8.69,8.69,0,0,0,562.36,117.29Zm-505-48.84c-4.18,0-10.15,3.8-9.69,6.3.62,3.31,3.08,5.28,6.69,5.27s7.77-3.33,7.73-6.35A4.92,4.92,0,0,0,57.34,68.45ZM599.42,340.06c4.23-.14,8,.26,7.91-5.06a6.73,6.73,0,0,0-7.38-6.22c-3,.34-6.09,1.49-6,5.78S596.05,340.5,599.42,340.06ZM81.55,289.54c-.35-.23-.69-.33-.85-.57-1.81-2.73-4.23-3.22-6.67-1.2-1.81,1.5-2.37,3.83-.47,5.7,2.28,2.23,4.69,2.1,6.77-.53,1.67-2.12,2.94-1.28,4.28.5s3,1.87,4.8.6,1.63-2.8.55-4.35-1-4-3.61-4.32C83.26,285,82.81,287.77,81.55,289.54Zm684.52,78.78a3.92,3.92,0,0,0,4.44-3.19c1.19-4.78-2.4-7.27-5.36-9.8-1.25-1.06-3.17-2.13-5-.4a2.38,2.38,0,0,0-.35.36c-2.31,3.61.34,6.72,1.13,10C761.56,367.68,763.67,368.46,766.07,368.32ZM47.32,165c4,.08,6.56-2.1,6.52-5.88-.05-3.41-2.53-5.51-6.14-5.73-4-.24-5.26,2.39-5.29,5.62S43.32,164.94,47.32,165Zm305,185.74a6.37,6.37,0,0,0,5.15,5.75c2.68.66,6.87-3.49,6.5-6.09-.51-3.63-2.84-5.31-6.5-5.38S352.32,346.71,352.28,350.71Zm406.7,106c-.14-4.65-3.4-9.22-6.23-8.84a4,4,0,0,0-3.59,5.41c1,3.05-.66,8.12,5,8.42C758,461.87,758.84,459.33,759,456.67ZM99.29,261.05c3.14-1,5.95-3.1,5.81-6.1-.14-2.72-1.23-6.43-5.44-6.53a5,5,0,0,0-5.44,5.24A8,8,0,0,0,99.29,261.05ZM595.72,391.14c-.34,3.65,1,5.57,4.71,5.53,3.35,0,5.33-1.42,5.24-5-.08-3.45-2-6-5.16-6.15C597.17,385.29,595,387.5,595.72,391.14ZM299.11,380.6c-.91,3,.79,5.32,3.79,5.18,2.8-.14,6.42-.52,6.18-5.28-.19-3.82-1.85-5.34-5.49-5.45S298.48,376.75,299.11,380.6Zm248.26,45.63c0-2.75,0-6.21-3.58-5.81-2.72.3-6.46,1.24-6.46,5.56,0,3.91,3,5.09,5.89,5.49C547,432,547.4,429.1,547.37,426.23Zm180.3-27.94c3.65.08,5.86-.73,6.25-3.82.32-2.56-3.7-6.17-6.76-5.94a4.57,4.57,0,0,0-4.51,4.45C722.66,396.43,725.24,398,727.67,398.29Zm-142-4c0-3.64-1.14-5.68-4.21-5.7s-4.15,2.1-4.17,4.94c0,2.49.23,4.75,3.47,4.81S585.57,396.64,585.69,394.26Zm35.1-30.91c-4.11.22-3.48,3-3.4,5.15.07,1.86-1.19,4.64,2.43,4.79,4.48.19,1.85-4.14,3.54-5.91C623.88,366.84,622.87,363.61,620.79,363.35Zm-488.5-224c.3-2.5-1.24-2.72-3.1-2.7-2.71,0-5,.45-5.19,3.91-.08,2,.54,4.48,2.46,4.06C129,144.05,131.85,142.69,132.29,139.33Zm605,319.77c-.21-1.7-.94-3.29-2.69-3-2,.33-4,1.48-3.64,4,.23,1.68,1.44,3.29,3.35,3S737.13,461,737.27,459.1Z" transform="translate(-17.45 -11.57)"/><path d="M668.1,813.33H618.94c-2.61,0-3.48-1.05-1.82-3.32,10-13.65,9.77-29.47,9.51-45.25-.09-5.87-3-10.51-7.59-14-7.29-5.55-15.26-10-23.16-14.64-2.63-1.54-3.57-.17-3.41,2,.54,7.35-1.46,14.48-2.09,21.7-1,11.89-1.67,24.23-9.12,34.89-10.21-5.93-20.44-12-31.54-17.44,7.45-7.17,11.81-16.13,14.7-25.73a49.66,49.66,0,0,0-.56-30.4c-4.17-12.8-11.66-23.32-21.13-32.54-2.79-2.71-1.4-3.41.9-5,6.17-4.35,13.64-6.86,18.49-13.14,1.77-2.29,3,0,3.81,1.15,5.35,8.27,12.25,15.21,19.33,21.87,6.49,6.09,13.61,11.5,20.5,17.15,1.13.92,2.51,1.68,4.35.15a124.19,124.19,0,0,1-13.87-15.17,238,238,0,0,1-16.14-23.76c-2.38-4.15-4.82-8.29-6.92-12.64s-.3-6.42,2.79-8.06c7.29-3.85,14.47-8,22.31-10.69,5.39-1.85,6.09-1.36,6,4.28-.26,14.94,5.24,28.11,12.66,40.58,6,10,13.6,18.75,22,26.85,3.05,3,6.85,2.82,10-.1,7.5-7.07,13-15.72,19.25-23.8,9.49-12.27,13.46-26.76,17.5-41.28.09-.31,0-.68.13-1,.75-2.39-1.84-5.72,1.2-7.19,2.44-1.19,5.06,1,7.66,1.53,7.72,1.44,14.62,5.1,21.58,8.57,2.69,1.34,3.47,3.14,2.13,6.07-7,15.28-15.25,29.77-26.79,42.18a333.3,333.3,0,0,1-29.17,28.45c-2,1.65-4.63,2.36-5.55,5.26-1.66,5.28-.61,8.79,4.35,11.63s10.31,5.32,15.41,8.09c3.09,1.67,4.4,1.41,4.47-2.58.32-18.73,8.21-34.58,19.53-48.9a83.24,83.24,0,0,1,27.37-23c3.5-1.79,5.84-1.17,8.12,1.88,3.06,4.08,6.2,8.12,9.64,11.88,2.47,2.7,2.26,3.69-1.21,5.2-14.35,6.2-26.64,15-32.9,30-8.27,19.82-5.7,38.64,6.5,56.13,1.69,2.42,1.46,2.49-1,4-5.65,3.59-11.9,6.79-14.66,13.66-1.45,3.61-3.42,1.34-4.84,0C687.22,789,676.25,780,663.32,773.69c-5.42-2.65-5.5-2.45-5.82,3.44C656.48,795.69,661.35,801.35,668.1,813.33Z" transform="translate(-17.45 -11.57)"/><path d="M244.33,756.45c-1.77,10.39,1,20.35,3.07,30.37.34,1.72,1.47,3.29,2.34,4.88s1.45,3.41-.26,4.94a4.54,4.54,0,0,1-5.55.65,47.43,47.43,0,0,1-6.94-3.9c-2.69-2.09-4.79-1.58-7,.48a33.78,33.78,0,0,1-2.74,2.16c-2.21,1.67-4.81,3.27-7.24,1.28-2-1.65-.81-4.17-.07-6.46,4-12.51,6.71-24.9,4.4-38.46-1.49-8.75-2.07-17.61-5.1-26.07a6.56,6.56,0,0,1,.43-4.86c2.25-5.28,4.2-10.52,4.85-16.41,1.43-13,1.84-25.76-2.54-38.32-1.08-3.1-2-6.26-2.81-9.44-.33-1.26-.42-2.72.76-3.72a3.58,3.58,0,0,1,4.2-.35,26.87,26.87,0,0,1,2.53,1.6c5,3.24,9.9,5.18,14.84-.42,1.48-1.67,3.89-2.83,6.36-1.43,2.71,1.55,1.34,3.95,1.17,6.17-.73,9.58,2.13,18.31,6.75,26.52,5.51,9.8,13.24,18.12,18.8,27.91.83,1.48,2.38,3.06,4.4,2.82s3-2.34,3.15-4c.66-9.06,5.15-17.62,3.55-26.94-1.39-8.09-2.52-16.26-5.18-24-.94-2.72-1.94-5.23.71-7.18s5.34-1.42,7.89.31c6.77,4.59,6.82,4.68,13-.08,2.38-1.83,5-2.63,7.32-1s1,4.14.16,6.35A96.59,96.59,0,0,0,304,699.84c.51,7.2,1.91,14.46,5.44,21,.94,1.76,1.71,3.5.8,5.67-6.73,16.22-7.86,32.9-4.56,50.11a61,61,0,0,0,4.29,14.74c.92,2,1.75,4.58-.15,6s-4.43.76-6.46-.78c-4.65-3.5-9.27-5-14.23-.35-1.37,1.29-3.49,2.72-5.4,1.11-2.42-2-1.52-5-.91-7.47,1.1-4.49,3.13-8.84,2.86-13.52-.63-10.83-4.86-20.46-10.93-29.28-6.3-9.17-12.78-18.21-19.2-27.3-1-1.37-2.17-2.94-3.92-2.71s-2.22,2-2.68,3.75C245.8,732.53,242.58,744.15,244.33,756.45Z" transform="translate(-17.45 -11.57)"/><path d="M470.67,780.26c.27,3.91-.45,8.33,1.31,12.76,1.45,3.67-.57,5.44-4.78,5.06a9,9,0,0,1-5.24-2.6c-3.2-2.85-6.59-2.8-10-.36-.68.48-1.35,1-2,1.45-3.19,2.15-7.07,2.69-9.71.28-2.8-2.55.4-5.69,1.76-7.91,3.91-6.36,7.65-12.75,10.29-19.76,4.42-11.7,7.93-23.55,6.81-36.3a9.53,9.53,0,0,1,2.62-7.54c8.32-9.89,12.78-21.67,15.89-34.2,2.13-8.6,3.6-17.1,3.13-25.94-.13-2.47.21-4.94-1.19-7.28a3.33,3.33,0,0,1,.29-4.19c1.24-1.21,2.92-.78,4.26-.25a66.79,66.79,0,0,1,7.17,3.49c3.19,1.73,6,2.38,8.84-.91a10,10,0,0,1,5.62-3c4.33-.61,7.58.39,6.4,4.58-2.47,8.7-2,17.32.2,26,2.11,8.32,3.71,16.78,6.94,24.79,2.27,5.64,6,10.29,9.77,14.92a12.12,12.12,0,0,1,3.08,8.16,96.5,96.5,0,0,0,16.29,55.81,16.49,16.49,0,0,1,.9,1.78c1.21,2.42,3.86,4.83.81,7.53-2.65,2.34-5.55,1.57-8.33-.1-4.69-2.82-9.12-5.65-13.74.68-1.46,2-5,1.18-7.49-.18s-1.27-3.34-.87-5.27c2.87-13.83,1.55-27-6.81-38.81-8.12-11.47-31.27-11.16-37.33,3A57.76,57.76,0,0,0,470.67,780.26Zm36.86-53.45c.07-4.91-6-25.32-8.91-29.78-1.62-2.49-3.48-2.71-4.87,0a106.74,106.74,0,0,0-4.22,10c-2.43,6.29-5.24,12.51-5.43,19.39-.17,6.28,3.55,8.48,8.92,5.12,2.38-1.5,4-1.3,6.26.06C505.36,735.18,507.44,733.87,507.53,726.81Z" transform="translate(-17.45 -11.57)"/><path d="M151,752c-1.26,5.4.62,11.06,1.56,16.75,1.1,6.65,12.13,11.29,19.8,9a43.63,43.63,0,0,0,14.36-7.91c3.63-2.85,3.87-1.76,5.88,2.28,3,5.95-1.77,11.33,0,17,.52,1.68-1.31,1.93-2.74,1.9-9-.17-17.17,3-25.45,6-7.91,2.88-15.34.42-22.21-3.63-3.18-1.88-5.6-3-8.55.56-1.46,1.77-4.14,2.73-6.44,3.57-3.68,1.34-7.55-2.12-6.17-5.75a110.76,110.76,0,0,0,5.88-23.92c1.27-9,1.2-18.14-1.85-27a118.62,118.62,0,0,1-3.85-15.42c-1-4.9,2.65-8.75,3.63-13.25,2.35-10.69,3.79-21.27,1.32-32.24-1.7-7.54-3.1-15.12-5.24-22.56-.88-3.07,3.29-5.6,7.48-4.63A5.44,5.44,0,0,1,131,654c4.93,5.21,9.79,4.23,15.42.8,5.86-3.57,12.52-2.83,18.9-1.09,7.34,2,14.46,5,22.29,4.62,1.42-.06,2.89.24,2.89,2,0,5.31,2.73,10.28,1.8,15.7-.27,1.59.3,3.43-1.55,4.43-2.12,1.16-3.44-.44-4.83-1.54-8.29-6.64-17.56-6.83-27.32-4.33A7.42,7.42,0,0,0,153,680.3c-2.43,9.71-3.65,19.51-.63,29.35,1.75,5.69,5.76,8.64,11.79,8.67,5.12,0,10.29.5,15.1-1.91,1.88-.94,3.87-.64,2.92,1.69-1.55,3.79,0,7.23.07,10.81.06,2.56-1,3.27-2.83,1.63-4.38-4-9.59-4-15-3.91-5,.12-8.41,2.72-10.67,6.93C150.72,739.17,150.44,745.29,151,752Z" transform="translate(-17.45 -11.57)"/><path d="M348.81,682.05c-7.07-.28-13.41,2.1-19.54,5.18-3.23,1.63-4.93.69-5.25-3a10.22,10.22,0,0,1,2.47-7.39c2.73-3.29,2.43-6.26.41-9.55a47.29,47.29,0,0,1-2.44-4.34,4.49,4.49,0,0,1,.54-5.14c1.29-1.45,2.9-1.34,4.43-.09a2.35,2.35,0,0,0,1.38.48c13.74-.13,27.69,1.75,40.88-3.84a9.42,9.42,0,0,1,8.54.23c11.65,5.72,23.84,4.27,36,2.45,2.37-.35,5.28-1.93,7,.48,1.44,2,1.08,4.84-.32,7.12-3.08,5-3.13,10,0,15a8,8,0,0,1,1,4.78c-.05,1.8.39,3.87-1.57,4.93s-3-1-4.24-1.84c-8.76-5.76-18.46-5.91-28.31-4.73-3,.36-4,2.66-4.26,5.8a62.52,62.52,0,0,0,3.71,26.23c2.5,7,.16,13.14-1,19.42-2.45,12.93-3.92,25.7-1.26,38.79,1.08,5.33,2.08,10.66,3.26,16,.57,2.58,1.66,5.66-1.42,7.76a6.21,6.21,0,0,1-8.61-.86c-3.73-3.91-7.3-1.52-10.86-.22-2.62,1-5,2.36-8,2.3-4-.08-6.24-2.87-4.44-6.36,3.18-6.16,2.09-13,3.42-19.41.88-4.25,2.21-8.58,2.09-13.2-.16-6-1.82-11.72-2.79-17.57-1-6.11-2.49-12.27-3.15-18.24-.44-4,2.36-9.24,3.11-14.1.93-6,2.19-12,2.75-18.06.48-5.16-1.45-7.91-6.65-8.32C353.42,682.52,351.11,682.27,348.81,682.05Z" transform="translate(-17.45 -11.57)"/><path d="M57.24,756.31A110.59,110.59,0,0,0,62,791.75c1.22,4.1-.69,6.38-5,6.28a10.4,10.4,0,0,1-7.48-3.55c-2.95-3.18-5.62-2.92-8.61-.31-1,.87-2.07,1.66-3.14,2.46a5.83,5.83,0,0,1-7.42.14c-2.43-1.78-1.75-4.42-1.13-6.86,4.12-16.29,5.07-32.63,1.83-49.26-1-5.17-1.86-10.29-3.3-15.41-1.09-3.88,2-7.82,3.1-11.78,3.13-11.66,2.26-23.47,1.62-35.21a97.38,97.38,0,0,0-3.21-19.56c-1.24-4.65,2.21-7.22,7.19-5.78,2,.58,3.3,2.18,4.85,3.41,2.36,1.86,4.91,3.08,7.71.95,10.5-8,21.48-5,32.22-1A39.45,39.45,0,0,0,95.66,659c1.39,0,3.37-.16,2.88,1.55-1.47,5.21,1.52,10.14.52,15.26-.33,1.73.36,3.89-1.76,4.81-1.87.8-3.18-.78-4.37-1.78-7.62-6.37-16.67-6.11-25.62-5.16-6.12.65-10.08,6.16-10.06,12.28,0,7,0,14,0,21,0,10.17,10.82,17.55,20.27,13.93,3.22-1.23,6.63-2,9.66-3.78.84-.49,1.91-.91,2.8-.18s.65,1.84.07,2.7a9.54,9.54,0,0,0-.8,8.21c1.3,4.16-.89,4.3-3.6,3.84-5.06-.85-10-1.88-15.25-1.67-8.22.34-13.17,5.24-13.17,13.55C57.25,747.32,57.24,751.15,57.24,756.31Z" transform="translate(-17.45 -11.57)"/><path d="M821.46,791.14c-10-.53-18.54,3.61-27.48,6.32-8.28,2.5-15.55-1.71-23-4.11-2.47-.79-4-2.17-6.07,1a9.35,9.35,0,0,1-7.3,3.79c-6.41.29-7.57-1.38-6.09-7.58A90.31,90.31,0,0,0,754,774.46c.24-4.49,1.15-8.84,1.55-13.24.66-7.24-1.41-14.35-2.54-21.49-1.35-8.62-1.88-17.08-.27-25.94,1.79-9.85,4.51-19.74,1.77-30.24-1.48-5.72-.67-12.14-1.93-18.17-.44-2.07-.32-4.19-1.17-6.29-1.66-4.11.18-6.5,4.62-6.3,2.52.11,5.4.43,6.84,2.53,3.69,5.37,7.22,2.92,10.94.34,1.74-1.21,3.06-3.13,5.55-3,4,.17,6,3.44,4.38,7.82-6.47,17.35-5.07,35.12-2.82,52.9.42,3.36,3.07,6,3.27,9.78.3,5.64-3.36,9.93-4.09,15.23-1.42,10.14-1,20.28-.4,30.37.34,6.14,11.56,11,18.66,9.27,5.88-1.42,11.3-3.12,15.31-8.23,2-2.53,4.34-2.6,5.56,1.58,1.13,3.9,2.16,7.32.2,11.4A6.62,6.62,0,0,0,821.46,791.14Z" transform="translate(-17.45 -11.57)"/><path d="M255.7,88.32c5.24,1.28,8.63,2.94,9.84,7.19,1.14,4-1.75,6.3-4.51,8a20.88,20.88,0,0,0-7,6.89,9.1,9.1,0,0,1-5.43,4.18c-2.29.6-4.15,1.39-4.52,3.88-.41,2.75,1.11,4.81,3.2,6.26,1.1.76,2.25,1.29,2.75,2.62-7.65,2.47-12.85-1.17-12.7-9,.09-5.06-1-10.28,3-14.74,1.51-1.73,2.53-4.17-.9-6.1-5.48-3.08-8.75-3.53-11-.5-2.9,3.86-3.72,8.1-1.88,12.65.39,1,.77,1.75.25,2.73-1.49-.06-2.05-1.16-2.43-2.21a8.05,8.05,0,0,0-6.46-5.47c-2.75-.6-5.27-2-2.55-5.54,4.2-5.43,4.47-10.63-.52-15.93-3-3.24-3.92-7.53-4.06-11.9,0-1.07-.34-2.58,1.35-2.73S214.16,69.83,214,71c-1.34,7.84,4.9,12.68,7.51,18.93.79,1.87,2.53,4.06,5.1,2.77,3-1.5,5-4,3.94-7.68-.7-2.5-2.17-4.84-1.1-7.61,1.84.19,1.31,1.77,1.58,2.7,2.38,8.08,7.83,12.83,15.88,14.59a7.83,7.83,0,0,1,5.42,3.9c2.16,3.53,5.19,4.1,8.44,1.62s.95-4.93-.71-7.13C259,91.74,257.71,90.53,255.7,88.32Z" transform="translate(-17.45 -11.57)"/><path d="M615.78,113c-4.89,1.09-7.5-1-9.92-3.74-1.42-1.62-2.5-3.31-1.4-5.33a6.77,6.77,0,0,1,4.71-3.4c2.44-.43,2.88,1.66,3.43,3.39s2.3,2.22,3.67,3.1c1.77,1.13,5.08,1,4.38,4.38C619.89,115.17,616.62,112.15,615.78,113Z" transform="translate(-17.45 -11.57)"/><path d="M608.91,143c-.08,2.33-2.06,2.09-3.25,2.73-1.6.86-3.66,1.74-4.81-.36a28.26,28.26,0,0,0-3.84-5.13c-.8-.9-1.67-1.9-.76-3a2.34,2.34,0,0,1,3.21-.23c2.58,2.32,5,4.76,8.78,5C608.52,142.05,608.75,142.76,608.91,143Z" transform="translate(-17.45 -11.57)"/><path d="M229.19,46.23c-1.89-1-4.25-1.78-4.91-4.27-.41-1.53.95-2,2.21-1.88,2.27.27,4.73.87,5.56,3.13C232.6,44.68,231.06,45.83,229.19,46.23Z" transform="translate(-17.45 -11.57)"/><path d="M622.09,241.66c-1.1-.14-3.27.17-2.81-1.52.67-2.49,3.33-3.09,5.71-3.39,1.23-.15,2.44.27,2.1,1.88C626.54,241.24,624.5,241.71,622.09,241.66Z" transform="translate(-17.45 -11.57)"/><path d="M215.29,233a6.76,6.76,0,0,1,4.15,3.85c.61,1.32-.42,2-1.41,1.79a4.61,4.61,0,0,1-3.94-3.79A1.43,1.43,0,0,1,215.29,233Z" transform="translate(-17.45 -11.57)"/><path d="M686.82,83.21c-2.07-1-4.54-1.28-6.57-2.92-7.31-5.89-14.72-11.66-22-17.53a11.1,11.1,0,0,1-2.2-2.65c-.61-.93-1.57-2.08-.31-3.06s2.55-.35,3.38.86c3.1,4.51,6.59,9.42,11.6,11,7.06,2.14,9.91,9.81,17.05,11.26A1.55,1.55,0,0,1,688.88,82C688.75,83.16,687.83,83.1,686.82,83.21Z" transform="translate(-17.45 -11.57)"/><path d="M625.79,38.6c-.78,1.3,1,4.41-1.54,4.13s-5.93-1.83-6.16-4.74c-.17-2.22,2-4.54,4.94-4.6C627.08,33.31,625.32,36.5,625.79,38.6Z" transform="translate(-17.45 -11.57)"/></g></g></svg>