<svg xmlns="http://www.w3.org/2000/svg" viewBox="0 0 818.65 846.89"><title>firework</title><g id="Layer_2" data-name="Layer 2"><g id="Layer_1-2" data-name="Layer 1"><path d="M365.82,850.55c-8.24-9.61-7.13-21.67-9.59-32.68C352.91,803,350.52,788,347.77,773c-3.92-21.29-8.12-42.52-12-63.8-2.43-13.3-5.14-26.61-7.91-39.88-3-14.58-6.21-29.12-9.86-43.55-4.39-17.34-9.7-34.4-18.05-50.33a28.84,28.84,0,0,0-9-10.84c-5.61-3.91-10.52-2.43-15.76.48-12.43,6.9-19.14,18.6-25.61,30.42-13.29,24.27-22.87,50-30.2,76.64-3.2,11.65-7.07,23.1-9.47,35a33.5,33.5,0,0,1-2.37,6.54c-2.69,6.15-3.37,6.4-9.42,3.88-3.95-1.64-8.2-2.32-11.87-4.91-5.87-4.14-4.64-10.13-4-15.41,1.11-8.9,1.72-17.83,2.08-26.74.55-14.14,3.52-27.88,5.52-41.79,2.08-14.47,5.95-28.46,10.28-42.4,2.45-7.9,6.18-15.25,8.75-23.07,1.68-5.08-.87-8.25-6-6.82a226.41,226.41,0,0,0-24.51,7.89,133.18,133.18,0,0,0-36,21.8c-15.68,13.18-29.94,27.65-40.84,45.22C94.86,642,87.81,652.44,82.31,663.8a266,266,0,0,0-12.58,29.56c-2.77,8.1-6.37,16-8.48,24.22-2.34,9.15-5.8,17.95-7.68,27.27-2,10.19-5.22,20.16-6.94,30.45-.13.77-.17,2.21-1.52,2.16-1.07,0-1.59-1-2.16-1.86-3.26-4.92-2.33-10.68-2.54-15.94-.74-18.13-1.1-36.29-.76-54.43.22-11.37,2-22.73,2.87-34.07.95-11.87,3.46-23.26,6.41-34.63a117.3,117.3,0,0,1,6.69-19.14c4.19-9.17,8.86-18.13,13.75-26.95C76.28,578,84.92,566.7,93.93,555.68c10.31-12.59,21.79-24,35.13-33.24,11.54-8,23.39-15.66,36.44-21.14a20,20,0,0,0,1.86-.74c2.78-1.57,5.79-3.67,5.94-6.73.14-2.65-3.54-2.88-5.72-4a84.11,84.11,0,0,0-40.27-9.17c-16.55.48-32.23,4.54-46.26,14.27a143.62,143.62,0,0,0-49.41,58.21c-1.92,4.1-5,7.81-7.2,13.28-.92-4.83-1.07-8.26-.33-11.71,3.73-17.36,9.91-33.86,17.45-49.89,6.24-13.27,14.79-25.1,24-36.28,12.57-15.2,27.73-26.81,46.85-33.62,15.93-5.68,31.76-5.2,47.53-2.4a80,80,0,0,1,24.39,8.09,10.62,10.62,0,0,0,3.75,1.27c3.73.44,4.92-1.13,3.55-4.64a141.67,141.67,0,0,0-27-43.11c-7.74-8.63-16.24-16-26.65-21-7.09-3.42-14.67-3.88-22.38-3a9.55,9.55,0,0,1-2.46.29c-2.11-.33-5.17,1.3-6-1.91s-.08-6.25,3.42-8a73,73,0,0,1,20.82-6.52c6.46-1,12.52-3.2,18.61-5.26,4.23-1.43,4.5-5,1.08-9.48-1.1-1.45-2.53-2.66-3.65-4.1-.93-1.17-1.73-2.47-.74-4.09a3.82,3.82,0,0,1,4.17-2.11c4.67,1,9.42,1.2,14,3.19,16.1,7,30.88,16,43.78,27.87,10.76,9.94,19.52,21.61,28.12,33.39,2,2.81,4.2,5.54,6.4,8.23.77,1,1.39,2.89,2.92,2a5.87,5.87,0,0,0,2.42-3.57c1-4.48-.29-8.93-.91-13.34a242.91,242.91,0,0,0-9.95-43.46c-3-9.05-6.28-18.2-14.16-24.51C218.83,315.07,213.44,315,208,317c-4.17,1.5-8.16,3.48-12.28,5.1-1,.38-2.3,1.41-3.23.29-1.46-1.76.9-2.38,1.34-3.57,3.63-9.81,11.51-15.59,19.88-20.67,9.86-6,20.54-7.73,31.83-4.52,13.94,4,21.51,14.63,28.24,26.38,6.39,11.14,10.35,23.25,14.15,35.35,2.92,9.3,4.39,19,6.52,28.58a21.34,21.34,0,0,0,1.08,3.79c1.07,2.48,2,3.47,4.41.63,6.27-7.4,9.81-16.49,15.57-24.19,2.27-3,4.29-6.27,6.44-9.44-12-5.18-16.94-15.9-21.76-26.58-5-11.17-7.34-23.21-10.59-34.95-1.58-5.67-1.2-11.48-2.25-17.15a100.08,100.08,0,0,1,.71-40.89,16.77,16.77,0,0,1,7.32-10.89c18-11,26.38-28.22,32.64-47.41,4-12.19,8.23-24.36,13.09-36.32,2.62-6.45,6-12.82,7.19-20,.88-5.48,4.78-9.74,7.22-14.58,3-5.91,6.41-11.59,9.34-17.55S373.06,77.69,376.68,72c6.66-10.42,15-19.52,22-29.73A157.84,157.84,0,0,1,420.85,17c5-4.72,9-10.45,16.17-12.81,7-2.3,17.24,4.1,17.51,10.9.27,6.5.61,13-1.88,19.19-.8,2-1.78,4.27,0,6.12s3.82,1,6,.48C470.58,38.18,482,33.58,493.9,31c10-2.18,20.16-3.69,30.32-5,4.73-.62,9.06,1.55,12.91,4.3,8.17,5.85,7.14,22.87-2.4,29.74-7.52,5.42-15.14,9.73-24.22,11.77-3,.67-5.6,3.25-8.55,5.06,2.43,3.3,6,2,8.79,2.49,16.76,2.88,30.47,11,42,23.23,3.76,4,7.61,7.85,11.6,11.57,9.66,9,4.64,21.52-4.49,27.43-8.44,5.48-22.47,3.17-31.14-2.27-10.57-6.63-21.92-12.66-35.68-6.27,2.5,2.79,4.34,5.54,8.29,6.38,12.42,2.63,21.3,11.11,30.38,19.14,4.18,3.7,8,7.82,12.3,11.36,10.59,8.75,14.88,20.74,17.91,33.49,3.08,12.93,2.32,26.09,2.37,39.2,0,2.32.22,4.95-3.71,4-1.4-.34-1.47,1.33-1.84,2.44-2.65,7.8-5.06,15.7-8.18,23.31-3.5,8.51-7.57,16.79-13.2,24.21-5.38,7.09-13,11-21,13.57-5.68,1.83-10.82,5.12-16.81,6-2.37.35-2,1.6-.69,3,10.37,11.35,18.25,24.46,24.88,38.15,5.67,11.7,11.28,23.62,13.31,36.76.69,4.45,3.87,8.56,1.79,13.82-10.4-11-15.22-25.22-23.73-37a104.42,104.42,0,0,0-32.86-29.49c-10.69-6.22-22.2-8.25-34-7.2s-22.85,4.54-32.65,12.39c-14.47,11.59-24.46,26.37-33.59,42a14.05,14.05,0,0,0-1.42,3.17c-.78,2.78-.44,4.27,3.25,4.1,6.06-.27,10.74-4.17,16.39-5.4,9.87-2.16,19.49-5.45,29.83-4.95,22.94,1.11,41.07,10.87,55,29.17a151.64,151.64,0,0,1,23.56,46.09A186.66,186.66,0,0,1,517,498.07c.14,1.34.95,3.19-1.18,3.8s-3.56-.28-4.5-2.18a136.81,136.81,0,0,0-17.15-27.18c-12.82-15.36-26.44-29.57-45.7-37.63-14-5.88-28-6.61-41.72-2.29-14.67,4.62-27.09,13.79-37.61,25.24a47.36,47.36,0,0,0-6.77,8.54c-2.21,3.91-.91,7.05,3.76,7.5,25.14,2.46,44.52,15.13,61.52,33.05,12.05,12.7,21.87,26.77,31.06,41.56a247.07,247.07,0,0,1,19.16,37.36c5.3,13,10.15,26.26,13.16,40.06.54,2.44,1.58,4.67,2.19,7.1a13,13,0,0,1-8.26,15.88c-6.8,2.13-13.3-1.67-16-9-2.32-6.35-4.15-12.93-7-19-9.19-19.64-19.23-38.7-34.87-54.32-14.49-14.48-31.39-24-51.59-27.33a60.35,60.35,0,0,0-14.47-.11c-6.54.53-8.19,3.78-5.3,9.79a148.13,148.13,0,0,1,11.58,35.24c2,9.8,2.27,19.75,2.91,29.66,1.7,26.28,1.07,52.62.73,78.91-.35,27.44-1.24,54.88-1.62,82.32-.15,10.8.38,21.67-.66,32.4-1.28,13.25.36,26.58-1.57,39.78A6.38,6.38,0,0,1,365.82,850.55ZM470.52,257.6c15.59-1.65,29.51.32,38.59-12,3.76-5.1,7.37-10.42,7.95-17.2.87-10.12-4-17.26-11.19-23.45-8.49-7.35-17.33-13.55-29.48-9.42-2.51.85-5.11,1.48-7.54,2.52-7.92,3.37-16.23,6.48-21.87,13.23-4.51,5.4-5.87,12.23-4.64,19.36,1.47,8.52,7.85,13.79,13.44,19.32C460.4,254.55,465.65,259.2,470.52,257.6Z" transform="translate(-22.31 -3.66)"/><path d="M624.12,339.71c-7.54-2.71-13.64-7.44-20-12-7.67-5.49-13.49-12.77-20.59-18.79-11-9.28-16.64-22.12-17.25-36.59-.51-12.11-1.76-24.2-1.46-36.35.11-4.48,1.84-8.77,1.34-13.31a2.58,2.58,0,0,1,.57-1.83c5.76-5.77,6.9-13.93,10.71-20.64,8.42-14.8,17.19-29,35.8-33.85,13.51-3.5,26.16-10.18,39.59-14.06,13.81-4,26.62-10.8,41.11-13,10.88-1.69,21.53-1,32.17.16,13.68,1.46,26.92,1.27,40.29-2.73,8.43-2.53,16.34-6.33,24.78-8.76,3.69-1.07,6.18-4.73,10.55-5,8.28-.54,14.22,2.54,17.74,10,5,10.58,10.07,21.13,14.93,31.78,2.11,4.61,1.17,9.82,2.27,14.65,2.41,10.55,4.35,21.2,4.32,32,0,11.12-.87,22.21-5,32.76a22.38,22.38,0,0,1-8,9.82c-8.79,6.37-17.82,12.76-21.79,23.24-4.38,11.58-10.39,22.47-13.62,34.56a176.34,176.34,0,0,1-14.27,35.85c-4.33,8.31-7.92,17.07-12.73,25.16-6.11,10.3-12,20.72-19.81,30-4.14,4.88-7.74,10.31-11.89,15.24-12.25,14.58-23,30.47-38.34,42.29-1.71,1.32-2.54,3.42-4.42,4.69-11.3,7.67-25.47-1.32-26.45-14.63-.21-2.82.06-5.67-.06-8.5-.2-4.78-2-6.41-6.75-5.23-8,2-16,4.56-24,6.61a78,78,0,0,1-34.58,1c-7.43-1.46-12.43-7-14.3-14-1.73-6.54,2.55-12.2,5.87-17.46s8.66-8.88,14.6-11.3c1.09-.44,3.09-.73,2.45-2.5-.55-1.5-.38-3.18-2.42-4.44a297,297,0,0,1-30.16-20.93c-3.2-2.57-6.65-4.82-9.88-7.41-13.56-10.88-9-26.77.81-34.74,5.09-4.15,12.18-3.29,17.76-1.08,7.62,3,15.78,4.44,23.08,8.62A18.07,18.07,0,0,0,624.12,339.71ZM681,247.6c1.1-6.67-3.38-11.31-6.77-16.28-2.73-4-6-8.33-10.48-9.65-11.61-3.42-23.28-2.27-34.62,2.12-8.53,3.3-13.75,9.84-18.28,17.38a14,14,0,0,0-1,13.27c3.63,8.84,8.61,16.53,17.12,21.8,5.29,3.29,10.45,5,16.69,4.55,8.12-.6,14.33-5.56,21.45-8.45C676.18,267.86,681.75,259.87,681,247.6Z" transform="translate(-22.31 -3.66)"/><path d="M456.93,656.23c6.94,1,16.17,2,25.25,3.69,5.84,1.11,10.28,0,14.16-4.57,5.9-6.91,11.93-13.71,18.18-20.29,3.49-3.68,6-3.06,7.1,1.74,1.55,6.93,2.6,14,3.58,21,.57,4.1.42,8.29.9,12.41.5,4.28,3.41,7.34,6.75,9.41,7.86,4.85,16,9.21,24.1,13.74,2.92,1.64,5.12,3.82,5.16,7.35,0,3.2-3.14,3.28-5,4.66-8.7,6.53-19.34,10-27.43,17.6a10.67,10.67,0,0,0-3.58,7.33c-.78,10.26-1.77,20.48-4.16,30.51A27.21,27.21,0,0,1,520.5,765c-1.36,3.22-2.54,3.94-5.6.94-7-6.83-13-14.47-19.47-21.69-3.91-4.34-8.11-6.92-14.25-5.36-9,2.3-18.48,1.54-27.34,4.67-1.65.58-3.79.85-4.91-1.17-1.46-2.64-1.19-5.19.14-8,4.58-9.73,8.62-19.71,13.36-29.36,2.53-5.15.55-9.39-1.36-13.72-3.94-8.91-8.3-17.65-12.22-26.58C446.12,658.53,447.88,656.17,456.93,656.23Z" transform="translate(-22.31 -3.66)"/><path d="M247,732.89a57.52,57.52,0,0,1-.06,8c-1.69,11.92,3,20.72,12.42,27.76,5,3.75,9.17,8.69,14,12.7,3.43,2.83,2.58,5.25.19,7.85A8.28,8.28,0,0,1,269,792c-9,1.61-17.17,5.83-26,7.89a7.49,7.49,0,0,0-5.52,4.45c-4.47,10-7.61,20.43-10.53,30.95-.78,2.83-1.39,6.06-5.12,6.64s-4.81-2.27-6.35-5c-4.91-8.62-10.15-17-15.26-25.55-2.72-4.52-7.51-4.71-11.82-5.08-7.6-.66-15.26-.63-22.9-.86-2.65-.08-6,.46-7.2-2.25s.23-5.49,1.85-7.85c5.25-7.62,10.33-15.38,16-22.72,3.73-4.85,4.16-9.91,2.88-15.44-2.16-9.35-4.43-18.68-6.63-28-.56-2.41-1.43-5,.94-6.93s4.62-1.2,7-.16c7.75,3.33,15.57,6.52,23.31,9.9,4.44,1.93,8.25,1.75,12.25-1.47,7.41-6,15.43-11.15,22.72-17.3,1.66-1.39,4-2.62,6.45-1.5s2,3.56,2,5.67C247,722.57,247,727.73,247,732.89Z" transform="translate(-22.31 -3.66)"/><path d="M42.94,312.46c.33-7.46-3.11-13.45-4.08-20-.6-4.07-1.79-8.06-2.6-12.1a7.35,7.35,0,0,1,2.2-7.22c2.18-1.93,4-.1,6.18.7,8.6,3.13,16.48,7.83,25.06,10.93,5.38,1.94,9.3-1.82,13.18-4.29,6.66-4.25,12.83-9.28,19.26-13.88,3.57-2.55,7.92-.35,8,4.29a109.62,109.62,0,0,1-.8,16.41c-.8,5.83-.4,11.62-.48,17.43,0,3.27,1.36,6,3.67,8.43,7.47,7.94,16.39,14.33,23.61,22.55,3,3.42,2.6,5.53-1.53,7.25-8,3.32-16.37,5.16-24.76,7-7.58,1.65-11.94,5.63-14.37,13.65-2.95,9.78-5.39,19.88-10.24,29.06-2.09,3.94-2.89,4.12-5.85.75-4-4.58-5.56-10.5-8.5-15.68-2.78-4.88-4.7-10.25-7.47-15.15a12.37,12.37,0,0,0-10-6.38c-8.91-.78-17.81-1.63-26.74-2.22-4.81-.32-5-2.82-3.54-6.38,2.73-6.7,7.8-11.87,11.74-17.78,2.47-3.73,4.87-7.5,7.32-11.25C43.56,316.45,42.62,314,42.94,312.46Z" transform="translate(-22.31 -3.66)"/></g></g></svg>