<svg xmlns="http://www.w3.org/2000/svg" viewBox="0 0 892.1 884"><title>forever</title><g id="Layer_2" data-name="Layer 2"><g id="Layer_1-2" data-name="Layer 1"><path d="M750,885c-.56-1-1.07-2.34-2.36-2.37-5.59-.15-9.5-4-13.78-6.61A145.22,145.22,0,0,1,708,855.43c-9.17-9-17.67-18.87-27.75-27-7.78-6.28-14.06-13.27-17.13-23.64-7.62-25.67-16.62-50.92-25-76.37-1.87-5.74-.46-11.58.34-17.34,2.31-16.63,4.93-33.25,5.81-50,.83-15.66,7.3-29.11,14.41-42.54,6.31-11.91,12.28-24,18.31-36a11.46,11.46,0,0,1,5.44-5c13-6.7,25.91-13.66,39.19-19.8,11.2-5.17,23.4-7.62,35.47-9.83,7.2-1.32,14.36-2.92,21.38-4.76,8.81-2.32,17.52-1.11,26.28-1.31,5.46-.13,11,.15,16.38-.51,4.7-.57,5-4.9,5.12-8.54.35-11.65,0-23.34.76-34.95,1.31-19.14.67-38.27,1.09-57.4.1-4.63,1.16-9.24.85-13.92-.06-1,.5-2.17-.5-2.77-1.35-.8-2.22.57-2.92,1.28a158.65,158.65,0,0,1-12.89,11.71c-5.77,4.64-11.87,7.12-19.72,6.84-18-.65-36-.2-54-.28-1.48,0-3.88.9-4.12-1.46-.2-1.94,2-2.48,3.59-2.85,3.88-.91,7.8-2.27,11.72-2.33,7.13-.11,12.69-2.88,17.86-7.57,6-5.44,12.43-10.4,18.7-15.53,2.24-1.83,3-4.14,3.1-7,.36-9.29,5.24-15.52,13.12-20.22,18.74-11.17,36.67-23.3,47.37-43.37,5.93-11.16,16.51-17.66,26.38-24.62,5.1-3.6,10.5-6.84,16.31-11.76,0,5.71,0,10.26,0,14.81,0,1.79-1.51,2-2.57,2.67-5.7,3.69-9.64,8.85-13.5,14.42a201.34,201.34,0,0,1-26.81,32c-2.65,2.5-4.26,5.3-3,8.8,1.81,5,7.08,5.61,10.23,1.26,8.34-11.55,19.88-19.44,31.12-27.71,3.41-2.5,4.64-1.93,4.62,2.55q-.2,41.75,0,83.49c0,3.52-1.08,4.6-4.54,4.53-9.49-.19-19,.07-28.49-.12-3.58-.07-4.44.95-4.12,4.59.76,8.44.86,16.94,2,25.37a22.22,22.22,0,0,0,2.71,8.41c1.76,3.06,3.09,6.41-1.38,8.82-2.52,1.36-2.61,4.13-2.78,6.61-.33,4.8-1.33,9.56-.83,14.44.13,1.21.54,3.82-1.82,3.09-4.79-1.48-4.37,1.8-3.84,4.19.8,3.64,2,6.9-1.44,10-1.33,1.18-.1,3.2.57,4.68,2,4.39,3.6,9,6.33,13,3,4.45,2.7,8.72-.49,12.92a22.41,22.41,0,0,0-3.33,7.76c-.26.9-1.14,1.91-.24,2.75s1.83,0,2.68-.48c4.4-2.34,4.85-2.07,4.88,2.88,0,8.45-3.73,12.7-11.84,12.61-4.7-.05-7.35-3.92-9.47-7.35-3-4.85-5.71-9.07-12.51-6.69-1.84.65-2.93-1-3.55-2.72-.78-2.19-1.31-4.81-4.77-3-1.2.63-1.85-.2-1.77-1.46.05-.66.33-1.31.36-2,.09-2.33,2.59-6.13,0-6.52-2.16-.33-5.76,2.43-7.1,5.68-.9,2.16-.48,6.16-3,6-3.64-.24-1.61-4.35-2.43-6.65a14.91,14.91,0,0,0-.75-1.85c-.59-1.13-.75-3.05-2.39-2.75-1.89.35-1.84,2.33-1.42,3.71,1.63,5.37-2,7.64-5.85,8.77-2.93.87-6.39-.6-8.86-2.48-2.24-1.71-3.95-1.29-6.37-.83-5.54,1-10.74,4.2-16.73,2.79-1-.23-2.86.2-3.21.89-2.53,5-6.14,4.26-10.45,2.77-2.51-.87-4.47.56-4.93,3.47-.6,3.86-3.47,6.36-5.7,9.21-1.09,1.4-2.58,2.28-4.36,1.23-1.61-.94-1.23-2.55-1-4a5,5,0,0,1,.12-.49c1.88-7.6,1.93-7.41-5.56-5.7-3.4.77-3.21,3-2.12,4.75,2.78,4.58,1.37,7.76-2,11.38-2.83,3.07-2.86,7.72-4.47,11.55-.84,2-1.66,3.76-4.16,3.49s-3-2.28-3.1-4.39c-.21-4.83-.3-9.66-.6-14.47-.11-1.88.06-4.51-2.73-4.46-2.49,0-3.1,2.32-3,4.41.15,5.65.47,11.29.7,16.93,0,1.15.5,2.79-.08,3.37-4.72,4.71-2.91,10.62-3.19,16.12-.36,7-2.51,13.75-3.36,20.7-.65,5.32-1.18,10.55.67,15.8.48,1.37,1.07,3.84-.51,4.58-2.2,1.05-2.16-1.85-3.24-2.88-4-3.84-4.28-9.06-4.22-13.91.12-10-1.57-20-.24-30,.75-5.61-1-11.26.13-16.92.25-1.22-.11-3-1.82-3s-1.09,1.75-1.53,2.72a13.48,13.48,0,0,0-.69,7.86c2.16,13.76.81,27.59.73,41.38,0,5.36-3.09,10.15-6,14.62a14.69,14.69,0,0,0-2.15,5c-.41,1.91.27,3.22,2.37,1.83,3.35-2.21,4.19-.36,5.09,2.54,1.87,6,.49,12.23,1.3,18.33.59,4.43.2,9,.18,13.48,0,1.84.09,4.08-1.59,5-3.52,2-1.83,4.54-.87,6.82.81,1.93,1.7,4.41,4.17,4.53,2.75.14,3.1-2.6,3.95-4.5,1.79-4,5.71-6.4,7.67-10.35.78-1.58,2.26-.88,2.86.76,1.33,3.62,1.62,7.2-.87,10.46-4.27,5.57-5.24,11.91-5.38,18.79a129.87,129.87,0,0,0,6,42.26c1.49,4.71,1.64,9.84,2.63,14.72.37,1.83.3,4.91,2.6,4.81s2.16-3,2.08-5c-.32-7.6.88-15.25-1.34-22.81-1.2-4.14,3.09-8.4,7.22-7.6,2.43.46,2.23,2.83,2,4.5-1.12,7.14,2.47,14,1.09,21.21-.46,2.45.39,6.71,3.37,7.09,3.68.46,2.73-3.86,3.43-6.12,3.36-10.82,6.55-21.71,7.75-33.05.2-1.79.31-4,2.65-4.2,2.12-.16,2.52,1.92,2.87,3.51,1.44,6.42,5.44,12.14,4.69,19.21-.37,3.48-.89,6.58-3.52,9-.95.85-2,1.7-1,2.84,1.5,1.69,2.74,3.91,5.29,4.26,1.63.23,2.27-1,2.8-2.33,3.18-7.85,4-16.08,4.18-24.44a14.08,14.08,0,0,1,.53-4.42c.68-1.92,2.13-4,4.09-4,2.34,0,2,2.75,2.22,4.41.61,4.15,2.94,7.67,4.16,11.62,1.44,4.68,1.78,9.5,2.23,14.12.52,5.32-2.92,10.36-4.42,15.59-.31,1.09-1.34,2-1.59,3.08-.47,2-2.85,4.47-1.14,5.9,2.34,1.95,3.35-1.63,5-2.69,1.36-.88,2.47-1.77,3.94-.4.85.79,1.76,1,2.54,0,3.22-4.3,5.2-.76,7,1.33s2.34,4.91,4.11,6.81c5.73,6.18,6,12.21.37,18.49a2.36,2.36,0,0,0-.66,2.72c.59,1.22,1.53.61,2.53.53,7.9-.68,9-2.29,6.06-10.26-1-2.79-.37-5.37,1.67-6.77,4.67-3.22,7.48-8,11.06-12.09.78-.89,1.5-2,2.84-1.6,1.16.33.92,1.58,1.18,2.51,1.47,5.22,1.24,10.38.37,15.73a37.53,37.53,0,0,0,.36,15.85c.55,2,1.26,4.72-1.31,5.7s-3.31-1.79-4.26-3.36c-1.55-2.55-2.71-5.34-4-8-.5-1-1.35-1.64-2.4-1.2s-.68,1.32-.24,2.1c3,5.32,5.8,10.76,9,15.95,3,4.77,5.28,4.78,8.57.11,3.63-5.14,7-10.51,10.43-15.8a1.56,1.56,0,0,1,1.65,2c-1,6.74,1.87,13.32.37,20.21-1,4.45-.17,9.29-.07,14,0,1.11.07,2.6,1.63,2.65s2.32-1.11,2.32-2.64c0-5.66-.1-11.33,0-17,.1-11.34-1.3-22.7.21-34,.44-3.32,2.93-5.55,5.34-7.54,2.62-2.16,5-4.35,5.93-7.78.35-1.26,1-3,2.57-2.45,2,.68.52,2.22.09,3.31-2.65,6.7-.52,9.87,6.77,9.29,3.79-.3,6.82-.09,8.89,3.64s1.1,6.86-1.06,9.78c-2.87,3.9-5.5,7.84-6.63,12.63-.27,1.11-.77,2.42-2.25,2.24-1.66-.19-2-1.62-2-3s.56-2.64.48-3.94c-.11-1.62-.3-3.74-2.34-3.87-1.84-.12-1.45,1.94-1.67,3.12-.55,2.94-1.59,4.14-4.69,2.38-2.58-1.47-3,.23-2.21,2.25A91.37,91.37,0,0,0,840,853.36c2.34,4.41,6.3,4.21,8.64-.22s4.74-9.15,7-13.76c.62-1.24,1.21-2.58,2.81-2.37a2.33,2.33,0,0,1,1.93,3c-1.68,5.31.85,10.5.17,15.78-.37,2.91-.89,5.61-3.19,7.59-2.74,2.37-5.36,4.82-6.54,8.45-2.6-1.39-1.62-3.59-2.3-5.18-1.2-2.81-3.24-4-6-2.95-3.5,1.29-1.41,3.27-.25,5a4.27,4.27,0,0,1-.22,5.12,11.25,11.25,0,0,0-1.34,2.07c-.84,2.09,1,5.75-1.44,6.28a14.39,14.39,0,0,1-9.61-1.34c-4.09-2.45-8.11-1.82-12-1.23-6.5,1-11.89-1.28-16.72-4.91-2.56-1.93-2.8-.81-3.62,1.16s-1.24,4.83-4,4.26-2.64-3.48-2.75-5.79c-.35-7.65-1.16-15.28-.79-22.95a10.28,10.28,0,0,0-.24-3c-.33-1.36-.25-3.41-2.35-3.18-1.72.18-1.5,2-1.53,3.25-.09,3.83,0,7.66-.09,11.49,0,2-.5,4-.48,6,.05,5.72-2.85,7.71-8.34,7.67-3.2,0-5.75.36-5.35-4,.13-1.34-.33-2.85-2-2.91s-1.94,1.49-2.3,2.79c-1.16,4.26-1.38,8,4.23,9.21,4.53,1,1.48,4.12,1.76,6.32ZM666.47,640.11c-1.55,1.74-1,3.48-1,5.07q-.09,13,0,26c0,2.22,0,4.47-1.89,6-2.48,2-1.77,3.89-.23,6,2.35,3.22,3,6.66.85,10.27-2.3,3.95-.39,6.77,2.34,9.66,2.66-6.83,2.64-7.13,2.52-13.55a12.62,12.62,0,0,1,1.09-4.3c.46-1.29,1.14-2.74,0-3.76-3-2.78-2.35-6.42-2.43-9.79-.19-8.5-.06-17-.14-25.5C667.56,644.26,668,642.19,666.47,640.11ZM792.14,424.87V425c-1,0-2,0-3,0-4.8.2-5.45,1.52-5.19,8.4.18,4.49,2.89,5.22,6.36,4.77,4-.52,6.82-3.31,9.5-5.88,1.95-1.88.4-6.19-2.28-7A26.77,26.77,0,0,0,792.14,424.87ZM812.31,397c-.17,6.59,1.07,9.2,4,9.19,4,0,6.76-2.63,6.74-6.72,0-3.8,1.27-8.23-5.14-8.56C812.32,390.66,812,393.86,812.31,397ZM770.5,837.63c.65-3.12-.55-6.65-1.09-10.25-.14-.9.09-2.25-1.32-2.16s-1.29,1.39-1.29,2.33c0,4.65,0,9.3.16,13.94.16,3.74,3.13,7.9-1.94,10.67-.11.05-.14.3-.15.46a4.61,4.61,0,0,0,2.32,4.61c1.89,1.11,3.21.06,4-1.63,1.23-2.7,5.53-6.15,2.84-8C770,844.8,770.77,841.65,770.5,837.63Zm-81.23-82.58c2.72-7.54,3.7-15.25,1.58-23.18-.27-1-.22-2.64-1.88-2.36-1.37.23-1.67,1.8-1.52,2.81C688.55,739.82,687.5,747.43,689.27,755.05Zm41.37,77c-.81-2,1.48-6-2-5.94-2.32,0-2.33,3.93-1.52,6.29.68,2-.38,5.93,2.19,5.7S730.07,834.18,730.64,832Zm17.74,33.37c-2.88-5.75,4.36-12-1.26-18.85C746.23,853.74,746.42,859.62,748.38,865.41Z" transform="translate(-1 -1)"/><path d="M119,885c6.39-7.26,14.8-11.75,23-16.36,6.55-3.68,7.18-4.19,5.55-11.61-.71-3.22,1-5.42,2.66-7.69,2.31-3.12.31-8.44-3.5-9.44-6-1.57-12.26-.69-18.27-2.34-5.81-1.59-11.58-3.19-16.67-6.46-6-3.81-6.4-8.05-1.43-12.89,7-6.82,16-10.67,24.23-15.6,4.13-2.47,6.36-5,7.59-10.33,1.39-6.09.19-9.06-3.6-13.47-7.19-8.35-6.2-18.95,1.17-28.39.77-1,2.42-1.78,1.65-3.28s-2.41-.74-3.67-.76c-8.16-.15-16.34,0-24.48-.43-4.23-.22-9.74-.41-10.69-5.45-.8-4.22,4.12-5.84,7.33-7.78,7.59-4.59,16-7.38,24.26-10.41,2.8-1,4-2.1,2.41-5a3.09,3.09,0,0,1-.33-.94c-1.9-8.24-6.7-13-15-15.9a74.53,74.53,0,0,1-36-26.61c-3.74-5.13-3.3-6.17,2.7-7.4,17.46-3.57,30.58-12.7,37.11-29.8,1.65-4.33,4-4.55,8.11-3.64,23.86,5.31,47.79,8.49,71.82.73,6.27-2,12.21-4.9,16.93-9.32,4.16-3.88,7.38-2.83,10.93,0A102.33,102.33,0,0,0,251.48,636c2.11,1,4,1.55,5.28-1.18,1.63,1.58-.27,3.82,2.61,4.94,21.17,8.27,42.69,11.42,65.05,5.9a16.16,16.16,0,0,0,3.84-1.08c3.19-1.74,5.29-.73,7,2.19,4.88,8.15,10.32,16,17.11,22.61,13.83,13.52,29.44,23.87,49.43,25.58,2.25.19,4.7.44,5.52,2.62,1,2.6-2,3.19-3.41,4.18-13.05,8.9-27.75,13.35-43.2,15.73-4.77.73-9.54,1.48-14.38,1.09-3-.23-4.56,1.06-5.57,3.83s-1.52,4.92,1.16,7.11a33.54,33.54,0,0,1,6.59,6.77,19.08,19.08,0,0,1,1.55,19.92c-1.3,2.73-1.39,4.59,1.12,6.41a17.7,17.7,0,0,1,2.06,2.17c6.76,6.82,6.3,14.29-1.13,20.55-2.24,1.88-6.56,2.71-6.48,5.45s4.57,3.26,6.74,5.3c6.64,6.26,11,12.78,7.71,22.84-4.25,13.17-3.77,13.44,8.8,19.15,18.57,8.45,35.57,19.54,52.36,31,1.29.88,3.49,1.78,2.22,3.74-1.37,2.12-3.45,1.28-5.27.09-8.49-5.56-18.18-7.66-28-7.67-11.67,0-22.5,4-32.41,10.26A45.63,45.63,0,0,0,347,885h-5c-.34-2.2,1.37-3.26,2.62-4.49,12.51-12.25,27.5-18.7,45-19.12,3.39-.08,6.79,0,10.92,0-.88-1.24-1.06-1.74-1.42-1.94-12.92-7.49-25.75-15.14-39.54-21-3.34-1.43-4.95-.79-6.68,2.36-6.72,12.24-16.12,22.19-27,30.82-6.53,5.17-14.39,8.22-20.91,13.38H294a21.05,21.05,0,0,1,2.92-1.85c17.54-7.6,32.92-18.06,44.5-33.54,3.79-5.08,7.25-10.35,9-16.6-.78-.22-1-.36-1.08-.3-26.7,21.54-58.12,31.53-91.26,37.21-2.81.48-3.38,1.51-2.47,4,1.33,3.59,2.76,7.17,2.39,11.13H247c-2.18-2.47-4.33-5.44-8.1-4.5-4.71,1.19-9.27,3-13.9,4.5H211c.38-2.68-4.73-4-2.26-6.72,4-4.36-.12-4.26-2.33-4.51-4.41-.52-8.86-.28-13.32-1-8-1.38-8-1.12-11.31,6.46-.86,2-1.85,3.88-2.78,5.82h-5c1.48-3.5,2.86-7,4.48-10.49,1.19-2.53.2-4-2.14-4.37a73.62,73.62,0,0,1-19-5.62c-2.5-1.08-3.21-.16-3.41,2.27A33.32,33.32,0,0,0,158,885h-6c-1.29-3.59-2.75-7.12-3.18-11-.23-2.06-1.42-3.75-3.71-2.29-6.54,4.17-13.72,7.43-19.11,13.27Zm59.91-101.18c-3.07-2-2.84-5.81-6.26-5.26-8.24,1.34-16.44,2.82-22.69,9.07-4.65,4.64-4.15,8.58,1.4,12.22.83.54,1.79.9,2.62,1.44,1.32.84,3.59,1.44,2.42,3.53-1,1.74-2.91,1.11-4.46.26s-3.18-1.79-4.74-2.75c-1-.65-2-1.06-3.22-.27-9,6-19.19,10-27.68,16.77-5.79,4.62-5.35,7.38,1.26,10.73a19.87,19.87,0,0,0,1.86.72c18.42,6.87,37.48,6.7,56.52,4.36,17.46-2.15,34.29-8,51.84-9.89,3.95-.44,6.17-2.11,6.75-6.44.54-4.06,3.31-7.2,6.57-9.7,1.09-.84,2.45-1.46,3.62-.32s.42,2.39-.55,3.44c-7.17,7.81-6.74,15.77-.45,23.84.85,1.09,1.69,2.27.36,3.5s-2.81.52-3.91-.63a21.57,21.57,0,0,1-5.14-7.3c-.82-2.23-2.2-3.2-4.57-2.78-7.51,1.32-15.1,2.31-22.53,4-16,3.63-32,7.57-48.62,7.64-1.4,0-3.34-.64-3.93,1.21-.54,1.68,1.17,2.59,2.2,3.62,4.25,4.24,9.93,4.26,15.31,5.13,1.25.2,3-.14,3,1.8,0,1.76-1.73,1.87-3,2a12.23,12.23,0,0,1-3.45-.25,53.85,53.85,0,0,1-10.21-2.31c-2.38-.89-4.82-.31-6,2.09s.4,4.2,2.31,5.41a31.84,31.84,0,0,0,5.77,2.91c15.53,6,31.88,7.73,48.27,8.21,19.26.57,38.26-2.12,57.2-5.79a207.73,207.73,0,0,0,52.46-17.22c12.56-6.17,24.55-13.45,33.22-25,5.09-6.76,4.28-14.87-1.58-20.78a43.56,43.56,0,0,0-11-7.59c-4.07-2.16-3.94-3.29,0-5.54a65.13,65.13,0,0,0,8-5c6.28-4.91,6.46-11.42.69-16.94-8.83-8.46-26.85-5.25-30.7,6.39-2.33,7-6.24,8-12.09,7.56a27.72,27.72,0,0,0-6.9.83c-4.66.85-6.52-.63-6.85-5.31-.28-4-.39-8-.38-12,0-3.36-.85-5.93-3.78-8.11-3.8-2.83-5.33-6.81-2.74-11.36,1.23-2.15.71-3.61-.87-5.29-7.18-7.66-7.19-12.32-.13-19.82.59-.63,1.43-1.15.92-2-.71-1.21-1.69-.54-2.54,0-9.22,5.86-19.69,8.71-29.82,12.39-2.29.83-6.31.79-6.44,2.8-.16,2.67,3.88,2.72,6,4,10.46,6.17,20.35,18,15.67,32.68-.61,1.91-2.65,3.51-1.66,6,4.75-1.36,2.47-6.73,5.74-9.87.73,5,.35,9.29.77,13.51.26,2.59-2.88,4.34-4.66,6-1.36,1.28-3.61-.93-4.83-2.43s-2-2.34-3.56-.84c-9.58,9.08-21.21,12.05-34,11.2-3.74-.25-5.93.83-7.89,4.33-3.67,6.57-8.12,8-13.3,5.17,2.13-1.42,4.28-2.62,6.16-4.16,5.72-4.65,5.52-9.58-.4-13.79-7.41-5.27-15.88-6.31-24.66-6.54C181.46,777.28,178.16,777.44,178.91,783.82ZM398.6,699.35a12.23,12.23,0,0,0-2-.9,84.45,84.45,0,0,1-34.88-15.1A112.34,112.34,0,0,1,332.85,652c-1.47-2.33-3-3.44-6.1-2.66a100.25,100.25,0,0,1-40.45,2,128.62,128.62,0,0,1-52.93-20.91c-4.26-2.9-7.67-5.29-11.76-.15-.77,1-2.2,1.45-3.35,2.12C204.9,640.29,190,642,175,642.35c-13.51.36-26.84-1.9-40.1-4.36-2.84-.53-4.75-.25-6,2.66-6.84,15.67-19.28,24.63-35.42,28.81-4.14,1.08-3.86,2.3-1.58,5.19,10,12.62,23.78,19.45,38.16,25.45,1.46.6,3,.89,4.32,0,3.15-2.09,7-3.8,9-6.71,1.5-2.12-1.79-5-2.81-7.53-1.37-3.45-1.29-5.3,3.2-6.17,6.4-1.24,12.67-3.41,15.17-10.58,2.22-6.36,3.37-6.94,9.47-3.71,9.6,5.07,19.37,6.61,29.75,2.56,3.34-1.3,5.88-.3,6.77,3.55.3,1.29,1.06,2.5,1.21,3.79.39,3.28,2.26,3.81,5.2,3.6,27.52-1.94,54.8-.5,81.66,6.21,15.88,4,31.24,9.29,45.21,18,3.33,2.08,6.51,4.23,5.44,9.05-.44,2,.92,2.76,2.67,2.58,11.4-1.12,22.85-2.17,33.74-6C386.42,706.5,393,704.45,398.6,699.35ZM130.73,742.53c8.27-.25,15.73-.63,23.16-.94a419.65,419.65,0,0,0,76.89-10.5c15.91-3.64,31.43-8.55,46.06-16,1.16-.59,2.87-.79,2.68-2.47s-2-1.42-3.23-1.59q-8.13-1.14-16.27-2.16c-21.61-2.75-43.12-1.43-64.58,1.68C172,714,149.55,721.23,127.33,729.19c-5.6,2-10.9,4.89-16.27,7.51-1.3.63-2.78,1.74-2.61,3.35.2,1.79,2.1,1.07,3.26,1.44C118.24,743.62,125,741.86,130.73,742.53Zm97.16,46c10.1,0,16.4-1.8,23.44-6.46,10.59-7,14.69-19,10.24-30-3.93-9.66-20.13-18.81-30-16.86-6.68,1.31-13.34,2.75-20,4.26-9.35,2.13-16.65,10.86-17.3,20.5-.59,8.74,3,13.69,11.32,16.4,4.29,1.4,8.68,3.35,11.24,7.08C219.9,788,223.73,789.31,227.89,788.52ZM296.63,764c-.18,12.84.36,13.33,11.71,12,1.41-.17,2.61-.39,3.14-1.92,4.32-12.43,14.16-16.33,26.13-16.6,6.78-.15,9.09-2.23,9.37-9.1.21-5-1.74-9-5.08-12.55-8.42-9.1-19.5-12.92-31-15.88a44.61,44.61,0,0,0-16.35-1.13c-4.53.52-8.54,2.4-10.14,7-1.5,4.28.73,7.69,3.83,10.57A35.9,35.9,0,0,1,291,739.2c1.28,1.49,2.08,2.95.13,4.7-3.8,3.42-2.2,7.26.87,9.35C296.58,756.35,297.89,760,296.63,764Zm-88-80.34c-3.33,7.07-1.77,9.78,4.16,10.1,4.24.23,8.2-1.12,12.35-1.37,6.18-.36,12.09,1.71,18.3,1.35,8.29-.47,16.52.91,24.76,1.93,7.23.89,14.39,4.07,22,.5,2.39-1.12,5.88-.63,8.83.37,8.46,2.86,10.87,7.6,7.6,15.85-.91,2.29,0,2.46,1.75,2.8A89.31,89.31,0,0,1,332,723c1.07.54,2,1,3.13-.16,5.1-5.2,3.43-15-3.06-18.38a173.74,173.74,0,0,0-27.51-11.72c-20.71-6.71-42-9.78-63.65-10.26-2.32-.06-4.24-.35-4.78,3.21-.47,3.18-3.31,5-6.79,4.88a5.53,5.53,0,0,1,2-2.19c1.52-1.14,3-2.56,2.31-4.52s-2.82-1.36-4.4-1.36c-4.82,0-9.65.19-14.47.2-3,0-4.93.87-4.1,4.42.2.84.65,1.92-1.1,2.5C209.33,687.94,209.09,686.41,208.67,683.68Zm-6.68,3c.27-3.6-1-7.3-1.32-11.08-.28-3.27-1.62-3.42-4.19-2.79a39.06,39.06,0,0,1-28.09-3c-2.09-1.08-3.95-.5-4.7,1.24-2.94,6.8-8.64,9.77-15.21,11.79-1.66.51-3,1.14-1.83,3.54,5.56,11.22,12.92,20.5,26.26,22.08C187.52,710.22,203.07,705.28,202,686.72Zm-62.75,76.76c.08,7.49,2.5,12.39,6.73,16.51,1.63,1.58,3.29,2,5.34.68,6.1-4,13.2-5.26,20.13-6.65,2.87-.57,3.28-1.34,2.55-3.77a62.94,62.94,0,0,1-2.56-13.6c-.26-3.71-1.05-7.89-3.1-10.83-1.81-2.59-5.53.71-8.45.13-.48-.09-1,.08-1.49,0C149.19,744,138.72,757.11,139.24,763.48Zm44.09,9.76c2,0,3.33.08,4.65,0,2.39-.17,3.22-1.32,2.3-3.68a21.91,21.91,0,0,1,.17-16.9c.55-1.32.86-2.63-.43-3.61-4.29-3.27-8.78-6.15-14.56-5-1.81.37-3.74.89-2.75,3.58,2.29,6.26,2.32,13,3.68,19.44C177.44,772,178.79,774.42,183.33,773.24Zm92.5-66.35c2.14.47,3.17-.65,3.56-2.53s-.53-2.84-2.29-3.19c-1-.19-2-.4-2.94-.57-13-2.13-26.12-2.49-39.15-4-.92-.1-2.25-.44-2.54.85-1.16,5.16-3.39,2.37-5.17.63-1.25-1.22-2.89-2.11-3.83-.87-1.73,2.27-4,2.62-6.42,3.24-1.16.29-2.3,1.1-2.09,2.42.27,1.67,1.84,1.08,2.88,1.07,2.82,0,5.63-.28,8.45-.39,4.81-.19,9.68-.93,14.42-.4C252.41,704.5,264.28,704.22,275.83,706.89ZM293.56,714c4.43.35,8.07-1,9.31-5.53,1-3.72-1.06-6.54-4.48-7.85a11.07,11.07,0,0,0-10.48.94c-2.09,1.4-4.11,3.2-3.64,6a7.24,7.24,0,0,0,5.37,5.94A23,23,0,0,0,293.56,714Zm-137.28-6.83c-4.7,2-9.61,3.07-14,5.59-1.58.91-1.38,2-.7,3.33.78,1.53,1.56,3.1,3.69,2.51q9.1-2.53,18.18-5.19c1.27-.38,2.37-1.45.83-2.4A76.14,76.14,0,0,0,156.28,707.21Zm-4.38-3.89a19.22,19.22,0,0,0-1.38-2.22c-1.55-1.92-3.51-3.48-6-2.17-2.73,1.42-5.85,2.85-6.72,6.16a2.29,2.29,0,0,0,2.87,3,102.61,102.61,0,0,0,9.91-3.28C151.09,704.6,151.4,703.9,151.9,703.32Zm64.83-5.73c-11.35-.21-12.69.52-14.16,7.27C209.65,707.54,212.85,702.16,216.73,697.59Z" transform="translate(-1 -1)"/><path d="M1,227c7.84-2.71,13.91-8.34,20.56-12.89C41,200.78,61.48,189,81.27,176.17c4.84-3.14,10.25-5.4,15-8.75,3.52-2.47,6.5-2,9.2,2,10.58,15.69,22.9,30,34.81,44.71.32.39.62.79,1,1.14,7,7,6.91,8.21-1.25,13.51-2.65,1.73-5.29,3.47-8,5-3.71,2.1-7.24,3.09-10.61-1-5.39-6.53-11.17-12.74-16.56-19.26-2.94-3.56-6.67-2.82-10.09-2.07A12.51,12.51,0,0,0,86,219c-.73,1.65.83,2.74,1.76,3.86,4.86,5.9,9.77,11.77,14.66,17.65,3.15,3.79,2.38,7.1-1.91,9.75-4.51,2.79-9.26,5.17-13.5,8.44-3.07,2.37-6.42,1.75-9-1-4.85-5.25-9.55-10.65-14.22-16.06-6-6.93-8.52-7.25-15.89-2.12Q33.79,249.36,19.53,259c-4.87,3.3-8.83,2.78-12.85-1.38C4.84,255.68,2.9,253.86,1,252Z" transform="translate(-1 -1)"/><path d="M697,1a132.65,132.65,0,0,1-45.83,14c-13.77,1.5-27.56,1.27-41.32.67-17.07-.74-34.25-1.25-50.53-7.43C553.76,6.16,548.11,4.16,543,1Z" transform="translate(-1 -1)"/><path d="M1,116c5.66,1,6.8-4.42,9.79-7.12,1.49-1.36,1.81-3.86,4.66-3.81,1.41,0,1.5-1.56,1.57-2.72a7.78,7.78,0,0,1,2.62-5.22c1.06-1,2.39-1.17,3.19.6,2.24,5-3,20.15-8,23.06-1.56-1.6,1.86-4.92-1.88-5.72-3.36-.72-5.76.83-7.67,3.45C4.24,120,3.37,121.79,1,121Z" transform="translate(-1 -1)"/><path d="M893,1c-.09,9.65,1.3,9.32-8.29,6.89C874.84,5.4,864.42,5.3,855,1Z" transform="translate(-1 -1)"/><path d="M548.74,315c3.88-8.09,7.6-16.16,11.59-24.1,5.92-11.74,9.52-24.48,15.28-36.23,11.09-22.61,30.86-34.27,54.24-40.42,8.69-2.29,17.13-4.27,24.57-9.82,6.88-5.13,15.18-7.56,23.71-8.46,3-.32,3.59-1.28,4-4.18,2.93-23.19,2.19-46.69,6.61-69.81,2.11-11,1.34-22.56,1.76-33.87.42-11.1,2.38-13.3,13.24-11.49,18,3,36.27,4.44,54.38,6.82,6.84.9,8.83,3.41,8.3,10.11-.23,2.82-.34,5.66-.76,8.44-1.06,7-4.65,9.66-11.69,8.55-6.73-1.07-13.4-2.53-20.11-3.73-6.4-1.14-10.29,1-11.36,5.94-1.59,7.4,1.08,12.26,7.89,13.49,8.18,1.47,16.41,2.67,24.65,3.69,4,.49,5.49,2.64,5.74,6.23.36,4.92-.82,9.66-2.27,14.24-1.21,3.82-5,4.09-8.35,4a117.19,117.19,0,0,1-19.27-2.3c-9.43-1.87-13.21,1.89-13.86,11.43-.67,9.79,3.41,11.34,11.5,11.75,8.35.42,16.92,0,25.08,2.9,4.51,1.59,5.75,4.72,5.1,9-.6,3.93-1.77,7.76-2.33,11.73-.49,3.39-3.53,4.35-6.81,4.54-10.73.61-21.17-2-31.77-2.72a11.75,11.75,0,0,0-3.62-.06c7,3.72,11.31,11.14,20.52,12.16,11,1.21,15.54,6.84,17.63,17.82a5.81,5.81,0,0,0,2.32,3.69c24.17,18.84,27.26,43.81,20.58,71.49a75.78,75.78,0,0,1-19,35.08,76.6,76.6,0,0,0-7,9.07c-2.19,3.11-3.51,6.76-2,10.38,3.2,7.55-2.67,13.75-8.88,15.85-3.9,1.32-5.32,2.61-4.38,6.93,1.8,8.32-2.82,14.41-8.36,19.75a33.33,33.33,0,0,1-15.62,8.43c-7,1.71-13.47,5.54-18.87,9.72-4.65,3.59-6.37,10.05-5.32,17.38,3.31,23,2.76,45.84-9.54,66.78-.68,1.15-1.35,2.31-2.13,3.38s-2,1.82-3.46,1c-1.67-1-1.67-2.44-.7-3.84,6.36-9.3,9.11-19.9,11.09-30.75A90,90,0,0,0,682,464c.06-1,.5-2.58-1-3s-1.93,1-2.75,1.77c-5,4.62-9.51,9.8-14.93,14-1.48,1.15-2.8,2.63-4.82,1.75s-2.7-2.8-2.93-4.89c-.47-4.47-1.16-8.93-1.37-13.41-.15-3.38-1.77-3.81-4.57-3.31s-4.66,2.3-6.32,4.48q-11,14.52-22.12,29c-3.87,5-6.2,4.68-8.6-1.11s-4.93-11.29-7.12-17c-1.48-3.88-2.78-3.88-5.18-.67-7.47,10-14.35,20.41-21,31-1.24,2-2.71,3.79-4.12,5.64-.84,1.11-2,2.19-3.36,1.35-1.79-1.07-.89-2.7-.13-3.93,4.57-7.35,8.83-14.94,13.94-21.89,7.48-10.15,14.62-20.53,23.61-29.58,8-8.09,17.65-11.34,28.34-13.05s21.3-3.79,31.53-7.45c5.69-2,10.8-5,14.43-10.06-1.4-1.63-2.81-.65-4.21-.38-9.3,1.79-18.63,3.41-28.15,3.34-1.47,0-3.86,1-4-1.51-.13-2.14,2.16-2.31,3.76-2.37a185.43,185.43,0,0,0,28.17-3.64,59.49,59.49,0,0,0,20.37-7.68,8.36,8.36,0,0,0,3.93-5.49c1.21-5.18-1-7.69-6-5.94-12.65,4.44-25.78,6.62-38.95,8.66a68.11,68.11,0,0,1-8.46.47c-1.24,0-3,.49-3.06-1.49-.05-1.56,1.54-1.45,2.65-1.63,5.58-.91,11.17-1.75,16.73-2.7,11.82-2,23.69-3.88,34.52-9.49a28.56,28.56,0,0,0,3.76-2.41,5,5,0,0,0,2.31-5.15c-.41-2.39-2.52-2.6-4.15-3a69.43,69.43,0,0,0-27.23-1.21c-22.08,3-44.19,5.93-66.52,4-10.81-.92-21-3.78-26.82-14.57-2.28-4.21-5.49-7.93-8.44-11.75-4.81-6.24-10.25-8.34-16.4-6.53A16.6,16.6,0,0,0,545,368.22a61.72,61.72,0,0,0-.12,10c.84,10.6-3.71,18.86-10.36,26.63q-23.24,27.14-48.89,52c-10.38,10.06-21.46,19.41-32.24,29.06-1.59,1.42-3.9,2.54-5.23.65s1.27-3,2.54-4.15c7.87-6.91,15.85-13.7,23.21-21.17.77-.79,2.32-1.25,1.63-2.68-.58-1.21-2-1-3.15-1-9.64.05-19.31-.56-28.9,1-3.17.53-5.32,3.2-8.56,3.61-1.54.2-3.32,3.27-4.46.76-.93-2-3.64-4.51-1.2-7.24,2.07-2.31,2-5.23,2.53-7.95.57-3.18-.64-5.68-4.28-5.88a4.54,4.54,0,0,1-4.58-3.81c-.44-2.55,2.26-2.39,3.84-3,6.65-2.46,12.74,2.12,12.6,9.41-.21,10.55-.23,10.41,10,9.55a175.91,175.91,0,0,1,27.45,0c3.42.25,5.91-.51,8.32-3.23,4.19-4.72,8.91-9,13.47-13.37,2.11-2,2.14-3.59,0-5.8C482,415,464.65,399.59,441.37,392.9c-1.35-.39-3.37-.35-3.73-2.08-.41-2,1.69-2.75,2.88-3.67a69.89,69.89,0,0,1,31.79-13.58,10,10,0,0,0,5.82-2.49c10.3-10.14,23.59-13.87,37-17.38,1.73-.45,4.11-.21,4.75-2.13.59-1.76-1.87-1.95-2.81-3-3.47-3.94-3.64-8.54-2.51-13.18,1.48-6.12,6.63-8.57,12-10.13,4.06-1.18,8.29-2.39,12.67-.59,2.25.91,3-.95,3.06-2.72.09-6.83.25-13.67-.1-20.49-.16-3.27-2.12-1.95-3.65-.63q-9.28,7.95-18.59,15.86c-1.91,1.61-3.82,3.22-5.82,4.7-1,.78-2.39,1.77-3.58.51-1.4-1.48-.23-2.89.85-3.87q6.82-6.21,13.83-12.21c5-4.3,10.22-8.44,15.27-12.72,1.72-1.46,3.47-3,5.77-1.91s1.78,3.42,1.72,5.35c-.14,4.82-.49,9.63-.69,14.46C547.23,312.22,546.7,313.67,548.74,315Zm24-7.83a1.93,1.93,0,0,0-2.58.42c-5,4.64-10,9.24-15,13.95-5.9,5.63-5.91,5.7-2.33,12.81.81,1.61,1.72,3.21-.2,4.3s-3.34-.19-4.46-1.91c-5-7.84-12-10.37-20.69-7.49-4.78,1.58-8.23,4.7-8.5,10-.25,4.9,2.75,8,6.9,10.09a17.27,17.27,0,0,0,8.65,2.05,29.47,29.47,0,0,1,5.47.28c1.15.15,2.39.78,2.42,2.13s-1.37,1.9-2.46,2c-3.14.28-6.3.53-9.41-.4-2.34-.69-4.92-.88-6.63.94-5.95,6.33-11.37,12.93-12.3,22.2-1.12,11.11,5.3,18.46,12.08,25.69,1.6,1.72,3.44,1.42,5.18-.4,5.4-5.65,9.63-11.78,10.47-19.9a73.09,73.09,0,0,0,.33-13.46c-.68-8.39,3.35-14.18,9.87-18.3,7.33-4.63,15.71-6.34,24,.82,2.43,2.11,4.22,4.68,6.32,7,1.81,2,2.9,2,4.79.18a38,38,0,0,1,20.32-9.87c1.54-.25,3.77-1,4.33,1.11.65,2.5-1.88,2.23-3.33,2.6-6.52,1.69-12.53,4.27-17.62,8.89-2.7,2.44-3.19,4.48-1,7.67,3.49,5.07,7.88,8.62,13.95,9.64a130.55,130.55,0,0,0,17.78,2.25c13.3.39,26.51-1.44,39.75-2.45,3.06-.24,4-2.12,3.53-4.81-.32-1.77-.54-3.63-1.72-5.17-.77-1-2.12-2.2-.7-3.42s2.93-.48,4,.66c1.94,2,4,2,6.35.94,1.68-.76,4.16-1.36,5,.34,1.25,2.42-1.85,2.59-3.11,3.56-1.69,1.31-4.44,2.21-3.76,4.64.77,2.74,3.69,1.63,5.66,1.41a92.08,92.08,0,0,1,29.31.89c9.36,1.94,13,8.63,5.81,14.38-1,.82-2.28,2.37-.21,3a19.69,19.69,0,0,0,15.88-1.74c4-2.23,4-6.75,3.82-10.69a19.32,19.32,0,0,0-3.89-10.15c-.88-1.22-3.19-2.4-1.23-4,1.59-1.31,3.6-.34,4.82,1.19,2.94,3.67,6.28,2.44,9.41.7s5.93-5.19,4.61-8.56c-3.16-8.06.51-13.68,5-19.53,4.65-6.08,10.92-11,14.28-17.91,7.8-16,12.7-32.53,10.41-50.85a56.08,56.08,0,0,0-15.77-33.08c-3.14-3.26-4.84-3.4-6.24,1.24-.6,2-1.58,4.77-4.33,3.73-3.08-1.16-1.08-3.64-.42-5.53,2.3-6.62,2.29-6.53-3.78-10.16-11.34-6.78-24-9.73-36.69-12.39a19.47,19.47,0,0,0-10.81,1,67.52,67.52,0,0,0-27.63,19.13c-1.45,1.66-2.9,4.09-5.13,2-1.87-1.75.21-3.76,1.51-5.11,6.62-6.87,13.74-13.1,22.73-16.77,1.15-.47,2.71-.55,2.89-2.33a8.92,8.92,0,0,0-4.57-1.65c-6.11-.9-12.35-.29-18.4-1.06-13.68-1.74-24,2.56-31,14.62-.87,1.5-2.36,2.87-4.12,1.81-2.4-1.47-.54-3.37.34-4.69,1.89-2.81,4.13-5.39,7-9.06a77.58,77.58,0,0,0-19.94,6c-18.5,8.15-33,20.34-40,40A247.63,247.63,0,0,1,565.35,292c-3.79,7.4-6.66,15.25-11.24,22.27,1.93,1,2.38-.1,3.08-.75,5.6-5.21,11.2-10.42,16.86-15.57,1.2-1.1,2.53-2.46,4.36-1.15,1.43,1,1.36,2.5,1,4.07-2.64,12.52-5.21,25-7.87,37.56-.47,2.23-.85,5.23-4.09,4.44s-1.63-3.33-1.19-5.38C568.48,327.36,570.61,317.18,572.73,307.13ZM478.1,394.9c-.61,6.86-.23,13.17,6.34,17.61,6.22,4.19,11.41,9.67,16.57,15.08,2.38,2.5,4.06,2.89,6.44.17,3.94-4.5,8.12-8.8,12.15-13.22,4.28-4.7,4.24-4.71-.47-8.81-13.7-11.89-17.56-28.22-6.14-44.26.53-.75,1.78-1.37.9-2.47-.74-.92-1.92-.42-2.81-.15-7.64,2.36-15.2,5-22.07,9.14-5.66,3.44-9.27,8.11-10.2,15.09A105,105,0,0,0,478.1,394.9ZM654.67,209.63c2.11.19,3.06.32,4,.36,7.79.35,15.56,0,23.4.88,8.59.95,17.23,4,26,1.18,3.37-1.09,7.31.39,10.36-2.23a28.56,28.56,0,0,0-9.72-6.49c-15-5.71-29.94-5.55-44.68.74C661.14,205.33,657.94,206.43,654.67,209.63ZM617.4,455.13c-4.3-.46-10.15,6.8-8.62,10.89,2.25,6.05,4.69,12,7.08,18,.84,2.09,1.95,2.56,3.52.5,6-7.88,12.16-15.72,18.2-23.61,1.5-1.94,1.43-3.57-1.54-3.44A53.43,53.43,0,0,1,617.4,455.13Zm64-9c1-3.07-.93-5.83-.9-8.83,0-1.06.38-2.6-1.23-2.84-1.39-.21-1.83,1-2.33,2.13-1.91,4.3-4.21,8.95-8.29,10.93-9,4.36-10.55,11-8.12,19.68.34,1.2-.49,2.86,1.09,3.54s2.47-.61,3.39-1.51c3.69-3.61,7.53-7.08,10.92-10.94C678.9,454.9,682.81,451.67,681.37,446.16ZM474.18,380.47c0-3-1.61-3.08-3.7-2.61A72.46,72.46,0,0,0,448.55,387c-1,.59-2.4,1.11-2,2.45.21.71,1.46,1.26,2.36,1.58a92.53,92.53,0,0,1,16.18,7.61c2.22,1.32,4.44,4.51,6.8,3.34s-.15-4.36-.11-6.7A60.58,60.58,0,0,1,474.18,380.47Zm162.49,73.21c2.89,0,4.73.16,6.55,0,9.7-1,18.51-3.84,24.63-12.13.58-.77,1.66-1.45.93-2.52-.53-.78-1.48-.39-2.29-.15-11.66,3.35-23.57,5.51-35.49,7.65a35.73,35.73,0,0,0-7.55,2.49c-.84.37-2.55.69-2.1,2.28.32,1.14,1.61.88,2.54,1.1A39.42,39.42,0,0,0,636.67,453.68ZM733,216.14c-.84-.09-1.9-.15-2.14.73a4,4,0,0,0,1.66,4.35c3.73,2.37,7.65,4.44,11.54,6.53a2.12,2.12,0,0,0,1.77-.28c.63-.39.42-1.12.23-1.78C745,221.88,737.31,216.23,733,216.14ZM714.27,400.82c-2.2.13-4.9-.67-5.24,2.87-.15,1.52.44,2.9,2.13,2.55,2.89-.59,6.42-1.38,7.23-4.29C718.88,400.22,715.72,401.4,714.27,400.82Zm.25-184.39c2.58.8,5.15,1.61,7.74,2.38.8.24,1.8.37,2.17-.49.47-1.1-.42-1.89-1.27-2.37C720.45,214.41,717.58,214.86,714.52,216.43Z" transform="translate(-1 -1)"/><path d="M144.11,78.91A83.91,83.91,0,0,1,150,46.58c8.63-20.82,22.75-32.58,49.1-28.25,6,1,12,1.82,17.93,3.8,10.79,3.61,19,10.67,25,19.56,3.61,5.34,5,12.49,6,19.28,1.36,9.86-.13,19.54-1.85,29.19-1.09,6.07-1.41,12.23-2.31,18.29-2.74,18.4-13.52,31.28-30.69,37.27-20.65,7.21-40.51,4.2-57.37-10.58-8.1-7.11-11.38-17-11.65-27.7C143.94,98.88,144.11,90.32,144.11,78.91Zm33.78,22.57c0,5.17.09,10.25,1.62,15.3,1.93,6.37,7.26,10.92,13.28,10.7,5-.18,10.54-6.2,11.42-12.2,1-6.89,2-13.78,3.36-20.61,2.51-13.12,2.84-26.38,2.89-39.66,0-6-2.61-10.85-7.39-14.54-5.66-4.36-14.28-1-18,6.52-2.94,6-2.83,12.51-3.82,18.88C179.44,77.69,178.78,89.59,177.89,101.48Z" transform="translate(-1 -1)"/><path d="M850.63,200.77c-.3-5.88,1.07-11,2.42-16.18,1-3.71,1.77-7.47,1.17-11.33-.89-5.69-4.52-9.12-9.53-9.09-3.93,0-6.84,3.34-7.73,9s-1.65,11.51-2.6,17.24c-.79,4.73-1.71,9.44-2.72,14.13-1.06,5-4.1,7.66-8.85,6.42-6.31-1.63-12.76-2-19.09-3.29-4.34-.89-6-3.11-5.75-7.66.47-8.79,2.13-17.43,2.87-26.2.8-9.41.41-18.92,2.14-28.27,3-16.32,4.56-32.83,6.23-49.32.37-3.64,4.92-6.75,9-6,9.65,1.64,19.67.91,29,3.73,9.8,3,20.59,1.31,29.76,7.28,17.36,11.29,22,32.5,5.82,48.62a35.77,35.77,0,0,1-2.89,2.76c-3.34,2.62-3.26,5.18-.55,8.4,7.2,8.53,8.74,18.13,5.85,29-1.68,6.26-3.75,12.73-1,19.51,1.49,3.64-.56,6-4.49,6.42a61.62,61.62,0,0,1-22.68-2C850.42,211.93,850.25,206,850.63,200.77ZM862,129.22c0-5.4-4.41-10.87-9.69-12.25-1.85-.48-3.59-.27-4.45,1.25-4,7-7.25,14.16-6.25,22.52.23,1.92,1.18,2.85,3.17,3.16C853,145.17,862,137.57,862,129.22Z" transform="translate(-1 -1)"/><path d="M432.69,221.77c7.48-.15,8-1,9-8.71,1-7.22,2.5-14.38,3.89-21.54.58-3,3.05-3.77,5.66-4a46,46,0,0,1,15.83,1.61c4,1.09,5.28,4.45,4.53,7.8-1.39,6.23-.62,12.6-2.09,18.82-1.31,5.56,1.37,9.7,6.76,11.59a74.93,74.93,0,0,0,8.14,2.37c5.65,1.26,9.94-1.56,9.76-7.44-.25-8.62,2.93-16.7,3-25.26,0-3.75,2.08-7.05,7.17-7.14,5.81-.1,11.12,2,16.68,2.85,2.5.41,3.58,2.07,3.23,4.73-2.58,19.27-3.19,38.76-6.32,58-1,6.08-3.7,7.64-9.81,6.6-5.89-1-11.88-1.33-17.82-2-18.81-2-37.59-4.42-56.43-5.87-12.95-1-25.69-3.59-38.66-4.27-5.07-.27-8.14-3.81-7.5-9,1.36-11,3.07-22,5.45-32.9,1.52-6.93,1.46-14.19,2.48-21.24,1.05-7.29,4.06-9.12,11.45-7.69,4.37.85,8.84,1.2,12.94,3.28,2.92,1.47,4.36,3.57,3.88,6.76-.91,6.08-1.38,12.3-3.06,18.16C417.81,218,422.9,222.16,432.69,221.77Z" transform="translate(-1 -1)"/><path d="M588,98.74c-.14,12.74,1.63,24.16,1.1,35.65a7,7,0,0,0,.2,2c.68,2.81,1.87,6,4.71,6.4,3.25.47,3.36-3.17,3.93-5.42,2.6-10.46,4.74-21,7.59-31.42,2.28-8.35,4.16-16.77,6.16-25.17,2.49-10.45,6.62-13.23,17.17-11.39,5.56,1,11,2.41,16.71,2.6,3.94.13,6.12,2.74,3.87,6.45-4.26,7-5.49,15.19-9.14,22.49-3.08,6.17-4.41,13.19-6.84,19.71-3.4,9.11-6.73,18.29-9.76,27.49-3.16,9.58-7.43,18.79-9.83,28.63a33.77,33.77,0,0,1-2.76,7.44c-1.48,2.84-4,4.6-7.36,4.08-5.25-.81-10.65-.94-15.65-3-4-1.62-8.2-1.06-12.3-1.62-4.36-.6-7.33-1.92-8-7.07-2.17-17.08-4.69-34.13-7.46-51.1C558,111,556.43,96.58,555.43,82c-.28-4-2.33-7.93-3.25-12-1.28-5.56.27-7.42,5.86-7.58,7.52-.21,14.83,1.53,22.24,2.36,4,.45,6,3.31,6,6.82C586.12,81.17,589.18,90.45,588,98.74Z" transform="translate(-1 -1)"/><path d="M372.21,262.47c4.17,1.17,9.35,2.36,14.34,4.1,12.23,4.26,25.09,6.59,36.95,12a39.36,39.36,0,0,1,10.95,7.71c5.08,4.92,3.41,13-3.11,16.48s-13,6.67-20.81,5.8c-2.71-.3-5.42.69-4.91,4.06,1.09,7.13-3.75,10.59-8.37,14-3.25,2.41-6.37,4.63-8.09,8.51-1.57,3.54-4.34,4.18-8.24,3.41-7.4-1.45-14-5-21.24-7-6.16-1.73-6.79-6.29-2.06-10.72a83.27,83.27,0,0,1,9.56-7.95c2.7-1.87,4.32-4.12,3-7.06-1.41-3.14-5.05-3.39-7.81-3.07a18.06,18.06,0,0,0-8.69,3.3c-6.7,4.89-13.85,9.17-20.82,13.69a9.75,9.75,0,0,1-9.09,1.05c-6.66-2.52-13.31-5.1-19.81-8-3.71-1.66-3.52-6.25.25-8.73,9.72-6.39,19.54-12.64,29.28-19,9.46-6.19,19.16-12,28.06-19.05A15.42,15.42,0,0,1,372.21,262.47ZM387.6,296c3.24.56,6.28-.64,9.25-1.4,3.44-.87,4.23-3.45,2.18-6.52-1.94-2.91-9.71-5.67-13-4.67-4.38,1.35-9.81,6.3-8.78,8.47C379.32,296.18,383.73,295.71,387.6,296Z" transform="translate(-1 -1)"/><path d="M190.57,395.4c-3.82,4-6.75,3.42-9.78,1.8-1.76-.94-3.55-1.85-5.38-2.63-8.4-3.58-13.93-.19-18,7.93-4.93,9.86.88,16.39,8.33,21.55,2.58,1.8,5.51,3.09,8.25,4.66,6.11,3.48,12.06,7.14,15,15,3-6.15,4.06-4.14,6.23-.2,1.52,2.76,4.71,4.52,2.24,8.05a1.59,1.59,0,0,0,2.48-.24c1.6-1.61,2.85-1.19,4.09.47s1.49,3.5-.51,4.67c-4,2.37-3.19,4.64-.93,8.07A41.94,41.94,0,0,1,208.89,496c-.51,2.79-3.53,5-1,9.23-5.11-2.19-9-3.46-12.54-5.5-2.78-1.63-3.8-4.29-.34-6.63,2.13-1.44,2.09-3.46.3-4.45-7.61-4.2-6.45-11.27-6.4-18.05,0-.81-.07-1.62-.12-2.66-2.48.15-2.78,2.3-3.85,3.55-9.2,10.83-19,11.78-31.09,3.72a45.94,45.94,0,0,1-7.74-7c-2.31-2.47-2.89-5.63-.21-8s4.86-.23,6.88,1.7c3.73,3.56,7.57,7,12.81,8.26a9.24,9.24,0,0,0,3.92.38C179.07,468.8,185.45,454,180,446c-3.59-5.31-8.89-8.28-14.48-11-11.48-5.62-19.69-14.52-18.78-26.82.67-9,4.51-16.7,12-22.07,6.82-4.9,18.63-3.47,27.58,2.83,1.28.91,2.26,3.2,4,2.35,1.9-.94.78-3.32,1-5,.93-6.48,1.76-13,2.71-20.07,2.3,2.13.76,5.93,4.34,6.53.57.09-.77,1.49-1.27,2.28-5.35,8.63-1.54,20.72,6.87,26.49,4.73,3.25,5.26,1.32,7.18-2.23,3.67-6.78,8.13-13.31,16.13-15.34,9-2.29,18.43,2.21,23.78,11.72,12.47,22.2,13,53.3-2.3,75.28-8.39,12-24.59,11.73-32.21,1.58a61,61,0,0,1-12.2-32.09c-.57-6.34-3.84-10.93-8.43-14.7s-5-9.16-5.32-14.43C190.34,406.5,190.57,401.71,190.57,395.4Zm60.93,35.34c-.31-3.05-.28-6.44-1.05-9.64-2.1-8.71-3.95-17.61-10.84-24.2-4.78-4.58-9.64-4.57-14.54-.26a27,27,0,0,0-7.65,11.51c-5.39,15.13-4.75,30.45-.64,45.64A25.87,25.87,0,0,0,224.55,467c5.95,5.16,12.48,4.28,17-2.07C248.9,454.7,250.61,443,251.5,430.74Z" transform="translate(-1 -1)"/><path d="M893,726.46c-3-2.89-6.84.18-8.49-2.42s1.05-5.32,1.54-8.06c.45-2.52-.77-4-2.88-4.47-4.14-.86-6.31-3.92-7.76-7.19-3.11-7-7.49-13.24-8-21.64-.34-5.07-1.36-11.68-7.36-15.53-2.7-1.74-1.32-5.8,1.77-7.41,4.05-2.1,5-5.28,4.93-9.45q-.12-32.67.08-65.36a66.34,66.34,0,0,0-1.33-10.85c-1.52-9.53.35-19.16-1-28.7-.61-4.26-1.16-8.28-6.25-9.52a2.87,2.87,0,0,1-2.37-2.84c-.07-1.62,1.06-2.36,2.36-2.84a20.2,20.2,0,0,0,9-6.67c2.84-3.55,7-2.88,9.72.94,2.47,3.44,7.1,5.19,7.72,10.07.18,1.47,1.2,3.14.78,4.33-2.08,5.76-1.2,11.85-2.3,17.69-2.84,15.12-2.85,30.32-2.15,45.65.58,12.62,2.31,25.1,3.38,37.66.27,3.19,1.12,5.58,3.81,7.64s4.77,4.82,4.78,8.38C893.06,679,893,702.13,893,726.46Z" transform="translate(-1 -1)"/><path d="M460.68,712.58c-.88,3.89.69,7.78.62,11.77-.1,5.52-2,6.53-6.73,3.8A125.58,125.58,0,0,1,422,701.52c-.67-.77-1.34-1.63-2.42-1.57-6.33.31-9.33-4.74-13.56-8-5.63-4.36-10-10.15-16.58-13.52-3.7-1.89-6.63-5.37-9.76-8.29a118,118,0,0,0-14.12-11.86c-4.62-3.1-6.43-7.87-5.66-13.53.66-4.92,1.47-9.85,1.65-14.8.16-4.2-1.77-5-5.25-2.54-3.23,2.3-6.22,5-9.43,7.28a7.41,7.41,0,0,1-5.55,1.76c-4.51-.63-5.19-1.91-2.53-5.56,1.46-2,3-4,4.59-5.89.55-.68,1-1.4.65-2.26-.47-1.08-1.39-.48-2.15-.41-2.52.22-6,3.26-7.2-1-1.26-4.44,3.35-3.08,5.51-4.29,2.58-1.45,4.86-3.74,5.15-7a16.13,16.13,0,0,1,2.28-7.05c3.7-6.11,2.42-13.67,5.88-19.81.77-1.36.76-3.59,3-3.57s2.52,1.78,2.78,3.51c.13.86.55,1.72,1.61,1.36a2.31,2.31,0,0,0,1.23-1.38,8.76,8.76,0,0,0,0-4.92c-1.05-3.6-1.43-7.13.48-10.66.78-1.45,1.2-3.45-.09-4.74-2.7-2.71-.29-4.16,1.23-5.69,1.94-2,3.72-1.68,4.1,1.26.52,4,1.36,8,.89,11.89-1.22,10.18,5.74,16,11.66,21.92a74.89,74.89,0,0,0,18.27,13.66c1.36.7,2.9,1.86,2.13,3.46-.86,1.77-2.16.32-3.31-.26-2.24-1.14-4.54-.83-5.52,1.49s1,3.4,2.8,4.55c7.37,4.74,13.86,10.75,21.65,14.92,1.57.84,2.88,4,1.87,4.44-2,.8-5.48.92-6.79-.33-3.36-3.19-5.83-6.2-9.73-.73-.84,1.17-2.25,0-2.14-1.42.41-5.56-2.93-6.13-7.07-5.27-2.94.61-3.41-.76-3.52-3.18-.17-3.64-2-5.63-5.86-4.74-3.07.71-4.16-.83-4.78-3.52-.37-1.61.06-3.89-2.54-4.32s-2.82,1.63-3.41,3.33c-.28.8-.9,1.59-1.84,1.17-1.19-.53-1.35-1.78-1.6-2.94-.3-1.35.56-3.71-1.43-3.71s-1,2.38-1.4,3.69c-1.69,5.58.06,10.47,3,15.14,2.16,3.45.5,8.08,3.72,11.36.86.87-.94,1.73-2.19,1.76s-2.47.18-2.62,1.69.85,2.4,2.38,2.61c1.31.18,2.49.9,2,2.26-2.3,6.26,3,8.16,6.34,11,7.18,6.08,14.82,11.65,21.83,17.91,3.17,2.83,7,4.33,10.28,6.89s7.21,4.32,7.22,9.36c0,1.6.89,1.63,2.38,1.1,5.22-1.88,8.56-.32,10.17,4.92,1.19,3.88,3.65,6.27,6.73,8.84,4.27,3.56,8.94,6.63,13,10.43,3.52,3.27,5.33,2.69,6.31-2.05.6-2.92.67-5.95,1.12-8.91.15-1-.45-2.78,1.22-2.81s1.84,1.72,1.87,3C461,708.78,460.8,710.61,460.68,712.58ZM359.26,592.39c-.15-.66.14-1.65-.89-1.94a1.39,1.39,0,0,0-1.23.47,32.91,32.91,0,0,0-2.94,5.68c-.46,1.37-.28,3.26,1.72,3.47,1.81.2,1.81-1.49,2.08-2.79C358.35,595.68,358.82,594.1,359.26,592.39Zm28.26,16.12c1.55.12,2-1,2-2.15,0-2.36-1.42-3.56-3.62-3.8-1.23-.14-2.54.33-2.25,1.82C384.08,606.42,385.62,607.69,387.52,608.51Z" transform="translate(-1 -1)"/><path d="M616.42,550.64c0,12.83,0,25.65,0,38.48a38.54,38.54,0,0,1-.54,5.45c-.28,2-1.18,3.68-3.35,3.74a4.66,4.66,0,0,1-4.88-3.54,17.28,17.28,0,0,1-.31-4.45c0-15.33,0-30.65-.08-46,0-1.55.77-3.88-1.2-4.39-2.18-.57-2.34,2-2.9,3.37-3.9,9.35-7.62,18.77-11.39,28.18a17.61,17.61,0,0,1-.77,2.36c-1.7,2.94-2.57,7.22-6.84,7.08s-5-4.24-6.24-7.47c-3.61-9.47-7.15-19-10.92-28.36-.59-1.46-1.12-4.19-3.5-3.45-2.05.64-1.54,3-1.54,4.85q0,21.48,0,43a23.49,23.49,0,0,1-.47,5.44c-.59,2.33-2.24,3.79-4.8,3.38a3.91,3.91,0,0,1-3.56-4.14c-.14-15.09-1.36-30.11-.71-45.28.37-8.41,1.82-17,.24-25.69-.83-4.52.57-9.41-.21-14.23a4.64,4.64,0,0,1,3.49-5.39c3.16-.7,5.31.84,6.45,3.47,2.51,5.77,4.78,11.65,7,17.52,4.08,10.54,8.07,21.13,12.16,31.67.56,1.43.54,3.73,2.77,3.57,2-.16,2.91-2.06,3.58-3.8,3.87-10.06,7.67-20.16,11.58-30.21,2.29-5.89,4.72-11.72,7.09-17.58,1.21-3,3-5.52,6.65-4.64,3.41.81,3.1,4.07,3.13,6.6C616.49,523.66,616.42,537.15,616.42,550.64Z" transform="translate(-1 -1)"/><path d="M264.51,597c-3.14-2.86-5.3-3.64-8.06-1.85-3.11,2-4.67-1.42-6.89-2.51-1.23-.6-2.38-2.56-3.78-.76-1.15,1.48.12,2.79,1.27,3.82.62.55,1.39.95,2,1.54,1.18,1.21,2.59,2.75,1,4.27s-2.1-.8-3.09-1.43c-1.26-.81-2.38-2-3.75-2.45-5.34-1.68-5.23-6.25-4.76-10.13a130,130,0,0,0,.64-21.87c-.61-12.49.09-25,.58-37.41s3-24.61,3.39-37c.06-2.19,1.1-4.23,3.44-4.12,2.78.12,1.76,2.45,1.77,4.23,0,6,1.72,11.43,7.08,14.86,1.77,1.13,1.68,1.78.25,2.83s-1.21,2.28-.36,3.47a3.85,3.85,0,0,0,4,1.49,3,3,0,0,0,2.6-3.18c.05-2-1.35-5.05,1.33-5.6,3.09-.62,2.78,3.08,3.86,4.92,3.24,5.49,2.81,11.44,2.35,17.5-.18,2.45-1.92,6.87,4.35,5.6,1.34-.27,4,4.25,5.47,6.87,1,1.71-1.6,1.59-2.3,2.56-2,2.78-2.47,5.53.72,7.73,5.21,3.59,10.17,8.66,17.25,3.59a1.3,1.3,0,0,1,2.07.55,2.8,2.8,0,0,1-.24,2.33c-1.83,1.92-3.83,3.89-6.84,2.58a10.86,10.86,0,0,0-3.22-1.15c-9.48-1-10.25-.34-10.21,9.21a29.64,29.64,0,0,0,1.17,9.29c.89,2.68.75,5.87-2.59,7.79-2.82,1.63-2.78,4.69-2.86,7.55,0,1.09.38,2.64-1.34,2.68s-1.83-1.44-1.57-2.56c1.35-5.76-2.21-11.43-.21-17.2.26-.75.15-1.79-.92-1.91s-1.3.93-1.28,1.71c.13,3.73-2,7.14-.54,11.24C267.46,589.27,263.51,592.24,264.51,597Zm-19-51.62c0,.86,0,1.52,0,2.19-.19,2.55-.26,5.7,2.17,6.65s4.18-1.53,5.57-3.77c1.54-2.49,3.23-2.16,4.94.31,1.89,2.73,3.88,1.52,5.74-.38s1.79-3.34,0-5.83c-3.54-4.84-9.87-6-13.13-11.11-1-1.61-2.91-2.5-3.56.86C246.51,538,245.14,541.67,245.55,545.38Zm-.82,26.81c-.54,2.81,1.24,5.46,2.91,8.14,1.09,1.74,2.46,3.71,4.69,2.26s1.43-3.62,0-5.56c-2.72-3.68-6.16-7.14-3.6-12.48a2.14,2.14,0,0,0-1.84-2.94c-1.67-.12-1.43,1.47-1.53,2.56C245.13,566.63,245,569.11,244.73,572.19Zm28.12-31.46c-.3-.86-.39-2.51-2.18-2.32-1.37.15-1.53,1.58-1.64,2.74-.13,1.37.49,2.26,2,2.26S273,542.48,272.85,540.73Z" transform="translate(-1 -1)"/><path d="M405.54,550.21q0-20.75,0-41.5c0-2.53-.29-5,3.28-5.65,3.26-.57,4.92.83,6.15,3.65,5.48,12.65,10.49,25.49,15.31,38.41,1.68,4.5,3.63,8.9,5.5,13.33.44,1,.69,2.41,2.15,2.42s1.87-1.22,2.29-2.31q8.76-22.53,17.52-45a64,64,0,0,1,3.53-7.72,4.84,4.84,0,0,1,5.59-2.35c2.65.54,2.55,2.68,2.55,4.72q0,42.24,0,84.49c0,2.89-.35,5.59-3.93,5.79s-4.5-2.76-4.6-5.39c-.3-8-.34-16-.25-24,.1-8.65-.54-17.32.38-26a15.08,15.08,0,0,0-.28-3c-.09-.83-.15-1.77-1.21-1.87s-1.38.73-1.73,1.51c-.89,2-1.86,3.9-2.66,5.91q-6.06,15.29-12,30.6c-.95,2.4-2.2,4.76-5.08,4.9-3.22.16-4.61-2.47-5.58-4.95-4.24-10.85-8.33-21.76-12.47-32.66a19.14,19.14,0,0,0-1-2.8c-.7-1.23-.67-3.56-2.46-3.32-2.07.27-1.83,2.59-1.84,4.14-.08,14-.06,28-.07,42,0,3.5.05,7-.09,10.5-.08,2.12,0,4.65-3.21,4.61-3,0-5.34-1.21-5.58-4.49s-.12-6.66-.12-10Q405.54,567.2,405.54,550.21Z" transform="translate(-1 -1)"/><path d="M348.29,383.28c11-1.16,19.56,3.85,24.69,14.37,5.66,11.62,3.12,25.21-6.5,33.57-3.32,2.88-3.78,5.23-1.82,8.95,5.29,10,8.12,21,12.82,31.27a7,7,0,0,1,.43,1.94c.4,2.84.12,5.57-3.05,6.54s-4.43-1.55-5.53-3.77c-3.63-7.32-6.26-15-9.12-22.68-1.63-4.35-3.19-8.75-5.06-13-1.55-3.52-4.67-4.76-8.26-3.83s-3.69,3.59-3.37,7.06c1,10.62.07,21.27-.55,31.89a4.43,4.43,0,0,1-4.18,4.26c-2.63.34-3.94-1.52-4.44-3.81a21.45,21.45,0,0,1-.28-4.47c0-12,0-24-.06-36,0-2.62,1.2-5.76-2.34-7.44a1.19,1.19,0,0,1,.11-2.08c3.31-1.58,2.2-4.54,2.23-7,.1-8.83,0-17.66.05-26.49,0-7.78,1.49-9.21,9.42-9.26Zm-3.77,28.9c1.86-2.64,3-4.43,4.32-6,.75-.91,2.81-1.43,2.65-.07-.41,3.46.28,6.78.22,10.07,0,1.76-1.06,4.32-1.71,6.49-.78,2.59-4.15,1.57-5.28,3.79a17.16,17.16,0,0,0,18.15-4.92c4.19-5,5-13.9,1.73-19.72s-11.26-10.06-17-9.26c-2.54.35-4.41,1.87-4.27,4.07C343.63,401.43,342.71,406.4,344.52,412.18Z" transform="translate(-1 -1)"/><path d="M277.19,432.06q0-20.47,0-41c0-6,1.6-7.94,7.55-7.76,7,.21,14.25-1.3,20.91,2.76,15.62,9.54,18.47,30.78,5.34,43.59-3.71,3.62-5,6.38-2.63,11.52,4.2,9,7.4,18.53,11,27.84.54,1.39.92,2.85,1.47,4.24,1.22,3.07.18,5.42-2.73,6.43s-5-.78-5.95-3.28c-4.06-10.35-8.09-20.72-11.84-31.19-1.6-4.47-3.23-8.47-8.77-8.8-3.62-.22-5.6,1-5.49,5.12.26,9.48.21,19,.28,28.46a18.44,18.44,0,0,1-.07,3.49c-.55,2.9-.68,6.6-4.83,6.29-3.92-.29-4.12-3.62-4.11-6.79,0-13.66,0-27.31,0-41Zm16-4.56c5-.62,9.64-2.44,13.36-8.74,5.55-9.4,2.66-21.21-7.79-24.52-1.71-.55-3.61-.47-5.36-.92-5.26-1.36-7-.12-7.11,5.28-.12,7.47-.05,14.95-.35,22.42C285.77,426.43,286.62,427.59,293.23,427.5Z" transform="translate(-1 -1)"/><path d="M539.19,548.87c0,14.69-2.31,26.74-9.18,37.68s-15.65,14.9-25.95,11.05c-6.67-2.48-11.42-8-14.27-14-10.23-21.82-10.56-44.11.31-65.75,4.27-8.5,10.83-15.69,22-15.32a15.34,15.34,0,0,1,8.73,3.07c10.7,7.61,14.75,18.8,17.19,30.95C538.94,541.25,539.5,546,539.19,548.87Zm-9.77,4.33c0-1.66.05-3.33,0-5-.37-11.14-2.33-21.89-9.66-30.74-5-6-12.78-7.17-18.61.89-5.19,7.19-7.32,15.13-8.39,23.61-1.89,14.91-.29,29.1,8.87,41.66,5.32,7.29,13.15,7.22,18.58,0C527,574.57,529.49,564.29,529.42,553.2Z" transform="translate(-1 -1)"/><path d="M402.06,455.65c0-4.83-.34-9.68.09-14.47.49-5.56-2.15-9.95-4.31-14.59-1.16-2.47-2.51-2.14-4.12-.39a89.21,89.21,0,0,0-10,14.13c-1.18,1.92-2,3-4.41,3-2.68,0-5.44-.74-7.78,2-1.5,1.77-2.06-.57-2.17-1.75-.37-3.9,2.56-6.25,4.52-9A113.49,113.49,0,0,1,385,421.35c1.37-1.42,2.85-2.89,2-5.25-.3-.83-.14-2,.75-2.09,5.44-.86,2.36-3.94,1.44-6-2.5-5.6-5.32-11.06-8-16.58-.22-.44-.45-1.16-.77-1.23-2.42-.47-5.18-3.08-2.72-3.68,3.06-.75,5.52-5.16,9.46-2.46a9.41,9.41,0,0,1,3.31,4.21c4.5,10,9.08,19.93,13.61,29.9.65,1.45,1.4,2.79,3.19,2.67s2.07-1.86,2.6-3.23c3.88-10.07,8.65-19.73,13.42-29.4.36-.74.91-1.39,1.34-2.1,1.64-2.73,3.94-2.75,6.46-1.47s2.29,3.41,1.32,5.55c-3.14,7-5.94,14.14-9.59,20.84-7.73,14.2-13.65,28.7-11.31,45.38a59.12,59.12,0,0,1,.06,8c0,2.21-.05,4.42,3.15,2.23,1-.71,2.31-.92,2.83.65.46,1.39-.57,2.3-1.64,2.71a7.27,7.27,0,0,0-4.94,6.2c-.38,2.18-1.76,4.2-4.49,3.67s-4.41-2.22-4.41-5.21q0-9.48,0-19Z" transform="translate(-1 -1)"/><path d="M893,811.23l-6.12-7.4c-1,4.68-.38,8.22,2.09,11.68,4.26,6,4.11,15.35,0,21.43-.56.82-1.1,1.66-1.58,2.53-2.72,5-2.72,5-7.12,1.23-2.32,5-3.51,10-1.5,15.31.59,1.55,1.49,3.26-.15,4.59-1.37,1.12-2.9.3-4.2-.43a4.86,4.86,0,0,0-5.53,0c-3,1.75-4.18-.56-4-2.93,1-11.78-1.46-23.51-.36-35.29.3-3.24.43-5.65,4.67-6.19,3.8-.47,4.93-4.1,5.56-7.49.27-1.46,0-3,.33-4.46.64-2.67,1.52-5.13,5-2.33,1.44,1.17,3.52,1.89,5,.48s-.32-2.75-.9-4c-.72-1.58-1.51-3.06,0-4.56,2.17-2.12,4.42,0,6.64-.08,1.75-.09,2.24,1,2.23,2.56C893,800.48,893,805.1,893,811.23Zm-14.2,19.64h1.45c1.19-5.43,2.45-10.84,3.56-16.29.49-2.43-.75-4.53-1.82-6.58-1.16-2.24-2.33-2.16-3.3.16-.5,1.22-1.56,2.63-1.29,3.68C879,818.07,878.86,824.47,878.81,830.87Z" transform="translate(-1 -1)"/><path d="M820.72,712.23c1.9,10.75-.19,21.16-2.17,31.61-1.52,8,.19,16,1.93,23.73,3.23,14.38,3.45,29,3.92,43.59,0,1.38.4,3.29-1.77,3.52-1.83.19-2.31-1.44-3.14-2.71-3.47-5.32-4.23-12.44-10.52-15.92a1.56,1.56,0,0,1-.51-2.22c3.93-6,1.76-12.73,1.85-19,.13-10.48,1.48-20.88,1.38-31.35-.05-5.9-.7-11.57-3.32-16.91-.75-1.54-1.32-3.3-.2-4.76,3.13-4.07,6.42-8,9.69-12a1.8,1.8,0,0,1,2.23-.61C821.43,709.86,821.23,711.09,820.72,712.23Z" transform="translate(-1 -1)"/><path d="M783.12,717.35a24.07,24.07,0,0,1-4.5,13.84c-2.5,3.75-2.88,7.11,0,10.94,2.7,3.6,5.24,7.51,2.63,12.38a1.8,1.8,0,0,0-.09,1.45c3.91,7.44.09,15.73,2.59,23.34a4.14,4.14,0,0,1-2.23,5.47c-2.83,1.35-3.13,3-.44,4.65,3,1.83,1.57,4.82,2.23,7.24a69,69,0,0,1,2.32,15.26c0,1.12.36,2.49-1.1,3a2.69,2.69,0,0,1-3.4-1.37c-5.72-10.26-12.46-20.08-9.87-33,1-4.88-.57-10.07.14-15.27,1.39-10.15,1-20.43.28-30.66-.15-2.33-.19-4.59-1.35-6.77-1.87-3.5.5-6.54,1.89-9.35s3.68-5.13,5.82-7.44,3.91-2.91,4.3,1.25C782.51,714.23,782.93,716.18,783.12,717.35Z" transform="translate(-1 -1)"/><path d="M733.89,734.25c1.54-3.63-.27-6-3.54-7.87-2.66-1.55-2.85-3.67-1.06-6.3,3.28-4.79,4.92-9.43,3.21-15.9s-.5-13.54-.42-20.35c.06-4.06-.21-8-2.41-11.53-.54-.88-.89-2,.1-2.69s1.81.27,2.34,1.13c1.26,2,3.26,3.26,4.93,4.85,3.13,3,5.22,6.22,5,11.27-.32,6.49,3.12,12.78,2.2,19.56-.29,2.14,0,4.45-1.34,6.21-3.83,4.89-3.24,11.42-6.38,16.62-1.48,2.46,1,5.45.46,8.29-.25,1.38.32,3.72-1.52,3.68-2,0-1-2.37-1.28-3.71A29,29,0,0,1,733.89,734.25Z" transform="translate(-1 -1)"/><path d="M573.75,664.78c-2.09,9-3.93,17.67-8.61,26.13-5,9-12,17.14-14.42,27.53a9.33,9.33,0,0,1-1.85,3.45c-1,1.22-2.33,2.2-3.82.81s-.91-2.73.57-3.71,3-2.08,2.2-4c-1.05-2.58-2.71-.46-4.13-.2s-2.68,0-3.27-1.53c-.72-1.81.18-2.69,1.81-3.39,4.28-1.81,8.65-3.59,10.87-8.12,1.71-3.48,1.59-7.57,4.54-10.79,1.62-1.77-.3-3.56-2.9-3.54-4.11,0-3.73-1.57-1.49-4,4.42-4.84,9.43-9.17,11.62-15.78.67-2,3-3.5,4.57-5.18.81-.83,1.87-1.73,3-1.12A2.82,2.82,0,0,1,573.75,664.78Z" transform="translate(-1 -1)"/><path d="M469.34,661.07c-2.91,6.52-2.73,14.45-4.24,22.06-.48,2.42-.48,4.94-.77,7.4-.13,1-.64,2-1.86,1.93-1,0-1.4-.76-1.71-1.56a9.34,9.34,0,0,1-.57-5.36c1.24-6.34,2.4-12.7,3.55-19,.52-2.85.35-5.08-3.33-5.93-4.13-1-6-5.79-10.67-6.62-1.68-.3-2.82-3.75-2.45-6.55.34-2.53-.54-3.9-3.46-2.36-2.39,1.26-5.33,1.3-6.6-1.19a9.74,9.74,0,0,1,.31-9.12,2.4,2.4,0,0,1,4.21,0c1.92,3.73,5.64,4.57,8.68,6.64,6,4.06,11.37,9,17.08,13.49C469.37,656.34,469.42,658.22,469.34,661.07Z" transform="translate(-1 -1)"/><path d="M437.73,476.41c.46,7.66,1.19,15.27,4.83,22.27.63,1.2,1.53,2.33.18,3.53a2.47,2.47,0,0,1-3.23,0c-1.69-1.19-2.91-1.33-4.8.09-2.9,2.16-5.76.34-8.16-1.47-1.82-1.37-.3-2.48.72-3.63,1.29-1.46,3.16-3.48.84-5-2-1.29-4.79-2.81-6.85.67s-5.08,5.67-9.48,5c-.9-.13-2.12.53-2.58-.76a2.15,2.15,0,0,1,1.16-2.53c3.64-2.14,6-5.79,9.43-8.05a55.24,55.24,0,0,0,12.94-12.16,3.43,3.43,0,0,1,3.92-1.45C438.2,473.49,438.08,475,437.73,476.41Z" transform="translate(-1 -1)"/><path d="M834.15,767.86c-.79,4.3,1.46,8.1,3.42,11.95,1.59,3.12,2.36,6-1.52,8.05-.91.48-1.73,1.18-1.39,2.35s1.46.95,2.46,1c2.93.2,3.45,2.07,2.9,4.56-1.41,6.28-5.94,11.05-8.2,17-.83,2.19-2.77,2-4-.41a12.14,12.14,0,0,1-.91-6.85c1.6-13.39,1.85-26.84,2.11-40.3,0-1.89-1.7-5.48,2-5.4,2.92.05,3.63,2.94,3.08,5.76A14.42,14.42,0,0,0,834.15,767.86Z" transform="translate(-1 -1)"/><path d="M389.76,522.27c-.27,1-.17,3.62-1.41,4.66-4.79,4-7.68,9.94-13.39,12.93a23.35,23.35,0,0,0-9.49,9.75c-1.69,3-5.15,3.61-7.62,5.52a45.47,45.47,0,0,1-14.76,7.64c-.66.19-1.26.42-1.78-.21a1.72,1.72,0,0,1-.09-2.28,7.82,7.82,0,0,1,2.37-1.71c9.62-4.92,15.56-13.78,23-21,6.39-6.21,13.13-12,18.22-19.41a2.46,2.46,0,0,1,3-1.09C389.17,517.47,389.73,518.78,389.76,522.27Z" transform="translate(-1 -1)"/><path d="M748.33,697.39c-3.26-11.46,5.75-15.91,12.08-21.62,2.68-2.42,3.34.76,3.32,2.64-.07,5.13-.56,10.26-.67,15.39-.06,3-.57,6,.68,8.89.33.74.57,1.69-.4,2.15a1.66,1.66,0,0,1-2.14-.8c-1-1.55-1.67-3.24-2.65-4.76-1.29-2-3-4.24-5.56-2.78-2.42,1.37-1.39,4-.28,5.78a129.17,129.17,0,0,1,6.79,12.65c.57,1.23,1.7,2.46.35,3.53-1.52,1.21-3.06.11-3.75-1.21C752.77,710.8,745.68,705.83,748.33,697.39Z" transform="translate(-1 -1)"/><path d="M583.14,615.91A156.48,156.48,0,0,1,579.92,634c-1.83,8.58-7.13,15.07-11.71,22-2.46,3.72-5.46,7.07-8.25,10.56-.5.64-1.14,1.39-2.08.91s-.87-1.36-.6-2.17c1-3.08,3.12-6.1.33-9.35a1.44,1.44,0,0,1,.39-1.28c4.82-2.18,6.59-6.78,7.09-11.17,1-9.25,10-12.82,13.43-20.29A24.88,24.88,0,0,1,583.14,615.91Z" transform="translate(-1 -1)"/><path d="M544.25,654c-2,8.87-2.75,17.36-5.63,25.28-1,2.68-.78,5.66-2.31,8.05-1,1.49-2.11,4.5-4.23,2.87s-5.89-2.68-4.59-6.78A139.14,139.14,0,0,0,533,659.88c.2-1.52.7-2.61,2.18-2.91,2.35-.46,4.46-1.13,5.72-3.43a1.84,1.84,0,0,1,2.2-.76A1.51,1.51,0,0,1,544.25,654Z" transform="translate(-1 -1)"/><path d="M809.86,833.13c.18-7.8-1.64-15.6,0-23.4.27-1.25-.11-2.9,1.67-3.21,1.42-.24,1.86,1.16,2.55,2.05,1.82,2.36,3.82,4.61,5.41,7.12,3.52,5.58,4.76,11.19.1,17-2.17,2.7-3.75,5.88-5.65,8.81-.61.93-1.14,2.32-2.57,2-1.65-.43-1.48-2-1.51-3.32C809.82,837.79,809.86,835.46,809.86,833.13Z" transform="translate(-1 -1)"/><path d="M531.65,707.08A107.41,107.41,0,0,1,525.44,734a20.62,20.62,0,0,1-3.86,5.74c-1.22,1.47-3.09,2.4-4.84,1.25s-.79-3.13,0-4.49c3.16-5.84,4-12.26,5-18.66a17.65,17.65,0,0,0,.21-5.92c-1-5,.75-7.18,5.78-8.29C531.54,702.75,532.1,703.91,531.65,707.08Z" transform="translate(-1 -1)"/><path d="M803.11,790c-.15,1,0,2.28-.51,2.88-5,5.38-6.05,12.47-8.52,18.95-.66,1.72-1.27,4.58-3.75,3.83-2.26-.68-1.9-3.64-1.27-5.28,2.44-6.32,5.31-12.36,1.67-19.31-.74-1.41.09-4.06.95-5.76,1.33-2.62,2.38-4.88.59-7.75-.59-.94-.81-2.94.91-3.35s1.77,1.48,1.72,2.41c-.24,3.64,2,5.28,4.78,6.68S803.31,787,803.11,790Z" transform="translate(-1 -1)"/><path d="M411.09,638.05c1.4-.12,1.65.63,1.84,1.49,1.13,5.34,4.42,8.4,9.77,9.44,1.73.34,2,2.16,2.43,3.51,1.15,4-2,6.22-4.3,8.22s-4.68-.22-5.85-2.13c-2.22-3.63-6.07-5.11-9-7.76s-4.35-5.12.08-7.73C408.18,641.83,409,639,411.09,638.05Z" transform="translate(-1 -1)"/><path d="M829.27,703.73c8.24,8.66,9.54,15.48,5.21,25.08-1.09,2.4-1.79,5-2.66,7.47-.33.93-.56,2.07-1.9,1.8-1-.21-.87-1.25-1.09-2-1.53-5.58-1.18-11.34-.54-16.87C828.87,714.15,828.53,709.05,829.27,703.73Z" transform="translate(-1 -1)"/><path d="M192.91,593.4c6.79.88,13.44.33,20.08.51,1.81.05,4.52.22,4.59,1.93.1,2.53-1.59,5.11-3.61,6.72-1.61,1.28-2.86-.67-4-1.84-4-4-10.83-4.69-15.28-1.39-1.63,1.21-2.89,1.44-4.44.32-4.93-3.57-10.4-4-16.15-2.75-1.56.35-3.44.51-3.67-1.28s1.76-2.11,3.27-2A140.12,140.12,0,0,0,192.91,593.4Z" transform="translate(-1 -1)"/><path d="M803,682.66c.7,3.41-.58,6.82-2.44,10-1.52,2.61-1.75,4.88.66,7.1,1.81,1.66,1.86,4.18,2.67,6.32a1.87,1.87,0,0,1-.67,1.62c-.66.48-1.35-.14-1.6-.7-2.63-5.77-7.52-10.19-9.74-16.14-1.3-3.48,5-13.55,8.74-14.55,1.84-.51,2.43.21,2.39,1.92C803,679.58,803,680.91,803,682.66Z" transform="translate(-1 -1)"/><path d="M722.71,704.64c-4-3.78-7.21-8.39-10.4-12.95-1.76-2.51.15-8.05,3-9,3.71-1.25,6,1.31,6.49,4.29.8,5.14.1,10.49,2.17,15.49A1.73,1.73,0,0,1,722.71,704.64Z" transform="translate(-1 -1)"/><path d="M792.55,702.86a10.94,10.94,0,0,0,.51,1.5c1.89,4,5,7.33,6.71,11.51,1.53,3.74,0,6.36-3.12,7.64C793,725,791.46,722,791,719.13c-.72-4.21-.87-8.51-1.17-12.78C789.72,705,789.92,703.71,792.55,702.86Z" transform="translate(-1 -1)"/><path d="M279.16,336.08c2.12-.14,4,.19,5.07,2.34,1.19,2.48-1,3.09-2.36,4.18-1.71,1.37-1.3,3.26-1.18,5.08.07.94.62,2.05-.46,2.72a2.39,2.39,0,0,1-2.78-.48,28.89,28.89,0,0,1-6.86-8.45c-.92-1.6.31-2.38,1.58-3.05C274.38,337.24,276.52,335.91,279.16,336.08Z" transform="translate(-1 -1)"/><path d="M813.1,697.9c-2.08-6.68-2.68-13.38-3-20.12,0-1.12.32-2.46,1.78-2.66,2-.27,3,1.21,3.93,2.58C819.78,683.6,818.68,692.19,813.1,697.9Z" transform="translate(-1 -1)"/><path d="M892.72,837.39v21.85c-2.61-1.11-4.86-2-7.08-3-2.46-1.12-1.58-3-.8-4.61,2.34-4.87,4.78-9.68,7.19-14.51Z" transform="translate(-1 -1)"/><path d="M220.2,595.89c3.39-.83,5.21-1.43,7.08-1.69a6.17,6.17,0,0,1,6.8,6.38c-.06,2.82-.29,5.62,1.79,8a1.77,1.77,0,0,1,0,2.66c-1.26,1-2.09-.05-2.87-.91a2.31,2.31,0,0,1-.57-.8C230.72,603.48,227.57,598.56,220.2,595.89Z" transform="translate(-1 -1)"/><path d="M745.53,750.5c.6-3.28,1.17-6.56,1.81-9.82.2-1,.75-1.91,1.95-1.93.9,0,1.4.6,1.89,1.36,2.05,3.18,1.6,11.35-.87,14.19-.83,1-2,1.57-3.08,1.05C745.13,754.38,745.79,752.24,745.53,750.5Z" transform="translate(-1 -1)"/><path d="M781.75,665.11c-.42,1.83.23,4.45-2.16,5.11s-3-2.07-4.22-3.5a4.72,4.72,0,0,1-.68-1.32c-.86-2.33-3.77-4.34-1.43-7.18,1.14-1.39,2.88-.77,4.15-.08C780.1,659.6,782.61,661.33,781.75,665.11Z" transform="translate(-1 -1)"/><path d="M755.52,666.44a24.92,24.92,0,0,1-2.27,8.8c-.61,1.14-.86,2.65-2.62,2.39-1.34-.2-1.69-1.45-2.09-2.52-1-2.73,1.8-10.44,4.29-11.93.77-.47,1.51-.74,2.26-.19C756.07,663.7,755.65,664.76,755.52,666.44Z" transform="translate(-1 -1)"/><path d="M693.21,675.36c3.85,3.41,5.06,11.65,2.58,15.64-.46.73-1,1.38-1.94,1.25s-1.17-1-1.41-1.82C692,689,692.5,678.15,693.21,675.36Z" transform="translate(-1 -1)"/><path d="M770.45,677.17c.33-1.41-.72-3.56,1.07-4,2-.46,2.46,1.8,3,3.24,1,2.94,2.52,5.77,2.25,9.05-.13,1.55-.22,3.14-2,3.62-2.34.65-2.14-1.65-2.57-2.77a39.75,39.75,0,0,1-1.48-6.25A29.2,29.2,0,0,1,770.45,677.17Z" transform="translate(-1 -1)"/><path d="M318,550.44c.81,0,7.38,7.23,7.25,7.83a3.74,3.74,0,0,1-.58,1.24c-2.53-.83-5.34-1.31-7.44-2.79-1.72-1.2-.91-3.67-.2-5.56C317.19,550.8,317.78,550.61,318,550.44Z" transform="translate(-1 -1)"/><path d="M713.2,707.52c3.23,2.44,6.15,4.09,4.86,8.23-.31,1,.4,2.63-1.24,2.71-.72,0-1.58-1-2.22-1.68C712.34,714.31,712.93,711.34,713.2,707.52Z" transform="translate(-1 -1)"/><path d="M830.75,689.84a1.25,1.25,0,0,1-1.52-.88,2.16,2.16,0,0,1,.69-2.67c2.64-1.37,4-3.75,5.39-6.13a1.75,1.75,0,0,1,2.05-1c.95.28,1.09,1.12,1,2C838.34,682.37,831.83,689.73,830.75,689.84Z" transform="translate(-1 -1)"/><path d="M427.28,662.78c.51-2-.58-5.1,2.68-5.46,1.77-.19,1.31,2,1.19,3.18-.26,2.36.35,5.74-2.42,6.34C426.77,667.28,427.55,664.37,427.28,662.78Z" transform="translate(-1 -1)"/><path d="M756.48,748.81a9.86,9.86,0,0,1-2.21-8.19c.15-1,.21-2.17,1.58-2.07,1.2.09,1.58,1.21,1.63,2.19A17.83,17.83,0,0,1,756.48,748.81Z" transform="translate(-1 -1)"/><path d="M695.43,702c-.35,2.24-.69,4.82-3.27,5.57-1.44.41-1.72-1.36-1.45-2.49.56-2.36.86-5.21,3.57-6C695.43,698.81,695.45,700.79,695.43,702Z" transform="translate(-1 -1)"/><path d="M790.52,667.89c.34-1.53-.67-4,1.51-4.17,2.37-.18,2.39,2.23,2.33,4s-.23,4.45-2.16,4.46C789.59,672.21,791,669.4,790.52,667.89Z" transform="translate(-1 -1)"/><path d="M857.07,713.18c-.19,2.17-.24,4.3-2.64,4.5-1.72.15-1.35-1.56-1.36-2.63,0-2,.58-3.95,2.68-4.23C857.4,710.6,856.84,712.46,857.07,713.18Z" transform="translate(-1 -1)"/><path d="M828.76,675.76c-1.15-3.42.65-5.7.35-8.17-.11-.85.29-1.77,1.3-1.72a1.64,1.64,0,0,1,1.43,1.75A10.42,10.42,0,0,1,828.76,675.76Z" transform="translate(-1 -1)"/><path d="M8.32,12.21c1.46-.06,2.07.79,2.13,2.09.07,1.5.08,3.15-1.84,3.46-1.56.24-2.37-1-2.61-2.33C5.71,13.68,6.78,12.73,8.32,12.21Z" transform="translate(-1 -1)"/><path d="M407.14,613c0,1.54-.64,2.33-2,2.35a2.57,2.57,0,0,1-2.74-2.31c-.24-1.41.67-2.1,2-2.11A2.44,2.44,0,0,1,407.14,613Z" transform="translate(-1 -1)"/><path d="M574.07,658.69c-.6-.76-1-1-1-1.25,0-1.93-.77-4,.62-5.72a1.38,1.38,0,0,1,1.23.17A6.23,6.23,0,0,1,574.07,658.69Z" transform="translate(-1 -1)"/><path d="M268.23,794.22c-.56,4.3-3.85,7.87-5.29,12.21-.73,2.2-5.39,1.53-8.28,2-2.25.36-3.17.45-2.77-3.31.58-5.44,3.55-7.85,7-10.66,1.13-.91,1.78-2.4,2.82-3.45a4.39,4.39,0,0,1,4.53-1.38C268.45,790.29,267.72,792.31,268.23,794.22Z" transform="translate(-1 -1)"/><path d="M337,769a38.16,38.16,0,0,1,3.92,0c1.67.18,3.77.54,3.89,2.41s-2,1.76-3.43,1.88c-2.64.22-1.88,1.53-1.05,3a4.84,4.84,0,0,1,.12,5.21c-.63,1-1.37,2-2.74,1.78a2.36,2.36,0,0,1-2-2.5c-.35-5.14-2.07-7.79-7.52-4.47a2.44,2.44,0,0,1-3.54-.71c-.81-1.53.54-2.31,1.68-3.08C329.69,770.25,333.09,768.17,337,769Z" transform="translate(-1 -1)"/><path d="M195.12,791.81c2.39.51,5.31.83,5.15,4.15s-2.93,4.18-5.8,4c-2.64-.19-5.46-1.35-5.12-4.27C189.65,793.16,192.22,791.78,195.12,791.81Z" transform="translate(-1 -1)"/><path d="M165.08,802.46c-2.23-.18-5-.56-5.15-3.72-.13-3.34,2.71-4.33,5.46-4.51,2.56-.17,4.68,1.09,4.86,3.87C170.46,801.29,168.24,802.32,165.08,802.46Z" transform="translate(-1 -1)"/><path d="M256.92,665.41c-.15,2-1.29,2.87-2,2.22-1.88-1.8-5.82.92-6.45-3-.18-1.11,1.13-2.17,1.85-1.65C252.36,664.42,255.16,664.19,256.92,665.41Z" transform="translate(-1 -1)"/><path d="M241.08,753.55c4.46-.11,8.14,2.65,8.23,6.16s-3.12,6-7.59,6.19c-5,.17-8.67-2.36-8.69-6C233,756.38,236.48,753.66,241.08,753.55Z" transform="translate(-1 -1)"/><path d="M175.41,678.07c6.44.23,11.38,1.58,14.86,5.84,5.62,6.86,2.59,15.55-6.44,18.85a20.82,20.82,0,0,1-16-.51c-4.71-2.07-7.9-5.47-8.09-11s3.21-8.87,7.66-11.21C170.19,678.61,173.26,677.76,175.41,678.07Zm.85,21.83c5.93.1,11.68-4,11.83-8.38.16-4.75-5.33-9-11.66-9.07a17.05,17.05,0,0,0-2.48.06c-4.78.6-9.53,5.06-9.44,8.83.08,3.44,4.89,7.9,9.27,8.54A17.09,17.09,0,0,0,176.26,699.9Z" transform="translate(-1 -1)"/><path d="M163.05,772.36c-3.79,0-8.21-3.21-7.75-5.87.71-4.13,4-5.45,7.7-5.52s6.64,1.8,6.7,5.74C169.75,771,166,771.61,163.05,772.36Z" transform="translate(-1 -1)"/><path d="M527.2,337.85c-1.66-4.74,1.76-4.17,4.61-4,3.81.24,6.9,2.19,9.8,4.5,1.25,1,2.29,2.34,1.24,3.82s-2.77.78-3.89-.26c-2.17-2-4.42-2.94-7.14-1.18-1.33.86-2.38,2.89-4.21,1.85S527.37,339.57,527.2,337.85Z" transform="translate(-1 -1)"/><path d="M635.76,358.65a31.72,31.72,0,0,1-11.1-2.53c-1.15-.49-2.21-1.09-1.68-2.53a2.13,2.13,0,0,1,2.95-1.1c6,2.22,12,1.78,18.16,1,1.22-.14,3-.42,3.24,1.36s-1.48,2.12-2.73,2.36C641.67,357.79,638.82,358.87,635.76,358.65Z" transform="translate(-1 -1)"/><path d="M709.46,370.1c-5.74-.25-10.76-3-16-5-1.24-.48-2-1.35-1.58-2.68s1.71-1.51,2.85-1.13c5.8,1.94,11.34,4.63,17.47,5.56a1.56,1.56,0,0,1,1.33,2.21C712.66,370.74,710.89,369.85,709.46,370.1Z" transform="translate(-1 -1)"/></g></g></svg>