<svg xmlns="http://www.w3.org/2000/svg" viewBox="0 0 833.53 833.81"><title>fork</title><g id="Layer_2" data-name="Layer 2"><g id="Layer_1-2" data-name="Layer 1"><path d="M428.14,273.72c0-12-.7-24,.21-36a215.61,215.61,0,0,0,.54-29.72c-.76-12.59.49-25.11-.33-37.73-.9-13.83.66-27.88.64-41.85-.06-34.82.05-69.64-.13-104.46,0-4.6,1-6.3,6-6.49,8.94-.35,17.87.45,26.77.06,14-.6,28-.35,41.94-.67,43.63-1,87.26-.59,130.89-.82,4.7,0,6.19,1.15,6.28,6.06.86,43,.56,85.9.61,128.85q.09,80.17.05,160.33c0,6.83-.05,6.83-7,6.83-22.49,0-45-.71-67.47.2-20,.8-39.92-.14-59.87-.33-24.64-.23-49.28-.76-73.93-.56-3.88,0-5.3-1.39-5.25-5.25.14-12.83.05-25.66.05-38.49Zm137-75.14c-.16.77-.34,1.42-.43,2.08-.39,3,2.06,3.79,4,4.1,2.84.47,2.57-1.77,2.23-3.68a3.45,3.45,0,0,1,1.33-3.52,3.27,3.27,0,0,0,.29-5.24c-3.32-3.31-1.18-5.88,1.07-8.06,1.67-1.62,3.64-2.68,3.9-5.4.16-1.63,1.53-2.45,2.69-.72,1.42,2.11,2.88,1.85,4.63.71,2.42-1.58.51-3,0-4.66-1.12-3.57-2.56-7.23.57-10.69,1.47-1.62-.3-2.46-1.09-3.68-2.64-4-6.25-7.83-4.62-13.41.33-1.11.14-3-1.08-2.92-4,.21-8.22-3.19-12.2.66-1.78,1.71-5,3.3-6.65.83-3.75-5.69-5-2.11-6.79,1.18-.54,1-1.64,1.63-2.27,2.58-2.35,3.54-7.21,5.37-8.5,9-2.49,7.07-6.58,13.39-8.75,20.54-1,3.26-3,5.1-6.66,4.55-2.46-.37-4.47,1.1-6.68,1.73-1.29.37-1.57,1.67-1.56,2.87s.87,1,1.76.92c2-.24,1.66,1.18,1.3,2.26-.59,1.74-2,3-2.92,4.54-1.71,2.89-4.74,6-1.67,9.65,5.23,6.16,5.34,6.08,1.44,12.77-1,1.66-2,3.93.61,4.33,2.45.37,3.2,1.93,4.53,3.31,1.15,1.2,2.32,3.63,4.36,1.81,1.74-1.55-.24-2.86-1.18-4.16-1.17-1.62-2.58-3.39,0-5,3.06-1.91,7.75-.84,8.74,2.56s2.53,5.52,5.75,4.62c3.83-1.08,8.62-2.53,9.61-6.68,1.45-6.06.31-12.57,2.12-18.75.39-1.31-.55-3,1.53-3.5,1.74-.37,3.39-.39,3.57,2.11a1.39,1.39,0,0,0,1.66,1.41,1.77,1.77,0,0,0,1.47-1.76c.18-1.63,0-4,2.16-3.78C565.78,194.4,564.87,197,565.15,198.58Zm-79.46,18.68H487c.48-3.16,1-6.31,1.42-9.48.24-1.77.59-3.3,2.84-3.36,3-.09,6-1.09,6.76-4.11.9-3.54-1.79-6.17-3.89-8.75-.63-.79-1.31-1.66-2.46-1.32-1.39.41-1.61,1.67-1.4,2.84.63,3.58-1,5.64-4.16,7-1.37.6-3,1.8-2.63,3.31C484.73,207.93,484.82,212.68,485.69,217.26Zm18.4-34c-.08.73-.65,2.65-.23,2.9,2.43,1.45-2.79,8.84,4.84,6.19,1-.35,3,1.42,3.57-.76.49-1.8,1.18-4.22-.92-5.41-1.91-1.08-2.31-2.4-1.51-4,1.15-2.37,1.9-.09,2.85.41.64.33,1.18-.1,1.56-.77,1.2-2.11-.53-5.72-2.93-6C505.41,175.05,503.74,176.69,504.09,183.3Zm5.72,54.92a5.53,5.53,0,0,0-1.82.88c-1.83,1.82-1.86,4.55-.39,5.9,2,1.86,5,2.71,7.6,3.94.06,0,.44-.44.58-.73C516.93,245.88,512.74,238.34,509.81,238.22Zm84.83-95.68c2.23-.51,3.89-1.77,4.3-4.13.23-1.33-.15-3.09-1.85-2.8a5.87,5.87,0,0,0-4.55,4.64C592.19,141.56,593.31,142.28,594.64,142.54ZM498.44,175c.38,1.52-.68,4.58,1.84,4.18,3.13-.49.8-4.25,2.16-6.26.54-.8.32-2.71-1.26-2.57C498.54,170.64,498.71,173,498.44,175Z" transform="translate(-13.79 -16.08)"/><path d="M212.21,246.07c.44-17.85.15-40.18.24-62.49.08-18.56.38-37.16-.23-55.73-.09-2.82-.24-5.66,1.3-8.26a3.74,3.74,0,0,0,.49-2.39c-2.36-13.52-.33-27.12-.68-40.67-.44-17.4,0-34.82-.2-52.23-.07-4.68,1.86-6,6-6.39,5.39-.51,10.61,1,15.93.81,9.79-.28,19.57-1,29.36-1q67.73-.16,135.46,0c6.13,0,12.2-.78,18.41-.22,4.18.37,4.9,1.76,4.87,5.41-.14,14.32-.53,28.68.1,43,1,22.46.85,44.92.75,67.39-.08,15.38-.59,30.76-.75,46.13-.47,43.43-.17,86.87-.18,130.31,0,7.49,0,7.49-7.47,8.38a6.73,6.73,0,0,1-1,.07c-17.1-.74-34.23.71-51.34-.51-5.11-.37-10.29.53-15.44.53q-59.92.07-119.86,0c-3.48,0-7,.07-10.43.23-4.25.2-5.53-1.58-5.48-5.92C212.35,291.86,212.21,271.19,212.21,246.07ZM370.44,125.58c.13-2.19.05-3.52-1.06-4.5-1.4-1.24-2.56,0-3.61.57a39,39,0,0,0-5.83,3.73c-10,7.92-23.18,10.37-32.31,20-5.86,6.2-11.41,12.44-15.65,19.8-8.63,15-12.32,32.09-19.84,47.57-1,2.1-2.45,4.53-.11,6.37,2.16,1.69,4.7.13,6.37-1.18,7.57-5.93,15.93-10.51,24.17-15.36,11.67-6.89,20.11-16.92,26.8-28.62,6.21-10.84,10.17-22.6,14.72-34.14C366.1,134.76,368.53,129.85,370.44,125.58ZM265.25,184c2-.27,2.8-1.66,2.86-3.44.07-2.09-1-3.53-3.17-3.63-2-.1-2.35,1.49-2.41,3C262.45,181.9,262.89,183.59,265.25,184Z" transform="translate(-13.79 -16.08)"/><path d="M13.94,262c0-15.49-.39-31,.08-46.47,1.45-48.19.36-96.38.92-144.56.18-15.54.67-31.07.72-46.61,0-4.29,1.2-5.86,5.67-5.77,12.49.27,25,.56,37.48,0,26.74-1.16,53.5-.38,80.24-1.07,21.11-.56,42.22-.42,63.33-.62,6.09-.06,6.47.27,6.34,6.57-.31,15.61-1.37,31.23-1,46.81s.17,31.24.25,46.85q.24,45.66.06,91.32c-.14,33.44-.52,66.88-.79,100.32,0,.67,0,1.34,0,2-.69,7.21-.86,7.36-8.07,7.36-29.16,0-58.32.37-87.47-.12-29.93-.5-59.86-.66-89.8-.69-7.49,0-8-.56-8-7.86Q14,285.79,13.94,262Zm128.91-96.67c0-13.23-2.3-21.58-8-32.22a27.3,27.3,0,0,0-16.07-13.28c-4.65-1.42-10.87.35-15.35,4-15,12.18-22.55,28-23.63,47.26-.81,14.31,6,26.62,9.6,39.77.12.42,1.06.88,1.6.87,2-.06,2.64,1.77,4,2.54,5.68,3.33,10.69,8,18.49,6.55,4.1-.74,5.55-3.92,8.33-5.71a40.62,40.62,0,0,0,15.3-18.24C141.27,187,142.79,176.23,142.85,165.37Zm59.26-8c-.28-1.59-.94-2.93-2.82-2.8a2.8,2.8,0,0,0-2.78,3c.07,1.76,1.12,3.28,3.15,3.11C201.43,160.45,202,159,202.11,157.33Z" transform="translate(-13.79 -16.08)"/><path d="M784.34,211.93c2.57,8.42-2,15-4.69,21.62s-5.2,13.2-5.84,20.37c-.1,1.15.12,2.6-.48,3.39-4,5.28-2.39,12.32-6.26,17.35,2,2,2.85-1.36,4.34,0,.08.21.39.66.3.78-1.25,1.59-3.31,2.95-1.14,5.31a1.5,1.5,0,0,1,.12,1.41c-3.65,5.87-1.87,13-4.08,18.93-4.24,11.39-6.16,23.28-9.09,34.92-3,12-7.18,23.54-9.86,35.58-2,9-9.93,12.92-19,10.33-12.07-3.44-24.21-6.65-36.23-10.28-7.92-2.38-15.53-5.75-23.73-7.26-1.52-.28-3.73-1.81-4.12.3s2.57,2.35,4.11,2.72a319.79,319.79,0,0,1,35.17,10.71c8.37,3.08,17.19,4.6,25.43,8,.76.3,2.23.6,2.22.78-.47,4.5,3.68,6,5.65,8.9.63.94.32,1.86,0,2.85-3.33,9.07-10.12,14.95-19.21,16.22-10.69,1.5-16.33,8.52-22.16,16a12.11,12.11,0,0,0-1.22,2.17c-1.43,2.88-2.79,5.35-5.21.58-1.12-2.21-3.22-2.65-5.59-1.57-.29-2.19,2.82-2,2.33-4.26-4.2-1-5.84,6.71-11.15,3.17,2.74,2.23,1.63,4.38.29,6.77,2.88,0,4.92.77,6.41,2.84.58.81,1.33,2.21,2.79,1.46,6.51-3.36,2.86.75,2.29,3-.83,3.28-3.06,5.28-5.6,7.2-3.44,2.6-5.45,5.66-3.45,10.26,1.11,2.54.06,5.28-.52,7.81-6.14,26.92-14.75,53.14-23.08,79.41-5.58,17.58-11.3,35.15-15.19,53.09-1.78,8.16-3.51,16.64-4.65,25.09-1.34,10,.33,19.36.77,29,.62,13.48-2.58,26.42-5.91,39.32-1.25,4.8-1.68,10.35-4.47,14.08s-3.14,7.44-4.64,11.16c-4.08,10.19-5.18,21.26-9.43,31.38-5.87,14-8.24,29-14.15,43-.48,1.15-.38,2.7-2,3.17-.89-1.77.2-3.25.67-4.78,7-22.9,14.21-45.7,20-68.94,4.52-18.23,10.72-36.08,13.11-54.77.85-6.67.22-13.57-.16-20.35-.55-10,1.82-19.74,2.89-29.6,1.78-16.33,7-31.73,10.8-47.51.87-3.6,4.93-6.3,3-10.64-9.25,7.65-9.26,19.26-12.39,29.46-3.39,11.09-4,22.81-7.3,34-1.43,4.89-.52,9.82,0,14.82,1.62,14.72-.08,29.19-4,43.49-5.45,19.71-10.56,39.52-15.81,59.29a7.33,7.33,0,0,1-3.46,5c1.06-4.8,1.44-8.91,2.92-12.59,1.7-4.22,1-8.86,3-13,.82-1.69-1-3-1.71-4.49-.37-.8-1-1.49-1.92-.9s-.53,1.36-.17,2.21c2,4.7.41,8.85-1.85,13.05-1.75,3.24-4,6.47-3.57,10.45a2,2,0,0,1-1.16,2.33c-4.41,2.65-7.31,6.15-6.33,11.75.11.65-.2,1.78-.76,1.59-7.06-2.37-1.82,3.55-3.32,4.92-.44.39-.57,1.13-1.08,2.25-1.83-3.12-.64-6.72-2.92-9.07-2-2.1-3.85-4.51-7.67-5,.69,2.42,2.77,3.06,3.82,4.5,4.17,5.72,3.76,9.28-1,14.46a109.31,109.31,0,0,0-16.17,22.65c-.6,1.13-.59,2.68-2.93,3.45A51,51,0,0,1,565,781.75c3.24-5.17,4.91-11.71,12.1-13.85,2.82-.85,3.44-4.22,2.39-7.32-1.22-3.62-4.38-3.11-7.08-3.24-1.79-.08-2.58,1.58-2.64,3.12-.31,9.54-6.23,17-9.22,25.6-1,3-2.43,5.79-3.69,8.73-1.88-2.57-1.92-2.57-4.46-.66,1.25-5.29-.67-10-.37-15,.08-1.28-.17-3.86-2.17-3.44-2.26.49-.3,2.18-.23,3.44.47,7.83,1.3,15.72-1.75,23.4a56.74,56.74,0,0,1-1.43-9.93c-.58-6.31-3.64-11.72-5.15-17.65-.52-2-1.92-2.7-3.81-2s-1.62,2.37-1.2,3.81a6,6,0,0,0,1.58,2.51c8.47,8.25,6.64,18.72,6.86,28.89-2.34.13-2.36-1.44-2.44-2.35-.6-6.66-4.68-12-6.55-18.22-.59-1.93-1.73-4.05-4.29-3-2.95,1.22-1.67,3.51-.76,5.47a5,5,0,0,0,1.73,2.39c7.2,3.73,8.74,10.56,8.32,17.45-.31,5.06,2.3,5.39,5.51,5.39,4.78,0,8.8,1.27,12,4.92,1.2,1.36,2.28,2.38,2.18,4.64-.15,3.42,4.74,2.19,5.74,5.11.24.72,1.79.75,2.07,1.85-.23.33-.35.66-.6.83-1.86,1.35-5.12-2.19-6,1.25s1.42,6.29,3.82,8.18,4.16,6.56,8.78,3.65c.23-.14,1.32.48,1.48.93.35,1-.54,1.38-1.3,1.76-6,3-11.49,1.23-14.2-4.8A30.57,30.57,0,0,1,557.9,833c-.12-1.68,2.29-4.23-1-5s-6.85-2.26-9.93.69a15.56,15.56,0,0,0-1.72,2.51c-.35-3.28-7.06-8.65-9.8-7.64-2.26.83-2.91,3.49-3.4,5.77-.45,2.07.83,2.54,2.69,3.22s4.17.52,5.68,3c1.68,2.8,1.94-2.53,4.31-1.24,1.32,2.26-.32,5.21.63,7.89,2.09-.44,1.39-2.88,2.84-3.84,1.59.94,1,3,2.06,4.15,1.15.23,1.06-4.28,2.61-.86,1.25,2.78,1.51,6,5.81,6.41-6.74,1.24-12.4-1-18.13-2.7-5.51-1.68-9.37-6.15-16-6.76-12.27-1.13-21.09-19.24-17.13-31.29,9.11-27.68,19.79-54.77,30.11-82,4.09-10.81,8.77-21.41,13.56-33,1.24,3-.26,4.67-.68,6.4-.81,3.39-3.63,6.5-.9,10.32.43.61-.3,2.23-.76,3.26-3,6.65-6.4,13.11-8.92,19.92-5.13,13.87-9.87,27.89-14.58,41.91-3.07,9.14-7.74,17.7-9.8,27.18-1.18,5.41-2,10.91.24,16.09,6.8-4.25,3.12-13.47,9.67-17.48,3.07,2,3.61,7,8.82,7.3-1.62-4-2.7-7.41-6.87-9.77-1.9-1.08-1.79-6.17-.41-9a24.31,24.31,0,0,0,2-16.14c-.13-.62-.16-1.62.19-1.91,4.25-3.47,5-7.82,4.62-13.11-.14-1.7.12-5.87,4.62-5.78.84,0,1.9-3.6,2.62-5.63a580.13,580.13,0,0,1,23.6-57.13c.43-.88.67-1.95,2.95-1.55-2.9,4.56-1.78,9.79-3.35,14.61a26.12,26.12,0,0,0-1.25,6.85c-.1,2,1.45,3,2.77,1.23,2-2.7,5.47-4.64,5.17-8.74-.11-1.45.89-2.46,1.65-3.54,5.34-7.59,11-15,14.89-23.49,1-2.13,2.14-4.08,2.23-6.53a9.15,9.15,0,0,1,1-3.81c1.4-2.6,5.13-4,2.88-8.43-.48-1,2.31-5.48,4-8.12,8.41-13.26,13.92-28,20.73-42a11.35,11.35,0,0,0,.37-7.61c-2.15.26-2.41,1.91-3,3.23-2.9,6.79-5.08,14-8.8,20.3-4.44,7.53-8.33,15.26-14.73,22-5,5.22-10.12,11.65-13.47,18.73a21.44,21.44,0,0,1-4.28,5.84c3.55-10.15,7.26-20,15.82-27.46,3.73-3.25,7.5-6.94,8.54-13,.82-4.76,5-8.89,7.36-13.44a167,167,0,0,0,12-28.76c-6.63,12.06-11.5,25.08-19.8,36.28-2-1.5,1.37-2.61-.47-4.26-5.49,5-8,12.43-14.14,17l16.46-26.12c1.18,2.55-1.67,4.48,0,7.53l6.25-12.62c-1.46-2-2.38,1.66-3.23,0s1.08-3,1.55-4.48c.67-2.16,1.25-.27,2.09-.11,2.37.45,2.76-1.64,1.94-3.05-1.63-2.8-.22-4.59,1.18-6.76,4-6.28,6.3-13.38,8.84-20.33C631.9,532,647,496.59,659.67,460.27a21.65,21.65,0,0,1,3.15-5.74l-1.62,13.22,1.1.32c2.25-5.75,4.89-11.37,6.61-17.27,1.3-4.44,2.3-9,3.87-13.36.4-1.11,1.19-2.54-.13-3-1.76-.68-1.28,1.24-1.73,2.16a48.57,48.57,0,0,1-5.22,8.67c1.82-4.62-.08-10.83,6.6-13.8-5.62-1.56-3.33-5.76-2.91-8.66a27.12,27.12,0,0,0-5.28-20.22c-7.88-10.65-8.58-21.53-4.51-33.46,3-8.66,5.68-17.4,9.64-25.68,2.6-5.45,13.25-8.37,17.75-4.87,1.33,1,.47,2.07.13,3.12-.91,2.85-2,5.64-2.69,8.54-.41,1.89-.56,4.29,1.81,5.19s3.45-1.27,4.51-2.92c.45-.69.71-1.5,1.12-2.23,3.6-6.45,6.69-7.59,13.35-5.07,2.32.87,1.64,2.67,1.33,4.18-.54,2.6-1.36,5.14-2.06,7.7-.44,1.65-1,3.36,1.15,4.27s3.58-.46,4.47-2.09a54,54,0,0,0,3-6.85c1-2.59,2.2-4,5.2-2.41a7.25,7.25,0,0,0,4.33.74c5-.87,4.76,2,3.94,5.25-.65,2.58-1.69,5.05-2.44,7.61-.54,1.85-.67,3.7,1.64,4.58s3.39-.61,4.46-2.18c1.91-2.82,10.21-8.94,13.13-9.68-6-4.72-6.18-4.76-4.09-13.19,3.81-15.38,9.6-30.13,14.54-45.15C759.72,279.92,766,262,772,244c2.94-8.67,5.8-17.36,8.82-26C781.57,216,781.83,213.55,784.34,211.93ZM557.06,786.87c1.72-7.65,4.45-15.11,3.85-23.09-.17-2.19-.33-4.06,2.46-4.5,1.74-.28,2-1.49,1.8-3s-1.19-2.2-2.58-2.64c-1.62-.51-3.56.39-5.57-1.18l7.88-3.19a12.69,12.69,0,0,0-11.11,2.08c-1.22.81-2.41,2-.25,4.5a32.25,32.25,0,0,1,5.36,7.89c.45,1,1,2.35-.21,3.19-1.38,1-1.26-1.8-3.1-1.08C557.55,772.69,555.3,779.76,557.06,786.87Zm108.8-308c4.74-12.25,10.71-24,13-37.06C671.54,453.14,669.73,466.42,665.86,478.9Zm-114.62,288c-.07-2.32.52-4.69-2.18-5.26a4.31,4.31,0,0,0-4.69,2.16c-1.37,2.35.26,3.59,2,4.8a7.27,7.27,0,0,1,1.4,2c.52.8,1,2,2.13,1.47.55-.26.83-1.34,1-2.1A26.35,26.35,0,0,0,551.24,766.9Zm-19.12,2.2c-1.67.27-2,1.63-2,2.95a2.19,2.19,0,0,0,2.37,2.09c1.66-.17,1.73-1.95,2-3.11C534.82,769.42,533.29,769.37,532.12,769.1Z" transform="translate(-13.79 -16.08)"/><path d="M775.34,508.57c2.53-3.82,5-7.68,7.59-11.46,4.7-6.87,5.92-14.95,7.92-22.75a8.46,8.46,0,0,1,.46-1.91c.53-1,2.88-1.71,1.1-3s-3.17.35-3.84,1.91a11.22,11.22,0,0,1-7.54,6.71c-2.45.73-3.18,2.64-3.55,4.93-.28,1.72-.25,3.52-3.14,3.41s-1.69-2-2.28-3.27c-2.18-4.73-6.29-8.16-8.86-12.82.11,5.57,1.38,10.91-.08,16.27a2.73,2.73,0,0,0,.07,2c3.64,5.68,2.21,12.39,3.73,18.51.6,2.39,1.78,2.24,3.48,2.41,4.05.4,5.11,2.17,2,5.28a107.38,107.38,0,0,0-11.09,12.4c-6.4,8.79-17.54,8.59-24.64,15.44-2.19,2.12-5.45,3.13-8.18,4.73-.86.51-1.84,1.44-2.5.25s.67-1.58,1.55-1.93c7.05-2.78,12.69-7.83,19-11.74a11.41,11.41,0,0,0,2.22-2c.59-.62,1.06-1.45.31-2.19s-1.43,0-2,.57c-2.17,2-4.05,4.4-8,5.12,1.73-2.8,5-3,6-5.52.56-1.4,1.76-3,.48-4.11-1.82-1.57-2.4.75-3.28,1.73-4.84,5.44-12.18,6.59-18.36,2.44a42,42,0,0,1-10-9.64c-7.41-9.82-12.76-21.14-21.77-29.8-.78-.74-1.8-1.65-.32-3.61,3.15,6.16,9.58,7,14.76,7.21,10.47.47,20.48,3.32,30.81,4.18,7.76.65,14.15,3.9,17.61,11.23,2.31,4.89,1,7.77-3.8,10-1.3.61-3.1.67-3,2.74a5.07,5.07,0,0,0,2.53,4.1c1.93,1.29,3.16-.32,4.23-1.48,6-6.49,9.09-13.33,8.61-23.08-.37-7.5-2.62-13.65-5.09-20.17-.43-1.15-.42-3.09-2.19-2.76-1.52.29-2.3,1.88-2.51,3.44-.61,4.73,1.74,8.59,4,12.54-5.68-1.53-11.81-8.38-12.33-14.3-.28-3.22-1-4.09-4.27-2.93-4.58,1.64-8.67,3.42-9,9.32-.46-5-1.73-10,2.22-14.13,2-2.15,2.61-4.75-.7-5.21-10.5-1.45-16.48-7.61-19.78-17.13-.29-.84-1.69-1.18-1.08-2.74,3.07.75,5.83,4.95,8.69,3,2.21-1.51,3.47-5,5.24-7.48a83.24,83.24,0,0,0,5.31-9c1.2-2.29,2.38-4.37,5.27-4.77,1.67-.23,2.34-1.46,2.94-3,1.8-4.63,4.17-5.51,8.4-3.29,1,.5,2,.9,2.79.24,4.88-3.86,6.57.77,7.16,3.53,1,4.72,4.63,8,5.63,12.58.56,2.58,2.19,2.54,4.07,1,1-.79,2.21-2.29,3.43-1.34,1.72,1.33-.23,2.62-.75,3.86-1.18,2.83-.37,5.56.24,8.32.78,3.56.89,6.79-2.47,9.42-2.49,1.95-1.75,3.6,1.18,4.5a9.69,9.69,0,0,1,3,1.58c1.67,1.29,3,1.49,3.87-.75,1.65-4.12,4.8-5.83,9.09-5.43,2.89.28,3.5-1.25,2.22-3.22-3.46-5.31-2.36-10.27.05-15.6,2.25-5,.84-10-.76-15.2,4.1,1.79,5.72,5.6,7.64,9.2.86,1.62-.26,4.91,2.53,4.67,2.32-.19,1.05-3.06,1.49-4.7.91-3.41,1.8-7,5-8.9,3.53-2.11,3.29-6.41,5.85-9.06,1.92-2,3.24-3.39,5.92-.68s6.09,4,10.28,1.94c-2.07,3.66-2,8-5.07,11-.8.77-1.49,1.8-.66,2.55,5.3,4.8,6.27,13.87,15.08,15.22,1.33.2,1.36,1.51,1.73,2.66,1.29,3.93,2.71,7.84,7.1,9.57,2.56,1,3.34,3.07,2.71,5.71a13.7,13.7,0,0,0-.58,2.93c-.09,7.41-.73,7.93-8.06,7.81a71,71,0,0,1-10.41-1.12c-1.56-.25-3.35-1.63-4.59.16s.69,3,1.19,4.54c2,6,.9,11.72-1.62,17.74,2.75-8.88-5-10.72-9.15-14.89-1.72-1.72-2.71-1.28-3.56.9-3.86,9.94-7.62,13-20,16.11a34.94,34.94,0,0,0,7.86-9.5,8,8,0,0,0,1.58-4.13c0-2,.22-4.55-1.62-5.45-2.21-1.07-2.87,1.82-3.76,3-5.45,7.54-10.65,15.26-15.89,22.95C777.84,507.93,777.28,508.88,775.34,508.57Zm30-32.55c-2.06,4.13-1,9-3,13.12a1,1,0,0,0,1,1.39c1,0,1.32-.84,1.62-1.6A20.15,20.15,0,0,0,805.36,476Zm-19.77-8.72c-4.19-.08-6.05,3-8.5,5.26a1.35,1.35,0,0,0,0,2.17c.81.61,1.53,0,2.12-.63Zm-52,43.87-1,1.26L744,520.74C741.63,516.07,737.11,514.24,733.56,511.17Zm58.73-73.1c-.84,3.66-1.66,6.59-.56,10.71C793.82,444.84,795.23,442,792.29,438.07Zm-33.37,85.52c3.81-1,5.32-2.62,6.55-4.58.51-.81,1.23-1.82.21-2.62s-1.86,0-2.45.8C762,518.9,760.88,520.66,758.92,523.59Zm-6.91-50c-3,3.24-3.45,7-1.56,10.25C751,480.11,751.51,476.87,752,473.63Zm-18,47.45c-2.1-1.06-3.29,1-5,1.3-1.2.18-3.77-.92-3.31,1.36.37,1.83,2.73,1.37,4.14.35S733.55,523.38,734.06,521.08Z" transform="translate(-13.79 -16.08)"/><path d="M783.18,537.77a9.8,9.8,0,0,0-7.49-4.41c-5.29-.55-7.36-3.69-7.58-8.41-.13-2.89,5.89-6.94,10.08-6.69a50.66,50.66,0,0,1,15.5,3.25c6,2.34,10.65,6.32,15.21,10.74,4.88,4.73,10.9,7.78,19.19,8.89-8.16,3.72-14.4,8.06-22.05,9.38-3.57.61-6.69,2.67-10.17,3.81-7.87,2.59-16,2.68-24,3.25-7.14.5-14-6.7-14-13.94,0-2.58.51-5,3-6.49.42-.26,1.11-.57,1.14-.9.56-7.1,4.91-2.67,7.48-2.21C773.74,534.81,777.89,536.29,783.18,537.77Zm-16.34,2.66a10.75,10.75,0,0,0,2.94,12.71c.77.61,1.65,1.44,2.59.6s.17-1.77-.58-2.4A13.58,13.58,0,0,1,766.84,540.43Zm10.69,10.87c.3-3.91-2.79-6.45-3.86-9.85C772.11,545.79,774.35,548.71,777.53,551.3Zm-3-21.34c2.66-2.2,4.76-3.89,6.79-5.66a1.45,1.45,0,0,0,.32-1.31c-.12-.33-.94-.78-1.08-.67C778.12,524.14,774.65,525.17,774.53,530Zm14.75,3.86c3.3-.73,5.77-2,7.42-4.55.09-.13-.52-1-.74-1-2.91.38-4.94,2.15-6.67,4.37C789.21,532.75,789.28,533,789.28,533.82Zm-4.56,16.29,1-.84-5-7.35C780.87,545.46,781.66,548.52,784.72,550.11ZM790,526.36l-.73-1.3a10.32,10.32,0,0,0-7.67,4.31l.73,1.29Z" transform="translate(-13.79 -16.08)"/><path d="M728.09,197.63c.07,2.56-1.14,4.79-1.7,7.14-2.43,10.17-8.89,18.34-13.11,27.6-1.15,2.51-1.74,5-.6,7.69a4.48,4.48,0,0,1-.32,4.74c-.61.81-1.28,2-.55,2.75,2.37,2.45.86,4.75.3,7.31-3.49,15.79-8.56,31.14-12.8,46.71-.9,3.33-2.8,3.81-5.61,2.31-.93-.49-2-.88-2.47.43-.41,1.07.61,1.31,1.31,1.73,3.35,2,4.14,4.91,3.1,8.53-1.61,5.6-3.1,11.23-4.77,16.8-1,3.31-3,5.41-6.64,3.4-2.8-1.55-7.37,1.48-8.72-3-.94-3.11,1.2-6.07,2.06-9.09,6.55-23.07,16.1-45,24.79-67.32,6.88-17.65,13.1-35.57,19.67-53.35a31.55,31.55,0,0,1,2.64-5.34c.63-1,1.25-2.77,2.88-2.15C729,195.08,728,196.58,728.09,197.63Z" transform="translate(-13.79 -16.08)"/><path d="M723.86,348.25c-6.33,0-7-.71-5.76-6.39,2.21-10.28,5.77-20.16,9.26-30,8-22.73,16-45.46,23.2-68.49,3.45-11.1,7.47-22,11.32-33,.53-1.53.46-4.33,3.18-3.41,2.25.77.94,2.84.48,4.32C761.36,224.63,757,238,753,251.39c-1.83,6.12-5.28,12.64-5,18.31.37,6.32-2.74,11.13-3.7,16.6-1.5,8.59-4.27,17.22-7,25.68a9.17,9.17,0,0,1-2.78,4.66c-2.21,1.74-3.46,3.63-.86,6.17,1.24,1.21.62,2.87.27,4.29-1.37,5.48-2.48,11-4,16.47C728.87,347.48,727.05,348.88,723.86,348.25Z" transform="translate(-13.79 -16.08)"/><path d="M746.2,200.37c.5,4.85-1.75,9.13-3.21,13.42-6,17.74-10.28,35.94-14.92,54-.65,2.54-2,4.92-2.53,7.48-2.09,10.8-3.43,21.87-7.9,32-4.34,9.81-3.25,20.79-7.64,30.5-1.9,4.2-5.81,5.82-10,3.95-2.56-1.13-1.78-3-1.32-4.6,2.59-9.11,5-18.28,8-27.24,6.35-18.74,13.11-37.33,19.57-56,5.63-16.33,11.09-32.73,16.59-49.11A7,7,0,0,1,746.2,200.37Z" transform="translate(-13.79 -16.08)"/><path d="M530.26,325.85a44.69,44.69,0,0,1,15.56-.25C540.68,327.56,535.46,326.28,530.26,325.85Z" transform="translate(-13.79 -16.08)"/><path d="M574,821.52c.76,3,.64,5.34,2.3,7.18,1.06,1.18,0,2.11-1.2,2.6-.91.38-1.85,0-1.82-.94C573.32,827.74,571.07,825.06,574,821.52Z" transform="translate(-13.79 -16.08)"/><path d="M578,641.5c-1.86,4.38-4.94,7.82-8.32,11A28.49,28.49,0,0,1,578,641.5Z" transform="translate(-13.79 -16.08)"/><path d="M387.12,325.06c-5.72,2.67-10.28-1.27-15.07-.31C378.85,323.5,382.39,323.54,387.12,325.06Z" transform="translate(-13.79 -16.08)"/><path d="M571.47,789.06,563.66,798C564.25,793.39,567.21,790.68,571.47,789.06Z" transform="translate(-13.79 -16.08)"/><path d="M582.81,769.8c4.14,1.83,3.68,5.32,3.35,8.75-.07.73-.58,1.25-1.33,1A1.16,1.16,0,0,1,584,778C585.18,775.06,584.05,772.51,582.81,769.8Z" transform="translate(-13.79 -16.08)"/></g></g></svg>