<svg xmlns="http://www.w3.org/2000/svg" viewBox="0 0 796.72 814.39"><title>fuckit</title><g id="Layer_2" data-name="Layer 2"><g id="Layer_1-2" data-name="Layer 1"><path d="M316.83,827.59c0-2.1,0-3.58,0-5.07-.07-2.16,0-3.92,2.92-2.13a1.85,1.85,0,0,0,2.63-.62,1.8,1.8,0,0,0-.24-2.32c-7.46-7.16-4.8-16.4-5.11-25-.16-4.5-.06-9-.08-13.5,0-1.37,0-2.85,1.75-3.06,1.93-.22,2.7,1.25,2.85,2.79.18,1.79-.21,3.64-.06,5.44.25,2.77,1.51,3.52,3.93,1.67,5.43-4.15,5.27-8.93-.73-12.12-5.44-2.89-7.93-6.54-7.89-13.31.32-50.16.11-100.32.07-150.48v-5.51c2.6,1.19,4.81,4,7,.52,2.05-3.22,2.44-6.17-1-8.71-5-3.68-6.14-8.58-6.11-14.75.28-71.32.5-142.64.11-214-.07-12,7-18.52,14.22-25.67a2,2,0,0,1,2.24-.68c1,.52.54,1.37.09,2.1a1.65,1.65,0,0,0,.58,2.54,1.88,1.88,0,0,0,2.66-.53c1.2-1.91,4.56-2.32,4.14-5.19s-3.3-2.57-5.22-3.66c-5-2.82-10.91-2.55-15.78-5.4-5.27-3.08-2.19-8.11-2.24-12.13,0-3.31,3.66-1.89,5.7-1.9q115.47-.13,231-.11c2.63,0,5.35-.44,7.58,1.63.74.69,2.14,1.16,2.74.39,2.58-3.33,6.13-1.92,9.25-2,11.33-.16,22.66-.07,34-.06,3.38,0,6.61-.57,9.13,3.19,1.65,2.44,4.4,5.51,8.31,1.1,1.64-1.84,5.53-1.91,8.46-2.34,5.56-.81,11.16-1.82,16.75-1.85,32.66-.17,65.32,0,98-.17,4.8,0,8.65.91,11.59,5.13-4,.85-7-2.33-10.84-2.06,4.06,2.83,5.06,9.1,12.24,8.5,3.43-.29,8.59.16,9.86,5.7a3.21,3.21,0,0,0,3.38,2.46,2.11,2.11,0,0,0,1.42-1.2c.73-1.76-.67-2.74-1.68-3.8-4.53-4.8-9.07-9.59-13.81-14.58,5.36,0,11.07-.11,16.77,0,2.69.08,4.33,2.46,6.14,4,5.54,4.73,10.75,9.85,16.1,14.81a3.44,3.44,0,0,1,1.16,2.65v21.94c-5.9-1.45-11.94-.51-16.94-4.19-1-.75-2,.77-1.27,1.64,3,3.59,4,9.64,10.62,9,.7-.07,2,.43,2.15.93,1.37,4.2,5.68,6.51,5.66,11.93-.24,58.49-.07,117,0,175.47,0,2.29,1.16,5.2-2.75,5.78-1,.14-.94,1.18-.43,2,4.87,8,2.65,16.79,3.18,25.29a3.62,3.62,0,0,1-1.65,3.42c-.7.47-1.59,1.43-.78,1.94,4.53,2.89,2.34,7.32,2.35,10.93.13,40.16,0,80.32,0,120.48,0,5.66-4.05,9.3-5.69,14.1-.84,2.46-2.54,4.61-3.72,7-.54,1.09-1.79,2.72,0,3.41s3.86.49,4.27-2c.52-3.2,1.58-6,4.19-8,1.35.6,1,1.71,1,2.65-.06,24.16-.06,48.32-.27,72.48-.06,7.47-6.4,11.89-9.58,17.87-.61,1.14-2.49.56-3.8.56-120.32,0-240.63.2-360.94-.33-6.24,0-12.42-.65-18.68.32-1.57.25-4.4,1.18-4.9-.72-.64-2.43,2.05-2.87,4-3.3,2.88-.65,2.74-2.36.89-3.78A41.31,41.31,0,0,0,396,818.33c-2.59-.89-3.77.37-3,2.63,1.27,3.55-.7,6-1.95,8.89-1,2.29-2.39,3.46-4.95,3.17a31.42,31.42,0,0,0-3.5,0c-8.25,0-8.25,0-4.25-7,.85-1.49,1.62-3.22.38-4.63s-2.81-.23-4.06.46c-2.19,1.2-4.44,1.14-5.92-.67s-.15-4.17,1-5.38c1.63-1.67,2.14-5.89,4.89-4.75,3,1.24,6.81,2.87,7.12,7.4.14,2.1-1.13,5.07,2.23,5.79,1.63.35,2.69-1,3.18-2.56.87-2.79,4.13-5.6.23-8.36-2.84-2-5.94-3.66-8.93-5.46-4.25-2.56-8.54-5.06-12.74-7.7-1.22-.77-2.41-1.46-3.64-.54s-1,2.43-.08,3.54c1.87,2.23.44,4-.6,5.91-2.26,4.07-4.68,8.06-6.82,12.19-1.12,2.16-2.57,4.85.45,6.59,2.79,1.6,6,2.77,8.39-.8,1.09-1.63,2-2.68,3.93-1.31s3.11,3,2.78,5.44c-.35,2.65-2.42,1.83-3.88,1.84-10.16.08-20.33-.07-30.49.12a5.32,5.32,0,0,1-5.41-3.56C326.65,820.73,324.35,822.46,316.83,827.59ZM754,502.62c-1,3.83,2.37,3.86,4.33,5.56.48-6.1,0-6.65-4.52-5.37,2.25-3.26,3.22-6.66,1.45-10.5-.37-.8-.62-1.67-1.57-1.6-.52,0-1.44.71-1.42,1.06.3,5.33-4.06,5.46-7.32,6.15-4,.84-7.56,5.64-12.25,1.61-.43-.37-1.34.63-1.14,1.22,1.25,3.54,1.55,7.74,4.65,10.19,2.63,2.08,4.3-1.51,6.52-2.26,2.46-.84,5.44-1.7,6.89-3.56A5.87,5.87,0,0,1,754,502.62ZM579.62,534.79a9.65,9.65,0,0,1-1.78,5.16c-5.2,9.43-5.1,13.75.2,22.25.88,1.41,1.87,2.46,3.59,1.83s1.06-2.2.7-3.4-.74-2.59,0-3.85c2.53-4.4,3.55-9.28,4.7-14.13.78-3.27,2.92-4.34,6-3.22,4.3,1.57,9.27,1.76,12.34,5.92a1.84,1.84,0,0,0,2.12.93c1.07-.39.74-1.3.6-2.12-.73-4.29-4-7.18-6.06-10.71a1.47,1.47,0,0,0-2.22-.27c-4,5.66-8.43.25-12.62.56a1.55,1.55,0,0,1-.59-3c2.68-1.2,5.06-4,8.73-2,2.37,1.3,3.6.21,2.54-2.44a44.2,44.2,0,0,0-7.41-11.77c-.91-1.09-2.36-1.61-2.58,0-.73,5.55-5.57,7.11-9.27,8.89-5.18,2.49-9.14,8.69-16.43,6-2-.75-2.48,1.6-1.7,3,2.31,4,4.86,7.9,7.44,11.75.81,1.22,2.42,1.31,2.5-.33C570.69,538.09,576,538,579.62,534.79ZM491,700.57c5.72-.33,10.28-2.68,13-8.28,1.79-3.74,4-7.27,5.95-10.94a6.37,6.37,0,0,1,4.16-3.28c1.26-.34,3.3,1.22,3.69-1.13.31-1.89-1.38-2.85-2.79-3.76-1.82-1.17-3.61-2.39-5.47-3.49a3.23,3.23,0,0,0-3.76,0c-1.25,1-.33,2.11.15,3.13.57,1.22,1.32,2.55.73,3.81-2.86,6.17-5.85,12.36-10.71,17.21-2.92,2.91-6.56,2.16-9.55-.27-2.71-2.19-4.08-4.7-2.47-8.67,2.22-5.49,6-10,8.61-15.15a3.89,3.89,0,0,1,4.54-2.25c1.31.28,2.37.35,2.79-1.11s-.79-2-1.74-2.65c-3.44-2.46-7.38-3.83-11.28-5.28-1.86-.69-3.22,0-2.4,2.09,1,2.49-.21,4-1.52,5.84-2.32,3.24-4.13,6.85-6.56,10C468,687.15,480.17,700.43,491,700.57Zm39,22.39a21,21,0,0,0,3.39-.38c2.26-.55,5.36-1.27,4.65-4.12-.79-3.23-3.44-1-5.38-.58-7.7,1.7-13.26-3-12.4-10.92.65-6,4-10.84,8.52-14.74,2.19-1.87,4.36-3.51,7.63-2.08s4.7,4,4.83,7.45c.09,2.33,0,4.67.13,7a1.84,1.84,0,0,0,1.79,2c.94,0,1.34-.62,1.84-1.36,5.44-7.87,5.31-8.66-1.39-15.6s-20.33-9.61-28.48.47c-5.6,6.93-6,14.12-3.24,21.88C514.18,718.15,522,722.91,530.06,723Zm-4.61-252.9c1,4.17,2,8.25,5,11.74,4.29,5.06,10.77,6.86,16.43,3.88a95.26,95.26,0,0,0,11.2-6.43c2.4-1.72,4.29-2.37,6.58-.28,1,.86,1.94,1.41,3,.27a2.22,2.22,0,0,0,.15-2.78c-1.55-2.76-3.1-5.51-4.8-8.17a2.63,2.63,0,0,0-3-1.27c-1.26.38-1.22,1.49-1,2.46a3.77,3.77,0,0,1-1.85,4.29c-4.68,2.8-9.09,6.13-14.39,7.79-4.48,1.4-7.52-.57-9.41-4.4-2-4,.28-6.78,3.53-8.69,4.29-2.52,8.78-4.71,13.17-7.07,1.38-.75,2.7-1.31,4.15-.12.88.71,1.91,1.79,3,.57a3,3,0,0,0,0-3.73c-2.24-3.5-4.49-7-6.93-10.37-1.24-1.71-2.76-1.6-3,.74-.23,2.9-2.24,3.71-4.35,4.85-4.09,2.22-8,4.83-12.08,7S526.44,466.31,525.45,470.06Zm37,249c.09-5.87,2.2-8.81,7-9.87.78-.17,1.75,0,2.12-.94a1.71,1.71,0,0,0-.76-2.17c-3.66-2.24-6.94-5.16-11-6.6-2.54-.89-4.48-.34-3.71,3a6.53,6.53,0,0,1-.91,4.75c-3,5.71-6,11.41-9,17.14-.93,1.8-2.07,2.94-4.3,2.46-1.18-.26-2.4-.17-2.84,1.27a2.34,2.34,0,0,0,1.32,2.9c4.16,2.4,8.31,4.81,12.5,7.15a2,2,0,0,0,2.74-.21,1.58,1.58,0,0,0-.17-2.24c-2.45-2.55-1-5,.3-7.29.72-1.3.88-3.81,3-3.34,1.55.35,1.18,2.53,1.48,3.94.36,1.72,0,4.08,2.4,4.32,2.29.22,3.59-1.59,4.28-3.54.88-2.5,1.47-5.1,2.28-7.62.59-1.85,4.49-2.36,3.11-4.34s-4.23.55-6.53.36C564.66,718.12,563.54,718.78,562.42,719.1ZM400,603.93c1.49.27,2.91-.32,3.47,1.09.49,1.23-.37,2.24-1,3.18-3.93,5.74-7.86,11.49-11.86,17.18-.77,1.1-1.33,2.9-3.41,1.87a1.76,1.76,0,0,0-2.53.83c-.54,1.1.17,1.94.81,2.67,3.11,3.48,6.43,6.74,10.63,8.92.82.42,1.76,1.37,2.59.24a2.3,2.3,0,0,0-.11-2.81c-1.48-1.62-2.26-2.9-.63-5.14,4.09-5.6,7.85-11.44,11.76-17.17.76-1.12,1.63-2.26,3.22-1.74,1.38.45,1.36,1.75,1.39,2.91.06,2,0,4,.12,6,.16,2.49,1.66,2.71,3.42,1.57,5.29-3.42,5.76-9.06.56-12.36-5.4-3.43-9.71-8-14.47-12.07-5.05-4.33-7.57-3.78-10.46,2.28-.57,1.2-1.43,2.4-.46,3.71,1.13,1.51,2.37.38,3.56,0S399.06,604.23,400,603.93Zm62,57.66c-.84-.12-2.33.37-2.74-1.11-1-3.7,2.3-5.59,3.73-8.26a2.2,2.2,0,0,1,3.41-.91c3.12,2.42,7.83,3.57,7.43,9-.09,1.18.29,2.66,1.88,2.23,2.53-.68,2.93-3.45,4.17-5.3.95-1.42-.6-3.06-1.87-3.56-8-3.13-14.35-9-21.71-13.17-.87-.49-1.75-1.21-2.71-.45a2.28,2.28,0,0,0-.43,2.76c.54,1.56,1.51,3.1.46,4.75-3.3,5.17-6.58,10.35-10,15.42-1.3,1.93-2.3,4.44-5.77,3.37a1.34,1.34,0,0,0-1.13,2.43c4.24,2.87,8.24,6.27,13.19,7.86,1.92.62,3.26-.23,2.07-2.77-1.31-2.78.77-8.39,3.53-9.45s4.87-.38,5.91,2.71c.5,1.47-.87,3.94,1.3,4.32s2.44-2.37,3.61-3.66a36.73,36.73,0,0,0,3.07-4.53c.57-.86,1.09-1.78.35-2.73s-1.81-.71-2.71-.2A9.18,9.18,0,0,1,462,661.59Zm84.53-157.91c0,9.25,5.52,16.92,13.5,18.72,1.91.43,4.55,1.23,5.16-1.23s-1.93-2.78-4-3.26a9.42,9.42,0,0,1-7.45-7.21c-.81-3.34.59-6,2.93-8.49a25.79,25.79,0,0,1,9.61-6c3.6-1.45,7.46-1.66,10.66,1.62,2.63,2.69,1.79,5.33.39,8.14-1.27,2.54-4.9,5.51-2.54,7.79,2.93,2.83,5.62-1.95,8.68-2.72,1.93-.49,2.84-2.58,1.64-4.94-2.18-4.28-3.76-8.83-6.8-12.69-4.32-5.48-13-8.46-19.73-6.11S545.58,496.46,546.51,503.68Zm.1-61.31a21.62,21.62,0,0,0-1.05-2.41,144.1,144.1,0,0,0-9.86-15c-3.41-4.68-3.46-4.74-6.47,0-.46.73-.87,1.4-1.74,1.63-4.6,1.26-8,4.7-12.28,6.55-2.73,1.19-5,4.39-9,2-2.13-1.3-3.06,1-2.28,2.75a36.12,36.12,0,0,0,7.51,10.43c1.09,1.11,2.58,1.05,2.69-1.08.24-4.79,4.45-5.49,7.56-6.67,2.65-1,3.95.88,2.88,3.77-.54,1.45-2.47,3-.89,4.43,1.8,1.63,3.74,0,5.5-.86a23.21,23.21,0,0,0,2.55-1.56c1.58-1,4.43-.91,4.07-3.63s-3-2.09-4.83-2.18c-1.51-.07-2.64-.56-3-2.05s1-2,2-2.39c2.29-1,4.45-3.82,7.17-1.35s4,5.24,1.55,8.74c-1.08,1.51-1.37,3.21.68,4.18C541.11,448.49,546.51,444.69,546.61,442.37Zm17.63,313.84c3.07-4.77.9-10.46,6.89-12.4a1.59,1.59,0,0,0,1.33-1.81c-.15-1-1-1.23-1.77-1.49-9.07-2.94-12.43-6.31-14.06,7.12-.13,1.15-.26,2.31-.49,3.45a45.69,45.69,0,0,1-5.07,14.48c-1,1.69-4.71,1.84-3.61,4.14.64,1.34,3.82,1.45,5.86,2.12,1.89.62,3.77,1.3,5.68,1.86,2.12.62,3.72-.17,2.59-2.38-1.46-2.84-.19-5.14.51-7.61.29-1,.42-2.64,1.77-2.75,1.84-.15,1.67,1.74,2.07,2.88.52,1.48.56,4.12,2.88,2.38,2.1-1.59,5-3.62,4.28-6.81-.77-3.59,1.16-5.17,3.59-6.79,1.79-1.19,3.53-2.46,5.3-3.69s2.84-2.64,1.61-4.57-4-2.44-5.72-2.23c-2.72.33-.77,2.49-.39,3.88a1.7,1.7,0,0,1-.71,2.14C573,750.45,570.14,754.07,564.24,756.21ZM728.05,462.72c2.24-1,1.82-2.46,2.37-3.38,1.18-2,3.54-3.3,5.35-2.34,2.18,1.16-.38,2.69-.87,4.06-1.93,5.4-8,9.29-5.92,16.17.34,1.16-.7,3.08,1.12,3.33,1.53.21,1.86-1.64,2.44-2.8a61.81,61.81,0,0,1,5.91-9.77c4.75-6.29,6.54-6.35,10.19.69.37.71.29,1.66.67,2.37a1.16,1.16,0,0,0,2,.24c1.75-1.89.59-4.12.55-6.21,0-1.19-.08-2.65-1.69-2.48-3.11.33-4.39-1.9-5.94-3.81-.93-1.15-3.75-1.83-2.09-3.69a5.56,5.56,0,0,1,5.94-1.5,10.18,10.18,0,0,1,2.3,1.81c1.51,1.17,2.3.39,2-1.12-.78-4.57-1.45-9.18-3.34-13.49-.44-1-1.1-1.68-2.27-1.47a1.47,1.47,0,0,0-1.3,1.81c.56,2.77-1.39,2.81-3.22,3.26-3.07.76-6.13,1.59-9.12,2.62-2.57.89-4.8,1.92-7.23-.69-1.63-1.74-2.38,0-2,1.49C725.2,452.76,726.64,457.66,728.05,462.72Zm-96,132.64a3.21,3.21,0,0,1-1.56,2.56c-6,3.77-12.06,7.59-18.1,11.38-1.82,1.15-3.53,1.67-5.28-.35-1-1.13-2.09-.9-2.53.72C604,611.85,611,621,613.23,621a3,3,0,0,0,1.75-.67c6.07-5.25,13.39-8.58,20-13,.8-.54,1.84-1.47,2.54-1.3,5.47,1.37,3.17-2.14,2.28-3.91-2.61-5.18-5.67-10.12-8.33-15.28-1-1.87-1.85-3.39-4.05-2.16s-6,2-5.91,5.27c0,2.76,3.08,1.75,4.9,1.84C629.11,591.88,631.26,592.61,632.07,595.36Zm-15.38-29.28c1.45,2.47-.91,3.55-2.4,4.51-5.87,3.76-11.89,7.27-17.86,10.87a2.53,2.53,0,0,1-3.23-.13c-.82-.71-1.59-2.09-2.84-.86-1,1-.18,2.22.29,3.23,2,4.36,4.15,8.69,6.26,13,.51,1.06,1.11,2.22,2.59,1.65,1.18-.45,1.08-1.59.85-2.57-.66-2.95.79-4.31,3.2-5.89,5.27-3.45,11.22-5.77,16-9.94,1.66-1.43,3.33-1.11,4.9.36a1.8,1.8,0,0,0,2.31.22,2,2,0,0,0,.52-2.69,66.58,66.58,0,0,0-8-13.2c-.48-.64-1.18-1.31-2.11-.92S616.4,565,616.69,566.08Zm-247-200.48c-1.31.19-2.66,1-3.39-.27s.59-2.13,1.37-2.91c1.49-1.49,2.92-3.44,5.51-2.36s4,2.75,3.26,5.83c-.3,1.22-.11,3.29,1.7,2.79a8.59,8.59,0,0,0,5.23-5.05c.93-2.12-.87-3.28-2.51-4.23-4.15-2.43-8.22-5-12.51-7.19-1.65-.84-3.64-1.95-5.21,1.29-3.65,7.56-10.95,11.94-16.81,17.55-.84.81-3.14.8-1.88,2.49a14.46,14.46,0,0,0,9.59,5.66c1.31.2,2.4-.47,2-2.05-1-3.63,2.4-4.77,3.86-7a2.48,2.48,0,0,1,3.15-.81c1.12.54.88,1.67.84,2.63-.18,4.1,1.42,4,3.95,1.69a32.48,32.48,0,0,0,4-3.66c.84-1.06,2.79-2,1.8-3.72S371,365.62,369.74,365.6Zm67.67,33.23c1.23-2.28,2.71-3.84,5-4.25,1.36-.24,3.34,1.07,4-.89.71-2.24-1.81-2.34-3-3.32-.38-.32-.81-.57-1.21-.87a13.44,13.44,0,0,0-8.1-2.64c-2.64.09.6,3.15-.82,4.56-.46.47-.83,1.05-1.33,1.48-5.29,4.5-9.24,10.45-15.27,14.16-1.69,1-1.62,2.29-.4,3.7a13,13,0,0,0,5.87,3.62c2.1.71,3.69.69,3.45-2.25-.27-3.34,1.92-6.14,4.46-6.15,2.71,0,1.25,3.5,1.39,5.43.19,2.68,1.7,3.67,3.41,2.06,2.23-2.09,5.68-3.35,6.22-6.83.4-2.53,1.73-3.28,4-3.4,2.84-.14,4.94-1.84,6.84-3.73a2.14,2.14,0,0,0,.18-3.14c-.76-.82-2.17-1.09-2.62-.22C446.44,402,441.46,398.05,437.41,398.83Zm338.77,176c-.06-5.52-.59-9.94,3.9-11.5,3.53-1.22,5.64,1.83,7.55,4.48,1.42,2,1.44,6.31,4.56,5.36s.15-4.4.49-6.76-.21-5.25-2.94-5.58c-4.08-.5-8.16-1.79-12.37-1a11,11,0,0,0-7.91,5.51c-5,8.66-1.65,22.71,6.66,28.13,5.71,3.72,14.35,2.09,17.22-3.28.7-1.3,1.75-3,.19-4s-2.51.64-3.48,1.77c-3.34,3.9-5.93,3.93-9.48.11C776.65,583.8,776.58,578.38,776.18,574.78Zm-395.58-182c8.57.33,13.32-5.23,18-10.69,2.37-2.79,4.2-6,8.39-6.25,1-.06,2.41-.72,2-1.74-1.36-3.11-4.31-4.55-7.39-5.16s-2.59,1.69-2.19,3.56a3,3,0,0,1-.7,2.78c-3.52,3.94-6.61,8.32-11.1,11.33a8.08,8.08,0,0,1-6.64,1.3c-3.18-.75-4.31-4-1.69-5.83,5.42-3.77,8.82-9.9,15.09-12.62,2.13-.92,1.52-2.34.25-3.48-3.25-2.93-7.3-2.25-9.71,1.48a12.54,12.54,0,0,1-1.76,1.73c-3.56,3.7-7.35,7.22-10.61,11.17-3.84,4.67-3.13,7.18,1.88,10.53C376.41,392.31,378.74,392.27,380.6,392.81Zm321.91,14.11c-3.44.32-5.67-1.81-7.82-3.88-3-2.91-2.52-5.31,1.48-6.46,4.42-1.26,8.91-2.87,13.55-.74.78.36,1.67.55,2.29-.2s.14-1.51-.35-2.22a33.64,33.64,0,0,0-6.87-7.8c-.83-.65-1.66-1.35-2.61-.5-3.51,3.17-8.26,2.71-12.33,4.27s-5.74,4.19-4.2,8.42c3.28,9,14.14,14.4,23.37,11.94,3.29-.88,6.68-2.06,10.22-1.3,1.51.33,3.11,2.83,4.31,1.24,1.48-1.94-1.5-3.14-2.23-4.82a6,6,0,0,0-1.88-2.3c-1.74-1.32-4.05-6-4.94.59-.06.45-.84,1-1.39,1.16C709.59,405.24,706.05,406.06,702.51,406.92ZM376.05,621.51a1.84,1.84,0,0,0,1.41-2.94c-1.45-2.69-.27-4.86,1.07-7q4.53-7.14,9.28-14.12c1-1.51,2.19-2.78,4.43-2.67,3.56.19,3.12-1.77,1.42-3.62-2.34-2.56-4.9-4.94-7.46-7.3-1-.89-2.22-1.74-3.6-1.17-1.77.72-.59,2.29-.75,3.5-1.29,9.4-8.28,15.47-13.34,22.67a.67.67,0,0,1-.45.19c-7.54.69-2.41,3.37-.75,5.26s3.75,3.75,5.66,5.59A4.52,4.52,0,0,0,376.05,621.51ZM477.16,390.66c-1.37,0-2.08.29-2.51,1.13a2.33,2.33,0,0,0,.54,2.76,45.59,45.59,0,0,1,5.05,6.6c1.12,1.62,3.34,3.32,3.95-.55.35-2.25,2-3,3.52-3.84,4.79-2.59,9.64-5.08,14.56-7.43,1-.48,2.27-2.13,3.48-.58,1,1.23,0,2.45-.8,3.58-1.45,2.14-1.94,4.26,1.51,4.57a6.84,6.84,0,0,0,6-3.1c1.42-1.87-.06-3.3-.91-4.93-2.76-5.34-8.67-8.27-10.65-14.22a2.56,2.56,0,0,0-3.8-1.26c-1.83.94-4.48.6-5.33,3.16-.4,1.24-.36,2.38,1.3,2.58,1,.12,2,0,3,.1,1.37.15,3.33-.6,3.67,1.52.26,1.67-1.39,1.93-2.59,2.52-2.38,1.18-4.65,2.57-7,3.78C485.88,389.2,483,396.48,477.16,390.66Zm248.4,31.44c.66,0,1.33,0,2,0,6.51.21,9.43,4.22,7.53,10.38-.51,1.65-.43,3.13,1.56,3.45a6.87,6.87,0,0,0,6.46-1.86c1.49-1.68-.44-3-1.22-4.37a31.11,31.11,0,0,0-3-4.59c-5.94-7.09-13.09-11.75-22.83-11a8.49,8.49,0,0,0-7.45,11.79c3.08,7.28,9.14,11.17,16,14.1,1,.42,2.12.57,2.67-.45.67-1.24-.07-2.24-1.22-2.85a67.47,67.47,0,0,1-7.48-4c-4.3-3-3.87-7.06.62-9.59C721.31,422,723.41,422.2,725.56,422.1ZM419.87,377.31c-12.27,1-18.35,7-23.09,14.75-3.45,5.61-.72,11.18,5.81,12.15A17,17,0,0,0,409,404c2.34-.59,6.52-.68,5.73-3.89-.69-2.79-3.9-.37-6,.08s-4.1.67-5.39-1.35.52-3.31,1.42-4.84c2.39-4.1,6-7.08,9.51-10,1.83-1.52,4.26-3,6.83-1.46,3,1.78,1.09,4,.21,6-.46,1.07-1.11,2.27.09,3.16s2.28.27,3.15-.55c1.68-1.6,3.32-3.25,4.85-5,1-1.11,1.17-2.43-.22-3.43C425.65,380.21,422.52,376.6,419.87,377.31Zm264.26-3.75c2.59-.65,4.66-2.2,7,.31,1.75,1.89,3.8,3.35,2.31,6.33-.44.88-.9,2.13.45,2.47,1.9.49,4.06.92,5.76-.33,1-.71.72-2.24-.09-3.19q-6.44-7.56-13-15c-1.46-1.65-2.41-.8-4.35.12-5.6,2.66-11.46,6-18.15,3.15-1-.42-2-.76-2.65.23s.25,1.88.91,2.61c2.13,2.32,4.25,4.65,6.46,6.9,1.51,1.54,2.77,3,4.23-.47.91-2.17,3.88-2.12,6.13-2.1a2.15,2.15,0,0,1,2.05,2.42c-.91,6.84,3.23,4.3,6.45,3.58,1.28-.29,3-.19,3.15-1.84.18-1.81-1.53-1.77-2.81-2.05A5,5,0,0,1,684.13,373.56ZM649.29,327.2c-7.17.08-12.81,3.71-19.1,1.35-1.52-.57-2.67.62-1.81,1.73a107.21,107.21,0,0,0,8,8.76,1.47,1.47,0,0,0,2.22-.09c4.44-4.89,10.47-4.38,16.23-4.77,1.83-.12,2.93.63,2.59,2.64-.27,1.59-1.3,3.56,1.2,4,1.73.33,4,.35,5.16-1.1,1.57-1.92-.5-3.53-1.57-4.69q-6.6-7.12-13.67-13.8a5.38,5.38,0,0,0-6.09-.84c-.93.42-1.88.95-1.9,2.09,0,1.33,1.08,1.51,2.09,1.65A11.17,11.17,0,0,1,649.29,327.2ZM759.12,579.77c0,2.63,0,4.79,0,7a3.3,3.3,0,0,1-2.69,3.66c-1.8.42-2.81-.88-3.5-2.22a13,13,0,0,1-1.16-3.75c-.74-4.92-1.3-9.86-2.08-14.77-.22-1.37-.48-3.19-2.71-2.72a2.91,2.91,0,0,0-2.57,3.18c.37,7.15.88,14.31,4.35,20.77,1.87,3.48,5.38,3.89,8.73,3.1s4.17-3.56,4.12-6.62c-.11-5.48-.37-11-.41-16.44a41.87,41.87,0,0,1,.68-6.4c.22-1.44,2.94-2.84.81-4.19-1.92-1.22-4.52-.62-6.79-.19-1,.19-1.08,1.27-.56,2C759.13,567.67,758.52,574.06,759.12,579.77ZM748.55,742.83c2.69,2.74,2.31,5.85,3,8.55.54,2.07,1.44,3.23,3.82,2.86s3-1.89,2.53-3.94c-.85-3.72-1.85-7.4-2.77-11.1-.28-1.1-1-1.25-1.87-.87s-1.56,2.38-2.75.87.61-2.32,1.24-3.4a25.83,25.83,0,0,0,1.43-2.63c.61-1.44,2-3.37-.59-4-2-.44-4.65-1.62-5.39,2.19-1.45,7.4-5.24,13.93-8.19,20.77-.44,1-1.83,2.13-.76,3.05,1.48,1.29,3.49.29,5.27.25,1.19,0,2.82-.47,2.37-1.87C744.55,749.47,747.88,746.87,748.55,742.83Zm-8.27-176.09c.39-8.15-1-9.59-8.88-9.48-4.48.06-5.42,1.59-3.65,5.79a8,8,0,0,1,1,3.24c-.3,5.48-.82,11-1.23,16.43-.13,1.73-1.26,4.17.9,4.83,1.58.49,3.07-1.58,4.4-2.84,1.71-1.64.59-3.82,1.14-5.68.25-.85-.15-2.57,1.24-2.14,8,2.44,2.16-3.49,4-4.91-2.65-1-2.77,2.59-5.14,1.26a41.14,41.14,0,0,1,.05-5.76c.32-2.2-1.37-5.6,1-6.35,2.9-.91,2.42,3.21,4,4.69A14.72,14.72,0,0,0,740.28,566.74Zm-128,182.78c-.94.09-2.3-.8-3,.62s.48,2.05,1.37,2.82a2.74,2.74,0,0,1,.62,3.59q-3.35,7.19-6.64,14.4c-.5,1.09-2.23,2.25-.6,3.36,1.29.87,2.85-.51,3.31-1.47,2.57-5.44,7.67-9,10.41-14.25C621.14,752,620,749.92,612.27,749.52Zm87.57-15.18c-2.05.28-4.87.33-4.14,3,.61,2.26-.56,3.07-1.54,4.23-2.84,3.34-4,7.62-6.42,11.19-1.58,2.33,0,4.12,1.39,5.78s3.31,2.94,5.66,2.08c1.26-.47,3.4-1.18.81-2.93-2.82-1.9-2.42-4.08-1.19-6.9a103.3,103.3,0,0,1,6.84-13.12C702.6,735.51,702.74,734.36,699.84,734.34Zm29.22-1.69c-9.65,2.31-15.35,14-14.66,20,.3,2.6,1.71,5,4.84,5.59,1.29.25,2.57,1,3.57-.41.82-1.19.16-2.27-.61-3.13-2.35-2.61-1.63-5.13-.72-8.23A38.54,38.54,0,0,1,729.06,732.65Zm55.87-6.57c-1.39.16-3.35.1-2.58,2.71.65,2.2-.59,3.76-1.4,5.57-2.08,4.65-5,8.92-6.41,13.9-.5,1.74-1.19,3.38,1.35,3.72,2,.26,4.14.45,4.3-2.59.37-7.12,4.13-13,6.95-19.27.45-1,1.8-1.76,1.19-3S786.35,726.18,784.93,726.08ZM580.47,778.22c.62-.17,1.64-.15,2.07-.64.6-.7,0-1.56-.63-2.15a19.69,19.69,0,0,1-4.9-8.51c-.44-1.32-1.17-3.46-3-2.5-2.21,1.18-4.88,2.55-5.06,5.57-.18,2.8.77,5.5,3.56,6.56C575,777.48,577.68,777.67,580.47,778.22Zm92.78-34.71c-3.68,5.33-7.49,9.73-9.55,15.31-.8,2.15.32,3.14,2.46,3.14,1.65,0,3.55.33,3.2-2.42-.5-3.87,1.76-6.93,3.4-10C673.67,747.79,674.49,746.46,673.25,743.51ZM761.8,521.92c1.92-3.87.42-6.66-.64-9.25-.86-2.14-3.12-1.18-4.82-.83-1.41.29-3,.52-3.3,2.42-.34,2.31,1.52,2.7,3,3.17C758.34,518.13,759.94,519.67,761.8,521.92ZM638.7,619.26c2.46-1.1,5-2.68,5.68-5.82.37-1.72-.15-4.21-2.49-4-3.8.4-4.46,3.91-5.27,6.9C636.27,617.66,636.35,619.1,638.7,619.26ZM386.79,562c.17-1.32-6.46-9.75-7.55-9.67-1.81.14-1.72,1.42-1,2.45q2.79,3.79,5.89,7.34C384.93,562.94,386.12,563.42,386.79,562ZM732.42,593c1.14-.24,3.22.58,3.11-1.31a3.51,3.51,0,0,0-4-3.5c-1.42.21-3.72.52-3.5,2.72C728.31,593.51,730.66,592.85,732.42,593Zm12.47-33.77c-.83.09-2.73-.3-2.14,1.77.43,1.51.2,4.16,2.66,4,1.61-.1,3.69-.85,3.68-3.21C749.08,559.26,747.21,559.14,744.89,559.24Zm-250-187.44c.82,0,2-.21,1.75-1.87a3.26,3.26,0,0,0-3-2.92,2,2,0,0,0-2.23,2.18C491.42,371.1,492.75,371.67,494.86,371.8ZM740.29,731.55c-.15-1.8-1.22-2.29-2.73-2.19s-2.42.94-2.07,2.59c.28,1.33.83,2.76,2.38,2.69C739.67,734.56,740,732.9,740.29,731.55Zm4.88-204.61c-1.22-.09-1.82.49-1.47,1.42.62,1.69-.17,4.25,2.55,4.73,1,.17,2.3-.35,1.94-1.52C747.64,529.78,747,527.84,745.17,526.94Z" transform="translate(-4.6 -18.97)"/><path d="M150.11,183.69c-9.4-2-18.93-3.57-27.1-9.23s-12.17-13.91-13.91-23.24c-3.34-17.87.16-35.34,4.21-52.65,1-4.21-.4-4.73-3.71-4.51-24.09,1.56-48.23.93-72.34,1.8-2.64.09-3.88.75-4,3.65-.91,23.08-8.22,45.4-8.27,68.62,0,3.08-1.55,6.15-.76,9.34.52,2.07-1,2-2,1.64-4.8-1.54-9.91-.64-14.76-2.19-2.55-.82-3.07-1.95-2.83-4.27,1.39-13.34,1.89-26.82,4.47-40,5.06-25.73,5.27-52.1,10.57-77.79,1.11-5.37.2-11,1.72-16.35.41-1.47-.4-2.93-1.29-4.19-.75-1.08-2.9-1.22-2-3.42,1.4-3.35,2.53-6.83,4.64-9.83.21-.3.92-.4,1.38-.37,16.91,1.1,33.71-3.09,50.61-1.28,14.88,1.59,29.78,3,44.72,2.16q22.94-1.21,45.85-1a18.08,18.08,0,0,1,4,.26c1.68.42,2.74,1.47,1.38,3.26-3.72,4.87-6.5,9.43-14.72,9-18.72-.94-37.55-.06-56.32.31-13.49.27-26.9-1-40.34-1.62-5.85-.27-11.62.75-17.43.9-2.62.07-3,1.34-3,3.45.11,5.47.49,11,.08,16.42-.51,6.91-1.87,13.76-2.5,20.68-.21,2.31-2.6,7.58,4.15,4.49,1.36-.62,3.79,1.53,6.22,1.5,7.14-.08,14.25-.65,21.37-.94,11.38-.48,22.8-.2,34.2-.29,4.65,0,9.16-1.63,13.87-1.17,2.31.23,3.25-1.61,3.79-3.34.83-2.66,2.38-2.78,4.61-2,3.44,1.24,6.88,2.51,10.4,3.46,3.15.84,3,2.33,2.31,5.15-5.43,20.72-11.25,41.47-10.71,63.13.29,11.49,2.17,22.89,11.32,31.44a45.32,45.32,0,0,0,8.61,5.9c1.38.79,3.29,1,3.46,3.12Z" transform="translate(-4.6 -18.97)"/><path d="M511.55,215.89c-7.69,1.65-15.18.63-22.66-.71-8.65-1.55-17.35-2.89-25.95-4.69-5.74-1.2-10.05,1.44-14.21,4.44-13.83,10-29.13,15.83-46.21,15.36-10.37-.29-20.81-1.64-30.51-6.08-1.13-.52-2.37-1.87-3.61-.81s-.51,2.46-.2,3.77c2.45,10.5,4.78,21,7.37,31.48,1,3.93-.24,5.05-3.88,3.88-3.32-1.06-6.59-2.29-9.84-3.56-1.86-.73-2.58-2.28-3-4.23-4.37-19.43-9.11-38.78-13.16-58.28-2-9.77-1.74-19.86-1.93-29.84-.41-22.71-4.57-44.83-10.59-66.67a79.3,79.3,0,0,1-3.28-20.65c0-3.31.84-4.77,4.28-3.57.31.1.65.13,1,.22,11.24,2.89,11.83,3.51,12.22,15.12.15,4.26,1.68,8.12,2.72,12.14,4,15.57,8.29,31.15,9.8,47.18.95,10.07.5,20.31.19,30.46-.15,5,1.51,6.52,6.32,6.05a55.68,55.68,0,0,0,30-12.2c3.58-2.87,3.13-7.71,0-12.68-2.42-3.88-6.26-6.36-8.93-10-5.79-7.84-4.75-14.11,2.94-20.46,9.58-7.92,20.94-12.85,31.38-19.32,6.64-4.12,13.52-7.86,20.34-11.67,1.29-.72,2.94-2.39,4.19,0,.92,1.79.6,3.28-1.19,4.74-7.28,6-15.62,10.07-24,14.1-10,4.83-20.21,9.37-28.06,17.68-5.38,5.71-5.43,9.57,0,16,2.57,3.06,5.3,6,7.67,9.19,3.63,4.93,3.29,9.59-1,13.88-8.87,8.88-19.89,12.16-32.19,12.22-2.41,0-6.19-1.82-6.67,2.82-.62,5.92,1.64,9.94,6,10.65,4.5.73,8.16,1.73,9.44,7.25.91,3.92,3.42,7.55,5.56,11.1,2.88,4.76,7,6.79,12.88,6.56,11.29-.45,22.09-2.34,32.26-7.42a15.42,15.42,0,0,0,7.94-8.5c1.61-4.2,4.16-5.11,8.9-4.73a278.29,278.29,0,0,1,32,4.34c8.26,1.65,16.54,1.21,24.83,1.16C504.83,211.69,508.21,213.53,511.55,215.89Z" transform="translate(-4.6 -18.97)"/><path d="M150.11,183.7c5-2,10.23-.63,15.35-.93,8.46-.5,16.76-1.81,22.73-8.51,4.66-5.23,7.75-11.58,10.62-18,7.55-16.88,9-34.91,10.15-53,.37-5.8,1.19-11.56,1.69-17.35.22-2.49,1.37-3.18,3.65-2.47,4,1.24,7.93,2.43,11.89,3.65,2.27.7,3.38,2,2.43,4.48a6.67,6.67,0,0,0-.56,2.41c0,1.78-.91,4,.71,5.23,2,1.54,3.43-.76,4.68-1.69a66.52,66.52,0,0,1,39-13.12c12.11-.28,24.16-1.85,36.32-1.45,7.66.25,15.61,6.57,16.08,14.19.43,6.88,2.57,13.77.54,20.73-.37,1.29.6,3.63-1.46,3.54a3.91,3.91,0,0,1-3.6-3.59,9.42,9.42,0,0,1,.11-4c2.4-6.19-.34-12.18-.43-18.26,0-3-1.59-4.2-4.48-3.94-13.2,1.23-26.48,1.21-39.71,2.19-16.3,1.2-29.37,8.59-41.22,18.91-5.54,4.82-10.19,9.88-10.24,18.33,0,7.39-2.16,14.74-4.82,21.81-2.5,6.65-2.18,13.75-1.68,20.63.77,10.72,2.08,21.39,7.74,31,6.94,11.79,14.17,23.11,28.77,26.45,8.73,2,17.57,3.41,26.44,4.66,6.29.89,12.67,2.23,18.79.63,18.25-4.76,20.74-11,22.89-27.93.73-5.76.35-11.65.5-17.48,0-1.32-.07-2.9,1.37-3.47s1.76,1.22,2.71,1.74c6.72,3.7,7.68,9.7,6.44,16.43-1,5.71-2.3,11.39-3.64,17-3.28,13.8-20.39,21.87-33,20-8.88-1.28-17.72-2.85-26.57-4.23-22.88-3.56-39.88-15.51-52.29-34.65-4.27-6.59-7.95-13.45-9.75-21.17-.43-1.86-.95-4.33-3.37-2.39-9,7.2-19.89,5.56-30.15,6.45-8.33.73-16.41-2-24.63-3Z" transform="translate(-4.6 -18.97)"/><path d="M40.5,276.3a41.81,41.81,0,0,1,16.2,3c9.67,4,18.72,9.51,29.08,11.75,3.52.76,8.25,2.52,10.28-.22,1.78-2.4-2.28-5.69-3.9-8.49-2.8-4.83-7.09-8.63-8.46-14.52-1.74-7.55,1.86-13.12,5.44-18.89.34-.56.91-1,1.3-1.51,7.12-10,5.43-10.64-4.15-12.89-19.24-4.51-37.81-11.33-56.73-17-.73-.22-1.36-.8-1.89-2.2,5,.88,10.3,1,14.94,2.8,13.49,5.27,27.4,9.21,41.15,13.67a123.29,123.29,0,0,0,35.44,6.44c7.88.18,15.77,1.92,23.72,1,3.6-.42,7.5-.59,10.64-2.14,6.51-3.19,11.39.25,17.79,2.77-5,3-9.54,3.16-14,3.33a207.47,207.47,0,0,1-45.67-3.33c-3.13-.58-5.16-1.4-4.84,3.58.24,3.79-2.19,7.55-4.46,10.93-4.71,7-5.3,14.35-1.62,22,1.89,3.89,4.11,7.63,5.81,11.6,2.26,5.26,6.67,4.49,10.56,3.6,8.86-2,17.94-3.4,26.35-7.14.61-.27,1.47-.24,1.86-.67,5.58-6.15,11.33-2.31,17-.32,1.21.42,2.95.63,3.06,2.17s-1.57,1.9-2.75,2.46a89,89,0,0,1-32.29,7.85c-5.11.33-10.25,1.47-15.42.5-2.44-.45-3,1.18-3.67,3.06-3.06,8.22-14.25,13.85-22.85,11.66-.76-.19-1.83.06-2.11-.92-.37-1.27.85-1.57,1.61-2.15,3.16-2.43,6.57-4.58,9-7.86,2.63-3.62,2-5.27-2.5-6-13.15-2-26.11-4.66-38.19-10.58C51,281.12,45.74,278.75,40.5,276.3Z" transform="translate(-4.6 -18.97)"/><path d="M191.75,232.14a148.84,148.84,0,0,1,17.89,18.56c6,7.14,11.66,14.5,16.21,22.63,2,3.61,4.67,4.38,8.52,4.48a140.34,140.34,0,0,1,56.74,13.68,46.4,46.4,0,0,1,14.32,10.11c-5-.22-7.72-2.58-10.49-4.44-10.29-6.93-22-10.14-33.78-13-7.86-1.9-15.87-3.58-24.08-3.63-2,0-4.28-.89-5.69.77-1.68,2,.6,3.6,1.27,5.36,4.5,11.67,6.1,23.46,3.82,36a185.12,185.12,0,0,1-13.62,43.12,30.45,30.45,0,0,1-6.93,9.55c-.92.87-2.25,2-3.55,1.15-1.66-1.13,0-2.3.46-3.42,7.42-19.36,15-38.68,17.28-59.52,1.09-10.06.11-19.88-4.26-29.25-1.29-2.76-2.69-3.82-5.71-3.19a88.12,88.12,0,0,0-19.33,6.49c-1.76.81-3.81,2-4.66,3.55-1.58,2.94-3.64,3.55-6.54,2.9-3.63-.8-5.64-3.28-6.9-6.56-.32-.8-.47-1.71.44-2.17s1.52.36,2,1a33.31,33.31,0,0,1,2.38,3.18c1.13,1.81,2.4,1.77,3.49.16,5.91-8.74,15.65-9.43,24.59-11.37,6-1.3,6.38-1.25,3.32-6.53-6.69-11.56-15.34-21.65-23.64-32C193.73,237.79,191,236.19,191.75,232.14Z" transform="translate(-4.6 -18.97)"/><path d="M324.61,338.22c-1.51,3.74-5.49,5-7.27,8.3V335.63c2.87,1.27-1.56,4.23,1.7,4.72C321,340.64,322,337.84,324.61,338.22Z" transform="translate(-4.6 -18.97)"/><path d="M326.77,832.17c-5.35,1.36-7.35,1.19-9.69-1C320.12,832.55,323.6,828.68,326.77,832.17Z" transform="translate(-4.6 -18.97)"/></g></g></svg>