<svg xmlns="http://www.w3.org/2000/svg" viewBox="0 0 885.25 895.09"><title>fuckyou</title><g id="Layer_2" data-name="Layer 2"><g id="Layer_1-2" data-name="Layer 1"><path d="M886,397q0,247.18.13,494.37c0,4.3-1.19,4.73-5,4.72q-437.62-.15-875.26,0c-3.81,0-5-.42-5-4.72Q1.1,644.19,1,397l118.49.05c5,0,10-.13,15,0,3.38.06,3.32-.57,2-3.65-2.52-5.7-6.72-10.57-8.17-16.75-.29-1.22-1.26-2.92.4-3.46s1.84,1.42,2.37,2.59c2.54,5.68,5,11.41,7.66,17,1.68,3.53,3.63,4.31,7.2,4.31q69-.18,138-.09c11.19,0,9.51,1,9.24-9.18-.2-7.45,1.46-14.83.28-22.33-.58-3.69-1.64-6-5.58-6.1a14.66,14.66,0,0,1-3.81-.94,216.34,216.34,0,0,1-20.85-8c-9.64-4-15.38-12.06-22.13-18.64-5.07-4.93-8.62-12.28-12.45-18.8-3.39-5.75-7.83-5.93-12.42-.82-2.66,3-5.33,5.94-8,8.87-1.2,1.3-2.58,2-4.46,1.34a15,15,0,0,1-10-10.87c-1.93-6.91-2.11-14.31-6.2-20.68-3-4.61-4.43-10-6.27-15.16-1.16-3.28-3.35-5.95-7.66-5.93q-29,.17-58,0c-4.61,0-6.22,2.17-6.16,6.44.11,6.33,0,12.66.1,19,0,3.27-.32,6.47,1.64,9.6,1.5,2.4,1.75,13.87.76,17.26-6.09-30-6.59-58.88-3.05-87.94a57,57,0,0,1,.11,13.5c-1.5,11.18.63,15.89,12.06,15.54,18.65-.58,37.32-.34,56-.5,2.21,0,4.11.55,5,2.6,1.78,4.27,5.22,5.12,9.28,5.08,7-.06,14-.11,21-.05,5,0,8.09,2.9,7.5,6.29a30.05,30.05,0,0,0,1.63,15c.28.8.57,1.74,1.56,1.64,1.3-.12,1.47-1.33,1.34-2.29-.61-4.54.08-9.2-1.42-13.66-1-2.92,1.86-6.88,5-6.89,20.33-.06,40.66,0,61-.06,3.94,0,5.84,1.92,5.85,5.8q0,25.25.07,50.49c0,1.28.3,2.89-1.34,3.4s-2.36-1.05-3.11-2a44.75,44.75,0,0,1-7.59-16.26c-1.83-6.91-3-14.41-11.53-17-1.4-.42-2.41-2.2-3.57-3.38-5.87-6-14-4.76-17.73,2.69-2.27,4.59-6.21,7.3-10.77,9-5.48,2.06-6.92,6.49-3.22,11.13,1.55,1.95,2.87,4,4.24,6.08,2.08,3.15,3.34,6.9,6.36,9.43,9.44,7.89,19.16,15.27,30.75,19.92,7,2.8,14.61.5,17.34-5.71a9.7,9.7,0,0,0,.43-6.34c-.38-1.63-.22-2.81,1.63-2.73,3.71.16,3.86-2.14,3.86-4.89,0-18.16-.37-36.31,1.52-54.42.4-3.8,1.64-5.33,5.47-5.24,7.46.16,14.93,0,22.4,0q16.26,0,32.5,0c6,0,7,1.07,6.81,6.93a37.76,37.76,0,0,0,.09,5,2,2,0,0,0,1.1,1.41c1.1.26,1.36-.68,1.4-1.53a27.17,27.17,0,0,1,0-3.5c.73-3.87,1.88-7.64,6.52-8.29,3.9-.55,7.87-.66,11.81-.9,2.43-.16,4.72,2,7.26.51,2.76-1.59,5.29-2,8.39-.17,2.72,1.62,4.82-1.3,7-2.55a2,2,0,0,0,.66-3.05c-1.46-2-3.54-2-5.78-2.2s-4,1-6.31.82c-6.69-.65-13.44-1.23-20.16-.32-2.7.37-4.67.45-6.07-2.57-1.11-2.41-6.21-2.64-6.95-.36-1,3.12-3.09,2.51-5.11,2.51-18.17,0-36.34-.07-54.5.08-4.84,0-6.43-2.15-6.53-6.65-.15-6.42,1-12.92-1.35-19.25a9.27,9.27,0,0,1,.29-5.9c2.5-7.47.67-15.18,1.06-22.77a3.75,3.75,0,0,0-3.33-3.85c-2-.3-2,1.65-2.79,2.86a11.16,11.16,0,0,0-1.43,6.65c.16,7.9.15,15.81.17,23.72,0,6.33,0,12.66,0,19,0,3.25-1.3,4.89-4.74,6.45-3.7,1.67-6.28,0-9.27-.43-5.93-.78-11.79,2.25-17.72.1a3,3,0,0,0-2.35.59c-2.74,2.24-6,1.7-8.58.68-3.94-1.58-7.82-1.18-11.76-1.28-4.5-.12-9.53,1.18-13.36-.43-4.75-2-7.8-1.67-12.8-.17-7.19,2.14-15.51.67-23.33.46-3.21-.09-4.56-2.28-1.87-4.51,6.09-5,8.46-12.22,11.52-18.94,2.63-5.75,7.57-7.74,12.89-8.5,6.68-1,13.06-5.31,14.45-11.9,1.91-9.05,7.2-16.2,12.81-23A120.49,120.49,0,0,1,257,178.55c6.33-5.22,13.92-7.36,20.88-10.9a19.75,19.75,0,0,1,8.91-2.42c5.59.11,8.67-3,8.67-8.48q0-61.24-.06-122.49c0-4.36-2-5.95-6.36-6.44S281.23,30,277.1,30.27c-5,.34-9.88,1.7-14.79,2.75-6,1.29-11.37,4.51-17.08,6.3-14,4.4-25.67,12.55-37.53,20.57-8.25,5.57-14.93,13.3-24.16,17.54a4.7,4.7,0,0,0-2.34,2.49c-1.11,3.56-3.74,6.08-6.39,8.13-4.1,3.17-7.26,7.09-10.71,10.83-1.68,1.83-1.64,5.54-5.62,5.47a7.72,7.72,0,0,1,.49-1.69c5.17-8.54,11.83-15.77,18.95-22.75,10.7-10.5,21.32-21,33.87-29.41a177.92,177.92,0,0,1,37.94-19.73c7.18-2.63,14.24-5.24,22-6.43,5.44-.83,11.34-2.77,16.66-3.07,15-.86,30.19-1.43,45,2a180.5,180.5,0,0,1,41.35,15.18c19.23,9.82,35.73,23.12,51.14,37.82a139.8,139.8,0,0,1,25.51,33.3c1.84,3.31,3.75,3.49,5.19.16,1.18-2.72,3.18-4.62,4.9-6.84,7.62-9.84,14.56-20,24-28.66,9.74-8.94,19.53-17.53,30.45-25a166.12,166.12,0,0,1,40.75-20.71,141.88,141.88,0,0,1,16.15-4.08c6.69-1.41,13.31-3.67,20.13-3.43,11.36.39,22.71-1.33,34.14,1.53,6.68,1.68,13.79,2.1,20.47,4.19,16.66,5.2,32.66,12,46.83,22.25,4.4,3.18,9.38,5.43,13.37,9.4,3.74,3.73,7.69,7.43,11.73,10.8,10.47,8.73,19,19.16,28,29.29.8.9,2.23,2.18.45,3.27-1.32.81-2-.55-2.51-1.64-3.13-6.39-9.53-9.82-14-15a52,52,0,0,0-11.12-10.28c-5.57-3.59-11-8.23-16.3-12.56a142.9,142.9,0,0,0-36.54-21.53c-9.26-3.76-18.36-7.28-28.29-9.15-4.23-.79-8.83-.47-12.93-2.58-7.6-3.92-12.81-.61-12.93,8,0,1,0,2,0,3q0,51,0,102c0,4.66-.25,9.35.11,14,.3,3.8,1.19,8.32,5.53,9a86.31,86.31,0,0,1,10,2.29,70.35,70.35,0,0,1,20.94,9.63c8.08,5.54,13.82,13.29,20.13,20.5,5.14,5.88,9.14,12.47,10.89,20.24,1.53,6.82,7.44,11.39,14.09,12.23,5,.63,10.25,2.32,12.7,7.34,3.39,7,5.81,14.42,11.8,19.88,2.52,2.3,1.73,4.55-1.56,4.67-7.82.28-16,1.46-23.37-.45a21.67,21.67,0,0,0-12.31,0c-9.58,2.3-20.05-.46-30,2.21-6.19-3.83-12.94.39-19.42-1.39a16.05,16.05,0,0,0-10.23,1.07c-3.81,1.59-9.12-2.83-9.13-7.07,0-14.67,0-29.33,0-44,0-1.66,0-3.33-.11-5a3.38,3.38,0,0,0-3.1-3.37c-1.79-.28-2,1.16-2.62,2.38-2.91,5.89-1.64,12.26-1.14,18.15.76,9,3,17.87-.33,26.82a4.81,4.81,0,0,0,.25,2.9c1.78,5.35,0,8-5.47,8q-24.25,0-48.5,0c-12.07,0-12.07,0-13.29-12.09,0-.33,0-.66,0-1-.12-1.34-.75-2.18-2.21-2.13a2,2,0,0,0-2.07,2.28,33.94,33.94,0,0,0,.23,6c.76,4.3-2.61,8.73-6.66,7.81-9.67-2.21-19.4.36-29.06-.8-3.67-.44-4.61,2.52-3.14,4.85,1.3,2,3.83,4.43,7.06,2.62,1.37-.77,2.77-1.69,4.19-1,6.62,3.21,13.61.44,20.43,1.43s8.08,1.2,8.74,8.41c.12,1.19-.54,3.15,1.46,3,1.8-.12,1.25-2,1.32-3.25.31-5.57,2-7.76,6.8-7.8,18.74-.12,37.48-.08,56.22-.08,1.5,0,3.69,0,3.38,2-.87,5.64,2.3,10.59,2.24,16.08-.15,13.33,0,26.66-.11,40,0,2.91.44,5.7,3.73,6.09s3.47,2.35,3.36,4.86c-.08,1.66,0,3.33,0,5,.08,4,1.85,5.63,6.08,6.14,8.59,1,15.34-3.37,22.4-6.67,5-2.35,8.81-6.91,13.41-9.87,8.33-5.36,11.46-14.3,16.81-21.67,2.47-3.4.21-7.41-3.84-9.1-4.3-1.8-7.81-4.06-10.17-8.74-4.64-9.19-12.72-8.63-19.17-2.63a20.38,20.38,0,0,1-5.46,4.19c-5,2.23-6.92,6.27-7.75,11.71-1.1,7.13-3.52,14.06-8.45,19.68-.85,1-1.46,3.11-3.39,2.16-1.59-.78-1.81-2.52-2.14-4.23-.47-2.38,1.62-3.91,1.4-6.19-.57-5.92-1.09-11.86-1.25-17.81-.21-8-.08-16-.08-24,0-5.5,1.27-6.85,6.7-6.86q28,0,56,0c4.57,0,9.73-1.06,10.83,6.93,2.61-5.62,6.07-7.05,10.44-7,6.83.09,13.67,0,20.5.07,3.38,0,6.6-.81,8-3.92,1.47-3.31,3.76-3.72,6.79-3.72,14.83.05,29.66-.05,44.49.05a47.1,47.1,0,0,1,10.86.86c7.07,1.67,12.54-3.42,12.67-10.75,0-2.27-.61-4.68.86-7.34,1.84,11.73.17,50.86-2.46,55.11-1.15-2.63-.61-5.13-.66-7.55-.14-6.19,2.46-12.12.51-18.65-1.13-3.77-2.38-4.75-5.86-4.73-19.33.09-38.67,0-58,.07-4.52,0-7.69,2.91-8,7.57a13.87,13.87,0,0,1-2.44,7.5c-6.39,8.15-7.27,18.1-9.88,27.52a12.77,12.77,0,0,1-9.91,9.65c-3.5.74-5.57-2.38-7.73-4.61s-3.89-4.59-6-6.67c-3.54-3.46-7.89-2.36-10.93,1.5s-4.51,8.77-7.53,12.82c-4.37,5.85-9.48,10.79-14.47,16-8.81,9.24-19.69,13.71-31.46,16.38-9.62,2.19-11.69,3.89-11.69,13.82,0,6.83.24,13.68-.1,20.5-.22,4.32,1.44,5.32,5.45,5.3,25.17-.15,50.33-.08,75.5-.09q33.75,0,67.5-.07c1.81,0,3.69.65,5.2-1.73,4.27-6.69,6.33-14.41,10.32-21.22,1.65-2.82,3.33-5.87,3.92-9,2.48-13.11,9.4-25,10.67-38.4.1-1.1.89-2.39,2.4-1.76a1.82,1.82,0,0,1,.69,2.61c-2.26,4.34-2.21,9.28-3.7,13.78-5.63,16.94-11,34-19.1,50-2.81,5.54-2.47,5.8,3.75,5.8ZM576,667.94c-1.19,3.61,2.72,6.76,1.32,10.08-2.63,6.25-1.91,13-2.7,19.37-.73,5.83-3.14,11.47-2.55,17.49.07.7-.57,1.53-1,2.2-.86,1.31-3.05,2.12-2.16,4.09s3.16,1.34,4.92,1.4c1.49,0,3,0,4.49,0,2.76,0,4.25-.78,2.57-3.9-1.86-3.48-1.22-7.12-.65-10.84,5.77,4.34,4.54,10.65,4.92,16.41,6.53-3.06,12.75-1.38,18.79-1.63s5.9,0,4.5-5.59c-.31-1.26,0-2.67-.24-4-1.32-8.2,2.79-16,1.82-24.12-.68-5.79,1.5-11,2.62-16.41,1.48-7.08,2-7-5.2-7-.83,0-1.67,0-2.5,0-4.19.23-5.43,2.73-3.06,6.28.88,1.33,2.76,2.14,2.24,4.16-2.23,8.81-1.29,18-3.2,26.83-.2.95.1,2.23-1.14,2.45s-1.47-1-2-1.86c-2.77-4.64-5.23-9.46-7.78-14.2-2.95-5.5-9.9-11.08-1.82-18.09,1.48-1.28.43-3.22-1.9-3.23-3.49,0-7,.14-10.46.22,1-4.28,5.78-6.54,6.13-11.16.17-2.31,1.06-3.05,3.46-2.81,3.64.37,4.5-2,2.22-4.15-3.53-3.27-2.69-5.88-.25-9a6.7,6.7,0,0,0,1.33-3.18c1.06-9.06,7.1-15.54,11.69-24.2,1,5.22-.78,9.4,1.12,13,2.1,4,.74,8.19,1.16,12.26.16,1.48-.24,3.27.45,4.4,1.65,2.72.87,4.62-1.09,6.61-.93,1-1.73,2.17-.75,3.56s9.67,3.32,11.21,2.48,3-2,1.84-3.94c-3.77-6.66-4.41-13.9-4.22-21.34.05-2.15.44-4.55-.33-6.42-2.93-7.13-1.83-14.45-1-21.59.54-4.45-.93-5.41-4.63-5.38s-7.67,0-11.5,0c-7.28,0-7.27,0-7.79,7.5,0,.58.15,1.37-1.46,1.85-1.61-5.9-3.41-11.77-4.76-17.74-.92-4.07-3.44-4.92-6.91-4.26-4.9.94-8,4.39-9.44,8.75-1.17,3.47-3,4.36-6.25,4a27.19,27.19,0,0,0-3.5-.08c-3.31,0-4.16,1.29-2.52,4.37a134.11,134.11,0,0,1,5.75,12.12c1,2.4,1.88,4.18,4.92,3.59a2.57,2.57,0,0,1,2.2.7c.75,1.09-.44,1.69-1.09,2.39-3.16,3.39-6.56,6.07-11.7,5.22a15.19,15.19,0,0,0-7.35,1.09c-5.92,2-5.92,2-.94,6.81-4.55-.74-8.33-1.58-11.94,0-.93.39-2,.69-2.17,1.82-.18,1.5,1.15,2,2.21,2.26a35.8,35.8,0,0,0,7.38,1.06c5.82,0,11.63-.38,17.45-.44,6.94-.07,14.12.93,19.51-5.08.09-.1.58.15.89.24-1.25,4.93-4.34,6.92-11.36,6.73a54.19,54.19,0,0,0-28.15,7.06c-.36.2-.56.68-.83,1,1,1.21,3.27.31,3.59,2.73a37.81,37.81,0,0,0-6.36.55c-2.49.64-6.33,1.64-6.12,4,.25,2.74,3.88,3.28,6.86,3.64,10.69,1.28,20.3-2.6,30.07-5.79,4.13-1.35,8.28-2.61,13.38-4.22-1.74,3.65-4.26,4.22-6.56,4.81-5.84,1.51-11.6,2.88-14.75,9-1.19,2.29-3.82,2.33-6.22,2.41-13.51.42-27.17.29-37.82,10.79-1,1-2.9,1.48-2.77,3.22s1.85,2.7,3.41,3.26c3.52,1.28,7.19.47,10.79.62,11.32.48,22.58-.61,33.86-.67,4.22,0,7.1-2.15,10-4.8C569.64,674.57,572,670.4,576,667.94Zm-121.5-407v0h30c6.16,0,9.6-2.1,9.74-8,.23-10.1,3.14-19.75,4-29.71.58-6.81,4.4-9.72,9.86-9.07,5.07.6,10.13,1.68,15.12,2.5s10.07,1,15.12,1.36c2,.12,3-.88,4.27-2.53,4.86-6.11,8.24-13.15,11.71-19.93,2.83-5.52,8.35-7.33,11.62-11.88,2.71-3.78,7-5.91,10.62-8.8,3.1-2.49,7.53-2.45,9.88-4.55,3.87-3.47,8.41-3.59,12.62-4.79,5.16-1.45,7.79-3.63,7.85-9,0-3.17,0-6.33,0-9.5-.37-29.08.73-58.16-1.52-87.24a269.8,269.8,0,0,1-.28-27.59c.07-2.9-.87-3.93-4-4.27-8.72-1-16.9,2.41-25.46,2.88-3.41.19-7.63,1.4-11.36,2.35-4.39,1.12-8.06,3.41-12.17,4.77-6.88,2.28-13.74,4.45-20.1,8.12-4.3,2.49-8.24,5.49-12.51,8a109.34,109.34,0,0,0-22.75,17.3c-7.21,7.23-15.19,13.6-21.25,22.29s-12.47,16.91-17.88,26c-2.31,3.88-4.89,4-6.62-.07-4.71-11.19-13.45-19.56-20.21-29.28-7.7-11.08-18.46-19.7-29.15-27.55-13-9.54-26.22-19.34-42.29-23.89-7.66-2.17-14.69-6-22.87-7.21-4.32-.62-9.14-.16-13-2-5.11-2.36-10.12-1.33-15.16-1.5-3.31-.12-5.09,2.1-5.12,5.46,0,3.83.15,7.67,0,11.5-.53,11.6-.58,23.29-.61,34.82,0,8.78-.35,17.71-.6,26.47-.46,16,0,32-.26,47.93-.13,7.1,2.34,8.9,9.25,11.47,2.68,1,5.43,1.24,8,2.21,12.68,4.7,21.83,14.35,31.79,22.84a12.85,12.85,0,0,1,2.26,3.24c4.08,6.72,8.06,13.5,12.26,20.15a7.66,7.66,0,0,0,8,3.92c6.7-.84,13.49-.68,20.16-2.09,2.09-.44,4.1-1,6.15-1.57,3.77-1.07,7.3-1.22,9.12,4,1.43,4.08,1.87,8.31,3.12,12.39,2.36,7.71,1.67,16,3.44,23.88,1.07,4.82,3.16,6.37,7.72,6.31C433.52,260.81,444,260.91,454.51,260.91ZM385,611.91c1.13,6.45,1.54,12.92,0,19.36-.41,1.69-1.85,1.52-3.25,1.45-8.71-.42-16.76-2.57-23.18-8.89-2-2-3-1.82-4.36.77-4.54,8.68-5.82,18-6,27.57-.21,14.21,3.28,28,5.13,42,2.62,19.92,3.46,40,5.34,60,1.3,13.91,9.15,23.59,22,25.15,13.21,1.62,26.16-.89,38.71-4.82,17.95-5.61,33.85-15.26,49-26.14,9.26-6.64,8.69-6.57,5.51-17.46-6.48-22.13-7-44.14,2.54-65.84,3.93-8.91,10.71-13.67,19.52-16.28,4.91-1.45,5.33-2,1.95-5.93-11.6-13.54-13.07-29.22-10.47-46,1.54-10,3.16-19.82,2.47-30.11-1.66-25-22-41.71-47-42.14a180.07,180.07,0,0,0-19.62.55c-4.32.4-8.94.28-13.45,2.51-7.58,3.74-16,8-23.84-.15a27.84,27.84,0,0,0-2.77-2.13c-1-.79-1.81-2.26-3.37-1.54s-1.61,2.45-1.4,3.93c.53,3.61,1.33,7.19,1.78,10.82.25,2.06-.32,4-2.49,5a5.23,5.23,0,0,1-5.62-.51,11.24,11.24,0,0,1-4-4.95c-.53-1.24-.18-3.52-2.31-3.24-1.27.17-1.45,2-1.93,3.2-3.94,10.12-5.48,20.82-7.93,31.31-.85,3.65-.17,5,3.85,5.29,10.39.84,20.67,9.58,23,18.88.27,1.12.85,2.29-.15,3.28-1.17,1.17-2.56.7-3.68,0a25.52,25.52,0,0,1-3.86-3.11c-4.6-4.35-9.09-8.77-15-11.49-5.07-2.34-5.57-2-5.87,3.41-.51,9.2,2.15,18.12,2.16,27.26,0,.92.28,1.78,1.26,1.81,1.27,0,1.54-1.14,1.76-2.07.8-3.31,2.07-6.34,4.71-8.62.64-.56,1.41-1.07,2.21-.47s.46,1.5.05,2.23c-1.21,2.17-2.64,4.26-3.68,6.52-1.27,2.76-.17,4.38,2.86,3.77,6.62-1.32,11.62,1.27,15.85,6,.52.59.79,1.62,1.86,1.21s.9-1.61.91-2.57C384.22,617.79,383.14,614.82,385,611.91Zm147.5-215V397c23.49,0,47-.1,70.47.09,4.22,0,5.5-1.3,5.35-5.41-.27-7.82-.05-15.66-.1-23.49,0-4.9-3.81-9.26-8.94-10.44-5.86-1.34-9.56.08-12.23,4.94-5.18,9.42-13.07,15.85-22.8,19.84-3.4,1.39-8,1.84-11.06-.52-5.48-4.23-8-10.3-9.09-17.33-1.63-10.39,4.88-18.17,7.62-27.13.71-2.3,2.35-4.3-.24-6.07s-5.36-2-7.76.27c-1.25,1.16-2.8,1.66-4.07,2.52-4,2.69-7.57-.24-11.32-.16-9.16.19-18.33.09-27.49.05-5.29,0-8.34-2.68-7.85-7.87s-1.1-10.27-1.72-15.16c-1.41-11.17,1.3-22.17-.24-33.2-.24-1.69,2.6-3.57-.43-5.33-2-1.15-3.49-2.85-6.15-2.84-20,.1-40,0-60,.09-5.06,0-7.19,2.62-7.17,7.86.05,14.16.12,28.32.09,42.48,0,10.36-3.65,14-13.83,14-8,0-16.06-.64-24,.2-6,.64-11.27,1.12-16.18-3.41-1.68-1.55-4.79-1.05-6.94.84s-1,3.65.1,5.66c1.51,2.77,2.3,5.93,3.88,8.64,5.27,9,4.35,18.4,1.68,27.82-1.41,5-8.94,10.16-13.89,9.06-10.71-2.38-19.4-7.78-24.87-17.8-1.92-3.51-4-7.4-9-7.53-12-.31-12.88,4.4-14.13,14-.85,6.56.13,13.32-.21,20-.23,4.55,1.5,5.53,5.77,5.51,46.32-.16,92.63-.1,138.94-.23,3,0,6.76,1.69,8.93-2.37.42-.78,1.63-.3,2.1.42,1.71,2.66,4.37,2,6.79,2Q497.53,396.95,532.52,396.92ZM675.83,629.67c0-3.33-.2-6.68,0-10,.37-4.75-1.35-9.71,1.08-14.23,1.71-3.19.63-4.19-2.6-4.28-4.27-.12-8.6.63-12.72-1.56-1.79-1-3.56.34-4.7,1.94a3.11,3.11,0,0,0,.78,4.78c2.84,2,2,5.08,2.16,7.8.09,1.57-1.43,2.46-2.11,1.2-1.62-3-5.4-5.8-4.57-8.94,1.83-7-1.54-7.42-6.69-7-1.44.13-2.34-1.46-3.5-1.65-2.76-.44-6.26-2-8,1.34s1.71,4.89,3.88,5.79c4,1.66,6.06,5.06,8.83,7.85,1,1,1.74,2,.9,3.51-5.34,9.81-6.73,20.74-8.78,31.48-.15.81-.11,1.74-1.07,2-1.14.35-1.85-.47-2.56-1.15a4.11,4.11,0,0,1-1.05-3.72c1.13-8.51-3-16.61-1.9-25.11a3.13,3.13,0,0,0-.27-1.46,22.37,22.37,0,0,1-.19-16c1-3,.42-5.26-3.64-5.09s-8.32,0-12.48.06c-3.59.09-5,2.21-3.52,4.95,2.67,4.83,4.31,9.87,4,15.52-.48,8.11,2.76,16,1.69,24.17a4,4,0,0,0,.72,2.35c1.5,2.5,1.12,4.63-.74,6.83-2.32,2.73-.6,4.18,2,5a7.32,7.32,0,0,0,2.48.1,95,95,0,0,1,30.17,3.61c3.65,1,3.45-2.19,2.83-4-2.52-7.47.85-14.2,2.26-21.17a2,2,0,0,1,1.22-1.32c1-.18,1.47.74,1.43,1.59-.31,7,1,14-.64,20.86a21.16,21.16,0,0,0,0,10.25c1.57,6.53.47,13.23.59,19.86a1.91,1.91,0,0,1-1.31,2,1.15,1.15,0,0,1-1.46-1c-1.91-7-4-14.08-2.48-21.43.61-2.87-.28-3.38-2.8-3.76-3.37-.51-6,1.59-9.15,1.86-7.69.68-15.31,2.25-23.11,1.87-4-.19-4.79,1.65-2.48,4.89,1.14,1.59,2.7,3,2,5.34-2.67,8.93-2.15,18.25-3,27.38-.53,5.51-1.33,10.78-3.44,15.8-1.16,2.76-.6,3.71,2.24,3.69,4.33,0,8.67-.21,13,0,4.07.18,4.89-2.12,3.54-5a15.63,15.63,0,0,1-1-9.74c.66-3.57,1.78-7,1.5-10.72-.58-7.81,3.22-15.23,2.13-23.11a2.44,2.44,0,0,1,.17-1,2.26,2.26,0,0,1,2-1.93,1.88,1.88,0,0,1,2,1.85c0,3.41,2.19,6.31,2.26,9.54.16,7.62,2.68,14.39,6.49,20.81.43.73,1,1.5.54,2.29-2,3.34-3,7.38-7.21,9.08-2,.79-4.05,1.62-5.46,3.39-.7.89-1.78,1.7-1.25,3s1.71,1.43,2.92,1.43c4,0,8,.19,12,0,3.66-.16,5.11-2.61,4.05-6-1.32-4.21,1.21-7.15,3.76-9.86,1.11-1.18,2.23-.4,2.24,1.15,0,3,.34,5.85-2.28,8.3-2.19,2-2.11,4.46,1.57,4.66a94.52,94.52,0,0,0,14-.11c2.88-.27,5.95-2,4.11-5.54-1.36-2.6-1.44-5-1.44-7.65,0-10.33.08-20.66,0-31,0-3.67-.12-7.24,2-10.54a8.31,8.31,0,0,0,0-9.81c-2.49-3.44-2-7.19-2-10.94C675.79,640,675.82,634.84,675.83,629.67Zm-453.2,74.82c2.7,4.1,6.9,7.37,5.43,13.33a3.8,3.8,0,0,0,3.85,4.74c4-.06,8,0,12,0,1.24,0,2.37-.24,2.79-1.6a2.82,2.82,0,0,0-1.17-3.09,29.74,29.74,0,0,0-5.5-3.33c-3.73-1.66-5-5.17-6.75-8.34-1.47-2.7,1.56-3.67,2.27-5.54.29-.76.25-1.65.55-2.4,3.25-7.95,4.31-16.4,5.74-24.76.2-1.19.7-2.34,2.08-2.48,1.68-.18,2.35,1,2.58,2.44a14,14,0,0,1,.18,3.48c-.71,8.16,2.2,15.95,2.44,24.1.16,5.73,1.55,11.32-.23,17.08-.79,2.53-.08,4.57,3.41,4.44,4.66-.17,9.33,0,14,0,3.89,0,4.41-1.81,2.36-4.68a19.71,19.71,0,0,1-3.58-10.56,294.77,294.77,0,0,0-3.49-33.3,3.53,3.53,0,0,1,1-2.68c1-1.41,3.05-2.66,1.87-4.72-1.07-1.86-3.31-1.32-5-1.47-4.29-.39-8.72,1.21-12.86-.27-4.74-1.69-9.73-1.72-14.56-2.85-5.58-1.31-6.19-.14-5.16,5.48a12,12,0,0,1,0,4.47c-.94,4.66-2.09,9.27-3.1,13.92-.21.93.08,2.23-1.36,2.12a2.15,2.15,0,0,1-1.76-2.19c-.08-6.6-1.34-13.3.62-19.76a16.81,16.81,0,0,0,0-10.17c-1.93-6.48-.75-13.17-.63-19.78a2.2,2.2,0,0,1,1.82-2.15c1.38-.06,1,1.29,1.3,2.19,1.93,6.45,4.18,12.73,1.88,19.74a3.31,3.31,0,0,0,4.3,3.92c9-3,18.27-3.73,27.68-3.58,6.8.11,6.79,0,5.56-6.32-.16-.81,0-1.67-.1-2.49-1.24-11.81,2.53-23.33,2.09-35.15a15.62,15.62,0,0,1,2.95-9.26c2.31-3.21,1-5.51-3.2-5.61-3.83-.1-7.68.22-11.49-.08-4.39-.34-5.56,1.78-4.24,5.34a20.54,20.54,0,0,1,.91,7.85c-.27,12.38-3.46,24.49-3.42,36.9,0,1.87-1.13,2.62-2.93,2.54-2.24-.1-1.86-1.75-2.11-3.22-1.16-6.92-1.55-13.91-4.66-20.53-4.94-10.49-4.54-12.38,1.71-18.45a23.44,23.44,0,0,1,6.24-4c1.92-.92,2.25-2.29,2-4.06-.29-2.22-1.93-2.27-3.71-2.36-4.5-.22-8.3,2.88-12.91,2.47-1.61-.15-3,1.77-2.1,3.71,1.69,3.67-.78,6.41-1.89,9.41-.48,1.31-1.67,3.12-3.14,2.85-2.15-.41-.7-2.48-.92-3.81a6.19,6.19,0,0,1,1.9-5.9c1.53-1.46,1.85-3.1.38-4.86-1.3-1.56-3.09-2.52-4.84-1.48-3.45,2.06-7.13,1.38-10.73,1.42-4.09.05-6.4.72-3.64,5.42.76,1.29.49,3.25.49,4.9,0,10.83-.09,21.67,0,32.5.05,4.86.09,9.64-2.72,13.91A5.26,5.26,0,0,0,203,664c2.64,4.13,2.91,8.65,2.83,13.4-.16,10.49,0,21,0,31.49a12.46,12.46,0,0,1-.74,5.37c-1.63,3.64-.15,6.23,3.76,6.45,4.49.24,9,.06,13.5.08,1.41,0,2.65-.21,3.09-1.86.36-1.34.69-3.08-.47-3.73C220,712.4,223,708.15,222.63,704.49Zm133.76,93.86.25,1.21c-2.32.43-3.76,2.39-6.19,2.87-4.87,1-8.06,4.1-9.92,8.77-3.44,8.62-.24,17,1.07,25.33,1.37,8.68,5.07,17.1,1.48,26.09-.42,1.06-.77,3.66,1.58,3.11,7.13-1.66,14.48-2.45,21.41-5,2.15-.79,2.82-2.55.76-3.55-4.08-2-5.14-5.49-6.66-9.27-1.27-3.15-.57-6.25-1.31-9.27a99.32,99.32,0,0,1-3.18-24.38c0-2.28.33-4.16,2.49-5.57,5.51-3.58,11.53-1.2,13,5.63,2.56,11.93,4.56,23.95,3.84,36.24-.1,1.67,0,3.34-1.32,4.67-1,1.07-2.39,2.14-1.18,3.83s3.23,2.4,4.86,1.43c2.8-1.66,5.69-1.54,8.68-1.51,1.54,0,3.11-.11,3.41-2.1.26-1.73.19-3.37-1.9-4s-2.91-2.49-3.75-4.38c-3.37-7.65-1.55-15.94-2.82-23.91-1.61-10.09-3.24-19.29-13.43-26.19,8.41,0,15.49,0,22.57,0,11.06,0,11.49-.66,9.26-11.56-.54-2.65-1.33-3.49-4.31-3a39,39,0,0,1-20.16-1.58c-12.05-4.4-17.41-14.23-19.13-26-1.52-10.32-1.53-20.85-2.41-31.27-1.29-15.38-3.36-30.67-5.32-46-1.47-11.58-8.85-19.88-13.77-29.55l-1.6.39V718.1l-1.51.35c-.07-3.89-3.63-5.76-4.2-9.74s-4.62-5.48-8.32-5.92c-2.65-.32-2.78,1.56-2,3.71,1.56,4.32,3.88,8.63,4.23,13.08.43,5.68,3.72,5.5,7.38,5,3.87-.49,4.66.87,4.63,4.59-.19,21.16.08,42.32-.19,63.48-.07,4.81,1.52,6,6,5.76C344.55,798.11,350.48,798.35,356.39,798.35Zm343-77.62c4.08-.79,8.94,1.17,13.61-1,8-3.68,12.87-9.07,15-18.29,3.23-14.29,1.08-26.43-9-37.15-2.08-2.22-3.57-4.25-.29-7.46,7.69-7.51,10.54-17.12,10.92-27.81.16-4.51-1.35-8.39-2.37-12.46-3.24-13-15.81-17.55-26.2-16.76-4.31.33-8.73,1.3-13.18,1.37-1.7,0-3.24.62-3.09,2.45.56,6.69-3,13-1.85,19.67.22,1.36-.48,3.27,1.71,3.56,1.75.22,2.75-1.07,3.39-2.47.9-2,1.27-4.26,2.5-5.94,2.27-3.1,4-7.52,8.83-7,4.06.42,7.88,2.62,9.52,6.43a34.54,34.54,0,0,1,2.45,19.37c-1.16,6.8-3.88,13.06-11,16-3.62,1.48-7.07,1.64-9.87-1.85-2-2.56-5-4.38-5.87-7.87a1.68,1.68,0,0,0-1.94-1.21,1.74,1.74,0,0,0-1.54,1.7,11.64,11.64,0,0,0,.74,4.73c1.72,5.75,5.28,11.21,1.69,17.89-1.38,2.57-3,5.88-2.65,9.35.12,1.1-.53,2.55.84,3.1s1.79-1.08,2.65-1.74c2.55-2,2.41-5.81,5.52-7.44,10.89-5.71,19.23,1.5,21.31,12.43,1.39,7.31,1.26,15.23-3.31,22.11-1.22,1.83-8.51,6.26-10,5.58-5-2.26-8.31-6-9.3-11.42-.38-2.06-.52-3.55-3.08-3.45-2.78.1-2.47,2-2.57,3.89-.36,6.49,2.6,12.64,1.84,19.21-.24,2.12,1.67,2.55,3.51,2.53C691.79,720.71,695.29,720.73,699.42,720.73Zm-517.06.06c3.73,0,7.24-.12,10.73,0,3,.14,4.22-1,4.08-4.07-.19-4-.12-7.87,1.36-11.77.83-2.2.28-4.94.23-7.43a2.28,2.28,0,0,0-2.56-2.42c-1.5,0-2.78.49-2.81,2.15,0,2.45-1.28,4.46-2.28,6.51-1.68,3.47-5.56,7-8.16,6.28-3.51-.92-7.94-2.28-9.94-7.06-3.87-9.23-4-18,0-27.2,2-4.63,4.91-7.37,9.87-7.69,5.42-.36,10.26.45,12.71,6.39.76,1.83,2.16,5.1,4.13,4.19,2.46-1.14,1-4.33.43-6.67-.08-.3-.43-.54-.5-.85-1.11-5.18-5-10.12-2.17-15.63,1.36-2.69,1.07-5.79,2.94-8.35.9-1.22,1.26-3.87-1-4.72-1.93-.73-1.93,1.59-2.85,2.57-3.15,3.36-4.73,8.72-10.48,9-6.31.26-12.19-4.94-14-11.11-2.38-8.32-3.25-16.47.4-24.56,3.28-7.29,11.14-8.47,16.62-2.89,2.34,2.39,3.11,5.38,4.35,8.23.75,1.74,1.81,3.64,3.87,3.2s1.38-2.68,1.58-4.26c.8-6.37-2.51-12.3-1.9-18.69.24-2.49-2-2.66-3.91-2.71-3-.07-6.35.74-8.89-.36-7.77-3.35-14.24-.34-20.54,3.37a16.44,16.44,0,0,0-7.47,8.1c-4.87,12.27-5.72,24.22.64,36.34,2,3.78,4.71,6.74,7.45,9.81,1,1.1,2.65,2.35.42,3.48-4.91,2.49-6.21,7.6-8.64,11.74-4.57,7.8-4.28,16.69-3.24,25.18s5,15.31,13.28,19.72C171.69,721.58,177.13,720,182.36,720.79Zm315.38-55.73-1.17-.52c-.44.13-1,.12-1.27.4-7,8.82-12.69,18.23-15.17,29.44-3,13.61-1.69,27.06.7,40.53,1.05,5.89,2.15,11.8,4.31,17.39,3.41,8.84,11.53,12.49,19.1,16.64,9.85,5.4,17.78,11.93,16.17,24.83-.3,2.35-.81,3.69-3.27,4.81-5.17,2.35-10.51,4.5-12.33,11.18A123.93,123.93,0,0,0,501,830.48c-.79,8.31.77,17.67-7.35,24.07-2.43,1.92-1.84,4.26,1.85,4.43s7.64-.65,11.15,1.66a2.38,2.38,0,0,0,2.72-3.9c-3.16-2.49-2.39-5.91-2.61-9.18-.52-8,2.44-15.58,2.36-23.61a22.69,22.69,0,0,1,3.2-12.29c1.85-2.93,4.55-5.29,7.38-4.74,3.49.68,7.17,2.52,6.78,7.75-.48,6.39-.21,12.7-1.93,19.09-2.22,8.21-1,17.44-8.39,23.89-1.64,1.43-.23,2.5,1.34,3.27,6.43,3.14,13.56,3.34,20.39,4.68,2.48.48,2.82-2.08,1.08-3.69-2-1.88-2.2-4.14-1.79-6.42.87-4.87,1.14-9.86,2.1-14.63a179.58,179.58,0,0,0,3.31-23.9c.47-7.45-5.15-12.41-10-14.35-11.06-4.46-9.55-3.07-9.19-13.23.32-8.9-3.55-14.94-10.55-19.55-3.33-2.2-6.81-4.17-10.13-6.38-4.27-2.86-8.88-5.36-11.64-10-8.58-14.37-10.2-29.61-5.68-45.62.91-3.2,2.51-4.52,5.84-2.6a77.71,77.71,0,0,0,7.67,3.6c2.42,1.07,4.68,1,5.87-1.74a58.92,58.92,0,0,0,4.24-20.39c.05-1.06-.19-2.2-1.43-2.25-1.63-.06-1.69,1.38-1.66,2.52a22.53,22.53,0,0,1-1.13,7.86c-.85,2.46-1,5.43-4.62,5.66-3.41.21-5.57-1.52-7.3-4.27-3.2-5.07-2.71-10.49-1.67-15.93S493.82,669.53,497.74,665.06ZM445,798.36v0c11.81,0,23.63-.05,35.44,0,3.05,0,4.6-.64,5.26-4.23a62.82,62.82,0,0,0-3.85-36.59c-1.33-3.14-.26-8.31-3.72-9.15-3.2-.78-6,3.28-9,5.26-17.52,11.75-35.31,22.85-56.27,27.59-10.38,2.35-10.19,2.46-8.88,12.82.44,3.45,1.79,4.39,5.09,4.35C421.07,798.26,433.05,798.36,445,798.36ZM357.56,528.12c.17-5.09,2.38-6.54,6.24-4,3.52,2.36,6.58,5.15,6.34,10a8.36,8.36,0,0,0,.86,3.85c.86,1.83,2.17,3.8,4.48,3.22s1.35-3,1.45-4.71a21.53,21.53,0,0,0-.34-2.47c-.33-5.08-1.29-10,3.47-14.24,2.44-2.17,2.54-6.11,0-9.16-.88-1.06-1.7-1.95-1.1-3.52,2.58-6.7,2.41-13.9,3-20.85s.35-14,6.41-19.1c1.41-1.19,1.92-3.58-.27-3.94-4.82-.81-9.44-3.14-14.54-2.28-1.08.19-1.94.51-2.17,1.66-.16.84-.12,1.94.8,2.12,3.74.75,2.47,3.65,2.78,5.94,1.38,10.5-2.26,20.61-2.28,31.06,0,7.23-1.62,8-8.41,8.39-1.22.08-3.08-.57-3.28,1.3-.27,2.43,2.16,1.32,3.3,2-5.28.31-8.18-1.81-8.64-6.35-.1-1,0-2,0-3-.51-9.5,2.74-18.49,4-27.75.62-4.5,1.26-10.27,7-12.69,1.12-.47,1.59-2.14,1-3.56s-1.89-1.18-3-1.17c-6.14,0-11.95-1.58-17.66-3.62a3.4,3.4,0,0,0-3.34.31c-1.18.89-.85,2.05-.3,3.14,2.34,4.61,1.56,9.57.8,14.19-1.86,11.31-5.9,22.29-4.89,34,.14,1.58,0,3.12-2.16,3.14-5.39.05-3.15,2.19-1.09,4.12,2.67,2.49,2.33,4.53-.68,6.35-1.13.69-2.66,1.3-2.37,2.89.71,3.84-.59,7.59-.24,11.42.2,2.22.58,3.2,2.94,1.81a39.12,39.12,0,0,1,6.66-3.34c5.86-2.1,8.46,0,7.2,6.09-.84,4.07.57,5.5,4.38,5.81,4.4.37,6.76-1.64,7.28-6.73.28-2.8-.13-5.67.76-8.42.55-1.7.61-3.69-1-4.5C358.93,524.67,359.71,528.06,357.56,528.12ZM681.78,485.5l1.29.21c0,4.9-.72,10,.19,14.68,1,5,1.68,9.5-1.67,13.81-1,1.24-.48,2.55.41,3.67s2.17,2.3,3.36,1.6c5-2.93,10.42-1,15.6-1.57,1.35-.14,2.79,0,3.21-1.72.37-1.47.59-3.15-.92-4.07s-2.49-2.1-2.36-4c.94-12.92-3.24-25.58-2-38.53.46-4.71-.84-9.51,1.72-14.13,1.19-2.15.2-4.21-3.24-4.56-5.77-.59-10.7,3.76-16.51,2.31a2.61,2.61,0,0,0-3.13,1c-.78,1.43.34,2.43,1,3.57,2.42,4.27,4.28,8.74,4.27,13.76,0,.78.23,1.81-.74,2.16a1.72,1.72,0,0,1-2.21-1.45c-.47-2.18-2.81-2.9-3.51-4.3-1.55-3.14-5.88-5.66-2.71-10.48,1.39-2.1.14-4.46-3.28-4.34-4.49.16-9,0-13.49.11-1.56,0-3.77-.78-4.36,1.32-.65,2.29,1.13,3.8,3,4.54,4.54,1.76,7.64,5.12,10.69,8.69,2,2.31,2.53,4.32,1,7.19-2.3,4.41-5,8.87-6,13.63-1.85,8.81-3,17.73-6.65,26.11-1.29,3-.64,5.21,3.43,5.06,4.49-.16,9-.17,13.49,0,4.33.15,5-2.12,3.48-5.32a12.12,12.12,0,0,1-1-7.77A76.93,76.93,0,0,1,681.78,485.5ZM217,802.31c-2.66,0-5.32,0-8,0-3,0-3.89,1.76-2.95,4.29,3.64,9.72-.84,18-4.42,26.51-.3.7-.76,1.6-1.8,1.4s-1.08-1.18-1.08-2c0-3.16.76-6.53-.08-9.45-1.69-5.91-1.54-11.14,1.85-16.5,1.39-2.2.35-4.48-3.13-4.37-4.32.15-8.67-.15-13,.06-6.32.32-7.42,2.49-4.33,7.89a5,5,0,0,1,.78,2.32c0,8.41,1,16.73,1.63,25.08.67,9.25,2,18.87-1.49,28.09-.4,1.05-1.1,4.37,1.4,3.74,6-1.49,11.95-.13,17.85-.9,2-.26,4.7-1.94,2.94-3.76-3.4-3.51-1.57-8.39-4.19-11.94-.76-1-.95-3.31.29-4.21,1.77-1.27,2.4,1.06,3.4,1.92,1.26,1.07,2.72,2.21,3.36,3.65,1.17,2.65,4.2,4.81,2.71,8.29s-.16,6.26,3.34,6c4.68-.35,9.63,1.47,14.09-1.53,1-.68,2.78-.32,2.91-2.1s-1.19-2.33-2.48-2.69c-4.6-1.26-7.07-5.38-10.52-8.1-2.13-1.69-3.88-4.75-1.3-8.29,1.81-2.48,2.72-5.68,3.72-8.67,2.66-7.94,3.9-16.25,6-24.3C227.39,802.09,227.87,802.21,217,802.31ZM200,485.23c1,2.65,1.72,4.66,2.6,6.58,3.57,7.72,6.42,15.45,3.34,24.16-.93,2.61.68,4,3.51,3.89,4.33-.11,8.66-.05,13-.08,5.52,0,6.55-1.34,3.92-6.11-2.37-4.32-3.2-9.16-4-13.66-1.52-8.91-4-17.28-8.35-25.12-1.06-1.91-1.54-3.88,0-5.58,3.57-4.08,6.62-9,12.54-10,2.54-.44,2.84-1.91,2.66-3.89-.22-2.42-2.11-2.19-3.75-2.2-4.66,0-9.33-.08-14,0-4.24.07-5.19,1.76-3.12,5.71.55,1,1.63,2.06.67,3.1-2.95,3.18-3.88,7.76-7.41,10.51-.61.48-1,1.45-2.05,1s-.85-1.37-.8-2.15a26.44,26.44,0,0,1,4-13.37c1.15-1.74,2.77-4.53-.29-4.37-6.28.31-11.81-2.88-17.95-2.68-3.94.14-4.86,2.42-3.34,5.24s1.29,5.37,1.55,8.16c1.38,14.76-2.64,29.28-2,44,.06,1.38-.16,2.69-1.63,3.34-2.23,1-2.11,2.88-1.54,4.66.68,2.13,2.71,1.42,4.28,1.6,4.4.52,9-1.26,13.2,1.1,2.19,1.25,3.32.36,4.65-1.13s1.34-2.92-.16-4.32a4.28,4.28,0,0,1-1.58-3.48c.33-7.81.55-15.62.84-23.42C198.86,486.48,199.22,486.24,200,485.23Zm465.21,317c-2.17,0-4.34-.06-6.5,0-1.42.06-3.23-.52-4,1.22a4.39,4.39,0,0,0,1,5.06,7.08,7.08,0,0,1,2.29,4.28,95.36,95.36,0,0,0,8.6,31.73c2.29,4.81,1.43,8.09-3,11.34-3,2.22-5.48,5.2-9.1,6.66a2.19,2.19,0,0,0-1.66,2.21c.1,1.25,1.31,1.26,2.11,1.79,4.65,3.07,9.93,1.58,14.88,1.86,3,.16,5.49-2.11,3.4-5.77-.9-1.58-.49-2.6,0-4.1,1.38-4,4.63-6.41,7.11-9.48.52-.64,1.27-1.32,2.1-.71a2.05,2.05,0,0,1,.56,1.75c-.88,4.16-1.32,8.52-3,12.38-2.1,5-1.89,5.94,3.52,6.1,4.48.14,9,.16,13.46.34,1.05,0,1.93,1.75,3.11.69s.77-2.74.17-3.74c-1.79-2.93-1.22-6.09-1.48-9.21-1.18-13.79,1.85-27.36,1.93-41.08,0-2.77.27-5.17,2.4-7.27s1.53-3.39-1.29-4.71c-5.65-2.63-11.48-.74-17.19-1.35-3.88-.42-4.79,2.57-3.25,4.66,6.24,8.51-.38,17.51,1.58,26.08.14.6-.08,1.48-.89,1.48a2,2,0,0,1-1.59-.83c-3.1-7.46-7.17-14.81-6.27-23.19s1.25-8.2-7-8.21ZM295.43,188.49h0a19,19,0,0,0,0-2c-.35-3.42,1-7.09-1-10.24-3.37-5.14-7.62-3.69-12.64-2.27-10.31,2.93-19.73,7.59-27.45,14.63C245.18,197,237,206.43,232.41,218.3s-6.64,15.6,3.11,25.35a11.46,11.46,0,0,0,12,2.88c3.64-1.18,5-4.4,5.43-8.6A35.9,35.9,0,0,1,255.75,226c2.23-4.72,6.14-8.38,8.37-12.75,3.72-7.28,9.54-8.59,16.4-9.34a49.64,49.64,0,0,0,10-2.09c3.08-1,5.57-2.83,4.92-6.89A42.43,42.43,0,0,1,295.43,188.49Zm384.28,42.1c-.21-10.52-6.29-19.73-13-28.07-6-7.42-12.07-14.75-20.78-20a92.31,92.31,0,0,0-24.34-10.12c-3.27-.88-5.51,1.06-6.9,4.8-2.11,5.71-1.36,11.43-1.14,17.06.12,3.11,1.26,7.49,5.45,8,3.91.44,7.57,1.79,11.57,2.06a18.2,18.2,0,0,1,14.11,7.86c1,1.52,1,3.44,2.47,4.81,6.58,6.16,8.85,14.06,8.84,22.82,0,4.3,2.92,6.53,6.45,7C670.68,247.94,679.53,239.84,679.71,230.59ZM204.49,594c1.95-.34,4.36.7,6.49-.68a43.16,43.16,0,0,0,16.56-20.27c2-4.73,1.34-9.45,1.74-14.19.8-9.4-.16-18.11-7.52-25.29-6.73-6.57-15.32-8.06-23.88-4-4.94,2.35-8.1,6.35-11.33,10.25-6.32,7.64-7.05,17.36-7.13,26.54,0,4.36,1.84,9.47,4.08,14C187.45,588.42,195.31,594.05,204.49,594ZM652.6,556.6c-1.16,15.46,3.67,22.67,12.22,32.32,8,9,24.52,5.35,30-3.26s7.88-17.5,6.49-28.25c-1.24-9.6-4.51-17.19-11.3-23.45-9.86-9.07-19.72-9.66-29.82-.18C653.42,540.13,651.35,548.31,652.6,556.6ZM229.76,768c-.58-11.57-1.26-21-7.24-29.6-5.15-7.39-13.65-11.79-22.37-10.57-8.19,1.14-12.52,6.29-15.78,12.73-3.85,7.59-6.13,15.17-3.84,24.38,2,7.86,3.7,15.15,9.54,21,7.9,7.94,19.93,10.21,28.84,4.39C227.45,784.8,229.34,775.58,229.76,768Zm422.92-3.35A30,30,0,0,0,656,782.74c3,5.59,12.53,12.94,18.28,11.8,6.17-1.23,12.6-3.37,16.95-8.3,8.34-9.41,11-20.56,9.84-33.15a33.64,33.64,0,0,0-9.47-20.64,18.94,18.94,0,0,0-14.7-5.72c-6.84.39-12.63,5.39-16.91,10.93A35.6,35.6,0,0,0,652.68,764.67ZM109.57,473h.06c0,6,.11,12,0,18-.11,4.79-4.28,9.39-8,9.17-4.17-.25-9.35-5.37-9.38-9.5-.06-11-.34-22,.15-32.95.17-4,.32-8.55,3.5-11.75,1.12-1.14,3.29-1.67,2.8-3.59-.56-2.2-2.61-2.75-4.79-2.76-6,0-11.82-2.38-17.94-2.15-1.4,0-2.89-2.15-4.27.07-1.19,1.92.56,2.91,1.37,4.31a20.25,20.25,0,0,1,2.76,8.87c.27,4.25-1.49,8.13-1.67,12.17a218.44,218.44,0,0,0,.06,27.44c.46,5.52,2.17,11.13,8,14.34,4.47,2.46,9.29,2.86,14,4,4.57,1.13,12-.36,15.43-3.41,5.77-5.19,6.33-12.47,6.92-19.05a150,150,0,0,0-.1-26.89c-.28-3.07-.44-6.76,2.64-9.12,1.29-1,4.13-.82,2.9-3.6-1-2.32-2.94-3.32-5.64-3.22-3.26.13-6.56.55-9.67-1.38a2.86,2.86,0,0,0-4.29,1.11,3.3,3.3,0,0,0,1.21,4.38c3.24,2.12,4,5.38,4,9C109.51,462,109.57,467.47,109.57,473Zm680,2.7c0,3.67-.24,7.35.07,11a13.49,13.49,0,0,1-2.18,8.53c-2.27,3.54-6,5.79-10.19,4.62-3.54-1-5.44-4.13-5.18-8.14a16.87,16.87,0,0,0-1.48-8.66c-1-2.2-1.31-5.71-.25-7.77,3-5.93,1.47-12.05,1.73-18.06.18-4.06-.22-8,3.73-10.69a2,2,0,0,0,.67-3c-.8-1.12-2.09-2.43-3.28-1.64-3.87,2.58-8.07,1.23-12.11,1.52-1.55.12-3.1.13-3.51,2.05s-.06,3.41,1.79,4.19c3.21,1.35,3.55,4,3.53,7-.08,10.66,0,21.33,0,32A21.64,21.64,0,0,0,772,506.77a14.23,14.23,0,0,0,10,2.46c2.49-.47,5-.89,7.61-1.28,4.24-.65,8.1-1.92,11.39-5.17a21.55,21.55,0,0,0,6.6-16.94c-.27-7.08-.36-14.14-1.09-21.25-.83-7.95-3.35-16.92,2.81-24.45a2.87,2.87,0,0,0,.05-3.31c-.47-.68-1.12-.42-1.78-.29-6.88,1.34-13.74,2.82-20.8,2.89-1.46,0-3.2-.36-3.92,1.4s.41,2.77,1.43,3.95c1.38,1.6,3.62,2.71,3.57,5.2C787.66,458.6,791,467,789.57,475.67ZM92.14,849.43c0-4,0-6.82,0-9.65s-.14-5.67,0-8.49c.24-5.95,4.09-9.66,9.77-9.59,5.35.06,8,3.22,8,9.78,0,10.16-.12,20.32,0,30.48,0,4.6.11,9-4.14,12.11a2.35,2.35,0,0,0-1,3.07c.65,1.22,1.9,1.22,3.06,1.25,4.61.09,9.26.58,13.53-2,.89-.53,2.48.09,2.74-1.52a2.88,2.88,0,0,0-1.83-3.25c-5.35-1.94-4.37-7.21-4.23-10.52.47-11.38,1.63-22.61-1-34-2.52-10.91-8.65-16.06-19.68-15.3-3,.2-5.33,2-8.38,2.43-9.28,1.34-15.37,9.45-14.88,17.5.36,6,0,12,.12,18a88.4,88.4,0,0,0,1.2,12.73c.91,5.66,2.85,12.36-3.23,17.09a2.8,2.8,0,0,0-.94,3.18c.58,1.65,2.13,1.55,3.38,1.39,5.36-.69,10.58-2.51,16.12-1.76a15.29,15.29,0,0,0,4.48-.12c3.52-.61,4.3-2.88,1.91-5.52a15.22,15.22,0,0,1-3.37-5.29C91,863.81,92.78,856,92.14,849.43ZM807.59,843c0-4.53,0-7.69,0-10.85,0-7-5.12-13.78-11.43-16.85-2.67-1.3-5.45-.88-8-2.15-7.06-3.45-20.5-.49-22.93,9.52-1.08,4.49-2.49,8.83-2.32,13.63.35,9.31,0,18.64.14,28,0,3.11-.09,5.59-3.45,7.4-2.61,1.39-3,3.43.64,5.27,4.23,2.14,8.47,1.08,12.71,1.35,1.52.1,3.52.75,4.27-1.47.6-1.78-.75-2.79-1.88-3.73-2.69-2.23-3.35-5.09-3.24-8.46.15-4.48,1.34-9.67-.43-13.33-4.13-8.55,1.64-16.18.74-24.24-.07-.66.73-1.44,1.18-2.13a7,7,0,0,1,8.74-2.9c3.76,1.41,6.89,4.23,7.25,8.61.34,4.14-.22,8.34.11,12.48.78,9.65-1.25,19.09-1.74,28.64a4.35,4.35,0,0,1-2.41,4.08c-1.54.71-3.4,1.12-2.57,3.41a4.49,4.49,0,0,0,4.18,3.09c6.06.22,12.2-.72,18.08,1.78,1,.44,2.83.5,3.66-.8a2.76,2.76,0,0,0-.84-3.6c-2.18-1.91-1.87-4.38-2.11-6.87C804.88,862.38,808.15,852.13,807.59,843Zm-469.85-3.48c-.06-3.59,1.1-7.47-.35-10.85-4.37-10.23-9.26-20.18-21.1-23.86-5.18-1.61-10.83-2-15.57-.06-8.76,3.56-12,12.45-12.7,20.53-1.39,15.53,2.56,29.66,16.53,39.46,7.58,5.3,21.81,3.82,26.8-4C335.46,854.42,340,848,337.74,839.56Zm.18-357.44c0-9.3.53-9.6-4.05-17.92-2.87-5.2-7-10.12-13.93-11-13.6-1.66-21.73,6.63-27.35,16.54s-6.3,20.33-3.4,31.56c4,15.6,22.65,22.33,34.46,11.45C332.61,504.53,339,494.71,337.92,482.12ZM594,489.32c-.25-3.39.88-6.95-.5-10.31-3-7.24-6.54-14-12.33-19.56-5.1-4.86-17.07-8.53-22-5.77a28.26,28.26,0,0,0-15,21.94c-2,17.85,4.81,34.17,23,41.23,5.65,2.19,16.47.3,19.65-4.15C591.84,505.73,595.67,498.39,594,489.32Zm114.72,5c-2.53,2-3.13,3.78-1.5,6.64,1.33,2.33,1.54,5.32,2.12,8,1.56,7.19,3.49,8.81,10.71,8.84,2.67,0,5.35.17,8,0a24.13,24.13,0,0,0,14.07-5.39c10.47-9,15.57-20.55,15.93-34.48.11-4.5-1.81-8.31-2.23-12.58-1-10.41-10.44-17.57-20.88-18.35-7.47-.55-14.56,2.57-22,1.17-1-.2-1.25.68-1.56,1.51-2.8,7.37-.91,15.41-3.41,22.85-.69,2,1.16,3.56,2.92,4.05,2.34.65,1.9-1.48,2.25-2.86,1.16-4.67,4.24-8.13,7.29-11.69,3.2-3.75,6.7-3.72,10.64-1.64,5.35,2.81,10.83,17.56,8.28,23.05a19.56,19.56,0,0,0-1.58,6.1,23.5,23.5,0,0,1-8.55,15.06c-4,3.35-13.57,1.21-16.19-3.36C711.77,499,710.3,496.84,708.72,494.35ZM594.25,829.67c1.31-6.14-2.41-12.83-6.27-19.35-2-3.33-5.33-5.88-9.11-6.17-6.34-.5-12.7-.85-18.43,3.6-9.23,7.17-14.9,16.23-16.41,27.77-1.17,8.92.81,17.11,6.63,24.18,7.08,8.6,15.78,11.89,25.62,5.77C588.65,857.77,594.14,846.07,594.25,829.67ZM149.38,447.24c-7.3-1.13-14.63,1.76-19.88,8.88-3.76,5.1-4.58,11.43-5.36,17.56-.81,6.3.27,12.59,1.72,18.68a33.78,33.78,0,0,0,11.65,18.55c3.44,2.88,7.26,4.31,11.22,5.84,6.27,2.42,12.65,1.15,19,.59,1.15-.1,1.71-1.34,2.34-2.39,3-5,2.85-11.12,5.51-16.29.7-1.37-.63-3-2.14-3.48-1.75-.59-1.47,1.22-2,2.11-.76,1.26-1.83,2.34-2.6,3.59-3.84,6.27-12.79,7-18.18,2.07-10.1-9.31-10.72-28.41-4.43-39.47,3-5.35,11-5.84,15.16-1.32,3.35,3.66,4.69,8.33,6.88,12.57.65,1.27,1.08,2.6,2.8,2,1.29-.47,2.81-1.75,2.27-2.9-2.72-5.87-.48-12.23-2.38-18.47-1.53-5-1.21-6.95-7.44-6.68C159.69,448.81,155.2,447.35,149.38,447.24ZM724.21,804c-3.49,0-6.16.09-8.82,0-2.26-.09-3.39.31-4,3-1,4.77-2.95,9.36-4.61,14-.58,1.62-1.53,3.41.37,4.41s2.87-1,3.76-2.32c.54-.82.78-1.85,1.29-2.7,4-6.62,14-8.18,18.84-2.94,6.23,6.79,7,15.64,9,24,.63,2.6-2.2,4-2.09,6.44.24,5.27-2.53,9.07-6,12.62-2.35,2.38-4.8,2.77-7.67,1.39-3.71-1.79-6.68-4.2-8-8.36a52.16,52.16,0,0,0-3.33-7.21c-.9-1.8-2.6-1.23-4-.89-1.19.29-1.26,1.52-.89,2.48,2.72,7,.73,14.69,3.34,21.78.82,2.22,1.64,2.91,3.71,2.93a47.21,47.21,0,0,1,10.57,1.56c4.66,1.1,9.93,1.61,15-1,8.82-4.59,13.89-10.89,16.1-21.06,2.35-10.78.38-20.77-3.55-29.89C747.92,810,737.8,802.76,724.21,804Zm-565.56,0c-14.94-1.31-25.29,6-30.95,19.71-4.72,11.44-5.57,23.45-.85,35.23,4.23,10.57,12.36,15.58,23.77,15.78,6,.1,11.41-3.39,17.49-2.32a1.7,1.7,0,0,0,2-1.79c.08-5.11,3.21-9.73,2.22-15a10.07,10.07,0,0,1,.81-6.35c.64-1.28,1.52-3-.48-3.82-1.84-.73-3.51-.34-4.36,2a53.41,53.41,0,0,1-3.6,8.23c-2.45,4.23-6.14,7.67-11.17,6.89-4.86-.74-8-5.13-9.47-9.38-3.8-10.79-1.94-21.35,3.15-31.43,3.64-7.24,15.35-11.07,21.68-2.34.95,1.32,1.4,3,2.35,4.32.82,1.13,1.86,2.8,3.6,1.65,1.35-.9.65-2.2.08-3.53a53,53,0,0,1-2.48-7.49C169.74,804,169.77,804,158.65,804ZM843.74,498.46c2.49,0,5,.09,7.48,0a4.71,4.71,0,0,0,4.14-3.17c.76-1.82-.36-2.63-2-3.32-1.79-.78-1.12-2.59-1.13-4,0-13.15.05-26.29,0-39.44,0-5.15-.32-10.27,2.78-14.86,1.07-1.58,1-3.5-1.44-3.63-3.64-.19-7.49-.64-10.92.26-8.42,2.21-17.18,1.33-25.65,3.43-3.28.81-4.38,1.39-4.42,4.74-.06,5.08-2.26,10-1.71,15.17.12,1.11-2.44,2.22-.5,3.28s3.13-.82,3.73-2.3c1.82-4.5,5.43-7.51,8.61-10.87,1.9-2,9.73-2.76,11.07-1.18.95,1.12.64,9.27-.38,10.14-1.85,1.58-7.5.25-9.22-2.2-.61-.87-.59-2.52-2.26-2.05a2.7,2.7,0,0,0-1.9,2.69,78.05,78.05,0,0,1-2,19.62,5.54,5.54,0,0,0,.08,2c.15,1,.53,2,1.77,2s1.69-.82,1.84-1.9c.83-6,4.94-8.76,10.22-10.58,1.67-.57,2.45-.13,2.27,1.23C832.89,474,837.77,485,831.14,495a4.51,4.51,0,0,0-.11,4.34,1.61,1.61,0,0,0,2.56.51C836.75,497.36,840.35,498.83,843.74,498.46ZM47.39,478.08h0c0-4.5,0-9,0-13.5,0-1.87.25-2.46,2.58-2,6.11,1.14,8.09,5.8,10,10.61.5,1.25,1,2.2,2.45,1.63a1.85,1.85,0,0,0,.92-2.9c-1.93-2.87-1.56-6-1.55-9.18,0-4,.51-8-1.66-11.65-.5-.86.43-2.59-1.23-2.8-1.38-.17-2.11,1.18-2.35,2.22-1,4.34-4.39,2.83-6.86,2.64-3-.24-3.15-3.45-3.44-5.42-.64-4.23,2.93-6.9,7.11-5.83,6.41,1.65,10.47,5.85,12.86,11.89.56,1.41.64,3.81,3,3.25,2.18-.52,1.49-2.74,1.45-4.26-.12-5.12-2.31-10-1.81-15.23a3.29,3.29,0,0,0-3.17-3.35c-4.06-.28-8.22-2-11.77-2-8.83.05-17.32-2.82-26.1-2.15-1.27.09-2.83-.39-3.55,1.13s.38,2.51,1.37,3.41,2.3,2.21,2.12,3.8c-.9,7.88,2.16,15.39,2.07,23.2-.09,8,0,16,0,24,0,2.25-.16,4.29-2,5.9a4.82,4.82,0,0,0-1.42,5.47c.81,2.37,3,1.53,4.73,1.7,5.72.57,11.64-1.43,17.21,1.32a1.81,1.81,0,0,0,2.26-.56,2.19,2.19,0,0,0-.5-3.14c-3.12-2.44-2.75-5.81-2.72-9.14C47.42,484.08,47.39,481.08,47.39,478.08Zm774.9,395.76c1.9-2.46,3.27-4.3,4.73-6.07.72-.89,1.43-1.63,2.93-.95,3.6,1.63,6.42,8,4.11,11.56s-6,2-9.24.58a17.1,17.1,0,0,1-8.43-8.78c-.78-1.66-1.49-3.34-2.3-5-.54-1.11-1.34-2.05-2.73-1.47s-1.35,1.5-1.14,2.87c.88,5.65,2.5,11.18,2.67,16.94.05,1.9.5,3.7,3,3.77,10.5.3,20.73,3.8,31.37,2.68a12.59,12.59,0,0,1,3.91.53c1.31.29,2.47,2.41,3.89.62a4,4,0,0,0-.1-4.71c-2.91-4.44-2.85-9.35-2.81-14.37.1-12,0-24,0-36,0-3,0-5.87,2.41-8.3,1.36-1.35,1.79-4.2-.81-4.13-6.81.19-13.38-1.08-20-2-2.79-.37-3.44,1.22-2.39,3.78,1.1,2.72,3.18,5,3.12,8.28-.15,7,0,14-.08,21-.05,4.15-1.31,4.62-5.35,3.16s-5.55-4.93-7-8.45c-.64-1.51-1-3.85-2.92-3.39s-1.23,3-.86,4.35c1.67,6.12,1.85,12.34,2,18.61C820.27,870.51,821.47,872,822.29,873.84ZM34.88,823.47c-1.58,0-2.42-.06-3.25,0-1.75.15-4-.8-5,1.19s.58,3.34,1.92,4.64,1.26,3,1.35,4.66c.9,16.65-1.11,33.17-2.09,49.73-.07,1.2-.22,2.37-1.29,3.1-1.5,1-2,2.2-.73,3.72,1.09,1.26,2.38,1.91,3.87.62S33,889.85,34.85,890c10.32.82,20.28-2.07,30.45-2.77,2.23-.15,3.84-1.13,3.55-3.22-.8-5.76,2.24-11,1.76-16.71-.11-1.26.62-3.09-1-3.51s-2.14,1.37-2.46,2.58C65.43,872.9,60.9,876.54,55,879.12c-5.06,2.18-6.4,1.65-7.91-3.64-1.16-4.09.46-7.19,3.74-8.66,3.51-1.58,4.85,1.51,5.72,4.41a4.17,4.17,0,0,0,1,1.7c1,1,1.9,1.35,2.47-.51,2.43-7.95.82-16.38,3-24.37a1.92,1.92,0,0,0-1.56-2.26c-1-.2-1.49.7-1.39,1.58.42,3.65-2.79,5.53-4.17,8.26a6.54,6.54,0,0,1-6.32,3c-1.6-.15-2.17-1.35-2.16-2.86,0-8.5,0-17,0-25.49,0-1.65,1.13-2.69,2.18-3.79s1.73-2.15,1.17-3.58c-.64-1.64-2.18-1.1-3.45-1.25C42.72,821.19,38.8,825.07,34.88,823.47Zm491.4-320.81c0,1.17,0,3.33,0,5.49,0,2.85-1.42,5.45-4.1,5.35-3.23-.12-7.45,2-9.56-3a49,49,0,0,1-3.86-16.73,85,85,0,0,0-1.37-13.21c-1-4.81-2.22-10.43,1.83-15.2,2.43-2.86,1.06-4.23-2.54-4.54s-6.73,1-10,1.94c-1.49.43-3.76-.62-4.3,1.49-.58,2.28,1.26,3.55,3.1,4.54,2.73,1.47,3.69,4.11,4.08,6.86,1.44,9.91,1.52,19.93,3.27,29.86,2.19,12.43,11.74,20,23.2,15.85,6.48-2.36,14.7-4.43,16.18-13,1.6-9.21-.53-18.41-2.12-27.51-.87-5-2.05-9.94-2.88-14.94-.32-2-.26-4.07,1.44-5.57,1.24-1.09,2.2-2.2.82-3.75-1.19-1.33-2.78-2.14-4.47-1.4-5.33,2.33-11,3-16.66,3.66-1.44.17-2.68.53-2.86,2.19-.15,1.28-.67,3.07.81,3.59,3.36,1.19,3.41,4.16,4.83,6.64,2.14,3.72,1.28,7.41,2,11C524.47,488.75,526.75,495,526.28,502.66ZM264.41,550.29A70.8,70.8,0,0,1,261,575.81c-1.33,4.27-4.35,4.56-7.86,4.14-4-.49-4.29-3.43-4.34-6.65a148.47,148.47,0,0,1,1.65-25.18c.88-5.74,1.22-11.44,5.68-15.78,1.1-1.07,1.64-2.09.44-3.4-1-1.13-2.18-2.46-3.75-1.11-2.31,2-5,1.52-7.61,1.56-3.33,0-6.66-.08-10-.07-1.15,0-2.48,0-3,1.3a2.3,2.3,0,0,0,.94,2.66c4.36,3.28,2.82,8,2.32,12-1.32,10.56-3.56,21-3.38,31.73.14,8.53,4.6,13.11,13,13.12,1.67,0,3.34-.12,5,0,9,.71,15.08-3.88,18-11.68,3.29-8.93,4-18.52,3.81-28.06-.17-6.77-.18-13.31,5.72-18.21,2.06-1.71.88-3.75-1.12-4.11-3.64-.64-7.4-.55-11.11-.8-2.24-.16-3.31,1.39-4.17,3s.13,2.77,1.71,3.44c1.81.78,1.43,2.45,1.45,3.89C264.44,541.41,264.41,545.24,264.41,550.29ZM741.76,696.9c0-5.75-.09-10.58,0-15.4.08-3.22,1.16-6.17,4-8,3.08-2.06,6.86-2.87,9.82-.71,3.58,2.63,3.64,8.28,3,11.21-1,5-.83,9.85-1,14.73-.2,7.25.16,14.47-4.95,20.55a3.36,3.36,0,0,0,.37,4.59c1.25,1.22,2.7.79,4.13,0,3.88-2.13,7.81-2.42,11.66.11,1.38.92,2.91.4,4.37.57s2.74.22,3.56-1.16,0-2.7-.94-3.55c-2-1.77-1.8-4-2.06-6.35-1.2-10.67,2.2-21,1.83-31.67-.37-10.4-2.68-15.59-12.38-18.72-13-4.19-29.1,1.07-28.65,19.32.22,9.15,0,18.3,0,27.46,0,2.83-.47,5.32-3.5,6.5-1.08.43-2.33.82-2,2.38.28,1.34,1.47,1.53,2.58,2a23.58,23.58,0,0,0,11.09,1.82c1.45-.14,3.2.41,4.06-1.18,1.13-2.1-1.07-2.26-2.06-3.19a9.22,9.22,0,0,1-1.4-2.53C740.1,709.28,742.75,702.49,741.76,696.9Zm-594.59-1.21c0-4.67.24-9.35-.07-14a23,23,0,0,0-3.86-11.46c-5.4-8-13.47-9.26-22-8.21-6.76.84-13.42,4.25-14.53,11.21a73.34,73.34,0,0,0,.33,25.75c1.33,6.7,1.7,13.41-.41,20-.46,1.45-2.7,2.47-1.58,4.32,1.28,2.12,4,1.72,5.45,1.08,5.2-2.28,10.08-2.62,15.23,0a2.61,2.61,0,0,0,3.69-1.61c.52-1.62.7-3.41-1.48-4.13a2.82,2.82,0,0,1-2.15-2.37,60.49,60.49,0,0,1-1.64-13.23c0-5.21,1-10.5-1.62-15.63-1-2-.64-5-.22-7.39,1.32-7.7,7.93-10.9,13.68-6.48,3,2.33,3.84,6.33,4,10,.25,8.32.38,16.68-.07,25-.19,3.66-.5,7.82-4.17,10.31a1.82,1.82,0,0,0-.82,2.14c.4,1.44,1.64,1.45,2.81,1.56,4.5.44,8.78-.75,13.07-1.85a2.22,2.22,0,0,0,1.84-2.06,2,2,0,0,0-1.67-2.18c-3.36-1.1-3.8-3.78-3.77-6.78C147.22,705,147.19,700.36,147.17,695.69Zm587.38-69.76c0,4.66,0,9.33,0,14,.06,7.91,5.15,16.29,11.93,17.72,5,1,10.27.39,15.42.4,5.54,0,9.74-2.64,11.74-7.62,3.31-8.25,2.37-16.95,1-25.42-1.18-7.14-.56-14.23-.66-21.35a2.07,2.07,0,0,1,1.28-2c1.1-.51,2.2-1.08,1.79-2.56-.46-1.66-1.9-1.64-3.25-1.65-6.16,0-12.32-.13-18.47-.05-3.13,0-4,1.72-2,4.18,3.49,4.41,4.25,9.44,4.26,14.85,0,6.47-.92,13,.6,19.39,1,4.2-.42,10.18-3.7,12.79-1.23,1-2.56,1.88-4.09,1.29-4.82-1.87-9.18-5.91-8.61-10.36.47-3.6-.16-7.34.15-11,.81-9.45-3.08-19.77,5-28,.72-.73.53-2.9-1.22-2.13-4.39,1.93-8.87.68-13.29,1-1.53.11-3.15,0-3.34,2.1-.15,1.49-.35,3.11,1.56,3.75,3.8,1.27,4.11,4.25,4,7.63C734.43,617.27,734.54,621.6,734.55,625.93ZM244.66,792.55v.12h9.5c1.13,0,2.54.27,3-1.13.33-1.07-.67-1.83-1.43-2.44-3.7-3-4.7-7.57-4.87-11.48-.46-10.09-2.62-20-2.17-30.21.18-4.07,1.47-6.24,5-7.09s5.58,1.86,6.87,4.57A40.85,40.85,0,0,1,264.4,761c.26,6.49,0,13,.07,19.49,0,2.86,0,5.49-2.26,7.84-2,2.08-1.57,4.08,1.78,4.19,4,.14,8,.08,12,.08,1.17,0,2.48,0,2.9-1.38.48-1.65-.68-2.37-2-3-3.24-1.52-4.55-4.58-4.78-7.66-.68-8.87-.78-17.75-1.67-26.65-1.12-11.21-5.13-20.66-17.19-23.47-9.87-2.3-20.7,2.33-21.16,15-.34,9.31,3.46,18.19,2.34,27.53-.07.59.45,1.24.59,1.88,1.1,4.88,2.24,9.67-1.82,14-2.1,2.26-.81,3.6,1.94,3.65C238.33,792.6,241.5,792.55,244.66,792.55ZM140,625.38c0,4.81.19,9.15,0,13.47-.41,7.87-7.61,13.24-13.27,9.92a8.84,8.84,0,0,1-4.45-8.69c.81-8.35,2.89-16.57,2-25.08-.49-4.92.41-9.47,4.16-13.26,2.18-2.2,1.26-4.16-1.83-4.23-6.33-.16-12.66,0-19,0-3.11.05-4.22,1.84-2.13,4.1,2.49,2.68,2.36,5.63,2.39,8.78.13,11.25-3,22.31-1.75,33.62.57,5.41,2.69,9.66,7.64,12.48,4.59,2.6,9.46.89,14.14,1.58,12.51,1.82,19.07-8.49,19.28-19.71.15-8.16,0-16.33-.11-24.48-.06-3.65,0-7,4.18-8.58,1.75-.64,1.67-2.37,1.41-3.87s-1.7-1.88-3.08-1.89a46.17,46.17,0,0,0-8,.09c-2.38.39-5.12-2.24-6.42-.64-1.93,2.38,2.15,3.56,2.61,5.75a6.28,6.28,0,0,0,.24,1.46C141.05,612.56,139.74,619.29,140,625.38ZM649.3,571.57c2.43-6.55-2.65-12.14-2-18.5a22.88,22.88,0,0,0-1.12-9.77c-.9-2.61-1.24-5.91,1-8.53,1.05-1.21,2.87-2.32,2-4.2-1-2.09-3.2-1.21-4.95-1.36-4.6-.39-9.32.89-13.83-.74-1.34-.48-2.6-2.13-3.9-.52a3.92,3.92,0,0,0,.07,5.11c6.84,7.35,3.83,17,6.13,25.45,1,3.7,0,7.75,1.61,11.69a7.55,7.55,0,0,1-3.37,9.45c-4,2.2-8.66-.14-10.44-4.43-2.62-6.34-1.48-13.28-3-19.89-1.24-5.37-.26-11.26-.23-16.92,0-2.1-.5-4.31,2.47-5.22,1.8-.55,1.25-2.49,1.16-3.94-.11-1.78-1.44-2-2.85-2-3.67,0-7.33,0-11,0a4,4,0,0,0-3.68,2.16c-1.06,1.86.47,2.8,1.58,3.67a12,12,0,0,1,4.8,12.23c-1.46,9,2.27,17.58,2.15,26.55a16.29,16.29,0,0,0,3.63,10c5.14,6.41,11.29,8.55,19.45,8.52,7,0,11.2-2.18,13.8-8.53C650.19,578.37,648.85,574.92,649.3,571.57Zm85.24-46v.08c-3.33,0-6.67-.17-10,0-4,.26-5.71,3.33-3.14,5.95s2,4.84.56,7.51a11.27,11.27,0,0,0-1.79,5.13c0,1.37-.4,2.92-1.83,3.26-2,.48-1.55-1.73-2.2-2.68-1-1.49-1.54-3.3-2.43-4.89-1.72-3.09-2.77-5.82.55-8.84,1.94-1.77,1.18-3.77-1.78-3.88-3.82-.13-7.65-.09-11.48-.07-1.44,0-3.15-.38-3.74,1.59-.5,1.66-.57,3.52.77,4.7,6.66,5.84,9.41,14.22,14,21.37,2,3.15,3.54,6.7,3,10.79a15.73,15.73,0,0,0,.68,6.86c1.62,5,2.09,10-2.41,14.2-3,2.79-1.06,4.38,1.82,5.14a6.88,6.88,0,0,0,4.42,0c4.73-2.38,9.72-1.66,14.65-1.79,1.45,0,3.2.25,3.82-1.58.51-1.48-.61-2.62-1.59-3.41-3.37-2.69-3.68-6.22-3.88-10.23-.46-9.21-.06-18.37,4.26-26.55,3.29-6.23,3.93-13.73,9.38-18.95,2.06-2,1.23-3.66-1.75-3.73C741.19,525.52,737.86,525.58,734.54,525.58Zm-587.26,0v.09c-3.16,0-6.33.11-9.49,0-3.39-.14-4.12,1.53-2.2,3.82,2.42,2.88,3.69,6.27,5.19,9.56,5.12,11.28,9.79,22.62,8.35,35.58-.46,4.09-.35,7.86-4,10.57-1,.75-2.18,1.88-1.57,3.39.7,1.74,2.45,1.46,3.9,1.51,4.91.17,9.89-.66,14.59,1.75,1.19.6,3,.31,4.44.06,3.51-.59,4.14-2.65,1.82-5.4-1.38-1.63-3.16-3-3.2-5.45-.11-7.78.43-15.82,3.45-22.72,3.69-8.45,6.8-17.66,14.4-23.94a4.7,4.7,0,0,0,1.58-5.41c-.83-2.4-3-1.61-4.71-1.67-3.17-.11-6.33,0-9.5-.07-1.36,0-2.75,0-3.49,1.4s.33,2.48,1.22,3.45c1.26,1.37,2.58,2.64,1.49,4.79-1.5,3-2.88,6-4.32,9-.41.85-.6,2.07-2,1.74a2.12,2.12,0,0,1-1.53-2.32c.18-2.67-1.13-4.89-2.28-7-1.3-2.41-1.61-4.21.66-6.08,1.2-1,2-2.32,1.11-4a4.44,4.44,0,0,0-4.41-2.64C153.61,525.67,150.45,525.6,147.28,525.6Zm570.34,248c2.94,1.7,3.5,4.85,4.19,7.55s3.49,5.87-.95,8.63c-1.42.87-1.14,5,1.86,4.71,7.07-.64,13.67,2.41,20.64,1.94,3.57-.24,4.27-1.18,2.44-4.61-7.49-14-14.91-28-13.24-44.73.43-4.4.42-8.57,4.48-11.44,1.59-1.12,1.61-3.1-.26-3.41-7.29-1.19-14.56-3.5-22-2-2.92.57-4,2.78-1.38,5a9.43,9.43,0,0,1,3.36,8.88c-1.18,9.88-1.64,20.16-8,28.37-3.67,4.74-4.65,11.42-10.58,14.54-1.31.69-1,2.34-.88,3.66.18,1.48,1.35,1.81,2.57,1.77a6.32,6.32,0,0,1,4.66,1.24c2.15,1.77,5,1.34,7.17.63s5.25-3,2.22-5.35c-2.81-2.21-1.75-3.75-.78-5.83C714.56,780.06,716.06,776.94,717.62,773.64Zm-80.45,18.94v0c3,0,6,.07,9,0s4.33-1.78,2-4c-3.64-3.54-2.82-7.83-2.23-11.72,1.71-11.37,4.1-22.62,3.57-34.26a11.66,11.66,0,0,0-6.73-10.33c-10.87-5.22-26-1.43-29.39,11.67a109,109,0,0,0-3.62,29.75c.15,6.11.43,12.1-5.65,15.95-.72.46-1.37,1.33-.88,2.07a2.89,2.89,0,0,0,2.14.93c4,.06,8,0,12,0,1.16,0,2.5.13,3.09-1.14a2.87,2.87,0,0,0-1.09-3.55c-2.22-1.66-2.2-3.91-2.2-6.28,0-9.1,0-18.16,1.61-27.2.56-3.08.71-6.11,2.07-9,1.73-3.73,4.68-5.11,8.3-4.46s6.51,6.13,5,9.35c-1.65,3.57-1.17,7.13-1.34,10.74-.3,6.08-2,12-2.23,18.14-.1,2.63-.39,6.33-3.16,8.6a3.24,3.24,0,0,0-1.25,3.57c.72,1.84,2.52,1.21,3.94,1.24C632.51,792.62,634.84,792.58,637.17,792.58ZM161.08,730c-3.61.09-7.19-.29-10.59,1.8-1.85,1.14-5.08-1.17-6.5,1.11-2,3.25,2.56,3.35,3.46,5.66a38.34,38.34,0,0,1,.85,24.82c-3,9.68-5.94,20-12.29,28.51-.72,1-1.44,1.94-.92,3.17.68,1.58,2.22,1.09,3.49,1.25,6.33.81,12.26-2.75,18.64-1.68,1.57.26,3.52.43,4.21-1.68.62-1.91.34-3.64-1.8-4.55a2,2,0,0,1-1.3-2.77q1.68-4.63,3.32-9.29c.34-1,.69-2,1.79-2.21s1.57,1,2,1.89c1.4,3,2.77,6.06,4.15,9.08.53,1.15.75,2.29-.58,3s-2.7,1.54-1.82,3.44a5.25,5.25,0,0,0,4.14,3.14c4.55.88,8-2.69,12.35-2.87,1.59-.06,1.83-4-.11-4.86-4.78-2-5.81-6.48-7.92-10.32-4.31-7.85-10.3-15.07-8.87-25,.12-.83-1-1.77-1.1-2.71-.51-4.2-1.9-8.5,1.47-12.31,1.2-1.37,3.72-2.47,2.34-4.91-1.13-2-3.34-1.86-5.38-1.76C163.08,730.08,162.08,730,161.08,730ZM285.46,597.38v0c-2.17,0-4.33,0-6.5,0-6.49,0-6.64.23-5.75,6.59a21.29,21.29,0,0,1,0,3c0,15.16-.64,30.23-5,44.91-.82,2.72.17,4.46,3.48,4.41s6.09-1.63,8.61-3c2.2-1.22-1-3.72-1-5.81a29,29,0,0,0-.1-3.49c-1-8.83,2.86-17.33,1.76-26.17-.12-1,0-2.19,1.23-2.37s1.4,1,1.87,1.91c3.64,6.84,7,13.88,11.18,20.38,2.57,4,4.08,7,.24,11-1.5,1.57-1.72,5.63,1.34,5.07,3.35-.61,7.22-.15,10-1.9,1.4-.9-1.7-3.74-1.77-6,0-.79.36-1.6.35-2.4-.07-6.11,2-12,2.11-18,.08-6.17,3-11.89,2.14-18.12-.13-.89.92-2.09,1.68-2.91,1.66-1.78,2.26-3.78,1.24-5.94s-3.25-1-4.95-1.24a16.61,16.61,0,0,0-3,0c-4.31.13-5.55,1.63-3.83,5.49,1.1,2.44,1,4.83,1.06,7.29,0,1.53-1.38,2.45-2.1,1-1.2-2.42-3.81-4.72-2.72-7.72,2-5.33-.83-6.13-5.08-6C289.79,597.44,287.62,597.38,285.46,597.38ZM81.21,726.27v0c5.33,0,10.67-.08,16,0,3.52.07,5.25-1.6,5.47-5,.29-4.24-.62-8.59,1.78-12.6a2.51,2.51,0,0,0-1.15-3.46c-1.41-.62-1.93.59-2.49,1.72-2.53,5.1-6,8.63-11.87,10.59-5,1.65-5.64-1.93-7.08-4-1.21-1.76-1.87-5.3,1.12-6.43s6-.58,7.11,3.33c.91,3.3,2.46,2.37,4.19.62,1.45-1.46,1.44-3.23,1.45-5.1q0-6.72.31-13.44c0-1.12,2-2.41.08-3.29-1.42-.64-2.77.71-3.08,1.9-1.08,4.12-4.21,5.15-7.69,6.7-3.68,1.63-4,.44-4.06-2.54q-.06-10.74-.07-21.49c0-1.69,0-3.38,2-4.16a1.9,1.9,0,0,0,1.41-2.31,2.12,2.12,0,0,0-2.28-1.54c-6.17,0-12.33-.16-18.49,0-2.24.07-4.29,1.72-2.71,4,4.44,6.33,2.52,13.76,3.72,20.56,1.47,8.24.34,16.93.33,25.43,0,2.16.14,4.3-1.92,5.89a2.81,2.81,0,0,0-1.14,3.52c.75,1.5,2.28,1,3.56,1.06C70.88,726.29,76.05,726.27,81.21,726.27Zm201.05-20.73-1.61-.24c0-4.41,1-9.12-.23-13.15-1.88-6.17-1.59-12.28-.85-18.23,1.11-8.84,1.64-8.77-7.35-8.4h-.5c-3.31-.2-4,1.38-3.23,4.36,1.19,4.4,3.2,8.89,3.06,13.28-.3,9.5,2.62,18.72,1.77,28.22-.24,2.63,2.19,5.39-1,7.92-1.12.89-.62,3.11,1.54,3.15,7.32.14,14.65.12,22,.1,1.36,0,2.43-.78,1.75-2.22-2.46-5.25.94-8.5,4.17-13-.17,4.57,1,8.15-1,11.61-1.31,2.29-.21,3.45,2.15,3.64a30.75,30.75,0,0,0,5,.12c1.58-.13,3.58.62,4.61-1.12,1.27-2.14-.88-3.21-1.82-4.67-.52-.81-1.28-1.85-1.15-2.66,1-6.24-2-12-1.83-18.17.14-6.29-2.67-12.18-2.4-18.56.07-1.86-1.22-3.56.86-5.16a2,2,0,0,0-.05-3.44c-3.15-2.18-6.7-1.06-10.1-.78-1.07.08-1.55,1.15-1.22,2.31a2.16,2.16,0,0,0,.42.89c4.55,5.11,1.38,9.8-.73,14.57a32.88,32.88,0,0,1-4.07,6.18C287.25,696.34,286.5,702,282.26,705.54Zm-201-67.9c0-3.9,0-7.07,0-10.23,0-1.58-.49-3.64,1.71-4.17,1.9-.47,4-.78,5.61.94a14.64,14.64,0,0,1,4,6.2,1.74,1.74,0,0,0,2.23,1.43c.94-.32.87-1.31.87-2.13,0-3.5,0-7,0-10.49,0-3.11.36-6.13-1.48-9.13-1.71-2.8-2.53-1.95-3.65.08-.48.87-.68,1.88-1.13,2.77-1.34,2.61-3.76,2.42-6.1,2.14-2.79-.33-2-2.61-2.09-4.29-.66-7.81,4.68-8.34,10.17-6.52a11.87,11.87,0,0,1,8.09,8.16c.46,1.63,1.73,3.07,3.72,2.53a2.31,2.31,0,0,0,1.34-3.31c-2-3.88-1.31-8.11-2.08-12.1-.37-1.93-1-6.39-3.87-5.23-6.26,2.51-12.51.51-18.64,1.45-5,.75-9.36-1.69-14.1-2-3.4-.2-5.37.51-3,4.5,1.8,3,2.24,6.4,2.4,10a208.65,208.65,0,0,1-2,37.59c-.88,6.42-.63,8.09,6.27,9,4.16.57,8.37,1,12.58,1.26,2.14.12,3.58-1.67,2.11-3.15C79.46,648.18,82,642.29,81.27,637.64ZM617,517.85v0c3.16,0,6.33,0,9.49,0,1.31,0,2.78.08,3.25-1.62a2.44,2.44,0,0,0-1.37-3c-4.31-1.83-4.25-5.3-3.88-9.11a10.54,10.54,0,0,0-.5-5.4c-2.15-5-1.58-9.81-.14-15,1.19-4.3,3.11-8.32,4.34-12.61,1.1-3.86,1.1-8.63,4.33-11.36,2.14-1.81,3.57-3.32,2-5.58-1.38-2-4.19-1.6-5.94-.55-2.85,1.71-5.78,1.24-8.72,1.3s-6,0-9-.06c-1.9,0-3.47.8-1.71,2.5,5.44,5.26,1.14,10.53.33,15.74-.27,1.73-1.91,2-2.79.24-1.38-2.64-2.37-5.48-3.7-8.15-1.73-3.46,3.48-7,.44-9.69-2.47-2.19-6.87.68-10-1.73a3.32,3.32,0,0,0-1.37-.56,4,4,0,0,0-4.38,1.65c-1.34,1.81.26,2.75,1.17,3.79,2.2,2.49,5,4.55,6.32,7.66,4,9.68,11,18.25,12.15,28.95.65,6.13,2.89,12.81-2.23,18.52-1.84,2.06-1.07,3.81,1.83,3.93C610.38,518,613.71,517.85,617,517.85ZM265.59,518v0c2.83,0,5.67,0,8.5,0,3.63-.08,4.25-2.14,2-4.41-2.54-2.61-2.69-5.47-2.64-8.7.08-5.92,3.08-11.35,2.69-17.37-.09-1.34.81-2.91,1.63-4.12a159.43,159.43,0,0,0,10.5-19,9.86,9.86,0,0,1,4.33-4.64c1.6-.81,3.2-1.57,2.09-3.68-1-1.87-2.7-3.53-4.83-2.44-3.17,1.6-6.39,1.58-9.72,1.49-2.38-.06-3.83,1.14-2.59,3.35,2.44,4.32,1.08,8.09-1.17,11.71-1,1.54-.51,4.69-3.25,4.33-2.22-.3-.72-2.87-1.39-4.28a10.13,10.13,0,0,1-.64-1.33c-1.12-3.59-2.7-7.1,1.45-10.13,1.43-1,1.4-3.5-1.06-3.59-6.93-.26-13.84.11-20.7-1.74-2.59-.7-5.43,3.71-3.75,4.72,4.63,2.77,4.74,7.6,6.26,11.74,3.15,8.6,7.61,17.07,5.62,26.66-1.13,5.5.59,11.75-4.54,16.37-2.07,1.85-.31,4.87,2.69,5C259.92,518.07,262.76,518,265.59,518ZM622.07,866.58c3.33,0,6.66,0,10,0,2.7,0,4-1.35,2.07-3.71-4-4.89-6.1-10.73-7.32-16.63-1.06-5.17-4.5-9.41-4.45-15.1,0-5.07,2.21-9.68,2-14.61-.15-3.72.33-6.89,3.45-9.3.86-.67,2-1.57,1.18-2.9-.65-1-1.7-1.26-3-1-5.69.91-11.39,1.86-17-.77-2-.94-3.06.92-4,2.19-1,1.45-.76,2.93,1.16,3.54,2.19.68,1.81,2.43,1.93,4.07,1,13.29-2.78,25.51-9.78,36.46-3,4.63-3.78,11.24-10.18,13.46a2.4,2.4,0,0,0-1.06,3.06,2.35,2.35,0,0,0,2.45,1.37c4.16,0,8.32,0,12.48-.11,1.72,0,3.33-.9,2.22-2.76-3.45-5.74.54-10.14,2.34-14.94.47-1.28,1.36-2,2.62-.92,2.09,1.87,2.73,10.94,1,13.46-2.08,3.09-1.33,4.93,2.35,5.17C615.73,866.74,618.91,866.58,622.07,866.58Zm-362,.07c3.17,0,6.33,0,9.49,0,1.27,0,2.82.62,3.59-.92a3,3,0,0,0-.9-3.64c-5.19-4.64,0-9.25,0-13.87,0-.77,1.11-1.1,2-.59,3.77,2.09,6.1,11,3.79,14.87-1.59,2.71-.92,4.14,2.17,4.21,3.49.07,7,0,10.49-.12,1.45,0,3.34.37,4.05-1.2.82-1.82-.73-3.12-2-4.19-6.11-5.25-8.34-13-12.63-19.39s-4.59-13.71-6.29-20.6c-1-4-3.36-10.15,2.7-13.75,1.13-.67.83-2.47-.31-3.52s-2.13-2.39-3.86-1.36c-4.83,2.88-10.06.85-15.08,1.31-1.15.11-2.25-2.38-3.28-.27a3.71,3.71,0,0,0,.56,4.25c4.82,4.18,3.6,10.3,4.19,15.3,1.65,14.19-3.4,27.06-10.73,39.05-.61,1-1.51,1.95-1,3.16s1.82,1.28,3,1.29ZM799.61,726.29v0c5.66,0,11.32,0,17,0,2.37,0,4.11-.48,1.77-3-2-2.09-1.92-4.46-1.92-7q0-18.23,0-36.46c0-3-.15-5.91,2.58-8.17,1.33-1.1,1.4-3,.78-4.66-.68-1.8-2.44-1.45-3.88-1.47-4.33,0-8.66-.11-13,0-1.91.05-4.35-.92-5.59,1-1.42,2.2,1,3.51,2,5.11a4.78,4.78,0,0,1,1,2.23q.17,11.24.15,22.46c0,1.55-.81,2.89-2.46,2.08-3.85-1.9-8.71-2.6-10.11-7.75-.35-1.27-1.1-2.15-2.55-1.42a1.8,1.8,0,0,0-.88,2.54c2.75,5.2,1,10.79,1.56,16.18.14,1.55-.65,3.68,1.54,4.24,2,.51,3.13-1.23,3.6-2.77,1.49-4.79,5.24-2.7,7.88-2.33,2.26.31,1.94,3,.91,4.5-1.94,2.76-1.89,8.24-7.7,6.37-5.23-1.68-9.51-4.3-10.86-10.22-.28-1.25-.83-3.4-2.81-2.79-1.74.54-1.42,2.64-1.15,3.95.88,4.36,2,8.68,1.58,13.18-.3,3.1,1.14,4.15,4.06,4.09C788.62,726.22,794.12,726.29,799.61,726.29ZM816.47,624c0-5.16,0-10.32,0-15.48,0-3.92-.65-7.88,2.68-11.21,1.84-1.85.45-3.41-1.9-3.61a11.19,11.19,0,0,0-4.44.32c-9.4,3.27-19.1,1.89-28.53,1.09-4.65-.4-5.16.79-5.26,4.31-.09,3.12.16,6.19-1.25,9.26-.8,1.75-1.47,4.88.65,5.94,3,1.52,2.45-2.2,3.47-3.52,3.39-4.36,7.14-7.61,13.16-7.72,4.77-.09,2.79,4.12,4.43,6,1.39,1.56,2.26,4,.17,5.2a5.57,5.57,0,0,1-6.54-.5c-1-.86-1.73-2-2.65-3s-.41-3.18-2.32-2.56c-1.71.55-2.13,2.37-2.17,4.15-.12,5.58,1.06,11.27-1.69,16.64a2.21,2.21,0,0,0,1.45,3.21c1.47.37,2-.69,2.37-1.93a10.3,10.3,0,0,1,5.34-6.79c4.28-2.29,7-.76,7,4,0,6,0,12,.09,18,0,2.06,0,4-1.83,5.42-1.18.94-2.31,2.15-1.53,3.82.71,1.51,2.32.89,3.56,1.14,6.11,1.25,11.55-2.42,17.57-2.32,2.47.05,2-2.67.67-3.68-2.92-2.23-2.51-5.19-2.52-8.14C816.47,636,816.48,630,816.47,624ZM606.87,187.07c-.37-3.42.87-7-.62-10.33-1.57-3.47-8.18-4.16-14.09-1.89-12.32,4.73-22.44,12.64-30.76,22.57-3.17,3.79-7.61,7.68-6.94,13.77.22,1.93.61,3.54,3,2.39,5.43-2.63,11.24-2.91,17.07-3.76,4.84-.71,9.75-1.14,14.52-2a40.62,40.62,0,0,0,12.64-5.16C607.6,199.12,607.34,193,606.87,187.07ZM354.12,208.71a3.47,3.47,0,0,0-.5-2.25c-4.58-4.83-5.82-11.78-12-15.92-10.32-6.94-19.27-15.82-32.77-16.91-3-.25-4.26,0-5.32,2.26a27.28,27.28,0,0,0-.81,20.32c2.87,8.74,11.48,10.79,19.17,11.63,6.18.67,12.13,2.68,18.51,2.65,3.06,0,7.08.31,10,1.9C354.3,214.5,354.27,212.63,354.12,208.71ZM332.81,569.37c0,7.49.1,15,0,22.46-.06,2.92.75,4.3,3.91,4.12a93.54,93.54,0,0,1,11,0c3.54.21,4.6-1.22,4.42-4.65a112.4,112.4,0,0,1,4.85-38.87c1.14-3.72,0-4.56-3.59-4.56-6.19,0-7.87-2.28-6.69-8.31.19-1,.62-2-.22-2.79-1.07-1-2.26-.42-3.2.23-2.44,1.72-4.56,4.21-7.24,5.19-3.19,1.16-3.24,3.09-3.21,5.7C332.87,555.06,332.81,562.21,332.81,569.37ZM563.46,685.83a47.18,47.18,0,0,1-11.2,14.72c-2.52,2.19-4,4.52-1.93,7.68,2.92,4.36,2.35,8.44-.37,12.66-1.57,2.44-.43,3.57,2.31,3.79,4.58.38,8.56.15,9.23-5.78.18-1.59,1.72-3.53,1.54-4.54-.74-4,7.17-8.52-.51-12.14-.18-.09,0-1.29.22-1.83,3.51-7,5.18-14.48,6.68-22.07-1.52-.49-2,.92-2.72,1.65a16,16,0,0,1-11.24,5.37c-5.85.5-11.85.71-17.34,4.22-6.08,3.89-12.91,6.61-17.48,13a5.77,5.77,0,0,0,1.69.52c3.95-.37,8-1.44,10.08,3.73.51,1.29,2.37,1.15,3.61.53,6.93-3.45,14.5-5.83,19.42-12.53C557.81,691.56,560.77,688.8,563.46,685.83ZM552.11,551.55c-7.67-3.68-14.74-1.62-21.48,2-6.9,3.65-13.23,8.38-20.61,11.14-4.9,1.83-9.75,2.11-14.13-1.52-1-.86-1.71-3.17-3.42-1.8-1.2,1-.13,2.77.12,4.23.51,3,2.32,4.52,5,5.58a17.84,17.84,0,0,0,12.2.58c5.44-1.65,9.51-5.43,14-8.55C532.36,557.2,540.37,550,552.11,551.55Zm-53-20.65c.19-4.54-2.34-6.14-3.92-8-5-5.89-11.55-11.87-18.61-12.28-16.22-.94-32.83-3-48.79,2.7-1.43.51-3.95.42-3.51,2.63.39,2,2.51.81,3.85.74,8-.4,15.39-4,23.51-3.84,10.57.18,21.35-1.4,31.07,4.45C488.47,520.79,494,524.66,499.08,530.9Zm-183,84.51c-.38,3,.73,3.81,3.58,3.18,3.87-.85,6.09-3.22,7.51-6.73,1.24-3.08,2.66-6.09,4.07-9.1.83-1.78,2.54-4.28-.11-5-2.91-.83-7.44-2.26-9.14,1C319.24,603.89,318,609.81,316.05,615.41ZM519.11,580c1.65,1.2,2.46.82,3.14.42,6-3.45,12.86-5.15,19-8.6,5.24-3,11-5.73,17.45-3.34.92.34,2.06.52,2.68-.54s-.22-1.87-.74-2.69a4.44,4.44,0,0,0-3.73-2.15c-4.82-.21-9.65-.29-14.2,1.73C534.14,568.65,527.12,574.69,519.11,580Zm-18.33,5.78c-14.32,10.34-14.56,36.94-3.36,49.81C491.76,618.91,491.76,602.55,500.78,585.82Zm51-28.89c-3.45-1.24-6.59-1.6-10-.33-8.32,3.07-14.78,8.9-21.62,14.11-5.58,4.25-11.51,6.49-18.53,5.37-1.16-.18-2.78-1.64-3.2.51-.33,1.66,1.53,1.95,2.77,2.21A21.33,21.33,0,0,0,519,575C529.11,567.61,538.15,558.26,551.78,556.93Zm-30.38,32c4.81,3.12,9.38,1.19,13.81,0,3.68-1,6.83-1.12,9.5,1.9.59.66,1.13,1.31,2,.74a2,2,0,0,0,.7-2.19,6.92,6.92,0,0,0-8.37-5.86C533,584.55,527.87,588.69,521.4,588.9ZM497,737.54c.4,2.25.84,4.7,1.26,7.15.15.87.53,1.81,1.43,1.77,1.39-.07,1.24-1.35,1.13-2.29a37.1,37.1,0,0,1,3.46-20.87c.61-1.24,1-2.72-.55-3.5-1.93-1-2.72.69-3.35,2C498,726.68,497.91,732.07,497,737.54ZM568.2,334.09c-1,0-2,0-2.57,1.09s-.64,2.3.32,2.67c5.78,2.26,8.67,8.15,14,10.93,1.51.79,3.35,2.64,4.7.39,1.22-2-.25-3.91-2.21-4.78-3-1.35-5.41-4-8.19-5.18S571.68,333.87,568.2,334.09Zm-228.18,0c-.28.09-1.21.07-1.47.49a23.73,23.73,0,0,1-13.61,10.63,2.72,2.72,0,0,0-1.24,4.2c1.18,1.6,2.66.68,3.95-.13a13.79,13.79,0,0,1,2.47-1.59c5-1.74,7.09-7,11.55-9.27,1.31-.67,1.78-1.37,1.46-2.66S341.6,334.19,340,334.11Zm215,238a18.72,18.72,0,0,0-7.3,1.29c-1.07.39-2.49.76-2.32,2.12.09.79,1.12,1.55,1.87,2.14a5.28,5.28,0,0,0,5.57.9,9.12,9.12,0,0,1,5.33-.6c1.64.31,3.83,1.79,4.43-1.06.53-2.59-1.35-3.93-3.65-4.46A26.94,26.94,0,0,0,555,572.13ZM505.09,748.86c.43-8.6,1.87-16.79,7-24,1-1.34.19-2.66-1.13-3.32-1.71-.86-3,.1-3.61,1.6C503.73,731.42,503.54,740,505.09,748.86Zm46.38-162.39c.38,1.21-1.16,3.81,2.42,3.78,4.91,0,7.55-1.76,7.64-5.46s-2.66-3.13-4.87-3.31C553.39,581.21,551,582.11,551.47,586.47ZM536.28,240.21c.37,2-.37,4.09,1.79,4.06,1.68,0,1.4-1.88,1.49-3.17.07-1-.06-2.55.43-2.8,4.17-2.13,1.74-6.73,3.77-9.69.79-1.16-.59-2.55-1.89-3-1.7-.6-1.64,1-2.1,2C537.75,231.79,538.33,236.63,536.28,240.21ZM515.85,711.72c4.44,1.23,8.33-.13,12-2.36,1.07-.64,2.94-1.05,2.49-2.59a3.51,3.51,0,0,0-4-2.23C522,705.34,517.17,705.79,515.85,711.72Zm3.65-54.1c1.2-.23,2.86.64,3.18-.82.47-2.06-1.58-1.63-2.68-1.88-5.46-1.24-11.1-1.88-15.69-5.6a3.07,3.07,0,0,0-1.88-.48c-.78,0-2,.09-2.25.57-.62,1,.29,1.83,1.19,2.33A49.28,49.28,0,0,0,519.5,657.62ZM372.61,244.94c.9-.12,1.33-.94,1-1.39-3.51-4.8-2.37-11.09-5.23-16.08-.5-.88-.29-2.68-2.11-1.8a2.42,2.42,0,0,0-1.53,2.85c1.67,4.82,3.44,9.6,5.36,14.32A3.12,3.12,0,0,0,372.61,244.94ZM507.84,524.18c-.88-4.25-3.68-6.9-5.77-9.86-1.49-2.12-3.25-4.26-6.31-4.22-1.1,0-2.52-.61-3.13.67-.73,1.56.94,1.74,1.78,2.41,2.7,2.14,5.31,4.41,8.06,6.5C504.17,521,504.46,523.89,507.84,524.18ZM684.38,287.84c0,.79,0,1.28,0,1.78,0,1.28-.41,3.06,1.18,3.4,1.94.4,1.42-1.79,2.06-2.77,1.93-3,.28-6.56,1.6-9.65.38-.87,1.26-2,0-2.51a6.35,6.35,0,0,0-3.36-.09,1.71,1.71,0,0,0-1.33,2.29C685.49,283,684.2,285.52,684.38,287.84Zm-343,322.65c1.25,5.37,5.2,7.65,7.89,10.84.8.95,1.44,3.15,3.37,1.4,1.52-1.38,1.78-2.6.24-4.61C350,614.31,345.44,613.64,341.37,610.49ZM606.56,345.93c-.75-1.56-1.5-3.7-3.82-3.56-2.47.15-3.48,2.25-3.72,4.53s.77,3.51,3.11,3.37S605.9,348.59,606.56,345.93Zm-297.12.12a4.14,4.14,0,0,0-3.54-3.71,3.66,3.66,0,0,0-3.87,3.74c0,2.72,1.81,4.13,4.57,4.19C308.78,350.31,309.53,349.07,309.44,346.05Zm29.85,255.74c3.83.73,7.67,1.48,11.51,2.19.88.16,1.72-.09,1.91-1.09s-.29-2.3-1.36-2.25C347.35,600.82,343.27,599.86,339.29,601.79Zm-110-300.67c-.11-1.52-3.59-5.53-4.71-5.36-1.63.25-1.54,1.6-1.43,2.71.27,2.53,1.55,4.45,4.17,4.88C228.71,303.57,229.42,302.54,229.32,301.12Zm144.32-49.93c-.5-1.23,1.14-3.75-1.42-3.83-2.33-.06-3,2.33-3,4.4,0,1.85.67,4.2,2.75,4C374.66,255.57,373.15,252.93,373.64,251.19Zm-33.48,397c.53,1.59.9,2.83,1.35,4,.56,1.51.72,3.34,2.56,4a1.11,1.11,0,0,0,1.36-1.1c.2-2,.52-4.07-1.1-5.62A4.23,4.23,0,0,0,340.16,648.18Zm345-349.24c-.16-1,.59-2.95-1.3-2.88-2.31.09-3.77,2.2-4.09,4.22a3,3,0,0,0,3.15,3.08C685.41,303.22,684.94,300.91,685.11,298.94ZM345.89,639.34c0-1.22-5.82-5.8-7-5.44a1.53,1.53,0,0,0-.87.94c-.28.95,6,6.32,6.93,6A1.41,1.41,0,0,0,345.89,639.34ZM684.32,241.9c.17,1.12-.35,3,1.56,2.87s2.61-1.8,2.8-3.51c.16-1.51-.56-2.66-2.17-2.64C684.45,238.65,684.49,240.36,684.32,241.9Zm-323.5,67.59c2-.94,3.7-1.9,3.83-3.74.11-1.44,1-4-.85-4.33-2.46-.43-1.31,2.08-1.26,3.22C362.62,306.44,360.23,307,360.82,309.49ZM224.31,242c-.11-1.4-.09-3-2.17-3.07-1.68-.07-2.34.92-2.25,2.46.09,1.71.46,3.4,2.59,3.48C224.4,244.91,224.2,243.32,224.31,242ZM362.25,623.23c1.36,2.11,3,3.62,5.58,3,.84-.2,1.07-1.47.7-2.15C367,621.24,364.46,623.32,362.25,623.23ZM545,300.67c-.48.29-.86.39-1,.62-1.46,2.72,1.44,4.47,1.57,6.88,0,.76,1,.95,1.55.6a1.64,1.64,0,0,0,.4-2.57C546.15,304.59,546.9,302,545,300.67Z" transform="translate(-0.87 -1)"/><path d="M46,1c-.64,3.13-1.33,6.89.24,9.26C50.52,16.76,45,20.49,43,25.32,44.11,17.1,41.59,9.11,42,1Z" transform="translate(-0.87 -1)"/><path d="M42,216.74c0-14,0-27.41,0-40.86q.09-59.17.22-118.36a21.37,21.37,0,0,1,0-3.49c.33-1.92-1.28-5.37,1.67-5.36,3.11,0,1.22,3.39,1.53,5.27,2.14,13,1.79,26.12,1.54,39.2-.24,12,1.11,24.09-1.47,35.87-1.4,6.37,1.36,12.36.58,18.19-1.19,8.83,1.45,17.88-1.94,26.5a12.53,12.53,0,0,0-.33,4.44c0,11.49,0,23,0,34.46C43.83,213.82,44.51,215.29,42,216.74Z" transform="translate(-0.87 -1)"/><path d="M127.28,368c-.11.57.43,1.9-.9,2.14s-1.58-.92-1.89-1.89c-3.53-11.06-7.18-22.1-10.53-33.22-.89-3-.9-6.21-1.23-9.34-.09-.8,0-1.77,1.22-1.67.75.06,1,.76,1.07,1.44,1.09,12,6.69,22.84,9.21,34.48C124.82,362.67,127.55,364.6,127.28,368Z" transform="translate(-0.87 -1)"/><path d="M795.8,322.11a7.22,7.22,0,0,1-.35-6.89,25.23,25.23,0,0,0,1.58-9.71c0-1.07.52-2,1.76-1.93a1.39,1.39,0,0,1,1.18,2.17C796.93,310.72,799.33,316.91,795.8,322.11Z" transform="translate(-0.87 -1)"/><path d="M800.18,232.67c.4,3.16.86,6.32,1.13,9.49a1.47,1.47,0,0,1-1.62,1.51,1.23,1.23,0,0,1-1.13-1.37C798.59,239.09,797.81,235.81,800.18,232.67Z" transform="translate(-0.87 -1)"/><path d="M43.47,220.44v15.7l-.92.05V220.38Z" transform="translate(-0.87 -1)"/><path d="M149.82,114.75c1.71,6.42-4.75,7.86-5.56,12.06C142.63,121.42,148.54,119.71,149.82,114.75Z" transform="translate(-0.87 -1)"/><path d="M760.27,119.47c2.7,1.55,5.21,3.14,3.76,7.86C762.65,124,760.17,122.42,760.27,119.47Z" transform="translate(-0.87 -1)"/><path d="M417.18,715.48c-8.45,5.93-13.77,14.84-22.39,20.15-7.72,4.75-15.72,3.85-23.35.86-7-2.77-9.77-9.25-8.26-16.4,1-4.68-.83-8.79-.65-13.19.23-5.71,3.66-8.76,9.07-7.14a17.46,17.46,0,0,0,9.72,0c6.08-1.49,11.67-.27,15.8,4.79,3.22,4,7.55,6.52,11.47,9.57A8.85,8.85,0,0,0,417.18,715.48Zm-32,6.73c5.25-.8,11-1.65,16.65-2.58,1.1-.18,2.62-.3,2.8-1.65.25-2-1.7-1.55-2.78-2.05a38.33,38.33,0,0,1-4.92-2.35c-7.64-5-16-5.46-24.64-4.12-3,.46-5.59,2-5.89,5.15-.28,2.89,2.13,4.13,4.62,5.09C375.4,721.39,380.08,721.25,385.14,722.21Z" transform="translate(-0.87 -1)"/><path d="M425.87,614.28c.24,4.06-3.58,8.19-.7,10.25,2.52,1.81,6.3-1.71,9.74-2.27,3.84-.63,7.71-1.17,11.35-.12,4.64,1.34,5.38-.44,4.67-4.35-.25-1.36-1.1-2.8.23-4.43,2.27,1.29,2.53,3.6,3.15,5.47,1.88,5.69,3.75,6.71,9.13,4.45,1.12-.47,2.27-2.14,3.41-.53.95,1.34-.52,2.3-1.27,3.38-5.13,7.39-13.84,7.07-21.09,9.57-7.66,2.65-15.37.27-22.74-2.53a3,3,0,0,1-1.57-1C418.91,629.72,422.66,617.15,425.87,614.28Zm7.35,14.84c-1.46.72-4.55.31-4.35,2.73.19,2.16,3.17,1.77,5,2.12s2.81-.77,2.72-2.62C436.49,629.34,435.15,629,433.22,629.12Z" transform="translate(-0.87 -1)"/><path d="M477.84,586c-4.55,1.78-8.13.14-11.72.22-9.44.2-17.09,4.9-25.1,8.82a61.66,61.66,0,0,1-8.09,3.76c-2.11.67-4.8,1.17-6.19-1.51-1.19-2.3.32-4.28,1.72-5.78,4.32-4.64,10.08-6.87,16.08-8.22,10.2-2.31,20.36-1.41,30.4,1.27A21.07,21.07,0,0,1,477.84,586Z" transform="translate(-0.87 -1)"/><path d="M368.55,662.32c.49,5.6,2,10.55,5.77,14.6a4.63,4.63,0,0,1,.89,1.19c1.14,2.43,3.71,6,1.13,7.31-2.8,1.38-2.72-3.16-3.59-5.1C370.2,674.58,365.93,669.15,368.55,662.32Z" transform="translate(-0.87 -1)"/><path d="M412.31,615.11c-1.47,2.54-2.94,5.07-4.39,7.61-.43.75-.95,1.48-1.89,1.21-1.33-.37-1-1.48-.83-2.43.79-3.68,3.55-5.46,6.24-7.31Z" transform="translate(-0.87 -1)"/><path d="M391.37,679.44c-2.5-2.73-4.69-4.86-8.19-5.31,1.3-2.81,3.33-2.6,5-1.75C390.66,673.6,392,675.7,391.37,679.44Z" transform="translate(-0.87 -1)"/><path d="M334.92,529.72A86.77,86.77,0,0,0,341,519c1.61-3.33,4.32-3.6,8.16-.45C340.7,518.05,343.09,528.58,334.92,529.72Z" transform="translate(-0.87 -1)"/><path d="M212.77,562c-.81,4.28,1.16,9.71-1.19,15.13-1.46,3.36-3.49,5.63-6.7,5.59-4-.06-5.11-3.88-5.9-7a60.16,60.16,0,0,1,0-30.27c.9-3.48,3.13-6.5,7.33-6.2,5.3.38,5.68,5.14,6.27,8.77C213.29,552.22,212.77,556.63,212.77,562Z" transform="translate(-0.87 -1)"/><path d="M684.56,560.09c.41,6.87-1,12.74-2.94,18.55-.84,2.54-2.79,4.28-5,4.13a6.54,6.54,0,0,1-5.81-4.09c-.8-2.13-2-4.09-1.91-6.59.15-7.81.1-15.62,0-23.43,0-2.84,1.39-5.08,2.62-7.39s3.52-2.62,5.67-2a7.36,7.36,0,0,1,5.45,5.91C683.31,550.34,685.88,555.34,684.56,560.09Z" transform="translate(-0.87 -1)"/><path d="M212.88,762.25c-.57,4.79,1.18,10.85-1.61,16.6-1.12,2.29-2.24,4-5,4.12-2.93.11-4.33-1.45-5.5-4.05-5.65-12.51-5.13-24.93.08-37.35,1.75-4.18,4.23-4.58,7.63-1.53a13.26,13.26,0,0,1,4.34,9.62C213,753.49,212.88,757.32,212.88,762.25Z" transform="translate(-0.87 -1)"/><path d="M668.74,761.2c.86-5.45-1-11,1.25-16.35a14.43,14.43,0,0,1,3.63-5.21c2.75-2.58,5.32-2.15,6.86,1.1,6.14,13,5.95,26.14.21,39.22A5,5,0,0,1,676,783c-2.55.06-3.94-1.31-5.11-3.3C667.35,773.83,669.55,767.35,668.74,761.2Z" transform="translate(-0.87 -1)"/><path d="M321.47,839.46c.11,6,.63,11.95-4,16.92-2.26,2.46-3.45,2.28-5.95,0-5.84-5.31-6.49-12.51-7.4-19.36-.79-6-.84-12.18,1.51-18.15.84-2.15,1.36-4.16,3.8-4.61s4.56-.09,6.22,2.1c3.61,4.79,5.2,10.28,5.75,16.11C321.65,834.78,321.47,837.13,321.47,839.46Z" transform="translate(-0.87 -1)"/><path d="M321.34,482.23a42.94,42.94,0,0,1-3.93,20.62c-1.34,2.79-3.26,5.5-7.22,5-1.82-.23-3.33-.92-3.89-2.64a44,44,0,0,1-1.22-24.76c1-4,.73-8.27,2.78-11.94,1.33-2.4,2.66-5.08,6.08-5.21,2.37-.09,4.75.61,5.28,2.85.73,3,2.32,5.84,2.14,9.08C321.24,477.39,321.34,479.55,321.34,482.23Z" transform="translate(-0.87 -1)"/><path d="M577.46,490.32c-.31,4.36,1.21,8.93-1.27,13.17-1.1,1.88-1.69,4.28-4.31,4.21a6.56,6.56,0,0,1-6-3.69c-5.53-12.36-8.22-24.94-2.17-38,1.57-3.39,4.5-4,7.37-1.41a14,14,0,0,1,4.64,8.07C576.66,478.5,579,484.2,577.46,490.32Z" transform="translate(-0.87 -1)"/><path d="M577.79,831.65c.61,7.21-1,14.05-3.33,20.77a6,6,0,0,1-1.08,2.23c-1.83,1.94-4.3,4.24-6.66,3.5a6.7,6.7,0,0,1-4.78-6.84c.22-3.68-1.77-6.88-1.81-10.65-.08-7.58,2.31-14.56,4.13-21.66a6.51,6.51,0,0,1,6.24-4.91c3.29-.14,4.4,1.82,5.78,4.38C578.6,822.79,577.42,827.26,577.79,831.65Z" transform="translate(-0.87 -1)"/></g></g></svg>