<svg xmlns="http://www.w3.org/2000/svg" viewBox="0 0 871.35 845.66"><title>getwellsoon</title><g id="Layer_2" data-name="Layer 2"><g id="Layer_1-2" data-name="Layer 1"><path d="M824.71,407.59c-.65-2,.45-2.69,2-3.74,6.1-4,8.19-13.29,5-19.93a19.8,19.8,0,0,1-1.66-5.64c-.32-2.19-1.47-2.78-3.41-2.56a3.1,3.1,0,0,0-3,3.32c-.06,2.15,0,4.32,0,6.47,0,1.06.52,2.69-1.21,2.73-1.13,0-1.13-1.37-1.35-2.36-2-9.22-2.49-10.42-4.69-12.63,10.73,0,21.28-.73,31.74,2.06a28.26,28.26,0,0,0,11.41.18c7.53-1.18,10.9-6.3,9.17-14.27-1.26-5.77-2.73-11.6-5.8-16.84-8-13.73-14.57-28.29-23.51-41.53a247,247,0,0,0-21-26.93c-2.14-2.4-3.27-4.36-2.51-7.9,1.39-6.51-3.47-12-3.55-19.51-2.7,2.58-4.61,4.35-6.45,6.19-1.52,1.52-3.09,1.95-3.6-.55-1.18-5.69-3.92-11.42-.41-17.23.21-.34.75-.48,1.48-.93,1,2.28-.56,6.76,4.31,5.28.2,1.57-1.14,1.74-1.68,2.51-1.66,2.34-.21,4.68,1.09,5.73s2.88-1.06,3.67-2.41c1.38-2.37,3.34-4.87.49-7.59a1.55,1.55,0,0,1-.26-2.21c3.4-5.18,5.32-11.53,11.32-14.66,2.91-1.52,2-3.13.73-5.22-3.76-6.2-7.2-12.59-11.07-18.71-4-6.28-4.66-13.39-5.62-20.4-1.85-13.44-3.48-26.89-10-39.14-1.45-2.74-2.57-5.76-4.46-8.16-6-7.68-8.15-17.43-13.88-25.27-1.82-2.48-.13-4.58,2.66-4.92,8.39-1,16.84-.29,25.2.29,7.71.53,15.26,0,22.3-2.72,4.77-1.81,9-1.36,13.51-.35,5.38,1.2,10.4,3.22,16.21,3.56,4.41.25,9,2,13.85,2a3.2,3.2,0,0,1,2.91,2.43c.76,4.85,4.79,5.61,8.4,6.94V719c-12-.11-24-.3-36-.26-2.73,0-3.55-.22-3.35-3.46.75-12.12,3.15-23.95,6.15-35.63,1.39-5.38.34-10.95,2.21-16.24,1-2.77-1.86-3.13-3.46-4-8.78-4.76-9.72-4.19-9.79,5.31a37.83,37.83,0,0,0,1.3,9.82,24.24,24.24,0,0,1-2.74,19.55c-.93,1.5-1.69,3-.93,4.65s0,2.79-.62,4.18c-2.51,5.44-5,10.82-9.64,15-1.68,1.5-3.33,1.33-5,1.22a261.78,261.78,0,0,0-30.94,0c-7.28.38-14.58.1-21.87.11-2.14,0-4-.31-4.18-3.1-.06-1.27-.65-2.44-2.09-2.3-1.61.16-1.63,1.42-1.15,2.65,1.11,2.85-1.11,2.72-2.63,2.68-5.65-.13-11.29-.41-16.93-.71-1.76-.1-3.2-.72-3.56-2.81-.61-3.48-2.47-5.58-6.26-5.87-3.55-.28-5.52-3.52-8.44-5-.76-.39-1.33-1.13-.73-2,3.68-5.53-.23-9.93-1.6-15s-6.51-9.76-3-15.86c.63-1.08-.27-2.23-.79-3.28-1.29-2.58-2.27-5.07-.44-8,.88-1.4.35-3.24-.35-4.83-.46-1.06-1.28-2.49-.46-3.31,3.72-3.73,1.34-6.7-.66-10.08s-3.73-6-7.9-6.85c-3-.61-4.74-2.81-3.55-6.42a17.06,17.06,0,0,0,.55-5.4c0-1.65.85-3.94-2.16-4.1-2.55-.14-4.9-.29-6,2.94-1.19,3.5-.5,7.15,0,10.33.87,5.34.2,10.59.51,15.86.63,10.53,2.87,21,.6,31.71-.81,3.77,1.47,8.1,1.59,12.2.22,6.69,1.48,13.32.84,20.09-.17,1.79,1.72,3.78,2.63,5.6-37.2,1.78-74.45,1-111.43.4,3.89-1.81,5.45-2.2,11.67-2.11,9.32.14,18.66.06,27.93.8,4.46.36,3.8-1.75,3.4-4.31-.1-.6-.66-1.12-1-1.68-3.12-5-9.24-9-5.7-16.38.32-.68-.19-2-.73-2.81-7.61-10.58-11-23.35-18-34.3-1.57-2.47-2.44-5.4-3.54-8.15-.49-1.24-.72-2.6-2.7-2.77-.87,2.73.83,4.94,1.64,7.21,1.73,4.82,1.86,9.48-.93,13.86-2.68,4.2-5.48,4.09-7.41-.33-1.23-2.8-3.19-3.79-5.91-3.45-4.08.51-8.12,1.33-12.2,1.88-3.18.44-7.27,3.24-7.32-3.7,0-3.64-4.39-3.79-7.09-4.28-4.35-.79-8.81.18-13.33-.94-2.91-.72-5.16,2.71-7.28,4.65-1.61,1.48.62,2,1.75,2.48,5.54,2.33,11.42,3.14,17.32,3.6,3.92.31,10.33-.66,10.64,2.67.36,3.84-5.89,2.89-9.4,3.76-8.85,2.19-17.13,5.9-25.33,9.81a82.46,82.46,0,0,1-10.18,3.83c-3,1-3.58,2.35-1.82,5.11,4.63,7.26,9,14.65,13.59,22,1.59,2.55,4.21,2.12,6.69,2.11,9.29,0,18.58,0,28.3,0-.91,2.51-2.31,2.73-3.51,2.65-27.11-1.83-54.25-.47-81.38-.74-29.61-.29-59.23.13-88.84-.17-8.28-.09-16.58-.1-24.9-.87s-16.79.79-25.21.94c-11.38.21-11.43.06-11.44-11.1,0-5.65.19-11.31.34-17,0-.41.44-.81.76-1.38.47.3,1.18.59,1.15.76-1,6.08,1,12.19-.16,18.25-1.37,7,.12,8.62,7.31,7.94a209.78,209.78,0,0,1,25.63-.62c11.58.34,23.2.15,34.8.63,5,.2,10-.5,14.94.15,7.88,1,10.61-5,14-9.71,1.76-2.45,4.19-5,4.46-8.58-2-.24-2.8,1.17-3.86,2.13-2.68,2.44-5.68,3.94-9.48,3.62-5.88-.51-11.38,2.12-17.19,2.29-1.42,0-3.53.83-3.83-1.08s2-1,3.06-1.48c5.14-2.42,10.9-2,16.32-3.47,7.17-2,10.07-8.26,14.86-12.56,3.92-3.53,7.4-5.72,13.19-4,11.89,3.63,22.17-1.4,32.46-6.93,6.78-3.65,14.3-5.92,21.5-8.8,4.16-1.66,8.34-3.25,12.48-5,1.45-.6,3.78-.78,3.65-2.76-.18-2.5-3,.14-4-1.56,5.47-5.72,13.26-5.88,20.13-8.12,3.16-1,5-1.69,6.22-5.59,1.7-5.29,6.89-9,9.47-14.21a34.24,34.24,0,0,1,2.61-3.6c3.42-5.07,7.13-6.31,14.17-4.48-1.72,2.68-4.23,3-6.93,2.84-1.62-.08-3,.3-3.64,2a4.51,4.51,0,0,0,.9,4.68c1.16,1.29,2.83,1.1,4.19.52,4.48-1.92,8.19-4.41,10.45-9.29a65.93,65.93,0,0,1,22.63-26.5c7.24-5,10.29-17.38,5.49-24.55-1.41-2.12-3.64-2.7-6.11-2.73s-5.24.39-7.75-.55a4.79,4.79,0,0,1,.15-1.19c9.79-1.36,7.84-8.8,8-15.21.15-8.13-1.5-10.54-9.28-12.79a22.08,22.08,0,0,0-5.9-1c-8.3,0-16.4-2.36-24.76-1.79-5.52.37-10.85,1.71-16.64,1.09-3.63-.39-7.67,3.48-11.6,5.25-1,.47-2.47,2.31-3.39.7-1.06-1.86,1.29-1.66,2.25-2.32a56.77,56.77,0,0,1,9-5.3c6-2.62,8.69-9.88,6.26-16.13-.45-1.17-1.67-2.18-.82-3.66,7.14,4.05,7.32,8.12.87,19.26,21.14,0,40.75-6.89,60.35-13.83.81,2.37-.76,2.83-1.71,3.51-3.52,2.52-3.56,4.54.28,6.18,6.35,2.7,13.1,1.62,19.71,1.45a3,3,0,0,0,2.66-3.21c0-11.27-1-22.09-12.42-28.57-4.89-2.76-10-5.67-13.85-9.62-8.77-8.94-19.39-6.86-29-4.3-11.77,3.15-23.4,7.06-35.18,10.36-4.27,1.2-8.43.44-12.92.61.72-3.29,2.79-3.21,4.94-3.79,5.82-1.56,11.81-.92,17.7-2,10.17-1.84,19.48-5.64,28.51-10.33,2.52-1.3,4.45-1.34,7.34-.58a38.08,38.08,0,0,0,22.65-1.23c1.25-.45.77-1.51.49-2.53-1.42-5.3-6.14-8.38-12.15-9.49-11-2-22.93-1.55-32.24-9.37-3.45-2.9-7.28-2.18-10.86-1.49-6.62,1.27-12.9,4-19.33,5.94-12.56,3.81-24.42,9.89-37.71,11.35a24.16,24.16,0,0,0-18.93,12.36c-1.95,3.44-2.47,7.71-4.16,11.51a24.09,24.09,0,0,1-6.92,9.31c-3.2,2.6-4.3,6.73-7.71,9.54-5.54,4.57-11.8,7.92-17.51,12.12-3.05,2.23-6.51,4-8.18,7.73a4.33,4.33,0,0,1-2.09,2.09c-9.52,3.65-11.83,13.67-18,20.21-10,10.54-17.78,23-29.14,32.44-4.52,3.76-10.5,8.21-8.46,16.12a2.39,2.39,0,0,1-.71,1.8c-7.82,8.55-10.65,20.09-17.93,29.13-6,7.46-10.14,16.45-15,24.81a5.9,5.9,0,0,0-.14,4.86c1.66,5.17-.3,10.4.58,15.59-3.43-6-4.11-94.16-1.05-99.46,2,2,.84,4.47,1.13,6.65.18,1.36.31,2.82,2.05,2.9,1.46.07,1.76-1.28,2.19-2.35.12-.31.39-.62.38-.92-.56-9.27,5.7-16.7,6.87-25.48a9.85,9.85,0,0,1,3.84-6.75c-5.21,0-9.85,6.58-18.82,23.79V440.88c2.08.25.86,4.18,3.47,4.26,2,.06,4-.09,6-.06,26.94.36,53.86-1.91,80.81-1,2.14.08,4.36-.43,6.38.71a3.36,3.36,0,0,0,4.12-.85,87.91,87.91,0,0,0,6.66-8.56,3.42,3.42,0,0,0,.28-3.37c-.47-1-.61-2.55-2-2.63-1.76-.1-1.22,1.55-1.48,2.58-1.25,4.92-5.64,7.47-10.25,5.61-2-.83-4.88-2.1-4.25-4.84s2.08-6.32,5.74-5.87c4.54.55,6.45-1.36,7.63-5.28.5-1.65,1.64-4,3.72-3.18s1.25,3,.35,4.69-.88,2.36,1.48,3.38c3.5,1.5,6.42,3.24,10,.55a1.8,1.8,0,0,1,2.31.37,1.94,1.94,0,0,1-.21,2.7,21.45,21.45,0,0,1-3.25,3.07c-2.69,2-5.31,4.16-6.95,7.07-1,1.71-4.27,2.83-2.57,5.26,1.43,2.05,4.09.46,6.09.23a53.17,53.17,0,0,1,14.42-.09A7,7,0,0,0,470.4,444c5.18-3.79,5.93-9.82,3.75-16.08-1.4-4-3.45-7.87-3.72-12.49-.72-11.83-3.34-23.48-2.57-35.49.42-6.54-4.13-11.16-12.48-11.47-14.09-.53-28.25-1.51-42.32.68a19.75,19.75,0,0,1-5,.24c-14.75-1.41-29.36,1.1-44,1.46-3.23.07-6.45,1.1-9.66,1.79-1.43.32-3.34,1.28-4-.28-.92-2.07,1.49-2.16,2.71-2.66,6.61-2.71,13.78-1.37,20.59-2.7,1.71-.34,3.66.55,5.54-1.31-3.36-2-6.86-1.18-9.93-.65-6,1-12.37,0-18.15,2.72-1.27.6-2.58-.32-3.87-.56-4.48-.84-8.12.87-12.06,5.36V244.39c-2-.16-2.08.7-2.07,1.54.39,28.8-.12,57.62,0,86.42.13,35.82.57,71.63.55,107.45q0,49.74-.17,99.47c0,1.75.71,3.8-.91,5.21-1.79,1.56-4.13,2.86-6.33,2.21s-1.92-3.19-1.93-5.18c-.17-32.64-.45-65.28-.49-97.92,0-31.79.15-63.58.27-95.37,0-6.48-.45-13.15.28-19.4,1-8.16-.24-16.38,1.65-24.47,1.44-6.12-.52-12.37,0-18.69.9-11.41.16-22.94.67-34.4.84-18.74-.05-37.53,1-56.23,1-17.86.45-35.74,1.65-53.56.75-11.14,1-22.36,1.19-33.43.11-8.57.87-17.16.74-25.77-.27-18.51,3.56-36.84,2.61-55.46-.35-6.91.5-6.81,7.58-7,16.14-.41,32.27.43,48.44-.62a219.2,219.2,0,0,1,24.17.14c6.67.3,13.7-.27,20.49-.17,9.22.12,18.53,1.43,27.66.49,13.19-1.36,26.45-1.06,39.63-1.78,8-.44,16.44.37,24.67.29,8.06-.08,16.06.7,24.22-.17,5-.53,10.56.21,15.82.8,2.33.26,4.39.69,6.72-.38s4.7.65,6.05,2.26c.92,1.1.61,1.46,1.52.16,1.19-1.7,2.14-2.21,3.34.37.93,2,2-.25,3.09-.67,1.29-.51,3.37-3.71,3.43,1,0,1,1.62.88,2.42.15s.42-2.69,2.17-2.08A69.51,69.51,0,0,1,603,22.81c.26.12.22,1.72-.19,2.21a4.71,4.71,0,0,1-4.74,1.33,41.31,41.31,0,0,0-27,3.65,2.85,2.85,0,0,0-1.39,3.39c.37,1.73,1.63,1.06,2.78.79a17.58,17.58,0,0,1,3.41-.28c.19,0,.39.42,1.19,1.33-4.86.41-8.77,3.37-12.83,3.71-6.09.51-10,4.89-15.35,6.43-2.56.74-3.28,2.29-2.33,5.35,1.1,3.53,2.66,1.77,4.69,1.73,6.27-.11,11.34-3.64,17-5.42,3.26-1,3.87-5.39,7.24-7s6-3.55,10.17-2.51c2.26.57,5-.72,7.56-1.18.31,2.53-1.63,2.74-2.87,2.89-5.24.61-8.86,4.71-13.72,6.26-1.18.38-6,2-3.15,6.21.89,1.34-1.54,1.85-2.56,2.41-2.55,1.4-5.29,2.46-7,5.41,5.76-1.36,11.53-2.65,17.26-4.14,1.32-.34,2.75-1.19,3.42.34s-.33,2.92-1.82,3.66a10.15,10.15,0,0,1-3.25,1.2,18.75,18.75,0,0,0-12.84,6.7c-1.89,2.24-5.63,2.4-8,5.11a5.81,5.81,0,0,0,5.87-1.07c3.54-2.57,8.37-.73,11.63-3.78,4.81,3.46,8.06-1.56,12.11-2.26,4.54-.79,9-1.85,13.52-2.83,1.5-.32,2.93-.52,4.32.38,6.28,4,7.24,4,13.77-1.07.61-.48,1.22-.85,1.66-.48a2,2,0,0,1,.43,1.78c-.88,2.78-1.24,5.85-4,7.69-1.06.7-2.64,1.78-1.45,3.14s2.64.73,3.64-.86c.74-1.16,1.91-1.15,3-.57-.1,2.09-3.34,1.6-3.12,4.74a115.66,115.66,0,0,1,23.31-7.59c-1,3.11-3.49,3.5-4.86,5-.56.62-1.31,1.14-.81,2.09s1.35.81,2.17.54A18.31,18.31,0,0,1,643.55,76c2.93-.28,6.2-.78,6.94-3.77s-1.71-5.45-4.19-7.35-6-3.31-3.15-7.8c1-1.62-2.23.11-2.57-2.59,4,2.45,9.55-2.45,11.93,4.4.17.48,1.44.81,2.21.82a5.66,5.66,0,0,1,5.81,4.86c.58,3.82-1.74,7-5,8.88-4.1,2.39-8.48,4.29-12.55,7,3.6-.45,6.77-2.21,10.42-2.57,4.51-.46,9.15-1,13.42-3,1.95-.9,3.83.57,5.72.81,2.67.32,5.39,1.49,8.21.31a1.79,1.79,0,0,1,2.49,1c.35,1.35-1,1.53-1.84,1.87-2.85,1.19-6,1.86-8.57,6.18,5.09-2.68,9.72-2.1,13.67-3.61,7.57-2.9,14.21.59,21.2,1.92.71.14,1.26.48,1.2,1.28-.07,1-1,1.17-1.73,1.53-6.21,3.16-12.41,6.35-18.63,9.49-10.62,5.35-18.69,13-22.59,24.55a9.8,9.8,0,0,1-1.68,2.41,21.15,21.15,0,0,0-1.45,1.88c2.66,2.72,1.28,7.42,4.82,9.67,1.87,1.19.84,4.37,3.63,5.24-2.29,1.09-4.2,4.31-6-.76-1.07-3-6.55-2.31-7.72.89s1.91,2.75,3.47,3.47c1.05.48,3-.65,3.08,1.48.06,1.66-1.36,2.13-2.79,2.22S659,147.8,658,148.75c-4.87,5-11.18,5.28-17.56,5.34-.16,0-.39,0-.48-.07-4.88-4.89-14.4-5.39-14.18-15.15,0-2-1-3.73-2.58-5.38-2.32,2.51.12,5.53-1.87,8-2.4-2.72-6.54-2-9-5-1.25-1.51-2.94-.68-3.59.91-1.09,2.66-3.33,4.89-2.38,8.35.84,3.08-1.8,4.32-4.15,5.31s-4.08,1.73-.28,3.31c2.71,1.12,1.72,2.92.12,4.2-2.7,2.18-6.18,3.82-4.13,8.32a1,1,0,0,1-.21.92c-7.11,5.21-1.94,9.69.84,14.28.62,1,1.28,2,.51,3.2-1.32,2.09-.41,3.3,1.53,4.36,3.74,2,4.35,4.74,1.13,7.71s-5,5.24.5,7.48c1.7.69.78,2.76,1.38,4,1.26,2.55,3.32,5.71,5.7,5.84,3.47.2,1.36,5,4.73,4.38a62.15,62.15,0,0,1,7-.53c.76,0,1.42.44,1.34,1.11a1.94,1.94,0,0,1-1.21,1.33,9.6,9.6,0,0,0-6.42,3.67c7.44-2.46,12.43,1.81,18.21,2.34,1.14.1,3,.43,3.25,1.87.33,1.76-1.71,1.63-2.69,2.38-1.26.95-3.51.95-2.81,3.72,1.73,6.85,1.62,7.12,5.41,7,2.2,0,2.5,1.5,3,2.7.64,1.55-1,1.85-2,2.28-6.68,2.93-13.4,5.76-20.06,8.72-1.07.48-3.14.76-2.32,2.53.66,1.4,2,0,3-.24,4.68-.92,8.26-4.22,12.66-5.71.91-.32,1.79-1.34,2.75-.71,1.3.85.2,2.12.21,3.21,0,2.78-1.87,4-4,5.24a49.35,49.35,0,0,0-10.31,7.67c-2,2-4.34,3.23-1.05,6.2,1.69,1.54-.65,2.67-1.65,3.4-4,2.87-8.1,5.53-13.07,8.87,2.94,0,4.86,0,6.78,0,2.69-.07,4.73.54,4.3,3.87-.11.82-.29,1.46.58,2.13,3.25,2.46,3.26,6.29,0,8.79-1.61,1.22-3.76,1.92-1.33,4.4.8.82-.3,1.45-1.06,1.75-3.78,1.49-7.18,4.28-11.7,3.31a3.88,3.88,0,0,0-2.88.27c-4.19,3.43-7.33.45-10.57-1.6-8.95-5.68-18.15-10.55-28.56-13.42a55.79,55.79,0,0,0-15.08-2c-14.61,0-21.58,5.76-24.74,19.92-3.13,14-.63,27.43,4.34,40.38,1.67,4.35,5.66,7.95,10.43,12-.67-4.51-.39-7.52-3-10.5-4.51-5.26-6.12-12-6.8-18.77s-1.22-13.43,1.82-20.25c3.65-8.21,12.86-14.46,21.81-12.57,12.05,2.55,22.71,7.25,29,18.91,2.34,4.33,5.58,8.19,8.49,12.2,1.63,2.24,2.51,3.62-1.23,4.9-4.76,1.62-7,7.85-5.48,12.17,1.07,3.05,3,3.15,4.93,1.69,4.11-3.11,8.24-6.58,9.31-11.88.89-4.43,3.25-7.88,5.48-11.56,4-6.65,12.48-10.28,21.33-5.69-.15.28-.23.71-.45.81-1.6.68-3.78.58-3.95,3,0,.3.75,1,.86.93,1.69-.86,4-.82,4.79-3a4.71,4.71,0,0,1,3.66-3c1-.24,2.08-.88,1-2-.69-.74-2.64-.77-1.16-2.35.87-.93,2.23-.6,3.3-.13,4.63,2,9.12,4.22,10.56,9.72.3,1.12.54,2.63,1.92,2.55,1.65-.1,1.73-1.89,1.9-3.08.5-3.43,0-6.93.91-10.4.54-2.06-1.06-3.1-3.11-2.33-2.69,1-2.79-.55-2.74-2.45a5.65,5.65,0,0,1,.07-1.49c2.24-7.13.31-13-4.77-18.37-1.73-1.81-.48-4.1.87-5.91,1.07-1.43,2.36-2.74-.6-3.51-1.51-.4-2.79-1.24-2.78-3.08,0-2,1.53-2.93,3.15-3.4,2.16-.62,3.59-2.67,6.33-2.38,2.39.24,2.73-1.72,2-3.89-.39-1.1-1.28-2.8.49-3.43a2.87,2.87,0,0,1,3.41,1.53c1.52,4.05,4.12,4.09,8,3.68,8.76-.93,11.84,4.27,9.61,12.93-1.28,5-3.66,8.26-7.07,11.87-2.8,3-2.13,8.41-1.57,12.39a181.64,181.64,0,0,0,6.07,27.48,41,41,0,0,1,1.85,15.7c-1.44,15.07,2.94,28.88,7.94,42.65a30.75,30.75,0,0,1,1.63,9.28c.07,1.48.29,3.18-2,3.17-2,0-2.38-1.31-2.43-3a34.57,34.57,0,0,0-4-15.8c-.77-1.42-1.52-3.58-3.46-2.94-2.29.76-1.82,3.21-.94,4.7,4.09,6.92,3.14,14.5,3.06,21.93a18,18,0,0,0,2.55,10c3.36,5.47,3.23,11.68,3.82,17.73.17,1.82-.44,3.82-2.35,3.76-2.22-.07-1.8-2.47-1.77-4a25.68,25.68,0,0,0-3.76-14.86c-2.79-4.41-4.43-9.82-3-14.77,1.79-6.35-.94-11.66-2.09-17.35a16.08,16.08,0,0,1-.59-4.37,116.21,116.21,0,0,0-1.73-29.27c-1.43-8.06-1.71-16.6-5.43-24.33,1.22,21.1-5.85,41.31-5.47,63.49-2.82-2.92-3.34-5.4-3.15-7.79,1-12.83,2.24-25.63,3.3-38.45.11-1.35.82-3.36-1-4s-2.5,1.26-3.42,2.37c-4,4.82-8.88,8.89-11.47,14.93-1.29,3,.05,5.95-1.3,9-2.15,4.85-3.8,9.88-6.93,14.26a19.64,19.64,0,0,0-3.66,10.22c-.52,7.72-5.41,14.08-6.47,21.59-1.59,11.39-1,22.41,5.7,32.38,1.82,2.69,2.46,6,4,8.93,2,4,5.08,7.09,7.32,10.83,5,8.27,13.7,9.11,22,10.45,16.55,2.65,32.46,7.62,48.37,12.74,10.89,3.5,21.07,8.66,31.69,12.68S748,516.9,760,515.71c5.8-.58,12.12,1.3,18.19,2.1,10.49,1.38,19.83-1.18,29-5.62,6.85-3.31,13.19-7.15,16.1-14.8a4,4,0,0,1,3.37-2.81,5.2,5.2,0,0,1,.18,1.34c-.27,1.7-3,3.5-1.36,4.71,2,1.5,3.31-1.36,4.63-2.64,6.43-6.24,6.8-14.62,6.93-22.66.15-9.59-.31-19.22-3.18-28.59-1.53-5-4.76-9.21-6-14.33-.41-1.62-2.63-2.38-4.71-1.84-5.47,1.43-11,2.86-15.19,6.9a9.24,9.24,0,0,1-3.87,2c-2.88.94-6.5,2.26-8.46-.05-2.33-2.77,2-6,1.2-9.44,0-.2,1-1,1.5-.91,4.07.74,7.88-1.16,11.83-1.13,10,.07,16.72-5.2,22.2-13,2.54-3.59.88-6.87-1-9.15-2.17-2.67-4.6.18-6.63,1.7Zm-208.4,83.22c-.07,6.58,3.24,10.57,7,15.05,6.71,8.09,13.89,14.69,24.1,18.22,14.13,4.9,27.07,12.79,42.45,14.77,7.92,1,14.06,2.2,16.8-7.15.21-.72,1.17-1.18,1.62-1.86,2.11-3.16,4.4-6.21,5.5-9.94.29-1,.67-2-.08-2.81-.89-1-1.91-.18-2.69.25-2.54,1.39-5,2.92-8.32,4.89a7.71,7.71,0,0,1,4.57-4.9,4.06,4.06,0,0,0,2.28-4.11c-.09-2.14-1.85-2-3.31-2.12-6.41-.77-12.82-1.53-19.22-2.32a152.45,152.45,0,0,1-25.22-5.24c-.64-.19-6.15-.69-1.22-3.51,1.7-1,.73-1.9.36-2.87-1.06-2.74-3.52-1.86-5.57-2.11-6.67-.81-13.74-.71-17.56-7.95a14.2,14.2,0,0,0-2.65-2.91c-2.05-2.1-4.71-2.43-6.49-.39-1.49,1.71-4.25,4.32-.43,6.83a8.38,8.38,0,0,1,1.8,1.72c1.07,1.32,3.69,2.5,2.16,4.36-1.72,2.1-3.29-.41-4.45-1.48C624.49,492.24,620.68,491.21,616.31,490.81Zm-199,32.94c-11.68.27-22.79,2.43-32.6,8.14-10.08,5.87-17.29,14.41-17.42,27a17.88,17.88,0,0,1-1.93,7.65c-2.81,5.81-5.83,11.48-6.95,17.94a4.63,4.63,0,0,1-1.7,2.33c-4,3.41-6.58,8.39-11.49,10.89a1.51,1.51,0,0,0-.89,2.06c.74,1.34,1.55.43,2.42,0,8-4.34,15.91-8.73,24-12.89,3.42-1.76,8.38-5.22,10.45-4.05,6,3.4,7.58-1.25,9.94-3.94,7.88-9,15.3-18.39,22.49-28,5.35-7.15,9.34-15.16,15.09-22,1.29-1.55,1.63-3.86-1.34-3.8C423.81,525.11,420.59,523.13,417.32,523.75Zm108.48,193c2,0,4-.11,6,0,1.47.11,2.55-.17,1.9-1.78-1-2.58-2.16-6.2-5.3-5.84-6.85.8-8.57-4.47-11.44-8.45-1.35-1.87-1.91-4.4-3.47-6-2.78-2.88-3.23-8.31-9-8.07a21.65,21.65,0,0,0-10,2.43c-5.44,3-11.63,4.67-16.62,8.53-1.15.89-4.28,2.06-.73,4.28s3.33,4.44-.33,6.51c-1.44.82-3.35,1-4.5,2-1.63,1.48-5.81,0-5.18,3.18s4.32,2.79,7.06,3a19.06,19.06,0,0,0,2,0C492.7,716.11,509.25,718.06,525.8,716.74ZM718.5,563.87c-1.24-.79-5.09,2.76-4.45-2.12.43-3.29,0-6.38-3.65-7.16-3.37-.72-6.27.25-8.44,3.69-2,3.23-3.26,7-5.63,9.83-3.16,3.79-5.39,9.46-12.2,8.18-2.3-.43-3.61,1.94-5.1,3.12-.75.6,1.79,1.78,2.81,2.74a17.86,17.86,0,0,1,3.92,6.09c2.29,5.14,5,10.09,7.33,15.21,1.32,2.9,3.92,3,5.89,2.19,4.25-1.7,9.78-.36,12.71-5.19a.88.88,0,0,0,0-.49c-.23-4.51,1.65-8.62,2.43-12.83C715.59,579.46,719,572.13,718.5,563.87ZM519.18,193.34l-1.69-1.68c-5.14,2-8.14,6.52-11.76,10.24A50.78,50.78,0,0,1,493,212c-.71.38-1.56.91-2.27.08s-.05-1.46.54-2.08c1.94-2,3.82-4.12,5.76-6.14q11.7-12.21,23.4-24.38c.58-.6,1.24-1.25.64-2.13a1.11,1.11,0,0,0-1.75-.12c-3.53,3.41-9,4.43-11.61,8.83-6,10-14.39,17.5-23.29,24.72-4.14,3.37-8.7,6.74-9.66,12.76-.91,5.72-3.29,11-5.09,16.5-.33,1-.86,2.26-.14,2.8,4.74,3.57,2.16,8.2.39,11.11-3,5-1.34,9.74-1.5,14.65,4.32-7.65,3.19-17.21,7.9-24.65l1.31.34c.17,2,.34,4.07.56,6.72.82-.91,1.44-1.3,1.61-1.83a76.72,76.72,0,0,1,15.25-26.87c2-2.3,5.32-6.25,4.94-7.5-1.49-5,2.61-6,4.7-8.06C509.32,202.07,514.33,197.78,519.18,193.34ZM550.8,383.81c-2.95,3.38-6.21,7.11-9.47,10.86-.69.81-2.34,1.16-1.66,2.65.49,1.08,1.78.84,2.68.7,6.58-1,12.83.72,19.11,2.21,1.21.29,2.54.65,3.16-.52,1.69-3.2,4.21-1.9,6.53-1.37,3.48.79,11-2.54,10.93-5.42-.11-3.81-4-4.16-6.7-5.34-.16-.06-.3-.15-.46-.2-4.61-1.73-5-3.23-1.42-6.72,3.33-3.21,7-6.08,10.57-9,6-4.92,11.23-10.53,16.84-16.15-4.52-1.6-4.48-1.55-8.89,2.16-4.79,4-10.43,7.34-14.31,12.1-3.32,4.08-5.19,8.86-11.51,9.36-1.64.13-3,1.6-4.71-.13-1.24-1.28-2.49-.6-3.41.51-3.23,3.86-6.17,2-8.88-.54a79.48,79.48,0,0,1-7.55-7.92c-1.14-1.4-2.07-2.33-4.54-2.08A45.33,45.33,0,0,0,550.8,383.81ZM809.21,571c.18,4.07.75,7.94,2.84,11.62,7.93,14,14.46,28.47,16.63,44.63.52,3.84,1,8.64,4.55,10.48,3.94,2,6.72-2.34,9.94-4.18,2.62-1.5,2.45-3,1-5.16A138,138,0,0,1,836,615.29,352.44,352.44,0,0,0,809.21,571Zm-237-206.8-.6-1.17c-1.27.17-2.76,0-3.79.57-3.29,1.91-5.44,0-7.43-2-3.57-3.63-6.7-7.49-5.34-13.22.51-2.17-.32-4.32-1.28-6.25-2.33-4.69-.76-8.27,2.86-11.45,2.07-1.81,5.58-4.66,3.82-6.54-2.51-2.67-6,.29-8.9,1.94-1.14.66-1.1,1.9-1.6,2.9-3.4,6.92-2.78,14.15-3.25,21.58-.66,10.43,4.58,16.6,10.41,23.23,1,1.11,2.27,1.95,3.85.5C564.64,370.82,568.43,367.5,572.19,364.15Zm-19.9-48.37c.81-.87-.08-.78-.55-1-1.92-.7-3.81-2.39-5.84-.22-3.44,3.66-8,5.06-12.61,6.52a7.51,7.51,0,0,0-5.33,8.49c.81,6.09-.18,12.94,8.08,16,3.18,1.18,3.64,1.66,4.42-1.59,1.77-7.38,5.41-14,9-20.56C550.79,321.1,551.38,318.35,552.29,315.78Zm-65.43-44.41c1.11-6.18,2.7-11.92,6.55-16.88,1.63-2.09,3.13-5.49,5.52-5.24,3,.32.2,4.38,2.59,7,4.23-7,9.94-12.73,12.93-21.75a16.08,16.08,0,0,1-7.11,1.93c-1.44,0-2.8-.7-1.4-1.88,4.84-4.07,7.37-10.11,12.35-14,.74-.58,2.25-.77,1.6-2-.81-1.53-2-.35-2.94.16-10,5.51-17,13.7-21.59,24-2.47,5.57-4.63,11.25-8.56,16.12C483.64,262.79,485.51,267.17,486.86,271.37ZM561.32,60.09c-14.07,5.07-26.15,14.26-40.22,20.81a8.58,8.58,0,0,1,.5-2.18A9.22,9.22,0,0,1,523,77.28c.63-.59,1.21-1.23.45-2.06-.53-.57-1.22-.38-1.82,0-7.94,4.25-15.71,8.68-18.32,18.64,3.45.1,4.17-4.12,7.8-3.88-3.68,5.81-10.53,7.44-15.25,13.42C520.31,91.36,539.56,73.87,561.32,60.09ZM500.2,92.36c-.6-2-1.58-1.45-2.62-.7-5.2,3.75-8.7,9-12.18,14.17-6.24,9.33-12.12,18.93-18.83,27.91A112.53,112.53,0,0,0,446,181.16c-.19,1-.57,2.25.54,2.62,1.75.57,1.64-1.25,2-2.19,1.22-3.42,2.3-6.89,3.44-10.34,2.72-8.2,5.36-16.67,10.17-23.69,6-8.77,13-16.58,17.14-26.82a70,70,0,0,1,19.12-26.22A19.29,19.29,0,0,0,500.2,92.36ZM727,529a28.35,28.35,0,0,0-2.65-8.33c-1.31-2.87-3.32-2.33-4.53-.46-3.41,5.27-8.66,9-11.6,14.7-1.51,2.93-1.6,4.2,1.58,4.93,4.57,1,8.14,3.29,10.33,7.6a9.41,9.41,0,0,0,2.3,2.59c1.57,1.38,2.9,1.19,2.84-1.11C725.14,542.11,725.23,535.34,727,529ZM561.61,438.08c-5.21,1.48-7.78,5.25-11.41,7.42-.93.55-2.28,2-2.87-.37-.53-2.18-.52-2.27-2.39-1.33-2.29,1.16-4.9,2.4-7.1,1.06s-4.66-1.45-6.78-2.4c-3.32-1.5-7.1.29-10.1-2a5.64,5.64,0,0,0-6.53-.44c-1.27.65-3.46.42-3.46,2.24s2.1,1.5,3.46,1.89c7.15,2.07,15.13,3.43,20.38,8.51,5.56,5.39,9,4.74,13.52-.27C552.48,447.74,556.8,443.25,561.61,438.08Zm-61.71,3.31c-3.52.1-5.23,3-3.25,5.83a6.53,6.53,0,0,1,1.13,4.16c0,5.93,0,11.85.08,17.78,0,1.26.12,2.4,1.92,2,3.86-.88,7.76-1.63,11.59-2.64,1.07-.27,3-.59,1.91-2.61-2.45-4.63-3.09-10.86-10.26-11.39-1-.07-4-.68-2-2.61,3.21-3.21-.18-6.26.51-9.3C501.67,441.73,501,441.07,499.9,441.39ZM484,163.24c3.46.17,4.92-1.82,6.44-3.78,3.34-4.32,6.88-8.45,10.56-12.51,7.07-7.78,16.88-12.26,23.79-20.19a3,3,0,0,1,3.67-.65c1,.44,2.09.7,2-.87-.05-1-.29-3.33-1-2.93-3.87,2.18-8.59-.34-12.35,3C504.51,136.31,494.62,149.66,484,163.24ZM427.54,536.59c5.11-3.9,9.17-6.94,13.15-10.09a3.32,3.32,0,0,0,1.13-2.1,10.05,10.05,0,0,1,7.21-9.18c8-2.59,11.6-8.8,14.37-15.93.3-.77,1-1.49.23-2.24s-1.5-.1-2.19.33c-3.78,2.38-7.53,4.71-10.74,8-6.32,6.4-10.47,14.44-16.49,21.06C431.76,529.09,428.8,531.52,427.54,536.59Zm78.35-360.05c-1.05-1.28-4.33,1.47-4.3-2.15,0-3.07-1.46-1.92-3.16-1.27-9.51,3.64-12.21,12.53-15.88,20.8,5.09-3.9,7.4-10.89,14.66-13.48-2.48,7.66-6.86,13.55-10.52,20,.89.17,1.35.38,1.48.26q8.1-8.09,16.15-16.21c.45-.46,1.38-1.26.87-1.54C500,180.13,506.7,178.86,505.89,176.54Zm14.2-81.49a7.66,7.66,0,0,0-7.42,1.07c-5.52,3.58-10,8.7-16.35,11-8.26,3-10.79,11-15.18,17.43a1.31,1.31,0,0,0,.06,1.81c.81.68,1.61.21,2.16-.41,3.47-4,8.6-5.89,11.79-10.39,2.32-3.28,4-6.89,9.61-8.09C510.64,106.25,515.41,100.3,520.09,95.05Zm-11.78,165c3-1,4.23-3.61,5.62-5.94a24.12,24.12,0,0,1,7-7.61,20.42,20.42,0,0,0,6.24-6.79c2.31-4.09,6-5.56,10.3-5.57a9.19,9.19,0,0,0,5.6-1.4c1-.67,2.1-1.33,1.89-2.68-.26-1.7-1.77-1-2.81-1.22-6.5-1.49-10.86,3-15.79,5.75-1.48.83-2.08,1.71-4,.1-2.58-2.11-3.9,1.89-6,2.71-1.11.43-1.46,1.77-.22,2.85,3.23,2.81.91,5.22-.85,7.26A37.54,37.54,0,0,0,508.31,260.07Zm-3.85,5.9c-4.8,5-8.83,9.59-11.33,16.13-2.64,6.89-3.6,13.08,1.27,18.46.76.84,1.46,2.19,2.7,1.94,1.49-.31,1.91-1.94,1.83-3.16-.27-3.86,1.13-7.09,3.95-10.45-3.82-.21-6.6-.87-3-4.6a2.1,2.1,0,0,0,.22-1.91c-1.78-3.6.39-6.06,2.1-8.88C503.46,271.45,505.53,269.4,504.46,266ZM515.51,54.89c6.07.44,9.25-4.22,13.77-6.36,7.34-3.48,14.82-6.69,22.15-10.22,1.63-.79,4.81-1,4.28-3.36s-3.81-2-5.89-2.52c-1.08-.29-2.67.41-3.72,1.12-6.35,4.35-13.91,6.71-19.44,12.52C523.43,49.47,519.26,52,515.51,54.89ZM647,644.51c0-1.75.08-3.08,0-4.4s.71-2.91-.56-3.72c-1.68-1.07-1.92,1.33-3.08,1.73-3.68,1.24-6,3-4.53,7.64.58,1.82-.13,4.36-1,6.26-2.27,5.18.29,8,4.28,10.61,2.46,1.6,3.63.51,3.56-1.71C645.53,655.24,647.75,649.78,647,644.51Zm-9.44-516.37c0-2.35,1.18-3.52,2.24-4.78.88-1,3.09-2.2,1.53-3.5-1.74-1.46-3.54.48-4.35,2a53.41,53.41,0,0,0-3.65,8.64c-.5,1.46-3.27,3-.77,4.6,2,1.35,3.78.28,4.65-2,.47-1.21,1.49-1.19,2.46-1s1.15,1.11,1.12,2a13.82,13.82,0,0,0,1.43,7.16c-2.14,0-4.39-1.41-4.92,1.32-.41,2.09,1.57,2.6,3,3.37,3.36,1.78,5.12-1.18,7.3-2.57,2-1.25,1.82-3,.79-5.14-1.35-2.88-3.37-5.27-4.92-8C642.16,127.87,640.73,125.92,637.57,128.14Zm-139.3,1.64c-.79-1.19.29-1.7.83-2.49,3.55-5.27,9.47-8.86,10.94-15.62.22-1,2.09-1.86.84-2.93-1.49-1.29-2.31.66-3.17,1.41-3.71,3.23-6.74,7.15-11.54,9.24-2.67,1.16-4.14,4.36-5,7.22-.75,2.59,2.41,2.18,3.46,3.47a2.51,2.51,0,0,1,.58,1.35c.32,5.52,2,3.48,4.41,1,1.44-1.44,5.67-1.41,4-4.26S500.5,130.34,498.27,129.78ZM837.25,553l1-.9c-2.91-4.7-5.34-9.81-8.85-14-5.64-6.75-10.08-15.43-20.72-15.85-.84,0-1.67-1-2.46-1.55a3.93,3.93,0,0,0-4.22-.3,1.66,1.66,0,0,0-.65,2.19c.56,1.63,2.29,1.56,3.38,1.56,7.33,0,12.21,4.53,15.4,9.89C824.72,541.65,831.68,546.58,837.25,553ZM596.64,230.45l-.18-1.2c-.59-.15-1.23-.53-1.77-.42-10,2-19.49,6.27-29.59,8.11a6.63,6.63,0,0,0-3,1.73c-1,.92-2.8,1.69-1.55,3.61,1.05,1.6,2.29,1.08,3.89.68,7.45-1.88,14.06-5.86,21.31-8.21C589.46,233.56,593,231.9,596.64,230.45ZM564.84,77.84a8.66,8.66,0,0,0-7,.17c-4.21,1.57-7.54,4.55-11.36,6.72-5.89,3.36-11.35,7.49-17,11.33-1.5,1-2.67,2.71-1.13,4.13s3,0,3.88-1.58c1.71-3,4.53-4.68,7.3-6.58C547.34,86.69,556.25,83.4,564.84,77.84ZM488.55,90.52c4.35-3.87,8.48-8,13.13-11.53s7.1-9.45,12.31-12.55a1.52,1.52,0,0,0,.36-2.52c-.81-.71-1.53.08-2.14.58-4.94,4.1-10.13,8-14.71,12.42A35.38,35.38,0,0,0,488.55,90.52ZM841.91,559.3c4.24,9,7.85,16.55,11.38,24.18.56,1.21-.41,3.18,1.77,3.57a1.61,1.61,0,0,0,2-.94c.74-1.66.28-3,0-4.8-.84-5.43-5.76-8.54-6.67-14C849.87,564,846.56,561.25,841.91,559.3Zm-96.56-16.61c-1.23.07-1.29,1-1.27,1.78.25,9.41-.39,19,5.22,27.35.63.95.9,3.07,2.64,2.31,1.47-.64.81-2.31.47-3.57-2.27-8.6-4.83-17.13-5.92-26C746.39,543.76,746.39,542.88,745.35,542.69ZM481.15,183.53c7-8.05,15-13.1,21.68-20.47C492.14,163.89,481.36,173.69,481.15,183.53Zm-9.82-72c-1.75-.53-2.28-.05-2.65.48-6.07,8.67-11,18-15.88,27.36a4.07,4.07,0,0,0,0,4.22c.56,1-.34,3.15,1.75,2.89,1.67-.2,2.35-1.82,2.23-3.42-.35-4.9,2.12-8.88,4-13.1C463.58,123.48,467.66,117.73,471.33,111.51Zm40.81,103.61c-4.56.35-5.69,3.83-8.09,5.54A33.63,33.63,0,0,0,490,241.93c-.19.94-1,2,.25,2.6s1.52-.86,2.18-1.51c2.88-2.83,2.25-7.1,4.44-10.31C501.09,226.54,507.24,222.09,512.14,215.12ZM612.28,383.85l-1.78-1.15c-4.27,5.31-8.72,10.49-12.74,16-1.62,2.24.36,4.36,1.93,6.05.85.92,1.77.56,2.34-.54C605.55,397.46,606.83,389.7,612.28,383.85ZM781.5,578.21c-1.32,1.64-.53,3.18-.42,4.72.35,5.1,2.75,9.8,2.67,15.05,0,2.13-1.06,6.39,1.48,6.25,3-.15,3.48-4.22,3.41-7.27a12.34,12.34,0,0,0-.52-3.37A76.69,76.69,0,0,0,781.5,578.21Zm-328.09-369c-4.48,9.36-7.75,18.82-2.19,28.76C449.71,228.23,453.77,218.89,453.41,209.22Zm88-41.46a55.45,55.45,0,0,0,5.63-2.22A90.44,90.44,0,0,1,562,159.09c1.27-.39,3-.67,2.44-2.38s-2.52-1.68-3.8-.94c-2.94,1.69-6.23,2.21-9.38,3-4.1,1-6.7,4.13-10,6.22-.7.44-1.32,1.15-.9,2.07C540.51,167.41,541.1,167.55,541.45,167.76ZM440.57,221l-1.43-.13c-.31.53-.82,1-.88,1.61-.35,3.33-1.52,6.46-.35,10.1,1.1,3.44-1.11,7-1.84,10.56-.28,1.37-1.15,3.22.66,3.92,1.54.59,2.12-1.13,2.73-2.28.38-.73,1.05-1.47,1.06-2.21C440.6,235.4,440.57,228.21,440.57,221Zm148.6,27.57c5.74.94,10.38-1,14.62-4.1.93-.67,3.05-2.07.41-3.2C600.75,239.82,590.7,244.66,589.17,248.59ZM430.43,155.31c-.17,2.21-.3,3.7,1.15,3.87,1.61.18,1.15-1.59,1.66-2.5,2.88-5.17,1.52-11.47,4.53-16.58.53-.89.69-2.2-.21-2.74-1.59-1-1.71.87-2.38,1.65C430.83,144,432.35,150.67,430.43,155.31ZM786.48,636.17c.33-5.38-2.42-9.86-3.87-14.63a2.37,2.37,0,0,0-2.76-1.66,1.13,1.13,0,0,0-.85,1.54C780.61,626.61,776.66,634.28,786.48,636.17ZM456.94,201.31c6.19-4,7-10.57,11-14.8.89-.95,2.22-3,.54-3.84a3.44,3.44,0,0,0-4.59,1.74C461.7,189.67,458.44,194.49,456.94,201.31Zm187.32-75.92c.28,1.33-.11,3.18,1.42,3.49s1.89-1.65,2.31-2.74c2.09-5.32,2.72-11.27,7-15.59a1.19,1.19,0,0,0,.1-1.77c-.81-.8-1.52-.22-2.15.33C648,113.46,646,119.38,644.26,125.39ZM478.38,89c6.27-6.17,11.75-13,17.83-19.32C488.38,74.43,481.82,80.32,478.38,89Zm176.43,40.61c.64,1.38-1.51,4.62,1.75,4.33,3.1-.27,4.1-3.41,4.17-6.35,0-2.09.17-5.39-2.3-5.19C654.68,122.69,654.79,126.39,654.81,129.59Zm96.71,564.24c1.82,3.25.09,8,3.81,11,.88.71,1.74,1.93,2.94,1.23s.8-2.19.43-3.18c-1.32-3.53-3.53-6.69-4.31-10.46-.17-.79-.69-1.69-1.67-1.45C751.53,691.31,751.55,692.45,751.52,693.83ZM333.31,239.44l.94-.07V213.31h-1.41c0,8.1,0,16.21,0,24.32A8.47,8.47,0,0,0,333.31,239.44ZM635.13,112.88c3.84-3.1,7.91-6.36,11.9-9.71.25-.21,0-1.22-.28-1.76-.1-.2-1-.3-1.26-.11-4.2,2.87-8.59,5.53-11.79,9.61C632.85,112,633.38,112.75,635.13,112.88ZM499.47,429.64c6.5-3.47,10.93-8.91,14.9-14.79C508.2,418.6,503.53,423.83,499.47,429.64ZM558,210.49c-4.64-2.74-12.07-1.19-14.55,2.39-.41.61-.65,1.28-.05,1.72a2.21,2.21,0,0,0,1.81.4C549.09,213,553.35,212,558,210.49ZM472.63,109.64l12-15.78C478.21,96,472.46,103.73,472.63,109.64Zm43.15,33.82c-4.18.62-10,5.82-11.5,10.32C510.16,152.54,513.25,148.42,515.78,143.46Zm32.05-50.1c-4.75,2-9.41,4.19-13.51,7.93C539.35,102.08,545.19,98.79,547.83,93.36Zm-93.69,17.58c1.6,0,6.29-5.21,6.09-6.66-.08-.63-.41-1.53-1.2-1.06-2.69,1.6-7,.77-8,4.78C450.54,110,452.61,110.57,454.14,110.94Zm144.93-7c2,.6,3.68,1.24,5.39,1.57s3-1,4.22-2.07.06-1.71-.48-2.41a3.16,3.16,0,0,0-4.33-.94C602.11,100.94,600.16,101.48,599.07,103.94Zm-43.9,163.75c-1.78-.26-9.26,7.71-8.83,9.31s1.5,1.78,2.59.79c2.54-2.31,5.25-4.52,6.68-7.8C556,269.05,556.48,268.13,555.17,267.69ZM791,688.54c3-5.8.25-10.87,0-15.93,0-.19-1-.58-1.18-.44a2.37,2.37,0,0,0-.84,1.55C789.4,678.41,787.73,683.36,791,688.54ZM582.08,94.66c-.09-1.61-1.14-1.91-2-1.49-3.38,1.56-6.67,3.33-10,5-.9.44-1.35,1.08-.85,1.91s1.38.54,2.16.16c3.09-1.5,6.21-3,9.3-4.46A8.54,8.54,0,0,0,582.08,94.66Zm-96.68,207a20,20,0,0,0,.15-2.3c-.08-1.21.6-3-1.36-3.11-1.79-.07-2.39,1.46-2.47,3.1a7.64,7.64,0,0,0,0,2c.47,2.23-1.37,6.28,1.42,6.37C486.89,307.84,484.48,303.53,485.4,301.69ZM688.29,86.24c-5.18,1.15-9.54,1-12.15,5.27C679.82,89.86,685,92.49,688.29,86.24ZM736.92,586c2.08,3.63,3.76,6.59,5.48,9.53.41.71,1,1.43,1.94,1.09a1.62,1.62,0,0,0,.82-1C745.7,593.44,740.57,586.89,736.92,586ZM448.39,147.34c-5.4,2-7.19,6.09-5.35,11.44Zm341.8,509.45c-.89-2.1,1-6.2-1.06-6.08-3.06.18-1.49,4-1.34,6.23.14,2-1.64,5.8,1.21,5.82C791.27,662.77,789.29,658.83,790.19,656.79Zm-275.91-378,5.86-7.67-1.29-1A8.7,8.7,0,0,0,514.28,278.79Zm4.58,132.4c2.62-.65,4.52-2.28,6.39-4,.65-.59,1.22-1.28.66-2.07s-1.46-.37-2.07.18C521.94,407,519.78,408.48,518.86,411.19ZM333.64,174.56c-.1,3.38-1.52,6.9.37,10.15C335.05,181.27,335.23,177.88,333.64,174.56ZM471.51,295.12c.22-2.72,2.18-5.12-.47-7.16a1.35,1.35,0,0,0-1.24.37C468.79,290.75,468.57,293.08,471.51,295.12Zm10.33,19.18c-.74-.79.75-2.85-1.38-3-1.63-.1-2.29,1.48-1.88,2.83s.19,3.57,2,3.55C482.61,317.7,481.33,315.63,481.84,314.3ZM523.76,284a17.39,17.39,0,0,0,8.73-6A12.2,12.2,0,0,0,523.76,284Zm13.06-95a10.74,10.74,0,0,0,4.44-4.66,1,1,0,0,0-1.24-1.43,9.17,9.17,0,0,0-4.72,4.79C535,188.31,535.53,188.92,536.82,189Zm40.83,87.32c-2.58,1.33-5.07,2.12-6.2,4.75-.06.13.72.89.92.82a9.43,9.43,0,0,0,5.56-4.36C578,277.41,577.87,277.21,577.65,276.3Zm41.79,356.9c1.38-.34,1.84-1.33,1.22-1.89a35.63,35.63,0,0,0-5.48-4c-.68-.4-1.25.64-1,1.21C615.34,630.89,617.83,631.68,619.44,633.2Z" transform="translate(-11.65 -17.75)"/><path d="M68.27,505.7c-2.6-5.28-5.69-10-3.12-16.12.82-1.95-.17-3.4-3-3.9s-7.79-.35-4.85-6.28c.8-1.6-.68-3.77-3.44-4.39-8.39-1.89-15.79-6.4-23.68-9.63-2.81-1.16-4.29-3.95-4.18-7.74.35-12-.08-23.95-.64-35.92-.42-8.89,1-17.69-1-26.71-1.83-8.22,0-16.9,1-25.3.81-6.75-1.83-13-1.83-19.68,0-2.41-.14-4.94-.17-7.4-.25-18.31-.28-36.63-.59-54.95-.27-15.52-.82-31-1.41-46.54-.82-21.71-.6-43.4-1.11-65.09C19.58,145.51,18.74,115,18,84.45c-.16-6.85.46-7,7.36-7.45,19.69-1.44,39.4-2.1,59.13-2.77,13.69-.46,27.51-1,41.13-2.44,20.34-2.07,40.77-1.46,61.06-3.53,16.63-1.71,33.32-1.86,50-2.53,18.22-.73,36.5-1.52,54.64-3.25,8.38-.8,16.73-1.09,25.11-1.59,2.11-.12,3.34.41,3.91,2.7a46.17,46.17,0,0,1,1,14.43c-.59,8.45,0,17-.22,25.48-.51,17.57-1.3,35.14-1.87,52.71a61.06,61.06,0,0,0,.7,7.36c.82,9.18-1.23,18.22-1.21,27.36.06,20.72.53,41.45-.18,62.14-.36,10.49-.91,21-1.16,31.51-.14,5.47.47,11,0,16.43-.86,9.76-.11,19.52-.79,29.32-1.15,16.51-.21,33.16-.85,49.73-.72,18.85-.05,37.72-.9,56.54-2,43.78-.74,87.58-1,131.36-.08,14.81,1,29.63,1.44,44.45.56,19.57,1.14,39.15.94,58.74,0,3.15-.85,4.35-4.2,4.39-17.6.25-35.16,1.45-52.78,1.41-6.5,0-11.54-1.79-16.2-6s-7.22-3.65-10,1.75a13.49,13.49,0,0,1-3.79,4.53c-2.49,1.92-5.13.58-6.3-2.4-3.18-8-4.59-15.9.7-23.71,1.09-1.61.47-3.41-.56-5.15C219.06,639,205.2,630.07,194,632,187.71,633.1,178,642.7,177,649c-1.11,7.31,4.42,11.44,8,16.4,2.52,3.44,5.68,6.41,8.42,9.7.84,1,2.86,2.17,1.34,3.62-1.31,1.26-3.3.53-4.54-.69a102.68,102.68,0,0,1-7.88-8.28c-5.46-6.63-10.15-13.85-15.11-20.86-7.87-11.14-14.63-23-21.72-34.56-8.29-13.6-12.54-28.72-15.45-44.22-3.94-21-10.3-41.14-21.36-59.51-5.7-9.46-12.55-18-23.45-22.15-3.56-1.37-7.06-2-10.72-1.17-4,1-5.53,4.45-3.57,8.07a29,29,0,0,0,7.06,8.28c6.92,5.85,13.85,11.87,17,20.74,1.59,4.46,3.29,9.07,1.66,14.06-1.08,3.28-2.84,3-4.66,1-1.66-1.83-2.88-4.05-4.37-6-3.36-4.45-6.72-4.83-11.15-1.36-.79.61-1.68,1.08-2.52,1.61-6,3.74-6.35,5.29-2.53,11.06a21.86,21.86,0,0,1,4,11.13c.17,3.93-1.68,5.3-5.5,4.27a26.88,26.88,0,0,1-4.29-1.28c-5.2-2.41-8.68.45-10.34,4.51-4.43,10.83-3.76,21.64,2.58,31.69,2.39,3.77,5.45,3.95,8.83,1.21,3.12-2.53,3.3-5.81.25-8.9-1.26-1.28-2.68-2.74-1.51-4.23,1.5-1.92,3.1.3,4.2,1,4.33,2.94,6.13,7.65,7.94,12.34,3.44,8.91,4.49,18.57,8.56,27.28,2.41,5.17,5.62,9.87,10.3,13.06,3.28,2.24,5.77,4.59,7.23,8.37,4.42,11.41,10.3,22.14,16.06,32.89,1.84,3.43-.09,4.19-2.47,4.59a40.78,40.78,0,0,1-7.74.3c-2.16-.07-3-1.33-2.12-3.39,2.75-6.3-.23-11.65-2-17.61-3.22-11-9.69-14.38-20.45-12.72-5.21.8-10.64,0-16,.17-6.15.15-8.42,2.38-8.65,8.44a35.81,35.81,0,0,1-1.57,8.79c-.31,1.08-.78,2-1.94,1.83-1.65-.27-1.37-1.54-1-2.74.47-1.76.83-3.55,1.32-5.31,1.76-6.29-2.79-11.26-9.29-10-4.42.87-9-.49-13.37,1-2.15.74-2-1.81-2.44-3-.74-2,.83-2.83,2.46-2.65,5.54.63,10.93-.72,16.29-1.5,7.45-1.08,14.76.27,22.13.22,5.2,0,10.21-1.27,15.36-1.49,4.13-.19,4-2.51,1.66-5.13-4.58-5.13-8.17-10.84-9.83-17.56-1.43-5.73-2.39-11.58-3.88-17.29-1.36-5.21-3.57-5.82-7.7-2.7C62.79,604.69,58,603.6,55,598.72c-6.57-10.92-8.37-22.39-3.37-34.55a36.33,36.33,0,0,1,5.14-9c2.25-2.82,4.64-5.25,8.88-3.46,2.31,1,3.6-.3,3.17-2.73-.8-4.54-6.78-6.62-10.45-3.72C56.17,547,54,549,51.2,549.6c-3.65.76-7.34.73-9.79-3s-3.76-8-1-11.64c3.63-4.77,2.55-8.49-.88-12.39-3.87-4.38-4.6-11.23-10.88-13.77-.48-.19-.68-1.45-.73-2.24-.22-3.8.32-7.65-1.12-11.36-.35-.88-.25-2.09,1.13-2.29,1.09-.17,1.59.22,1.92,1.53,1.25,5,4.1,9.31,7,13.55,1.34,1.95,2.65,2.86,4.79.83,6.88-6.53,13.81-7.62,22.58-3.67C65.4,505.67,66.49,506.57,68.27,505.7ZM181.56,274.58a10,10,0,0,0-5.42-1.24,49.23,49.23,0,0,1-23-4.63c-3.16-1.52-5.4-1.23-8.32.07a34,34,0,0,1-20.92,2c-4.27-.88-7.6-.89-11,2.08-4.35,3.85-9.33,6.44-15.43,5.77-2.47-.27-4.61.79-6.68,1.74-4.83,2.21-8.79,6-13.81,7.92a3.84,3.84,0,0,0-2.3,5.21c1,2.17,3,1,4.78.36,12.55-4.65,24.34,1,29.05,13.72.63,1.7,1.17,3.71,2.41,4.85,4.09,3.75,2.46,7.47.39,11.22-3.66,6.63-7.5,13.06-9.63,20.54-4.07,14.26-7.7,28.41-5.63,43.47,1.89,13.7,10.56,21,24.26,16.37,4.75-1.59,7.24-5.37,9.52-9.49,1-1.81,1.74-5.3,4.23-4.31,2.66,1.07,1.58,4,.74,6.56-1.82,5.56-5.86,9.29-10,12.8-5.77,4.88-16.2,4.23-22.07-.31-3.66-2.83-6.05-6.44-8.47-10.16-.57-.88-.59-2.61-2.28-1.91-1.15.47-1,1.76-.63,2.63,1.81,4.54,1.81,9.41,2.77,14.1,2.2,10.79.13,21.29-2.58,31.44-3,11.21-4.78,22.34-4,33.87C88,485,93.22,486.7,97,489.38c2.63,1.85,4.65-.49,6.48-2.16,6.93-6.35,20.24-5.67,26.45,1.49,1.31,1.51,2.55,3.7,1.75,5.45-1,2.1-2.85.12-4.34-.15-3.35-.61-8.12,2.26-8.36,5.54-.27,3.6,3,4.73,5.62,5.19,3.72.62,7.4,1.75,11.34,1.15a31.16,31.16,0,0,1,8.89.08c6.68.93,9.78,5.88,12.82,11.34,7.34,13.16,14.82,26.28,18.15,41.1,3.67,16.35,13.17,21.88,28.06,21.16,16.71-.81,29.84-9.56,38.63-23.1,8.27-12.75,16.36-26.37,8.24-42.92-3.33-6.81-5.66-14.17-7.91-21.44-1.06-3.45-3.09-6.34-4-10-2.38-9.87-4.86-19.69-6.84-29.66-1.22-6.11-4.83-11.2-8.58-16.08-2-2.58-3.17-6.21-6.62-7.05a6.07,6.07,0,0,1-4.61-4.65c-2.31-11.08-12.56-16.19-18.36-24.62-1.89-2.74-3.86-5-4.47-8.33-1.42-7.84-1.09-15.8-1.81-23.66-1.74-19.19-.06-38.44-1.64-57.63-1-11.79-1.87-23.68-.35-35.56.2-1.55-.58-3.25-1-4.84a1.54,1.54,0,0,0-2-1.09c-1,.26-1.89.89-1.29,2.12A4.06,4.06,0,0,1,181.56,274.58ZM121.13,511c-2.89,0-4.73.73-3.07,4.13a195.82,195.82,0,0,1,19.11,66.84,9.85,9.85,0,0,0,1.84,4.54c.71,1.09,1.81,1.94,2.8.67,3.46-4.47,8.46-8.35,9-14.27a56.09,56.09,0,0,1,7.88-24.19c3.27-5.44,3.77-9.88.55-15.07-.87-1.4-1.13-3.22-2.13-4.49-2.82-3.61-3.09-9.09-7.69-11.3C140.48,513.55,130.39,514,121.13,511ZM105.07,320c-.25-7.94-3.08-13.49-8.12-17.63-3.85-3.17-8.53-4.73-13.5-2.44-10.3,4.75-14.39,19.43-11.12,28.94A3.61,3.61,0,0,0,76,331.64c8.49.38,8.56.37,9,8.83.15,2.59,1,4.43,3.73,4s6.38-.77,7.83-3.64C100.11,333.83,103.92,326.83,105.07,320ZM50,534.78c-.11,4.73,2.27,6.44,6.43,4.61,10.14-4.46,18.05-12.2,27-18.45a3.76,3.76,0,0,0,.88-5.73c-2-2.15-4.85-2.11-7.24-.29-7.5,5.71-15.92,9.93-24,14.76C50.83,531,50,532.47,50,534.78Zm41.09-161.1c.72-4.29-1.8-10.42,1.49-16,1.62-2.76,1.26-5.28-1.59-6.65-4.09-1.95-9-.39-9.46,3-1.67,12.07,1.58,23.22,7,33.86.36.71.93,1.58,1.88,1a2.28,2.28,0,0,0,.64-1.66C91.08,383.17,91.06,379.19,91.06,373.68ZM52,524.92c3.4-1,6.91-3.4,10.44-5.73,1.42-.93,3-1.81,2.56-3.83a4.51,4.51,0,0,0-3.57-3.78c-4-.56-7.74-1.92-12.13-.62-4.18,1.24-5.41,3.46-5.23,7.1A7.47,7.47,0,0,0,52,524.92Zm62.4-38.33c-3.51.2-5.91,2.58-8.7,4.3-2.52,1.55-2.47,3.52-1.34,5.46s3,3.28,5.45,1.82,5-3.18,7.39-4.91a3.78,3.78,0,0,0,1.26-4.48C117.86,486.83,116.23,486.53,114.41,486.59ZM77.74,470.21c-1.57-.11-2.64.31-2.65,2.1,0,2.09.83,3.6,3,3.89s2.59-1.13,2.41-2.81S80.13,469.94,77.74,470.21Z" transform="translate(-11.65 -17.75)"/><path d="M117.77,842.15c-16,0-32,.54-48-.14-17.24-.73-34.47-1-51.71-1-4.4,0-4.83-2.41-4.85-5.71-.1-15.82,0-31.64-.45-47.45-.24-8.3,0-16.64-.08-24.9-.06-11-1-21.89-1-32.85,0-4.15,4-10.16,7.65-10.48a5.82,5.82,0,0,0,5-3.67,6.28,6.28,0,0,1,6.49-4.1c4.72.54,9.2-2.6,13.86-.54,9.32-5.33,19.82.06,29.37-3.2a8.82,8.82,0,0,1,2.48-.25c29.62-.93,59.25-1.48,88.89-1.31,3.26,0,4.21.94,4.2,4.26-.08,15.45,1,30.89,1.37,46.33.67,26.82,1,53.62,1.1,80.43,0,3.95-1.33,4.64-4.88,4.61C150.77,842.05,134.27,842.14,117.77,842.15Zm2.94-37.27c3.33,0,6.66.09,10,0,2.29-.08,5.35.93,5.3-3.24-.08-6.05-1.39-7.94-5.83-7.94-6.66,0-13.33.05-20,.06-2.26,0-4.45-.19-2.42-3.29,8.28-12.65,14.38-26.59,23.11-39a49.39,49.39,0,0,0,5.18-8.47c.44-1,1.33-2.15-.27-3-2.95-1.53-5.88-3.1-8.88-4.52-1.64-.78-1.76.75-2.33,1.73-5.78,9.86-11.68,19.64-17.39,29.54-4.14,7.18-8,14.53-12.07,21.76-1.36,2.43-2.55,3.74-4.7.18-3.09-5.07-6.74-9.8-9.88-14.88C73.8,763,66.65,752.41,59.93,741.56c-1.85-3-2.78-7-7.43-5.09-3.17,1.28-6.57,2.41-9,5.12-1.11,1.24-.23,2.06.56,3,12.4,14.16,20.72,31.16,32,46.11.75,1,1.65,2.55,1.35,3.49-.47,1.49-2.33.77-3.54.73-6.52-.22-13-.49-19.54-.94-2.77-.19-4.13.78-4.17,3.53,0,1.5.12,3,0,4.5-.42,4.43,1.91,5.83,5.77,4.94a46.22,46.22,0,0,1,10.42-.79c7.25,0,14.52,1,21.68.8C98.91,806.58,109.75,804.7,120.71,804.88Z" transform="translate(-11.65 -17.75)"/><path d="M226.5,727.79c11.33,0,22.66.08,34,0,5.5-.06,10.82,1.35,16.36,1.29,20.06-.24,40.12.14,60.18-.14,4.62-.06,5.75,1.69,5.74,5.64,0,9.52,0,19,.12,28.56.15,9,1.08,18.11.62,27.11-.36,7.14.45,14.25-.53,21.48-.52,3.83,1.21,8.74,1.15,13.06-.1,6.22.89,12.36.67,18.54-.07,2.17-2.34,4.31-3.77,4.3-4.35,0-6.62,2.78-8.12,5.71-2,3.9-5.13,4.75-8.79,5s-7.55-.74-10.74.44c-12.72,4.74-25.77.67-38.54,2.17-13.2,1.55-26.51.24-39.64,1.43-14,1.27-27.9.22-41.81,1-3.86.23-5.07-1.09-5.17-5.07-.74-28.78-.88-57.58-1.54-86.36-.29-12.94-.27-25.92-.84-38.86-.18-4.06.91-5.5,5.19-5.4C202.84,728,214.67,727.79,226.5,727.79Zm49.46,36c-14.09-1.14-31.27,2.16-48.56,1.29a8.44,8.44,0,0,0-1,0c-3.43.27-5.2,2-4.55,5.55.57,3.14.33,7,5.37,6.57,5.55-.41,11.1-.77,16.66-.94,1.9-.06,4.5-1,5.64.71,1.45,2.22-1.23,3.77-2.18,5.59-.47.88-1,1.76-1.41,2.64-6.52,12.26-12.8,24.65-21.13,35.85-5.23,7-5.15,7.09,2.6,11.45a3.67,3.67,0,0,1,.83.56c2.18,2.29,3.55,1.41,4.94-1,7-12.21,14.17-24.35,21.2-36.56,2.82-4.89,4.84-10.24,8.39-14.69,1-1.22,1.91-3.59,3.92-.46C277.31,797,287.27,814,298.59,830.1c1.37,1.95,2.1,4.59,4.89,3.9,3.87-1,7.09-3.41,10-6.06.78-.71-.15-1.89-.87-2.59-1.9-1.86-3-4.33-4.47-6.37-9.58-12.86-18-26.52-27-39.7-.72-1-2.32-2-1.61-3.38.81-1.6,2.71-.94,4.06-.81a151,151,0,0,0,18.18,1c2.91-.06,4.51-.49,4.49-3.62a42,42,0,0,1,.06-4.49c.33-3.18-.74-4.38-4.17-4.26C294.48,764,286.82,763.78,276,763.78Z" transform="translate(-11.65 -17.75)"/><path d="M12.55,683.75c.24-25.85-4.32-52.1,6.78-78.44C21.63,632.8,18.76,658.42,12.55,683.75Z" transform="translate(-11.65 -17.75)"/><path d="M720.84,274.13c4.16-4,9.55-5.3,13.59-8.65.88-.74,2-1.17,2.91-1.9,1.11-.89,2.74-1.68,2-3.55-.65-1.57-2.25-1-3.48-1.34-1.76-.48-5.07,1.16-5-1.27.06-2.17,3.41-2.46,5.79-2.44a82.27,82.27,0,0,0,23.94-3.34c3.22-.94,6.61-.5,9.92-.31a3,3,0,0,1,2.11,1c.5.8-.31,1.48-1,2s-1.54,1.23-2.35,1.8c-4,2.84-9.68,1.89-13.31,6-1,1.08-3.51.26-5.27-.41a9.25,9.25,0,0,0-7.25.47c-3.14,1.35-6.13,2.48-2.56,6.59,1.32,1.52,1.07,3.87.44,5.77-.43,1.29-1.93,2.41-3,.88-3.62-5.31-8.25-2.77-12.65-1.9C724.3,273.81,723.21,275.37,720.84,274.13Z" transform="translate(-11.65 -17.75)"/><path d="M354.84,416c-1.95-.79-4-.24-6.16.08-2.72.4-4.25-1.33-3.19-4a84.29,84.29,0,0,1,5.7-12.12c1.55-2.58,2.27-3.88-1.42-4.68-3.49-.75-4.45-1.58-1.19-5,3-3.16,7.67-6.93,4.14-12.86-.76-1.28.79-2.43,2.18-2.75,2.39-.55,4.9-.08,7.28-1.21,1-.49,2.1.68,2.46,1.95.47,1.67-.57,2.34-1.82,3.06-5.19,3-7.38,7.74-5.9,13.43.47,1.81-1.3,3.13-.48,4.79,1.68,3.37-1,7.37,2.92,11C362.34,410.39,358.92,415.9,354.84,416Z" transform="translate(-11.65 -17.75)"/><path d="M370.66,412.5c1.27,1.49,2,.7,2.78.62s1.84-.22,2.18.66a1.72,1.72,0,0,1-1.33,2.29c-2.33.72-3.14,1.54-2.58,4.49.42,2.2-1.57,4.92-2.66,7.33-.88,1.93-2.36,3.46-2.76,5.76-.27,1.6-1.62,3.93-3.76,3.09-2.36-.92-1.74-3.38-.92-5.21a69.54,69.54,0,0,1,4.57-8.83c1.92-3,2.12-5.12-1.28-7.3-5-3.24-.94-6.38.78-9.13,2.11-3.35,5.89-4.48,9.14-2.73,2.14,1.15,2,4.35-.35,6.33A43.64,43.64,0,0,1,370.66,412.5Z" transform="translate(-11.65 -17.75)"/><path d="M504.44,609.6c6.72-6.55,13.72-11.8,22.75-13.83,4.51-1,7.16-5.27,11.5-6.74,2.78-.95,6.63-3.5,8-.87,1.53,2.91-2.93,3.92-5.28,5.06-11.11,5.41-21.79,11.71-33.23,16.44C507.22,610.07,506.31,611.23,504.44,609.6Z" transform="translate(-11.65 -17.75)"/><path d="M11.65,590c.83-18.59-2-37,3.64-55C18.62,540.54,15.89,586.57,11.65,590Z" transform="translate(-11.65 -17.75)"/><path d="M401.28,371.91c4.58-.1,5.23,3.7,6.69,6.46.63,1.19-.6,2.11-1.85,2.43-1.53.39-3,.48-3.86-1.25-.55-1.09-.62-3-2.62-1.81-1.39.82-2.23,2-1.29,3.76s.5,3.23-1,3.81c-3.64,1.37-5.25,4.21-6.42,7.57-.51,1.45-1.47,3.21-3.11,2.25-1.32-.77-.93-3,0-4.06,1.92-2.14,2.11-3.77-.05-5.9a1.73,1.73,0,0,1,1.06-3c3.91-.17,4.63-3.21,6-5.8S398.17,371.74,401.28,371.91Z" transform="translate(-11.65 -17.75)"/><path d="M611,60.91c2.57-4.94,8.35-5.8,8.9-10.95,1.77.71,1,1.63,1.07,2.32.2,1.18-.5,3.74.71,3.27,2.22-.85,5,1.52,6.55-1.31a18.26,18.26,0,0,0,1.53-3c1.8-6.48,7.51-4.76,12.82-7.16-1.67,3.8-3.86,4.86-6,5.52-2.74.86-3.14,1.71-1.29,4.05,1.32,1.67,4.26,3.68.54,6-2.68,1.66-5.34,4-7.75-.43-1.26-2.29-3.29-2.34-5.6-1.61C619,58.71,615.45,59.65,611,60.91Z" transform="translate(-11.65 -17.75)"/><path d="M415.87,437.64c-5.91-.37-7.94-1.59-7.59-5.81.32-3.79,4.79-7.93,8.34-6.73,2.57.87,7.64.17,6.91,5.13C423.09,433.29,424.13,438.29,415.87,437.64Z" transform="translate(-11.65 -17.75)"/><path d="M776.91,363.23c2.18-.32,3.33.37,3.36,2.29.06,2.74-.67,5.62-2.63,7.22a52.18,52.18,0,0,0-13,14.84c-.53.95-1.09,2.47-2.49,1.9-1.78-.72-1-2.43-.39-3.44,3.22-5.74,5.78-11.87,9.72-17.2C773.06,366.64,773,362.63,776.91,363.23Z" transform="translate(-11.65 -17.75)"/><path d="M32.45,473.92c5.18,2.45,12.18,1.66,18.53,4.07,1.16.45,3,.76,2.55,2.45A3.06,3.06,0,0,1,50,482.57c-6.44-1.36-13.2-.41-19.49-2.7-1.75-.64-3.63-1.47-3.44-3.68C27.26,473.59,29.49,474,32.45,473.92Z" transform="translate(-11.65 -17.75)"/><path d="M351.48,437.85c-4,1-6-1.43-6.43-5.47-.28-2.75,5.27-7.57,8.26-7.4,4.12.23,4.43,3.7,4.68,6.46C358.43,436.41,356.78,437.88,351.48,437.85Z" transform="translate(-11.65 -17.75)"/><path d="M428.22,412.52c-2.79,2.93-5.59,4.05-8.89,3.29-2.53-.58-3.72-2.64-4.25-5.05-.66-3,1.13-5.21,3.14-6.83,1.52-1.23,3.5-3,5.8-1.62,2,1.21,4.06,2.5,1.43,5.39C422.47,411,422.67,411.15,428.22,412.52Z" transform="translate(-11.65 -17.75)"/><path d="M333.62,580.69c-.59,4.75,1.65,9.52-4.19,11.29-1.84.56-2.7,1.08-3.47-1.39-1.44-4.61.88-13,5-16a2.79,2.79,0,0,1,1.71-.76c1,.15,1,1.08,1,2C333.59,577.72,333.62,579.7,333.62,580.69Z" transform="translate(-11.65 -17.75)"/><path d="M391.75,430.41a8.38,8.38,0,0,1,8-7.55c2.21,0,4,.75,4.69,2.9s-.5,3.33-2.36,4.28c-1.39.7-3.34,1.52-2.27,3.67,1.92,3.87-1.26,3.27-2.72,2.71C394.15,435.28,391.69,433.27,391.75,430.41Z" transform="translate(-11.65 -17.75)"/><path d="M434.08,415.19c-.34-.18-1-.3-1.16-.65-1.35-3.25.44-6.35.77-9.5.21-2.05,2.39-1.84,4.45-1.64,3.35.33,6.79-.25,10.19-.33,1.21,0,3-.42,2.88,1.67a2.11,2.11,0,0,1-2.45,2c-5.77-.65-9.4,2.29-12.11,6.93A3,3,0,0,1,434.08,415.19Z" transform="translate(-11.65 -17.75)"/><path d="M427.13,386.21c-.23,2.1-.55,3.84,2.33,4.64,2.05.58,1.64,2.23-.24,3.09-4.69,2.14-11.1-1.89-10.94-7,.12-3.69,2.11-5.84,6-5.49C427.17,381.75,428.44,383.32,427.13,386.21Z" transform="translate(-11.65 -17.75)"/><path d="M410.48,383.49c3.46.25,7.33-.3,4.1,4.72-.74,1.15-.21,1.81.55,2.52,3,2.82.38,3.71-1.7,4.23a7.38,7.38,0,0,1-7.62-2.49c-1.64-1.86-1.38-4-.41-6.05C406.5,384.11,408.13,382.65,410.48,383.49Z" transform="translate(-11.65 -17.75)"/><path d="M394.61,404.52c-.06.58,0,.82-.1.9-3.46,3.06-6.91,6.12-10.44,9.09-.14.12-1.49-.72-1.44-.91a47,47,0,0,0,.93-9.38c.06-1.7,4.28-4,7-4.67C394.7,398.54,392.87,403.33,394.61,404.52Z" transform="translate(-11.65 -17.75)"/><path d="M440.17,394.26c-2.45,0-3.84-.77-2.95-2.7,2.56-5.52,5.34-10.93,8.06-16.38.86-1.71,2.48-2.66,4.09-1.78,2.34,1.29.16,2.86-.35,4.19-1.92,4.92-5.47,9.08-6.76,14.31C441.93,393.27,441.26,394.42,440.17,394.26Z" transform="translate(-11.65 -17.75)"/><path d="M401.5,415c-2.07-1-2-2.25-1.06-3.78,1.37-2.16,2.59-3.94,2.11-7.15s4-4.26,6.47-4.77c2.15-.44,4.15,2.41,5.11,4.65.5,1.14-1.2,2-2.26,2.19a11.21,11.21,0,0,0-8.73,7.34C402.88,414.1,402,414.52,401.5,415Z" transform="translate(-11.65 -17.75)"/><path d="M375.86,433.35c.49-3.8-.42-8.53,6.24-6.87,1.8.45,3.73-2.12,6.07-1.26.91.34,2.08.49,2.25,1.64a1.87,1.87,0,0,1-1.81,2c-4.08.44-6.2,3.43-8.52,6.18-.92,1.09-1.51,3-3.34,2.23S376.1,434.62,375.86,433.35Z" transform="translate(-11.65 -17.75)"/><path d="M589,569.25c-5.94,3.36-12.23,3.35-18.61,2.4-1.38-.2-1.69-1.32-1-2.14,3-3.4,1.73-7,.83-10.65-.23-.91-.53-2.07.73-2.51,1.06-.36,1.21.78,1.77,1.3,2.32,2.17,2.47,5,2.24,7.8-.26,3.26,1.17,4.47,4.33,4.37A68.2,68.2,0,0,0,589,569.25Z" transform="translate(-11.65 -17.75)"/><path d="M333.51,654.34c0,2-.06,4,0,5.93.06,1.33.49,2.79-1.27,3.25-1.38.37-2.9,1.13-4.22-.08s.21-2.44.14-3.55c-.29-4.91,2.61-9,3-13.71.09-.91.43-1.74,1.4-1.65s1.07,1.08,1.08,1.91c0,2.63,0,5.26,0,7.9Z" transform="translate(-11.65 -17.75)"/><path d="M12.88,217.48v65.93h-.76v-65.8Z" transform="translate(-11.65 -17.75)"/><path d="M13.92,453.69c-3.78-12.54-1.16-25.4-1.54-38.13C11.92,428.32,15,440.88,13.92,453.69Z" transform="translate(-11.65 -17.75)"/><path d="M779.3,420.15c-5.8,2.63-11.1,5.73-15.44,10.37-1,1-2.2-.1-2-1.62.46-4.25,4.83-7.69,9.27-7.47C773.89,421.56,776.06,418.77,779.3,420.15Z" transform="translate(-11.65 -17.75)"/><path d="M824.71,407.58c-8.27,1.64-16.59,3.07-24.76,5.19,7.48-5.56,15.72-7.37,24.76-5.18Z" transform="translate(-11.65 -17.75)"/><path d="M737.65,500a46.83,46.83,0,0,1,11.81,7.51C742.36,508.32,738.25,505.69,737.65,500Z" transform="translate(-11.65 -17.75)"/><path d="M607.9,731.32c-.75-.18-3.06.54-2.7-1.15.55-2.56,2.89-4.47,5.32-5.3,1.1-.38,2.57,1.47,2.54,3C613,731,611,731.68,607.9,731.32Z" transform="translate(-11.65 -17.75)"/><path d="M750.76,275.8c-.13-5.63,3.54-7.52,5.81-10.25a1.18,1.18,0,0,1,1.75-.13c.68.59.28,1.27-.1,1.73C756,269.79,753.73,272.37,750.76,275.8Z" transform="translate(-11.65 -17.75)"/><path d="M620,730.23a15.59,15.59,0,0,1,10.08-2.36c1.47.15,2.14.94,1.85,2.32s-1.56,1.31-2.34.76C626.62,728.87,623.3,733.28,620,730.23Z" transform="translate(-11.65 -17.75)"/><path d="M460.63,440.15c-1.94-.09-2.6-.89-2.49-2.27.16-2.21,1.75-2.53,3.53-2.52,1,0,2.39.09,2.18,1.32C463.53,438.56,461.86,439.49,460.63,440.15Z" transform="translate(-11.65 -17.75)"/><ellipse cx="0.72" cy="382.11" rx="0.43" ry="16.39"/><path d="M790.11,351.7c-3.27,3.54-6.42,5.22-7.75,8.48a1.09,1.09,0,0,1-1.59.67,1.45,1.45,0,0,1-.19-2.19A18.73,18.73,0,0,1,790.11,351.7Z" transform="translate(-11.65 -17.75)"/><path d="M331.42,673.53c-1.1-.41-2.48-.53-2.38-2.07a2.12,2.12,0,0,1,2.35-2,1.9,1.9,0,0,1,2.16,2.09A1.79,1.79,0,0,1,331.42,673.53Z" transform="translate(-11.65 -17.75)"/><path d="M151.52,348.39c-13.72,1.26-28.42-14-27.94-28,.39-11.61,1.79-22.67,10.45-31.71,4.82-5,16.16-9.35,22.74-7.1,5.13,1.75,10.43,3.39,15,6.11,2.19,1.3,3.44,4.86,4.26,7.64,1.8,6.17,4.66,12,4.88,18.68.5,15.59-7.48,28.8-22,33.77C156.66,348.55,154,348.21,151.52,348.39Zm-16.4-15c1-2.14,1.53-3.68,2.3-5.11,2.7-5,6.78-4.95,10.29-.36,2.22,2.91,2.32,5.55,1.09,8.78-.83,2.18-.78,4.92,2.64,4.09,7-1.7,13.59-4.08,17.54-11s4.11-13.79,3.31-21.34c-1.74-16.4-19.76-21.4-30.89-15.57-9.55,5-13.05,14.63-12.77,25.26A22.89,22.89,0,0,0,135.12,333.42Z" transform="translate(-11.65 -17.75)"/></g></g></svg>