<svg xmlns="http://www.w3.org/2000/svg" viewBox="0 0 888.2 787.26"><title>glock</title><g id="Layer_2" data-name="Layer 2"><g id="Layer_1-2" data-name="Layer 1"><path d="M1,656Q1,330.76.91,5.5C.9,1.75,1.73.71,5.51.9,12.32,1.25,19.17,1,26,1c4.24,4.36,10.25,6.39,14.36,11,.37.41,1.24.44,1.89.55C55,14.63,67.14,20.76,80.6,18.84c2.17-.31,2.78.83,2,2.68C81.1,25,79.28,28.38,78,31.94c-2.38,6.4-7.11,11.52-9.45,18-.81,2.23-2.45,4.63-.14,6.32,2.81,2,5-.27,6.46-2.48C78.1,48.78,81,43.58,84.25,38.62c.8-1.22.79-3.72,3.06-3.32s1.51,2.64,1.94,4.13C91.7,48,93.77,56.65,98.66,64.32c2.79,4.38,7.44,7.59,8.32,13.23.29,1.91,1.94,2.59,3.77,2.56a3.12,3.12,0,0,0,3.34-2.26c2.36-6.08,7.06-10.63,10.71-15.88,4.51-6.46,10.46-12.48,8.43-21.79A18.94,18.94,0,0,1,133.67,30c2.2.83,3.06,2.49,4.1,4,4.87,6.9,11.3,12.54,15.72,19.82,1.33,2.21,3.28,3.06,5.92,1.41s2.68-3.44,1.8-5.93c-1.52-4.34-4.58-7.56-7.5-10.95-4.29-5-8.4-10.13-12.54-15.25-.72-.89-1.52-2-.64-3.15.68-.88,1.71-.69,2.74-.34,8.78,3,17.37,2,26.24-.29C180.09,16.64,188.39,11.89,192,1H295a19.33,19.33,0,0,1-1.8,6.67C288.1,20.42,282.82,33.11,278,46c-7.49,19.87-16,39.35-23.64,59.14-4.75,12.23-10.49,24.3-15.79,36.4-12.32,28.14-23.1,56.93-34.87,85.31-5.07,12.23-7.39,25.46-14,37.11-2.08,3.68,1,5.54,3.61,7,2.3,1.29,5,1.79,7.36,3.05,11.4,6.2,23.76,10.17,35.67,15.15,2.21.93,4.07,1.55,5.45,3.71-7.73,1.81-15.19,4-22.67,5.9-13.46,3.46-27.25,5.76-40.38,10.43-16.58,5.91-29.69,15.85-36.32,33-3,7.73-4.65,15.78-6.49,23.88-2.79-.77-4.72-2.43-7-3.47-2.59-1.22-6.69-1.92-7.86,0-1.39,2.31,2.39,3.58,4.36,4.91.14.09.3.15.44.25,2.74,2,5.61,3.64,2.24,7.69-1.88,2.27-.3,3.79,2.35,3.58a17.43,17.43,0,0,0,4.1-1.35c1.15,4.32.63,7.22-4.93,6.49-1.73-.23-3.47.53-5.35.08a2.68,2.68,0,0,0-3.44,2.09c-.37,1.88.86,2.81,2.39,3.23,3,.82,6.06,1.93,9.13,2.06,2.5.11,2.67,1.09,2.58,3s.28,3.55-2.6,3.75c-8.27.56-16.31-.24-23.46-4.58A94.31,94.31,0,0,1,90.82,379C86,374,79.36,374.9,77.3,381.32c-1.56,4.85-3.81,3.92-6.87,2.58-11-4.79-20.9-11-29.18-19.91-5.52-5.94-9.81-12.37-11.87-20.19-1.15-4.32-.28-8,4.32-10.36,1,2.58-.4,4.56-.77,6.58a15.8,15.8,0,0,0,1.62,10.34C39.88,361.16,50.4,366,59.4,372.62c2.45,1.79,5,4,8.59,3.3,1-.21,2.47.84,3.06-.76s-.49-2.66-1.56-3.37c-3.18-2.08-6.06-4.53-9.39-6.47-9.47-5.52-17.35-12.68-21.22-23.44-.86-2.38-1.05-4.48.4-6.58.66-1,1.55-2.13,2.77-1.71,1.71.58,1.21,2.41.73,3.38-3.21,6.61.73,10.68,5,14.66,1.33,1.26,3,2.68,4.62.54s.1-3-1.45-4.38c-3.36-3-5.19-6.85-4.23-11.56.28-1.39.88-2.79,2.5-2.53s1,1.63.88,2.82c-.21,2-.58,4,.51,5.87.65,1.09,1.26,2.75,2.81,2.27a2.49,2.49,0,0,0,1.23-3c-1.34-4,1.05-5.66,4.09-6.55,3.57-1.05,10.41,1.78,11,4.68.76,3.51,2.21,3.7,4.74,1.89,1.32-.94,2.87-1.62,4-.31s-.42,2.54-1.15,3.4c-3.16,3.7-2.69,7.26.12,10.74,1.78,2.2,14,4.33,16.64,3.1a3.34,3.34,0,0,0,2.19-3.07c0-1.78-1.51-1.35-2.57-1.53-4.29-.75-7.36-2.84-8.64-7.58,4.36,2.54,8,5.58,13,5,2.26-.28,4.54-.93,4.54-3.64,0-2.43-2.52-2.25-4.13-2.72-5-1.46-8.62-4.25-10.3-9.52,2.11-.33,2.73,1.1,3.48,2,1.87,2.34,4.31,3.11,7.14,3.78,3.16.75,3.82-1.25,4.7-3.13,1.25-2.68-1.39-2.47-2.64-3-3-1.37-6.25-2.27-7.89-5.55-.64-1.29-2.15-2.67-.71-4s2.19.74,3.24,1.31c1.52.85,3.17,1.56,4.57.09s.63-3.18-.28-4.58a32.07,32.07,0,0,0-3.65-4.65c-2.06-2.15-1.51-3.22,1.25-3.09s2.93-1.89,2.38-3.24c-2.38-5.83.68-10.62,2.52-15.66.76-2.11,1.62-3.41,4.45-3.6,3.79-.27,4.46-3,1.71-5.79-1.15-1.14-1.78-2.38-.58-3.37,2.13-1.76,1.07-6.08,4.56-6.28,6.65-.39,14.28-9,14.13-16.6-2.5,2.39-5.08,4.65-7.38,7.15-.81.88-.75,2.94-2.53,2.35-1.62-.53-.74-2.3-.85-3.51a5.58,5.58,0,0,1,.49-2.42c3.64-9.19,5.78-18.89,10.07-27.89,2.68-5.62,5.84-11.26,5.24-18a4.72,4.72,0,0,1,2.92-4.38c2.18-1,3-2.7,3.88-4.79a105.92,105.92,0,0,0,5.73-15.85,27.68,27.68,0,0,1,3.16-7.26c2.13-3.64,6.37-2.92,9.48-3.08,2.45-.13.51,3,.45,4.76a2.37,2.37,0,0,0,1.26,2.51c.88.35,1.46-.39,2.1-1,2.33-2,3.51-4.82,4.82-7.51s3.15-3.62,6.09-2.54c3.46,1.27,2.16,3.6,1.37,5.68-2.42,6.37-4.81,12.75-8.85,18.35-1.3,1.8-1.85,4.7,1.11,4,3.77-.86,2.49.55,2.29,2.51a12,12,0,0,1-2.44,5.88c-6.85,9.44-11.26,20-15.48,30.82-1.54,4-2,10.6-9,10.76-1.7,0-2.24,1.41-2.38,2.72s.86,2.12,2.16,2.27c2.07.24,1.55,1.44,1.39,2.88-.39,3.54-2.8,3.65-5.44,3.55a3.69,3.69,0,0,0-3.88,2.57c-.65,2.09,1.06,2.86,2.79,3.33.66.18,1.24.49,1.13,1.4a15.43,15.43,0,0,1-6.66,1.35,2.86,2.86,0,0,0-3,2.76c-.28,1.94,1,2.43,2.58,2.93,1.29.4,3-.13,4,1.13-1.54,3.49-4.2,4.48-7.43,3.62s-6.08-.17-6.64,3.09c-.63,3.67,3,3,5.25,3.65,1.26.36,3.5-.77,3.4,1.64-.09,2.23-1.55,3.48-4,3.4-2.11-.06-4.15-.81-6.35-.1-2,.64-3.26,1.49-3.45,3.65-.24,2.71,2.08,2.62,3.64,3.2a12.06,12.06,0,0,0,3,.15c.89.08,2.31-.32,2.16,1.22-.13,1.29-1.55,1.29-2.4,1.14-1.79-.3-3.5-1-5.26-1.43a3.37,3.37,0,0,0-3.62,1c-1.26,1.48.14,2.29.73,3.43,1.59,3,4.37,3.72,7.52,3.92a9,9,0,0,1-.54,1.68,34.64,34.64,0,0,1-3.37,5.49c-1,1.19-2.07,4.09-4.49,1.18-.71-.85-1.42.11-2.05.62-2.87,2.32-2.84,6,.75,7.65s2.51,2.93,1.33,5.52c-3.48,7.69-6.13,15.75-10.12,23.25-.76,1.43-2.46,5.36,2.44,4,2.35-.65,2.19,1.13,2.31,2.17.47,4.16,3.21,6.26,6.55,8.05,1.23.66,2.42,1.61,3.49.3a2.68,2.68,0,0,0-.3-3.67c-2.89-2.4-2.8-6.36-5-9-1.36-1.65-.44-2.85.48-4s2-.31,3,.43c1.75,1.39,4.15,1.89,5.39.19,1.62-2.22-.48-4.09-2.25-5.29s-2.69-2.58-2-4.94c3.92-13.91,9.19-27.35,14.33-40.81,5.24-13.74,11.79-27,16.77-40.81,5.12-14.2,9.85-28.4,19.17-40.63A42.83,42.83,0,0,0,172,213.85c3.26-10.18,1.48-21.3,6.65-31.31,2.3-4.46-1.42-9.75-5.13-9.06-4.82.88-10.26-2.95-14.51,1.89a2.87,2.87,0,0,1-1.85.55c-8.94.56-14.78,5.68-17.85,13.52-3.33,8.48-6.76,16.71-12.39,24-2.82,3.67-2,9-3.88,13.17-5.74,12.8-8.7,26.58-15.39,39.15-6.54,12.29-9.46,26.28-13.8,39.58-2.82,8.66-6.54,17-10,25.49-.71,1.78-1.44,4-4.29,2.6-14.52-7.2-30.18-7-45.75-6.57-12.26.37-15.68,6.05-11,17.44C27,354.42,33.48,363,41.06,370.76c2,2,2.63,3.33-.1,5.51-4.87,3.88-7.27,9.72-8.55,15.41C27.83,412,35,428.83,49.45,443c2.24,2.2,2,3.45.12,5.24-6.63,6.31-8,13.74-4.9,22.22a20.09,20.09,0,0,1,.11,14.37c-2.89,8.28-1.62,16.32,5.62,22.46,2.17,1.84,3.7,3.73,1.62,6.69-1.14,1.64.2,2.46,1.57,2.83s3.75,1.79,3.86.67c.57-5.68,3.29-1.34,4.25-.82,8,4.39,15.14,10.47,24.15,13.22a63.93,63.93,0,0,1,13,5.22c8.82,5,16.74,2.88,24.54-2.1,5.56-3.54,6.28-9,1.59-13.72a90.88,90.88,0,0,0-9.42-8.09c-2.05-1.57-2.79-2.11-.41-4.55,6.75-6.91,6.51-13.29-2.87-18.6-6.52-3.69-14-5.28-20.17-9.6S86,474,91.37,469.21c1.79-1.61,2.9-5.52,6.51-2.07.84.8,1.73-.56,2.33-1.27a2.44,2.44,0,0,0,0-3.22c-.89-1.21-1.91-2.31-2.83-3.49-1.7-2.16-2.18-3.94.92-5.52s5-4.27,6.72-7.14c3.46-5.58,3.69-5.68,8-.33,3,3.81,5.56,8,8.28,12-1.07.92-1.48.13-2-.1-1.62-.71-3.68-2.44-4.88-.56-1,1.52.78,3.55,2.25,4.58,3.8,2.63,7.7,5.13,11.72,7.41,1.08.61,2.62,1.92,4,.6s.77-2.8.39-4.23a11.1,11.1,0,0,0-2.41-4.29,49.76,49.76,0,0,1-6.82-11c-3.92-8.2-7-16.95-12.94-23.95-6.74-7.94-13.87-15.56-21.16-23-5.2-5.32-7.25-11.69-7.84-18.78-.14-1.62-.24-3.65,1.47-4.44,1.5-.69,2,1.32,3,2.05a66.08,66.08,0,0,1,5.42,4.31c8.68,7.7,18,14.56,28.8,18.84,11.49,4.54,18.5,14,18.52,25.94,0,1.78-3,3.24-1.32,4.79,4.42,4.08,3.15,9.18,3.27,14.09.05,2.34,0,5.12,2.47,6.12,10.42,4.14,16,14.42,25.37,19.83a5.71,5.71,0,0,1,2.48,2.35c3,7.14,8.12,13.3,9,21.35a65.61,65.61,0,0,0,2.58,12.14c3.14,10,5.13,20,3.35,30.49a2.72,2.72,0,0,0,.62,2.75c3.09,2.73,2.38,5.47,0,8.16-.93,1.05-.73,4.2-3.53,2-3,6.58-2.37,13.6-1.35,20.28.57,3.77,4.5,6.67,6.28,10.5,1.11,2.4,5.21,3.38,7.55,2.15,2.7-1.42-.67-3.52-.9-5.37-.48-4-3.28-6.9-4.73-10.74,5.51.25,7.69,3.63,8.87,7.75a22.27,22.27,0,0,0,2.95,6.25c6.54,9.93,12.93,19.83,21.86,28.08,8.14,7.54,15.89,15.62,25.31,21.4,14.27,8.75,28,18.25,42,27.48,2.42,1.6,4.83,3.79,8.34,3.77-.63-3.73-3.41-6.25-3.55-9.76-4.42,1.66-4.42,1.66-8.88-4.62.25-.19.49-.5.77-.54,6.48-.88,11.19,6.47,18.18,3.93.8-.29,1.66,1.89,1.77,3.25.08,1-.7,1.36-1.62,1.44-1.94.17-4.91-1-4.29,2.81.33,2,.61,4.88,2,5.84,6.26,4.39,13.47,7.48,21,7.93,12.36.74,24.81,1.9,37.2-.68,3.32-.69,4.23-1.24,3.55-5.05-.65-3.66-4.92-6.16-3.22-10.45,8.92,3.62,8.94,2,9.18-4.16a27.45,27.45,0,0,1-3.44.58c-1.74.09-2.68-1.08-3.36-2.51-.28-.6-.65-1.36,0-1.78,1.26-.8,2.67-.29,3.82.25,4.06,1.9,8,3.48,12.75,3.29a5.57,5.57,0,0,1,5.25,4,5.07,5.07,0,0,1-2.15,6.13c-2.35,1.43-4.47,3.52-7.4,3.81-1.83.18-3.58.73-3.11,2.82.4,1.74,2,2.33,4,2A124,124,0,0,0,421.05,659a165,165,0,0,0,39-33.65c17.67-21,28.33-44.85,30.77-72.32,1.68-19,4.68-37.78,6.06-56.78.9-12.35,2-24.69,3.06-37,.4-4.78.74-9.58,1.21-14.36,1.35-13.51,2.47-27.3-.27-40.46-5.35-25.74-16.83-48.54-35.94-67.45-18.23-18.06-39.58-30.49-63.54-38.72a200.19,200.19,0,0,0-38-9.36,30.09,30.09,0,0,1-7.88-2.4c9,.28,17.49,2.46,26.15,4.25a189.37,189.37,0,0,1,43.47,15,154.62,154.62,0,0,1,54.39,43.46c11.68,14.54,18.7,31.66,23.14,50.06a99.36,99.36,0,0,1,2.51,34.71c-2.64,22.66-3.12,45.49-6.65,68.11-2,12.74-2.4,25.93-3.74,38.88s-1.82,26-5.76,38.66c-5,16.1-13.59,30.14-23.6,43.28-6.6,8.66-13.9,16.89-22.57,23.77-13.05,10.35-26.86,19.34-42.3,25.69-6.58,2.7-13.24,5.21-19.8,8-3.19,1.34-6.36,8-5.11,11.29,1.64,4.29-1.22,8.42.56,12.62a28.18,28.18,0,0,1-3.24-2.75c-.72-.58-1.84-1.35-2.63-.33s.16,1.77,1,2.31c2.15,1.35,2.18,4.13,4.29,5.79,2.42,1.9,5.83,5,3.35,8.28-2.79,3.73-5.68-.42-8.18-1.67-6.82-3.44-14.5-6.17-15.69-15.46-.14-1.13-2.09-2.26-.27-3.32a3.19,3.19,0,0,1,4.05,1,33.2,33.2,0,0,1,3.18,4.44,30.2,30.2,0,0,0,9.7,9.9c.2-4.4-2.74-6.36-4.28-9-.83-1.39-2.22-3.25.09-4.15,6.94-2.69,1.59-4.1-.64-5-3.18-1.25-6.47-4.47-6.45-6.16.11-7.56-5-6.38-9.17-6.24-12.58.4-25.07.18-37.39-2.79a86.74,86.74,0,0,1-28.56-13.17c-3.91-2.68-7.09-6.43-10.95-9.19-8.91-6.37-17.79-12.78-27.33-18.26-8.36-4.81-15-12-22.45-18a85.47,85.47,0,0,1-14.4-14.17c-4.84-6.29-10.63-8.6-17.66-6.21a2.62,2.62,0,0,0-1.78,2.16c3.53.25,1.31,4.66,4.07,5.6A7.49,7.49,0,0,1,198.2,610c2.81,3.46,8.32,5,7.25,11.39-.28,1.69-.63,6,1.73,6.73,4.95,1.53,4.61,6.55,7.44,9.34,1.51,1.49.55,2.93-1.05,3.49-4.24,1.49-2.3,3.2-.47,5.24a77.37,77.37,0,0,1,11.16,15.91c1.29,2.48-.3,5.16,1.93,7.11,2.6,2.27,3.1,5.81,4.41,8.78,3.46,7.81,8.65,13.35,17.23,15.21,2.75.6,5.52,1.15,8.24,1.87,15.3,4.09,30.88,6.69,47.07,9.09-2.24-3.95-5.29-4.37-8.72-4.2-4.89.24-8.47-2.39-11.83-5.63a56.59,56.59,0,0,1,11.86,0c2.64.28,5.66,2,7.61,1.86,3.71-.36,4.82-.87,5.66,2.49,1.29,5.19,3,5.85,7.5,2.85,4.1-2.75,9.12-1.78,10,2.72,1,5.25,4.4,6.26,8.41,6.59,11.49.93,22.78,3.1,33.38,7.43,18.34,7.48,37.4,10.7,57,11.7,11.65.59,23.22-1.53,34.86-1,6,.29,11.91.81,17.86.9,9.67.15,19.34-.07,29,.09A47.26,47.26,0,0,0,517,728.4a3.39,3.39,0,0,0,3.06-3.17c1.41-7,1.73-14.15,2.4-21.26,1.29-13.66,3.18-27.27,4.8-40.9,1.58-13.31,3.38-26.6,4.63-39.93,1-10.23,3.24-20.3,3.81-30.51.83-14.75,4.26-29.18,4.81-43.93.48-13.12,3.33-26,3.58-39.15.17-8.94,1.84-17.76,2.08-26.75.16-6.07.28-12.35,1.36-18.32,2.3-12.76,2.18-25.69,3.81-38.5s1.52-26,.93-39c-.36-7.8-.58-15.57-2.24-23.26-2.21-10.22-5.81-19.54-13.18-27.37-9.64-10.24-22.45-13.78-35.16-17.1-18.6-4.86-36.67-11.37-55.15-16.58-14.79-4.17-29.31-9.28-44-13.68-7.49-2.24-9.23-4.31-9.47-12.23-.2-6.37,1-12.47,2-18.7,1.82-11.66,8-20.91,14.77-30,1.06-1.43,2.45-2.69,4.69-1.71,5.48,2.4,7.84,1.37,9.78-4.28a125.73,125.73,0,0,0,4.26-13.68c1.35-6.13,4.69-11.75,4.58-18.26s-2.11-8.56-8.39-8.32c-3.13.12-4-.14-3.21-3.76,2.17-10.37,3.32-20.89-.29-31.25-2.86-8.2-3.86-15.63.42-24.41,7.09-14.5,12.2-30,17.92-45.14,2.14-5.65,5.89-10.49,8.21-15.78C456.49,41.61,464,21.21,472,1H705c-2.63,3.45-1.66,5.63,2.42,6.56a4.87,4.87,0,0,1,3.93,3.4c2.47,9,10.41,12.9,17.67,15.2,9.07,2.88,19,4.72,28.78,1.16,1.22-.44,2.72-1,3.6.39.71,1.14-.25,2.21-1,3.11-5,6.1-10,12.26-15.22,18.23A20.86,20.86,0,0,0,741,56.33c-.72,2.21-1.18,4.54,1.75,6,2.54,1.23,4.41,1,6-1.46a129.6,129.6,0,0,1,14.85-18.34c1.46-1.56,1.86-5.34,4.53-4.24,2,.85.8,4.2.84,6.42.08,3.9-2.18,7.92.12,11.69,3.11,5.07,6,10.27,9.75,15,3.34,4.16,7.49,8,8.9,13.48a3.17,3.17,0,0,0,3.16,2.7c1.88,0,3.64-.73,3.87-2.46.77-5.52,5.39-8.62,7.84-13.06,1.08-2,2.95-3.54,3.68-5.8C808.53,59.15,810.8,52.1,813,45c.28-.91,0-2.24,1.16-2.5,1.37-.28,1.91.95,2.52,1.95,3.33,5.44,6.64,10.9,10.07,16.28,1.34,2.11,3.1,4.67,5.89,3s1.25-4.3.31-6.65c-3.74-9.33-10.17-17.34-13.08-27.1-.88-3-1.07-3.81,2.55-3.4,6.79.76,13.58.67,19.78-3.07,1.72-1,3.8-1,5.83-1a29.13,29.13,0,0,0,13.78-3.55c3.84-2.25,6.53-6.36,11.19-7.83a4,4,0,0,0,2.75-4.33c-.23-2.2-2-2.32-3.58-2.79A5.27,5.27,0,0,1,869,1c6,0,12,.09,18-.05,1.74,0,2.34.31,2,2.05a14.89,14.89,0,0,0,0,2.5q0,389,.09,778c0,3.75-.81,4.93-4.6,4.59-4.13-.38-8.32-.09-12.49-.09-5.76-8.44-13.64-13.5-23.11-17.61-9.29-4-17.68-4.62-26.76-1.17-1.42.54-2.81,1.43-4.06,0s-.24-2.84.44-4.13c5-9.42,10.89-18.33,15.07-28.21,2.46-5.81,2.9-10-.07-10.59-5.27-1.08-6.55,3.57-8.38,6.88-2.81,5-5.14,10.37-7.86,15.48-.76,1.42-1.4,3.54-4.12,2.88.44-3.56-1.47-6.64-2.13-10a42.35,42.35,0,0,0-4.55-12.46c-3.5-6.36-9.57-11.45-9.93-19.57-.11-2.5-4-5.09-5.32-3-3,4.85-8.32,7-11.32,11.63-2.38,3.7-2.66,7.81-3.65,11.77-2,8.09-6,15.82-5,24.55a2.12,2.12,0,0,1-1.34,2.42c-.42.13-1.55-.48-1.56-.77-.2-7.13-10.34-8.08-9.79-15.79.07-1.09-1.77-2.27-3.29-2.76s-3-1-4-2.7c-1.34-2.34-3.8-4.25-6.11-2.46s-1.51,4.53.21,7.05c5,7.35,9.81,14.85,15.78,21.5.83.93,1.39,1.95.53,3.11s-1.75.37-2.69.11c-8.19-2.31-16.1-.91-23.7,2.28-8.05,3.39-15.89,7.51-21.43,14.39C711.32,784,706,783.28,705,788H104a57.21,57.21,0,0,0,3.66-6.39c1.42-3.37,2.94-5.93,7-7.25,3.57-1.17,5.68-4.52,3.54-8.88a25,25,0,0,1-1.63-5.2c-1.28-5.47-2.12-11.32,1.88-15.72,6.19-6.81,11.08-13.73,14-22.89,2.94-9.35,4.9-18.13,3.73-27.93-.54-4.54-3.51-8.68-2.86-12.91,2-13.13-7.23-22.2-11.36-33a28.73,28.73,0,0,0-11.11-14.16,9.89,9.89,0,0,1-3.94-4.43c-3.3-7.83-10.56-9.17-17.6-10.06-18-2.29-35.18,3.07-52.5,6.3S10,642.38,1,656Zm642.8-44.59a30.38,30.38,0,0,0-6.79-9.79c-4.93-4.66-9.86-9.3-14.56-14.23-11.09-11.64-14.34-25.71-14.59-41-.06-3.22,1.27-4.8,4.81-4.66,5.49.23,11,.12,16.49-.05,1.58,0,3.75-.62,3.62-2.59s-2.26-2.19-3.94-2.22c-4.79-.08-9.59,0-14.39-.08-5.68,0-6.42-1.52-4.53-7.08,4.16-12.23,10.5-23.35,17.63-33.94,4.2-6.23,9.06-12.09,15.42-16.64,8.91-6.37,18.74-10.63,29-14,9.58-3.19,19.37-5.66,29.59-6.15,3.28-.16,3.92.45,3.57,3.76A75.15,75.15,0,0,1,703.43,473c-.58,2.36-.44,5,1.79,5.54,2.61.66,3.23-2.18,3.77-4.25a45,45,0,0,0,.94-4.87c1.47-10,1.49-10.27,11.29-9.32,6.59.64,13.51,1.57,19,5.31,13.28,9,23,21.3,30,35.79,3.89,8,3.07,16.9,5.43,25.18,2.76,9.73,2.09,10.34-8.15,10.43a12.19,12.19,0,0,1-2.49,0c-3-.59-5.57,4-8.14,1.38-2.1-2.11-2.87-5.53-4.22-8.38-.21-.44-.29-.95-.5-1.39-4.18-9.11-4.19-9.2,4.3-14.41,1.58-1,2.84-2.28,2.36-3.94-1.36-4.61-.37-9.26-.71-13.88-.21-2.78-5.16-7-7.11-5.68-2.7,1.81-5.44,1.21-8.17,1.27-9,.18-17.94-.51-26.9-.69-21.16-.43-42.32-.09-63.48-.17-3.8,0-7.57.3-11.41-.54-4.22-.94-8.39,3.74-8,8.23s1.29,9.17,1,13.84c-.17,2.92,1.23,4.81,4.3,5,3.81.3,7.62.65,11.43.71,7.33.12,14.66,0,22,.12,4.5.1,6.64,2.88,6.13,7.15-.46,4-3.9,8.71-1.29,11.6,2.8,3.1,8.24,1.11,12.5,1.07,6.45-.06,13.07,0,19.31-1.34,6.77-1.49,8.65-1.42,10.87,5.4,3,9.32,8.27,18.15,5.84,28.74-.81,3.52,1.56,5.73,5.5,4.79a85.28,85.28,0,0,1,12.75-1.81c2.69-.22,6.44.32,8-2,3.5-5.38,8.57-10.07,7-17.9-.76-3.8-2.3-9.84.28-11.77,2.74-2,8.21-.25,12.47-.45s5.23,1.46,3.87,5.4c-3.11,9-8.35,17-12.54,25.43-6.27,12.68-16.74,21.7-27.62,30.24-10.28,8.06-21.18,14.74-34.52,16.77-4,.61-4.74-.41-4.49-3.83.3-4.15.57-8.29.7-12.44.06-1.63,0-3.85-2.07-4-2.26-.13-2.12,2-2.2,3.72-.22,4.75-.58,9.5-.7,14.25-.07,2.7-1,3.7-3.9,3.7-11.81,0-23.34-1.26-34.09-6.65a5.36,5.36,0,0,0-2.44-.3c-.75,0-1.81-.38-2.14.62a1.85,1.85,0,0,0,1,2.09c2.38,1.45,4.84,2.7,7.36,3.92,13.51,6.55,27.59,7.37,42.08,4.9,15.5-2.64,28.7-10,40.35-20.24,10.22-9,20.45-17.93,27.39-29.94,4.75-8.21,8.09-17,11.64-25.75s6.39-17.94,1.54-27.43c-.69-1.35-.25-3.27-.37-4.92a58.48,58.48,0,0,0-4.71-19.09c-4.58-10.77-11.63-19.76-19.79-27.79-4.88-4.8-10.2-9.92-16.73-12.22-23.82-8.39-47.59-7.36-70.88,2.35-7.78,3.25-16,5.58-23,10.68a115.44,115.44,0,0,0-32,36.18c-11.09,19.38-14.93,39.46-8.05,61.37C611.23,589.31,626.67,601,643.8,611.41Zm8.77,43.94c-3.45-4.56-6.54-7.16-10.49-8.84-5.65-2.39-11.25-4.85-16.79-7.51-21.38-10.25-38.71-24.6-50.34-45.71a73.4,73.4,0,0,1-9.19-32c-.82-15,1.47-29.34,6-43.68,5.86-18.73,14.66-35.43,28.63-49.36,9.95-9.92,21.37-17.88,33.13-25.39,11-7,23.07-11.29,35.59-14.64a191.21,191.21,0,0,1,25.84-4.75c11.09-1.39,22.39-2.1,33.22.47,33.07,7.81,60.42,24,77,55.13,9.39,17.64,10,36.64,9.3,55.89-.2,5.51-2.54,10.54-4.51,15.64-4.1,10.64-7,21.76-12.59,31.81-6.19,11.12-14.43,20.77-23.43,29.49-7.43,7.2-16.2,13.06-24.59,19.26-18.38,13.61-37.72,24.65-61,26.86-2.6.25-5.08,1.64-7.83.67-5.19-1.83-11-.24-16.12-2.59-1-.45-2.91-.64-3.22,1.24-.24,1.43,1.17,2,2.23,2.29,6.27,1.46,12.49,3.31,19,3.6,15.4.67,29.51-3.63,42.8-11.14,10.56-6,20.36-13.09,30.47-19.74A153.65,153.65,0,0,0,796.26,594c9.56-13.22,14.54-28.57,19.34-43.94,2-6.31,5.58-12.63,5.53-18.91-.08-10,.14-20.19-2.08-30.17-4-18.23-11.83-34.51-24.92-47.87-10-10.25-22.1-17.89-34.69-24.75-25.05-13.66-51.76-12.71-78.61-8.71-24.59,3.67-46,15.3-66.17,29.17C598.83,459.65,585.16,473,577,490.33c-10.66,22.7-18.84,46.29-17.22,72.2A74.91,74.91,0,0,0,565,586.66a100.43,100.43,0,0,0,41.5,48.65C620.61,643.91,635.78,649.88,652.57,655.35Zm116.87-479c-2-1.23-3.52.23-5.1.94-4.82,2.18-8.45-1.77-12.72-2.32-3.87-.49-6.4-1.81-5.32-6.34.23-1,.52-2.13-.72-2.55a2.73,2.73,0,0,0-3.22.56,11,11,0,0,0-1.83,2.35c-1.55,3.5-4.17,4.2-7.32,2.63-2.34-1.16-3.55,0-5.21,1.31-4.86,3.95-9.3,4.28-13.44,1.15-1.67-1.26-3.73-2.81-5.11-.79-1.26,1.83,1.28,3.11,2.65,4.11,2.86,2.11,3.1,5,.52,6.57-4.89,3-.09,9.48-5,12.21-.53.29.66,1.63,1.53,2.19s2.69,1.38,2.66,2c-.23,4.64,3.37,6.65,5.7,9.75,4.34,5.77,9.44,9.19,16.62,10.16,5.8.77,7.26,3.76,4.76,9.16-1.2,2.58-.3,5.26-1.25,7.77-.12.31.59,1.1,1.08,1.44.31.22,1.1.15,1.08-.53-.13-4.14,4-6.65,4.15-10.5.14-3.61,2.47-5,5.08-4.84,4.27.35,7.68-1.45,11.25-3,2-.87,3.77-1.18,5.7-.14,1.45.78,3,2,4.57.65s.67-3.23,0-4.63c-2.1-4.24,2.76-7.42,1.5-11.79-.59-2,3.62-.53,4.74-2.74-1.16-2.16-4.77-2-5.13-4.9-.44-3.7-2.73-6.52-5.13-8.91-3.75-3.74-2.41-6.27,1-8.88C768.25,177.89,769.38,177.64,769.44,176.38ZM182.67,104.24a5.47,5.47,0,0,0-5.43,2.61,31.31,31.31,0,0,0-5.85,14c-.83,6.6-2.3,13.29-6.81,18.4-5.91,6.7-8.69,13.62-5.8,22.62,2.17,6.75,7.33,10.08,13.44,7,7.89-4,16.73-13.69,15.27-25.11-.61-4.74.95-8.71,4.25-12.21,9.45-10,10.57-31,4.18-42-1-1.73-1.71-4.59-4.57-3.4-2.42,1-1.2,3.4-1.13,5.3.25,7.08-1.56,13.29-7.37,18C181.45,107.59,183.14,106.06,182.67,104.24ZM809.05,276.78c-5.59-8.25-8.33-16.26-12.09-23.74-.93-1.83-1.24-4.29-3.91-4.7a76.82,76.82,0,0,0-14.92-.76,3.08,3.08,0,0,0-2.82,1.76c-.66,1.4.53,2.16,1.36,2.88a16,16,0,0,1,4.34,5.22c6.22,13.33,12.68,26.55,18.67,40,1.92,4.33,4.52,6.66,9.08,5.65s2.52-5.28,3.52-8.11c2.36-6.69-5.61-13.61.58-20.15.23-.25-.51-1.24-.48-1.86.37-6.24-2.38-13.07,3.86-18.17,2-1.63.77-3.4-1.23-4.2-3-1.21-6.28-.77-9.35-.35-1.88.26-1.94,1.95-.75,3.46C810.09,260.26,808.79,267.9,809.05,276.78ZM470,169.17c0-16.69,0-16.69-13.24-16.68-1.83,0-3.66-.07-5.49,0-2.62.12-3.43,1.43-1.64,3.46s2.11,4.52,1.88,7c-.94,9.76-.28,19.57-.9,29.33-.21,3.37,1.45,7.29-2,10.25-3.29,2.81-1.22,4.55,1.75,4.81,6.43.57,12.91.62,19.37.85a2.52,2.52,0,0,0,2.79-1.61,2.27,2.27,0,0,0-1.12-2.56c-3.22-2-3-5.49-2.91-8.41C468.78,185.57,469.57,175.52,470,169.17Zm44.88-2.95c-.25-2.36-.58-5.13-.83-7.91-.14-1.63-1-2.24-2.57-2.4-4.76-.48-9.5-1.1-14.25-1.6a3.83,3.83,0,0,0-3.46,1.64c-1.08,1.41-.21,2.44.9,3.36,1.92,1.58,1.84,3.77,1.83,5.95,0,7.65.66,15.38-.2,22.94-.68,6,1.78,12.62-3.42,18-1.69,1.74.82,2.91,2.26,3.41,6.34,2.18,13.09,1,19.59,2.11a2.75,2.75,0,0,0,3.2-1.8c.41-1.3-.23-2.21-1.35-2.88-2.54-1.51-2.64-4-2.56-6.54C514.34,189.2,513.28,177.89,514.84,166.22Zm30.94,86.65c0-3.16.05-6.32,0-9.48,0-2.42-1-4.13-3.74-4.33-3.63-.27-7.25-.65-10.89-.8-5.52-.22-5.62.06-3.54,5.13a12.59,12.59,0,0,1,.45,3.92c.58,10-.4,19.9-1.06,29.8-.26,3.76,1.39,8.5-2.78,11.56-1,.75-2.3,1.67-1.6,3.26a3.54,3.54,0,0,0,3.26,2,112.86,112.86,0,0,1,16.69,1.93,4.06,4.06,0,0,0,4.28-2c.91-1.66-.25-2.85-1.56-3.7-2-1.29-2-3.06-1.89-5.19C544,274.26,546,263.64,545.78,252.87ZM614,176.3c0-3.54,0-6.2,0-8.86,0-2.37-1-3.85-3.36-4.17a77.89,77.89,0,0,0-14.4-.78c-2.88.15-4.51,1.41-2,3.92,2.19,2.2,2.36,4.63,2.23,7.31-.5,10.61-1.08,21.21-1.5,31.82-.11,2.68-.07,5.07-2.38,7.2-2.12,1.95-1.36,4.27,1.57,4.61,4.93.57,9.92.68,14.89.83,2.21.06,3.1-1.23,3.19-3.51C612.78,201.59,613.44,188.51,614,176.3Zm-2.33,121.9c2,0,4-.09,6,0,2.53.14,3.67-1,3.79-3.47Q622.73,271,624,247.14c.12-2.28-.41-3.64-3.15-4a91.32,91.32,0,0,0-14.4-.66c-3.53.11-4.68,1.67-2.27,4.68,1.06,1.32,2.26,2.6,2.18,4.34-.46,10.92-.95,21.84-1.6,32.75a28.7,28.7,0,0,1-1.59,7.67c-.55,1.54-3.24,2.42-1.93,4.56,1.17,1.92,3.4,1.78,5.43,1.72C608.36,298.18,610,298.21,611.69,298.2Zm56.38-44.63c0-1-.08-2,0-3,.43-4.82-1.36-7.2-6.55-6.58-2.78.33-5.65,0-8.47.09-1.56.07-3.61-.84-4.57.9-1,1.9.06,3.35,1.71,4.61.58.44.52,1.84.57,2.81a193,193,0,0,1-1.12,30.32c-.46,4,.75,8.67-3.15,12.13-1.67,1.48.48,2.9,1.82,3,6.44.47,12.86,1.74,19.33,1.1,2.33-.23,4-1.92,1.62-4-2.81-2.45-3.08-5.44-2.7-8.59C667.88,275.46,666.37,264.44,668.07,253.57Zm85.65-6.8c-1.19,0-1.86,0-2.52,0-5.64.09-5.71.16-2.93,5.23.87,1.59.65,3.22.73,4.86.57,11.47-2,22.77-1.78,34.22a5.17,5.17,0,0,1-1.86,3.91c-2.31,2.33-1.1,4.2,1.29,4.9a54,54,0,0,0,16.7,1.68c2.51-.07,4.47-1.89,1.78-4.67-1.63-1.68-1.78-3.7-1.7-5.89.36-10.59,2.73-21,2.31-31.67a9.38,9.38,0,0,1,2.24-6.91c.81-.91,2.58-1.37,1.49-3.1a3.88,3.88,0,0,0-3.38-1.78C761.79,247.32,757.5,247,753.72,246.77Zm86.87-49.41c-2.37-4.58-6.19-8.66-5.28-12.69,1.49-6.61-2.43-6.48-6.32-7.07a60.21,60.21,0,0,0-8.9-.69c-2.43,0-4.44.58-2.54,3.89,5,8.65,8,18.18,11.37,27.5,1.78,4.95,2.57,10.54-.85,15.61a2.37,2.37,0,0,0,1.69,3.82c5.61.39,11,2.62,16.66,2.2,2.55-.19,3.36-1.74,1.58-3.64s-3.06-4.2-2.94-6.64c.37-7.59-3.5-15.2,1.08-22.87,2-3.33,1.39-8,4.38-11.36,1.58-1.77,1-3.8-1.47-4.7-1.56-.57-3.18-1-4.78-1.39a3.09,3.09,0,0,0-3.54,1.16c-1,1.37-.33,2.59.47,3.65C844.53,188.52,843.34,192.58,840.59,197.36Zm-285.32-38.3c-.83,0-1.67,0-2.5,0-1.59.07-3.56-.54-4.36,1.46-.72,1.77.76,2.73,2,3.58s1.14,2.32,1.11,3.6c-.22,9.12.23,18.34-1,27.32-.71,5.14,1.51,11-2.92,15.66-1.23,1.3.05,3.25,2.22,3.32,4.63.16,9.15,1.4,13.84,1.06,2.49-.18,3.59-.94,3.65-3.52.17-7.45.46-14.9.8-22.35.32-6.94-.41-13.88.6-20.86s.33-7.09-6.5-8.65A34.39,34.39,0,0,0,555.27,159.06ZM689.08,326a48.64,48.64,0,0,0-5,0c-4.09.43-4.82,2-2.31,5.16,1.31,1.64,1.18,3.22,1,5.11-.62,6.58-1.61,13.12-2.21,19.71s.46,13.89-4.79,19.6c-1.64,1.78.15,2.93,1.91,3.44,4.71,1.35,9.53,1,14.33,1,2.12,0,2.53-1.28,3-3.16,1.82-7.93,1.5-16.1,3-24.07a112.82,112.82,0,0,0,1.88-16.17C700.27,326,700.09,326,689.08,326ZM676.54,183.88c0-3.67-.14-7.34,0-11,.19-3.93-.75-6.09-5.37-6.46-3.65-.29-7.29-.34-10.93-.46-3.39-.11-4.6,1.58-2.27,4.16,1.82,2,2,4.05,1.93,6.39-.29,11.12-1.44,22.21-.94,33.35a5.11,5.11,0,0,1-1.9,4.37c-3.42,3-1.2,4.2,1.72,4.77,4,.79,8.15,1.36,12.25,1.87,2.25.27,3.62-.43,3.94-3.19C676.31,206.45,675.79,195.14,676.54,183.88ZM520.6,200a40.22,40.22,0,0,0,.82,6.22c1.32,4.63,4.82,7,9.35,7.81a10.69,10.69,0,0,0,11.52-5.12c1.2-1.89,1.62-4.38-1.24-4.57-3.93-.27-3-2.76-3-4.86,0-4.81-.32-9.29-5.37-11.84-2.55-1.29-2.53-2.35.25-4,3.24-1.88,4.88-5.11,5.15-9.14.8-12-6-16.66-16.47-18.24a3.52,3.52,0,0,0-3.75,1.69c-.92,1.38-.07,2.51.71,3.62,4.24,6,4.12,15-.43,21.24-1,1.43-1.45,3.06-.33,4.07C522,190.56,521.23,195.15,520.6,200Zm162.26,72.48c8.3-4.62,10.7-10.59,8.12-18.68-1.66-5.23-9.69-10.25-15.47-9.71-1.72.17-3.41.57-4.31,2.06a3,3,0,0,0,1,4c2.95,1.9,2.85,4.69,2.69,7.5-.24,4.17,1.31,8.73-2.75,12.11-5.28,4.42,3.58,7.71,1.06,12a1,1,0,0,0-.08.49c0,2.66-.23,5.34,0,8,.43,5.61,3.28,8.58,9.29,10.05,4.19,1,9.9-1.21,12.13-4.81,1.48-2.39,2.41-4.89-1.69-5.34-2.78-.31-2.2-2.24-2-3.64C691.72,280,689.15,275.48,682.86,272.44Zm-94.67,25.79c1.71-.18,4.07.59,5.37-1.25,1.68-2.38-1.07-3.34-2.11-4.83-.82-1.17-.61-2.49-.52-3.84.75-10.89,1.52-21.78,2.08-32.69.16-3-.07-5.85,2.8-8,2.09-1.54,1.37-3.77-.8-4-6.06-.73-12.11-2.15-18.25-1.68-2.48.19-3.79,1.72-1.44,4a5.85,5.85,0,0,1,1.9,4.88c-.51,10.88-.84,21.78-1.54,32.66-.18,2.84-.08,5.93-2.24,8.43-2.55,2.95-.88,4.65,2.17,5.13C579.69,297.63,583.84,297.82,588.19,298.23ZM882,340.16a17.54,17.54,0,1,0-17.45,17.61A17.8,17.8,0,0,0,882,340.16Zm-189.21-147c3.9-2.86,7.48-5,8-10,1.19-10.76-8-17.15-17.61-16.4-1.47.12-3.26-.12-4,1.46-.79,1.76,1.08,2.56,2,3.61,4.85,5.6,4.72,13.91-.68,18.42-2.57,2.14-1.49,3.48.15,5.2,5,5.25,4.94,15.59-.5,20.05-3.09,2.53-1.86,4.21.62,4.88a16.83,16.83,0,0,0,16.58-4.18,12.84,12.84,0,0,0,3.48-14.48C699.58,197.9,696.56,195.64,692.83,193.2Zm10.82,187.74c1.36,0,2,.07,2.69,0,6-.74,11.23-3.36,13.34-8.95,2-5.35,2.87-11.58-2.66-15.91-3.79-3-3.16-4.48.92-6a7.72,7.72,0,0,0,3.8-3.76c2.71-4.75,2.8-9.56-.36-14-3.57-5-9.15-6.37-14.86-6.18-3.66.12-4.24,2.78-1.72,5.88,3.55,4.37,2.67,13.72-1.85,17.1-2.46,1.85-2.89,4-.77,5.77,3.4,2.77,2.43,5.76,2.11,9.33-.42,4.69-1.1,8.55-5.31,11.53-1.86,1.31-1.64,4,1.4,4.85A16.61,16.61,0,0,0,703.65,380.94ZM716,300.21c1.88-.13,3.73.09,4.55-1.81.74-1.7-.51-2.83-1.57-3.88a8,8,0,0,1-2.47-6.27c.3-10,.38-19.95.78-29.91.12-3.11.72-6.26,3.81-8.21,2-1.26,1.4-3.38.68-4.93-.82-1.78-2.55-1-3.95-.46-5.19,1.92-10.14,4.09-13.36,9-7,10.79-7.7,22.37-3.29,34C703.65,294.26,708.69,299.1,716,300.21Zm28.84,82.29c4.54.09,5-.54,2.9-5.7-.64-1.52,0-2.91,0-4.35-.09-8.08,2.14-16-.79-24.34-1.7-4.82-5.18-10.7-.67-16.37.89-1.12,0-2.66-1.5-3.1A44.42,44.42,0,0,0,729.5,327c-1.6.1-2.71,1.24-1.62,3.2,5.25,9.5,5,20.42,7.52,30.62,1.31,5.26,1.26,11.5-4.23,15.84-2.36,1.86-1,4.47,2.46,5C736.9,382.12,740.24,382.18,744.84,382.5Zm52.62-180.2c-.67-9.86-1.19-17.32-1.66-24.78-.09-1.41-.27-2.9-1.83-3.17a123.17,123.17,0,0,0-12.8-1.81c-3.2-.22-3.63,1.63-2.12,4.19,1,1.69,2.36,3.15,2.46,5.33.46,10.62,1,21.23,1.54,31.85a7.08,7.08,0,0,1-1.36,5.16c-1.81,2.2-.94,3.83,1.64,4.27,4,.71,8.15,1.2,12.25,1.62,2.71.28,3.56-1.4,3.11-3.75C797.36,214.16,798.73,206.93,797.46,202.3ZM819,277.21c-.61,4,.42,8.72,2,13.21,2.05,5.67,5,10.9,10.68,13.87,1.62.83,3.26,1.14,4.66,0s.76-2.76.19-4.15a19.85,19.85,0,0,1-1.68-8.21c.14-6.15-.12-12.31.09-18.45s-1.21-12.29,1.92-18.13c1.05-2-.06-3.49-2.58-3.56a8.56,8.56,0,0,0-5.12,1.61C820.94,258.88,818.69,267,819,277.21ZM579.86,536.58c-.18,2.31.3,4.28,3,4.23a4.11,4.11,0,0,0,4.32-4.49c-.13-7.36,2.76-13.91,5.51-20.41,8.45-20,22-36.23,38.49-50.06,1.69-1.41,3.3-2.72,1.53-4.83s-3.34-.66-5.05.67c-16.22,12.56-29.54,27.45-38.5,46.13C584.73,517.05,582.39,526.83,579.86,536.58ZM818.1,204.65A33.11,33.11,0,0,0,815.56,190c-2.44-6.19-5.6-12-12.45-14.65-1.22-.47-2.37-1.49-3.64-.32-1.42,1.31-.73,2.94.07,4.06a17.62,17.62,0,0,1,3.33,8.75c.38,5.11.77,10.24,1,15.34.26,6.07,2.08,12.34-1.9,18.24-1.6,2.36.88,4,3.3,4a11.09,11.09,0,0,0,4.58-1.77C817.45,219.43,817.53,211.92,818.1,204.65ZM727,439.55c-1.64-4-2.47-8.24-6.66-10.29-6.22-3-15.92-1.93-21.07,2.68-4.92,4.39-3.61,12.83,2.49,15.22,7.67,3,15,2.64,21.25-3.33,2.43-2.31,3.44-2.06,4.84,1,2.27,5.05,7.66,8.23,11.76,7.66,1.46-.2,2.59-.66,2.66-2.35s-.61-2.56-2.26-2.65c-4-.23-6.43-2.1-5.58-6.3.65-3.26,4.16-3.75,8.87-1.4,1.11.56,2,1.18,3,0a2.55,2.55,0,0,0,.16-3.21,6.89,6.89,0,0,0-2.82-2.71C737.91,430.7,730.87,432.89,727,439.55Zm67,84.91c0,3.33,0,6.65,0,10,0,2.11-.47,4.61,2.92,4.63s3.84-2.36,3.79-4.74c-.17-8.28.29-16.69-1-24.8-2.84-17.56-10.92-32.77-23.1-45.77-1.87-2-4.26-3.42-6.49-1.48-2.6,2.28.09,4.17,1.57,5.74C786.64,483.86,794.81,502.38,794,524.46ZM569,258.08c.81-11.39-8.83-18.33-16.31-18.08-3.7.12-4.58,1.61-2.75,4.58,3.42,5.56,2.91,19.62-1.06,25.13a4.3,4.3,0,0,0-.72,4.17c.59,1.69,2.22,1.09,3.46,1.1C561.93,275.08,569,268.2,569,258.08Zm115.91,301.6c-1.95-4.88-4-5.27-7.51-.84-1.78,2.26-2.76,2.79-4.49.25-1.35-2-3.49-3.15-5.58-1.83-2.67,1.69-5.09,1.88-7.63.24-2.25,4.55-1.1,9.35-2.37,13.79a2.78,2.78,0,0,0,2.48,3.65c3.12.31,6.18,1.65,9.35,1,7.74-1.69,15.57-.62,23.36-.84,1.67,0,4.35-1,4.79,1.21.37,1.89-.81,4.09-2.45,5.75a6,6,0,0,1-5.11,1.44c-5.84-.67-11.59.53-17.34.86-4.84.27-9.88.3-15.48,1.07,2.18,2,3.9,1.24,5.46,1.41,9.6,1,19.13.23,28.7-.76,5.34-.54,8.92-3.28,9.66-8.73.69-5,0-5.72-5.09-5.6-10.43.26-20.88-.21-31.3.71-1.29.11-2.94.22-3.32-1.45-.27-1.23-.38-2.91.25-3.83,1.06-1.52,2.33,0,3.37.6,3,1.85,5.58,1.91,7.74-1.26,1.51-2.22,3-1.52,4.37.19s3,2.86,5.18,2.1c1.51-.52,3.41-1.08,2.83-3.37s-2-.85-3.16-.61c-1.48.31-2.72.3-2.61-1.74.08-1.42-.39-3.17,2-3.16C682.33,559.9,683.68,560.55,684.92,559.68ZM656.4,453.13c-1-.06-3.63.71-4.73-2.23-1-2.79,1.17-4.35,2.74-5.84A15.65,15.65,0,0,1,666.29,441c2.34.11,4.1-.86,4.29-3.12.22-2.58-2.53-2.9-3.91-2.67-8.44,1.41-16.66,3.62-21.46,11.67-3,5-1.3,8.55,3.74,11.59,6.19,3.74,22-1.15,26-8.38,1.25-2.28,1.7-5,.13-7.06-1.37-1.76-3.71-.51-5.57.08a60.07,60.07,0,0,0-6,2.23c-2.38,1.07-3.54,2.73-1.29,5,2,2,.52,2.48-1.08,2.81A29.55,29.55,0,0,1,656.4,453.13ZM176.24,528.3c-.74,1.9-2.3,2.36-3.52,3.09-2.41,1.45-1.86,2.89-.14,4.24s4.16,2.84,6.35,1.76c2.44-1.2,2.1-3.86,1.55-6.22-.29-1.23-1.28-2.69.45-3.49,3.67-1.72,1.85-3.82.68-6.06a39.09,39.09,0,0,1-4.56-16.49c-.27-5.83-1.55-11.64-6.83-17,1,7.15,1.46,13.2,2.72,19.08,1,4.67-1.81,8.81-4.57,8.94-5,.25-3,3.21-3.65,5.31-1.36.65-3.37-2-4.23.48-.74,2.2.79,3.73,2.66,4.73a12.73,12.73,0,0,0,6.58,1.65C171.8,528.24,173.87,526.66,176.24,528.3ZM845.09,277.5c-5.65,0-7.41,1.57-5.51,4.26,4.34,6.13,3.33,12.34.94,18.71-.91,2.44-1.16,4.74,2.21,5.28,5.22.83,12.21-5.42,12.22-10.79,0-2.66-.18-5.34,0-8,.62-8,.68-8-7.33-9.21C846.5,277.59,845.34,277.52,845.09,277.5ZM135,497.06c0,6.34,0,12.38,0,18.42.11,9.53,5.67,15.92,12.67,21.34,1.34,1,3.18,2.27,4.77.08,1.28-1.76.22-3.27-.84-4.49-6.41-7.37-10.49-15.51-11.13-25.58C140.27,503.41,141,497.6,135,497.06Zm11.36-267.59c6.28-7.64,2.58-17.39,8.25-24.44,1.17-1.46-.81-2.21-2.67-1.62-3.31,1.07-7.86,7.24-7.84,12.1A15.34,15.34,0,0,1,140,226.28c-2.33,2.67-1.54,5.87,0,8.73,1,1.87,2.27,4.18,4.67,3.9,3.24-.39,4.94-3,6.18-5.89C152.36,229.46,150.92,228.56,146.37,229.47Zm597.7,222.7c-.13,2.44,0,3.74,1.42,4.46a2,2,0,0,0,2.28-.2c2.56-1.91,2.68-1.89,3,1.22.32,3.28,1.84,6.61,5,6.2,2.88-.39,1.71-4.34,1.25-6.41-1-4.59.48-6.61,5-6.85,1.13-.06,2.24-.44,3.38-.59.83-.11,1.66-.11,2-1.1.41-1.22-.34-1.8-1.22-2.38a9.1,9.1,0,0,0-8.08-1.08c-1.29.4-2.72.91-3.73-.21-1.15-1.27.51-2,1-2.91.87-1.66.34-2.74-1.22-3.68-1.4-.85-3-1.62-3.88.07C747.65,443.33,745.12,448,744.07,452.17ZM780,263.35c0,4.36.13,7.29,0,10.21a49.7,49.7,0,0,1-1,9.31c-1.25,4.94.09,10.76-5,14.53-1.42,1-.65,2.76,1.05,3.53,3.34,1.5,6.88,1.2,10.23.44a2.12,2.12,0,0,0,.69-3.91c-4.47-3.26-3.85-7.47-3.12-12,.7-4.38.89-8.86,1.25-13.3C784.24,269.16,783.19,266.67,780,263.35ZM582.52,581.76a2.6,2.6,0,0,0,1.42,3.35c1.43.68,2.16-.71,2.68-1.58,1.74-2.92,4.47-4.87,6.66-7.35,2.72-3.09,2.27-6.35-1.49-8-3.45-1.56-7.16-2.55-10.76-3.78-1-.33-2.12-.58-2.72.38a2.16,2.16,0,0,0,.4,2.77C583.73,571.3,583.71,576.37,582.52,581.76ZM740.73,251.6c-.57-1.86,1.68-6.77-3.68-5.21a9.23,9.23,0,0,1-7.83-.85c-1.12-.62-2.73-1.16-3.51.31a2.87,2.87,0,0,0,.92,3.59c5.34,3.39,6.79,9.1,8.83,14.43.57,1.49,1,2.92,2.88,2.74a2.57,2.57,0,0,0,2.28-3.23C739.11,259.52,741.15,255.87,740.73,251.6ZM685.22,450.19c2.22-.53,4.46-1,6.66-1.61,1.43-.38,3.17-.77,2.77-2.8-.37-1.82-1.61-3-3.61-2.47-3.46,1-4.36-.94-4.81-3.75-.31-1.95-1-3.84-1.23-5.8-.32-3.29-2.17-4.33-5.08-3.67s-3.11,3.2-2.53,5.52c1,4,2.31,7.91,3.51,11.85C681.55,449.57,683.13,450.19,685.22,450.19Zm88.09-91.1c4.83,0,7.84-3.11,8-8.17a6.53,6.53,0,0,0-6.87-6.84c-4,0-7.68,3.85-7.77,8.12A6.47,6.47,0,0,0,773.31,359.09ZM704.92,591.35c-.49-1-.94-3.47-2.22-2.9-3.4,1.51-6.66-.5-10.16.5-3.95,1.12-8.48.88-12.65.36-2.72-.34-3.19,1.88-4.83,2.66-1.3.62-1.5,2.17-.78,3.51s2.08,1.64,3.39,1.79a2.26,2.26,0,0,0,1.75-.68c.45-.58.12-1.25-.66-1.48-1.38-.42-2.08-1.46-1.33-2.6.39-.59,1.85-.79,2.75-.65,2.51.39,4.34,4.28,7.5,1.43l.3.4c4.74,6.29,10.33-.27,15.47.92C704.33,594.81,704.76,592.91,704.92,591.35Zm81.59-8.12c.17-5.07-3.16-7.63-7.7-5.5-4.9,2.31-8.18,6.23-8.83,11.8-.39,3.27,3.23,6.69,6.16,6.12C780.2,594.86,786.36,587.47,786.51,583.23Zm-198.32-32c2.74,1.58.42,3.31.95,4.76.35,1,.75,1.91,1.93,2a1.68,1.68,0,0,0,1.67-1.56c.29-3.26,1.17-6.62-.68-9.7-.72-1.22-1.24-2.83-3.22-2.65-1.76.17-2.57,1.49-3.25,2.79-.93,1.74-1.57,3.62-2.4,5.41a1.63,1.63,0,0,1-2,1.06c-1.23-.36-1.35-1.43-1.13-2.42s.78-1.81,1.08-2.75c.41-1.23.22-2.45-1.1-2.9-1.72-.58-2.53.65-2.69,2.07-.34,3.1-1.24,6.2-.11,9.35.78,2.16,1.88,3.86,4.33,4.23,2.69.39,3.3-1.67,4.08-3.5S587.27,553.5,588.19,551.27Zm42.6,70.22c.06-7.08-1.31-8.17-8.28-6.4-2.72.69-5.38,1.61-8.09,2.33-1.46.39-3.35.53-2.88,2.54.33,1.37,2,1.63,3.38,1.3,4.38-1,6.69,2.37,9.31,4.64,1.54,1.34,1.38,5.42,4.16,4.59s1.47-4.64,2.35-7A6.5,6.5,0,0,0,630.79,621.49ZM774.92,374.88c.09-3.92-1.55-6.44-5.7-6.64-3.65-.17-7.76,4.67-7.74,8.93,0,4,2.66,6.87,6.34,6.88C771.85,384.06,775,380,774.92,374.88ZM697.23,640.15c-.31-2.37-1-4.57-4.06-5.26-5.26-1.21-9.84.65-13.79,3.6-4.24,3.16-3.5,7.17,1.47,9,3.7,1.36,7.56,2.33,11.56.4C695.65,646.32,697.12,643.86,697.23,640.15ZM489,163.46c0-2.28.1-4.11,0-5.93s-.56-3.28-2.75-3.47c-2.62-.24-5.23-.69-7.86-.81-1.7-.07-3.84-.54-4.29,2.13a3.49,3.49,0,0,0,2.5,4.26c2.79,1,4.5,3.2,6.19,5.47,1.46,1.95,1.24,6.35,4.62,5.39S488.14,165.51,489,163.46ZM131,536.79a31.74,31.74,0,0,1,6.22,5.46c4.9,5.06,10.15,9.77,15.4,14.47.78.7,2.32,1.82,3.48.4a2.52,2.52,0,0,0-.29-3.22c-1.44-1.8-3-3.47-4.41-5.32-3.27-4.43-8.39-6.94-11.8-11.08C135.55,532.57,135.89,532.29,131,536.79ZM586.49,204.13c-.06-1.41.42-3.48-1.57-4.1s-2.87,1.4-3.55,2.78c-1.67,3.41-3.91,6-7.6,7.36-2.66,1-3.37,4.08-1.36,4.93,3.47,1.47,7.61,2.87,11.43,1.76,3-.88,1.68-4.25,1.94-6.61C586,208.28,586.23,206.31,586.49,204.13ZM718,637.13a18.52,18.52,0,0,0,0-2.26c-.26-1.87.15-4.42-2.44-4.72-2.83-.32-2.27,2.15-2.36,3.9-.11,2-1.42,2.07-2.8,1.55a47.36,47.36,0,0,1-4.49-2.15c-1.69-.85-3.49-1.57-5.16-.28s-.23,2.73-.11,4.13a37.76,37.76,0,0,1,.1,5c-.06,1.71.37,3.09,2.3,3.13a2.42,2.42,0,0,0,2.71-2.8c-.2-5.71,2.37-4.15,5.32-2.1,1.75,1.23,3.76,2.69,5.95,1.41C719,640.8,717.74,638.58,718,637.13ZM641.43,287a26.73,26.73,0,0,0,0-3.47c-.13-.95-.35-2.13-1.52-2.31a2.16,2.16,0,0,0-2.39,1.35c-1.24,6.05-6.1,8.26-10.86,10.64a2.38,2.38,0,0,0-1.57,2.3c.05,1.24.92,1.6,1.92,1.9C637.41,300.52,641.35,297.71,641.43,287Zm109,65.16c1.77-.2,1.83-1.46,2.27-2.23,3.27-5.77,4.76-12.68,11.26-16.34,1.66-.93.93-2.54-.74-3.44-2.61-1.42-5.45-1.11-8.24-1.09-3.48,0-4.86,1.58-2.61,4.62,1.92,2.59,1.41,4.62-.08,7.17C750.31,344.24,748.62,347.89,750.43,352.16ZM587.36,170.44c-1.08-2.82,1.91-7.06-2.78-8.49-2.62-.8-5.52-.73-8.3-1-1.54-.15-2.94,0-3.62,1.79-.84,2.18.72,3.13,2.1,3.87a13.9,13.9,0,0,1,6,5.63c1.18,2.14,1.24,6.35,4.52,5.58C588.85,177,586.51,173,587.36,170.44Zm44.15,39.22c0-1.16.09-2.32,0-3.47-.12-1.35.63-3.23-1.59-3.57-1.58-.25-2.29.9-2.9,2.18a13.86,13.86,0,0,1-8.09,7.38c-1.5.55-2.56,1.54-2.3,3.35s1.5,1.9,2.91,2c2.14.14,4.28.29,6.39.63,4,.65,6-.77,5.62-5C631.42,212,631.51,210.82,631.51,209.66Zm-18.7,394.82c.18-1.42-1-2-1.75-2.84-6.46-7.39-6.44-7.34-14.26-1.31-2.14,1.64-3.32,3.16-1,5.54a19.26,19.26,0,0,1,2.74,3.44c.9,1.52,2.09,3.34,3.73,2.21,2.09-1.44,0-2.82-1.07-4s-1.91-2.32-.61-3.38c.84-.67,2,.05,2.79,1.18,1,1.36,2.29,3.73,4.19,2.32s-1.25-2.63-1.13-4.23a3.27,3.27,0,0,1,.3-.88C609,602.54,610,606.4,612.81,604.48Zm176.35-54.22c.53-2.18.9-3.57,1.2-5a1.39,1.39,0,0,0-.9-1.59,1.23,1.23,0,0,0-1.67.63c-1.86,3.17-3.6,6.5-2.59,10.28.76,2.86,2.63,3.91,5,1.27a53.74,53.74,0,0,0,3.63-4.72c.65-.9,1.33-1.59,2.38-.79.86.64.36,1.45-.05,2.2s-.92,1.77-1.34,2.67-1.34,1.86-.23,2.62,2.42-.1,2.9-1.09c1.61-3.34,3.94-6.55,2.7-10.66-.42-1.38-.22-3.11-2.19-3.46s-3,.87-4,2.28C792.71,546.57,792.14,548.83,789.16,550.26ZM855,268.47c-1.9-3.43-.24-8-1.81-12.08-.4-1-.32-2.87-1.82-2.34-3.1,1.09-5.39-.14-7.8-1.69-1-.65-2.25-.9-3.15.24a2.12,2.12,0,0,0,.42,3.12c5.52,3.53,7.64,9.27,10,14.87.47,1.09,1.24,2.06,2.66,1.76C855.48,271.94,854.78,270.32,855,268.47ZM632.21,173.85c0-8.7-.89-9.71-8.17-9.79a1.66,1.66,0,0,0-.5,0c-1.79.61-4.6-1.56-5.39,1.64-.64,2.63,1.44,3.84,3.44,4.75,2.26,1,3.42,3.06,4.72,4.94s1.06,5.93,4.25,5.06S631.5,175.82,632.21,173.85Zm-150,5.8c0-2.44,0-4.59,0-6.73,0-1.46-1.18-2-2.23-2.33s-1.94.62-2.23,1.49c-.77,2.33-2.55,3.78-4.18,5.41a4.27,4.27,0,0,0-.31,6.22,20.45,20.45,0,0,1,4.07,6.12c.39,1.12,1.23,2,2.63,1.68,1.12-.29,1.41-1.28,1.53-2.31C481.82,185.93,482.57,182.69,482.18,179.65Zm151.46,63.57c-1.58.4-4-1.05-4.9,1.79a2.89,2.89,0,0,0,1.58,3.77c4,1.57,5.81,4.7,7,8.48.41,1.29,1.26,2.63,2.72,2.55,2-.11,1.27-1.94,1.42-3.13s.2-2.65.4-4C643.09,244.72,641.87,243.28,633.64,243.22Zm1.94,26.8h.21c0-1.49.08-3,0-4.47-.14-1.88.86-4.46-1.5-5.29-2.75-1-2.76,2.11-3.88,3.52-.72.91-1.52,1.74-2.29,2.61-2,2.33-2.25,4.76-.1,7.07,1.49,1.6,2.81,3.15,3.1,5.45a2.09,2.09,0,0,0,2.4,2,2.36,2.36,0,0,0,2-2.47C635.73,275.64,635.58,272.82,635.58,270Zm-9.8-79.25c0-2.18,0-4,0-5.81,0-1.44.31-3.2-1.51-3.8s-2.44,1.1-3.28,2.29a27,27,0,0,1-3.05,3.83c-1.55,1.54-1.81,3.22-.67,4.91,1.55,2.31,3.36,4.43,4,7.26a2,2,0,0,0,2.29,1.45c1-.09,1.09-1,1.45-1.7C626.35,196.35,625.5,193.34,625.78,190.77ZM603,593.6c.66-4.3-2.64-6.94-4.93-9.55-2.09-2.38-4.44.74-6.64,1.44a18.92,18.92,0,0,0-4,2c-1.2.73-3,1.25-2.17,3.26.69,1.67,2.16,2,3.73,1.51,3-1,5.18-.39,6.34,2.79.34.94.95,1.85,2.16.83.83-.7,1.32-1.34.49-2.48s-1.87-2.42-.76-4.05C599.79,589.91,599.26,594.27,603,593.6Zm-23.07-405h0c0-2.66,0-5.31,0-8,0-1.14,0-2.49-1.52-2.69a2.33,2.33,0,0,0-2.54,1.93,9.37,9.37,0,0,1-2.73,4.64c-2.34,2-2.06,4.43-.54,6.69,1.29,1.91,3,3.51,3.25,6a1.78,1.78,0,0,0,2,1.71c1.47-.06,2-1.13,2-2.36C580,193.94,579.91,191.28,579.91,188.63Zm76.64,359c10.06,2.46,22,.52,33.8.63,4.65,0,10.32-1.44,9.92,6.48a1.43,1.43,0,0,0,1.59,1.49,1.53,1.53,0,0,0,1-1c.55-2.5.45-5-1.18-7.09-1.46-1.9-3.28-3.38-5.91-3C682.13,547.23,668.23,544.29,656.55,547.59Zm95.58,62.33c1-.67,1.64-1.15,2.33-1.58,1-.65,2.09-1.45,1.12-2.72-.83-1.11-1.75.12-2.61.37a5.65,5.65,0,0,0-1.34.63c-2.81,1.74-5.55,4.38-4.57,7.47,1,3.3,4.19.52,6.4.29.83-.09,1.76-.43,2.17.45s-.36,1.4-1.11,1.87c-1.49.93-4.82,1.31-3,3.73,1.29,1.76,3.62-.44,5-1.74s3.07-1.85,3.93-3.64c.66-1.38,1.61-2.79.9-4.18-.83-1.63-2.66-.74-4-.81S754.26,611.79,752.13,609.92ZM82.2,364.53c-.2-.5-.25-1.13-.58-1.38-4.77-3.59-8.15-8.39-11.79-13-.55-.71-1.69-1.77-3-.69s-1.17,2.3-.7,3.6c2.18,6.08,7.12,9.71,12.07,13.25C80.13,367.7,81.58,366.78,82.2,364.53Zm713.87,199.7c.09-1.3-.09-1.83-.8-2.06a1.43,1.43,0,0,0-2,.94c-1.35,5.33-4.88,4.56-8.78,3.38-2.74-.83-4.63,1.1-4.2,3.27.67,3.37,4.43,3.38,7.07,4.52,1.8.77,3.85,1.39,4.88-.56A87,87,0,0,0,796.07,564.23ZM726.59,299.1c5.57-.1,12.29-6.78,12.37-12.2,0-1-.1-2-1.24-2.44-1.36-.51-2.18.09-2.75,1.32-2,4.22-4.84,7.39-9.58,8.66-1.09.29-2.46,1.24-1.73,3C724.23,298.84,725,299.79,726.59,299.1Zm.52,327.77c1.09,1.84.86,4,1.12,6.17a1.88,1.88,0,0,0,2,1.77c1.09,0,2.4-.77,2.18-1.6-1.16-4.25,2.41-5.77,4.41-8.16,1.48-1.77,1.58-3.34-.52-4.5C733.65,619.05,727,623.6,727.11,626.87Zm30.77-22.93c3.78-1.36,6.5-.41,9,2.28a3,3,0,0,0,4.46-.4c1.52-1.82.19-3.09-1.09-4.2-2.27-2-3.94-4.2-3.25-8.28C762.48,596.22,760.32,599.81,757.88,603.94ZM122.44,475.89c-.86.58-2.64-.83-3.2,1-.48,1.55.91,2.5,2.05,3A26.86,26.86,0,0,1,130,486.3c1,1.06,2.25,1.53,3.46.36a2.61,2.61,0,0,0,.35-3.62C130.91,479.42,128,475.79,122.44,475.89ZM647.77,628.1c-1.91-4.16-2-4.2-8.47-4.63-2.71-.19-4.19,1.63-5.66,3.36a3.21,3.21,0,0,0-.44,2.34c.57,3.44,7.42,7.46,11.95,6.71-3.14-2-8.52-2.81-6.85-7.11C640,624.27,644.44,627.63,647.77,628.1Zm39-63.32c.18,1.94.05,4.5,3.54,2.69a2.4,2.4,0,0,1,2.72.24c1.13.72,2.26.76,3-.51.6-1.08-.29-1.83-1-2.52-1-1-2.56-1.9-1.9-3.65s4.56-1.72,3.07-4.16c-1.32-2.16-3.2,2.29-4.91.81-2.66-2.28-2.79-.38-3.2,1.54C687.7,561,687.25,562.73,686.77,564.78ZM446,763.46c-.41-2.64-1.83-4.41-4.55-4.37a4.41,4.41,0,0,0,.08,8.82C444.26,767.9,445.65,766.1,446,763.46ZM739.89,618.54c.74,2.61.87,6,4.24,7.27a1.82,1.82,0,0,0,2.24-2.4c-1-3-1.09-6.77-4.66-8C739.87,614.84,740.12,617,739.89,618.54Zm-68.78,20c.06-1.34.4-3.49-1.44-2.88-3.79,1.26-2.69,5.15-3.41,8.06-.38,1.55,0,3.28,1.44,2.89C672,645.42,670.19,641.26,671.11,638.49ZM658.4,595.43c3.34,1,4.45-.22,5.21-2.1.48-1.19.51-2.38-.74-3-1.88-.91-2.54.6-3.34,1.9-1.62,2.6-2.63-.07-3.88-.53-.73-.27-1.59-1-2.18-.24a4.43,4.43,0,0,0-.36,2.35c0,1,.58,1.46,1.58,1.27A6.88,6.88,0,0,1,658.4,595.43Zm4.36,39.31c-7.22-4.67-8-1.59-9.91,4-.48,1.43-.72,2.69,1.13,3.09a2,2,0,0,0,2.58-2.18C656.37,635.23,658.92,634.37,662.76,634.74ZM88,387.3c1.6,4.5,2.8,8.12,6.9,9.78a2,2,0,0,0,2.63-.45,1.34,1.34,0,0,0-.36-2.13C93.85,393,92.57,389,88,387.3ZM708.54,545.92a3.9,3.9,0,0,0-3.12,3.69,2.84,2.84,0,0,0,3.31,2.84c1.81-.14,3.29-.86,3.32-2.87S710.75,546.34,708.54,545.92Zm-36.35,45.76c-.16-1.62-.66-2.56-2.19-2.11a4.46,4.46,0,0,0-3.52,4.64c0,2.23,1.43,3.21,3,2.87C672.53,596.45,670.63,593,672.19,591.68ZM647.35,595c1.24.06,1.54-.54,1.55-1.23,0-1.08.6-2.61-1.19-2.71-2.17-.11-4.29,0-6-1.69-.54-.52-1.3-.13-1.53.58a2.84,2.84,0,0,0,.07,1.4C643.27,591.5,645.87,592.54,647.35,595ZM107.5,467.08c-.84.92-2.39,1.45-2.46,3.17-.06,1.54,1.16,1.93,2.3,1.87,1.58-.09,2.94-.8,2.47-2.75C109.56,468.35,109.26,467.1,107.5,467.08Z" transform="translate(-0.91 -0.88)"/><path d="M462,1,447.15,36.65c-.2.46-.27,1.2-.6,1.34-7.81,3.23-6.91,11.55-9.45,17.45-9.84,22.81-18.51,46.13-27.64,69.25a6.4,6.4,0,0,1-.86,1.21,100.42,100.42,0,0,0-53.25-13.46c-7,.19-7,0-4.16-6.42,5.12-11.75,10.16-23.54,15.35-35.25a60.53,60.53,0,0,1,4.21-7.32c1.14-1.81,2.29-4.21,4.66-4a6.53,6.53,0,0,1,6,4.54c2.11,8.1,9.6,8,15.35,9.67,3.47,1,5.53-3.61,7-6.68,1.86-3.88,3.19-8,4.78-12,3.07-7.76-.5-12.71-9.61-13.13-3.46-.16-6.64-.35-10-2a11.62,11.62,0,0,1-5.49-5c-3.63-6.4-13.59-10.15-21.07-9.27-8.58,1-17,1.88-25.07,5.46-6.25,2.8-11.08,7.16-15.44,12.2-1.21,1.4-2.21,3.08-1.81,5,.33,1.6.59,3,3.21,1.56,7.79-4.23,15.82-7.69,25-3.57,2.46,1.11,3.21,1.77,2.44,4.66-3.54,13.23-9.88,25.32-15.44,37.67-2.7,6-5.6,11.9-7.49,18.19-1.5,5-5,5.49-9.52,5.88-23.59,2.07-40.1,11.83-45.54,36.09-1.52,6.79-1,13.86-.33,20.77.26,2.76.69,3.76-2.91,3.27-8.11-1.13-10.82,2.56-9.84,10.73.75,6.26,1.43,12.53,2.61,18.72a21.41,21.41,0,0,0,7.09,12.81,6.71,6.71,0,0,0,5,1.81c4.19-.27,5.35,1.14,3.59,4.93-3.07,6.6-6.43,13.06-9.79,19.52a47.17,47.17,0,0,1-5.85,9.23c-2,2.32-1.74,4.9-.55,7.49,3.19,6.92,14.73,12.48,22,10.61.58,6.95-2.35,10.78-8.25,14.28-10.71,6.35-19.66.49-28.54-3.65-13.38-6.24-27-12.05-40.47-18-2.58-1.13-2.27-1.64-1.57-3.72,9.82-29.09,22.7-57,33.4-85.75,7.38-19.83,15.48-39.41,23.34-59.06q12.84-32.11,25.83-64.17,7.51-18.6,15.09-37.18C304,7.82,306.79,5,307,1h42c1.41,1.36,3.15.67,4.74.71,5.79.18,11,.72,13.12,7.73.9,3,3.66,5.34,6.92,6.75,5.47,2.38,10.73,2.56,16.79,1.69,13.77-2,25.58-7.13,35.43-16.88Z" transform="translate(-0.91 -0.88)"/><path d="M1,719c.56,6.34,4.86,11.3,6.32,17.38,1.17,4.91,5.52,7.86,9.59,10.32,2.79,1.69,3.51,3.89,4.47,6.63,2.53,7.22,1.9,15.39,7.06,21.86,2.21,2.77,4.63,5.22,7.94,5.41,5.18.31,7.56,3.45,9.62,7.4-14,0-28-.07-42,.07-2.5,0-3.08-.57-3.07-3.07C1.05,763,1,741,1,719Z" transform="translate(-0.91 -0.88)"/><path d="M106,1c2.13,11.79,1.55,23.64.72,35.49-.44,6.15.57,12.2,1.18,18.28.2,2,1.28,5.11-.93,5.72s-3.09-2.42-3.85-4.4C98.06,42.83,94.17,29.42,98,15a38.82,38.82,0,0,1,7-14Z" transform="translate(-0.91 -0.88)"/><path d="M181,1a5.75,5.75,0,0,1-3.1,4.19c-12.52,7.52-25.6,7.59-39,2.89A40.49,40.49,0,0,1,126,1Z" transform="translate(-0.91 -0.88)"/><path d="M94,1c-10.24,6.77-21,10-33.24,5.7-4.37-1.54-9.39-.88-13.65-3.44C46.07,2.64,45,2.46,45,1Z" transform="translate(-0.91 -0.88)"/><path d="M281.55,415.61c2.53,1.11,5.19,3.69,5.39-1.2,0-.3.28-.86.41-.86,3.72.19,7.52.06,11.13.81,2.19.46,2.08,3.29,2,5.1-.08,1.57-.22,2.94.77,4.2,3.77,4.82,5.9,10.67,9.8,15.48,1.52,1.87,2.47,2,4.4,1.44,18.39-5.32,38.84,1.92,49.44,17.33,5.95,8.65,4.7,18.18,3.69,27.7-.38,3.62-1.41,7.25-1.28,10.84.67,18.61-9.16,30.05-25,37.52a17.1,17.1,0,0,1-8.55,2c-4.16-.27-6.09,4.21-9.93,4.8-.19,1.91,3.45,2.14,1.92,3.25-2.09,1.53-3.08,4.33-5.83,4.91-.66.14-1.21-.4-1.33-1.18-1.47-10-2.2-9.52-8.07-17.91-2.34-3.36-6.4-6.54-6.47-11.48,0-.48-.07-1.25-.36-1.4-5.67-3-2.3-7.66-2.38-11.78-.25-11.9,2-24-2.9-35.55a3.89,3.89,0,0,1,0-2.41c2.88-9.58-2.31-15.41-9.17-20.78-2.21-1.73-4.34-4-3.72-7.7.49-2.95-2-4.08-4.39-4.91-1.13-.39-2.46-.92-1.95-2.36.61-1.76,1.23.51,2.12.2A3.78,3.78,0,0,0,284,427C283.36,423.47,282.49,420,281.55,415.61Zm49.34,97.81c7.59,1.69,17.31-4.86,19-12.1A81.39,81.39,0,0,0,351.49,479c-.46-10.1-14.23-22.94-24.66-19,7.07,2.41,14.85,2.56,17.94,10.94-2,0-3.43.12-4.88,0-3.85-.35-5.25,1.8-5.91,5.19-.79,4.1,1.85,6,4.55,8,2.41,1.82,4.3.58,6.27-.8,2.83-2,4.57-1.92,4.21,2.25-.47,5.61-.92,11.37-3.19,16.44C343.07,508.17,338.24,512.58,330.89,513.42Zm-16.37-2.33c1,3,1.71,5.29,2.52,7.58a1.58,1.58,0,0,0,2.74.78c1-.8,1.43-1.86-.24-2.65C317.33,515.74,317.63,512.7,314.52,511.09Z" transform="translate(-0.91 -0.88)"/><path d="M58.79,417.55c2.55-7.29,8.6-9.62,15.34-10.72,9.56-1.55,16,4.76,20.41,11.17,3.66,5.27,2.39,12.68-2.52,19-1.64-3.39-3-6.32-4.48-9.23a21.16,21.16,0,0,0-2.38-4.34c-1.41-1.67-3.74-3.23-5.56-1.92-1.66,1.19.82,2.76,1.41,4.15,4.31,10.07,9.07,20,8.89,31.33-.07,4.72-2.89,9.62-6.4,10.24-4.56.8-7.29-2.31-9.82-5.42-.93-1.14-1.48-2.6-2.42-3.75-2.17-2.68-2.07-4.74,1.33-6.18.29-.12.51-.47.81-.56,2-.6,2.46-4.74,4.83-3.08,1.38,1,1.33,4.17,1.66,6.41.24,1.63-.07,3.33.09,5s-.91,4.24,1.93,4.28a4.21,4.21,0,0,0,4.15-4.26c-.36-6.4-.59-12.9-4-18.72-1.77-3-3.69-1.73-5.31-.34-2,1.71-3.48,4-5.43,5.8-3.17,2.88-5.49,2.48-7.52-1.23-1.83-3.33-3.43-6.79-5.16-10.18-1-1.92-.11-2.78,1.72-3.1s3.95-.5,5.86-1,3.21-1.92,2.58-4.1-2.28-1.17-3.67-.83c-1.93.47-3.87.93-5.82,1.32-1.19.23-2.89,1.26-3.21-.82-.27-1.83.72-3.19,2.89-3.17,1.85,0,3.71-.08,5.2-1.34,1.08-.91,2.69-1.68,1.94-3.59s-2.31-1.31-3.78-.95C61.27,417.62,60.22,418.48,58.79,417.55Z" transform="translate(-0.91 -0.88)"/><path d="M273.65,600.57c.71-.39,1.71-.61,2.1-1.22,3.35-5.31,7.06-6.51,12.52-2.39,2,1.52,5.12-1.7,8.17-.28s5.78,2.39,8.19-2.07c1.72-3.2,8.3-1.38,9.5,2.93s3.59,6.12,7.3,7.25c1.58-1.46-1.64-2-.44-3.34,6.06.33,7,1.51,4.71,6.77-.72,1.64,0,2.26.66,3.4a2.39,2.39,0,0,1-.69,3.11,2.16,2.16,0,0,1-1.86.2c-1.46-.77.09-1.61.12-2.45.07-1.71-.85-2.41-2.42-2.44s-2.1.8-1.75,2.24c.46,2-.33,2.84-2.27,2.77-2.15-.08-1.45-1.78-1.65-3-.41-2.39.44-6.37-3.24-5.82-3.91.57-3,4.36-2.43,7.36a30,30,0,0,1,.6,4.43c.07,1.35-.11,2.81-1.57,3.38-2,.81-1.86-1.06-2.43-2.16a2.59,2.59,0,0,0-4.18-1c-1.87,1.35-1,2.88.26,4.21a7,7,0,0,0,5.22,2.52c3.31,0,4.45,2.87,5.61,5,1.27,2.25-1.22,2-2.58,2.1-2.3.18-3.49.24-3.29,3.66.38,6.38-10.82,12.16-16.16,8.79a2.7,2.7,0,0,1-1.27-1.93c.15-1.33,1.38-1.1,2.37-1,3.27.32,6.45.86,9.33-1.78,1.32-1.21,4.26-1.22,2.47-4-1.49-2.3-3.61-5.49-6.5-4.14-5.57,2.61-6-.62-7-4.56-2-7.87-4.32-15.67-12.43-19.88-2.61-1.36-2.91-4.76-4.94-6.75Z" transform="translate(-0.91 -0.88)"/><path d="M56.46,448c4.95,12.6,15.33,18.4,23.24,26.48s17.81,13.66,28.41,17.69c-1,2.62-4.41,1.54-3.8,3.59,1,3.51,5,2.47,7.5,3.76-2.6,5.6-11.69,8.68-16.75,5.56-2.34-1.44-3.27-3.47-2.2-6.34.9-2.41,1.61-4.45,4.85-3.09,1.53.64,2.6-.17,3-1.72s-.28-2.43-1.88-2.91c-6.26-1.91-11,.28-11.43,7.91-.26,5.3-2.58,4.31-5.57,2.8-1.76-.9-3.25-2.39-5.07-3.1-2.8-1.1-3.43-2.35-1.24-4.66,1.26-1.33,1.86-3.24.44-4.44s-2.66.57-3.9,1.29-2.06,3.47-3.9,1.56c-1.42-1.46.42-3.06,1.2-4.38,1.22-2.07,4.43-4.68,2.27-6.26-2.45-1.81-4.91,1.51-6.41,3.74-1.36,2-2.33,1.41-3.42.11-5.88-7-11.12-14.35-12.73-23.64-.55-3.2.31-6,3.08-7.81C54,452.9,55.34,451.38,56.46,448Zm5.7,26.44c-.77-1.4,0-4.11-2.87-4.24a2.2,2.2,0,0,0-2.35,2.56c.32,2.12,1.16,4.35,3.75,4.51C62.16,477.32,62.25,475.84,62.16,474.41Z" transform="translate(-0.91 -0.88)"/><path d="M101.8,531c-7.34-1.87-12.75-5.18-18.21-8.38-4.84-2.82-9.56-5.86-14.52-8.43-2.83-1.47-4.6-3-4.17-6.47.29-2.32-.8-4-3.11-2.32-3.18,2.28-5,.26-6.78-1.65-3.53-3.73-4.54-8.35-4.22-13.36.07-1.19.1-2.52,1.29-3.05,1.37-.61,2.08.76,2.81,1.55a105.2,105.2,0,0,0,14.34,13c9.38,6.92,20,9.66,31.35,9.89,8.29.17,16.29,5.46,19.17,13,1.09,2.89-.26,4.68-2.81,6-4,2-9.69-.58-9.83-4.63-.07-2,0-3.42,2.93-3.18,3.66.29,3.79-2,2.07-4.47-3.46-5-8.15-4.79-10.86.69C99.52,522.74,97.59,526.58,101.8,531Z" transform="translate(-0.91 -0.88)"/><path d="M224,318.05c2.29.26,3.55-1.51,5.07-2.67a174.82,174.82,0,0,1,24.52-16c2-1,3.9-2,5.8.55-4.75,2.65-9.57,5.07-14.12,7.93-8.45,5.31-15.17,12.38-21.66,20a282.12,282.12,0,0,0-19.11,25.32,66.51,66.51,0,0,0-7.93,17c-3,9.26-6.88,18.32-8,28.07-.65,5.9-2.23,11.62-2.16,17.67.26,20.1.37,40.21-.73,60.28-.26,4.79-.85,9.56-1.09,14.46A22.12,22.12,0,0,1,181,478q1.38-31.31,2.4-62.62a125.31,125.31,0,0,1,5.59-32.6c2.76-9,5.11-18.09,9.64-26.38,4.93-9,10.39-17.67,17.27-25.4,3.44-3.86,7.32-7.58,8.25-13.08Z" transform="translate(-0.91 -0.88)"/><path d="M266.29,505.68c1.5.9,1.62,2.39,1.74,3.87,1,12.23,5.45,23.28,11.38,33.84,4.38,7.79,10.91,14,16.11,21.19,2.75,3.8,8.08,5.85,12.47,8.27,1,.55,4.8,2.32,3.6-2.44-.58-2.29,2.83-1.91,3.06-1.77,2.74,1.67,3.45.56,3.45-2.1,0-1.29.68-2.49,2-2.15s.54,1.62.46,2.56c-.29,3-1,6.16,2.27,8.27a2.55,2.55,0,0,1,.87,2.14c-.22,1.18-1.45,1.41-2.42,1.16-6.21-1.65-12.1-.83-18.19,1.14-2.23.72-5.29-1.63-8-1.83-4.38-.32-3.31-3.82-4.2-6.2-3.21-8.6-5.58-17.55-12.16-24.55C272.74,540.69,263.82,514,266.29,505.68Z" transform="translate(-0.91 -0.88)"/><path d="M80.69,401.14c-14.36-2.85-24.76,1.32-30,15.21-4.08-5-4.32-16-.44-21.78,1.11-1.64,2.07-3.52,3.56-4.72,2.6-2.11,5.33-4.34,9-1.47,2.9,2.25,6.4,3.34,10,4.18C78.85,394,78.83,394.08,80.69,401.14Z" transform="translate(-0.91 -0.88)"/><path d="M402,550c.77-5.37,3.89-9.89,5.28-15.15a178.17,178.17,0,0,0,4.16-24.36c1.6-13.38,3-26.78,4.48-40.17,2.44-22.62-4-42.06-20.44-58.13a113.39,113.39,0,0,0-20.31-15.73c6.27,1.1,11.17,5,15.75,8.74,9.63,7.94,17.91,17.36,23.12,28.77a51.4,51.4,0,0,1,4.57,23c-.25,8.81-2,17.4-2.31,26.18-.46,12.2-2,24.35-3.5,36.49a87.48,87.48,0,0,1-6.18,24.29c-1.07,2.45-2.09,4.82-4.67,6.06Z" transform="translate(-0.91 -0.88)"/><path d="M447.36,466.88c1.86,8.15.85,15.13-.51,22.28A140.87,140.87,0,0,0,445,509.92c-.39,9.94-2.57,19.6-4,29.38a70.25,70.25,0,0,0-1,7.87c-.65,24.33-12.68,43.27-29.43,59.32-6,5.75-12.51,11.78-20.83,14.9-.11-2.63,2.23-3.07,3.74-4a109,109,0,0,0,30.23-29.16,93.78,93.78,0,0,0,12.71-26.71,67.3,67.3,0,0,0,2.71-16.55c.35-9.06,1.75-18.08,2.41-27.14.95-13.17,3.73-26.13,4.11-39.37C445.78,474.87,446.68,471.34,447.36,466.88Z" transform="translate(-0.91 -0.88)"/><path d="M396.28,348.86c16.71,8.38,30.07,19.16,40.21,33.76,1.65,2.39,4,3.11,6.79,3.48,5.57.74,7.06,4.08,3.75,8.64-2.2,3-.42,5.31.39,7.89,3.16,10.1,5.23,20.35,3.9,31.09-.76-4.87-1.65-9.73-2.24-14.62-.79-6.49-3.23-12.47-5.48-18.51a4.6,4.6,0,0,0-3.88-3.26c-5-.93-6.5-3.67-4.94-8.61,1.41-4.48-1.27-7.51-3.66-10.2-9.37-10.58-19.81-20-32.45-26.6C397.7,351.41,397.27,350.58,396.28,348.86Z" transform="translate(-0.91 -0.88)"/><path d="M276.3,290.79c11.06-6.26,57.77-10.7,67.56-6.22-2.68,1.39-5.48.76-7.78.71-12.46-.25-24.78,1.26-37.14,2.22-2.67.21-3.71.66-1.53,3.43,1.46,1.87,1,4.48-.87,6.38-1.69,1.7-3.63,2.28-5.84.94-2.46-1.5-5.8-1.73-6.93-5.15-.52-1.58-2.13-1.3-3.44-1.31S277.31,292.48,276.3,290.79Z" transform="translate(-0.91 -0.88)"/><path d="M52.6,436c-7.21-9.57-14.3-19-14.29-31.37,0-7.09.14-14.44,4.15-20.92a10.53,10.53,0,0,1,4.08-4.21c2.71-1.4,4.75.48,6.1,2s-1.27,2.21-2.11,3.14c-6.82,7.47-9.72,15.76-7.48,26a60.92,60.92,0,0,0,8.22,20C52.14,432,53.66,433.57,52.6,436Z" transform="translate(-0.91 -0.88)"/><path d="M266,494.21c-2.36-2.08-1.93-4.23-1.95-6.3-.15-14.49.25-29-1.75-43.41-.86-6.19,3.22-16.95,8.32-20.91-4.72,10.54-4.76,20.66-4,30.69.83,11,.35,21.88.44,32.81C267.07,489.46,266.37,491.84,266,494.21Z" transform="translate(-0.91 -0.88)"/><path d="M242.33,390.91c-1.48,5.34-1,11-2.78,16.18-2.35,6.94-.73,13.94-1,20.91-.22,6.34-.13,12.69-.38,19-.53,13.54,0,27.13-.25,40.69-.11,6.63-1,13.24-.79,19.9,0,1.2.28,3.13-1.71,2.8s-1-1.94-.9-3.24a418,418,0,0,0,1.77-50.68c-.18-7.87-.74-15.8-.2-23.79.54-8.19-.57-16.53.39-24.82C237.21,401.84,239.74,396.42,242.33,390.91Z" transform="translate(-0.91 -0.88)"/><path d="M363,544.31c.11,2.55-4.49,6.26-8.15,6.59-2.8.25-7.6-3.87-7.56-6.66.09-5.16,4.31-5.2,7.74-5.74C358.33,538,362.92,541.61,363,544.31Z" transform="translate(-0.91 -0.88)"/><path d="M203.65,457.51c-4.09-.05-6.65-2.07-7.49-5.61-.65-2.7,3.75-6,7.33-5.94,3.8.09,7.5,3.33,7,6.9C210.05,456.74,206.47,457,203.65,457.51Z" transform="translate(-0.91 -0.88)"/><path d="M389.56,439c-2.34-.69-6.13-.35-6.54-4.58-.3-3.08,4.52-6.84,8.09-6.74,2.75.08,6.43,4,6.37,6.74C397.43,436.78,393.78,439.06,389.56,439Z" transform="translate(-0.91 -0.88)"/><path d="M329.18,559.92c-.24.83-.65,2.41-1.12,4-.31,1-1.35,2.21-2.05,1.65-2.7-2.19-5.94-4.31-7.39-7.24-1-2,0-5.63,1.68-7.8,1.83-2.36,7.55.78,8.54,4.65A30.91,30.91,0,0,1,329.18,559.92Z" transform="translate(-0.91 -0.88)"/><path d="M309.21,336.43c-7,1.33-13.13,3.49-19.37,5.32-6.86,2-12.29,6.21-18.33,9.48-1,.57-2.07,2.28-3.18.58a2.32,2.32,0,0,1,1-3.67c11.46-5.93,23.14-11.21,36-13.13A3.28,3.28,0,0,1,309.21,336.43Z" transform="translate(-0.91 -0.88)"/><path d="M260.06,588c-5.91-1.42-7.31-7-10.1-11.2-4.68-7-7.27-15-11-22.51-1.42-2.9-.74-5.74-.94-9.19,2.74,1.2,2.86,3.36,3.27,5.07,3.37,13.78,9.07,26.35,18.66,37,.15.16,0,.62-.05.94Z" transform="translate(-0.91 -0.88)"/><path d="M325,413.66c-.07-3.38,3.4-5.61,7.06-4.52s5.85,5.93,4.29,9.28c-.48,1.05-.61,3-2.51,2.26a2.68,2.68,0,0,1-1.74-3.62,6.76,6.76,0,0,0,.76-2.8A2.45,2.45,0,0,0,329.7,412c-1.31.29-1.67,1.31-1.37,2.72s3.15,3,.3,4.48C327,420,325.08,416.94,325,413.66Z" transform="translate(-0.91 -0.88)"/><path d="M263.69,352.09c.36,7.2-8.74,17.73-15.17,17.52C253.42,363.52,257.82,357.74,263.69,352.09Z" transform="translate(-0.91 -0.88)"/><path d="M282.56,226.22c-1.92,10.58-7.47,18.48-12.71,26.6C268.85,250.58,278.15,230.71,282.56,226.22Z" transform="translate(-0.91 -0.88)"/><path d="M256.21,475.42c-1.28,1.82.67,3.23.9,4.93a1.86,1.86,0,0,1-1.46,2.26c-1.41.25-1.72-.83-1.42-1.88a2.44,2.44,0,0,0-2.54-3.34c-4.44.3-3.95-2.92-3.72-5.24.17-1.61,1.95-3.61,3.95-2.91C254.49,470.13,257.25,471.52,256.21,475.42Z" transform="translate(-0.91 -0.88)"/><path d="M257,408.1c1.24-2.82,1.89-5.94,3.79-8.55,1-1.34,1.93-1.76,3.26-.64.95.82,2.36,1.36,1.4,3.16-1.33,2.49-2.46,5.1-3.72,7.63-.64,1.29-1.58,1.59-2.82.67C258.13,409.77,256.32,410.07,257,408.1Z" transform="translate(-0.91 -0.88)"/><path d="M350.37,335.32H312.18C324.9,332.86,337.63,332.09,350.37,335.32Z" transform="translate(-0.91 -0.88)"/><path d="M257.29,390.69c-6.32,1.32-9.45-4-13.89-6.34a1.22,1.22,0,0,1-.34-1.77,1.67,1.67,0,0,1,2.22-.52C249.28,384.68,255.23,384.44,257.29,390.69Z" transform="translate(-0.91 -0.88)"/><path d="M286.41,405.26c.45-1.63,2.44-.82,2.53-2.38.2-3.46,2.19-2.54,4.1-1.62,2.48,1.2,6.33,2.23,4.65,5.68-1.35,2.77-4.55.85-6.91-.17C289.45,406.2,288,405.82,286.41,405.26Z" transform="translate(-0.91 -0.88)"/><path d="M234.77,340.5c-3.78-.07-6.05,1.73-8-1.08-2.09-3-1.85-6.24-1.59-9.51.09-1.18,1.25-.92,1.88-.4,1.53,1.26,3.67,2.72,3.29,4.66C229.72,337.2,231.34,338.55,234.77,340.5Z" transform="translate(-0.91 -0.88)"/><path d="M151.29,433.61c4.31,4.45,9.51,8.32,10.41,16.09C154.49,446,153.66,439.31,151.29,433.61Z" transform="translate(-0.91 -0.88)"/><path d="M323.57,650c1.82.55,2.56,1.5,1.6,3.29-1.29,2.43-2.61,4.84-3.8,7.32-.6,1.24-1.41,1.84-2.71,1.36s-2.27-2.22-1.78-3.14a80.56,80.56,0,0,1,5.44-8.26C322.55,650.28,323.16,650.22,323.57,650Z" transform="translate(-0.91 -0.88)"/><path d="M274.88,412.18c1.51,4.82,2.65,8.48,3.82,12.13a1.82,1.82,0,0,1-1.2,2.36c-.92.37-1.7-.1-2.44-1-2.53-3-3.94-6.12-1.47-9.89A22.72,22.72,0,0,0,274.88,412.18Z" transform="translate(-0.91 -0.88)"/><path d="M146.15,445.42c-1.4.19-2.4,0-2.24-2,.22-2.91-.85-5.63-1.75-8.34-.21-.64-.56-1.3,0-1.76.81-.62,1.61-.15,2.17.46,2.63,2.92,3.76,6.58,4.53,10.27C149.38,446.35,147.46,445.51,146.15,445.42Z" transform="translate(-0.91 -0.88)"/><path d="M101.83,426.5c2,7.21.15,13.39-5.06,18.59-.64.63-1.31,1.79-2.39.85a1.59,1.59,0,0,1,0-2.26C100,439.32,100.45,432.78,101.83,426.5Z" transform="translate(-0.91 -0.88)"/><path d="M279.46,382.17c-1.74.05-1.56-1.29-1.16-2.36,1.16-3.08,2.5-6.09,3.74-9.14.59-1.44,1.43-1.86,2.46-.5C286.1,372.28,282.16,381.87,279.46,382.17Z" transform="translate(-0.91 -0.88)"/><path d="M325.38,385.78c-6.72,1.11-13.55,1.64-20.09,3.88a1.53,1.53,0,0,1-1.92-1.17c-.48-1.51.74-1.63,1.68-1.71,4.66-.44,9.15-3,14-.9C321,386.71,323.23,386.18,325.38,385.78Z" transform="translate(-0.91 -0.88)"/><path d="M189.74,559.14a7.75,7.75,0,0,1,2.7,6.3c-.12,1.53-1.86,3-3,4.38a1.66,1.66,0,0,1-1.21.34c-1.5-2.57.89-6.13-2.13-8.34Z" transform="translate(-0.91 -0.88)"/><path d="M373.19,628.64c-3.15,3-7,4.05-10.72,5.25-.92.3-2.15.42-2.57-.73s.64-1.74,1.53-2.18A21,21,0,0,1,373.19,628.64Z" transform="translate(-0.91 -0.88)"/><path d="M309.3,553.22c.1,1.12.25,3-1.33,2.25-2.87-1.41-3.58-4.76-4.82-7.48-.48-1,.13-3,1.31-2.56C307.8,546.72,309,549.78,309.3,553.22Z" transform="translate(-0.91 -0.88)"/><path d="M305.68,652c0,1.15-.47,2.24-1.65,1.92a69.57,69.57,0,0,1-7.76-2.77c-.49-.2-.82-1.39-.15-1.7,1.35-.63,2.33-2.67,4.31-1.36C302.26,649.31,305.16,649.05,305.68,652Z" transform="translate(-0.91 -0.88)"/><path d="M402,550c.58,2.68-1.07,4.33-2.75,6-3.07,3-5.92,6.36-10,8.38C394,560,397,554.13,402,550Z" transform="translate(-0.91 -0.88)"/><path d="M238.51,541.44c-2.89-3.94-3.32-8.42-4.08-12.8a1.57,1.57,0,0,1,1.1-1.94c1.3-.28,1.57.9,1.84,1.8C238.64,532.73,237.61,537.15,238.51,541.44Z" transform="translate(-0.91 -0.88)"/><path d="M272.55,380.9c-.59-4.06.28-7.28.81-10.47.18-1.05,1.13-2.66,2.84-1.92,1.48.64.79,1.91.43,3C275.61,374.5,274.81,377.62,272.55,380.9Z" transform="translate(-0.91 -0.88)"/><path d="M260,588.06c5.43,3.21,10.51,6.81,13.7,12.5a.9.9,0,0,0,.05-.09c-3.77-2.82-7.58-5.62-11.28-8.56-1.22-1-2.87-1.87-2.36-3.95Z" transform="translate(-0.91 -0.88)"/><path d="M289.12,392.59c3.63-1.88,6.9-4.4,10.83,0C296.2,393.45,293,396.85,289.12,392.59Z" transform="translate(-0.91 -0.88)"/><path d="M267.56,406.48c3.21,2.69,2.77,5.45.87,8.16-.76,1.1-1.44-.06-1.94-.55C263.23,410.88,268,409.24,267.56,406.48Z" transform="translate(-0.91 -0.88)"/><path d="M252.14,379.51c-2.17.83-2.79-.95-4.06-1.17-1.51-.27-3.88.22-3.79-2.1.08-2.16,2.62-1.32,4-1.9,2.27-1,2.56,1.23,3.07,2.76C251.58,377.85,251.83,378.61,252.14,379.51Z" transform="translate(-0.91 -0.88)"/><path d="M224.15,317.9c-3.49-2.06-4.6-5.1-3.78-9.54,3.35,2.79,5.59,5.43,3.59,9.69Z" transform="translate(-0.91 -0.88)"/><path d="M329.84,356.63c5.44,4.13-.15,7.36.66,10.8.15.61-1.15.59-1.56.14-1.13-1.24-1.44-3.23-.33-4.08C330.94,361.73,330.59,359.62,329.84,356.63Z" transform="translate(-0.91 -0.88)"/><path d="M338.82,91.16c1.2-3.53,2.34-7.07,3.63-10.56a15.08,15.08,0,0,1,2.45-4.14C344.06,81.83,341.68,86.62,338.82,91.16Z" transform="translate(-0.91 -0.88)"/><path d="M283.66,396.8c1.42.64,3.21.59,3.15,2.09-.07,1.78-1.76,2.78-3.31,3.14a2.41,2.41,0,0,1-2.83-2.1C280.55,398,283,398.16,283.66,396.8Z" transform="translate(-0.91 -0.88)"/><path d="M48.85,706c-2.76-1.33-5.64-.6-8.89.87-5,2.26-15-6.71-14-12.12.67-3.51,12.14-12.39,15.57-11.28,5.38,1.74,10.73,1.51,16.17,1.47,2.17,0,3.91,1.47,2.68,3.52-3.1,5.17-2.47,12.1-7.9,16.16C50.81,705.86,51,706.15,48.85,706Z" transform="translate(-0.91 -0.88)"/><path d="M95.38,689.08c4.43.61,7.63-2.56,11.92-1.93,3.66.53,6.7.69,8.61,4.39,2.4,4.67,3.14,9.12-.62,13.4-1.85,2.11-3.88,3.95-5.25,6.57-1.22,2.35-3.7,3.23-6.42,1.58-3.25-2-6.62-3.74-9.81-5.79-3-1.91-6-11.91-4.59-14.93A5.31,5.31,0,0,1,95.38,689.08Z" transform="translate(-0.91 -0.88)"/><path d="M85.63,737.42c-.11.66,0,2.85-2.11,3.37-2,.49-2.2-1.48-2.76-2.83-2.38-5.71-6.88-2.84-10.72-2.61-1.33.09-2.57,2.33-3.88.55-1-1.3.59-2.42,1.23-3.51,2-3.4,2-7.24,2.54-11,.2-1.45-.25-3.12,1.75-3.65a3.85,3.85,0,0,1,4.09,1.15,15.42,15.42,0,0,1,2,2.25c2.34,3.8,3.85,8.09,7.07,11.37C85.73,733.48,85.9,734.94,85.63,737.42Z" transform="translate(-0.91 -0.88)"/><path d="M68.15,655.6c-3.3-3-5.63-2.12-8.35-1.69-13,2-23.88,10.39-37,11.93-.89.1-2,1-2.62-.21-.52-1.07.4-1.83,1.16-2.49,1.33-1.15,3-1.28,4.63-1.68,7.59-1.89,14.59-5.17,21.42-8.9a45.64,45.64,0,0,1,17.25-5.3C69.71,646.77,67.49,651.55,68.15,655.6Z" transform="translate(-0.91 -0.88)"/><path d="M67.32,772.44c-6.75-1-13-1.65-18.41,2.88-.41.34-1.66.44-1.77.24-3.23-5.84-12.76,2.24-14.65-6.64-.22-1.06-1.41-1.93-.08-3,1.05-.84,1.91-.65,3.09.09,6.22,3.93,12.51,5.15,19.6,1.56,4-2,8.83-.69,13.28-.68,1.93,0,2.54,1.43,2.3,3.11C70.36,772.19,68.49,772.17,67.32,772.44Z" transform="translate(-0.91 -0.88)"/><path d="M106.22,666.4c1.52-.8,2-4.82,4.67-2,2.27,2.34,4.25,5.1,3.84,8.71-.12,1.08-1.24,1.06-2,1-4.44-.15-8.88-.45-13.25.84-.77.23-2.15.48-2.51-.83s.68-1.76,1.58-2.19a6,6,0,0,0,3.56-4.48c.24-1.3-1.36-3.27.87-3.8C104.73,663.21,104.64,665.9,106.22,666.4Z" transform="translate(-0.91 -0.88)"/><path d="M69.19,675.22c-2.63,2.07,1.89,6.07-1.5,7.34-2.4.89-4.46-2.16-6.35-4s-4.07-1.31-6.12-.78c-4,1-7.91-.17-11.84-.44-.89-.06-1.75-.48-1.53-1.5s1.35-1,2-.7c6,2.58,11.92-1.56,17.94-.31,1.43.3,2.79-.93,3.9-2,.8-.74,1.85-1.36,2.62-.68C69,672.76,68.89,674,69.19,675.22Z" transform="translate(-0.91 -0.88)"/><path d="M112.24,736.33c-.33,2.86-2.71,3.29-4,4.74-5.13,6-7.75,5.74-11.77-.76A3.67,3.67,0,0,1,96,737c.66-1.76,1.87-.6,2.87-.36C103.28,737.68,107.61,735,112.24,736.33Z" transform="translate(-0.91 -0.88)"/><path d="M83.88,648.08l-.85-.92c-1.65-1.72.49-6-3-5.88-2.66.11-1.73,4.24-3.62,6.17-2.28-2.9-.93-7.12-3.7-9.84-.69-.67,5.39-2.52,7-1.21,1.83,1.49,3.5,2.69,6,3,1.61.18,2.16,1.72,1.44,3.51S85.85,646.61,83.88,648.08Z" transform="translate(-0.91 -0.88)"/><path d="M121.74,664.82c-4.56-7.08-9.68-13.74-15-21.06C114,645.1,120.73,654.75,121.74,664.82Z" transform="translate(-0.91 -0.88)"/><path d="M92,764.05c-2.62.07-5.39.07-5.26-3.56.11-3.09,1.25-6.8,4.62-6.64,3.63.18,4.11,4.35,4.62,7.39S94,764,92,764.05Z" transform="translate(-0.91 -0.88)"/><path d="M62.73,751c5.84-.56,3.11,4.75,4.88,7,.82,1-1.07,2.42-2,1.86-2.43-1.57-7.5,1.5-7.54-4.08C58.1,752.72,59.33,750.57,62.73,751Z" transform="translate(-0.91 -0.88)"/><path d="M11,670.71c-2.75-2.94-.6-5,0-7.19,1.38-4.62,4.51-7.9,8.19-10.78,1-.79,2-1.28,3-.08a1.6,1.6,0,0,1-.5,2.54C15.45,658.31,13,664.16,11,670.71Z" transform="translate(-0.91 -0.88)"/><path d="M113.23,719.81c3-2.22,4.12-5.25,4.86-8.57a4.42,4.42,0,0,1,3.56-3.67,1.79,1.79,0,0,1,2,1.13c.76,1.85-.43,3.35-1.37,4.53A19.14,19.14,0,0,1,113.23,719.81Z" transform="translate(-0.91 -0.88)"/><path d="M52,740.88c-.11,1.34-1,1.39-1.79,1.56-4.59,1-8,3.84-11,7.2-.57.63-.87,1.51-1.85.94-1.29-.77-1.51-2.12-1.48-3.49,0-.81,0-1.65,1.26-1.65,4,0,6.78-2.7,9.83-4.71a5.2,5.2,0,0,1,4.25-.68C51.56,740.13,51.8,740.67,52,740.88Z" transform="translate(-0.91 -0.88)"/><path d="M36.16,731.72c1.32.47,4-.85,3.61,1.9-.34,2.56-1.76,5.73-4.34,6-2.16.2-3.44-3-3.64-5.17C31.51,731.46,34.27,732,36.16,731.72Z" transform="translate(-0.91 -0.88)"/><path d="M77.88,761.76c-2.56-.15-4.48-1.31-4.53-3.79s2.27-3.29,4.16-3.57c2.4-.34,2.86,2,3.15,3.65C81,760.08,80.15,761.62,77.88,761.76Z" transform="translate(-0.91 -0.88)"/><path d="M29.76,637.75c-2.07,4.8-6.82,5-9.48,7.92a1,1,0,0,1-1.67-.11A1.74,1.74,0,0,1,19,643C21.92,640.34,25,638,29.76,637.75Z" transform="translate(-0.91 -0.88)"/><path d="M86.23,773.21c-.33-.05-2-.2-3.58-.55-1.15-.25-3.07,0-2.48-2.12.44-1.59,2.06-1.77,3.29-1.4a17.93,17.93,0,0,0,5.81.88c1.44,0,3.55-.3,3.43,1.72S90.42,773,89,773.2C88.55,773.26,88.05,773.21,86.23,773.21Z" transform="translate(-0.91 -0.88)"/><path d="M48.92,723.35c-1.55-.5-3.47.57-3.72-1.23-.23-1.64,1.66-1.94,2.84-2,2.52-.12,5-2.31,7.54-.33.39.31.63,1.57.44,1.71C53.79,723.17,51,722.48,48.92,723.35Z" transform="translate(-0.91 -0.88)"/><path d="M20.78,693.66a15.68,15.68,0,0,1,0,1.71c-.09,1.08.24,2.59-1.51,2.53-1.4,0-1.06-1.35-1.19-2.27s-.31-1.94-.52-2.9c-.31-1.4-1.27-2.77-.31-4.24a1.15,1.15,0,0,1,1.72-.22C20.63,689.37,21.4,690.88,20.78,693.66Z" transform="translate(-0.91 -0.88)"/><path d="M87.14,713.88c-.07,1.47,0,3.1-1.25,2.62-2.39-.88-2.78-3.51-3.53-5.65-.32-.92,0-2.59,1-2.31C86.18,709.31,86,712.34,87.14,713.88Z" transform="translate(-0.91 -0.88)"/><path d="M15.36,732.47c2.83.33,3.73,2.72,5.39,4,.89.71,1.87,1.68.56,2.8a1.91,1.91,0,0,1-2.64-.44C17.45,737,15.06,735.56,15.36,732.47Z" transform="translate(-0.91 -0.88)"/><path d="M35.87,716.06c-3-1.58-5.08-2.67-7.17-3.79-1-.53-1.62-1.46-1.08-2.44.63-1.14,1.72-.66,2.56-.06C32.22,711.24,34.37,712.64,35.87,716.06Z" transform="translate(-0.91 -0.88)"/><path d="M20.29,699.68c3.1,2.25,3.82,5.13,4.76,7.89C22.22,706,19.22,704.59,20.29,699.68Z" transform="translate(-0.91 -0.88)"/><path d="M98.48,648c4.69,3.24,4.6,4.31.17,7.59C98,653.05,99.92,651,98.48,648Z" transform="translate(-0.91 -0.88)"/><path d="M746.22,18.08a30.65,30.65,0,0,1-21-5c-1.61-1.08-4.14-1.74-3.24-4.28.81-2.27,2.89-.51,4.39-.6Q747,7.05,767.6,6a34.73,34.73,0,0,1,5.49.21c1,.11,2.61-.66,2.93,1,.24,1.22-.78,2.08-1.81,2.73C765.61,15.32,756.57,19.25,746.22,18.08Z" transform="translate(-0.91 -0.88)"/><path d="M805,32.49c.1,12.51-2.74,22.62-7,32.43-.57,1.34-1.39,2.64-2.71,2.53-1.91-.16-1.13-2-1.28-3.23-.77-6,1.18-11.84,1-17.86-.29-11.23-1.91-22.48-.14-33.72.2-1.29-.29-3.1,1.21-3.49s2.07,1.3,2.76,2.39C803.26,18.46,805.62,25.93,805,32.49Z" transform="translate(-0.91 -0.88)"/><path d="M787.21,11.44v9.13c0,13.52,0,27,0,40.56,0,1.53,1,3.91-.94,4.41-2.42.64-1.75-2.11-2.47-3.4-9.14-16.2-4-32.24.49-48.29a2.77,2.77,0,0,1,.84-1.18A16.43,16.43,0,0,1,787.21,11.44Z" transform="translate(-0.91 -0.88)"/><path d="M808.19,7.51h16.66c9.11,0,18.22,0,27.33.11,1.49,0,3.75-.93,4.08,1.52s-2,1.47-3.25,1.95c-7.9,3-16.32,3.81-24.5,5.62-4.22.93-7.54-2.16-11.3-3.26-3.22-.93-6.11-2.94-9.15-4.48C808.1,8.48,808.14,8,808.19,7.51Z" transform="translate(-0.91 -0.88)"/><path d="M776,780.35a8.42,8.42,0,0,1-5.89,1.85c-12.19-.21-24.4-.59-36.57.79a12,12,0,0,1-3,.16c-1.37-.17-3.43.79-3.94-1-.62-2.26,1.77-1.74,2.94-2.37a23.39,23.39,0,0,0,3.28-2.23c12.55-9.79,29.44-6.52,40,.37C773.8,778.5,774.65,779.29,776,780.35Z" transform="translate(-0.91 -0.88)"/><path d="M852.68,786.09c-7.86-3.42-16.7-.57-25.32-2.28-4.14-.82-9.14-2-13.7,0-1,.46-2.51.58-3.14-.61-.87-1.62.58-2.57,1.71-3A95.44,95.44,0,0,1,828.16,775c9.75-2.16,17.92,1.9,26,6.38,1.28.71,3,1.35,2.72,3.14C856.52,786.63,854.5,785.64,852.68,786.09Z" transform="translate(-0.91 -0.88)"/><path d="M797.23,767.72c.24-11.63,1.47-23.26-.5-34.86-.21-1.28-.05-3.12,1.37-3.37,1.67-.3,1.59,1.62,2.13,2.78,4.47,9.65,5.06,19.92,4.6,30.26-.23,5-3.6,9.23-4.92,14a1.5,1.5,0,0,1-1.85,1.23c-1-.31-.8-1.32-.81-2.1C797.21,773,797.23,770.38,797.23,767.72Z" transform="translate(-0.91 -0.88)"/><path d="M789.08,726.9c-.59,13,1,25.45-.9,37.81-.56,3.74,1.32,7.17.83,10.82-.14,1.07.39,2.6-1.25,2.81-1.09.14-1.65-1-2.08-1.88-3.4-7.29-5.55-14.74-3.87-22.94,1.5-7.36,2.71-14.78,4-22.19C786,729.66,786.24,728.11,789.08,726.9Z" transform="translate(-0.91 -0.88)"/><path d="M115.49,3.37C119.62,9.84,120.85,16,121.94,22c1.58,8.6,2.13,17.4-.39,26.09-1,3.55-3.48,6.33-4.63,9.78a1.84,1.84,0,0,1-1.56.81c-.92-.14-1.24-.92-1.1-1.88,1.78-12.35.49-24.76.6-37.14C114.9,14.71,114.55,9.81,115.49,3.37Z" transform="translate(-0.91 -0.88)"/><path d="M709.71,524.87c1.8,4.72-.11,9-4.44,9.08-6.13,0-12.14,1.58-18.31,1-5.08-.44-6.87-2.52-5.87-7.43,1.68-8.24,9.87-12.7,17.74-9,3.41,1.59,4.66,5.41,4,9.39-.21,1.24-1.39,2.8,0,3.58,1.61.87,2.5-1,3.7-1.83C708.35,528.52,707.71,525.85,709.71,524.87Z" transform="translate(-0.91 -0.88)"/><path d="M176.92,116.09c8.88,4.31,11.29-3.21,16-9.07,0,7.46-1.19,13.34-4.82,18.22-4.36,5.89-6,12.18-6.07,19.42,0,7.4-1.24,14.66-8.78,18.81-4.22,2.31-10.18-.38-10.9-5.14a2.81,2.81,0,0,1,.58-2.26c1.18-.94,1.52.36,2.14,1.08,1.22,1.42,2.47,4,4.67,1.92,2.37-2.22,6.27-3.58,5.94-7.81-.14-1.84-1.15-2.15-2.58-.8s-3.27,2.56-4.79,1c-1.87-1.88-2.2-5.58-.64-6.87,8.81-7.28,6.36-17.94,8.86-27.08C176.66,117.21,176.73,116.89,176.92,116.09Z" transform="translate(-0.91 -0.88)"/><path d="M870.06,338.36c.18,2.42-7.28,9.88-8.49,9.69a3,3,0,0,1-1.63-1,1.68,1.68,0,0,1,.55-2.56c4.26-3.07,5-6.08.16-9.32-1-.65-1.69-1.67-.6-2.91s2.26-.94,3.38.08C865.86,334.58,868.31,336.78,870.06,338.36Z" transform="translate(-0.91 -0.88)"/><path d="M711.37,443.28c-3.92-.33-7.42-1.12-8.53-5-.55-2,5.33-5.49,8.64-5.48,4.55,0,7.88,2.28,7.44,5.38C718.28,442.65,714.44,442.69,711.37,443.28Z" transform="translate(-0.91 -0.88)"/><path d="M781.79,585.05c-.63,2.61-1.71,4.76-4.77,4.92-2.27.12-3-1.49-2.74-3.24a5.58,5.58,0,0,1,5.1-4.76C781.16,581.76,781.74,583.43,781.79,585.05Z" transform="translate(-0.91 -0.88)"/><path d="M687.57,645.16c-1.77-.41-5.05-.16-4.93-3.07.13-3.17,3.54-3.59,6.15-3.77,1.84-.13,4.22-.17,4.26,2.82C693.1,644.64,690.61,645,687.57,645.16Z" transform="translate(-0.91 -0.88)"/></g></g></svg>