<svg xmlns="http://www.w3.org/2000/svg" viewBox="0 0 859.18 872.99"><title>godsmedicine</title><g id="Layer_2" data-name="Layer 2"><g id="Layer_1-2" data-name="Layer 1"><path d="M714,1c3,3.53,8.62,4.61,9.31,10.31.12,1.06,1.31.72,2,.09.83-.81,1.58-1.71,2.35-2.58,4.93-5.55,11.66-5.52,16.24.27,2.35,3,4.67,6.1,5,10.1.22,2.41,1.71,2.69,2.81,1.08,3.19-4.66,7.32-7.61,12.63-4.81,5.56,2.94,9.45,7.89,9.3,14.72-.08,3.39,1.55,3.74,4.27,3.78,7.82.12,13.78,6.89,13.07,15.1-1.73-1.14-2.13-3.31-4-4-3-1.16-6,.89-7,4.91-2.09,8.43-5.61,10.32-12.89,7.07-1.58-.7-1.05-1.95-1-2.95.17-3.37-1.47-4.27-4.59-4.18-4,.11-4-.07-6.54-2.7,3.45.33,7.24,2.43,9.67-.18a38.07,38.07,0,0,0,8.07-13.55c1-2.93-1.09-5.24-3.83-6.08-3-.93-5.49.38-7,3.35-1.1,2.22-.5,5.42-4.07,6.25-3.91.9-6.74-1.57-10-2.74-1.82-.66-2.44-2-1.44-4.19,1.42-3.15,2.38-6.64.89-10.07-1.13-2.61-2.67-5.63-6-4.83-2.77.65-4.5,3.18-4.93,6.21a20.8,20.8,0,0,1-.21,3c-.91,3-2.76,5.49-5.92,6.17-3.39.74-6.17-2.13-7.4-4.07s-.07-5.71.26-8.64c.46-4.1-1.34-6.54-5.31-6.86-4.42-.36-5.66,2.9-5.91,6.46-.37,5.27-1.66,9.56-8,9.89-1.13.06-1.88.56-1.76,1.87.08,1,1.31,2.59-.84,2.51-1.4-.06-1.47-1.66-1.44-2.81,0-2.56-.93-4.89-1.48-7.32-.5-2.23-1.32-4.57-3.91-4.4a5.14,5.14,0,0,0-4.63,4.61c-.4,5.42-1.42,10.14-6.76,13-1.11.59-1.2,2.62-.11,3.59,1.76,1.56,3.24,3.92,6.36,3,1.61-.48,3.1-1.79,5.27-1.36-3.8,4.35-10,4.38-12.9.46A27.48,27.48,0,0,0,679,38.06c-1.28-1.32-1.47-4.49-3.93-3.7-2.91.94-4,3.82-4.09,6.84a15.13,15.13,0,0,1-1,4.83c-1.67,4.8-5.13,5.51-9.86,4.64,4.1,2.6,5.87,7.76,11.74,8.32-2,2.14-2.68,5-6,1.53-2.49-2.6-5.39-1.1-7.33,2.82-.86,1.75-.73,3.55-.79,5.37-.2,6.08-1.75,8-7.56,9.13-.78.16-1.75-.12-2.06.91a1.72,1.72,0,0,0,1,2c2.78,1.55,4.91,4.64,10.39,2.93-3.35,2.93-3.81,4.79-1.81,7.17a8.83,8.83,0,0,1,1.91,7.05c-.16,1.08.3,2.77-1.25,2.81-1.88.05-1.13-1.64-1-2.66a8.4,8.4,0,0,0-1.25-5.23c-1.2-2.15-2.52-4.13-5.35-3.54S646.43,92,646.2,95c-.11,1.32.08,2.68-.09,4-.55,4.4-9.4,9.61-12.06,6.63-1.9-2.13-3.87-6.35-2.23-10,1.48-3.34,1.59-7.23,4-10.16,1.64-2-.42-2.41-1.77-3.8,3.21-.28,4.81-4.39,8.65-2,.64.4,2.74-.6,3.44-1.51,1.1-1.43-.74-1.79-1.58-2.42-1.3-1-1-2.31-.94-3.64q.17-4.24.22-8.49c0-2.69-1.07-4.53-3.92-4.84-2.67-.29-5.06.14-6,3.17a19.77,19.77,0,0,0-.87,3.86c-.68,7.42-3.88,9.64-10.86,7.39-1.5,1.39,1.19,2.17.52,3.41-.27,0-.79.08-.83,0-1.61-4.48-3.83-8.88-2.05-13.86a2,2,0,0,0,.1-.49c.31-3.51,4.61-11.63,7.25-14.08.94-.86,1.67-.67,2.68-.39,5.62,1.52,11.21,3.08,13.76,9.16.95,2.24,1.73,2.61,3.21.3s3.34-4.64,6-5c5.2-.71,5.05-3.52,4.55-7.69-.63-5.31.18-10.65,4-14.91a10.61,10.61,0,0,1,9.83-3.78c3.74.56,4.91-.77,4.83-4.59a14,14,0,0,1,10.2-13.6c3.58-1.09,6.2.29,8.66,2.4,2.26,1.94,3.8,2.21,5.21-1,1.6-3.59,4.51-6.11,7.9-8Z" transform="translate(-13.8 -1)"/><path d="M181,1c2.36,2.12,4.56,4.39,5.52,7.5.8,2.61,2.17,1.92,3.72.86,8.35-5.66,17.28-2.49,19.69,7.29,1,4,1.28,6.64,7,7,8.32.51,15.11,14,11.61,21.53a7.58,7.58,0,0,1-6.29,4.18c-2.8.16-4.75-1.4-5.76-4a14,14,0,0,1-1.33-4.77c0-3.56-1.43-7.4-4.71-6.88A7.88,7.88,0,0,0,204,41.23a7.37,7.37,0,0,1-.38,1.6c-3.09-1.77-6.1-3.46-9.91-1.66,1.1-2.54,2.92-1.79,4.31-1.74,3,.13,4.58-1.64,5.67-4,1.34-2.92-1.44-2.94-2.84-4.13a10.69,10.69,0,0,1-4.11-7.7,10.33,10.33,0,0,0-1.21-4.77c-1-1.84-2.42-3.32-4.63-3.21s-2.19,2.21-2.84,3.67c-.34.76-.6,1.56-1,2.3-.76,1.56,1.11,4.93-2,4.6-3.34-.35-7.66.54-9.54-3.84A15.18,15.18,0,0,1,174,15.09c.19-2.41-.56-4.51-3.06-5-2.18-.45-4.78-1.19-6.57.8-1.51,1.69-2.63,3.52-1.39,6.29s2.2,6-1,8.56c-6.46,5.22-9.33,4.37-12-3.73-.46-1.41-.54-2.95-1.06-4.33a6.83,6.83,0,0,0-4.53-4.3c-2.4-.71-3.63,1-4.75,2.72-.42.65-.7,1.58-1.8,1.41-.53-4.06,4-11.48,8.17-13.36a10.22,10.22,0,0,1,12.82,3.44c2,2.74,3.12,2.8,4.93-.06A73.16,73.16,0,0,1,169,1Z" transform="translate(-13.8 -1)"/><path d="M651,1c1,2.41,3.22,3.75,4.77,5.67,1.05,1.29,3,2.38,1.24,4.78-2.07-2.28-4.08-4.47-6.59-7.24-1.31,4.66.51,8.91-2.34,12.65-1.1,1.44,2,1.06,3.26,1.32,1,.21,2.25.24,2.25,1.45,0,1.4-1.33,1.15-2.29,1.14-3.25,0-6.56.17-10.36-2.21,4.66-.25,4.21-2.58,3.15-5.06s-1.39-4.61,1.65-5.66c1.19-.41,1.75-1,1.44-2.08-.42-1.49-1.69-1.45-2.86-1.1-3.55,1-5.08,3.9-6.13,7.11-.49,1.51.3,3.33-1.05,4.7-1.72-3.9-1.44-6.76,1-9.38C640.05,5,642,3,644,1Z" transform="translate(-13.8 -1)"/><path d="M245,1a15.81,15.81,0,0,0,3.64,5.27c1.93,1.66,1.42,3-.67,4.61-.94-2.33-1.27-4.72-3.16-6.18-.92-.7-2-1.78-3.08-1.12s-.47,2,.08,3.1a5.91,5.91,0,0,1,.92,2.26,5.69,5.69,0,0,1-3,5.37c-1.18.7-1.85-.25-2.48-1A4.36,4.36,0,0,1,237,7.48c.75-1,2.57-1.74,1.29-3.09s-3-.74-4.63,0c-2.52,1.17-3.11,3.84-4.39,5.85-2.46,3.84-3.4,4.16-8.49-.46,6.46,3.39,7.29,0,8.6-3.7.7-2,3.06-3.4,4.67-5.08Z" transform="translate(-13.8 -1)"/><path d="M873,491c-9.49,3-17.6,1.74-24.9-2.22-9.59-5.2-22.79-10.65-31.83-10.79-5.43-.09-10.76,1.49-16,3.43-11.5,4.29-23.07,8.79-35.7,6.8a79.83,79.83,0,0,1-16.25-4.11c-11.91-4.6-22.89-11-33.53-18.14A187.63,187.63,0,0,0,688,450.65c-9.65-4.37-20.23-8-30.78-7.14-7.61.58-15.64-1.29-23.09,2.29-2.33,1.11-5,.7-3.25-3.3.51-1.17.35-2.62.59-3.92s2.16-2.32.81-3.51-2.67.48-3.85,1.21c-4.35,2.67-6.73,6.89-8.32,11.47-2.88,8.3-8,14.06-16.84,15.86-3.2.65-3.83,3.19-4,5.58-.34,4.51-2.63,7.05-6.81,8.07a6,6,0,0,0-4,3.46c-2.7,5.13-6.65,8-12.77,7.66-3.37-.22-6.45,1-7.45,4.52-1.5,5.3-5.33,7.46-10.2,8.19-8.56,1.28-14.21,5.54-16.7,14.16-.88,3-3.13,5.82-5.16,8.4-3.22,4.09-4.17,8.94-5.14,13.77a14,14,0,0,1-2.47,5.33c-1.14,1.68-2.41,2.7-4.53,2.34s-3.13-1.8-3.66-3.65c-1.34-4.64-3-9.23-3.79-14A24.46,24.46,0,0,0,508.46,513c-5.54-4.77-7.47-11.14-10.21-17.27a39.76,39.76,0,0,0-2.95-5.78c-1.63-2.47-3.22-3.69-6.19-.85-5.31,5.06-8.79,4.46-13-1.65-1.15-1.68-2.59-1.23-4-1.21-2.7,0-4.68-.58-4.3-3.87.3-2.57-.78-3.6-3.38-3.65-3.2-.06-3.64-2.45-4.91-5-2.87-5.81-3.15-11.17-2.15-17.49.47-3-3.11-6.74-5.25-9.88-1.87-2.73-4-5.23-5.54-8.25-1.3-2.57-4.14-3.73-5.9-.76-3.29,5.57-7.92,10.26-10.47,16.32-.95,2.26-1.41,4.05-.33,6.56,1.38,3.21,1.85,6.81-1.48,9.55-.13.1-.36.2-.37.32-.41,5-1.87,9-8,9-.28,0-.58,1.74-.82,2.68s-.12,2.44-.7,2.78c-3.44,2-7.11,3.1-10.4,6-2.75,2.43-8.33,1.49-11.66-2.34-1.66-1.91-3-.79-4.1.58a27.76,27.76,0,0,0-4.63,8.77c-1.49,4.46-3.34,9.08-6.69,12.14-6.88,6.28-10.38,14-12.28,22.79a73.83,73.83,0,0,1-2.75,9.06c-1.47,4.16-5.24,4.79-8,1.39a11.87,11.87,0,0,1-2.7-6.35c-.65-6.66-3.74-12.26-7.71-17.39a26.15,26.15,0,0,1-3.33-6.08c-2.75-6.58-7-11-14.66-11.79-5.06-.52-9.68-2.29-11.39-8.13-1.09-3.74-4.39-4.79-7.9-4.83-5.43-.07-9.78-1.71-12-7.12a5.7,5.7,0,0,0-3.47-3.43c-5.05-1.56-7.48-5.05-8.16-10.15-.23-1.75-.72-4.08-3.09-3.86-2.89.26-1.51,2.87-1.56,4.37-.19,5.59-.07,11.18-.07,16.88-2.42-.36-2-1.73-2-2.8,0-3.66-.17-7.34.06-11,.34-5.36.32-9.71-6.22-12.21-3.24-1.24-6.06-5.17-6.91-9.7-1.08-5.74-4.53-10.26-9.35-13.63-.92-.65-1.93-1.63-3.12-.72s-.77,2.07-.31,3.19a18.76,18.76,0,0,1,1.17,2.75c.94,3.84-.76,5.7-4.47,4.44a54.06,54.06,0,0,0-20.06-2.74c-9,.42-17.5,2.66-26,5.56-15.93,5.43-29.11,15.69-43.52,23.79-10.39,5.84-20.87,11.24-32.55,14.42a49.36,49.36,0,0,1-28.09-.3c-7.15-2.13-14.09-4.77-21.19-7-9.26-2.87-18.17-.41-27.23,2.48-6.83,2.18-12.4,6.56-19,8.77-5.52,1.85-11.33,2.18-17.08,2.73a2.11,2.11,0,0,1-2.22-1.7c-.27-1.36.94-1.64,1.94-1.65,4.29,0,8.63.47,11.56-4,.49-.74,2.78.18,4.08.93.87.49,1.66.44,2.11-.45.67-1.32-.07-1.46-1.29-1.73-2.65-.57-1.18-1.85,0-2.44,11.08-5.74,20.09-15.74,33.43-16.81A187.45,187.45,0,0,1,84.43,465c13.77.31,26.36-3.89,38.55-9.69,11.58-5.52,20.58-14.1,29.58-23.13,11.86-11.89,21.73-25.48,33.5-37.36,5.08-5.13,12.18-7.31,18.39-10.8,11.83-6.64,24.66-4.84,36.36-2,14.18,3.43,25.8-1.24,37.95-6.19,7.08-2.88,14.18-4.62,21.45-.66.86.47,1.53,1.28,2.39,1.78,1.18.68,1.42,3.22,3.36,2.19s1.71-3.09,1.52-4.93c-.53-4.92-3.48-7.52-9.41-7.49-4.1,0-7.43-.89-10.27-4-2.45-2.65-5.88-2.42-8.91-1.62-5.46,1.44-10.95.61-16.42.93a3.9,3.9,0,0,1-4-2.31c-2.6-5-6.8-5.39-11.5-3.68a16.43,16.43,0,0,1-7.31,1.14c-1.87-.19-4.31.91-5.33-1.53a6.81,6.81,0,0,1,1-7.51,33.39,33.39,0,0,1,18.06-10.86c9.81-2,17.82-6.74,25.43-12.69a40.69,40.69,0,0,1,9.16-5.92c5.63-2.35,7.28-1.37,7.51,4.74a5.74,5.74,0,0,0,.61,1.52,11.45,11.45,0,0,0,5.43-6.07c4-9.79,12.83-12.76,22.06-13.76a54.57,54.57,0,0,0,23.77-7.82,50.42,50.42,0,0,1,31.81-7.5c5.73.48,9.95,5.31,10.4,13A31.68,31.68,0,0,0,395.38,319c7.43,10.94,8.44,22.66,4.93,35.1-1.76,6.27-5.11,11.91-7.35,17.92-3.26,8.73-6,17.86-5.4,27.43.76,11.22-3.15,20.88-9.46,29.74-4.27,6-10.44,9.17-17.66,10-3.33.38-6.23,2.22-9.74,2.36,4.23,1.45,8.67,1,12.8,2.48,6.88,2.4,14.09,1.82,21.21,1.84a7.85,7.85,0,0,1,3,.32c2.58,1.08,4.81,2.23,1.28,5.11a97.64,97.64,0,0,0-14.63,14.82A51.28,51.28,0,0,0,363.77,490a9.05,9.05,0,0,0,.08,2.49c0,.27.35.5.79,1.07,6.07-6.62,8.47-15.18,12.66-22.7,2.5-4.49,4.44-9.23,8.93-12.34a23.63,23.63,0,0,0,8-10c1.86-4.17,5.26-5.74,9.58-5.84a16.84,16.84,0,0,0,4-.17c6-1.66,15.75-17.94,14.53-24-.22-1.08-.1-2.54-1.72-2.6-1.22-.05-1.61,1.1-1.94,2a50.78,50.78,0,0,0-2.7,8c-.95,5-4.87,7.24-8.31,10a1.83,1.83,0,0,1-3-.55c-1.65-3.23-3.72-5.87-7.43-6.89-1.13-.31-1-1.58-1.32-2.5-.57-1.55-.93-3.94-2-4.4-5.24-2.2-3.18-5.43-1.38-8.34,2.85-4.61,2.39-9.66,2.21-14.55-.34-9.23.92-11.12,10.37-11.52,4.35-.18,8.34-2,12.74-1.93,2,0,4.48-1.15,3.49-4.63-2.43-8.53-4.76-17.1-6.75-25.74-1.89-8.2-4-16.45-4.72-24.79-.93-10.9-4.73-21.44-3.95-32.52.18-2.53-.05-4.71-2.33-6.66s-3.67-4.85-1.87-8.06c1-1.81.17-2.66-1.35-3.53a13.35,13.35,0,0,0-7.59-1.94c-4,.23-8.06.23-11.41-2.54-2.22-1.84-4,.64-6.11.54-5.49-.27-11-.07-16.5-.09-15.66,0-31.32-.07-47-.18a6.13,6.13,0,0,0-3.31.66c-4.51,2.52-9.34,1.95-14.11,1.16-1.14-.19-2.38-1.05-3.29-.13-5.39,5.45-12.63,3.08-18.94,4.37-14.77,3-29.88,4.25-44.48,8.39-3,.83-6.45,1.91-9.22,1.44-9.22-1.55-16.59,3.95-24.51,6.31a274.27,274.27,0,0,0-33.51,12.42c-11.32,5-23,9.31-34.18,14.7-3.9,1.87-7.89,3.51-11.27,6.33-1.72,1.43-3.89,1.68-6.71,1.39,2.35-5.18,6.85-7.71,10.82-10.6,13-9.42,27.59-16.12,41.5-23.95a184.4,184.4,0,0,1,28.38-13c10.71-3.83,21.16-8.37,31.92-12,9.38-3.2,19-5.64,28.55-8.38,9.08-2.62,18.07-5.71,27.29-7.64,10.34-2.15,20.72-4.31,31-6.58,8.56-1.89,17.28-2.47,25.83-4.5a223.48,223.48,0,0,1,31.81-4.73c8.73-.79,17.47-2.15,26.32-1.57,3.12.2,6.08-1.41,9.09-2.12,5.48-1.31,10.79-1.52,16.34-1.79,4.06-.19,5.88,1.75,8.65,3,4.66,2.08,9.79,1,14.71,2,5.74,1.18,12,.52,17.91,0,2.38-.21,6.05-.23,6.1-4.43a1.6,1.6,0,0,1,1.65-1.56c5.79-.24,11.68-1.63,17.31.62,3.59,1.43,8.51.33,10.45,5.29.19.48,2.18.32,3.34.33,4.66,0,9.34.23,14,0,11.7-.59,23.13,2.14,34.35,4.31,7.25,1.4,14.69,1.22,21.75,3.34,11.35,3.39,23.07,5.18,34.61,7.55,18.57,3.82,36.31,10.39,54.64,15,13,3.24,25.22,9.07,37.85,13.56,19.24,6.83,36.67,17.22,54.4,26.95,9.46,5.19,19.31,10.24,26.83,18.43.91,1,3.25,1.73,2,3.4s-3,.3-4.44-.51c-7.2-4.09-14.62-7.72-22-11.38-9.58-4.71-19.76-7.84-29.53-12-13-5.57-26.43-10-39.9-14.44-9.31-3.06-19.05-2.77-28.14-5.83-9.32-3.13-19.16-3-28.64-5.43-7.74-1.94-16.11-1.59-24.05-3.34-27.9-6.16-56.23-2.4-84.32-3.91-9.66-.52-18.6,2.53-28,3-2.2.11-5,.8-3.12,4.4,1.09,2.12-.21,4.15-1.49,5.46-2.62,2.69-2.82,5.77-2.77,9.18.12,7-1.36,13.81-3,20.61C477,324,478,329.56,476.4,334.92c-2.74,9.11-3.23,18.71-6.69,27.75-2.44,6.38-3.19,13.41-4.65,20.16-.48,2.21,1.11,2.67,2.67,2.52,7.17-.67,13.43,3.48,20.49,3.63,3.86.09,5.1,3.48,4.37,8.5-.89,6.06-.69,12.07,2.61,17.53,1.66,2.74.48,4.13-1.2,6.71-3.17,4.89-8.22,7.95-11.06,12.79-1.75,3-3,2.06-5.09.93-6.12-3.32-6.58-9.91-9.16-15.3-.72-1.5.1-4.55-2.38-4.29-3,.31-1.59,3.44-2.16,5.34-1.31,4.38,2.61,6.52,4.14,9.61,2.42,4.91,5.3,9.62,10.72,12.05,1.56.69,3,1.47,4.72,1.27,5.21-.6,8,2.23,9.87,6.64.44,1.06.72,2.49,1.55,3.06,11.53,7.86,15.24,20.92,21.62,32.21a43.2,43.2,0,0,0,5.53,7.65c1-5.31-.73-10.07-2.71-14.81-4.55-10.88-12.53-19-21.16-26.66-1-.85-2.51-1.36-2.21-3s2-2.18,3.43-2.43a49.09,49.09,0,0,1,7.91-.87c9.31-.07,18.35-2,28-3.5-1.52-2.12-3.26-1.28-4.67-1.43-7.58-.82-14.91-3.1-20-8.63a45.65,45.65,0,0,1-10.14-18.46c-2.14-7.25-1.84-14.34-2.23-21.54a52.55,52.55,0,0,0-5.63-21.54,91.1,91.1,0,0,1-7.28-19.55c-2.76-10.93-.74-21.11,5.08-30.57,3.35-5.45,6.14-11.11,6.79-17.49,1.45-14.15,10.5-14.77,21.93-12.74,8.83,1.56,17,5.4,24.62,10.47,4.33,2.91,9.2,4,14.59,4.19a34.73,34.73,0,0,1,24,10.08,5.09,5.09,0,0,1,1.72,2.92c.54,4,3.35,6.27,6.28,8.44,1.73-1,.78-2.07.44-3.08-.61-1.86-.77-3.75.92-5s3.43-.54,5.18.22c6.7,2.88,11.93,7.9,17.6,12.2a31.34,31.34,0,0,0,14.54,6c8.08,1.15,13.87,5.88,20.12,10.13a8.1,8.1,0,0,1,2.82,4c1.27,3.27-.53,6-4,6.1-3.65.08-7.31.29-10.91-.86-2.89-.92-6.17-.65-7.73,2-4.59,7.72-11.78,5.42-17.82,4.19-5.73-1.17-10.53-2.42-14.86,2.64-1.69,2-4.21,1.52-6.56,1.53-4.15,0-7.89,1.19-10.48,4.71a5.45,5.45,0,0,0-.84,5.55c1.15,3.23,1.93,4.45,4.75,1.17,5-5.79,10.58-6.47,19-3.68,8.78,2.9,16.84,7.85,26.31,8.93a52.09,52.09,0,0,0,13.83-.19c12.14-1.81,24.56-5.4,36.43.42,8.48,4.17,17.25,7.87,23.91,15.37,12.35,13.87,23.6,28.73,37.39,41.34,9.94,9.09,21.28,15.27,33.72,20.34,9.79,4,19.57,4,29.63,4.46,9.26.43,18.75-.45,27.53,4,5.63,2.87,11.55,5.21,15.79,10.18,1.33,1.55,3.65.72,4.89,2.2.88,1,4.72,1.95.34,3.58-.73.27-.71,1.06-.34,1.67a1.1,1.1,0,0,0,1.72.25c3.12-2.35,5.38-1.61,7.26,1.68.85,1.49,2.61,1.15,4.11,1.2C867.44,489.88,869.75,489.23,873,491ZM269.72,268.47c-.07-2.69,2-2.59,3.4-3.08,10.49-3.78,21.6-4.86,32.43-7,11.15-2.23,22.44-4,33.74-5.54,7-1,14-2.42,21-2.22,11.66.34,22.94-3.07,34.55-2.68a2.5,2.5,0,0,0,2.85-2.21,3.22,3.22,0,0,0-2.12-3.58,13,13,0,0,0-4.42-.48,217.37,217.37,0,0,0-34.67,2.93c-10.88,1.75-21.81,3.62-32.68,5.07-14.84,2-29.21,5.78-43.72,8.89-16.73,3.58-33.07,9.07-49.5,14A418.48,418.48,0,0,0,176.36,293c-10.22,4.68-20,10.42-29.93,15.63-3.66,1.91-7.64,3.32-10.56,6.87,2.32.86,3.59-.55,5-1.15,9.65-3.93,19.27-7.92,28.91-11.86,12.78-5.22,26.9-6.92,38.64-14.85a2.57,2.57,0,0,1,1.87-.42c9,2.59,17.31-1.59,25.84-2.74,12.57-1.69,24.92-5,37.63-6.23,5.74-.58,12.06,0,16.69-4.87,1.11-1.17,2.36-1,4-.41,4.27,1.43,8.72,2,12.69-1.12a4.13,4.13,0,0,1,5.43-.32,14.31,14.31,0,0,0,11.48,2.08c10.81-2.81,21.81-1.57,32.6-.87,7.38.49,14.48,1.58,21.59-1.08.76-.28,2-.73,2.35-.4,5.25,4.62,12.11,1.15,17.77,3.63,1.3.57,3.3,1,3.67-1.12,1.2-6.83-1.78-12.75-5.11-18.22-2-3.33-5.72-1.07-8.72-.53a22.86,22.86,0,0,1-3,.11c-10.43.5-20.84,0-31.33,1-13.35,1.27-26.76,2.08-40,4.24C299.21,262.77,284.54,265.73,269.72,268.47Zm483.92,50a4.62,4.62,0,0,0-2.79-3.12c-5.69-3.07-11.41-6.07-17.1-9.12-12.87-6.91-25.51-14.49-39.27-19.31-11.67-4.1-23.13-8.79-35-12.35-12.5-3.72-25.07-7.21-37.64-10.65q-23.73-6.52-47.85-11.49c-8.39-1.72-17.05-1.7-25.23-4.47-6.09-2.06-12.72-.2-18.7-2-12.5-3.83-25.29-2.84-38-3.31-2.78-.11-3.07,2.26-3.68,4-.87,2.51,1.58,1.75,2.68,2.4,2.3,1.36,4.8,1.09,7.29,1.12,7.65.09,15.34-.2,23,.39,6.85.54,13.55,2.91,20.51,2.47,6.73-.42,13,1.92,19.5,2.83,12.73,1.78,25.3,4.77,37.93,7.25,6.15,1.21,12.23,2.63,17.94,5.46-8.56-.57-17.11-1.31-25.32-3.4a258.26,258.26,0,0,0-38.55-6.59c-15.78-1.56-31.77-2.94-47.75-2.14a23.93,23.93,0,0,1-8.37-.94c-4.07-1.26-7.64-.64-9.87,3.83s-2.73,9.19-2.94,14c-.06,1.36.74,3.24,2.17,2.76,5.25-1.77,11.13.59,16-2.44a8,8,0,0,1,7.13-.74c2.78.95,5.54.87,8.35,1,12.83.45,25.61-2.07,38.47-.59,6.38.74,12.76,1.33,19.07-.9a5.53,5.53,0,0,1,5.18,1.19c3.07,2.43,6.52,2.12,9.83.81,2-.81,4.5-1.45,5.66-.06,3.76,4.53,9.37,3.84,13.83,4.35C625.51,280.41,640.62,284,656,286a53.64,53.64,0,0,1,6.67,1.5c3.09.83,6.27,2.68,9.7,1.22,2.77-1.19,5.12-.46,7.44,1.23a17,17,0,0,0,4.75,2.71c20.08,6.12,39.54,13.84,58.91,21.86C746.65,315.86,749.57,318.38,753.64,318.45ZM368,301.09c-2.14-1-3,.53-4.21.87-14.45,4-24.27,14.28-31.89,26.19-4.05,6.33-8.06,13.06-9.92,20.93-2.1,8.87-2.86,8.95,4.89,11.89.15.06.36.08.45.2,3.29,4.06,5.78,1.76,8.56-.83,4-3.76,15.45-3.73,18.55,1,1.08,1.65,2.56,2.55-.47,3.14-3.47.68-2.54,3.87-3.45,6a1.84,1.84,0,0,0,1.43,2.29c1.31.32,1.72-.59,1.88-1.7s-.25-3,1.84-2.83c1.93.13,1.55,1.81,1.7,3.07s-.12,2.93,1.79,3,2-1.36,2.16-2.76c.1-1,.31-2.07,1.63-2.09,1,0,1.38.82,1.67,1.6.48,1.26-.22,3.57,2,3.27,2-.28,1.89-2.43,2.11-4.06.11-.8.13-1.68,1.31-1.87,2.44,1,.51,4.54,3.12,5.57,1.5-1,1.22-2.64,1.48-4.05s.84-2.2,2.35-1.2c2.86,1.91,2.59-.36,2.56-2-.06-2.54-.39-5.59,1.8-6.95,2.82-1.75,3.82-4.62,5.67-6.62,3.69-4,1.94-5.77-.73-8.44-2.21-2.21-1.76-5.09.34-6.55,3.14-2.16,4.22-2.89,2.23-5.88-5.64-8.43-10-18.07-20.42-22.32-2.5-1-7.08.31-7.22-3.19C361.11,304.22,365.67,303.51,368,301.09Zm148.69,69.14c2.06,1.21.92,4.65,3.87,4.35,2.13-.21,1.61-2.13,1.93-3.5a1.23,1.23,0,0,1,1.4-1.1c1.24.19,1.44,1.28,1.68,2.2.36,1.35.65,2.73,2.48,2.45,2-.31,1.55-1.68,1.29-3.06s.05-3,1.62-3.13c1.73-.18,1.34,1.55,1.35,2.59,0,1.52.63,2.19,2.11,1.93,1.71-.29,2.48-1.64,1.53-2.85-1.3-1.66,0-5.21-4.2-5.07-1.66,0-.8-2.11.57-3.21,5.84-4.68,12.72-5.47,19.1.21,4.76,4.23,7.5-1.1,11.23-1.46,2.62-.26,1.58-2.85,1.75-4.51.87-8.41-3.5-15.08-7-22.22-7.35-15-19.11-25-34.13-31.53-1.11-.49-2.4-1.11-3.33.2.16,1.07.93,1.06,1.46,1.4,1.47.95,4,1.1,4,3.27s-2.6,1.91-3.84,2.29c-11.31,3.48-17.06,12.62-22.64,21.88-1.24,2.05-3,5,.06,6.91,3.66,2.26,2.52,4.86,1.1,7.45-1.15,2.09-5.22,3.79-1.86,6.37,2.5,1.93,1.55,5.88,4.43,6.66,4.23,1.14,4.77,3.93,4.87,7.54,0,1.13-1.9,5.64,2.69,2.46.77-.54,1.34.58,1.5,1.45.29,1.62-.86,4.13,2,4.26C516.35,374.58,515.35,371.62,516.65,370.23Zm-74.59,7.11c2.92-1.63,3.07-3.51,3.46-5.24,3-12.85,7.78-25.17,9.69-38.36s3.61-26.26,4.25-39.52c.06-1.29-.2-3.71-.46-3.73-4.44-.36-6.43-5.7-11.39-5.21-5.69.57-11.6-2.23-16.49,4.29-2.05,2.75-4.06,4.65-3.83,8.14.84,12.7,3.28,25.2,4.64,37.82C433.47,349.78,439.86,362.68,442.06,377.34ZM425,274.65c-.44-5.42-2.13-10.74,2.19-15.19,1-1.07,1.64-2.85-.46-2.87-7.8-.09-15.46-2.4-23.31-1.46-1.12.13-2.23.76-1.62,1.89,3,5.62,3.66,11.92,5.3,17.94a2.66,2.66,0,0,0,2.47,2.19c7.1-.47,13.68,2.37,20.6,3.05,9.2.91,18.55-3.25,27.67.84.38.17,1-.05,1.45-.15,6-1.19,11.93-2.42,17.91-3.56,1.64-.31,2.64-.85,3-2.72.93-5.21,1.91-10.43,3.26-15.54.51-1.91.14-2.44-1.55-2.59-7.42-.66-14.63.92-22.13,1.6,3.5,6.71,4.1,12,1.76,17-2.29-5.36-3.68-10.38-9.81-13.12s-10.67-.88-16,.81C429.67,264.65,427.21,269.33,425,274.65Zm-4.14,188c-4.69-2.59-10.71-3.13-16.16-5.39-2.05-.85-3.75-2.85-2.26-5.71.73-1.38,2-3.22-.3-4.21a3.12,3.12,0,0,0-4.07,2c-2.48,6.29-7.79,10.2-12.43,14.48-6.21,5.71-3.73,10.94,2.22,14.12,4.67,2.5,9.48,4.7,13.14,8.78,1.73,1.94,4.9,2.79,5.78.11,1.57-4.78,9.6-3.31,8.82-10.07-.14-1.24,2.9-.87,4.48-1.19,1.2-.24,3.4.13,2.93-1.69-1-3.82.62-5.95,3.61-7.75a2.57,2.57,0,0,0,.83-3.54c-.79-1.69-2.06-1.2-3.37-.7A29.36,29.36,0,0,1,420.82,462.65ZM472.58,480c-1.15,2.68.11,3.18,2.19,3.19s3.88.66,4.52,3.07c.92,3.51,3.79,3.08,5.41,1.47,4.95-4.88,11.3-7.55,16.78-11.53,4.33-3.15,4.2-6.42.59-10.5-4.55-5.15-10.59-9-13.35-15.72a3.5,3.5,0,0,0-1.29-1.49c-1.28-.84-2.82-1.54-4.14-.42s.09,2.06.61,3c1.6,2.94.59,5-2,6.72-4.81,3.07-11.12,1.86-15.72,5.6-.37.31-1.64-.14-2.28-.57-1.45-1-2.89-2.19-4.12,0-1.11,2-.29,3.45,1.7,4.44s3.43,2.41,2.61,4.75c-1.11,3.19.7,3.48,3.11,4S473,476,472.58,480Zm44.32-96.12c-1.84-.86-.62-2.67-1.19-3.91-.66-1.45-2.08-2.43-2.89-.78-2.85,5.8-3.25,2.08-3.81-.88-.33-1.69-1-3.12-2.85-2.55-2,.63-1.17,2.52-.77,3.84.55,1.85,2.34,3.24,2,5.48-.44,3.25,1.39,3.92,4.21,3.77,4-.21,7.91-.53,11.26,2.61a4,4,0,0,0,4.75-.05c3.81-3.2,8.37-4.53,13-5.74,2.43-.64,2.74-2.21,2.5-4.12a14.37,14.37,0,0,1,4.26-12.66c1-1,3.39-2.87,1-4.52-2.17-1.49-3.66.55-4.81,2.19-2.64,3.74-4.49,7.71-3.89,12.53.18,1.44-.31,3.43-2.13,3.38s-1.23-1.95-1.17-3.18c0-1,.17-2.13-1.11-2.37s-1.5,1-2.11,1.74c-1.19,1.5-.12,3.92-2,5.37a13.42,13.42,0,0,1-1.14-1.31c-.89-1.4.8-4.15-2-4.47s-2,2.36-2.59,3.9c-.36,1-1,1.94-2.08,1.81-1.37-.15-1-1.47-1.08-2.39-.16-1.27.2-3-1.65-3.13-2-.15-2.25,1.52-2.44,3.07C518.07,382.38,518.38,383.56,516.9,383.84ZM349.58,383c-2.49-1.84-3.36-3.8-3.06-6.57.55-5-1.88-8.85-5.32-12.19-.89-.86-2.05-1.54-3.1-.66-1.3,1.08-.79,2.45.28,3.46,2.23,2.12,4.91,5.11,4.63,7.46-1.22,10.34,5.91,11.78,13,14.4,3.72,1.37,6.78,2,10.39.51,3-1.27,5.89-3.1,9.37-.91a2.17,2.17,0,0,0,3.41-1.68c.19-2.86,1.4-5.43,1.77-8.18.16-1.14.77-3-1-3.41s-2.53,1.17-2.68,2.79c-.22,2.3-.21,4.89-3.1,1.45-1.64-1.94-2.09-.43-2.57.93-.41,1.17-.19,3-2.08,2.84-1.57-.16-1.2-1.72-1.24-2.84-.05-1.34-.63-2.25-2.06-2.3a2.18,2.18,0,0,0-2.38,2c-.21,1.07.16,2.44-1.48,3-.3-.27-.82-.52-1-.91-.63-1.53.52-4.22-2.14-4.38s-1.59,2.38-2,3.79c-.41,1.21-1.1,2.25-2.45,2s-.83-1.59-.94-2.51c-.17-1.56.42-3.84-2-3.85-2.16,0-1.33,2.25-1.69,3.56C350,381.29,349.86,381.89,349.58,383Zm61-103c-2.27-.48-4.51.1-5.75,3.53-.59,1.65-.87,2.93.33,4,2.49,2.27,4.85.38,7.31-.4a18.62,18.62,0,0,1,13.52.4c1.87.83,3.8.94,4.37-1.47.49-2.05-1.12-2.79-2.91-3.25A93.87,93.87,0,0,0,410.56,279.93Zm72,4.5c-1.05-2.11-1.39-5.22-4.9-4.37A135.44,135.44,0,0,1,461,282.9c-1.43.16-3.45.41-3.29,2.23s2.13,1,3.34,1.07c5.89.55,11.9-1.06,17.74,1.25C481,288.33,482,286.44,482.54,284.43Zm-143.23,113A64.35,64.35,0,0,0,323,375.81C323.91,386.35,332.66,391.14,339.31,397.46ZM563.7,375.83c-7.14,6.53-12.4,14.39-17,22.72C553.48,391.81,562.91,387.05,563.7,375.83ZM456,421.55c-2.23,0-4.54-.7-5.93.13-4.73,2.82-9,1-13.53-.3-1.76-.5-4.41-2.62-5.22-.22-1,2.88,2.59,1.87,4.11,2.66.58.31,1.22.53,1.8.83C442.82,427.5,450.57,426.33,456,421.55ZM446,252.31l3-.74c1.32-.32,3.5.65,3.67-1.45s-1.79-2.82-3.53-3.6c-3.5-1.56-6.83.46-10.27.28-1.23-.06-2.83.63-2.75,2.3.07,1.49,1.71,1.38,2.72,1.66C441.17,251.41,443.62,251.82,446,252.31ZM457.56,405.8a4.88,4.88,0,0,0,5.12-4.35,6.33,6.33,0,0,0-3-6.85c-1.37-.85-3.12-1.06-4.58-1.8-1.87-1-2.84-.14-3.38,1.48s.4,2.1,1.91,2.66C459.94,399.31,459.9,399.41,457.56,405.8ZM424,400a3.62,3.62,0,0,0,.95,3.17c1.13,1.22,2.17,3.06,3.95,2s-.24-2.22-.72-3.25c-1.16-2.53-.57-4.22,2.18-4.88,1.28-.31,2.64-.24,3.93-.51a1.48,1.48,0,0,0,1.22-1.85,2.43,2.43,0,0,0-1.26-1.36C430.86,391.81,424.06,396.31,424,400Zm8.55-156.7c-3.45-.43-7.2-4.14-9.88,0-1.78,2.74,1.33,5.2,3.52,6.11C432.46,252,429.34,244.33,432.59,243.3Zm27.83-.81c-2.24-.31-3.65,1.48-3.94,4.36-.18,1.69.67,3.29,2.44,3,2.83-.47,4.35-2.94,5.14-5.38C464.57,242.87,462.83,242.44,460.42,242.49ZM444.16,394.08c1.31-.94,4.2,1.11,4.31-1.72.09-2.56-2.63-1.85-4.32-1.91s-4.46-.22-4.46,1.95C439.69,395.17,442.55,393.27,444.16,394.08Zm-8.86,19.05c.92.19,2.5.66,2.11-.84-.68-2.66-3.61-1.79-5.49-2.62-1-.43-2.43-.14-2.11,1.11C430.54,413.68,433.43,412.36,435.3,413.13Zm12.3.88c3.53.62,5.67-1.43,8.21-1.71a1.42,1.42,0,0,0,1.15-1.84,1.24,1.24,0,0,0-1.9-.84C452.79,411,449.63,410.9,447.6,414Z" transform="translate(-13.8 -1)"/><path d="M741.1,537.38a5.07,5.07,0,0,1-6.35,2.58c-8-2.25-16.65-2.09-24.41-5.55-2.93-1.31-5.3.05-7.33,1.74-8,6.64-15.51,13.85-23.81,20.05-5.68,4.25-10.93,8.94-16.4,13.4-2.46,2-2.31,3.86-.5,5.85q4.69,5.17,9.69,10.08c2.61,2.57,3,4.85.2,7.65-3,3.07-6.08,6-9.33,8.89s-5.42,1.75-7.82-.07-3.33-3.86-1-6.79c2-2.53-1.29-3.62-2.37-5.2s-2.12-.37-3.19.52c-7.29,6.12-14.53,12.31-22,18.21-9.42,7.44-19.06,14.6-28.58,21.92a59.71,59.71,0,0,0-7.61,6.35c-2.44,2.65-4.66,5-9.16,2.52,5,8.19,13,11.88,18.56,18.28,3.22,3.76,6.73,7.21,8.9,11.71,7.13,14.81,14.55,29.27,26.8,40.88,6.91,6.55,10.93,15.57,16.1,23.6,5.89,9.17,10.08,19.29,16.16,28.28a31.35,31.35,0,0,0,9.53,9.28c5.06,3,7.76,8.15,12.26,11.51,1.59,1.18,1.3,2.95,1.62,4.53a27.71,27.71,0,0,0,9,15.46,14.43,14.43,0,0,1,2.63,3.62,1.74,1.74,0,0,1-.38,2.28c-.84.65-1.63.12-2.2-.44-1.17-1.17-2.23-2.45-3.33-3.7s-2.17-3.39-4-3.62c-5.76-.72-6.26-4.49-5.77-9,.59-5.62-2.42-9.64-6.39-12.82a87.73,87.73,0,0,1-25-31.15,176.73,176.73,0,0,0-16.48-27.3c-7.15-9.79-16-18.1-23.12-27.93-3.41-4.73-5.16-10.34-8-15.4-4.71-8.37-9.44-16.67-16.61-23.13C584,647.79,575.54,642.7,567,637.65c-11.35-6.68-23.42-12.3-33.2-21.58-3.75-3.56-9-5.44-13.35-8.5s-7.77-6.69-11.61-10c-9.43-8.09-19.41-6.41-29.06-2.62A57,57,0,0,1,464,598.48c-7.69.7-15.45,2.21-23.25,1.68-9.53-.66-17.71,3.9-26.5,6.19-3.61.94-4.13,3.19-5.76,5.84-6.08,9.87-11.84,20.31-23.16,25.51-3.07,1.42-3,4.49-4.12,7.35,3.65.14,4.83-3.27,7.4-4.51,8.73-4.18,17.85-8.09,23.85-16.36.3-.4.81-.71.95-1.15,2.62-7.81,9.54-10.49,16.1-13.69,1.86-.91,3.71-1.85,5.69-1.32,6,1.64,12,0,18-.2,11.27-.32,22.54-1.47,32.95-6.48,2.75-1.32,5.43-1.73,8,.1s5.7-.16,8.15,1.7c5,3.77,10.51,7,14.15,12.11,10.41,14.65,23.89,25.1,40,33,12.44,6.11,24.86,12.41,37,19.24,4.89,2.75,5.38,8,6.59,12.81a1.2,1.2,0,0,1-.83,1.57,2.56,2.56,0,0,1-1.84-.32,4.34,4.34,0,0,1-1.42-2c-2.83-9.16-10.64-12.85-18.4-16.21-13.72-5.94-26.47-13.71-39.32-21.16-6.73-3.91-12-10.37-17.73-15.92a149,149,0,0,1-12.21-13.18c-6.82-8.48-15.66-9.32-25-6.42s-18.48,4.84-28,4.39c-8.05-.38-15.79,1.53-23.68,2.17a15.62,15.62,0,0,0-10.94,6.52c-4.29,5.8-8.85,11.52-15,15.68-4.18,2.82-6.95,7.08-9.68,11.25-.93,1.43-.86,2.66,1.13,2.79,4.44.29,9,.75,13.33.64,8.05-.2,13.64-9.81,11.07-17.52,4-2,8-1.06,12.29-.35-1.89,2.85-5.06.2-7.11,2.45,7,1,13.52-.72,20-1.87,10.09-1.79,20.25-4.18,30.41-2.54,3.65.59,6.62,1.35,10.08-.2a4.66,4.66,0,0,1,4.7,1c10.53,8.65,20.25,18,28.18,29.25,3.95,5.59,8.59,10.68,9.37,18.54,2.15-2,1.32-3,.73-4.11-.74-1.4-1.07-3.22.48-4,2-1,2.35,1,3,2.37,3,6.61,5.2,13.4,4.6,21.78,2.64-2.74,3.3-4.94,3-7.48-.52-4.28,3.22-8.45.29-12.88-.41-.62.28-2,1.39-2.34s2.81,0,2.67.49c-1,3.58,3.16,5.83,2.18,9.3-.12.41.36,1.25.2,1.35-8.41,5.52,2.79,2.47,2.11,4.34-.36,3-3.59.72-4.19,2.94.64,2.13,3,.42,4.38,1.67-1.18,1.4-2.91.33-4.09,1.08.16,1.65,2.61.74,2.65,2.57-.76,1.55-2.28.7-3.48.91-.88.15-1.78.43-1.76,1.38s1,1.05,1.84,1.24c1.66.39,3.68-.78,5.22,1.26-1.61,2.06-4.15.39-5.88,1.54.75,1.7,3.16-.08,3.69,1.67.66,2.17-2.65,1-2.59,2.77.51.89,1.45.67,2.2,1,1.85.69,5.3.35,4.45,3.29-.65,2.26-4,1.52-5.81,1-10.48-3.13-20.23-1.05-29.69,3.59-2.27,1.11-3.83.91-6.31-.3-6.78-3.31-13.71-5.8-21.84-5.21-5.36.39-10.9-2.64-15.17-6.57-3.76-3.47-7.11-7.5-13-6.84a2.4,2.4,0,0,1-1.82-.64c-8.35-9.88-20.75-13.65-31.07-20.54-4.64-3.1-10.52-3.75-15.24-6.87a2,2,0,0,0-1.89,0c-4.86,4-10.56,1.64-15.86,2.2-1.82.19-3.87-.16-4.71,1.95-1,2.57,1.51,2.77,2.79,3.88a42.47,42.47,0,0,1,4.45,4.73c3.06,3.62,6.18,6.91,11.66,5.85,2-.39,3.42.73,2.9,2.87-.86,3.52,1.52,3.64,3.67,3.5a22.7,22.7,0,0,1,4.44.09c1.12.14,2.55-.22,2.89,1.29.46,2-1.93,1.32-2.8,2.79l6.16.68c-2.65,3.57-1,4.72,2.48,4.69a20,20,0,0,1,3,0c1.52.22,4-1,4.35,1.06s-2.16,1.18-3.44,1.54c-2.86.81-1.62,3.37-.58,3.57,4.32.83,6.25,4.95,10,6.52,4,1.63,7.87.8,11.79,1.17,1.38.13,3.42-1,2.45,2.41-.51,1.82,2.67,2,4.57,2.5s7.67-2.74,4.77,4c-.12.27,1,1.49,1.62,1.61,4.46.79,7,5.67,11.9,5.46a1.94,1.94,0,0,1,.89.3c-1,4.54,4.51,3.82,5.13,6,1.86,6.44,7.81,9,11.86,13,4.41,4.4,9.49,9.09,15.93,10.76a90.82,90.82,0,0,0,16.13,2.39c5.5.41,11.51-.69,16.83,2.16,7,3.74,14,7.3,21.7,9.58,5.69,1.69,11.56,2.14,17.38,2.83,2.28.27,4,.68,5.58,2.51,5.5,6.49,5.56,6.44,12.49,8.29.32,2.49-3.19.72-3.18,2.94,1.51,1.65,3.39.41,5.11.57s4.68-.61,2.8,3.08c-.67,1.33.36,1.67,1.54,1.65,2,0,3.92,0,5.89,0,0,2.52-1.57,1.73-2.55,1.9s-2.7-.4-2.55,1.41c.12,1.39,1.57,1.52,2.75,1.55,1.5,0,3-.05,4.5,0s3-.51,4.6.66c-2,2.13-5,0-8,2.73,4.15,0,7.22,0,10.29,0,1.13,0,2.77-.19,2.84,1.26.09,1.7-1.64,1.12-2.7,1.28s-2.13,0-2.89.52c-1.12.7-3.1-1.55-3.24.65s1.94,2.31,3.7,2.29c3.25,0,6.54-.55,9.74.27l.07,1.26c-2,0-4,0-5.93,0-1.06,0-2.61-.43-2.75,1.2s1.31,2.15,2.72,2.18c3.5.07,7,0,10.5.09.6,0,1.38-.13,1.68,1.51-2.64,0-5.18-.06-7.72,0-1,0-2.63-.55-2.73,1.21-.07,1.41,1.28,2,2.42,2.06,2.65.2,5.32.14,8,.2a2.42,2.42,0,0,1,2.38,1.23c-1.25,2.11-3.46.83-5.13,1.26-1.26.33-3.52-.85-3.49,1.46,0,2,1.88,2.06,3.7,2.32,4.64.68,9.28.5,13.93.61.92,0,2.06-.29,2.71,1.41-4.37,1.13-8.74.27-13,.6-1.17.09-3.2-.91-3.32,1-.14,2.13,1.86,2.39,3.64,2.33l11-.3c.67,0,1.34,0,1.88,1.92-3,0-5.8-.06-8.6,0-1.18,0-3.1-.53-3,1.47,0,1.55,1.73,1.91,3.07,1.94a80.34,80.34,0,0,1,11.57.66c-1.83,2.25-4.1,2-6.33,2-1.32,0-3.17-.34-3.4,1.24-.3,2.06,1.75,1.6,2.89,1.54,2.43-.11,3.79,1.72,5.79,2.64-7.25,2.17-10.68.41-15-5S631,832.49,626.4,827.23c-4.87-5.54-9.87-11.09-14.5-16.85-7.06-8.77-15.58-15.94-24.6-22.21A44.72,44.72,0,0,0,565.47,780c-4.91-.38-9.11-2.94-13.09-5.34-5.72-3.44-11.35-5.89-18.21-5.46-10.41.64-20.5-1-29.55-6.53-3.47-2.13-7.09-4.41-9.7-7.44-5.25-6.09-11.93-10.6-17.26-16.52-1.73-1.92-4.47-2.15-5.93-4.39-.8-1.23-1.93-.52-2.94.35-5.12,4.4-10.22,8.81-15.46,13-7.66,6.2-15.67,12-23.07,18.47S414.87,778.69,407,784.71c-2.92,2.24-5.36,2.38-8.56.44-3.66-2.21-5.51,1.29-7.79,3.29-1.84,1.62-3.14,3-.64,5.17,1.4,1.19,1.17,2.69,0,4-1.67,1.91-4.27,2.39-5.86,1-4.22-3.75-6.72-.72-9.74,1.62-8.2,6.34-16.64,12.23-27,14.68-4.46,1-8.19,4.13-12.74,5.17-1.31.3-1.89,1.83-2.31,3.1-.54,1.67-1.77,2.8-3.31,2.46-6.28-1.4-9.68,3.46-13.65,6.43-9.78,7.32-19.06,15.29-28.67,22.85-7.52,5.91-15.18,11.64-22.86,17.33-1.36,1-2.82,2.44-5.34,1.47,1.9-3.6,5.65-5,8.33-7.33,7.9-6.78,16.47-12.8,24.75-19.16,9.15-7,19.05-13.35,27.15-21.45,5.68-5.68,12.27-11,15.29-19.42a71.23,71.23,0,0,1,10.36-18.42c2.88-3.79,7.43-6.52,11.65-9,3.12-1.85,4.81-3.77,4.49-7.45-.15-1.79-.14-3.85,1.92-4.76s3,.82,4.11,2c2.92,3.31,4.89.12,6.66-1.28,2-1.59,4.32-4,1.82-6.75-4-4.39-2-6.27,2.13-9.14,10-7,19.36-14.85,28.65-22.78,5.89-5,11.92-9.87,17.49-15.27.89-.87,2.41-1.82,3.44-.32.85,1.24.78,2.54-.82,3.8q-18.47,14.53-36.7,29.35c-1.58,1.29-3.14,2.8-3.44,5.31,16-10.86,30.19-24.12,45.83-36.18-3.23-6.48-10.12-10.67-16.2-16-6.81-5.91-15.32-7-22.84-10.73-3.5-1.73-6.1-4.51-9.05-6.76-2.35-1.8-2.22-5.67.33-8.46,1.41-1.55,4.32-2.88,3.46-5.06-1.37-3.46-1.92-7.46-5-10.12-.93-.79-1.78-1.51-3.07-.71-4.23,2.62-8.33-.51-12.5-.61s-4.65-5.6-1.21-8.89c5.93-5.68,13.05-9.82,19.36-14.91,8-6.44,16.41-13,19.46-23.81,1.74-6.13,7.2-8.57,12.5-10.38,5.93-2,12.36-1.26,18.55-1.58,5-.27,7.26-3.63,10-6.58,1.29-1.41-.78-1.41-1.56-2.07-5.28-4.52-12.07-5.48-18.2-8-4.07-1.67-6.56-4.7-8.45-8.58a32.06,32.06,0,0,0-4.78-6.93c-1.65-1.89-2.26-3.9-1-5.88,1.37-2.15,3.62-1.44,5.86-1.09,6.07.94,11.12,4.15,16.43,6.8.9.45,1.84,1.31,2.7,1.24,8.74-.69,15,6.49,23.68,7,6.22.33,12.29,3.36,18.43,5.18,10,3,20,6.24,30.4,7.92a22.42,22.42,0,0,1,6.34,2.31c12.63,6.11,22,16.08,31.83,25.61,7.11,6.87,15.07,12.86,22.66,19.22a14.31,14.31,0,0,0,2.48,1.66c1.68.87,3.28,2.87,5.37,1.18,1.63-1.31,1.6-2.55-.9-2.73-1-.07-2,.14-2.76-.78-.2-2.48,6.28,1.4,3.36-3.54a7,7,0,0,1,1.71-.62c1-.11,2.55.37,2.9-.11,2.58-3.52,7.56-4.27,9.58-8,.94-1.75,1.5-2.59,3.42-2.56s3.87-1.28,3.54-2.79c-1-4.47,1.7-4,4.44-4,1.91,0,3.3-1.11,4.79-1.91-.69-2.46-2.83-.93-4-2.07.37-.34.66-.82,1-.87,2.83-.45,6.08,1,8.29-2.09.52-.72,2.11-.76,1.59-2.11s-1.7-.86-2.62-.75a7.49,7.49,0,0,0-2.31.81,1.53,1.53,0,0,1-2.35-1c-.54-1.51.32-2.25,1.7-2.3,2.83-.09,5.67-.08,8.5-.07,1.89,0,4.52-.14,4.5-2.09,0-2.71-2.76-1-4.3-1.34-.9-.18-2,.33-2.83-1.26,3-.11,5.6-1.79,8.6-.5a2.79,2.79,0,0,0,2.37-.21c1.26-1,3.85-1,3.79-2.82-.1-2.6-2.65-1.05-4-1.44-3.63-1-7.54.38-11.33-.84,0-2.22,3.66-2,2.67-4.82-.53-1.52,1.39-2,2.77-2,4.31.1,8.75-.89,12.89.55,2.79,1,4.63-1.78,7.22-.38,0-.54,0-1.09,0-1.64H619.64l0-1.53c5.44-1.87,11.67.38,16.95-3.38H621.34l-.15-1.75c4.06-1.49,8.68.09,13.8-1.2-5.18-4.4-11-.67-16.08-3.38,2.93-2.55,6.59-.23,9.54-1.86-4.83-2.59-11.93-1.78-15.29,1.57-8.91,8.85-19.26,16-28.52,24.42-6.6,6-14.44,10.49-20.11,17.46-1.53,1.89-3.86,2.54-5.54,4.16-.84.81-1.85,1.77-3,.55s-.25-2.44.64-3.49c1.55-1.83,4.92-1.62,5.4-5.11-2.42-.47-3.36,1.42-4.67,2.67s-2.4,2.47-4.32,1.82c-1.45-.5-2.61-1.36-.87-2.77,7.55-6.11,15.19-12.11,22.73-18.23,4.9-4,9.58-8.23,14.55-12.1,6.81-5.29,13.26-11,19.69-16.73,2.6-2.32,2.16-3.56-.86-4.88-11.81-5.17-23.81-10-35.26-15.87-8.21-4.21-16.36-8.77-23.72-14.5-4.05-3.15-4.7-7.4-1-12.34s6.77-6.36,11.24-3.45c5.66,3.7,11.62,7.66,18,9.32,8.5,2.21,15.44,8.22,24.55,8.87,2.77.2,5.46,2.9,8.75,3,.81,0,2,.68,2.36.34,5.44-4.45,7.85,0,11,3.34,3.36,3.55,8.82,4.3,11.71,9,1.11,1.79,4-.66,5.46-1.85,9.32-7.88,18.73-15.66,28.37-23.15,2.07-1.6,2-3.21-.56-4.52-8.07-4.08-16-8.54-25.28-9.31-1.83-.15-5.17.26-5.06-1.82.13-2.4,3.36-1.4,5.06-1.19,9.2,1.11,17.58,4.82,25.64,9.08,2.74,1.45,5,2.26,7.84.87,3.6-1.75,7.31-3.26,10.91-5,2.76-1.33,1.19-2.67-.3-3.56-14.28-8.57-27.55-19.05-44.15-23.21-4.61-1.16-9.3-.19-13.93-.64-1.53-.15-4.37,1.23-4.28-1.59.07-2.25,2.8-1.75,4.54-1.89,11.36-.93,21.65,2.75,31.39,7.89,10.56,5.57,20.78,11.77,31.18,17.63,2.32,1.31,4.44,2.2,7.19-.09,2.48-2.06,5.86-3.09,8.91-4.42,2.17-.94,2.34-2,.74-3.64-2.08-2.15-3.93-4.54-6.12-6.56s-1.89-3.67.12-5.79c8.81-9.28,10.32-9.18,19,.11,6.44,6.86,13.2,13.41,20,19.88,4.9,4.63,4.19,7.25-1.49,10.92s-11.7,2.33-17.12,1.55c-6.43-.93-8.25,2.86-10.82,6.68a5.23,5.23,0,0,0-.63,1.88c-.53,2.75-4.49,5.85-2.75,7.39a20.22,20.22,0,0,0,10.52,4.69C727.14,535.28,733.82,536.33,741.1,537.38ZM459.86,686.68c-.12-2.36,1.56-3.19,2.7-4.27,9.31-8.89,19.53-16.72,29.54-24.79,3.47-2.8,6.84-5.74,10.2-8.67,1.67-1.46,1.49-3.26-.45-4-3.72-1.35-5.43-4.73-8-7.18-1.35-1.27-2.52-2.9-4.55-2.72-5.86.54-11.51-1.25-17.29-1.37-9.22-.19-18.34,0-27.3,3-7.95,2.68-17.2,2.25-22.64,10.38-.32.48-1.16.6-1.75.91-6.79,3.61-6.25,9.95-5.86,16.12.32,5.06,5,2.94,7.6,4.33s5.47,2.53,7.9,4.22c10.28,7.14,22.9,10.48,31.87,19.71a1.35,1.35,0,0,0,.86.47c6-.12,8.77,5.36,13.33,7.67,4.88,2.48,8.88,8.4,15.66,4.55.33-.18,1,.09,1.43.24,10.53,3.52,20.8,8.94,32.4,3.76,2.22-1,4.8-1.18,7.23-1.67,1.11-.22,2-.79,1.92-1.9-.32-5.76,1.23-11.59-1-17.27-1.28-3.2-3-3.16-5.26-1.26q-10.58,8.79-21.15,17.56c-.9.75-2,1.68-3.09.7-1.41-1.31-.19-2.5.78-3.32,3-2.54,6-5,9.17-7.38a122.23,122.23,0,0,0,12.7-11.15c.9-.89,1.44-1.93.33-3-1-.93-1.71-.31-2.55.38-8.41,6.82-16.54,14-25.53,20.09-1.47,1-2.76,3.44-4.37,1.6s.92-3.35,2.26-4.15c8.7-5.18,15.06-13.33,23.68-18.61a5.19,5.19,0,0,0,2.41-6c-.93-3.92-2.22-7.63-5.31-10.48-2.43-2.23-4.73-4.41-5.95-7.79-.72-2-2.58-4.86-5.55-4.07a6.65,6.65,0,0,0-5,5.27,3.68,3.68,0,0,0,3.46-1.34c.59-.58,1.22-1.41,2.08-.8s.62,1.78.28,2.73c-.5,1.35-1.67,2-2.81,2.69-2.71,1.77-5.72,3.34-7.9,5.66-8.06,8.58-18.61,14.21-26.68,22.75-1.4,1.48-4.18,2.19-4.64.35C464.09,684.86,461.64,686.84,459.86,686.68ZM699.61,533.94c-1.82-2.37-3.63-1.2-5.14-1.53-1.23-.28-2.92.56-3.58-1-.94-2.23,2.27-1.37,2.51-3.61-4.26,1.13-6.57-1.55-9.25-4.19-4.94-4.85-9.28-5.1-14.06-1.15-10.07,8.33-20,16.83-30,25.22-1.78,1.49-1.34,2.78,0,4.18,3.58,3.7,7.09,7.47,10.77,11.07,2,2,12.1,1.83,14-.2,2.11-2.24,3.63-4.79,6.94-6,2.06-.75,3.25-4.59,3.41-6.27.27-2.86,1.09-3,2.59-1.73,2.63,2.24,3.69.19,5.38-1.19-1.82-1.3-5.71-.52-5.09-3.07s4-1.35,6-.81,3.79,1.13,5-1.22c-2.42-1.68-7.16,1.32-7.8-3.73,4.37-1.63,8.81,1,13-1a22.89,22.89,0,0,0-7.22-.82c-1,0-2.35.21-2.44-1.06-.13-1.76,1.45-1.35,2.53-1.42C691.14,534.13,695.12,535,699.61,533.94Zm-282,218.51c3.61-1.45,6.7-.69,9.68-.82,2.65-.12,4.28-.54,5.76-3.71,1.11-2.37,5.58-3.29,7.95-5.89.69-.75,3,.49,3.43-1.76.39-2.07-1.56-2.21-2.46-3.25-3.66-4.22-9.3-6.87-11-12.58-1-3.28-1.74-2.74-3.83-1-6.22,5.09-12.68,9.89-18.91,15-5.5,4.49-10.83,9.19-16.22,13.82-3,2.55-2.68,4.73.26,7.37,3.15,2.82,6.65,1.45,10,1.63,5.15.27,10.31.11,15.47.08,1.44,0,2.82-.54,2.68-2.22s-1.72-1.23-2.79-1.28c-2.16-.09-4.32,0-6.48,0-1,0-2.38.12-2.5-1.06-.16-1.74,1.49-1.42,2.53-1.43,4.95-.06,9.9,0,15.9,0C423.74,752.88,420.52,755,417.6,752.45ZM496.92,589c-1.94-2.82-3.76-3.34-5.79-3.32a16.74,16.74,0,0,1-5.67-1.43c-5.54-1.94-10.95-4.2-16.46-6.18-7.43-2.67-16.37.16-22.95-6.08a2.1,2.1,0,0,0-1.89,0c-2.9,1.7-5.37,0-7.23-1.51-4.27-3.54-8.86-3.77-14.05-3.16-3.23.38-3.28,1.75-2.18,3.81,2.6,4.88,6.26,8.61,12.16,9a18.09,18.09,0,0,1,8.93,2.47A19.29,19.29,0,0,0,454,585.85c4.05-.12,8.7.14,13,2.2,3.13,1.5,6.82,4.84,9.95,3.49C483.15,588.85,489.46,589,496.92,589Zm163.51,9.39c2.42-2.19,4.3-4.32,6.58-5.86,3.14-2.11,2.76-4.25.6-6.55-7.25-7.71-14.58-15.36-21.88-23-.76-.8-2.13-2.34-2.61-.79-1.79,5.74-6.18,3.41-11.16,3.34,5.23,5.57,9.65,10.27,14.4,14.77C651.83,585.44,658.89,589.54,660.43,598.4ZM374.12,789.7a12.93,12.93,0,0,0-2.29-1c-6.82-.69-6.75-.68-6.18-7.31.26-3-1.74-3.52-3.82-2.31-4.83,2.8-9.48,5.9-12.94,10.45-.51.67-1.06,1.19-.88,2.16.85,4.62,11.27,11.63,15.89,10.67.62-.13,1.68-.25,1.3-.93-2.44-4.41,1.28-1.63,2.13-1.75,1.18-.18,3.08,1,3.17-1s-1.94-1.14-3.12-1.29c-.66-.08-1.33,0-2-.09-.94-.09-2.36.23-2.42-1.06-.08-1.84,1.61-1.27,2.62-1.25a50.58,50.58,0,0,1,7.89.44c1.74.3,3.43.25,3.49-1.49.09-2.18-2.12-1.45-3.45-1.51-2.16-.1-4.33.08-6.48,0-1.16-.07-2.86.4-2.93-2.16ZM725.05,490.22c-1.1-1.24-4.53.38-3.93-1.71,1.18-4.08-2.19-5.1-3.61-7.44-2.76-4.52-5.37-2.85-8.44-.26-3.58,3-2.23,5.17.56,7.64a44.79,44.79,0,0,1,6.17,6.45c4.46,5.94,10.44,4.86,17.29,4.46C723.27,493.39,723,493.09,725.05,490.22Zm-174.13,133C538,612,527.86,597.09,510.2,591.92,521.23,605.57,536.72,613.58,550.92,623.21Zm145.17-115c-2.22.75-6.11.68-4.44,3.73,2.87,5.23,8.66,8,12.9,12.12.68.67,2.7.91,1.43-1.43-.54-1,0-1.64,1-1.66,2.47,0,2.72-1.39,2.15-3.33a1.3,1.3,0,0,1,1-1.85c1-.29,2.81.29,2.48-1.56s-2-2.31-3.51-2.12c-3.54.44-6.42-1.24-9.45-2.56C698.48,509,697.22,508.63,696.09,508.21ZM396.68,667.07c4.49,0,7.7-3,7.62-7.13-.06-3-4.57-7.09-8.08-7.27-3.1-.16-6.47,3.27-6.59,6.69A7.12,7.12,0,0,0,396.68,667.07Zm-49.84,136c1.37-1.6,5,0,4.7-2.48s-2.62-4.6-5-5.88c-3-1.64-2.89,1.88-4.1,3-2.47,2.3-3,5.81-4.51,8.75-.55,1.07-.62,2.62.74,3,3.45.88,6.85,2.56,10.58,1.41.77-.24,1.6-.71,1.56-1.64-.05-1.13-1-1-1.85-1.1-1.5-.11-3.32.51-4.06-1.81,3.87-1.15,7.47-.18,11.46.89C354.93,805.08,354.93,805.08,346.84,803.1Zm103.81-71c2.11-.24,3.25-.46,4.39-.48,2,0,3.72-.71,4.29-2.7.76-2.63-1.85-3-3.24-3.61-4.29-1.89-9-2.78-12.87-5.71-1.56-1.18-2.49-.2-2.4,1.56C441,723.54,449.41,732,450.65,732.06ZM710.77,500.72c-1.63.76-3.3,1.43-4.86,2.3-1,.53-2.29,1-2.3,2.36,0,1.79,1.78,1.61,2.83,2.26,2.89,1.78,6.35.49,9.51,2.13,2.23,1.15,2.85-2.53,3.75-4.18s0-3.27-2.19-3.45S712.88,502.32,710.77,500.72Zm-262.91,97.4c6.57-5.24,14.56-.29,20.95-5.23C460.68,588.76,449.63,588.93,447.86,598.12Zm241.66-77c.89-.52,2.68.68,3-1.38a1.14,1.14,0,0,0-1.21-1.28c-3.12.46-3.49-1-3.48-3.75,0-1.87-2.43-2-3.91-2.43-1.75-.44-2.58,1.14-3.27,2.49-.42.81-1.62,2.1-.26,2.47C683.6,518.15,685.76,521.28,689.52,521.16Zm-283.3,245c2,0,3.78,0,5.59,0,1.42,0,2.8-.5,2.74-2.15s-1.67-1.17-2.69-1.23a22.23,22.23,0,0,0-5.41,0c-2.52.47-7.12-1.63-7.15,1.32C399.26,767.6,403.9,765.4,406.22,766.17Zm-25.76,7.18c-2.26,1.28-6.65-2.05-6.86,1.77-.13,2.43,4.5,1.25,6.9,1.09s6.41,2,6.43-1.6C387,772.06,382.72,774.34,380.46,773.35ZM498,658.77c-3.5,2.47-8,3.3-10.4,7.27-.3.51-.82,1.26-.05,1.7.47.26,1.51.32,1.77,0C492,664.61,495.13,661.89,498,658.77ZM376.69,778.4c2.3,3.64,4.45,3,6.26,2.8,2.43-.25,4.83-.9,7.27-.19,1,.3,2.1.43,2.29-.91s-.92-1.67-2-1.68C386.3,778.38,382.05,778.4,376.69,778.4ZM436.22,724c.91,4.69,4.69,6.87,7.86,9.6C443.42,728.83,439.26,726.85,436.22,724ZM726.64,502.37c3.94,1.49,7.79,2,11.49,0ZM382.7,761.28c1.34-.46,4.09,1.25,4.18-1.5.09-2.46-2.58-2.06-4.26-1.94s-4.32-1.13-4.41,1.45C378.14,761.56,380.73,761.28,382.7,761.28Zm9.8,9.75c1.31-.53,3.92,1,3.93-1.48,0-1.9-2.39-1.92-4.06-1.84s-4.08-.34-4,1.73S390.83,770.94,392.5,771ZM631.37,595.41c-1.8,0-3.55.63-3.76,2.45-.18,1.51,1.82,1.81,2.9,2,1.89.33,3.15-1.07,3.36-2.81S632.49,595.55,631.37,595.41ZM387.29,762.73c-1.09.44-3.59-1-3.24,1.43.29,2,2.77,2,4.6,1.9,1.21,0,3.25.54,3.1-1.35C391.54,762.14,389.07,763,387.29,762.73Zm22.33,16.53c-4.68-1-7.8-1.06-11.64.23C401.89,781.91,405.08,782.16,409.62,779.26Zm-12.71-5.87c-1,.69-3.62-1-3.64,1.58,0,1.91,2.27,1.57,3.62,1.38,1.57-.22,4.32,1.09,4.42-1.37C401.4,773,398.73,773.74,396.91,773.39Zm-4.53-129.61c-4.93,1-6.72,3.8-8.33,6.79C387.84,650,389.53,647.18,392.38,643.78ZM731,508.48c2.72,0,5.44,0,8.16,0,1.21,0,2.54-.18,2.12-1.86a1.55,1.55,0,0,0-2.41-.88C736.45,507.34,733.56,506.73,731,508.48ZM394.49,684.06c-1.33-2-2.21-4.07-4.63-4.7-.68-.17-1.45.6-1.05,1.18C390.08,682.38,391.26,684.54,394.49,684.06ZM638.05,594c1-.68,3.06-.77,3.64-2.42.41-1.18-1.13-1.42-2.08-1.4-1.77,0-3.39.66-3.77,2.57C635.64,593.69,636.72,593.94,638.05,594Zm-12.3,9.55c-.27-1.18-1-1.8-2.16-1.37-1.3.5-3.25.39-3.42,2.33-.14,1.61,1.21,1.78,2.41,1.7A3.26,3.26,0,0,0,625.75,603.52Zm-10.3,7.77c1.6-.13,3.55.09,3.85-2,.23-1.71-1.35-1.46-2.43-1.41-1.61.08-3.56,0-3.87,2.09C612.73,611.77,614.51,611,615.45,611.29Z" transform="translate(-13.8 -1)"/><path d="M293.36,43.94c-3.29,1.75-4.93,0-6.64-1s-3.29-1.78-3.58,1c-.43,3.91-3.89,4-6.22,4.58-2.51.61-4.56-1.84-5.81-4a28.36,28.36,0,0,1-2.38-6.46c-.73-2.46-1.44-4.84-4.63-4.9-2.94-.06-4.61,1.54-5.33,4.27-.2.78-.06,1.72-1.13,2-.86-6.64,4.07-14.63,10.15-16.21,2.44-.64,5.26-1,7.16.89,4.28,4.23,5.25.83,6.54-2.44,1.37-3.5,2.7-6.67,6-9.32,6.59-5.23,11.57-1.86,15.59,3.12,2.45,3,3.27,3.73,5.09-.39,2-4.44,6.14-6.54,10.85-6.72,4.41-.16,8.09,1.65,10.09,6A30.42,30.42,0,0,0,331,17.87c.87,1.34,1.5,2.43,3.23.33,3.52-4.27,8.22-6.55,13.69-4.28,5.91,2.45,8.34,7.81,9.38,13.75.41,2.35.06,4.84.06,7.61,9.61-5.47,14.11-5.93,18.46-.87s6.68,11.55,4.72,18.5c-1,3.42-2.48,6.08,3.36,5.18a8.06,8.06,0,0,1,7.49,3.2c6.44,8,7.71,15,3.58,24.2-1.5,3.35-2,6.2.3,9.18,2.71,3.51,3.22,7.53,3.12,11.81-.15,6.38-.84,7.21-6.91,7.69-4.92.38-5.33-3.55-6.56-6.72a2.4,2.4,0,0,1-.13-1c.37-3.58-.45-6.89-3.89-8.39-3-1.31-5.69.15-7.47,4-1.55-4.42,1-6.06,2.41-8.07,2-2.81-1.33-4.34-2-7.8,5.6,6.85,11.55.4,17,2.21.66.21,3.56-1.83,2.94-3.9-.55-1.83-2.28-.18-3.47-.14-4,.14-6.37-1.83-6.73-5.72-.23-2.51-.43-4.94-1.65-7.21-.56-1-1.08-2.61-2.28-2.32-6.24,1.49-10.22-5.45-16.31-4.22-.08,0-.21-.24-.37-.44,1.72-1.52,3.81-.75,5.69-.82,2.66-.11,4.88-.8,6.58-2.93.8-1,2.46-1.68,1.91-3.22-.74-2.07-2.26-.29-3.4-.31-4.12-.06-7-3.36-7.63-8.95-.13-1.16,0-2.34-.18-3.49-.36-2.84-3-3.61-4.95-4.37s-3,1.25-4.11,2.82c-1.57,2.31-1.68,4.94-2,8-1.41-3.72-1.42-3.81-.27-9.44-3.83,4.49-7.23,8-13.63,5.39,6.9-.11,10.11-4.32,14-9-3.87.55-7.27,2-9.79-1.59-2.08-3-3.38-6-3.15-9.72.14-2.31-.88-3.87-3.23-4.32s-4.26-.07-5.48,2.28c-1,1.95-2.39,4.19-1.79,6.11,1.56,5-2.84,6.69-4.7,9.75-.47.79-1.62,1.52-2.48.43-.63-.8.13-1.42.87-1.94A33.48,33.48,0,0,0,328,36.92a2.09,2.09,0,0,0,.67-2.68c-.47-.9-1.39-.48-2.2-.51-4.41-.18-7.1-2.26-7.4-6.91a9.62,9.62,0,0,0-.61-2.4c-1.12-3.45-2.52-7.28-7-6.23-4.28,1-4.47,4.45-4.06,8.7.57,5.84,1.86,10.56,7.23,13.71,2.33,1.35,4.86.65,7.46,1.48-5.58,1.88-8.17,1.09-11.7-2.57-2.62-2.7-5.31-5.44-9.91-4-2.24.71-4.13-1.1-5.45-2.86a12.78,12.78,0,0,1-2.22-6c-.52-3.34-2.28-6.5-6.14-6.61-2.72-.08-5.78,5.31-5.33,8.6C282.33,35.75,284.85,41.74,293.36,43.94Z" transform="translate(-13.8 -1)"/><path d="M214.65,200.47c.62-1,1.28-2,1.82-3,.43-.84,1.28-1.86.2-2.64a2.79,2.79,0,0,0-2.32-.09c-5,2.09-6.66-1.12-7.71-5-.57-2.06-.44-4.31-2.18-5.95-2.39-2.26-5-2.86-7.52-.51-3,2.8-1.74,6.59-1.53,10,.16,2.69,2.7,2.33,4.68,2.51.79.07,2,.33,2.24.86.84,1.85,5.14.48,3.86,3.15s-3.66.69-5.36-.69c-.51-.42-1.13-.92-1.75-.42a1.45,1.45,0,0,0-.13,2.22c3.58,3.09.35,6.85,1.08,10.22.26,1.18-.73,1.59-1.95,1.55-3.36-.12-7,3.61-10-.5-1.24-1.69-2.53-3.82-2.6-5.79-.14-4-2.42-6.57-5.65-6.11A7,7,0,0,0,174,208c.47,6.8,4.71,15.08,14.46,14.1,1.54-.16,3.15-1,4.72.14-6.43,6.62-15,2.16-20-9-2.42,1.4-2.85,5-6.73,5-4.38,0-6.36-2-7.49-5.71-.09-.31,0-.67-.09-1-.91-5.31-3.38-8-6.49-7.09s-5.87,6.73-4.71,10.46a54.73,54.73,0,0,0,4.45,10.23c-2.28-1.07-3.32-3.2-4.21-5.17-1.69-3.72-3.35-3.65-6.21-1.08-4.84,4.34-9.55,3.79-14.22-1.37,3,.19,5.86.25,8.7.58a7.23,7.23,0,0,0,7.29-3.29c.8-1.16,2.93-2,1.94-3.64s-2.14.61-3.38.68c-3.44.21-7.36-3.08-7.94-6.94a33.1,33.1,0,0,0-.66-4.92,5.39,5.39,0,0,0-4.16-3.93c-2.24-.42-3.2,1.23-4.1,2.93-2.06,3.86-4.54,7-10.37,5.05,2.2-2.05,5.28-1.75,6.53-4.05.94-1.72,2.61-3.94-1-4.34-5-.55-6-4.34-6.8-8-1.63-7.1-4.19-8.22-10.08-4-.26.2-.46.51-.74.65s-.8.23-.92.09c-3.37-4-10-1.41-13-6.38a17,17,0,0,1-2.46-4.62c10.17,8.58,18.3,7.34,21.51-3.24-2.72.72-5,2.42-7.93.5s-2.37-4.32-2.92-6.88c-.73-3.43-2.4-7.44-6.35-7.21-4.19.24-5.66,4-5.64,8.13,0,1.93.72,3.93-.5,6.43-1.74-6.45-.7-12.32.86-17.89,1-3.58,10.67-7.62,14.58-7.06,3.33.47,9.21,8.06,9.75,13,.31,2.8.08,5.66.16,8.49,0,1.22-.48,2.6,1.86,2.58,7.7-.06,12.89,3.93,15.12,11.27a41.9,41.9,0,0,1,1.31,4.27c.37,2,1.46,1.73,2.92,1.34,7.32-2,11.76.07,15,6.9,2.74,5.75,2.74,5.75,7.92,1.93,4.78-3.51,11.34-2,15.5,3.54,1.14,1.51,1.65,3.55,3.75,4.71,1.29-3.25,1.3-6.71,3.64-9.23,3.42-3.68,7.09-6.74,12.58-5.22,3.2.89,3.54-.84,3.89-3.36.67-4.79,1.93-9.27,6.35-12.38,3.49-2.45,10.43-3.78,14-1.89a3.39,3.39,0,0,1,1.05.95c7,8.62,10.31,9.21,19.65,3.41-1.67,4.19-3.49,5.61-7.86,5.57-8-.09-6.53.4-6.59,6.88,0,3.67.18,7.36-2.5,10.41-.84.95-1.53,1.79-2.9,1Z" transform="translate(-13.8 -1)"/><path d="M334.06,206.12c0,4.42-.19,8.68,1.66,13.07s5.92,5.32,9.83,8.6c-6.95-.25-9.28-4.69-12.13-8.88-2.88,4.65-3.83,11.08-10.64,11.65,2.55-2.61,6.09-4.3,6.89-8.46-1.15-1.29-2.54-.35-3.72-.29-4.71.24-6.69-2.14-6.84-6.54,0-.84,0-1.67,0-2.5.17-4-2.29-6.89-5.64-7.05-3.71-.18-5.44,3.28-5.83,6.91-.11,1,.07,2-.05,3-.24,1.93-2,1.58-3.14,1.7-2.1.24-.59-1.15-.6-1.8,0-.8-.33-1.35-1.09-1.29-8.16.64-8.77-5.6-9.67-11.07-.5-3.07-1.22-5.69-4.25-6.65-2.79-.89-3.85,2-5.54,3.39s-2.86,3.58-5.85,4.19c.65-2.68,3.51-3.74,3.19-6.27-7.92.33-9.24-.89-9.88-9.07-.38-4.84-2.88-7.16-7.23-6.71-3.09.32-5.49,4.25-5,8.22.14,1.1.72,2.25-1.1,3.36-.28-3.28-.65-6.27.35-9.21.82-2.41,1.57-3.76-2.32-2.73-6.22,1.64-10.6-.91-13.7-7a18.65,18.65,0,0,1,3.55,2.65c4.51,3.8,12.68,2.47,15.86-2.39,1-1.52,1.4-3.2-1.07-2.91-6,.7-8-2.5-8.51-7.72a14.93,14.93,0,0,0-1.19-4.32c-.93-2.2-2.23-4.29-5.09-3.89-2.58.36-3.75,2-4.44,4.63-1.3,4.89,1.25,9.36,1,14.08-.73-1.09-1.48-2.17-2.19-3.27-.46-.69-.86-1.51-1.91-1.06-9.69,4.16-13.12.35-13.86-7.77-.26-3-2-5.2-4.8-5.63-3-.47-4.27,2.14-5.14,4.54-.7,1.92-1.06,4-1.68,6.39-2.71-7.94,4.89-20.39,12.2-20.77,6.06-.31,9.41,3.24,11.81,8.23.53,1.11.69,3,2.33,2.74.81-.14,1.38-1.7,2.1-2.58,3.5-4.24,5.34-9.73,10.17-13,1.76-1.19,3.46-3.3,2.8-5.46-.57-1.91-2.93-.54-4.45-.69-3.6-.33-4.66-2.75-5.2-5.67-.21-1.13.18-2.4-.15-3.47-.9-3-1.51-6.86-5.61-6.43-3.56.38-5.59,3.21-6,6.95-.15,1.42.61,3-.54,4.29-2-4.15-1.76-8.47,2.79-14.24,2.95-3.74,2.47-5.33-1.38-7.12-.66-.31-1.07-1.15-1.48-2.31,5.64,4.69,11.28,4.64,16.8.39,1.16,1.54.62,3.09,1.75,4.39,10.12,11.61,10.41,19.7,1.1,32.63,6.69.6,9.92,5.05,12.75,10.34,3.08,5.75.93,11.27-.22,17.25,3.93-.19,7-3.13,11.09-.91,6.71,3.6,8.22,9.67,9.34,16.08.44,2.53.78,3.19,3.31,1.87,9.79-5.11,17.43-1.11,19.95,10.27.17.78,0,1.66.82,2.27,1.57-.44,2-2.1,3.07-3.07,6.08-5.41,13-5.53,18.42,2.36,1.16,1.68,2.19,3.35,4.32,3.89Z" transform="translate(-13.8 -1)"/><path d="M529.41,37.89c.42-5.06-.27-10.16,2.1-15,4.74-9.6,12.22-11.38,19.79-4,2.63,2.56,3.6,2.69,5-.84,4.73-11.87,17.15-9.72,21.93-.94,1.54,2.84,2.68,3.38,4.74.15,5-7.85,15.43-7.25,19.85.95.39.73.6,1.56,1,2.28.84,1.51,3.2,3.11,1.53,4.69-1.87,1.79-2.33-1.4-3.6-2.1-3.09-1.72-6.37-.56-7.51,3-.6,1.89-.87,3.87-1.46,5.77-1.13,3.67-5.41,6.49-8,4.58-4-2.93-5.06.62-6.94,2.3-1.35,1.21-1.77,3.5-4.56,3.74.67-3.24,3.4-4.68,4.52-7.24,1.56-3.58,1.49-7.09,1.38-10.71-.08-2.6-1.56-4.68-4-5.06-2.61-.41-4.51,1.08-5.85,3.65-1.62,3.13-.13,7.36-4,9.72-2.53,1.53-4.37,4.63-7.95.29,1.19,7.1,4.48,9.34,13.76,10.25a8.2,8.2,0,0,1-7.56,1c-4.45-1.29-9-7.63-9-12.24,0-2.4-.27-4.63-2-6.48-2.93-3.14-6.76-2.46-8.15,1.63a35.53,35.53,0,0,0-1.07,5.87c-1,6.45-4.58,8.81-10.44,6.91,1.16,4.57,3.43,6.17,12.29,8.66-4.91,1.94-5.85,1.67-12.36-3.64-.11,2.79,1.64,5.66-1.1,8.18-1.54-1.67-.84-3.54-.94-5.15C530.57,44.8,529,42,525.66,42s-5.44,2.76-5.75,6.34c-.08.83,0,1.67-.1,2.5-.56,5.77-2.47,7.47-9.52,8.45C511.38,66.3,517.43,65,522,66.5c-2.35.29-5.28-.18-6.92,1.06-2.24,1.71,2.28,4.35.14,6.84-.15,0-.69.08-.71,0-.91-2.93-2.59-5.35-5.89-4.94-4,.5-5.38,4.24-5.76,7.3-.69,5.63-1.57,9.93-8.87,8.51-1.57-.31-1.42,1.56-.65,2.54a4.4,4.4,0,0,0,4.86,1.72c1.64-.41,3.42-.65,4.87.28,3.54,2.25,6.49,2,9.56-1.9-6.93,5.81,1.39,9.5,1.47,14-1.44,1-1.72-.07-2.3-.54-1.79-1.45-3.68-3.37-6.14-2.15a5.89,5.89,0,0,0-3.27,6.19c.22,2.74-1.16,5.21-2.23,7.56-2,4.44-5.95,2.14-9.25,2s-3.06-2.52-3.26-4.6c-.54-5.86.71-11.36,4.56-15.85,2.34-2.73.47-4.6-.5-6.71-3.92-8.52-3-16.37,2.78-23.79,2.49-3.18,5.81-4.87,9.52-4.45,4.19.48,3.58-1.43,2.84-3.93A20.5,20.5,0,0,1,510,37.19c4.52-6.25,10.91-7,17.21-.6C527.76,37.17,528.08,37.93,529.41,37.89Z" transform="translate(-13.8 -1)"/><path d="M340.59,518.74a9.41,9.41,0,0,1-4.19,7.64c-11.41,8.4-24.07,14.49-36.86,20.43C288.16,552.1,276.61,557,265,561.52A100.48,100.48,0,0,1,248.23,566c-4,.8-6-2-4.17-5.77,2.44-5.06,5.34-9.81,6.32-15.57.58-3.39,3.84-5.59,7.08-6.49,10.49-2.88,20.44-7.31,30.74-10.74,13.09-4.35,26.16-9.38,38-16.87,2.41-1.53,4.77-3.2,7.21-1.4C336.8,511.65,340.1,514.58,340.59,518.74Z" transform="translate(-13.8 -1)"/><path d="M743.05,218c-1.6.15-3.36-.6-5.13,2.27a87.38,87.38,0,0,0-.06-8.78c-.36-3-1.88-5.61-5.07-6s-4.47,2.26-5.26,4.92c-.33,1.12-.52,2.27-.78,3.41-1.29,5.56-4.22,7-9.78,5.62-2.34-.57-4.78-.1-4-4.19-7.4,9.9-10.06,12.16-16.56,9,.4-1.39,1.54-.88,2.44-.93,7.82-.42,14.44-8.57,12.93-16.12a6.8,6.8,0,0,0-5.59-5.71c-2.64-.36-4.71,1.78-5.41,4.33-1.45,5.31-2.37,10.77-10.2,8.86-1.45-.36-.29,2.47-1.68,3.1-1.7-.55-2.29-2.5-1.58-3.11,2.47-2.1.87-3.76-.27-5.29-2.92-3.93-1.17-7.28,1.26-10.34,2.75-3.47,2.76-7.37,2.49-11.38a5.67,5.67,0,0,0-4.35-5c-2.27-.66-4,1.08-5,3.2a20.92,20.92,0,0,0-1.35,3.22c-2.26,8-6.19,9.58-12.86,5.19a3,3,0,0,1-1-1c-1.3-2.43.25-12.85,2.24-14.88a13.68,13.68,0,0,0,4-11.06c3,1.07.83,5.13,3.85,5.44,2.15.21,4.44-.28,6.47.27,4.07,1.09,6.73,4.06,8.38,7.86a14.58,14.58,0,0,1,1.23,4.3c.43,4.62,2.43,6,7.33,5.64,6.34-.49,9.38,4.67,12,9.64.6,1.15.53,3,2,3.25,1.67.33,2-1.52,2.57-2.61,3.84-6.79,12.73-7.12,17.57-2.65,1.86,1.71,3.16,3.72,4.63-1,1.35-4.33,4.11-8.76,9.53-10,1.33-.3,2.83-.93,3.88-.25,5.09,3.33,6.08-.35,7.18-4a17.52,17.52,0,0,1,2.37-5.44c6.18-8.52,12.9-8.64,20.19-1.15,3.16,3.25,4.78,6,3.52,10.45-.43,1.52-.07,3.28-.07,5.42-2.47-1.44-1.44-3.45-1.8-5-.7-3-2-5.52-5.46-5.44s-5,2.27-5.17,5.57c-.24,4.82-1.8,8.42-7.48,8.48-1.78,0-2.18,1-1.62,2.69a7.3,7.3,0,0,0,6.41,5.42c1.52.22,3.22-.4,5,.83-6.17,1.43-11,.12-13.39-3.87-1.45-2.45-3.1-4-5.94-3.18-3.31.9-4.24,3.83-4.09,6.65.2,4-1.84,6.07-5,7.78-2,1.07-3.8-.08-5.67-.39-.73,2.85,3.07,3.45,2.19,5.93Z" transform="translate(-13.8 -1)"/><path d="M553.51,207.1c9-11.55,9.94-11.66,25.37-3.34a19.64,19.64,0,0,1,4.61-11.34c4-4.58,8.71-5.1,13.7-1.62,1.45,1,3.17,2.87,4.62,2.23,1.85-.82.83-3.31.8-5-.1-6.15,3.5-10.27,7.61-14,2.53-2.28,11.39-1.18,14.46,1.86a16.88,16.88,0,0,0,7.24,4.66c-4,2.4-4,2.4-3.43,6.57-.3-.06-.75,0-.85-.2-1.58-2.64-3.43-5.49-6.89-4.48-3.73,1.09-4.34,4.47-4.35,8.1,0,4.74-2.92,7.5-7.74,7.84-.95.07-2.1-.45-2.54.85-.37,1.09.37,1.88,1,2.66a10.31,10.31,0,0,0,17.18-1c1.5-2.5,2.53-5.29,4-8.42-.27,12.72-8.34,18-19.75,13.39-1.73-.7-2.45-.53-2.63,1.35-.12,1.25.3,2.76-1.49,3.45-2-1.68-1-4-1.11-6-.12-3.24-.75-6.13-4.54-6.55s-5.88,2.3-6,6.8c0,2,.49,4-.74,5.84-1.56,2.31-2.74,5.13-6.45,4.37a2.15,2.15,0,0,0-2.61,1c-.53,1.2.6,1.76,1.2,2.49,2.77,3.39,8,4.43,12.28,2.43,1.17-.55,2.29-1.22,3.78-2-2.9,4.83-8.48,6.65-13.25,3.82-3.56-2.1-7.27-4.42-7.91-9.52-.43-3.41-3.07-6.82-6.4-6.65-3.05.15-4.48,3.43-4.83,7.1-.77,8-4.29,10.48-11.33,9.15-.85-.16-1.48,0-1.88-1-1.3-3.22-2.35-.93-3.23.28-1.25,1.71-2.15,3.71-4.73,4.9,1.76-3.36,3.4-6.24,4.8-9.23,1.13-2.42,2.11-5,1-7.71s-1.26-6.27-5.59-5.71a6,6,0,0,0-5.58,6.55c.19,3.86-2.1,5.72-4.31,7.95-1.41,1.42-2.9,1.66-4.35.21-2.45-2.45-7.31-2.31-7-7.83.33-5.24,7.87-16.31,12.7-17,5.55-.81,11.11,2.88,13.7,9.12C552.56,204.39,552.92,205.49,553.51,207.1Z" transform="translate(-13.8 -1)"/><path d="M262.47,76.68c1.86-3.58.95-5.08-3-4.85s-5.37-1.62-6-5.55c-.64-3.74.31-9.41-6.43-9.31-3,0-4.66,1.46-4.77,4.5-.18,4.62.29,9.23-1.13,13.83-.63,2,0,4.44,3.53,3,3.26-1.32,5.63.59,5.23,3.88a4.09,4.09,0,0,0,.84,2.75c2.61,4.3,2.71,9,3.09,13.89.42,5.56-3.36,5.44-6.6,5.73-3.71.34-5.84-2.09-6.18-5.66-.22-2.31-.12-4.54-1.46-6.67s-2.3-3.77-5.18-3.94c-3.11-.17-4,1.73-4.94,3.9-.18.38-.66.63-1,.93-.34-.27-.83-.56-.8-.64,2-4.75,1-7.81-4.34-9.52a7.45,7.45,0,0,1-4.93-5.7c1.67-.55,1.93.74,2.5,1.37,5,5.56,12.09,5.58,16.83,0a2.62,2.62,0,0,0,.72-1.73c-.15-1.09-1-.76-1.89-.79-6.12-.26-8-2.08-8.27-8,0-.33,0-.66,0-1,.14-3.28-.19-6.48-3.28-8.39-3.39-2.1-5.34,1.32-7.81,2.61l-2.68-4.1c3.54-.75,6.09-2.89,8.78-5,5.06-4,10.55-3.11,14.42,2.34,2.24,3.15,3.66,3.61,5.41-.13,2.19-4.66,6.3-6.73,11-7.51,2-.33,3-1.15,3.37-3.1,2.55,4.71,4.93,9.38,9.87,11.94.48.25,1.13,1.23,1,1.49-2.75,5.16,0,11.2-2.69,16.37A9.62,9.62,0,0,1,262.47,76.68Z" transform="translate(-13.8 -1)"/><path d="M520.68,210.81c-7.9-1.45-13.6-11.63-11-20.84.87-3.1,1-3.95-2.8-4.69-6.11-1.19-8.91-6.25-11.15-11.94-2.09-5.3-.82-10,.85-14.71,1-2.91.73-4.36-2.28-5.15-1.79-.47-2.46-1.91-2.88-4.3,3.91,2.55,7.11,5,11.78,1.89,3.44-2.25,7.43-3.45,8.4-8.44.56.66,1,1,.91,1.1-2.31,4.31-.56,7.06,3,9.77a12.68,12.68,0,0,1,5,7.46c-.9.95-1.45.53-2,.18-5.29-3.3-8.86-1.58-9.47,4.54-.95,9.52-1.08,9.66-9.8,10.82,1.85,7.07,12.18,8.31,18.21.64,2.26-2.86,3.49-2.12,5.93-1.32,6,2,9.76,5.74,11.36,11.78-1.55,1.06-1.88-.47-2.56-.92-4.35-2.85-7.87-1.27-8.43,3.84-.18,1.64-.24,3.31-.58,4.91-1.1,5.09-3.56,8.51-9.76,6.84C514,207.3,518.45,208,520.68,210.81Z" transform="translate(-13.8 -1)"/><path d="M387.3,179.28c0-2.58-.08-4.21-3.77-4.47-4-.28-5.83-3.95-6-8-.1-1.81.23-3.68-.76-5.37-1.86-3.19-4-5.46-7.74-2.25-.69.6-1.27,1.91-2.37.85-.88-.85-.12-1.86.33-2.73a16.34,16.34,0,0,1,5.09-6.06c2.46-1.71,5.06-3.27,3.21-7.36,2.3,5.39,8,4.7,11.56,7.52,1.67,1.34,8.86-3.17,9-5.32.07-1.57-.85-2-2.25-1.82-5,.57-6.5-2.91-7.48-6.77-.93-3.62-.54-8.16-4.69-9.8s-5.24,3.33-8.09,5.62c-.4-5.92,7.78-9.91,2.31-16.35,3.12,3.57,6.1,2.69,9.64,1.24,4.74-2,9.41,1.71,12.63,8.46,4.86,10.2,1.54,20.82-6.42,26.24-2.15,1.46-2,3.35-1.09,5.27,3.23,6.75.68,13.13-1.22,19.52-.19.62-1.26,1-1.92,1.46Z" transform="translate(-13.8 -1)"/><path d="M630,140.53c3,.68,7.64,4.7,8.14,7.23.31,1.53,1.49,2.13,2.5,2.92a15.45,15.45,0,0,1,6.14,9.94c4.66-7.78,9.14-15.3,19.21-10.62,4.4,2,8.32,10.25,7.54,14.21-.3-.08-.82-.1-.87-.26-.87-3.11-2.49-6-6-5.34-3.72.64-5.4,4.21-5.4,7.5,0,5.3-2.18,7.43-7.21,6.84-2.88-.33-3,1.69-3.28,3.92-2.13-5.09-5.41-9.22-5-14.93a4.8,4.8,0,0,0-5-4.67,5.6,5.6,0,0,0-5.39,5c-.2,1.14-.52,2.27-.69,3.42-.94,6.38-5.82,9.43-11.74,7.34a2.52,2.52,0,0,1-1.53-1.75c-3-7.62.88-18.69,8.2-22.3,3.85-1.89,5.39-3.6,1.65-7a10.06,10.06,0,0,1-1.16-1.49Z" transform="translate(-13.8 -1)"/><path d="M349.58,852.2c-1.37,2.11-.06,3.67.44,5.34a4.32,4.32,0,0,1-1.4,5,5.15,5.15,0,0,1-4.78.66c-2.19-.65-1.56-2.69-1.57-4.24-.06-6.33,0-12.65,0-19,0-2.46.21-4.86,2.77-5.86,2.8-1.09,4.25,1.32,5.75,3,2.37,2.61,3.16,6.1,4.57,9.24.48,1.07.71,2.44,2.05,2.55,1.52.12,2.33-1.2,2.93-2.35,1.61-3.09,3.11-6.24,4.58-9.4,1-2.18,2.55-3.66,5-3.2,2.82.53,2.74,2.92,2.73,5.13,0,6.49,0,13,0,19.47,0,2.44-.2,4.83-3.6,4.76-3.7-.07-3.11-2.6-2.86-5a7.38,7.38,0,0,0,0-2c-.22-1.33.9-3.52-1.26-3.66-1.52-.11-2.2,1.79-2.51,3.31a13,13,0,0,1-.49,2.92,5.06,5.06,0,0,1-3.73,3c-2.12.4-2.89-1.16-3.85-2.51C352.71,857.06,352.81,853.55,349.58,852.2Z" transform="translate(-13.8 -1)"/><path d="M511,848.11c0,3.85,0,6.65,0,9.45,0,3.3-1.39,5.8-4.78,5.75-3.07,0-3.95-2.75-3.74-5.45.42-5.55-1.35-11.27,1.38-16.67a3.6,3.6,0,0,0-.14-2.89c-1.19-2.19-.37-3.59,1.6-4.31s4.07-.66,5.26,1.46c2.62,4.68,7.49,7.55,9.87,12.42a2,2,0,0,0,1.46,1c1-.08,1.13-1.06,1.14-1.9,0-2.82,0-5.65,0-8.47,0-2-.25-4.35,2.53-4.61a4.28,4.28,0,0,1,5,3.92,201.57,201.57,0,0,1,0,20.42c-.13,2.29-2.48,4-4.7,4.71s-2.56-1.91-3.82-2.93C518.06,856.82,516.3,851.64,511,848.11Z" transform="translate(-13.8 -1)"/><path d="M388.36,555.92c-15,.05-18.62-9.15-17-20.51a6.3,6.3,0,0,1,2.15-3.81c6.62-6.09,12.59-8.23,21.37-5,1.55.56,2.66,1.65,1.87,3.43-.89,2-2.22,3.42-4.68,2.18-4.36-2.19-8.39-1.41-12.08,1.47-2.83,2.21-3.59,8-1.58,10.86,3.5,5.07,8.29,6.83,12,4.6,1.58-1,2.7-1.93,2.3-3.92s-1.88-2.14-3.44-2c-3.83.25-3.37-2.39-3.08-4.69.36-2.82,2.23-2.81,4.45-2.1,1.25.39,2.72.19,3.88.73,2.54,1.2,6.3,1.24,6.34,5.28s1.21,8.17-4,10.72C393.91,554.57,391.39,556.61,388.36,555.92Z" transform="translate(-13.8 -1)"/><path d="M419.75,555.9c-8.86-.1-15.59-8-15.19-17.88.2-5.11,9.82-12.89,15.66-12.68,6.71.24,15.44,8.51,15.42,14.59C435.6,548.44,428.09,556,419.75,555.9Zm7.72-14.57c0-6.39-3.35-10.45-8.56-10.31-3.73.09-6.8,4.08-6.8,8.82,0,6.62,1.8,8.38,8.56,8.38C426.7,548.23,427.45,547.47,427.47,541.33Z" transform="translate(-13.8 -1)"/><path d="M409.28,847.94c0-3-.06-6,0-9,.12-4.37,2.85-6.91,7.25-6.84,8.24.12,16.35,6,18.83,13.53,2.13,6.54-5.77,17.23-13.62,17.56-12.09.52-12.83,1-12.5-11.3,0-1.33,0-2.66,0-4Zm6.51-.75h.07c0,2.32-.09,4.63,0,6.94s1.56,4.28,3.74,3.4c3.36-1.36,7.06-2.48,8.7-6.62,1.52-3.86-.77-6.37-2.46-9s-4.53-4.45-8-3.15c-3.3,1.22-1.64,4.22-2,6.47A11.89,11.89,0,0,0,415.79,847.19Z" transform="translate(-13.8 -1)"/><path d="M156.26,512.55c.76-1.77,2.4-1.7,3.84-1.69,10,.07,19.34-3.05,28.23-7,8.3-3.68,16-8.69,23.95-13.2,2-1.15,2-3.25,2-5.31a145.81,145.81,0,0,1,.74-18.76c2,4.83,6.22,9.08,3.1,14.93-.73,1.38-1,3,.44,4.11s2.77-.18,4-.9c10.68-6.07,22.09-9.36,34.44-9,1.41.05,3.42,0,3.32,2-.07,1.48-1.86,1-2.93,1-18.21-1.19-32.9,7.74-47.17,17.07-8.08,5.28-16.05,11-25.05,14a78.22,78.22,0,0,1-24.81,4.28A5.49,5.49,0,0,1,156.26,512.55Z" transform="translate(-13.8 -1)"/><path d="M440.56,540.76c0-2.32,0-4.65,0-7,.06-7.87,2.47-10.31,10.24-9.3,11.28,1.48,19.42,12.72,13.34,23.42-3.27,5.74-14,9.83-20.1,7.49-2.3-.89-3.79-2.3-3.56-5.17C440.74,547.09,440.55,543.92,440.56,540.76Zm6.61-1h-.09c0,2.17-.06,4.33,0,6.5a2.6,2.6,0,0,0,2.73,2.87c4.81.25,8.52-2.36,9.56-6.82.89-3.83-1.8-9.18-5.44-10.83-4.11-1.86-6.66-.25-6.76,4.28C447.15,537.15,447.17,538.48,447.17,539.81Z" transform="translate(-13.8 -1)"/><path d="M496.09,555.91c-2.73-.53-6.37-1.26-9.35-3.9-1.29-1.14-2.12-2.24-.92-3.78s2.41-3.14,4.52-1.6c2.83,2.08,6,1.56,9.15,1.63,1.12,0,2.49.18,2.76-1.42.23-1.39,0-2.71-1.52-3.33-2.42-1-4.91-1.86-7.3-2.92-4.66-2.08-6.92-6.42-5.67-10.66.73-2.46,8.5-6.15,11.48-5.39,1.74.45,3.08,1.77,5,2.06a2.86,2.86,0,0,1,2.47,4c-.77,2.05-2.61,2.46-4.57,1.81-2.59-.85-6.46-3.29-7.34-.06-.74,2.69,3.83,3.72,6.73,4.81,2.6,1,5.86.74,7.51,4.15C512.41,548.33,506.25,556,496.09,555.91Z" transform="translate(-13.8 -1)"/><path d="M391,863.36c-.66,0-1.33,0-2,0-10,.3-8.52-.57-8.52-8.78,0-5.34.37-10.85.54-16.28.13-4.25,1.65-6.53,6.28-6.21,3.63.25,7.3.06,10.95.13,2.31,0,3.95,1.14,3.89,3.57s-2.22,2.54-4.05,2.6c-2.32.07-4.65,0-7,.06-1.89.06-3.2.92-3.26,3s.89,3.09,3,3.15,4.79.11,4.91,3c.12,3.12-2.52,3.41-4.93,3.6-1.7.13-2.89.93-2.86,2.78.05,2.08,1.63,2.2,3.19,2.22,2.32,0,4.66-.12,7,.08,2.16.19,3.88,1.29,3.86,3.74s-1.72,3.38-4,3.38h-7Z" transform="translate(-13.8 -1)"/><path d="M387.18,179.16a6.42,6.42,0,0,1-6.31,4.05c-4.34-.08-4.76,2-4.24,5.74.8,5.71,1,11.53-4.16,16.57,1.16-3.15.82-4.07-2.52-3.93a6,6,0,0,1-6.13-5.48c-.33-2.3-.73-4.59-1.17-6.87-1.13-6-3.75-7-8.38-3.34-.74.58-1.11,1.66-2.31,1.67,1-8.77,5.68-10.92,13.25-13,2.93-.8,4.72,1.27,6.38,2.93,5.84,5.8,5.77,5.88,12.84,2a3.15,3.15,0,0,1,2.86-.25Z" transform="translate(-13.8 -1)"/><path d="M549,863.36c-1,0-2,0-3,0-9.07.49-10.85-.81-9.15-10.88.82-4.84.7-9.63,1.3-14.41.39-3.08,1.37-3.87,4.41-4.56,4.27-1,8.37.15,12.54-.34a3.37,3.37,0,0,1,3.67,3.28c.11,2.09-2,1.86-3.38,1.93-2.49.12-5,0-7.48.07-1.94,0-3.12,1-3.2,3-.07,1.71.51,2.94,2.41,3.13,2.5.24,4,1.38,3.94,4.12,0,2.95-2.23,2.25-3.9,2.53a2.5,2.5,0,0,0-2.33,2.73c0,1.39.81,2,2.1,2.32,2.33.59,4.42,2.19,7.06.45,2.25-1.47,4.06.65,5.84,1.65,1.18.66.9,2,.37,3.13-1,2.15-2.92,1.81-4.73,1.82Z" transform="translate(-13.8 -1)"/><path d="M76.55,136.52c-1.08-5.44,4.2-9.3,2.69-14.71-.38-1.35,1.25-1,2.16-1.13,4.64-.89,9.26-1.89,13.88-2.84,1,5.2,6.65,8,7.18,13.62.05.46.45.89.6,1.36,1.87,5.67-.16,9-6.47,10.74-3.51.95-6.42-1.72-7.78-7.14-1.2-4.79-4.7-7.09-8.08-5.17C78.7,132.4,78.84,135.45,76.55,136.52Z" transform="translate(-13.8 -1)"/><path d="M72.32,105.76c0-6.8,3.75-10.13,6.5-14.21C82.35,86.29,86.08,88,89.88,90c3.48,1.89,6.59,4.35,10.9.72-7.22,4.7-1.2,10.5-2,15.58-.85,5.39-.2,5.5-2.39,5.78-8.79,1.16-9.62.64-11.44-4.84-.83-2.48-.59-5.83-3.86-7C78.12,99.1,75.53,100.53,72.32,105.76Z" transform="translate(-13.8 -1)"/><path d="M630.09,140.53c-1-5-2.89-9.87-1.35-15.13,1-3.43,2.26-6.79,5.14-8.9,3.21-2.34,5.61-4.32,1-8.13,4.8,2.79,8.61,7.31,15.14,4.18-2.14,6.54,7,9.79,4.22,16.47-1.72,0-1.87-1.07-1.85-2,.07-2.94-1.57-4.26-4.22-4.52-3-.3-4.75,1.51-5.57,4a35.08,35.08,0,0,0-1,6.37c-.44,3.49-2.37,5.6-5.91,5.35a7.14,7.14,0,0,0-5.75,2.3S630.09,140.53,630.09,140.53Z" transform="translate(-13.8 -1)"/><path d="M94.49,49.91c-2.13-8.4,6.24-19.33,15.87-17.87,4.11.62,5.34,4.66,7.21,7.56,4.12,6.35,3.93,6.47,10.41,7.81-1.27,1.21-2.8.75-4.11.62-2.82-.27-4.23.86-3.93,3.62.56,5.18-4,4-6.47,5-2.64,1.12-4.75-1-6-3.27a19.23,19.23,0,0,1-2.08-5.59c-.5-2.52-1.36-4.61-4.21-4.72s-4.45,1.78-5.35,4.34A24.73,24.73,0,0,1,94.49,49.91Z" transform="translate(-13.8 -1)"/><path d="M512.74,132.59c-2.5-1.55-4.26-4.59-7.73-3.29-3.76,1.41-3.95,4.81-4.08,8.23-.25,6.71-7.23,11-12.34,7.25-1.87-1.38-2.94-4.65-2.42-7.65,1-6,3.72-11.54,6.51-16.8.74-1.38,5.29-.75,8.1-1,.28,0,.59.39.89.4C510,120,510.16,127.32,512.74,132.59Z" transform="translate(-13.8 -1)"/><path d="M593.12,45.34c6.7-.68,9.12-5.36,11-10.74,2-5.78,6-10.52,12.06-10.13,6.42.4,10.11,5.79,12.34,11.71.3.78.57,1.58-.16,2.29-1,.2-1.49-.36-1.9-1.16-1-2-2.49-4.07-4.91-3.11s-4.89,2.89-5,6.18c-.08,2.3.15,4.6-1.44,6.66-1.94,2.5-8.05,4.31-10.44,2.81-1.09-.68.16-1.44.08-2.16-.47-4-2.43-4.8-5.65-2.44C596.79,46.91,596.79,46.91,593.12,45.34Z" transform="translate(-13.8 -1)"/><path d="M770.61,64.53c2.93.49,5.33,2.41,8.49,2.25,2.29-.12,4.84-.37,5.87-2.11,2.84-4.79,7.09-3.31,10.76-2.58a10.45,10.45,0,0,1,7.41,6.83c1.55,4.13,4.45,8.08,3.18,13-1.92-.19-1.44-1.41-1.49-2.24-.24-3.74-1.37-7.45-5.49-7.7s-5.48,3.61-6.06,7.15c-.67,4.07-2.66,6.59-7,5.94-4.09-.62-6.58-3.08-6.4-7.5a16.69,16.69,0,0,1,.7-4.9c1-2.62.36-3.74-2.48-3.75C774.86,69,772.74,66.76,770.61,64.53Z" transform="translate(-13.8 -1)"/><path d="M799.84,171.78c0-2.53-.33-5.12.07-7.59a5.27,5.27,0,0,0-4.66-6.4c-2.41-.28-5,2-5.55,5.21-.24,1.47-.81,2.88-1.09,4.35-.79,4-3.65,6.12-7.15,5.18-3.12-.84-7.12-2.25-6.46-7.23s2.18-9.74,5.36-13.65c2.3-2.83,5.29-5.8,9.35-4.08,4.36,1.85,8.88,3.41,10.38,9.35C801.38,162,801.62,166.76,799.84,171.78Z" transform="translate(-13.8 -1)"/><path d="M113.49,63.82a3.78,3.78,0,0,1-3.22,2.88c-6.22,1.53-6.61,1.93-4.65,8.16.77,2.44.14,4-1.17,5.92-1.68,2.43-3.83,3.68-6.7,3.43-3.22-.27-4.12-3-5.17-5.43-.52-1.18-.23-2.75-.84-3.85-1.16-2.11-2.12-4.71-5.29-4.58-2.88.13-3.91,2.07-4.46,4.55-.13.56-.68,1-1.14,1.69-1.72-5.85,3.77-14.47,9.4-16.19,4.24-1.29,7.14-2.22,10.31,2.61C103.31,67.19,108.54,65.66,113.49,63.82Z" transform="translate(-13.8 -1)"/><path d="M334.2,206.26c-.38-7.27,5.55-12.93,12.69-13.32,3.75-.2,6.16.94,7.53,3.84,2.4,5.13,7.63,9.27,5.5,16.13-1.4,4.53-5,5.09-8.48,5-3.68-.08-5.72-2.84-6.15-6.59-1-8.7-4.27-10.21-11.23-5.23Z" transform="translate(-13.8 -1)"/><path d="M790.18,118.35c4.69,3.73,12,.84,14.71,5.37,2.4,4,5,8.93,4.56,14.68-1.87-.54-2.32-2.13-3-3.43-1-2-2.12-4.32-4.72-3.39s-5.18,2.62-5.41,5.61c-.33,4.36-1.73,7.65-6.49,7.74-3.66.07-6.23-4.32-6.44-9.25-.2-4.61,1-8.52,4.57-11.51C789.66,122.74,789.74,120.76,790.18,118.35Z" transform="translate(-13.8 -1)"/><path d="M812.2,105.8c-1.18-3.22-3.34-4.46-6.54-4.19-3.44.29-4.11,2.9-4.9,5.47a29.37,29.37,0,0,0-1,3.29c-.54,3.17-2.86,4.94-5.55,4.66-2.93-.3-6.41-1-7.39-4.79-2.14-8.33,5.53-19.86,14-21.12,3.05-.44,3.66,2.84,5.8,4C810.67,95.24,813,100.92,812.2,105.8Z" transform="translate(-13.8 -1)"/><path d="M112.38,29.11c-.21-5.9,4-13.2,9.07-15.13,3.58-1.37,7-1.41,10,1.88,3.34,3.68,7.32,6.8,8,12.24.17,1.4.86,2.71-1.36,2.75-1.45,0-2,.86-2.24,2.16-.56,3.06-3.3,3.26-5.42,3.34-2.4.1-4.32-1.52-5.42-3.81C120.84,23.85,119.92,23.6,112.38,29.11Z" transform="translate(-13.8 -1)"/><path d="M466.94,863.52c-14.55,1.52-17.93-13.26-13.89-23,1.44-3.45,12-8.56,15.77-7.61a18.8,18.8,0,0,0,4.38.71c2.36,0,3.41,1.24,2.94,3.51-.5,2.44-1.65,3-4.31,2.08-7.2-2.55-14.4,2.73-13.89,9.84.45,6.36,8.11,10.55,13.65,7.42,2.53-1.42,5.67-4.25,7.44-.25,1.66,3.77-2.31,5.51-5.2,6.58C471.73,863.6,469.25,863.33,466.94,863.52Z" transform="translate(-13.8 -1)"/><path d="M569.62,101.44c.42-5.09,2.49-6.45,6.52-6.35,4.43.11,2.88,3.17,3,5.3.18,2.32,0,4.65.81,6.9.34,1-.14,2.66,1.68,2.43,1.45-.19,1.49-1.67,1.7-2.75.44-2.3-1.11-4.12-1.84-6.09s-.47-3.93,1-4.93c1.84-1.22,3.88-2.66,6.41-2.21,1.56.27,1.46,1.54,1.58,2.69.48,4.76-.9,9.63.9,14.32.38,1-.38,1.56-1.31,1.61s-2-.29-2.13-1.55c-.19-1.41.62-3-.77-4.41-2.59,1-1.61,4.35-4,5.77-5.75,3.39-11.49,2.56-15.67-3a3,3,0,0,0-2.94-1.43c-1.61.23-1.55,1.49-1.55,2.66,0,1.82-.42,3.75-2.58,3.4-2.53-.41-1.59-2.66-1.05-4,1.36-3.48,1-7.2,2-10.7.28-1.06,1.24-1.95,2-3.1,2.24,1.66,2.7,4.15,3.44,6.41,1,3,2.41,5.61,5.45,7.12,1,.49,1.66,1.91,2.91,1a3.18,3.18,0,0,0,.79-2.22c0-1.6-.36-3-2.37-3.15-1-.07-2.12-.07-2.22-1.42s.76-1.74,1.84-1.94c1.5-.27,3.18-.4,2.7-2.61a2.29,2.29,0,0,0-1.08-1.52c-2-.64-2.49,1-3.24,2.27C571.43,100.27,570.93,100.47,569.62,101.44Z" transform="translate(-13.8 -1)"/><path d="M323.45,94.09c2.73,4.3,1.1,9.47,4,13.52.79,1.12.82,3.67-1.33,4.14-2.35.51-2-1.65-2-3a3,3,0,0,0-2.59-3.19c-2.16-.34-1.77,1.69-2.49,2.86-1.66,2.67-2.68,5.74-7.64,4.67-5.28-1.14-9.75-2.41-12-7.45-3,1.12,1.13,5.36-2.39,5s-1.06-3.8-1.41-5.8a35.19,35.19,0,0,1,0-7.47c.08-1.8-1.73-4.11,1-5.29,2.17-1,4.21-.19,6,1.22,2.05,1.58,3,3.45,2,6.06a29.22,29.22,0,0,0-1.48,4.71c-.36,1.68-.34,3.83,1.52,4.26s1.21-1.92,1.82-3a10,10,0,0,0,.54-9.1c-.47-1.28-.33-2.53,1.24-2.59,2.4-.08,5.18-1.24,7,.9.93,1.07,2,3,.86,4.58-.95,1.29-1.68.12-2-.89-.37-1.36-.82-2.67-2.51-2.51-.46,0-1,.85-1.21,1.42-.47,1.35-.37,2.77,1.05,3.48,2.88,1.44,4.32,2.31-.21,3.59-1.95.56-1.73,3.25-.82,4.8s2.29.32,3.3-.48c1.51-1.19,3.51-1.6,4.64-3.56.49-.86-.6-5.46,3.46-2.41.71.53,1.23-2.4.4-3.58C320.72,96.87,321,95.41,323.45,94.09Z" transform="translate(-13.8 -1)"/><path d="M149.35,103.71c0-4.14,0-7.38,0-10.62,0-2.52-.92-5.55,3.59-5.41,3.81.11,5.88,1.44,5.91,5.56-2.78.48-3.4-6.08-6.11-2.22-2.55,3.64,2.64,3.64,4.47,5.52-2,1.65-6,1-5,5.1.37,1.49,1,2.59,2.72,1.8,3.4-1.55,5.7-4.92,9.58-5.72.54-.11,1-1.43.42-1.63-5.24-1.74.16-4.43-.59-6.61,3.44,4.59,3.55,10.24,5.1,15.39.23.8-.5,1.59-1.42,1.76s-1.94,0-2.14-.85c-1-4.68-2.12-8-5-.77-.12.3-.81.54-1.22.53-4.1-.1-8.33,3.15-12.28-.53-1.79-1.67-3.64-3.29-5.4-4.87-1.31.26-1.11,1.21-1.23,2s.29,2.29-1.28,2.09a2,2,0,0,1-1.82-2.52,28.5,28.5,0,0,0-.21-12.86c-.53-2.12.75-2.58,2.48-2.71,2.69-.2,5.63-.76,6.63,2.7.69,2.38,1,5-.6,7.21C143.41,99.55,145.64,101.23,149.35,103.71Z" transform="translate(-13.8 -1)"/><path d="M248.12,503.17c-.25,1.34-1.29,1.43-2.27,1.47-12.2.6-22.14,6.6-32.58,12.28-14.19,7.71-28.58,15.44-44.4,19.64-6.36,1.69-13.16,1-19.44,3.42-1.51.59-3.26-.18-4.47-3,6.12,1.17,10.75-2.37,16.36-2.74,12-.78,22.65-6.11,33.19-11.35,9-4.48,17.57-10,26.7-14.19,7.52-3.47,15.22-7.15,23.94-6.55C246.22,502.23,247.55,501.68,248.12,503.17Z" transform="translate(-13.8 -1)"/><path d="M197.38,365.41c-1.67,2.53-4.56,1.2-6.78,1.85-16.35,4.74-27.9,15.58-38.17,28.49-8,10.05-17.37,18.74-29.7,23.33-4.12,1.53-8.47,3.39-14.19,1.78,3.52-2.36,6.88-3,9.66-3.64,9.89-2.27,17-8.36,24.1-15,6.34-5.9,10.94-13.29,17-19.33s13.63-10.94,21.45-15.09c4.36-2.31,8.64-4.09,13.62-3.74C195.45,364.18,196.79,363.77,197.38,365.41Z" transform="translate(-13.8 -1)"/><path d="M730.17,97.31c1.72-1.2,5.19-1.67,3.15-4.8-1.77-2.72-3.28.43-5,.9-.83-2-.87-3.91,1.32-4.54a10.1,10.1,0,0,1,7.29.28,1.19,1.19,0,0,1,.4,1.74c-1.93,2.75-.78,5.81-.91,8.72-.06,1.4-.6,3.17,1,4.08.78.45,1.45-.43,2-1.06,1.37-1.5,1.78-2.74.47-4.78s-2.62-4.3-.92-7.33,4.23-2.86,6.79-2.63c3.2.29,1.93,2.92,2,4.69.18,3.66.2,7.31.28,11,0,.85,0,1.72-1,2.06a1.2,1.2,0,0,1-1.77-1.08c-.46-4.58-2.46-2.35-3.9-.77-3.77,4.09-7.88,6.38-13.6,4-1.69-.7-3-1.42-3.31-3.27-.25-1.33-.37-2.91-2.18-2.74s-2.51,1.44-2.68,3.11c-.14,1.27,0,3.13-1.9,2.68-1.56-.37-1.19-2.26-.94-3.45.74-3.56,1.66-7.09,2.62-10.6.28-1,.61-2.65,2.11-2.19s1.69,2,1.13,3.35c-.77,1.87-2.72,4.12,1.66,3.63.18,0,.67,1.09.68,1.68.09,4.51,4.27,3.53,6.65,4.93a1.33,1.33,0,0,0,2-.92c.2-1.59.73-3.34-.74-4.67C732.18,98.69,730.85,99.08,730.17,97.31ZM743.67,90c-2.1,1.7-3.07,3.41-1.46,5.65a1.27,1.27,0,0,0,2.11.1C746.63,93.52,744.61,92,743.67,90Z" transform="translate(-13.8 -1)"/><path d="M776.35,421.14c-6.21,1.13-10.55-.33-14.84-2.14-12.3-5.17-21.5-14.24-29.54-24.42s-17.34-18.71-29.06-24.27c-3.84-1.81-8.22-2.51-12.37-3.61-1.08-.29-2.37.05-3-1.45,1.5-2,3.67-1.48,5.43-1,16.23,4.31,29.41,13.36,39.75,26.49,8.52,10.82,18.07,20.39,30.79,26.16C767.19,418.54,771.17,419.45,776.35,421.14Z" transform="translate(-13.8 -1)"/><path d="M580,146.48c0,2.15.08,4.31,0,6.46-.07,1.42-.68,2.75-2.41,2.42a2,2,0,0,1-1.29-2.8c2.33-6.08-4.64-4.62-6.24-7.59-.35-.66-1.35.71-1.21,1.84.22,2,.4,3.93.49,5.91.06,1.38-.15,2.81-1.95,2.86a2.53,2.53,0,0,1-2.9-2.68,4.9,4.9,0,0,0-2.55-4.78c-2.86-1.83-4.92-4.72-2.69-8.41,2.08-3.43,6-3.92,9.75-1.23,1,.68,1.75,1.25,2.43.21,1.92-2.89,4.62-2.6,7.06-1.48,2.68,1.24,1.27,4.12,1.62,6.29a19.74,19.74,0,0,1,0,3Z" transform="translate(-13.8 -1)"/><path d="M641.64,197.85c1.7-1.2,3.24-1.81,4-2.95,1.15-1.71,2.9-2.49,4.14-1.46,1.61,1.32,4.24,2.12,4.2,4.95,0,1.31.34,2.89-1.45,3.24-1.58.31-2.44-.67-2.7-2.22-.2-1.18.35-3.22-1.68-2.84-1.8.33-.92,2.24-.75,3.4.4,2.93,1,5.84,1.62,8.74.22,1,1.28,2.43-.69,2.65-1.33.14-2-1.05-2.08-2.33-.11-1.65-.14-3.32-.1-5,.05-2.06-1.34-2.47-2.91-2.6-1.92-.15-2.08,1.25-2.1,2.65,0,2.07,0,4.15,0,6.78-3.59-4.89-3.39-4.84-2.09-10.19.73-3-1-6.09.22-9.43,2.58-6.85,6.52-9.52,12.9-8,4.09,1,5.37,4.42,6.42,7.53,2.26,6.66,2.13,13.37-1.61,19.64-1.53-3.72.94-7.23.4-10.92-.24-1.61.18-3.32,0-5-.62-6.46-4.3-9.74-10.22-9.24C642.9,185.63,640.72,190.23,641.64,197.85Z" transform="translate(-13.8 -1)"/><path d="M99.27,393.11c16.61-3.92,27.8-15.5,39.37-26.54,6.76-6.45,14.74-11,23.14-14.94a11.62,11.62,0,0,1,3.37-.81c.8-.11,1.8,0,2.1.9.41,1.28-.61,1.83-1.59,2-10.18,2.18-17.49,9.23-25.46,15.11-3.57,2.62-6.35,6.2-9.54,9.28-6.75,6.51-14.78,10.76-23,14.9A8.67,8.67,0,0,1,99.27,393.11Z" transform="translate(-13.8 -1)"/><path d="M316.82,142.33c-1.76,1.54-2,4.06-4.54,4.07s-2.94,1.61-2.54,3.76c.28,1.5.51,3.25-1.77,3.24s-2-1.84-2-3.31c0-3.32-.05-6.64.13-10,.09-1.82-.83-4.3,1.86-5.06a6,6,0,0,1,6.67,2.15,27.14,27.14,0,0,1,1.84,3.3c2.06-1.75,1.32-6.51,5.76-5.26.54,1.87-1.37,2.84-1.6,4.43-.19,1.4-.17,2.66,1.07,3.57a1.88,1.88,0,0,0,2.31.15c1.35-.92,1.36-2.15.67-3.48-.47-.91-.84-1.82.12-2.66,4.25,3,4,7.87-.79,9.63-2.33.85-3.95,1.44-3.56,4.25.15,1-.14,2.22-1.38,2.22-1.69,0-1.46-1.48-1.46-2.6,0-1.48.06-3,.18-4.46C317.9,145,318.2,143.72,316.82,142.33Z" transform="translate(-13.8 -1)"/><path d="M148.13,149.73c0-4.92,0-8.69,0-12.46,0-.78.2-1.77-.77-2.15-1.35-.54-1.66.7-2.16,1.47-1.93,3-1,6.07-.35,9.14.23,1.05,1.51,2.29,0,3s-1.87-.9-2.51-1.81c-1-1.4.42-4.52-3-4.22-3,.28-3.86,2.12-3.63,4.87.07.84-.31,1.71-1.42,1.59a1.64,1.64,0,0,1-1.48-1.75c.71-4.48-.81-8.91-.27-13.32.35-2.85,4.35-4,7.82-2.12,1.67.91,2.77,1.35,4.42.11,2.22-1.67,3.81.1,5,1.59C151.59,135.74,150.76,146.14,148.13,149.73Z" transform="translate(-13.8 -1)"/><path d="M288.28,65.25c0-.83,0-1.66,0-2.5-.17-7.93,1.54-9,8.54-5.29.57.3,1.35.88,1.73.7,2.58-1.21,5.1-2.15,7,.94a12.47,12.47,0,0,1,1.24,11.46c-.12.31-.29.6-.43.9-.77,1.66-1.37,3.48-3.73,3.43-2.12,0-3.23-1.47-4.23-3a10.34,10.34,0,0,1-.77-1.84c-.67-1.71-1.13-3.45-3.7-3.16s-3.19,1.91-3.19,4.15c0,1.14,0,2.67-1.59,2.53s-1.2-1.72-1.14-2.81c.09-1.83.31-3.65.48-5.47ZM301,73.13c3.55-3.14,3.54-6.88,3.16-10.66-.12-1.15-.31-2.56-1.85-2.46-1.24.08-1.31,1.28-1.31,2.32C301,65.93,301,69.53,301,73.13Zm-7.78-15c-1.94.3-2.4,1.64-2.35,3.25s.11,3.44,2.05,3.33,2.12-2.31,2.43-3.79S294.59,58.46,293.19,58.09Z" transform="translate(-13.8 -1)"/><path d="M347.84,69.92c-.13,3.68-2.08,4.4-5.5,4.32s-4.34-1.68-4.16-4.59c.12-2,.57-4,.5-5.92s1.95-4.82-1.43-5.22c-3.09-.37-7.21-.71-7.93,3.77-.52,3.23,0,6.8,4.15,7.73,1.45.33,2.11.76,2,2.14-.16,1.68-1.33,2.1-2.83,2.07-2.53,0-4.33-1.41-4.56-3.75A56,56,0,0,1,328,59.56a4.26,4.26,0,0,1,4.43-4c3.32.4,6.33-.21,9.51-.78,2.1-.38,4.81-.3,5.39,3,.55,3.1.54,6-2.84,7.49-1.14.5-2.22.73-2.22,2.17,0,1.29-.58,2.81.63,3.76C345,72.83,345.61,69.05,347.84,69.92Z" transform="translate(-13.8 -1)"/><path d="M597.84,64.18c-.05,2.4-.3,4.4.48,6.33.62,1.57,1.48,3.57-.75,4.18-2.05.55-2.1-1.61-2.28-3-.22-1.74-1.18-2.44-2.81-3-2.16-.71-3.18-.87-3.49,2s-1.39,5.93-5.06,5.63-4.66-3.24-4.64-6.54c0-2.16,0-4.33.15-6.48S581,58.56,582.83,59c4.15,1.06,7.28-1.52,10.88-1.87C600,56.54,597,61.77,597.84,64.18Zm-12.06,3.11c-1.32-1.65,1.66-5.56-2-5.75-2.12-.11-2.11,3.68-1.86,5.85s-.13,6.21,2.22,6.13C586.87,73.41,585.06,69.7,585.78,67.29Zm9.36-5c-.28-1-.17-3-2.12-3s-2.49,1.76-2.49,3.52a2.3,2.3,0,0,0,2.76,2.59C595.13,65.38,595.25,64.1,595.14,62.32Z" transform="translate(-13.8 -1)"/><path d="M752.79,142.1a24.84,24.84,0,0,1,0,3c-.2,1.71.92,4.45-1.17,4.86-2.85.55-1.66-2.5-2.2-4a3.06,3.06,0,0,0-2.56-2.08,2.22,2.22,0,0,0-2.64,1.68,37,37,0,0,1-1.66,3.62,1.5,1.5,0,0,1-2.08.79c-1-.56-.42-1.44,0-2.12,1.87-2.92.92-6.13.87-9.22a2.25,2.25,0,0,0-2.13-2.38c-1.78,0-1.28,1.65-1.31,2.68-.07,2.82,0,5.64,0,8.47,0,.92.4,2.23-1,2.3a2.86,2.86,0,0,1-1.92-1.29c-1.57-2.27-.58-11.14,1.19-13.35a3.65,3.65,0,0,1,4.42-1.31c2.59,1,8-1.31,6.29,5.15a1.4,1.4,0,0,0,1.6,1.5c1-.26,1-1.59,1.56-2.34,1-1.38-2.5-4.2.84-4.18s1.51,3.34,1.9,5.22a14.79,14.79,0,0,1,0,3Z" transform="translate(-13.8 -1)"/><path d="M770,386.94c-6.72.15-10.92-4.36-15.1-8.55-7.67-7.7-15.72-14.87-25.26-20.17a84.16,84.16,0,0,0-8.52-4.07c-1.31-.54-3.54-.3-2.72-2.45.59-1.55,2.27-.46,3.51-.06,12,3.92,21.59,11.44,30.24,20.26,5,5.07,10,10,16.39,13.31.78.4,1.4.87,1.33,1.86Z" transform="translate(-13.8 -1)"/><path d="M494,848c0,3.66,0,7.33,0,11,0,2.47-1.08,4.29-3.84,4.22s-2.39-2.31-2.41-4.06c0-6.66,0-13.33,0-20a5.27,5.27,0,0,1,1-3.76,3.65,3.65,0,0,1,3.49-1.5c1.78.32,1.74,1.76,1.75,3.1C494,840.65,494,844.31,494,848Z" transform="translate(-13.8 -1)"/><path d="M445.43,848.82c0,3.82,0,7.63,0,11.45,0,1.62-.4,3-2.44,3a2.64,2.64,0,0,1-2.89-2.15c-2.07-8.35-.87-16.82-1-25.25,0-2,1.65-2.2,3.25-2.16,2,.06,3,1.16,3,3.15,0,4,0,8,0,12Z" transform="translate(-13.8 -1)"/><path d="M701.7,140.88c0,2.15-.15,4.31,0,6.45.36,4.38-1.39,5.88-5.8,4.9-1.51-.33-2.51-1.15-2.5-2.63,0-2.29,1.45-1.49,2.77-1.11,2.25.65,2.48-1.18,2.64-2.6.2-1.72,0-3.53-2.44-3.4-5.76.33-4-4.32-4-6.89-.06-3.13,4.11-5.13,7.14-4.22,1.61.49,2,1.65,2,3,0,2.16,0,4.31,0,6.47Z" transform="translate(-13.8 -1)"/><path d="M698.48,67.13c2-.42,3,3.25,5.23,1.26,1.26-1.14.86-2.77.79-4.25-.06-1.3-.48-2.24-2.06-2.18-.8,0-1.83,0-1.91-1.1-.09-1.34,1-1.54,2-1.58,2.29-.09,2.22-1.76,1.9-3.21-.43-2-1.75-2.19-3.37-1.11-.68.45-1.5,1.07-2.13.08s0-2,.81-2.55c2.09-1.5,4.46-1.18,6.73-.66S708,54.48,708.08,56c.12,4,0,8,.41,12,2.34-4.39-.13-9.64,2.49-14,1.37,5,1.14,10,.94,15-.06,1.24-1.33,1.23-2.27,1.53-3,1-6-.35-9.19.76C698.72,71.77,697.84,69.23,698.48,67.13Z" transform="translate(-13.8 -1)"/><path d="M754.56,59.9c0,2.15,0,4.31,0,6.46,0,1.1-.28,2-1.51,2.15s-1.62-.87-1.73-1.93c0-.33,0-.67,0-1-.23-2,.85-5.39-1.92-5.32s-1.15,3.46-1.55,5.36c-.24,1.14-.11,2.52-1.65,2.62s-1.69-1.3-1.71-2.45c-.06-4.15-.07-8.29-.06-12.43,0-1,.22-2.12,1.43-2.28,1.63-.21,1.76,1.07,1.93,2.27s-.21,3.14,1.58,3.13c2,0,1.9-1.88,1.93-3.4,0-1.14-.1-2.71,1.43-2.7,1.86,0,1.56,1.81,1.6,3.06.08,2.15,0,4.31,0,6.46Z" transform="translate(-13.8 -1)"/><path d="M162.28,59.81a30,30,0,0,1,0-4.45c.3-2-1.33-4.94,2.37-5.53,3.12-.5,5.13,1.26,6.42,3.66s1.13,5.39-1.27,6.64c-3.09,1.62-4.9,3.32-4.52,7,.11,1-.78,1.75-2,1.7-1.37-.06-1.47-1-1.46-2,0-2.31,0-4.63,0-6.94Z" transform="translate(-13.8 -1)"/><path d="M342.27,102.77c0-1.5-.09-3,0-4.49.12-1.68-.88-4.13,1.72-4.52,2.35-.35,5-1.15,7.19.66.65.53,1.34,1.33.83,2.13-.89,1.37-1.47.44-2.11-.45-1.14-1.56-2.41-1-3.12.3-.81,1.5-.49,3,1.41,3.53,1.22.37,2.93.22,2.5,2.24-.29,1.38-1.54,1.56-2.75,1.63-2.11.13-3.2,1.13-2.29,3.25.78,1.84,1.64,4.1,4.19,1.56.49-.49,1.24-.81,1.67-.13a2.23,2.23,0,0,1,0,1.81c-1.37,3-4.12,2.2-6.54,2.23-2.6,0-2.81-1.81-2.81-3.77s0-4,0-6Z" transform="translate(-13.8 -1)"/><path d="M590.64,146.15c0-2.33,0-4.66,0-7,0-1,.39-2.07,1.65-2.08s1.48,1,1.82,2c.5,1.51-1.29,4.32,1.57,4.38,2.51.05,1.92-2.59,2.09-4.33.08-.79,0-1.83,1-2,1.33-.14,1.68,1,1.71,2,.1,4.49.14,9,.08,13.48,0,1.11-.2,2.61-1.82,2.4-1.33-.16-.93-1.51-1-2.44,0-.66,0-1.33,0-2-.06-1.65.15-3.83-2.24-3.62-2.1.2-1.21,2.34-1.39,3.7-.22,1.69.7,4.43-1.84,4.42s-1.55-2.79-1.71-4.44a42.18,42.18,0,0,1,0-4.5Z" transform="translate(-13.8 -1)"/><path d="M535,98.53c-.85-2.68.34-3.63,3-3.33,2.24.26,5.44-1.18,5.71,2.85.32,4.65.59,9.31.63,14,0,3-2.48,2.14-4.11,2.09-2-.06-4.63,1-5.32-2.17-.27-1.21.09-2.76,1.77-1.82,3,1.65,3.77-.61,4.18-2.38.72-3.17-1.64-2.94-3.75-2.77-.86.07-1.74-.15-1.85-1.2a1.59,1.59,0,0,1,1.38-1.79c2.55-.29,3.95-1.74,2.81-4C537.83,94.85,536.72,99.55,535,98.53Z" transform="translate(-13.8 -1)"/><path d="M150.65,59.2c0-1.49,0-3,0-4.47,0-2.39-.16-4.75,3.23-5,2.9-.24,5.48.13,6.26,3.39.67,2.78,1.12,6.22-2.39,7.14-3.21.84-3.85,2.46-3.7,5.23.06,1.19-.25,2.51-1.82,2.39s-1.48-1.56-1.52-2.67c-.07-2,0-4,0-6Z" transform="translate(-13.8 -1)"/><path d="M193.51,135.43a2.64,2.64,0,0,1-2.58-.92c-1.2-.95-2.49-1.29-3.35.27s-.71,2.94,1.29,3.49c1.1.3,2.64.23,2.57,1.75-.07,1.75-1.79.79-2.72,1.19-2.52,1.1-1.78,3.35-1.41,5.17s1.83,1.38,3.12.7c.82-.42,1.87-1.26,2.46.14.45,1.05-.29,1.94-1.19,2.47a8,8,0,0,1-6.28.64c-2.22-.64-1.4-2.74-1.45-4.26-.1-3.48-.07-7,0-10.46.06-2-.85-4.75,2.77-4.54C189.67,131.24,193.49,130.06,193.51,135.43Z" transform="translate(-13.8 -1)"/><path d="M471.26,532.5a25.43,25.43,0,0,1,4.35-9.75c1.3-1.76,3.11-2.4,5.21-1,1.9,1.29,1.57,2.61.91,4.64-1,3.05-2.94,5.54-4,8.47-.71,1.91-2.33,2.2-4.09,2C471.35,536.54,471.37,534.77,471.26,532.5Z" transform="translate(-13.8 -1)"/><path d="M335.71,144.09c0-1.16,0-2.33,0-3.49.07-5.46,2.56-7.19,7.76-5.68,1.86.53,1.82,1.81,1.64,3.06-.36,2.36-1.49.83-2.34.31-1.48-.9-2.57-.57-3.12,1s.51,2.08,1.83,2.2,2.92.2,3,1.94-1.57,1.94-2.9,1.87c-3-.17-2.58,1.92-2.46,3.7.18,2.51,1.82,2.31,3.61,1.79.78-.23,1.82-1.45,2.32.21.42,1.36-.35,2.05-1.72,2.44-5.18,1.5-7.56-.15-7.56-5.4,0-1.33,0-2.66,0-4Z" transform="translate(-13.8 -1)"/><path d="M637.74,36.29c.32.07.89.1.91.23,1.29,7,5.73,3.84,9.3,2.77,4.29-1.28,5-4.62,4.66-8.66-.23-2.62-1.15-5.48,1.19-8.35,3.11,7.66.69,14.36-2.16,21.32-1.86.67-2.28-5.52-5.73-1.72-1.92,2.11-2.58,3.51.57,5.95-8.2-2.1-8.2-2.1-8.62-11.66Z" transform="translate(-13.8 -1)"/><path d="M540.91,141c.28-4.21,2.61-4.73,5.5-4.6s3.46,1.58,3.32,4.28c-.22,4.11-.79,8.31.85,12.34.42,1,.14,2.18-1,2.4-2.28.41-4.65.7-6.85-.37a2.16,2.16,0,0,1-1.14-2.54c.52-2.09,1.59-.82,2.58-.41,2.2.92,3.24-.19,3.25-2.24,0-1.69.44-4.11-2.7-3.38-1.16.27-2.4.83-2.85-.82-.41-1.47.61-2.07,1.88-2.35s3.23.09,3.22-2.2a2.1,2.1,0,0,0-1-2.12C543.87,138,543.09,140.22,540.91,141Z" transform="translate(-13.8 -1)"/><path d="M539.21,61c.06-4.31,2.33-4.77,5.36-4.76,3.87,0,3,2.74,3.08,4.86.19,3.3-.09,6.66.4,9.91.65,4.29-2.51,4.47-5,5-3,.64-3.76-1.69-4.39-4.13,1.92-1.52,5.48,3.82,6-1.49.19-1.93.3-4.23-2.93-3.83-1.17.14-1.86-.66-1.85-1.82,0-1.32.83-1.77,2-1.35,1.31.48,2.32.44,2.67-1.1a2.68,2.68,0,0,0-.63-2.77c-1.22-1-2.1,0-3,.68A10.91,10.91,0,0,1,539.21,61Z" transform="translate(-13.8 -1)"/><path d="M704.29,94.69c.27-6.24,4-5.6,7.24-5.45,3.61.17,3.84,3.54,5.14,5.83a1.15,1.15,0,0,1-.77,1.57c-.9.28-1.14-.5-1.39-1.06-.41-1-.09-2.74-1.84-2.22-1.38.41-.85,2-.88,3-.09,3.15,0,6.3-.06,9.45,0,1.41-.36,2.87-2.11,2.72-1.47-.13-1.45-1.61-1.46-2.75,0-3.32-.19-6.64,0-10C708.37,92.37,707.18,92.05,704.29,94.69Z" transform="translate(-13.8 -1)"/><path d="M133.29,48.47A5.72,5.72,0,0,1,134,49.7c.54,1.78-.84,4.72,1.7,5.16,3,.52,2.16-2.6,2.67-4.31.22-.73.74-1.28,1.38-1.09a1.89,1.89,0,0,1,1.15,1.36c0,4.65-.1,9.29-.21,13.94,0,.86-.3,1.68-1.4,1.57-.81-.09-.87-.83-1.05-1.48-.61-2.18,1.18-6.15-2.07-6.19s-1.68,3.94-2.24,6.14c-.23.86-.51,1.69-1.44,1.77A1.4,1.4,0,0,1,131,65c.32-5.5.72-11,1.09-16.48Z" transform="translate(-13.8 -1)"/><path d="M692.64,104.4c3,.72,6.21,1.76,5.65-3.07-.17-1.53-.44-2.59-2.31-2.35-1,.12-2.16.35-2.33-1.06-.15-1.25.78-1.73,1.9-1.68,1.49.07,2.64-.12,2.61-2,0-1.72-.46-2.92-2.51-2.86-.81,0-1.81-.1-1.79-1.21,0-1.36,1.24-1.34,2.19-1.46,3.33-.42,6-.24,5.54,4.42-.35,3.45-.09,7-.1,10.45,0,2.18.21,4.57-2.77,5S693.48,108.27,692.64,104.4Z" transform="translate(-13.8 -1)"/><path d="M734.2,60c.14,1.94-.36,4.27.5,6.52.36.94.7,2-.57,2.47a1.7,1.7,0,0,1-2.44-1.64c-.08-3.35-1.46-5.07-4.77-6.33-2.66-1-2.2-4.23-1.18-6.59,1.14-2.63,3.47-3.34,6.2-2.92,3,.47,2.11,2.84,2.24,4.67C734.26,57.3,734.2,58.46,734.2,60Z" transform="translate(-13.8 -1)"/><path d="M294.28,134.27c2,6.58,1.09,12.13.92,17.61a1,1,0,0,1-1.45.91,1.7,1.7,0,0,1-.75-1.08c-.13-.47,0-1-.07-1.49-.34-1.74.94-4.59-2.29-4.53-3,.05-2.23,2.71-2.33,4.58-.05,1,.16,2-.89,2.88-2.55-1.36-1.49-3.74-1.57-5.67-.14-3.49,0-7-.11-10.48,0-1.53.58-2.2,2-2s1.14,1.25,1,2.26a7.49,7.49,0,0,0-.22,2.92c.31,1.34,1.17,2.54,2.75,2.39s1.53-1.5,1.61-2.68C293,138.44,292.64,136.92,294.28,134.27Z" transform="translate(-13.8 -1)"/><path d="M557.47,99.8c-1.73.62-2-2.72-3.72-1.38-1.31,1-1.27,3-.78,4.15,1.25,2.94-.21,5.84.39,8.69.26,1.23.42,2.46-1.16,2.68s-2.38-.94-2.45-2.42c-.1-2.31.07-4.64-.17-6.94-.21-2.1,1.49-5.16-2.73-5.62-1.14-.13-.8-2-.08-3,1-1.34,10-1.21,10.75.19A3.08,3.08,0,0,1,557.47,99.8Z" transform="translate(-13.8 -1)"/><path d="M193.18,92c-2.21-.69-3.92-4.15-5.64-.75s1.85,3.71,3.68,4.6c-.33,1.89-1.78,1.75-2.69,2.36-1.73,1.16-1.47,2.89-1,4.47s1.95,1.52,3.28,1c.93-.39,2.09-1,2.59.17s-.58,2.25-1.73,2.53c-2.25.54-4.75,1.07-6.78-.18s.4-2.89.3-4.45c-.21-3.13.1-6.32-.36-9.4-.33-2.18-1.78-4.18,1.92-4.61C191.39,87.17,192.66,87.85,193.18,92Z" transform="translate(-13.8 -1)"/><path d="M352.64,155.76c-2.17-.08-3.7-.36-4-2.21a3.17,3.17,0,0,1,.58-2.28c.55-.67,1.18.08,1.61.53,1.21,1.27,2.68,1.86,3.77.24s0-3.3-1.54-4.14c-3.1-1.73-4.61-4.12-4.21-7.73.18-1.55.21-3,2.09-3.49,1.65-.39,3.32-.59,4.77.54.8.62,1.5,1.53,1.05,2.58-.62,1.45-1.56.64-2.36.08s-1.68-1.37-2.6-.34-.4,2.26.36,3.14c1.18,1.38,2.56,2.57,3.79,3.9a5.67,5.67,0,0,1,1,6.49A4.16,4.16,0,0,1,352.64,155.76Z" transform="translate(-13.8 -1)"/><path d="M533.67,156.05c-2.44.41-4-.91-4.59-3.28s-.94-4.54,2-5.83a5.6,5.6,0,0,0,3.3-3.52c.37-1.51,1.31-4.35-2.25-2.48-.95.5-1.51.54-1.9-.43s.25-1.49.94-2c2-1.61,3.76-.77,5.39.51,2.2,1.74,2.09,4.05,1,6.27-.9,1.8-2.6,2.93-4.28,4a2.45,2.45,0,0,0-.7,3.51c.57.94,1.66.82,2.68.38s1.08-2.52,2.62-1.19a2.29,2.29,0,0,1,.34,1.84,2.76,2.76,0,0,1-2.89,2.22C534.84,156.07,534.35,156.05,533.67,156.05Z" transform="translate(-13.8 -1)"/><path d="M704.91,145c3.76,1.93,5.58.48,6.5-2.11a7.33,7.33,0,0,0-1.58-7.84c-.74-.79-1.68-1.32-2.55-.38-1.13,1.24-2.18,1.84-2.78-.22a2.34,2.34,0,0,1,2-3c2.19-.55,4.23-.41,5.75,1.69,3,4.08,3.09,12,.18,15.94C710.33,151.92,707.46,150.7,704.91,145Z" transform="translate(-13.8 -1)"/><path d="M317.23,68.79c0,4.84-3.48,7.21-7.52,5.22a1.43,1.43,0,0,1-.9-1.89c.83-4.61.27-9.24.31-13.87,0-1.23-.33-3,1.61-3s1.71,1.67,1.73,3c0,2.65,0,5.3.09,7.94.05,1.6-.74,3.64.86,4.65C315.36,72.05,315.26,68.24,317.23,68.79Z" transform="translate(-13.8 -1)"/><path d="M176.74,98.67a44.59,44.59,0,0,0,.51,5.91c.23,1.13,1.22,2.25-.52,2.73s-2.52-.65-2.58-2.17c-.13-3.31-.08-6.63-.18-9.94,0-1.31.7-3-2-2.87s-1.63-2-.92-3c1.17-1.69,9.17-1,10.09.76.46.9.85,3.16-.67,2.42-5.84-2.87-2.86,2.18-3.57,3.74a6.29,6.29,0,0,0-.06,2.46Z" transform="translate(-13.8 -1)"/><path d="M761,98c-.14,2.9.16,5.64-2.55,7.41a4.42,4.42,0,0,1-6.76-2.39c-.46-1.83.49-1.83,2-1.53,4,.83,5.21-2.23,5.14-5-.08-2.49-.63-6-5-5.08-.83.18-1.79.11-2-.89a1.94,1.94,0,0,1,1.39-2.33c2.75-1,5-.22,6.34,2.33A12.42,12.42,0,0,1,761,98Z" transform="translate(-13.8 -1)"/><path d="M197.92,52.34c-2.18,1.49-4.51-1.38-5.43,1.28-.79,2.31,1.56,3,2.91,4A7.89,7.89,0,0,1,199,63.88a4.55,4.55,0,0,1-2.62,4.41,4.7,4.7,0,0,1-4.74,0c-1.11-.56-2.16-1.57-1.68-2.71.74-1.74,1.86-.52,2.71.16,1,.82,2.06,1.36,3,.09a2.57,2.57,0,0,0-.36-3.24c-1.32-1.45-3.11-2.51-4.29-4.05-2-2.56-1.88-5.29.66-7.51S196,49.83,197.92,52.34Z" transform="translate(-13.8 -1)"/><path d="M229.54,27.93c4.09,4.24,5,9.92,10.66,10.62,1.14.14,2.24.52,3.37.72s3.1-2.05,3.51.67c.3,2,.66,4.49-2.63,4.87a10.21,10.21,0,0,0-2.78,1.28c.44-4.41-1.78-6.45-5.66-5.23-.92.29-1.66.64-1.94-.36C233,36.63,230.15,33.35,229.54,27.93Z" transform="translate(-13.8 -1)"/><path d="M282.67,101.52a8.64,8.64,0,0,1,4.3-8.15,3.81,3.81,0,0,1,4.62.19c.75.48,1.45,1.12,1.05,2s-1.32.6-2.14.25c-4-1.7-4.72,1.58-5.13,4-.5,2.92-.1,6.07,3.54,7.08,1,.27,2.58-.87,2.52,1.11a2.85,2.85,0,0,1-2.92,2.86c-2.41.14-4.31-.64-4.91-3.21C283.15,105.72,282.15,103.88,282.67,101.52Z" transform="translate(-13.8 -1)"/><path d="M328.39,99.57c.81-5.43,5.88-8.07,10.49-5.7a2.23,2.23,0,0,1,1.31,2.42c-.09,1-.61,1.5-1.65,1.15-2.74-.93-2.64.89-2.61,2.67.05,3.16,0,6.32.17,9.48.08,1.53-.05,2.85-1.9,2.68s-1.17-1.33-1-2.6c.41-2.64-.69-5.34.56-8.1.59-1.3.66-3.58-1.15-4.46C330.5,96.07,330.52,99.31,328.39,99.57Z" transform="translate(-13.8 -1)"/><path d="M157.24,138.33c0,1.66-.13,3.33,0,5,.22,2.08.91,3.75,3.48,2.11.69-.44,1.47-1.11,2.18-.28s0,1.84-.52,2.66c-1.51,2.55-4,2-6.26,1.81-2.4-.22-1.94-2.33-2-3.89-.07-3.82,0-7.63,0-11.45,0-1.32,0-3,1.89-2.77,1.6.19,1.06,1.81,1.16,2.86.12,1.32,0,2.65,0,4Z" transform="translate(-13.8 -1)"/><path d="M731.3,141.82c0,1.33-.32,2.75.05,4,1.59,5.23-1.72,4.92-5.08,4.74-1.6-.08-3.17-.19-3.15-2.25s1.5-1.6,2.88-1.46c2,.21,2-1.3,2-2.66,0-3.16,0-6.31,0-9.46,0-1.25-.25-3.08,1.66-3,1.72.1,1.59,1.83,1.6,3.15,0,2.32,0,4.64,0,7Z" transform="translate(-13.8 -1)"/><path d="M723,59.88c.2,2.46-.48,5.48,1.12,8.25a1.28,1.28,0,1,1-2.39.52c.37-3.76-1.41-5.38-4.89-6.72s-3.09-8.08.37-9.92c3.19-1.71,5.68-.23,5.79,3.45C723,56.78,723,58.1,723,59.88Zm-4.26-5.73A2.7,2.7,0,0,0,716.91,57a2.56,2.56,0,0,0,2.44,2.6c1.59,0,2.27-1.2,2-2.68C721.17,55.6,720.68,54.35,718.75,54.15Z" transform="translate(-13.8 -1)"/><path d="M559.39,66.22a9.64,9.64,0,0,1-2.93,8.1c-1.85,1.89-3.9,1.75-5.31-.68-.56-1-1.06-2.27,1.06-2.26,6.45,0,3.07-4.9,3.55-7.6.51-2.92-.71-5-4.35-3.24-.58.29-1.26-.17-1.44-.95a1.6,1.6,0,0,1,1-2c2.79-1.15,5.06-.76,6.82,2A10.45,10.45,0,0,1,559.39,66.22Z" transform="translate(-13.8 -1)"/><path d="M178.31,131.07c.93.19,3.11-.64,3,1.7-.13,2.07-1.91,1.1-3.15,1-2.41-.19-3.86,1-4,3.38-.15,3-.38,6.14,3.1,7.66,1,.45,2.9-.75,3,1.52a2.76,2.76,0,0,1-1.41,2.49,3.39,3.39,0,0,1-4.17-.26c-1.22-.94-2.43-2-2.54-3.55-.23-3.32-.62-6.71-.13-9.95C172.4,132.14,174.79,130.7,178.31,131.07Z" transform="translate(-13.8 -1)"/><path d="M125.06,96a10.65,10.65,0,0,1,2.23-8c1.34-1.63,3.11-2.57,5.27-1.31.73.42,1.42,1,1.21,2s-.93.95-1.87.85c-4.46-.44-4.45,3.13-4.66,5.88s.36,5.53,4.17,5.39c.79,0,1.73-.62,2.18.34s-.28,1.9-1,2.6c-1.91,1.89-3.73,1.77-5.54-.23C125.07,101.3,125.06,98.64,125.06,96Z" transform="translate(-13.8 -1)"/><path d="M569,70.62c5,2.59,5.37,2.4,5.28-3,0-2.63-.45-5.26-.53-7.89,0-1.28,0-2.9,2-2.77s1.82,1.58,1.79,3c-.09,3.63-.72,7.36-.12,10.88.86,5-2.42,4.41-5.26,4.63C568.21,75.77,569.59,72.83,569,70.62Z" transform="translate(-13.8 -1)"/><path d="M594.3,107.21c5.42,2.78,6.77-.45,7-4.09.14-3.05-.22-6.65-5-6-.8.11-1.73.63-1.92-.62a2,2,0,0,1,2-2.33,6,6,0,0,1,6.22,4.09,14.83,14.83,0,0,1-.3,11.14,4.34,4.34,0,0,1-4.66,3C595.15,112.15,594.6,110.27,594.3,107.21Z" transform="translate(-13.8 -1)"/><path d="M179.07,60a54.39,54.39,0,0,0,0-6c-.47-4.41,2.2-4.51,5.33-4.11,1.49.18,2.77,1,2.52,2.52-.45,2.69-1.81.44-2.77.29-1.47-.23-2.88,0-3,1.68s.2,3.38,2.53,3.52c1.17.07,3.07-.84,3,1.36-.05,1.46-1.64,1.35-2.8,1.37-4.36.06-3.8,2.71-2.85,5.49.31.93,1.1,1.82-.06,2.61a1.84,1.84,0,0,1-1.43.19c-1.39-.46-.73-1.5-.64-2.46.2-2.14.24-4.31.34-6.46Z" transform="translate(-13.8 -1)"/><path d="M717.92,140.86c0-2.15.07-4.31,0-6.45-.06-1.15-.68-2.49,1-2.76a2.12,2.12,0,0,1,2.46,2c.25,4.95.58,9.91-.19,14.84a2,2,0,0,1-2.14,1.7c-1.36-.17-1.13-1.38-1.13-2.34Q717.92,144.34,717.92,140.86Z" transform="translate(-13.8 -1)"/><path d="M584.3,146c0-2.15,0-4.3,0-6.46,0-1,0-2.16,1.31-2.26a1.81,1.81,0,0,1,1.9,1.9c.12,4.8.14,9.59.13,14.39a1.57,1.57,0,0,1-1.45,1.71,1.71,1.71,0,0,1-1.89-1.83C584.24,150.92,584.29,148.43,584.3,146Z" transform="translate(-13.8 -1)"/><path d="M237.86,196.72c-1.79.14-1.56,1.38-1.91,2.24s-.91,2.21-2,1.66c-.87-.44-1.25-1.8-1.88-2.73-.75-1.13-.49-1.91.83-2.12a2.37,2.37,0,0,0,2.22-2.18c.43-1.94,2.3-2,3.62-1.44a8.21,8.21,0,0,1,4.69,5.34,2.94,2.94,0,0,1-2.35,3.37c-1.06.26-2.23,1.17-3.28.15C236.45,199.68,238.78,198.32,237.86,196.72Z" transform="translate(-13.8 -1)"/><path d="M687,65.18c-.1-2.9,1.84-4.53,3.86-6,1.26-.91,2.53-1.69,2.32-3.46-.26-2.08-1.73-1.45-3-1.28a1.13,1.13,0,0,1-1.41-1c-.14-1.05.57-1.48,1.41-1.71,2.24-.61,3.87.43,5.17,2.1,1.53,2,1.44,3.88-.16,5.86-2,2.51-6.2,3.83-4.76,8.41.24.76-.8.94-1.42.72C687.27,68.21,687.16,66.66,687,65.18Z" transform="translate(-13.8 -1)"/><path d="M332.68,144.47c0,2.31,0,4.61,0,6.92,0,1.15-.44,1.9-1.69,1.91s-1.9-.56-1.89-1.76c0-4.44,0-8.89.21-13.32.07-1.23,1-2.79,2.48-2.59s.92,1.84.94,2.91c0,2,0,4,0,5.93Z" transform="translate(-13.8 -1)"/><path d="M299.47,144.13c0-2.49-.12-5,0-7.47a1.69,1.69,0,0,1,2.21-1.45c1.21.23,1,1.17.69,1.92-2,4.48.76,9-.21,13.56-.22,1,.77,2.45-1,2.64-2,.22-1.92-1.34-1.92-2.71v-6.49Z" transform="translate(-13.8 -1)"/><path d="M563.13,65.92c0-2.33,0-4.66,0-7,0-.86.23-1.79,1.24-1.83s1.41.76,1.52,1.65c.58,4.94-.49,10,.73,14.89.25,1-.62,1.44-1.53,1.47-1.15,0-1.93-.46-1.94-1.71,0-2.49,0-5,0-7.48Z" transform="translate(-13.8 -1)"/><path d="M737.89,59c0-2.17,0-4.33,0-6.49,0-.92-.23-2.21,1.14-2.37s2.15,1,2.18,2.18c.12,4.81.11,9.64.08,14.46a1.54,1.54,0,0,1-1.51,1.66c-1.26,0-1.74-.95-1.78-2-.1-2.49,0-5,0-7.48Z" transform="translate(-13.8 -1)"/><path d="M144.28,56.79c.09-1.42-.53-4.12.46-6.68.36-.92,1-1.84,2.21-1.59s1.1,1.26.88,2c-1.32,4.58-.47,9.27-.78,13.89-.05.8.06,1.83-1.05,2-1.3.16-1.69-.8-1.71-1.88C144.25,62.33,144.28,60.17,144.28,56.79Z" transform="translate(-13.8 -1)"/><path d="M322.56,64.41c0,2.64.09,5.28-.05,7.91a1.64,1.64,0,0,1-2.08,1.56c-.86-.17-.94-.89-.75-1.53,1.38-4.71.29-9.53.7-14.28.08-1-.05-2.21,1.38-2.08,1,.09,1,1.17,1,2,0,2.15,0,4.29,0,6.44Z" transform="translate(-13.8 -1)"/><path d="M743,218.05c4.92,1.89,9.7,3.88,14.78,0,2.25-1.73,2.52-4.58,4.79-6.14-.84,3.93-2.28,7.85-6.36,9.19-3.86,1.28-8.12,1.61-12-.61a2,2,0,0,1-1.13-2.5Z" transform="translate(-13.8 -1)"/><path d="M168.11,139.84c0,2.16,0,4.32,0,6.48,0,1.1.56,2.72-1.15,2.7-1.47,0-1.38-1.65-1.4-2.77q-.09-6.24-.05-12.47c0-1.14.05-2.66,1.63-2.58,1.73.09,1.18,1.53,1.08,2.68-.17,2-.21,4-.3,6Z" transform="translate(-13.8 -1)"/><path d="M174,59.4c.84-2.06-.69-6.89,1-6.6,3.26.57,1.18,4.66,1.56,7.23a52.71,52.71,0,0,1,.2,6.42c0,1-.07,2.12-1.45,2-1-.07-1.27-1-1.27-1.82C174,64.34,174,62,174,59.4Z" transform="translate(-13.8 -1)"/><path d="M769.88,387.07c5.19,1.42,9.42,5.63,15.26,5.25.35,0,1,.89,1.1,1.46s-.32,1.14-1,1.44c-3.3,1.42-14.43-4.62-15.21-8.28Z" transform="translate(-13.8 -1)"/><path d="M245.93,208.07c0,3.33-.05,6.3,0,9.28s-.85,6.05,2.19,8.19a1.11,1.11,0,0,1,.14,1.74c-.6.55-1.18.24-1.72-.23C243.08,224,242.48,212,245.93,208.07Z" transform="translate(-13.8 -1)"/><path d="M555.8,146.62c0,2.31,0,4.62,0,6.93,0,.82-.17,1.79-1.26,1.75s-1.29-1-1.06-1.81c1.31-4.86,1.71-9.69-.11-14.54-.14-.36.41-1.31.86-1.51,1-.45,1.51.41,1.54,1.26.07,2.64,0,5.28,0,7.92Z" transform="translate(-13.8 -1)"/><path d="M280,503.36v17.47h-.9v-17.4Z" transform="translate(-13.8 -1)"/><path d="M577.7,860c-.17,1.79-.7,3.32-2.87,3.25a3,3,0,0,1-3.21-3.54,3.42,3.42,0,0,1,3.62-3.34C577.39,856.46,577.62,858.28,577.7,860Z" transform="translate(-13.8 -1)"/><path d="M589.62,863.32a3.41,3.41,0,0,1-3.33-3.4c0-1.66,1.1-3.45,2.92-3.27a4.08,4.08,0,0,1,3.49,4.13C592.79,862.5,591.48,863.31,589.62,863.32Z" transform="translate(-13.8 -1)"/><path d="M230.76,215.87c1.74-4.31-5.91-9.35-2.53-16.24C230.36,205.82,231.41,211.66,230.76,215.87Z" transform="translate(-13.8 -1)"/><path d="M529.8,219.3c2.55,6.34,7.06,8.73,13.51,7.67.33-.06.94.42,1.08.78s-.26.92-.57,1.09C538.37,231.75,529.89,226.29,529.8,219.3Z" transform="translate(-13.8 -1)"/><path d="M600.74,859.71c.2-1.41,0-3.32,1.88-2.93s4.34.85,4.26,3.37c-.06,2-1.74,3.17-3.83,3.09C600.63,863.15,600.92,861.18,600.74,859.71Z" transform="translate(-13.8 -1)"/><path d="M658.88,22.51c-2.66-6.27-1.67-9.3,3.15-10.37,1.09-.24,2.62-.66,2.87.92.22,1.42-1.19,1.27-2.16,1.2-2.58-.19-3,1.32-3,3.46C659.8,19.16,660.24,20.71,658.88,22.51Z" transform="translate(-13.8 -1)"/><path d="M242.65,17.39c-2.9,3.85-9.07-.67-11.11,5.34C229.8,16.16,232,16.4,242.65,17.39Z" transform="translate(-13.8 -1)"/><path d="M169.53,222.53c-2.6,5.9-5.87,7.25-14.64,5.42C161.15,227.33,165.85,226.21,169.53,222.53Z" transform="translate(-13.8 -1)"/><path d="M637.86,36.17c-3.09-2.5-1.83-5.88-1.27-8.75a19.92,19.92,0,0,1,2.41-6c.4,5-1.54,9.87-1.25,14.84Z" transform="translate(-13.8 -1)"/><path d="M491.64,627.85c-2.64,1.38-5.26.7-7.82.87-.82,0-1.78,0-1.87-1-.07-.94.8-1.39,1.54-1.72C486.66,624.52,489,627.14,491.64,627.85Z" transform="translate(-13.8 -1)"/><path d="M717.54,224.26c3.05,4.76,7.8,3.48,12.31,3.72C725.79,232,719.34,230.19,717.54,224.26Z" transform="translate(-13.8 -1)"/><path d="M259,195.65c3.11,3.72,4.75,8.07,9.88,9.47C263.74,206,259.71,202.09,259,195.65Z" transform="translate(-13.8 -1)"/><path d="M645.36,172.28c-.72,6.36-4.22,9.82-9,8.88A17.16,17.16,0,0,0,645.36,172.28Z" transform="translate(-13.8 -1)"/><path d="M739.89,37.54c-2,4.16-5.82,4.12-10.37,0,2.15-1.09,3.61-.33,5.16,1.15C736.6,40.52,738,37.51,739.89,37.54Z" transform="translate(-13.8 -1)"/><path d="M355.28,221.73c-.67,3.57-3.08,5.4-6.32,6.35-.77.23-1.78.32-2-.7a1.44,1.44,0,0,1,1.33-1.77C351.47,225.81,353.1,223.39,355.28,221.73Z" transform="translate(-13.8 -1)"/><path d="M672.78,203.65c2.73.42,5.21,1.83,8,1.47.72-.09,1.43.34,1.33,1-.07.49-.81,1.28-1.22,1.27C677.75,207.3,674.79,206.55,672.78,203.65Z" transform="translate(-13.8 -1)"/><path d="M645.23,146.66c1.55-3.23,6-3.68,6.8-7.63C651.43,143.05,649.23,145.67,645.23,146.66Z" transform="translate(-13.8 -1)"/><path d="M214.6,200.35c-1.34,4.22-5.15,6-12.09,4.86,5-1.15,9.23-1.51,12.16-4.72A.9.9,0,0,1,214.6,200.35Z" transform="translate(-13.8 -1)"/><path d="M686.15,198c-1.08,3.08-2.54,4.28-5.09,3.55-.72-.2-1.93-.82-1.46-1.67C681.05,197.23,683.5,198.41,686.15,198Z" transform="translate(-13.8 -1)"/><path d="M245.1,188.52c-2.94-3.64-5.75-5.88-9.73-5.93C240,181.52,243.83,181.79,245.1,188.52Z" transform="translate(-13.8 -1)"/><path d="M345.88,347.47l-2-.12c-4-.27-5.66-3-6.71-6.38-1.1-3.5,2.05-4,3.92-5.37,1.1-.82,3.42-1.11,2.39-3-.71-1.32-2.37-.23-3.58.27s-2.58,1.88-3.43.18,1.13-2.12,2.18-2.72a9.7,9.7,0,0,1,9.55,0c3.41,1.69,6.51,2.33,9.62-.4.65-.57,1.47-1,2.25-.4a1.73,1.73,0,0,1,.21,2.64,6.9,6.9,0,0,0-1.49,3.58C358,343,353,347.51,345.88,347.47Z" transform="translate(-13.8 -1)"/><path d="M366.43,345.77c4.14-1.16,5.88.76,6.44,4.64.23,1.6,1.19,3.08,1.63,4.66.5,1.77,2.07,3.49,0,5.42s-3.47.34-5-.87c-1.15-.88-2.28-.34-2.93.81-1.2,2.11-3.1,1.83-4.79,1.23-1.94-.68-2.31-2.49-2.46-4.45-.29-3.78,1.87-6.95,2.42-10.55C362,344.29,364.83,346.23,366.43,345.77Z" transform="translate(-13.8 -1)"/><path d="M364,330.18c3.84,2,7.1,1.51,10.45-.59a9,9,0,0,1,4.31-.82c1,0,2.31,1.41,1.56,1.79-5,2.54-1,3.87.45,5.84,2.22,3.05.77,6.07-1.05,8.63-2.13,3-4.36.62-6.48-.43-3.09-1.52-5.4-3.47-5.59-7.39C367.56,334.57,364.87,333,364,330.18Z" transform="translate(-13.8 -1)"/><path d="M332.61,345.75a9.88,9.88,0,0,1-3.49,7.9c-.67.56-1.36,1.1-2.17.51a1.29,1.29,0,0,1-.11-2.13c3.26-3,2.45-6.53,1.5-10.07-.31-1.16-.85-2.34.65-2.85,1.1-.38,1.72.67,2.31,1.47A7.22,7.22,0,0,1,332.61,345.75Z" transform="translate(-13.8 -1)"/><path d="M358.6,325a8.55,8.55,0,0,1-7.34-2.12c-.6-.57-1.25-1.29-.69-2.13s1.41-.47,2.14,0c3.76,2.43,7.51,3.19,11.19-.13.56-.5,1.17-.78,1.7-.28a1.69,1.69,0,0,1,.12,2.27C364,325.14,361.34,325.25,358.6,325Z" transform="translate(-13.8 -1)"/><path d="M544.24,334.06c-.16,1.63,1.2,2.32,2.25,2.87,2.8,1.47,4.12,3.41,2.47,6.41-1.76,3.22-4.31,5.81-8.24,5-3.35-.72-6.5-2.35-9.73-3.62-2.22-.87-2.57-2.82-2.75-4.87-.21-2.43.32-5-1.7-7.06a1.52,1.52,0,0,1,0-2.23c.77-.78,1.53-.26,2.16.27,3.32,2.81,6.45,3.07,10.25.4,2.24-1.58,5.35-1,8.15-.32,1.53.35,2.7.9,2.26,2.51-.5,1.88-1.75.72-2.76.33A1.9,1.9,0,0,0,544.24,334.06Z" transform="translate(-13.8 -1)"/><path d="M519.84,346.65c5.43-2.59,5.58,1.53,6.14,5.05.48,3.06,3.2,5.92.35,9.31-2,2.38-3.89,3.19-6,.73-1.45-1.66-2.58-1.62-4.2-.46a3.09,3.09,0,0,1-4.11-.09,3.3,3.3,0,0,1-.66-3.7,81.87,81.87,0,0,1,3.09-8.89C515.38,346.45,517.19,345.26,519.84,346.65Z" transform="translate(-13.8 -1)"/><path d="M521.86,331.33c-3.13,4.88-2.15,12-9.25,14.37-2.51.83-4.39,1.8-6-.62s-3.64-5-.8-8.05c1.44-1.55,4.89-3,.89-5.53-.62-.39-.39-1.21.22-1.68.94-.71,1.84-.3,2.81,0C513.55,331.1,517.21,333.65,521.86,331.33Z" transform="translate(-13.8 -1)"/><path d="M557.45,340.09c1.46.31,1.55.93,1.16,2.18-1.19,3.75-1.46,7.5,1,11a1.46,1.46,0,0,1,0,1.83,1.31,1.31,0,0,1-1.79.33,6.89,6.89,0,0,1-3.16-5.42c0-3-1.29-6.33,1.1-9.06A4.84,4.84,0,0,1,557.45,340.09Z" transform="translate(-13.8 -1)"/><path d="M528.09,326.1a11.77,11.77,0,0,1-3.44-.31c-1.76-.69-4.48-1.68-3.66-3.74s2.86.07,4.17.64c2.88,1.23,5.55,2.31,8.11-.59.64-.73,1.8-1.3,2.5-.11s-.43,1.68-1.16,2.37C532.72,326.14,530.43,326.09,528.09,326.1Z" transform="translate(-13.8 -1)"/></g></g></svg>