<svg xmlns="http://www.w3.org/2000/svg" viewBox="0 0 854.04 887.07"><title>going</title><g id="Layer_2" data-name="Layer 2"><g id="Layer_1-2" data-name="Layer 1"><path d="M530,1c3,5,5.71,9.78,4.88,16.14-.73,5.55.92,11.34-.32,16.89-1.58,7.1-.9,14.79-5.3,21.19a4,4,0,0,0-.52,1.91c-.46,9.05-5,17.09-6.41,25.92-1,6.46-.84,12.64,4.12,17.51,6.95,6.83,18.45,5,23.85-3.06,3.31-4.93,8-8.89,11.55-13.69,11.2-15.23,17.41-31.94,13.29-51.14-.89-4.16-3.89-7.71-4.59-12-.44-2.74-1.7-6.53,1.25-7.66s8,.25,9.26,2.87c2.76,5.82,7.67,10.71,8.44,17.35s1.13,13.41,1.37,20.13c.1,2.81-.07,5.56.59,8.39,1.73,7.32-3.29,12.75-5.81,18.86-.62,1.52-2.2,2.79-2.4,4.3-1.53,11.63-11.21,18.07-17.16,26.81-4.37,6.42-9.11,12.66-13.26,19.24-1.59,2.51-1.6,6-2.36,9.06-2.26,9.11-6,17.79-5.27,27.63.87,11.4,7.54,19.47,18.87,21.18a18,18,0,0,0,19.21-10.2c2.6-5.61,4.42-11.48,4-17.83-.51-6.92,1-13.94-1.3-20.79-.72-2.16.78-4.21,1.32-6.26,1.67-6.38,1-12.93,1.55-19.38.78-8.36,5.09-15.17,8.73-22C604.6,79,615.88,69.25,628.16,60.74a28.7,28.7,0,0,1,6.13-3.28c1.68-.63,3.87-.86,4.74,1.34s-.66,3.56-2.33,4.44c-3.39,1.79-6.4,4.25-9.7,6.05-9.86,5.35-14.48,14.64-18.13,24.22-6.19,16.26-5.39,33.14-.4,49.42,2.45,8,5.56,15.86,8.44,23.76,1.82,5,.36,10.64,3.14,15.52.77,1.35-.46,2.81-1.16,4.16-7.85,15.22-13.79,31.12-16.79,48a3.42,3.42,0,0,1-.2,1c-4.11,7.83-1.71,15.9-.67,23.84.48,3.65-.21,6.43-2.83,9-6.66,6.62-9.19,15.16-11.24,24-1.67,7.26-3.54,14.44-4.44,21.88a10.53,10.53,0,0,0,1.92,7.69c4.17-7.87,11.68-11.75,16.93-17.9,3.37-3.94,8.36-4.61,12.7-6.58a2.9,2.9,0,0,1,3.59,1,4.94,4.94,0,0,1,.3,5.64,118.9,118.9,0,0,1-7.52,12.24c-3.36,5.05-3.61,10.48-4,15.66-.51,6.94-2.27,14.32,1.76,21a14.53,14.53,0,0,0,24.12,1.66c1.49-1.83.33-2.73-.87-3.63a25.39,25.39,0,0,0-8.45-4.21,22.1,22.1,0,0,1-8.4-4.27c-1.56-1.31-3.44-2.78-2.15-5a4.4,4.4,0,0,1,5.67-1.95c7.72,3.7,16.48,2.42,24.4,5.53,5.66,2.22,10.78,4.71,15.4,8.77,8.54,7.49,15.8,16.1,19.38,26.72,2.64,7.83,6.31,15.39,6.91,24.12.47,6.89,1.93,13.59.5,20.56a91.55,91.55,0,0,1-6.06,19.79c-4.85,10.64-13.08,18.67-20,27.75-1.57,2.08-3.89,3.61-5.94,5.3-11.9,9.84-23.6,19.92-36,29.16a9.06,9.06,0,0,0-1.19,1.56c4,.8,7.36-.55,10.67-1.38,23.26-5.82,46.71-5.9,70.31-2.81,5.45.71,10,3.51,14.4,6.43,1.42.93,2.89,1.95,2.39,4s-2.28,2.49-3.89,2.64c-4.63.43-9.29.72-13.94.86-11.24.33-22,3.68-32.83,6-5.4,1.13-9.79,5.54-15.32,7.08-13.05,3.64-24.71,10.48-36.78,16.36a45,45,0,0,0-8.75,5.73c-14.63,12-31.07,21.92-43.43,36.59-4.8,5.7-9.46,11.55-13.69,17.68-5.45,7.91-10.74,16-15.43,24.36A111,111,0,0,0,522,646.16c-2.7,7.8-6.27,15.34-7.43,23.65-.22,1.6-.9,3.48-3,3.4-1.5-.05-2.11-1.4-2.43-2.8-1.93-8.52-4.51-16.85-5.49-25.63-1.22-10.87.63-21.19,3.67-31.45.55-1.87.69-1.82.12-5-9,12.23-15.89,24.83-18.4,39.74a110.47,110.47,0,0,0,2.81,48.36c.32,1.16.59,2.51,1.74,2.84,1.33.38,1.32-1.1,1.72-1.94.93-1.95,2.77-2.11,4.62-2.4,18.74-2.88,37.49-5.71,56.2-8.78,4-.66,5.48.83,4.75,4.44A54,54,0,0,0,560,702c0,3.07.53,4.53,4,2.28,6.7-4.34,13.62-8.4,21.18-11.13,16.81-6.06,33.7-5.36,50.32.51,15.3,5.39,22.83,20.06,23.1,34.75.42,23.31-1.09,46.58-1.72,69.87-.05,2,0,4,0,6,.09,11.34,4.12,15.49,15.55,16.35,2.82.21,6.53-.34,6.51,4.22,0,3.6-.72,6-5.69,5.82-24.77-1-49.54-2-74.34-1.86-3.3,0-6.36,0-6.66-4.7-.32-5,2.61-5.68,6.51-6,10.88-1,14.73-5.45,15.15-16.48.89-23.11,1.89-46.21,2.46-69.33.4-16.11-10-22.91-26.44-21.38-9.31.87-17.71,4.27-25.8,8.75-2.76,1.53-4.15,3.35-4.19,6.66-.21,17.64-1.45,35.25-1.61,52.9-.06,6.11-1.28,12.25-.87,18.4.88,13,2.78,18.55,16.43,19.86,4.75.46,5.57,3.13,5.24,7.16-.25,2.9-1.85,3.72-4.37,3.43-19.22-2.21-38.54-1.46-57.82-1.75-7.32-.11-14.63-.46-21.95-.67-1.78-.05-3.84-.27-3.36-2.52.55-2.57-1.87-6.43,2.65-7.51,2.75-.66,5.59-.91,8.35-1.53,9.44-2.11,13-6.31,13.09-16,.08-7,.41-14,.52-21q.42-25,1.41-49.91a51.34,51.34,0,0,0-1.17-11.9c-1.77-8.78-9.22-13-17.38-9-6.52,3.13-11.85,1.43-16.68-2.37-6.14-4.84-13.48-6.32-20.51-8.7-3-1-5-.2-5.06,3.75-.38,15-1,29.92-1.61,44.87-.71,16.26-1.54,32.53-2.35,48.79a50,50,0,0,0,.93,11.91c1.07,5.59,6.58,9.67,13.79,10.4,1.49.15,3,.22,4.48.27,4.34.14,4.8,2.8,4.78,6.44,0,4.17-2.74,4.24-5.37,3.92-12.58-1.54-25.24-1-37.85-1.58-14.31-.59-28.66-.2-43-.12-3.83,0-6.36-.64-6.51-5.34s2.25-6.07,6.35-6.17a24.22,24.22,0,0,0,5.41-.8c10.12-2.64,12.52-6.44,13.13-17,1.43-24.91,2.42-49.83,2.27-74.78,0-1.5.05-3,0-4.5-.54-9.57-6-14.09-15.51-12.92-2.55.31-5.82,2.22-6.44-2.63-.76-6-.11-7.19,5.12-8,6.4-1,12.83-1.87,19.26-2.73,5.15-.69,9.91-1.68,13.73-6,4.6-5.21,10-9.74,15-14.6,1.08-1.06,2.16-2.41,1.47-4-.82-1.8-2.39-.4-3.55-.3-9.64.87-18.1-1.28-24.82-8.8a17.79,17.79,0,0,1-4.84-11.56c-1.93-.27-2.05,1.17-2.47,2.14-3,6.82-5.64,13.76-6.69,21.18-.2,1.44-.64,2.72-2,3.24-1.72.67-2.75-.64-3.74-1.8-3.29-3.91-5.52-8.48-9.36-12.16-11.48-11-25.91-16.66-39.81-23.34-2-1-4.94-1.13-5.44-3.81s2.36-3.32,3.85-4.75c2.75-2.64,5.72-5.07,8.43-7.76,1.68-1.66,1.52-3.79-1-4.09-5.57-.68-11.27-1.49-16.72.81-4.67,2-6.13,5.7-5.74,10.52.91,11.51,5.09,21.75,10.88,31.68,6.1,10.48,10.05,22,13.27,33.68,1.9,6.93,4.35,13.64,1.68,20.91-.47,1.29.45,2.59,1.18,3.71,20.71,31.41,10.74,78-24.47,98.62-13.64,8-28.61,12.13-44.59,13.17-17.62,1.14-34.65-1-50.79-7.81-27.88-11.79-46.52-35.61-45.34-67.53,1.08-29.4,16.36-49.56,42.47-61.18,33.13-14.75,66.33-13.08,98.86,2.8,5.06,2.47,9.21,6.35,14.31,9.59.7-3.48.76-6.12-1.73-8.59-3.68-3.65-6.82-7.29-8.74-12.72-2.24-6.33-7.72-11.55-12.88-16.31-8.21-7.57-14.67-16.69-22.37-24.67-4.23-4.4-8.32-9-12.9-13.08-8-7.07-13.85-16-22.28-22.78-17.84-14.32-36.34-27.47-57.84-35.62a59.4,59.4,0,0,0-32.83-2.77,90.41,90.41,0,0,1-18.85,1.46c-1.93,0-4.47.5-5.08-2a5.72,5.72,0,0,1,2.34-5.72,22.8,22.8,0,0,1,5.44-3.52c7.4-2.93,14.82-5.89,22.4-8.32,11.6-3.72,23.6-3.4,35.59-2.61,1.11.07,2.59.71,3.22-.52.85-1.64-1-2.28-1.86-3-13.73-11.91-25.87-25.33-37.57-39.18-8.26-9.79-16.3-19.77-22.92-30.75-4.56-7.55-7.41-15.95-10.94-24a3.61,3.61,0,0,1,1.3-4.45c1.49-1.19,3.25-.76,4.69.14a9.65,9.65,0,0,1,3.65,4.66,22,22,0,0,0,6,7.9c2.49,2.27,4.86,4.57,5.13,8.25a3,3,0,0,0,1.1,2.15c6.55,3.86,9.92,11.13,16.6,15,5.27,3,8.59,8.67,14.43,11.34,8.55,3.92,16.32,9.22,25.12,12.93,9,3.8,18.1,7.38,27.37,10.49a19.51,19.51,0,0,0,2.86.85c1,.17,2.12.26,2.63-.82s-.54-1.74-1.26-2.38a368.17,368.17,0,0,0-36.49-29.13c-9.34-6.43-15.94-15.46-25.3-21.54-6.14-4-9.29-10.82-13.6-16.45-12.87-16.78-23-35.07-25.74-56.46a94,94,0,0,1,2.41-36.6c2.73-10.22,8.29-18.66,14.25-27.06,2.51-3.53,6.19-5.48,9.39-8,2.92-2.31,5.75-.07,7.78,2.26,2.17,2.48-.42,3.55-1.76,5.19-8.68,10.62-15.51,22.27-15,36.44.17,5.21,1.23,10.5,1.33,15.82,0,1.77,1.23,3.08,2.33,4.32a17.44,17.44,0,0,1,4.42,7.73c1.59,7.7,6.57,12.49,12.94,16.24,6.65,3.91,13.17,7.31,21.57,4.75,3.55-1.08,4.35-2.51,3.92-5.38-1.08-7.26-5-13-10.52-17.55-7.36-6.1-16-10.14-24.56-14.2-3.77-1.79-5.24-3.87-4.62-8.51a77.08,77.08,0,0,1,13.37-33.88c3.63-5.27,3.57-17.11-.17-22.2-3-4.15-5.86-8.48-9.11-12.46-6.5-7.93-15.3-13.71-21-22.47-2.83-4.35-5.44-8.73-6.45-13.87-.34-1.76-.82-3.93,1.5-4.7s3.25,1,4.11,2.71a76.14,76.14,0,0,0,21.3,26.58c6.88,5.45,10.47,13.72,15.93,20.41,3.73,4.59,6.76,9.66,7.55,15.46,1,7.41,4.39,14.12,4.93,21.74.7,9.79,14,24.67,22,26.38,5.53,1.18,7-.2,6.42-5.85s-3.31-10.25-6.87-14.12a138.24,138.24,0,0,0-12.65-12c-6.5-5.49-9.28-13.61-11.64-21.55-3.26-11,.82-20.57,6.42-29.74,6.3-10.32,6.77-20.87,3-32.41-2.84-8.75-1.86-17.55,2.24-26.51,3.64-8,10.42-11.82,16.26-17,11.4-10.09,21.26-20.8,26.41-35.87a46.16,46.16,0,0,0,.64-28.88,21.85,21.85,0,0,1-.58-4.43,3.43,3.43,0,0,1,2-3.68,3.67,3.67,0,0,1,4.17.74c3.07,2.67,5.81,5.75,6.31,9.89.72,6.05,2.06,12.1,1,18.26-.16,1-.37,2.23.09,2.91,4,5.9,1.27,11.21-1.34,16.47-3.66,7.38-6.45,15.2-11.34,22-2.46,3.41-3.41,7.41-3.87,11.66-.72,6.56,3.07,11.45,9.7,11.67,6.88.24,12.67-3.21,18-6.6,12.57-8,16.21-20.2,13.73-34.3-1.7-9.6-4.17-19-8.66-27.86-2.93-5.77-3.55-12.51-4.1-18.89-1.69-19.54,5.77-35.21,20.21-48.54,10.3-9.51,21.13-18.86,28.35-31.25,5.18-8.88,8.7-18.26,7.64-28.86a16.12,16.12,0,0,1,.72-5.39c.51-2,1.49-3.78,3.91-4s2.8,1.94,3.69,3.46c4.74,8.09,3.22,16.32,1.58,25s-6.32,16.1-9.32,24.19c-1.48,4-4.52,7.51-7.27,10.9-1.83,2.25-3.55,4.47-4.22,7.25-1.19,5-2.88,9.56-7.21,12.72-.39.28-.91.83-.86,1.18,1,7.39-4.34,15,1.17,22.3,5.64,7.46,15.84,6.6,19.85-1.9,2.62-5.54,3.2-11.44,3.71-17.45,1.13-13.48,3.78-26.6,10.53-38.55,2.58-4.58,7.34-6.63,11.57-9.22,1.12-.68,2.59-1.09,3.67.18.93,1.09.21,2.21-.29,3.25-4.25,8.75-8,17.74-7.23,27.67.45,6,.67,12,.64,18,0,6.6-.09,13.18.15,19.79.23,6.35-4.91,12.08-8.77,17.52A87.64,87.64,0,0,1,348.62,165c-4.44,4-2.86,9-2.15,13.55,1.23,7.92,8.4,14.41,16.23,15.75,12.51,2.15,17.46-2.73,19.16-15.65.9-6.88-1.8-12.67-2.21-19-.5-8.06-2.85-16.33-1.69-24.1,1.61-10.68,1.83-22.52,9.05-31.25,5.49-6.63,10.17-14.06,17.56-19.34,5.78-4.12,10.68-9.89,14.86-15.73,2.86-4,5.4-8.41,8.34-12.36,6.18-8.3,6.69-20.86-1.27-28.22-1.39-1.29-3.24-3.07-2-5.16,1.15-1.88,3.56-1.53,5.53-1.42a9.73,9.73,0,0,1,8.77,5.58c2.89,5.6,6.93,10.56,9.14,16.58,1.58,4.29.87,8.14-.07,12.55-2.58,12.12-10.09,21.64-16.31,31.59-4.46,7.13-6.9,15.45-12.89,21.69-4.26,4.43.22,8,2,11.6,1.59,3.23,4.54,2.27,7.47,1.68,12.36-2.51,19.5-11.57,26-21,8.66-12.55,14-26.28,12.71-42A71.9,71.9,0,0,0,462.7,42c-3.54-9.83-4.9-19.59-3.35-29.84a10.32,10.32,0,0,1,.19-1.48c.75-2.46,2.12-4.26,5-3.74s3.33,2.73,2.8,5c-1.24,5.2.19,10.28.43,15.4a11.8,11.8,0,0,0,1.82,5.11c3.89,7,7.5,14.19,8.18,22.47,1.4,17.2-.42,34.2-3.94,50.95-1.71,8.15-6.77,15-11,22.22-3.57,6.09-8.27,11.73-9.91,18.74-1.74,7.44-2.51,15,.43,22.47,3.06,7.8,15.93,12.19,25.12,7.86a6.75,6.75,0,0,0,3.79-3.84c2.34-7.78,5-15.52,2.21-23.81a109.32,109.32,0,0,1-4.75-20.82c-1-8.53-.08-17.33,1.65-26,2.44-12.26,9.92-22,15.56-32.49,3.83-7.12,8.72-14,13.33-20.87C518.9,36.4,521.1,21.7,521.18,6.57A11.64,11.64,0,0,1,523,1ZM514.63,61.31c-3.73,4.31-4.56,10.08-8.49,13.75-7,6.51-10,15.31-12.84,23.77-5.4,16-3,32.19.93,48.15,1.79,7.18,3,14.32,1.17,21.58-1.63,6.32-4,12.72-9.95,16-9.85,5.44-20.42,4.5-30.9,1.71a7,7,0,0,1-2.79-2c-15.44-15.59-12.48-37-1.1-52.8,5.5-7.64,12.68-14.18,14.37-24.08.23-1.39,1.61-3.17-.18-4s-2.26,1.33-3.06,2.48c-7.51,10.71-15.43,20.93-28.74,25-10.57,3.2-17.43,3.55-22.27-4.18-5.19-8.3-4.6-24.29,2.59-30.91,8.88-8.16,14-18.89,21.39-28,2.57-3.21,4.73-7.15,2.92-12.3a19.77,19.77,0,0,0-1.43,2A79.43,79.43,0,0,1,418.6,80.79c-6.7,6-12.35,12.82-18.1,19.69a55.33,55.33,0,0,0-13.23,35.57c-.14,8-.9,16.2,2.27,24.12,1.7,4.25,2.29,9.05,2.79,13.66,1.21,11.23-4.83,19.36-12.36,26.55a9.71,9.71,0,0,1-7.88,2.57c-7.06-.91-14.07-1-20.88-4.44-15.82-8-17.51-24.28-11.14-36.8a58.25,58.25,0,0,1,12.76-16.52c4.28-3.89,6.82-9.06,8.79-14.33,1.43-3.84,2.43-8.18-.84-12.39a13.72,13.72,0,0,0-2,6.2,22.1,22.1,0,0,1-7,13.94c-4.4,4.28-11,4.3-16,7.56-.51.33-1.62-.13-2.4-.38-11-3.52-21.23-14-18.44-28.6a45.76,45.76,0,0,0,.71-7.93c0-1.31,1.2-3.44-.86-3.86a4.68,4.68,0,0,0-5,2.51c-9,15.93-12.14,32.48-5.32,50.11,4.13,10.66,8.84,21.1,10,32.73,1.66,16.23-4.07,29.4-17.05,38.62-7.36,5.24-16.44,7.77-25.14,10.72-6.48,2.2-11.33-1.18-14.9-4.48-7-6.46-8.73-15.32-6.36-24.73.29-1.15,1.93-2.55.17-3.43-1.4-.7-2.35.92-3.12,1.93a53.17,53.17,0,0,1-9.77,9.94c-3.63,2.8-5.48,6.65-6.57,10.88-1.69,6.55-4.8,13.11-2.93,20,1.73,6.38,2.2,13,4.77,19.25a7.87,7.87,0,0,1-.44,7.19A124.07,124.07,0,0,0,221,303.69c-3.26,10.54-.07,18.77,6.87,25.9,4.75,4.89,9.33,9.92,14,14.88,5.87,6.23,8.13,14,8.41,22.29.22,6.39-9.51,15.26-14.63,13.1-8.38-3.54-16.91-7.24-22.3-15.29-5.23-7.81-11-15.35-12.67-26.57-5.22,7.83-6.82,15.85-11.27,22.35-.28.41.16,1.28.17,1.94.12,5.86,4.66,7.4,8.95,9.32,13.82,6.16,25.49,14,30.27,29.92,4.44,14.81-10.09,24.36-21.23,21.32a59.25,59.25,0,0,1-27.17-16,49.91,49.91,0,0,1-10.17-14.68c-.54-1.2-1.45-2.42-3.07-2-1.34.35-1.05,1.53-.77,2.47,2.52,8.43,4.06,17.35,7.87,25.15,4.33,8.86,9.23,17.77,17.32,24.18a18,18,0,0,1,3,3.94c6.62,9.43,13.71,19,22.94,25.42,11,7.71,22.15,15.33,32.65,23.67,8.07,6.43,18.95,10.42,22,22.24,1.12,4.39.33,7.31-4.25,8.46a15.58,15.58,0,0,1-7.43-.24c-4.38-1.05-8.73-2.14-13.1-3.2-20.1-4.92-38.63-13-54.41-26.74a33.85,33.85,0,0,0-3.95-3,1.51,1.51,0,0,0-2.21.36,2.07,2.07,0,0,0,.07,1.8c2.17,3.31,3.69,7.19,7.6,9a10.49,10.49,0,0,1,5.29,5.12c2,4.61,5.35,7.87,9.14,10.93,8.78,7.09,15.65,16.32,25.32,22.44,4,2.5,7.5,5.57,9.67,9.89.66,1.32,1.7,2.62.5,4.14a4.12,4.12,0,0,1-4.45,1.5c-2.92-.67-6-.89-8.71-2.08-9.38-4.2-19.23-5.1-29.3-4.81-4.86.14-8.93,2.54-13.17,4.66a50.79,50.79,0,0,0,10.64,2.81c15.63,2.05,29.56,8.5,42.37,17.21,9,6.14,18.82,11.3,26.75,19.08,3,2.9,5.16,6.49,8.8,8.79,8.37,5.27,15,12.67,21.9,19.57,4.77,4.78,10.29,8.87,14.23,14.61,5.52,8,11.66,15.66,17.7,23.33.77,1,1.61,3.07,4.39,1.87a121.85,121.85,0,0,1-13.74-27.7,10.79,10.79,0,0,1-1-4.79c.34-4.2.27-8.41,1.12-12.62.82-4,8-13.53,12-14.3,7.92-1.54,15.86-1.75,23.75.42,5.2,1.43,8.24,4.63,9,10.08a10.42,10.42,0,0,1-5,11c-3.91,2.49-2.68,4.24.5,5.92,8.08,4.26,16.35,8.19,24,13.16,4.24,2.74,6.88,1.54,9.09-2.82,3.74-7.36,9.44-12.87,17.32-15.64,4.06-1.43,8.38-2.11,12.51-3.35,6.4-1.93,12.91-1.49,19.29-.63a16.18,16.18,0,0,1,10.09,5.08c6.32,7.22,7.38,18.88,2.74,27.48-.54,1-1.32,2.33-1.05,3.24,1.18,4.08-1.49,6.54-3.44,9.36-.84,1.21-2.2,2.57-2.15,3.81.21,4.46-3,6-6,7.67-1.29.74-2.76,1.17-4.1,1.83s-2.61,1.84-2,3.54,2.13,1,3.42.78c3.45-.57,6.91-1.06,10.36-1.59,1.65-.25,3.65-.82,4.58.89,1.3,2.4,3.58,2.41,5.58,2.68a73.65,73.65,0,0,1,13.61,3c4.07,1.36,4.69-.68,3.75-3.59-2.26-7-1.59-14.12-1.47-21.26a102.79,102.79,0,0,1,8-38.21c5.37-12.86,12.92-23.95,24.89-31.61,3-1.91,6.36-3.15,9.34-.95,3.31,2.45.75,5.65-.51,8.06-4.91,9.38-6,19.47-6.19,29.77,0,1.5-.81,3.24.65,4.5,1.18-.4,1.25-1.29,1.6-2,2.06-4.34,2.88-9.53,6.58-12.75,5.06-4.39,8.09-10.06,11.41-15.59a165.68,165.68,0,0,1,24-31.06c10.72-10.91,23.3-19.17,35.74-27.8,23.61-16.38,48.91-28.75,76.84-35.77,4.29-1.08,9-1,13-4-5-.05-9.77-1.39-14.67-1.74-15.76-1.14-30.6,3.66-45.71,6.72a149.28,149.28,0,0,0-37.5,13.37c-2,1-4.63,2.79-6.24.1-1.7-2.86,1.1-4.58,3.1-5.87,6.67-4.32,13.38-8.51,19.52-13.67,8.89-7.47,18.27-14.35,27.33-21.62a166.26,166.26,0,0,0,20-18.69C654.7,460,661,455.25,664.5,448.34c7.56-15,13.06-30.53,8.51-47.89-3.22-12.25-6.83-24.25-14.59-34.54-.69-.91-1.14-2.58-3.2-1.74-.1,3.08,2.58,4.87,3.69,7.33,3.43,7.54,3.68,15.42,3.53,23.37-.06,3.26,3.43,5.61,1.88,9-1.8,3.92-1.73,8.07-1.8,12.25-.25,15.45-5.76,28.3-18.34,37.91-5.42,4.14-11.82,6.25-17.84,8.7-7.82,3.19-15.67,7.28-24.85,6.37-5.33-.53-10.61-2.71-16.17-1a2.93,2.93,0,0,1-3.57-2.07c-.48-1.57.79-2.51,1.76-3.31a33.21,33.21,0,0,1,4.57-3C601,452.25,612.57,443,624.31,434c5-3.79,8.83-9,13.15-13.62,1.24-1.32,1.82-3.17.52-4.5s-2.75.24-3.89,1c-3,2.09-5.64,4.83-8.87,6.39-16.18,7.85-32.74,14.75-50.69,17.48-2.75.42-5.51,1.6-8.35.42-1.57-.64-3.46-1.32-2.73-3.46,1.2-3.56,2.29-6.9,6.44-8.86,7.48-3.52,15.1-6.9,21.39-12.63,5.88-5.35,11.52-10.84,16.91-16.73a177,177,0,0,0,18.44-23.38c1.12-1.74,1.78-3.73.64-5.67-1.31-2.21-3.15-.92-4.87-.46-8.34,2.27-14.72.37-19.72-6.79-7.92-11.32-9.29-23.82-5.39-37,.36-1.22,1.61-2.65.35-3.66-1.54-1.23-2.67.43-3.79,1.3a5.08,5.08,0,0,0-2,2.73c-1.55,5.77-3.35,11.47-4.75,17.27a29.45,29.45,0,0,1-5.95,12.44,3.19,3.19,0,0,1-3.47,1.32c-1.6-.41-2-1.75-1.8-3.14,1.28-10.4-2.66-20.28-2.87-30.63-.36-17.46,4.44-33.36,11.21-49.05,2.2-5.11,7.37-9.44,6.35-15.37-1.51-8.81.46-17.19,1.9-25.6s2.61-17.53,6.52-25,5.3-16.17,10.58-23c1.11-1.44.88-3.13,1-4.79,1.32-13.37-8.71-23.37-10.63-35.78a1.65,1.65,0,0,0-2.37-1.15,1.45,1.45,0,0,0-.56,2.16c3.31,4.29.81,9,.89,13.47a58.38,58.38,0,0,1-3,19,12,12,0,0,1-2.46,4.25c-5.71,6.56-12.94,10.77-20.9,14-6.43,2.57-22.33-1.4-26.93-6.49-10.79-12-12.64-26.14-10.64-41.31.39-3,2.5-5.31,3.27-8.28,2.2-8.42,6.58-15.9,11.85-22.73,4.21-5.45,7.82-11.22,11.93-17.67-3.5.2-5.21,1.5-6.33,3.66-4,7.7-13.62,6.73-19,12.25a.71.71,0,0,1-.49.07c-6.28-.85-12.56-2.84-15.87-8.2-8-13.06-12.34-26.94-4.58-41.94C515.42,65.05,516.44,63.51,514.63,61.31ZM319,741.9a71.27,71.27,0,0,0-4.07-27.65,27.62,27.62,0,0,0-13.53-15.94c-7.63-4-15.81-3.84-23.93-3.34-13.37.82-23.66,7.11-28.79,19.69-9.33,22.89-10.49,46.53-4.54,70.46,1.87,7.57,5.55,14.32,11.76,19.28,14.52,11.58,44.79,11.21,55-12.85C317.31,776.34,319,760.49,319,741.9ZM581.72,432c2.63,1.44,4.38-.61,6.35-1,15.24-3.44,29.2-10,42.27-18.41,3.46-2.23,6.44-5.21,9.89-7.46,3.85-2.5,9.8-1.13,9.5,2.15-.61,6.71,1,14.65-5.35,19.42-6.92,5.21-13,11.33-19.69,16.74-6.87,5.55-14.2,10.37-21.49,15.29-1.05.71-3.31,1.3-2.42,3.13s2.64.59,4.05.28a77.11,77.11,0,0,0,33.6-16.62c8.51-7.13,16-14.26,16.27-27.26.31-16.1,0-31.86-6.19-46.84a40.34,40.34,0,0,0-10.11-14.39c-1.15,3.87-1.14,7.13-1.5,10.37-.48,4.22.5,9.25-2.44,12.45-5.71,6.22-9.15,13.89-15,20.22A190.15,190.15,0,0,1,581.72,432Z" transform="translate(-0.93 -1)"/><path d="M1,694c3.85,2.72,4.8-.77,5.62-3a4.65,4.65,0,0,1,2.14-2.91c5.18-3,5.55-4.46,2.6-9.76,2.66-.92,4,3,6.68,1.7,1.86-.9,3.4-3.73,5.95-1.21l2.24,1.54c1.34-.33,3-.5,3.46.93.65,2-2.12.9-2.68,2.51a6,6,0,0,0,5-.3c12.12-6.67,25.4-8.5,38.92-9.27,18.17-1,35.87.95,52.87,7.9,5.09,2.09,10.24.43,15.24-.6A156.73,156.73,0,0,1,173.21,678c4.34.07,5.92,2.21,5.3,5.88a60.92,60.92,0,0,0-.47,13.94c.31,4.84-2,5.71-6,5.21-6.1-.78-12.2-1.59-18.32-2.21-1.38-.14-3.2-.91-4.22.51-1.13,1.58.61,2.76,1.28,4,6.07,10.95,4.4,21.3-1.84,31.63-8.74,14.46-22.69,20.43-38.16,23.91-9.26,2.09-18.72,2.85-28.18,3.68-7,.61-7.38,2.17-3.22,7.82-1.67,1.33-3.35-1.79-5,.07.18,1.48,1.47,2,2.53,2.76,2,1.42,3.84,2.65,1.26,5.42-1.82,2-.47,3.13,1.83,3.64,8,1.78,16.07,2.35,24.13,3.28,13.36,1.53,26.9,1.85,39.82,6.2,8.69,2.93,15.82,7.87,19.85,16.35,5,10.45,2.25,20.23-3.77,29.18-9.29,13.78-23.32,20.69-38.57,26-14.2,4.92-28.72,6.79-43.62,6.68-2.47,0-5.06-.23-7.31,1.16s-4.34,3-1.63,5.78c1.25,1.28,1.23,2.47-.26,3.19s-2-.66-2.41-1.77c-.12-.31-.15-.66-.26-1-.79-2.25-5.26-7.48-7.2-7.71-2.8-.33-6-1-7.57,2.59A15.14,15.14,0,0,1,49.27,877c-3.14,4.24-2.16,7.8,2.7,9.92.42.18.69.71,1,1.07-16.33,0-32.67-.06-49,.07-2.5,0-3.08-.57-3.07-3.07.12-20.33.07-40.67.07-61,4-3.46,6.8-8.25,11.5-11,4-2.28,1.93-5.58,1.76-8.59-2.68.21-5-3.67-8-.57C5,805.18,2.84,805,1,805ZM87.25,852.86a70.34,70.34,0,0,0,24.83-3c9.59-2.82,19.07-5.94,24.88-15.16,4-6.4,2.45-11.62-4.76-13-15.85-2.93-32-3.71-48-5.28-5.88-.58-12-.42-17.69-1.19-5.13-.69-10.43-1.16-15.58-2.19-9.27-1.87-14.07,3.79-17.82,10.9-2.78,5.26-2,10.64,2.49,14.42a56.25,56.25,0,0,0,10.59,7C58.52,851.74,71.84,853.1,87.25,852.86ZM61,724.18c2.93,2.72,3.22,5.07-.38,7.09-1.35.75-.54,2.08.34,2.93.69.68,1.7,1.5,2.48.42.62-.86-.4-3.12,1.94-2.44,2,.57,1.39,2.71,2.07,4,.84,1.52-.5,4.75,1.36,4.31,5.17-1.22,5.89,2.8,7.43,5.55,1.74,3.1,4.15,4.29,7.37,3.71,5.58-1,10.89-2.74,15.2-6.75,9.57-8.89,9.8-20.43,8.3-31.94-2.25-17.32-15.44-25.79-32.4-21.65-9.88,2.41-15.6,10-14.3,19.07.12.84-.44,1.18-1,1.43-2.39,1.09-3.72,3.31-1.68,4.93,2.27,1.8,2.09-2.18,3.66-2.77.3-.11.59-.25,1.35-.57-.75,2.23,1.8,3.27,1.58,5.3-1.42.4-2.92-1.45-3.74.47-.72,1.67,1.07,1.71,1.85,2.4,4.33,3.8,4.37-1.24,5.36-3,.82-1.41.71-3.1,3-3.12.94,0,2.21,2.72,2.8-.1.36-1.7-1.16-2.15-2.56-2.36s-2.38-.73-2.32-2.12c.07-1.86,1.66-1,2.66-1.29s1.75-.92,2.68-1.16c3.05-.79,5.55-.09,4.36,3.57s-.45,6.46,1.88,10c-3.71-.79-6.53-2.36-9.39-.48,4.07.64,2,4.08,3.76,6.82-3-.76-5.2-.89-6.93-1.89C65.64,723.35,63.78,723.39,61,724.18Zm-10.9,147.2c-4.39.54-5.57,5.07-10,3.82C44.14,878.54,44.14,878.54,50.11,871.38Z" transform="translate(-0.93 -1)"/><path d="M253,888c4.46-6.35,6.65-13.59,8.24-21.08.4-1.9.58-3.93,3.21-4.39,2.39-.42,4.15,0,4.1,2.71-.14,7.59.73,15.2-.55,22.76Z" transform="translate(-0.93 -1)"/><path d="M784.75,885.86c-18.46.6-37.45-2.17-55-11.4-12.85-6.77-24.19-15.2-29-30.05-4.59-14.14,1-27.24,14.51-33.51,6.94-3.22,14.35-4.53,21.74-5,14.75-1,29.57-1,44.35-1.76,9-.43,17.92-1.14,26.83-2.18,7.09-.83,10.47-4.41,9.53-9.09-1.39-7-7.91-11.93-13.75-11.52-23.58,1.69-46.68.38-67.22-13.29-13.37-8.9-20.27-26.2-16.11-39.47a38.23,38.23,0,0,1,3.57-7.12c.59-1.06,2.37-1.85,1.39-3.35-.85-1.29-2.46-.72-3.74-.68-5.81.16-11.64.2-17.43.67-4.57.38-6-1.59-5.48-5.8a62.88,62.88,0,0,0,.78-13.42c-.27-3.23,1.31-4,4.14-4,10.44.06,20.53,2.36,30.44,5.18a38.53,38.53,0,0,0,21.5.28c26.27-7.14,51.74-4.55,76.11,7.69,19.15,9.6,26.84,28.08,19.42,46.56-4.07,10.11-12.77,15.55-21.87,20.16-4.24,2.15-2.68,3.49-.37,5.43,5.09,4.27,10.34,8.34,14.5,13.61,8.16,10.32,6.46,21.85-4.35,29.25-5.38,3.69-5.35,3.83-.77,8.57,3.81,3.94,7.73,7.82,11.2,12,8.27,10.1,6.68,21.39-3.88,29-11.21,8-24.3,10.46-37.53,12.45C800.86,886.19,793.36,885.79,784.75,885.86ZM746.94,834a54.66,54.66,0,0,0-17.43,1.62c-5.18,1.22-7.19,4.89-6.15,10.1,1.28,6.44,5.64,10.44,10.77,13.68,15.45,9.73,32.66,11.37,50.35,10.4,11.22-.62,22.16-2.52,31.88-8.63,5.59-3.51,9.6-7.88,8.93-15.36-.71-8.06-8.32-15.76-15.35-15.32C788.91,831.82,767.87,832.88,746.94,834ZM787.43,708.9c-5.22-.65-10.31,1.39-14.92,5.08-9.61,7.67-14.24,25.65-10.25,39.37,2.7,9.27,9,14.82,18.18,16.3,9.84,1.58,19.11-.33,25.21-9.21a40,40,0,0,0,6.11-33.72C808.64,714.53,800.8,708.81,787.43,708.9Z" transform="translate(-0.93 -1)"/><path d="M671.44,193.14a94.73,94.73,0,0,1-5.19,28.08c-4.6,13.52-13.15,24.82-18.06,37.83-3.18,8.44-5.6,17.6-3.75,27.3,2,10.54,4.1,21.14,2.62,32.1-.51,3.79.8,7.87,1.58,11.76.8,4.05-.65,8.23-3.62,8.66-4.14.61-4.8-2.67-5.62-5.59a28.9,28.9,0,0,1-1-9.3c.28-6.13-2.35-11.66-5.25-17-3.11-5.68-5.93-11.53-9.39-17-6.4-10.08-9.38-21.56-13.84-32.43-4.24-10.34-2.78-20.75-.66-31.37,2.59-13,9.22-24.14,15.25-35.58a23.32,23.32,0,0,1,2.46-3.13,76.51,76.51,0,0,0,15.6-39.17c1.31-12.83-3.26-24.44-11.45-34.48-2.42-3-5.12-6.66-1.33-9.47s6.78,1.46,8,4.32c2.86,6.83,8.55,11.7,11.41,18.58a160.78,160.78,0,0,1,7.9,25.7c1.11,4.82-.34,10-1.39,14.61-2.43,10.52-4.86,21-11.26,30.51-4.42,6.54-8.48,14.36-6.85,23.27.61,3.36,1.28,7.14,4.87,8,3.39.81,5.69-2.41,7.58-4.81,8.78-11.13,11.91-24,10.8-37.95-.31-3.93,1.91-7.38,5.19-7.44,4.32-.09,5,3.27,5.36,6.48A69.26,69.26,0,0,1,671.44,193.14Zm-37.74,93.8a6.79,6.79,0,0,0,.82-2c.07-17.14,3.48-33.24,14.44-47,.57-.72,1.56-1.69.52-2.53s-2,.4-3.06.84c-5.36,2.28-10.36,1.7-14.78-2.23-4.59-4.09-7.65-10.16-6.46-15.3,2.11-9.08,7.3-17.35,12.21-25.36,2.89-4.7,5.06-9.67,7.57-14.51.71-1.35,1.87-3.46-.16-4.39s-3,1.37-3.29,2.77c-1.15,6.48-5.44,11.24-8.5,16.69a94.26,94.26,0,0,0-7.44,15.66c-2.65,7.69-5.82,15.29-6.49,23.28-1.26,15.09,1.93,29.67,8.29,43.41C629,279.83,629.88,284.13,633.7,286.94Z" transform="translate(-0.93 -1)"/><path d="M291.87,42.41c-1.14,5.77-.05,11.56-.08,17.36a19.61,19.61,0,0,1-1.16,5.77c-3.79,12.24-9.54,23.31-18.5,32.57-5.07,5.24-10,10.71-15.41,15.53-10.93,9.67-20.17,20.84-26.09,34-4.31,9.55-6.78,20.32-2.46,31,1.1,2.72,0,4.08-1.87,5.44-7.35,5.44-13.05,12.8-20.85,17.7-2.8,1.76-3.84,4.95-5.62,7.53s-3.21,5.62-6.84,4.67c-3.29-.86-3.48-4.11-3.68-7a8.53,8.53,0,0,0-1.38-4.74c-4.67-6-5.69-13.43-7.89-20.36-2.37-7.49-.3-15.13,2.06-22,2.7-7.87,7.4-15.28,10.66-22.82,4.06-9.37,11.66-13.55,18.63-18.14,12-7.88,23.21-16.66,35-24.68,6.82-4.63,14.4-8.11,19.59-15,7.92-10.5,14.42-21.32,12.64-35.27-.43-3.44.61-6.91.41-10.44-.13-2.4-.27-4.64-1.57-6.66-1.72-2.68-1.65-5.16,1.11-6.9a5.63,5.63,0,0,1,7.68,1.09c1,1.08,2.15,2.44,2.29,3.78C289.18,30.78,292.63,36.2,291.87,42.41ZM189.93,174.74c-.61,5.27,2.44,11.11,3.47,17.32.58,3.53,2.29,4.68,5.41,2.17,4.91-4,9.72-8.07,14.81-11.79,3.08-2.26,3.78-4.6,3.36-8.46-1.63-15.14,1.93-29.08,11.77-40.94,2.65-3.19,5.63-6,7.51-9.82a20.2,20.2,0,0,1,5.4-6.48c8.52-7,15.5-15.73,24.16-22.64a13.43,13.43,0,0,0,2.56-3.65c.43-.7.82-1.62.06-2.28s-1.5,0-2.16.49a151.26,151.26,0,0,1-21.66,14.94,18.47,18.47,0,0,0-4.62,3.74c-4.16,4.6-9.07,8.23-14,11.88-10.57,7.76-22.13,14.53-27.74,27.44C194.45,155.32,190,163.7,189.93,174.74Z" transform="translate(-0.93 -1)"/><path d="M259.11,146.68c-3.14,10.22-3.94,21-9.29,30.69-6.52,11.84-17.47,19.87-25.14,30.66-2.67,3.76-6.48,6.69-8,11.31a8.59,8.59,0,0,1-3.78,4.53c-5.54,3.42-7.88,8.83-10.39,14.48-4.19,9.43-6.55,19-5.85,29.38a28.15,28.15,0,0,0,1.69,8.7c1.29,3.3,2.41,7.13-2.1,9.51-2.4,1.26-4.84,1.33-6.26-.9-5-7.91-13-13.22-18.15-21.07a5.93,5.93,0,0,1-.45-6.43,192.88,192.88,0,0,1,12.41-24.24,73.2,73.2,0,0,1,12.37-15.45c8.43-7.63,15.77-16.37,24.77-23.45,6.69-5.26,12.82-11.56,17.09-19.14,4.87-8.61,8.56-17.59,7.58-27.94-.37-3.91,5.7-8.86,9.52-8.27C259.88,139.77,258.4,143.65,259.11,146.68ZM181,256.1a18.65,18.65,0,0,0,.24,3.4c.69,2.19,2.12,4,4.48,4,2.6,0,1.3-2.52,2-3.79,1.81-3.38-.85-7.18.7-10.15,2.37-4.55,3.46-9.65,6.45-13.91,1.25-1.79,3.56-4.94,1.76-5.95-2.48-1.4-4.51,1.67-5.87,4a8.92,8.92,0,0,0-1.33,3.18c-.41,3.24-2.22,5.63-3.81,8.36C183.56,248.77,181.24,252.58,181,256.1Z" transform="translate(-0.93 -1)"/><path d="M683.42,377.31a8.92,8.92,0,0,0-1.38-8.16c-5.26-6.69-4.49-14.21-3.49-21.88.76-5.75.07-11.55,0-17.33-.15-18.78,4.56-35.53,19.41-48.58A59.88,59.88,0,0,1,713.59,271c2-.87,3.88-2,6.12-1.94,1.77,0,3.52.87,4.07,2.43.5,1.39-1.22,2.18-2.28,2.93-14.3,10.14-19.1,25.09-20.15,41.49a194.22,194.22,0,0,0,.46,30.3c.89,9.67-1.32,19.33-3.33,28.84a14.8,14.8,0,0,1-4.07,7.33c-2,2-4,4.87-7.09,3.36S683.17,381.18,683.42,377.31Zm10.73-71c0-.5,0-1,0-1.49-.09-1.08.53-2.7-1.07-2.88s-1.51,1.45-1.6,2.53a14.31,14.31,0,0,1-2.08,6.08,17.15,17.15,0,0,0-2.23,10c.62,11.21,2.38,22.44.13,33.68a33,33,0,0,0-.59,5.94c0,2,1,4,2.9,4.06,2.29,0,1.77-2.4,1.87-3.92.48-7.77.93-15.5.12-23.33C690.51,326.68,691.93,316.45,694.15,306.34Z" transform="translate(-0.93 -1)"/><path d="M141.68,358.32c-1.26-.37-2.9-.34-3.73-1.15-6.08-6-13.24-11.14-15.31-20.24s-2.91-18.1.48-27.33c2.33-6.31,2.9-13.23,5.08-19.7a20.91,20.91,0,0,1,5.38-8.24,4.19,4.19,0,0,1,5.52-.61c2.08,1.59.27,3.37-.79,4.68a15.83,15.83,0,0,0-3.55,11.59,26.71,26.71,0,0,1-.71,9.4c-2.64,9.08,4.6,26.94,13.57,30.67,4,1.69,4.4,4.11,3.09,7.91S149.12,353,146,356C144.66,357.26,143.6,358.28,141.68,358.32Zm-8.62-19.93a33.48,33.48,0,0,0,3,4.12c1.22,1.19,2.86,3.81,4.21,2.43,1.95-2-1.37-2.64-2.38-3.84S135.93,338.42,133.06,338.39Z" transform="translate(-0.93 -1)"/><path d="M26.23,680.32,24,678.78c-2-1.93-2.68-4.84-5.2-6.46l.91-1.18c2.62,1.39,5.59,2.39,7.74,4.31C28.83,676.69,29.66,679.45,26.23,680.32Z" transform="translate(-0.93 -1)"/><path d="M422.24,603.22c-12-2-24.19-.62-36.22-1.36-9.47-.58-17.68-6-24.41-13a144.16,144.16,0,0,0-33.45-26.45c-7.63-4.25-10.77-10.66-9.36-19.34,1.22-7.54,5.44-13.95,7-21.22,2.29-10.79,5.37-21.55,2.69-32.85-.83-3.47-.51-7.25-.41-10.88.14-5.55-.26-10.79-3-15.93-1.48-2.76-2.85-4.79-5.94-5.26-9.75-1.48-17.39-6.06-22.68-14.61-2-3.25-5.37-5.43-8.86-7.09-10.43-5-15.42-15.16-12.25-26a16.09,16.09,0,0,1,6.36-8.16,17.19,17.19,0,0,0,5.92-7.22A32.25,32.25,0,0,1,295.14,383c4.86-4.57,5.13-11.84,3.67-17.24-2.23-8.28-2.4-17-6.18-25a114.25,114.25,0,0,0-10.9-18.85c-6.22-8.53-11.93-17.06-13.39-27.78,0-.17-.1-.32-.13-.48-.51-2.47-5-4.72-1.42-7.25s7.4-5.89,12.73-3.25c3.55,1.76,6.27.47,8.11-3.24,3.7-7.46,6.12-15.44,9.61-23,3.23-7,9-11.82,14.88-16.5a121,121,0,0,1,47.68-23c15.3-3.63,31-4.07,46.64-3.89a51.52,51.52,0,0,0,10.93-.62c6-1.22,9.34,2.4,8,8.37a37.34,37.34,0,0,1-3.9,10.24c-.83,1.46-1.62,3.52.27,4.34s2.72-1.35,3.35-2.83c4.43-10.43,12.06-18.44,21-24.65,5.73-4,13.45-2.53,20.32-2s13.33,3,20.23,2.23c5.59-.66,11.26-.59,16.75-2.06,1.27-.34,2.72-.83,3.91-.53,10.59,2.67,20.85,6.15,27.36,15.77,8.29,12.22,16,24.85,21.45,38.61,2.75,6.92,5.55,13.8,8.5,20.64,2.46,5.72,1.88,12.65,1.4,19-.57,7.47-4.39,13.64-8.36,19.91-2.85,4.49-2.82,10.57-2.17,15.76.9,7.26-.37,14.25-.64,21.35a3.11,3.11,0,0,1-.51,1.9c-5.94,5.73-.14,10.28,1.09,15.55,2.44,10.49,7.12,21.18.74,32-2.83,4.81-8,6.88-11.85,10.57a28.36,28.36,0,0,0-6.89,10.22,22.35,22.35,0,0,1-6.22,8.84,11.49,11.49,0,0,0-4.12,8.73,111.41,111.41,0,0,1-2.29,21.29c-1.75,8-.24,16.1.81,24.12.12,1,.7,2,.52,2.93-2,10.07,1.26,20,.85,30-.15,3.64-2.75,6.5-3.71,10.06-1.69,6.27-4.9,12.22-8,18-3.77,7-10.62,11-17.68,13.08-9.79,2.85-18.17,8-27,12.7-9.67,5.15-17,13-25.29,19.79A29.58,29.58,0,0,1,422.24,603.22Zm42.51-143c-3.32-.19-6.65-.28-9.95-.62-1.26-.13-2.82-.54-3-2.16-.24-1.84,1.47-1.93,2.65-2.39,6.73-2.64,13.83-3.53,20.95-4.1,16.69-1.36,30.75-8.85,44-18.39,4-2.84,4.9-8,8.49-10.8a66.18,66.18,0,0,0,11.28-11.92c5.72-7.29,12-14.55,8.77-25.15a78.16,78.16,0,0,0-2.79-7.4c-1.85-4.48-5.89-9.09-3.45-14a49.79,49.79,0,0,0,5-17.59c.17-1.64.85-3.87-1.14-4.33s-2.11,1.86-2.69,3.39c-2.07,5.38-2.48,11.34-5.91,16.29-1.6,2.31-1.29,5.34,0,7.71,3.62,6.83,4.58,14.53,7.49,21.57.84,2,.42,3.13-1,4.77-6.07,6.93-13.35,12.4-20.75,17.69a65.18,65.18,0,0,1-23.44,10.63c-1.23.28-3,.53-3.53-1-.63-1.75,1.1-2.14,2.27-2.65,8.41-3.7,14-11,21-16.49,1.77-1.4,3.36-3.6,2-5.66-6.19-9.39-2.69-18.92-.9-28.47.76-4,.38-8.34,3-11.93,8-11.07,16-22.13,23.38-33.51,5.87-9,11.07-18.93,10.5-30.59-.25-5-2.66-9.22-4-13.83a165.21,165.21,0,0,0-14.09-34c-2.29-4.2-5.13-8-6.73-12.68-2.32-6.78-13.72-13-20.72-12.77-6.69.24-12.53,2.91-18.64,5.07-13.83,4.87-25.59,12.89-36.49,22.5-5.76,5.09-10.5,11.07-15.8,16.55-6.45,6.65-6.59,6.52-.52,13.23.89,1,2.33,1.9,1.63,3.33s-2.56,1.79-4,1.48c-7.22-1.57-14-4.9-17.46-11.3-3.79-7.05-6.67-14.74-7-23.19-.32-7.66-1.15-15.13,1.65-22.61,1.32-3.53-2-3.82-4.23-3.23a21.35,21.35,0,0,1-8.38.73,58.09,58.09,0,0,0-27.09,2.3c-7,2.38-14.51,1.82-21.55,3.76-9.28,2.56-16.94,8.43-25.2,13-11.26,6.2-17.74,16.13-21.32,28.63-2.37,8.32-7.4,15.52-16,19.39a42.65,42.65,0,0,1-9.42,3.17c-2.5.5-3.54,1.89-2.28,4.29,4.06,7.78,7.39,16,12.46,23.2,1.42,2,3.28,3.81,4.44,6,5.26,9.81,9.79,19.75,12.74,30.71,3.75,13.95,1.6,26-6.14,37.51-3,4.47-3.39,9.62-5.09,14.41a3.85,3.85,0,0,0,1.54,4.46c5.89,4.28,8,10.12,7.84,17.18,0,1.65-.14,3.26-.24,4.89-.21,3.53.51,6.57,3.7,9.15,8.64,7,19,3.88,28.31,4.42,9.87.57,26.08,10.05,27.52,19.83.44,2.95-.71,6.93-4.42,6.34-4.85-.78-5.8,1.54-6.45,5.14a51.88,51.88,0,0,0-1.18,6.36c-.17,2.66-3.71,5.58-1.09,7.57,2.08,1.58,5.73,1.32,8.7,1.45,8.49.39,10.78-2.21,9.65-10.71-.22-1.66-.82-3.27.55-4.71s2.94-2.94,5.19-2c3.1,1.35,2.76,4.2,2.77,6.88,0,7.23,6.95,11.45,13.55,8.28,6.07-2.92,7.93-6.7,6.85-13.47-.48-3,.93-5.51,3.66-6.27,3.32-.93,2.85,2.27,3.42,4.19.38,1.28.81,2.54,1.27,3.79,2.13,5.8,5.24,7.6,11.36,7.39,5.75-.2,6.6-3.88,6.69-8.38a4.06,4.06,0,0,1,.05-1,6.38,6.38,0,0,1,4.34-4.44c2.29-.82,3,1.53,4.2,2.79,2.77,3,1.09,5.3-1.06,7.77-1.38,1.58-2.75,3.63-1.33,5.87.86,1.36,2.45,1.59,4,1.29,2.59-.5,3.52-2.45,3.77-4.69s-.06-4.69.26-7c.38-2.73,1.05-6.64,4-6.48,3.78.19,4,4.25,4,7.48,0,1-.58,1.91-.72,2.88a11.42,11.42,0,0,0-.16,3.44c.2,1.27.54,3,2.15,2.93,1.88-.1,1.5-2,1.38-3.18a15.44,15.44,0,0,1,3.67-11.58c2.26-2.75,4.47-2.51,6.09.64,1.08,2.11.41,4.17.1,6.32-.8,5.39.95,6.65,5.94,5,5.51-1.8,7.74-5.64,8.35-11.09a59.52,59.52,0,0,1,3.12-15c1-2.65,0-3.57-2.46-3C472.71,460.39,468.74,460.15,464.75,460.17ZM459.6,547.3c-.27-2.48-.46-5-.82-7.42a4,4,0,0,0-4-3.75c-5.84-.4-10,4.22-8.61,9.89a15.37,15.37,0,0,1-.19,9.3c-1.25,3.45-3.49,4.62-6.42,2.23-3.46-2.81-3.74-.37-4.15,2.12-.29,1.77-.09,4.58-2.31,4.33-5.83-.69-11.46,1.69-17.32.48-5-1-9.76-3.86-15.39-1.56-3,1.23-5.1-1.82-4.06-5.08.9-2.86,2.12-5.65,2.64-8.58.89-5-.52-6.4-6.62-7.67-4.08-.84-6.3.78-7.28,4.73-.76,3-.89,6.29-2.77,9-1.21,1.75-2.71,3.2-5,2.29s-3.21-2.64-2.61-5.23c.76-3.23,1.31-6.51,1.86-9.79.46-2.75,0-5.28-3.36-5.48a24.85,24.85,0,0,1-10-2.87c-2.44-1.24-3.7-.27-3.77,2.54s1.33,4.73,2.69,6.83c1.61,2.52.31,4.55-1.45,6.18-1.91,1.77-3.56.51-5.28-.77-4.47-3.35-5.32-8.68-7.5-13.28-1.85-3.91-1.18-7.08,3-9.1,1.86-.9,3.54-1.9,2.3-4.59-3.7-8-4.95-17-9.76-24.52-1.89-3-1.06-5.88.75-8.41,5.42-7.61,5-16.23,4.44-24.83-.14-2.22.16-6.07-3.28-5.68-3.05.35-1.6,3.85-1.7,6-.35,7.27-1.12,14.5-3.57,21.35a22.09,22.09,0,0,0-1.5,6.13c-.78,11.41-1.82,22.81-5.72,33.68-1.57,4.38-4.13,8.47-5.19,12.93-2,8.28-2.29,12,5.95,17.56,2.9,2,6,3.6,8.83,5.66,10.71,7.86,22.12,14.84,30.61,25.42,4.11,5.12,10,7.32,16.33,7.32,10.44,0,20.84-.56,31.19,1.59a18.47,18.47,0,0,0,13.45-2.55c12.37-7.42,23.35-16.9,36.29-23.51,8.59-4.39,16.81-9.76,25.94-12.72a18.52,18.52,0,0,0,12.75-12.77c2.44-7.61,4.91-15.13,8.87-22.11.82-1.45,1.51-3.08.84-4.78-2.91-7.32-2.21-15.07-2.33-22.62-.11-6.86-4.55-12.65-4-19.54,0-.54-.68-1.12-1-1.71-2.89-5.87-3.14-12.43-4.8-18.62-.29-1.09,1.3-2.7-.39-3.52-1.36-.65-2.45.72-3.59,1.33-2.19,1.16-2.48,3.26-2.85,5.47-.78,4.59,1.6,8.41,2.71,12.52,2.32,8.52,2.69,17.28,3.18,26,.21,3.63.48,7.68-2.07,10.53a28.8,28.8,0,0,0-6.22,12.3c-1.8,6.79-3.26,13.65-8.08,19.16-1.1,1.25-1.92,3.06-3.92,2.26s-2.27-2.64-1.61-4.62c.57-1.73,1.15-3.48,1.62-5.24.54-2,2-4.27-.12-6-1.81-1.49-3.8.08-5.7.46s-3.13,1.79-4.23,3.28c-2.05,2.79-3.44,6.1-6.69,7.92a2.44,2.44,0,0,0-.85,3.53c2.16,3.51.78,6.45-1.46,9.1-1.56,1.84-1.74,6.07-5.3,4.78C458,553.37,460,549.77,459.6,547.3ZM419,524.39a102.24,102.24,0,0,0,36.72-6.65c.95-.36,2-.58,2-1.84,0-1.09-1-1.1-1.78-1.33-5.25-1.55-10.45-3.34-15.77-4.61-4.58-1.09-9.2-3.15-14.06-.84-7,3.34-12.21,9.71-19.84,12.09-.28.09-.57.91-.47,1.28.27.93,1.15,1.07,2,1.13Z" transform="translate(-0.93 -1)"/><path d="M401.05,344.13c2.76.12,5.37,1.82,7.5,4.7,3.26,4.41,7,5,11,1.55a21.91,21.91,0,0,1,8.83-4.42,15.7,15.7,0,0,0,6.56-3.4c4.7-4.21,8.34-3.26,10.51,2.6a14.44,14.44,0,0,1,.65,2.4c.43,2.48-.86,5.6,2.42,7s7.41,2.12,10.17.47c3.39-2,5.76-5.8,8.43-8.95a31,31,0,0,0,2.61-4.25c3.2-5.23,7.71-6.08,11.64-1.55,2.65,3.05,3.77,1.67,4.91-.71,2.16-4.47,4.25-9,6.08-13.62,1.05-2.66,2.4-4.55,5.45-3.76s3.41,3.05,2.67,5.91c-1.89,7.32-4.45,14.36-9.42,20.15-2.52,2.93-1.43,5.59-.44,8.36,4.25,11.73,3.06,23.4-.13,35.1-3.42,12.49-11.21,21.22-22.66,27-1.59.8-2.95,1.27-4.69.69-6.27-2.09-12.87-3.15-18.54-7-3-2-6.73-1.47-10.23-1.28-1.21.07-2.39.27-2.88,1.55-.62,1.59.5,2.43,1.6,3.25,6.24,4.64,11.85,10.21,19.39,12.9a12.72,12.72,0,0,1,3,1.77,2.92,2.92,0,0,1,1.16,3.52c-.52,1.53-1.87,1.82-3.24,1.8-2.76,0-5.11-1.49-7.52-2.54-12.19-5.34-23.08-12.85-31.49-23-4.76-5.75-7.51-13.19-10.93-20-1.09-2.17-1.78-4.05-4.71-4.38s-3.62-2.45-2-4.75c2.07-3,2-5.92,1.72-9.4-.39-5.41.4-10.9.68-16.36a10.15,10.15,0,0,0-1.73-6.56C395.2,345.61,396.19,344.17,401.05,344.13Zm24.33,43.22c-.9.07-1.73.12-2.55.21-6.95.74-8.66,4.13-5.05,10a39.29,39.29,0,0,1,3,5.15c1.31,3.14,3.1,3.81,6.24,2.34,4.44-2.1,9.35-3,14.07-1.71,7.52,2.1,15.19,3.35,22.77,5,5.12,1.14,7.38-1,10-4,.66-.75,1.46-1.51,1-2.6-.52-1.31-1.82-1.41-3-1.34-6,.39-11.94-.59-17.85-1-8.16-.61-17.18-.77-22.28-9.16C430.19,387.49,428.26,386.55,425.38,387.35Z" transform="translate(-0.93 -1)"/><path d="M375.1,382c.26,2.64-1.62,4.35-3.49,5.56-4.48,2.92-5.4,7.24-5.67,12-.17,3.16-.41,6.31-.81,9.44a8.83,8.83,0,0,1-4.44,6.83c-6.56,3.9-12.92,8.08-18.09,13.85-1.52,1.7-3.8,2.68-5.86,1.55-2.31-1.26-1.31-3.55-.32-5.25,1.56-2.68.28-4.31-1.62-6-4.18-3.68-9.4-5.58-14.1-8.37-3.69-2.19-5.11-5.79-2.59-8.78,6.49-7.67,5.05-16.47,4.82-25.17-.17-6.3-4-12.36-.93-18.91.72-1.53-.57-3.26-1.76-4.45-3.19-3.21-6.41-6.74-7.89-10.79-2.82-7.7-9.49-13-11.9-20.82-.53-1.71-1.9-3.56-.05-5s4.09-.81,6,.54a36.22,36.22,0,0,1,12.07,15.57c3.67,8.47,9.06,15.82,15.12,22.71,1.76,2,3.22,2.13,4.33-.75,1.18-3.06,2.18-7.29,5.93-7.16,4.23.14,6.06,4.13,7.14,8,1.53,5.51,4.84,9.48,10.29,11.29,5.75,1.92,8.76,7,12.87,10.74A4.07,4.07,0,0,1,375.1,382ZM339,403.75c-1.15,0-2.64-.08-4.12,0s-3.16.32-3.58,2.05,1.14,2.67,2.43,3.29a36.45,36.45,0,0,1,6.88,4.78c2.35,1.88,4.39,1.3,6.57-.67s1.71-3.64.56-6C345.82,403.33,342.65,403.54,339,403.75Z" transform="translate(-0.93 -1)"/><path d="M502.62,363.54c1.39-8.32,2.81-16.63,4.15-25,1.08-6.71,1.65-13.54,3.2-20.14,1.59-6.77,4-13.36,6.27-20a12.69,12.69,0,0,1,3-4.57,48.25,48.25,0,0,0,8.17-10.41c2.58-4.56,8.06-6.15,13.41-6.38a4.23,4.23,0,0,1,4.12,3.11c.66,2-1.14,3.38-2.59,3.66-10.72,2.08-11,13.81-18.1,19.25-.46.35-.58,1.18-.77,1.81-.31,1.08-1.11,2.4.11,3.2s2-.43,2.79-1.31c2.92-3.39,6-6.62,8.76-10.15a24.57,24.57,0,0,1,4.92-4.85c1.92-1.41,3.84-3.32,6.15-1.42s4,4.77,2.66,7.94a33.86,33.86,0,0,0-2.17,9.64c-.51,4.57-3.64,7.15-7.92,7.81-6.31,1-8.74,4.34-9.3,10.67-.54,6.1-3.83,11.57-8.31,15.79s-5,9.84-5.52,15.43c-.52,5.4-3.17,10.1-5.05,15-1.23,3.23-3.92,2.46-5.81,0C502.66,370,503.06,366.77,502.62,363.54Z" transform="translate(-0.93 -1)"/><path d="M421.15,458.22c-7.35-.14-11-3-13.34-10.28a37.49,37.49,0,0,0-8.51-14.33A36.68,36.68,0,0,1,392,421.29a13.46,13.46,0,0,0-4.38-6.27c-4.94-4-8.49-9.3-12.35-14.27-1.78-2.3-2-5.28-.2-7.38,2.09-2.48,4.5-.57,6.65.76a13.58,13.58,0,0,1,5.45,5.69c3.08,6.62,8.36,11.38,13.17,16.65,6.13,6.7,13.22,12,20.59,17.09a8.18,8.18,0,0,0,2.49,1.62c8.9,1.84,9.42,9.16,10.66,16.05.37,2.09-.33,3.68-2.36,4.36C428.15,456.78,424.73,458.8,421.15,458.22Z" transform="translate(-0.93 -1)"/><path d="M392.36,438.86c.24,8.49-4.19,13.1-6.49,18.5-1,2.43-3.9,1.47-5.7.17A119.2,119.2,0,0,0,366.76,449c-4-2.12-3.79-4.73-.25-7.68,2.93-2.45,6.61-3.73,9.43-6.42,2.29-2.18,3.09-4,1.1-6.82a98.72,98.72,0,0,1-5.3-9c-1-1.88-1.35-3.87.55-5.41,1.75-1.42,4-1.54,5.49,0A54.45,54.45,0,0,1,392.36,438.86Z" transform="translate(-0.93 -1)"/><path d="M483.15,289.49c4.72.09,6,2.35,3.76,6.23a19.39,19.39,0,0,1-8.57,7.43c-13.57,6.72-28,11.33-42.59,15.06a112.85,112.85,0,0,0-19,7.18c-1.81.84-3.8,2.19-5.32-.07s.28-4,1.75-5.62a12.54,12.54,0,0,1,7-3.54,154.56,154.56,0,0,0,25.77-7.41c7.73-3,15.5-6,23.22-9.05,3.76-1.49,7.18-3.48,9-7.37A4.64,4.64,0,0,1,483.15,289.49Z" transform="translate(-0.93 -1)"/><path d="M322.13,298.63c5.78-.31,8.92,3.54,11.94,6,5.81,4.71,12.15,9.31,15.62,16.46a35.9,35.9,0,0,1,2.38,7.54c.87,3.69-.66,6-3.81,6.93s-5.83-.53-7.26-3.73a46.82,46.82,0,0,1-2.63-5.9c-2.91-10-10.07-16.47-17.95-22.41-1.1-.83-2.35-1.68-1.71-3.19C319.5,298.46,321.4,298.69,322.13,298.63Z" transform="translate(-0.93 -1)"/></g></g></svg>