<svg xmlns="http://www.w3.org/2000/svg" viewBox="0 0 868.2 894.21"><title>goodnightowl</title><g id="Layer_2" data-name="Layer 2"><g id="Layer_1-2" data-name="Layer 1"><path d="M487,1a28.24,28.24,0,0,1-2.83,7.77A34.13,34.13,0,0,0,481,29.7c1.54,9.09.49,18.18,1,27.26,1.06,17.19,1.38,34.44,1.19,51.66-.08,7-2,14.08-1.81,21.28.18,9.25-1.14,18.47-1.26,27.69-.08,5.49-2.64,10.94-.32,16.56.7,1.69.6,4.6-1.73,5.13-2.64.59-5.58-.61-7.71-2.13-3.74-2.68-6.59-6.13-3.6-11.22.16-.28-.17-.87-.32-1.31,0-.11-.26-.15-.44-.26-1.66.51-.95,1.9-.87,2.87a24.4,24.4,0,0,1-2,12.15,23,23,0,0,0-1.64,9.75c.15,15.93.83,31.85.47,47.79-.22,9.65,3,12.39,12,11.24,6.85-.87,7.57-.36,7.48,6.57-.1,7.47.57,15-.6,22.42-.37,2.42-.89,3-3.4,2.54a89.87,89.87,0,0,0-10.79-.88c-2.46-.14-2.52,1.94-2.61,3.46-.43,7.29.45,14.61-.83,21.91-.38,2.14,1.13,4.14,4,4.06,2.5-.07,5.05.27,7.48-.16,3.53-.62,6.19.19,8.18,3.22a5.71,5.71,0,0,0,5,2.79c9.86,0,19.73,0,29.58-.1,1.42,0,3.43-.42,4.13-1.39,3.66-5.12,8.92-4.35,14-4.33,1.17,0,2.34,0,3.5,0,4,.17,6.38-1.22,5.9-5.78s-.35-9.22-.75-13.84c-.58-6.54,1.64-11.3,8.93-10.46a37.35,37.35,0,0,0,4.49.05c8.4,0,9.75,1.31,8.74,9.61a72.71,72.71,0,0,1-6.74,23.36c-.83,1.69-1.55,3.22-4.1,2.49a5.6,5.6,0,0,0-7,3.21c-1.26,2.67-1,5.15,2.61,6.07.87.22,1.11,1.8.38,2-6.15,1.56-2.77,7-4.26,10.46-1.36,3.13-1.56,6.84-3.81,9.61-1.89,2.34-2.1,4.47-1,7.32,1.86,5,.86,6.66-4.13,7.64-2,.38-2.32,1.56-2.49,3.13-.27,2.55-1.39,5-4.06,4.85-3.72-.19-4.36,2.24-5.94,4.61-6.1,9.16-6,19.46-7.17,29.85-1.55,13.33-.7,26.85-3.52,40.06-.69,3.22.33,6.66,1.41,9.76,1.76,5.05,1.58,10.08,1.08,15.26-1.07,11-3.5,22-1.9,33.13a12.4,12.4,0,0,0,1.41,4.69,10.28,10.28,0,0,1,1.06,9c-1.52,4.78,1.67,9,3.63,13.06,1.87,3.84,2.95,6.79,1.71,11.43a19.23,19.23,0,0,0,1.61,13.91c1.13,2,2,4,.41,6-1.88,2.44,0,3.94,1.06,5.72,1.26,2.11,3.06,1.73,4.79,1,3-1.24,4.59-1,3.73,2.77-.44,1.9.65,2.46,2.19,3.19,3.9,1.85,7.67,4,11.48,6,1,.55,2.34,1.18,2.07,2.49-.32,1.57-2,1.1-2.93.93-2.8-.5-5.93-.12-8.06-2.75a3.18,3.18,0,0,0-2.17-1.11c-6.81.08-12.36-4.09-18.71-5.71-7-1.79-13.61-6-19.4-11-4.21-3.65-8.61-7.35-14.25-8.86-3.17-.86-6.18-1.86-9.71-.86-4.38,1.25-6.23-1.12-5.09-5.44,1.22-4.63,2.3-9.31,3.22-14,.62-3.1-1-4.94-3.89-6s-4.63-.51-6.24,2.13c-3.25,5.29-7.53,5.89-12.4,2-8.59-6.8-11-5.86-14.12,4.59-3,10-6.86,19.65-9.62,29.66-1.27,4.62-1.53,9.66-2.08,14.48s-.23,9.92-1.95,14.29c-3.23,8.16-2.88,16.64-3.38,25a92.24,92.24,0,0,1-3,20.08,11.25,11.25,0,0,0-.61,3.91c.81,9.62-.66,18.45-8.43,25-.38-5.87,5.47-12.65-1.68-18.37-2.3,4.74-3.64,9.8-5.49,14.54-4.46,11.41-7,23.9-15.43,33.57a19.18,19.18,0,0,0-3.62,7c-.67,2.21-1.51,5.08,2,6.22a2,2,0,0,1,1.57,2.64c-.33,1.47-1.31,1.56-2.58,1.63-2,.1-4.31,0-4.68,2.66-.27,2,.06,3.94,2.41,4.91,1.93.8,1.58,2.68,1.61,4.33.2,8.41-3.39,16-6.38,23.35-6.5,15.93-9.63,32.54-12.8,49.23-.59,3.09-1.14,6.16-3,8.85s-.93,5.6.37,8.44c1.38,3,2.47,6.26-.46,9.23-1.52,1.55-2.1,1.08-3.85-.27-5.4-4.18-1.58-9.79-2.88-14.53-.57-2.07,0-4-3.32-2.63-2.28.93-2.56-1.13-2.66-3-.16-3-.42-6-.74-8.93-.2-1.81-.57-3.63-3-4.61-1.59,8.49-.74,17.19-3.43,25.38-.51,1.55-.43,3.17-1.92,4.38a3.51,3.51,0,0,0-.83,4.18c5,8.4.05,16.56-.37,24.8-.52,10.43-1.61,20.83-1.88,31.26-.12,4.83-1.31,9.54-1.07,14.36H304c-1.86-8.69-3.76-17.38-1-26.25a2.46,2.46,0,0,0-.31-1.91c-2.55-3.57-2-7.65-1.88-11.59.36-10.4.12-20.91,1.65-31.14,1.24-8.26.71-17.6,8.24-23.89,1.14-.94.85-2.18,0-3.09-2.61-2.71-1.64-5.81-1.21-8.91a158.23,158.23,0,0,1,6-26c.75-2.37.07-4.52-1.33-6.94-2.51-4.35-6.19-7.24-9.72-10.48-3.14-2.89-5.15-1.91-7.25,1.09a50.08,50.08,0,0,0-4.95,9.13,411.82,411.82,0,0,1-23,45.7c-8.85,15.18-17.87,30.06-20.55,47.82a5.72,5.72,0,0,1-1.82,2.87c-5.62,5.37-5,10,2.17,13.1a16.44,16.44,0,0,1,8.31,7.4c1.49,2.73,3.7,4.52,6.15,6.34,6.89,5.09,14.06,9.9,19.48,16.72H195c-1.33-.89-3-1.51-3.91-2.72-1.32-1.78-2.83-3.06-4.85-2.27s-2.13,3-2.24,5q-89.5,0-179,.1c-3.42,0-4.1-.68-4.1-4.1Q1.1,770,1,649c.94.3,2.23.32,2.76,1,4.48,5.38,13.09,5.82,15.83,13.4a7.14,7.14,0,0,0,4,3.56c4,1.48,3.64,4.6,3.59,7.79,0,2.13-1.4,2.9-3.12,3.26-1.47.3-2.27,0-3.48-1.56-3-3.76-6.72-6.91-10.3-10.14a3,3,0,0,0-3.3-.46c-1.55.93-.1,2,0,3.05A4,4,0,0,0,9.22,672c6.39,3.17,11.4,8.15,16.78,12.66,2.35,2,4.7,3,7.58.69,1.33-1.08,3.08-2.33,4.72-.07,1.38,1.89,3.25,3.8,1.22,6.14-2.32,2.69-1.1,5.43.46,7.2A65,65,0,0,0,56.63,711.8c2.08,1.19,4.19.8,4.68-1.78,1.62-8.57,3.36-17.14,4.39-25.79,1.45-12.15,1.32-24.57,3.69-36.52s2.36-24.22,5.31-36.19,4.55-24.29,8.71-36.06c1.47-4.17,3.17-9.23.14-13.44A57,57,0,0,0,74,551.43c-3.25-2.73-7.74-4.08-9.81-8.15-1.79-3.52-4.27-3.55-7.36-1.86-1.65.9-3.28,3.41-5.17,1.92a6.19,6.19,0,0,1-2.16-7.1c.78-2.45,1.64-5.86-1.29-7.23-6.08-2.83-9.25-8.75-14.46-12.51-6.55-4.73-13.35-9.19-19.34-14.71a6.29,6.29,0,0,0-8.26-.71C4,502.49,2.22,502.82,1,500V435c3.09.82,2.16,4.4,3.75,5.82,5.28,4.71,4.94,11,3.84,16.52A72.48,72.48,0,0,0,6.88,468c-.06,1.27-1,2.89.68,3.44s1.75-1.3,2.52-2.31c2.51-3.29,4.56-7.26,9.16-8.24a2.53,2.53,0,0,0,2.23-2.3c.64-4,1.49-5.66,4.87-1.29,2.48,3.2,4.42,8,10.1,7,1-.16,1.76.94,2,1.95.36,1.34,1.09,2.1,2.48,1.79,1.95-.44,1.61-2.41,1.18-3.24-1.66-3.18-.64-8.06-5.62-9.2a1.68,1.68,0,0,1-1.42-1.8c.52-5.59-.65-11.66,5.39-15.5,2.87-1.83,5.23-4.47,7.81-6.74.79-.7,1.38-1.56.85-2.59a2.29,2.29,0,0,0-3-1.21c-.93.31-1.8,1.08-2.72,1.11-2.26.1-5,1.23-3.8-3.52a20.75,20.75,0,0,0-1.92-14.54c-6-10.86-5.61-23.37-10.18-34.66-3.33-8.2-3.8-17.7-4.83-26.79-.54-4.81,1.05-9.54-.45-14.2,6.75,2.81,6.59,2.91,9.78,8.34,1.23,2.08,1.47,5,3.86,6.19,7.45,3.73,10.71,10.85,14.53,17.54.47.82.62,2.63,1.53,2.26,4.81-2,3.32,2.59,3.51,3.86.5,3.19,1.81,6,2.74,9,.4,1.28.75,3.34,2.72,2.95,1.71-.35,1.71-2.34,1.94-3.73a11.21,11.21,0,0,0-.4-3.4c-1.06-7.17-2.29-14.4-3.07-21.51C58.37,347,52,339.14,52.3,329.23c-3.31,1-3.94,3.26-3.18,5,2.43,5.68.63,11.88,2.69,17.71,1.07,3,1.92,6.89.56,10.67-.4-2.38-1.92-3.42-3.91-4,1.31-3.17,1.11-4.08-2.7-6.34-3.13-1.85-6.95-7.22-7.7-12.62a10.05,10.05,0,0,0-1.83-4.55C27.68,324.06,19,313,10.38,301.94c-1.9-2.45-3.72-2.95-5,.45-2,5.16-2,10.71-3,16.07-.25,1.32,1.05,1.83,1.89,2.64,5.93,5.7,8.49,12.81,8.78,21.5-1.14-1.31-.49-3.28-2.1-3.06s-.76,1.88-.93,2.91c-.47,2.88,2.2,4.37,3,6.61,1.95,5.51,3.29,11.24,5.13,16.79,3.58,10.78,5.51,21.95,8.12,32.95,2.45,10.35,3.4,21.21,9.09,30.81-4.47,1-7.1-1-7.26-4.48-.16-3.66-2.33-6.7-2.23-10.27a4.4,4.4,0,0,0-2-3.8c-.9-.7-1.83-1.78-3.07-1.16-1.67.82-.37,2.08,0,3,2.68,7-1.36,12.19-5,17.25-1.56,2.16-4,3-6.83.68-4.54-3.69-4.72-3.46-7.12,1.93A9.73,9.73,0,0,1,1,434V164c3.9-1.57,5.26-5.32,7.18-8.53,5.65-9.46,12-18.65,13.1-30.1.38-4,.66-7.91,1-11.88.08-1.17,0-2.7,1.28-2.95,1.9-.34,1.13,1.5,1.48,2.44,1,2.57,1.95,5.12,2.93,7.68l1.47,1.1c-.7-6.36,2.67-9,7.17-10.87.85-.36,1-2.34,1.49-3.58.42-1.08.58-2.89,1.29-3.13,5.28-1.83,4.7-7,6.34-10.83.75-1.74,1.07-3.58,3.18-4A21.28,21.28,0,0,0,64.24,78.09a22.63,22.63,0,0,1,4.09-4.89c1-1,3-1.71,2.53-3.26-.56-1.73-2.63-.85-4-.86C44.91,69,23,69,1,69,1,47.67,1.1,26.33.9,5,.87,1.57,1.58.9,5,.91Q211,1.08,417,1a33.07,33.07,0,0,1,.09,16.42C415.57,23.31,412.74,29,413,35.28c.15,3.46.74,5.8,4.84,3v5.89c-1.51-.32-1.91-3.35-3.49-1.69a4.31,4.31,0,0,0-.35,4.6c1.3,2.62,2.48-.13,3.85-.12-.2,1.56,1.3,3.34-1,4.33-3.7,1.58-13.33-1.4-15.28-4.76-.91-1.57-1.94-4.14-3.81-3A15.63,15.63,0,0,0,392.51,50c-.31.66,2.83,3.16,4.62,2.86,5.15-.85,4.33,2.52,4.37,5.42.33,19.78-2.39,39.46-2.26,59.17.12,19-2.93,37.79-2.1,56.75.06,1.33.92,3.24-1,3.91a3.36,3.36,0,0,1-4-1.3c-2.53-3.87-5-3.51-7.77,1-.47-3.5-.9-5.87,1.29-8.25,1.55,3.51,3.51,2.4,6,1,2.92-1.64,1.27-3.07.44-4.84-1-2.06-.46-4.2,0-6.35,1.29-5.82,0-7.58-6-7.38-1.57.06-2.65-1.08-4.51-.85.2,4.48-1.05,8.74-.43,13.33.66,4.89,1.73,10.38-.57,14.78-3.77,7.25-3.55,14.74-3.37,22.34.29,12.46,0,24.92.49,37.4.43,10.39-2,11.11-10.72,9.41-6.55-1.28-6.74-.91-7.16,5.86-.4,6.49,1.65,12.93.4,19.33a95.47,95.47,0,0,0-1.35,17.77c0,5.6.84,11.23-1.12,16.81-2.88,8.22-4.29,16.87-6.69,25.26-2.26,7.89-6,15.61-4.93,24.22a4,4,0,0,1-.64,1.87,137.32,137.32,0,0,0-9.42,27.68c-2.21,9.63-6.05,18.82-10.12,27.9-6.11,13.64-11.88,27.5-10.31,43a15.73,15.73,0,0,1,.06,3c-.57,7.08-.59,7.08,6.68,7.13a10.58,10.58,0,0,0,1.49,0c3.29-.43,4.37,1.13,5.38,4.24,2.33,7.21,1.66,14.83,3.61,22.08.55,2.06,1.19,5.7-2.2,6.19-2.7.38-6.41,1.64-7.89-2.95-.56-1.73-2.65-2.85-4.86-2.78.64-3.6-1.14-4.56-4.28-3.75-1.57.4-2.9,1.32-4.44-.39-1.92-2.13-3.21.11-3.67,1.34-.8,2.19-1.8,4.77.89,6.64,2,1.37,3.08-.27,4.13-1.37s5-2.77,6.56-2.45a2.86,2.86,0,0,0,1-.18c-.41,2,.15,3.85,2,4.69,3.25,1.51,2.26,4.2,1.86,6.44-.46,2.63-2.95,2.33-4.9,2.16-2.68-.23-3.58,1.22-4.69,3.39-1.62,3.17-2.61,6.19-1.59,9.71s-3.36,6.23-2.47,9.27c1.12,3.81-1,5.9-2.55,8.46-.77,1.25-.77,1.16-1.75-.35-.28-.42-1.1-.56-1.7-.68-.92-.18-1.14.42-1.05,1.19.24,2,.17,3.86,1,5.82,1.25,3,2.63,6.07,2.76,9.49.09,2.31-.94,3.74-3.09,3.54-5-.46-7.25,2.45-7.75,6.54-.79,6.42-4.38,10.6-9.05,14.58a4.65,4.65,0,0,0,.2,7.4c4.3,2.88,2,4.55-.48,6.48-3,2.32-4.62,5.22-3.76,9a10.2,10.2,0,0,1-.1,5.87c-2.79,8-6.4,15.72-8.18,24.1a27.77,27.77,0,0,1-3.43,9.28,9.22,9.22,0,0,0,0,10.32c.75,1.16,1.09,2.57-.07,3-5.09,1.94-3.76,6.43-4.26,10.14-.37,2.77.84,5.85-.62,8.33-1.31,2.24-1.17,3.19.94,4.75,2.87,2.11,2.13,4.74-1,6.85-2.17,1.45-4.35,3.27-4.3,6.31.11,7,.32,13.91,3.88,20.29,1.43,2.55,2.76,5.62-1.15,7.56a1.83,1.83,0,0,0-.88,2.86c.62,1.12,1.25,2.78,2.92,2,4.77-2.25,6,.79,6.8,6.25a30.55,30.55,0,0,1,6.85-12.64c3.43-3.85,3.25-4,5.25.89,2.6-3,2.92-7,3.39-10.59.37-2.81,1.36-3.84,3.95-3.69,3.16.18,4.67-.85,5.06-4.42.23-2.09.88-6.73,5-4.52,4.81,2.57,6.48.17,8.27-3.49.82-1.68.86-4,3.19-4.69,6.23-1.89,6.8-3,4.61-9-.37-1-1.49-2.07-.25-3.13,1-.87,2.2-1.58,3.57-.45,2.71,2.24,4.2.21,4.56-1.92,1.33-7.89,9-10.64,13.16-16.2,2.85-3.78,5.38-7.38,6.76-11.79.71-2.25,1.32-4.45,3.24-6a15.22,15.22,0,0,0,4.81-8c1-3.31,1.8-6.3,5.62-8.05,2.92-1.33,4.38-4.76,5.49-8a75.41,75.41,0,0,1,8.77-18.47c3.05-4.48,5.11-9.52,7.57-14.29,3.17-6.13,5.54-12.75,8.16-19.19,2.2-5.42,3.1-11.38,4.46-17.13a3.92,3.92,0,0,0-1.92-4.27c-1.71-1.16-2.06-3.09-.66-4.28,4.25-3.64,3.1-8.13,2.65-12.63a8.52,8.52,0,0,1,.44-3.89,174.25,174.25,0,0,0,11.71-46.86c1-9.58,3.78-18.64,5.28-28,2.94-18.25,3.89-36.91,9.34-54.74a17.37,17.37,0,0,0,.54-4.39c.51-13.9.91-27.81,1.51-41.71a18.38,18.38,0,0,1,2-8.4c3.22,3.89,7.33,3.24,11.6,3.28,3.44,0,3.52-1.09,3.59-3.79.25-10.22-1.49-20.61,2.42-30.57a14,14,0,0,0,.41-5.42c-.32-8.13-1.24-16.28-1-24.39.63-22.59-1-45.14,1.73-67.81A285,285,0,0,0,444,162c-.19-4.6-1.34-9.17.07-13.77.93-3.06.53-6.06.16-9.25-.63-5.59-.12-11.31-.22-17,0-1.79,1.12-2.37,2.35-2.71,1.57-.43,2.39.46,2.72,2a14.41,14.41,0,0,0,1.24,2.84c1.8-.06,1.85-3.23,3.84-1.77,5.19,3.81,5.17-1.42,5.67-3.69,1.8-8.09,2.95-16.25,1.82-24.66-1-7.24.49-14.56.43-21.87-.05-5.42-1.28-11,.83-16.7,3.86-10.38,3.07-20.8-2.2-30.8A69.75,69.75,0,0,1,455.29,12c-.59-2-1.15-3.69-2.83-4.8-2.88-1.92-2.27-4-.46-6.17ZM123.09,287c-1.37,3.8-1.72,7.45,1.17,10.63.38-3.65,1.92-7.48-1.29-10.56.57-2.24,1.12-4.48,1.71-6.71.89-3.4,2.73-8.06.66-10.06-3.41-3.3-3.54-7-3.4-10.58.27-6.83-5.16-12.24-4-19.25.44-2.69.64-4.32,3.72-5.24,6.28-1.88,12-12.36,10.47-18.55-.49-2-3.11-4.38-3.81-2.47-1.55,4.18-5.91,3.67-7.81,7.05-8.37-27-4.66-54.62-9-81.72-4.46,11.81-3.21,23.62-2,35.41.58,5.9,1.7,12,1.46,17.7-.43,10.14,1,20.15,1.23,30.2s1.87,20,2.41,30.06c.11,2.21-1,6.82,4.4,6.41,1.27-.1,1.24,2.09.73,3-4,6.73-1.75,13.09.87,19.5C121.31,283.52,119.9,286.32,123.09,287Zm113.84,86,.12.1c-.88-2.72.85-7.83-5.39-5.63-.94.33-2.22-2.47-3.76-.7s-.54,3.49.17,5.18a13.51,13.51,0,0,1,1,5.83c-.12,5-.41,10,1.73,14.72.73,1.59.61,3.18-1.3,4.79-3.46-11.52-1.4-23.66-5.68-34.9-3.33,2.91.26,7.83-3.14,10.7-1.51-2,.68-5.45-2.44-5.7-1.91-.16-1.55,2.41-1.66,4a6.64,6.64,0,0,0-3-5.4c-2.29,1.34-.34,4-2.16,5.37a4.55,4.55,0,0,1-.32-3.47c.17-1.12.63-2.59-1-2.74-1.3-.13-1.82,1.1-2,2.4-.19,1.57.62,3.31-.94,5.08-1.18-2.9-.11-6.36-2.69-8.79-1,3.18.32,6.25-.91,9-2.05-.2-.78-3.08-3-3-1.39,2.84.09,6-1.1,9,.24-5.54-5.34-8.9-5-14.49.79,9.92-5.73,19.81.09,29.6,1.13-.79-.3-2.6,2-3.56-.52,4.52.79,8.55,1.7,13.36-2.79-1.61-1.63-4.47-4.3-5.68.86,10.06,1.61,19.78.91,29.87-3.49-3,.55-6.26-.81-8.66-3.05-5.41-1.6-11.39-2.92-16.94-1.73-7.27-1.6-14.71-1.64-22,0-4.31,2-8.68,0-13.11l-1.9,7.19c-.82-1.1.46-2.75-1.29-3.74-.94,3.61.28,7.52-1.74,10.73-2.65,4.21-2.51,8.81-2.26,13.46.16,3.14-.35,6.3.65,9.42.33,1-.23,2.17-.7,3.36-2,5.07-6.79,8.49-7.43,14.44-1.07,9.89-2.93,19.7-4.48,29.69-3.79-3.2-.68-8.29-4.09-12.31.47,3.38-5,4.51-2.57,6.77,3.44,3.17,2.41,6.13,2.23,9.68-.67,12.78-.45,12.76,11.17,12.46,3.18-.08,4.08-1.23,3.81-4.15-.54-6.05-1.05-12.13,2.41-18.17.91,3.46,2.19,6.56,2.44,9.73s2.86,4,4.45,4.7c1.37.6,2.9-2.28,3.62-4.12.41-1-.05-2.4.35-3.43.9-2.31.08-5.48,3.71-7-.61,4.06,3.7,4.28,4.79,6.88.93,2.2,2,4.35,4.46,3.38,2.16-.85.69-3.49,1-5.31a2.92,2.92,0,0,0-.4-1.91c-2.31-3.62,0-6.21,1.73-9.55l2.71,12.36c2.11-1.24-.42-4.6,2.36-4.48,1.73.08,4.3.57,4.7,3.47.3,2.17,2,1.37,3.52,1.44,5.26.27,5.26.38,5.41,6.8,0,1,.08,2,0,3-.2,4.35,1.05,7.09,6.22,6.36a58.27,58.27,0,0,1,7.48-.08c7.68-.11,7.67-.12,7.28-7.34,0-.52-.24-1.33.76-1.56,1.57,1,.93,2.66.94,4,0,4.12,2.06,5.52,6,4.89,4.32-.71,2.4-4,2-5.84-1.51-6.81.45-13.74-1.86-21.09,2.59,2.7,3.37,5.13,3.09,7.94-.45,4.35.7,8.59.87,12.89.17,4.47,1.65,6.23,6.69,6.23,12.33,0,12.08.4,10.1-11.66-1.09-6.68-1.2-13.53-1.79-20.81,1.13.6,1.63.72,1.65.89.93,9.47,2.06,18.94,2.57,28.43.14,2.66.86,2.89,3,3.12s4-1.68,5.79-1.16c8.26,2.39,16.52.4,24.19,1.05-1.08-12.44-2.11-24.33-3.15-36.21l-2,.14c-1.74,9.58,2.14,19.44-.19,29-.67-13.29-2.08-26.39-5.28-39.31-1,.35-.75,1.12-.95,1.72-.39,1.17-.22,3.16-1.95,2.94-1.57-.2-1.2-2.08-1.4-3.34-.31-1.89.53-3.92-.86-6-1.78,4.16.57,8.87-2.32,12.65-3.22-6.13-2.66-13.08,1.61-18,2.42-2.77,3.36-5.64,1.62-9-.58-1.11-1-2.11-.49-3.27a2.69,2.69,0,0,0-2.28-4c-2.41-.22-2.42,2.22-2.28,3.91.34,4.05-2.31,7.1-3.1,10.94-1.8-5.71-7.91-7.11-10.72-11.82,1.17,4.92-.34,9.49-1,14.17-.54-5-1.07-10.09-1.74-16.4-4.24,6.37,1.19,12.26-2.7,17.84-1-10.14-1.4-19.88-4-30-1.25,2.4-.45,4.74-2.47,5.77-1.46-1-.14-3.14-2-3.94-.42,2.12-.79,4.17-1.23,6.21-.17.79-.32,1.83-1.37,1.79-1.43-.06-1.23-1.31-1.26-2.25-.08-2.52,1.68-5.06-.61-8.6-1.18,6.4-2.51,11.82-1.21,17.54-2.23,0-2.26-1.35-2.57-2.68-.92-4-.3-8-.68-11.93-.86-9.1-.29-12.13-9.29-12.95-.6-.06-1.12-.91-1.67-1.38-1.3,1.45.33,3.53-1.54,4.76-1.1-1.2-2.48-2.23-3.2-3.6C239.31,370.08,238.19,371.55,236.93,372.91Zm14.8,138.41c.37-9,.49-8.92,9.48-9.16,4-.11,4.8,2.68,5.76,5.36.31.86-1.11,2.46.82,2.66,1.2.12,2-1.13,2.54-2.15.46-.83.51-2.44,1.06-2.6,4.34-1.28,3.78-4,2.78-7.35-.91-3.05-1.64-5.43-5.59-3.92-.75.29-1.64-.61-1.81-1.42-.45-2.25-2.13-1.91-3.74-2.22a11.4,11.4,0,0,1-4.66-1.56c-4.17-2.95-7.91-7.24-14-5.35a2,2,0,0,1-1.75-.63c-1.75-2.81-4.66-2.17-7.22-2.79s-4.87.63-7.3.8c-10.63.75-19.4-5.8-29.44-7.7a36.45,36.45,0,0,1-10.86-4.46c-1.61-.95-2.49,0-2.83,1.5-.91,4,1.94,9.78,5.82,11.93,3.26,1.8,6.68,8.41,5.68,12.21-2.89,11-1.64,22.71-5.5,33.62a75.84,75.84,0,0,0-4,16.48c-.62,5.46-4.59,9.74-4.36,15.57.09,2.13.59,5.39-2.23,7.66-5.61,4.53-11,5.83-17.51,2.23-4-2.22-4.75,1.6-6.87,2.79a2.63,2.63,0,0,0-.65,4c3,3.24,6.43,5.92,11.32,5.78,3-.09,6.36-.15,8.45,2.08a6.44,6.44,0,0,0,4.47,2.22c8.94,1.18,17.82,2.8,26.71,4.22,4.11.66,8.65-.21,13-.35,1.93-.06,3.28-1.49,3.68,1.52A2.14,2.14,0,0,0,225.1,594c4.86.31,9.36,3.2,14.33,2.32a10.82,10.82,0,0,1,8.14,2.25c3.5,2.58,3.14-.24,3.34-1.75.9-6.93-3.78-11.89-11-11.84-1.24,0-2.77.08-2.61-1.42.43-4.07-1.53-8.4.76-12.2,3.35-5.55,3.94-12.1,4.58-18,.78-7,2.8-13.7,4.51-20.33C249,525.86,251.27,518.81,251.73,511.32ZM370.27,79.83,369,79.61c0-2.39,0-4.78,0-7.17,0-1-.08-2.72-.43-2.8-6.81-1.58-2-4.78-1.11-7.43A29.47,29.47,0,0,0,369.08,54c.31-5.55-2.67-10.66-1.88-16.25.68-4.73-1.17-9.19-1.72-13.79-.13-1.08-.14-2.82-2.07-2.94-1.65-.09-2,1.09-2.83,2.2-5.67,7.71-9.53,16.74-16.78,23.27-5.49,4.95-10.06,10.41-11.43,18-.21,1.1-.13,2.6-1.59,2.82-4,.58-3.23,3.86-2.43,5.7,1.53,3.51,1.47,7.12,2,10.7,1.34,9.77,4.64,18.8,8.81,27.75s3.6,9.24,12,4.79c4.85-2.57,5.2-2.39,6.05,3.19,1.28,8.4.85,16.87.8,25.31,0,3,1.07,4.35,3.94,4.38,4.17,0,8.34.19,12.5,0,3.61-.18,5.68-1.88,5.6-6-.1-5.09-.34-10.26-.6-15.26-.68-13.25-1.37-26.48-1.4-39.75a113.8,113.8,0,0,0-1.11-12.88c-.12-1-.23-2.49-1.8-2.62a2.69,2.69,0,0,0-3,2C371.51,76.31,370.88,78.07,370.27,79.83ZM301,292.78c1.85-.75,2.3,2.35,4.21.77,1.49-1.25.92-2.49.88-4-.29-11.31,2.43-22.28,4.3-33.31.73-4.24,1.71-8.43,1.76-12.73a24.51,24.51,0,0,1,1.71-9.21c3.75-9.18,4.42-19.18,7.16-28.68,1.72-6,3.78-11.89,5.81-17.71,2.34-6.7,3.08-6.44-3.52-9.6a8.8,8.8,0,0,1-2.24,4.92c-4.71,4.47-6.25,10.52-7.76,16.42-1.91,7.42-1.16,15.52-5.89,22.23-.44.63-.13,2,.17,2.88.83,2.46.56,5,.38,7.43-.61,8.41-1.21,16.85-2.29,25.21-.85,6.53-2.37,13-3.7,19.42-.24,1.2-.56,3.08-2.24,2.73-1.32-.28-1.89-2.1-1.46-3.33,1.46-4.16.27-8.16-.17-12.25-1.58-14.55-1.4-29.17-.72-43.74.2-4.43-2-9.37.47-13.16,3.52-5.37,4-11.62,5.28-17.3a177.46,177.46,0,0,1,5.14-19c.91-2.63.1-4.53-1.18-6.43-.69-1-1.61-2.48-3-2.29-1.61.22-1.32,2.07-1.73,3.22s-.16,2.73-.73,3.85A48.14,48.14,0,0,0,296.51,191a11,11,0,0,1-2.62,7.71c-3.24,3.8-4.79,8.31-3.51,13.45.3,1.23.58,3.31-1.27,2.77-4-1.18-3.32,1.42-3.29,3.46,0,2.71-.85,5.27-1.09,7.87-.47,5.11-2.82,9.67-3.72,14.69a51,51,0,0,1-5.19,15.85c-.62,1.12-1.25,2.65-2.87,2.36-1.87-.33-1.62-2.26-2-3.56-.75-2.58,1.41-4.71,1.3-7.27-.51-11.67,2.62-23,4.08-34.4,1.88-14.7,2.38-29.6,5.94-44.07,1.18-4.76.82-9.83,3.51-14.33,1.58-2.65,1.2-6-.21-8.69-1.08-2-2.52-5.83-5.55-.71-.95,1.61-1.62,3.26-2.44,4.91-1.77,3.61.51,7.45-.42,10.69s-3.36,6.05-4.11,9.59c-.48,2.22,1.4,4.1.46,6.32-3,7.12-2.12,14.74-2.1,22.12,0,3.29-3,5.24-2.07,8.76,1.61,6,2,12.13-.73,18a6.11,6.11,0,0,0-.14,3.36,71.32,71.32,0,0,1-1.79,24c-.95,3.63-1.57,9.22.81,10.26,4.94,2.16,2.21,4.27,1.15,6.28-2.42,4.58-3.41,9.65-5.4,14.37a3,3,0,0,0,.72,3.68c1.55,1.16,1.75-.81,2.62-1.29,3.77-2.06,5.2-6.15,7-9.41,6.16-11,9.16-23.27,12.12-35.44.79-3.25,2-4.08,4.72-2,.67-1.88-.14-3.68,1.35-5.66,2.44,13.23.94,26.18,2.76,39,1.18,8.24,2.44,17.1-.45,25.61-.77,2.29.67,2.71,2.85,2C301.14,299.72,300.48,296.08,301,292.78ZM263.11,90.16c.74,8.11,7.93,11.5,10.85,17.74,1.54,3.3,3.25,6.52,4.72,9.84,1.08,2.43,3.14,3.94,5.41,3.68s3.59.86,5.38,1.53c3.56,1.35,5.42,5.09,8.06,6.42,6.23,3.15,7.84,8.76,10.59,14,1.7,3.24,5.22,4.69,8.09,6.37s2.25-3.34,5.2-4.19c-.9,6.22,4.8,6.75,7.92,9.6,1.91,1.75,2.76.44,3.29-1.55.84-3.13.31-6.29.41-9.43.12-3.57,1-6.29,5.38-6,1.36.1,3-.08,3.15-1.71a3,3,0,0,0-2.72-3.1c-5.19-.81-4.5-4-2.95-7.26,1.8-3.85,1.13-7.37-.84-10.84-1.22-2.15-2.76-4.08-3.43-6.56-1.94-7.18-4.16-14.27-6-21.47-1-4-1.27-8.11-2.35-12.05-1.39-5.08-3.36-5.71-6.48-1.67C311,81.05,304,87.46,297.71,94.45c-4.18,4.63-9.74,8.76-9.18,16.27.07.92-.74,2.45-2.24,2.13a3.9,3.9,0,0,1-3.18-4.45c.5-7-3-11.69-9.08-13.66C270.16,93.49,267.76,88.42,263.11,90.16Zm-11.61,701c1.95-5.76-2.55-11.42-3.45-17.76-2.12-14.89-3.64-29.87-7.09-44.56-.87-3.66-1.94-7.27-2.11-11.18-.3-6.9-4.7-11.78-10-12.86-2.78-.56-4.21.89-3.77,3,1.19,5.81,0,12,3.21,17.48a9.5,9.5,0,0,1,.73,8.09c-1.45,4.86-2,9.94-5.15,14.26-1.39,1.94-1.17,4.59-.58,6.81.79,3,.68,5.93.76,8.92.46,18.72-.89,37.44,0,56.16.26,5.82.06,11.65,0,17.48,0,1.38.11,3,1.28,3.61,1.64.82,2.94-.7,3.62-1.87,3.26-5.55,9-9.25,11.18-15.65a23.61,23.61,0,0,1,4.06-7.39C249.83,808.84,251.86,800.94,251.5,791.14ZM238.59,250c-1.17-1.77.19-3.79-1.27-5.31-6.55-6.82-8-15.11-7.09-24.2.34-3.41.49-7.16-.56-10.32-3.08-9.28-.42-18.48-.29-27.68.07-5.39,4.45-10.67.31-16.2-.18-.25.06-1,.34-1.38,1.88-2.34,1.53-5.38,2.46-7.85,1.57-4.14,2.69-9,6.35-11.79,2.39-1.81,1.57-3.2.56-4.41-1.22-1.45-.09-4.87-3.27-4.46-2.36.3-4.72.93-4.77,4.37-.11,7-3,13.52-4.2,20.34-1.89,10.86-6.73,21.53-2.42,32.87a5.08,5.08,0,0,1-.06,2c-.52,7.32-2.36,14.42-.8,22,2.3,11.2,1.3,23.07,6.67,33.66,1.42,2.8,0,6.18,1.84,8.85,2.33-.74,1.43-4.45,4.67-4.08-.35,6.48-4.41,11.24-7.21,16.51-.92,1.74-2.75,3.48-1.11,5.36s3.71.14,5.5-.49c.72-.25,1.24-1.06,1.86-1.6,1.76-1.51,3-2.77,5,.33,1.1,1.65,3,4.43,5.25,4.46,2.69.05,5.51-1.18,8.09-2.3a4.24,4.24,0,0,0,2.42-4.54,8.86,8.86,0,0,0-3.67-5.05c-1.65-1-2.76-.2-3.64,1.34-.46.81-1.32,1.91-2.29.79s-3.59-1-3.32-3.74a33.38,33.38,0,0,1,1.86-8.11c1.12-3.09,4-5.27,4.18-8.81s1.24-7.24,1.14-10.84c-.15-5.63,3.54-10,4.19-15.54.8-6.79,1.17-14,3.42-20.37,3-8.62,1.08-16.61-.29-24.82-1.08-6.49-3.07-12.89-2.53-19.54.2-2.5-.58-4.5-1.35-6.65-4.3-12-10-23.89-5.75-37.24.69-2.13-.94-2.83-1.82-4.15-1.21-1.83-2.11-1-3.11-.05s-1.74.14-2.81-.24c-3.72-1.31-6.26-3.89-8.89-7.39-1.76,3.75-.24,6.64.75,9.46,2.48,7.07,5.33,14,7.64,21.12,3.56,11,7.13,21.87,9.59,33.21,2.07,9.58,1.67,19.05,1.5,28.53-.17,9.93-2.74,19.68-3.8,29.6-.65,6.15-2.7,12.23-4.74,18.13C242.36,245.93,241.45,248.81,238.59,250ZM87.1,202.39c.84,6.05-2.78,12.38,4.19,17.14,2.61,1.78,5.3,1.78,7.65,1.9,2,.1,1.6-3.39,1.89-5.49,1-7.42-5.87-10.67-9.13-15.22s-3.8-8.33-3.77-13.05c0-4,.14-8,0-12a3,3,0,0,0-2.29-3c-1-.21-1.37.49-1.66,1.39-1.76,5.47-4.21,10.77-4,16.72.07,2.63-.44,5.37,3.24,6.32a1.74,1.74,0,0,1,.71,3.14c-4.24,3.43-5.39,9.26-10.09,12.42-2.4,1.61-2,4.94.41,5.61,2.84.78,2.5,2.52,3,4.25,3.54,13.15-1.22,26.22-.4,39.34.72,11.37-2.79,22.64-1.54,33.88.78,7,.6,14.71,5,21,.59.84.68,2.55,2.39,1.7,4.51-2.26,9,.68,13.63,0,5.27-.74,11.79-4.49,13-9.54,1.44-6.1.95-12.31.54-18.38-.49-7.13,2.43-15.21-4.52-21a1,1,0,0,1-.23-.93c2-4.51-1.75-7.76-2.54-11.65-.7-3.4-1.69-6.74-2.7-10.06-.78-2.61-3.35-3.53-5.29-5-.65-.48-1.63.3-2,1.11-1.83,4.65-3.68,9.28-2.06,14.48.92,2.95,1.91,4.42,4.24,1.08.73-1.06,1.68-1.85,2.89-1.51,1.71.48,1.19,2.11,1.32,3.38.43,4,1.27,7.94,2.08,11.77A79.47,79.47,0,0,1,102.2,293c-.21,4.36,2,9.49-3.73,12.7-2.25,1.25-8.21,2.14-9.68-.49-3.3-5.91-6.44-11.89-6.82-18.94-.15-2.76,1.17-5.09,1.18-7.82,0-12.51-1.31-25-.13-37.53.9-9.47,1.22-19,2.06-28.46C85.37,209,86.4,205.73,87.1,202.39Zm9.57,381.75c2.35-2.42,3.63-4.49,1.62-7.25-.9-1.23-1.05-2.77,0-3.67,5.14-4.44,4.93-11.52,8.52-16.73,2.23-3.23,2-6.93-1-9.45s-2.93-7.8-9.17-8.48c-5.26-.58-5.37-13.1,0-16.12,3.51-2,6.41-4.62,9.65-6.86,1.22-.84,3.71-.72,3.19-3s-2.55-2.54-4.76-2.29c-1.43.17-2.9.08-4.38.2-4.66.37-10.14-2.81-9.75-6.14.69-5.86-4.84-10.55-2.5-16.52a2.1,2.1,0,0,0-3.79-1.7c-1.36,2.9-3.75,6.12-2.79,9,1.33,4-1,5.43-3.08,7.49-2.42,2.38-6,2.35-8.69,4.34-1.7,1.26-3.12.12-2.66-2.33.31-1.67.3-4.25-1.37-4.25-3,0-5.32,2.49-7.22,4.51-1.17,1.25.7,3.2,2.26,4.34,4.07,3,7.79,6.09,5.86,12a3.83,3.83,0,0,0,.7,3.33c2,2.89.52,5.18-1.74,6.62-2.6,1.64-3.2,3.33-1.36,5.64,2,2.54,4.24,1.65,5.8-.44,1.77-2.38,3.61-2.66,6-1.2a4,4,0,0,0,3.79.1c1.45-.54,3.22-.55,4,1,2.49,4.48,6.42,7.52,10.06,10.93,2.15,2,1.68,6.82,0,7.07-6.11.92-3.48,6-5.22,8.81s1.13,5.5-.28,8.17A39.47,39.47,0,0,0,84,590.3c0,3.34.15,6.81-1.2,9.85-1.57,3.55-1.34,7-1.14,10.19,4.26.73,4.75-2.24,5.28-4.84a28.14,28.14,0,0,1,2.34-7.58A16.13,16.13,0,0,0,91,586.4a13.58,13.58,0,0,1,1.47-10.59c.58-.89,1.16-1.7,2.33-1.34,1,.32.85,1.3.93,2.11C96,578.85,95.3,581.2,96.67,584.14Zm92.85,141c-.83-.1-2.3-.69-3.59.51-4.9,4.56-4.9,4.56-8.73-.21-2.78-3.46-5.67-3.3-7.74.6A14,14,0,0,0,168,731.8c-.62,8.93,2.34,17.36,3.73,26,1.08,6.73,4.26,13.09,2.21,20.22-2.37,8.26-.31,16.39,1.37,24.46.23,1.15.23,3.24,1.79,3.13,1.25-.08,2.62-1.35,3.52-2.43.67-.81.68-2.17,1-3.29.48-1.75.73-3.92,3.16-3.78s2.29,2.43,2.4,4.19-.15,3.7.13,5.49c.36,2.36,1.28,4.75,4,5.08,3.87.48,7.72.23,10.42-3.23a10.4,10.4,0,0,1,5.44-4.12c4.22-1.11,5.62-4.27,5.85-8.12A43,43,0,0,0,211.84,783c-1.77-7.65-2.51-8.64-9.43-5.65-6.35,2.75-12.13,1.19-17.86-.87-3.21-1.15-4.92-4.51-2.84-7.64s1.51-7.09,3.37-10.25a1.63,1.63,0,0,0-.77-2.51c-4.35-1.7-4.33-5.57-4.3-9.15C180.09,738.39,186.59,732.74,189.52,725.16Zm-7.77-592.68c-.84.67-1.38.88-1.53,1.26-2.21,5.71-7.66,6.73-12.28,2.32-1.35-1.28-1.81-1.78-1.38-4.36.94-5.66.11-11.78-1.85-18.71-4.94,8.16-1.57,16.49-4.45,23.88-1.17,3-2.14,5.56-4.53,7.55s-5,3-7.34,4.94c-1.48,1.25-4.94,2.86-6.92-.64-2.08,9.5-.56,16,4.58,18.7.22-4.14,2.81-6,6.49-6.7a2.07,2.07,0,0,0,1.56-.93c2.46-3.63,5.59-2.21,8.36-.74,3.32,1.76,3.21,5.27,2,7.91-1.31,2.92-1.13,5.77-1.5,8.7a66.05,66.05,0,0,0-.15,17.82c1,7.09-3.36,14.4,1,21.43.83,1.33.08,3.34-1,4.68a5.28,5.28,0,0,0-1.31,3.65c.06,14.26-2.71,28.43-1.58,42.73.1,1.16-.06,2.35.07,3.5.18,1.56.76,3.08,2.55,3.22,1.58.12,2.24-1.35,2.7-2.56a14.12,14.12,0,0,0,.54-3.4c1-8.05,2.63-16,3.8-24,1-6.77-1.41-13.25.22-19.8.14-.58-.79-1.38-1.13-2.12-1.14-2.5-3.38-5.14,1.21-6.72,1.52-.53.81-2,.48-3-2.11-6.59-2.8-13.11.26-19.66a3.1,3.1,0,0,0-.39-2.81c-3.37-3.42-2-8-2.77-11.9s2.47-6.61,6.42-6.73c1.2,0,3.14.59,3.14-1.37,0-1.74.16-4.19-1.37-5.09-1.86-1.1-1.77,1.8-3,2.5-.77.45-.86,1.87-2.26,1.68-3-3.95-.53-8.18-.34-12.24.24-5.23,5.12-6.58,8.79-8.51s4.9-4.61,3.89-8.56C182.32,136.64,182.15,134.85,181.75,132.48Zm14.74,625.43c2.07.35,3.41,0,4.3-1.06,8.11-9.29,13.74-19.75,15-32.24.61-6,1.83-11.75,7-15.75,1.74-1.36,1.72-2.25-.57-3-5-1.51-9.38-3.93-12.4-8.47-1.26-1.9-3.49-1.74-5.5-1.45-6.62.94-8.44-1.35-6.4-8.12,1.35-4.5.08-6.41-4.54-6.61-.82,0-1.62.42-2.08-.61a1.78,1.78,0,0,1,.48-2.27c7.31-3.83,8.11-9.85,8.12-17.6,0-6.11,2.3-12.58,4.37-18.73,1.33-3.93,2.67-8.29-.92-12.2.05,6.58-3.65,12.38-3.42,19a6.69,6.69,0,0,1-4.5,7c-3.19,1.14-4.2,3.6-4.61,6.47-1.7,11.9-4,23.62-8.61,34.8-2.23,5.37-.47,8.29,5,9.21,1.63.27,3.3.29,4.91.65s2.73.87,2.76,2.91a47.14,47.14,0,0,0,3.39,17.41c1.89,4.63,3.87,9.48,3.29,14.9S198,752.4,196.49,757.91ZM191.86,323.8c.62,2.07.22,3.76,1.71,5.64,3.66,4.59,9.22,4.1,13.73,6.22,1.82.85,3.71-2.16,2-3.44-3.17-2.43-3.33-6.41-6-9.05s-2.09-8.87,1-10.45c5.15-2.65,6.3-8.64,10.67-11.85a1.66,1.66,0,0,0,0-2.64c-.84-.78-1.92-.94-2.61,0-3.13,4.48-8,2.2-12,3-3,.58-7.56-5.25-7.1-8,.81-5-1.8-9.91-6.8-12.54,0,2.23,0,4.35,0,6.47,0,4.17.27,8.38-2.78,11.84-.84,1-1.26,2.4-3.07,1.86-3.12-.94-6.84.69-9.52-2.36-.86-1-2-.21-2.51.63-2.42,3.82-5.1,7.23-11,7,2.25,1.89,3.91,1,5.26,1.55,3.76,1.44,9.14,1.52,9.81,6.38.57,4.17,2.33,5.83,6.41,6.41-2,2.6-.76,7-2.93,7.86-5.5,2.17-2.44,5.49-2.12,8.52.16,1.45,1.76,1.69,2,1,1.11-2.92,5.66-2,6-5.79.12-1.46,2.31-2.42,3.47-2,4.48,1.44,5,0,3.7-4C188.86,325,190.2,324.08,191.86,323.8Zm150.3-11.66c-3.37,1.71-5,1.8-8.21.26-.9-.43-1.7-.51-2.22.07-2.26,2.51-5.06-1.17-7.53.83-1.14.91-1.37.4-2.89-6.72a10.07,10.07,0,0,1,1.07-7.59c1.68-2.83,3-7.34,2-8.83-2.59-3.67-.49-5.65.41-8.76,2.95-10.16,3-20.91,7.21-31,3.16-7.5,4-16,6.12-23.94,1.29-4.89,2.2-10.14,4.69-14.41,3.53-6.09,4.2-7.91.46-13.66-.88-1.34-1.78-3.49-3.39-3.06a5.1,5.1,0,0,0-2.84,3.76c-.32,5-2.64,9.47-3.65,14.16-2.19,10.27-3.59,20.72-6,31-2.86,12.4-5.67,24.81-6.66,37.56-.27,3.56-2.19,6.11-6.09,5.61.36,5.5,3.32,10.16,4.89,16.29-2.92-2.36-5.27-3.53-6.83-5.74s-1.06-5.42-3.38-7.74c-1.81,7.33-2.29,14,2.06,20.38,1.53,2.25,3,5.77.9,7.89-2.36,2.37-1.43,4.57-1.48,7a29.46,29.46,0,0,1-.61,6.92,5.49,5.49,0,0,0,1.64,6.2c.55-4.43,1.46-8.14,1.73-11.65.29-3.88,3.41-7.46,4.76-7.3,3.48.43,8.29,0,9.85,5.15.54,1.81,2.48,3.17,3.15,5,1.38,3.72,4.8.09,6.87,2.14.69.67,1.23-2.11,1.92-3.25C343.19,323.57,342,318.06,342.16,312.14ZM117.59,406.93c0,3.79-4.5,5.91-4.23,8.47.55,5.22-4.7,8.05-5.91,7.93-5.66-.55-3.71,3.58-4.36,5.82-1.54,5.33,0,11.42-5.54,15.76-2.48,1.93-3.77,3.26-6.28.66-1.16,3.24,2,5.75.46,8.59-1.51,0-1.8-2.19-3.33-1.84-2.16.49-6.77,7.31-6.81,9.89,0,1.58.36,3.19,1.67,4,1.57.94,2.74-.49,3.86-1.41A38.73,38.73,0,0,1,117.24,457c.4.06,1.18-.17,1.26-.43.71-2.37,3.24-2.27,4.72-3.57,1.88-1.63,2.32-3.55,2.63-6.06.49-3.84-4.35-2.28-4.44-5.59-.09-3.5,4.28-4.15,3.75-8-.46-3.36-.34-7.25,2.49-10.19.78-.81.39-1.94-.37-2.71-3.11-3.12-3-7.16-3.24-11.1-.12-2.1.09-4.3-3-4.75a28.05,28.05,0,0,0,.67,10.85C120.09,412.1,118.84,409.51,117.59,406.93Zm59.14,257.14c-1.89-8.35.47-18.52-8.85-25.09-2.57-1.81-3.3-2.14-4.79.76-4.63,9-7,18.89-10.88,28.16-2.23,5.24-4.51,10.5-4.94,16.43-.4,5.58,0,6.52,5.47,6.64a82.35,82.35,0,0,0,16.82-.92c2.05-.38,4.57,2.33,6.17-.93a11.22,11.22,0,0,0,1.46-6.71A62.79,62.79,0,0,1,176.73,664.07ZM139.52,286.91a3.53,3.53,0,0,0,2-3.37A347,347,0,0,0,143,244.33c-.42-13.15-1.62-26.27-2.14-39.42A281.9,281.9,0,0,0,137.6,175c-.89-6,1.9-11.84-.39-17.69-2.44-6.18-1.21-13.11-4-19.33-1.55-3.5-2.54-2-4-.33-1.82,2.16-1.89,4.78-2.1,7.45-.42,5.54,2.93,11.17,1.45,16.14-2,6.74.94,12.59,1.09,18.85.21,8.55,3.67,16.75,3.55,25.53,0,3-.69,6.24.28,9.09,3.28,9.58,3.63,19.42,3.77,29.4s1.21,19.83,1.61,29.75C139.09,278,138.32,282.25,139.52,286.91ZM132.28,427.7a11.37,11.37,0,0,0,.51-6.64c-.85-4.06-1.4-8.22-2.66-12.14-1.16-3.62,2.34-3.39,3.42-3.82,1.64-.65,1.21,1.69,1.38,2.87.5,3.42,1.47,6.61,3.93,9.29,3.56-4.09.42-8.56,1.65-13.37.38,3,2.13,4.95,1.67,7.38-1.3,6.89,4.29,2.55,6.37,3.57,2.31,1.12,1.2-1.94,1.37-3,.29-1.9,1.25-3.31,2.85-3.71,2.09-.51.54,2.3,2.23,2.79,0-2.24,0-4.39,0-6.54,0-1,.16-2.14,1.5-2.16,5.34-.1,7.61-2.94,7.52-8.08,0-.91-.43-2,.74-2.79,1.31-1.46-.16,3.17,2.6,1,6.48-5,8.22-8.58,5.63-16-.25-.7-6.12-2.41-6.09-2,.19,3.64-4.9,3.64-4.19,7.88-3.72-4.61-3.72-4.61-7,1.79-1.76-.66.35-3.39-2.59-3.9,1.8,5.59-3.28,6.61-5.87,9.43-1.27-.65-.32-2.75-2.24-3.14-1.66,1.55-1.37,5.46-5.13,4.88.7,4.6-5.13,2.94-5.89,6.14-3.06-1.1-4.1,1.17-5.05,3.76l-2.47-4.49C123.25,407.75,127.16,417.21,132.28,427.7Zm53.79,387.36c-5.11-.16-9.34-1-10.08,4.6A31.47,31.47,0,0,0,179.16,839c.37.69,1.28,1.82,1.54,1.72,4.57-1.79,6.48,2.4,9.33,4.18,5,3.14,5.45,2.89,9.18-1.51,2.37-2.79,2.74-7.1,7.13-8.48,4.59-1.44,6.4-5.29,6.76-10,.27-3.43-.84-5-4.22-6.51C201.05,814.84,193.16,813.63,186.07,815.06ZM44.53,234.18c-.27,7.19-1.38,14.34.52,21.43.83,3.09,1,5.72-1.77,8.1a4.43,4.43,0,0,0-1.12,5.34c2-.92,2.54-4,5-2.93,2,.91,2.27,3.26,2.55,5.13.79,5.22,3.56,9.76,4.51,15,1,5.44,2,11.16,4.09,16.17,3.51,8.26,4.56,17.08,7.11,25.53,2.14,7.05,3.45,14.42,6,21.44.26.73.09,1.79,1.26,1.82s1.39-.88,1.55-1.66c.83-4.06,3.31-8.3-1.16-11.86a4,4,0,0,1-1.47-3.54c.49-7.62-2.68-14.51-4.21-21.73-1.3-6.14-3.85-12-4.83-18.07a212.19,212.19,0,0,0-6.43-29.3c-2.55-8.18-6.26-16-8-24.43A10.42,10.42,0,0,0,44.53,234.18ZM179,861.75c1.58,16.33,2.4,16.75,16,17.34a4.07,4.07,0,0,1,.49,0c3.41.63,5.6-.62,7.18-3.8,2.56-5.19,3.36-10.74,3.83-16.36.32-3.8-1.53-6.18-5.31-7.35a29.64,29.64,0,0,0-11.67-.84C180.86,851.55,179,853.34,179,861.75ZM357.21,165.36V153.42c0-.17,0-.34,0-.5-.09-1.29.24-2.7-1.18-3.56-2.55-1.55-11.48.42-13.76,2.57-7.49,7.07-7.48,15.55-5.16,24.61,1,3.76,3.08,5.62,7.11,5.31,2.81-.21,5.64-.08,8.46,0,3.09.05,4.59-1.37,4.54-4.51C357.16,173.33,357.21,169.35,357.21,165.36ZM28.31,260.23c-1,4.42-2.54,8.08-2.38,11.66.32,7.11.35,14.5,6.17,20.14,1.5,1.46,2.1,3.78,2.84,6,1.26,3.67.63,7.55,2.25,11.07,2.68,5.85,5.16,11.79,7.66,17.71.39.93.52,2.2,1.77,1.87,1-.25,1.3-1.4,1.41-2.46.35-3.22-.94-6.21-1.28-9.32-1.22-11-5.88-21.09-7.87-31.88-.56-3-1.63-7.9-2.74-8.57-4.88-2.92-3.11-8-5.2-11.69C30.32,263.64,30.42,262.14,28.31,260.23Zm178.22,420c0,3.19-.13,5.52,0,7.82s1.48,4,4.12,4c4.79,0,9.62,2.22,14.37-.87,1.79-1.17,3.74.58,5.41,1.66,1.33.86,2.41,3.45,4.34.91s1.16-5.49-1.16-6.38c-5-1.93-8-5.92-11-9.6-2.79-3.42-6.27-5.17-9.81-7.11-2.83-1.56-4.89-1.24-5.75,2.59C206.43,675.93,206.71,678.53,206.53,680.27Zm30-612.12c1.72,3.38,1.86,8.27,5.32,9.73,4.24,1.79,5.65,5,7.51,8.41.56,1,1,2.9,2.69,2.33a4.06,4.06,0,0,0,2.92-3.68,4.58,4.58,0,0,0-1.69-4.42,43.28,43.28,0,0,1-10.71-11.33C241.37,67.36,239,66.86,236.5,68.15ZM383.9,48c.42,2.63-.35,6.38,3.21,6.41,3,0,3.74-3.19,3.74-6,0-4.48-.42-9,.58-13.43.27-1.18.52-2.85-1.46-3.11-1.62-.21-2.39.79-2.8,2.24A89.4,89.4,0,0,0,383.9,48ZM518.52,322.47c-3,4.61-5.75,7.83-11.11,6.63-1.83-.42-2.78,1.81-3,3.28s1.42,1.32,2.53,1.57c3.2.72,6.34,1.71,9.56,2.28,2.67.47,5.56-2.82,4.08-4.66C518.49,329,519.35,326.23,518.52,322.47ZM257.49,752c2.57-2.3,4.61-12.93,3.2-15.24-.34-.54-.64-.53-1.09-.21-2.3,1.65-2.69-.64-3.67-1.76-.63-.73-1.37-1.8-2.41-1.11s-.51,1.74-.17,2.71c1.25,3.54,4.18,6.5,3.29,10.8C256.35,748.65,257.15,750.3,257.49,752ZM185.61,110.31c2.33-5.79,1.07-10.7.78-15.58a3.38,3.38,0,0,0-2.7-3.18c-1-.23-1.37.77-1.41,1.6C182.05,98.86,182.05,104.53,185.61,110.31ZM303.94,295.43c-6.19,7.66-3.59,14.11-1.05,20.57C303.22,309.61,303.54,303.21,303.94,295.43Zm-144,299.23c.17,1.69-.58,4.44,1.73,4.45,3.09,0,3.26-3.36,3.7-5.56.36-1.76-1.08-4.09-2.89-3.92C159.88,589.87,160,592.52,159.94,594.66ZM475.15,170.49c-1.23-4.18-3.2-7-3.13-10.46a1,1,0,0,0-1.78-.5c-1.19,1.83-3.21,3.78-.85,6.08C470.92,167.1,472.64,168.38,475.15,170.49ZM139.07,451.88c.08-2.86-1.47-2.75-3-2.82-2.26-.09-3.94.51-4,3.13,0,1.36.72,2.43,2.11,1.87C135.92,453.36,138.64,454.19,139.07,451.88Zm321,67.9c-.08-1.47.28-3.06-.33-4-.83-1.22-2.22-2.53-3.95-2.27-.8.11-2,1.09-2.08,1.77-.14,1.44,1.36,2.06,2.42,2.69S458,519.93,460.09,519.78Zm38-181.56c1.44-.23,4,.62,3.78-1.76-.26-2.63-3.15-2-5.11-2.44-1.57-.34-2.48-.28-2.5,1.75C494.27,338.78,496.37,338.11,498.13,338.22ZM426.32,493.09c2-.54,2.63-2.21,2.62-4.07,0-1.59-1.08-3.1-2.68-2.81a3.05,3.05,0,0,0-2.39,3.74C424.09,491.44,424.09,493,426.32,493.09ZM349.15,781.9c2.27.12,3.7-1.58,3.77-4.19.05-1.74-1.12-1.17-2-1.29-3-.4-2.68,2.78-4,4.11C345.91,781.55,348.05,781.84,349.15,781.9ZM449.92,145.48c1-3,2.53-6,.64-9.62C448.77,139.32,448.53,142.37,449.92,145.48Zm36.66,189.46c-.18-4.35,2.18-8.7-.27-12.92C486,326.35,485.2,330.68,486.58,334.94Z" transform="translate(-0.9 -0.91)"/><path d="M835,895c2.4-6.46,5-12.75,4.17-20-.49-4.34,2.69-8,4.82-11.77a4.84,4.84,0,0,1,.88-.87c-4.64-1.52-3.54-6.22-4.47-9.31-3.33-11.09-11.34-19.35-16.58-29.23-1.18-2.24-2.32-4.31-2.36-6.93,0-1.29-.19-3-1-3.78-7.63-7.37-4.73-17.3-6.36-26-2.43-13.1-.26-26.7-2.8-39.65-2.14-10.9-.08-21.15,1.27-31.54.77-6-1.33-10.62-3-15.69-5.31,4.11-2.71,12.56-9.36,16.32,1-7.55,4.24-13.64,8.66-19.14a4.11,4.11,0,0,0,.85-4.08c-1.44-5.33-.56-10.5.84-15.7a76.92,76.92,0,0,0,1.9-31.09,18.42,18.42,0,0,1,1.65-11.65c2.32-4.33,3.68-8.89,3.14-13.87s-3.62-6.57-8.09-4.19c-2.89,1.55-5,4.88-8.53,4.75s-5.74,3.33-8.91,3.29c-1.92-8.62,2.06-16.95,1.14-25.1-1.35-11.87,3.16-21.89,6.6-32.49,1.08-3.34.53-7.25.49-10.9-.06-6.32,1-12.09,5.84-16.8,2.18-2.1,2.23-5.37,2.35-8.4.26-7-.34-13.91.69-20.92.83-5.71,3.37-10.32,6.34-14.9a51.35,51.35,0,0,0,6.5-13.85c1.47-5.18,4-10.07,6.09-15.07.17-.4,1-.64,1-1,.48-10.64,5.3-20.06,8.63-29.86,3.18-9.37,3.29-19.56,7.92-28.5a2.89,2.89,0,0,0,.36-.92c1.75-13.41,8.2-25.25,12.66-37.75,1-2.76,1.53-5.36.64-8.21-2.29-7.31-1.56-14.49-.07-22,2.37-12,1.32-24.22.56-36.31-.27-4.23.34-8.3.69-12.34.73-8.32-3.85-15.79-3-24,.43-3.95-.13-8,.82-11.92.66-2.82-.13-5.53-1.6-8.14-1.22-2.16-2-4.35-4.9-1.94a2.24,2.24,0,0,1-3.15,0c-.62-.74,0-2,0-2.76.29-6.22.33-12.52-1.47-18.59-.64-2.16-2.08-1.81-3.21-.23-1.35,1.85-.74,3.86-.08,5.73a25,25,0,0,1,.92,12.29c-.18,1.15,0,2.71-1.29,2.92-2,.32-1.81-1.84-2-2.83-1-5.22-.46-10.5-.42-15.8-.69,3.85-1.9,7.51-1.9,11.57,0,9.41-.57,18.82-.79,28.23-.06,2.76,1.24,5.37.32,8.32-1.49,4.76-3.56,6.4-8.36,6-2.31-.22-4.65-.08-7-.07-6.57.05-7.25.7-7.34,7.53-.07,5.83.07,11.67,0,17.5-.1,6.18-1.68,7.44-7.58,6.31-.49-.09-1-.28-1.46-.36-9.32-1.34-10.88,0-10.94,9.37,0,5.5.1,11,0,16.5s-2.37,7.44-7.61,7.47h-.5c-11.88,0-11.48.06-12.91,11.55-.54,4.4.35,8.51.21,12.75-.2,6.36-2.88,7.75-9.06,7.7-7.32-.06-14.68-1.1-22,.09-5.28.85-10.6-.33-15.84-.3-9.6.06-19.17-1.63-28.8-.31-5.77.79-7.56-1.05-7.64-6.85-.1-7.83-.15-15.67,0-23.5.07-3.41-1-5-4.57-4.61-2.47.26-5,.29-7.47.32-7.78.12-10.54-2.65-9.41-10.37a77.43,77.43,0,0,0,.6-12.43c-.06-4.11,1.82-5.6,5.78-5.61,18.21,0,15.59-.52,15.69,14.94,0,.67-.05,1.34,0,2,.28,3.29-1.52,8.28.81,9.48a19.37,19.37,0,0,0,12.53,1.34c4.6-1,9.1.39,13.79-.1,9.33-1,18.82-.41,28.25-.31,2.7,0,4.25-1.14,4.43-3.58a69.79,69.79,0,0,0-.39-16.84,4.76,4.76,0,0,0-2.23-3.25c4.41-3.35,9.64-3,14.78-2.75,3.93.17,7.37-.37,10.63-3,3.75-3,8.58-1.37,12.86-1.43,4.1-.06,5.71-1,5.46-5.25-.32-5.32-.11-10.67-.07-16,0-7.45,2.78-10.19,10.06-10.19,1.33,0,2.67,0,4,0,6.17.36,8.91-2.26,7.72-8.46-1.66-8.66.59-17.1.71-25.64.07-5.14.56-10.26-.27-15.4a23.48,23.48,0,0,1-.15-6.95c1.14-8.08,3.11-9.39,11.21-8.18a22.88,22.88,0,0,0,6,.13c3.36-.38,5.06-1.86,5-5.86-.06-9.37-.2-18.79,1.67-28.07.35-1.74.8-3.28,2.7-3.79s2.71,1.11,3.52,2.21a29.27,29.27,0,0,1,2.23,4.4c2,4,5.41,4.88,8.38,1.71,3.84-4.07,6.51-9,5.36-14.8A16.16,16.16,0,0,1,863.33,155c2.59-4.13,2.44-7.83-.86-11.74-4.13-4.9-2.41-10.47-.26-15.53a33.29,33.29,0,0,0,.87-25.16,31.08,31.08,0,0,0-7-10.61c-1.29-1.37-2.69-3.08-2.51-4.38,1-7.26-2.85-14.47-.41-21.57a72,72,0,0,0,4.19-19.3,3.69,3.69,0,0,1,1.08-2.17c3.9-3.87,2.6-7.88.25-11.78-.91-1.5-1.9-3.09-1.31-4.64,2.75-7.27,1.16-14.8,1.68-22.2A39.17,39.17,0,0,1,860,1h9V397c-2.27,4.38-5.21,8.5-5.82,13.54-.74,6.08-1.08,12.15-3,18.1-.95,2.91-1.21,6.74,2.77,8.67,1.87.91.87,2.07.21,3.26s-1.37,2.77-2.9,1.55c-3.13-2.47-4.16-.23-5,2.06a191.74,191.74,0,0,0-8,32.46c-.13.78.09,1.78-.31,2.36-4.43,6.39-5.56,13.61-5.42,21.14a16.51,16.51,0,0,1-1.35,6.77,131.08,131.08,0,0,0-8.59,30.53c-.4,2.58.36,5.15-.76,7.82-1.94,4.63.1,10.62,4.82,11.21,5.33.67,9.19,2.69,13.42,5.54,1.62,1.1,3.33,1.82,4.54,3.58,1.09,1.6,2.86,4.26,4.48,3.23,5.22-3.31,7.62,1.09,10.92,3.18q0,159.5.1,319c0,3.42-.66,4.21-4.1,4.1C855,894.81,845,895,835,895Z" transform="translate(-0.9 -0.91)"/><path d="M639,1c-.18,7.5-2.1,14.78-3.85,21.93-3.52,14.43-5.36,29.24-9.52,43.48-4.83,16.52-7.65,33.51-12.31,50.06-2,7.27-3.7,14.65-5.81,23.07-2.17-6-1.07-11.26.08-15.86,3.22-12.82,4.75-25.95,8.1-38.74,4.4-16.79,7.78-33.87,12.06-50.67,2.83-11.1,5-22.52,9.25-33.27Z" transform="translate(-0.9 -0.91)"/><path d="M440,895a14.83,14.83,0,0,1-.16-8.35c1.29-5.95,2-11.77-1.77-17.22a3.87,3.87,0,0,1-.65-2.86c2.87-8.8-3.38-16.16-3.74-24.46-.21-4.88,2.42-9.75-.5-14.67-2.24-3.78-1.81-7.61,1.81-10.77,6.81,5.56,7.91,12.81,5.7,20.72-1,3.45.64,6.11,1.41,9,2,7.69.34,15.79,2.7,23.41,1,3.32.77,7.18,4.41,9.42,1.43.87,1,2.85.48,4.15-1.51,4-2.18,7.79.31,11.59Z" transform="translate(-0.9 -0.91)"/><path d="M387,895c3.75-6.11,2.86-13.13,3.74-19.76a230.81,230.81,0,0,1,7-34.89c2.53-8.64,2.58-17.7,2.14-26.66-.17-3.48.9-6.52,2.1-9.61.28-.73.36-1.83,1.43-1.75,1.29.08,1.46,1.27,1.42,2.22-.3,7.07-.22,14.23-2.29,21.07a17.48,17.48,0,0,0-1,5.77c.38,9-1.7,17.71-2.9,26.51-.41,3-.23,6-.58,8.9-1.11,9.43-1.61,19-4,28.2Z" transform="translate(-0.9 -0.91)"/><path d="M519,895a185.77,185.77,0,0,0-9.35-16.12c-3.81-5.67-7-11.86-10.36-17.91a205.66,205.66,0,0,1-9.48-18.89c-2.43-5.7-5-11.32-7.74-16.86-.93-1.86-.6-3.82.08-7,1.93,3.42,3.76,5.74,4.63,8.38,3.83,11.6,10.43,21.63,17.3,31.56,5.19,7.49,8.85,15.85,13.16,23.85,2.39,4.44,6,8.12,7.76,13Z" transform="translate(-0.9 -0.91)"/><path d="M869,477c-1.52-.26-3-1.53-4.51.29a2,2,0,0,1-3.1.32c-.79-.75-1.67-1.81-1.18-3s1.85-2.45,3.07-2.19c5.36,1.16,4.55-2.71,4.75-5.62.24-3.44-1.15-5-5-5-4.43.1-4-3.57-3.68-6.43.27-2.45.86-5.24,4.57-2.92,2.83,1.78,3.64-1.06,5-2.45Z" transform="translate(-0.9 -0.91)"/><path d="M586.16,301.78c6.45,3.47,11.79,4.86,17.85,1.81,7.33-3.7,11.34-13,8.29-20.61-1.2-3-2.86-1.77-4.22-.69a11.07,11.07,0,0,1-8.28,2.61c-1.08-.1-2-.43-2.15-1.62-.13-.86,0-1.86,1-2,2.81-.51,4.35-3,6.69-4.12,2.72-1.27,5.18-2.15,8.6.06,3.85,2.5,8.56-.61,12.89-1.12,1.24-.15,1.28-2.47,1.27-4,0-6,.08-12-.05-18A20,20,0,0,1,630.39,244c1.66-3.1,3-6.92,7.37-2.66a2,2,0,0,0,2.71-.25c3.21-2.73,3.46-11.28.51-14.36-1-1-1,.15-1.42.32-1.5.62-2.32.05-2.29-1.47.11-4,5.19-1.7,6.1-4.74,1.43,1.15,2.9,2.31,2.32,4.48-.3,1.11-.77,2.17-1.11,3.27a9.86,9.86,0,0,0,.66,7.5c3.25,7.25,5.65,15,4.55,23.08A115.82,115.82,0,0,0,649,275c0,3.6-1.48,5.19-5.11,5-3-.16-6,.26-9-.1-4.45-.55-5.1,2.15-5,5.39.15,5.14.49,10.29.88,15.42.24,3.23-.29,6.36-3.42,7.61s-6.57,1.46-9.83-1c-4.08-3.08-7.93,0-10.59,2.29C601,314.77,590.5,311.54,586.16,301.78Z" transform="translate(-0.9 -0.91)"/><path d="M669,293.14q0,5.91,0,11.82c0,2.53-1.17,3.48-3.75,3.36-3.8-.17-7.63-.12-11.43.05-3.13.14-3.68-2-3.74-4.18-.18-5.76-.19-11.54,0-17.31.11-4,1.78-6.44,6.5-6a25.09,25.09,0,0,0,9.4-.42c2.86-.83,2.85,1.65,3,3.29C669.11,286.86,669,290,669,293.14Z" transform="translate(-0.9 -0.91)"/><path d="M722,186c9.53,0,9.44,0,8.86,9.39-.26,4.3-.08,8.62-.11,12.94,0,2.2-.81,3.15-3.35,3-15.08-.78-15.09-.71-15.16-15.84a4.37,4.37,0,0,1,0-1.49c.84-2.42-2.61-4.94-.42-6.9,2.35-2.1,5.73-.92,8.67-1.11C721,185.92,721.49,186,722,186Z" transform="translate(-0.9 -0.91)"/><path d="M730.92,255.1c-1.42,5.29-.91,10.63-1,16,0,3.79-3.16,4-4.44,2.28-2-2.72-3.2-1.31-4.83-.41-1.88,1-3.51,1.51-5.38-.31s-3-3.57-1.93-6.14c1.8-4.44,1.81-9,1.3-13.7-.47-4.28,3.14-3.71,5.45-3.44a19.12,19.12,0,0,0,6.67.08C731.49,248.43,729.86,252.86,730.92,255.1Z" transform="translate(-0.9 -0.91)"/><path d="M592.89,228.81c2.87-8.42,4.5-16.85,3-25.72-1.18-6.8,4.67-4.59,7.72-5.16,3.91-.73,2.56,2.83,2.87,4.83.42,2.59-.61,4.78-1.89,7-2.79,4.89-2.13,7.5,2.91,9.85,4.29,2,4.26,5.4,4,9.15-.06.92-.39,1.95-1.35,1.52C604.59,227.83,598.71,229.88,592.89,228.81Z" transform="translate(-0.9 -0.91)"/><path d="M623.92,166.17c.35-6.3.74-12.6,1-18.9.1-2.12,1-3.62,3-4,2.22-.4,2,1.79,2.58,3a19.45,19.45,0,0,1,.83,17.28c-1.4,3.4-1,7.22-1.59,10.81-.31,1.77-.43,4.65-3,4.52-2.39-.12-2.38-3-2.63-4.73a57.21,57.21,0,0,1-.1-8Z" transform="translate(-0.9 -0.91)"/><path d="M605.65,142.1A40,40,0,0,1,604,158.63a14.38,14.38,0,0,0,1.15,12,13,13,0,0,1,1.09,8.73c-.34,1.88-.82,4.07-3.67,3.83s-4.36-1.64-4.46-4.39c-.13-3.65-.67-7.46.08-11C600.08,159.07,598.05,149.22,605.65,142.1Z" transform="translate(-0.9 -0.91)"/><path d="M446.76,733.49c8.48,14.77,16.92,28.55,18.83,45.64-2.14-2.64-4-5.07-7.06-5.76-1-.23-1.47-.72-1.42-1.64.56-10.47-6.17-18.48-9.44-27.65A20.94,20.94,0,0,1,446.76,733.49Z" transform="translate(-0.9 -0.91)"/><path d="M343.32,847.46c-2.14-9.77-3.68-18,.79-26C344.6,829.73,345.91,838,343.32,847.46Z" transform="translate(-0.9 -0.91)"/><path d="M634.86,130.2a15.48,15.48,0,0,1,0,3,2.76,2.76,0,0,1-3,2.15c-1.45,0-1.58-1.48-1.75-2.54a8.9,8.9,0,0,1,.13-2.95c.31-1.79-.51-4.7,2.28-4.64C635.51,125.25,635,128.1,634.86,130.2Z" transform="translate(-0.9 -0.91)"/><path d="M605.69,252.93c.16,2.44-.82,3.68-3,3.86-1.69.14-1.92-1.05-1.75-2.24.29-2,.69-4.11,3.22-4.25C606.22,250.19,605.53,252,605.69,252.93Z" transform="translate(-0.9 -0.91)"/><path d="M347.06,817.38c-2.05-3.15-.87-6,.36-9.84C350.2,811.71,348.06,814.49,347.06,817.38Z" transform="translate(-0.9 -0.91)"/><path d="M361.74,597c.49,3,1.4,5.4-1.8,6.93-1.42.69-1.1,2.59-1.14,4.07s-.21,3.16-2.45,2.69-1.74-2.75-1.2-3.57C357.23,604,357.87,599.84,361.74,597Z" transform="translate(-0.9 -0.91)"/><path d="M358,586.2c.07-1.58-.09-3.28,1.91-2.86,2.52.53,2.42,3.27,3.45,5,.36.61-.77,2.65-1.89,2.12C359.78,589.63,357.37,588.79,358,586.2Z" transform="translate(-0.9 -0.91)"/><path d="M260.22,856.85c2.38,0,4.69-.18,4.66,3,0,1.24.35,3.09-1.74,2.69-2.49-.48-4.92-1.89-5.59-4.33C257,856.2,259.34,857.2,260.22,856.85Z" transform="translate(-0.9 -0.91)"/><path d="M275.32,872.37c-1.81-2.16-4.52-2.43-4.12-5.26.14-1,1-1,1.95-.81C276.17,866.94,276.05,868.92,275.32,872.37Z" transform="translate(-0.9 -0.91)"/><path d="M853.1,501.15c-.46,4.11-.86,8.06-1.36,12-.16,1.31-.45,2.82-2.31,2.62-1.7-.18-1.33-1.68-1.33-2.74,0-3.33,0-6.64-1-9.88a4.07,4.07,0,0,1-.09-1.48c.2-2.82,1-6,4.18-5.77C854.14,496.08,852.63,499.38,853.1,501.15Z" transform="translate(-0.9 -0.91)"/><path d="M859.14,493.5c0-.43-.29-3.11,2.24-3.15s3.8,1.79,3.66,4.76-1.35,4.78-3.87,4.6C858.8,499.54,858.85,497,859.14,493.5Z" transform="translate(-0.9 -0.91)"/><path d="M231,466.52c-1.63-5.21-.14-10.75-1.93-15.89-3.32-9.52,0-19.86-3.65-29.4-.75-1.94.26-4.53.39-6.83.07-1.16.07-2.84-1.28-2.85-1.93,0-1.47,1.92-1.4,3.11.19,3.31,2.2,6.71-1.14,10.41-1.25-16.1-5-31.39-4.72-47.17,1.47,8.42,3.74,16.72,3.59,25.39,0,1.75-.67,3.73.79,5.23a1.16,1.16,0,0,0,1.75-.27c1.19-1.83.7-3.86.47-5.8-.7-5.88-1.79-11.72-1.58-17.68,0-1,.08-2,1.41-2.54,2.24,14.37,2.69,28.9,4.63,43.21,1.49,10.95,1.79,22,3.54,32.88C232.27,461.08,232.67,463.83,231,466.52Z" transform="translate(-0.9 -0.91)"/><path d="M204.47,384c3.85,17.26,4.14,35,7.91,52.28C205.37,419.54,205.44,401.69,204.47,384Z" transform="translate(-0.9 -0.91)"/><path d="M207,439.71c-3.83-12.26-6-24.77-4.95-37.65C204.22,414.53,204.6,427.21,207,439.71Z" transform="translate(-0.9 -0.91)"/><path d="M189.29,422c-4.42-7.41.25-16.18-3.13-23.74A45.18,45.18,0,0,1,189.29,422Z" transform="translate(-0.9 -0.91)"/><path d="M251.24,410.13c-3.52-8.05-3.65-16.39-2.25-24.85C250.35,393.5,249.19,402,251.24,410.13Z" transform="translate(-0.9 -0.91)"/><path d="M237.07,443c1-10.21-2-19.27-1-28.6C236.53,423.66,240.39,432.65,237.07,443Z" transform="translate(-0.9 -0.91)"/><path d="M245.45,464.74a46.83,46.83,0,0,1-1.37-6.53c-.23-3.28-.06-6.58-.06-10.89C246.89,453.6,245.21,459.23,245.45,464.74Z" transform="translate(-0.9 -0.91)"/><path d="M232.23,425.61c-.47-7.22-1.37-14.4-2.22-21.58C232.59,408.76,233.61,418.68,232.23,425.61Z" transform="translate(-0.9 -0.91)"/><path d="M236.93,372.91q1,9.49,2.11,19c-2.85-4.93-2.1-10.59-3.81-15.75a2.64,2.64,0,0,1,1.82-3.14Z" transform="translate(-0.9 -0.91)"/><path d="M248.57,450.23q-.62-5.78-1.24-11.53l1.41-.12C248.71,442.46,250.63,446.16,248.57,450.23Z" transform="translate(-0.9 -0.91)"/><path d="M213.5,417.84c4.23,4.14.2,8.08.89,10.19C214.8,425.84,212.25,422.39,213.5,417.84Z" transform="translate(-0.9 -0.91)"/><path d="M175.15,432.58c3,3.46,1.5,7.58,2.53,11.22a1.33,1.33,0,0,1-1.18,1.81,1.34,1.34,0,0,1-1.15-1.84C176.6,440.16,175.1,436.58,175.15,432.58Z" transform="translate(-0.9 -0.91)"/><path d="M210.91,494c1.78.51,3.08-.28,4.66-.88,5-1.89,10.25-3.43,15.73-2.89,1.69.16,4.23-1.27,4.92,1,.9,2.9,3.61,5.37,2.68,8.68a18.41,18.41,0,0,0,0,9.77c.55,2.22,0,4.15-1.49,6.26-4.11,5.84-4.09,13-5.28,19.74-.68,3.81-.29,8.41-2.34,11.24-2.8,3.88-3.18,8-3.59,12.09a23.56,23.56,0,0,1-6.83,14.73,2.48,2.48,0,0,0-.78,1.78c1.5,6.63-3.56,5.85-6.2,4.29-5.4-3.2-11.61-3.11-17.15-5.51-2.77-1.2-2-2.24-1-3.9,4.2-7.43,6.86-15.08,6.5-24-.1-2.67,0-7,3.13-9.49.72-.57,1.6-1.8,1.44-2.52-2.18-10,6-18.15,5-28-.23-2.42.09-4.37-2-6.05a4.59,4.59,0,0,1-1.43-5.38C207.55,493.41,209.57,494.16,210.91,494Zm7.4,69c1-.66,1.52-.83,1.74-1.19a5.72,5.72,0,0,0,.16-5.65c-.32-.68-1.54-.87-1.62-.53a32.41,32.41,0,0,0-.5,4.84A23.38,23.38,0,0,0,218.31,562.92Z" transform="translate(-0.9 -0.91)"/><path d="M171.06,653.41c.12,2.93-1.38,4.61-3,6.94C166.59,656.61,167.14,654.4,171.06,653.41Z" transform="translate(-0.9 -0.91)"/><path d="M154.36,400.05c-2-3.47-1.87-6.19,1.64-9.39C155.51,394.26,156.51,397.14,154.36,400.05Z" transform="translate(-0.9 -0.91)"/></g></g></svg>