<svg xmlns="http://www.w3.org/2000/svg" viewBox="0 0 856.1 868.09"><title>goodfornothing</title><g id="Layer_2" data-name="Layer 2"><g id="Layer_1-2" data-name="Layer 1"><path d="M663.58,278.8c-2,5.74-1.32,12-4.56,17.67-2.4,4.22-4.49,8.55-8,11.84-5.53,5.15-4.93,11.85-4.49,18.16.3,4.43,4.51,2.88,6.7,1.71,4.64-2.49,9.21-5.26,12.85-9.22.45-.49.74-1.23,1.29-1.51,1.82-.94,2.5-4.13,5.06-3.22,1.75.62,1.59,2.86,1.37,4.47-.36,2.73-.41,7.06-3.6,6.83-7.91-.59-11.59,6.62-18,8.48-.45.12-.75.8-1.19.88-11.57,2.09-10.29,12.38-12.87,20.18-.36,1.1-.26,2.39-.78,3.38-3.36,6.45-3.27,6.68,4.23,7.24-1.65,2.23-3.16,4.26-4.64,6.31-.48.65-1.42,1.69-1.23,2,2.73,4.56-1.2,4.49-3.66,6.18A41.5,41.5,0,0,0,619,394.32c-3.45,6.31-1.94,8.62,6.38,11.41a60.59,60.59,0,0,1-4.5,4.65c-1.66,1.42-2.92,2.73-1.66,5.06s3.42,2.56,5.61,2.05a55.64,55.64,0,0,0,17.68-7.83A68.39,68.39,0,0,0,658.19,396c.72-.86,1.43-2.35,2.72-1.4,1.46,1.08,1,2.81,0,4-2.5,2.84-5.14,5.58-7.79,8.28-5.78,5.91-12.54,10.66-19,15.7-2.31,1.8-2.76,3.75-2.71,6.42a641.51,641.51,0,0,1-2,69.89c-1.59,17.53-1.77,35.27-6.17,52.49a9.7,9.7,0,0,0,0,4.45c.41,1.76,1.6,2.7,3.19,1,5.33-5.69,10.6-11.44,15.87-17.18.45-.48.64-1.27,1.15-1.59,1.63-1,2.82-3.55,4.94-2.83,2.41.82,1.66,3.46,1.41,5.28-1.41,10.39,3.31,19.92,4,30,.52,7.47.45,14.8-1.51,22.44-1.91-1.15-1.5-2.58-1.52-3.77-.1-5.66-.06-11.33-.18-17-.1-4.32-.31-8.56-2.61-12.55-1.68-2.92-1.47-6.44-1.4-9.79,0-2,.58-4.4-1.79-5.18-2.18-.71-4.26.53-5.73,2.22-2.94,3.37-6.08,6.64-8.53,10.35-5.85,8.86-11.33,17.94-13.15,28.72-.83,4.86-1,9.6.63,14.29.57,1.66.55,4,2.89,4.21s3.65-1.4,4.94-3c.82-1,1.08-2.47,2.61-2.9a3.4,3.4,0,0,1,.45,4.94c-2.37,2.71-2.1,5.84-2.24,9-.08,1.72,0,3.59,1.89,4.19a4.53,4.53,0,0,0,5-1.35c4.78-5.81,11-10.58,13.3-18.2.32-1.06.86-2.48,2.34-2s1,1.94,1,3c0,5.43-4.1,8.86-6.51,13.07-1.71,3-4.38,5.39-6.49,8.16s-1.24,4.49,2.08,4.59c5.41.17,11,1.28,16.06-1.83a5.8,5.8,0,0,1,2.86-.79c2.22,0,5-1.44,6.49.91s-.6,4.22-1.47,6.36c-2.09,5.14-4.69,10.44-5.09,15.83-.84,11.37-6.3,19.7-14.64,26.62a86.09,86.09,0,0,1-10.13,7.26,14,14,0,0,0-5.36,5.76c-1.6,3.23-3,6.37-5.45,9.22-2.92,3.39-1.83,5.1,2.55,5.82a76.67,76.67,0,0,0,17.91.67c3.34-.23,4.84-1.59,4.63-5-.11-1.8.66-3.74.27-5.44-1.13-4.91,1.3-6.26,5.54-6.42s6.7,1.45,6.32,6.08c-.08,1,.06,2,0,3-.27,7.31.19,7.92,7.74,6.58,4.36-.77,7.88,1.82,12.14,1.77,25.65-.28,51.31-.08,77-.07q47.67,0,95.34,0c1.66,0,3.31-.22,5-.34q0,82.5.1,165c0,3.42-.68,4.1-4.1,4.09q-340.5-.15-681-.09c-10.6-5.26-22.13-8-33.2-11.89-13.1-4.67-26.52-8.48-39.59-13.24-17.93-6.53-36.08-12.35-54.07-18.68-6.55-2.3-13.24-4.16-19.75-6.67-8-3.09-15.91-6.71-24.39-8.52V609a6.86,6.86,0,0,1,1.45-.37c4.33-.13,8.53.2,10.2-5.58.88-3.06,7.74-2.95,9.32.18,2,4,5.12,5.4,9.14,5.82,1.55.17,3.21.5,3.38,2.34.33,3.67,2.78,4.14,5.65,4.05,3.55-.11,2.88-3,3.28-5.13.23-1.26.23-2.92,1.91-3.13,1.35-.16,1.84,1.21,2.42,2.21A2.14,2.14,0,0,0,50,610.85c1.27-3.91,3.74-8.17-.72-11.57-3.13-2.39-5.82-5.47-9.7-6.89-2.66-1-4.16-3.18-3.38-5.91s2.91-5.44,6.15-4.69c5.51,1.27,10.3-2.61,15.7-1.57a2.43,2.43,0,0,0,2.73-2.38c.13-2,.29-4.47-1.37-5.58-2.09-1.4-4.61-3.59-7.25-2.4a211.46,211.46,0,0,1-19.74,7.6c-2.69.91-4,1.23-5.8-1-1.66-2.05-4.88-2-5.53,0-1.59,4.88-4.21,8.42-8.76,10.64-.23.11-.24.61-.4.9-2,3.66-6.22,3.83-8.57.33C2.45,587,2.48,585.06,1,584V548c4.19,0,7.81-1.23,10.41-4.78.82-1.11,2.09-2.07,3.44-1.38,5.18,2.67,5.65-2.53,5.16-4.23-2-6.83.78-13.4.19-20.06a6.52,6.52,0,0,0-.19-1c-.81-3.05-1.91-4.85-4.83-1.49-1.53,1.76-4.27,2.29-4.43-.4-.26-4.14-.25-8.86,4.46-11.37,3.93-2.11,7.68-3.91,11.38.67,2.36,2.93,4.16,1.63,5.42-1.39a6.21,6.21,0,0,0-.28-5.65c-1.17-2.36-1-6.23,1.54-6.38,7-.43,13.26-3,19.81-4.74a4.06,4.06,0,0,1,2,.3c2.91.84,6,.53,8.85,1C69.2,488,74.37,490,78,494.34c1.22,1.46,1.58,4.41,4.1,2.45,1.75-1.36,3.9-3.43,2-6.39C83,488.7,82,487,80,486.24a3,3,0,0,1-2.06-3.1c.27-3.91,4.95-6.78,2.69-11.3,0,0,.2-.27.34-.35,2.93-1.51,4.24-4.7,6.75-6.58,3-2.25,6.7-3.87,10.12-1.53,7.52,5.17,8.37,5.32,15.07-.32,1.44-1.21,2.9-3.18,5.11-1.18,1.7,1.54,4.82,2.18,3.5,5.7-.72,1.93-.27,4,.22,5.92.73,2.81.29,6.88,5.45,5.46,1.07-.29,1.78.79,1.87,1.89.11,1.36-.07,3.28-1.47,3.34-4.1.16-5.13,3.88-7.57,5.92-2.92,2.46-1.48,4,1.47,4.67a14.12,14.12,0,0,0,4.44-.1c1.56-.18,3.13-.36,3.87,1.35.62,1.42.77,3.41-.4,4.25-4.3,3.06-4.05,8.17-6,12.28-.85,1.8-1.24,3.81-3.16,4.94-3.51,2.07-4.33,6.19-6.77,9.12-1.51,1.8.12,3.43,1.92,3.48,5.84.18,5.94,4.11,6,8.32a22.3,22.3,0,0,0,.56,4.45c.23,1.11.53,2.44,2.09,2.33,1.12-.09,1.62-1.05,2-2,2.07-5.31,1.7-11.88,8-15,.68-.33.63-2.47.64-3.77,0-8.16,0-16.32-.07-24.48,0-1.33,0-2.66.11-4a2,2,0,0,1,1.36-1.91c1-.25,1.43.68,1.91,1.29,1.88,2.42,2.08,5.1,1.47,8.05-.86,4.2-2.4,8.41-.81,12.78,1.11,3.06.93,6.19.84,9.37-.52,18.47-1.82,36.9-1.74,55.4,0,9.49,2.46,19.26-1.6,28.74a10.41,10.41,0,0,0-1.11-4.95c-1.79-4.13-5.3-4.06-8.88-3.62-4.06.49-3.74,3.69-3.53,6.49a21,21,0,0,1-.49,6.44c-.26,1.13-.67,2.43-2.22,2.15a2.14,2.14,0,0,1-1.51-2.33c0-2.32.4-4.65.25-7-.14-2.12-.66-5.09-3.69-3.68-3.88,1.8-5.67,5.94-7.91,9.38-1.52,2.33.75,3.93,1.82,5.74a9.84,9.84,0,0,1,1,6.3c-.25,2.3.61,4.52,3.12,3.91,4.13-1,5,1.1,5.49,4.3.15,1,.72,2,2,1.74a1.7,1.7,0,0,0,1.33-1.89c-.45-3.32,2.46-5.81,2.12-9.12a2.81,2.81,0,0,1,2.59-3.16,17.8,17.8,0,0,0,7.84-2.91c1.34-1,2-.27,2.35,1.22,1.46,5.43,3.12,10.79,2.68,16.54-.1,1.28-.75,3,1.9,4.37-2.26-8.84,1-16.9.3-25.28-.34-4.11-1.37-8.68.28-12.83,2.13-5.38,2.17-11.12,2.6-16.65,1.37-17.6,1.74-35.24,1.62-52.92-.08-11.87-2.39-23.88,1.34-35.73a19.24,19.24,0,0,0,.18-10.37c-1.42-5.38-1-10.78-.14-16.3,1.13-7.11,3.63-14.36-.33-21.5a5.6,5.6,0,0,1-.15-3.9c1.7-5.85-1.2-12.62,3.54-17.86.28-.31.25-1,.26-1.46.13-5.66.05-11.33.39-17,1.18-19.56-4.12-39.12-.18-58.65,2.72-13.46,1.57-27.11,2.22-40.65.95-20,3.16-40.15-.42-60.18a10.37,10.37,0,0,1,0-2.49c1.42-19.27-.47-38.6.77-57.84.5-7.77,1.35-15.13.23-23.16-1.61-11.56.24-23.58.41-35.4.08-5.92.08-11.89-1.93-17.7-2.06,5.32-2.08,10.89-2.25,16.45-.37,12.64.4,25.37-.48,37.91-1.12,15.94-.76,31.91-1.7,47.85-.78,13.4.38,27-.19,40.53-.81,19.43-1.36,38.88-1.39,58.33,0,19.14-.42,38.27-2.45,57.28-1.29,12-1.75,23.86.56,35.76a9.61,9.61,0,0,1,0,4c-2.85,11.78-1.89,23.82-2.46,35.74-.62,13.3.61,26.65-1.11,39.93-.34,2.62-1.19,5.08-3.76,5.06s-1.78-3-2.05-4.78a29.18,29.18,0,0,1-.17-4.49q.06-31.92.14-63.83c0-7.71-.26-8-7.74-10.56-.91-.31-2.24-.27-2.12-1.57.06-.61,1-1.23,1.64-1.68a18.29,18.29,0,0,0,8.32-16.15c0-2.83-.08-5.66-.09-8.5,0-31-.21-62,.05-92.95.05-5.09-3.81-6.42-6.45-8.36-1.73-1.26-2,3.17-3.83,4.29a3.52,3.52,0,0,0-.93,1.17c-4.11,6.32-9,12.22-10.3,20a4.56,4.56,0,0,1-3.58,3.74c-3.74,1.07-4.25,3.53-3.2,7,1.36,4.51,3.88,7.65,8.48,9,2.44.72,4.48,1.69,3.15,4.91-2.9,7-5.33,8.63-12.75,8.25-9-.46-10,.44-10.25,9.22a16.67,16.67,0,0,1-.15,2c-.51,3.41,1,4.21,4,3.23,3.64-1.16,7.2-2.65,11.15-2.49,2.08.09,3.48.9,4.12,2.95.58,1.86.58,3.41-1,5-3.42,3.34-8.22,5.22-9.35,11-.46,2.36-3.61,5.8-7.32,4.8-3.93-1-2.39-4.92-2.71-7.67-.48-4-3.73-6.46-6.78-4.37-3.2,2.21-6.53,2.33-10,2.17-3.86-.17-6.17,1.26-6.14,5.32,0,3-1.65,4-4.33,4.31-4.84.54-9.67,1.57-12.83-3.87a4.17,4.17,0,0,0-4.84-1.82c-2,.67-.89,2.6-.91,4,0,3.31-1.76,4.83-4.9,5.11-7.72.67-15.28,2.36-22.68-2.57-4.62-3.07-11.86-1.1-12.46,2.37-.8,4.72-3.57,5-7.25,4.27V203c5.88-3.72,12.73-4.9,19.26-6.48a17.85,17.85,0,0,1,14.68,2.77,126.88,126.88,0,0,0,18.89,10.85c3.94,1.81,5.38,3.67,3.44,7.49-1.55,3,0,4,2.59,4.27,2,.23,4.52.85,5.83-.48,4.22-4.29,10.78-2.59,15.2-6.54,2-1.79,5.35-1.1,7.29,1.11,3.71,4.22,7.79,8.44,8.89,14.17,2,10.27,8.37,17.44,15.86,23.94,1.77,1.53,3.84,4.59,6.22,2.11,1.88-2-.45-4.73-1.79-6.55-3.24-4.37-4.06-9.51-4.65-14.53-.29-2.53-.46-4.27-2.71-5.73a4.25,4.25,0,0,1-1.27-6.17c1.45-2.35,4-1.93,5.76-.63,5.39,4,11.92,6.81,15.3,13.19.69,1.3,1.35,2.93,3.27,2.44s2.09-2.24,2.08-4c-.08-10-.09-20-.18-30-.06-6.13-6.5-14.81-12.33-16.58-1.71-.51-4.42-1.12-3.95,1.76.93,5.62-3.94,7.71-6.24,11.24-1.43,2.21-5.36,1.16-7.64,3.15-.71.61-1.45-.39-1.83-1.16-.45-1-.7-2,.06-2.81a12.62,12.62,0,0,1,2.35-1.8c8.61-5.8,11.72-13.6,8.68-23.65a35.22,35.22,0,0,0-1.88-5.12c-2-4.21-2.2-8.68-2-13.19.13-2.66,1.56-4.35,4.35-4.54,4.48-.32,9-.73,13.45-.85,6-.17,7.1-1,7.1-6.84Q135.08,72.44,135,1H337c-2.73,5.49-5.44,11-8.18,16.47-1.34,2.68-3.41,3.75-6.5,3.5-19.28-1.58-33.08,7.26-43.38,22.88-2.37,3.59-5.4,6.75-7.29,10.68-1.29,2.69-3.63,2.13-5.65,1.69-4.37-1-8.63-2.52-13-3.31-4.08-.74-5.79,1.13-3.88,4.76,3.78,7.19,3.12,14.86,3.64,22.42.45,6.43.05,12.91,3.15,19,1.77,3.45.31,5.44-3.82,4.92a59,59,0,0,0-30.32,4.17c-5,2.07-9.61,5.15-14.38,7.82-1.08.61-1.89,1.55-1.27,2.88,1.07,2.33,2.52,4.26,5.27,4.89,5.28,1.22,9.65,4.18,14,7.22,2.56,1.77,2.41,3,.44,5-4.94,5.15-10.34,9.86-14.65,15.62-3.93,5.26-3.11,8.25,3.23,10.22,4.18,1.31,8.53,1.27,12.86,1.44,2.87.12,5.24,1.29,3.74,4.67-3.07,6.93-6,14-9.85,20.5-4.7,8.06-12.51,13.69-17.65,21.59-7.07,10.88-13.6,22-18.51,34-1.26,3.08-2.67,6.12-3.61,9.29-1.07,3.59-2.86,4.13-5.87,2.22-1.53-1-3.21-2.22-5.06-.95-2,1.38-.72,3.38-.46,5.06a72.36,72.36,0,0,1,.19,22.85c-2,12.18-1.9,24.87,3.79,35.73,4.74,9.06,1.49,13.25-4.71,18.79-8.31,7.42-9.26,17.15-6.08,27.5a34.27,34.27,0,0,1,1.43,6.29,86.19,86.19,0,0,0,10,31.08,17.69,17.69,0,0,1,2.26,11.45c-4.18,26.79-3.82,53.75-3,80.72.05,1.67.26,3.56-1.51,4.44s-2.53-.81-3.65-1.79c-2.82-2.45-5.1-1.32-6.06,1.8a32.32,32.32,0,0,0-1.54,9.33c0,7-2.52,13.79-1.14,20.84a4.71,4.71,0,0,1-1.74,4.51c-3.69,3-3.86,7.31-5,11.49-2,7.15-2.22,14.18-2.38,21.52A72.19,72.19,0,0,0,157,597.64c1.71,3.85,4.36,7,6.49,10.6s2.18,6.16-1.21,8.63c-6.46,4.7-10.62,11.34-15.05,17.76a12.79,12.79,0,0,0-2.15,5c-.53,2.8.76,4.53,3.45,4,8.16-1.57,15.16,2.41,22.59,4.3a2.74,2.74,0,0,1,2.28,2.9c-.09,1.83-.13,3.78-1.47,5.17-.94,1-1.66.09-2.4-.7-4.92-5.28-15.09-7.07-21.57-3.88-1.12.55-2,1.26-1.79,2.65a2.36,2.36,0,0,0,2.51,2c2.16,0,4.32-.16,6.48-.18,4,0,5.86,2.11,5.4,6-.28,2.29-.89,4.53-1.23,6.83-.44,2.92-3.21,2.87-5.59,2.81-2.55-.06-6.25-1.38-6.87,1.84-.58,3,3.52,2.75,5.58,3.84,2.58,1.37,5.53,1,8.32,1.46,10.7,1.55,21.38,3.21,32.09,4.72,3.82.54,4.48,2.33,2.68,5.47a31.41,31.41,0,0,0-2.46,4.31c-1.69,4.53-.64,5.82,4.26,6.27a156.27,156.27,0,0,0,31.79-.71,53,53,0,0,1,14,.45c3.66.54,7.61,1.5,10.91-1.65a3.43,3.43,0,0,1,2.87-.26c9.61,3.34,19.56,2.9,29.4,2.28,13.45-.85,26.88,1.81,40.33-.34,4.95-.79,7-2.43,7.55-7.45.47-4.48-2.76-5.13-5.85-6-1.44-.4-2.92-.68-4.36-1.08-9.5-2.7-10.09-2.5-16.21,5.4-.82,1-1.71,2-2.56,3.06-2.51,3.06-4.93,3.47-7.76.21a119.75,119.75,0,0,0-22.83-20c-5.54-3.8-12.13-6-18-9.4-7.32-4.23-15.59-2.91-23.33-4.6-3.92-.85-4.38,3.28-6.57,4.7-1.92,1.24-5-2.72-7.72-.18a10.06,10.06,0,0,0-1.77,2.94c-1,2-1.87,2-3.2.21-3.36-4.37-11.22-6.46-16.2-3.88-3.65,1.89-5.21,1.81-4.66-2.76.28-2.28-.39-3.88-2.45-5.48-4.51-3.5-7.18-8.78-12.11-12.21-2.3-1.61-2.66-6.49-3.22-10-1-6.09-3.94-7.43-9.79-3.07a87.85,87.85,0,0,0-8.3,7.75c-.83.79-1.51,2.1-2.8,1-1-.86-.64-2.24-.23-3.28a6.57,6.57,0,0,1,1.75-2.32c4.54-4,9.15-8,13.7-12,4.16-3.66,5.43-10.85,1.92-15-5-5.89-8.55-12.71-12.74-19.11a7.84,7.84,0,0,1-.26-7.6c2.09.18,2.29,1.82,2.25,2.92-.15,4.85,4.08,7.78,5.12,12.18.45,1.91,3.19,4,5.57,3.06s1.22-3.39.84-5.33c-.16-.79-.44-1.88-.06-2.41,6.2-8.67.83-15.64-3.55-22.47-2.51-3.93-4-8.92-10.3-9.72-3.23-.41-1.77-4.52-.75-6.84,1.18-2.66,2.87-1.24,4.32.08,2.4,2.19,6.23,1.8,8.21,5.09a24.42,24.42,0,0,1,3.2,8.3c.3,1.66.67,3.45,2.89,3.45a4,4,0,0,0,4.16-3.57,52.15,52.15,0,0,0,.43-5.47c.09-1.32-.1-2.73.8-3.85,5.72-7.16,3.51-14.32.69-21.91-1.61-4.32-3.37-8.64-4.63-13.05-.82-2.89-3.58-4.73-3.91-7.78,1.47-.42,1.72.48,2.11,1.14.72,1.19,1.49,2.37,3.12,1.82s2.14-2.07,2.12-3.61c0-2.5-.4-5-.39-7.49.16-25.82-.37-51.65,1-77.45.32-5.94,2.54-11.75,1.41-17.83-.27-1.46-.33-3-.7-4.4-.42-1.6-1.59-3.55,0-4.6s2.89,1.07,4.3,1.81c1.83.95,3.1,3.4,5.64,2.44,1.82-.69,5.56-.57,2-4.24-1.68-1.75,1.45-9.62,3.7-10.18.16,0,.38-.13.47-.06,4.79,3.44,9.59,6.85,14.3,10.38a1.52,1.52,0,0,1-.1,2.25c-.88.82-1.83.54-2.74,0-1.55-.95-3.09-1.92-4.66-2.84-4.18-2.45-6.29-1.22-6.33,4-.07,8.54,3.33,15.39,10.67,20,3,1.9,5.8,4.31,9.78,4.47,2.66.11,4,2,3.76,5.47-6.14-3.22-6.57,1.2-7.71,5.33-2.32,8.35-5.17,16.58-3.86,25.47.12.8-.18,1.82-1.22,1.81s-1.35-1-1.17-1.83c2-9.06-1.75-18.26.78-27.34,1.54-5.49-2-9.24-5.53-12.53s-5.35-7.47-7.51-11.53a11.94,11.94,0,0,0-1.71-3c-1.16-1.14-2.55-2.4-4.36-2-2.1.5-1.94,2.52-2.1,4.1-.78,7.76-1.36,15.57-1.8,23.33-.91,15.95-1.89,31.92-1.44,47.93.52,18.63,1.87,37.2,3,55.79.24,3.79,2.51,4.48,5,2.42,4-3.42,7.31-3.51,11.45-.13,2.41,2,5,1.14,6.08-2.37a15.35,15.35,0,0,0-.22-9.34c-.7-2.23-1.41-4.46-1-6.85.23-1.45.15-3.29,2.2-3.36a3.36,3.36,0,0,1,3.51,3,32.31,32.31,0,0,1,.51,3.95c.27,3.15.68,6.08,2.91,8.78,2,2.44,2,5.89-1.72,6.7-7.81,1.7-13,6.31-16.76,13-.45.81-.65,2-2.13,2-1.62-1.52-.59-3.72-1.18-5.52-.41-1.26-.44-2.84-2-3.12s-1.66,1.32-2.43,2.12c-4.72,4.83-4.07,11-4.22,16.91-.07,2.49,0,5-.26,7.47-.2,1.75-.86,3.51-3.22,1.79-1.59-1.17-3.22-.86-3.43,1-.53,4.69-3.14,8.71-3.92,13.24-1.47,8.44,1.51,16,5.11,23.4.69,1.41,1.4,2.62.57,4.16-.34,0-.71,0-.91-.15-1.39-1.1-.62-4.63-3.69-3.67-2.38.74-2.25,3.23-2.06,5.14,1.4,13.91,7.09,25.64,18.31,34.24,5.38,4.12,11.72,2.83,17.81,2,1.85-.25,2.67-1.76,3-3.55a3.83,3.83,0,0,0-2.32-4.5c-4.58-2.32-9.27-4.44-13.82-6.82-6.6-3.46-10.71-9.19-13.82-15.74a2.55,2.55,0,0,1,.2-2.84c1.34-.51,1.54.73,2.23,1.35,3.55,3.23,5.66,9.14,12.34,6.75,1-.34,1.91.25,2.75.89,1.4,1.09,3,2.94,4.72,1.15s.75-4.16-.12-6.11a6.15,6.15,0,0,0-4.8-3.24c-2.08-.35-1.92,1.81-2.36,3.15-.25.79-.44,1.71-1.46,1.79a1.25,1.25,0,0,1-1.36-1.18c-.36-5.28-4.15-9.37-4.95-14.48-.21-1.28-.57-2.94.74-3.68,1.61-.93,2.09,1,3,1.76a62.12,62.12,0,0,0,7.86,6c2.08,1.2,4.9,3.62,7.08.57,2-2.86,2.25-6.37-.48-9.17-3.36-3.46-6.59-7-8.82-11.31-.47-.91-1.08-1.68-.36-2.91,2-1,4,4.6,5.92.57s6.8-8.05,3.45-13.15a18.62,18.62,0,0,1-3-9.76c-.1-1.82-.21-3.84-1.56-5.17-1.81-1.76-1.73-2.88.4-4.22,1.78-1.12,1.1-2.91.76-4.55a4.53,4.53,0,0,1,7.57-4.18c1.73,1.61,3.15,3.61-.42,4.76-3.29,1.06-3.52,3.51-3.5,6.34.07,7.9,3,14.94,6.44,21.81.89,1.81,1.05,4.21,2.38,5.39,2.61,2.32,3.33,8.54,9.3,5,1.21-.72,2.14,1.27,3.24,1.94,8.45,5.18,14,2.12,14.75-7.7.92-12.17-2.68-22.42-11.26-31.11a8.35,8.35,0,0,0-6.18-2.49c-1.08-.06-2.81,0-2.72-1.5.11-1.79,1.93-1.44,3.18-1.42a16.63,16.63,0,0,1,2.43.55c5.44,1,7.48-1.45,5.69-6.79a34,34,0,0,1-1.48-4.73c-.79-4.57-4-7-8.61-6.25-1.66.28-3.48,1.18-4.21-1a7.54,7.54,0,0,1,.69-6.27,1.56,1.56,0,0,1,2.85-.07c1.52,3.06,4.28,3.82,7.16,4.73,2.14.67,2.61,2.59,3,4.71,1.69,8.49,4.79,10.35,13.38,10.75,8.34.39,16.08-1.74,23.72-4.24,5-1.65,8.81-5.6,12.28-9.61.77-.89,1.49-2.1,2.81-1.5,1.69.78.79,2.28.55,3.52a6,6,0,0,1-2.19,3.79c-5.26,4.11-10.7,7.79-17.73,7.93-.67,0-1.59-.15-1.95.21-5.43,5.32-12.41,3.54-18.85,4.22-3.57.38-6.19,2.35-4.53,5.94,3.47,7.52,4.76,15.87,9.31,23a11.73,11.73,0,0,0,6.26,5.27c16.21,5.58,30.35,14.79,43.61,25.39,3,2.43,5.17,5.93,8.53,8.11a1.23,1.23,0,0,1,.25,2.1c-.93.82-1.84.34-2.7-.26-6.05-4.23-12.06-8.51-18.17-12.64-8-5.39-16.83-9.09-25.54-13-2.35-1.06-6.07-2.79-7.48.7s2,5.35,4.85,6.36a150.59,150.59,0,0,1,28.16,13c7.48,4.55,15.37,9.14,20.86,16.37,1.76,2.33,3.5,3.18,5.81,1.65,2.56-1.7.3-3.6-.4-5.23a32.22,32.22,0,0,0-3-4.66c2.5-1.07,4.32-.81,5.81,1.31a27,27,0,0,0,3.07,3.88c6.6,6.38,6.64,6.38,15,2.41,4-1.88,8.64-.8,13.45-3.8-2.12,4.13-4,6.21-7.8,7-6.54,1.31-9.54,7.17-6.23,12.79,2.43,4.13,2.5,8.1,2.19,12.44-.38,5.54,3,8.29,8.62,7.92,7.82-.51,15-3.14,21.68-6.75,4.31-2.32,7.85-1.68,11.82,0,6.47,2.66,7.37,2,10.43-4.27,2.23-4.53,5.41-8.61,8.18-12.88a1.76,1.76,0,0,1,2.15-.83c1.32.46,1.2,1.58.72,2.46-1.17,2.17-2.5,4.27-3.8,6.37-2.73,4.42-3.72,9.53-5.73,14.22-1.18,2.74.5,4.83.82,7.22.15,1.13.65,2.42-.66,3.12-1.08.58-1.7-.63-2.55-1-3.45-1.58-6.06-4.74-10-5.38-1.76-.28-3.91-.89-4.95,1.16s1.12,2.88,2.31,3.83c4.77,3.83,10.21,6.86,14,11.82,2.11,2.76,4.11,5.61,6.2,8.4.81,1.08,1.77,2.23,3.3,1.71,1.8-.63,1.51-2.26,1.56-3.79.16-5-4.65-7.5-5.94-11.76a13.07,13.07,0,0,0-1.05-1.94c3.8-.91,6.47-.19,8,3.36.65,1.53,1.3,3.07,2.06,4.55s1,3.57,3.31,2.9c1.94-.55,3.72-1.53,4.07-3.9a146.12,146.12,0,0,0,.06-40.82c-.47-3.48-3.46-4.61-6.92-3.9-.93.19-2.05.67-2.57-.61-.38-.92.44-1.45,1-2.06.88-1,1.61-2.09,2.5-3.07,3-3.39,6.11-2.78,7.77,1.42,1.54,3.88,2.93,7.77,3.05,12,.11,3.64,2.3,4.9,5.38,3.47,20.3-9.39,41.71-14.15,63.95-15.24,7.55-.37,12.68-3.1,15.76-10.37,1.94-4.59,6.92-7.72,6.89-13.46a2.85,2.85,0,0,1,2-2.63c7.62-2.63,11.83-9.51,17.87-14.08a31.38,31.38,0,0,0,8.94-9.78c2.67-4.79,1.44-7.24-4-8.15a78.92,78.92,0,0,0-12.93-.86c-1.13,0-2.62-.13-3-1.33-.49-1.42,1-1.9,1.94-2.48,4.84-2.93,9.14-5.87,15.23-1.19,4.62,3.56,10.73,3.26,16-.27,2.2-1.48,4.76-1.39,7.16-2,3.74-1,4.59-3.57,2.54-6.37-1.8-2.44-2.7-5.84-6.2-7.2,3.7-.79,7.33.16,10.95-.42,1.93-.3,2,2.33,1.85,4-.54,4.47,1.59,7.25,5.69,8,10.81,1.87,18.45,8.62,25.69,16.06,2,2,3.21,1.16,4.25-.75,1.55-2.83,1.9-6,2.47-9.13a681.16,681.16,0,0,0,9-73.31c.4-5.47-.21-11,1.09-16.42a3.84,3.84,0,0,0-1.48-4.45c-1.68-1.1-3.15-.42-4.63.5-1.65,1-3.35,2-5.05,3-1.19-1.86.41-2.23,1-3.08,2.35-3.36,1.09-7.75-2.78-8.6-4.17-.92-6-5.65-11.16-5.36,2-2.52,4.23-2.27,5.38-1.31,3.73,3.08,8.7,3.12,12.61,5.8,3.49,2.39,6.65.76,7-3.54a373.81,373.81,0,0,0,.65-43.9c-.09-2.6-2.27-3.87-4.22-4.41a5.56,5.56,0,0,0-6.3,2.89c-1.19,2.24-2.88,4.06-4.13,6.21-.68,1.16-1,3.52-2.91,2.42-1.6-.95-1.12-3.55,0-4.46,2.57-2.16,2.57-5.31,4-7.86,4.61-8.52,0-15.56-3.31-22.83-.34-.74-1-1.34-1.36-2.07-.62-1.24-1-2.6.29-3.64s2.48-.33,3.34.86c2.52,3.47,5.12,2.08,6.86-.43,6.86-9.9,14.06-19.36,17.93-31.3a200.13,200.13,0,0,0,9-43.07c.6-6.38,2-12,7.32-16.73,5.84-5.17,9.19-12.27,10.58-20.17.41-2.34.44-7,4.91-2.75Zm-144,364c-2.46-2.44-1.88-4.76-2.43-6.71-.45-1.58-.57-3.48-2.47-4.05-2.08-.62-3.52.83-4.65,2.24a17.16,17.16,0,0,0-2,4c-4.91,11.43-1.63,22.15,2.91,32.74.51,1.2,1.64,2.55.27,3.59-1.55,1.17-2.28-.45-3-1.5-3.55-5-8.22-5.74-14.25-5.77-7.91,0-14.88,3.32-22.42,4s-14.37,4-21.8,5.07c-4.46.67-5.64,4.71-3.15,8.4a26.34,26.34,0,0,1,2.71,5.25c3.61,9.3,6.93,11.56,17.21,10.18C475.6,699,484.72,699,493.87,699c8.33,0,16.67.06,25,0,2,0,4.73.36,4.86-2.24.35-6.79,2.49-4.59,5.27-1.4a28.17,28.17,0,0,0,2.78,2.11c2.27,2,4.94,2,7.52,1.17,3.17-1,.71-3.78,1.42-5.6.1-.26.48-.4,1-.81,1.46,3,4.51,4.19,6.94,6.07,2.09,1.63,5.06,2.25,7.07-.6,1.73-2.46,1.77-4.8-.9-7a57.24,57.24,0,0,1-8.76-8.11c-7.26-9-14.78-18-14.14-30.77A73.6,73.6,0,0,1,540.62,621c2.15-4.06,3.39-9.78,9.52-11.53-2.66,8.46-5.94,16.41-7.56,24.87-.94,4.88.06,9,3.22,12.49,1.47,1.6,2.28,4.87,5.71,3.87s3.47-4,3.9-6.82.27-5.8,2.63-8.57c2.35,4,1.43,7.77,2.14,11.28.64,3.17,2.27,5.83,5.65,4.64s6.32-3.62,5.93-8.18c-.43-4.91-3.79-10.9-6.75-11.43-5.42-1-5.52-1.22-2.52-6.29a42.35,42.35,0,0,1,3.74-5.24c2.59-3.15,3.59-6.74.61-10.4-4.17-5.14-7.49-6.15-12.38-3.67-.73.37-1.37,1-2.5-.09.35-4.42,2.55-9.76,5.9-10.95,7.52-2.69,15.83-4.23,23.75-.16,1.77.91,3.77,2.49,5.38.46,1.86-2.34-.34-4.24-1.94-5.4a45.56,45.56,0,0,0-20.92-8.65c-1.45-.19-4-.23-4,1.11-.31,8.36-4.33,5.62-8.56,3.24a2.38,2.38,0,0,0-3.12.84c-.55.85,0,1.58.55,2.22,3.48,4.06,3.25,4.77-1.32,7.81-9,6-16.32,14-23.78,21.75-2.21,2.29-3,5.32-3.08,8.71C520.73,631.93,520,636.94,519.55,642.81ZM256.9,631c0-2.16,0-3.44,0-4.72.33-8.65,2.48-17.28-.21-26-.64-2-.26-4.85-2.8-5.24-2.34-.36-3,2.39-3.71,4.09a96.6,96.6,0,0,0-4.92,15.52c-2.16,9.7-6.87,17.74-12.23,25.75-2.66,4-7.39,6.29-8.78,11.23-.38,1.35-.75,2.65.65,3.57a3.12,3.12,0,0,0,3.74-.16c4.95-3.56,11.12-5.18,15.42-9.77.81-.87,1.91-1.68,3.07-.82,1.36,1,.74,2.33.08,3.57-2,3.8,0,6.26,3.23,7.37,2.85,1,5.43,2.45,8.19,3.52,14.25,5.52,26.39,14.13,37.22,24.76,1.84,1.8,3.69,4.38,6.77,2.28,4-2.71,5.52-7.21,3.28-10.31-2.84-3.92-2.84-7.3.75-10.54,2.9-2.62,2.45-6,.24-8-7-6.23-13.78-12.77-21.8-17.77-5.12-3.19-10.81-5.61-15.67-8.92C264.76,627.28,261.63,627.21,256.9,631Zm355.42,49.43c-.24-1.19-.68-2.08-.43-2.35,3.54-3.93,5.76-8.69,8.56-13.08,3.51-5.5,6.75-11.06,6.37-17.87-.43-7.64-.5-15.33-3.39-22.62-.67-1.68-.68-4-2.86-4.24-1.94-.24-2.49,1.92-3.44,3.22a11.22,11.22,0,0,0-1.75,3A174.88,174.88,0,0,1,607,648.66c-3.3,6.83-6.33,13.75-11.88,19.33-8.44,8.47-14.79,18.79-23.37,27.18-1.82,1.79-1.42,3.55,1.21,3.78,3.78.33,7.53.52,11.15-1.57,6.92-4,14-7.65,21.18-11.5.84,2.39-.36,3.64-1.87,4.83-1.94,1.54-3.78,3.2-5.7,4.75-1.22,1-2,1.88-.25,3,2.36,1.55,14.2.64,15.87-1.4,5.36-6.52,10-13.51,12.95-21.47a23.18,23.18,0,0,0,1.11-5.86,2.76,2.76,0,0,0-1.89-3.18c-1.76-.45-2,1.11-2.71,2.24A42.77,42.77,0,0,1,612.32,680.41Zm-180.7-3.1c9.6-3.06,18.1-6.85,27-8.34,11.12-1.88,22-5.42,33.35-5.77,4.18-.13,6.08-3,6.82-6.72a52.15,52.15,0,0,0,.39-5.47c.57-6-.2-7.09-6.31-7.17A72.71,72.71,0,0,0,469,647.19c-12.56,4.06-25.55,6.72-37.5,12.67-4.62,2.3-8,6.94-6.28,10.53,1.6,3.39,1.21,5.2-1.75,7.51-3.24,2.54-2.47,5.45,1.58,6.34,3,.67,4.27,2.58,6.05,5.6-3.64-1.18-6.53-1.05-9.18.76-1.77,1.19-3.93,1.91-3.1,4.89s2.78,3.49,5.29,3.5c6.83,0,13.66.06,20.49,0,1.67,0,3.47-.07,4.16-2,.62-1.73,0-3.13-1.16-4.57C443.24,686.82,439,681.13,431.62,677.31ZM320.47,648.55A29.22,29.22,0,0,0,307.81,633c-5.17-3.2-9.72-7.21-14.92-10.43-8.15-5-16.76-9-25.33-13.16a3,3,0,0,0-4,1c-2.62,3.59-1,12.61,2.94,14.79,5.27,2.91,11,5,16.11,8.16,9.26,5.76,18.37,11.81,26.47,19.21,1.94,1.78,3.59,3.74,6.58,4.1,3.6.44,3.56-3.35,5.84-4.75,1.72,3.47,3.75,7.23,7.52,6.77,4.53-.57,4.87,1.62,5.38,4.82.27,1.71-.32,4.65,2.89,4.14,2.7-.43,2.7-2.67,2.81-5,.47-9.51-6-15.71-10.61-22.75a4,4,0,0,0-4.5-1.46c-1.74.58-1.55,2.37-1.88,3.79C322.65,644.2,323.26,646.58,320.47,648.55ZM758.51,783c2.22,4.24,4.22,7.45,5.66,10.91a132.05,132.05,0,0,0,7.55,15.56c1.68,2.89,3.87,4.66,7.33,3.69,3.24-.91,3.47-3.83,3.59-6.47.58-13.29,1-26.58,1.53-39.86.1-2.71-.31-5.17-3.78-5.25s-4.51,2.15-4.5,5.22c0,5.66.09,11.32,0,17,0,1.71.46,4.17-1.74,4.7-2,.48-2.91-1.85-4.17-3.08a5.59,5.59,0,0,1-.88-1.78c-2.79-6.37-5.67-12.7-8.33-19.12-1.35-3.26-3.78-3.28-6.58-2.84s-4.44,1.73-4.39,4.94c.06,3.81-.4,7.63-.47,11.46-.18,10.31-.27,20.63-.38,31,0,2.24.65,3.93,3.36,3.93,2.38,0,3.83-1,4.05-3.45.29-3.32.58-6.64.71-10C757.26,794.42,756,789.23,758.51,783Zm-477.74-2c-.83,6.33.22,12.61.37,18.91.37,15.94,3.07,18,19,14.53.49-.1,1-.28,1.45-.35,4.9-.66,7.76-3.74,10.22-7.81,5-8.3,4.43-17.19,3.18-26.1a20.66,20.66,0,0,0-9.31-14.64c-6.82-4.61-14.37-2.82-21.72-2.41-2.39.13-3.12,2.3-3.15,4.43C280.72,772,280.77,776.5,280.77,781Zm519,8.9c.16,2.65,0,5.38.56,8,2,9.13,6.92,15.93,15.75,16.61,11.13.86,18.41-7.82,19.69-16.45,1.89-12.73,4.25-12.68-11.42-13.2-3.35-.12-5.44,1.32-5.72,4.8-.33,4,2.41,4,5.25,4.1,4.15.22,5.38,2.31,3.3,5.93-1.68,2.92-4.23,5.25-7.84,5.42-3.79.17-6.25-2.35-7.75-5.35-3.55-7.11-4.75-14.37-1-22,1.76-3.54,3.19-6.92,7.7-7.6s7.27,1.79,9.27,5.29c1.55,2.72,3.9,3.12,6.39,2.35,3.09-1,2.35-3.72,1.87-5.91-1.39-6.33-5.66-10.17-11.75-11.5a16.9,16.9,0,0,0-16,4.74C801.36,771.85,799.4,780.54,799.77,789.88ZM147,786.29c-1.66,0-3.33-.12-5,0-3.88.34-4.48,3-3.83,6.1s3.34,2.73,5.62,2.94c2.86.27,5.79.95,4.9,4.63-1.51,6.25-10.27,8.63-15.09,4.22-6-5.48-5.43-12.82-5.26-20,0-1.78.88-3.54,1.32-5.32,1-4.33,4.33-6.39,8.23-6.91,3.59-.48,6.22,1.81,7.95,5,1.49,2.68,3.56,5,6.74,3.23s2.4-4.65,1.16-7.47a17.78,17.78,0,0,0-17.12-10.55c-6.94.32-12.17,5.07-14.86,12.08-3.88,10.15-2.16,20.07.63,29.86,3,10.54,15.59,15.72,24.78,10.12,6.32-3.85,9.12-10.43,9.44-17.75C157,787.43,155.87,786.35,147,786.29Zm117.08,4.8c0-10.62-.06-10.83-3.5-18.53a18,18,0,0,0-17.93-10.76c-6.94.7-12.54,6.33-14.79,13.61-3,9.81-2.25,19.24.92,28.82,4.16,12.58,19.67,16.36,28.78,6.84C263.31,805.1,264.65,797.79,264.11,791.09Zm-53.65-1c0-9.47-1.49-18.17-9.42-24.68-7.23-5.94-19.72-4-24.21,4.13-7.3,13.28-6.16,26.51.94,39.32,4.24,7.66,15.31,9.84,22.78,5.19C209.62,808.44,210.31,799.36,210.46,790.13Zm207-28.76c-6.91-.18-12.43,3-15.42,8.58-6.54,12.3-6.22,24.9-.27,37.19,5.17,10.68,19.64,11.48,27.56,2.61,7-7.89,7.34-29,2.82-37.6C428.78,765.84,424,761.25,417.41,761.37Zm138.3,26.77c0-7.17,0-14.33,0-21.5,0-1.88-.13-3.94-2.63-4.06s-4.25.87-4.48,3.62c-.15,1.83-.37,3.66-.37,5.48,0,5.17.2,10.33.15,15.5,0,1.44-.32,3.26-2.19,3.46-1.71.17-1.82-1.59-2.39-2.75-3.69-7.42-6.33-15.34-10.59-22.52-1.6-2.69-3.62-3.82-6.61-3s-3,3.38-3,5.7q-.06,20,.06,40c0,2.36-.53,5.54,3.39,5.35s3.74-3.09,3.65-5.87c-.16-5.5-.35-11-.44-16.49,0-2.11-.44-4.9,2.33-5.38s2.62,2.43,3.3,4.17a136.7,136.7,0,0,0,10.93,21.72c1.46,2.35,3.6,2.78,6.09,2.18,2.83-.69,2.77-3,2.77-5.17C555.71,801.8,555.7,795,555.71,788.14ZM611,786.57a43,43,0,0,0-.73-6.49c-1.82-6.78-3.64-14-10.51-17.33-10.12-4.94-20.9.86-24.67,11.55-3.5,9.94-3.77,19.51.15,29.19,2.3,5.68,6.17,10,12.36,11.23,5.76,1.12,11.11.19,15.46-4.59C609.19,803.35,610.06,795,611,786.57Zm58.76,1h-.79c0,6.64,0,13.29,0,19.94,0,2.56-.61,5.89,3.26,6.17s4.62-2.4,4.68-5.61c0-2,.48-4,.55-6,.32-9.07-.78-9.09,10.18-9.3,4.42-.08,6.56,1.49,6.26,6.09-.2,3.15-.1,6.32-.11,9.48,0,2.63.15,5.16,3.66,5.39,3.76.25,4.17-2.27,4.46-5.17,1.42-14,.48-27.93.62-41.9,0-2.21-.56-4.14-3.08-4.34a4.34,4.34,0,0,0-4.54,3.2c-.76,2.09-.47,4.26-.38,6.43.4,10.18-.22,10.79-10.36,10.67-.67,0-1.33,0-2-.06-3.06-.1-4.51-1.67-4.48-4.74.05-3.33,0-6.66,0-10,0-2.81-.06-5.49-3.91-5.65-4-.17-4,2.57-4,5.36Zm-217.15.49h-.17c0,6.66-.1,13.32.05,20,.05,2.33-.5,5.64,3.18,5.71s4.6-2.75,4.64-5.87c0-2.33-.3-4.69,0-7s0-5.25,2.79-5.83c3-.6,4.42,1.95,5.25,4.38,1.36,3.94,4,7.29,4.93,11.44.72,3.25,3.46,3.34,6,2.82s2.4-2.73,2.08-4.81a17,17,0,0,0-2.69-7.42c-2.21-3.19-3.35-7.16-.84-10.29,4.83-6,4.4-12.6,3.2-19.38-.9-5.09-4.63-8.39-9.75-9.25-4.33-.74-8.65,0-13-.16-4.05-.13-5.75,1.68-5.68,5.67C452.64,774.73,452.56,781.4,452.56,788.06Zm-66.73-88.72c2.57-.73,6.26,1.36,7.72-1.8s-1.95-5.24-3.71-7.52c-4-5.15-10-7.47-15.17-11-9-6.09-19.56-5.66-26.36,1.88a98.82,98.82,0,0,0-7.44,10c-1.6,2.28-2.74,5.29-.49,7.28,2.42,2.15,5.28.88,7.49-1.4.8-.82,1.82-1.43,2.66-2.22s1.22-2.26,2.67-1.78,1,1.9.86,3c-.25,2.77.88,4,3.74,3.85,7.74-.42,13.07-4.48,15.25-12,.56-1.9.44-4.63,3.19-4.07,3.17.64,1.51,3.51,1.46,5.43,0,1.1-.86,2.14-1.18,3.25-1.07,3.7,1,6.69,4.77,7C382.78,699.46,384.29,699.34,385.83,699.34Zm-30.21,84.9h.13c0,2.83.16,5.67,0,8.48-.39,5.88.94,11.61,1.31,17.41.13,2.12,1.16,4.14,3.49,4.23,2.57.09,3-2.16,3.26-4.22a23,23,0,0,0,.07-2.5c.15-13.22.14-13.26,13.41-13.93,3.06-.16,5.23-1,5.35-4.46s-1.63-5.36-5-5.61c-2.81-.22-5.67.14-8.47-.16-3.15-.33-6-1.48-5.81-5.45s3-4.35,6-4.4,6,.17,9,.06c4.18-.16,4.5-3.27,4.53-6.41s-1.45-4.86-4.9-4.76c-5,.15-10,0-15,0-5.31.09-7.23,1.94-7.36,7.21C355.52,774.58,355.62,779.41,355.62,784.24Zm285.14-138.7c-2.87,5.68-7.78,9.9-6.92,16.58.29,2.25-.82,5.22,1.76,6.23s4.46-1.29,6.36-2.91c4.36-3.71,7.1-8.4,9.87-13.37,3.42-6.11,4.18-12.76,6-19.19,1-3.74-1.23-5.66-5-5.42-6.52.39-12.89,1.49-18.66,4.82-.87.5-1.77.88-2.1,2C630.74,638.67,635.57,645.4,640.76,645.54ZM638,762.09V762c-3.82,0-7.64,0-11.46,0-3.45,0-4.64,2-4.55,5.17.11,3.89,2.48,5.22,6,5,4.59-.24,6.15,2.06,6.06,6.37-.11,5-.23,10-.8,14.92a61.27,61.27,0,0,0,.1,16.4c.35,2.25,1.45,3.73,3.93,3.57s4.17-1.16,4.37-3.84c.13-1.65.22-3.32.23-5,0-7.81,0-15.62,0-23.43,0-8.47,0-8.54,8.33-10.11,2.74-.51,4.18-1.8,4-4.65-.13-2.7-1.28-4.43-4.23-4.43ZM219.69,644c1.31-.12,3,.26,4.37-1.13,5-5.07,8.62-11.17,12.78-16.88,3-4.18,2.54-9.15,3.84-13.7.61-2.15,2.61-4.45.28-6.38s-5.5-1.39-8.06-.14c-5.85,2.85-11.13,6.49-14.83,12.07-3.23,4.89-5.7,10-6.3,16C211.21,639.35,214.41,643.74,219.69,644Zm365.17-13.2a25,25,0,0,0-8-11.38c-1.44-1.1-3.25-3-5.12-.58-1.75,2.31-5.07,5.48-2.33,7.74,4.36,3.61,6.08,8.57,9,12.9,1.6,2.38,3.41,2.67,5.27.61,2.94-3.28,4.56-8,9.93-8.54.44,0,.88-1.32,1.12-2.09,4.18-13.42-5.88-27.92-20.06-29-1.53-.11-3.18-.24-4.08,1.19-1.19,1.85.69,2.62,1.71,3.54,6.36,5.76,10,13.35,13.79,20.79C586.74,627.3,586.73,628.88,584.86,630.77Zm-17.39,52.45c-1.39-3.19-2.55-7.7-5.07-11.24-4.69-6.61-10-12.82-17.23-17-1.62-.93-2.75-3.48-5-1.84-2,1.46-1.66,3.88-1.27,6,1.48,8.06,5.67,14.76,11.16,20.58,3.24,3.43,6.51,7.14,11.34,8.5C565.37,689.36,567.61,687.8,567.47,683.22ZM721.71,788.87c0,6.66,0,13.32,0,20,0,2.74.82,4.48,3.9,4.59s4-1.86,4-4.47c-.39-13.83,1.2-27.59,1.31-41.4,0-2.78-.64-5.24-3.83-5.38s-4.48,2.14-4.78,5.2C721.57,774.55,721.82,781.71,721.71,788.87ZM65.34,547.75c-2.06-1.08-1.75-2.68-2.42-3.74a1.43,1.43,0,0,0-2.45-.37c-2.34,2.12-1.65,11.92.94,13.61,5.42,3.53,6,6.84,2,12.06-1.67,2.2-1.13,3.23,1.47,3.6a7.89,7.89,0,0,0,9-8.43,20.2,20.2,0,0,1,.92-8.29c1.44-4.43,2.11-9.07.42-13.69-1-2.72-2.38-3.63-5.23-1.83C67.47,542.3,66.24,544.63,65.34,547.75Zm542.19,86.51c-.14-1.52-.15-2.69-.37-3.83-.37-1.88-.09-4.72-2.41-4.93-2.64-.25-2.32,2.74-2.83,4.5a29.05,29.05,0,0,1-15.36,18.51c-5.13,2.66-10,5.78-15.33,8.09a3.92,3.92,0,0,0-2.28,5c.41,1.42,1.93,1.1,3,.74,8.78-2.94,17.95-5.38,25.34-11.06C602.73,647.06,607.4,641.62,607.53,634.26ZM23.11,534c0,1.36-.05,2.89,1.48,3.35,1.71.52,2.16-1.08,2.76-2.24,1.27-2.43,3.62-4.11,6-3.61,2.56.55,1.67,3.55,1.75,5.6,0,1.5-.29,3.24,1.41,3.91,2.13.84,4-.23,5.25-1.88,2.41-3.19,4.88-6.17,8.65-8,1.77-.84,3.14-2.64,2.11-5s-.74-5.7-3.86-6.48c-2.35-.59-4,1.3-5.21,3.15-2,3.1-4.72,3.4-7.8,2.22C29.15,522.6,23,527,23.11,534Zm591.31,75.76a7.65,7.65,0,0,0-1.81-5.54c-6-7.46-13.71-12.93-21.28-18.57-1.42-1.06-3.08-1.73-4.32.17-1.14,1.75-.18,3,1.3,4.17,7.91,6.48,14.84,13.68,16.89,24.27a20.64,20.64,0,0,0,1.27,4.3c1,2.21,2.71,2.79,4.13.7C612.53,616.41,614.64,613.48,614.42,609.76Zm-286.79,63.4c1.08-.38,1.83-.7,2.6-.9,3.68-1,4.52-2.17,1.14-5a16.68,16.68,0,0,0-21.73,0c-1.77,1.58-2,2.76-.48,4.54,4.16,5,8.84,8.84,15.87,8.33,1.94-.14,4.17.33,5.2-2S328.52,675.26,327.63,673.16Zm-269-159.25c0,2.48-.19,5,.05,7.44s1,4.87,1.38,7.33c.26,1.63,0,3.46,2.25,3.9,1.38.27,2.76.15,3.49-1.24a5.35,5.35,0,0,0,.22-5.24c-3.69-6.9-3-11.14,2.61-17,1.59-1.65,3.08-4,1.56-5.71-2.15-2.38-3.38-6.49-7.89-5.9-2.45.33-2.73,2.05-2.73,4C59.61,505.66,58.47,509.74,58.66,513.91Zm-23.51,34c-6.34-.11-11.65,4.05-10.46,8.58a55.65,55.65,0,0,0,4.24,10c.89,1.8,2.4,3.44,4.68,3.07,2.56-.43,3.49-2.73,3.47-4.87a56.6,56.6,0,0,1,1.62-12.25C39.25,549.92,38.46,547.77,35.15,547.91Zm74.39,23.34c-.08-5.13-1.94-6.87-6.44-6.07a18.89,18.89,0,0,1-10.85-1.57c-4.85-2.2-6.73-2.64-8.88,2.1a11.94,11.94,0,0,1-5.15,5.7c-1.15.67-3.07,1.69-2.13,3.38s2.92,1.27,4.52.7c5.67-2,10.12-6.31,17.14-6.11,4.55.14,6.91-.22,7.24,4.76.05.83.2,1.74,1.21,1.94a2.06,2.06,0,0,0,2.4-1.35A26.41,26.41,0,0,0,109.54,571.25Zm473.8,97.07c-.09-1.47-.34-4.18-2.65-3.28-3.91,1.54-8.05,1.84-11.9,3.21-2.44.87-2,4-.93,5.14,2.24,2.33,2.36,7,6.49,7.06C577.14,680.45,583.27,671.75,583.34,668.32ZM25.13,369.09c2.85-1,5.81-2,8.74-3,.25-.1.55-1,.41-1.12-2-2.39.27-4.34.58-6.49.19-1.32.21-2.78-1-3.63-1.58-1.1-2.57.36-3.2,1.34-1.67,2.58-4.17,3.55-6.92,4.38a4.94,4.94,0,0,0-3.7,5.27C20.25,368.58,23,368.39,25.13,369.09ZM212.19,598.72c1.08,2-.66,5.24,3.05,6.82,2.78,1.18,4.79.47,6.76-1.23,4.23-3.65.43-6-1.48-8.67-1.5-2-3.48-4.14-6.09-3.4C211.59,593.05,212.74,596.13,212.19,598.72Zm-72.06,58.94c-1.49,3-2.09,6.08-4.26,8.55-.57.65-1.06,2.26-.7,2.7,4,4.88,3,10.65,3.19,16.21,0,.82.3,1.78,1.39,1.61s1.12-1.16,1.15-2C141.21,675.72,141.71,666.67,140.13,657.66Zm-5-389.34h0c0-1,0-2,0-3-.06-1.49,0-3.3-1.89-3.58-2.31-.34-2.62,1.75-2.8,3.31a38.23,38.23,0,0,0-.09,6.42c.07,1.37-.48,3.39,1.67,3.55,2,.15,2.8-1.56,3.11-3.26A19,19,0,0,0,135.1,268.32ZM12.37,560.53c-.33-1.9-.34-4.14-2.84-4-3,.17-4.81,2-4.83,5.18,0,3,2.05,5.17,4.41,5C12.67,566.54,11.29,562.65,12.37,560.53Zm118,123.08c.49-1.71.14-3.28-1.8-3.28-3.51,0-4.61,2.84-5.23,5.61-.37,1.61,0,3.61,2.3,3.59C129.43,689.49,129.75,686.38,130.33,683.61Zm-4.56-117.25c-.41-1.27-.4-4.26-2-3.55-2.54,1.16-4.16,4-4.77,7-.31,1.48.29,2.76,2,2.62C124.62,572.19,125.49,569.6,125.77,566.36ZM77.12,520.17a3.52,3.52,0,0,0-2.23,4c.36,2.28.73,4.84,4.09,4.41,2-.26,2.89-1.53,2.54-3.49C81.09,522.62,79.45,521.13,77.12,520.17Zm84.06,173.49c.61,1.53-.1,4.23,2.77,4.32,2.41.08,2.9-2.08,2.77-3.92-.16-2.23-.23-5.36-3.09-5.42C161.11,688.58,161.68,691.58,161.18,693.66Zm-42-134.18c-.69-1.68-2-1.69-3.35-1.55-2.47.25-3.72,1.93-4.19,4.15-.29,1.32.82,1.8,1.84,1.45C115.78,562.75,118.05,561.81,119.2,559.48ZM80.59,599.81c0-2-1.48-2.72-3.26-2.75-1.62,0-2.37,1.11-2.15,2.7s.18,3.59,2.53,3.62C79.85,603.4,80.44,601.84,80.59,599.81ZM31.31,620.28c-.16-1.42.29-3.46-1.67-3.66S27,618.26,26.86,620s.14,3.61,2.38,3.6C31.29,623.63,31.19,621.77,31.31,620.28ZM153.24,91.47c.44,1.11.08,3.31,2.16,3s1.79-2.48,1.82-4.06c0-1.28-.11-3.07-1.8-3C153.16,87.55,153.49,89.67,153.24,91.47ZM185,694.68c-.29-1.14.09-3.21-1.91-3.24-2.27,0-2.19,2.06-2.21,3.69s.14,3.28,2.18,3.2S184.92,696.41,185,694.68ZM120.08,585.49c1.91-.48,2.45-2,2.52-3.65.05-1.34-.26-2.91-1.88-2.92-2.17,0-2.31,2-2.48,3.54A2.52,2.52,0,0,0,120.08,585.49Zm28.73,108.66c-.17-1.11,0-2.58-1.71-2.33-1.34.2-1.62,1.48-1.63,2.65s.19,2.54,1.62,2.56C149,697.05,148.57,695.31,148.81,694.15Z" transform="translate(-1 -1)"/><path d="M1,36c2.94-3.23,6.49-4,10.88-3.89,9.12.28,13.71,3.93,14.93,13,1,7.74,4.45,10.9,11.88,11.26,3.48.16,6-.67,6.16-4.68.23-4.5-2.06-8.15-5.41-8.51-.65-.07-1.35.13-1.88-1.08,6.55.18,6.51-4.62,6.81-9.06.6-8.9,1.92-10,10.36-7.29,3.26,1,6.27,2.9,10.08,4.72-6.37,3.19-5.76,8.59-3.87,12.73,2.32,5.11,8.32,5.64,13.39,6.17,3,.32,5.8-.13,8.4,2.09,2,1.73,3.68.62,4.38-1.87a16.19,16.19,0,0,1,1.36-4.24c1.15-1.82,1.81-5.22,4.76-4,2.35,1,3.77,3.63,3.88,6.47a10.41,10.41,0,0,1-.53,2.94c-1.19,4.65-2.62,9.27,1,13.64a4.73,4.73,0,0,1,.5,2.9A252.17,252.17,0,0,0,98.44,98c.65,8,0,8-7.63,10.25-4.62,1.34-7.55,3.45-8,9.22-1,14.08-7.37,25.34-20.13,32.31-2.34,1.29-5.06,2.51-7.2-.24-3-3.9-3-10.92.61-12.64,5.22-2.49,4.91-7.05,5.7-11.32.3-1.61.17-3.41-1.52-4.45-1-.61-2.15-1.17-3.22-.18s-.34,1.79.28,2.61c1.23,1.64,2.7,3.64,1,5.36a7.57,7.57,0,0,1-6.77,2.39c-4.25-.76-8.51-1.55-12.77-2.25-2.52-.41-5-1.63-7.39,1-1.41,1.52-3.13.85-3-1.74.15-3.24-5.22-9.76-8.46-9.63-3,.13-4-1.25-4.16-3.69-.35-5.33-5.18-7.51-7.85-11.17-1.79-2.44-4.55,1.65-7,.16ZM34.89,79.48a11.84,11.84,0,0,0-1-5.31c-1.18-2.47-3.27-2.57-5.48-1.94-2.05.58-5,0-5.22,3.37A68.09,68.09,0,0,0,23,85.49c.42,4.34,2.3,5.11,6.18,3.44C33.45,87.09,35.06,83.87,34.89,79.48ZM19.57,108.06c-.11,1.35-.18,3.15,1.78,3.25,1.8.1,1.68-1.76,1.66-3,0-2.46.54-4.3,3.45-4.31,2.22,0,4.69,0,4.36-3.14-.31-3-2-5.8-4.94-6.06a4.6,4.6,0,0,0-5.16,4.77A35.3,35.3,0,0,1,19.57,108.06ZM63.42,90c1.78,0,5.13-.06,5.06-3.09-.09-3.92-4.06-4.77-7.24-5.52-2.47-.57-4.15.52-4.29,3.37C56.74,88.91,59.4,89.75,63.42,90ZM14,75.37c-3.08,0-6.44,3.67-6.24,6.87.15,2.3.42,4.59.68,6.88.13,1.12.09,2.68,1.54,2.72,1.78,0,1.83-1.73,1.89-2.94.17-3.73.64-7.22,4.16-9.5a1.81,1.81,0,0,0,.43-2.64A2.76,2.76,0,0,0,14,75.37Zm43.67,25c-2,.95-1.73,2.87-1.63,4.6.1,1.56-.08,3.94,2,4,2.43,0,3-2.33,2.83-4.39C60.7,102.79,60.07,101,57.67,100.4ZM52.35,47.88C54,48,55,47.27,55,45.67s-.63-3.11-2.35-3.21a3,3,0,0,0-3.26,2.94C49.26,47.31,51.05,47.46,52.35,47.88ZM93.9,89.54c-.07-1.39-.69-2.33-1.45-2-2.54,1.1-3,4.38-5.5,5.68-.39.19.27,1.11,1,1.31a.87.87,0,0,0,.47.06A8.3,8.3,0,0,0,93.9,89.54Zm-18.48-.23c-.31-1.55-1.09-2.77-2.83-2.88-1.56-.1-2.57.72-2.44,2.36a2.81,2.81,0,0,0,3,2.7C74.42,91.53,75.2,90.66,75.42,89.31Z" transform="translate(-1 -1)"/><path d="M1,433c2.32-.92,3.53-2.95,4.88-4.85,1.47-2.08,3.12-4,5.81-4.38,4.19-.59,4.89-3.35,4.6-6.88a47.87,47.87,0,0,1-.32-6c.09-2.16,1.35-3.34,3.63-3.12s3.15,1.06,2.92,3.57c-.44,4.9,4.1,6.83,6.72,9.78,1.05,1.18,2.41-.35,2.6-1.85.32-2.47.69-4.91-1.25-7.09a7.68,7.68,0,0,1-1.31-8.41,12,12,0,0,0,.49-7.34c-.35-1.52-.72-3,1.24-3.73a3.77,3.77,0,0,1,4.09,1c5.24,4.8,9.71,4.85,15-.43,3.86-3.82,8.21-4.58,13.42-5.2,8.68-1,17.24,0,25.83-.33,5-.19,9,1.09,12.1,4.53,2.63,2.89,5.19,4.54,9.11,3,1.82-.73,2.9.39,3.39,2,.44,1.39,1.1,3.08-.23,4.22s-2.34-.3-3.52-.83c-3.44-1.56-7.23-.53-10.86-1.05s-7.58,1-9,5.53c-.2.65-1.56,1.61-1.72,1.49-3.87-2.78-7.24,1.88-11.27.55-3.44-1.14-5.63,3-8.24,4.54-4.3,2.57-9.06,3.95-13.44,5.83C47.05,421.24,40.6,428.29,32,431.79A61.48,61.48,0,0,0,16.5,441c-1.05.85-2.4,1.32-2.28,2.91.14,1.95,1.86,2.05,3.25,2.52,6.31,2.15,12.88,3.57,18.76,6.88a8.32,8.32,0,0,0,4.36.76,18.8,18.8,0,0,1,7.3,1.46c2,.81,4.72,1.44,4.59,3.95s-1.83,5.52-4.48,6c-4.2.75-4.86,3.39-5.2,6.72-.28,2.78-.84,5.58-4.48,5.4s-3-3.32-3.39-5.66c-.31-1.87.67-4.48-1.67-5.28-1.91-.65-3.19,1.48-4.43,2.71-2.33,2.3-4.3,2.08-6.3-.34-1.2-1.45-2.65-2.86-4.67-2.12-2.26.83-1.39,3-1.64,4.78C15.44,477,17.67,483,13,487.7c-1.1,1.11.31,2.11.65,3.14.62,1.9-.72,2.3-2.09,2.58s-3.51-.21-3.14-1.44C10.52,485,3.66,484.49,1,481Zm65.24-25.74c1.66-.24,3.54-.45,3.39-3.08-.17-3.08-4.49-7.14-7.47-7a3.24,3.24,0,0,0-3.39,3.51C58.71,402.77,63.83,407.3,66.24,407.26ZM11.87,465A2.32,2.32,0,0,0,9,462.65a5.09,5.09,0,0,0-5,5.16c-.13,1.69.69,3.11,2.5,2.9C9.68,470.35,11.53,468.43,11.87,465Z" transform="translate(-1 -1)"/><path d="M555,1c3.1,4,4.23,8.63,4.4,13.53A148.67,148.67,0,0,1,558,39.31c-2.85-1.27-2.06-3-2-4.29a148.49,148.49,0,0,0-.37-19.45c-.12-1.45-.08-3.23-1.84-3.77-1.59-.48-2.11,1.26-3.13,2C547,16.44,548,21.38,545,24.62c-5.53,5.83-11.52,11.47-14.73,19.18-3.33,8-8.29,15.69-4,24.9a3,3,0,0,1,.29,1.92c-3.5,12-1.4,24.42-2.9,36.57-.19,1.54.4,4-2,3.77-1.77-.13-1.5-2.42-1.45-3.81.21-5.15,0-10.31.18-15.44.22-7.91-3.84-13.57-8.65-18.91-9.56-10.62-19.22-21.23-31-29.43s-24.19-15.55-38.47-19c-4.33-1-8.38-3.13-13-3.32-3.93-.16-7.59.29-11,2.5-1.07.69-2.86,1.2-3.61-.15s1.25-1.5,1.91-2.28c3.13-3.62,7.49-6.13,9.64-10.59.69-1.42,1.68-3.16-.17-4.5a3.44,3.44,0,0,0-4.6.37c-2.36,2.27-5.65,2.83-8.14,4.79-1.13.88-2.62,1.63-3.59.5-1.4-1.64.84-2,1.57-2.82,2.22-2.64,4.46-5.25,6.7-7.88h18c-3.17,5.94-2.88,11.27.76,14.06,4,3,9,2,13.6-2.65.14-.14.6,0,1.51.12-1.72,6.34,2,9.65,7.43,10,4.82.32,7.91.17,11.67,5.1a25.81,25.81,0,0,0,16.32,9.63c2.45.3,4,1.74,4.9,4.32,1.49,4.35,2.91,4.49,5.78.59,1.95-2.65,4.64-2.12,5.95-.57,1.69,2,3.91,3,5.72,4.65,2.67,2.42,4,5.56,5.15,8.78-3.39-2.34-6.43-4.94-9.6-7.34-1.07-.81-2.41-2.47-3.86-.92a3.58,3.58,0,0,0-.06,4.66c4.22,5.12,8.52,10.17,13.05,15,1.09,1.16,4.61,1.87,4-.6-1.28-5.28,2-8.42,3.78-12.37a6.72,6.72,0,0,0-4.66-9.1c-1.81-.44-3.33-1.72-4.91-2.14-4.28-1.15-7.08-5.65-12-5.05-4.53.54-5.15-.2-3.92-4.6,2.62-9.3-1.56-14.58-11.1-13.77-4.3.36-8.56,1.14-12.85,1.68a2,2,0,0,1-2.21-.78A1,1,0,0,1,471,18.1c4.68-.66,8-4.66,12.9-4.91,9-.47,9.95-2.07,6.64-10.26A13.66,13.66,0,0,1,490,1h7c-3.36,5.61-.83,11.06.91,16.24,3.83,11.45,12.76,18.51,22.43,24.89,2.22,1.46,2.78.63,3.73-1,1.9-3.28-.73-4.68-2.45-6.66-1-1.13-2.51-3-1-4.38s2.5.55,3.25,1.79c1.3,2.13,3.38,2,5.33,1.64,2.17-.42,2.43-2.33,2.8-4.22.79-4.13-1.81-6.86-3.69-9.94-4.76-7.76-9.7-15.19-20.38-15A7.87,7.87,0,0,1,501,1h15c5.3,2,8.91,6,12.65,10.06,3.13,3.37,4.13,7.88,6.9,11.39,1.11,1.4,2.17,2.78,3.87.7,3.77-4.61,8.84-8.22,10.85-14.18.9-2.66,1.82-5.31,2.73-8Z" transform="translate(-1 -1)"/><path d="M395,1c0,3-1.54,4.54-4.48,4.88-3.48.39-6.36,2.87-10,2.81-1.43,0-2.85,1.22-2.48,2.59,1.06,4-1.57,5.66-4.06,7.61-.83.66-1.06,2.45-2.53,1.76-1.13-.53-1-2-1.1-3.15-.21-2.66-.07-5.36-.51-8-.38-2.24-1.76-2.87-3.3-.7-1.84,2.58-3.57,5.15-3.46,8.61.18,5.66.14,11.32.14,17a7.68,7.68,0,0,0,4.69,7.13c3.66,1.67,7.2-.35,10.14-2.5,2.23-1.63,3.73-4.24,5.9-6,1.68-1.36,4.05-3.47,6.08-1,1.7,2-.27,3.74-1.8,5.46a38.17,38.17,0,0,1-12.74,9.36c-6.65,3.07-10.8,1.54-13.35-5.22-1.35-3.59-3.58-3.76-6.63-2.27-7.09,3.47-12.84,8.88-19.14,13.44-9.63,7-19,14.42-27,23.27-6.42,7.11-13,14.12-18.3,22.2-.46.71-.78,1.71-1.7,1.57-1.42-.21-1.56-1.56-1.72-2.71a51.81,51.81,0,0,0-7.2-19.36c-3.92-6.54-10.62-9.69-16.95-13.21-1.27-.71-2.56.08-3.77.71-1.42.74-2.22,0-2.54-1.36s.11-2.42,1.56-2.61c2.32-.3,5.11-.78,6.81.64,4.2,3.5,8.36,3.23,13.47.45-.54,7.64,3.11,12.83,7.53,17.72a7.55,7.55,0,0,1,1.19,3.21c.36,1.45.36,3.18,2.31,3.39a4.94,4.94,0,0,0,4.84-2c1.77-2.62,3.5-5.3,3.07-8.74a15.83,15.83,0,0,1,.51-6.4c1.35-4.61,3.72-6.83,8.76-5a7.6,7.6,0,0,0,8.28-2.07,144.64,144.64,0,0,1,11.8-10.62c2.8-2.35,4.67-5.25-.08-7.79-.74-.4-1.64-1-1.12-1.84a3.32,3.32,0,0,1,2.06-1.17c3-.68,6-.16,8.94,0,2.78.2,5.58.18,5.91-3.6.29-3.35-1.45-4.88-4.73-5-1.26,0-2.65,0-4.21-2.35,6.24,0,11.69-4.5,17.09,1.3,1.63,1.75,4.14,1.57,6.06.36,2.11-1.31,2.2-3.77,1.57-5.85-2.22-7.32-3.13-15-6.12-22.09A17.19,17.19,0,0,1,352,1h6c-.32,2.3-.11,4.84,2.46,5.2S363,3.68,363.82,2A4.27,4.27,0,0,0,364,1h7q6.19,9.47,13,0Z" transform="translate(-1 -1)"/><path d="M360.89,117.3c4.42-1.84,8.44-4,12.41,1a18.12,18.12,0,0,0,6.44,4.62c1.46.69,3.11,2.59,5,1.17,1.68-1.26,1.18-3.31,1.08-5.13-.26-5.15-2.59-9.6-4.77-14.1-.65-1.35-2.76-2.62-.7-4.23,1.63-1.27,3.88-2.06,5.5-.34,3.47,3.68,7.14,3.38,11.38,1.67,5.75-2.33,10.91,1.1,14.68,4s4.75,8.5,3.12,13.85c-.63,2.09-3.95,5.28.49,6.5,3.6,1,5.51-1.47,6.3-5.26,2.08-10,14.51-15.27,23.62-10.29a11.31,11.31,0,0,0,8.16,1.36c4.08-.9,6.82.79,7.65,5a14.6,14.6,0,0,0,2.95,6.71c1.92,2.37,1.82,5.25-.41,7.74a22.31,22.31,0,0,0-2.39,3.17c-.58.94-1.59,2-.56,3.15s2.41.6,3.68,0c8.54-3.65,11.81-1.44,12.21,7.88.3,6.76-.31,13.24-3.44,19.39-.83,1.64-2,4,.22,5.41s4.26-.12,5.82-1.61a43.45,43.45,0,0,0,5.21-6c1.7-2.35,3.06-2.08,4.6,0,1.95,2.69,3.89,5.39,5.91,8,1.21,1.55.51,2.81-.4,4.06-1.36,1.89-2.87,3.67-4.15,5.61-2.63,4-5.8,7.73-2.5,13a5.72,5.72,0,0,1-.76,7c-2.85,2.65-3.19,6.55-5.52,9.39a3.24,3.24,0,0,0-.61,2.78c2.54,4.85-.26,8.21-3,11.61-1.78,2.22-2.88,4.39.5,6,2.45,1.2,2.65,3.31,2.5,5.49-.34,4.8-.76,9.53-2.68,14.13a32.29,32.29,0,0,0-1.93,10.25c-.29,4.3-2.26,5.94-6.42,5.48-2-.23-4.22-.47-4.63,2.4a4.09,4.09,0,0,0,3.09,5c3.13,1,5.71,5.22,9.7,1.28,1-1,1.85.87,2.34,1.86.79,1.61,1.24,3.57-.69,4.37-8.26,3.4-8.94,12.44-13.84,18.33-1.65,2-1.14,4.9.81,6.91,2.44,2.52,2.62,5.28,1.31,8.27-1.18,2.67-1.19,5.09.73,7.47,1.19,1.48,1.33,3.36,1.4,5.22.14,3.86-1.94,7.87,2.09,11.42,1.59,1.4.24,4.76-.64,7.15C470.55,349,470,352,474.6,353c1.37.3,2.39,1.25,1.36,2.44-3.91,4.53-3.72,10.13-4.43,15.52,0,.38-.61.7-1,1.12a6.65,6.65,0,0,1-2.6-5.72c.59-8.31-4.47-16.56-.18-24.89.89-1.73,1.55-4.12-1.23-5-2.19-.66-4.36-.28-5.31,2.35a20.7,20.7,0,0,0-.91,12.26c.77,3.15.87,6.19-2,8.72-2.41,2.15-1.72,5-.47,7.38,4.2,8.15,4,10.66-2.65,16.59a5.64,5.64,0,0,0-2.13,4.68c0,2.68-.1,5.35-2.42,7.31-1.6,1.35-.71,3.05-.52,4.66.21,1.84-.28,3.57-2.35,3.73-2.27.18-3-1.79-2.5-3.41,2.71-8.69-.65-18.61,5.86-26.62,2.68-3.3,1.91-8,2.06-12.14.21-5.65.05-11.32.31-17a32.54,32.54,0,0,1,5.9-18.06c1.7-2.38,1.43-5.25,0-8.12-2.14,3.46-2.71,7.56-5.58,10.62-2.31,2.46-3.48,2.32-4.4-.65a16.72,16.72,0,0,0-4-6.27c-4.93-5.36-7.6-5.83-13.4-1.49s-12.48,4-19.13,3.88c-1.37,0-2.49-1-1.88-2.24.78-1.56,2.61-2.6,3.31-4.16,1.18-2.63,2.49-1.95,4.22-.82a2.45,2.45,0,0,0,2.8-.31,35,35,0,0,1,9.43-4.52,2.25,2.25,0,0,0,1.77-2.17,2,2,0,0,0-1.94-1.92c-5.67-.8-8.71-5.76-13.27-8.29-7.13-3.94-12.55-10.72-20.55-13-3.28-.94-5.86-1.33-6.35-5.28-.14-1.15-1.62-1.63-2.9-1.2-1.63.54-2.24,1.95-2.48,3.47-1,6.08-2,12.16-.74,18.36.4,2,1.27,4.16-.5,6.57-1.68-2.56-3.08-4.54-6.85-4.14-2.4.26-2.88-3.69-2.85-6.12.07-4.82.6-9.64.76-14.46.06-1.81,1.17-4.55-1.67-5-2.35-.35-2.51,2.29-2.95,3.95-.71,2.73-1.2,5.52-1.66,8.31s-2,5.07-4.92,4.35c-3.69-.91-5.07,1.18-6.82,3.52-2.75,3.7-2.55,7.87-2,12,.46,3.36,3.17,4.32,6.28,4.52,3.3.21,6.68-.58,9.9.76,1.74.73,2.83,1.93,2.55,3.82-.35,2.42-2.14,1.37-3.52,1.23a126.76,126.76,0,0,0-40.15,1.9c-3.89.85-4.88,4.35-5.61,7.56A98.51,98.51,0,0,1,320.23,345c-.82,2.12-2,3.42-4.42,3.16-2.64-.29-2.45-2.41-2.46-4.18-.07-8.58-4.46-14.78-10.93-19.74-2.34-1.8-3.76-3.94-3.32-6.79.67-4.38-.82-7.73-3.93-10.68a15.66,15.66,0,0,1-4-5.67c-.62-1.63-.89-3.06,1.09-3.61,3.86-1.06,4.08-4.13,3.9-7.15-.55-9.58-.84-19.05-3.6-28.56-1.88-6.48-2.48-12.42-9.6-15.28-1.49-.6-2.39-2.68-3.57-4.07-5.18-6.09-5.18-6.09-.42-12.86a4.68,4.68,0,0,0,.58-5.17c-.8-1.47-2.14-1.32-3.45-.55-1.12.66-2.34,1.78-3.38,0a3.26,3.26,0,0,1,.33-3.78c1.94-2.24,3.43-4.91,6.1-6.49,4.16-2.48,5.05-6,2.93-10.27-1.63-3.25-2.72-6.7-4.57-9.92-2.4-4.19-.34-9.1-.24-13.69,0-.86,1.18-1.22,1.94-.45,2.11,2.13,4.74,3.94,7.52,2.65,3.56-1.64,7-3.84,9.07-7.5,1.15-2,2.42-4,3.65-5.94a9,9,0,0,1,1.44-2c3.84-3.36,8.49-5.61,12.66-8.46,3.92-2.67,9.85-4.29,14.44,1.06,2.3,2.68,6.49,3.31,8,7.1,1,2.39.4,3.42-2.1,3.63-2.32.19-4.65.36-6.95.7-3,.46-4.59,2.5-3.75,5.32.92,3.09,3.74,2.28,5.9,1.56s4.63-3.28,6.57-.27.53,6.13-1.27,8.86c-.71,1.08-2,1.79-2.67,2.88-.78,1.25-1.47,2.82-.23,4.16s2.66.26,4-.34c6.82-3,10.17-9.37,14.3-14.9,1.49-2,2.67-3.71,5.41-3.69,2.38,0,3.57-1.58,2.88-3.6-2.1-6.23-2.66-13.07-7.16-18.35-.71-.83-1.32-2.26-2.72-1.54-1.18.61-1.17,2-.93,3.15.45,2.11,1.36,4.13,1.69,6.25.3,1.87,1,4.15-1.39,5.31-1.94,1-3.32-.34-4.93-1.36-7.61-4.81-11-12.54-14.55-20.23-2.43-5.17-7.19-6.15-12.17-3-1.3.83-2.6,3-4,.85a3.86,3.86,0,0,1,1.35-5.31c4.33-2.76,8.58-6,13.36-7.61s8.55-4.3,12.23-7.35a9.15,9.15,0,0,1,6.92-2.15c1.91.15,2.93,1,2.63,3.31-.59,4.55,1.74,6.82,6.31,6.59s7.88-3,10-6.53S362,120,360.89,117.3ZM331.23,253.75c1.08-.09,1.91-.2,2.74-.23,1.95-.07,4.38-.86,5.32,1.45.8,2-.54,3.83-1.79,5.42-.41.52-1,.92-1.41,1.41a2.47,2.47,0,0,0-.48,3.19c.76,1.23,1.91,1.1,3.1.72a9.39,9.39,0,0,0,3.35-2.07c14.66-13.09,29.4-26.09,50.08-28.71,1.42-.18,2.65-.76,2.86-2.32s-1-2.32-2.33-2.81c-3-1.14-6.34-1.43-8.68.36-3.3,2.54-7.46,3.43-10.49,6.42-2.09,2.06-5.47,3.06-7.7,1s1-3.67,2-5.41c.34-.57.71-1.13,1-1.73,1.14-2.31,1.2-4.16-2.16-3.29-2.69.69-3.17-.88-3.64-2.78-.27-1.08.08-2.63-1.36-2.94s-2.21,1.1-3.08,2.1c-3.42,3.94-7.8,6.68-12.2,9.32-1.77,1.07-4,1.32-5.62-.21s-.23-3.29.32-5c1.89-6,3.61-12,5.32-18,.43-1.5.32-3.15-1.06-4.1-1.62-1.11-3,.27-3.91,1.25-2.41,2.56-4.78,4.71-8.59,5.23-1.29.18-4,2.47-2.84,4.28,1.09,1.64,3.16.11,4.55-1.32,2.41-2.47,3.93-.91,4.62,1.53s-.15,4.44-1.55,6.54c-4.37,6.54-9.46,12.83-8.28,21.58a4.85,4.85,0,0,1-2.79,4.93c-1.19.67-3.37,1-2.56,3,.64,1.58,2.57,1.19,4,1.26C329.15,253.8,330.32,253.75,331.23,253.75Zm50.95-89.31c0,4.66,0,9.32,0,14,0,1.16.09,2.52,1.54,2.79s1.83-1.1,2.22-2.19q1.82-5.18,3.64-10.36c.69-2,.25-5.54,2.24-5.58,2.79-.05,1.35,3.41,2,5.26.22.62.18,1.46.59,1.89,4.19,4.33,3.43,8.85,1,13.75-.77,1.55-1.72,4.37.74,5.21,2.13.73,3.68-1.6,4.32-3.39A99.48,99.48,0,0,0,404.67,172c.72-3.51,1.78-5.31,5.78-5.06,3.63.24,8.71-7.76,7.49-11.2-.65-1.85-2-2-3.62-1.32a6.57,6.57,0,0,1-6.26-.32c-4.1-2.48-6-1.15-6.61,3.22-.14,1-.35,2.12-1.4,2.48-1.45.5-2.39-.83-2.68-1.71-1.47-4.5-5.11-7.64-7.14-11.75-.86-1.73-1.09-4.2-3.86-3.69-2.57.47-3,2.65-3.51,4.88C381.65,153.14,383.21,158.8,382.18,164.44Zm28,37.13c-.15,1.72-.28,3,1,3.63s2.07-.62,2.95-1.3c14.2-10.91,22.3-26.5,31.54-41.2.73-1.17,2-2.95.24-4s-3.55.08-4.42,2c-3.28,7.18-9.39,12.41-13.15,19.27a5.69,5.69,0,0,1-6.46,2.81c-2.31-.51-3.33.6-4.11,2.55s-1.87,3.89-2.78,5.85C413.27,194.81,411.62,198.42,410.17,201.57Zm57.15,45.82c-4-.49-6-3.46-8.55-5.72a11.42,11.42,0,0,0-7.66-3.09c-4,0-7.69-1.74-11.47-3.07-5-1.76-9.33-5.07-14.62-6.1-1.24-.24-2.37-.36-3.06.88s-.08,2.24,1,2.91a128.22,128.22,0,0,1,26.72,21.14,9.73,9.73,0,0,0,2.47,1.66c.87.47,1.93,1.13,2.78.37,1.42-1.25-.23-2-.77-2.83-4.47-7.27-4.47-7.27-4.26-9.49C455.88,244.23,460.13,251.48,467.32,247.39ZM433.24,131.66c0-.83.06-1.66,0-2.48-.21-2.34.78-5.37-2.74-6.06s-4.79,1.5-6,4.45c-2.77,6.64-3.07,13.89-5.55,20.59-1.28,3.47,1.53,5.92,3.56,8.23,1.27,1.44,2.66.67,3.62-.86A45.31,45.31,0,0,0,433.24,131.66Zm-12.82,160c.22-2.55.68-3.67.33-4.43-4-8.54-8.56-16.73-14.84-23.84-1.46-1.65-3.24-1.86-4.87-.6-1.89,1.47-.91,3.33,0,4.91,1.16,2,3.45,2.88,4.85,4.87C410.21,278.7,414.93,284.53,420.42,291.67ZM339,300.15c.19-.88.1-1.76-.75-2.17a1.62,1.62,0,0,0-2.42,1c-1.07,3.58-4.1,5-6.9,6.83a14.4,14.4,0,0,0-3.59,3.42c-2.65,3.46.82,5.12,2.56,6.84,1.57,1.55,4.43,2.08,5.54-.48C335.63,310.57,337.2,305.31,339,300.15ZM317.77,212c-.5-1.32-1.6-1.52-2.78-1.53-5-.06-8,3.25-11,6.58-.78.9-1.59,2.31-.37,3.56,1.09,1.1,2.47.82,3.68.21a38,38,0,0,0,9.72-7.48A5.56,5.56,0,0,0,317.77,212Zm101.6,40.35c-.84-6.19-4.66-9.45-7.31-13.38-.23-.33-1.3-.38-1.82-.17-1.22.5-.85,1.61-.67,2.58.8,4.17,4.14,7.11,5.37,11.1.31,1,1.58,1,2.61.74A5.25,5.25,0,0,0,419.37,252.36ZM440,291.66c0-1.57-.36-2.25-1.71-2.2-2,.07-8.26,4.84-8.17,6.44.09,1.86.83,3.2,3,3.12C435.86,298.91,440,294.22,440,291.66Zm-118.33,31.4a3.15,3.15,0,0,0-.37-.88,36.5,36.5,0,0,0-10.23-8.35c-.93-.49-2-.63-2.67.36s0,1.83.67,2.65c2.72,3.53,7.07,4.69,10.48,7.22C320.46,324.75,321.46,324.5,321.66,323.06ZM430.32,215.83a36.8,36.8,0,0,0-13.21-2.19,2.31,2.31,0,0,0-2.6,2.42c0,1.43,1.1,2,2.32,2.15A19.9,19.9,0,0,0,430.32,215.83Zm13.38,92.8a34.89,34.89,0,0,0,3.63,0c1.75-.2,4.53.16,4.53-2,0-2.61-2.76-1.4-4.4-1.55a15.57,15.57,0,0,0-3.48,0c-2.38.32-6.62-1.49-6.56,1.79C437.46,309.77,441.88,308.23,443.7,308.63ZM362.3,192.86c-.22-.81-.14-3.29-2.37-2.57a9.28,9.28,0,0,0-6.34,6.29c-.46,1.87,2,2.28,3.64,2.18C360.41,198.56,362.59,197.23,362.3,192.86Zm19.76,8c0-.46.14-2.64-1.67-2.51-3,.21-3.75,3.38-5,5.5-.89,1.52.84,2.19,2.29,2.13C380.32,205.84,382.15,204.8,382.06,200.83Zm74.67-23.56c0-.71-.21-2.36-1.68-1.84-2.21.78-3.37,3.11-4.35,5.06-.7,1.4,1,1.75,2.23,1.66C455.61,182,456.64,180.25,456.73,177.27Zm-81.87-8.48c-.28-1.44-.44-3.28-2.18-3.39-2-.13-2.06,1.8-2.05,3.22s.17,3.35,2,3.43S374.62,170.27,374.86,168.79Z" transform="translate(-1 -1)"/><path d="M566.24,88.35a32.91,32.91,0,0,1,0,14.58c-.87,4.34,1.85,5.35,4.23,4.47,8.35-3.08,18.08-3.17,24.51-10.65a2.73,2.73,0,0,1,3.54-.94c1.48.73,1.48,2,1.3,3.43-.72,5.6-3.55,10.37-6.37,15-5.25,8.68-11.25,16.65-20.3,22-2.85,1.68-2.43,5.29-.91,8.18,5.49,10.42,10.18,21.21,15,31.94a10.06,10.06,0,0,0,8.16,5.85c18.11,2.76,30.71,13,38.92,29,1.55,3,4.27,5.69,3.82,9.56-.11.95.2,2.21-1.07,2.48s-1.52-1-2-1.83c-3.56-7.22-7.08-14.53-12.89-20.27-4.81-4.76-9.9-9.29-16.76-11-3.24-.79-5.73-3.45-9.27-3.51-2.29,0-5.14-.87-5.55,2.45-.35,2.84.88,4.92,4.19,5.78,8.29,2.16,16,5.54,21.54,12.5a68.57,68.57,0,0,1,10.6,20c3.68,10.25,4.92,20.9,6.68,31.5.23,1.37.7,2.7,2.05,3.22,1.78.68,2-1.06,2.88-2a18.76,18.76,0,0,0,4.52-11.84c.14-2.74.34-5.32,4.39-5.1,2.53.14,2.63-2.48,3.38-4.31,1.14-2.81,1-7.08,4.7-7.56,3.43-.45,2.38,4.1,4.26,6,2.75,2.7,1.89,6.53,1.92,10,0,.82,0,1.83-1.06,2s-1.44-.63-1.7-1.47-.49-1.6-.69-2.4c-.28-1.15-.48-2.42-1.87-2.68-1.61-.29-2.17,1.11-3.12,2-3.13,3.07-3.14,7.57-5.41,11.13-5.62,8.81-11.08,17.85-9.84,29.09.19,1.66-.15,3.61,1,4.8,4.34,4.45,1.78,8.19-1.16,11.67-2.4,2.85-3.19,6-3.57,9.59a221.81,221.81,0,0,1-8.46,42.95c-1.82,5.81-4.78,11.26-7.23,16.86-.51,1.17-.78,2.89-2.56,2.44-1.54-.39-1.66-2-1.65-3.32,0-6.59-1.53-12.85-3.5-19.07-1.71-5.43-3.64-6.84-9.43-6.51-2.59.14-5.74.87-6.42-2.89s1.35-6.4,4.24-8.42c1.29-.9,2.63-.23,3.61.76,2.68,2.71,6.76,3.5,9,6.93.89,1.35,2.92,2.76,4.77,1.74s1.47-3.23,1.3-5a524.78,524.78,0,0,0-12-73.88c-5.23-21.63-11.32-43.07-19.72-63.71q-8.34-20.48-17.9-40.45c-4.15-8.68-8.45-17.25-13-25.73-3.94-7.37-6-8.24-13.9-5.05-.93.37-1.9,1.13-2.78,1-8.1-.82-11.34,4.76-14.18,10.72-1.66,3.48-1.79,7.6.06,10.62A212.5,212.5,0,0,1,538,175.81c4.89,11.05,10.42,21.83,13.87,33.47.38,1.27.86,2.55.38,3.91-.35,1-.91,1.91-2,2s-1.74-.9-2-1.88c-1.72-7.31-6.12-13.45-8.83-20.34a10.89,10.89,0,0,0-6.95-6.67c-9.43-2.78-15.36-9.34-19.17-18.07a8.28,8.28,0,0,1-.55-2.93c0-1.11-.36-2.68,1-3,1.56-.34,1.57,1.32,2,2.35,2,5.41,6.13,9.37,10,13.37,1.2,1.26,3.53,3.46,5.64,1.55,1.83-1.65.83-4.15-.14-6.07-2.52-5-4.72-10.31-8-14.77-4.3-5.8-3.56-12-1.62-17.65,1.82-5.29,2.39-10.65,3.56-16s3-6,7.7-3.41c6.41,3.54,9.85,2.88,15.79-1.48s9.69-10.33,14.64-15.38c1.61-1.63.61-4.5.94-6.79C564.71,94.85,564.19,91.44,566.24,88.35ZM601,202.69c-3.69,2-2.22,5-1.2,7.33,3.49,7.93,5.49,16.29,7.7,24.61,1.24,4.62,1.83,10.77,5,13.17a49.47,49.47,0,0,0,14.26,7.71c2.42.76,3.35-.42,2.37-2.53-1.29-2.77-1.65-5.7-2.35-8.6-2.62-10.94-5.55-21.77-12-31.25C611.35,208.11,605.82,206.08,601,202.69Zm-32.38-70.36c2.6-.46,4.75-1,6.48-2.87,6.19-6.61,14-11.86,17.16-21,.44-1.29,3.51-2,1.11-3.82-1.6-1.21-4-1.65-5.44.18-1.76,2.28-4.38,2-6.44,3.17-6.15,3.33-13.47,3.33-19.39,7.31-2,1.32-3.3,2.82-2.5,4.76a72.93,72.93,0,0,0,5.65,10.84C565.83,131.8,567.63,131.93,568.65,132.33ZM630.3,293.17c0-3,.06-6,0-9-.07-2.61-1.5-3.44-4-2.91-3.28.69-7.22,5.1-6.57,8.24A147.57,147.57,0,0,1,623,310.19c.06,1,.34,2.2,1.43,2.41,1.45.29,1.78-1.13,2.41-2.08C630.32,305.19,630.37,299.2,630.3,293.17Zm-16.07-32.9c.47,2.59,1.07,5,1.32,7.49.36,3.53.61,7.59,4.22,8.88s5.37-3.11,8.13-4.68c.77-.44,1.19-1.55,1.65-2.42a2.57,2.57,0,0,0,0-2.84c-3.09-3.89-6.3-7.69-11.2-9.41C615.56,256.31,614.34,257.67,614.23,260.27Z" transform="translate(-1 -1)"/><path d="M192.81,349.85c-.42-6.41,1-11.73-3-16.12a3,3,0,0,1,.28-3.72c4.9-6.37,6-14,6.4-21.62.28-5,.28-9.77,2.75-14.48,2-3.8,1.76-8.43,1.57-12.75A17.43,17.43,0,0,1,203.45,271c2.13-3.64,2.12-8.59,2.8-13,.86-5.45,2-10.68,5.26-15.4,2.27-3.29,2.77-7.72,3.19-11.38,1-8.51,6.3-15.64,6.65-24.17a8.25,8.25,0,0,1,1.92-5c6.57-8,9.28-18,13.67-27.18,1.49-3.11,3.56-5.91,4.4-9.38.58-2.38,1-4.39-.79-6.51-2.35-2.76-1.22-4.08,2.13-4.28,4-.23,9.3-5.68,9.29-9.56,0-2.94-1.23-5.25-4.47-5.67a6.3,6.3,0,0,1-4.71-3.28c-4.59-7.27-11.15-12.4-18.34-16.86-.88-.55-2.66-.59-1.93-2.24.55-1.24,2.17-1.26,3.1-.77a59.9,59.9,0,0,1,9.25,5.57c7.59,6,13.34,14.35,23.05,17.67,2.24.76,2,3,1.2,4.7-1.5,3.14-2.88,6.45-5,9.14-4.48,5.69-6.86,12.39-10.05,18.71-3.33,6.6-6.94,13-9.77,19.9-3.52,8.53-6.87,17.11-10.21,25.71-2.22,5.72-3.6,11.69-6,17.37-2.14,5.14-3.08,10.78-4.52,16.16-4.09,15.19-7.6,30.54-10.85,45.95-2.4,11.43-2.14,23.23-5.38,34.5a7.46,7.46,0,0,0-.09,3c.24,1.91-.4,4.59,1.84,5.26s1.7-2.39,2.92-3.38c1-.83,1.93-1.84,3-2.68.65-.54,1.47-.91,2.23-.17s.25,1.48-.33,2.12c-5.2,5.72-7,13-9.07,20.1-.53,1.77-.44,4.89-2.87,4.55-2.71-.37-1.72-3.45-1.89-5.46S192.84,350.62,192.81,349.85Z" transform="translate(-1 -1)"/><path d="M405.4,49.87c13.86,1.25,26.9,5,39,12.13,19,11.26,34.26,26.61,48.42,43.27a186.24,186.24,0,0,1,15.46,20.59c1.67,2.63,4.23,2.66,6.6,2.36s1.8-2.75,1.91-4.5c.18-2.65.29-5.32.54-8,.09-.92.26-2.18,1.66-1.93,1,.18,1,1.26.93,2-.52,4.4.32,9.11-2.64,13-1.67,2.2-1.1,4.79-1.49,7.22-.21,1.31-.21,2.88-1.58,3.47-1.77.75-2.89-.81-3.64-1.94-3.09-4.69-6.12-9.41-9.49-13.93C487.07,104.82,471.72,87.18,452,74c-16.26-10.84-33.88-18.55-54.12-16.88a62.76,62.76,0,0,0-28.37,9.43c-5,3.13-10.28,5.83-15.46,8.68A1.35,1.35,0,0,1,352,74.7c-.31-.75.38-1.1.88-1.56,6.86-6.25,14.46-11.84,22.84-15.33C385.08,53.91,394.6,49.24,405.4,49.87Z" transform="translate(-1 -1)"/><path d="M674,208.89c0,11.83,0,23.65,0,35.48a34.33,34.33,0,0,1-.41,5c-.12.78-.45,1.7-1.45,1.81s-1.43-.88-1.55-1.61c-.78-4.78-3.95-8.34-6.17-12.39-.48-.89-1.28-1.76-.8-2.74,2.23-4.64.78-7.33-3.64-10-3.54-2.1-5.18-6-2.84-10.46.79-1.5,1.23-3.51.42-4.85-4.06-6.79.68-12.1,2.83-17.75,1-2.52,2.09-4.83,1.76-7.62-.94-7.89,2.06-13.95,8.73-17.53,2.41-1.29,2.49,1,2.6,2.21.33,3.81.44,7.64.46,11.47.06,9.66,0,19.32,0,29Z" transform="translate(-1 -1)"/><path d="M479.59,473.44c-4.54-.48-7.12-3.15-10-5.11a13.07,13.07,0,0,0-4.31-2.29c-2.71-.66-4.25,0-4.19,3,.1,4.19-1.14,6.12-5.62,3.8-1.74-.9-4-1.39-4.94,1.37-.78,2.35-.16,4.18,2.32,5.27,2,.87,3.79,2.05,5.73,3,1.07.54,2.33,1,2,2.43-.4,1.8-2,1.34-3.3,1.28a4.83,4.83,0,0,1-4.28-2.82c-1.51-2.61-3.8-5.14-7.2-3.22s-4.73,4.89-2.06,8.71c.71,1,3.11,2.62.56,4-2,1.08-2.83-1-4-2.15a7.66,7.66,0,0,1-1.73-8.36c1.24-3.53,2.47-7.48,5-10a12.76,12.76,0,0,0,4-9.11c.24-6.31,3.26-11.67,6.32-16.94,1.8-3.09,4.53-3.75,7.64-1.72s5.13,6.84,3.5,8.93c-1.9,2.42-4.56,1.42-7,1-1.58-.24-3.26-1.56-4.44.47-1,1.75-.47,3.63.42,5.25,2.7,5,7.94,5,10.89.3a9.52,9.52,0,0,1,2.15-2.69c1.37-1,1.63-3.9,4-3s3.1,3.61,2.79,5.45C473,465.73,476.23,469.17,479.59,473.44Z" transform="translate(-1 -1)"/><path d="M314.25,436.37c-1.81.46-3.18-.77-4.74-1.25-2.62-.81-5.06-1.21-7.51.83s-5.17,2.86-6.11-1.64c-.41-2-2.24-2.29-3.46-3.33-1.05-.9-1.93-2.19-.53-3.37a2,2,0,0,1,3.3.86c2.32,5.34,5.5,3.64,8.42.89,1.82-1.71,3.12-1.19,4.82-.15A4.38,4.38,0,0,0,314,429c6.15-4.85,14.24-1.8,15.51,5.8.67,4-2.74,6.49-3.87,9.89-1.9,5.73-5.47,10.88-5,17.37.11,1.36-.84,2.84-1.41,4.21-.49,1.19-.76,2.74-2.42,2.85-1.18.09-1.63-1-2.05-1.87a3.39,3.39,0,0,1,.71-4.09c1.2-1.31,4.12-2,2.45-4.64-1.41-2.22-3-4.61-6.37-3.58-1,.3-2.1.64-2.4-.74-.38-1.75.92-2.35,2.33-2.54,3.64-.48,6.73-1.69,8.47-5.27C322,442.12,318.69,436.19,314.25,436.37Z" transform="translate(-1 -1)"/><path d="M363.15,334.7c4-1.5,6.4-1.36,6.56,3.19.05,1.23,1.32,1.81,2.28,2.48,1.18.82,2.09,1.93,1.09,3.33a2.26,2.26,0,0,1-3.55.13c-3.85-4.43-7.61-3.13-11.68-.39a5.68,5.68,0,0,1-3.85.66c-3.68-.69-7.23-1.84-7.87,3.84-.14,1.17-1.86,1.1-3,.69-3.51-1.23-6.84-3.7-6.42-7.2.4-3.34,2-7.62,7.14-7.41,1.53.07,3.23-.15,4.05-1.49,3.76-6.18,9.42-3.41,14.39-3C365.6,329.86,364.83,332.22,363.15,334.7Z" transform="translate(-1 -1)"/><path d="M474.89,565.64a3.28,3.28,0,0,1,.58,3.19c-.92,3.63,1.79,4.61,3.9,3.54,4.61-2.34,7.36-3.18,10.61,2.56,1.86,3.28,7.13,2.36,10.76-.47,4.34-3.39,6.42.95,9.25,2.86s.69,3.86-.05,5.61c-1.13,2.65-3.69,2-5.7,1.65-9.83-1.76-19.68-3.4-29.39-5.69-5.77-1.36-11.57-2.54-17.62-4.18C465.24,575.63,469.51,569.48,474.89,565.64Z" transform="translate(-1 -1)"/><path d="M271.55,183.41c1.76,4.46-2.5,8.19-3.55,12.76A54.94,54.94,0,0,1,258.14,218c-3.11,4.06-3.88,9.67-5.95,14.51-2.85,6.64-5.1,13.62-4.31,21.15.22,2.07-.87,3.67-3.27,3.32-2.6-.37-2.27-2.05-1.86-4.11,2.39-12.13,7.12-23.57,10.5-35.4,2-7.11,6.19-13.79,8.83-20.88,2.29-6.11,6.68-11.53,6.41-18.55-.05-1.2-.3-3.16,1.49-3.13s1.5,1.89,1.55,3.18C271.6,179.54,271.55,181,271.55,183.41Z" transform="translate(-1 -1)"/><path d="M431.75,484.92c-4.44.93-8.47,1.23-11.23,4.43a1.49,1.49,0,0,1-1.41.19c-6.14-3.31-6,1.75-6,5-.19,8.11-1.87,16.18-.63,24.34a6.43,6.43,0,0,1-1.73,6.22V485.28c0-1.33,0-2.66,0-4a3.53,3.53,0,0,0-2.4-3.46c-1.5-.53-2.45.43-3.45,1.38-1.68,1.59-3.45,3.08-5.21,4.59a4.46,4.46,0,0,1-4.65.91,3.1,3.1,0,0,1-1.91-2.72c-.23-1.7,1.07-2,2.23-2,5.75.14,8.69-3.77,11.81-7.71a23.83,23.83,0,0,1,6.58-6c2.79-1.63,4.11-.57,4.26,2.3.17,3.15.11,6.32.09,9.48,0,2.91,1.28,4.19,4.26,4.14S428.51,482.27,431.75,484.92Z" transform="translate(-1 -1)"/><path d="M279.88,110.46c-1.73,9.9-4.44,20.56-5.59,31.49-.14,1.39-.71,2.62-2.4,2.71-1.22.06-2.73-.16-3-1.32-.68-3-5.92-5.84-.33-9.09,1.19-.69.64-2,.47-3.21-.69-4.7-3.6-8.14-6.56-11.48-1.14-1.28-2.89-2.46-1.89-4.12,1.33-2.22,2.82.21,4.24.52,2.07.46,4.07,3.76,6.11,1.13,1.91-2.45,4.7-5.18,3.22-8.89-.81-2-1.5-3.46,1.38-3.93,2.55-.41,4.28.33,4.34,3.27C279.89,108.21,279.88,108.87,279.88,110.46Z" transform="translate(-1 -1)"/><path d="M573,346.88c-1.72,7.34,5.09,9.27,8.54,13.19,4.43,5,10.46,8.11,16,11.71,1,.67,2.82,1,1.87,2.84-.72,1.37-2.23,1.41-3.55,1-3.35-1-6.67-2-10-3.1-1.55-.5-3-1.62-2.6-3.2,1-4-1.21-5.81-4.2-7.18-5.15-2.37-6.12-8.3-10.29-11.72-3.06-2.51-5.63-3-9-2.19-1.24.3-2.67,1.2-3.41-.63-.53-1.29.37-2.14,1.28-2.95,3.08-2.73,6.1-5.52,9.16-8.26,1.76-1.56,3.3-1.66,4.11.91C572,340.44,574,343.34,573,346.88Z" transform="translate(-1 -1)"/><path d="M482.42,422.1c-4.71.77-6.3,2.75-2.5,6.66a2.46,2.46,0,0,1,0,3.24c-1.2,1-2.08-.36-2.9-1.05-2.55-2.15-6-3.1-8.36-4.93-4.4-3.45-7.74-8-14.21-7.54-1,.07-1.36-1.71-1.38-2.92a78.49,78.49,0,0,1-.08-8.94c.36-3.68,4.67-3.55,6.42-6,.43.44,1.12.81,1.25,1.32.42,1.63.76,3.57-.75,4.64-2.86,2-3.64,4.59-1.69,7.22s5,2.65,7.7,1.23c4.7-2.47,8.4-.8,11.45,2.68C478.82,419.35,481.39,419.43,482.42,422.1Z" transform="translate(-1 -1)"/><path d="M514.79,525.72c.82-1.88-.34-3-1.66-4.16-6.44-5.65-12.73-11.48-20.29-15.66-1.68-.92-3.63-2-2.53-4.1,1.18-2.24,3.46-.8,4.76,0,3.06,1.92,5.71,4.49,8.74,6.45s6.45,3.36,8.46-1.48c.79-1.89,2.07-1.46,3.2-.68a48.68,48.68,0,0,1,5,4.06c1.88,1.72,1.9,3.09-1,3.63-1.54.3-3.85-.19-4,2s1.76,3.79,3.56,5,4.88,1.6,4.64,5c-.2,2.88-1,4.84-4.42,4.57C516.32,530.22,513.82,529.72,514.79,525.72Z" transform="translate(-1 -1)"/><path d="M550.86,90.94c-.09,4.93-4.59,6.29-7.55,8.39-4.45,3.16-9.47,5.46-12,10.7a1.86,1.86,0,0,1-1.91,1.31c-1.23-.2-1.47-1.27-1.48-2.27-.06-7.79-.27-15.6,0-23.38.1-3.15,1.9-4.2,4.48-1.52.69.72,1.67,1.26,2.11,2.1,3.88,7.29,9.59,8.1,16.52,4.8Z" transform="translate(-1 -1)"/><path d="M407.19,346.22c1-6.31,8.57-12.44,13.76-11.76,3.71.49,7.26-.26,10.86-.43,4.59-.21,11.08,2.81,13,6.84a3.6,3.6,0,0,1-.92,4.51c-1.84,1.8-3.88,3.22-6.63,2.63-1.9-.4-2-1.88-1.84-3.51.32-4.52-3.2-4.11-5.4-3.2-5.14,2.13-10,2.75-15.37.83C411.88,341.12,409.89,343.66,407.19,346.22Z" transform="translate(-1 -1)"/><path d="M278.48,167c.81-5.27,0-11.25,6.8-13.66,2.73-1,1.92-4.42,3.44-6.37,5.78-7.4,10.53-15.5,15.64-23.35a13,13,0,0,1,2.33-2.58c.92-.83,1.89-2.55,3.25-1.36s0,2.48-.75,3.81c-5.17,9.74-12.75,17.89-17.78,27.79-2.73,5.38-5.74,10.65-8.2,16.19-.64,1.45-1.48,2.72-3.34,2.3C278.4,169.45,278.34,168.23,278.48,167Z" transform="translate(-1 -1)"/><path d="M290.28,471.74c-5.24-.23-6.23-1.58-4.76-6.77,1.08-3.81-.5-7.23-1.53-10.69-1.6-5.4-.73-10.18,2.92-14.45.89-1.05,1.88-2.16,3.35-1.25s1.42,2.46.75,4c-3,6.78-.7,19.61,4.45,24.17,1.61,1.42,1.3,2.37,0,3.61C293.92,471.71,292.13,471.77,290.28,471.74Z" transform="translate(-1 -1)"/><path d="M194.8,385.73c-1.37-4.72-5.34-6.92-8.44-9.89-2-1.89-2.72-3.82-1.34-6.17,2.25-3.84.24-6.85-2.53-8.56-3.63-2.22-5.34-6.25-9-8.29-.84-.46-2.31-1.5-1.12-2.74,1-1.07,2.07,0,2.95.83,3,2.76,5.78,6,10.71,4.63,2.23-.61,2.58,1.5,3.12,3.06,2.5,7.31,3.69,15,6.63,22.2A4,4,0,0,1,194.8,385.73Z" transform="translate(-1 -1)"/><path d="M527.59,380.28c2,.06,3.35.49,2,2.64a17.43,17.43,0,0,1-2.49,3.11c-3.79,3.72-3.62,6.18.68,9,5.49,3.55,8.65,9.86,14.89,12.59a1.81,1.81,0,0,1,.51,3c-1.54,1.46-3.26,3.1-5.42,3.25-1.36.1-1.26-1.67-1.28-2.82a9.34,9.34,0,0,0-5.19-8.47c-4.27-2.45-7.59-6.39-12.68-7.63-2.38-.58-2.4-3.12-1.26-4.51,2.69-3.29,6.13-5.93,8.58-9.49C526.22,380.47,527.12,380.45,527.59,380.28Z" transform="translate(-1 -1)"/><path d="M437.07,456.41c-.11.54-.09.8-.19.85-5.67,3.28-2.67,6.21.07,9.6,1.24,1.53.47,3.88-.78,5.57-.94,1.26-2.34,1-3.65.6-2.19-.69-2.58-2.6-2.45-4.41.29-4.07-1.38-6.16-5.47-6.61-2.29-.25-3.29-1.43-1.49-3.63,2.4-2.94,4.74-5.93,7.13-8.88.56-.69,1.62-1.22,2.15-.59C434.35,451.26,434.84,454.51,437.07,456.41Z" transform="translate(-1 -1)"/><path d="M497.08,596.94a8.12,8.12,0,0,1-1.49,0c-.65,0-1.36-.18-1.55-1a1.48,1.48,0,0,1,1.21-1.86c2.42-.55,4.88-1,7.33-1.37s4.53-.9,6.26-2.72c1.43-1.5,2.09-4,4.73-4,5.14,0,10.29,0,15.42.26,1.71.08,1.57,1.4.77,2.55a5.29,5.29,0,0,1-3.65,2.43C516.71,592.07,508.07,596.6,497.08,596.94Z" transform="translate(-1 -1)"/><path d="M258.32,331.85c2,3.66,7.24,2.28,8.63,6.27,2.35,6.7,6.26,12.62,9.12,19.06a12,12,0,0,0,1.29,2.11c.84,1.19,3.46,2.2,1.12,3.81a3.44,3.44,0,0,1-4.8-1.43c-1.48-3.37-4-6.11-5.48-9.39-2.21-4.77-3.7-9.76-9.53-11.93-2.58-1-2.81-4.29-2-7.05C256.77,332.81,257.53,332.5,258.32,331.85Z" transform="translate(-1 -1)"/><path d="M507.4,269.45c2.71,2.27,6.15,1.09,9.38,1.46,2.16.25,7.11,8,6.76,10.18-.18,1.18-.48,2.4-1.9,2.58s-1.87-1-2.32-2.1c-.91-2.31-2-4.54-2.85-6.87-.67-1.88-2-2.47-3.8-2.61-2-.16-3.06.93-3.64,2.69a56.91,56.91,0,0,0-2.1,6.61c-.41,2.14-1.36,3.36-3.53,3.38-1.95,0-4.31.82-5.66-.9-1.71-2.19,1.31-2.91,2-4.35,1.42-2.8,3.2-5.41,4.79-8.12C505.17,270.39,505.71,269.36,507.4,269.45Z" transform="translate(-1 -1)"/><path d="M554.45,555.85c-5.77.81-10.35,1.23-14.82-.82-2.59-1.19-3.89-2.89-2-5.4,1.43-1.89,2.1-6.1,6.12-3,3.27,2.55,5.84,2,7.37-1.95.79-2,2-3.42,4.06-2a3.09,3.09,0,0,1-.14,5.15C551.45,550.18,551.59,552.62,554.45,555.85Z" transform="translate(-1 -1)"/><path d="M532.08,473.38c-.34,1.68-.11,3.22-1.43,4-1.54.92-2.4-.53-3.4-1.31-5.89-4.6-11.73-9.26-17.66-13.8-1.6-1.22-2.09-2.61-1.32-4.32.93-2.09,3.05-2.56,5-2.83s2.42,1.38,2.64,2.93c.67,4.78,4,7.18,7.85,9.4C526.73,469.16,531,469.43,532.08,473.38Z" transform="translate(-1 -1)"/><path d="M580.87,319c-1.39-3.43-2.68-6.56-3.92-9.71-1.45-3.66-4-5-7.87-4.09a13.54,13.54,0,0,1-2.94.47c-1.61,0-3.24-.6-3.25-2.35s1.86-1.52,3.09-1.71c4-.63,8.95,1.33,11.32-4.06C585.25,310.31,585.57,312.09,580.87,319Z" transform="translate(-1 -1)"/><path d="M306.88,402.06c-5.57-2.59-11.05-3.85-9.45-11,.39-1.75-.9-2.37-2.26-2.7-2.21-.54-3.22-2.16-4-4.07-.74-1.72-1.85-3.62.82-4.48,2.27-.73,5.83-2.14,6.39,1.16,1.1,6.53,6.29,11,7.61,17.24C306.15,399.11,306.39,400,306.88,402.06Z" transform="translate(-1 -1)"/><path d="M475.18,315c8,.56,12.95-4.21,17.95-9.1,2-2,3.64-.17,4.78,1.59s1.93,3.94-.88,4.81c-4,1.24-6.74,3.92-9.61,6.72-2.11,2-5.09,2.49-6.71-.58C479.47,316.12,477.77,315.63,475.18,315Z" transform="translate(-1 -1)"/><path d="M190.86,292.19c-1.24-5.27-1.48-9.22-3.25-12.91-2-4.26-3.79-8.44-8.76-10.09a2,2,0,0,1-1.26-2.83c.66-1.57,2-1.55,3.37-1.21,3.81.91,4.94,5.28,8.46,6.57,4.36,1.62,3.92,5,3.34,8.61S193.46,287.54,190.86,292.19Z" transform="translate(-1 -1)"/><path d="M537.74,233.65c.37.43.6.62.57.67-3.79,6.62-1.58,12.85,1,19.16.59,1.44.77,3.74-1.29,4.22a3.68,3.68,0,0,1-4.58-2.86c-.59-3.81-.78-7.52-4.43-10.06-1.28-.89-.09-2.34.77-3.44A32.14,32.14,0,0,1,537.74,233.65Z" transform="translate(-1 -1)"/><path d="M315.09,360.38a7.94,7.94,0,0,1,.06,1.35c-.41,2.12,2,5.33-.87,6.19-2.65.8-2.61-2.72-3.54-4.51-.29-.57-.68-1.31-1.2-1.51-6.54-2.47-2.05-6.88-1.72-10.41.15-1.57,2-2,3.6-2s2.32,1.1,2.84,2.39C315.41,354.75,314.76,357.79,315.09,360.38Z" transform="translate(-1 -1)"/><path d="M174.15,674.63c-3.83.16-6.18-.29-7.34-3.08-.66-1.59-1.29-3.4.35-4.53s2.13,1,3,1.73c2,1.64,3.78,2.31,6.24.68,3.21-2.13,7.09-1.21,10.67-1.66A1.63,1.63,0,0,1,189,669c.22,1-.59,1.57-1.35,1.77C182.77,672,178.35,675.17,174.15,674.63Z" transform="translate(-1 -1)"/><path d="M652.62,377.41c5.15-.48,10.29-1.11,15.45-1.38,2.23-.12,3,1.29,2.65,3.67-.66,4.46-3.88,7.59-5.59,11.5a1.16,1.16,0,0,1-1.64.64,2.51,2.51,0,0,1-.76-1.68c-.15-1.73.76-3.11,1.55-4.59,2-3.78,1-5.47-3.2-5.93-2.85-.31-5.69-.69-8.54-1C652.57,378.2,652.6,377.81,652.62,377.41Z" transform="translate(-1 -1)"/><path d="M305.24,366.49c1.08,6,5.76,10.43,6.95,16.32.23,1.14,1.82,2.51,0,3.43a3.94,3.94,0,0,1-4.22-.72c-2.86-2.34-4-5.54-4.43-9.14A18.14,18.14,0,0,1,305.24,366.49Z" transform="translate(-1 -1)"/><path d="M488.83,346.23c-1.45,2.88.53,6.11,2.77,9.33.53.77,1.57,1.64,1,2.64-.73,1.19-2.06.7-3.18.51a4.52,4.52,0,0,1-3.93-3.36c-.68-2.66-.5-5.51-3.42-7.31-1.3-.8-.45-2.62.78-3.29,1.78-1,2.82-3.64,5.47-2.71C489.72,342.55,489.52,343.8,488.83,346.23Z" transform="translate(-1 -1)"/><path d="M241.05,388.17c1.41.15,3-.09,3.68,1.24s-.46,2.58-1.22,3.53c-2.54,3.18-5.67,5.88-7.59,9.58a1.78,1.78,0,0,1-2.91.63c-1.19-1-1.32-2.69-.18-3.48,3.34-2.34,4.28-5.54,4.51-9.35C237.47,388.11,239.53,388.27,241.05,388.17Z" transform="translate(-1 -1)"/><path d="M521.23,446.32c-4.22.23-7.31-3.42-7.07-5.26.48-3.55,5.42-2.83,8.14-3.42,2.9-.62,3,4.05,3.33,6.21C526.17,447,522.59,445.58,521.23,446.32Z" transform="translate(-1 -1)"/><path d="M266,332.36c-3.59-7.55-3.59-7.55,4.12-16.26C273.3,322.58,268.53,326.66,266,332.36Z" transform="translate(-1 -1)"/><path d="M513.43,286.17c1.23,1.81,5.25-3.53,5.24,1.33,0,2.91-1.69,6.66-6,6.69-3.17,0-4.9-1.52-4.83-4.9C507.91,285.39,510.43,285.74,513.43,286.17Z" transform="translate(-1 -1)"/><path d="M203.25,366.12c1.82,4.76,1.94,9.24,2.33,13.67.13,1.49.24,3.23-1.63,3.68-2.13.5-2.24-1.46-2.71-2.78C199.47,375.74,199.63,371,203.25,366.12Z" transform="translate(-1 -1)"/><path d="M502.41,326.73c.72-2.92,1.21-5,1.72-7s1.66-3.7,4.18-3.27c1.9.32,4.45,0,5,2.39.61,2.59-1.54,3.78-3.58,4.7C507.55,324.52,505.33,325.46,502.41,326.73Z" transform="translate(-1 -1)"/><path d="M287.77,373c-.36,1.44.49,4.78-2.27,4.11-3.45-.84-4.93-4.25-4.78-7.92.07-1.74-.22-3.9,2.49-4.1C286.11,364.88,287.79,367.69,287.77,373Z" transform="translate(-1 -1)"/><path d="M228.87,380.75c-.61-5.45-.44-10.68,3.43-15.08.73-.83,1-2.47,2.41-2a2.37,2.37,0,0,1,1,3.77c-4.25,4.08-4.18,9-3.58,14.23.12,1-.4,2.12-1.68,2C228.65,383.52,228.65,382.05,228.87,380.75Z" transform="translate(-1 -1)"/><path d="M511.13,336.36c-1.4-.27-3.47.2-3.46-2.29,0-1.43,6.41-6,8-5.82s3.5.64,3.23,2.85C518.36,335.6,514.88,336.14,511.13,336.36Z" transform="translate(-1 -1)"/><path d="M551.6,251.76c-.15,1.4.6,3.46-1.31,3.8s-2.09-1.82-2.51-3.12c-.83-2.53-3.39-4.18-3.41-7.08,0-1.18-.15-2.41,1.09-3.07s2.22.13,3.13.85C551.43,245.36,551.31,248.63,551.6,251.76Z" transform="translate(-1 -1)"/><path d="M544.73,297.72c3.35-.17,5.56,2.06,5.64,4.55.09,3.08-3.41,3.05-5.72,3.38-3.8.53-3.66-2.76-4-5C540.28,297.55,543,298.15,544.73,297.72Z" transform="translate(-1 -1)"/><path d="M566.05,253.9a5.66,5.66,0,0,1,1,1.23c1.49,3.26,3.64,5.81,7.12,7.05.79.29,1.65.81,1.29,1.76a3.05,3.05,0,0,1-1.59,1.68c-2.17.75-4.57.6-5.74-1.46-1.66-2.94-5.79-5-4-9.37A1.47,1.47,0,0,1,566.05,253.9Z" transform="translate(-1 -1)"/><path d="M158.64,573.1c-.15,1.06.36,2.32-1,2.61a2.66,2.66,0,0,1-3-1.33c-1.9-3.52-1.91-7.27-.95-11A2.05,2.05,0,0,1,155,562c1-.21,1.38.77,1.56,1.54C157.28,566.79,158,570,158.64,573.1Z" transform="translate(-1 -1)"/><path d="M303.15,414.88c.07,2.22-.88,3.95-3.65,3.95-3.56,0-4.34-2.73-4.64-5.38-.23-2.13,1.3-3.44,3.45-3.28C301,410.38,303.27,411.22,303.15,414.88Z" transform="translate(-1 -1)"/><path d="M199.31,251.84c-1.4,5,.76,10.54-2.53,15.16-.59.82-1.13,1.83-2.28,1.57s-1.36-1.34-1.4-2.36c-.1-2.35-.41-5.2,1.41-6.61C197.22,257.51,198,254.74,199.31,251.84Z" transform="translate(-1 -1)"/><path d="M263.57,313c-2.39.41-3.06-1-3.19-2.86-.22-3.1,1.49-4.67,4.37-5s3.91,1.42,4,3.94C269,313,265.48,312,263.57,313Z" transform="translate(-1 -1)"/><path d="M567.87,73.41a5.89,5.89,0,0,1-3.17,5.82c-1.16.61-2.6.92-3.68-.24-.94-1-.46-2.17.08-3.22s1.21-2.35,1.9-3.48c.79-1.3.66-3.86,2.84-3.4S567.45,71.82,567.87,73.41Z" transform="translate(-1 -1)"/><path d="M176.83,367.22c-4.32-2-8.09-2.64-8.78-7.1-.31-1.95-.14-3.74,2.06-4.4s2.61,1.09,3.18,2.73C174.18,361,175.32,363.53,176.83,367.22Z" transform="translate(-1 -1)"/><path d="M484.69,384.9c-2-.36-5.17.53-4.85-2.68s3.79-4.1,6.39-4.44c2.28-.31,3.21,2.29,3.18,4.22C489.37,385.06,486.77,384.77,484.69,384.9Z" transform="translate(-1 -1)"/><path d="M313.75,480.39a2.4,2.4,0,0,1-1.37,2.26,3,3,0,0,1-3.26-.43c-1.39-1.12-2-3-3.92-3.67-1.38-.45-3.22-1-1.95-3.06.93-1.5,2.56-1.33,4-.63C310,476.18,311.83,478.48,313.75,480.39Z" transform="translate(-1 -1)"/><path d="M228.52,580c-.06,2.25.2,3.86-1.23,4-1.77.18-1.83-1.58-2-2.86-.41-3.4,0-6.89-3.45-9.41-1.18-.87-1.51-4,.45-4.73,1.81-.7,1.82,1.83,2.19,3.09C225.6,573.85,229.38,576.64,228.52,580Z" transform="translate(-1 -1)"/><path d="M262.13,277.88c1.81,3.11,5.95,3.64,7.32,7.4.61,1.68.89,2.81-.83,3.63s-3.36,1-4.19-1c-1.28-3.09-2.28-6.29-3.4-9.44Z" transform="translate(-1 -1)"/><path d="M551.12,284.73c-.35-1.78,0-2.78,1.35-2.41,2.59.72,5.31,2.41,5.62,4.81s-2.84,5-4.71,4.66C549.2,290.93,553.62,286.24,551.12,284.73Z" transform="translate(-1 -1)"/><path d="M210.77,483.27c2.16.14,6.37,7.61,5.54,9.46a1.52,1.52,0,0,1-2.43.78c-2.68-2-5.19-4.26-4.56-8.18C209.48,484.33,209.64,483.32,210.77,483.27Z" transform="translate(-1 -1)"/><path d="M581.1,543.81a2.75,2.75,0,0,1,.48-3.44c2.08-2.82,2.67-5.36-.88-7.51-.69-.42-1.38-1.05-1-2s1.29-1,2.11-1c1.83.09,3.9.09,4.54,2.26.72,2.43,1,5.17-1.29,6.88A14.5,14.5,0,0,0,581.1,543.81Z" transform="translate(-1 -1)"/><path d="M440.26,428.87c.92,3.52,1.59,6,2.22,8.51.45,1.81.38,3.37-2.05,3.5-2.09.11-3.08-1.07-3.1-3C437.3,435,438,432.37,440.26,428.87Z" transform="translate(-1 -1)"/><path d="M594.91,400.48c-.18,1.88.09,4.07-2,3.69s-4.47-1.35-4.58-3.9a4.28,4.28,0,0,1,4-4.44C595.49,395.82,593.86,399.23,594.91,400.48Z" transform="translate(-1 -1)"/><path d="M548.49,396.59c-.22,1.71-.79,3.59-3.22,3.19-2-.33-3.88-1.21-3.93-3.75,0-2.28,1.22-3.3,3.42-3.29C547.15,392.75,548.49,393.86,548.49,396.59Z" transform="translate(-1 -1)"/><path d="M595.36,415.3c.15,2.71-1.18,4.12-3.85,3.86-1.71-.16-4.67-.31-4.19-2.33.61-2.61,3.62-4.22,6.14-4.92C595.2,411.42,595.08,413.9,595.36,415.3Z" transform="translate(-1 -1)"/><path d="M487.07,152.26c-2.8-3.51-2.65-6.82-3.84-9.61a1.59,1.59,0,0,1,1.31-2.21,2.53,2.53,0,0,1,3.18,1.62C488.88,145.11,488.43,148.07,487.07,152.26Z" transform="translate(-1 -1)"/><path d="M265.71,404.6c-2.14-1.51-4.89-2.56-5.25-5.84-.16-1.49.48-3.23,1.88-2.67a9,9,0,0,1,5.25,6A2,2,0,0,1,265.71,404.6Z" transform="translate(-1 -1)"/><path d="M663.59,278.81c-1.1-8.66-.54-17.33-.34-26.55,2.46,9.21,1.22,17.87.33,26.53Z" transform="translate(-1 -1)"/><path d="M338.4,459.65c.07-1.56-.24-3.52,1.92-3.38s2.66,2.36,2.76,4.1-.25,4.36-2.41,4.11S338.81,461.4,338.4,459.65Z" transform="translate(-1 -1)"/><path d="M552.82,532.54c-2.83-.49-4.88-1.85-5.56-4.47-.39-1.48,1.15-1.9,2.27-1.92,3,0,4.38,1.9,4.82,4.61C554.54,531.94,553.89,532.61,552.82,532.54Z" transform="translate(-1 -1)"/><path d="M551,91.07c1-4.06,4.25-6.43,6.93-9.52.74,4.4-1.89,7.74-7.06,9.39Z" transform="translate(-1 -1)"/><path d="M508.45,254.11c-.37,1.49.26,4.05-2,3.8s-2.15-3-2.33-4.86c-.14-1.55.37-3.36,2.2-3.22C508.9,250,508.13,252.46,508.45,254.11Z" transform="translate(-1 -1)"/><path d="M601.27,435.43c1.73.68,1.41,2,.7,3.2-1.26,2.08-3.59,3.37-4.3,6-.23.84-1.37.79-1.93-.13S600.29,435.4,601.27,435.43Z" transform="translate(-1 -1)"/><path d="M288.31,407c2.21.25,3.35,1.47,3.36,3.63,0,1.13-.09,2.89-1.6,2.43a5.74,5.74,0,0,1-4.25-4.35C285.6,407.41,287.13,407.08,288.31,407Z" transform="translate(-1 -1)"/><path d="M442.28,570.71c3.14-1.54,5.67-1,8.17-.47.77.15,1.75.51,1.42,1.56a2,2,0,0,1-1.48,1C447.81,572.83,445.13,573.18,442.28,570.71Z" transform="translate(-1 -1)"/><path d="M226,418.12c-.23,1.6-.79,3.1-2.57,3.14-2.06.05-2.12-1.73-2.15-3.21s-.1-3.33,2.11-3.05A3,3,0,0,1,226,418.12Z" transform="translate(-1 -1)"/><path d="M591,487c1.34-1.51-.31-4.58,2.29-5.33,1.19-.34,2.3,1.45,2.09,2.82-.26,1.74-.59,3.78-2.66,4.38C591.6,489.22,590.91,488.44,591,487Z" transform="translate(-1 -1)"/><path d="M566.82,512.73c-.2,1.31-.21,2.94-2,2.83a3.86,3.86,0,0,1-3.55-2.95c-.5-2,1.26-2,2.48-2.14C565.42,510.25,566.66,510.83,566.82,512.73Z" transform="translate(-1 -1)"/><path d="M639.73,226.26c2.66,2.71,2.18,5.75,1.92,10C638.16,232.51,639.14,229.35,639.73,226.26Z" transform="translate(-1 -1)"/><path d="M194.05,572.65c0-2-.06-3.91,0-5.86,0-1.24.61-2.41,2.08-2.12,1.65.33,2,1.65,1.36,3.05-.79,1.76-1.78,3.43-2.68,5.15Z" transform="translate(-1 -1)"/><path d="M372.2,424.83c.09,1.55-.53,2.15-1.75,2-1.69-.22-3.33-.64-3.3-2.83,0-1.19.43-2.49,1.93-2.27C370.88,422,371.64,423.55,372.2,424.83Z" transform="translate(-1 -1)"/><path d="M552.55,356.89c-.09,2.1-1.31,2.77-2.9,2.92-1.2.11-2.57-.15-2.46-1.64a3.72,3.72,0,0,1,2.88-3.55C551.76,354.29,552,356,552.55,356.89Z" transform="translate(-1 -1)"/><path d="M299,336.83c1.19.14,3,.24,2.8,1.4-.4,2.14-2.84,2.79-4.44,4-.63.46-1.08-.86-1.12-1.68C296.16,338.52,296.64,336.93,299,336.83Z" transform="translate(-1 -1)"/><path d="M183.35,341c-1.38-.4-2.37-1.23-2.24-2.75s.71-3.28,2.33-3.26,2,1.9,2.09,3.38S185.05,340.88,183.35,341Z" transform="translate(-1 -1)"/><path d="M270.82,370c-1.52,1.68-3.18,3.64-5,5.42-.46.46-1.21-.1-1.39-.87s4.28-6.31,5.14-6.27S270.68,368.86,270.82,370Z" transform="translate(-1 -1)"/><path d="M324,416.77a2,2,0,0,1-2.23,2.18c-1.67,0-2.37-1.12-2.12-2.65.2-1.19-.05-3.23,1.58-3.13S323.38,415.32,324,416.77Z" transform="translate(-1 -1)"/><path d="M274.48,416.9c-1.87-.28-2.71-1.69-3.07-3.3-.24-1.11.64-1.83,1.74-1.89,1.61-.09,3,.49,3.3,2.2A2.52,2.52,0,0,1,274.48,416.9Z" transform="translate(-1 -1)"/><path d="M464.64,388.91c-.68,1.66-.23,4-2.48,4-1.3,0-1.53-1.65-1.32-2.81.3-1.58.51-3.77,2.34-4C465.3,385.9,464.12,388.07,464.64,388.91Z" transform="translate(-1 -1)"/><path d="M410.94,421.69a3,3,0,0,1-2.63,2.59c-1.71.18-2.23-1.24-2.26-2.64s.62-2.72,2.31-2.53A2.62,2.62,0,0,1,410.94,421.69Z" transform="translate(-1 -1)"/><path d="M565.48,234.06a18.45,18.45,0,0,1,.23-10.57A13.51,13.51,0,0,1,565.48,234.06Z" transform="translate(-1 -1)"/><path d="M284.33,307.87c.06,1.22-.54,2-1.75,1.85A3.12,3.12,0,0,1,279.5,307c-.16-1.23.81-1.8,1.87-1.83C283.15,305.11,284.08,306.15,284.33,307.87Z" transform="translate(-1 -1)"/><path d="M586.87,262.13c-.17,1.28,0,3.24-1.64,3.13-2-.12-1.54-2.25-1.56-3.64s-.17-3.1,1.81-2.81C587.22,259.07,586.72,260.87,586.87,262.13Z" transform="translate(-1 -1)"/><path d="M119.1,368.94c-1.34,0-2.18.06-3,0-2.23-.2-5.13.28-5.17-3.11,0-2.85,1.95-4.41,4.68-4.93a15.5,15.5,0,0,1,2.46-.2c5.49-.14,8.51,1.61,8,5C125.44,370.6,121.33,368.41,119.1,368.94Z" transform="translate(-1 -1)"/><path d="M86.45,165.46c.09,2.85-1.25,5.44-5,6.3-3.49.81-5.12,2.91-4.55,6.53.65,4-1.8,5.28-5.14,5.78-8.23,1.22-16.45,2.47-24.69,3.66-2.58.37-5.86,1.51-7.05-1.71-1.33-3.59-1.28-7.66,1.49-10.77A13.51,13.51,0,0,1,47,171.87c11.08-3.93,22.22-7.69,33.35-11.5C85,158.79,86.75,160.08,86.45,165.46Z" transform="translate(-1 -1)"/><path d="M37.25,140.52c-.47-3.92.92-4.84,3.73-4.22,6.5,1.44,10.58,11.16,9.76,15.67-.46,2.54-6.85,7.74-9.25,7.49s-2.8-2.09-3-4C38,150.19,38.78,144.8,37.25,140.52Z" transform="translate(-1 -1)"/><path d="M14.19,124.21c2.12.19,10,8,10.16,9.59.18,2.49-4.5,7-7.59,6.86-3.32-.14-5.83-1.62-5.54-5.56.21-2.81.46-5.63.85-8.43C12.26,125.3,13,124.14,14.19,124.21Z" transform="translate(-1 -1)"/><path d="M77.46,41.33c-1.92-.31-3.13-1.76-2.08-3.76a30.86,30.86,0,0,1,5.21-7.24,3.93,3.93,0,0,1,5.49-.25c1.49,1.33.93,3.46,0,4.61C83.85,37.45,82,40.9,77.46,41.33Z" transform="translate(-1 -1)"/><path d="M11.74,157.15c.29-3.26.26-6.37,3.49-8,1.11-.57,2.17-1.87,3.54-.59,1,.89.87,2,.55,3.24-.83,3-1.55,6.11-2.41,9.14-.41,1.43-1,3.31-2.57,3.36-1.87.05-1.83-2-2.13-3.44A35.51,35.51,0,0,1,11.74,157.15Z" transform="translate(-1 -1)"/><path d="M521.76,650.51c1.46,2.93,1.18,5.85.44,8.79A12.91,12.91,0,0,1,521.76,650.51Z" transform="translate(-1 -1)"/><path d="M289.52,787.88c-.19-3.15-.28-6.31-.58-9.44-.32-3.44,1.27-4.85,4.56-5,8.22-.45,12.8,3.25,13.69,11.54.62,5.79,1.1,11.52-3.23,16.54-2.57,3-5.56,4-9.19,4-3.17,0-5.12-1.27-5.15-4.66,0-4.31,0-8.63,0-13Z" transform="translate(-1 -1)"/><path d="M255.94,790.55c.43,4.14-.81,7.48-2.91,10.92s-4.76,4.79-8.58,4.45-6.4-2.79-7.86-6c-3.35-7.5-3.14-15.14.07-22.66A8.32,8.32,0,0,1,244,772a9,9,0,0,1,8,4.25C254.85,780.59,256.88,785.28,255.94,790.55Z" transform="translate(-1 -1)"/><path d="M180.8,789c-.35-6.82.57-12.91,7.62-16.41a6.09,6.09,0,0,1,6.5.3c7.8,4.79,10.46,22.19,4.59,29.36-2.53,3.09-5.36,4.8-9.47,3.62-4.63-1.32-7.12-4.71-8.36-9C181,794.37,181.07,791.62,180.8,789Z" transform="translate(-1 -1)"/><path d="M405.92,790.22c.1-5.74-.35-10.19,2.55-13.89,2.09-2.66,4.68-5.42,8.19-4.79a10.48,10.48,0,0,1,8.19,6.64,32.5,32.5,0,0,1,.25,21.07c-1.36,4.3-4.64,6.8-9.55,6.35-3.75-.33-8.17-4.67-9.1-9.37A43.81,43.81,0,0,1,405.92,790.22Z" transform="translate(-1 -1)"/><path d="M580.79,788.51c-.56-4.15,1.16-8.44,2.72-12.54,2.31-6.08,8.75-6.9,13.87-2.22,6.73,6.16,7,21.88.54,28.33-5.38,5.35-11.5,4.29-14.75-2.55C581.21,795.42,581,794.26,580.79,788.51Z" transform="translate(-1 -1)"/><path d="M466.42,785.9c-4.87.08-6.79-1.84-7-7-.13-3.75,2.57-6.46,6.53-6.55,4.34-.09,7.1,2.12,7.21,5.77C473.34,783.54,471.35,785.82,466.42,785.9Z" transform="translate(-1 -1)"/><path d="M216.17,631.67c.45-3.36,3.85-4.76,6.33-6.64,1.35-1,2.65.68,2.4,2.53-.44,3.28-2.31,5.83-4.49,8.13a2.21,2.21,0,0,1-2.78.31C216.08,635.12,216,633.64,216.17,631.67Z" transform="translate(-1 -1)"/></g></g></svg>