<svg xmlns="http://www.w3.org/2000/svg" viewBox="0 0 895.19 883.1"><title>grateful</title><g id="Layer_2" data-name="Layer 2"><g id="Layer_1-2" data-name="Layer 1"><path d="M887,884H499c-.74-3.22.77-6.22,1.11-9.33.79-7.31-.13-14.69.92-21.93,2.91-20.12,3.36-40.38,3.75-60.64.1-5-.3-10,.29-14.88,1.9-15.57,2.49-31.06-1-46.52a10.67,10.67,0,0,1,.1-5.91c2.66-6.77,2.73-14,3.83-21,2.63-16.79,1.89-33.84,2.14-50.77.24-16.65,1.39-33.27,1.21-49.93,0-3.27,1.16-6.49.34-9.89-.75-3.08-1.89-3-4.5-1.83-3,1.38-3.54,5.1-7.79,6.78,3.37-7.06,6.22-13.14,9.16-19.16,1-2,1.22-4.69,3.85-5.54,7.36-2.39,14.55-5.84,22.67-3.37a7.11,7.11,0,0,0,5.34-.74c9.42-4.93,19-9.29,29.55-11.43.29-.06.46-.73.72-1.16-1.59-1.29-3.3-.48-4.86-.71s-3.56.67-4.28-1.53a5.63,5.63,0,0,1,.45-4.84c1.15-1.75,3.09-1.24,4.55-.6,12.89,5.63,13.81.63,13.35-10.83,0-.83,0-1.67,0-2.5.05-2.09-.57-2.8-3-2.51-4.39.52-8.62,2.24-13.24,1.43-2.06-.37-3.48,1-3.61,3.65-.34,6.75-.5,6.75-7,5-.64-.18-1.26-.45-1.9-.62-6.45-1.75-9.88.88-10,7.49-.05,1.9,1,4.81-1,5.48-2.42.79-5.51,1.55-7.93-.85-1.69-1.67-3.65-1.79-5.22-.08a3.6,3.6,0,0,1-3,1.37q-11.5,0-23,0c-1.51,0-2.73-.41-2.69-2.16,0-1.56-1.6-3.28.13-4.65,1.28-1,2.54.12,3.7.66a17.43,17.43,0,0,1,3,1.78c2.55,1.91,3.94,1,4.63-1.79.45-1.8.67-3.72,3.33-3.43,1.72.19,1.72-1.06,1.73-2.31.05-3,.17-6,.24-9,0-1.18.08-2.49-1.54-2.64-1.38-.12-2.77.1-3.25,1.67-.28.94-.09,2-.35,3-.8,2.93-1.25,6.13-5.7,3.14-2.06-1.38-5.23-2.58-7,.76-1.86,3.52-4,1.7-5.54.29-2.15-2-4.4-3.78-6.83-1.56-3,2.75,1.19,4.13,2,6.12,1,2.47,4.21,3.78,3.66,7.27-.76,4.79-4.33,2.43-6.7,2.74-3.13.42-2.2-1.49-1.81-3.47a8.18,8.18,0,0,0-2.86-7.86c.87,6.19-2.05,13.22,3.76,18.28,3.63,3.16,2.88,6.38.83,9.69-3.71,6-5.06,12.54-5.1,19.49,0,2.54.62,5.21-.52,7.62-1.42,0-1.5-.93-1.88-1.64-2.34-4.37-4.63-8.77-7.18-13-1-1.64-2.29-3.29-4.87-1.84-1.53.85-3.85,2-2.74,3.35,3.56,4.34,0,7.52-.77,11.53-1.59-1.05-3.27-2.84-4-2.52-3.25,1.52-5.88-.23-8.82-.69-2.2-.35-4.64,1.11-6,3-1.81,2.48,1.32,2.72,2.21,4,1.29,1.89.55,3.3-1.68,3.38-1.46.05-2.87-.29-4.4.11-6.95,1.81-8.76.51-10.76-6.29-2.39-8.12-3.42-16.94-10.87-22.69-1-.74-1.81-1.86-3-1a2.42,2.42,0,0,0-.3,3.58,11,11,0,0,0,2.64,2.23c4.11,2.74,6,5.8,4.49,11.29C419.47,595.8,417.5,601,424,603c2,.61,3.14,3.87,3.15,6.41,0,2.33-2.16,1.93-3.76,2.24s-2.75,2-1.3,2.74c3.57,1.78,4.43,4.39,4.35,8,0,1.46,1.55,2,2.94,2.19a11.18,11.18,0,0,0,7.68-1.42c2.72-1.63,5.52-3.13,8.56-4.84.51,5-7.75,7.41-2.26,12.65-6.31,1.7-7.95,4-9.92,13.53-1.81,8.71-1.81,8.7,6.27,6.29.23-.07.56.18,1.08.37-2.08,3.32-4.24,6.28-8,7.9a89.62,89.62,0,0,0-15.45,8.83c-2.38,1.64-3,3.8-2,6,3,7,6.35,13.85,9.51,20.78,2.44,5.38,7.69,9.1,8.48,15.54.47,3.83-1.2,4.56-4.11,4.19a9.65,9.65,0,0,1-6.2-2.93c-1.17-1.39-3.11-1.06-4-2.56,3.92-1.69-1.15-5,1.31-7.17,1.16-1,.17-2.51-1.11-3.27s-2.16.15-3.06.91a5.85,5.85,0,0,0-2.46,5.18c.09,1,.21,2.18-1.25,2.2a9.81,9.81,0,0,1-6.88-2.5c-1.57-1.46-.69-3.41.06-5.12.59-1.37,1.15-2.76,1.78-4.12,3.9-8.48,6.34-18,5.13-26.65-1.79-12.84-1.26-25.78-3.47-38.61a105.64,105.64,0,0,0-12-34,28.22,28.22,0,0,0-10.88-11.43,6.23,6.23,0,0,0-6.22-.1c-2,1.12-1.21,3.25-1,5,.88,8.74.34,17.55.37,26.28,0,11.73.12,23.45.39,35.17.08,3.88,2.21,8.39-3.25,10.76a2.75,2.75,0,0,0-1.15,3.51c1.47,2.33,1.94-1.69,4.09-.32-1.14,15.31.8,31.06.21,46.79-.33,8.81-.86,17.63-.26,26.4.85,12.28-.06,24.48-.42,36.72-.29,9.79.06,19.61.3,29.41.25,10.47.08,20.95.58,31.44.44,9.37,1.21,18.8.44,28.25-.56,6.76-1.3,13.57-.32,20.37H298c-3.57-2.82-5.8-8.08-10.17-8.81-5.45-.9-11.06-.38-15.67-4.22a1.49,1.49,0,0,0-1-.2,14.94,14.94,0,0,1-9.81-2.51c-2.52-1.62-6.45-.84-6.83,1.64-.71,4.56-4.34,4.15-6.79,5.83-1.87,1.29-3.51-.08-5.25,0-2.33.12-4.65,1.14-4.57,3.59s2.6,1.3,4.07,1.36,2.93-.53,4.39-.51c3.94.06,8.44-1.28,10.59,3.81H200c-1.73-4,1.49-3.21,3.36-3.22,9.48-.09,19,0,28.46,0,1.8,0,3.25-.26,4-2.21a4.17,4.17,0,0,0-.87-4.58c-2.87-3.37-5.69-4.58-9.78-1.46s-10.12,1-12-3.74c-.89-2.31-2.57-2.93-4.66-2.93-2.94,0-4.61-1.74-4.45-4.26.27-4.47-3-6-5.51-8.61-5.3-5.44-11.68-3.06-17.67-3.07-3.17,0-3.79,2.46-2.21,5,2.11,3.37,4.52,6.55,6.72,9.87,1.18,1.78,1.38,4.89,3.44,5.25,3.53.61,2.87,2.73,3.83,5.12,2.16,5.36-1,4.42-3.83,4.43-14.64,0-29.29.09-43.93,0-3.23,0-6.24.93-9.38,1.25-2.24.23-2.23,1.55-1.52,3.19H73c.62-4,4-3.06,6.28-3.13,8-.22,16,0,24-.1,1.15,0,4,.68,2.57-1.79-1.57-2.72.64-3.35,1.33-5,1-2.47,5.45-1.16,5-3.92-.5-3-4.21-1.24-6.37-2.55a59.05,59.05,0,0,0-14.54-6.12c-1.87-.53-3.94-1.75-3.9,2.08,0,2.8-2.45,2.42-3.25.87-1.57-3-3.88-2.39-6.35-2.41-3.29,0-6.62.61-9.87-.72-2.1-.87-3.11-.34-2.29,2.33,1.12,3.64,1.68,7.44,2.71,11.1.9,3.21-.06,5-3.41,5q-23.5.06-47,0c-1.28,0-3,.17-2.91-1.79.44-8.22-2.34-16.09-2.39-24.24,0-.75.48-2.16.76-2.16,4.42-.12,6.52-1.74,4.67-6.4-.1-.25.72-.75.81-1.19,1.15-5.66,6.26-6.46,10.26-9,8.15-5.08,16.46-5.25,25.23-2.72,1.22.36,2.53,1.71,3.66.53s-.47-2.34-1-3.44c-2.94-6.15-2-7.76,4.81-8.27,1-.07,2-.07,3-.08,10.67,0,21.33,0,32-.09,4.64,0,6.5-2.89,4.26-6.84-2.87-5-4.38-10.72-8.27-15.3-2.83-3.34-1.53-5.27,2.93-5.31s8.67.12,13-.08c1.56-.06,4.38,1.25,4.42-1.4,0-1.81-2.7-2-4.55-2.14a10.73,10.73,0,0,0-1.5,0c-3.1.3-5.36-.22-4.64-4.22.43-2.34-1.07-3.33-3.1-3.67a14.42,14.42,0,0,0-9.23,1.23c-2.66,1.37-4.5,2.73-2.91,6.15,1.29,2.77-.66,3-2.76,3-11.79-.16-23.58-.35-35.37-.4-2.28,0-2.7-1.36-3.19-3-1.74-5.9-3.41-11.83-5.35-17.67-1-2.88-.4-3.94,2.73-3.88,7,.12,14,.06,21,0,1.44,0,2.91.28,4.2-1,4.3-4.29,4.76-9.76,1.66-15.05-1.55-2.64-6.58-5.61-.4-8.85.32-.17.2-1.26.2-1.92q.1-8.76.16-17.5c0-1.15,0-3-1.43-2.58-3.62,1-7.32-.69-10.86.76-2.31.95-3.23,2.34-1.93,4.63,2,3.61,3.09,7.68,5.6,11.12,2.7,3.7,1.76,5.2-2.92,5.26-9.25.12-18.51.13-27.77.18,1.06-5.75-1.89-10.66-3.44-15.82-1.67-5.59-1.91-5.53,3.71-5.57s11.33.18,17-.15c4.94-.29,6.06-2.65,3.81-6.94q-2.89-5.5-5.83-11c-1.27-2.37-.52-3.4,2.08-3.38,4.8,0,9.58-.69,14.4-.12A5.55,5.55,0,0,0,68,696.63c1.25-2.22-.46-4.11-1.73-5.79-1.4-1.85-3-3.52-4.57-5.27-.9-1-1.84-2.16-1.41-3.55.55-1.76,2.23-.89,3.43-1.09,1.63-.26,4,.73,3.87-2.38-.12-3.49.12-7-.39-10.46-.58-3.92-3-6.75-7.15-7.16a70.74,70.74,0,0,0-10,0c-3.55.14-4.44,1.88-2.52,4.89,1.79,2.8,3.79,5.48,5.45,8.35,2.48,4.28,1.64,5.66-3.14,5.59-2.16,0-4.33-.07-6.49-.08-8.31,0-8.88,1-5.07,8.8.79,1.63,1.08,3.43,2.1,5,1.45,2.31.76,3.76-2.19,3.74-4.5,0-9,0-13.49,0-3.86.05-5.82,1.73-5.23,6a63.91,63.91,0,0,0,2.89,11.07c1.42,4.34.36,5.79-4.27,6a54.5,54.5,0,0,1-8-.15c-4-.43-5.81.75-5.41,5.13a64,64,0,0,1,0,12.46c-.41,4,1.55,5.34,4.76,4.88,7.13-1,14.28-.08,21.4-.55a32,32,0,0,0,2,9.16c1.52,3.68,2.63,7.52,4,11.29.62,1.77,1,3.6-1.76,3.27-8.9-1.07-17.74,2.67-26.66.22-2.37-.65-3.68,0-3.67,2.9.1,16.16,0,32.31.08,48.47,0,1-.59,2.71,1.21,2.68,1.37,0,1.62-1.43,1.6-2.67-.13-6.48.84-13.07-.71-19.4-1-3.86.07-4.28,3.61-4.66,10.8-1.17,21.59.82,32.34-.27,2.37-.24,2.16,1,2.59,2.51,1.72,6,3.44,12.1,5.57,18,1.86,5.16,1.39,6.16-4.13,6.16-11.33,0-22.65.1-34-.1-3.37-.06-5.34,1.31-5.2,4.38.28,6.29,1,12.57,1.78,18.82.35,2.89,1.36,5.66-3,6.41-2.27.39-1.72,2.55-1.73,4.12,0,7.67.14,15.33-.08,23-.1,3.43.85,4.87,4.45,4.48,2.21-.24,5-.6,4.77,3.15H1Q1,444.75.91,5.5C.91,1.75,1.75.88,5.5.9c32.83.17,65.67.1,98.5.1C91.2,6.6,77.2,8.3,64.24,13.67,55.12,17.44,46.75,22.09,40,28.87,25.89,43.11,17.45,60.58,13.4,80.27c-2.84,13.79-5.56,27.55-7.49,41.53-1.86,13.46-.32,26.85-1,40.24-.12,2.37,1.42,2.89,3.25,2.59s4.62,1.54,5.53-1.63a37.39,37.39,0,0,0,1.24-6.82c1.46-15.53,2.93-31.07,5.68-46.44C24,90.5,29.39,72.06,39.85,55.17c11-17.74,26.56-29.06,45.58-36.62,12.24-4.87,25-6.55,37.9-8,10.74-1.17,15.22,2.24,16.64,12.86a55.27,55.27,0,0,1-.15,14c-1.62,13.3-.84,26.54,0,39.87.66,10.54,3.34,21,1.47,31.72-1,5.73-3,7.7-8.71,6-4.37-1.28-8.85-2.08-12.84-5-2.49-1.85-4.94-4.23-8.38-5.09-10.84-2.72-22.38,1.68-29.38,12-12.35,18.21-12.54,37.74-5.32,57.7a16.68,16.68,0,0,0,14.43,11.52c3.46.41,5.3-.31,5.89-3.92a31,31,0,0,1,2.73-9c.76-1.49,1-3.31-1.52-2.81-6.12,1.18-9.37-2.56-11.92-7-6.33-11-5.13-22,2.17-31.83,6.61-8.89,17-7.72,26.56-7.35,5.76.22,11.47,1.68,17.24,2.08,6.89.47,9,2,10.34,8.92,1.61,8.34,1.82,16.8,2.08,25.25.11,3.61,2,4.38,5.18,4.3,3.74-.09,2.79-2.66,2.67-4.6-1.14-18.57-2.72-37.12-3.46-55.71-.61-15.11-1.33-30.23-1.86-45.33-.44-12.92.87-25.91,1.71-38.85.3-4.8,2-9.6,7.13-11,8.61-2.43,17.38-5,26.32-5.06,13.27-.11,26.56-1,39.85.84,9,1.28,15.17,5.36,17.9,14.19,4,12.89,3.82,26.46,6.14,39.63,1.36,7.72,0,16,5.09,23a2.82,2.82,0,0,1,.34,3.31c-3,4-1.81,8.35-1.92,12.78a59.26,59.26,0,0,1-9.2,31.05c-2.29,3.57-2.45,6.33,1.23,8.95a15.15,15.15,0,0,1,4.73,5.69c4,8.06,7.37,16.33,8.81,25.28.2,1.28.38,2.86,1.91,3.23,1.74.42,1.95-1.36,2.81-2.28,1.9-2.05,2.59-5.58,6.59-5.18,1.1.11,1.15-1.33,1-2.39-.86-7.41-1.41-14.88-2.59-22.24-3-19-4.46-38.24-6.28-57.41-.93-9.74-2.12-19.47-3.45-29.17-1.64-12-3.82-23.88-5.27-35.88-.91-7.48,2.38-10.65,10-10.92,4.5-.16,9-.17,13.49-.4,15.45-.78,30.91-1.55,46.38-1,7.87.29,14.62,2.5,18.73,10.61,3.64,7.19,4.47,14.79,6.19,22.37,3.67,16.21,6.11,32.64,8.71,49,3.76,23.59,8.05,47.08,12.09,70.62q1.94,11.24,4.34,22.4c2.34,10.88,4.85,21.72,7.35,32.57.41,1.75,1.6,3.69,3.36,1.78,3.29-3.56,7.62-6.41,8.5-11.84,1.3-8.08-.51-16-1.65-23.79-2.31-16-3.53-31.93-1.44-48.12,2.87-22.24,6.5-44.44,5.19-67-.39-6.85-.92-13.6-3.64-20-.6-1.41-.23-4.07-2.48-3.64s-1.59,3.06-1.4,4.7c1.06,9.22,2,18.44,2.85,27.7,1,11.61-2.53,21.23-9.11,30.11-2.86,3.85-7,3.22-10-.62-2.16-2.78-2.56-6-3.4-9.21-1.62-6.25-3.81-12.36-5.25-18.64-1.56-6.78-2.5-13.7-3.77-20.55-2.38-12.89-4.83-25.79-5.17-38.94-.18-6.67,3.4-10.62,10.1-10.91,7.28-.32,14.59.08,21.88,0S396.86,3.49,404,1h45c2.89,2.5,3.59,5.68,3.5,9.41a106.88,106.88,0,0,1-1.15,13.35c-1.91,12.71-1.37,25.55-1.47,38.36-.05,6.31-1.3,12.53-1.33,18.87,0,2.86-.94,6.33-4.05,7.52s-5.66-1.28-7.94-3.18a19.17,19.17,0,0,1-5.32-6.54c-4.54-9.67-6.94-19.93-8.63-30.44-.75-4.69.78-9.85-3.21-15.46-.64,7.45-2.07,13.67-1.5,19.7,1.22,13,3.84,25.85,9.72,37.8a177,177,0,0,1,8.75,20c5.59,16,9.33,32.51,12.68,49.1q1.88,9.24,3.5,18.54c1.64,9.27,3.56,18.45,4.39,27.9,1.13,12.87,1.13,17.16-9.78,21-.76.27-1.39,1-2.16,1.21-5.45,1.69-7,5.58-6.26,10.83.22,1.53-.75,3.59,1.38,4.34,1.74.61,3.25-.31,4.5-1.53,8.28-8.06,18.85-12.12,29.16-16.61,7.92-3.44,16.32-6,23.83-10.15,17.41-9.68,35-19,52.52-28.53A534,534,0,0,1,605.84,160a25.07,25.07,0,0,1,19.83.32c9,3.84,10.31,12.25,12.83,19.48a148.94,148.94,0,0,1,7.09,31.93c1.4,12.25,4.69,24.51.15,36.79a1.94,1.94,0,0,0,.63,2.27c4.76,3.38,2.06,6.87.28,10.42-2.22,4.44-6.79,8.15-3.15,14.28,1.11,1.85,1.32,3.35,3.8,3.3,15.3-.28,12,2.07,12.38-11.72,0-1.06-.88-2.52.75-3,1.34-.39,2.06.88,2.73,1.79,3.4,4.69,7.65,6.63,13.4,4.62,1.19-.42,2.65-.13,4-.13,12.83,0,25.65-.06,38.48.06,2.52,0,4.51-.73,5.13-3,1.49-5.47,4.06-11.18-1.31-16.13-1-1-1.39-3.46-3-2.77-2.12.9-.3,2.81-.09,4.29.14,1,.16,2,.22,3,.42,7.1-3.14,13.42-11.93,10.81-8.95-2.65-18.27-4.68-27.92-3.77-4.84.46-9.6-2-14.69-.61-2.49.69-11.82-12-11.44-15.13a120.74,120.74,0,0,0-1.61-39.53c-2.28-10.94-5.09-21.67-9.54-31.88-2.32-5.33-5.1-10.39-6.21-16.21-1.47-7.61-.94-10.24,5.62-14.28,7.33-4.51,15-8.44,22.7-12.4,11.19-5.79,22.21-12,34.36-15.68,6-1.81,8.22,0,8.63,6.35a88.3,88.3,0,0,0,2.67,16.71,10.26,10.26,0,0,1-5.37,12.08c-7.28,3.53-14.58,7.07-22.6,8.7-2.25.46-4.64.39-6.59,2-2.23,1.8-7.33,2.41-4.59,6.52,2.14,3.23,6.11.59,8.31-1.05,6.56-4.88,14.12-6.34,21.81-7.52,6.4-1,9.81,1.86,10.38,8.3.34,3.81.4,7.65.88,11.44.55,4.28.89,8.56,1.16,12.87.19,3.13,2.12,5.47,5.52,5.26,3.61-.22,3.13-3.23,3.07-5.7a235.21,235.21,0,0,0-2.06-23.83c-2-16.09-6.52-32-2.76-48.53,1.56-6.85,4.84-11.58,10.91-14.45,14.87-7,30-13.27,46.12-17.11,8.49-2,13.71,1.19,16.7,9.45,3.94,10.92,3.42,22.25,4,33.46a183.29,183.29,0,0,0,4.22,29c1.53,7,2.4,13.84,1,20.72-1.09,5.31-.93,10.58-1.23,15.88-.12,2.15.14,3.56,2.79,3.54s2.44-1.6,2.36-3.36c-.27-6-.83-11.95-.69-17.91.51-22.81-1.54-45.49-3.27-68.18-.48-6.41-.84-12.85-1.55-19.27-.75-6.74,6.08-12.38,15.23-13.26,13.05-1.25,26-.63,38.27,4.5a28.41,28.41,0,0,1,12.19,9.12c9.81,13.21,12.78,28.93,13.42,44.55.8,19.35,2.75,38.8.41,58.22-.36,3-.42,6-.57,8.92-.48,9.78-2.33,19.47-1.8,29.31.08,1.57.34,3.55,2.39,2.68,2.21-.94,6.24,1.62,6.6-2.4.42-4.8,1.61-9.44,2.05-14.22,1.35-14.73.41-29.56,2.48-44.28,1.81-12.91.11-25.83-1-38.76a551.79,551.79,0,0,0-10-68.86c-4-19.13-12.55-35.09-27.83-47.53A190,190,0,0,0,823,1c23,0,46,.09,69-.1,3.43,0,4.1.68,4.1,4.1q-.18,204.5-.1,409a64.28,64.28,0,0,0-18.84-.44c-4,.45-3.93,2.29-2.73,5,2,4.39,4.23,8.67,6.24,13.05.74,1.6,3,3,2,4.81s-3.64,1.15-5.55,1.18c-5.5.08-11-.2-16.49,0-6.31.21-7.56,2.57-4.15,7.7,2.58,3.87,5.47,7.53,8.26,11.26,2.1,2.79,1.2,4.4-2,4.54-4.66.2-9.33.1-14,0a13.75,13.75,0,0,0-6.73,1.52c-1.28.68-2.34,1.94-.6,3.05,6.62,4.21,9.77,11.56,15.35,16.68.48.44,1.24.78.83,1.56-3,5.65-1.37,11.67-1.63,17.55-.07,1.59-.2,3.9-2.07,4.82-2.32,1.15-3.09-1.24-4.38-2.35-2-1.74-3.79-3.78-6-5.24-4.31-2.89-6.28-1.77-6.35,3.47-.09,6-.09,12,.06,18,.11,4.17-2,4.63-5,3a51,51,0,0,1-6.84-5c-1.83-1.45-3.8-2.16-6-1.34-2.55.94-1.86,3.25-1.87,5.16,0,7.16.05,14.32,0,21.49-.08,6.24-1.61,7.23-7.18,4.9-1.38-.58-2.74-1.2-4.11-1.81-2.87-1.26-4.49-1.11-7.34,1.6-3.41,3.24-1.36,6.2-2.25,9-2.82,8.92,2.61,17.67-.12,26.46-.49,1.59.28,3.22,2.3,2.94,4-.56,7.85,1,11.88.89,7.29-.27,7.83-.47,8-7.82.18-6.82.22-13.66,0-20.49-.14-4.53,1.9-5.43,5.86-4.69,2.83.54,5.34,1.82,8,2.72,4.45,1.5,6.28.25,6.3-4.37,0-5.66,0-11.32-.19-17-.16-4.91,1.88-6.33,6.27-4,1.9,1,3.49,2.6,5.41,3.56,2.13,1.07,4.72,1.37,6.64-.1,1.64-1.25,1.69-3.56,1-5.58-1.15-3.55.78-7.21-.53-10.81a2.63,2.63,0,0,1,1.7-3.26c1.27-.5,2.2.09,3.11,1,1.57,1.47,3.12,3,4.82,4.27,2.91,2.22,7.63.82,7.35-2.38-.2-2.42.8-4.86-.26-7.27-.68-1.53-1-3.32,1-4.32,1.77-.88,3.22,0,4.51,1.15,7,6.48,11.81,13.87,9.6,24.06-.25,1.15-.25,2.38-1.52,2.92-1.52.64-2.47-.33-3.44-1.31-1.64-1.65-3.4-3.19-5-4.87a4.55,4.55,0,0,0-5-1.12c-2.21.65-1.85,2.47-1.87,4.1,0,2.5,0,5,0,7.5,0,2.12.62,4.64-1.73,5.85s-3.32-1.59-5-2.39a23.23,23.23,0,0,1-2.58-1.52c-1.6-1-3.22-1.87-5-.46s-3.41,3.05-2.7,5.46.22,4.55-.07,6.85c-.4,3.25,1.54,7.58-.93,9.57-3,2.4-6.35-1.25-9.56-2.25-5.38-1.68-7.53-.23-7.6,5.34-.07,6.66-.1,13.33,0,20,0,3-1,4.4-4.09,3.92-2.79-.44-5.59-.86-8.4-1.07-5.15-.38-7.11,1.33-7.18,6.51q-.18,12.5,0,25c.06,4.29,3.17,6.58,7.36,5.32,2.46-.74,4.92-.69,7.38-1,3.44-.41,5.17.91,5,4.78-.26,6.66-.16,13.33-.05,20,.08,4.46,2.13,5.93,6.49,4.76a53.41,53.41,0,0,0,5.53-2.25c3.2-1.28,5.94-1.77,6.11,3.11.14,4.22.48,8.44.8,12.65.15,2-1.14,4.53,1.47,5.8,2.41,1.16,4.53,0,6.48-1.44a37.31,37.31,0,0,0,3.16-2.43c1-.9,1.92-2,3.45-1.1a3.56,3.56,0,0,1,1.72,3.38c0,2.67-.17,5.34,0,8,.13,1.68-1.19,4.12,1.05,4.88a6.22,6.22,0,0,0,6.14-1.08c1.51-1.29,3.2-2.39,4.66-3.74s1.87-4,4.49-3.06c2.84,1,2.5,3.71,2.34,6-.26,3.64,1.24,5.71,4.8,6.34v6c-5.53-.79-9.58,1.32-12.76,5.9-1.48,2.11-2.82,4.6-5.42,5.74-1.38.6-3,1.29-4.31.49s-1-2.73-.85-4.16c.17-1.64.83-3.22,1-4.86.24-2.14.44-4.21-2.19-5.46s-3.68.48-5.14,1.72c-1.77,1.49-3.42,3.12-5.25,4.53a3.45,3.45,0,0,1-3.73.7c-1.6-.84-.78-2.26-.51-3.53,1-4.61.53-9.3.46-13.93-.07-4.13-2.82-5.62-6.45-3.66-2,1.1-3.77,2.74-5.76,3.94-4.47,2.71-6.24,1.73-6.26-3.38,0-5.83.2-11.67-.06-17.48-.21-4.95-1.88-6-6.31-4.35-2.82,1-5.48,2.5-8.34,3.34-4.23,1.24-5.66-.26-5.55-4.64.19-8.16,0-16.32.24-24.47.14-4.54-2-6-6.12-5.5s-8.21,1.19-12.32,1.76c-3.23.45-4.37-.87-4.26-4.22.3-9.48.31-19,.35-28.46,0-1.63.79-3.6-1.41-5.11-3.31,8.61.45,17.9-3.54,26.07,0,.1.1.31.17.46,2.89,6,1.8,12.75,2.68,19.08,1.28,9.31.27,18.93.36,28.42.06,6.31,2.12,7.74,8.13,5.67,3-1,5.79-2.58,8.77-3.6,4.49-1.54,5.87-.62,5.83,4.17-.05,6.61.94,13.28-1.07,19.84-.69,2.24-.38,5,1.79,6.35s4.52.76,6.64-.44c1.3-.74,2.44-1.74,3.73-2.5,2.1-1.22,4.06-3.52,6.76-2.17s1.95,4.33,2,6.74c.07,5,0,10,0,15,0,1.76-.42,4,1.82,4.73,2,.65,3.51-.76,4.85-2,2.1-1.88,4-4,6.07-5.89,2.34-2.1,4-1.94,4.87,1.53,1,4.14.41,8.28.55,12.42,0,1.58-.66,3.56,1.49,4.3a4.74,4.74,0,0,0,5.44-1.44c2.06-2.37,4.07-4.78,6.15-7.13,2.45-2.78,5-5.51,9.17-5.1a38.61,38.61,0,0,0,7.45.2c1.6-.15,3.53-.1,4.38,1.67s0,3.22-1.08,4.61a68.49,68.49,0,0,0-5,6.82c-2,3.48-.94,5.41,3,5.56,3.14.12,6.3-.18,9.45-.3v44c-1.85,0-4.07-.83-4.6,2-.17.93-.23,2,.74,2.61,2,1.23,2.73-.72,3.86-1.64v47a84.2,84.2,0,0,1-9-.06c-3.38-.38-4.75,1.08-5.4,4.16-1.12,5.36-2.56,10.65-3.72,16-1.4,6.47,1.31,9.21,7.61,7.94,1.45-.29,3-.16,4.46-.36,4-.52,4.54,1.4,3.41,4.65-2,5.81-4,11.63-6,17.45C886.58,879.16,885.62,881.51,887,884ZM451.63,276.43v-.2h-26c-3.57,0-5.12,1.21-4.05,5.22a70.76,70.76,0,0,1,1.51,11.3c.18,1.82-.54,3.72-2.67,3.32-5.14-1-10.18.4-15.29.12-9.63-.51-19.29-.71-28.93-.95a18.14,18.14,0,0,0-3.38.74c-2,.35-2.47,1.4-2.49,3.48,0,5.42,3,9.81,4.45,14.71,1.8,6.06,1.22,7.1-5.07,7.08q-15.75-.06-31.5,0c-2,0-4.26-.33-5.15,2a6.22,6.22,0,0,0,.9,6.13c2,2.83,3.7,5.91,5.69,8.76,1,1.43,2,2.87,1.24,4.54-.93,1.93-2.93,1.07-4.49,1.08-8.5,0-17,.06-25.5,0-2.36,0-4.39.6-5.5,2.69s.78,3.41,1.83,4.78a99.57,99.57,0,0,0,6.38,7.66,5.63,5.63,0,0,1,1.68,5c-.52,2.23-2.81,1.1-4.27,1.12-6.95.1-13.92-.28-20.85.12-2.95.17-5.72,1.55-8.17-1.27-.93-1.08-2.32-1.18-2.33.68q-.09,8,.27,16a3.3,3.3,0,0,0,3.83,3.14c1.91-.18,1.05-2.1,1.13-3.27.13-2,0-4,.07-6,0-.94-.29-2.14.73-2.71,1.24-.68,2.23.25,3.12,1,3.64,2.92,7.26,5.84,10.83,8.82,5.28,4.42,10.06,9.84,18.23,6.37,1.84-.78,4.29-.11,6.45-.11,2.67,0,5.34.13,8,0,3.38-.2,5.65-1,3.27-5.23-1.5-2.63-2.86-5.11-5.44-6.92a20.89,20.89,0,0,1-4.33-4.74c-1.19-1.59-1.44-3,1.28-3.44,3.94-.58,7.92-2.05,11.83-1,3.75,1,7.45-.48,11.22.62,1.72.51,4.74,0,5.7-2.08a6.55,6.55,0,0,0-1-6.6c-1.87-2.55-3.58-5.22-5.52-7.71-2.29-2.95-1.58-4.4,2-4.87,7.73-1,15.59-.55,23.26-.52,14.33,0,12.52-4.51,8.41-14.38-.13-.3-.33-.57-.49-.87-2.6-5.12-1.3-7.61,4.45-7.69,12.33-.15,24.66,0,37-.09,1.85,0,3.27.21,3.47,2.51.43,4.81,1.05,9.59,1.45,14.39.26,3.08-1.22,5-4.43,4.38-10.07-2-20.23-.46-30.34-.88-5.07-.2-7.37,3.79-5.41,8.49,1.15,2.75,2.73,5.36,3.65,8.18,1,3,.33,5-3.73,4.88-7.65-.27-15.31-.1-23-.05-1.89,0-4.39-1-5.32,1.42a6.89,6.89,0,0,0,1.14,7.44,25.41,25.41,0,0,1,5.06,7.95c1.55,4.47.93,5.17-3.71,5.08-5.64-.12-11.31,0-16.94.27-4.17.23-5.4,3.11-2.88,6.38,1.5,1.95,3.42,3.59,4.91,5.56,1,1.39,3,2.93,2.18,4.66s-3.15,1.22-5,1.15c-4-.15-8-.18-12-.15-1.39,0-2.68.6-2.89,2.2-.17,1.25,1,1.53,1.85,2,8.41,4.33,16.83,8.65,25.21,13a9,9,0,0,0,6.76.91c2.78-.76,4-2.3,2.13-5.1a19.35,19.35,0,0,0-4.42-5.32,4,4,0,0,1-1.57-4.44c.55-1.85,2.49-1.36,3.88-1.4,3.83-.1,7.68.21,11.49,0,4.81-.3,6-2.53,4.22-7a21.84,21.84,0,0,0-3.87-5.78c-1-1.2-1.74-2.49-1.07-4.11.77-1.85,2.48-1.43,3.89-1.45,5.5-.06,11,.12,16.5,0,6.15-.16,8.05-3.13,5.81-8.74-.86-2.15-1.77-4.29-2.71-6.42-1.83-4.14-.8-5.81,3.88-5.86,7.83-.09,15.67.22,23.49-.15,4.92-.22,8.48-.12,7.12,6.44-.33,1.63.79,3.53,1.09,5.33,1.07,6.51,0,7.67-6.65,7.42-5.82-.21-11.65-.51-17.47-.34-6,.17-7.57,3-5.09,8.57a26.47,26.47,0,0,1,1.6,4.18c1.26,5,.56,5.92-4.57,6-3.5.05-7,0-10.5,0-2.49,0-5.29-.48-6.68,2.22s.53,4.76,1.7,6.81,3.54,3.69,2.12,6.15-4.26.94-6.47,1.23a7.44,7.44,0,0,1-2.49-.07c-2.92-.62-6.18-.83-7.6,2s2,4.79,3.21,7.17c.21.4.78.61,1.16.93,4,3.26,5.1,7.69,4.66,12.53-.71,7.69.51,15.43-.75,23.11-.2,1.25-.26,3.22,1.63,3,4.08-.57,6.29,2.66,9.33,4.11,4,1.93,5.66,1.24,6.2-3.2.36-3-.24-5.61-3-7.4a49.36,49.36,0,0,1-4.83-3.53c-3.6-3-3.33-4.36,1.11-6.08,3.92-1.52,4.41-3.86,1.46-7.09-.68-.74-1.45-1.38-2.09-2.14-.83-1-2.11-2-1.49-3.42s2.22-1.2,3.53-1.28c.83-.05,1.67,0,2.5-.07,2.3-.11,5.06.43,6.3-2,1.36-2.66-.37-5.1-1.73-7.38-.33-.56-1-.94-1.33-1.48-2.47-3.57-1.42-6.18,2.9-6.6,3.13-.31,6.32-.05,9.49-.08,6.06-.06,7.24-2.26,4.26-7.74-.71-1.3-1.07-2.78-1.7-4.13-1.46-3.13,0-4.51,2.95-4.48,4.48,0,8.95-.3,13.45.39,5.48.84,8.18-1.63,8.36-7.07a19.17,19.17,0,0,0-.65-6.42c-1.13-3.67-.1-5.75,4.23-5.58,5.16.19,10.33,0,15.5.06,11.71.05,10.31-1.54,8.36,10.54-1,6.36.21,8.43,6.8,7.93,5.15-.38,10.22.2,15.32.05,3-.09,4.07,1.07,2.73,4-.56,1.21-1.14,2.41-1.58,3.67-2.34,6.72-.88,8.82,6.09,8.8,1.67,0,3.44.26,5-.21,3.1-.94,6.09-.26,7.73,2,1.77,2.41-1.93,3.62-2.72,5.66s-3.4,3.5-2,6.23,4.07,3,6.87,3c2-.06,4.52-.09,5.27,1.86.62,1.63-1.84,2.46-3,3.57a4.78,4.78,0,0,0-.94,5.94c1,1.94,3.32,2,5.34,1.95,2.71-.11,2.26-2.62,2.66-4.15a18.8,18.8,0,0,0,.3-5.95c-.34-4.8.13-8.5,5.8-10.5,3.08-1.09,6.22-4.65,5.28-8.71s-5-2.37-7.68-2.4c-9.4-.1-9.41,0-5.66-8.85.13-.31.26-.61.37-.93,1.65-4.62,0-7.05-4.82-7.1-4.5-.06-9-.16-13.49,0-3.38.14-4.19-1.48-3.35-4.28s1.95-5.28,2.91-7.93c1.62-4.45.5-6.32-4.26-6.49-5.49-.19-11.05.38-16.48-.23-3-.33-6.74,3.21-8.42,0-1.34-2.59-.1-6.5,0-9.83a8,8,0,0,1,.15-1c1.07-5.93-.3-8.44-6.07-8.55-9-.16-18-1.07-26.89.53-2.65.47-2.88-.64-2.84-2.55a29,29,0,0,0-1.09-9.87c-2-5.9-.81-7.4,5.59-7.47,7.84-.08,15.67,0,23.5,0,10.1,0,10.1,0,8.1,10-1.9,9.57-.5,11.39,9,11.4,6.83,0,13.66-.12,20.48-.3,6.32-.17,7,.75,4.21,6.21a23.93,23.93,0,0,0-2.18,5.54c-1.46,6.25-.76,7.3,5.82,7.33,6.33,0,12.66-.22,19-.19,4.92,0,5.38.93,2.73,5.23-1.47,2.4-3.55,4.45-4.81,6.94-2.57,5.09-.33,8.23,5.3,7.74,2-.17,4-.81,5.92-.76,2.71.07,6.36-1.3,7.8,1.71s-2.14,5-3.81,6.8c-2.06,2.2-3.46,4.21-2.36,6.9,1.26,3.09,4.35,1.44,6.65,1.71a7.17,7.17,0,0,0,2.86-.66c8.83-3,17.06-7.3,25.47-11.23,1.82-.85,4-1.72,3.05-4.32-.9-2.44-2.89-3.78-5.56-3.05-3.79,1-7.62.64-11.43.6-1.5,0-3.69.95-4.34-1.19-.54-1.8.41-3.61,1.81-4.93a30.2,30.2,0,0,0,6.25-7.71c1.9-3.58,1.15-5.42-2.87-5.76-3.64-.31-7.32,0-11,0-12.78-.06-12.78-.07-6.43-11,2.77-4.77.94-8.09-4.6-8.12-7.84,0-15.67-.13-23.49.17-3.31.13-4.12-1.1-3.87-4s1.76-5.71,2.66-8.55c2.15-6.82-.8-10.79-7.76-9.58-8.81,1.54-17.63.38-26.42.86-3,.17-4.37-1.15-4-4.15.45-4.13,1.25-8.25,1.29-12.38,0-3.22,1.31-3.9,4.17-3.89,12.16.05,24.32,0,36.48-.14,3.95,0,5.21,1.7,3.91,5.3-1.18,3.29-2.78,6.44-3.73,9.78-1.47,5.11,1.28,7.51,6.5,7.28,10-.44,20-.31,30-.28,3.57,0,3.8,2.15,2.21,4.68s-3.4,4.92-5.17,7.33c-1.57,2.13-3.66,4-2.06,7.11,1.51,2.91,4,3,6.82,3,6.33-.08,12.66,0,19,0,1.59,0,3.07.26,3.71,1.91s-.92,2.32-1.77,3.24c-2.05,2.18-4.11,4.35-6.25,6.45-1.46,1.43-2.05,3-1.23,4.95s2.45,2,4.18,2c6.5,0,13-.06,19.5,0,1.76,0,4.24-.76,5,1,.85,1.92-1.59,3-2.87,4.13-4.47,4-9.3,7.57-13.1,12.26-.88,1.08-1.83,2.25-.68,3.49s2.21,0,3.13-.51c4.73-2.83,9.94-4.58,15-6.69,3.71-1.55,6.36-3.68,5.1-8.3-1.42-5.22,1.26-8.6,5.12-11.59,3.41-2.63,7.11-4.92,9.92-8.3a5,5,0,0,0,.71-5.15c-.53-1.62-2.1-1.4-3.4-1.38-8.16.12-16.32.31-24.48.42-1.49,0-3.3,1.95-4.42-.31s-.31-4.17,1.4-5.87c2.72-2.7,5.38-5.44,8-8.21a5.81,5.81,0,0,0,1.56-6c-.8-2.55-3.12-2.07-5.06-2.07-8.33,0-16.67.07-25,0-5.81,0-6.22-.75-3.27-5.95,1.39-2.46,3.15-4.71,4.42-7.22,3.22-6.38,1.85-8.54-5.2-8.51q-16.25.07-32.49.18c-5.92,0-6.45-.58-4.13-5.77,1.57-3.51,1.25-5.41-3-6.38-13.46-3.1-26.86-6.45-40.26-9.79-4.28-1.06-6.27.67-6.82,4.81-.72,5.41-2.38,10.7-2.19,16.21.06,1.8-.72,1.91-2.09,1.7-11.92-1.84-23.92-.4-35.88-.78-7.68-.24-7.66-.07-8.87-7.56-.34-2.13-.76-4.25-1.26-6.34-1.89-7.95-1.27-8.63,6.76-8.63,13.16,0,26.32-.19,39.49-.26,4.38,0,6.85-1.92,7.09-6.5a51.43,51.43,0,0,1,1.05-9.39c1-4-.66-5.1-4.27-5.07C468,276.48,459.79,276.43,451.63,276.43ZM5.16,336.3C7,334.66,6.38,332.6,6.55,331c.52-5,2.77-6.54,7.8-6.34,10.82.42,21.66.09,32.49.16,5.08,0,5.82,1.32,4.17,6.13-1.94,5.67-4.4,11.27-5.38,17.11-.65,3.94-2.11,4.44-5.39,4.4-10.41-.12-20.83.1-31.24-.05-3.24,0-4.38.93-4.23,4.25a153.74,153.74,0,0,1,0,16.49c-.24,3.93,1.32,4.8,4.88,4.69,7.46-.24,14.93,0,22.39-.14,3.62-.05,5.18,1.55,3.77,4.9-2.27,5.42-2.9,11.23-4.37,16.84-.56,2.14-1.22,2.52-3.23,2.46-6-.16-12,.25-18-.15-4.6-.31-5.82,1.43-5.44,5.7.34,3.8,0,7.66.08,11.49.12,8.32-1.16,7.18,7,7.24,10.38.07,10.38,0,7.82,9.93-2.38,9.22-2.38,9.31-11.36,9.71-2.51.12-3.62.78-3.53,3.45.16,4.33.06,8.66,0,13,0,1.63.18,2.84,2.34,2.93,4.76.2,4.39,3.57,3.13,6.42a48.42,48.42,0,0,0-2.6,7.48c-.84,3.31.34,5.44,4.14,5.78,3,.26,7.33-1.73,8.79,1.09s-1.88,6-3.37,8.88c-1.42,2.77-1.53,5,2.87,5.11,9,.27,8.75.33,4.44,8-1,1.79-4.16,4.27-.85,6.86a7,7,0,0,0,10.19-1.94c1.46-2.5,3.58-4.36,5.5-6.42C41.65,504,43.11,504,44,507.64c.49,2.07.82,4.91,4.14,4.72,2.71-.16,7.28-5,6.68-7.72a48.65,48.65,0,0,1-.91-12.38c0-.8.22-1.75-.79-2.12s-1.58.18-2.14.85c-2,2.41-4.1,4.82-6.13,7.24-2.91,3.47-6.77,2.43-9.53.76-3.58-2.16.13-4.5,1.16-6.64a10.84,10.84,0,0,1,1.6-1.89c1.09-1.29,2.28-2.61,1.32-4.44a4.5,4.5,0,0,0-4.12-2.38c-2.17-.06-4.34-.09-6.5,0-2.41.12-3.2-.46-2.48-3.14a29.77,29.77,0,0,1,4.17-8.41c2.79-4.35,1.13-7.34-4-7.49-2-.06-4,.11-6,0-4.91-.19-5.82-1.45-4.66-6.08.65-2.57,1.17-5.17,1.79-7.75.72-3,2.35-4.57,5.75-3.93a16.11,16.11,0,0,0,8.4-.32c2.36-.84,4.9-.68,6.41,1.33s.47,4.38-.72,6.52c-5.6,10-5.19,10.64,6.41,10.77,2.48,0,5.44,1,7.33,0,2.85-1.52-.29-4.5.21-6.84.18-.82.76-1.75.52-2.41-1.39-3.85,2.31-10.23-5.53-11-2.12-.21-1.35-2.14-.9-3.63.93-3.1,3.18-5.44,4.57-8.26,2.39-4.86,1.23-7.26-4-8.41-4.62-1-9.29-.28-13.94-.39-5.83-.14-6.86-1.62-4.5-7.07,1.52-3.53,3-7.09,3.52-10.88.33-2.63,1.38-3.31,3.81-3.34,8-.11,15.89,1,23.85,0,2.93-.37,3.72.86,2.1,3.45-2.63,4.21-3.81,9.19-7.06,13.11a3.67,3.67,0,0,0,.08,5.05c1.26,1.43,2.71,1.08,4.09.35,11.61-6.15,23.94-10.69,35.92-16,1.89-.83,2.29-2.07,2.31-3.91,0-2.21-1.29-2.91-3.07-3.17a52,52,0,0,0-6.43-.7c-5.67-.11-11.35-.34-17,0-4.88.28-4.48-1.43-2.55-4.68,3.13-5.27,6.87-10.22,8.82-16.14.48-1.48,1.63-1.36,2.77-1.54,8.43-1.34,16.91-1,25.39-1,2.62,0,6.09-.06,7.17,2.23,1,2.09-1.68,4.38-3.13,6.34-2.56,3.48-5.44,6.74-7.83,10.33s-1.38,5.75,3.09,6.42a14.46,14.46,0,0,0,9.14-1.84,282.14,282.14,0,0,1,30.76-14.15,11.19,11.19,0,0,0,4.48-3,5.15,5.15,0,0,0,1-5.16c-.69-2.2-2.61-1.58-4.21-1.58-7,0-14,0-21-.05-2,0-4.32-.32-5.12-2.38-.66-1.72,1.29-2.85,2.26-4.14,2.88-3.83,5.87-7.59,8.61-11.53,2.59-3.74,1.72-5.87-2.71-6.9-9.51-2.22-19.15-1.05-28.73-.65-2.07.09-4.68,1.77-6-.18-1.6-2.35-.26-5.09,1.29-7.39,2.41-3.58,5.46-6.91,7-10.82,2.56-6.37,3.38-9.28-5.25-9.45-8.33-.17-16.66,0-25,0-3.5,0-7,.13-10.49-.21-2.41-.23-5-1.35-3.42-4.5,2.7-5.49,3.31-11.49,4.77-17.27.82-3.21,2.32-4.67,5.89-4.62,14.15.19,28.31.08,42.47.16,1.4,0,3.27-.7,4.13.91,1,1.88-.49,3.43-1.32,5-2.58,4.93-5.44,9.74-7.6,14.85s-1,6.67,4.39,6.74c11.5.13,23,.1,34.49.17,1.63,0,3.61-.35,4.46,1.46.78,1.66-.29,3.25-1.18,4.65-.62,1-1.69,1.65-2.27,2.63-3.67,6.15-9.95,10.7-11.57,18.65,9.87,0,19.5-.08,29.12,0,3,0,6.28-1,8.83,2,1.05,1.24,2.11-.28,3.2-1.13,7.66-6,13.08-14,19.59-21.09,1.56-1.69,3.59-3.54,2.42-6.08s-3.75-2.38-6.13-2.38c-10.16,0-20.33,0-30.49,0-1.72,0-4.23,1-5-.82s1-3.57,2.25-5.16c3.62-4.77,7.28-9.51,10.65-14.45,2.63-3.86,1.5-5.64-2.66-7.28-4-1.56-7.53.33-11.29.23-10.11-.28-20.22-.34-30.33-.53-1.6,0-3.59.64-4.55-1.19s.52-3.23,1.45-4.5c4.17-5.67,6.4-12.4,10.26-18.24,1.59-2.4,1.72-5.47-1.48-6-4.3-.75-8.46-2.32-13.14-1.63-12.88,1.92-25.88.68-38.83.67-.61,0-1.21-.57-1.84-.7-2.54-.51-2.91-2.25-1.91-4.1,3.67-6.87,5-14.44,6.77-21.86.79-3.25,2.45-4.44,6-4.4,18,.19,36,.08,54,.1a18.43,18.43,0,0,1,3.48.28c2.46.46,3.22,1.29,1.72,4-3.81,6.81-7.27,13.83-10.69,20.86-2.05,4.21-.74,6.07,4,6.08,11.17,0,22.33,0,33.5,0,5,0,10,0,15,.06,2.41,0,4.53,1.37,2.56,3.62-5.38,6.15-8.48,13.86-14.13,19.81-1.54,1.62-4,3.79-2.64,6.46,1.27,2.44,4.16,2.3,6.69,2.32,7.67.05,15.33.05,23,.25,9.23.25,9.29.33,9.19-9.09-.06-5.86-1.44-11.58,4.15-16.48,3.21-2.82.64-6.92-3.79-7-3.83,0-7.67.09-11.49-.06-1.73-.06-4.26,1-5-.73-1-2.2.43-4.37,2.2-6.19a87.3,87.3,0,0,0,13.86-19.37c2.16-4,1.42-5.55-3.08-5.62-16.31-.23-32.63.43-49-.37-3.25-.16-7.54,1.49-9.26-1.36-1.33-2.22,2.19-5.15,3.56-7.73,4.68-8.82,4.77-8.77-1.28-16a4.77,4.77,0,0,0-1.68,3.95c.33,5.08-2.41,4.16-5.55,3.36-10.49-2.64-21-5.12-31.51-7.74a4.56,4.56,0,0,0-4.6.86c-6.82,5.83-13.66,11.64-20.63,17.3-11.08,9-22.29,17.82-33.38,26.81C50,256,45.41,260.07,39.6,265c9.94,0,18.22.07,26.5,0,3.67-.05,4.25,1.36,3.07,4.62-2.58,7.16-5.11,14.37-7.24,21.68-1,3.27-2.44,4.6-5.84,4.53-9.33-.19-18.66-.1-28-.22-8.94-.13-8.94-.18-9.37,8.47,0,.23-.32.44-.57.77a7,7,0,0,1-1.88-5.45c.17-2.82-.28-4.48-3.72-4-2.07.27-2.94-1.22-2.73-3.23s.51-4.28.75-6.43c.63-5.59,2.35-11.07,1.78-16.79-.29-2.82-1.79-3.92-4.66-4-3.25-.09-2.85,2-2.85,3.95,0,7.84,0,15.67,0,23.5,0,1.15-.16,2.7.47,3.37,3.74,3.93,1.94,8.39,1.6,12.73C6.21,317.65,3.91,326.73,5.16,336.3ZM650.47,339a25.67,25.67,0,0,1,2.9-.19c4.83.19,7-1.83,6.38-6.89a85.47,85.47,0,0,1-.07-10c0-11.39,0-11.39-11.11-11.88a10.16,10.16,0,0,1-2-.18c-2.33-.58-2.78.55-2.92,2.63-.5,7.54-.57,7.54-8.36,7.68a25.29,25.29,0,0,1-4,0c-2.7-.38-6.6,1.49-7.84-1.18s2.2-4.71,4.12-6.68c.58-.6,1.29-1.16.91-2.1s-1.23-.76-2.1-.75c-4,0-5.18-1.81-3.4-5.34.74-1.47,2-2.68,2.8-4.12.68-1.21,2.56-2.18,1.49-3.87-.86-1.37-2.45-.59-3.72-.52-9.28.48-18.57-.91-27.89.53-5.13.79-6-1.06-3.39-5.76,1.86-3.33,4-6.56,6.12-9.7,1.83-2.66,1.44-3.92-1.91-4-10.15-.12-20.31-.41-30.46-.29-2.75,0-4.29-.36-4-3.32.2-2.35-1-2.82-3-2.76-3.83.12-7.67,0-11.5.1-4.33.13-4.72-1.93-3.31-5.37,1.89-4.6,3.9-9.18,5.37-13.92,1.65-5.28.25-7.26-5.3-7.27q-26.47,0-53,.36c-4.34.06-7.59,1.82-8.23,6.85-.79,6.25-.2,12.61-1.8,18.79a1.89,1.89,0,0,0,1.8,2.47c2.3.29,4.64,1,6.89.8,15.12-1.57,30.28-.23,45.41-.67,1.49,0,3.79,0,3.65,1.71-.49,6.13,4.06,4.34,7,4.67a41.65,41.65,0,0,0,7.47-.29c3.69-.28,5,1.25,3.73,4.77s-2.26,6.94-3.64,10.31c-1.09,2.68-.37,3.83,2.44,3.69,7.62-.36,15.31.89,22.89-.77a5.31,5.31,0,0,1,5.1,1.25c1.38,1.4-.35,2.81-.75,4.07a18.23,18.23,0,0,1-3.08,5.06c-.82,1.1-1.82,2.13-1.24,3.54.71,1.71,2.29.86,3.53.86q14.49,0,29-.08c2.22,0,4.46.26,3.61,3.13-1,3.25-3.55,6.09,0,9.54,1,1-.69,3-2,4.11-2.63,2.29-5.23,4.65-7.71,7.11-1.72,1.72-3.65,3.27-2.17,6.42,1.37,2.92,3.55,2.4,5.84,2.39,11.26,0,22.51,0,34.29,0-2.3,5.08-6.27,7.52-10,10.13-5.3,3.71-10.3,7.77-10.92,14.7-.42,4.78.21,9.64.17,14.47,0,3.23,1.37,3.45,3.65,2a65.69,65.69,0,0,1,10.23-5.14c8.73-3.52,17.48-7,26-11,3.39-1.57,7-3.58,5.26-8.9-.68-2,0-5.17,2.11-6.06,1.72-.71,3.43,1.63,4.73,3.06,5.27,5.77,11.76,9.68,18.76,13,3.35,1.57,4.4,1,4.32-2.81-.19-9.16-.21-18.33,0-27.49.07-3.07-1-3.25-3.71-3.49-6.19-.54-12.31.49-18.46.24-1.6-.06-3.81.61-4.53-1.16s.77-3.4,2-4.78c3.73-4,7.37-8.09,11.13-12.07,2.15-2.28,3.08-5,1.75-7.74-1.19-2.45-3.72-1.31-5.85-1.08a67.64,67.64,0,0,1-7,.22c-5.73,0-6.85,1.26-6,7.18a14.36,14.36,0,0,1-.33,6.85,15.53,15.53,0,0,0,.14,9.32,22.1,22.1,0,0,1,.09,10.81c-.44,2.19-1.21,3.3-3.92,1.77C659,343.69,656.19,338.78,650.47,339Zm189.76,49.7h0c-5.33,0-10.67-.12-16,0-3.85.12-5.32,2.77-2.92,5.58,3.38,3.95,5.75,8.56,9,12.59,1.23,1.53,3.23,2.75,2.3,5.1-1.11,2.83-3.71,1.51-5.69,1.68-9.07.79-18.29-1.48-27.26,1.34-1.57.5-2-.46-2.65-1.48-4-6.16-9.91-10.68-14.36-16.45-1.33-1.72-4.89-2.77-3.6-5.23,1.13-2.17,4.45-1.6,6.93-1.6,1.83,0,3.67,0,5.5,0l22-.33c3.13,0,3.74-1.26,3.16-4.44-.88-4.89-4.44-5.56-8.11-6.76-2.17-.71-5.62-.1-6-3.37a136.33,136.33,0,0,1-.66-14.72c0-2.36.24-5.2-1.79-6.22-1.64-.83-3.31,1.65-4.77,2.86a112.77,112.77,0,0,1-17.38,12.16c-4.93,2.72-9.63-.44-9.51-5.93.07-3.47-1.37-4.41-4.52-4-9.45,1.27-18.18.72-22.9-9.48-.2-.43-.67-.73-1-1.14-.51-.73-1.13-1.28-2.06-1-1.25.35-1.16,1.43-1.19,2.43-.1,3.28,1.62,7.72-.75,9.51-2.56,1.95-6.53-1.08-10-1.22a1.39,1.39,0,0,1-.48-.14c-2.67-1.16-3.15.21-3.13,2.53.08,6.84.08,13.67.05,20.5,0,1.79.35,3,2.19,4,6.51,3.33,12.88,6.95,19.36,10.34,4.56,2.4,5.59,1.85,4.8-3.42-1.11-7.32-.5-14.64-.75-21.95-.06-1.77-.61-4.13,1.26-5.05,2.25-1.12,3.72,1.34,4.88,2.57,5.78,6.18,11.26,12.64,16.83,19,1.62,1.85,3.89,3.56,2.71,6.47-1.65,4-.8,8.22-1,12.35-.16,2.74,1,4.3,3.42,5.92,5.21,3.41,10.91,5.68,16.42,8.4,1.3.65,2.5,1.38,4-.14,2.49-2.51,4.37-.72,6.21,1.27,3.66,4,6.61,8.61,11.8,11.08,3.21,1.53,5,6.12,4.55,8.17-2.15,9.62-.63,19.14-.72,28.68,0,2.39-.65,4.56-3.54,4.37s-3.46,1.28-3.66,3.55c-.16,1.92-.49,3.9-3.19,3.22-1.37-.34-2.93-1.86-3.84.19s.9,3.75,2.49,4.23c3.72,1.1,3.46,3.85,3.68,6.7.36,4.55-2.57,8.23-3.07,12.54a8.35,8.35,0,0,0,8.25,9.6c1.29,0,3,.3,3.14-1.57.31-4.28,2.28-8.48,1-12.82-1.38-4.6-.58-9.27-.83-13.91-.19-3.54,1.7-3.7,4-2.11,2.84,2,5.4,4.41,8.13,6.59,1.86,1.49,4,3,6.35,1.75s1.95-3.88,1.87-6.24c-.2-6.3-.74-12.65-.17-18.89a13.23,13.23,0,0,0-3-10.13c-2.72-3.35-5.83-6.37-8.77-9.54-1.44-1.55-3.75-3-2.93-5.35s3.67-2,5.7-2.09c5.49-.22,11-.12,16.5-.18,2,0,4.1-.11,5.15-2.27.94-2-.72-3.07-1.64-4.37-2.79-3.94-5.71-7.79-8.43-11.78-1-1.38-3.27-2.52-2-4.64,1.1-1.76,3.28-1.34,5.06-1.36,7.17-.06,14.34,0,21.5,0,2,0,4.27.54,5.37-1.63s.09-4.19-1-6.12c-2.57-4.45-5.08-8.94-7.63-13.4-.58-1-1.56-2.38,0-2.94,3.83-1.42,3.07-4.81,3.36-7.52.7-6.59.86-13.24,2.33-19.74.49-2.17.13-3.62-2.52-3.62-4.16,0-8.33,0-12.49-.08-2-.05-2.59,1-2.53,2.79.12,4.44-.39,8.77,2.09,13.06a72.4,72.4,0,0,1,4.85,9.24c1,2.54,1.32,4.35-2.66,4.06C850.25,388.39,845.23,388.67,840.23,388.67Zm-497-91v.06c6.33,0,12.66,0,19,0,5.18,0,6.63-1.54,5.18-6.7a82.63,82.63,0,0,0-4.91-13c-1.42-3-.33-4,2.33-4.39a34.23,34.23,0,0,1,5-.3q14.25,0,28.49.12c2.47,0,4.72-.3,3.62-3.52-1.88-5.47-1.74-11.1-2.09-16.74-.48-7.92-3-9.85-10.71-9.2a49.72,49.72,0,0,0-6.94.55c-9,2.06-17.28,6.66-26.77,7-2.65.1-4.09,1.85-2.51,4.95,1.42,2.79,2.33,5.85,3.48,8.79,2,5.16.91,6.84-4.62,6.25-15-1.59-29.94.61-44.91-.37-5-.33-6.77,3.29-4.14,7.55s5.61,8.66,8.21,13.11c1.78,3,.47,5.72-2.77,5.37-3.81-.42-7.71.42-11.26-.17-9.64-1.63-19.27-.29-28.87-.92-1.65-.11-3.45-.23-4.18,1.84-.6,1.68-1.57,3.26.13,5,3.1,3.23,6,6.66,9,10,1.2,1.34,2.48.73,3.57,0,2.8-2,3.39-.68,3.37,2,0,5.66-.17,11.33,0,17,.16,4.42-2.15,10.2.78,12.87s8.59.53,13.05.74c1.81.09,3.89.39,4.83-1.7a5.15,5.15,0,0,0-1.08-6c-2.77-2.85-5.64-5.62-8.42-8.46-1-1-2.7-2-2-3.68s2.53-1.92,4.25-1.94c10.48-.07,21-.19,31.45-.2,2,0,3.9.58,5.29-1.63,1.51-2.38,1-4.36-.47-6.44-2.48-3.54-4.85-7.16-7.39-10.66-1.11-1.53-2.33-3-1.56-5,.91-2.28,3.11-2.22,5.11-2.23C330.28,297.65,336.78,297.67,343.27,297.67Zm61.27,267.46a15,15,0,0,1,11,1c1.71.81,3.45,1.41,5.08-.18,2.52-2.48.95-5.28.66-8-.24-2.28-1.9-1.77-3.33-1.95a4.22,4.22,0,0,1-3.06-6.72c1.59-2.34,3.39-4.54,6.08-5.78a3,3,0,0,0,1.62-3.79c-.42-1.82-2-2.25-3.52-2.06-2.13.26-4.22.83-6.34,1.19-1,.17-2.16.06-2.42-1.15-.31-1.48,1-1.5,1.91-1.6,4-.39,6.56-3.7,10.06-5.14,1.52-.62,1.42-2,.93-3.4-1.52-4.49-4.79-3.15-7.78-2.3-1.36.38-2.57.85-3.65-.35a2.88,2.88,0,0,1-.21-3.3c1.3-2.71,4.19-2.25,6.47-2.81,1.89-.45,2.87.56,3.24,2.71.66,3.84,4,1.92,6.12,2.19a3.21,3.21,0,0,0,3.66-3.28c.23-4.44-3.21-3.89-5.92-3.93-1.87,0-2.89-.41-2.63-2.5.29-2.29,1.29-2.41,3-1.14a1.91,1.91,0,0,0,2.71-.11,1.82,1.82,0,0,0-.14-2.67c-1.9-2-.19-2.74,1-3.9,2.68-2.51,2.42-8.83-.71-9.21-6.1-.75-12.71-1-18.48.75-3.16.93-5.61,2.54-9.06,1.31-2.43-.87-4.79-.54-4.83,2.91-.08,6.35-3.89,6.47-8.66,5.45-2.37-.51-4.9.1-5-3.83-.31-8.24-.05-8.6,7.86-6.1.31.1.64.17,1,.29,3,1.08,5.18.83,5.49-3.07.41-5.25,3-4.31,6-2s5.63,2,7.5-1.39c1.3-2.4,2.76-2.55,4.76-.9a2.78,2.78,0,0,0,4.05-.06,3.7,3.7,0,0,0,.68-3.76c-.7-2.72-6.69-7-9.39-6.2-3,.93-5.41.13-8.06-1-2.43-1.07-5.19-1.36-5.83,2.24-.88,4.93-3.33,4.16-6.63,2.39-6.42-3.44-8.36-2.43-9.5,4.72s-2.26,14.21-.36,21.63c1.86,7.22-1.55,14.57-1.16,22,.16,2.89,1.35,5.44,1.41,8.26.25,10.45.29,10.46,9.33,5.62,3.08-1.64,6-2.89,7,2.25.36,1.9,1.91,2.25,3.51,1.63a18.52,18.52,0,0,0,4.4-2.27c1.93-1.42,3.09,0,4.43.86.85.51,1.56,1.16,1.12,2.42-1.58,4.53-10.49,7.13-14.11,3.73-1.64-1.53-1.92-1.36-3.28.1-1.69,1.84-9.15,1.71-10.64.19-4.39-4.43-6-4.47-10.59-.17-2,1.9-3.26,1.81-4.12-1.12-.49-1.68-.29-4.1-2.1-4.85-4.72-2-8.21-7.16-14.33-5.58-.59.16-1.63.08-1.9-.3-4.2-5.9-11.52-4.33-17-7.14-1.45-.74-3.86-1.61-4.38.36a29.71,29.71,0,0,0-.06,13.3c.3,1.57,1.82,1.78,3.24,1.61a20.86,20.86,0,0,0,2.94-.55c2.25-.59,4.46-1.33,6.72-1.85,1.65-.39,4-1.66,4.56,1,.42,2,1.74,4.67-1.05,6.19-.89.48-1.76.49-1.68,1.89.28,5.16,2.38,6.72,7.54,5.56a20.31,20.31,0,0,1,2.93-.2c6.3-.42,12.14,4.22,18.74,1.47,1.84-.76,2.93,1,3,3,.06,3.19,2.08,5.1,4.45,6.81,7.23,5.25,14.86,9.17,24.26,7.62.84-.14,1.85.53,2.75.91,1.8.77,3.93,2.36,5-.48s-1.74-2.6-3.27-3.25c-.77-.33-1.68-.52-1.72-1.54s.7-1.28,1.54-1.61c5.19-2,5.16-2,1.51-6C407.52,568.65,406.26,567.11,404.54,565.13ZM796.22,692.07h.06c0-5-.1-10,0-15,.08-3-1.43-4.55-4.08-4.45s-4.89,1.06-4.78,4.49a47.53,47.53,0,0,1-.3,7.45c-1.37,10.8-1.24,21.74-3.31,32.48-.55,2.85.09,4.16,3.33,1.85,4.47-3.18,7.28-2.26,7.42,2.25.25,7.79,1,15.65-.47,23.39a15.09,15.09,0,0,0,.5,6.85c.84,3.2,2.38,4,5.46,2.57,4.23-2,6.8-5.67,10-8.78,1.31-1.28,2.4-3.76,4.79-2.68,2,.92,1.35,3.21,1.36,5,.06,7.16,0,14.32,0,21.48,0,3.32,1,5.45,4.76,3.32a15,15,0,0,0,3.7-2.44c2.92-3.16,5.45-6.7,8.52-9.69,2.69-2.63,5.84-5.59,9.87-4.95,5,.79,9.94.41,14.9.7,1.38.08,3.27-.66,3.93,1.22s-.5,3.06-1.56,4.45c-2.53,3.28-4.85,6.73-7.18,10.15-1.3,1.92-1,3,1.64,3a14.68,14.68,0,0,0,8.48-2.27c2.6-1.67,4.55-.91,4.17,2.61-.1,1-.59,2.35.85,2.16,4.82-.64,10.33,1.69,14.35-2.29,4.91-4.85,7.49-11.25,9.93-17.59.82-2.15-1.08-2.25-2.6-2.56-6.12-1.24-12.29-.48-18.43-.63-3.62-.08-4.7-1.49-2.45-4.55s4.57-5.7,6.77-8.62c1.46-1.94,2.37-4.22,1.24-6.54s-3.45-2.26-5.66-2.24c-3.66,0-7.33.12-11,0A8,8,0,0,0,854,734.9c-3.69,3.61-6.84,7.68-10.48,11.29-1,1-2.42,2.85-4.21,1.95s-1.48-2.83-1.42-4.51c.19-5.14-.44-10.3.56-15.44a4.88,4.88,0,0,0-2.06-5.28c-1.92-1.23-3,.8-4.35,1.48-4,2-5.66,6.92-10.14,8.43-1.28.43-2.06,2.72-3.77,1.35-1.27-1-.88-2.75-.86-4.23.09-7.66.26-15.32.26-23,0-5.15-2.09-6.34-6.48-3.73-3.14,1.87-6.1,4-9.23,5.91-3.81,2.29-5.47,1.36-5.57-3.1C796.15,701.39,796.22,696.73,796.22,692.07ZM452.41,421.13c9.22,0,9.21,0,8.7,9-.06,1,.05,2,0,3-.29,3.54,1.55,4.68,4.81,4.68s6.65-.46,9.91.68c1.42.5,2.78,1.08,1.79,2.69a8.9,8.9,0,0,0-1,8.15c1.55,3.46,5.28,1.2,8,1.74,3.07.61,4.56,1.72,2.69,5-2.17,3.83-1.79,6.57,2.41,9.5,3.71,2.57-3.63,6.6-.28,10.23a3.79,3.79,0,0,0,.39.31c2.2,1.73,1.24,2.94-.53,4.27a48.7,48.7,0,0,0-3.6,3.45c-1.44,1.34-2.7,2.78-1.06,4.67s3.65,1.11,5.31-.19c1-.8,1.66-2.21,2.76-2.79,1.75-.92,3.78-1.86,4.4,1.51.71,3.82,3,4.91,6.6,3.28s6.12-1.33,6.57,3.38c.2,2.09,1.57,3.22,3.78,3.16,2.51-.06,3.08-1.93,3-3.77-.07-3.34,1.53-6.88-1-10-.12-.15-.64-.06-.94,0-3.41,1.12-3.83-1.07-4.37-3.61-1-4.77-3.68-5.55-7.39-2.37-.64.54-1.21,1.14-1.84,1.68-1.06.91-2.37,1.68-3.64,1-1.8-1-.09-2.29.06-3.46.3-2.38,2.05-3.67,3.71-5.08,2.13-1.8,4.25-5,1.82-6.57-4.81-3.14-2.82-5.53-.75-8.81,2.53-4,1.29-6.74-3.34-6.62-5.7.14-4-3-2.88-5.58,2.31-5.47,1.26-7.45-4.52-7.63-10.12-.33-10.12-.33-7.54-9.91,1.29-4.77-.34-7.08-5.26-7-4.15.07-8.35-.56-12.44.53-2.77.74-3.22-.78-2.92-2.93.15-1.13.67-2.21.91-3.34,1.43-6.69.5-8.48-6.11-10.18-5.87-1.51-11.71.95-17.64.7-2-.08-2.08,2.21-2.3,3.88-.45,3.57,1.71,8.12-1.11,10.5s-7.39.51-11.17.82c-.33,0-.67,0-1,0-7.62.17-9.45,2.94-6.71,10.14,2.53,6.66,1.66,7.89-5.45,7.85-2.78,0-6.19-.74-7.66,2.23-1.18,2.39,1,4.65,2.29,6.75,2.42,4,2.1,4.57-2.63,4.79-1.89.08-5.44-.43-5,1.66,1.19,5.58-.28,11.08.44,16.39.46,3.41,4.71,5.75,7.92,7.75a4.28,4.28,0,0,0,5.5-.92c1.53-1.64.26-3.05-.6-4.47-1.58-2.6-2.08-4.95,1.36-6.55,2.67-1.25,3.48-3,2.24-6s-1.62-6,3.73-5.92c2.51,0,6.67-.23,5.84-5.36-.45-2.76-3.94-5.69-1.25-8.11,2.12-1.9,5.77-.45,8.73-.7h.5c6.35-.17,8.28-2.55,7.19-8.88-1.45-8.38-1.18-8.69,7.55-8.7ZM693.89,310.54c2.62-2.85,5-4.33,7.8-1.15,1.38,1.57,3.24,1.41,5.09,1.4q24.5-.09,49-.08c1.9,0,4.58-1.09,5.49,1,1,2.48-1.88,3.87-3,5.75-.32.52-1.11.73-1.59,1.17-4,3.73-8,7.48-12,11.21-.64.59-1.21,1.23-1,2.13.35,1.26,1.45,1.13,2.45,1.13,6.17,0,12.33-.17,18.5-.08,3,.05,3.59-1.47,3.74-4,.47-8.33.06-16.28-7.09-22.21-3.19-2.65-1-3.86,1.63-4.32,1.77-.31,3.68.18,5.47-.08,3.5-.51,7.38,1.11,10.43-2.05,4.51-4.66,9.28-9.05,13.48-14,1.54-1.83,1.3-3.11.14-4.82-2.37-3.49-5.29-5.34-9.72-4.32a24.83,24.83,0,0,1-6.45.45c-11.26-.42-22.51-.95-33.77-1.43-1,0-2.14-.52-2.79.43-.84,1.24.27,2.12.94,3.05,3.95,5.55,8.07,11,11.76,16.71,2.84,4.38,2.46,4.77-2.64,4.75-16.47,0-32.94-.15-49.42-.07C694.72,301.12,692.79,304,693.89,310.54ZM424.45,474.32c-1.65,1.28-5.36,1.62-4,4.53,1.88,4.11,2.65,8.55,4.49,12.64,1.13,2.51,2.47,2.29,4.12.6,3.29-3.36,2.49-7.46,1.62-11.29-.5-2.23-.39-3.64,1.79-4.31,3.52-1.1,3.86-3.76,3.45-6.73-.48-3.39.87-5.21,4.28-5.09,4.7.16,6.13-2.23,5.82-6.55-.12-1.73-1.07-4.33.59-5.14,3.34-1.65,7.28-1.16,10.75-.4,2.65.58.89,3.43.77,5.22-.26,4.14,0,7.44,5.6,6.89,3.93-.38,5.07,2,4,5.34-1.18,3.77-.88,6.08,3.84,6.24,2,.06,2.81,1.29,1.63,3.48-4.09,7.57-1.89,14.8,1.87,21.67,1,1.86,2.54,5.63,5.72,1.54a1.32,1.32,0,0,1,2.15.33c2.59,4.56,5.79,3.1,9.16,1.12,2.37-1.38,4.59-1.6,5.16,1.85.6,3.66,3,3.93,5.9,3.54,4.55-.61,8-.11,6.91,6a5.62,5.62,0,0,0,1,3.24c.85,1.53,2.37,2.8,4,2.49,2.07-.39,1-2.47,1.1-3.8.16-2.66.08-5.33.06-8,0-1.33.09-3-1.87-2.79-2.95.31-3.07-1.77-3.57-3.7-1.61-6.21-1.87-6.45-7.69-4.06-2.78,1.14-4.63,1-5.23-2.12-1-5.09-3.89-4-6.94-2.3-1.61.9-3.23,2.33-5,2-5.25-1.08-8.22-9.17-5.47-14.4a15.33,15.33,0,0,1,1.63-2.5c.87-1.07,1.14-2.33,0-3.07-3.31-2.14-2.26-5-1.79-7.93.35-2.2,1-5.22-2.75-5-4.6.22-5.13-1.66-4.35-5.72,1.15-6-.72-7.82-6.86-8-1,0-2-.09-3,0-2.35.14-3.41-.8-3.05-3.24.21-1.47.11-3,.37-4.45.58-3.18-.77-4.74-3.86-5.06a44.05,44.05,0,0,1-4.46-.48c-6.67-1.37-10.13,1.08-9.67,7.68.33,4.75-.75,6.2-5.81,5.89-6.23-.39-7.14,1.14-7.05,7.39,0,1.91.39,3.63-2.24,4.81C421.21,465.44,420.74,467.82,424.45,474.32ZM142.3,800.81l-.94,1.16c3.22,4.33,6.46,8.65,9.64,13,.88,1.19,1.89,2.53,1,4.09-.71,1.28-2.11.66-3.2.64-13.3-.25-26.62.56-39.92-.42a4.4,4.4,0,0,0-4.7,5.79c2.21,8.23,7.28,11.88,15.4,10.49,3.39-.58,4.67-.68,3.5,3.43a7.28,7.28,0,0,0,5.79,9.44c4.82.87,10,2.19,14.58,1.22a25.81,25.81,0,0,1,12.92.18c3.56,1,7.6.28,11.42.19,1.74,0,3.93.68,4.95-1.39s.16-3.78-1.17-5.49c-4.27-5.5-7.34-11.9-12.71-16.56a4.14,4.14,0,0,1-1.46-4.48c.5-1.58,2.15-1.26,3.43-1.37,2.14-.17,4.2-1.09,6.42-.59.93.2,2.15.48,2.66-.62.6-1.3-.78-1.56-1.49-2.16a71.18,71.18,0,0,1-5.62-4.9C157.05,806.47,149.18,804.61,142.3,800.81Zm131.35-527c6.33,0,12.66.1,19,0,5.19-.11,6.61-2.62,4-7.06a58.56,58.56,0,0,0-5.54-8.25c-3.69-4.43-5.72-9.91-12.86-11.69-6.14-1.52-10.52-2.44-14,3.06-3.26,5.11-8,8.89-11.5,13.75-1.22,1.69-3.23,3.22-5.63,2.5-7-2.11-14.24-.4-21.32-1.09-3.94-.39-4,1.26-3.15,4.38a25.66,25.66,0,0,0,4.45,8.78c.67.9,1.08,2.22,0,3.2-.83.75-1.59.22-1.93-.64-.89-2.21-2.53-2.35-3.82-.86s-1.68,4.17.75,5c2.66.89,2.09,2,1.09,3.54-2.34,3.59-3.62,6.63-3.36,11.78.63,12.53,1.27,25.08,2.24,37.61.2,2.6,1.19,5.16,1.91,7.71.23.79.76,1.56,1.8,1.19.75-.26.76-1,.7-1.67-1.32-15.05,1.46-30.23-1.49-45.22a4.77,4.77,0,0,1,1.29-4.13q10-12.06,20-24.11c1.28-1.54,3-2.28,4-.28,1.49,3,3.94,2.55,6.37,2.56C262.33,273.82,268,273.8,273.65,273.79ZM6.34,652.19l-1.57,1.33c.16,2.28-.55,5.29.64,6.7,3.72,4.41,3.14,10.18,5.57,14.95.87,1.7,1,4.78-2.51,4.5s-3.81,1.5-3.65,4.18c.13,2.33,0,4.66,0,7,0,7.87,0,7.86,7.79,7.55.5,0,1,0,1.5,0,2.81-.28,4.35-1.53,3.52-4.62-.65-2.4-.89-5-1.93-7.21-1.93-4.11-.35-5.9,3.61-6.35,2.63-.3,5.3-.37,8-.42,6.72-.13,7.4-1.21,4.4-7.31-.95-2-2.1-3.79-3-5.75-1.32-2.79-.64-4.41,2.72-4.65,2.63-.19,5.22-1,7.83-1.06,4.37-.1,4.23-2.55,2.88-5.32-1.07-2.2-2.9-4-4.13-6.15-1.56-2.69-1-4.54,2.49-4.53a32.79,32.79,0,0,1,3.95.38c4.46.55,6.68,3.9,9.19,7.06s7.51,3.37,7.8.72c.51-4.66.93-8.81,3.06-13.43s.28-11-.72-16.61c-.19-1.08-.41-2-1.72-2a1.91,1.91,0,0,0-2,1.77,51.27,51.27,0,0,0-1.34,7.32c-.18,2.67-1.38,3.54-3.82,1.27-5.21-4.84-8-4-9.13,2.74-.61,3.68-1.86,3.94-4.36,1.6-1.2-1.12-2.35-2.3-3.55-3.44-2.33-2.22-4.88-4.1-8.3-3.94-1.69.07-3.42.6-4.16,2.3s.35,2.84,1.34,4,2.07,2.59,3.06,3.92c1.15,1.54,3.39,3,2.22,5.1-1.07,1.94-3.36.4-5.09.63-2.61.35-5.72-.19-7.27,2.42s.37,5.08,1.67,7.34c.89,1.54,3,2.86,2.07,4.77-1.05,2.25-3.54,1-5.4,1.21C12.34,660.76,6,662.58,6.34,652.19ZM39.12,564.3c1.86.41,4.21-1.33,4.93.27a15.74,15.74,0,0,1,1.31,10.63c-1,3.56-4,1.48-5.93,1.45-4.25-.08-7.6,0-7,5.9.41,4.38-2.78,5.67-6.24,4.35-3.73-1.41-5.33-.41-5.9,3.19-.45,2.86-1.77,3.55-3.94,1.52s-5-1.28-7.59-1.4c-2.11-.1-4,0-3.92,3,0,2.37.08,3.86,3.24,4.2,3,.32,6.29.88,8.64,3.38.92,1,2.43,1.25,3.05.1,2.07-3.84,5.2-2.87,8.19-2,3.39,1,4.66-.27,4.66-3.55,0-3.81,2.12-4.63,5.6-4.29,7.87.78,7.88.66,8-7.35,0-.83,0-1.67.07-2.5.09-1.87,1-2.52,2.93-2.43,9.11.44,9.11.4,10.4-8.24.05-.32.24-.62.3-1,.95-5.53-.51-7.32-6-7.39-7.41-.09-7.41-.09-7.67-7.32-.25-6.7-1.78-8.13-8.17-7-2.59.47-4,.26-4.64-2.68-.5-2.25-1.84-4.52-4.78-4.21-3.43.36-7.06,2.25-9.58-2-.2-.34-1.77-.33-2.31.07-2.66,1.93-5.81,2.33-8.85,3.09-1.71.42-3,.93-3.08,3.17a4.21,4.21,0,0,0,2.65,4.33,9.48,9.48,0,0,0,7.75-.26c1.92-.79,3.67-.9,4.62,1.29,1.29,3,3.31,3.64,6.41,2.91,3.84-.91,6.33.84,6.11,4.92C32.07,564,34.54,565.49,39.12,564.3ZM814,331.83v-.15c-3,0-6.06.42-9-.11-3.55-.65-4.41,1-4.81,3.89-.5,3.7.71,7.23.85,10.87.06,1.61-.41,3.54,1.45,4.42s3.58-.25,5.06-1.32c7.26-5.25,14.74-10.25,21.59-16,2.72-2.27,6.77-3.41,7.69-7.93,1-5,.24-9.9,0-14.83a4.18,4.18,0,0,0-3.75-4.1c-5.67-.79-8.92-7.09-15.16-6.63a1.94,1.94,0,0,1-1.38-1.26c-.51-5-4.38-5.35-8-5.46-3.26-.09-4-1.7-3.87-4.4.13-3.49,0-7,.44-10.45.31-2.45-2.85-4.83-1-6.51,2.62-2.42,2.74-5.42,2.78-8.13.13-8.3-.37-16.61-.6-24.91-.07-2.31-1.5-2.67-3.38-2.57-3.44.18-2.77,2.75-2.68,4.78.77,17.51-1.76,35,.76,52.58,1.32,9.21.28,9.37,9.62,8.65a5.51,5.51,0,0,0,1.48-.17c3.53-1.32,4.92.59,6.42,3.5,3.56,6.93,6,14.4,10.26,21,2.18,3.38.67,5-2.81,5.2C822,332,818,331.83,814,331.83ZM61,580.73c-1.5,1.32-1.92,1.51-1.93,1.72-.12,3.16-.36,6.32-.2,9.47.23,4.29-.67,5.73-5.35,3.86-6.29-2.52-7.83-1.1-7.91,5.84a12.51,12.51,0,0,0,0,1.5c.32,3.46-1.35,4.13-4.25,3a34,34,0,0,1-4.12-1.75c-1.88-1-3.27-.66-3.92,1.35-1.44,4.44-4.47,3.74-7.55,2.32-1.69-.77-3.49-2.24-4.9-.36-2.3,3.1-3.46,1.67-5.11-.53a33.67,33.67,0,0,0-4.35-4.07,2.35,2.35,0,0,0-3.15-.44,2.65,2.65,0,0,0-1.11,3c.36,2.34,2.2,3.58,3.41,5.31.9,1.29,3.66,4.26-.15,4.77-5.51.74-4.33,3.9-3.67,7.16.25,1.27,1.62,3,.78,3.73-4.82,4.38-1.78,10-2.6,14.93-.43,2.58.85,3.67,3.41,3.45s5.61.66,7.32-2,.13-5.18-1.27-7.42c-2.11-3.39-2.08-5.4,2.55-6.08,4.24-.63,5.35-3.65,3-7.2-.73-1.08-1.83-1.9-2.6-2.95s-1.41-2.13-.7-3.23c.86-1.33,2.06-.24,3.14,0,2.34.42,3.41,2.54,5.15,3.66,2.17,1.4,5.46,5.41,7.22,2.23,3.44-6.24,6.32-2.33,9.38-.62,3.42,1.9,5.26,1.19,5.9-2.75.89-5.44,1.28-5.63,6.39-3.32,4.57,2.06,6.47,1,6.49-4.18a61.27,61.27,0,0,1,1.41-11.29C62.76,593.82,60.81,587.86,61,580.73Zm801-247.93c1.83,0,3.68-.14,5.49,0,3.18.29,4.5-.57,5.59-4.12,1.71-5.55,1.1-11.19,2.21-16.64,2.61-12.9,2.52-26.27,6.79-38.88.53-1.55.23-2.84-1.77-3.39-6-1.64-9.44.67-9.55,6.85a20,20,0,0,0,.95,5.37c1.13,4.16,2.5,8.25,3.57,12.41,1.35,5.26.59,6.34-4.82,6-3.44-.21-5,.84-5.94,4.26a50.49,50.49,0,0,1-4.18,10.11c-.71,1.38-1.78,3.54-4.2,1.59-3.3-2.65-5.14-2.07-5.82,2.11-.73,4.45-1.14,9.4,1.31,13.13,1.89,2.86,6.19.7,9.38,1.15A8.14,8.14,0,0,0,861.93,332.8ZM17.35,215.1c.81-4.36-.82-8.69-1.39-13.12-.69-5.49-5.17-2.48-8-3.07-3.35-.7-3,1.81-3.18,4-.82,9.15,2,18.07,1.55,27.2-.12,2.35,1.26,3.87,3.71,3.64,4-.39,3.8,1.81,3.26,4.61a60.74,60.74,0,0,0-1.11,14.87c.67,12.35.67,12.25,12.73,11.9,3-.09,3.31-1.14,2.78-3.63-1.64-7.78-3-15.63-4.81-23.38-.56-2.41-1.24-5.3-5-5.21-2.07.05-2.41-1.11-2.14-3.34C16.38,224.84,17.89,220.18,17.35,215.1ZM491.47,519.82c2.64,0,5.21-.26,6.46-2.91,1.13-2.38,0-4.68-1.54-6.41-1.88-2.1-4.66-1.42-7.1-1.28s-4.81,1.53-6.66-1.38c-.67-1-1.82-.49-2.27.64-.82,2.06-1.66,4,1.53,5.09a1.81,1.81,0,0,1,.55,3c-2,1.44-4.51,1.18-6.68.42-1.26-.44-.29-1.7.3-2.42,1.1-1.36,2.24-2.88.83-4.42-1.55-1.7-3.82-3.73-6-2.35a9.06,9.06,0,0,0-4,8.11c.12,2.74,2.45,2.6,4.51,2.7,1.14,0,3.06-1.15,3.25.94s-1.75,2-3.25,2.14c-2.65.18-5.05,2.34-2.78,3.85,4.16,2.76,3.42,7.14,5.3,10.54a9.38,9.38,0,0,0,2.43,3.09c1.17.89,2.61.79,2.33-.88-.59-3.56,1.45-3,3.75-3.33,3.67-.53,6.93.68,10.2,1.68,3.48,1.07,5.22-.06,5.58-3.4.34-3.17,1.58-4,4.61-2.79,2.13.87,5,1.65,6.51-.36a8,8,0,0,0,.67-8.13c-1.63-3.22-5.16-3.12-8.26-3.31a4.17,4.17,0,0,0-4.65,4.23c-.15,4.63-2.79,4.27-5.65,3.16-4-1.55-7-1.48-9,3-.71,1.59-2.27,3.84-4.67,2.34a4.51,4.51,0,0,1-1.62-5.82c1.74-3.29,8.42-.6,8.48-6.5,1,0,2,0,2.91.13C488.87,519.32,490.17,519.59,491.47,519.82ZM309.87,129.51c0,22.92,6,45,9.37,67.46.28,1.86,1.15,3.57,3.65,3.13,2.23-.39,3.59-1.47,3.73-3.91.21-3.74-1.13-7.2-1.73-10.79-3.06-18.33-4.92-36.8-6.24-55.33-.23-3.32,0-6.7-.65-9.95-.38-2.11-1.05-4.91-4.22-4.67-3,.22-3.59,2.83-3.83,5.08A84,84,0,0,0,309.87,129.51ZM199.21,342.9c0,3.26,0,5.42,0,7.59s-.05,4.65-.08,7c0,1.59.06,3.13,2.3,2.94,2.93-.24,11-8.08,11-11.18,0-12.12-.23-24.24-.38-36.35,0-1.05-.21-2.07-1.39-2.33-.95-.22-1.46.56-2,1.23-3.21,4.22-6.44,8.43-9.65,12.64a2.91,2.91,0,0,0-.79,2.76C200.23,332.7,198.72,338.41,199.21,342.9Zm-142,193.3c-.19-1.44-.56-3.89-.81-6.35-.57-5.77-1.29-6.16-6.16-2.94-1.25.83-2.32,2.17-3.91,1-1.44-1.06-1-2.7-.84-4.15.76-5.79-.06-6.5-5.57-4.46-2.77,1-5.19,2.65-8-.57-1.4-1.63-3.83-.19-5.34,1.11-2,1.72-3.79,3.72-5.68,5.59s-2.17,4.07-.63,6.27,3,1.08,4.92,0,5.23-1.84,6.55,1.06c1.82,4,4.17,4,7.54,2.29,2.56-1.29,4.48-1,4.6,2.58a23.23,23.23,0,0,0,1,4.84c.49,1.9,1.47,3.36,3.71,3.35C53.69,545.74,57.06,542.38,57.17,536.2Zm394.47-72.37c-4.57-1.4-5.79.85-5.46,5.15.23,2.95,1.07,6.52-4.4,5.69A3.48,3.48,0,0,0,438,479c.74,3.34-.08,6.13-1.35,9.09-1,2.33-.64,4.9-.12,7.37.22,1,.55,2,1.68,2.24s1.81-.66,2.32-1.51c1.53-2.53,2.47-5.78,4.63-7.46,3.1-2.42,4.23-4.81,3.32-8.51-.33-1.32-1.11-3.35.88-3.84a10.76,10.76,0,0,1,5.85.17c1.71.61,1.06,2.56.49,3.94-1.24,3-.77,5.42,2,7.42,1.54,1.13,1.81,3.1,2.59,4.74s1.09,4.68,3.55,3.94c2-.59,2.53-3.28,2.37-5.52a9.94,9.94,0,0,0-.87-3.34c-1.14-2.48-1.81-4.77-.63-7.58.86-2,.56-4.74-2.5-4.8-4.3-.08-4.93-2.5-4.57-5.9C458.09,465,456.66,462.6,451.64,463.83Zm425-73.7v0c1.66,0,3.33-.06,5,0,2.19.1,3.28-.55,3.39-3.06.21-5.47,1.18-10.92,1.14-16.37-.09-13.47,2.67-10.63-11.15-11.12-2.85-.1-3.44,1.18-3.85,3.81-1,6.38-.8,12.9-2.64,19.2s-.82,7.38,5.62,7.49Zm-151.9-179c.23-1.71-.52-4.47-1-7.23-.34-1.87-1.93-3.92-3.5-2.65-2,1.61-5.25,2.89-5,6.36.32,4.24-2.54,5.1-5.67,5.25a47.7,47.7,0,0,1-10.42-.4c-3.29-.59-3.16.67-2.23,2.85,2.18,5.13,6.75,5.27,11.33,5.29,6.28,0,8.3,1.74,9.08,7.91a30.87,30.87,0,0,1,.42,5c-.17,3.64,2,3.82,4.83,3.9,3.34.09,3.78-1.62,3.72-4.35C726.09,226.08,724.18,219.27,724.7,211.13ZM14.75,567c1.16,0,2.33,0,3.49,0,4,.21,1.78,3.16,2,4.88s-.83,3.8-2.91,2.6c-5.24-3-8,1-11.23,3.54-2.09,1.62-1.61,4.17-.83,6s2.6.11,3.84-.28c2.5-.79,4.74-2,7.55-.45,1.63.91,4.1.34,4.29-2,.34-4.33,2.94-4.36,6.19-4.26,4.84.16,6.77-1.77,6.61-6.22-.15-4.1-2.05-5.94-6.34-5.09-3.29.65-5.39-.24-5.25-4.33.1-2.69-1.89-4.31-4.6-4.13a17.38,17.38,0,0,1-9.6-2c-1.84-1-3-.43-3.11,2.06C4.55,562.22,9.34,567.05,14.75,567Zm616.81-34a41.2,41.2,0,0,0-.75-6.24,3.86,3.86,0,0,0-4.52-3c-1.77.25-4.21.3-4.21,2.62,0,4.27-2.72,4-5.38,3.64a18.87,18.87,0,0,0-14.16,3.41c-1.95,1.4-3.47,11.12-2,12.95.65.83,1.34.6,2.19.37q9.09-2.52,18.21-4.94c2-.54,2.89-1.66,3-3.88C624.31,531.82,624.81,531.56,631.56,533ZM471.43,547.78a6,6,0,0,1-3.12,7.72,10.1,10.1,0,0,1-11.2-1.8c-2.77-2.73-6.24-1.91-8.76-1-3,1.13-.12,3.95.07,6,0,.32.19.63.25,1,.43,2.29-.62,5.72,2.9,6,3.13.24,3.87,3.68,6.62,3.93A5,5,0,0,0,461,569c4.13-2.44,8.22-4.95,11.3-8.78,1.72-2.15,3.23-4.38,2.19-7.21-.66-1.8.38-2.74,1.16-4,1.13-1.84,1.29-3.75-.36-5.5-.71-.75-1.52-1.59-2.55-1.09C470.53,543.54,471.55,545.62,471.43,547.78ZM8,499.66c-3.12-1.84-3,.5-3.25,3.25-.58,7.31,2,14.58.1,21.89-.23.9-.24,2.41.3,2.87,2.73,2.31,2,4.66,1,7.55-.82,2.44.73,3.79,3.39,3,2.82-.82,7.23-7.51,6.41-10.27A7.61,7.61,0,0,1,17,521c1.51-2.4,2-5.46-1.92-6.2-5.54-1.05-4.58-3.59-2.41-7.21C16.29,501.56,15.64,500.47,8,499.66ZM177,363.81c.74-4-.49-6.26-2.85-7.36s-4.37.75-6,2.52c-5.39,6-10.8,12-16.1,18-1.08,1.23-1.76,3.11-.77,4.57s2.72.63,4.12.13c6.56-2.38,12.33-6.49,19.06-8.53a3.44,3.44,0,0,0,2.22-3.58A24.34,24.34,0,0,1,177,363.81Zm18.61-288c-.52-7.91-2.4-15.7-2-23.73.11-2-.75-5-3.19-4.91-2.24.08-3.83,2.43-4.1,5-1.27,12,2.23,23.73,2.8,35.64a4.4,4.4,0,0,0,4.39,4c2.49-.13,2.82-2.5,2.74-4.58C196.08,83.37,195.79,79.57,195.56,75.76Zm5.69,91.18-.38.06c1.66,9.92,3.38,19.84,4.95,29.78.8,5.09,4.85,3.64,7.32,3.07,2.81-.65.29-3.3.1-4.91s-.55-3.2-.77-4.84c-1.17-8.7-2.37-17.41-3.71-26.09-.41-2.7-1.66-5.76-4.67-5.57-3.25.2-2.73,3.56-2.84,6C201.22,165.27,201.25,166.11,201.25,166.94Zm556.54,50.6c.24,5.43.47,10.87.72,16.3.15,3.29,2.43,3.42,4.93,3.4,3.08,0,3.14-2.07,2.6-4.1-.66-2.51-.11-4.87,0-7.33.2-4.39,1.26-9.1-1.63-13-1.39-1.9-1.16-3.08-.36-5.24,1.48-4,1.9-8.39-.52-12.39a4.7,4.7,0,0,0-4.14-2.4c-2.15,0-1.67,2.1-2.26,3.34-.73,1.53-1.38,3.25-.78,4.81C758.44,206.32,757.52,212,757.79,217.54ZM331.38,247.36c3,.38,5.6.12,4.75-4-1.83-8.84-2-18.07-6.47-26.3-1.26-2.33-2.05-5.93-5.05-5.2s-2.29,4.54-1.81,6.92c1.62,8,1.65,16.1,3.24,24.08C326.77,246.52,327.88,247.94,331.38,247.36Zm501.41-86.3c0,3,0,6,0,9,.05,1.91-.39,4.75,2.19,4.79,2.78,0,2.68-2.84,2.81-5,.3-4.85-.73-9.6-1.15-14.4-.64-7.41-2-14.86,2-21.92,2.07-3.59,1.49-7.75,1.49-11.74,0-3.22-1.37-6.06-4.56-6.12-3.63-.07-3.42,3.48-3.36,6,.17,7.34-2.74,14.89,1.42,22a3.68,3.68,0,0,1,0,2.45C832.29,151.08,832.8,156.09,832.79,161.06ZM279.36,532.88c2,1,5,.36,4.29,3.81-.8,3.8,1.65,5.48,4.67,5.36,5.86-.23,10.83,2.42,16,4.22,3,1,3.59,1.54,2.95-2.39-.54-3.34.82-6.88-4.41-7-.44,0-.91-.89-1.29-1.41-3.08-4.28-7-6.39-12.33-4.72-3.18,1-4.75,0-4.36-3.56.1-.87.41-2-.77-2.75C279.76,525.7,282.12,530.61,279.36,532.88ZM351,759.32c-.46-1.86-.41-3.12.84-3.68,3.25-1.43,6.3-4.09,10.26-1.87,2.29,1.29,4.39,1,5.08-1.74s-.64-5-3.68-5.33c-4-.37-8,0-11.58,2.21-1.86,1.15-3.56,3.61-6.12,1.57-2.09-1.67-1.9-3.78-1-6.25s-.59-4.14-3-4.82c-2.25-.63-3.47.53-4.08,2.56-.9,3,2.07,12.81,4.63,14.58,2.22,1.53,4.48,2.78,4.79,5.91a2.21,2.21,0,0,0,2.57,1.89c1.33-.24,1.74-1.45,1.65-2.72C351.21,760.64,351,759.66,351,759.32ZM298.85,45.61c1.38,6.79.48,14,3.29,20.51.78,1.82,1.35,4.76,4.08,4.14a5.42,5.42,0,0,0,4-5.74,103,103,0,0,0-4-23.41,3.65,3.65,0,0,0-4.1-2.83,3.88,3.88,0,0,0-3.29,3.84C298.82,43.29,298.85,44.45,298.85,45.61ZM796.11,767.32c.33-3,.26-5.31-2-6.46-2.1-1.06-3.94.34-5.46,1.51-3,2.32-5.87,4.83-8.65,7.41-2.12,2-1.67,6.72,1,8.22,3.94,2.25,8.43,2.82,12.89,3.13,1.83.13,1.85-1.38,2-2.76C796.38,774.43,795,770.43,796.11,767.32ZM275.3,234.92c-.2-3.56-.19-6.47-.54-9.33-.95-7.68-2-15.36-3.11-23-.57-3.94-3.79-2.41-5.95-2.48-2.66-.09-1.91,2.15-1.78,3.68C264.81,214.91,266.42,225.81,275.3,234.92ZM243.77,339.39c-5,4.51-8.67,8.28-12.83,11.39-2.37,1.77-2,2.87-.6,4.76,2.76,3.83,7.07,5.35,10.91,7.56,1.64.94,2.51.2,2.51-1.6C243.78,354.6,243.77,347.7,243.77,339.39Zm47.54,446c0-3.32.43-6.17-2.24-6.5-3.13-.38-2.16,2.79-2.24,4.47-.34,7.25-1,14.56-.36,21.74.39,4.3-.34,8.57.47,12.81.31,1.62,1,3,2.82,2.83s1.52-1.89,1.6-3.14,0-2.66,0-4C291.19,803.77,292.32,794,291.31,785.34ZM608.77,212.07c.09-1.92-.35-4-1.78-5-5.38-3.75-6.69-9.46-8-15.24-.42-1.87-1-4-3.28-3.56s-2.23,2.71-1.76,4.49c1.93,7.29,3.47,14.75,7.51,21.29.94,1.53,2.19,3.37,4.25,2.68A4.36,4.36,0,0,0,608.77,212.07Zm151.41-77.9c-.56-4.25.41-8.67-2.08-12.62-.72-1.14-1.36-2.41-2.92-2.33s-2.29,1.49-2.4,2.77a65.36,65.36,0,0,0,1,20.27A3.49,3.49,0,0,0,758,145c2.23-.28,2.2-2.14,2.22-3.82C760.2,138.81,760.18,136.49,760.18,134.17Zm119.7,171.64c-2.76,8.38-1.73,15.79-3.5,22.78-.52,2-.76,4.55,2.88,4.18,2.64-.27,5.57,1,5.77-3.85C885.34,321.2,883.14,314.25,879.88,305.81ZM456,540.49c-1.46-1.42.36-4.29-2-5.19s-3.57,1.15-4.68,2.8c-1.64,2.41-4.1,2.5-6.63,2.67-1.42.1-3.46-.61-4.07,1a5.82,5.82,0,0,0,1.26,5.56,7.47,7.47,0,0,0,6.05,3c2.61-.18,2.8-2.33,3.06-4.4s2-2.34,3.77-2.4C454.75,543.49,455.93,542.63,456,540.49ZM328.82,405c-.29-.47-.49-1.19-1-1.5a95,95,0,0,1-15.12-12.07,2.86,2.86,0,0,0-4.72.48c-1.32,1.93-1,4,1.28,5a131.59,131.59,0,0,1,16.26,8.51A2.19,2.19,0,0,0,328.82,405ZM722.5,344.79c.58,1.91-1.51,5.3.77,6.3,1.89.83,3.1-2.83,5-4.11,1.22-.83,2.32-1.84,3.47-2.77.64-.52,1.57-1.17,1.19-2-1.58-3.34-4.28-5.57-8-5.78-4.14-.24-1.92,3.17-2.38,5A15.62,15.62,0,0,0,722.5,344.79ZM53.24,479.61c0-1.26.07-2.09,0-2.9-.22-2.25.05-5.55-1.83-6.24-2.59-.94-2.79,3-4.56,4.24a7.27,7.27,0,0,0-1.4,2c-1.29,1.95-2.7,3.9-.9,6.28s4.48,2.12,6.81,1.59C54.33,483.92,53,481.12,53.24,479.61ZM42.05,851.12v-.24c3,0,6,0,8.92,0,1.81,0,2.43-1,1.46-2.57-1.46-2.37-11.59-3.95-13.83-2.15a8.4,8.4,0,0,1-5.32,2.32c-.85,0-1.67.5-1.52,1.51s1,1.15,1.89,1.15ZM790.22,625.23c.29-5.25-5.08-8-6-12.83-.11-.62-1.39-.78-2.22-.34a1.9,1.9,0,0,0-1,2.51c1.64,3.09.92,6.52,1.66,9.68.64,2.69,2.5,5.56,5.45,5.74C791.3,630.18,789.39,626.93,790.22,625.23Zm-499,138.88h-.2c0-2.64,0-5.29,0-7.93,0-1.59-.22-3.14-2.31-3-1.76.08-2,1.45-2,2.86-.17,5-.38,10-.54,15a3.29,3.29,0,0,0,3.76,3.62c2.28-.13,1.26-2.22,1.29-3.57C291.29,768.73,291.26,766.42,291.26,764.11ZM617.93,598.57c1,.16,2,.59,2.67-.53s-.33-1.81-.72-2.69c-.85-2-3.21-3.94-.14-6,1.27-.84,2.77-1.68,2.22-3.43s-2.33-1.71-3.77-1.74c-1.75,0-3.26.57-3.71,2.58a12.86,12.86,0,0,1-.86,3.32C610.67,595.51,611.89,598,617.93,598.57ZM461.62,538.81a7.5,7.5,0,0,0-5.26,6.36c-.24,1.8-1.13,4.3,1,5.38,1.82.92,4-.1,5.62-1.15,3.16-2,2.11-5.62,2.64-8.5C465.94,539.28,463.62,539.15,461.62,538.81Zm-19.3,28.65c2.58.37,3.7-.1,2.08-2.83-.63-1.06-.59-2.51-.89-3.77-1.19-5-7-3.75-9.53-7,0,0-1,.41-1,.72-.59,2.95,1.84,4.77,2.86,7.12.64,1.46,2.1,2.53,2.94,3.92A3.19,3.19,0,0,0,442.32,567.46Zm75.4-105.13c-.87-1.84,1.49-4.7-.68-5.39-2.64-.83-4.13,2.13-5.58,4.06a9.35,9.35,0,0,0-1.52,7.1c.21,1.64.7,2.88,2.64,3s3.81-.05,4.29-2.36C517.3,466.6,517.45,464.45,517.72,462.33ZM251.17,324.6c-.33,2.24.6,3.72,2.74,4.65s3.77.69,5.23-1.23a10.48,10.48,0,0,1,4.42-3.12c.82-.34,1.39-.91,1-1.9-.29-.81-1-.75-1.67-.71a21.8,21.8,0,0,1-8.8-.86C251.76,320.61,250.85,322.27,251.17,324.6Zm628.71-21.2c4-.42,5.88-2,5.54-5.75s-.17-7.58-1.5-11.21c-.36-1,.21-2.76-1.45-2.66s-1.17,1.69-1.24,2.79C880.89,292.09,881.61,297.66,879.88,303.4Zm-425,188.77c-.06-2.66,0-4.43-2-5.13a1.92,1.92,0,0,0-2.44,1.18,37.7,37.7,0,0,0-3.31,10.92,2,2,0,0,0,1.4,2.36,3,3,0,0,0,1.76-.27C450.39,497.2,454.46,495,454.92,492.17ZM378.17,747.08c.07-1.19.07-2,.19-2.83.17-1.2,1.22-2.64-.84-3.19a2.9,2.9,0,0,0-3.87,2.06,10.39,10.39,0,0,0-.53,2.87c-.11,2.86-1.29,7.23,2.37,7.48S377.75,749.25,378.17,747.08ZM251.06,293.18c.64,2.06-1.44,5.52,2.93,5.47,2.33,0,3.6-1.21,3.47-3.76-.17-3.12-2-5.85-4.49-6.22C250,288.22,251.78,291.61,251.06,293.18ZM889.59,798.77c-.75,2.27-.34,3.39,1.82,3.3,1.63-.06,3.86.25,3.22-2.36a36.26,36.26,0,0,1-.73-8.86c0-.85-.18-1.81-1.27-1.66a2,2,0,0,0-1.2,1.32C890.71,793.4,890.12,796.32,889.59,798.77ZM670.74,278.83c1.32-.5,4,1,3.93-1.29a5,5,0,0,0-4.69-4.88c-2.29-.07-3.4,1.94-3.38,4.1C666.63,279.79,669.11,278.49,670.74,278.83ZM131,876.07c-.75-1.85-1.5-3.85-2.37-5.8a1.51,1.51,0,0,0-1.12-.79c-.72,0-1.07.63-1.16,1.35a6.09,6.09,0,0,0,.92,3.77c1.16,2.06,1.66,3.74-1.67,3.85a1.23,1.23,0,0,0-1.32,1.19c0,1.1.91,1.21,1.71,1.32C129.58,881.49,130.4,879,131,876.07ZM333.59,696.3a5.59,5.59,0,0,0-5.53-3.31c-1.55.06-3.32.28-2.82,2.43.61,2.63,2.83,3.61,5.27,3.63A2.84,2.84,0,0,0,333.59,696.3ZM561,246.24c1.84-.38,4.06.56,4.2-1.48.12-1.76-2-1.76-3.47-2.07-1.78-.39-3.55-.84-5.34-1.13-1.21-.2-2.5.1-2.84,1.42-.39,1.56.9,1.88,2.09,2.13ZM275.07,686.12c.51,1.85.83,6,2.14,5.8,3.17-.54.83-3.67,1-5.71a17.2,17.2,0,0,0,.41-1.91c-.06-1.34,1-3.44-.94-3.75-1.51-.23-2.1,1.7-2.32,3.2C275.25,684.4,275.19,685.05,275.07,686.12Zm561.23,91a156.57,156.57,0,0,1-15.65-.5C825.77,779.8,831,781.21,836.3,777.1ZM685.8,587.4c.23-1.85,1.31-4.78-1.52-4.58s-2.33,3.79-2.92,6c-.43,1.65.15,3,2.19,2.88C686.45,591.49,686.19,589.42,685.8,587.4Zm-58.52,18.81c-.37-2.29-1.37-4.37-3.86-5.11a1.62,1.62,0,0,0-2.13,2c.44,2.51,1.44,4.94,4.11,5.68C626.83,609.14,627,607.5,627.28,606.21ZM280.67,803.94c1.59-13,1.59-13-1.32-17.06C280.46,793.39,278.89,798.74,280.67,803.94ZM374.05,592.3c.62.79-1.76,3,.56,3.29,2.07.25,2.33-2.25,2.76-3.91a2.5,2.5,0,0,0-.21-1.9c-1.07-1.37-.15-4.56-2.21-4.33-2.78.3-.58,2.91-.88,4.47A15,15,0,0,0,374.05,592.3Zm3.31,166.87c-.07-1-.09-2.1-1.42-2.26-.87-.1-2.05.32-1.88,1.13.65,3.25-.85,6.24-.76,9.38a1.6,1.6,0,0,0,1.26.35c3-1.78.22-5.59,2.65-7.64C377.4,760,377.31,759.5,377.36,759.17ZM693,602.6c-.52-1.18.4-3.53-2.05-3.57-1.92,0-2,1.85-2.06,3.32,0,1.77,0,4.2,2.09,4.32S692.66,604.37,693,602.6Zm-254.45-79c0-1.79-.82-2.26-1.92-2.28-2.49-.05-4.15,1-4.47,3.63-.14,1.1.47,2.4,1.52,1.93A31.34,31.34,0,0,0,438.5,523.6Zm333,17.57c.1-1.33,0-3.29-1.09-3-2.48.68-2.83,3.34-3.11,5.52-.14,1.09,0,3.29,1.84,2.82C771.86,545.82,770.92,543,771.52,541.17Zm33.71-74.72c-1.57.59-3.06,1.62-3.08,3.35,0,1.45,1.61,2,2.92,2.13,1.79.19,2.22-1.08,2.16-2.54S807.08,466.7,805.23,466.45Zm-587-233.06c1.34.35,1.69-.42,1.72-1.27.06-1.66-.09-3.47-1.73-4.26-1.09-.52-1.69.63-1.87,1.66A3.22,3.22,0,0,0,218.24,233.39ZM27,850.73c.91-.3,2.89.39,2.76-1.58s-2.35-1.24-3.62-1.65-2.53.12-2.46,1.58C23.76,851,25.53,850.47,27,850.73Zm37.39,6.64c1.63.25,1.74-.88,1.87-1.82.24-1.81-.21-3.32-2.3-3.69-1.05-.18-1.56.48-1.41,1.44C62.8,854.84,62.51,856.7,64.39,857.37Z" transform="translate(-0.91 -0.9)"/><path d="M528,1c2.52,2.93,3.2,6.3,3.27,10.15.16,8.47,1.92,16.84,1.43,25.38-.17,3-.59,5.27-3.28,7.24-2.34,1.71-4.37,4-.64,7.13,5.13,4.27,4.13,10.87,4.87,16.61.61,4.75,0,9.64.17,14.46.08,3.43-.34,6.37-3.1,9-2.45,2.33-3,5.2,1,7.23,2.85,1.48,3.91,4.2,4.76,7.22,4.83,17.09,9.93,34.11,14.74,51.21,3,10.68.85,18.54-11.1,23.52a247.79,247.79,0,0,0-33.65,17.17c-7.91,4.84-16.63,8.16-24.52,13.1-4.09,2.56-10.06.13-11.8-5a213.23,213.23,0,0,1-8.85-34c-.84-5.24-1.45-10.53-2.48-15.73-2.08-10.48-.59-21.22-2.56-31.7-1.66-8.87-1-17.84-1.12-26.78-.21-13.47,3.24-26.68,2.41-40.17-.09-1.48.19-3,.11-4.48-.69-13.3,1.09-26.53,1.27-39.82C459,7.29,462.07,3.34,467,1ZM492.8,49c4.75,1,9.5,1.7,14.22-.19A25.39,25.39,0,0,0,492.8,49Zm-4.49-.81c-3-.34-5.92-1.33-8.51.81-.54.45-.08,1.4.48,1.7,2.9,1.59,5.32,0,7.76-1.33C488.13,49.35,488.12,49.1,488.31,48.21Z" transform="translate(-0.91 -0.9)"/><path d="M717,1c2.25,4.22,2.78,9,2.81,13.51a140.62,140.62,0,0,0,2.52,27.24c1,5.07-1.1,9.8-2.36,14.62-.39,1.5-2,3.85.23,4.92,1.91.94,3.68-.54,5.16-2.08,9.79-10.21,19.91-20.07,31.16-28.69S779.84,15,794.39,15.06c8.79,0,17,3.19,25,7.27,8.23,4.17,14.36,10.56,21.31,16.11,2,1.57,3.48,2.48,6,.67s4.66-1,4.29,2.51c-.74,7.07,2.38,12.84,5.67,18.65a9.46,9.46,0,0,1,.11,9.94c-2.07,3.69-5.3,3-8.33,2.51-9.53-1.38-19-2.82-28.69-3-8.83-.18-17.06,2.62-25.64,3.62-23.55,2.72-44.67,13.47-66.78,21-8.65,2.93-17.25,6-25.83,9.12-3.22,1.18-4.54-.66-5.86-3-3.06-5.38-3-11.53-4.17-17.33-3.75-18.41-7.68-36.81-9.87-55.47-.87-7.4-.21-15-.27-22.47,0-1.62,1-2.8,1.65-4.12Z" transform="translate(-0.91 -0.9)"/><path d="M610,1c.87,6.74.48,13.57,1.87,20.31,1.19,5.8-.71,8.32-6.41,10.65a25.58,25.58,0,0,1-8.2,1.94c-8.28.47-16.57,1.09-24.86,1.31-3.37.09-5.28,1.69-5.3,4.6s2.53,4,5.36,3.81c11.36-.8,23,1.86,34-3,2.7-1.18,4.27.76,5,2.82,2.53,7.26,2.16,14.86.89,22.18-.67,3.9-4.73,6.45-8.6,7.68a43,43,0,0,0-8.48,4.08c-4.79,2.76-6.73,6.68-4.83,11.75,1.55,4.09,3.25,8.08,6.31,11.69,9,10.63,14,23.37,15.86,37.12.63,4.73-3.31,7.87-7.33,9.74-11.12,5.18-22.48,9.77-33.23,15.78-6,3.32-9.91,1.48-12.83-4.75-3.07-6.57-3.56-13.79-5.27-20.69-2.54-10.29-3.54-20.92-5.25-31.4-3.87-23.56-7-47.2-8.89-71a130.69,130.69,0,0,1,.87-26.37c.38-3,2.13-5.56,3.29-8.3Z" transform="translate(-0.91 -0.9)"/><path d="M671,1c2.37,4.22,2.55,8.87,2.64,13.54.32,15.13,2.32,30.05,4.75,45,1.78,11,5.73,21.17,8.5,31.76,2.06,7.86-.87,18.57-11.17,22.79-11.65,4.77-22.27,11.75-34,16.6-6.74,2.79-12.52,1.49-15.65-6.43-8-20.1-8.82-40.85-7.15-61.86.91-11.58,1.91-23.12,2-34.74a76.39,76.39,0,0,0-1.74-14.77C618.51,9,617.89,5,619,1h24c1.77,4.48.53,9.29,1.4,13.8,2.68,13.86,3.6,28,5.7,41.88.45,2.93.43,7.15,4.13,6.64,4-.56,3.52-4.9,3.19-8.24a9.93,9.93,0,0,0-.45-1.94c-3.25-10.64-6.4-21.35-5.78-32.62.37-6.53-4-13-.19-19.52Z" transform="translate(-0.91 -0.9)"/><path d="M430,884c-.56-8-5-14.6-7.39-21.93-2.17-6.7-.91-13.77-1.23-20.66-.42-9.31-3.22-17.53-7.86-25.65-7-12.18-12.22-24.73-8.23-39.78,1.78-6.73.23-14.53-.77-21.71-.38-2.75.17-5.61-.88-8.29q-.64-1.62,1.47-1.8c5.53-.48,8.43,1.26,10.2,6.37.15.41.42,1.07.72,1.11,7.47,1.14,2.79,4.93,1.61,7.76A9.31,9.31,0,0,1,415,763c-2.21,1.78-2.55,3.25-.94,5.88,1.89,3.08,2.09,6.62-.74,9.61a6.06,6.06,0,0,0-1.79,5.52c1.49,5.38.31,10.9,1.28,16.26.56,3.09,1.16,6.18,3.49,8.65,2.79,3,2.54,7.37,4.87,10.68,1.26,1.79,2.37,2.6,4.44,2.14s3.34-1.42,3.24-3.72c-.09-2,.47-4.23-.25-6-2.45-5.87-.79-11.42,1.75-16.36,2.47-4.78,1.6-9.09,0-13.34-1.73-4.73-1.59-9.45-1.52-14.27,0-1.7.26-3.37,1.62-4.57,2.76-2.45,5.27-4.82,4.74-9.17-.27-2.2,2.44-3.38,3.9-2.9,7.92,2.59,13.95-2.47,20.7-4.59.26-.09.61.07,1,.12a3.19,3.19,0,0,1-.17,3.76c-4.39,4.89-6.72,11-9.44,16.71C446.16,777.9,438,787.29,439,800a18,18,0,0,0,.26,4c1.21,3.8-.17,6.5-2,10-3.79,7.48-6.09,15.78-1.43,24.06a3.13,3.13,0,0,1,.26,2.77c-1.51,5.18-.52,8.19,4.34,10.23,4.44,1.87,5.3,4.14,3.3,8.47-3.57,7.73-2,16.36-3.73,24.45Z" transform="translate(-0.91 -0.9)"/><path d="M896,669c-3.45-.2-2.53-2.83-2.63-4.83-.13-2.95.5-6.52-2.72-8s-6.08.15-8.47,2.63a10.78,10.78,0,0,1-3,1.81c-3.53,1.78-5.24.79-5.42-3.26-.13-2.83,0-5.66,0-8.49-.08-4.68-2.19-6.29-6.6-5.12-9.74,2.57-9.74,2.57-9.76-7.58,0-3.33,0-6.66,0-10-.05-3.66-1.77-5.64-5.59-5.22a74.07,74.07,0,0,0-8.81,1.22c-4,.92-5.05-1.58-4.67-4.39,1.05-7.81.4-15.61.56-23.41,0-2.08.57-3.19,2.87-2.78,1.3.23,2.64.2,3.93.45,3.07.58,7.15-1.4,9,1.07,2,2.67.54,6.77.65,10.24s-.2,7,0,10.48c.3,6.26,2.93,8.22,8.86,6.87,8.16-1.87,8.28-1.76,8.3,6.67,0,2.83,0,5.65,0,8.48,0,5,2.67,6.62,7.3,4.4,1-.5,2-1.27,3-1.68,5.69-2.15,7-1,7.88,4.91.46,3.25-.8,8.42,5.3,8.47Z" transform="translate(-0.91 -0.9)"/><path d="M896,561c-5.79.87-6.81,2.23-6.34,8.32.17,2.24,1.65,5-.52,6.53-2.45,1.71-4.55-.94-6.72-2-.9-.43-1.78-.91-2.68-1.33-4.49-2.11-7.11-.61-7.24,4.28-.11,4.32-.1,8.65,0,13,0,3.12-.92,4.44-4.43,4.06-10.63-1.17-10.64-1-10.62-11.83,0-3.16,0-6.32,0-9.48,0-4.22,2.07-5.24,5.78-4,.32.11.66.14,1,.26,2.75,1,6.23,3.32,8.25.63A11.85,11.85,0,0,0,874,558.66c-.61-1.88-2.19-4.31,0-6s4.29.43,6.32,1.25a16,16,0,0,1,3,1.85c2.13,1.48,4.55,2.9,6.85,1.12,2.08-1.61,2-4.24,1.57-6.84-1-5.8-.34-6.45,4.33-5Z" transform="translate(-0.91 -0.9)"/><path d="M896,481a29.06,29.06,0,0,0-3.49-.05c-2.87.29-7.07-1.08-8.14,1.92s2,6,3.9,8.62c1.62,2.18,5.51,3.77,4.27,6.64-1.37,3.15-5.41,1-8.16,1.67-8.08,2-13.1-1.88-17.12-8.21-1.65-2.61-5.85-4.93-4.65-7.62s5.65-.63,8.6-1.21c3.48-.68,8.39.93,10.08-2.54,1.43-2.92-3-5.37-4.3-8.36a5.41,5.41,0,0,0-.56-.82c-1.43-2.31-5-4.36-3.69-7,1.57-3.14,5.65-1.79,8.72-2,4.89-.36,10,1.1,14.54-2Z" transform="translate(-0.91 -0.9)"/><path d="M896,457c-2.28-3.78-4.79-7.44-6.77-11.37-2.44-4.83-1.23-6.49,4.28-6.61.83,0,1.66,0,2.49,0Z" transform="translate(-0.91 -0.9)"/><path d="M896,597c-4,.2-5.53-1.65-4.35-5.49a9,9,0,0,0,0-5.33c-1-3.74-.09-6.23,4.35-6.18Z" transform="translate(-0.91 -0.9)"/><path d="M896,632a2.27,2.27,0,0,1-2.71-.37c-1.08-1.14-1.5-13.22-.48-14.36s2.09-.65,3.19-.27Z" transform="translate(-0.91 -0.9)"/><path d="M182,884c4.33-3.28,8.67-1.61,13,0Z" transform="translate(-0.91 -0.9)"/><path d="M476.56,659c-5.05-1.14-9.67-2.8-14.65-3.42-4.5-.57-7-4.77-6.15-9.52a3.58,3.58,0,0,0-.23-2.79c-2.89-4.79-2.86-4.81-.65-10.85-.12,5.59,2.07,10.52,4,15.56a6,6,0,0,0,5.32,4.29C469,653.08,473.46,655,476.56,659Z" transform="translate(-0.91 -0.9)"/><path d="M873.79,605.59c0-9.22,0-8.78,9.49-8.74,5.19,0,6.82,1.95,6.67,6.56a12.39,12.39,0,0,0,.16,1.48c.73,10.7-.29,11.72-11.09,12.36-3.68.22-5.28-1.11-5.23-4.69C873.81,610.23,873.79,607.91,873.79,605.59Z" transform="translate(-0.91 -0.9)"/><path d="M64.58,377.29c-6.41.53-13.24-1.68-20.25-1.21-2.38.16-4.16-.71-3.45-3.92,1.32-6,4.39-11.49,5-17.71.14-1.54,1.6-2.07,3-2,4.94.31,9.92-.84,14.83.93s9.44-1.46,14.23-.94c2.7.29,6.42-1.53,7.89,1.15,1.73,3.15-1.64,5.72-3.3,8.29a33.35,33.35,0,0,0-4.63,9.88c-1.17,4.69-3.79,6.19-8.28,5.54A39.83,39.83,0,0,0,64.58,377.29Z" transform="translate(-0.91 -0.9)"/><path d="M382.47,528c.31-1.76-.93-4.69,1.93-5.29,3.49-.73,7.13-2.18,10.7-1.08,1.8.56,1.23,2.93,1.08,4.49-.4,4.51,1.91,5.73,5.73,4.71,2.43-.65,4.61-1.4,5.64,1.76s-1.25,3.66-3.55,5c-4.4,2.61-6.7,2.65-7.49-3-.4-2.8-1.89-4.16-4.85-2.57a23.62,23.62,0,0,1-2.38.63C382.61,535.2,382.44,535.09,382.47,528Z" transform="translate(-0.91 -0.9)"/><path d="M400.88,518.5c-4,.83-3.67-1.62-3.51-3.53s-1.05-5.37,2.4-4.6c2.7.6,7.67-1.34,7.85,3.81S402.91,517.45,400.88,518.5Z" transform="translate(-0.91 -0.9)"/><path d="M415.91,510a17.35,17.35,0,0,1-3.31-.47c-1.55-.43-1.84-1.79-1.47-3.21s1.67-1.59,2.77-1.13c1.59.68,3,1.05,4.72.25s3.3-.85,3.68,1.57c.41,2.62-1.23,3.07-3.31,3C418.33,510,417.66,510,415.91,510Z" transform="translate(-0.91 -0.9)"/></g></g></svg>