<svg xmlns="http://www.w3.org/2000/svg" viewBox="0 0 894.17 828.05"><title>happen</title><g id="Layer_2" data-name="Layer 2"><g id="Layer_1-2" data-name="Layer 1"><path d="M409,1c-1.26,8.17-6.62,13.47-12.6,18.48-3.8,3.17-7.13,6.81-12.28,8-1.32.3-1.81,2.23-2.26,3.71a12.55,12.55,0,0,1-4.41,6.52c-7.95,5.83-10.32,13.71-9.39,23.09.77,7.7-1,10.27-9.08,12.76,7,3.91,6.58,9.49,4.15,15.68-3.06,7.81-3.78,16.16-4.88,24.36-1.07,8-2.09,9.53-9.9,11.24-2,.43-4.44.45-1.16,2.89.65.48.85,1.36.28,1.65-6.26,3.27.22,3.41,1.19,3.92,7.18,3.75,14.45,7.36,22.18,9.82,4,1.29,7.1,3.31,9.14,7.09.65,1.2,1.83,3.69,3.68,2.13,1.56-1.32,1.27-3.71-.36-5.34-1.15-1.15-2.51-2.12-3.77-3.16-7.41-6.1-8.87-14.81-10.28-23.52-.13-.82.1-1.87-.34-2.45-5.07-6.71-1.87-13.07.43-19.69,2.43-7,7.59-11.14,13.05-15.73,11.44-9.61,24.3-9,37.6-7.36,5.23.63,15.1,4.26,19.35,7.37,10.17,7.45,14.93,17.23,16.11,30.18,1,11.11-2.61,20.29-6.17,30a7.37,7.37,0,0,1-5.26,4.81c-.87.26-2,.83-1.71,2.1a2.24,2.24,0,0,0,2.09,1.9c3.23-.27,7.27.1,8.15-4,.78-3.66,3.06-5.44,6-6.74,13.5-6,27-5.87,39.7,1.7,5.11,3,7.86,9.39,13.59,12.2.44.21.69,1.12.76,1.74,1.43,12.38,3.44,24.81,1.85,37.23-.77,6-1.62,12.9-5.59,17.34-6,6.76-12.54,13.44-23,14.09-7.94.49-15.82.75-22.89-2.69-13.19-6.41-22.15-17-26.79-31a3.62,3.62,0,0,1,.1-2.41c1.79-3.87,12.43-8.8,16.57-7.76.63.16,1.79.52,1.77.67-.9,7.23,5.82,4.86,8.84,6.33,3.63,1.77,8.25,2.09,12.62,2.12,4,0,5.38-2.21,5.6-5.53s-2-4.82-5.08-4.68c-9.33.42-18.62-1-28-.29-7.49.6-14.6-7.7-13-15.1.75-3.58-.1-5.43-4.14-5.27a33.72,33.72,0,0,1-6.93-.62c-8.49-1.45-11-4.44-9-12.81,1.38-5.66,1.09-11.19,1.27-16.8,0-1.5-.17-3.08.79-4.35,2.64-3.5.11-6.6-1.35-9.18-1.08-1.9-4.43-1.18-6.56-.5-2.94.94-3.44,4-3.69,6.56-.83,8.44-1.44,16.9-1.94,25.36-.35,5.89-3.76,9.14-9.59,8.7-1.33-.1-2.64-.39-4-.47-2.72-.15-4.91-.23-3.71,3.93.8,2.77.28,5.94.22,8.93-.05,2.39-1.85,3.18-3.75,4.13-6.11,3-12.45,1.63-18.56.71-7.67-1.17-15.28-.45-22.92-.53-3.07,0-5.39,1.56-5.28,4.72.1,2.93,2.15,4.61,5.28,4.95,9.31,1,18.64.36,28,.57a28.34,28.34,0,0,1,8.38,1c9.32,3,11,8.26,4.89,15.93a14.69,14.69,0,0,0-3.15,6c-1,4.13-5,5.62-8.44,7-2.66,1-5,2.47-7.57,3.62-13.45,6.11-27,9.89-40.53-.11-3.86-2.85-8.25-5-11.95-8.06-6.35-5.21-8.42-12.65-8.93-20.46-.76-11.66-.16-23.21,3.12-34.58,1.89-6.52,5.88-11,11.88-13.19,6.34-2.35,11.77-6.8,18.89-7.45,4.24-.38.2-4,1.41-6.13,1-1.7-1.57-1.39-2.71-1.41-4.66,0-9.33,0-14,0-10.27,0-14.19-3.62-14.86-13.81-.89-13.71,1.61-27.19,3.06-40.72.64-6,4.08-8.14,11.19-5.25,7.39,3,15,2.12,22.4,3.78,2.58.59,5.2,1,7.83,1.35,1.08.15,2.57.47,2.85-1.13s-1.1-1.89-2.22-2.21C342.86,64.46,335,60.29,326,59.92c-6.51-.27-12.73-2.4-19-4.08-4.44-1.19-6.07.33-6.56,4.73-1.44,12.88-1.54,25.84-3.14,38.73a31.4,31.4,0,0,0,4.49,20.12,16.44,16.44,0,0,1,2.31,5.93c.36,2,1,4.18-1.16,5.39a5.37,5.37,0,0,1-5.73-.22c-11.33-8-23.25-15.34-32-26.46-3.37-4.28-4.42-9.63-6.37-14.56-.8-2-1.32-4.37-3.06-5.63-4.72-3.39-1.8-7.8-1.77-11.72.07-8.56,7.94-14.24,8.57-22.87.42-5.71,6.79-7.3,10.12-11.1,2.1-2.4,4.35-4.43,5-7.81.79-4.19-1.19-6.21-4.76-7.46-7.6-2.64-15.17-5.31-23.2-6.52-3.53-.53-6.93-1.05-10.6-.32a6.19,6.19,0,0,0,.42,1.06c8.27-.68,13.26,6.25,20.17,8.82,4.6,1.72,4.56,6.55,2.6,10.33-2.83,5.44-3.49,11.88-7.8,16.65-.69.77-.78,2.16-1,3.29-1.08,5.8-.64,11.73-3.3,17.44-2.94,6.32,1.48,12.56,2.43,18.83.79,5.13,3.58,10,5.56,14.91,1.65,4.11,6.77,3.83,9.22,7.2,1.32,1.8,3.35,3,4.21,5.37.67,1.83,2.31,3,4.18,4,6,3.23,11.89,6.65,17.59,10.36,4.24,2.75,5.59,8.27,3.36,11.56-3.08,4.55-9.5,6.28-13.84,3.81a14.94,14.94,0,0,0-4.1-1.74c-8.84-2-17-6.62-26.25-6.93a5.21,5.21,0,0,1-3.28-1.08c-8.08-8-19.73-7.86-29.1-12.88-1.32-.7-2.86-1.1-4-2-7.58-6.25-17.44-8-25.61-13.07-.41-.26-1.09-.24-1.36-.58-4.95-6.27-12.75-6.61-19.39-9.36-.75-.32-1.94-.33-2.26-.87-5.29-9-16.06-10.9-23-17.78-3.47-3.42-7.18-6.6-12.91-6.48-2.87,0-5.4-2.54-5.49-6.13-.06-2.41-.76-4.42-3.39-4.78a22.28,22.28,0,0,1-11.46-5.34c-.77-.65-1.71-1.27-2.65-.36s-.44,1.85-.06,2.78c1.42,3.5,4.27,5.45,7.62,6.64s5.49,3,6.45,6.33c.81,2.79,3,4.4,5.24,5.8,7.49,4.64,15.2,8.93,22,14.67a13.18,13.18,0,0,0,5,2.11,17.81,17.81,0,0,1,11.23,8.06c2.71,4.26,8.35,5.74,12.72,8.33a257.25,257.25,0,0,0,26.82,14.18c11.45,5.06,22.14,12.08,35,13.9,3.83.54,7.44,2.77,11.09,4.35a105.13,105.13,0,0,0,30.69,8.06c4.69.5,7.6,2.22,8.32,6.89a8.09,8.09,0,0,1-7,9.35,70.92,70.92,0,0,1-21.37-.31c-14-2.59-26.56-9.56-40.38-12.68-8.24-1.86-16.15-5.22-24.84-4.53-1.1.09-2.48-.73-3.23.49s.67,2,1.3,2.91c2.72,3.89,2.68,10.27-1.09,13.64-4.39,3.91-3.29,8.47-3.52,14.47,3.75-5.13,6.74-9.13,9.63-13.21,4.2-5.92,14.12-8.6,20.06-5.45,2.39,1.27,3.69,2.49,2,5.4-4.68,8.22-7.92,17.51-13.48,24.88s-8.15,16.15-14,22.94c-4.78,5.55-6.5,12.11-8.88,18.66-1.41,3.88-5,7-7.52,10.43-11.06,14.95-22,30.12-29.81,47-8.18,17.63-20.9,31.44-33.77,45.33a25.87,25.87,0,0,1-6.79,5c-7.11,3.79-12.16,10.09-18.5,14.8-1.7,1.26-2.93,3-2.1,5.15s3,1.6,4.81,1.51c7.41-.4,13.29-4.78,18.76-8.77,8.67-6.34,17.85-12.27,25.19-20.27,9-9.79,16.44-20.78,24.22-31.52,7.33-10.12,11.43-22.15,19.7-31.73,3.48-4,4-9.76,5.65-14.82,4.85-15,9.78-29.89,20-42.37,3-3.7,4.25-8.62,6.24-12.92,3.32-7.14,9.37-12.19,12.48-19.54,3.58-8.43,12.62-10.65,20.7-13.18,2.09-.66,4.94.13,5.46,2.39.82,3.58,2.67,8.46-1,10.69-4.36,2.62-5.23,6-5.53,10.27a12.14,12.14,0,0,1-.92,2.83c-.43,1.32-2,3.12,0,3.85s3.26-.83,3.72-2.95c1-4.34,3.5-7.59,6.53-10.89,8.86-9.59,19.43-12.24,31.68-9a8.69,8.69,0,0,1,6.62,7.91c1.05,9.87,4,18.52,12,25.35,6.27,5.32,5.94,10.21.07,19.59-3.72,5.93-7.34,11.83-9.8,18.44-2.79,7.48-4,15-2.48,22.95.59,3.05-.69,5.92-1.09,8.88-.91,6.79,2.19,11.71,8.9,12.48,14.19,1.65,28.43,2.95,42.66,4.22a31.54,31.54,0,0,0,15.2-2.26c4.15-1.75,6.21-.25,7.12,3.86A61.88,61.88,0,0,0,370.07,317c4.29,8.27,11.8,13.89,17.08,21.29s9.73,14.89,10.2,24.41c.3,6.13-3,9-7.71,10.72-4,1.47-6.2,3.54-6.09,7.91.23,9-13.32,16.53-22.63,14.5-5.12-1.12-10.2-.43-15.25-1.47-5.48-1.12-6.32-2-4.36-7.5,1.52-4.31,2.76-8.45.93-13.05-2.54-6.43-11.24-12-18.87-11.74-5.37.18-10.7,6.13-13.13,12.77-6.36,17.4,7.59,33.89,25.14,37.49,12.34,2.53,24.86,3.58,36.91-1.31a112.21,112.21,0,0,0,24.42-13.15,11.27,11.27,0,0,0,3.51-5.35c1-2.51,2.31-4.86,4.8-6.2,2.32-1.26,4.22-1.37,5.8,1.45a63.34,63.34,0,0,0,19,20.9c7.69,5.43,17,7.22,26,9.4a54.32,54.32,0,0,0,14.38,1.28c2.59-.07,4,.71,3.73,3.77a85.15,85.15,0,0,0-.09,10c.09,3.16,1.93,5.85,4.67,6.46,3.22.72,7.06,1.71,10.06-.78s3.85-5.4,1.06-8.71c-1.72-2-3.39-4.11-5.07-6.17-3.78-4.64-3.56-6.93,1.6-10.38,4.45-3,8.66-6,11.75-10.55,3.78-5.54,3.22-11.54,1.61-17.21-2.56-9-9.32-13.34-18.58-13.58-3-.08-4.93-1.74-7-3.4s-4.67-3.58-7.08-1.8c-2.26,1.66-2.32,4.65-.9,7.32,1.2,2.25.85,4.51.08,6.78a19,19,0,0,0-.56,10.32c.8,3.73-.42,5.78-4.7,6.34-16.91,2.19-29.92-4.15-39.49-17.79-2.74-3.9-4.28-8.61-5.51-13.31-1.57-6,2.58-17.48,7.24-21.54,9.59-8.34,20.36-15.48,26.8-27.07a40.73,40.73,0,0,0,4.37-11.52c1.48-7,3.51-8.31,10-5.85,4.85,1.82,9.85,1.64,14.79,1.72,10.31.14,20.66.56,30.94-.88,2.26-.32,4.2.85,6.32,1.21,7.1,1.18,12.3-2.89,11.17-9.87-2-12.28-1.16-24.91-4.9-37A41.14,41.14,0,0,0,515,240.94c-7-8.46-9-14.09-.06-23.39a84.1,84.1,0,0,0,7.16-8.23,11.4,11.4,0,0,1,10.35-4.88,20.16,20.16,0,0,0,3.46-.21c17.51-1.68,29.08,7.42,35.71,24,4.93,12.31,4.21,24.81,5.58,37.21,1.8,16.37-10.72,35.82-26.52,42.49-4.72,2-8.8,5.41-13.79,6.95-5.36,1.66-10.87,1.23-16.36,1.22-8.35,0-11.27,4.79-9.4,13,2,8.94,8.2,15.06,13.11,22,7.95,11.22,18.79,18,32.39,21.44a139,139,0,0,0,24.79,3.63c4.8.33,9.23-1,13.62-2.55a44.41,44.41,0,0,1,8.6-2.49c2.38-.33,5-1,6.43-3.36,1.73-3,4.57-4.19,7.62-5.2,8.05-2.65,11.35-1,11.59,7.28.18,6.3,4.15,10.37,7.28,14.41,5.63,7.27,11.36,14.5,18.22,21A91.21,91.21,0,0,0,684.1,424.3c17.79,6.94,36.27,11.46,55.76,5.94,5-1.42,10.4-1.17,15.22-3.88,1.64-.92,4.57-1.09,6.14.55s.26,3.65-.94,5.36c-.75,1.07-1.29,2.35.31,3.43,3.13,2.11,2.6,5.15,2.1,8.29s-1.86,6.11.27,9.72c1.6,2.7,1.69,6.83-2.72,8.81-5.77,2.59-9.94,6.45-9.52,13.52a2.27,2.27,0,0,1-.86,1.74c-6.68,4.26-8.39,10.75-8,18.06.29,4.86-2.75,7.44-6,10a11.42,11.42,0,0,1-14.51-.16c-1.33-1.14-2.72-2-1.09-4s-.47-2.49-1.53-3.41c-1.67-1.44-2,.78-2.63.89-3.66.68-5,4.91-9.39,4.92-6,0-7.62,6.05-10.38,10.14-1.22,1.81.64,2,2,2.22,9.48,1.23,9.51,1.39,8.74,11-.24,3-2.06,5.39-1.81,8.6.15,2-2.61,1.35-4.15.94-2.09-.55-5.55,1.16-5.63-3,0-2.83,0-5.67.23-8.49.56-7.34-1.12-9.19-8.67-9.23-6.5,0-13,.15-19.49,0-4.34-.11-9,1.24-12.79-2.35-.73-.69-2.56-.31-3.88-.26-.83,0-1.71.42-1.74,1.43a1.33,1.33,0,0,0,1.69,1.35c5.86-1,5.46,2.74,5.33,6.62-.22,6.16,2.4,12.08,1.57,18.33-.27,2,.27,4.07-2.89,4.12-2.74.05-5.06-.16-5.69-3.38-.87-4.41-1.91-8.8-2.48-13.25-1.17-9.19-3.94-10.88-12.94-9.21-8.53,1.59-17.24,2.23-25.89,3.21-1.78.2-3.69-.36-4.06,2.4-.28,2-2.36,2-3.88,2.6-5.57,2.11-11.44,3.12-17,5.63-6.07,2.76-10.61,7.38-16.13,10.72-1.79,1.08-3.27,2.3-5.4.92s-3-3.68-2-5.62c1.42-2.74.26-4.9-.11-7.42-.62-4.21-3.26-8-2.15-12.59a2.25,2.25,0,0,0-2.11-2.87c-8.37-.09-16.74,0-26.4,0,1.65,1.25,2.13,1.92,2.63,1.94,4.19.1,6.92,1.48,6.75,6.36,0,1.12,1,3,1.92,3.31,5,1.42,5.23,6.42,7.69,9.7,1.69,2.25.19,3.18-1.5,3.52-3.25.67-6.65,1.1-9.79-.43-4.16-2-8.22-1.9-12.61-.66-4.93,1.39-10,2.38-15.21.72-2.31-.72-4.8.74-7,1.94-6.34,3.46-11.52,2.69-16.48-2.42A9.2,9.2,0,0,0,481,538c-4.23-1.24-5.26-4.33-2.35-7.63,1.94-2.21,4.17-4.36,7.33-5a20.9,20.9,0,0,0,8.18-3.57c1.06-.75,2.28-1.9,3.62-1.19,4.68,2.46,7.75-.8,11.27-2.77-.59-2-2.12-1.43-3.3-1.43q-87.49,0-175,.17c-4.16,0-7.19-.38-8.87-5-1.47-4.09-7.43-4.1-9.42.19s-5,4.84-9.19,4.81c-19.83-.15-39.66,0-59.5,0-6.18,0-8.24-2.24-8-8.42.09-2.57.75-6.37-2.44-6.62-3.82-.3-2,3.7-2.43,5.85a6.78,6.78,0,0,0,.07,3.41c1.87,5.81,1.92,5.77-4.51,5.77q-110,0-220,0c-1.81,0-3.61.31-5.42.47V293c4.62-.47,9.18-1.56,12.2,3.88,5.46,9.83,13.74,16.78,23.44,22.36,7.61,4.38,16.14,4.89,24.32,6.94,4.93,1.24,5,1.61,1.63,5.42a5.69,5.69,0,0,0-1.18,2.12c-1.08,3.79-3.61,6.19-7,7.89a49.29,49.29,0,0,1-32,4.36c-8.92-1.72-13.41,3.16-11,11.84,2.26,8,8.27,13.56,12.46,20.3,4.64,7.44,11.35,13.44,18.14,18.23,13.34,9.39,29.05,13.67,45.46,14.29,5.44.21,11-1.33,16.38-1,12.68.81,24.15-4.24,34.57-9.45,14.09-7.05,28.91-14,38.06-28.68,4.31-6.93,10.31-12.87,13.66-20.58,2.89-6.67,4.61-6.82,10.73-2.45,7.28,5.21,14.55,10.86,23.61,12.47,18.22,3.22,35.14,1.1,48.31-13.75,7.8-8.79,14.54-18.17,16.64-30.1,1.31-7.47.27-9.73-7.1-9.37-8.58.42-15-3.64-21.83-7.34-12.16-6.59-19.91-16.81-24.14-29.77-2.17-6.64-4.11-13.36-5.77-20.13-.83-3.4-3.13-3.94-5.83-4.27-3.46-.41-2.29,2.61-2.87,4.16-4.48,12.14-1.88,23.86,2.16,35.52,3.64,10.52,9.39,19,19.6,24.55,6.65,3.65,13.46,7.22,19.66,11.79,3.4,2.5,4.16,4.85,1.27,7.63-7.74,7.41-15,16.17-27.81,12.21a22.56,22.56,0,0,0-4.46-.44c-18.77-1.79-27.56-12.51-29.79-29.19-.56-4.14-1.26-8.22-2.2-12.27-.4-1.68-.18-4.28-2.65-4.12-2.32.15-5.23,0-6.58,2.68a21.85,21.85,0,0,0-2.29,6c-1,5.77-2.74,11.31-4.12,17-6.66,27.26-24.15,46.5-47.16,60.62-19.54,12-41.6,11.79-63.43,7.86-13.63-2.45-25-10.41-36.36-17.85a11.64,11.64,0,0,1-2.67-2.95c-3.24-4.31-2.23-6.61,2.79-8.31,7.7-2.6,15.91-3.87,23-8.24,21.27-13.23,38-30.87,51.18-52.11,1.84-3,.91-3.85-2-4.05a9.07,9.07,0,0,0-4.74,1.24c-6.56,3.23-13,6.83-19.85,9.31-17.88,6.46-39.06.9-51.42-13.51-3.12-3.63-7.56-6.08-9.5-10.77-2.35-5.68-5.35-11.15-7.1-17-1.08-3.63-4.52-6.71-3.46-10.74,1.58-5.93,2.07-12.28,4.37-17.82C21,231,23,223.71,30,219.71c4-2.25,7.67-5.48,7-11-6.28,2.32-12,5.2-15.12,11.75-2.66,5.5-7.53,7.31-13.61,6.78C5.8,227,3.59,225.31,1,226V147c1.87,1.19,3.23.94,5.31-.35,3.49-2.17,4-6.49,7.27-8.64,3.94-2.57,4.6-4.89,3-10.37C12.86,133.55,7.73,136.12,1,135Q1,69.89.92,4.76C.91,1.67,1.58.91,4.73.92,43.82,1,82.91,1,122,1c2.16,3.5,6.44,4.86,8.35,8.84a81.68,81.68,0,0,0,7.72,12.4c4.23,5.85,9,11.31,12.35,17.78.55,1.08.74,2.94,2.57,2.4s1.56-2.31,1.32-3.79c-.13-.82-.5-1.59-.63-2.41C151.86,24.4,150.27,12.58,155,1h54a6.31,6.31,0,0,1-1.48,4.14c-6.82,10-12,20.56-11.51,33.16.08,1.94-1,4.65.9,5.43s3.79-1.31,5.34-2.76A7.55,7.55,0,0,0,203,39.7c4.4-6.23,5.71-13.24,5.53-20.74-.07-2.72-1.07-6.24,1.54-8,3.8-2.51,5-6.37,6.9-10ZM39.17,207.66c2.16.35,4,.55,5.73.94,2.4.52,8.73,7.33,7.8,8.59-3,4-1.22,8.22-.6,12,1.1,6.67.82,14.43,7.89,18.44a19.94,19.94,0,0,1,7.52,7.71c.67,1.13,1,2.48,2.35,3.1,8.79,4.08,16.77,9.8,27.14,10.33,10.89.56,21.86,2.13,31.41-4.46,11.77-8.13,24.23-15.62,32-28.38,1.6-2.65,4.75-3.9,6-7.17,2.51-6.61,5.63-13,8.42-19.49a6.87,6.87,0,0,1,2.63-3.52c4.39-2.58,2.86-7,3.36-10.8a1.92,1.92,0,0,0-1-1.54c-1.07-.43-1.36.57-1.63,1.33-2.07,5.67-5.9,10.4-8.5,15.76-1.57,3.24-5.75,4.33-6.3,8.15-.88,6.08-4.58,10-9.38,13.36a27.58,27.58,0,0,0-5.83,6.12c-6.11,7.86-13,14.54-23.4,16.52a119,119,0,0,1-32.29,1.22c-5.47-.45-12.16,1-16.39-2.94-5.27-4.95-9.16-11.38-13.63-17.18-.18-.25-.14-.66-.26-1C58.37,225.58,55,216.28,58,206c.41-1.37.63-3-1-4.07C52.93,199.06,41.75,202.28,39.17,207.66ZM74,109c5,.27,10,.42,15,.83,3,.24,6.31.51,7.42,3.91S94.82,119,93,121.38c-2.92,3.7-7.44,5.51-10.26,9.1a36.07,36.07,0,0,0-7.77,23.18c0,4.42.36,8.79-1,13.31a13.62,13.62,0,0,0,1,10.2c4.35,7.48,7,16.09,16.09,20.26,4.57,2.08,7.26,7.38,13.42,7.91,8.74.75,17.39,3,26.22,2.71,7.2-.25,7.89-1.33,7.92-8.39a39.86,39.86,0,0,1,.06-6c1.85-12.09,2.33-24.94,16.46-30.43,1.56-.6,3.22-1.68,2.69-3.69-.57-2.2-2.72-1.4-4.25-1.57s-2.78.84-4.1,1.56c-2.85,1.54-4.6,4.32-7.18,6.13-9.65,6.78-11.92,16.65-11.09,27.53.45,5.85-1.48,9.57-7.28,9.39-10.21-.33-20.69-.23-28.83-8.5-1.78-1.8-1.41-4.43-3.55-5.73-8.18-5-8.8-13.93-11.4-21.82a14.24,14.24,0,0,1-.92-6.31,63.7,63.7,0,0,1,8.57-25.75c2.28-3.79,4.79-7,9-9.33,4.95-2.76,10.43-5.34,13.89-10.3.87-1.25,2.89-2,1.8-4.16s-2.79-2.64-4.92-2.81a66.72,66.72,0,0,1-9.4-1,119.69,119.69,0,0,0-34.84-2.58c-14.38.94-26.39,6.45-37.31,15.27-1,.81-2.83,1.35-2.31,2.84.58,1.69,2.58,1,4,1.24,2.37.33,3.17-1.48,3.9-3.16s1-3.89,2.69-3.92c5.95-.09,10.18-4.73,15.9-5.45C58.1,110.1,66,108.57,74,109ZM289,423.67h.15a23.14,23.14,0,0,0,0,2.5c.27,2.47-.89,5.6,3,6.46s9.68-1.12,10.35-4.21c1.22-5.65,3.22-11.35,2.19-17.21-.45-2.56-1.13-5.77-4.3-6.73s-5.9.42-7.93,2.9a10.11,10.11,0,0,0-2.58,5.84C289.63,416.71,289.28,420.19,289,423.67Zm39.32,6c-4.45,3.95-6.86,9.58-11.7,12.7-4,2.58-4.82,5.93-4.58,10.18.13,2.26.15,4.46,2.64,5.38,2.7,1,4.45-.82,5.94-2.6,1.26-1.52,1.79-3.85,3.29-4.93C331.76,444.73,328.33,437,328.31,429.66ZM225.44,231.27c0,3.16.92,5.16.53,7.42s1.09,2.57,2.76,1.38,2.23-2.8,2.88-4.56c2.19-5.94,2.43-12.39,5-18.23.72-1.59,1.23-3.88-.89-4.85s-4.13.59-4.81,2.46C228.86,220.6,228,226.73,225.44,231.27ZM101.18,56.43c1.49.53,2.44.08,2.91-1.22a2.18,2.18,0,0,0-1-2.56C97.53,48.34,92,44,86.39,39.74a18.27,18.27,0,0,0-4.8-2.54c-1.59-.57-3.49-.58-4.44,1.13-1,1.87.92,2.45,1.93,3.44,4.75,4.64,11.64,6.48,15.79,11.82A7.32,7.32,0,0,0,101.18,56.43ZM16.09,54c2.64,1.36,3.74,3.86,5.37,5.9,3.35,4.22,8.75,4.14,12.37.09,1.44-1.6,1.51-2.38-.37-3.85C28.13,51.88,22.16,53.77,16.09,54ZM269.18,495.67c.14,1.49.19,2.48.35,3.46.35,2.16,1.5,4,3.74,4,2.41,0,2.37-2.36,2.69-4.08.4-2.11.68-4.24.9-6.38.18-1.76,1.95-4.1-1.16-4.93-3-.79-4.72.89-5.54,3.59C269.68,492.89,269.43,494.52,269.18,495.67Zm342.64-72.43c2.11-.9,5.61-.51,5.42-3.9-.15-2.76-1.49-5.72-5.12-5.68-3.31,0-5.2,1.88-5.39,5.31C606.52,422.64,609.34,422.63,611.82,423.24ZM49.69,19.53c10.18,8.25,10.18,8.25,15.21,6.62C58.79,25.51,57.33,16.61,49.69,19.53Zm123.38,133c1,.86,1.74,1.51,2.5,2.14,2.09,1.71,4.37,1.18,6.6.42a1.42,1.42,0,0,0,.86-2c-1.34-2.12-3.7-1.91-5.79-2.15C175.89,150.78,174.64,151.36,173.07,152.56Zm33,322.77c2.05-.32,2.38-2.17,2.85-3.59a2.15,2.15,0,0,0-1.9-2.86c-2-.11-1.92,1.91-2.2,3.22S204.29,474.76,206,475.33ZM35.77,13.11l6,3c1.12.55,2.52,1.79,3.14-.3a2.34,2.34,0,0,0-2.05-2.91A15.1,15.1,0,0,0,35.77,13.11Z" transform="translate(-0.92 -0.9)"/><path d="M895,459c-5.34-.35-10.64-.94-16-.85-3,.05-4,1.9-5.39,3.71s-2.34,3.37-5.8,1.88-7.94-1.35-11.59-3.59c-.63-.39-3.79-2.81-3.68,1.28-1.25-1.34-4.37,3.07-4.58-1.48,0-.33,0-.89-.14-.94-7.85-2.73-3.77-6.55-.24-10.59-5.19-1.38-9.75-1.5-14,.57-2.69,1.29-3.21-.41-4-2-1.83-3.56-4-6.73-8.23-7.77-.13,0-.29-.36-.33-.34-5.66,2.92-6.63-1.54-8.58-5.08a4.34,4.34,0,0,1-.9-3c.36-2.1,1.47-4.49-1.37-5.59-2.56-1-5.26-1.05-7.53.95s-5,2.9-7.9,3.87c-4.94,1.66-8.93,1.42-12.68-2.47-1.59-1.66-4.08-1-6.23-1.19-2.56-.19-5.36-.84-6.06-3.53-.89-3.43,2.62-3.35,4.54-4.06,10.6-3.93,16.32-12.09,19.32-22.38,1.46-5-1.48-8.49-6.63-8.8-7.12-.42-12.67-3.21-17.68-8.65-7.32-8-14-16.49-21.29-24.43-2-2.22-3.11-4.82-2.34-7.77.85-3.25,3.94-2.4,6.23-3,5-1.23,10.41.44,15.09-2.46s9.22-5.79,12.31-10.53a19.46,19.46,0,0,1,3.48-3.55c1.19-1.08,3.23-1.78,2.39-3.84s-2.65-.64-4-.72c-3.75-.23-6.53,2-9.58,3.73-14.25,8-29.08,9.69-44.47,3.62-4.13-1.63-6.87-5.22-10-8.09-5.4-4.89-11.79-8.05-18.07-11.43a14,14,0,0,0-5.72-1.68c-2.77-.18-5.91-1.38-7.79,1.59s.39,5.49,1.79,7.81c3.56,5.83,6.93,11.69,15.43,11.46,3.26-.08,6,2.73,8.73,5.17,12.42,11.19,20.5,25.43,29.07,39.41,4,6.49,8.43,12.7,14.77,17.23a6.27,6.27,0,0,1,2.74,6.53c-.46,2.54-1.52,4.46-4.64,5a30.77,30.77,0,0,0-9.38,3.31c-6.19,3.51-13.16,3.48-19.78,4.33-4.9.63-10.27-.87-13.58-5.63-1.43-2.06-3.22-3.1-5.5-1.67-7.22,4.55-14.27,2-21-.85-12-5-20.37-14.23-28.63-24-6.12-7.27-10.61-15.27-14.58-23.54-2.67-5.54-2.65-12.31-4.61-18.27-3.31-10.07-.64-21.34-6.69-30.89-1.71-2.7-3.41-3.64-6.37-3.54-3.75.14-5.87,2.13-5.49,5.62,1.28,11.77-3.36,21.9-8.79,31.66a27.29,27.29,0,0,1-12,10.94c-10.56,5.2-21.56,8.69-33.63,6.6-2.34-.41-4.68-.92-6.41-2.52-3-2.76-6.53-4.54-10-6.56-4.39-2.57-7.94-6-9.28-11.21-.73-2.84,0-4.55,3-5,13.48-2.05,23.61-11.09,35.25-17,2.27-1.14,2.64-3.77,4.08-5.56A67.57,67.57,0,0,0,594.78,276c1.62-11.42,1.06-22.39-6-32.49-5.69-8.16-9.49-17.47-13.89-26.4-1.79-3.61-4.78-6.61-7-10s-1.89-7,1-10c2.07-2.18,4.36-2.7,7-.51,5.93,5,11.85,10,18,14.72,2.75,2.11,1.37,5.95,3.93,7.83,6.65,4.88,9.13,12.35,10.77,19.64,4.48,19.86,15.62,36.44,24.68,54.13,7.2,14.08,16.25,27,23.44,41.06,4.05,7.9,11,13.7,15.51,21.32,6,10.16,14.67,18,23.62,25.24,6.73,5.46,14,10.89,23.31,11.7,1.41.12,2.79,1.29,4-.49a4.55,4.55,0,0,0,.35-4.73,41.34,41.34,0,0,0-13.94-16.53,86.21,86.21,0,0,1-19.46-19c-7.55-10.18-13.55-21.26-20.1-32.05-5.58-9.18-11.64-18.14-17.48-27.2a275.8,275.8,0,0,1-14.94-26.5c-4.46-9-10.58-16.48-16.3-24.36-7.18-9.91-13.84-20.13-20.27-30.51-1.92-3.1-4.63-5.49-6.7-8.46s-4-5.78-2.07-8.49a10.45,10.45,0,0,1,10.31-4.66c8.46,1.36,14.6,4.87,18.35,13.62,2.61,6.09,5.08,13.51,12.79,16.35,1.34.49,2.31,2.81,2.88,4.48,3.17,9.29,8.59,17.46,12.71,26.28,6.13,13.15,17.44,20.52,29.85,26.72,4.83,2.42,10.08,3.34,15.17,4.76a13.19,13.19,0,0,0,7.87-.18c8.88-3.54,18.18-5.2,27.48-6.91s16-7.11,21.9-14a27.61,27.61,0,0,1,2.43-2.21c-2.85-.92-5-1.07-6.25,2-.9,2.24-2.75,3.12-5.11,3.39a10.77,10.77,0,0,0-3.73,1.26c-11.88,6.29-24,5.25-36.21,1.24a54,54,0,0,0-6.61-2.22c-14.9-2.77-26.18-11.69-36.71-21.71-4.52-4.3-10.42-7.22-13.43-13.09-.6-1.17-1.76-2.08-2.25-3.27-2.11-5.15-3.49-10.62-10.06-12.4-1.74-.47-2.37-3.3-2.52-5.64a16.12,16.12,0,0,0-6.17-12c-2.93-2.33-4.9-5.24-4.85-9.36,0-5.19-1.69-6.71-7.11-6.15a53,53,0,0,0-10.76,2.14c-8.27,2.64-17,2.91-25.35,5-3.92,1-7.37,3.5-10.95,4.27-9.49,2-19.06,4.91-29,3.12-1.8-.33-3.62-.58-5.38-1-3.23-.85-5.82-2.18-5.82-6.3s1.54-6.9,5.46-7.84a52.84,52.84,0,0,1,9.88-1.29c8.32-.38,15.6-4.8,23.46-6.19,10.43-1.84,20.1-5.48,30-8.87.47-.17,1.11-.07,1.44-.36,1.68-1.5,4.89-2.73,4.45-4.8-.51-2.44-3.65-1.26-5.66-1.14-11.26.63-21.91,3.56-31.35,9.77-4,2.63-8.09,2.72-12.31,2.31-5.51-.52-10.42,1.61-15.57,2.71-3.45.74-7.19,1-8.38-3-1.13-3.83-.06-7.74,3.91-9.79,4.42-2.27,8.55-5.19,13.61-6.12a9.49,9.49,0,0,0,3.89-2.17c8.14-6.62,15.69-13.48,21.2-22.91,6.77-11.6,5.56-23.46,4.92-35.68-.45-8.67-5.69-15.8-7.18-24.1A10.66,10.66,0,0,0,563.79,62a13.37,13.37,0,0,1-4.1-10.36c.07-4.56,2.62-6.94,7.19-7.13q12.81-.54,25.6-1.19a11,11,0,0,0,3.34-.76c.74-.28,1.58-.84,1.47-1.8s-1.06-1.08-1.87-1.26c-9.52-2.09-19-1.93-28.66-.53a42.39,42.39,0,0,0-13.07,3.88c-6.15,3-7.31,9.07-1.69,13.1a13.85,13.85,0,0,1,5.43,8,111.89,111.89,0,0,0,4.5,11.59c5,11.77,4.12,24.16,3.64,36.45a14.21,14.21,0,0,1-2.87,7.87c-4.23,5.26-6.32,11.65-9.85,17.27-2.38,3.78-6.18,6-9.44,7.83-7.24,4-14.82,10.84-24,3.4-.69-.56-1.9-.49-2.87-.71-9.59-2.09-13.52-12.31-6.89-19.73,6-6.71,6.54-15.14,9-22.91,2.32-7.52,1.1-15.84,4.49-23.33,1.27-2.8-2.57-8-5.85-7.57-6.26.75-12-1.74-18.21-1.83-4.88-.07-9.61-3.11-14.67-4.24-7.91-1.78-15.85-2-23.83-1.75-7.38.2-9.53-1.57-9.64-9,0-1.11.46-2.35-.72-3.31-1.8-.29-2.05,1.43-2.66,2.39-1.24,2-2,4.22-3.26,6.18-6.12,9.65-7.11,9.61-17.35,5.62-4-1.55-8.12-1.63-12.24-2-10.27-1-20,1.79-29.69,4.42-6,1.61-8.91-.76-9-6.86,0-3.5.17-7,0-10.5-.28-4.51.84-8.2,4.83-10.75,2.9-1.84,3.06-5.16,3.39-8,.37-3.13,2.12-4.92,4.57-5,7.46-.35,11.89-5.91,17.42-9.51,2.69-1.75,5.37-3.7,8.44-4.12,3.66-.5,4.09-2.39,4-5.39s.23-6.3.38-9.45H744c-5.77,3.81-10.86,8.83-18.07,10.08-3.09.54-4.91,2.59-6.17,5.27-.56,1.21-2.57,2.5-.58,3.73a3.41,3.41,0,0,0,4.56-.73c4-6.08,12.65-5.9,16.56-12.18.47-.76,2.17-.67,3.21-1.16C748.17,3.83,753.57,3.8,758,1h56c7.08,2,15.35,3.55,19.74,8.91,6.76,8.27,18.11,10.25,23.8,19.89,1.74,2.95,5.77,5.68,8.09,9,4.76,6.84,3,11.71-4.8,14.42a8.86,8.86,0,0,0-2.32.83c-1.08.77-1,2,.34,2,5.72,0,11.4,2.94,17.2.22,1.72-.8,3.48-1.85,2.27-3.55-3.61-5.09-2.52-13.38-10.56-15.51-.85-.22-1.45-1.73-2-2.72A69.53,69.53,0,0,0,840.13,7.7C837.31,6,834.62,4,833,1c19.33,0,38.67.11,58-.1,3.43,0,4.1.68,4.1,4.1q-.18,138.5-.1,277a12.47,12.47,0,0,0-5.92.24c-5.57,1.28-11.24.66-16.85,1.12-2.77.22-4.47-1.38-5.14-3.82-.71-2.59,1.93-2.62,3.29-3.6,4-2.88,9.31-2.52,13.3-5.36,1.13-.8,2.9-1.88,1.72-3.54-.94-1.32-2.37-.07-3.61.31-6.65,2.08-13.82,2.77-19.48,7.45a2.46,2.46,0,0,1-1.45.32c-7,.08-13.17,2.79-19.26,5.75-1.55.75-4,1.46-3.84,3.39s2.65,2.25,4.38,2.55A164.79,164.79,0,0,0,895,288v93c-4.81-1.63-9.9-2.74-14.38-5-7.65-3.88-15.15-8.09-22.6-12.38a20.19,20.19,0,0,1-8.48-8.63,19.46,19.46,0,0,0-5-6.68c-8.24-6.79-14.15-15.53-20.69-23.77-2.3-2.9-4.34-5.69-5.47-9.24-.51-1.61-1.07-3.58-3.18-4.19-6.22-1.81-8.49-8.21-13.37-11.62-1.23-.85-1.17-2.73-1-4.23,1-7.26.23-14.52,0-21.78-.31-10.34.19-11.13,9.75-15.09,1.44-.6,2.72-1.3,3-3,.3-2.12-1.27-2.85-2.73-3.69a10.16,10.16,0,0,0-5.71-1.48,8.06,8.06,0,0,1-6.79-2.58c-2.67-3.16-5.83-6-7.71-9.73-.62-1.25-1-2.6-2.81-1.68A11.24,11.24,0,0,0,778.69,226c-1.82-.32-2.76.59-3.68,1.88-1.51,2.1-.9,4.09.21,6.05.86,1.53,2.09,1.91,3.78,1.17a8.58,8.58,0,0,1,8.94,1,17.5,17.5,0,0,0,2,11.52c1,1.9,2.09,3.72,3,5.71,4,9.28,3.71,19.27,5.17,29a11.43,11.43,0,0,1-.19,3.95c-2.48,11.7-9,21.93-11.92,33.43,3.27.27,3.28.28,5.12-1.93,1.39-1.66,2.74-3.36,5-3.85a15.4,15.4,0,0,1,17.08,8.2c1.26,2.55,2.28,5.27,4.85,6.77a16.49,16.49,0,0,1,6.17,7c1.91,3.76,4.63,6.81,7.28,10,5.64,6.82,11,13.82,17.84,19.63,9.38,8,17.25,17.71,29.25,22.38C884,390,889.72,390,895,392ZM697,42.09c.15-2.47-1.47-2.55-3-2.59-2.85-.07-4.42-1.58-4.47-4.3-.13-7.32-4.05-13.25-6.9-19.57a9.42,9.42,0,0,0-6.45-5.71c-1.53-.4-3.05-2-4.37.05-1.06,1.61-.38,3,.9,4.41,6.87,7.81,7.14,18,9,27.41,1.67,8.3-.52,16.46-4.56,24-1.05,2-1,4.18,1.19,5.17s4.06-.67,4.56-2.67c1.93-7.68,6.83-13.51,11.61-19.45C696.21,46.82,696.22,44.18,697,42.09Zm45.4,147.67c4.46-14.59.7-26-8.91-36a5.43,5.43,0,0,1-1.74-3.51c-.15-5.1-3.49-6.22-7.7-6.51-3.91-.27-7.42,1.64-11.24,1.91a3.14,3.14,0,0,0-2.57,2.77c-.11,1.39,1.36,1.7,2.46,2a66.51,66.51,0,0,0,8.1,2.41A14.1,14.1,0,0,1,731.43,161c3.73,7.39,9.6,13.91,8.79,23.1C740.09,185.58,741.36,187.16,742.44,189.76ZM607.59,154.47c3.17.25,5.58-.68,8.13-1.56,6.79-2.34,12.25-7.47,19-9.39,6.56-1.86,11.43-6.56,17.62-8.88,1.32-.5,2.17-2.42,3.08-3.79.53-.78,1.06-1.85.06-2.68s-2.17-.45-3,.51c-2.63,2.91-6.18,3.5-9.79,4.25a18.89,18.89,0,0,0-9.09,4.66c-4.25,3.87-9.75,6-15.2,7.48a71.86,71.86,0,0,0-11.73,3.75c-1.85.85-3.89,2.23-3.38,4.38C603.85,155.54,606.41,154.1,607.59,154.47ZM682.14,210c0-1.33.06-2.66,0-4-.06-1.1.3-2.6-1.2-2.91s-1.87,1.2-2.29,2.18-1,2.42-.66,3.34c1.91,5.19.47,10-.77,15-.72,2.93-2,7.57,3.46,8.21,8.72,1,17.48,1.68,26.15-.43a9.69,9.69,0,0,0,3.1-1.46,2.22,2.22,0,0,0,1-2.6c-.39-1.07-1.35-.5-2.09-.66a48.31,48.31,0,0,0-10.8-1C686.2,225.75,682.2,221.76,682.14,210ZM738.07,65.12c-3.71-.12-5.12,3.17-7.6,4.89-9.27,6.42-17.28,14.34-26.09,21.25-2.78,2.18-6.09,3.61-8.15,6.73-.55.82-1.6,1.34-.76,2.4.65.83,1.56.22,2.27-.09,5.54-2.46,12-2.74,15.62-9.28,2-3.66,7.88-4.84,10.32-8,4.53-5.84,11.12-8.89,15.94-14.1.72-.78,2.38-1.05,1.53-2.6C740.52,65.2,739.23,65.15,738.07,65.12Zm-110-.88c-.94.74-4.62-1.56-3.88,1.82,1.56,7.07-.08,14.28,1.65,21.3.85,3.46,2.08,3.28,4.24,1.27C635,84,636.5,78,637.1,71.57c.72-7.73.68-7.73-6.56-7.34C629.88,64.27,629.21,64.24,628,64.24Zm239.78,91.13c-7.34,0-8.22.44-8.69,3.93-.64,4.79,1.29,6.66,7.62,5.8,6.78-.93,13.11-1.16,18.59,3.77a2.21,2.21,0,0,0,2.76.34c1-.67.84-1.71.51-2.68-.59-1.71-.8-4.09-2.48-4.69C880,159.69,875,154.43,867.81,155.37Zm-44.59,8.55.32,0a30.92,30.92,0,0,0,0,4c.21,1.66,1.22,1.93,2.36.79,2.54-2.56,5.52-4.85,5.2-9.14-.24-3.14.69-6.26.86-9.35a55.13,55.13,0,0,0-1.16-13.78c-.4-2-2.74-3.46-4-5.44-1-1.66-2.32-.4-2.66,1.12a14.29,14.29,0,0,0,.91,7.82c1,2.82.72,5.38.17,8.24C824.3,153.37,823.88,158.67,823.22,163.92ZM796.8,181.76c.89,6,1.41,12,4.49,17.41,1.43,2.5,3.23,2.64,5.34,1.08,5.48-4,10-8.84,12.07-15.55.4-1.26,1.4-2.7,0-3.56-1.95-1.18-2.61.84-3.18,2.06-1.9,4.09-4.85,4.68-9,3.8A19.47,19.47,0,0,1,796.8,181.76Zm-4.87-88.68c-3.44.08-10.39,6.72-10.76,9.84A1.83,1.83,0,0,0,782.8,105q12.29,2.91,24.6,5.65a2.1,2.1,0,0,0,2.5-1.18c.49-1.16-.42-1.65-1.2-2.34-2.88-2.51-6.64-2.65-10-3.82-2.64-.92-4.26-2.7-3-5.2C798.48,92.69,793.49,94.26,791.93,93.08Zm61,131.18c-2.43,1.05-3.56,3.56-6.06,3.68a5.22,5.22,0,0,0-5.22,4.46c-.36,1.55-1.65,2.41-2.61,3.54-3.1,3.69-7.92,3.91-11.73,6.12-1.83,1.06-5.87.57-4.65,4.41s4.72,2.29,7.32,2.18,4.34-2.12,5.53-3.89c1.92-2.85,4.68-4.63,6.93-7C846.24,233.79,852.94,232.2,853,224.26ZM617.52,21.11c-.67-6-.93-12.07-6.12-16.28-1.22-1-2.28-3.07-4.11-1.87a4.23,4.23,0,0,0-1.4,5.37c1.61,3.81,3,7.73,5.55,11.11a9.3,9.3,0,0,0,3.79,3.14C616.7,23.21,617.9,23.24,617.52,21.11Zm45.26,161.24c-1.8,0-3.52-.41-3.65,1.45-.16,2.23-.61,4.62,1.57,6.45a17.23,17.23,0,0,0,10.54,3.87c1,.06,2.14,1.61,3.1.19a3.45,3.45,0,0,0-.05-3.81C671.31,186.35,667.51,183.27,662.78,182.35ZM814.32,82.77A5.18,5.18,0,0,0,819.74,80c.75-1.22,1.86-2.83,3.06-3.08,5.11-1,7.77-5.49,11.81-8,.72-.44,1.54-.84,1.14-1.87s-1.36-.81-2.14-.86c-1.51-.1-3.19-.23-4.15,1.14-4.1,5.83-10.29,8.84-16.17,12.29-.92.54-2.76.44-2.39,2S813.08,82.67,814.32,82.77ZM634.06,42.45c-2.31-5.18-6.6-9.42-7.49-15.34-.13-.9-2.06-.91-3.17-.45-1.38.57-.65,1.58-.35,2.5.93,2.83,2.35,5.62,2.62,8.52.31,3.37,1.44,5.57,4.58,6.87,1,.42,1.76,1.77,3,.82C634.15,44.7,633.93,43.58,634.06,42.45ZM854,219.42c.22,1.23-.32,2.87,1.37,3.36,1.27.37,2.1-.77,2.89-1.57a5.69,5.69,0,0,0,1.81-4c0-3.83,1.06-7.18,3.94-9.83a4.4,4.4,0,0,0,1.28-3.14c.07-1.12.43-2.49-1.07-2.9a1.89,1.89,0,0,0-2.42,1.86c-.32,4.26-3.43,7-5.47,10.26C855.18,215.31,854.05,217.15,854,219.42ZM756.15,145.2c-1.35.19-2.72-.33-3.3,1.09a1.6,1.6,0,0,0,.95,2.05c3.39,1.19,6.82,2.28,10.28,3.23a2.07,2.07,0,0,0,2.47-1.23c.47-1.19-.58-1.7-1.3-2.37C762.57,145.51,759,146.25,756.15,145.2Zm-60.64-43.36c-3.74,3.06-7.92,4.09-12,5.47-1.33.46-2.52,1.4-1.87,3s2,.71,3,.44c2.25-.57,4.46-1.34,6.73-1.79C695.26,108.18,696,105.76,695.51,101.84ZM665.26,125a6,6,0,0,0,6.06-4.08c.43-1.27-1.29-2-2.38-1.78-2.52.47-5.46.74-6.24,3.86C662.24,124.84,663.85,125,665.26,125ZM618.34,55c-1.19-2.45-3.73-3.92-6.47-5.07-.91-.38-2.19-.28-2.23,1.1-.1,2.93,1.64,4.52,4.3,5.31.79.23,1.56.55,2.37.74C617.54,57.37,618.18,56.79,618.34,55Zm206.12,70.6c.74-4.49-2.58-5.39-4.75-7-.87-.65-1.64-1.87-3-1.33-.9.36-.78,1.36-.69,2.14.17,1.36.63,2.84,2.23,2.78C820.85,122.07,822.41,123.75,824.46,125.6Zm-34.77,45.12c-1.92,5.85,2.47,6.51,5.25,8.3.66.43,1.49,1.07,2,0a1.55,1.55,0,0,0-.76-2.11C793.64,175.68,792.18,173.21,789.69,170.72Zm95.81-57.13c2.42-2.81,2.89-5.09,1.41-7.64a1,1,0,0,0-1.65-.34C882.64,108,884.47,110.32,885.5,113.59ZM655.28,179.36c-2.92-2.42-5.32-2.67-7.92-1.89-.24.08-.54,1-.38,1.2,1.58,2,3.89,1.14,5.91,1.38C653.33,180.11,653.81,179.8,655.28,179.36Zm84.53-36.21a13.57,13.57,0,0,0,8.71.46c.18-.05.33-1.2.2-1.26-2.77-1.36-5.63-1.09-8.49-.27C740.14,142.11,740.12,142.35,739.81,143.15Z" transform="translate(-0.92 -0.9)"/><path d="M1,554a25.44,25.44,0,0,1,3.82,1c1.79.75,2.17.34,3.06-1.54,1.65-3.49,3.59-7.87,6.65-9.4a15.86,15.86,0,0,1,12.77-.55c1.37.57,2.64,1.74,4,1.88,11.39,1.11,18,9.15,24.72,16.94a6,6,0,0,0,6.58,2.14c13.74-3.06,27.73-4.59,41.66-6.56a330.46,330.46,0,0,1,43.18-3.29,159.07,159.07,0,0,1,18.41.5c10.08,1.08,19.83.52,29.21-3.6a3.85,3.85,0,0,1,1.44-.35c10.75,0,20.25-5,30.06-8.17,8.25-2.69,16.52-5.6,24.77-8.41,8.58-2.93,17.28-5.26,25.69-8.93,8.64-3.77,18.6-2.89,27.75-5.33,2.09-.55,4.22-.9,6.29-1.49,1.16-.33,2.49-.92,3.28.09,4.77,6.07,10.95,2.28,16.32,2,4-.22,7.36-.9,10.35,2.54,1.73,2,3.9,2.47,5.74-.31,2.34-3.55,4.15-2,6,.63,1.5,2.11,2.08,4.55,4,6.64,8.37,9,18.21,5,26.89,2.59,17.95-4.89,35.85-8.54,54.53-7.37,9.84.61,19.28,3.16,28.66,5.88,5.85,1.69,5.59,2.66,4.14,8.53-2.75,11.22-8.77,21.11-12.6,31.92-2.69,7.6-5.32,15.58-9.38,22.77-2.68,4.76-8.78,5.14-10.77.17-4-10-11-18.47-14.51-28.8-1.7-5-1.92-9.5.64-13.85,2.11-3.59.09-3.45-2.36-3.34-10.88.47-22,.45-31.72-4.56-10-5.17-16.38,3-24.46,4.57-2,.38-3.81,1.61-6,2-3.2.64-7.09.39-8.37,4.88s-5.82,3.27-8.91,3.9c-4.6,1-8.42,5.61-13.41,3.64-4-1.56-8-1.88-12-2.69-3.58-.72-5.14-1-5.37,3.67-.5,10.22-1.43,20.46-4.11,30.42-.28,1,.18,2.64-1.51,2.57-1.37,0-1.65-1.42-1.89-2.6-.89-4.44-.81-8.94-.93-13.43-.13-4.82.21-9.64-.61-14.46-1-5.71-3.09-8-9.1-7.29-10.73,1.2-21.43.33-32.13.54-11.91.24-23.78-.07-35.68-.13a37.33,37.33,0,0,0-19.3,4.72c-7.47,4.29-16.22,5.19-24.56,7.22-7,1.71-13.92,3.84-21,3-7.74-.93-15,.6-22.47,1.76-9.77,1.51-19.73-.28-29.05-2.12-11.38-2.24-23-.09-34.12-3.4-3.2-1-6.94-.14-6.24,5.08.28,2-1.25,3.07-3,3.42a18.53,18.53,0,0,1-5.44.45c-6.49-.64-11.27.19-13.3,8-1.28,4.95-7.73,3.1-11.7,4.77-9.88,4.15-18-1.28-26.31-5.52C6.25,585.72,3.7,587.89,1,589Zm280.81-1.85c7.33-.29,14.39.43,21.42-2.22,6.33-2.39,7-2.57,5-9.49-1.74-6-3.78-7.28-10-7.61-4.26-.24-7.82,1.3-11.16,3.49a15.22,15.22,0,0,1-4.52,1.74c-7.32,2.12-15.19,1.73-22.28,4.91-2.85,1.27-5.49,1.83-1.27,5.28a13,13,0,0,0,5.19,2.82C270.09,552.73,276.09,551.78,281.81,552.15Z" transform="translate(-0.92 -0.9)"/><path d="M1,232c6.64,2.29,7.83,7.17,8,13.74.23,10.47-3.53,20.3-3.76,30.62C5.15,278.93,2.78,279.22,1,280Z" transform="translate(-0.92 -0.9)"/><path d="M148,1a12.25,12.25,0,0,1-.3,3.4c-.95,2.56-.13,6.92-4.24,6.74s-9.11,1-11.28-4.74c-.77-2-2.75-3.61-4.18-5.4Z" transform="translate(-0.92 -0.9)"/><path d="M411.78,233c-1.4-6.67,1.91-13.81,2-21.33.07-6.9,8.4-10.31,14.89-6.44a32.87,32.87,0,0,1,15.92,23.12,45.62,45.62,0,0,1-8.09,35.87,29.49,29.49,0,0,1-14.8,10.58,49.42,49.42,0,0,1-31.42.44c-7.93-2.49-13.66-8.73-17.61-16.14-2.27-4.25-4.14-8.72-6-13.15-1.15-2.7-.69-5.43.06-8.25,2.54-9.56,7.82-17.75,13.1-25.83,3.23-4.95,9.37-6.42,14.71-7.56,4.17-.89,5.67,3.32,5.87,7.05a142.51,142.51,0,0,1-1.25,25.86,26.36,26.36,0,0,0,.3,10.43c.79,2.86,2.74,4.76,5.76,4.54,2.58-.19,4.2-1.6,5.21-4.48C412,243.16,411.67,238.58,411.78,233Z" transform="translate(-0.92 -0.9)"/><path d="M589.75,693.33c-2.54,1-4.9.51-7.15,1.3a7.54,7.54,0,0,0-5.35,7.1c-.45,6.12-.39,12.27-.51,18.4,0,2.37,1.39,5.63-1.89,6.42-3.06.73-7.39,1.75-9.2-1.69-4.36-8.27-11.75-13.93-17.3-21.17-5.75-7.49-10.86-15.83-18.64-21.66-1.69-1.27-2.42-3.14-3.51-4.8-.62-.94-1.05-2.29-2.51-2-1.8.33-1.53,1.91-1.61,3.19-.15,2.49-.32,5-.36,7.48-.16,11.13.72,22.28-.71,33.38a4.66,4.66,0,0,0,.15,2c.55,1.67,2.11,3.51,0,4.93s-4.94,1.13-7.22.37-1.69-3.27-1.58-5.24c.59-11.43-.63-22.86-.53-34.23.06-7.45-1-14.8-.77-22.21.12-3.3,2.09-4.4,4.82-4.51,3.65-.15,7.31,0,11,.06,2.19,0,3.18,1.43,3.86,3.3,2.38,6.53,7.58,11.21,11.42,16.76a11,11,0,0,0,9.65,4.32c4.07-.29,7.8-2.44,12.2-1.65,2.24.4,2.81-2.52,3-4.48.39-3.94,1.32-7.83.32-11.88-.48-1.93-1.14-4.83,1.34-5.79a11.29,11.29,0,0,1,8.76.1c1.63.75,1.12,2.54,1,4-.33,6.8-.83,13.61-.8,20.42,0,2.73.16,6.3,5.16,4.6C585.26,689.31,588.18,689.78,589.75,693.33Z" transform="translate(-0.92 -0.9)"/><path d="M470.42,73.63c5.85,1.05,13,2,20-1.32,1.57-.75,3.12.58,2.39,1.87-3.58,6.31,2.67,5.35,5.06,6.64,1.88,1,4.55.58,6.86.87,6.29.77,7.92,3.34,6.7,9.41-.94,4.69-1.1,9.53-2,14.23C508.09,112.58,507,120,502,126c-3.05,3.66-9.6,5.94-13.7,3.69-4.9-2.68-10.07-3.08-15.32-3.28-4.63-.18-7-2.57-6.72-6.81.81-12-4.05-22.37-8.57-32.87-3.2-7.43-.27-12.5,7.87-13C466.72,73.57,467.89,73.63,470.42,73.63Z" transform="translate(-0.92 -0.9)"/><path d="M749.1,758c8.64.05,17.28-.32,25.92.83,9.1,1.22,15.4,6.66,16.38,14.78,1.19,9.9-3.28,17.66-12.26,20.71-3.71,1.26-4.92,2.87-2.62,6.49,4.71,7.41,8.54,15.39,14.22,22.17,1.64,2,1.32,3.23-1,4.17-5.53,2.26-11.53-.41-14.13-5.86-3.43-7.18-8.92-13.22-11.68-20.81a3.78,3.78,0,0,0-2.12-2c-6.77-2.2-13.72-2.07-20.58-.76-2,.37-2.66,2.88-2.63,5,.08,6.15-.09,12.33.48,18.44.36,3.79-.66,5.3-4.39,5.23a20.73,20.73,0,0,1-6.42-.7,2.39,2.39,0,0,1-1.88-3c1-7.94.06-16,.93-23.86,1-8.8-2.48-17.49.4-26.19,1.13-3.41-.89-6.84-1.08-10.32-.18-3.05,1-4.33,3.93-4.32C736.78,758,742.94,758,749.1,758Zm5.59,8.74c-3.49,0-7,.15-10.48,0-5.06-.26-5.75,3.19-5.81,6.85-.07,4.8-3.2,10.36,3,13.84a1,1,0,0,0,.48.14c10.42.17,20.9,1.63,31.23-.72,4.42-1,6.82-6,6.14-12-.5-4.47-3.36-6.41-7.66-7.14A97.43,97.43,0,0,0,754.69,766.76Z" transform="translate(-0.92 -0.9)"/><path d="M484.68,284.27c-8.86.4-16.49-1.68-23.89-4.77-3.93-1.63-6-5.05-4.36-8.83,4.11-9.34,4.46-18.68,2.63-28.58-1.29-7,.46-8.83,7.4-7.76,9.39,1.43,18.82.43,28.17,1.33a10.17,10.17,0,0,1,9.51,10.3c0,9.7,2.21,19.12,2.8,28.73.36,5.85-.47,7.34-6.16,8S489.67,285,484.68,284.27Z" transform="translate(-0.92 -0.9)"/><path d="M336.08,231.78c3.33,0,6.67,0,10,0,6.88.08,8.82,2.34,8.12,9.3-.35,3.46-1.3,6.82-1.27,10.37,0,5.84.31,11.39,2.91,17,3.38,7.26.85,10.79-7.07,11.79a161.79,161.79,0,0,1-32.26.5c-7.4-.55-8.27-1.93-8.08-9.19s-.28-14.3-.27-21.45c0-11.57,6.3-17.9,17.93-18.2,3.33-.09,6.66,0,10,0Z" transform="translate(-0.92 -0.9)"/><path d="M456.74,709h-5c-9.84,0-12.31,2-14.73,11.75-.54,2.18-.39,5.05-3.2,5.72-2.53.6-5.58,1.35-7.65-.65-2.22-2.16.79-3.79,1.47-5.64,4.67-12.62,11-24.6,14.74-37.59,1-3.56,3.6-6.67,5.44-10,.65-1.16,1.78-2.37,1.77-3.54-.15-11.25,8.84-9.05,15.26-10.34,3.34-.67,7.53,4.14,7,7.75-.33,2.4-1,4.88,1.87,6s4.72-.44,6-3c.57-1.18,1.26-2.5,2.94-2.21.92.16,1.29,1,1.4,1.84.19,1.47-.4,2.27-1.7,3.19-4.67,3.28-5.73,13-2.91,18a142.11,142.11,0,0,1,13.78,33.57c.51,1.88-.57,2.68-2.34,3-4.91,1-7.68-.63-9.15-5.49-3-10-6.07-12.27-16.48-12.3h-8.5Zm-3.23-17.3c-1.24,3.88,3,4.83,6,6.6,1.58.93,3.41.88,4.46-.67,1.9-2.8-.05-5.3-1.07-7.83a8.6,8.6,0,0,0-.63-1.34c-1.49-2.36-2.6-6.6-5.26-6C453.84,683.13,454.06,687.45,453.51,691.73Z" transform="translate(-0.92 -0.9)"/><path d="M843.13,787.9c3.62-.75,8,.44,12.2-1.34a3.26,3.26,0,0,1,4.37,1.27,11.53,11.53,0,0,1,.18,8.3c-.57,1.77-2.38,2.06-4.2,1.66-8.07-1.79-16.26-.49-24.38-.9-2.86-.14-4.13,1.53-3.85,4,.47,4-.5,7.9-.82,11.84-.25,3.09.7,5.56,4.6,5.63,14.06.26,28.12,1.78,42.15-.47,2.27-.37,3.57.37,3.63,2.78,0,1.83,0,3.66,0,5.49,0,2.51-1.33,2.94-3.56,2.76-12.57-1-25.16-1.1-37.78-1-6.12,0-12.29-.2-18.44-.4-2.36-.08-4.16-1.08-3.09-3.72,1.79-4.43.59-8.81.54-13.27-.09-9.75.62-19.51.59-29.27a106.9,106.9,0,0,0-1.41-17.79c-.7-4.05.13-6,4.23-5.49,12.39,1.56,24.8-1.28,37.25.55a36.14,36.14,0,0,0,13.27-.76c1.59-.38,4.1-1.12,4.76,1.25.79,2.82,1.29,5.92-.76,8.61-1.34,1.76-2.9,1.56-4.86.79-6.4-2.52-13.16-1.28-19.78-1.49-5-.16-10-.14-15,0s-7.25,2.75-6.85,7.64a14.62,14.62,0,0,0,.2,1.48C828.51,787.37,828.51,787.37,843.13,787.9Z" transform="translate(-0.92 -0.9)"/><path d="M55.75,790.83c-5.17,0-10.33.1-15.49,0-3.72-.09-5.76,1.65-5.87,5.23-.21,7-.68,14,.51,20.89.11.65.61,1.51.35,1.91-3,4.75-7.76,2.1-11.76,2.38-2.57.18-3.82-1.4-3.26-4.26,2.88-14.72,1.6-29.6,1.45-44.41-.05-5.71,1.59-11.61-1.43-17.17-.92-1.68.72-2.39,2.12-2.44,3.33-.11,6.66-.13,10,0,2,.07,2.82,1.09,2.45,3.32-1,6.28-.33,12.62-.47,18.94-.08,3.73,1.83,6.51,5.51,6.39,11.12-.38,22.19,1.57,33.33.33,4-.44,5.4-2.18,4.73-5.82-1.19-6.51,1.33-13.23-1.26-19.67a1.87,1.87,0,0,1,1.73-2.53c2.79-.38,5.59-.73,8.4-1,1.74-.14,1.91,1.22,2.38,2.56,2,5.75-.07,11.5.15,17.26.41,11,.19,21.93.1,32.9,0,3.39.78,6.59,1.41,9.85.38,1.9.61,4-1.76,4.48a68.36,68.36,0,0,1-10.88,1c-1.77,0-2.41-1.33-1.89-3.21,2-7.15.26-14.56,1.43-21.83.49-3-2-5.12-5.48-5.13H55.75Z" transform="translate(-0.92 -0.9)"/><path d="M484.48,787.34c0-8.64.09-17.29,0-25.93-.05-3,.19-5.26,4.08-5.23,3.46,0,5.26,1.14,5.16,4.93-.29,10.64-.82,21.31-.44,31.93.29,8.11-1.22,16.24.35,24.34.51,2.64.47,5.75-3.3,6.08-3.4.29-7.13.72-8.67-3.72a10.49,10.49,0,0,0-1.63-3q-17-20.76-34.14-41.45a11.72,11.72,0,0,0-3.1-2.48c-3.06-1.81-4.46-.41-4.32,2.71.64,14.11-1.12,28.25.63,42.34.43,3.5-1.17,5-4.61,4.63-2.57-.29-6.4,1-5.84-3.81,1.76-14.94.34-29.94.8-44.9.14-4.65-.05-9.32-.11-14,0-1.62.31-3.38,2-3.54,3.13-.28,6.33.21,9.46-.05,4.23-.35,4.85,3,6.7,5.48,5.12,6.94,10.52,13.7,16.09,20.28,5.13,6.06,9.75,12.58,15.95,17.69,1.05.87,1.39,3,3.37,2.11,1.53-.72,1.65-2.4,1.67-3.92,0-3.49,0-7,0-10.48Z" transform="translate(-0.92 -0.9)"/><path d="M587.56,794.13c-5.33,0-10.66,0-16,0-4.06,0-6.08,1.16-6.12,6.18,0,6.93,0,13.84.31,20.75.11,2.35-.66,3.46-3.15,3.1a18.31,18.31,0,0,0-4-.22c-3.41.26-4.51-.94-4.43-4.59.37-17.94.4-35.88.54-53.81a8.27,8.27,0,0,0,0-1c-.59-6.6,1.31-8.32,7.85-7.25,2.82.46,3.71,1.58,3.34,4.73-.71,6.05-.7,12.19-.91,18.3-.09,2.86,1.09,4.85,4.24,5.06a310.44,310.44,0,0,0,35.31.56c2.4-.12,3.21-1.37,3.65-3.78,1.18-6.61-.26-13.19.25-19.78.14-1.86-.44-3.85,1.86-4.56,3.06-.94,6.34-1.29,9.24.17,2.46,1.24.54,3.49.5,5.35-.27,11.11-.81,22.21-.32,33.34.37,8.28-.73,16.59.6,24.87.31,2-1,3.11-3,3.16-2.16.06-4.33.1-6.49,0-2.4-.15-3.43-1.38-3.26-4,.46-7,.71-13.94,1-20.91.17-3.82-1.29-5.92-5.53-5.75C597.89,794.28,592.72,794.12,587.56,794.13Z" transform="translate(-0.92 -0.9)"/><path d="M674.53,816.59c8.7-.44,18.16,1.78,27.62-.16,3.43-.71,4,1.76,4,4.21,0,2.68-.21,5.94-4,5.59-17-1.58-33.94-.38-50.91-.72-4.69-.09-4.91-2.08-4.82-6.26.34-16.09.08-32.2-.15-48.3,0-3.46.63-6.87,0-10.42S649,757.3,651,757.3c8.48,0,17,.3,25.44.31,7.29,0,14.58-.18,21.87-.42,3.18-.1,4.84,1.31,4.64,4.37s-1,5.66-5.05,5.19c-11.29-1.28-22.63-.38-33.94-.57-5.28-.09-7,1.61-6.92,6.75,0,3.31.52,6.62.72,9.94.13,2.16,1.59,2.84,3.34,3,8,.6,16,1.67,24.06.23,1.59-.29,2.63,0,3.23,1.42a9,9,0,0,1,.3,6.82c-.59,1.59-2.06,1.41-3.41,1.11-7.41-1.64-14.94-.18-22.41-.86-3-.28-5.32,1.16-5.25,5.06.07,3.29-.74,6.59-.92,9.91-.28,5.32,1.26,6.92,6.55,7.05C666.78,816.66,670.28,816.59,674.53,816.59Z" transform="translate(-0.92 -0.9)"/><path d="M667.68,645.88a17.43,17.43,0,0,1,2.76-8,3,3,0,0,1,3.43-1.45c1.77.58,1.39,2.31,1,3.39-1.26,3.13-1.35,6.66-4.28,9.23-2.42,2.12-2.39,5.62-2.52,8.73-.1,2.32,1.63,2.67,3.4,2.61,4.3-.15,8.64.67,12.9-.63,1.87-.56,3.75-.47,4.82,1.47a7.14,7.14,0,0,1,.22,6.72c-.87,1.79-2.64,1.94-4.34,1.59-5.28-1.08-10.6,0-15.9-.35-3.33-.21-5.32,2.5-6,5.13-.77,3.27-1.61,6.58-.78,10.27,1.47,6.51-.86,13.28,0,19.75.88,6.63-1.5,13.17.33,19.69.26,1,.27,2.19-.75,2.69a12.21,12.21,0,0,1-9.22.53c-2.61-.82-1.41-3.39-1.39-5.23.2-15.24.38-30.48.78-45.71.11-4.31-1.33-6.35-5.8-6.81-5.34-.56-10.6.4-15.91.16-3.26-.15-5.59-.4-5.63-4.39,0-3.6,1.53-5.37,5.15-4.88,5.39.73,7.61-2.73,8.69-7,1.28-5,4-8.28,9-9.6,3.84-1,7.64-2.52,11.54-2.83C662.52,640.74,665.44,642.74,667.68,645.88Z" transform="translate(-0.92 -0.9)"/><path d="M378.53,755.43c7.33,0,14.67.1,22,0,3.53-.07,5.48,1.3,5.38,4.87-.11,3.72-2.23,4.29-5.74,4.17-11.15-.39-22.31-.23-33.47-.33-2.93,0-4.37,1.12-5.17,4.15-1.1,4.19-.06,8.25,0,12.34,0,2.57,2.52,3.68,5.15,3.64,7.16-.09,14.33-.13,21.48-.29,1.5,0,3.23-.66,3.91,1.14a8.43,8.43,0,0,1-.24,6.8c-.84,1.64-2.55.85-4,.65-7.3-1-14.63-.28-21.95-.4a4,4,0,0,0-4.31,3.38A15.68,15.68,0,0,0,361,798c-1.43,14.5,0,16,14.4,15.95,9.29-.06,18.58.11,27.87.05,3.08,0,5.11.42,5,4.29s-1.85,5-5.32,4.74c-13.14-1.06-26.3-.75-39.46-.76-12.38,0-12.49,0-12.38-12.38.12-14.94.46-29.88.7-44.82a12,12,0,0,0-.06-2c-1.12-7.43-1-7.57,6.79-7.61,6.67,0,13.33,0,20,0Z" transform="translate(-0.92 -0.9)"/><path d="M218.8,754.78c6,.27,13.83-.55,21.63.6,6.89,1,12.67,3.34,13.8,11.16s1.65,15.74-4.55,21.53c-3.26,3-8.23,4.11-13.06,4.07-8.16-.08-16.31,0-24.47,0-4.58,0-6.54,1.64-7.22,6.65-.79,5.74.08,11.2.36,16.79.1,2.11.51,4.81-2.19,5.49a15.12,15.12,0,0,1-8.83-.26c-.48-.18-.83-1.42-.82-2.16.2-9.42.63-18.83.69-28.25.06-10.07.37-20.19-.56-30.18-.46-4.94,1.27-5.42,4.95-5.4C204.69,754.8,210.85,754.78,218.8,754.78Zm6,8.81c-4.28,0-7.78-.18-11.25.06-2.84.2-6.79-.66-7.71,3a31.31,31.31,0,0,0,.08,15.65c.22.83,2.55,1.32,4,1.56,3.58.6,7.21-.16,10.82-.12,6.23.07,12.6.35,18.76-1.11a9.09,9.09,0,0,0,6.63-9.21c-.33-6.68-1.63-8.37-7.2-9.38C234,763.14,229,763.81,224.81,763.59Z" transform="translate(-0.92 -0.9)"/><path d="M170.24,821.35c-4.21,1-6.43-1.33-7.08-5.93a32.58,32.58,0,0,0-1.35-5.29c-1.81-5.65-4.37-7.44-10.33-6.76-6.48.74-12.85-1.09-19.38-.3-8.72,1-11.32,3-13.26,12.07-1.1,5.15-3.83,6.81-9.07,5.81-3.06-.59-4.12-1.94-2.41-4.77,5.25-8.71,8.54-18.35,12.89-27.49,4.47-9.41,9-18.91,11.74-29,1.6-5.88,5.45-5.87,9.85-5.75,3.71.1,6.07,1.36,7.73,5.44,2.87,7,5.52,14.16,9.19,20.92,5.3,9.74,9.52,20.07,14.2,30.15.7,1.51,1.28,3.08,2.07,4.54C178.41,821.25,178.3,821.45,170.24,821.35Zm-30.19-27v-.07c3.15,0,6.31.08,9.46,0,3.71-.12,4.2-2.25,2.58-5a117.47,117.47,0,0,1-8.15-15.91c-.58-1.46-1-3.94-3.32-3.91s-3,2.35-3.81,4.12c-2.1,4.84-4.07,9.75-6.1,14.63-2.44,5.84-2.22,6.2,3.86,6.19Z" transform="translate(-0.92 -0.9)"/><path d="M282.74,807.78c.14,3.16,0,6.37.5,9.45.61,3.45-1.05,4-3.8,4.12-6.52.32-6.92,0-6.87-6q.24-24.86.36-49.71a25.81,25.81,0,0,0-.5-5c-.9-4.76.11-5.71,5-5.62,10.79.21,21.6.24,32.4.22a47.65,47.65,0,0,1,12.8,1.61c8.08,2.23,10.31,5.74,10.56,15.6.07,2.9,1,5.86-.5,8.79-3.49,6.65-8.26,10.33-16.31,11.09-8.86.85-17.52-.74-26.29-.42-5.06.19-6.91,2.47-7.2,6.86-.19,3,0,6,0,9Zm18.36-23.53v0c4.32,0,8.65.18,13-.05a11.6,11.6,0,0,0,10.74-11.58c-.19-5.63-4.2-8.66-11.12-8.61-6.3,0-12.6,0-18.9-.18-10.88-.26-12.23,1.05-12,12.07a33.38,33.38,0,0,0,.38,3.45c.42,3.54,2.15,5.25,6,5C293.1,784,297.11,784.25,301.1,784.25Z" transform="translate(-0.92 -0.9)"/><path d="M381.25,726.89c-16.72.62-28.44-6-35.29-19.71-6-12-5-29.35,6.3-39.06,6.52-5.62,14.86-7.84,23.65-9,11.16-1.52,20.92,2.29,30.91,5.79,1.62.56,3.31,1.66,2.81,3.58a13.81,13.81,0,0,1-4.22,7.19c-1.68,1.4-3-.29-4.3-1.25-9.39-6.67-19.58-8.54-30.63-5-5.25,1.69-10.73,2.28-14.07,8.15-6.72,11.82-5.2,25.12,6.17,34.12,10.22,8.1,29.89,9.36,38.57-1.37,1.39-1.72,3.3-3.23,5.62-2.4,2.64,1,3.92,3.53,4.92,5.94.77,1.87-.77,2.95-2.27,3.9C400.46,723.52,391.19,728.18,381.25,726.89Z" transform="translate(-0.92 -0.9)"/><path d="M388.93,293.13c6.73.9,13.95,2.24,21.23,2.73,7.72.52,15.14-1.56,22.34-4.3,4.64-1.76,5.91-.92,5.35,4-.74,6.47-4.45,11.83-8.08,16.86-5.2,7.21-12,13.08-17.3,20.37-3,4.15-6.72,4.27-9,.35-6.25-10.91-15.36-20.05-19.71-32.11C381.75,295.29,383,293,388.93,293.13Z" transform="translate(-0.92 -0.9)"/><path d="M250.54,666.82c-4.31.2-7.8.56-11.27.47-6.22-.16-3.3-5-3.58-7.88-.37-3.9,2.49-2.13,4.46-2,14.27.8,28.55,1.32,42.84.79,4-.15,8-.21,12-.29,2.18,0,4.52.29,3.45,3.18-.88,2.39,1.84,7.12-4,6.74-5.3-.35-10.63-.35-15.94-.63-4.41-.23-6.35,2-6.73,6.16-.66,7.09.64,14.14.36,21.27-.19,4.57-1,9.2-.53,13.85.36,3.45.07,6.93.77,10.41,1,4.74-.67,6.41-5.82,6.81-4.38.35-5.19-1.89-5-5.85.58-11.2,1.11-22.42.94-33.63-.08-5.09-1-10.22-.86-15.38,0-2-1.12-3-3-3.41A24.64,24.64,0,0,0,250.54,666.82Z" transform="translate(-0.92 -0.9)"/><path d="M206.94,688.91q0-13.73,0-27.44c0-5.05,3.85-3.52,6.52-3.61,2.42-.09,6.07-.08,5,3.53-1.95,6.79-.23,13.49-.58,20.2-.54,10.5.58,21-.69,31.52-.22,1.76.58,3.61.53,5.41s2.61,4.39-.59,5.6a11.2,11.2,0,0,1-10.06-.55c-.91-.55-.69-1.77-.55-2.78C208.07,710.19,207.11,699.54,206.94,688.91Z" transform="translate(-0.92 -0.9)"/><path d="M412.9,193.85c-9.45.87-17.21-7.94-19.14-17.52-.44-2.2,2-2.79,3.06-4.19,7.75-10.49,21.14-6.35,28.46,2.54,1.36,1.66.76,3.85.67,5.79C425.66,186.82,419.07,193.5,412.9,193.85Z" transform="translate(-0.92 -0.9)"/><path d="M609.65,702.62c.3-.11.75-.39.86-.29,2,1.7,4.08,2.29,6.19.48,2.37-2,1.68-4.65.5-6.83-1.42-2.64-2.52-5,1-6.5,3.28-1.37,6.66-3.06,8.84,2.15,1.31,3.13.64,6.51,2.24,9.59.94,1.81-1.25,2.23-2.39,1.6-3.94-2.15-6-.25-8.59,2.66C614.56,709.71,612.12,708.71,609.65,702.62Z" transform="translate(-0.92 -0.9)"/><path d="M611.08,672c0,1,0,2,0,3-.11,2-.75,3.93-3,3.92-2.65,0-2.53-2.22-2.08-4.06.53-2.18-.14-3.55-2.18-4.36A2,2,0,0,1,603,670c-1.49-2-3.4-3.83-2.23-6.65.9-2.17,2.69-1.95,4.63-1.72,2.84.33,5.23.76,5.22,4.46a42.66,42.66,0,0,0,.74,5.9Z" transform="translate(-0.92 -0.9)"/><path d="M590.41,676.19c-.12,1.32-.11,2.92-2,2.67a3.16,3.16,0,0,1-2.82-3.05,2.53,2.53,0,0,1,2.42-2.69C590,673,590.2,674.65,590.41,676.19Z" transform="translate(-0.92 -0.9)"/></g></g></svg>