<svg xmlns="http://www.w3.org/2000/svg" viewBox="0 0 792.79 843.77"><title>integrity</title><g id="Layer_2" data-name="Layer 2"><g id="Layer_1-2" data-name="Layer 1"><path d="M461.58,22c9.63-2,19.06-1.37,28.47-1.44,5.9,0,11.76.75,17.64,1,11.71.55,22.15,4.6,29.38,14.76a82.67,82.67,0,0,1,13.78,32.2,139.88,139.88,0,0,1,3,31c-.58,21.59-4.45,42.32-18.25,60-3.77,4.84-8.8,8-13.36,11.89-5.38,4.52-5.57,5.67.7,8.9,11.13,5.73,17.38,15.52,22.61,26.16,4.81,9.78,6,20.6,7.22,31.18,1.16,9.67.86,19.57.82,29.27,0,10,.3,20.11-.69,30.11-.78,7.91,1.92,15.41,2.18,23.21.11,3.22,1.23,7.27,6.21,7.74,5.26.5,7.63-2.33,9-6.73a30.94,30.94,0,0,0,1-7.39c.84-15.26.72-30.54.83-45.81.08-10.94,1.56-22,.61-32.8-.83-9.45.45-18.77-.3-28.21-.85-10.72.42-21.61.53-32.42.15-13.7.35-27.41,0-41.09-.27-9.49.25-19-.11-28.43-.67-17.56,1.08-35.1,0-52.62-.4-6.32,0-12.68-1.44-19-1.06-4.54-3.75-6.86-7.9-8-1.54-.41-3.77,0-3.38-2.55.36-2.28,2.51-2,4.06-1.79,8.09,1,16.19.48,24.3.45,26.1-.1,52.19.37,78.28.26,19.07-.07,38.13,2.43,57.14.63,6.61-.62,12.67,1.24,19,1.35,1.51,0,2.66.62,2.91,2.15.21,1.25-.9,1.49-1.81,2-7.89,4-9.79,8.34-7.08,16.9,2.66,8.39,2.49,17.38,5.33,25.65s2.87,16.88,6,25c2.33,6.09,3,12.89,3.74,19.46.53,4.85,1.93,9.35,3.16,14,1.64,6.19,2.67,12.55,3.81,18.86.33,1.84.3,4.14,2.25,4.61,2.62.63,2.23-2.21,3.06-3.64,2.52-4.36,1.4-9.36,2.6-14,4.34-16.94,7.61-34.14,11.79-51.15,2.74-11.2,5.72-22.5,6.24-34.12.26-5.83,1-11.87-3.6-16.88A13.82,13.82,0,0,0,775,28.91c-1.38-.46-2.57-1.35-2.41-2.78s1.67-1.35,2.85-1.35c11.16,0,22.32.12,33.48.14,1.39,0,2.71,0,3.2,1.66s-.33,2.15-1.68,2.41C798,31.37,795.81,41.84,793.09,51.51c-4,14.38-8.06,28.82-11,43.46-1.58,8-3.37,15.86-5.31,23.7-1.62,6.58-2.94,13.23-4.41,19.83-2.57,11.57-7,22.91-6.12,35,1.25,16.85-.84,33.69,0,50.51.92,18.72.83,37.45.75,56.17q-.07,15.38-.94,30.74c-.54,9.48,2.59,15.5,10.94,19.39,1.12.52,2.32.95,1.93,2.39a3,3,0,0,1-2.86,2.38c-3,0-5.92-.26-8.88-.27q-18,0-36,.05c-2.09,0-4.54-.14-4.83-2.44s2.17-2.32,4-2.72c5.9-1.33,7.62-4.61,8.62-12.62,3.25-26,.79-52.07,1.44-78.1.34-13.28.41-26.59,0-39.87s-1.31-26.21-4.77-39.27c-3.86-14.62-7.17-29.46-10.53-44.24-2.24-9.81-4.68-19.58-6.74-29.4-1.33-6.4-2.32-13-3.73-19.41-2.19-10-4.21-20.1-8.27-29.6-.63-1.47-1.41-2.74-3.32-2.25s-1.86,2.15-1.79,3.63c.41,9.3,0,18.59.45,27.91.69,13.8.28,27.65.34,41.48,0,1.79-.33,3.71-2.45,3.61S698,109.38,698,108c-.09-18.91-3.43-37.37-7.92-55.65a54.7,54.7,0,0,0-9.62-19.56,16.84,16.84,0,0,0-4-3.76c-5.32-3.56-7.95-2.46-9.1,3.86a36.53,36.53,0,0,0-.33,6.46c0,16.4-.07,32.81.08,49.21.12,12.38,1.08,24.78.67,37.13-.53,16-1.12,32-.51,48,.41,10.86.2,21.74.27,32.58,0,8.45-.12,17-.38,25.55-.31,10.1,1.58,20.36.45,30.32s.39,19.77.13,29.66c-.28,10.81-.64,21.85,2.17,32.57.88,3.36,3.5,3.89,6.29,4.76,1.41.44,4.28-.24,4.07,2.56s-2.74,2.71-4.61,2.71a92.57,92.57,0,0,1-12.91-.56c-8.48-1.16-17-.84-25.48-.84-1.16,0-2.33.05-3.5,0s-2.55.27-3-1.19c-.45-1.62,1-2.71,2-3.09,7.82-2.82,8.44-9.22,9.3-16.27,4-32.35,1.28-64.78,1.61-97.16.56-53.28.23-106.57.05-159.86,0-7.09-.11-14.18,0-21.27,0-2.77.58-6.3-2.4-7.45s-5.72,1.34-7.95,3.23c-9.89,8.43-12.09,20.35-14.57,32.24a205.08,205.08,0,0,0-4.14,45.42c0,1.52-.3,3.35-2.16,3.39-2.51.06-2.12-2.16-2.07-3.72.3-9.27,0-18.54.47-27.83.56-10.27-.21-20.6-.17-30.9,0-5.54,1-11.07-.27-16.62-.56-2.44.46-5.75-3.67-5.82s-6.67,2.3-7.9,6.16c-2.43,7.66-2,15.55-2,23.44q.12,81.48,0,163c0,30.11-.1,60.23.12,90.35,0,4.68,1.37,9.39,2.46,14,.71,3,3.1,4.69,6.2,4.94,2.14.17,3.85,1.1,3.63,3.19s-2.27,2.55-4.2,2.57c-10,.11-19.94-1.09-30,0-6.81.74-13.86-.71-20.8-1.24-12.32-1-17.76-9.33-21.7-19.71-2.71-7.13-3-14.56-3.78-21.93-2.07-19.42-.83-38.91-.84-58.37,0-11.49-1.26-22.85-2-34.26s-16.58-21.35-27.3-17.76c-2.27.76-2.75,2.16-2.68,4.12.57,16.1-.36,32.2.52,48.33.31,5.7.91,11.71-.12,17.71-.92,5.42.67,11.21.44,16.8-.66,16.22-.14,32.42.11,48.62.09,5.67,1.84,10.36,8.52,11.48,1.17.2,3.62,1,2.88,3.25-.63,1.95-2.3,1.49-4.09,1.51-13.73.19-27.43-2-41.17-.57-1,.1-2,.62-2.46-.75a1.84,1.84,0,0,1,1.31-2.36c10.6-4.09,10.78-13.44,10.86-22.43.21-25.25.08-50.5.08-75.75Q473,140,473,49.65a113.2,113.2,0,0,0-1-13.87C471.15,29.37,467.12,25.19,461.58,22Zm34.64,141.43c0,1.66.06,3.32,0,5-.18,4.47,1.41,6.79,6.4,6.44,8.66-.59,12.75-7.08,15.86-13.38a84.49,84.49,0,0,0,8.12-29.86c1.43-14.94,2.47-29.8,2.45-44.81,0-13.14-2.1-26-4.53-38.77-1.62-8.49-4.38-17.2-13.67-21.24-3.94-1.72-7.78-4.11-12.19-1.59-4,2.28-2.35,6.26-2.37,9.51-.13,24.69-.07,49.38-.07,74.08Q496.21,136.1,496.22,163.43Z" transform="translate(-19.48 -14.42)"/><path d="M409.76,857.9c-22.44,1-45.84-.69-69.08-3.31-34.42-3.87-67.31-13.38-97.19-31.48A271.43,271.43,0,0,1,200.11,790a226,226,0,0,1-49.44-65.71,257.7,257.7,0,0,1-17.13-44.8c-3.12-11-5.5-22.12-7.87-33.23-3.5-16.45-1.65-33.09,1-49.47,2.05-12.89,3.2-26,7.23-38.52,1.57-4.87,3-9.79,6-14,4.56-6.43,7.61-13.62,10.11-21a81,81,0,0,1,11.42-21.93c6-8.21,9.72-17.73,15.13-26.28,6.65-10.52,16.35-18.21,25.1-26.75a253.64,253.64,0,0,1,51.82-39.36,339.93,339.93,0,0,1,53.68-25c12-4.3,24.15-8.31,36.46-11.66a251.29,251.29,0,0,1,39.56-7.36c20.48-2.18,41-3.79,61.62-2.69,17.68.94,35.33,2.32,52.84,5.4,14,2.46,28,5.43,41.7,9.06,27.74,7.35,53,19.9,74.43,39.54,17.41,16,31.28,34.67,43.24,54.92,10,16.88,15.74,35.22,20.4,54.16,2.92,11.86,8.3,23.09,11.21,35,3.17,13,5.59,26.12,7.94,39.3,3.47,19.46,3.12,39,3.68,58.5.35,12-1.45,24-3.62,36a172.15,172.15,0,0,1-14,44,164.75,164.75,0,0,1-38.39,51.56c-11.85,10.7-25.57,18.85-40,25.88a394.12,394.12,0,0,1-60.82,23.45,482.67,482.67,0,0,1-56.84,13.37A393.92,393.92,0,0,1,409.76,857.9Zm.91-19c11.44-.65,22.88.35,34.38-.7,19.3-1.77,38.49-4,57.44-8.15a458.56,458.56,0,0,0,78.31-24.21c22.26-9.25,42.83-20.84,59.19-39,9.26-10.29,17.35-21.35,23.44-33.8,8.74-17.88,13.4-36.82,15.8-56.57,2.54-21,1.09-41.75-1.32-62.52A249.49,249.49,0,0,0,664.46,556c-6.29-17-10.49-34.49-15.59-51.77a132,132,0,0,0-15-33.56c-10-15.71-21.23-30.42-35.47-42.75a152.51,152.51,0,0,0-42.52-26.5c-18.79-7.63-38.61-11.75-58.49-15.44a312.86,312.86,0,0,0-60.33-5.58c-8.77.08-17.54-.33-26.34.08A319.06,319.06,0,0,0,361,386.67c-15.22,3.14-30,7.85-44.73,13-24.19,8.54-47.59,18.63-69.42,32.19-17.77,11-33.87,24.08-46.45,40.9-11.26,15.05-17.78,32.58-24.16,50-5,13.54-9.39,27.25-18.42,38.84-3.06,3.94-3.61,9-4.63,13.56-3,13.72-3.82,27.82-6.73,41.59a70.17,70.17,0,0,0-1.5,15.83c.42,18.94,5.3,37.07,11.43,54.79,10.14,29.32,25.19,55.74,46.51,78.63,24.34,26.11,52.83,45.74,86.38,57.81,24.05,8.64,49.23,12.09,74.53,13.92C379.36,838.93,395,839.74,410.67,838.89Z" transform="translate(-19.48 -14.42)"/><path d="M97.47,51.21c-2.57,1.83-2,3.8-2,5.55,0,26.66-.48,53.33.2,80,.31,12.06.06,24.14.14,36.18.1,16.62-.6,33.28,0,49.91.46,13.91.1,27.82,1,41.74.65,9.62-1.07,19.4.3,29,1.08,7.67,1.08,15.47,3.06,23,1.47,5.63,4.27,10,10,12.11,1,.37,2.84.6,2.28,2.6C112,333,110.67,333,109.3,333c-10.26,0-20.51,0-30.76,0-1.28,0-2.89.31-3.46-1.28-.68-1.89.89-2.54,2.18-3.35,4.74-3,7-7.43,8.57-12.8,2.86-9.68,3.27-19.62,3.75-29.46.57-11.5-1-23.09-.52-34.59.81-20.74.87-41.49,1-62.22.22-49.15-.09-98.3-.28-147.46,0-8.74-3.7-13.6-11.59-16.41-1.35-.48-3.34-.82-2.9-2.75.35-1.55,2.11-2.07,3.66-2.08,5.8,0,11.6.21,17.39.08,4.93-.11,9.83,1,14.82,0,3.09-.66,5.17.62,6.07,4.21,2.26,9.14,4.45,18.26,6,27.57a119.2,119.2,0,0,0,3.43,13.85c2.24,7.84,3.3,15.89,5.44,23.73,2,7.47,2.54,15.46,5.3,22.61,2.66,6.93,2.4,14.23,4.84,21.21,3.07,8.79,3.77,18.38,5.88,27.54,2.77,12,5.08,24.13,9,36.23,2-2.13,1.94-4.24,1.94-6.36q0-72.49,0-145c0-6.06-2.64-11.56-4.25-17.27-.66-2.3-3-2.91-5.09-3.63-1.77-.62-3.83-1.36-3.1-3.71.59-1.87,2.48-1.55,4.25-1.5,16.24.47,32.48.66,48.74-.17,6.58-.33,13.3-.08,19.86.24,14.43.7,28.86,0,43.24,0,28.77-.14,57.54-.11,86.31-.34,6.86-.05,7.32.45,7.33,7.41q0,39.17,0,78.34c0,1,0,2,0,3-.05,1.25-.37,2.41-1.86,2.49-1.76.08-2.18-1.15-2.26-2.63-.27-5.14-1-10.29-.77-15.39.68-13.88-1.85-27.47-3.5-41.1-2.11-17.38-19.4-29.6-37-27.1-4,.57-4.55,3.48-4.58,6.6-.08,10.62,0,21.25,0,31.88,0,16.46.42,32.94-.1,49.38-.46,14.76-.51,29.52-.57,44.27,0,2.45-.45,5.33,2.27,6.68,2.88,1.43,5.2-.59,7.08-2.33A34.93,34.93,0,0,0,324.66,146c2.71-8.66,5-17.34,6-26.45.38-3.63-1.23-7.26.43-10.8.47-1,.13-2.55,1.66-2.69,2-.18,2,1.62,2,2.8.25,9.06.7,18.13.46,27.18-.23,8.62-.63,17.2-.07,25.84.41,6.11-.3,12.28-.29,18.43,0,15.47-.7,31,.51,46.42.17,2.11-.41,4.28-.59,6.42-.11,1.27-.46,2.42-1.9,2.47-1.69.06-1.63-1.37-1.65-2.51-.22-12.14-3-24-4.36-36-1-8.86-3.28-17.58-9.55-24.65a17.85,17.85,0,0,0-3.72-3.18c-4.55-2.88-8.16-.89-8.1,4.5.3,23.14.21,46.3.28,69.44.07,24.27-.11,48.55-.29,72.83-.08,11.66,3.9,13.61,15.28,10.21,14.25-4.25,19.55-15.46,25-27.41,4.48-9.82,5.92-20.31,7.92-30.62,1.7-8.75,2.11-17.82,2.32-26.77.11-4.75,1.5-9.49.32-14.33a2.42,2.42,0,0,1,2.41-3.09c2.05,0,2.59,1.72,2.38,3.14-1.11,7.31.61,14.64-.18,21.88-.92,8.44.18,16.84-.25,25.26-.41,8.05-.12,16.13,0,24.2s.21,16.2.89,24.26c.54,6.4-.66,8.42-6.82,8.43-15.16,0-30.37.77-45.46-.24-10.8-.72-21.43,1.05-32.14.3a22.38,22.38,0,0,0-4.41.56c-1.26.16-2.74,2.1-3.69-.35a2.88,2.88,0,0,1,2.28-3.82c7.5-1.64,9.28-7.92,10.28-13.75,1.12-6.46.78-13.23.59-19.84a240.46,240.46,0,0,1,.43-27.77c.22-2.55-.63-5.18-.63-7.77-.06-21.61-.49-43.23.06-64.83,1.24-49.44.65-98.88.91-148.31,0-3.88-.91-7.58-1.37-11.35A9.4,9.4,0,0,0,278,27.7c-1.82-1.36-4-2.72-6.45-1.89s-2.46,3.2-2.59,5.4c-.51,8.68-.08,17.36,0,26,.13,14.66,0,29.33,0,44,0,2.31.42,5.41-3,5.06-2.71-.28-3.22-3.19-2.9-5.56,2.15-16.06-.79-31.52-4.75-47-2-7.91-4.06-15.54-9.17-22.11-1.93-2.48-4.42-4-7-5.53-4.46-2.69-7.93-.85-8.17,4.33-.18,3.83-.11,7.67,0,11.5.38,16,.49,32,.39,47.91-.2,31.52-.21,63-.38,94.56-.08,13.16.25,26.34-.08,39.49-.46,18.75-.11,37.5-.51,56.23a235.16,235.16,0,0,0,2.09,36.31c.77,5.73,3.52,9.9,9.24,11.79,1.19.4,3.12.67,2.79,2.29s-2.32,1.55-3.79,1.49c-13.94-.57-27.87-1.51-41.83-.29-1,.09-2.06,0-2.61-1a1.37,1.37,0,0,1,.8-2c11.16-4.73,11-15.47,11.3-24.52,1.57-40.58.43-81.21.7-121.82.1-14.74-.53-29.5.15-44.21.58-12.54.45-25.06.59-37.58.09-8.36.22-16.78-.46-25.18a48,48,0,0,1,0-10.51c1.72-11.73-.75-23.35-.38-35,.14-4.33-3.25-5.81-7.24-3.86-8.71,4.26-12.39,12.17-14.83,20.73a175.47,175.47,0,0,0-7,49.45c0,2-.67,3.92-.87,5.9-.15,1.56-.13,3.28-2.27,3.06s-1.77-2.07-1.8-3.53c-.13-7.29.84-14.62.48-21.83-.54-10.67,1.45-21.3-.31-32-1-5.89-.2-12.07-.18-18.12,0-1.89.06-3.83-2.15-4.54-2.38-.75-4.22.23-5.52,2.28-2.25,3.53-3.94,7.2-4.16,11.55-1.33,26.47-.48,53-.63,79.44-.15,26.28.26,52.58-.11,78.86-.62,43.59-.64,87.18-.72,130.77,0,1.68,1.31,4.6-1.73,4.8-2.43.16-2.74-2.57-3.15-4.42-3.38-15.48-6.63-31-10.48-46.35-2.49-9.92-5.11-19.91-6.84-29.94-2.18-12.7-5.58-25.11-7.81-37.79-2.1-11.85-5.23-23.52-8-35.26-3.38-14.45-7.2-28.81-10.18-43.35C111.1,109.1,105.16,82.61,99,56.16,98.67,54.62,98.08,53.13,97.47,51.21Z" transform="translate(-19.48 -14.42)"/><path d="M448,71.42c0,15,0,30,0,45,0,1.41,1,3.87-1.69,3.81-2.25,0-1.3-2.27-1.46-3.58-2-16.24-3.53-32.54-6-48.69C437.09,56.73,435,45.44,430.32,35c-2.64-5.85-5.78-11.48-10.87-15.7-4.61-3.82-11.94-2.74-15.76,2.68a42.3,42.3,0,0,0-7.63,25.08,63.71,63.71,0,0,1-1.42,13.34c-1.92,8.93-1.41,18-2.5,27-3.65,30.28-3.59,60.73-3.12,91.15.32,20.57,1,41.15,2.33,61.68s3.35,41.28,5.87,61.83a70.85,70.85,0,0,0,7.45,24c2.92,5.64,7.17,7.93,13,7.74,3.72-.12,7.94-6.13,9.43-11.75,3.12-11.76,3.48-23.72,3.4-35.77-.12-19.78,0-39.56,0-59.33,0-6.92-1.77-13.1-7.73-17.38-.72-.52-1.32-1.08-1.19-2,.17-1.32,1.25-1.29,2.25-1.4,12.13-1.34,24.29-.59,36.44-.63,1.42,0,3.11.11,3.55,2s-1.06,2.21-2.22,2.8c-6.16,3.14-7.64,8.64-7.63,15,0,19.16.17,38.33-.06,57.49-.13,10.79-.12,21.58-.66,32.38-.21,4.36.87,8.83-.21,13.27-.25,1-.29,2.1-1.48,2.29s-1.76-.82-2.13-1.75c-.75-1.85-1.28-3.79-2.08-5.61-2.55-5.83-5.89-6.42-10.09-1.67-3.74,4.23-7.38,8.5-11.91,12-4.69,3.62-9.63,2.93-14.61,1.52-9.35-2.65-14.52-9.89-18.84-17.9-2.52-4.66-4.72-9.51-7.47-14-5.39-8.88-7.05-18.93-9.89-28.67a212.87,212.87,0,0,1-5.71-26.07c-1.25-8-3-16-3.84-24-2.41-23.75-5.38-47.57-3.52-71.46.79-10.15,1.46-20.37,2.87-30.54,1.22-8.77,2.61-17.57,3.91-26.33,1-7.09,2.22-14.31,4.88-21.14a141.35,141.35,0,0,0,4.3-13.75c3.35-12.1,9.71-22.72,15.86-33.49a38.24,38.24,0,0,1,7.7-9.07c6-5.56,17-6,23.43-.77,3.34,2.73,6.42,5.78,9.55,8.76,4.3,4.1,7,3.77,9.5-1.4.78-1.57.88-4.1,3.34-3.36,2,.59,1.18,2.88,1.18,4.44C448,41.49,448,56.46,448,71.42Z" transform="translate(-19.48 -14.42)"/><path d="M45.62,20.48c6.63,0,13.25,0,19.88,0,1.82,0,4-.22,4.11,2.43.15,2.33-1.78,2.55-3.41,2.79-4.57.66-6.59,3.1-7.51,7.79A87.75,87.75,0,0,0,57,51.07c.16,63,.51,125.94-.14,188.91-.21,20-.55,39.93-.41,59.88,0,6.65-.09,13.49,2.05,20.14,1.56,4.83,3.94,7.81,9,8.63,1.11.18,2.91.07,2.81,2.09S68.6,332.9,67.06,333a8.34,8.34,0,0,1-1,0c-13.47-.79-26.87,1-40.32.94-1.33,0-2.66,0-4-.16a2,2,0,0,1-1.87-2c-.13-1.21.42-1.75,1.59-2.05,10.48-2.69,12.44-10.79,12.45-20q0-67.47,0-134.93c0-42.38.06-84.76-.07-127.13,0-5.22-.46-10.45-2.81-15.45-1.82-3.85-4.59-5.46-8.41-6-1.45-.21-3.22.14-3.17-2.14,0-2,1.8-2.23,3.19-2.53a22.14,22.14,0,0,1,4.46-.36c6.16,0,12.32,0,18.49,0Z" transform="translate(-19.48 -14.42)"/><path d="M327.35,741.14c5.36.88,11-.63,16.44-1.68,9.7-1.84,17.58,1.41,25.2,6.58,7.92,5.38,15,12.12,24.32,15.26,11.92,4,24,4.38,36.28,2.21,19.47-3.43,35.11-14,50.23-26a136.58,136.58,0,0,0,27.7-29c4.9-7,12.12-9.35,19.63-10.34,10-1.31,20.23-2.36,30.25-1.77,15.47.91,26.85-5.23,33.84-18.25,6.72-12.52,15.29-24.28,18.33-38.59.66-3.08,1.36-6.15,2.25-9.17.74-2.53-1.13-2.71-2.63-3.3a50,50,0,0,1-12.27-6.57c-1.37-1-2.52-2.38-2.07-4.24.59-2.42,2.72-1.54,4.17-1.48,17.8.8,34.46,4.77,47.84,17.62,1.92,1.84,2.55,3.82.76,6.13s-4,3.79-6.78,1.73c-4.09-3-8.77-4.59-13.44-6.36-3.12-1.19-4.32-.53-5.27,2.61-4.48,14.93-10.43,29.31-16.48,43.68-7.85,18.7-21.93,28.32-41.3,31.92a175.35,175.35,0,0,1-21.69,2.44c-13.23.78-23.08,7.5-32.09,16.25-9.54,9.25-18.16,19.49-29.47,26.82a101.28,101.28,0,0,1-31.85,13.68,171.37,171.37,0,0,1-34.43,4.24c-17,.55-31.92-5.35-45.86-14.24-4.54-2.89-9.07-4.52-14.48-4.37-8.66.25-17.38-.53-26,.2-16.19,1.36-28-5.8-37.85-17.64-5.42-6.5-10.5-13.24-15.31-20.19-2.24-3.25-4.07-3.82-6.93-.61-7.49,8.41-14.83,17-23.83,23.92-6.8,5.22-14,9.17-23.22,8.67-12-.65-25-12.34-26.7-24.24-2.24-15.24,1.58-29.33,7.15-43.17,1.7-4.23,5.8-5.84,9.57-7.51,7.18-3.19,14.94-4.41,22.6-5.81,2.6-.48,3.45-.68,2.17-3.63-1.79-4.11-1.86-8.7-2.31-13.17-1.08-10.69-2.75-21.32-3.75-32-.66-7.11-3.15-13.61-6.07-19.88-3.71-7.95-6.78-15.89-6-24.83.26-3-.93-4.25-4-4.09s-6.33.11-9.49,0c-3.72-.16-4.49-2-3-5.37,1.81-4.25,5.86-5.37,9.48-6.69,8.53-3.14,17.22-5.9,25.93-8.53,2.24-.67,4.92-1.18,7,1.08,2.22,2.42,2.72,4.73-.57,6.47a63.34,63.34,0,0,1-9.49,4.24c-3.83,1.27-4.73,3.5-3.72,7.2,2.15,7.83,4.24,15.53,8.65,22.62,3.42,5.48,3.37,12.35,4.22,18.73,1.37,10.26.41,20.61,1.09,30.88.77,11.65,7.14,20.92,15,29.09,8.84,9.23,18.58,17.65,25.26,28.75a310.27,310.27,0,0,0,18.09,27.36C308.6,737,316.24,742.09,327.35,741.14Zm-61.12-36.45c-.08-6.1-2.16-9-5.82-7.84-5.83,1.81-11.5,4-15.71,8.91a83.37,83.37,0,0,1-7.76,7.74c-3.74,3.34-7.9,3.47-10.72.59-2.54-2.6-1.78-7.13,1.81-10.51.48-.44,1.18-.64,1.67-1.07,4.76-4.21,10.56-6.81,15.75-10.35,4.87-3.31,5.14-5.91,2.15-10.07-3.6-5-7.39-4-12.11-2.08-12.56,5.23-23.32,11.41-27.73,26.07-3.47,11.51-1,20.36,6.35,28.74,3.34,3.81,8.25,4.5,13,2.76,3.53-1.3,6.29-3.6,9.18-5.81,9.17-7,16.84-15.92,27.19-21.46A5.15,5.15,0,0,0,266.23,704.69Z" transform="translate(-19.48 -14.42)"/></g></g></svg>