<svg xmlns="http://www.w3.org/2000/svg" viewBox="0 0 888 893"><title>job</title><g id="Layer_2" data-name="Layer 2"><g id="Layer_1-2" data-name="Layer 1"><path d="M845,894h-5c0-14-.07-28,.21-42a31.61,31.61,0,0,0-3.31-14.42c-6.94-14.72-12.81-30-20.91-44.13-7.35-12.87-12-27-19.44-39.89-3.9-6.75-7.3-12.52-16.93-12.24-7.66.23-14.17-4.55-16.34-12.42a43.75,43.75,0,0,1-1.8-16.27c.41-3.95,1.86-8.09-.9-12.09-6.4-9.29-13.4-18.22-18.05-28.62a3.53,3.53,0,0,0-.52-.85c-1.86-2.13-3.3-2.69-4.52.68-1.53,4.21-3.25,8.37-5.17,12.41a34,34,0,0,0-3.26,14.94q.08,97.44-.06,194.87H504a6.53,6.53,0,0,0,2.52-6.17,4,4,0,0,1,1.29-3.56c4.81-5.06,8.34-10.68,7.88-18.08a3.68,3.68,0,0,1,.85-2.75c4.34-3.52,3.19-8.89,4.58-13.37.9-2.91-2.37-4.31-4-5.62-1.86-1.53-2.12,1.72-3.11,2.76-3.25,3.44-2.1,9.06-6,12.34-1,.86-1.07,3.35-3,2.65s-1.48-3.32-.88-4.37c3-5.24,1.88-11.4,4.14-16.72,1.3-3.06,1-5.25-2.21-7.07s-2.74-3.69.7-5c1.44-.57,4.51-.75,4.05-1.86-1.71-4.07,1-7.9-.05-11.77-.84-3.2-1.77-5.32-6.18-3.66-3.46,1.3-4.09,4.82-6.69,6.27-5.27,2.95-3.82,7-2.42,11.12a29.82,29.82,0,0,0,2.38,4.93c.67,1.19,1.65,2.36.13,3.46a2.81,2.81,0,0,1-3.7-.3c-3.66-3.78-4.48-.4-5.46,2.15a28.08,28.08,0,0,0-1.33,5.31c-1.38,8-1.12,16.21-4.85,23.72a38.61,38.61,0,0,0-3.56,10.85c-.53,3.15-.26,5.17,3.86,4.88s4.2,1.79,1.85,4.46c-.72.81-1.37,1.6-.65,2.57s2.23,1.08,2.73.57c3.33-3.4,7.46-2.65,11.52-2.67,1.57,0,1.82-1.73,2.47-2.85a1.84,1.84,0,0,1,2.5-1c.82.4.71,1.33.77,2.18.23,3.79-3.1,4.72-5.2,6.63H469c-2.32-3.3-2.16-5.31,2.57-4.69,3.55.46,4.64-1.47,2.95-4-2.36-3.54-5-7.65-9.3-8.65-7.1-1.64-14.1-4.13-21.52-4.13-11.16,0-18.82-6.29-26.17-13.78-4.85-4.94-10.46-10.7-17.47-10.7-8.7,0-17.51-.21-26.22.52a22.19,22.19,0,0,1-21.26-12c-2.94-5.74.21-12.43-3.87-17.77-.9-1.17.47-1.95,1.84-2.08,3.83-.35,5.31,1.9,4.4,6.77-1,5.64,1.6,8.37,6.72,5.76,8.49-4.33,18-4.7,26.68-7.86,4.36-1.58,8.94-4.27,13.24-3.95,7.07.53,13.91-1.29,20.87-.67,15.36,1.37,30.17-1.78,44.7-6.1,6.69-2,14.46-.61,20.12-6.14.5-.49,1.93.07,2.89-.1,5.26-.9,8.94,3.06,13.47,4.39,2.28.68,2.81.21,3.35-1.89,1.36-5.24.2-6.49-5.27-5.31a4.84,4.84,0,0,1-2.44.22c-6.78-2.49-13,.37-19.39,1.85a56.92,56.92,0,0,1-19.76,1.48c-1.15-.14-2.61-.42-2.81-1.67-.26-1.58,1.51-1.4,2.43-2,2.42-1.46,5.22-.8,7.8-1.43,10.4-2.53,19.33-8.86,29.78-11.34,2.86-.67,5.6-2.33,8.59-1.79s.95,4.3,3.18,5.78c5.26-4.4,8-10.42,11-16.24.82-1.57,1.81-3.56,3.54-2.76,5.06,2.33,8.82-2.35,13.43-2a1.83,1.83,0,0,0,2-1.83c.13-1.52-.87-2-2.15-2.17-1.83-.19-3.82-.23-5.18-1.53-3.32-3.16-7.18-2.74-11.25-2.44-5.53.41-9.95,3.6-15,5.25-18.39,6.05-37.06,11.19-55.11,18.34-4.76,1.89-9.95,4.1-15.26,4.22-14.33.33-28.31,2.88-42.37,5.34-15.07,2.64-30,7-45.74,4.15-3.51-.63-4.89-2-4.71-4.89.43-7.08.57-14.27,2.53-21.13,2.31-8.12,3.56-16.46,2.34-24.65-.81-5.52.12-8.62,5.07-11,5.51-2.64,8.88-8.24,14.78-10.72,2.83-1.19,2.31-5.16,1.57-8.22s-3.14-2.34-5.2-2.62c-3.75-.52-5.9,2-7.84,4.38-3.7,4.6-7.31,7.92-13.72,4-2.69-1.62-6.68-1.53-2.8-5.95.55-.63.49-1.91.49-2.89,0-2.43-.83-4.27-3.68-4.32s-3.24,1.93-3.19,4c.06,3.08-.89,6.39,1.86,9,1.3,1.21,1,2.23-.49,3.19-1.65,1.1-3.19,2.38-4.74,3.63-.63.51-1.14,1.38-2.08.85-1.09-.61-.89-1.69-.65-2.66a31.66,31.66,0,0,0,1-3.33c.17-1.33-.82-2.11-1.89-2.68s-2.26-.51-2.52.61c-1.46,6.28-6.81,3.93-10.63,5a5,5,0,0,1-5.37-1.72,1.77,1.77,0,0,1,0-2.65c1.54-1.76,3.32-1.86,5.41-1,3.37,1.37,5.35,0,6.38-3.34a10.58,10.58,0,0,1,5.12-6.28c4.35-2.6,8-6.17,12.79-8.35,3.54-1.61,4.31-5.83,2.84-9.11-1.56-3.47-4.42-1.56-6.64,0-1.89,1.35-2.73.29-3.26-1.36a11.15,11.15,0,0,0-3-5.1c-1.42-1.28-1.61-4.42-4.75-3.25-2.75,1-2.86,3.27-2.88,5.72,0,1.94.07,4.21-3,4.06-6.84-.34-10.83,4.42-15,8.66-1.74,1.75-2.92,4.11-4.78,5.7-2.87,2.45-5.06,1.18-5.81-2.51-1-4.91,3.25-7.73,4.29-11.83.38-1.48,1.94-.78,2.19.78s0,4,1.92,4.13a5.7,5.7,0,0,0,5.2-3.15c3.44-7.91,10.17-13.43,14.45-20.69,1.09-1.86,2.07-2.63,3.61-.5.7,1,1.55,2,2.87,1.15a3.41,3.41,0,0,0,1.55-3.46c-.38-3.54-2.94-5-5.88-6s-2.63,1.59-3.5,2.94c-1,1.62-2.27,3-4.44,2.43-1.51-.42-1.77-1.72-1.9-3.15-.7-8-4.35-15.23-5.86-23-.46-2.39-2-2.3-3.59-.69-2.64,2.63-2.83,5.95-2.48,9.31.43,4.06-1.46,5.09-5,4.31-1.94-.42-4-1.48-5.87-.63-7.68,3.5-15.38.39-23.06.48-6.49.09-13.9-3.63-20,4.89,0-4.68.2-7.79,0-10.87-.47-6.05-4.74-8.29-10.11-5.52a6.62,6.62,0,0,0-3.58,4.61c-.7,5.68-4.18,9-8.4,12.16-1.66,1.25-2.94,2.95-5.12,1.91-2-1-2.56-2.89-2.33-5.08.21-1.9,1.23-4.32-1.28-5.25s-4.85-.58-6.47,2.12a25.2,25.2,0,0,1-3.39,3.64c-1.54,1.66-2.83,3.55-1.67,5.82,1.51,2.93,3.19-1,4.74-.37a3.52,3.52,0,0,1-.87,3.92c-2.21,2.61-.82,3.28,1.71,4.2s6.63.57,6.8,4c.18,3.66-3.95,3.19-6.41,4.25-2,.85-4.72,2.28-2.36,4.56,1.88,1.83,1.77,4.19,3.19,6l.08-.08c-1.7.68-3.3,1-4-1.28a8.5,8.5,0,0,0-2.95-3.9c-3-2.52-3.07-5.33-.45-8.18,1-1.12,2.24-2.12,1.7-3.85-.1-.32-.85-.76-1.07-.66-1.59.77-3.84.75-4.46,2.77s-.46,4.51-3.36,3.8c-2.43-.59-4.58-2.08-4.64-5.13s-2.05-4.43-4.18-6.24c-7.34-6.24-16.46-8.37-25.22-10.74-13.34-3.62-25.29-10.59-38.56-14.47-12.56-3.66-25.05-7.45-37.82-10.41-10.93-2.52-21.94-4.69-32.55-8.66-5.3-2-9.78-6.41-16.07-5.81-1.26.12-2-1.15-1.68-2.53s1.39-2.42,2.44-1.55c3.67,3,7-.33,10.48-.28,2,0,3-1.46,3.25-3.67,1.21-14,6.52-26.47,13.79-38.26a7.6,7.6,0,0,0,1.1-6.61c-.4-1.2-2.9-2.1-.92-3.57,1.7-1.26,1.81,2.14,3.74,1.74,1.21-2.7-1.81-4.9-1.07-7.54.27-1,.34-2.08,1.62-2.13,1.05,0,1.26.87,1.41,1.71s.18,1.7,1.75,1.69c.21-3.7,5-6.06,3-10.65-.18-.4.3-1.59.63-1.65,4.67-.93,4.65-5.66,6.9-8.5,5.15-6.51,8.83-14,12.38-21.42,3.1-6.51,6.39-12.81,7.92-20.13,1.22-5.82,8.85-8.09,10.51-15.08.68-2.84,3.92-7,6.79-9.91,7.22-7.42,9.22-19.31,20.15-23.55,1.72-5.59,6.71-2.85,10.17-3.85,3.18-.93,5.23.68,5.09,4.17-.22,5.64,2.91,10,5,14.9,3.18,7.32,6.49,14.66,5.87,23.19-.35,4.75-1.06,10,2.34,14.36,1.45,1.86,2.9,2.95,4.58.38,1.51-2.32,3.42-2.3,5.62-1.3s2.07,2.34,1.67,4.46c-.48,2.63-1.44,3.9-4.14,3.78-3.91-.18-7.09,1.43-8.33,5.08-1,3.08,1.76,5.32,3.69,7,3.12,2.79,2.16,3.92-1.1,4.85a25.55,25.55,0,0,1-4.37,1c-2,.21-3.11.8-2.56,3.14a4.79,4.79,0,0,1-2.5,5.49,5.3,5.3,0,0,0-2.58,6c.77,3.88-.49,6.5-3.56,9.08-3.74,3.13-2.18,11.65,2.05,13.34,7.4,3,14.94,4.41,23,1.49-3.28,6.07-8,7.65-16.42,5.53-4.18-1-8.23.16-12.33.26a2.61,2.61,0,0,0-2.58,3.08c.53,5.28-.87,11.3,5.48,14.4,2.16,1,1.78,2.8,1.32,4.71s-1.31,2.81-3.43,2.64c-3.45-.26-3.6,2.35-2.62,4.33,1.45,2.91,2.43,6.35,5.49,8.14,3.79,2.21,3,4.09,0,6.26A9.93,9.93,0,0,0,152,631.38c.93,1.87,10.41,5.66,12.34,4.61,6.8-3.71,14.66-2.51,21.89-5.1,6.4-2.28,12.9-5,19.83-6.39,2.49-.49,6.07-2.27,9-3.83,8.61-4.61,16.69-10.39,26.55-12.3.81-.16,1.63-.38,1.84-1.38l0,0c1.37,2.86,1.07,4.84-2.23,6.35-6.09,2.77-12.55,4.47-18.5,7.79-6.33,3.52-13.67,5.16-19.77,9.37a20.69,20.69,0,0,1-11.13,3.79,12.2,12.2,0,0,0-7,2.52,10.2,10.2,0,0,1-8.39,2.33c-6-1.06-10.43,4.18-16.21,3.95-.85,0-1.19,1-1.45,1.83-1.77,5.58,1.33,9.77,7.13,9.14,3.48-.38,5.22,1,6.54,4,2.57,5.73,9.63,8.36,14.93,4.74,7.42-5,15.5-9,22.71-14.36,2.77-2.06,6-4.44,10.25-4.33-.14,2.38-2.66,4.29-.39,6.28,2,1.78,4.4.77,6.07-.22,6.51-3.89,14.67-2.91,20.95-7.35,1.25-.89,2.76-1.5,4,0s.74,2.73-.33,4c-3.24,3.94-.85,7.53,1.12,10.8,1,1.63,3.11,2.37,5.23.72,3.61-2.8,6.59-3.83,13-4.87,1.15-.18,1-1,1.14-1.84a32,32,0,0,1,.56-3.91c.46-1.92,1.67-4.17-.59-5.41s-4.21.51-5.18,2.5c-1.53,3.14-3.27,2.7-5.44.86-1.6-1.35-2.84-3.28-4.19-4.49-3.26-3-7.61-4.73-11.6-6.81-.4-.21-1.39.72-2.1,1.14-1,.58-2,1.26-3,1.75-1.21.56-2.81,1.22-3.6-.18-1-1.79,1.2-1.84,2-2.72,5.65-6.24,15.79-7.54,18.13-17.88,2.34,3,4.11,5.18,5.71,7.45.84,1.19,1.19,3,3.13,2.67a4.89,4.89,0,0,0,4-3.28c1.33-3.37,1.1-6.84,1-10.33,0-1.08-.44-2.61,1.32-2.65,1.24,0,1.51,1.2,1.46,2.21-.09,2,1.41,3.28,2,4.88,2.09,5.4,7.05,8.28,10.29,12.62.57.76,1.7,1.47.79,2.51s-1.89.48-2.55-.37c-1.61-2.06-3.87-1.61-6-1.64-1.63,0-3.65-.39-4.08,1.85-.34,1.82.84,3.2,2.44,3.95,4.06,1.9,7.56,5,12,6,2.2.48,3.05,5.17,5.39,2.64,2-2.18-2.57-3.13-2.93-5.4-.24-1.49-3.17-2.29-1.49-4.17,1.34-1.48,3.56-1.24,5.15-.37,8.14,4.44,16.43,8.7,24.36,13.4,7.35,4.36,15,4.93,22.81,5.74,3.86.39,4.71-3.72,5.4-6.69.61-2.59-.28-4.65-3.72-4.16a1.9,1.9,0,0,1-2.09-1.75c-.23-1.32.44-2.08,1.6-2.76,3.2-1.88,6.67-1.79,10.17-1.79,1.8,0,4.27.26,4.27-2.24,0-3.73,2.5-5,5-6.71,4.37-3.08,3.22-7.6,2.38-11.82-.79-4-4.17-2.39-6.57-2.63-1.36-.14-3.66-.71-3.75,1.22s2.19,1.44,3.58,1.54,3.11-.1,3.73,1.76-.43,2.74-1.69,3.76c-3.28,2.63-5.5,6.15-7.72,9.66-.69,1.1-1.22,2.63-2.92,2.17-1.47-.4-1.64-1.95-2.13-3.17-.68-1.67.31-2.08,1.59-2.92,3.65-2.39,4.09-8.72,1-11.66a4.16,4.16,0,0,1-1.35-4.48c.6-2.06,2.42-1.93,4.1-2,3.43-.2,7,1,10.23-1.16.78-.51,1.47-.13,2.21.45,3.36,2.64,5.24.23,6.53-2.37a16,16,0,0,0,1.27-8.32,8.84,8.84,0,0,1,3.24-7.82c4.88-4.47,3.76-11.7-2.08-14.73-2.32-1.2-2.06-2.76-.86-3.9A11.23,11.23,0,0,0,376,564.8c.14-1,.76-2,2.05-1.61a2.12,2.12,0,0,1,1.37,2.4,8.13,8.13,0,0,1-.7,2.38c-.51,1.25-.56,2.39.94,2.81s1.75-.91,2.26-2c1.39-2.88,1.11-6-.84-8s-5.31-1.21-8-.28c-1.2.42-2.36,2-3.56.89C367,559,363.91,560.08,361,560c-3.5-.14-7,.07-10.49-.3a3.42,3.42,0,0,1-3.3-4.16c.41-2.41,2.19-2.81,4.18-2.11,4.66,1.64,9.58.74,14.36,1.55a15,15,0,0,0,8.66-1.43c2.33-1.16.79-4.28,1.08-6.51a8.28,8.28,0,0,1,.28-1.47c.29-.95.61-2.13,1.84-1.95.84.13,1,1.18,1.26,2,.58,1.64-1,5,2.14,4.53,2.67-.39,1.55-3.56,1.73-5.59a15.75,15.75,0,0,0-.05-3.5c-.69-5.42-3.82-7.13-8.75-4.76-1.33.64-2.44,1.82-4.06,1.71-7.13-.45-14.21-1.66-21.39-1.21-.8,0-1.83,0-1.74-1.19a1.53,1.53,0,0,1,1.85-1.27A17.31,17.31,0,0,1,352,535c6.14,1.78,11.91-.4,17.33-2.49,2.76-1.06,4.89-3.62,8.39-3.38,1.3.09,3.92-1.47,2.81-2.31-2.71-2,1.47-10.77-6.82-7.15-.41.18-1.39-.75-2-1.27a6.75,6.75,0,0,0-4.65-1.44q-17.62.06-35.25,0c-4.84,0-9.67,0-14.5-.11-1.24,0-3,.12-3-1.8a2.37,2.37,0,0,1,2.64-2.42c3.25,1,6.19-.89,9.31-.54a263.09,263.09,0,0,0,46.79,1c4.83-.32,5.93-1.55,4.71-6.13-1.29-4.9-3.55-6.27-8.77-5.17-1,.22-2,.47-2.8-.3-2.16-2.21-4.89-1.67-7.51-1.79-6.84-.3-13.57,1.91-20.38,1-7.22-1-14.52.19-21.15,1.83-11.18,2.76-20.07-.57-28.91-6.27-2.22-1.44-1.73-3.67-.06-4.47,3.86-1.84,3.19-5.33,4.26-8.64-4.1,1.74-8.55.23-12,3.34-1.2,1.08-3.3.34-4.56-.94-2.6-2.68-6.13-2.73-9.25-2.53-2.92.19-3.45-.55-4.26-3.14-1.89-6.09-5.32-10.79-12.33-12.25-6.13-1.27-11.53-4.85-15.91-9-5.86-5.56-10.8-12.11-15.88-18.44-8.25-10.27-17.87-18-31.54-19.76a74.92,74.92,0,0,1-18.17-4.72c-5.59-2.26-11.09-1.84-16.69-1.58a7,7,0,0,0-6.41,4.16c-1.73,4.62-4.43,3.51-7.48,1.85-6.78-3.7-12.3-1-12.66,7.07-.56,12.61-6,23.68-11.91,33.93-11.19,19.58-21.3,39.71-32.16,59.44-8,14.47-15.07,29.53-25.82,42.19-11.14,13.11-22.28,26.31-35.66,37.33-4.49,3.69-5.37,8.47-2.88,13.52,1.54,3.12,1.73,7-2,7.9-4.09,1-5.27,3.34-6.36,6.59s-2.31,5.94-1.23,9.58a21.07,21.07,0,0,0,16.06,14.9c9.36,2,18.36,5.65,28,6.38,7.68.57,14.51,4.8,22.25,5.35,10.82.77,21.17,3.68,31.56,6.72,20.72,6.06,39.65,16.07,58.73,25.75,3.9,2,7.59,4,12,4.31,1.38.09,2.45.24,3.56-1,5.87-6.34,5.91-6.3,11.59-.19.44.48,1,.85,1.48,1.32.71.7,2.74.51,1.84,2.26-.58,1.14-2,1.2-3.14.92-2.32-.56-4.57-.4-5.69,1.84-2.2,4.41-3.86,3.4-6.2,0-1.72-2.47-5.86-2.49-5.93-.09-.11,4-4.1,7.5-1.11,12,1.9,2.84-.63,6.17-1.48,8.95-.55,1.8-3.21-.88-4.95-1.41-2.32-.71-4,.34-5.3,1.87-1.45,1.7-1.5,4.17.09,5.46,2.74,2.21,4.26,6.77,9.24,5.32,2.1-.61,2.16,1.56,2.92,2.72,1.76,2.7,4.08,3.2,6.87,1.69,1.15-.63,2-2.86,3.6-.9a3.26,3.26,0,0,1,.22,3.78,2.53,2.53,0,0,1-3.88.77c-3.51-2.22-5.09.17-6.61,2.76-.59,1,0,2.85-1.93,2.93-1.22-.66-.64-1.8-.85-2.7-.86-3.65-1-8-6-8.5-4.77-.46-4.93,3.44-5.74,6.65-.18.74-.55,1.69-1.58,1.67s-1.2-1-1.29-1.79c-.21-1.84-.39-3.67-1.65-5.15-2-2.39-1.86-3.66,1.63-3.15,1.61.23,3.2.35,3.34-1.78.16-2.4-1.74-2.42-3.44-2.55a24.91,24.91,0,0,1-11.3-3.37c-2.84-1.7-6.82-2.67-9.47.75-3,3.93-2.47,12,1.24,13.63,5.88,2.57,8.19,8,11.72,12.49,1,1.28,1.6,3.35,3.71,2.42,3.69-1.62,3.59,1.16,3.67,3.16.12,3-.55,6-.3,8.91.66,7.84.91,15.46-2.17,23.06-1.84,4.55-4.08,9.06-4.73,14.09-.36,2.84-1.79,3.92-4.33,1.51a3.77,3.77,0,0,0-4.65-.53,124,124,0,0,1-18.28,8.81c-10.45,4-20.36,9.63-32.2,7.7a10.19,10.19,0,0,0-3.95.5,27,27,0,0,1-12.86.07c-6.77-1.57-13.5-.84-20.32-.69-12.6.27-25.29.53-37.53-3.64C9.64,822.34,5.43,821.14,1,822V12c3.78-.65,7.17-2.65,10.35-4.35C16.42,5,22.2,4.14,27,1H534c4,3.58,9.88,4.41,13.47,8.77.85,1,2.44,2.32,3.79.81s.19-3.09-1-4.28c-1.93-1.95-5-2.59-6.27-5.3h27c-1,3.62-4.55,5.79-5.6,9.24-.95,3.14-2.66,3.91-5.53,3.46-1.12-.17-2.36-.57-3,1.18.47.36.91,1,1.48,1.11,9,2.29,15.69,9,23.75,13.19,4.48,2.32,8.84,5.64,13.35,8.31,2.69,1.59,2.17,3,1.1,5.3-22.17,46.47-28.5,95-18.33,145.51a221.87,221.87,0,0,0,48.73,100.53c27.84,33,62.36,56.48,103.34,69.82,8.09,2.63,10.55,6.31,11,14,.56,11.1,2,22.16,3.13,33.23.13,1.23,0,3,1.74,3.1,1,.07,1.46-1.22,1.58-2.23,1.43-11.86,4.5-23.52,4.24-35.6-.17-7.81.3-8,8.11-7.68,3.55.16,4.56,1.72,4.24,5-1.51,15.71-2.41,31.47-4.75,47.1-1.31,8.74-2.49,17.57,1.72,26,2.35,4.68,6.33,6.73,11.37,5.87,15-2.54,22.12-12.34,20-27.35-3.25-23.11-12.51-44.31-21-65.74-.82-2.07-1.2-6.07-4-5.38-2.37.6-2.3,4.44-2.42,7.11-.07,1.78.58,4.36-1.65,4.7A16.28,16.28,0,0,1,753.9,359c-2.33-1.18-.32-3.31,0-4.86,1.41-6.14,4.47-11.9,4.67-18.31.14-4.69.88-8.79,6.17-10,4.7-1,9,.3,11.75,4.26a72,72,0,0,1,7.6,13.4c5.53,13.25,8.55,27.31,13.39,40.79,3.42,9.51,6.83,19.05,7.69,29.35.77,9.14,1.54,18.55-2.3,26.76C795.59,456,779.1,462,763.23,459.06c-7-1.3-11.38-6.57-16.91-11.48,0,21.81,0,42.71,0,63.61,0,6.83-.22,13.68.24,20.48.82,11.94,1.4,23.88,1.31,35.85-.12,15.5-1,31.07.35,46.46,1.19,13.77,2,27.53,2.19,41.31.06,4.94.87,9,3.68,12.9,3.33,4.61,5.74,9.95,10.7,13.82a54.73,54.73,0,0,0,2.73-16.11c.06-8.67.57-17.32,3.7-25.54a52.08,52.08,0,0,0,2.91-12c.89-6.73,4.67-9.22,11.16-7.24,7.45,2.27,10.12,8.79,12.87,15,5.43,12.18,8.73,25.14,13.31,37.64,4.81,13.15,9.58,26.33,7.94,40.72-1,8.86-3.59,16.91-11.93,21.83-3.17,1.88-3.83,4.68-1.55,7.55a53.51,53.51,0,0,1,5.95,9.8c7.67,15.68,15.11,31.48,22.86,47.12,1.38,2.79,2.33,6,5.36,8.88v-8.24q0-215.48,0-431c0-2.19-2-6.26,2.18-6.39,4.72-.15,2.68,4.2,2.68,6.51q.15,146,0,292Q845,778.26,845,894ZM427.8,438.27c-1.7.83-1.38,2-1.69,2.9-.38,1.07-.48,2.6-1.92,2.52-1.77-.1-1.81-1.74-1.78-3.06a23.61,23.61,0,0,1,.71-6.83c2.67-8.74,3.24-17.57-1.85-25.8-2.42-3.9-6.55-3.45-10.38-3.31a4.86,4.86,0,0,0-4.91,4.23c-.68,5.07-3.68,8.37-7.44,11.23-2.11,1.61-2.68,5.43-5.59,5.34-5.36-.18-8.67,3.69-13,5.48-8.43,3.5-15.89,8.7-23.61,13.42-11.89,7.27-22.12,16.79-33.08,25.31-1.89,1.47-4.07,2.63-5.73.64-1.89-2.26,1.23-2.82,2.29-4,1.35-1.47,3-2.67,4.27-4.2,8.81-10.55,19.55-18.87,30.49-27,6.86-5.11,14.62-8.55,22.08-12.49,5.26-2.78,12-1.13,17.53-4.48,1.77-1.08,3.23-1.55,2.71-3.8-.45-2-1.5-3.14-3.86-3-9.87.56-19.41,1.8-27.54,8.36-6.43,5.19-14.53,7.71-21,13.05-14.48,11.93-29.2,23.54-41.83,37.83-2.28-4.39,1.32-7,2.42-10a50.68,50.68,0,0,1,16.76-23c3-2.33,6.33-4.88,6.88-8.92,1.22-8.91.26-17.91.42-26.87a2,2,0,0,0-1-1.49c-.67-.32-1.19.29-1.52.9-2.17,4-7.12,5.28-9.19,9.47a2.84,2.84,0,0,1-3.58,1c-1.49-.55-1.82-1.87-1.72-3.27.22-3.26,3.15-6.39.5-9.85-.07-.09.79-1.29,1.23-1.29,2.78,0,4.87-2.23,7.51-2.38,8.58-.5,16.32-1.64,19.95-11.48,1.9-5.17-.74-12.7-6.31-12.27-8.37.65-16.91.61-25,3.79-3.56,1.4-5.64,3.17-5,7.29.32,2,.1,4.63-2,5.16-4.28,1.05-3.23,4.1-3,6.7.37,4.7,2.32,9.52-2.18,13.48a3,3,0,0,0-.32,2.82c1.9,3.48,1.63,7.59,3.42,11.06s-.71,7.79-4.46,7.65c-1.25,0-2.77-.77-1.95-2.09,3.37-5.4.6-10.92.68-16.37,0-2.14.71-4.57-.63-6.35-1.59-2.11-.49-6.57-4.38-6.38-3.6.18-3.41,4-4.05,6.58-.7,2.8-1.56,2.66-3.58,1.15-5.25-3.93-4.46-13.71,1.51-17.14,1.31-.76,2.23-.14,2.86,1,1.5,2.78,3.3,2.17,5.27.55a12.29,12.29,0,0,1,2.82-2c3.61-1.54,6.1-6.58,5.17-10.74-.87-3.86-5-7.46-8.91-6.78-4.82.83-4.8-.4-2.31-3.73.58-.78.7-1.9,1.26-2.7.87-1.26.62-4.67,3.25-2.92,2.08,1.39,6.59,1.33,5.26,5.93-.36,1.24-1.46,2.76.12,3.55a4.66,4.66,0,0,0,5.2-.51c5.41-4.94,11.57-8.9,17.26-13.44,6.77-5.39,14.22-9.64,21.48-14.2,2.19-1.37,4.77-.64,6.56.83s-.28,3-.71,4.47a19.47,19.47,0,0,1-4.68,7.54,57.27,57.27,0,0,0-6,8c-1.47,2.34-1,4.41,2.28,4.26,4.42-.22,4.53,2.17,3.76,5.41-.25,1-.92,2.23.71,3.38,1.65-1.67,2.25-3.29,1-5.58a7.23,7.23,0,0,1-.49-6.75,147.09,147.09,0,0,0,9.16-24.36c.43-1.59,1.43-3.05,3.49-3.07a2.18,2.18,0,0,0,2.25-1.6c2.67-8.31,7.74-15.79,8.42-24.78.18-2.48.07-5.06.73-7.42,4.14-14.72,3.38-28.76-4.39-42.33-12.06-21.09-30.24-31.09-54.31-30.93-4.24,0-7.23,1.21-6.51,6.4.15,1.07.71,3.11-1.28,3.07-1.53,0-1-1.81-1.07-2.87-.47-5.9-2.23-7.64-7.75-6.25-9.13,2.3-18.52,3.13-27.52,6.45-18.07,6.65-32.83,16.84-42.54,33.92-6.54,11.5-12.59,23.36-14.31,36.4-1.85,14.09-1.62,28.34,5.79,41.59A25.07,25.07,0,0,1,219,360.61c0,2.36.37,5.62,4.41,5.31a2.44,2.44,0,0,1,2.6,2c.72,6.24,5.88,11.34,4.51,18.13a30.51,30.51,0,0,0-.15,6c0,.82,0,1.86,1,2,1.53.26,1.16-1.12,1.51-2,1.53-3.77,1.13-7.9,2.62-11.78-2.35,6.16,6.73,12.5-.73,18.74,5,3.76,7.16,8.07,5.82,15.13-1.12,5.93-3,11.91-2.87,18.15.17,6.73,1.73,9.07,8.18,10.33,7.09,1.39,10.57,5.88,12.41,12.57a39.33,39.33,0,0,0,5.12,11.71c2,2.94,3.43,7.24,8.13,7.32,2.52.05,5,1,7.35,1,6.13-.06,12.51,1.91,18.26-2.46,2.55-1.93,4.77-1.4,4.12,2.89-.55,3.65,3.57,8.4,5.52,6.85,4.06-3.24,9.71-2,13.66-5.59,1.28-1.16,5.7-2.35,5.69,1.68,0,5.67,3.08,5.6,7.05,5.47,4.83-.17,9.71-.38,14.51,1.65-1.67,2.72-4,2.18-6,2.14-14.92-.29-29.91,1-44.73-1.88-1.52-.3-3.14-.49-3.87,1.28a4,4,0,0,0,.79,4.63c3,2.84,5.85,5.79,10.77,5,3.57-.55,7.28-.25,10.93-.24,14.81,0,29.62.12,44.42.14,1.62,0,3.4.2,4.32-1.74,1.52-3.2,3.19-3.81,5-.19.36.74.76,1.64,1.81,1.25a1.89,1.89,0,0,0,1.06-2.5c-.63-2-.69-4.55-3.66-4.63-4.42-.12-7.27-4.71-12-4.11-.85.1-1.8-1-1.74-2.14s1.08-1.68,2-1.92a20.73,20.73,0,0,1,4.41-.73c6-.25,9.46-3.35,11.89-8.74,2-4.5,5.39-8.38,7.79-12.74,4.29-7.79,12.83-13.3,12.47-23.64-.08-2.19,1.14-3.15,4-2.43,5.39,1.33,9.38,3.54,10.87,9.31.38,1.45,1.93,2.64,3.08,3.83a112.69,112.69,0,0,1,21.55,32.57c2.35,5.28,4.25,10.86,7.3,15.71,4.25,6.75,6.51,14.36,10.3,21.33,5.74,10.54,6.41,23.56,15.54,32.59a1.7,1.7,0,0,1,.19,1.41c-2,6.06.63,9,6.46,10,1,.18,2,.71,1.83,1.94a1.89,1.89,0,0,1-1.32,1.22c-4.22.38-3.89,4.49-5.65,6.86-.62.83-1.2,2.19-.21,3.21s2.18.62,3.3.23a26,26,0,0,1,10.23-1.73c2.16.14,4.67,1.29,4.75-2.23.06-2.53,1.38-6.09-3.37-6.21-1.38,0-3-.54-3-2.08.13-2.82-2.26-6.32,2-8.24,1.85-.83,1.16-2.56.61-3.94-3-7.53-5.51-15.35-9.3-22.48-6-11.27-12.85-22.1-19.44-33-4.12-6.85-8.4-13.71-10.26-21.48-1.32-5.53-5.67-8.84-7.84-13.61a1.11,1.11,0,0,0-1.62-.62c-6.41,2.9-4-4-3.72-4.37C434.62,446.91,428.69,443.15,427.8,438.27Zm41-321.47h-2.5c-5.83,0-6.34.63-5.56,6.39.36,2.63.89,5.26,1,7.91.23,4.67,0,9.36,4.68,12.39,1.55,1,1.27,2.95,1.33,4.61.26,7.49-.31,15.12,1,22.42,1.7,9.66-.66,19.38,1.43,28.92a3.68,3.68,0,0,1-.2,1.48,52,52,0,0,0-.62,15.93c.52,5.8,1.72,11.21,8.79,13.59A65.45,65.45,0,0,1,489.74,236c5,2.89,10.52,4.07,16.05,4.59a16.14,16.14,0,0,0,12.33-4.16,21.87,21.87,0,0,0,6.3-15.35c.23-12.54-3.44-23.58-12.66-32.38-1.87-1.78-2-3.33.19-4.26,9.31-4,9.81-11.74,8.65-20.07-1.9-13.7-9.34-24.29-19.17-33.49C492.22,122.22,481.43,117.35,468.77,116.8ZM62.65,238.28c-.4,4.61,1.4,9.92-4.09,12.54a44.37,44.37,0,0,1-13.71,4.5c-9.76,1.17-15-3.83-14-13.45a84.14,84.14,0,0,1,7.8-27.68c9-18.64,20.76-35.14,39-46a4.74,4.74,0,0,0,2.59-4.5c-.33-8.88,1.39-17.5,3.21-26.1.28-1.36.64-2.76-.85-3.53s-2.07.6-2.9,1.35a159.67,159.67,0,0,0-17.57,19c-9.12,11.28-16.34,23.81-23.66,36.28A207.86,207.86,0,0,0,21,230.29c-4.5,13.48-5.57,27.58-4.06,41.79.56,5.28,4.64,11,8.72,11.68,5,.85,10.12.77,14.68-1.55,9.92-5.06,20.59-7.48,31.42-9,4.27-.62,5.25-2.45,5.29-6.11.21-17,.56-34,.73-50.95.06-5.72,1.55-11.05,5.18-15.25,4.6-5.32,6-11.27,5.48-17.92-.13-1.58,1.43-4-1.15-4.69-2.3-.58-3.47,1.59-4.56,3.24C74.43,194,63.46,204.37,53.52,215.4c-7,7.73-8.53,15.46-9,24.56-.06,1.24-.57,2.91,1.17,3.42,1.57.46,2.3-1,3.17-1.95a72.46,72.46,0,0,1,5.72-6.27c2.22-2,3.73-6.59,7-5.14C64.09,231.15,62.15,235.53,62.65,238.28ZM455.9,158.72c-1.29-11.82-1.77-23.81-6.6-35-3.38-7.87-7.42-15.25-14.18-20.81a17.23,17.23,0,0,0-23.34,1.25c-9.41,9.52-11.17,21.87-13,34.22-.43,2.95-1.46,6.19-.72,8.89,3.07,11.23,1.48,23.15,5.87,34.26,3.22,8.16,6.67,16.07,12.44,22.58,4.12,4.65,9.83,8.12,16.19,7.56,6-.52,10.28-4.75,13.51-10C454.23,188.42,454,173.42,455.9,158.72ZM329.09,675.57c-.47,3.23-.24,6.43,2,8.57s1.07,6.74,4.77,7.71c4.22,1.1,5.18-3.51,7.76-5.29,12.11-8.33,25.32-14.29,38.67-20.35,17.34-7.87,34.76-15.86,51-25.94,8.3-5.16,17.53-8.75,25.09-15.16,3.88-3.29,7-7.42,11.88-9.68,1.88-.87,4.94-2.6,4.94-5.2,0-4.89,3.06-6.12,6.76-7.16,2.77-.77,5.36-3.09,4.9-5.39-1.25-6.21,2.77-5,5.8-4.58a5.18,5.18,0,0,0,6-3.24c1.63-3.47-1.68-8.44-5.21-9.86-3.78-1.52-8,1-11.29-1.56s-7.27-1.71-10.75-3.15c-1.56-.65-1.95,1.15-2.35,2.49a25.4,25.4,0,0,1-10.87,13.91c-3.89,2.54-7.79,5.06-11.53,7.82-12.67,9.36-25.57,18.36-39.42,25.9-14.21,7.74-26.66,18.62-42.16,24-5.92,2.07-10.18,6.94-16.1,8.9-5.54,1.83-10.43,4.78-15.35,7.92C329.8,668.71,328.32,671.45,329.09,675.57ZM145.2,194c0-2.41,0-3.41,0-4.41,0-2,.31-4.47-1.82-5.26-1.8-.66-2.53,1.75-3.65,2.86-6.76,6.65-13.42,13.4-20.22,20-3.12,3-5.91,2.61-6.14-.87-.38-5.82-.36-11.85,3.35-16.77s7.56-10.12,13-12.84c6.54-3.29,8.52-8.92,10.48-14.91a70.55,70.55,0,0,0,1.61-7.29c.36-1.64,2.25-3.73-.08-4.79-1.74-.8-3.12,1.24-4.43,2.53-5.69,5.59-11.48,11.07-17.15,16.68-1.18,1.16-1.92,2.8-4,2s-2-2.77-2-4.6c-.1-3.35,1.67-6.43,1.17-9.85-.66-4.52,1.52-7.65,5.24-9.94,7.06-4.35,13.71-9.38,21.24-13a5,5,0,0,0,2.95-3.78c1.1-6.71,2-13.44,3-20.17.15-1.11.37-2.51-1.06-3-1.14-.4-1.77.78-2.44,1.42-12.94,12.23-26.69,23.52-40.49,34.76-1.24,1-2.28,2.27-2.25,3.74.09,4.87-1.66,9.51-1.75,14.3-.4,19.93-.65,39.86-.9,59.79-.11,8.79-.31,17.57-2.49,26.16-.32,1.27-.51,2.75.83,3.65a2.67,2.67,0,0,0,3.24-.52c5-4.11,10.49-7.8,14.73-12.59,8-9,16.59-17.19,26.6-23.84,1.54-1,2.47-2,2.57-3.87C144.54,203.91,144.93,198.24,145.2,194Zm169.26-28.52c.81-3.44-2.06-6.07-2.5-9.36-1.57-11.85-4.09-23.55-6-35.34-2.37-14.4-4.13-28.92-5.73-43.43-.54-4.84-3.29-5.53-7.07-5.71-4-.19-6.38,1-7.56,5.38-1.63,6-1.05,12.49-3.62,18-3.14,6.71-3,14-4.89,21-2.17,7.86-4.68,15.79-6.35,23.86-3.14,15.23-10,29.39-12.93,44.68a6.42,6.42,0,0,1-1.37,3.12c-1.27,1.35-2.18,2.64-1,4.35a4.38,4.38,0,0,0,4.93,1.57c2.24-.53,4.3-1.76,6.75-1.58,4.47.32,6.71-2.32,7.72-6.24,1-3.69,1.35-7.56,2.63-11.11,1.14-3.14,2.09-7,6.39-7.48a14,14,0,0,0,6.86-2.39c3.77-2.55,6.39-1.36,7.8,2.9a48.65,48.65,0,0,1,2.32,14.72c0,1.27.13,3,1.55,3.44,1.74.56,2-1.38,2.7-2.38,2.06-3,4-6.12,6-9.18C312.79,171.56,314.94,169.1,314.46,165.45ZM182,200.6c0,1.65-.28,3,1.22,3.44a3.76,3.76,0,0,0,3.71-.82c3.07-2.55,6.15-5.06,9.21-7.62a5.84,5.84,0,0,0,2-4.45c.19-11.64,2.4-23.12,2.94-34.69.72-15.62.67-31.28.65-46.92,0-4.65,1.4-7.66,5.44-10.25,3.29-2.1,7.86-3.26,8.76-8.17.63-3.43,1.56-6.8,2.21-10.22.29-1.54,1.21-3.41-.62-4.58s-3.51.05-5.08,1C206,81,199.15,83.9,192.68,87.64c-9.58,5.52-19.94,9.55-30.31,13.42-2.19.82-3,2.39-3.83,4.66-2.69,7.29-2.17,15.07-4,22.47-.25,1-1.1,2.34.15,3.22s2.11-.35,3-1C165,125.25,172.25,120,179.64,115c2.12-1.44,4.48-3.36,7.34-1.94s1,4.19,1.13,6.31c.25,3.14,0,6.32,0,9.48.21,8.83.5,17.83-1.49,26.32C183.11,170.34,185,186,182,200.6Zm207.63-96.42c0-8-.05-13.54,0-19,0-2-.28-3.85-2.27-4.57-4.35-1.59-8.76-3-13.21-4.34-1.73-.5-3.87,0-3.15,2.37,2.4,7.85,1.52,16.12,3.64,24.07a160.32,160.32,0,0,1,4.19,25,198.92,198.92,0,0,1,.21,30.88c-.28,5.1-2.14,8.89-6.4,10.95-4.05,2-7.19-1.17-10.19-3.51-.89-.7-1.49-2-2.85-1.67-1.68.4-1.44,2-1.73,3.26-.77,3.24.6,6.78-1,9.85-2.51,4.73-2.26,9.93-2.89,15a4.49,4.49,0,0,0,.93,3.75c3,3.41,15.24,6.71,19.41,4.76,7-3.25,12.37-8.21,15.4-15.55,5.44-13.2,3.44-27,2.61-40.46C391.45,130.48,389.35,116.14,389.66,104.18ZM773.5,709.94a41.69,41.69,0,0,0,3.36,16.53c.76,1.88,1.84,3.57,3.88,4.31,6,2.19,19.42-3.21,22.5-9,3.66-6.9,4.23-14.21,2.53-21.7-4.32-19-12.16-36.79-19.94-54.56-.52-1.18-1.12-2.61-2.79-2.34-1.35.21-1.69,1.52-1.94,2.64a36.5,36.5,0,0,0-.65,4.42c-.74,7.92-1.26,15.86-2.2,23.75C776.82,686,775.09,697.94,773.5,709.94ZM565.69,789.68c1.82.3,2,1.25,1.83,2.31-.58,4.69,1.77,8.35,4.41,11.77,1,1.26,2.46,3.46,4.4,2.1,1.54-1.07.24-3-.21-4.58-1.85-6.51-5.67-12.24-7.11-19-.93-4.37-3.32-9-8.27-9.59-5.59-.69-12.2-4.55-16.56,2.95a3.33,3.33,0,0,1-2.66,1c-8.68-.84-14.8,4.55-19.55,10.06-7.29,8.46-8.41,18.61-2.35,28.76,4-4.21,4-4.2,7.45,1,1.6,2.4,4.49,4,6.7,3.31s3.29-3.83,2.88-6.65c-.18-1.28-1-3.1.85-3.25s1.57,1.73,1.28,3-.1,3.53,1.42,2.71c3.67-2,7.62-.3,11-1.43,3-1,7.52-2,7.87-5.93C559.68,801.34,565.91,796.73,565.69,789.68ZM544.52,154.11c-.5,1.91-1.12,3.13-1.09,4.33.27,12.49-2.83,24.65-3.53,37.05-.25,4.39-1.23,8.83-1.93,13.23-1,6-3,12.11-.67,18.2.65,1.74,1.37,4.27,3.59,4.27,1.8,0,1.74-2.55,2.56-3.92a19,19,0,0,0,1.73-4.13c3.69-11.86,7.55-23.67,10.87-35.63,1.21-4.38,2.51-9.33.29-13.7A127,127,0,0,0,544.52,154.11Zm1.26,106.38c.28-9.89-6.8-13.2-11.27-18.26-.78-.88-1.79,0-2.43.86-3.4,4.66-3.87,16.08-.6,20.73,2.37,3.38,5.11,6.5,7.65,9.76,1.74,2.24,3,1.65,3.87-.66A54.28,54.28,0,0,0,545.78,260.49Zm-8.57,567.68c8.26,1.89,30.2-7.61,32.91-15.85C560,821.05,547.76,822.62,537.21,828.17ZM266.5,634.76c-.85-1.62.09-5.2-3.42-5.14-3,0-3.8,3-4,5.45-.19,2.7,2.14,3.66,4.29,3.73S266.66,637.43,266.5,634.76Zm228.29-59.64a1.68,1.68,0,0,0,1.4-1.78c0-1.77.65-3.72-1-5.09a2,2,0,0,0-1.84-.13c-1.92,1.71.28,3.31.29,5A1.9,1.9,0,0,0,494.79,575.12Z" transform="translate(-1 -1)"/><path d="M889,254c-11.61-11.44-23.29-22.81-34.82-34.33-30.36-30.32-60.42-60.95-91.06-91-26.63-26.12-52.89-52.6-79.36-78.87-5.41-5.37-11.22-10.34-16.64-15.7-2.48-2.45-3.67-1.46-5.41.79C647.47,53.31,637.84,74,631.42,96.25c-7,24.37-8.34,49.2-4.83,74.19a179.8,179.8,0,0,0,31.45,80c19.14,27.05,43.64,47.78,74.05,61.3,2.13.95,4.23,1.95,6.32,3,1.89.93,4.29.68,6.3,2.85-5.61.77-5.39,4.73-5.47,8.73-.17,8.11-.69,16.21-.8,24.32,0,3.64-1.5,3.78-4.36,2.74a238.18,238.18,0,0,1-46.5-22.82c-25-15.87-45.36-36.39-62.19-60.39a208.46,208.46,0,0,1-32.67-73.76,244.84,244.84,0,0,1-5.41-34.89c-1.09-13.38-.29-26.61.5-39.84,1.14-19.05,6.76-37.18,13.06-55.14C609.4,42.21,623.57,21.27,639,1h55c-2.06,2.42-1.91,4.32.5,6.76q28.13,28.53,56.6,56.69c17,16.76,33.33,34.28,50.58,50.81,25.4,24.37,49.82,49.72,74.93,74.37,4,3.92,7.33,8.6,12.39,11.37Z" transform="translate(-1 -1)"/><path d="M889,195c-6.75-5.12-12-11.75-18-17.65q-24-23.65-47.89-47.52c-1.4-1.4-2.47-3.15-4-4.45-6.35-5.56-6.83-6.78-3-14.37,4.65-9.2,11.55-16.36,21.4-19.89,4.65-1.67,5.75-4.38,5.67-9-.34-19.3-.27-38.6-.49-57.9,0-3.23,1.61-3.39,4.08-3.38,8.48,0,17,0,25.43-.3,3.73-.15,4.87.93,4.85,4.71-.14,18.65.18,37.29-.06,55.94-.06,5.09.46,8.78,6.41,9.6,1.92.26,3.7,1.43,5.55,2.19Z" transform="translate(-1 -1)"/><path d="M889,284q-32.21,0-64.4-.05c-8.55,0-11.71-3.17-11.71-11.75q0-40.2.07-80.38c0-1.72-1-4.18.84-5,2-.94,2.94,1.61,4.13,2.8q33.68,33.62,67.28,67.3C886.37,258,887.73,259,889,260Z" transform="translate(-1 -1)"/><path d="M27,894c-1-7.79-3.55-14.31-12.76-15.23-1.17-.12-2.62-.29-2.38-1.87a7.7,7.7,0,0,1,1.56-3.58c1-1.23,2.41-.74,3.65-.09,3.83,2,6.23,5.73,9.79,8.07.86.57,1.42,2.32,2.75,1.09.92-.84.48-2.2.21-3.34-1.6-6.52-.21-7.94,5.07-11.76,9.1-6.59,20.17-7.35,30.09-11.4,2.91-1.18,6.71,0,9.88-.79,7.06-1.76,14-4.06,21-6.16,7.6-2.3,14.83-5.71,22.63-7.45,5.2-1.16,9.69-3.48,11.48-9.15.54-1.74,1.46-3.79,3.82-3,2.53.89,1.29,2.84.86,4.62-.87,3.61-2.56,6.85-4.07,10.18-4,8.84-4.19,18.43-5.3,27.8a19.18,19.18,0,0,0,3.94,14.1c1.83,2.41,1.53,5.42,2.82,7.93Z" transform="translate(-1 -1)"/><path d="M889,350a378,378,0,0,1-43.91,12.72c-3.77.83-5.18.37-5.11-3.7.14-9.14.32-18.3-.14-27.42-.24-4.75,1.75-6.44,5.89-7.26,12.27-2.44,23.94-6.75,35.55-11.29,2.57-1,4.62-3.4,7.72-3.05Z" transform="translate(-1 -1)"/><path d="M809,1c-2.62,8.54-8.61,15.24-12.62,23-4.17,8.11-9,15.9-13.77,23.7-1.38,2.27-1.09,3.82.38,5.82,4.19,5.69,3.76,11.92,1.16,18-1.35,3.17-3.59,6-5.44,8.91-1.13,1.82-2.22,2.77-4.22.73-6-6-12-12-18.07-17.91-1.64-1.6-1.75-3-.63-5.26,3.8-7.53,9.32-11.58,18-10,2.25.4,3.53-.65,4.54-2.25Q792.27,23.87,806.1,2c.13-.22-.06-.64-.1-1ZM778.19,72.54a6.15,6.15,0,0,0-4.88-3.4c-2.07-.24-3,1.67-2.72,3.34.35,2.37,2.54,3.62,4.59,3.82C777,76.48,777.71,74.54,778.19,72.54Z" transform="translate(-1 -1)"/><path d="M305,894c.5-5.64-3.46-9.27-6.23-13.35-1.57-2.31-3.34-4.34-2.95-7.55,4.47,4.27,11.25,5.92,13.25,12.7.73,2.48,2.78,2.86,4.8,2.21a2.64,2.64,0,0,0,1.17-4.17c-4.59-4.89-2.18-11.82-5.35-17.1-1.16-1.93.56-3,2.34-3.5a8.85,8.85,0,0,0,5.5-4c.91-1.43,2-2.9,4-2s4.58,1.8,4.67,4.64c.15,5.15.11,10.32.08,15.48,0,1.24-.54,2.51-1.91,2.53-7.18.11-5.79,5.35-5.85,9.67A35.4,35.4,0,0,0,319,894Z" transform="translate(-1 -1)"/><path d="M182,894a89.68,89.68,0,0,1-10.77-9.47c-1-1-1.87-1.91-1.62-3.41.13-.83.34-1.79,1.29-1.87a2,2,0,0,1,1.53,1c3.11,7.67,11.47,5.74,17.08,8.72,2.86,1.51,8.58-.71,13.05-.89,1,0,1.4-.71,1.32-1.7-.1-1.17-.94-1.62-1.81-2.17-1.65-1-4.09.06-5.84-2.61,4.44-1.23,8.56-1.74,12.49.26a21.06,21.06,0,0,0,6,2.31c5.76,1,9.74,4,11.29,9.87Z" transform="translate(-1 -1)"/><path d="M877,1c-.08,10.84-.08,10.84-11.18,10.84-5.8,0-11.61-.24-17.38.08-4.26.23-6.27-1-5.62-5.51A46.28,46.28,0,0,0,843,1Z" transform="translate(-1 -1)"/><path d="M608,1c.85.49,1.69,1,2.55,1.46,6.92,3.65,7.26,5.15,2.84,11.39-1.91,2.7-3.74,5.47-5.41,8.32-1.11,1.9-2.38,2.51-3.8.7a28.11,28.11,0,0,1-5.92-17c-.06-2.4,2-3.62,3.74-4.89Z" transform="translate(-1 -1)"/><path d="M390,894c-3.34-4.33-6.72-8.63-10-13-.68-.92-2.31-2-.85-3.39,1-1,2.36-.25,3.12.57,2.27,2.48,4.24.73,6.19-.32,5.24-2.82,6.4-1.92,9,3.29,2.07,4.2,4.59,8,3.54,12.88Z" transform="translate(-1 -1)"/><path d="M1,856c1.28,1,1.5,2.51,2.15,3.83,2.23,4.49,6.82,5.26,10.45,1.74.54-.52.68-1.77,1.7-1.17s.52,1.6.07,2.56A16.39,16.39,0,0,1,1,873Z" transform="translate(-1 -1)"/><path d="M149,894c-1.24-7.58-1.73-15.16-.09-22.75.29-1.36-1-3.9,2-3.47,2.57.36,1.35,2.19,1.23,3.84-.56,7.53-2.14,15.21,1.87,22.38Z" transform="translate(-1 -1)"/><path d="M369,894c2.47-1.76,3.25-3.6.51-5.89a16.85,16.85,0,0,1-2.48-3.06c-.94-1.29-3.91-2.11-1.91-4.17s3.91-.21,5.61,1.16c3.87,3.11,6,7.27,7.27,12Z" transform="translate(-1 -1)"/><path d="M329.39,781.51c.34-8.37-.21-16.67,5.09-24.32,2.16-3.12,1.83-8,2.58-12.05a2.84,2.84,0,0,0-.32-1.41c-.62-1.56-4.46-1.88-2.71-3.78s3.29-4.66,6.53-5a6.94,6.94,0,0,0,3-1.57c1-.71.52-3.13,2.33-2.65s1.42,2.76,1.21,3.91c-.44,2.4,2.87,8.28-4.65,5.38-2.3-.89-3.71,3-3.07,5,2.29,7,1.67,14.23,2.15,21.29.49,7.35-2.12,14.75-1.41,22.28a41.87,41.87,0,0,1,.08,5.49c-.14,4.28-2.89,8.94,4,11.45,2.74,1,4.55,5.35,1.56,9a3.4,3.4,0,0,0-.68,2.3c.95,8-.39,15.95-.58,23.92-.09,3.88.94,7.3,5,8.93,1.88.76,3.71,1.46,5.34-.73,1.94-2.63,2.41-.88,2.86,1.08,1.22,5.33-.09,7.15-5.6,7.55-1.16.09-2.48-.06-3.23,1-2.2,3-5.06,2.65-8.11,1.91-1.76-.42-3.32-.22-3.92,1.94-.39,1.38-.44,3.53-2.3,3.32s-3.79-1.63-4.05-3.33c-.69-4.33-4.23-7.13-5.36-11.14-1.18-4.22-7.11-4.49-7.73-9.21,0-.17-.66-.45-.85-.36-6.36,3.22-3.68-2.32-4.22-4.47-.77-3.07-1.27-6.21-3.55-8.65a6.56,6.56,0,0,1-1.29-7.88c4-7.47,5.46-15.92,9.47-23.36,2.36-4.37.55-8.82-.37-13.1-.6-2.85-1.34-5,2.7-5.08,2.4,0,2.38-1.88,2.38-3.59,0-5,0-10,.05-15,0-1.74.46-4,1.91-4.23,2.32-.32,2.07,2.49,2.12,3.75.25,7.17,2.36,14.13-2.52,21.38-2.34,3.48-1.65,10.36,0,15.5a40,40,0,0,1,.18,25c-1.1,3.5.2,7.77-3.57,10.42-.65.46-.46,1.68.31,2.2s1.48-.21,2-.86,1.64-1.45,1.78-2.29c1.81-10.63,7.19-20.42,7.39-31.42a9.06,9.06,0,0,1,2.44-6.39c3.47-3.45,3.72-7.64,3.4-12-.1-1.3-.07-2.89-1.52-3.45-1.7-.66-2.17,1.1-3,2S331,781.9,329.39,781.51Zm5.48,72.56c1.2-2.72.15-5.36,1.38-7.62,4.27-7.91,3-16.44,2.6-24.86-.08-1.48-.25-3.29-2.19-3.39s-2.5,1.75-2.47,3.15c.08,4.64-2.1,8.69-3,13C329.82,841.08,327.92,848.27,334.87,854.07Z" transform="translate(-1 -1)"/><path d="M171.15,424.91c13.41,4.5,27.85,6.71,37.21,19.54,4,5.56,9.52,10.08,14.4,15,.83.84,3.1,1,1.91,2.69-1,1.38-2.93.71-4-.34-3.68-3.53-8.61-4.82-12.78-7.43-6.4-4-13.92-3.93-20.73-6.39-8.28-3-15.87-6.66-20.32-14.85-1.14-2.08-2.56-4.13-1.54-6.48C166.42,424.06,168.87,424.92,171.15,424.91Z" transform="translate(-1 -1)"/><path d="M258.76,859.64c1.11.27,2.25.47,3.33.81,1.3.42,2.61,2.24,3.91.41a4.41,4.41,0,0,0-.09-5.18c-.93-1.34-2.19-3.15-3.54-3.38-7.21-1.2-12.87-7-20.54-6.76-1.78.06-3.43.2-4.65-1.92s-3.53-1.06-4.81.08c-2,1.79.7,2.45,1.46,3.33a39.29,39.29,0,0,0,4.8,4.29c.76.64,1.9,1.12,1.56,2.28a2,2,0,0,1-2.44,1.29c-5.12-2-11.32-1.5-15.21-6.21-1.32-1.6-2.88-2-4.64-2.55a19.54,19.54,0,0,1-4.61-1.8,2,2,0,0,1-.43-2.73c.9-1.34,1.74-.29,2.24.5,1.44,2.26,3.29,1.87,5.24.95,1.18-.55,2.83-.85,2.92-2.39.1-1.72-1.74-1.72-2.84-2.32s-3.12-.17-2.71-2.14c.33-1.65,2.14-1.24,3.39-1.45,1.85-.32,3.93-.27,5.32.82,4.27,3.32,10.28,2.68,14.31,6.62,1.16,1.13,3.42,1.59,5.17,1.58,6.2-.06,12.19.43,17.89,3.27,2.22,1.11,4.54,1.12,5.23-2.32.45-2.23,1.66-2.23,3-.48,1.5,2,3.23,3.82,4.53,5.92,1.75,2.83,3.45,5.27,7.42,4.57,1.81-.32,2.79,1.07,2.65,2.8s-1.66,2-3,1.75c-3.26-.58-6.52-1.23-9.73-2s-5.2-.66-4.56,3.63a18.18,18.18,0,0,0,2.31,7,3.16,3.16,0,0,1-.06,3.76c-1.33,1.6-2.23-.22-3.35-.64-4.92-1.83-8.11-6.37-13-8.16-.79-.29-1.65-.77-1.46-1.73s1.15-1.1,2-1.12,2,0,3,0Z" transform="translate(-1 -1)"/><path d="M324.5,735.75c-.52,1.66-1.7,1.5-2.59,1.79-2,.63-1.78,2.21-1.66,3.69.17,2.16,1.59,1.62,2.91,1.23.31-.1.77-.22,1-.07,1.48,1.06,5.1-.36,4.54,2.32a5.9,5.9,0,0,1-5.79,4.21c-1,0-2.34-1.62-2.63.33-.46,3.15-5.07,5.4-3.2,8.24s1.31,5.27.95,8a35,35,0,0,0,0,6.47c.1,2.2,1.82,6.14-3.44,4.37a1,1,0,0,0-1.36,1.06c.45,3.47-1.75,7.34.12,10.29,2,3.24.41,5.29-.31,8.12-2.43,9.56-9,17.74-9.15,28a3.31,3.31,0,0,1-3.77,3.24c-2.09-.28-1.35-2.39-1.23-3.72.78-8.82,3.79-17.15,6-25.63a136.85,136.85,0,0,0,3.82-27.49c.19-3.38.35-6.6,2.21-9.57,1.64-2.63,1.87-5.45,1.42-8.61-.9-6.41,0-12.36,6.46-15.92C320.57,735.12,322.34,734.22,324.5,735.75Z" transform="translate(-1 -1)"/><path d="M211,862c7.43-5.3,7.43-5.3,12.72-.47.48.44,1,1.34,1.42,1.27,6.19-1,11,3.87,16.83,4,4.89.08,8.17,3.23,12.17,5.08,8.88,4.1,16.24,10.23,23.75,16.25.91.73,2.17,1.34,1.82,2.68s-1.86,1.08-3,1.12c-5.28.16-9.41-2.93-13.71-5.22-3.76-2-7.12-4.74-11.7-4.48-1.2.06-1.92-.4-1.93-1.66,0-4.42-3.64-6.28-6.68-7a16.06,16.06,0,0,1-8.33-4.79c-.86-.88-2.45-1.91-3.43-1.69C223.65,868.76,218.89,862.42,211,862Z" transform="translate(-1 -1)"/><path d="M153.48,839.3A41.47,41.47,0,0,0,145,858.75c-.46,2.78-1.75,5-2.88,7.32-.7,1.44-.93,4.29-3.26,3.45-1.8-.65-1.57-3.28-1.09-4.95,1.5-5.21,3.25-10.33,4.39-15.66.54-2.53,1.91-4.64,1-7.6-.68-2.17,1.19-5.29,3.17-5.62,7.24-1.22,5.79-6.93,6.63-11.48a29,29,0,0,0,0-4.54c4.48,2.2,5.7,5.48,5.26,9.45-1.13,10.27.68,20.06,4.35,29.62.5,1.3,3.09,3,.64,4-2.26.94-3.24-1.19-4.35-3.43a37.18,37.18,0,0,1-4.21-17.58C154.68,841.19,154.13,840.6,153.48,839.3Z" transform="translate(-1 -1)"/><path d="M195.41,464.71c-.27,0-1.12.07-1.54-.3-3.62-3.21-5.61-2.26-7.14,2.16-.64,1.84-3,2-4.81,1.08s-3.14-2.12-1.86-4.35c.6-1,1.3-2.11.2-3.13a2.68,2.68,0,0,0-3.67.21c-4.18,4.48-6.46,3.72-10.37-1.19-2.68-3.37-2.4-8.15-6.36-10.78-.79-.53,2.17-4,3.7-5.76,1-1.14,3.07.47,3.66,1.6,3.2,6.05,11.14,5.58,14.81,11,.4.58,2.2.41,3.3.26,5.53-.78,9.21,4,14.24,4.75,1,.15,1,1.64.51,2.6C199.2,464.61,197.49,464.67,195.41,464.71Z" transform="translate(-1 -1)"/><path d="M303.19,853.69c-4.42-.89-7.09-3.19-10.71-2.69-1.76.25-3.2-1.45-2.78-3.81a49.23,49.23,0,0,0,.63-5.94c.07-1.15,0-2.71-1.5-2.68-1.71,0-1.9,1.61-1.74,3s.48,3,.78,4.42c.53,2.62-.32,5.2-2.81,5.49-2.3.28-2.3-2.76-3-4.53a4.69,4.69,0,0,1-.05-3.91c3.11-5.6,3.79-12.22,7.47-17.61,1.72-2.53,0-5.53.5-8.28s-.46-7.51,2.1-7.29c3.81.33,1.64,4.78,1.64,7.46,0,3.26.13,6.53-2.25,9.45-1.46,1.79-.22,4.2.79,6.12s2.89,1.72,4.41,1.12c3.91-1.55,3.69.93,3.65,3.42C300.26,842.71,299.86,848,303.19,853.69Z" transform="translate(-1 -1)"/><path d="M402.34,877.24c2-5.24-3.21-10.88,1.45-15.85.95-1-.9-1.71-1.9-2.26s-1.54-1.41-.81-2.45,1.68-.66,2.68-.32c7.67,2.56,12.07,7,14.54,15.53,1.76,6.05,3,7.76-4.15,7.68-2,0-2.33,2.46-1.81,4.42.68,2.63-.46,3.72-2.82,2.62C405.53,884.75,403.4,881.28,402.34,877.24Z" transform="translate(-1 -1)"/><path d="M260.83,568c.19,1.64-.24,3.07-1.84,3.72a6.53,6.53,0,0,0-4.42,5.5c-.14.94-.62,1.83-2,1.61-7.47-1.17-14.23,2-21.32,3.26-6.1,1.09-10.49,6.86-17.23,5.48-1.94-.4-2.73,1.52-4,2.44-2.81,2-7.18,3.7-9,1-2.18-3.29,3.05-3.54,4.84-5.31a3.74,3.74,0,0,1,2.68-1c7.44.79,13.64-3.64,20.61-4.76a3.32,3.32,0,0,0,2.85-1.79c3.23-8.36,11.14-6.73,17.44-7.55,3-.38,5.24,0,6.75-3.09a3.24,3.24,0,0,1,3.63-2C261,565.74,260.69,567,260.83,568Z" transform="translate(-1 -1)"/><path d="M307.39,577.3c4.56-1,8.27-1.34,12.61,1.07,4.82,2.69,10.55,4,16,5.17,7.6,1.66,14.85,4.75,22.63,5.55a5,5,0,0,1,4.66,3.75,1.91,1.91,0,0,1-1.08,2.45c-2.05,1.2-3.73.64-5.34-1s-4.14-1-6.19-1.2c-7.88-.65-15.24-3.37-22.43-6.12C321.33,584.33,313.49,583.43,307.39,577.3Z" transform="translate(-1 -1)"/><path d="M284.35,801.35c-2.55,8.45-.35,17.18-1.8,25.74-.77,4.54-5.46,4.15-7.37,7.13-.48.76-1.69-.69-1.9-1.62-.33-1.44-1.07-3.39-.45-4.35,4.24-6.53,1.59-14,3-20.85,1.23-6.17,4.37-11.85,4.44-18.28,0-.83.36-1.82,1.33-1.81,1.29,0,1.49,1.2,1.49,2.17A45,45,0,0,0,284.35,801.35Z" transform="translate(-1 -1)"/><path d="M240.79,507.7c-7.31,2.59-13.33-2.71-20.17-3.06-1.08-.05-2.62-.35-2.61-1.79s1.62-1.46,2.67-1.58c3.45-.39,6.92-.65,10.38-.91,1-.08,2.26.39,2.94-.07,6.21-4.21,13.51-1.65,20.14-3.34a4.43,4.43,0,0,0,3.37-3c.71-1.64,1.4-3.47,3.61-3.59.28,0,.91.7.85.95-.48,2,.44,5-1.57,6-5,2.52-8.46,6.84-12.91,9.93C245.34,508.66,243,507.93,240.79,507.7Z" transform="translate(-1 -1)"/><path d="M25.15,865.51a14.25,14.25,0,0,1,6-10.79c8.49-6.59,18.55-8.24,28.64-10.07,2.61-.47,4.41,1.14,6.55,1.88.77.27,1.74.54,1.72,1.53,0,1.35-1.29,1.27-2.18,1.55-5.54,1.69-11.25,2.6-16.8,4.44C40.73,856.8,33.54,861.72,25.15,865.51Z" transform="translate(-1 -1)"/><path d="M284.47,667.24c5.52,0,5.7.2,4.33,6a3.21,3.21,0,0,0,.71,2.73c.22.35-5.21,12.89-5.59,13-2.5.47-4-1.4-5.64-2.65a8.15,8.15,0,0,1-2.25-2.6c-1.37-2.51-6.35-3.55-5.24-6,1.69-3.7,5.37-6.53,8.41-9.52C280.57,666.84,282.66,667.29,284.47,667.24Z" transform="translate(-1 -1)"/><path d="M132,669.1c-1.13,2.06-3,2.64-4.66,1.67-8-4.52-17.1-6-25.26-10-2.51-1.23-5.34-1.8-7.94-2.89-2-.84-3.5-2.82-2.74-4.75,1-2.7,3-.2,4.6-.05,7,.69,12.71,5.11,19.83,6,5.7.75,10.83,4.79,15.3,8.88A8.62,8.62,0,0,1,132,669.1Z" transform="translate(-1 -1)"/><path d="M279.12,553c-.32-5.31,1.42-10.5.74-15.86-.27-2.17,1.59-3.19,3.61-3.29a9.48,9.48,0,0,1,5.27,1.2c4.05,2.34,8.25,4.17,13.06,4.21,1.27,0,3.09,0,2.89,1.84-.18,1.61-1.7,1.47-3.16,1.42-5.47-.16-10.74.73-16-3-3-2.18-3.52,2.48-2.76,4.16a11.39,11.39,0,0,1,0,10.24c-.79,1.73.15,3.57,1.31,5.09,1,1.25,1.78,2.53.4,4a3.45,3.45,0,0,1-4.11.84c-1.67-.74-1.73-2.33-1.41-3.85A23.76,23.76,0,0,0,279.12,553Z" transform="translate(-1 -1)"/><path d="M238.93,814.93c2.65,4.34,5.39,8,6.88,12.41.53,1.56,1,3.36-.42,4.68-1.66,1.53-3.47.77-5-.35-4.66-3.38-9.65-6.44-12.95-11.34-1.23-1.82-3.13-4.12-.12-5.88,2.26-1.31,4.58-2.41,6.13,1.67C235.42,821.32,237.31,817.45,238.93,814.93Z" transform="translate(-1 -1)"/><path d="M243.43,607c3.59-1.08,7.31-1.78,9-6,.94-2.39,3.4-2,5.21-1.37,2.88,1,5.6,1.78,8.7,1,1.69-.43,3.64.21,3.49,2.38s-1.91,3.56-3.86,2.71c-5.93-2.56-9.89.08-13.77,4.18-1.46,1.54-1.11,2.7-.89,4.4.49,3.83-1.34,5.75-6.14,5.6,2.28-2.48,2.55-5,2.78-7.53.3-3.41-3.47-3.22-4.46-5.43Z" transform="translate(-1 -1)"/><path d="M208.63,602.6c6.58-.88,10.48-5.11,16.21-6.3,4.22-.87,8.43-3.34,12.81-4.73,1.67-.53,3.14-1,4.73-.08,1,.58,2.36.9,2.3,2.3s-1.44,1.68-2.54,1.94c-6.18,1.46-11.52,5.86-18.39,5.09-1.7-.2-3.33,1.22-4.9,2.2C215.93,604.84,212.84,605.27,208.63,602.6Z" transform="translate(-1 -1)"/><path d="M263.67,681.32c-.61-.89-1-1.57-1.52-2.18-.75-.92-1.69-1.81-2.94-1.52-1.57.36-1.09,1.77-1.09,2.89s0,2.57-1.63,2.54-2.27-1.16-1.89-2.75c.22-.95.75-1.94-.47-2.6-1.64-.89-3.66-1.86-2.85-4a10.7,10.7,0,0,1,5.87-5.76c1.87-.87,3.91-.63,5.89-.57,1.68,0,3.63,0,4.54,1.51,1.23,2-1,2.8-2.05,3.95a4.48,4.48,0,0,0-1.29,4.09A4.85,4.85,0,0,1,263.67,681.32Z" transform="translate(-1 -1)"/><path d="M296.59,617.2c-6.14-.81-10.83-5.49-15.6-10a2.77,2.77,0,0,1-.2-2.32c.41-1.21,1.51-1,2.51-.72,4.3,1.06,7.52,4.07,11.11,6.35,1.46.93,2.51,2.52,4.38,3,1.17.32,2.21,1.06,1.8,2.5C300.12,617.67,298.84,617.83,296.59,617.2Z" transform="translate(-1 -1)"/><path d="M179.23,860.24c.8.71,1.52,1.37,2.27,2,3.52,3,7.25,5.1,12.18,4.67,3-.27,5.63,3.64,4.72,6.42a2,2,0,0,1-2.82,1.31c-6.49-2.44-13.15-4.68-17.07-11.1-.51-.84-1.33-1.61-.61-2.65C178.12,860.57,178.7,860.49,179.23,860.24Z" transform="translate(-1 -1)"/><path d="M167,624.24c-2.65,0-5.3-.31-7.89.7-1.16.45-2.38.48-2.75-1.09a1.77,1.77,0,0,1,1.56-2.18c5.84-.9,11.35-2.94,17-4.58,1.42-.42,4.29.42,4.08,1.78a6.15,6.15,0,0,1-5,5.3A44.72,44.72,0,0,1,167,624.24Z" transform="translate(-1 -1)"/><path d="M316,612.82c4.15,2.46,9.74,3.23,14.12,6.6a12.89,12.89,0,0,0,3.74,2.37c1.14.38,3.21.28,2.49,2.21-.57,1.53-2.45,1.73-3.93,1.15-3.23-1.24-6.71-2.22-9.49-4.16-2.94-2-5.22-4.94-9.23-5-.87,0-1.31-1-.94-1.93C313.18,612.86,314.28,613,316,612.82Z" transform="translate(-1 -1)"/><path d="M197.28,556.25c-.93,2-2.26,1.45-3.27,1.4-7.16-.34-14.24.62-21.32,1.34a5.5,5.5,0,0,1-1.48.16c-2-.42-5.49-.25-5.44-2.28.07-2.86,3.41-1.7,5.31-1.65C179.73,555.43,188.37,555.88,197.28,556.25Z" transform="translate(-1 -1)"/><path d="M168.6,765.75c-2,4-2.29,9-3.44,13.83-.2.82-.7,1.6-1.66,1.61a1.53,1.53,0,0,1-1.52-1.65c.35-5.77.74-11.55,1.28-17.31a1.79,1.79,0,0,1,2.61-1.49C168,761.44,168.44,763.15,168.6,765.75Z" transform="translate(-1 -1)"/><path d="M312.14,705c-.06-1.88-.14-3.37,1.46-3.83s1.93.9,2.16,2c.59,2.94,2.15,3.82,5,2.73a2.63,2.63,0,0,1,3.21.55c.6.84-.28,1.44-.78,2.07-1.66,2-1.15,6.78-5.68,5.21C313.34,712.37,313.12,708.08,312.14,705Z" transform="translate(-1 -1)"/><path d="M164.25,423.67c-4.37,2.08-8.7,3.08-9.59,7.86,0,.17-1.18.35-1.23.25-1.4-2.93-3.82-5.94-3.24-9,.5-2.62,3.65-2.9,6.29-1.92C158.76,421.66,161,422.49,164.25,423.67Z" transform="translate(-1 -1)"/><path d="M219.87,490.63c-6,.87-12,1.08-17.8,2.83-1.34.4-4.38-.39-4-3.21.34-2.51,2.87-2.37,4.39-1.9C208.15,490.11,214.24,487.79,219.87,490.63Z" transform="translate(-1 -1)"/><path d="M298,601.87c3.3,0,12.47,6.44,13.12,8.86.51,1.87-.89,1.79-2,1.78-3.63,0-10.67-5.26-11.94-8.56C296.52,602.28,297.06,601.87,298,601.87Z" transform="translate(-1 -1)"/><path d="M40.7,605.4c.15-2.68.31-5.69,4.13-6,2.5-.21,3.46,1.64,3.65,3.82s-4,9-5.13,8.44C41,610.44,40.84,608,40.7,605.4Z" transform="translate(-1 -1)"/><path d="M209.43,697.5c4,5.59,3.55,11.64,1.8,17.81-.35,1.22-1.06,2.12-2.51,1.72-1.08-.29-2.51-.26-2.92-1.54-.49-1.54,1.16-1.65,1.93-2.39,2.11-2,1.82-4.77,1.65-7.33-.18-2.79-.87-5.56.12-8.34Z" transform="translate(-1 -1)"/><path d="M306.53,529.87c-2.07-.24-4.52-.51-7-.81-1-.13-2.13-.51-2.12-1.66,0-1.62,1.42-1.4,2.57-1.52,5.44-.57,10.76,1.66,16.22.76.61-.1,1.4,0,1.52.86.17,1-.62,1.5-1.45,1.58C313.19,529.39,310.06,529.59,306.53,529.87Z" transform="translate(-1 -1)"/><path d="M201.37,836.59c-.06,1.27.38,2.84-.88,3.67s-2.55-.22-3.59-1c-2.23-1.6-4.42-2.55-7.29-1.57-1.11.38-3.06-.16-3-1.83.14-1.89,1.93-1.62,3.12-1.08,2.72,1.25,4.85-.33,7.06-1.28C200.06,832.16,201.64,832.9,201.37,836.59Z" transform="translate(-1 -1)"/><path d="M261.33,586.18c-2.24,1.73-4,3.51-6.13,4.63-1.95,1-4,3.12-6.39,1.84-1.91-1-1.33-3.2-.63-4.94s1.78-1.79,3-.5c2.4,2.47,3.59,1.4,4.36-1.41a2.35,2.35,0,0,1,3.12-1.71C259.24,584.22,259.66,584.82,261.33,586.18Z" transform="translate(-1 -1)"/><path d="M217.93,510.89c-3.4,1.67-6.23,3.71-9.18-.35-1.73-2.37-5.09-1.85-7.52-3.39C204.93,504.88,204.93,504.88,217.93,510.89Z" transform="translate(-1 -1)"/><path d="M367,592.4c-.54-.31-1.35-.51-1.53-1a1.83,1.83,0,0,1,.45-1.72c3.38-1.74,3.38-3.91,1.4-6.84-.84-1.25.2-2.53,1.46-3.27A2.3,2.3,0,0,1,372,580c2.82,3.26-1.25,6.13-.6,9.49C371.75,591.42,368.56,591.15,367,592.4Z" transform="translate(-1 -1)"/><path d="M183.71,569.43c5.59-2.32,11.16-.79,16.37-2a1.46,1.46,0,0,1,1.67,1.43c0,1-.89,1.22-1.7,1.44C194.71,571.69,189.42,572.29,183.71,569.43Z" transform="translate(-1 -1)"/><path d="M178.37,825.05c1.74,2.37,4.78,1.61,7.17,2.56,1.37.55.9,3-.69,4.14-2.21,1.52-4.65,2.07-6.59-.3a6.72,6.72,0,0,1-1.46-5.08C176.9,825.65,177.36,825.24,178.37,825.05Z" transform="translate(-1 -1)"/><path d="M188.82,499.74c-.09,2.87-.07,5.35-3.4,5.34-1.67,0-3.13-1-2.77-2.68.47-2.21.18-5.38,3.36-5.79C188.28,496.32,189.05,498.12,188.82,499.74Z" transform="translate(-1 -1)"/><path d="M285.45,577.72c.17,1.21-.31,1.69-.92,1.92a2.83,2.83,0,0,1-3.24-.46,35.31,35.31,0,0,1-3.68-5.75c-.47-.92.29-1.87,1.25-2.39s2.13-.84,2.7.07C283,573.39,282.94,576.49,285.45,577.72Z" transform="translate(-1 -1)"/><path d="M454,807.09a16.12,16.12,0,0,1-14.35.45C444.17,804.64,450.19,804.37,454,807.09Z" transform="translate(-1 -1)"/><path d="M257.83,529.51c-.48-.09-1-.15-1.44-.28-2-.54-4.46.74-5.87-1.54-.53-.85.37-1.54,1.12-1.81a11.5,11.5,0,0,1,9,.36,1.54,1.54,0,0,1,.63,2.13C260.51,529.89,259.14,529.63,257.83,529.51Z" transform="translate(-1 -1)"/><path d="M333.65,880.66c1.49,0,3,0,4.48,0,1.18,0,2.65.09,2.56,1.62-.07,1.3-1.48,1.83-2.65,1.81-2.81-.06-5.62-.3-8.43-.51-1.15-.09-2.63-.09-2.59-1.65s1.49-1.38,2.64-1.35c1.33,0,2.66,0,4,0Z" transform="translate(-1 -1)"/><path d="M422.3,811.34c-5.62,2.85-10.35,1.1-15.09-.08C411.9,810.45,416.55,808.71,422.3,811.34Z" transform="translate(-1 -1)"/><path d="M363.6,606.9c-2.47-5,1.56-7.55,1.58-10.95,0-.76,1.33-.77,2.1-.25,1.74,1.16,1.63,2.86,1,4.44C367.24,602.46,364.47,603.39,363.6,606.9Z" transform="translate(-1 -1)"/><path d="M240.75,486.4c3.24-.79,5.87-1.46,8.51-2.08,1.25-.29,2.42,0,2.79,1.32a2.11,2.11,0,0,1-1.41,2.36C247.26,489.69,244.15,489.31,240.75,486.4Z" transform="translate(-1 -1)"/><path d="M230.37,695.08c.12-1.26-.21-3.68,2-3.3,1.45.24,4.08.64,4.18,3.24s-2.19,3.06-4,3.33C230.43,698.66,230.3,697,230.37,695.08Z" transform="translate(-1 -1)"/><path d="M216.12,565.64c-3.78,2.28-8.18.55-12.21,1.28-.18,0-.74-.69-.7-1a1.91,1.91,0,0,1,2.11-1.64c3.55-.06,7.1,0,10.64,0Z" transform="translate(-1 -1)"/><path d="M230,703.5c-.34,1.37,0,3.64-2.14,3.15a5,5,0,0,1-4-4.5c0-2,1.85-2.93,3.49-2.82C229.72,699.49,229.6,701.79,230,703.5Z" transform="translate(-1 -1)"/><path d="M349.22,572.72c4.36-1.44,7.73-1,11.06-.61,1,.12,2.05.63,2,1.81s-1.3,1.35-2.25,1.43A15.2,15.2,0,0,1,349.22,572.72Z" transform="translate(-1 -1)"/><path d="M57.94,583.24c-2-3.16-2-5.54-.33-7.58,1-1.22,2.17-3.91,4.12-2.45,2.1,1.58-.79,2.49-1.41,3.76C59.48,578.66,59,580.5,57.94,583.24Z" transform="translate(-1 -1)"/><path d="M284.76,517.76c1.68,2.58,2.74,5.4,6.72,5-2.43,1.41-5.05,3.42-7,2S283.89,520.22,284.76,517.76Z" transform="translate(-1 -1)"/><path d="M74,844.74a31.62,31.62,0,0,1,15-.18C84,846.24,79,845.83,74,844.74Z" transform="translate(-1 -1)"/><path d="M232.41,542.72c1.39.35,3.58-1.78,4,1.07.29,2.11-1.46,2.93-3.25,2.7-2.08-.27-5.56.9-5.67-2.13C227.39,542,230.64,543.08,232.41,542.72Z" transform="translate(-1 -1)"/><path d="M223.79,562.47c-1.3-.14-3.54.93-3.38-.74.26-2.68,3.1-2.33,5.09-2.28,1.53,0,4.64-.93,4.16,1.46C229.14,563.52,225.8,562.17,223.79,562.47Z" transform="translate(-1 -1)"/><path d="M256.66,815.08c5.66,4.79,5.66,4.8,3.72,9.72C258.14,821.76,257.42,818.41,256.66,815.08Z" transform="translate(-1 -1)"/><path d="M335.08,651.64c-1.78-.14-2.73-1.12-2.58-2.6.25-2.49,2.28-3,4.35-3.16,1.21-.11,2.63,0,2.44,1.64C339,650,337,651,335.08,651.64Z" transform="translate(-1 -1)"/><path d="M342.22,532.15c-3.83,1.05-7.64,1.87-12.17-.42A13.54,13.54,0,0,1,342.22,532.15Z" transform="translate(-1 -1)"/><path d="M338,607.15c2.77-1,5.4-3.18,8.31-.88.66.52.89,1.82.1,2.17C343.44,609.75,340.69,608.4,338,607.15Z" transform="translate(-1 -1)"/><path d="M253.7,517c-1.37-.36-3.68,0-3.46-1.9.27-2.39,2.8-1.73,4.49-1.88s3.42.18,3.08,2.2C257.43,517.77,255.16,516.68,253.7,517Z" transform="translate(-1 -1)"/><path d="M73.59,650.68c-1.69-.47-4.46.13-4.84-2.17-.33-2,2.08-1.48,3.38-1.48,1.69,0,4-.49,4.36,2C76.76,650.86,75,650.74,73.59,650.68Z" transform="translate(-1 -1)"/><path d="M193,728.91c1.84.64,1.75,2.19,1.57,3.63-.15,1.26-.36,3-2.25,2.38-1.49-.47-3.5-1.27-3.13-3.19C189.53,730.1,191.38,729.43,193,728.91Z" transform="translate(-1 -1)"/><path d="M276.38,598.65c-.38,1.88.57,4.82-2.14,4.82-2.54,0-1.33-2.82-1.53-4.4-.23-1.79-.11-4.44,1.82-4.55C277.12,594.38,276,597.14,276.38,598.65Z" transform="translate(-1 -1)"/><path d="M287,565.17c.15-.32.21-.93.53-1.13,1.47-.95,2.84,0,4.17.47a3,3,0,0,1,1.86,4.38c-1.49,2.66-2.14-.47-3.16-.91C289.08,567.42,287.62,566.88,287,565.17Z" transform="translate(-1 -1)"/><path d="M222.34,718.17c-.19,1.38.35,3.22-1.87,3.33-1.4.08-2.92-.64-2.78-2.09.17-1.7,1.28-3.61,3-4C222.59,715,222.1,717,222.34,718.17Z" transform="translate(-1 -1)"/><path d="M278.49,527.64c-2.43-3.52-1.65-7.14-.55-10.78C279.92,520.34,279,524,278.49,527.64Z" transform="translate(-1 -1)"/><path d="M141,672c1.53.33,3.78-.13,4.2,2.17.19,1-1.35,1.5-2.26,1-1.62-.82-4.42.56-4.88-2C137.86,672,139.78,672.14,141,672Z" transform="translate(-1 -1)"/><path d="M240.08,710.66c-.1,1.43-.58,2.72-2.28,2.39-1.36-.26-3.4-.76-3.15-2.39s2.17-2.39,3.79-2.49S239.89,709.58,240.08,710.66Z" transform="translate(-1 -1)"/><path d="M275.61,585.2c-.19,1.11-.35,2.45-1.69,2-2.05-.7-2.83-2.73-3.39-4.61-.25-.83.75-1.45,1.7-1.16A4.56,4.56,0,0,1,275.61,585.2Z" transform="translate(-1 -1)"/><path d="M191.59,593.05c1.41,0,2.23,0,3,0s2.18-.16,2,1.33c-.12,1-1.16,1-2,1.05a6.82,6.82,0,0,1-2.43,0c-1.66-.5-4.79,1.14-4.7-1.56C187.61,591.84,190.55,593.23,191.59,593.05Z" transform="translate(-1 -1)"/><path d="M236.8,469.22a2.21,2.21,0,0,1-2.52,2.18c-1.65,0-3.35-.42-3.73-2.4a1.16,1.16,0,0,1,1.56-1.29C233.68,468.23,235.63,467.93,236.8,469.22Z" transform="translate(-1 -1)"/><path d="M173.09,540c1.76.64,2.85,2.58,4,4.28.47.71-.73,1.3-1.61,1.15-2.33-.42-3.59-2.18-4.43-4.13C170.71,540.58,171.67,539.92,173.09,540Z" transform="translate(-1 -1)"/><path d="M201.25,514c1.21.27,3.28-.49,3.12,1.41s-2.23,1.7-3.67,1.53c-1.21-.15-3.26-.1-3.09-1.71C197.84,513,200,514.28,201.25,514Z" transform="translate(-1 -1)"/><path d="M338.63,866.93c1.21.6,3.35.36,3.38,2.57,0,1.37-1.35,1.71-2.51,1.83-1.7.17-2.92-.51-3.12-2.31C336.22,867.61,337.07,867,338.63,866.93Z" transform="translate(-1 -1)"/><path d="M276.32,567.89c-.12,1.4.05,3.17-2.16,3.09-1.1,0-2.85-.34-2.59-1.67a5.16,5.16,0,0,1,3.46-3.76C276.12,565.23,276.22,566.82,276.32,567.89Z" transform="translate(-1 -1)"/><path d="M247.31,540.2c-2.78,2-4.85,1.94-6.89,1.11-.55-.22-.57-1.17.05-1.68C242.67,537.8,244.57,539,247.31,540.2Z" transform="translate(-1 -1)"/><path d="M238.37,557c-.67,1.46-2.19,1.74-3.52,2.08a1.86,1.86,0,0,1-2.5-1.61c.1-1.76,1.8-2.11,3.28-2.14A2.43,2.43,0,0,1,238.37,557Z" transform="translate(-1 -1)"/><path d="M747.39,123.19c1.32-.23,2.74-.62,3.43,1,.61,1.43-.35,2.49-1.06,3.63-9.66,15.52-19.24,31.08-29,46.55-1.6,2.54-1.88,4.37.67,6.33,3.47,2.66,3.24,6.15,1.11,9.32-2.33,3.46-5.93,3.06-9.46,2-3-.93-5.3-5.5-8.69-3.3-2.4,1.56-3.47,5.15-5.16,7.82-2,3.23-4.2,6.39-6.18,9.67-2.95,4.9-2.78,5.91,2.35,8.39,3.77,1.82,5.68,4.45,5.49,8.59-.21,4.45-3.38,7-7.75,6.06a15,15,0,0,1-4.65-1.76c-9.64-5.9-19.27-11.83-28.81-17.9-4.42-2.8-5.08-5.54-2.79-9.53,2.17-3.77,6-4.73,10.29-2.58,8.4,4.2,8.35,4.17,13.08-4,2.33-4,4.86-7.94,7.37-11.86,1.78-2.78,1.57-4.92-1.63-6.43-1-.5-2-1.23-3-1.82-3.87-2.27-5.35-5.64-3.56-9.73s5.27-4.92,9.19-3.19c3,1.32,4.27-.4,5.57-2.5,6.6-10.56,13.27-21.08,19.8-31.69,4.28-6.93,8.41-14,12.52-21,1.61-2.76,3.25-2.92,5.43-.65,3,3.12,6.09,6.14,9.18,9.17a3.62,3.62,0,0,1,1.27,3.52C741.57,122.09,742.76,123.42,747.39,123.19ZM744,127.94c-.2-2.66-2.48-3.28-4.47-3.64s-3.15,1.43-3.2,3c-.08,2.72,2.42,3.35,4.42,3.65C742.57,131.26,743.82,130,744,127.94Zm-28,42.81c2.12-.15,3.61-1.42,3.53-3.07-.12-2.5-2.59-3.36-4.61-3.74s-3.11,1.56-2.87,3.18A4.17,4.17,0,0,0,716,170.75ZM725,148c-2.21.15-3.33,1.56-3.08,3.3a4.33,4.33,0,0,0,4.26,3.56,2.88,2.88,0,0,0,2.89-3.37C728.87,149.22,727.08,148.21,725,148Zm14-12.29c-.37-2.36-2.24-3.15-4.27-3.33a2.37,2.37,0,0,0-2.68,2.83,4.32,4.32,0,0,0,3.94,3.93C738.09,139.45,738.56,137.46,739,135.69Zm-4.88,7.81a4.91,4.91,0,0,0-4.52-3.2,2.68,2.68,0,0,0-3,2.66c0,2.65,2.26,3.57,4.35,3.84S733.31,144.91,734.14,143.5ZM719.9,155.94c-1.75.39-3.08,1.37-2.72,3a4.57,4.57,0,0,0,4.64,3.65c1.73,0,2.59-1.61,2.29-3.2C723.7,157.18,721.67,156.59,719.9,155.94Z" transform="translate(-1 -1)"/><path d="M813.28,568.38a37.17,37.17,0,0,1-6.89,23.56c-5,7-12.83,10.35-21.21,11.92a31.72,31.72,0,0,1-20-2.36c-8.51-4.11-11.07-12-11.65-20.64-1-14.37,1.88-28.38,4.69-42.34,1.73-8.57.82-17.24,1.92-25.84a75.09,75.09,0,0,1,3.46-15c1.28-3.77,2.78-7.47,3-11.53s.68-7.77,5.39-9.06c3.8-1.05,9.83,1.24,12.47,4.51,5.88,7.29,8.87,15.93,11.47,24.69,4.16,14,9.46,27.62,13.77,41.55C811.77,554.48,813.34,561.34,813.28,568.38Zm-14.16-.08a42.38,42.38,0,0,0-.72-10.09c-3.71-17.35-11.13-33.42-17.17-50-.91-2.49-2.09-4.89-3.18-7.31-.52-1.16-1.36-2-2.72-1.68-1.2.25-1.34,1.32-1.49,2.32-.72,4.91-1.88,9.81-2.08,14.74-.61,15.14-2.81,30.09-4.61,45.1-1,8.22-2.4,16.49,1.51,24.39a10,10,0,0,0,11.11,5.67C790.85,589.05,800.37,583.24,799.12,568.3Z" transform="translate(-1 -1)"/><path d="M737.8,267.6c0,3.8.29,7.62-1.63,11.19-2,3.77-7.52,7.16-11.36,6.79-5.56-.54-7.89-3-9.67-9-1.43-4.75-.9-9.51-1.11-14.28-.14-3.07,1.46-4.12,4.26-4.1,4.64,0,9.32.31,13.93-.09,4.42-.39,6.18,1.11,5.61,5.5A29.35,29.35,0,0,0,737.8,267.6Z" transform="translate(-1 -1)"/><path d="M725.78,255.52c-11.86,0-11.86,0-11.73-12.09.09-8.54,4.07-13.79,10.75-14.18,7-.41,10.39,2.26,12,9.16,1,4.11.8,8.24,1,12.39.17,3.8-1.44,5.07-5,4.76C730.45,255.35,728.11,255.52,725.78,255.52Z" transform="translate(-1 -1)"/><path d="M769.24,273.17c0,11.76,0,11.76-14.18,11.59-8.56-.1-13.23-5.55-12-14,.66-4.39,5.5-8.5,10.63-8.94,1.32-.11,2.66,0,4,0C769.24,261.8,769.24,261.8,769.24,273.17Z" transform="translate(-1 -1)"/><path d="M772.77,273.48c0-12.38,0-12.38,14.64-11.75,8.05.35,12.14,5.08,11.25,13-.62,5.51-4.31,9-9.86,9.17-4.29.17-8.62.07-12.88.55-2.72.3-3.18-.87-3.16-3C772.79,278.8,772.77,276.14,772.77,273.48Z" transform="translate(-1 -1)"/><path d="M744.05,245.92c.09-6.2,6.18-12.41,12.07-12.33a11.71,11.71,0,0,1,11.65,11.85c0,6.77-5.75,12.72-12.22,12.64C749.65,258,744,252,744.05,245.92Z" transform="translate(-1 -1)"/><path d="M772.66,234.43c-7,0-11.33-4.51-11.45-12.14a11.22,11.22,0,0,1,11.17-11.51c7.43.06,12.46,5.05,12.59,12.47C785.08,229.16,779.31,234.39,772.66,234.43Z" transform="translate(-1 -1)"/><path d="M788.11,233.57c6.44.1,12,5.48,11.87,11.49-.15,7.32-4.78,12.21-11.55,12.19-7.37,0-12.2-4.88-12.1-12.16A11.68,11.68,0,0,1,788.11,233.57Z" transform="translate(-1 -1)"/><path d="M826,852.67c.53,13.88-4.41,24.71-17.19,30.18-8.59,3.68-17.95,4.86-27.16,1.24-6.69-2.63-9.65-8.11-11.27-14.76-2.66-10.9-.33-21.46,1.76-32.06,2-9.94,3.86-20,4-30.06.13-9.09,2.8-17.33,5.27-25.77a35,35,0,0,0,1.53-5.76c.77-7.55,5.87-10.26,12.81-6.76,3.52,1.77,5.21,5,7,8.24A127.77,127.77,0,0,1,813,803.58c3.57,12.44,9.28,24.21,11.82,37A50.64,50.64,0,0,1,826,852.67Zm-12,.65c-.33-2.45-.46-6.5-1.46-10.32-4.57-17.42-11.36-34.06-18.39-50.6-.7-1.65-.62-4.76-3.16-4.41s-1.81,3.5-2.54,5.4a4.81,4.81,0,0,0-.23,1.47c-.92,17.26-3.45,34.33-5.67,51.44-.9,6.94-1.8,13.78.38,20.72,1.79,5.74,5.43,8.84,11.23,8.58C805.58,875.1,814,866.3,814,853.32Z" transform="translate(-1 -1)"/><path d="M243.41,359.24c6-.06,11.23,2.86,16.52,5.14,5.82,2.5,10.72,7,17.44,7.61,3.92.37,2.93,3,.78,4.13-4.33,2.3-8.25,5.93-13.88,5a15.9,15.9,0,0,0-6.44.34c-6.1,1.63-10.32-.67-13.51-5.73a12.5,12.5,0,0,0-4.24-4c-3.37-2.08-3.47-5.53-2.81-9.17C238,358.67,240.8,359.3,243.41,359.24Z" transform="translate(-1 -1)"/><path d="M267.39,428.49c-1.05-3.46-2.69-5.25-6.07-6-3.95-.83-5-4.42-4.44-8.35-4.4,1.66-12.63-3.24-13-7.49-.21-2.29,1.07-3.49,3.21-3.54,4.37-.09,8.64.31,11.81,3.91.33.38.62,1.1.95,1.11,7.27.18,5.52,6.29,6.05,10.14C266.3,421.51,269,424.31,267.39,428.49Z" transform="translate(-1 -1)"/><path d="M349.51,331.86c2.35-7.15.56-14.74,2.69-21.91A18.58,18.58,0,0,1,357.83,332c-.78,1.83-1.56,2.55-3.16,1.05S351.21,332.37,349.51,331.86Z" transform="translate(-1 -1)"/><path d="M326.91,473.8c4.38-3.1,7.12-7.25,11.51-9.6,2.06-1.11,4.08-2.24,6.51-1.91,2.11.29,3.39,2.51,1.8,3.29-5.94,2.92-10,9.45-17.59,9.13A8.74,8.74,0,0,1,326.91,473.8Z" transform="translate(-1 -1)"/><path d="M223.74,363.71c-1.49-5.8-3.05-11.59-4.41-17.43-.26-1.14-.41-2.94,1.47-3.11,1.58-.15,1.42,1.46,1.85,2.47a17.43,17.43,0,0,0,2.15,4.42C228.61,354.71,227.31,359.15,223.74,363.71Z" transform="translate(-1 -1)"/><path d="M314.16,421.47c1.41.17,3.1,0,3.47,2,.33,1.74-.82,2.19-2.3,2.46-3.25.6-4.88,3-6.26,5.75-1.13,2.2-3.22,3.52-5.21,2-2.3-1.77-.11-3.72,1.3-4.76,2-1.49,1.95-4.22,3.91-5.58A10.08,10.08,0,0,1,314.16,421.47Z" transform="translate(-1 -1)"/><path d="M261.26,400.43c-1.15-.71-3.75.17-4-1.71-.37-2.37,1.5-4.27,3.24-5.77,1.34-1.16,3.4-1.27,4.51-2.92.63-.94,1.35-2.15,2.74-1.38s1.19,2.22.59,3.47c-1.16,2.38-2.42,4.7-3.59,7.07C264,400.61,263,401.15,261.26,400.43Z" transform="translate(-1 -1)"/><path d="M275.24,443.47c-1.18-.1-6-7-5.57-7.85.87-1.73,2.62-2.44,4.35-3,.7-.23,6.93,6.76,6.62,7.45C279.58,442.55,276.79,442.24,275.24,443.47Z" transform="translate(-1 -1)"/><path d="M420.46,430.84c-1.91-3.84-3.18-7.28-2.39-11.17.22-1.1.3-2.47,1.79-2.56s2.32,1.06,2.64,2.41C423.4,423.39,422,426.85,420.46,430.84Z" transform="translate(-1 -1)"/><path d="M303.13,453.13c-.88-2.49,1.35-9.43,2.88-9.86.36-.1,1.14.15,1.22.39a3.56,3.56,0,0,1,.23,2.32C306.19,448.34,304.7,450.58,303.13,453.13Z" transform="translate(-1 -1)"/><path d="M290.23,350.23c-.21,1.19.41,3.37-1.27,3.11-2.17-.34-3.12-2.76-3.64-4.75-.31-1.19,1.13-1.95,2.29-2C290.4,346.33,290.06,348.49,290.23,350.23Z" transform="translate(-1 -1)"/><path d="M227.54,348.35c.32-1.38,1.3-1.5,2.31-1.41,2,.19,2.8,1.49,2.77,3.37,0,1.06-.4,2.27-1.63,1.8A6,6,0,0,1,227.54,348.35Z" transform="translate(-1 -1)"/><path d="M288.49,437.6c2,2.2,3.38,4,1.59,6.48-.41.56-1.11,1-1.69.42C286.2,442.42,287.61,440.26,288.49,437.6Z" transform="translate(-1 -1)"/><path d="M297.9,438.58c1.14-.34,2.08.19,1.83,1-.66,2.09-3.09,2.49-4.51,3.95-.34.35-1.12-.89-1.18-1.74C293.81,438.77,296.55,439.42,297.9,438.58Z" transform="translate(-1 -1)"/><path d="M302.76,274.77a14,14,0,0,1-.31-9.92C305.78,268,305.29,270.88,302.76,274.77Z" transform="translate(-1 -1)"/><path d="M496.34,169.42c-10.14-2.35-15.74-1.66-15.57-15.33,0-2.62-.52-5.25-.72-7.88s.59-4.24,3.56-4.1c7.59.33,18.13,8.65,20.52,16.1C506.76,166.37,502.2,169,496.34,169.42Z" transform="translate(-1 -1)"/><path d="M482.25,195.88c.24-2.63.47-5.26.73-7.89.22-2.31,1.64-3,3.78-2.92,7.31.16,17.51,11.25,17,18.54-.38,5.15-2.66,7-7.77,6.37-.32,0-.65-.12-1-.15C483.78,208.52,482.48,207.08,482.25,195.88Z" transform="translate(-1 -1)"/><path d="M443.06,152.17c1.26,8.81-2,16.14-5.34,23.4a7.52,7.52,0,0,1-12.31,1.85c-5.12-5.16-7.17-11.86-7.33-18.62-.22-8.82-.12-17.78,3.68-26.25,1.83-4.05,3.78-6.9,8.55-6.9s7.5,2.8,8.92,6.72C441.6,138.88,444.87,145.3,443.06,152.17Z" transform="translate(-1 -1)"/><path d="M479.73,586.89c.3,5.31-3.94,6.43-6.48,8.79-1,1-2.43,1.33-3.24,2.83-4.86,9.06-12.7,15.6-20.91,21-10.9,7.13-21,15.64-33.21,20.75-7.58,3.17-14.91,6.91-22.49,10.09-9.95,4.17-19.07,9.86-28.48,15a8.47,8.47,0,0,1-2.68,1.21c-1,.14-2.35,1.32-3-.28-.58-1.35.67-1.92,1.57-2.71,5.1-4.49,11.21-7.15,17.19-10.21,7.86-4,15-9.39,22.82-13.63,13-7.09,25.36-15,36.46-24.84,5-4.43,11.52-6.44,17.19-9.82,5.28-3.15,9.44-7.69,14.87-10.41,3.42-1.72,5.67-4,6.26-7.93a2.35,2.35,0,0,1,2.9-2.1C479.89,585,479.72,586.4,479.73,586.89Z" transform="translate(-1 -1)"/><path d="M357.94,668.59c-.16,2-1.46,2.47-3,2.69-1.05.16-2.18.07-2.27-1.16-.14-2,1.79-2,3-2.56A1.57,1.57,0,0,1,357.94,668.59Z" transform="translate(-1 -1)"/><path d="M293.81,135.37a28.3,28.3,0,0,1,.35,3.89c0,2.72-2,3.63-4.3,3.92-2.78.33-3.56-1.62-3.4-3.75A98.73,98.73,0,0,1,288,128.61c.35-1.88,2.09-3.62,3.65-3.59,2.34,0,2,2.63,2.17,4.33A57.3,57.3,0,0,1,293.81,135.37Z" transform="translate(-1 -1)"/></g></g></svg>