<svg xmlns="http://www.w3.org/2000/svg" viewBox="0 0 881.23 883.07"><title>kissing</title><g id="Layer_2" data-name="Layer 2"><g id="Layer_1-2" data-name="Layer 1"><path d="M189.49,418.45c.8,2.31,2.31,3.2,4.86,3.25,6.21.11,8.17,2.16,7.21,8s4.37,9.48,9.29,10.34c12.65,2.22,13.26,2.49,15.36,14.42a11.18,11.18,0,0,0,2.59,5.79c2.87,2.87,5.58,5.13,6,9.93.29,3.17,3.86,1.67,5.18-.41,2.62-4.16,5.5-4.84,9.49-1.93,1.34,1,3.51,1.39,4.76.43,2.9-2.25,5.27-.6,7.16.93,4,3.29,8.41,5,13.61,4.51,1.55-.14,3.28.08,3.59,1.87s-1.67,1.13-2.52,1.74c-4.83,3.48-9.35.46-13.69-1-5.74-2-10.85-.83-15.49,2.28a54.84,54.84,0,0,1-8.75,4.7c-6.44,2.79-13.13,5-19.57,7.79-2.08.91-4.48.36-6.66,1.41,1.37,2.45,3.23,1.63,4.72,1.63,18.66,0,37.44-1.45,56,.16,26.12,2.26,52.25-.43,78.23,1.6,24.29,1.89,48.65-.94,72.74,1.47,26.54,2.66,53.06,0,79.48,1.91,30.52,2.16,61,1.07,91.56,1.25,5.88,0,11.38,1.84,17.24,1.82,42.37-.17,84.74-.09,127.1-.15,5.81,0,11.27,2.68,17.14,2.05,1.39-.15,2.95.6,4.78-1.59-4.09-.56-7.75-.77-11.17-2-8.13-2.83-16.72-3.43-25.12-4.93-2.82-.5-3.54-2.42-3.2-4.1.68-3.38-.09-6.91,1.63-10.22,2.1-4,.61-8.7,1.84-13.13,3.45-12.4,8.4-23.49,18.16-32.52,6.43-5.95,11.65-13.31,14.07-22.14a5.57,5.57,0,0,1,1.06-2.25c5.46-6,5.13-13.83,6.78-21.42,2.77,3.64,4.49,1.47,5.57-1.11a8.52,8.52,0,0,0,0-6.82c-.86-1.85-1-3.38.06-5.14a2.9,2.9,0,0,0,.33-2.38c-4.26-7.35.89-13.21,3-19.52.94-2.76,3.64-4.71,3.56-8.05,0-.88,1.3-2,2.61-1.88a2.38,2.38,0,0,1,2,2.49c0,5.89.27,11.83-.48,17.64-.3,2.39-1.14,4.84-.89,7.28.94,9.2-.87,18.29-2,27.24-1.12,8.78-1,17.86-3.24,26.36-3.35,12.55-3.93,25.26-5,38.06-.93,11-2.28,22-2.72,33-.09,2.25-3.14,4.46-.79,6.39,2.09,1.72,5.15.69,7.77.73,5.83.1,11.68-.17,17.5.07,11.91.48,23.76,2.16,35.72,1.5,3.2-.17,4.94,1.72,4.94,5,0,8.83,1.23,17.88-.26,26.45-2.94,16.91-.47,33.85-1.9,50.67-.59,7-1,13.86-1.26,20.81-.16,3.78,1.35,4.87,5,4.83,13.11-.12,26.14,2.28,39.29,1.36,2.84-.19,4.9,1.28,4.28,4.07-1.84,8.28-.66,16.6-.84,24.88-.25,11.64-.46,23.31.08,34.93a201.41,201.41,0,0,1-.37,26.36c-.56,6.63,1,13,.51,19.53a44.27,44.27,0,0,1-.61,4.44c-.3,1.62-2.63,3.46,1.39,4.19,1.27.23,1,4.81-.08,5.88-2.69,2.77-1.31,5.28-1.42,8.23a92.71,92.71,0,0,0,.32,13.84c.39,3.51-1.7,7-.8,10.65,1.14.07.77-.88,1.11-1.3,1-1.21.58.37.59.4.31,1.6,1,3.28-1,4.36a2.26,2.26,0,0,0-1,2.64c1.21,5.48-1.06,5.31-5.46,4.13-11.49-3.07-23.21-5.34-34.71-8.38-4.93-1.31-9.53-3.81-14.6-4.85-17.52-3.59-34.17-10.19-51.39-14.8-8.67-2.33-17.22-5.13-25.73-8-15.74-5.25-31.71-9.69-47.71-14.05-5.25-1.42-10.5-2.77-16.23-3.74,4.12-.31,3.83-3,4.33-5.92,2.76-16.17,1.48-32.44,1.8-48.67,0-1.37.09-1.36,2-4.2,5.16,10.49,8.4,21.47,12.49,32.11,3,7.7,6.32,15.26,8.54,23.24.2.75.9,1.92,1.39,1.93,5.12.09,10,3.17,15.27,1.23,2.28-.85,4.63-.41,6.92-.32,3.08.12,3.81-1.15,4.08-4.08,2-22,1.67-44.16,1.32-66.24-.09-5.91,2.56-11.28,2-17.21-.3-3.45-1.11-5-4.9-5.16-13.34-.46-12.4-.49-13.79,12.62-1.66,15.64-.63,31.22-1.11,46.81,0,.8.07,1.7-1,2.23-2.45-.67-2.84-3-3.5-4.94-5.38-15.43-10.57-30.94-15.95-46.37-4.11-11.79-4.2-11.76-16.63-11.77-3.17,0-6.34.12-9.5,0s-4.22,1.21-3.93,4.18a24.06,24.06,0,0,1,0,4.49c-2.16,24.34-2,48.73-1.92,73.13,0,3.34-2,6.29-1.72,9.74.13,1.46-1.43,1.63-2.61,1.64-5.67,0-11.33,0-17,.06-2.61,0-2.89-1.41-2.83-3.53.24-9,1.89-17.84,1.48-26.88-.4-8.64-1.25-17.54.25-25.94,2-11.13.61-22.17,1.41-33.21.29-4.11-1.14-5.74-5.35-5.48-4.65.3-9.33.15-14,.06-2.76-.05-3.64,1.09-3.82,3.86q-1.73,26-1.35,52.1c.19,11.93-3,23.7-1.81,35.69.22,2.26-.9,3.4-3.24,3.33a30.76,30.76,0,0,0-5,.05c-4.54.61-7-.71-6.24-5.82.39-2.65-1.25-3.41-3.68-3.35-8.44.19-16.72-2.57-25.23-1.53-2.92.36-3.46-1.31-3.75-3.88-.59-5.24,1.47-10.15,1.46-15.29,0-12.66.28-25.34-.13-38-.25-7.38,2.64-14.3,2-21.72-.58-7.13-.17-7.17-7.1-7.17-4,0-8,.08-12,0-2.65-.06-3.65.92-4.1,3.69-2.07,12.7-.69,25.53-1.6,38.24-1.21,16.92-1.37,33.83-1.22,50.76,0,3.08-1.13,4.28-4.08,4.07-1-.07-2,0-3,0-7.3-.05-7.38,0-7.76-7.12-.19-3.52-1.73-5.13-5.28-5.09-7.17.06-14.34-.06-21.5,0-2.73,0-4.46-.66-4.41-3.88.21-12.91-.68-25.92.72-38.68,1.46-13.32.25-26.54,1-39.79.15-2.86-1.24-3.7-3.92-3.77-4.08-.09-8.15.47-12.22-1.35-2.75-1.24-6.84,2.2-6.67,5.33.79,15.31-1.57,30.49-1.6,45.76q0,12.75,0,25.5c0,6.77-2.32,13.37-1.57,20.21.24,2.21-1.24,2.83-3.17,2.83-4.83,0-9.67-.07-14.5.09-2.72.09-3.5-1.16-3.34-3.61.63-9.24-.38-18.46,1.06-27.79,1.31-8.47-.13-17.32.43-26,.81-12.39,2-24.75,1.69-37.21-.1-4-1.06-5.75-5.34-5.44-4.64.34-9.33.19-14,.08-2.76-.07-3.94.94-3.8,3.78,1,18.76-2.84,37.41-1.5,56.17.88,12.34-2.58,24.43-1.71,36.75A3.5,3.5,0,0,1,436,726c-2.17,2.61-15,.59-16.16-2.65-4.71-13.07-9.28-26.2-13.88-39.31-2-5.58-3.8-11.2-5.86-16.74a5.46,5.46,0,0,1,.57-5.6c7-9.8,12.78-20.4,20.33-29.82,1.12-1.4,2.31-3,1.44-5-.95-2.19-3-1.66-4.8-1.7-2.83-.06-5.7.29-8.49-.08-5.72-.77-9.37,2.13-11.53,6.74-4.7,10.07-11.67,18.78-16.56,28.71-.43.89-.65,2.18-1.84,2-1.66-.21-1.23-1.74-1.18-2.81.49-10-1.1-20.18,1.58-30.12.49-1.8.41-3.93-2.12-4.28-5.87-.79-11.62-2.61-17.69-1.9-2.06.24-3.19.91-2.91,3,1.39,10.5-2.6,20.64-2,31.12,1.2,21.77-2.63,43.44-1.57,65.22.11,2.21-.17,4.21-2.84,4.29-4.71.13-6,2.83-6,7,0,.72-1.23,1.44-1.9,2.16,1.22-2.93.82-5.76-.34-9.58-1.3,2.66-2.3,4.41-4.88,3.73-.71-.19-1.59.61-1.64,1.5-.08,1.17.92,1.1,1.72,1.11,2.39.05,3.65,2,5.32,3.21-1-.08-2-.13-3-.25-.78-.09-1.56-.28-2.32-.41-1.08,2.49,1.93,2.55,2.06,4.22.08,1,.67,2.16-.43,2.69-1.34.65-1.54-.56-1.84-1.55-.45-1.51-.79-3.46-3.13-2.21-1.93,1-2.43,2.64-2,4.89.26,1.31,3.87,1,1.53,3.11-2.15,1.92-3.07-.5-4.46-2.51-.9,2.91-3.58,4.63-1.13,7.41,1.23,1.4-.29,1.61-1,2-3.1,1.6-2.91,3.37-.91,5.93.65.85,4.14,1.74,1.09,4-2.08,1.57-3.92,2.38-6.2.41-2.46-2.12-.47-3.42.79-4.81.44-.48,1.14-.68.4-2.1-7,3.28-4.93,13.74-12.49,16.41,0,1.29,1.19,1.18,2.05,1.55,2.92,1.24,3.5,2.76.86,5.1-1.38,1.23-3.89,2.48-2.66,4.74.94,1.74.71,5.77,4.59,4.18,3.35-1.37,5.12-4.53,3.53-7.65-1.86-3.65-.25-5,2.4-6.43.72-.4,1.44-1,2.21-.31s.27,1.47.1,2.29c-.65,3.18-.61,3.18,2.68,3.67a1.77,1.77,0,0,1,.88.37c6.23,5.44,16.24,6.94,23.66,3.17a4.37,4.37,0,0,1,4.18,0c4.23,1.87,8.84,2.59,12.95,4.86,4.48,2.49,8.91-.7,13.2-1.37,8-1.26,12.59,1.66,16.76,6.48,1.41,1.64,1.11,6,4.72,4.69,2.33-.86,4.83-.58,7.16-2.45,10.14-8.12,21.72-5.42,32.7-2.56,4.37,1.14,9.48,4.14,10.14,9.93a88.72,88.72,0,0,1,.69,16.76c-.7,9.24-2.3,18.44-1.53,27.75.28,3.46-1.54,4.47-4.33,4.71a17.23,17.23,0,0,1-5.46,0c-8.44-2.05-16.93-.4-25.39-.54-4.45-.07-8.43-.41-11.11-4.95-2.19-3.7-5.85-2.1-7.5.28-2.16,3.11-5,3.1-7.8,3.24a96.35,96.35,0,0,1-10.46-.4c-3.46-.2-4.74-2.51-5.4-5.56-1.17-5.4-.8-10.81-.35-16.23.21-2.65.46-5.24-2.14-8-.68,5.57-2.4,10.4-1.6,15.59a19.51,19.51,0,0,1,.44,3.45c-.25,8.73-5.26,12.91-13.77,10.58-4.78-1.31-9.74-1.11-14.58-2.79-2.56-.89-6.88,1.86-10.68,1.77-5.08-.11-10.06.2-15.22-1-5-1.12-5.49-3.84-5.27-7.61.35-6.22-1.15-12.74-.28-18.43.8-5.19-2-10.61,1.3-15.67.94-1.47-.86-4.39-2.2-6.3-.23-.33-1.23-.31-1.79-.14-.83.24-1.7,1.16-1.14,1.83,2.77,3.32,0,2.84-1.95,3.1-2.31.32-3.37,2.18-4.74,3.55,1.1,2.07,4.25-1.76,4.49,2.29.19,3.29-2.23,2.26-3.61,2.84-2.2.91-4.08,2.54-7,1.93-1-.21-7,.48-1.8,4.4.9.68-.42,2.37,1,3,1.8.3,2-3,4.19-1.76-.13,4.26-3,8.51-.07,12.8.13.2-.09.9-.11.9-5-.41-4.44,3.81-5.28,6.59s-5.82,3.6-3.31,7.86c.47.8-1.53,1.93-2.15,2.27-4.88,2.68-1.87,3.71.46,4.43-3.5,7-10.92,11.08-12.1,19.47-.26,1.85-2.12,4.5-3.94,4.49-5.12,0-2,2.09-1.28,3.68H89c-3.21-1-6.36-2.44-9.66-3-2.36-.43-3.11-1.35-3-3.52a13.68,13.68,0,0,0-.14-4c-.58-2.18-.91-5.36-2.39-6.13-2-1.07-3.07,2.27-4.73,3.46-.81.57-1.58,1.19-2.4,1.73Q57.84,878.3,49,884c-15,0-30-.07-45,.07-2.5,0-3.12-.56-3.07-3.07.18-8.33.07-16.67.07-25,2.53,1.85,2.2,5.14,3.78,7.49C5.9,865.15,7.33,867,9,865.12a20.11,20.11,0,0,0,5.14-10.49c.48-3.42-2.86-3.49-4.86-4.72-.47-.29-.68-1-1-1.53.52-.3.8-.6,1.07-.6a2.57,2.57,0,0,1,1.39.36c3.84,3.1,8.05,2.46,12.24,1.12s8.73-2.31,12.47-4.52c5-2.92,12.66-2.27,13.35-11.5.25-3.27.15-5.9-1.47-7.87-4.29-5.18-9-10.11-15.08-13.29-6.42-3.36-12.4-7-11.4-15.63.5-4.29-1.62-3.67-4.41-3C11,794.91,6.27,798.14,1,800V745c1.35-3.78,2.74-7.54,4-11.34.84-2.51,1.85-4.15,5.07-4.44,4.53-.4,8.28-3.33,12.08-5.65,2.3-1.4,2.07-8.75.62-11.2-4.42-7.49-12.33-12.67-14.37-21.73a84.14,84.14,0,0,1-1.83-9.1,37.16,37.16,0,0,0,13,7.72c3.33,1.18,4.64.36,4.3-3.15a17.68,17.68,0,0,1,0-3c.11-1.39-.69-3.26,1.26-3.86,1.52-.47,2.44.94,3.21,2a19.39,19.39,0,0,0,7.88,5.9c10.58,4.42,16.67,13.84,24.72,21,4.09,3.65.3,6.64-1.69,9.32-1.87,2.51-4.43,4.51-6.66,6.75-1.29,1.3-1.8,2.82-.87,4.53s2.41,1.19,4.18,1.09c7.29-.43,12.25-5.39,17.85-8.87,7.24-4.5,9.42-4.31,14.13,2.56,4,5.77,9.5,9.89,15.61,13.23,2,1.07,2.78-.32,3.34-1.75a44.28,44.28,0,0,0,2-6.14c.39-1.73.92-3.52,2.72-3.81a4.55,4.55,0,0,1,5,2.6c2.21,6.49,7.91,9.54,12.58,13.63,3.26,2.86,4.59,2.39,6-1.84,1.11-3.26,3.28-6.14,3.17-9.85,0-1.44,1.34-1.84,2.58-1.69,6,.73,10.26-3.57,15.22-5.52,2.19-.87,2.47-6.32.88-9.49a49,49,0,0,0-6.83-10.16,45.15,45.15,0,0,1-9.91-17.5c-.37-1.28-.9-2.9.17-3.77,1.23-1,2.48.17,3.44,1.1,2.58,2.48,6,3.52,9,5.16s5.34.37,4.78-3.13a16.43,16.43,0,0,1,1-8.77c3,7.34,9.23,9.79,15.25,12.46,3.79,1.69,6.19,5,9.07,7.71s5,5.57,9.32,6.17c2.88.4,5.1,8.27,3.88,11.84-1.06,3.1-3.35,5.28-5.45,7.65-1.73,2-4.27,4.7-2.73,6.87,1.71,2.39,5.12,1.09,7.74-.12,3-1.39,6-2.74,8.36-5.29a16.27,16.27,0,0,1,4.6-2.93c8.2-4.24,8.21-4.22,12.43,3.73,3.79,7.14,10.11,11.11,17.44,13.67,2,.69,4,.62,4.34-2.4.13-1.29.89-2.52,1.06-3.81.33-2.56.94-5.64,3.32-6.16,2.79-.62,5.51,1.63,6.92,4,1.79,3.07,5.26,4.52,6.72,7.86a3.93,3.93,0,0,0,3.32,1.63c1.71-.25,1.1-2.13,1.16-3.36.39-7.76.37-7.74,8.26-7.75,3.6,0,6.9,0,10.39-2.23,5.69-3.57,12.51-2.57,19-2.33,1,0,2.1.48,2,1.74s-1.34,1.23-2.35,1.22H297.3l0,1.51c3.91,0,7.83.1,11.75,0,1.71-.06,2.17-1.6,1.92-3-.88-4.95-.08-10.19.71-14.67,2.43-13.58-.56-27.21,1.41-40.55,2.39-16.12.58-32.2,1.34-48.27a24.07,24.07,0,0,1,1-6.85c1.91-5.59-.9-9.33-6.69-9.34-2.17,0-4.4.35-6.49-.06-8.11-1.62-14.44,2.77-21.29,5.61.7,1.78,2,1.43,3.09,1.42s2.49.75,1.92,1.58c-4.11,6,1.32,6,5.28,7.29-3.34,2.73-6.75.35-9.74,1.94,1.22,2.28,3.24,2.55,5.41,2.56a31.79,31.79,0,0,1,4.48.21c1.13.18,2.49.69,2.23,2.14-.23,1.22-1.57.89-2.53,1-2.73.29-5.58-.64-8.65.64,2.58,3.6,6.58,2,10.4,3.47-3.81,1.41-7.28,1.49-10.16,3.23.34.52.45.86.68,1,1.75,1.15,5.37-1.21,5.51,1.59.12,2.43-3.4,2.3-5.57,2.59-1.08.14-2.37.35-2.29,1.4.44,6.48-5.17,5.52-8.33,6-8.68,1.38-17.44.23-24.78-4.83-4.5-3.11-9-3.74-14-3.66a27.19,27.19,0,0,1-3.46-.41l.15.1c2.85-5.51,4-11.81,9.26-16.17a24.18,24.18,0,0,1,10.56-4.95c2.77-.63,6.41-5.9,4.73-7.86-2.88-3.36-5.14-7.7-10.95-7.5-10.32.36-20.66,0-31,.15-3.8.06-5.55-1.12-5.17-5.17.31-3.31.1-6.66.09-10,0-1.12.34-2.46-1.1-3-1.11-.42-1.71.57-2.54,1.08-7.93,5-16,9.39-25.92,8.54-2.84-.25-5.53-.32-8.16-1.73a13.26,13.26,0,0,0-11.52-.43c-.83.33-1.61.51-2.14-.41s.08-1.33.74-1.48c4.3-1,1.18-2.41.11-3.35-2.51-2.22-7.75-2.24-7.55-6.26.16-3.27,4.48-5,6.63-7.76,3.11-3.93,8.27-4.82,11.73-8.26,1.45-1.43,3.45.57,5.28.11-.22-5.8-3.17-9.54-7.93-12.61-5.24-3.38-6.43-9.73-9.17-14.88-2-3.77-2.29-8.16-3.21-12.31-.22-1-.59-2,.6-2.58a1.83,1.83,0,0,1,2.21.71c3.91,4.44,9.29,6.22,14.57,8.24,1.26.48,2.46,1.34,3.74.44,1.5-1,.16-2.34.12-3.55-.07-2.91-3.46-6.45-1.12-8.14,1.92-1.38,5.28,1.77,7.82,3.25a146,146,0,0,0,15.94,7.68c3.84,1.65,6.08,5.57,9,8.48.78.77,1.44,2.2,2.76,1.66s.83-2,.84-3.14a111.44,111.44,0,0,0-.12-12c-.91-9.2,2.43-18,2.11-27.18-.19-5.51-3-8.52-7.08-10.24a12.39,12.39,0,0,1-7.91-9.24c-.3-1.29-.24-2.81-2.05-3-2.34-.21-1.3,1.83-1.76,2.84-4.13,9.17-11,12.53-21.64,11.43-3.31-.34-6.78.9-10.25,1.06-1.94.08-.67,1.56-.09,2.52,1.75,2.9,5.14,3.94,7.8,6.26-14.12,2.95-27.42,5.75-38,16-5.64,5.46-12.53,10.27-20.28,11.85-6.21,1.27-13.17,1.45-19.23-1.88-2-1.11-3.59-1.45-5.5-.25s-3.85,1-5.84.88c-1.39-.09-2.76-.68-2.9-2.24-.19-1.92,1.29-2,2.72-1.92.86,0,1.77-.12,2-1,.44-1.42-1-1.41-1.68-2-1.28-1.11-3.64-1.24-3.45-3.73.18-2.16-1.36-1-1.92-.76a23.68,23.68,0,0,0-4.49,2.07c-.85.5-2.44,1.43-2.48.92-.21-3.13.27-6.32-1.35-9.26,0-.09.77-.91.94-.83,8.06,3.75.28-3.82,2.36-3.75,2.75-1.53,2,2.21,3.51,1.69,1.9-.63.65-3.28,1.56-3.75,2.12-1.12,4.28-2.13,5.82-4,2.3,2.1-1.2,3.11.06,5,4.71-.15,5.75-3.25,5.16-7.82,2.77,1.8,2.74,4.19,3.25,6.35a3,3,0,0,0,2.2,2.49,1.93,1.93,0,0,0,2.27-1.52c1.82-5.72,3.48-3.85,5.2.05a3.5,3.5,0,0,0,1,1c.08.07.32,0,.87-.1-1.42-7-2.42-14-6.66-20.21-2.37-3.49-6.11-6.47-5.8-11.72.16-2.67-3.38-1.78-5.33-2.51.81-2.54,3.31-5.9-2.58-5.07-.24-1.82,2.79-1.69,2-3.92-1.32-3.86,1.25-3.24,3-1.86,6.32,5.07,14,7.16,21.47,10.31-4-1.7.17-6.15-3-8.07a6,6,0,0,1,.61-.62c2.18-1.78,2.18-1.78-.53-4.08a7.52,7.52,0,0,1,5.6,2.16c5.68,5.41,13.33,7.15,19.74,11.13,2.71,1.69,4.07,1.67,3.22-2.42-.63-3,1.11-6.45-1.68-9.25-.88-.89,2.33-15.56,3.44-15.83a62.74,62.74,0,0,1,8.74-1.34c1-.09,2.21.21,2.25-1.14s-1.34-1.15-2.24-1.21a21,21,0,0,0-2.49.16c-6.6.34-8.63-2.73-5.89-9a4.22,4.22,0,0,0-.37-4.7c-3.52-4-1.64-6.47,1.95-8.75,1.05-.67,2.92-1,2.41-2.68s-2.28-.84-3.5-.84c-7.26,0-6.74-.13-8.66-7.74-1.34-5.32-1-10.53-1.31-15.8-.15-2.76,1.38-4.16,3.59-2.91,5,2.8,11.12,4.35,12.23,11.64.34,2.21-1.22,3.58-.77,5.68.88,4.05,1.25,7.89,4.42,11.35,2.79,3.06,4.31,7.21,2.24,12-1.27,2.95,2.8-1,2.83,1.43-3,3.41-3.18,10-.39,13.52.7.88,1.42.61,2.16.15,5.33-3.26,12-1.87,17.38-4.87.38-.22,1.34-.09,1.35-.19.5-5.37,4-1.94,5.43-1.37,4,1.63,5.09-1.56,7.3-3.61-2.64-1.29-4.17-5.54-7.91-2.09-3-5.55-3.47-11.68-5.78-17.18-2.44-5.77-10.35-6.62-12.17-13,1.34-1.58,3.1.48,4.35-.95,0-.18.29-.58.18-.74-1.61-2.32-7.18-2.66-4.89-6.61,2.18-3.76,5.51-7.31,10-8.88,1.2-.42,2.6-.29,4.55-.47-3,3.62-2,4.62,2.05,6.2,4.2,1.64,9.19,1.78,12.67,5.29a4.34,4.34,0,0,0,2.36.64c13.31,1.78,25.95.38,38.27-5.8,7.39-3.71,16-4.69,24.22-6,4.13-.64,7.87,1.22,11.63,2.21,6.69,1.76,12.84,2,19.24-1.21,5.32-2.66,11.12-.76,16.54.3,3.61.7,6,.52,8-2.86,1.69-2.88,4.56-4.21,7.92-4.81,4.6-.82,7.5-9,4.72-12.74a2.47,2.47,0,0,0-2.64-1.05c-3.74,1.35-7.23-3.14-11-.37a1.44,1.44,0,0,1-1.37-.31c-4-5.79-5.33,1.51-5.39,1.9-.67,4.89-4.28,5-7.77,5.19-2.33.15-4.67.06-7,0-2.64-.07-5.38,0-3.9-4.14.52-1.41-.81-1.91-1.77-2.59-3.39-2.39-6.68-4.84-10.89-5.71-2.54-.53-3.89-3.09-5.4-4.73-2.73-3-6-3.77-9.48-4.31a5.85,5.85,0,0,1-3.95-1.75c-.94-1.08-2.16-1.27-3-.12-2.26,3.14-5.47.64-8.19,1.34-1.4.36-4.08-1.95-3.39-4.56.54-2.07,0-4.87,4-5.13,7.41-.48,14.47,1.58,21.69,2.32a15.72,15.72,0,0,0,6.46-.78c9.45-2.81,16.81-9.17,24.64-14.71,2.64-1.88,2.78-4.53.63-6.24-3.83-3.05-3.57-6.78-2.66-10.64.68-2.83,0-4.95-2.11-6.63-3.32-2.64-.4-7.66-5.6-10.34,7.87.93,11.46,4.27,12.36,10.21.14.91.22,2.8,1.12,2.12,4.83-3.63,5.88,2,6.36,3.45,2.22,6.55,7.41,10.72,11.31,15.89,1.24,1.63,2.59,2.89,1.53,5.26-1.67,3.73,2.13,6,3.12,8.94,2.25,6.73-.74,12.25-2.36,18.12-.35,1.27-1.27,2.32-.39,3.58s2.07,1.09,3.53.75c6.26-1.45,8.6.42,7.47,6.62-1,5.47-.78,10.91-1,16.38-.06,1.62-.38,3.58,1.51,4.39s3.16-.17,3.92-2c.34-.8,1.72-1.52,1.82-1,.45,2.45,4.27,2.31,3.88,4.94-.62,4.18,1.11,6,4.94,4.4,2.35-1,3.15-1.56,3.83,1.73.75,3.62,2.32,7.53,8.22,6.65-2.91,3.26-4.7,1.45-6.46.14-1.34-1-2.63-1.65-3.87,0s.11,2.33,1.07,3.3a7.89,7.89,0,0,1,2.56,5.65c-2.22-3.29-4.38-3.62-6.75-3.39-1,.09-2.09.2-2.58-1-.36-.87-.31-2.29-1.75-1.69-1.26.52-2.63,1.95-2,3.09,2.11,4-1.29,5.88-3.24,7.58-2.55,2.23-2,4.27-1.08,6.58a30.82,30.82,0,0,1,1.35,3.12c1.44,5.28-1.16,8.49-5,11.6-2.76,2.25-4.92,5.25-7.36,7.89-.3.33-.7.78-1.07.79-.75,0-1.17-.59-1.24-1.27-.19-2-.27-4-.47-6-.11-1.05.55-2.75-1.06-2.83-.86,0-2.05,1.11-2.63,2-3.13,4.93-3.48,10.8-4.89,16.27-.64,2.48,2.13.88,3.81.75-1.18,2-1.24,5.26-4.72,2.63-2.39-1.81-2.47-.05-3.11,1.7-1.73,4.73-3.79,9-9.88,9.75-2.58.32-3.33.26-3.26-2.32.05-2-.39-4.33,1.58-5.48,4.65-2.72,3.94-8.42,7-12,.3-.35.09-1.29-.11-1.88a36.62,36.62,0,0,1-2.3-13.55c.09-2.81-8-5.66-11.93-4-3.37,1.43-6.46.83-9.82.43-4.72-.55-9.26,1.44-13.62,2.72-4.77,1.39-8.11,0-11.44-2.59-1-.76-3.55-1.53-1.58-3.75,2.14-2.4,0-8.64,6.52-7.16,1.57.36,3.24.79,5.09-.37-2.76-3.41-6.67-2.61-10-2.73s-6.57-.53-9.5-2.37a6.68,6.68,0,0,0-4.31-1,17.59,17.59,0,0,1-11-2.5c-4.13-2.32-9-.43-13.55-2.22-7.19-2.85-15-1.86-22.64-1.88-1.16,0-3-.9-3.33,1-.23,1.53,1.5,1.85,2.67,2.48,5.68,3.11,6.58,6,3.35,10.21a2.75,2.75,0,0,0,.3-3.61c-.69-1,.46-3.9-2.55-2.7-1,.4-2.61-.87-3,.68-.49,2,1.19,2.84,2.66,3.58C187.82,417,189,417.29,189.49,418.45ZM141.91,849.06c7.43,3.35,14.15,2.16,21,.33,6.13-1.64,10.45-4,17.21-8,2.37-1.42,4.26-2,3.91-5-.28-2.45.92-5.51-.93-7.25-5.46-5.08-9.81-11.22-16-15.68-4.77-3.46-12.55-4.73-11.43-13.69.11-.88-.13-6.81-4-5.91-2.92.67-6.17,1-8.93,2.52-6.65,3.76-14.18,6.14-20,11.14-5.34,4.59-13.65,6.58-14.64,15.43-.11,1-1.63,1-2.62.93-6.08-.2-11.55-1.12-15-7.36a16.65,16.65,0,0,0-11.89-8.33c-3.4-.65-4.76,1.13-3.91,3.73,1.21,3.71,1.87,7.63,4.36,11,3.14,4.23,4.65,9,1.34,14.16a102.53,102.53,0,0,0-5.6,10,4.93,4.93,0,0,0,.49,5.25c1.44,1.84,3.49.85,5.09.25,3.91-1.45,7.18-3.42,9.33-7.59,3.77-7.34,15.23-9.77,20.58-5-4.08,2.43-4.52,7.42-.85,12.12,1.93,2.48,3.79,3.41,6.13-.16,1.61-2.43,2.51-5.33,4.57-7.39.91-.9,14.19,3,15,4.14.58.77.25,1.55.16,2.37-.54,5,1.2,9.42,3.85,13.5,2,3.08,4.34,2.8,6.18-.16a49.7,49.7,0,0,0,3.52-7.13c.86-2.08,2.07-4.37-2.37-3.4C144.44,854.27,142.94,852.13,141.91,849.06Zm-2.07-66.22c0,5.93.33,6.18,5.17,3.79a47.67,47.67,0,0,0,11.81-8.12c5.39-5.11,13.74-4.65,15.12,1,1.25,5.1,5.18,7.55,8.2,10.92,1.77,2,3.13,1.78,3.93-1.35,1.47-5.81,4.1-6.89,9.47-4.69a20.7,20.7,0,0,0,3.35.8c3.87.85,7.44,1.77,9.89,5.63,1.59,2.52,3.64,5.24,6.9,6.23,1.77.53,2.64,4.13,5.33,1.51a7.25,7.25,0,0,0,2.65-5.65c-.08-3.3,2-5.76,5-5.88,4.19-.18,8-2.31,12.25-1.84,3.79.42,7.17-4,7-4.9-.8-4.46,1.05-9.6-2.57-13.44-4.31-4.6-7.76-10-12.23-14.31-4.82-4.59-6.74-9.49-6.3-15.75.21-3-.91-4.19-4-4-8.71.46-15.65,5.35-22.27,9.89A107.29,107.29,0,0,1,172,756.24c-1.1.38-2.76.38-2.8,1.64-.16,4.53-2.51,2.76-5,2.19a17.49,17.49,0,0,1-8.51-4.83A44.43,44.43,0,0,0,144,747c-2.26-1.11-5.3-1.53-7,.45s-.63,4.65,1.2,6.72,3.57,4.63,5.54,6.79c3.74,4.11,3.8,12.3-.59,15.3C140.35,778.17,139.6,780.33,139.84,782.84ZM110.08,775c.7-2.61-.42-4.86-1.46-7.15-3.34-7.39-9.9-12-15.16-17.73-1.39-1.51-2.84-2.86-2.6-5.11.41-4-2.57-7.47-1.92-11.64.3-2-1.66-2.41-3.21-1.85-4.45,1.58-9.08,2.28-13.14,5.42s-8.37,6.43-12.75,9.37c-8.45,5.68-18.57,7.91-27.27,13.08a1.64,1.64,0,0,1-1.4,0c-3.29-2-7.6-1.26-10.41-5C18.7,751.59,15.14,749.8,12,748c-2.33-1.3-4.73-4.89-7.76-1.81-3.32,3.36,1.08,5.43,2.11,8,2.06,5.24,7,9.28,6.09,15.81-.56,4.22-4,6.78-5.16,10.6-.72,2.43-3.94,5.19-1.79,7.12,2.32,2.09,6,.74,8.78-1a42,42,0,0,0,3.55-2.7c4.26-3.3,7.67-7.72,12.79-9.86,3.15-1.32,5.82-2,6.94,2.89a24.44,24.44,0,0,0,6.68,11.49c3.13,3.24,5.06,2.93,6.27-1.1,1.61-5.33,5.1-6.46,9.25-3.74,2.92,1.91,7.24-.14,9,3.22,2.17,4.21,5.74,6.67,9.11,9.63,3.55,3.12,5.09,1.93,6.51-1.59.61-1.54,1.1-3.14,1.68-4.69,1.22-3.24,3.28-5.43,7-5.05,4.11.42,7.78-1.45,11.61-2.26S111.34,779.8,110.08,775Zm683-47.77c-5.88-4.53-10.92-11.79-10.81-17.4.31-14.92-2.35-30.07,3.49-44.66,2.62-6.54,7.05-9.74,15.69-9.38,5.7.23,8.9,3.53,10.61,10a27.15,27.15,0,0,1,1.25,7.24c0,2.1.91,3.85,3.28,3.3,2.82-.65,5.65-.23,8.44-.59,7.61-1,9.9-4.89,7.18-12.11-.76-2-1.51-4.05-2.19-6.1-2.81-8.52-7.86-15.28-16.3-18.7-7-2.84-14.45-2.51-22-2a28.32,28.32,0,0,0-18.43,8.58c-10.84,10.8-13,25.37-14.94,39.51-1.81,12.89.68,25.67,4.74,38,.65,2,1,4.58,3.87,4.48C775.37,727.24,783.76,728.66,793.11,727.27ZM720.82,566.59l-1.89.47c-3.28-8.89-7-17.64-9.73-26.7-4-13.18-4.64-14-18.27-12.63a2.77,2.77,0,0,1-.5,0c-2-.13-2.66,1-2.58,2.77.2,4.66-1.34,9.25-1.42,13.71-.31,16.72-.25,33.43-2.2,50.07-.35,3,1.08,4.32,4,4.16a28.18,28.18,0,0,1,4.5,0c3.88.44,5.26-1,5.18-5.06-.24-11.49-.07-23-.1-34.48,0-2.39,0-4.71,2.34-6.39,5.58,14.45,10.84,28.69,15.63,43.09,1.25,3.77,6.26,5.3,12.12,4.32,4.17-.69,4-3.74,4-6.83q0-15.74,0-31.48a14.12,14.12,0,0,1,.44-4.42c2.93-8.61,1.15-17.43,1.08-26.13,0-3.87-3.83-3.4-6.64-3.38-1.86,0-4.88-1-4.76,1.91.21,4.86-1.4,9.44-1.28,14.25C721,551.42,720.82,559,720.82,566.59ZM565.69,556v0c-1.83,0-3.67.1-5.49,0-4.15-.28-6.45,1.53-6.25,5.75.17,3.53-2,8.74,5,8.09a2.85,2.85,0,0,1,2.68,1c1.62,2.18-.16,8-2.93,9.66-3,1.79-10,.81-10.77-1.8-2-6.78-5.61-13.49-3.75-20.72,1.23-4.77,2-9.62,3.24-14.37a9.39,9.39,0,0,1,8.15-7.06c3-.38,6.07,2.36,7.23,5.89a9.8,9.8,0,0,1,.87,3.31c-.21,2.87,1,4.14,3.76,3.75,3.71-.54,8.21,1.91,10.83-2.78a1.26,1.26,0,0,0,.1-1c-2.49-6.54-2.12-14-9.27-18.82-10.9-7.3-27.23-4.26-33.76,6.74-3.57,6-3.93,12.86-6.27,19-3.36,8.85-.35,16.85,1.3,24.69,2.2,10.41,9,17.61,20.86,18.69,5.68.52,10.29-.69,14.17-4.69,1.92-2,3-2,3.39,1,.49,3.65,3.39,2.48,5.48,2.56,2.69.1,2.54-2.08,2.58-3.92,0-2.66-.1-5.33.06-8,.36-5.73-.59-11.41,1.55-17.21s-1.43-9.66-7.81-9.75C569,556,567.36,556,565.69,556Zm-82.7-6.5c1.57.49,2.09,1.78,2.49,3q5,15,9.84,30.14c2,6.37,4,12.69,12.91,11a1.09,1.09,0,0,1,.49.09c3.41,1.11,4.72-.71,4.77-3.71.11-6.45.84-12.88,1.2-19.28.79-14.28.22-28.63.26-42.95,0-3.5-1.58-5.24-5.12-5.25s-6.38.6-6.3,5.07-.14,8.67.07,13c.15,3.09-3.13,5.55-1.73,8.58s.24,5.15-1.11,8.6c-4.18-10.61-8.36-20.13-11.57-30-1.32-4-3-5.54-6.92-5.24-3.47.26-7-.63-10.39.6-1,.37-1,1.63-1,2.65-.14,7.94-.74,15.83-1.39,23.75-1,12.74-.1,25.63-.39,38.44-.11,4.63,1.64,5.56,5.83,5.49s6.27-.8,5.83-5.51c-1.17-12.45,2.58-24.72,1.63-37.19C482.35,550.36,482.77,549.93,483,549.51Zm268.64-1h-.15c0,5.83,1.14,11.94-.24,17.42-2.52,9.93-1.18,19.82-1.63,29.72-.15,3.25,1.28,4.4,4.49,4.32,6.65-.17,13.36-.53,20,0,9.27.8,16.85-6.42,19.46-13.34,4.93-13.05,7.22-26.73,2-40.45-2.71-7.15-7.69-12.77-14.94-15.09-8.09-2.58-16.71-1.86-25.16-1.88-3.19,0-4,1.39-3.87,4.26C751.74,538.52,751.63,543.52,751.63,548.52Zm-86.15,49.87c1.66,0,3.33,0,5,0,1.85,0,2.73-.76,2.23-2.83-2.41-10-4.72-20.13-7.12-30.18-2.35-9.87-5.12-19.65-7.07-29.59-1.84-9.43-2-10-11.7-10a10.72,10.72,0,0,1-1.5,0c-3.18-.5-4.88.93-5.83,4-2.88,9.22-6.08,18.34-8.88,27.59-3.38,11.17-7.72,22-10.28,33.49-1.25,5.59-1.49,5.82,4.36,5.89,1.5,0,3,0,4.5,0,2.94-.06,4.48-1.45,4.86-4.51,1.14-9,1.22-9,10.25-9h2c8.13,0,8.41.18,10.18,8.16C658.05,598.43,658.05,598.43,665.48,598.39ZM401.6,591.62c15.24,1.8,24.26-12.23,23.44-23.39-.76-10.43-8-16.37-17.05-19.9-3.19-1.24-5.76-3.22-8.54-4.91s-2.92-7.32-.69-8.72a7.75,7.75,0,0,1,10.87,3.19c1.07,2.18,2.26,3.83,4.88,3.11,3.17-.87,7-1.72,8.5-4.51s-1-5.93-2.92-8.42c-1.39-1.78-2.5-3.7-4.77-4.84-5.05-2.54-9.87-3.72-15.8-2.71-9.57,1.63-16,8-18.43,20.41-.89,4.47,4.8,14.24,10.11,17.26,4.43,2.53,8.41,5.75,13.6,7.06,3.44.87,4.44,4.26,4,7.72-.31,2.34-.77,5.15-3.81,5-3.48-.21-8,2.38-10.2-2.5-2.07-4.53-4.34-7.75-10.25-5.84-4.59,1.5-6,3.9-4.33,8.53C383,585.89,392.19,593.14,401.6,591.62Zm-55.5-1.88c6.79,1,12.57-1.47,17.17-7.51,5.34-7,7.17-17.63,2.72-23.69-4.23-5.75-9.36-10.79-16.68-12.68a14.88,14.88,0,0,1-7.31-4.05c-2.68-2.86-1.92-8.31,1.3-8.68,3.83-.44,8.25-2,10.51,3.64,1.79,4.45,5.46,2,8.56,1.29,2.64-.61,4.7-2.28,4-4.75-.91-3.36-2.1-6.75-5-9.32-4.72-4.13-10-5.13-16.09-4.93-10.84.36-17.28,4.3-19.07,14.83-1.75,10.28-1.75,16.4,8.72,23.11,4.14,2.64,8.78,3.91,12.81,6.48,2.84,1.81,5.22,4.25,4.56,8.11-.62,3.64-3.91,6.11-6.53,5.87-2.88-.26-6.87-.55-8.69-4.46-2.56-5.48-7.25-6.53-12.75-3.65-2.36,1.25-2.54,2.61-1.64,4.82C327.14,585.11,334.27,590.93,346.1,589.74Zm-92-59.64h0c0-2.16-.11-4.33,0-6.48.27-4.43-1.69-6.55-6.15-6.38a30.59,30.59,0,0,1-4.49,0c-3.12-.33-4.49.69-4.41,4.11q.3,12.48,0,25c-.16,7.87.33,15.73-1.19,23.62-1.08,5.59,2.32,8.41,10.7,11.54,2.82,1.05,4,.82,3.83-2.51-.19-4.65,0-9.32,0-14,0-3.32,2.68-5,4.88-5.55s2.47,2.46,3,4.27a42.15,42.15,0,0,1,1.67,6.18c1.41,9.83,9.43,12.92,16.87,16.48,1,.47,4.65,1.78,3.27-2.11q-6.24-17.64-12.9-35.14c-1.47-3.85-1.73-7.06,1-10.64,3.88-5.07,7.24-10.54,10.62-16,1.54-2.49-.47-5.89-3.11-5-4.64,1.5-10.46.84-12.8,7.34-1.71,4.74-5,8.93-7.59,13.34-.49.83-1.23,1.81-2.33,1.53-1.31-.33-.83-1.62-.85-2.54C254.11,534.76,254.15,532.43,254.15,530.1ZM454.74,535c0-3,0-6,0-9,0-1.56-.16-3.32-2.11-3.38-3.3-.12-6.56-1.14-9.91-.34-1.82.44-2.59,1.28-3,3.26-1.85,8.36-1.21,16.82-1.52,25.25-.43,11.24,1.16,22.52-1.4,33.76-1.39,6.06,0,6.92,6.07,7a12.05,12.05,0,0,1,4.4.55c4.37,2,5.66-.58,5.67-4C453,570.43,452.1,552.67,454.74,535Zm351.75,192.6c8.2,0,15.14-.12,22.08,0,3.44.09,4.73-1.17,4.67-4.64q-.22-15,0-30c0-3.34-1.25-4.22-4.42-4.24-9.3-.05-18.63.62-27.91-.41-2.21-.25-2.59.78-2.57,2.54,0,3.83.12,7.66,0,11.49,0,2.51,1,3.71,3.54,3.62a27.23,27.23,0,0,1,3.5.06c7.18.62,9.83,4.87,7.17,11.61A33.48,33.48,0,0,1,806.49,727.63Zm-512-159.13c0,5.33-.4,10.7.1,16,.76,8.18,7.51.75,10.66,3.63a2.63,2.63,0,0,0,4-1.61,5.66,5.66,0,0,0,.16-2c-1.27-18.45,2.19-36.77,1.58-55.2-.4-11.84,2.36-10-10.85-10.22-.16,0-.33,0-.5,0-2.31-.13-3.49,1-3.27,3.28C297.81,537.86,293.64,553.08,294.44,568.5ZM107.37,510.72c-4.37.68-7.28,1.55-10.16,1.47-3.66-.1-5.71,2-8,4.25-1.64,1.67-.75,3,.11,4.4,1,1.6,2.5,2.63,4.11,1.36,2.23-1.76,4.66-1.36,7.1-1.39s5.53-1.78,4.54-3.16C102.89,514.57,105.13,513.4,107.37,510.72Zm40.82-14.67c-5.24.83-8.55-2.47-12.12-5-1.12-.78-1.73-1.92-3.32-.8-2.5,1.76-3.38,4.49-4.09,7.11-.37,1.39,1.19,2.85,2.77,3C137.44,501.17,143.17,500.46,148.19,496.05Zm60.9,54c-3.18,4.33-6.48,8-8.29,12.75-.65,1.72-1,2.65,1.1,3.4,7.09,2.62,6,2.67,6.13-3.86,0-2.32,0-4.56,1.23-6.74A4.8,4.8,0,0,0,209.09,550ZM411.57,811.63v-.15a26.51,26.51,0,0,0-4.46,0,6.34,6.34,0,0,0-5.11,5.09c-.2,2.23,3.12,1.34,4.92,1.88,4.26,1.29,5.45-2.77,8.1-4.28.88-.51,2.78.32,2.71-1.33-.1-2-2-1.06-3.18-1.23A19.72,19.72,0,0,0,411.57,811.63Zm-198.39-349c1.54.22,2.47-.41,2.21-1.52a5.29,5.29,0,0,0-4.67-4.29,2.66,2.66,0,0,0-3,3.09C208,463.78,212.27,460.22,213.18,462.67Z" transform="translate(-0.93 -1)"/><path d="M882,1q-.07,34.74-.13,69.47,0,85.48,0,171v60.9c-2.38-1.67-3.67-3-4-5.84a10,10,0,0,0-15.7-7.25,4.81,4.81,0,0,0-.45,7.44c3.34,2.67,5.51,8.16,11.74,5.93,2.27-.82,7.82,6.6,8.32,10.5a23.08,23.08,0,0,1,.08,3q0,109.72-.12,219.44c0,1.58,2,4.91-2.87,4.3-1.91-.24-.66,2.89.3,3.21,3.4,1.13,2.65,3.7,2.66,6.08,0,11.49,0,23,0,34.48,0,2.73.52,5.13-4.28,4.18-2-.4-6.89.29-8.4,4.37-.79,2.14-1.8,4.27-4.82,5.35.69-3.5,0-6.7,3-9.44,1.75-1.59-.13-4.33-.79-6.34-.88-2.7-1.34-5,.74-7.3a4.11,4.11,0,0,0,.82-3.23c-.39-5.16-7.38-5.14-7.94-10.22,0-.29-2.34,1.76-4.44.51,2.84-2.68,4.17-6.49,7.76-8.37,1.22-.64,2-1.24.6-2.52-2.54-2.28-3.83-5.38-5.29-8.37-.29-.58-.72-1.39-1.22-1.51-4.26-1-4.09-3.39-3.88-7.31.38-7-2.23-14.13-.48-21.35.27-1.11-.56-2.53-1-3.76-.32-.93-1.43-2.15-1.14-2.64,3.78-6.61-2.24-12.19-1.85-18.57.33-5.39-5.25-8.09-8.54-11.54s-5.35-8.23-3.51-12.37c.63-1.42.52-2.32-1.31-2-4.91.76-3.24-3.72-4.11-5.71-1-2.19,1.34-2.48,3.38-2.82,2.7-.44,5.6-1.36,5.85-5,.14-2.07,1.74-2,3.27-2.24,1.7-.26,4.59.76,4.84-1.21.29-2.42-2.06-4.59-4.15-5.69-6.53-3.43-6.65-3.29-3.13-9.71.48-.87,1.55-1.67.58-2.52-2-1.72-1.05-3.79-.66-5.68-2-.47-1.92.71-2,1.66-.2,2.1-1.13,2.09-2.62,1.05-3.53-2.44-4.44-5.11-3.33-10.5a8.1,8.1,0,0,1,2.13,4.94c.17,1.29.79,2.38,2.26,1.9a1.57,1.57,0,0,0,.72-2.49c-3.41-3.59,4.71-4,2-6.31-3.3-2.77-1.57-4.36-.18-7,2.35-4.41,0-12.3-3.91-15.21-1.2-.88-.87-1.92.38-2,3.32-.29,2.33-2.69,2.34-4.48.07-9.49.09-19,0-28.48,0-2.75.17-5.08,5.57-4.54-5.23-2.87-5.9-5.09-2.15-8,2.28-1.78-.93-3.67-.82-5.87a148.16,148.16,0,0,1,3.33-25.95c.78-3.47.45-7.23.33-10.85-.27-8,3.15-15.59,2.07-23.62a4.52,4.52,0,0,1,1.49-4.07c.58-.53,1.48-1.58,1.31-1.94-2.78-5.67,1.52-10.48,1.76-15.73.17-3.73-1-7.67-.26-11.21,2.38-10.87,1.73-21.85,2.39-32.78.28-4.67,3.51-9.14,2.74-14-1.2-7.47,2.24-14.23,2.61-21.46.14-2.87,1.13-5.84.94-8.82-.56-8.94,2-17.52,2.77-26.26.55-6.25,1.24-12.53,2.33-18.61,1.91-10.66-.27-21.56,2.72-32.1.82-2.94-.66-6.57.31-9.41,3.54-10.26,1.42-21.19,3.74-31.25,1.84-8,2.27-16,3.43-23.92C877.24,15.85,878.06,8.42,879,1ZM849.47,452.07c-1.31.21-2.64.69-2.39,1.69.47,1.9,2.09,3.17,3.73,4.18.5.31,1.52-.28,1.2-1C851.28,455.22,851.47,452.93,849.47,452.07Z" transform="translate(-0.93 -1)"/><path d="M745,884c-1.74-3.23-.07-6.55-.23-9.83-.34-7-.34-13.94-.44-20.91,0-1.65.51-3.52-1.85-4a4,4,0,0,0-4.58,2.25,19.49,19.49,0,0,0-1.7,8.71c-.06,6,.07,12-.09,18,0,1.72.95,4.83-2.1,4.57-2.33-.2-5.77-.79-5.82-4.33-.09-6.3-.83-12.65.57-18.89a25.52,25.52,0,0,0,.15-9.42c-.37-2.51-1.73-4.63-4.54-4.35-2.6.26-3.89,2.19-3.87,4.93,0,6,0,12,0,18a45.66,45.66,0,0,1-.91,7.38c-.53,3.41-2.4,3.86-5.2,3.73-3.4-.16-4.45-2.67-4.16-5.13.72-6-.12-11.9,0-17.83.18-6.92,1.05-13.82,1.29-20.74.14-3.84,2.73-3.5,4.83-3,4,1,8.65.46,12,1.68,6.68,2.47,13.11,4.37,20.26,4.56,2.79.08,6.29,8.58,5.13,11.88-1.37,3.87-.56,7,2.55,10.15-1.45-3.73.8-6.41,1.86-9.46,1.49-4.26,3.18-8.22,8.23-8.83s9,.72,11.79,5.5c2.16,3.72,4.63,7.1,5.23,11.6.66,4.88-1.15,7.72-6,8-2.66.14-5.33,0-8,.06-3.66.15-4.85,2.32-4.29,5.68.14.8.67,1.53.87,2.33,1.7,6.82,2.26,7,7.29,2.13a4.47,4.47,0,0,1,5.9-.65c2.5,1.54,1.69,4,.82,6.21H761a15,15,0,0,0-3.2-5.92c-1.51-1.86-2.77-5.67-4.68-5.35-3,.48.63,3.8-.89,6-.86,1.22-.2,3.51-.23,5.31Zm29.17-27.43c-.39-2.29-.14-4.7-3.37-4.67s-4.24,2.24-4.48,4.8a3.82,3.82,0,0,0,3.8,4.31C772.9,861.13,773.7,858.69,774.17,856.57Z" transform="translate(-0.93 -1)"/><path d="M1,590c6.58,3.73,13.14,7.3,18.54,12.94,6.22,6.48,3.48,11.88-2,15.57-1.62,1.1-4.11,1.76-2.9,4.31s3.27,2.46,5.94,1.89c6.1-1.29,12.1-2.38,16.78-7.11.86-.87,3.17-1.82,3.82,1a2,2,0,0,0,.62,1.19c3.34,1.91,3.64,5.57-.1,7.06-11.07,4.42-18.29,14-28.14,20C9.69,649.17,5.67,651.45,1,652Z" transform="translate(-0.93 -1)"/><path d="M785,884c.24-10.11.56-20.22.69-30.33.08-5.84.29-6,5.76-4.72a31.07,31.07,0,0,0,6.9.52c2.86,0,5.29.27,7.63,2.61,2.95,2.95,8.08.7,9.13-3.63a24.2,24.2,0,0,0,.69-4.92c.07-1.91.65-3.4,2.73-3.41s3.63,1.18,3.55,3.35a19.13,19.13,0,0,0,3.69,12.1c1.4,2,1.48,5.15,0,6.62-5.13,4.92-3.18,11.13-3.84,16.86a35.7,35.7,0,0,0,.12,5h-7c0-6.29-.11-12.58-.08-18.87,0-2.58-1-4.14-3.65-4.36-2.95-.25-2.83,1.88-3.2,3.91C806.89,871.09,807,877.54,807,884h-7c.1-6.28.25-12.57.29-18.85,0-1.88-.4-3.83-2.66-4.21-2.55-.43-3.48,1.55-4.15,3.45a9.38,9.38,0,0,0-.34,3.43c.24,5.39.57,10.79.86,16.18Z" transform="translate(-0.93 -1)"/><path d="M1,506c8,.44,13.84-4.76,20.58-7.59,2.71-1.13,7.48,1.11,6.85,3.76s0,6.69-5.07,7.06A46.28,46.28,0,0,0,1,517Z" transform="translate(-0.93 -1)"/><path d="M1,88c4.77,1.39,7.12,8.86,4,13.8-1.26,2-1.84,2.84.7,3.94,1.55.68,2.58,2,1.69,4.05a4.16,4.16,0,0,0-.22,2.37c1.43,7,1.44,7-6.15,5.84Z" transform="translate(-0.93 -1)"/><path d="M1,127c2,.31,1.86,3.1,4.12,3.24,1.36.08,3.63-.6,3.9,1.25.37,2.54-2.33.74-3.31,1.66s-1.37,2.45-.41,3c3.63,2.24-.32,3.19-.84,4.32-1.13,2.41-2.32.06-3.46-.51Z" transform="translate(-0.93 -1)"/><path d="M317,884c.84-4.55,4.88-6.34,10.84-4.58a15.73,15.73,0,0,1,5,2.77c-2.18,0-4.62,2.28-6.26-1.14-.67-1.41-1.87-.44-2.34.29-1.24,2-3.54,1.65-5.19,2.66Z" transform="translate(-0.93 -1)"/><path d="M1,52c2.33,3.58,2.33,10.7,0,14Z" transform="translate(-0.93 -1)"/><path d="M755,68a23,23,0,0,0-8.14.3c-2.57.63-4.5-.76-6.49-1.93a2.07,2.07,0,0,1-.92-1.55c.37-2.65-1.69-4.77-4.16-3.06-4.86,3.37-9.47.27-14.1,1-1.72.25-3.84-.48-4.3,2.22-.07.37-.67,1-.81.94-8.26-3.11-16.59,3.76-24.94-.25-2-1-3.39,2.32-6.1,2.17-6.52-.36-12.93,1.47-19.48,1.79a16.7,16.7,0,0,0-10.71,4.23,2.48,2.48,0,0,1-1.65.78c-7-.83-7.46-.72-14.49,4.14-.25.17-.67.43-.82.34-5.46-3.29-8.06,2.77-12.2,3.8-.71.17-1.31,1-2.2.63-2.74-1.16-5-2-6.17,2.25-.21.73-5.52.07-8.13-1.73-5-3.44-8.71-2.93-11.09,1.38-.42.74-1,1.47-.45,2.25s1.44.66,2.26.33c.15-.07.3-.2.45-.2,2.1,0,4.52-4.31,6-.59,1.72,4.27-2.88,1.93-4.41,2.82-4.23,2.47-4.36,2.25-8.66.5-.53,3.08-1.47,4.92-5.5,3.81a5,5,0,0,0-6.54,4.39c-.24,1.83-1.37,3-3.53,2.48-4-.91-6.41,1.06-7.67,4.68-.27.8-.31,1.74-1.36,1.76-4.92.09-7.57,5-12.15,5.71-1.76.29-3.42,1.08-3.8,2.81-.51,2.35-3.44,3.47-3.63,4.15-1.27,4.63-5.07,6.86-7.74,10.16-1,1.23-.15,5.17.8,6.32,2.41,3,1,5.2.08,7.76-.31.91-1.22,1.78-.44,2.77,3,3.82,2.64,8.17,2.28,12.61s4.28,9.37-1.18,13.5c-.57.43,0,2.2.62,2,3-1,4.74,4.34,8.38,1.21,1.09-.95,4.47.63,5.93,2.63a27.83,27.83,0,0,0,11.53,9.38c2.72,1.18,6-.25,8.81,1.92,2.5,1.89,7.56,3.17,8.22,4.38,2.64,4.86,7.83,6.42,10.82,10.28a8.42,8.42,0,0,0,5.68,3.66,19,19,0,0,1,10.65,6.33c3.12,3.42,6.88,6.12,9,10.55,1.68,3.45,3.58,7.08,3.19,10.69-.69,6.32.62,13.23-4.25,18.71-1.45,1.63-.75,3.87-.48,5.79.77,5.46,0,10.49-3.85,14.65-1.54,1.7-3.53,2.74-1.48,5.61,1,1.35-.89,2.7-2.3,3.24-2,.8-4.1,1.58-5.5,3.29-2.12,2.6-4.3,4.15-7.8,2.29-2.72-1.43-4,.38-5,3-1.28-6.95-3-13.6-.73-20.44,1-3,1.78-6.05,2.95-9,1.33-3.31-.54-4.64-3.1-4.24-6,.93-12,.65-17.93.29-3.59-.22-6.43,2.37-11.16,1.75,8-4.34,8.18-9.9,5.12-16.53A11.83,11.83,0,0,0,557,238.29a16.74,16.74,0,0,1-2.85.9c-6.22.32-7.17,1.26-8.1,7.57-.36,2.43.75,5.31-2.49,7-1.59.84-.21,1.91,1,2.35,3.25,1.24,6.5,2.49,9.78,3.64,1.15.4,3.24-.46,3.28,1.3a3.79,3.79,0,0,1-3.56,3.58c-5.23.64-8.75,4.09-12.45,7.26-.72.61-1.75,1.77-1.58,2.37,1.52,5.35-2.38,4.2-5,4.13-4.75-.13-9.91,1.36-14.1-1.72-7.14-5.25-16.26-6.37-23.41-11.72a8.51,8.51,0,0,0-9-.87c-3.17,1.46-6.8,1.6-9.34,4.73-1.66,2-3.65,3.58-1.86,6.29-1.92,1.46-3.07-2.33-4.53-.15-1,1.51-.62,3.22.18,4.76,2.19,4.21,1,7.6-2.49,10.41-1.58,1.28-1.72,2.9.19,3.35,2.71.63,2.58,4.45,5.66,4.39.69,0,.73.9.58,1.61-1.69,8-1.37,9,5.44,13.45a2.51,2.51,0,0,1,1.26,2.41c-.43,7.63,4.5,11.94,9.51,16.54,5.81,5.32,8.91,12.39,10.4,20.06,1,5.36,6.32,11.19,11.5,12.08,1.35.23,2.75.2,3,1.92.55,3.2,2.93,4.62,5.53,5.86.3.14.83.23.87.43,1.17,5.78,4.36,4.72,8,2.44.24-.15,1,.15,1.24.45.69,1.09-2.26,4,1.81,3.43a8.73,8.73,0,0,1,5.82.71c2,1.11,3.18-1.61,5.05-1.2,1.19,1.72-1,1.73-1.28,2.69-.4,1.35-.65,2.77.72,3.57,1.08.63,2.09.11,3.06-.85,3.66-3.62,6.57-3.26,8.55,1.18a5.52,5.52,0,0,0,3.4,3.3c1.34.47,2.62,1.23,1.32,2.88-.87,1.1-.62,1.78.45,2.37s2.3.71,2.8-.83c.82-2.53,2.2-2.2,4.23-1.29,4.39,1.94,12.62-.37,15.56-4.43.87-1.19,1.54-1.27,2.29-.59,3.17,2.87,6.6,2.23,10.51,1.91,7.65-.64,15.1,1.43,22.38,3.85,4.33,1.43,8.51.87,13,.1,6.93-1.16,14.24-1.84,21.15.71,9.68,3.57,19.68,6.31,28.87,11.2,2.29,1.22,3.08,2.8,2.7,5.23-.48,3-2.84,2.19-4.7,2.39-5.88.64-10.24,3.76-14.46,7.77-3.3,3.13-7.49,5.4-11.51,7.68-4.41,2.51-6.72,6.34-8.75,10.8s-5.92,1.28-8.71.9c-2.52-.34-4.75-3.17-6.63,1-.42.95-2.2.68-3.22,0-2.12-1.4-4.5-1.21-6.78-1.09-3.31.18-5.64-.36-5.26-4.46.15-1.59-.78-2.47-2.44-2.43-1.07,0-2.44.35-2.21,1.44.76,3.61-2.3,2.93-3.84,3.32a23.34,23.34,0,0,1-6.43.23c-3.06-.12-5.65.07-7.79,3.05-1.53,2.12-3.67,3.36-7.43,2.47-3.09-.73-8-1.47-10.82,3.08-1.38,2.21-6.32,1.12-6.74.65-3.95-4.41-4.37,4.12-7.36,1.78.43,1.88.85,3.77,1.31,5.65.62,2.5,2.3,3,4.57,2.37.17-.05.47.35.71.54-3,3.11-4.14,3.07-6.41-.11-1.08-1.51-2.64-3.23-4.38-2.34-2.47,1.28.74,2.55.67,4.32-6,.53-11.89,1.26-16.6-3.8-.43-.46-1.23-1.08-1.66-.95-5.31,1.5-10-2-15.21-1.7-7.86.5-15.63-.12-22.95-3.43-4.92-2.23-10.43-1.25-15.49-3-7.16-2.53-14.86-2.29-22.27-3.55-2.21-.37-4.37-2-4.49-3.51-.45-5.64-3.24-11.11-1.65-16.86a16.3,16.3,0,0,0,.65-5.39c-.59-9.94-.37-19.9-.83-29.86-1.65-35.11-.84-70.29-.82-105.44,0-38.66,1-77.36-.37-116-1-28.08-.63-56.13-1.06-84.19-.11-7.24.41-7,7.64-7.77,6.49-.72,13.13-.53,19.5-2.71,4-1.36,8.49-1.29,12.57-1.64,6.74-.57,13.42-2,20.25-2.08,5.35-.09,10.71-1.5,16-2.49s10.43-.85,15.58-2.22c9.84-2.61,20.17-2.35,30.19-4.56,5.31-1.17,11.09-1.54,16.56-2.49,11.5-2,23.3-1.27,34.72-4.51a49.38,49.38,0,0,1,13-2.22c8.21,0,16.15-1.87,24.2-3.24,6.78-1.15,13.58-2.64,20.37-3.76,9.36-1.56,18.84-2.42,28.2-4,8.23-1.38,16.45-3.48,24.83-3.88,6-.3,11.66-1.91,17.45-3.17,5.62-1.22,11.46-.54,17.21-1.9,9.38-2.22,19.11-2.63,28.55-4.83,4.49-1.05,9.26-.17,13.87-1.31,1.78-.44,3,1.49,2.26,3.41-1.23,3.1-.33,6.3-.8,9.39-1.3,8.55-2.4,17.16-3.32,25.72-1,9.54-1.52,19.2-3.68,28.5-2,8.54-2.34,17.15-3.56,25.67-.54,3.78-2.7,7.47-2.89,12-.31,7.67.08,15.46-1.6,23.05-.43,1.93-1,3.84-1.55,5.73-1,3.1-.57,6.24.06,9.37-2.29.29-1-2.6-2.83-2.36-.17.23-.53.53-.49.72,2,8.11,1.13,16.36,1.29,24.56a3.91,3.91,0,0,1-1.44,3.51c-2.37,1.89-1.94,4.94-1.1,6.92,3.67,8.69.39,17.21.15,25.8-.26,8.93-5.51,17-4.06,26.28.72,4.67-3.5,8.31-8.41,8.52A4.72,4.72,0,0,0,780,260c-3.26,3.53-7.29,4.74-12,5-3.5.19-6.91,1.12-9.34,4.59-3.13,4.46-10.15,5.91-15.13,3.78-1.6-.69-3.3-1.43-4.71-.2-7,6.07-15.74,4-23.73,5.45-5.21.92-10.73-.55-14.75-2.38-4.86-2.21-11.42-3.52-14.06-9.7a10,10,0,0,0-4.38-4.68c-1.5-.84-2.34-1.94-2.14-3.58.72-6-3.71-8.44-8-9.9-3.37-1.15-3.24-2-2-4.73,1.67-3.62,1.64-7.68,1.14-11.52-.36-2.68,1-4.86,2.5-5.51,7.51-3.24,12.49-9.41,18.32-14.62,1-.92,2.77-1,4.07-1.69,1.76-.91,4.49-.45,4.89-3.46.06-.43,1.33-.9,2.08-1,5.84-.68,11-4.07,17-4.2,3.68-.08,5.2-4,8.75-5.05,6.83-2,13.37-3.34,20.38-1.25,2.94.88,6.11-.53,8.59-1.42,5.8-2.08,10.88-1.55,16.37.6,2,.77,4.54-.26,6.82-.14,3.62.2,1.87-3.3,3.34-4.6.56-.5.48-1.93,1-2.19,7.58-3.44,4.15-10.13,4-15.36-.07-3.38-.56-6.93.18-10.13s-1-5.78.73-9.28c2.53-5.2,5.18-10.58,6.77-16.33,1.52-5.46,1.24-11,.5-16.28a8.68,8.68,0,0,1,.48-4.93c-4-1.25-1.1-4.92-2.51-7.12a36.24,36.24,0,0,1-4.83-10.93c-.94-4.4-3.49-8-4.49-12.29-1.52-6.53-7.37-10.37-13.61-12.72-1.86-.7-3.75-1.13-5.39-2.35-1-.75-9-.38-10,.3s-1.3,3.57-3.14,2.14C751.52,70.59,755.4,70.06,755,68Zm8.69,156c3,.58,6.11,1,9.11,1.76,2.51.6,2.61,5.78,6.83,3.73.24-.11-.08,1.51-1,2a1.34,1.34,0,0,0-.65,2.05,1.24,1.24,0,0,0,1.75.41c1.79-.9,3.16.59,4.75.73,2.42.22,4.58-.44,4.36-3.36-.52-6.87-5.91-11.27-13.19-10.88-1.74.09-3.4-.08-2.83-2.16,1.25-4.53-1.85-5-4.82-5.68a39.38,39.38,0,0,0-18.19.17c-2.47.61-5.4,1-6.39,3.12-1.44,3.12,2.63,3.09,3.79,4.78,1.62,2.39,4.5,1.89,6.44,3.44,1,.84,2.21.31,2.87-.92.44-.83.63-2.17,2-1.59,1.14.5.61,1.66.6,2.63a3.71,3.71,0,0,0,3.83,3.62C765.74,227.53,762.48,225.44,763.71,223.92Zm-242.78-8.07c6.19.26,12.58,1.06,15.79-6.22.44-1,1.88-1.92.86-3-1.19-1.28-2.05.22-2.79.95-2,2-3,2.14-3.73-1.14-.83-4-4.13-5.38-7.81-3.7-3.28,1.51-6.48,3-10.33,1.74-2.08-.68-4.72.76-5,2.28-.45,2.78-3.33,5.39-1.14,8.46.78,1.1,1.7,2.11,3.31,1.43C513.65,215.17,517.36,216.31,520.93,215.85Zm208.51,47.57c2.25-.65,5.69.48,7-2.85.9-2.25-.88-4.16-2.16-5.72-2.88-3.52-4.91-.17-7.43,1-2.36,1.11-4.48,2.5-3.63,4.92C724,262.88,726.65,263.62,729.44,263.42ZM634.27,409.91c-7.62-.51-8.47.47-6.56,6.8.84,2.81,2.08,3.64,4.35,1,1.59-1.86,3.2-3.82,5.61-4.76.8-.32,1.61-.71,1.5-1.68-.14-1.31-1.25-1.32-2.26-1.34S634.6,409.91,634.27,409.91ZM514.18,431.14c-4-.15-8.36-1.69-9.11,3.89-.46,3.38,2.89,3.84,4.71,3.79C515.33,438.67,511.15,433,514.18,431.14Z" transform="translate(-0.93 -1)"/><path d="M435,425c3-.2,5.63-1.8,8.44-2.71,2.23-.72,2.82.12,2.25,2.15-1.41,5.08-.7,10.31-1.2,15.44-.21,2.28-1.17,4.69-3.87,5.16-6,1.06-12,1.62-18,3.1-6.67,1.67-13.46,2.9-20.18,4.42-1.1.25-2.45,1.18-3-.26s1.1-1.7,2.17-2a8.41,8.41,0,0,0,5.17-4.35c-6.6-1.66-7.21-1.42-9.63,3.91-.36.8-.61,1.51-1.54,1.72-12.29,2.79-21.82,11.32-33.2,15.88-5.73,2.3-12.1,3-18.16,4.48C333,474.73,321.41,476,310,478.05a50.35,50.35,0,0,1-6.31.49c-4.5.25-6.47-2.62-5.08-6.85,1-3,.44-7.45,5.86-6.5.17,0,.51-.39.62-.66,1.76-4.59,1.75-4.6,6.79-3.12s11-2,12.83-6.74c1.26-3.3,4.14-4.44,7.5-3.38s4.58-.64,5-3.53c.08-.58.19-1.55-.74-1.47s-2.12,2.61-2.67-.22c-.37-1.91,1.1-2.72,2.74-2.76s1.76-1.92,3.16-2c.93.89-.25,1.52-.2,2.2.17,2.27.52,4.58,2.51,6.07.61.45,1.68-.38,1.57-.72-.87-2.7,3.55-6,0-7.83-4.83-2.49-3.65-6.64-3.95-10.31-.2-2.42,1.49-4.32,4.1-2.54,1.65,1.14,4.1,1.35,4.86,3.81.51,1.65,1.94,3.44,3.58,2.71,2.26-1-.84-2.75-.16-4.29s-1.83-1.23-1.38-3.14c2.85,3.24,4.25-1.21,7.16-1.09,3.13.12.36-5.25,2.92-7.4,2.08,1,.8,2.85,1.06,4.27.15.84.26,1.74,1.25,1.89s1.29-.29,1.7-1.26c1.67-4,10-9.09,14.26-8.93,1.37,0,1.89-.42,1.34-1.71-.31-.73-1.12-1.25-.85-2.22.82-2.95.82-2.95-3.62-2,4.2-3.7-1.78-9.88,5.23-12.48-3.41.22-5-1.72-6.75-3.69-1.15-1.32-2.42-3.5-4.44-.75a1.3,1.3,0,0,1-2.14.18,1.92,1.92,0,0,1-.15-2.63c2.52-4.4,5.43-5.51,9.71.39-.57-12.58,6.27-19.78,12.42-27.33.88-1.08,1.49-.55,2.48-.06a14.93,14.93,0,0,0,4.69,1.38c3.47.45,5.27-1.78,4.13-5.08-.53-1.56-.7-3.29.36-4.25,3-2.7,2.05-5.2-.68-8,3-.79,7.05.57,6.28-4.17,0-.28.58-.87,1-1,7.94-2.59,7.19-10.78,10.6-16.28,1.79-2.88,1.15-7.89,6.52-7.85.77,0,1.44-.83,1.14-1.3-2.14-3.28,1.62-5.49,2.53-5.76,5.25-1.57,2.07-4.63.79-5.86-4.41-4.27-1.24-8,1.47-9.89,4.94-3.41.75-3.36-1.18-4.57,6.18-2.46,2.75-7.44,1.69-10.34-1.43-3.9-2.42-9.4-8.43-10-.42,0-.73-1-1.12-1.52-1.87-2.53-3.35-5.42-7.46-2.67-1.25.84-3.8-.42-5.75-.46a45,45,0,0,0-24.2,6.66c-4.11,2.45-8.61,3-13.38,3.74a17.27,17.27,0,0,1-14.57-4.56c-4.23-4.41-9.4-4.6-13.91-7.05-.15-.08-.38-.09-.45-.21-3.86-6.32-11.19-4.35-16.73-6.49-4.7-1.82-10.69-.72-16.05-.26-3.13.26-5,3.34-5,6.11.05,4.05-1.47,7.77-1.52,11.76-.07,5.62-2.42,6.49-7.38,4.27-4.38-2-7.26-6.24-12.16-7.18-1.1-.21-1.51-1.06-1.7-2.17-.68-4-3.09-6.07-7.18-6.16-3.15-.06-3.59-1.81-1.68-3.71,5.35-5.34,5-12.6,7-19.1a1.15,1.15,0,0,0,0-.49c-.59-3.57-4-7.46-2.11-10.39,2.27-3.51,2.63-7.28,4.14-10.79,1.12-2.62,3.5-4.67,5.14-7.09,4.69-6.92,12.06-9.54,19.39-12.17,1.48-.54,2.91-.62,2.95-2.63,0-1.64.89-1.46,2.31-1.4,3.54.14,5-1.8,3.17-5-1.44-2.51-.81-4.53,1.32-5.46,5-2.22,9.86-5.45,15.53-5.65,3.29-.12,6.12-1.87,9.1-2.07,5.89-.39,9.31-5.5,14.73-6.66,2.41-.52,4.59-1.79,7.82.14-1.26-3.76.06-7.13-3-9.51-.58-.45-.74-2-.5-2.84,1-3.43,2.85-6.87-.91-9.84,3.5-4.1-1.76-8.51-.71-10.83,2.2-4.86-2.79-6.1-2.68-8.68.23-5.55-1-8.79-6.28-11.74s-6.8-9.89-12.37-13.83c-6.31-4.47-13.1-6.23-20-8.36-1.18-.36-1.73-.35-1.57-1.66.05-.41-.32-.88-.5-1.32-4,2.66-7.79-3.83-11.82-.23a3.49,3.49,0,0,1-1.78.8c-3.94.45-7.61,5-11.67,1.63-3.84-3.15-.48-7.42-.63-11.18,0-1,.12-2.34-.43-2.81-1-.9-2.37,0-3.07.83-2,2.23-5.71,4.27-1.46,7.82,1,.86,1.38,2.24,0,3.59-2.1-2.69-4.53-4.8-3.66-9,.51-2.5-3.86-4.23-3.79-6.21.14-4.46-3-3.63-5.2-4.29-4.09-1.21-8.54-3.09-12.34-3.06-7.29,0-13.19-2.77-19.5-5.3-1.83-.74-4.13,1.28-6.47,1.62-5.23.76-10.57-1.29-15.7.94-2.05.89-2.28-1.3-3.15-2.38-2.58-3.19-5.55-3.26-7.6,0-2.67,4.3-7.31,4.59-11.12,4.28-3.27-.27-3.22.7-3.11,2.82,0,.75.83,2.18.08,2.12-3.13-.26-5.44,1.29-8.11,2.43-1.76.75-2.18-.1-1.75,2.1.22,1.12,1.11,2.48-.22,3.14-1.81.89-1.4-1.28-2.09-2s-1.54-1.52-2-.88c-3.63,4.55-7.81-1.06-11.83.76-1.91.86-1.29-3-2.74-4.06-2.33,4.58-6.76,6.66-11.89,6.15-1.86-.19-3.83.64-5.74,1.08-5.88,1.35-11.75,7.58-11.79,12.75,0,2,1.88,3.65-1.22,5.71-1.32.88,2.34,4,4.72,5.24,1.17.6,2.6-.73,4.21.74-2.22,2.47-6.35,3.44-6.41,7.78,0,1.49-.38,2.93.42,4.24,2,3.28,3.33,6.46.88,10.21-.86,1.32.52,2.85,1,4.22s1.81,2.7.39,4.5a1.7,1.7,0,0,0,1.05,2.76c3,1,3.19,2,1.34,4.93-1.66,2.6-1.75,5.22-4.61,1-.42-.62-3-.51-4,.17-1.37,1-.38,2.4.81,3.23s.84,2.18.41,3.15c-1.61,3.6,3.08,7,.15,10.76-.41.53,1.45,1.68,2.16.86,2.09-2.41,5.49-3.7,6.44-7.89,1.27,2.65,3.19,4,5.61,3.19,4.48-1.53,9.6-1.61,13.32-4.91,2.83-2.5,6.28-3.56,9.6-4.79,4.06-1.5,8.21-2.59,11.33-5.87a6,6,0,0,1,4.59-1.64c1.81,0,3.94-.83,4.44-1.88,3.7-7.8,12.24-7.33,18.25-11.1,3.52-2.22,6.77-4.73,8.94-8.33a3.39,3.39,0,0,1,2.14-1.75c8.34-2.53,16.79-4.82,23.17-11.44.91-.94,2.7-1.28,4.13-1.4,3.92-.35,7.2-4.25,11.55-2.07a2.16,2.16,0,0,1,.06.9c-2.53,6.29-7.41,7.93-13.8,7.64a7.28,7.28,0,0,0-5.84,3.48c-2.77,4.78-9.16,5.16-11.79,10a1.62,1.62,0,0,1-1.33.58c-7.5-.64-12.21,4.77-18.14,7.78-7.85,4-14.39,9.78-22.1,13.92-5.48,2.94-10.29,6.63-16.84,7.6-2.55.37-4.11,4.6-7.07,6.27a17.82,17.82,0,0,0-3.95,3.2l4.49.34c-2.52,1.71-2.31,4.81-5.33,5.2-.62.08-1.13,1.35-.6,1.47,2,.46.83,3.75,3.46,3.58,6.08-.38,10.68,4.29,16.24,5.05,4,.56,7.32,2.59,10.87,3.84,7.31,2.57,14.49,6.15,19.83,12,2.54,2.79,5.15,4.32,8.73,4.58,1.56.11,3.08.33,3.31,2.3s-1.15,2-2.49,2.42c-1.79.52-3.78,1.41-3.4,3.62s2.73,1.62,4.19,1.52c3.28-.24,4.46.88,6,4.09s3.74,6.37,5.65,9.57c3.36,5.64,1.81,11-4.46,13.21-2.55.9-2.89,2.9-3.31,5a21.25,21.25,0,0,1-10.93,14.83c-3.79,2.09-8.36,3.42-12.82.76a3.64,3.64,0,0,0-2-.34c-15.73.8-31.34-2.2-47.07-1.55-5.29.22-8.67,4.28-7.75,9.52.47,2.67-.31,5.27-1.09,7.67-.59,1.81-2.65,3.5-4.79,2.75-2.51-.89-6-1.4-6.17-4.95a152.54,152.54,0,0,1-.14-15.42c.16-4.15,0-5.27-3.72-7.54-4.23-2.6-7-6.8-11.72-9.13-4.51-2.23-3.28-7.95-3.43-12.28-.08-2.14-.19-3.53-2.25-4.27-6.87-2.46-7.65-8.65-8.52-14.52-.54-3.58,0-7.32-.16-11-.11-3.07.49-5.66,3.61-7,1.91-.8,2.11-2.12,1.85-4-.9-6.5-2.68-13-3.11-19.36-.46-6.56-1.9-12.92-2.38-19.44-.87-11.84-2.41-23.64-3.73-35.44-.8-7.1-1.15-14.31-2.74-21.24-1.79-7.76-.38-15.81-3-23.49C88,65,88.6,60.36,88.07,55.93c-.84-7-2.3-14-2.65-21.11-.19-3.86-1.31-7.38-2.15-11-.55-2.34-1-4.61-.3-6.86.46-1.57,1.54-3.54,3.47-2.82,8.79,3.25,18.29,3.21,27.16,6.39,5.22,1.88,11.24,1.73,16.93,2a36.23,36.23,0,0,1,11.41,2.84c4.3,1.67,9.08.92,13.66,2a233.73,233.73,0,0,0,28.57,4.82c11.15,1.24,21.78,4.78,33,5.8,7.21.66,14.59,1.58,21.66,4.18,4.54,1.67,9.95-.16,14.69,1.81,9,3.77,19.21,1.2,28.24,5.28,1.57.71,4.55.53,5.74-.53,5-4.43,11.09-3.27,16.21-2.24,12.57,2.54,25.24,4.52,37.93,5.91,6.68.72,13.28,2.14,20.09,2.37,7.83.26,16.63.34,23.17,3.89,11.29,6.14,22.8,5.64,34.61,5.65,4.13,0,7.27,2.51,10.32,4.54a20.55,20.55,0,0,0,11.5,3.9c2.57,0,3.51.92,3.5,3.51q-.09,38.51,0,77a5.38,5.38,0,0,1-1.74,4.49c-4.79,4-9.15,8.75-16.34,7.93-2.76-.32-7.05,0-6.86,2.81.25,3.53,4.6,2,7.22,2.1,2.38.11,4.44-1.3,6.39-2.57a6.8,6.8,0,0,1,6.23-.66c2.31.93-.14,2.8-.06,4.31.51,10.15-.32,20.31.5,30.46a50.18,50.18,0,0,1-.4,8.91c-.75,7.5,1.07,14.8,1.52,22.2.2,3.41-1.23,6.61-.27,10.26.78,2.93.53,5.88,3.93,7.27.85.35.85,1.31.85,2.17.07,7.62.79,15.19-.62,22.85a38.15,38.15,0,0,0,.39,14.84c1.42,6.7-.06,13.65.62,20.42,1.5,15-.93,29.89,0,44.82a117.55,117.55,0,0,1,0,17.2c-.24,2.82,1,6.23-3.6,6.83-1.18.16-1,1.39-.71,2.46,2.68,9.66,1.25,19.54.88,29.26-.13,3.41-3.7,6.73-5.84,10-.74,1.12-1.7,2.05-1.75,3.48a6.19,6.19,0,0,0-5.59.88c-.81.54-2.63.49-1.77,2.21.61,1.2,1.88,2.31,3.18,1.52C432.69,428.64,435.51,428.16,435,425Zm-39.55-18.3c-.19,1.77,2.21.91,1.9,2.57-1,5.1-3.78,9.34-6.27,13.72-.43.74-1.55,1.22-2.17.58-2.8-2.83-5.58,0-8.24.17-2.38.19-3.71,2.78-2.67,5.38,1,2.42-.92,6.52,3.89,6.92.51,0,.25,1.54-.21,2.24-1.58,2.43,0,4,1.76,4.88,2.71,1.42,2.15-.62,1.83-2.15.25,0,.56-.11.73,0,2.8,1.89,3.78-1,5.38-2.09,6.35-4.25,9.64-11.4,15.47-16.27a8.57,8.57,0,0,0,1.58-12.08c-1.7-2.45-3.57-4.46-.69-7.54-4.09,1.2-5.36,4.17-6.37,7.71C401.41,406.18,399,405.78,395.41,406.69ZM344.78,234.58c-4.2.14-8.87-1.12-11.63,2.22a27.56,27.56,0,0,0-6,13.83c-.23,1.69.79,3.34,2.4,3.25,5.3-.3,10.33,2,15.77,1,4.06-.73,7.19-3.23,10.91-4.53,1.74-.61-1.74-3-1.33-5.18a13.65,13.65,0,0,1,1.18-4.27c1.41-2.6.52-4.17-2.21-5.42C350.76,234.09,347.62,235,344.78,234.58ZM378.11,206c-.23,1.8-3.22,2.84-1.8,2.88,4.64.13,5.66,3.76,8.1,6.14,1.64,1.61,4.22,1.28,6.2.66,2.26-.71,0-2.53.3-3.84,1.06-4.12-1.77-5.24-4.62-7.31-3.52-2.56-6-6.4-11-6.54-3-.09-6.22.12-6.81,3.35-.67,3.64,2.58,4.5,5.52,4.81A28.56,28.56,0,0,0,378.11,206Zm-4.85,245.75c3.16.06,4.31-2.3,6.06-3.72.84-.67,2.54-.86,2.23-2.3s-1.82-1-2.9-.88c-1.42.15-2.23-.36-2.33-1.84-.24-3.76-2.44-3.61-4.68-2-1.45,1.06-2.73.63-4.16.75-2,.17-4.82,1-5,2.77a5.51,5.51,0,0,0,3.09,5.26C368.17,450.86,371.21,450.19,373.26,451.75ZM177,246.14a12.11,12.11,0,0,0-.63-1.24c-2.84-4.59-12.3-5.07-15.58-.85-.78,1-.69,1.61.27,2.44,1.73,1.52,11.6,3.1,13.66,2.06C175.76,248,177,247.69,177,246.14Zm241.35,192.2c2.07-1.29,4.62-2.74,7-4.43.86-.6,2-1.62,1.24-2.94s-2.42-1.34-3.54-.8a18,18,0,0,0-6.67,5.87C415.45,437.41,416.27,438.16,418.38,438.34Zm-3.31-64.77c2.7.21,5.38,4.72,8,.15,1.08-1.85-.39-2.9-1.46-3.73C417.3,366.67,417.4,372.44,415.07,373.57Z" transform="translate(-0.93 -1)"/><path d="M120.67,588.05c-1.63-4.15.51-8.4-1.68-12.2,4.12,1.53,6.87,4.85,10.23,7.18,8.1,5.63,17.68,9.15,24.33,16.91,3.53,4.11,3.8,9.42.19,13.3a27.33,27.33,0,0,0-2.39,2.55c-1.17,1.65-4.52,2.81-3,5.05,1.62,2.46,4.83,3.29,8,2.51,4.75-1.17,8.58-4,12.28-7,3.05-2.5,5.51-1.61,8.31.78s1.26,4.39.24,6.58a2.58,2.58,0,0,1-1.44,1.24c-10.07,3-16.39,11.08-24,17.4-10.84,9-27.85,12.61-41.33,2.37-3.32-2.52-8-3.05-12.42-2.52-.86.11-1.68.28-1.8,1.33s.61,1.38,1.3,1.9c4.24,3.12,8.48,6.09,11.32,10.89,1.83,3.1,1.82,5.12-.77,7.3-2.15,1.81-4.41,3.49-6.5,5.37a2.94,2.94,0,0,0-.83,3.63c.62,1.3,1.87,1.1,3,1.27,6.49.94,11.56-2.22,16.36-5.83a15.48,15.48,0,0,1,5.16-2.67c5.68-1.67,6.33-1.43,8,4.07.36,1.27.88,2.48,1.3,3.73.85,2.46.73,4.23-2.6,4.3-8.49.17-14.86,4.82-20.85,10.19-4.37,3.92-8.25,8.61-13.16,11.67-6.47,4-14.12,4.56-21.46,2.4-6.28-1.84-12.29-4.64-18.44-7a13.24,13.24,0,0,0-3.33-.84c-5.6-.57-6.57-2-4.18-7.29a25.17,25.17,0,0,1,15.83-14.07c5.71-1.85,7.42-7.27,3-11.34-5.11-4.69-8.32-10.56-12.1-16.13-2.46-3.63-2-8-3.57-11.79-.82-2.05.93-2.41,2.7-1.48,3.68,1.93,7.41,3.73,11,5.73,2.58,1.42,3.94,1.33,4-2.12.06-2.89-1.55-7.25.89-8.29,2.7-1.16,4.3,3.33,6.59,5.1,4,3.14,8.74,5.36,12.37,9.13,1.33,1.38,3.49,1.29,4.42-1.09,3.9-9.95,10.57-16.95,21-20.19,2.72-.84,3.08-6.38.56-8.36a38.5,38.5,0,0,1-13.36-20.3c-1-3.43-3.83-6.22-3.2-10.27.5-3.16,2-3.51,3.84-1.5C108.86,584.39,115.6,584.36,120.67,588.05Z" transform="translate(-0.93 -1)"/><path d="M230.36,639.6q5.4,5.11,10.82,10.21a16,16,0,0,1,3.78,5.78c1.3,3.14,1.37,5.83-2.22,7.49a2.12,2.12,0,0,0-.75.65c-1.93,2.48-7.33,2.51-5.56,7.55.58,1.64,9.74,1.87,12.39.26,3.68-2.23,7.11-4.89,10.83-7.07,5.7-3.32,8.39-2.42,10.34,3.93a20.81,20.81,0,0,0,3.32,6.85c-4.92,1.2-9.55,1.75-13.9,3.49-6.84,2.74-11.65,8.3-16.49,13.18-5.92,6-13.36,6.58-20.32,9-8.64,3-16.9.11-24.37-3.79-4.46-2.33-8.49-4.74-13.66-4.72-1.93,0-2.63-1.26-1.61-3.09,3.94-7.13,6.53-15,16.15-17.5,7.39-1.88,8-7.75,2.86-13.65a71.53,71.53,0,0,1-14.57-27.67c-.22-.78-.52-1.75.26-2.33,1.21-.89,1.74.39,2.37,1a28.08,28.08,0,0,0,11.66,6.43c2.43.75,3.43-.07,3.31-2.59-.08-1.82,0-3.66.06-5.49.06-1.26-.42-2.92,1.2-3.48s2.44.85,3.3,1.79c4.51,4.93,9.42,9.38,15.46,12.36,1.68.83,3.31,2.39,5.51,1.52Z" transform="translate(-0.93 -1)"/><path d="M21.1,593.66c3.91.51,6.49.54,8.22-3,1-2,4-.64,6.08-.8,1.69-.14,4-.24,3.7-2.26s-2.4-.51-3.71-.44c-5.92.3-11.79,1.47-17.75,1.11-1.38-.08-3.3.5-2.46-2.24,2.36-7.65,13.43-15.93,20.56-17.08,1-.17,2.22.37,3.34.58,1.21-8.65-4.32-13.7-9.52-19.1-4.16-4.3-6.51-9.93-8.47-15.43-.83-2.34-1-5.34-1.88-8.57,6.31,3.69,12.05,7,17.73,10.4A7.15,7.15,0,0,0,41.19,538c1.19-.08,2.22-1.08,1.24-1.88-3.13-2.58-1.25-6.8-3.49-9.62a2.17,2.17,0,0,1,.24-2.79c.77-.77,1.46-.12,2.12.42,8.06,6.61,18.08,9.81,26.77,15.33,7.25,4.6,8.07,8.25,3.82,15.53-2.25,3.85-5.09,7.38-6.55,11.69-1,3.06-.38,4.76,3.26,4.78,8,0,15.64.31,21.71-6.91,4.21-5,10.58-3.16,13.87,3,.94,1.76-.39,1.85-1.63,2-6.51,1-11.5,5-16.24,9-7.92,6.77-16,13.53-25.65,17.31-8.14,3.18-17,3.92-25.48-.31-1.4-.71-2.9-1.39-4.22-.37C27.65,597.81,24.83,596.49,21.1,593.66Z" transform="translate(-0.93 -1)"/><path d="M481.39,874.77A27.87,27.87,0,0,1,464.76,871c-4.28-2.59-3.79-6.73-4.14-10.51-.17-1.93,2.05-2.22,3.78-2.39,4.66-.48,8.78,1.09,13,2.91,5,2.16,9,.35,9.76-3.94.77-4.07-1.15-5.47-5.26-5.11-10.35.91-15.56,1.61-19.82-6.17a34.69,34.69,0,0,1-4.71-17c.12-8.37.75-16.66,4.39-24.5,2.85-6.17,12.45-10.46,18.34-7.07,5.23,3,10.42,3.4,16.15,2.43,8.05-1.37,12,1.91,11.7,9.93-.54,14.43-1.57,28.85-2.14,43.28C505.17,868.21,498.94,875.87,481.39,874.77Zm6.68-51.39c-.26-2.58-.45-4.72-.71-6.85-.23-1.83-1.18-3.16-3.1-3.34A3.81,3.81,0,0,0,480,815.8a39.82,39.82,0,0,0-1.92,17.61c.29,2.87,2.22,4.69,5.44,4.65s3.66-2.53,3.8-4.78C487.51,829.82,487.21,826.33,488.07,823.38Z" transform="translate(-0.93 -1)"/><path d="M616.2,306.74c-.85,4.51-3.51,8.81-4.4,13.7-.65,3.58-.47,6.17,2.17,9,4.8,5.19,9.51,10.46,14.62,15.36a3.7,3.7,0,0,0,4,1c3.77-.86,7.49-2,11.39-.15a4.64,4.64,0,0,0,3.83-.42c4.82-3.12,9.48-1,13.76.73,2.45,1,3.11,4.31,2.08,7.2-.94,2.61-2.2,5.39-5.62,4-8.59-3.39-16,0-23,4.17a16,16,0,0,1-9.15,2.6c-2.5-.07-5-.08-7.5,0-2.33.09-4.28-.22-6.27,2.49-3.15,4.28-16.64,3.29-19.8-1.06-1.72-2.37-4.48-1.34-6.68-3.71-8.15-8.83-8.51-18-4.41-28.44,2.14-5.45,4.85-10.69,3.3-17.14-.67-2.79.77-6.29,5.39-5.88,3.46.31,6.81,0,7.28-4.73.06-.69,1.07-1.9,1.46-1.83,3.84.68,5.48-3.72,8.93-3.76.17,0,.37.06.49,0,2-1.12,4.27-4.84,5.9-3C615.82,299.11,615.5,303.13,616.2,306.74Z" transform="translate(-0.93 -1)"/><path d="M69.75,414.44a5.61,5.61,0,0,1-2,4.88A17.22,17.22,0,0,0,66,421.1c-2.57,3.06-5.1,6.14-6.55,9.94,4.88.1,9.49,2.24,14.53,1.57,6.28-.84,11.55-3.95,16.82-7,3.15-1.79,5.28-1.91,7.43,1.2,1.08,1.57-.27,7.21-1.92,8.27-3.25,2.09-7.05,1.18-10.51,2.29-10.16,3.27-18,10.25-26.64,16A49.34,49.34,0,0,1,44.3,460c-5.52,1.48-8.36-2.41-6.83-8.89,2.06-8.68,2.05-8.67-4.88-13.24a4.93,4.93,0,0,1-2.27-3.17,4.19,4.19,0,0,1-.1-1.49c1.63-8.69-1.61-15.66-7.35-21.94-4.53-5-5.6-11.46-7.23-17.68-.35-1.37-.58-2.71.86-3.53s2.47.39,3.41,1.27c4.76,4.44,11.1,5.57,16.84,7.89,1.75.71,2.94-.44,1.6-2.51s-2.22-4.13-.39-6.33c.63-.77.81-1.52,0-2.15a1.13,1.13,0,0,0-1.94.61c-.39,1.26-1,1.07-1.65.35s-1.47-1.73-1.35-1.87c2-2.34,2.58-6.13,7-6.1,3.3,0,5,.41,5.31,4.41a12,12,0,0,0,8.05,10.84,31.89,31.89,0,0,1,13.21,9.29A12.2,12.2,0,0,1,69.75,414.44Z" transform="translate(-0.93 -1)"/><path d="M656.56,852.91c0-4.83,0-9.66,0-14.48,0-2.54.16-5.28-3.71-5-3.35.2-5.06,1.71-5.23,5.29-.4,9-1.07,17.91-1.62,26.86-.16,2.51.08,5.58-3.84,4.74-3.33-.72-8.32.75-8.14-5.51.26-9.14.31-18.28.5-27.43,0-2.49,0-4.93-3.26-5.08-2.92-.14-4.49,1.35-4.85,4.43-.91,7.62-1,15.26-1.25,22.9-.09,2.48.34,5.81-2.24,6.62-3.35,1.06-7.41,1.63-10.6-.47-2.63-1.74-2.11-4.82-1.56-7.77,2.13-11.32,2-22.81,2.19-34.26.13-8,1.13-8.82,8.58-6.89,4.69,1.21,9.09,3.31,14.29.58,1.79-.94,5.3.93,7.6,2.78,3.24,2.61,6.42,3.55,10.93,2,7.73-2.65,13.77,1.55,14.27,9.79.6,9.75,1.21,19.58-.8,29.3a21.13,21.13,0,0,0-.22,6.41c.27,2.84-.9,5.76-4.29,5.4-2.92-.31-7.09.11-6.82-5.18.26-5,.06-10,.06-15Z" transform="translate(-0.93 -1)"/><path d="M538.89,835.87c-1.33-6.56,1.36-13.23,2.62-20,.6-3.2,3.61-6.13,6.66-7.64,5.48-2.71,22.06-2.64,28.11,4.4,3.69,4.29,4.09,8.88,3.66,13.9-.24,2.73-2.58,2.64-4.57,2.7-3.89.11-7.3-.71-8.71-5-.63-1.92-.32-4-2.93-5.27-3.56-1.7-6.13-.57-6.49,2.57-.88,7.82-3.35,15.59-1.36,23.61.75,3,1.65,6.38,5.12,6.38,3.25,0,4-3.65,4.83-6.2.73-2.35,1.42-3.67,4.2-3.83,8.32-.46,10.63,2.22,8.48,10.35-2.31,8.72-6.9,12-17.73,11.23C546,862,540.26,857,538.9,840.92,538.78,839.43,538.89,837.93,538.89,835.87Z" transform="translate(-0.93 -1)"/><path d="M688.29,826.8c10.42-.9,16.23,8.39,17.23,18.63.57,5.82,1.56,11.58.71,17.62-1,7.14-5.76,13.46-12.83,14.81-5.82,1.12-13.35-2.16-15.28-7.64-4.28-12.1-6.27-24.39-.43-36.72C680.52,827.52,681.52,826.8,688.29,826.8Zm6.88,27.38c-.4-4.82-.72-8.45-1-12.08-.16-2.1-.39-4.08-3.14-4.2a4.26,4.26,0,0,0-4.81,4,87.1,87.1,0,0,0-.87,9.4,107.89,107.89,0,0,0,0,10.94c.19,3.06,2,4.78,5.22,4.83s3.71-2.3,4-4.67C695,859.29,695.63,856.17,695.17,854.18Z" transform="translate(-0.93 -1)"/><path d="M533,816.46c-.54,11.93-1.14,25.14-1.75,38.36,0,.65.06,1.64-.31,1.91-4,2.86-8.56.88-12.85,1.39-1.94.22-3.09-.66-3.46-2.69a33.56,33.56,0,0,1-.77-7.38c.28-7.78.53-15.58.34-23.37-.14-5.92,1.21-11.69,1-17.63-.1-3.64,2-6.43,6.6-4.61a3.7,3.7,0,0,0,.94.31C534.32,804,533,806.78,533,816.46Z" transform="translate(-0.93 -1)"/><path d="M386.13,726.77a67.27,67.27,0,0,0-7,.05c-4.08.43-5.35-1.88-4.3-5.05,2.48-7.5,1.28-15.14,1.32-22.7,0-5.55,3.71-9.1,6.1-13.3,1.18-2.08,2.81-.29,3.39,1.49,3.7,11.43,7.26,22.9,11.1,34.28,1.47,4.35.15,5.75-4.18,5.32-2.14-.21-4.31,0-6.47,0Z" transform="translate(-0.93 -1)"/><path d="M138.42,351c-3-.32-5.73-.19-7,3.21-.34.91-1.46,2.22-2,1-1.5-3.12-4.41-2.29-6.73-3.21-3.1-1.23-5.88-3.12-2.57-7,.32-.37.86-1,.75-1.21-4.07-6.54,2.69-4.76,4.84-5.94,6.44-3.53,14.08-1.31,20.87-3.93,3.54-1.36,11.33-6.46,12.9-9.75,1.36-2.85,4.32-2.44,6.69-3.14.57-.16,1.14.82.86,1.47-.69,1.61-.79,3.56-2.71,4.52-7.29,3.62-14.49,7.35-19.53,14.14-.72,1-2.35,1.19-3.34,2s-2.44,2.28-.79,3.7c1.13,1,2.84,1.53,2.1,3.38C141.74,352.81,139.78,350.28,138.42,351Z" transform="translate(-0.93 -1)"/><path d="M28.32,260.63c-1-1.24-2.23-.72-3.34-.72-1.85,0-3.07-1-2.71-2.74.65-3.21,1.7.4,2.46,0,7-3.63,4.47,2.38,5,5.05,1.29,6.24,2.5,12.5,3.59,18.78.64,3.67-2.18,7.81,1.5,11.1a2.17,2.17,0,0,1-.78,1.11c-4,1.6-4.32,5.08-4.38,8.59,0,1.38,1.13,3.44-1.47,2.9-1.72-.36-4.51-1.71-3.46-3.85.83-1.69-1-4.14,1.66-5.11.78-.28.55-1.14,0-1.58-3.76-2.87-3.22-7-3.16-11a3.08,3.08,0,0,0-1.51-2.8c-3.71-3-3.66-4.71.21-7.07,1.88-1.16,2.76-2.44.1-3.32-4.13-1.37-1.61-2.61.12-3.06C25.66,266,27.28,263.68,28.32,260.63Z" transform="translate(-0.93 -1)"/><path d="M29.81,331.18c.37.47.64,1.13.94,1.14,6.18.2,6.77,5.16,6.19,9.06-.77,5.05,1.24,8.56,3.74,12.22.86,1.27,2,2.56,1.08,4s-2.38,0-3.6,0l-2-.05c-1.57-.05-3.69,2.09-4.48.21-.86-2-1.87-4.67-.45-7.06a5.59,5.59,0,0,0-.06-6.52,3,3,0,0,1,.09-3.7c.49-.69,1.19-1.81.48-2.19-5.77-3.13-2.27-9.08-4.16-13.41A5.5,5.5,0,0,1,30,317.63c2.37-1.12,4.58-.41,6,3,1,2.43,3.66,3.11-.48,5.3-1.13.59-.85,4.85-4.6,4.33C30.66,330.24,30.26,330.81,29.81,331.18Z" transform="translate(-0.93 -1)"/><path d="M516.42,790.66c-.23-3.64-.09-6.85,4.1-6.92,9.63-.16,13.22,2,13.4,7.81.15,4.54-4.71,8.48-10.31,8.37C520,799.85,516.47,795,516.42,790.66Z" transform="translate(-0.93 -1)"/><path d="M686.39,467.42c2.62,1.11,5.06,2.92,7.23-.5,1.08,3.85.09,5.72-3.09,6.16-.88.12-2.15-.71-2.39.8s1,1.57,2,1.62c1.77.09,2.87.73,2.74,2.7-.15,2.22-1.93,1.78-3.32,2.11-4,.93-8.1,1.69-12,3s-7.14-.63-10.66-.94c-1.85-.17-.63-2.55.81-3.18,4.77-2.07,9.64-3.95,13.67-7.36,1.07-.91,1.8-.09,2.7.06,1.13.18,2.47.61,3.31-.33C688.7,470.07,686,469.58,686.39,467.42Z" transform="translate(-0.93 -1)"/><path d="M21.63,239.38l4.3.74c-.33,1.6-1.79,1.65-2.54,2.49l-3.51,3.92c7.68-3.51,6.67,3.43,9.65,5.33.89.56-.77,1.28-1.74,1.36-2,.16-1.53-2.47-3.27-2.76-1.21,1.36-2.14,4.07-4.32,3.18s-3.06-3.41-2.91-5.84c.18-2.83.34-5.18-2.24-7.56a4.59,4.59,0,0,1,.7-7c2.3-1.67,2.05-2.76-.38-3.79-1.39-.59-2.3-1.61-1.7-3.1a2.4,2.4,0,0,1,3.72-1.24c1.76,1.14,8.6.27,2.41,5.22a1.32,1.32,0,0,0,.56,2.36C25.16,233.88,22.8,236.57,21.63,239.38Z" transform="translate(-0.93 -1)"/><path d="M277.71,679.28c2.93,8.18,10.42,4.73,15.74,6.69,1.83.68,4.13.11,6.22.51a44.5,44.5,0,0,1-18.2,2.38C278.42,688.64,276.63,684.34,277.71,679.28Z" transform="translate(-0.93 -1)"/><path d="M358.8,356.38c-.55-2,.65-3.38,2-3.42,4.41-.13,8.44-3.15,13.05-1.54,1.17.41,3-.07,3,1.77,0,2.1-1.75,2.65-3.46,2.71-2.8.11-5.61-.06-8.42,0C363,356,360.88,356.21,358.8,356.38Z" transform="translate(-0.93 -1)"/><path d="M41.14,370.59c2,1.51,4.06,2.46,4.16,4.37s-.46,4.34-3.24,4-6.16-1.13-6.34-4.4C35.53,371,40.39,373.91,41.14,370.59Z" transform="translate(-0.93 -1)"/><path d="M289.39,691.2c2.3,0,4.6,0,6.9,0a1.52,1.52,0,0,1,1.65,1.47c0,1-.92,1.24-1.77,1.24q-6.9,0-13.81,0c-.91,0-1.71-.45-1.66-1.4s.88-1.29,1.78-1.29h6.91Z" transform="translate(-0.93 -1)"/><path d="M283.06,697.7c5.11,0,9.19,0,13.28,0,1.08,0,2.57-.21,2.68,1.43s-1.21,1.94-2.38,1.79C292.29,700.37,287.21,702.73,283.06,697.7Z" transform="translate(-0.93 -1)"/><path d="M123.69,362.8c-.3,1.9.77,4.74-2.34,4.55-2.39-.15-2.64-2.63-2.66-4.66,0-2.21.17-4.85,3.09-4.6S123.16,361.22,123.69,362.8Z" transform="translate(-0.93 -1)"/><path d="M294.38,707.63c-1.93,0-3.3.11-4.39-.82-.86-.73-2-1.47-1.37-2.83.54-1.13,1.58-.83,2.58-.51s1.93.38,2.85.69c1.55.5,4.42-1.26,4.49,1.3S295.65,707.42,294.38,707.63Z" transform="translate(-0.93 -1)"/><path d="M346.48,388.38c3.5-.29,5.22-2.4,7.41-1.1,1,.58-.86,6.63-2.52,8.53C349.45,393.87,350,390.71,346.48,388.38Z" transform="translate(-0.93 -1)"/><path d="M56.73,465.37c-4,0-7.29,0-10.54,0-.81,0-1.67-.16-2-1.11s.26-1.54,1-2C48,460.54,54,461.85,56.73,465.37Z" transform="translate(-0.93 -1)"/><path d="M61.39,473.27c-4.87-2.57-4.87-2.57-5.64,3.39-1.17-2.89-4.47-4.15-4-6.63.33-1.84,3.42-.92,5.26-1.24C59.7,468.33,60.62,470.34,61.39,473.27Z" transform="translate(-0.93 -1)"/><path d="M12.05,188.19c2.87,1.29,4,3.59,4.51,6.19.29,1.45-1.15,1.67-1.95,1.29a7,7,0,0,1-4.26-5.07A2.31,2.31,0,0,1,12.05,188.19Z" transform="translate(-0.93 -1)"/><path d="M829.64,481.9c-1.32,1.75-3.32,2.72-1.14,5.4,1,1.21-2.07,3-2.83,4.78a3.43,3.43,0,0,1-1.25-.39,57.15,57.15,0,0,1,.6-7.75C825.44,481.72,827.47,481.72,829.64,481.9Z" transform="translate(-0.93 -1)"/><path d="M353.13,404c.22-2.31,4.08-2.82,1.28-5.38-.83-.75.42-3,1.53-3.11,1.52-.13,1.55,2.33,3.2,3,1.12.47.68,2.11-.33,3A13,13,0,0,1,353.13,404Z" transform="translate(-0.93 -1)"/><path d="M21,216.25c-.21,1.12-.32,2.32-1.54,2.9-1.59.75-2.91.08-4-.94-1-.84-2.16-1.65-2-3.18,0-.36.86-1,.9-.94a5.12,5.12,0,0,0,6,.63C20.81,214.51,21.17,215.54,21,216.25Z" transform="translate(-0.93 -1)"/><path d="M568.3,448.77c1.62.23,4.17-.16,3.57,2.25-.74,3-4,0-5.9,1.66-1.08.92-2-.59-1.87-1.94C564.4,447.76,566.76,449.07,568.3,448.77Z" transform="translate(-0.93 -1)"/><path d="M294.17,711.38H302C298,714.82,298,714.82,294.17,711.38Z" transform="translate(-0.93 -1)"/><path d="M43,515.25c1.62-3,0-6.51,1.69-10.89C45,509.11,48.91,512.89,43,515.25Z" transform="translate(-0.93 -1)"/><path d="M293,718.53c3.37-.72,6.71-1,10,.07A13.83,13.83,0,0,1,293,718.53Z" transform="translate(-0.93 -1)"/><path d="M185.28,304.47c-.71,4.07-6.21,4-5.42,8.49C178.86,308.52,179.3,307.85,185.28,304.47Z" transform="translate(-0.93 -1)"/><path d="M782.39,563c.24,8.46-.52,16.49-6.84,23.12-2.87,3-6.14,2.58-9.21,1.85s-1.84-3.93-1.79-6c.32-12.57,2.64-25,1.74-37.68-.24-3.33,2.17-3.32,4.42-3,6,1,11.45,7.42,11.66,13.72C782.46,557.64,782.39,560.31,782.39,563Z" transform="translate(-0.93 -1)"/><path d="M646.42,547.47a45.68,45.68,0,0,1,3.89,20.91c-.14,2.61-5,1.12-7.57,1-2.86-.08-3-2.87-2.12-4.53C643.35,559.4,643.69,553.23,646.42,547.47Z" transform="translate(-0.93 -1)"/></g></g></svg>