<svg xmlns="http://www.w3.org/2000/svg" viewBox="0 0 887 865.33"><title>left</title><g id="Layer_2" data-name="Layer 2"><g id="Layer_1-2" data-name="Layer 1"><path d="M1,333a248,248,0,0,1,42.67-1.87c15.11.79,30.56.71,45,6.79,5.67,2.38,5.84,1.79,7.63-4.24,2.81-9.53,3.18-19.23,3.62-29.08.85-19.37.83-38.78,2.69-58.1.09-1,.08-2,.09-3,.12-8.36,4.84-12,13.39-10.26,11,2.23,22.14,4,33.31,5.27,6.7.78,13,3.31,19.06,5.78,13.26,5.36,26.71,10.23,39.65,16.39,10.26,4.89,17.64,13.55,26.95,19.6,14.38,9.35,26.11,21.53,37.47,34.15a38.57,38.57,0,0,1,3.11,4.48c2.27,3.34,4.74,6.24,9.6,5.86,6.15-.48,8.78,3.49,9.5,9.47a75.23,75.23,0,0,0,3-21.34c.1-6.18,4.64-8.77,9.88-6,3.08,1.65,3.38,4.84,3.54,7.79.24,4.49,0,9,.13,13.49.1,2.88-.94,7.15,2.43,7.87,3.2.68,3.41-3.84,4.66-6.13,3.69-6.73,14.46-8.52,20.16-3.21,6.39,6,7.8,13.32,7.68,21.77-.1,7.3-2.54,12.82-7.85,17.5-6.48,5.71-17.2,3.47-20.57-4.42-1.55-3.62.65-6.55,4.67-6.51,1.8,0,3.07,1.23,4.69,1.51,2.62.45,4.41-.77,4.68-3.25.25-2.21-1.45-3.37-3.58-3.12-4.63.53-9,.85-13.27-2.09-1.85-1.27-3.51.6-3.61,2.73-.12,2.48.28,5,.25,7.47,0,3.86,0,7.85-4.77,9.35-3.28,1-1.93,3.49-1.39,5.37,1.67,5.88,3.75,11.64,5.35,17.54,3.17,11.67,6.46,23.34,9,35.15,1.35,6.21,2.82,12.3,5.54,18,.89,1.89,1.56,3.92,1.11,5.78-2.32,9.45.69,18.84,0,28.29s-3.74,18.47-2.93,28c.5,5.94,1.33,11.85,1.05,17.87a118.52,118.52,0,0,1-12.21,48.4c-1.93,3.84-2.76,7.07.11,11,2.59,3.61,3.17,8,3.29,12.72.31,12.12-.6,23.88-5.45,35.15-2.76,6.42-6.16,12.1-13.18,14.67a5.06,5.06,0,0,0-3.3,4.1c-2.07,12.45-5.82,24.46-9.42,36.5a6.42,6.42,0,0,0-.4,3.39c2.6,8.72-.75,16.21-4.31,23.86-3.22,6.9-5.76,14.12-8.64,21.19-1.75,4.27-4.05,8-8.92,9.38-7.55,2.11-9.61,7.76-9.81,14.86-.26,9.52,2.47,18.78,2.13,28.3a138.43,138.43,0,0,0,.07,18c1.27,13.16-4.36,22.51-14.48,30.34-15.91,12.31-32.63,23.41-49.27,34.66-9.79,6.62-21.24,8.29-32.11,11.73-3.94,1.25-8,2.1-11.74,4H80a17,17,0,0,0-2.64-1.38c-7.2-2.35-8.66-5-9-12.17-.5-11.2,2.15-22,3.45-33,1.57-13.26.66-26.58,2.29-39.79.19-1.54.28-3.55-2.52-3.07-13.18,2.28-25.54-3.21-38.42-4.22C22,791.52,11.43,792.12,1,796v-7c1.53.5,2.9-.16,4.36-.45,8.5-1.7,17.05-3.32,25.73-2,9.83,1.48,19.59,3.32,29.38,5.05,4,.71,7.93.15,11.9-.53,2.41-.41,2.88-1.75,2.89-3.81,0-2.43-1.37-3.18-3.5-3.19-1.83,0-3.67.1-5.49,0A14,14,0,0,1,57,779.44c4.13-.76,7.39,1.63,10.86.81,2.4-.56,6.36,1.55,7-1.58.69-3.54-3.41-2.41-5.57-3.06-.81-.24-1.64-.6-1.51-1.63,0-.34.66-.92.92-.87,5.89,1.06,6.69-2.85,7.3-7.19A4.91,4.91,0,0,1,77.7,763c3.51-2.67,3.79-6.29,3.62-10.26A92.14,92.14,0,0,1,86.11,720c1.65-5.07,4.89-6.17,10.6-3.26,2.36,1.21,4.67,3.22,7.42,2.2,4.23-1.57,7.73-.45,11.34,1.7,4.28,2.53,8.65,4.34,11.38-2.12.31-.73.87-1.55,1.88-1.24s.73,1.2.73,2c0,1.19,11.76,6.79,12.51,6a12,12,0,0,0,2.05-3.4c1.85-4.61,3.57-9.27,5.41-13.89.59-1.49,1.25-3-.81-3.69-1.82-.62-3,.06-3.87,2a65.14,65.14,0,0,1-4.27,7.29c-.5.81-1,2-2.24,1.46s-.31-1.66-.31-2.56c0-3,3.29-5.73,1.36-9.14-1.89.58-1.82,2.2-2.57,3.23-1,1.34-2.05,1.37-2.48-.22-1.7-6.42-3.69-3.21-5.84-.31-2.63,3.56-6.26,5.94-10.23,3.13-4.39-3.1-8.27-5.7-13.58-2.44a1.74,1.74,0,0,1-1.45-.12c-2.92-1.68-4.38,0-6.09,2.15-4,5.09-7,5.5-12.29,1.76-1.64-1.17-2.63-1.35-4.29,0-4.15,3.3-7,2.56-9.86-2.22-3.5-5.87-3.5-5.87-7.46-.14-.19.27-.34.57-.55.83-5.69,7-10,7.4-12.78-1.57-.36-1.16-.36-3.05-1.91-3.19-1.76-.16-2.1,1.74-2.92,2.94-3,4.33-8.32,4.85-10.55.73-2.31-4.3-3.81-2.84-5.94-.07-2.88,3.77-5.78,3.88-9,.46a12.47,12.47,0,0,1-2.12-3.31c-1.08-2.35-2-2.19-3.41-.2-4.67,6.38-7.71,6.4-13,.3V677a4.75,4.75,0,0,1,1.59,4.5c-.58,6.35,2.88,11.88,3.62,18A2.36,2.36,0,0,0,8,701.66c1,.22,1.44-.59,1.75-1.37,1.85-4.66,3.62-9.29,2-14.49a39.17,39.17,0,0,1-2.2-9.69c-.16-3.35-1.36-4.49-4.51-4.17-1.32.13-2.66,0-4,.06v-5c8.36.41,16.79-1.71,25.06.22,4.6,1.07,8.5,1.94,13.59.41s11.55-1.84,16.93,1.61a2.67,2.67,0,0,0,2.32.09c4.81-2.91,9.45-1.42,13.77.83C77.56,672.7,82,676.61,88,673c.78-.46,2.25.22,3.39.42.83.14,1.77.38,1.88-.83.09-1-.76-1.41-1.61-1.51-9.61-1.07-18-6.43-27.89-7.14s-20.06-3.88-30.05-3.22c-10.9.72-22-1-32.72,2.24v-6c1.92-.19,4.31.13,5-2.22a7,7,0,0,0-1.76-7.26C3,650.38,6.6,654.8,1,655V625c5.26,2.27,5.65,8.06,8.48,12.33,7.59-17.11,7.59-17.11,15.09-18.91-.39-1.25-1.54-1-2.44-1.31-1.12-.35-3.25.69-3.15-1.3s2.31-2.15,3.57-1.61c2.3,1,7.07.28,4.65,5.47-.19.4.37,1.18.63,1.76,2.74,6.07,3.81,12.62,5.55,19,.29,1,.07,2.66,1.63,2.68s1.54-1.55,1.94-2.57q2.79-7.2,5.46-14.46c1.09-2.95,2.54-5.49,6.1-5.72,3.71-.24,5.77,1.82,7,5.11s3.37,6.52,4,10.21c.16,1,.35,2.09,1.56,2.29,1.53.25,1.86-1.07,2.4-2.07s1-1.73,1.45-2.62c1.46-2.9,3.53-4.81,7-4.61s5.07,2.68,6.28,5.58c.51,1.22.45,3.64,2.57,2.85s5.29-.55,6.17-3.29c1.76-5.45,3.44-10.92,3-16.84a116.73,116.73,0,0,1-.06-13.49c.15-3.86.44-8.53,4.29-10.05,7.53-3,13.49-10,22.73-8.8,3.49.47,4.17-1.56,2.26-4.26a20.64,20.64,0,0,1-3.29-9.24c-.3-2,.21-5.1-2.58-6-11.39-3.67-18.47-13.35-27.89-19.74-1-.65-2-1.42-.88-2.86,2.53.5,4.34,2.31,6.5,3.47,7.61,4.06,13.57,10.62,21.69,14,3.2,1.32,4.24.73,4.46-2.52.19-2.69-.82-4.59-3.3-5.51-4.72-1.74-9-4.37-13.27-6.9C87,537,73,529.58,66.43,513.68c-3.26-7.88-2.1-15.57-1.4-23.5,4.06,6.14,3.25,13.89,7.58,20a15.87,15.87,0,0,0,.59-5.72c-.33-6.23.15-12.33,3-18,2.11-4.14,4.18-8.31,6.68-12.21s-1-5.29-2.24-7.74c-1.42-2.81-3.31-1.44-6.12-.08,1.1-2.95,1.76-4.94,2.58-6.86.41-1,.91-2.05-.14-2.66s-1.59.48-2.09,1.36c-1.9,3.31-4,6.52-5.78,9.88-5.24,9.85-22.59,9-27-1.67a61.43,61.43,0,0,1-4.57-15.21c-.44-3.21.51-7.22-1.88-9.47-2.11-2-1.5-1.88,0-3.71,1.82-2.23,3.63-6.26.61-8.32C34,428.19,29.45,426.33,28,432a1.7,1.7,0,0,1-1.73,1.49c-1-.08-1.3-1-1.24-1.85.46-7.2-6.24-5-9.59-7.06-2.89-1.76-4.31,1.05-5.46,3.4-.51,1-1.31,2.17-2.67,1.78s-1.24-2-1-3C7.39,422,4.73,419.71,1,418V405c3.22-.31,6.44-1.26,9.38,1.34.77.67,2.63.46,3.88.17,2.43-.57,4.59-.66,6.4,1.38.7.79,1.69,1.41,2.56.58a2.75,2.75,0,0,0,.35-2.32,25.33,25.33,0,0,1-1.11-11.28c.42-2.94-1.13-3.12-3.7-2.37-5.86,1.7-11.83,3-17.76,4.5v-3c8.46-4.67,19-4.19,26.85-10.63-3.77.93-7.45.76-11.15.61a3.36,3.36,0,0,0-2.56,1.19c-1.75,2.74-4.26,2.79-7,2.43A8.47,8.47,0,0,0,1,389V364c1.71-.7,2.44.26,2.91,1.71.8,2.48,2.33,3.29,5,2.62s4.75-1.66,5-4.68c.13-1.49.06-3,.12-4.49,0-1.16,0-2.51,1.61-2.58s1.89,1.07,2.1,2.31c.13.82.46,1.61.52,2.43.36,4.47,3.09,4.26,6.35,3.42,4.69-1.19,6.68-4.19,6.75-8.92,0-1.32.14-3.41,2.16-3.41s1.56,1.93,1.57,3.11c.06,6.23,3.38,8.05,9,7a6.32,6.32,0,0,1,2.49,0c5.54,1.29,6.93-1.93,7.15-6.47,0-.83,0-1.67.09-2.5.09-1.13-.09-2.64,1.38-2.85s1.8,1.26,2.42,2.21c1.49,2.28.76,4.86.89,7.31.35,6.53,6,4.6,9.46,5.7,3.1,1,2.95-2.18,3.42-4.21s1.14-4.17,1.71-6.26c.22-.82.43-1.83,1.39-1.81,1.3,0,1.34,1.18,1.4,2.2.17,3.31.55,6.62.48,9.93a3.67,3.67,0,0,0,2.25,3.9c3.47,1.83,6.25,2.44,7.5-2.43.36-1.4,1-3.36,2.8-2.94,1.91.46.85,2.55,1,3.91.2,1.81.11,3.66.29,5.47a2,2,0,0,0,2.11,1.75c1,0,1.32-.79,1.38-1.69.52-7.61,3.63-14.84,3-22.67-.27-3.3-1.37-4.82-4.38-6.26-15-7.18-31.78-4.47-47.23-9a4.06,4.06,0,0,0-2,.17c-8.66,2.15-17.49,1.81-26.3,1.8-5.31,0-10.66-.4-15.86,1.19ZM113.77,454.2c-1.32,6.21-5.06,11.5-6.44,17.66-.5,2.24-1,1.73-2.87,1.44-2.65-.41-5.88.12-7.68,2.43-1.39,1.76.33,3.78,1.38,5.39a5,5,0,0,0,4.42,1.93,9.89,9.89,0,0,1,5.89,2.26c6.77,4.8,8.75,11.56,9.08,19.43.34,8.12,1,16.18,7.56,22.46,5.06,4.82,7,11.12,6.46,18.21-.3,4.31.38,8.71-.1,13-1.13,9.94,2,18.28,8.43,25.69,3.77,4.35,4.75,9.72,5,15.28.18,4.65-2.43,7.48-6.31,9.26s-6-1.06-7.91-3.51c-2.32-3-4.7-3.32-7.7-1.32a7.18,7.18,0,0,1-8.48-.22c-5.07-3.84-10.47-2.1-15.81-1.86-2.93.14-3.69,1.83-3.71,4.68,0,8.36,1.3,16.71.14,25.1-.41,2.93,0,6-1,8.86-.88,2.53-.84,5.14,1.92,6.5s3.76-1.56,5-3c8.06-9,12.49-9.54,21.92-2.4.76.58,1.46,1.62,2.56,1s.65-1.77.65-2.71c0-5.17,0-10.33,0-15.5,0-1-.19-2.25,1.09-2.44s1.38,1,1.52,2c.77,5.6,2.43,11.1,2,16.83-.27,3.6.34,5.57,4.6,3.78A8.09,8.09,0,0,1,143,645c5.66,3.39,5.74,3.27,5.76-3.63,0-5.33,0-10.66,0-16,0-1-.48-2.34.94-2.94,1.43.3,1.39,1.46,1.33,2.37-.41,6.17,1.4,12.15,1.53,18.28.07,2.83,1.2,4.34,4.49,2.9s6.48.13,9.43,1.71c1.24.67,2.3,2.75,3.73,1.64s.72-3.13,0-4.64c-1.88-4-1.42-8.47-2.54-12.62-.23-.87-.27-2.18,1-2.49s1.68.94,1.93,1.83c1.94,6.69,4.44,13.3,5.46,20.14.72,4.91,1.7,8.77,6.68,10.49,1.45.5,2.18,3.43,4,1.81,1.35-1.23.69-3.54.07-5.24-2.17-6-2.11-12.38-3.14-18.58-.21-1.26-.45-2.66,1.79-3.44,2.29,7.83,5,15.54,5.48,23.63.3,5.06,1.25,9,6.26,11,.69.28,1.09,1.41,2,1.1,1.27-.42.88-1.66.86-2.56a22.44,22.44,0,0,0-.56-3.41c-1.08-5.88-2.21-11.75-3.22-17.64-.18-1-.49-2.49,1.06-2.93.66-.19,1.16.42,1.34,1.14,2.18,8.79,5.64,17.29,6.11,26.48.11,2.06-.65,4.37,2.12,6.08a81.28,81.28,0,0,0,3.51-13.45c3.07-16.05,11.81-28,26.24-35.61,3.73-2,8.14-2.44,13.62-2.47-4.27,4.33-9.18,5.23-13.89,8.87,15.59-.93,29.24,1.82,42.52,5.94,9.66,3,22.26-2.15,26.3-13,1.74-4.71,3.56-9.45,4.1-14.35,1.58-14.29,2.63-28.28-8.8-40.21-5.59-5.83-9.22-13.68-7.8-22.56.24-1.54.12-3.86,2.28-3.91,2.33-.06.19,3.07,2.3,3.89,4.17-5.14,7.72-10.6,9-17.31,2.35-12.59,4.13-25.21,3.84-38.08-.13-5.51-2.35-10.17-4.22-15.14-2.5-6.61-9.38-10.21-10.91-17.44-.61-2.85-1.61-6.94-5.19-7.21-3.21-.24-4.41,3.55-6.17,5.9a19.47,19.47,0,0,1-2,2.82c-3,2.75-3,5.81-1.93,9.52,1.24,4.27,2.65,8.55,2.26,13.2-1.12,13.07-3.22,26-5.51,38.87a34.3,34.3,0,0,1-7.87,16.26c3.75-.35,5.53-1.09,6.61-3.69,5.12-12.4,9.69-24.89,9.52-38.62-.06-5.48.39-11,.64-16.45.05-1.08-.22-2.61,1.54-2.53,1.32.07,1.21,1.3,1.31,2.29.61,6.11,1.49,12.19,1.78,18.31.2,4.24.52,8.45-1.28,12.74-1.89,4.53-2.41,9.62-3.72,14.41-2.43,8.91-6,16.64-16.55,18.67a115.26,115.26,0,0,1-24.28,2c-2.5-.06-4.82,0-3.92,3.73.69,2.89-.82,4.65-3.53,5.69a54,54,0,0,0-5.34,2.74c1.81,4.06,6.52,3.1,9.12,5.76,1.84,1.89,3.54,3.44,3.13,6.31-.36,2.57-2.19,3.45-4.29,4.33-1.88.78-5.12.5-5.1,3.06,0,2.08,3.15,1.76,4.82,2.67,2.5,1.36,5.26,2.55,4.76,6.18-.44,3.11-3.1,3.6-5.42,4.43-1.18.43-3-.5-3.55,1.12-.66,1.95,1.75,2.08,2.49,3.28s2,2.3,2.53,3.65c.77,2,.63,4.12-1.92,4.86-5.24,1.53-9.83,3.46-9,10.31a2,2,0,0,1-2.25,2.17c-1.64-.19-1.15-1.68-1.28-2.79-.61-5.13,1.47-8.52,6.15-10.77,4.9-2.36,4.81-2.68.56-6.14-4.49-3.64-4.08-7.19,1-9.93,1.14-.61,3.2-.06,3.31-2.28-1.6-.61-3.17-1.14-4.68-1.81-2.49-1.09-4-2.9-3.93-5.78s2.1-3.92,4.45-4.68a20.13,20.13,0,0,0,3.21-1.34c.82-.43,2.11-.54,1.92-1.9a2.81,2.81,0,0,0-2-2.08c-2.14-.92-4.38-1.67-6.41-2.79-2.43-1.34-5.38-2.71-5-6.13s3.56-4.4,6.52-5.27c1.57-.46,4.07.54,4.41-2.18.37-3-2.41-3.25-4.18-4.19-4.18-2.21-8.87-.75-13.28-1.6-16.39-3.16-31.12-10.33-44.9-19.33-9.26-6-18.56-12.38-25.16-21.65-2.88-4-3.5-9.15-6.94-13.12A165.31,165.31,0,0,1,113.77,454.2ZM214.64,353.39c1.51-3.39,2.94-5.23,5.3-6.46,2.82-1.46,2.47-3.26-.31-4.6-1.2-.58-2.5-.95-3.66-1.58-10.66-5.82-16.61-13.24-12.86-22.22,3.28-7.89-.45-8.61-5.27-11.17-7.49-4-7.38-9.21-.16-13.56,1.22-.73,3.22-1.17,3.13-2.86-.12-2.05-2.12-2.63-3.83-3.38-6.71-2.91-13.38-5.88-20-9-6-2.81-8.34-8.85-4.43-12.74,3.37-3.34,1-4.12-1.44-5-3.43-1.23-7-2-10.49-3.19-4.59-1.52-9-3.15-10.18-8.85a6.32,6.32,0,0,0-6.09-5.16c-10.16-.46-19.85-3.92-30-4.39-3.17-.14-4.65.51-5.28,4.12-1.66,9.55-.24,19.19-1.89,28.8-1.93,11.28-1.11,22.88-1.09,34.36,0,7.46.33,14.83-2.44,22.16a24.35,24.35,0,0,0-1.49,12.76,56.06,56.06,0,0,1-1,25c-2.64,10.08-.73,20.56-1.11,30.86,0,1.36.07,3,1.22,3.66,5.8,3.46-.34,13.07,7.91,15.2.11,0-.18,1,0,1.43,3.11,7.3,2.79,15.25,4.39,22.84.47,2.24,1.54,2.8,2.77.89,4.06-6.25,10.1-8.88,17.09-10,2.18-.35,3.91-1.14,3.77-3.74-.15-2.91-2.33-3.41-4.57-3.45a76.82,76.82,0,0,1-9.92-.8c-4.2-.63-5.59-2.71-5.11-6.82.55-4.69,3.74-6.2,7.57-6.42,5.48-.32,11-.19,16.49,0,4.51.18,6.85,2.83,7.25,7.34.13,1.4-1,4,1.69,3.7,2-.24,4.6-.59,5.15-3.76,1.1-6.4,2.42-7,8.76-7.45,12-.89,23.87,2.15,35.82.13,1.55-.26,3.26.54,4.9.72,6.47.7,12.76,2.62,19.34-.84,5.64-3,15.23-.52,17.9,4.83,4.15,8.3,13,11.12,18.43,17.87,2.36,3,6.69,1.49,10,.93,2.44-.41,1.64-3.27,1.47-5.16-.5-5.25-3.08-6.55-7.72-4-2.58,1.44-5.2,2.69-7.87.51-1.69-1.39-3.17-3.3-2.44-5.63,1-3.15,2.17-6.18,5.59-7.85,5-2.45,5.06-4,.2-7.17-9.16-6-18.35-11.62-29.27-14.29-17.34-4.23-34-11.21-52.15-12-10.61-.47-21.15-1.72-31.19,3.76a23.35,23.35,0,0,1-14.44,2.95c-1.41-.21-3.38.38-3.55-1.72-.16-1.88,1.72-2.25,3.1-2.68,2.7-.83,5.48-1.39,8.15-2.28,11.92-4,23.57-9.61,36.71-5.73,6.89,2,14.2.86,21.13,3,11.91,3.58,23.92,6.87,35.87,10.35,1.89.55,3.4,1,3.06-1.85-.11-1,.19-1.72,1.18-1.83s1.24.78,1.56,1.57a20.64,20.64,0,0,0,1.69,3.55,2.94,2.94,0,0,0,2.92,1.59c1.58-.31,1.17-1.78,1.19-2.88.05-2.84,0-5.68,0-9.1,2.09,1.61,1.31,3.05,1.53,4.27.95,5.13.61,11.51,7.07,13,5.12,1.14,7.76,4.45,10.71,7.92.75.89,1.63,1.89,3,1.19s1.07-2,.88-3.11c-.39-2.31-1.08-4.62.37-7.93,2.09,4.79,3.59,8.77,2.66,12.81-.5,2.13-.08,2.78,1.32,4,2.72,2.38,5.56,4.51,7.75,7.63,5.18,7.36,5.34,15.91,6.78,24.19.31,1.8.16,4.12,2.46,4.31s3.35-2,4-3.83a13.3,13.3,0,0,0,.37-4.44c0-6.17-.23-12.34,0-18.5.37-8.21,5.26-11.12,12.92-8,.58.24,1.19.63,1.77,0,.29-7.18-11.94-46.56-15.51-49.38,0,4-.19,7.78.05,11.55.32,5-2.38,8.49-5.49,11.83-1.3,1.4-2.23,1.08-3.69-.22-3-2.63-4.08-5.92-4.54-9.62-.42-3.48-2-5.33-5.86-5.23-4.88.13-8-2.65-9.9-7a46,46,0,0,1-3.29-12.5c-1.18-8.57.48-17.11,6.94-22.88,3.69-3.3,3.35-5.28.85-7.72C262,311.9,256,303.66,248.13,297.14c-8.3-6.92-17.35-12.84-25.69-19.74-5.46-4.51-10.92-9.35-17.62-12.13-13.63-5.66-27.27-11.31-41-16.67-1.89-.73-5.22-3.58-6.39-.31-1.09,3.1,3,3.23,5.17,4,5.79,2,11.93,3.14,17,6.89,3.85,2.85,3.79,6.32-.37,8.59-3.75,2-3.23,3.86-.14,5.66a59.54,59.54,0,0,0,7.66,3.62,137.92,137.92,0,0,1,16.14,7.82c3,1.71,4,4.13,3.79,7.47s-2.07,4.6-5,5.14a3.18,3.18,0,0,0-2.76,2.56c-.33,1.84,1,2.7,2.33,3.43,4.35,2.3,8.81,3.79,13.87,2.71,8.49-1.8,15.59,1.43,19.4,9.32,7.42,15.36,7.47,30.76-.81,45.9-5.26,9.61-20.92,12.12-27.18,2.14-2.79-4.44-6.43-4.38-8.66.39s-5.68,5.72-10.08,5.23a54.49,54.49,0,0,0-11.35-.11c-4.95.47-7.48-2.1-7.51-7.05,0-7.66-.11-15.34.32-23,.13-2.19-1.91-4-.62-6.13,3.61-5.9,13.72-9.84,20.64-7.72a10.3,10.3,0,0,1,7.08,7.14c.55,1.88.76,4.22-1.5,5.31-4.31,2.07-3.31,4.06-.33,6.5a10.47,10.47,0,0,1,2.07,3.37c1.67,3.23,3.28,3.75,5.84.58,3.81-4.74,8.59-3.76,10.94,2C213.62,350.76,213.9,351.52,214.64,353.39Zm-87,462.37c-2.11-2.43-1.51-5-.9-7.51,1.17-5,2.33-10,1.8-15.26-.61-6.14-.33-6.34-6.45-4.29-4,1.36-7.9,1.52-11.43-.88-4.25-2.9-4.72-.7-4.57,2.95.3,7-.81,13.88-1.85,20.75-.15,1,.3,2.75-1.35,2.76s-1.9-1.62-2-3a48,48,0,0,1-.12-5.49c.27-5.81.66-11.62.94-17.43.09-1.76-.2-4-2.61-2.8-6.07,3-9.57-1.48-13.7-4.22-1-.7-1.63-2.54-3.16-1.94s-1.18,2.32-1.21,3.57c-.24,11.79-2,23.54-2.09,35.27-.13,18.17-3.59,35.91-5.14,53.88-.32,3.75,1.16,6.3,4.55,7.34,4.88,1.49,9.59,3.53,15,3.23,6.81-.37,13.66-.21,20.48-.07,3.08.06,5.18-1.61,7.68-3,5.06-2.72,4-9.56,9.59-12-1.8-.9-3-1.54-4.16-2.07-3.65-1.61-4.09-4.19-1.08-6.43,4.85-3.63,2.47-5.1-1.3-7.07-4.16-2.19-4.8-5.4-1.45-8.33,2.22-1.92,2.55-3.75,1.06-7.55,3.23,2.76,6.21,4.4,3.21,7.2-3.9,3.65-2.45,5.14,1.46,7.08,5.32,2.65,5.57,5.09,1.53,9.79-1,1.12-1.27,1.7.33,2.57,6.72,3.69,6.68,3.74,2.09,9.32-.13.15.1.59.17.89,5.09,2,10.59-1.75,15.81,1.62l-19.28,5.53c3.85,3.32,7.36,2.55,10.92,1.81,10.06-2.1,19.47-6.5,29.67-8.12a33.14,33.14,0,0,0,12-4.68,542.81,542.81,0,0,0,57.68-40c5-4,8.87-9,9.16-15.42.46-10.48,1.16-21.12-.14-31.45-1.53-12.18-2.07-24,.28-36.12,3.39-17.45,7.26-34.74,14-51.26.57-1.42,1.23-3.32,2.86-2.87,2.2.6.63,2.34.37,3.68-2.49,13-6.92,25.61-9.08,38.72-.31,1.86-2,4.28.33,5.28,2,.83,4.06-1,5.59-2.54a12,12,0,0,0,2.47-3.72c4.08-9.46,8-19,12.12-28.41,2-4.48,2.77-8.86.76-13.5-.86-2-.18-3.9.38-5.84,2.85-9.87,5.72-19.74,8.39-29.66.57-2.13,1.65-5.49-.59-6.4-2.42-1-2.58,2.67-3.78,4.25-.66.87-.81,2.61-2.29,2.15s-.88-1.93-.65-3c.29-1.37,1.78-3.08-.22-3.89s-2.6,1.53-3.58,2.72c-2.48,3-3.19,7.23-7.08,9.41A73.09,73.09,0,0,1,272.5,650c.47-1.24,1.71-2.5.05-3.4-1.81-1-1.57,1.17-2.09,1.94-7.19,10.7-10.92,23.05-15.95,34.73C245.69,703.75,241,725.62,235,747c-.43,1.5-.09,4-2.3,3.78-2.54-.28-1.79-2.74-1.57-4.47.82-6.23,2.19-12.34,3.47-18.49,2-9.43,5-18.49,7.93-27.57a364.45,364.45,0,0,1,21.6-51.94c.58-1.17,1.65-2.44.15-3.52-1.2-.86-2.61-.27-3.78.37a5,5,0,0,0-2.35,3.7c-.7,4.83-4.25,8.23-5.94,12.55-.39,1-.93,2.48-2.45,1.7-1-.51-.76-1.77-.47-2.72q1.81-6,3.71-11.93c.54-1.69,2-3.67.38-5.05s-4.2-.91-6.25-.29-2.44,2.72-3,4.36a117.76,117.76,0,0,0-5.64,22.68c-1.49,10.83-2.38,21.7-6.31,32.1-4.24,11.22-10.58,21.44-15.1,32.52a16.14,16.14,0,0,1-5.43,7c-4.56,3.29-6.91,13.42-3.83,18,3.74,5.62,4.64,11.66,4.12,18.11-.19,2.33.26,6.12-2.43,6.08s-1.56-3.8-1.9-6c-.54-3.44,1.13-7.25-1.46-10.46-2.18.94-2.2,3.1-3.34,4.47-1.45,1.77-2.38,4.32-5.09,4.26-4.95-.1-5.74,2.65-5.19,6.7a49.35,49.35,0,0,1,.47,6c.06,4.72-.46,9.32-3.37,13.35a2.66,2.66,0,0,1-1.22-3.32c1.82-5.67,0-11.26-.28-16.86-.21-4.49-1.53-5.07-5.13-2.48a11.41,11.41,0,0,1-6,2.21c-6.29.46-6.34.47-5.8,6.83.1,1.16.61,2.29.63,3.43.06,5.39.23,10.83-3,16.45-1.64-3.39-1.07-5.92-1.07-8.35,0-4.84.06-9.67-1.88-14.24-.41-1-.31-2.27-2-2.41-6.23-.53-10.23,2.7-9.88,8.87.43,7.4-2,14.08-4.36,20.92-.75-4.7-1.24-9.37-.31-14a24.39,24.39,0,0,0,.14-8.93c-.47-2.73-1.45-4.3-4.7-2.88a12.41,12.41,0,0,1-7.89.3c-4.05-1-4.73.65-4.19,4C134,800.38,130.28,807.9,127.65,815.76ZM257.13,470c.08-2.38-1.67-3.39-2.78-4.72-2.51-3-4.56-6.25-4.19-10.33.29-3.3,1-6.58,1.54-9.84s-1.85-4.86-4-6.2-3.31.92-4.54,2.1c-2,1.93,2,3.66.36,5.93a7.23,7.23,0,0,1-1.72-1c-1.72-1.86-3.31-1.15-4.72.28-1.64,1.65,0,2.56,1,3.66,3.05,3.5,6,7.14,9.11,10.53,3,3.21,3.48,8.6-.14,10.77-3.24,1.93-3.54,4-2.74,7.64-4.27-8.73-11.76-5.56-18.17-6-2.16-.15-4.33,0-6.49,0-5.12-.05-7.61-2.46-6.37-7.36,1.2-4.73-.86-6.09-4.77-6.56-6.32-.78-12.41-2.07-17.22-6.77a8,8,0,0,0-4.59-1.79,3.67,3.67,0,0,0-4.32,2.53c-.81,2,.91,2.5,2.13,3.32a43,43,0,0,0,3.58,2.66c6.54,3.42,12.34,9.25,22.5,6.21-5.88,4-2.14,5.78-.1,8,1,1.14,3,2.63,1.36,4.12s-2.54-.95-3.41-1.91c-3-3.28-4.92-3.17-7.67.76a8.64,8.64,0,0,0-.84,9.56c-2.36.52-4.2-2.13-6-.11-1.19,1.34-3.18,2.42-2.84,4.45.44,2.64,2.58,4.3,4.88,5.19,3.19,1.22,6.17,2.52,7.93,5.62.53.94,1.69,2.09.39,3.05s-2.08-.19-2.83-1.17c-2.88-3.77-7.78-2.8-11.46-4.79-1.08-.59-1.78.78-2.37,1.93-2,3.89-.69,7,1.82,10,.64.76,1.46,1.62.88,2.64-.69,1.22-1.71.39-2.62.09-1.78-.58-2.41.14-2.35,2A64.82,64.82,0,0,0,188,531.66c1.28,4.1,5.62,4.38,8.8,5.86,2.88,1.35,2.15-2.58,3.8-3.52s2.56-2.51,4.48-3c2.48-.65,5.9,1.47,7.17-1.07.47-1-3.08-3.8-4.62-5.92-1.9-2.61-3.54-5.38-.7-8.44,2.59-2.79,5.28-1.58,8.22-.47,1.81.69,3.75,3.86,5.45,1.59,1.36-1.83-1.86-3-3.1-4.43-2-2.24-3.84-4.62-2.11-7.51,1.51-2.53,4.21-2.09,6.73-1.22a16.91,16.91,0,0,0,3,.45c1.09.15,2.36,1,3.17-.31.69-1.11-.68-1.67-1-2.51-1.2-2.83-2.07-5.87.89-8.08s6.1-2.58,9.06.59c-2.64-.16-5.7-1-7.17,1.69-1.58,2.87,1.53,4.29,2.84,6.26,1,1.47,2.39,3,.78,4.93s-3.06,3.6-5.9,2.49c-2.38-.93-4.77-2-8.21-1.37,2.31,2.46,4.23,4.42,6,6.47a4.89,4.89,0,0,1,1,5.56c-.91,2-2.8,2.19-4.66,2.15a13.82,13.82,0,0,1-8-2.33c-.69-.49-1.54-.89-2.24-.11s-.16,1.64.33,2.23c1.82,2.16,3.83,4.16,5.57,6.37a5.52,5.52,0,0,1,.66,6.54c-1.21,2.05-3.4,1.88-5.39,1.69-1.47-.13-2.91-.71-4.39-.88s-3.21-.38-3.47,1.77c-.19,1.6-.59,3.64,1.5,4.27,7.8,2.36,15.67,4.44,24,3.69,1.81-.16,2.57-1.52,2.91-3,.51-2.16-1.27-1.83-2.51-2s-2.7-.29-2.51-1.75,1.84-1.36,2.92-1.15c4.78.94,6.62-1.93,7.71-5.79.73-2.54,1.45-5.09,2-7.67.72-3.4.25-5.78-4.19-4.29-1.13.38-2.35.53-2.64-1.19,10.62-2.5,11.19-9.46,11.7-24.13,2.63.46,2.92,2.42,3,4.4.05,2.5-.26,5-.05,7.49.15,1.82-1.35,4.5,1.2,5.3,2.16.69,3.91-1.37,5.64-2.63a5,5,0,0,0,1.83-3.94c.63-6.43,1.82-12.84.75-19.33-.23-1.41.47-3.29-1.23-4-1.94-.86-3,1-4.14,2a36.36,36.36,0,0,1-11.71,7c-.48-2.19.72-2.78,1.65-3.31,4.14-2.36,7-6.13,10.39-9.26,2.07-1.88,2-3.4.66-5.59-.9-1.51-3.85-3.14-1.76-4.87,1.61-1.33,2.54,2.06,4.23,2.63A7.39,7.39,0,0,0,257.13,470ZM167.69,726.34c.67,0,1.34-.05,2,0a116.31,116.31,0,0,0,29.11-1c4.19-.71,7.2,2.18,7.76,7.12.18,1.64-.22,3.78,1.89,4.07s2.42-2,3.12-3.39c2-4,3.77-8.14,5.83-12.12,7.32-14.09,13.89-28.36,14.17-44.71a30.1,30.1,0,0,1,2-11.2c2.05-4.71,2-8.56-1.42-12.38-2.06-2.32-3.47-6.86-6.42-6.3-3.13.59-4.48,4.88-5.79,8.13-3.83,9.44-5.73,19.33-7,29.38-.45,3.45-.93,7-4.3,9.16-1.91,1.19-2.09,2.75-1.53,4.73a47.32,47.32,0,0,1,1.58,6.81c.64,5.08.34,12.74-3.19,13.67-5.69,1.51-11.79,4.2-18.13,3A5.06,5.06,0,0,1,185.2,720c-7.24-6.34-15.86-10.37-24.33-14.68C158.32,704,157,704.27,156,707c-2.19,5.55-4.66,11-7,16.49-.51,1.19-1.45,2.49-.34,3.71s2.62.9,3.77.46C157.39,725.77,162.57,726.53,167.69,726.34Zm-57.79,3.84c.72-4.77-.25-7.39-5.8-5.31-1.73.65-3.59-.12-5.33-.73-7.36-2.58-7.38-2.57-9.24,5.41-.33,1.44-.42,2.94-.71,4.4-1.63,8.38-.5,16.89-1.22,25.31-.43,5,3.38,11.31,8.21,12.22,3.16.6,7,.43,8.56-2.51,2.14-4,4.24-8.37,4.42-13.09C109.13,747.29,108.1,738.64,109.9,730.18ZM96.47,688.93c-.48,5,.6,6.43,5,5.6a65.72,65.72,0,0,1,16.38-.54c4.53.3,5.16-1.65,5.5-5.41.85-9.39-1.82-18.41-2.53-27.63-.25-3.32-2.11-6.4-4.32-9.31-2.88-3.77-4.43-2.52-6.8.25-6.87,8-8,18.29-11.51,27.66-.43,1.16-.94,3.19.94,4,3.33,1.35,1.37,4.39,2.26,6.51a1.48,1.48,0,0,1-1.07,2,1.9,1.9,0,0,1-2.08-1C97.72,690.24,97.92,688.85,96.47,688.93ZM310.25,549.21c1.76,2.8.68,4.64,0,6.45-1.56,4.2-3.22,8.36-4.84,12.54-.47,1.23-1.31,2.86.16,3.55,1.7.8,2-1,2.5-2.24q1.81-4.89,3.7-9.75a102.14,102.14,0,0,0,6.42-49.82,49.75,49.75,0,0,1,.25-14.86c2-10.89,4.59-21.81,1.64-33-.41-1.56.9-4-2-4.27s-6.74-.12-7.82,3c-1.88,5.49-4.25,11-.59,17.12a39.87,39.87,0,0,1,5.92,20.2c.19,9-1,17.77-2,26.62a81.63,81.63,0,0,1-4.95,19.71c-1.93,5.18-5.82,9.2-8.13,14.15-.85,1.82-2.32,4,0,5.28,2.62,1.46,2.7-1.57,3.46-2.92C306.05,557.37,308,553.57,310.25,549.21Zm-181.95,184c-3.81,1.21-6.27,2.23-9.25,1.21-2.69-.92-4,.51-3.94,3.37a83.79,83.79,0,0,1,0,11c-.54,5.06-.16,10.3-2.54,15.08-2.85,5.76,1.26,12,7.76,12s10.31-4.7,10.82-13.56c.54-9.29.8-18.6,1-27.9.16-6.42,0-6.44-6.12-5.43a10,10,0,0,1-4.41-.47c-1.64-.45-3.39-1.05-5,.4C119.25,733,123.85,731,128.3,733.19ZM85,399.62c-6.38-2-12.82-3.9-19.11-6.17-3-1.09-4.62-.66-4.44,2.69a18.26,18.26,0,0,1-3.28,11.24c-.69,1-1.51,2.33.35,2.61,3.41.51,7.15,1.54,10.27.66,7.81-2.21,15.49-1.57,23.25-.64,2.11.25,3.69-.24,4.19-2.45.75-3.32-5.15-12.14-8.62-12.86-4.78-1-9.13-3.35-13.6-5-5-1.84-10.7-1.53-15.18-4.82-.14-.1-.71.39-1.08.61L57.18,387C67.11,389.84,77.16,392.43,85,399.62ZM153.19,739.3c.1-5.9-.75-6.73-5.94-6.06a8.77,8.77,0,0,1-2.9.13c-6.64-1.2-6.67-1.14-6.76,5.7,0,2.16.1,4.32-.05,6.47-.51,7.59-.74,15.23-1.89,22.72-.36,2.33-.31,3.77,1.2,5.19s3.38,2.3,5.43,1c3.25-2,6.31-4,7.48-8.13C152.34,757.34,151.73,748,153.19,739.3ZM85.74,528.48c1.6-5.72-.76-10.61-1.27-15.67-.12-1.19-1.12-3,.6-3.46s1.84,1.41,2.14,2.66c.19.84.49,1.78,1.41,1.81,1.3,0,1.49-1.14,1.64-2.11.43-2.87,1.83-5.32,3.22-7.79.48-.85.76-2.18,2-1.59,1,.49.6,1.65.35,2.65-1,3.83-1.58,7.75-3.09,11.47-1.6,3.94,1.74,10.23,5.72,11.38,2.22.65,2.1-1,2.15-2.26.12-3-1.93-4.85-3.51-7-.7-1-1.64-2.1-.48-3.06,1-.8,1.79.31,2.37,1.11,2,2.74,3,1.66,4-.81,1.6-4.28,2.47-8.22.31-12.93-1.84-4-4.47-7.31-6.63-11-1.86-3.17-3.23-2.46-4.35.18a22.74,22.74,0,0,1-10.78,11.7c-3.39,1.78-3.22,5.17-2.06,8.38.91,2.51,1.84,5,1.57,7.73C80.65,523.58,82.29,526.25,85.74,528.48Zm59.41,152.27c-.16-6,.86-12.83-2.05-19.34-1.26-2.81-2.73-5.06-6.29-4.29-2.59.56-9.16,8.77-8.75,11.42,1.25,8,.44,16,.6,23.94.05,3,1.52,4.46,4.13,4.5,3.3,0,6.55-.2,9.83.67,2.55.68,2.5-1.46,2.51-3.12C145.17,690.2,145.15,685.87,145.15,680.75ZM165.48,683h0c0-1.67,0-3.33,0-5-.18-4.32-.31-8.65-.67-12.95-.21-2.56-1.2-5.3-3.76-5.94-2.81-.71-4,1.94-5.53,4-3.93,5.38-5,11.25-4.52,17.75.34,4.3-.06,8.66.06,13,0,1.64-1,4,1.6,4.63,2,.52,2.92-.55,4-2.51s4.07-1.55,6.27-1.32c.9.09.54,1.33.28,2.14s-2.31,1.46-.84,2.82a2.2,2.2,0,0,0,1.84.28c1.42-.45,1.29-1.81,1.3-2.93C165.51,692.34,165.48,687.68,165.48,683Zm-60.77-87.2c4.72-1.54,8.57-.86,12.05,2.54,1.44,1.42,3.57.63,5.19-.27,5-2.74,9-.76,12.61,2.55,1,.89,1.6,2.33,3.18,1.72s1.32-2.21,1.26-3.48a22.25,22.25,0,0,0-5.72-14.53c-6.08-6.54-8.25-14.13-7.19-22.87a64.48,64.48,0,0,0,0-7.49v-7.43l-1.59.09c-1.06,11.14-6.84,22.27,1.16,33.41a8,8,0,0,1,0,8.6c-1.72,2.58-4.88,2.12-7.8,1.49C112.45,589,108.48,591.82,104.71,595.82Zm12.58,189.23c4.22.49,7.53-1.68,10.88-3.44,2.37-1.25,4.51-1.48,6.38.41,4.08,4.14,7.81,3.12,11.72-.26,2.3-2,4.93-3.82,8.13-2,3.88,2.18,6.92,1.36,9.68-1.92,2-2.36,4.88-3.81,7.53-2,4.81,3.25,8.46,1.28,12.13-1.66,3-2.42,5.76-5.16,9.89-1.53,1.21,1.07,3.23.38,4.4-1.16.57-.76.69-1.48-.28-2-4.13-2.36-9.75-1.77-13.85,1.46-5,3.91-8.22,4.37-13,.95-2.56-1.83-3.84-.74-5.44,1-2.91,3.08-6.43,5.09-10.67,3.63-3.08-1.06-5.3-.49-7.84,1.27-3.55,2.47-7.43,5-11.78,1.65-3-2.36-5.6-1.63-8.6.18-6.35,3.82-10.71,3.21-16.1-1.82-1.77-1.65-3.38-2.89-6.16-1.89C94.73,779.21,91,778,84.64,770c-.74-.94-1.23-2.92-2.86-1.5-1.1,1-.52,2.69.36,3.65,1.54,1.69,3.48,3,5.1,4.66,6.46,6.46,7.38,6.76,15.49,2.56,2.93-1.52,4.77-1,6.86,1.34S113.52,785.92,117.29,785.05Zm67.88-25.89c2.66-1.88,3.26-3.66,3.13-5.45-.37-5,.74-9.9.85-14.86.15-7.23.17-7.21-6.79-6.05a5.75,5.75,0,0,1-2.94,0c-4.67-1.94-5.21.67-5.47,4.41-.57,8.06.07,16.26-2.58,24.11a3.9,3.9,0,0,0,.84,3.71c3.7,4.94,8.42,4.19,12.32-2.46-1.84.91-3.27,1.65-4.74,2.33a1.91,1.91,0,0,1-2.29-.35,1.11,1.11,0,0,1,0-1.75c4.55-3.21,5-8.82,7.63-14C187.06,752.47,186,755.29,185.17,759.16Zm33.9-314a29.59,29.59,0,0,1-2-3.82c-1.84-5.76-5.25-9-11.73-9.51a21.52,21.52,0,0,1-10.89-4.56C190,424,185,422.42,179.67,426c-1.47,1-4,1.43-3.65,3.52.31,1.67,2.76,1.41,4.35,1.74,8.16,1.67,16.91,2.75,23,8.6C208,444.24,212.81,444.6,219.07,445.19ZM25,656.15c5.55.07,6.91-1.12,5.41-4.79-3-7.37-4-15.3-6.56-22.79-.38-1.12.43-3-1.62-3-1.6,0-1.95,1.7-2.46,2.83C16.34,636,14.27,644,12.34,652c-.74,3.11,1,4,3.48,3.92C19.11,655.78,22.38,655.2,25,656.15Zm32.2-6c-.54-5.72-3.43-13.12-6-20.61-.33-1-.41-2.15-1.55-2.3-1.49-.2-1.78,1.16-2.21,2.23-2.3,5.67-4.73,11.29-6.89,17-2.47,6.56-.5,9.43,6.42,9.8a24.26,24.26,0,0,1,4.43.52C57.21,658.16,57.3,658.12,57.2,650.1ZM164.64,762.59c-.93,1.08-1.85,2.2-2.83,3.26a1.71,1.71,0,0,1-2.23.54,1.83,1.83,0,0,1-.59-2.24c1.47-3.94,3-7.85,4.56-11.84,2.49,1.27.62,3.5,2.42,4.93,2.76-6.74,1.28-13.89,2.8-20.6,1.35-6-3.62-4.39-6.68-4.91-4.21-.72-3.17,2.57-3.11,4.53.33,9.69-1.31,19.16-3,28.63-.35,2-2.41,4.17.32,5.76,2.55,1.5,4.31-.6,6.18-1.94A5.36,5.36,0,0,0,164.64,762.59Zm-103-88.19c1.44.53,1.89.74,2.36.86,1.34.35,3.67-.63,3.79,1.32.13,2.33-2.26,1-3.5,1.39-1.88.56-4.68.32-5.39,2-3,7.3-8.46,14.32-3.84,23,.51.95.18,2.52,1.68,2.7s1.79-1.2,2.43-2.16c4.67-7.14,7.79-15,11.34-22.74.77-1.67,2.89-3.85.4-5.22S65.82,671.89,61.67,674.4ZM263.59,496.58c.21,2.09-.61,4.05.66,4.9,1.65,1.12,3-.72,4.38-1.52a21.45,21.45,0,0,0,3.94-3.62c6.91-6.8,2.57-14,1.07-21-.31-1.46-10.67-2.39-11.62-1.18a2.54,2.54,0,0,0-.42,2.78A30,30,0,0,1,263.59,496.58ZM49.09,672.21c-9.42-.33-9.72-.36-10.64,8.09-.62,5.75-.37,11.61-.3,17.41,0,1.88-.85,4.92,1.2,5.4,2.66.62,2.74-2.63,3.67-4.45.44-.88,1.13-1.63,1.61-2.5,3.55-6.4,7.48-12.67,7.92-20.18-1.41-.73-1.67.65-2.35.7-2.82.21-7,2-8-.93C41.51,673.67,46.05,673.38,49.09,672.21ZM165,510.7c.3,7.22,7.82,15.94,14.78,17.74,3.16.81,2.53-1.47,2.26-2.86a35.6,35.6,0,0,1-.82-10.91c.67-5.42-3-6.9-6.95-8-1.55-.42-3.32,0-5-.17C165.79,506.19,163.56,506.92,165,510.7Zm109.5-6.3c-.13-.54,1-3.82-2.27-1.93-6.15,3.52-12.9,6.8-11.47,16,.41,2.64-.85,5.19-1.91,7.66-.47,1.09-1.86,2.38-.27,3.51,1.33,1,2.46-.28,3.63-.84C272.19,524,274.59,515.26,274.51,504.4ZM178.74,684.12c.59-3.85-.32-6.68-1.33-9.53-.7-2-1.89-3.15-4.06-2.82s-2.21,2.12-2.21,3.84c0,6.15.06,12.31,0,18.46,0,2.6,0,4.78,3,6.12.92.42,4.17,1.75,2.07,3.82s.29,2.09.76,2.82,1.33,1.77,2.45,1.1.54-1.81.55-2.75C180,697.89,180.3,690.58,178.74,684.12Zm-149-1.78c.78-3-.48-5.53-1.61-7.71-2.15-4.17-6.38-2.68-9.86-2.41-2.25.18-2.78,2.22-2.41,4.2a193.42,193.42,0,0,0,6.78,24.94c.7,2.12,2.31,2.14,3.12.27,1.39-3.23,3.75-6.06,4.27-9.63-1.73-1.11-3.36,5-4.44.29-.95-4.16-.2-8.71-.2-13.15C28.13,679.13,27.21,682.22,29.72,682.34ZM170.34,486.28c-2.52.34-4.83,1.1-5,3.62-.27,3.7-2.13,9,.82,10.8,4.24,2.53,10.12.3,15.3,1.93,1.7.53,2.86-9.85.58-11.57C178.53,488.41,174.34,487.25,170.34,486.28ZM39,385.19c-6.66.71-11.85,7.64-11,14.16,1,7,7.49,11.66,14.83,10.64,7.18-1,14.19-8.55,13.3-14.33-.8-5.21-7.94-10.84-13.39-10,5.89,2.49,9.33,6.07,8.58,12.67-.56,4.91-3.66,8.09-9.21,8.39-6.34.34-10.29-2.4-11-7.53-.28-2-.17-3.4,2.43-2.84a2.88,2.88,0,0,0,3.37-1.5c.86-1.57-.25-2.42-1.37-3.24-2.37-1.71-1.48-2.91.62-3.95C37.19,387.13,38.42,386.89,39,385.19ZM186.7,681.44c.38,2,2.14,1,2.82,1.86.49.63,1.17,1.3,1.23,2,.09,1-1,1.34-1.76,1.27-4.92-.43-3.77,2.43-3.15,5.34a15.32,15.32,0,0,1,.24,5.91c-1.06,5.59-1.31,10.85,3.81,14.74-1.41,1.29-3-.3-4.07,1.07,1.27,1.61,2.9,3.15,5,2.52s2.14-3,2.17-4.7q.19-12.94-.09-25.92C192.76,681.62,190.17,680.89,186.7,681.44ZM76.23,653.62c.53-5.4-1.66-10.66-3.23-16-.43-1.46-1.47-3.44-2.8-1-2.92,5.26-7.25,10.06-6.56,16.74.2,1.88-1,4.66,1.29,5.36,3.38,1,7.06,1.12,10.63,1.5.16,0,.6-1.08.64-1.68C76.3,657,76.23,655.49,76.23,653.62Zm116.58,107c3.86,4.15,4.91,4.08,7.05,0,.78-1.48,1.58-3,1.36-4.72-.76-5.88,2-11.73.05-17.63-.84-2.5,1.77-6.92-2.76-7.23-4.7-.33-3.33,4.67-3.39,6.85-.17,6-2.87,12.08,0,17.91C196.52,758.65,197.71,760.67,192.81,760.61ZM60.07,448c-.25-5.1-1.73-10.12-1.18-15.29a1.63,1.63,0,0,0-1.12-1.95c-.35-.07-1.18.39-1.18.62-.08,3.12-3.85,4.59-4,6.77-.47,6.38-1.1,12.89.55,19.24.34,1.35.77,3.18,2.76,2.91a3.09,3.09,0,0,0,2.85-3C58.86,454.2,60.45,451.26,60.07,448ZM74,688.22c4-.9,4.28,1.35,3.39,4.55-.31,1.11-.9,2.39-.61,3.37,1.2,4.06-1,3.92-4.23,2.67a17.86,17.86,0,0,0,1.19,3c.79,1.18.94,3.11,2.73,3.25,2,.16,2.1-1.84,2.68-3.09,3.13-6.71,6.22-13.45,9.21-20.23.55-1.23.5-3.29-1.42-2.66C81.8,680.71,74.48,679.58,74,688.22Zm98.69-214.77c-4.18-.32-4.24,2.92-4.86,5.28-.71,2.69,1.54,2.14,3.13,2.45,4.39.83,8.87,1.63,12.58,4.29,2.38,1.72,3.91,1.14,5.39-1s.9-3.78-1.18-5.45C183.26,475.43,177.47,475.62,172.73,473.45ZM255.3,518c-.06-2.12-.7-3.14-3.05-2.79-3.52.53-5.92,1.86-5.92,5.91a30.46,30.46,0,0,1-2.18,11.58c-.49,1.18-.67,2.41,1.11,2.48,2.59.12,5.42-.39,6.31-2.93C253.18,527.61,254.09,522.75,255.3,518Zm-96-24.44c-.34-.78,2.16-3.58,0-4.69s-4.32.9-6.13,2.43a9.51,9.51,0,0,1-2.11,1.3c-1.83.85-3.22,2-2.38,4.22,1.21,3.16,1.57,6.84,4.61,9,1,.68,1.77-.44,2.57-1C159.47,502.36,160.32,498.85,159.35,493.55ZM89.25,475.6c-3.75,6.64-8.07,12.33-9.63,19.47-.34,1.56-1.83,3.57-.15,4.52s3.81-.56,4.79-1.88C88.91,491.45,93.73,485.09,89.25,475.6ZM223.72,333.14c-1.23-2.81-.92-6-1.23-9.08-.21-2.12-1-3.8-3.91-2.09-3.48,2-6.68,4.72-6.71,8.44,0,3.57,4.36,4.35,7.17,6C222.88,338.63,223.09,335.89,223.72,333.14ZM168.81,656.86c-6.33-8.08-9.22-8.62-16-3.25-3.21,2.54-5.24,1.67-7.54-1-4.17-4.9-8.33-5.46-13.31-1.52-2.44,1.93-4.52,3.9-8.18,1.13,2.74,6,2.74,6,6.8,1.95,3.36-3.36,10-3.57,13.6-.19,2.1,2,3.86,4.3,5.79,6.5C157.09,651.68,159.9,651,168.81,656.86Zm-78.1,2.62c-.23-2,.4-4.14-.87-5.88a12.46,12.46,0,0,1-2.36-8c0-1.45,1-3.92-1.2-4.16-1.79-.19-2.09,2.21-2.52,3.78-.23.8-.77,2-.45,2.37,3.28,3.65.26,7.22,0,10.78-.15,1.83-.92,3.8.95,5,1.5,1,3.48,2.1,5.14,1.41C91.68,663.84,90.24,661.27,90.71,659.48ZM162.8,459c-7.18.16-10.47,2.59-11,7.52-.24,2.44.54,3,2.77,2.37,3.66-1.07,7.31-2.2,11.18-2.34,1.78-.07,2.62-1.29,2.88-2.93C169.55,458.07,164.85,460.05,162.8,459ZM150.12,483c-.18,1.13-.66,2.44,1.21,2.56,4.27.29,11.06-4.88,12.21-9.08.72-2.6.18-3.82-2.75-3.52C154,473.63,151.05,476.35,150.12,483ZM51.22,371.81c.41-2.49-.56-3.64-2.93-3.62-2.66,0-5.33,0-8,.07-2.22.09-3.17,1.39-3.22,3.6s.51,4,3,4.38c1.8.26,3.67.16,5.44.54C49.92,377.71,51.35,375.57,51.22,371.81Zm170,88c2-.41,4.49.79,5.43-1.62s-1.52-3.42-2.66-4.91c-2.61-3.39-6.7-2.25-10.14-3.1-1.12-.28-2.35-.58-3.05.77a2.76,2.76,0,0,0,.46,3.26C214.14,456.89,216.83,460.05,221.21,459.85Zm33.32,85.23c4.54.19,14.6-8.7,14.86-12.77a2.6,2.6,0,0,0-.35-1.8c-.73-.68-1.44.09-2.19.36-5.82,2.08-9.92,6.06-13,11.31-.42.73-1.1,1.42-.64,2.2C253.51,544.84,254.32,545,254.53,545.08Zm-45.32-125c2.38.17,4.92.23,5.32-2.06s-2.56-1.83-3.95-2.71c-2.78-1.76-5.94.41-8.56-.61-3.55-1.37-6.75.81-10.14.22a1.7,1.7,0,0,0-2.07,1.65c0,1.33,1,1.64,2.05,1.57C197.88,417.69,203.69,419.08,209.21,420.05Zm-22.12,45.22c-1.57-.21-2.24.2-2.3,1.19-.1,1.92-1,4.31,1.31,5.36s4.45,2.83,6.71,4.13c3.67,2.12,4.57-2.08,6.45-3.68,1.49-1.27.42-2.74-1.15-3.49C194.42,467,189.65,468.76,187.09,465.27Zm-25.71-32.2c-.37-.58-.59-1.34-1.07-1.6-1.23-.66-1.76.49-2.27,1.26-2.4,3.58-4.43,7.45-7.2,10.71-2.65,3.1-3.39,6.73-4.32,10.38-.29,1.16-1.14,2.88.77,3.35,1.46.35,1.66-1.34,2.11-2.32,3.19-6.92,6.18-13.93,11-19.93A11.28,11.28,0,0,0,161.38,433.07ZM61.49,370.25c-4.52-.94-4.08,2.54-4.34,5-.47,4.25,3.2,3.34,5.49,3.89,3.51.83,5.21-1.62,5.23-4.36C67.89,370.79,64.18,370.87,61.49,370.25Zm72.2,86.64c.37,1.54-.77,3.5,1.25,4.44a1.82,1.82,0,0,0,2.48-1c1.5-3.81,3.38-7.52,4-11.62.27-1.78-.82-2.77-2.46-3.13a2.4,2.4,0,0,0-3.07,1.78C134.92,450.48,133.67,453.56,133.69,456.89ZM170.26,662.8c0,2.87,2,3,3.74,3.32,2.28.46,5.23.59,6.15,2.76,3,7.12,9.85,6.17,16.35,8.83-2.44-3.8-4.51-5.92-8.11-5.81-1.52,0-3.11.13-4-1.38C181.23,665.33,176.58,662.87,170.26,662.8ZM280.33,347.54h.09c0-2.64.06-5.28,0-7.91,0-1-.45-2-1.67-2.1a2,2,0,0,0-2.18,1.63,52.37,52.37,0,0,0,0,15.71,2.09,2.09,0,0,0,2.43,1.95c1.17-.23,1.34-1.4,1.37-2.36C280.38,352.16,280.33,349.85,280.33,347.54ZM90.37,706.8c2.31-1.35,5.06-3,5-5.64-.11-3.08-3.79-5.62-5.72-5.92-2.31-.35-3,3.84-3.15,6.29S87.87,705.82,90.37,706.8ZM179,436.34c-4.16-.5-3.6,1.77-2.38,4.14,2,3.85,8.86,4.2,11.22.69.72-1.07,1.4-2.15-.32-2.67C184.75,437.65,181.87,437.05,179,436.34Zm-19.73-8.1c-.52-2-.85-4.22-2.59-3.63-2.6.89-6.49.09-7.48,3.47-.58,2,.44,4.49.83,6.74a.89.89,0,0,0,1.45.66C154.52,433.34,155.8,429.5,159.3,428.24Zm-38.16,219c-4.22-7.89-10.71-8.57-16.15-1.72-1.8,2.27-2.61,5.41-5.91,6.41-1.1.33-1.23,1.52-.48,2.45s1.78.6,2.46-.24,1-1.7,1.64-2.48C109.68,642.52,113.33,641.65,121.14,647.27ZM257.6,435.53c-.1-.34-.09-.77-.3-.94-3.54-3-7.08-6-10.7-8.91-.83-.66-1.52.21-2,.86-.66.83-1.18,1.87-.23,2.66,3.44,2.86,6.87,5.77,10.55,8.3C256.23,438.43,257.22,436.94,257.6,435.53ZM21.46,421.06c4.06,1,4.81-.64,4.8-3,0-5.32-4.84-2.28-7.15-3.81-1.94-1.27-4.06,1.88-3.82,3.28C16,421.55,19.94,420.59,21.46,421.06ZM241.86,436a11.09,11.09,0,0,0-.46-1.41c-.91-1.9-11-5.84-13-5-.39.17-1,.73-.91,1,.13.56.51,1.36.95,1.49,3.76,1.11,6.51,3.54,9.32,6.17C240.08,440.35,241.06,437.88,241.86,436Zm-96.57,40.54c-1.13-1,1.05-3.28-1.32-4a2.81,2.81,0,0,0-2.39,1.32c-.67,4-2.09,8-1.58,12.13a1.84,1.84,0,0,0,2,1.8c1-.09,1.27-.93,1.44-1.76C144,483,144.63,479.87,145.29,476.51ZM97.88,440.93c-1,4.85-3.19,9.46-2.82,14.5.08,1.16-.8,3.12,1.13,3.24,1.52.09,1.82-1.8,2-3.05A38.88,38.88,0,0,0,97.88,440.93Zm-6.29,86.32c-1.88,6.32,3.37,7.19,6.35,9.54,1,.83,2.76,2.23,4,.77s-.65-2.74-1.65-3.6C97.63,531.72,94.82,529.72,91.59,527.25Zm107.8,164.3c-1.28,1.42-.78,2.44-.76,3.4.15,5.45-.64,11,1.59,16.28.26.62-2.26,2.16.23,2.69,1.93.42,1.79-1.32,1.9-2.67A45.39,45.39,0,0,0,199.39,691.55ZM25.72,376.43c2.55-.1,5-.19,5-3.53,0-1.84-.6-3.5-2.88-2.95-2.52.61-6.36-.41-6.71,3.54C20.83,376.56,23.8,376.14,25.72,376.43Zm85,128.23c1.33-6.82-2.37-13.93-8.69-15.45A55.15,55.15,0,0,1,110.75,504.66ZM38.06,417.31c-3.16-.22-5.44.64-5.67,3.74-.19,2.53,2.24,2.57,3.88,2.8,3.44.47,4.07-2.51,4.55-4.73S39,417.49,38.06,417.31Zm39-33.76a5.64,5.64,0,0,0,3.69-5c.23-2.52-2.65-2.74-4.34-2.92-2.8-.3-3.42,2.28-3.6,4.33C72.59,382.47,74.72,383.05,77.06,383.55ZM161,453.9c1.67-.87,5,1.49,5.13-2.47,0-1.69-.54-3.81-3.1-3.63-2.86.19-5.45,1.37-5.8,4.37S159.55,453.3,161,453.9Zm-35.63,89.42c-.14-8.4-5.19-13.89-11.12-18.86C116.65,531.5,124.3,535.45,125.33,543.32Zm74.39-98.93c-1.05-2.35-3.08-2.73-4.89-3.29-2.43-.75-4,.7-4.43,2.74-.48,2.26,1.8,3.1,3.37,3.49C196.32,448,197.6,445.39,199.72,444.39ZM74.38,423.09c1.55-.7,4.12-.53,3.59-3.11-.39-1.87-1.57-3.81-4-3.47-1.47.2-3.85-.07-3.5,2.34C70.72,420.87,71.63,423,74.38,423.09ZM9.93,413.55c.07-1.82-1-2.38-2.5-2.32-2.39.1-4.47,1.55-4.64,3.62s2.49,2.24,4.13,2.37C9.41,417.42,9.44,415.16,9.93,413.55ZM248.25,540.34l-.71-.93a29.29,29.29,0,0,0-5.66,1.16,3.3,3.3,0,0,0-2,4.46c1,2.09,3.14.82,4.27,0C245.78,543.76,246.91,541.92,248.25,540.34Zm-134.47,2.44c-.19-3.24-3.36-3.39-5.59-4.45-1-.5-2,.42-1.79,1.63.46,3.22,3.37,3.81,5.7,4.84C113.39,545.37,113.72,544.16,113.78,542.78Zm155-93.79c-.91-.05-2.06.49-1.64,1.2a45.65,45.65,0,0,0,5,7.08c.52.59,1.24-.65,1.41-1.47C274,453.92,270.71,449.22,268.83,449Zm-177-65.32a4.16,4.16,0,0,0-3.51-3.21c-2.33-.2-2.65,2.18-3.27,3.77s.59,2.49,2.08,2.54C89.31,386.85,90.62,385.34,91.78,383.67ZM313,440.34c-.08-1.87,0-4.09-2.22-4.45-2-.32-2.16,1.79-2.18,3.17,0,2,.26,4.38,2.63,4.62C313.34,443.9,312.72,441.63,313,440.34ZM112.38,534.48c0-1-4.88-6.41-5.72-6.29a1.57,1.57,0,0,0-1.47,1.62c-.11,1.44,4.47,6,6,5.92A1.24,1.24,0,0,0,112.38,534.48ZM239.61,644.15c-.7-2.17-2.44-1.21-3.76-1.29-1.16-.07-2.75,0-2.22,1.71s1.49,3.84,3.5,3.59C238.84,647.94,238.68,645.47,239.61,644.15Zm-114.68,56.9c-1.39-1.95-4,.34-5.51-1.24a1.16,1.16,0,0,0-2,1c.17,2,1.61,3.1,3.6,3.34S123.87,703,124.93,701.05Zm105.72-262.4c1.33,2.32,1.81,5.36,4.79,6.12.7.18,1.12-1.15,1-2C236.06,439.53,233.41,439.06,230.65,438.65ZM14.05,376c0-1.26-.32-2.43-1.89-2.2s-3.2,1-3.39,3c-.14,1.33.5,2.26,2,2.11C12.52,378.72,14,378.15,14.05,376Z" transform="translate(-1 -20.67)"/><path d="M790,886a15.91,15.91,0,0,0-.48-9.79c-.18-.47-.6-1-.5-1.39,1.86-7.23-3.33-12.31-5.35-18.39-1.8-5.42-2.1-11.29-5.84-16.09-.86-1.1-.71-3.25-.51-4.85a19.41,19.41,0,0,0-2.14-12.06c-1.73-3.23-1.27-5.94,2-8.18a9.24,9.24,0,0,0,4.17-9.49,12.9,12.9,0,0,1,.54-4.91c.82-3.19,2.35-6.49-3.54-4a4.45,4.45,0,0,1-5.53-2.36A3.87,3.87,0,0,1,774.6,789a3.21,3.21,0,0,0,1.6-3.41c-.86-7.8,2.1-14.23,6.79-20.2a3.39,3.39,0,0,0-.93-5.24c-2.1-1.14-3.48.67-4.31,2.3-.74,1.45-1.58,3.25-1.34,4.73.85,5.08-2.19,6.26-6.1,6.64-2.34.23-4.07.9-5,3.31a2.5,2.5,0,0,1-4.08,1.26c-1.63-1.16-3.06-2.29-4.67-.23a5,5,0,0,0-.19,6.06c.76,1.28,1.8,2.54,2.06,3.93.42,2.31.43,5.31-2.67,5.42-4.09.14-4.51,3.09-4.23,5.43,1.32,10.76-3.9,20.88-2.75,31.59a5.32,5.32,0,0,1-1.45,4.65c-6.3,5.41-5.46,11.82-2.53,18.87a14.59,14.59,0,0,0-2.59,0c-7.6,1.53-7.59,1.54-10.12-5.57-1.39-3.91-2.58-4.1-5.57-.78-.56.64-1.62,1.66-1.83,1.19-2.07-4.58-10.9-2.61-9.79-10.23.23-1.61-1.37-2.54-2.51-3.51-1.77-1.49-4.2-3-3-5.67s4.33-3.45,6.89-2.42c3.12,1.24,3.53.05,3.28-2.47-.53-5.43.53-10.18,4.95-13.9,2.4-2,1.83-5.56,3.63-8.1,1.6-2.23,2.22-4.88,5.16-6.34,2.71-1.34,2.38-4.71,2-7.27a12.92,12.92,0,0,1,2.46-9.86c4.11-5.91,4.61-12.36,2.64-19.1a11,11,0,0,1,2.24-10.76c4.39-5.21,3-12,4.89-17.89.54-1.72-.72-3.79-3.35-2.65-3.28,1.44-5.89,1.15-7.27-2.54-1.26-3.38.65-4.93,3.59-5.83,1.32-.4,2.33-1.42.79-2.39-3.86-2.43-2.6-5.74-1.8-8.91a6.53,6.53,0,0,0-2.58-7.44c-5.33-4.21-7-10-5.89-16.41a15.56,15.56,0,0,0-1.19-9.61c-2.53-5.63-4.2-11.78-3.36-17.92s-3.45-10.09-5.42-15c-2.8-7-5.17-14.23-5-22.12.17-6.44.88-12.93-.71-19.39a17.73,17.73,0,0,1,0-8.89,9.61,9.61,0,0,0-.83-8.06,3.26,3.26,0,0,1-.53-1.39c-.36-15.64-12.32-16.76-23.59-19.5C681,561,671.23,560,661.63,558.87c-6.78-.81-14.92-.8-19,7.46-.66,1.34-1.61,2.69-3.33,2.67-2,0-1.75-2.12-2.63-3.17-5.76-6.85-6.66-15.65-9.8-23.55-1.18-3-.22-5,2-6.44,2.58-1.72,3.26.9,4.51,2.34a15.48,15.48,0,0,0,3.42,2.86c4.31,2.78,6.16,2,6.27-3,.1-4.5,2-7.35,6.18-8.52,3.11-.87,4.56-3.08,5.69-5.75.53-1.24,1.15-2.7,2.71-2.48s1.52,2,1.91,3.21a7.75,7.75,0,0,1,.32,2.95c-.29,3.28,1.28,5,4.35,5.62,4.12.8,8.88,4.87,11.55-2.16,0-.14.28-.35.35-.32,4.83,1.72,9.64-1.84,14.2-.41,4,1.26,13.26,1.23,16.34-1.85,2.56-2.54,4.18-2.15,5.89.59a2.78,2.78,0,0,0,.3.4c9.46,12.2,12.85,13.29,27.52,8.72a11.55,11.55,0,0,1,5.85-.47c5,1,7.41-1.25,5.49-6-3.82-9.58-2.21-19.22-1.76-28.91,0-1.09-.4-2.57,1.2-2.87,1.29-.23,2.11.8,2.81,1.77a9.35,9.35,0,0,1,1.32,7.65c-1.59,7.81-.75,15.21,3.32,22.2a14,14,0,0,1,1.13,4.29c.3,1.56,1.12,3.7,2.34,3.46,4.49-.87,8.85,2.87,13.24.18,2.31-1.41,4.3-1.72,5.82,1.13a3,3,0,0,0,1.9,1.46c1.74.17,3.51,2.5,4.95.87,1.28-1.44-.72-3.11-1.55-4.34-2.71-4-3.72-8.06-1.61-12.68,1.32-2.89,2.81-2.39,4.37-.39a5.58,5.58,0,0,1,1.44,3.13c-.21,6.77,4.92,10,8.87,14.14,1.27,1.32,2.3.74,3.51,0,3.37-2.13,7.26-2.2,11-2.53,2.24-.2,4.3.16,5.19,2.82.43,1.32,1,3.28,3.06,1.8,1.54-1.1,2.13-3.23.71-4.35-3.82-3-4.74-6.53-3.19-11a3.18,3.18,0,0,0-1.4-3.52c-3.64-2.68-5.29-7.15-9.24-9.68-3.17-2-1.29-5.25,0-7.61.94-1.7,2.56-.26,3.14.76,1.79,3.14,4.56,4.66,7.86,5.68s3.63,3.87,3.38,6.52c-.62,6.58,4.89,10.26,7.44,15.2,1.52,2.93,6.67,1.94,9.81-.76a36.69,36.69,0,0,0,3.1-3.25c.8-.89,1.6-1.72,3-1.35,1.62.45,1.93,1.74,1.93,3.12,0,2.93.5,5.64,2.79,7.74,2.77,2.54,5.53,4.16,9.26,1.41,3.16-2.33,6-1.48,7.94,1.91a18.77,18.77,0,0,0,5.38,5.85c4.44,3.2,4,7.07,1.65,10.88s-3.12,7.59-.37,11.54c1.26,1.81.49,3.36-.52,5a10,10,0,0,0,0,10.88c3.74,6.09,3.66,12.26.85,18.58a21.62,21.62,0,0,0-1.18,14c1.58,7.56,3,15.27,2.77,23.12-.17,5.33,1.53,10.83,1,15.82-1,9.85,1.52,19.82-1.35,29.51-.62,2.1-1.3,4.35-.48,6.38,1.42,3.51.17,6.57-1.11,9.61a38.16,38.16,0,0,0-3.14,18,20.68,20.68,0,0,1-1.07,8.37c-2.62,7.57-2.68,16-5.56,23.11-3.68,9.1-4,19-8.5,27.79-3.65,7-5.25,15-8.93,22.16-5.05,9.9-12.47,18-18.74,26.9-.79,1.13-2.38,1.79-3.73,2.41-15.6,7.23-23.51,20.25-27.41,36.31-1.2,4.95,1.36,9.49,1.56,14.28Zm-3.86-200.18c-.88,4,1.45,10.15-6.46,9.53a1.91,1.91,0,0,0-1.53,1c-.68,4.75-5.2,6.71-7.36,10.36-.93,1.58-1.63,3.72-4,2.42-2-1.09-1.74-2.94-.72-4.76,2.69-4.79,2.12-9.56-.08-14.34a27.8,27.8,0,0,1-1-3.33c-.39-1.26.85-3.37-1.45-3.61-1.91-.19-2.17,1.71-2.76,3a57.91,57.91,0,0,0-4.16,17.4c-.5,4.6-2.6,8.89-2,13.71.74,6.48,5.76,11.43,10.82,9.33a81.75,81.75,0,0,0,15-8.47c12.45-8.61,12.22-23.09,15.9-35.72.5-1.73.49-3.6.83-5.39a23.7,23.7,0,0,0-.8-11.82,3.79,3.79,0,0,0-4.62-2.87c-2.41.48-1.8,2.45-1.41,4s.61,3-1,3.94a2.87,2.87,0,0,1-3.66-.56c-1.93-1.8-4.36-2.74-6.11-.73s.75,4,1.87,5.64C783.77,678.08,787.06,681,786.14,685.82Zm18.31-4.72c1.74-.71,1.86-2,2.06-3.37,2-13.37-3.32-24.38-11.87-33.87-7.78-8.64-18.32-8-25.21,1.37-7.11,9.65-8,20.74-5.81,32.22.25,1.29-.37,3.48,2,3.23,1.69-.17,2.23-1.74,2.34-3.38.3-4.47.72-8.93,1-13.4.52-9.4,11.58-18.22,19.76-15.7,6.84,2.12,13.65,11.35,13.72,18.53C802.43,671.5,801.63,676.4,804.45,681.1Z" transform="translate(-1 -20.67)"/><path d="M888,419c-4.41,1.17-7.11,4.81-10.28,7.59-3.78,3.31-7.26,3.33-11.27,1-6.7-3.83-7.43-3.64-11.14,2.93A12,12,0,0,1,840.72,436c-4.61-1.5-8.24.19-11.61,2.57s-4.84,5.82-2.55,10a39.42,39.42,0,0,1,2.14,5.05c2.16,5.79,2.17,5.93-4,7.16-2.88.58-3.35,2.89-4.55,4.82-1.07,1.74-1.33,4.41-4.18,4.38s-3.64-2.58-4.74-4.55c-1.95-3.48-2.87-7.48-5.38-10.68-.7-.89-1.2-2.2-2.68-1.69-1.19.42-1,1.58-1,2.56a14.57,14.57,0,0,1-.11,2c-.58,3.34-2.14,6.5-5.53,7s-4.39-3.17-5.34-5.7c-2.18-5.75-4-11.63-5.93-17.49-.67-2.07-1.55-4-4.09-3.25s-2.08,2.74-1.81,4.92c.75,5.83-.31,11.54-2.08,17.1-.82,2.58-2,5,.66,7.29,1.8,1.55,2.74,3.42,1,5.66-.93,1.19-2,2.56-3.7,1.84-2.21-.91-4.09-2.23-4.08-5.07.07-12.25-6.67-22-12.34-32-3.25-5.72-10.94-5.6-15.06-.5-2.15,2.66-2.92,5.1,1.29,6.95,3.4,1.49,4.62,4.47,2.69,7.84-1.1,1.91-2.94,4.47-4.65.15-.54-1.39-1.09-3-3.2-1.81-1.93,1.08-1.85,2.4-.81,4.14a6.42,6.42,0,0,1,.2,6.67,27.41,27.41,0,0,0-3.5,10.33c-.18,1.72-.8,4-3.23,3.67-2.61-.35-2.49-3.18-1.78-4.36,3.32-5.45-.81-12.49,4-17.54a2.45,2.45,0,0,0-.31-3.26c-4.74-4.73-6.19-10.75-7-17.08-.19-1.45-.53-3-2.42-3.89-2.7,3.78-2,9-5,13-2.83-2-2.55-4.8-2.65-7.52-.08-1.83-.1-3.92-2.53-4.24s-2.86,1.74-3.44,3.49c-.87,2.62-.61,5.27-.28,7.92s-.21,4.82-3.31,5c-3.43.18-4,2.59-4.23,5.11-.18,2-.61,4-2.49,4.49-5.2,1.27-4.94,5.08-4.79,9a25,25,0,0,1,0,3c-.14,1.58-.61,3.11-2.54,3.09s-2.57-1.37-2.58-3c0-3.15-.48-6.33.75-9.39a17.48,17.48,0,0,0,.66-9.84c-.29-1.61-.78-3.53-2.86-3.59-1.81-.05-2.39,1.72-2.85,3.08a28.77,28.77,0,0,0-1.5,8.27c-.06,1.82-.58,4-2.84,4.12-2.61.1-2.3-2.4-2.61-4.08-.51-2.77-.84-5.57-1.25-8.36-.21-1.51-.59-3.74-1.81-3.89-5.77-.71-7-6.55-11.07-9.28-3.58-2.43-6.67-5.06-11.24-5.79-6.19-1-11.42-4.93-17.68-6.39-4.48-1-5.8-6.86-8.34-10.66-2.39-3.58-3-8.13-8-10.12-2.88-1.14-4.68-4.75-4.09-8.49.84-5.33-2.55-9.09-4.74-13.31a2.77,2.77,0,0,0-2.38-1.6c-3-.1-5.27-1.91-7.7-3.34-6.41-3.77-6.63-5.12-.52-9.45,3.15-2.23,2.81-4.54,1.51-7.28s-2.62-6.29-6.83-4.85c-3.21,1.09-3.54-.6-3.31-2.87.17-1.8.84-3.55,1.13-5.35.61-3.73,2.93-3.41,5-1.74a37.39,37.39,0,0,1,7.63,7.8c4.83,7,12.68,6.84,16.9-.35,1.72-2.92,10.36-3.13,12.37-.25,1.28,1.85.73,3.32-1.49,3.55s-4.28.9-6.34,1c-3.33.16-5.23,1.39-6.26,4.47-.89,2.63-2.94,2.46-5.32,2.26-3.18-.26-7.23-1.73-9.25,1.67s.85,6.6,2.43,9.63a21.09,21.09,0,0,0,2.59,3.66c2.95,3.53,7.17,2.74,8.83-1.63,2.29-6,2.27-6,7.82-3.41,2.95,1.35,5.2.48,6.38-2.61.53-1.39.74-2.91,1.31-4.29,1.57-3.8,3.88-4.44,6.82-1.67,2.21,2.07,3.82,3.91,7,1,2.39-2.17,3.69.69,4.87,2.39,3.94,5.63,4.15,5.71,10,1.85,2.69-1.77,4-.24,5,1.93,1.65,3.53,4.12,6,8.06,6.79,3.57.68,5.18-.71,4.37-4.34-.72-3.24-1.62-6.43-2.44-9.64l-.1.1c5.42-.65,10.49-.08,15.19,3.17a9.73,9.73,0,0,0,11.29.23,3.39,3.39,0,0,1,.9-.43c2.68-.67,5.6-3.95,8-.51s-1.08,5.41-3,7.49c-4.64,5-5.51,11.14-5.46,17.53,0,2.5,1.66,4.31,3.43,5.87a4.66,4.66,0,0,0,5.58.52c2.23-1.1,2-3.09,1.31-4.74-1.89-4.72,1-4.64,4.17-4.48,2.36.12,3,1.35,1.81,3.31-1.94,3.3-.7,5.84,2,7.77s5.94,4.17,9,1.33c6-5.46,11.72-2.88,17.44-.06,3.08,1.52,5.83,2.48,8.68-.18a4,4,0,0,1,5.07-.58c2.35,1.33,4.15.5,5.77-1.22,1.14-1.22,1.56-2.72.41-4.05-1.5-1.75-3.07-3.63-5.84-3.07a10.81,10.81,0,0,1-2.4.46,2.75,2.75,0,0,1-2.78-2.94c0-2.34,2-2.2,3.25-1.74,2.26.82,4.08.75,6-.8,1.22-1,2.71-2.54,4.4-1.14s2.85,3.95,1.71,5.83c-2.78,4.64-.84,8.82.09,13.32.61,2.91,1.5,4.81,4.59,4.67s4.26-2.49,4.62-5.07a51.64,51.64,0,0,0,.17-7.47c0-1.91.27-3.79,1.78-5,3.43-2.79,5.76-1.59,7.52,2.73-2.08-6.51.14-13.2-3.3-19-1.15-2-2.78-4.14-.4-6.27s4.92-1.58,7.3.15c5.71,4.16,11.46,4.94,17.49.56,1.13-.82,2.76-1.65,4.19-.58s.72,2.78.47,4.2c-1,5.5-8.39,12.78-14.14,13.75-2.62.44-4.39,1.91-4.92,4.28s-2,4.21-2.71,6.36c-1.51,4.54-2.82,9.09-5.07,13.37a4.72,4.72,0,0,0,1.09,6c2.15,1.75,4.45,1.3,6.47-.15,3.25-2.33,7.72-3.61,7.39-9.09-.12-1.94,1.37-3.11,3.75-2.9,4.49.39,9.46-1.88,12.67,3.82,1.26,2.25,3.23.2,4.08-1.5,1-2,2.54-4.84-.5-5.92-2.86-1-5.62-1.28-5-5.22.28-1.95,1.19-3.69,3.34-3.8,3.53-.2,6.49,1.06,8.27,4.35.86,1.6,1.49,3.32,3.06,4.48,2.89,2.12,6.09,4.56,9.52,2.57s3.7-6.12,3.34-9.79c-.23-2.32-1-4.6,0-6.85.94-2,2.44-2.57,3.59-.35s1.93,4.73,4.92,3.45,6-3,6.11-7.12a14.72,14.72,0,0,0-1.81-7.15c-2.57-5.16-1.79-6.82,3.66-7.39,4.23-.44,3.65-3.25,3-5.82-.34-1.34-1.61-2.46-2.56-3.61a2.88,2.88,0,0,1-.1-4.06,3,3,0,0,1,4-.94c2.64,1.27,5.47,3.66,8.28,1.24A16.38,16.38,0,0,0,886,344.77c.36-4.25-.77-7.18-5.89-7.12a44.36,44.36,0,0,1-7.38-1c-2-.31-3.64-1.15-3.58-3.42s2.11-2.64,3.66-2.31c5.32,1.11,9.92-2.85,15.15-1.92ZM646.12,372.34c-4.7,0-15.41,4.79-17.88,9.05s-3.85,9.41-5.67,14.17a1.46,1.46,0,0,0,.13,1c.49,1.17.48,2.92,2.21,2.89,1.42,0,1.58-1.52,1.93-2.59.45-1.4.09-4.06,1.21-4.08,4.93-.1,9.35-4,13.77-3.2,8.11,1.43,8,2.12,10.43-5.9.19-.64.38-1.27.61-1.9C655.36,374.67,653.65,372.27,646.12,372.34Zm49,13.44a4.51,4.51,0,0,0-3.5-5.31c-2.84-.81-4,1.15-5.38,3.25-2.38,3.74-6.47,5.43-10.46,5.87-3.32.37-3.65-3.74-5-6-2.35-3.93-5.16-4.33-8.31-1.05a6,6,0,0,0-1.05,7.34c1.5,3,4.28,3.73,7.2,2.6,3.69-1.42,5.73-.49,7.44,3.12,2,4.2,8,5.66,12,3A14.36,14.36,0,0,0,695.14,385.78Zm-37.79,14c-2.27.41-5,.71-4.5,3.58s2.21,6.15,5.59,6.18c2.93,0,5.73-2.35,5.64-5.36C664,400.27,660.12,400.41,657.35,399.75Zm220.31,10.66c2.53-.17,3.34-2.44,3.93-4.68.47-1.73-.86-3.41-2.24-3.16a5.67,5.67,0,0,0-4.77,5C874.35,409.35,875.47,410.28,877.66,410.41Zm-1.52-20c-.33-1.09,0-3.29-2-3-2.9.48-3.28,3.27-3.7,5.68-.24,1.31.31,2.44,1.77,2.28C874.88,395.1,876,393.22,876.14,390.4Zm-37.4,27.68c2-.33,3.65-1.06,3.47-3.41-.15-2-1.58-2.87-3.49-2.64-1.74.21-3.35,1-3.19,3.05C835.67,416.86,836.58,418.25,838.74,418.08Z" transform="translate(-1 -20.67)"/><path d="M316,886c.13-3.26-2-5.47-3.59-8-1.15-1.89-3.31-3.55-1.64-6.24a7.22,7.22,0,0,1,6.3-3.37C328,868,336,862.08,339.52,851.89c2.07-6,1.27-8.7-3.65-12.81-1.62-1.35-3.09-3.21-1.54-5.11s4.1-1.41,5.94-.17c5.55,3.74,11.88,5.26,18.29,6.05,6.78.83,13.64.71,19.31-4.21,2.25-1.95,4.25-1.94,6.46.42,5.58,6,9.2,6.23,15.27,1.12,1.7-1.43,2.94-1.26,4.89-.55,9.25,3.32,12.14.7,14.09-6.8,2.41-9.29-.74-13.36-10.44-13.15a114.51,114.51,0,0,0-12.92,1.22,10.28,10.28,0,0,0-8.55,6.85c-1.36,3.58-3.52,4.07-6.63,2.69-1.66-.75-3.3-1.57-4.9-2.44-1.16-.63-2.27-2.06-3.37-2-7.95.27-13.3-5.85-20.25-8a10.49,10.49,0,0,1-3.69-1.46,21.18,21.18,0,0,0-16.66-5.18c-1.27.14-3.28.07-3.23-1.54.17-5.77-2.6-2.25-4.39-1.49-2.19.92-3.89,3.27-7,2.24,1.1-3.83,4.61-5.45,7.27-7.12,8.69-5.44,11.85-14.05,15.17-23s8.79-16.41,19.26-18a2.91,2.91,0,0,0,2.88-2.71c.62-3,1.63-6,2.47-9,.45.06.88,0,1,.16,1.13,1.53.56,5.3,3.65,4.11s1.63-3.82.17-5.83c-1.24-1.7-.57-3,.62-4.43a4.43,4.43,0,0,0,.12-5.56c-.82-1.22-2.42-1-3.71-.77-2.64.54-1.88,2.73-1.92,4.44,0,1.55,0,3.12-1.57,4-1.8,1-3.17,0-4.42-1.26a18.47,18.47,0,0,0-9.28-4.58c-2.47-.53-5-.65-4.39-4.51.35-2.22-1.52-2.08-3.11-1.41-4.27,1.82-7.6.69-11.42-2.05-4.39-3.15-9.8-4.86-14.72-7.29-1.83-.89-4.84-1.6-3.37-4.39,1.26-2.41,3.78-1.43,5.68-.14,12.35,8.37,25.85,6.77,39.36,4.43a11.85,11.85,0,0,1,6.75.86c3.23,1.27,5.52.76,8.33-2,4.81-4.61,9.84-8.61,11-15.8.39-2.42,2.7-3.48,5.56-2.41a67.82,67.82,0,0,1,12,5.7,27.38,27.38,0,0,0,20.14,3.05C430.59,709.81,441,711,451.39,711c5.21,0,7.81,5.26,11.8,7.85,1.38.89,2.52,2.3,4,2.87,8.1,3.11,11.1,9.27,10.74,17.47-.19,4.12,1.13,7.13,5.19,8.64,3.16,1.17,4.45,3.76,5.08,6.86,1.43,7,4.72,8.94,11.28,6.74,7.14-2.41,13.38,1.3,19.81,3.14a18.37,18.37,0,0,0,8.57.58c4.08-.66,8.47.17,12.65.81,2,.31,2.93,2.32,2.42,4.33s-2.13,3.86-4.34,3.22c-4.71-1.37-10.18.87-14.34-3.12-.39-.38-1.59-.11-2.35.11a42.75,42.75,0,0,1-21.14.2c-5.76-1.28-11.94-.46-17.33-3.78a3.25,3.25,0,0,0-4.31,1.49c-1.13,1.86-2.83,3.7-2.72,5.8.45,9.17-4,15.76-10.39,21.61a14.54,14.54,0,0,0-3,5.09,10.78,10.78,0,0,1-7,6.6c-5.94,1.78-8.31,5.87-8.45,12-.35,15.41-7.93,25-23.62,25.81-2.95.16-5.89.84-8.9.87-4,0-5.8,2.07-6.15,6.23-.58,6.79-2.91,13.36-2.37,20.53-4.71-7.5-11.45-4.87-17.27-4.1-3.75.49-7.21,1.24-11.17.77-6.17-.75-12.51,0-18.77,0-3.84,0-7,2.9-7.16,7.56-.09,3-.16,6,.89,8.87ZM426.49,776.65a42.13,42.13,0,0,0,6.46-.08c1.56-.24,3.63-.9,3.78-2.73.17-2.15-2.46-2.84-3.57-2.66-6.09,1-9-4-13.16-6.51-3.44-2.12-6.87-5.22-5.37-9.55,2.05-5.9,3.57-13,11.19-14.5,5-1,10.18-1.07,15.29-1.46,2.61-.19,6,.4,6.1-3.34s-2.2-5.69-6.08-5.67c-6.07,0-12-1.09-18.25.53-4.27,1.1-7.39,1.92-8.85,6.4-.6,1.83-2.2,4-4.54,2.09-4.9-3.91-5.42.07-6.27,3.3-1,3.7-2.16,6.56-6.71,7.56-3.32.72-5.48,4.2-7.41,7.05-.94,1.39-1.13,3.85.43,5.09s3.07-.18,4.33-1.33c1.71-1.57,3.54-3,5.14-4.7,1.17-1.23,2.86-2.36,3.72-.8A38.45,38.45,0,0,0,413.64,768c.11.08.1.31.16.46C417.31,776.85,417.31,776.85,426.49,776.65Zm-59.8,87.54a6.9,6.9,0,0,0,1.8-.12c8.82-2.16,17.63-4.33,26.42-6.61a15.29,15.29,0,0,0,4-2,4.76,4.76,0,0,0,2.25-5.14c-.31-2-2-2.66-3.66-2.87-5.76-.73-11.65-2.39-17.31-1-5,1.23-9.29.49-14-1-5.46-1.69-10.26,1.33-11.06,6.25C354.12,858.14,359.49,864.31,366.69,864.19Zm70.07-97.54c6.85,1.16,9.49-3.59,12.11-8.35.81-1.47,1.75-3,.09-4.48-3.94-3.54-8.36-5.33-13.7-3.6l-.48.13a9.77,9.77,0,0,1-5.3.59c-3.69-.58-6.14,1.92-8.46,4.31-1.08,1.11-1.18,2.59.09,3.51C426,762.23,429.63,768.05,436.76,766.65Zm-14.48,48.08c-1.11,6.27,4.07,10.65,4.91,16.41.58,4,3.07,4.64,6.41,2.38,7.34-4.95,6.82-18.34-1-22.54a13.44,13.44,0,0,0-9.12-1.56C421.07,810,422.66,812.91,422.28,814.73Zm39-60.29v-.06a23.88,23.88,0,0,0,4,0c3.55-.61,7.52-5.46,6.81-8.78-.9-4.25-4.6-2.81-7.38-2.93a17,17,0,0,0-4.43.5c-4.16.93-7.36,3.62-7.09,7.75.27,4.29,4.71,3.05,7.62,3.55A2.78,2.78,0,0,0,461.29,754.44Zm-97.58,9.87c-.24-.6.82-2.53-1-3.25-2.07-.83-2.25,1.31-3,2.42a3.58,3.58,0,0,1-2.81,1.82c-4.9,0-6.93,4.17-9.82,6.89-2.07,2-1.38,5-.51,7.49a3.55,3.55,0,0,0,3.66,2.12c2.62-.22,3.17-2.33,3.91-4.46,1.15-3.37,3.16-6.23,6.76-7.37C363.43,769.16,364.18,767.49,363.71,764.31Zm96.82,17.84,0-.21c.82,0,1.65,0,2.48,0,2-.08,3.73-.74,4.16-2.83.54-2.64-2-2.72-3.48-3.32a31,31,0,0,0-5.75-1.45c-1.79-.34-3.82-.79-4.17,1.94-.28,2.19-.44,4.5,2.33,5.28A30.76,30.76,0,0,0,460.53,782.15Zm-74-66.29c-2.58.12-5.05.76-4.86,3.71.15,2.51,1.49,4.8,4.73,4.52,2.81-.25,5.51-1.4,5.52-4.43S388.92,716.29,386.56,715.86Zm33.33,81.86c-.4-.78.85-3.46-1.73-3.11-2.35.31-5.79.46-5.81,4,0,2.42,1.86,3.6,4.36,3.74C419.88,802.57,420.17,800.66,419.89,797.72Z" transform="translate(-1 -20.67)"/><path d="M1,131c18,.12,36,.33,54,.33q136,.06,272-.1c4.84,0,5.87,1.56,5.75,6-.27,9.45-.07,9.59-9.35,9.36-17.62-.43-35.28-.49-52.85-1.72-16.55-1.16-33.13-1.5-49.66-2.53-12.57-.79-25.17-2.36-37.74-2.27-15.65.1-31.29-.55-46.93-.32-3.18.05-6.31.3-9.26-1.32-.84-.45-2.26-1-2.84-.58-5.08,3.36-11.16,2.06-15.84,1.09-6.73-1.4-13,2.92-19.36,0a2.24,2.24,0,0,0-1.48-.15c-5.83,1.79-11.53,1-17-1.22-4.83-1.93-9.69.76-14.67-.67A14.56,14.56,0,0,1,50.45,134c-.82,5.17-4.52,4.72-8.06,4.81-13.8.36-27.6.8-41.39,1.21Z" transform="translate(-1 -20.67)"/><path d="M1,557c.26-.21.51-.42.78-.62,1.11-.82,1.42-3.37,3.14-2.54,2,1,.65,2.88.09,4.39-.27.71-1.09,1.37,0,2.56a25.33,25.33,0,0,0,6.22-16.72c-.33-12.37,0-13,5.33-26.55,5.72-14.65,13.24-28.62,17.05-44a2.46,2.46,0,0,1,2-2.21,22.4,22.4,0,0,1,.07,11.38A253.81,253.81,0,0,1,14,536c-.21.39-.12,1,.5,2,1.09-1.58,2.29-3.11,3.25-4.78a57.9,57.9,0,0,1,3.3-5.55c4.28-5.86,9.26-11.22,10.84-18.81.94-4.49,5.23-5.59,9.24-4.67,5.54,1.26,10.4,4.12,12.1,10,3.29,11.35,8,22.14,12.14,33.15,1.71,4.53,1.73,9.74,2.2,14.66a8.47,8.47,0,0,0,3.2,6.38c.29-3.53-.76-6.28-1.6-9.07-.26-.84-.32-1.71.64-2.12a1.53,1.53,0,0,1,2.05.92c2.44,5.46,6.64,10.12,5.1,17.14-1.15,5.27,1.13,10.84.74,16.39a21.17,21.17,0,0,1-1.94,8.62l.17-.17c-3.89.67-6.67,3.52-10,5.19C60.28,608.05,54.65,609,48.61,607c-1.3-.42-2.88-.78-2.76-2.37.13-1.82,1.9-1.51,3.15-1.52,4,0,8,0,11.8-1.51,1.06-.43,2.4-.72,2.38-2.17,0-1.23-1.29-1.29-2.17-1.71-9.94-4.73-15.27-12.29-16.27-23.57-.6-6.79-3.26-13.39-6-20.3-1.52,3.83-3.35,7.56-4.51,11.5-3.66,12.49-10.13,22.85-21.53,29.68-2.46,1.48-3.08,2.94-.31,4.78,1.15.77,3.23,1.44,2.27,3.25s-3,1.12-4.52.7c-3.58-1-5.92-4.11-9.12-5.8Zm49.49-2.38a23.68,23.68,0,0,1,5.78,12.65c.91,6.34,4.08,11.52,7.87,16.37,1.57,2,4.28,4.92,6.4,2.83,1.8-1.75-1.92-3.59-3.26-5.3-2.42-3.11-5.58-5.71-7.13-9.94,3.1,0,3.33,3.06,5.52,3.19a2.05,2.05,0,0,0-.31-2.72c-5-5.54-4.39-12.64-5.29-19.24-1.55-11.26-7.29-19.68-16.54-25.88a8.67,8.67,0,0,0-6.74-1c-6.73,1.34-10.83,5.92-14.37,11.3C17.77,543.91,15.67,552,13,560.34a5.17,5.17,0,0,0,4.15-3.44c.85-2.34,1.8-4.65,2.76-6.95.47-1.1.37-3.22,2.23-2.53,1.59.59.45,2.28.31,3.53-1,8.76-7,14-13.42,19-1.95,1.52-4.27,2.54-5.6,4.84a4.74,4.74,0,0,0,.59,6c1.51,1.65,3.09,0,4.46-.69a21.8,21.8,0,0,0,3.65-2.56c5.68-4.63,7.59-11.57,10.82-17.7.57-1.09.55-3.27,2.2-2.77,1.8.56.95,2.41.54,3.82-3,10.28-6.91,19.88-18.16,23.89a1.54,1.54,0,0,0-.42.26c-1.54,1.12-3.23,2.44-1.91,4.45,1.2,1.84,3.42,1.62,4.89.39,4.79-4,10.83-7.41,13.11-13.34,3.6-9.42,8.25-18.49,10.46-28.41.78-3.5,2.5-5.27,6.18-5s5,2.75,5,5.75c0,4.3,1.57,8.15,2.85,12s2.51,7.76,2.65,12c.27,8,4.12,14.25,11,18.42,2.88,1.73,5.95,3.13,10,1.75C53.56,585.92,52.88,569.81,50.49,554.62Zm.18-27c-1.18-7.58-7.08-12.45-12.58-11.71a4.44,4.44,0,0,0-3.71,4.65c0,2,2.42,1.1,3.66,1C42.82,521.24,46.69,523,50.67,527.61Z" transform="translate(-1 -20.67)"/><path d="M681,886c-1.59-8.25-8.44-11.44-14.64-15.28-10.77-6.68-23.27-8.28-35.08-11.92-3.14-1-6.56-1.94-9.75-1.67-6.95.61-12.16-2.31-17-6.67-.92-.84-2.93-1.15-2.3-2.77s2.63-2.47,4.27-3.25c1.24-.6,3-.76,3.5.73,2.06,5.71,6.76,4.86,11.23,4.94,7.13.14,14.3.13,20.75,4,2.69,1.6,5.84,1.16,8.78,1.54,6.37.83,11.61,4.88,17.94,5.94,3.72.63,6.16.52,7-3.73.27-1.35.47-3.27,2.43-3.33,1.65,0,2.58,1.3,3.41,2.59,1.43,2.25,2.83,4.45,3.29,7.2.7,4.21,4.32,6.17,7.3,8.45,1.71,1.31,2.61-.07,3-1.8.49-2,1.66-3.49,3.86-3.06,2.49.48,1.83,2.84,2,4.52.67,5.12-2.42,9.16-4.1,13.6Z" transform="translate(-1 -20.67)"/><path d="M1,464c11.1,12.64,13.11,27.23,8.81,43.28,3.14-2.26,3.13-5.67,3.88-8.46.93-3.46,3-6.31,4-9.63.31-1,.94-1.9,2.15-1.57A1.86,1.86,0,0,1,21,490.1c-2.78,11-2.26,23.45-13.3,30.95-2.46,1.68-3.81,4.67-6.66,6V512c4.34-6.34,4.34-12.6,0-17v-6c.81.52,1.65,1,2.42,1.59s1.23,1.27,2.09.75a1.64,1.64,0,0,0,.58-2.17C3.74,484.68,4.39,479.11,1,475Z" transform="translate(-1 -20.67)"/><path d="M709,886c.87-3.55,1.72-7,.37-10.73a4.54,4.54,0,0,1,2.77-5.77c4.52-1.67,4.86-5.28,5.33-9,.15-1.26-.36-2.89,1.45-3.24s2.53,1.08,3.36,2.38c3.36,5.22,5.77,10.64,4.74,17.11-.34,2.07.31,4.59,2.71,4.53,3.66-.1,4.11,2.53,5.27,4.75h-9c-.57-5.31-2.56-10.25-4.07-15.3a2.89,2.89,0,0,0-3.26-1.76c-1.77.23-1.7,1.76-1.73,3A36.7,36.7,0,0,0,719,886Z" transform="translate(-1 -20.67)"/><path d="M1,742c3.93-1,6.38,1.63,7.34,4.47,1.3,3.83-.18,7.6-3.68,10.08A16.15,16.15,0,0,1,1,758Z" transform="translate(-1 -20.67)"/><path d="M1,446c4.92,3,7.12,8.17,10.21,12.62.74,1.06,1.29,2.62-.23,3.51s-1.88-.7-2.71-1.44C5.62,458.34,4.84,454.21,1,453Z" transform="translate(-1 -20.67)"/><path d="M398,886c2.11-3.33,6.64-4.17,7.92-9.76,1.83,4.28.75,7.09,1.08,9.76Z" transform="translate(-1 -20.67)"/><path d="M534.75,95.09a7,7,0,0,0-2.32,5.45c-.38,7.29-4,12.36-10,16.22-5.15,3.3-7.88,3.22-14-1.26-4.15-3-5.27-6.89-3.39-11.66,1-2.53,1.3-4.56-.82-7.18-5.24-6.47.57-24.06,12.49-24.83,3.68-.24,6.41,2.31,9,4.79,1.26,1.22,2.64,3.12,4.63,2.18,1.76-.84,1-3,1-4.54,0-3.31.32-6.63-.87-9.89a7.53,7.53,0,0,1,.36-5.39c.83-2,1.55-4,4.44-4,2.57,0,3.92,1.21,5,3.31,2,3.81,1.52,8.15,2.69,12.12.47,1.6-.25,4.41,2.26,4.3,2.16-.1,2-2.86,2.24-4.47a43,43,0,0,1,3.06-11c1.49-3.54,3.93-5.74,8.08-5.33s4.83,3.35,5.58,6.61c.63,2.75.25,5.92,3,8.08-.12-4.37.53-8.71-.62-13-.86-3.18.18-4.67,3.69-4.48,4.72.25,9.62-.73,13.62,3,1.34,1.25,3.22,2.42,3.8-.88A2.34,2.34,0,0,1,589,51.42c5.32-2.42,12.6,2.3,12.81,8.2.18,4.86-.67,9.85,1.13,15.11,2.61-2.27,2.24-5,2.79-7.23s.66-4.61,1.14-6.89c1.65-8,5.63-10.34,13.62-8.26,3,.77,1.79,2.83,1.4,4.39-3.62,14.7-7.26,29.4-11.15,44-.62,2.36.13,5.93-3.22,6.76-3.75.94-7.62.33-11.38-.58-1.64-.4-1.73-1.86-1.82-3.19-.27-3.82-.57-7.63-.7-11.46a19.61,19.61,0,0,0-2.11-9.22c-3,6.35-3.21,12.89-5.19,18.92-1,2.94-1.61,5.25-5.4,5.13-2.27-.07-3,2-3,3.9,0,2.53,2.2,2,3.74,2.1,9.64.46,19.3.64,28.93,1.07,14.95.67,29.95.09,44.83,1.15,11.33.8,22.7-.39,33.86,1.05,18.76,2.41,37.58,1.09,56.32,1.4,22.77.37,45.64.62,68.39-.55,13.2-.68,26.5-1,39.62-2.9,3.22-.47,3.69,1.5,4.24,3.6.65,2.46,0,4-2.86,4.67-7.2,1.6-14.56,1.38-21.81,1.76-26.42,1.36-52.89,1.14-79.34,1-25.41-.1-50.83-.23-76.22-1-21.76-.65-43.53-1.33-65.26-2.32-16.76-.77-33.61.33-50.3-1.88-1.52-.2-3.26,0-3.15-2.2.09-1.78-1-4.35,2.18-4.65,2.2-.2,2.23-1.32,1.87-3.08-.59-2.93-.83-5.93-1.45-8.85-.38-1.8-1.2-3.85-3.25-4-2.35-.16-2.71,2.19-3.14,3.87-.79,3.06-1.29,6.19-1.93,9.28-.71,3.51-2.22,6.58-6.23,6.69s-6.66-2.38-7.82-5.83C537.39,106.28,536.27,100.9,534.75,95.09Zm-20.46,4.78c-1.69.13-3.53.25-3.24,2.64a4.48,4.48,0,0,0,4.23,4.12c2.36.24,3.08-1.45,3-3.52C518.2,100.53,516.57,99.8,514.29,99.87Z" transform="translate(-1 -20.67)"/><path d="M331.62,206.64a13.52,13.52,0,0,0,2-5.91c1.82-12.11,9.65-19.12,21.92-19.52,2.16-.07,4.33-.06,6.49,0,5.24.17,8,2.78,8.07,8,.1,16,0,32,.1,47.94,0,3.19-.89,5.75-4.25,6.41-13,2.56-26.43.13-31.47-15.26-.61-1.85-.57-3.92-.9-5.87-.21-1.27-.1-3-1.77-3.18-1.92-.18-1.83,1.72-1.84,2.89-.06,4.82-1.46,9.49-1.31,14.36.19,6.18-1.53,7.74-7.57,7.78s-12.32,0-18.48,0c-3,0-5.34-.86-5.77-4.17s-.5-6.69,3.78-8.12a19.6,19.6,0,0,1,6.86-.91c3.18.07,6.12-.19,6.48-4.39.33-4-.65-7.07-5.12-7.64s-6.22-3.29-6-7.58c.16-2.77,1.07-4.78,4.28-5.13a9,9,0,0,0,4.93-2.21c1.9-1.63,2-3.7,1.81-5.92-.23-2.54-2.27-3.19-4.2-3.6a29.9,29.9,0,0,0-5.45-.31c-4.75-.1-7.41-2.48-7.46-6.73s2.27-6.28,7.09-6.34c5.82-.07,11.65-.08,17.48,0,5,.08,7.12,2.33,7.42,7.31s.74,9.89,1.12,14.84A3.7,3.7,0,0,0,331.62,206.64Zm24.09,5.27h.06c0-4,.2-8-.09-11.95-.14-1.88-.85-4.24-3.36-4.3-2.07,0-3,1.79-3.73,3.53-3.68,8.81-2.91,17.52.7,26.1.63,1.49,1,4,3.54,3.41,2.09-.46,2.69-2.62,2.8-4.33C355.89,220.23,355.71,216.07,355.71,211.91Z" transform="translate(-1 -20.67)"/><path d="M462,471.77c-3.49,0-7,.14-10.48,0-4.5-.22-6.52-3.07-6.47-7.27s2.52-6.25,6.59-6.7c2.3-.25,5.43,1.1,6.39-2.27.84-2.95-1.46-4.83-3.12-6.93-4-5.05-8.42-9.91-9.92-16.48-.26-1.13-.31-2.55-1.94-2.33s-1.57,1.64-1.59,2.75c-.12,5-.16,10-.15,15a31.57,31.57,0,0,1-5,17.89c-4.06,6.22-9.49,8.12-16.53,7.55-6-.49-9-4.63-11.66-9-5.5-9.34-4.44-19.82-4.81-30.08A30.13,30.13,0,0,1,408,416.29c3.48-5.65,8.51-9.57,15-9.26,6,.29,11.43,3.35,13.79,9.8a8.3,8.3,0,0,0,1.55,2.54c1.16,1.33,2.07,3.59,4.08,3.14,1.63-.37,1.86-2.61,2.45-4.13a18.94,18.94,0,0,1,17-11.67c5.52-.09,13,5.16,15.49,10.9,1.5,3.41.73,6.11-2.41,8.18s-5.85,1.74-8.07-1.55c-1.35-2-3.13-3.63-5.83-2.77-3.14,1-2.12,3.78-2.21,5.94-.19,4.79,2.69,8.55,5,12.3,3,4.93,6.15,9.89,10.68,13.69a14.41,14.41,0,0,1,3.86,5.75c3.06,7.48-.33,12.61-8.26,12.64-2.67,0-5.33,0-8,0ZM418.79,439.4c.62,5.48-.47,10.7.94,15.74.4,1.43-.1,3.82,2.32,3.82,2.19,0,3.11-2,3.48-3.75,2.25-10.37,1.32-20.74-.52-31.07-.25-1.41-.94-2.68-2.46-2.75-1.9-.08-2.32,1.54-2.74,3C418.38,429.46,419.26,434.64,418.79,439.4Z" transform="translate(-1 -20.67)"/><path d="M360.09,87.49q0,10.24,0,20.49a15.7,15.7,0,0,1-1.17,6.83,7.16,7.16,0,0,1-8.19,4.31c-3.72-.57-5-3.38-5.33-6.85-.48-4.78.51-9.62-1-14.37-.71-2.33-1.79-3.62-4.26-4.18-6.54-1.49-12.86-3.44-17.15-9.25-1.22-1.66-2.65-.85-2.61.85.08,4-1.22,7.83-1.27,11.87-.13,9.44-4.14,17.19-12.6,21.77-8.27,4.48-15.73.93-21.17-7.1a37.94,37.94,0,0,1-3.29-7.27c-1.18-2.94-.89-5.58,2.12-7.35s5.82-1.43,8,1.3a22.8,22.8,0,0,1,2.62,4.78,4.28,4.28,0,0,0,4.27,2.82c1.94-.14,3.17-1.49,3.66-3.53a61.4,61.4,0,0,0,.72-27.53c-.45-2.13-1.12-5-3.81-5.39s-3.17,2.51-4.49,4.11a27.13,27.13,0,0,1-3.54,4.13c-2.55,2.06-5.36,1.47-7.92-.12-2.23-1.38-3.28-3.69-2.22-6,2.49-5.57,5-10.85,10.8-14.42,7.54-4.64,15.43-1,20.43,4.51a32.86,32.86,0,0,1,6.69,11c.31.87.55,2.12,1.92,1.82,1-.22.8-1.28,1-2,1.1-5.42,2.09-11.09,7.79-13.69,7-3.21,14.57-4.74,22.27-3.57,5.17.79,7.58,4.14,7.67,9.59.13,7.49,0,15,0,22.49Zm-15.7-12.63c-.16-2.31-.39-4.77-3.11-5s-3.53,2-3.55,4.37c0,2.68.74,5.37,3.75,5.44S343.73,76.64,344.39,74.86Z" transform="translate(-1 -20.67)"/><path d="M804.11,227.93c-6.49,1.68-13,1.65-19-1.21-5.49-2.63-8.35-7.94-10.23-13.51-3.41-10.16-3.31-20.74-2.23-31.15,1.44-13.7,9.66-21.39,21.43-21.16,7.89.16,13.6,4,17.1,11a40,40,0,0,1,4.11,14.84c.33,4.1-.52,8.33,2.86,11.73a2.45,2.45,0,0,1-.13,3.26,4.3,4.3,0,0,1-5.15.43c-6.89-3.85-14.37-.73-21.45-2-.44-.08-1.24.08-1.37.36-1.13,2.42-.09,4.79.48,7.09s1.74,4.41,4.43,4.89,3.68-1.44,4.26-3.34c1-3.4,3.39-3.66,6.26-3.27,2,.27,4,.6,5.93.69,5,.24,5.87,1.21,4.43,6.17-1.9,6.55-4.27,13-1.22,19.82.67,1.49.6,3.44,2.66,3.8s3.36-1,4.53-2.51,1.52-3.66,2.26-5.5c.5-1.23.4-3.51,2.43-3.18,1.69.28,1.68,2.27,1.91,3.72.36,2.3.57,4.63.92,6.93,1.32,8.53,2.87,10,11.62,11.08,1.59.19,3.57,1,3.38,2.36a7.59,7.59,0,0,1-4.32,5.64c-1.5.7-3.29.47-3.7-1.94-.67-4-3.5-4.23-6.78-3.84-4,.48-6.39,2.73-7,6.59-1.33,7.86-3.26,8.83-9.63,4.41-2.24-1.55-4.18-1.82-6.18.31-.89,1-2,2.13-3.39.91s-.26-2.19.5-3.32c3-4.43.18-7.95-2.27-11.24-5.53-7.44-5.48-9.65,1.23-16.15a7.32,7.32,0,0,1,2.32-1C804.78,229,804.45,228.48,804.11,227.93Zm-10.42-40.7c2.69,0,5,.22,4.94-3.1,0-4.9-2-7.7-5.5-7.88-4.8-.25-4,3.07-4.25,6C788.52,186.39,790.42,187.71,793.69,187.23Z" transform="translate(-1 -20.67)"/><path d="M604.53,758.06c3.85-5.72,1.48-13.11,5.44-18.78.84-1.2,1.85-2.47.87-4.1s-2.54-1.7-4.33-1.6c-5.54.32-6.4-.52-5.82-5.76a2.79,2.79,0,0,0-1.73-3.17,51.7,51.7,0,0,0-5.73-2.95c-3.43-1.31-5.82-2.24-1.05-5.41,2.93-1.94,2.52-4.79-.31-7.06-1.51-1.21-3-3.11-1.59-4.6,1.71-1.76,3.57-.23,4.9,1.51a11.84,11.84,0,0,0,3.82,3.11c3,1.69,5.14,1.36,5.82-2.33.29-1.62.54-2.89,2.56-3,1.85-.09,3.22.36,4,2.23a19,19,0,0,0,4,6.26c2,2,3.68,4.6,7.14,2.84,3.12-1.58,5.55-4.4,4.49-7.56-2-5.89,0-9.3,3.61-14.16,5.2-6.95,8.55-15.19,7.92-25-.92-14.24-2-28.54-1.32-42.86.06-1.16-.13-2.35,0-3.5.78-5.35,1.68-10.8,7.46-13.18,5.4-2.23,10.34.22,14.47,3.15,7,5,13.68,10.46,17.89,18.42,6.17,11.65,9,23.11.52,34.9a14.48,14.48,0,0,0-2.19,4.46c-2.18,7.8-3.57,9.54-11.8,9-17.74-1.09-30,18.31-31.4,31-1.15,10.56-.65,20.83.28,31.24.13,1.55,1.06,4.18-1.5,4.54-2,.28-2.43-2.08-2.74-3.62-1.08-5.44-5.06-9.28-7.5-14-1.66-3.21-3.49-2-5.23.37-3.21,4.32-1.55,9.34-2.23,14-.32,2.29.05,4.67-.23,7s-.9,4.8-4,4.79C606.29,754.31,606.92,757.34,604.53,758.06Zm39-105.2c0,2.43.45,4.67,2.13,6.51,2.58,2.82,12.05,5.26,14.77,3.83,6.78-3.56,11.29-11.57,9.86-17.38-1.19-4.82-4.6-8.67-5.69-13.62-.4-1.85-2.09-3.67-3.11-5.56-1.65-3.06-4.32-4-7.57-2.63A15.25,15.25,0,0,0,645,635.78C644.09,641.34,645.63,647.25,643.51,652.86Z" transform="translate(-1 -20.67)"/><path d="M802.59,94.59c.52-8-2.16-16.13-1.28-24.48.2-1.82-.74-2.83-2.62-2.8-3,0-3.68-1.71-3.46-4.25.39-4.32-1.55-9.25,4.58-11.79,1.78-.74.86-4.67.61-7.1-1.4-13.58,7.29-17.37,17.12-18.3,2.76-.26,4,.85,3.79,3.7a18.67,18.67,0,0,0,.68,6.92c.62,2,.17,3.65-2.08,4.35-4.45,1.4-4.11,5.16-3.27,8.25,1,3.86,4.76,2,7.26,1.95,3.21-.1,5.72-1.49,5-5.64-.55-3.26-.68-6.6-1.06-9.9-.34-3,.83-4.77,3.92-5.14,3.29-.4,6.56-1,9.86-1.17,2.91-.14,2.79,2.67,3,4.35a91.89,91.89,0,0,1,.22,10c0,2.6.75,4.64,3.94,4.56a3.76,3.76,0,0,1,1.92.42c2.51,1.54,2,14.12-.8,15.25s-3.54,2.85-3.15,5.45c1.74,11.78,0,24,4.62,35.4,1.06,2.6.09,3.41-2.33,3.29a28,28,0,0,0-8.41.82c-4.55,1.18-7-.89-7.49-5.32-.75-6.6-1.75-13.2-1.85-19.82-.08-5.34-.84-10.56-1.25-15.84-.13-1.58-.75-2.59-2.45-2.39a55.91,55.91,0,0,0-8.8,1.31c-2.33.67-1.58,3-1.33,4.75,1.67,11.37,1.28,22.85,2,34.27.24,3.55-1.2,4.88-4.61,4.41a14.82,14.82,0,0,0-2,0c-10.33,0-10.34,0-10.35-10.64Z" transform="translate(-1 -20.67)"/><path d="M726.38,166.48c0-9.18,0-16.9,0-24.61,0-6.7,0-6.7,6.79-6.7a22.57,22.57,0,0,0,3.49,0c4.33-.66,5.3,1.05,5.72,5.42,2.52,26.73.36,53.5,1.23,80.22.14,4.35-1.56,5.67-5.54,5.32a41.36,41.36,0,0,0-6.49,0c-3.19.23-5.74-.24-5.48-4.54-9.92,9.1-19.59,6.45-22.74-6.23-3.57-14.4-3.29-29-.19-43.47,1.88-8.78,6.73-12.39,13.94-12C721,160,723.17,162.68,726.38,166.48Zm.06,25.85c-.38-3.65.72-8-1.07-12.19-.55-1.27-.84-2.54-2.56-2.55s-3.13.58-3.48,2.22c-1.89,8.84-2.41,17.71,0,26.54a3.06,3.06,0,0,0,3.33,2.42c1.92-.11,2.23-1.51,2.73-3C726.85,201.55,726.31,197.23,726.44,192.33Z" transform="translate(-1 -20.67)"/><path d="M469.83,336.9c2-4.21,4.68-6.69,9.11-7.5,3.6-.65,4.14-4.08,3.64-7.23-.48-3-2.42-4.5-5.6-4.59-3.81-.11-8.06,1.24-10.52-3.54-2.22-4.3-.84-8.65,3.89-9.73,6.72-1.53,13.61-1.13,20.38-.46,4.21.42,6.32,3.72,6.35,7.79.13,16,.25,32,0,48-.1,5.74-2.71,7.69-7.67,7.55-3.16-.09-4.9-1.61-5.52-4.67a55.3,55.3,0,0,1-1.18-13.88c.19-3.55-1.14-6-5.05-5.79-3.23.18-5-2.18-7.68-3.82a42.9,42.9,0,0,0-2.31,12.67c-.65,11.05-8.83,19.52-21.07,15.87-6.45-1.92-10.1-8.31-11.1-14.39-1.32-8-1.29-16,4-23.78,5.5-8.09,20.1-8.56,24.85.06C465.69,331.89,467.66,334,469.83,336.9Zm-14.62,9.26h0c0-1.33.07-2.66,0-4-.11-1.82-.08-4-2.71-3.84-2.27.17-2.75,2.13-2.86,4.05a39.86,39.86,0,0,0-.09,5.46c.21,2.46.54,5.68,3.53,5.59,2.8-.09,2-3.26,2.17-5.29A18.87,18.87,0,0,0,455.21,346.16Z" transform="translate(-1 -20.67)"/><path d="M670,188c0,8.81.32,17.73-4.07,25.79-4.79,8.8-11.3,12.57-22.25,11.27-6.61-.78-13.22-6.7-15.47-14.53-3.51-12.21-2.5-24.57.48-36.52,4-16.05,19.5-20.88,31.51-13.63,7,4.26,9,11.19,9.75,18.63A84.21,84.21,0,0,1,670,188Zm-26.19,4.5c0,3.32-.13,6.64,0,9.95.13,2.37.74,4.93,3.74,4.91,2.78,0,4.55-1.64,4.75-4.69.11-1.81.66-3.59.8-5.4a106.08,106.08,0,0,0,.06-18.86c-.22-2.24-1.36-4.85-4.2-4.81-2.57,0-3.8,1.95-4.38,4.56C643.57,182.94,643.81,187.73,643.82,192.52Z" transform="translate(-1 -20.67)"/><path d="M561.56,776.9c-.27,0-.87-.09-1.24.15-6,3.87-7.92.1-9.09-4.86-.54-2.28-2.36-3.56-3.58-5.31-2.78-4-1.92-6.36,2-9a79,79,0,0,1,20.65-9.57c1.78-.55,3.64-1.33,3.65-3.55s-2-2.27-3.48-3c-9-4.61-18.15-8.64-28.14-10.55a11,11,0,0,1-5.36-2.51c-1.57-1.4-4.06-2.64-2.8-5.18,1.17-2.36,3.82-1.63,5.88-1.32a12.5,12.5,0,0,1,4.63,1.73c2.06,1.27,3.82,1.13,5.38-.55,3.18-3.42,5.72-2.41,8.06,1a16.94,16.94,0,0,0,1.89,2.32c1.66,1.66,3.45,3.51,6,2.75,2.79-.82,3.19-3.61,3.86-6,.87-3.05-1.65-3.43-3.55-4.4-2.34-1.21-4.07-3.31-6.61-4.38-2.29-.95-2-2.82-.44-4.43,2.16-2.26,4.71-4.07,6-7.17.85-2,2.81-1,4.36-.29,4.81,2,6.89,7.49,12,9.31,1.72.6.66,2.5-.87,3.41-3.61,2.13-4.58,4.91-3.57,9.22s-.12,9.29,1.23,13.85c.52,1.75.44,3.9,1.46,5.23,5.22,6.86,3.54,14.12,1.61,21.4-1.62,6.18-.21,12.59-1.76,18.83-.75,3,1.14,5.22,4.78,4.2,2-.58,4.2-1.3,4.66,1.66s2.68,6.51-.67,8.76c-2.35,1.58-5.57,3.1-8.48,1.44-4.48-2.56-9.4-1.77-14.09-2.59-2.37-.42-3.84.74-4.68,2.79-.51,1.24-1.18,2.05-2.6,1.58a3.8,3.8,0,0,1-2.74-3.25,2.63,2.63,0,0,1,1.82-3.13c5.52-2.07,6.67-8,10-12C569.74,781.13,565.82,777.07,561.56,776.9Zm-4.23-12.53c1.5-.29,3.44-.27,3.47-2.57,0-2.08-1.47-2.9-3.33-2.8s-3.81.75-3.88,3C553.5,764.46,555.61,764.14,557.33,764.37Z" transform="translate(-1 -20.67)"/><path d="M418.8,98.47c-.87-4.77.92-10.12,1.35-15.57s10.12-11.1,16-9.66a21,21,0,0,1,8.6,4.91c2.51,2.13,1.68,4.64.34,7.22a11,11,0,0,0,8.9,15.94,13.16,13.16,0,0,1,7.53,3.56c2.76,2.47,4.82,1.76,5.49-2a54.29,54.29,0,0,0,.21-14c-.13-1.43-.52-3.12-2.18-3.64s-2.24,1.06-3.08,2c-2.38,2.7-5.39,3.93-8.35,1.62S450.37,83,452.77,80c3.3-4.13,6.68-9.19,12.76-8.24,6.79,1.05,11.3,5.3,13.69,12.21,3,8.69,2.07,17-.47,25.43s-15.83,13.5-22.29,6.73c-5.24-5.48-7.1-6.08-11.56.7-2.2,3.36-21.18,3.65-23.47.41s-1.89-7.61-2.57-11.48C418.5,103.64,418.8,101.42,418.8,98.47Z" transform="translate(-1 -20.67)"/><path d="M277.81,87.47c0,7.32.05,14.64,0,22C277.74,115.81,275,120,271,120s-6.83-4.41-7.1-10.38c0-.5,0-1,0-1.5.5-14.66-.13-11.9-13.95-16-2.48-.74-4.65-.26-5.68,3.07s-3.92,4.9-7.8,4.85c-13-.17-26-.07-38.93,0-3,0-6.24-.43-6.19-4.12.05-3.51,3.05-5,6.3-5,11-.09,22,0,32.95,0,1.66,0,3.33,0,5,0,7.53,0,7.82-1.42,6.38-8.61-3.34-16.63,1.66-24.54,18.75-26,2.81-.23,5.66,0,8.48,0,6,0,8.42,2.25,8.54,8.27.14,7.65,0,15.3,0,23ZM263.3,75.59c-.06-2.16-.56-4.8-3.36-4.92-2.44-.11-3.47,2.14-3.44,4.56s.94,4.91,3.7,5C262.51,80.24,263.25,78.06,263.3,75.59Z" transform="translate(-1 -20.67)"/><path d="M758.88,314.91c0-2.16.12-4.32,0-6.48-.45-7,4.09-11.45,10.7-9.52,6.24,1.82,11.67.69,17.3-1.8,4.87-2.15,8.9.83,12.23,3.56,9.75,8,12.55,21.84,7.37,33.53-1.21,2.72-3.6,4.3-5.62,6.25a4.88,4.88,0,0,1-1.58,1.19c-3.1,1.16-4.46,4.93-7.13,5.82-4,1.32-3.58-4.28-6.48-5.69A31,31,0,0,0,774.1,339c-11.71-.83-14.59-4.88-15.09-17.65-.09-2.15,0-4.32,0-6.48Z" transform="translate(-1 -20.67)"/><path d="M386.52,336.66c0,7.65,0,15.31,0,23,0,4.48-2.06,7.19-6.45,8.16-4.12.92-7.47-1.11-7.86-5.34s-.07-8.32-.31-12.47c-.14-2.62-.27-5.94-3.89-5.89s-3.52,3.43-3.64,6c-.18,3.82.12,7.67-.17,11.47-.35,4.55-3.19,6.67-8.29,6.57-4.45-.09-5.74-2.94-6.24-6.87-2-15.79.58-31.55.11-47.33-.19-6.24,2.61-9,7.17-8.73s7.31,3.54,7.41,9.44c.06,3.81-.38,7.67,1.26,11.31.57,1.24,1.16,2.49,2.8,2.41s2.18-1.3,2.58-2.63c1.15-3.9.86-7.92.95-11.91.13-5.75,2.41-8.59,6.78-8.62,4.66,0,7.47,2.87,7.6,8.46.18,7.66,0,15.32,0,23Z" transform="translate(-1 -20.67)"/><path d="M753,81.83c-.49-6.39.14-12.77,3.28-18.73,3.9-7.4,11.17-11.49,19.24-10.72,7.69.74,13.42,5.78,16,13.74a57.23,57.23,0,0,1,2.47,15.2c.14,3.27-1.23,4.48-4.16,4.91-5.64.84-11.3.47-17,.58-1.7,0-4.27-.57-4.19,2.16.09,3.11.67,6.34,3.84,8.18,2.38,1.37,3.78-.32,5-1.78,2.52-2.92,11.21-5.59,14.59-4.4,1.91.67,1.8,2.17,1.8,3.66a16.71,16.71,0,0,1-9.78,15.72c-10.45,5-24.88,2.46-29.3-11.56A46.45,46.45,0,0,1,753,81.83Zm20-6.64c2.47.18,5,.37,4.45-3.28-.43-3-.79-6.27-4.77-6.35-3.39-.06-4.2,2.49-4.41,5.4C768,74.55,769.73,75.74,773,75.19Z" transform="translate(-1 -20.67)"/><path d="M413.92,88c0,7.65,0,15.31,0,23,0,3.35-.32,6.31-4.13,7.59-4,1.34-6.47-.89-8.2-3.87-2-3.44-3.19-5.13-5.91-.35-1.4,2.44-3.64,5.84-7.5,4.51s-5.22-4.76-5.28-8.77q-.29-20.64-.68-41.29a25.43,25.43,0,0,1,1.24-8.85c1.82-5.3,6.7-6.26,10.39-2a23.46,23.46,0,0,1,2.54,3.69c1.12,2,2.22,1.6,3.42.13a7.5,7.5,0,0,0,.58-.81c2-3.4,4.4-6.9,8.92-5.39s4.63,5.93,4.6,10C413.89,73,413.92,80.53,413.92,88Z" transform="translate(-1 -20.67)"/><path d="M645.91,104.4c-1.56-.2-2.06.79-2.79,1.42-4.48,3.89-9.45,5.57-15.15,3s-6.9-7.93-6.85-13.36c.12-11.8,7-19.5,18.67-21.76,1.3-.25,2.59-.56,3.89-.87,1.57-.38,3.46-.35,3.61-2.67a5,5,0,0,0-1.78-4.45c-1.65-1.28-3.8-1.39-5,0-3.64,4.15-8.32,2.42-12.64,2.69-2.53.16-3.14-1.29-2.58-3.54a17,17,0,0,1,15.67-12.47c2.16,0,4.33-.07,6.48.07,7.9.49,14.25,6.41,14.44,14.32.3,12.87,0,25.74,0,38.61,0,2.53-.94,3.68-3.54,3.53a36.89,36.89,0,0,0-6.48,0C648.26,109.34,645.63,108.71,645.91,104.4Zm.4-15.19c-.35-2.91.87-5.92-2.87-5.3s-5.85,2.89-5.87,6.76c0,2.26.47,4.72,3.39,4.35C644.71,94.55,647,92.38,646.31,89.21Z" transform="translate(-1 -20.67)"/><path d="M744.5,314.77c0,15-7.19,22.51-21.42,23a19.84,19.84,0,0,0-7.66,2.06c-8.08,3.73-18.55-2.62-19.28-11.72-.77-9.49,2.25-18.06,6.45-26.32,1.32-2.62,3.66-3.33,6.36-2.47,4.88,1.56,9.2.36,13.07-2.66,2.53-2,4.93-2.08,7.14.13a8,8,0,0,0,6.84,2.26c4.78-.42,7,1.89,7.63,6.51C744.08,308.88,744.81,312.14,744.5,314.77Z" transform="translate(-1 -20.67)"/><path d="M479.93,205.46c0-5.66-.05-11.33,0-17s3-9.17,7.64-9.16c4.32,0,6.61,2.86,6.78,8.69.33,11.14-.42,22.29.74,33.44.68,6.56-2.42,12.24-6.36,17.42-6.15,8.11-22.94,8.4-28.09-4.22a25.23,25.23,0,0,1-2.3-11.13c.63-10.66-1.75-21.22-1.08-31.9.17-2.67.05-5.36,1.57-7.72,1.3-2,2.82-3.92,5.53-3.57a5.92,5.92,0,0,1,5,4.35A29.44,29.44,0,0,1,471,194c0,8.33,0,16.67,0,25,0,1.17-.07,2.34,0,3.5.28,3.51.39,8.17,4.68,8.17,4.53,0,4.07-4.82,4.17-8.18C480.05,216.8,479.93,211.13,479.93,205.46Z" transform="translate(-1 -20.67)"/><path d="M612,136.33c1.33,0,2.66,0,4,0,3.27-.05,4.25,1.28,3.75,4.67-.66,4.58-.54,9.28-.84,13.91-.09,1.38.29,2.52,1.66,2.59,4.3.21,3.88,3.25,3.81,6.07a59.91,59.91,0,0,1-.42,7c-.23,1.62-.74,3.53-3,3.36-4.14-.33-3.52,2.42-4,5.13-1.64,9.2,0,18.56-1.81,27.75-.84,4.14.77,8.23,1.79,12.23.78,3-.12,3.83-3.05,3.79-14.95-.19-15.38.06-15.1-14.62.19-10,1.09-19.89,1.67-29.83.16-2.76.45-5.53-3.78-5.2a1.81,1.81,0,0,1-2-2.26c.8-3.46.3-7,.61-10.43a3.68,3.68,0,0,1,3.92-3.68c2.21-.07,3.44-1.2,3.28-3.47-.29-4,1-7.91,1-11.81,0-4.23,1.38-5.78,5.45-5.19A21.44,21.44,0,0,0,612,136.33Z" transform="translate(-1 -20.67)"/><path d="M417.53,212.81c.47-5.26-.82-10.07-2-14.88-.45-1.86-1.53-3.45-3.67-3.55s-2.74,1.49-3.49,3a26.69,26.69,0,0,1-2.51,4.3c-2.33,3.14-5.46,3.26-8.32,1.18-2.66-1.93-5.19-4.14-2.43-8.25s3.41-9.26,8.22-12.12c6.76-4,17.63-3.53,22.76,4.84,9.18,15,9,30.93,2.51,46.2-5.41,12.67-19.52,16.18-28.18,6.12-3.43-4-4.49-9.2-6.13-14-.65-1.94,1-3.74,3.23-4.34,3-.8,6-1.22,8.06,1.87,1.09,1.65,1.83,3.52,2.79,5.26.75,1.35,1.74,2.55,3.47,2.42,1.89-.14,2.85-1.33,3.4-3.12C416.75,222.81,418.11,217.85,417.53,212.81Z" transform="translate(-1 -20.67)"/><path d="M695.78,71.4c-3.19-.13-6.36.93-7.78-3.12-.51-1.45-2.49-1.7-3.85-.5s-.83,2.64.22,3.93c1.78,2.18,4.37,3,6.8,4,10.08,4,14.29,12.81,11,24.41-2.14,7.44-8.1,11.25-17.79,11.14-8.59-.09-14.64-4.44-16.26-12.5-.47-2.36-3.47-5.93,1-7.69s10.65.17,12.12,3.44a3.35,3.35,0,0,0,3.52,2.17c1.22,0,2.39-.29,2.9-1.53a3.86,3.86,0,0,0-1-4.14c-2-2.31-5-3.24-7.61-4.63-8.95-4.71-12.28-11.33-10.46-20.77,1.67-8.61,8.89-13,19.87-12.07a15.45,15.45,0,0,1,13.64,14.77C702.19,74,697.54,70.09,695.78,71.4Z" transform="translate(-1 -20.67)"/><path d="M384.3,472.88c-4.29-.38-8.6.37-12.91-.78-3.71-1-4.53-3.29-4.47-6.65.07-3.54,1.73-5.59,5.09-6.4.48-.11,1-.13,1.48-.21,2.47-.44,5.93,1.14,7.06-2.14,1-3-1.64-5.13-3.28-7.38-3-4.17-6.72-8-8.86-12.61-5.05-10.85-4-25.59,12.18-28.69,8-1.53,16.71,3.63,18.68,11.1.93,3.49-.54,5.92-3.15,7.69-2.87,1.95-5.42.29-7.62-1.55-1.65-1.37-2.53-4.74-5.3-3.14-3,1.72-2.85,4.92-2,8.05,2.63,9.21,8.54,16.41,14.31,23.71,1.85,2.34,3.86,4.56,5.63,7,2.8,3.8,1.29,8.66-3.09,10.74S388.9,472.41,384.3,472.88Z" transform="translate(-1 -20.67)"/><path d="M517.13,244.24c-7.1,0-15.21-5.25-17.33-11.12-4-11-.21-20,5.85-24.82a65.48,65.48,0,0,1,10.43-6.79c2.85-1.49,5.13-3.83,2.89-7.24-2.12-3.22-5.07-1.8-7.41-.17-3.05,2.13-6.06,3.27-8.85.14-3.08-3.44-1-6.79,1.49-9.28,3.92-3.9,8.6-7.88,14.46-5.91,6.15,2.06,11.78,5.42,13.12,13,2.28,12.87-1,19.55-14,27.18a19.56,19.56,0,0,0-3.32,2.17c-2.66,2.41-2.84,5.37-.7,8s4.92,1.46,7-.48,3.74-3.08,6.5-3.1c3.4,0,4.84,1.31,4.68,4.78C531.62,237.82,524.8,244.19,517.13,244.24Z" transform="translate(-1 -20.67)"/><path d="M731.57,71.4c0-11.32.1-22.65-.05-34,0-3.57.58-5.88,4.82-5.52a10.81,10.81,0,0,0,2.9-.66c6.68-1.33,7.93-.29,7.93,6.58,0,15-.3,30,.19,45,.25,7.78,1.06,15.55,1.15,23.36,0,3.91-1.25,5.19-5.19,5.18-13.82-.06-11.72,0-11.74-11.46Q731.55,85.65,731.57,71.4Z" transform="translate(-1 -20.67)"/><path d="M315.13,788.8c3.36-2.69,6.35-5.16,9.42-7.52,3.65-2.79,3.62-5.84,1.31-9.57-1.33-2.15-2.53-2.3-4.35-1-3.09,2.24-6.17,4.49-9.27,6.71-.77.55-1.55,1.59-2.59.75s-.27-1.79.22-2.65a18.4,18.4,0,0,1,8.64-8c3-1.4,5.87-2.92,5.49-7.29-.41-4.65-1.72-6-6.2-4.56-10.69,3.52-18.69,17.35-14.19,27.52.84,1.9,1.73,3.83,3.47,4.74,4.42,2.31,3.84,5.09,2,9-4.45,9.6.8,17.5,11.34,17.46,3.1,0,6.25.59,9.26-1.2,2-1.17,3.08.13,3.08,2.29l0,11c0,.85-.07,1.89-1,2-1.34.16-1.45-1-1.57-2a6.53,6.53,0,0,0-.12-1c-.35-1.41.15-3.43-1.49-4-2-.66-2.83,1.44-3.91,2.56-5.32,5.56-11,10.62-18,14.13-1.36.69-2.85,2.69-4.21.49-1.15-1.87.75-2.84,2-3.92,4.69-3.93,10.64-6.27,14.43-11.34.76-1,2.36-1.77,1.8-3.28s-2-.63-3.12-.76c-12-1.41-17.52-10.58-13.85-23,.61-2.07,1.45-3.69-.58-5.8-9.64-10.09-7.41-15.78-2.2-26.12,4-7.85,11-13.32,20.58-14,2.41-.16,3.69-1.21,4-3.51s-1.35-3.25-3.16-3.78a106,106,0,0,1-16.33-6.14c-1.75-.85-4.58-1.3-3.56-3.77s4.19-1.91,5.76-.89c4.59,3,10.11,3.47,14.73,6,3,1.62,4.83,1.67,6.55-1.22.52-.86.92-1.92,2.18-1.45s.85,1.65.9,2.6a14,14,0,0,1-1,5.32c-2.66,7.71-2.46,15.69-1.76,23.66a8.84,8.84,0,0,0,1.42,3.14c2.87,5,2.23,8.86-2.17,12.54C323.73,787.51,319.7,789.28,315.13,788.8Z" transform="translate(-1 -20.67)"/><path d="M750,194c0-9.33.1-18.66-.06-28-.05-3.25,1-4.34,4.32-4.36,10.67,0,10.67-.15,12.06,10.29a14.79,14.79,0,0,1,.14,2c-.12,15.82.06,31.62,1.15,47.41.27,4-.84,5.68-5.19,5.57-15-.38-12.13,1.64-12.42-12.43-.07-3.5,0-7,0-10.5Z" transform="translate(-1 -20.67)"/><path d="M391.48,196.82c-.37,10.46-1.07,20.87.17,31.35.46,3.87-.72,8.25-2.45,12.07-1.38,3.07-4,4.31-7.34,3.95s-4.65-2.6-5-5.81c-1.66-16.61-.62-33.25-.76-49.88,0-3.72,1.35-6.9,5.88-7.31s7.05,1.71,8,5.81C390.73,190.22,391,193.54,391.48,196.82Z" transform="translate(-1 -20.67)"/><path d="M438.08,222c-2.5-10.28,0-21.2-.35-32.12-.09-3,.55-5.61,2.87-7.62,2.15-1.86,4.64-2.88,7.37-1.75,2.53,1,3.65,3.34,3.66,6,.06,11.79.33,23.59,0,35.37-.17,5.28,1.43,10.46.16,15.85-.85,3.59-2.38,6.24-5.85,6.35-4,.12-6.46-2.83-6.75-6.63C438.76,232.57,436.75,227.77,438.08,222Z" transform="translate(-1 -20.67)"/><path d="M706.66,234.64c0,1.57.14,3.19-1,3.58-4.54,1.6-4.19,5.31-4.43,9a4.16,4.16,0,0,1-4.11,4.22c-3.78.34-6.22,2.29-6.73,6.15-.33,2.48-1.92,2.74-3.92,2.73-2.22,0-2.57-1.27-2.81-3.2-.68-5.39-2.13-10.41-7.83-12.85a3.82,3.82,0,0,1-2.56-4c.68-6.08,1.41-12.16,2.33-18.2.26-1.74.92-3.89,3.24-3.84s2.76,2.14,3.2,3.91c.9,3.52,1.52,7.11,2.52,10.6,1.22,4.22,3.14,4.85,6.26,2,2-1.82,3.73-3.28,6.55-1.88A2.63,2.63,0,0,0,701,232c1-1.24,2.08-2.41,3.75-1.32A3.87,3.87,0,0,1,706.66,234.64Z" transform="translate(-1 -20.67)"/><path d="M348.42,445.34c2-8.91,0-18.95,3.64-28.34,1.27-3.26,2.52-7.67,6.27-7.29,4.68.47,3,5.36,2.74,8.27-.62,8.09-2.18,16.1-2.79,24.19-.91,12.17,2,24.06,3.51,36,.35,2.75.93,5.82-2.29,6.73-3.38.95-4.35-2.3-5.38-4.71C349.42,469.3,349.69,457.56,348.42,445.34Z" transform="translate(-1 -20.67)"/><path d="M418.72,350.85c.11-1.1.28-2.42.37-3.74.35-5-.42-9-6.43-10.61-4.72-1.24-6.24-5.41-4.41-9.29.62-1.3,1.37-2.48,2.92-2.22,4.17.71,8.06-.53,12.1-1.13,6.48-.95,9.77,2.42,8.76,9.28-1.33,9-.53,17.93-.79,26.89-.12,3.86-.63,7.13-5.34,7.44-4.51.3-5.88-2.59-6.64-6.43C418.61,357.71,419,354.4,418.72,350.85Z" transform="translate(-1 -20.67)"/><path d="M497.26,446.79c.62,9.56-1.14,19.39-3.13,29.17-1.2,5.87-4.49,9.35-7.19,7.73-3.94-2.35-2.23-6.6-1.44-9.82,4.55-18.61,4.11-37.13-.1-55.69a10.15,10.15,0,0,1-.44-3.43c.26-1.94-1.2-4.7,1.82-5.53,3.41-.93,5.37,1.33,6.56,4,2.11,4.79,1.74,10.11,2.87,15.13C497.54,434.29,497.39,440.29,497.26,446.79Z" transform="translate(-1 -20.67)"/><path d="M762.82,366.41c0,2.88-1.12,5.12-3.65,6.2s-5.43,1.23-7.38-1.15c-2.78-3.42-5.63-5-10.35-3.67-4.08,1.13-6.68-2.41-5-6.3,1.62-3.63.92-7.54,2.09-11.24.88-2.8,2.17-4.36,5.09-4.49a13.69,13.69,0,0,0,2.48-.21c7.87-1.73,10.66-.27,13.08,7.37C760.63,357.35,761.63,361.91,762.82,366.41Z" transform="translate(-1 -20.67)"/><path d="M781.45,20.67c-53.76,3.26-107.52,1.61-161.28,0Z" transform="translate(-1 -20.67)"/><path d="M275.4,195.7c0-3.59.05-6.25,0-8.9-.07-3.72,1.85-5.52,5.43-5.6s5.7,1.86,6,5.31c.71,9.45-.86,18.84-1,28.28-.06,2.68-1.37,5.31-4.91,5.05-3.2-.24-4.27-2.83-4.26-5.27C276.6,207.93,274.49,201.43,275.4,195.7Z" transform="translate(-1 -20.67)"/><path d="M682.09,475.12a12,12,0,0,1-3.11,7.15c-3.65,3.78-4.33,8.67-4.67,13.31a18.45,18.45,0,0,1-3.37,9.51c-2.23,3.27-4.69,6.43-6.13,10.21-.69,1.82-2.14,3.39-4.13,2.7-1.67-.58-1.38-3.2-.78-3.93,4.63-5.68,3.47-13.31,7.36-19.58a54.84,54.84,0,0,0,7.65-20.76,14.84,14.84,0,0,1,.57-2.91c.44-1.22.8-2.68,2.53-2.65,1.39,0,2,1.1,2.43,2.19C681.11,472,681.64,473.78,682.09,475.12Z" transform="translate(-1 -20.67)"/><path d="M757.8,152c-10.28,0-8.93.85-9-9.15,0-9.29-.86-7.64,7.55-7.68,9.3,0,9.3,0,9.32,9.08a18.79,18.79,0,0,0,0,2.49c.58,4.27-.77,6.44-5.46,5.29A10.89,10.89,0,0,0,757.8,152Z" transform="translate(-1 -20.67)"/><path d="M686.31,292.2a13.53,13.53,0,0,1-2.45,8.62,18.18,18.18,0,0,0-3.74,13,13.09,13.09,0,0,1-1.53,7.69c-.89,1.54-2.33,2.6-4.15,1.75-2-1-.67-2.36-.34-3.77,1-4.54,1.73-9.17-1.1-13.38-1.56-2.31-1.07-4.07,1.08-5.46,3.42-2.22,5-5.56,6.22-9.27.62-1.91.75-4.89,3.72-4.34C686.79,287.57,686.19,290.34,686.31,292.2Z" transform="translate(-1 -20.67)"/><path d="M701.14,853.44c-.2-2.85,1.11-4.19,2.94-5.29s3.33-2.16,4.95-3.3c2.48-1.74,4-1,4.68,1.8a51.56,51.56,0,0,0,1.37,5.27c.7,1.9.83,3.21-1.73,3.35a4.26,4.26,0,0,0-3.21,2.08c-1.09,1.48-1.37,4.35-4,3.57-2.31-.67-3.53-2.88-4.34-5.13A21.27,21.27,0,0,1,701.14,853.44Z" transform="translate(-1 -20.67)"/><path d="M286.92,237.31c-.2,5.28-1.9,7.14-6.32,6.95-5.16-.23-5-4.32-5.12-7.64-.22-4.86,3-9,6.21-8.73C285.18,228.18,287.14,231.72,286.92,237.31Z" transform="translate(-1 -20.67)"/><path d="M828.74,496.49c-.15,1.3.36,2.63-.92,3.34a2.86,2.86,0,0,1-3.21-.44c-8-5.51-9.23-9.35-5.69-18.47.39-1,.34-2.53,1.87-2.52,1.2,0,1.41,1.23,1.74,2.14C824.46,486,828.22,490.71,828.74,496.49Z" transform="translate(-1 -20.67)"/><path d="M783.47,244.51c-1.5,2.44-1,6.38-4.93,7.37-3.27.83-5.82-.14-6.07-3.74s-.7-7.25-2.52-10.56c-1.14-2.05.28-3.17,1.88-3.83a2,2,0,0,1,2.88,1.79c.2,4.63,3.12,6.25,7.08,6.89C782.89,242.61,783.7,243,783.47,244.51Z" transform="translate(-1 -20.67)"/><path d="M331.76,837.56c1.28,3.86,1.69,6.52.66,8.66-3,6.23-6.43,12.28-9.82,18.32-.69,1.24-1.87,2.65-3.62,1.6-1.41-.84-1.18-2.29-.52-3.54C322.66,854.63,326.9,846.69,331.76,837.56Z" transform="translate(-1 -20.67)"/><path d="M728.27,493c0,5.32-3.4,9.5-4,14.45a2.34,2.34,0,0,1-2.78,1.64,3.48,3.48,0,0,1-2.64-2.71c-.75-2.47,3.91-16.51,6-18.15,1.55-1.21,2.54-.46,3,1A20.44,20.44,0,0,1,728.27,493Z" transform="translate(-1 -20.67)"/><path d="M737,235.4c-.38.67-.64,1.88-1.36,2.3-3.4,2-6.89,3.83-10.41,5.59a2.33,2.33,0,0,1-3.1-.73c-.83-1.2-.21-2.31.64-3.1a17.35,17.35,0,0,0,4.12-6.66c1-2.62,3.27-3.21,5.74-2.45C734.94,231.06,736.81,232.38,737,235.4Z" transform="translate(-1 -20.67)"/><path d="M860,261.41c-.3,2-.86,4-3.82,3.76-3.42-.28-5.82-4.5-5.82-9.55,0-2.83,1.54-3.44,3.73-3.33C856.53,252.41,860.17,258,860,261.41Z" transform="translate(-1 -20.67)"/><path d="M586.33,694.4c.48-6,3.59-10.68,8.19-14.39,1.15-.92,2.92-1.61,4-.07.86,1.26-.31,2.87-1.3,3.42-5.58,3.09-7.87,7.78-7.54,14,.06,1.26-.4,2.43-1.93,2.3-1.25-.11-1.38-1.24-1.4-2.27S586.33,695.4,586.33,694.4Z" transform="translate(-1 -20.67)"/><path d="M759.66,455.34c-.4,2.64,1,7.31-2.24,7.66-3.89.42-1.88-4.74-3.31-7.14-.74-1.26-.22-3.26-.26-4.92s.12-3.59,2.32-3.74,3.29,1.39,3.46,3.45C759.76,452.14,759.66,453.65,759.66,455.34Z" transform="translate(-1 -20.67)"/><path d="M627.37,624.52c0,2.49.07,5,0,7.47a2.2,2.2,0,0,1-2.12,2.34c-1.25.06-1.75-1.08-1.91-2a38.73,38.73,0,0,1,.09-16.29c.22-.94.76-2.09,1.89-2.06,1.47,0,1.73,1.49,1.84,2.55.27,2.64.3,5.3.43,8Z" transform="translate(-1 -20.67)"/><path d="M800.85,521.7c-3.28-.27-5.93-1.56-6-5.58-.07-2.54,1.3-4.59,3.82-4.16,3.62.62,5.43,3.82,6.21,7.05C805.49,521.71,802.83,521.41,800.85,521.7Z" transform="translate(-1 -20.67)"/><path d="M332.69,692.8c-.18,1.19.76,3-.87,3.47s-1.94-1.49-2.53-2.51c-1.64-2.84-3.08-5.8-4.57-8.72-.52-1-1.33-2.27.08-3s3.74-.92,4.41.73C330.52,686,333.65,688.73,332.69,692.8Z" transform="translate(-1 -20.67)"/><path d="M828.92,504.8c.09-1.09-.44-2.49,1.09-3s2.57.57,3.21,1.75c1.78,3.34,2.25,7.28,4.77,10.31.27.32.08,1.33-.24,1.76-.55.75-1.42.64-2.24.25C832.17,514.32,828.91,508.83,828.92,504.8Z" transform="translate(-1 -20.67)"/><path d="M596.88,308.11c-.06,2.12-.66,5-3.08,4.59-3.2-.52-3.41-4-3.56-6.79-.09-1.44-.68-3.81,2-3.46C595.32,302.84,596.82,304.9,596.88,308.11Z" transform="translate(-1 -20.67)"/><path d="M831.21,381.08c.41-2.48,1.78-4.42,4.66-4.55,2.32-.1,3.06,1.59,2.88,3.65-.23,2.62-1.7,4.3-4.31,4.53C832.21,384.9,831.22,383.47,831.21,381.08Z" transform="translate(-1 -20.67)"/><path d="M632.64,648.64a22.66,22.66,0,0,1-1,3.94,3.16,3.16,0,0,1-3.23,1.86c-1.76-.21-1.47-2-1.37-3.19a18.2,18.2,0,0,1,.79-3.84c.47-1.63.35-4.37,2.55-4.09C632.78,643.63,632.24,646.4,632.64,648.64Z" transform="translate(-1 -20.67)"/><path d="M873.8,254.14c1.77.18,4,0,4.11,2.5.05,2.27-1.43,3.63-3.87,3.59s-4.41-1.47-4.47-3.79C869.5,253.91,872,254.31,873.8,254.14Z" transform="translate(-1 -20.67)"/><path d="M748.37,387.64c2.36.3,5-.23,5.25,2.78a2.39,2.39,0,0,1-2.85,2.65c-2.29-.57-5.59-.84-6.1-3.33C744.12,387,747.22,388.26,748.37,387.64Z" transform="translate(-1 -20.67)"/><path d="M603.65,270.34c2,.23,2.54,1.78,2.38,3.23-.2,1.86-.36,4.52-2.52,4.83s-2-2.11-2.08-3.71C601.34,272.83,601.34,271,603.65,270.34Z" transform="translate(-1 -20.67)"/><path d="M688.44,485.57c-1.47-3.41-2.91-5.63-1.54-8.36.44-.87,1-1.85,2.11-1.78,1.32.09,1.27,1.28,1.43,2.2C690.87,480.15,690.1,482.39,688.44,485.57Z" transform="translate(-1 -20.67)"/><path d="M750.85,239.76c-1.73-.65-3.34-1.72-3.42-3.68-.07-1.77,1.56-2.4,3.11-2.36a2.78,2.78,0,0,1,3,3.14C753.44,238.47,752.8,239.71,750.85,239.76Z" transform="translate(-1 -20.67)"/><path d="M630.19,602.76c-2.84-3.55-1.73-6.7-.73-9.8.16-.5,1.41-.86,1.59-.1C631.78,596,632.14,599.23,630.19,602.76Z" transform="translate(-1 -20.67)"/><path d="M680,364.13c-3.53-2.07-3.78-5.48-3.73-9,0-1,0-2.15,1.29-2.23s1.54,1,1.63,2c.27,3.11.48,6.22.72,9.33A.81.81,0,0,1,680,364.13Z" transform="translate(-1 -20.67)"/><path d="M659.16,246a3.32,3.32,0,0,1-3.37,3.11c-2.07.08-3.08-1.17-3-3.12s1.68-2.29,3.23-2.29S659.05,244,659.16,246Z" transform="translate(-1 -20.67)"/><path d="M608.74,675.21c-.88,2.4-3.32,1.65-4.92,2.5-.93.48-2.5.63-2.78-.92-.34-1.92,1.15-2.63,2.73-2.57S607.34,673.36,608.74,675.21Z" transform="translate(-1 -20.67)"/><path d="M600,330.81c-.09,1.45,0,3-1.81,3.1s-1.8-1.52-1.83-2.83.16-2.79,2-2.71C599.94,328.44,599.84,329.82,600,330.81Z" transform="translate(-1 -20.67)"/><path d="M688.47,210.48c-.17,1.58-.59,3.06-2.51,3-1.4,0-1.92-1.22-1.93-2.42,0-1.36.46-2.77,2-3S688.37,208.93,688.47,210.48Z" transform="translate(-1 -20.67)"/><path d="M689,513.62c-.65,2.1-2.46,1.78-4,1.81-1.21,0-2.47-.39-2-1.95a3.5,3.5,0,0,1,3.44-2.27A2.34,2.34,0,0,1,689,513.62Z" transform="translate(-1 -20.67)"/><path d="M830.58,328.76c-.72,1.63-2.11,1.26-3.35,1.12s-2.88-.44-2.79-2.07,1.55-1.42,2.68-1.11C828.43,327.06,830.13,326.9,830.58,328.76Z" transform="translate(-1 -20.67)"/><path d="M67.82,533.2c0,2,.36,3-.67,3.34-1.51.53-2.11-.74-2.62-1.7-3.6-6.73-7.2-13.54-7.81-21.28-.35-4.46-2.58-8.06-4.15-11.95-2.38-5.88-3.35-12.05-4.39-18.22a2,2,0,0,1,.52-1.69c.93-.56,1.56.25,1.91,1,1.41,3,2.6,6.09,4.13,9,5.14,9.85,7.94,20.43,10.11,31.24C65.63,526.8,67,530.53,67.82,533.2Z" transform="translate(-1 -20.67)"/><path d="M39,581.08c-.09,4.12.51,8.29-.62,12.38-.33,1.19-.75,2.41-2.12,2.36-1.66-.07-1.3-1.6-1.4-2.68-.55-5.58-1.57-11.12-1.17-16.77a15.35,15.35,0,0,1,1.09-5.31c.5-1.1.94-2.2,2.42-2s1.76,1.4,1.78,2.58C39.06,574.78,39,577.93,39,581.08Z" transform="translate(-1 -20.67)"/><path d="M75.8,600.26c4.13-2,4.74-5.58,4.31-9.68-.11-1-.68-2.73.83-3,2-.32,1.61,1.61,1.89,2.8,1.67,7,1,8.72-5.31,12.58-.56.35-1.19.87-1.75.34-1.14-1.09.44-2.13.2-3.23Z" transform="translate(-1 -20.67)"/><path d="M59,625c-4.54-5.54-9-10.91-16.88-4.34,1.9-4.08,5-5.69,8.45-5.25C55.55,616.05,57.85,620,59,625Z" transform="translate(-1 -20.67)"/><path d="M80.07,629.72c-2.2,0-2.74-1.77-4-2.43-2.8-1.46-5.55-3.23-8.59-.35-.77.73-2.14,1.74-2.9.23s.9-1.84,1.85-2.41C71.94,621.44,77.56,623.33,80.07,629.72Z" transform="translate(-1 -20.67)"/><path d="M79.39,716.56c-1.68,1.9-3.59,1.36-5.34,1.34a3.62,3.62,0,0,1-3.55-2.26c-.16-.38-.15-1.14.09-1.32,1.49-1.16,2.48.3,3.42,1C75.61,716.46,77.67,714.63,79.39,716.56Z" transform="translate(-1 -20.67)"/><path d="M13.05,710.17c.13.56.24.77.18.85-1.46,2.11-2.79,4.52-6,3.75-.45-.1-1.14-1.24-1-1.39C7.93,711.06,10.59,710.93,13.05,710.17Z" transform="translate(-1 -20.67)"/><path d="M108.31,708.94a11.64,11.64,0,0,1-.78,1.68c-2.2,1.66-4.56,1.29-6.9.4-.24-.09-.42-1.14-.3-1.21C102.72,708.31,105.17,709.55,108.31,708.94Z" transform="translate(-1 -20.67)"/><path d="M34.31,714.34c3-.4,5.12,1.1,7.15,2.79C38.59,718,35.89,718.44,34.31,714.34Z" transform="translate(-1 -20.67)"/><path d="M273.74,622.37a9.73,9.73,0,0,1,11-9.4c1.18.21,2.47.39,2.49,1.9,0,1.73-1.4,1.48-2.54,1.58a5.11,5.11,0,0,0-1.93.39c-1.7.92-2.48,2.61-3.08,4.34a1.15,1.15,0,0,0,.86,1.54c2.26.57,2.79-1,3.42-2.68a1.91,1.91,0,0,1,1.56-.84c.92.1,1.3.94,1.36,1.83a5.37,5.37,0,0,1-2.6,5.08c-2.08,1.35-4.25,2.36-1.67,5.17a1,1,0,0,1-.54,1.6,3.78,3.78,0,0,1-2.33-.39C275.89,630.26,273.72,627,273.74,622.37Z" transform="translate(-1 -20.67)"/><path d="M257.93,608.64c-1.39,7.62-7.25,11.26-13.44,13.8-4.24,1.74-8.7,3-12.78,5.23-.85.46-1.8,1.3-2.69.4-1.16-1.18,0-2.12.68-3a14.58,14.58,0,0,1,8.31-5.19,30.87,30.87,0,0,0,17.92-10.83,3.37,3.37,0,0,1,1.26-.66C257.29,608.35,257.46,608.48,257.93,608.64Z" transform="translate(-1 -20.67)"/><path d="M124.06,488.73c9.86,4.65,12.66,14.08,15.84,23.26C132.19,505.87,129,496.73,124.06,488.73Z" transform="translate(-1 -20.67)"/><path d="M195.59,551.2c-7.25-1.58-12.58-4.81-18.26-7.1-3.2-1.28-5.41-3.69-7.81-5.93-.67-.63-1.73-1.33-.79-2.43.64-.75,1.55-.39,2.27,0,4.59,2.62,9.56,4.77,13.62,8C187.78,546.36,192.23,546.81,195.59,551.2Z" transform="translate(-1 -20.67)"/><path d="M302.31,622.66c.4,4.58-8,14.82-12.36,15.31-1.81.21-2.13-.67-1.34-2a12.7,12.7,0,0,1,2.76-3.47c3.41-2.65,6.75-5.3,8.37-9.52.29-.75.73-1.63,1.79-1.22C301.91,621.91,302.13,622.44,302.31,622.66Z" transform="translate(-1 -20.67)"/><path d="M126,610.89c-8.37,5.14-15.14,1.5-21.76-3C111.68,607.43,118.47,611.25,126,610.89Z" transform="translate(-1 -20.67)"/><path d="M265.79,616.11c-2.17,4.57-5.79,7.52-10.09,9.76-.59.31-1.28.64-1.78,0a1.33,1.33,0,0,1,.56-2.07C258.42,621.46,261.1,617.39,265.79,616.11Z" transform="translate(-1 -20.67)"/><path d="M279.71,568.4c-.48,1.48-1.33,2.64-3,2.65-1.51,0-1.91-1.14-1.91-2.33,0-1.81,1.11-2.64,2.85-2.52A2,2,0,0,1,279.71,568.4Z" transform="translate(-1 -20.67)"/><path d="M298.53,615c-1.71-.06-2.47-.86-2.4-2.22a2.24,2.24,0,0,1,2.65-2.31,2.14,2.14,0,0,1,2.27,2.18C301,614.27,299.53,614.57,298.53,615Z" transform="translate(-1 -20.67)"/><path d="M149.5,359.78c-2.06,3.87-3.56,7.75-8.29,8.33s-7.73-1.54-7.79-6.14c-.23-16.3-.21-32.6-.14-48.89,0-3.18,1.25-6,4.83-6.68a7.39,7.39,0,0,1,8.26,4.29c2.12,4.17,3.32,3.81,5.1-.14,1.43-3.19,4.25-4.58,7.74-4.27,3.73.34,5,3.25,5.39,6.26a83.05,83.05,0,0,1,.4,10.94c.05,11.81,0,23.62.06,35.43,0,3.94.12,7.95-4.79,9.14s-7.82-.75-10.1-6.5C150,361.09,149.81,360.62,149.5,359.78Z" transform="translate(-1 -20.67)"/><path d="M128.75,390.57c6.22-1.33,12.39-3,18.67-3.89,4.28-.64,8.19-2.4,12.41-3.27,6.26-1.3,11.73.65,17.5,1.41,0,1.94-1.21,1.8-2.06,1.66-11.3-1.82-21.38,3.49-32,5.45-4.91.91-9.69,1.26-14.47.09Z" transform="translate(-1 -20.67)"/><path d="M245.56,307.3c-16-7-25.75-21.48-39.42-31.26C222,283.12,233.91,295.05,245.56,307.3Z" transform="translate(-1 -20.67)"/><path d="M285.55,387.05c3.28,5.42,1.55,10.82.41,16.24C285.29,397.87,284,392.48,285.55,387.05Z" transform="translate(-1 -20.67)"/><path d="M290.34,422.61a29.36,29.36,0,0,1-3.95-10.43c-.24-1.12-.19-2.59,1.33-2.71,1.3-.1,1.37,1.25,1.34,2.21C289,415.15,292.18,418.2,290.34,422.61Z" transform="translate(-1 -20.67)"/><path d="M126.47,259.59c-.24,1.52-.75,3-2.55,3.1a2.41,2.41,0,0,1-2.52-2.51,2.66,2.66,0,0,1,2.51-3.09C125.54,256.93,126.15,258.17,126.47,259.59Z" transform="translate(-1 -20.67)"/><path d="M294.71,399c-2.19-3.65-3.12-7.39,0-12Z" transform="translate(-1 -20.67)"/><path d="M263.59,330.15c-.13,1.52-.83,2.54-2.48,2.46s-2.27-1.26-2.39-2.67c-.16-1.79,1.13-2.18,2.57-2.24C263,327.63,263.69,328.52,263.59,330.15Z" transform="translate(-1 -20.67)"/><path d="M165.91,294.92c-1.58-.07-2.67-.79-2.8-2.32s.94-2.44,2.45-2.49a2.13,2.13,0,0,1,2.38,2C168.08,293.62,167.49,294.7,165.91,294.92Z" transform="translate(-1 -20.67)"/><path d="M241.3,743.72c1.75-12.88,3.55-25.12,8.25-36.75,3.42-8.45,5.23-17.57,10.54-25.24.57-.81,1-1.73,1.58-2.54s1.17-1.91,2.33-1.37.35,1.62.14,2.54c-1.7,7.5-5,14.44-7.65,21.59-4.63,12.48-8,25.3-11.35,38.14a23.83,23.83,0,0,1-1,3.35c-.53,1.19.05,3.58-2.11,3.18C240.43,746.31,241.62,744.26,241.3,743.72Z" transform="translate(-1 -20.67)"/><path d="M230.83,771c-2,17.27-4,33-7.14,48.64-1.15,5.76-5.81,9.54-9.75,13.58a1.23,1.23,0,0,1-1.78.14c-1-1,0-1.81.49-2.61,2.75-4.32,5.39-8.53,6.53-13.8,2.22-10.24,2.2-20.73,4.4-31,1-4.87,1.95-9.73,3.75-14.39.43-1.1,1.17-2.23,2.54-2C231.5,770,230.88,771.41,230.83,771Z" transform="translate(-1 -20.67)"/><path d="M203.79,843.31c-7.2,7.42-12.83,16.27-23.08,20.81a121.25,121.25,0,0,1-20.19,6.69c-1,.24-2.19.82-2.67-.3-.58-1.39.74-2,1.81-2.48,6-2.72,11.81-6.22,18.09-7.95,8.26-2.28,13.08-8.78,19.37-13.47,1.92-1.42,3.59-3.17,5.37-4.78Z" transform="translate(-1 -20.67)"/><path d="M92.93,812.79c-.32,1.83-1.17,2.93-3,2.91-1.63,0-2.26-1.07-2.32-2.6-.08-1.93.91-2.68,2.74-2.55C91.89,810.66,92.85,811.33,92.93,812.79Z" transform="translate(-1 -20.67)"/><path d="M90.66,845.71a2.75,2.75,0,0,1-2.51-2.59,2.53,2.53,0,1,1,5,0A2.71,2.71,0,0,1,90.66,845.71Z" transform="translate(-1 -20.67)"/><path d="M244.38,769.28a2.67,2.67,0,0,1-2.77,2.36c-1.69,0-2.29-1.07-2-2.67s1.14-2.36,2.76-2.08A2.22,2.22,0,0,1,244.38,769.28Z" transform="translate(-1 -20.67)"/><path d="M169.8,846.85a2.7,2.7,0,0,1-2.35,2.74c-1.7.41-2.38-.53-2.51-2.08-.12-1.34.36-2.26,1.83-2.28C168.06,845.21,169.44,845.15,169.8,846.85Z" transform="translate(-1 -20.67)"/><path d="M240.93,796.9c-1.16-.18-2.37-.52-2.44-1.89a2.4,2.4,0,0,1,2.44-2.53,2,2,0,0,1,2.38,1.88A2.29,2.29,0,0,1,240.93,796.9Z" transform="translate(-1 -20.67)"/><path d="M236.15,799.5c-.31,1.39-.89,2.64-2.49,2.6a2.33,2.33,0,0,1-2.33-2.66,2.14,2.14,0,0,1,2.15-2.26C235.06,797.07,235.87,798,236.15,799.5Z" transform="translate(-1 -20.67)"/><path d="M193.12,825.32c-1.47,0-2.62-.49-2.63-2.16s1.1-2.24,2.56-2.28a2,2,0,0,1,2.36,1.92A2.15,2.15,0,0,1,193.12,825.32Z" transform="translate(-1 -20.67)"/><path d="M94.69,767.53c-.15-.76.19-1.57.87-1.47,5.21.79,5.46-3.84,7.37-6.64.53-.78.73-2.2,2-1.79,1.66.54.93,1.92.43,2.9-1.47,2.93-1.79,6.48-4.67,8.63C98.35,770.89,95,770,94.69,767.53Z" transform="translate(-1 -20.67)"/><path d="M103.47,728.49c-1.41,2.6-3.25,2.59-5,2.27-1.63-.29-3.72-1-3.19-3,.61-2.28,2.36-.4,3.6-.19C100.27,727.84,101.7,728.15,103.47,728.49Z" transform="translate(-1 -20.67)"/><path d="M117.77,672.5a36.82,36.82,0,0,1,1.67,13.14c0,4-2.4,5.18-7.17,3.73C117.37,685.21,114.9,678.67,117.77,672.5Z" transform="translate(-1 -20.67)"/><path d="M127.13,764.53c-.24,3.05-1.74,4.74-3.39,6.39-1.34,1.33-3.2,3-4.56,1.49-1.8-2,1.61-2,2.27-3.29.9-1.73,2-3.34,3.08-5,.48-.76,1.23-1.25,2-.75C127,763.65,127.1,764.46,127.13,764.53Z" transform="translate(-1 -20.67)"/><path d="M150.13,736.07c-.15.48-.14.69-.24.76-2.35,1.69-4.91,1.44-7.44.62a.86.86,0,0,1-.14-1.57C145,734.49,147.55,734.88,150.13,736.07Z" transform="translate(-1 -20.67)"/><path d="M134.59,673.77c-.5,1.3,1.52,4.36-1.13,4.58-2.08.16-2-3.21-2.05-5-.17-3.31-1.56-7,1.76-9.79.87-.72,1.75-1.83,3-.9s.81,2.11,0,3C134.12,668,134.71,670.73,134.59,673.77Z" transform="translate(-1 -20.67)"/><path d="M143.25,685.13a10.23,10.23,0,0,1,.44,5.69c-.51,4.14-2,4.75-5.43,2.52-1.56-1-1.61-2.83-.19-2.88C141.65,690.32,141,686.85,143.25,685.13Z" transform="translate(-1 -20.67)"/><path d="M161,668.24c-1.83,1.37-2,4.74-5,5.22-1.28.21-1.24-1.34-1-2.21.62-2.65,2.59-4,5.07-4.65C160.88,666.4,161.06,667.2,161,668.24Z" transform="translate(-1 -20.67)"/><path d="M175.47,749.77c1.09-3.58.52-7.23.79-10.82.06-.85.23-1.71,1.17-2a1.3,1.3,0,0,1,1.58.82C179.9,739.49,177.68,748.38,175.47,749.77Z" transform="translate(-1 -20.67)"/><path d="M27,651.29c-.39,1.74-1.46,2.86-3.38,2.64-1.32-.14-2.87-.75-2.48-2.35s2.08-2.42,3.8-2.51C26.27,649,27,649.82,27,651.29Z" transform="translate(-1 -20.67)"/><path d="M47.68,651.11c1.49.39,3.88.95,6.21,1.68a1.85,1.85,0,0,1,.82,1.54c-.09.77-1,.87-1.55.61-2.18-1-4.49-.75-6.77-.89-1.12-.07-2.68,0-2.61-1.5C43.85,650.8,45.4,650.8,47.68,651.11Z" transform="translate(-1 -20.67)"/><path d="M70.89,658c-1.44-.17-3.57.34-3.71-1.51s1.91-1.3,3.12-1.29c1.4,0,3.53-.44,3.67,1.44S72,657.79,70.89,658Z" transform="translate(-1 -20.67)"/></g></g></svg>