<svg xmlns="http://www.w3.org/2000/svg" viewBox="0 0 650.65 860.39"><title>lifesafety</title><g id="Layer_2" data-name="Layer 2"><g id="Layer_1-2" data-name="Layer 1"><path d="M553,1c1.45,1.48.71,3.06.23,4.65-1.6,5.28-2.92,10.67-5.92,15.43-.63,1-1.13,2.25-2.47,2-1.68-.33-1.71-1.87-1.53-3.21a20,20,0,0,1,1-4.35c.5-1.34,3.2-2.61.94-4s-4.82-.24-6.38,1.93c-3.05,4.27-7.67,5.65-12.5,7C533.2,14.2,541.14,9.13,546,1Z" transform="translate(-18.71 -1)"/><path d="M420.54,636.25a36.68,36.68,0,0,0,19.83,2.82c2.15-.29,6.13,2.51,9.3,3.83,3.49,1.46,6.73,1.77,8.42-2.7,4.85,7,11.17,10.45,19.28,10.9.55-2.26-1-2.85-1.67-3.89-.81-1.21-1.11-3.43,0-3.43,4.18,0,7.5-4.94,12-2,1.57,1,2.65,1,4.34-.22a16,16,0,0,1,9.5-2.6c9.17.18,18.56-1.48,27.38,2.55.56.25,1.15,1.6,1.86.36.57-1,.18-1.86-1.05-2.3-2.19-.77-4.39-1.54-5.9-3.51a3.16,3.16,0,0,1-.69-3.26c.64-1.26,2.09-.87,3.1-.41a32.91,32.91,0,0,0,11.57,2.78c2.8.2,3.36,2.57,4.58,4.13,1.45,1.87,2.18,1.61,3.85.28,4-3.2,5.36-8.3,8.79-11.88a2.55,2.55,0,0,0,.25-.43c3.21-4.83,7.88-7.34,10.89-5.86,2.68,1.32,5.08,10.42,3.68,14-1.65,4.23-.92,5.73,3.6,5.57s8.83,1.31,13.13,2.41c2.86.73,3.15,2,.78,4.41a38.12,38.12,0,0,1-20.64,10.89c-1.63.32-4,.46-3,3.24.89,2.48,2.11,3.29,5.27,2.31,5.5-1.72,10.26-5.81,16.41-5.38,2,.14,5-.71,5.23,2.34S588,664.72,585.7,665c-3.72.48-7.68-.28-10.26,3.65-3.64,5.53-3.1,11.66-2.94,17.77,0,1.66,1.28,2.31,2.62,2.57,1.68.34,2.13-1.12,2.88-2.23,2.81-4.2,5-8.81,8.57-12.52,1.66-1.74,3.16-2.42,5.66-1.38a5.5,5.5,0,0,1,3.63,4.82c1.27,7.85-1.64,13.86-7.81,18.61-2.63,2-5.09,4.27-7.54,6.5a6.44,6.44,0,0,0-2.28,4.83c0,1.5-.27,3.34,1.15,4.13,1.74,1,1.75-1.48,2.76-2,3.24-1.6,6-5.12,10.32-2.72,1.5.84,2.79,1.77,2.68,3.79s-1.91,2-3.2,2.56a4.51,4.51,0,0,1-1,.28c-8.61,1.58-10.69,4-11.12,13.26,4,0,7.14-3,11.13-3.42,2.8-.28,3.6.64,4,3,1.12,6.93-3.5,16-9.78,19.57-4.47,2.56-9.64,3.7-13.75,6.93-1.38,1.08-3.56,2.08-2.88,4.21.81,2.55,2.95,1.13,4.68,1,3.6-.38,7.23-.13,10.66-2,1.45-.78,3.58-.2,5.32.5,2.27.9,3.71,2.44,3.14,5-.65,2.86-3,2.83-5.18,2.31-6-1.42-12-3.09-18.05-.94-7.77,2.74-15.75,5.21-21.27,13,9.17-1.39,17.42-5.09,26.34-4,.49.06,1,0,1.5,0,4.87.48,9.36,4,14.58-1.37,2.91-3,11.59,5.17,10.5,10.21a22.32,22.32,0,0,1-6.16,11.09c-.86.85-2.1,1.44-3.12.54s.35-2.17.25-3.13c-.18-1.86,5.25-1.77,1.43-4.73-3.64-2.82-6.5-2-9.64.9-2.35,2.2-3,4.19-1,6.84,1.25,1.65,4.91,2.55,1.68,5.63-.48.45.3,1.23.92,1.48,2.95,1.16,4.64,2.42.76,4.74a1.31,1.31,0,0,0,.2,2.41c6.53,2.88,5,9.07,5.55,14.14.34,3.32,1.44,5,4.52,5.23a11.27,11.27,0,0,1,5.13,1.73c1.81,1.12,4.33,2.19,3.52,4.76-.7,2.24-3.24,2.72-5.42,2.66-3.49-.09-7.47.88-9.49-3.44-.36-.79-1-1.46-1.94-.93a2.46,2.46,0,0,0-1,1.55,1.55,1.55,0,0,0,1.24,1.88c4.18.71,6.71,4.11,10,6.16,5.52,3.37,8.08,8.58,7.73,15.14-.28,5.32-4.27,7.48-8.93,4.64-3.26-2-6.4-4.15-9.52-6.34s-5-4.84-5-8.73c0-2.25.1-5.81-2.43-5.69-3,.13-6.6,1.35-7.81,5a9.39,9.39,0,0,0-.41,4.42c1.6,8.84-11.69,14.73-19.83,11.54-1.65-.65-2.44-1.72-1.31-3.48.79-1.25,1.56-2.52,2.47-4a6.75,6.75,0,0,0-6.31-1.3c-7.74,1.74-15.62,2.57-22.84,6.54-4.52,2.49-7.23.38-9-4.28-1.25-3.25-4.93-3.23-7.49-2.16-11.89,5-24.35,4.35-36.77,4.34-1.9,0-4.1-.29-4.47-2.34-.47-2.6,2.27-2.4,3.81-2.94a14.38,14.38,0,0,1,4.41-.52c3.16-.08,6.35.19,9.49-.1,3-.28,6.82-.9,7.47-3.92s-3.5-2.8-5.47-3.6c-6.24-2.53-12.94-2.48-19.59-2.39-1.67,0-2.07.83-2.4,2.42-1.43,6.77-9.09,9.51-14.22,4.91-3.78-3.39.22-5.17,2.42-7.18-2.2-1.45-4.42-.84-6.5-.85q-27.93-.18-55.87-.2c-5.2,0-8.81-1.09-11.05-6.88-1.65-4.28-5.71-7.92-9.4-11-2.94-2.45-12.15,2.09-14.31,6.44-.66,1.34-1.18,2.75-1.8,4.11-1.37,3-.62,5.81,2.09,7.37s5.84,1.57,7.49-2.12a2.68,2.68,0,0,1,1.92-1.82c2.28,7.67,8.36,8.46,15.19,8.46,4.62,0,9.24.81,13.85,1.37,2.17.26,4.16,1,5.35,4.32-12.11-.79-23.82,1.47-35.39-1.51a17.62,17.62,0,0,0-10.88.5c-5.16,1.76-11.11,1.45-16.73,1.58-9,.21-18,.09-27,0a15,15,0,0,1-4.9-.76c-1.66-.6-2.78-1.73-4,.87-.66,1.41-3.09.93-4.7.65-11.17-2-22.12.58-33.15,1.51-.48,0-1,.33-1.43.4-1.58.23-3.45,0-3.72-1.61s1.79-1.59,3-1.87c7.57-1.75,15.09-3.87,22.76-5,6.06-.88,10.28-3.83,13.93-9.29.51,3.1.88,6,4.3,5.31s2.53-3.62,2.91-6c.75-4.72-.54-8.21-5.14-10-2.8-1.09-4.23-5.11-7.37-4.53-4.3.79-6.26,5.17-9.14,8-1.69,1.69-.67,4.47-.71,6.77-.11,5.16-1.1,6-6.29,5.17a35.75,35.75,0,0,0-5.48-.3c-24.83,0-49.66-.22-74.49.11-7.8.1-15.72-.18-23.4.83a44.68,44.68,0,0,0-19.63,7.47c4.94-.34,9.62.94,14.37.82a70.89,70.89,0,0,1,11.92.93c1.38.2,2.8.61,2.83,2.25s-1.52,1.6-2.6,1.7c-13,1.18-25.95,4-39,.79a22.06,22.06,0,0,1-6.94-2.56c-2.15-1.45-6.17-3.21-1.21-6.46a3,3,0,0,0,.8-4c-1.09-2.12-2.8-1.63-4.3-1.09-5,1.81-9.85,2.63-14.78-.46-1.1-.7-2.93-.33-4.42-.27s-2.77.77-2.86,2.27c-.13,1.86,1.63,1.53,2.82,2,6,2.37,13.16,1.59,18.19,6.91,1.33,1.41,3.68,2.6,3.29,4.36s-3.07,3.07-4.87,2.65c-6.17-1.46-12.37,1.29-18.29,0-8.58-1.9-17.82-2.35-25-8.29-1.5-1.24-1.11-.47-1.49.52A5.7,5.7,0,0,1,76,853.59c-2,.27-4.2.36-5.41-1.62a4.74,4.74,0,0,1,.14-5.21c2.14-3.15,2.36-5.86-1.5-7.74-2.69-1.31-6,.87-7.35,4.73-.42,1.26-.42,2.71-1,3.83-1.38,2.49-3.23,5-6.14,5.33s-3.85-2.7-5-4.88c-4.45-8.74-4.15-10.18,3.12-15.85C58.16,828,58.16,828,55,820.81c-1.9,1.75-3.35,4.31-6.44,3.66-1.11-.23-2.48.09-3.14-1.07s.43-2.5,1.07-3c6.81-5.61,9.71-13.82,13.81-21.13,2.51-4.48,4.06-9.21,9-11.91,5.89-3.2,6.25-3.35,9.77,1.78.63.92,1.42,1.74,2.31,2.81.88-3.2,1.94-6.11,5.19-5.47,2.3.45,5.84.27,6.44,3.6s-.42,6.39-4.38,7.19c-3,.61-3.49,4-4.05,5.45-1.22,3.19-3.94,5.32-4.86,8.59-.81,2.89-9,4.3-13,2.38a26.21,26.21,0,0,1-3.28-2.25c-1.33,1.68-1.47,3.71-2,5.61s-.56,3.15,1.74,4.3c2.92,1.45,5.72,3.44,3.1,7.73-1.27,2.09-.38,4.26,2.57,4.66.49.07,1,0,1.49.14,2.59.49,6.24,1.9,7.44-.36,1.48-2.8-3.11-3.4-4.69-5.92,3.41-1.06,6.75-.55,9.91-1.36,5.37-1.38,10.55-2.65,13.69-7.85,1.42-2.36,4.42-2.93,6.16-4.91.82-.94,2.16-2,1.77-3.37-.45-1.65-2.16-1.1-3.42-1.32s-2.88.81-3.39-1a2.69,2.69,0,0,1,1-2.14c1.5-1.16,2.37.41,3.38,1.1a7,7,0,0,0,11-5.15c.13-1.24-.84-2.53.4-3.77s3.94-2.47,1.06-4.06c-2-1.11-5.12-2.89-7.19-.59-1.7,1.87-2.88,2.77-4.82,1-2.19-2-7.21-1.64-5.7-6.69.79-2.63.64-5.37-1.62-6.73-2.06-1.24-4.63-.76-7.07.59-2.93,1.61-6.07,4.59-7.78-2.28-.69-2.79-6.26-4.95-10.28-5.92a63.21,63.21,0,0,1-10.8-3.73c-4.23-1.88-5.53-4.81-3.21-8.79,1.49-2.55-2-2.32-1.4-4.06,1.38-.71,3.24-1,3.92.37,5.23,10.74,14.86,9.18,24,8.68,6-.33,11.92-1,17.82.52a13.43,13.43,0,0,0,2.89.72c1.85,0,4.63,1.22,5.27-1,.77-2.61-2.08-2.63-4-3.24-3.45-1.14-6.67-3-10.42-3.19-.95,0-2-1.08-1.61-1.34,3.08-2,1.57-3.67-.09-5.62-2-2.34-4.71-3.2-7.45-3.6-4.08-.6-8.24-.77-12.37-1-8.16-.37-14.18-5.14-20.26-9.76-1-.74-2-2.23-1.4-3.49.82-1.59,2.77-1.82,4.37-1.71,5.62.38,11.16,1.13,16.36,3.61,2.7,1.28,5.6,2.22,8.92.78C79.72,733.88,77,732,74,730.21c-4.74-2.82-4.62-3.5-.94-7.37,1.58-1.66,4.51-4.58-.41-6.37a1.21,1.21,0,0,1-.74-.63c-2.22-7.79-10-7.5-15.47-10.55a12.12,12.12,0,0,1-6.31-9.49c-.17-1.11-1.48-3.26,1-3.67,1.73-.3,4-.6,4.7,1.7,1.6,5.19,6.25,4,9.87,4.91a3.46,3.46,0,0,0,3.81-1.84c1.09-1.79-.23-2.88-1.36-3.77-3.4-2.65-6.82-5.29-10.39-7.7-3-2-4.91-4.22-3.8-8.24.4-1.44-.46-3.22-.65-4.85-.11-1-.14-2.14,1.13-2.43s1.74.8,2,1.73c1.49,4.88,6.58,5.94,9.76,9,1.73,1.68,4.83.29,6.2-1.61,2.77-3.82,5.84-7.74,4.64-13.06-.77-3.42-.19-6,3.92-6.48,2.24-.28,4.83-1.44,4.76-3.57-.09-2.39-.83-5.38-3.65-6.62A94.53,94.53,0,0,0,72,645.24c-4.84-1.48-9.12-4-13.39-6.55-1.36-.81-3.42-1.76-2.73-3.6s2.82-1.36,4.47-1.12c6.33.91,12.77,1.31,18.51,4.72,1,.61,2.7,2,3.9,0,.93-1.55.27-3-.31-4.67-1.74-4.93-5.54-9.19-4.93-14.91.23-2.13-.24-4.42,2.23-5.65,2.77-1.38,3.67,1.37,5.42,2.33,6,3.31,9.4,8.73,12.09,14.73.65,1.45,1.37,2.51,3.26,2.48,5.45-.09,10.71-.17,16,2.46,2.78,1.38,6.71-2.06,10.44-2,1.83.05,5.07-1.69,5,.75-.09,2,0,5.86-3.38,6.76-4.91,1.31-9.9,2.32-16.39,3.8,6.87,2.85,12.42,5.13,18.77,4.46a20.56,20.56,0,0,1,3.44-.46c2.07.14,4.78-1.1,6,1,1.13,1.9-2.11,2.83-2.31,4.45-.75,6-3.88,5.34-7.88,3.2-2-1.07-4.58-2.58-6.31-.15-2.31,3.27,1.21,5.51,2.58,7.82,1.2,2,4.27,3,6.14,1.06,3.53-3.62,8-5,12.4-6.94,5.24-2.29,5.9-6.28,5.1-11.84s3-9.78,6.85-13.29c2.64-2.39,5.85-4.14,9.06-6.35a9,9,0,0,0-6.28-1.78c-8.29.88-16.13-1.51-24.1-3.06-3-.58-5.69-1-5.7-5.29,0-2.1-1.63-4.31-2.84-6.27s-3.22-3.36-5.48-2.1c-4.33,2.42-9.46,2.93-13.46,6.26-3.15,2.62-6.64.43-9.74-.93-1.3-.57-1.08-2,0-2.89A6.34,6.34,0,0,1,101,610.4c6.31-1.22,10.94-4.81,15.06-9.61,2-2.27,5.15-3.39,8.11-1.25,4.18,3,7.85,1.17,11.6-.8a2.74,2.74,0,0,0,1.73-2.78c-.22-1.43-1.65-1.45-2.78-1.49a26.77,26.77,0,0,1-6.32-.61c4.83-.81,9.26-4,14.44-2.08,1,.38,2.95.38,2.27,1.87-2.36,5.21,2.74,9.47,1.48,14.8-.55,2.33,2.88,5,6.25,2.88,7.47-4.66,15.51-6.11,24.21-5.34,6.1.53,11.74-1.51,17.08-4.41,3.66-2,2.91-6.27,4.78-9.27,1.25-2,2.31-3.59,4.38-4a15.56,15.56,0,0,0,7.88-4c5.14-4.79,11.75-2.51,17.56-4,1.37-.36,2.11.65,2.15,2.07,0,1.84.27,3.74-1.89,4.71-4.23,1.89-8.41,3.91-12.72,5.61-1.4.55-3.36.6-3.75,2-.64,2.33-4.6,3.79-2.17,6.81,1.19,1.47,10.31.35,11.73-1.28,3-3.46,5.43-7.45,9.55-9.81.4-.23.58-1.05.93-1.11,8.15-1.3,15-6.67,23.34-7.45,2.81-.26,7.31,1.57,6.88-4.74-.11-1.59,4.18-2,7.52-1.51-2.83,2.6-3.27,5.5-3.82,8.65-.66,3.81-4.13,6.19-7.21,8.44-1.67,1.22-5,1.83-4.62,3.74.5,2.36,3.74,2.1,6.05,2.4a23.31,23.31,0,0,1,3.68,1.17c-2.11,2.25-5.05,1.81-7.08,3.28-.9.65-2.45.89-2.13,2.33.22,1,1.44,1.25,2.48,1.32,3.07.2,5.63,1.91,8.43,2.9a2.59,2.59,0,0,1,1.65,2.82c-.18,1.24-1.53,1-2.48,1-14.14.25-28.41,1.32-41-7.24-3.57-2.42-7.85-2.52-12-2.7-1.56-.07-3.8-.46-4,1.73-.15,1.73,1.62,2.88,3.24,3.37,3.25,1,6.56,1.75,9.45,4.22-2.88,1.55-5.28-.29-7.77-.46-2.68-.19-5.49-.73-3.39,3.69,1.22,2.57-2.73,7.07-6.4,7.38-2.15.18-4.33,0-6.5,0-1.66,0-4.09.08-4.39-1.39a5,5,0,0,1,2.72-5.44c1.62-.8,3.16-1.83,5.13-1.75,1.64.07,3.36.09,4.67-1.36a58.56,58.56,0,0,0-9.47-5.84c-2.22-1.18-5-1.84-6.74-.86-10.5,6-22.9,2.74-33.63,7.25-.45.19-.85.46-2.33,1.27,6.52,1.53,7.75,8.14,13.74,10.24,4.31,1.51,3,15.25-1.1,18.35-1.48,1.11-4.5,2.18-3.41,3.91,1.23,2,4,2.76,7,1.58,5.37-2.09,11.19-2.79,16.41-5.66,3-1.67,4.05-3.66,3.58-6.79-.28-1.84-.66-3.81,1-5.09,2.51-1.91,6.12-3.37,8.19-1,2.45,2.79-2.33,3.41-3.27,5.42-.13.27-.49.44-.75.65-1.38,1.09-4.76.31-3.93,3.35.7,2.57,3.52,2.86,5.79,3.11a15.11,15.11,0,0,0,13.77-5.07c4.25-4.61,10.15-6.76,16.39-7.56,2.28-.3,4.65.32,6.83-1a2.18,2.18,0,0,1,3.12.55,2.7,2.7,0,0,1-.31,3.24A16.31,16.31,0,0,1,230,639.1c-.92.47-1.74,1-1.65,2.21.12,1.7,1.4,1.62,2.55,1.65,5.6.17,10.28,3.53,15.67,4.5,1.23.22,3.49.76,3.24,2.47-.28,1.86-2.42,2-4.08,2-4.65.06-9.31-.05-14,.08-1.95.05-4.55.09-5.11,2.2-.51,1.93,1.11,3.65,3,4.75a18.8,18.8,0,0,1,2.26,1.95c1.34,1.14,3.71,2.31,2.34,4.2-1.21,1.68-3.32,3.36-6,2.19-3.66-1.57-7.31-3.15-11-4.6-2.94-1.15-5.59-1.36-8,1.54-2.8,3.32-6.36,1.68-9.69.64-3.07-.95-2.77-3.36-2.46-5.71.34-2.57-.8-5.12.59-7.79.9-1.73-1.17-3-2.66-3.6-2.65-1.12-5.87-2-7.9.38-3.58,4.19-8.12,4.64-12.5,3.26-4.87-1.53-7.79,2-11.66,3-.84.2-1.1,1.2-.83,2.09a2.08,2.08,0,0,0,2.37,1.4c3.84-.17,7.66,1,11.4.75,7.34-.4,12.39,4.16,18.17,7.24a1.64,1.64,0,0,1,1,2,2.08,2.08,0,0,1-2.36,1.45c-8.49-1.34-17.27.41-25.63-2.63-4.35-1.58-8.79-2.59-13.49-.15-1.85,1-4.61.53-6.89.21-2.71-.39-4.48.43-6.31,3.91,11.09.12,21.82,0,32.17,6.63-7.17.94-13.27,1.76-19.47,1.43a8,8,0,0,0-7,2.71c-3,3.23-6.62,2.78-10.39.81-5.07-2.63-8.56-.82-9.62,4.88-.43,2.34-2,2.07-3.69,2.38-7.26,1.36-14.57.49-21.85.56-4.53,0-5.75,2-5.25,5.91.44,3.45,2.12,5.28,5.87,6.14,7.57,1.74,14.73-.5,22-1.24,4.39-.44,8.09-.11,11.94,2.82,3.06,2.33,7.32,2.91,9.68,6.7,1.68,2.71,1.8,4.12-1.64,4.8-4.45.89-8.86-.22-13.3-.06-9.75.34-19.52-.6-29.17,2.19-3,.88-6.73-.44-10.33-.77,1.92,3.81-1.26,4.53-3.36,5.69s-4.2,2.17-4.94,4.59c-.66,2.13,1,3.28,2.18,4.69,1.43,1.75,2.41.5,3.78-.06,2.8-1.14,4.45-3.31,6.13-5.6,2.24-3.06,5.08-3.84,9-3.35a93.81,93.81,0,0,0,19.29.79c7.15-.57,14.46,1.57,21.81,1.18,5.63-.29,11.28-.41,16.92-.76,3.48-.22,5.84-1.56,4.51-5.74-.62-2,.17-4,2.19-2.79,5.75,3.35,12.08,1.45,18.06,2.45,6.77,1.14,13.88.31,20.84.26,2.65,0,4.51-.23,6.82-3s8-2.58,12.27-1.8a49.9,49.9,0,0,0,8.43.61c2.43,0,3.88-.52,5.32-3.19,2.09-3.86,6.84-4.22,10.93-4.42,3.15-.15,6.28,0,9.37-.87,9.82-2.69,19.42.3,29.11,1.18,13.35,1.21,24.31,8.06,35.69,14.24a64.34,64.34,0,0,0,26.08,7.18c.72.05,1.75.3,2.07-.8.23-.78-.34-1.17-.9-1.56-5.63-3.94-5.66-4.86-.32-8.93.76-.58,1.46-1.23,3.36-2.84-4.52,0-7.74.08-10.94,0-2.82-.09-5.58-.19-4.07-4.53,1-2.91-1.22-3.58-3.54-4-6.25-1.21-12.52.19-18.83-.55-7.37-.86-13.27-4.78-19.58-7.85a4.35,4.35,0,0,1-2.73-4.71c2.82.85,5.54,1.75,8.3,2.49,3.63,1,7.24,1.71,9.67-2.39,1.68-2.83,4.45-.71,6.76-1.51-7.29-2.15-13.64-7.27-21.91-6.35,14.86-.85,29.44,2.27,44.55.23,14.59-2,29.91.12,44.93-1.62a31.48,31.48,0,0,0-21.25-3.82c-15,2.77-29.68,1.46-44.49-1-4.17-.69-8.54-.11-12.85-.62a7.26,7.26,0,0,1,8-1c3.32,1.43,4-1.16,5.65-2.41,2.18-1.66.11-2.79-.48-4.16a12.3,12.3,0,0,1-1-3.83c-.22-3,.36-6.2-3.41-7.49s-6.76,1.16-8.67,3.46a54.47,54.47,0,0,1-11,10.3c.28,2,3.72,1.91,2.57,3.89-.79,1.37-3,1.68-4.9,1.68-6.63,0-13.27.06-20.31-1.26.21,1.72,3,2.17,1.41,3.7a3.65,3.65,0,0,1-3.11,1.25c-6.6-.93-13.13.86-19.76.56-2.53-.12-5.16,1.75-8.85,3.14,4.83,1.54,9.27-.47,13.23,2.7-8.25-.51-15.94-1-23.63-1.47-1.82-.11-3.63-.52-5.44-.48-15.11.31-30.23-1.21-45.31,0-9.55.78-19,2.87-28.53,3.58-8.21.62-16.5.13-24.83-.26,2.66-.42,5-2.26,8-1.1a4.48,4.48,0,0,0,2.38,0c25.94-5.22,52.14-6.94,78.57-6.46,6.55.11,13.15-.91,19.79-.51,4.93.29,7.64-3.73,10.34-7,7.19-8.67,16-15.64,24.1-23.34,4.67-4.43,9.66-8.59,14.32-13,8.22-7.72,18-13.47,25.66-21.91,3.06-3.38,8-5,10.78-9.08,1.26-1.82,3.85-2.74,2.65-5.74-.17-.43.65-1.57,1.27-1.95,7.16-4.4,13.8-10,23.11-9.16,3.37.31,6.7.33,2.67-4.48-2.23-2.66-2.69-6.55-.26-9.3s3.67-7.18,9-6.3c2.55.43,3.14.93,2.13,3.26-.87,2-1.76,3.94-4,4.86a4.23,4.23,0,0,0-2.76,4.34c.09,2,2.06,1.81,3.38,2.34,1,.39,2.07.24,2.11,2.09.1,4.39,2.47,6.41,7.09,6.2,3-.13,6.67-1.85,9.07,2.56-3.37,0-6.13,1.26-9.11-1.24-2.45-2-6.21-1.08-9.2-1.09-8.68,0-17.74-.77-25,5.79-2.47,2.22-3.5,4-1.63,7.64,2.47,4.81,7.24,6.71,10.49,10.36,8.08,9.06,17.21,17.15,26.14,25.2,8.05,7.26,15.84,14.88,24.17,21.87,5.28,4.44,10.21,9.31,15.11,14.18a7.4,7.4,0,0,0,5.66,2.58c14.5-.44,28.5,3.85,42.87,4.49,8.3.37,15.42,4.79,23.56,5.83,12.59,1.61,25,2.21,37.54-.34,1-.2,2.13-.37,2.34-1.48s-.8-1.77-1.61-2.32c-3.24-2.18-6.66-2.84-10.37-1.14a37.58,37.58,0,0,1-6,2.47c-4,1-6.9-1-7.1-5.17-.11-2.18-1.37-2.76-3-3.39-4.77-1.86-9.51-3.79-14.28-5.66-1.83-.72-3.44-1.71-3-3.94.44-2.51,2.63-1.54,4.07-1.52,5.63,0,11.26-.57,16.86,1.13,2.42.73,5.24.12,8.05.12-4.51-7.49-17.11-10-24.14-6.14-8,4.36-16.69,6.88-26.49,3.11,4.31-3.18,8.1-6.4,13.64-6a42.76,42.76,0,0,0,6-.07c1.84-.14,3.32-1.23,3.38-3.08s-1.88-2.31-3.25-2.47a49.94,49.94,0,0,1-10.66-2.37c-6.26-2.17-9.59,2.47-12.57,6.27a12.77,12.77,0,0,1-8.65,5.09c2,3.27,5.89.07,7.55,2.9-5,2.6-9.8-1.27-14.88-.19-4.76,1-8.72,5.21-14.91,3.37,3.54-2.8,2.92-7.2,5.47-10.3,1.58-1.93.75-3.05-1.84-3.4-6.38-.85-12.73-1.93-19.08-3-3.36-.59-6.8-1.15-9.93-4,7.17-3.92,14.78-3.3,21.95-4.36,6.3-.93,6.36-.44,3.71-6.41-.41-.91-.71-1.87-1.06-2.81ZM527.47,764.53c2.4-.64,4.83-1.19,7.19-1.94,3.13-1,4.74-3.65,4.09-6.52s-3.57-2.18-5.94-2.08c-9.31.42-18.47,1.29-27,5.77-2.12,1.12-5.89.9-6.06,3.46s3.09,4.31,5.37,5.83a8.13,8.13,0,0,0,3.29,1c4.91.69,9.73,1.89,14.73,2,2.43.06,5,1.26,6.44-1.67,1.28-2.57-.87-4.15-2-6Zm35.67-55.17c-1.24-1-2.34-2.59-3.76-3-4.63-1.3-7.72-4.3-10.23-8.12-3.18-4.85-7.54-5.45-12.64-3.64-12.7,4.53-26.07,4.38-39.24,5.62-13.43,1.26-25.75-4.3-38.6-6.44-16.26-2.71-32.76-4.63-48.74-9.12-3.63-1-7.44-.21-10.77,1.2-11.8,5-24.51,5.42-36.82,7.82-7.13,1.38-14.37,2.22-21.57,3.21-1.58.21-3.21.35-3.46,2.15a3.43,3.43,0,0,0,2.31,3.94c7,1.94,12.81,8,20.95,5.82a11,11,0,0,1,2.5,0c1.84,0,2.45,1,1.92,2.54-1.74,5.1,2.83,6.13,5.32,6.3,8.82.58,16.45,4.94,24.81,6.86,1.55.35,4.18.42,3.93,2.89s-2.75,3.15-4.64,2.71c-7.92-1.85-14.93,2.07-22.28,3.4-13.86,2.5-27.06,7.44-39.75,13.54-5.23,2.51-10.2,5.56-15.23,8.46-1.28.73-2.82,1.77-2.83,3.26,0,1.66,2.07,2.39,3.22,2.68,4.24,1.06,8.34,2.48,12.94,0A88.77,88.77,0,0,1,348.73,754c5.81-1.64,13.15-2.06,15.32-9.9.15-.54,1.33-.87,2.08-1.16,8.19-3.15,17.15-2.43,25.46-5a9.65,9.65,0,0,1,3,0c2.51.08,3.66,1.95,2.47,3.64-3,4.23-5.79,9.35-11.4,10.24-9,1.42-17.92,3.23-26.45,6.5-4.42,1.7-9.29,2.91-12.66,7.31,3.63,1.1,6.46-.47,9.44-.52,10.38-.16,20.91,1.46,29.28-8.2,3.91-4.51,11.75-4.59,16.88-8.9,2.76-2.31,6.94-1.57,10,.2,7.11,4.08,15,5.18,22.8,6.5a99.81,99.81,0,0,0,19.32,1.12c6.57-.18,13.09-1.62,19.67-2,12.18-.64,20.49-7.47,27.66-16.39a2.89,2.89,0,0,0,.33-2.83c-.95-3.14,1.45-4.07,3.47-4,7.41.16,15.79-.77,21.44,4.21,6.41,5.67,14.93,4.11,21.31,8.66,1.25.89,2.6,0,3.48-1.15,1.16-1.46-.43-2.06-1.11-2.79-4-4.3-5.83-9.94-9.16-14.66-1.08-1.53-1.69-3.61,1.32-4.62,4.52-1.52,19.11,3,21.16,7.33,1.21,2.56,2.47,3.66,4.81,2.39s1.2-3.31.37-5.19c-.93-2.1-2-4.26-1-6.68,1.21-3-.45-3.12-2.65-2.67a53.44,53.44,0,0,1-9.74,1.56c-2,0-3.29-.58-3.65-2.54-.39-2.12.56-3.49,2.64-4.13C557.3,709.51,560.07,709.62,563.14,709.36ZM234.88,808.63c-5.86,0-11,1.5-16.17,2.35-1.74.28-3.57-.08-4.44-1.62-1.11-2,1-2.5,2.15-3.24,2.21-1.48,4.58-2.7,6.83-4.11,1.15-.72,3.29-.9,2.5-3-.72-1.93-2.2-.54-3.39-.44-3.8.34-7.56.94-10.59-2.55-1.14-1.31-3.27-1.56-5.13-1.52-7.23.13-14.25-1.78-21-3.62s-10.57.86-14.83,4.86c-4.71,4.43-7.75,10.32-12.91,14.3a2.43,2.43,0,0,0-.86,3.06c.48,1.4,1.77,1.34,2.92,1.4,4.47.27,9,.64,13.43.72,18.89.34,37.78.77,56.67.8,7.24,0,15.19.87,19.18-7.73.66-1.43,3.62-2.06,2.88-3.58a7.25,7.25,0,0,0-5.61-3.55,23.85,23.85,0,0,0-8.4.42C234.07,802.53,231.4,803.83,234.88,808.63ZM111,735.28c7.58-1.33,14.08,1.64,21.06,2,10.17.51,20.62,1.56,30,5.86A30.33,30.33,0,0,0,179,746c9.32-1.26,17.68,1.16,25.83,5.11,1.56.75,3.25,1.53,4.75.58a11.67,11.67,0,0,1,11.51-.35c5.8,2.72,11.41,1.11,17.11.62,3.69-.31,4.56-3.18,4.31-6.16s-2.61-3.37-5.18-2.89a45.48,45.48,0,0,1-4.92.69c-4.81.34-9.91,1.28-14.18-1.33-6.17-3.78-12.41-6.2-19.75-5-1,.17-3.25-.27-2.79-1.16,2.13-4.15-1.19-2-2.22-2-7.46.12-14.79-.12-21.34-4.48a12.74,12.74,0,0,0-6.66-1.67C147.1,727.24,129.05,728.75,111,735.28Zm297,51.42a36,36,0,0,1,5.21.3c7.58,1.72,15.84.32,22.81,4.88,1,.66,3,.41,2.69,2.26-.25,1.49-1.69,1.79-3.12,1.9-13.88,1.1-27.61,1.09-40.66-4.85-1.3-.6-2.78-1.48-4.28-.62-1.29.73-3.09,2-1.19,3.34,5.76,4.14,11.42,9.39,18.73,9.68,10.46.41,21.06.36,31.09-3.88,3.05-1.29,6.71-5.1,9.39.76.44.94,1.29.2,2,.12a115.73,115.73,0,0,0,23.39-4.4c1.75-.55,4.16-.37,3.78-2.83-.35-2.23-2.74-1.37-4.23-1.33-8.56.21-17.27-1.2-25.55,2.44-1.54.68-5,2.17-2.88-2.39.64-1.39-.81-2-1.61-2.73-1.35-1.22-2.88-2.25-4.2-3.5C431.31,778.23,417.22,778.23,407.91,786.7ZM307,721.09c-6.92-2.47-14-4.92-20.82-1.9-10.49,4.63-19.64,11.19-23.35,23a4.41,4.41,0,0,1-2.38,3c-2.41,1.09-3.48,3.52-5.09,5.37a3.17,3.17,0,0,0,1.21,5.31c6.26,2.79,20-4.9,20.76-11.83.34-3.21,1.68-5.18,4.34-5.9,6.19-1.69,10.69-6.4,16.58-8.74A16.28,16.28,0,0,0,307,721.09Zm74.24,68.44c4.88,0,8-2.28,6.19-4.41-4.91-5.83-1.14-9.26,2.84-12.83.59-.53,1.62-.72,1.23-1.8s-1.27-1-2.1-1c-3,0-6-.12-9,.15C365.7,771,351.29,776,336.2,773.81a4.25,4.25,0,0,0-2,.13c-2,.77-3.52,2.08-3.2,4.43.3,2.16,1.4,3.57,3.93,3.67a50.17,50.17,0,0,1,7.82,1c9.53,1.92,19.45,1.24,28.79,4.65C374.59,788.76,377.87,789.77,381.27,789.53Zm-93.95-27.19c2.57-1.64,5.64-2.15,8.39-3.86,4-2.52,7.34-6,11.34-8.45,7.48-4.63,16.25-7,23.07-12.79,1.43-1.23,4.07-1.63,3.8-4.15s-2.93-2.26-4.68-2.89c-6.89-2.49-13.07.76-19,3.17-5.77,2.34-12.29,3.87-15.45,10.7a18.8,18.8,0,0,1-10.19,9.64c-1.89.76-4.18,2-3.5,4.76C281.82,761.55,284.88,761.09,287.32,762.34ZM227.2,786.15c7.46-2.12,14.36-5.86,22.25-6,1.24,0,3,.49,3.35-1.28s-1.3-2.5-2.68-3.09a8.18,8.18,0,0,0-6.34-.24c-7.78,3.2-15.57,6.3-24,7.56a3,3,0,0,0-2.4,2.33c-.25,1.23.88,1.87,2,2.54,3.51,2.18,6.95,4.21,11.16,5,8.74,1.72,17.86,1.49,26.18,5.43a7.31,7.31,0,0,0,7.19-.89,40.15,40.15,0,0,1,11.78-5.11c2.18-.63,5.71-1.89,4.94-4.56-.63-2.22-4.05-3.06-6.78-3.33a3.73,3.73,0,0,0-1,.17c-3.61.65-7,1.22-10.1-2-1.19-1.22-3.64-1.34-5.56-1.7a3.78,3.78,0,0,0-3.92,1.71c-1,1.82,1.08,2,2,2.69.63.49,1.59.74,1.39,1.82a1.69,1.69,0,0,1-1.79,1.39C245.62,789,236.37,788.85,227.2,786.15ZM477.45,813.7c-1.85-2.12-5-2.54-6.53-5.06-1.08-1.81-1.81-3.42,1.51-3.45,3.8,0,7.17,1.35,10.43,3,1.2.61,1.66,1.69,1.23,3.33-.84,3.19-.66,3.17,8.58,4.25,2.55.3,3.71-.81,4.2-3a2.93,2.93,0,0,0-.26-1.45c-1.84-5.57-11.26-12.22-17.21-11.75-4.42.35-10.43-.7-12.7,2.85-3.29,5.16-6.53,2.47-10,2.1-6.39-.68-12.72-2.73-19.22-.77-1.26.38-3.07.45-3.11,1.95-.05,1.87,1.87,2,3.31,2.24,4.28.7,8.53,1.32,10.89,5.75.77,1.43,2.49,1.34,4,1.6,7.1,1.19,14.17-.62,21.26-.1A4.24,4.24,0,0,0,477.45,813.7Zm-188.9-26.5c9.18-2.47,18.57-3.33,28-3.85a17,17,0,0,0,4.41-.63c2.31-.77,5.38-1.47,5.44-4.3s-2.71-3.89-5-5c-2.74-1.27-5.18.3-7.72.79-6.92,1.34-13.61,2-20.31-1.54-2.89-1.54-6.49-2.47-10.08-1.12-3.31,1.25-1.93,4.19-2.57,6.4a3.39,3.39,0,0,1-.63,1.34c-2.93,3.07-.09,4.73,1.82,6A10.86,10.86,0,0,0,288.55,787.2Zm37.35,33.26c-1.15-2.49-2.91-4.66-1.16-7.74a3.34,3.34,0,0,0-2.46-4.66c-3.14-.71-6.59-.84-8.75,2-1.41,1.83.56,3.32,2.06,4.36,1.15.8,1.72,1.67.74,2.85-1.36,1.62-7.19.61-7.57-1.5-.9-4.88-3.58-5.19-7.64-4-2.13.64-4.9.74-4.44,3.47.37,2.19,3.2,4.69,5.09,3.86,7.57-3.3,7.1,1.7,7.32,6.34a3.62,3.62,0,0,0,.44,1.42c2.44,4.7,3,9.74,3,14.95,0,6,.79,6.46,6.7,4.77a13.5,13.5,0,0,1,3.42-.47c2.31-.06,4.45-1.21,4-3.38-.79-3.6.51-7.76-2.59-10.76a1.52,1.52,0,0,0-1.4.07c-2.29,1.49-3.92.94-4.09-1.74-.2-3.24-2.7-6.92,1.05-9.66C321.4,819.31,323.38,821.89,325.9,820.46ZM98.64,667c3.88.1,9.25-2.22,6.6,5.08-.09.25.5,1.08.79,1.08,5.78.05,10.59,5.52,16.9,2.92,2.36-1,2.51-1.79.73-3.38-4-3.62-7.51-7.79-11.31-11.6-2-2,0-4.55-2.32-6.27-4.63-3.49-17.63-3.31-22.15.68-.66.58-1.43,1.48-.55,2,5.55,3.26,2,5-1.09,6.67a3.32,3.32,0,0,0-1.64,3.36c.28,1.52,2.1,1.14,3.41,1.23C91.88,669.07,95.18,665.81,98.64,667ZM541.83,797.93c-5.31,0-6.31-1.44-4.25-6.4.6-1.43.35-2.18-.9-2.79-2.88-1.39-5.8-2.32-9.08-1.4-2.69.75-3.52,2.12-1.14,3.94a69.33,69.33,0,0,1,11,11.15,93.9,93.9,0,0,0,6.86,7.76c1.34,1.28,2.86,3.38,5,2.59,2.42-.9,2.82-3.49,3.18-5.82.79-5.1,2.35-9.87,5.95-13.72,2.55-2.73,1.74-4.32-1.53-5.28-4.59-1.34-9.07-.2-13.54.71-1.13.23-2.5.52-2.62,1.88s1.46,1.65,2.4,2.19c1.57.9,3.79,1.54,3.08,3.81C545.6,798.52,543.42,797.8,541.83,797.93ZM111.78,682.06c0-4.17-4.91-8-8.77-6.44-7.63,3.08-15.22,6.26-23,9-2.61.92-3.7,3.12-1.45,5.44,1.78,1.83,2.14,3-.27,4.51-1.23.79-3.26,1.9-1.88,3.92,1.21,1.78,3,.44,4.6.29,1.26-.13,2-1,2.87-1.84,5.41-5.18,11.42-9,19.28-9.16,1.9,0,3.76-1.18,5.68-1.65C111.22,685.53,112.18,684.14,111.78,682.06Zm-7.62,96.81c6.76,2.92,12.83,6.31,14.09,14.47.21,1.34,1.93,2,3.26,1.69,3.86-.9,6.32-3.91,7.92-7.07s0-7.6-1.57-9.29c-2.5-2.71-7-2.78-10.29-6.23s-10.12-3.42-15.69-2.94c-1.4.12-3.12-.13-3.23,2.24,3.54.64,7,1.5,9.6,4.36C107.27,777.63,104.76,776.4,104.16,778.87Zm33-30.24c-4.54-.62-9.3-2-13.14.51-3.06,2-5.59,2-8.76,1.2-3.58-.92-7.25-.24-10.82.28a3.78,3.78,0,0,0-3.21,2.84c-.25,1.4,1.32,1.65,2.21,2.33,2.61,2,5.25,4,7.71,6.13,3.54,3.1,7.69,3.59,12.12,3.29,1.85-.12,3.34-1.29,2.54-2.74-2.29-4.12-.63-5.36,3.27-5.88.71-.1,1.62-1.36,1.82-2.22C131.66,751,134,749.57,137.13,748.63Zm2.41,0c4.31,3.33,2.85,5.12-1.19,6.28-.95.27-1.8.9-2.75,1.12-3.84.88-3.39,3-1.56,5.41a6.33,6.33,0,0,0,5.52,2.86c5.38-.51,10.7-1.54,16.08-2.07,3.25-.32,4.8-2.77,6.71-4.7,1.54-1.56,1.37-3.54-.93-4.36C154.56,750.72,148.22,745.85,139.54,748.63ZM334.06,668.9c.53,2.5-1.57,6.46,2.53,7.87a24,24,0,0,0,16.48-.06c2.52-.93,2.31-2.13.62-3.93a51.24,51.24,0,0,0-15.08-10.94c-2.57-1.24-4.51-.64-4.55,2.72C334.05,665.88,334.06,667.2,334.06,668.9Zm247.7,158.78c-.3-2.47-2.21-2.83-4.51-3.36-3.47-.79-7.83-.26-9.39-4.85-.42-1.21-.45-2.83-2.34-2.67-3,.26-4.58,2.19-5.8,4.81-.66,1.42-1,2.4.42,3.37,4.08,2.79,6.3,7.15,9.27,10.89.56.69.66,1.92,2.08,1.73C573.1,837.37,581.63,829.46,581.76,827.68ZM414.27,767c-1.83,0-3.75-.37-5.46.08-2.95.76-8.71,0-4.21,6.12,1.07,1.47-.52,2.78-1.13,4-1.16,2.39-.39,3.52,2.12,3,5.36-1,10.66-2.24,16-3.27,2.24-.43,2.42-2,2.38-3.71C423.86,768,422.37,767,414.27,767Zm140.05-12.54a13.86,13.86,0,0,0-9.69,4c-4.26,3.78-4.65,10.45-10.56,12.91-1.64.68-1,2.69,1,3,1.8.29,4,.65,5.34-.57,5.37-5,12.89-7.7,16-15.08.51-1.21,3.39-1.18,2-3.23C557.65,754.22,555.82,754.44,554.32,754.46ZM211.73,792.38c1.58-.58,3.38.18,3.94-1.23.7-1.75-1.43-1.86-2.28-2.68-5.39-5.2-12.52-5.94-19.33-7.75-3.63-1-6,.13-8.58,2s-1.74,3.51.6,4.21C194.59,789.45,203.79,788.65,211.73,792.38ZM530,840.26c-7.94-1.48-7.76-1.41-10.09,4.91-1.16,3.13-.56,4.05,2.72,4.4,7.34.79,14.39-1.87,21.67-1.54a2.27,2.27,0,0,0,2.43-2.06c.21-1.29-1-1.61-1.86-2-2.91-1.15-5.88-2.15-8.8-3.27-2.34-.91-3.95-1.15-3.8,2.32.07,1.76-1.37,2.56-3.19,1.93s-3.62-1.33-6.17-2.28Zm29.56-151.49c2.22.07,4.49.14,5.34-2.52.38-1.18-.51-1.85-1.57-2.12-6.08-1.53-12.17-3-18.27-4.51-1.15-.27-2.43-.12-3,1.19s.43,2,1.29,2.88C547.83,688.42,553.89,687.87,559.52,688.77ZM582.8,806.13c0-3.89-4-3.16-6.14-4.5s-2.42,1.19-3,2.5a8.57,8.57,0,0,0-.93,2.83c-.28,2.74-5.21,4.68-2.83,6.88,2,1.83,5.21-1.79,8.08-2.44A5.84,5.84,0,0,0,582.8,806.13Zm-139-32.43c.52-.09,2.32-.33,4.07-.77s4.71-.12,4.85-2.12c.17-2.56-2.22-4.42-4.67-5.14a13.89,13.89,0,0,0-5.85-.34c-3.25.47-3.93,3.73-4.21,6S440.45,774,443.84,773.7Zm134.23,8c.17-1.91-.91-2.59-2.12-2-3.23,1.56-6.85,2.74-8.77,6.08-.57,1,7,7,8.27,6.42C580.55,789.75,575.73,784.7,578.07,781.71Zm-329-13.94c0,1.06-.12,3.12,2.78,3.28,3.57.19,9.94-4.34,9.45-7.07-.39-2.17-2.82-2.65-4.62-2.8C252.44,760.82,249.11,763.48,249.05,767.77Zm182.54,47.56c-4.69-3.94-10.55-5.05-16-7.11-1.22-.47-3.21-1.06-3.86.6-.57,1.46.66,2.65,2.09,3.52C419.31,815.68,425.25,816.26,431.59,815.33ZM216.91,771c-5.86-1.38-11.75-2.61-17.73-1.08-1.6.41-3.25,1.46-3,3.43.26,2.43,2.41,1.81,3.93,1.81C205.92,775.19,210.92,771.41,216.91,771ZM354.27,819.6c2.37-.67,6.65-.7,7.26-4.16.4-2.21-3.53-4.12-6-4s-6.53,0-6.63,4.16C348.83,818.23,350.79,819.6,354.27,819.6Zm19.47-95.32a52.15,52.15,0,0,0-5.59-2.81c-3.6-1.21-7.14-2.73-11-2.77a3.65,3.65,0,0,0-3.57,2.24c-.43.9-.05,1.54.85,2C360.25,725.6,366.23,725.93,373.74,724.28ZM246.82,766.85c0-3.11-2.27-6.07-4.92-5.59-1.94.35-5.06-.37-5.6,2.68-.38,2.13,5.25,7,7.64,7.06C247,771.06,246.74,768.84,246.82,766.85Zm85.74,44.69c.19,2.8,1.13,4.92,4.44,4.76,1.69-.08,7.39-5.54,7-6.86-.77-2.67-3.32-2.75-5.2-2.31C336.31,807.72,332.2,806.73,332.56,811.54ZM530,678.93c2-.06,6.79-5.83,6.77-7.9,0-1.64-.51-3.11-2.24-3.33-2.27-.3-8.87,5.55-8.46,7.42C526.57,677.23,528.26,678.3,530,678.93Zm-405.7,89.85c5.26,4.23,12,3.71,16.21,8.12.63.65,2.44-.11,2.88-1.28a2,2,0,0,0-1.19-2.43C136.6,771.68,132.21,765.78,124.34,768.78ZM467.57,782c-3.69-3.62-7.34-6.87-12.6-6.8-1.2,0-2.38.18-2.91,1.43a1.48,1.48,0,0,0,.74,2.1C457.71,779.93,462.65,781,467.57,782Zm34.19-122.72c4,.69,4.81-3.32,7.4-4.58.82-.4,2.85-1.2,1.27-2.78-1.06-1.06-3.08-1.87-4-.48-1.35,2.13-3.56,2.21-5.32,3.29-1.19.74-3.3,1-2.93,2.83S500.66,658.9,501.76,659.31Zm6.43,19.94c3.25,2.79,6.08,5.25,10.26,3.91,1-.33,3.06.63,3-1.42a3.85,3.85,0,0,0-2.68-3.26C515.25,677.07,512,678.42,508.19,679.25Zm-13.93-26.81c1.44-1.47,3.84-2.77,3.51-4.86s-2.8-3-5-3.1-2.91,1.32-2.68,3.25C490.33,650.11,492,651.35,494.26,652.44ZM211.85,767.32c1.08-1.67,4.19,1.58,4.43-1.6.17-2.4-2.78-3.31-4.74-3.46s-4.74.9-4.5,3.44S210.06,766.31,211.85,767.32Zm39.54-159.1a33.9,33.9,0,0,0-12.11-2.29,1.85,1.85,0,0,0-1.93,1.25,1.07,1.07,0,0,0,.94,1.42C242.37,609.32,246.48,610.49,251.39,608.22ZM553,665.87l.69-.75c-1-1.67-1.85-3.41-2.95-5-.91-1.31-2.34-.9-3.64-.63a1.31,1.31,0,0,0-1.18,1.35,2.61,2.61,0,0,0,1.89,2.59C549.53,664.18,551.23,665.06,553,665.87ZM243.64,597.81c3.53,3.59,4.09,3.74,9,2.5C249.1,596.34,248.94,596.3,243.64,597.81ZM502.53,844c.91.06,2.46.31,2.15-1.45a3.45,3.45,0,0,0-4.26-3.09c-1.2.19-3.06-.37-3,1.62C497.51,844.38,500.37,843.52,502.53,844ZM135.22,677.66c-2.18-1.5-3.57-3.54-6.24-2.23a1.22,1.22,0,0,0-.49,2C130.21,679.31,132.23,679.17,135.22,677.66Z" transform="translate(-18.71 -1)"/><path d="M106,10.05c8.22-2,16.48-3,24.79-.63a14.69,14.69,0,0,0,7.36.33c11-2.36,21.66.25,32.35,2.5,2.89.61,4.78,3.71,8.1,3-.56,2.08.38,3.26,2.27,4,1.35.54,1.35.65,2.29-1.29a2.16,2.16,0,0,1,3-.86c5.5,2.71,11.66,3.9,18,7.74a25.93,25.93,0,0,0-4.59-.15c-1.2.21-1.85,1.4-.56,2,6.35,2.93,12.76,5.73,18.8,9.28.31.19.93-.16,1.39-.26.23-2-1.48-2.89-2.62-4.2,6.23-.27,7.57-1.38,7.42-7.74-.19-8.2,3.08-11.11,12-8.16-5.26,1.19-5.67,5.4-5.38,9.1.66,8.53-2.7,15.66-6,23.18-4.21,9.68-12,15.79-19.53,22.24-.92.78-2.15,1.42-1.55,2.72.72,1.54,2,.22,3.07.24,3.69.07,5.2-3.89,8.62-4.51,1.69-.31,2.6-1,3.07,1.38,1,5,4.74,2.94,7.52,2.36,3.21-.67,5.23-2.33,2.76-6-.64-1-.77-2.51.68-3,3-.95,4.3-2.41,2.37-5.44-.18-.29.12-1.25.17-1.25,4.72.23,2.76-5.57,6.15-6.75,1.9-.66,1-2.3-.17-3.06a45.55,45.55,0,0,0-5.26-2.55c1.28-4.84,3.23-8.75,9.38-7.39,2.16.48,2.48-1.87,3.82-2.67,4.86-2.89,9.93-5.47,13.75-9.91-1.25-1.13-2.3-.29-3.48.22a6,6,0,0,1-6.52-.77c-4.76-3.72-8.43-2.54-10.32,3,.06-2.09-1.16-4.41,1.68-5.94.87-.46.69-.8-2-3.76,3,.09,5.16-.39,8,1.42,3.46,2.22,8,1.37,11.87-.82,11.05-6.25,22.54-5.21,34.09-1.84,5,1.46,6.24,5.46,6.32,10.12s-3.07,6.6-6.59,7.72c-8.56,2.72-17.13,3.64-25.55-1-3.43-1.9-6.42.35-8.93,2.49a67.94,67.94,0,0,0-6.93,7.06c-1.62,1.87-1.79,3.9.57,5.51a69,69,0,0,0,16,8.26,69.81,69.81,0,0,0,31.25,3.53c14.3-1.49,28.55,2.1,42.81,1.33,22.31-1.22,44.62-.14,66.92-.86,5.84-.18,11.49-2,17.1-4.5,9.61-4.24,18.25-9.87,26.87-15.73a2.67,2.67,0,0,1-.87,4c-14.05,9.28-28.47,17.53-45.16,21.56-8.81,2.13-17.63,4.33-26.44,6.54-.78.2-1.77.08-1.89,1.17s.7,1.4,1.4,1.86c5.53,3.64,11.24,3.13,17,.62,1.51-.66,3.26-2.15,4.09.17.9,2.55-1.64,2.81-3.33,3.28-3.66,1-7.54,1.34-10.86,3.46-.94.6-2.43.84-2,2.37.33,1.09,1.5,1.16,2.54,1.13,5.85-.19,11.23-.93,16.24-5a63.28,63.28,0,0,1,15.58-9.4c1.42-.57,3.86-.87,3-3.08-.59-1.61-2.62-.68-4.05-.49-.59.08-1.17.74-2.48-.89,12.18-2.19,22.58-8.61,35.54-10.74C447.3,64.81,441,68.22,434.5,71.8c-9,4.94-19.24,7.23-27.3,14.44-4.89,4.36-12.34,4.61-19,4.76a37.84,37.84,0,0,0-25.44,10.31c6.46,2.82,12.47-.21,18.44-.47,20.77-.91,40.9-6,60.95-11.06C463,84.52,482.1,75,501,64.91c7.09-3.79,12.39-9.78,19.29-13.82,3.4-2,5.64-6.26,7.91-9.81C530,38.5,533,37.39,535,35a1.71,1.71,0,1,1,2.6,2.22c-1.58,2.33-2.86,5-5,6.78-3.76,3.12-7.62,6-10.36,10.19a9.85,9.85,0,0,1-5.4,4.27c-1.26.35-3,.69-2.59,2.41s2,2.06,3.54,2.07q8,0,16,0c5.17,0,10.34,0,15.5,0,2,0,4.21.62,4.19,2.61,0,2.24-3,2.29-4.25,2-9.24-2.09-18.14.89-27.17,1.55-5.17.38-10.31.16-15.46.35A22,22,0,0,0,494.2,73.7c-8.74,6.19-18.78,9.8-28.87,13.28-15.69,5.41-31.65,9.94-48,12.41C406.87,101,396.63,104,386,104.49c-4.34.21-4.94,1.5-3,5.29,1.08,2.13,4.71,3.85,3,6.28-2.9,4.27-3.83,9.73-8.7,12.92-6.49,4.26-13.21,7.41-21,8.31a10.32,10.32,0,0,0-4.57,1.88,6.33,6.33,0,0,0-2.81,6c.31,2.72,2.66,2.62,4.57,2.84,10.2,1.16,20.45,1.67,30.55,3.83,14.3,3.07,29.16,3.37,42.38,11.19,9,5.34,19.71,6.86,29.62,10.21,19.37,6.56,37.27,15.83,52.73,29.17,8,6.88,16.06,14,20.32,24.36,2,4.81,6,8.54,7.94,13.65,1.35,3.53,1.64,7,2.4,10.53a183.69,183.69,0,0,1,3.61,26.28c.38,5.75-2.43,11.14-5.48,15.64-14.62,21.57-35.22,35.8-58.71,46.31-7.31,3.27-15,5.12-22.62,7.48a8.78,8.78,0,0,1-2.45.34c-2,0-5,1.11-5.58-1.5-.57-2.38,2.21-3.46,4.17-4.23,4.94-1.94,8.41-6.36,14-7.94-1.31,3.66-5.65,3.45-7.28,6.45,1.92,2.24,4.09.44,5.85,0A52.58,52.58,0,0,0,483,330.71c8.83-6.51,17.2-13.26,23.42-22.59,3-4.43,5-9.26,7.86-13.68.84-1.3,0-2.29-.9-2-8.67,2.76-10.5-4.51-12-9.44-4.41-14.17-13.74-23.94-25-32.77-18.82-14.73-41.19-19.11-63.8-23-1.2-.2-2.57.43-3.82.81a2.42,2.42,0,0,0-1.47,1.07c-.37,1,.66,1.31,1.32,1.76,3,2.08,6.63,2.08,10,2.7,15,2.7,30.08,5.49,43.43,13.08,7.4,4.21,15.14,8.34,19.82,16.63,3.33,5.9,6.74,11.84,10.36,17.63,5,8.06,1.69,27.24-5.41,33.45-2.32,2-3.2,5-5.38,7.23-3.55,3.71-6.61,7.54-12.13,8.71a5.67,5.67,0,0,1,2.75-5c7-4.07,9.84-11.18,12.72-17.87,2.4-5.56,1.91-12,2-18.13.16-9.06-2.59-17.66-8.76-24-8-8.19-16.71-15.65-28-19.62a186.53,186.53,0,0,0-33.18-8.24c-5.81-.9-11.63-.5-17.42-.28-2.19.09-4.69,1.4-4.49,4.39.26,3.91-2.3,4.32-5.12,4.45-2.16.09-4.37-.24-6.49.09-3,.47-6.21.45-5.81,5.44.25,3.1-2.71,5.69-5.24,7.5-6,4.35-12.4,8.2-19.86,9.72a12.36,12.36,0,0,0-1.93.47c-2.77,1-6.25,1.63-5.48,5.77.62,3.36,5.54,5.58,8.94,3.53,9.86-5.91,20.28-3.35,30.48-2.38,5.48.52,10.92.72,16.39.87,1.75,0,3.66-.53,6.23,1.62-8.11,2.91-15.86,0-23.15,2.12,4.67-.47,9.09.76,13.73,1.78-.06,2.25-2,2.56-3.29,3.29-1.71,1-1.92,1.65-2.25,4-.83,5.9,2.43,4.78,5.35,4.61,6.76-.41,13.41,2.4,20.18.69,3.38-.85,6.68-2,10.06-2.79,2.47-.59,3.75.42,3.51,3.16-.61,6.95,1.11,13.76,1.24,20.71A268.07,268.07,0,0,1,430.74,350c-.4,3.72-2.69,4.94-6.4,3.68-9.1-3.09-18.31-5.89-27.38-9.09-8.2-2.9-16.46-.36-24.67-.51-3-.06-4.63,2.62-1.39,5,7,5.05,11.78,12.5,19.39,16.77,1.58.89,3.6,1.89,3,4s-2.68,2.09-4.6,2.11c-25.8.25-51.58-1.17-77.38-1.23-10.25,0-20.42-.26-30.59,1.05-1.17.15-2.39.36-2.87-1.16-.43-1.36.29-2,1.33-2.84,3.94-3,7.61-6.46,11.68-9.3,2.41-1.68,4.49-2.89,4.35-6.43-.12-3.05,2.4-2.42,4.42-2,1.12.22,2.45.54,3-.93.4-1.13-.57-1.77-1.33-2.42-1.77-1.54-3.49-3-6.09-3-9.2-.13-18.17.26-26.87,4.12-5.38,2.4-11.37,3.45-17.08,5.13-2.21.65-4.46,1.15-6.3,2.79a6.31,6.31,0,0,1-7,.85c-2.58-1.16-.83-3.5-.62-5.3,1.6-13.61.56-27.12-1.71-40.54-1.19-7-.73-14-1.46-21-.41-4,2.5-4.54,5.32-3.28,12.59,5.66,26,8.91,38.94,13.49a19,19,0,0,0,13.64-.4c4.5-1.73,5.17-4.9,1.23-7.59-6.21-4.25-10.91-10.53-18.15-13.37-.75-.3-1.55-.82-1.33-1.85.31-1.5,1.54-1.56,2.73-1.56l19,0c7,0,14,0,21,0a28.21,28.21,0,0,0,4.92-.57c1.87-.36,3.92-1.39,3.84-3.24-.07-1.59-2.28-2.19-3.95-2.54-9-1.84-17.61-4.51-23.68-12.16-1.49-1.88-2.95-3.71-2.11-6.25,1.29-3.9-1.37-4.69-4.11-5.13a38.56,38.56,0,0,0-6-.09c-3.89,0-7-.2-8.83-5.08-2.14-5.77-10.37-7.89-17.95-6-7.85,2-15.77,3.71-23.55,6-8.23,2.36-16,5.93-23.67,9.79a72.5,72.5,0,0,0-21.8,17.37c-2.7,3.07-6.24,7.12-6.09,13.29.17,6.8,1.08,13.84-.29,20.7-.07.32-.17.82,0,1,3.42,3.24,3.05,9,7.07,11.58,6.22,4,9.1,10.86,14.33,15.68-7.48-5.33-16-9.07-20.45-18.3-1.9-3.91-4.19-8-6.12-12-2.78-5.72-2.14-12.4-.17-18.42a100.76,100.76,0,0,1,6.66-15.74,21.25,21.25,0,0,1,5.51-6.14c18.83-15.79,41.34-23.15,65-27.88,2.12-.43,5.61-.43,5.29-3.26-.25-2.28-3.6-2-5.61-1.66q-10,1.89-19.88,4.31c-16.14,4-31.7,9.67-45.14,19.51-8.56,6.28-17.13,13.59-20,24.34-1.29,4.84-4.3,9.33-3.82,14.75s-1.11,6.71-7.54,4.84c-3.49-1-6.83-2.54-10.23-3.85-1.7-.65-3.44-.64-4.53.86s.56,2.47,1.33,3.37c6.89,8,14.16,15.45,23,21.53,10.72,7.34,22.45,12.78,33.52,19.41,4.2,2.52,9,4.87,14.58,2.51,2-.82,4.67,1.24,6.22,3,1.28,1.48.32,2.78-1.67,3-4.31.42-8.86,1-12.83-.55-13.09-5-26.4-9.44-38.66-16.55-8.9-5.16-18.1-10-25.66-16.83-6.17-5.58-12.7-11.08-17.14-18.42a48.75,48.75,0,0,0-7-9.05c-2.67-2.7-4.68-5.79-1.16-9.43a3.85,3.85,0,0,0,.89-3.75c-1.92-6.94,0-13.43,2-19.95,2.51-8.25,5.34-16.32,9.74-23.83,1.92-3.28,5.2-5.23,7.08-8.3,10.55-17.21,27.13-26.21,44.56-34.89s35.45-14.49,54-19.75c15.58-4.43,31.25-8.27,47.13-11.18,12.1-2.22,24.46-2,36.73-2.5,3.73-.15,7.84,0,9.32-4.84,1-3.29.76-5.7-3.17-7a63.62,63.62,0,0,1-10-4.38c-6.78-3.55-7.35-15.32,1.91-19.59a43.16,43.16,0,0,0,5.24-2.8c3.25-2.07,2-3.93-.74-4.84A73,73,0,0,0,312.63,103c-15.79-2.78-31.64-5.51-46.7-11.09-8.6-3.19-17.58-5.73-25.3-11.15-1.44-1-4.26-2.37-6-.6-1.45,1.49-.61,3.6.7,5.4,1.13,1.56,1.2,3.94,0,5.19-1.71,1.84-4.53,2.14-6.9,1.56a40.54,40.54,0,0,1-12.66-5.46c-3.16-2.1-6.34-2.08-9.52-1.27-6.87,1.74-13.83,3.4-20.84,2.21-5.06-.86-10.76.38-15.06-3.85-5.42-5.35-4.19-11.2,2.77-14.22a28.66,28.66,0,0,1,20.67-1c3.93,1.22,13.66-4.85,13.45-8.69-.25-4.33-4.29-6.21-7.61-8.17-5.64-3.33-12-5.64-16.05-11.19L194,44.85c1,.39,2.11.62,2.62-.42s-.5-1.73-1.17-2.49c-1.14-1.31-2.79-1-4.16-1.33-2-.54-3.34-1.22-3.18-3.52,1.83,0,3.67-.18,5.49-.06,2.43.17,2.84-2,3.82-3.33.23-.32-.64-1.79-1.33-2.33-1.66-1.32-2.55.09-3.64,1.19-1.78,1.8-3.49,2.1-4.19-1-.37-1.66-1.43-2.11-2.93-1.91-.87.11-1.75.45-1.7,1.45a2.87,2.87,0,0,0,2.2,2.94c1.42.37,2.39,1.13,2,2.81-3.1-.52-4.11,1.16-4.13,3.9-2.31,1-3.82-.79-5.41-1.74-5.18-3.07-10.71-5.43-16.16-8.31,3-.18,5.63-4.75,9-.1,1.34,1.88,3.89,0,5.55-.64,3.19-1.2,6-3.45,9.86-2.55-3.53-2.65-7.24-3.86-11.34-2.22-2.5,1-4.45,0-6.59-.94-2.39-1-4.88-.33-7.57-.41,1.07,2.5,4.3.22,4.82,2.89-5.86,4.32-12.13,2.38-17.53-.2-7.78-3.71-15.63-4-23.89-3.71A83.33,83.33,0,0,0,106.71,25c-1.06.27-2.66.1-2.43,1.77s1.81,1.08,2.85,1.12a51.85,51.85,0,0,0,7.48,0c6.5-.72,12.35,1.34,18.32,3.45,4,1.42,5.68,4.13,6,8,.27,3.62-1.78,5.77-5.11,6.81-5,1.57-4.4,6.57-3.27,9,1.46,3.15-.75,5.47.1,8.17.43,1.37-1.14,1.74-2.37,1.83a10.45,10.45,0,0,1-7.12-1.57c-9-6.16-19.47-8.7-29.76-11.77-7.43-2.22-14.51-5.51-19.92-11.47-4.09-4.51-4.08-11.81,1.66-17.2A47.2,47.2,0,0,1,106.16,9.92a4.07,4.07,0,0,1-3.06,2.17c-8.82,2-17,5.43-23.34,12.1-2.42,2.55-6.3,5.44-4.65,9.4A27.71,27.71,0,0,0,92.13,49c10,3.41,19.78,7.16,29.58,11,1.87.73,3.55,1.34,4.94-.38,1.54-1.89,1.63-4.79.07-6-5.14-3.94-.44-5.13,1.66-6.84,1.88-1.52,4.32-2.37,6.16-3.93,2.18-1.84,2.81-4.3.58-6.64-8.15-8.55-18.75-7-28.89-6.49-2.4.12-5.77,2.18-5.85,5.25-.08,2.9,3.2,3.28,5.5,4.18,1.27.49,3-.32,4.15,1.56-2.88.46-5.59.8-8.06-.07-4.66-1.64-9-3.95-14.18-4.21-1.58-.09-4.17-.86-4.33-3.43-.43-7.25,6.36-11.56,13.13-8.39,3.46,1.62,7.47.65,7.3-2-.31-4.48,1.18-7.34,5.46-8.76a1.68,1.68,0,0,0,1.39-1.81c-.15-1.13-1.17-1-1.91-1.2C107.89,10.6,107,10.33,106,10.05Zm206.58,66.3c-3.3-.53-5.92-2.47-8.81-3.94a20.85,20.85,0,0,0-13.27-2.33c3.65,2.91,6.53,5,9.16,7.36a29.52,29.52,0,0,0,23.94,7.74c1.1-.12,2-.59,2.14-1.69.2-1.39-.68-2.16-1.95-2.39-2.11-.39-4.39-.34-6.3-1.15s-5.38.17-5.1-3.73c2.28-.55,4.18.59,6.18,1.35a13,13,0,0,0,10.49-.52,3.43,3.43,0,0,0,2-3.18c.11-1.32-.71-1.77-1.8-1.82-7.77-.3-15.42-2.69-24.21-1.62a46.58,46.58,0,0,1,4.47,2.75A34.2,34.2,0,0,1,312.59,76.35ZM265,196.9a9,9,0,0,0-.51-3.28c-2.06-4.53-3.06-9.35-4.49-14.06-1.72-5.69-3.1-12-11-13.15-3.38-.47-5.43,1.15-8.16,2.09-7.85,2.71-15.19,6.88-23.82,7.64-4.06.36-8.95,1.23-12.2,3.54-8.92,6.33-18.93,10.51-28.59,15.17-13.21,6.37-22.35,17.22-32.88,26.6a5.59,5.59,0,0,0-1.65,3c-1.2,4.49-4.07,8.34-6.16,12.31A82.77,82.77,0,0,0,130.35,249c-1.59,4.79-1.36,10.28-2.71,15.4s2.76,9.17,3.42,14c.05.36.69.73,1.14.92,5.2,2.17,10.38,4.38,15.64,6.41,1.29.5,3.16,1.06,3.93-.69.64-1.45-.69-2.31-1.87-3.08-1.47-.95-2.57-2.32-1.69-4.18,4.94-10.43,10.28-20.51,18.12-29.26,8.31-9.28,17.67-16.26,30.19-18.29,1.26-.21,1.26-1.24,1.85-1.91,1.54-1.75,2.71-4.66,5.57-4.14,7.46,1.35,12.06-5.91,19.27-6,2.65,0,5.82-1.56,8.88-1.75,3.48-.21,7-.61,9.41-3.31,1.65-1.87,2.9-2.53,4.95-.87,1,.8,2.84,1.09,2.45-.57-1-4.24,2-2.68,3.64-2.84C261.18,208,265,204.74,265,196.9Zm248.37,80.57c-.27,8.25,1,9.1,6.35,6.76,2.12-.93,4.12-2.14,6.23-3.1,5.73-2.62,8.31-6.45,5.38-11.66-3.5-6.23-3.33-13-5.33-19.43-3.18-10.18-5.61-20.51-16.06-26.46-2.45-1.4-4.57-4.2-6.71-6.48-8.66-9.21-18-17.52-29.26-23.53a233.84,233.84,0,0,0-48-18.7c-5.75-1.6-9.92,1.28-12.32,6.74-2.63,6-3.75,12.59-7.77,18-1.51,2.05-4.48,4.68-.05,7.24,1.29.75-.1,1.56-.78,2.24a6.26,6.26,0,0,0-1.44,5.38c.48,1.88,3.24,1.64,5.25,1.61a21.49,21.49,0,0,1,4.47.24c10.92,2.22,21.74,5.45,33,1.56,2.09-.72,5.93-1.1,5.81,2.36-.12,3.76,5.62,4,3.88,8,.62.18,1.25.34,1.86.55,4.73,1.61,9.43,1.82,14.09-.26,1.32-.59,2.7-1,3,1,.2,1.25,2.87,1.7.92,3.66-4.16,4.18-.36,3.58,2.34,3.84,5.68.56,10.41,2.8,15.06,6.46,3.61,2.83,4.77,6.95,7.78,9.8C508.9,260.63,512.83,269.58,513.38,277.47ZM257.81,76.05c-2.92,0-5.25,0-7.58,0-1.95,0-4.95.34-5.17,1.71-.42,2.69,2.47,2.88,4.57,3.4a18.62,18.62,0,0,1,3.17,1.43c7.36,3.4,14.66,7.21,22.68,8.65,11.71,2.11,22.73,6.76,34.75,8,9,.93,18,2.49,27,3.33,17.07,1.6,30.28-7,40.94-19.82a2.38,2.38,0,0,0-.49-3.85c-3.41-2.36-6.9-4.75-11.47-3.33a22.36,22.36,0,0,1-14-.45,18.13,18.13,0,0,0-12.22.57c-7.74,2.88-9.18,7.24-3.26,12.71,1.8,1.67,2.38,2.73-1,3.87s-5.9-.23-8.79-.41c-7-.44-14.12-.35-20.64-3.31a253.8,253.8,0,0,1-26.24-14.24c-1.79-1.08-4.34-3.41-6.3-1.84C268.69,76.55,262.94,75.89,257.81,76.05Zm47.82,123.2c1,1.48,2.87,2.95,2.69,4.1-1.32,8.37,6.16,11.05,10.65,13.08a46,46,0,0,0,23.71,3.8c11.66-1.26,22.7-3.42,26.64-16.85.27-.92,1.07-1.16,1.83-1.5,3-1.35,6.05-2.51,8.82-4.65a5.81,5.81,0,0,0,2.67-4.7c.07-1.2-1-1.69-2.09-1.56-2,.24-4.18.64-4.47,3.1-.56,4.69-3,4.54-6.23,2.69a4.74,4.74,0,0,0-3.34-.25c-6.12.89-12.21,1-18.18-1.1-1.85-.63-4.6-.52-4.74-2.85-.17-2.82,2.85-3.36,4.9-4.25,1.15-.49,2.61-.3,3.93-.38,4.5-.3,8.92.56,13.39.79,2.85.14,7.34.7,2.87-4.32-.41-.47-.84-.68-.25-1.5,3-4.14-.16-3.84-3-4.17-6.78-.77-13.61.05-20.29-.33-13.15-.75-26.27,0-39.39-.42-1.74,0-4.31-.24-4.51,1.94-.25,2.64,2.74,2.22,4.4,3,.56.26,1.33,0,2,.11,2.77.43,6.24,0,8.14,1.55,4,3.25,8.52,3.2,13.06,3.33a13.11,13.11,0,0,1,6.13,1.71c1.45.78,3.78,1.22,3.5,3-.3,2-2.84,2.3-4.53,2.41-5.92.4-11.61,2.32-17.67,2.15C312.86,197.08,309.05,197.36,305.63,199.25Zm66.7,86.6a8.64,8.64,0,0,0-5.09-2.09c-10.75-1.69-21.57-.56-32.36-.78-9.64-.19-19.3-.05-28.95,0-1.5,0-3.25-.11-3.87,1.57s.93,2.66,2.05,3.62c1.5,1.29,3,2.6,4.61,3.76,2.44,1.77,5.81,3.62,5.25,6.63-.45,2.42-1.56,5.55-5.07,7.15l6.18.84c-1.86,2.29-2.54,4.87-5.33,5.48-1.12.25-2.58.79-2.15,2.2.52,1.69,2.38,1.15,3.45.87a66.07,66.07,0,0,1,13.19-2.19c2.86-.17,3.55-3.27,5.14-5s-.71-2.79-1.76-4-.91-2.59.21-4a13.92,13.92,0,0,1,11.95-5.39c3,.11,6-.18,9,.07a23,23,0,0,0,16.37-4.39C367.2,288.63,368.39,285.86,372.33,285.85Zm-37.11,77.94c8.42,0,15.25,0,22.08,0,2.65,0,5.31.28,7.9-.74,2.24-.88,2.29-1.8,1.46-4.13-1.75-4.92-6.72-5.33-9.94-8.1-3.43-2.94-7.24-5.49-11.93-5.37-8.49.21-17.83-2.77-24.27,6.06-.67.92-2.31,1.3-3.58,1.59-4,.94-7.07,3.56-10.33,5.85-1.06.75-1.77,1.52-1.52,2.84.32,1.72,1.81,1.07,2.83,1.25C317.51,364.76,327.18,363.22,335.22,363.79ZM332.4,116.16c1.7,2-3.3,2.6-.77,3.79,3.05,1.44,1.92,3.22,1.66,5.28-.9,7.21.43,12.56,3.47,15.09,4.16-5.46,7.61-11.11,16.14-11s14.15-8.8,11.73-17.17c-.9-3.11-2.72-5.31-6-6s-4.89.82-6.87,3.43c-1.8,2.37-5.07,5.94-8.38.74-.38-.6-1.78-.66-2.73-.78-4.74-.55-9.28.75-13.69,2-2.3.68-4.82,2.42-4.5,5.73.2,2,.7,3.65,2.89,1.4C327.42,116.6,330.06,116.69,332.4,116.16Zm-68,203c2.84.79,4.81,1.61,6.7.88,3.76-1.45,7.47-2.83,11.6-1.6.82.25,1.51-.32,2.2-.87,3.88-3.07,7.93-5.3,13-2.43.79.45,1.95.26,2.94.36a1.18,1.18,0,0,0,1.48-.94c.23-1-4.29-6.24-5.39-6.1-3.34.4-7.42,1.08-9.17,3.34-3.92,5-8.82.65-12.89,2.44-1,.42-1.6-.81-1.23-2,1.27-4.17-1.61-5.79-4.62-7a125.12,125.12,0,0,0-12.26-4c-3.27-.88-5.06,1.26-4,4.46a7.73,7.73,0,0,0,6.59,5.34c1.45.24,3.21-.12,3,2.25-.2,1.94-1,3-3.24,2.71-3.41-.4-5.66,1.22-5.65,4.66,0,6.4.4,12.8.66,19.19a2.23,2.23,0,0,0,1.77,2.12c2.36.8,12.47-3.61,12.79-6C269.4,330.45,269.27,324.9,264.44,319.16Zm126.29-5.46c-6.25,0-6.22,0-4.94-5.92a5.52,5.52,0,0,0-.73-4.3c-3.88,2.89-10,.62-13,5.77-.94,1.62-2.22,3.41-4.49,3.59-1.51.12-3.57.08-3.26,2,.36,2.22,2.67,1.15,4.16,1.28a4.75,4.75,0,0,0,1.89-.56c4.68-1.72,8.95-1.63,13,1.88,2.9,2.51,9.95,2.51,12.46-.19,3.06-3.29,5.78-1.55,8.47-.18,3.06,1.55,5.78,4.28,5.11,7.75-.63,3.25-.72,6.6-1.67,9.75-.61,2-1.54,3.74.7,5.27a6.89,6.89,0,0,0,6.65.77c2.18-.85,2.47-2.84,2.46-5,0-3.83,0-7.65.17-11.47.07-2.09-.56-3.54-2.74-4.08-4.94-1.21-5.67-3.06-1-6,1.69-1.07,1.34-3.25,1.57-4.93.14-1-1.37-1.4-2.37-1.19-5.3,1.07-11,.48-15.73,3.78A9.39,9.39,0,0,1,390.73,313.7ZM272.59,23.48c-2.3,3.54-5,6.36-.22,8.32a47.86,47.86,0,0,0,5.72,1.59c1.28.34,2.07-.28,1.85-1.48-.43-2.32,1.82-4.08,1.36-6.15-.72-3.28,1.53-1.83,2.5-1.62,1.36.29,1.89,1.7,2.48,2.92s1.28,2.11,2.68,1.13c.91-.64,2-1.21,1.52-2.75-1.23-3.66-2.89-7.61-6.88-8.13-5.71-.75-11.59-.3-17.39-.26a3.52,3.52,0,0,0-3.16,2.78c-.57,1.88,1.86.65,2.28,1.72a2.5,2.5,0,0,1,0,.91c-1.24,1.14-2.41-1.05-3.66-.12C262.25,28.43,262.25,28.43,272.59,23.48Zm51.9,234.6c2.56-.36,4.89.54,5.47-2.41.69-3.55-3.34-10.51-7-10.87-6.22-.61-12.5-.61-18.76-.67a3,3,0,0,0-3.15,2c-.43,1.59.74,2.52,1.78,3.26C309.55,254.14,317.34,256.17,324.49,258.08ZM195.68,73.69c-.32-2.73-2.28-3.85-3.39-3.87-5.2-.1-10.5-1.53-15.59,1-2.32,1.17-4.56,2.43-4.79,5.1-.27,3.16,2,5.25,4.49,6.65,7.43,4.23,19.63,3.3,27.92-2.26-6.59.32-12.63,2-18.09-.25C186.86,74.22,190.62,72.78,195.68,73.69Zm92.39,90.73c.35-3.18-.32-4.23-2.59-4.24-3.89,0-7.4,1.65-11.16,2.21-1.77.27-3.66,10.26-2.1,11,3.06,1.42,3.53,4.18,4.54,6.77s2.44,3.12,4.29.83C285.23,175.8,285.11,168.87,288.07,164.42Zm60.63,94.06c5.87-2.18,11.75-4.32,17.58-6.57a7.17,7.17,0,0,0,2.34-1.83,2.61,2.61,0,0,0,1-2.66c-.38-1.07-1.4-1.28-2.45-1.35-4.29-.27-8.59-.74-12.89-.82-7.35-.14-8,.87-9.43,8C344.1,257,345.17,258,348.7,258.48Zm-32.82-19.69a22.26,22.26,0,0,0,7.91-.89c1.68-.42,2.92-1.32,1.08-3-4-3.68.47-3.39,2-3.69,2-.4,4-.77,3.84-3-.11-2-2.51-1.55-3.93-2.14-4.62-1.91-9.53.42-14.15-1-1.72-.51-3.25-.8-4.62.55a1.87,1.87,0,0,0-.38,2.67c1.16,1.51,2.69,1.6,4.47,1.31,2-.32,4.62-.34,4.88,2.11.29,2.77-2.69,1.55-4.16,2.23-1.63.76-4.83-.11-4.42,2.75.33,2.29,3.07,2,5.05,2.06C314.08,238.8,314.74,238.79,315.88,238.79ZM318.2,67.48l-.11,1.61c4.21.38,8.43,1.2,12.62,1,8.39-.3,16.75.09,25.22-.91,7.18-.84,14.83.18,22.28.25,1.28,0,3.17.26,3.28-1.38.12-1.91-1.72-2.18-3.29-2-6.7.55-13.63-1.5-20.09,1.85a3.79,3.79,0,0,1-2.92.09c-7.32-3.36-15-1.39-22.57-1.85C327.67,65.83,323,67.17,318.2,67.48Zm70.35,94.37c-2.61,0-5.55.47-4.28,3.64,1.81,4.52,2.54,9.19,3.69,13.82a3.33,3.33,0,0,0,3.57,2.77,3.79,3.79,0,0,0,4.07-2.89c.67-2.22,2-4.56,2-6.57,0-3.08,2.9-7.28-1.79-9.3C393.57,162.37,391,162.31,388.55,161.85ZM365,236.46a21.4,21.4,0,0,1-3.68-1.31c-1.84-1.1-5.64.5-5.55-2.59.07-2.18,3.45-2.56,5.66-3.16a2.11,2.11,0,0,0,.48-.12c.93-.64,3.13.09,2.66-1.95a2.83,2.83,0,0,0-3.08-2.05c-4.37.48-8.83.8-12.65,4.29a20.15,20.15,0,0,1,2.5,1c.94.53,2.53.45,2.5,2,0,1.78-1.71,1.75-2.88,2.19a8.35,8.35,0,0,1-1.92.43c-1,.13-2.29,0-2.47,1.17-.22,1.46,1.24,1.83,2.29,2.11A20.87,20.87,0,0,0,365,236.46Zm12.84-7.52c-5.4-.25-7.78,3.39-5.64,8.32.25.58.68,1.32.51,1.8-.67,1.78-.54,3,1.7,2.91,1.92-.07,4.56.84,4.66-2.49,0-1.62,1.55-2.08,2-3.22,1.15-2.58,6.55-2.37,5.19-5.53S380.47,230.53,377.87,228.94Zm-78.81,5.35c0-1.45.33-3.35-1.15-3.62a57.89,57.89,0,0,0-10.83-.92,1.94,1.94,0,0,0-1.33,3.3c2.12,2.59,5.77,4,5.94,8.09,0,.19,1,.62,1.16.5C295.33,239.49,299.59,238.79,299.06,234.29ZM150.76,23.08c-1.13-7.28-5.91-8.89-12-8.61-1.91.09-4.3.2-4.28,2.34a4.13,4.13,0,0,0,4.17,4.09C142.87,20.76,146.79,21.89,150.76,23.08Zm185.29,153c2.64-.26,5.7-.87,5.63-4.84,0-2.79-1.65-4.71-4.76-4.45-3.51.29-5.87,1.82-6,5.81C330.79,176.17,333.19,176,336.05,176.08ZM219.4,83c1.3,0,2.79.19,3.51-1.24s-.14-2.53-1.27-3.35A2.24,2.24,0,0,1,220.45,76c.28-3.3-2.21-2.79-3.77-1.86a13.43,13.43,0,0,1-7,1.93c-1,0-2.28.08-2.29,1.32s1.25,1.46,2.25,1.35c2.88-.31,5.1.47,6.61,3.15C216.83,82.93,218.19,83,219.4,83ZM296,222.82a40,40,0,0,0-16.33-2.51,2.55,2.55,0,0,0-2.64,2.49c0,1.45,1.48,1.66,2.66,1.63C285.17,224.3,290.68,225.25,296,222.82Zm94.8.67c-4.64-4.46-10.27-3.31-15.67-3.22a2.31,2.31,0,0,0-2.16,2.38c.19,1.74,1.82,1.79,3.08,1.74C381,224.17,385.92,223.8,390.84,223.49Zm-111.38-9.35a15.45,15.45,0,0,0,17.8-.4C291,211,285.27,212.66,279.46,214.14Zm15.62-21.81c.22-1.59-.68-3.18-3.24-3-2.27.13-4.46.93-4.32,3.74.16,3.15,2.49,5.81,5.05,5.84C294.79,198.9,294.91,195.44,295.08,192.33Zm23.51-25.8a6.17,6.17,0,0,0-4.23,5.09c-.25,2.57,1.92,4.08,4.48,4.39,2.19.27,3.9-1.19,3.77-3A8,8,0,0,0,318.59,166.53Zm71.76,48.22-.11-.59c-4.41-.4-8.81-.85-13.23-1.17-1.48-.1-3.42.07-3.46,1.92a2.81,2.81,0,0,0,3.51,2.65C381.52,216.81,385.92,215.71,390.35,214.75Zm-93-6.53c-5.31-4.29-11-4.11-14.17.42C288,208.64,292.38,209.28,297.39,208.22Zm82.88.58c1,0,1.64,0,2.3,0,1.56-.07,4,.36,4.08-1.53.11-2.48-2.45-2-4.17-2a10.8,10.8,0,0,0-2,0c-1.92.28-5.23-.92-5.14,2C375.48,210.36,378.87,208,380.27,208.8Zm-73.63-36.68c-.75-2.48-2.94-2.87-5-3.14-2.33-.3-2.64,1.37-2.55,3.18.09,2,.75,3.88,3,3.62C304,175.56,306.31,174.91,306.64,172.12Zm47.61-3c-2,.63-3.24,1.64-3.32,3.84-.08,2.69,2,2.84,3.64,3a2.59,2.59,0,0,0,2.91-3.12A3.87,3.87,0,0,0,354.25,169.17Zm-149-119.73c-1.15-.14-2.61-.92-2.53.66.14,2.75,3,2.46,4.69,3.37,1.09.58,2.52.47,2.48-1.23C209.81,48.83,206.41,50.76,205.26,49.44ZM253.77,69.9c3.23,2.66,5.57,2,7.77,2,.85,0,1.88-.21,1.78-1.17a2.24,2.24,0,0,0-1.57-1.53C259.55,69.24,257.36,69.56,253.77,69.9Zm-7.35.23c-2.32.12-4.39.14-6.44.35a1.49,1.49,0,0,0-1.4,1.71c.2,1.06,1.28,1.08,2,.81C242.46,72.23,244.75,72.28,246.42,70.13Z" transform="translate(-18.71 -1)"/><path d="M453.22,506v-8.5c0-2.31-.52-4.86,3.27-4.65,2.05.12,1.72-1.7,1.69-2.93-.39-16.62-.85-33.25-1.26-49.87-.1-4.33-.09-8.67-.09-13,0-1.78-.07-3.56-2.51-3.3-3.19.33-3.54-1.45-3.38-3.95.39-6.16-1.54-12.2-1-18.39.18-2,.19-3.4,2.87-3.54,14.75-.78,29.45-2.16,44.25-1.92,3.71.06,4.75,1.07,4.81,4.79.2,12.3.74,24.6,1.38,36.89.19,3.56-1,4.47-4.47,4.42-8.8-.14-8.78,0-8.81-9,0-2-.16-4-.3-6-.24-3.41-1.89-4.5-5.43-4.33-6.82.34-6.83.08-6.76,7.09a33.77,33.77,0,0,1,0,4.5c-.64,5.15,0,8.95,6.75,7.63,1.93-.38,2.29.87,2.57,2.66,1.25,7.8.46,15.63.7,23.44.08,2.6-1.31,3.22-3.42,2.86-4.45-.75-5.37,1.43-5.08,5.35a119.83,119.83,0,0,1,.06,12c-.08,2.8,1.09,3.69,3.86,3.76,8.41.21,8.89-.14,8.88-8.66a101.83,101.83,0,0,0-.15-10.49c-.25-2.48.54-3.19,2.84-3.44,10.28-1.12,10.63-1,10.48,9.31-.17,12,1.57,23.88,1.08,35.87-.12,2.92-.66,4.12-3.83,4.14-14.65.11-29.3.32-43.94.73-3.88.11-5.53-1-5.11-5A83,83,0,0,0,453.22,506Z" transform="translate(-18.71 -1)"/><path d="M229.05,499.72c0,6.66-.14,13.32.07,20,.1,3.34-.89,4.53-4.41,4.89-10.48,1.06-21,.32-31.42.64-4.31.13-8.6.52-12.9.82-2.53.18-3.63-.9-3.6-3.48.07-6.49,0-13,0-19.48,0-1.52,0-3.4,2.07-3.33,3.8.13,3.67-2.16,3.67-4.88-.06-20,0-40,0-59.95,0-2.4.79-5.21-3.42-4.89-2,.15-1.57-1.81-1.58-3-.05-6.5.07-13-.06-19.49-.05-2.73.8-3.85,3.7-3.78,14.29.33,28.55-1.29,42.85-.86,3.19.09,4.2.92,4.27,4.21.29,12.79-1,25.61.65,38.38.25,2-.61,3-2.74,3.31-9,1.42-10.24.48-10.24-8.58v-2c-.12-11.09.81-8.38-9.07-8.74-2.76-.1-3.95.81-3.73,3.68a45.37,45.37,0,0,1,0,8c-.54,5.15,0,9,6.77,7.71,1.94-.37,2.58.89,2.58,2.7,0,7.66,0,15.32,0,23,0,3.53-2.26,3.71-4.7,3.38-3.84-.53-5,1-4.7,4.73a83,83,0,0,1,0,11.48c-.2,3.17,1.08,3.88,4,3.9,8.79.06,8.79.18,8.78-8.52,0-1.17,0-2.34,0-3.5,0-9.75,0-9.52,9.87-10.09,3.22-.18,3.24,1.14,3.23,3.33Q229,489.48,229.05,499.72Z" transform="translate(-18.71 -1)"/><path d="M358.22,507.71v-7.5c0-2.93-.79-6.4,4.18-5.82.9.11,1.38-.49,1.63-1.47,1.2-4.64-1.77-8.52-6.58-8.49H353c-5.25,0-7.77,3.53-6.11,8.5.11.3.16.84.33.88,9.35,2.39,4.25,10.28,4.94,15.18,1.81,12.89,1,13-12,13-11.86,0-11.86,0-11.86-12.09,0-3.17,0-6.33,0-9.5,0-2.51-.34-5.21,3.51-5.28,1.69,0,1.33-1.55,1.49-2.65q4.54-31.43,9.1-62.84c.18-1.26.82-3.22-.92-3.34-4.89-.34-3.5-4.32-3.73-6.68-.51-5.12-.1-10.32-.19-15.48-.05-2.69.92-3.92,3.76-4,10.31-.14,20.62-.36,30.93-.73,3.34-.13,4.75.76,4.68,4.42-.1,6-.58,12,.43,17.95.31,1.85-.36,3.39-2.61,3.32-3.11-.09-2.89,1.55-2.53,3.89,2.58,17,5.72,33.94,9,50.83.6,3.09.79,6.26,1.36,9.36.4,2.2.34,4.83,3.49,5.33,1.24.19,1.3,1.22,1.49,2.25,1.28,7.11.52,14.29.71,21.43,0,1.79-.84,2.7-2.73,2.77q-11.67.43-23.35,1c-2.78.14-4-1-3.92-3.79.08-3.5,0-7,0-10.5Zm-2.7-75.48c-1.41,7.8-3.7,15.37-3.79,23.32-.05,3.85,2.36,3.16,4.63,3.24,3.29.13,2.81-2,2.51-4Q357.21,443.5,355.52,432.23Z" transform="translate(-18.71 -1)"/><path d="M548.86,434.58c.46,16.92,2.47,33.78,2.1,50.73-.06,2.71.6,5.09,4.07,5,2.14-.08,2.42,1.24,2.47,2.88.23,6.81.42,13.62.73,20.42.12,2.47-.72,3.16-3.29,3.59-8.07,1.36-16.23.59-24.32,1.45-3.18.35-5.06-1.12-4.76-5,.5-6.44-1.47-12.84-.87-19.34.16-1.71-.09-3.43,2.51-3.18,3.06.3,3.61-1.62,3.46-4.11-.87-14.38-1.83-28.76-2.56-43.15-.31-6.15-.16-12.32-.17-18.48,0-2.31,0-4.62-3.29-4.19-3,.39-2.25,2.56-2.16,4.61.25,5.48.5,11,.35,16.45-.14,4.92-4.43,3.24-7.12,3.76-2.28.44-4.14-.05-4.25-3.25-.48-14.43-1.13-28.84-1.78-43.26-.12-2.64.1-4.14,3.58-4.32,15.47-.78,30.94-.47,46.41-.68,3.31,0,4,1,4.18,4.21.64,13.21,1.71,26.41,2.55,39.62.14,2.25.95,5.23-1.49,6.38-2.85,1.35-6.22.76-9.31.19-1.07-.19-.68-1.69-.89-2.63-1.23-5.74-1-11.57-.92-17.37,0-2.32-.43-4.06-3.25-3.75-2.64.3-2.29,2-2.07,4A85.39,85.39,0,0,1,548.86,434.58Z" transform="translate(-18.71 -1)"/><path d="M147,404.49c7,0,14,.12,21-.08,2.26-.06,3,.61,3,2.72q0,19.74,0,39.48c0,2.54-1,3.72-3.57,3.58-.33,0-.66,0-1,0-8.17.29-8.17.29-8.17-8,0-1.5,0-3,0-4.49,0-7.36-2.69-9.33-9.86-7.34a2.91,2.91,0,0,0-2.46,3.14c-.16,4.28.41,8.56-.5,12.88-.61,2.86,2.2,2.56,3.81,2.31,5-.78,6.16,1.37,5.88,6-.4,6.81-.28,13.66,0,20.48.15,3.77-1.33,5.35-4.88,4.94-4.28-.49-5.64,1.36-5.25,5.43a67.41,67.41,0,0,1,0,9c-.12,2.85-.22,5.38,3.88,5.06,2.18-.17,2.08,1.68,2.08,3.18,0,7,0,14,0,21,0,1.88-.25,3.32-2.64,3.15-8.67-.61-17.19.91-25.74,1.84-3.74.41-5.5-1.28-5-4.8,1-6.63.59-13.27.65-19.91,0-2,.57-3.29,2.82-3,3,.42,3.07-1.43,3.07-3.62,0-20.66,0-41.31-.08-62,0-1.17.69-3.38-1.07-3.31-5.16.2-3.81-3.38-3.86-6.07-.1-5.16.33-10.36-.14-15.48-.41-4.52,1.58-6,5.54-6,7.49,0,15,0,22.48,0Z" transform="translate(-18.71 -1)"/><path d="M606.76,440.52c1.59-6.59,3-12.5,4.5-18.38.22-.84.69-1.94-.16-2.14-5.77-1.36-3.54-6.29-4.15-9.66-.81-4.54.36-9.28-.86-13.9-.56-2.12.48-3.49,2.93-3.48,5.66,0,11.33,0,17-.1,2.59-.05,3,1.52,3,3.55.09,5.64-.19,11.27.86,16.89.45,2.4,1,5.51-2.92,6.29-1.2.24-.9,1.61-1.16,2.53-3.85,14.05-8.42,27.95-11.26,42.2-1.38,6.91.43,14.47.92,21.72.11,1.51.78,3,2.82,2.74,4-.51,4.18,2,4.24,5,.11,5.8.22,11.62.74,17.4.3,3.38-1.47,4.67-4.13,4.75-9.15.24-18.31.25-27.47.23-2.66,0-2.27-2.63-2.42-4.08-.36-3.63-.11-7.31-.21-11a43.42,43.42,0,0,0-.54-5.92c-.51-3.15-.51-5.88,3.82-5.59,2.83.19,2.79-1.59,2.67-3.53-.57-9.89-.82-19.72-5-29.13-4.86-11.06-8.88-22.51-13.28-33.78-.3-.77-.62-2-1.15-2.14-6.15-1.44-3.81-6.74-4.49-10.37s.52-7.79-.33-11.42c-1.22-5.22,1.17-5.44,5.15-5.45,7.1,0,14.22-.32,21.3-.83,3.7-.26,5.22,1.19,5.27,4.69.09,6.15-.29,12.31.68,18.43.07.48.18,1.23-.07,1.46-6.7,6.07.41,11.43,1,17.1C604.24,436.4,605.63,438.11,606.76,440.52Z" transform="translate(-18.71 -1)"/><path d="M286.58,517.78c1.16,6.71-2.69,6-6.15,6-4.27.05-3.63-3-3.63-5.57,0-11,.07-22-.06-33,0-3.18.64-5,4.29-5.15,3.3-.16,4.49.67,5.15,4.17,1,5.45,2.06,11.19,7,15,3.84,3,7.25,2.15,9-2.4,2.13-5.56.51-12.17-4.92-14.61-13.72-6.17-18.68-17.75-20-31.34s-1.06-27.33,5.13-40.05c3.24-6.65,7.63-11.9,16.23-11.4,3.6.21,6.08,4.46,8,3.85,2.69-.85,5.09-2.47,8.25-2.31,2.37.12,2.65,1.32,2.69,3.2.22,10.81-.56,21.64.67,32.43.55,4.87-3.67,3.2-5.87,4.1-2.55,1-3.47-.7-4-3a53.42,53.42,0,0,0-2.23-7.12c-1.39-3.56-3.77-5.71-8-5.47-3,.17-4.15,2.2-4.68,4.43a8.19,8.19,0,0,0,3.48,9.18c2.58,1.76,5.3,3.33,8,4.86,10,5.63,14.28,14.73,15.88,25.57a84,84,0,0,1-4.56,42.53c-3.29,8.72-9.69,13.76-16.59,13.41C294.71,524.91,291.29,521.64,286.58,517.78Z" transform="translate(-18.71 -1)"/><path d="M430.7,398c3.42.41,9.58-2.14,12.57,1,2.72,2.84.61,8.89.77,13.52.3,8.94,1.3,17.85,1.06,26.83-.09,3.37-.82,4.61-4.42,4.54-10.78-.21-8.69.08-8.88-8.87a31.94,31.94,0,0,1,0-5c.64-4.38-1-5.85-5.47-5.61-6.42.34-6.43.05-6.37,6.5a78.82,78.82,0,0,1,0,8c-.33,3.8,1.35,5,4.66,3.7,3.54-1.37,4,.12,4.55,3.28,1.43,7.95.41,15.91.89,23.83.21,3.48-1.28,4.55-4.35,4.06-4.22-.69-5.15,1.41-4.8,5.1.25,2.64-.08,5.33.08,8,.18,2.89-1.68,7.3,4.37,6.31,1.23-.21,1.29,1.18,1.41,2.19.89,7.12.71,14.27.73,21.43,0,2.56-1,3.45-3.54,3.49-8.3.14-16.62-.65-24.89.74-2.43.42-3.81-.7-3.83-3.27q-.11-10.49-.23-21c0-1.38.43-2.41,1.94-2.22,3.46.42,3.1-1.82,3.1-4.05-.05-11.65.5-23.34-.21-34.95-.56-9.13-.66-18.24-.77-27.36,0-1.6-.06-3.13-2.27-3-3,.21-3.59-1.64-3.58-4.11,0-6,.09-12,0-18,0-2.48.69-3.56,3.36-3.66C407.49,399.07,418.39,397.67,430.7,398Z" transform="translate(-18.71 -1)"/><path d="M70.93,496.92c0,10,0,19.93,0,29.9,0,2.18-.53,3.5-3,3.38-15-.74-29.79,2.48-44.78,1.82-3.44-.15-4.86-.49-4.31-4.78.79-6.23.22-12.64.26-19,0-1.61-.36-3.63,2.2-3.57,3.68.09,3.71-2.21,3.77-5,.3-16,1.2-31.9,1-47.88-.05-4.43.93-8.89.72-13.39-.06-1.52.07-3.31-2.12-3.18-3.82.23-3.83-2.2-3.71-4.87.3-6.64.62-13.27.82-19.91,0-2,.91-2.61,2.74-2.57A209.32,209.32,0,0,0,50.9,407c3-.31,4,1,4.16,4,.34,6.84-.89,13.58-1,20.38,0,2.18-1.34,2.54-2.94,2.34-3.47-.42-3.63,1.55-3.65,4.24q-.23,25.2-.7,50.41c-.07,3.65-.42,7.3-.83,10.92-.39,3.41,1.46,4.05,4.16,3.62s6.59,1.74,6.68-3.43c.08-4.5.24-9,0-13.5-.19-2.94.89-4.34,3.67-4.55s5.3-.19,7.94-.41,3.6.73,3.5,3.39c-.17,4.16,0,8.33,0,12.49Z" transform="translate(-18.71 -1)"/><path d="M76.79,516.52c0-2.83,0-5.65,0-8.48,0-2.59-.66-5.5,3.71-5.29,1.93.1,1.93-1.87,2-3.41.92-20.94.7-41.9.7-62.85,0-1.5.12-3.45-1.92-3.43-3.76,0-3.88-2.29-3.78-5,.24-6.47.53-12.94.71-19.41.06-1.89.8-2.6,2.7-2.65,8.78-.26,17.59.64,26.37-.72,3.25-.51,3.7,2.23,3.62,4.68-.24,6.6-.62,13.18-.91,19.77-.06,1.33-.36,2.35-1.94,2.19-4.07-.44-4,2.2-4,5.08,0,11.15.13,22.31,0,33.46-.11,8.79-.49,17.58-.84,26.37-.1,2.64.12,4.6,3.61,4.24,2.64-.27,3.54,1.42,3.21,3.8a145.35,145.35,0,0,0-.94,21.37c0,1.6-.59,2.51-2.31,2.45-8.82-.3-17.55,1.07-26.32,1.52-2.88.14-3.82-1-3.67-3.74C76.93,523.19,76.79,519.85,76.79,516.52Z" transform="translate(-18.71 -1)"/><path d="M534.55,627.66c-1.14-5.37-8.2-11-13.42-10.67-3.23.23-5.31,4.26-3.84,7.63.52,1.16,1.69,2,1.19,3.94-3.12-.63-6.3-2.65-9.43-1.49-8.91,3.28-18.08,1.07-27.11,1.7-5.52.39-4.22,4.28-3.9,7.47s-1.78,5.78-4.79,5.66c-1.52-.06-1.55-1.13-1.29-2.08,1.38-5.15-.71-10-5.28-11.8-1.5-.59-3.66-.78-3.45-2.76.17-1.68,2.39-1.72,3.73-1.94q10.23-1.73,20.53-3c2.33-.29,4.62-.5,6.69-1.69-2.6-3.72,4-6.3,1.23-10.1a7.7,7.7,0,0,1-1.32-4.73c0-1.73,0-3.4,2.14-4,1.89-.49,4.19-.56,4.91,1.24,2,5.1,6.23,3.8,9.71,3.34,3.33-.44,6.52-.5,9.11,1.37,5.63,4.06,12.93,2.22,18.77,5.78,1.53.93,4.83-.47,7.06-1.39,7.59-3.14,15.47-3.54,23.49-3.19,1.81.08,4.09-.21,4.54,2,.5,2.49-1.84,3.23-3.65,3.94-9.83,3.82-19.26,8.8-30,10C537.4,623.24,535,624.28,534.55,627.66Z" transform="translate(-18.71 -1)"/><path d="M525.81,579.57a36,36,0,0,1,4.14,5.66c3.1,5,7.29,5.31,10.18.08,3.15-5.72,8-8.53,13.63-10.85,3.67-1.53,7.2-3.36,10.82-5,2.07-.94,4.33-1.34,6,.42,2.14,2.21-.54,3.63-1.53,5a49.47,49.47,0,0,1-13.11,13c5.41,2.44,10.11.82,14.76.81,2.64,0,6.7-.9,7.57,2,1,3.41-2.75,4.71-5.49,6-12,5.41-24.88,6.56-37.48,4.84-5.11-.7-9.71-6.4-15.08-8.9a16,16,0,0,1-7.1-5.83c-1.64-2.49-4-4.46-2.49-8,.66-1.52-1.06-2.08-1.92-3-1.59-1.78-3.88-3.88-1.94-6.48s4.74-.93,6.71.27A97.44,97.44,0,0,1,522,576c-.44.46-.6.76-.85.86-1.74.74-4.64-1-5.26,1.34s2.51,2.68,3.87,4C524.24,586.57,523.27,579.67,525.81,579.57Z" transform="translate(-18.71 -1)"/><path d="M386.67,598.31c8.12.09,15-3.19,21.82.25a2.44,2.44,0,0,0,3.22-1.63c.58-1.53-.7-2-1.61-2.69-.53-.38-1.26-.46-1.82-.8-2.38-1.42-6.23-1.21-5.22-6.12.3-1.46-1.42-4.17-3.12-6-2.56-2.72-.91-4.44,2.07-5.13,1.27-.29,2.95-.58,3.94,0,6.11,3.6,13.5,4.71,18.91,9.52,3.44,3.06,8.66,3.87,10.84,8.37a23.57,23.57,0,0,0,8,9.33c-11-1.07-20,6.12-30.37,6.75-3.39.2-8,4-9.34-2.77-5.47.2-7-4.36-9.65-7.71C392.9,597.94,390.18,599,386.67,598.31Z" transform="translate(-18.71 -1)"/><path d="M486.79,614.07c-9.92-4.47-18.64-.73-27.29,3.74-3.12,1.62-6.61,2.09-10.08,2.45-5.91.61-11.82,1.21-17.74,1.71-2.15.18-5.18,0-5.64-1.94-.52-2.17,2.33-3.14,4.28-4a44.31,44.31,0,0,1,23.8-3.89c6.06.73,9.32-4.67,14.59-5.56,1.68-.28.15-1.74-.78-2.39-5-3.47-9.71-7.33-14.43-11.19-3.31-2.7-3.38-6.64-4.94-10-.54-1.16.83-2.34,2.92-2.12,3.85.39,6.82,2.31,9.81,4.44,7.13,5.12,11.19,12.86,16.68,19.38C480.7,607.94,483.76,610.88,486.79,614.07Z" transform="translate(-18.71 -1)"/><path d="M101.56,592.92c-3.37-.37-7-.3-9-4-.47-.86-1.27-.93-2.09-1.09-12.25-2.4-22.22-9.53-32.63-15.74-1.68-1-4.21-2.34-3.36-4.18.73-1.58,3.35-1.8,5.76-1.39,4.42.75,8.65,2.1,13,3.17,3,.73,4.85,2.48,3.25,5.82-1.16,2.42.07,3.17,2.07,4,3.51,1.41,6.82,3.24,10.83,1.62,1.63-.65,3.27.4,4.77,1,2.48,1,4.7,1.25,7-.59a5.31,5.31,0,0,1,5.65-.83,2.75,2.75,0,0,0,3.52-1c1-1.32,1.28-3.34.23-4.16-3-2.36-1-3.65.76-4.82,2.39-1.59,5.19-2,7.36.14,2.54,2.51,2.12,9.12-.69,11.72-3.41,3.15-7.07,6-10.67,9A6.82,6.82,0,0,1,101.56,592.92Z" transform="translate(-18.71 -1)"/><path d="M322.31,566c2.23-6.65,4.83-7.92,10.09-4.8,3.59,2.13,6.18,3.44,9.68-.57a5.76,5.76,0,0,1,8.16-.31c.88.84,2.7,1.45,1.79,3.08s-2.49,1.3-3.87.38c-.54-.36-1-.81-1.7-.35,2.64,6.36,2.44,6.76-4.51,8.86-1.66.5-2.95,1.15-3.07,3.25-.06,1.1-1.13,1.6-2.26,1.24s-.76-1.18-.83-2c-.14-1.69,3-3.23,0-5.11-3.3-2.08-5.94-5.51-10.54-4.37Z" transform="translate(-18.71 -1)"/><path d="M525.1,21c-5.49,7.33-13.48,8-20.69,9.87a155,155,0,0,1-24.26,4.83c-6.3.62-12.76-.49-19.12,1.09a28.25,28.25,0,0,0-4.51,1.73c1.42-4.42,4-6.59,9-6.46a165.4,165.4,0,0,0,30.66-1.87C505.93,28.63,514.9,24.31,525.1,21Z" transform="translate(-18.71 -1)"/><path d="M565.08,536.87c19,1.44,38-2.38,57-.1,0,.53,0,1.07,0,1.6h-57C565.1,537.87,565.09,537.37,565.08,536.87Z" transform="translate(-18.71 -1)"/><path d="M305.25,590.29c2.57-.95,6.27.46,10,1.15,1.06.19,3.06.65,2.2,2.5-.69,1.49-2.1,2.94-3.94,1.3-2.69-2.4-5.54-1.56-8.44-.77-.32.08-.61.27-.93.34-3.41.68-6.63.15-8.91-2.55-1-1.16,3.13-8.91,4.8-9.75,1-.49,2-.7,2.67.3.95,1.41-.21,2.46-.93,3.54-.61.92-3,.95-1.52,2.88C301.13,590.48,302.23,591.5,305.25,590.29Z" transform="translate(-18.71 -1)"/><path d="M323.6,573.25c-3.6,5.52-4,10.56,1.27,15.15-8.34.09-12.5-2.87-12.31-8.41C312.74,574.7,315.65,572.78,323.6,573.25Z" transform="translate(-18.71 -1)"/><path d="M185.64,590.35c-3.2,1.44-5.58,3-7.23,5.31-2.16,3-5,2-7,.83-2.72-1.59-1.43-4.84-1.2-7.31.25-2.87,2.89-2.08,4.75-2.17C178.63,586.84,182.14,587.35,185.64,590.35Z" transform="translate(-18.71 -1)"/><path d="M292.43,571.19c2.1-2.88,7.73.59,7.12-5.35-.05-.52,1.76-.87,2.19-.33,3.71,4.67,9.55,2.57,14.29,4.5-.69,1.75-2,2-3.5,2a23.39,23.39,0,0,0-12.85,3C295.46,577.36,294.63,573,292.43,571.19Z" transform="translate(-18.71 -1)"/><path d="M54.49,587.94c5.11-1.34,9.1-2.17,12.7-.72a46.13,46.13,0,0,0,17.46,3c1.1,0,2.6-.16,2.23,1.68a1.7,1.7,0,0,1-2.17,1.43c-9.11-1.35-18.23-2.6-27.34-3.94C56.78,589.36,56.25,588.88,54.49,587.94Z" transform="translate(-18.71 -1)"/><path d="M201.87,849.62l-4-.84c-2.68-.57-6.05-1.77-5.42-4.52.54-2.39,4.27-2.47,6.92-2.17a11.18,11.18,0,0,1,3.75,1.19c1.72.87,5.24-.16,4.77,3C207.43,849.32,204.05,848.82,201.87,849.62Z" transform="translate(-18.71 -1)"/><path d="M62,778a8.17,8.17,0,0,1,1,0c2,.29,5.2-.9,5.43,1.78.25,3-2.42,4.84-5.51,5.35a6.92,6.92,0,0,1-2,.06c-2.93-.4-6.66-.67-6.62-4.38s3.8-2.51,6.2-2.8A12.35,12.35,0,0,1,62,778Z" transform="translate(-18.71 -1)"/><path d="M454.43,627.86c2.64.91,5.7,1.13,5.6,5.14-.09,3.52-2.55,5.09-5.14,4.63-3.06-.54-6.1-3.18-6.28-6.22C448.45,628.71,452,628.43,454.43,627.86Z" transform="translate(-18.71 -1)"/><path d="M669.31,538.35H632.87c0-.33,0-.66,0-1h36.51Z" transform="translate(-18.71 -1)"/><path d="M600.24,798.7c2.12.43,4.55-.28,4.72,2.75s-2.13,3.69-4.23,3.58a68.11,68.11,0,0,1-9.67-1.57c-.45-.09-.94-.88-1.09-1.43-.28-1,.51-1.44,1.36-1.61Z" transform="translate(-18.71 -1)"/><path d="M236.47,623c-6.71,2.76-12-1.76-17.83-2.41l.16-.57c3.68,3,2.9-9.68,8-2.22C229,621,233.85,619.47,236.47,623Z" transform="translate(-18.71 -1)"/><path d="M262.33,687.62c10.14-3.71,18.54,0,27.08,2.52C280.61,691.05,272.12,688.56,262.33,687.62Z" transform="translate(-18.71 -1)"/><path d="M66.37,722.93c-3.68,0-7.1,0-10.52,0-1.61,0-3-.35-3.14-2.36-.09-1.76.93-2.75,2.46-3.32C58.57,716,64.24,718.67,66.37,722.93Z" transform="translate(-18.71 -1)"/><path d="M64.92,660.09a8,8,0,0,1-2.1-.43c-1.48-.52-3.88-.94-3.38-2.82.56-2.06,2.91-2.54,5-2.09a12.74,12.74,0,0,1,2.75,1.18c1.25.59,3.51.53,3.17,2.36S68,660.31,64.92,660.09Z" transform="translate(-18.71 -1)"/><path d="M80,603.54a2.72,2.72,0,0,1,0,.49,1.47,1.47,0,0,1-2.34.93c-2.47-1.81-5.88-2.9-6.64-6.22-.33-1.46,1.6-1.79,3-1.64C76.43,597.37,80.14,601.34,80,603.54Z" transform="translate(-18.71 -1)"/><path d="M388.94,610.57c-.88,2.15-3.37,2-5.48,2.23-1.62.18-3.22-1-2.88-2.6.68-3.09,3.91-2.46,6.07-3.06C388.42,606.65,389.14,608.28,388.94,610.57Z" transform="translate(-18.71 -1)"/><path d="M513.16,632.9c-3.62,3.45-7.23,2.08-10.77,1a1.83,1.83,0,0,1-1-1.4,1.64,1.64,0,0,1,1.8-1.33C506.38,631.25,509.77,630.37,513.16,632.9Z" transform="translate(-18.71 -1)"/><path d="M420.7,636.13c-3.36.37-4-2.09-4.64-4.51a1.67,1.67,0,0,1,1.44-2.19,6.46,6.46,0,0,1,5.87,3c1.17,2.06-2.06,2.33-2.82,3.82Z" transform="translate(-18.71 -1)"/><path d="M89.09,756.52c-3.15,1.61-5.92,3.12-9.23,1.61-.89-.4-2-.66-1.83-1.94s1.34-1.5,2.3-1.54C83.28,754.52,86,755.47,89.09,756.52Z" transform="translate(-18.71 -1)"/><path d="M270.77,598.61c2.62-2.32,3.82-5.87,7.85-5.63.91,0,2.17-.45,2.57.7a1.85,1.85,0,0,1-1.27,2.37C277,596.69,274.51,599.11,270.77,598.61Z" transform="translate(-18.71 -1)"/><path d="M94.15,608.33c-4.69,2.69-8.18,2.15-11.69,1-.83-.28-1.53-.8-1.33-1.8.35-1.7,1.5-.68,2.32-.57C86.56,607.3,89.65,607.73,94.15,608.33Z" transform="translate(-18.71 -1)"/><path d="M498.11,594.85a2.66,2.66,0,0,1-3,2.5c-1.32-.08-3-.78-2.86-2.62s1.65-1.84,3.05-1.74C496.53,593.08,498.18,592.49,498.11,594.85Z" transform="translate(-18.71 -1)"/><path d="M279.67,682.66c4.79-2.59,8.18-1.5,12.86,0Z" transform="translate(-18.71 -1)"/><path d="M193.73,812c-2.47-.37-5.3-1.35-5.06-3.83.3-3.08,3.39-4.11,6.38-4.34,3.17-.25,4.22,2.09,4.24,4.39C199.31,811.77,195.86,811.1,193.73,812Z" transform="translate(-18.71 -1)"/><path d="M97.71,659.91c1.23-1.7,3-1.12,4.5-1,1.8.08,5.1-.91,5,1.21-.09,3.08-3.44,1.89-5.56,1.93C100.05,662,98.47,661.76,97.71,659.91Z" transform="translate(-18.71 -1)"/><path d="M527.57,764.45c-3.58-2.91-8.55-.08-12.33-3.26,2.46-2.62,5.17-4.34,8.88-2.49,2.3,1.15,5.2,2.16,3.36,5.82Z" transform="translate(-18.71 -1)"/><path d="M440.34,213c-4.07.67-5.88,4.06-9.42,4-.92,0-2.11.26-2.32-1.14a1.57,1.57,0,0,1,1.24-1.86C432.93,213.25,435.71,210.75,440.34,213Z" transform="translate(-18.71 -1)"/><path d="M342.56,209.53c3.26,2.22,7.16.94,10.75,2.12-7.86,6-22.73,7.42-31,3-.86-.46-2.05-.8-1.94-2s1.28-1.35,2.23-1.65c2.73-.85,6.37-.92,3.83-5.63-.67-1.22.92-2.38,2.43-2.4,6.73-.06,13.45-.05,20.18-.06,1.49,0,2.89.66,2.9,2.13,0,1.65-1.69,1.86-3,1.86C346.48,207,344.06,207,342.56,209.53Z" transform="translate(-18.71 -1)"/><path d="M123.43,37c-.1,1.88-1.69,1.54-2.89,1.7-1.62.2-3-.18-3.42-2-.41-2,1.1-2.14,2.44-2.15C121.27,34.57,122.88,34.92,123.43,37Z" transform="translate(-18.71 -1)"/><path d="M114.25,46.79H100.64v-.86h13.64Z" transform="translate(-18.71 -1)"/></g></g></svg>