<svg xmlns="http://www.w3.org/2000/svg" viewBox="0 0 867.19 877.19"><title>magic</title><g id="Layer_2" data-name="Layer 2"><g id="Layer_1-2" data-name="Layer 1"><path d="M868,440q0,216.75.09,433.5c0,3.75-.84,4.59-4.59,4.59q-429-.15-858,0c-3.75,0-4.59-.84-4.59-4.59q.15-434,0-868C.91,1.75,1.75.91,5.5.91q429,.15,858,0c3.75,0,4.6.84,4.59,4.59Q867.93,222.75,868,440ZM255.94,359.71a23.58,23.58,0,0,0,1.6-2.12c13-22.58,26.37-45,40.34-67,2.93-4.61,3.76-4.64,6.62.14,7.07,11.85,14,23.8,21.17,35.57s13.69,23.6,20.07,35.66c1.43,2.71.7,3.63-2.12,3.69-3.16.07-6.32.35-9.48.31q-35.1-.51-70.21-1.12c-2.49,0-5.25.55-7.41-.32-3.92-1.59-4.17,1.4-3.13,2.84,3.36,4.66-1,9.58.27,13,2.3,6.06.23,11.11-.39,16.58-.06.62,0,1.63.39,1.86,3.54,2.22,1.39,5,.7,7.47-2.07,7.38,1.75,15-.93,22.28-.08.23.16.66.36.9,1.94,2.44,1.33,5.14.37,7.59-1.47,3.76-1.07,7.55-.6,11.31.67,5.33-1.48,11,1.84,16.05a2.16,2.16,0,0,1-.3,1.87c-2.42,3.49-3,6.91.08,10.34a1.09,1.09,0,0,1-.14,1.73c-2.8,1.92-1.64,4.81-1.84,7.35-.73,9.76,1.52,19.51.07,29.29-.22,1.44-.42,3.57.37,4.34,2.6,2.5.94,4.65.38,7.19-.72,3.26-2.85,7,1.51,9.66,1.67,1-.08,1.89-.49,2.83-1.55,3.54-3.57,8-1,10.8,2.38,2.61,1.2,3.79.39,5.8-.5,1.21-1.35,2.66-1.07,3.75,1.57,6.1,2.15,12.09,0,18.21-.35,1-.28,2.83,1.66,3.06,1.5.18,1.82-1,2.42-2q6.8-11.58,13.7-23.08c8.91-14.79,17.92-29.53,26.78-44.35,1.92-3.19,3.21-3.16,5.33-.14,3.67,5.2,6.21,11,9.58,16.37,10.73,17,21.27,34.11,31.15,51.62,3.49,6.18,2.66,7.68-4.67,7.91-7.81.25-15.66-.77-23.41-.55-15.47.43-30.9-.79-46.35-.25-4.14.14-8.37.59-12.42-.68-2.19-.68-2.3.61-3,2.09-2.25,4.91.11,9.28,1.29,14.18,3-2,5.79-.94,8.91-.61,7.23.76,14.6-1,21.91.37a1.74,1.74,0,0,0,1.26-.69c1.36-1.73,3-1,4.55-.56,4.5,1.29,8.93,2.45,13.56.21a5.83,5.83,0,0,1,3.92.13c7.68,2.55,15.62-1.24,23.29,1,.27.08.64-.14,1-.25,7.36-2.54,15,1.86,22.38-.87.36-.14.95.22,1.4.43a13.13,13.13,0,0,0,8.34.54c7.21-1.49,14.54-.28,21.69-.21,7.5.08,15.15-1.49,22.66.42,1.14.29,2.61-.3,3.82-.75a9.4,9.4,0,0,1,5.36,0c8.08,1.53,16.29-.84,24.39.74a1.53,1.53,0,0,0,.93-.33,8.44,8.44,0,0,1,8.14-.17,7.11,7.11,0,0,0,4.88.51c8.3-2.42,16.56.66,24.83,0,2.24-.19,4-.51,4.09-3.2.26-6.52.61-13.06-7.21-18.26,7.43,1,7.32-2.67,7.3-6.78-.11-25.49-.07-51,0-76.46,0-2.1-1-5.4.91-6,3.3-1.1,6.53-3.44,10.45-2.23,8.11,2.5,16.48-.86,24.66,1,.65.14,1.47-.77,2.27-.92a6.82,6.82,0,0,1,3.41-.23c8,2.95,16.27-1.14,24.24,1.34.81.25,1.93-.37,2.87-.67a9,9,0,0,1,5.88.08,13.61,13.61,0,0,0,9.25-.13,9.45,9.45,0,0,1,6.36-.09c3.56,1.21,7,.61,10.71.18,4-.47,4.23-2.23,4.22-5.37q-.1-48.49,0-97c0-2.89-.22-5-4.43-5.31,3.18-1.24,4.48-2.78,4.46-5.93-.16-30.32-.12-60.65-.07-91,0-3-.1-5.12-4.11-5.14-1.65,0-4.52,0-5.19-3.27,2.8.22,5.67-3.23,7.82,1.24,2.53-4,1.46-5.38-2.75-5.21-4.66.19-9.33.16-14,.14-1.63,0-3.26-.31-2.11,2.23.3.66.2,1.47-.5,1.65a2.29,2.29,0,0,1-1.73-.62c-4.44-4.11-7.11-4.45-12.63-1.41-2.09,1.16-4.56,1.36-6.12-.09-3-2.78-6.18-1.86-9.37-1.41-2.79.4-5.25,1.32-8.3-.13-1.9-.9-5.19-1.41-7.24,1.43a3,3,0,0,1-4.49.25c-2.58-2.27-5.54-1.94-8.51-1.94-8.83,0-17.66.06-26.49,0-3.51,0-7-.3-10,2-1,.78-2.63,1.33-3.6,0-2.57-3.57-5.69-2.67-8.4-.77a5.19,5.19,0,0,1-6.45.07c-1.86-1.39-3.63-1.4-5.58-1.32a79.62,79.62,0,0,1-11.35,0c-3.42-.34-6.92-.52-10,2-1.21,1-3.43,1.4-4.55-.22-1.46-2.11-3.39-1.93-5.32-1.74-8.5.81-17.16.59-25.55.7-7.58.1-15.67-.55-23.44-.63-35.81-.39-71.64,0-107.45-.24-4.66,0-6.13,5.7-10.86,4.53-.44-.11-.57,1.18-.09,1.68,3.23,3.29,1.33,6.64.2,10-.66,1.93-1.3,4.2,0,5.74,2.52,2.88,1.59,5.43.1,8.16-1.11,2-1.6,4.76-.18,6.1,2.3,2.16,1.57,4.32.93,6.33-1.23,3.88-.74,7.26,0,11.32.95,5.45-.5,11.35-.09,17.3C255,348.49,252.67,354,255.94,359.71ZM528.07,738.77c-11.62-1.18-22.73,1.12-33.82,4.37-14.72,4.32-24.58,13.86-27.8,28.39-1.58,7.11-3.73,14.91-.61,22.9,2.22,5.67,5,8.25,9.47,4.35,7.37-6.4,16.39-8.61,25.08-11.85,2.07-.77,2.59.05,3.11,1.79,2.42,8.1,2.79,16.49,3.46,24.8.69,8.47-.08,7.66-7.62,11.64-15.82,8.37-32.74,8.74-49.88,8.85-12.31.08-24-1.71-35.39-7-13-6-22.62-14.89-28.85-27.64-3.11-6.35-4.58-13.1-5.85-20.06-2.72-14.88-2.84-29.77,2.81-43.63a88.53,88.53,0,0,1,20.87-30.36c4.07-3.9,9.23-6.65,13.71-10.16C430,684.81,445.7,679.87,461.68,678c13.74-1.59,27.95-1.73,41.7,4.49,8.34,3.78,13.69,8.65,16.38,16.83.73,2.2,1.56,2.77,3.66,3,8.69.92,12-6.3,16.4-11.23,5.08-5.69,9.25-12.25,13.42-18.69,3-4.55,5.6-9,3.8-15.37s-7.08-8.52-11.29-10.77c-13.1-7-26.1-14.22-41.27-17-7.8-1.41-15.74-3.55-23.56-4.49-14.95-1.8-30.27-.91-44.51,4-11.14,3.88-22.7,6.92-33.07,13.22-12.72,7.72-24.82,16-35.55,26.41-8.13,7.86-15.54,16.17-20.83,26.23-5.88,11.19-13.77,21.52-15.86,34.37-1.53,9.37-5.67,18.77-3.73,28.13,1.6,7.74,1.27,15.56,3,23.3a154.13,154.13,0,0,0,9.08,27.37c2.44,5.73,6,10.67,9.3,15.76,2.61,4,5.49,8.16,9.19,11,10.13,7.86,20.5,15.34,32.43,20.61s24.08,9,37.56,8.48c19-.69,38-.4,57-.09,7.25.12,14-1.82,20.66-3.79,15.42-4.55,29.24-13.49,46-14.87,6.57-.54,12.34-.39,18.22,1.76,3.67,1.34,6.3.7,8.69-2.42a100.62,100.62,0,0,0,13.22-24.1c3.78-9.43-.13-11.79-8.15-11.41-7.82.37-15.67-.15-23.5,0-4.06.1-5.63-1.24-5.49-5.45.17-4.91.75-9.85-1.47-14.7a5.08,5.08,0,0,1,2.44-6.89,55,55,0,0,1,8.4-2.5c7.92-2.11,15.61-4.35,21.92-10.29,3.69-3.47,4.47-7.94,6.62-11.94,3.07-5.7-.19-12.45,3.23-18,.17-.28-.14-1-.44-1.37-1.71-2-1.75-4.36-1.44-6.64.53-4-1.71-5.55-4.86-7a5.33,5.33,0,0,0-6.91,2.2c-3.65,6.86-10.51,7.82-16.6,9.11C553.19,738,540.7,739.59,528.07,738.77ZM308.48,830.68c-5.6.89-11-1.89-16.61-3.52-1.57-.46-4.31.63-4.63-1.92-.74-6-4.15-11-6.09-16.61-1.73-5-2.48-10.22-4.53-15-4.24-10-6.64-20.51-9.3-30.93-2.05-8-3.73-16.16-6.33-24-3.08-9.31-4-19.1-5.9-28.63-1.61-8-3.8-15.85-4.69-24-.53-4.92-.54-6.17,4.46-6.56a10.71,10.71,0,0,0,8.55-5.55c4.76-9,10.1-17.78,13.1-27.66,2-6.71.84-8.73-6.16-8.94-3.5-.1-7.11.46-10.46-.26-9.85-2.12-19.78-3.9-29.41-7a176.77,176.77,0,0,0-25.08-6.64c-6.14-1-12.77-.75-17.66,2.77a53.88,53.88,0,0,0-12.63,12.12c-5.05,7.06-9.2,14.47-11.59,22.84a4.18,4.18,0,0,0,.74,4.19c1.15,1.35,2.2.67,3.48,0,2.46-1.36,5.47-.14,8.15-1.57.84-.45,3.65.63,4.54,2.32a4.69,4.69,0,0,1-.47,4.75c-5.31,8.41-9,17.73-13,26.71-3.33,7.5-7.46,14.59-10.68,22.14-3,6.95-6,13.94-8.94,20.88-3,7.17-5.91,14.52-8.59,21.89-1,2.87-2.31,4.34-5.91,2.57-4.47-2.21-9-.95-10,2.78-1.73,6.39-5.35,12.29-4.74,19.38.52,6,.47,6.26,6.77,6.37,2.8,0,5.77-.81,8.37.51,10.58,5.35,20.91,11.17,31.69,16.17,2.81,1.31,3.91.94,5.73-1,4.18-4.37,6.88-9.62,9.89-14.78,2.37-4,.39-5.47-2.64-6.7a80,80,0,0,0-9.31-3.11c-3.52-.94-3.87-3.48-3.11-6.19a67.62,67.62,0,0,1,3.77-10.12c1-2.11,2-3.09,5.22-1.79,6.29,2.51,12.62,5,18.74,7.85,7.14,3.39,14.84,5.19,22.18,8,6,2.31,11.89,5.35,18.54,6.32,4.73.68,9.5,2.43,10.16,8.89.35,3.51,2,6.92,3.32,10.29.53,1.4,1.76,2.71.27,4s-3.11.91-4.73.27c-5.6-2.23-7.94-1.29-11,3.62a112,112,0,0,0-6.56,12.75c-2.51,5.56-1.15,8,5.06,8.33,8.16.44,15.5,4.11,23.16,6.31,9.4,2.72,18.05,8.12,27.47,10.7,4.05,1.11,8.42,3.08,13.62,1.71,8.68-2.28,13.5-8.74,19-14.52,2.27-2.37,4.32-6.18,3.06-9.32-1-2.47-4.81-.62-7.33-1.05C309.34,830.66,309.17,830.68,308.48,830.68Zm-184.74-499c0,3.09-.13,5.1,0,7.08s-1,4.57,1.53,5.22,5.93,1.6,8-.81c4.41-5,10-8.63,15.12-12.7,5.49-4.35,9.93-9.91,15.53-13.89,13.82-9.8,25.07-22.34,34.64-35.73,8-11.12,11.13-25.2,11.65-39.43.15-4.22-2.12-7.53-2.29-11.51-.29-6.36-1.06-12.87-3.94-18.53-3-6-5.86-12.24-12.2-16.09-4.28-2.59-8.32-4.34-13.42-4-4.77.3-5.25-1.21-4.52-5.55.67-3.89,1.93-7.65,2.08-11.69.53-14-4.12-26.46-11.6-37.75-7.22-10.89-18.65-13.58-31.07-8.64-13.33,5.3-23.45,15.11-33.91,24.52-3.8,3.43-7.31,7.2-11.66,10.21a65.51,65.51,0,0,0-14.12,13.6c-6.55,8.48-7.45,18.45-5.16,28.76.34,1.49.94,3,2.44,3.55s1.83-1.19,2.62-1.91c5.43-5,8.52-4.48,12.56,1.64,3.89,5.9,6.09,12.65,10.08,18.52,6.75,9.93,5.41,22.36,9.57,33.18,2,5.25,3.11,10.63,9.16,12.87a5.28,5.28,0,0,1,2.56,2.29c5.25,9.74,10.17,19.66,13,30.38.83,3.14,1.9,7.34-1,10C124.12,320.1,123,326,123.74,331.65ZM681,598c1.26-6.78-2.37-13.24-5.78-19.65-2.28-4.28-3.69-4.08-7.43-.86a106.44,106.44,0,0,1-10.68,7.79c-8.46,5.6-18.33,5.78-27.89,6.67-7.67.71-14,4.2-20,8.41-9.4,6.59-8.19,17.61-10.74,27-1.72,6.35,2.34,12.14,2.36,18.44,0,2.67,2,3.4,4.53,1.38a89.07,89.07,0,0,1,12.11-8.49c7.9-4.31,10.42-2.92,13.73,5.53.85,2.17,1.07,4.41,1.92,6.56,3.57,9.13,7.16,18.3,10,27.69s6,18.62,8.15,28.09c1.29,5.6,3.89,10.8,4.5,16.53,1,9.14,4.78,17.59,6.09,26.75a127.87,127.87,0,0,0,4.47,18c1.18,3.91.29,7.94-3.11,11.39-2.52,2.57-6.17,3.11-8.36,6-6.52,8.69-9.06,18.46-8.3,29.16.27,3.81,2.54,4.67,5.66,2.48,4.17-2.93,8.08-6.54,12.68-8.47,7.5-3.14,15.49-5.08,23.22-7.68a61.31,61.31,0,0,0,20-11.53c9.22-7.85,11.08-19,10.56-30.57-.11-2.58-.49-5.56-2.77-6.3s-2.39,2.62-3.58,4.08a12.35,12.35,0,0,1-2.49,2.41c-2.27,1.56-4.57,4.38-7.31,3.36-2.38-.88-3.21-4.19-3.26-6.79-.33-14.7-4.62-28.71-7.57-42.93-1.69-8.16-3.39-16.35-5.28-24.47-2.41-10.41-5.61-20.65-8.81-30.86a251.9,251.9,0,0,0-9-25.46c-1.65-3.81-1.6-6,1.58-8.41C678.29,617.24,681.44,608.91,681,598ZM364,49a11.41,11.41,0,0,0,1.8-1.53c2-2.75,4.92-2.88,7.67-2.16s3.41,3.82,3.68,6c.9,7.45-.47,14.76-2.41,22-1.56,5.8-3.08,11.62-4.41,17.48-1.67,7.33-3.05,14.72-4.71,22-1.37,6-3,12-4.47,18-1.57,6.46-3.28,12.9-4.56,19.42-1.36,6.91-3.6,13.6-4.74,20.58-.49,3-.52,7.71-5.16,7.95-6.68.34-9.58,4.92-12.79,9.64s-3.32,9.93-4.81,14.93c-1.84,6.19-1.74,6.21,4.3,4.9.81-.17,1.67,0,2.49-.13,6.41-.66,12.37,1.3,18.32,3.14,4.35,1.35,15.75-1.76,17.73-5.26,3.15-5.54,6.79-10.73,8.66-17.06s1.07-8.52-5.17-8.24c-5.35.24-6.71-2-5.13-7.23a54.18,54.18,0,0,0,1.94-11.12c.55-6.77,3.5-9.77,10.17-9.78a21.17,21.17,0,0,0,3.47-.26A230.76,230.76,0,0,1,425.21,149c1.54,0,3,.11,3.66,1.9a94.76,94.76,0,0,1,5.09,18c.7,3.91-1.43,7-5.23,8-7.08,1.87-10.35,5.79-10.54,13.24a17.16,17.16,0,0,1-4.07,11.35c-1.31,1.47-2,2.81-.94,4.35s2.51.4,4,0c4.56-1.11,9.39-3,13.8-2.41,7.38,1.07,14.63,3.16,22.2,3.1,7.81-.06,13.39-5.15,13.91-12.79a9.6,9.6,0,0,1,.8-3.34c2.19-5,3.65-10.19,2.91-15.75-.14-1,0-3.24-1.36-2.41-2.64,1.63-5.58.53-8.13,1.74-3.85,1.82-5.8.92-6.81-3.3-2.62-10.84-6.37-21.35-9.23-32.13-2.19-8.26-5-16.54-6.56-24.81-1.85-10-5.76-19.29-8.25-29-1.8-7-4.47-14-6.38-21-3.69-13.5-6.2-27.28-11.87-40.26-7-16.16-25.66-19.45-36.94-6a41.89,41.89,0,0,0-10,23.22C365,43.43,361.74,45.49,364,49ZM677.44,233.38c0-3,0-5.18,0-7.35-.37-14.3,5.65-16.24,15.78-17.65,8.86-1.23,17.38-3.54,26-5.42,3.8-.82,7.43-2.4,11.22-3.24,4-.88,8.24-.84,11.43,1.72a25.76,25.76,0,0,1,4.94,5.1c2.19,3.13,4.21,1.38,5.51-.46.75-1.06,5.92-1.54,1.16-4.67-2-1.31-1.1-4.27.72-6.18.91-.95,2.29-1.93,1.28-3.35-2.21-3.07-4.19-6.57-7.12-8.76s-4.41-5.12-6.24-7.86c-5.33-8-9.89-16.28-22.08-14.23-6.66,1.12-8.78,3.15-6.35,9.66.41,1.09.91,2.14,1.38,3.21,1.36,3.13,0,9-3,9.74-5,1.16-9.6,3.8-14.57,4.39-11.8,1.42-22.85,5.25-33.86,9.3-3.45,1.27-6.26-.13-8.81-1.49-2.9-1.54-2.74-5.12-1.82-7.68,4-11.09,8-22.19,12.74-33,3.57-8.25,6.66-9.15,15.43-6.67a16.86,16.86,0,0,0,13.4-1.85c4.56-2.75,2.55-10-2.83-14.46S680.6,124,675.91,118.83a138,138,0,0,0-14.58-14.23,11,11,0,0,0-17.44,4.78,4.13,4.13,0,0,0,1.46,5.24c6.61,5.24,9,12.36,8.22,20.52-.23,2.37-2,4.5-1.6,7.12a11.57,11.57,0,0,1-2.21,8.42c-2.3,3.34-4.57,6.6-5.91,10.66-3.13,9.49-8.45,18.09-11.89,27.53-1.6,4.39-2.59,9-4.83,13.22a131,131,0,0,0-8,19.55c-1.77,5.27-3.16,10.7-5.9,15.63-1,1.82-2.05,2.8-4.2,2.75-4.78-.13-9.14,2.45-14.12,2a7.26,7.26,0,0,0-6.26,3.49c-1.2,2-2.78,3.78,1.08,5.77,5.49,2.83,7,9.9,12,13.52.31.22.28.93.37,1.41,1.16,6.5,7.35,12.25,14.07,12.19,4.87,0,8.84-3.05,11.72-6.67,1.7-2.14.09-5-1.28-7.32a8,8,0,0,1-.81-3.85c-.84-12.15,5-22.24,10.22-32.45a11.25,11.25,0,0,1,8.85-5.69,56.71,56.71,0,0,0,13.31-3.27c4.74-1.71,7.11-.22,6.72,4.88-.94,12.32,2.51,24.38,1.85,36.66a4,4,0,0,0,.24,2c3.71,7.07,2.73,14.45,1.3,21.79-.49,2.51-1.3,6-4.94,4.69-4.3-1.52-8.56-.65-12.82-1-3.67-.26-6.46,1.62-7,5s-1.49,7.76,3.66,9.53,8.75,5.92,11.39,10.11a103.4,103.4,0,0,0,19.16,22.21,20.79,20.79,0,0,0,27.74.28c5-4.29,4.58-8.83-1.76-10.79-6.52-2-10.61-6.83-15.41-10.9a8.56,8.56,0,0,1-2.95-6.18c-.14-5.76-3.53-11.05-2.26-17a3.42,3.42,0,0,0-.7-2.79c-3.8-3.2-3-7.46-2.74-11.49.53-7.87-3.18-15.68-.19-23.58a4,4,0,0,0-.16-2.93C676.28,244.21,677.86,238.27,677.44,233.38ZM50.5,673.08h.06c0,5.67,0,11.33,0,17,0,4.33,3,6.93,6.31,8.1,3.62,1.29,3.86-2.87,4.85-5,5.44-11.88,12.42-22.84,19.51-33.75.59-.91,1.19-1.89,2.26-1.18s1.05,2,.49,3.17c-3,6.07-4,12.89-4.87,19.26-2.08,15.29-5.92,30.42-5.51,46,.08,2.91-.59,4.15-3.71,2.23-3.34-2.06-5.88-1.1-7.44,2.71s-2,8.13-3.66,11.49c-2.83,5.52.48,6.84,3.75,9.22,5.27,3.85,10.62,7.5,14.86,12.78A36.88,36.88,0,0,0,93.48,776.9c1.84.67,2.88-.26,3.5-1.81,1.1-2.72,1.91-5.58,3.21-8.2,6.07-12.29,8.43-12.3-6.71-19.75-2.31-1.14-2.8-2.54-3.21-4.9-.73-4.18,1.91-7.67,1.67-11.65-.59-9.82,2.61-19.15,4-28.69,1.29-8.64,4.44-17,6.76-25.49a165.74,165.74,0,0,1,10.18-28.07c2.73-5.69,7.91-6.73,12.33-2.47a28.24,28.24,0,0,0,4.47,3.12c1.94,1.27,2.91.22,3.24-1.41,2-10.09,4.52-20.12,4.06-30.55a6.87,6.87,0,0,0-2-4.34c-5.63-6.73-12.77-11.78-19.46-17.29a7.54,7.54,0,0,0-9.29-.1c-5.17,4.24-9.33,9.57-14.33,14.13-10.82,9.87-20.24,21.2-26.89,34.5-.48.94-.84,1.93-2.05,1.74s-1.3-1.38-1.36-2.35c-.08-1.33,0-2.66,0-4,.17-12.41-.22-24.82,1.63-37.17.67-4.41-.39-8.94.56-13.41,1.69-8,3.61-16,3.2-24.29-.22-4.35-4.22-6.85-9.64-7.9-4.57-.88-6.14,1.89-6.67,5-.43,2.43-1.7,4.26-2.41,6.42-1.78,5.43-3.67,10.8-5.15,16.35-1,3.92,2.08,5.85,2,9.14-.09,9.93-1.89,19.59-3.1,29.37-1.37,11.07-4.09,22-4,33.3a17.38,17.38,0,0,1-.31,5c-1.86,6.46-1.7,13.26-3.36,19.68-1.71,6.6.2,13.6-6.39,19.7-9,8.38-4.74,23.66,6.43,28.88,3.19,1.49,4.85,1.13,5.75-2.52,1.24-5,2.41-10.19,4.47-14.92,1.41-3.22,1-4.3-2.12-5.45-2.14-.79-5.46-1.76-4.12-5,1.51-3.69.69-7.69,1.85-11.14,3.82-11.36,3.89-23.39,6.88-34.87.32-1.2-.19-3.07,1.75-3s1.5,1.94,1.51,3.18C50.54,661.42,50.5,667.25,50.5,673.08Zm673.15-37.75c.81,6.81-.19,15,1.35,23.33,1.66,9,3.1,18.12,5.8,26.88,5.2,16.84,12.32,32.32,27.1,43.61,10.22,7.81,21.36,10.14,32.69,6.86,12.52-3.62,22.72-12.59,29.26-23.66,6.93-11.73,12.94-24.38,13.33-38.66a21.28,21.28,0,0,1,.58-2.39c1.16-7.81,2.55-15.65,1-23.53-.84-4.28-9-8.39-13-6.9a2.19,2.19,0,0,0-1.55,2.28c.07,2.46-.81,5.08.75,7.31a8.4,8.4,0,0,1,.67,8.13c-2,4.33-1.67,9-3.12,13.37-4.37,13.31-9.7,25.59-23.27,32.12-4.77,2.3-9.36,2-14.22.06-8.3-3.24-13.08-9.79-16.83-17.28-3.52-7-7-14-8.68-21.91-2.2-10.14-4.22-20.26-4.62-30.6-.28-7,.73-14.09,1.44-21.14,1.55-15.33,7.68-27.54,18.85-37.68,4.87-4.42,11.68-5.62,17.46-2.53,8,4.25,10.23,12,11.93,20.08.36,1.69-1.16,4.42.94,4.88,2.47.55,2.55-2.17,3.1-4.13,1.53-5.48,3.55-10.82,5-16.32.93-3.54,1.41-7.61-.08-10.83-4.93-10.66-10.28-21.2-21.4-27-10.34-5.41-20.68-6.66-31.5.8a52.86,52.86,0,0,0-13.36,13c-4.57,6.38-8.51,13-10.67,20.48-2.26,7.82-5.07,15.42-5.75,23.78-.69,8.56-3.23,17-3.19,25.69C723.66,627,723.65,630.45,723.65,635.33ZM484.68,156a27.23,27.23,0,0,0,2.57,15.69c1.62,3.52,4,6.73,5,10.58,1.31,5.28,5.66,9.13,6.65,14.69.33,1.86,2.3,3.46,4.89,4.36,3.3,1.16,6.76,4.12,7,7.62.44,5.8,4,9.18,7.33,13,5.41,6.11,16.39,4,18.72-4.39.27-1,.28-2.15,1.57-2.15a2,2,0,0,1,2.18,2.21c-.29,2.5,1.17,4.12,2.63,5.66,3.34,3.52,7.42,5.47,12.1,7.16,5,1.82,7.64.4,9.63-3.39,1.17-2.23,2.06-2.85,4.52-2.24s11.21-5.48,11.47-8c.71-6.87,1.5-13.84-2.39-20.15-.79-1.29-1.14-3.37-3.34-3.24-2,.11-2.12,2.08-2.55,3.31A15.62,15.62,0,0,1,561,207.25c-10.55,2.32-20.18-.9-28.6-7.24-4.77-3.59-7.8-9.73-15-9.39-1.69.08-1.67-1.71-2.3-2.84-3.54-6.35-3.35-13.63-5.31-20.34a120.65,120.65,0,0,1-5.26-29.85c-.11-3.49,2.44-6,2.08-9.56-.75-7.43,1.18-14.53,3.21-21.68,3.87-13.68,10.73-24.81,21.93-34.09,6.47-5.37,13.53-6,20.49-6.53,3.19-.23,7.35-1.48,11.05.75a68,68,0,0,1,22.94,21.93,11.33,11.33,0,0,1,2,7.45c-.19,2.35.07,4.56,2,6.43,1.62,1.6,1.78,3.65-.1,5.27-2.86,2.44-2,6.37-3.85,9.29-.9,1.41.15,3.43,2.78,3.52,5.4.19,10.29-1.77,15.18-3.52,2.57-.91,4.8-11.43,3.14-14.38A7.3,7.3,0,0,1,606,97.8c.73-4.64-1.15-8.92-2.43-13-4.06-12.9-11.1-24.14-20.32-34.22s-20.73-14.5-33.35-16.26c-13.55-1.89-24.9,4.22-35,12.86-4.41,3.79-7.75,8.48-11.46,12.91C497.73,66.92,494.93,75,492,82.92a143.48,143.48,0,0,0-6.28,22.7c-1.42,7.24-1.57,14.56-2.87,21.79C481.05,137.29,483.06,147.41,484.68,156ZM311.19,183.32c-5.16,4.75-11,8.42-16.34,12.65-8.25,6.56-17.56,11-26.6,16.07-4.07,2.27-6.46,1-8.11-3.08-3.13-7.82-3.07-16.3-5.38-24.31-1.93-6.69-2.8-13.73-4.33-20.52-2-9.06-4.22-18.16-6.33-27.2-2.4-10.28-4.5-20.66-6.88-31-.75-3.27-1.93-7.78.69-10,2.2-1.82,2.46-3.12,2.6-5.49.21-3.52,3.7-5.48,7.15-4.37,1.05.33,2,.57,2.63-.48s-.15-1.94-.88-2.61c-3.35-3.07-3.86-7-3.85-11.29,0-6.83,1.28-13.85-2.52-20.38-3,1.69-5.77,4.2-9.25,5.23C223,59.81,213.21,65.43,203.07,70.2a9.47,9.47,0,0,0-4,3.65c-4.91,7.8-7.65,16-4.3,25.23a11.15,11.15,0,0,1,.25,3c.34,5.9,2.62,7.25,7.93,4.67,6.27-3,11.59-1.3,11.9,4.25a40.92,40.92,0,0,0,1.94,9.15c2.21,7.67,4.54,15.3,6.58,23,1.94,7.28,3.85,14.58,5.26,22,1.58,8.28,2.57,16.63,5,24.79,1,3.18,2.29,6.41,2.65,9.9a74.91,74.91,0,0,0,2.8,15.36c1.35,4.17.32,7.2-2.93,9s-4.51,4.59-6.16,7.63c-1.53,2.83-1.43,5.78-2.19,8.58-1.78,6.62-3.85,13.23-4.13,20.17,0,1-.32,2.1.85,2.63s1.87-.34,2.53-1.06c4.16-4.48,9.55-6.94,14.75-10,10.83-6.3,23-9.29,34.18-14.66,6.49-3.1,12.88-6.52,19-10.11,4.19-2.46,8.33-6.13,9.92-11.9,2.13-7.75,5.3-15.22,4.83-23.46C309.59,189.05,313.37,187,311.19,183.32ZM289.42,322.85c.57,0,1.14.27,1.51.09,4.19-2.05,6.57-2.12,4.92,3.76-.65,2.34.43,4.55,2.72,5.92a4.15,4.15,0,0,0,4.66-.17c2.83-1.65,4-3.88,2.83-7.08-.69-1.89-.72-3.32,1.94-3.2,4.87.22,10.79,4.53,12.23,9,2.25-1.32,2-2.74.24-4.24C312.21,319.86,295.9,316.49,289.42,322.85Zm1.63,220.3c3.22.3,6.74-.33,4.06,4.83-1.42,2.72.38,4.45,2.35,5.75s4.41,1.68,6.38-.25c1.71-1.68,4.12-3.27,2.3-6.26-2.2-3.61-.37-3.91,2.7-3.49,1,.13,1.94,1.42,3.34-.25C305,540.54,298,541.59,291.05,543.15Zm25.22,12.4c-3.51,2.77-7.94,3-11.75,5,1.9-.42,3,2.45,5.14.91.76-.56,1.89-1.11,2.29.43.25.95-.55,1.4-1.34,1.81-3.72,1.9-6.4,4-1.74,7.88.81.69-.2,3.37,2.38,2.56,2.09-.65,2.39-2.22,2.36-4.34A33.21,33.21,0,0,1,316.27,555.55Zm-9.95-217.14c0,.24-.06.43,0,.54,2.49,4.12,2.46,4.09.41,7.42-.5.82-.89,2.05.86,1.95,1.15-.06,1.84.1,2.16,1.39.28,1.12-2.28,3.29.82,3.24,1.73,0,3.87-1.53,3.55-3.56-.83-5.25.59-10.09,2.67-15.37-3.82,2.12-3.9,2.12-4,5.21,0,1.51-.42,2.83-2,2.94-1.78.11-1.3-1.42-1.38-2.55C309.31,336.94,307.69,338,306.32,338.41Zm5.91,199.64c-8.55-2.53-17-3.62-25.09,1.23A44.66,44.66,0,0,1,312.23,538.05ZM287.51,317.29c5.82-1.94,11.95-2,18-2.71C299,312.27,293.2,314.58,287.51,317.29Zm-9.05,253.35a30.3,30.3,0,0,1,3.2-2.78c1-.65,2.85-.32,2.57-2.27a1.9,1.9,0,0,0-1.77-1.47c-1.54-.25-2.46.68-3.26,1.76A5.42,5.42,0,0,0,278.46,570.64Zm-.71-222.73c3-.92,5.57-.46,6.52-3.17.37-1-.73-2-1.7-2C279.53,342.58,279.35,345.2,277.75,347.91Z" transform="translate(-0.91 -0.91)"/><path d="M558,365.9c-22.56,1.68-45.16-.89-67.73.46a14.88,14.88,0,0,1-1.49,0c-7.32-.2-7.92-1.35-4.26-7.68q18.94-32.79,37.85-65.61c.49-.86,1.07-1.68,1.61-2.52,2-3.14,3.75-3.62,6.32-.15,3.87,5.23,6.81,11,10.17,16.5,10.66,17.44,21,35.06,31.51,52.6,1,1.62,1.81,3.3.89,5.16-1.1,2.2-3.14,1.28-4.89,1.27Zm-19.23-42.75c-8.44-4.37-12.15-3.73-15.43,1.59-1.75,2.84-1.24,5.06.7,7.16s4.18,1.67,6.41.47c2.58-1.4,3.53-3.55,2.32-6.24-1-2.29-.34-3.06,2-3C535.83,323.18,537,323.15,538.75,323.15Zm3.4,12.83a8.14,8.14,0,0,0-4.55,1.82c4.23,5.67-2.9,10.51-.53,15.52,2.06.05,3.7-.76,3.63-3.3A50.49,50.49,0,0,1,542.15,336Z" transform="translate(-0.91 -0.91)"/><path d="M569.9,476.53c-20.09-.43-40.17,1.35-60.28.18-8.28-.48-16.62.21-24.94.35-.95,0-2.12.48-2.75-.52s.46-1.72.95-2.54c6.74-11.42,13.27-23,20.2-34.26,7.37-12,13.55-24.7,21.38-36.43,3.41-5.1,4.43-5.18,7.7.16q15.33,25,30.65,50.1c3.55,5.82,7.12,11.62,10.4,17.59C575.13,474.66,573.82,476.51,569.9,476.53Zm-49.52-43.14c4.3-1,4.39.59,3,3.9a5.48,5.48,0,0,0,2.08,7c2.53,1.73,4.79.27,6.88-1,2.42-1.51,2.48-3.78,1.25-6.06-.91-1.7-.52-3.29.48-5.29C529.18,432.82,524.7,431.22,520.38,433.39Zm23.68,12.79c-2.9.87-3.53,1.81-3.7,4.29s.67,6.81-4.5,6.34c-1.24-.11-1.75,1.74-1,2,2.82,1.17,1.79,3.88,2.64,5.95,2-1,4.63-1.31,4.46-4.09C541.65,455.94,541.63,451.26,544.06,446.18Zm-36.15,18c.19-2.75-.4-5.73,3.56-6.36,1.06-.17,1.12-1.57.34-2.46a1.9,1.9,0,0,0-2.7-.21C505.64,457.71,505.92,460.8,507.91,464.22Z" transform="translate(-0.91 -0.91)"/><path d="M453.83,366.08c-10.3-.89-20.6-.08-30.91.14-10.81.23-21.63-.41-32.45-.59-5.66-.09-11.32,0-17,0-1.82,0-3.82.08-4.79-1.92s.7-3,1.52-4.43q8.47-14.4,16.91-28.82c6.62-11.32,12.56-23,19.88-34,1.19-1.78,1.76-4,2.8-5.85,2-3.65,4.36-3.84,6.6-.29q9.58,15.18,18.87,30.54,11.48,19,22.67,38.11c.93,1.58,3,3.15,1.34,5.35C458,366.17,455.88,366.22,453.83,366.08Zm-29-42.87c-7-4-14.46-4-23-.2a9.53,9.53,0,0,0,2.51,0c4.51-2.08,5.71-1.21,4.06,3.79-1.29,3.86,1.13,6.46,5.2,6.51,4.26.06,6.19-2.26,5.19-6.92-.78-3.59-.5-5.42,3.72-3.76A21.85,21.85,0,0,0,424.87,323.21Zm-1.58,23.45c-2.81.7-2.78.69-1.24,4.24.44,1-.72,3.21,1.64,2.65,1.75-.41,3.79-1.67,3.48-3.7-.76-4.87.57-9.51,1.31-14.74-2.58,1-4.68,1.8-6.76,2.67-.88.37-2.08.78-1.4,2.08.45.83,1.32.76,2.14.21,1-.69,2.3-2.22,3.12-.11a2.4,2.4,0,0,1-2,3.36C418.62,344.09,423.7,345.58,423.29,346.66Zm-1.58-30.94c-10.81-2.3-18.27-1.2-21.81,3.27C406.25,314.61,413.44,315.91,421.71,315.72Zm-29.46,32.42c1.8-.85,4.66.16,4.95-2.94a1.48,1.48,0,0,0-1.44-1.7C392.93,343.47,392.45,345.63,392.25,348.14Z" transform="translate(-0.91 -0.91)"/><path d="M340,476.68c-11.11-2.09-22.77.88-34.32-.2-13.15-1.23-26.2.43-39.29.12-13.59-.32-11.69-2.28-6.58-11,12.27-20.87,24.71-41.65,37.09-62.46a24.57,24.57,0,0,1,1.67-2.49c2-2.58,3.56-2.95,5.48.39,5.13,8.92,10.55,17.67,15.87,26.48,8.3,13.74,16.65,27.45,24.88,41.23,1.21,2,3.92,4,2.25,6.61C345.6,477.62,342.7,476.16,340,476.68Zm-47.5-43.91c4.85-.25,3.55,2.56,3.35,4.76-.34,3.87,1.07,6.11,5.28,6s6.21-2.34,5.25-6.5c-.48-2.11.09-3.77.75-5.64C302.19,430.19,297.68,430.81,292.48,432.77Zm12.76,17.09c7,1.31-1.05,8.28,4.41,10.2.62.21-.71,3.41,1.72,3.05,1.91-.29,3.86-1.58,3.3-4.14-1.07-4.94.66-9.41,2.33-14.5A32.56,32.56,0,0,1,305.24,449.86Zm-17.06-20.78c6.09-3.24,12.79-1.72,19.14-2.73C300.75,426,294,424.36,288.18,429.08Z" transform="translate(-0.91 -0.91)"/><path d="M447.9,476.52q-37.31,0-74.41,0c-5.17,0-5.85-1-3.23-5.51,7.52-12.9,15.31-25.64,22.9-38.5,5.84-9.88,11.53-19.84,17.28-29.77,2.61-4.5,4.16-4.6,6.8-.25,10.24,16.87,20.41,33.79,30.67,50.65,3.63,6,7.54,11.77,11.15,17.74,2.43,4,1.83,5-2.84,5.56C453.43,476.71,450.65,477.62,447.9,476.52ZM417,449.93c5.54,2.76,5.53,3.68,2.28,10-1.86,3.62-4.82,5.87-8.2,7.85,3.84-.16,6.29-2.29,8.38-5.22.76-1.05,1.95-3.57,3.46-.46.42.85-.59,2.77,1.49,2.28,1.66-.39,3.37-1.6,3.14-3.42-.84-6.65.44-12.66,4.87-18C428.32,446.88,423.61,449.1,417,449.93Zm3.77-17.21c-4.1-3.15-8.35-.7-12.56-.58-.49,0-1.71.29-.56.84,2.89,1.38,1,3.46,1,5.21.09,2.19-.07,4.25,2.57,5.36s4.86,1.23,7.05-.46a4.33,4.33,0,0,0,1.24-5.8C418.55,435.21,418.89,433.59,420.79,432.72Zm-.63-5.94a23.11,23.11,0,0,0-18.77,2.36A72.84,72.84,0,0,1,420.16,426.78Zm-27.76,35c.86-1.28.81-2.83,2.36-3.31,1.35-.42,3.17-.48,3.06-2.56-.07-1.21-1.08-1.56-2.15-1.58-2.19,0-2.52,1.81-3.22,3.25A4.51,4.51,0,0,0,392.4,461.79Z" transform="translate(-0.91 -0.91)"/><path d="M453,588.13c-11.08-2.4-22.25,1.44-33.19-.14-13.24-1.91-26.59.48-39.74-1.9-.64-.11-1.33.07-2,0-2.23-.31-5.13,2-6.56-.27-1.63-2.58,1.13-5,2.38-7.09q19.11-32.09,38.58-64c3.35-5.5,4.74-5.25,8.07.33,9.7,16.26,19.56,32.42,29.23,48.69,3.81,6.41,7.19,13.06,10.92,19.52,2.35,4.05.46,4.94-3.21,4.86C456,588.1,454.54,588.13,453,588.13Zm-16.82-37.88c-5.93,9.54-14.83,11.7-25,11.08a23.4,23.4,0,0,0,6.5.64c6,0,7.19,2,4.21,7.55-1.32,2.43-3,4.64-4.81,7.29,3.24,0,3.25-2.35,4.38-3.63s2.73-2.59,3,.15c.47,4.61,2.42,1.68,3.78,1,2-1,1.68-3,1.56-4.84-.4-6,.65-11.52,5.86-15.45C436.56,553.35,437.76,552.64,436.22,550.25Zm-27.47-6.47c3.86.94,2.95,3,2.19,5.38s.44,4.56,2.77,5.74,4.45,1.39,6.49-.41c1.84-1.62,3.18-3.38,1.83-6-.54-1.06-1.95-2.22-.39-3.46,1.17-.92,2.55-.32,3.83-.08,1,.2,1.95,1.46,3.26.41C422.54,541.54,416.11,541.31,408.75,543.78ZM429,539.94c-8.51-4.92-21.11-4.5-26.48.77C411.29,537.66,420.11,536.83,429,539.94Zm-29.08,7.49c-5.63,2.9-5.5,3.49,1.49,8.35C400.47,553.12,395.36,551.28,399.9,547.43ZM399.84,567c-.15-1.08-.58-2-1.83-1.87-1.72.24-3.2,1-3.38,3-.09,1,.43,1.65,1.5,1.18C397.47,568.75,399.74,569.57,399.84,567ZM401,578.69c4.49.86,9.15,2.07,13.51-.79C410.15,579.93,405.62,579,401,578.69Z" transform="translate(-0.91 -0.91)"/><path d="M403.55,383.2c-1.23-.22-3.05.41-3.1-1.52s1.61-2.26,3.17-2.09,3.46.39,3.42,2.1C407,383.8,404.8,382.86,403.55,383.2Z" transform="translate(-0.91 -0.91)"/><path d="M512.47,383.05c-1.49,0-3.08.3-2.87-1.42.22-1.88,2.13-1.9,3.55-1.93s3.18.4,3,1.91C516,384.37,513.14,381.44,512.47,383.05Z" transform="translate(-0.91 -0.91)"/><path d="M276.41,490.74c-1.4-.19-3.19.34-3.09-1.63.09-1.69,1.75-1.64,3-1.66s2.92.07,2.87,1.81C279.16,491.23,277.34,490.47,276.41,490.74Z" transform="translate(-0.91 -0.91)"/><path d="M413.75,490.44c2.47-3,4.7-2.51,6.88-1.72.67.25.86,1.4.4,1.68C418.88,491.69,416.74,490.44,413.75,490.44Z" transform="translate(-0.91 -0.91)"/><path d="M435.21,383.18c-1.57-.14-3.69.34-3.8-1.92-.06-1.41,1.64-1.39,2.72-1.14,1.47.34,3.84-.42,4.08,1.67C438.42,383.59,436.35,383,435.21,383.18Z" transform="translate(-0.91 -0.91)"/><path d="M497.4,380.17c1.25.21,3.18-.14,2.88,1.72-.34,2.12-2.42.81-3.7,1.08s-2.75,0-2.64-1.33C494.11,379.53,496.1,380.3,497.4,380.17Z" transform="translate(-0.91 -0.91)"/><path d="M450.51,380.3c1.28.26,3.4-.34,3.32,1.66-.06,1.61-2,1.26-3.26,1.17s-3.45.72-3.32-1.57C447.34,379.83,449.28,380.51,450.51,380.3Z" transform="translate(-0.91 -0.91)"/><path d="M344.53,381.56c-.44,1.12-1.07,1.45-1.7,1.12-1.65-.87-3.55,1.71-5-.38a1.11,1.11,0,0,1,.59-1.64C340.63,380,342.78,379.75,344.53,381.56Z" transform="translate(-0.91 -0.91)"/><path d="M483.08,314.64c-.91-2.05-3.34-3.71-1.78-6.09a2.28,2.28,0,0,1,2.22-.18C485.53,310.46,483,312.42,483.08,314.64Z" transform="translate(-0.91 -0.91)"/><path d="M354.84,490.8c-1-.25-2.72.58-2.86-1-.17-1.95,1.66-1.63,2.88-1.61s3.21-.33,3.19,1.36S356,490.59,354.84,490.8Z" transform="translate(-0.91 -0.91)"/><path d="M420.1,379.88c1.38-.18,2.69,0,2.73,1.43.05,2.21-1.87,1.82-3.23,1.83s-3.2.38-3.18-1.27C416.44,379.65,418.92,380.53,420.1,379.88Z" transform="translate(-0.91 -0.91)"/><path d="M388,383.22c-1.14-.28-3.14.55-3.08-1.38.05-1.65,1.93-1.44,3.21-1.4s3.17-.37,3.11,1.41S389.23,383,388,383.22Z" transform="translate(-0.91 -0.91)"/><path d="M226.11,758.78a6.34,6.34,0,0,1-1.7-.2c-11.67-4.23-23.49-8.1-34.92-12.89-7.24-3-7.49-6-3.39-12.79,3.64-6,7.42-11.9,10.3-18.45,1.65-3.73,4.34-7.61,6.52-11.36s4.64-7.7,7.19-11.41c.71-1,1.29-2,2.66-1.79,1.65.25,1.85,1.55,2.08,3,1.74,10.34,3.89,20.57,6.6,30.73,2.85,10.71,4.83,21.63,8.8,32C231.62,759.24,228.39,758.56,226.11,758.78Z" transform="translate(-0.91 -0.91)"/><path d="M188.31,248c0,7.54-3.51,15.27-9.57,21.64-7.74,8.15-15.64,16.21-24.85,22.75-3.65,2.59-5-1.89-5.62-3.4-4.83-11-9.24-22.28-13.55-33.55-2.12-5.54-.41-10.33,4.16-13.25,5.9-3.76,10.32-9.24,15.17-14.08,4.54-4.51,9.86-7.09,15.44-9.18,4.21-1.57,8.14.61,10.89,4.22C185.62,230,188.14,237.81,188.31,248Z" transform="translate(-0.91 -0.91)"/><path d="M155.88,182.93c.9,5.95-3.22,10.71-3.68,16.29,0,.46-.81,1.16-1.33,1.25-4.87.81-7,4.58-9.78,8.05-4.33,5.39-10.74,8.63-15.42,13.84-2.52,2.79-5.47,1.14-6.79-1.8-4.78-10.71-10.3-21.05-15.64-31.48-2-3.86-.61-8.31,3.54-10.62,2.69-1.5,4.91-2.83,6-6,.83-2.4,4.07-2.4,6-4.09,5.86-5.17,11.81-10.47,20-11.66,3.07-.45,5.26,1.55,7.23,3.33C152.78,166.13,155.13,174.24,155.88,182.93Z" transform="translate(-0.91 -0.91)"/><path d="M406,127.3c-6.12-.91-12.26,2.41-18.85,1.65-3-.34-3.79-1.26-4.06-4.19-.5-5.45,1.58-10.39,2.33-15.57,1.33-9.24,4.81-18,6.35-27.22,1.11-6.67,3.72-13.1,5.86-19.57.43-1.28,1.31-3,3.15-2.72s2.72,1.89,3.11,3.55c2.42,10.14,6.24,19.93,8.63,30,2,8.52,5.77,16.79,5.7,25.82-.06,7.51-.75,8.26-8.3,8.28Z" transform="translate(-0.91 -0.91)"/></g></g></svg>