<svg xmlns="http://www.w3.org/2000/svg" viewBox="0 0 886.32 889.07"><title>me</title><g id="Layer_2" data-name="Layer 2"><g id="Layer_1-2" data-name="Layer 1"><path d="M887,58V99c-1.93,1.82-4.23,2.28-6.85,2.28-11.12,0-22.24-.35-33.34.68-2.25.21-4,.48-3.86,3.25a41.06,41.06,0,0,1-1,9.88c-.49,2.44.22,4.56,3.13,4.47,8.92-.29,17.85.7,26.8-.66,5-.75,10.23-1.47,15.09,1.1v65c-2,1.21-4.18,1-6.32.91-10.6-.37-21.16-1.53-31.8-1.15-7.25.25-7.42.3-6.23,7.3a20.81,20.81,0,0,1,.22,5.46c-.44,4.29,1.2,5.94,5.63,5.83,10.47-.25,20.94-.07,31.42-.12,2.54,0,5,.1,7.08,1.77v41c-2.06.91-4.25.68-6.4.68-10.8,0-21.61,0-32.42,0-2.14,0-4.74-.28-4.86,2.85-.12,3.44-.58,6.9.82,10.32.67,1.64,1.35,2.5,3.09,2.54,13.26.31,26.49,1.78,39.77.57v43c-3.66.51-2.53,3.41-2.53,5.48q-.09,55.25-.09,110.5c0,1.88,1,4.4-1.09,5.5s-2.38,1.49-.25,2.67c1.9,1.05,1.7,2.91.9,4.34s-2.43.42-3.61.1c-3.22-.87-5.79-3.48-9.19-3.74s-4.87-2.6-5.11-5.43c-.25-3-1.27-5.8-2-8.69-1.8-7.21-3.76-9.57-10.66-9.72-12.11-.26-24.22-.17-36.33.14-11.25.29-22.5,1.56-33.74,1.49-18-.12-36.06.88-54.08,1.44-18.79.58-37.57.14-56.36,1-18.28.83-36.62.28-54.93.47-5.77.06-5.65.28-3,5.14a20.87,20.87,0,0,0,4.78,5.63,19.53,19.53,0,0,1,6.35,10.92c1.24,5.65,3.5,10.63,8.17,14.43,3,2.46,4.51,6,5.64,9.78,1.46,4.87,3.33,9.63,5.2,14.36.64,1.61,2.27,4.21,3.82,2.37,4.21-5,11.21-5.23,15.43-10.26,4.94-5.9,5.3-5.58,12.54-2.09a5.71,5.71,0,0,0,1.92.48c4.46.43,5.53,3.6,5,7.14a20.29,20.29,0,0,0,1,9.16,24.24,24.24,0,0,1,.77,8.37c-.46,8.45-1.15,16.83-3.65,25-.52,1.69-.4,3.34,1.27,4.44s2.93,0,4.19-.65c9.15-5.12,18.14-10.55,27.72-14.88a5.42,5.42,0,0,0,3-3.14,177.75,177.75,0,0,0,6.34-19.93c2.42-10.33,6-20.33,8.2-30.69.3-1.39.76-3,2.39-2.51,2.25.61,1.17,2.41.6,3.68-1.22,2.75-2.83,5.48-2.43,8.53.31,2.31-1.46,6.22,1.21,6.65,3,.48,3.72-3.6,4.9-6.08a18.5,18.5,0,0,0,.45-2.44c1.11-3.71,3.88-5.59,4.75-3.5,1.19,2.84-.6,5.36-1.68,8-2.84,6.89-6.67,13.51-7.67,21-1.18,8.7-2.61,17.37-3.72,26.07-.88,6.81-4,13.57-1.71,20.62a35.22,35.22,0,0,1,1.31,12.77c-.6,13.62-1,27.16,2.46,40.52.67,2.57.42,5.71-1,7.7-4.41,6.19-6.7,13.62-11.76,19.42-1.11,1.28-2.11,3.44-.51,5,3,3,2.72,6.63,2.6,10.28a27.18,27.18,0,0,0,1.92,10.65c4.3,11.41,4.18,11.45-7.81,14.39l-1,.25c-4,1.17-2.94,4.73-3.57,7.48s1.51,2.62,3.18,3.37c3.55,1.6,6.56,4,8.15,7.72,2.77,6.49,1.79,8-5.16,7.22-5.86-.63-9.68,3.39-13.76,6.15-2,1.38,1.23,4.74,1.27,7.22.06,3.5,1.73,5.89,3.94,8.25,1.39,1.48,2.61,3.39,2.16,5.42-2.12,9.51,2.88,17.71,6.86,24.89,5.14,9.25,1.37,20,7.35,28.49.16.23.06.66,0,1,0,1-.06,2.22-1.24,2.41a2.45,2.45,0,0,1-2.12-.94c-2.42-5.48-6.39-3.73-10.68-2.23,2.76,3.49,3.07,5.59-2.54,5.82-2.21.1-2.81,4-2.31,5.88s2.4-.14,3.69-.47c2.57-.66,5.12-1.41,7.73-1.89,1.89-.35,4.23-1.65,5.68.07,1.61,1.93-.74,4-1,6.1-.17,1.63-2.12,2-3.48,2.48-5.76,2-10.56,5.4-15.29,9.09-5.71,4.44-14.84,2.94-19.2-2.82-5.54-7.31-4.54-11.87,2.93-18,4-3.29,10.39-4.53,10.95-11.12.5-5.85,4.18-12.54-2.52-17-5.07-3.34-6.25-8.19-7.41-13.38-.42-1.93-.74-4.08-3.22-4.56-2.64-.51-5,0-6.68,2.28-2.85,3.8-6.61,6.79-8.81,11.25-1.75,3.56-4.77,6.49-7.22,9.7,0-3.08-.15-5.86,1.29-8.57,2.17-4.11,2.58-9.44.52-12.83-1.64-2.72-6.7-5.3-10.63-4.08-3.5,1.1-5.29,5-5.19,8.93.3,11.61-6.08,20.93-10.41,31,.56-10.73,8-20,6.31-31.34-3.84,1.43-3.9,5.53-5.88,8.21-3,4.08-7.55,6.4-10.94,10a187,187,0,0,0-18,21.1c-.74,1-1.74,2.31-2.86,2.63-2,.56-2.42,1.78-3.4,3.41-1.77,3-2.76,8.2-7.61,7.11-3.29-.73-4.52.35-6.05,2.54a44,44,0,0,1-4,4.34c-7.26,7.84-17.62,10-26.7,13.78-8.26,3.46-16.36,8.1-26,8.66-7.62.43-15,4.33-22.65,5.05-5.58.52-11.46.64-17.09.82-7.43.25-14.64.68-21.9-1-10.91-2.57-21.79,1-32.71.18a64.68,64.68,0,0,0-12,.14c-7.22.76-14.5,1.31-21.21-1.75-12.64-5.77-25.67-10.75-36.7-19.7-5.8-4.71-12.94-7.53-19.87-10.37-4.23-1.74-3.7-5.53-4.37-8.81-.4-2,.42-4.09,2.34-4.44,3-.53,5.2-2.51,8.24-3.08,6.78-1.27,13.6-3.13,17.6-9.71.65-1.05,1.59-.69,2.57-.82,6-.76,11.83.45,17.71,1,2.94.25,5.74-2.38,8.2-1,4.9,2.73,8.66.17,13.06-1.16,3.7-1.12,5.57-4.78,9.34-5.35s3.64-2.72,2.69-5.83c-1.1-3.59-4.89-4.4-6.51-7.37a94.13,94.13,0,0,0-5.95-9.56c-.73-1-1.6-2.88-3.55-1.93s-2.08,2.71-1.62,4.31a73.47,73.47,0,0,0,2.94,7.89c.83,2,1.74,4,.65,6.19a1.33,1.33,0,0,1-1.25.12c-1.63-1.38-1.94-3.37-2.36-5.34-1.84-8.61-3.61-9.68-12-7.29a20,20,0,0,1-2.86.88c-5.76.75-11.57,2-16.92-1.66-2-1.36-4.15-.77-6.28-.28-4.28,1-5.44-.2-4.17-4.44.81-2.7,2-5.3,2.64-8,.81-3.61.17-6.17-4.63-5.86-9.28.59-16.21-5.34-22.18-10.72-5.77-5.19-10.59-9-18.5-6.53-2.7.84-3.88-.51-3.15-3.18.53-1.91,1.45-3.71,2.12-5.58s1-3.65-.82-5c-6.66-4.76-9.61-12.61-15.22-18.23-3.43-3.44-3.24-7.37-2-11.55.42-1.42.86-2.85,1.26-4.28,3.16-11.17,3.91-24.21,19.8-25.53a3.5,3.5,0,0,0,1.76-.92c4.81-4.2,10.67-4.92,16.71-5a32,32,0,0,0,5.46-.08c8.54-1.68,16.75-.24,24.83,2.43,5.56,1.85,7.31.85,8.22-5,.14-1-.07-2.23,1.24-2.37s1.66,1.08,1.54,2c-.83,6.3,2.21,10.27,7.35,13.37,2.23,1.36,2.51,4.36,2.76,6.67.29,2.59,1.26,4.79,3.09,6,7.69,5.08,11,13.35,14,21.12,2.1,5.5,2.55,11.09,9.09,13.13.12,0,.14.31.26.42,2.63,2.48,5.92,1.79,6.16-1.79.46-6.8,2.69-13.3,2.95-20.06s.26-13.34,0-20c-.43-10.93,3.49-21.75.69-32.73-.22-.88-1.23-2.22,1-3.37,1.76,5.61,3.56,10.9,2.21,16.85a34.21,34.21,0,0,0,.32,15.36c.24,1-.13,2.71,1.61,2.54,1.4-.14,1.48-1.59,1.62-2.75a77.84,77.84,0,0,0,1-11.93c-.18-4.89,1.87-9.08,4.89-14,.26,1.75.61,2.46.41,3-3.09,8.36-2.86,17.27-4.36,25.89-.26,1.49-.78,3.71,1.34,4.3,1.8.5,3.08-1.09,3.93-2.54,2.72-4.67,6-8.64,10.91-11.32,2.3-1.25,3.18-4.33,3.56-6.92.32-2.2-2.52-1.65-3.6-2.82-5.64-6.12-10.33-13.14-12.81-20.84-1.63-5.07-5.53-5.46-8.62-7.16-2.51-1.37-3.27,2.45-4.61,4.17-.4.52-.54,1.27-1,1.72-2.16,2.11-4.64,1.08-7,.52-1-.24-2-1-1.74-2.08.59-2.31,2.91-.84,4.23-1.66a21.15,21.15,0,0,0,3.32-2.14,2,2,0,0,0,.21-3.09c-2.18-2.46-10.09-3.2-13.12-.58,1.6-4.32-.11-6.11-3.68-7-2.06-.5-3.71-2-5.47-3.27-7-5.23-11.55-13.34-20.16-16.75-2.88-1.14-4-1.05-4.32,2a19.33,19.33,0,0,1-.62,2.89c-1.25,4.38-.11,5.76,4.44,5.28,2.92-.31,5.8-.41,7.31,2.74s-.33,10.2-2.49,13.06c-2.41,3.18-6.79,4.16-8.46,7.84-1.3,2.87-3.29,1.45-5.07,1.27-1.08-.11-2.82-.12-2.63-1.63.22-1.8,2.18-2.18,3.61-3,4.81-2.9,10-5.58,11.24-11.84.55-2.72.3-5.5-3.42-5-5.69.8-11.06,2.56-14,8.24-.83,1.63-2.12,3.15-3.8,2.13s-.13-2.84.42-4c2-4.25,4-8.44,3.47-13.33-.17-1.6.48-3.66-1.61-4.28a4.39,4.39,0,0,0-5.2,2c-1.45,2.57-3.37,5-3.35,8.2,0,1.55-.45,3.44-2.15,3.36-1.85-.09-1.62-2.19-1.78-3.61a38.73,38.73,0,0,0-.3-4.48c-.53-2.22-1-5.07-4.1-4.71-2.73.32-4.24,2.18-4.17,5.26a22.4,22.4,0,0,0,1.11,7.84,1.85,1.85,0,0,1-.79,2.58,2.36,2.36,0,0,1-1.86-.09c-2.23-1.21-3.31-10.87-1.47-12.59,5-4.66,5.93-9,2.3-14.61-6.07-9.32-9.7-19.45-12-30.27-2.07-9.68-3.78-19.66-11.53-27a3.14,3.14,0,0,1-.75-2.74c2.27-5.76-1-11.57.11-17.15,1.35-7-1.85-13.22-2.08-19.92-.14-4.22.94-6.2,5-5a23.3,23.3,0,0,0,13.64-.09c3.38-1,5.07-3.8,5.81-6.91.78-3.27-2.44-3.54-4.37-4.46-5.94-2.85-12.73-3.88-17.92-8.43-.74-.65-2.22-.62-3.35-.62-33.5,0-67-.12-100.48,0q-27.47.07-54.93.81c-21.85.59-43.73.88-65.59,1.39-22.78.53-45.55,1.18-68.33,1.4-6,.06-11.86,1.13-17.81,1.47-3.37.2-8.27,1.9-7.74,5.44.9,6,.35,11.73-.17,17.63-.7,7.92,1.16,16.18,0,23.73-1.46,9.81-.91,19.52-.82,29.12.1,11.28-.94,22.51-1.27,33.72-.31,10.57,1,20.65,2.84,30.82,2,11.41,6,22.48,6.44,34.17.33,9-3.31,17.53-4,26.45-.15,1.74-1.47,2.85-2.74,4A17.92,17.92,0,0,0,3,631.23c-1,2.48-.88,3.6,1.73,4.38,3,.9,4.35,3,3.42,6.12a34.38,34.38,0,0,0-.1,18.2c2.26,9.28,2.56,19,2.22,28.2-.46,12.1.29,24.09.69,36.1.21,6.61-.16,13.26.71,19.91,1.33,10.18,2.66,20.47,2.63,30.71,0,10.57,0,21.1,1.49,31.55.61,4.28,2.58,8.88,7.17,9.89,10.53,2.33,21.36,2.27,32.12,2.66,9.35.35,18.75.18,28,1.58a16.43,16.43,0,0,0,4.43,0c11-1.22,22.16-.24,33.25-.85,4.78-.26,10.06.52,15.16.45,13.07-.16,26.2.67,39.19-.34,8.56-.67,17,1.5,25.33,0,4.73-.84,9.19.24,13.76,0,5.68-.25,11.44-.43,17.17-.51,11.13-.17,22.32.38,33.36-.72,10.08-1,20.05.27,30.1-.31,11.09-.65,22.34.61,33.38.22,17.46-.62,34.91-.82,52.36-.8,36,0,72-.21,108,.15,20.57.2,41.17-.3,61.76-.31,32.08,0,64.16-.34,96.24-.22,22.19.09,44.39.62,66.58,1.17,8.93.22,17.86,1.43,26.79,1.47,14.39,0,28.8.35,43.17.63,21.85.42,43.7-.54,65.53.5,2.26.11,4-1,5-3.32,2.35-5.16,2-10.89,3.59-16.09,4-13.22,2.5-26.94,4.56-40.32,1.5-9.67,1.62-19.55,2.46-29.33.45-5.13,1.42-10.23,1.6-15.36.19-5.57-1.79-7.12-7.3-6.53-1.79.19-3.8,1.3-5.3.78-4.91-1.67-8.67.25-12.54,2.8-1.43.94-2.88,3.45-5.1,1.27-1.73-1.7-2-8.43-.24-9.19,3.13-1.32,5.21-4.17,8.1-5.4,3.7-1.58,8-3.49,11.87.08a1.29,1.29,0,0,0,2.11-.32c1.12-2.33,2.8-4.56,1.24-7.43a56.54,56.54,0,0,0-6.92-9.74c-4.25-4.93-4.21-12.37-9.7-16.58-.19-.14-.18-.65-.14-1,.4-3.47-1.27-6.48-2.26-9.62a74.45,74.45,0,0,1-3-17.07c-.89-11.92,2.46-23.42,3.18-35.18.48-7.7,2.1-16.08,5.92-23.36,1.78-3.38,3.46-6.75,5-10.27,2.91-6.72,6.76-13,10.33-19.45s9.08-12.43,7.19-21.32c-.87-4.11-.24-9.64,2-13,2.93-4.48.18-7.29-1.65-9.25-4-4.27-3.82-8.9-2.22-13.37a30.09,30.09,0,0,0,1.69-9.69c.07-3,.17-6.08,1.5-8.8,1.43-2.93-.75-6.82,2.67-9.15,3.72-2.52,5.87,2.36,9.21,1.84,2.58-.4,2.93,1.4,2.92,3.46-.05,8.84,0,17.67-.05,26.5,0,1.55-.08,3.31-2,3.52-7.2.76-6.54,6.14-6.88,11.12-.28,4.07.87,6.48,5.44,6,1.95-.21,3.28.48,3.38,2.64.09,1.85.3,3.74-2,4.55a8.7,8.7,0,0,0-2.67,1.29c-.95.79-1,2.14.45,2,5.86-.48,4.28,3.76,4.28,6.7q.08,174.24,0,348.48c0,2-.27,4-.41,5.94H842c-.47-5.42-.81-10.85-1.46-16.24-.35-2.93-1.58-5.72-5.15-5.57-3.23.14-5,2.21-5.13,5.52a13.73,13.73,0,0,0,0,3.45c1,4.25.55,8.56.74,12.84h-9c0-4.43-.34-8.82.66-13.29.63-2.83.25-6.25-2.55-8.31-3.14-2.31-11.81-.78-13.26,1.5-2.2,3.44-3.85,7.25-1.3,11.54A21.21,21.21,0,0,1,808,890H798c.15-3.63.35-7.27.43-10.9.18-8.46,0-8.65-7.95-9.14-4.77-.29-8.11,3.5-6.79,8,1.12,3.83-.11,5.89-3.81,7.19-4.64,1.64-9.41,1.05-14.13,1.34-4.13.25-8.45-1.4-12.37.64-2.09,1.09-3.15,1-5-.6-4.7-3.95-8.48-2.4-9.35,3.44h-6a50.28,50.28,0,0,1-2.22-17.9c.08-1.39.38-2.64-1.12-3.43s-3.21-1.09-4.7,0c-2.18,1.61-3.71,3.56-3.47,6.6A41.85,41.85,0,0,1,720,890h-6a161,161,0,0,1-1.39-26.78c.08-5.06,3.1-6.81,8.24-5.83,2.9.55,5.82,1.4,8.91-.16-2.22-1.15-5.36.64-6.49-2.15-1.69-4.17-5.51-4.25-8.87-4.93-9-1.85-18.18-.6-27.27-1.07-3.84-.2-6.38.13-2,4.75-6.76-.66-13,2.66-19.83-1.88,4.69-1.07,8.43-.15,12.08-.39.88,0,1.81-.28,1.84-1.27s-1-1.07-1.79-1.22c-2.82-.53-5.51.69-8.4.24-13.53-2.12-27.21-1.45-40.84-1.57-1.74,0-3.32.07-3.54,2.44-.41,4.46-1.32,8.9-.72,13.42,1.17,8.77.49,17.61,1,26.4h-6c-.22-7.65-.94-15.33-.52-23,.41-7.19-1.26-14.27-.43-21.42.28-2.47.21-5.22,3.87-5.26,13.63-.13,27.27-.35,40.9-.41s27.1.15,40.64,0c6.19-.06,12.62-.57,18.52-.07,9.47.8,18.89,1.87,28.43,1.72a23.08,23.08,0,0,1,3.9.62c7.26,1.19,14.54.25,23,.86-6.28-4.18-9.16-4.94-16.45-5.16-1.27,0-3.77,1-3.68-1,.1-2.33,2.25-.77,3.57-.62a9.57,9.57,0,0,0,4.91-.39c4.72-2,15,.26,18.12,4.21,1.61,2.06,2.51,2,4.83,1,2.9-1.35,6.72-4.29,9,1.39.38.94,2.18,1.52,3.53-.16-2.18-1-4.52-2.42-4-4.82.62-2.9,3.84-2.41,5.95-2.44a14.17,14.17,0,0,1,8,1.89c3.3,2.05,7.09,3.3,11.25,1.09a22.94,22.94,0,0,1,10.49-2.78c1,0,2.16-.25,2-1.61-.09-.89-1-1.3-1.87-1.35-7.65-.44-15.33.14-23-1-4.19-.63-8.66,3.07-11.81,1.88-10.44-4-21.26,0-31.6-2.7a3,3,0,0,0-2.26.79c-1.84,1.6-3.81,1.19-5.64.37-2.84-1.28-5.8-1.13-8.79-1.37-5.68-.44-11.23,1-17,.25-15-1.85-30.12-1.89-45.2-2.67-9.4-.48-18.88.82-28.2-1.32a12.43,12.43,0,0,0-3.49.08c-10.77.76-21.51-.54-32.27-.64-19.14-.17-38.28-1-57.41-1-12.28,0-24.57,0-36.85.24-10.86.21-21.82.27-32.75-.33-15.27-.83-30.59-.18-45.89-.67-10-.31-20-1.29-29.92-.84-19.53.91-39.05.55-58.56.69-12.27.08-24.58.19-36.84-.18-22.62-.69-45.15,1.66-67.77,1.16-17-.37-34,.93-50.94,1.41-19.12.54-38.24,1.21-57.36,1.43-21.77.24-43.54.15-65.31,0-20.59-.16-41.2,0-61.74-1.92-3.82-.36-5.11,1.16-5.21,5.18-.2,7.52,1.76,14.91,1.41,22.31A232.75,232.75,0,0,0,20,890H1Q1,447.75,1.06,5.5C1.06,4-.09,2.11,2,1c.11.63.13,1.78.34,1.82C7.06,3.63,7.72,7.64,9,11.13,13.37,23,17.5,34.92,22.17,46.63c1.35,3.37,1.34,8.89,5,9.38,1.95.26,2.86-5.93,3.94-9.32,4.21-13.13,8.44-26.25,12.51-39.41.95-3.07,2.51-4.11,5.79-4,8.46.3,16.94.13,25.42.2,5.48,0,6,.69,4.78,6.15a23.29,23.29,0,0,1-1.14,3.29C74.19,24.47,69.91,36,65.68,47.55,60.89,60.64,56.53,73.91,51.27,86.8c-5.33,13-8,26.31-6.45,40.37a197,197,0,0,1,.31,44.88c-2.2,18.66,2.07,35.48,8.59,52.41,6.91,17.95,13.18,36.14,19.82,54.18,1.3,3.56,1.7,7.91,6.93,8.59,1.43.18,1.8,2.23,2.34,3.63,7.84,19.93,9.72,40.45,3.9,61-3,10.58-7.08,21.29-17.8,27.31a6,6,0,0,0-3.1,5.87c.16,3,.1,6,0,9-.08,2.7,1.08,3.05,3.41,2.34,3.26-1,5.88-3.07,8.66-4.86,2.1-1.36,4.28-2.59,6.18-.2,1.69,2.13.34,3.93-1.34,5.63a29.65,29.65,0,0,0-3.52,4.82c-1.87,2.88-.89,4.15,2.43,4.4,3.61.27,7.26-.36,10.72-.22,9.9.4,19.77-.42,29.64,0,1,0,2.13.3,2.47-1,.26-1-.61-1.42-1.27-1.91-2.66-2-5.44-3.84-7.9-6.05-2-1.79-4-4.36-2.2-6.93s4.19-.66,6.23.45c.87.48,1.81.88,2.63,1.44,8.13,5.63,9,5.2,9.9-4.68.45-5-.56-8.74-5.71-11.42-10.92-5.68-16.29-16-18.58-27.36-2.86-14.18-3.81-28.6-.58-43,1.27-5.66,2.38-12-5.17-15-.28-.1-.42-.51-.66-.74-12.71-12.74-19.21-28.47-21.93-46-4.33-27.87-3.16-55.34,10.1-80.75,4.37-8.37,4.44-14-.18-22.16C81.81,128,78.78,113.41,77.75,98.41c-1.67-24.29.19-47.83,12.37-69.55a60.67,60.67,0,0,1,16.94-19.3C113.12,5.07,120.14,3.34,127,1h14c6.24,2.2,12.75,3.94,18.24,7.69,12.4,8.48,19.8,20.89,25.64,34.3,4.9,11.25,6.78,23.21,8,35.37,2.36,24.21-.23,47.46-12.35,69-1.93,3.43-2.31,6.17-.09,9.62,8.91,13.85,11.91,29.63,13,45.59,1.38,20.06-.74,39.92-8.57,58.76-5,11.93-11.32,23-22,30.86-2.66,2-2.56,3.93-1.78,6.4A98.54,98.54,0,0,1,164,345.91c-2.35,13.15-6.32,25.57-20.72,30.83a4.51,4.51,0,0,0-3.28,4c-.1,3.82-.11,7.66.13,11.48.13,2.08,1.26,4.54,3.69,3.49,3.59-1.56,8.07-.93,10.9-4.3.72-.86,1.55-1.44,2.53-.71,1.39,1,.23,2.11-.29,3-1.55,2.75-4,4.77-5.61,7.57-1.71,3.05-1.87,4.28,2.18,4.36,13.79.28,27.57.76,41.36,1.13a12.48,12.48,0,0,0,3-.4c3.39-.73,3.75-2.52,1.42-4.83-1.77-1.74-3.91-3.11-5.65-4.87-1.45-1.47-3.74-3.31-1.73-5.48s4.44-1,6.18.78c2.26,2.34,5,3.61,7.92,5,3.53,1.65,4.73-1.57,6.7-2.8,2.53-1.57-1.22-1.88-1.14-3.19a23.29,23.29,0,0,0-.22-2.48c-.26-6-3-10.42-8.5-12.94C195,372,190.28,365.26,187.28,358a88.6,88.6,0,0,1-3.52-59c3.43-12.33,3.57-12.38,16.2-12.53,2.89,0,4.21-.57,4.06-3.85-.88-20.14,1.52-40.23,1.1-60.37-.22-10.65.53-21.31,1.06-31.93.61-12.29,3.57-24.32,9.88-35.18,1.26-2.19,1-4-.13-6.06-5.8-11.21-9.41-23.2-9.78-35.74-.53-17.81-1.65-35.61-1.07-53.44a20.34,20.34,0,0,0-.11-3.49c-2.17-16.09-.5-32.26-.88-48.39-.06-2.7,1.35-4,4.06-3.74a175.31,175.31,0,0,0,23.25.87c3.53-.08,4.57,1.32,4.63,4.7.48,30.12,1.14,60.24,1.66,90.36a50.87,50.87,0,0,0,2.76,16.67c3.84,10.58,13.12,15.73,22.67,12.64,7.54-2.44,11.52-9.48,13.2-19.61.88-5.38.62-11,.6-16.46-.11-27.66-.23-55.31-.57-83-.05-4.18,1.16-5.5,5.32-5.31,6.82.31,13.67.19,20.49,0,3.94-.1,5.69,1.18,5.77,5.43.25,14.45.29,28.91.75,43.38.68,21.9,1.59,43.91-.76,65.84a82.29,82.29,0,0,1-7.62,27.7,9,9,0,0,0-.21,8.52c6.58,13.74,8.83,28.41,8.92,43.48.17,25.46,0,50.92-1.06,76.37-.18,4.33-2.17,9.76,4.05,12.21.35.14.5.84.68,1.3,8.76,22.48,10.1,45.18,1.59,68-3,8-7.79,14.66-16.22,17.92-2,.79-4.16,1.84-4.25,4.41a93.73,93.73,0,0,0,0,12.43c.36,3.81,2.94,4.8,6.34,2.82,3-1.75,5.94-3.63,8.95-5.39a2.78,2.78,0,0,1,3.28-.05c1.27,1,.87,2.38.36,3.66a11,11,0,0,1-4.9,5.42c-1.61,1-3.06,2.29-2.42,4.45s2.78,2.07,4.57,2.11c3.5.08,7,0,10.5.05,1.52,0,3.16,0,3.93-1.59,2.81-5.81,7.45-10.54,9.22-17a37.41,37.41,0,0,1,10.71-18.3c2.55-2.33,2.38-4.82.5-7.55a32.6,32.6,0,0,1-4.8-9.77c-4.75-16.92-4-33.85-.35-50.76,2.64-12.17,5-13.89,17.2-13.89h6c8.69,0,8.68,0,4.57-7.82-.38-.73-.55-1.56-.89-2.32C360,261.56,359,246.12,362,230.49c3.14-16.3,11.62-28.7,27.55-35.31,6.8-2.82,13.94-4.41,20.84-6.79,3.94-1.37,7.3-3.6,6.52-8.69-.58-3.78-5-7.57-8.95-7.25a61.67,61.67,0,0,0-11.3,1.85c-8.6,2.35-14.43,8.67-20,15.08-2.42,2.77-3.7,3-5.15-.54-3.75-9.05-7.25-18.23-11.49-27-1.93-4,.83-7.58-.34-11.12a11.43,11.43,0,0,1,.68-8.68c3.7-8.54,7.35-17.11,11-25.66,2.16-5,2.32-5,5.86-.8,8.47,10.1,18.26,17.47,32.52,15.7,4.08-.5,6.43-2.72,7.06-6.54.61-3.66-.85-6.32-4.53-7.89-5.84-2.49-12-3.87-18-6-10.92-3.92-20.86-9.54-26.2-20.27C357.43,69,357.53,46.93,368,25.28c6.43-13.36,17.25-21.2,32.46-22,16.62-.94,29.91,5.95,41.38,17.43,3.26,3.26,3.58,6.48,1.84,10.34q-5.92,13.22-11.88,26.41c-1.21,2.69-2.48,3.61-5.06,1A42.44,42.44,0,0,0,404,45.71c-5.65-1.09-10.63.71-11.85,4.56-1.13,3.6,1.74,7.61,7.39,9.72,6.7,2.5,13.68,4.32,20.22,7.16,11.73,5.1,20.75,13.22,24.88,25.7,5.78,17.5,4.9,35-.67,52.38-.92,2.88-3.34,5.63-1.82,9,6,13.28,6.93,27.38,5.93,41.57-1.12,15.88-7.35,29.07-21.6,37.82-8.09,5-17.19,6.91-25.9,10.05-5.51,2-9.4,6.35-8.37,10.27s6.19,5.89,12.31,4.41c.49-.11,1-.28,1.45-.4a43.28,43.28,0,0,0,20.51-11.7c2.52-2.47,3.92-1.79,5.19,1,3.11,6.81,6.15,13.65,9.36,20.41,3,6.24,6.76,12.41-1.53,18.46,6.39.43,11.83.39,17.28.44,2.41,0,2.62-1.51,2.62-3.31v-4.5q0-133.74,0-267.48c0-5.8.82-6.84,6.22-5.86,7.84,1.41,15.6-.13,23.4,0,14,.18,28-.06,42-.12,2.89,0,4.93,1,4.93,4.26,0,11.83,0,23.67,0,35.5,0,1.92-.61,3.11-2.83,3.22-12.76.64-25.53-.5-38.33.74-4.56.44-5.5,1.77-5.14,5.56.14,1.49.4,3,.45,4.47.21,6.43.32,6.59,6.94,6.59q16.5,0,33-.1c2.37,0,4.31.12,4.29,3.32-.09,11.83-.08,23.66-.07,35.5,0,3.26-1.64,4.19-4.73,4.14-8.83-.15-17.67-.06-26.5,0-14.72,0-13.25-1.78-13,13.39.07,3.32.9,4.61,4.62,4.52,11.83-.29,23.66-.08,35.49-.12,2.79,0,4.86.31,4.83,4q-.16,22.49,0,45c0,3.09-1.46,3.47-4.05,3.41-9.82-.2-19.64-.24-29.46-.28-10.9,0-10.9,0-11.76,10.7,0,.33-.08.66-.09,1-.1,3.73,1.05,5.81,5.46,5.72,11.32-.25,22.66,0,34-.11,3.76,0,5.38,1.35,5.32,5.31q-.27,16.49,0,33c.06,4-1.49,5.14-5.34,5-9.16-.24-18.33-.08-27.5-.08-11,0-11,0-11.91,10.56-.41,4.86.83,6.29,5.82,6.31,11.67,0,23.33.12,35,0,4.09,0,5.73,1.5,5.63,5.58-.17,6.33.27,12.68-.13,19-.3,4.89.87,7.32,6.22,6.3,3-.58,5.14.4,5.64,3.86.1.7.34,2.1,2,1.89v-4.48c0-42.89-.28-85.79.07-128.68.1-13.08-.66-26.13-.39-39.24.77-36.15.34-72.32.15-108.49,0-4.68,1-6.37,6-6.26,11.21.24,22.49.36,33.66-.51,10.15-.8,20.31.28,30.44-.94,5-.6,7.06,1.26,6.34,5.79-1.73,11-.72,21.94-.88,32.91-.07,4.27-1.86,5.43-5.79,5.36-9.5-.17-19,0-28.5-.05-10,0-10,0-10.76,9.68a14.81,14.81,0,0,1-.2,1.49c-.66,4.07.91,5.65,5.18,5.56,11-.24,22,.23,33-.25,5-.22,5.82,1.55,5.72,5.88-.25,10.33-.32,20.67,0,31,.15,4.63-1.33,6.07-5.92,6-9.31-.18-18.66-.18-28,.51-3.22.24-7.87-1.83-9.63,1.79-1.39,2.87-.28,6.87-.62,10.34-.45,4.52,1.2,6.15,5.87,6.08,11.32-.18,22.64-.12,33.93-1.13,3.58-.32,5.12,1,5.09,4.78-.12,15-.07,30,0,45,0,3-.59,4.52-4.18,4.41-9.66-.27-19.33-.12-29-.11-11.73,0-11.55,0-11.78,11.71-.09,4.41.8,6.16,5.71,5.88,11.4-.65,22.81.44,34.22.86,2.86.11,4.23,1,4.2,4.11q-.18,17.49,0,35c0,2.82-.92,3.73-3.76,3.69-9.83-.15-19.66-.07-29.49-.07-10.51,0-10.18,0-10.41,10.39-.11,5.15,2,6.21,6.45,6.16,11.13-.14,22.26-.05,33.39.69,4.37.29,5.16,1.77,5.22,5.66.15,10.28-1.25,20.68,1.72,30.81s5,20.36,4.21,30.94a142.16,142.16,0,0,1-2.45,18.17c-2.74,12.92-8.27,24.23-20.41,31-3.37,1.88-4.43,4.6-4,8.2.21,1.65.36,3.31.51,5,.36,4,2,4.82,5.57,2.85,2.63-1.44,5.18-3,7.77-4.52,1.15-.67,2.38-1.58,3.57-.21a3.52,3.52,0,0,1,.62,3.74c-1.13,3-3.17,5.44-5.29,7.81-.95,1.07-2.44,2.22-1.69,3.84.67,1.45,2.37.75,3.62.91,13,1.74,25.93,0,38.9-.06,1.93,0,4-.06,5.57-1.76-1.13-2.5-3.8-2.51-5.72-3.61-3.67-2.1-4.2-5.75-4.77-9.34a2.94,2.94,0,0,1,2.38-3.36c3.44-1,5.43,1.14,7.8,3.14,2.05,1.73,4.77,2.74,7.29,3.85,1.13.49,1.84-.49,2-1.57a37.18,37.18,0,0,0-.15-12.32c-.48-2.95-3.57-3-5.71-4.17-1.72-.91-3-2.57-4.57-3.84-11.3-9.36-14.64-22.5-15.7-36A105.71,105.71,0,0,1,651.25,290c.92-2.76,2.6-3.55,5.23-3.51,5.83.08,11.67-.11,17.49.13,3.35.14,4.36-1.09,4.28-4.32-.3-11-.61-22-.7-33-.28-36.14-.84-72.29-.93-108.43,0-16.28.62-32.61.76-48.93q.35-42.48.79-84.94c0-.17,0-.34,0-.5-.39-3.74,1.38-4.84,5-4.87,5.94,0,12,1,17.84-.67h19l15,68.53c.34,1.55,0,4,2,4s1.7-2.37,2.07-3.86c3.48-14.19,7.2-28.33,10.31-42.6C751.29,18.42,754,9.9,755,1h42c1.32,5,0,9.91-.11,14.88-.55,19.79-.61,39.61-.61,59.39,0,33.13-1.35,66.24-.54,99.4.68,27.79,1.29,55.61,1,83.43-.11,12.13-.17,24.25.72,36.37.29,4,2.27,9.33-4.13,11.29-.43.13-.55,1.81-.56,2.77-.09,11.39.3,22.61-4.34,33.68-4.06,9.67-8,19.22-17,24.89-6.63,4.14-9,9.28-8.08,16.58.16,1.26-.61,2.87.89,3.63s2.45-.58,3.52-1.29c4.16-2.77,8.2-5.84,13.52-5.9,3.18,0,4.25,1.14,2.59,4.33-2.16,4.13-5.7,6.86-9.06,9.82-.74.65-1.67,1.41-1.34,2.5s1.57,1.05,2.55,1.05c1.49,0,3,0,4.49-.17,10.28-.89,20.56-1.74,30.91-.91a13.78,13.78,0,0,0,10.31-3.34,42,42,0,0,0-6.63-6.15c-3.37-2.51-2.75-5.94-1.07-9s4.51-1.89,6.61-.66,4.41,1.39,6.58,2.15c6,2.1,8.42.08,7.93-6.27-.27-3.45-2.66-4.77-5.3-5.93-1.5-.66-3.3-.65-4.51-2A74.54,74.54,0,0,1,810.09,340c-3.48-9.8-2.91-20.09-2.27-30.16.54-8.41-.73-17.57,6.18-24.54.52-.53.21-1.93.21-2.93,0-6.3-.76-12.62-.87-18.87-.55-30.45-.29-60.91-1.36-91.37-.69-19.44.35-38.94.62-58.4.49-36.12,1.26-72.23,1.62-108.34A9,9,0,0,1,815,1c23,0,46,.05,69-.07,2.5,0,3.1.57,3.07,3.07-.15,12.33-.07,24.67-.07,37-11.41.28-22.82.64-34.23.81-8.35.13-9.59,1.23-9.56,9.4a16.5,16.5,0,0,1,0,2c-.43,3.75,1.36,5,4.95,4.92C861.09,58,874.05,58,887,58ZM237.69,215.6c.12,7.82-.63,15.59-1,23.38-.81,15.79.42,31.64-.66,47.46a12.49,12.49,0,0,0,.95,4.86,127,127,0,0,1,6.93,35c.24,5.58-1.63,10.77-2.35,16.17-2,14.82-7.69,27.28-21.29,35-1.56.88-3.31,2.19-2.94,4.28.57,3.25-.32,6.21-.88,9.32-.81,4.41,2,6.51,6.28,5.22,3.41-1,5.63-4.19,9.19-4.9,1-.2,2-1.83,3-.3a2.59,2.59,0,0,1-.54,3.23,76.66,76.66,0,0,1-6,6c-1.55,1.28-3.53,1.94-2.49,4.61s3.17,1.91,5.07,2c14.31.58,28.6-1.45,42.91-.1,1.84.17,3.91,0,4.78-1.94,1.12-2.49-1-3.44-2.64-4.65-2.38-1.79-4.73-3.65-7-5.63a3.25,3.25,0,0,1-.63-4.52c1.32-1.73,2.66-.09,3.89.55,3.06,1.61,6.06,3.31,9.14,4.89,1.9,1,3.86,1.4,5.18-1,2.4-4.25-.55-15.85-4.79-18.51-10.94-6.85-17.22-17.18-19.89-29.29-4-17.93-2.54-36,1-53.92.86-4.3,2.77-7.38,8-6.4,4.36.82,5.68-1,5.61-5.44-.24-16.31-.37-32.63,0-48.94.32-12.66.72-25.29-.17-37.93-.56-8.1-6.95-17.17-12.94-19.3-12.62-4.48-22.33,6.76-24.42,16.94C237.39,199.62,237.61,207.62,237.69,215.6ZM724.9,398.82h10.49c1.71,0,4.22,1.39,4.83-.91s-.57-4.84-3-6.26a19,19,0,0,1-2.18-1.19c-2.36-1.9-3.19-4.59-1.91-7.13,1.39-2.76,4.42-2.32,6.62-1.23S744,384,746.1,385c5.51,2.5,5.62,2.54,6.46-3.64.52-3.82,1.83-7.74-3.07-10.4-17-9.2-22.7-24.89-24.27-42.93-1.06-12.26,1.7-24.07,4-35.93.69-3.58,2.41-6,6.78-5.62,4,.36,8,0,12,.15,2.39.09,3.36-.47,2.69-3.12-1.45-5.79-2.62-11.66-4-17.47q-4-17-8.13-33.88c-.18-.74-.35-1.75-1.43-1.71s-1.42,1-1.53,1.73c-.41,2.79-1.4,5.44-2,8.16-4.11,18.44-8,36.93-11.9,55.42-1.6,7.58-1.55,7.6-8.95,8-1.66.1-3.23-.33-2.79,2.58,2.74,17.84,1.05,35-8.4,50.87-2.68,4.5-5.26,8.82-10,11.5-6.94,4-10.9,9.41-8.79,17.94.75,3,1.58,4,4.61,2.06,3.31-2.13,6.26-5.11,10.36-5.71,1.5-.22,3.62-.91,4.45,1.08a4.31,4.31,0,0,1-.79,5.09c-1.68,1.6-3.31,3.26-4.91,4.94-2,2.12-1.76,3.74,1.09,4.82a14.62,14.62,0,0,0,5.41.71C710.3,399.57,717.58,398.43,724.9,398.82ZM161.22,213.32c-.9-10.76-2.19-20.89-8.37-30-8.39-12.44-24.59-12.64-33.06-.16-11,16.23-11.72,33.79-7.2,52a36.63,36.63,0,0,0,5.68,12.71c9,12.48,23.45,12.31,33.31-.38C159.48,237.32,160,225.09,161.22,213.32Zm-.19-120c.07-10.65-2-22.61-5.47-29.89s-8-13.9-16.44-15.31c-12.26-2-19.72,2.51-24.5,15.24-7.08,18.83-6.63,37.47,3.5,55.3,4.45,7.84,11.09,12.41,20.36,11.81,8.29-.54,12.67-6.51,16.46-13C159.71,109.39,160.4,100.26,161,93.36ZM38.86,408c2.75-.34,6-.28,7.08-2.24S44,402,42.8,400.1c-.73-1.1-1.8-2-2.5-3.09-.86-1.35-2.5-2.89-1.27-4.46s3.46-1.24,5.14-.53c2.58,1.11,5,2.68,7.51,3.88,3.85,1.83,5.89.54,5.32-3.77-.41-3.11-1.15-6.17-1.07-9.35,0-1.67-1.39-2-2.55-2.66-11-6.4-16.92-16.26-20-28.45-2.77-10.9-4.29-21.61-2.75-32.92s2.92-22.52,8.7-32.65a3.32,3.32,0,0,0,.15-2.35Q34,266.89,28.51,250.08c-.29-.86-.22-2.2-1.62-2.1-1.2.09-1.43,1.29-1.75,2.19q-6.48,17.54-12.88,35.1c-.79,2.17-.94,4.59,1.17,5.82,2.54,1.47,2.89,3.72,2.7,6a38.35,38.35,0,0,0,1.65,13.19c3.52,12.83,1.44,25.51.34,38.14-.46,5.27-.11,11.17-3.1,16-2.61,4.19-3.81,8.84-5.41,13.36-1.22,3.44-2.72,7.89-.32,10.56,4.41,4.9,4,9.63,2.44,15.22-1.05,3.76,1.21,5.5,5.24,5.57C24.4,409.19,31.63,405.88,38.86,408Zm418.5,313.31c2.38.11,3.91.67,4.6.14,3.53-2.77,9.45-3,9.19-9.94-.09-2.29,2.19-5,2-7.94-.09-1.69.84-2.66,2.5-3.24,4.46-1.57,6.2-4.71,6.09-9.55,0-2.6-1.36-5.82,1.2-8,2.91-2.5,3.06-6.8,6.45-9.12,1.36-.92,1.26-4,.08-5.1-3.21-3.08-6.59-6.32-10.52-8.18-3.13-1.47-3.43,3.25-5.47,4.67a4.77,4.77,0,0,1-.43.25c-9,5-18.33,8.61-28.82,5.08-3.43-1.15-5.09.38-5.91,3.35a30.9,30.9,0,0,0-1,5.88c-1,13.1-.4,26.22-.67,39.33-.06,3.19,1.21,3.89,4.09,4A78.74,78.74,0,0,0,457.36,721.28Zm12.95-254.45c7.44,0,11.59-3.41,12.84-9.59.64-3.15,1.52-6.06,3.88-8.42,6.24-6.26,5.65-19-1.47-24a44.79,44.79,0,0,0-33.87-8,5.73,5.73,0,0,0-3.16,1.26c-7.94,7-10.12,18.53-6.16,28.68,1.64,4.22,6.29,5.12,7.93,8.49C454.77,464.35,464.3,463.42,470.31,466.83ZM709.2,76.57a6.55,6.55,0,0,0-1.75,5.14c.07,8.16-.87,16.31-.9,24.43-.16,38.79-.68,77.59.93,116.37a13.71,13.71,0,0,0,.24,2.48c.13.59.31,1.48,1.16,1.28a2.27,2.27,0,0,0,1.37-1.19,14.77,14.77,0,0,0,.74-2.89c4-18.19,7.73-36.42,11.92-54.56,1.74-7.5,3.58-15,2-22.62-3.5-16.91-7.12-33.81-11.11-50.61C712.45,88.72,712,82.71,709.2,76.57Zm55.13,153,1.86-.32C765,177.62,765.66,126,766,73.64a4.79,4.79,0,0,0-2.57,3.8c-4.73,18.49-9.35,37-14.12,55.48-3,11.5-4.57,22.72-.82,34.64,4,12.77,6.33,26.08,9.57,39.11C760,214.35,762.23,221.93,764.33,229.56ZM559.25,299a35.37,35.37,0,0,1-4,0c-3.52-.39-5,.45-4.48,4.57.39,3.17,1.56,6.08,1.94,9.21,1.35,11.19.08,22.14-2.58,33-.65,2.62-.1,4.36,1.71,6.65,3.64,4.63,9.86,6.58,12.45,12a32.86,32.86,0,0,0,11,13.22c5,3.43,7.86,9.26,13.79,11.62,2.13.84,3.41.73,4.65-1,2.94-4.22.57-13.1-4.19-14.85-3.94-1.45-6.64-4.23-9.31-7.23-5.92-6.65-8.57-15-10.3-23.23-2.18-10.44-3.27-21.12-.88-32C571.53,299.63,570.66,299,559.25,299ZM695.83,580.68c3,2,1.08,4.84,2.35,6.77,1,1.56.88,4,3.73,3.95,2.4,0,3.17-1.6,4.45-3.27,6.43-8.46,6.76-18.39,7.89-28.31.47-4.13,0-7.59-2.11-10.81-1.95-3-2.58-6.19-3.55-9.5-.93-3.15-1.62-6.73-3.39-9.68-2.43-4-7.09-3.87-10.11-2.55-4.38,1.92-9.24,4.72-11,9.49-1,2.7-.64,6.48.9,10.1,2.4-2.29,4.85-5.49,5.57.58.14,1.13,2,.92,3.12.51a11.87,11.87,0,0,1,5.33-1.07c1.1.1,2.54-.38,3.1,1a2.57,2.57,0,0,1-1.63,3.26c-4.58,1.65-3.2,3.42-.87,6.19,1.31,1.57,2.72,3.24,4,5.1-2.68,2.56-5.67,2.77-8.83,1.6a21.18,21.18,0,0,0-7.84-1c-2.12,0-3.82,1.15-2.58,3.49,2,3.76.1,4.34-3,4.39-1.1,0-2.55-.42-3.15.85-.75,1.57.9,2.28,1.6,3.32.54.79,1.62,1.27,1.41,2.82-4.5-.22-4.54,2.54-4,6a56.89,56.89,0,0,1,.28,8.47c0,1.47.1,2.49,1.94,2.8,5.59.93,9.31-2,9.53-7.74.05-1.19-.54-3.46,1.62-2.4C695,587.21,695,583.73,695.83,580.68ZM847.3,644.25c-.82,6.78,2.36,11.17,4.71,15.52s10,4.56,11.12.92c.85-2.65,1.09-5.49,1.76-8.21,1.43-5.74,0-11.46.13-17.15.3-11.09,1.08-22.25,4.6-33a43.39,43.39,0,0,0,1-5.39c.54-2.89,0-5-3-6.47-3.46-1.73-3.58-4.58-.46-7.17,1.62-1.34,1.2-2.54.61-3.89-.4-.91-1.64-2-2.31-1.19-2.6,3-8.13,3.81-7.38,9.51.41,3.22-.6,5.85-3.87,7.25-.72.31-1.66.88-1.86,1.52-2.19,7-5.58,13.6-5.51,21.27C846.85,627,844.46,636.31,847.3,644.25ZM2.11,220a57.7,57.7,0,0,0,3-6.2c2.07-6.27,6.49-11.77,6.8-18.56.4-8.91.49-17.82,1-26.74,1.21-20.42-1.26-40.83-1-61.28a5.44,5.44,0,0,0-.56-2.89C7.54,98.37,6.63,91,2.11,84.81ZM668.5,665.49c-5.94-.15-6.84.75-7.44,6.77-.69,6.88-.35,13.92-3.1,20.51-1.15,2.75-.6,4.6,2.83,5.4a30.13,30.13,0,0,1,10.72,4.91c4.11,2.95,7.88,1.95,10.58-2.28.51-.8,1.21-1.82.59-2.75-.81-1.25-2.08-.86-3.07-.2-1.52,1-3.14.87-4.81.86-3.86,0-4.38-1.62-2.22-4.58.57-.78,1-1.67,1.5-2.51,2-3.18.24-3.75-2.52-3.49-.81.07-1.61.49-2.42.52-1.46.07-3.21.33-3.61-1.7-.36-1.84.85-2.69,2.46-3.14a47.64,47.64,0,0,0,12.2-5.29c3.26-2,6.57-5.77,11-1.59.79.74,2.07-.08,3-1,3.75-3.77,4.8-10.32,2.12-14.15-3.08-4.41-5-4.3-12.08-1.39C679.28,662.41,674.79,666.15,668.5,665.49Zm-9.06-186.31h-1.5c-9.3,0-10.41,1.55-6.93,9.85.26.6.14,1.42.5,1.91,2.15,2.93,2,9,8.48,6.27,1-.41,3.36-1,3.64,1.19.26,2-1,3.82-2.44,5.24a3.18,3.18,0,0,1-2.82.67c-2.61-.43-2.46,1.05-1.6,2.62a10.58,10.58,0,0,0,2.71,3.53c3.94,2.86,4.83,6.25,4.26,11.18-.53,4.66,7.21-.74,7.61,4.68,0,.4,1.49-.3,1.92-1a3.38,3.38,0,0,0,.53-1.87c0-1.32-.38-2.62-.44-3.94-.21-4.11-.82-8.56,2.55-11.6,2.68-2.4,2.54-4.83,1.64-7.62-1.18-3.63-2.52-7.2-3.78-10.8C670.43,480,669.42,479.23,659.44,479.18Zm-195,184.17a17.5,17.5,0,0,1,2.67-.4,6.06,6.06,0,0,0,6.13-5.5c.27-3.56-3.36-.37-5-1.45a10.43,10.43,0,0,0-2.85-.89c-.81-.23-1.8-.47-1.75-1.45.07-1.36,1.29-1.21,2.26-1.29a23.81,23.81,0,0,0,4.95-.43c2.77-.83,5.06-3.12,5.33-5.62s-3.05-1.68-4.78-2.34c-2.16-.83-4.51-1.29-6-3.39-1.57-2.28-3.64-3.45-6.44-2.38s-5.83,1.94-5.81,5.84c0,1.28-.5,2.5-1.75,2.74-6.92,1.32-8.6,6.6-9.54,12.43a3.65,3.65,0,0,0,.39,2.71c.75.8,2,.29,2.64-.47,1.87-2.19,4.45-2.41,6.25-.93C455.3,663.94,460.21,662.07,464.42,663.35ZM690.26,644.5a34.12,34.12,0,0,0,0-3.75c-.2-1.52.82-3.77-1.33-4.3-2.33-.57-2.26,1.85-2.87,3.28a17.51,17.51,0,0,1-4.28,6.06c-1.26,1.17-2.79,2.19-4.44.93s-.52-2.86.09-4.08c1.24-2.5,3.05-4.67,4-7.41s.44-3.85-2.63-4.3c-6.7-1-14.3,5.94-13.61,13.11.26,2.82.23,5-1.84,7.28-2.31,2.48.54,4.95.77,7.48.1,1.08,1.14.65,2,.54,6.46-.83,12.37-3.16,18.32-5.76C689.09,651.52,691.39,648.89,690.26,644.5Zm-286.62-343c-1.52-.12-2.68-.24-3.84-.3-5.51-.28-5.64-.13-4.48,5.5,1,5,2.15,10,2,15.27-.15,4.07.65,7.29,6.14,4.53,2.13-1.07,4.85-1.17,7.32-1.29s3.35-1.29,3.2-3.43a50.64,50.64,0,0,1,2.41-19.14c.95-3-.46-3.23-2.69-2.47C410.28,301.34,406.77,301.27,403.64,301.52Zm79.11-2.6v-.19c-2.65,0-5.31.07-8,0-2.84-.09-3.31,1-2.51,3.66A61.32,61.32,0,0,1,474.53,313c1.23,10.57,1.13,10.58,12,10.8l.49,0c2.73.33,3.75-.8,4-3.61.41-5.25.49-10.56,2.18-15.67,1.84-5.54,1.71-5.62-4.41-5.66Zm218.67,412.2c-7.12.09-9,2-7.07,7,4,10.5,8.59,20.64,17,28.56,1.24,1.18,2.77,1.71,4,1.07s.81-2.4.18-3.58a15.8,15.8,0,0,1-1.49-3c-2.38-7.76-1.31-16.07-4.42-23.82C707.77,712.75,705.67,710.63,701.42,711.12Zm8.19-82.2c1.55,2,3,4,.14,5.41-1.46.74-2.72.3-3.07-1.34a21.15,21.15,0,0,1-.84-6.6c.16-1.48.8-2.59-1.18-2.86s-2.11,1.23-2,2.59A29.89,29.89,0,0,1,701,637.85a7.39,7.39,0,0,0,.77,6.72c1.51,2.16,17.52-.15,18.61-2.63a11.57,11.57,0,0,0-.68-11.38c-1.3-2.12-2.28-3.26-3.19.16-.69,2.58-1.87,1.65-3.11.42C712.5,630.28,712.39,628.51,709.61,628.92ZM363.43,531.63c2.28.41,3.89.34,4.44-1.81.51-2,.9-4-1.23-5.35-5.19-3.26-10.37-6.52-15.65-9.64a4.76,4.76,0,0,0-5.22.06c-1.63,1.12-1.25,3-.89,4.58.71,3.23,1.33,6.5,3.54,9.19.87,1.06,1.67,2.24,3.19,2C355.82,530,359.79,531.78,363.43,531.63ZM418.5,685c.69-3-1.08-3.13-3.12-3-4.23.32-4.53,3.84-5.35,6.78-2.16,7.83-2.12,16.3-6.8,23.41a1.58,1.58,0,0,0,.41,2.22,2.44,2.44,0,0,0,3.21-.09,48.8,48.8,0,0,0,5.5-6.27C417.22,701.12,417.34,692.85,418.5,685Zm300-155.38a50.11,50.11,0,0,0-.56-5.91c-.42-2.05,1.54-5.18-1.69-6a8.48,8.48,0,0,0-9,2.88c-1.3,1.59-1.4,2.69,0,4.29,4.52,5.23,8.75,10.65,9.56,17.91.14,1.2.29,3.07,2.24,2.35,1.44-.53,1.3-2,.9-3.42A34.53,34.53,0,0,1,718.45,529.62ZM864.68,363.85c.93-2.3-.55-2.86-2-3.31-1.69-.52-3-.24-3.19,1.87s-1,3.57-3.22,3.8c-5.29.55-7.39,3.48-7.19,8.72.08,2.05-.58,4.06,1.91,5s3.95-.63,5.5-2.31c1.33-1.46,1.2-3.74,3.37-4.75C863.6,371.06,864.34,367.37,864.68,363.85ZM721.85,593.18c-3.81.41-5.54,2.42-7.15,4.72s-2.59,5.51-5.17,6.51c-10.24,4-16.24,14.72-27.52,16.94-1.09.22-2.36,1-1.7,2.47.6,1.35,2,1.13,3.07.78a20.2,20.2,0,0,0,7.89-4.12,58.37,58.37,0,0,1,15.59-10.38c3.7-1.73,8.42-5.35,9.16-7.75C717.15,598.66,720,597,721.85,593.18ZM369.74,538.24c-.66-4.7-5.14-2-8-2.35-2-.22-6.1-1.4-5.16,2.78.79,3.54.44,8.5,4.53,10.12C363.86,549.89,369.74,542.85,369.74,538.24Zm25,178.37c1.79-.48,2.4-2.09,3-3.61,2.22-5.19,4.46-10.37,6.52-15.63.72-1.84,2.75-4.27.08-5.74s-3.91,1.2-5.24,3.14c-4.1,6-2.67,13.61-5.87,19.88C392.84,715.48,393.09,716.72,394.73,716.61Zm-3-11.87c0-1.68-.25-3.46-2.08-2.07a63.15,63.15,0,0,0-12,12.5c-1.08,1.42-.44,3.42.65,4.65,1.34,1.51,2.74.11,3.95-.64C387.82,715.81,389.89,710.19,391.78,704.74ZM731,475.62c-4.05,4.15-5.38,8-5.48,12a44.33,44.33,0,0,1-2.27,14.1c-.92,2.57,0,4.71,2.61,7.07C726.7,497.63,730.27,487.55,731,475.62ZM468.57,618.11c.18-1.7.19-3.5-1.74-4.12s-2.92,1.06-3.7,2.5c-1.65,3-3.29,6.09-4.76,9.22-.5,1.06-1.65,2.44-.22,3.56a3.52,3.52,0,0,0,3.77,0C466.44,627,468.27,623,468.57,618.11Zm-52.31,59.53a9.13,9.13,0,0,0,1.48,0c3.09-.52,6.17-1.68,6.38-5.11.18-2.72-2-5.07-4.64-5.75-3.38-.87-4.47,1.75-5.07,4.53a3.51,3.51,0,0,1-.74,1.25c-.79,1.07-2.95,1.47-1.81,3.47C412.83,677.74,414.62,677.57,416.26,677.64ZM696.81,516.31c8.79,2.49,13.57-3.48,19.39-6.71,1.12-.63,2.16-1.22,1.47-2.6-.8-1.6-2.22-1.35-3.36-.47-2.09,1.63-4.13,3.86-6.75,3.91C703.06,510.52,700.45,513.33,696.81,516.31Zm-264,173c-6.19,9.56-.58,20-2.88,29.88C435.21,709.59,430.39,699.14,432.79,689.29ZM720,581.65c-.39-1.63.28-3.33-1.24-4.32a1.21,1.21,0,0,0-1.7.5c-1.81,3.47-4.76,6.36-5.33,10.48-.22,1.57,1.27,3.27,1.73,2.28C715.1,587.07,720.37,586.18,720,581.65Zm4.27-44.76c2.47-6.06,3.3-12.15.17-18.21A29.14,29.14,0,0,0,724.29,536.89Zm-299.44,176c-.42-1.37.54-3.75-1.35-4.64-1.52-.72-1.81,1.52-2.64,2.41-1,1.07.24,10.66,1.41,11.55s1.83-.1,2-1.09C424.51,718.48,424.64,715.83,424.85,712.87ZM697,594.14c.47-2.42-1.56-3.63-2.43-3.17-3.26,1.7-2.82,5.68-4.29,8.55-.63,1.24.57,2.33,1.94,2.09C696.61,600.83,695.8,596.66,697,594.14ZM473.66,632.71c-.37-1.41.51-4.11-1.62-3.94a5.84,5.84,0,0,0-5.39,5.66c-.18,2.4,1.83,3,3.71,3.2C474.35,638,472.94,634.68,473.66,632.71Zm-98.84-92.58c.63,2.27-.35,5.82,3,6.39,2.54.44,2.76-2.42,2.79-4.32a5.12,5.12,0,0,0-4.44-5.17C374.17,536.65,375.16,538.89,374.82,540.13ZM694,763.8c4.57,0,7.06-1.93,8.35-5.29.28-.72-.69-1.31-1.67-1.3-1.8,0-8.7,4.2-8.54,5.31A1.44,1.44,0,0,0,694,763.8Zm31.17-171.2c3-4.85,3.55-9.51,1.93-13.77C721.38,582.65,726.15,587.48,725.12,592.6ZM411.26,764.05a5.52,5.52,0,0,0-3.18-3.24c-2.48-.94-5-1.66-7.57-2.4-1-.29-2.18-.38-2.49.84a1.76,1.76,0,0,0,1.92,2.26c3.71-.9,6.27.41,8.47,3.27.34.45,1.52.35,2.29.3C410.93,765.06,411.11,764.34,411.26,764.05ZM680,527.92c5.67,0,8.58-3.73,12.62-4.26a1.55,1.55,0,0,0,1.12-1.94c-.45-1.34-1.62-.78-2.5-.66C687.11,521.63,684.16,524.2,680,527.92ZM358.71,698.68c.91-.45,3.81.56,3.34-1.69-.43-2-3.16-3.13-5.48-3.53a2.21,2.21,0,0,0-2.81,2.53C354,698.51,356.07,698.9,358.71,698.68Zm79.42,35a3.67,3.67,0,0,0,3.35-3.6c.2-2.32-1.59-2.67-3.32-2.74-2.05-.1-3.07,1.06-3.15,3S436,733.47,438.13,733.69Zm-39.67-48.8c4.09.37,7.29-1.09,10.27-3.18a1.87,1.87,0,0,0,.81-2.16,1.59,1.59,0,0,0-1.19-.57C405.7,681.8,400.24,679.78,398.46,684.89Zm56.65-59.6c-3.9,2.11-4.22,6.15-6.2,9.21a1.5,1.5,0,0,0,.86,2,1.34,1.34,0,0,0,2-.87C452.88,632.22,454,628.75,455.11,625.29ZM853.57,876.37c1,0,2.53.36,2.22-2.2-.38-3.16-2.89-2.77-4.73-3.26a1.58,1.58,0,0,0-1.89,2.13C849.89,874.67,850.32,877.12,853.57,876.37ZM456.21,726.56c-4.28.59-5.46,4.43-8.5,5.7a1,1,0,0,0-.27,1.66,2.12,2.12,0,0,0,1.78.34C452.68,733.05,455,730.7,456.21,726.56ZM676.93,561.3c1.34-.56,3.44-1.12,3.54-3.52.08-1.72-1.54-2-2.88-1.94-2,.06-3.59.93-3.79,3.11C673.65,560.63,674.86,561.2,676.93,561.3ZM396.37,689c-.1-1-.81-1.75-1.59-1.23A11.22,11.22,0,0,0,390,694.3c-.2.78.74,1.1,1.37.9C394.33,694.24,395.52,691.75,396.37,689Zm269.24-58.49c3.39-3,2-5.29.08-7.55-.73-.83-1.59-1.28-2.49-.4s-1,2.07-.12,2.57C665.16,626.27,664.62,628.5,665.61,630.51ZM348.84,508.4l.65-.81c-.59-.72-1.21-1.42-1.76-2.17s-.86-1.38-1.35-2c-.84-1.1-2.26-3-3-.68-.56,1.79,1.47,3.79,3.19,5.09A6.42,6.42,0,0,0,348.84,508.4ZM667.1,539.63c4,.73,5.59-3,8.44-4.4.49-.23.33-1.37-.34-1.64a1.92,1.92,0,0,0-1.76.25C671.73,536.2,669.38,537.83,667.1,539.63Zm25.4,158.65c1.26-.68,3.67.11,3.49-2.42a2.26,2.26,0,0,0-2.48-1.91c-1.74.06-2.48,1.56-2.88,2.92S691.42,698.35,692.5,698.28ZM672.14,467.87c1-.5,3,1.08,3.15-.82.17-2.31-2.09-1.94-3.63-2.06-1.24-.09-2.95-.4-2.7,1.63C669.18,468.47,670.82,468,672.14,467.87Z" transform="translate(-0.74 -0.93)"/><path d="M198,890c-1.76-8.24.12-16.55-.44-24.82a93.91,93.91,0,0,1,.09-12c.25-3.8-1.48-5-5-4.93-10.64.31-21.28.64-31.92.72-18.1.15-36.21-.39-54.29.28-23.18.86-46.29-.22-69.42-1.15-5.6-.22-5.68.68-6.33,6.28-.71,6,1.65,11.53,2,17.38A88.55,88.55,0,0,1,32,890H23c4.15-6.11,1.44-12.91,2-19.39.79-8.76-1.85-17.38-.71-26.19.47-3.56,1.8-4.25,5-4.3,18.62-.28,37.2.72,55.77,1.59,19.34.91,38.64,1,58,.42,11.83-.38,23.78-.93,35.68.47,4.51.53,9.21-.82,13.83-.91,8.41-.18,11,3.21,9.78,11.55-1.71,12.21-1.09,24.5-.38,36.76Z" transform="translate(-0.74 -0.93)"/><path d="M597,890c1.13-4.62.49-9.25,0-13.86a116.88,116.88,0,0,1,0-22.83c.32-3.73-.71-5.9-5.25-5.64-6.94.39-13.83-.63-20.76-1.42s-13.86-.18-20.78-.17c-11.26,0-22.52-.19-33.78,0-11.1.16-22.25,1-33.3.33-16.46-1-32.89.09-49.32-.52-6.59-.24-7.3.42-7,7,.16,4.06-1,7.88-1.05,11.89,0,8.44,1.82,16.79,1.32,25.25h-6c.25-9.79.7-19.59.66-29.38,0-5.1-.21-10.2,0-15.31.17-3.41,1.15-5.19,5-5.17q48.66.27,97.32.32c16.12,0,32.23-.19,48.35-.23,7.15,0,14.31.09,21.46.23s7.89.51,8.33,8c.8,13.85,1.27,27.72,1.88,41.58Z" transform="translate(-0.74 -0.93)"/><path d="M396,890c-1.1-3.88.92-7.55.79-11.35-.33-9.54-.78-19.08-1.12-28.62-.11-2.93-1.6-4.18-4.41-4.17-15.62,0-31.23-.19-46.86.34-13.73.47-27.48,0-41.22.12-10.1.06-20.24-.17-30.29.6-13.43,1-26.86.55-40.29.83-6.68.13-7.44.54-7.54,7.44-.16,11.6-.05,23.21-.06,34.81h-5c0-10.14,0-20.27.18-30.41a125.6,125.6,0,0,1,1.18-14.36c.48-3.52,3.54-3.53,6.24-3.53,15.13-.05,30.26.06,45.38-.11,10.35-.12,20.7-.79,31-.88,29.08-.27,58.15-.38,87.23-.51,9.22,0,9.32,0,9.45,9.38.18,13.47.2,26.95.29,40.42Z" transform="translate(-0.74 -0.93)"/><path d="M85,890c-1.4-8-1.42-8.17-10.18-7.06-9,1.14-17.72-1.74-26.66-1.35a3.37,3.37,0,0,1-3.67-3.34c-.4-5.46-1.11-10.91-.07-16.39.52-2.73,1.82-4.08,4.69-4.06,12.4.09,24.78.55,37.17,1.05,5.57.23,11.23.54,16.85.3,2.85-.12,4.27.86,4.31,4,.1,9,1.5,17.88.56,26.86h-6a88.06,88.06,0,0,0-.51-19.4c-.3-1.87-.5-2.88-2.81-3.07-8.82-.69-17.68.78-26.47-.58a1.47,1.47,0,0,0-1.22.62c-1.5,3-4,2.06-6.45,1.83a79.72,79.72,0,0,0-9.4-.29c-1.81,0-4,.51-3.72,3,.22,2.28,2.25,2.06,3.91,2a130.25,130.25,0,0,1,22.75,1.36C90.84,877.05,90.86,876.88,91,890Z" transform="translate(-0.74 -0.93)"/><path d="M674,890c.9-6.56-1.48-8.57-8.1-7.49-7.89,1.29-15.89.91-23.85.8-2.4,0-3.59-1.38-3.95-3.67-.91-5.95-.66-11.95-.6-17.93,0-2.9,1.92-3.56,4.34-3.6,13.73-.25,27.46-1.24,41.2-.34a29.77,29.77,0,0,0,6-.14c6.83-.94,6.67-1,7.63,5.42,1.35,9,.31,18,.36,27h-7c0-6-.19-12,0-18,.11-4.18-1.72-5.58-5.75-5.37-12.22.62-24.47-1.54-36.72.28-2,.29-3,.69-3.61,2.55-1.6,4.74.28,7.24,5.72,6.67a185.72,185.72,0,0,1,25.94-.71c2.33.07,4.71.35,4.75,3.19,0,3.81,1.73,7.5.71,11.35Z" transform="translate(-0.74 -0.93)"/><path d="M515,890c-.1-9.11-.22-18.22-.31-27.34,0-4.84,3.37-5,6.88-5,11.62.11,23.24.3,34.86.34,6.14,0,12.29-.12,18.42-.34,4.44-.15,6.84,1.21,6.35,6.27-.42,4.28-.07,8.63-.1,13,0,5.61-1.05,6.19-6.84,6.33-8.34.22-16.55-.94-24.81-1.53C540,881,540,881.08,539,890h-6c.92-2.93.45-5.94.45-8.91,0-3.45,1.32-5.31,4.94-5.37,3.16-.05,6.3-.41,9.46-.44,7.63-.07,15.26.06,22.89-.11,2.13,0,4.62-.8,5.09-3.22a5.87,5.87,0,0,0-2.55-6.09c-1.62-1.11-3.51-.75-5.33-.72-8.8.17-17.65.83-26.38-.35-5.84-.8-11.62-.36-17.42-.65-2.12-.1-3.64.65-4,2.82-.6,3.36-2.14,6.5-1.06,10.21A33.52,33.52,0,0,1,520,890Z" transform="translate(-0.74 -0.93)"/><path d="M125,890c-.29-9.12-.38-18.21,1-27.28.45-3,2.4-3.5,4.56-3.51,15.83-.09,31.66-.13,47.49,0,3.35,0,4.64,2.09,5.12,5.79.61,4.71-.48,9.11-.59,13.64-.07,2.73-1.18,3.89-3.75,4.25a81.87,81.87,0,0,1-16,.28c-2.49-.14-5,.21-7.39-.09-5.65-.72-8.39,1.75-9.47,6.89h-5a54.23,54.23,0,0,0,.29-6.48c-.31-4.53,1.51-5.59,6.07-6.06,8.28-.85,16.43.63,24.62.08,3.15-.21,6.41-1,6.37-4.82,0-3.46-.93-6.38-6-6.16-11.46.47-23,.12-34.45.17-5.49,0-6.7,1.23-6.8,6.79s-.05,11-.06,16.48Z" transform="translate(-0.74 -0.93)"/><path d="M314,890c0-7.3-.3-14.61.09-21.89.46-8.53,2.18-9.9,10.64-10.08,16.28-.36,32.57.45,48.84-.55,3.64-.23,5.86,1.6,6.05,5.12a114.55,114.55,0,0,1-.19,13.36c-.24,3.56-2.36,5.37-6.05,5-10.41-1.09-20.87.77-31.27-.72-3.62-.53-5.27,1.3-5.29,4.79,0,1.66.12,3.32.18,5h-5a61.62,61.62,0,0,1,.38-7.91c.48-5.82,3.72-7.08,8.75-6.81,4.82.25,9.67.31,14.49.12,5.3-.21,10.65.59,15.93-.78,2.62-.68,3.69-2.21,3.1-4.73s0-5.67-4.06-5.7c-14.9-.1-29.81.11-44.71-.76-4.69-.28-7,2.69-7.06,7.59,0,6.32.11,12.65.18,19Z" transform="translate(-0.74 -0.93)"/><path d="M476,890c-.62-7.55-.26-8.28-10.93-9-6.29-.42-12.63-.16-18.95-.12-4.23,0-6.16-1.53-6.3-6.21s-.65-9.12.53-13.73c.62-2.38,1.53-3.48,3.94-3.45,13,.11,25.94.09,38.91.38,2.68.06,5.31-.12,7.94-.32,4-.29,5.8,1.45,5.77,5.5-.06,9,0,18,.09,27h-5c.18-6.63.5-13.26.45-19.89,0-2,.29-5-2.36-5.47-3.53-.67-7-2.5-10.74-1.38-4.25,1.29-8.56.81-12.87.81-5.64,0-11.29,0-16.93.07-4,.05-5.55,2.37-5.6,6.1-.05,3.89,2.47,4,5.39,4,6.11-.14,12.21.31,18.34.14,12.77-.35,12.78,0,13.16,12.67,0,1,.11,2,.16,3Z" transform="translate(-0.74 -0.93)"/><path d="M275,890a28.36,28.36,0,0,1,.43-3.47c.7-2.74-.13-3.71-3.1-4.07-9-1.09-17.88.79-26.84.69-5.77,0-6.82-.6-6.77-6.36,0-4.48-.53-9,.49-13.44.68-3,2-4.4,5.47-4.28,8.15.27,16.33-.19,24.47.17,5.22.22,10.17-1.52,15.37-1.25,2.69.14,5.25.79,7.87,1s3.06,1.58,3,3.63c-.05,9.12.53,18.24-.43,27.34h-4c0-7,.07-14,.13-21,0-3-1.08-4.6-4.43-4.48-11.77.4-23.54.6-35.3.94-5.56.16-7.13,2.15-7.64,7.62-.6,6.39,4,4.17,6.52,3.82,5.47-.78,10.81.44,16.46-.5,10.08-1.68,14.08-2,12.59,10.62L279,890Z" transform="translate(-0.74 -0.93)"/><path d="M191.46,582.82c-4.15-6.45-7.36-5.36-12.48.26S170.39,596.29,163,600c-3,1.49-5.82,3.19-8.81,4.61-1,.47-2.69.93-3.31.45-2-1.61-.24-4.8-2.44-6.67-1.94-1.66-3.8-3.59-.68-6.05a4.06,4.06,0,0,0,.89-2.24c.41-1.86-1.44-4.64.79-5.45a11.13,11.13,0,0,1,7.11.47c2.22.86,3,0,4.6-1.16,7.78-5.46,8.32-11.87,4.51-20.13-3-6.43-4.59-13.49-6.79-20.29-.29-.91-.21-2.13-1.54-2.18-1.06,0-1,1.18-1.51,1.71-5.27,5.22-9.62,10.93-10.58,18.6a1.71,1.71,0,0,1-.84,1.18c-3.33,1.52-4.78,4.62-2.75,7.17,2.21,2.77,5.95,3.91,9.07-.88-1.15,8.52-1.27,8.34-9,7.1a23.56,23.56,0,0,0-12.59,1.73c-1.56.65-2.58,1.21-3.93-.05a3.6,3.6,0,0,1-1.25-3.58c.42-1.95,2.12-2.08,3.57-1.94,5.37.53,7.92-2.51,9.38-7.07,1.05-3.25-.1-4.93-3.54-4.48-5.26.68-10.56,1.3-15.39,3.76-.72.37-1.35,1.15-2.19.52s-.48-1.55,0-2.19c2.17-2.7.18-6.75,3.06-9.23.56-.49.31-1.29-.45-1.55a1.56,1.56,0,0,0-2,1.09c-1.08,3-3.3,5.17-5.35,7.42-.5-.35-1-.55-1-.69.78-5.43,5-9.37,8.12-12.82s9.29-4.9,14.76-1.5c2.52,1.57,5.27,1.26,7.67-1,5.37-5.14,10.16-10.83,17-14.42,2.78-1.46,4.18-5.08,2.61-8.83-.55-1.3-1-3.33.67-3.91s1.72,1.6,2.29,2.65c.81,1.49.47,4,3.17,3.69,2.42-.28,2.41-2.41,2.72-4.19.68-3.83,2-4.63,4.82-1.35,2.15,2.53,6.48,1.72,8.26,5.12.75,1.43,2.18,2.34,0,4.06s-1.53,4.85-1.35,7.45c.1,1.39,1.2,1.87,2.48,2a2.47,2.47,0,0,0,2.71-1.53,68.17,68.17,0,0,0,7.4-17.7c1.59-6.58,3.44-12.73-1.78-18.49a4.15,4.15,0,0,1-.54-1.87,13.52,13.52,0,0,0-16.37-10.92c-1.61.33-3.3.28-4.94.47-3.45.41-5.79,1.89-6.68,5.62-.84,3.53.19,5.12,3.66,6.17,2.37.72,4.22,10,2.73,12.24-1.26,1.84-3.32,1.7-4.94.9-2-1-3.68-1.09-5.52.85-.75-7.59-4.6-14.1-3.12-21.57,1-5,2.2-9.68,6.05-13.28a6.89,6.89,0,0,0,2.16-4.89,20.91,20.91,0,0,1,2.33-8.62c3.69-7.09,10.24-9.41,17.61-6.41,1.54.63,3.06,1.59,2.8,3.1-1.58,9.46,5.23,15.85,8.1,23.69a48.16,48.16,0,0,0,7.57,14c.82,1,1.5,1.86,2.8,1.32,3.9-1.62,8-2.48,10.67-6.66a38.17,38.17,0,0,1,14.53-13.18c2.86-1.52,3.54-.42,3.42,2.28s-.92,5.25-.46,8c.35,2.08,1.41,3.39,3.47,3.67s3.08-.69,4.39-2.37c3.09-3.95,2-9.16,4.7-13.3,1.08-1.66-1.81-2.64-3.73-2.49-1.21.1-2.1,1.86-3.81.64a103.42,103.42,0,0,1,19-18.94c7.45-5.7,14.79-11.44,22.9-16.25,2.83-1.68,5-4.58,8.35-5.78,1.43-.51,3.4-.68,2.45,1.22-3,6.06-4.77,12.93-9.58,18.18-.7-.64-1.14-.87-1.13-1.06.14-1.86,1.84-4-.48-5.43-2.15-1.33-3.77.42-5.3,1.66a67.07,67.07,0,0,0-7.1,6.12c-2.85,3.09-5.65,5.82-10.18,6.25-2.22.21-3,2.16-3.29,4.4-.52,4.69,0,9.31.49,13.94.14,1.4.78,2.82-.13,4.12-1.63-.16-1.56-1.34-1.86-2.22-.64-1.87-1.71-3.54-3.85-3.15s-1.18,2.55-1.59,4c-1.7,6-5,11.37-8.75,16.34-1.49,2-4,1.44-6,.17-4.22-2.79-6.36-1-7.48,3.19-.27,1-.35,2.19-1.65,2-1.07-.15-1.48-1.28-1.59-2.31-.27-2.42.65-4.56,1.69-6.68.45-.93.57-2.09-.43-2.7s-2.73-.35-3.07.71c-1.31,4.06-5.6,5.62-7.24,9.75s-.35,4.61,2.82,5.15c1.79.3,4.86-.77,4.68,2.16-.2,3.41-3.46,2.87-5.92,2.87-3.27,0-5-3.14-8-3.88-1.19-.29-2.14-1.66-3.6-.39-5.82,5-6.44,14.6-1,19.91a20.12,20.12,0,0,0,6.27,4c7.9,3.28,14,8.39,17.95,16.09,1,2,2,3.75,1.68,6.22-.5-.08-1.18,0-1.3-.24-3.54-6.76-10.88-9.8-15.31-15.71-2-2.65-5.31-3.46-8.45-3.88s-3.59,2.18-3.52,4.29c.28,8.49-2.52,15.94-7,22.93-1.87,2.89-1.13,6.15-.76,9.25A41.84,41.84,0,0,1,191.46,582.82ZM143.79,552.3c-.41-2.43-2.47-1.87-3.95-2.13-1.17-.21-2.81.19-2,1.74s1.16,3.94,3.42,3.74C142.78,555.52,143.28,553.69,143.79,552.3Z" transform="translate(-0.74 -0.93)"/><path d="M650.42,759a61.34,61.34,0,0,0,1.74,17.32,3.89,3.89,0,0,1-.86,4.16c-5.78,5.65-11,11.93-17.82,16.41-5,3.31-11,3.36-16.8,3.24-2.37,0-3-2-3.61-4.11-2.51-8.93,3.77-13.91,8.72-19.31,3.27-3.55,8.43-5.78,5.94-12.16-.43-1.1.86-2.84,2.12-3.07,3.3-.58,5.89-5.14,10.25-.84C642.69,763.21,646.52,759.47,650.42,759Z" transform="translate(-0.74 -0.93)"/><path d="M179.32,654.52c-.68-6.91-8.21-12.7-14.81-11.9-3.12.38-6.33,0-9.47.27-2.7.24-2.25-2.9-3.73-3.3-6.5-1.77-6.7-5.57-4-10.68.35-.66,0-1.65.12-2.47.17-1.53.52-3.35,2.15-3.61,2.37-.4,2,2.17,2,3.19.27,4.18,4.81,4,6.65,6.62-2.12,1.57-3.67,0-5.31-.38-1-.23-2-.87-2.63.32-.41.78.06,1.55.62,2.25,4.13,5.22,13.67,6.52,18.86,2.51,1.23-1,.63-1.67-.43-2.15-1.43-.65-3.41.08-4.72-2.16,9.4-1.69,16.8-6.7,24.13-12.14,1.18-.87,4.6-.74,7-1.59,9.46-3.36,9.44-3.34,10.72-15.33.19-1.73-.85-3.74,1-5.12.58-.45,1.26,0,1.74.48,1.52,1.58,1,3.5.52,5.19-1.69,5.55-1.88,11.42-4.07,16.9-1.46,3.67-.63,7.53,1.3,11.08.53,1,1.31,2.26.42,3.25-1.33,1.48-2.3-.52-3.49-.71-2.46-.4-3.11-5.27-6.32-3.07-2.22,1.52-1.79,4.87-2.78,7.22A81.42,81.42,0,0,0,190.53,654c-.41,1.92-.92,3.15-3.21,1.27C184.37,652.81,184.22,653,179.32,654.52Zm10.11-24.93a9.07,9.07,0,0,0,5-4.38c.65-1.25-1.64-2.22-2.71-2.05-2.2.34-3.57,2.31-4.47,4.13C186.69,628.45,188.2,629.16,189.43,629.59Z" transform="translate(-0.74 -0.93)"/><path d="M258.6,595.91c-1.33,8.45,2.79,17,6.16,25.41,2.13,5.32.76,9.93.33,15-1.2,13.93-3.89,28.14,4.83,41,.91,1.33,2.13,3.11.8,4.56-1.52,1.64-3-.1-4.39-.89-3.74-2.19-5.07.11-6.09,3.14-.42,1.28.08,3.63-2.05,3.23-1.82-.35-1.05-2.52-1.12-3.92-.12-2.33,0-4.67-.14-7-.17-2.49.72-4.28,3.1-5.06,1.8-.59,3.19-1.52,2.67-3.52-1.67-6.43-2.09-13-7.54-18.37-4.27-4.18-4.58-10.9-4.9-16.86-.37-6.8-1.26-13.53-2.17-20.26a8.41,8.41,0,0,1,4.08-8.87c1.27-.82,3.48-1.89,2.56-3-2.62-3.24-2.49-5.62.61-8.3.71-.62.64-2.26-.45-3.16-1.47-1.22-3.06-.89-4.71-.31-1,.35-2.32,2.41-3.07,0-.55-1.81-.19-3.56,2.18-4.29,7.15-2.21,9.25-.7,9.31,6.89C258.61,592.4,258.6,593.56,258.6,595.91Z" transform="translate(-0.74 -0.93)"/><path d="M162.17,759.26c-.45,5.56-4,9.82-5,15a67.66,67.66,0,0,0-.13,22.13c.47,3.36-.44,4.23-2.61,5.05-8.43,3.21-18.75-2.1-21.28-10.58-2.24-7.52-3.61-15.26-5.26-22.86-1-4.68,2.23-10,5.29-14a57.67,57.67,0,0,0,6.92-11.82c.5-1.13,1.15-2.26,2.52-1.87s.85,1.77.58,2.55c-1.15,3.36.45,7.55-5,9.55-4.16,1.53-4.9,6.82-4.69,11.3.12,2.49,2.37,3.22,4.36,3.28a34.11,34.11,0,0,1,11.58,2.31,6.19,6.19,0,0,0,7.69-2.8C158.71,764,160.5,761.68,162.17,759.26ZM148,775.85c-.7-2.54-2.63-3.57-5.13-3.47-1.52.07-3.81-.11-3.59,2.29.23,2.62,2.33,3.86,4.79,4.18C146.18,779.11,147.59,778.15,148,775.85Z" transform="translate(-0.74 -0.93)"/><path d="M223.46,751.33c4.44,3.52,7.68,7.12,6.69,13-.2,1.24,0,3.15-1.9,2.81-4.34-.76-6.75,2.91-10.21,4.14-1.51.54-2,2.07,0,2.77,3.6,1.23,7.56,3,10.11-1.6,1.27-2.28,2.44-1.71,4.41-1.14,6.31,1.82,11.4,4.54,12.27,12a5,5,0,0,1-1.64,4.83c-3.66,3.33-8,5.06-12.79,4.37a84.93,84.93,0,0,0-16.38-.92c-3.13.15-4.21-1.06-3.93-4.06.17-1.81,0-3.65,0-5.48a3.29,3.29,0,0,0-2.75-3.55c-4.11-1.21-6.05-10-2.94-12.81,1.4-1.27,2.54-.39,3.39.61,1.11,1.31,2,2.8-.07,4.18-1,.69-2.93,1.38-1.7,2.88s2.45,0,3.72-.86a45.21,45.21,0,0,1,12.9-6.31c2.65-.75,3.34-2.53,4-4.49.72-2.15,0-3.68-2.29-4.76S222.57,753.75,223.46,751.33Z" transform="translate(-0.74 -0.93)"/><path d="M229.63,559.9c.48,4.12,1,8.24,1.42,12.36.26,2.48.25,4.84,3.23,6.1,2,.83,2.43,12.12.85,13.48-.24.2-.66.48-.85.4-6-2.55-5.54,2.82-6.44,5.66-1.28,4.05-5,.36-6.64,2.63-2.14-1.55-.79-3.26-.11-4.82a17.81,17.81,0,0,1,2.65-4.76c6.55-7.34,6.39-15.8,4.61-24.69C228,564.27,227,562.09,229.63,559.9Z" transform="translate(-0.74 -0.93)"/><path d="M266.84,540.36c-5.33-2.93-7.74.92-11,1.87a1.63,1.63,0,0,0-1.11,2.38c2.28,3.48-3.13,4.76-2.14,7.84.05.14-.78.84-1.08.77a14.91,14.91,0,0,1-6.84-3.89c-1.35-1.32-.91-3.19.12-4.6a12.18,12.18,0,0,0,1.75-4.53c1.22-4.81,3.25-5.78,8-4.24,1.56.51,2.94,1.23,4.74.4C263.16,534.55,263.22,534.67,266.84,540.36Z" transform="translate(-0.74 -0.93)"/><path d="M180.06,686c-3.61.3-4.61-.79-2.91-3.67a16.16,16.16,0,0,0,1.35-2.57c1.28-3.6,6.63-7.12,10.24-6.57,1.53.23,3.37,1,3.47,2.43.24,3.72.61,6.91,4.56,8.87,1.4.69.15,2.45-1.34,2.79-1.7.39-4.7,2.83-5,.24-.83-8-3.9-5.51-7.6-2.28A4,4,0,0,1,180.06,686Z" transform="translate(-0.74 -0.93)"/><path d="M208,586.78a2.17,2.17,0,0,1-1.59-2.16c-.18-10.42-1.73-20.71-2.7-31.06-.13-1.36-.74-3.44,1.49-3.5s2.32,2,2.38,3.69A50.4,50.4,0,0,0,211,571C213,576.19,210.58,581.64,208,586.78Z" transform="translate(-0.74 -0.93)"/><path d="M141.41,686.11c0-1.61-.25-2.52,0-3.2,1.23-2.86-5.48-4.66-1.44-6.87,1.53-.83,5.25.31,8-.53a2.08,2.08,0,0,1,1.34.08c1.5,7.42,6.71,2.14,10.11,3,.16,0,.31.11.67.23-3.91,3.29-7.58,6.72-13.27,4.91C144.78,683.05,143.75,685.11,141.41,686.11Z" transform="translate(-0.74 -0.93)"/><path d="M348.46,590.68c-1.22-3-2.2-6.27,1-8.31,2.71-1.73,5.28,0,7.43,2.17,2.68,2.74,2.85,5.29.31,8.24-.94,1.1-1.46,2.59-2.79,3.4-1.86,1.14-3.33.38-4.05-1.32s.76-2.31,2.13-2.49c3.6-.48,5-1.9,2.23-5.08-1.67-1.89-3.39-3-4.23.74C350.27,589.11,350.08,590.38,348.46,590.68Z" transform="translate(-0.74 -0.93)"/><path d="M120.84,620.76c1.34-4.22,4.38-4,6.66-3.06,6.53,2.76,11.95.67,17.34-2.83.94-.62,2.34-2.51,3.32-.92,1.14,1.83-.87,2.57-2.27,3.56-6.53,4.63-13.32,6.42-21,2.94C124,620.05,122.69,620.59,120.84,620.76Z" transform="translate(-0.74 -0.93)"/><path d="M161.68,669.76l8.75-8.55c1.55-1.51,2.7-1,4.18.38,1.75,1.66,1.36,3.17.43,4.88-1.35,2.47-2.25.62-3.31-.32-1.34-1.19-2.48-.39-3.46.58a1.69,1.69,0,0,0,.27,2.91c.72.52,1.41,1.05.61,1.94a1.26,1.26,0,0,1-2.12-.07C166.1,669.2,163.85,670.64,161.68,669.76Z" transform="translate(-0.74 -0.93)"/><path d="M178.76,503.77c.27-2.63-2.79-6.46,2.54-7.28a3.3,3.3,0,0,1,1.86-.05c1.47.77,1.86,9.45.53,10.5s-2.74,1.66-4.15.89C177.93,507,178.7,505.19,178.76,503.77Z" transform="translate(-0.74 -0.93)"/><path d="M324.34,577.45a19.06,19.06,0,0,1,0-2.88c.15-1.19.76-2.46,2.14-2.24,1.88.28,1,1.65.65,2.69-1.17,3.3,1.52,5.13,2.81,7.5.53,1,1.42,2.42,0,3a9.13,9.13,0,0,1-6.78-.08c-1.76-.75-.11-1.85.56-2.63C325,581.32,324.27,579.64,324.34,577.45Z" transform="translate(-0.74 -0.93)"/><path d="M181.1,711.39c-.24-3.3.41-5.62,2.46-7.38,1-.84,1.89-3,3.34-.64.66,1.09,3.24,2.22.52,3.86a2.88,2.88,0,0,0-1.4,3.37c.41,2.24-.09,4.16-2.79,4.17C180.31,714.78,181.28,712.33,181.1,711.39Z" transform="translate(-0.74 -0.93)"/><path d="M280.14,458.38c-4.76,5-2.15,12.49-6.36,17.85C271,470.09,273.2,463.52,280.14,458.38Z" transform="translate(-0.74 -0.93)"/><path d="M144.92,703.5c.15-1.54-.13-3.27,2.28-2.92s4.59,1.19,4.69,4.07-2.39,3-4.19,3.08C144.79,707.85,145.34,705.2,144.92,703.5Z" transform="translate(-0.74 -0.93)"/><path d="M130,595.13c-.29,2-.22,4.68-2.23,4.65s-3.65-2.41-3.82-4.41c-.21-2.45,2.74-2.91,4.24-3.28C130.21,591.59,129.46,594.12,130,595.13Z" transform="translate(-0.74 -0.93)"/><path d="M380.42,597.65c-1.2.68-1.92-.27-2.8-.61-2.05-.79-4.39-1.76-4.09-4.23.22-1.78,2.47-.89,3.83-1.07,3.48-.45,2.9,2.18,3.16,4.19C380.6,596.55,381,597.18,380.42,597.65Z" transform="translate(-0.74 -0.93)"/><path d="M211.92,669.17a33,33,0,0,1-9.51,4.17c-1,.26-2.07.56-2.58-.58s.56-1.71,1.47-2C204.48,669.53,207.56,667.69,211.92,669.17Z" transform="translate(-0.74 -0.93)"/><path d="M109,568.46c1.06-.07,1.87.45,1.81,1.67-.17,3.25-3.22,3.33-5.24,4.39-1,.54-1.91-.5-1.59-1.68C104.65,570.38,106.44,569,109,568.46Z" transform="translate(-0.74 -0.93)"/><path d="M251.3,655.35c-1.79-2.71-6.63-4.13-4.18-9.24C250,648.73,250.25,652.23,251.3,655.35Z" transform="translate(-0.74 -0.93)"/><path d="M219.52,629.76c-1.82,0-3.77-.1-4.18-2.35-.19-1,1-1.25,1.74-.83,1.62,1,4.41-.54,5,1.89C222.48,629.88,220.59,629.63,219.52,629.76Z" transform="translate(-0.74 -0.93)"/><path d="M301.62,865.66c.8-2.24-1.26-6.51,2.5-6.38,4.18.14,1.15,4.22,1.49,6.41.29,1.83.59,5.65-2.39,5.48C300.59,871,302.32,867.57,301.62,865.66Z" transform="translate(-0.74 -0.93)"/></g></g></svg>