<svg xmlns="http://www.w3.org/2000/svg" viewBox="0 0 783.07 782.57"><title>moon</title><g id="Layer_2" data-name="Layer 2"><g id="Layer_1-2" data-name="Layer 1"><path d="M600,244.93c-.41-4,2.75-6.54,4.24-9.72,2.7-5.79,5-11.84,9.06-16.9,1.31-1.63,1.73-3.75.26-4.95-2-1.66-3.43.76-4.32,2-10.29,14.55-19.69,29.63-26.33,46.26a18.71,18.71,0,0,1-3.61,5.59c.83-5.55,3.44-10.42,5.77-15.38a235,235,0,0,1,22.56-37.67c2.41-3.32.7-5.07-1.55-7.06-3.1-2.76-4.14.63-5.34,2.06-9,10.65-16,22.59-22.19,35.05-.78,1.57-1.45,3.05-3.6,2.61l.14.19c.26-2.35,2.11-3.89,3-5.92,5.72-12.66,13.52-24,22.36-34.66,1.68-2,1.58-3.4.54-6-1.76-4.44-4.44-3.12-8.15-1.8.93-1.46,1.14-2.19,1.62-2.47,4.54-2.72,2.77-6.77.63-9-1.9-2-3,2.41-5,3-.43.13-.72.66-1.08,1-.44-2.75,1.47-4.21,3.15-5.81,2-1.91,3.13-4.25,1.13-6.57-1.45-1.7-1.59-2.62-.4-4.61,1-1.67,1.45-4.62-.47-5.9s-3.56,1.05-4.91,2.39c-6,6-11.79,12.23-18.06,17.94-4.58,4.18-7.55,9.91-13.27,13,3.08-3.68,4.75-8.28,8.57-11.49,3.64-3.06,6.7-6.82,10.38-9.82,5.76-4.69,9.79-11.27,16.58-14.84a3.83,3.83,0,0,0,1.17-5.7c-1.6-2.14-3.12.17-4.44,1.23-3.92,3.16-7.81,6.37-11.71,9.56l-.77-.95c2.44-2.81,4.62-5.89,8.06-7.69,1.55-.81,2.23-2.25.47-2.63-2.47-.54-5.51-1.25-7.74.45-6.36,4.87-12.68,9.82-18.66,15.15-5.82,5.19-11.18,10.89-16.76,16.36l.13.11c-1.14-3.39,1.75-4.67,3.5-6.4a219,219,0,0,1,26.89-23.27c1.78-1.28,4.51-3,2.76-5.56s-4.27-1.21-6.55.23A146.26,146.26,0,0,0,544.6,175c-.94.9-1.63,2.72-4.11,1.18,8-7.63,15.9-14.87,25.08-20.65,1.95-1.23,3.09-2.59,2.08-4.85s-2.69-1-4.18-.49-3.18.61-4.15,1.55c-6.77,6.53-15.35,10.74-22,17.38-1.38,1.38-2.67,3.67-5.38,2.77l.16.12c3.15-6,9-9.15,14.22-12.66,5.38-3.62,10.1-8.26,16.12-11a1.91,1.91,0,0,0,1-2.89,2.61,2.61,0,0,0-3.89-.93c-4.34,2.61-8.7,5.24-12.84,8.16-4.94,3.48-9.66,7.28-14.49,10.92a1.4,1.4,0,0,1-2-.21c4.48-5.53,10.9-8.65,16.31-13a89.67,89.67,0,0,1,11.57-7.32c2.24-1.29,2.52-2.89,1.5-4.93s-2.67-2-4.49-1c-8.3,4.37-16.51,9-23.88,14.72-5.17,4-10.69,7.57-15.86,11.62a104,104,0,0,0-8.89,7.82c-7.33,7.25-15.14,14.11-21.35,22.35-6.36,8.43-13.09,16.58-18.46,25.81-5.52,9.49-10.94,19-15.48,29a211.44,211.44,0,0,0-7.76,21c-3.29,9.83-6.69,19.66-9.28,29.69-1.42,5.49-1.65,11.32-3.15,16.87-1.83,6.76-1.09,13.94-3.44,20.63a13.69,13.69,0,0,0-.23,4q-.39,16.2-.78,32.41c0,1.62.32,3.59-2.23,3.63s-2.14-2-2.21-3.56a217.57,217.57,0,0,1,1.35-39.33c1.66-12.07,2.6-24.41,5.86-36.19,3.76-13.61,8-27.13,13-40.32A208.79,208.79,0,0,1,457,225.43a270.72,270.72,0,0,1,21.71-31.53,224.36,224.36,0,0,1,23.84-25.53c8.32-7.64,17.36-14.4,26.31-21.25,7.3-5.6,15.62-9.58,23.65-13.94,3.84-2.09,4.32-5.18,3.1-7.79-2.5-5.37-2-11-2.35-16.45a311.4,311.4,0,0,1-.08-32.48c.48-10.58,2.17-21,4-31.55A143.13,143.13,0,0,1,564,20.09a32.64,32.64,0,0,1,7-11.9c1.57.5,1.38,1.48,1.35,2.21-.54,15.57,1.77,31,3.12,46.43.77,8.85,2.88,17.93,5.22,26.77a132,132,0,0,0,11,28.68c2,3.72,3.5,7.93,9.15,4.22,1.93-1.27,5.84,1,6.87-1.22,1.16-2.48.56-5.85.47-8.83a293.54,293.54,0,0,1,1.17-39.36,169.49,169.49,0,0,1,6.45-30.44c2.5-8.45,5.34-17.43,12.75-24.54a28.49,28.49,0,0,1,.29,13,45.69,45.69,0,0,0,0,22.79c1.23,5,.29,10.2,1.06,15.36a161.94,161.94,0,0,0,9.47,35.51c1.77,4.52,4,9,5.23,13.58,2.2,8,9,9.24,14.92,11.62,9,3.59,16.3,9.16,20.78,17.65,4.32,8.18,11.87,12,19.53,15.24,7.27,3.08,15.42,3.5,23.2,5.09,10.63,2.16,21.52,2.39,32.07,4.42,6.83,1.32,13.76,1,20.41,2.56,10.14,2.38,20.69,2.23,30.7,5.7,3.44,1.2,3.45,3,2.73,5-2,5.28-2.37,11.13-5.84,15.94-2.23,3.08-4.17,5.76-8.58,5.46-22.22-1.5-44.3,2.35-66.49,2a136.36,136.36,0,0,0-14.43.42c10.62-.61,21.12,1.4,31.56,2.35,15.13,1.37,30.34.63,45.67,2.75-.85,2.43-2.8,3-5,3.94-8.32,3.48-17,4.22-25.84,4.37-11.16.2-22.33.13-33.5,0a146.93,146.93,0,0,0-37.08,4.53c-8.61,2.15-17,6-23.59,12.59-2.36,2.37-3.48,5.55-5.92,7.91-2.07,2,.09,3.59,1.53,4.91,6.52,5.94,12.55,12.2,15.63,20.75a323.33,323.33,0,0,1,10.34,34.12c2.34,9.71,3.25,19.59,5.24,29.3a144.93,144.93,0,0,1,3.16,28.76c0,3.77-.65,7.64,1.35,11.23.43.78.11,2,.18,3,.15,2.2-1,2.91-3,2.88s-3.07-.63-3.1-2.86c-.09-6.31-.48-12.64-.55-18.91a110.45,110.45,0,0,0-2.2-20.1c-2-10.05-3.57-20.19-5.46-30.25a187.08,187.08,0,0,0-9.15-31.86A74.23,74.23,0,0,0,661.25,252c-1.31-1.59-3.58-.59-4.89-2.27-.21,3.6,3.12,4.64,4.5,7,4.83,8.27,7.83,17.26,11.49,26s3.71,18,7.42,26.56c1,2.38.77,5.53,1,8.3.75,10.31,2.62,20.51,3.89,30.72,1,8.14.72,16.39,2.25,24.47.21,1.15,1.06,3.54-1.18,3.61s-1.61-2.24-1.48-3.53c1-10.32-1.29-20.45-2-30.65-.46-7.13-.92-14.51-2.43-21.49-2-9-3.4-18.26-6.18-27-4-12.51-7.06-25.59-15.06-36.49-1-1.37-2.22-4.1-4.58-2.45-2,1.41-.94,3.31.29,5.2,6,9.27,8.7,19.82,11.89,30.27,2.39,7.82,3.34,15.89,5.3,23.75,1.17,4.67,1.65,10.05,2.72,14.82,2.29,10.2.9,20.66,3.5,30.82,1.31,5.13.23,10.87.23,16.76-.76-.6-1.4-.85-1.43-1.16-.91-10.36-1.94-20.71-2.54-31.08a100.28,100.28,0,0,0-3.53-19.94c-.81-3.07-.25-6.25-.74-9.41-2.24-14.57-6.59-28.58-10.85-42.61-.79-2.58-2.57-4.86-3.85-7.3-.69-1.32-1.22-3.24-3.09-2.47-1.69.7-1.09,2.76-.7,4,.89,2.79,2.35,5.39,3.31,8.16.39,1.14,1.2,2.45.27,3.94-3.35-.85-.26-6.22-4.58-5.78-2.07,6.44.85,12.7,2.19,19.36,1.25,6.24,3.33,12.68,2.56,19.3-1.61.1-2.15-.86-1.94-1.86,1-4.61-3-8.4-2.07-13,.15-.79-.08-1.76-1.28-1.62a1.35,1.35,0,0,0-1.17,1.39,12.51,12.51,0,0,0-.06,3C651.09,313,651,326.92,651,340.8c0,10.83,0,21.66,0,32.49,0,1.32.73,3.25-1.71,3.41s-2.43-1.66-2.43-3.36c0-1-.06-2,0-3,1.34-19.76-2.62-39.33-2-59.09.26-7.82-7.35-12-14.58-8.61-5.73,2.7-9.36,6.44-9.19,13.71.43,18.66.15,37.33.12,56,0,2,.8,4.49-2.88,4.47-3.32,0-3.23-2-3.22-4.27,0-26.17-.69-52.36.49-78.47.29-6.61-.07-14,2.92-20.69,1.44-3.2.4-7.2.86-10.85.5-4,1.28-8,1.6-12.16A32.34,32.34,0,0,0,615.06,262c-2.16,6.86-4.38,13.71-6.43,20.61a17.85,17.85,0,0,0-.48,4.91q0,41.74,0,83.49c0,1.34,0,2.67-.09,4A1.54,1.54,0,1,1,605,375c-.07-1.5-.09-3-.09-4.5,0-25,.15-50-.1-75-.08-8.11,2.64-15.57,4.81-23A143.07,143.07,0,0,1,618.93,248c3.55-7,6.45-14.34,9.67-21.52,1-2.14,3-4.38-.14-6.28-2.77-1.7-5.17-2.05-6.81,1.88-3.33,8-7.93,15.27-11.06,23.4s-6,16.24-9.74,24.69c-2-4,.42-6.88,1.49-9.56,5.08-12.71,9.74-25.63,16.36-37.68a8.34,8.34,0,0,0,.77-2.37c.27-1.27.81-2.81-.82-3.46s-2.6.21-3.57,1.71c-4.25,6.61-7.2,13.91-11.14,20.67-1.11,1.91-.86,5-4.08,5.34Zm69.11-105.09a16.37,16.37,0,0,0-5.79-5.87c-11.17-7.3-23.27-11.85-36.73-12.18-7.48-.19-15-.73-22.42.37-1,.14-2.69-.17-2.57,1.53.07,1.06,1.29,1.47,2.37,1.29,8-1.28,15.51,2.8,23.47,2,1.4-.14,4.25-.94,4.07,1.17s-3,1.2-4.61.9c-4.64-.86-9.3-.34-14-.41-.78,0-1.76.08-1.71,1.26,0,.81.74,1,1.39,1.12,10.13,2.29,20.24,4.78,30.75,4.54,2,0,4-.31,5.69,1.2.73.65,2.35.65,2.62-.29a2.19,2.19,0,0,0-1.83-2.52c-1.61-.34-3.26-.55-4.83-1-3.16-.94-6.27-2-9.41-3.05C648.18,128.24,657.2,137.69,669.08,139.84ZM655.8,172c4.32,1.14,8.09-1.88,12.46-1.95,1.76,0,4.3-1.14,6.42-2,1.39-.54,2.56-1.62,2.66-2.59.14-1.5-1.47-1.92-2.89-2-3.41-.3-6.31-2-9.42-3.23-4.69-1.78-9-5.41-14.43-4.43-6.84,1.24-13.32,3.95-20.22,5.25-3.15.59-6.54,1.55-9,.32-3.13-1.56-6.08-1.24-9.14-1.31-1.41,0-3.87-1-3.89,1.59s2.38,1.66,3.87,1.8c10.89,1.05,21.71,2.09,32,6.41C647.66,171.29,651.59,172.92,655.8,172ZM562,54.84V67.18c0,7.81-1,15.81.29,23.4,1.71,9.8,3.2,19.8,7.8,29,5,10,11.28,18.7,21,24.62,3.22,1.95,5.63.41,7.83-1.64a2.39,2.39,0,0,0-.08-3.6c-1.49-1.28-2.31-.31-2.84,1.21-.78,2.24-2.75,2.83-4.31,1.58-2.06-1.64-4.59-2.37-6.52-4.36A66.46,66.46,0,0,1,572.67,119a85,85,0,0,1-7.92-30c-.68-10.25-1.42-20.53-1-30.84C563.84,57.08,564.17,55.77,562,54.84Zm64.2,96.31c-4,0-6.66-.07-9.32,0-1.32,0-3.4-.64-3.34,1.68,0,1.53,1.57,2,3,2,7.7,0,15.24.29,22.71-3.07,9.06-4.06,18.22-3.4,25.94,3.75,2.45,2.27,5.47,2.66,8.39,3.44,1.07.28,2.47.16,2.6-1.5s-1.17-1.8-2.35-1.73c-3.91.22-6.76-1.44-9.76-4-5.92-4.95-13.62-6.87-20.46-4.21C637.35,150,631.42,151.44,626.2,151.15Z" transform="translate(-26.21 -8.19)"/><path d="M343.53,681.38c-.56,1.06-.83,2.52-1.66,3-6.68,3.79-13.11,8.26-21.2,8.62-1.63.07-3.3-.31-3.51-2-.25-2.07,1.77-1.8,3.11-2.26,1.94-.67,5.48.38,5.4-2.6s-3.45-1.5-5.36-2c-4.45-1.24-8.87.81-13.31.1-1.56-.25-3.64.23-3.71-2.24-.06-2,1.16-2.8,3.17-3a69.52,69.52,0,0,0,7.34-1.64c-8.84-5.21-18.51,1.24-26.74-4.27a39.18,39.18,0,0,0,12.19-6.17c-3.07-1.89-6.12-1.17-8.94-.43-4.37,1.15-8.55.23-12.78-.49-1.19-.21-2.36-.83-2.23-2.22s1.39-1.21,2.38-1.23c5.06-.12,9.34-3.05,14.19-4,1-.18,3.1-.21,2.42-2.33-.5-1.59-2.06-1.68-3.35-1.48-2.46.39-4.87,1-7.3,1.58-7.88,1.88-15.28-.3-22.79-2.57,7.09-1,13.35-4.07,20.41-6.46-3-2.12-5.9-1.73-8.52-.81-8,2.8-15.68.78-23.4-1.07-.74-.18-1.71-.45-1.76-1.5-.07-1.25.91-1.65,1.86-2,2.46-.9,5.37.12,8.36-2.34-4.87-1.09-9.21-.45-13.48-.58-2-.06-4,0-6,0a4.59,4.59,0,0,0-1.77.44c.72,8-6.78,5.91-10.24,7.42-19.14,8.41-38.63,16-58,23.82-16.62,6.68-33.22,13.43-49.9,20-13.73,5.39-27.8,10.16-41,17-4.65,2.43-16.47.36-20-3.32-3.28-3.38-1.5-10.54,3-12.19,21.9-8,43.24-17.4,65-25.76,11.86-4.57,23.83-9,35.54-13.83,13.54-5.63,27.41-10.46,40.73-16.61,3.16-1.45,6.53-2.44,9.67-3.9,6-2.78,10.21,1.34,14.35,4.05,3.44,2.24,5.77,2.28,9.29.48a52.16,52.16,0,0,1,13-4.47c2.78-.58,5.34-.47,7.43-3,1.65-2,4.29-.65,6,.39,2.05,1.26,3.15,3.94,6,4.2.26,0,.73.76.64,1-.38,1.08-3.51,1.62-1.08,3.08,1.43.86,3.72.67,5.66-.55,3.19-2,6.94-2,10.57-1.91,1.61,0,3.82.07,4.13,2,.38,2.3-2.22,1.92-3.52,2.69a15.89,15.89,0,0,1-2.27.94c3.33,4.76,9.56,3,13.4,6.31-4.77,4.69-4.68,4.45,1.78,6.82,1.81.66,6.5.64,3.59,5.56-1.37,2.31,1.41,2.64,3.29,2.8,4.76.39,9.51.85,14.48,1.31-2.47,4.13,0,8.91,4.36,9.28,2.82.25,5-.21,5,4.42s4.77,6.45,9.69,4.66C339.09,681.34,341.07,680.29,343.53,681.38Z" transform="translate(-26.21 -8.19)"/><path d="M266.06,535.91c-.77-3.78.14-5.55,4.48-6.86,5.46-1.66,11.23-3.1,16.23-5.32,5.2-2.3,10.37-5.42,15.58-8.14,4.21-2.19,7.86-2.24,11.25,1.35,4.39,4.67,10.52,7.61,13.55,13.65a2.54,2.54,0,0,0,1.13.92c12.22,6.08,21.09,16.35,31.28,25,2.14,1.82,4,2.77,7.06,1.59,9.32-3.54,18.46-7.45,27.59-11.42a75.53,75.53,0,0,1,11.65-4.32c8.24-2.08,16.2-4.76,23.12-9.77,2.25-1.64,3.38-.92,5,.57q14.07,12.54,29,24.06c1.49,1.15,3,2.67,2.86,4.43s-2.47,1.16-3.77,1.71c-8.86,3.8-17.62,7.94-26.73,11-10.32,3.51-20.23,8-30.35,11.94-4.56,1.79-4.87,3.47-1.23,6.51,15.1,12.61,30.19,25.22,45.45,37.64,3.5,2.85.59,4.45-1,5-6.49,2.32-12.57,5.59-19.18,7.7s-12.9,5.1-20,7c-1.31-.85,1.37-2.17.48-3.09s-1.92-3.7-3-1.28c-1.81,4-3,1.56-4.57.25-11.35-9.74-22.6-19.6-34.08-29.18-3.16-2.64-6.42-5.15-9.36-8.06-4.15-4.11-8-.92-11.63.89-1.92.95-3.6,2.43-5.79,2.78a2.23,2.23,0,0,1-2.73-1.61,1.93,1.93,0,0,1,1.26-2.4c4.43-2.17,8.87-4.29,13.29-6.48a3.71,3.71,0,0,1,4.54.66c14.18,13.11,29.47,24.9,44.25,37.3,5.21,4.37,11.16,3.32,16.65,2.32,5.06-.94,9.86-3.66,14.6-5.94,4-2,4.39-9.42.62-12.59-10.63-9-21.38-17.75-32-26.66-2.51-2.1-4.58-4.82-7.31-6.53-4-2.51-1.44-3.56.74-4.47,9.11-3.83,18.07-8,27.37-11.46,7.7-2.86,15-6.89,22.83-9.51,1.6-.53,2.22-1.88,2.3-3.53.05-1.15-.25-2.86.38-3.37,5.27-4.26.63-5.88-2-7.94-5-3.92-9.45-8.64-16.59-9.12-7.85-.53-14.43,2.71-21.28,5.55-11.13,4.63-22.78,8.25-33.38,13.86-9.42,5-15.65,2.91-22.55-4.15-6.44-6.6-14.82-11.38-20.87-18.26-4.27-4.86-9.23-8.25-14.44-11.32-7-4.11-14.56-7.14-22.46-1.72A4,4,0,0,1,291,526c-5.21-1.49-8,2.43-9.21,5.71-1.43,3.83-1.75,8.09,3,11.76,12.86,9.86,25.06,20.6,37.52,31,.77.64,1.52,1.31,2.3,1.91a1.62,1.62,0,0,1,.43,2.53c-1.1,1.71-9.89,5.49-11.92,5.08-1.32-.26-2.1-.79-2.08-2.27a2.67,2.67,0,0,1,2.3-2.81c4.8-1.23,2.79-3.71.72-5.53-5.42-4.79-11.05-9.35-16.63-14-8.09-6.69-16.92-12.47-24-20.42a9.08,9.08,0,0,0-7.59-3.19Z" transform="translate(-26.21 -8.19)"/><path d="M574.92,246.83c1,6.66-3.57,11.62-6,17-3.11,6.83-5.16,14-8,20.9,2.36.89,5.06-.24,7.56,1.56,1.91,1.38,3-.89,3.86-2.61,2-4.28,1.87-9.33,4.62-13.37a2,2,0,0,1,1.85-1,9.89,9.89,0,0,1-1.45,6c-2.78,4.67-3.34,9.86-3.33,15.18q0,40.72-.07,81.45c0,1.76,1.42,4.54-2.33,4.92-4,.41-3.64-2.15-3.64-4.72q0-36.74,0-73.46c0-7.6,0-7.6-7.47-7.6-5.16,0-10.33-.15-15.49,0-9.12.34-18,2.36-27,3.76a121.06,121.06,0,0,0-46.63,18.09,56.52,56.52,0,0,0-18.1,18.52,25.63,25.63,0,0,0-3.22,10.06c-1.16,10.29-1.82,20.63-2.7,31-.15,1.84.7,4.27-2.59,4.3s-2.87-2.31-2.65-4.18c1-8.68,1-17.49,3.54-25.95a2.54,2.54,0,0,0,.11-1c-.81-8.68,2.27-17,2.48-25.58.09-3.59,2.25-6.81,2.09-10.52,0-.7,1-.61,1.64-.43L452,309c1.36,4.58-2.14,8.43-1.91,12.82.07,1.24-.78,3.11.62,3.62,2.23.8,1.74-1.8,2.62-2.77,1.67-1.84,3.22-3.92,5.22-5.33,5.43-3.82,7.34-9.69,8.12-15.5,1.26-9.37,5.68-17.6,8.11-26.51,1.54-5.64,4.49-10.8,6.67-16.21a160.61,160.61,0,0,1,17.5-32.21l-.17-.16c.6,4.75-2.72,7.84-4.87,11.41a210.43,210.43,0,0,0-15.69,33.15c-4.57,11.91-8.95,24-10.46,37.19,4-1.33,6.94-3.81,10.27-5.5,2.45-1.25,3.41-2.87,3.81-5.75,1.37-9.74,6.13-18.47,9-27.76,1.9-6.08,5.47-11.38,7.83-17.28a94.88,94.88,0,0,1,9.83-18.65c1.37,2,.05,3.14-.56,4.36-3,6-6.17,11.82-8.92,17.89-2.93,6.48-5.23,13.26-8.22,19.71-3.28,7.06-4.5,14.74-7.23,21.95-.5,1.33-.19,2.36,1.55,2.2,7.3-.69,11.68-5.29,13.09-12.57.8-4.14,1.25-8.77,5.37-11.5l-.09-.09c-1.12,4.7-2,9.46-4.28,13.84a4.78,4.78,0,0,0,.11,3.81c.6,1.22,2,.3,3.14.2,4.1-.37,6-3,7.06-6.57,4.16-13.75,10.25-26.7,16.24-39.7a164.58,164.58,0,0,1,17.74-29.89c3.6-4.79,6.25-10.62,12.11-13.8-21,26.11-35.07,55.65-44.88,87.58,4.06-2.14,10.76.17,11.36-7.39.13-1.56,1.61-1.33,2.79-.94l-.08,0c-.71,1.65-2.12,3.56-.82,5.06s3.8.81,5.7.62c3.74-.39,2.8-3.84,3.68-6.15a351.05,351.05,0,0,1,21-45.95c2-3.53,2.92-8.64,7.79-10.28a62.75,62.75,0,0,1-3.35,7.13,232.64,232.64,0,0,0-22.27,48c-.61,1.81-3.51,4.28-.54,5.41,2.76,1.06,6.72,1.74,9-1.89a12.92,12.92,0,0,0,2.1-3.88,89.2,89.2,0,0,1,3.52-11,237.26,237.26,0,0,1,18.84-38.69c5.43-8.76,11.31-17.25,17.39-25.57,1.4-1.91,2.95-4.6,6.28-5.27-.2,1-.14,1.58-.41,1.88-10.76,11.83-18.84,25.56-26.78,39.26A186.12,186.12,0,0,0,548,283.36a2.19,2.19,0,0,0,.49,2.57c1.09,1.07,2.41,1,3.75.73,5.09-.93,8-5,9.22-9,3.29-10.81,8.2-20.78,13.57-30.6Z" transform="translate(-26.21 -8.19)"/><path d="M26.23,704.06c0-1.68-.08-3.73,1.45-4.54s2.44,1.29,3.48,2.15q15,12.24,29.71,24.72a4.48,4.48,0,0,0,5.35.85c13.8-5.68,27.6-11.36,41.51-16.77,14.07-5.47,27.82-11.72,42-16.89,11.55-4.2,22.53-10,34.15-13.91,11.31-3.82,21.9-9.26,33.18-13.12s22-8.74,32.84-13.41c2.58-1.11,4.52-2.18,6,1.18s-.63,5.06-3.13,6.12c-7.46,3.18-15,6.08-22.54,9.16-19.56,8-39.07,16.18-58.66,24.15-11.14,4.54-22.38,8.83-33.57,13.26-11.46,4.54-22.9,9.13-34.36,13.67-11.23,4.45-23,7.94-33.54,13.6-8.54,4.57-12.75-.45-17.89-4.71-7.51-6.23-14.81-12.71-22.31-19C27.82,708.83,26,707.08,26.23,704.06Z" transform="translate(-26.21 -8.19)"/><path d="M359.07,574.16c.64,4.93-2.22,6.41-6.31,5.91-4.63-.56-9.26-.78-13.91-.88a6.26,6.26,0,0,1-4-1.64c-13.93-11.75-27.95-23.4-41.91-35.13-3.57-3-2.3-10,1.92-11.85s8.1-4.28,11.89.48c.2.26.65.65.76.59,6.16-3.54,7.41,3.33,11.07,5.1a54.11,54.11,0,0,1,11.39,8c8.65,7.39,17.08,15,25.8,22.35C358.14,569.06,359.66,571,359.07,574.16Z" transform="translate(-26.21 -8.19)"/><path d="M358.26,591.91c0-5.53,1.37-6.79,6.88-6.11.66.08,1.35.46,1.95.34,12-2.55,19.15,5.76,27.12,12.21,10.16,8.2,19.61,17.25,30.18,24.95,3.5,2.54,2.24,6,.81,9-1.2,2.5-9.29,4.5-11.95,3.45-1.22-.49-2.76-1.36-3.77-1-4.74,1.75-7.66-1.37-10.49-3.91-12.53-11.23-25.36-22.1-38.37-32.76C358.48,596.32,358.24,594.27,358.26,591.91Z" transform="translate(-26.21 -8.19)"/><path d="M379.77,583.78c-3.39-2-8.25.05-12.76-1.38-2.23-.7-5.22,0-5.43-3.76s.91-6.75,4.18-8.31c4.47-2.13,9.2-3.68,13.78-5.57,9.1-3.76,18.16-7.64,27.29-11.35,4.58-1.87,9.28-3.44,13.89-5.24a4.09,4.09,0,0,1,3.76.61,6.35,6.35,0,0,0,6.2.28c2.4-1.14,4.56-.53,6.5,1,3.67,3,3.21,9.6-1.21,11.82a178.43,178.43,0,0,1-19.48,8.57c-9.67,3.48-19,7.73-28.52,11.55C385.65,583,383.41,584.1,379.77,583.78Z" transform="translate(-26.21 -8.19)"/><path d="M481.2,669.36c3.16,0,6.33-.07,9.49,0a11.71,11.71,0,0,1,9.8,17.8c-1.46,2.52-2.42,5,.48,7.5,4,3.54,2.84,8.33,1.56,12.48-1.45,4.69-5.2,7.49-10.27,7.75-4.15.23-8.32,0-12.48.07a19.08,19.08,0,0,0-7.69,1.27c-5.42,2.32-8.93-.42-9-6.3-.09-12,3.12-23.78,2-35.86-.26-2.86,1.75-4.8,5.07-4.73C473.87,669.43,477.54,669.36,481.2,669.36Zm.94,36.66a56.39,56.39,0,0,0,6,0c2.85-.29,4.13-2.55,4.79-4.9s-1.15-3.25-3.11-4.27c-3.68-1.91-7.48-.94-11.2-1-4.15-.07-4.84,2.65-4.89,6.34,0,4,2.07,4.16,5,3.91C479.81,706,481,706,482.14,706Zm.75-27.95c-2,0-4,0-6,0-2.2,0-2.43,1.5-2.21,3.05.28,1.95-1.3,5.34,1.42,5.55,4.46.34,9.1,1.51,13.61-1,2-1.13,2.48-2.22,2.28-4.12a3.52,3.52,0,0,0-3.6-3.41C486.57,678,484.73,678.08,482.89,678.07Z" transform="translate(-26.21 -8.19)"/><path d="M503.27,506c-2.71,7.45-3.7,16.35-6.16,24.87-.68,2.35-1.83,4.24-4.79,4.11-2.66-.11-5.23.25-6.35-3.27-2.32-7.33-3.49-14.9-5-22.39-.33-1.62-.07-3.39-2.12-4.26-1.59,1-.76,2.64-.78,3.93-.1,7.66-.09,15.32,0,23,0,3-1.17,4.81-4.34,4.73-3-.08-4.49-1.62-4.48-4.71.05-10.66,0-21.32,0-32,0-6.56,1.71-8.4,7.77-8.88,4.82-.39,6.78,1.7,8.08,7.87,1.58,7.5,3.46,14.94,5.13,22.43.24,1.09.41,2,1.71,1.88s.91-1.13,1.09-1.89c2.08-9,4.13-18,6.27-26.92,1-4.32,11-7.47,14.07-4.49.95.93.59,2.18.59,3.3,0,12.66-.06,25.31.1,38,0,3.27-1.35,3.74-4.16,3.8-3.11.05-4-1-3.93-4C506.06,522.28,506.73,513.49,503.27,506Z" transform="translate(-26.21 -8.19)"/><path d="M660.81,527.8c0-3.7.31-6.34-.07-8.88-.85-5.74,1.81-11,1.76-16.68,0-3.26,2.8-2.05,4.55-2.18,2.56-.2,4.91.45,4.87,3.57-.09,7.11,1,14.29-.69,21.29-1.31,5.51-.84,11.05-1.11,16.58-.08,1.81,1.17,4.66-1.25,5.21-2.72.63-5.85,1.19-8.5-1.19-2.94-2.64-4.57-6.19-6.12-9.51-3.07-6.55-8-12-10.43-18.91-.35-1-1-1.87-2.14-1.7-1.37.21-1,1.51-1,2.42-.27,7.46.51,14.94-.72,22.41-.46,2.81-1.18,4.23-4.2,4.21s-6.47-.79-6.37-4.09c.31-10-2-20.1,1.34-30.06,1-3,.37-6.6.27-9.92-.07-2.32.69-3.09,3.09-3.27,5.53-.41,9.3.67,12.39,6.32C650.74,511.27,653.39,520.15,660.81,527.8Z" transform="translate(-26.21 -8.19)"/><path d="M618.88,716c0,7-4.32,10.58-11.17,9.11-3.15-.68-4.45-3.15-3.48-6,2.86-8.38,2.93-17.13,4.16-25.73.64-4.51,1.39-9,1.77-13.56.36-4.28,4.15-3.35,7.05-3.5s4.19,1.24,4.07,4.2c-.13,3.32,0,6.66,0,10,0,2.62.47,3.1,3.08,1.56,4.94-2.93,8.35-7.48,12.69-11,4-3.31,8.23-2,12.29-1.67,2.77.26,2,4.29-1.63,6.86A99.11,99.11,0,0,0,634.39,697c-1.33,1.35-1.7,1.88-.74,3.57A235.43,235.43,0,0,0,646,720.89c2.18,3.08.67,5.81-3.08,6.1-8.53.68-11-.91-14.58-9.12-1-2.22-2.65-4.07-3-6.69-.09-.61-.69-3.67-3.09-3A4.32,4.32,0,0,0,618.9,712C618.77,713.36,618.88,714.7,618.88,716Z" transform="translate(-26.21 -8.19)"/><path d="M601.35,542.83c-15.43-1.52-25.61-9.34-26.3-26.52-.53-13,8.83-24.38,20-24.26,18.86.2,28.6,10.41,28.77,26.95C624,531.59,614.94,542.8,601.35,542.83Zm-1.6-8.78c5.67.06,11.35-5,12.27-10.57,1-6.25.93-12-3.73-17.15-4.25-4.67-9.53-5.4-14.79-3.55-3.82,1.35-6,4.75-6.65,9.45C585.33,524.28,590.74,533.94,599.75,534.05Z" transform="translate(-26.21 -8.19)"/><path d="M584.36,631c-6,.82-11.62-3-17.84-2-1.9.31-2.39-1.24-2.37-3,.2-12.87.31-25.73.55-38.6.06-3.4,1.51-5.26,5.45-5.51,7.81-.49,15.25,1.92,22.93,2.49,8.56.63,12.78,8.35,13.8,15.88,1.26,9.22.67,18.78-7.36,25.83C595.44,629.69,591.85,631,584.36,631ZM596,605.4c1.65-5.85-1.9-10-7.54-12.32-2.61-1.1-6.1-.1-8.71-1.19-3.42-1.44-3.66-.06-3.75,2.6-.25,6.61.35,13.21-.89,19.83-1,5.17,5,9.24,10.26,7.36C593.61,618.76,596.08,617.78,596,605.4Z" transform="translate(-26.21 -8.19)"/><path d="M544.73,610.59c1.37-8.81,1.28-16.54,1.46-24.27,0-1.88-1.66-4.88,2.43-5.29,3.94-.4,7.75.67,7.87,4.62.22,7,1.2,14-.94,21.11-1.42,4.75-.48,10.21-.54,15.36,0,2.71.21,5.87-3.5,6-3.13.07-6.43,1.41-8.93-3.07-4.91-8.79-8.57-18.29-14.5-26.51-.63-.86-.53-2.58-2.2-2-1.2.42-.69,1.74-.69,2.64a206,206,0,0,1-.88,21.37c-.31,3-.63,6.12-4.32,6-3.48-.12-6.78-1.86-6-6.19,2.36-12.27,1.51-24.64,1.71-37,0-2.43,1.41-3.81,3.66-3.88,3.53-.09,8-1.42,9.68,3,3,7.77,7.74,14.46,11.78,21.58C542,605.93,543.11,607.83,544.73,610.59Z" transform="translate(-26.21 -8.19)"/><path d="M522.77,513.6c-.87-11.39,3.57-19.23,13.89-22.86,9.44-3.33,19.37-1.46,26.39,6,8.5,9,6.73,19,4.76,29-1.27,6.47-10.74,12.34-17.42,12.49s-13.27.39-18.69-4.48C525.55,528.24,521.64,521.74,522.77,513.6Zm9.35-.11c-.59,2.35,1,4.58,1.79,7.06,2.11,6.54,6,9.46,12.65,9.31,7-.17,9.59-4.86,11.89-10.5S557.31,500.48,549,498C540.83,495.49,532.26,501.84,532.12,513.49Z" transform="translate(-26.21 -8.19)"/><path d="M586.57,415.92c-4.69,1.69-8.53-2.4-13.08-1.79-2.1.28-4.52-.34-4.53,3.06,0,3,1.23,5,4.29,4.78,5-.35,9.86,1.45,14.84,1,3.54-.32,4.87,1.81,5.1,4.67.26,3.22-1.89,4-4.81,4.23-5.2.35-10.25-1-15.42-.95-2.27,0-4.33-.26-4,3.19.25,2.83-.41,6.46,3.7,6.21,6.52-.38,12.74,1.3,19.12,1.76,2.48.18,4.86.26,4.61,3.6-.21,2.89,0,5.95-4.74,5.38-10.27-1.21-20.59-1.91-30.88-2.93-2.49-.25-3.06-2.19-3.06-4.39,0-11.48-.1-23,0-34.44,0-4.6,3.48-6.62,9-5.3a106.66,106.66,0,0,0,23.72,3.2c2.18,0,4.5.32,5.38,2.77.79,2.23-1,4.07-2.16,5.25C591.87,417.08,588.94,415.52,586.57,415.92Z" transform="translate(-26.21 -8.19)"/><path d="M547.1,717.4c-3.89.33-7.13-.9-8-5.63-.06-.32-.06-.75-.26-.95-4.06-4-9.13-1.12-13.68-2-2.09-.39-3.63.27-4.57,2.68-1.92,5-5.08,6.43-10,5-1.87-.53-3-1.19-2.25-4.05,2.16-8.56,7.42-15.62,10.57-23.68,1.87-4.79,2.32-10.07,5.84-14.39,5.17-6.36,11.25-6,15,1,4.43,8.21,4.81,17.57,8,26.13,1.23,3.23,3,6.15,4.24,9.31C554.43,716.75,554.17,717.34,547.1,717.4Zm-15.76-32c-3.05,2.91-1.86,7.38-4.24,10.44-.4.52-.24,2,.69,2,2.79.24,5,3.69,8,1.62C534.36,694.87,534.91,689.64,531.34,685.44Z" transform="translate(-26.21 -8.19)"/><path d="M579.94,721c-7,1.15-13.31-1.82-18.58-7.79a14.15,14.15,0,0,1-3.79-9.25c-.41-8.28.5-15.82,6-22.72a20,20,0,0,1,16.67-7.68c8,.23,14.52,2.18,19.34,9,1.49,2.12,1.58,4.6,3,6.72,1,1.57-1.23,3.37-2.45,3.47-3.35.26-7,1.62-9.3-3.07-2.66-5.47-7.82-7.3-14.29-5.35-4.21,1.27-5,5.12-6.14,9.21-1.32,4.6-1.37,8.46.42,12.65,1.62,3.76,4.66,5.45,8.47,5.92s7.61.24,9.41-3.77c1.1-2.44,3.7-4.3,4.89-3.34,2.38,1.92,6.62-.85,7.3,2.62a9.13,9.13,0,0,1-3.85,9C591,721.07,591,721,579.94,721Z" transform="translate(-26.21 -8.19)"/><path d="M202.07,628.77c.33,1.24-1.44,1.08-2.53,1.64-9.18,4.63-18.94,7.87-28.44,11.74-17.08,7-34.13,14-51.32,20.67-17,6.57-33.67,13.88-50.85,20-7,2.48-13.72,5.83-20.58,8.78-1.65.71-3.19,1.39-1.49,3.56.36.47.71,1.52.47,1.82-4,4.94.33,6.91,3.27,9.36A130.72,130.72,0,0,0,61,714.72c2.24,1.51,2.55,3.3,1.47,5-1.6,2.56-3.26.16-4.44-.78-5.65-4.54-11.11-9.3-16.73-13.87-1.46-1.19-2.59-2.36-1.34-4.13,1.71-2.4,1.38-4.26-.91-6-2.67-2-3.37.33-4.4,2-.5.8-1.26,1.21-2.08.67-1.26-.82-2.46-1.77-2.6-3.46A1.82,1.82,0,0,1,31.53,692c16.68-5.39,32.62-12.7,48.93-19.06,19.06-7.44,37.82-15.7,57-22.78,16.31-6,32.1-13.3,48.44-19.21a121.54,121.54,0,0,0,11.8-5.22C200.34,624.46,201.4,625.5,202.07,628.77Z" transform="translate(-26.21 -8.19)"/><path d="M548,425c0,6-.24,12,.07,18,.21,4-2.11,3.74-4.72,3.74s-5.46.41-5.15-3.88c.28-3.81-.06-7.66.08-11.49.12-3.37-1.25-4.94-4.68-4.85s-7,.06-10.48,0c-3.67-.09-5.06,1.77-5,5.24.08,3.67-.08,7.33,0,11,.07,2.37-.62,4.3-3.21,3.77-2.29-.46-6.05.35-6.09-3.59-.16-12.49-.06-25-.05-37.46,0-1.28.36-2.45,1.91-2.34,2.4.17,5.71-1.33,6.94.79,1,1.73,3.41,3.86,1.23,7.12s1.19,7.66,5,7.77c.5,0,1,0,1.5,0,12.07,0,12.25,0,12.73-11.77.19-4.48,2.84-3.85,5.7-4,3.2-.22,4.56.72,4.21,4.14A85.75,85.75,0,0,0,548,416Z" transform="translate(-26.21 -8.19)"/><path d="M69.8,721c-2.25.73-3.52-1.1-5-2.34-1-.86-.86-2-.32-3.19s1.73-1.83,2.83-1.29c4,2,7.08.16,10.72-1.35,15.72-6.52,31.67-12.49,47.46-18.85,19.4-7.81,38.65-16,58.1-23.65,18.6-7.33,37.26-14.49,55.6-22.46a13.74,13.74,0,0,1,3.38-.85c2.09-.33,4.5-.1,5,2.07.62,2.56-2.24,1.79-3.54,2.35-11.42,4.93-22.84,9.88-34.37,14.56-8.67,3.52-17.51,6.61-26.24,10-6.4,2.48-12.71,5.2-19.11,7.68-6.7,2.59-13.5,5-20.19,7.57-8.41,3.29-16.76,6.75-25.14,10.13-9.08,3.65-18.18,7.26-27.25,10.94-6.22,2.53-12.44,5.08-18.58,7.81A7.07,7.07,0,0,1,69.8,721Z" transform="translate(-26.21 -8.19)"/><path d="M488,579.46c3.76-1.27,5.32,1.21,6.45,4.13,4.51,11.57,8.53,23.3,11.9,35.24.55,2,2.28,5-1,5.87-3,.77-6.87,1.28-8.22-3.21s-4.28-6.29-8.91-5.49a10.48,10.48,0,0,1-3.49,0c-4.89-.8-8.42.76-10,5.67-1.08,3.26-3.61,3.67-6.4,3.18-2-.35-3.15-1.23-2-3.8,5.19-11.39,8.84-23.4,13.84-34.89C481.86,582.23,482.39,578.39,488,579.46Zm-.21,27.88c2.25.2,5.61-.2,3.91-4.66-1.1-2.89-1.76-5.92-3-8.76-.39-.89-.29-2.08-1.67-2-1.1.07-1.15,1.13-1.25,1.87a27,27,0,0,1-3,8.26C480.05,607.44,483.13,607.22,487.75,607.34Z" transform="translate(-26.21 -8.19)"/><path d="M532.68,366c-9.3-.53-17.75-2.84-23.78-10.78-4.46-5.89-4.09-17,1.58-21.62,4.82-4,11.17-4.41,16.77-3,4.72,1.16,9.78,1.71,14.23,4.43,5.68,3.48,10,7.87,12.26,14.12,1.88,5.08-3.15,12.9-10,15-1.73.54-3.26,1.68-5.08,1.8C536.68,366.15,534.68,366,532.68,366Zm-8.25-29.47c-2.73.61-5.79,2-6.95,5.48a11.59,11.59,0,0,0,4.33,13.14c4.93,3.22,14.88,3.51,18.08.23,1.93-2,3.9-4.37,2.71-7.5C540.71,342.92,530.54,336.43,524.43,336.57Z" transform="translate(-26.21 -8.19)"/><path d="M455.1,640.05c-.09,4.23-2.29,6.63-6.15,8.1-11.06,4.21-22.23,8.19-33,13.13-6.72,3.09-10.72-.49-15-4-14-11.76-27.95-23.68-41.9-35.54-2.87-2.43-5.55-3.59-9.18-.8-1.77,1.36-5.31,3.27-6.72-.22-1.11-2.72,1.38-4.14,3.95-6,6.37-4.67,9.89-1.49,14.47,2.46,10.16,8.76,20.77,17,31.13,25.54,4.31,3.55,8.64,7.1,12.58,11,1.81,1.81,3.25,1.91,5.25,1,12.64-5.61,25.42-10.89,38.43-15.6a4.41,4.41,0,0,0,2.3-1.58c.68-.89,2.21-.79,3.22-.19S455.08,639.15,455.1,640.05Z" transform="translate(-26.21 -8.19)"/><path d="M353.65,651.84a74,74,0,0,1-3.94-13.49c-.19-1-.19-2-1.51-2.22-7.93-1.07-9.28-7.7-11.83-14.51-.49,5.09-5.64,1.21-6.82,4.74-1.38-1.34-3.17-2.62-3.43-4.52A55.84,55.84,0,0,0,322,607.12c-1.32-.18-.85.91-1.05,1.58-1,3.12-3.61,3.72-6.38,1.79-5.89-4.09-11.88-8.28-13.73-15.61-1.59-6.33-4.66-12.13-6.6-19.57,8.64,6.83,11.41,15.93,15.19,24.81,1.89-3.2-.16-5.33-.95-7.66-.47-1.36-1.47-3.21.14-4s1.88,1.37,2.53,2.37a88.56,88.56,0,0,0,8.82,12.09c-1-3.15-2.08-6.29-3.28-9.9,4.84,1.85,6.63,6.08,8.62,9.74,2.91,5.33,5.1,11,7.59,16.61.3.65-.06,1.92,1.19,1.71s1.39-1,1.33-2.25c-.12-2.36-2.55-4.31-1.06-7.89,2.47,3.47,4.65,6.31,6.58,9.31,3.38,5.25,5.1,11.47,10.73,15.39,3.23,2.25,4,6.77,5.6,10.37C358.39,648.68,357.06,651.15,353.65,651.84Z" transform="translate(-26.21 -8.19)"/><path d="M263.75,594.27c1.87,4.87,8.67,1.76,11.36,6.34a6.89,6.89,0,0,0,4.05,3.45c8.07,2.12,11.15,10.35,17.83,14.32,7.31,4.34,14.25,9.41,19.38,16.49a4.61,4.61,0,0,0,3.2,2.18c.92.11,2.3.46,2.62,1.11,3.19,6.53,10.53,9.11,14.19,15,1.9,3.09,5.34,3.8,7.58,6,3.81,3.8,5.79,9.63,12.18,10.42,1.11,4.87,6,6.11,8.77,9.35,3,3.59,5.2,7.77,10.25,9.19a2.41,2.41,0,0,1,.89,3.81c-1.22,1.39-2.88,2.63-4.55.61-3.58-4.31-8.27-7.72-12.32-11.23-4.82-4.2-6.6-11.91-14.07-13.13-1.38-.23-2-1.56-2.54-2.84-1.24-2.78-2.94-5.18-6.26-5.86-.74-.15-1.86-.69-2-1.26-2-7.74-10.79-9-14.58-15.44-1.84-3.09-6-5.13-8.53-8.46-1.53-2-3.19-4.8-6.67-4.52a2.8,2.8,0,0,1-2-1.19c-6-8.82-15.28-13.53-23.7-19.34a26.59,26.59,0,0,1-3.49-3.47c-2.69-2.69-5-5.88-9.4-6a4.54,4.54,0,0,1-4.28-3.57C261.14,594.68,261.48,594.05,263.75,594.27Z" transform="translate(-26.21 -8.19)"/><path d="M479,427.91c0-4,0-8,0-12,0-5.56-2.91-7.67-7.95-5.34-2.9,1.34-4.89,1.34-5.86-1.78s.56-4.79,3.87-5.42c3.49-.67,7,.08,10.41-.46,6.12-1,12.4.56,18.47-1.65,3-1.08,4.75,1.11,5.22,3.81s-.64,4.6-3.67,4.78c-1.33.08-2.66.09-4,.1-6.92.07-6.92.07-6.92,7.23,0,7.65,0,15.3,0,23,0,3.64-1.23,6.28-5.24,6.42-4.4.15-4.41-3-4.37-6.2C479.07,436.23,479,432.07,479,427.91Z" transform="translate(-26.21 -8.19)"/><path d="M481.33,326c5.35-.65,11.95.33,18.51,1.83,1.62.37,3.19.92,3,2.66a3.76,3.76,0,0,1-3.31,3.28,59.05,59.05,0,0,1-8,.13c-2.85-.12-3.83,1.13-3.78,3.87.12,5.83,0,11.66,0,17.49,0,3.72.44,7.57-5.24,7.59-5.45,0-5.56-3.4-5.48-7.38.12-5.82-.15-11.66.1-17.48.15-3.38-1.08-4.44-4.27-4.09a19.71,19.71,0,0,1-5.48-.1c-2.32-.41-4.2-2.14-4-4.37.19-2.05,1.93-3.56,4.52-3.47C471.92,326.11,475.92,326,481.33,326Z" transform="translate(-26.21 -8.19)"/><path d="M401.72,698c-1.74,3.64-6.44,3.16-8.35,6.53-.89,1.56-3,3.21-.71,4.45s3.42,6,7.17,2.94c1.84-1.53,4.76-1.76,5.71-4.66.92,2.09,1.2,4-.47,5.74-.66.71-1.66,1.63-.54,2.49,1.32,1,2.2-.23,2.65-1.25,3.31-7.33,4.37-4.47,5.46,1,.5,2.53,3.27,3.83,3.82,7,.69,4-.7,5.42-3.69,6.65-1.38-1.44.3-2.25.3-3.29,0-2.94-.46-5.85-4.48-4.73a3.35,3.35,0,0,1-3.83-1.42c-2.36-4.51-6-2.46-9.51-2.69.28,1.85,1.52,1.56,2.28,1.81.92.31,2,.2,2.91.47,2.09.61,2.84,2.12,2.54,4.22-.41,2.85-2.13,0-2.86.64-1.87,1.72-8.08.39-4.33,6.21,1,1.53-.13,3.19-1.55,4.33s-3.46,1.59-5,.46c-3.16-2.31.86-2.82,1.28-4.26-5.32-2.3-5.83-4.72-1.82-8.6,1.38-1.35.45-6.55-1.06-8-3.27-3.21-2.33-7.45-2.11-11.34.16-2.88,2.68-3.43,5.11-3.59,1.3-.09,2-.11,1.49-2-.91-3.57,1.79-3.86,3.73-2.45S400.13,696.33,401.72,698Z" transform="translate(-26.21 -8.19)"/><path d="M335.33,582.37c5.2,1.19,10.33,0,15.13,1.57,2.22.72,5.6.18,5.92,3.41a8,8,0,0,1-4,7.95c-5.37,2.9-11.06,5.22-16.57,7.85-1.42.68-2.25-.21-3.09-.91-3.87-3.24-7.87-6.32-11.1-10.28-1.37-1.68-1.33-3.4.35-4.21C326.37,585.62,330.84,583.46,335.33,582.37Z" transform="translate(-26.21 -8.19)"/><path d="M469.18,569.84a6.12,6.12,0,0,1-4.12,5.08c-11.11,4.25-22.23,8.46-33.31,12.77-5.24,2-10.39,4.3-15.64,6.31-1.28.48-2.68,1.37-4.24.26-1.17-.83-2.86-1-2.88-3s1.16-2.94,2.83-3.6c13.42-5.31,26.94-10.39,40.18-16.12,3.91-1.69,8.1-2.72,11.83-5C467.17,564.54,469.17,565.82,469.18,569.84Z" transform="translate(-26.21 -8.19)"/><path d="M214.58,603.46c.86,2,3.85.87,3.73,3.17s-2.6,1.43-3.9,2.21c-7,4.24-14.92,4.51-22.65,5.4l-.42-1.26,15.21-9.81c-2.43-1.31-3.74-.93-5.94,0-7.75,3.43-15.6,7-24.61,6.37,11.15-5.14,20.2-13.47,30.81-20.35.51,2.56-1.74,3.24-1.59,4.54.21,1.77-4.38,2.58-1,4.64,2.17,1.31,4,4.86,7.39,1.42,1.79-1.84,4.91-1.5,6.86-3.54a2.39,2.39,0,0,1,3.2.29c.84,1.28-.75,1.83-1.45,2.69C218.69,601.16,217,602.81,214.58,603.46Z" transform="translate(-26.21 -8.19)"/><path d="M424.32,752c-.72,8.27.73,17.53-9.83,19.51-8.05,1.5-13.29-.88-15.1-5.44,3.79-1.35,7.44.67,11.17.33,6.4-.58,8.59-3,8.6-9.51,0-2.38-3.37-7,3.26-6.73,1,0,.52-3.11,2.1-4.22,2-.09,2,2,2.64,3,2.66,4.46,5.16,7,10.13,2.37,1.85-1.71,8.64,3.87,8.28,6.59-.15,1.08-.93,1.26-1.82,1.16-4.19-.5-7,2.4-10.17,4.28-1.32.78-2.46,1.94-4,1s-2.48-2.63-1.89-4.24C429,756.46,426.74,754.67,424.32,752Z" transform="translate(-26.21 -8.19)"/><path d="M599.86,244.84a7.24,7.24,0,0,1-1.31,5.63c-5.91,9.59-8.83,20.43-12.83,30.81-1,2.62-1,5.52-1,8.37.07,13,.66,26-.09,38.92-.89,15.5-2.06,31-1.71,46.5,0,.39-.37.78-.64,1.32-1.73-.89-1.15-2.38-1.15-3.52,0-26.79-.29-53.58.13-80.36.12-7.44,3.3-14.61,6.11-21.49,3.35-8.22,6.25-16.68,10.93-24.3a11.4,11.4,0,0,1,1.69-1.79Z" transform="translate(-26.21 -8.19)"/><path d="M282.73,578.64c.42-4.75-2.18-6.93-3.35-9.67-.4-.93-1.46-2.15-.05-3,1.09-.65,1.71.54,2.47,1.13,6.68,5.27,10.05,12.77,13.5,20.17.52,1.12,1.46,1.73,1.91,2.75.85,1.92,2,4.07-1.85,3.6-.15,0-.31-.27-.42-.24-3.09.94-3.12,1-6.18-2.18-.72-.74-1.35-1.54-2.43-1.46-3.93.28-8.26-3-7.73-7.42.45-3.74-1.89-5.59-3.34-7.45-3.66-4.71-5.37-10.4-8.64-15.33A81.6,81.6,0,0,1,282.73,578.64Z" transform="translate(-26.21 -8.19)"/><path d="M599.43,270.75a16,16,0,0,1-1.75,11.35c-1.84,3.68-1.65,7.26-1.65,11q0,39.21,0,78.41c0,1,0,2,0,3,0,.79.1,1.83-1,1.9-1.33.08-1.55-.95-1.57-2s0-2,0-3q0-38.7,0-77.41C593.32,286.16,596,279.1,599.43,270.75Z" transform="translate(-26.21 -8.19)"/><path d="M265.9,535.76c.05,2.75,2.37,3.94,4,5.35,11.83,10,23.78,19.89,35.7,29.8,2.25,1.87,6.18,4.41,4.21,6.76-2.45,2.94-5-1-7.17-2.86-10.5-8.8-21.19-17.38-31.51-26.38-2.72-2.36-6.51-3.76-7.63-8-.76-2.87,0-3.92,2.52-4.48Z" transform="translate(-26.21 -8.19)"/><path d="M143.64,574.25c4.08.89,5.5-3,8.24-4.56,1.26-.71,2.6-2.26,4-1.26s.08,2.3-.52,3.5c-1.05,2.11.5,2.26,1.93,2s2.85-2,5.11-.25c-8.93,10.5-22.16,11.22-33.71,15.62,5.1-3.58,9.18-8.21,14.13-11.77a2.56,2.56,0,0,0,1-3.47Z" transform="translate(-26.21 -8.19)"/><path d="M225.54,629.45c7.86-3.55,15.05-6.94,22.38-10,2.45-1,5.25-1.64,5.65,2.81.34,3.7,1.15,7.36-4.39,6.77-5.82-.62-10.53,4.11-16.49,3C230.28,631.55,228,631.37,225.54,629.45Z" transform="translate(-26.21 -8.19)"/><path d="M206.05,544.9a1.63,1.63,0,0,0,0,2.35,2.12,2.12,0,0,1-.58,3.07c-1.77,1.49-1.73-.82-2.33-1.38-4.15-3.88-6.64-9-9.7-13.68a35.09,35.09,0,0,0-9.79-10.16c5.1-1.29,8.55,1.64,11.31,3.63a57.09,57.09,0,0,1,13.81,14.09c.75,1.1,2.94,2.22,1.5,3.68C208.26,548.49,208.13,544.45,206.05,544.9Z" transform="translate(-26.21 -8.19)"/><path d="M158.5,596.22c8.56-3.14,14.41-8.55,20.16-14.07,3.85-3.69,7.33-7.92,13.38-8C191.5,583.6,169.76,598.32,158.5,596.22Z" transform="translate(-26.21 -8.19)"/><path d="M175.06,579.85c-9.45,6.73-19.38,11.52-30.71,13.19,6.88-6.2,13.68-12.35,21.67-17,1.53-.89,3.09-1.59,4.21.49C171.24,578.39,173.78,578.11,175.06,579.85Z" transform="translate(-26.21 -8.19)"/><path d="M656.53,280.78c9.14,31.05,9.51,63.16,11.5,94.9-1.92.52-2-.2-1.95-.56.35-10.47-.89-20.88-1.34-31.31-.33-7.82-1.68-15.74-2.72-23.59-.92-7-2.54-13.89-2.93-20.93-.32-5.81-3.71-10.81-3.92-16.59,0-.59,0-1.19,0-1.78Z" transform="translate(-26.21 -8.19)"/><path d="M480.1,236c.69-6.6,5.38-11.15,8.76-16.25a226.33,226.33,0,0,1,16.79-22.59c7.29-8.49,15.32-16.35,23.15-24.37.66-.68,2.16-.54,3.27-.78l-.16-.12c1.28,3.6-2.47,3.3-3.85,4.65-7.75,7.54-14.76,15.69-21.81,23.89-6.72,7.82-12.2,16.43-18.45,24.51-2.77,3.58-3.68,8.47-7.87,11Z" transform="translate(-26.21 -8.19)"/><path d="M331.66,697.71c6.21-8.2,14.37-9.83,23.73-10.26-2,1.43-4.56,2.35-2.66,5,2.71,3.81-.23,4.78-2.93,5.47C344,699.41,338.15,698.25,331.66,697.71Z" transform="translate(-26.21 -8.19)"/><path d="M221.73,556.4c-4-3.7-5.06-9.42-8.51-13.62-2.19-2.67-4.05-5.62-6.19-8.34-.65-.82-2.63-1.1-1.71-2.45s2.64-.69,4,.13c4.24,2.61,7.58,6.19,10.82,9.91C223.84,546.33,227.19,550.61,221.73,556.4Z" transform="translate(-26.21 -8.19)"/><path d="M143.8,574.09c-5.82,2.64-11.67,5.21-17.43,8a5.21,5.21,0,0,1-4.62.44c4.82-4.52,9.6-8.74,13.37-14,2.22-3.09,8.46-2.55,11.15.36.75.81,1.15,1.76-.07,2.43a6.8,6.8,0,0,0-2.55,3Z" transform="translate(-26.21 -8.19)"/><path d="M272.76,576.83c-.08,1.34-1.13,2-1.95,1.27-1.53-1.42-3.69-1.35-5.08-3.51-5-7.84-10.6-15.32-16-23-.68-1-2.42-1.94-.89-3.24,1-.85,2.09.2,3,1,8.38,7.66,13.95,17.52,20.69,26.46C272.74,576.11,272.7,576.51,272.76,576.83Z" transform="translate(-26.21 -8.19)"/><path d="M484.28,212.29c-.72-4.27,2.81-6.78,5-9,5.69-6,11-12.31,16.53-18.37,6.45-7,14.34-12.36,20.62-19.45.43-.47.89-1,1.76-.66.78,1.45-.63,1.94-1.36,2.67-8.82,8.75-17.81,17.32-26.42,26.25-5.69,5.89-10.85,12.29-16.25,18.46Z" transform="translate(-26.21 -8.19)"/><path d="M433.77,354.07a192.35,192.35,0,0,1,13.6-71.74C440.66,305.81,435.78,329.63,433.77,354.07Z" transform="translate(-26.21 -8.19)"/><path d="M232.57,575.3c-4.54-.29-9.65,1.35-12.29-4.11-1.22-2.53-3.46-2.14-5.57-2.19s-4.5.44-5.92-1.7c-2.52-3.79-6.11-4.18-10-3.23-2.45.59-3.06-.44-2.79-2.52.31-2.44,5.36-4.61,7-2.81,5.21,5.85,12.71,7.32,19.42,9.86C226.51,570.17,227.28,576,232.57,575.3Z" transform="translate(-26.21 -8.19)"/><path d="M244,613.85c-8.77,10.54-20.7,12.54-33.31,12.7C220.92,619.85,233.25,618.93,244,613.85Z" transform="translate(-26.21 -8.19)"/><path d="M165.41,603.37c8.07-4,14.72-8.23,20.36-13.94a4.89,4.89,0,0,1,2.63-1.29c2.18-.31,4.12-4.3,5.88-1.8,1.24,1.75-2,4.32-3.5,6A37.72,37.72,0,0,1,174.21,603,14.85,14.85,0,0,1,165.41,603.37Z" transform="translate(-26.21 -8.19)"/><path d="M338,758.13c6.22,1.11,10.3-2.06,14.1-5.94.81-.83,2.55-1.87,2.72-.54.3,2.43,4.69,2.29,3.13,5-2.53,4.48-6.51,7.69-11.7,8.06C342.39,765,340,761.83,338,758.13Z" transform="translate(-26.21 -8.19)"/><path d="M103.74,581.64c7.16-4,12.31-10.32,19-14.66,1-.65,2-2.5,3.32-1.47,1.57,1.17.08,2.31-.47,3.68-2.52,6.26-12.59,13.69-19.35,13.77A2.37,2.37,0,0,1,103.74,581.64Z" transform="translate(-26.21 -8.19)"/><path d="M165.8,521.64c7.51-.49,22.31,10,24.88,18.16-3-4-5-3.62-6.16.47-3.38-3.62-6.31-6.91-9.42-10C172.15,527.26,170,523.46,165.8,521.64Z" transform="translate(-26.21 -8.19)"/><path d="M87.72,581.61c6.7-5.24,14.17-9.32,19.86-15.65.76-.84,2.2-2.8,3-1.31,1.16,2,4.14,1.75,4.45,3.86.27,1.84-2.11,1.66-3.23,2.49a86,86,0,0,1-19.77,10.43A6,6,0,0,1,87.72,581.61Z" transform="translate(-26.21 -8.19)"/><path d="M74.36,578.08c1.55-2.12,2.58-4.3,4.27-5.62,1.43-1.11,3.37-5.55,5.65-.29.55,1.28,1.82-.22,2.56-1,3.11-3.13,5.6-7,10.19-8.36,1.08-.32,2.18-1.36,3.15-.23a2.77,2.77,0,0,1-.08,3.69c-3.58,4.47-9.1,9.42-13.39,8.92-4.84-.58-7.06,1.2-10.16,3.15C76.15,578.62,75.35,578.23,74.36,578.08Z" transform="translate(-26.21 -8.19)"/><path d="M229.44,613.47c-7.69,2.48-14.92,6.31-23.53,5.8.17-1.33,0-3.18,2.18-3.55,6.62-1.14,11.57-5.59,17.28-8.52,1.22-.62,2.62-1.35,3.66-.33,1.25,1.22-.41,2-1.07,2.74C226.19,611.75,229.88,611.93,229.44,613.47Z" transform="translate(-26.21 -8.19)"/><path d="M655.36,321.06a2.18,2.18,0,0,1,1.69,2.54c-.44,14.33,3.3,28.46,2,42.84-.21,2.37-.72,5,1.25,7.14a1.8,1.8,0,0,1-.29,2.67,2.39,2.39,0,0,1-1.84.21c-1.21-.38-1.08-1.53-1.08-2.5,0-7,.46-14-.13-21-.8-9.34-1.67-18.67-2-28.05C654.92,323.65,654.29,322.35,655.36,321.06Z" transform="translate(-26.21 -8.19)"/><path d="M475,225.09c-1.32,5.65-5,10.15-7.86,15a188.78,188.78,0,0,0-14.62,30.44c-1.19,3.23-1.72,6.84-4.29,9.47,0-6,3.17-11,4.91-16.35,3.52-10.92,10.31-20.26,15.4-30.43a22.12,22.12,0,0,1,6.55-8Z" transform="translate(-26.21 -8.19)"/><path d="M367.43,717.07c-.31-2.26-.55-3.54-.65-4.83-.2-2.65.73-5.5,3.13-5.94,2.6-.47,3.59,2.47,4,4.75.61,3.68,0,7.49,1.1,11.14.22.78.27,1.62.46,2.42.27,1.08,1.07,2.4-.23,3.11s-1.64-1.17-2.34-1.52c-2.16-1.08-5-.66-5.13-4.54,0-1.61-.5-2.38,1.36-2.55a2,2,0,0,0,2-1.25,6.32,6.32,0,0,0-.19-4.83,1.39,1.39,0,0,0-1.15-.66C367.67,712.76,368.13,714.79,367.43,717.07Z" transform="translate(-26.21 -8.19)"/><path d="M452,309.06c.41-14.53,5.83-27.67,11.3-40.79a91.71,91.71,0,0,0,4.23-10.79,6.15,6.15,0,0,1,3.49-4.41l-.13-.15c-.18,1.62.42,3.26-.47,4.87a137.6,137.6,0,0,0-9.81,22.86c-3.12,9.37-5.82,18.88-8.7,28.33Z" transform="translate(-26.21 -8.19)"/><path d="M260.05,592.37c-5.07-.87-10.16-1.54-13.6-6a8.35,8.35,0,0,0-7.14-3.65,5.34,5.34,0,0,1-2.76-1c-1.64-1.09-3.78-2.41-2.55-4.66,1.12-2.06,3.58-1.32,4.74-.06C244.8,583.59,254.61,584.89,260.05,592.37Z" transform="translate(-26.21 -8.19)"/><path d="M437.56,738.66c-1.53-3.09-3.14-5.75-4.22-8.62-1.58-4.18-3.43-7.81-8.43-8.63-1.26-.21-2.73-.93-2.55-2.59s2-1.48,3.13-1.87a5.8,5.8,0,0,1,5.19,1C435.81,721.35,439.82,732.75,437.56,738.66Z" transform="translate(-26.21 -8.19)"/><path d="M143.73,517.8c7.19,1.05,13.64,3.07,19,7.68.74.64,1.21,1.7,2,2.13,1.24.65,3.66-.07,1.28,2.79-1.54,1.87-2.18,2.87-4.3,1.19-4.47-3.55-8.07-8.34-14.45-9.06C145.14,522.29,146.27,518.67,143.73,517.8Z" transform="translate(-26.21 -8.19)"/><path d="M132.39,521.25c6.85-2.65,19.17,4.93,22.52,14.36C146,532,140.46,524.83,132.39,521.25Z" transform="translate(-26.21 -8.19)"/><path d="M238.06,545.51c7.11,3.38,10.55,10.13,14.86,16.19,2,2.81,2.41,4.89-.26,7.1C248.57,560.58,242.32,553.76,238.06,545.51Z" transform="translate(-26.21 -8.19)"/><path d="M222.93,538a7.87,7.87,0,0,1,3.45,1.56c4.35,3.34,7.28,7.85,10.61,12.07,1.64,2.09.2,2.85-.91,4-1.82,1.89-2.17-.24-2.8-1.09-3.73-5.07-6.29-11-11.69-14.81a1.45,1.45,0,0,1-.31-1.28C221.5,537.6,222.19,537.7,222.93,538Z" transform="translate(-26.21 -8.19)"/><path d="M446.6,702.51c.36,1.87,0,3.54-.84,3.75a23,23,0,0,0-12,7c-1.06,1.14-2.23.13-3.08-.53s-.31-1.67.13-2.61c2.06-4.4,4.9-7.47,10.3-6.64C443,703.78,444.64,703.11,446.6,702.51Z" transform="translate(-26.21 -8.19)"/><path d="M447.93,692.29c.36,1.52-.6,2.18-1.82,2.43-1,.19-2.38,1.55-2.91-.29-1-3.47-3.6-3.43-6.33-3.27a6,6,0,0,1-4.14-1.41c-.69-.55-1-2-.45-2.11,3.47-.8,6.82-3.15,10.41-2.14C445.71,686.35,447,689.38,447.93,692.29Z" transform="translate(-26.21 -8.19)"/><path d="M55.57,560.39c-4.25,6.33-12,7.41-17,12.46a1.76,1.76,0,0,1-2.61-.54c-.8-1.09-.54-1.88.06-3.09,2-3.89,6.21-4.39,9.4-5.83C48.4,562,52.19,561.9,55.57,560.39Z" transform="translate(-26.21 -8.19)"/><path d="M120.9,521.76c4.63,0,8.18,4.5,13,6,1.07.33,2.14,2.55,1,3.84a3.25,3.25,0,0,1-4.18.14c-4.17-3.58-8.47-6.65-14.26-6.8-.45,0-1.15-.73-1.28-1.23-.24-1,.5-1.52,1.39-1.64C117.76,521.9,118.93,521.89,120.9,521.76Z" transform="translate(-26.21 -8.19)"/><path d="M370.76,675.91c-4.16-7.95-9.89-15.33-8.66-25.2l1.32-.49q4.56,12.56,9.13,25.1Z" transform="translate(-26.21 -8.19)"/><path d="M378.12,717c2,.29,3.9.9,5.74-.33.63-.43,1.57-.93,2.1.1.26.51.32,1.57,0,1.85-5.13,4.54-1.55,10.21-2.62,15.56C380.37,729,379.41,723.14,378.12,717Z" transform="translate(-26.21 -8.19)"/><path d="M389.29,749.93c-2.54-1.49-1.86-4.21-2.78-6.22-.26-.57,0-1.71.76-1.38,3.53,1.48,5.49-2.32,8.61-2.41,1.19,0,2,0,2.31,1,.4,1.37,1.57,2.73.68,4.26a1.76,1.76,0,0,1-2.61.62c-3.66-2.67-4.84-.44-5.76,2.69C390.34,749,389.73,749.41,389.29,749.93Z" transform="translate(-26.21 -8.19)"/><path d="M387.63,763.92c-3.32,0-6.46-.45-7.41-4.22-.45-1.78.94-3.27,2.57-2.58,2.93,1.26,7.65-.46,8.51,4.42C391.86,764.73,389.14,763.6,387.63,763.92Z" transform="translate(-26.21 -8.19)"/><path d="M406.29,746.29c5.49,4,4.6,9.84,7.63,13.6.55.68-.5,1.84-1.62,2-1.91.3-3.81-.82-3.84-2.32C408.38,755.48,406.72,751.65,406.29,746.29Z" transform="translate(-26.21 -8.19)"/><path d="M377,707.07c1.33-2.52-.07-4.82-2.18-6.94-1-1-1.81-2.34-.84-3.48,1.43-1.69,3,.16,4.5.4,1.24.2,2.52.34,1.91,2.49-1,3.55-2.5,7.24.12,10.85a1.4,1.4,0,0,1-.63,2.09c-1,.46-1.43-.43-1.83-1.14A5.86,5.86,0,0,1,377,707.07Z" transform="translate(-26.21 -8.19)"/><path d="M432.76,782.1a6.58,6.58,0,0,1-4.48,6.11c-1.87.52-2.68-2.13-2.45-4,.33-2.69,1.33-5.15,4.5-5.58C433,778.26,432.43,780.46,432.76,782.1Z" transform="translate(-26.21 -8.19)"/><path d="M396.2,761.64c.27-4.17-2.22-8.15.67-12,.37-.48.67-1.25,1.14-1.37,1.11-.28,1.17.79,1.48,1.51C401.3,754,400.19,758.38,396.2,761.64Z" transform="translate(-26.21 -8.19)"/><path d="M454,790.76c-3.63-2.52-6.34-5.45-10.24-7C450.94,779.44,453.1,780.9,454,790.76Z" transform="translate(-26.21 -8.19)"/><path d="M364.52,724.85c-2.58-1.5-4.84-3.14-7.7-3.37a1.71,1.71,0,0,1-1.73-1.47c-.08-1.29.87-1.54,1.83-1.94C362.09,715.91,362.69,716.4,364.52,724.85Z" transform="translate(-26.21 -8.19)"/><path d="M194.76,558.32c-5.45.19-10.95.71-14.37-4.05,2-.29,4.83-1.3,7.5-1S191.5,557.72,194.76,558.32Z" transform="translate(-26.21 -8.19)"/><path d="M75.21,532.46c4.17-.28,6.88-2.23,10.07-.58,1.31.67,2.48,1,1.8,2.79-.58,1.52-1.61,2.05-3.14,1.43C81.41,535.06,78.9,534,75.21,532.46Z" transform="translate(-26.21 -8.19)"/><path d="M159.87,547.65a3.12,3.12,0,0,1-3,3.17c-2.41.19-3.76-1.89-4.41-3.83a2,2,0,0,1,2.33-2.41A8.3,8.3,0,0,1,159.87,547.65Z" transform="translate(-26.21 -8.19)"/><path d="M171.93,549c1.78.23,4.22.49,4.27,2.51.05,2.43-2.73,2.82-4.56,3-2.12.17-3.32-2-3.31-3.65S170.42,549.17,171.93,549Z" transform="translate(-26.21 -8.19)"/><path d="M404.6,687.06c-1.17,2.42-.92,4.12,2.37,4.13.83,0,1.94.15,1.71,1.18A2.36,2.36,0,0,1,406,694c-2.4-.2-5.53-5.3-4.83-7.7.37-1.31,1.2-2.08,2.48-1.83S404.63,686,404.6,687.06Z" transform="translate(-26.21 -8.19)"/><path d="M61.65,539.35c7.7-4.67,9.94-4.71,13.37-.17C70.56,538.33,66.58,540.42,61.65,539.35Z" transform="translate(-26.21 -8.19)"/><path d="M471.06,253.07c1.53-6.47,3.67-12.61,9-17l-.17-.08c-.72,4.42-3.55,7.89-5.46,11.76-.9,1.82-.37,4.88-3.54,5.22Z" transform="translate(-26.21 -8.19)"/><path d="M74.89,570.74c-.76,3.6-3.51,5.34-5.61,7.52-.66.68-2.31,1.22-3.12.09-.62-.87.52-1.57,1.07-2.38C69.06,573.31,71.15,571.23,74.89,570.74Z" transform="translate(-26.21 -8.19)"/><path d="M421,734.76c-2.91.07-5.41.38-6.11,4.43-2.54-4.23-1-6.68,1.45-8C419.23,729.74,419.8,732.64,421,734.76Z" transform="translate(-26.21 -8.19)"/><path d="M374.81,755.39c-2.73-1-4.43-2.85-6.28-4.46-.69-.59-2-.95-1.23-2.21a2.18,2.18,0,0,1,2.71-.62C372.81,749.57,375.42,751.32,374.81,755.39Z" transform="translate(-26.21 -8.19)"/><path d="M384.15,740.15c-2.46.45-1.81,5.78-5.64,3.67-1.75-1-.77-3-.17-4.54C378.84,738,378.9,738,384.15,740.15Z" transform="translate(-26.21 -8.19)"/><path d="M357.35,733.76a15,15,0,0,1,1.73-3.15c1.2-1.22,1.93-3.31,4-3.18,1.1.07,1.41,1.39,1.06,2.38-.72,2-1.46,4.13-4.19,4.13C359.32,733.94,358.68,733.85,357.35,733.76Z" transform="translate(-26.21 -8.19)"/><path d="M433.89,741.33c-.83,1.84-2.6,2.35-4.35,2.56-1.37.16-3-.62-2.8-2.12.25-2.42,2.59-2.69,4.47-3C432.84,738.52,433.33,740,433.89,741.33Z" transform="translate(-26.21 -8.19)"/><path d="M475.05,225.18c1.86-5.17,3.4-10.56,9.23-12.89l-.15-.14c-2.12,5-5.66,8.95-9.17,12.93Z" transform="translate(-26.21 -8.19)"/><path d="M143.15,547.69c-2.62-.21-4.37,2.61-5.92-.23-.67-1.22-.54-3.65.69-4C140.06,543,141.11,545.24,143.15,547.69Z" transform="translate(-26.21 -8.19)"/><path d="M127,545.12c0,1.55-1,1.89-2.53,1.88-1.85,0-2-1.24-2.12-2.58s.14-2.35,1.78-1.92C125.44,542.84,127.25,542.72,127,545.12Z" transform="translate(-26.21 -8.19)"/><path d="M113.71,546c-1,1.3-2.18,2.07-3.49,1.78-1.7-.36-2.15-2-2.3-3.46S109,542.84,110,543C111.76,543.32,112.63,544.76,113.71,546Z" transform="translate(-26.21 -8.19)"/><path d="M433.5,358.83v14.49h-.11V358.66Z" transform="translate(-26.21 -8.19)"/><path d="M524.87,282.63c-2.62-2.38-1.19-5.27-.16-7.38,5.12-10.55,8-22.09,14.09-32.18,5.26-8.72,10.85-17.24,16.33-25.83.3-.47,1-.67,2.12-.64-13.52,20.74-25.3,42.25-32.49,66Z" transform="translate(-26.21 -8.19)"/><path d="M498.9,226.89c2.69-7.08,7.56-12.89,12.09-18.69,7.47-9.56,15.21-19,24.25-27.18,1-1,1.83-2.29,3.64-2.73.35,4.55-3.64,6-5.85,8.09-11.94,11.28-21.67,24.26-30.68,37.87-.84,1.27-1.31,3.27-3.62,2.48Z" transform="translate(-26.21 -8.19)"/><path d="M503.57,275.58c-1.15-2.66-.46-5.13.67-7.59q9.31-20.18,20.23-39.53c.78-1.38,2.23-2.37,3.37-3.54l-.17-.14c.06,4.94-3.93,7.95-5.72,12-4.17,9.39-10.31,17.81-13.35,27.77-1.16,3.8-3.41,7.27-5.14,10.92Z" transform="translate(-26.21 -8.19)"/><path d="M581.06,187.35c-7.43,9.14-15.33,17.92-22.52,27.49C558.19,210.84,572.8,192.62,581.06,187.35Z" transform="translate(-26.21 -8.19)"/><path d="M589.07,190.94c-.38,3.92-4,5.64-6.1,8.17C578,205,574.14,212,568,217c-.72-2.63,1.59-3.87,2.78-5.42,5.17-6.73,9.88-13.86,16.15-19.7A2.31,2.31,0,0,1,589.07,190.94Z" transform="translate(-26.21 -8.19)"/><path d="M528.51,207.69c-6.66,7.68-11.26,16.87-17.9,25.15-1.09-2.3.26-3.84.91-4.83,4.22-6.39,8.75-12.58,13.18-18.82a3.18,3.18,0,0,1,3.85-1.45Z" transform="translate(-26.21 -8.19)"/><path d="M552.52,191.47c6.49-7.75,14-14.4,21.66-20.95-.63,3.23-3.09,4.81-5.1,6.76q-6,5.85-12.12,11.63c-1.26,1.19-2.16,3.1-4.45,2.56Z" transform="translate(-26.21 -8.19)"/><path d="M538.59,207.68c.94,5.65-4.16,8.4-6.3,12.55-.83,1.62-1.52,4.67-4.61,4.55l.16.14c2.15-6.65,7.14-11.5,10.88-17.14Z" transform="translate(-26.21 -8.19)"/><path d="M552.51,191.47c.11,1,.68,2.44.25,2.82-4.4,4-7.06,9.51-11.8,13.13-.54.41-1.55.19-2.36.26l.12.1q6.88-8.16,13.8-16.31Z" transform="translate(-26.21 -8.19)"/><path d="M528.55,207.74c-2.09-4.31,2.27-5.54,3.92-8,2.33-3.43,4.42-7.25,8.94-8.4l-.12-.1q-5,6.5-10.08,13c-.89,1.16-2.44,1.78-2.71,3.45Z" transform="translate(-26.21 -8.19)"/><path d="M583,184.93c.29-4.6,3.69-5.5,6.07-7.57C589.66,179.92,589.66,179.92,583,184.93Z" transform="translate(-26.21 -8.19)"/><path d="M656.48,168.81c-5.77.48-11.58-.81-17.3-2.82-1-.35-2-.67-2.25-1.68-.43-1.54,1-1.85,2-2.37,8.55-4.64,17-3.75,25.37.54a1.45,1.45,0,0,1,.4.3c1.46,1.4,5.25.33,4.86,3-.4,2.84-4,2.36-6.25,2.92C661.23,169.21,659,168.81,656.48,168.81Z" transform="translate(-26.21 -8.19)"/></g></g></svg>