<svg xmlns="http://www.w3.org/2000/svg" viewBox="0 0 863.96 795.25"><title>natty</title><g id="Layer_2" data-name="Layer 2"><g id="Layer_1-2" data-name="Layer 1"><path d="M574,1c-1.3,4.19.81,8.14.81,12.3Q574.6,163,574.7,312.75c0,6.71,0,6.7,6.72,6.7,10.82,0,21.68-.5,32.47.11,27.24,1.54,54.58,1.05,81.73,2.89,29.44,2,58.91,0,88.21,2.41,24.92,2.07,49.8,1.65,74.71,1.91,3.94,0,6,1,6.17,5.5a333.57,333.57,0,0,1-1.19,37.27c-.62,8.12-.56,16.29-.88,24.44-.84,21.43-1.34,42.87-2.75,64.26-.72,10.94-1.24,22-1.26,32.83,0,26.24-2.31,52.4-2,78.65.1,10.1-.53,20.28-.83,30.43-.11,3.68-1.28,6.38-6.23,6.53-39.64,1.22-79.29.28-118.93.52-35.16.21-70.31.12-105.47,0-9.1,0-18.19-.66-27.29-1-5.77-.2-11.48,1.92-17.34.08-2.12-.66-3.08-1.46-3.24-3.63-.75-10.9-1.07-21.81-1-32.73,0-10.47,0-20.93,0-31.4q0-15.44,0-30.88h-1.27c0,8.13-.22,16.27.09,24.38.17,4.2-1.21,5.66-5.35,5.46-5.82-.28-12.43,1.6-17.32-.56-9.05-4-18-2.15-26.72-1.58-10.41.67-20.77,2.13-31.27,2.12q-243.21-.07-486.41-.06c-2.31,0-4.67.41-6.93-.44V343c1,.78,1.16,3.63,3.55,1.2a6,6,0,0,1,7.34-1c1.94,1,3.53.77,4.61-1.31s.34-3.34-1.47-4.57c-1.18-.8-2.5-1.94-1.81-3.71a2,2,0,0,1,1.63-.8c1.66,0,3.29.15,4,2.18.85,2.37,1.95,4.65,3.12,7.39,2.38-3,.61-4.94-.2-7-1.43-3.61-.92-8.79,1.77-9.34,3-.61,7-2,10.49-.23a1.31,1.31,0,0,1,.65,1.68c-.33,1.13-.85,2.48.81,2.84,1.43.3,2.65-.85,3.34-1.81.89-1.24,1.16-2.91,1.71-4.43,2.7,1.13.75,6.75,3.38,5.32s1.28-5.92-.4-8.93c-.48-.86-1-1.7-1.57-2.53-.39-.62-1.38-1.08-1.6-.6-2.43,5.35-5.75,1-8.72,1-5.83-.08-2.08-4.86-3.54-7.15-1.21-1.88,1.26-3,3.19-3.19,2.29-.21,3.05-2,3.55-3.66s-1.4-1.93-2.47-2.61c-2.12-1.35-3.39-3.41-5.06-5.67,2.74-.87,4.33-1.38,6.13,1.48,2.81,4.49,10.22,4.77,15,.94-2.22-.61-4.43-2-6.21-1.55-4.55,1.06-5.73-3-8.28-4.81-1.47-1-.27-3,.82-4.39,1.37-1.71,2-.28,3.08.48,3,2.17,5.06,1.67,7-1.93,1.46-2.72-.74-4.83,0-7.18.33-1.05-.86-3.28,1.32-2.86,2.71.52,4.14-3.83,7.19-1.47.6.47,1.46-1.24.79-1.61-2.41-1.35-2.5-4.17-4-5.77-1.11-1.18-3.11-3.43-6.2-.64-3.65,3.28-1.18,4.74,1.16,7.12-4.43-.6-6.78-3.2-9.27-5.59-1-.92-2-2-3.46-1.15s-1.28,2.22-.49,3.46a4.08,4.08,0,0,1,0,4.73c-3.3,3.82-4.86,8.47-7,12.87-.38.8-2,1.38-1.41,2.35,2.67,4.72-1.85,5.6-4.18,7.76,2.06-2.54,2.08-5.62,2.9-8.48,1.49-5.2-.09-10.76,3.13-15.9,1.76-2.81,3.5-8.27-3.17-9.69-1.34-.28-1.65-1.74-1.45-2.88,1.12-6.51-4-6.92-8-7.88-1.74-.42-2.47-.7-2.92-2.47-1.43-5.66-3-6.46-8.87-5V224c2.83-4.65,7.17-1.05,10.73-1.68,3.75-.66,6.87,2.36,8.67,5.91,1.69,3.36,4.58,2.2,7,1.68S30,227,29.59,225c-1-5.7-4.29-1-6.56-.87.55-3.12,2.48-3.67,4.82-3.88,1.11-.1,2.44-.63,2.52-1.95.08-1.16-1.3-1.26-2.1-1.79-4.39-2.92-7.53.3-10.85,2.5-.88-4.13,1-6.14,4.23-7.67C24.51,210,25,207.27,24,204.52c-.69-2-2.33-3.75-4.55-2.93-2.88,1.06-4.93.73-6.83-1.68a2.78,2.78,0,0,0-3.21-.8c-1.76.67,0,2.23-.48,2.87-2.23,3.22-.46,7-1.79,10.3-.65,1.62.69,4-1.92,5.24C4.08,214.36,5.16,210.28,1,209v-8c1.58.57,3.68,2.87,4.71.82,1.46-2.91,4.6-5.56,3.41-9.33-.56-1.76-2.07-3.22-4.11-1.14A5.65,5.65,0,0,1,1,193V129c4.07.75,4.87-1.68,4.83-5,0-2.08,0-4.12,2.92-4.16,2.63,0,4.51,1.08,5.35,3.57a6.24,6.24,0,0,1,.1,3c-.75,4.45-2,8.9-4.56,12.52-1.9,2.65-1.3,4.08.72,5.78,1.14.95,2.33,1.84,3.48,2.79.78.64,1.72,1.53,2.62.89,1.11-.78.8-2.17.15-3.16-3.24-4.94-.82-9.59.65-14.28.47-1.51,1.23-2.82,3.17-2.41,1.26.26,2.41.29,2.66-1.3s.16-3.07-1.48-3.86-3.41-2.12-5.13-2.95C11.34,117.93,7,113.7,1,113,1,77,1.07,40.93.89,4.89c0-3.61,1-4.09,4.2-4C12.72,1.18,20.36,1,28,1c.78,1.07,1.86,1.15,3.09,1.19,1.47,0,2.26.89,1.24,2.28-2.7,3.72,0,4.63,2.78,5.37,1.78.47,3.86,1.54,2.51,3.18-2,2.49-2.74,6-5.73,7.71-.08.05-.35-.07-.42-.17-1.26-2.13-2.81-4.15-3.68-6.44-1-2.59,2-1.38,2.73-2.31,1.22-1.5.82-2.67-1.1-3.38S25.64,6.79,28.79,5a1.09,1.09,0,0,0,.5-1.64c-.44-.73-1.13-.44-1.78-.28C23,4.29,21.45,8.71,24.12,12.79c.74,1.12,1.83,2.37.71,3.86-2,0-2.18-4.16-4.27-2.17-1.68,1.61-1.59,4.42.24,6.38,2.15,2.3,3.91,5.75,7.81,4.8,1.34-.33,2.15-3.63,4-.91,1.3,1.87,2.45,4.1-.39,6-1.63,1.11-.38,2.36.33,3.42s1.3,2,3.14,1.59c4.43-1,7.24,1.15,7.25,5.58,0,2.12,1,4.69,2.46,4.07,6.32-2.75,3,1.14,2.55,3.27-.27,1.22,1.9,2.06.73,3.54-1.94.26-2.13-3.24-4-2.16-2.36,1.36.56,3.08.21,4.85-.38,1.93.65,3.83,3,3.58,2.67-.29,5.86-1.81,6.54-3.82,1.79-5.29,1.61-11.12,4-16.43,1.06-2.37-1.07-4.32-2.8-5.94-.74-.7-1.37-1.21-2.53-.36-4.26,3.1-5.23,2.64-5.82-2.56-.16-1.41.14-4.07-1.56-3.54-5.73,1.79-5.18-3-6.73-5.66-.84-1.45-1.15-1.84.93-2.88,4-2,3.84-4.59,0-7.11-1.29-.86-1.45-2.07-1.68-3.41C38,4.85,37.44,2.93,37,1h64c-.72,5.44,6.26,13.43,11.45,12S120,14,122.65,17c2,2.23,3.94,2.66,7,2.15,6.78-1.13,13.57-1.94,20.28-3.65,9.35-2.38,18.85-.12,28.15.8,12.49,1.23,24.74,4.37,36.92,7.61,3.74,1,7.74,3.69,11.81.41a1.58,1.58,0,0,1,2.22.47c.77,1.08.35,1.89-.82,2.27-1.89.63-1.46,1.89-1,3.19a14.86,14.86,0,0,1-2.42-.65c-3.13-1.44-5.53-1.94-6.41,2.69-.42,2.25-2.91,3.3-5.23,3-5.5-.85-10.89.68-16.36.55-3.29-.08-6.33,1.26-6.83,5.12-.24,1.86-1.27,1.92-2.64,2.24-10.41,2.4-16.83,10.38-24,17.31-1.33,1.28-.72,3.68-2.86,4.45-4.47,1.59-5.56,7.16-10.15,8.75-.67.24-1,1.62-1.37,2.53-2.79,7.36-.55,14.35,1.68,21.32a3.36,3.36,0,0,0,2.16,2.59c3.91,1,4.74,4.37,5.74,7.44,1.28,4,2.07,8,3.2,12,2.41,8.5,2.45,8.54-6.32,8.73-2,0-3.35.63-3.52,2.63s1.6,2.68,3,2.43c9.2-1.54,10.31,6.77,13.63,11.69,3,4.47,3.58,10.63,9.85,12.61.87.28,1.72,1.16.79,2.34-5.65-1.91-9.08-.58-8.39,3.78,1.18,7.51-4.64,14.74-.19,22.32-4.27-2.58-5.57-6.05-4.29-10.5,1.5-5.18.43-10.23-1-15.19-.59-2.1-2.35-3.5-3.82-1a21.23,21.23,0,0,0-2,18c.46,1.35,1.42,2.46-.25,3.24-1.39.65-2.08-.72-2.56-1.74a16.84,16.84,0,0,1-.78-2.87,2.29,2.29,0,0,0-2.49-2c-1.7.15-.63,2-.84,2.11-3,1.33-2.31,5.79-5.16,6.57-4.33,1.19-6.65,4.85-10.14,7-1.77,1.1-3.05,2.69-1.89,5,.58,1.16.14,2.21-.23,3.35-3.22,9.79-3.59,20.11-5.44,30.16-.37,2,.35,3.94,1.14,5.81,2.11,4.95,6.3,6.27,11,3.56,2-1.12,3.51-1.35,4.41,1.63,1.19,3.95,4.49,5,8.44,3.31a4.75,4.75,0,0,1,2.43,0c2.7.44,5.28.59,7.46-1.58a2.7,2.7,0,0,1,3.28-.47c4.31,2.71,6.55-.45,9.3-2.84-1.45-1.42-2.83-1.63-4.14-.47-1,.85-1.6,2.49-3.18,1.47-1.29-.84-.72-2.44-.71-3.7,0-2.15-.22-4.44,1.09-6.31,1.12-1.59,1.15-2.32-.38-4-2.63-3-.64-11.25,3.21-12.58,6.34-2.18,6.59-6.94,6.68-12.18.1-6-1.13-11.95-.2-17.94.14-.94.08-2.13,1.29-2.43a1.53,1.53,0,0,1,1.84,1.3c1.41,7.52,7.41,7.23,13,7.58,1.1.07,2,0,2.29,1.22a1.54,1.54,0,0,1-1.6,2c-2.87,0-4.46,1.83-6.06,3.84-2.46,3.07-5.36,5.72-7.26,9.34-.83,1.56-2.93,2.93-1.34,4.47s3.71,1.91,6.24.45c3.64-2.1,5.79-6,9.58-7.81,3.48,10.08-.83,19.72-.27,29.47a8.09,8.09,0,0,1-4.07,7.6c-2.73,1.47-2.94,3.2-1.44,5.68,1.13,1.88,2.09,4-.52,5.54-.86.52-2,.86-1.49,2.11s1.72.78,2.66.58c3.26-.71,4.12,1,4.2,3.83,0,1.16-2.39,3,.55,3.43,1.61.22,3.49-.53,3.64-2.6.18-2.44,1.61-2.89,3.64-3.17a16.13,16.13,0,0,0,5.73-1.56c7.18-4.15,14.67-3.64,22.28-1.93,4.36,1,8.2-.51,12-2.26,1.08-.5,2.92-2.16,1-2.82-4.54-1.54-7.41-6.8-13.08-5.72a3.73,3.73,0,0,1-4.23-1.8c4.2.05,5-3.69,7.09-6,2.5-2.85,4.33-5.78,8.88-2.56,1.68,1.19,6.35,1.95,6.45-1.57a73.15,73.15,0,0,0,.27-7.44c-.37-4.69,4.79-9.32,9-7.27,3.14,1.53,4.23.29,6.22-1.41,6.54-5.58,9.49-5.83,16.5-2.13a6.75,6.75,0,0,0,1.95.33c1.2.23,3-.75,3.44,1,.38,1.52-.72,2.68-2,3.69-2.6,2.06-3.95,9.42-1.76,11.57,2.61,2.58,4.07,6.05,7.2,8.21,2.15,1.48,8,3,10.45,2.35a40.22,40.22,0,0,0,18-10.9c2.61-2.6,6-2.87,9.35-2.18,3,.61,1.89,3.44,2.47,5.36a8,8,0,0,0,1.08,2.75c1.93,2.35,1.5,4.63.92,7.44-1.47,7.19-4.27,14.14-4.36,21.58,0,1.52-.9,3.8,1,4.51,2.3.85,1-2.93,4.54-3.1-4,8.88-6.22,17.74-5.66,26.84.59,9.54,3.87,18.86,3.38,28.47-2.73.48-1.67-3.33-3.76-2.54-3.44,5.9.71,11.65-.44,17.64-1.1,5.76,1.18,11.79,1.08,17.81-.2,12.52,0,12.52-2.62,17.28a36.2,36.2,0,0,0,0-5.84c-2.06-11.81-2.2-23.8-2-35.66.11-5.41-.72-11.37,2.68-16.83,1.11-1.78,2.58-5.84,1.35-8.33-3.81-7.68-.81-16.46-5.69-24.38,2.77.52,2.13,3.4,4.35,2.73a3,3,0,0,0,.25-3.25c-2-4.18-2.26-8.53-2.22-13.1,0-3.06-1.26-6.15-2.09-9.19a2,2,0,0,0-2.22-1.6c-1.07.15-1.22,1-1.06,1.89,1.54,8.4-1.1,16.83.18,25.25.36,2.41.26,5-2.81,6.13-1.26-2.49-.76-5-.82-7.49-.11-5-.2-10-.43-15-.05-1.14-.54-2.51-1.88-2.66-1.64-.19-1.54,1.34-1.85,2.42-.93,3.37-2,6.67-.92,10.28.88,3,.22,5.9-.56,8.85s-2.07,5.82-1.26,8.71c2.84,10.11,2.28,20.13,1.19,30.47-.59,5.59-2.66,11.28-1.3,17,.75,3.16.34,6.23.11,9.4-.81,11.25-1.35,22.51-1.91,33.77-.08,1.58-.39,3.69,1.77,4.16,2.58.56,3.39-1.54,3.79-3.08,3.75,3.37.93,9.73,5.89,12.87.72.46,1.23,1.73.29,2-4.24,1.17-2.36,4.33-2.3,6.92-1.64.63-3.23-1.9-4.63,0a2.34,2.34,0,0,0,.34,2.81c4.84,6.1,3.19,12.24.27,18.42-.31.66-.46,1.33.19,1.75.34.22,1.26.22,1.33.07,1.32-3,5.39-2.05,6.76-4.33,3.11-5.17,10-5.32,12.69-10.84,2.13,2.61,1.44,5.12,1.52,7.56.06,1.68.9,3.57,2.81,3.63s2.83-1.56,3-3.38a8.27,8.27,0,0,0-.11-2.48c-.26-1.36-.7-2.86,1.24-3.12,1.7-.23,1.61,1.28,1.71,2.41.12,1.33.71,2.28,2.11,2.33a2.36,2.36,0,0,0,2.43-2.08c.61-2.58,1.6-5.17,1.61-7.76,0-9.83-1.61-19.53-3.42-29.13-1.37-7.21-.49-10.32,6.47-13.37a23,23,0,0,0,10.52-8.84c2.8-4.4,6.21-7.72,11.67-8.43,2.12-.28,3.78-1.06,3-4-1.64-6.5-1.72-13.15-1.57-19.82.06-2.81.29-5.63-.42-8.44a179.29,179.29,0,0,1-5-62.61c.26-2.58,0-5.69,3.1-7.45,1.4-.79.89-2.48-.33-3.37-1.92-1.38-2-3.25-2-5.32a7.12,7.12,0,0,0-3.06-6c-5.95-4.35-10.27-10.39-15.78-15.2-8.72-7.61-15.46-17.05-23.24-25.54-1.08-1.18-2.53-5.84-4.56-.24-1.08,3-6.65,3.19-7.68.34-.86-2.35-3-1.58-4.36-2.69,4.82-.86,4.9-1.41,1.19-8.5-1.66,3.33-3.66,5.71-7.07,2.06a1.67,1.67,0,0,0-2.62-.2c-2.08,2.11-4.24.55-5.18-.68-2.09-2.74-4.88-4.19-7.93-5.45,1.28-2.25,3.49-1.56,5.06-2.38,1.09-.58,2.29-1.08,1.88-2.49-.53-1.8-1.65-1.09-2.66-.31a1.52,1.52,0,0,1-2.15,0c-2.13-1.5-8.36.92-8.34,3.36,0,4.88-4.26,4.72-5.63,3.31-5.15-5.29-5.82.6-7.92,2.66-1.15,1.13-1.66,2.78-3.24,3.69-2.55,1.48-1.35,2.95.38,4.15,5.64,3.91,10.12,3.08,14-2.5.24-.36.79-.51,2.15-1.33-1.09,2.9,1.55,5.24.91,6.34-2.71,4.69-5.67,9.55-9.69,13-1.26,1.07-6.22,1.52-9.49.1a6.87,6.87,0,0,0-7.12.7,4.64,4.64,0,0,1-4.28.52c-5.16-1.44-10.18-3.88-15.5.2-1.39,1.06-5,1.12-6.14-.41-2.13-2.75-5.3-3.09-7.84-4.72a8.18,8.18,0,0,0-12.3,3.8c-.22-1.39-.12-2.61-.61-3.49-2.43-4.39-8.61-7.63-4.08-14.06a1,1,0,0,0-.14-.91c-2.54-2-.88-4.46-.88-6.83,0-3.53,1.43-6.91,1.21-10.28-.45-6.92-3.51-13.75,1.69-20.45,1.42-1.83.68-5.51.52-8.32-.12-2.11,3.11-6.81-3.27-5.05-.78.21-.89-.77-1.14-1.36-3.24-7.48-5.68-15-3.84-23.39.5-2.28.48-4.61-1.17-6.66-1-1.2-4.23-.29-3.27-2.74A6.5,6.5,0,0,1,205,96.49c1-.06,1.85.11,2.26-1.22,2.87-9.26,4.27-18.25-1.7-27.12-2.28-3.38-2.84-7.74-2.88-12,0-1.74,0-2.54,2.53-1.83,5.4,1.49,11.22,5.26,16.34-.85a1,1,0,0,1,.9-.15c2.81,3.44,5.17.29,7.88-.23,3.17-.61,2.55-1.91,1.59-3.64a5.75,5.75,0,0,0-4.67-3.37c-3.21-.17-5.74-2.69-9.09-2.34a1.81,1.81,0,0,1-2-1.74c0-1.39,1.37-1.07,2.21-1.46,2.43-1.16,4.52-1.76,6.28,1.25,1.21,2.09,3.52,1.47,5.48,1.15.71-.12.91-.81.86-1.56-.17-2.39-2.38-1.65-3.46-2.46-1.79-1.33-4.1-1.5-6-2.86,1.11-1.55,2.2-1.21,3.3-.81s2.21,1.31,3.23.28c1.27-1.29-.22-2.41-.57-3.6-.18-.62-.26-1.27-.39-1.91,1.3,0,2.06.91,2.92,1.71,5.52,5.12,7.64,11.89,8.91,18.93,1.07,6,1.91,12.11,7.32,15.7,5.08,3.37,7.76,9.73,14.34,11.12a2.62,2.62,0,0,1,2,3.07c-.17,1.55-1.58,1.25-2.61,1.69-2.78,1.2-5.34,3-8.15,4.1-3.53,1.44-3.53,4.64-2.08,6.54,4.41,5.8.82,7.26-3.87,8.62a30.34,30.34,0,0,0-4.18,1.62c-1.42.64-3.15,1.85-2.15,3.32,2.76,4.06-.52,4.28-2.89,5.24-1.34.55-3.1.79-3,2.81.11,1.71.72,4,2.36,4,5.68,0,4.59,4,5.36,7.51s2,8.68,5.68,8.84c4.79.22,8.91.45,12.77,5.79-1-6.95,2.87-5.53,5.52-5.65,2.84-.12,6.06.57,5-4.16A1.46,1.46,0,0,1,271.5,129c1-.17,1.4.58,1.78,1.37.49,1,1.36,2.68,2.29.76,1.9-3.93,3.57-2.44,5.49-.23.68.78,1.43,1.51,2.54.85s.66-1.66.75-2.65c.45-5-4.53-9.13-2.2-14.44.21-.46-.92-1.38-1.07-2.15-1.35-7-8.05-11.61-8.75-19a4.81,4.81,0,0,0-2.79-3.37c-1.7-.84-2.87-2.48-1.62-3.73.89-.88,3.19-2.43,4.86-.55,4.74,5.37,13.43,6.73,15.27,15.05a1,1,0,0,0,1.56.63c3.22-2.07,3.2.81,3.76,2.5a162.06,162.06,0,0,0,8.75,22.17c1.48,3,2.63,7.26,1.55,10-1.75,4.53,1.38,8.08.73,12.13a1.45,1.45,0,0,0,2,1.57c.95-.29.89-1.26.67-2.1-.52-1.93-1.17-3.82-1.55-5.77-.19-1-.91-2.52.57-3.1s1.78.95,2.28,1.95c.64,1.28.56,3.46,2.36,3.47,2.55,0,1.34-2.54,2-3.87a4.13,4.13,0,0,1,1.15-1.56,130.67,130.67,0,0,0,23.78-23.15C346.45,105,353,93.15,356,79.18c2.79-13.12.81-26.08,1-39.11.09-6.88-2.75-13.39-2.27-20.29.24-3.47,1.14-4.6,4.6-2.22,5.44,3.75,9.1,9,12.43,14.35,6.69,10.77,9.56,23.11,11,35.39,2.45,20.62-1.07,40.52-12,58.54-4.25,7-8,15-17.09,17.1-4.25,1-8,2.93-12,4.5s-8.29,2.94-12.46,3c-3.85,0-6.48,2.3-9.78,3.17-5.74,1.52-2.13,5.93-2.3,9.16a4,4,0,0,1-.13,1.48c-3.95,7.66,2.54,13.09,4.2,19.54a2.19,2.19,0,0,0,2.79,1.53c1.58-.41,1.34-1.62,1.13-2.81s-1.7-2.85.33-3.36c6.84-1.72,12-7.65,19-8.27,4.53-.4,8.68.53,8.78-5.9,0-.63,1.53-1.17,2.24-1.86,8.36-8.13,16.24-16.85,21.75-27.07A116.23,116.23,0,0,0,390,99.28c2.64-16.15,2.77-32-1.34-47.41A152.57,152.57,0,0,0,364,1h39c-.3,14.09.76,28.19-2.28,42.22a21.62,21.62,0,0,0,5.55,20.32c4.3,4.5,14,6.84,19.29,3.9,1-.56,2.38-1,2.26-2.37-.17-1.77-1.67-1.13-2.75-1s-3.24-.1-2.79-1c1.81-3.77-5.42-6.91-.45-10.84,1.16-.92-.7-2.21-1.79-1.84-6.22,2.15-5.18-1.91-5.46-5.69-.36-4.93,3.36-4.29,5.89-4.64,3.21-.45,7.2.52,7.23,4.13.05,4.9,2.09,9.33,2,14.17-.05,3.5,4.4,7.51,7.7,7.49,4.17,0,6.88-3.07,7-7.81.1-3.49.23-7,.41-10.46.19-3.74,4.52-9.12,7-8,2.67,1.21,10.08-1.26,6.73,6.48a1.06,1.06,0,0,0,.25.89c3.09,3.61.1,3.63-2.33,3.91s-3.79.42-2.87,3.94c.8,3.06.83,7.18-3.12,9.25-.84.44-1.35,1-1,1.95a3.57,3.57,0,0,0,2.44,2.29c5.84,1.89,13.43-.94,17.61-5.64,6.52-7.33,5.24-15.35,2.58-23.38C468,26.75,467.54,13.8,466,1h54c0,1.31.52,2.9.26,3.84-.64,2.4,1.49,5.33-.9,7.13-3.28,2.46-3.4,5-.4,7.29,2.4,1.86,3.39,4.21,4.62,6.81,1.73,3.67,1.58,7.92,4,12.29.3-3.77,1.19-6.48,1.55-9.21.56-4.17,2.16-8.83-1-12.52C525,13.12,523.21,5.79,525,1ZM261.05,299.93c-1.05,4.82-3,9.43-2.89,14.54.28,14.08,10.84,20.87,23.13,14.77,1-.5,1.8-1,1.59-2.11-.09-.53-.67-1.36-1.1-1.4-6.95-.65-6.53-5-5.44-10.09.65-3-.3-6.29.76-9.39a1.71,1.71,0,0,0-1.46-2.23c-6.32-.28-2.31-2-.56-3.51a4.8,4.8,0,0,0,1.21-5.09c-.63-2.28-2.74-1.27-4.26-1.42-2.69-.27-5,.52-6.3,3-1.06,2.06-2.91,2.55-4.83,3.07a12.91,12.91,0,0,1,11.37-8.25c5.94-.52,10.1,2.68,13.14,7.48.79,1.25,1.17,2.76,1.95,4a2.57,2.57,0,0,0,3,1.3c1.21-.47.75-1.65.39-2.59-1.55-4.05,1.72-4.5,5.17-6.63-1.35,5.06-2.28,9-1.81,13.1.17,1.51,0,3.29,2,3.47,2.19.19,2.82-1.66,2.86-3.32.07-3,.71-5.87-.33-8.89-2-5.83-1.86-5.89-7.16-6.26.1-2.34,3.18-1.72,3.64-3.66.34-1.41,2.16-2.51,1.27-4.08-.76-1.36-2.32-1-3.63-.67-.95.22-2.57.63-2.26-.69.85-3.72-2.82-6-2.61-9.37.19-2.85-1.06-2.81-2.84-1.18-2.22,2-4.34,3.25-6.42-.22-.93-1.55-2.37-1.31-4-1-3.31.72-7.62,0-9.15-1.82-2.42-2.95-4.87-3.91-7.55-2.5-3.54,1.86-6.62,5-5.69,9.57.5,2.43-.49,4.66,1.15,7.66s2.68,8.27,2.81,12.53C256.4,304.1,258.88,300.93,261.05,299.93ZM788,551.21c-1.29,1.82-3,1.44-4.49,1.44-9.5,0-19-.09-28.48,0-6.17,0-7,1.38-6.38,7.31.51,5,1.05,10.21.18,15.08-1.16,6.49-.79,12.92-.91,19.38-.16,8.07.71,8.86,8.75,8.9,5.83,0,11.66,0,17.5,0s11.66-.06,17.49,0c5.15.07,10.31-3.18,15.45.08.35.22,1,0,1.48,0,12.49,0,25,0,37.46.11,5.34.06,7.08-1.09,6.89-6.52-.39-10.83,1.07-21.58,1.18-32.39.06-6.33-.93-12.48-.07-19.05,1.73-13.3,1.34-26.9,1.43-40.37,0-4.67-1.61-8.94.67-14,1.89-4.2.78-9.81.78-14.8,0-13.86.22-27.71,1-41.54.8-13.45,1.75-26.89,1.63-40.38,0-4.84-2.6-9.84.81-14.58.56-.77.06-2.28.09-3.45.09-3.33.18-6.65.31-10,.39-10.13.86-20.26,1.17-30.4.11-3.69-1-6.62-5.55-6.62-13.47,0-26.93-.21-40.39,0-7,.08-8,1.27-8,8.19,0,13.11-.34,26.21-1.14,39.3-.12,2.09.07,4.24,1.44,5.65,2.15,2.22,2.22,4.11.5,6.52a6.1,6.1,0,0,0-.8,3.3c-.16,11.66,0,23.34-.48,35-.28,6.08.25,12.1,0,18.13-.54,15.58-1.35,31.15-2,46.72-.16,3.69,1.79,4.88,5.31,4.79,6.66-.17,13.33-.06,20,0,1,0,2.29-.53,2.89,1.59-8.25,0-16.22.11-24.18,0-4-.08-5.67,1.43-5.55,5.59.21,6.92.2,13.86-.12,20.78-.41,9.07-2.05,18.17,1.53,27a1.44,1.44,0,0,1-.42,1.3c-2.92,2-1.83,5.08-2.19,7.79-.53,4,.32,8.19-1.61,12.13,1.3-8.73-1.65-17.16-.62-26.08,1.45-12.48.88-25.21,1.16-37.83,0-1.15.1-2.5-1.3-2.94s-2.7,0-4,1.22c-12.78,12.61-25.67,25.11-38.51,37.67-1.14,1.13-2.76,2.28-2,4.21s2.73,1.66,4.32,1.83,3,.05,4.5.05ZM614.12,441.09c-9.9-2.12-19,.84-28.06-1.21-5.89-1.33-8.45,1.66-7,7.68a35.15,35.15,0,0,1,.55,7.43c.21,11,.46,22,.6,33,.06,4.45,1.75,6.65,6.58,6.57,11.83-.2,23.66,0,35.49,0,9.19,0,9.09,0,9-9-.09-12.33,0-24.66,0-37,0-4.3-.78-8-6.43-7.62-.87.05-2.1.05-2.21-1.44,1.21-1.67,3-1,4.59-1,4.67-.23,6.39-2,5.94-6.51-1.34-13.79-.48-27.62-.49-41.43,0-4.65-1.88-6.36-6-7.57-4.7-1.39-9.54-.42-14.21-1.54,5-.44,9.92-1.28,14.78.27,1.59.51,2.35-.13,3.41-1.14,2.11-2,1.85-4.42,2-6.92.31-6.37-2.33-12.85.85-19.11a11,11,0,0,1,.33,3.27c0,5.33.28,10.69-.13,16-.27,3.33,3.48,6.22,2.45,8.08-2.77,4.95-.56,9.79-1.23,14.59-1.38,9.92.84,19.81.18,29.73-.11,1.72-.4,3.86,1.91,4.67,2.16.75,3.37-.81,4.69-2.08,8.35-8.08,16.81-16,25.06-24.23,6.33-6.28,14.38-11.22,16.91-20.67a2.47,2.47,0,0,1,2.41-1.52c4.17-.22,4.56-3,4.54-6.27-.05-12.14,0-24.29,0-36.43,0-2.16-.52-4.44,0-6.45,1.17-4.51-.88-6.2-4.9-6.64-2.3-.25-4.6-.6-6.91-.65-12.64-.29-25.28-.43-37.91-.77-5.53-.15-7.1,1.21-7.09,6.92v13a32.93,32.93,0,0,1-2.11-12.24c.14-6-1.79-8.45-7.75-8.52-13.66-.18-27.32-.09-41-.55-5-.17-6.13,1.55-6,6.2.33,9.66.76,19.39-.09,29-.83,9.21,1.49,18.1.71,27.45-1.26,15.09.5,30.43,1.07,45.67.14,3.71,1.89,5.47,6.05,5.45,8.08-.06,16.17.49,24.26.86C610.49,438.4,612.33,437.92,614.12,441.09Zm21.22,151.23c-.5-11.55-1.28-22.6-1.29-33.65,0-4.45-1.43-5.85-5.58-6.17-13.1-1-26.22-.48-39.34-.75-6.59-.13-7.4.52-7.29,7.3.2,12.82.53,25.63.63,38.44,0,3.75,1.88,5.08,5.22,5.09,13.82,0,27.65-.09,41.47.11,2.59,0,4.72-2.87,6.32-2,6,3.28,12.38,2.09,18.58,2.28,10.81.32,21.7.79,32.42-.21,3.92-.37,7.37.16,11.08.28,14.45.49,28.94.15,43.41-.09,2.17,0,5-.52,4.79-3.85-.8-12.7,1.64-25.35.59-38-.21-2.48.51-6.81-4.36-7.08-15-.82-30-.31-44.93-.39-3.07,0-4.36,1.25-4.26,4.59.27,8.8.17,17.61.2,26.42,0,4.12,0,8.24,0,12.36l-1.59-.07c-2.07-3.06.32-6.25.14-9.39-.55-9.24-.78-18.51-.79-27.77,0-5.07-.71-6.21-5.86-6.21-14.15,0-28.31.18-42.46-.06-4.76-.08-6.32,2.12-6.17,6.25.09,2.62,1,5.26.79,7.84-.46,6.67-1.54,13.29.05,20C637.47,589,637.89,590.85,635.34,592.32ZM198.39,321.23c-1.88-1-1.6-2.13-1.61-3.06-.05-5.16,0-10.33-.12-15.49,0-1.05,0-2.64-1.65-2.49-1.35.11-.94,1.49-1,2.42-.5,4.62-.88,9.26-1.51,13.87-1.35,9.78-1.15,19.56-.52,29.36.21,3.33,1.39,5.57,5.31,4.57,1.24-.32,2.54-.51,2.59,1.19.16,5.32.7,10.69-1,16.09-2.68-1.75,1.56-3.33-.55-4.86-4.57,3.44-3.41,8.68-4.39,13.22-.89,4.13-.37,9.23-6.67,9.73-1.22.1-1.25,1.29-1.33,2.33-.28,3.61.2,6.87,3.6,9.12,2-2.08,1.38-4.93,2.7-7.05.42-.69.54-1.66,1.57-1.68s1.3,1,1.63,1.67a65.69,65.69,0,0,1,3.33,9.89c2.24,7.79,2.7,15.39.38,23.16-.41,1.37-.26,2.82,1.42,3.21a3.73,3.73,0,0,0,4-1.44c.61-.9.68-2.16,1.06-3.51,1.43,1.65,1.2,3.78,3.13,4.36,2.33.7,15.19-5.17,15.61-7.58.91-5.22,3.19-2.58,5.24-1.18,1.21.84,2.19,2,3.35,2.95s2.39,2.24,3.95,1.06c1.32-1,1.63-2.25,1.41-4.27a161.5,161.5,0,0,1-1.27-22.29c.2-6.69,2.79-13.19.88-20.13a13.91,13.91,0,0,1,.64-8.9c.19,4.52,1.74,8.83,2.17,13.16.61,6.21,4.56,11.71,4.07,17.7-.41,5-2.22,9.19,5.23,9.14.58,0,1.18,1.09,1.75,1.69,1.2,1.23,2.45,2.61,4.18.94s1.66-3.7-.1-4.78c-4.42-2.71-3.52-6.29-2.23-10.06a9.68,9.68,0,0,0,.27-5.84c-2.27-8.62-5.49-17-6.35-26a6.71,6.71,0,0,0-.76-1.84c-4-9-5.42-18.74-8-28.14-.23-.84-1.64-1.77.6-2.52,2.63-.87,2.57-1.31.34-3.17-1-.81-.67-1.74-.85-2.66-.78-3.9-.08-9.14,2-15.39.13-.4-.15-.93-.22-1.41-.85-5.78-3.19-11.69,1.82-16.91a2.36,2.36,0,0,0-.46-3.21,5.71,5.71,0,0,1-1.92-4.37c-.08-1.21,0-3.08-1.84-3-1.57.11-1.75,1.74-1.86,3.12-.07.89.44,2-1.14,2.68,0-3.66-2.86-1.79-4.47-2.57-1.95-.94.71-4.21-2.44-5.74.21,3.71,1.72,7.22-1,10.07-1.74-.33-1.71-2-2.65-2.9-5.58-5.25-12.07-9.84-13.44-18.25-.35-2.1-1-4.74-3.91-4.15-3.31.67-2.8,4-2,5.72,1.61,3.41,1.46,7.19,2.74,10.44,5.27,13.31,6.74,27.31,8.35,41.3.23,2,1.53,5.89-.91,6-3.18.13-1.14-3.68-1.67-5.7-.33-1.24.4-2.67-.47-3.85-1-1.41-2.1,1.86-3.19.11,1.21-5.89,2.52-11.69.3-17.46-2.51.49-.71,3.57-3.42,3.67-1.22-4.61,1.5-9.5-.93-14.05-2,1.19-1.61,3.66-3.49,5.85,0-8.61.1-16.26-.07-23.91,0-2.1,1.45-5.71-1.38-6-3.05-.32-3.75,3.55-4.83,6.05a4.67,4.67,0,0,0-.06,2q1.17,18.38,2.34,36.75A53.94,53.94,0,0,1,198.39,321.23ZM750.46,468.17H750c0,6.47,0,12.94,0,19.41.07,6,1.54,7.32,7.38,7.33,11.95,0,23.9,0,35.85.07,7.15.06,7.61-.28,7.6-7.57,0-8.81-.27-17.65.91-26.4s-2.63-17.44.91-26a7.3,7.3,0,0,0,.06-2.48q.06-16.71.11-33.44c0-1.25,1-2.82-.47-3.65-1.65-.94-2.77.68-3.9,1.5-5.38,3.94-9.77,9-14.54,13.57-5.75,5.54-10.9,11.8-17.14,16.68s-8.7,13-15.58,17.25c-1.25.77-.78,2.79-.78,4.27Q750.46,458.44,750.46,468.17ZM692.62,354.43h.28v18c0,8.18.86,9.2,9,9.34,13.32.21,26.63.21,40,.39,3.61.05,5.22-1.62,6.26-5,1.1-3.58-.08-6.84-.11-10.24q-.13-17,.28-33.95c.07-3.16-1-4.63-4.11-5-15.41-1.67-30.88-.84-46.32-1.26-3.91-.1-5.21,2.27-5.21,5.76Q692.61,343.44,692.62,354.43Zm112.66,2.19h.43c0-7,0-14,0-21,0-5.93-3.14-8.62-8.93-7.5-12.74,2.47-25.54-.37-38.33.55-5.71.42-7.87,1.09-7.94,7.13-.16,13.81-.08,27.63-.18,41.44,0,3.09,1.22,4.73,4.33,4.81q22.27.56,44.55,1.08c4.08.09,6.14-1.89,6.09-6.08C805.22,370.26,805.28,363.44,805.28,356.62ZM693.94,412.1c1.26,6.8-1.16,15.17,1.11,23.35.53,1.89,1,3.42,3.46,3.45,13.57.13,27.14.37,40.72.5,8,.08,8.56-.58,8.57-8.73,0-12.44-.18-24.88.1-37.31.11-4.56-1.62-6.3-5.91-6.45-14-.51-27.94.61-41.87-1.11-4-.49-6.21,1.72-6.19,5.91C694,398,693.94,404.37,693.94,412.1Zm-61.42,110c0-6.64.05-12,0-17.3-.07-6.55-1.76-8.17-8.38-8.2-11.66-.06-23.33.22-35-.25-8.28-.34-9-.19-8.9,8,.18,12.92.46,25.84.75,38.76.12,5.42,1.42,6.68,7,6.7q19.44.06,38.88,0c5.86,0,7.11-1.12,6.33-7.09C632.21,535.4,632.72,528.09,632.52,522.08ZM688.92,470c0-6.82-.17-13.65.07-20.46.15-4.34-1.93-6.27-5.85-6.24-13.54.11-27.06-.45-40.58-1.09-4.63-.22-6.81,2.27-6,6.8a59,59,0,0,1,.61,10.43c0,9.64.07,19.29,0,28.94,0,4.35,1.08,6.9,6.33,6.35,4.25-.44,8.62.28,12.93.3,8.47,0,16.92.28,25.37.85,6.42.43,7.11-.67,7.11-6.92S688.93,476.31,688.92,470Zm29.49,29.09c-6.81,0-13.63.09-20.45,0-3.29-.06-5.14,1.21-5.14,4.54q0,20.7.12,41.4c0,2.9,1.32,4.8,4.46,4.81,14,0,27.91.13,41.86,0,3.58,0,5.81-2.09,5.84-6,.1-12.47.31-24.93.37-37.39,0-6.24-1.05-7.21-7.6-7.27S724.9,499.07,718.41,499.08Zm1.83-4.59v.2c6.82,0,13.64-.1,20.45,0,3.08.06,4.88-1.05,4.88-4.2,0-14.13-.07-28.27-.13-42.4,0-3-1.66-3.8-4.47-4-13.44-1-26.89-.83-40.35-.8-5.47,0-6.68,1.22-6.7,6.77q0,17.48,0,34.93a35.63,35.63,0,0,0,.56,4.92c.5,3.31,2.22,4.76,5.79,4.63C706.93,494.31,713.59,494.49,720.24,494.49ZM283.34,398c-.41,1.81-.37,3.66-1.2,5-2.4,3.77-.75,7.07,1.51,9.6,2.6,2.92,3.37,4.56,0,7.64-2.15,2-1.93,6.06,0,8.26s3.54-.57,5.07-2a7.08,7.08,0,0,1,3.19-1.22c1.27-.29,2.49-.72,1.87-2.22-1-2.42.23-2.52,2-2.31,1.46.17,2.17-.75,2.52-1.93.84-2.89,3.34-4.49,5.06-6.7.56-.72,1-2,2.28-1.31,1,.54.91,1.65.89,2.66a8,8,0,0,1-1.55,4.65,6,6,0,0,0-.71,6.15,5.15,5.15,0,0,0,3.5,2.61c1,.31,1.47-.28,1.94-1.08,1.16-2,1.36-13.85-.31-15-3.32-2.36-2.34-4.5-.51-7,.78-1.07,1.65-2.55.15-3.47-1.26-.78-2.75.22-3.42,1.31-1.81,2.93-4.52,5.15-5.89,8.48-1,2.52-2.3,5.31-5.14,6.67-1.15-5.53,4.16-8.64,4.39-13.34.43-9.07,2.06-18,2.41-27.08.37-9.55-2.76-19-2-28.65.25-3.2-.79-6.59,4.2-7.39,1.54-.25,4.08-2.66,2.31-5.11s-3.73-1.27-5.34.66a4.2,4.2,0,0,1-1,.7c-2.35-5.38-.32-10.89-.72-16.33-.24-3.34,1.51-6.67-4.51-5.12-1.71.45-4.1-.41-4.79,1.73-.79,2.45-2.85,5.13-.06,7.81a12.22,12.22,0,0,1,2.86,4,3.88,3.88,0,0,1-1.31,4.92c-2,1.21-2.91-.47-3.63-2.11-.95-2.16-2.2-2-3.89-.64-6.6,5.27-13.46,4.56-20.3.52-1.13-.67-2.44-1.41-2.85,0-.65,2.31-3.92,3.87-1.19,7.43,1.64,2.15,1,6.15,1.09,9.32,0,1.15-1.63,2.42-.07,3.51a3.73,3.73,0,0,0,4.26,0c3.49-2.36,4-.88,3.37,2.4-.21,1.14-.13,2.34-.43,3.45-.22.85-.55,1.65.36,2.15a1.45,1.45,0,0,0,2.09-.73c1.08-2.48,3.79-2.52,5.63-3.82,1-.69,2.76-.93,3.08,1.05.49,3.09-6.2,8.47-9.16,7.47s-6.83,1.07-5.9,3.06c1.64,3.52,1.21,5.9-1.81,8.11a1.55,1.55,0,0,0-.19,2.24,1.25,1.25,0,0,0,1.75.35c3.75-1.9,3.06.22,2.27,2.48-1.13,3.24,2,5.05,2.77,7.7.3,1,2.51.92,3.1-.72a18.08,18.08,0,0,0,.54-3.93c.8-6.57,5.18-9.07,11-6.34a4.56,4.56,0,0,0,1.4.08c2.59.23,5.52,4.5,3.93,6.4-2.33,2.8-1.55,5.43-.46,7.88s.85,5.09,1.15,7.64c.11,1,.6,2.08-.66,2.55-1.05.4-1.86-.39-2.66-1S285,398.21,283.34,398ZM57.89,463.21C52,459.38,47,455.14,43,449.29c-2.68-4-4.47-10.78-12.43-8-3.17,1.13-4.27,2.22-3,5.17,2,4.78,3,9.85,4.49,14.78,4,13.1,9.11,25.66,17.65,36.58.9,1.15,1.6,2.69,3.42,2.54,2-.18,2.52-1.83,3.07-3.45a36.92,36.92,0,0,1,2.4-6c1.72-3.08,1.18-5.26-1.19-8-4-4.65-8.29-9.29-11.33-15.94,3.56,2.92,6.45,5,9,7.6,4.36,4.33,9,8.43,13.72,12.3,2.18,1.77,4.74,4.22,7.92,1.31,3-2.73,1.8-5.35.41-8.52-4.68-10.62-7.93-21.82-6-33.4.9-5.42-.85-8.06-4.57-10.73-3.37-2.41-6.64-5-10-7.35-1.71-1.2-3.46-3.33-5.74-2-2.12,1.28-.94,3.67-.64,5.52C52,442.41,53.46,453.09,57.89,463.21ZM504,451.32c0,6.66-.09,13.32.06,20,0,1.66-.92,4.61,1.27,4.71a5.76,5.76,0,0,0,5.47-4.27,8,8,0,0,0,.11-3c-.4-4.38-.47-8.2,5.85-5.3,1.11.51,2.64.25,4,.14,3.84-.32,4.62,1.46,3.74,4.86-.71,2.73-1.07,5.55-1.55,8.34-.23,1.34-.46,2.8,1.33,3.24s3.41.36,4.2-1.6a35.22,35.22,0,0,0,1.37-4.26c3.72-13.81,5.86-27.94,8.54-42,2.47-12.93,1.78-26.12,3.91-39,.16-1,.46-2.13-.53-2.75-1.27-.79-2.18.28-3,1-3,2.82-6,5.73-9.12,8.51-1.35,1.21-1.19,2.57-1,4.1a159.93,159.93,0,0,1-.15,42.77c-.34,2.26-1.06,3.71-3.09,4.61-2.49,1.11-5,2.24-7.52.26-3.22-2.57-6-5.79-5.48-10.1a190,190,0,0,1,6.51-33.15c1.71-5.64,1.81-9.88-3-13.77-1.87-1.53-3.17-5-5.59-4.32-3.12.83-2.75,4.84-3,7.32C505.79,415.54,502.87,433.31,504,451.32Zm-16.17-2.19c-.28,5.06-1.7,9.92.85,14.41.76,1.33,1.06,3.72,3.12,3.39s1.44-2.69,1.63-4.2c.36-2.8.55-5.63.67-8.45.42-9.47.82-18.94,1.13-28.41.07-2-.1-4.55-3.11-3.75-8,2.13-15.94,4.51-23.89,6.85-2.47.72-2.31,1.91-1.06,4.06,2.9,5,6.46,4.82,10.86,2.32,1.3-.75,4.25-2.51,3.75.85a11,11,0,0,1-7.18,8.86c-3.52,1.33-6.21.24-8.43-2.34-6.08-7.05-4.47-27.86,2.53-34.06,2.37-2.1,4.24-1.65,5.47,1.13,1,2.27,1.77,4.66,2.62,7,.42,1.17,1.08,2.19,2.37,2.22s1.58-1.07,2-1.94c2-4,4.06-8,6.14-12,3.76-7.2-1.93-16.76-10.16-16.89-7.54-.12-10.43,5.69-13.33,11.08a67.57,67.57,0,0,0-8,27.51c-.61,8.82-.1,17.69,3.57,25.85,4.39,9.76,13.91,11,22,4C484,454.46,484.34,450.7,487.87,449.13ZM461.74,288.71c-5.11.76-4.83,4.14-4.57,7.39.19,2.47.65,4.92.95,7.39,1.51,12.31,1.3,24.92,6.51,36.58a3.79,3.79,0,0,1,.34,2.41c-2.82,9.7,1.27,19,1.43,28.58,0,2.06.83,4.31,3.59,3.58,2.23-.59,4.27-1.57,3.67-4.88-1.08-6-1.62-12.16-2.58-18.22-.53-3.26.39-7.2-3.91-9-1-.41-.73-1.91.06-2.62,3.42-3.11,2.6-7.27,2.06-10.82-2.8-18.21-4.36-36.57-6.86-54.81-3.65-26.66-6.43-53.41-9.33-80.15-2.05-19-2.37-38.2-8.71-56.5-.32-.91-.19-2.15-1.55-2.13-1.17,0-1.6,1-1.92,2-.67,2.08.09,3.93.95,5.76a18.35,18.35,0,0,1,1.91,9.66,147,147,0,0,0-.86,19.16c.53,13.19,4,25.92,4.52,39.14.5,13.52,2.89,27,4.48,40.46,1.17,9.9,1.17,19.92,3.29,29.7C455.93,284.69,456.32,288.5,461.74,288.71ZM151.14,424c2.49,7.88,5,15.74,7.43,23.66.66,2.19,1.6,3.48,4.11,3.38s2.69-2.15,3.07-3.83c2-9,2.12-18.06,2-27.17,0-2.53-1.14-4.48-3.8-4.18-5.28.59-10.28-1.29-15.48-1.34A146.61,146.61,0,0,1,131,413.43c-3.12-.4-3.92-.05-3.21,3.16,2.43,10.86,4.69,21.77,7,32.66.35,1.66,1.14,2.73,3,2.76,2.21,0,2.94-1.55,3.09-3.22.23-2.56.06-5.14.06-7.87,1.58.52,1.29,1.48,1.42,2.23,1.83,10.3,4.07,20.47,7.86,30.26,1.31,3.39,2.63,4.18,5.49,1.28,7.87-8,7.94-7.9,2.44-17.59-.4-.71-.58-1.56-1-2.27C151.84,445.29,152.63,434.39,151.14,424Zm-12.33,50.13c.47-3-1.71-4.24-3.54-5.61a70.45,70.45,0,0,1-13.47-12.42c-8.16-10.25-13-22-16.66-34.36-.49-1.63-1.26-4.05-2.67-3.85A25.31,25.31,0,0,0,93.25,421c-2.24,1.34-1.15,4.32-.87,6.52a111.43,111.43,0,0,1,.18,30.25,118.29,118.29,0,0,1-4.87,19.8c-1.09,3.33-.07,5.54,2.9,7,3.51,1.7,4.22-1.59,5.5-3.44,1-1.47,2.14-3.3,2.13-5,0-4.35,2.49-4.23,5.56-3.92,4.13.41,8.26.85,12.13-1.5,2-1.23,3.79-.1,5.32,1.43a26.24,26.24,0,0,0,10.39,6.68C136.18,480.31,138.61,478.79,138.81,474.11ZM378,453.28c-.62,9,1,17.94,3.5,26.8.41,1.47.1,3.92,2.65,3.22,2.12-.58,5.44-1.37,5.12-3.9-.66-5.15,2.19-4.86,5.56-4.79a12,12,0,0,0,3.84-.77c5.6-1.81,5.57-1.84,4.69,4-.23,1.54-1.26,3.63,1.11,4.18,2,.47,4.42.79,5.85-1.49a13,13,0,0,0,1.3-3.23c2.1-7.33,4.1-14.68,6.23-22,2.72-9.32,2.53-19,4-28.52.31-2.05.47-5.88-3.15-4.35a33.4,33.4,0,0,0-13,9.87c-2.22,2.8.39,6.68.86,10.07.35,2.62,1.28,5.26,1.11,7.83-.3,4.2.57,8.89-2,12.45s-9.79,4-13.95,1.85c-2.31-1.19-3.38-2.29-2.39-5.38,1.56-4.88,2.69-9.87,4.56-14.71,3.62-9.38,2.18-11.28-8.09-12.23a6.44,6.44,0,0,1-1,0c-3.49-.92-4.81.92-5.43,4A71.57,71.57,0,0,0,378,453.28Zm-202.91,2a28.62,28.62,0,0,0,1,11.76c1.5,5.4,2.72,11.52,9,13.34,5.37,1.56,11,2.66,16.74,1.54,10.54-2.07,14.21-6.74,14.45-17.53.13-6.27-.61-12.5,1.17-18.81,1.72-6.1-2.81-9.78-8.94-8.07-2.88.8-5.76,1.61-8.65,2.33s-4.13,1.69-2.62,5.17c2.83,6.5,6.54,12.76,6.62,20.24.09,8.83-1.61,10.31-10.33,8.37-8.31-1.86-9.52-4.17-8.18-12.73,1-6.21,3.76-11.58,6.27-17.15,1.21-2.69,2.31-6.17.16-8.4-3.39-3.53-7.62-6.28-11.51-9.34s-5.14-.93-5.18,2.79C175,437.52,175.1,446.31,175.1,455.23Zm58.91,11c5.52.55,8.2,2.67,7.38,7.42-1.13,6.52,2.39,8.91,7.24,11,5,2.16,6.15,1.76,8.17-3.34.37-.93.57-1.92.85-2.88,3.5-12.31,3.48-12.52-8.59-16.48-3.57-1.18-6.64-1.82-3-6.29a6.59,6.59,0,0,0,1.06-4.3c-.31-4.31.57-9.47-3.53-12.16-3.58-2.34-7.19-4.69-10.54-7.3-2.56-2-4.53-4-7.61-1.23-2.57,2.3-5.14,4.54-2.35,8.38.81,1.13.6,2.48.45,3.85-1.48,14,.47,27.86,2.86,41.65.31,1.76,1.09,3.09,2.92,2.32a21.39,21.39,0,0,0,9-6.9c1.84-2.5-.61-4.67-1.46-6.91S235.11,468.77,234,466.19Zm516.1-49.28v11.48c0,1.68-.13,3.52,1.59,4.43,2,1,3-.73,4.16-1.84q19.6-18.63,39.2-37.29c1.11-1.06,2.15-2.27,1.59-3.91a3.87,3.87,0,0,0-3.91-2.56q-18.69-.17-37.37-.2c-3.43,0-4.73,1.58-5.06,5.19C749.54,400.46,750.38,408.68,750.11,416.91ZM637.24,515.54h.65v22.92c0,1.37.1,2.88,1.47,3.48s2.38-.65,3.36-1.57c6.18-5.8,12.49-11.48,18.56-17.4,6.89-6.72,14.53-12.71,20.27-20.57.79-1.08,1.87-2,1.37-3.52s-1.94-1.59-3.29-1.62c-12.3-.2-24.6-.34-36.89-.65-4-.1-5.44,1.88-5.48,5.43C637.2,506.54,637.24,511,637.24,515.54Zm54.08-2.17c-.17-1-.42-2.35-.58-3.67-.22-1.86-.46-3.8-2.55-4.46s-3.05,1.25-4.18,2.22c-2.25,1.92-4,4.36-6.19,6.42-10.78,10.1-21.36,20.42-32,30.69-1,.93-1.82,2.14-1,3.56s2,1.53,3.45,1.35c11.55-1.39,23.09-.44,34.62.27,5.51.34,7.46-.65,7.76-6.2C691.15,533.6,689.7,523.6,691.32,513.37Zm-2.41-97.22c0-6,0-12,0-18,0-1.62.32-3.48-1.74-4.23-1.85-.66-3.25.4-4.42,1.59-3.13,3.19-6,6.6-9.25,9.7-9.3,9-18.71,17.82-28.06,26.73-1.11,1.06-2.1,2.27-1.58,3.93.6,1.86,2.35,1.74,3.76,1.65a125.38,125.38,0,0,1,18.88.73c5.44.5,11,.16,16.45.08,4-.05,6.44-1.49,6.07-6.27C688.61,426.81,688.92,421.47,688.91,416.15ZM291.5,438.69c-6.93-.13-9.13,1.63-10.52,8.22-1.68,8-3.48,15.86-7,23.35-2.59,5.51-6.82,9.83-9.65,15.11-1,1.92-1.16,3.48.55,4.85s3.62,1.42,5.24-.48c1.39-1.64,3.23-3,4.21-4.86,1.57-3,3.7-3.47,6.54-2.52a17.4,17.4,0,0,0,12.21.06c2.31-.89,4-.08,5.53,2a17,17,0,0,0,6.88,5.64c2.54,1.09,5,2.1,7.11-.81s.94-5.11-1.37-7.31a54.39,54.39,0,0,1-12.89-17.53c-2.85-6.49-3.19-13.15-3.1-20C295.27,441.8,295.37,438.81,291.5,438.69Zm458.56,82.46h.05c0,6,0,12,0,18,0,1.31,0,2.87,1.42,3.5,1.57.72,2.89-.26,4-1.34q18.12-18,36.2-36c1-1,2.65-2,1.86-3.72-.68-1.51-2.35-1.75-3.89-1.68-11.76.59-23.5-.85-35.28-.1-3.61.23-4.5,1.71-4.4,4.95C750.17,510.18,750.06,515.67,750.06,521.15ZM328.42,471.33c.15-2.82.68-5.35.79-8,.42-9.73-1.18-19.54,1.15-29.2.21-.89.34-2.08-.75-2.64s-1.39.53-2,1c-5.18,4.1-10.3,8.26-15.58,12.23-2,1.52-2.3,3-1.08,5.06,1.85,3.14,3.83,6.23,5.36,9.53,3.36,7.23,6.11,14.7,6.6,22.77.16,2.66,2,3.62,4.06,4.47,1.24.51,2.47.51,2.87-.91,1.89-6.6,8.07-7.91,13.05-10.6,5.52-3,8.81-9.29,7.38-15.11-.45-1.84-1.78-3.12-3.66-2.29-3,1.3-6.2,1.07-9.22,2-1.75.55-3.16,1.11-3.06,3.24C334.53,467.19,331.09,469,328.42,471.33ZM130.57,201.63c-2.25,1.19-3.18,3.55-6,3.49-2-.05-2.39,2.9-3.39,4.54-.61,1,.32,1.8,1.4,2.15,5,1.65,1.7,4.42.69,6.57-1.28,2.71-2.91,2.92-4.23-.18a1.43,1.43,0,0,0-1.3-.48c-3.25,2.27-5.06-.19-6.8-2.47-1.58,2.37-.4,3.62.7,5.22.91,1.33,1.93,3.45-1.54,3.67-5.23.32-11.2,6.23-11.25,11.51,0,4-2.08,5.89-5.09,7.8-2.34,1.49-5.15-.58-7.13,1.39-2.76,2.77,2.19,4,1.4,6.36-2,5.95-3.68,12.21-10.77,14.44-2,.64-4.06,2.43-5.89.18-1.66-2,.53-3.19,1.59-4.57.61-.79,1.23-1.9.26-2.67-1.47-1.15-1.82.45-2.56,1.26-2.78,3.05-2.91,8.32-8.4,9.37,6.28,1,12.09.71,17.47-1.62s7.82-7.71,9.91-12.94c1.58-3.94,4.81-7.27,8.48-5.89,3.83,1.44,4.08-.54,5-2.76,1.76,1.09-.25,3.37,1.73,3.91,1.72.46,2.81-.83,3.81-1.91a53.2,53.2,0,0,0,6.17-7.12c1.31-2,3.44-3.66,3.78-6.29-2.82-.09-2.69-3.77-2.93-3.84-4-1.22-2.54-3.33-1-5.16,1.71-2,3.7-2.9,5.25.38a1.53,1.53,0,0,0,1.29.46c1.49-.23,8.49-10.78,7.7-12.19-1.69-3,0-5.06,1.25-7.31A6.05,6.05,0,0,0,130.57,201.63ZM429,458a24.56,24.56,0,0,0,0,3.05c.26,1.78-.7,4.91,2.29,4.42,2.45-.4,5.8-1.52,5.35-5.4-1.27-11,1.14-21.38,4.6-31.68a121.22,121.22,0,0,1,8.62-20.08c.8-1.46,1.69-3.17.3-4.61s-2.84-.3-4.22.13c-3.17,1-6.29,2.14-9.45,3.15-3.4,1.09-4.81,3.24-5.33,6.91A245.35,245.35,0,0,0,429,458ZM91.88,231.63c5.24-1.89,8.27-5.25,8.64-8.65.72-6.74,4.93-11.45,7.7-17a83,83,0,0,1,4.92-7.72c-6.63,2.31-6.36,10.22-12.47,13.32,0-1.68-3.42-3.47,1-4.44.92-.21,1.37-2.17,2.22-3.17,1.55-1.82,1.77-3.84,0-5.24a3.72,3.72,0,0,0-5.39.59c-2.18,2.8-6.29,2.5-8.36,5.59a1.88,1.88,0,0,1-3.16-1c-1.2-4.6-2.58-2.19-4.39-.36-3.19,3.22.2,4.79,2.06,7.08-2.91.34-5.9,3.25-6.67-1.9a1.25,1.25,0,0,0-1.62-.77c-1.1.32-1.08,1.29-.84,2a6.06,6.06,0,0,1-1.6,6.31c.48,2.37,4.32.19,3.28,3.55-.35,1.11-1.3,2.4.23,2.94,1.81.64,2.1-1.18,2.41-2.4.94-3.66,4.63-2.46,6.84-3.89.68-.44,1.78.55,1.7,1.35-.26,2.3-.91,4.52-3,6a1.32,1.32,0,0,0-.38.32c-.89,1.22-3.25,2.18-1.55,4,1.19,1.28,3,1.17,4.23-.64s3-1.21,4.55-1.52a2.93,2.93,0,0,1,2.29.33c.86.95-.18,1.79-.71,2.58C93.4,229.55,92.94,230.15,91.88,231.63Zm-7,199.81c-1.87-9.89-3.13-20.11-1.3-30.29.66-3.62-2.33-7.26.54-10.63,3.08-3.63,2.68-6.78-.34-10.56-1.33-1.66-4.57-3.09-3.23-6.57.51-1.32-1-1.65-1.87-.93-1.57,1.28-3.31,3.4-2.32,5.09,2.06,3.54-.26,6.76-.13,10.11.08,1.87.52,3.68.52,5.34,0,4.08,4.35,7,2.6,11.3-1,2.37-1.82,4.67.05,7.05.54.68.6,1.71-.42,2.06s-1.2-.62-1.47-1.42c-1-2.82-2.16-1.52-2.84.08-.78,1.84-1.07,3.83.47,5.61,1.35,1.56,2.59,3.66,1.9,5.47-2,5.08.78,7.77,4.39,10.27.87.61,1.32,2.33,2.74,1.49C85.29,434.23,84.63,432.78,84.85,431.44ZM468.94,89.75c-4,2.8-5.86,7.3-9.95,8.33-2.52.63-3.09,2-3.92,3.76-3.41,7.14-.49,13.78,1.6,20.5.51,1.65.86,3.34,2.89,3.58,1.39.16,1.93-1.07,2.48-2.1.87-1.64,1.08-3.18-.71-4.36-1-.68-2.31-1.9-1.15-2.7,5-3.38,4.19-9.53,7.13-14.16a19.4,19.4,0,0,1,1.4,1.51c.9,1.21,1.73,2.74,3.53,2.09s.95-2.24.74-3.44c-.29-1.63.25-2.52,1.84-2.93s2.48-1.39,2.09-2.9c-.55-2.1-2.69-1.56-3.75-1.13-4.61,1.87-5.16.23-3.72-3.75C469.62,91.57,469.2,90.87,468.94,89.75ZM40,246c0-3.66,0-5.92,0-8.17,0-1.61.64-3.43-1.42-4.32-.87-.38-2-1-2.7,0-1.13,1.57-3.17,3.24-2.1,5.23s.13,3.53-.19,5.4c-.4,2.34-2.64,6.49-.89,6.8,4.68.83,5.83,8.88,12.17,5.51,1.38-.73,2.16.94,2.88,2.12,1.85,3.06,3.75,6.1,5.78,9s4.15.27,6.2,0a1,1,0,0,0,.53-1.87c-5.77-3.87-4.89-14.34-15.16-13.72,3.49-3.35,4.19-8.51,1.81-10C43.9,240.1,42.64,243,40,246Zm211-59.33c2.21.36,1.92,2.42,2.56,3.79s1.15,3.1,3.08,2.52,2.41-2.54,2.64-4.42-.57-2.67-2.57-2.45c-2.76.3-3.47-2.06-4.63-3.84-.88-1.36-.35-4-3.24-3.56-2.31.35-2.94,2.1-3.09,4-.35,4.5-4.38,4.18-7,4.76-2.26.5-2.14-2.84-3-4.47a28.21,28.21,0,0,1-1.81-5.14c-.28-.93-.16-2.29-1.45-2.23-1.44.07-1.59,1.51-1.83,2.63-.62,2.87.66,5.21,2.24,7.4s.18,3.26-1.29,4.55c-1.9,1.65-2.51.07-3.36-1.14-1.29-1.85-2.8-3.33-5.33-3-2.06.27-3,1.92-1.43,3,3.4,2.29,5.61,5.61,8.5,8.31,1,1,2.76.77,2.54-.69-.9-6.09,2.81-2.72,4.58-2.21C245.23,196.74,249.6,194.41,251,186.67Zm155.73-38.51c-1,5-3.71,3.79-6.47,2.09-2.19-1.36-5.26-2.28-2.07-5.86,1.8-2-.23-2.81-2-3.23-3-.73-5.3-2.7-7.39-4.84-1-1-1.7-3.09-3.42-1.58a4.26,4.26,0,0,0-1.46,4.88c2,4.57,4.26,9,4.47,14.16,0,1,.72,4.47,2.78,2.61,3.4-3.07,4.23-.55,5.41,1.63,1.63,3,4.37,3.58,5.7.82,2.18-4.52,4.22-2.78,6.89-.19C410.07,154.44,410.08,151.21,406.71,148.16ZM69.32,327.29c4.68-.08,17-6.29,19.44-10.14.94-1.47,3.49-3.3,1.49-5.12-1.56-1.4-3.2.88-4.64,1.81s-2.65,2-4,3c-2.5,1.86-5.14,3-8.34,1.92-7.11-2.47-13.86,1.91-20.92,1.19a2.47,2.47,0,0,0-2.8,2.78c.17,1.84,1.65,2,2.9,2.87C57.9,329.17,63.87,325.9,69.32,327.29Zm5.5,96.47c-2.19-3.65-4.54-8.66-7.75-11.95-4.39-4.49-7-9.47-9.95-14.7-1.66-3-3.69-5.71-5-8.95a8.27,8.27,0,0,0-6.42-5,3.91,3.91,0,0,0-2.24.7c-.2.11-.19,1.21,0,1.27,5.82,2.42,2.73,8.63,5.2,12.15,2.14,3.06,1.74,7.9,5.72,9.34,3.57,1.3,5.65,3.88,7.7,6.61,3,3.93,7.18,6.87,9.27,11.54a2.27,2.27,0,0,0,2.82,1.49C74.83,426,75,425.33,74.82,423.76ZM272.36,168.52c-1.2-1.66-3.12-5-5-7.93-3-4.64-3.93-9.36-4.5-14.46-.17-1.54.42-3.92-2.09-3.64-1.88.21-3,2.07-2.85,4.11a52,52,0,0,0,1.18,7.86c1.36,5.48.45,11.32,2.61,16.61.9,2.22,3.5,5.82,4.8,4.43C268.43,173.4,274,175.45,272.36,168.52ZM195.2,224c-1.78-2.12-.72-4,.3-6,.61-1.19.94-2.6-.16-3.71a2.1,2.1,0,0,0-1.8-.33c-1.68.58-1.37,2.13-1.24,3.39.27,2.8-1,5-3.6,4.87s-2.82-2.81-2.54-5.12a12.51,12.51,0,0,0,0-1.5c0-1.91-.68-3.49-2.8-3.25s-2.46,1.95-1.56,3.74c1.2,2.4.69,3.65-1.85,5s-2.33,11.34-.14,13.22a2.62,2.62,0,0,0,2.79.62c2.49-1.23,5.92-2.07,7-4.13C191.09,228.2,194.05,227,195.2,224ZM10.59,424.49c-.53,3.59-.23,6.94-1.81,9.92a2.07,2.07,0,0,0-.09,2.32c2.08,3.17,4.06,6.42,6.25,9.52,1,1.39,3.11,2.08,1.66,4.48s-3.3,1.44-5.23,1.16c-1.39-.21-3.53-1.77-4-.23-.58,1.79.1,4.08-.32,6.15,0,.15.72.46,1.11.7l6.8-3,.45-.22c5.76-2.69,6.12-3.51,4.13-9.35-1.65-4.87-4.61-9.74-3.67-14.84S13.83,425.69,10.59,424.49ZM53.67,304.76c-.2,2.4-3.53,2.17-2.9,4,.77,2.31,3.22.71,4.88,1.14,2.14.56,5.1-.23,4.45,3.59-.16.92-1.07,2.1.34,2.44a5.81,5.81,0,0,0,3.37-.6c1.32-.57.33-1.56.24-2.48-.4-4-2.54-8.64,4.69-11-6.51,1.63-1.61-3.07-3.52-3.55-10.07-.6-17.93,6.45-27.61,7.05C43.1,308.29,48.27,304.06,53.67,304.76Zm108.59-28c0,6.21.11,6.35,6,5.71a29.29,29.29,0,0,1,3-.23c2.74,0,5.48-3.19,4.28-5.51a5,5,0,0,1,0-5.46c1-1.87-.73-3.52-2.08-3.86-1.95-.49-4.1-3.35-5.51-1.7C165.12,269,161.28,272.11,162.26,276.79Zm13.21,22.81c.13,1.46-1.69,3.94.9,4.5,2.27.49,5.14.95,7.19-.62,1.49-1.15,1.84-4.43.79-5-3.74-1.81-4-6.74-7.07-8.07-2.79-1.2-2.2-3.89-4-5.07-1.53-1-11,2.52-12,4.39-.61,1.1-1.87,2.43-.75,3.6s2.6.65,3.91-.49c2.77-2.42,6.06-1.69,8.89-.47S175.92,296.71,175.47,299.6ZM57.65,148.29c-1.62,3.78-2.95,7.19,0,10.55.75.87.27,1.37-.5,1.95-2.56,1.93-.54,3.77.63,4.93,4.3,4.26,4.39,4.4,0,8.3-.63.57-2,1-1,2.23.55.7,1.46.51,2.28.14,3.11-1.39,4.74-3.3,4.55-7.15-.13-2.7-2.16-6.43,2.18-8.24a4.32,4.32,0,0,0,2.56-5.36,5.12,5.12,0,0,0-4.82-4.29C61.16,151.15,58.77,151.14,57.65,148.29ZM536,119.37c0,2.7,0,4.7,0,6.7,0,1,0,2.22,1.39,2.09,1-.1,1.13-1.16,1.07-2-.31-4.68,1-9.22,1.61-13.77.91-7-.17-14,1.52-20.81,1.36-5.47-.87-10.14-1.86-15.12-.14-.69-.5-1.28-1.26-1.33-1.09-.07-1.48.8-1.45,1.62.21,5.56-2,11,.5,16.72a19.54,19.54,0,0,1,.3,16A20.28,20.28,0,0,0,536,119.37ZM144.91,347.05c.21-4.12-1.39-7.59-3.52-11-.83-1.32-.52-3.62-2.95-2.94-2.24.63-3.71,2.17-3.37,4.8.13,1,.29,2,.34,3,.1,1.86,2,3.92-1.52,5.18-2.08.76,0,2.48.65,3.64.53.92.88,2.67,2.36,1.77.92-.57,2.11-1.82,1.18-3.35-.57-.94-1.13-1.85.4-2.23,1.71-.43,2.67.93,3.84,1.86s.5,1.19-.25,1.74c-2.26,1.64-2.76,3.67-1.68,6.35,1.49,3.69,2.18-.85,3.84-.26,4.53,1.62,3.48-1.54,2.05-3.49A6.22,6.22,0,0,1,144.91,347.05Zm244.85-45.23c2.61-.27,2.22-2.61,2.64-4.18,1.61-6.13,2.46-12.54,7.86-17,1.25-1,2-2.82.53-4.43-1.18-1.3-2.53-1.21-4-.34-4.75,2.74-9.43,11.4-8.46,16.69.36,2,.72,3.62-.05,5.59C387.78,299.4,387.65,301.25,389.76,301.82Zm-81.75,17,2.06-.17q-2.46-25-4.93-50.1C303.77,285.48,302.9,302.39,308,318.79Zm91.28-17a5,5,0,0,0,3.17-2.19c2.13-2.71,4.24-5.44,6.38-8.15,1.08-1.37,3.14-2.84.57-4.34-2.1-1.22-3.89-4.89-7.11-1.75a28.32,28.32,0,0,0-5.92,8.47C395.21,296.31,397.29,301.64,399.29,301.76Zm-268.51,66c-.73-.13-2.2-.65-2.32.59-.28,2.84-2.56,3.47-4.29,4.89-1.18,1-2.67,3-2.35,4,.58,1.88,2.74,1,4.25.56a2.67,2.67,0,0,1,3,1.05c1,1.07,2.09.84,3.09,0,4.4-3.67,6.95-8.72,9.95-13.43a1.5,1.5,0,0,0-.46-2.19c-.76-.42-2-.18-2.14.58C138.78,369.89,134.54,368,130.78,367.78ZM93.39,402c1,1.07,2.68-1.31,3.43.61,1.6,4.08,2.57,1.36,3.31-.36,1-2.27,1.2-4.77,2.37-7,2.39-4.63.89-10.14,3.12-14.91.39-.84-1.25-1.58-2.2-1.37-2.39.51-4.39,1.4-4,4.6a12.48,12.48,0,0,1-.34,5.71C97.69,393.71,93.2,396.61,93.39,402ZM270.91,157.11c-1.5.09-1.83.77-1.88,1.68-.09,1.45.71,2.42,1.57,3.5,3,3.79,8.54,4.71,10.61,10,1,2.45,4.8,1.1,4.52-1.23-.39-3.35-.74-7.69-3.53-9.78C278.94,158.79,273.42,161.45,270.91,157.11Zm-57.74,12.25c.15,5.36,6.52,13.66,10.85,14.58a2.62,2.62,0,0,0,1.85-.2c.88-.66.21-1.47-.15-2.18-.82-1.6-2.61-3.41-1.66-5,2.87-4.66-.45-7.25-2.79-10.28-.41-.53-.75-1.16-1.54-1-1.09.27-1,1.21-.9,2,.35,2.53,1,5.07-.51,7.45C215.63,173.84,215.88,170.65,213.17,169.36ZM113.43,414.69a4,4,0,0,1,1.17-.66c3.34-.6-.55-5.71,3.62-5.76l-.09-.94c-.23-2.2-6.47-8.06-8.6-8a2.42,2.42,0,0,0-1.72.78c-4.2,6.44,1,9.57,4.63,13.36C112.67,413.75,112.43,414.65,113.43,414.69ZM438.35,78.37c2.41-.57,6.84,1.34,6.48-3.48-.32-4.35-4.15-5.5-8.18-5.46-3.47,0-7.1,1.15-6.79,4.83C430.25,78.78,434.76,78.11,438.35,78.37Zm104.08-5.76c-.33-8.58.33-17.26-3.74-25.7C534.7,53.14,536.51,66.1,542.43,72.61ZM448.3,87.53c-.14-3.07.37-6.26-2.62-6.89-2.55-.53-3.39,2.11-3.63,4.35s-1.78,1.17-2.93,1.2a4.78,4.78,0,0,0-4.05,2.43c-.52.83,0,1.52.52,2.2,2.65,3.45,6,1.6,9.09,1.11C447.28,91.52,448.62,89.68,448.3,87.53Zm-6.94,7.29c-.75,0-1.58-.08-2.4-.15a3.89,3.89,0,0,0-4.23,2.78,4.33,4.33,0,0,0,.71,4.68c1.39,1.49,3.15.55,4.63-.1,3.64-1.59,7.23-3.3,10.83-5,.94-.44,1.83-1,1.46-2.23-.3-.95-1.42-1.37-2-.8C447.57,96.94,444.38,94.2,441.36,94.82ZM371.74,444.88a46.61,46.61,0,0,0-.3-5.28c-.24-1.33-1-2.87-2.56-2.35s-.48,2-.19,3a10.45,10.45,0,0,1-2.44,10.58c-2.49,2.79-3.72,6.52-6.48,9.19a1.93,1.93,0,0,0,.24,3.06c1.18.73,1.65-.51,2.19-1.31,1-1.5,1.72-3.5,3.13-4.35C370.5,454.29,371.68,449.52,371.74,444.88ZM23.36,42.44c-2.76-3.24-4.19-7.84-6.29-12.11-.28-.58-1.59-.73-1.67-.23-.52,3.48-3.94,4.54-5.58,7-.84,1.27.25,2.65,1.63,3.1a19.17,19.17,0,0,0,4.86.93c2.09.12,4.63-.83,4.18,2.94-.15,1.18,1,1.16,1.79,1C23.25,44.87,23.43,44,23.36,42.44ZM542.2,44.87c-.5-5.95-1-11.91-1.54-17.85A2.2,2.2,0,0,0,538.78,25a2.53,2.53,0,0,0-2.67,1.8,12.88,12.88,0,0,0-.89,5.21C535.24,37.33,538.1,41.12,542.2,44.87ZM104.78,263.73c-3.56.5-4.78,4.75-8.42,4.87-1-2.15,1.92-3,.51-5.71-3.7,4.54-7.15,8.74-10.54,13a1.46,1.46,0,0,0,.08,1.37,1.66,1.66,0,0,0,2.26.38C94.57,273.63,100.8,270,104.78,263.73ZM80.5,305c-1.93-.36-3.63-1.25-4.63,1a3.25,3.25,0,0,0,.6,3.7c1.44,1.54,3.36,1.43,5.07.61a22.57,22.57,0,0,0,4.09-2.79c3.76-3,7.57-5.87,11.11-9.07.85-.75,3.21-1.93,1.66-3.47s-2.39.54-3.31,1.62c-1.19,1.38-2.43,2.72-3.74,4A14.61,14.61,0,0,1,80.5,305ZM87.23,65.22c-1.91-2.35,0-6.73-2.24-8.43A35.24,35.24,0,0,1,78.05,50a1.76,1.76,0,0,0-2.23-.59,1.7,1.7,0,0,0-.93,2.07c1.48,6.53,7.2,10.19,10.56,15.44C86.11,68,87.15,66.83,87.23,65.22Zm67.46,69.95c-2.4,1.36,0,3.69-1.94,4.24s-2.32-1.44-3-2.68a4.24,4.24,0,0,0-2.7-2c-1.33-.39-2.75-2.25-4-.65a5.56,5.56,0,0,0-.22,6.13c.74,1.28,2.06,3.38,4.26,2,.93-.58,1.53-1.1,2.59-.43,2.65,1.67,5.25.31,6.77-1.35C158.25,138.45,154.49,137.53,154.69,135.17ZM129.89,101a12,12,0,0,0,0,2c1,5.68,8.74,5.7,9.75,11.43,0,0,.83,0,.87-.06a43.75,43.75,0,0,0,1.81-6.56c.22-1.57-.71-4.6-1.45-4.27C136.47,105.56,133.87,100.83,129.89,101ZM248.8,300.56a5.14,5.14,0,0,0-1,.74c-2.52,2.94-3.31,12.83-1.17,15.95a2.85,2.85,0,0,0,3.41,1.3,1.59,1.59,0,0,0,.66-2.51c-2.39-2.64-.91-4.66.62-6.92C252.22,307.82,250.05,300.61,248.8,300.56Zm-196-159.45c1.14.07,2.36.14,2.77-1.32a2.88,2.88,0,0,0-1.34-3.44,69.16,69.16,0,0,0-8-3.79,2.61,2.61,0,0,0-3,1.3c-.91,1.29-.44,2.46.33,3.64C45.88,140.86,49.38,140.92,52.85,141.11ZM239.27,97c-1.82-.67-3.75,3-4.67-.16-.63-2.11,2-2.12,3.43-2.62.46-.15,1,0,1.47-.23,1.2-.48,3.42-.12,2.59-2.52-.62-1.8-1.66-3.29-4.06-2.52-2.92,1-5.31,2.17-6.16,5.64-.54,2.2-1.84,4.5,1.07,5.32C235.21,100.51,238.8,102.14,239.27,97ZM440,159.25c-.24-3.18-.48-6.13-.69-9.08-.1-1.33-.06-2.9-1.73-3.12s-3.1.81-4.24,2.12c-1,1.15-1.35,2.39-.24,3.52,2.51,2.57,4.27,5.38,4,9.16a1.58,1.58,0,0,0,1.42,1.75c1.37.05,1.37-1.14,1.43-2.12C440,160.66,440,159.84,440,159.25ZM488.29,41.19c.54,2.24.64,5.6,3.23,8.05-.13-3.38,4.92,1.5,4.32-2.73-.53-3.74-.77-7.88-4.65-9.62C489.2,36,488,38,488.29,41.19ZM345,431.11c-6.16,4.31-6.18,4.32-1.84,9.48a2.19,2.19,0,0,1,.67,2.2c-.37,1.31-.89,2.86,1.24,2.92,1.77.05,2-1.61,2.11-2.88C347.44,438.77,345.75,435.09,345,431.11ZM196.78,412.46c0-2.58,0-5.84-2.91-6-2.53-.12-3,3-3.09,5.39a8.76,8.76,0,0,0,.09,2.46c.58,2.16.18,5.71,2.59,5.9,2.88.21,2.08-3.45,2.86-5.43A12.4,12.4,0,0,0,196.78,412.46ZM107.83,68.09c-1.69.17-1.59,1.12-1.3,2.72.8,4.5,5.07,5.29,7.79,7.72.65.58,1.66,1.6,2.48.54a4.07,4.07,0,0,0,.42-2.81C116.92,74.05,110.3,68.31,107.83,68.09ZM48.06,191.26c-.25-.53-.31-.93-.53-1.07-2.92-1.87-5.85-3.72-8.82-5.52a1.7,1.7,0,0,0-2.22.52c-.6.65-1,1.65-.4,2.26,2,2.19,3.44,5.08,6.47,5.94C44.75,194,46.65,193,48.06,191.26ZM292.37,519.48c1.27-4.73,2.16-9.1,4.71-12.83.71-1,1.2-2.22.08-3.09-1.81-1.41-1.59.52-2,1.41-1,1.87-2.13.74-3.25.14a1.93,1.93,0,0,0-2.64.41,1.22,1.22,0,0,0,.32,2.06c2.87,1.42,2,3.7,1.58,6C290.75,515.45,290.19,517.43,292.37,519.48ZM140.53,242.35c-1.52,1.54-6-.67-6,2.12s4.2,3.87,7.07,4.28c1.65.24,4.31,0,4.43-2.84C146.14,242.45,143.41,242.66,140.53,242.35ZM53.62,223.56c-.58-1.77.51-4.82-2.18-4.79a6.23,6.23,0,0,0-5.81,5.17c-.37,3.41,3.37,2.84,5.55,3.25C54.43,227.79,52.78,224.79,53.62,223.56Zm210,188.4c-1.11,4.05.11,6.84,2.32,9.38,1.8-1.73,5.92-.11,6-1.91.18-2.55-1.88-5.26-3.26-8.55-1.56,2.81,1.11,4.21-.58,5.82C265.72,416.28,265.83,413.6,263.59,412Zm16.82,13.11c-.44-2.56-.55-7-2.56-6.92-3.94.13-2.88,4.22-2.81,7.08a1.6,1.6,0,0,0,0,.49c.49,1.39-1.29,4.08,2.06,3.86C279.91,429.39,280.68,427.58,280.41,425.07ZM129.83,310.47c-2,.55-4.53,1.22-4.33,3.78a4.92,4.92,0,0,0,4.48,4.58c2.67.16,3.48-2.08,3.48-4.42A3.58,3.58,0,0,0,129.83,310.47Zm-20.64,70.86a9.2,9.2,0,0,1,6.53-2.16c2.38,0,3.14-2.15,3.93-4a2,2,0,0,0-.78-2.61,2.75,2.75,0,0,0-3.28-.06C112.76,374.87,110.12,377.42,109.19,381.33ZM251.62,428c-.05-2.7-1.39-5.74-4.26-6.55-1.58-.45-3.56,2.55-3.35,4.57.33,3,3,4.54,5.76,5.09C251.32,431.47,252,430.12,251.62,428Zm-146-113c-.12,1.41.14,3.88,3.28,3.92,2.72,0,3.31-2.28,3.46-4.55.21-3.27-2.1-4.48-4.64-4.57C104.93,309.72,105.8,312.23,105.62,315ZM24.46,163.6c3.09,5.82,8.3,3,12.69,3.4C33.69,163.45,30.18,160.1,24.46,163.6ZM492.7,82.74c-1.89-.27-2.24,1.5-3.52,1.92-3.09,1-4.54,5.45-2.88,8.16.94,1.53,2.37,1.75,3,.15C490.68,89.7,492.64,86.56,492.7,82.74ZM87.4,403.64c2.77-3,2.39-6.53,2.47-9.94,0-1-.06-2.24-1.5-1.89-1.17.27-3.59-.14-3.24,1.36C85.92,396.56,83.8,400.65,87.4,403.64Zm47.2-106.33c.61,2,2.31,2.89,4.35,3,2.52.17,4.3-1.15,4.16-3.71-.11-1.86-.79-4.09-3.55-3.77C137,293.14,135.38,294.54,134.6,297.31Zm-110.12-140c-1.13,2.1-.2,3.3,1.86,3.4,2.3.12,2.57-1.78,2.44-3.48A8.13,8.13,0,0,0,25.23,151c-1-.69-2.16-1.15-3.06.09a1.81,1.81,0,0,0,.47,2.63C23.84,154.67,25.16,155.47,24.48,157.32Zm397.85-42c-3.9,3-7.63,3.51-11.52.33-1.1-.9-2.49-1.15-3.44.33-.67,1-.05,1.79.82,2.48C412,121.49,420,120,422.33,115.36Zm-404,21.74c.43,1.34-1,4,1.56,3.79a5,5,0,0,0,4.42-4.59c.12-1.81-.85-4.32-3.24-4.2C18.13,132.25,18.64,135,18.34,137.1ZM187.08,355.4l-1.46-.15c-1.35,3.84-2.72,7.66-4,11.52-.3.9-.61,2.1.45,2.68,1.21.66,1.72-.5,2.18-1.33C186.47,364.1,186.88,359.76,187.08,355.4ZM430.56,89.81c-2.51,0-2.8,1.76-2.59,3.42.26,1.94-.51,5.21,2.18,5.14,1.9,0,3.45-3,3.75-5.21C434.18,91.1,432.23,90.25,430.56,89.81Zm-215.06-20c1.77-1.1,5.23-.18,6.13-3.48.43-1.57-1.44-2.07-2.33-1.52-2.31,1.41-6.17-1-7.27,2.63C211.49,69.3,213.36,69.83,215.5,69.85Zm39.12,275.73c-.12-2.5-.81-3.66-2.74-3.48-2.4.22-3.53,1.73-3.48,4,0,1.6.74,3,2.71,2.71C253.27,348.46,254.75,347.29,254.62,345.58ZM418.06,125.15c-.38-2.16-1.76-1.2-2.79-.51-1.75,1.16-2.74,3.26-5,3.81a2,2,0,0,0-1.47,2.28c.15,1.18,1,1.62,2.06,1.72s2.26-.08,2.3-1.26c.07-2.2,1.67-2.47,3.15-3.14A2.82,2.82,0,0,0,418.06,125.15ZM33.62,203.82c2.4,0,4.88.23,5.15-2.74.17-2-1.7-2.22-3.2-2.12-2.38.17-5,.76-5.12,3.6C30.34,204.88,32.6,203.63,33.62,203.82ZM394,416.37c-.09-2.3-.52-4.85-3.54-5.34-1.6-.27-1.59,1.35-1.3,2.48.64,2.43.44,5.69,3.61,6.26C394.4,420.05,394,417.9,394,416.37Zm-350,87.88c0-.5,0-1,0-1.48-.05-2.55-1.75-5.61-3.41-5.23-3.11.71.29,3,.07,4.7a4.83,4.83,0,0,0,.05,2c.39,1.43-.59,4,1.71,4S43.77,505.71,44.06,504.25ZM85.9,23.81c-1-4.12-2.39-6.43-4.55-8.28s-3.29-.28-4.49,1.19c-.8,1-.17,2.6.41,2.35C81.49,17.24,82.4,21.68,85.9,23.81ZM467,121.93c1.17-2.84.56-6,2.42-8.4.66-.85.92-1.94-.19-2.57s-1.78.33-2.44,1.08C464.2,115,464.18,118,467,121.93ZM401.26,417.15c.09-1.81.23-3.76-2.11-3.79-2.69,0-2.32,2.31-2.42,4s0,4.19,2.38,4.05S400.9,418.72,401.26,417.15ZM260.19,327.87c-.15-1.05-.48-2.36-1.67-1.86-1.92.81-5,.58-4.75,4,.1,1.34.22,3,2.07,2.7C258.48,332.32,259.48,330.17,260.19,327.87ZM29.67,240.51c1.83-1.54,1.73-3.78,1.78-5.74,0-1.28-1.41-2.12-2.6-2.71a1.66,1.66,0,0,0-2.15.59c-1,1.22-.19,2.4.5,3.07C28.56,237.05,27.65,239.38,29.67,240.51Zm5.22-91.71c-1.12-.06-1.77,0-2,.75-.4,1,4.7,7,5.82,6.84a1.46,1.46,0,0,0,1.2-1.85C39.25,151.53,37.1,149.91,34.89,148.8ZM162.72,512.29c1.95.41,3.67-.8,5.29-2.32.56-.52.81-1.1.4-1.69a1.7,1.7,0,0,0-1.23-.41c-2.07,3.17-4.69.91-7.09.8-1-.05-2.09.09-2.33,1.32-.29,1.54.78,2,2.05,2.14C160.63,512.22,161.45,512.22,162.72,512.29ZM409.2,408.38l1.09.71c2.06-2.72,4.12-5.43,6.16-8.17a1.33,1.33,0,0,0,0-1.8,1.15,1.15,0,0,0-1.77.06C413,402.3,410.16,404.88,409.2,408.38ZM446.47,104c-1.61.21-3.07,1-2.7,2.4s.57,3.88,3,4c1.62.09,3.09-.82,2.82-2.61S448.43,104.41,446.47,104ZM111.4,371c1.91-.89,4.52-1.19,4.85-4.12.12-1.05-.27-2-1.7-1.76-2.46.37-4.58,1.17-5,4C109.34,370.23,110,370.94,111.4,371Zm-66-206c-1.91.08-2.61,1.07-2.36,2.62a2.87,2.87,0,0,0,3.45,2.71c1.21-.15,3.09,0,2.93-1.87C49.24,166.1,47.14,165.51,45.43,165ZM114,525.2c-2.24,2.6-1.77,5.12-1.56,7.55a1.85,1.85,0,0,0,2,1.83,1.39,1.39,0,0,0,1.14-2.2C114.29,530.31,115.48,527.8,114,525.2ZM91.69,285.43c-1.22,1.88-4.07,2.85-2.15,5.26a3.32,3.32,0,0,0,4.92.63C99.85,286.47,88.07,289.81,91.69,285.43ZM481.54,59c-2.46,6.24-2.42,9.05.23,12C481.57,66.94,484,63.42,481.54,59ZM82.82,292.76c.94-2,4.82-1.44,3.59-4.56-.53-1.35-1.53-2.68-3.4-2.06C77.66,287.9,85.48,290.52,82.82,292.76ZM404.66,266.1c-.44-2-1.86-2.69-3.66-2.53-1.33.12-2.83.65-2.5,2.36s1.24,3.21,3.28,3A3.09,3.09,0,0,0,404.66,266.1ZM57.8,23.14c0,5.29,1.77,6.49,5.94,4.25a1.73,1.73,0,0,0,1-2c-.14-.89-1-1.91-1.6-1.38C60.93,25.8,59.59,23.21,57.8,23.14ZM388,307.2c.93.8-.95,3.41,1.46,3.21,1.93-.16,2.3-2.57,2.34-4.42,0-1.31,0-3-1.83-2.92C387.27,303.18,388.43,305.48,388,307.2ZM125,296.65c1.5-.19,3.25-1.18,3.24-2.79,0-1.78-2.52-2.85-3.69-2.92-2.12-.13-1.25,2.52-1.84,3.88S123.41,296.65,125,296.65Zm-2.79,62.73a3.7,3.7,0,0,0-3.25-2.23c-2-.22-2.27,1.82-2.52,3.06-.33,1.71,1.16,2.23,2.61,2.07S122,361.7,122.16,359.38ZM228.92,73.12a4,4,0,0,0-3.4-3.54c-1.32-.2-2.5.4-2.32,1.83a4.28,4.28,0,0,0,4,3.73C228.44,75.33,228.92,74.43,228.92,73.12Zm-62.63,415.6c.5,2.8,3.25,3.36,5.29,4.62.54.33,1.39-.44,1.19-1.13-.73-2.61-3-3.88-5.09-5.15C166.82,486.54,166.36,487.64,166.29,488.72Zm-115-197c-2.53-1.93-2.83-4.1-4.14-3.65a6,6,0,0,0-3.48,3.44c-.42,1.63,1.66,2.15,3.08,2.43C49.41,294.52,46.77,290.22,51.28,291.76Zm126.41,88.53c-1.84,1-2,2.92-2.57,4.54-.34,1,.18,2.23,1.5,1.63s3.85-.27,3.36-2.67C179.73,382.59,179.4,380.85,177.69,380.29Zm191.37,92c-.82.2-2,.33-1.88,1.6.27,2.23,2,3.29,4,3.71a1.52,1.52,0,0,0,2-1.58C373.18,473.43,371.12,473,369.06,472.28Zm19.16,19c-1.42.26-2.48.83-2.23,1.93a4.86,4.86,0,0,0,4.2,4c1.19.15,1.81-.84,1.54-2C391.25,493.28,389.49,492.36,388.22,491.31Zm57.25-372.38c-1.46.18-2.25.88-2.08,2.29a3.22,3.22,0,0,0,3.31,3c1.3.06,2.46-.65,1.92-2.08S447.41,119,445.47,118.93ZM403.42,497.37c1.33-1.52-.1-3.45,1.24-4.81a1.06,1.06,0,0,0-.52-1.9,2.44,2.44,0,0,0-3.24,1.47C399.92,494.72,400.77,496.5,403.42,497.37ZM50.59,15c-1.44.85-2.28,3.22-4.39,1.92-.63-.39-1.57.19-1.41.81a15.17,15.17,0,0,0,1.71,4,1,1,0,0,0,1.61-.29C48.63,19.35,51.78,18.35,50.59,15Zm-1,220.46c-.44-2.7-2.78-2.94-4.75-3.49a1.37,1.37,0,0,0-1.83,1.6c.44,2.43,2.6,2.58,4.5,3.05C48.67,236.92,49.5,236.9,49.63,235.49Zm2.62,77.33c-2.12.07-4.22.44-5,2.47-.49,1.25,1,1.52,1.92,1.25,2-.56,4.74-.09,5.47-2.49C55.13,312.4,53.17,313,52.25,312.82ZM409.92,137.68a3.7,3.7,0,0,0,2.61,3.23,4,4,0,0,0,3.79-.5,1.58,1.58,0,0,0,.47-2.2c-.9-1.35-2.09-.44-3.12-.1C412.35,138.55,411.33,136.74,409.92,137.68Zm2.82,360.44c-.24-1.56-1.33-1.32-2.28-1.18-1.66.27-3.45.61-3.29,2.86a1.92,1.92,0,0,0,2.47,1.79C411.43,501.19,412,499.46,412.74,498.12ZM91.13,64a12.5,12.5,0,0,0-1.85,8.25,1,1,0,0,0,1.6.51c2.43-2,1-4.81,1.2-7.27C92.1,65.2,91.76,64.93,91.13,64Zm152.8,13.38c-.09-1.5-.11-3.16-2.19-3.13a2,2,0,0,0-1.88,2.41c.14,1.46.48,3.1,2.41,3.18C243.92,79.87,243.83,78.48,243.93,77.34ZM186.85,405.11c-5.15,7-5.15,7-.5,8.66C184.78,410.93,187.28,408.68,186.85,405.11Zm325-393.47c1.1,3.42-.52,6,1.32,8.37C513.43,17.46,517.87,14.85,511.8,11.64Zm-267.32,156c-2.22.41-2.44,2.32-2.76,4-.19,1-.5,2.81,1,2.71,2.58-.15,1.88-3,2.89-4.55C246.31,168.8,245.72,168,244.48,167.6ZM100.94,290.13c1.67,1.13,2.42,3.83,4.91,3.12.9-.26,1.07-1.68.45-2.62C104.91,288.54,103,289.07,100.94,290.13Zm187.77-46.54c-1.11.33-3-.46-2.91,1.64a2.56,2.56,0,0,0,2.57,2.54c1.59,0,3.07-.63,3.21-2.39C291.75,243.31,289.87,243.91,288.71,243.59Zm-192-50.33c-1.92,2.35-5.69,1.69-7.91,4.43C93.25,198.76,95.4,196.7,96.72,193.26ZM255.9,360.73a2.59,2.59,0,0,0-2.45-2.57c-1.42-.18-2.65.14-2.78,1.89-.1,1.45.84,2,2.1,2.14S255.45,362.48,255.9,360.73ZM49.57,332c2.72-.69,5,.46,7.12-.79a1.5,1.5,0,0,0,0-1.29c-2.26-1.26-4.36-.19-6.47.59C50.09,330.53,50.07,330.76,49.57,332Zm68.9-89.84c-3.75,1.26-5.15,3.79-7,5.8a1.57,1.57,0,0,0,0,2.23,1,1,0,0,0,1.65-.29C114.05,247.05,117.05,245.66,118.47,242.15ZM58,273.11c.2,1.84-2.2,4.26,1.17,5.31.8.25,1.87.7,2.12-.31C61.94,275.62,60.11,274.32,58,273.11Zm113,48.73c-.89,1.54,1.15,2.22,1,3.54-.09.8-1.13,2,.55,2.33.47.08,1.17-.48,1.57-.92.82-.9,1.31-2.14.6-3.17S172.79,321.4,171,321.84Z" transform="translate(-0.89 -0.9)"/><path d="M347,1a13.55,13.55,0,0,1-2.88,8c-4.12,5.88-2.38,12.9-1.64,19.42,1.26,11.1,3,22.14.92,33.3-.54,2.91-1.42,5.76-2.21,8.62A2.28,2.28,0,0,1,339,72.16c-1.48-.09-.72-1.53-1.06-2.33-3.41-8.09-3.72-17.57-11.33-23.86-1.94-1.6-2.47-4.94-3.58-7.51-.66-1.57-1.71-2.6-3.42-2.17s-1.69,2-1.66,3.29c.06,3.22.87,6.52-1,9.84-2.87-1.89-2.38-4.91-3.15-7.26A103.77,103.77,0,0,0,295.23,8.3C293.33,6,291.74,3.44,290,1Z" transform="translate(-0.89 -0.9)"/><path d="M247,1c-1.19,2.33-1.47,5.08-3.53,7s-3.81,5-6.2.35c-.52-1-1.75-.74-2.72-.86-5.8-.7-11.46-1.87-16.56-4.93-3.12-1.88-6.92.59-10-1.59Z" transform="translate(-0.89 -0.9)"/><path d="M455,1c-3.35,4.42-5.23,4.42-9,0Z" transform="translate(-0.89 -0.9)"/><path d="M423,1c-2.64,3.43-6.29,3.43-10,0Z" transform="translate(-0.89 -0.9)"/><path d="M758.3,711.75c3.59,5.32,1.48,10.21,2.29,14.85.22,1.3-.11,2.7.15,4,.41,2.07.48,5.16,2.47,5.54a4.35,4.35,0,0,0,4.9-3.68c.16-1.32,1.35-1.23,2.36-.82a2,2,0,0,1,1.4,2.34c-.24,1.13-.78,2.19-1.07,3.32-.25,1-.46,2.07.53,2.73.81.53,1.53-.06,2.21-.59,3.37-2.67,5.18-2.62,6,2.4.46,2.74-.15,5.42.53,8-4.29.91-5.82,6-10.16,6.77a17.58,17.58,0,0,0-9.64,4.78,8.51,8.51,0,0,1-3.85,2c-3.22,1-6.44,1.79-9.32,4.1-8.36,6.7-18.53,9.77-28.38,13.59-8.79,3.41-17.81,4.65-27,6.3a81.22,81.22,0,0,1-39.23-2.48c-5.83-1.77-11.9-2.47-17.25-5.83-8.15-5.14-12.28-12.88-14.53-21.78-4.61-18.27-6.78-36.79-4.85-55.65,1.66-16.29,9.83-29.21,20.63-41,4.41-4.8,9.11-9.49,12-15.57,1.46-3.13,4.19-5.25,7-6.9,4.58-2.68,7.2-8.13,12.64-9.32A57.62,57.62,0,0,1,705.08,633c13.39,6.09,22.92,16.7,32.12,27.69,2.66,3.19,5.66,6.1,8.44,9.18a7.73,7.73,0,0,1,2.26,5.4c-.1,8.23,5,13.57,11,17.75,6.34,4.45,7.3,11.42,10.09,17.58.25.55-.1,1.34.07,2,.46,1.64,2.64,3.44.58,4.87s-4-.69-5.72-1.87C762.45,714.55,761.66,712.66,758.3,711.75Zm-8,11.32c-.06-23.34.17-21.84-9.34-38.89-2.73-4.88-5.57-9.72-9.89-13.66-8.69-7.95-18.14-15.27-24-25.88a6.86,6.86,0,0,0-4.24-3.32c-7.88-2.08-15.67-4.29-24-4.08-4.56.12-7.68,1.56-9.46,5.7-.67,1.56-1.19,3.45-3.18,3.35-2.89-.16-4.34,1.71-6.33,3.23-3.47,2.65-5.92,6.23-9.08,9.05a112.73,112.73,0,0,0-21.16,25c-7.46,12.22-8.58,26.28-7.82,40.42.53,10,3.76,19.54,5.77,29.29,2.15,10.35,7.29,18.67,17.51,21.58,10,2.83,20.49,4.66,31,4.11,19.8-1,38.71-5.37,54.82-18,2.72-2.13,5.37-4.72,9.09-1.13,1.17,1.12,3.3-.11,4.68-.89,4.08-2.29,6.25-6.64,9.84-9.52,1.11-.89.48-2.22-.09-3.22C749.84,738.29,749.93,729.64,750.28,723.07Z" transform="translate(-0.89 -0.9)"/><path d="M388.52,629a43.58,43.58,0,0,1,2.11,5.23c.57,2.26-.35,4.54-2.67,4.44-6.15-.24-9.14,4.67-11.6,8.26-6.1,8.87-13.34,16.94-18.52,26.47-5.84,10.76-7.65,22.26-6.81,34.2.7,9.87,2.55,19.62,3.1,29.54.31,5.71,1.77,11.47,5.74,16.18,3.42,4.05,6.48,8.42,9.93,12.45,8,9.38,19.14,13.24,30.56,15.59,20.32,4.18,40.74,8.34,61.64,8.09,8.42-.1,16.83-.64,25.32.24-2.9,2.46-5.69,4.52-9.88,3.84-2.82-.45-6-1.09-8.45,1.57-.55.6-1.83.63-2.8.72-13,1.11-25.7-.53-38.48-2.93-10.1-1.9-20.2-3.76-30.22-6.09-14.1-3.29-26.27-9.27-35.43-21.24-5.89-7.7-12.47-14.8-14.18-24.68-1.58-9.15-2.31-18.46-3.92-27.61-3.08-17.6,2.08-33.2,11.14-47.85,4.68-7.58,8.2-16,14.52-22.43,4.27-4.36,9.42-7.79,13.39-12.56,1.68-2,1.55-2.94-.35-4.32-.93-.68-3-1-1.94-2.8.78-1.36,2.38-1.71,3.93-1.83,6.2-.46,12.28.55,18.36,1.51,3.6.57,7.19,1.58,10.8,1.62,10.17.09,19.59,3.5,29.07,6.37,10,3,19.82,6.55,28.61,12.54s17.37,12,24.88,19.54c2,2,4.1,4.13,5.25,6.61,6,13.09,13,25.88,13.52,40.85.1,2.94,1.4,5.82,1.79,8.77,2.32,17.7.2,35-5.1,51.94-1.57,5-4.85,9.3-6.66,14.29-1,2.86-4.63,3-7.13,4-1.85.71-2.41-1.55-2.09-3a24.68,24.68,0,0,1,2.22-6.58c5.58-10.29,8.22-21.41,10.29-32.82,2.91-16.08.42-31.65-3-47.28-2.43-11-5.49-21.7-12.55-30.64-9.23-11.69-21.55-19.61-34.75-25.94a135,135,0,0,0-57.25-13.09c-2.07,0-3.86-1-5.83-1.08S391.07,629,388.52,629Z" transform="translate(-0.89 -0.9)"/><path d="M44.79,698.52c-1-11.44,1.9-21.06,4.51-30.65,2.21-8.16,4.65-16.27,7.05-24.37,2.2-7.44,5.26-15.42,10.33-21,4.36-4.77,11.53-7.58,18.42-9.36,11.71-3,23.08-2.49,35,.4,21.44,5.21,42.47,12.07,61.8,22.12,18.71,9.72,35.57,22.72,46.66,42.18a375.73,375.73,0,0,1,18.42,37.89,179.8,179.8,0,0,1,8.24,24.36c.29,1.09.85,2.47-.88,2.82a3.24,3.24,0,0,1-3.66-2c-2.83-5.48-4.72-11.31-6.73-17.14-8-23.23-17.42-45.89-35.43-63.37-15.41-15-34.13-24.41-54.77-30.49-9.86-2.9-19.58-6.32-29.46-9.23a62.2,62.2,0,0,0-32.41-1.06c-7.46,1.79-13,7.39-18,13.33-6.66,7.92-10.28,17.42-13.62,26.81-4.32,12.11-7.66,24.71-8.54,37.62-1,15.08,4.76,28.26,13.33,40.29,3.36,4.71,7.12,9.14,10.75,13.65,10.42,12.89,24,20.65,40,24.52,1.77.43,5.16-.28,4.47,2.35-.51,1.94-2.13,5-5.44,5.09a11.55,11.55,0,0,1-4.8-1.17,101.44,101.44,0,0,1-41-30c-7-8.51-13.55-17.13-18.33-27C46.43,716.34,43.67,707.18,44.79,698.52Z" transform="translate(-0.89 -0.9)"/><path d="M154,783.13a137.07,137.07,0,0,0,38.11-2.71c14.38-3.22,29.19-4.47,43.24-9.25,3.28-1.12,6.75-1.68,10.13-2.54,1-.26,2-.63,2.39.76,1.24,4.75,3.57,2.74,5.44.71,6.31-6.85,12.26-14,15-23.17.57-1.93,1.28-4.83,4.32-2.92,2.6,1.64,6,4.56,3.79,7.38-4.06,5.09-6.66,11.09-11.1,15.92-5.8,6.31-11.87,11-21.16,8.55-3.74-1-7.24,1.41-10.42,2.61-5.42,2-11,2.62-16.47,3.54-10.61,1.78-21,5-31.74,5.74a311.8,311.8,0,0,1-33.35.36c-5.61-.21-11.17,1.72-16.8.3-1.29-.33-2.72-.19-3.91-.69-1.62-.67-4.06-1.4-3.75-3.42.35-2.21,2.79-1.09,4.27-1.12C138.34,783.06,144.67,783.13,154,783.13Z" transform="translate(-0.89 -0.9)"/><path d="M179.47,696.2c2.15,5.08,8.48,8,7.15,14.87-.56,2.9-.25,5.79-2.09,8.52a17.44,17.44,0,0,0-2.75,7.42c-.93,7.53-5,13.58-9.56,19-3.31,3.93-5.36,8.73-10.25,11.79-12,7.52-24,6-36.14,1.52-10.23-3.75-19-10.2-27.9-16.34-5.08-3.53-7.84-9-8.64-15.15-.37-2.89,1.52-4.87,4.2-5.33s5.21,1.62,5,3.81c-1,11.86,7.77,15.9,15.74,20.7,7.15,4.3,14.49,7.88,23,9,8.76,1.17,16.49-1,22.56-6.93,9.77-9.53,17-20.79,19.69-34.53a21.7,21.7,0,0,0-.13-10.38A13.22,13.22,0,0,1,179.47,696.2Z" transform="translate(-0.89 -0.9)"/><path d="M383.39,737c-2.34-5.54-1.45-8.74,3.41-11,9.67-4.44,19.4-8.84,29.6-11.87,6.64-2,19.6,2.36,24.83,11.19,3.24,5.45,4,12.36,9.39,16.5a59.84,59.84,0,0,0,7,4.71,3.21,3.21,0,0,1,1.6,4.21c-.77,2.08-2.48.81-3.83.48a25.1,25.1,0,0,1-17.34-14.63c-7.87-17.4-16.54-19.69-33.35-11.46-5,2.47-10,5.28-15.47,6.73C386.74,732.51,385.49,734.94,383.39,737Z" transform="translate(-0.89 -0.9)"/><path d="M95.86,676.07c0,2.71-.6,4.58-4,4.12-5-.67-8.68-4.05-7.65-7.36s3.53-2.8,6.12-2C96,672.52,96,672.47,95.86,676.07Z" transform="translate(-0.89 -0.9)"/><path d="M234.45,755.85c-.12-5.77-1.15-11.53,1.22-17,.44-1,.63-2.47,2.11-2.36s2.22,1.34,2.29,2.78C240.39,745.43,239.62,751.3,234.45,755.85Z" transform="translate(-0.89 -0.9)"/><path d="M175.79,674.44c-2.63-.1-5-1.88-7.51-3.55a1.73,1.73,0,0,1-.6-2.56,5.34,5.34,0,0,1,4.35-2.89c3.12-.13,5.69,1.56,8.06,3.33,1.18.88.91,2.39.31,3.66C179.58,674.17,178.1,674.67,175.79,674.44Z" transform="translate(-0.89 -0.9)"/><path d="M451.71,682.16c-4.12.25-6.23-1.93-6.77-5.34-.39-2.42,1.57-3.45,3.83-3.54,3.29-.13,6.75,3,6.83,6S453.3,681.92,451.71,682.16Z" transform="translate(-0.89 -0.9)"/><path d="M386.6,685c-3.6-.34-6.57-1.58-7.14-5.2-.33-2.09,1.62-3.12,3.71-3,3.5.27,6,2,6.59,5.58C390.16,685,387.82,684.52,386.6,685Z" transform="translate(-0.89 -0.9)"/><path d="M246.19,42.72c-2.82-1.79-6.94-2.27-7.36-7.59C242.2,37.53,245.73,38.51,246.19,42.72Z" transform="translate(-0.89 -0.9)"/><path d="M308,134.78c-3.43-3.06-2-7-4-10.49C308,128.55,308.24,129.18,308,134.78Z" transform="translate(-0.89 -0.9)"/><path d="M440.91,10.66c-3.28,3.18-2.8,6.07-2.83,8.86,0,1.69.15,3.4-2.27,3.69s-2.55-1.53-3.16-3c-1-2.43-.57-5.22-2.22-7.56-1-1.45,0-2.85,1.66-2.4C434.52,10.88,437,10.6,440.91,10.66Z" transform="translate(-0.89 -0.9)"/><path d="M419.17,36c-.89-.22-2.5.58-2.68-1.12-.13-1.19,1.23-1.3,2.14-1.66,2.46-1,4.88-2.08,7.33-3.11.78-.34,1.67-.61,2.26.2a1.65,1.65,0,0,1-.68,2.53C424.71,33.7,422.5,36.17,419.17,36Z" transform="translate(-0.89 -0.9)"/><path d="M452.89,36.65c-2-2.21-5.6-1.8-8-3.9-.64-.56-1.27-1.3-.83-2.14a1.31,1.31,0,0,1,2.12-.31c2.26,1.86,5.25,1.82,7.74,3.07.87.44,2.19.54,1.88,1.84C455.51,36.27,454.25,36.34,452.89,36.65Z" transform="translate(-0.89 -0.9)"/><path d="M320,379.72c-.08-9.75-1.17-19.51-.09-29.26a59.55,59.55,0,0,0,.34-8.95c0-.94.44-4.17-2.56-1.87-1,.74-1.25-.39-1.14-.85,1.42-5.64-.13-11.39,1-17.08A130.37,130.37,0,0,1,320,379.72Z" transform="translate(-0.89 -0.9)"/><path d="M325.55,371.91c2,5.69,3.88,10.52.47,16-1.74,2.79-.8,6.54-.56,9.81a28.84,28.84,0,0,1-2.07,14c-.83-6.06.16-12.27-1.59-18.28-.58-2-.86-4.18-1.29-6.28-.29-1.43-2.24-4.17,2.23-2.94,2.2.6,1.43-2.46,1-3.65C322.54,377.43,323.37,374.92,325.55,371.91Z" transform="translate(-0.89 -0.9)"/><path d="M210.51,214.22c.31.1.71.12.92.32,4.67,4.62,11.24,6.84,15.36,12.15,1.22,1.58.4,2.24-1,3-2.37,1.23-4-.48-5.32-1.64-3-2.62-4-7.42-9.56-7.05-1.18.08-1.34-3.42-1.57-5.36C209.26,214.88,209.8,214.41,210.51,214.22Z" transform="translate(-0.89 -0.9)"/><path d="M321.27,315.61c-1.51-5.74-1-11.78-3.54-17.25-.53-1.13-.18-2,1.16-2.05,1.49,0,2.7,0,3.15,2.17C323.25,304.28,320.89,309.87,321.27,315.61Z" transform="translate(-0.89 -0.9)"/><path d="M341.2,370.38c2.2,7.61,1.75,15.29.33,23C338.58,385.8,341.38,378.08,341.2,370.38Z" transform="translate(-0.89 -0.9)"/><path d="M322.33,209c-.84-.11-2.13-.1-1.72-1.14.62-1.59.68-3.84,2.78-4.34,1.57-.38,1.9,1,1.88,2.21A3,3,0,0,1,322.33,209Z" transform="translate(-0.89 -0.9)"/><path d="M658.46,382.87H641.23v-1.4C646.6,382.51,652,379.81,658.46,382.87Z" transform="translate(-0.89 -0.9)"/><path d="M227.91,362.22c1.86,8.4.05,16.83.22,25.25C225.18,379.08,226.22,370.65,227.91,362.22Z" transform="translate(-0.89 -0.9)"/><path d="M215.61,378.87c2.21,4,1.66,8.45,2.76,12.52a3.07,3.07,0,0,1-3,3.8c-2.86-.31-.5-2.13-.32-3.29.39-2.55-1.71-4.63-1.22-7.24C214.18,382.73,214,380.69,215.61,378.87Z" transform="translate(-0.89 -0.9)"/><path d="M211.12,357.55c-.79,1.72,1.38,5-1.9,5.19-2.53.16-2.5-3-3-4.93s-2.16-3.69-.7-5.53c.83-1.07,2.57-.77,3.76-.34C212.06,353,210.9,355.47,211.12,357.55Z" transform="translate(-0.89 -0.9)"/><path d="M205.14,334.18a17.91,17.91,0,0,1,3.5,10.73c0,1.2.9,2.84-1.35,3-1.84.12-2.16-1.1-2.16-2.59C205.15,342,205.14,338.76,205.14,334.18Z" transform="translate(-0.89 -0.9)"/><path d="M233.63,313.57c-3.79-14.49-3.79-14.49-1.36-19C232.46,301.79,234.26,307.53,233.63,313.57Z" transform="translate(-0.89 -0.9)"/><path d="M218.57,398.18c1.22,4.06-1.85,7.25-.25,10.63.11.23-.94,1.33-1.61,1.54-1,.32-1.34-.64-1.45-1.47A12.85,12.85,0,0,1,218.57,398.18Z" transform="translate(-0.89 -0.9)"/><path d="M217.15,351.05c-3.63-4-1.22-7.78.27-11.61C218.91,343.36,216.63,347.16,217.15,351.05Z" transform="translate(-0.89 -0.9)"/><path d="M198.88,391.68V377.4C200.23,382.08,200.94,386.77,198.88,391.68Z" transform="translate(-0.89 -0.9)"/><path d="M284.34,351a17.33,17.33,0,0,0-1.95-6.53c-1.62-2.69,1.24-4.5,2.13-6.62.73-1.75,2.25.05,3.36.38a2.38,2.38,0,0,1,1.28,1.31C289.91,341.42,286.5,349.52,284.34,351Z" transform="translate(-0.89 -0.9)"/><path d="M107.21,461.38c-1.28-.1-3,.31-2.67-1.79.23-1.31.07-3.66,1.81-3.52a4.61,4.61,0,0,1,3.81,3.88C110.39,461.84,108.31,461.11,107.21,461.38Z" transform="translate(-0.89 -0.9)"/><path d="M232.18,443.74c3.3.78,3.27,2.85,2.59,5-.36,1.14-1.89,2.07-2.68,1.31C230,448,232.51,446,232.18,443.74Z" transform="translate(-0.89 -0.9)"/><path d="M290.14,472.12c0,1.63-1.13,1.89-2.36,1.92s-2.9,0-2.66-1.92a2.94,2.94,0,0,1,2.53-2.65C289,469.46,289.74,470.84,290.14,472.12Z" transform="translate(-0.89 -0.9)"/><path d="M644,734.93a33.5,33.5,0,0,1,.88-5c2.24-7.29,6.35-8.82,12.62-4.46,4.83,3.36,10,3.95,15.59,3.13,4.27-.63,8.52-1.45,12.78-2.13,3-.49,5.76-1.1,7.27-4.39a3.34,3.34,0,0,1,5.5-.91c2.8,3.16,5.69,6.68,4.52,11.53-.47,1.94-1.23,3.84-.7,5.88.91,3.51-1.16,4.22-3.45,2.81-8-4.94-16.23-4.33-24.92-2.15-3.36.84-7.32,0-10.84-.75A12.21,12.21,0,0,0,653,740.35C647.85,743.79,643.92,741.56,644,734.93Z" transform="translate(-0.89 -0.9)"/><path d="M661.6,676.81a7.19,7.19,0,0,1,7.12,6.82c.23,4.4-3.36,4.64-6.1,4.74-2.94.12-5.31-1.26-5.16-5.11C657.65,678.59,658.53,676.89,661.6,676.81Z" transform="translate(-0.89 -0.9)"/><path d="M706.27,687.6c-2.68,0-4.67-.73-4.44-3.9.16-2.27,0-5.25,3.18-5.14,2.91.1,5.52,2.66,6.59,4.76C712.27,684.63,709.33,687.62,706.27,687.6Z" transform="translate(-0.89 -0.9)"/></g></g></svg>