<svg xmlns="http://www.w3.org/2000/svg" viewBox="0 0 869 763.53"><title>ncieday</title><g id="Layer_2" data-name="Layer 2"><g id="Layer_1-2" data-name="Layer 1"><path d="M1,536v-5c2.18-.33,3.07-1.77,3.25-3.8.12-1.35.22-2.89,1.36-3.64,3.19-2.09,2.39-4.37,1.13-7.26-2.59-6-4.72-12.1-1.88-18.73,2.16-5.06,1.3-10.15.48-15.45-.8-5.14-3.42-10.24-1.94-15.54,1.73-6.2.4-12.39-.44-18.29-.73-5.11-.55-8.61,3.16-12.43,2-2,3.06-5.55,0-8.5-2.71-2.65-2.85-5.95-2.54-9.65.84-10.18,1.33-20.39,1.74-30.6.18-4.25-.69-8.57-.22-12.77.9-8.07,2.43-15.91,1.3-24.28-1.33-9.74,1.8-19.71.43-29.58s1.38-19.37,1-29.1c-.47-11.64-1.64-23.38-.63-34.92,1.19-13.44-.15-26.34-3-39.37-1.15-5.27-1-11,1.79-15.92a13.66,13.66,0,0,0,1.81-7.09c0-26.25-.05-52.49.72-78.73.42-14.32,0-28.67.13-43,.08-6.91,1.26-13.84.95-20.71-.39-8.3,1.15-10.87,9.46-11.06,12-.28,24-.16,35.94-.73,16.62-.79,33.26-.23,49.91-.7,29.08-.83,58.18-.4,87.26-2.08,14.6-.84,29.24.29,43.9-.81C251,35.14,266,35.79,281,35.47c35.77-.75,71.56-.42,107.35-1.56,31.58-1,63.19-.57,94.8-1.64,32.57-1.1,65.2-.57,97.79-2.13,17.26-.82,34.56.45,51.86-.78,14.26-1,28.62-.35,42.94-.74,30-.83,59.95-.33,89.92-1.08,11.89-.3,23.79,0,35.7-.53,17.61-.73,35.24-1.61,52.88-1a37,37,0,0,1,4.91.62c2.51.45,3.66,1.55,4,4.55,1.16,9.43-1.5,18.54-2.16,27.77-.76,10.68-2.46,21.3-2.34,32.11a141.7,141.7,0,0,1-1,16.87c-.6,5.48-.07,11-.79,16.37-1.57,11.8-2,23.71-3,35.54-1.47,16.4-1.62,33-2.29,49.51-.44,10.75-1.28,21.6-2.43,32.37-1.93,18-2.77,36.07-3.09,54.13-.28,15.79-1.2,31.53-2.28,47.24-.34,4.89.32,9.79-.61,14.65-2.37,12.29-2.17,24.72-1.8,37.15.07,2.52.8,3.59,3.45,3.56,3.35,0,6.91.24,9.77-1.47,4.82-2.89,10.18-3.65,15.43-5v6c-8.53,1.36-16.07,6-24.6,7.51-1.75.32-5.1.95-5.23,3.79q-.69,14.13-1,28.28c-.29,11.8-3.08,23.27-3.26,35.07-.22,14.07-2.29,28.18-1.62,42.18.64,13.46-.77,26.74-1.58,40-.59,9.62-.6,19.42-2.67,29.11-2.13,10-.72,20.45-1.29,30.7-.65,11.74-.18,23.55-.14,35.33,0,2.36-.05,4.64-1.39,6.73-3.21,5-2.72,10.52-1.73,15.91.71,3.85,1.31,7.89.15,11.35-2.18,6.52-1.93,13.25-2.12,19.76-.61,20.12-.83,40.25-1.62,60.38-.19,4.79-2.12,6.16-6.3,7-10.53,2.11-21.25,1.31-31.76,1.42-30.12.3-60.22,1.58-90.33,1.73-10.44,0-20.82,1.54-31.36.39-6.47-.71-13.18,1.23-19.8,1.36-25.91.51-51.81,0-77.76,1.67-25.17,1.63-50.49.29-75.77,1.77-23.05,1.34-46.22.51-69.35,1.59-24.56,1.14-49.2-.42-73.79,1.81-13.88,1.26-27.87-.17-41.85.94-15.06,1.2-30.23.39-45.37.85-23.43.73-46.89.81-70.33,1.76-17.13.69-34.28.08-51.43.69-21.6.78-43.2.46-64.82,1.66-21.44,1.19-43,.23-64.49.26-3.18,0-4.64-1-4.9-4.61-.88-12.35-.48-24.71-.59-37-.2-22.27.11-44.53.24-66.8A2.5,2.5,0,0,0,1,678V667c.27-.93.58-1.86.81-2.81,2.31-9.18-.11-18.44.47-27.73,1.2-19.12.84-38.35.81-57.53,0-2.58.35-5.76-2.09-7.93v-5c2.24-2.74,2.45-6,2.28-9.32C2.92,549.75,3.74,542.67,1,536ZM733.09,108.93A58.56,58.56,0,0,0,747,110.12c16.3,0,32.57-1.24,48.89-1,12.81.2,25.63-.45,38.44-.65,2.24,0,4.56-.66,4.52-2.91-.15-9.2,3.58-17.82,3.49-27s-.81-18.27.71-27.39a74.14,74.14,0,0,0,.94-13.4c-.1-6.13-1-6.77-7-6.75-13,.05-25.92.08-38.9.85-16.93,1-33.91-.4-50.89.87-13.92,1-27.92.11-41.91.83-17.94.92-35.94.82-53.91.8-4.54,0-6.73,2.29-6,5.81,1.37,6.58-7.06,12.55-.86,19.24.43.47-.34,2.14-.66,3.22-2.17,7.36-2.08,15-2.93,22.51a138,138,0,0,0-.28,21.61c.17,4.35,1.62,5.09,5,5.26,13.57.67,27.15-.3,40.71-.36,9.24,0,18.62.18,27.84-.78,6.36-.66,12.93.3,19.1-2.07Zm-1.92,326.45c5.09-1.24,9.63-2.1,14-3.46,16.76-5.19,33-12,50-16.5a120.43,120.43,0,0,0,19.76-6.55c4.45-2,9-3.52,5.25-9.83-.41-.68.05-2,.3-2.92,1.95-7.36,1.32-15,2.7-22.49s-.29-8.39-7.94-8.71c-8.84-.37-17.59,1-26.4.94q-20.2,0-40.44,0c.4-1.73-.74-4.67,3.47-4.5,14.3.57,28.51-1.95,42.83-1.56,7.83.22,15.67.05,23.5,0,2.76,0,5.55-.19,5.93-3.77a81,81,0,0,0,.69-10.87c-.23-7.76.5-15.49.63-23.23.17-10.89,1.24-21.8,1.6-32.72.16-4.69-2-6-6.19-6.27-6.86-.42-13.57.95-20.38,1.08-15.62.3-31.28-1.09-46.88.83-3.45.42-7,0-10.49,0-2.27,0-2.7-1.7-2.93-3.35-.32-2.27,1.56-1.67,2.71-1.72,8.13-.34,16.26-.8,24.39-.86,17-.13,34-.07,51,0a25.56,25.56,0,0,0,7.31-1.22c2.37-.67,2.8-1.93,3.13-4.21,1-7,.16-14,1.17-21,2.2-15.45.48-31.21,2.17-46.77.42-3.83-1.25-5.38-5.21-5.22-9,.35-18,.6-26.93.58-30.65-.08-61.27,1-91.91,1.12-4,0-6.5-1.12-7.84-5.29,22.91.75,45.51-1.29,68.16-.89,13.47.24,26.93-1.17,40.43-.81,5.79.16,11.59,0,17.38-.12,4.32,0,6.57-2.12,6.91-6.59.92-11.85,3.17-23.57,3.22-35.52,0-10.44.45-20.87.89-31.3.32-7.65,0-8.23-7.94-8-14.13.43-28.25,1.39-42.37,1.44-31.62.12-63.21.76-94.81,1.69-24.42.71-48.89-.16-73.31,1.14-1.21.06-2.73-.47-3.41,1.58a318.67,318.67,0,0,1,27.1,19.31c2.94,2.36,6.75,4,8.56,7.43,5.23,9.77,9.82,19.88,15.14,29.59,9.55,17.39,17.41,35.6,25.55,53.62,9.66,21.39,17.93,43.42,25.47,65.7q8,23.53,14,47.6a396.45,396.45,0,0,1,8.56,46.78c.74,6,2.3,12.21.23,18.67C737.07,417.09,734.46,426,731.17,435.38ZM205.8,333.89A300.53,300.53,0,0,0,209.05,385a216.76,216.76,0,0,0,12.27,46.83,169.61,169.61,0,0,0,19.48,35.65,153.4,153.4,0,0,0,46.15,43c21.39,13.1,45.06,21,69.08,27.13,33.82,8.62,68.25,12.7,103.4,10.65,21.79-1.26,43.25-3.62,64.19-9.68,13.85-4,27.41-9,39.5-17.1,20.2-13.62,33.09-33.27,43.83-54.43a263.46,263.46,0,0,0,20.85-56.67,324.48,324.48,0,0,0,9.7-73.22,286.31,286.31,0,0,0-6.87-68.54,216,216,0,0,0-19.57-52.89c-8.32-15.67-18-30.5-30.18-43.65a187.28,187.28,0,0,0-37.43-31.63,220,220,0,0,0-33.68-17c-18.3-7.53-37.32-11.25-56.75-13.31a203.33,203.33,0,0,0-39.78-.19c-18.4,1.66-36.35,5.07-53.73,11.42a254.7,254.7,0,0,0-65.42,35.29c-10.24,7.64-20.45,15.38-29.59,24.22-12.76,12.34-21.22,28-29.31,43.5a281.33,281.33,0,0,0-19.59,48.14c-4.14,13.59-8.28,27.13-9.5,41.42C205.52,320.65,206,327.26,205.8,333.89ZM445,694.35c18.14.12,36.24-.86,54.36-1.36,25.75-.7,51.52-.22,77.28-1.84,22.71-1.42,45.51-.74,68.28-1.49,36.22-1.19,72.53-1.4,108.8-2,9.16-.16,18.33.16,27.49-.09,6.29-.17,12.55-1,18.83-1.42,2.53-.17,3.21-1.69,3.69-3.86,2.52-11.61.73-23.73,4.2-35.22a3.42,3.42,0,0,0,0-2c-3.23-9-.12-18,.55-26.95.47-6.19-.32-8.14-6.5-8-8.62.15-17.31,1.38-25.84.63-7.33-.64-14.7-1.18-21.88-.45-10.15,1-20.26.4-30.38.77-8.3.3-16.58.14-24.9.72-19.7,1.39-39.46,1.84-59.2,2.57-12.47.46-25,.5-37.42.58-27.45.17-54.87,2.35-82.29,1.88-18.82-.32-36.94,4-55.43,5.72-15.21,1.38-30.38,2.87-45.63,2.28-4.47-.17-5.8,2.93-5.25,5.14,2.61,10.33-1.72,20.26-1.19,30.46.11,2.15.93,4.49.33,6.68-1.79,6.56-.65,13.24-.8,19.85-.12,5.68,1.83,7.43,7.42,7.46C428,694.39,436.5,694.35,445,694.35ZM288.36,703c-8.5,0-17-.07-25.49,0-10.66.11-11.77,1.17-12.59,11.28l0,.5c-.52,8.72-.36,17.56-1.81,26.12-.92,5.45,1.75,10.42.38,15.7-1.47,5.62-1.63,11.43-1.89,17.23-.18,3.93,1.38,5.13,5.3,5.1,17.93-.11,35.82-1.22,53.72-1.75,28.9-.85,57.81-.37,86.74-1.77,25.88-1.24,51.85-.82,77.79-1.45,31.41-.75,62.85-1.34,94.28-2q9.5-.19,19,0c4.49.11,6.88-1.35,6.39-6.33-.93-9.6,2.34-19,1.76-28.58-.55-9,3.6-17.83,1.1-27a6.92,6.92,0,0,1,1.24-5.6c2.93-4.54,1.12-7.62-4.18-7.48-15.61.42-31.22-.62-46.85.76-13.06,1.16-26.23-.09-39.39.87-13.91,1-27.93.43-41.91.81-22.44.6-44.9,1.39-67.33,1.46C359.15,701.05,323.76,702.17,288.36,703Zm68.51-7.24c9.16,1,17.24-.53,25.37-.58,7.95,0,7.69,0,8.55-7.69a110.42,110.42,0,0,0,.54-16.45c-.35-9.1,1.28-18.08,1.14-27.19-.07-3.91,0-8.2,1.85-12.17,1.65-3.48-.91-7.39-4.9-8.19a134.42,134.42,0,0,0-25.6-3.14c-12.81-.09-25.59,1.55-38.32,1.49-37.45-.19-74.82,3.34-112.28,2.12a29.24,29.24,0,0,0-4.49,0c-21.68,2.59-43.49,1.22-65.23,2.11-12.58.52-24.9,1.56-36.1,7.74C95.19,640.6,82,644.4,68.7,648.21c-5.51,1.58-11.47,2.71-15.89,6.74a13.69,13.69,0,0,1-8.33,4c-7.39.54-13.15,4.94-19.53,7.87a3.14,3.14,0,0,0-1.89,3.2c0,9.33,0,18.67,0,28,0,2.64,1.22,4.57,4,4.86,3.6.39,7.11,1.5,10.82,1.11,6.89-.73,13.78-1.73,20.69-1.85,23.11-.42,46.2-.48,69.32-1.46,31.57-1.34,63.22-.31,94.85-1.63,23.55-1,47.15-.84,70.73-1.88C314.93,696.24,336.43,697.49,356.87,695.76Zm-216-483.39c-7.49-.41-14.45-.08-21.42.1-22.62.59-45.26.23-67.9.74-7.75.18-15.56-1.16-23.32.19-1.54.26-3.94-1.08-4.25,2-.25,2.47.7,3.84,3,5s6.62,2.39,2,6.18c-.95.79-.8,2.11-.86,3.28-.55,10.21-.92,20.44-1.77,30.63a173,173,0,0,0-.06,26.35c.32,4.69,2.5,5.19,6.38,5.11,23.06-.49,46.18,1,69.19-1.86,2.62-.33,6.28-1.21,4.83,4.06-.8,2.92-2.87,1.83-4.38,1.79-23-.61-45.87,1.11-68.81,1.06a42.56,42.56,0,0,0-4.35.62c-3.14.3-4,2.35-4.12,4.69-.78,13.06-2.47,26.19-1.68,39.16.58,9.54.35,19,.53,28.52.15,7.92,0,7.75,8.22,7.95,22.14.52,44.24-.83,66.37-1,3.68,0,5.63.77,5.18,5.09H99.88c-22.12.07-44.26-.52-66.35,1.05-3.68.26-8.52-.54-9.27,5a35.47,35.47,0,0,0,0,10.44c1.63,10,.67,19.75-1.74,29.37-1.69,6.76-1.59,8.42,4.44,12.77,1.33,1,1.53,2.13.52,2.76-3.82,2.37-2.86,6.19-3.7,9.64-1.17,4.88.58,5.84,4.86,5.82,28.13-.13,56.27.46,84.36-1.1,5-.28,10.16-.37,15.67-1A253.79,253.79,0,0,1,108,398.8c-.37-1.56-1.25-3-.6-4.82,3.63-10.21,4.74-21,6.62-31.55,6.13-34.55,12.61-69.05,18.56-103.63,1.67-9.75,3.95-19.38,4.67-29.36C137.64,223.87,135.48,217.34,140.91,212.37Zm-83-167.45c-8.11,1.4-16.27,0-24.39,1.51-2.23.4-3.26,1.34-3.45,3.4-.35,3.94-.85,7.89-.9,11.83C29,72,29.32,82.35,29,92.68c-.26,8.71.37,17.48-1.33,26.12-.71,3.63.93,5.35,4.61,5.21,9.78-.35,19.59-.58,29.34-.71,33.25-.45,66.49-.9,99.74-1.91,21.27-.65,42.59-.16,63.86-.9,15.17-.52,19-4,18-16.46-.75-9.23,1.25-18.3.71-27.48-.36-6.07,1.51-11.9,2.06-17.87.27-3-1.72-5.74-.74-8.8,1.85-5.8.68-7.61-5.51-7.71-6.62-.11-13.24.33-19.86.66-18.25.92-36.53-.23-54.82,1s-36.87-.19-55.34.87C92.5,45.7,75.17,44.92,57.87,44.92ZM294,41.32a182.29,182.29,0,0,0-21.49.69c-4.6.42-6.5,2.54-6.61,6.92-.1,4.21-.28,8.42-.57,12.63-.8,11.42.1,22.88-1.06,34.32-.2,1.93.43,4.61-.52,6.06-3.44,5.27-2.71,11.08-2.95,16.76-.08,1.66-1,4.19,1.29,4.8,1.72.46,3.22-1.2,4.46-2.66,6.16-7.27,10.9-15.45,15.22-23.88a6,6,0,0,1,3.36-3.18,352.82,352.82,0,0,1,54.35-17.43,379.09,379.09,0,0,1,76.84-10,354.9,354.9,0,0,1,61.57,3.92,387,387,0,0,1,42.92,8.4,323.64,323.64,0,0,1,76.06,30.45c6,3.36,11.79,3.72,18.08,3.83,2.89,0,4.85-.29,4.63-3.9-.45-7.42,3-14.43,2.44-21.89a3.24,3.24,0,0,1,.19-2c4.44-6,1.51-13,2.85-19.39.63-3-3.15-5.13-2.69-6.77.61-2.21,3.81-3.68,3.66-6.79-.16-3.47-.51-6.94-.55-10.41-.07-6.46-.1-6.69-6.8-6.57-12.13.23-24.28.36-36.4.59-32.59.62-65.17.43-97.75,2-19.26,1-38.58-.58-57.88.87-11.93.89-23.94.5-35.9.69C358.14,40,325.53,40.39,294,41.32ZM65.67,708.07c-1.33,0-2.66,0-4,0-10.29.12-20.63-.66-30.84,1-8.65,1.39-7.77,1.06-7.72,8.35q.11,15.69.61,31.37c.31,9.77.47,19.61.18,29.41-.12,4,1.05,5,5,4.92,28.27-.25,56.53.13,84.79-1.75,16.09-1.07,32.26,0,48.42-.75,19.4-1,38.87-.82,58.31-.77,4.33,0,5.51-1.86,5.73-5.42a29.52,29.52,0,0,0,0-4c-1.62-20.42,2.16-40.66,2.21-61,0-4.64-1.07-4.63-4.48-4.55-19.62.44-39.25.75-58.86,1.19C131.89,706.75,98.78,707.33,65.67,708.07ZM711.26,768.5c26-.56,51.78-1.54,77.54-1.43,8.64,0,12.19-4.29,12.2-12.77,0-11-.54-22,.19-33,.58-8.71,2.41-17.19.08-26-.86-3.24-2-3.48-4.48-3.38-8.62.33-17.23-.06-25.89.71-15.9,1.42-31.9,1.08-47.87,1-12-.08-23.89.61-35.83,1.27-6.31.35-12.63,2.88-18.62,1.75a110.55,110.55,0,0,0-22.78-1.43c-8.1.15-16.26-1-24.32.71-6,1.28-7,3.28-5.71,9.56.62,3.08,1.88,6.31.31,9.5s-1.65,6.3-2,9.61c-.41,3.79,1.18,7.4.29,11.24-2.3,9.83-1.69,19.91-2.32,29.88-.23,3.81.84,4.5,4.22,4.38,16.78-.58,33.55.12,50.36-.67C681.53,768.73,696.51,767.57,711.26,768.5Zm-48.7-233c2.6-.34,4.83.56,7.11,1.39,1.23.44,2.23,1,2,2.37s-1.55,1-2.44,1c-2.49.09-5,.34-7.36-.84-2-1-3.36-.66-5.15.95a275.7,275.7,0,0,1-31.93,24.65,9.51,9.51,0,0,0-4.51,6.61c-2.11,10.87-2.31,21.88-2.48,32.89,0,2.24.92,3.12,3,3.85,3.7,1.31,7.23,0,10.83,0,25.28-.19,50.56.19,75.83-1.45,17.9-1.17,35.89.58,53.85-.87a293.61,293.61,0,0,1,40.34-.93c5.23.3,6.94-1.69,7.3-6.54,1.23-16.75,2.69-33.49,4.1-50.22.14-1.64.61-3.25.84-4.89a19.31,19.31,0,0,0-1.7-11.55c-1.28-2.37-5.57-.82-8.5-.87-33.44-.6-66.85.46-100.26,1.67-10.15.36-20.33.13-30.49,0C669.22,532.69,666,533.92,662.56,535.51ZM56.67,547.17c-1.5,0-3-.06-4.5,0-8.45.41-17-1-25.37.82-2.82.61-5.79,1.7-6.18,4.9-.45,3.63-4,8,1.91,10.74,1.76.8,1.86,2.81,1.24,4.42-.94,2.45-.68,4.93-.68,7.4q0,20.1,0,40.22c0,7,.36,7.25,7.3,7.36,27.08.42,54.13-.6,81.18-1.75a65.47,65.47,0,0,0,16.09-2.58c11.86-3.52,23.61-7.45,35.43-11.12,9.92-3.08,19.6-7,29.51-10,10.76-3.2,20.62-8.77,31.74-11,3.47-.69,8.3-2,7.65-7.37a56.67,56.67,0,0,1-.62-7.89,3.87,3.87,0,0,0-2.08-3.64c-10.55-6.68-20.25-14.53-30.08-22.19-1.06-.83-2-1.82-3.49-1.56-12.19,2.15-24.58,1.21-36.78,1.3C124.82,545.57,90.76,547,56.67,547.17Zm167-421.39a52.12,52.12,0,0,0-5.45,0c-15.4,1.69-30.88.38-46.31,1.37-16.25,1-32.57.21-48.88.77-29.25,1-58.54.8-87.82,1.09-.5,0-1,0-1.5,0-3.56.27-6.65.79-4,5.62a4.73,4.73,0,0,1,.1,3.4c-2.74,8.14-.6,16.49-1.28,24.64-.52,6.19,3,13.82-4.4,18.53a2.71,2.71,0,0,0-1,2.7c.55,5.84-1,11.57-.92,17.38.06,7.49.22,7.65,8,7.78,11.3.2,22.54-1,33.8-1.45,25.42-1,50.9.24,76.35-1,2.72-.13,4.61-.47,6.51-3.21a301.39,301.39,0,0,1,31.18-38C192,151,207.48,138.32,223.62,125.78Zm-32.8,413c-.18-1.7-1.69-2.32-2.74-3.29-7.23-6.62-13.85-13.83-20.42-21.1-13.28-14.71-24.28-31-34-48.24-1.34-2.38-2.71-3.27-5.4-3.19-19.45.62-38.9-.66-58.36.84a356.74,356.74,0,0,1-38.84,1.05c-6.29-.2-6.86.45-7.06,6.64-.05,1.66.25,3.42-1.56,4.4-2.47,1.33-2.56,3.62-2.64,6-.38,11.2,5.08,22,2.5,33.33-.06.27.25.6.33.92a51,51,0,0,1,.61,19.92c-.74,4.85,1,6.91,5.75,7,14.27.16,28.49-1.37,42.72-1.64,21.94-.42,43.87-1,65.81-1.65,16.15-.48,32.31-.08,48.47-.14C187.58,539.57,189.34,540.23,190.82,538.76Zm478.67-10.49c3.12,0,4.91,0,6.7,0,18.45-.46,36.87-1.6,55.34-1.57,16.3,0,32.62,0,48.88-1,9.15-.54,18.26-.45,27.39-.7,2.16-.06,4.94.14,5.21-2.54.53-5.35,3-10.55,1.5-16a12.72,12.72,0,0,1-.3-5.9c2.76-14.49,2.27-29.31,4.66-43.86,1-5.86-1.22-7.65-7.37-7.56-14.13.21-28.25.68-42.37.84-13,.15-26,.17-39,0-3.72-.06-5.88.82-7.64,4.42C709.25,481.51,691.8,505.76,669.49,528.27ZM344,616l.26-.68A88.7,88.7,0,0,1,335,614a350.86,350.86,0,0,1-75.05-28.38c-3.29-1.72-7.62-.28-7.65,3.22-.08,8.12-1.95,16.15-.91,24.31.47,3.71,1.89,4.87,5.94,5,24.12.8,48.1-2.37,72.18-2.08C334.31,616.08,339.14,616,344,616Zm447.4-172c7.33-.65,15.8.82,24.23-.73,2.78-.5,3.42-1.69,3.49-4.27.16-6.12-.62-12.25.6-18.38.44-2.24-.45-4-4.06-3.69-7.83.73-14.82,4.73-22.64,5.22-.61,0-1.58.41-1.71.83-1.31,4.12-5.1,3.7-8.15,4.52-2.88.78-5.8,1.39-8.74,1.91-10.63,1.87-20.12,7.54-30.81,9.2-3.59.55-7.17,1.25-10.69,2.13-1.55.39-3.77,1.25-3.55,3,.3,2.34,2.7,1.1,4.14,1.16C752.41,445.77,771.32,443.55,791.36,444ZM98,627.34c-.88,0-1.67-.09-2.47-.1-19.79-.33-39.56,1.57-59.35.76-3.55-.14-6.86,1-10.34,1.06a2.45,2.45,0,0,0-2.72,2.82c.27,6-.09,11.93.37,17.93.43,5.76,3.53,5.58,7.6,5,10.56-1.47,20.4-5.23,30.23-9.12,5.24-2.07,11.9-2.41,15.63-6,5.32-5,11.36-6.76,17.78-8.5C96.66,630.72,97.92,629.73,98,627.34ZM188,619.69c11.78-.71,23.62,1.06,35.37-.94,2.84-.48,5.33-1.48,5.64-4.65.43-4.32,2-8.42,1.67-12.91-.44-5.54-2.28-7.07-7.6-5.08-4,1.51-7.85,3.28-12.23,3.86-14.08,1.87-26.94,8.09-40.5,11.89-5,1.41-9.55,4.56-14.94,5.14-1.27.13-2.45.61-2.26,2,.15,1.09,1.29,1.2,2.4,1.1C166.37,619.06,177.2,620,188,619.69ZM315,552.43c2.71.14,5.5-.26,5.86-3.69.33-3.09-1.09-5-4.54-6a57,57,0,0,1-13.47-5.1c-5.11-2.88-8.66-.4-11.07,3a185.43,185.43,0,0,0-13.86,23.55c-1.49,3-.82,5,2.14,6.5a102.67,102.67,0,0,0,20.87,7.8,4.65,4.65,0,0,0,5.82-3.24,4.86,4.86,0,0,0-3-6.44c-3.68-1.49-7.43-2.83-11.09-4.36-1.26-.53-3.25-.94-2.33-3s2.55-2.36,4.56-1.4c2.67,1.28,5.34,2.6,8.11,3.66a5.16,5.16,0,0,0,7.06-2.92c1.2-3-.68-5.45-3.36-6.84a38.23,38.23,0,0,0-6.1-2.12c-1.37-.43-2.68-1.16-2.22-2.7s2.13-1.13,3.44-1c1.05.07,1.78.81,2.65,1.15C307.8,550.59,311,552.61,315,552.43ZM191,510.57c-.13,4.64,1.12,5.62,5.29,4.1a10.16,10.16,0,0,0,3.89-2.13q9.72-10.27,19.18-20.79c1.55-1.74,1.28-4.35.46-6.18-1-2.19-3.57-1.19-5.38-1-3,.35-4.54,3.16-6.65,5-1.1.94-2.2,3.06-3.52,2.26-2.9-1.75-6.07-3.74-7.84-6.47s2-4.08,3.51-5.78c2.5-2.8,5-6.32,2.07-9.05-2.46-2.31-6.4-.57-9.11,2.06-3.57,3.45-6.91,7.13-10.77,10.32a110.78,110.78,0,0,0-10.28,10c-1.84,2-2.44,4.52-.76,6.87s4.25,1.29,6.35.48a16.23,16.23,0,0,0,4.2-2.67c5.91-4.78,5.67-4.49,11.77-.24,3.57,2.48,2.69,4.41.59,6.75C192.26,506.07,190.72,508,191,510.57ZM511.75,597.1c3.53,0,19.15-4,21.85-5.63,2.24-1.36,4.32-3.74,3.87-6-.51-2.52-3.75-3.19-6.24-2.81a87.65,87.65,0,0,0-12.06,2.74c-2.27.68-3.95.77-4.85-1.68-1.13-3,1.18-3.92,3.3-4.31a17.43,17.43,0,0,0,7.38-2.72c1.67-1.24,2.93-3.24,2.47-5.15-.5-2.08-2.71-2.54-4.86-2.73-3.15-.3-5.9.86-8.68,1.92-2.37.91-3.84.29-4.6-2.11s1.38-2.74,2.78-3.2c2.51-.82,5.23-1.06,7.69-2,3.25-1.22,6.75-3.71,5.56-7.13-1-2.74-4.74-3.82-8.41-2.44-4.33,1.63-8.88,2.65-13.3,4.05-4.1,1.3-7,5.7-5.76,9.56,2.7,8.67,5.68,17.25,8.64,25.84C507.4,595.89,508.84,597.88,511.75,597.1Zm89.59-44A18.21,18.21,0,0,0,587.87,536c-9.87-2.81-18,1.94-26.25,6.05-2.48,1.24-1.67,3.5-.85,5.66,3.07,8,8.83,14.29,13.64,21.17,3,4.29,6.86,5.37,11.52,2.09a59.61,59.61,0,0,1,7.35-4.16C598.91,563.93,601.22,559.16,601.34,553.09ZM389.75,591.82c-.24,3,.22,6,3.46,7,3.42,1,4.19-2.44,5.87-4.31,1.13-1.27.93-2.76.93-4.25,0-2.13-.38-4.92,1.86-5.68,2.09-.71,3.14,1.86,4.33,3.42,2.81,3.68,5.52,7.45,8.57,10.92,1.53,1.74,3.31,4.42,6.12,3.14a7.93,7.93,0,0,0,5-6.38c.68-7.4,1.25-14.81,1.8-22.22.23-3.15-.87-6-4.19-6.27-3.1-.28-5.17,2-5.85,5.06-.53,2.42-.9,4.87-1.34,7.3-.14.78,0,1.81-.92,2.1-1.2.36-1.69-.7-2.28-1.48q-4.65-6.14-9.31-12.23a6.22,6.22,0,0,0-6.59-2.53c-2.48.54-3.54,2.39-4.25,4.88C390.91,577.32,391.26,584.71,389.75,591.82Zm136.87,18.85c21.36,1.34,41.76-.8,62.19-.7,1,0,2-.53,2.93-.56,3.85-.09,5.13-2.49,5.25-5.81a137.65,137.65,0,0,1,.83-13.89c.35-2.61,2.29-5.29.63-8.31C575.75,593.46,552.32,603.59,526.62,610.67ZM455,583.55c-1.29,8.61,6.69,17.75,18.05,18.64,8.21.64,15.45-1.68,20.28-9,1.57-2.39,1.3-4.67-.46-6.86s-3.62-.64-5.3.16a13.12,13.12,0,0,0-4.14,2.7c-3,3.34-6.87,3.22-10.63,2.68-6-.87-8.57-5.46-7.19-11.91,1.14-5.32,5.29-7.79,10.89-6.57,2.32.5,4.16,2.07,6.31,2.75s4.54,1.92,6.57,0c1.63-1.53.93-3.78.78-5.71s-2.09-3.13-3.55-3.87c-7.22-3.7-15-4.38-22-.28C458.46,569.91,454.37,575.64,455,583.55ZM227,536.39c0,2.43.5,5.77,3.64,6.31,2.89.5,5.16-1.82,6.07-4.85,2.79-9.32,5.81-18.58,8.28-28,1.3-5-1.91-7.91-6.93-6.1a261.9,261.9,0,0,0-29.31,12.17c-2.7,1.37-5.19,3.52-3.54,6.61,1.37,2.58,4.37,2.89,7.41,1.91C219.18,522.35,227.23,528.8,227,536.39Zm375-11.88c2.29,9.07,4.23,17.61,6.73,26a5.33,5.33,0,0,0,5.63,3.43c2.45-.32,3.38-2.46,4.06-4.57,2.53-7.85,8.94-11.56,17.06-10.18,2.43.42,5.3-.07,6.36-2.57s.15-5.59-2.39-6.33c-10-2.95-19.35-7.83-29.26-11C605.66,517.77,601.89,520.76,601.94,524.51ZM365.77,586.44c-1.33-8-2.48-16.38-4.16-24.63-1.37-6.81-5.59-7.89-10.59-2.87-5.25,5.27-10.31,10.74-15.4,16.16-1.69,1.81-3.91,3.19-4.81,5.65-.7,1.94-1.24,4.12.47,5.6,1.45,1.24,3.5.87,5.2,0a28.65,28.65,0,0,0,2.83-2c4.05-2.69,15.21.2,16.58,4.64,1,3.31,3.62,5.22,6,4.59S365.72,589.81,365.77,586.44ZM263.06,520.5a5.55,5.55,0,0,0-2.93-5.44c-1.65-1-3.2,0-4.64.9-2.17,1.35-3,3.57-3.42,5.86-1.68,8.59-3.27,17.21-4.83,25.82-.79,4.38,2.29,7.62,6.34,6.08a144.46,144.46,0,0,0,30.5-16.53c1.86-1.28,3.1-3.51,2-5.66s-3.85-2.21-6-2a8.78,8.78,0,0,0-4,1.72c-3.67,2.55-8.12,3.75-11.74,6.5a4.18,4.18,0,0,1-3.71.56c-1.17-.65-.63-2.38-.36-3.69C261.22,529.71,262.19,524.83,263.06,520.5Zm375.41-17.61c.64,4.19-1.44,5.37-5.19,5-2-.22-3.92.11-5.91-.47-3.83-1.12-6.51,1.52-7.32,4.33-.68,2.4,2.45,3.79,4.8,4.79,2.11.89,4.26.61,6.39.57,6.77-.14,13.24.29,18,6.12,1.32,1.61,3.36,2.63,4.94,4a4,4,0,0,0,4.6.63c1.5-.66,2-2,2-3.67.22-4.65-3-7.4-6-9.68a12.74,12.74,0,0,1-5.15-8.63c-.53-3.09-1-6.2-1.58-9.26-.69-3.44-3-6.38-6.29-5.7-3.48.73-4.64,4.34-3.94,8.05C638.11,500.28,638.27,501.59,638.47,502.89ZM447.33,584.63h-.05v-7.48a23.14,23.14,0,0,1,0-2.5c.39-3.57-1.51-6.51-4.62-6.32a6.18,6.18,0,0,0-5.67,6.48c0,6.81.12,13.63,0,20.44-.09,3.81,1.34,7.36,4.93,7.41,3.94.06,5.33-3.81,5.42-7.56C447.4,591.61,447.33,588.12,447.33,584.63Z" transform="translate(-1 -25.8)"/><path d="M434.34,135.82c11-.56,26.75,1.54,42.3,5.28a175,175,0,0,1,72.54,37.3,165.07,165.07,0,0,1,21.59,22.78C584.25,218.06,594,237,601.09,257.3A217.43,217.43,0,0,1,612.64,311a281.7,281.7,0,0,1-1,56.23,267.08,267.08,0,0,1-6.19,35.14c-6.24,24.64-15,48.18-29.18,69.51-12.14,18.23-28,31.62-48.72,39.05-16.28,5.82-33,9.24-50.15,11.48-18.74,2.46-37.46,1.88-56.13,1.32-13.18-.4-26.37-2.74-39.41-5a263.24,263.24,0,0,1-40.26-10.66c-21.57-7.44-41.86-17.16-59.34-32.4a138.14,138.14,0,0,1-32.07-40.8c-7.95-15.3-12.89-31.72-16.23-48.72-4.45-22.7-4.67-45.61-3.92-68.5.48-14.73,4.6-29,9.52-42.95a318.13,318.13,0,0,1,19.2-44.19,139.16,139.16,0,0,1,39.08-46.2c22.1-16.74,45.36-31,71.9-39.42C389.08,138.75,409,135.57,434.34,135.82ZM428,466.6c19.07.29,36.92-5,53.94-12.56s30-20.55,40.68-35.73c4.85-6.92,9.2-14.23,9.21-23.17,0-1.12.65-2.55-.7-3.13s-2.64.46-3.42,1.46a72.33,72.33,0,0,0-4.78,7c-7.3,12.24-16,23.46-27.41,31.95-15.38,11.39-33.46,16.11-52.18,17.42-19.12,1.34-38-1-56.73-5.78-23.29-6-43.16-17.84-61.86-32.51-10.12-7.94-18.57-17.44-27.78-26.23-1.14-1.09-2.21-3-4.12-1.91-1.69,1-2.14,2.92-2,4.83a14.92,14.92,0,0,0,1.86,5.11c6.89,14.14,18,25,29.21,35.37a110.59,110.59,0,0,0,30,20.24C376.26,459.73,401.66,465.15,428,466.6Zm-63.15-205c0-2.67.15-5.34,0-8-.39-5.87-4.71-10.34-9.49-8.92-8,2.38-15.75,5.88-20.27,13.49-7.33,12.35-6.76,25.76-3.52,39a11.47,11.47,0,0,0,9.11,8.94c10.22,1.78,17.09-2.16,20.56-12.1C364.93,283.54,363.94,272.47,364.89,261.63ZM504,261.37c.64-3.18-.23-6.49-1-9.63-1-4-2.61-7.85-8.24-7.47-5.41.37-8.46,2.42-10.42,9.47-3,10.81-5.95,21.68-8.16,32.68-2.67,13.36,6.73,24.17,19.84,23.47a11.48,11.48,0,0,0,9.59-5.14c3.37-4.87,3.2-10.05,2.5-15.3C506.88,280.14,504.23,271,504,261.37Z" transform="translate(-1 -25.8)"/><path d="M697.58,640.06c-5.48,0-9.3,0-13.11,0-1.32,0-3-.09-3.19-1.65s1.31-2,2.64-2.42a56.89,56.89,0,0,1,19-2.77c6.47.09,12.94,0,19.41.07,1.16,0,3.08-.82,3.34,1,.24,1.55-1.6,2-2.83,2.28C714,638.88,705.2,641.28,697.58,640.06Z" transform="translate(-1 -25.8)"/><path d="M733.24,108.79c-4.54.64-8.81-.45-13.27-1.92,5.71-2.25,10.78-1.39,13.12,2.06Z" transform="translate(-1 -25.8)"/><path d="M682.52,555.07c3,0,5.9,0,8.85,0,1,0,2.15,0,2.34,1.29s-.94,1.76-1.88,1.86C688.44,558.6,685,558.86,682.52,555.07Z" transform="translate(-1 -25.8)"/><path d="M581.42,544.86c3.83,0,9,3.46,9.51,6.62a7.83,7.83,0,0,1-4.28,8.7c-1.85,1-4,1.51-5.41-.35a83.27,83.27,0,0,1-6.65-9.81C573.19,547.55,576.78,544.89,581.42,544.86Z" transform="translate(-1 -25.8)"/></g></g></svg>