<svg xmlns="http://www.w3.org/2000/svg" viewBox="0 0 881.21 855.19"><title>nekstlife</title><g id="Layer_2" data-name="Layer 2"><g id="Layer_1-2" data-name="Layer 1"><path d="M882,714q0,69.24.08,138.47c0,2.91-.5,3.62-3.55,3.62q-436.92-.15-873.84,0c-3.27,0-3.76-.92-3.76-3.9Q1,428.52.89,4.85C.89,1.11,2.05.93,5.15.93Q413.57,1.05,822,1c-.4,1.18-2.09,3.6.36,3.09C825.9,3.34,830,3.62,833,1c15,0,30,.14,45-.1,3.43-.06,4.1.68,4.1,4.1q-.18,178.25-.1,356.5V629l-9.36,1.25c-3,.41-4.87,1.71-4.56,5.21.37,4.14.53,8.3.54,12.46a5.57,5.57,0,0,1-6.77,5.79c-11.24-1.74-22.19-4.88-33.51-6.4-12.62-1.7-25-4.93-37.67-6.52A295.19,295.19,0,0,1,746,631.43c-7.89-2.27-9.26-5.61-5.67-12.91a21.63,21.63,0,0,0,2.43-9.09c.07-2.87-.93-5.37-4.45-3-2.24,1.53-4.24,1.22-6.57.47a31,31,0,0,0-7.77-1.74c-14.11-.74-27.8-4.45-41.87-5.85-9.57-1-19.49-1.8-28.93-4.34-7.19-1.94-14.53-.09-21.79-1.85-9.32-2.25-18.94-3.24-28.41-4.88-11.42-2-23.18-2.23-34.08-6.85-2.66-1.13-4.16-2.86-4-5.63.31-5.75-1.78-12.08,4.39-16.46a3.35,3.35,0,0,0-.08-5.58c-1.49-1-3.91-.76-4.5,2.09-.41,2-2.11,2.42-3.87,2.39a3.34,3.34,0,0,1-3.53-2.91c-.37-2.12-1.69-4.35-3.12-4.82-4.38-1.42-9-2-13.58-2.86a2,2,0,0,0-1.56.89c-.39.7.39,1,.89,1.45,2.22,2,5,2.36,7.73,3,1.17.28,3,.29,3,2.08a3,3,0,0,1-2.68,2.61c-6.63.21-13.07,3.24-19.7,2-11.11-2-22.41-1.72-33.6-3.21-10-1.34-19.86-3.74-29.89-4.85-5.43-.61-6.79-3.09-5-8,.76-2.08.68-4.36-2.06-4.61-7-.64-13.67-3.54-21.09-2.15-4.77.9-9.8,2.05-14.84,1A72.72,72.72,0,0,0,405.41,536c-3.67.05-8.08-.09-10.43-2.62-3.58-3.86-7.47-2.58-11.42-2.56-1.29,0-2.87,0-2.64,2s1.69,1.67,3,1.65c2,0,4.49-.41,5.38,1.71,2.14,5.14,7,6.89,11.06,9.63,2.79,1.87,6.39,3.22,5.65,7.94a12.42,12.42,0,0,1,4.86-1.73c7.5-.58,14.22-4.15,21.59-5.57,9.1-1.75,17.74.5,20.84,9.06,3.94,10.86,9.77,19,21.78,21.54,2.25.47,4,2.54.3,4.2-1.13.52-1.77,1.66-.54,2.08,2.75.93,4.21,3.63,7.14,4.36,6.06,1.49,12.31,2.59,16.9,7.63,1.33,1.45,3.76,1,5.68.14A30.11,30.11,0,0,1,507.7,594c1.29-.41,2.78-.53,3.63.78s-.19,2.07-1.1,2.9c-2.49,2.29-1.73,4.25,1.09,5.23,5.12,1.77,9.16,5.46,14.49,7.18,4.15,1.34,7.42,5.64,12.41,6.28,2.34.3,4.64,1.24,5.32-2.3.37-1.94,1.89-2.5,3.77-2.5a35.86,35.86,0,0,1,11.77,1.66c5.89,2,9.53,7.09,14.85,9.76.88.44,2.17.8,1.79,2-.54,1.66-1.84.67-2.91.42-3.66-.85-7.33-1.72-11-2.45-.91-.18-2.19-.12-2.32,1.23-.09.93.82,1.36,1.6,1.66.62.23,1.28.38,1.91.58,1,.34,2.72.08,2.68,1.62,0,1.7-2,2-3,1.91-4.1-.46-7,2.76-10.85,3.06-1.07.09-2.13.55-2,1.76.23,1.89,1.69,1.19,2.71.87,7.75-2.42,15.76-3.82,23.52-6.31,10.29-3.31,21-6.17,31.86-3.85,14.91,3.18,27.59,11.34,39.58,20.32,8.8,6.59,16.86,13.86,28.62,15.07a30.41,30.41,0,0,1,15.13,5.58c7.9,5.76,16.87,10.57,26.28,12.69,10.4,2.35,20.44,5.61,30.61,8.62,1.14.34,2.42.52,3,1.55,4.29,7.27,12.69,8,19.2,11.3,12.36,6.19,26.33,8.28,39.82,11.22,4.7,1,9.8,1.08,14.66,1.94,4,.71,7.57,2.57,12.06,2.08,10.28-1.14,20.66-1.4,31-1.84a7.23,7.23,0,0,0,5.71-2.47c1.79-2.12,3.62-2.19,5.34.1A5.31,5.31,0,0,0,882,714ZM121.26,287.94c10.78.53,19.85-1,28.28-4.51a49.2,49.2,0,0,0,20.86-15.68c1-1.27,2-2.82,1.25-4-1.23-1.9-2.57.09-3.76.68a28.74,28.74,0,0,0-2.94,1.89c-21.87,14.24-49.41,10-68-5.84-6.8-5.79-11-14-10.5-22.38.6-11.22,5.09-21.68,16-27.71a59.75,59.75,0,0,0,4.92-3.39c.8-.56,1.92-1,1.47-2.26s-1.61-.89-2.54-.59c-12.09,4-23.34,9-31.25,20C63,241,66.46,259.9,81.53,273.5,93.25,284.08,107.38,287.88,121.26,287.94Zm43.47,103A113,113,0,0,1,149,369.19c-1.92-3.37-4.15-6.54-7.29-8.72s-6.6-3.49-10.2-1.12-2,5.37-1.05,8.45a41.4,41.4,0,0,1,2,12.72c-.23,11.46.51,22.93-1.28,34.35-.52,3.3.63,6.32,4,7.9,2.46,1.17,5.3,2.3,7.51.22,2.47-2.32,2.7-5.65,1.61-8.83-2-5.78-2.06-11.72-1.88-17.72,0-1.79.62-3.42,2.36-4.05,2-.71,3.06,1,4,2.33,2.41,3.57,4.58,7.29,7,10.87,3.5,5.21,6,11.11,10.89,15.35a6.5,6.5,0,0,0,7,1.21c2.53-1,2.4-3.63,2.53-6,.38-7-.58-13.95-1-20.91-.62-9.53,1.26-18.88,1.63-28.34.12-2.94-.61-6.14-3.46-7.21s-6.56-1.64-9.09.48-1.48,5.47-.73,8.41A58.63,58.63,0,0,1,164.73,390.93Zm73.47,36.81c3,0,5-.08,7,0,2.23.12,4.25-.71,6.34-1.22,1.58-.38,3.06-1.21,3.06-2.85,0-3.7,1.86-8.05-1.46-10.88-3.1-2.65-6.49-.83-9.64,1.11-2.54,1.56-5.73,1.78-7.94-.26-3.08-2.84-4.53-6.94-3.13-10.94,1-2.92,4.42-.92,6.7-1.41a7.35,7.35,0,0,1,2,0c3.4.22,4.7-1.33,4.73-4.75a52,52,0,0,0-1.58-11.31c-.69-3.23-.63-5.14,3.15-6.18,3-.81,6.12-2.43,5.53-6.51-.87-6-4.83-10.7-8.87-11.14-7.72-.82-15.51.28-23.26-1.19-2.9-.55-5,1.42-5.17,5.15-.26,5.41,1.82,10.52,1.59,15.84-.54,12.25,1.25,24.54-1.29,36.78-1.17,5.6.74,8.48,4.92,8.38C227.06,426.2,233,428.78,238.2,427.74Zm55.56-64.46c-2.32.23-6-1.49-7.59,2s-1.17,7.2,1.63,10.63c2.49,3.05,4.11,6.81,6.14,10.23,5.3,8.92,4.67,16.25-2.11,24.19l-6.49,7.58a7.25,7.25,0,0,0-.84,8.42c1.48,2.82,4.51,2.64,7.51,2.5,5.57-.25,9.48-1.58,8.8-8.39-.18-1.69.84-3.52,1.36-5.26a3.18,3.18,0,0,1,2.8-2.5c1.84-.2,2.77,1,3.29,2.48A16.74,16.74,0,0,1,309,419c.81,8.29,9.92,14.31,17.92,11.79a4.72,4.72,0,0,0,3.45-3.89,10.12,10.12,0,0,0-1.85-8.49c-3.32-4.16-5.55-9-8.37-13.47-6.17-9.78-4.49-17.86,5.35-26.76,3.53-3.2,3.49-6.61,2-10.33-1.59-4.05-5.58-4-8.94-3.9-3.74.09-4.92,3.41-5.91,6.47-.45,1.41-.7,2.9-1.26,4.26-.71,1.72-.77,4.44-3.55,4-2.36-.4-2.43-2.58-2.74-4.69C304,366.48,300.87,363.54,293.76,363.28ZM117,588.29c-9.34-1.82-16.92,4.59-25.73,5.08-.67,0-1.73.45-1.76,1.46,0,1.36,1.2,1.32,2.09,1.67,2,.78,3.61,2,3.1,4.44-.55,2.57-2.57,3.32-5,3.17-1.32-.08-2.62-.46-3.93-.48-2.09,0-2.84,1.7-3.28,3.24s1,2.07,2.15,2c8.93-.29,17.2,3.75,26.05,4,1.58,0,3.62-.55,4.44,1.37s-1,2.56-2.08,3.54a2.41,2.41,0,0,0-.63,2.74,1.25,1.25,0,0,0,1.63.73c7-1.73,14.39-1.68,21.25-4.75A21.79,21.79,0,0,1,148.44,615c.54.11.83,1.72,1.74.54a1.56,1.56,0,0,0-.48-2.51c-4.7-2.75-3.16-5.7-.12-8.48,1.39-1.27,2.71-3.15,1-4-4.6-2.33-2.17-3.78-.11-6.13,1.6-1.83,1.75-3.9-1.83-4.37C138.07,588.65,127.57,587,117,588.29ZM387.32,400.8c0-5.32-.53-10.7.14-15.93.7-5.55,2.4-6.08,7.39-3.58,2.23,1.12,4.32,2.54,6.94,2.61,1.75.05,3.56-.16,4-2.17,1.12-5.33-.75-13.35-7.65-14.63-12.75-2.38-25.54-.79-38.31-1.07-2.92-.07-4.79,2.4-5.41,5.14-.79,3.5-.53,6.83,2.49,9.6,2.3,2.1,4.13,1.07,6.32.09,5.84-2.61,9.14-1.24,9.6,4.89.88,11.56.74,23.2-1.76,34.6a11,11,0,0,0,3.08,10.91c2.93,2.82,6.94,3.07,10.76,1.41,4.11-1.79,4-5.66,3.42-9A92,92,0,0,1,387.32,400.8ZM696,406.33c0-8.37,0-8.43-8.31-8.78-2.11-.09-3.45-.71-4-2.86-.72-2.78-.35-5.66,1.38-7.56s4.67-1,7-.22a18.2,18.2,0,0,1,3.88,2.23c3.28,2.12,5.54.33,7-2.28,2.87-5.17-.53-10.68-6.42-10.82-5.46-.12-10.89.39-16.31-1.28-7-2.15-12,2.5-11.26,9.82.29,2.8.49,5.62.53,8.44.13,12.63.3,25.25-1.66,37.82-1,6.66,1.47,9.1,8.17,9.33s13.14-2,19.75-.11a3.61,3.61,0,0,0,3.66-1.08,4.31,4.31,0,0,0,1.41-4.49A2.12,2.12,0,0,0,698,433c-4.81,1.85-7.78.18-11-3.74-3.1-3.76-5.12-8.75-3.16-13.08a3.09,3.09,0,0,1,3.55-2C695.6,415,696,414.67,696,406.33Zm-66.19-3.75c0-6.85-1.66-8.38-7.81-6.55-4,1.21-5.26-.76-5.44-4.12-.36-6.93,3.47-9.46,9.59-6.32a14.92,14.92,0,0,1,3.94,3c1.86,2,3.25,1.56,5-.21,3.06-3.14,2.63-7,1.3-10.24a7.23,7.23,0,0,0-8-4.66c-4.44.59-9,1.38-13.31-.42a10.19,10.19,0,0,0-10.78,1.51c-2.88,2.65-3.63,7.05-2.16,11.2a22.47,22.47,0,0,1,1.52,6.27c.71,12.36-1.45,24.52-2.66,36.73-.34,3.42-.76,6.63,2.1,8.46a10.86,10.86,0,0,0,11,.39c3.3-1.75,2.92-5.23,2.78-8.42-.19-4.15-.26-8.31-.42-12.47-.11-2.81.94-4.19,4-4.38C628.89,411.82,629.75,410.78,629.79,402.58ZM498.06,436.11V436c4.49,0,9,.25,13.47-.07,5-.36,7.57-4.58,7.43-11.13-.07-3.56-2.85-3.68-5.17-4.26-1.88-.47-3.47.8-5.14,1.51-7.32,3.14-14.14.8-14.26-5.51-.21-11.22-1.64-22.56,1.27-33.69a16.9,16.9,0,0,0-.15-9.81c-1.81-5.38-6.45-4.26-10.45-4.33s-5.14,2.44-5.05,5.88c.12,4.49.39,9,.49,13.45A296.37,296.37,0,0,1,479,429.35c-.53,4.48,2,6.52,6.07,6.71C489.42,436.26,493.74,436.11,498.06,436.11ZM112.89,573.86c-6.43,3.32-13.74,1.44-18.58,6.53,2.07,2.17,4.31,1.63,6.44,1.66a170.61,170.61,0,0,1,23.77,1.59c6.65,1,14.08,4,18.53-4.64-1.94-.43-3.14-2.58-6-2.52-2.51.06-4.44-1.76-2.09-4.7,2.1-2.64,1.61-4.17-1.89-4.57a20.24,20.24,0,0,1-3.31-1c-1.85-.55-4.39-.3-4.9-2.72-.55-2.61,1.36-4.18,3.33-5.63,3-2.23,3.5-4.82.37-7.35-1.37-1.11-2-1.93-1.81-4,.32-3-2.66-3.37-4.87-3.77-2.47-.45-5.17.43-6.05,2.55-1.18,2.86,2.91,1.09,3.44,2.88a4.09,4.09,0,0,1,0,.93c-11.47,3.77-11.47,3.77-6.92,8.84-5.73.34-11.17,1.05-15.78,5.56,1.18.27,1.66.36,2.13.49,1.23.33,2.79-2.13,3.75.36a3.54,3.54,0,0,1-2,4.93,10.21,10.21,0,0,0-2.06,1.39c-.77.65-1.62,1.5-1.16,2.54.58,1.31,1.69.18,2.54.27C103.85,573.86,107.87,571.33,112.89,573.86ZM554.67,371.11c-5.5-.3-7.16,1.43-7.69,7.2-.47,5.26,1.78,10.16,1.61,15.32-.38,10.93-.25,21.9-2.61,32.67a13.7,13.7,0,0,0,0,6.43c1.16,4.57,4,5.91,10.81,5,3.93-.54,5.63-2.79,5.71-6.81.1-5-1.51-9.86-1.4-14.81.23-10.27.82-20.54,1.3-30.8a17.32,17.32,0,0,1,.57-2.92C564.7,374.54,562.51,371.55,554.67,371.11ZM385.78,48.32c4.73-1.36,6.31-4.21,5.23-8.13a5.17,5.17,0,0,0-4.6-4A7.89,7.89,0,0,0,379.25,40c-1.6,2.33.45,4.34,1.78,6.23,1,1.48,4.52,1.82,2.06,4.91-1.91,2.39-1.67,4.95,1.26,6.13,3.2,1.28,5.74-1.5,7-3.43,1.84-2.75-1.7-3.1-3.42-4.07C387.55,49.48,387.15,49.2,385.78,48.32ZM742.39,591.45c0,2-.08,4.12,2.3,4.42s1.45-2.14,2.18-3.25c1.24-1.88-.29-4.73,2.34-6.21,3-1.68,1.3-2.84-.71-3.46-7.28-2.25-15.09-1.6-22.36-4-.82-.27-2.12-.36-2.38,1a1.83,1.83,0,0,0,1.55,2.2c4.07.1,7.49,2.86,11.41,2.9C741.45,585.11,744.49,585.91,742.39,591.45ZM153.67,175.87c-3.54,0-10.4,3.85-10.25,5.5.21,2.36,5.9,5.7,9.82,5.82,4.18.13,5.64-2.48,5.57-6C158.75,177.85,157.32,175.33,153.67,175.87Zm-22,137.72c-5.1-.3-8.1,1.49-9.51,4.58-1.25,2.74,1.27,4.73,3.29,6.49a7.94,7.94,0,0,1,1.66,2.39c.37.75.61,1.71,1.53,1.73,1.22,0,1.63-1.09,1.79-2,.43-2.5,1.16-4.58,3.54-6.14,1.92-1.25,1.34-3.68.67-5.51S131.88,313.61,131.64,313.59ZM509.9,115.49c2.68.34,5.14-1.09,6.62-4,.84-1.69,1.11-3.85-.29-5.17-2.39-2.27-5.23-1.31-7.91-.17-.3.13-.63.18-.95.29-2.49.83-4.82,1.93-4.22,5.14S506.38,115.4,509.9,115.49ZM503.43,133c-1.7,0-3.51.07-3.69,2.26S501.21,138,503,138c2.1.09,3.55-.76,3.61-3S504.85,133.13,503.43,133ZM266.3,17.17c-2,0-3.73.53-3.9,2.79-.12,1.74,1.32,2.21,2.71,1.91,1.68-.35,4-.36,4.27-2.57S267.78,17.26,266.3,17.17Zm274.56,93.54c2.47.36,1.48-2.81,2.56-4.14s-1.08-1.6-2.09-1.67a3,3,0,0,0-3.54,3.19C537.7,109.65,538.61,110.52,540.86,110.71Zm33.3,440.37c1.36-1.08,3.8-1.35,4.13-4,.12-1-.52-1.74-1.42-1.57-2.34.45-3.48,2.31-4.27,4.34C572.28,550.69,573.09,550.89,574.16,551.08Z" transform="translate(-0.89 -0.89)"/><path d="M874.22,701c1.33,0,2.66,0,4,0,1,0,2.14.21,1.94,1.61s.74,3.07-.46,4.3c-.9.93-1.79.17-2.62-.41-2.28-1.59-4.86-.44-7.28-.8-1.26-.19-3.47.87-3.33-1.56a3.22,3.22,0,0,1,3.28-3.14C871.23,701,872.73,701,874.22,701Z" transform="translate(-0.89 -0.89)"/><path d="M530.53,600.37c2.27-.06,6.9,3.87,6.75,5.48a1.91,1.91,0,0,1-2.52,1.73c-3.22-1-7.71-.13-9.29-3.26C524.67,602.72,528.91,601.65,530.53,600.37Z" transform="translate(-0.89 -0.89)"/><path d="M846.62,707.25c-.27,1.39-.47,2.75-2.29,2.67s-2.44-1.22-2.38-3a2.52,2.52,0,0,1,2.34-2.67C846.5,704.05,846,706.2,846.62,707.25Z" transform="translate(-0.89 -0.89)"/><path d="M238.52,378.64c-1.82-.32-4.28.45-4.37-2.6,0-.9.94-1.84,1.53-1.31,1.76,1.58,5.14.24,5.83,2.65C242,379,239.62,378.34,238.52,378.64Z" transform="translate(-0.89 -0.89)"/></g></g></svg>