<svg xmlns="http://www.w3.org/2000/svg" viewBox="0 0 847.99 829.37"><title>never</title><g id="Layer_2" data-name="Layer 2"><g id="Layer_1-2" data-name="Layer 1"><path d="M286.93,139.26c0,21.83-.08,43.65.07,65.48,0,4.65-1.65,8-5.47,10.45C269.38,223.07,260,233.84,251.12,245c-3.66,4.62-4.78,10.94-6.25,16.73-3.18,12.53-5.05,25.37-11.38,37a115.29,115.29,0,0,1-18,24.28c-10.13,10.69-17.87,22.81-20.48,37.5-1.94,10.85-1.47,21.92-.5,32.84.88,9.86-1.88,18.57-9.26,24.45-12.42,9.9-15.83,28.49-1.93,41.85a12.3,12.3,0,0,0,5.94,3.45c1.38.29,3,.52,4-1.1,7.5-11.66,18-20.32,28.18-29.54,11.25-10.23,23.19-20,31.94-32.69,4.13-6,5.36-13.11,7.2-20,4.05-15.23,10.5-29.34,22.1-40.51.89-.85,1.75-2.55,3.2-2,1.86.66,1,2.61,1,4,.06,15.5-.16,31,.13,46.5.14,7.28-.33,14.59.12,21.81.75,11.75-4.64,20.92-11.2,29.54-7,9.18-13.67,18.47-17.85,29.24a33.31,33.31,0,0,0-2,17.62c2.19,13.48.26,26.36-5.24,39a268.61,268.61,0,0,1-19.5,36.28c-4.09,6.46-2.85,18,3.19,24.41,8.48,9,5.33,20.2-1.91,27.72-6.17,6.41-14.16,11.51-18,20.09-.75,1.67-2.2,1.73-3.76,1.78-15.87.52-31.44-2.29-47.09-4.14-3.12-.37-4.58-2.15-4.62-5.4-.09-6.83-.52-13.65-.61-20.47-.4-27.81-.47-55.62-1.14-83.42-.71-29.47-.58-59-1.5-88.41-.36-11.61,0-23.3-1.25-34.91-.61-5.41-.21-10.94-.26-16.41-.24-28.49,0-57-.81-85.46-1.09-40.09-1.49-80.2-2.56-120.29-.78-28.75-1.12-57.49-1.74-86.23-.44-20.14,1-40.29-.48-60.41-.33-4.37,1.47-6.09,5.74-5.94,18.29.61,36.59,1.12,54.88,1.71,3.39.11,4.24,1.68,2.14,4.43a22.59,22.59,0,0,1-3.68,4.06c-9.11,7.31-14.07,17.26-18.25,27.82a40.28,40.28,0,0,1-8.24,12.89c-6.44,6.87-8.68,15.67-10.48,25-3.28,16.93,5.14,30.51,11.51,44.45,4,8.71,5.91,17.65,7.48,26.72,1.46,8.46,4.83,16.24,7.3,24.3,1.66,5.4,2.65,10.94,4.32,16.32s2.89,11.18,5.07,16.55C211.15,239.16,210,251,210,262.76c-.05,11.14-5.33,20.38-10.44,29.75C196,299,196.17,305.94,198,312.88c.71,2.78,3.38,2,4.46,1.12,8.91-7.49,20.12-12.56,25.38-24,1.11-2.39,1-4.85,1.33-7.29,2.13-14-1.34-26.49-8.33-38.78-6.56-11.53-11.16-24.14-15.66-36.67a12.37,12.37,0,0,1-.61-3.93c-.42-18.66-.24-37.32,2.76-55.78a43.14,43.14,0,0,1,6.36-16.1c6.48-10.21,12.2-20.9,20.2-30.08,9.57-11,21.84-18.25,34.52-24.89,4.7-2.46,9.66-4.4,14.44-6.7,2.87-1.39,4-1.35,4,2.51-.17,22.31-.08,44.63-.08,66.94Z" transform="translate(-17.44 -22.02)"/><path d="M666.91,42c-2.64,4.92-3.67,10.44-5.23,15.72q-13.33,45.18-26.39,90.44c-3.43,11.82-6.95,23.62-9.92,35.55-1.18,4.72-2.61,6.74-7.81,5.12a83.72,83.72,0,0,0-27.57-3.7c-3.28.09-4.84-1.32-5.71-4.26q-4.51-15.31-9.19-30.59c-4.77-15.58-10-31-14.31-46.73-5.3-19.41-10.57-38.85-14.63-58.58-.36-1.74-.33-3.62-2.61-5-1,4.6-.56,9-.39,13.31.16,4-1,5.54-5.32,5.48-14.48-.18-28.93-1.29-43.42-1-4.29.1-6.07,1.33-5.78,5.76.38,6-.05,12,.62,18,.39,3.55,1.53,5,5.18,4.89,9.48-.19,18.92,1.22,28.43.93,6.64-.2,6.95.51,7,7,0,8.83,0,17.66.33,26.48.11,3.3-.93,4.12-4.22,4.23-10,.33-19.9-1.21-29.86-1.55-4.4-.15-6.35,1.25-6,5.58a220,220,0,0,1,1,27.88c-.11,2.52,1.23,3.06,3.41,3.07,12.46,0,24.87,1.93,37.36,1.12,4-.26,7.92-.79,11.88-1.18,2.25-.22,3.33.73,3.46,3.09.47,8.63,1.06,17.26,1.6,25.88.19,3-.93,4.58-4.19,4.85-15.74,1.31-31.45,3.32-47.27,2.29-13.4-.88-26.75-2.34-40.13-3.47-2.35-.19-2.51-1.63-2.59-3.42-.84-18.09-1.55-36.2-2.61-54.28-.93-15.75-2.37-31.47-3.36-47.21-.71-11.46-1.26-22.93-1.47-34.41-.15-8.48-1.62-16.85-1.42-25.36.09-3.63.72-5,4.57-5.06,28.79-.57,57.59-1.08,86.39-.66,13.62.2,27.24,1.05,40.87,1.49,3,.1,4.61,1.28,5.15,4.25,4.69,26,11.75,51.48,18.67,77,.91,3.36,2.71,6.42,3,10,.08,1.12.29,3.1,1.92,3.13,1.8,0,1.51-1.92,1.79-3.1,3-12.76,5.9-25.56,9-38.32,4-16.63,8.17-33.22,12.18-49.85.65-2.73,2.06-4.22,4.86-3.84,12.74,1.74,25.58.1,38.37,1.48,9.73,1.06,19.61.76,29.42.91,18.14.27,36.13,2.74,54.23,3.52,2.3.1,3.14,1.14,2.85,3.56q-1.63,13.86-3,27.78c-.31,3.39-2.32,3.29-4.88,3.28-12,0-23.79-2.13-35.72-2.75-7.86-.4-7.43-.41-8.91,7.07-1.11,5.64-.46,11.3-1.31,16.88-.48,3.17.95,3.89,3.87,4.19,9.38,1,18.73,2.28,28.11,3.39,1.87.23,3.41.58,2.88,2.94C738,104.6,738.3,114.3,737,123.83c-.41,2.92-1.52,3.68-4.09,3.5-7.95-.56-15.92-.89-23.84-1.7-4.7-.48-7.63.41-8,5.78-.65,8.78-1.57,17.54-2.39,26.31-.17,1.82,1.13,2.07,2.45,2.52,4,1.36,8.23,1.21,12.36,1.25,11.15.13,22.3,0,33.45-.06,2.23,0,3.79.47,3.27,3-1.76,8.6-.68,17.28-.77,25.92,0,4.29-1.47,5.92-5.83,5.87-13.66-.17-27.34.37-41-.16-9.58-.38-19.12-2.1-28.68-3.14a41.51,41.51,0,0,0-7.47-.29c-3.82.29-5.25-1.45-4.81-5a195,195,0,0,0,1.2-20.36c.25-11.63.76-23.26,1.32-34.89,1-21.42,2.25-42.82,3.3-64.24.39-8,.55-16,.78-24C668.26,43.44,668.42,42.5,666.91,42Z" transform="translate(-17.44 -22.02)"/><path d="M159.85,809.23c4.86-2.82,4.72-2.68.67-6.7-1.64-1.62-2-4.08-4.93-5-1.78-.57-.74-2.76,1.08-3.7.89-.45,1.84-1.32,1.14-2.35s-1.88-.52-2.45.36c-1.37,2.11-3.28,3.57-5.12,1.28-1.61-2,.37-3.28,2.17-4.58s2.26-4,4.92-4.54c.27,0,.69-1,.59-1.06a2.87,2.87,0,0,0-1.47-1.07c-1.4-.23-2,.93-2.66,1.87-1.43,1.93-3.31,2.53-5.07.69-2-2.08-.7-3.54,1.44-4.58,1.64-.8,1.94-1.92.27-2.91-3.39-2-2.25-3.87,0-5.82.72-.64,1.8-1.3.69-2.37-.91-.87-1.87-.33-2.66.35a18.11,18.11,0,0,1-1.78,1.73,2,2,0,0,1-3-.58,2,2,0,0,1,.24-2.74c.44-.45,1.23-.55,1.68-1,2.08-2,4.95-3.84,5.92-6.36,1.11-2.85-4.84-2.66-4.25-6.42.12-.77-1.65-.69-2.63-.78s-2.59.21-2.38-1.64c.13-1.12.21-2.51,1.47-3s2.85-.35,3.52,1c2.17,4.47,4.06,5.83,5.9-.16.16-.53,1.13-1.33,1.35-1.23,3.2,1.52,6.57,2.87,9.41,4.93,1.47,1.07-.31,4.11-3.31,6,.33,2.76,5.12.37,4.45,3.31-.94,4.12-2.47,8,0,12.1.6,1-1.9,1.77-1.46,3.29,1.25.72,1.88-.29,2.68-.77s1.88-1,2.52.24c.45.88-.06,1.6-.87,2-2.88,1.58-3.53,5.12-6.19,7a1.57,1.57,0,0,0,.4,2.83c1.16.47,1.81-.17,2.11-1.35.49-1.91,1.46-3.27,3.73-3.37,2.64-.13,2.23,2,2.67,3.4.66,2.16-1,1.54-2,1.53-1.63,0-3.2.14-3.18,2.19,0,2.31,2,1.73,3.38,1.91,1.16.16,2.41,0,2.68,1.62.39,2.28,2.07,2.57,4,3,1.75.37,5.89-.34,2.76,3.8,4.24,2.45,2.4,4.54,0,7.27-.84,1,2,2.39,2.57,1.49,2.28-3.49,7.85-3.44,8.71-8.34.14-.78.88-1.57.17-2.24-1-1-1.78-.08-2.46.64s-1.12,2.6-2.51,1.74c-1.6-1-.72-2.6-.15-4,1.06-2.61,1.63-4.94-2.56-5-2.46-.07-2.19-1.78-1.11-3.08,2.06-2.49,3.07-4.67-.54-6.61-.27-.15-.67-.65-.61-.73,2.94-4.43-3.13-10.27,2.17-14.22,2.09-1.56,1-2.65,0-4.09a2.54,2.54,0,0,1,.39-3.61c1.13-.88,2.19-.08,3.15.62,1.16.86,2.32,2.49,3.85,1.19,1.33-1.15-.06-2.41-.65-3.53s-.61-2,.36-2.65a1.65,1.65,0,0,1,2.24.35c2,2,3.79,1.16,5.67-.39,2.35-1.94,4.73-2,7.12.2,1.88,1.77,3.89,2.14,5-.81.65-1.75,2.63-2.14,3.06-1.49,2.13,3.24,6.48,2.53,8.78,5.36,1.22,1.51,3.37,2.74,4-.11.55-2.4,1.47-2.9,3.56-2.9s4,.32,4.56,2.84a8.92,8.92,0,0,0,.64,1.48c3.53-5.9,8.25-8.37,14.23-9.21,8.37-1.17,15.49,2.09,22.58,5.7.57.29,1.43.73,1.49,1.17.75,6.2,5.69,5.6,9.76,5.7,2,0,3,1.13,4.39,1.84,1.11.56,2.32.83,3-.6.58-1.26.11-2-1.23-2.68-3.55-1.84-6-3.53.2-5.6,2.82-.94,1.29-3.41-.81-4.23-1.73-.68-3-1.16-2.81-3.35.21-2,1-3.07,3.13-3a1.26,1.26,0,0,0,1.3-1.67c-.16-.8-.88-.88-1.53-1a4.17,4.17,0,0,0-.5,0c-2.22,0-4-.64-4.4-3.1-.23-1.49.83-2.11,2.1-2.23,2.26-.22,4.91-2,6.11,1.91.86,2.77,2.71,2.2,3.93.26a4.94,4.94,0,0,1,4.93-2.66c1.34.09,2.23-.38,2-2-.26-2,.65-3.07,2.64-3.52a1.81,1.81,0,0,0,1.32-2.71c-.72-1.29-1.7-.21-2.51.22-6.22,3.33-8.62,2.92-12.73-2.71-2.21-3-3.81-1.11-4.9.6a3.67,3.67,0,0,1-4.17,1.81c-1.25-.19-1.35-1.32-1.41-2.32-.11-2.22,1.56-2,3-2.37,1.88-.44,2.52-2.92,1.14-3.14-3.7-.59-3.63-5.14-7-5.68a2.09,2.09,0,0,1-1.71-2.17,1.36,1.36,0,0,1,1-1.49c1.46-.46,2.2.34,2.59,1.6.55,1.81,2,2,3.56,2.07,1,0,2.13.21,2.58-1s-.53-1.86-1.42-2.25c-3.95-1.7-5.46-3.24-.12-5.27,1.77-.68,1.36-2.81.58-3.93a2.87,2.87,0,0,0-4.7-.09c-2.26,2.86-3,3.34-5.67-.16-1.57-2.09-6.54-.92-9.4-3.19a1.77,1.77,0,0,0-1,.81,2.08,2.08,0,0,0,1.23,2.45c.92.54,1.86,1.38,1,2.34-1.16,1.36-1.74-.4-2.64-.72-3.7-1.35-6.21-4.35-9.47-6.26-2.47-1.46-2.36-3.37-.25-4.63a22.79,22.79,0,0,0,4.23-3.81c2.16-2.09,6.17-1.82,7.63-5.3,0-.11,1.95.14,2.15.6,1.59,3.58,5.85,2.89,8.17,5.26.74.77,1.79,1.13,2.42-.15a1.4,1.4,0,0,0-.82-2c-3.86-1.57-6-3-.51-5.7,1.72-.85,2.66-3.33-.62-4.33a2,2,0,0,1-1.63-2.16c0-.69.26-1.34,1-1.51a2.25,2.25,0,0,1,2.82,1.44c.54,1.39,1.35,2.4,3,1.84a2.06,2.06,0,0,0,1-1.52c.19-1.51-1.09-1.68-2.11-2.28-2.51-1.49-3.17-5.65-7.2-5,.32-2.87-.67-3.68-3.65-5.07-4-1.85-6.56-3.29-9.81.46-.46.52-1.68.18-2.14-.67-.56-1.05-.36-2,1-2.22,1.54-.28,2.86-1,1.8-2.58s-2.58-.84-3.71.43c-2.45,2.75-4.74,2.68-6.9-.37a1.64,1.64,0,0,0-2.57-.48c-1.25,1.11-.5,2.06.64,2.73,1.36.82,3,1.81,1.08,3.31s-1.73-1.2-2.65-1.74C243,662,240,660.89,237.38,659c-1.1-.78-3-.26-3.32,1.82-.29,1.75-1.5,2.32-2.88,1.45a1.79,1.79,0,0,1-.09-3c1.44-1,2.57-1.87,1-3.44-1.83-1.82-2.23.24-3.25,1.23-1.86,1.8-4.05,1.88-5.33-.66-1.75-3.44-3.46-2.35-5.18-.21-1.09,1.35-2.53,2.42-3.64.88-1.36-1.89,2-1.82,1.9-2.44-.8-3.73,7.82-5.7,1.85-10.33-.92-.71-.53-2.22.43-3.12,1.25-1.15,2.52-.69,3.56.31,1.75,1.7,2.61,2.7,4.59-.43,1.64-2.59,5.42-1.35,8.21-.23,1,.42,2.14,1.79,3.06.6,3.36-4.34,8.55-2.05,12.69-3.71,5.52-2.21,11.9-1,17.43-3.78a13.79,13.79,0,0,1,4.75-1.36c7.15-.73,13.69-3.77,20.67-5.16a4.33,4.33,0,0,1,4.36,1.72c5.12,5.74,10.73,10.94,15.2,17.4,4.11,5.94,10.35,10.39,15.62,15.52,9.22,9,18.43,17.91,26.38,28.15,4.22,5.43,9.81,9.82,14.95,14.49,13.6,12.38,24.52,27.32,38.14,39.69,6.5,5.89,11.75,13.06,17.87,19.24,3.73,3.77,6.72,8.4,11.3,11.43,3.33,2.21,3.1,5.06-.53,6.88-6.29,3.15-12.76,6-19.15,8.91-4,1.85-8.86,2.07-11.62,6.27a2.29,2.29,0,0,1-1.78.77c-7.3-.7-11.94,4.74-17.62,7.68-5.15,2.66-5,2.92-9.55-.2-3,5.27-6.76,8.59-13.53,8.67a13.1,13.1,0,0,0-8.63,3.94c-.91,1-2,2.5-3.22,2.09-5.21-1.68-7.88,3-11.84,4.28-6.28,2-12.27,4.71-18.51,6.55-4.92,1.45-9.68,4.27-14.59,4.46-5.84.23-10.89,4.64-16.94,2.61-.58-.19-1.76-.21-1.9.06-2.73,5.65-8.62,2.7-12.76,4.59-2.25,1-6.27,2.28-6.4-3-.05-1.78-1.45-2.06-2.88-1.94-1.93.17-2,1.44-1.5,2.89s.18,2.69-1.25,3.37c-1.21.56-2.19-.14-3.2-.8s-1.38-3-3-1.64c-1.88,1.65,0,3.21,1.34,5.14-8,0-15.31,1.69-22.75,2.62-3.85.49-8-2.69-11.69,1-.58.58-1.83-.17-2.6-1-1.6-1.65-3.22-1.49-4.68.23a3.54,3.54,0,0,1-4.11,1.08c-3.16-1.32-6.11-2.22-8.93.59-.11.11-.39.21-.46.16-3.68-3-8.77-2.39-12.83-4.65-3.32,4.86-4.33,4.95-8.89.26-1-1.08-1.94-1.41-2.83-.17-2.42,3.38-4.91,2.78-8.55,1.53-4.23-1.46-9-2.38-13.65-1.35-3.39.77-4.09-.38-2.95-3.72-6,4.25-11.64,3.52-15.71-1.65a2.56,2.56,0,0,1-.24-1.81c.15-.86.43-1.8-.64-2s-1.85.56-1.89,1.73c-.09,2.55-1.39,3.64-3.88,3.24-1.61-.25-3.75-.18-3.92-2.3-.14-1.81,1.51-2.66,3.1-3.45,4.05-2,8.13-4,10.56-8.17.49-.83,1-2.16,2.13-1.41s.72,2.12,0,3.09-1.8,2-2.69,2.94-1.94,1.77-.47,2.84c1.16.85,3,1,3.5-.39,1.42-3.68,6.39-3.86,7.38-7.93a1.74,1.74,0,0,1,2.76-1.1,2.41,2.41,0,0,1,.38,3.21,34,34,0,0,1-2.56,3c-.59.78-1.23,1.78-.1,2.59.68.48,1.9.63,2.29-.1,3.15-6,6.52-3.8,9.78,0,1.21-2,.45-3.21-.64-4.37a2.41,2.41,0,0,1-.46-3.17c.72-1.16,3.17-1.84,2-3.49a36.61,36.61,0,0,0-6.22-6.22c-.74-.61-2.6-.09-2.35-1.79s1.79-2.23,3.42-2.19,3.14,2.13,5.42.86c-1-2.47-5.34-2.54-4.54-6.14Zm97.3,9.39c2.06.49,3.78,2.86,5.24,1.58a39.35,39.35,0,0,0,7-8.25c.92-1.43-1.24-2.41-2.39-3.31-.93-.74-1.64-.57-2.59.2-1.72,1.4,0,4.17-2.1,5.17-3.18,1.5-3.12-3.92-3.46-3-1.2,3.36-9.85-5.26-6.37,4.14.28.78-1,1.16-1.81,1.3-1.4.24-2.53.62-2.59,2.41-.1,3.08-2.8,2.67-3.93,1.8-2.63-2-7-1.15-8.33-5.25a1.57,1.57,0,0,0-2.11-.84,1.51,1.51,0,0,0-.6,2.15c1.9,2.44,3.79,4.73,1.07,7.84-.2.23.45,1.62,1,2,2.44,1.85.9,7,5.89,6.82.77,0,.51,1.38.07,2.12s-1.22,1.79.1,2.48,2.19-.26,3-1.17c1.4-1.68,1.43-4.26,3.73-5a1.6,1.6,0,0,0-1.83-1.15c-2,0-2.68-.86-1-2.19a2.76,2.76,0,0,1,3.67.57c2.57,3.16,4.36,3.28,5.75-.91a2.71,2.71,0,0,1,3.59-1.9c3.5,1.68,5.9-.14,8.64-1.77,1.11-.67,2.62-.54,2.43-2.41a1.76,1.76,0,0,0-1.49-1.73c-1.52-.29-2.66.22-3,1.8-.65,2.67-2.38,2.8-4.6,2.19C257.32,823.57,256.35,821.88,257.15,818.62Zm-71.89-2.33c3.2.91,2.05,4,4.71,4.38,4.07.56,3.18,3.11,1.92,5.47-2.08,3.93.08,5.13,3.4,5.61,2.84.4,4.69-1.24,7-2.75,3.37-2.23,3.48-2.76-.39-3.75a3.06,3.06,0,0,1-2.13-3c0-.39.82-1,1.37-1.19,1.27-.41,2.12.24,2.9,1.31,2.22,3.06,4.17,2.87,5.82-.61.7-1.49,2.17-1.37,3.5-1.16a1.75,1.75,0,0,1,1.6,2.11c-.16,1.5-.48,3.34,1.71,3.34,2,0,2.43-2,3.16-3.45,1.22-2.41-1.17-2.13-2.21-2.86a11,11,0,0,1-2.37-1.8c-2.38-3-4.36-3.84-5.74.72-.34,1.12-1.07,1.7-2.23,1.31s-2.51-.3-2.94-1.54c-.35-1,.43-1.83,1.2-2.54,1.1-1,3.18-1.23,3-3.46-2.07-.85-2.68.87-3.52,1.94-1.26,1.61-4,1.85-4.34,1-1.4-3.24-5.75-2.71-6.85-5.87a2.64,2.64,0,0,0-2.93-2.08,1.93,1.93,0,0,0-2,1.79c-.25,1.66.45,2.46,2.11,2.64,1.09.11,1.88.72,1.71,2s-1.2,1.45-2.19,1.62C189.2,815.68,187.91,815.87,185.26,816.29ZM327.77,768.1c1.19,4.91,5,6.94,8.22,8.82s3-3.4,5.19-4c4.05-1,4.58-4.24,4.44-7.28a9.07,9.07,0,0,0-6.48-8.57c-.75-.26-1.51-1-2.22-.15s-.16,1.53.45,2.16c1.2,1.26,3.61,2.66,2,4.36-2.09,2.26-2.58-1.48-4.1-1.94-.31-.09-.55-.38-.84-.53-1.12-.59-2.23-2-3.52-1.06s-.54,2.3.19,3.53C333.18,767,331.62,768.27,327.77,768.1ZM312,780.68l.16-1.5c-2.37-.92-4.73-1.88-7.12-2.76-1.7-.63-3.91-.93-3-3.55.75-2.06,2.41-2,4.1-1a1.85,1.85,0,0,0,2.64-.49c.92-1.32-.28-2-.89-3-1.42-2.26-4.56-2.09-5.92-4.38-.74-1.25-2-1.52-2.91-.54-1.3,1.42.23,2,1.25,2.4,2.12.87,2.52,3.31,1.07,3.75-3.42,1.06-3.82,5-6.91,6.08-3.41,1.22-2.76,2.69-.1,4.2,1.28.72,2.66,1.37,3.19,3s2.29,1.72,2.79,1C303.25,779.56,307.61,780.27,312,780.68Zm-36-6.54c-.17.71-.12,1.44-.43,1.64-3.91,2.56.27,5.57-.42,8.38-.31,1.22,1.69,1.83,2.6,1,1.9-1.8,3.54-3.82,5.84-5.25.92-.58.19-1.7-.84-2.3-3.58-2.11-3.36-4.15.15-6.16a2.73,2.73,0,0,0,1.29-3.43c-.53-1.55-1.78-1-2.94-.78-.78.15-1.86.34-2.4-.06-3.08-2.25-3.62,1.3-5,2.32-2.2,1.68.41,2.2,1.27,3.13A6.6,6.6,0,0,1,275.94,774.14Zm35.43-19.58c.67,2.81.75,5.85,3.94,7,1,.37,2,1,1.25,2.17a1.77,1.77,0,0,1-2.67.17c-.92-.69-1.72-1.55-2.57-2.33a3.38,3.38,0,0,0-3.64-.94,1.39,1.39,0,0,0-.7,1.14c.21,1.33,1.4,1.76,2.46,2.21a6.72,6.72,0,0,1,2.56,1.21c3.17,3,6.5,2.18,9.58-.29.87-.69,1.89-1.57,1.61-2.9-.32-1.49-1.66-1.42-2.81-1.48-1.48-.07-3.56.22-3.5-1.81C317,754.64,313.58,755.55,311.37,754.56Zm-92.16,18.76a1.9,1.9,0,0,0-1.71-1.46c-1.23-.16-2.44.08-2.73,1.5-1,4.65-3.87,3.71-6.76,2.34-2.6-1.24-4.67-.46-6.85,1-1.5,1-2.94,2.25-2,3.93,1.08,1.93,3.36,1.61,4.66.3,2-2,3.75-2,6.15-.74S219.25,776.59,219.21,773.32Zm130.65-6.13c1.79,1,3.16,3.12,5.78,1.37-2.16-2.48,7.72-4.2.32-7.72a18.79,18.79,0,0,1-6.29-4.55C349,755.47,348,754,346.9,755c-1.33,1.29-.15,2.65.84,3.84,1.89,2.27,3.69,4.62,5.57,7C352.86,766.41,350.73,764.84,349.86,767.19Zm-49.73-40.56c-.22-.53-.28-1.22-.6-1.38-3.45-1.74-5.73-3.35-.07-5.27,1-.35.75-1.75.56-2.68-.29-1.36-1.45-1.7-2.64-1.8s-1.75.74-1.67,1.85c.17,2.2-1.55,2.54-3,3.34-1.22.69-3,2.86-1.28,3.12,3.46.52,3.77,5.72,7.73,4.47C299.63,728.14,299.83,727.2,300.13,726.63ZM194.83,838.32c-.22-.34-.39-.87-.75-1.12-2.29-1.62-4.58-3.24-7-4.74-1-.63-2.3-1-2.94.44s.44,2.09,1.66,2.46c4,1.21,3.87,3,.74,5.23-.79.56-2,.9-1.44,2.12a3.44,3.44,0,0,0,1.93,1.36,1.51,1.51,0,0,0,2.19-1.26c.44-2,1.33-3.32,3.71-3A1.75,1.75,0,0,0,194.83,838.32Zm78.53-50.43a6.48,6.48,0,0,0-4.11,5.47c-.08,2.22,1.73,4.67,3.58,6.49.12.13,1.23-.43,1.21-.51-.88-3.51,3.76-6.24,1.37-10A2.39,2.39,0,0,0,273.36,787.89Zm-10.28-25.5a1.7,1.7,0,0,0-1.42-1.76,2.72,2.72,0,0,0-3,1.3c-2.12,3.66-4.26,5.23-7.05.5-.62-1-2.06-.82-3.21-.56a1.31,1.31,0,0,0-1.13,1.39c.1,1.42,1.1,1.93,2.36,2a4.83,4.83,0,0,1,3.37,1.78c1.68,1.94,3.54,1.41,5.09-.25,1.1-1.19,1.78-2.8,3.8-2.75C263,764.11,263.23,763.33,263.08,762.39Zm-59.37,8.76a2.55,2.55,0,0,0-4.08-1.85c-2.32,1.74-4.13,4.21-6,6.51a1.49,1.49,0,0,0,.62,2.14,1.66,1.66,0,0,0,2.24-.49,6.37,6.37,0,0,1,5.58-3.51C203.55,773.9,203.54,772.39,203.71,771.15Zm160.08-.43c.32-.07.83-.05.92-.23a7.24,7.24,0,0,1,5.86-4.39c.55-.07.52-1.15,0-1.7-1-1.16-.58-3.47-2.89-3.61-1.07-.07-2.27,0-2.23,1.26.08,3.06-3.47,5-2.5,8.2C363,770.47,363.51,770.57,363.79,770.72ZM258.92,776.6c0-.93-.41-2-1.27-1.74a12.8,12.8,0,0,0-7.93,6.14c-1.59,2.74,2.05,1.49,2.84,2.61.38.53.8,1,1.14,1.6.63,1,1,3,2.68,1.62,1.3-1.11.18-2.39-.9-3.28-3.37-2.72-2-4.34,1.3-5.39C257.72,777.86,258.81,778,258.92,776.6Zm28.55-69.06A3.17,3.17,0,0,0,285,709.6c-.38,1.32,0,2.42,1.36,2.73a10,10,0,0,1,5,2.78,1.83,1.83,0,0,0,3.19-.71C294.92,713.35,288.73,707.45,287.47,707.54Zm-40.15,97.77c-.17-2.28-1.84-2.07-3-2-2.78.06-3.16-6.1-5.78-3.18-1.88,2.1,4,3.14,4,6.43a1.69,1.69,0,0,0,2.68,1.17A10.37,10.37,0,0,0,247.32,805.31Zm-36.49-47.23c-1.18,4.68-1.16,4.71-4.81,6.78-1.05.59-2.29,1-1.77,2.49s2,1.06,3,.9C210.61,767.73,212.94,761.89,210.83,758.08Zm76-59.21c-.62.11-1.51,0-1.48.88s.24,2,.75,2.24a18.4,18.4,0,0,1,6.19,4.72,1.17,1.17,0,0,0,1.77,0,3,3,0,0,0,.71-1.71C294.82,704.3,287.61,698.81,286.82,698.87Zm39.5,83c2.85-.65,5.34.23,8.3,2.08-1.22-2.64,1.29-4.61-1.19-6.28C328.35,774.25,329.45,781.66,326.32,781.88Zm-15.9-64.52c0-.16,0-.4-.09-.47-2.42-1.8-4.81-3.64-7.31-5.31-.49-.33-1.62.52-1.28,1a46.49,46.49,0,0,0,4.95,5.89c.54.53,1.85.42,2.79.37C310.22,718.78,310.5,718.1,310.42,717.36Zm74.66,51c1.29,1.89,1.81,4.37,4.16,3.78,2.14-.54,3.81-2.46,5-4.44.24-.39,0-1.29-.36-1.79s-1.41-.63-1.63,0C391.07,769.44,387.89,767.75,385.08,768.37Zm-90,49.76c1-.23,3,.24,2.61-2.09a4.09,4.09,0,0,0-3.4-3.71c-2.15-.31-2.2,1.41-2.3,2.9C291.91,817.16,292.5,818.46,295.12,818.13Zm76.71-14c1.67,0,3.17-.06,2.79-1.7-.6-2.6-3.09-3.06-5.24-3.62-.84-.21-2.71.32-2.29,1C368.32,801.67,369.9,803.51,371.83,804.13Zm-19.2,8.33c-1.37-2-2.16-3-2.73-4.1-.46-.88.18-2.58-1.69-2.3a2.79,2.79,0,0,0-2.26,2.32,2.46,2.46,0,0,0,1.68,3.12C348.83,811.88,350.12,812,352.63,812.46Zm-164.86,13c-1.32-1.78-3.23-3-3.69-2.1-1.28,2.38-3.94,3.2-5.17,5.43-.12.22.38,1.12.62,1.13a2.49,2.49,0,0,0,1.84-.44A13.39,13.39,0,0,1,187.77,825.47Zm36.51-20.15c-.41.68-.83,1.08-.85,1.48-.05,1.73,1.45,2.52,2.46,3.5,1.15,1.13,2.41,2.41,4.3,2,.36-.08.88-1,.87-1C229,809.39,226.81,807.53,224.28,805.32Zm-9,26.24c3.39,1.71,5.3,3.06,6.52,5.29.71,1.29,2.33,1.23,3.43.14a1.12,1.12,0,0,0-.45-2C221.8,834.6,220.37,830.89,215.3,831.56Zm153-25.31c-.47-2-2.34-1.37-3.23-2.35s-.93-3.29-3.13-2.12a2.33,2.33,0,0,0-.74,1.73c0,2.13,1.68,2.17,3.14,2.39C365.55,806.09,366.64,807.42,368.28,806.25Zm-199,32c-1.75-.14-5.82,5.19-5.32,6.51.41,1.07,1.5,1.17,1.87.5,1.17-2.11,1.92-4.47,4.31-5.62Zm90.1-143.44c-1.48.09-2.6.64-2.46,2.34.16,1.94,1.85,2.2,3.23,2.36,1.9.22,1.92-1.35,1.91-2.67C262,695.1,260.83,694.77,259.38,694.83Zm7.8,134.11c-1.49.38-2.87,1-2.83,2.8,0,2,1.83,1.4,3,1.63,1.37.27,2.23-.33,2-1.87C269.08,830.28,269.16,828.74,267.18,828.94Zm-68,10.12c2.12-.46,4.57-.26,5.1-2.92.17-.85-.77-1.5-1.63-1.56C199.64,834.38,199.94,837.15,199.16,839.06Zm32.33-8.72c0-1.32-.67-1.91-1.85-1.88-1.68,0-3.44.1-3.86,2.23-.22,1.1.63,1.44,1.52,1.33C228.85,831.85,230.67,832.18,231.49,830.34Z" transform="translate(-17.44 -22.02)"/><path d="M591.39,310.9c1.11,12.34-.67,27.46-1.64,42.52-.74,11.63-1.86,23.65-7,34.46-11.21,23.63-40.07,34.64-63.49,16.27-8-6.29-15.48-13.11-21.59-21.31-.56-.75-.87-2.1-2.1-1.76-1.55.44-.93,1.94-.95,3-.08,5-.15,10-.08,15,0,2.44-.34,3.82-3.3,4.38a43.34,43.34,0,0,1-9.41.69c-16.83-.42-32.82,2.24-46.78,12.54-4.09,3-9.11,3.31-13.81,3.83-5.25.59-10.61.46-15.92,1.05-3.68.41-5.38-.82-4.9-5.18.66-5.93.39-12,.45-17.95.3-26.42.15-52.85,1.06-79.25.39-11.44.41-22.92,1-34.37.58-11.15,1.31-22.42.87-33.65-.12-2.81.47-4.67,3.81-5.25,11.34-2,22.55.13,33.8.81,2.61.15,2.23,2.45,2.13,4.27-.59,11.45-.38,22.91-.8,34.37-.95,25.63-.22,51.31-.24,77,0,5.8,1.58,11.49,1,17.31-.45,4.5,1.82,4.55,5.14,3.32,5.67-2.08,10.13-6.36,15.87-8.38,6.92-2.44,13.88-4.64,21.18-5.35,3.43-.34,5-1.59,4.22-5-2.59-12.22-1.66-24.64-.93-36.84.79-13.41.86-26.91,2.89-40.26,2.53-16.64,10.89-29.47,24.93-38.48a81.54,81.54,0,0,1,38.89-13.22c15.39-1,27.09,6.61,31.81,23.11C592.15,274.72,591.35,291.45,591.39,310.9Zm-31.21-10.72c0-3.16.05-6.32,0-9.49s-.13-6.32-.34-9.48c-.75-11.19-7.16-15.6-18-12.46-7.36,2.14-12.74,9.66-13.13,17.48-1.17,24,2.39,47.77,2.57,71.7a18.41,18.41,0,0,0,4.38,11.45,12.31,12.31,0,0,0,11,4.54c4.37-.43,6.83-3.84,8.1-7.88a39.93,39.93,0,0,0,1.5-6.82C558.74,339.62,561.49,320,560.18,300.18Z" transform="translate(-17.44 -22.02)"/><path d="M412.94,659c-7.75.92-18.87-.23-30-.14-10.53.08-12.06-1-10.6-11.1,1.3-9,1.1-17.93.83-26.86-.73-23.49,3.56-46.26,8.45-69,1.39-6.45.29-13.22,1.57-19.82,3.73-19.26,5.31-38.78,6.29-58.35.13-2.58,1.21-3.62,3.63-3.61,7.58,0,14.1-3,20.74-6.35,15.16-7.6,31.32-11.37,48.21-8.17,15.5,2.94,25,13.81,27,29.95,1.93,15.86,1.17,31.55-5.54,46.47a55.62,55.62,0,0,1-7.47,12.35c-2.26,2.77-2.5,5.29-.49,8.52a100.52,100.52,0,0,1,11.27,23.85c8.28,27.54-1.94,59.64-30,73.4C444.07,656.39,430.45,658.8,412.94,659Zm12.28-148.95h-.06c0,1.5,0,3,0,4.49.15,14.91-1.7,12.26,12.79,12.55,6.48.13,12.09-2.48,15-8.05a21.7,21.7,0,0,0,.51-19.73,7.76,7.76,0,0,0-2.56-3c-7.37-5-15.31-4.3-23.35-2.09-1.92.53-2.43,2-2.39,3.84C425.27,502.07,425.22,506.06,425.22,510.05Zm1.4,101.41c6.25.06,11.92-1.44,15.68-6.78,6.09-8.69,6.16-18.24,3.27-28a6,6,0,0,0-3.62-3.92,47.43,47.43,0,0,0-14.48-3.35c-2.66-.17-3.94,1-4,3.73-.29,11.61-1.88,23.1-3.58,34.55-.47,3.15.71,3.79,3.26,3.8Z" transform="translate(-17.44 -22.02)"/><path d="M588.68,651.3c-2.49,0-3.83-.09-5.15,0-3.3.29-4.95-.79-5.81-4.39-3.17-13.26-7.59-26.2-10.2-39.61a3.09,3.09,0,0,0-3.5-2.77c-8.49.15-17,.33-25.46.48-2.64.05-3.22,1.89-3.61,4-2.46,13.21-6.1,26.18-7.89,39.53-.51,3.78-1.75,6.09-6.87,6.35-11.49.58-23,0-34.43.6-4.88.25-5.18-2.11-4.39-5.68,2.95-13.31,6.13-26.57,8.87-39.92,5.19-25.36,10.91-50.61,17.39-75.67,5.91-22.87,12.08-45.66,17.92-68.54,1.33-5.2,4-6.77,9.24-6.25,11,1.12,22.13,1.85,33.21,2.48,2.8.16,3.06,1.69,3.6,3.74,4.34,16.58,7.85,33.38,13.18,49.7,4.69,14.35,10.17,28.47,13.61,43.19,5.88,25.14,14.13,49.53,22.56,73.88,1.35,3.91,2.78,7.79,4.06,11.72.69,2.14,1.29,4.43-2.21,4.69Zm-39-89.34c5.9,0,6.44-.43,5.23-6.29-1.11-5.36-2.67-10.62-4.13-15.9-.28-1-.32-2.65-1.89-2.49s-1.39,1.67-1.59,2.76c-1,5.23-1.87,10.46-2.8,15.69C543.37,561.77,543.51,561.94,549.63,562Z" transform="translate(-17.44 -22.02)"/><path d="M401.78,105.26a280,280,0,0,0-2.32-41.88c-1.41-10.71-2.68-21.45-4.06-32.17-.34-2.6.18-3.95,3.26-4.16q16.68-1.14,33.31-2.82c2.54-.26,2.6.92,2.95,2.74,1.45,7.37,1.27,14.88,1.79,22.31,1,13.75,1,27.56,1.84,41.32,1.25,21.53,3.24,43,4.08,64.58.43,10.72,2,21.42,2.28,32.2.1,3.34-.69,4.38-4,4.32-9.8-.16-19.6-.23-29.36,1.21-3.71.56-6.19-1.85-7.66-5.19-5-11.42-9.89-22.91-15.14-34.22-3.72-8-9.18-15-14.46-22-.49-.65-1-1.49-2-1.08s-.64,1.35-.52,2.16c2.36,16.57,4.77,33.14,7,49.73.87,6.4,1.34,12.86,2,19.29.31,2.91-1.15,4.35-3.84,4.76-10.18,1.55-20.36,3.11-30.55,4.58-2.87.42-4.44-.53-4.93-3.9-3-20.41-5.91-40.82-9.42-61.13-2-11.73-2.51-23.71-6-35.24-1.07-3.53-.33-7.61-.34-11.44,0-7.67.3-15.34-.08-23-.6-11.93,2.08-23.45,3.59-35.13.44-3.35,2.12-5.59,5.27-6.57a72.48,72.48,0,0,1,9.14-2.34c7-1.21,11.87,1.52,15.63,7.77,13,21.65,27.93,42.12,40.68,64C400.2,104.26,400.71,104.46,401.78,105.26Z" transform="translate(-17.44 -22.02)"/><path d="M822,610c-5-.17-8-1.15-10.44-4.28C799.92,591,788,576.54,776.2,562c-2.58-3.19-3.82-3.11-5.39.54-.84,2-1.44,4.13-2.64,5.86-3.34,4.83-1.79,10-1,14.93,1.46,9.49,3.63,18.87,5.51,28.29.09.49.3.95.39,1.44,1.74,9.84.81,11.27-8.85,13.08-10.12,1.9-20.28,3.63-30.39,5.62-3,.61-4.42-.53-4.88-3.31q-2.32-14-4.6-28c-1.58-9.83-3.21-19.64-4.2-29.57-1.09-11.06-2.65-22.08-4.25-33.08-2.56-17.54-4-35.23-7.44-52.67-1.54-7.75-2-15.79-3.16-23.68-.41-2.93.45-4.06,3.65-4.3,10.75-.84,21.49-1.9,32.18-3.26,2.86-.37,4.1.11,4.41,2.88,1.69,15,5.17,29.76,7.88,44.61.19,1-.59,2.69,1.14,2.86,1.34.13,1.78-1.28,2.26-2.33,4.84-10.56,9.6-21.16,14.52-31.68,2.81-6,5.79-12,8.86-17.88,2.61-5,7.3-7.49,12.55-8.06,10.63-1.13,20.9-3.92,31.34-5.92,4.12-.79,4.78.36,3.36,4-4.95,12.54-11.43,24.36-17.15,36.54-4.87,10.38-9.61,20.83-14.52,31.2-1.5,3.17-.83,5.76,1.4,8.2,9.73,10.64,19.58,21.18,29.17,31.94,12.71,14.24,25.21,28.68,37.86,43,2,2.31,1.48,4.38-1,5.11C849.11,602.47,834.9,606.37,822,610Z" transform="translate(-17.44 -22.02)"/><path d="M695.3,331.53c-.82,14.3,1,28.65-1.16,42.92-2.48,16.7-10.08,30.19-25.76,37.29-20.49,9.28-48.93,5.26-63.77-12.55-6.4-7.68-9.24-16.74-10.67-26.45-2.82-19.11.25-38.2,0-57.29-.19-14.31.59-28.5,3.7-42.57,4.41-19.9,18.7-29.33,37.05-31.63,20.92-2.62,36.72,7.24,49.66,22.18,6.14,7.09,8.83,16.18,9.94,25.72C696,303.27,694.55,317.41,695.3,331.53Zm-67.15,6.9c0,9.31.05,16.14,0,23a39.79,39.79,0,0,0,2,11.77,8.87,8.87,0,0,0,5.9,6.35c10,2.89,20.82.08,21.73-13.68a392.88,392.88,0,0,0-1.88-71.68,41,41,0,0,0-1.84-8.73c-2.13-6.09-6.93-8.56-13.94-7.57-5,.71-8.92,5.06-9.3,10.82C629.65,306.08,627.12,323.41,628.15,338.43Z" transform="translate(-17.44 -22.02)"/><path d="M720.08,411.69H713.4c-11,0-10.84,0-11.59-10.94a853.53,853.53,0,0,1-1.42-85.83c.66-20.17-.48-40.27-.28-60.4.07-6.72.09-6.75,6.58-6.73,8.63,0,17.26-.19,25.88,1.05,3.21.46,3.39,2,3.11,4.34-1.51,12.53-.68,25.21-2.39,37.74-.37,2.76-1.46,7.24,1.54,8.16s3.34-3.75,4.76-6c7.8-12.19,15.37-24.53,23.15-36.72,3.78-5.92,6.18-6.29,13-5.5,7.58.87,15.28.68,22.92,1,1.41.06,3.27-1.27,4.14.32s-.77,3.1-1.59,4.46c-7.24,12.15-14.57,24.25-21.86,36.38-4.19,7-8.29,14-12.54,21-2,3.2-1.63,6.11,0,9.4,9.91,20.14,23.55,37.67,38.13,54.52,5.2,6,10.84,11.65,16.16,17.57,3.32,3.69,3.07,5.06-1.64,5.7-10,1.35-19.8,4-30,4.63-7.57.47-12.59-2.8-16.29-8.4-5.51-8.34-12.46-15.59-17.77-24-3.16-5.06-6-10.3-8.91-15.53-1.92-3.5-3.38-2.88-5.15.13-3.73,6.36-5.56,13-4.48,20.47,1.27,8.65,2.38,17.34,3.44,26,.4,3.31.32,5.89-4.43,6.5C730.16,411.75,724.53,411.4,720.08,411.69Z" transform="translate(-17.44 -22.02)"/><path d="M834.08,201.45c-4.49,0-9,0-13.48,0-4.94,0-7.53-2.75-9.06-7.1-4.59-13.09-7.73-26.47-8.33-40.37-.17-3.87-1.69-7.42-2.16-11.15-.72-5.7-4.73-4.37-8.19-4.6-4.23-.28-4.3,2.78-4.6,5.63q-1.89,17.82-3.72,35.66c-.55,5.28-1.18,10.57-1.46,15.87-.16,2.84-1.42,4-4,3.73-7.92-.93-15.79-2.37-23.8-2.51-2,0-2.71-1.22-2.63-3.33.64-15.78.25-31.67,2-47.33,2.13-19.49,3.13-39.07,5.44-58.54,1.5-12.67,2.18-25.43,3.4-38.14C764,43.83,765,38.42,765.71,33c.31-2.29,1.46-3,3.76-2.77,17.83,1.48,35.76,2.68,53.09,7.25C838.42,41.66,846.8,53.38,849.35,69c2,12.51,2,25.12-1.21,37.64-2.38,9.37-8,16.38-15,22.41a6.45,6.45,0,0,0-2.5,5.35C830,146.26,834,157,838.39,167.6c4.1,9.84,7.17,20,10.66,30.08,1.05,3-.13,4-3,3.94-4,0-8,0-12,0ZM803.3,103.89c2.7-.74,6.45.27,9.81-2C820,97.4,823.3,86.7,820.23,78.31c-2.05-5.59-12.17-10.69-19.32-9.86-2.34.27-2.95,1.61-3.23,3.65-1,7.41-2.1,14.8-3.16,22.19C793.21,103.47,793.21,103.47,803.3,103.89Z" transform="translate(-17.44 -22.02)"/><path d="M613.84,582.63c-1.48-18.73-1.47-37.51-2.49-56.24-.71-13.14-2.38-26.08,2.35-38.89,5.25-14.18,15.48-23.15,29.25-28a62.29,62.29,0,0,1,31.85-2.8c5.18.91,10.57.7,15.85,1.48,8.91,1.31,12,4.72,12.55,13.61.31,5.11,1.4,10.16,2.08,15.25.81,6.07.58,6.29-5.32,6.33-8.9.06-17.77-.78-26.69-.08-15.81,1.24-22.61,7.22-22.62,23.57,0,13.36,2.17,26.71,3.26,40.07.7,8.6,1.43,17.2,1.72,25.81.52,15.67,10.55,24,26.07,21.58,11-1.75,21.6-5.39,32.34-8.27,4.4-1.18,6.19-.19,6.81,4.15.85,5.92,1.94,11.8,2.94,17.7,1.72,10.08-.82,14.59-9.31,18-13.87,5.62-27.88,10.3-42.83,10.1-20.4-.26-43.48-8.63-53-32.57a54.09,54.09,0,0,1-3.17-12.5C614.61,594.9,614.35,588.74,613.84,582.63Z" transform="translate(-17.44 -22.02)"/><path d="M55.68,800.08c1.52-3,2.69-6.26,6.52-6.85a2.06,2.06,0,0,0,1.94-2.4c0-1-.06-2.06-1.25-2.45a2.66,2.66,0,0,0-2.75.77c-3.53,3.34-6.52,7.48-12,7.88-.3,0-.67.67-.82,1.1-1.66,4.68-3.78,3.74-6.19.58a2.12,2.12,0,0,0-3.74.1c-2.26,4.27-6.82,5.32-10.32,7.82-1,.69-2.09,1-2.16,2.39-.1,1.78-.83,2.72-2.77,2.72-2.24,0-3-1.94-4.22-3.13s.49-2.21,1.17-3.25A146.56,146.56,0,0,1,40.44,780,6.37,6.37,0,0,1,44.33,778c1.15-.13,2.14-1.09,1.28-2-2.7-2.89-.15-4.32,1.39-6.11,6.59-7.66,12.72-15.75,20-22.77,5.21-5,7.46-12.13,12.72-17.19,4.52-4.36,7.24-10.55,13.3-13.38,1.67-.78,1.06-3.07,1.37-3.17,4.21-1.35,3.49-5.62,5.28-8.16,6-8.57,12.32-17.06,20.85-23.57,2-1.51,2.94-4.33,5.7-5.19.3-.1.7-1,.56-1.22-3.78-5.45,2.45-7.21,4.32-9.94,3.29-4.79,6.85-9.6,12.12-13.07,1.8-1.19,6.68-3.74,5.17-8.74-.46-1.54,1.24-3.1,3.32-1.37a1.19,1.19,0,0,0,1.79-.09c.7-.9.17-1.38-.7-1.84-2.56-1.38-.8-2.75.22-3.86s2.31-2.28,3.68-.36c.59.83,1.44,2.15,2.21,1.33,5.32-5.67,9.51,1.6,14.41,1.26,1.37-.09,2.94.86,4.57,0,.85-.45,2.4-1.1,2.77-.75,4.87,4.62,10.74.19,16,1.88,2.82.92,5.43,1.32,5.53,5,0,.71.78,1.43,1.26,2.11.62.86,3.23.76,1.71,2.55-1.13,1.34-2.33-.2-3.31-1.06-1.53-1.33-3.35-1.34-4.39.19-1.44,2.15,1.08,1.59,1.93,2.25,1.92,1.51,2.3,3.09.06,4.82a13.92,13.92,0,0,0-3.47,3.55c-1.22,2-7.63,4.17,0,6.66,1.56.5,1,3.64-.93,5.05-.9.67-2.3.62-3,2.25,3.82,1.56,7.46,3.46,2.59,8-.88.81-.34,1.93.59,2.53,3.41,2.21,2.71,4.06-.34,5.92-1,.59-2.2,1.64-.9,2.74,1.46,1.22,2.5.1,2.82-1.4.45-2.13,2.06-1.83,3.51-1.85a2,2,0,0,1,2.25,1.56c.32,1.85-1.37,1.89-2.45,2.57a2.51,2.51,0,0,0-.54,4.21c1.25,1.17,2.47,0,3.1-1.27.44-.91.66-1.9,1.94-2,1,0,2.21-.41,2.76.53a1.72,1.72,0,0,1-1.12,2.42c-5.38,1.81-3.65,4-.35,6.16.83.56,1.88.84,1.7,2.12a2,2,0,0,1-1.6,1.71c-1.23.29-2.54.1-2.91-1.23-1-3.59-5.41-3.21-7.11-6.26-.52-.94-4.1-2.18-4.5,1.76-.2,1.93-2,2.5-3.73,2.64a2.29,2.29,0,0,1-2.84-2c-.81-3.24-2.85-2.08-3.49-.2-1.44,4.23-6.86,3-8.57,6.82-.37.82-2.36.26-2.94-.89-2.07-4.17-4.25-2.61-6.37-.17s-3.72,3.59-6.05-.07c-1.42-2.22-4-1.52-5.43.53-2,2.79-3.63,3.8-6,.48-1.24-1.69-2.8-1.1-4.36,0,1.15,2.21,6.46,2.47,3.17,5.87a29.91,29.91,0,0,1-5.94,4.92c-5.28,3-7.52,9.12-13.13,11.56-.82.36-.93,2.36-1.48,3.91,5.53.12,7.46-4.87,10.88-7.45,1.25-.93,2.06-2,3.7-1.65A1.43,1.43,0,0,1,140,727.1c.24,2-1.9,2-2.57,2.94-3,4.21-8.19,6.87-9.77,12.51,2.69.48,2.55-1.77,3.84-2.07s2.42-1.92,3.49-.34c.81,1.2.21,3.16-1.08,3.34-4.42.64-3.22,5.46-5.88,7.37-1,.68-.53,1.58.77,2.1,3.34,1.33,2.39,3.41.55,5.28-1.13,1.16-2.45,2.54-1.11,3.76,1.7,1.53,2.35-.69,3.22-1.71a8.92,8.92,0,0,1,1.38-1.43c1-.74,2.16-1.31,3,0,.69,1,.58,2.75-.61,3-3.49.78-3.85,4.33-6.06,6.2-1,.89-2,2.18-.46,3.3,1.22.88,2.2,0,2.67-1.26.82-2.13,2.6-3.2,4.19-1.71,1.79,1.68,0,2.83-1.68,3.48a1.27,1.27,0,0,0-.73.62c-1.81,5.65-3.84,8.48-7.52,1-.78-1.58-2.36-.47-3.32.51s-1.57,2.49-3,3.28-3.06,1.27-4.28.56c-1.83-1.07-2.27-6.43-5.62-1.87-1.74,2.37-5,2-6.47,5-1.28,2.61-5.56,2.41-7.26,5.38-.35.62-1.61.17-2.08-.64a1.9,1.9,0,0,1,.49-2.27c.75-.87,3.11-1.37,1.54-2.85s-2.31.78-3.29,1.71c-2.27,2.15-5.37,3-7.75,5.17-1.23,1.12-3.44,1.07-4.3,3.31a2,2,0,0,1-3.37.41,1.71,1.71,0,0,1,.77-2.85c1.46-.66,3.24-1.43,1.66-3.06-1.29-1.33-2.44.46-3.64,1.34C69.31,791.45,63.3,796.93,55.68,800.08Z" transform="translate(-17.44 -22.02)"/><path d="M289.38,574.88c0,13.66.06,27.32-.05,41,0,2.63,2.81,5.83.48,7.55-3.36,2.49-7.57,4.73-11.63,5.18-4.82.54-9.47,1.74-14.22,2.34-7.41.94-14.53,3.67-22.08,3.56-1.23,0-2.92.83-3.57-.81-.55-1.39,1.32-1.67,1.86-2.62,3.11-5.38,7.89-9.56,9.6-16.06,1.44-5.47,6.11-9.56,10.4-13.14a14.93,14.93,0,0,0,5.29-14.72c-2.67-15.8,1.58-29.25,12.06-41,3.47-3.9,5.86-8.46,8.09-13.13.53-1.11.78-3,2.47-2.58s1,2.26,1,3.49q.06,20.5,0,41Z" transform="translate(-17.44 -22.02)"/><path d="M113.54,833.5c1.38.06,2.89,0,3.22,1.24,1.15,4.37,2.94,3.13,4.87.69s5.7-1.63,7.82-3.94a1,1,0,0,1,1.61.41c.38.8.4,1.85-.42,2.21-3.3,1.48-5,4.74-7.74,6.79-1.89,1.41-4.06,1.64-5.9,0a6,6,0,0,0-4-1.61c-1.58-.09-3.1-.66-2.47-2.74C111,835,111.44,833.21,113.54,833.5Z" transform="translate(-17.44 -22.02)"/><path d="M250.88,702.3a2.26,2.26,0,0,1-1.36,2.07c-1.4.62-2-.48-2.91-1.22-3.26-2.75-6.53-5.49-9.9-8.1-1-.8-1.2-1.57-.57-2.46.91-1.26,2.54-1.6,3.46-.59a49,49,0,0,0,10.71,9.14C250.65,701.35,250.73,702,250.88,702.3Z" transform="translate(-17.44 -22.02)"/><path d="M139.89,766c-2-.2-2.11-1.21-1.73-2.48.91-3,4.21-3.54,6-5.72.56-.68,3.41.32,2.52,2.21C145.29,762.9,140.78,762.54,139.89,766Z" transform="translate(-17.44 -22.02)"/><path d="M248.53,695.14c-1.74-.43-3-1.37-3.1-3-.15-2.22,1.77-1.42,2.91-1.55a2.19,2.19,0,0,1,2.68,2.23C251.11,694.57,249.8,695,248.53,695.14Z" transform="translate(-17.44 -22.02)"/><path d="M160,809.07a22,22,0,0,1-2.44-.07,3.13,3.13,0,0,1-2.85-3.42c0-1.21,1.15-1.41,2.21-1.35,1.9.12,3.14.88,3,3-.05.65,0,1.31-.05,2Z" transform="translate(-17.44 -22.02)"/><path d="M234.56,698.29c0,1.55-1,2-2.27,2s-2.84.29-2.88-1.77c0-1.91,1.35-2,2.72-2S234.43,696.77,234.56,698.29Z" transform="translate(-17.44 -22.02)"/><path d="M251.26,827.8c-1.62-.26-2-1.65-2.23-2.86-.27-1.4.26-2.73,1.94-2.81s2.12,1.36,2.32,2.66C253.52,826.3,252.59,827.21,251.26,827.8Z" transform="translate(-17.44 -22.02)"/></g></g></svg>