<svg xmlns="http://www.w3.org/2000/svg" viewBox="0 0 755.26 853.17"><title>neverforget</title><g id="Layer_2" data-name="Layer 2"><g id="Layer_1-2" data-name="Layer 1"><path d="M391.62,450.59c1.38-1.22-1.27-3.5,1.49-3.73,1.11-.09,2.71-.17,3.3.47,1.38,1.51-.8,2.09-1.33,3.14-1.36,2.68,1.13,3.95,2.48,4.7,9.79,5.44,13.4,14.32,14.5,24.75,0,.25.4.46.92,1,1.68-1.95,2.46-4.49,4.42-6.18,1.63-1.4.24-2.93-.41-4.48-4.1-9.75-10.3-18.34-15.19-27.65-4.76-9.06-8-18.65-11.06-28.39-3.54-11.18-5.06-22.51-6.2-34.11-.51-5.18-2.27-10.51-1.39-15.62,1.87-10.8,2.49-21.86,8.28-31.9,2-3.53,5.2-7.21,5.2-11.9a2.12,2.12,0,0,1,.48-1.39c6.06-6.19,4.47-14.23,5.77-21.7,1.22-7,1.61-14.17,3-21.21,1.56-8.11,4.36-15.71,6.32-23.61,1.74-7,5-8.89,11.76-6.08,2.28.95,4.4,2.29,6.61,3.43.95.49,1.76,1.17,1.53,2.3-1.61,8-2,16.23-4.05,24.25-1.51,6-2.43,12.11-4.42,18.06-1.16,3.48-3.27,6.52-4,10.13-2.84,13.94-2.28,27.82-.34,41.85,1.69,12.24,5.82,23.59,10.89,34.64,6,13.16,16.25,23.19,26.14,33.46,7.53,7.81,14.1,16.5,17.7,26.87,3.45,9.93.86,19.4-4.16,28.15a249,249,0,0,1-17.52,26.87,70.3,70.3,0,0,0-8.3,14.58c6.13-4.17,12.14-8.52,18.4-12.48a64,64,0,0,1,18.42-7.71c8.77-2.24,12.46-10.75,9.88-19.82-3.3-11.6-7-23.08-10.28-34.72-2.52-9.05-4-17.93-3.49-27.17a42.89,42.89,0,0,1,3.4-14.73c3.48-8.12,7.1-16.28,9.45-24.75,1.37-5-.14-10.66.58-15.9,1.58-11.62-3.78-21.5-7.15-31.91-2.16-6.68-4.37-13.34-6.21-20.11-.57-2.1-.89-4.8,1.34-6.48s4.67-1.34,7.14-.5c6.29,2.15,10.33,6.75,13.57,12.27,4.17,7.1,9.41,13.47,13.95,20.3,5,7.51,10.68,14.5,14.66,22.8,3.32,6.92,7.53,13.48,9.86,20.83,3.27,10.26,7.17,20.28,9.17,31,1.15,6.19,2.23,12.3,2,18.48-.24,7.58.41,15.1-1.59,22.81-1.91,7.37-5.3,13.81-8.24,20.6a30.41,30.41,0,0,1-5.42,8.22c-4.54,5-7.58,10.79-11,16.38a20.54,20.54,0,0,0-3.11,9.2c-.5,9.71-.36,19.3,3.09,28.8,2.42,6.65-.16,14.73-7.38,19.35-10.49,6.72-22.38,9.7-33.59,14.48a133.7,133.7,0,0,0-25.12,13.68c-.59.42-1.08.84-1,1.54s.81,1,1.5,1c5.58.3,10.84,2.28,16.6,2.12,15.82-.44,31.66,0,47.49-.21a40.4,40.4,0,0,0,29.72-13.06,7.63,7.63,0,0,0,2.39-5.27c.2-7.8-1.52-15.27-3.15-22.87-3.07-14.32-10.57-27.78-8.75-43.09.94-7.95,4.83-13.95,11-19.11,7.79-6.51,17.53-10,24.64-18,3.35-3.76,7.36-6.77,9.6-11.63a18,18,0,0,0,1.62-7.14c.25-6.24,3.4-12.38,1.74-18.59-2.94-11-.11-22.28-2.09-33.06-2-10.6-2.33-21.42-5.14-31.95-1.51-5.68-1.6-12-2-18a45.26,45.26,0,0,0-4.3-16.53c-1.8-3.79-2.49-7.93-5.31-11.46-3-3.8-.64-8.58.56-12.64.83-2.81,6.43-2.64,9.2-.22a19.25,19.25,0,0,1,6.59,14.91c0,7,2.94,13.1,5.06,19.34,2.37,7,5.16,13.73,7.17,20.87a96.91,96.91,0,0,0,4.87,12.32c4.05,9.18,6.33,19,10.18,28.25,3.56,8.58,6.4,17.5,9.09,26.41,1.75,5.78,4.24,11.31,5.09,17.47a42.46,42.46,0,0,0,4,13c2.38,4.7,2.2,9.71,3,14.38,1,5.74,3.78,11.29,2.77,17.45-.39,2.37,1.77,4.52,1.66,7.18a42.69,42.69,0,0,1-7.08,22.07c-.93,1.44-2.6,2.35-.82,4.65,1.66,2.14-1.14,3.54-2.26,4.86-1.75,2.06-2.12,3.39-1.3,6.38,1.28,4.64-1.37,9.13-4.16,13.19-.07-4.09-1.35-7.63-2.56-11.29a5.84,5.84,0,0,1,3-6.93c2-1,2.73-2.46,1.48-3.76-1.5-1.56-1.78,1-2.72,1.56-2.84,1.69-5.78,3.23-8.65,4.86-7.47,4.23-15,8.27-19,16.61-1.11,2.34-1.49,4.79-.5,6.69,2.35,4.49,3.6,9.65,7.87,13.08,5,4,7.08,10.32,11.85,14.61,5.56,5,7.3,5,11.18-1.57.55-.93.5-2.79,2-2.25,2.07.74.3,2.18.09,3.3-.4,2.16-2.13,3.2-3.64,4.53-2.36,2.07-4.25,4.41-1.89,7.85a14.71,14.71,0,0,1,1.44,4.22c.38,1.34-.39,3.64,1.59,3.68,2.73.06.2-2.88,1.6-3.86,4.36,2.91,4.41,3.68.57,6.69-2.39,1.86-2.43,5-3.21,7.47-2,6.31-6.9,9.36-12,12.29-10.46,6.08-21.77,8.6-34,8.48-34.33-.32-68.67.18-103-.58a103.55,103.55,0,0,1-20.65-3.07c-5.3-1.24-11.31-4.13-17.24-1.24-1.21.59-2.22-.22-3.32-.5a2.4,2.4,0,0,0-3.12,1.78c-.41,2.15,1.47,1.6,2.69,1.79,7.75,1.22,15.67,1.49,23.34,2.6,12.05,1.73,24.33,1.75,36.08,4.1,6.88,1.37,14.24-.29,20.69,3.25a4,4,0,0,0,2,.35c16.54-.23,32.93,4,49.5,2,5.8-.69,10.86,2.65,16.59,1.79,2.94-.44,5.54-1.83,8.69-1.79,11.82.16,19.6,6.4,25.21,16,3.63,6.23,3.34,13.25-2.68,18.31-4.95,4.16-8.75,9.67-13.66,13.87-7.6,6.5-15.22,13-23.34,18.91-5.93,4.32-11.46,9.27-17.46,13.55-4.8,3.43-9.59,6.86-14.5,10.13a14.8,14.8,0,0,1-8.52,2.17c-42.32,0-84.64.09-127,.09q-103.73,0-207.46-.14c-1.23,0-3.54,1.13-3.41-1.31.09-1.73.57-4.37,3.35-4.11s5.78-2.39,8.27,1.6c.94,1.51,4.58,1,6.67.22,3.17-1.26,5.92-3.54,9.74-2,.88.37,2-1.48.9-1.83-2-.66-3.65-3.73-5.61-2.44-4.41,2.89-8.73-.1-13.05.54-2.17.32-4.49-.43-7.47-.79,3.37-3.62,9.53.75,11.27-5.18-2.55-.19-4.77,1.39-7.22.86-1.71-.37-3.65-.66-3.32-2.8.27-1.81,1.87-2.27,3.85-2.09,7.83.71,15.4-1.26,23-2.67a2.06,2.06,0,0,0,1.78-2.57c-.27-1.6-1.55-1.34-2.74-1.37-7-.17-13.95-.47-20.94-.59-3-.05-4.65-1.28-6-4.16-4.85-10.58-7-22.07-11.57-32.74-3.16-7.4-7-14.9-5.74-23.15,1.21-7.91,3.35-16.13,11.73-19.7,6.73-2.86,14-4.16,21.35-4.81,2.14-.19,3.38-.41,4.3-2.95,1.34-3.72,5.47-4.34,8.87-5.5,4.34-1.48,5.84-3.78,3.24-7.45-5.75-8.09-3.57-16.18-.36-23.89,3.14-7.52.18-13.12-4-18.5-2.93-3.8-6.76-6.91-5-13a18.71,18.71,0,0,0-7.34,4.31,5.7,5.7,0,0,1-7.39.35c-2.15-1.46-2.66-3.71-1.41-6.19.29-.57.78-1.45.55-1.83-2.26-3.8.18-5.92,2.82-7.8,2.94-2.1,4.61,1.37,7,1.93a6.19,6.19,0,0,1,3.45,1.82c4.53,6.36,6.22,1.85,8.7-1.87s6.55-6.55,8.75-10.82c1.46-2.85,1.26-3.68-2-4.79-6.61-2.25-13.62-4.14-18.7-9.42-2.6-2.7-6-5.44-3.51-10.1a1.65,1.65,0,0,0-.22-1.41c-4-5.88-3.66-9.16-2.36-16,1.58-8.33,5.12-16.14,4.91-25.07-.16-6.81,2.65-13.69,4.16-20.53,1.93-8.78,5.7-17,7.19-26,.75-4.53,3.08-8.79,4.22-13.38q3.41-13.78,7.62-27.36c2.25-7.25,4.06-14.43,4-22.13-.06-5.19,3.1-7.53,8.09-6.8a29.85,29.85,0,0,1,8.42,2.44c4.21,2,5.77,7,4.15,11.78-2.28,6.81-5.81,13.44-6.66,20.41-1,8.36-3.61,16.3-4.78,24.57-.78,5.45-2.62,10.75-3.38,16.21-1,7.21-1.4,14.51.29,21.71,3.56,15.21,15.39,22.44,28.11,28.6,11.8,5.71,23.58,11.42,34.52,18.73,6.31,4.22,8.2,11.57,4,19.45-2.7,5.07-5.56,10.14-9.75,14.28-3.32,3.27-5.4,7.43-7.3,11.6-2.07,4.55.72,9.31,5.64,9.15,11.45-.36,22.53,2.31,33.56,4.42,7.13,1.37,13.7,5.5,20.61,8.18,8.75,3.38,12,2.16,14.37-4.55,1.07-3,1.56-4.76-1.83-6.91-3.55-2.26-6.07-6.09-9.26-9-3.77-3.43-7-7.33-11.49-10.12-5.61-3.48-7.62-14.26-4.95-20.41a44.67,44.67,0,0,1,10-14.6,24,24,0,0,0,6.79-14c.89-6.2-3.55-10-6.66-14.26-4.69-6.38-11.88-9.95-18.3-14.16-4.49-2.94-7.38-7.6-12.38-9.86-5.77-2.61-9.89-7.65-14.39-11.8-3.64-3.35-6.59-8-8.89-12.93A61,61,0,0,1,297,383.86c.28-9.42-.49-18.94,2.1-28.13,1-3.61,3-7,4.64-10.37,3.13-6.35,4.84-13.16,6.86-19.88,2-6.52,5.92-12.05,9.48-17.76.6-1,1.45-1.8,2-2.79,2.68-4.88,5.12-5.81,9.59-3.57,4.12,2.07,5.44,5.81,3.2,10.28-2.59,5.15-5.6,10.09-8.27,15.2-4.08,7.8-7.36,16-6.55,24.92.62,6.9,2.58,13.4,7.72,18.74,9.32,9.67,19.2,18.58,31.43,24.31,5.05,2.37,10.18,4.55,15.2,7,5.2,2.55,8,7.07,10,11.84,1.51,3.5-2.85,6.39-2.8,10.17,0,1.33-1.16,2.71-1.9,4-4.92,8.63-5.72,12,6.1,19.49C387.62,448.46,389.54,449.43,391.62,450.59ZM269.86,617.48v.06a25.53,25.53,0,0,0,3.5,0c8.38-1.18,17.65,3.23,25.08-4a1.39,1.39,0,0,1,1-.16c6.8.49,12.31-3.1,18.22-5.57,3.84-1.6,3.6-4.06,1.91-6.72a13,13,0,0,0-4.64-4.42,47.93,47.93,0,0,0-21-5.86c-12.51-.59-25.07-.3-37.47-2.4-4.45-.76-9.37-1.25-12.9-3.92-6.74-5.1-6.48-5.46-8.31,2.72a24.17,24.17,0,0,0-.36,3c-.4,4,1.08,5.79,5.19,4.43,4.39-1.46,4.67,2,3.45,3.94-3.44,5.36-4.46,9.8,0,15.41,1.56,2,2.34,3.53,4.88,3.54ZM307.1,727c7,0,14,.06,21-.05,1.19,0,3.53.9,3.16-1.71-.25-1.75-1.72-2.25-3.48-1.54-3.57,1.45-6.71,1.23-9.34-2.08-1-1.27-2.55-1.38-3.89,0-3.68,3.94-4.17,4-5.63-.83-.87-2.85-2.79-.65-4.05-1.35-.59-.33-2.12-.81-1.76.4,1.51,5.15-2.61,2.73-4,2.8-4.86.27-10-1.53-14.31-1.33-4.5.21-9.08-.43-13.42-.54-10.79-.27-21.58,0-32.36-.3-1,0-2.28.17-2.3,1.37s1.33,1.2,2.29,1.24c6.72.24,13.36.93,20.06,1.74,10.57,1.29,21.41.72,32.12,2C296.38,727.52,301.77,727,307.1,727Zm-77-179.16c.66,2,1.13,4.8,3.35,6.33,1.63,1.14,3.32-.53,4-2,3.22-6.74,8.8-11.68,13.12-17.58,1.46-2,1.91-3.85,1-6-1.06-2.6-3.69-3.16-5.91-4.21-.71-.34-1.57,0-1.56.68.12,7.52-6.92,10.08-10.36,15.11C232.26,542.34,230.59,544.46,230.07,547.81Zm43.09,161.12v0h8.49c3.49,0,7,0,10.48-.06,1.14,0,2.43,0,2.78-1.49a2.1,2.1,0,0,0-.42-2.31c-1.1-.87-1.73.54-2.59.66-2,.25-3.94.27-5.91.43-12.91,1-25.57-2.29-38.44-2.25a14.18,14.18,0,0,0-7.41,2.15c-.89.52-2,.89-1.28,2.1a1.75,1.75,0,0,0,2.65.31c1.4-1.08,3-.59,4.33-.85,4.54-.82,8.45,1.77,12.85,1.38C263.48,708.6,268.34,708.93,273.16,708.93Zm-24.78,9.77c3.65-3.1,7.56.35,11.34-.53C255.63,712.3,251.26,712.43,248.38,718.7Zm102.81-4.93c-3.87-2.12-8-1-12-1.19-.31,0-.85.55-1,.94a1.06,1.06,0,0,0,1.05,1.34C343.3,715,347.35,715.66,351.19,713.77Zm56.75,12.94c3.55-1,6.23-2,8.83,0a1.73,1.73,0,0,0,2.28-.26c.54-.59.25-1.14-.26-1.69C416,721.73,411,722.27,407.94,726.71ZM233.43,716.9c1.5-.35,4.22.69,4.09-1.36-.14-2.31-2.92-1.25-4.54-1.27-1.44,0-4.15-.93-4,1.2C229.06,717.85,231.87,716.45,233.43,716.9ZM216.7,701.1c1.26-.15,3.28.11,3.25-1.4,0-2.45-2.39-1.51-3.83-1.59-1.2-.07-3.21-.39-3.06,1.38S215.23,701.05,216.7,701.1Zm-8.33-15.47c-1.18-2.24.22-5.33-2.22-7-.78-.52-1.23.74-1.41,1.53C204.08,683,205.4,684.78,208.37,685.63Zm232.12,36.9c-1.49.62-4.21-1-4.47,1.49-.2,1.93,2.28,1.34,3.59,1.27,1.67-.09,4.46,1,4.75-1.11C444.7,721.76,441.93,723,440.49,722.53Z" transform="translate(-36.98 -3.99)"/><path d="M722.89,592.24c5.3-3,6.82,1.82,9.55,2.28s3.74-5.85,8.15-3.41c1.82,1,4.42.78,4.72-1a11.91,11.91,0,0,0-1.49-8.47c-1-1.57-2.94-.68-4.52.16-1.22.65-2.7,2.4-4,1-1.59-1.73,1.14-2.27,1.65-3.48,1.06-2.51,4.48-4.38,2.11-7.87-.18-.25.34-1.36.79-1.58,3.1-1.59,4.16-4.68,2.32-6.91-2.7-3.27-5.71-7.13-10.89-6.63-2.69.26-4,1.64-2.5,4.44.39.75.78,1.72-.09,2.25-1.25.75-1.61-.48-2.18-1.27-1.36-1.89-2.81-3.51-5-.8-1.78,2.23-3.63.55-5.37-.09-1.17-.44-2-1.4-1.31-2.78.88-1.9,2.32-1.71,4.18-1.41,2.9.47,3.43-4.24,7.08-3.15-4-3.68-7.67-6.92-9.16-11.84-.86-2.87-4.47-3.65-4.87-7.29-.22-1.94-7.49-.54-8.34,2.32s-2.08,6.62,1.37,9.13c1.91,1.38,1.44,3.34,1.21,5-.37,2.75-2.2.69-3.43.72-3.16.08-4.34,2.28-3.48,4.74a25.33,25.33,0,0,1,.95,13c-.38,2.32-.22,6.22,4.42,5.3.91-.18,1.76-.12,1.83,1,.06.92-.67,1.47-1.48,1.79-4,1.61-4.92-2.16-7.72-5.18.72,6.62-4.77,10.46-3.59,16.28.28,1.39-.57,2.49-1.6,3.48-1.89,1.81-3.23,3.7-1.27,6.46a3.59,3.59,0,0,1,.11,3.32c-3.62,4.61-.24,8.93.51,13.25.39,2.24,1.31,4.32.6,7.23-1.43-2-3.86-2-3.58-5.14s-3.48-3.46-5.51-4a10.31,10.31,0,0,0-10.46,2.89c-3.64,4-4.32,4.19-7.77.19-.61-.71-1.28-1.36-2.1-2.22,4.87-1.3,10.19-2,12-6.81,1.16-3.2,1-6.1,5.58-4.71.61.19,1.14-.58,1.2-1.31.45-4.75-3.83-7.71-8.48-5.85s-9.42,3.69-14.69,3.26c-1.74-.14-2.57.21-2.07-2.34.84-4.36-3.35-3.26-5.51-3.83-6-1.6-7.95-.09-8.51,6-.08.83.18,1.82-.2,2.46-1.27,2.18-1.79,6.6-4,6-2.68-.71-.12-4,.47-6,1.35-4.38.37-7.18-4-8.69-.9-.31-2.12-.65-2.11-1.84,0-1.69,1.5-1.26,2.57-1.56,2.44-.68,2.58-1.13,3.59-7.83,1.94,1.22,5.3.52,4.19,4.59-.18.68.65.87,1.41.93,5.14.45,10.27-.34,15.42-.27,4.17.05,1.49-5.17,2.07-7.9.32-1.51-1.19-2.59,1.77-2.53,1.45,0,4-.84,4.67-3.11.54-1.74-1.2-5.28,3.3-3.84.59.18.56-1.69.55-2.65a2.37,2.37,0,0,0-2.55-2.5c-3.45-.12-5.37,1.77-5.51,5.08-.2,4.47-3,4-5.89,3.37a18,18,0,0,1-2.22-1.07c-1.59-.58-4.18.28-4.4-2.27-.2-2.36,3-1.64,3.92-3.26-.39-1.41-3.5-1.43-2-3.73,1.16-1.84,2.75.32,3.09.13,2-1.19,4.53-2.49,3.89-5.48-.69-3.19.24-6.67-2.17-9.08,1.46-1.94,3.15,1.22,4.13-1.08.77-1.79.15-2.79-1.56-3.37,3.66-5.24-1.18-9.07-2.85-13.64-1.26-.06-1.44,1.47-1.73,2.61-1.23,4.78-4.32,8.49-6.95,12.48-.69,1.06-1.56,1.84-2.87,1.41-1.58-.51-1-1.86-.9-3,.22-2.36.68-4.61,2.45-6.39,1-1,1.76-2.16.74-3.53a2.71,2.71,0,0,0-3.59-.86c-2.26,1.41-4.15.12-6.13-.44-2.45-.7-4-2.89-3-4.89s3.52-3.71,5.84-2.23c2.77,1.77,5.17.47,6.09-1.2,3.44-6.24,6.42-1.54,9.57,0a7.85,7.85,0,0,1,1.32,1.12c.77-2-2.16-7.71,3.94-4.07,1.33.79,1.8-1.26,1.33-1.69-1.44-1.31-.8-5-4.59-3.84-1.57.49-2.81-.58-2.06-2.68,1.16-3.2-.86-4.25-3.44-4.42-1.71-.12-3-.57-3.43-2.24-.61-2.13,1.08-3.11,2.49-3.81a14.59,14.59,0,0,1,10.77-1.44,54.06,54.06,0,0,0,23.59.43c.58-.12,1.39-.46,1.59-.92,1.31-3,2.57-2.91,4.62-.48a4.31,4.31,0,0,0,4.51,1.39c.33-1.74-3.67-2.75-1.11-4.38,2.23-1.41,3.07,1.76,4.7,2.58.1.05.11.3.16.46.56,1.88.79,4.27,3.51,4,2.54-.25,1.5-3,2.65-5,2.84,4.91,7.5-.1,10.67,2.84,1.18-1.73-2.17-2-.76-3.35,1.13-1.09,2,.16,3.06.66,1.71.85,3.59,3.56,5,2.14,1.28-1.27.45-4-.75-6.25-1.5-2.82-3.48-5.7-3.13-9.29a4.36,4.36,0,0,0-.93-2.8c-8.34-10.82-5.72-24-7.82-36.21-.7-4.05-3.58-7.5-2.83-11.91.16-.93-1.85-1.61-2.12-.56-.75,2.92-2.67,2.58-4.89,2.85-2.63.31-3,2.8-3,5a31.93,31.93,0,0,0,.74,6.91c1.92,7.68-.64,15.15-.84,22.72a19.6,19.6,0,0,0,4.11,12.93c3.81,5,3.3,6.8-2.83,10.39a22.87,22.87,0,0,0-.59-11.88c-1.71-1.27-2.86,2.9-4.53.75-1.22-1.58.29-3.14.69-4.7a9.66,9.66,0,0,0,.42-2.95c-.61-8.53,2.62-17,.5-25.56-.08-.31,0-.67-.08-1-.69-2.82-.47-6.38-3.92-7.41-2.59-.77-5.92,3.52-6.36,7.74a253.11,253.11,0,0,0-1.57,25.85c0,5-.27,10.49-4.25,14.89-2.14,2.37-4.37,4.89-5.31,8.17-2.13-1-.35-2.81-1.55-3.68-.65-.47-1.24-1.21-2-1.36-1-.2-1.28.77-1.57,1.57-.46,1.29.4,3.38-1.73,3.65-1.43.19-1.66-1.29-2.1-2.38-.82-2.05-.26-3.76,1.55-4.71,5.09-2.68,7.31-7.45,9.67-12.25,1.42-2.89,2.8-5.92,2.92-9,.77-19.8,7.7-39,5.33-59.11a13.77,13.77,0,0,1,.71-5.89,29.22,29.22,0,0,0,.49-17.5c-2-8-1.93-16.41-.73-24.79,1.84.5,1.3,1.95,1.31,2.89.09,9.4,2.31,18.57,2.51,28,.19,8.72-.79,17.26-1.17,25.89-.09,1.93.74,3.89.89,5.85.27,3.49.3,6.92-1.52,10.18a2.91,2.91,0,0,0,.78,4c1.73,1.05,2.72-.44,3.68-1.58a25.89,25.89,0,0,0,3.05-3.93c1.72-3.18,4.07-5.06,7.83-5.3,3.33-.21,5.92-1.9,5.92-5.54,0-6.28,4-9,9-11,1.35-.53,3.55-.63,3-2.54-.68-2.53-2.41,1.12-3.9-.51.88-1.37,5.09-2.95-.12-4.77-2.06-.71-.88-4.25.18-6.34,2.66-5.3,1.52-10.67.3-16-1.18-5.09-.43-10.21-.75-15.31-.29-4.7,4-9.19.58-14,3.09-3.23-.85-7.21,1.1-10.54,1.28-2.19-1.43-3.32-1.2-5.53.36-3.36-3.09-6.35-1.7-10.19.15-.4-1.39-2.07-1.93-2-4.13.78-8-1.11-12-.78-1.28.11-2.73,1.55-4.5,1.41-3.09-.24-5.36.65-6.52,3.95-.45,1.29-1.59,3.73-3.51,2.47-1.55-1-1.54-3.21.32-4.66,2.34-1.82,1.64-2.79-.93-2.51-2.17.24-2.67-.64-2.67-2.44a2,2,0,0,1,2.61-2.18c4,.82,7.81-1.25,11.78-.77a2.44,2.44,0,0,0,2.59-1.1c.62-1,.16-1.89-.57-2.67s-2.59-1-1.75-2.5,2.35-.37,3.58-.16c1.5.24,3.53.42,2.93,2.45-1.5,5,1.67,2.53,3.12,1.92,1.14-.48,1.82-2,3.38-.75,1.11.89,2.47,1.54,3.24-.29.66-1.58-.69-2.62-1.77-3.21-3.87-2.12-5.7-4.24-.93-7.45a2.27,2.27,0,0,0,.39-3.19c-1-1.31-2.16-.45-3.05.22-2,1.47-4.95,4.18-6.17,1.51-1.41-3.1,2.51-5.45,5.17-6.85,3.61-1.9,4.9-4.95,2.62-8.07-.48-.64-1.43-.95-1.62-.51-1.46,3.6-6.39.94-7.59,5.25-.34-1.12-.4-1.43-.53-1.72-2-4.79-1.37-7.94,4.72-7.84a1.94,1.94,0,0,0,.91-.4c1.44-.87,4.82-16.44,3.86-17.77s-3.47-.25-4.18-2.38c.06-1.51,1.25-1,2.17-1.1,1.08-.06,2.12-.39,1.86-1.7s-1.39-1.36-2.4-1.09c-4.27,1.15-5.16-1.44-4.73-4.66,1-7.7-2.48-15-1.62-22.68.13-1.2-.71-3.12,1.06-3.36,1.62-.22,1.9,1.61,2,2.91.3,4.2,4.69,4.23,6.79,6.62.66.76,1.63-.63,1.25-1.75-.45-1.37-1.09-2.68-1.86-4.53,2.13.17,3.06,1.45,3.94,2.4,5.47,5.94,13.89,7.19,20.74,1.32,3.34-2.86,7.33-5,12.27-3.27a6.4,6.4,0,0,1,3.75,3c.63,1.08,1.54,2,2.81,1.53,1.66-.62.64-1.9.41-3-.36-1.62-.73-3.23-1-4.87-.81-5.39-3.66-6.83-9-5.7a27,27,0,0,0-14.4,7.84c-.67.7-1.28,1.83-2.4,1s0-1.83,0-2.66c-.67-7.45,7-5.67,10-9,.76-.85,2.26-1.21,3-2.37.64-1,1.62-1.86.9-3.13s-1.94-1-3.09-.64-2.26,1.56-2.85-.27c-.36-1.11.89-2,1.73-2.06,8-.57,4.75-6.51,3.73-9.67-1.16-3.55-2.21-8.21-7.2-9.41-1.56-.37-1.77-2.08-1.08-3.34,1.91-3.42-.17-6.49-.66-9.69-.11-.72-.79-1.92-1.25-1.94-4.16-.2-6.61-1-5.3-6.36.45-1.85-2.46-1.75-4.13-.25-2.54,2.26-3.55,5.79-7.18,7.29-4.78,2-9,5.5-14.72,4.12a2,2,0,0,0-2.54,1c-.5,1.16.49,1.75,1.08,2.54a18.74,18.74,0,0,1,2.07,3.36c.46,1-.12,2.64-1,2-5.53-3.64-5.43,3.63-8.7,4.37-.94.21-1.55,1.88-2.34,2.92a1.94,1.94,0,0,1-.23-2.49c.68-1.38.61-2.77-.85-3.39-1.21-.51-2.08.51-2.86,1.48a26.08,26.08,0,0,1-8.94,7.07c-4,2-5.09,6.42-7.82,9.49-1.16,1.29.58,2.25,1.52,3.15,1.51,1.43,2,3.42.65,4.87-1.53,1.63-2.79-.21-4.2-1.07-4.36-2.67-4.15-4.91-1-9,3.33-4.29,5.94-9.23,10.68-12.09,3.51-2.12,7.71-3.07,10.6-6.27,1.19-1.32,3.66-2.75,2.51-4.35-1.35-1.87-1.53-5.36-5.27-5.14a4.65,4.65,0,0,1-4.87-2.73,10.23,10.23,0,0,1,11.79,5.35c.62,1.37,1,3.05,3,2.56s1.76-2.09,1.66-3.64a14,14,0,0,1,.14-3c.13-.94.44-1.86,1-4.29,1.23,4.95,4.07,5,6.83,4.43,3.68-.8,7.13-2.4,10.9-3.11,2.9-.55,3.85-6.78,1.8-9.16-1.57-1.83-2.12-.21-2.9.83s-1.35,2.23-2.63,2c-1.63-.34-.89-1.87-1-2.94s.17-2.17-.93-2.64c-1.43-.6-2,.75-2.77,1.56-3.62,3.8-3.62,3.81-9.23,1.6,4.17.71,5.76-1.42,7.62-2.73,2.16-1.51,1.26-3.64-.37-5.08s-2.56-.76-3.93,1c-3.17,4-4.62-1.22-6.92-1.92-1.81-.55-3.13-2.66-1-4.78,2.55-2.52,6.12-4.76,2.67-9.06,2.95-1.69.6-6.79,5.11-7.65,2.85-.54,2.25-3,.83-4.1-2.18-1.64-3.4-4.14-6.8-4.93s-5.19-4.76-5.63-8.88c2.7,4.06,5.72,5.4,10.08,2.72,3.15-1.93,5.84-.5,8.12,2.06,1.07,1.2,2.2,3.06,4.07,2.17,2.21-1,1-2.72.11-4.17-.67-1.13.15-1.44,1-1.58a3.8,3.8,0,0,0,3.36-3.87c1.1-.11,1.42.29,1.38.81-.14,1.8-.77,4.14,1.49,4.68,2.9.7,3.4-2.6,3.34-3.94-.15-3.32,1.17-7.78-4-9-1.93-.44-2.36-1.54-.66-2.55s2.68-1.79,2.72-3.73c.07-2.56,5.16-.2,4.2-4.4-.31-1.39,1.42-1.66,6.36-.21-.56,2.14-4.17-.12-3.95,2.49.17,2,2.63,2.24,4,3.26,1.23.9,3,1.41,2.12,3.28s-2.33.4-3.52.16-2.23-.69-3.37-.9c-2.07-.39-2.28.74-1.74,2.34a4.26,4.26,0,0,0,.56.82c5.66,9,5.33,10.64-4,15.87-2.79,1.58-6.52,3.27-7,5.87-.83,4.66-2.6,9.36-1.79,14.27.23,1.38.82,3,2.33,2.79,3-.4,4.27,2.05,6.36,3.12,2.61,1.32,2,2-.25,3.08-4.27,2-4.36,4.52-.44,7.33a27.39,27.39,0,0,0,3.63,2.63c12.65,6.17,16.92,18.1,21.41,30.14,1.8,4.8,1.65,10.3,6,14.44a17.47,17.47,0,0,1,4.89,10.21c.57,4.73,4,8.26,5.28,12.71a21.36,21.36,0,0,1,0,12.64c-1.32,4.52.29,9.62-2.44,14-.67,1.08-.85,2.38-2,3.26-2.91,2.16-3.82,5.26-3.77,8.77.07,4-.14,8,.07,12,.74,13.93-2.79,26.94-8.34,39.52a17,17,0,0,0-1.45,5.73c-1.11,14.34,1.95,28.5,1.73,42.8,0,2.81,2.11,5.07,2.09,8.11-.18,20.16-.12,40.33-.14,60.5,0,1.66-.16,2.82-2.52,2.52-3.13-.4-6.41-.62-9.41-.74-3.5-.13-7.15,1.77-11.15.86-1.28-.29-2.23,2.08-1.42,3.57,1.1,2,2.88,4.61,5.4,3.08,4.43-2.7,4.92-.32,5.43,3.17.75,5.15,4.78,7.32,9,9.12,2.18.94,5.22.56,3.63,4.71-1.4,3.65-3.31,5.12-7.08,3.76-1.67-.6-3.61-3.19-5-.28s1.53,3.92,3.34,5.26c.4.29.87.76,1.28.74,8.13-.53,6.41,5.29,6.46,10a9.87,9.87,0,0,1,0,3c-1,3.2,3,8.49-4,9.26-3.63.4-6.78,4.19-11.73.43,2.3,6.4-1.15,8.42-5.22,9.68a4.41,4.41,0,0,0-2.76,2.51c-.7,1.26-1.8,2.21-3.27,1.37-4.24-2.4-5.11,1.12-5.68,3.63s-1.25,4.38-3.18,5.93c-2.89,2.33-1.49,4.79.09,7a3.83,3.83,0,0,0,3.92,1.66c1.52-.44,1.21-2.21,1.11-3.5-.52-6.23,3.67-9,8.31-11.37,2.31-1.19,5.17-1.73,5.42-5.11a2.49,2.49,0,0,1,.59-1.36c1.77-2,11.77-1,13.43,1.13,7.37,9.57,10.61,20.35,11.47,32.42a39.48,39.48,0,0,1-1.78,16.07,3.71,3.71,0,0,0,.64,3.29c4.23,6.91,3.86,14.6,3.79,22.24a3.73,3.73,0,0,1-1.43,3.05c-2.24,1.77-1.45,4.38-2.09,6.52-2,6.74-.15,14.1-6.46,20.48-4.85,4.92-9.09,5.45-14.85,6.06-4.7.5-9.93-1.92-14.17,1.94-1.92-2.19-4.11-3.44-3.71,1,.29,3.27,2.29,5.8,6.59,4.4,5.78-1.89,11.4,1.5,17.22.87,1.89-.2,2.45,1.7,1,2.54-3.35,1.88-6,6.29-10.86,3.84a1.46,1.46,0,0,0-1.82.24c-.62.64-.31,1.23.31,1.64,5.83,3.85,1.43,9,2,13.58-2.33-2.42-1.17-5.43-1.59-8.16-.19-1.26.2-3-1.73-3-2.11,0-2.43,2-2.11,3.29,3.28,12.85-1.49,25.92,1.12,38.79.3,1.49-.73,3.21-.73,4.82,0,1.3-.48,3.43,1.87,3.3,1.83-.1,1.61-1.8,1.61-3.11,0-7.67,0-15.33.06-23,0-1.92-.57-4,.82-5.79,2.27.58,1.42,2.39,1.42,3.68,0,10,0,20-.12,30,0,3-.38,5.9,2.32,8.29,1.85,1.63,0,3.29-1.35,2.73-5-2.08-9.92,2.63-14.81-.25-1-.57-1.88.31-2.07,1.48s0,2.58-1.63,2.59c-1.39,0-1.9-1.22-2.24-2.35-.43-1.4-.46-3.4-2.71-2.36-2.48,1.14-5.8,1.34-7,4.12-.68,1.6,1.36,1.8,2.69,2,1.14.16,2.52.24,2.63,1.76s-1.48,1.27-2.21,1.86a11.49,11.49,0,0,0-4.11,11.14c1.19,5.25-.71,5.72-4.78,5.36-1.64-.14-3.31-.06-5-.06-1.05,0-2.18,0-1.84-1.51.3-1.3,1.1-1.5,2.16-.58,2,1.76,2.5,0,2.09-1.27-1.39-4.28,1.73-7.46,2.15-12.15,3.8,4.73-3.3,9.47,1.63,13.41.88-3.3,2.26-6.47,2.37-9.68.07-1.81,2.52-5.36-2.65-5.89-4.86-.51-5.8,1.66-5.9,5.5,0,.64-.08,1.28-.14,2.17-1.92-.84-1-2.37-1.28-3.45-.45-1.72,0-3.27-3.26-2.6-1.75.36-5.82-.44-6.93-4-1.06-3.34-4-4.14-6.83-3.64-2.68.47-5.17,2.25-7.86,0-.2-.18-1.24.34-1.64.77a1.23,1.23,0,0,0,.29,1.77c5.42,4.56,4.13,8.92-.69,13.48,0-3.09,0-5.92,0-8.74,0-.83-.37-1.69-1.51-1.47a1.19,1.19,0,0,0-.91,1.53c1.58,4.58-3.42,9.4.78,13.81,1-.24.21-3.11,2.31-2.11,1.21.57.89,2.06,1,3.17.17,2-1.36,1.46-2.42,1.51-.83,0-1.66-.08-2.49-.08-8.81,0-9.59-.76-10.24-9.55-.27-3.67,4.48-5.2,3.7-9.07,0-.1,1.42-.1,1.63.54.59,1.71,1.21,3.47.21,5.28-2.3,4.15-2.14,6.48.83,10.88a5.13,5.13,0,0,0,.63-1.23c.57-3.35-1-6.5,2.11-10.16,3.34-4-.07-8.41-5.44-8.63-4.7-.19-9.39-.42-14.21-.63.33-2.65,2.45-4.21,4-5,4.3-2.27,4.14-5.74,4.1-9.67-.15-14.66-.11-29.33-.18-44a26.24,26.24,0,0,0-.48-4.93c-.32-1.68-.06-3.51,1.56-3.68,2.65-.29,4.75-3.09,7.47-1.89,2.2,1,1.23,3.22.92,4.91-2.84,15.24-1.32,30.53-.47,45.81.11,2-1.46,2.86-2.31,4.22s-1.13,2.66-.17,3.73c1.53,1.7,2.39-.23,3-1.08,1.12-1.44,3.67-1.1,4-3.44.15-1.19-.14-3.33,1.88-2.53,1.5.58.42,2.3,0,3.53-.59,1.58-1.29,3.73.78,4.24s1.45-1.86,1.86-3.11,1.23-2.29,1.74-3.49c.66-1.51,1.77-2.13,3.16-1.33s.61,2.06.1,3.08-1.43,1.92-1.67,3a2,2,0,0,0,1.89,2.46c1.22.13,1.65-.54,1.59-1.85-.11-2.46.47-6.48,2.07-6.42,3.63.11-.17,4.27,2,6a3,3,0,0,0,2.44-2.71c.29-6.65,5.17-3.54,8.12-3.65,2-.08,2.37,2.1,1.26,3.78s-3,3.77-.24,4.74c1.65.59,5,1.77,6.23-.79.8-1.65,1.58-4.8-2.24-5.28-.83-.1-1.63-.65-1.38-1.68s1.22-1.06,2-1c1.56.14,3.42-.74,4.5,1.18a2.2,2.2,0,0,1,.2,1c0,1.8-.88,4.66.53,5.14,2.5.85,5.14,1.8,8.08,1.59,2-.14,3.81-1.1,6.2-.32,2.76.9,2.35-2.56,1.93-3.81-1.18-3.62-.49-4.86,3.48-4.46,4.43.44,4.57-3,4.58-6.06,0-8.16,0-16.33-.11-24.49-.09-5,1.84-9.75,1.21-14.79-.1-.87.69-2-.46-2.55a2.26,2.26,0,0,0-3,1,15.54,15.54,0,0,0-1.33,3.2c-.36,1.06.52,3.19-1.66,2.67-1.44-.34-1.37-2-1-3.42s.89-3.17-1.28-3.58c-1.41-.27-2,.85-2.16,2.16s.14,3.47-2.07,3.2c-2.38-.29-1.6-2.54-1.72-4.06-.15-1.95.74-3.28,2.83-3.28,1,0,1.94.53,2.92.56,1.76,0,3.41-.55,4.11-2.27.86-2.11-.92-2.34-2.33-2.93-2-.86-1.79-2.38-1-4.14,1.46-3.16,4.21-6.74-1.93-8.23a1.33,1.33,0,0,1-.85-2c1-1.6,2.83-3.61,4.21-3,4.52,2.16,6.95-.71,9.46-3.26,1.62-1.64,2.27-.84,3.57.28,5.74,4.91,12.3,4,16-2.59,1.27-2.27,5-1.92,4.75-5.71-.22-2.9-.54-3.39-3.42-2.42-3.1,1-6.38,1.51-9.53,2.61-4.45,1.54-5.13.47-5-4.35C729.12,596.79,728.42,593.23,722.89,592.24Zm13.6-217.33c-2.33-.42-3.37-1.77-2.9-2.55,1.6-2.63,1-4.58-.94-6.6-.32-.33-.17-1.29,0-1.89a47.24,47.24,0,0,0,.85-20.18c-.17-1.11-1.06-2.21-1-3.26.55-7-.64-14-.8-21,0-1.55-.63-3.36-2.42-3.23-2.22.15-1.35,2.26-1.39,3.6-.13,5,.85,10.28-.47,14.92-2.81,9.87-1.14,20-2.66,29.94-1.78,11.72-.35,23.92-.45,35.91-.09,10.12,2,13.34,11.18,16.3.12,0,.09.52.13.84-1.77.82-4.65-.64-5.24,2.58-.71,3.91-1.92,7.75-1.47,11.81.15,1.29-.29,2.84,1.27,3.48s3-.06,4.1-1.11c1.46-1.36,2.54-3.57,4.22-4.17,5.74-2,8.26-4.83,4-10.5-.15-.2,0-.63,0-.95,1-8.5-1.79-12.19-9.64-13.31-1.53-.22-4,1-4.47-1.89a4.31,4.31,0,0,1,3-5.17c5.3-1.34,8-5,10.66-9.35,1.74-2.88,2-5.06-.46-7.31-.64-.59-1.4-1-1.09-2,2.1-6.32-1.16-12.4-.8-18.63.07-1.26-.1-2.57-1.55-2.66s-1.69,1.38-1.7,2.53C736.46,365.55,736.49,370,736.49,374.91Zm6.85-97.46c-1.91-5.28-2.26-10.17,2.32-14A1.86,1.86,0,0,0,746,262c-.45-4,1.42-6.79,4.68-8.82.94-.59,1.85-1.54,1-2.35-2.94-2.82-.64-4.59,1.23-6.32-1.72-1.9-6.21-1.26-5.19-4.32,1.61-4.82-2.08-3.83-3.69-3.7-4.37.36-6.44,3.47-7.36,7.57s-.91,8.32-2.87,12.06c-1.79,3.43-5.36,3.79-8.21,2.63-3.44-1.41-1.62-4.21.18-6.37-6.4-1.31-7.62-.23-11.21,10.81,4-4.85,7.25-3,10.71-1.85,4.15,1.3,6,4,3.49,7.18-2.87,3.71-.31,3.12,1.91,3.35,1,.11,2.32-.55,3.08.88-1.89,1.17-3.93.24-5.86.49-1.56.2-3.73.62-3.25,2.24,1.63,5.55-2.88,7.48-5.51,10.59-1.7,2-4.83,4.17.15,6.25,1.45.61,1.07,2.37.52,3.58-.81,1.77-1.88,3.42-2.93,5.29,4.15,1.53,8.59-1.6,12.77.55,1.07.55,2.13.07,2.62-1.43,1.21-3.75,3.84-6.92,4-11.17.07-2.21.14-5.11,3.85-5.16a1.83,1.83,0,0,0,1.55-2.61c-.89-2-1.77-.1-2.69.17-1.89.57-3.33.46-1.82-2a2.27,2.27,0,0,0,.22-2.7c-.51-.85-1.09-1.91.19-2.52,1.08-.53,1.87.21,2.45,1.12S741,277.23,743.34,277.45ZM687,572.73l0,.21c2.48-.16,5.31.38,7.36-.65,3.12-1.55.66-4.82,1-7.3a2.7,2.7,0,0,1,.19-1c3.48-5.55,2.46-12.1,3.78-18.12,2.55-11.59,5.81-22.76,11.53-33.16.52-1,2-1.56,1.37-2.93-.72-1.56-2.25-1-3.54-1-5.32,0-10.65.22-16-.06-7.74-.39-15.36-2.18-23.24-.89-3.45.57-3.14,1.65-2.33,4.21,1.54,4.86,2.86,9.81,4,14.79,3.23,14.12,6.49,28.25,7.55,42.75.19,2.47,1.26,3.69,3.78,3.5Zm53.43-22.12c.81-1.16,1.7-1.53,2.74-1.19,3.65,1.2,4.41.58,2.25-2.94a2.68,2.68,0,0,1,1.94-4.23c3.4-.66,2.73-2,1.54-4.47-1.65-3.4-5.62-5.1-6.48-8.68A42.68,42.68,0,0,0,737.06,517c-2.29-3.84-6.41-4.24-9.32-.73a18.21,18.21,0,0,1-3.6,3.3c-4.47,3.18-7.42,7.2-5.78,13.16a5.09,5.09,0,0,1,.26,2.45c-1.23,4.86,1.54,5.58,5.44,5.79,2.9.15,6.11.74,3.57,5-1.57,2.67.87,4,2.1,5.45,1,1.14,2.44,3.37,4.5,1.92,2.52-1.78,4.46-1.51,6.59.53a1.72,1.72,0,0,0,2.92-.47c.57-1.33-.78-1.49-1.67-1.87A14.56,14.56,0,0,1,740.41,550.61Zm-16.06-85.23h0c0,2.65-.06,5.3,0,7.95.06,1.83.07,4,2.87,3.45,2.13-.41,3.79-1.49,3-4.13-.57-1.94-1.09-3.81.39-5.64,2.94-3.65,1.05-7.95,1.48-11.94.09-.87-.49-1.34-1.56-1.42-4.48-.35-6.17,1.15-6.23,5.77C724.33,461.4,724.35,463.39,724.35,465.38ZM742,320.66c.49-4.89-1.64-8.46-2.65-12.22-.64-2.37-1.83-7.41-6.29-2.65-.3.33-1.31.23-1.88,0-5.22-1.84-3.4,1-2.38,3.46,2,4.8,7.61,6.8,9.11,12.05.32,1.12,1.57,2.93,3.37,2.14C742.73,322.82,741.89,321.12,742,320.66Zm-24.38-69.39c2.12-1.87.13-4.05.41-6.06.13-1-.36-2.59-1.4-2-4.4,2.58-5.22-1.23-7-3.52-.49-.64-1-1.5-2-1.14-1.24.48-.87,1.64-.63,2.54,1.15,4.43-.33,9.13,1.54,13.55.54,1.27.56,2.51,2.13,2.81s2-1,3-1.83c2.65-2.34-.59-5.43,1.06-7.79C716.6,248.58,715.61,251,717.58,251.27Zm-4.65,177.64a11.46,11.46,0,0,0,.76,4.34c.91,2,2.37,2.53,4.39,2.41,2.32-.13,1.41-2,2-3.13,2.16-4.67-.77-9.46.76-14.16.72-2.19-.58-2.41-2.5-1.31C713.62,419.77,713.22,424.28,712.93,428.91ZM683.2,704.31c-1.17.05-3-.57-2.92,1.44.07,1.47,1.39,3.29,2.87,2.72a11.44,11.44,0,0,1,9,.34,1.82,1.82,0,0,0,2.43-1.14c.26-1.36-1.06-1.28-2-1.54C689.54,705.27,686.47,704.32,683.2,704.31Zm39-396.68c-.23-1.33.24-3.25-1.9-2.78-2.4.53-2,2.74-2,4.53,0,1.24-.2,3.31,1.57,3C722.43,312,721.69,309.33,722.17,307.63Zm-4,384.77c.34,1.61-.7,4.07,2.35,4,1.37,0,2.43-1.21,1.82-2.31-.91-1.65-.93-4.39-2.91-4.73C717.66,689,718.49,691.27,718.21,692.4Zm-1.09-423.17c-.24-1.44.49-3.7-1.73-3.89-1.67-.14-1.46,1.78-1.44,3.05,0,1.57-.49,3.76,1.65,4C717.27,272.53,716.91,270.51,717.12,269.23Z" transform="translate(-36.98 -3.99)"/><path d="M120,275c-.49-4,5.54-4.15,4.8-8.26,4.7-1.19,1.74-7.24,6.59-8.25-2.78-2.07-3.63,2.09-5,.31-1.19-1.5.05-3.51,1-5s1.74-2.87.73-4.11c-1.24-1.51-3.09-.42-4.65,0A135.91,135.91,0,0,0,102,257c1-3.59,4.5-4.18,5.71-7.09-1.63-1.1-6.7-.57-2.88-4.93,1-1.13-.74-1.78-1.56-2.56-1.9-1.79-4.57-.45-6.71-1.86.32-2.27,3.57-3.75,2.14-6.78l6.39,5.63c-.83-3.23-1.43-5.66-2.08-8.07-.21-.8-.68-1.69.48-2s1.48.58,1.75,1.37a9.09,9.09,0,0,0,7.25,6.61c3.09.65,1.46,3.56,1.79,5.49.44,2.53-1.32,6.81,2.93,6.59,3.63-.19,2.12-4.27,2.12-6.65,0-13.24-2.73-26.32-2.74-39.52,0-8.68-1.75-17.28-1.33-26.35,4,2.72,3,2.76,3.17,8.18.26,6.38-.8,13,1.31,19.2a17.74,17.74,0,0,1,1,9.73,8,8,0,0,0,1.16,6.71c.3.4.87,1,.77,1.24-3.06,8.45,4.65,10.62,8.66,14.93,1,1.07,2.92,2.19,2.06,3.6-1.11,1.81-2.6-.1-3.86-.63-1.79-.74-3.86-1.05-4.66-3.34a1.73,1.73,0,0,0-2.47-1c-1.12.59-.87,1.73-.5,2.65A21.58,21.58,0,0,0,130.5,248c4.92,3.2,10.57,3.73,16.33,3.37a3.82,3.82,0,0,1,1.46.19c.24.08.37.46.79,1.05a20.88,20.88,0,0,1-11.62,0c-2.06-.62-3.57.19-5.27.59-1.37.33-2.13,1.91-.68,2.43,3.25,1.15,1.68,4.07,1.21,4.87-3.33,5.65,1,7.54,4.52,9.37,6.89,3.59,14,1.74,20.86-.34,4.45-1.36,5.29-5.46,2.34-9.16-1.7-2.12-3.06-4-1.1-6.6.19-.26.45-.69.36-.9-4-9.32,4-16.4,4.73-24.89.54-6.13,2.66-12.11,4.71-18.14,0,3.95.64,8-.2,11.81a31.88,31.88,0,0,0-1,9.31c.15,2.15-1.67,5.26,2.11,6.26,4,1.06,6.85-.2,8.81-3.95,1.43.19.4,2.26,1.88,2.54.84-1.57.74-3.6-.5-4-7.81-2.69-5.86-10-7.13-15.44-1.21-5.16-1.53-11,3.34-15.27.64-.55,1.19-1.41.69-2.2-.76-1.2-1.7-.5-2.52.09a2.5,2.5,0,0,1-2.34.68c-1.14-2.4,1-4,1.58-5.92.34-1.19.4-2.47-1-2.95s-1.56.76-2,1.67a7.34,7.34,0,0,1-1.27,2.12c-1,1-1.7,3.11-3.39,2.27s-1.33-3-.62-4.45c1.77-3.5.46-6.57-1.4-9.22-1.52-2.16-2.06-4-1.15-6.44a6.05,6.05,0,0,0-.75-5.65c-2.37-3.92-5.82-7.22-6.5-12.15-.2-1.46-2.33-1.47-4-1.74.09,3.67,3.19,5.9,3.92,9,2.51,10.71,7.28,20.92,6.14,32.43-.62,6.31,0,6.37-6.8,12a148.14,148.14,0,0,0,2.23-16c.14-2.47-.55-4.93.09-7.4.33-1.28-.72-1.9-1.85-1.36-1.41.67-2.41,1.59-3.27-.78-.58-1.62-2-2.55-.5-4.74,1.37-2,4.14-5.44,1.86-7-2.75-1.84-4.44,2.07-6.13,4.17-.73.89-1.51,1.78-2.82,1.74-.94-1.2-.53-2.14.25-3.18,2.12-2.82,5-5.46,2.25-9.53-.54-.8.13-1.9.73-2.75s1.24-1.77.49-2.71c-.9-1.12-1.7.12-2.57.28-2.85.5-5-1.09-7.2-2.68-2-1.47-2.93-4.53-6.35-4-1.43.21-1.41-1.57-1.95-2.55-3.3-6-4.76-6.49-11.32-3.12A80.52,80.52,0,0,0,126,133.17c1.2-3.74,1.88-7.84,3.95-11,1.74-2.67.75-6.57,4.69-8.47a13.12,13.12,0,0,1,5.36-1.58c2.88,0,3.73-.85,2.5-3.54-.5-1.09-1.83-2.58.25-3.21,1.48-.45,2.23,1.15,2.91,2.26a5.76,5.76,0,0,1,.53,1.91c.24,1.2.57,2.35,2,2.45a1.9,1.9,0,0,0,2-1.27c.6-1.52-.11-2.47-1.33-3.35-4.06-2.94-6.73-7.07-9.43-11.52,3,1.82,5.89,2.86,8.65-.08.86-.92,1.53-1.79.83-3.07s-1.55-1-2.56-.56c-2.52,1-5.32-3.23-8,.66-.64.93-1-1.85-1.66-2.85s-1.48-2-2.82-1.38a1.55,1.55,0,0,0-.67,2.48c1,1.45.79,2.68-.06,4.14s.1,2.5,1.27,3.34c5.62,4,5.65,6.64,0,11.87-1.63-1.13-1.54-3.16-2.45-4.48.44-2,3.85,1.45,3.24-2-.16-.94-1.11-3.15-1.8-2.19-1.24,1.72-4.59,1.37-4.26,4.25.46,4-.7,5.3-4.72,3.69-1.7-.68-3.07,2-5.11,1.24-1.07-.4-2.55-.42-2.81-1.72-.33-1.72,1.29-1.56,2.35-1.83,2-.5,4.07-1.19,4.38-3.43s-2.36-2.44-3.56-3.68c-1.63-1.7-2.26-.46-3.41.79-3.59,3.86-2.26,9-4.37,13.51,2.34-.22,3-3.5,5.92-1.3,3.53,2.68,5.08,6.14,3.91,9.71-.93,2.84.17,6.84-3.88,8.65-1.69.75.35,2.22.74,3.34s.68,2-.25,2.75c-1.31,1-1.57-.49-2.19-1.12-1-1.07-1.94-3.65-3.6-1.86-.78.84,0,3.82,2,4.9,1.12.64,3.11.84,2,2.54-1.27,1.87-2.17-.47-3.13-1-5-2.64-6.09-17.49-1.62-21.06.09-.07,0-.31.08-.7-5.22-1.17-4.57-10.16-12.19-8,.87-2.49,2.52-2.26,3.59-3,1.84-1.19,3.29-2.38,1.43-4.76a6.29,6.29,0,0,1-.93-2.78c-.36-2.1-2.23-5,1.12-5.82,2.48-.63,2.43,2.46,3.38,4.06,1.4,2.36,3.74,2,5.4.67a7.52,7.52,0,0,1,8-1.29c3.56,1.27,4.76-.17,5.09-4.47,0-.62,1.14-1.1,1.48-1.77.68-1.34,3.62-2.9-.48-4-1.89-.49,1.86-4-1.22-4.09-2.84-.06-.07,3.28-1.73,4.38-2,1.34-5.1.61-5.26-.67-.57-4.64-4.32-2.53-6.45-3.63-1.42-.74-3.53-.31-3.69,1.28-.18,1.8,1.92,1.37,3.13,1.31,3.07-.16,4,2.39,6.21,4.33-2.7,1.13-6.34.56-5.84,5.7-1.71-3.42-2.34-6.25-6.18-3.94-1.8,1.08-2.61-1.24-2.83-3-.24-1.94.39-4-1-5.79-1-1.36-3.29-2.69-2-4.59,1.1-1.58,3.44-.71,5.21-.71,17.77,0,35.55,0,53.32,0,1.5,0,3,0,4.5-.12,1.27-.12,2.23-.78,2.2-2.22a2.23,2.23,0,0,0-2.09-2.38,42,42,0,0,0-4.49-.14l-54,0a6.85,6.85,0,0,1-3.89-.8H214.39l0,1.35c-8.29,0-16.59,0-24.89,0-2,0-4-.25-6-.32-1.27-.05-3-.46-2.88,1.64a2.72,2.72,0,0,0,2.94,2.79c6.12,0,12.28.24,18.34-.38,2.74-.27,5.44,1.12,8.22-.23.72-.34,3.61.41,2.84,2.36s-2,4.68-5.07,3.64c-2-.69-3.83-2-6.18-.62.35.42.59,1,.95,1.08,1.91.52,5.15-.09,4.06,3.34-.78,2.45-4.11,3-5.82,2.2-2.5-1.23-4.5-.49-6.72-.13a4.47,4.47,0,0,0-3.09,6.24c.42.87,1.37,1.57,1.86.82,2.71-4.22,7.93-.15,10.89-3.44a.94.94,0,0,1,1.55.56c.32,1.37-.55,2.16-1.71,2.66-2.43,1-2.73,3.31-1.15,5.5,1.77,2.48,3.25,5.52,1.39,8.38-2.13,3.26-4.47,7.15-9.15,6.64-3.71-.41-7.47-1-10.51-4a6.88,6.88,0,0,0-11,2.32c-2,4.57-4.31,8.56-10.16,9-2.44.18-3.65,2.35-3.43,4.78.38,4.22-.62,8.29-1.23,12.37-.49,3.25,0,5.16,3.51,5.71,1.41.22,3.18.39,3.44,2.32s-1.39,2.43-2.59,3.29c-4,2.89-4.32,5.76-.67,9.36a21,21,0,0,1,5.72,9.78c1.4,5.31,4,10.31,6.47,15,2.17,4,7,7.08,11.22,9.5,4.67,2.68,2.4,7.56,4.62,10.93.7,1.06-2.44.37-2.86,2.13,1.59,1.75,3.09.89,4.74-.09,1.47-.88,3-1.53,4.17.65s2,4.35-.11,6.74c-1.52,1.75-2.57,1.74-4,.24-1-1-2.09-.58-3.24-.17-2.19.77-5.12,2-6.25-.57-1.32-3.08-1.8-6.77.6-9.94.84-1.12,4-1.42,2-3.5-1.55-1.6-4.05-1.22-5.94.32a5.37,5.37,0,0,0-2.1,3.83c-.37,4.35-.38,8.69,1.46,12.75,1.12,2.47,2.46,4.64,6,3.67,4.13-1.12,8.62-.12,12.73-1.7,1.93-.74,2.37.38,2.46,1.91.06,1,0,2,0,3-.05,11.89-1.35,10.12,10.38,10.25,3.74,0,7.48,0,12.44,0-5.75,6.17-9,12.31-14.08,17.18-11.33,10.94-16.1,24.68-16.38,40.22,0,1.68.93,4.59-1.08,4.78-2.48.24-.8-2.95-1.76-4.27-1.42-1.94-.1-4.18-.62-6.23-7.22,2-7.22,2-5.06,8.36.6,1.74,1.24,3.47.83,5.36a3.68,3.68,0,0,1-2.76,2.62c-1.28.44-1.65-.55-2.28-1.36-1-1.26-1.2-4.29-3.63-2.87s-5.22,3.21-4.53,6.54c1.15,5.49-.9,10.46-1.84,15.62-.18,1-.35,2.21-1.72,1.87s-.64-1.55-.74-2.47c-.27-2.53.7-4.86.91-7.29.08-.91.53-2.16-.66-2.63s-1.77.63-2.37,1.38c-2.18,2.73-2.94,6.55-6.81,8.26,4.09-5.32,4.11-11.36,3.89-17.49a18.63,18.63,0,0,0-1.12-6.83c-.66-1.52-1.32-3,.51-4.34.84-.62,1.06-2.17.39-2.73-3.7-3.14-3-7.84-4.46-11.74-.87-2.34-1.79-5-5.09-2.18-1,.88-2.38.78-3.78.25a8.31,8.31,0,0,0-4.35-.74c-6.11,1.32-11.44-.41-16.2-3.9-1.79,1.81.41,3.31-.18,5.16-2.62-1.51-4-5.84-7.89-3Zm10.61-147.75a28.58,28.58,0,0,1,4.55-.59c1.67.11,4.24-.54,4.14,2.14-.06,1.74-.6,4-3.43,4.1-2.06,0-3.12-.49-3.48-2.25-.08-.42-.56-1.12-.76-1.09a2.82,2.82,0,0,0-1.65.79c-3.28,3.84-3.2,13.53.28,17.3a50.77,50.77,0,0,0,6.21,5.5,3.2,3.2,0,0,0,3.77-.12c1-.63,2.18-1.65,1.47-2.79-2.55-4-.39-7.08,1.47-10.52,1.29-2.39,2-5.35.44-8-1.13-2-1-3.47,1-4.58,2.8-1.51,1.28-3.58.91-5.63-.42-2.39-2.13-1.93-3.74-2.24C135.74,118.12,133.5,122.18,130.57,127.28Zm30-32.5c-2.36.26-2.75,1.48-2.08,3.19s.93,2.57-1.47,3c-3.78.76-4.32,3-1.32,5.52,1.72,1.46,2.63,2.2.55,4.12-1.31,1.2.47,1.91,1.21,2.66,1.27,1.31,1.3.18,1.82-.76,1.48-2.69,2.29-1,2.63.66s1,2.5,2.5,2.57a2.62,2.62,0,0,0,2.52-2c.65-1.72-.25-2.88-1.56-3.79s-2.74-1.83-4.14-2.69-1.88-1.66-1.25-3.27c.55-1.43.8-2.92,2.85-2.75,4.12.34,5.87-3.38,8.59-5.32,1.78-1.27.93-3.06-1.34-3.36-1.9-.25-3.67.06-4.21,2.44-.71,3.14-1.65,5.56-4.11.88A4.71,4.71,0,0,0,160.56,94.78Zm21.24,11.69c3.4-1.36,8.23-8.37,7.91-11.4a2,2,0,0,0-1.16-1.39c-1-.18-1.16.81-1.59,1.52-1.51,2.44-3.93,4.61-6.3,2-3.88-4.18-5.38-1.6-7.21,1.58-1,1.73-2.09,3.39-3.15,5.07-.58.93.1,2.51.24,2.32,1.9-2.63,5.76.46,7.25-2.44,1.72-3.37,4-2.54,6.56-1.6C184.38,104.36,181,103.68,181.8,106.47Zm16.49-.46c-2.45-1.41-4.76-2.33-6.52-.1s0,4.82.9,6.9c.69,1.56,3,1.45,4.4.52s.48-2.1-.46-2.79C192.74,107.71,197.27,107.7,198.29,106Z" transform="translate(-36.98 -3.99)"/><path d="M401.19,116.91h-10.5c-2.8,0-4.42-.82-2.58-3.84,5.93-9.67,4.52-20.44,4.61-31,0-4.7-3.89-6.95-6.93-9.16-2.13-1.54-4.38-2.89-6.12-4.88-1.47-1.69-3.22-2.4-5.34-1.61s-1.8,2.74-1.56,4.3c1.28,8-2.11,15.6-2.26,23.53-.12,6.15-3.25,7.46-8.72,4.66-1.76-.9-3.59-1.69-5.29-2.69C351,93,351.41,90.8,354.06,85.18c5.25-11.11,8.7-22.84,2.7-35A106.49,106.49,0,0,0,349.36,37c-3.28-4.74-.7-7.53,2.67-10,5.46-4,7.24-3.78,10.68,2.2,2.66,4.62,7.1,7.94,9,13.07,1,2.7,5.43,1.95,5.7,5.49.3,0,.7,0,.9-.12.81-.64.48-1.37.18-2.21-2.54-7.23-6.92-13.52-10.74-20-2.07-3.52-2.94-7.25-4.21-10.87-1.62-4.6,2.87-5.52,5.65-6.41A33.44,33.44,0,0,0,376.42,5c3.59-2.19,3.87-.53,4.39,2.72,2.27,14.43,6.68,28.05,16.81,39.13,3,3.3,7.22,3.47,9.35-.24,3.94-6.88,10.35-12.06,13-19.82,1.92-5.59,3.68-11.19,4.1-17.1.26-3.67,1.44-4.88,5-3.12,3,1.49,6.17,2.47,9.06,4.57,5.09,3.7,5.39,3.6,2.66,9.25C435,32.45,426.34,42.38,417,51.81c-.79.8-1.83,1.92-2.76,1.92-5.14,0-6,4.05-6.18,7.41-.22,4.21-2.36,9.71,4.23,11.77a6.76,6.76,0,0,1,2.34,1.76c1.32,1.3,2.55,2.87,4.68,1.65A5,5,0,0,0,422,71.39c-1.26-20.5,12.11-32.24,26.18-43.55.38-.31.9-.84,1.23-.76,3.69.9,5.81,3.93,7.46,6.8,1.1,1.92.21,4.34-2.3,6.14C444,47.6,435.69,56.42,437,71.06c.58,6.6.61,13,3.62,19.25,1.1,2.29,2.25,6.17-1.3,8.47-8.75,5.68-9,5.88-13.3.93-3.58-4.11-8.44-6.4-12.4-9.94-2.67-2.4-4.55,0-5.29,2.1a11.91,11.91,0,0,0,0,8.34c1.92,4.54,1.67,10,6.43,13.46,2.08,1.53.42,3.21-2,3.21-3.84,0-7.67,0-11.5,0Z" transform="translate(-36.98 -3.99)"/><path d="M440.43,785.47c4.24.15,9.51-1.3,13,4.46,1.39,2.26,2.24-.57,2.63-1.77a90,90,0,0,1,12.83-25.27A63.07,63.07,0,0,1,487,745.94c6.31-3.8,19.51.2,23.93,6.93,5.74,8.73,5.3,18.24,3.59,28-2.77,15.73-8.92,29.95-19.51,41.92-6.83,7.71-14.8,14-26.12,13.23a19.52,19.52,0,0,1-18.56-18.66,50.91,50.91,0,0,1,1.92-16.27c1.39-5.33.92-5.76-4.61-5.15-7.1.79-14.17,2-21.26,2.82-3.69.44-4.71,3.14-5.87,6-3.5,8.63-7,17.25-10.71,25.79-1.49,3.41-2.93,7.54-8.19,5.57-5.48-2.05-8.05-6.73-6.06-11.91,4.19-10.87,8.62-21.64,13.09-32.4,5.11-12.28,9.92-24.7,16.16-36.49.16-.29.43-.6.42-.9-.29-9.73,6.9-9.89,13.51-10.24,9-.49,18-.51,27-.7a6.94,6.94,0,0,1,5.52,1.9,7.71,7.71,0,0,1,2,6.89c-.56,2.73-2.91,1.6-4.53,1.79-7.25.86-14.49,1.76-21.76,2.32-3.57.28-6,1.63-7.35,4.94-2.82,6.75-6.32,13.19-9,20-1.47,3.81-.35,4.45,3.06,4.19C435.67,785.35,437.68,785.47,440.43,785.47Zm24,29.37a41.67,41.67,0,0,0,0,5.35c.62,4.84,2.77,6.13,7,4a34.13,34.13,0,0,0,11.34-8.79A83.19,83.19,0,0,0,501.19,774c.72-4.79,2.51-9.66,0-14.63s-7.22-5.91-10.62-1.71c-3.76,4.64-7.47,9.36-10.81,14.31a137.83,137.83,0,0,0-9.12,16.57c-2.6,5.28-1.76,11.31-4.94,16.43C464.07,807.62,463.81,811.31,464.47,814.84Z" transform="translate(-36.98 -3.99)"/><path d="M675.6,758.93c4-.64,8.25.59,12.55,1,1,.09,2.27.19,2.58,1.2,1.39,4.4,4.91,3.71,8.21,3.65,13.84-.27,27.66.11,41.29,2.64,5.06.94,10.7,1.47,12.75,7.93,1.48,4.67-.22,7.48-5.3,7.93-4.9.43-9.49-1.51-14.35-1.57-3.94,0-6.37,1.16-8.38,4.7-11.66,20.53-23.54,40.93-35.36,61.36a21.66,21.66,0,0,1-2.51,3.72c-1.85,2-1.86,6.29-6,5.63-2.84-.45-7.48-7.2-7.64-10.38a12.94,12.94,0,0,1,1.7-6.19c7.38-15.68,17-30.1,25.14-45.4,2-3.81,4-7.63,6-11.49.48-1,1.4-2.09.28-3.18-1-.9-2.12-.69-3.29-.33-3.62,1.1-7.15.61-10.78-.3-2.88-.73-4.46-2.1-4.51-5-.07-3.89-2.53-4.38-5.45-3.69a29.1,29.1,0,0,1-7.93.68,5.54,5.54,0,0,0-5.39,2.88q-5.8,9.63-11.58,19.27c-.57,1-1.54,2-.75,3.19.87,1.33,2.12.28,3.19.18,3-.29,6-.59,8.93-.94a8,8,0,0,1,7.62,2.77c3.28,3.92,2.61,7.3-2.28,8.67a158.59,158.59,0,0,1-21.37,4.71c-4.71.63-7.66,2.67-9.78,6.59q-2.73,5-5.62,10c-1.3,2.21-.58,3.06,1.78,3,3.15-.11,6.3.2,9.45-.52,4-.92,8-.65,11.41,2,2,1.6,3.65,3.65,2.76,6.44-.8,2.48-2.83,3.32-5.4,3.68a176.32,176.32,0,0,1-25.75,2c-9.38,0-14.74-9.06-10.8-17.44,8.28-17.64,19.24-33.8,27.94-51.2a5.72,5.72,0,0,0,.23-5c-2.26-6.77.56-11.16,7.73-11.75C663,759.85,669.05,758.4,675.6,758.93Z" transform="translate(-36.98 -3.99)"/><path d="M106.34,799c4.36-7.77,8.59-15.24,12.73-22.75,3.86-7,7.48-14.11,11.44-21,3.23-5.64,6.88-6.94,12.92-5.19,5.45,1.58,7.22,5.19,4.63,10.27q-5.67,11.09-11.81,21.94c-8.89,15.78-18.6,31.1-26.49,47.44a117.9,117.9,0,0,1-5.35,10.66c-2.45,4-5.77,4.37-9.34,2.33-5.34-3-8.64-7.55-8.85-14-.32-10.34,1.75-20.47,2.37-30.72.17-2.76,0-5.54,0-8.57-2.54.13-3,2.24-3.72,3.63-6.76,12.23-12.34,25-18.22,37.69-1.33,2.85-3,5.57-4.51,8.32-.4.69-1,1.61-1.6,1.77-4.76,1.23-7.45-3-11.1-4.63-2-.92-3.38-3.08-2.6-6.27,2.08-8.53,6.37-16,10.2-23.76,8.12-16.38,16.52-32.64,24.87-48.91,4.9-9.54,16.78-11.59,24.89-4.45,1.55,1.37,1.08,3,1.14,4.61.49,12.82-1.55,25.45-2.9,38.12C105,796.38,104.38,797.37,106.34,799Z" transform="translate(-36.98 -3.99)"/><path d="M131.66,369.5a13.57,13.57,0,0,0,1.31,1.94c8.52,8.45,24.75,7.24,32.18-2.36.68-.88,1-2,2.3-2.46a7.7,7.7,0,0,0,3.77-11.49c-.55-.86-1.25-1.73-2.36-1.53-1.35.24-.9,1.5-1.05,2.42s.57,2.37-1.2,3.09c-1.09-1.71-.29-3.51-.3-5.21s1.41-3.92-1.65-4.81c-.9-.26-.9-1.69-.68-2.71.32-1.52,1.56-1.52,2.74-1.54,3.66,0,7.33-.13,11-.06s6.31,4.53,4.59,8c-.43.85-1.56,1.69-.39,2.53s2.41-.17,2.73-1.23c1-3.42,2-7.06-1.1-9.93a2.38,2.38,0,0,1-1-2.42c.35-2.55-1.42-2.41-2.84-1.8-2.66,1.15-5.37.82-8.19.71,2.54-1.79,5.8-1.6,8.38-3.52,2.14-1.6,4.56-2.17,2.56-5.54-1.09-1.83.49-3.78.65-5.69.26-3.13.33-5.8-1.59-8.43-1.6-2.2-.89-4.54,1.36-5.46,4.41-1.79,6.35-5.33,7.55-9.57,2.63,1,1.7,2.9,1.75,4.36.11,3.81-.59,7.68,1.14,11.33.13.29,0,.68.19,1,1.59,3.46-5.16,4.58-2.7,6.76,1.54,1.36,4,1.26,4.87,4.35,2.65,8.86,5.52,17.56,3,27-.47,1.72-.27,4.28-2.73,3.91-1.94-.28-.41-2.52-.77-3.83-.13-.47-.3-.92-.89-2.72-2,5.2-3.9,9.34-6.59,13.05-1,1.34.67,2.35,2.31,1.67,3.11-1.3,3.45.62,3.47,2.89,0,5.75-.18,11.42,1.41,17.16s-2.76,10.71-4.43,16A22,22,0,0,0,189,412c0,18.83-.27,37.67.19,56.49.13,5.48,2.38,10.91,3.69,16.35.81,3.39.8,6.47-1.82,9.31-5,5.37-11.2,4.9-14.92-1.34-.37-.62-.6-1.35,0-1.8a2.89,2.89,0,0,1,1.79-.41c6,.19,5.37.14,5.94-5.46.8-7.84-3.24-14.76-3.15-22.46.05-4.09-4.59-2.82-7.28-4.14-.47,2.56,2.86,2.21,2.14,4.71-2,.47-5.47-3.13-6.56.23-1.42,4.39-4.45,8.82-2.35,13.82.9,2.15,2,4.12.55,6.86-6.18-6.36-3.59-13.4-2.18-20.14,1.11-5.29,2.24-10.57,3.29-15.87,2.08-10.46.53-21.23,3.3-31.58.54-2,.5-4.14-.62-7.43-2.3,10.06-5.84,18.45-7.77,27.37a202.19,202.19,0,0,1-8.89,29.23c-.4,1-.37,2.58-2,2.45-1.39-.11-1.84-1.51-1.94-2.61-.3-3.16-.53-6.21-3.31-8.46a1.39,1.39,0,0,1,.64-2.38c6.92-1.66,9.51-7.07,11.06-13.09,1-3.86,1.91-7.73,2.94-11.58,3.55-13.36,6.36-26.91,6.35-40.89,0-2.93-3.65-5.66-.41-8.84.43-.43-1.72-2-1.75-1.93-2.08,4.78-6.24-.32-9.31,2.08-2.79,2.18-4.68,3.94-4.33,7.56a17,17,0,0,1-.1,3.49c-.12,1-.6,2.06-1.88,1.76-1.09-.26-.69-1.25-.61-2.06.16-1.65.3-3.31.32-5,0-2.33-1.26-3.36-3.5-3.09-2,.24-2.73,1.54-2.68,3.51a230.64,230.64,0,0,1-4.69,51.72c-1.29,6.42-1.76,13.54.89,20.19.58,1.46.5,3.19.74,4.85-2.57.64-2.24-3.65-3.64-2.23a15.25,15.25,0,0,0-3.9,7.38c-1.05,5.35-1.49,10.86-.22,16.32.21.89,1.24,2,0,2.57s-2.29-.44-2.85-1.49c-2.16-4.06-1.66-8.37-1.06-12.69,1.66-11.95,5.69-23.42,7.11-35.42.76-6.39,1.83-12.74,2.61-19.13.14-1.18.4-2.69-1.4-4.06-2.2,5-1.49,10.42-3.68,15.24-.88-5.25-1.51-10.63-.09-15.79.71-2.61,1.44-5.12,1.17-7.74-.77-7.36,1.27-14.49,1.58-21.76.15-3.71-.33-6.86-3.7-9.16C131,374.37,129.51,372.74,131.66,369.5Zm42.86,81c.39,1.31-.76,1.68-1.34,2.42-1.29,1.62-.08,2.33,1.17,1.91,2.76-.91,3-3.62,3.36-6,.19-1.28-.54-2.45-2-2.22C172.9,447,173.37,448.75,174.52,450.51Zm10.19-77.17a39.77,39.77,0,0,0-3.33,5.47c-.5,1.24-.94,3.21.91,3.81,1.65.54,2.16-1.34,2.53-2.42A8.69,8.69,0,0,0,184.71,373.34Zm-4.94,3.25c-.85-2.41-2.24-4.48-.91-7.1.43-.87.3-2.11-1.09-2.22-1.19-.1-1.67.88-1.84,1.91C175.38,372.54,176.76,375,179.77,376.59Zm-4.67,57.9a1.57,1.57,0,0,0,1.13,1.76c.74.27,1.56,0,1.47-.7-.31-2.28,1.49-4.4.43-6.66-.11-.23-.82-.2-1.26-.23-.09,0-.32.26-.3.35A5.8,5.8,0,0,1,175.1,434.49Z" transform="translate(-36.98 -3.99)"/><path d="M218.07,806.91c5.86-7.12,11.9-14.1,17.55-21.38,9.58-12.35,18.74-25,28.43-37.29a53.35,53.35,0,0,1,12.34-11.58,8.83,8.83,0,0,1,11.4,2.23c1,1.46.17,2.49-.4,3.66-3.47,7.12-8.94,12.8-13.73,19-14,18-28,35.89-42.31,53.64-7.7,9.58-15.79,18.84-23.89,28.09-3.49,4-6.27,4-11.94.55-3.74-2.26-6.08-4.81-5-10.1,3.34-16.06,10-30.95,15.51-46.23q4.68-12.88,9.06-25.89c1.35-4,3.63-7.45,5.86-11,1.6-2.52,4-2,6.25-1.84,9.18.8,11,3.38,7.66,11.82-4.55,11.6-9.37,23.1-14,34.65-1.46,3.62-2.77,7.29-4.14,10.94Z" transform="translate(-36.98 -3.99)"/><path d="M366.31,743.9c12.28.11,21.35,6.22,24,16.36,2.17,8.39-2,15.14-6.86,21.47-8.44,10.93-20.31,16.89-32.5,22.4-.75.34-1.52.66-2.27,1-5.12,2.39-5.09,2.46-1.38,6.75a285.42,285.42,0,0,1,19.28,24.16c2.17,3.13,3.27,5.63-.44,8.44-3.94,3-6.61,3.16-10-.33-8.41-8.57-15.44-18.29-22.74-27.78-3.47-4.52-3.33-4.64-5.73.52-2.8,6-6.27,11.77-7.71,18.37-.49,2.27-2,2.8-4.13,2.51a9.3,9.3,0,0,1-7.89-10.21,51.4,51.4,0,0,1,5.66-17c7.81-15.43,15.82-30.75,23.33-46.32,2.29-4.73,6.61-8.29,7.38-14,.29-2.12,3.37-3.29,5.57-3.76C355.47,745.32,361,743,366.31,743.9Zm12.14,18.43a5.46,5.46,0,0,0-2.48-5.14c-4.26-3.23-15.82-1.45-18.66,3.07A330.82,330.82,0,0,0,341,789.92c-.42.86-1.25,1.81-.44,2.71s1.8,0,2.65-.38c11.47-4.78,21.84-11.23,30.32-20.39C376,769.21,378.14,766.17,378.45,762.33Z" transform="translate(-36.98 -3.99)"/><path d="M259.32,841.06c-5.35-.13-9.58.2-12.95-4.67-3.62-5.23-2.66-9.61-.19-14.35,8.48-16.25,18.69-31.48,27.72-47.4,4.28-7.54,10.92-13.94,11.82-23.22.21-2.15,2-2.4,3.55-3,7.42-2.94,15.38-2.58,23.09-3.4,6-.64,12-1.9,18.32-.47,5.08,1.15,3.87,4.76,4.37,7.65.53,3.14-2.09,3.73-4.51,4.07-8.23,1.19-16.54,1.68-24.67,3.55-1.7.39-3.11.71-4.07,2.38-4.12,7.21-8.36,14.36-12.5,21.56-.62,1.08-2,2.28-.81,3.56,1,1.07,2.47.52,3.79.33,6.24-.91,12.44-1.86,18.81-1.81,4.63,0,6.57,3,8,6.32s-.89,5.65-6.08,6.35c-8.89,1.2-17.76,2.58-26.68,3.58-6.8.76-11.83,3.48-14.56,10.12-1.51,3.68-3.74,7-5.65,10.56-1.53,2.83-.57,3.23,2.39,3.16,9.26-.22,18.52-1.65,27.81-.55,3.46.42,7.62,5.45,7.28,8.68-.21,1.91-1.79,1.54-3,1.93-9,2.9-18.47,2.11-27.66,3.55C268.21,840.3,263.45,841.52,259.32,841.06Z" transform="translate(-36.98 -3.99)"/><path d="M157.66,831.24c5.35.39,11.33-.42,17.31.73,4.66.9,6.47,3.92,6.86,8s-3,4.56-5.73,4.58c-15.72.1-31.45.89-47.14-.82-5.46-.6-8.6-6.88-6.49-13.67a93.08,93.08,0,0,1,9-19.46c9.27-15.77,17.06-32.38,27-47.78a12.05,12.05,0,0,0,1.81-5.15c.59-5.52,4.93-7,9-7.67,8.16-1.31,16.46-1.7,24.68-2.65,4.09-.46,7.83,1.17,11.79,1.52s4,4.16,4.29,7c.34,3.23-2.23,3.77-5,4.22-8,1.3-16.34-.06-24.27,2.47-1.71.55-2.92,1.09-3.85,2.7-4.9,8.51-9.93,16.94-14.86,25.43-.54.94-1.56,2-.75,3.2s2.11.64,3.2.48A118.1,118.1,0,0,1,186,793.18c5,.16,8,2.74,7.73,7.16s-4,4.44-7.4,4.8c-10.71,1.16-21.41,2.48-32.11,3.71-1.55.18-2.79.49-3.63,2.11q-4.28,8.17-8.85,16.21c-1.68,3-1.28,4.23,2.36,4.1C148.38,831.13,152.72,831.24,157.66,831.24Z" transform="translate(-36.98 -3.99)"/><path d="M557.72,746.62c6.71-.54,12.25,1.85,16.8,6.85,6.6,7.26,3.17,20.12-3.51,28.87-7.33,9.6-17.06,16.26-27.27,22.18-4.3,2.49-4.29,4.37-1.66,8.05a184,184,0,0,1,15,25.29c1.27,2.55,3.78,5.58-.35,7.59-3.1,1.5-6.25,3.27-9.69-.79a171.58,171.58,0,0,1-16.85-24.07c-1.21-2-1.71-5.61-4.41-5.32s-2.66,3.87-3.58,6.1c-1.76,4.31-3.18,8.76-5,13-1,2.34-1.18,5.79-4.46,6s-5.1-2.86-7.14-4.82c-1.55-1.49-1.74-3.84-.9-6.45,5.62-17.64,14-34.16,20.42-51.46,3.29-8.86,8-17.08,10.95-26.11,1.33-4.13,5.67-4.39,9.14-4.83C549.37,746.22,553.57,746.62,557.72,746.62Zm-21.49,45.51c8.5-3.94,15.23-9.53,21.79-15.23a17.64,17.64,0,0,0,6.18-10c.52-2.94,2.13-6.45-2.14-8.13-4.83-1.91-11.72-.22-13.32,3.22-2.87,6.18-5.9,12.3-8.35,18.64C539,784.2,536.26,787.37,536.23,792.13Z" transform="translate(-36.98 -3.99)"/><path d="M123.86,599.53c.68-8.18.68-8.17-7.14-8.73a4.38,4.38,0,0,1-2.33-.57c-3.1-2.59-3.78,0-4.26,2.1-.94,4-1.56,8.12-2.29,12.19-.2,1.1.08,2.56-1.54,2.69-1.12.09-1.8-.87-2.12-1.82-1.07-3.27-3.9-3.51-6.63-4.41-5-1.65-11.18-1.66-13-8.37-.22-.83-.4-1.61.5-2.33,4.53,1.48,7,6.15,11.88,7.52,4.08,1.14,6,.3,6.45-3.83a14.62,14.62,0,0,1,3.35-7.08A11.42,11.42,0,0,0,109,580.5c.12-1.14-.68-3,1.34-3.24S111,579.68,113,580c-.65-3,1.91-4.17,3.35-5.94-.46-1.89-2.62-.63-3.18-2-.35-.89-1.13-2.15.63-2,5.16.3,3.82-3.21,2.52-5.15-2.65-4,1.15-6.85,1-10.38-.11-3.89-.3-6.22-5-4.51-1.81.66-2.4,0-1.86-2,1.07-3.92,1-6.92-4.65-6a16.78,16.78,0,0,1-10.07-1.46c-5.14-2.43-3.78,2.46-4.29,5-3-1-3.09-3.55-3.7-5.68-.74-2.57-2.07-4-5-3.79a9.76,9.76,0,0,1-7.37-2.53c-1.86-1.69-2.42-3.5-.36-5.55.82-.82,1.45-2.14,2.78-1.13s.49,2-.57,2.72c-.53.37-1.17.84-.68,1.61a1.5,1.5,0,0,0,2.18.38c3.9-2.1,7.65-3.13,12.38-2a8.58,8.58,0,0,0,9.78-4.39c.29-.52,1.12-1.33,1.25-1.26,6,3.61,3.82-3.25,5.7-4.78,2-1.66.23-4.21-1.48-6-1-1-2.44-2-1.61-3.8,2.22-5-1.07-4.46-4.11-4-1.53.21-3.4.54-4-.95-.84-1.95-2.16-4.51,1.62-5.46,4.51-1.14,8.75-3.1,13.1-4.71,6.23-2.32,16.2,2,19.66,8.21a2.44,2.44,0,0,0,2.41,1.34c2,0,4,.24,5.94.1,1.72-.13,4.23.94,4.93-1.2.8-2.41-2.55-2-3.66-3.9,2.52-2.58,5.62-4.11,9.12-3s7,.47,9.93,1.11c3.58.78,5.94-.1,9-1.7.3,4.31-2.75,4.86-5.19,5.94-1.06.48-3.28-.36-2.89,1.68a3.49,3.49,0,0,0,4,2.94c2.13-.29,4.28-.47,6.11-1.87.61-.48,1.63-.83,2.19.12.69,1.16-.08,1.8-1.08,2.27a50,50,0,0,0-7.36,3.89,14.86,14.86,0,0,0-6,8.68c-.81,2.67-2.52,5.34,2.63,5.25a3.33,3.33,0,0,1,3.08,4.32c-.74,2.93-3.6,4.81-6,4.14-3.75-1-4.16.88-4.95,3.38a81,81,0,0,0-3.6,27.32c.2,5.84-1.24,11.75-2.05,17.61-.2,1.5-1.53,1.8-2.69,1.23s-3.31-.59-3.63-2.23,1.33-1.52,2.45-1.52c1.54,0,2.75-.46,2.54-2.23s-1.74-1.65-3.08-1.77c-3.76-.32-7.64.92-11.27-1.11-1-.57-2,.15-2.13,1.33a2.59,2.59,0,0,0,2,3c.57.14,1.27-.32,1.92-.41,1.29-.17,2.81-.66,3.44,1,.52,1.41-.81,1.93-1.67,2.7-2.08,1.85-5.45,4,.66,4.8.82.1,1.23.79.87,1.43-2.38,4.2.83,6.34,3.12,8.86.74.82,2,1.63,1.31,2.94s-2.1,1.15-3.08.57c-2.35-1.4-3.21.93-4.7,1.65s-2.74,2.73-4.33,1.12.1-3.29,1.11-4.76c1.22-1.78,2.39-3.6,3.56-5.41.61-.94,1.71-2.16.06-2.87-1.93-.83-4.12-1.71-6.12-1.55-1.36.11,0,1.93,0,3C128.09,594.06,127.37,597.21,123.86,599.53Zm25.82-63.13c-1.46.48-1,1.75-1.43,2.54-2.36,4.25.3,10.85-6.32,13.17-1.13.39-.13,1.46.56,2.3a10,10,0,0,1,1.52,9.67c-1,3.27-4.43,2.1-6.95,2.33a21.49,21.49,0,0,1-3,0c-2.15-.08-4.1-.54-4.15-3.22-.06-2.92,2-3.15,4.14-2.83,4,.61,4.86-1.6,4.72-4.9-.06-1.5-.08-3,0-4.5,0-.95,0-2.4,1.45-2,6.07,1.57,3.35-2.82,3.17-4.92-.23-2.74-4-5.61,1-7.92.87-.41-.16-2.72-1-4-.77-1.16-2.55-1.76-2.09-3.89,3-.74,7.49-.22,6.17-5.81-.19-.8,1.14-1,2-1.1a1.64,1.64,0,0,1,2,1.09c.46,1.07-.23,2.84,1.95,3.06,2-2.88,2.05-6.64,3.85-9.56,1-1.69.23-3.21.56-4.79,1.27-6,1.2-6.09-4.88-6-12.63.14-25.27,1-37.89.06-3.66-.28-2.21,2.08-2.13,3.68-1.28.19-1.48-.89-2.15-1.3s-1.34-1.52-2.51-1.19c-1.19,5.78-.07,7.11,5.23,5.83,1.91-.46,2.54.39,3.54,1.7,2.28,3,2,7,4.14,10,1,1.39,1.37,2.9-.16,3.93-1.79,1.22-3.3.21-4-1.55-1.15-3-3.71-3.06-6.17-3.18a2.32,2.32,0,0,0-2.41,2.62c0,1.46.75,3,2.36,2.46,3.73-1.19,6.19,5.36,10.3,1.53.45-.42,1.38.74,1.61,1.55,2.61,9.13,5.87,18.18,6,27.76.16,10-.14,10,9.76,10,6.69,0,8-1.38,8-8.25A42.51,42.51,0,0,1,148,549.43C149.07,545.41,150.93,541,149.68,536.4Z" transform="translate(-36.98 -3.99)"/><path d="M610.81,792c2.65-.28,6.73.36,10.79,1.42,6.21,1.63,9.33,6.13,7.3,12.3-5.3,16-15.47,27.66-32,32.76-3.15,1-6.17,2.24-9.55,2.73-12,1.71-20.53-4.29-23.17-16.2-2.37-10.71.76-20.29,5-29.81a118.13,118.13,0,0,1,22.7-33.19c10-10.51,22.21-12.09,35.61-9,2.59.6,5.14,1.39,7.73,2,3.92.93,4.23,3.33,2.53,6.36a7.47,7.47,0,0,1-5.89,4.15,13.69,13.69,0,0,1-4.47,0c-13.78-3.48-23,2-30.32,13.69-6,9.62-12.23,19-15.56,30a74.76,74.76,0,0,0-2.36,12.21c-.72,5.58,2.73,8.57,8.08,7.17,11.43-3,18.29-11.46,24.21-20.88,1.39-2.22.1-3.42-2.33-3.44-3.33,0-6.66,0-10,0-2.06,0-4.44-.31-4.15-3.07s-1.64-6,2.51-7.72C601.33,791.89,605.29,792.27,610.81,792Z" transform="translate(-36.98 -3.99)"/><path d="M243.86,239.87q0,36.47,0,72.94c0,4.53-.79,4.75-4.89,3-7.56-3.16-6.83-10.26-8-16.31s-1.7-12.06-2.39-18.11c-1.67-14.5.61-28.12,9.91-39.8,2.39-3,1.07-5.16-.51-7.07-6.87-8.29-9.9-18.37-13.18-28.25-2.55-7.69-3.1-15.9-4.56-23.85-1.34-7.3-1.14-14.68-2.7-22-1.8-8.45-.67-17.56-.53-26.37.06-3.09,2.27-2.52,3.71-1,8.45,8.87,17.54,17.27,22.33,29a16.21,16.21,0,0,1,.82,6.38v71.44Z" transform="translate(-36.98 -3.99)"/><path d="M660.78,101.21c-2.52,2.07-4.49,2.7-7.49,2-3.22-.75-6,2-8.12,4.68-.5.62-1,1.57.17,2s2.63,1.48,3.42-.36c1.34-3.14,3.33-1.18,4.2-.19,1.9,2.14-.66,2.06-1.77,2.66a1.16,1.16,0,0,0-.62,1.65c1.39,2,2.53-1.16,4.28,0-2.38,2.38-3.29,5.13-1,8.2.46.61.68,1.68-.36,2.1A2,2,0,0,1,651,123c-1.29-2.12-2-4.52-3.91-6.33-1.48-1.42-2.53-1.55-4.7-1a112.29,112.29,0,0,1-18.51,2.72c-2.84.17-4.91-2.2-5.93-5.25-1.21-3.64,2.28-4.42,3.67-6.28,1.08-1.44,3-.1,3,1.64.14,3,1.33,5.91,4.28,5.62,2.77-.27,4.89-2.81,5.06-6.24,0-1.06.89-2.08,1.5-3.43,2.59,3,5.64,2.42,7.88.27,1.86-1.8,1.42-4.85.3-7.07-1.37-2.74-8.58-3.21-11.37-.91-2.1,1.73-4,4.25-4.13-1.2,0-1-1.47-3.87-3.79-1-2.55,3.14-5-.15-7.51-.51-.68-.09-1-1.29-.65-2.15.51-1.16,1.62-1.06,2.58-.92a86.63,86.63,0,0,0,15.86.22c1,0,2.3.12,2.33-1.14s-1.27-1.11-2.27-1.3c-6.18-1.18-12.36,1.42-18.53-.11-.63-.15-1.56.13-1.92-.23-1.53-1.52-5.25-1.5-5-3.37.34-2.84,3.61-1.28,5.47-1.34,7.13-.26,14.27-.19,21.41,0,2.69.08,4.59-.41,5.24-4.5,1.13,3,2.19,4.34,4.56,4.24,2.67-.12,2.35-2.37,3.59-4.49.09,4.52,2.39,4.77,5.77,4.75,21.31-.18,42.62,0,63.94,0,1.25,0,3-.72,3.49.93s-1.4,2-2.36,2.79c-2.15,1.84-4.44,2.93-7.29,1.47-1-.5-2.12-.4-2.51.74-.49,1.43.72,1.55,1.73,1.66,3.2.38,2,2.65,1.47,4.11-.74,2.07-2.57,2.09-4,.79-2-1.79-4.72-.22-7.11-2.47-2.12-2-4.44,2.23-6.71,3.69-1.86,1.19-1.84,3-1.94,4.82-.12,2.19-.34,4.33-2.4,5.75-1.13.78-2.38,1.69-3.63.92-1.42-.87.15-2,.19-3,.16-3.41,2.18-5.93,4.28-8.15,1.91-2,2.48-3.51.18-5.29-1.31-1,.41-3.78-2.24-3.79-3.44,0-6.88.1-10.31.25-.27,0-.74.78-.71,1.17a1.27,1.27,0,0,0,1.35,1.18,16.73,16.73,0,0,0,3.47-.06c5-.92,5.84,1.57,5,5.76-.21,1,0,2.1-1.29,2.28a1.69,1.69,0,0,1-2-1.71c.35-4.8-1.92-3.15-4.91-2.8s-6.78,1.49-9.88-1.34c-1.73-1.58-3.77-1.4-4.14,1.7-.32,2.61-2.67,5-.42,7.91,1,1.27-.21,2.5-1.42,3.24s-2.54,1.2-3.76.4C659.38,105.27,661.67,103.48,660.78,101.21Zm10.13-11.7H660.55C664,91.42,667.46,90.42,670.91,89.51Zm-20.5,1.38c.9-.54,3.15.67,2.81-1.56-.24-1.6-2.15-2-3.62-2.11a1.74,1.74,0,0,0-2,1.82C647.61,90.89,648.76,91.24,650.41,90.89Z" transform="translate(-36.98 -3.99)"/><path d="M145.09,636.35c-1.38,1.29-1.07,2.73-1.35,4-.33,1.48-1.68,2.35-2.38,1.18-2.5-4.18-3.83-.31-5.46.74-2.28-1.33.14-4.14-2-5.29-.3.07-.68,0-.88.23-1.46,1.36.7,4.41-1.4,4.79-3,.54-1-2.86-2.2-4s-1.92-1.07-2.51.54c-.45,1.24.72,3.55-1.66,3.52-2.79,0-1.28-2.51-1.67-3.88-.92-3.29-3.62-.68-5.46-1.47-2.55-1.08-7.4-2.08-7,4a1.53,1.53,0,0,1-1.36,1.79c-1.34.11-1.68-.76-1.44-2,.21-1,.44-2.2-1.1-2.08a2.24,2.24,0,0,0-1.87,2.08c-.22,1.4.2,3.25-2.32,2.8-1.79-.33-3.16-.93-3.14-3.11,0-2.48-1.74-3.65-3.51-5.05-3.85-3-7.48-6.38-11.14-9.67-.7-.63-1.5-1.56-.79-2.59a1.91,1.91,0,0,1,1.75-.52c8.33,3.89,16.89,0,25.3.8.83.08,1.66,0,2.49.1,4.9.42,6,2.08,4.67,6.8-.28,1-2,2-.58,3,1.59,1.17,3.55.43,5.33.18,1.46-.21,1.48-1.47,1.76-2.64.55-2.23-2.7-5.11,0-6.36s6.12-.86,9.24-1a24.5,24.5,0,0,1,4,.49c1.27.14,3-.22,3,1.71s-1.45,2.44-3,2.72c-2.49.43-4.43-1.26-6.69-1.74-1.6-.33-3.08-.28-3.65,1.58-.48,1.58.53,2.35,1.81,3.07,4.54,2.57,9,4,13.9.69,1.8-1.23,3.09-2.42,3.06-4.7,0-2.56,1.36-3.48,3.8-3.44s3.11,1,3.37,3.32c.55,5,4.26,6.24,8.51,6.63,1.31.12,2.9.41,3.32-1.3A2.8,2.8,0,0,0,164,629c-4.55-1.4-5.4-2.88-2.31-7.32,1.64-2.35.37-6.79.22-10.28-.08-1.92-.09-3.61,1.72-4.85,2.63-1.8,2.66-4.2,1.81-7.07-.73-2.48-.65-5.43-3.8-1.52-1.05,1.3-1.94.73-2.57-.66-1.76-3.88.47-5.08,3.69-7,4.67-2.79,7.08-4.46,10.67,1.36,1.39,2.27,8.19-2.21,8.67-5.85.12-.94-1.62-2.33.54-2.73a3.88,3.88,0,0,1,2.82.38c1.24,1,.08,2.09-.46,3-2.44,4.34-.51,7.94,1.63,11.67-5.45,1.46-11.18,3-16.9,4.54-1.87.51-2,1.5-.71,2.82a7.76,7.76,0,0,0,1.53,1.28c2.54,1.47,7.43,1.28,4.77,6.45-1.46,2.84-1.81,6.61-5.73,7.66-1.63.44-2.4,2-1.54,3.05,3,3.66,3.26,10.27,10.26,9.71.86-.07,1.77.55,1.41,1.57-2.94,8.27-.61,16.8-1.36,25.17-.08.78-.05,1.67-1.5,2.07-1.54-3-1.08-6.24-1.12-9.4-.05-3.63,1-7.44-1-10.74-.66-1.06.39-6.14-3.65-2.39-4-6.13-5.16-1.16-6.92,1.72-.16.26-1,.35-1.34.2-.74-.29-.7-1-.45-1.66.57-1.51,1-3.2-1.25-3.42s-2.25,1.46-1.9,3.1c.29,1.37,0,2.45-1.63,2.27-1.31-.14-1.49-1.08-1-2.2s1-2.4-.76-2.77-1.82,1-1.87,2.21.57,2.65-1.31,2.58-1.21-1.4-1-2.55c.29-1.32-.46-3-1.61-1.68C147.14,641.09,146.81,637,145.09,636.35Z" transform="translate(-36.98 -3.99)"/><path d="M102.13,373.39c-7.8-2.84-9.21-9-8.23-15.84s3.66-12.94,6.5-19.19c2.06-4.54,2.81-10.25.24-15.38-1.79-3.58-3.19-7-1-11,1.63-3,.81-6.56.16-9.79-.45-2.22-1.79-4.22-4.55-3.39-1.94.58-3.66,1.43-2.18,4.31,1.16,2.27-1.93,2.64-2.87,4a1.84,1.84,0,0,1-2.7.27c-1.28-1.1-.29-2.52-.13-3.76a13,13,0,0,1,5.49-9.07,11.06,11.06,0,0,0,4.86-10.25c-.23-5.66-.08-11.33,0-17,0-1.12-.2-2.57,1.29-2.9,1.33-.29,1.56,1,1.81,1.9.72,2.8,3.45,2.84,5.4,3.93,1.19.65,3.4,0,3.24,2.28-.12,1.83.4,3.77-1.93,5.2-3.48,2.15-3,4.58.53,6.91,2.1,1.37,2,2.89-.68,3.52-1.1.26-2,.61-1.81,1.86.24,1.47,1.3,1.76,2.64,1.42,1.59-.4,3.33-.5,3.15,1.74-.18,2.08-1.82,1-3.08,1-3.38-.09-3.33,2.69-2.76,4.61,2,6.8,2,14.08,4.79,20.69.7,1.64,0,2.85-.72,4.18-.58,1-.58,2.12.87,2.16,4.94.15,3.17,3.52,1.49,4.55-4.38,2.68-2.79,6.11-2.68,9.81.32,10.32.11,20.66.11,31a51,51,0,0,0,1.41,9.73c1.55,8.14.45,16.35-1.92,24.36s-2.06,16-1.81,24.17c.19,5.93.9,11.85.22,17.8-.2,1.77-.93,2.79-2.66,3-1.43.2-3.2-.06-3.09-1.64.4-5.8-3.64-9.8-5.37-14.7-2.2-6.21-2.19-13,2.85-17.69,4.58-4.25,5.72-10.11,9.15-14.77.23-.31.25-1.21,0-1.36-3.84-2.68-.7-5.6-.38-8.43.41-3.52.5-6.39-1.17-10.33-2.19-5.18-5.14-12.06-2-18.34,2-3.94-2.93-5.94-1.83-9.35-2.52-.55-4.65,1.23-5.88,2.48-2.29,2.32-.26,1.91,1.44,1.35.5-.17.51.72.29,1.1C95.21,364.49,97.19,369.19,102.13,373.39Z" transform="translate(-36.98 -3.99)"/><path d="M645.62,288.73c-.9.68,0,2.61-1.54,2.62s-1.51-1.61-1.44-2.66c.69-10.24-3.22-19.75-4.59-29.67a4.76,4.76,0,0,0-.48-1.91c-1.48-2.34-4.84-5.41-3.41-7.08a78.46,78.46,0,0,1,5.66-6c2-1.85,2.45-5.65,6.58-4.5.65.18,1.71-1,1-1.74-4.18-3.92.88-3.84,2.22-4.48a17.12,17.12,0,0,1,7.14-2c7-.1,7-.16,12.13-5.27-2-1.43-5.1.25-6.59-2.34.14-.16.23-.35.32-.36,10-.77,13.49-1.45,8.89,11.7a8.44,8.44,0,0,0-.44,5.14c.81,3.58,2.28,7.07,1.55,11.08-.35,1.95-.17,5.05,2.92,6.2,2.59,1-.77,4,1.94,5.63,1.9,1.16,3,3.76,5.29,5.05a9.15,9.15,0,0,1,4.61,5,6.75,6.75,0,0,1-.71.62c-5.07-4.09-11.35-7.39-14.83-12.56-3.86-5.72-5.23-13.14-7.56-19.86a8.8,8.8,0,0,0-3.58-5c-1.75,6,1.12,11.16,1.83,16.49,1.5,11.38,9.18,19.83,15.17,28.93,2.72,4.12,7.2,7.17,11.16,10.35,1.79,1.44,3.83,2.4,4.72,5.92-2.15-1.57-3.54-2.55-4.89-3.58-.92-.71-2-2.25-2.68-2.09-6.08,1.34-7.1-4.41-10.12-7.15-3.46-3.13-5.3-7.52-7.49-11.58a31.82,31.82,0,0,0-6.88-8.78c-2.31-2.09-3.56-5.88-3.52-9.55q.07-5.75-.09-11.49c-.09-3.23-2.72-3.46-3.9-1.73-1.89,2.78-4.91,4.37-6.58,7.24-2.67,4.56-1.55,9.2-.64,14,1.42,7.42,3,14.83,3.25,22.42,0,.84.08,1.67,0,2.5-.07,2,2.69,4.91-.1,5.67C647.45,294.5,646.74,290.83,645.62,288.73Z" transform="translate(-36.98 -3.99)"/><path d="M181.29,609.32a6.42,6.42,0,0,1,1.67-.69c7.29-.8,7.76-6.61,9-12,.64-2.82,0-6,2.48-8.36.82-.78.78-2.49,0-2.61-3.5-.57-3-3.25-3.74-5.62-.86-2.91-3.21-4.41-6.49-4.4-7.83,0-8.87-1.25-8-9.38.26-2.44.73-4.86,1.06-7.3.57-4.14-2.78-7.11-4.65-9.6-2-2.66-2.15-6.06-4.55-8.31a2.38,2.38,0,0,1-.35-3.21,2.67,2.67,0,0,1,3.63-.58c3.92,2.51,6.71,1.71,9.26-2.19,1.4-2.14,3.81-1.48,5.75-.2.84.55,1.58,1.41,2.6.62a1.89,1.89,0,0,0,.35-2.7c-2.17-2.67-.27-3.65,1.69-4.88a6.22,6.22,0,0,0,2.83-4c.26-1.11-.71-3.15,1.48-3,1.53.13,3,1.74,2.71,3.12-1,4-.22,8.5-2.87,11.91-2,2.56-4.41,5.47-8.14,1.83-1.38-1.35-3.19-1-4.61,0a3,3,0,0,0-.64,4.43c5.19,7,6.52,16.09,13.32,22.49,4.68,4.4,6.92,11.19,9.1,17.47a3.09,3.09,0,0,1-.23,2.39c-3.08,4.48-2.71,10.21-5.47,14.77a9.87,9.87,0,0,0-1.57,6.68c.72,4.5-3.2,6.7-4.73,10.06-.65,1.42-2,.54-2.92-.25C186.73,613.73,184.93,610.57,181.29,609.32Z" transform="translate(-36.98 -3.99)"/><path d="M169.1,675.62c.2,4.46.38,8.92.62,13.37.06,1-.45,2.79,1.27,2.65s.7-1.82.81-2.83.22-1.92.41-3.48c1.57,1.89,1.24,3.45.94,5-.27,1.37.15,2.65,1.58,2.49,5.33-.61,5.35,4.54,7.75,7,1.46,1.52-.55,1.93-1.52,2-2.48.28-5,.26-7.47.45-8.37.64-16.81-.31-25.17,1.33-1.57.31-3.55-1.42-5.56-2.3,1.25-2.45,3.18-2.49,5.14-2.55,1.16,0,2.78,0,2.77-1.44,0-2.15-2-1.16-3.1-1.24-2.31-.16-4.36-.12-6.15,2.2-1.65,2.14-4.88,1-6.94.56a25.21,25.21,0,0,0-8.86-.24c-4.32.49-8.42,1.28-13,.1s-9.45,1.66-14.41,0c-2.68-.87-5.5.26-7.8,2.34-1.08-1.65.08-2.45.84-3,4.26-3.31,5-7.63,4.9-12.82-.32-14.46-.11-28.94.24-43.41,2,8.25.62,16.62.38,24.87-.17,5.47,3,10.15,2.25,15.51-.29,2.11.35,4.31-1,6.32-.74,1.13-1.28,2.67.43,3.38s2.14-.94,2.71-2.12a4.62,4.62,0,0,1,.89-1c1.32.37,1.14,1.59,1.61,2.39a1.84,1.84,0,0,0,2.57.77c1.63-.79.2-1.38-.19-2.18-1.66-3.45.28-5.36,3.35-5.27,13.75.44,27.49.07,41.23,0,3.81,0,7.65-.11,11.43.26,4.52.43,6.69-1,6-5.8a24.22,24.22,0,0,1,0-3.41Zm-17,16.4c1.94.17,3.85.59,5-1.37.63-1.07.69-2.43-.39-3.13-1.61-1-3.29-2.21-5.44-.83-2.41,1.55-5.1.29-7.63.27-1.84,0-3.41-.5-3.24,2.1.12,1.88.93,3.34,3.1,2.8C146.47,691.12,149.34,692.11,152.11,692Zm-31.73-3.52c.82,5.06,4.41,3,6.73,3.27,1.32.18,3.59.93,3.66-1.87.07-2.36-1.06-4-3.4-4a54.08,54.08,0,0,0-12.9,1.56,1.48,1.48,0,0,0-1.29,1.77c.1.55.6,1.47.94,1.49C116.32,690.77,119.35,693.35,120.38,688.5Zm15,3.29c1.68.22,3.31.3,3.28-2.25,0-2-.19-3.58-2.94-3.39-1.74.13-3.45-.25-3.45,2.26C132.3,690.43,132.67,692.14,135.41,691.79Zm27-5.63c-2.22-.33-3.55.44-3.3,2.87.12,1.15,0,3.52,1.67,2.56s5.17.41,5.15-3.21C165.9,685.86,164,686.27,162.39,686.16Z" transform="translate(-36.98 -3.99)"/><path d="M644.38,353c4.89-4.48,5.18-9.49,3.73-15l1.65.27c0,3.84.78,7.89-.14,11.49-3,11.69-.84,23.5-1.59,35.22,0,.17,0,.4,0,.49,5.89,6.22.33,13.5,1.86,20.13.2.87.41,2.23-.85,2.54-1.53.38-1.77-1-2.21-2.08-1.81-4.43-3.75-8.81-5.51-13.27a24,24,0,0,1-2.09-11,47.68,47.68,0,0,0-.64-12.42c-.52-2.83-1.06-5.95,1.4-8.52a3.53,3.53,0,0,0,.71-2.76c-2.21-10-2.8-20.22-3.92-30.36-.23-2.12-2-3.93-2-6.46,0-3.69.92-6.24,5-6.54,1.46-.1,2.68-.49,2.73-2.22,0-1.29-.47-2.29-2-2.38-2.44-.16-2-1.66-1.51-3.19.69-2.38,2-4.58,2-7.17a1.83,1.83,0,0,1,2-1.81,1.43,1.43,0,0,1,1.61,1.51c-.87,7.59,5,13.91,3.94,21.61-.3,2.18-.2,3.77-2.8,3-2.81-.78-3.62,1.05-3.24,2.85C644.34,335.37,643.35,344,644.38,353Z" transform="translate(-36.98 -3.99)"/><path d="M123.62,717.5c1.71,6.15,1.5,6.79-4.11,6.69-4.05-.07-8.87,2.88-12-2.27,0-.07-.58,0-.79.19-6.94,5-14.79,1.31-22.16,2.27-1.56.21-2.2-1.24-2.2-2.75,0-4.5-.1-9,0-13.49.07-4.08,3.4-4.36,5.69-3.34,5.81,2.59,12,2.34,17.88,2.34,5.61,0,11.3.24,16.91-.25,2-.18,4,.25,5.93.09,3.15-.25,2.94,2.95,3,4.21.09,2-2.32,3.48-4,4.2s-2.12-1.39-2.49-2.93c-.61-2.54-.52-3.2-3.86-1.16-4.12,2.52-2.25,5-2.43,7.6-.1,1.42-.28,3.44,1.77,3.47,1.79,0,1.44-1.86,1.6-3.12A1.69,1.69,0,0,1,123.62,717.5Z" transform="translate(-36.98 -3.99)"/><path d="M666.81,150.34a11.83,11.83,0,0,0,1.32-.55c1.73-1,3.86-1.78,3.64-4.2-.14-1.56-1.22-.57-2.16-.47-2.92.3-6.23-.47-7.21,3.53-.19.76,1.23,2.09-.36,2.33s-1.65-1.33-1.65-2.49c0-5,0-10,0-15,0-2.66,0-5.26-1.52-7.69-1-1.57-1.52-3.07,1.18-4.26,2.52-1.11,3.22-4.22,2.56-6.62s.59-3.52,1.82-4.69c1.72-1.64,2.1.25,3.22,1.2,1.56,1.31,1.85-.85,2.34-1.89,2.2-4.62,8-7.57,11.6-5.9,1,.46,1.72,1,1.61,2.22-.13,1.4-.93,1.39-2.11,1.1-2-.5-2.61,1-1.94,2.3,2.36,4.48-1.94,5.53-3.92,6.19-6.38,2.12-9.53,6.25-10,12.7-.4,5.9,2.67,10,7.37,13,1,.63,2.32.95,2.59,2.14.6,2.66,4.79,5.1,2.49,7.39C675.11,153.31,670.87,151.13,666.81,150.34Z" transform="translate(-36.98 -3.99)"/><path d="M150.07,710.2c-1.23,6.69-3.43,6-5.92,2.18-2.11.16-.82,3.57-3.13,3.12-3-.56-1.77-3.58-2.86-5.29-1.33-.35-1.08.86-1.44,1.44-.73,1.18-1,3.6-2.78,2.75-2-1,.5-2,.79-3.14.53-2-.39-3.48-2.3-5.76,4.29.92,7.69.29,10.43,2.21,1.52,1.07,2.06.87,3.61-.07,4.18-2.51,7.19-.59,7.55,4.19a34.52,34.52,0,0,1-.18,6.43c-.18,1.59-.83,4.1,2,4.15,1.31,0,4.38,1.94,3.61-2.28-.24-1.33,1.31-.63,2.22-.33,4.86,1.6,9.48,3.46,15,3.05,3.73-.27,5.88-1,7.17-4.35.46-1.17,1.33-2.2,2.63-1.65,1.06.45.75,1.71.49,2.68-.63,2.29-1.06,4.42,2.51,2.7,1.08-.52,1.58-.24,1.65.79s-.73,1.35-1.64,1.34c-4.15,0-8.29-.13-12.44-.13-15.38,0-30.77-.12-46.16.12-4.39.06-4.46-1.67-3.22-4.84,2-.1.46,2.75,2.52,2.53,1.65-1.33-.07-3.5,1.16-5,2.24-.15,2,5.57,6,2.46,1.25-1,.71,2.57,2.64,3.27,1.2-6.09,4.64-2.8,7.44-1.54,1.46.67,2.59,1.42,4,0a3.32,3.32,0,0,0,.76-4.43C151.4,715.25,151.07,713.42,150.07,710.2Z" transform="translate(-36.98 -3.99)"/><path d="M145.88,371.44c-1.32-1-2.42-2-3.65-2.76-2.94-1.87-5.23-3.53-.4-6.08,3.18-1.67,2.32-5,1.86-7.66-1.26-7.32-2.84-14.58-4.34-21.85-.5-2.41-1.07-4.79,0-7.63,2.66,1.83,2.43,4.34,2.69,6.71.21,1.93.07,4.89,2.19,5a5.83,5.83,0,0,0,6-3.51,8.62,8.62,0,0,1,6.67-5.85A33.56,33.56,0,0,1,148.76,339c-1.41,1.26-2.3,2.26-2.19,4,.07,1.12,1.38,2.16,1.87,1,1.31-3.23,5.9-2.72,6.25-6.7l1.47.68Z" transform="translate(-36.98 -3.99)"/><path d="M37.23,378.56c4.68,6.09,4.13,12.49,3.57,18.64-.82,9.21,1.28,18.18,2.35,27.09,1.19,10.06,1.91,20.35,4.06,30.14,2.3,10.51.66,20.69,1.77,31-2.49,0-2-1.49-2.08-2.48-.24-5.58-1-11.16-1.41-16.62-.55-7.74-2.06-15.34-2.6-23.06-.82-11.59-1.36-23.24-5.08-34.55-1.49-4.52-.51-9.88-.57-14.86S37.23,384,37.23,378.56Z" transform="translate(-36.98 -3.99)"/><path d="M148.72,232.65c3.26-4.83,8.74-7.3,10.07-13.72-3.95,1.83-7.11,3.75-9.18,7.26-.85,1.44-2.12,2.67-4,2.55a1.65,1.65,0,0,1-1.58-1.65c0-1.82,1.11-2.92,2.59-4,4.55-3.19,9.72-5.76,11.76-11.61.53-1.53,2.16-2.43,4.29-2.95,1.15,2.66.74,5.57.32,8.11a138.46,138.46,0,0,1-3.84,18.17c-1.64,5.32-5.79,7.88-10.13,10.36a2.25,2.25,0,0,1-3.58-1.37c-.55-1.68-.45-3.2,1.67-4,3.44-1.33,5.74-4.31,8.72-6.33.87-.6,2.15-1.55,1-2.81-.88-.94-1.78,0-2.59.57C152.61,232.31,151.15,233.91,148.72,232.65Z" transform="translate(-36.98 -3.99)"/><path d="M163,667.49c-4.33-4.66-1.13-9.81-1-14.76,0-1.19,1.2-3-.93-3.18-2-.19-2.2,1.49-2.2,3.15,0,1.42.67,2.94-.47,4.43-1.9-.68-.89-2.1-.87-3.23,0-1.56,1.32-3.53-.72-4.48a4.88,4.88,0,0,0-5.56,1,19.09,19.09,0,0,0-1.52,1.83c.11-3.86-.23-5.39-4.57-3.66-3,1.18-7.07.09-10.53-.65a31,31,0,0,0-10.72-.29c-5.75.78-6.6,2.81-4,8.17.78,1.57,1.39,3,1,4.71-.28,1.23-.9,2.26-2.28,2.24-1.68,0-1.55-1.36-1.61-2.53-.11-2.49-.24-5-.37-7.47-.1-1.92-.93-2.84-2.9-2-1.35.59-3.2,1.14-1.5,3.11,1,1.15.94,2.44,1.08,3.73s-.81,1.77-1.78,2c-1.47.39-1.57-.71-1.66-1.74-.2-2.15-.57-4.29-.59-6.43,0-3.36,1.73-5.42,5.14-5.44,15.48-.07,31,0,46.45,0,1.35,0,3,0,3,1.75.18,6.44,1,12.9-.23,19.32C163.81,667.25,163.31,667.35,163,667.49Z" transform="translate(-36.98 -3.99)"/><path d="M631.78,715.55c0,.17,0-1.16,0-2.49-.09-2.74.46-4.68,3.94-3.78a9.41,9.41,0,0,0,3-.17c6.55-.49,6.92,0,5.51,6.33-.77,3.48,1.16,6.76.91,10.24-.08,1.19-.76,3.11-1.28,2.26-2.24-3.66-3.58,0-5.3.16-2.81.28-5.55.47-6.24-3.64C631.87,722,632,719.51,631.78,715.55Zm6.6,4.48c.45.53-1.79,2.47.26,3.62a1.2,1.2,0,0,0,1.64-.65c.78-1.56,2.89-3.14-.29-4.62-.64-.3.38-1.39,1-1.92a3.92,3.92,0,0,0,1.63-3.4c-.14-1.23.22-2.87-1.62-3.11s-2.26,1-2.28,2.5C638.63,714.71,636.8,716.77,638.38,720Z" transform="translate(-36.98 -3.99)"/><path d="M292,122.74c-2.63-8.09-5.07-15.37-7.77-22.3-2.28-5.86-2.42-13-7.51-17.81-1.63-1.53-1-3.73-1-5.69-.07-2.27.53-4.68-1.38-6.6-.69-.69-1.42-1.79-.2-2.47,1.05-.58,1.89.42,2.35,1.29.85,1.6,2.16,3.28,2.19,4.94.16,7.55,4.1,13.75,6.72,20.42,3.21,8.18,6.83,16.26,7.29,25.23A14.16,14.16,0,0,1,292,122.74Z" transform="translate(-36.98 -3.99)"/><path d="M682.35,359.21c-1.06-1.87.16-3.91-1.31-5.38-1.31-1.3-2.35-3.36-4-.33-.41.77-1.08,1.42-2,1.11-1.31-.45-.92-1.64-.66-2.53,1.49-5,1.8-10.11,5.14-14.8,1.41-2,4.15-5.15,3.64-8.78-.21-1.46.84-2.18,2.18-1.91s1.29,1.54.83,2.39c-2,3.78-1.12,7.78-1.09,11.72,0,.33.18.76,0,1C681.38,346.93,684.23,353.29,682.35,359.21Z" transform="translate(-36.98 -3.99)"/><path d="M662.3,159.09c4.11,1.87,5.19,6.24,2.35,9.38-.82.9-1.73,1.68-3,1.29s-1.2-1.44-1.24-2.45c-.11-3.31-.42-6.63-.29-9.92.13-3.11,2.34-3.72,4.93-3,5.41,1.4,10.6-.72,15.9-1,1.65-.1,2.67-.17,3.79.91s.82,2,.46,3.21c-.75,2.47-2.11.16-3.09.45-5.86,1.68-11.68.22-17.51-.11C663.69,157.73,662.54,157.73,662.3,159.09Z" transform="translate(-36.98 -3.99)"/><path d="M729.15,722.73c.89,1,1.41,1.64,2,2.19.76.7,1.1,2.5,2.6,1.51,1-.62.65-1.84,0-2.68-1-1.27-.48-2.26.07-3.6,2.16-5.36,1.44-6.92-3.83-9.66a1.54,1.54,0,0,1-.79-1c0-1,.86-1.34,1.71-1.4,2.07-.14,4.65.6,4.05-3.13-.18-1.12.88-1.19,1.75-.84,3.61,1.46,7.06,8.72,6.11,12.69-.27,1.1-.66,1.93-1.92,1.76s-2.43-.34-2.54-1.87a17.33,17.33,0,0,1,.17-2.48c.06-1.2,2.68-2.8.09-3.46-2.06-.52-2.45,1.84-2.52,3.49-.13,2.8-.08,5.61,0,8.41,0,1.83.35,3.42,2.85,2.89,1-.22,2.09-.15,2.07,1.29,0,1.05-.88,1.29-1.75,1.29q-7.22,0-14.44,0c-.91,0-1.65-.43-1.49-1.5.2-1.29,1.1-1.79,2.12-1C728.89,728.15,727.92,724.22,729.15,722.73Z" transform="translate(-36.98 -3.99)"/><path d="M662.92,650.34c-.22,6.16-4.78,12-1.25,18.51a4.59,4.59,0,0,1-.43,4.24c-2.72,2.8-1.77,5.66-.73,8.54.35,1,1.24,1.73-.15,2.34-1.13.51-1.75-.3-2.31-1.25-2.42-4.11-1-8.69-1.51-13-.54-4.59-.1-9.29,0-14C656.65,649.6,656.68,649.6,662.92,650.34Z" transform="translate(-36.98 -3.99)"/><path d="M87.8,610.84c4.6.26,8.66-1.21,12.4,1.53,1.31,1,3.2-.56,4.53-1.43,2-1.27,3.12-.49,4,1.11,1.33,2.35-.78,2.43-2.1,3.37-2.82,2-5.48.19-8.14,0-4.73-.28-9.42,1.37-14.18-.17a8.54,8.54,0,0,0-6.29.78c-1.64.81-3.49,1.15-3.88-1.19-.34-2,1.64-1.72,2.84-1.74C81,613.07,84.18,609.16,87.8,610.84Z" transform="translate(-36.98 -3.99)"/><path d="M674.43,318.92c-3.72.22-7.72-3.4-8-7.22a2.36,2.36,0,0,1,1.1-2.55c1.11-.6,2,0,2.59.84,3,4,7.58,5.82,11.69,8.23,2.36,1.38,2.86,3.2.84,4.67-5.14,3.75-8.87,8.6-12.19,13.88-.56.88-1,2.51-2.5,1.43-1-.7-.48-1.86.09-2.69,2.62-3.79,4.17-8.4,8.41-10.94,1.67-1,3.17-2.18,2.27-4.36C677.89,318.23,676.12,318.49,674.43,318.92Z" transform="translate(-36.98 -3.99)"/><path d="M139.66,214.81c-3.3-6.48-2.34-12.36-3.33-17.88-.15-.82.59-1.43,1.39-1.86,5.38-2.85,5.46-3.23,1.9-8.06,2.46-.9,4.58-2.55,7.78-2.33-3.71,1.27-3.82,3.61-2.58,6.48a2.66,2.66,0,0,1,0,2c-2.54,5.44-3.38,10.68-.57,16.54C145.27,211.87,140.73,211.42,139.66,214.81Z" transform="translate(-36.98 -3.99)"/><path d="M653.73,462.33c2.68,2.8,2.75,6.48,3.78,9.77.79,2.51.71,5.33,1.72,7.71,1.58,3.7.53,6.05-2.73,7.86-1.11.62-1.8,2.53-3.18,1.95s-1.64-2.5-1.39-4C653.22,478,652.76,470.19,653.73,462.33Z" transform="translate(-36.98 -3.99)"/><path d="M702.23,653.69c-3.32-3.38-4.76-1-6.27,2.42-1.55-3.94-4-4.64-7.3-4.44-4.62.28-9.25-.29-13.88.83-2.81.67-5.44-.87-8-2.69q12.62,0,25.24,0,9,0,17.9.12c1.26,0,2.92-.57,3.25,1.31a3.47,3.47,0,0,1-.76,2.76c-1.73,1.54-2-.77-2.92-1.36-1.78-1.11-4.16-1.12-4.72.79-.84,2.88-4.32,3.12-4.92,5.95-.16.75-.93,1.58-1.82.74a1.83,1.83,0,0,1-.14-1.76C699.49,656.91,699.37,654,702.23,653.69Z" transform="translate(-36.98 -3.99)"/><path d="M718,581.31c-1.3,7.06-2.43,13.32-3.64,19.56a2.31,2.31,0,0,1-1.23,1.36c-1,.4-8.81-3.84-9-4.82-.3-1.33.53-2,1.66-1.7,3.87.89,4-2.48,4.59-4.46.65-2.28-.6-5.45,1.17-7.08C712.89,582.91,715.73,583.36,718,581.31Z" transform="translate(-36.98 -3.99)"/><path d="M162,714c.72-1.19.1-3.18,2.09-3.62.54-.12,1,.52,2.51,3.39,2.1-.92,1.43-2.79,1.31-4.24-.21-2.65,1.34-3.81,3.46-3.95,2-.14,4,.35,4.55,2.89.23,1.11.72,2.16,1,3.27,1.19,5.27-.15,6.32-5.41,6.43-2.11,0-3.78-2.15-6.05-.61-1.39.95-1-.44-.83-1.14.55-2.43-1.5-2.08-2.75-2.59Z" transform="translate(-36.98 -3.99)"/><path d="M678.6,640.84c-1.6.34-1.1,1.54-1.27,2.43-.51,2.73-2.68,2.17-4.34,1.92-2.49-.37-1.28-2.2-1-3.51,1.28-5.57.52-6.44-5.46-6-.93.06-2-.08-1.83-1,.36-2.3,1.24-4.61,3.2-5.93,2.18-1.47,2.82.84,3.56,2.16a9.18,9.18,0,0,0,6,4.88c.94.23,1.73,1,2.67,1.31,3.07,1,3.55,3.29,3.11,5.93s-2.58,2.9-3.61.28C679.29,642.43,679.75,641.24,678.6,640.84Z" transform="translate(-36.98 -3.99)"/><path d="M126.06,678.79c-5.54,1.52-9.86,1.07-14.11,1-1.56,0-1.86-1.64-1.87-3,0-4,0-7.94,0-11.91,0-1-.16-2.29,1-2.46a3.85,3.85,0,0,1,2.6,1.06c2.81,2.51,2.41,5.66,1.19,8.68-1.58,3.89-.85,5.11,3.56,4.45C120.41,676.27,122.65,677.73,126.06,678.79Z" transform="translate(-36.98 -3.99)"/><path d="M674.64,381.59c.4-3.86,5.63-5.44,4.65-10.1.87,5,3.58,9.23,4.74,13.87s1.74,9.62-2,14.21a6.25,6.25,0,0,1-1.74-6.25c.65-2.85-.1-5.57-.16-8.35-.11-4.6-2-5.14-5.59-3.48Z" transform="translate(-36.98 -3.99)"/><path d="M168.48,641.55c3.75,6.55,4.8,12.81,3.51,18-1,3.93.83,7.37-.42,10.93-.32.9,0,2.09-1.25,2.3s-1.38-1.08-1.79-1.93c-1.28-2.7-.19-5.68.07-8.16C169.27,656,167.36,649.54,168.48,641.55Z" transform="translate(-36.98 -3.99)"/><path d="M77.42,348.29c-3.8-5.77-3.81-7.43.42-12.08,3.07-3.38,3.91-7.54,4.57-13,3,6.31-.69,12,1.52,17.5-1.56.32-4.1-1.61-5,1.48C78.3,344.19,79.25,346.56,77.42,348.29Z" transform="translate(-36.98 -3.99)"/><path d="M695.39,639.52c-3.07-.62-4.52.68-4.54,3.79,0,1.35-1.23,1.91-2.52,1.8a1.69,1.69,0,0,1-1.59-2.08c.36-3.45-1.38-7.28,2.23-10.13,2.17-1.71-1.19-4.41,1-6.74,2.35,2.67,5.63,4.77,3.12,9C691.41,638,695.36,637.35,695.39,639.52Z" transform="translate(-36.98 -3.99)"/><path d="M252.14,237.36c1.53.18,3.77-.76,4.86,1.07,1.25,2.13-1.12,3.18-2.19,4.45-1.88,2.22-1.08,4.72-1.13,7.15,0,1.33,0,2.9-1.92,2.79-1.51-.08-1.58-1.44-1.65-2.61-.17-2.61.24-5.17-1.15-7.73C246.27,237.53,246.48,237.37,252.14,237.36Z" transform="translate(-36.98 -3.99)"/><path d="M713.56,728c-1.56-1.14-4.32,1.48-5.52-1-.48-1-1.52-4.31.49-4.07s4.76-3.76,6.2.63c.3.92.5,2.19,1.8,2,1.5-.25,1.29-1.59,1.36-2.77.22-3.62.53-7.23.85-10.85.08-.83.32-1.73,1.38-1.73s1.09.87,1,1.75c-.28,4.72-.46,9.45-.8,14.17C720.2,728.16,720.06,728.15,713.56,728Z" transform="translate(-36.98 -3.99)"/><path d="M712.2,110.83c-1.11,2.67.14,3.75.12,5.07s.25,2.88-1.53,3.15a2.31,2.31,0,0,1-2.54-2.46c.37-6.33-3.8-8.38-8.75-9.89a2.67,2.67,0,0,1-1.31-1.3c-.12-.24.49-1.17.58-1.14,2.67.77,5.7-1.71,8,.38S712.45,108.06,712.2,110.83Z" transform="translate(-36.98 -3.99)"/><path d="M153.76,603.57c-7.83-4.12-7.67-12.22-12.24-17.14.88-1,1.77-.45,2.49-.65,5.13-1.39,8-1.27,4.63,5.23-.67,1.3,1.2,4.17,2.34,6.06A39.25,39.25,0,0,1,153.76,603.57Z" transform="translate(-36.98 -3.99)"/><path d="M646.83,505.13c-.85,4.47,2,5.74,3.34,7.88.56.88.85,1.94,0,2.7s-1.47-.85-1.74-.78c-4.17,1-8.13-3.17-12.47-.37C636.8,508.78,642.92,509.52,646.83,505.13Z" transform="translate(-36.98 -3.99)"/><path d="M152.67,304.77c3,4.18,4.61,7.86,2.45,12.14-.76,1.51-1.83,3.13-3.72,2.7-1.55-.35-1.27-2.11-1.34-3.42A22,22,0,0,1,152.67,304.77Z" transform="translate(-36.98 -3.99)"/><path d="M75.09,314.36c1-5.19-4.33-10.82,1.66-15.57,1.42-1.13,2.58-2.63,4.43-2.78,1.07-.08,1.06,1.29.83,1.93-.72,2.05-.69,4.81-3.37,5.39-1.21.26-2.29-.25-1.94,1.66s3.47,3.17,1.33,5.09C76.62,311.34,76.37,313,75.09,314.36Z" transform="translate(-36.98 -3.99)"/><path d="M661.44,638.06c-.75,1.1-1.06,1.47-1.28,1.88-.69,1.33.09,3.8-2.27,3.77-1.42,0-1.42-1.81-1.08-2.83.67-2,.39-5.3,3.62-5,2.34.21,4.53,1.45,7.07,1.69s.6,3,1.15,4.66c.63,1.8-1.54,2.28-2.88,2.66-2,.56-1.82-.95-2.11-2.33S662.43,640,661.44,638.06Z" transform="translate(-36.98 -3.99)"/><path d="M674.56,381.49c2.33,4.45.18,9.05.16,13.55,0,1.29-3.31,2.87-5.35,3.71-.9.37-1.13-1.16-.78-2.23a79.42,79.42,0,0,1,6.06-14.91Z" transform="translate(-36.98 -3.99)"/><path d="M700.5,643.61a28.51,28.51,0,0,1-.94-13c.21-1.67,1.75-2,3.08-1.25,1.69.92,4.48,3.14,3,4.13C701.77,636.14,703.23,640.58,700.5,643.61Z" transform="translate(-36.98 -3.99)"/><path d="M652.26,301.55a2.64,2.64,0,0,1-.08-.49c0-1.56,1.1-2.24,2.28-1.75,3.06,1.25,6.17,2.76,7.16,6.27.4,1.43-.88,2.14-2.23,1.42-1.69-.9-2.13-.51-1.7,1.25.22.94,0,1.64-1.06,1.76s-2-.11-2.35-1.29C653.58,306.34,652.93,303.94,652.26,301.55Z" transform="translate(-36.98 -3.99)"/><path d="M94.56,124.6c4-1,8.12-1.29,6.79-6.7-.23-.94,1.08-2.05,2.38-2.08,1.76,0,1.65,1.39,1.54,2.48-.28,2.82,1.26,6.35-2,8.15C100.63,128,97.63,127.72,94.56,124.6Z" transform="translate(-36.98 -3.99)"/><path d="M709.4,568c-.18,1.09-.25,1.68-.38,2.25-.3,1.26-.5,3-2.32,2.31-1.36-.51-.72-1.92-.34-3,.84-2.46,2.5-4.59,2.42-7.44,0-1.76,1.59-2.18,2.87-1.39s3.67,1.22,2,3.47a7.4,7.4,0,0,0-1.14,4.19c-.09,1.09.52,2.67-1.14,2.77C710,571.22,710.4,569.31,709.4,568Z" transform="translate(-36.98 -3.99)"/><path d="M188.83,716c-.21-2,1.56-3,.8-4.64-.49-1-.6-2.47-2.12-2.3-1.7.2-.72,1.45-.62,2.29s.37,1.79-.68,2a1.71,1.71,0,0,1-1.92-1.28c-.55-2-1.76-4,.76-5.75,2.71-1.86,4.81-.77,6.53,1.22S192.08,714,188.83,716Z" transform="translate(-36.98 -3.99)"/><path d="M637.92,555.34c-2.73.13-4.71.06-5.13-1.87-.5-2.29,1.54-2.42,3.22-2.76,2.43-.49,4.82-1.15,7.22-1.78.82-.22,1.75-.57,2.3.19.71,1,0,1.94-.69,2.64A12.43,12.43,0,0,1,637.92,555.34Z" transform="translate(-36.98 -3.99)"/><path d="M642.25,620.7c-1.82,5.23,2.32,7.46,4.64,10.6.9,1.22,2,2.69.42,4-1.71,1.39-2.43-.56-3.58-1.4-3.45-2.5-6.89-4.76-2.82-9.53C641.48,623.65,640.51,622.08,642.25,620.7Z" transform="translate(-36.98 -3.99)"/><path d="M101.09,674.07c0-7.6,0-14.5,0-21.41,0-1.19-.27-3.13,1.75-2.75,1.58.29.67,1.86.66,2.94-.08,5.14.07,10.28-.23,15.4C103.2,670,103.53,672.24,101.09,674.07Z" transform="translate(-36.98 -3.99)"/><path d="M630,548.79c0,1.61-.77,3-2,2.47a8.08,8.08,0,0,1-5-6.14c-.42-2.55,1.88-3.64,3.84-4.57.81-.38,2.08,0,1.85.88C627.93,544.24,629.36,546.56,630,548.79Z" transform="translate(-36.98 -3.99)"/><path d="M105.68,465.1c.88-2.18-.1-3.66-1.39-5a3.22,3.22,0,0,1,0-4.83c.81-.92,1.34-2.61,3-1.91,1.32.55.74,2,.74,3.1a21.39,21.39,0,0,0,1,7.77,4.55,4.55,0,0,1-.95,4.62,1.28,1.28,0,0,1-1.26.22C105.39,468,105.85,466.37,105.68,465.1Z" transform="translate(-36.98 -3.99)"/><path d="M145.62,447.15a134.83,134.83,0,0,1,1-32.43c.17-1.17.28-2.69,1.7-2.54,1.58.15,1,1.81,1.05,2.87.09,2.51-1.13,4.83-1.78,7.1C145.22,430.43,146.27,438.84,145.62,447.15Z" transform="translate(-36.98 -3.99)"/><path d="M82.34,319.83c-.73-2.06-1.26-3.79-2-5.45-.39-.9-1.3-1.76-.38-2.67,1.19-1.18,1.93.91,3.46.54-.74-2.72-2.16-5.44-.75-8.91C85.18,309.07,88.07,314.23,82.34,319.83Z" transform="translate(-36.98 -3.99)"/><path d="M133.54,666.56c2.71,2,5.67,4.52,2.89,7.14-1.94,1.82.3,8.46-6.28,5.6C135.17,676.05,131.76,671,133.54,666.56Z" transform="translate(-36.98 -3.99)"/><path d="M94.23,467.18c3.49,3,4.44,11.54,2.09,13.91a2.2,2.2,0,0,1-1.64.72c-.46-.12-1.16-1.12-1-1.39C95.56,476.3,93.41,472,94.23,467.18Z" transform="translate(-36.98 -3.99)"/><path d="M150.55,663.65c3.62,3.42,3.44,8.25,5.09,12.37A2.73,2.73,0,0,1,153,679.5c-2.74,0-1.22-2.06-1-3.27C152.72,671.91,150.92,667.92,150.55,663.65Z" transform="translate(-36.98 -3.99)"/><path d="M701.09,720.58a3.18,3.18,0,0,1,.36-1.5c1.18-1.55.88-5.21,3.53-4.4,2.43.75-.34,3-.28,4.68.08,2.14,0,4.28.12,6.42,0,1,.46,2.06-1.09,2.18-1.12.08-1.81-.22-1.87-1.61C701.78,724.56,701.4,722.77,701.09,720.58Z" transform="translate(-36.98 -3.99)"/><path d="M243.8,328.93c.13,2.06-.77,3.28-2.86,3.07a5.36,5.36,0,0,1-4.94-4.78c-.37-2.31,1.84-2.32,3.47-2.34C242.17,324.85,243.94,325.93,243.8,328.93Z" transform="translate(-36.98 -3.99)"/><path d="M154.88,476.41c3.55,4.81,1,9,1.85,12.94a.92.92,0,0,1-1.37.89,13,13,0,0,1-3.51-2.6c-.53-.63.5-.93,1.17-1,1.8-.14,1.81-1.08,1-2.31C152.26,481.77,154.34,479.81,154.88,476.41Z" transform="translate(-36.98 -3.99)"/><path d="M727.57,575.59c-1.16,1.76-2.41,4.31-4.28,6.29-1.3,1.38-2.78-.35-3.75-1.27-1.22-1.16-.24-2.18,1-2.55,2.25-.69,2.61-2.76,3.64-4.38a1.83,1.83,0,0,1,2.49-.91C727.44,573.18,727.66,574,727.57,575.59Z" transform="translate(-36.98 -3.99)"/><path d="M161.89,713.84c.1,2.5-1.35,3.22-3.49,2.85-1.83-.32-2.21-1.79-2.08-3.39a25.55,25.55,0,0,1,.6-4.89,2.6,2.6,0,0,1,3.61-1.67c2.37.88.46,1.93-.09,2.93-1.11,2-1.41,3.81,1.6,4.35Z" transform="translate(-36.98 -3.99)"/><path d="M702,694.59c-.75-2,.55-5.87-3.7-3.66-1,.51-2.64-1-2.56-2.44.1-1.65,1.85-1.31,2.79-1.06,2.09.56,5-1.63,6.21,1.26C705.51,690.66,704.73,692.94,702,694.59Z" transform="translate(-36.98 -3.99)"/><path d="M169.9,512.86c4.08,4,7.37,7.42,3.83,11.06-2.59,2.67-2.26-4.12-6.53-2.36C169.83,518.69,171.65,516.91,169.9,512.86Z" transform="translate(-36.98 -3.99)"/><path d="M102.11,158.44c-1-3.38-3.76-4.72-4.23-7.57-.11-.61.76-1.57,1.14-1,2.19,3,7.54.6,8.49,4.23C108.05,156.17,103.7,155.66,102.11,158.44Z" transform="translate(-36.98 -3.99)"/><path d="M97.12,521.92c-2.72,1.06-6.29,1.68-7.46-1.23-.56-1.39,3.35-2.78,5.92-2.85,2.27-.07,4.1.43,4.22,3C99.91,523,98.68,522.93,97.12,521.92Z" transform="translate(-36.98 -3.99)"/><path d="M711.38,664.84c2.35,4.27,1,8.69,1.16,13a1.09,1.09,0,0,1-1.35,1.09c-1.11-.14-2.2-1.36-1.94-1.94C711,673.12,710.65,668.91,711.38,664.84Z" transform="translate(-36.98 -3.99)"/><path d="M90.46,108.8c.59,3.22,1.45,5.86,4.11,7.82,1.13.83,2.27,2.49.69,3.82-1.76,1.48-2.7-.6-3.51-1.56C89.16,115.83,87.23,112.54,90.46,108.8Z" transform="translate(-36.98 -3.99)"/><path d="M119.82,274.89c.92,2.1.13,3.6-1.83,4.41a2.66,2.66,0,0,1-3.49-1.12c-1-1.91-1.69-4.1-.9-6.18.46-1.21,1.71-.49,2.49.15,1.25,1,2,2.77,3.87,2.88Z" transform="translate(-36.98 -3.99)"/><path d="M645.4,561.46c1.42,1.93.21,3.53-.89,4.83-1.46,1.72-2.75,3.29-2.09,5.74a1.35,1.35,0,0,1-1,1.9c-1.13.22-2.19-.24-2.26-1.35-.13-2.1-1.64-4.81,1.64-5.88C643.41,565.84,642.12,561.74,645.4,561.46Z" transform="translate(-36.98 -3.99)"/><path d="M133.55,231.87c4.8-1,7.89,1.77,11.48,1.49,1.21-.09.95,1.75,0,2.09-2.16.74-4.36,2.78-6.72.09C137.22,234.35,135.73,233.54,133.55,231.87Z" transform="translate(-36.98 -3.99)"/><path d="M104.63,489.73c-3.54-6.08,1.85-9.73,3.83-14.34C108.88,480.58,105.71,484.9,104.63,489.73Z" transform="translate(-36.98 -3.99)"/><path d="M747.7,452.48c-.34,1.37.7,3.94-1.68,3.86-2.8-.1-2.82-3.37-3.68-5.28s1.28-2.33,2.75-2.43C748,448.42,747.59,450.59,747.7,452.48Z" transform="translate(-36.98 -3.99)"/><path d="M660.78,281.71c-.69-4.82-6-8.33-3.58-14.31,2.14,3.47,1.21,7.75,5.32,9.89C664.75,278.46,661.27,280,660.78,281.71Z" transform="translate(-36.98 -3.99)"/><path d="M576.36,226.52c.15-1.13-.82-3.35,1.36-3.26s3,2.39,3,4.42c0,1.81-.26,3.8-2.65,4C576.72,231.8,576.4,230.74,576.36,226.52Z" transform="translate(-36.98 -3.99)"/><path d="M733.53,574.35c1.28.63,3.17,1.3,2.26,3.07a13,13,0,0,1-6.11,5.55,1,1,0,0,1-1.47-.74C728,581.19,732.49,574.36,733.53,574.35Z" transform="translate(-36.98 -3.99)"/><path d="M669.33,714.93c.88,2.51-1.8,4.61-1.6,7.34.07.94,0,2.23-1.49,2a1.94,1.94,0,0,1-1.48-2.3,9.39,9.39,0,0,1,1.52-4.14c1.3-1.55,2.16-2.76,1-4.8-.52-.92-.72-2.57,1-2.68,1.25-.09,1.24,1.31,1.27,2.28C669.54,713.27,669.42,713.94,669.33,714.93Z" transform="translate(-36.98 -3.99)"/><path d="M179.55,512.65c.08,1.56-.93,4-1.61,3.49-1.45-1.13-4.05-1.89-4-4.07,0-1.64,1-3.9,3.19-3.69S179.5,510.76,179.55,512.65Z" transform="translate(-36.98 -3.99)"/><path d="M629,558c-.76,3.24-2.08,5.44-5.18,5.89-.92.13-1.92-.51-1.49-1.4,1.2-2.45,1.91-5.54,5.19-6.14A1.34,1.34,0,0,1,629,558Z" transform="translate(-36.98 -3.99)"/><path d="M725.88,601.18c-.63,1.74-1.85,3-1.53,4.93.63,4-2.78,3.72-5.09,4.51a1.11,1.11,0,0,1-1.5-.87,1.09,1.09,0,0,1,1-1.41c2.68-.19,2.93-1.35,2.6-3.92C721,601.62,724,602,725.88,601.18Z" transform="translate(-36.98 -3.99)"/><path d="M723.26,714.52c0-.75,0-1.73,0-2.71s.44-1.59,1.45-1.56c.76,0,1.07.6,1.21,1.29.54,2.54-.45,5.25,1,7.73.34.59-.59,1-1.25,1.15a1.71,1.71,0,0,1-2.07-.88A6.68,6.68,0,0,1,723.26,714.52Z" transform="translate(-36.98 -3.99)"/><path d="M683.15,714.53c2,4.35-.9,8.28,0,12.08.24,1-.27,1.14-3.67,1.07C683.42,724.41,679.66,718.86,683.15,714.53Z" transform="translate(-36.98 -3.99)"/><path d="M141.88,609.18c1.88.21,4.56-.28,4.32,2.17s-2.94,1.09-4.51,1.19c-1.39.1-3.93,1.1-3.93-1.32S140.34,609.38,141.88,609.18Z" transform="translate(-36.98 -3.99)"/><path d="M648.15,557.43c.05,0-1.42.14-1.15-1.18a6.07,6.07,0,0,1,4.76-5c1.09-.24,2.22.62,1.86,1.66C652.89,555,652,557.14,648.15,557.43Z" transform="translate(-36.98 -3.99)"/><path d="M183.27,625.25c-.86,1.67-2.08,3.24-4.08,2.77-1.72-.39-4.76-.33-4.45-2.78s3.23-1.31,5-1.51C181,623.59,182.83,623,183.27,625.25Z" transform="translate(-36.98 -3.99)"/><path d="M163,669.66c2.67,3,1.57,6.22,1,9.21-.21,1.14-1.65,1.62-2.87,1.06-2-.93-.35-1.73.19-2.54C162.8,675.15,161,672.22,163,669.66Z" transform="translate(-36.98 -3.99)"/><path d="M650.56,583.07c-.25-3.7,1.51-5.18,2.6-6.9.92-1.46,2.58-1.76,3.73-.4a2.34,2.34,0,0,1-1,3.69A11.66,11.66,0,0,0,650.56,583.07Z" transform="translate(-36.98 -3.99)"/><path d="M83.36,349.16V360C81.45,356.16,81.45,356.16,83.36,349.16Z" transform="translate(-36.98 -3.99)"/><path d="M108.58,175.48c.81,2.21,1.66,4.37,2.4,6.58.31.95.37,2.37-.52,2.68a8.43,8.43,0,0,1-3.87,0c-1.39-.25-.23-1.79.45-2.67C108.54,180.13,106,177.4,108.58,175.48Z" transform="translate(-36.98 -3.99)"/><path d="M658.41,628.28c0,1.79-.94,2.58-2.51,2.5s-2.32-1.19-2-2.71c.32-1.74.31-4.42,2.4-4.38C659,623.75,656.85,627.16,658.41,628.28Z" transform="translate(-36.98 -3.99)"/><path d="M650.87,598c-.92,1.11,1,4-2.13,3.9a2.12,2.12,0,0,1-2.07-2.75c.44-1.77,1.42-3.52,3.47-3.55C651.55,595.59,651.14,597,650.87,598Z" transform="translate(-36.98 -3.99)"/><path d="M647.09,474.64c1.46,3.26.6,6.69.82,10,.05.8-.31,1.75-1.38,1.64s-1.11-1.09-.83-1.88C646.82,481.28,646,477.91,647.09,474.64Z" transform="translate(-36.98 -3.99)"/><path d="M787.4,564.86c1.05,1.72,4.4,1,4.82,3.74.21,1.4-1.27,1.77-2.5,1.6a5,5,0,0,1-4.59-3.76C784.85,565.35,785.87,564.75,787.4,564.86Z" transform="translate(-36.98 -3.99)"/><path d="M715,103.43c-1-1.78-4.43.77-4.81-2.41-.12-1,1-2.64,2-2.34a14.61,14.61,0,0,1,5.33,2.87C718,101.88,716.57,103.35,715,103.43Z" transform="translate(-36.98 -3.99)"/><path d="M128.79,740.67c1.92-2.26,7.53-3.09,2.21-8,2.78-.1,5.07.73,4.35,2.83C134.46,738.14,133.1,741.61,128.79,740.67Z" transform="translate(-36.98 -3.99)"/><path d="M709.57,206.23c-4-2.58-4.23-7.08-7.2-10.45C705.22,196.82,708.59,201.92,709.57,206.23Z" transform="translate(-36.98 -3.99)"/><path d="M145.64,669.29v9.45C144.24,675.67,143.53,672.53,145.64,669.29Z" transform="translate(-36.98 -3.99)"/><path d="M679.12,716.15c1.6,3.39-1.32,5.36-1,8,.07.67-1.67.34-2.05-.76C675,720.36,676.88,718.56,679.12,716.15Z" transform="translate(-36.98 -3.99)"/><path d="M688.72,130.78a42.87,42.87,0,0,1-5,1.95,1.17,1.17,0,0,1-1.3-1.59c.72-1.91,2.61-2.39,4.35-2.67C687.8,128.29,688.45,129.28,688.72,130.78Z" transform="translate(-36.98 -3.99)"/><path d="M677.24,134.89c-1.31.85-1.66,3-3.57,3.34-1.15.19-1.7-.94-1.64-1.95.12-2.28,1.89-2.82,3.72-3.05C676.63,133.12,677.29,133.61,677.24,134.89Z" transform="translate(-36.98 -3.99)"/><path d="M134.61,188.23c-1,1.33-2.07,2.73-3.88,2.53a2,2,0,0,1-1.61-2.63c.47-1.82,2.1-1.86,3.59-1.69C133.65,186.55,134.71,186.8,134.61,188.23Z" transform="translate(-36.98 -3.99)"/><path d="M647.82,439.23c-2.75-4.6.9-7.44,1.61-10.81C650.44,432.1,649.44,435.42,647.82,439.23Z" transform="translate(-36.98 -3.99)"/><path d="M695.53,674.6c-.1-2.25-.91-4.63.91-6.36.53-.51,1.8,0,2,.79C699.15,671.58,696.39,672.59,695.53,674.6Z" transform="translate(-36.98 -3.99)"/><path d="M647.3,456.8c2,1.88,3.39,3.87,1.77,6.51-.41.68-1.25,1-1.6.48C646,461.59,647.05,459.19,647.3,456.8Z" transform="translate(-36.98 -3.99)"/><path d="M149.43,407.54c-1.61-4.19-.61-7.28.07-10.39C150.59,400.29,151.29,403.43,149.43,407.54Z" transform="translate(-36.98 -3.99)"/><path d="M676.19,511.76h16.23c3.49,0,7,.1,10.47,0,3.84-.13,4.19,1.8,3.08,4.77a1.54,1.54,0,0,1-.23.44c-4.54,5.68-4.78,12.81-6.77,19.38-1.76,5.83-2.59,11.8-3.86,17.7-.23,1.05-.42,1.87-1.68,2.07-1.49.24-2.21,1-.88,2.31,2.17,2.08,1.32,4.69,1.27,7.07-.05,3-1,5.65-4.86,5.6-3.28,0-5.86-.13-7.11-4.42s-1.21-8.89-1.69-13.27A167.52,167.52,0,0,0,675,527.82c-.41-1.48-1.19-3.28.73-3.8,2.44-.67,1.8,1.44,1.92,2.86a2.78,2.78,0,0,0,2.75,2.48c2.81.29,1.21-1.36,1-2.45-.1-.66.57-.87,1-.68,2.88,1.22,4.63-.44,4.22-2.77-.35-2,1.07-5.56-3.77-6-1.62-.13-4.8-2.58-7.17-4.11ZM690,545.41c1.67-1.57,3.65.64,4.45-1.5.95-2.58-2.52-6.73-5.57-6.44-2.32.22-2.26-.85-1.48-2.27.62-1.12,2.27-1.64,2.23-3.16,0-1.77.82-4.35-.87-5.1-2.22-1-3.38,1.83-3.4,3.17-.09,5.19-9.42,8.59-2.92,15,.17.17-.17.92-.36,1.36-2.44,5.51,2.66,10.1,1.93,15.46a2.47,2.47,0,0,0,2.32,2.28c1.52,0,1.46-1.53,1.84-2.57,1.08-3,1.25-6.19,3.15-8.87S693.24,547.51,690,545.41ZM700.31,514A10.87,10.87,0,0,0,690,520.45c-1.49,3.26,2.76,2.89,2.37,5.12-.24,1.39-.9,3.39,1.61,3.14,1.54-.15,4.11-.46,4.13-2.14.06-3.8,2.8-5.87,4.57-8.5C705,514.68,703.18,514.15,700.31,514Z" transform="translate(-36.98 -3.99)"/><path d="M733.68,535.47c-1.34.08-1.7-.75-1.6-1.56.23-2.14,0-3.78-2.39-4.7-1.14-.45-.89-1.82,0-2.42,2.77-1.86,4,2.1,6.56,1.89,1.54-.13,1.8,1.79,1.47,3.08C737.18,533.88,734.88,534.22,733.68,535.47Z" transform="translate(-36.98 -3.99)"/><path d="M153,508.36c-1.82,1.08-2.47,3.25-5.16,1.9-1.64-.82-4.11.82-4.57,2.18-1.23,3.62-5.62,1.77-7.05,4.69-.32.66-1.15.16-1.56-.43-2.73-3.88-7.06-4.42-11.19-5.45-1.56-.39-3.86-.84-3.69-2.67.22-2.22,2.61-1.43,4.12-1.42,4.79,0,9.58.11,14.36.31S147.8,508,153,508.36Z" transform="translate(-36.98 -3.99)"/><path d="M136.35,540.07c-1.94-1.24-2.43-3.14-3.12-4.71a3.93,3.93,0,0,1,1.49-5.26c3.56-2.19,3.4-3.51-.66-5-2.64-1-5.07-2.67-5.95-5.91-.24-.88-1.17-1.6-.31-2.49,1.07-1.11,2.24-.5,3.09.32s1.51,2.22,2.48,3.07c2,1.77,4,4.65,6.78.76a1.54,1.54,0,0,1,2.56-.23,2.12,2.12,0,0,1-.48,3.12c-4.59,2.88-3.84,7.27-3.31,11.46C139.25,537.76,137.47,538.56,136.35,540.07Z" transform="translate(-36.98 -3.99)"/><path d="M125.29,522.13c2,.72,2,3.44,4.86,4.06,4.09.88.46,3-.27,4.59-.94,2-.17,3.82.3,5.75a2,2,0,0,1-1.55,2.67c-1.3.18-1.28-1.08-1.54-2-1.06-3.89-2.22-7.75-3.37-11.61C123.26,524,123.06,522.63,125.29,522.13Z" transform="translate(-36.98 -3.99)"/><path d="M129.79,554.24c.26-1.18.5-2.64.9-4s1.2-2.75,2.59-2.59c1.82.2,1.17,2,1.25,3.2a25.45,25.45,0,0,0,.5,3.36c.24,1.14,1.92,2.43.1,3.35a6.23,6.23,0,0,1-3.81.29C129.65,557.44,130,555.79,129.79,554.24Z" transform="translate(-36.98 -3.99)"/></g></g></svg>