<svg xmlns="http://www.w3.org/2000/svg" viewBox="0 0 715.49 856.36"><title>newark</title><g id="Layer_2" data-name="Layer 2"><g id="Layer_1-2" data-name="Layer 1"><path d="M72.1,510.87c-.84,3.61-.3,5.42.7,6.89,9.17,13.42,16,28.28,25.43,41.52,6.37,8.92,12.86,17.75,19.27,26.65,1.07,1.49,3.51,3.16,1.19,5s-3.22-.93-4.61-2.28c-6.19-6-12.57-11.75-18.76-17.73-6-5.77-12.38-11.15-17.25-18-1.08-1.52-2.25-2.83-4-1.54s0,2.54.69,3.74C79,562.63,83,570.27,87.47,577.65c2.74,4.53,6.31,8.55,9.2,13,11.13,17.1,25.09,31.94,37.58,47.94a185.48,185.48,0,0,0,18.47,19.89c1.18,1.14,3.08,2.32,1.53,4s-2.88-.36-4.12-1.23c-10.68-7.5-18.6-17.84-27.76-26.93-3.64-3.61-7.13-7.38-11.43-10.37-7.47-5.19-12.36-12.88-18.15-19.71-3.05-3.59-5.51-7.87-10.94-9.19,4.86,7.95,9.21,16.27,14.69,23.76,10.37,14.18,20.13,28.83,31.57,42.21a6.48,6.48,0,0,1,.91,1.19c1,2.07,5.36,3.56,3.22,5.73-1.89,1.92-6.09,1.29-8.93-.16-2.16-1.1-3.92-3.05-5.75-4.74-6.1-5.65-12.15-11.35-18.23-17-.83-.77-1.79-1.92-3-.85s0,2.17.59,3.07q5.3,8.15,10.7,16.23c1.83,2.73,2.88,5-2.11,4.34a2.59,2.59,0,0,0-1,.07c-8.62,2.21-13.7-2.43-17.78-9.1-.91-1.48-1.93-4-4-2.26-1.65,1.34.53,2.92,1.32,4.21,1.36,2.2,4.77,4.34,3.58,6.54-1.1,2-4.88.4-7.46.72-10.75,1.33-21.57.83-32.35,1.2-4.4.15-5.83-1.34-6.06-5.47-.45-8.48,0-17-.66-25.46-1.86-22.58-1.18-45.24-1.33-67.86-.16-25.32-.88-50.68.36-75.93,1.33-26.94.42-53.92,2.33-80.79,1.17-16.62.73-33.27,1.86-49.83C46,340.27,45.86,315.66,45.9,291c0-5.31-1.68-10.5-1-15.85.14-1.12-.33-2.52.93-3.15,1.52-.77,2.63.38,3.34,1.44,1.29,2,3.23,2.85,5.23,3.66,19.19,7.75,38.62,14.36,59.81,13,5-.33,5.79-1.63,3.4-6.15-3.86-7.29-7.28-14.85-11.65-21.82-1.55-2.48-2.84-5.47-4.93-7.34s-2.4-4.25-2.88-6.21c-.69-2.81-1.41-4-4.15-2.86-4.13,1.78-3.56-2.86-5.55-4-.71-.41.64-.55,1-.72.9-.4,2.17-1.76,2.58.4.23,1.18.06,2.62,1.83,2.06,2.2-.69.75-2.16.35-3.23-.7-1.86-1.67-3.62-2.37-5.47-.59-1.58-2.44-2.45-3-1.51-1.93,3.28-5.37,3.25-8.18,4.57-.14.07-.36.2-.37.31-.63,7.41-6.64,1.59-9.4,3.8a1.64,1.64,0,0,1-1.4-.14c-1.6-5.26-7.82-4.74-10.68-8.71-2.73-3.8-3.2-2.15-6.26.6-4,3.57-4.82,7.64-5.88,12.09-.12.48-1,.77-1.27,1-1.74-11-3.77-21.9-5.11-32.89-.94-7.75-1.62-15.52-2.85-23.24-1.54-9.66-2.8-19.36-4.1-29-1.7-12.77-.73-25.58-.47-38.38a.88.88,0,0,1,.12-.48c1.46-2-1.69-5.64.82-6.31,3.37-.91,6.94-2,10.64-1.65a3,3,0,0,1,3,2.07c.63,1.59,1,3.76,3.68,3.08.78-.2,2.26-.27,1.91-1-.91-2,0-4.79-2.48-6.1a13.94,13.94,0,0,0-1.42-.48A2.05,2.05,0,0,1,47.64,110c.19-1.32,1.34-1.14,2.31-1.34,5.84-1.15,10.53,1.72,15.32,4.27.86.46,1.63,1.13,2.52,1.52,1.13.51,2.19,2.1,3.54.88,1.51-1.35-1.9-1.77-.6-3.54,3.26,1,6.69,1.8,7.29,6.2.18,1.39.86,2.31,2.3,1.82,1.88-.64.74-1.73.2-2.72-4-7.25-5.9-15.37-9.35-22.77C68,87.6,61.15,84.57,54,82.85c-2.41-.59-4.94-.7-7.41-1.07-1.13-.17-2.49-.22-2.58-1.78s1.15-1.82,2.33-2.07l23.83-5c22.42-4.77,44.8-9.67,67.26-14.18,4.57-.92,9-2.22,13.49-3.31,1.57-.38,3.63-1.09,4.42.93s-1.63,2-2.64,2.93c-4.73,4.16-10.58,7.26-14.24,12.4-6.94,9.77-10.89,20.62-8.48,32.9.32,1.66.46,4.13,2.63,4.31,2,.18,2.87-2,3.78-3.55,4.12-7.2,8.27-14.38,12.29-21.63a3.75,3.75,0,0,1,4.05-2.18c2.3.23,3,1.93,3.1,3.88.1,4.83,0,9.66.07,14.49,0,.94-.36,2.15.88,2.58a2.8,2.8,0,0,0,3.23-.6c.72-.89,1.08-2,2.6-1.8,8,1.28,14.75-3.1,22-5.09,4.62-1.27,9.45-1.7,13.87-3.84a3.22,3.22,0,0,1,4.25,1.71c2,3.7,3.45,3.18,6.21.27,7.16-7.56,29.35-12.49,39.41-2,4.2,4.37,4.3,9.34,3.53,14.37-.51,3.3-1.74,5.87,2.93,6.52.53.07.67,1.49,2,1.14-.8-9.45.27-19.37-7.95-26.8-1.48-1.33-4.83-1.67-4.2-4.24.69-2.79,4-1.84,6.1-2.34,8.69-2.09,17.07-5.24,26.1-6.35,7.32-.91,14.37-3.94,21.55-6a46.9,46.9,0,0,1,5.34-1.23c1-.17,2.47-1,3,.6.4,1.28-1.09,1.38-1.79,2-5.73,4.93-12.57,8.72-15.4,16.49a60.51,60.51,0,0,0-3.27,15.51c-.09,1-.13,2.15,1,2.49,1.65.48,2.2-1.07,2.21-2,.05-4.33,2.43-7.63,4.16-11.36,6.93-15,19.36-22,34.6-25.5,9-2.06,17.68-2,26.5,1.08,9.8,3.43,16.06,15.54,10.43,24.85-.77,1.27-1.64,3.12-.21,4.09,1.87,1.28,1.68-1.31,2.56-2,2.29-1.8,4-.78,5.39,1.28.57.82,1.06,1.77,2.32,1.41.85-.24.79-1,.7-1.61-1.77-12.82-3.4-25.64-11-36.76C357.8,46,346.79,41.77,334.91,39.38c-3.86-.77-7.56-2.65-11.68-2.29-.78.06-1.75-.21-1.8-1.29s.81-1.65,1.88-1.89c9.09-2,18.12-4.36,27.29-5.87,10.32-1.71,20.36-4.53,30.56-6.69,14.27-3,28.27-7.36,42.77-9.27,3.25-.43,5.83-2.33,8.87-3.11,1.6-.41,3.64-1,4.41,1,.85,2.15-1.25,2.77-2.76,3.31-9,3.25-16.61,8.74-23.65,15.06S400.38,42.85,399,52a62.06,62.06,0,0,0,2.17,27.2c.65,2.15,1.58,1.93,2.74.9,6.73-6,13.13-12.34,15.79-21.28,1.56-5.24-1.32-9.42-6.68-10.65-1.54-.35-4-.14-3.91-2.17.09-2.26,2.65-1.21,4.09-1.64,26.3-7.81,53.49-11.67,80.16-17.83,7.24-1.67,14.36-4.38,22-4.29,1.38,0,3.54-.8,3.94,1.07.47,2.2-2,2.45-3.4,2.86-8.81,2.57-17.14,6.32-25.57,9.85-13.1,5.48-25.24,12.61-37.05,20.41-7.47,4.94-14.7,10.1-21.25,18a116.23,116.23,0,0,0,14.75-1.82c4.72-.87,9-.13,13.22.76,6.88,1.43,13.33,4,17.12,10.74,1.13,2,2.69,1.32,3.89-.4,1.79-2.56,3.46-2.88,5.18.21a4,4,0,0,0,2.65,2c1.5,0,1.27-1.66,1.52-2.72,1.72-7.24,8-10,13.73-11.86,7-2.32,14.87-4,21.85-.09,5.52,3.09,11.75,6.27,12.6,13.83.22,1.91.94,1.37,2.36,1.65,3.93.77,7.32-1.4,11.22-1.12,5.77.42,5.82-.16,5.71,5.32,3.47-2.44,2.87-5.74,2.58-8.88s-2.83-1.44-4.31-1.8c-2.78-.68-4.6-2.42-6.33-4.51-6.13-7.36-7.11-18-1.73-25.62,3.07-4.37,8.18-6.79,13.07-7.66,7.14-1.28,14.52-2.94,23.34-.24-4.17-3.48-3.92-4.64.38-5.28,10.63-1.59,20.57-6.11,31.66-6.49,5.17-.18,10.48-3.74,16.07-4.75,3-.55,13.69,3.3,15.43,5.81,2.16,3.11.12,10.45-3.83,12.5-5.11,2.65-10.24,5.41-16.5,3.29-2.23-.75-5.43-1.11-7,1-1.28,1.77-1.22,5.12.3,6.6,2.45,2.38,5.51,4.1,8.11,6.53,2.82,2.62,6.7,2.35,10.12-.08.86-.61,2.14-.61,3.5-1-1.32,4-.68,9.53-8.13,6.82,1.32,2.9,3.52,3.28,5.12,2.94,2.74-.58,5.58-.23,8.07-.69,6.49-1.2,8.91,4.24,13.1,6.69.52.31.36,1.8.72,4,2.63-7.31,6.67-5.88,11.94-4.72,6.48,1.44,12.6,4.69,19.59,4.3,2.62-.15,4.69,0,6.32-2.44a3.15,3.15,0,0,1,4.35-1.3c1.58.84,2,1.84,2.15,3.88,1.16,20-2.42,39.55-5.53,59.14-1.61,10.13-2.51,20.55-5.64,30.21-3.65,11.27-4.4,22.93-6.92,34.32-1.89,8.6-1.43,17.79-3.92,26.15-2.85,9.58-.12,18.9-1,28.28-.46,4.62-.39,8.77-6.13,10.53-3,.93-6.91,3.45-.86,6.45,1.2.6.59,1.63.48,2.61-.17,1.74.29,3.55,2.27,3.79,4,.48,3.74,3,4,6.1,1.15,12.84,2.49,25.68,4.11,38.47,1.77,14,3.48,28,6,41.9,3,16.49,5.42,33.12,9,49.46,2,9.08,3.52,18.25,5.39,27.33,5,24.38,9.53,48.89,14.52,73.26,3.73,18.17,1.93,36.05,3.34,55.46-4.82-3.8-7.08-8-10-11.63-1.48-1.85-2.86-3.66-5.07-4.61s-3.77.19-5.24,1.74c-1.73,1.82-.25,3.1.71,4.31a60.89,60.89,0,0,0,5,5.53c4.33,4.23,5.13,9.85,5.72,15.34a16.5,16.5,0,0,0,4.66,10.16c3,3.06,4.05,6.44,4,10.76q-.36,23.5,0,47c.06,4.08-1.35,4.95-5.14,5.07-18.27.57-36.54,1.88-54.81,2-9.29.06-18.63,0-27.94-.32-5.65-.21-7-1.76-5.81-7.13.59-2.63,1-5,.14-7.61a6.16,6.16,0,0,1,1-5.74c3.44-4,2.06-8.06.91-12.13a41.76,41.76,0,0,1-1.46-16.8c.37-2.93-.31-4.58-3.55-4.33-3,.23-7.16-1.66-7.45,3.87-.24,4.48-.54,9-.75,13.45-.24,5.06-1.09,5.58-5.87,3.49a1.54,1.54,0,0,0-1.29,0,1.46,1.46,0,0,0-.35,1.28c.35,1.14,1.06,2.53,2.16,2.55,7.86.11,5.66,6.4,5.65,10.25,0,4-.23,7.8,1.35,11.67,1.84,4.51.42,6.15-4.66,6.77-9.43,1.17-18.9.49-28.33.79s-18.54,1.3-27.87,1.43c-3.6,0-4.68-1.26-5.36-4.2-1.14-4.9-10.4-8.56-14.1-5.38-2.12,1.82-1.85,4.43-.09,6.75,2.28,3,1.06,4.09-2.28,4.07-3.66,0-7.47.5-10.79-1.35-2.88-1.61-4.51,1.29-6.91,1.36-8.62.26-17.24.73-25.86,1.1-4.67.2-7.48-1.14-8.35-6.62-1.9-11.93-1.34-23.47,2.6-34.91,1.59-4.62-.45-8.46-5-10.08-2.2-.78-4.25-1.09-3.94,2.61s.13,7-3.64,10.32c-3,2.57-2.65,8.36-2.69,12.8-.06,7.77-1.17,15.69,1.81,23.24,1.15,2.91-1,2.84-2.56,2.56a69,69,0,0,0-24.77,0c-2.4.42-3.75-.9-4-3.31-1.16-9.71-3.59-19.42.59-29a9.46,9.46,0,0,0,.3-4.45c-.15-1.5,1.76-4-1.46-4.26-2.78-.24-5.55.2-6,3.74s-1.18,7-.85,10.42a54,54,0,0,1-.85,14.8c-.59,3.36-1,6.93,1.1,10.19,1.57,2.47-.11,2.61-2.1,2.77-7.66.63-15.23-1.13-22.91-.53-6.43.5-12.91.27-19.37.53-4.11.16-7-.68-6.4-5.71.13-1.23.41-3.1-1.21-3.43-1.88-.38-1.89,1.62-2.05,2.78-.89,6.25-4.63,7.18-10.36,7-21.13-.76-42.24,2.11-63.36.85-10.61-.63-21.4-2.42-31.75-.73-21.67,3.54-43.49.73-65.11,3.05a9.45,9.45,0,0,1-2-.12c-6.34-.65-13.34,3.34-19-1.62-4.79-4.23-8.82-9.35-13-14.21-3-3.49-2.54-13.33-1.25-17.6,1.35-4.44,3.32-6.95,7.69-8,1.36-.34,1.77-1.94,1.4-3.37s-1.59-1.68-2.78-1.57c-2.34.22-4.1-1-6-2-3.68-1.88-7.39-3.37-11.79-3.22s-7.58-1.91-10.61-5.41c-3.64-4.21-8.3-7.65-12.9-10.88-3.87-2.72-4.56-5.28-1.26-8.61,2.75-2.78,2.13-5.78-1.62-7-3.05-1-5-2.59-4.74-6.06,0-.48,0-1.36-.22-1.41-4.75-1.25-4.89-6.22-7.25-9.33-2.75-3.63-7.25-3.42-10.28-6.35-6.76-6.52-13.79-12.9-20.31-19.55-4.36-4.45-7.7-10.56-12.37-15.12C80.38,521.59,76.84,516.47,72.1,510.87ZM689.65,404c-2.73,3.64-6.34,6.08-6.32,11.21a5.78,5.78,0,0,1-4.7,5.73c-2.28.39-3.68,2.16-5.24,3.66q-11.45,11.07-22.94,22.07c-1.32,1.26-3.11,2.79-4.77,1.1-1.49-1.5.68-2.69,1.49-3.67,9.78-12,19-24.34,25.65-38.36,1.72-3.62,5.22-6.63,5.15-11.68-4.62,2.08-5.16,6.72-8,9.38a197,197,0,0,0-25.7,28.89,6.57,6.57,0,0,1-2.59,2.22c-1.19.5-2.82.77-3.8-.25-1.38-1.45.46-2.3,1.11-3.29,2.07-3.19,4.86-5.77,6.83-9.15,6-10.33,10.58-21.49,17.69-31.2.72-1,2.25-2.16,1.08-3.46s-2.64,0-4,.44c-6.49,2.27-9.86,8.24-13.74,12.92-4.26,5.13-8.69,10.33-12.77,15.7-2.88,3.8-5.73,8.05-9.63,11.05-1.58,1.22-4.14,3.86-6,1.21-1.56-2.28,1.24-4,3-5.52a115.72,115.72,0,0,0,13.69-13.52c2.59-3.18,4.87-6.61,7.33-9.85,2.69-3.55,6.67-6.49,8.34-10.14,2.84-6.22,6.16-12,9.51-17.94,6.32-11.12,11.82-22.69,17.63-34.1.64-1.27,2-2.95.62-4.06-1.77-1.42-2.95.57-4,1.72-4.16,4.53-8,9.39-12.44,13.6-7.94,7.5-15.72,15.14-23.23,23.06-4.61,4.86-10.31,8.36-15.62,12.34-.66.5-1.52.88-2.26.17s-.22-1.66.45-2.06c5-2.94,7.77-8.28,12.5-11.34,6.44-4.17,10.07-11,15.86-15.92,5.55-4.72,9.1-12,14.07-17.77.74-.85,2-1.67,1.1-3-1.07-1.51-2.22-.52-3.43.16A101,101,0,0,1,648,340.89c-7.12,2.74-13,7.85-19.4,11.79-5.74,3.52-11.65,6.68-17.52,9.95-.84.47-2.17.7-2.7-.31s.54-1.71,1.46-2.15c3.12-1.51,7.66-2.19,9.1-4.67,3.3-5.71,9.53-5.92,13.93-9.33,7.09-5.5,16.17-8.19,21.39-16.42,3.23-5.09,3.41-5.8-2.67-7.35-8.06-2-16.3-3.13-24.41-5s-16-4.58-24.5-3.69c-1.63.17-2.74-.82-3.78-2a15.67,15.67,0,0,0-14.27-5.51,40.13,40.13,0,0,1-6-.33c-15.54-.8-30.59-6.33-46.42-4.7a16.57,16.57,0,0,1-9.16-2.15c-2.12-1.13-4.39-1.27-6.7-1.66-11.27-1.9-23-.56-33.93-4.82-6.69-2.6-13.55-4.89-20.68-5.48-8.92-.74-17.92-.63-26.57-3.38-2.73-.86-5.55-1.48-8.34-.45-5.27,2-10.71,2.09-16.23,2-1.39,0-3.26-.63-3.94,1.21-.54,1.48.91,2.31,1.76,3.31a87.61,87.61,0,0,1,7.39,9.38c5.66,8.85,9.74,18.5,14.72,27.69a34.48,34.48,0,0,0,5.06,6.73c7.38,8.15,17.94,9.95,27.48,13.06,11.24,3.67,22,7.55,30.41,16.1,9.42,9.63,17,19.37,12.09,34.91-3.77,11.88-8.89,22-18.61,29.65-2.3,1.8-2.26,3.35-.95,5.49,4.41,7.19,9,14.23,11.8,22.35,3.28,9.36,5.37,18.69,3.5,28.56-.38,2-.85,3.88.14,5.8,2.64,5.11-1.07,9.38-3.34,12.51-3.89,5.36-9.67,9.35-15.48,12.92a47.44,47.44,0,0,0-6.88,4.95c-2.47,2.23-1.77,5.18-.76,7.84a1.83,1.83,0,0,0,3,.63c7-5.5,15.87-4.93,23.9-7.06,2.14-.57,4.34.1,6.6-1.38,11.49-7.52,24.43-10.63,38-11.79,6.14-.52,12.47,1.17,18.4-.57,10.2-3,20.47-1.91,30.69-1.23,3.92.27,6.66-.46,8.26-3.77,3.72-7.73,10.73-12.09,17-17.26,2.31-1.91,4.74-3.19,7.73-2.57,6,1.24,9.94-1.34,14.51-5.18,8.54-7.16,15-15.73,21-24.89,3.57-5.48,6.44-11.32,11.06-16.24,7.26-7.75,10.74-17.9,15-27.44A4.23,4.23,0,0,0,689.65,404ZM278.46,471.38c6.52-7.75,13.72-14.18,23.53-17.31,12.8-4.08,25.33-1.51,37.91.84,5.24,1,10.5,2.24,15.82,1.82,10-.79,17.78-5.42,23.36-14.1,8-12.4,16.05-24.73,23.34-37.56a5.27,5.27,0,0,1,2.7-2.08,2.53,2.53,0,0,1,2.81.29c1.07.87.43,1.67-.12,2.57-1.64,2.67-.9,5.44-.13,8.19,2.08,7.53,4.4,15,6.14,22.61,1.29,5.59,4,9.18,7.72,8.87,3-.25,10-7,9.4-9.82-1.47-6.5.3-12.79.48-19.15.12-4-1.84-7.39-2.12-11.21-.64-8.74-5.51-14.17-14-15.9-1.37-.28-3.55.19-3.42-1.9.11-1.65,2.2-.93,3.37-1.36,6.63-2.45,14.17-2.44,19.93-7.31.75-.64,1.83-1,1.76-2.2s-1.22-1.28-2.15-1.6c-13.6-4.64-19.58-16-23.7-28.3-5.64-16.86-8.43-34.58-14.82-51.24-.41-1.08-1.41-2.21,0-3,1.22-.74,2.18.36,3,1.16a43.13,43.13,0,0,1,10.27,16.85c3.4,9.62,9.69,17.36,15.22,25.62,4.7,7,11.88,11.61,17.49,17.71,4.14,4.5,8.16,9.56,4.17,16.43-.73,1.26-1.43,3.25-.06,4.16,1.61,1.07,3.36-.37,4.09-1.75,3.06-5.78,8.95-6.69,14.25-8.15a12.81,12.81,0,0,1,13.26,3.74c.79.85,1.89,2.26.88,3.6-.87,1.15-2.15.38-3.22,0a15.16,15.16,0,0,0-2.79-1.06c-4.71-.56-9.53-1.49-14.86,2.55,4.06.85,6.83,1.29,9.51,2,10.38,2.78,19.9,10.75,14,24.88a4.72,4.72,0,0,1-3,3.1c-1.11.29-1.69-.6-2.2-1.57-5.15-9.84-14.08-14.68-24.12-17.9-2.66-.85-5.56-1.65-8.72.1,1.8,1.56,3.64,1.81,5.3,2.5,9.89,4.12,18.85,17.7,13.45,28.9-1.71,3.54-6.74,6.88-9.9,6.1-4.75-1.17-3.92-5.1-4-8.53,0-1,0-2,0-3-.12-11.57-6.49-19.94-17.58-23.09-1.39-.4-3.19-1.37-4,.36-.94,1.93,1.1,2.36,2.35,3.07,6.86,3.88,11.12,10.7,10.43,17.59a232,232,0,0,0-.79,26.47c.06,5.07.22,6,5.16,4.07,8.55-3.28,16.74-7.39,24.93-11.51a56,56,0,0,0,21.66-18.47c10.71-15.42,5.44-36.13-9.24-46-8.48-5.7-18.09-9-27.63-12.33-15.24-5.29-26.26-14.86-33.15-29.64-3.55-7.63-7.24-15.33-12.44-22.09-7.92-10.29-16.34-20.2-26.45-28.38-13.92-11.25-29.82-18.32-48-17.85-14.24.37-28.47,1.93-42.28,5.9-2.39.69-5,1-4.53,4.66.23,1.78-1.59,2.24-2.93,2.95-8.84,4.66-13.48,12.5-15.87,21.8-1.9,7.37,0,14.2,2.8,21.21,5.26,12.95,12.68,23.64,25.59,29.95,3.56,1.73,6.69,4.32,10.21,6.17,4.24,2.23,6.9,4.8,5.14,10.16-.57,1.73.07,3.95.47,5.89,1.18,5.86,3.37,11.65,3.63,17.53.71,15.91-4.44,30.72-9.95,45.39-1.32,3.51-4.74,5.59-5.73,9.27-.47,1.74-1,3.84,1.66,3.38,5.22-.9,10.42-2,15.71-2.47,1.78-.17,2.62-1.77,3.57-3.19,5.91-8.79,7.08-18.9,7.79-29,1-14.43-3.52-27.55-10.71-39.84a12.4,12.4,0,0,1-1.88-6.62c.06-4.22,1.5-5.18,5.22-3a157.25,157.25,0,0,1,14.7,9.26c9.23,6.83,14.73,17.09,14.4,27.66-.54,17.26-8.14,32-24.63,40.38-1.18.61-2.52,1.44-2.49,2.89,0,1.63,1.59,1.94,2.89,2.23,7.4,1.66,14,5,20.38,9.08,6.72,4.31,13.58,7.1,21.25,2.19.09-.06.46.3.94.63-4.06,4.74-9.46,6-15.17,5.87-8.4-.16-16.12-3.77-24.19-5.58-15.44-3.46-29.34.84-42.1,8-14.66,8.22-27,19.81-37.32,33.24-4.35,5.64-3.51,11,2.35,15.26,6.8,4.91,14.9,7.3,22.17,11.31,2.78,1.54,3.3,5.23,6.63,5.59,8.43.89,15.64,5.2,23.36,8.1,16.41,6.17,31.61,14.79,47.35,22.32,4.78,2.29,8.72,6.1,13.93,7.55,2.72.76,4-.06,2.94-2.95a18.57,18.57,0,0,1-1-9.86c2.55-13.58,3.33-20.15,20.84-19.83,6.25.12,10.57,3.67,15.21,6.76,2.46,1.64,4.09,1.83,5.79-.7,3.52-5.25,7.18-10.4,10.61-15.71,6.63-10.27,9.91-21.62,10.65-33.78.64-10.48-.32-20.57-6-29.79-1.17-1.89-2.36-3.19-4.7-2.9-6.19.76-9.29-3.59-12.41-7.7-1.15-1.5-1.18-4.36-3.74-4-2.27.32-2.3,3-3.09,4.74a11.63,11.63,0,0,0-.77,2.36c-3.45,17.08-23.24,28.57-37,27.89A148.19,148.19,0,0,1,326,466.07a50.45,50.45,0,0,0-31.63.13C289.12,467.9,283.72,469.22,278.46,471.38Zm-203-108.23a3.39,3.39,0,0,0,1,3.79c5.51,6.17,10.83,12.53,16.62,18.43,11,11.21,22,22.51,34.32,32.32,1.3,1,3.38,1.91,2.06,3.76-1.19,1.68-3,.49-4.41-.47-1.22-.82-2.7-1.35-3.09-3.06-.14-.61-.19-2.17-1.35-.94-2.1,2.24-3.2.12-4.56-.82-8.6-6-17-12.16-24.52-19.51-2.67-2.6-4.41-6.33-8.22-7.75-1.07-.4-2.18-1.24-3.19-.08s-.09,2.17.67,3c2.19,2.48,4.35,5,6.62,7.39,12.47,13.3,23.23,28.19,37.37,39.93.82.69,1.47,1.55.52,2.49s-1.79.17-2.63-.41c-1.45-1-2.07-3.1-4.31-3.07-4,0-7.19-2.31-10.74-3.62-6.61-2.46-11.27-7.76-17.1-11.32-1.15-.7-2.4-1.73-3.34,0-.66,1.23-.6,2.82.89,3.45,2.39,1,3.16,3.24,4.59,5,4.17,5.3,8.8,10.24,12.84,15.64,3.58,4.8,9.17,7.83,11.68,13.48.59,1.33,2.4,3,.17,4.33-1.87,1.12-3.27-.45-4.25-1.64-1.52-1.86-3.52-3-5.34-4.43-6-4.66-12.34-8.75-17.52-14.4-2.65-2.9-5.43-5.89-9.46-7.08-.82-.24-1.66-.62-2.28.18a1.83,1.83,0,0,0,.28,2.29c6.69,9.1,12.94,18.59,20.24,27.17,5.68,6.67,12,13.09,16.84,20.16,6,8.77,14.13,15.5,19.78,24.34.93,1.46,2.31,2.38,3.73,1.17,4.56-3.86,10.41-6.27,12-13.27,1.14-5,5.18-8.31,9.34-11.71,6.57-5.37,14.71-5.79,21.89-9,2.42-1.1,5.7-.31,8.27.76,2.24.94,1,3.61,1.48,5.45.18.64.16,1.48.57,1.89,4.52,4.53,1.4,6.45-2.52,8.76-2.85,1.68-4.66,4.23-.05,6.56,2,1,2.64,3.21.68,4.43-4.74,3-4.91,6.33-2.13,10.64a4.57,4.57,0,0,1,.25,2.95c-.93,5.41,4.1,9.71,2.78,15.25-.28,1.15,1.49,1.62,2.29,2.43,1.2,1.22,2.73,3.28,1.31,4.29-5.09,3.62-2.51,6,.81,8.53a1.78,1.78,0,0,1,.64,1.31c-.29,3.87,2,6.08,4.85,8.1,1.53,1.09,2,2.85.65,4.37-2.2,2.46-1.57,4.26.69,6.24a8.4,8.4,0,0,1,1.82,3.51c1.82,5.12,6.19,8.57,8.61,13.36.79,1.57,2.22,2.41,1.47,4.59-.92,2.67.76,2.69,2.73,2.14,2.39-.67,2.54-2.58,2.21-4.39-.7-3.7.62-5.94,4.07-7.42,4.83-2.08,9.47-4.55,12.26-9.38.21-.38.85-.49,1.24-.8,4.38-3.53,9.22-.29,13.8-.9,1.48-.2,4,1.55,4.24-.63.29-2.55-2.79-1.83-4.2-1.79-5.73.16-10-2.57-14.2-6-3.88-3.11-7.07-6.88-10.92-10-10-8.19-16.21-21-11.44-34.24a78.19,78.19,0,0,0,2.22-7.67c5.94-24.09,15.23-46,37.48-60,4.84-3,9.42-6.92,10.48-13.38.59-3.55-.33-5.07-3.83-3.61-14.52,6-29.74,7-45.15,6.19-10.78-.55-21.18-2.41-31.3-7-8.18-3.68-16.07-7.91-24.15-11.73-5.7-2.7-11.91-4.19-17.26-7.65-2.32-1.5-2.81-2.78-.29-4.39,5.74-3.67,9.9-9,13.75-14.33,4.49-6.17,7.72-13.35,7-21.33-.33-3.47,2.12-3.1,3.63-3.42,2.51-.53,2.31,1.52,2.25,3.28-.38,12.18-4.61,22.58-14,30.63-.91.78-2.84,1.31-1.94,3,1,1.94,2.61.54,3.92.08,21.05-7.33,32.41-28.57,34.4-48.37.19-1.92.1-3.8,1.87-4.77s3.44-.17,4.79,1.43a18.56,18.56,0,0,0,3.09,2.52c7,5.35,14.32,10.4,16.71,19.77a6.71,6.71,0,0,0,4.57,4.34c3.78,1.27,7.55,2.55,11.35,3.77,6.06,1.95,12,3.52,18.39.62,5.19-2.33,7.95-6.63,11.5-10.55,8.72-9.61,6.41-23.08,1-31.4-3.82-5.83-7.9-11.5-12-17.18-3.46-4.87-7.48-9.69-7.65-16.37-.1-3.75-3.18-3.88-6-3-8.8,2.89-18.17,1.19-27,3.55a14.42,14.42,0,0,1-6.92-.33,38,38,0,0,0-11.4-.8c-5.31.24-10.74,1-15.87-.82-8.21-2.85-16-6.72-24.87-7.8-9.88-1.19-19.65-3-29.64-3.48-6.34-.31-12.61.15-18.89,0a127.66,127.66,0,0,1-33.86-5.18c2.91,4.79,6.93,7.34,10.85,10,1.16.79,3.22,1.5,2.42,3.24-1,2.24-2.74.46-4.25.09-3.73-.9-6.44-4.72-11-3.94.67,2.55,2.58,3.85,4.24,5,9.84,6.73,20.56,12.13,29.94,19.58,1.06.84,3.83.59,3,2.44-.92,2.09-3.28.81-4.81.07-5.39-2.59-10.61-5.56-16.07-8-4.13-1.85-8.06-4.57-12.93-4.4,13.75,10.47,27.75,20.33,41.79,30.13.81.57,2,.75,1.62,2s-1.6,1-2.51.57c-4.18-2-8.63-3.35-12.7-5.71a81.4,81.4,0,0,0-12.25-5.32c-1.38-.52-3.59-1.8-4.49.14s1.6,2.45,2.82,3.37a62.1,62.1,0,0,0,5.21,3.82c8,4.89,13.91,12.66,22.5,16.81.92.45,2.76.8,1.84,2.29s-2.43.61-3.57-.09c-10.53-6.48-22.24-10.86-32.11-18.59-2.07-1.63-4.78-4.19-9.19-3.29,2.94,3,5.24,6,8.08,8.25,13.64,10.89,24.89,24.41,38.72,35.09,1,.75,2.32,1.88,1.12,3.31s-2.71.72-3.48-.35c-1.8-2.49-4.62-3.11-7.06-4.45-5-2.72-10.07-5.35-13.31-10.42-.44-.7-1.24-2.22-2.68-1.74-3,1-4.48-1.34-6.44-2.77C83,368.27,79.89,365,75.45,363.15ZM599.6,544.08c3.85.42,7.69-.8,11.43.32,2.1.63,3.94,2.16,3.19,4.32-.9,2.58-3.51,2-5.58,1.31-.87-.3-1.52-1.25-2.29-1.89a2.59,2.59,0,0,0-3.63-.15c-3.14,2.7-7.2,3.29-10.88,4.71-1.31.51-2.08.78-2.63,2.36-1.33,3.87-8.11,4.61-10.43,1.23-1.28-1.88-1.27-4,1.2-4.89a55.66,55.66,0,0,0,14.37-8c-2.78-1.28-5.84-1-8.75-1.52-1.52-.27-3.21-.24-3.73-1.92-1.17-3.77-4.77-3.05-7.33-4.24s-5.45-3.63-7,1.39c-.14.45-2.18.25-3.32.47-3.73.71-8,.21-11,2.58-4.85,3.72-11.74,3.19-16,8.46-1.36,1.7-5.17.83-6.55-1.55-1.58-2.7,1.58-3.35,2.95-4.82,1.78-1.9,4.31-.32,6-1.72,5.55-4.47,12.43-4.67,19-5.86,1.39-.26,3.69.6,3.69-1.3,0-2.45-2.66-1.72-3.93-1.43A130.43,130.43,0,0,1,531,535.63c-3.9.07-7,3.23-11.05,2.6-1-.15-2-.14-2.55-1.22a1.67,1.67,0,0,1,.68-2.15c3.7-3,7.54-5.65,12.62-3.42,1.53.68,3.14,1.11,4-.45,1.74-3.24,4.62-2.25,7.07-2.07a23.63,23.63,0,0,0,7.42-.41c1.36-.33,2.71-1,2.89-2.42.27-2.15-1.75-1.46-2.83-1.86-1.71-.63-3.72-.91-3.66-3.38.08-2.65,2.14-2.69,4-2.67q13.86.14,27.72.48a7.35,7.35,0,0,1,5.19,2.63c1.84,2,3.76,4,7.69,4.68-2.74-2.42-.21-6.08-4-7.38a30,30,0,0,1-6.46-3.74c-2.27-1.54-5.93-2.39-7-.93-2.84,4-6.07,1.75-9.08,1.57a95.84,95.84,0,0,0-23.73,1.79c-7.12,1.35-14.29,2.32-20.57,6.65-3.64,2.51-7.26,5-12.32,5.36-8.46.59-16.2,4.37-23.89,7.86-1.78.81-3.13,1.83-2.13,3.67s2.86,1.24,4.28.21c.79-.57,1.54-1.85,2.45-1.41,5.19,2.55,10.51-.08,15.74.55,2.63.32,4.61,1.69,3.51,4.13-2.89,6.36-5.62,13.08-12.78,16.11-3.43,1.45-3.43,1.37-2.66,4.68.09.38-.3.9-.52,1.33-.37.74-1,1.63.14,2.07a3.18,3.18,0,0,0,2.36-.2c1.6-.84,2-2.54,2.48-4.15.49-1.82,2.28-3,3.15-1.55,1.78,3,5.3,2.51,6.9,4,2.6,2.41,5.68-.53,7.45,1.85,1.92,2.58,3.91,1.6,6.17.72,8.85-3.46,16.28-9.86,26.12-11.49,8.17-1.35,10.41-1,14.37,6,1.62,2.86,3.76,5.42,5.53,8.19,1,1.63,2.67,3,2.57,5.23-.24,5,3.41,8.08,5.78,11.75,1.26,1.94,3.53,1.44,5.52.86,2.32-.67,1.21-2.27,1.06-3.66-.12-1.08-.44-2.34,1.76-2.94-.06,5.47,5.17,4.64,8.13,6.63,2.22,1.49,5.3-1.71,4.6-4.62-.36-1.47-.61-3.09.94-3.3,3.7-.5,6.88-3.44,11-2A33.2,33.2,0,0,0,613.9,581a2.29,2.29,0,0,0,2.43-1.44c.51-1.47-.86-1.43-1.76-1.68-2.11-.59-2.22-2.4-3-4.1-2-4.5.15-9.74-2.73-14-2-2.92-.25-4.94,1.91-6.17,2.38-1.36,4.05.09,5.72,2.26,3.85,5,2.61,11.38,5.09,16.69a2.38,2.38,0,0,1-.1,1.94c-2.52,3.88-.44,8.55-2.26,12.61a3.25,3.25,0,0,0,1.52,4.31c2.08,1.06,3.48-.08,4.81-1.45,2.87-3,7-5.18,5.63-10.52-.32-1.3,1.06-2.39,2.28-3s2.32-1.26,1.72-3a2.79,2.79,0,0,0-3-2c-1.59,0-3.49-.64-3.95-1.77-2.29-5.62-2.63-11.77-2.52-17.62,0-1.44.48-1.93-.8-3-3.29-2.71-7.68-3.08-11.1-5.47-1-.73-2.74-1.09-1.89-2.88.64-1.32.35-3.55,3-3.25,2.17.25,3.29-1,2.6-3s.74-3.09,1-4.57c.56-3.35,6.21-5.79,1.91-10.07-.46-.46.29-1.3.91-1.51,4.24-1.47,3.28-6.64,6.38-8.94a1.84,1.84,0,0,0,.21-1.74c-2.52-2.11-4.91-5-7.84-5.8-2.37-.62-3.19,3.08-4.22,5.31a9.77,9.77,0,0,1-2.34,2.48,36.46,36.46,0,0,0-9.36,15C602.09,530.78,599.33,537,599.6,544.08ZM510.52,260.49c12.33-.05,12.38,0,11.12,10-.28,2.26-.67,4.61,2.62,4.7,2.52.07,5.72.89,5.94-3.28.1-2,1-3.09,3-3.18,2.23-.1,2.76,1.39,3.07,3.16.08.48.37.92.5,1.4.84,3.07,3.25,4.26,6,4.33s3-2.67,3.68-4.65c1.13-3.1-.06-7.4,2.58-9.33s6.33,1.05,9.66.37a8.3,8.3,0,0,1,1,0c3.26-.26,4.54,1.06,4,4.44a72.2,72.2,0,0,0-.45,8.46c-.07,1.91.56,3.23,2.78,3.27s3.08-1.12,3.15-3a62.5,62.5,0,0,0,0-8c-.32-3.64,1.36-4.72,4.68-4.41s6.63.54,10,.62c5.81.14,6.35.7,4.77,6.55a24.38,24.38,0,0,0-.56,7.92c.18,3.12,2.22,4.19,5.06,4.34s3.9-1.2,3.86-3.89,1.55-3.31,3.88-3.49c3.69-.28,4.74,1.63,4.44,4.84a3.69,3.69,0,0,0,2.75,4.17,1.81,1.81,0,0,0,2.53-.87c2.06-4.4,5.44-8.24,4.63-13.79a28.3,28.3,0,0,1,.56-10.42c.71-3.13-.63-5.26-4.2-5.16-6.29.19-10.56-3.26-14.29-7.76-.8-1-2.37-1.87-1.13-3.31a3.1,3.1,0,0,1,4.13-.45c2,1.25,3.76,2.75,5.63,4.13a6.24,6.24,0,0,0,5.68,1,2.15,2.15,0,0,0,1.28-1.29c.17-.68-.55-1-1.15-1.36a47.9,47.9,0,0,0-21.87-6.72c-19.05-1.15-38.09-2.56-57.11-4-13.89-1.09-27.75-2.5-41.63-3.71-8.26-.72-16.51-1.52-24.79-1.94-6.46-.32-7.33.71-6.63,7.16s1.87,12.81,1.32,19.31c-.09,1.1.31,2.32,1.41,2.27,4.89-.2,5,3.7,5.65,6.74,1.07,5.15,4.87,4.94,8.51,4.63,4.38-.36,2.2-4,2.6-6.29a9.57,9.57,0,0,0-.4-3.45c-.56-2.56.49-3.34,2.94-3q6.89.93,13.81,1.69c3.09.33,3.94,1.79,3.13,4.76a29.82,29.82,0,0,0-.59,5.93,2.46,2.46,0,0,0,2.27,2.77c1.68.34,2.33-.59,2.8-2.06a18.71,18.71,0,0,0,.92-6.88c-.14-2.53.93-3.74,3.59-3.36A22.76,22.76,0,0,0,510.52,260.49ZM250.4,229.44c2.8,5.23,5,9.73,7.57,14,2.62,4.47,1.7,9.62,3.11,14.31a2.46,2.46,0,0,1-1.05,2.06c-8.71,5-13.49,13.45-18.89,21.31-1.42,2.06-2.94,3.3-5.3,2.69-2.54-.66-2.5-2.93-2.14-4.93,1.79-10.05-1.11-19.42-4.08-28.78-1.59-5-3.74-6.68-8.62-6.72,2.17,1.83,4.18,3.64,2.71,6.79a1.65,1.65,0,0,0,.46,2.25c3.4,1.66,3.31,5.29,4.37,8.07,3.65,9.65.73,21-7.12,25.79-12.85,7.86-27.06,10.87-41.6,6.54C163.59,288,149,280,138.68,265.74c-1.87-2.6-3.09-2.16-4.66.51-3.63,6.19-6.53,12.61-7.64,19.76-.38,2.45,0,3.94,3.07,4.38s6.15,1.37,9.33,1.56c12.5.73,24.58,3.74,36.74,6.49,4.72,1.07,8.39,5.31,14,3.74a28.66,28.66,0,0,1,16.72.43c4,1.31,8.78,1.79,12.3.24,6.86-3,13.71-2,20.56-1.85,3.39.08,4.07-.86,4.54-3.94C247,275.26,260,261.69,280.13,254c4.57-1.75,9.83-2.51,14.12-6.33-3.23-1.39-6.44-.27-9.8-2.67,3-.52,4.71-2.06,7-.69,1,.59,1.92.74,2.32-.65.3-1.08-.47-1.55-1.31-1.71-3.1-.6-5.25-2.63-7.54-4.6-2.89-2.49-6.81-2.35-10.3-3.22-1.19-.3-2.52.76-2.12,2.71,2.92.29,6.23-.76,9.37,2.53-3.42.53-5.83,4.94-8.71-.17-.33-.59-1.84-.67-2.82-.72-1.88-.1-3.93-1.93-4.53-1.92-3.81.05-1.13-4.69-3.26-4.38C258.38,232.74,254.92,230.76,250.4,229.44ZM74.11,456.52a5.6,5.6,0,0,0-1.65,1c-.89,1.15-.11,2.19.49,3.18,4.13,6.85,9.73,12.58,14.65,18.8,2.39,3,3.71,7,6.45,9.26,5.63,4.66,9,11,13.94,16.18,2.63,2.77,5.65,5.32,7.14,8.92,2,4.82,6.32,7.52,9.63,11.13,1.17,1.27,3.49,1.55,3.46,3.82a2,2,0,0,1-1.93,2c-2.39.05-3.26-2-4.33-3.62-.26-.41-.27-1.09-.62-1.34-3.4-2.42-5.06-7.46-9.72-7.69-3.53-.17-5.45-2-7.46-4.21q-16-17.26-31.87-34.56c-.83-.91-1.33-2.83-3-1.88s-.23,2.37.11,3.56a9.86,9.86,0,0,0,.92,2.31c9,14.94,18.88,29.34,28.9,43.63,6.86,9.78,13.6,19.64,20.31,29.53,1,1.46,1.16,3.82,3.64,3.33,2.75-.54,5.53-1.32,7.54-3.47a2.9,2.9,0,0,0,.18-2.27c-6.31-2.39-4.72-6.3-3.65-11.51.58-2.84.66-5,3-6.85,1.3-1,2.81-2.06,2.42-4-.45-2.22-.49-4.25,1.12-6.11a1.7,1.7,0,0,0-.45-2.62c-3.12-2-2.27-4.46-1-7s.62-4.66-1.28-5.79c-3.84-2.29-6.6-5.68-9.26-8.95-3.4-4.16-9.59-5.11-11.53-10.81-1-2.87-3.52-4.74-5.58-6.92-8.88-9.44-19.43-17-28.82-25.83A15,15,0,0,0,74.11,456.52Zm202.31-65.81c1.39,3,2.69,5.79,4.05,8.59,5.36,11,11.25,21.89,11.38,34.64,0,1.16.1,2.6,1.64,2.63,1.83,0,1.79-1.5,1.92-2.87a48,48,0,0,0-2.62-20.08c-1.59-4.73-4.36-9-5.71-13.66-1.86-6.47-2.8-13.24-4.11-19.88-1.43-7.3-1.76-14.81-2.51-22.23-.57-5.62-1-11.3-4.21-16.2-4.06-6.22-8.36-12.3-12.46-18.5-4.47-6.76-7.48-14.25-7.73-22.28-.33-10.23,3.71-19.28,9.81-27.43.8-1.08,2.56-1.79,2-3.66a1.93,1.93,0,0,0-2.22.71c-6.81,7.59-13,15.49-14,26.22-.85,9.74-.94,19.27,5.47,27.62,4,5.25,8,10.6,11.57,16.16,6.93,10.69,11.52,21.62,3.86,34.22a50,50,0,0,1-13.62,14.8c-3.54,2.55-6.7,4.72-4.46,9.93.71,1.66,0,3.93,0,5.92.18,9.09-5,15.94-9.6,23-.62,1-1.82,1.8-1.1,3,.85,1.45,2.4.91,3.62.56,4.47-1.26,9-2.51,13.35-4,6.6-2.26,10.72-6.74,12.41-13.7,1.32-5.43,1.35-10.86,1.28-16.34A11.23,11.23,0,0,1,276.42,390.71Zm15,168.14a72.77,72.77,0,0,0,22.71,1.24c2.85-.26,3.26-1.36,1.6-3.39a61.31,61.31,0,0,1-6.94-9.69c-6.48-12.11-16.87-18-30.27-19.93-15-2.14-23.3,7.11-18.66,21.31,2.3,7.06,8.11,11.65,12.24,17.43,1.12,1.57,2.95,1.42,4.52.44a65.8,65.8,0,0,0,7-4.7C285.94,559.67,288.31,558.44,291.38,558.85ZM503.49,199.21c-.31.89-.59,1.81-.95,2.68-2.31,5.55-2,5.68,4.16,6,17.4.92,34.8,2.06,52.19,3.13,2.63.17,5.5.19,5.67-3.18.32-5.88.09-11.79.09-17.68-3.34,3.67-3.87,8.09-4.87,12.31s-4.33,2.68-6.87,2.87c-3.24.24-2.42-2.35-2.69-4.2-.72-4.78,3-8.49,3.09-13,.07-4.22,2.58-5,5.82-5a46.89,46.89,0,0,1,4.91.72c1.11.1,2.57.32,2.73-1.34.2-2-1.43-2.05-2.72-1.84-6.6,1.13-13.13-1.15-19.74-.25-3.71.5-4.45-1.62-3.12-4.56a33.13,33.13,0,0,0,2.4-9.12c.15-1,0-2.14-1.15-2.48s-1.8.64-2.18,1.57c-1.14,2.77-2.38,5.51-3.28,8.35-2,6.28-3.37,7.17-9.9,6.23-2.5-.36-3.82-1.56-2.89-4,1.49-3.91,1.69-8.1,2.92-12.09,1-3.11,2.52-3.9,5.27-4,5.94-.33,11.74,3,17.75.67.13-.05.32.06.48.1,6.08,1.7,12.27.45,18.4.72,1.66.07,3.06-.35,3-2.43s-1.59-1.69-2.92-1.71c-15.78-.27-31.42-3.14-47.23-2.54-2.33.08-6.45-3.06-6.8,1.51-.34,4.37,4.14,2.93,6.81,3.14,3.51.29,3.93,1.81,2.22,4.56-1.85,3-3.48,6.27-3.63,9.73-.18,4.27-1.76,6.08-6,5.74-1.29-.11-3.58-.52-3.43,1.64.12,1.79,2.15,1,3.34.93,3.87-.3,5.15.86,3.77,4.91-1.17,3.42-1.51,7.13-2.14,10.72-.26,1.49.27,2.69,2,2.85s2.46-.8,2.63-2.34c.28-2.48.47-5,.8-7.43,1-7.35,2.42-8.5,9.77-8.31,2.65.06,3.26,1,2.26,3.39a46.07,46.07,0,0,0-3.15,14.52c-.26,3.05-1.45,4.05-4.28,4.12-4.78.13-9.49-1.14-14.34-.13C507.61,205.46,504.9,203.56,503.49,199.21ZM461.54,489c-1-1.82,1.46-5.56-1.48-6.28s-3.58,3.24-4.73,5.41c-5.2,9.83-10.52,19.55-18,27.89-6.79,7.54-14.63,13.89-22.51,20.2-2.61,2.09-3.24,3.57-1.51,7,4.77,9.35,13.87,11.61,22.41,2.8,2.65-2.74,5.05-5.72,7.48-8.65C454.69,523.41,460.22,507.23,461.54,489ZM206.41,421.83c2.46.83,4.22.51,5.74-1.19,4.48-5,8.22-10.54,9.3-17.3.5-3.12,2.34-5.48,3.36-8.26.76-2.1,1.8-1.57,2.79-.21,2.5,3.46,4,7.12,3.49,11.61s-2.46,8.24-3.58,12.38c-.27,1-1.21,2.33.27,3.1,1.18.61,2.28-.13,3.18-.89A62.32,62.32,0,0,0,247.06,400c1.58-3.32.22-5.24-2.86-6-6.82-1.62-13.09-5.18-19.83-6.47-7.75-1.49-11-6.52-14-12.61-2-4-4.53-7.81-9-9.6-1.17-.47-2.49-1.76-3.39.07-.71,1.44-1.39,3.65.47,4.43,4,1.64,3.35,5.11,3.47,8,.54,13.34-3,25.3-12.61,35.06a11.42,11.42,0,0,0-2,2.8,2,2,0,0,0,.78,2.61,1.72,1.72,0,0,0,2.3-.17c4.17-4.43,10-7.26,12.34-13.44,1.45-3.88,3.18-7.66,4.81-11.47,1.35-3.14,2.76-4.32,5.34-.75,3.7,5.1,3.3,17-1.11,22.6C210,417.22,208.28,419.43,206.41,421.83Zm65.09,20.58c-2.76,1.77-4.31,4.46-6.8,6.46-13.12,10.57-24.74,22.38-32.53,37.75-4.21,8.31-6.38,17.11-8.89,25.86-1.73,6.06-3.48,11.86-1.12,18.67,4.62,13.39,14.79,21.67,25,30.11,1.19,1,3.1,1.16,4.7,1.58,1,.26,2.07.34,2.53-.88.37-1-.38-1.51-1.08-2a30.54,30.54,0,0,1-7.91-8.24c-3.56-5.1-6.16-10.76-5.44-17.16.75-6.7,8-12.47,16-13.48,4.34-.55,8.66-1.3,14.26-2.15a25.61,25.61,0,0,0-3.86-1.62A26,26,0,0,0,236.24,538c-.39,2-1.18,4.68-3.71,2.77s-5.37-3.43-6.57-7.11c-2.31-7-.6-13.38,1.84-19.79,1.06-2.8,2.8-5.47,3.2-8.35,1.69-12.07,8.55-21.47,15.65-30.64,5.59-7.22,12.12-13.71,17.66-20.95C267,450.36,270.4,447.07,271.5,442.41Zm101-185.26c9.75,2,16.43,8.44,22.51,15.32,3.67,4.14,7,6.64,12.78,4.52a23.44,23.44,0,0,1,7.87-.94c2.69,0,3.56-1.07,3.22-3.62-.73-5.45,1.51-11.76-4.64-15.61-.12-.08-.1-.65.05-.83,2.33-2.74-.24-1.9-1.48-2-2.22-.25-4.79,1-6.54-1.24-1.92-2.47-3.55-1.88-5.16.2-1.14,1.48-1.76,1.34-2.9-.22a8.71,8.71,0,0,0-9.5-3.09c-3.52,1.07-6.2,1.36-9.23-1.68C378.79,252.52,374.63,253.73,372.47,257.15ZM674.29,645.57c.61,1.92-1.53,5.32,1.86,6.15,2.45.6,6.61-.6,6.53-3-.28-8.85,7.2-16.53,2.84-26.12-2.47-5.43-2.52-12-3.63-18-.79-4.32-4-3.63-7-3.47s-5.1,1-4.67,4.77c.84,7.39,1.38,14.75.2,22.25-.44,2.77-.76,6.75,1.38,9C674.26,639.66,674.39,642.29,674.29,645.57ZM554.68,606.23c-1.16,1.78-5.46-.55-4.13,2.94,1.83,4.83-.08,9.18-1.36,13.14-1.73,5.31-4.48,10.27-4.55,16,0,1.39-1.68,3.13.09,4.08s3.16-.57,4.14-1.95c2.56-3.57,6.24-5.89,9.49-8.68,2.43-2.08,5.59-4.19,5.63-7.33.09-7.16,2.47-13.59,4.85-20.1,1.19-3.26-.25-4.42-3.43-4.88-5.73-.82-11.47,1.25-17.31-.46C551,600.91,553.41,602.92,554.68,606.23ZM494.13,482.08c1-5.42-1.56-11-2.67-16.89-2.09-10.92-6.8-20.76-12.69-30.1a6.76,6.76,0,0,0-2.76-2.77c-.93-.43-1.94-.85-2.75.06-.63.71-.17,1.61.2,2.31,1.81,3.35,3.52,6.77,5.54,10,7,11.11,11,22.93,9.5,36.27-1.19,10.36-4.87,19.56-12.13,27.2-.89.94-2.16,2-.83,3.34.85.88,1.9.32,2.64-.4C486.31,503.25,495.49,496,494.13,482.08ZM213.82,258.66c-1.06,2,.45,3.3.83,4.82,1,4,.4,7.53-3.06,10.23-5.85,4.56-12.52,5-18.64,1.77-5.48-2.93-10.57-7.14-8.5-15.05.39-1.5.9-5-1.54-4.89-4.37.15-3.71-3.75-6.88-5.69,4-.27,6.12,2.11,9.79,2.46-2.88-2.81-5.14-4.59-8.11-5.32-2.1-.51-2.94-.47-2.32,2.35,1.4,6.36,3.1,12.71,6.16,18.31,4.86,8.9,11.89,16.32,22.9,16,12.07-.37,17.81-6.5,14.2-18.83C217.89,262.2,217,259.56,213.82,258.66Zm453.93,243c.41-.28,1.34-.58,1.7-1.21,1.48-2.58,3.83-4.49,4.93-7.43,2.62-7,5.59-13.79,8.51-20.64.58-1.35,2.06-2.84.69-4-1.69-1.41-2.84.37-4,1.57-4.55,4.6-8.85,9.55-13.93,13.48a14.24,14.24,0,0,0-5.21,7.9C659.61,494.08,664.86,501.77,667.75,501.65ZM673.89,522c3.66.92,5-1.08,5.24-4.18a33.86,33.86,0,0,1,3-10.47c1.63-3.81,3-7.73,4.34-11.65.4-1.18.8-2.86-.81-3.49-1.23-.48-2.07.69-2.75,1.66-2.47,3.52-4.82,7.13-7.42,10.55-1.66,2.17-3.32,6.19-5.88,5.34-4.7-1.56-8.44,1-12.63,1.18-1,0-2.22,0-2.43,1.24-.25,1.4.91,2.11,2,2.44,2.74.82,5.64,1.63,7.49,3.78C666.82,521.55,670.45,521.43,673.89,522ZM418.44,586.67l.27-2.42c-18.29-5.75-36.42-12.25-56.4-12.83.68,2.46,2,2.66,3.05,2.79,10.87,1.27,21.26,5.09,32.18,6.06,1.66.15,3.91.07,3.52,2.35-.44,2.55-2.71,1.27-4.09.83-5.93-1.9-12.23-.5-18.19-2.14-1-.29-2.74-.58-3.28,2.15C389.86,585.36,404.17,585.68,418.44,586.67Zm254.74-124.4c-.17-.52-.18-1.15-.48-1.37-1.07-.77-1.74.24-2.58.69-5.86,3.14-10.24,8.38-16.26,11.32-3.55,1.73-5.59,5.5-9.17,7.37-1,.52-.62,2.12-.17,3.26,1.37,3.43,8.51,4.82,10.89,2,4.18-4.92,8.35-9.85,12.33-14.94C669.77,468,671.37,465.09,673.18,462.27ZM580,61.74c-.21-1.19-.15-3.16-.93-4.71-1.42-2.83-3.07-5.88-6.72-6.24-2.72-.27-5.83-.79-7.54,2.3-2.09,3.78-.29,7,1.81,10.08.73,1.08,1.76,2,2.54,3A6.76,6.76,0,0,0,576.94,69C580.47,68,579.6,64.88,580,61.74ZM159.82,414.53a12.13,12.13,0,0,0,1.49-.15c.81-.17,1.61-.39,2.41-.63,13-4,21.58-13.13,28.17-24.43,2.07-3.56,4.24-7.19,5.15-11.32.28-1.23,1-2.92-.5-3.53s-2,1.39-2.88,2.23c-.44.42-.45,1.27-.84,1.77-3.09,4-3.39,9.3-6.43,13.38a50.45,50.45,0,0,1-26.7,18.94c-1.2.35-2.92.46-2.65,2.33C157.26,414.62,158.64,414.54,159.82,414.53ZM317.52,85.35c6.71-8.48,13.87-12.87,23.91-11.5,5.36.73,9.42,3,10.87,8.25.35,1.24,0,3,2,2.72s1.51-1.9,1.56-3.17a6.77,6.77,0,0,0-.78-3.84c-3.44-5.87-11.54-9.6-19-8.48C329.39,70.33,317.85,76.46,317.52,85.35ZM671.83,571.27c-.31-2.64-4.52-.67-3.2-3.84,1.65-4-.25-2.74-2.22-1.72-3.33,1.72-3.51-1.77-4.27-3.11-1-1.73.62-2.56,2.46-2.38,1.33.13,2.78.59,2.19-1.85-.37-1.52,1.69-3.52-1-4.62-.51-.21-1.09-1.06-1.42,0-.26.89,1.34,2.58-.88,2.57-1.75,0-1.52-1.91-2-3.05-.62-1.37-7.48-3-8.45-1.95a1.1,1.1,0,0,0,.13,1.71c1.15,1.11.18,2.59.63,3.79,2,5.15,2.85,11.17,9.44,12.85C666,570.41,668.86,570.74,671.83,571.27ZM445.26,552.81a7.7,7.7,0,0,0,5.95-2.07c7.36-5.91,12.2-13.72,16.45-22,.79-1.54,1.44-3.46-.57-4.31s-2.3,1.3-2.9,2.58c-4.32,9.32-11.35,16.14-20,21.44-1.26.78-3,1.31-2.44,3.21C442.29,553.35,444,552.7,445.26,552.81Zm230.07,41.61c1.43-.27,3.54.24,4.07-1.8a4.1,4.1,0,0,0-1.78-4.75l-10-6.34c-1.73-1.09-3.61-1.8-5.63-1.18-1.41.43-2.92,1.09-2.17,3.13C660.76,586.15,672.34,594.35,675.33,594.42Zm-137-365.66c-7.88-.95-15.81-1.58-23.63-2.93-8.51-1.46-17.2-.36-25.67-2.25a14.3,14.3,0,0,0-7.39.29c-.77.25-1.71.64-1.26,1.67a1.9,1.9,0,0,0,1.55.93c4.34-1.3,8.44.84,12.75.77a171.08,171.08,0,0,1,26.69,2C526.82,230.05,532.57,231.17,538.29,228.76Zm55.24-147c.58.44,1.27.87,1.86,1.41a2.56,2.56,0,0,0,4,0c1.28-1.35,1.48-3.86.36-4.52-3.37-2-2.87-4.14-1.39-6.89.38-.7,1-2-.36-2.5-1.12-.37-2,.64-2.23,1.55-.54,2.19-2.61,2.77-3.8,4.15-2.33,2.68-5.72,3.17-8.25,5.16-1.08.85-2.87,1.92-2.43,3.48.53,1.84,2.37,1.08,3.85,1,2.53-.12,5.7,2,6.88-2.26C592.05,82,592.86,82,593.53,81.74ZM319.87,547.42c2,2.07,4,3.6,5.23,5.62,3.82,6.39,9.14,8.07,16,5.93.95-.29,2.23-.27,2.49-1.33.36-1.43-1-1.94-2-2.43-5.55-2.6-11.1-5.2-16.66-7.75A5.12,5.12,0,0,0,319.87,547.42Zm243-397.23c-18.31-.54-36.55-4-54.94-.83C526.29,149.38,544.56,151.73,562.91,150.19Zm59.36,85.63A271.53,271.53,0,0,0,574,232.45,322,322,0,0,0,622.27,235.82Zm46.56,73c.39,1.87-.92,4.67,2.08,4.89,2.69.19,4.21-1.78,4.25-4.49a65.33,65.33,0,0,1,.73-11.43c.14-.76.15-1.76-.84-2.1s-1.59.5-1.92,1.18C671.24,300.67,669,304.41,668.83,308.78ZM354.51,603.83c7.83.87,22.85-3.28,26.54-7.17C372.21,599.11,362.8,599.34,354.51,603.83ZM612,297.91c-.14-3,.61-6.68-3.84-6.78-4-.09-2.8,3.25-3,5.53-.22,3.12-.21,6.36,4.12,6.35C613.17,303,611.54,299.76,612,297.91Zm81.24,219c-2,2-4.87,3.58-5.81,5.93s2.32,2.52,4,3.22a41.21,41.21,0,0,0,4.59,1.75,2.47,2.47,0,0,0,2.86-1.45c.5-.88,1-2.3-.07-2.59-3.15-.84-3.64-3.29-4.26-5.84C694.48,517.4,694,516.71,693.25,516.9Zm-55.47-17.27c2.81-.69,6.54-1,6.72-4.5.2-4.06-4.21-2.79-6.49-3.58-2.87-1-4.11,1.7-4.32,4C633.46,498.15,635.35,499.29,637.78,499.63ZM587.41,42.33c7.32,5.56,15.37,10.34,12.88,21.4C604.84,53,598.1,41.64,587.41,42.33Zm-29.31,545c-1.45-3.38-3.54-5.81-4.21-8.94s-3.82-5-4.65-8.16a2.19,2.19,0,0,0-2.84-1.38c-1,.24-1.06,1.24-.65,2,2.49,4.82,5,9.65,7.64,14.36C554.1,586.5,555.56,587.26,558.1,587.34ZM593.83,290c-2.52-.4-4.45-.22-4.19,2.72s.71,5.66,4.7,5.54c2.61-.07,4.29-.55,4.42-3.8C598.93,290.37,596.69,289.8,593.83,290Zm-97.15-7.38c-.79,2.55-.34,4.25,2.87,4.08,2.39-.13,5.37.75,5.46-3.2.07-3.17-.85-5.5-4.64-5.75S496.47,279.9,496.68,282.63Zm194.6,270c-.14-.3-.26-.59-.39-.88-1-2.06-11.3-7.76-13.67-7.49-.58.06-1.41.3-1.64.72a1.63,1.63,0,0,0,.83,2.1c4.59,1.49,8,4.9,12.2,7C689.78,554.71,690.81,553.9,691.28,552.62ZM537,286.63c.5,5.73,1.39,7.2,4.07,6.64,3.77-.79,2.24-3.94,2.36-6.13s-.22-4.71-3.75-4.44C536.64,282.94,536,284.29,537,286.63Zm-12.6-1.83c1,2.25-1.67,7,4.05,7,1.84,0,3.28-1,2.36-2.69-1.44-2.64,1.78-7.82-4.15-8C524.48,281.09,523.78,282.41,524.41,284.8Zm44.91,4.83c.26-2.07-.25-4.48-4-4.47-2.43,0-3.82,1.17-3.7,3.64.17,3.34,2.14,5.12,5.39,5.47S569.19,292.23,569.32,289.63Zm9.07-1.92c-.68.19-3.13-.34-2.29,1.91,1,2.69-1.17,7.31,4.1,7.74,2.16.18,3.87-.6,3.43-3C583.1,291.59,584,287.51,578.39,287.71Zm-60-2.24c-.37-2.57.53-6.11-3.77-6.08-2.11,0-3.46,1.44-2.73,3.65.78,2.42-.77,6.59,4.2,6.24C518.63,289.1,518.93,287.56,518.37,285.47ZM414.7,574.92c3.16.72,4.09-.39,4.12-3,0-2.05-.64-3.46-2.71-3-3.14.68-8.31,1.56-8.27,3.89C407.89,576.32,412.77,573.82,414.7,574.92ZM555.89,288.45c.18-2.52,0-4.66-3.4-4.65-2.5,0-3.44,1.4-2.83,3.42.67,2.19-.92,5.89,3.23,6.12C556.6,293.54,555.72,290.59,555.89,288.45ZM711.41,527c-1.72,1.33-5.55,1.39-5.08,3.67.57,2.71,4,4,6.81,4.91,1.26.39,2.22-.75,1.59-1.57C713.12,531.94,715.45,528.07,711.41,527ZM472.35,275.21c-.88,0-2.72.15-2.57,2.43.23,3.5,3.09,3.79,5.73,4.08,1.68.18,3.05-.33,2.81-2.36C478,276.4,476.06,275.19,472.35,275.21Zm-101.42,307c-5.5-.11-10.84-3.42-16.47-.8C359.81,583.71,365.39,582.87,370.93,582.17ZM562.34,84.84c6.84.23,12.54.87,16.73-4.7C574.33,83.59,568.08,80.12,562.34,84.84Zm-404,38.06c2.59-4.84.23-9,1.24-12.85.24-.91-.88-1.25-1.75-1.14-.7.09-1.31.59-1.06,1.33C158.06,114,156.44,118,158.36,122.9ZM597.29,639c2.27-6.36-2.53-9.25-3.33-13.39-.13-.7-1.12-.69-1.69-.32a1.42,1.42,0,0,0-.54,1.23C593.37,630.27,595.09,634,597.29,639Zm.52-478.45c.09.83-1.42,2.63,1.13,2.52,3.86-.16,2.64-4,4-6,1-1.42-1-1.71-2-1.69C597.43,155.41,597.83,158,597.81,160.5ZM316.68,87.71c-1.45,4.85-.64,9.24,3.14,12.94C319.38,96.23,317.78,92,316.68,87.71ZM459.83,574.07c0-1.5-.49-2.63-1.95-2.28-2,.48-4.66.83-5,3.24-.3,2.16,2,2.16,3.57,2.2C458.66,577.29,459.69,576,459.83,574.07ZM604,598.13c1.28-1.66.53-2.67-1.13-3.37-.82-.35-1.77-.45-2.07.51-.92,3,1.56,5.52,1.47,8.47,0,.55.94.94,1.6.5,2.52-1.71.37-3.42,0-5.14A2.64,2.64,0,0,1,604,598.13Zm-111.15,1c-1.2,0-2.85.18-2.34,1.58,1,2.68,3.94,2.48,6.2,3.14.9.26,2.41-.24,1.85-1.44C497.45,600.21,495.13,599.54,492.8,599.16ZM617.17,73.8c4.55-.92,8.91-2,13.45-2,.76,0,1.71-.34,1.58-1.43,0-.32-.73-.88-1-.81C626.56,71,621.3,70.59,617.17,73.8Zm4.63,218.78c-2,.25-3.58,1-3.32,3.35.13,1.22.21,3.22,1.83,3,2.23-.33,3.54-2.5,4.14-4.44S623,292.8,621.8,292.58Zm-134,312.08c-.7.38-1.44.55-1.48.83-.32,1.93,1.29,2.55,2.55,3.12,1.79.81,3.17,3.34,5.64,1.67a1.06,1.06,0,0,0-.07-1.71C492.22,607.18,489.94,605.92,487.78,604.66Zm111-431.45c-4,1-3.32,3.85-3.63,6.19-.19,1.47.55,2.16,2,2.16s2.3-1,1.75-2.25C598,177.38,598.82,175.49,598.75,173.21ZM492.89,595.59c3.54,1,6.08,1.83,8.66,2.47a1.39,1.39,0,0,0,1.86-1.08,1.29,1.29,0,0,0-.69-1.06C499.9,595.24,497.16,593.11,492.89,595.59ZM445.2,267.09a16.47,16.47,0,0,0-.09-9.17c-.14-.53-1.26-.39-1.56.3C442.28,261.12,442.59,263.87,445.2,267.09Zm44,13.41c-.27-1.46.65-3.63-2-3.66-1.81,0-1.94,1.51-1.89,2.83,0,1.57-.26,3.62,1.95,3.9C489.64,283.86,489.06,281.85,489.22,280.5ZM525.49,85.74c-.37-1.43-.24-3.82-2-3.48-2.81.56-.72,3.72-1.9,5.44-.59.86-.19,2.37,1,2.14C524.6,89.45,525.06,87.47,525.49,85.74ZM446,588.41c-1.17-2-3.58-1-5.22-1.77-1-.48-2.29-.35-2.22,1a2.89,2.89,0,0,0,3.47,2.75C443.41,590.24,445.17,590.65,446,588.41ZM621.89,256.83c2.81,2.68,5.54,2.34,7.61,3.57a1.65,1.65,0,0,0,2.62-1.2,1.81,1.81,0,0,0-1.83-2.34C627.87,256.75,625.45,256.83,621.89,256.83ZM212.31,257c-3.16-1.28-6.23-3.17-9.87-1.49C205.6,256.75,208.71,258.38,212.31,257ZM384,596.76c3.57,1.68,6.62.1,10.63-1.62C390,593.06,387.18,596.29,384,596.76Zm206.78-83.64c1.21-.4,3.42.64,3.38-1,0-2.33-2.49-1.54-4-1.63-1.21-.08-3.37-.53-3.32,1.13C586.89,514.12,589.4,512.61,590.74,513.12Zm-45.5-376.55c-.31-.69.28-2.58-1.54-2.14-2,.49-2.36,2.58-2.66,4.36-.17,1,.15,2.25,1.44,2.1C544.76,140.62,545.22,138.82,545.24,136.57Zm-216-32.75c5.34,1.62,10.46.06,15.61-1.19Zm224.37,73.43c2.36-2.21,2-5,3.31-6.92a1.4,1.4,0,0,0-.54-2.09c-.84-.34-1.52.29-2,1C553.12,171.61,552.88,174,553.65,177.25ZM674.47,532.94c3.48,2.31,6.55,3.14,11.06,3.45C682,533.23,679,532.18,674.47,532.94ZM360.62,243.46l9.91,2.26.31-1.37C367.55,243.54,364.62,241.15,360.62,243.46Zm245.62,368.6c3,3.89,3,7.71,5,10.66C611.25,618.88,612,614.76,606.24,612.06ZM214.58,117.64c2.88-5.22,2.68-6.59-1.81-8.78C214.64,111.86,213.05,114.59,214.58,117.64ZM422.82,628c-1.17,2.25-2.36,4.54-.91,7.15.09.16,1.13.09,1.22-.11,1.11-2.3.84-4.67.2-7C423.32,628,423.05,628,422.82,628Z" transform="translate(-18.27 -8.57)"/><path d="M411.55,690.91c9.9.79,19.88,1.07,29.69,2.53,8.29,1.24,13.43,7.12,15.66,15,5.43,19.28,4.15,38-10.87,52.33-6.32,6-6.51,10.67-4.56,17.65,3.39,12.16,6.37,24.43,10.32,36.43,1.25,3.82,2.77,7.51,6.2,10a3.06,3.06,0,0,1,1.34,3.87c-.67,1.86-2,2.38-3.82,2.51-9.15.66-17.35-4.11-20.53-12.73-4-10.78-5.69-22.2-8.44-33.33-.76-3.06-1.13-6.23-2-9.26a6,6,0,0,0-6-4.51c-3.22,0-2.79,3-3.05,4.88-1.74,12.49-3.48,25-3.92,37.64-.16,4.64,1,8.28,6.2,9.28,1.55.3,2.49,1.2,2,2.81s-.93,3.69-3.4,3.67a40,40,0,0,1-6.48-.12c-7-1.21-13.95-.31-20.92-.63-2-.09-4.76.88-5-2.44-.22-2.6,1.46-3.87,3.93-4.27,5-.8,6.77-4.59,7.38-8.89,1.8-12.82,3.42-25.67,5-38.52Q404,745.4,407.52,716a83.54,83.54,0,0,0,.21-11c-.05-3.15-2.08-4.59-4.92-5.44-1.93-.58-4.37-.93-3.45-4.26.78-2.81,2-4.37,5.17-4.12,2.32.19,4.66,0,7,0Zm30.77,36.39a34.52,34.52,0,0,0-.05-5.48c-1-6.13-.72-12.7-5.65-17.6-2.25-2.24-4.85-3.76-8-2.74s-3.95,3.69-4.41,6.65c-2.68,17.18-4.84,34.42-6.86,51.68-.38,3.22.93,3.29,3.12,3.36,6.62.22,11.5-2.85,14.94-8.25C440.74,746.51,442.16,737,442.32,727.3Z" transform="translate(-18.27 -8.57)"/><path d="M480.28,829c-4.5,0-9,0-13.49,0-1.63,0-3.64.25-3.76-2.17-.09-1.92.6-4.07,2.59-4.39,7.31-1.15,7.89-7.08,8.61-12.37,2.74-20,5-40.18,7.65-60.25,1.66-12.5,3.65-25,5.69-37.4,1.11-6.82-.88-11.7-6.92-14.45-2.71-1.24-2.48-3.17-2.26-5.33.26-2.46,2-2.73,4-2.66,9.8.36,19.64-.88,29.4.91,1.29.24,3.42-.64,3.31,1.8-.09,2,.54,5-2.28,5.46-7.78,1.22-8.84,7.28-9.79,13.2-2.07,13-3.82,26-5.7,39-.18,1.22-1.32,2.72.33,3.56,1.37.7,2.48-.56,3.57-1.27,4.45-2.91,7.22-7.37,10.16-11.54,7-9.93,13.65-20.09,20.35-30.21a21.55,21.55,0,0,0,2.51-5.42c.87-2.78.69-5.31-2.78-6.33-1.52-.45-3-1.19-2.18-3.16s.67-4.68,3.71-4.57c8.62.3,17.24.72,25.87,1.16a2,2,0,0,1,2,2.34c-.22,1.74.41,4.13-1.77,4.82-17.64,5.58-24.49,22.09-35.2,34.65-3.23,3.78-5.82,8.09-8.8,12.1a6.72,6.72,0,0,0-1.11,6.13c5.82,21.17,11.54,42.37,19.37,62.92a16.86,16.86,0,0,0,1.51,3.11c1.31,2,3.22,3.5,1.28,6.56s-3.76,5.41-7.77,4.62a13.27,13.27,0,0,0-2-.11c-8.48-.44-8.87-.87-11.15-8.9-5-17.59-10.09-35.15-15.13-52.72-.5-1.74-.66-4-3.11-3.85s-1.92,2.38-2.12,3.89c-1.94,15.33-4.14,30.64-4.67,46.11-.14,4.12,1.25,7.13,5.58,8.26,1.6.41,3.27.79,2.63,3.29-.53,2.06-1.41,3.26-3.66,3.24-4.83,0-9.66,0-14.49,0Z" transform="translate(-18.27 -8.57)"/><path d="M654.3,793.39c1.54-8.25,3.18-16.48,4.57-24.76,2.73-16.21,6-32.35,7.72-48.72.3-2.8.32-5.64.34-8.46,0-4.45-1.78-7.73-6.24-9.11-2.25-.69-4.15-1.61-3.37-4.5.73-2.69,2.26-4.76,5.32-4,7.34,2,15-.2,22.29,1.83,1.37.38,4-1,3.8,1.71-.14,1.93.07,4.91-2.5,5.53-8.49,2-9.9,9-11.53,15.85-4.86,20.39-7.88,41.13-11.76,61.71-3.16,16.76-4.88,33.83-10,50.21-.71,2.27-.93,5-4.56,4.91s-3.69-2.58-4.37-5q-12.94-45.55-25.92-91.11c-.68-2.39-1.14-4.85-1.87-7.22-.35-1.15-.39-3-2.2-2.74-1.42.24-1,1.91-1.18,3-2,13.32-3.93,26.65-6,40s-4.1,26.6-4.38,40.09c-.13,6-.24,12,7.5,13.71a2.12,2.12,0,0,1,1.71,3c-.47,1.57-1.26,2.71-3.09,2.71q-12.49,0-25,.05c-1.26,0-2.44-.4-2.37-1.92.08-1.93.84-4,2.79-4.3,7.77-1.26,8.72-7.68,9.85-13.37,4.5-22.79,8.11-45.73,11.43-68.73,1.16-8,2.78-16,3.85-24.1a29.42,29.42,0,0,0-.59-11.4c-.89-3.48-2.6-6.16-6.29-7-2.54-.58-3.63-1.9-3.25-4.61s2.12-3.49,4.56-3.47c3.5,0,7,0,10.49,0,9.22.06,9.37.5,11.83,9.12,6.53,22.86,13.34,45.64,20,68.46q3.33,11.37,6.68,22.74Z" transform="translate(-18.27 -8.57)"/><path d="M57.3,719.48c-1.74,16.79-3.31,32.91-5.1,49a263.81,263.81,0,0,0-1.57,34.87c.11,5.57,1.32,10.18,7.88,11.44a4.11,4.11,0,0,1,3.55,5.15c-.63,3.31-3.22,2.2-5.19,2.19-6.49-.06-13-.3-19.47-.37-2.63,0-4.49-.75-5.09-3.65s1.15-3.32,3.16-4.13c3.53-1.42,5.13-4.3,5.9-8,3.23-15.51,4-31.3,5.86-47,1.65-14.2,2.89-28.44,4.54-42.64a46.41,46.41,0,0,0-.58-15.86c-.91-4-2.69-7.27-6.94-8.3-3.15-.77-3-2.76-2.73-5.27.34-3,2.36-2.78,4.37-2.79,4.84,0,9.67.07,14.5,0,2.51-.05,4,.84,4.9,3.28,2.93,8.32,6,16.59,9,24.89.5,1.39,1.15,2.82.15,4.3a2.19,2.19,0,0,0,0,2.8C82,727.72,83,738.89,87,748.79c4.08,10.19,7.66,20.59,11.49,30.89A16.66,16.66,0,0,0,100,782a67.85,67.85,0,0,0,2.68-15.57c1.68-19.19,3.53-38.38,4.44-57.62.41-8.56-.3-14.33-8.73-16.26-1.93-.45-2.75-1.73-2.12-3.75.51-1.65.16-3.94,2.89-3.89,8,.12,16,.18,24,.52,1.34.06,4-.35,3.85,2.07-.11,2,0,4.65-2.71,5.39-5.74,1.59-7.46,6-8.45,11.21-3.14,16.51-4.31,33.25-6,49.94-1.83,18.18-3.72,36.36-5.45,54.55-.37,4-.22,8-.28,12,0,1.67.25,3.48-2,4a4.3,4.3,0,0,1-5.15-2,72.23,72.23,0,0,1-7-14.25c-9.84-27.74-19.57-55.53-29.38-83.28C60,723.3,59.48,721.36,57.3,719.48Z" transform="translate(-18.27 -8.57)"/><path d="M157.14,824.13c-8.69.74-19.79-.67-30.93-1-1.62-.05-3.55.31-3.45-2.32.07-2-.16-3.93,2.91-4.11,4.61-.28,6.64-3.6,7.16-7.69q2.31-18.29,4.24-36.63c1.56-15,2.89-30.09,4.37-45.13a225.48,225.48,0,0,0,1.26-26.37c-.06-3.68-1.78-6-5.21-7-2.26-.68-4-1.52-3.36-4.5s2.07-3.69,4.87-3.64c16.15.32,32.3.57,48.45.65,3.8,0,5,1.69,4.84,5.16-.29,8.48-.46,17-.66,25.45,0,2.41-.9,4.69-3.44,4.65s-2.66-2.69-2.52-4.64c.29-4-.66-7.94-1.34-11.85-1.13-6.56-3.73-8.72-10.42-9.14a4.38,4.38,0,0,0-.5,0c-13.39.77-12.42-2.52-13.88,12.25q-1.71,17.34-3.62,34.67c-.46,4,.86,6,5.15,5.19a17.52,17.52,0,0,1,3,0c8.68.06,10.87-1.66,12.69-10,.14-.65.21-1.32.4-2a2.89,2.89,0,0,1,3.32-2.38c1.86.27,1.59,2,1.49,3.2-.36,4.79-.47,9.65-1.38,14.35-1.44,7.38-.84,14.93-2.35,22.28-.29,1.36.25,3.32-2.09,3.2-2-.09-2.28-1.73-2.43-3.24-.23-2.48-.34-5-.46-7.46-.22-4.31-2.27-6.75-6.74-7.06-11.64-.79-11.77-.84-13.08,10.71s-2.7,23.4-3.41,35.14c-.51,8.39,2.56,10.31,11,11.14,9.33.91,14.4-3.31,17.4-11.37q2.19-5.84,4.32-11.68c.53-1.47.94-2.95,3.08-2.11a2.81,2.81,0,0,1,2,3.45c-1.43,8.69-2.89,17.36-4.15,26.07-.46,3.2-2.1,4-5.07,3.89C172.28,824,165.94,824.13,157.14,824.13Z" transform="translate(-18.27 -8.57)"/><path d="M254.85,737.62c-2.29,7.92-4.56,15.86-6.87,23.78-4.57,15.63-9.2,31.25-13.73,46.89-1.48,5.11-2.82,10.26-4.09,15.43-.47,1.95-1,3.46-3.43,3.43s-3.27-1.58-3.63-3.43a111.57,111.57,0,0,1-1.69-11.32c-1-11.25-1.66-22.53-2.61-33.78-1.33-15.72-2.79-31.43-4.21-47.14-.89-9.74-.65-19.58-3-29.2-.72-3-1.79-5.31-4.64-6.57-2.45-1.09-3.58-2.82-3.05-5.56.66-3.33,3.25-2.81,5.51-2.81,7.83,0,15.66-.35,23.45.8,1.58.24,3.91-.35,4,1.85s.24,5-2.57,5.9c-4.65,1.41-5.4,4.72-5.25,8.93.58,17.27,1.56,34.5,3.24,51.7.83,8.43,1,16.91,1.48,25.37,0,.8-.13,1.68,1.16,2.42,3.21-5.46,4-11.76,5.71-17.6,5.14-17,9.69-34.23,14.39-51.39,1.71-6.25,3.15-12.58,4.76-18.86a21.92,21.92,0,0,1,1.3-3.78c.7-1.57,1.66-2.94,3.73-2.65s2.67,1.75,3,3.5c.71,4.26.92,8.59,1.4,12.87,2,17.64,3.47,35.32,5.15,53,.08.82.17,1.65.33,2.47,1.83,9.21,1.25,9.79-7.67,7.64-7.35-1.77-7.62-2.24-8.27-9.85-.63-7.35-1.54-14.68-2.33-22Z" transform="translate(-18.27 -8.57)"/><path d="M310.11,827.2c-3.17,0-6.33,0-9.49,0-1.68,0-3.47-.09-3.73-2.39-.2-1.76,0-3.54,2-4.1,6.77-2,8.74-7.71,10.74-13.37,7.07-20.08,14-40.19,20.71-60.41,5.69-17.18,11.8-34.23,17.4-51.46a12.86,12.86,0,0,1,2.14-4.47c1.26-1.46,3.1-2.82,5.16-2.31,2.38.58,1.68,2.87,1.84,4.62,1.23,13.87,2.5,27.73,3.73,41.59.92,10.4,1.71,20.82,2.72,31.22q2.25,23.26,4.76,46.52c.47,4.34,2.1,8.12,6.89,9.37,2,.52,2.17,1.76,1.72,3.43-.38,1.46-.61,3.07-2.65,3q-14.14-.22-28.3-.5c-1.14,0-1.93-.63-1.81-1.87.15-1.64.15-3.61,2.1-4.15,5.7-1.61,6.13-5.9,5.67-10.67-.75-7.76-1.63-15.51-2.34-23.27-.17-1.86-.45-3.12-2.69-3.37a124.49,124.49,0,0,0-18.91-1c-2,.1-3.33.67-4,2.91-2.22,7.83-4.84,15.56-6.95,23.42-1.68,6.25-.63,8.17,5.4,11.48,1.43.79,2.69,1.37,2.15,3.31a3.12,3.12,0,0,1-3.28,2.5h-11Zm34-98.88c-.71.24-1,.24-1,.34-5.68,13.46-9.71,27.47-14,41.38-.58,1.88.4,2.76,2.26,3a98.93,98.93,0,0,0,12.42.9c3.41-.08,4.63-1.16,4.27-4.81-.87-8.75-1.76-17.5-2.18-26.3C345.61,738.11,346,733.18,344.11,728.32Z" transform="translate(-18.27 -8.57)"/><path d="M715.46,696.19c4.66,0,9.33-.08,14,0,1.65,0,4.3-.7,4.32,2,0,2.15,0,5.38-2.6,6-9.22,2.16-9.42,9.94-10.63,16.78-5.7,32.07-10.7,64.26-16.85,96.23-2.86,14.87-11,27.73-19.91,39.89-2.22,3-5.87,4.9-9.5,6.26-1.86.7-4.23,2.92-5.71.28-1.14-2-1.61-5.37.44-7,4.88-4,6.29-9.19,7.77-15,1.21-4.78,5.3-8.76,7.5-13.38,4.58-9.6,5.12-20.22,6.88-30.51q6.35-36.87,12.39-73.8c.62-3.76,1-7.58,1.26-11.39.31-4.28-1.32-7.5-5.7-8.8-2.14-.64-3.57-1.46-2.9-4.2.59-2.42,1.46-3.82,4.27-3.72,5,.17,10,.05,15,.05Z" transform="translate(-18.27 -8.57)"/><path d="M261.05,24.71c8.76.13,16.12.56,22.2,5.77A16.44,16.44,0,0,1,289,42.08c.62,10.4-4.75,17.83-13.39,23.09a48.53,48.53,0,0,1-22,7.36c-10.4.62-21.17-.83-29.19-8.63C217,56.63,215.62,50,221.94,41.44a33.61,33.61,0,0,1,17.85-12.58C247.23,26.5,254.42,23.9,261.05,24.71Zm-9,43.38c12.66-.68,22.9-4.47,27.67-17,4.2-11,.76-18.69-10.3-20.78-14-2.64-26.86,1.57-38,10.69-5.59,4.58-6.54,18.32,2.81,22.43A55.16,55.16,0,0,0,252,68.09Z" transform="translate(-18.27 -8.57)"/><path d="M303.05,688.91a42.16,42.16,0,0,1,12.37.94c1.2.32,2.89-.37,3.3,1.45s.63,4.46-1,5.09c-11.57,4.58-11.48,16-14.63,25.16-4.28,12.55-7.59,25.43-11.28,38.18a4.55,4.55,0,0,1-2.28,3.12c-1.27.6-2.42,2.44-3.93,1.37s.06-2.4.36-3.6c4.25-16.75,8.57-33.47,12.69-50.25.62-2.53.31-5.29.45-7.93.16-3.35-1.87-4.64-4.75-5.38-1.75-.45-3.56-1-2.93-3.67.55-2.38.92-4.6,4.11-4.51C298.06,689,300.56,688.9,303.05,688.91Z" transform="translate(-18.27 -8.57)"/><path d="M123.08,592.9a9.24,9.24,0,0,1,6.44,3.74c5.42,6.63,10.38,13.67,17.36,18.89,1.66,1.24,3.71,3.21,1.58,5.37s-3.84,0-5.57-1.31c-5.13-3.83-8.64-9.11-12.58-14-2.7-3.35-7.68-4.18-9.08-9.11C120.47,593.83,121,593.21,123.08,592.9Z" transform="translate(-18.27 -8.57)"/><path d="M716.64,671.31c-3.22.42-6.23-.81-9.33-1.21-1-.13-2.11-.11-2.15-1.48,0-1.59,1.17-1.86,2.37-1.87q7.47-.07,14.93,0c1.18,0,2.47.15,2.65,1.65.22,1.8-1.31,2.24-2.55,2.45C720.62,671.16,718.62,671.16,716.64,671.31Z" transform="translate(-18.27 -8.57)"/><path d="M687.53,670.07c-2.48,0-5,0-7.44,0-1,0-2.11-.16-2.06-1.53a1.63,1.63,0,0,1,1.59-1.62c5.45,0,10.89,0,16.33.1a1.51,1.51,0,0,1,1.31,1.8c-.08,1.09-1,1.24-1.79,1.25C692.83,670.1,690.18,670.07,687.53,670.07Z" transform="translate(-18.27 -8.57)"/><path d="M641.94,668.32c2.58-2.41,4.81-1.71,6.8-1.75,4.16-.07,8.32,0,12.47.12,1,0,2.14,0,2.25,1.37s-.72,1.81-1.82,1.92C655.26,670.63,649.08,669.41,641.94,668.32Z" transform="translate(-18.27 -8.57)"/><path d="M592.11,668.21c-3.43,1.72-7.28,1.65-10.93,2.44-1.53.34-2.76-.06-3-1.64-.29-1.75,1-2.26,2.49-2.27,3.82,0,7.65,0,11.47,0C592.12,667.22,592.11,667.72,592.11,668.21Z" transform="translate(-18.27 -8.57)"/><path d="M22.25,725.43c-1.47-.51-4.22.45-4-2.28.17-1.8,2.87-1.93,4.31-2.53,1.21-.49,2.32,2.22,2.57,3.39C25.6,726,23.48,725.22,22.25,725.43Z" transform="translate(-18.27 -8.57)"/><path d="M510.05,667.5c1.18-1.3,2.4-.89,3.5-.86,1.28,0,2.73-.48,3.78.61.53.56.09,1.2-.49,1.62-1.25.9-2.57,1.62-4.13.9C511.7,669.3,510.51,669,510.05,667.5Z" transform="translate(-18.27 -8.57)"/><path d="M621.4,457c-.23-.13-.94-.3-1-.58-.09-.56,0-1.54.33-1.74,3.06-1.75,4.29-4.82,6-7.6.73-1.15,2.81-1.55,4.35-2.05.86-.27,1.56.36,1.66,1.35C632.93,447.83,623.26,457,621.4,457Z" transform="translate(-18.27 -8.57)"/><path d="M643.94,455.82c-1.77.07-3-.25-3.06-1.69-.13-2.09,1.31-2.89,3.15-3.06,1.36-.12,3.17,0,3.22,1.51C647.33,454.75,645.09,455.14,643.94,455.82Z" transform="translate(-18.27 -8.57)"/><path d="M635.23,443c-1.48-.31-2.72-.86-2.64-2.47.08-1.86,1.38-2.49,3-2.26,1.41.18,2.57.88,2.24,2.54A2.42,2.42,0,0,1,635.23,443Z" transform="translate(-18.27 -8.57)"/><path d="M636,464.91c-2.59,2.39-3.8,5.51-7.75,3.66C630.09,466.24,631.62,463.86,636,464.91Z" transform="translate(-18.27 -8.57)"/><path d="M400.13,470c-2.39,8.9-4.93,17.72-12.7,23.68-13.15,10.08-27.89,9.94-43.22,6.9-11.73-2.33-22.1-8.13-33.15-12.16-18.15-6.62-35.67-6.57-52.54,3.72-.57.34-1.15.67-1.71,1-1,.68-2.2,1.25-3.08,0-.7-1,.15-1.88.87-2.57,3.46-3.32,6.51-7.08,11.21-8.93,3.35-1.32,6.16-5.24,8.91-5.53a57.49,57.49,0,0,0,11-2.63c18-5.47,34.76-.93,51.27,6.21,7,3,14.11,6.07,21.46,8.06,7.91,2.14,15.83,2.28,23.55-2.33A76.83,76.83,0,0,0,400.13,470Z" transform="translate(-18.27 -8.57)"/><path d="M337.14,355.13c-4.42-.52-8.32-2.26-12.47-4-9.32-3.83-15.13-12.75-25-15.67-3.54-1-6.46-4.49-8.91-7.71-1.86-2.46-1.28-4.17,1.39-5.54,6.08-3.1,12.11-2.88,18.09.17,5.16,2.63,10.36,5.23,14.8,9a10.87,10.87,0,0,0,2.52,1.6c3.73,1.72,7.56,4.53,11.66,1.63,4.25-3,3.14-7.76,2.45-12-1.81-10.94.82-16.87,9.45-20.42,5.53-2.27,11.73.1,13.84,5.06a6.75,6.75,0,0,1-.63,6.58c-3.74,6.44-5.8,12.81-3.92,20.8,1.75,7.38-3.6,17.73-12.95,18.57C344,353.63,340.75,355.4,337.14,355.13Z" transform="translate(-18.27 -8.57)"/><path d="M329.09,261.49c4.76-4.31,10.63-4,16.2-3.22,21.77,3.2,35.94,17.35,45.24,35.59,5.93,11.62,7.55,25.25,9.17,38.56,1.82,14.93-2.89,27.07-12.29,38-1.08,1.27-2.32,3.2-4,2.05s.45-2.49,1.1-3.65c3.28-5.75,3.09-12.35,3.18-18.42.24-18.44-3-36.42-11.83-52.89-8.17-15.23-18.43-28.49-35.91-34A59.12,59.12,0,0,0,329.09,261.49Z" transform="translate(-18.27 -8.57)"/><path d="M347.42,282.13c.12,11-7.52,15.64-15.69,13.6-9-2.25-13.48-7.68-15.49-16-2.75-11.37,5.07-14.85,14.09-13.93,6.74.68,12.18,5.78,16,11.69C347.31,279,347.23,281.27,347.42,282.13Z" transform="translate(-18.27 -8.57)"/><path d="M311.47,295.94c1,10-7.3,12.95-14.22,11.81-8.64-1.42-16.21-9.94-16.53-18.2-.29-7.22,3.7-12.07,10.77-12.24C299.84,277.11,312.6,284.72,311.47,295.94Z" transform="translate(-18.27 -8.57)"/><path d="M325.56,320.62c-4.81.41-7.73-2.14-9.69-6.2-2.25-4.69-.78-9.07,1.28-13.3.64-1.31,2.25-1.26,3.58-1.22,5.06.16,12.75,5.63,13.86,11.63C335.8,318.14,333.21,320.72,325.56,320.62Z" transform="translate(-18.27 -8.57)"/><path d="M129.34,444.37c4.13-.1,6.95,2.92,9.62,5.14,5.22,4.35,10.92,8,16.34,12,1,.73,2.87,1.43,1.76,3s-2.33.18-3.35-.72a14.93,14.93,0,0,0-7.14-3.85c-2.29-.48-2.4-4.79-5.39-5.75-4.37-1.39-6.79-5.66-10.91-7.44C129.46,446.35,129,445.68,129.34,444.37Z" transform="translate(-18.27 -8.57)"/><path d="M123.79,466.92c2.79,2.65,6.25,4.81,8,7.93,1.13,2.07,1.84,3.89,4,5a3.33,3.33,0,0,1,1.7,3.38,2,2,0,0,1-1.23,1.38c-1.82.58-2.15-1.09-2.82-2.14-2.87-4.46-7.29-7.51-10.55-11.61-.7-.87-1.81-1.73-.91-3C122.28,467.41,123.05,467.28,123.79,466.92Z" transform="translate(-18.27 -8.57)"/><path d="M151.78,435.79c-.26.42-.46,1.09-.74,1.12-.78.1-1.88.24-2.34-.19-4.54-4.21-10-7.14-14.91-10.79-1-.72-1.75-1.72-.88-2.95a1.65,1.65,0,0,1,2.62-.13c4.33,4.89,10.49,7.4,15.2,11.77C151.08,435,151.37,435.34,151.78,435.79Z" transform="translate(-18.27 -8.57)"/><path d="M121.22,354.27c4.22-.73,6.19,1.55,8.5,3.06a50.68,50.68,0,0,1,4.95,3.3c1.46,1.21,5.24,1.68,3.68,4-1.24,1.83-3-1.53-4.62-2.33-3.53-1.7-6.76-4-10.88-4.48-1.25-.13-3-1-3-2.84C119.94,353.55,121.4,354.17,121.22,354.27Z" transform="translate(-18.27 -8.57)"/><path d="M139.8,404c-4.9-2.87-9.82-5.72-14.71-8.62-.8-.48-2-1-1.29-2.21a1.7,1.7,0,0,1,2.63-.39C130.58,397,136.92,398.25,139.8,404Z" transform="translate(-18.27 -8.57)"/><path d="M115.23,332c5.67,1.58,10.07,5.52,14.8,8.83.23.16.25,1,.07,1.31-.42.78-1.17.51-1.72.16-4.6-3-9.18-6-13.77-9Z" transform="translate(-18.27 -8.57)"/><path d="M211.92,574.69c-1.22-.14-2.6-.32-2.42-1.88.23-2.11,2-2.37,3.72-2.5,1.56-.11,2.15.8,2,2.14C215,574.43,213.41,574.53,211.92,574.69Z" transform="translate(-18.27 -8.57)"/><path d="M147.23,490.24c0,1.75-.79,2.29-1.59,1.95-2.65-1.12-3.94-3.66-5.45-5.89-.4-.59.69-1.34,1.14-1C143.49,487,145.51,488.77,147.23,490.24Z" transform="translate(-18.27 -8.57)"/><path d="M99.68,312.45c-3.42.45-5.89-1-9.1-3.93C95,308.78,97.66,309.92,99.68,312.45Z" transform="translate(-18.27 -8.57)"/><path d="M572.12,571.1c-3.61,1.5-4.67-.5-5.63-3.11-.85-2.34.13-3.33,2.15-3.1,3.16.36,4.08-1.34,4.43-3.91.21-1.5.48-3.45,2.42-3,2.6.65,5.81.81,7.11,3.77a3.1,3.1,0,0,1-2.11,4.37C576.73,566.72,577.41,574.33,572.12,571.1Z" transform="translate(-18.27 -8.57)"/><path d="M523.78,246.41c-.27,7.85-.31,8.31-7.75,7.57-11-1.1-22-2.48-33.14-2.46a3.58,3.58,0,0,1-3.69-2.73,18.8,18.8,0,0,1-.66-10.33c1.37-5.25,5.63-1.57,8.39-1.58,11.61,0,23,2.81,34.6,3.2C527.38,240.28,522.31,244.88,523.78,246.41Zm-19.62-1.28c-.8-1.15.92-3.94-2-3.9-2.46,0-1.57,2.43-1.63,3.85s-.65,3.75,1.66,3.92C504.84,249.21,503.65,246.75,504.16,245.13Z" transform="translate(-18.27 -8.57)"/><path d="M545.36,249.55c1.1-2.24-2.37-5.52.37-7.49,2.31-1.66,5.5.1,8.3.14,4,.05,8-.35,11.92.81,1.79.53,2.72,1,1.56,3s-.72,4.22-.75,6.37c-.1,5.44-.91,6.29-6.11,5.36a46,46,0,0,0-8.44-.69C545.29,257.08,545.29,257.07,545.36,249.55Z" transform="translate(-18.27 -8.57)"/><path d="M578.06,243a50.44,50.44,0,0,0,6.91.51c5.28-.31,6.13,2.2,5.44,6.88-1.39,9.54-1.19,9.55-11,8.72-2.61-.23-5.9.56-7.68-.75-2.18-1.6.93-4.78.12-7.35a2.24,2.24,0,0,1,0-1.47c.93-2.15-2.49-4.63-.13-6.09,1.56-1,4.19-.18,6.34-.18Z" transform="translate(-18.27 -8.57)"/><path d="M544.22,183c6.35,0,7,.89,5.06,5.79s-4.74,9.78-3.54,15.52c.37,1.76-1.11,1.77-2.26,1.69-1.31-.09-2.61-.56-3.91-.58-3.48-.06-4.89-1.12-3.26-4.82s1.39-8.1,1.93-12.11C538.9,183.71,541,182.68,544.22,183Z" transform="translate(-18.27 -8.57)"/><path d="M669.91,515.14c-1.44-.56-3.64-.25-3.57-2.09s2.15-2.19,3.77-2.15,3.15.66,3,2.48C673,515.51,671.15,515,669.91,515.14Z" transform="translate(-18.27 -8.57)"/><path d="M250.36,62.74c-5.88-.51-11.16-2.64-15-7.54-.81-1-1.77-2.43-.27-3.48,1.29-.9,1.93.63,2.78,1.35,9.51,8,23.15,9.41,30-4.43.48-1,.94-1.94,2.15-1.43s.62,1.62.46,2.58c-1.15,6.91-6.05,10-12.12,11.69A67.71,67.71,0,0,1,250.36,62.74Z" transform="translate(-18.27 -8.57)"/><path d="M246.12,45.76c-3-.17-3.76-2.5-4.19-4.79s1.51-2.67,3.23-2.68c2.77,0,4.52,1.64,4.61,4.24C249.84,44.47,248.46,45.91,246.12,45.76Z" transform="translate(-18.27 -8.57)"/><path d="M265.11,39.62c-.06,2.21-1.36,2.54-3,2.55-2.75,0-3.83-1.6-4-4-.13-1.73.74-3.09,2.55-2.9A5,5,0,0,1,265.11,39.62Z" transform="translate(-18.27 -8.57)"/></g></g></svg>