<svg xmlns="http://www.w3.org/2000/svg" viewBox="0 0 884.11 889.1"><title>newyork</title><g id="Layer_2" data-name="Layer 2"><g id="Layer_1-2" data-name="Layer 1"><path d="M345,890c-5.24-3.32-8.36-8.33-11.31-13.61-1.55-2.8-9.8-3.57-13.68-1.25s-5.32,2.9-4.4-2.8-4.28-9.14-10.46-7.54c-1.39.37-3.07,1.71-4,0-1.36-2.32,1.5-3,2.5-3.42,7.84-3.66,8.94-10.73,9.82-18.07a26.13,26.13,0,0,1,1.42-5.3c3.18-9.48,4.92-10.14,14.83-8.12,5.62,1.15,10.92,3.65,17.1,2.9,3.65-.44,3.41-3.2,4.71-4.81,1.17-1.44-1.35-2.6-2.52-3.66a5.92,5.92,0,0,0-4.68-1.32c-5.42.51-10.52-1.38-15.8-2-2.68-.3-3.48-1.67-2.31-4.11q1-2,2.06-4c4.56-8.4,9.33-16.69,13.63-25.22,2.55-5.07,7-5,12.21-4.74-1.76-2.63-3.61-1.47-5.06-1.8-.83-.2-1.68-.28-1.79-1.34a1.75,1.75,0,0,1,1.3-1.89c1.9-.66,3.86-1.39,5.85-.7,4.1,1.4,8.25.33,12.43.24-4.83-4-11.1,0-15.41-2.06-2.4-2,2.81-.84-.06-2.26-2.38-1.18-1.16-2.43-.55-3.53,4.2-7.53,8.22-15.18,12.87-22.42,3.3-5.11,1.35-15.46-4.08-18.07-3-1.46-9,.16-10.76,2.92-3.1,4.85-6.3,9.64-9.26,14.58-1.23,2.05-2.34,2.65-4.8,1.9a115.28,115.28,0,0,1-16.93-7.18c-2.94-1.45-4.12-3.78-3.25-7,2-7.24,2.12-14.65,2.23-22.07.05-3.71-.59-7.45-4.2-8.89a8.8,8.8,0,0,0-10.42,2.6c-4.21,4.75-5.95,17.23-2.66,23.12,1.68,3,3,6.23,5.1,9.08,3.18,4.36,1.1,8.47-4.31,8.42-6.8,0-13.53-1.52-20.4-1.22A93.45,93.45,0,0,0,244,754c-5.53,2.59-6.15,5.27-2.33,8.9,3.29,3.13,5.53.21,7.47-1.75,7.93-8,17.57-12.4,28.61-11.76,8.62.5,17.49,1.23,25.62,5.05,4.39,2.07,5.46-1.94,5.88-4.39.9-5.24,2.86-5.9,7.09-3.17,1.91,1.24,4.26,1.78,6.37,2.72,1,.45,2.44.78,2.26,2.26s-1.62,1.8-2.63,2c-10,1.61-18.31,7.24-27.27,11.28-3.53,1.59-5.82,5.16-9.79,6.57s-7.69,1.95-11.47,0a10.87,10.87,0,0,0-8.28-.68c-8.52,3.05-16.57-2-24.91-.83-1.57.23-1.71-.94-1.93-2.57-.55-4-3.53-6.8-7-8.16-2.14-.83-5.36-1.28-7.14,1.75-1.62,2.78-1.75,5.32,2.24,7.61-7.75.56-14.35,1.39-21.38.06,8.14-16.18,19.17-28.83,36.78-35.09,5.12-1.83,10.35-3.43,15.44-5.37.81-.3,2.52-.89,2.32.46-1.23,8.09,5.3,5.86,8.83,6.16,4.75.42,9.54-1.24,14.46-1,3.47.14,6.11-2.5,8.66-4.51,1.05-.81,2.06-2.12-.28-4.47-7.3-7.34-16.17-4.87-24.06-4.13-22.11,2.08-40.9,11.84-56.21,28.07-2.4,2.54-4.84,5-7.26,7.57-.68.71-1.31,1.65-2.49,1.12a1.71,1.71,0,0,1-.79-2.14c1.92-7.32.53-14.87,1.86-22.32,1.28-7.11,2.45-14.33,3.05-21.56.19-2.35.9-3.42,3.14-4.26a277.74,277.74,0,0,1,66-15.84,216.58,216.58,0,0,1,39.33-.78c14.43,1,29,2.82,42.81,7.71-2.19,5.93-1.67,6.66,4.67,6.61,4,0,8,.15,12-.07,2.43-.14,5.41-.37,5.7-3.65s-1.79-4.58-4.77-5.28c-15.17-3.59-30.24-7.39-46-8.32-9.4-.55-18.81-2.41-28.2-1.82-16.5,1-33,2-49.32,5.28-14,2.81-27.92,5.63-41.58,9.7-2.31.69-3.15,0-3.22-2.1-.28-8.62.42-17.3-1.76-25.81a4.3,4.3,0,0,1,.68-2.83c1.82-3.2,11.16-7.32,15-6.43,1.84.42,3.23-.64,4.84-.66,2.91,0,6.31-1.78,7.71,3,.71,2.39,2.47,1.44,2.74-.5.43-3.12,2.31-2.58,4.36-2.31,11.25,1.51,22.45,1,33.75.16,8.18-.61,16.25-2,24.73-1.21,11.11,1,22.32-2,33.6-2.32,11.46-.3,22.69-1.17,33.78,3.52a66.93,66.93,0,0,0,21.28,4.6c2,.14,3.44,1.27,4.92,2.27,7.94,5.4,16.1,10.54,23.6,16.5,5.24,4.17,10.67,8.16,15.11,13.45a62.38,62.38,0,0,0,10.67,10.13c5.94,4.38,11,9.9,16.62,14.76,8.12,7,16.07,14.23,24.52,21,9.78,7.78,18.65,16.86,28.3,24.93,5,4.18,10.09,8.28,16,11.45,7.41,4,13.56,10.06,21.51,13.3,5.52,2.25,11.38,4.16,16.23,7.48,12.23,8.4,26.35,12.69,39.67,18.52a214.06,214.06,0,0,0,50.08,15.38c3.13.53,2.24,3.16,3.83,4.83,1.29-1.17,2.18-6,4.36-.92a1.89,1.89,0,0,0,3,.16c4-7.25,11.86-6,18.08-8,5.38-1.77,10.83-3,14.95-7.25,2.07-2.15,5.22-2.62,7.45-4.83,2.88-2.85,5.53-5.44,6.5-9.68.92-4.06,4.26-6.5,7.78-8.67A170,170,0,0,0,751.62,778c-8.67,0-16.07-.28-23.44.1-4.76.24-5.44-1.44-3.8-5.33,1.86-4.4,0-9.26,2.16-13.89,1.26-2.71,2.23-3.48,4.81-3.38,2.83.12,5.67,0,8.5,0,4.41-.08,6.08-2.48,6-6.75,0-2.58-1.14-3-3.37-3-4,.12-8,0-12,0-2.47,0-3.63-.88-3.51-3.54.4-8.47.38-17,.46-25.43.1-10.76,2.57-21.29,2-32.08-.36-7,3-13.55,4.3-20.39.44-2.42,2.37-5-1.26-6.89-.93-.48-1-2.51.41-2.8,6.27-1.36,2.74-4.79,1.43-7.26-1.91-3.59-5.48-5.72-8.52-8.3-.87-.75-2.23-1.37-2.5-2.3-3.44-11.87-8.22-23.38-10.2-35.64-.37-2.3,3-4.41,4-4.18,6.26,1.43,12.24,0,18.3-.81.49-.07,1.32-.21,1.43,0,4.22,7.53,7.07-1.46,11,0-.17,2.23,2.06,4.43,3.38,7,1.25,2.38,4.38,1.58,5.84.69,2.56-1.55,1.24-4.41-.2-6-2.49-2.8-1.08-3.28,1.49-3.24,8.59.11,17.2-.55,25.72,1.34,5.35,1.18,10.78,2.08,16-.95a3.37,3.37,0,0,1,2.84-.13c7.92,4.77,14.15-1.18,20.19-4.09,2.85-1.36,3.54-7.41,4.95-11.43.53-1.51.61-2.94,2.74-2.62,1.25.18,2.5-.08,2.58-1.62.1-2.09-2.08-1.82-2.94-1.83-4.13,0-5-2.21-4.61-5.74.31-2.9,1.06-4.14,4-2,3.27,2.38,5.88,2.16,6.27-2.83,1.4,1,1.12,2.37,1,3.31-.56,4.22,4.55.5,4.74,3.49.69-1,2-2.09.25-3.27-1.46-1-1.82-2.74-.33-3,3.74-.6,2.71-3.26,2.83-5.31.67-11.06-3.14-20.82-8.87-30-.32-.52-.8-1.29-1.26-1.33-8.08-.76-7.86-1.17-15.67-5.34-4.85-2.58-10.22-4.53-16.24-2.26-13.63,5.14-27.43,9.86-41.13,14.83-3.84,1.39-8.13,2.63-6.2,9.11-2.94-7.07-7.07-4.72-11.31-2.86s-8.56,2.91-12.49,5c-5,2.65-8.11.95-10.79-3.24a10.94,10.94,0,0,0-4.18-4.14c-1.31-.69-3.65-1.07-3.36-3.15.24-1.62,2.3-1.77,3.63-2.27,17.53-6.6,35.1-13.06,52.61-19.7,9.16-3.46,18.2-7.22,27.31-10.79,1-.39,1.9-.66,2-1.85.11-1-.54-1.42-1.4-1.74-10.45-3.86-21.12-6.6-32.32-7.24a206,206,0,0,0-79.79,10.86c-8.47,2.93-16.65,6.68-25,9.95-2.35.91-3.34,2.26-3.19,4.85.2,3.48.09,7,0,10.49,0,1,.62,2.62-.94,3a3.74,3.74,0,0,1-2.7-.94c-8.41-6.94-18.1-12.36-26-19.67-7.16-6.62-15.93-11.24-22.26-18.75-2.42-2.87-6.23-4-9.28-5.4-11.63-5.22-19.53-15.93-31.34-20.55-8.18-3.2-14.13-9.79-21.94-13.57-3.57-1.72-6.56-4.89-9.82-7.39a120.38,120.38,0,0,0-36-18.52c-6.4-2.11-11.83-5.86-18-8.23-11.74-4.51-23.47-9.31-34.7-14.79-11-5.39-23.75-6.67-33.8-13.58s-21.93-5.8-32.41-10.31c-6-2.58-11.9-5.76-18.68-6.67-9.17-1.24-18.64-2.09-27.22-5.18-8.39-3-17.06-5.07-25.45-8a59.37,59.37,0,0,0-13.53-2.76A310.81,310.81,0,0,0,253.58,354c-24.3.73-48.54-2-72.84-1a58.62,58.62,0,0,0-34.09,12c-4.81,3.64-10.84,5.12-16,8.48-7.5,4.93-13.9,11.19-21.1,16.35a75.64,75.64,0,0,0-20.82,22c-3.43,5.56-6.89,11.14-10.14,16.78a242.48,242.48,0,0,0-13.5,27.92c-4.38,10.56-10.88,20.18-14,31.25-2.37,8.44-7.21,16.14-8.52,24.72-2.49,16.18-5.4,32.55.9,48.65a5,5,0,0,1,.48,1.41c.85,14.35,8.83,25.37,17.89,35.32,5.75,6.32,10.68,13.47,17.23,19,4.14,3.48,9.24,5.82,14,8.57,4.11,2.39,7.37,6,11.89,7.85,1.58.64,2.23,1.88,1,4-2.79,4.82-1.39,6.69,4.3,7,7.09.37,14.42-1.49,21.23,1.56a102,102,0,0,0,20.7,6.6c2.07.44,3.38,1.28,2.94,4.14-1.1,7,1.48,13,6.6,17.79,1.36,1.28,2.5,2.3,2.89,4.36,1.47,7.77,3.56,15.45,4.14,23.35s3.33,15.85-.54,24.2c-6.5-9.24-15.09-15.9-22.34-23.85-1.35-1.49-2.6-2.9-2.72-5.14a230.92,230.92,0,0,0-4.87-37.75c-.58-2.63-2.14-4.51-3.46-6.48-1-1.55-3.07-3.64-5.37-2.52s-.64,3.29-.36,5c1.9,11.13,4.47,22.11,7.34,33a5.37,5.37,0,0,1-.5,4.75c-.69-5.54-4.46-9.33-7.25-13.58-3.6-5.49-4.62-12-7.9-17.49-2.87-4.84-6.55-8.21-12.7-8.13-4.16.05-6.37,2.09-5.61,6.36,2,11.26,8,20.34,15.82,28.41,1.73,1.79,3.61,3.45,5.49,5.09.88.77,2.11,1.38,1.61,2.76s-1.86,1.15-3,1.33c-2.63.43-5.52.34-7.82,1.46-5.35,2.64-7.77-.23-10.18-4.27-4-6.78-9.84-12.13-15.61-17.3-5.48-4.92-7.53-11.5-10.52-17.68a26.81,26.81,0,0,0-5.18-7.8c-1.2-1.18-2.18-2.76-4.13-1.85s-1,2.56-.9,4a8.36,8.36,0,0,1-.36,1.76c-2.47-1.66-4.79-3.18-7.07-4.76-1.59-1.1-3.25-2.14-4.8-.19s-.9,3.79.62,5.41c5.17,5.51,9.17,12.14,15.77,16.29a10.2,10.2,0,0,1,4.15,4.87c.76,1.9,1.32,4.07.19,5.72s-2.7-.18-4.07-.43c-3.14-.57-5.86.77-8.7,1.69-1.89.61-3.87,1.41-5.31-.92-3.63-5.86-7.94-11.34-8.92-18.53-.81-5.93-4.68-10.94-8.23-11.23-5.76-.46-8.54,4.75-5.95,10.85,2.91,6.82,7.49,12.46,12.2,18,1.08,1.27,1.93,2.73,3,4,1.76,2,1.38,3.36-.9,4.72a122,122,0,0,0-19.56,14.6c-4.4,4-4.91,3.69-7.41-1.8-4.2-9.2-10.53-17.33-13.55-27.15C8.07,673.7,6.45,670.1,5.44,666c10.22,6.68,21,12.51,29.29,22.65-.49-14.79-10.87-22.25-19.89-30.3C10.77,654.67,7.07,649.9,1,649v-5c3.19.68,4.62-1.14,5.24-3.85.66-2.88-2.93-11-5.24-12.15V308c5.16,1.08,10,4.18,14.81,4.86,7.29,1.05,13.9,5.52,21.49,4.28,3.11-.5,5.19,1.79,8,2.22,14.38,2.21,28.73,4.53,43.22,6,11,1.14,21.86,2.46,32.92,2.8,6.73.2,13.48,1.29,20.27,1,2.81-.11,4.29,2.48,7.22,2.77,11.18,1.13,22.61-1.25,33.52,1.44,7.17,1.76,14.81-.8,21.58,3.12a6.42,6.42,0,0,0,3.93.38c9.09-1.55,18.17.32,27.28,0s18.34,1,27.49,2.09c8.65,1.05,17.37.6,26.07.36a11.85,11.85,0,0,1,3,.06c15.13,3.45,30.29,2.23,45.58,1.25,9.86-.64,19.9-1.22,29.85.55,3.35.6,6.72-1.14,10.26-.95,11.82.62,23.64,1.14,35.47,1.3,9.36.13,18.72-.53,28.05,1.23a7.94,7.94,0,0,0,6.79-2.59c3.69-4,8.34-4.22,12.92-3.12a14.11,14.11,0,0,0,7.74-.47c6.52-2,13.08-1.64,19.66-.56,1.21.2,2.3.4,3.32-.33,3.14-2.28,6.77-1.77,10.16-1.37,4.06.48,7.73.65,11.12-2.26,1.5-1.27,3.53-.34,5.25.34,4.15,1.66,8,2.24,12.38-.16a17,17,0,0,1,9.69-1.89c9.24.88,17.38-3.56,26.05-5.42,13.5-2.9,26.67-7.21,40.38-9.21,1.26-.19,2.88-.57,3.65.78s-1,1.8-1.67,2.61c-3.68,4.63-7,9.31-11.79,13.28-3.29,2.74-9.43,5.77-8.36,12.43.17,1.09-.95,1.59-2,1.9-2.32.72-4.34,1.7-4.37,4.66a1.79,1.79,0,0,1-1.67,1.61c-5.35.93-7.17,5.94-10.65,8.72.24,1.34,1.18,1.4,1.59,1.16,5.93-3.4,13-1.84,19-4.17a187.06,187.06,0,0,0,19.1-9.19,90.26,90.26,0,0,0,10.19-5.86c7.72-5.39,13.35-12.55,18.36-20.26a24.16,24.16,0,0,0,2.94-7.91c1.56-7.12,5.79-13.39,6.25-20.89.23-3.62,3.3-6.09,5.57-8.6,7.5-8.31,13.81-17.33,18-27.73,2-4.9,3.74-9.79,4.28-15.22s3.35-10.52,3.73-16.34c1.06-16.16,3.71-32.23,1.14-48.51-.65-4.07.1-8.33-.25-12.47-1.07-12.69-2.18-25.38-3.62-38-1.14-10.05-2.67-20.06-4.3-30.05-.45-2.75.38-2.76,2.5-2.28a53.7,53.7,0,0,1,15,6.15c12.55,7.36,26.34,11.57,39.44,17.48,7.25,3.26,15,5.42,22,9.21,9,4.94,19.24,6.79,28.29,11.64,4.63,2.48,6.77,5.66,7,10.94.55,14.12-2.23,27.63-6.85,40.81a300,300,0,0,1-14.23,33.27c-1.76,3.58-4.23,6.91-5.38,10.66-1.32,4.33-5.14,5.6-7.94,8.11-1,.89-1.87.07-2.93-.69-4-2.93-7.13-1.27-7.78,3.61-1.08,8.21-1.84,16.54-3.91,24.51-1.61,6.25-6.38,11.23-10.29,16.32-7.62,9.93-12.89,21.24-19.57,31.71-6,9.38-10.72,19.79-17.93,28.07-4.22,4.85-6.31,10.48-9.94,15.37-1.36,1.82-2.55,3.45-5.2,3-1.71-.29-3.54-.13-4.18,1.82-.59,1.78-.56,3.65,1.22,5,3,2.21,1.72,3.79-1,4.27-11.84,2.06-14.54,9.43-13.09,20.3.86,6.39.14,13,.15,19.48,0,2.27.53,5-4.69,2.71,3.49,4,5.32,6.86,4.71,10.82-.35,2.31,1.82,1.94,3.21,1.9,6.36-.14,12.51-1.7,18.62-3.22,3.91-1,7.12-.5,10,2.33,2.12,2.09,4.87,2.41,8.14,3.1-1.29-3.86-5.17-4-7.11-6.87,6.55-3,12.75-6.68,19.45-8.51,2.58-.7,5.11-1.22,6.55-3.05,3.84-4.92,6.66-3.15,10,.49,3.55,3.84,8.48,6.36,10.76,11.43.37.83,1.76,2,.49,2.38-4.76,1.31-5.64,7.62-10.88,8.14a1.8,1.8,0,0,0-1.27.7c-2.89,6.31-10,6.9-14.66,10.82a12.46,12.46,0,0,1-5.94,2.29c-4.07.74-8.47-.44-12.27,2.12-.65.44-2.46.37-2.8-.11-2.08-3-3.15-1.28-4.63.57-2.14,2.67-5.41,1.34-7.9,1.2-5.87-.32-11.75,1.52-17.61-.49-3-1-2.11,1.82-2.12,3.12-.09,12.17,0,24.34-.09,36.5,0,3.43,1.25,3.43,3.9,2.39a196.61,196.61,0,0,1,24-8.15,205.53,205.53,0,0,1,44.6-6.39c8.45-.24,16.94-1.23,25.34-.75a218.47,218.47,0,0,1,34,4.09,9.74,9.74,0,0,0,.94.34c2.73.27,6.3,2.33,7.94.66,2-2,.49-5.59-.63-8.42-1.21-3.06,1.43-6.38-.85-9.64-.79-1.13,1.51-2.14,3.15-2.13,8.66,0,17.33,0,26,0,.87,0,1.72-.17,2.36,1.11,3.08,6.24,8,8.94,14.12,8a2.88,2.88,0,0,0,2-1.28c1.72-4.71,6-7.39,8.92-11.06,6.57-8.12,13-16.38,20.19-24,4.14-4.39,7.94-9.15,12.1-13.57V570c-.5-2.42-.63-5-1.55-7.22a115.41,115.41,0,0,1-7.73-26.42,4,4,0,0,0-1.26-2.58c-2.55-1.64-2.38-4.08-2.48-6.6-.25-6.27.84-12.62-1.18-18.79-.68-2.07-2.49-4.26.14-6.3a.74.74,0,0,0,.06-1.24,1.4,1.4,0,0,0-1.82-.05c-1.25.75-1.09,2.09-.89,3.15,1.06,5.56-4.24,8.13-6.15,12.25-1.8,3.87-9.28,1-12.33,6.56-1.19,2.16-2.73,1.21-1.79,4.62,1.94,7,4,13.89,4.24,21.36.26,8.72-2.24,17-3.06,25.51-.31,3.19-2.39,6.56-2.22,10.24.13,2.84.3,5.68-2.79,7.44-1.85,1.06-.23,2.31.21,3.41s1.49,2,2.26,1c3.1-3.78,6,0,7.57,1,2.63,1.78,4.61,2,7.18.66.83,3.78.51,8.41,2.66,10.51,2.87,2.79,1.89,4.8,1.16,7.39-.59,2.07-1.41,4.08-1.94,6.16-.66,2.55-.54,5.51-1.81,7.66-1.89,3.18-5.19.13-7.83.72-2.31.52-4.55.9-5.79,3.29s0,3.65,2.12,4.56c.29.12.53.93.42,1.31-1.78,6.21-.85,14-5.09,18.43-3.82,3.95-2.62,5.67-1,9.24,3,6.48,2.55,13.39,1.39,20.27-.29,1.75-1,4.68,1.34,4.46,2.83-.28,6.64,2.2,8.49-1.31,1.29-2.44,2.86-2.48,5-3,2.34-.51,6.9.83,5.51-4.74-.36-1.44,2.57-2,2.84-1,1.62,5.93,5.23,1.83,7.84,1.66,2.77-.18,5.49-1.12,8.23-1.72v32a38.91,38.91,0,0,1-8.81,3.76c-.84-2.65.55-4.25,1.47-6s3.13-2.32,3.43-4.92c-5,.62-8.32,2.37-8.34,8.3-1.43-2.33-1.32-5.82-4.92-2.85-2.06,1.7-3.86-.87-3.87-2.32,0-4.38-3.72-6.79-4.92-10.48-.49-1.51-1.74-3.16-3.5-3.18-2.12,0-2.12,2.2-2.75,3.67-3.74,8.6-2,17.78-2.77,26.69-.29,3.16,1.84,3.36,4.33,2.94,4.74-.8,9.21-2.57,14-3.35,5.55-.91,11.67-.72,16.62-4.31v29c-1.58-.41-3-.65-3.29-2.91-.25-2.07-2.16-2.39-3.92-1.73-7.43,2.79-15.14,4.61-22.81,6.55-3.36.84-6.28-.21-7.62-3.8-.87-2.32-1.55-4.71-2.4-7-.69-1.9-1-3.2-3.66-1.14-4.49,3.53-9.63,6.23-14.46,9.32-2.72,1.75-5.16,2.6-6.78-1.31a9.66,9.66,0,0,0-1.49-2c-1.76-2.29-4.45-1.93-6.44-1.28-3.23,1.07.34,2.4.33,3.68a7.35,7.35,0,0,1-.32,1.92c-.56,1.82,1.4,5.12,3.22,5.35a15.56,15.56,0,0,0,2.94.32c6.1-.43,12.11.78,18.17.88,2.61,0,5-1.78,7.8-.6s5.82.8,8.8.19,6.2-1,9.34.11a11.92,11.92,0,0,0,6.9.09A27.57,27.57,0,0,1,885,758v54c-10.8,5.75-20.07,14-31.1,19.35-1.84.9-1.38,2.46.39,2.59,3.73.28,5.42,2.66,6.85,5.55,1.05,2.13,2.87,2.33,5,2.32,6.29,0,12.57.12,18.86.19,0,14.67-.14,29.34.1,44,.06,3.43-.68,4.1-4.1,4.1q-136.5-.18-273-.1c1.11-3.78,2.08-8.09.06-11.28a29.37,29.37,0,0,1-3.55-9.61c-4.91-21.18-14.8-39-33.35-51.31-3.67-2.42-7.88-2-11.52-.6-3.82,1.45.81,3.76.25,5.79a22.25,22.25,0,0,0-.35,2.47,3,3,0,0,0,1.66,3.3c4.79,2.63,7.4,6.78,9.12,11.89,1.14,3.39,2.53,6.81,5.19,9.54,1.27,1.3,1.52,3,1,5.08a11.65,11.65,0,0,0,5.22,12.48c8.49,5.49,8.31,12.63-.41,18.06A6.87,6.87,0,0,0,578,890Zm355-49.33c2,1.67,3.77,1.07,5.35,1.08,18,0,36,.26,53.93-.12,5-.1,11.07.43,13.27-6.35.14-.42,1.09-.77,1.69-.84,4.37-.45,2.57-2.2.87-4-2.55-2.62-6.67-3.83-8.51-6.57-3.62-5.37-8.55-9.54-12.14-14.76-2-3-3.7-2.07-5.63-.77-3.84,2.59-7.45,5.54-11.34,8.07C725.11,824.5,712.2,831.67,700,840.67ZM874,781.21c-1-2.31-2.83-2.41-4-1.91-4.43,1.88-8.71-.1-13-.1-11.57,0-23.14.11-34.71-.1-8.74-.15-17.51-.36-26.2-1.21-6.32-.62-11.1,1.87-15.75,5.46-.81.63-1.81,1.2-1.49,2.33s1.53,1,2.52,1.11a150,150,0,0,0,25,.43c10.08-.47,20.08.26,30.11,0,9.61-.21,19.24.46,28.85-.48,1.32-.13,3.06.15,3.34-1.47C869.19,782.33,871.64,782.11,874,781.21Zm-24.2,25.54c-2.32,1.6-4.77,1.24-7.2,1.25-12.29,0-24.59.12-36.88,0-3.93-.05-8,.82-11.81-.85-1.07-.46-2.44-.63-2.87.89-.39,1.35.73,2.19,1.7,2.76q11.52,6.72,23.11,13.32a6,6,0,0,0,5.28.26c9.33-3.42,17.7-8.78,26.64-13C849.38,810.62,850.2,809.24,849.82,806.75ZM833.18,662c-.49-3.39-3-4.07-6.11-3.92-9.91.51-19.83.42-29.74,0-11.74-.55-23.55,1.34-35.24-1.1a2.7,2.7,0,0,0-3.27,1.68c-.67,1.84-1.5,4.11-.38,5.7s2.06-.91,3.27-1.11a2.92,2.92,0,0,1,2.8.58c2,2.2,4.53,1.77,7,1.76,21.08-.08,42.17-.21,63.25-.25,1.66,0,3.36.69,4.23-1.43.73-1.77-.81-2.26-1.7-3.14C835,658.46,835.05,662.41,833.18,662Zm-60.93-30.13c-1.72-.2-2.55-.23-3.36-.4-2.89-.6-3.56,1.65-3.86,3.48-.49,2.88,1.92,1.86,3.39,2,5.78.39,11.56,1,17.35,1.09,16.56.15,33.11,0,49.67.07,2.36,0,4-.81,3.83-3.4-.17-2.23-1.7-2.85-3.85-2.9-13.95-.36-27.9-1.16-41.85-1.12C786.18,630.62,778.69,629.84,772.25,631.82Zm-81.67-390c-2.33,0-4.65,0-7,0-1.62,0-3.14.35-3.45,2.14-.77,4.36-1.72,8.57,2.19,12.42,2.21,2.17,5.13,3,7.17,5,2.72,2.68,6.1,2.52,7.45-1.06a58.62,58.62,0,0,0,2-8.13C701.28,241.84,701.22,241.78,690.58,241.78ZM657.5,285.39v39.86c4.64-3.87,8.38-7.38,11-11.91.9-1.55,2.11-3.55.45-5-3.43-3-4.41-7.14-6-11.13S660.05,289.24,657.5,285.39Zm78.72,328c-.43-2.15-1.59-4-.91-6.3.28-1,.37-2.51-.69-2.56-2.72-.12-5.89-2-8,1.37-1.77,2.84-1.78,5.18,1.59,7,4.26,2.3,8.11,5.08,10.41,9.62.68,1.34,1.92,3.47,3.68,2.62s2.91-3.78,2.12-5.13c-1.91-3.25.33-4.28,1.72-6.46s3.18-6-1-7.94c-3.58-1.63-5.11,1.84-6.77,3.9C737.58,610.5,737.55,612.27,736.22,613.4Zm17.19,133.2a7.31,7.31,0,0,0-1.49.14c-1.19.37-3.44-1.43-3.45,1.21,0,2,2,2.47,3.72,2.56,1.48.07,3.1.42,4.35-.55,1-.77,1.69-1,2.42.12,1.8,2.65,4.71,2.12,6.83,1.51a20,20,0,0,1,11.22.17c2.28.61,4.69.73,6.54-1.21,1.07-1.11,3.52-1.51,2.86-3.56s-2.72-1.41-4.36-1.44A193,193,0,0,0,753.41,746.6Zm-299,117.48c-.43-2.3,1.38-5.36-2.43-6.64-2.81-1-4.62.61-6,2.33a17.83,17.83,0,0,0-3.86,13c.23,2.36,5,4.37,6.24,2.54C450.74,871.81,456.1,869.78,454.41,864.08ZM792,722c.62-2.36-.32-3.78-2.44-5.16-2.8-1.82-2.36,1.09-3.4,1.82s-2.14.55-2.48-.54c-.94-3-.91-2.9-3.54-1.47a51.13,51.13,0,0,0-7.7,4.86c-.8.63-2.93-.19-2.5,1.92.4,1.92,2.22,2.17,3.58,1.51,4.62-2.24,8.6.27,12.77,1.42C790.06,727.38,792.61,726.81,792,722Zm-28.34,4.78c5.54.21,3.25-4.59,4.21-6.91.58-1.42.25-5.12-3.1-5.69-2.31-.39-7.79,4.91-7.5,7.57C757.65,725.45,761,725.89,763.64,726.77Zm63.81-11c-1.3,4.47,1.29,5.47,4.1,6.88,1.15.58.71,4.14,3,3.69s.82-3.56,2.08-5.15c.56-.7.39-1.93.77-2.82s.77-1.51-.06-2.16a2,2,0,0,0-2.73,0C832.18,719.56,829.85,718.66,827.45,715.79ZM58.17,644.14c1-1.15,4.41,1.83,4.52-1.64.07-2.29-2.94-2.86-5-3.12-1.76-.22-4.13-1.65-5.29.83-.72,1.53-1.29,3.72,1.72,3.92C55.28,644.2,56.44,644.14,58.17,644.14ZM832,606.84c-.45-1.21.24-4.21-1.77-4.05-1.83.15-3.84,2.43-4.25,4.68-.37,2.07,1.39,2.69,3.23,2.8C831.41,610.39,832.21,609.28,832,606.84Zm-581.18,72c-.1-1.31-.49-3.13-2.41-3.29a2.9,2.9,0,0,0-2.89,2.75c-.16,1.7.49,3.29,2.54,3.52C249.91,682,250.78,681,250.84,678.82ZM721.67,422.36l-1.2,1c3.82,1.87,3.09,6.65,6.34,8.9.72.5,1.42,1,2.19.31.61-.55.28-1.28-.13-1.77C726.49,428,724.07,425.16,721.67,422.36Zm29.94,269.16c3.12.36,2-4.11,4.7-4.13.75,0,1.74.64,1.63-.77,0-.49-.67-1.07-1.17-1.38C753.56,683.29,751.89,685.32,751.61,691.52Zm30.32-3.81a36.68,36.68,0,0,1-4.7-.05A3.48,3.48,0,0,0,773.8,689a1.31,1.31,0,0,0,.24,1.27c1.17,1,2.44,1.8,4,.85S781.75,690.24,781.93,687.71Zm-13.55,1.22c.37,1.09.84,2.7,2.35,2.56,2.28-.2,1.43-2.63,2-4,.43-1-.76-1.81-1.82-1.72C769.25,685.89,768.3,686.91,768.38,688.93Z" transform="translate(-1 -1)"/><path d="M1,680l11,19.29c2.38,4.19,4.55,8.51,7.19,12.53,1.65,2.53,1.42,4.55-.12,6.83a65.26,65.26,0,0,0-10.27,24c-1.22,6.13-.68,12.25-.2,18.39.22,2.72,1.95,3.1,4.14,3.15,7.81.19,15.59.29,23.4.9,11.92.94,23.95.39,35.92.78a165.66,165.66,0,0,1,16.75,1.75c1.14.16,3-.2,3.37,1.51s-2.59.58-2.4,3.23c6.76-1,10.41,3.89,14.44,8.22,2.87,3.08,6.54,2.66,10.63,2.13-1.34-2.81-3.84-4.39-5.91-5.73-2.9-1.86-4.12-4.57-5.73-7.18-.53-.86-1.35-1.65-.45-2.61a2.81,2.81,0,0,1,2.84-.48c9.48,2.45,19.18.36,28.72,1.44,1.07.12,2.66.28,2.79-1.32s-1.47-1.53-2.54-1.51c-2.47.07-5-.49-7.4.47a6,6,0,0,1-6.76-1.59c-1.68-1.71-.56-3.75-.26-5.9,1-7.22,4.35-13.8,5.06-21.08.41-4.2,1.47-8.18,4.74-11.62,2.44-2.56,3.47-6.47,5.13-9.78.51-1,.59-2.5,2-2.68,1.78-.24,2,1.56,2.49,2.63a20.32,20.32,0,0,1,2.52,9,107.76,107.76,0,0,0,2.62,24.58c1.63,6.94.21,8.53-6.77,8.58a44.41,44.41,0,0,0-9.5.73c4.34.54,8.84.54,13,1.74,9.13,2.66,18.17-1.83,27.23.15,1.82.4,3.81.12,3.52,2.93-.24,2.44-1.75,4-4,3.44-5.31-1.31-11.17.15-16-3.56-2.26-1.72-10.17.39-11.79,2.84-.8,1.22.07,1.94,1.23,1.86,7.27-.53,14.5,1.3,21.77.27a12.39,12.39,0,0,1,3.46-.3c1.24.18,3.53-1,3.39,1.53-.11,1.72-.82,3.67-3.34,3.58-1.82-.07-3.64,0-5.5,0,0,1.88,1.26,1.31,2.08,1.45,1.55.25,3.77-1,4.47,1,.55,1.52-1.72,2.14-2.54,3.32-1.36,1.93-5.2,3.67-3.51,5.77,1.91,2.39,5.11.86,7.11-1.71.74-1,2.17-1.82,2.42.16.66,5.16,4.67,4.32,7.12,3.2,2.93-1.35,1.64-5.49.49-7.07-2.95-4,.07-3.49,2.21-3.69,6.16-.56,12.12,2,18.33,1.21,2-.26,4,0,6-.67-5.64-.18-11.08-1.64-16.7-1.87a41.5,41.5,0,0,1-5.47-.28c-1.81-.34-3.09-1.68-2.58-3.6s2.21-1.07,3.4-.82c11.93,2.49,24,2.5,36.13,2.79,2.8.07,5.65.33,8.37,2.52-6.36,2.37-12.72-.55-19.29,1.12a6.3,6.3,0,0,0,4.44,1.41c3.32-.23,6.65-.21,10-.18,8.24.08,9.68,1.08,12,9,1,3.31,3.38,3.58,5.85,2.85,2.8-.83,1.07-3,.54-4.47-.71-2-1.8-3.83-3.19-6.71,25.45,2.12,50.43,1.63,75.33,3.57-4.91-2.72-10.45-1.65-16.63-3,5.19-4.26,10.14-2.72,14.86-2.46,1,.05,1.89.67,2.87.78,6.69.71,6.17.43,3,6.74-2.79,5.6-4.82,11.51-8.76,16.56a41,41,0,0,1-8.42,8.37,25.73,25.73,0,0,0-7,7.36c-2.53,4-7.71,3.92-11.61,2.43-4.22-1.61-7.58-1.6-11.22.89-1.29.88-3.34,2.11-4.38.19-1.25-2.32,1.41-1.84,2.51-2.46.87-.48,1.19-1.44.53-2.08-1.77-1.7-2.28-4.63-4.86-5.39a2.34,2.34,0,0,0-3,1.94c-.22,3.25-4.9,4.91-2.88,9,.58,1.17-1.41,1.4-2.5,1.72-2.87.83-5.72,1.74-8.6,2.59-.92.27-1.94,1-2.81.16-1.16-1.07.07-2.13.26-3.19,1.57-9,4.82-17.84,1.62-27.09-.45-1.32-.19-3.4-2.21-3.42-2.22,0-2.17,2.21-2.76,3.66-1.15,2.81.64,5.46.65,8.28,0,8.48-2.13,16.48-5.05,24.22-.94,2.49-3.25,6.12-7.53,3.57a1.45,1.45,0,0,0-2.16.41,1.37,1.37,0,0,0,.22,1.29c3.19,2.17.82,3-.71,4.7-2.79,3.09-4.75,6.56-2.64,11.16,1.71,3.76-2.24,6.08-3.67,8.7-2.07,3.79-1.61,7.19-1.39,10.93.16,2.87,3.4,7.32-3.3,7.18-.93,0-1.34,1.35-1,2,2.21,4.49-2.88,8.47-.81,12.89h-3c.31-10.34,2.57-20.45,3.94-30.66.66-4.87-.71-10.77,4.52-14.35.13-.09.08-.58,0-.85-3.14-9.85,2.28-18,4.85-26.89,1.49-5.11,5.84-8,7.89-12.53.87-1.9.28-6.56,4.93-3.34.65.45,1.27-.81,1.7-1.51,1.19-1.93,1-3.55-.49-5.42-1.85-2.32-3-5.35-6.52-5.53-1.22-.07-1.74.59-1.7,1.86.12,3.67-2.84,1.79-4.38,2.19a2.44,2.44,0,0,1-2.94-2.1c-.14-2.2,2.17-2,3.52-2.73.53-.28,1.35-.11,1.46-1.39-1.92-1.56-4-4.7-6.65-1.3-3.8,4.95-3.18,7,2.56,9.53,3.68,1.62,3.26,2.94.74,5.1-6.42,5.51-9.9,14-18.81,17.26-1.93.7-3.69,2.34-5.55,1.2-6.64-4.1-13.11-8.28-14.29-17.25-.47-3.5-.47-7.32-2.4-10.57-1.36-2.31-3.25-3-5.91-2.27s-3.19,2.27-2.88,4.86c.49,4,1.07,8.09.26,12.2-.23,1.14-.65,3.5.88,3.39,5-.38,4.05,3.48,4.53,6a104.87,104.87,0,0,1,1.82,14.23c.14,2.42,2.21,4.76.6,7.78-2-3.62-3.74-6.76-5.38-10-.63-1.24-1.56-2.69.89-3.39,1.13-.32,2.1-1.52,1.21-2.74s-2.88-3-4-1.83c-2.39,2.47-2.45.31-3.21-1-2.47-4.33-4.8-8.75-7.51-12.93s-6.46-8.14-3.56-13.89a2.47,2.47,0,0,0-.68-3.18c-1.17-.7-2.25.19-3.13.94a23.41,23.41,0,0,0-6.32,10c-2.12,5.77-2.65,5.75-7.27,1.89-6.58-5.49-12.55-12-21.37-14.11-1.28-.31-2.9-2.3-3.79-.17-.65,1.52,1.5,2.34,2.58,3.21,7.27,5.82,14.56,11.6,21.94,17.27,2.49,1.92,4.34,4.33,2.7,7.14-1.87,3.22-1.08,6.59-1.73,9.84-2.85,14.25-2.49,28.83-4.23,43.22-.9,7.47.82,15.26.22,22.92H131c0-1.82-2.4-4.08,1.17-5.23.92-.3.67-1.8-.33-1.6-3.13.62-2.42-2.12-3.19-3.41-1.93-3.25-1-7.28-2.31-10.59-5.37-13.24-2.2-25.81,9-35.28,2-1.66,2.14-4.41,1.78-6.91-.2-1.36-1.46-1.72-2.71-1.69-2.41.05-3.54,1.36-3.88,3.71-.1.69-1.07,1.21-1.44,1.91-2.71,5-7.87,8.67-8.26,15-.07,1.11.23,2.72-1.2,3-1.61.25-2.35-1.56-2.57-2.61-1-4.47-3.11-8.39-5.19-12.35-.64-1.21-.81-2.29.4-3,4.62-2.86,9-6.66,14.06-8.06a16.14,16.14,0,0,0,6.34-3.82c2.39-2,2.59-4.63-1.07-6.14-2.32-1-4.65-1.81-7.22-1.5-1,.12-2.18.07-2.51,1.22s.26,2.16,1.57,2.68c3.81,1.52,1.59,2.7-.3,3.78-3.31,1.89-6.91,3.39-9.94,5.66-3.65,2.74-5.4,1.31-7.3-2-5.36-9.27-12.56-17.18-19.55-25.17-3.6-4.11-4.79-7-.29-10.92,1-.82,3-1.9,1.42-3.61-1.29-1.43-3.08-.41-4,.58-3.16,3.5-7,5-11.58,6.05s-7.36,7-5.09,9.4a12.67,12.67,0,0,1,3.73,8.88c0,1.12-.45,3.27,2.14,3.19.9-2.59.4-5.26.49-7.87s1-4.73,3.13-5.89c2.43-1.35,4,.89,5.47,2.35,8.15,8.1,14.89,17.3,21.05,27,1.62,2.56.72,3.5-1.31,5.15-4.08,3.3-9.66,3.67-13.33,7.8a191.55,191.55,0,0,0-31.78-43.7c-1.77-1.85-1.09-2.58.07-4,1.56-1.91,4.24-2.73,5.08-5.35.33-1,1.66-2,.39-3.07-1.08-.92-2.22-.3-3.09.57-4.86,4.91-12,6.52-16.38,12.56-4.91,6.73-12.59,10.8-20,14.52-3.55,1.78-7.44,4.36-11.8,2.74A14.09,14.09,0,0,0,1,814ZM60.21,781.74c4.91.13,10.06-3.73,10.16-6.59.1-3.08-2.33-2.13-3.91-2.2-6.4-.25-10.8,2.13-10.23,5.75C56.66,781.43,59.31,781.7,60.21,781.74Zm173,39.33c0,1.17,0,2.33,0,3.49s-.11,2.66,1.43,2.69,1.32-1.62,1.63-2.67c.64-2.19-.44-4.25-.52-6.38,0-1,.12-2.27-1.22-2.31s-1.3,1.22-1.34,2.2S233.22,820.08,233.23,821.07Z" transform="translate(-1 -1)"/><path d="M885,344c-9.35-12.9-18.65-25.83-28.06-38.68-6.48-8.85-13-17.65-19.75-26.32a11.3,11.3,0,0,1-2.65-7.26q0-51.46,0-102.94c0-3,.16-4.91,3.62-1.91,1.49,1.3,3.92,1.68,6,2.1,11.48,2.27,22.1,6.69,32.34,12.26,2.57,1.41,5.66,1.86,8.52,2.75v58c-9.6-.06-19.2-.13-28.81-.16-.92,0-2.19-.37-2.55.87-.41,1.42.85,1.94,1.82,2.56,1.95,1.24,4.13,2.23,5.77,3.8A195.1,195.1,0,0,0,885,269Z" transform="translate(-1 -1)"/><path d="M466,1c-.33,1.89-.2,3.84,2.35,2.73,4-1.75,6.92.54,9.63,2.43a69.14,69.14,0,0,0,22.3,10.71,23.29,23.29,0,0,1,6.33,2.86,234.29,234.29,0,0,0,36.82,18.14c2.18.87,2.14,1.77,1.28,3.2-1.45,2.42-3.23,4.64-4.65,7.07-1.72,3-4.27,5.19-3.65,9.65.32,2.28-1.58,6.07-2.91,9-1,2.32-3.14,1.9-5.18,1.23-5.54-1.81-10.34-5.13-15.59-7.51-14.58-6.61-28.16-15.13-42.23-22.68-7.37-4-14.55-8.61-22.21-11.73-6.17-2.51-12.72-4.72-18.83-7.27-8-3.33-16.85-3.86-24.36-8.73C401.56,7.8,396.48,8.44,392.18,7,384.9,4.67,377.4,3,370,1Zm3.75,30.39c2.07-.63,2.33-2.23,2.33-3.95s-.4-3.11-2.44-2.89a2.52,2.52,0,0,0-2.49,3.05C467.45,29.13,468,30.78,469.75,31.39Z" transform="translate(-1 -1)"/><path d="M100,890H64c1.5-5.31,1.77-10.73,1.91-16.24.37-14.81-2.26-29.52-1.17-44.34a11.85,11.85,0,0,0-.55-4.42c-.72-2.31-2-4.38-4.79-4.37-2.62,0-3.84,2-4.4,4.15A44.23,44.23,0,0,0,53.1,835c-.26,9.33.85,18.57,1.28,27.85.13,2.73,2,6.84-.29,7.88-2.74,1.22-5.38-2.39-7.74-4.29-9.92-8-13.86-19.85-19.42-30.65-1.29-2.5-2.27-5.15-3.6-7.63a4.33,4.33,0,0,0-5-2.3c-2,.53-2.59,2.44-2.5,4.41a24.49,24.49,0,0,0,.52,3.91A101.45,101.45,0,0,0,21.59,852c-2.67.08-3.53-1.63-4.76-3A115.13,115.13,0,0,1,1,827v-6c2.7,2.53,7.44,4.28,9.41,3.44,4.65-2,9.88-3,14-5.85,7.61-5.24,15-10.84,22.2-16.63,2.53-2,4.11-2.43,6.72-.2,7.87,6.75,14.12,14.83,20.15,23.17a208.64,208.64,0,0,1,15.26,25.4c1.77,3.36,4.46,6.95,4.25,12.16-1.81-3-2.64-5.94-5.55-6.4-2.31,5.19,2.63,8,3.25,12.08.79,5.12,5.23,8.47,5.59,14C96.46,884.31,99.07,887.16,100,890Z" transform="translate(-1 -1)"/><path d="M180,1c-8.61.85-15.57,6.12-23.5,8.79-3.29,1.11-6.69-.3-10.19.36-5.4,1-10.1,3.76-15.31,5.19-2.72.75-5,3.08-8.21,1.8-.27-.11-.87-.14-.91,0-2.47,5.88-9.28,4.06-13.38,7.49C105.83,26.83,101.37,26.54,98,29c-8.28,6-18.7,8.16-26.77,14.83-3.2,2.65-8.11,2.26-11.49,5.94-2.39,2.62-5,.65-5.25-3.15A12.52,12.52,0,0,1,56,39.38c1.91-3.24.23-6.52.42-9.76,0-.61-.32-1.56-1.15-1.23-3.56,1.41-3-2.26-3.83-3.49-1.2-1.8-1.64-4.93.2-6.39C53.12,17.35,54.33,20.32,56,21c1.2.48,1.69,2.15,3.58,2.07a25.93,25.93,0,0,0,15.78-6.24C80.7,12.2,78,6.24,75,1Z" transform="translate(-1 -1)"/><path d="M155,890c-.05-2.82-.09-5.63-.16-8.45,0-1.77.39-4.08-1.87-4.55-2.69-.57-3.09,1.78-3.54,3.77a10.44,10.44,0,0,1-.85,1.87c-2.27-1.12-1.51-3-1.53-4.43-.27-16.07-.36-32.15,2.51-48,.72-4,.37-10.17,3.8-11.06,2.85-.74,4.62,5.5,6.27,8.86a157.23,157.23,0,0,1,9.6,26.27,5.66,5.66,0,0,1,.14,3.44c-2.6,6-.52,12.07.15,18,.55,4.77,1.32,9.52,1.48,14.33Z" transform="translate(-1 -1)"/><path d="M109,890c-2.91-4.28-4.48-9.26-5.63-14.09-2.13-8.89-7.53-16.63-8.59-25.84-.17-1.45-2.47-1.68-2.76-3.81,1.74.14,3.08.47,4-2.16,1.57-4.42,6.8-5.77,10.16-8.81.68-.61,1.47.2,1.93,1,2.25,3.85,5.66,7.43,6.57,11.57,2,9.07,6.16,17.92,5.1,27.37-.51,4.55,3.19,7.63,2.47,11.86-.17,1-.18,1.95-.27,2.92Z" transform="translate(-1 -1)"/><path d="M200,890c-2.7-4.49-3.47-9.44-3.71-14.59-.18-4,.08-8-1.85-11.76-1-2-.05-3.56,1.43-5.69,2-2.87,3.38-6.58,4.87-10a24.45,24.45,0,0,1,.77-2.33c3.45-6.19,3-7.15-3.9-7.9,1.86-3.61,5.07-5.53,8.07-7.64,1.83-1.29,2.6.17,3.52,1.41,3.33,4.46,3.77,9.55,2.8,14.72-1.4,7.45-1.56,15.09-3.57,22.46-.87,3.17-1.44,5.8-5.88,5.5-3.91-.26-3,3.11-1.35,4.19,4.88,3.18,2.93,7.53,2.8,11.63Z" transform="translate(-1 -1)"/><path d="M1,838c5.34,8.38,12.79,14.64,20.71,20.35,1.53,1.11,3.39,2.91,5.82,1s1.35-4,.65-6.23c-.62-2-2.12-3.66-1.37-6.13a119,119,0,0,0,9.47,15c-8.54-.68-15.6,1.32-21.84,6C10.55,870.94,7,874.21,5,878.74A23.1,23.1,0,0,1,1,885Z" transform="translate(-1 -1)"/><path d="M885,659c-5.74,0-10.47,3.84-16.18,4.27-2.4.17-3.49-.17-4.48-2.41A99,99,0,0,0,858,648.52c-2.29-3.66-.35-4.67,2.63-5.42Q872.81,640,885,637Z" transform="translate(-1 -1)"/><path d="M1,139c3.49,1.34,3.44,5.43,6.33,7.48-1.74,1.7-5.4-2.17-5.55,2.56-.11,3.47,3,3.76,4.45,4.32,2.66,1,1.12-2.56,2.28-3.62,7.23,5.83,7.7,8.9,2.51,15.94a60,60,0,0,1-4.21,5.52A4.22,4.22,0,0,1,1,172Z" transform="translate(-1 -1)"/><path d="M182,890c-.45-6.94-2.41-13.62-3.93-20.34-.62-2.77-.44-4,2.07-5.24,2.15-1.08,4-2.82,6.25-4.5,3,10.11,3,20.07,2.61,30.08Z" transform="translate(-1 -1)"/><path d="M32,890a41.55,41.55,0,0,1,14.93-9.51c4.25-1.51,8-1,9.9,3.24,1.23,2.68,5,2.95,5.17,6.27Z" transform="translate(-1 -1)"/><path d="M223,890c1.16-1.06,3.48-.75,3-3.67-.86-5.1,3.87-7.64,6.13-11.31.61-1,1.79-.56,2.56.26,1,1.11.91,2.16.31,3.59-1.54,3.63-5.17,6.54-4,11.13Z" transform="translate(-1 -1)"/><path d="M19,1c-.39,2.68-2,3.8-4.55,3.13C11.55,3.36,7.05,6.75,6,1Z" transform="translate(-1 -1)"/><path d="M47,1l1,7.67c-3.39-2-5.86-3.8-3-7.67Z" transform="translate(-1 -1)"/><path d="M253.22,169.61c0,11-1.7,13-12.25,14.52-1.63.24-3.22.2-4.79,1-2,1.05-3.68.31-5.15-1.59a130,130,0,0,1-10-15.5c-3.79-6.63-7.23-13.46-10.92-20.14-.82-1.48-1.32-4.12-3.64-3.25-2,.75-2.22,3.14-2,5.23,1.31,12.42.47,24.92,1.3,37.36.35,5.16-2.15,7.51-7,8.49a60.43,60.43,0,0,0-9.43,3.09c-4.12,1.6-6.81.74-8.78-3.52-4.32-9.33-8.85-18.59-13.11-27.94-5.63-12.38-12.09-24.33-18-36.57-2.08-4.32-1.66-6.59,3.16-7.75,2.9-.69,5.68-1.86,8.56-2.66,6.32-1.74,7-1.38,9.79,4.61,3.24,7.07,6.52,14.12,9.57,21.27.62,1.45,1.71,2.4,2.44,3.68.6,1.06,1.39,2,2.74,1.71,1.51-.37,1.4-1.8,1.28-2.89-1.07-10,.75-20.12-1.07-30.09-.89-4.91,1.31-7.58,5.81-8.85,4.14-1.17,8.33-2.21,12.42-3.55,2.64-.86,3.62.67,4.66,2.49,4.29,7.51,8.56,15,12.9,22.49a62.48,62.48,0,0,0,4.42,6.62c.66.87.79,3,2.75,2,1.4-.72,1.49-2.21,1.09-3.52-2.9-9.64-2.52-19.66-3.43-29.53-.61-6.55.35-7.82,6.81-8.91,2.6-.43,5.18-1,7.75-1.63,5.54-1.32,6.95-.6,6.91,5.28-.06,6.86,1.26,13.57,1.5,20.38.29,8.13,1.57,16.22,2,24.3S253.74,162.11,253.22,169.61Z" transform="translate(-1 -1)"/><path d="M376.34,106.73c26.22-1,40.31,19.86,43.37,38.9a70,70,0,0,1-1.56,29.44c-2,7.55-12.19,16.66-20.58,17.61-10.57,1.19-21,.11-30.7-4.46-11.8-5.56-17.86-15.88-21.08-28-3.32-12.49-3.21-24.81,1.82-37,4.36-10.58,12.45-15.36,23.31-16.42A52.11,52.11,0,0,1,376.34,106.73Zm-9.29,41.08c-.73,8.58,1.16,16.05,8.05,21.56,4.66,3.71,9.81,4.59,15.34,2.16,4.95-2.18,6.15-6.54,6.46-11.4a29.48,29.48,0,0,1,.58-5.42,24.27,24.27,0,0,0-1.06-15.52c-2-5.05-3.82-9.61-9.52-12.25-6.56-3-16.52.21-18.19,7.34C367.66,138.75,366.17,143.24,367.05,147.81Z" transform="translate(-1 -1)"/><path d="M44.45,241.78c3.95,9.52,10.33,16.69,14.81,25,1.1,2,1.61,4.33,3,6.22s.71,3.39-.89,4.8c-3.34,3-6.95,5.58-9.53,9.39-1.1,1.61-3,2.58-4.64-.29-8.12-14.22-16.41-28.35-24.6-42.53-2.82-4.88-5.47-9.84-8.33-14.69A4.44,4.44,0,0,1,14.2,225c2.3-4.81,6.3-8.12,10-11.68,1-1,2.1-1,3.59-.43,7.31,3,15,5.26,22,9,3.43,1.85,7.24.32,11.19,2.46-1.2-6.81-5.79-10.69-8.68-15.5-2.65-4.42-5.39-8.78-8.08-13.17a3.73,3.73,0,0,1-.72-2.82c.36-1.57,11.08-12.62,12.55-12.63,2.27,0,3.42,1.77,4.5,3.42,9.09,13.87,18.94,27.21,28.4,40.82,3.25,4.68,7.21,8.91,9.51,14.29,1,2.43.77,4.08-1.17,5.7-3.7,3.08-7.44,6.14-11.06,9.33-2.68,2.38-5.3,1.13-7.94.15-10.43-3.86-20.84-7.77-31.27-11.64A23.86,23.86,0,0,0,44.45,241.78Z" transform="translate(-1 -1)"/><path d="M491.92,237.83a160.74,160.74,0,0,1-21.3-11.23,3.83,3.83,0,0,1-1.59-3c-1.32-10.37-3.54-20.56-5.75-30.76-.51-2.37-1.07-4.42-3.61-5.49-3.05-1.29-4.61-1.22-5.48,2.74-1.52,6.94-3.92,13.69-5.15,20.73-.6,3.45-3,4.35-5.87,3.12-5-2.13-10-4.5-14.88-6.93-2.19-1.1-2.69-2.81-1.91-5.42,6.49-21.77,12.94-43.56,19-65.44,1.14-4.07,3-3.82,5.63-2.44,8.67,4.48,17.1,9.48,26,13.52a47.75,47.75,0,0,1,17.32,12.93c6.82,8.14,7.14,22.21.48,30.48-2.26,2.81-5.45,3.94-8.68,4.5s-3.31,1.9-2.31,4.43c4.47,11.36,6.06,23.39,8.09,35.31A19.68,19.68,0,0,1,491.92,237.83Zm-17.33-60.91c3-.56,5.24-2.28,4.77-5.59-.62-4.37-1.84-8.26-6.62-10.66-9.57-4.81-12.37-3.44-13,7.48-.08,1.36-.1,2.64,1.3,3.46A54.24,54.24,0,0,0,474.59,176.92Z" transform="translate(-1 -1)"/><path d="M148.21,172.44c.35,2-.71,3.48-2.69,4.56-6.7,3.67-13.27,7.57-20.05,11.09-4.89,2.54-6,5.33-3.81,10.67.92,2.2.06,5.5,2.83,6.48,3.12,1.12,5.66-1.4,8.3-2.67,7.94-3.82,15.13-9,23.4-12.29,2.34-.92,3.55-1,4.9,1.17,2.31,3.69,3.38,7.93,5.32,11.79,1.31,2.6-1.81,4.59-4,5.42-12,4.59-22.46,12.13-34.16,17.31-4.44,2-8.44,5.12-12.75,7.58-3.21,1.83-4.52,1.5-5.82-1.92-4-10.54-8.21-21-12.41-31.47-4.75-11.82-9.48-23.64-14.44-35.37-1.09-2.58-.72-3.88,1.62-5.24,14.49-8.42,28.5-17.66,43.4-25.39,3.46-1.8,6.11-1.58,7.88,2a74.88,74.88,0,0,1,3.51,8.72c.56,1.63-.3,2.61-1.88,3.49-8.82,4.92-17.5,10.08-26.33,15-2.42,1.34-3.83,2.51-2,5.35a12.27,12.27,0,0,1,1.17,3.81c.76,3.37,3,4.17,5.5,2.34,5.94-4.28,12.66-7.11,19-10.71C142.2,159.79,148.09,163.25,148.21,172.44Z" transform="translate(-1 -1)"/><path d="M642.1,183.58a8,8,0,0,1-3.22,5.5c-2.23,1.69-3.56-.79-5.09-1.82q-14.65-9.84-29.26-19.78c-.92-.62-1.81-1.94-3-.89s.17,2,.76,2.9c3.26,5,6.49,10,9.78,15,1.32,2,2.74,3.95,5.63,2.45a2.27,2.27,0,0,1,1-.13c3.09.06,13,15.16,11.81,18-2.55,5.76-7.52,10-9.76,16.06-.87,2.34-3.25,1.21-4.29-.57a89.55,89.55,0,0,0-9-12.88,3.28,3.28,0,0,1-.34-2.85c2.3-5.27-.94-8.55-3.82-12.26s-6.85-6.82-8-11.72c-.72-3-3.73-4-5.31-6.39-4.48-6.74-9.49-13.13-14.26-19.69-.9-1.24-2.25-3.2-3.34-2.53-5.55,3.36-6.58-1.93-9-4.39a39.44,39.44,0,0,1-3.67-4.72c-5.1-7-3.8-13.24,3.67-17.92,1.47-.92,2.62-.57,4.13.16,13,6.34,24.5,15.26,37.22,22.09,1.34.72,2.83,2.87,4.24,1.4,1.67-1.73-1-2.55-1.7-3.84-3.4-5.79-7.67-11-11.35-16.55-1.49-2.26-2.45-3.35-5-2-1.42.74-3.06,1.12-4-.44-3.1-5-7.57-9.06-9.59-14.72-.52-1.46-.73-3.14.47-4.25,3.85-3.53,5.4-8.71,9.11-12.35,2.52-2.46,4.24-3.32,6.11.76a75.51,75.51,0,0,0,6,9.74c1.7,2.55,2.64,4.91,2,8.29-.91,4.77,2.63,8.32,5.09,12,5.52,8.24,11.16,16.39,16.34,24.86,5.44,8.9,11.31,17.55,17.11,26.23C640.85,178.24,642.2,180.08,642.1,183.58Z" transform="translate(-1 -1)"/><path d="M536.31,262.2c-1.44-7,1.93-13.91-.15-20.88-.47-1.6-.53-2.67-2.68-2.62-7.44.2-12.46,3.56-15.22,10.52-.43,1.08-.84,2.17-1.34,3.21-1.27,2.62-3,3.31-5.52,1.4-3.81-2.94-7.74-5.72-11.43-8.8-2.79-2.33-2.93-5.08-1.07-8.4,5.91-10.55,11.72-21.16,17.23-31.92,3.47-6.78,6.48-13.82,9.38-20.87,1.31-3.17,2.51-4.1,5.26-1.52,3.39,3.17,7,6.17,10.38,9.31,1.76,1.61,1.91,3.24,1.07,5.75-1.67,5-4,9.67-5.58,14.72-1.65,5.34,1.71,3.52,3.57,3,5.15-1.31,10.44-2.49,15.2-4.73,6.86-3.22,9.54,2.77,13.43,5.52s6.78,6.64,10.1,10c2.55,2.61-.09,3.08-1.65,3.45-5.63,1.32-11.26,2.69-17,3.49-4.53.63-6.47,2.58-6,7.2,1.09,10.26.81,20.61,2.41,30.86.77,5,0,10.19.24,15.29.12,3.48-1.53,3.29-3.51,1.8-3.56-2.68-6.65-6.12-10.46-8.34C535.83,275.55,535.23,269.22,536.31,262.2Z" transform="translate(-1 -1)"/><path d="M288.41,157.76c.89-9.61-1.08-18-7.15-26.07-7.23-9.6-12.95-20.34-19.26-30.62-2.84-4.65-2.24-5.76,3.05-5.84,4.82-.08,9.66.16,14.47-.08,4-.2,6,1.77,7.81,4.95,3.09,5.46,5.32,11.39,9.06,16.51,2.66,3.64,4.05,3.76,6.35,0q5-8.25,9.75-16.69c2.21-3.92,5.47-5.16,9.65-4.11,4.35,1.09,8.68,2.13,13.2,2,3.39-.09,3.13,1.59,1.75,3.7-7.52,11.48-13.34,24-21.64,35a16.93,16.93,0,0,0-3.6,11.14c.33,9,.32,18,.33,27,0,5.27-1.57,6.69-6.69,5.7a72,72,0,0,0-12.32-1.15c-3.06-.06-4.36-1.27-4.55-4.51A146.76,146.76,0,0,1,288.41,157.76Z" transform="translate(-1 -1)"/><path d="M146.56,24c5.44,2.91,5.43,2.87,5.51-3.72,0-1.95-1.06-4.24,1.92-5.5s3.24,1.2,4.5,2.5c.66.68,1.76,1.58,2.48,1.44,3.87-.75,4.52,1.29,5.23,4.53,1,4.39,4.85,3.86,8.17,3.27,5.3-1,6-.54,6.26,4.66.14,3.45,1.35,4.77,4.64,2.77,1.63-1,4.33-2,3.59,1-2.13,8.78,2.77,1.91,5,2.19,1.29,5.87-2.27,9.18-6.42,12.34-1.1-4.18-3.15-4.52-6.24-1.68-3.38,3.11-6.69,6.5-12.11,4.19-1.84-.78-1.84,1.13-2.3,2.36-1.86,5-4.8,6.9-10.26,6.2-2.85-.37-5.22.76-7.68,1.71-3.53,1.37-5.71,1.26-6.92-3.26-1.3-4.81-5.86-7.61-10-9.45-2.61-1.17-2.35-2-2.31-4,.06-2.71,1.45-6.32-3.58-6.51-1.72-.06-1.74-1.78-.43-2.31,1.14-.47-.89-4,2.25-2,2.91,1.78,3.07,0,2.52-2.33a18.83,18.83,0,0,1-.53-2.43c-.89-8.27,1-10.18,9-9.18,2,.25,2.77,1.62,3,3.43s-.14,4.72,2.51,4.62S144.89,25.59,146.56,24Z" transform="translate(-1 -1)"/><path d="M607.69,66.51c4.79,2.11,9.78,3.88,14.32,6.45,4,2.3,4.44,7.31,5.9,11.19Q632.35,96,636.28,108c1.58,4.84,3.71,10.65,10.79,11.48,3.6.42,8.64,12.3,7.61,16.67s-3.55,8.24-4,12.77c-.09.87-.6,1.67-1.57,1.59-.56,0-1.51-.53-1.56-.92-.44-3.12-3.17-4.48-4.7-6.7s-4-5.11-1.95-8.64c1-1.66-.19-3.15-.91-4.66C635,119.17,625.4,113.4,616.8,106.69c-3.47-2.71-6.47-6.94-11.91-6.22-.86.12-1.25-.8-1.72-1.53a99.23,99.23,0,0,0-6.42-9.36c-2.75-3.35-2.28-6.27.23-9.37a59.69,59.69,0,0,0,4.44-6c1.75-2.8,3.15-6,6.24-1.11.51.81,1.59,1.47,2.52.48s.12-1.85-.43-2.67c-.87-1.28-1.78-2.53-2.67-3.8Zm12.49,24.56c-.27-6.48-4.23-10.06-7.29-14.14-.55-.73-1.95.17-1.5.89,2.55,4.09,2,9.74,6.46,12.84.69.47,1.31,1.12,2.17.64C620.36,91.11,620.48,90.52,620.18,91.07Z" transform="translate(-1 -1)"/><path d="M754.6,477.29a77.29,77.29,0,0,0-.06-8.34c-.42-3.92-2.7-4.76-6.26-3-3.35,1.64-4.56,5.21-7.3,7.38-1.16.92-2,2.48-3.69,2.1-2-.46-1.28-2.36-1.57-3.73-1.21-5.91-1.68-11.77,0-17.72.78-2.85,1.73-4.29,4.76-2.51,2.86,1.67,6.07,1.58,9.24,1.55,4.19,0,6.46,1.42,6.18,6.19-.34,5.95-.08,11.94-.08,17.92Z" transform="translate(-1 -1)"/><path d="M153.55,91.68c-1.14-.13-1.57-1.05-2.19-1.83a18.71,18.71,0,0,0-3.63-4c-1.55-1.07-4.91-.36-3.62-3.85,1.38-3.72,2.72-7.65,7.28-8.68a2.82,2.82,0,0,1,2.18.81c.68.69.4,1.53-.53,2a2,2,0,0,0-1.12,2c.05,1.25-.37,2.9,1.37,3.32s2.49-.78,2.43-2.29c-.12-2.66,1.45-4,3.61-3.43,2.59.71,1.41,3.15.6,4.51-1.85,3.12-1.12,7.22-4.08,9.9C155.12,90.84,154.71,91.76,153.55,91.68Z" transform="translate(-1 -1)"/><path d="M2,19.26a2.93,2.93,0,0,1,1.61-2.87c1.16-.49,1.71.58,2.42,1.27,2.14,2.08,4.43,4,6.47,6.19.85.9,1.78,2.41.79,3.57s-2.43.62-3.69,0C4,24.55,1.69,22.1,2,19.26Z" transform="translate(-1 -1)"/><path d="M181.66,73.06c.52-1.88-.4-4,1.6-4.75,2.17-.87,2.8,1.09,3.65,2.44.54.87,1.07,1.69,2.24,1.67s3-1.15,3,1.09a6.2,6.2,0,0,1-2.84,5c-2.27,1.56-2.32-.89-2.93-1.9C185.23,74.75,181.17,76.43,181.66,73.06Z" transform="translate(-1 -1)"/><path d="M378.09,544.79c-4.61-3.58-4.54-8.72-5.83-13.15-1.09-3.71-3.26-5.64-6.49-7.55-6.53-3.88-13-7.91-19.67-11.5-4.77-2.55-9.26-4.78-15-2.19-3.88,1.75-8.31.28-11.11-2.63-8.39-8.71-18.61-15.15-27.52-23.23-16.8-15.24-33.4-30.81-51.64-44.33-7.66-5.68-14.92-12.24-24.17-15.53-.31-.11-.6-.37-.91-.4C198.85,423,182.12,417.4,165,422c-7.32,1.95-14.18,6-22.11,4.74-5.44-.85-11.54-.73-13.83-7.6-.48-1.46-2.21-2-3.65-2.22-4.49-.82-3.88-3.67-2.93-6.81,4.64-15.41,17.45-19.46,31-23.5,19.25-5.73,39.25-3.47,58.69-6.93,7.67-1.37,15.09,1.19,22.39,4.89,8.2,4.15,14.24,11.55,23.14,14.39,2.35.75,3.14,3,3.92,4.91a13,13,0,0,0,7.94,7.77c5.69,2,9.53,6,12.92,10.53a12.51,12.51,0,0,0,5.84,4.33c5.57,2.15,9.41,6.25,13.3,10.65a24.55,24.55,0,0,0,12.07,7.12c5.71,1.45,9.85,5,13,9.1,5.1,6.51,10.46,11.27,19.24,11,4-.13,6.23,2.31,7.15,6.2,1.15,4.93.24,10.84,6.42,13.51,1.48.64,1.18,2.61,1.18,4.11a103.22,103.22,0,0,1-.1,11c-.39,3.62.5,4.93,4.37,5,2.13,0,2.39-.36,3.4-2.07,3.43-5.84,1.52-12.85,4.54-18.69.3-.57.21-1.35.52-1.92,1.11-2.08,1.14-5.83,4.22-5.36s1.53,3.87,1.65,6c.32,5.28-.11,10.56,1.24,15.84,1.51,5.91-1.57,11.39-2.81,17a38.16,38.16,0,0,0-.25,14.82C378.44,534.67,378,539.5,378.09,544.79Z" transform="translate(-1 -1)"/><path d="M668.59,586.05c5.82,8.1,12.65,14.09,16.93,22.19,2.52,4.79,3.43,10,5.52,14.89a2.14,2.14,0,0,1,.16,1c-.19,2.36-11.65,11-14,10.34a17.32,17.32,0,0,1-8.48-4.76c-6.65-6.85-12.87-14.11-19.71-20.77-2.51-2.44-4.25-5.41-7-7.83-6.81-5.88-14.89-6.92-23-7.94-5.4-.68-11,.1-15.73-3.48a6.56,6.56,0,0,0-3.34-.85c-10-.67-19.89-2.64-30.15-1.61a64.78,64.78,0,0,1-17.72-.71c-9.13-1.67-18.24-3.32-27.46-4.38A90.18,90.18,0,0,1,495,573c-6.49-3.19-9.05-2.25-12.57,3.93-.9,1.58-2,3.08-2.87,4.65s-2.09,3.06-4.35,2.41-4.32-2-4.18-4.36c.59-9.48-7.66-13.32-12.18-19.49-1.27-1.73-3.78-.76-5.73-.86-4.91-.23-6-2.28-4-6.81,2.46-5.52,7.19-9.49,9.68-15a32.52,32.52,0,0,0,3.2-15.93,25.12,25.12,0,0,1,.37-5c.16-1.18.63-2.35,2.06-2.46a2.4,2.4,0,0,1,2.6,1.81c2.45,6.3,7.26,9.74,13.78,10.86,1.57.27,2.12,1.23,2.9,2.35,3.76,5.43,7.06,6.8,13.08,4.7,3.26-1.13,6.35-.83,8.46,1.12,4.89,4.5,11,3.3,16.48,4,7.06.84,14.14,1.14,21.2,2.51,5.25,1,10.85.64,16.27.4,17.19-.75,34,2.71,51.07,3.82,3.08.2,4.7,2.93,7.43,3.78,12.11,3.78,22.24,11.13,32.06,18.75,4.35,3.39,7.92,8.08,7.27,14.47a57.16,57.16,0,0,0,0,6c0,8.37,0,8.3,8,9.16,1.85.19,1.8-.76,2-2C667.41,592.81,667.94,589.91,668.59,586.05Zm-11.07,27.37a34.66,34.66,0,0,0,3.9-2.64c2-1.77,2.09-4.4,2.6-6.79.17-.78-.69-1.15-1.34-.89-2.24.94-2.91,3-3.35,5.14C659,609.94,656.28,610.61,657.52,613.42Z" transform="translate(-1 -1)"/><path d="M663,712.45c-4.73.5-8.76.62-11,3-7.35,8-21.06,8.42-24.72,20.73a2,2,0,0,1-2.67,1.59,9.45,9.45,0,0,1-6.16-6c-.42-1.29-.71-2.92,1.18-3.87a31,31,0,0,0,4.56-3,8.25,8.25,0,0,0,3.28-8.16c-.6-4.06-2-7.87-6.85-8.62a21.23,21.23,0,0,1-9.25-3.4c-5.27-3.73-11.35-2.21-17.09-2.89-1.64-.19-3.81.09-4.06-2-.31-2.66,2.62-2.57,3.92-2.64,4.91-.26,9.82-1.44,14.82.1,5.23,1.6,10.72.85,15.7-.8,4.71-1.56,6.38-9.69,3.89-13.65-2.25-3.58-4-7.38-7.28-10.43-4.29-4-9.48-5-12.47-.13-7.3,11.84-18.4,9.79-29.31,9.2-15.29-.83-21.15-11.31-25.3-24a32.66,32.66,0,0,1-1.43-14.59c.51-4.31-.33-9.33-4.87-11.65-4.18-2.13-8.07-.34-11.27,2.85-4,3.93-9.3,4.46-14.29,4.92a20.35,20.35,0,0,0-9.93,3.91,58.16,58.16,0,0,1-5.56,3.26c-1.73.9-3.69,1.07-5.08-.43a4.14,4.14,0,0,1-.28-5.55c2.75-3.07,4.12-7.2,7.9-9.51,3.42-2.1,3.75-6.07,1.29-9.32-1.28-1.69-3.63-3.5-2.76-5.46,1.05-2.37,4.14-2.35,6.61-2.72a24.41,24.41,0,0,1,11.78,1.52c7.91,2.83,16.4,4,23.64,8.87,2.73,1.84,7,.37,9.86,2.8,6.71,5.72,15.17,8,23.05,11.17,5.76,2.3,11.51,4.6,17.18,7.11,6.56,2.9,12.82,6,18,11.35,3.81,4,9.76,5.3,13.71,9.67,2.43,2.68,5.42,5.06,7.36,8.06,3.21,4.93,7.63,8.73,11.57,12.86,4.78,5,7,10.07,6.45,16.88C656.65,709.26,657,709.29,663,712.45Z" transform="translate(-1 -1)"/><path d="M140.93,495.82c5.54-.82,9.86,1.84,14.9,1.26,5.7-.65,11.36-1.19,16.37-3.8,7.42-3.88,15.18-2.85,22.36-1.06,18.36,4.58,37.51,5.14,55.51,11,8.27,2.71,17,4,24.93,7.79a38,38,0,0,1,15.06,13.33c3.4,4.93,5.67,10.47,9.27,15.22.59.78,1.58,1.61.81,2.59-.89,1.15-1.81-.48-2.46-.37-2.14.35-3.05-3.86-5.55-1.39s-5.53,4.23-5.2,8.45c.25,3.27.76,7.84-3.24,8.41-3.74.53-4.88-4.1-5.79-7.07-1.95-6.34-5.13-12.19-6.72-18.71-2.2-9-9.55-12.58-16.31-8.75a5.86,5.86,0,0,0-3.12,3.62c-2.77,9.4-9.46,12.39-19.07,12.82-2.16.1-4.33.09-6.49,0-2.83-.11-5.18.55-6.93,3-1.57,2.22-4.15,3.21-6.51,4.36-4,2-6-2.33-8.89-3.5-5.84-2.37-11.44-5-17.77-6-3.68-.58-6.8,1.12-10.18,1.63-3.13.48-5.38-.25-6.55-3a23.29,23.29,0,0,0-6.66-8.93,18.85,18.85,0,0,1-6.2-9.87c-1.18-4.59-5.18-7.94-9.51-10.31-2.19-1.2-4.42-2.35-6.68-3.39-2.55-1.18-5-2.58-4.41-5.82C136.62,493.72,139.77,496.36,140.93,495.82Zm40.92,4.57c-5.08.13-7.15,2.86-6.28,8.08a4.58,4.58,0,0,1-.31,2.87c-1.41,2.42-.27,3.94,1.34,5.65,6.41,6.85,12.76,13.74,20.15,19.57.61.48.91,1.64,1.86,1.1,1.31-.75.41-1.62-.14-2.43-.93-1.36-.29-2,1.06-2.55,4.74-1.88,5.15-2.87,1.34-6.71-4-4-5.71-8.73-6.21-14.16C194.11,505.7,187.92,500.23,181.85,500.39Z" transform="translate(-1 -1)"/><path d="M120,733c-.31,8.19-4.72,14.1-6.06,21-.44,2.26-1.37,4.42-1.91,6.66-.69,2.84-1.9,4.7-5.26,4.91-2.89.18-4.79-.09-5.44-3.4a3.88,3.88,0,0,0-3.15-3c-5.25-.57-5-4.26-5-8a34.45,34.45,0,0,0-3.38-16.35c-2.3-4.52-1.3-9.78-3.47-14.42-.89-1.89.3-4.38,2.93-5.63,3.9-1.86,7.77-3.84,11.55-5.88,4.58-2.47,7.16-1.17,9.6,2.75C114.78,718.61,118.55,725.81,120,733Z" transform="translate(-1 -1)"/><path d="M52.35,748.54a12.08,12.08,0,0,0-.94-1.71c-7.09-9.16-15-17.69-20.73-27.86-1.25-2.22-1.27-3.79.42-5.78,6.77-7.93,16.14-12.05,24.88-17.06,2.9-1.66,6.81,1.82,6.35,5.26a3.32,3.32,0,0,1-.47,1.41c-8.52,12.71-7.65,27.09-7.43,41.38C54.45,745.56,55.22,747.47,52.35,748.54Z" transform="translate(-1 -1)"/><path d="M180.27,722.14c5.19-4.06,10.6-7.56,16.83-9.71,2.61-.9,2.42.93,2.3,2.33-.38,4.62-.81,9.24-1.42,13.83-1.41,10.56-2.93,21.1-4.38,31.66a4,4,0,0,0,.17,1.45c.54,2,1.3,4.62-1.22,5-2.67.42-6.23,1.45-8.24-1.49-4.4-6.44-7.65-13.31-7.63-21.48,0-3.21-.91-6.45-.81-9.77.07-2.76,1.06-3.89,3.92-3.52a27.37,27.37,0,0,0,6.46,0c1.72-.19,4.12-.64,4.1-2.69,0-2.2-1.66-3.91-4.19-4.22C184.26,723.37,182.12,724.21,180.27,722.14Z" transform="translate(-1 -1)"/><path d="M173.47,699.39c-2.65-8.33,1.51-14.64,10.22-18.72,3-1.39,5.21-4.06,8.48-5,2.66-.79,4.53-.55,5,2.73,1.14,7.68,2.35,15.33,2.23,23.13,0,2-1.2,2.93-2.78,3.68-4.18,2-8.4,3.9-12.49,6-2.2,1.15-3.15,3.31-6.55,3.86-4.29.71-3.83-1.56-4-3.3C173.21,708.17,173.47,704.5,173.47,699.39Z" transform="translate(-1 -1)"/><path d="M164.4,759.1c-1.16-.06-2.32-.1-3.48-.17-7.64-.51-7.79-.5-8.31-7.87a115.56,115.56,0,0,0-7.15-32.17,8.73,8.73,0,0,1-.85-2.81c0-1.57-.87-3.68.78-4.6s2.52,1.2,3.61,2c8.33,6.08,15.34,13.36,19.95,22.73,3.13,6.36,2.27,13.48,3.78,20.15.42,1.87-1.23,2.53-2.86,2.6-1.82.08-3.64,0-5.47,0Z" transform="translate(-1 -1)"/><path d="M41.35,742.52c-4.84.8-5.9,4.91-7.65,8.35-3.87,7.6-8.92,9.63-15.09,6.19a5,5,0,0,1-2.87-4.75c-.38-10.25,2.83-19.5,7.68-28.3,1.13-2.06,2.09-2.67,3.86-.16C31.65,730.05,36.39,736,41.35,742.52Z" transform="translate(-1 -1)"/><path d="M63.52,749.18c1.43-10.24,6.69-18.54,13.76-25.85,1.92-2,3.61-.57,4.17,1.29,1.61,5.35,3.14,10.86,2.85,16.46-.31,6.18-11.74,14.68-17.83,13.8C63,754.37,63,752,63.52,749.18Z" transform="translate(-1 -1)"/><path d="M314.87,774c-2.25.41-3.72-.61-5.32-.86-2.8-.44-7.24-.85-7.32-2.87-.12-3,4-4.21,6.77-5.49,6.82-3.15,13.51-6.62,20.95-8.2,1.08-.22,2.23-1.27,3.11.07.77,1.17-.23,2.15-.81,3.13-1.35,2.27-2.8,4.49-3.94,6.86C325.45,772.61,320.64,774.71,314.87,774Z" transform="translate(-1 -1)"/><path d="M59,735.22a46.44,46.44,0,0,1,5.05-27.88c1.61-3.09,3-2.51,4.69-.51,2.17,2.51,4.3,5,6.31,7.67a2.59,2.59,0,0,1-.42,4A89.24,89.24,0,0,0,59,735.22Z" transform="translate(-1 -1)"/><path d="M124.1,726.31c-4.37-6.44-6.59-13.08-10.78-18.52-1.22-1.59-.09-2.51,1.38-2.81,5.17-1.07,10.33-2.24,15.67-2,3.11.16,2.95,2.11,2.06,4.18C129.85,713.23,127.19,719.24,124.1,726.31Z" transform="translate(-1 -1)"/><path d="M86.39,712.75c0-8.3-1.57-16.24-1.81-24.28,0-1.44.09-3.37,2.37-1.54,4.92,3.92,9.57,8.1,13.19,13.34,1.42,2.06,1.16,3.15-1.17,4.1-2.92,1.18-5.68,2.73-8.6,3.91C88.32,709.1,86.83,710.21,86.39,712.75Z" transform="translate(-1 -1)"/><path d="M274.68,778.14c-10.08-.08-20.08-2-30.19-1.35a6.55,6.55,0,0,1-2.9-.52c-1-.43-2.43-.89-2.12-2.34s1.62-.83,2.52-.83c14.26,0,28.46,1.82,42.73,1.34,1.26,0,2.36.34,2.37,1.89s-1.28,1.77-2.44,1.79C281.33,778.18,278,778.14,274.68,778.14Z" transform="translate(-1 -1)"/><path d="M47.32,763.24c-8.46.49-10.11-1.85-6.84-9.8,1-2.49.85-6.72,3.82-6.86,2.42-.12,3.5,4.11,5.58,5.79,3.25,2.63,0,7.14,3.4,9.55.6.43-.59,1.29-1.48,1.31C50.3,763.26,48.81,763.24,47.32,763.24Z" transform="translate(-1 -1)"/><path d="M77.91,687.17c2.2,7.44,2.9,15,4,22.51.15,1,.58,2.58-1,2.88-1.11.2-1.63-.93-2.13-1.81a14.48,14.48,0,0,0-2-3.41C69.52,700.4,71.33,693.83,77.91,687.17Z" transform="translate(-1 -1)"/><path d="M237.66,843.24c-2.21,5.32.24,10.27.46,15.28.07,1.64.5,3.61-1.71,4.08-2,.42-2.21-1.46-2.87-2.77-.81-1.6-1.46-3.75-2.82-4.51-5-2.78-2.35-5.13.43-6.72C233.63,847.19,235.26,845.11,237.66,843.24Z" transform="translate(-1 -1)"/><path d="M679.67,640.52c5.51,1.51,9.56,2.78,13.16,5.2.8.53,2.11.82,2,2-.15,1.32-1.53,1.61-2.61,2-4,1.48-6.13-1.63-8.58-3.61C682.26,645,681.51,643.19,679.67,640.52Z" transform="translate(-1 -1)"/><path d="M261.55,833.06c-3.11.31-4-1.81-4.36-4.22-.39-2.9,1.94-1.82,3.36-2a8.78,8.78,0,0,0,1.45-.24c2.14-.7,5.2-3,6,.55s-2.71,5.11-5.92,5.91A3.93,3.93,0,0,1,261.55,833.06Z" transform="translate(-1 -1)"/><path d="M83.94,753.32c.12,1.66.36,2.26.16,2.57-1.65,2.58,2.68,6.23-1,8-2.56,1.22-5.26-1.89-8.42-.72C76.67,758.79,80.9,757.29,83.94,753.32Z" transform="translate(-1 -1)"/><path d="M271.68,851.08a2.84,2.84,0,0,1-2-3.45c.43-2.86,3-4.14,4.87-5.86.44-.4,1.22.3,1.2,1.06a11.93,11.93,0,0,1-3.1,8C272.43,851,272,851,271.68,851.08Z" transform="translate(-1 -1)"/><path d="M182.9,661.15c-2.1,1.42-3.62,2.54-5.23,3.5-1.16.7-2.58,1.16-3.52-.22a4.14,4.14,0,0,1,0-4.23c.64-1.24,1.77-.83,3-.37A43.72,43.72,0,0,0,182.9,661.15Z" transform="translate(-1 -1)"/><path d="M246.59,831.24a3,3,0,0,1,2.58,2.64,4.29,4.29,0,0,1-3.07,4.94c-1.72.49-1.58-1.46-1.89-2.71C243.63,833.73,245.19,832.55,246.59,831.24Z" transform="translate(-1 -1)"/><path d="M308.56,730a14.4,14.4,0,0,1-.76-11.89C310.39,721.87,308.79,726,308.56,730Z" transform="translate(-1 -1)"/><path d="M526.82,741c-.1,2.65-2.5,2.09-4,2.73-1,.43-2.18,0-1.85-1.3A4,4,0,0,1,524.7,739C526.12,738.9,526.85,739.52,526.82,741Z" transform="translate(-1 -1)"/><path d="M748.19,516c-1.78-.13-1.34-1.56-1.39-2.59-.09-1.65.46-3.07,2.37-3.15,1.75-.07,1.5,1.38,1.59,2.5C750.9,514.63,749.73,515.44,748.19,516Z" transform="translate(-1 -1)"/><path d="M240.53,866.73c1.32-.08,1.44.69,1.43,1.57,0,2.33-1.59,3.11-3.5,3.4a1.51,1.51,0,0,1-1.78-1.82C237,867.64,239.5,868,240.53,866.73Z" transform="translate(-1 -1)"/><path d="M123.27,428.06a2,2,0,0,1,2.31,2.11c.14,1.79-.76,2.7-2.48,2.9-1,.13-2.17,0-2.07-1.28C121.16,430.2,121.65,428.64,123.27,428.06Z" transform="translate(-1 -1)"/><path d="M524.3,668c1.67.22,3.45.47,3.66,2.08.17,1.26-1.38,1.61-2.58,1.57-1.42-.05-2.65-.52-2.85-2.14S523.58,668.23,524.3,668Z" transform="translate(-1 -1)"/><path d="M872.49,605.58c-1.56,0-3.62.34-3-2.6.22-1,.06-3.05,1.43-2.37,1.7.83,4.11,1.76,4.36,4C875.49,606.1,873.88,606,872.49,605.58Z" transform="translate(-1 -1)"/><path d="M155.63,805.28c5.57,3.06,7.15,7.53,9.66,11.1,4.5,6.39,8.4,13.22,12.57,19.84,4.73,7.51,4.06,11.23-3.83,19.12-1.71-8.92-5.9-16.78-8.06-25.23S155.53,815.75,155.63,805.28Z" transform="translate(-1 -1)"/><path d="M188.31,825.84c.21-1.8-1.26-5.48,1.36-7s4.56,2.25,7,3.31c3.75,1.61,5.28,3.93.89,6.94-1.61,1.11-2.8,2.83-4.38,4-1.1.81-1.63,3.11-3.44,2.17-1.35-.69-1.27-2.58-1.41-4S188.31,828.26,188.31,825.84Z" transform="translate(-1 -1)"/><path d="M13.44,889.37c-5.08-.16-6-1.27-3.72-6,4-8.32,10.35-14.7,19.58-16.15,5.42-.86,11.15,1.23,15.51,5.37,1.2,1.15,1.49,2.12-.31,3-8.72,4.4-17.38,8.9-26.15,13.18C17,889.5,15.09,889.21,13.44,889.37Z" transform="translate(-1 -1)"/><path d="M60.55,865.46c-2.91-9.17-2.38-18.59-1.91-28A112.43,112.43,0,0,1,60.55,865.46Z" transform="translate(-1 -1)"/></g></g></svg>