<svg xmlns="http://www.w3.org/2000/svg" viewBox="0 0 894 868.1"><title>nolimit</title><g id="Layer_2" data-name="Layer 2"><g id="Layer_1-2" data-name="Layer 1"><path d="M1,502V379a4,4,0,0,0,1.94-3.81c-.25-6.43,3-11.8,5.05-17.58C10.3,351,14.54,345,16.34,338.42c2.29-8.34,8-14.44,12.07-21.45,2.2-3.77,1.92-10.06,8.05-11.15.9-6.68,6.45-10.66,10.1-15.34,7.92-10.15,17.68-18.85,26.31-28.48,1.87-2.1,4.61-2.33,6.17-4.31a72.72,72.72,0,0,1,15.49-14.4c4.11-2.89,7.35-6.95,11.51-9.42,8.93-5.32,16.64-12.35,25.72-17.5,2.43-1.38,5.24-3.27,7.73-5a290,290,0,0,1,26.42-15.58c4-2.16,7.47-5.5,11.72-6.89,4.49-1.48,9.06-2.88,12.6-5.79,4.06-3.34,9.54-3,13.29-6,3.13-2.43,6.84-2,10-4,5-3.12,10.79-4.89,16.36-6.95,4.09-1.52,8.23-2.84,12.27-4.56,3.78-1.6,7.9-3.39,11.76-3.88,4.69-.6,8.76-2.8,13.41-3.52,6.68-1,13-4.49,20.05-4.64.48,0,1.15,0,1.42-.25,5.18-5.34,12.65-3.81,18.72-4.95,7-1.31,13.95-4.49,21.38-3.56a2.45,2.45,0,0,0,1.42-.44c4.32-2.75,9.23-2.39,14-2.7,2.15-.14,4.61.32,6.41-.56,8.45-4.1,17.77-2,26.65-4.26,11.92-3,25,1.85,37.14-3,23.75,1.46,47.55-2,71.39,2,13.81,2.32,28.15.38,42.3,2.66,9.67,1.55,19.49,3.11,29.33,4.12,5.38.55,10.83,2.54,16.51,2.52a4.39,4.39,0,0,1,2.41.52c5.37,3.73,12.14,3.09,17.86,3.94,6.57,1,12.76,3.48,19,4.86,7.52,1.65,15.4,3.44,22.89,6.38,6.11,2.4,12.67,4.14,19,6.3,2.53.86,4.39,3.26,7.41,3,4.5-.34,8.32,2.31,12.06,4.09,6.83,3.24,13.73,6.53,20.69,9.26,7.57,3,15.35,6.17,22.07,10.07,9,5.2,18.29,9.95,27.12,15.51s16.93,12,25.94,17,16.88,11.72,25.25,17.63,15.29,13.5,23.07,20.14c11.47,9.79,20.71,21.87,30.5,33.33,4.28,5,7.62,10.72,11.91,15.82,4.64,5.51,6.91,12.94,10.9,19.08s6.47,13.1,9.86,19.53c1.58,3,1.15,6.42,3.15,8.85,3.11,3.78,3.91,8.68,4.68,12.84,1,5.29,4.09,10.17,3.43,15.81-.05.5,1.08,1.14,1.66,1.72V491c-1,.39-1.86.93-1.9,2.08-.32,7.94-3.41,15.17-5.49,22.68-.73,2.64-2.78,4.32-3.4,7-1.27,5.58-4.07,10.64-6.43,15.84-2,4.37-6,8.14-6.91,12.23-2,9.08-9.17,14.81-12.71,22.89-2.37,5.41-8.6,9.77-12.68,15a182,182,0,0,1-23.16,24.71c-5.62,4.93-9.94,11.13-16.26,15.33a190.89,190.89,0,0,0-18.58,14.41c-5.67,4.87-12.56,7.75-17.86,13-1.07,1-1.92,2.36-3.5,3.23-7.91,4.33-15.75,8.83-23.25,13.82-5.66,3.76-11.39,7.93-17.36,10.53-7,3-13.33,7.35-20.63,9.76-2.58.85-6.42,1.1-7.57,2.65-3.74,5-9.76,5.92-14.48,7.45-8.44,2.72-16.19,7.14-24.84,9.38-3,.78-6.93,1.17-9.41,3.11-3.6,2.81-8,3.1-11.81,4.18-5.16,1.47-9.89,5.6-15.86,4-.34-.1-.94.35-1.26.69-2.84,3-7.51,3.65-10.48,3.86-8.06.55-15.59,3.78-23.82,3.55-4.45-.13-8.82,3.48-13.82,2.69a.58.58,0,0,0-.44.2c-5.29,5-12.54,2.35-18.81,4.66-7.32,2.7-16.07,1.43-24.23,2.47-10.87,1.37-21.9,3.15-32.92,3.41-24.8.58-49.61,1.55-74.43.55-10.32-.42-21.11,1.2-30.84-1.34-10.58-2.75-21.41-.26-31.86-4.19-7-2.63-15.06,0-23-2.52s-16.25-3.85-24.4-5.86c-7-1.72-14.53-1.52-21.84-2.79-4.72-.82-9-2.57-13.32-4.05-5.36-1.82-11-2.69-16.33-4.53-3.76-1.29-7.53-3.09-11.63-3.89-4.86-.94-8.85-4.92-14.22-4.87a5.22,5.22,0,0,1-2.79-.9c-4.92-3.36-10.76-5.29-16.13-6.7-8-2.11-14.54-6.83-22-9.85a174,174,0,0,1-17.54-7.95c-5.37-2.91-10.9-5.52-16.2-8.54-4.28-2.44-8.17-5.59-12.51-7.9a179.49,179.49,0,0,1-16.06-9.63c-9.28-6.26-18.86-12.35-27.28-19.64C95,634.36,86.32,628.61,79,621.06c-10.67-11-22-21.48-32-33.16-2.45-2.88-6.53-5.5-7.19-8.49-1.47-6.65-7.26-9.91-10-15.54s-6.86-11-9.85-16.59a112.89,112.89,0,0,1-8.61-19.51C8.77,519.52,4,512,2.91,503.17,2.79,502.17,1.88,502,1,502Zm34.62-63.28c-1.82,11.35,1.73,22,3.15,32.79s6.25,20.73,9.75,31c2.66,7.77,7.08,14.49,10,22,3.06,7.75,9.85,13.76,14.33,21.08,4.64,7.58,10.93,14.07,17.33,20.25,9.44,9.09,17.8,19.37,29,26.56,5.09,3.27,8.16,9.07,14,11.33,3.19,1.23,4.31,4.85,7.11,6.23,10.85,5.33,20.09,13.25,30.65,18.93,4.5,2.41,8.62,5.53,13.64,7.29,4.34,1.52,9.61,3.09,12.56,6,4.64,4.5,10.57,4.58,15.43,7.49,2.95,1.77,6.43,2.07,9.23,3.83,3.29,2.07,7.1,2.95,10.32,4.95s7.57,1.51,10.47,3.27c5.89,3.58,12.48,5.66,18.7,7.43,7.87,2.23,15.57,5.95,24.06,5.88a2.46,2.46,0,0,1,1.42.4c5.22,3.92,11.65,4.68,17.62,5.27a72.29,72.29,0,0,1,18.25,4c6.27,2.41,12.83.74,19,4,4.54,2.39,11,1.27,16.72,2.8,8.16,2.18,17.3-1.43,25.41,3.11,18-.86,35.83.84,53.7,2.36,15.82,1.34,31.44-1.42,47.14-2.41,9.5-.6,18.87.79,28.62-2s20.25-.91,30.55-2.79c7.8-1.43,15.49-4.79,23.73-4,.59.06,1.22-.52,1.86-.67,5.93-1.38,11.83-2.9,17.81-4,3.06-.56,6.09-1.53,9-2,5-.88,9.34-3.81,14.3-4.13s9.15-2.73,13.81-3.76c3-.66,6.58-.51,9.27-2.15,4.31-2.64,9.55-2.85,13.67-5.33,3.69-2.23,7.84-2.31,11.54-4.16,7-3.51,14.2-6.6,21.33-9.82,5.37-2.43,12.08-2.1,15.89-7.78a3,3,0,0,1,1.72-.8c9.37-2,17.19-7.61,25-12.42,6.71-4.14,14-7.45,20.22-12.62,5.89-4.93,12.61-8.87,19-13.14,4-2.62,6.7-6.94,10.62-9.15,10-5.64,16.75-14.78,25.29-21.93,4.79-4,8.59-10,13.48-14.36,6.19-5.47,9.29-13.09,14.92-19,3.75-3.93,7.62-8.9,9.26-14.35s4.92-9.71,7.15-14.67a106.37,106.37,0,0,0,6.28-17.19,130.46,130.46,0,0,1,3.81-12.86c3.57-9.51,4.54-19.33,5-29,.7-13.66.9-27.38-1.94-41.08-1.32-6.31-3.32-12.4-5.2-18.42-1-3.28,0-7-1.78-9.41-2.31-3-2.79-6.58-4.6-9.69-3.14-5.4-5-11.53-8.28-16.84-7.43-12.17-15.22-24.11-25.15-34.52-5.36-5.63-9.24-13.08-15.4-17.44-11-7.78-19-18.86-30.57-25.94-7.14-4.38-13.58-9.87-20.53-14.57s-14.17-9.37-21.52-13.59c-5.12-2.94-10.13-6.3-15.43-8.65-6.74-3-13.1-6.74-20-9.47-6-2.38-11.31-6.11-17.67-7.95-2.77-.8-6.1-1.74-8.54-3.58-3.3-2.49-7.38-3.16-10.93-4.15-4.6-1.29-8.8-3.51-13.4-4.68-4-1-8-2.39-11.9-3.47a125.12,125.12,0,0,1-13-4.33c-6.07-2.5-12.44-2.66-18.5-4.4-5.84-1.69-12.15-2.93-18.27-4.07-3.86-.71-8.41-.6-11.79-2.45-7.15-3.94-15.76-.14-22.51-5-13.37,1.41-26.35-2.37-39.6-2.88-16.58-.64-33-3.65-49.73-2.64-15.36.94-30.68-.09-46.17,1.73-17.05,2-34.28,4.09-51.59,4-1.48,0-3.31-.26-4.4.47-6.8,4.53-14.92,1.77-22.37,4.28-5.55,1.87-12.49,2.56-18.36,4.09-9.49,2.46-19.44,3.23-28.66,7.4-8,3.6-16.73,5.57-25.14,8.18-3.27,1-6.26,3.57-9.6,3.28-4.28-.37-7.55,2.24-10.46,3.88-3.81,2.15-8.07,2.39-11.83,4.52a70.65,70.65,0,0,1-11,4.77c-5.23,1.87-9.86,4.85-14.82,7.17-4.23,2-8.63,3.88-12.57,6.07-5.62,3.12-11.2,6.72-16.75,10.1-9,5.49-18.26,10.62-26.78,16.85-10.89,8-22.16,15.49-31.6,25.31-3.52,3.66-8,6.59-11.52,9.9-2.88,2.67-6.44,5.67-8.88,9.47-3.78,5.92-10,10.15-14.09,15.75-4.32,6-8.37,12.28-12.46,18.48a155,155,0,0,0-13.09,24.71c-.89,2.1-2.76,3.59-3.09,6.28a39.7,39.7,0,0,1-4,13.49,35.67,35.67,0,0,0-3.95,14.44C38,416.92,33.51,427.68,35.62,438.72Z" transform="translate(-1 -5.25)"/><path d="M895,55c-2.5,0-5,0-7.5-.06-4.35-.06-6.8-2.72-6.6-7.2.1-2,.38-3.93.48-5.9.32-6.88.3-7-6.77-6.85-4.14.06-9.4-1.74-12.11.76s-.65,7.93-.81,12.06c-.48,12.63.77,25.29-.67,37.92-.29,2.54.82,4.81,4.39,4.35a62.59,62.59,0,0,1,8-.13c5.06,0,8.72,3.11,8.2,8.09s0,9.83.14,14.74c.08,2.6-.91,3.83-3.46,4.58A48.39,48.39,0,0,1,866,119.12c-13.48.41-27-.64-40.46.48a8.29,8.29,0,0,1-4.25-1.16c-3-1.38-5.81-1.66-8.94.25-5,3-10.43-.31-10.48-6.15-.05-6,.23-12-.07-18-.19-3.93,1.43-4.91,5-4.67s7-.1,10.49.14c3,.2,4.24-.8,4.2-3.87-.06-4.83.31-9.66.21-14.49-.22-10.81-.45-21.63.16-32.44.17-3.16-.71-4.56-4.13-4.35a121,121,0,0,1-12.49,0c-2.9-.12-3.94,1.18-3.77,3.85.2,3,.28,5.93.65,8.87.58,4.5-1.8,7.34-6.36,7.34-6.17,0-12.34-.13-18.5.06-3,.09-4.36-.89-4-4,.44-3.8-2.7-7.64.33-11.53.69-.88-1.31-1.6-2.09-2.39-3.62-3.69-8.31-2.46-12.19-1.67-3.63.73-4,4.65-4,8.42q.35,20.24,0,40.49c-.08,4.3,1.13,5.7,5.6,5.71,13.68,0,13.65-3.07,13.55,13.12a87.2,87.2,0,0,0,.41,10c.33,3-.87,3.78-3.77,4.36-16.68,3.32-33.53,1.78-50.3,1.88-28.32.17-56.64-.24-85-.4-1.5,0-3,0-4.49,0-8.7-.24-9.54-1.1-9.52-9.65,0-5.17.13-10.34,0-15.5-.09-2.94.78-4,4-4,13.16,0,13.16-.1,13.23-13.27q.09-18.16.13-36.34a10.94,10.94,0,0,0-.72-2.56,12.09,12.09,0,0,0-4.33,10.06c.1,3.45-2.25,6.51-3.11,9.94-1.27,5-4.08,9.55-5.88,14.49C623,77.9,621.21,84,617.93,89.5c-1.75,3-2.51,7.19-3.49,10.88-1.43,5.37-4.21,10.17-5.7,15.51-.89,3.17-9.64,3.06-11.91-.08a24.2,24.2,0,0,1-3.13-6.46c-1.41-4.11-1.92-8.64-4.82-12.35-1.91-2.44-.77-6.1-3-9.06a33.79,33.79,0,0,1-5.76-14.34c-1.1-7.13-5.88-12.69-6.19-20-.18-4.35-3.6-8.57-7.17-13.83,0,3.55,0,5.75,0,7.94,0,12,0,24,0,36,0,4.28,2.17,6.17,6.18,6.3,11.17.35,11.18.33,11.15,11.66,0,4.16.15,8.34-.14,12.49-.22,3-1.28,4.55-5.36,4.6-11.64.17-23.24-.89-34.9-.35-14.46.67-28.9-1.52-43.42-1.08q-53,1.62-105.94.28c-18.82-.5-37.6,2.18-56.41-.07-4.38-.52-8.93-.64-13.36.91-2.85,1-6.43-1.84-6.47-4.88-.09-6.83.07-13.66,0-20.49,0-2.53,1.14-3.14,3.35-3.07,3.17.1,6.35-.15,9.5.08,3.59.28,4.94-1.41,4.63-4.68-1.2-13-.24-26-.59-39a12.23,12.23,0,0,1,.6-5.39c1.54-3.57-.61-4.92-3.58-5.71-2.68-.71-5.27.05-7.91.32-3.65.38-6.35-.21-6.06-5.18.41-6.81.21-13.66,0-20.48-.12-4,1.93-4.81,5.27-4.7q32.88,1.05,65.77.26c2.51,0,5.78,3.46,5.11,6.32-1.52,6.38-1.19,12.82-1.38,19.26-.08,2.92,0,6.26-4.68,4a2.93,2.93,0,0,0-1,0c-11.64-.57-11.64-.57-11.66,11.4,0,12.83.09,25.66-.14,38.49-.07,3.88,1,5.22,5,5.12,10.82-.28,21.66-.06,32.49-.08,4.24,0,6.47-2.35,6.49-6.59,0-5.1-2.27-11.76,1.17-14.84s9.86-.88,15-1c3-.09,6,0,9,.07,4.75.08,7.17,2.52,7.2,7.37,0,3.83,0,7.67-.17,11.49-.1,2.5.75,3.45,3.43,3.57,12.07.55,12.07.64,12.05-11.19,0-13-.15-26,0-39,0-3.53-.53-5.09-4.56-5s-8.69,2-11.64-.58c-3.13-2.77-.52-7.61-.91-11.53-.36-3.63-.3-7.32-.31-11,0-4.16,1.21-6.61,6.32-6.48,14.81.38,29.63.31,44.45.3q41.74,0,83.49-.19c5.61,0,11.22-.18,16.83-.17,2.07,0,4.22.72,5,2.64,2.23,5.42,4.26,10.93,6,16.52.5,1.56.71,2.94,2.48,3.15,2.2.27,2.54-1.67,2.41-3-.62-6.66,5-11.3,5.49-17.6.12-1.74,1.64-1.6,3.08-1.59,40,.19,80,.34,119.93.09,41.32-.25,82.64.25,124,.41L895,6ZM507.83,61.34h-.1c0,7.48,0,15,0,22.44,0,3.61,1.3,6.19,5.21,6.24,9.14.12,18.28,0,27.42,0,3.28,0,5.53-1.9,5.55-5q.18-22.17-.19-44.36c-.05-3.15-2-5.59-5.44-5.6-9.62,0-19.25.29-28.87.19-2.94,0-3.67.86-3.61,3.64C507.94,46.38,507.83,53.86,507.83,61.34Zm206.46,1.51q0-10.47,0-21c0-5.35-2.26-7.28-7.58-6.8-1.62.14-3.07.92-4.87.54-6.72-1.42-13.56-.3-20.35-.55-3.16-.12-3.83,4.31-3.53,4.58,2.1,1.87,1.17,4.11,1.19,6.09.09,13.3.1,26.6,0,39.89,0,3.06.53,4.51,4,4.4,8.3-.24,16.62-.07,24.93-.12,4,0,6.33-1.7,6.24-6.14C714.17,76.81,714.28,69.83,714.29,62.85Z" transform="translate(-1 -5.25)"/><path d="M895,864c-2.06,0-3.08,2-3.55,3-2.72,5.68-7.31,6.18-12.75,6-7.49-.3-15-.23-22.49,0-3.55.12-6.37-.87-7.91-3.92-1.66-3.31-3-6.87-4.43-10.24-3.12-7.44-.82-15.64-4.73-22.82-2.62-4.79-6.33-6.39-11.21-5.94a47.39,47.39,0,0,1-10.45-.12c-3.79-.48-6.26.42-5.7,5a17.77,17.77,0,0,1-.07,4.49c-.41,3.4,1.73,4.75,4.39,4.57,3.11-.21,6.18,1,9.36-.19,2.29-.82,6.45,3.21,6.08,6-.74,5.51-.17,11,0,16.45.11,4.47-2.1,6.65-6.7,6.65q-93.74,0-187.45.08c-3.11,0-4.54-.82-4.43-4.24.2-6.66,0-13.33,0-20,0-4.26,2.06-6,6.3-5.5.66.08,1.3.34,1.95.45,6.56,1,8.2-.4,8.21-6.77q0-21.24.24-42.49c0-1.88.23-3.56-2.28-3.25-7.77,1-15.06-2.32-22.72-2.45-6.12-.12-8.78,2.3-10.47,8.25-1.35,4.79-3.91,9.23-6,13.8-2.55,5.62-5,11.33-7.81,16.8-2.5,4.81-3.49,10.27-7.31,14.59a17.22,17.22,0,0,0-3.51,8.06c-1.18,7.93-6.34,14-8.82,21.18-.45,1.31-1.65,1.5-2.88,1.49-5.5,0-11,0-16.49-.06-2.41,0-4.67-1.32-4.32-3.82.56-4.09-2.34-7-3.44-10.28a45.37,45.37,0,0,0-4.92-10.88c-3.81-5.74-5.14-12.75-8.5-18.83-4-7.2-6.76-15-10.31-22.4-2-4.26-3.21-9-6-12.95-3.83-5.56-6.43-6.79-12.83-4.67-3.81,1.25-4.45-.23-4.42-3.33.05-6.67.18-13.33.1-20,0-2.67.67-3.87,3.64-3.86q31,.15,62,0c4.11,0,5.4,2.56,5.54,5.86.23,5.32-.09,10.67.13,16,.14,3.11-.92,4.32-4.06,4.79-5.34.81-5.72,3.21-2.94,7.62,1.84,2.92,4.76,5.72,4.3,9.81-.29,2.49.9,3.81,3.38,3.76,2.07,0,3.34-.36,3.85-3.22.68-3.71,2.63-7.29,4.51-10.66,2.1-3.79,1.44-5.89-2.64-6.8-3.59-.8-5.33-2.26-4.72-6.81a41.48,41.48,0,0,0-.23-14.81c-.77-3.37-.12-5.55,4.37-5.54q84.48.15,169,.06c1.41,0,3.64-1,3.72,2,0,.49,2.23,1.74,2.7,0,.83-3,3.1-2.1,4.84-2.1,32.33-.06,64.65,0,97-.11,3.52,0,5.78,2.47,8.86,3.37,8.43,2.46,11.35,10.47,13.65,17.34,1.72,5.16,2.65,11.87-1.1,17.6-1.35,2.07-1.05,4.83-3,7-1.15,1.31-2,2.79-3.61,3.73-3.78,2.12-4.39,6.53-1.09,9.42,2.89,2.51,3.61,5.59,4.85,9a35.71,35.71,0,0,1,2.11,12.26c0,.82,0,1.93,1.08,1.89,1.24,0,2.46.11,3.7-.92,3.55-2.93,2.88-6.82,2.6-10.48-.35-4.51,1.66-6.21,5.86-6ZM758.76,785.07c-3.37,2.64-3.52,6.15-3.35,9.9.19,4.16,0,8.33-.06,12.5,0,1.95-.5,3.92-3,3.6-6.64-.85-13.31-.19-20-.51-2.81-.13-4.74-1.48-4.24-4.29.65-3.67-.39-7.36.42-10.91s-.54-4.47-3.75-4.35c-10.5.42-21,.44-31.48-.07-1.78-.09-4.93-.78-5,1.71-.15,3.08-1.94,6.59,1.66,9.5,4.68,3.78,9.79,1.61,14.19.86,5.21-.89,8.76.34,8.84,5.91.07,5-.1,10,.07,15,.16,4.77-2.28,6.61-6.67,6.61-3.16,0-6.33-.08-9.5,0-10.57.17-8.55-1.62-9,8.94-.12,3.23,1.12,3.86,4.05,3.81,8.17-.15,16.34.24,24.49-.07,4.19-.16,10,2.39,12.15-.73,2-2.87.44-8.34.31-12.65-.14-5,1.12-6.48,6.33-6.61,4.49-.11,9,.09,13.48,0,11.45-.16,9.32-.12,9.29,9.25,0,10.47-.11,10.47,10.15,10.66a7.74,7.74,0,0,1,2,.08c3.62,1.06,4.1-.7,4.07-3.85-.14-14.33-.06-28.66,0-43,0-8.21,0-8.21-8.07-8C763,788.47,759.74,789,758.76,785.07Zm69.09,19.24v0c3.15,0,6.37-.4,9.44.09,4.11.66,4.92-2.81,6.44-4.88,1.35-1.84.14-3.82-1.42-6-2.65-3.7-6.08-4.18-9.82-4.37-4.46-.23-9,.15-13.4-.15-4-.27-7,1.65-7.34,5.32-.64,6.75,1.24,9.87,6.16,10C821.22,804.38,824.54,804.31,827.85,804.31Zm-68.61-22.43c0-3.26,0-6.52,0-9.78,0-1.19.77-2.74-1-3.39a1.67,1.67,0,0,0-1.36.4c-1.72,1.53.77,1.61.93,2.54a2,2,0,0,1-1.06,2.43c-1,.51-1.65,1.79-.71,2.31C758.35,777.7,757.43,780.14,759.24,781.88Z" transform="translate(-1 -5.25)"/><path d="M1,6c8.58-.94,17.19-.52,25.79-.47,13.48.07,27,.49,40.45.18,4.18-.1,5.66,2.53,6.74,5a20.32,20.32,0,0,0,2.65,4.43c6,7.64,9.45,16.8,14.84,24.82,2.61,3.87,6.12,7.48,7.46,11.77s6,6.56,6.43,11.15c.21,2.23,2.76,2.53,3.26,4.59.22.91,1.77.49,2.7.15s1-1.07.88-2a199,199,0,0,1-.74-24.9c.05-3.4-1.19-6.26-5.6-5.74a35.56,35.56,0,0,1-4,0C93,35.05,93,35.05,93,26.49c0-5.49.15-11,0-16.48C92.92,6.42,94.8,5.22,98,5.38c15.79.82,31.58.61,47.37.07,3.39-.12,4.9,2.11,5,5,.21,7.33.27,14.67,0,22-.16,4.13-4,3.72-6.41,3.33-9.95-1.62-10.17-2.58-10,9.22.22,22.32.18,44.65.18,67,0,4.74-3.84,7.35-8.76,7.25q-18.41-.37-36.82,0A9.44,9.44,0,0,1,79.69,114c-3.15-6.15-7.22-11.62-10.82-17.43-6-9.75-11.17-20.09-17.53-29.61-3-4.46-5.26-9.3-8.32-13.7-1.43-2.06-2-2.11-2.71.24-.36,1.25-1.05,2.62-.82,3.79,1.82,9.44.61,18.91.61,28.37,0,3,.91,4.66,4.34,4.41,3.65-.26,7.33-.08,11-.13,1.64,0,3,.41,3.41,2.2a75,75,0,0,1,1.41,18.25c-.15,4.86-4.71,9.84-9.44,9.22-8.81-1.16-17.59.58-26.4-.27-3.28-.32-6.34-1.87-9.8-1.29-2.09.35-4.15.07-6.16,1.35-3.21,2-4.65-2.5-7.45-2.38V90c4.32,0,8.63,0,13,0,3.3,0,5.38-2,5.41-4.89q.27-21.9-.13-43.8c-.06-3.65-1.74-6.48-6.3-6.25C9,35.22,5,35,1,35Z" transform="translate(-1 -5.25)"/><path d="M1,762q54.47-.06,108.94-.18c3.23,0,4.35,1,4.31,4.26-.15,13-.21,26,0,39,.08,4.63-2.65,5.79-6.15,6-5.82.26-11.66,0-17.49.13-2.86.06-3.83-1.25-3.77-3.94.08-4.16,0-8.33,0-12.49,0-4.94-1.72-6.61-6.5-6.59-9.82,0-19.65.15-29.47-.07-3.33-.08-4.18.9-4.21,4.19-.1,12-.23,12,11.82,12.08,3.43,0,7.13-1.16,10.25.62,3.36,1.93,4.24,9.17,1.7,12.81-.81,1.16-1.05,1.53-.22,2.81,3.44,5.27,1.09,9.66-5.3,9.88-4.82.17-9.66.14-14.49,0-2.75-.1-3.72.71-3.77,3.64-.16,10-.29,10,9.88,9.35,4.12-.24,7.06,2.28,7,6.35-.14,6-.5,12,0,18,.32,4.21-2.18,5.29-6,5.26-16.49-.13-33-.09-49.47-.1-2.33,0-4.66.08-7,.12V843c6,.25,7.18-.88,7.19-7,0-13.4,0-26.79.07-40.19,0-5.07-2-7.11-7.26-6.86Z" transform="translate(-1 -5.25)"/><path d="M151.82,60.88c-1.72-11.1,3.52-22,9.65-32.15,4-6.64,11.22-10.82,18.14-14.83C197.81,3.35,217.52,4.55,237,7.24c8.27,1.14,16.09,6.08,23.31,11.09,8.25,5.72,12.74,13.73,17.1,22.51,2.68,5.39,2,11.18,4.63,16.38,1.28,2.51,2,6.47-1.17,9.26-1.29,1.13-.43,2.86-.58,4.3-.26,2.56.5,5.39-2.49,7.08-1.32.75-1,2.41-.93,3.69.27,7.39-4.85,12.22-8.42,17.74-2.76,4.26-7.3,6.72-10.83,10.14-1.88,1.82-4,1.6-5.86,2.89-3.87,2.7-8.72,6.2-12.84,5.81-6.21-.58-12.21,2-18.14.42-5.76-1.53-11.63-1.23-17.29-1-9.32.4-17.88-2.85-24.86-7.28s-14.56-9.08-18.68-18C153.93,79.38,151.81,75.67,151.82,60.88Zm64.41-26c-4.41,0-7.69.22-11.25,4.71a34,34,0,0,0-6.46,12.74c-2.87,12.44-.58,24.4,8.32,34.53C211,91.58,221,92.8,225.78,88.83c7.6-6.33,9.9-15.14,10.81-24.2.67-6.71-2.76-12.85-5.27-19C227.63,36.61,225.14,34.78,216.23,34.91Z" transform="translate(-1 -5.25)"/><path d="M379,856.79c-3.63,4.62-5.37,10-9.71,13.9a7.51,7.51,0,0,1-5.6,2.27c-8.66-.06-17.37-.56-26,.17-6,.52-8.58-3.72-10.59-7.14-2.63-4.47-3-10.22-4.33-15.36-1.37-5.31-.87-11.16-4.44-16.16-2.16-3-4.08-4.2-7.54-4.16-4.31.06-8.63-.4-12.94-.49-1.87,0-3.78.23-3.77,2.85a67.18,67.18,0,0,0,.09,9c.31,2.26,1.42,4.25,4.53,2.51,3.3-1.86,6.95-.74,10.21,0,2.37.56,2.91,3.36,2.54,5.88a49.56,49.56,0,0,0,.16,16.39c.89,4.75-.72,6.44-5.54,6.46-21,.05-42,0-63,.08-2.64,0-4-.55-3.91-3.57.16-7.33.12-14.66,0-22,0-3.26,1.32-4.59,4.5-4.36,1.49.1,3,0,4.49,0,6.27.11,6.37-.07,6.32-6.63-.09-13-.1-26-.11-39a10.9,10.9,0,0,1,.44-3.42c1.33-3.91-1-5.46-4.12-5.92-2.43-.35-5,.08-7.48.26-2.72.2-4-.87-3.92-3.71.09-6.49.05-13,0-19.49,0-2.49,1-3.42,3.61-3.41q49.74.16,99.47.14c5.3,0,8.83,4,12.71,6.43,6.85,4.25,9.07,12.43,11.42,19.77,1.58,4.94-2.27,9.41-3.59,14.12-1.45,5.18-5.48,8.39-9.23,11.86-1.3,1.2-1.5,2.79.32,4.18,6.47,4.93,7.57,12,7.81,19.49.06,1.87-1.24,5.75,2.28,5.37a5.59,5.59,0,0,0,5.13-6c-.09-1,0-2,0-3-.11-6.82,3.71-9.56,10.24-7.48,1.92.61,2,1.93,2,3.49,0,3.5.08,7-.11,10.49-.12,2.11.23,3.26,2.65,2.82,1-.18,2,0,3-.19,3.18-.43,7.37,2.6,9.29-.62,1.47-2.48.44-6.49.45-9.81,0-12.33-.24-24.67.16-37,.17-5.11-1.86-6-6.14-5.38-3.67.52-7.59,1.74-9.83-3a9.57,9.57,0,0,1-.93-4.28c0-5.16,0-10.32.07-15.49,0-3.81,1.89-5.83,5.79-5.83q56.49,0,113,.07c5.13,0,6.31,2.26,3.75,6.85a5.3,5.3,0,0,0-.54,3.34c.83,7.85-1.59,15.92,1.8,23.61.65,1.47.13,3.28-.85,4.77a3.24,3.24,0,0,0-.09,3.67c1.68,3.31,0,6.29-3.61,6.4-6,.17-12,.14-18,0-3.77-.1-5.72-2.29-5.7-6.11,0-3.33-.2-6.68.13-10,.42-4.3-3.19-5.29-5.31-4.68-7.76,2.24-15.54.3-23.25,1-2.48.24-5-.12-7.49.14-1.81.18-4.75-1.08-5.18,1.45-.49,2.93-1.51,6.41.72,9.06,1.37,1.63,3.06,3.11,5.86,2.88,4.8-.39,9.66,0,14.49-.2,2.88-.13,4.33.58,4.24,3.79-.17,6.16-.16,12.33-.05,18.49.05,3.08-1.32,4.11-4.23,4.06-5.66-.1-11.34.15-17-.09-3.35-.14-4.23,1.19-4.33,4.31-.28,8.48-.39,8.29,8.05,8.61,9.81.37,19.65-.77,29.45.43,2.9.35,4.26-.68,4-3.9a79.11,79.11,0,0,1-.05-10c.15-4.15,2.37-6.41,6.58-6.49,6.49-.12,13-.23,19.47-.24,3.06,0,3.76,1.91,3.72,4.67-.14,11-.16,22-.18,33,0,12.14,0,12.14-12.12,12.14h-106c-6.83,0-7.81-1.13-7-7.95C380.74,860.4,380.74,860.4,379,856.79Zm-71.57-52.48v0h9.47a7,7,0,0,0,4.61-1.25c3.57-2.66,3.08-6.32,2.12-9.47-1.07-3.51-5.44-4.71-8.12-4.63-5.48.15-10.93-.56-16.39-.26-3,.16-4.71,1.85-5,4.7-.25,2.47.06,5-.09,7.47s.81,3.62,3.42,3.51C300.83,804.2,304.15,804.31,307.47,804.31Z" transform="translate(-1 -5.25)"/><path d="M176.21,761.89c5.5,0,11,.05,16.49,0,7.68-.09,13.84,3.48,19.92,7.64,2.53,1.74,5.57,2.49,8,4.78,6.06,5.68,11.23,12.64,13.36,20,2.78,9.63,7,20,2.22,30.53a5,5,0,0,0-.46,1.93c-.16,7.12-2.83,13.2-6.12,19.52a54.16,54.16,0,0,1-12.49,16.13c-4.15,3.6-9.5,5.81-14.8,7.93-14,5.6-28.47,1.67-42.67,2.16-3.11.1-7.56-3-11.22-4.63a95.45,95.45,0,0,1-14.76-8.34c-5.47-3.71-8.37-9.33-11.76-14.41-7.55-11.31-7.61-24.73-5.9-37.24,1-7,1.27-15,6.86-21.72,4.22-5.06,7.52-11.07,13.12-14.73,7.91-5.16,16-10.3,26.21-9.56C166.87,762.17,171.55,761.89,176.21,761.89Zm-17.06,54.34c.94,4.79-1.56,9.94,2.22,14.74a12.65,12.65,0,0,1,2.92,6.2c.47,5.15,12.84,11.12,17.73,8.05,7-4.39,11.87-11.15,12-19.49.09-7.31,1.62-14.67-1.78-22.23a41.22,41.22,0,0,0-9.83-14.12c-2.61-2.38-9.68-1.53-12.44.75C161.74,796.93,158.07,805.56,159.15,816.23Z" transform="translate(-1 -5.25)"/><path d="M118.62,377.75c-5.18,0-6.4-2.69-5.43-7.18a9.92,9.92,0,0,0-.51-4.92c-1.06-3.17,0-5.06,2.91-6.39,2.16-1,4.34-2.09,2.78-5.23a1.23,1.23,0,0,1,1.19-1.76c4.14.36,8.12-.75,12.49,1.26,7.27,3.33,15,8,23.35,2a3,3,0,0,1,4.65,1.25c1.13,2.48-.88,2.9-2.78,3.43-4.5,1.26-9.69-.37-13.64,3.6-1.16,1.17-2.13-.89-2.91-1.9-4.53-5.89-16.38-5.43-21.06,2.34-1.08,1.79-1.18,4.67-.17,5.71,2.22,2.28,2.19,5.71,5,7.67,3.36,2.37,5.85,5.11,6.88,9.92a11.84,11.84,0,0,0,12.34,9.59c3-.08,3.53,1.87,4.13,4,3.22,11.69,10.91,13.81,17.94,12.32,5.58-1.18,8.82-5.89,11.94-10.3.72-1,.51-2.94,2.13-3.09,9.37-.89,9.18-9.35,11.88-15.29,1.08-2.38,2.69-3.49,4.48-4.85,3.13-2.38,6-4.85,6.95-9.06,1.2-5.58-1.39-9.58-5.71-12s-8.18.89-11.74,3a13,13,0,0,1-14.26-.32,10.45,10.45,0,0,0-5.68-1.63c-1.19,0-2.42-.19-2.64-1.7-.14-1-.28-2,.73-2.71a2.49,2.49,0,0,1,3.25,0c3,3.41,8.18.9,11.49,4.45,1.52,1.63,4.35-1.77,5.57-2.76,4.54-3.69,9.41-2,14.13-2.38,2.58-.19,5.81-.86,7,2.24a23.08,23.08,0,0,0,6.05,8.8c1.27,1.19,1.35,4.07-.66,5.84a13.36,13.36,0,0,0-4.11,6.29,2.61,2.61,0,0,1-2.39,2.15c-.5,0-1.4.09-1.42.23-.66,4.63-6.46,5-7.6,9-.43,1.57-1.94,1.75-2.59,2.82a3.87,3.87,0,0,0-.32,4.23c.75,1.13,2.27.9,3.19.34,4.8-2.91,9.29-6.24,15.4-6.25,1.22,0,3-2.77,4.6-1.54,3.25,2.56,7.85.88,10.78,4,4,4.25,3.72,12.56-.73,17.95-4.59,5.57-10.64,8.61-17.07,11.77-3.54,1.74-8.35,1.06-10.92,4.92a2.74,2.74,0,0,1-2.3.58c-5.61-1.1-6.2,1.95-6.05,6.5.28,8.16.07,16.33.05,24.49,0,3.42.87,5.22,5.06,5.59,5.37.48,9.83,4.17,14.72,6.38,7.81,3.54,15.26,7.39,24.26,2.38,3.9-2.18,9.24-1.5,13.79-.84,4.34.63,5.21,5.28,6.72,8.6,1.17,2.58,0,4.93-2.12,7.37-4.56,5.19-11.4,5.93-16.66,9.63-2.79,2-6.1,3.17-9,5-3.17,1.95-13.94.45-17.26-1-4.28-1.9-7.46-5-11.05-7.62-1.28-.94-1.87-.3-3,.31-4.3,2.37-6.93,1.18-8.14-3.33-.63-2.38-3.62-1.92-4.72-3.78-2.5,2.21-4.56-.58-6.88-.61-3.4-.05-6.55-.54-9.68,2.16a14.05,14.05,0,0,1-7.48,3.57c-2.2.26-3.88,2.66-4.83,4.94-1.31,3.14-2.61,5-6.57,6.68-4.37,1.86-8.47,1.79-12.64,2.77-1.41.33-3.53,2.16-3,3.4.66,1.68,2.24,4,4.35,3.9,3.83-.26,5.28,3,7.85,4.5a3.93,3.93,0,0,1,1.12,5.4c-1.47,2.47-3.9,4.76-6.87,4.84-9.82.27-19.67.3-29.49,0-5-.14-8.55-4.5-8.44-9.56.11-4.41-1.16-9,1.89-13.05.24-.32.32-1.18.11-1.36-6.88-5.87,1.39-9.91,2.17-14.73.81-5.06,7.38-6.16,11-9.54,2.6-2.45,8-4.38,1.51-8.46-.13-.08-.31-.28-.29-.39,1.15-5.74-4.33-10.48-2.49-16.35.28-.92,0-2.08,1.17-2.53,3.23-1.3,2.31-3.68.66-5-2.44-2-1.5-2.9.31-4.42,3.28-2.75,5.62-6.44,9.91-8.24,3.23-1.36,1.36-5,1.85-7.62.89-4.78-1.7-5.18-5.76-6.08-6.62-1.47-10.25,1.12-13.81,6a37.25,37.25,0,0,1-19.25,13.45c-7.12,2.21-15,3.18-21.84-1.79a4.24,4.24,0,0,1-1.46-1.87c-3.07-8.64,2-17.2,10.93-18.57,8.27-1.28,13.17-9.6,10-17.11-.27-.64-.78-1.25-.15-1.68,3.7-2.55,3.66-8.33,8.7-9.8,1.45-.42,2.72-1.81,4-2.8,4.31-3.48,8.11-3.87,12.83-.7,3,2,12,1.78,14-.34.65-.7,1.79-1.29,1.39-2.44s-1.53-1.1-2.54-1.11a25,25,0,0,1-3,0c-1.57-.18-3.6.73-4.59-1C115.09,380.08,118.55,380.19,118.62,377.75Zm23.63,58.4c1-.53,1.49-.62,1.54-.83.57-2.4,1.51-4.7,4.37-4.59,2.7.1,1.74,2.75,2.24,4.31s1.69,1.89,3.06,2c2.08.17,1.84-1.39,2-2.68.15-1.12.2-3,1.4-2.76,1.79.39,3.81,1.39,4.52,3.34.48,1.31.81,4-.54,4-5.35.09-4.51,4.11-5.3,7.2-.31,1.24-1.91,2.51-2.13,1.08-.49-3.17-4.22-4.43-3.89-7.73.18-1.73-.5-2.45-2.23-2.41-1.44,0-2.58.19-3,1.94-.3,1.36.7,3.72-2.27,3.41-2.71-.28-3.8-2.21-3.8-4.45,0-2.81-1.09-5.07-2.31-7.44-.68-1.32-1.19-2.37-2.88-2s-2.05,1.38-2.37,2.82c-.35,1.62.73,3.57-.57,4.83-4.2,4.1-6.93,9.13-9.75,14.17-2,3.61-1.65,14.28,1,17.62,4.88,6.22,4.88,6.22-.76,11.62-.36.34-.89.69-1,1.1-1.09,6.28-7.13,9.1-10,14.44-4.89,9.08-5.91,17.88-4.33,27.54.31,1.94,1.45,1.93,3.11,2.25,8.94,1.7,17.93.72,26.9,1,1.12,0,3,.88,3.24-1.11.15-1.34.56-3.12-.9-4.17-1.19-.87-2.48-2-3.83-2.17-2.57-.31-4.63-1.9-6.94-2.4-3.77-.82-3.27-3.42-2.16-5.18s2.27-4.14,5.05-5.09a38.27,38.27,0,0,0,18-12.35c1.69-2.11,4.67-3.83,4.63-6.53-.1-5.41,4.49-9.7,3.16-15.29a1.62,1.62,0,0,1,1.67-2c1,.05,1.32,1.06,1.39,1.82.34,3.74,1.28,7.53-1.83,10.79-2,2.14-1.16,3.77,1.39,5s4.6-.19,6.63-1.39c5.66-3.33,9.45-8.57,12.85-13.86,2.56-4,5.18-8.73,5.38-13.24.3-6.87,4.92-13.21,2.32-20.31-.1-.25.19-.62.27-.95,1.09-4.57-1-8.17-5.19-10.4-2.34-1.25-2.38,1.06-3.57,1.47-1.86.65-.67,1.38.12,2.42,1.74,2.25,2.35,6-1.14,5.81-6.74-.34-7.36,2.41-5.85,7.64a6.56,6.56,0,0,1-.18,2A3.63,3.63,0,0,1,166.4,450c-1.52.25-2.22-.62-2.32-1.92-.17-2.32-2-6.33-.45-6.64,4.89-1,3.23-3.71,3.2-6.57,0-2.18-1.84-6.42,3.86-4.66,1.69.53,4.14-2.35,3.13-3.84-3.69-5.46.63-4,3.19-4.15,3.87-.18,4.75-1.59,2.29-4.8-1.83-2.39-1.61-3.43,1.24-3.93a3.63,3.63,0,0,0,3.13-3.39c.33-2.24-2.2-1.5-3.06-2.65-1.65-2.2-2.53,0-3.4.86-1.89,1.81-3.53,3.89-5.41,5.72-3.89,3.8-13.65,4.22-18.32,1.34-3.59-2.21-4.86-5.77-6.77-9.07-1.47-2.53-2.37-6.16-5.9-6.33-2.65-.13-4.39-1.43-6.08-2.87-2.25-1.92-4.92-4-7.22-1.67-1.76,1.81.53,4,2.34,5.65a2.83,2.83,0,0,1-.2,4.42c-1.52,1-2.86.51-3.86-1.51-.88-1.78-2.14-3.85-4.93-3.32a1.9,1.9,0,0,1-2.33-1.4c-.29-1.19.44-1.87,1.52-2.17,1.73-.49,1.75-1.77,1.53-3.18-.28-1.8-1.63-1.82-3-1.83-2.33,0-4.67-.13-7-.05a19.46,19.46,0,0,0-15.37,8c-3.87,4.94-4.85,11-7.24,16.57-.94,2.16-2.11,2.55-4,3.43-4.77,2.17-10.71,1.66-14.09,7.64-1.61,2.86-2.22,5.42-1.27,7.53,1.09,2.43,3.6,4,7.17,3.7,3.83-.32,7.31-1.71,10.87-2.34,9.47-1.68,14.61-8,19.34-15.14,2.61-3.92,8.18-6.95,11.2-4.49,3.59,2.92,7.56,1.84,11.3,2.73,1.23.29,3.27.82,3.45-1.56.15-1.9-.94-3-2.71-3.72-1.22-.46-2.27,0-3.4.16s-2.57,0-2.57-1.51a11.36,11.36,0,0,1,.85-4.83c.72-1.46,2.17-.36,3,.23,3.82,2.68,11.27,2.83,7.78,10.8a1.63,1.63,0,0,0,.35,1.42C140.32,424.79,141.49,430.19,142.25,436.15Zm75.83,64.74c5.79-.07,10.68-2.3,16.53-6.92,2.25-1.78,5.15-4.23,7.56-4,6.06.51,6.12-3.23,6.62-7.17.62-4.81-.73-6.09-5.4-6.78s-8.15,1.7-12.18,2.77c-10.89,2.9-20-2.6-29.2-6.93-4.63-2.17-9.11-4.66-13.76-6.8-1.27-.58-3.31-.82-3.92.94a32,32,0,0,1-5.9,10.82c-1.14,1.32-.69,3.56,2.08,4.48,8.61,2.86,16.26,7.57,23.65,12.79C208.4,497.06,211.81,502,218.08,500.89Zm-34.23-83.33c.05,4.35,4,7.18,7.72,7.56s5.78-2.55,9-3.26a30,30,0,0,0,13.09-6.22c4.09-3.65,9.09-6.73,10.81-13,1-3.77-.63-6.93-2.45-7.49-6.16-1.89-12.61-2-18.75,1.08-4.4,2.21-9,3.88-13.29,6.51-3.23,2-4.6,4.57-2,7.71,1.5,1.83,1.75,2.5-.76,3.15C185.12,414.17,183.5,415.3,183.85,417.56Z" transform="translate(-1 -5.25)"/><path d="M761.41,413.53c-.32.76-.93,1.52-.91,2.27,0,1.59-4.24,1.4-1.7,3.39,1.49,1.16,4.66,1.34,6.06-.35,3.28-4,7.5-6.54,11.79-9,5.44-3.12,11-6.25,17.73-5,5.34,1,10.06,10.19,7.86,15.17-4.14,9.38-10.73,16.13-20.42,19.7-1.44.53-1.49,1.63-1.39,2.83.08,1,.46,2.29,1.62,2.11,5.65-.87,10.25,4.27,16.09,2.62,1.8-.51,2.87-.76,4.09-2.63,3.61-5.53,7.85-10.65,12-15.83,1.32-1.66,12.11-2.64,12.86-1a21,21,0,0,1,1.75,11.39c-.46,3.56-2.56,6.3-4.56,9.29-2.32,3.46-5.62,6.92-4.73,12.09.73,4.22-3.52,7.36-3.39,11.94.05,1.67-4.41,1.71-6.61,1.9-2.95.25-6.63-.37-8.93-2.06a11.35,11.35,0,0,0-11.7-1.09c-4.71,2.47-9.91,1.86-14.58,4.32s-10.63,2.77-10.55,10.07c0,1.23-1.27,1.38-2.28,1.4-1.83,0-3.68-.13-5.5,0-4,.35-7.62-1.44-10.53,5-2.83,6.25-9.38,11.75-16.46,15a3.39,3.39,0,0,0-2.08,3.57c0,1.74,1.72,1,2.63,1.48,4.13,2.11,8.78,2.55,13.06,4.43,5.82,2.56,4.45,7.24,3.79,10.94-.69,3.87-4.69,4.8-8.6,4.58-11.54-.63-22.84-3.94-34.57-2.69-3,.32-6.49-4.61-5.56-7.93,1.07-3.84-.78-6.08-3.16-8-3.11-2.51-3.54-4.08-.6-7.52,2.18-2.55,5.58-5.56,4.2-10.11a2.86,2.86,0,0,1,1.33-3.41c3.06-2,5.87-4.31,4.69-8.71-.23-.84.35-1.46.93-2.14,5.41-6.3,5.61-10.72,2.1-18.06-1.1-2.3-2.68-4.91-.84-8.35,1.34-2.5.51-6.2.49-9.36,0-1.23.45-2.92-1.15-3.51-1.42-.52-2.7.47-3.5,1.47-2.77,3.46-6.63,5.17-10.37,7.25-6.69,3.71-13.14,3.41-19.9.3-2.93-1.34-6.28-1.15-9.38-2.81-6.38-3.42-9.61-7.55-9.39-14.25a12.32,12.32,0,0,1,12.1-12.11c3.65-.09,7.32.18,11,.28,2.51.07,4.94.13,6.74-2.22.76-1,1.37-1.62.6-3-2.62-4.63-2.22-6.95,2.48-8.85,3-1.21,3.78-2.77,3.48-5.58-.32-3.05,2.15-5.3,4.09-5.33,3.52-.05,6.12-1.86,9.12-2.86.78-.26,2.11-.58,2.16-1,.68-5.31,5.16-4.9,8.79-5.41-1.16-4.8-5.12-5.46-8.2-5.85-4-.51-4.35-2.48-4.17-5.54.14-2.42.16-4.71-3.34-4.9-2.3-.12-1.9-2-1.32-3.39a50.12,50.12,0,0,1,3.55-7.6c.85-1.38,1.63-2.77,1.14-4.15-1.87-5.28,2.6-6.57,5.42-6.92,8.46-1,17.27-1.94,23,6.84,1.32,2,3.79,1.79,5.51,1.43,3.35-.68,6.65.49,9.7.08,5.32-.71,9.81,1,14.46,2.65,6.47,2.33,12.11,1,16.74-3.95a5.89,5.89,0,0,1,4.7-2.16c1.8,0,3.57.17,5-1.59a2.85,2.85,0,0,1,4.42-.1,5.84,5.84,0,0,0,4.45,1.75c1.19,0,2.63.12,2.43,1.75-.5,4,3.52,5.63,4.37,8.89.2.73,1.41,1.64,1.23,2-2.33,4.23-1.08,9.67-4.8,13.47-1.5,1.55-3.78,2.85-3.71,5.51,0,2-.76,2.91-2.76,3.41-2.44.62-4.25-.54-6-1.61-1.23-.73-.46-1.51.5-2.21,4.33-3.12,7.39-7.25,10.11-11.85,2.32-3.93-2.25-9.85-6.48-13.06-5.77-4.38-10.89-1.82-15.65,1.82-4.4,3.37-8.16,5.08-13.79,1.44a28.13,28.13,0,0,0-23.05-3.08c-6.62,2-9.2-1-12.61-4.43a4.59,4.59,0,0,0-3.82-1.69c-2.32.13-4.66-.1-7-.15-6.1-.11-8.92,3-9.59,9.27a20.94,20.94,0,0,0,3.27,14.11c1.52,2.29,5,3.6,7.91,4.54,2.15.71,3.93.7,2.91,3.64-.28.8.36,1.5.83,2.22,2.3,3.63,1.25,5.62-3,5.87a15.83,15.83,0,0,0-2.49.08c-3.2.73-5.26,4.5-3.74,5.77,6.53,5.44.12,9-1.15,13.33-3.75-2.41-7.26-4.73-2.35-9.4,1.06-1,1.26-3.1-.12-4s-3.27-1.21-4.69.87A111.79,111.79,0,0,1,693,412.5c-4.19,4.7-7.23,10.45-12.62,14.07-1.19.8-2.14,1.64-3.94.65-7.23-4-14.42-2.53-18.9,4.17a6.66,6.66,0,0,0,.54,8.62c3.7,4.23,8.64,5.84,13.63,7.35,3.53,1.07,6.54,3.64,10.77,2.91,2.93-.51,5.64-.63,8.27-2.57,6.48-4.78,14.37-7.68,19.54-14.2,2.33-2.93,4.23-6.31,2.47-10.33a14.53,14.53,0,0,1-1-5.86c0-1.15-.46-2.56,1.24-2.72,1.41-.12,2,1.22,2.26,2.28a27.41,27.41,0,0,1,.28,4.46c.08,1.16-1.18,2.83,1,3.23,1.41.25,3.08.66,3.95-1.13.67-1.38,2.2-1.82,3.08-3.12s2.8-2.13,4.25-3.16c1.54,2.73,4.67,1.56,6.67,2.75,1.6,1,1.53,3.44.25,4.91a3.14,3.14,0,0,1-4.87-.2c-1.26-1.47-2.38-3.41-4.27-2s-4.22,3.36-4.26,6.34c0,2.29,1.43,3.32,3.32,4.45,5.33,3.17,11.13,4.8,17.09,6,1.5.31,2.32.86,2.42,2.55.2,3.32-3.08,4-4.62,5.85-1.06,1.3-3.19.26-4.58-1.42-1.55-1.85-3.59-4.61-5.44-4.63a43,43,0,0,1-12.68-2.2c-.68-.21-1.53,1-1.38,1.79,1.25,6.87-4.33,12.71-2.83,19.66,1.76,8.19,4.61,15.82,12.62,19.65,3.3,1.57,7.46,1.34,11.23,1.87,9,1.25,16.57-1.55,24.47-6a89.18,89.18,0,0,1,18.28-7.51c7.85-2.32,15.22-1.13,22.74-1.89a4.39,4.39,0,0,1,3.6,1.1c3,2.54,6.36.81,7.74-2.92,2.7-7.26,3.48-15.11,7.88-22,1.26-2,6.14-5.86,1.35-10.32-2.41-2.24-3.89-2.36-5.6-.32-3,3.62-5.54,7.69-8.6,11.29-2.8,3.29-5.22,7.29-10.19,7.86a19.87,19.87,0,0,1-11-1.88c-6.73-3.59-13.51-1.92-20.28-2-4.75-.05-9.7,1-12.15-5,.59-.25,1.35-.89,2.06-.83,7.08.58,13.51-2.68,20.35-3.64,3.61-.51,7.41-3.48,10-6.34a43.62,43.62,0,0,1,9.16-7.71c.95-.6.75-11.07-.13-12.19-2.72-3.48-7.22-4.62-10.19-1.87-1.77,1.63-3.89,1.28-5.75,2.36-4.35,2.51-7.3,6.67-11.73,8.94-2.09,1.07-4.29.15-6.38.53-7.33,1.31-14-1.91-21.09-2.73a2,2,0,0,1-1.41-1.16c-.23-1.09.77-1.35,1.58-1.37,2-.05,4,.14,6,0,2.87-.2,5.82.38,8-2.69,1.29-1.76,4.06-.88,6.21-.72Zm-59.87,99.12c-.06.73-.08,1.74-.21,2.73-1.1,8.23,1.9,10.35,10.09,10.49,4.49.07,9,0,13.48.08,1.3,0,3.41-.06,3.76.62,1.85,3.62,5.18,2,7.82,2.76,3.7,1.11,4.12-1.9,5.08-3.71s-.21-3.79-2-5c-3.56-2.48-7.17-5.2-11.77-4.73-3.42.34-4.9-2-6-4.07s1.23-3.78,2.47-5.11c3.35-3.61,7.05-6.89,10.72-10.19,5.83-5.27,5.75-6.37-1.18-9.09-1.29-.51-3.32-1.06-4.09.54-1.69,3.56-3.32,2.17-5.26.4-1.42-1.3-3.25-1.87-4.66-3.45-2.27-2.53-5.84-1.41-7.6,1.76a65.78,65.78,0,0,1-3.78,6.31c-3.85,5.39-8.41,10.47-6.9,17.92A11.13,11.13,0,0,1,701.54,512.65Z" transform="translate(-1 -5.25)"/><path d="M269.27,481.84c-1.76-2.81-1.25-5.52-1.25-8.12,0-3.33.26-6.46-2.55-9.22-1.89-1.85-1.43-5.28-.18-7.09,4.14-6,5.64-13.47,10.59-19.1,1.44-1.63,1.13-4.57,3.11-6.39.64-.58.48-2.25-.52-3.17-1.94-1.79-9.64-2.1-11.25,0-1.88,2.5-3.75,5.42-4.33,8.4-1.29,6.57-4.61,12-8.61,17-4.74,5.84-17.42,7.31-24,3.33-1.74-1.06-3.91-.27-5.55-1.83-3.05-2.9-4.37-9-1.79-13.86,1.83-3.46,5-6.23,9.58-5.3,3.8.77,6.85.09,9.34-3.21a4.51,4.51,0,0,0,.89-3.65c-.22-1.55-1.53-1.63-2.71-1.44-2.85.45-3.37-1-3.27-3.46a90.5,90.5,0,0,0-.05-12c-.34-3.67,2-5.76,4.37-7,4.05-2.11,8.85-2.73,10.48-8.14.46-1.5,2.73-.49,4.17-.5a40.19,40.19,0,0,1,5.49.16c2.92.36,4.62-.23,3.69-3.69a1.77,1.77,0,0,1,1.14-2.41c1.23-.35,1.45.66,2.11,1.4a47.75,47.75,0,0,0,6.73,6.3c2,1.5,4.89,1.64,4.1-1.78s3.4-6.33.3-9.7a14.13,14.13,0,0,0-2.14-1.78c-1.2-.87-3.09-1.95-3.15-3-.4-7.53-7.26-14.78-1.16-22.61-1.45-6.38,5-5.58,7.63-7.09,2.8-1.6,7.16-1.2,11.25.64,4.36,2,8.52,4.54,13.06,6a10.84,10.84,0,0,0,7.52-.62,12.69,12.69,0,0,1,11.07-.28,26.38,26.38,0,0,0,9.69,1.7c2.34,0,4.25-.08,5.86-2.56s4.16-4.46,7.74-1.39c-3.85,1.68-6.51,4.44-9.26,7.14-1.15,1.13-2.8,2.08-4.55,1.31-4.38-1.93-9.19-1.2-13.71-2.47s-9.24.7-13.86,1.19c-2,.22-3.71.14-5-1.31-2.33-2.66-5.44-3.37-8.56-4.6-5.95-2.34-10,.58-14.17,3.65a3.09,3.09,0,0,0-.94,1.65c-2.54,9.4.56,16,9.73,20.51.81.41,1.5.83,1.41,1.78-.33,3.3,2.29,4.53,4.3,6.14.75.6,1.93.77,1.78,2.05s-1.33,1.35-2.28,1.24c-2.65-.29-4.19.46-3.86,3.49.1.92-.88,1.26-1.45,1.84-1.82,1.85-5.42,3.44-1.35,6.57.3.22.37,1,.27,1.43-1.2,5.37,1.34,6.64,6.12,5.86a2.17,2.17,0,0,1,2.68,2.25c0,1.44.39,3.25-1.64,3.68-2.33.5-2.4,2-1.91,3.76.54,2,2,1.87,3.6,1.53,4.17-.91,5.36,1.15,5.08,4.94-.17,2.32,0,4.66,0,7,0,1.49-.51,2.62-2.21,2.74-1.14.09-2.43.61-3.31-.43-1.08-1.27-.28-2.55.43-3.67,1.37-2.16,2.89-4.44.51-6.66-1.95-1.84-8.95-.83-10.13,1.58-2.58,5.28-6.05,10-8.43,15.53-1.72,4-.59,9-4.28,12.43-1,1-1.82,4.57,1.43,6.82,2.2,1.52,1.06,5.44,2.93,8.35,2.23,3.48,4.14,8,3.15,12.89-.85,4.21-2.75,8-4.21,12-1.31,3.58-3.67,6.63-4,10.75-.31,3.66-2.65,7-2.41,11,.28,4.74,5.16,8.63,9.35,6.66a7.22,7.22,0,0,1,6.67.14c3.74,2,7.71,1.39,11.61,1.83,3.21.36,5.84,0,5.93-4s-2.51-5.74-6-5.93a16.79,16.79,0,0,1-5.7-1.37c-4.1-1.78-4.2-4.7-1.18-8,6.68-7.33,16.35-11.32,21.94-19.83.34-.53,1.44-1,1.38-1.3-1.31-6,3.71-11.19,2.27-17.23-.38-1.62-1.49-3.93,1.47-4.33,3.34-.45,2.53,2.26,2.68,4.09.11,1.32-.27,2.75.11,4,.81,2.6,3.28,2.9,4.57,1.21,4.91-6.43,9.32-13,12.32-20.88,2.93-7.68,1.14-14.94,1.87-22.33.24-2.36-2.16-4.67-5-2.17-1.74,1.54-2.81,1.11-3.3-.61s-1.38-4,1.19-5.17c.69-.3,1.65.08,2.46,0,1.6-.2,3.88.95,4.66-.61,1.08-2.18-1.73-1.64-2.62-2.52-1.09-1.09-.22-2.1.79-2.05,4.89.24,5-1.34,2.2-4.72-.66-.82-.2-2.51.21-3.85,1.09-3.56,1-6.43-4.12-5.67-3.09.47-2.45-1.88-2.5-3.62-.08-2.78.44-5,4-4.86,1.82.09,3.41.09,3,2.66-.65,4.36,4,4.92,5.75,7.66,1.22,1.92,3.35,2.52.09,4.58-1.61,1-1.88,3.27.83,4.65,2.46,1.25,1.7,2.87-.65,3-2.51.11-3.9,1.16-4,3.39-.15,2.86,2.51,1.68,3.93,2.4,6.4,3.21,13.34,2,20,2.94,8.37,1.21,16.26,4.25,21.2,11.79.93,1.42,1.1,4.42.21,5.72-1.84,2.7-2.71,5.72-6.13,8-8,5.35-16.21,1.62-24.22,2.27-3.64.3-6.66-3.33-11-3.1-3.37.18-4,2.59-5.55,4.14-1.38,1.37-.5,3.11.49,4.92,2.57,4.72,4,10,6.72,14.7a88.29,88.29,0,0,0,10.31,14.09c1.47,1.69,3.17,1.6,5,1.58,6.17-.07,12.33-.11,18.49-.33,4.47-.16,6.54,1.8,6.25,6.25,0,.5,0,1,0,1.5,0,6.31-2.22,8.73-8.27,9.86C369.11,511.44,361,515,356,523.8c-2.36,4.17-9.2,4-12.53.47-4-4.23-4.93-10-8.08-14.59-.46-.67-.77-2-1.26-2-5.26-.6-7.55-3.61-7.77-8.73,0-.66-1.39-1.31-2.18-1.89-1.65-1.22-3.07-2.46-2.61-4.87.27-1.42-.11-2.88-2-2.72-1.68.14-3.92.91-3.36,2.85,1.45,5.08-2.59,8.4-3.52,12.68-.5,2.28-2.08,2.81-3.82.41-1.23-1.68-3.18-2.48-4.05.27-1.24,3.95-4.08,4.37-7.47,4.16a23,23,0,0,0-3,0c-1.6.1-2.92.55-3.27,2.43-.41,2.23,1.27,2.47,2.68,2.81a37,37,0,0,1,11.4,4.64c3.2,2,3.07,4.28,2,6.57-1.49,3.09-3.8,5.89-7.84,5.72-4.93-.21-9.82.3-14.83-1.12-2.66-.75-6.06,1.33-9.37,1.18-6.42-.28-10.07-4.08-10.16-10.57-.06-4.56,1.84-9.48-2.71-13.4-1.13-1-.08-3.21,1.73-4.55,2.6-1.93,4.76-4.31,3.78-8.18-.83-3.29,2.66-3.77,4.22-5.35s3.91-2.76,4.48-4.86,1-4.65-1.81-6.12S270.58,479.7,269.27,481.84Zm-5.53-79.07c-3.1-.33-5.53.86-8.41,2.16-7.72,3.48-10.79,8.54-9.94,16.64.31,3,.21,6,.4,9,.56,9,.58,9-8.57,9.16a23.07,23.07,0,0,1-3,.08c-3.67-.42-6.64,1.06-7.95,4.25-1.58,3.83.83,10.45,4.24,11.42,3.09.88,6.58.45,9.89.45,2.32,0,5.13.55,6.86-.53,7.1-4.43,10.31-11.83,11.77-19.53,1-5.55,4.35-8.3,8.32-11.19,3.57-2.61,6.56-3.52,10.32.12,2.14,2.08,9.37-.77,10.25-3.73,1-3.52-1.11-4.13-4.16-4.08-1.68,0-5.95,1.17-4.25-2.22,2-4-.42-4.75-2.33-6.27-1.32-1-2.81-2-3.33-3.59-.83-2.52-2.6-2.7-4.7-2.54C267.35,402.46,265.55,402.62,263.74,402.77Zm119.14,96.62c-.22-.73,1.07-3.27-1.42-3.33-4.18-.12-8.37-1.16-12.6,1-3.57,1.8-7.32,2.26-11.43-.33s-8.08-4.87-9.34-9.63c-1.44-5.39-7-8.32-7.62-14.33-.2-2-1.65-6-5-5.32-2.83.57-6.19,2-5.24,6.44.37,1.73-1.47,1.83-2.51,2.56-7.36,5.12-7.12,8-.58,13.85a51.69,51.69,0,0,1,11.95,15.83,74.61,74.61,0,0,1,5.34,13.11,5.67,5.67,0,0,0,4.57,4c3.25.52,4.27-2.49,5.86-4.23,4.08-4.46,7.46-9.19,14.48-10,3-.36,6.39-2,9.66-2.95C381.8,505.25,383.5,503.31,382.88,499.39ZM363.53,453.3c4.18,0,7.17.07,10.16,0,5.75-.15,6.71-5.37,8.42-9.05.75-1.62-1-6.11-2.7-6.84-5.68-2.45-10.39-7-17.52-6.66-5.59.28-11.69,1.94-17.12-2.16-1.76-1.32-3.71.45-3.62,3.08q.24,7.45.47,14.92c.05,1.8.59,3.7,2.59,3.62C351.27,449.94,357.38,455.73,363.53,453.3Z" transform="translate(-1 -5.25)"/><path d="M561,423.38c2.42,4.19,5.55,5.28,9.79,4.19,1.38-.36,3.87-.43,3.91,1.86s-2.27,1.28-3.57,1.48c-1.47.22-3-.11-4.46.23-3,.71-3.48,3.28-1.31,5.52,1.48,1.51,2.91,3.07,4.31,4.66,3.39,3.88,3,5.26-1.69,7.2a8.92,8.92,0,0,0-3.1,3c-1.85,2.42-.48,13.57.48,16.49,2.71,8.24,10.37,10.89,16.51,14.77,3.24,2,7.32,4.33,11.81,4.36,3.08,0,5.94,2,8.27,3.27,7.27,4,15.29,6.43,21.77,12.38a43.17,43.17,0,0,0,14,8.71c4.36,1.55,10,2.31,13.51-.28,2.78-2.06,4.83-6.83,4.53-11.23a21.12,21.12,0,0,1,7.11-18c2.52-2.3,1.69-5.27.59-7.8-.72-1.66-8-1.32-9.73.32a74.48,74.48,0,0,0-8,8c-2.81,3.61-5.91,4.1-9.63,2.05-5-2.78-10-5.79-15-8.57-5.58-3.08-10.9-6.66-17.1-8.61-1.71-.54-3.22-2.2-4.45-3.66-.85-1-.46-2.58,0-3.84.62-1.64,2.09-1.47,3.4-1.25,2.91.47,5.35.62,5.11-3.59-.11-1.86,1.66-1.81,3-1.68,3.78.38,7.57-1.59,11.36.06.49.21,1.22-.14,1.84-.22-.76-3.62,2.68-5.4,3.57-8.26a2.11,2.11,0,0,0-1.31-2.83c-4-1.63-3-4-.19-5.54,5.19-2.81,4-8.67,6.49-12.77.13-.23-2-4-4.33-3.91-3.25.08-6.45-1.21-9.76,1.7-4.14,3.63-9.26,6.24-14.19,8.82-2.14,1.12-4.88.74-7.24-.28-.28-.11-.45-1.2-.41-1.22,2.24-.93,3.23-4.31,6-3.82,4.24.77,6.85-2.61,10.42-3.4,3.88-.85,3.32-8.74,5.48-6.89,3.64,3.13,6.91,1.18,10.16,2,1.74.46,3.54-.95,5.37,1.19,3.52,4.12,3.44,11.32-.82,16-2.75,3-3.15,10.33-.79,13.41,2.23,2.92,2.6,5.86-.31,8.57-.68.63-1.19,1.25-1,2.1,1.26,5.51-2.41,9-5.09,13a2.7,2.7,0,0,0,1.56,4.34,27.32,27.32,0,0,1,9.38,5.11c2,1.59,9-1.8,10.33-5.06,1.87-4.41,7.3-4.41,9.65-8.13,2.91,2.3,6.52,2.11,9.83,3,1.73.47.72,3.62.78,5.54.11,3.84-.1,7.18-2.92,10.84a29.66,29.66,0,0,0-6,16.82,18.25,18.25,0,0,1-6.16,12.64,7.8,7.8,0,0,1-7.45,1.85c-4.11-1.2-8.41-1.88-12.09-4.67a8.4,8.4,0,0,0-9.73,0c-2.56,1.62-12.05,3.23-14.45,2-1.25-.64-.7-2.16-1.92-3.13-1.68,1.38-2.9,4.34-5.76,3.32-2.35-.84-3.7-2.74-4.69-5.23-1.65-4.16-5.63-3.68-9-3.09-2.3.4-1.3,2.8-1.06,4.24.3,1.83,1.85,3,3.2,4.26a9.62,9.62,0,0,1,.62,13.92c-3.37,3.79-10.91,3.73-15.29-1s-7.8-10-8.48-16.48c-.21-2-.87-2.61-2.68-2.66s-4,.15-4-2.51c0-2.21-.66-4.95,2.27-5.95,1.59-.54,2-2.14,3.41-2.82.94-.46,1.65-1.54.25-2.19s-3.62-1.14-2.38-2.74,2.7-3.72,5.39-3.62c2.16.08,4.33,0,6.49,0,1,0,2.17.06,2.41-1.22.19-1.11-1-1.07-1.61-1.49-2.92-1.88-4.8-5-8.86-5.67a7.78,7.78,0,0,1-5.1-4.93c-.1-.35-2.28-6.57-5.07-.72-.69,1.44-2.89-.23-2.46-1.47,1.18-3.36-2.19-4-3.17-6a2.54,2.54,0,0,0-4.24-.27c-3.51,5.56-8.72,1.93-13.06,2.7-5.13.91-8.37-1.18-10.61-6.35-2.78-6.44-.92-13.52,5.23-17.05,8.86-5.07,17.48-10.55,26.25-15.79,3.21-1.91,4.74-3.76.7-6.46-1.69-1.13-1.17-2.53.62-2.65,2.87-.19,4.09-2.44,6-3.7-.23-.52-.27-.92-.49-1.07-1.43-1-4.49.51-4.56-1.93-.08-2.71,3-2.61,4.95-3.2,2.92-.87,6.35-1.32,1.89-5.1-1.11-.94-1.91-3.1-.5-4.49a3.62,3.62,0,0,1,4.64-.17c1.39,1.33,4.36,2.11,3.41,4.88-.55,1.59-1,2.63-.06,4.4s-1,2.3-2.57,2.46c-4,.4-2.91,2.78-1.62,4.83.52.83,2.46,1,1.51,2.44-.37.57-1.8.47-2.76.62C564.5,422.51,562.54,421.51,561,423.38Zm8.17,82.47c0,7.76,5.42,18.11,11.95,22.87a5,5,0,0,0,7.62-3c.7-3.67-.06-7.4-3-9.46s-2.85-5.91-5.84-8c-2-1.45-.09-4.49,2.64-4.45,6.6.1,13.21.18,19.82.19,1.18,0,2.55-.34,3.32.58,3.15,3.82,7.42,1.72,11.18,2.25,1.46.2,2.67-.44,2.53-2.24-.1-1.28.05-2.87-1.91-2.91s-3.21-1.93-4.68-2.32c-3.7-1-6.4-4.13-11.19-3.27-3.79.67-8.79.39-12.44-1.93-6.71-4.25-12.27-.78-17.78,2.1-3.29,1.72-2,5.57-2.23,8.62C569.16,505.18,569.17,505.51,569.19,505.85ZM537.26,467c5.76,1.75,10.44-3,16-2.53.92.08,1.34-.71,1.59-1.59,1.16-4.24,3.41-7.95,5.78-11.58,3.45-5.28,3.27-12.23-.59-16.86a2.31,2.31,0,0,0-3.85.12c-2.38,3-5.85,3.86-9.11,5.2-4,1.65-7.48,4.42-11.21,6.57-2.53,1.46-4.69,4.66-7.22,6.87-3.6,3.13-3.77,10.32-.1,12.95C531.21,468.07,534.37,466.77,537.26,467ZM612,461.87c-1,.28-3-1.13-3.56,1a3.3,3.3,0,0,0,2.55,3.77c2.52.38,3.58,2.79,6,3.25,4.64.87,7.31-.69,9.57-5,1-1.95,2.15-4.32.91-5-3-1.71-6.65-2.36-10.05-3.36a3.9,3.9,0,0,0-.55,1.76C617.37,462.13,615.1,462.36,612,461.87Z" transform="translate(-1 -5.25)"/><path d="M480.65,446.67c-2.25-3.36-2-6.24.87-9.24,1.78-1.85,3.85-2,5.27-.85s1.6,3.42.14,5.37c-4.31,5.78-3,9.25,3.82,11.45a29,29,0,0,1,12.84,8.8c2.37,2.7.48,18.09-2.45,18.24-4.19.21-7.61,7-12.62,1.33-2.17-2.47-7,.43-6.56,3.9.56,4.42-.71,9,2.14,13.37.78,1.18-2.37,4.4-2.14,7.61.36,5.05,1.61,7,7,8.16,3.15.69,4.69,3,4.71,6.14,0,2.4-.07,4-3.23,5.6C479.45,532,468,529.45,457,528.93c-4.93-.24-10.16-2.75-15.63-2.8-1.48,0-3.1-1.68-4.38-2.89-2.72-2.56-2.77-6.82-5.66-9.36a1.51,1.51,0,0,1-.22-1.42c4.33-5,.85-13.07,6.42-17.22,2.5-1.87,1.89-3.58,1.62-5.53-.31-2.37-2.37-2.63-4.24-2.46-3.26.31-4.05-1.26-3.77-4.15a12.66,12.66,0,0,0-.63-3.37c-4.08,2.53-8,.31-7.83-4.6.09-3.18-1.32-4-3.63-5.78-6.72-5.21-13.23-10.38-16.69-19.23-3.75-9.62-2-16.16,5.64-22,.76-.59,1.41-1.58.65-2-7.62-3.76,1.54-4,1.25-6.11,3.3.13,3.94-1.78,4.93-4.63.57-1.64,2-5.35,5.94-4.59,2.16.41,2.08-1.58,1.64-3.15-1.33-4.79,1.07-6,5.24-5.48a5.38,5.38,0,0,0,1.5,0c2-.3,5.68,1.2,4.69-2.75-.54-2.16-1.55-5.9-5.5-5.14a3.59,3.59,0,0,1-3.05-.82c-2.74-1.78-5-4.65-8.82-4.32-.45,0-1.31-.22-1.35-.43-.66-4.44-4.52-7.2-6-11-1.56-4.11,2-8.1,3.13-12.17,1.53-5.27,7-6.71,10.38-10.2.64-.67,2.2-.56,3.34-.59,1.42,0,3.33-.4,3.09,2-.16,1.64-1.06,2.34-3,2.53-7.95.78-13,10.32-10.11,17.63,2,5.15,4.14,8.88,10.69,9.62,2.24.26,7.11,3.13,7.54,7.71.19,1.92,1.81,2.35,3.07,2.91,4.88,2.17,6.57,6.19,6.94,11.19-.92-2.65-4-2.55-5.54-4.7-1.17-1.62-3.71-.75-4.45,1.72-1.06,3.6-2.64,6.42-7.15,5.68a1.55,1.55,0,0,0-2,1.11,2.54,2.54,0,0,0,1.92,2.62c2.76,1.07,5.32,2.16,4.6,5.9,5.27.92,5.21,5.22,5.77,9.12,5.78-1.35,6.28,7.6,12.19,6.23,1.29-.3,2.11.86,1.89,2.29a2.11,2.11,0,0,1-2.42,2c-1.46-.19-3-1.2-4.3-.12-4.41,3.64-5.73.42-5.88-3-.12-2.94-1.66-3.42-3.68-3.46-1.6,0-3.5,1.06-4-1.37-.41-1.83-.18-3.67,1.85-4.72.37-.19.56-.75,1.29-1.79-6.33.38-11-.93-8.78-8.69C417,419.85,413,426.64,409.9,433c-2.48,5.1-5.14,11.16-3.33,17.5,1.14,4,4.56,6.56,6.74,9.91,3.62,5.57,10,6.89,15.63,9.33,1.21.53,3.06.5,2.94,2.06-.59,7.74,5.35,11.12,10.11,15,4.58,3.77,5.33,6.33.61,9.95-6.6,5.06-6,11.84-5.63,18.71a6,6,0,0,0,3.84,4.66c3.83.81,6.89,3.82,11.23,3.24,5.64-.75,10.55,3.34,16.47,2.78,3.9-.37,5.56-1.18,4.93-5.17-.19-1.21-.9-2.85.91-3.43,1.36-.44,1.93,1,2.78,1.73s1.85,1.29,2.1,2.63c.5,2.61,2.73,3.33,4.86,3.34,1.64,0,3.57-1.25,3.69-2.88.17-2.3-.72-5.35-3.19-5.56-6.72-.58-5.48-5.09-5.42-9.33.09-6.66.05-13.32,0-20,0-1.24.39-3.2-1.45-3.11s-1.06,2-1.16,3.26c-.35,4,1.89,8.86-3.49,11.36,2.17,5.57-3.78,5.1-5.81,7.44-2.39,2.76-3.62,4.43.71,6a3.79,3.79,0,0,1,2.68,3.29c.13,1.21-1.24,2.34-1.53,1.87-1.68-2.76-6.2-.43-6.88-3.47s-1.25-6.57.67-9.59c3.61-5.66,7.39-11,8.06-18.25.35-3.77.6-9.15,6.78-10.92,2.57-.74,4.48-4.91,4.15-8.72a27.88,27.88,0,0,1,0-6c.4-3,3.32-3.13,4.31-1.64,2.19,3.31,5.55,4.18,8.66,5.64,2.88,1.34,1.4,3.73,1.59,5.67.22,2.15-1.19,2.89-3.16,2.87-2.65,0-5.3-.1-8,0-1.11,0-2.53-.37-3.14.93-.73,1.55.86,1.92,1.7,2.54,6,4.43,11.14,4.06,16.62-1.25,2.89-2.8.88-10.36-3-13.81-3.57-3.2-6.54-7.17-12.22-4.78a2,2,0,0,1-1.86-.42c-2.64-3.89-5-5.29-8-.12-.79,1.41-2,0-2.58-1a3.19,3.19,0,0,0-3.75-1.78c-1.84.5-1.06,2.16-1.23,3.38-.13,1,.07,2.21-1.29,2.31s-1.82-1-2.07-2.28c-.69-3.48-1.43-6.25-6.44-4.65-1.77.57-4.55-2-4.81-5.16-.27-3.35,2.16-2.27,3.71-2.34,2.48-.1,5.67-1.14,5.51,3.37a2.32,2.32,0,0,0,2.09,2.44c1.46.24,2.66,0,3.18-1.64.4-1.22,1.48-2.63,2.25-1,2.17,4.64,4.14,1.84,6.44.35A20.87,20.87,0,0,1,480.65,446.67Z" transform="translate(-1 -5.25)"/><path d="M509.92,364.59c.48,5.65.62,10.42-4.74,13.12-.54.27-.87,1.41-.89,2.15-.09,3.53-.29,5.31-3.15,1-1.06-1.59-2.25,0-2.25,1.5s.06,3-1.71,3.73c-1.17.46-2.38,1.79-3.6.57-1-1-.62-2.4,0-3.71,1.72-3.89,3.92-7,8.12-8.92s2.47-6.63,3.44-10.06c.17-.57-.55-2.39-1-3.58-1-3.06-2.68-5.62-6.56-5.27a14.06,14.06,0,0,1-3.48.12,12.91,12.91,0,0,0-13.42,5.59c-2,2.78-5,2.94-7.45,4.34-.52.3-1.4.6-1.82.36-9.07-5-18-2.35-27,.36-4,1.22-11.42-2.06-13.33-6.1-.8-1.69.11-2.48,1.84-2.48,1.3,0,2,1,2.94,1.62,3.25,1.94,6,4.3,10.68,1.94,3.86-2,8.83-.31,13.27-.64,5.27-.39,10.43,2.18,15.88-.16,2.56-1.1,3.8-3,5.57-4.64C486.1,351,492,352,497.63,352.2c2.29.07,4.45-.35,7,1.21C509.44,356.41,511,360.09,509.92,364.59Z" transform="translate(-1 -5.25)"/><path d="M588,360.92c-2.88,3.15-5.58,4.75-9.11.47-3.11-3.76-6.4-7.28-12.39-6.45-4.42.61-7.14,2.25-8.59,6.46-.74,2.18-3.23,3.46-2.73,6.46s-.92,7.06,4.39,7.06c1.53,5.91,11.67,6.17,9.41,14.92-.72,2.78,7.31,9.68,10.82,9.84s3.78,2.85,3.61,4.82c-.24,2.8-2.53.49-3.78.8-4.93,1.23-6.62-.72-6.49-5.45,0-1.41-1.88-1.73-2.73-2.66-1.79-2-3.77-3.72-3.77-7,0-4.76-7.62-9.26-11.78-7.29-1.66.79-2.87.45-2.85-1.23.07-6.58-4.82-12.41-2.68-19.32,1.09-3.54,2-6,6.23-7.93,4.66-2.05,9.06-1.55,13.54-2.38,4.27-.79,6.74,3,10.48,3,.14,0,.41.17.4.25-.41,6.35,5.23,4.13,8.13,5.77Z" transform="translate(-1 -5.25)"/><path d="M626.22,397c-2.19-.8-1.1-2.35-.63-3.65.59-1.64,2.73-2.32,2.47-4.62-.55-4.9-.38-8.4,6.58-9.28,5.59-.71,9.89-6,12.1-11.47.43-1-1.28-5.22-3.29-7.13-1.83-1.75-2.7-3.93-1.15-5.53,1.83-1.89,3.11.77,4.24,1.89,2.73,2.71,5.7,5,8,8.36,1.92,2.76.69,3.36-.28,5.08-3.33,5.88-9.24,9.26-14,13.54-3,2.68-7.66,3.59-10.16,7.66a15,15,0,0,0-2.1,3.72C627.76,396.46,627.33,397.05,626.22,397Z" transform="translate(-1 -5.25)"/><path d="M597.08,411.82c-6.32.07-14.1-11-11.52-16.51.52-1.11,1.93-2.12,2.63-.69,1.84,3.74,5,2.08,7.73,2.45,2.46.32,5.36-1.24,7.25,1.64a.92.92,0,0,0,1.62.12c1-1.32,2.33-2.59,3.62-1.25,1.58,1.66,1,4.19.42,6.16C608,406.74,600.21,411.79,597.08,411.82Z" transform="translate(-1 -5.25)"/><path d="M747.25,411.94c-9.38.09-11.25-6.35-10.32-13,.08-.57.65-1.53,1-1.54,4.37-.07,9.24-1.6,12.94.53a10.57,10.57,0,0,0,6.71,1.7c3.37-.28,4,1.48,2.52,3.9C757,408.53,753.35,412.85,747.25,411.94Z" transform="translate(-1 -5.25)"/><path d="M639.45,366.66c.77,4.44-2.32,5.93-5.92,8.32-5.19,3.47-7,.4-9.47-2.73a8.87,8.87,0,0,0-2.28-2.56c-2.07-1.08-3.48-2.85-2.28-4.71s2.57-4.62,5.51-5a8.72,8.72,0,0,0,3.36-.7C634.47,356.08,639.36,359.16,639.45,366.66Z" transform="translate(-1 -5.25)"/><path d="M162.34,408.26c-3.63-.1-12-7.24-12.54-10.67-.41-2.66,1.78-4.18,4.59-2.83,1.76.84,2.55.94,4.76.2,4.5-1.5,9.75-.95,14.68-.88,1.55,0,1.6,1.88,1.48,3.23C174.92,401.44,166.66,408.38,162.34,408.26Z" transform="translate(-1 -5.25)"/><path d="M316.09,408.83c-5.29,0-9-3.43-9.23-7.92-.07-1.39.4-2.74-1.33-3.89-2.25-1.5-.92-3.32,1-3,5.62.94,11.26-.86,16.82.46,1.6.38,3.23.34,3.81,2.49.51,1.91-.3,2.72-1.79,3.49s-.65,2.49-1.25,3.56C322.24,407.36,319.49,409.36,316.09,408.83Z" transform="translate(-1 -5.25)"/><path d="M689.74,440.91c-3.41,1.27-5.6,4.59-9.63,1.68-1.45-1-4.36-.79-6.33-.22-4.43,1.28-7.49-1.84-10.75-3.34-2.58-1.18-1.92-5.45-.58-7.6s3.69-4.3,7.07-2.73c5.59,2.61,10,7.38,16.33,8.67C687.18,437.65,688.19,439.45,689.74,440.91Z" transform="translate(-1 -5.25)"/><path d="M709.28,368.1c.72-2.69-1.53-6.6,2.9-8,5.37-1.66,11.66.26,13.93,4.1s-1,5.87-2.92,7.47c-2.86,2.41-4.24,8.58-9.52,6A8.09,8.09,0,0,1,709.28,368.1Z" transform="translate(-1 -5.25)"/><path d="M493.24,374.7c-2.9.09-11.15-4.94-11.63-6.81-1-3.77,1.95-6.07,4.26-7.53,4.64-2.92,10.83-.51,14.53,3.41,3.17,3.36-.9,4.27-1.41,6.2C498.26,372.77,495.28,373.93,493.24,374.7Z" transform="translate(-1 -5.25)"/><path d="M471.07,400.54c-1.4,2.06-3,5-5.2,7.38-1,1-3,1.23-3.9,2.75a1.55,1.55,0,0,1-.79.58c-5.18,1.71-6.61-3.42-9.53-5.57-2.12-1.56-5.14-3.69-3.78-7.29.78-2.07,2.32-1.3,3.48-.12,2,2.06,3.95,2.23,5.84-.14.11-.13.23-.34.35-.34a119.24,119.24,0,0,0,12.24-.47C470.88,397.19,471.13,398.57,471.07,400.54Z" transform="translate(-1 -5.25)"/><path d="M568.19,360c1.71,0,9.12,5.43,9.55,7,.26,1-.43,1.42-1,2.08-1.86,2.33-4.47,3.84-5.42,7.25-.64,2.34-4.05,1.34-6.22.66s-5.31-8.25-4.67-11.23S564.94,360.07,568.19,360Z" transform="translate(-1 -5.25)"/><path d="M419.3,373.05c-.12-4.35,2.74-6.34,6.28-7.56s5.78,1.11,7.87,3.45a2.34,2.34,0,0,1,.67,1.77c-1.28,3.79-2.57,7.58-4.15,11.25-.39.91-1.88,1.37-3.11,1.16C424.15,382.67,419.3,376.14,419.3,373.05Z" transform="translate(-1 -5.25)"/><path d="M340.74,367.88c-.22-2.46.32-4.34,3.27-4.48a2.8,2.8,0,0,0,1.43-.33c1.55-1.14,2.16-4.61,4.77-3a26.77,26.77,0,0,1,7.35,6.8c1,1.36.87,3.45-1.48,5.35-4.42,3.59-7.56,6.27-12.3.17C341.85,369.9,340.76,370.74,340.74,367.88Z" transform="translate(-1 -5.25)"/><path d="M279.09,369.41c-.3-2.75,1.84-5.45,5.3-6.47,4.82-1.43,10.23.71,11.55,3.91.16.4.26,1.21.08,1.32-4.08,2.45-5.06,7.29-8.13,10.51-.63.65-1.53,1.38-2,.83C283.35,376.8,279.08,375.36,279.09,369.41Z" transform="translate(-1 -5.25)"/><path d="M789.11,372.1c0,6-3.49,9.23-8.85,8.62-2-.23-3.55-.78-3.41-3.25,0-.63,0-1.59-.37-1.86-3.63-2.54-3-5.5-.73-8.39,1.25-1.59,11-1.91,12.39-.59C789.84,368.23,788.88,370.38,789.11,372.1Z" transform="translate(-1 -5.25)"/><path d="M321.88,448.55c-.06,1.26-.07,2.43-.2,3.59-.09.84-.42,1.75-1.45,1.63a2,2,0,0,1-1.48-1c-.75-2-2.5-3.58-2.6-5.88,0-1.11-.59-1.95-1.84-1.87-1,.07-1.22.92-1.32,1.78-.16,1.41.25,3.25-2.1,3.17s-3.1-1.61-4.1-3.59c-1.68-3.33-1.53-7.55-4.79-10.07-.9-.69-.73-1.41-.18-2.12.85-1.08,2.1-.83,3.24-.81a2.42,2.42,0,0,1,2.54,1.95c1.39,5.2,1.37,5.15,5.62,1.48,1.76-1.51,2.79-.45,3,1.41.32,3.12-.71,6.79,4.68,6.68C322.83,444.81,321.67,447.3,321.88,448.55Z" transform="translate(-1 -5.25)"/><path d="M612.8,446.45c-3.38,1.14-5.54,4.08-9.26,4.44-3.13.31-4.16,6.05-9.37,2.74-2.83-1.79-7.76-.31-11.74-.24-2,0-4.32-.8-5.07,2.45-.4,1.72-2.16.87-3.42.54-1.82-.48-2.14-1.83-2.17-3.44,0-1.42.08-2.76,1.84-3a14.69,14.69,0,0,1,4-.1c10.37,1.68,19.95-1.21,29.49-4.73C608.76,444.53,611,444.24,612.8,446.45Z" transform="translate(-1 -5.25)"/><path d="M487.92,417.84c-.11,2.13-.69,3.61.49,4.61,3.36,2.86,3.77,4.86-.45,7.79-2.31,1.6-4.14,1.93-5.4.35s-2.68-4.29.69-5.73c1.47-.63,1.87-1.91,1-2.72-2.93-2.59-2.45-6.63-4.46-9.63-1.15-1.71-1.75-3.5-4.21-3.61-1.45-.06-3.07-1.11-2.11-2.47,1.13-1.6,1.93-4.13,4.21-4.31,1.76-.15,1.53,1.81,1.58,3.09.16,3.88,3.63,5.58,5.93,7.39S488.29,416,487.92,417.84Z" transform="translate(-1 -5.25)"/><path d="M364.18,374.61c-.13,2.75.57,6.09-4.1,5.44a1.84,1.84,0,0,0-.92.22c.6,6.33-7.22,4.71-8.86,9.46-1,2.76-4.23,4.77-6.6,7a1.8,1.8,0,0,1-2.69-.19c-.54-.73-.09-1.56.43-2.26,3-4.11,6.77-7.63,8.51-12.8.75-2.2,4.95-1.88,6.78-4.2,1.44-1.82,4-2.82,3.94-5.7,0-1.35.17-2.92,2.05-2.71,1.55.17,1.32,1.71,1.44,2.8A26.93,26.93,0,0,1,364.18,374.61Z" transform="translate(-1 -5.25)"/><path d="M136.77,367.28c-.11,4.12-3.21,8.18-6.24,8.17-2.23,0-8.6-6.22-8.42-8.21.15-1.77,5.72-6.18,7.79-6.17C133.4,361.08,136.85,364.2,136.77,367.28Z" transform="translate(-1 -5.25)"/><path d="M200.39,369.52c-.74,3.11-3.16,5.31-6.68,6.11-2.1.48-7.87-5.72-7.22-7.89,1-3.37,4.64-4.71,6.78-7.3C194.08,359.46,200.38,366.64,200.39,369.52Z" transform="translate(-1 -5.25)"/><path d="M761.48,413.63c-.91-3.25,2.17-9.39,5.95-11.34,4.68-2.43,10-4,9.78-11-.05-1.55,2.66-2.51,3.72-4.26,1-1.57,1.81-.24,2.16,1.07,1,3.64-2.19,10.88-5.73,12.62-6.27,3.09-10.84,8.28-16,12.77Z" transform="translate(-1 -5.25)"/><path d="M612.72,404.41c2.28,5.84,3.44,7.93-2.83,11.36s-11.53,3.91-17.61,3.79c-5.53-.12-10.13-7.31-7.6-12.17,1.26,5.06,3.17,9.12,8.87,9.74C602.72,418.13,609.26,414.9,612.72,404.41Z" transform="translate(-1 -5.25)"/><path d="M450.13,457.86a29.41,29.41,0,0,1-3.75-2.38c-3.11-2.69-6.21-5.05-10.68-5.14-2.56,0-4.56-1.26-5-4.52-.44-3.61,3.07-3.83,4.3-5.93a1.64,1.64,0,0,1,1.27.25c.5.5.23,1.08,0,1.76-1.2,3.48.28,5.55,3.81,5.53,5.46,0,11.45,6.38,9.87,10.56Z" transform="translate(-1 -5.25)"/><path d="M158.93,389.25c-1.77.19-3.39,0-3.91-2.1-.77-3.21,1.84-4.87,3.57-6.57a3.69,3.69,0,0,1,5.36.23c.77.89,1.3,1.84,2.59,2.1s3.07.11,2.82,2a4.15,4.15,0,0,1-3.48,3.79C163.6,389.07,161.25,389.08,158.93,389.25Z" transform="translate(-1 -5.25)"/><path d="M598.76,391.87a27.83,27.83,0,0,1-4.92-.05c-2.39-.44-3.4-4.1-1.75-5.84,2.51-2.65,11.73-2,13.55,1.18,1.13,2,1.28,4.34-1.95,4.78a36.82,36.82,0,0,1-4.93,0Z" transform="translate(-1 -5.25)"/><path d="M450,458c4.52,1.36,5.43,3.72,2.82,7.31-.29.4-.7.72-1,1.13-4.27,6.65-8.61,8.48-16.24,6.84-.94-.2-2.19-.09-2.12-1.48.06-1.15,1.1-1.55,2.1-1.75a12.9,12.9,0,0,1,2-.18c9.88-.42,12-2.41,12.56-12Z" transform="translate(-1 -5.25)"/><path d="M354.56,356.17c5.17-2,13.18,1.05,14.64,5.4,1,2.95-1.1,4.24-3.39,5.07s-4.74,1-4.95-2.11C360.58,360.28,357.1,358.86,354.56,356.17Z" transform="translate(-1 -5.25)"/><path d="M321.12,437.33c-.2-1.51-.47-3.19,1.32-3.84,1.47-.54,1.81,1,2.46,1.89,1.08,1.53,3.21,2.35,4.32,1.36,3-2.68,3.22.36,4.65,1.58,2.14,1.84,2.34,4.18.47,5.36-1.09.68-4.52-.52-5-2.55-.74-3.39-2.16-1-3.35-.85-1.58.25-1.64,3.6-3.79,2.18C320.55,441.34,321.28,439.11,321.12,437.33Z" transform="translate(-1 -5.25)"/><path d="M468,390.21a3.41,3.41,0,0,1-5,1.23c-1.78-1.11-2.57-1.47-4.45,0-1.35,1-4.15,1.22-4.94-1.35-.69-2.24.7-3.15,2.74-4.69,5.52-4.14,7.82-.55,10.58,3A18.92,18.92,0,0,1,468,390.21Z" transform="translate(-1 -5.25)"/><path d="M749,385.83c5.85,0,8.14,2.24,6.84,6.64-.7,2.37-2.53,3.06-4,1.48-1.59-1.75-3.19-2-5.2-1.94s-4.09.33-3.88-2.89c.19-2.9,1.67-3.65,4.23-3.3A14.53,14.53,0,0,0,749,385.83Z" transform="translate(-1 -5.25)"/><path d="M316.73,389.4c-2.3-.64-5.24,1.17-6.5-1.61-.88-2,1.66-2.56,2.67-3.73,2.13-2.46,5.14-2,7.33-.74,1.54.9,4.68,2.5,3.9,4.29C322.78,390.69,319.27,389.38,316.73,389.4Z" transform="translate(-1 -5.25)"/><path d="M590.2,428.35c-4,.16-7.92-2.67-12-.24-.56.34-1.73-.28-1.94-1.17-.26-1.11.9-1.19,1.54-1.55,3.84-2.11,7.6-5.67,11.92-.77.17.2.64.1,1,.19,1.42.43,4-.38,3.7,2.11S591.67,428,590.2,428.35Z" transform="translate(-1 -5.25)"/><path d="M731.35,411.49c-.76-.82-2.24-1.26-2-2.61.84-5.62-2.82-8.56-6.63-11.42-.75-.55-2.19-.85-1.3-2s1.73-.28,2.2.7c.7,1.46,2.32,1,3.41,1.73,5.45,3.47,6.71,7.39,4.29,13.72Z" transform="translate(-1 -5.25)"/><path d="M608.3,359.92c-6.73,1.43-13.55,1.14-20.35,1l.11.12c-.16-1-.27-2.42.86-2.53,6.48-.59,13.06-1.94,19.24,1.48Z" transform="translate(-1 -5.25)"/><path d="M302.89,410.62q-3.12-5.69-6.23-11.38a1.72,1.72,0,0,1,.12-2.27c.83-.8,1.53,0,2.24.26.45.19,1.12.45,1.21.81C301.33,402.17,304.85,405.66,302.89,410.62Z" transform="translate(-1 -5.25)"/><path d="M633.49,352.47c1.1.36,5.28-1.63,5.3,1s-4.1,1.09-6.36,1.2a12.71,12.71,0,0,0-5.25.94,1.93,1.93,0,0,1-2.59-1.64c-.28-1.67,1.11-1.78,2.3-1.76C628.7,352.19,630.51,352.33,633.49,352.47Z" transform="translate(-1 -5.25)"/><path d="M316,416.15c2.86-3.17,7.4-1.87,9.6-5a2.78,2.78,0,0,1,1.62.7c.52.58.05,1.25-.4,1.74C324.11,416.62,321,418.24,316,416.15Z" transform="translate(-1 -5.25)"/><path d="M489.12,394.26c-2,3.4-3.92,6.28-8.31,5.73a2.45,2.45,0,0,1-1.53-1,1,1,0,0,1,.67-1.55C483.3,397.53,485,393.27,489.12,394.26Z" transform="translate(-1 -5.25)"/><path d="M472.82,379.85c2.34-.12,3.83.68,3.82,3.3,0,1.66-.41,3.12-2.37,3-2.48-.19-3.74-1.91-4-4.25C470,379.91,471.49,379.91,472.82,379.85Z" transform="translate(-1 -5.25)"/><path d="M449.05,383c-.5,1.61-.56,3.95-3.44,3.45-1.33-.23-4-.39-3.23-1.86.91-1.79,1.86-4.66,4.78-4.62C448.8,380,449.22,381.28,449.05,383Z" transform="translate(-1 -5.25)"/><path d="M738.09,383c0,2.08-.17,3.85-2.86,3.51-1.41-.18-3.63,0-3.18-2a5.56,5.56,0,0,1,4.5-4.39C738.49,379.85,737.79,381.93,738.09,383Z" transform="translate(-1 -5.25)"/><path d="M764.89,386.82c.15,2-1.16,2.46-2.77,2.48a2.43,2.43,0,0,1-2.68-2.77c0-1.63.16-3.58,2.38-3.57S764.37,385.09,764.89,386.82Z" transform="translate(-1 -5.25)"/><path d="M178.93,378.49c-.35,2.09-1.82,2.24-3.38,2.05s-3.66-.23-2.94-2.22a5.87,5.87,0,0,1,4-3.06C178.22,375,178.23,377.35,178.93,378.49Z" transform="translate(-1 -5.25)"/><path d="M586.58,379.83c.72.05,2.66-.09,2.39,1.63-.36,2.28-2.61,3.88-4.5,4.46s-1.69-1.87-1.87-3.2C582.24,380.09,584,379.77,586.58,379.83Z" transform="translate(-1 -5.25)"/><path d="M614.24,385.59c-.36,1.06-.23,3.26-1.92,2.49-1.53-.7-4.05-1.27-4.06-3.66,0-1.95,1.79-2.05,3.28-2.08C613.69,382.29,614.34,383.61,614.24,385.59Z" transform="translate(-1 -5.25)"/><path d="M305.93,382.82c-1.54-2.29-2.84-4.26-.43-5.57,1.25-.68,4-.77,4.38.86C310.73,381.41,306.08,379.85,305.93,382.82Z" transform="translate(-1 -5.25)"/><path d="M731.28,411.56c3-1,4.33,2,6.55,2.94.76.32.74,2.49-.19,3.08-1.66,1.06-3.13-.25-4.18-1.42s-.12-3.66-2.08-4.69Z" transform="translate(-1 -5.25)"/><path d="M608.16,360c1.14.05,2.28.13,3.42.15,1.56,0,4-.33,3.58,1.84-.39,2-3,1.69-4.64,1.12-1.14-.4-4.84.14-2.22-3.18Z" transform="translate(-1 -5.25)"/><path d="M327.92,377.06c1.43.06,3.28.27,3.33,2,0,1.34-1.77,1.92-3.09,1.74s-3.44-.17-3.46-2.1S326.62,377.36,327.92,377.06Z" transform="translate(-1 -5.25)"/><path d="M146.7,380c0-1.53.11-3.05,2.25-2.8,1.11.13,2.66.66,2.13,2-.59,1.5-.23,4.07-2.62,4.16C146.28,383.44,146.9,381.38,146.7,380Z" transform="translate(-1 -5.25)"/><path d="M306,411.57l7,3.92C308,419,306.89,415.27,306,411.57Z" transform="translate(-1 -5.25)"/><path d="M459.61,419.69c-1.28-.17-3.29.18-3.09-1.53.22-2,2.37-1.13,3.71-1.2,1-.06,2.82-.5,2.8,1C463,420.11,460.9,419.42,459.61,419.69Z" transform="translate(-1 -5.25)"/><path d="M204,411.53c-1.66.12-2.32.16-3,.22-1.89.2-4.32,0-4.6-1.77a4.68,4.68,0,0,1,3-5c3.91-1.81,7.44-4.45,11.15-6.71,3.54-2.16,7.26-1.42,9.19,2.13,2.12,3.9-.68,6.33-3.44,8A22.45,22.45,0,0,1,204,411.53Z" transform="translate(-1 -5.25)"/><path d="M355.74,436.9c3.81,2.17,7.42-.8,11.29-.85,5-.07,7.51,2.67,9.75,6.14,1.34,2.06-3.62,7.5-7.06,7.32-6.1-.32-11.12-4.61-17.25-5.31-.56-.06-4.26-1.91-2.8-4.31A6.64,6.64,0,0,1,355.74,436.9Z" transform="translate(-1 -5.25)"/><path d="M536.55,462c-1.62-.43-4.57,1.21-4.56-2,0-2.55-1.64-5.72,3-7.18,4.1-1.29,7.55-4.51,11.31-6.83,2.34-1.45,4.67-2,6.07-.49,1.59,1.65.28,4.06-1.66,5.31-3.25,2.09-4.57,5.77-7.23,8.32C541.53,461,539.69,462.94,536.55,462Z" transform="translate(-1 -5.25)"/></g></g></svg>