<svg xmlns="http://www.w3.org/2000/svg" viewBox="0 0 842.31 880.48"><title>ny</title><g id="Layer_2" data-name="Layer 2"><g id="Layer_1-2" data-name="Layer 1"><path d="M178,1c1.34,2.64-.5,7-.93,6.89C173.42,6.83,176,3.32,175,1Z" transform="translate(-14.36 -1)"/><path d="M482.23,653.24c-.56,1.38-1.36,2.71-1.08,4.29.44,2.57,1.41,4.25,4.28,2.26.27-.19.52-.42.77-.63,1.73-1.42,4.31-3.11,5.62-1.1,1.54,2.35-2.89,1.79-3.38,4.23,1.64.69,7-.19,2.32,4.29-1.11,1.06,1.4,2.08,2.67,2.8,4.33,2.48,4.62,5.93.72,9.16a1.9,1.9,0,0,0-.73,2.15c1.88,7.11-.1,15,2.52,21.53,3.26,8.12,3.8,17.12,8.42,25,.05-4.12,3.52-4.2,5.67-5.56,1-.65,2.32-.6,3.42-1.67,2.2-2.15,4.27-1.23,5.26,1.46a49.46,49.46,0,0,1,1.65,6.74c.22,1-.61,2.71,1.21,2.68s2.62-1.58,2.29-3.21a16.28,16.28,0,0,0-2.51-6.45c-.48-.65-1-1.57-.17-2.23,1.15-.91,1.65.34,2.39.92,2.16,1.7.93,5.26,3.87,6.88,1.95-10.09-7.51-13.63-12-20.87,4.09.47,7.27.76,10.43,0a2.54,2.54,0,0,1,2.83,1.67c1.43,4.08,4.71,3.89,8.14,4.12,8.72.59,15.59,9.39,8.67,16.69-1.77,1.88-2.69,4.56-4.11,6.8-3,4.68-6.83,7.55-12.77,8a160.26,160.26,0,0,1-17.8.32c-10.25-.35-20.51,1-30.76-.8-9-1.52-17.31-3.54-21.63-12.87-3-6.5-9.94-7.24-15.55-9.88a1.65,1.65,0,0,0-2.17.73,1.52,1.52,0,0,0,.65,2.14c4.46,2.94,3.18,7.49,1.6,10.67-1.47,3-5.37,2.68-8.93,1.86-7.4-1.71-14.91-3-22.43-4-4.17-.58-8.12.76-12,2.61-3.46,1.66-.55,5.39-2.87,7.33C394.73,735,392,733.91,384,735.4c-6.05,1.13-12.12,1.75-18-1.24-2.19-1.11-3-2.54-2.62-4.72a35.77,35.77,0,0,0,0-10.93c-.51-4.29,1.6-7.69,4.7-10.53.94-.86,2.55-1.56,1.89-3.14-.53-1.27-2.08-1.66-3.36-1.76-2.48-.18-5.22-.77-7.44,0-5.7,2-11.17.48-16.68-.3a9.13,9.13,0,0,1-6.31-14.68c1-1.36,3.75-2.47,2.34-4.36-1.26-1.69-4-.76-6.13-1s-3.49,1.48-3.76,3.33a24.2,24.2,0,0,0,1.28,12.1c3.22,9,9.47,16.65,11.67,26.09.55,2.4,1.2,4.68-2,5.7-1.55.49-1.91,1.75-1.93,3.15-.06,5-3.49,5.6-7.21,5.11a58,58,0,0,0-8.43-.63c-11.55.13-17.48-4.49-19.95-15.83-1.36-6.24-4.2-11.91-6.18-17.9a12.87,12.87,0,0,1-1-3.78c0-2.68-.51-4.6-3.74-4.62-1.24,0-2.43-.72-2.33-2.11.12-1.56,1.57-1.48,2.72-1.44,2.41.07,4.75-.35,4.29-3.35s-3.17-1.66-4.91-1.61c-2.75.08-5.24,2-8.69,1.5,1.82-3.33,5-3.13,7.57-4,.89-.31,2.24-.16,2-1.56s-1.63-1.11-2.46-.95A93.41,93.41,0,0,1,269,683.27c-2.76-.09-4.55,1.94-5.31,5-2.4,9.7-5,19.36-11.68,27.25a13.08,13.08,0,0,1-3.16,3.1c-2.78,1.61-4.76,1.42-4.72-2.6a62.1,62.1,0,0,1,6-25c1.64-3.63,3.53-7.16,5.26-10.76.55-1.15,1.54-2.73-.65-3.08a42.56,42.56,0,0,0-9.27-.7c-2,.13-3.88,1.15-5.17-1.22s-2-5-.08-7.49a11.58,11.58,0,0,1,7.6-4.33c5.38-.91,11.17-7.72,11.24-12.87a2.7,2.7,0,0,0-2.87-2.83c-3.83-.18-4.2-2.54-3.86-5.49a63.86,63.86,0,0,1,1.12-8.9c.87-3.33-2.62-6.18-.68-9.47-7.41-3.47-.52-7.76-.56-11.63,0-1.7,1.54-3.44-.64-4.87-.38-.24-.86-.94-.75-1.2,2.16-5,.71-10.31,1.7-15.32.53-2.64,1.16-4.76.2-7.55-.74-2.14-3.5-4.87,1-7.41,2.67-1.52-2.18-2.82-2.37-5,.8-2.24,3.05.11,4.44-1.4-.58-2.67-3.36-1.86-5-2.82-1.42-.84-3.57-1.33-.58-3.17,2.49-1.52.41-2.27-.83-3-1-.59-2.27-1-2.24-2.41,0-1.62,1.41-1.55,2.56-1.73.48-.08,1.21-.14,1.37-.45,1-1.83,4-3.9,2.89-5.24-2.14-2.51-2.81,2.42-5.1,2-1.3-.69-.78-1.83-.13-2.42,3.6-3.19,3.26-8.65,6.88-11.81a1.45,1.45,0,0,0,.1-1.27,4.47,4.47,0,0,0-1.85-.5c-2.27-.16-3,2.35-5.43,3.45.61-3,.71-5-1.81-6.78s1.07-3.56,1.36-5.58c.56-4-1.45-8.63,1.58-12.05,2.18-2.46,1.53-6.84,5.8-7.87,1.71-.41.9-1.76-.13-2.6-.81-.66-1.68-1.44-.88-2.46s1.8-.18,2.75,0a15.39,15.39,0,0,0,3.93.49c1.76-.08,2.54-1.63,3-3s-1.11-1.69-2.07-2.28c-1.27-.78-4.07-.64-3.27-2.82s3.06-.89,4.83-.58c2,.35,3.88,2.25,6.2.81-.13-3-4.17-1.07-4.69-4.77,7.92,4.19,12.57-1.57,18.61-6.41-.55,3.87-3.34,4.47-4.32,6.36-.63,1.23-2.92,2.17-1.63,3.66s2.55-.21,3.75-1.08c1.64-1.18,3.16-2.79,6.09-2.88-2.25,2.91-4,5.36-6,7.67-.62.74-2,1.27-1.24,2.32s2.1.63,3.1-.09c3.25-2.32,6.47-4.68,9.73-7,.8-.56,1.7-1.15,2.95.05-2.17,2.49-6,3.4-7,7.09-.3,1.05-2.31,1.75-1,3.22,1.13,1.25,2.65,1.17,4.11.28,1.7-1,3.42-2.05,5.15-3.06,1.13-.66,2.27-1.5,3.63-.31-.19,3.21-6.93,2.55-4.48,6.9,1.4,2.48,3.84-.51,7-.23-3.19,4.58-8.55,6.23-11.68,11.68,6.83-2,11.33-7.33,18.88-6.65-6.12,5.74-14.58,7.14-18.8,14.14,6.16-2.91,11.75-7,19.19-9.22-2.51,4.86-7.64,4.38-10.61,7.42,2,2.07,4.29,1.21,6.15.81a78.08,78.08,0,0,1,16.31-1.94c3,0,4.21-1.21,4.11-4.17a20.12,20.12,0,0,1,.46-5.43c.61-2.45-.46-3.8-2.39-4.87-1.58-.89-3.07-2-4.59-2.9-8.58-5.33-5-13.37-4.11-20.2a377.89,377.89,0,0,1,7.3-39.07c3-12.24,4.64-24.8,8.82-36.76.51-1.46,1.86-3.3.39-4.66s-3,.61-4.47,1c-4.92,1.21-9.75,3.55-15,1.55-.93-.35-1.85-1.08-2.49.28a2,2,0,0,0,.57,2.69c3.26,2.27,3.55,5.08.5,7.3-3.32,2.42-5.88,0-8-2.53-.22-.25-.28-.68-.53-.84-2-1.26.2-6.39-4.27-5.13-3.53,1-8,8.42-7.51,11.25a31.47,31.47,0,0,1-.26,14.79c-.24.85.11,2.28-1.28,2.35s-1.85-1.35-2-2.43c-.76-4-1.37-8.06-2.07-12.37-3.22,1.1-2.73,3.9-3.4,5.89-1,3-1.25,6.3-3.54,8.67-1.1,1.14-1.79,3.87-4.18,2.42-1.78-1.07-.88-3-.46-4.58,1.69-6.43,3.48-12.84,5.15-19.28.4-1.54,1.32-3.05.74-5.07-2.93.48-4.72,2.93-7.27,3.92-3.73,1.47-6.18.39-7.47-3.26-.73-2.06-.59-3.88,2-4.75a54.31,54.31,0,0,0,4.92-2.39c3.75-1.65,4.79-3.85,1.78-7.2-1.71-1.91-2.31-4.19-.6-6.37s3.74-.38,5.34.43c6.27,3.17,11.79-.5,16.36-3.11,7.43-4.25,15.33-7.88,22-13.56,5.26-4.5,6.33-12,.81-15.72-4.6-3.11-5-6-2.78-10.77,5.28-11.3,6.26-23.7,7.43-35.86a29,29,0,0,1,8.11-18.19c1.86-1.93,3.83-3.66,3.33-6.81-.28-1.79,1-3.31,2.24-4.29,4.51-3.67,6.3-9.35,10.28-13.42,2.42-2.49,2.11-11.48-.4-14.07-3.34-3.46-5.16-7.74-7.25-11.87-1.19-2.36-1.71-5-4.8-5.91-1.15-.33-1.57-1.74-1.43-3,.34-2.88,1.46,0,2.22-.23s1.21-.55,1.11-1.31c-.94-7.1-.92-14.42-5.08-20.84.12,6,2.4,11.75,1.67,17.82-.43-8-6.43-15-3.75-23.54.67-2.13.41-3.4-2.3-2.31a8.16,8.16,0,0,1-2.88.61c-4,.12-7-.72-5.93-5.88a4.9,4.9,0,0,0-.57-4.1c-2.7,1.13-1.47,3.75-2,5.52-3.75,12.24-7.19,24.59-10.95,36.83-1.41,4.57.41,9.14-.73,13.79-.69,2.79,2.16-.48,2.3-.29-.49,16.09-7.12,29.59-11.65,43.74-1.53-3.48.25-6.58,1.12-9.72a10.22,10.22,0,0,0,0-6.73c-1.72-4.62.34-9.19,1.69-13.47,1.19-3.79,2.32-7.61,3.44-11.42.35-1.2,1.06-2.91-.56-3.43s-2.32,1.11-2.62,2.39c-1.37,5.79-2.43,11.67-4,17.41-1,3.61.32,8.79-6.41,9.81,1.27-6,2.61-11.69,1.29-18.86-1.84,3.91-3.19,6.76-4.54,9.62.87-6.91,3.44-13.21,6.18-19.41.39-.88,1.23-1.61.92-2.62-4.4-14.34-5.15-29.34-8-44-1-5.21-3.32-7.28-8.3-6.79-8.19.82-16.39,1.09-24.42-.86-4.11-1-7.54-1.38-10.48,2.46-1.08,1.4-3,1.06-4.56-.09-3-2.26-6.49-3.1-10-4.27s-4.34-1-4.28,2.81q.64,35.44.41,70.88c-.12,25.3,0,50.61-.38,75.91,0,.74.19,1.71-1,2-1.38-.94-.75-2.38-.75-3.58q0-73.24.05-146.49c0-2.94-.54-4.55-3.69-6-5.79-2.62-7.7-8.88-11-13.9-4.86-7.47-10.11-14.8-17-20.58-2.9-2.44-2.41.73-2.45,2.37,0,1.27.54,3.07-1.21,3.3-1.59.2-1.71-1.71-2.27-2.85a.87.87,0,0,1-.1-.49c2.31-11.23-7.24-14.44-13.79-18.3A86.55,86.55,0,0,0,111.48,129C103.36,130,95.8,133.53,88,136.12c-.76.25-1.62.73-1.49,1.72s1.24.81,2,1.12c4,1.71,9.26,1.19,12.26,3.34,5.38,3.85,11.33,2.94,16.89,4.4,8.17,2.15,16.76,2.17,25.2,2.11,7-.06,13.45.15,17.09,7.43,3.05,6.1,8.84,10.11,12.3,15.75,2.17,3.54,6.25,5.64,7,10.3.51,3.19-.59,3.94-3.26,3.92a41.27,41.27,0,0,1-6.49-.12,55.4,55.4,0,0,0-18-.05c-4,.61-8.37-1.37-12.62-1.84-9.89-1.1-19.44-3.41-29.07-5.88-4.34-1.12-5.66-3.07-8.24-5.52C97.8,169.22,92.8,167,88.45,164c-15.32-10.76-26.17-24.88-33.93-41.69-2.75-6-4.74-12.83-8.57-17.51-3.51-4.27-3.46-8.56-5.24-12.76-3.91-9.21-5.64-19.08-9.43-28.3-1-2.37-.67-5.26-1.05-8.82,2.85,2.45,3.81,6.46,8,4.9.61-.22,1,1.29.54,2-3.14,5.26.3,9.64,2.1,14,5.41,13.22,12.81,25.35,20.46,37.4,4,6.34,7.4,12.83,14,17.08,2.24,1.44,4.57,2.3,6.45,1.17,3.87-2.35,8.6-2.49,12.23-5.33,1.41-1.09,3.84-1.51,2.78-3.87a3.74,3.74,0,0,0-5.61-1.44c-3.75,3.09-6,.58-8.41-1.5-7.8-6.82-11.37-16.07-14.42-25.59-.28-.86-.69-2.11.47-2.63a2,2,0,0,1,2.53,1.12c3.16,6.45,9.09,10.86,12.51,17.07,1.55,2.8,4.06,2.56,6.49,2.69,3,.18,5.58.5,6.23,4.26.4,2.32,2.27,3.52,4.49,4.25,3.4,1.11,14.5-1.87,16.49-4.52.79-1,1.07-2,.08-3.11a1.54,1.54,0,0,0-2.56.17c-2.41,3.64-5.33,1.62-8.28,1.13-4.14-.67-6.4-1.5-8-6.68a49.83,49.83,0,0,0-7.8-14.18c-2.11-2.78-2.09-6.24-3-9.4-.26-.94-.72-2.56.8-3,1.35-.39,2.12.91,2.58,1.92,2.88,6.35,9.11,10,12.52,16,1.21,2.14,3.7,3.39,6.52,4.12,5.46,1.41,10.3,4.06,11,10.63.29,3,2,2.64,4.26,2.46,8.14-.67,16.42-2.12,24.42-1.22,7.82.89,16.25-.42,23.49,4.23,2.24,1.44,4.19-.09,5.87-1.47,2.16-1.77,3.4-2,3.69,1.38a11.35,11.35,0,0,0,9,10c2.17.35,2.77,2.27,4.33,3.11,6.78,3.66,11.71,9.7,16,15.51,2.66,3.58,8.08,4.31,8.72,9.57.67,5.43,5,9.26,7.36,13.91,2.71,5.28,5.19,10.78,8.24,15.91a12.21,12.21,0,0,1,1.32,3.1c.58,2.07,1.19,4.43,4.16,3.79,2.58-.56,4.69-1.71,4.54-5-.14-2.82-.06-5.66-.15-8.49s1-4.45,4-4.39c1.5,0,3-.2,4.49-.06,8.19.76,10.36-.91,10-9.22-.59-11.81,1.22-23.5,1.34-35.27.06-6.35-1-12.55-1.34-18.84-.16-3-1.56-4.92-5.11-4.57-3.14.32-6.32.12-9.48.32-3.84.23-5.87-1.61-6.37-5.28-.38-2.8-.59-5.62-.94-8.42-.92-7.44,2.45-9.76,10.59-8.58,5.67.83,11.52-.63,17.35.24,1.9.28,1.45-2.18,1.71-3.57s.71-2.85,2.39-2.59,1.12,1.75.95,2.85c-.57,4,.72,6,5.14,5.75,3.09-.16,5,2.48,5.67,4.89,1.26,4.73,5.56,7.41,7.12,12,.65,1.91,2.18,3.55,2,5.86a2.51,2.51,0,0,0,.45,1.87c9,7,12,17.9,17.27,27.27a16.07,16.07,0,0,0,2.6,2.95c.8.87,1.46,2,2.83,1.36s.29-1.76.44-2.65c1.39-8.26.49-16.62,1.1-24.92.42-5.71-.84-6.73-6.28-5.94-6.07.88-8.74-1.43-8.66-7.65.05-3.65.15-7.31.45-11,.14-1.66.67-3.36,3-3.11,11.73,1.25,23.57-.15,35.36,1.84,2.74.46,7.1,1,10.65-.76,2.68-1.35,5.79,1.43,5.93,4.51.27,5.78-1,11.67,1.1,17.34.61,1.65.14,3.19-1.35,3.83-2.09.91-2.42-.85-2.77-2.39-.47-2.08-1.34-2.24-3.56-1.58-7.35,2.19-7.54,2-7.09,9.86.49,8.8-.5,17.56-.62,26.34-.05,3,.48,4.89,4.32,5.17-1.51,1.57-3.27,2.27-3.79,4.07-.31,1.08-1.41,2.11-.36,3.2,1.6,1.66,1.69-.48,2.38-1.07,1.79,2.47,5.15.19,7.23,2.7,4.43,5.31,8,11.5,14.58,14.78,2.43,1.22,1.21,3.72.66,5.31s-2.72,1.05-4,.51a21.58,21.58,0,0,1-4-2.74c-1.8,1.91,2.65,3.85-.2,5.17-2.23,1-4.15-.81-5.84-2-4.37-3.16-6.82-7.78-9-13.82-1.67,4.89,3,8.18.71,11.91-2.29-.76-1.23-3.86-3.62-4.68-1.45,1.9-.95,4.17-.68,6.11.79,5.62-1.17,11.11-.43,16.74.21,1.61-1.55,2.84-3.51,2.76-3-.13-3.86,1.91-3.65,4.22.81,8.92-1.21,17.92.85,26.82,1.7,7.37,4,14.14,10.24,19.35,3.87,3.26,6.73,7.76,9.85,11.86,1.93,2.54,4.18,4.61,7.42,4.15,3.4-.48,5.53-2.78,6.21-6.3a8.33,8.33,0,0,1,1.24-3.25c3.49-4.86,7.94-9.29,6.27-16.18-.1-.43.63-1.06,1.1-1.79,2.68,1.7.2,4.53,1.82,6.58,3.72-2.5,4.62-6.55,5.47-10.22,2.83-12.32,4.54-25.07,1.64-37.34-1.65-7-1.34-13.89-2.54-20.74-.74-4.17-1.35-3.58-5.58-4.79-3.59-1-7.19,1.15-10.55-1.31a71,71,0,0,1-9.9-9.05c-1.09-1.16-2.89-2.88.78-3.73,3-.7.13-2.24-.1-3.33-.29-1.45-1.38-2.47,1.35-3,12.15-2.32,24.37-.79,36.55-1.23,3.74-.13,4.84,1.53,3.1,4.3-3,4.75-2.77,10.21-4,15.31-.57,2.33-2.17,3.14-3.29,4.64-.88,1.16-1.27,3.42.22,2.81,3.58-1.45,7.48.49,10.85-1.73,1.48-1,1.4-2.16,1.35-3.41a46.62,46.62,0,0,1,1-11.91c1.24-5.66-2.69-9.62-5.35-13.37a197.29,197.29,0,0,1-11.51-19c-2.12-3.8-4.94-7.1-6.87-11-.35-.7-1.39-1.83-1.57-1.73-5,2.61-4.92-2.24-6.69-4.42a3.86,3.86,0,0,0-4.83-1.37c-1.29.5-3.65.83-3.25-1.47,1-5.45-.77-11,.82-16.38.57-1.92,1.43-3.59,3.55-3.62,3.27,0,5.43-1,5.8-4.63a1.71,1.71,0,0,1,2.09-1.64c1,.24.73,1.28.9,2,.33,1.61.8,3.2,1.19,4.81.28,1.15,1.5,2.11,2.08,1.47,3.55-4,7.56-1,10.59,0,4.47,1.46,8.49-.35,12.68.16,3.06.37,6.4-.75,9,1.8a1.08,1.08,0,0,0,.94.2c8.25-4.32,4.58,2.9,5.08,5.51.71,3.61-.29,7.24-.87,10.86-.47,2.95-1.86,4.24-4.73,3.41-2.63-.77-5.89-1.82-7.11,1s.41,6.49,2.54,8.63a59.77,59.77,0,0,1,10.89,15c.62,1.19,1.08,2.57,2.62,2.77,2,.28,2.5-1.6,3.05-2.79,3-6.39,5.9-12.81,8.45-19.37,1-2.5,1.26-5.68-3.34-5-2.83.42-3.27-1.29-3.47-3.58-.5-5.57,1.07-10.89,2-16.28.5-3.07,3.66-2.68,5.65-2.58,2.46.12,6.49-.59,6.92-.19,4,3.71,7.45-.19,10.95,0,4.59.26,9.06,1.13,13.56-.45a2.32,2.32,0,0,1,1.87,0c4.27,3.46,6.55.49,8.85-2.62.66-.88,1.24-2.25,2.7-1.62,1.14.5,1,1.68.62,2.61-3.24,8.53-.75,17.4-1.59,26.07-.17,1.84.12,3.66-1.56,5-2.61-5.55-8-8.3-13.05-5.62-2.64,1.39-3.38,5.39-4.86,8.2-4.25,8.08-7.71,16.58-11.72,24.8-1.77,3.64-.92,4.55,3,4.45,8.58-.22,17.17-.07,26.92-.07-7,8-14.13,13.91-21.06,20-3.42,3-6.22,5.18-4.42,10.54,1.27,3.75.8,8.08,1.15,12.72,3.12-2.18,4.37-5,6-7.61,3.16-4.89,5.12-10.62,12.15-12.12,3.7-.79,5.7-8.19,4.17-12.15-.48-1.23-1.4-2.31-.83-3.75.37-.92.67-2,1.81-2.19,1.37-.24,1.7.93,1.82,1.86.41,3.14,1.18,2.42,3.73,1.36,4.73-2,6.3-6.56,9.57-9.67,2.9-2.75,5.14-6.05,9.69-6.14,1,0,1.51-1.08,2.09-1.95,2.07-3.09,3.92-6.62,8.66-5.85a1.69,1.69,0,0,0,1.35-.53c4.47-5.56,11.66-4.77,17.16-7.52,7.61-3.8,15.48-2.94,23.24-4.09,6.68-1,12.45,3,19,2.82,3.86-.12,7.31.82,7.9-4.64.35-3.13,3.34-4.35,5.83-4.68,7.12-.93,12.05-4.38,15.66-10.59,2.21-3.8,5.55-6.93,8.4-10.34.54-.65,1.2-1.28,2.12-.94,1.24.45,1.1,1.63.85,2.53a42.48,42.48,0,0,1-4.85,12c-2.32,3.61-4.74,7.16-7,10.84-2.75,4.55-9.89,7.35-15.06,5.52-1.37-.49-2.5-1.3-3,.72-.4,1.53.57,1.78,1.88,2.17,3.14,1,6.14,2.35,9.25,3.39,5.51,1.85,7.83,1,10.68-4.39.79-1.48,1.55-2.55,3.2-2.7,6-.53,9.78-4.68,12.86-8.94,2.22-3.07,5.18-5.32,7.39-8.36a59.31,59.31,0,0,0,4.54-8.29,20.83,20.83,0,0,1-1.44,12.48c-3.24,7-7.83,13.17-12.53,19.17-2.51,3.19-6.26,6.22-11.11,3.15-1.32-.83-2.49-.9-3.39.6-1,1.71-.19,2.9,1.23,3.73,3.33,1.93,6.45,4.09,8.68,7.32.78,1.12,2,1,3.15,1.1,3.94.21,11.22-4,12.9-7.67,2.3-5,7.78-7.71,9.35-13.28,2-7.06,8.14-11.6,11.21-18.09,5.55-11.71,13.28-22.35,17.37-34.81.07-.19.56-.24,1.17-.48,1.44,3.21,1,6.49-.1,9.49-2.78,7.83-5.34,15.8-9,23.23-5.51,11.28-10.13,23-17.15,33.59a122.43,122.43,0,0,0-6.67,11.52c-2.37,4.56-8,7.33-7.35,13.57a1.42,1.42,0,0,1-.91,1.06c-8.38,0-12.5,7.37-18.67,11.09-10.93,6.58-21.46,13.5-34.34,15.83-4.44.8-9.22,1.34-12.78,4.84-1,1-2.14.18-3.26-.15-4.29-1.3-8.54-.5-12.82.28-2.34.42-2.2,2.06-2.38,3.71C547.9,215.52,542.77,225,534,232.76c-9.39,8.31-15.9,7.76-22.87-2.81a4.46,4.46,0,0,0-1.09.68c-1.46,1.7-3,3.54-5.41,1.85s-2.18-4.13-1-6.28c2.73-4.79,4.54-9.95,6.49-15.06.35-.9,1.09-1.76-.16-3-4.23,5-6.31,11.12-9.61,16.52-8.62,14.13-12.76,30.58-22.89,43.91-.72.94-1.1,3-2.79,1.95-1.45-.93-1-2.74-.15-4.07a219,219,0,0,0,10.67-20.79c3.31-7,6.43-14.13,9.58-21.22a3.45,3.45,0,0,0,.06-3.71c-3.57,5-5.2,11.24-10.68,15.18.2-10.07,5.3-17.87,9.5-25.87,2.79-5.31,3.72-10-.26-15.25-2.82,2.27-4.85,5.57-8.25,7.4-1.57.85-1.19,3-1.27,4.61-.69,14.34-9.5,23.67-19.92,31.81a11,11,0,0,1-9.44,2.16c-2.39-.64-3.9-.1-4.48,2.44-.86,3.82-3.65,6.71-5,10.28-.33.86-.58,2.24-1.85,1.84s-1.47-1.68-1.17-2.94c.77-3.29,2.7-6,4.14-9,.64-1.32,2.83-3.89-.07-4.27-2.18-.28-5.27-4-7.49,1A86.32,86.32,0,0,1,426,260.37c-1.23,1.46-2.39,3.35-5,2.94-1.07-1.55,2.07-3.32-.8-5.23-1.38,4.46-4.11,8-5.36,12.72s-2.3,9.88-5,14.22c-.94,1.5-1.88,1.83-2.78-.17-1.24-2.76-1.41-2.31-3.18.2-4.15,5.89-.19,11.53-.65,17.21-2.38-1.8-3.15-4.61-4.42-7.08a12.28,12.28,0,0,0-4.38-5.28c-4-2.43-5.53-1.86-6.18,2.79-.55,3.92-.82,7.9-2.22,11.66-3.48,9.27-5.66,18.71-2.69,28.52,1.95,6.45,1.67,12.39-2.39,17.95-.28.39-.28,1-.53,1.39-.89,1.47-.46,4.09-2.89,4.19-1.93.07-2.28-2.19-3.38-3.36a16.39,16.39,0,0,1-2.08-3.39c-.64-1.16-1.73-2-2.84-1.44-4.32,2.28-4.6-1.14-5.06-3.66-.79-4.41-1.29-8.89-1.7-13.36-.21-2.31-.21-4.58-2.19-6.59-1.82,1.83-2.18,4.19-2.63,6.35-1.75,8.41-5.68,15.12-13.83,18.75-1.15.52-2.16,2-3.58,1.12-1.62-1-1-2.69-.74-4.1,1.27-7.1,1.87-14.15,0-21.28-.54-2-.92-4.22,1-6.08s3-4.34,1.91-7.26c-.19-.5-.71-2.22.52-1.59,3.35,1.73,2.27-1,2.51-2.22a65.32,65.32,0,0,0,1.66-9.83c.22-4.84,1.89-7.35,7.2-6.65,2.12.27,4.54-.73,2.63-3.5-2.67-3.9-4.14-8.34-6.15-12.51s-3.31-2.52-5-.14c-1.91,2.69-3.29,6-5.75,8-3.89,3.15-4.23,6.36-2.3,10.51.84,1.81,2.12,3.71,1,6.09-4.61-4.78-5-4.54-9.46.41-4.18,4.61-4.28,10.28-4.91,15.79-1.36,11.83-2.38,23.71-7.72,34.63-.81,1.67-.59,2.88.7,4a43.35,43.35,0,0,0,10,6.55c3.3,1.48,4.22.29,3.86-3-.22-2-.61-4.06.33-6.06a2.17,2.17,0,0,1,1.42,2.3c-.23,11.4,1.51,22.82-2,34.16-2.59,8.33,3.53,13.46,11.94,12,10.56-1.83,21.62-4.68,31.85.27,7.54,3.66,13.09,2.72,18.38-3.2a8.9,8.9,0,0,1,1.09-1c3-2.44,4-5.24,2.95-9.24A47.88,47.88,0,0,1,395.6,369a10.86,10.86,0,0,0-1.38-7.58c-2.84-4.93-5.89-10.7-5.41-15.84.73-7.61,1.6-15.48,4.09-22.95,0,5.31.31,10.81-1.16,15.78-2,6.66.08,12,3,17.55,1.23,2.37,2.46,2.46,4.22,1.06a60.58,60.58,0,0,0,12.45-12.82c3.7-5.3,3.59-10,1.29-16.08-3.25-8.65-8-16.8-9.66-26,2.12.09,2.72,1.74,3.23,3.31a223,223,0,0,0,10.82,26.24c2.13,4.54-.47,7.84-2.25,11.16-2.37,4.4-1.37,7.36,1.61,11.09,5.56,6.93,8.46,15.38,11.13,23.75,4.9,15.35,9.24,30.9,11.95,46.78,2,11.57,8.15,21.17,12.88,31.47a6.78,6.78,0,0,0,3.76,3.8c3.38,1.15,4.82,3.17,3,6.33s-4.79,2.33-7.56,1.45c-1.72-.55-2.57-4.16-4.6-2.41-1.76,1.51.64,3.91.93,6,1.15,8.3,4.72,16.27,3.52,24.91-.2,1.44-.16,3.34-1.77,3.88-2,.66-2.86-1.36-3.86-2.55-4-4.75-5-10.78-6.78-16.45-.46-1.45.08-3.47-2.66-4.06-1.35,6.76.82,13.14,1.54,19.59.08.65.45,1.27.55,1.92.21,1.53.28,3.26-1.38,3.91-2.07.81-2.41-1.21-3-2.47-3.48-7.35-4.47-15.27-5.26-23.22-.34-3.47.37-7-.66-10.43-.29-.94-.39-2.13-1.55-2.34s-1.69.76-2.38,1.51c-3.27,3.59-5.37,7-4.32,12.63,1.2,6.36.28,13.11.28,19.7-2.63,0-2.22-1.49-2.23-2.52-.06-6.16-.1-12.32,0-18.48,0-2.22-.17-3.51-3-4-4.31-.78-5.49-4.9-2.24-7.61,5.27-4.39,9.59-9.11,9.64-16.48a3.16,3.16,0,0,1,.63-1.86c6.55-8,1.91-15.42-1.8-22.25-9-16.59-16.63-33.66-21.16-52-.15-.63-.37-1.3-1.75-1.4-1.72,5.88-.06,11.66,1.06,17.35.82,4.14,1.34,7.83-2.46,10.84-1.86,1.47-1.22,3.64-.86,5.58,2.83,15.54,4,31.27,5.43,47,1.38,14.85,2.59,29.72,4.06,44.56.4,4.13-.35,7.41-4.61,8.76-4.48,1.42-5.38,4.46-5.3,8.77.17,9.7,2.66,19.06,3.94,28.58,1.84,13.63,5.4,27,6.08,40.81.05,1.11-.06,2.45,1.61,2.61-.62,1.85-1,3.5,1.6,4.25,2.35.66,4.63,1.61,6.93,2.47,1,.35,2.11.89,2.61-.24.65-1.46-.74-1.89-1.79-2.35-3.14-1.38-6.74-1.67-9.46-4,2.12-4.19,5.2-1.05,7.25-.39,4.34,1.41,7.75,5,12.43,6.14.49.12,6.86,3.13.43,5.55-1.72.65-1,1.86,0,2.68a3.43,3.43,0,0,0,3.73.72,5.68,5.68,0,0,0,3-4.29c2.28-9.89,1.34-20.59,7.33-29.56a8.21,8.21,0,0,0,1.27-5.26,6.82,6.82,0,0,1,3.06-6.49c5.45-3.1,3.07-6.81.36-9.21-4.25-3.76-5.55-8.58-6.82-13.54-.63-2.46-1.94-6.08.71-7.3,2.89-1.32,6.54-2.66,10.05-.44s5.42,5.32,7.09,8.8c.21.45.21,1,.41,1.44,1.37,3,2,7.27,4.39,8.65,2.08,1.22,4.2-3.53,7.44-4.75-.35,3.29-3.64,4.89-4,7.84,2.17.55,2.36-2,4-1.92-1,6.15-3.42,11.93-5.11,17.9a4.54,4.54,0,0,0-.12,1.43c.08,1.61,4.79-2.14,2.6,2.27a30.24,30.24,0,0,0-1.75,5.17,2,2,0,0,0,.88,2.34c2.51-1.67,1.18-5.78,4.29-7.21,1.25,2.59-1.76,4.43-.8,6.74.31.08.73.33.87.22,1.75-1.36,2.95-4.16,5.64-3.25,3,1,2,4.2,2.68,6.48,1,3.4-1.43,7.84,3.09,10.27.55.3.18,1.58-.5,2.21a1.8,1.8,0,0,1-2.29.25c-3.7-2.34-7-4.37-10,1.35-1,1.89-2.58,0-2.72-1.65-.3-3.7-.41-7.41-.61-11.39-3.25,1.36-.77,4.71-3.09,6.24-4.18-4.66,1-9.58-.26-14.78-3.11,2.26-2.71,7.38-7.29,7.61-.7,0-.37,1.47-.08,2.24.7,1.79,2.2,3.51.06,5.38a.79.79,0,0,0,.5,1.43c2.92.33,1.81,1.69.71,2.85-2.16,2.27-3,3.93-.52,7.09,3.31,4.21,2.45,5.69-2.67,7.54-3.18,1.15-6.46,3.81-10.16-.38,3.24-.59,4.82-1.59,1.84-4.44-1.45-1.39-1-2.12,1.93-3.79,1-.6.63-1.34.53-2-.18-1.22-.8-2.45-2.13-2.38-1.89.1-4.1,0-4.93,2.42a18,18,0,0,1-4.86,8c-2.42,2.18,2.92,2.69,1.46,5.55-.7,1.37,1.28,4.08-1.53,5.36-.67.3-1.15,1.26-.65,1.56,4,2.38.82,5,0,7.07-1.46,3.59-3.83,6.52-3.77,11,0,2.78-3,5.6-5.17,9.15,4-1.31,6.44-4.22,10.13-4.63,1,1.29-1.3,3,.13,4.45,1.83.39,2.23-1.78,4-2.25.05,3.06-2.44,5-3,7.55-.26,1.19-1.19,2.71.81,3.29s1.41-1.66,2.29-2.41c-.13,2.89.95,5.67-.24,8.56,3.17,0,2.61-3.44,4.83-4.18,1.32,2.29-1.91,3.63-1.23,5.74,5.15-3.15,14.26,0,17.47,6.26-2.48,0-3.9-2-5.84-2.64-.82-.27-1.84-.5-2.3.25-.74,1.2.42,1.72,1.26,2.19,2.1,1.17,4.56,1.89,5.74,4.37-1.83,1.26-2.63-.28-3.71-.82-1.41-.72-3.14-2.34-4.27-.3a5.12,5.12,0,0,0,.77,5.64c.67.82,1.67,1.11,2.43,0,.45-.67-.48-2.91,1.56-1.67a2.15,2.15,0,0,1,.21,3.49c-1.63,1.55-2.69,3.63-5.36,4.59,2.92,1.62,4.57-1.86,7.46.28-5.48,1.31-6.12,4.61-4.59,9.19,2.82,8.39,2.68,8.44,6.43,9.06.83-2.31-2.3-2.06-2.47-4.06,3.33-.24,4.22.68,5.16,4.38a95.24,95.24,0,0,1,2.8,21.93c.07,3.65,2.53,4.35,5.81,3.38s2.22,2.81,3.66,4.21c.68-.61,1.36-1.23,2.06-1.84.91-.8,1.3-2.66,3.06-1.85,1.38.64,1.38,2.07,1.53,3.44.2,1.83-.88,5.3,1,5.13,2.85-.25,2.69-4,2.32-6.18-.77-4.56-.08-9.69-5-13a8.33,8.33,0,0,1-2.93-6.16c.18-15.58-5.78-30.82-1.93-46.7,1.5-6.24,2.47-12.55,5.35-19.59.68,5.4-1.89,10.13,1.53,14Zm-58.35-437.1c-3.25,1.66-6.22,1-7.4-2.35-1.94-5.52-6.53-5.29-10.86-6-2.25-.37-2.59.75-3.54,2.74-4.61,9.66-1.52,22.38-11.77,29.79A4.88,4.88,0,0,0,389,243c-1.21,4.67-4.18,8.17-7.33,11.62-5.82,6.4-5.64,6.84-.37,13.77,2.21,2.91,3.8,3.35,6.09.31,1-1.34,2.4-3.79,4.25-1.73,3.3,3.66,4.41-.25,6.29-1.39,1.11-.67.34-3.07,2.65-3.07a7,7,0,0,1-2,6.52c-2.72,2.89-3.46,6.76-5.56,9.93-1.39,2.1-1.92,4.52,1.38,5.57,1.76.56,3.76,3.75,5.05,1.52,1.58-2.75,6.42-3.22,5.24-7.95-.61-2.44-.7-4.68,3-6.38,2-.88,7-3.77,5.94-7.33-1.26-4.13,1.24-6.24,2.55-9,.77-1.61,2.57-3.12,4.44-1.24,2.15,2.15,2.67.5,3.36-1.09,2.58-6,5-12,7.79-17.82,1.09-2.33,2-3.78-1.13-5.53a5.44,5.44,0,0,1-2.18-7.41c1.49-2.83,1.06-5.45.23-8.19-.35-1.14.12-3-1.85-3-1.49.05-2,1.55-2.55,2.76a16.13,16.13,0,0,0-.59,2.42Zm-61.32,263,1.39.09c-1.22,10.26,1.21,20.18,2.1,30.24.35,3.94,2.13,4.26,4.83,2.43a44.93,44.93,0,0,1,14.36-6.67c4.67-1.17,9.23-2.72,13.86-4.05,2.42-.7,4.51-1.73,4.06-4.73-1.59-10.72-1.69-21.54-2.47-32.31-.17-2.37-.26-5.87-4.65-4.47-1.4.44-1.59-.79-1.64-1.82-.1-2.14-.59-4.19-.21-6.42,1.31-7.69,5.41-15,2.7-23.28-1.95-6-.38-12.63-2.34-18.75-1.06-3.32-2.88-4.7-5.7-1.82-3.92,4-7.21,5.49-11.79.34-3.48-3.91-8.82-2.28-10.88,2.5-.92,2.14-1.71,4.33-2.59,6.49-.44,1.06-1.29,1.61-2.38,1.06-.93-.48-.69-1.36-.32-2.16,1.16-2.57,1.8-5.57,3.57-7.61,3-3.5.18-3.57-1.87-3.64-5.65-.21-11.35-.48-17,.5-5.39.95-9.69,3.54-11.49,9-1.24,3.78-2.17,7.66-3.17,11.51-5.31,20.42-8.36,41.3-12.64,61.93-2.15,10.36-1.05,13.57,5.87,16.51a18.65,18.65,0,0,0,7.21,1.77c7.46-.1,14,2.45,20.39,5.9,5.3,2.86,5.31,2.72,6.19-3.22C359.44,498.7,361,488.93,362.56,479.15ZM309.84,625c-1.33,5.58,3.18,6.12,5.52,7.94,4.13,3.2,14.24-.46,15.55-5.47,3-11.56,6-23.14,7.85-35,2.63-17.18,3.7-34.58,8.37-51.47,1.26-4.56,2.63-9.57.5-14.59-2-4.72-7.32-9.15-11.09-8.64-4.3.58-6.86,4.56-8.46,10.11-1.53,5.3-1.95,10.82-3.75,16A256.26,256.26,0,0,0,309.84,625Zm127-159.71c1.9,1.59,1.52,3.55,1.89,5.27.3,1.44.38,3.41,2.38,3.18s1.48-2.32,1.45-3.66c-.08-3.15-1.73-6.08-1.36-9.32s2.44-3.91,5.15-3.18c1.09.29,1.59,2.78,3.08,1.53s-.14-2.71-.59-4.06c-3.91-11.58-10.32-22.21-12.47-34.46a287.18,287.18,0,0,0-15.05-53c-2.12-5.57-6-9.83-9.46-14.43-1.16-1.53-2.48-1.41-3.92-.54-6.2,3.76-7.81,8.11-6.71,15.56,2.14,14.36,9.47,26.8,14.57,40,3.62,9.41,8.38,18.39,12.53,27.6.8,1.78,1.78,4-.07,5.6-4.91,4.2-3.68,10.83-6.52,15.83a3.16,3.16,0,0,0,.21,3.35c1.09,1.41,2,.1,3-.36,3.58-1.67,4.86.18,5.26,3.41.31,2.46.61,4.92.94,7.37.16,1.15.31,2.51,1.83,2.52s1.64-1.38,2-2.47C435.63,469.26,434.77,467,436.83,465.29Zm-57.3,112.16c1.4,15.85,2.84,31.71,6.15,47.3.63,2.94,1.16,6.25,3.76,8.54,1.6,1.41,3,3.77,5.34,2.82,2.06-.82,1-3.28,1.05-5,.09-18.83,0-37.66.13-56.48,0-1.91-1.14-4.73,2.38-5,3.1-.22,3.18-1.89,2.85-4.46-1.63-12.53-4.6-24.82-6.14-37.38a11.45,11.45,0,0,0-17.31-8.26c-3.5,2.25-6.82,5.54-5.11,10.27C378.22,545.27,377.38,561.56,379.53,577.45Zm-88.35-14.52c0-1.83,0-3.66,0-5.49,0-1.52.74-3.61-2.09-3.46-2.16.12-2.12,1.47-2.59,3.29-1.45,5.56-.1,11.17-1.16,16.79-2.25,11.86-4,23.87-2.1,36,.29,1.81.47,4.13,3.13,1.66,1.37-1.27,1.91-.45,2.39.9s.84,3.09,1.84,4c7.71,7.24,7.55,16.92,8.22,26.27a7.53,7.53,0,0,1-3.58,7.2c-2.31,1.52-4.08,3.86-6,5.89-.79.82-1.85,1.83-.74,3,2.88,3,7.18,1.41,10.67,2.86.89.38,3.57-2.93,4.3-5.83,1.47-5.81-1.68-11.71.63-17.31,3.44-8.34,3.29-17.21,3.94-25.9a313.22,313.22,0,0,1,11.37-62.58c1.11-3.94.56-5.55-3.72-5.76-8.58-.42-17.35-.21-24.93-5.42-.94-.65-2.46-1.2-3.15,0-.95,1.68.79,2.21,1.9,2.82.88.48,1.82.83,2.72,1.25,6.76,3.16,14,3.93,21.31,4.4,1.28.08,3.83-.34,2.87,1.93-1.22,2.88,1.09,7.88-4.68,8.36-1.4.12-1.29,2.35-2.24,3.09-6.22,4.81-7.9,11.41-9.06,18.82-.46,2.87-1.65,5.82-1.68,9,0,4.8.49,9.68-1.64,14.22-.4.86-.85,2-2,1.93-1.38-.07-1.26-1.34-1.38-2.26-.69-5.57-2.27-11.06-.56-16.8a13.46,13.46,0,0,0-.06-6.9A55.21,55.21,0,0,1,291.18,562.93ZM576.7,162.48c12.59-1.56,25.8-2.7,38.31-7.54,1-.38,1.91-.84,1.92-2,0-1.65-1.38-2.19-2.6-2.64-12.8-4.81-25.81-8.5-39.72-7.55-1.92.13-3.59.15-4.31,2.45-.33,1.09-.25,3.09-2.16,2.72-1.42-.27-1.09-1.89-1.15-3-.13-2.14-1.22-3.44-3.18-2.33-6,3.39-13,2.69-19.44,5.36-8.2,3.42-15.5,7.94-22.84,12.64A2.81,2.81,0,0,0,520,163c.19,6.65.27,13.39,3.41,19.46,1.7,3.28,4.34,3.95,7.24,1s3.57-6.65,4.37-10.38,2.39-7.2,6.48-7.91c2.26-.4,4.4-1,6.6-1.51,4.66-1.1,9.4-2.29,14.35-1.27,2.39.5,4.25-.54,4.69-3.25.14-.85.43-1.73,1.39-1.85s1.49.74,1.51,1.57C570.13,163.35,573.45,162.37,576.7,162.48ZM341.79,584.88c-.68,14.61-4.74,28.47-8.07,42.47a6.25,6.25,0,0,0-.29,3.4c1.29,4.28.51,8.52,0,12.82-.58,4.83-3.42,9-3.72,13.86-.19,3.18.15,4.65,4.18,4.67,7.69,0,13-7.12,14.05-13.41A87.92,87.92,0,0,0,349,634c.05-10.47,3.51-20.85.79-31.4a5.72,5.72,0,0,1,.08-2C351,590.62,350.6,589.8,341.79,584.88Zm-33-191.65c2,1.93,3.23,4.09,2.95,6.91-.51,5.14,3.35,4.71,6.33,4.52,8.69-.58,12.28-2.66,10.88-6.18-2.14-5.4-.09-10.07,1-15a48.41,48.41,0,0,0,1.2-8.36,6.18,6.18,0,0,0-4.48-6.48,2.63,2.63,0,0,0-3.41,1.23c-.6,1-.84,2.16.89,2.7,2.75.85,1,2-.1,2.49C314.51,379.59,306,386,296.51,390.6c-5.18,2.54-10.55,5.89-16.94,4.15-1.46-.4-3.11-2.57-4.31-.71s1,3.21,2.27,4.46a6.78,6.78,0,0,0,5.52,1.82c4.63-.37,9.17-.88,12.64,3.46.92,1.15,3.09,1.34,4.75.9,2.35-.62,2.69.34,2.85,2.47.24,3.07.18,6.54,4,7.87,1.05.36,2.18,1.42,3.23.48,1.27-1.14-.1-2.06-.66-3a6,6,0,0,1-1-5.15C310.23,402.71,310.73,398,308.8,393.23Zm-8.11,282.06,1.07.79c1.51-1.21,3-2.43,4.52-3.6,6.5-5,12.77-6.1,17.66-3.12,1,.62,1.93,2.38,3.38,1.24,1.14-.9.86-2.53.44-3.75-2.13-6.08-.58-11.77,1.65-17.4a32.35,32.35,0,0,0,2.4-12.14c0-3.26-1.17-4.62-4.12-2.63-5.54,3.75-10.71,3.67-15.9-.66-2.29-1.9-4.13-1-4.76,1.72-.88,3.82-2.4,7.68-.09,11.6.95,1.61.67,3.24.07,5.18C304.65,660,302.76,667.69,300.69,675.29ZM362,505.56a22,22,0,0,0-2,10.63c.06,1.82-.17,3.51-2.77,2.56-1.79-.65-4-2.19-4.64,1.12-.5,2.61-.71,5.36,2.74,6.53,7.25,2.45,10,11,7.72,18.16a29.08,29.08,0,0,0-1.34,14.71c.65,3.35.44,6.6,5.07,5.66,3-.62,6.09,2.81,9.75-.48-4-.89-7.37-1.56-10.68-2.4-.93-.24-2-1-1.63-2.16.41-1.38,1.53-.68,2.44-.47,2.7.61,5.4,1.18,8.26,1.8,1.69-14.13-5-26.79-6.23-40.27a1.59,1.59,0,0,0-.78-1.18c-4.46-1.21-2.85-5.34-3.91-8.15C363.25,509.86,364.07,507.65,362,505.56Zm76.4,161.87c-2.35.37-2.4,2.43-4.42,2.83-3.43.68-3.72,3.49-1.1,6,1.44,1.38.78,3.12.69,4.7-.08,1.39-1,2-2.46,1.51-2.48-.76-3.17,1.31-3,2.77.37,3.85-1.77,6.82-3.4,9.69-1.91,3.39-2,6.79-2.6,10.38-.75,4.84,4.12,7.13,4.2,11.41,0,.72,1.21,1.23,2.06.88,1-.42,1.06-1.53,1.38-2.48.55-1.62-1.53-4.86,1.79-4.63,2.76.2,1.91,3.33,2.17,5.37.05.38.58.69,1.06,1.23,4.85-5,6.42-10.56,4.15-17.12a47.08,47.08,0,0,1-2.4-13.64C436.2,680,438.14,674,438.36,667.43ZM409.76,643c-.4-2.46-.67-5-1.23-7.37-.31-1.32-1-2.47-2.87-1.64-3.64,1.64-5.79,6.69-5.73,11,.07,4.59,3.8,9.41-.49,13.85a1.3,1.3,0,0,0-.22,1c.72,5.56.24,11.1-.23,16.66-.22,2.63,5.49,9,8,9.48,2.22.41,3.38-.8,4.24-2.64,2.08-4.52.11-8.13-2.71-11.37-1.6-1.84-2.31-2.67.36-4.46,3.37-2.26,4.16-8.76,1.21-10-4.64-2-2.22-4.55-1.72-7.07S409.92,645.61,409.76,643Zm-124.88,9.93c-1.88-3.3-2.69-7.75-7.21-9.07-3.63-1.06-7.37-1.74-11.08-2.45-1.42-.27-2.89.18-2.79,2,.23,4-2.21,6.87-4.08,9.94-1.25,2-.76,2.83,1.35,3.54,5.64,1.87,11.55,2.95,16.93,5.63.88.45,1.25.24,1.85-.69,1.65-2.53-.36-7.44,4.88-7.68A7.9,7.9,0,0,0,284.88,652.94ZM326,692.58c0-6-3.59-12.29-7.28-11.94-8.07.76-15.33,3.41-14.17,13.81.35,3.11,1.57,4.76,5,4.86,4.26.13,8.17-1.44,12.28-1.89C325.08,697.05,326.63,695.55,326,692.58Zm48.6-424.23-3.71,2.57c-6.41,4.41-8.36,4.09-13.14-2.2-1.72-2.27-3.22-4.72-5.9-6.85-.23,1.23-.37,1.84-.46,2.46-1.24,8.89,3.92,15.83,7.29,23.25,1.35,3,5.75,2.51,7.69-.68,2.15-3.54,4-7.3,5.82-11C373.28,273.62,375.61,271.71,374.55,268.35Zm13.46,17a7.72,7.72,0,0,0-2.12-5.48,44.79,44.79,0,0,1-5.43-6.42c-2.24-3.41-3.28-2-4.63.64-1.95,3.83-4.19,7.52-6.2,11.32-.7,1.33-2.82,2.61-1.13,4.29a4.74,4.74,0,0,0,5.52,1,22.11,22.11,0,0,0,2.33-.82c2.92-1.77,4.41-1.57,4.68,2.4.23,3.43,1.61,6.75,1.21,10.3-.1.83.27,1.78,1.31,1.63.42-.06,1-.87,1.07-1.42C385.8,296.94,386.9,291.1,388,285.33Zm12.72,289.3c.24,7.25.39,14.29.29,21.3,0,3.9-.8,7.77-.37,11.82.71,6.56-.09,13.27-.26,19.92-.05,1.72-1.36,4.41.61,4.85,2.32.52,3.38-2,3.71-4.28a14.8,14.8,0,0,0,.06-2c.26-15.94-.39-31.86-1.55-47.75C403.11,577,403.21,575.43,400.73,574.63ZM395.67,649c2.11-5.1-1.05-8.26-5.77-10.53-1.46-.7-2.18-3.79-4.21-2.13s-.05,3.64.66,5.42c.53,1.36,1.61,1.89,2.94,2.39,2.76,1,3.76,2.72.4,4.17-2.47,1.07-2.54,2.74-2.23,4.82s1.06,3.82.63,5.89c-.58,2.76.7,2.6,2.77,1.79C396.28,658.71,396.29,654.33,395.67,649ZM283.89,636.11a7,7,0,0,0-2.69-3.66c-1.42-1.05-2.3.67-3.25,1.45-1.49,1.21-2.62,1.63-2.9-.93-.06-.6-.22-1.54-1.12-1.24-1.95.64-3.67,1.86-4.09,3.92-.38,1.86-.72,4.09,2.22,4.58,2.11.36,4.45.37,6.26,1.34C283.38,644.28,283.54,640.88,283.89,636.11ZM247.6,710.94c4.64-9.08,11.19-17.48,11.13-28.51C253.63,691.34,247.6,699.85,247.6,710.94Zm148.18-45.26c-.22-.89.74-2.84-1.63-3-1.46-.11-11.44,7-11.86,8.35s-.64,2.7.45,3.72,2.25.23,3.24-.22c2.24-1,4.28-2.61,6.6-3.29C395.48,670.4,396.12,668.64,395.78,665.68Zm-7.64,19.82c-2.45-.45-4.06.35-4.56,3.07s.75,4,3.18,4.61a21.29,21.29,0,0,0,4.31,1c1.55.05,3.69,2.44,4.59-.4.73-2.32.73-5-1.88-6.59A9.34,9.34,0,0,0,388.14,685.5ZM392.22,233c3-.93,2.81-2.94,3.2-4.64,1.14-5,2.39-10,3.41-15,.32-1.57,2.33-3.93-.06-4.69-1.82-.58-3.1,2.06-4,3.73a4,4,0,0,0-.13,2.88c.88,2.74.17,5.22-.84,7.71C392.49,226.12,392.39,229.37,392.22,233ZM382,711c-1.77-.21-2.93-.57-3.54.38-.89,1.38.59,2.07,1.28,2.84,2.54,2.81,6.27,3.36,9.59,4.61a2.77,2.77,0,0,0,3.57-1.9c.53-1.81-.89-2.76-2.24-3.38C387.64,712.2,384.57,711,382,711Zm76.18-167.76c.24-2.5-1.47-4.41-3.14-6.15-2.07-2.13-3.75-1.15-4.1,1.42-.52,3.79.95,7.19,3.35,10.05,1.24,1.48,3.17,1.22,4.55.24,1.62-1.16,0-1.87-.78-2.59C457.08,545.35,457.58,544.45,458.16,543.27ZM280.59,522a6.09,6.09,0,0,0,1.17-.84c2.95-3.46,6.83-5.72,10.52-8.23,1.34-.91,3.39-1.81,2-3.77s-3.4-1.12-4.76.28c-3.31,3.41-6.47,7-9.67,10.49-.44.48-.83,1.1-.18,1.7A2.77,2.77,0,0,0,280.59,522ZM319.8,706.17c-5.39,1.22-6.1,4.26-3.58,8.89,1.07,2,1.45,2.22,3,1.1s2.39-3.44.64-4C314.63,710.32,318.5,708.28,319.8,706.17ZM399,695c-.21,2.79.1,5.52,2.65,6.13,2.3.55,1.37-2,1.5-3.22.26-2.46-.69-5.2-2.72-5.84S399.32,694.15,399,695Zm-23.49-124c-3.12-3.14-7.08-3.46-11-3.87-.87-.09-1.75.19-1.84,1.21a1.15,1.15,0,0,0,1.24,1.24C367.92,569.24,371.52,571.51,375.52,571.06ZM315,704.59c-2.32-1.11-4.61.34-6.82-.31a1.56,1.56,0,0,0-2.22,1.26,2.86,2.86,0,0,0,.77,2.72,1.89,1.89,0,0,0,2.66.31C311.11,707.14,313.59,706.73,315,704.59Zm173.54-26.91a10,10,0,0,1,4.94-3.39.93.93,0,0,0,.25-1.59c-1.72-.79-3.57-2.39-5.47-1.26C485.11,673.29,489,675.43,488.52,677.68ZM287.65,408.79c-2.25.89-4.19,2.25-4.32,5.12,0,1,.6,2.33,1.69,1.7a11.68,11.68,0,0,0,4.46-5.64C289.93,408.94,288.63,408.92,287.65,408.79Zm99.3,294c2.58-.32,5.39,1.49,7.53-.81.59-.64-.37-1.46-1.11-1.87C390.33,698.39,388.53,700.25,387,702.74Zm3.38,5.8c-.45-1.87-1.91-2.13-3.06-2.61-1.54-.64-4-1.24-4.42.41-.6,2.63,2.17,1.44,3.49,1.72S388.68,709.55,390.33,708.54Zm90.87-2.06a8.31,8.31,0,0,0,4.49-3.35c.77-1.17-.66-1.54-1.64-1.56-2.21-.05-3.8.89-4.26,3.17C479.62,705.63,480.09,706.3,481.2,706.48ZM282.8,510.92a3.71,3.71,0,0,0,3.33-3.07c.24-1.12-.22-2-1.5-2-2,0-3,1.3-3.42,3C280.9,510,281.48,510.74,282.8,510.92Z" transform="translate(-14.36 -1)"/><path d="M507.23,548c-.78,2.18,2.44,3.11,1.76,5.31-1.34,1.12-1.83-1.53-2.87-.76-1.35,1-.06,2.07.24,3.08.75,2.43,1.55,4.84,2.49,7.74C502.47,559.22,502,552,505,543.81c1.15-3.11,2.28-6.25,3.66-9.27a11.13,11.13,0,0,0,.52-9.11,6.27,6.27,0,0,1,1.8-7.28,4.86,4.86,0,0,0,1.11-6.34,9.33,9.33,0,0,1-.83-2.34c-.95-4.49-2.55-6.61-6.7-8.68-3.54-1.77-6-3.86-2.38-8,1.88,1.15-.6,3.06.85,4.22,1.32.24,2.35-5.72,3.95-.27,1.67-1.78,4.56-1.75,5.93-4a10,10,0,0,1,7.76-4.92c5.67-.51,4.13-3.22,2.31-6.24-4.37-7.27-8.51-14.67-11.27-22.72-2.86-8.35-4.29-17.08-6.48-25.61-3.68-14.33-3.84-28.9-3.45-43.49.55-20.52,4.71-40.42,11.08-59.9A214.1,214.1,0,0,1,542.54,272a242.4,242.4,0,0,1,25.66-30.32,204.79,204.79,0,0,1,47-34.86c11.06-6.07,22.31-11.91,35-14a4,4,0,0,0,3.09-2.19c8.15-14.95,16.43-29.83,23.63-45.26,3.07-6.58,5.33-13.55,8-20.34.4-1,.38-2.35,1.81-2.75,1.39.41,1.06,1.56.89,2.45-3.78,19.77-7.59,39.52-14.43,58.54-1.67,4.62-1.36,4.66,3.78,4.21,43.13-3.76,80.78,7.82,110.54,40.41,13.83,15.14,23.48,32.82,30.13,52.28,5.38,15.75,8.21,31.79,9.55,48.38a191.22,191.22,0,0,1-6.8,68.41c-10.27,35.87-28.23,67.69-54.3,94.59-14.93,15.41-32.41,27.48-51.25,37.71a166.44,166.44,0,0,1-66.07,19.46c-32.09,2.68-62.18-4.2-88.3-24.4-3.43-2.65-7-5.07-9.91-8.33-1.13-1.27-2.77-2.79-1.33-4.22s2.48.86,3.37,1.71c18.88,18,41.61,28.19,67.17,31.22,29,3.44,57-1.72,83.56-14.08a200.17,200.17,0,0,0,53.18-35.65c20.26-19,35.73-41.49,47.78-66.44,1.31-2.72-.06-3.61-2.18-4.37-13.13-4.76-26.23-9.57-39.4-14.22-3.59-1.27-6.82-3.51-10.71-4-.91-.11-2-.91-2.57.44a2.16,2.16,0,0,0,.58,2.29,19.6,19.6,0,0,0,2.91,3.4c11,8.36,9.91,22.42-2.52,28.7a32.85,32.85,0,0,0-16.53,17.71c-3.41,8.59-8.2,13.21-20.89,10.85-5.09-.95-9.3-.24-12.1,5.18-2.57,5-8.29,6.5-12.88,9-5.22,2.88-10.79,5.09-15.27,9.21-1.67,1.54-3.7,1.14-5.64.28-1.41-.62-3.65-1.31-4.16,0-2.89,7.36-9.63,3.89-14.5,5.19-4.71,1.26-10.07.32-12.71,5.92-.31.66-1.37,1.52-1.93,1.42-5.82-1-8.62,3.64-12.33,6.47s-7,5.88-4.09,11.2c1.12,2-.58,2.72-1.89,3.29s-3,.81-3.61-1.26c-1.77-6.16-4.21-12.28,2.36-17.49A12.35,12.35,0,0,0,619,497.15c-.14-3,1.92-4.93,3.67-6.84a329.06,329.06,0,0,0,27.48-34.83c3.77-5.46,6.75-11.46,6.2-18.54-.26-3.29-.94-6.6-3.62-8.47-6.61-4.61-6.75-11-5.2-17.67,1.47-6.34.13-11.81-3.26-17.09-4-6.27-2.87-9.12,4.18-11,2.45-.66,3-1.95,3.18-4.92.46-8.24-4.07-10.61-10.82-13.06-29.22-10.6-58.23-21.8-87.31-32.79l-1.88-.7c-1.42-.54-3.18-1.14-2.45-3,.82-2.14,2.47-.83,3.78-.33,16,6,32.05,12.09,48.09,18.09q25.69,9.6,51.4,19.13c6.32,2.35,10.56.25,12.69-6.06,1.2-3.56,1.83-7.46,5.45-9.78,1.63-1,.79-2.75.23-4.09a4.52,4.52,0,0,0-4.14-3.06c-2-.13-4.74,1.31-5.84-1.35-2-4.84-9.2-6.57-7.69-13.58,1.12-5.19-.1-9-6.76-9.16-5.38-.1-7.18-4.25-7.42-8.87-.26-5-2.9-6.47-7.5-6.43a14.71,14.71,0,0,1-14-18.88,23.91,23.91,0,0,0,.41-13.72c-1.11-4-.55-8.27,0-12.41.18-1.29.77-3-1.16-3.19-1.52-.18-1.34,1.47-1.74,2.52-1.65,4.37-.43,9.17-2.1,14.45-2.76-5.4-3.23-10.62-3.27-15.4,0-4.39-1.5-4.59-4.71-4.23a10.13,10.13,0,0,1-2.24-.34c3-3,5.35-6.13,8.37-8.41a13,13,0,0,0,5.2-7.59c.93-3.8,3.9-6.09,6.47-8.68,1.93-2,4.42-3.5,3.58-7.06-.3-1.23.4-3.58,2.15-3.31,2.31.36-.42,2.58,1.24,4.2,2.93-2.86,5.91-5.78,8.88-8.7.12-.11.28-.26.29-.4.12-4.82,1.56-8.83,5.62-12,1.36-1.06-.72-1.83-1.81-1.44-3.59,1.31-7.1,2.84-10.66,4.23-2.63,1,0,3.88-2.2,5.41-2.2-4-5-2.56-8-.8-3.74,2.17-7.65,4-11.47,6.06-2.87,1.53-7.19,2-4.17,7.32.94,1.63-1.85,2.33-3.23,3.07-2.7,1.44-5.31,2.78-5.21,6.55.09,3.26-2.6,4.49-5,4.4-3-.11-2.39-2.43-1.46-4.48a1.3,1.3,0,0,0-1-1.88,3.28,3.28,0,0,0-3.28.58c-6.5,6-13.41,11.51-19.43,17.92A237.52,237.52,0,0,0,530,298.38c-2.33,4.41-4.5,8.91-7,13.25-1.48,2.61-1.37,4.26,1.75,5.23,1.42.44,2.66,1.47,4.08,1.83,1.68.44,3.06,1.3,2.51,2.94s-2.31.86-3.52.48-2.37-1.24-3.63-1.64c-2.78-.87-4.63-.8-5.9,2.85C512.66,339.5,508.15,356,506.24,373c-1.22,10.84-3.3,21.8-2,32.77a355.63,355.63,0,0,0,6.9,38.56c4.59,19.62,14.51,36.24,26.2,52.13.39.53,1.08,1.16,1,1.65-.26,1.58,2.25,3.39.33,4.4-1.69.91-2.81-1.25-3.77-2.55-1.87-2.54-3.63-5.16-5.44-7.75-.56-.79-.88-2-2.06-1.93s-.85,1.58-1.31,2.35c-5,8.27-3.64,17.3-3.27,26.22.26,6.36.08,12.67-2.43,18.68-.49,1.2-.51,2.88-2.42,2.46-1.55-.35-1.75-1.75-1.92-3.14-.21-1.78,1.17-4.39-1.87-4.89s-3.12,2.36-4,4.2c-1.37,2.88-2.83,5.7-.53,8.89.9,1.25,2.8,2.83,1.39,4.36C509.35,551.27,509.25,546.84,507.23,548ZM821.13,311c-.18-1.48-.24-3-.55-4.45a253,253,0,0,0-8-27.21c-7.12-21.06-18.22-39.67-34.05-55a112.55,112.55,0,0,0-38.09-24.16c-1.91-.74-4.06-1.68-5.59,0-1.77,2-.13,3.6,1.37,5.07.86.86,1.36,2,.28,3.08-.86.82-1.86.27-2.78-.11-4-1.66-6.45-5.85-5.62-9.74.16-.79.82-1.52,0-2.21s-2.52-.7-2.75-.14c-2,4.63-7.78,3.59-10.37,7.36-1.33,1.94-3.68,3.23-4.57-.46-.68-2.82-2.13-2.48-4-1.72a24.82,24.82,0,0,0-4.12,1.77c-1.53,1-4.35.58-4.32,3.4,0,2.32,2.29,2.61,3.75,3.58,4.25,2.86,9.27,5.14,8.22,11.76a1.68,1.68,0,0,0,1.61,2.09c.86.07,2.1-.11,2.06-.92-.23-4.75,5-6.76,5.36-11.43.34-3.91,3.81-5,7.51-3.73,4.09,1.43,4.57,8.14,10.39,7,.24,0,.71,1,1.06,1.61a8,8,0,0,0,4.77,3.38,20.94,20.94,0,0,1,5.12,1.91c3,1.91,6.15,4.65,4.8,8.29-1.44,3.89-5.2,3-8.61,1.79-2.3-.84-4.63-1.8-7.24-1.66s-5.09-.19-6.71,2.29a1.85,1.85,0,0,0,.31,2.32c2.16,2.16,4.26.3,6.46-.09,6.25-1.1.11,7.4,5.56,7.47.58,0-.27,2.3-1.58,3a6.3,6.3,0,0,1-7-.27,37.52,37.52,0,0,0-6.47-3.72c-3.56-1.53-5.63-.18-5.25,3.74.34,3.53.3,6.38-4.34,6.58-1.17.05-1.81,1.38-2.34,2.43-.67,1.36-1.66,2.06-3.22,1.63-2.86-.78-4,1.05-4.65,3.26-.78,2.79-2.67,3.84-5.27,4.63-4.64,1.41-9,3.4-12.15,7.42-2.43,3.11-1.46,6.68-1.85,10.09-.25,2.19-1,5-3.45,4.65s-3.33-3-2.73-5.61c.26-1.12,1-2.15,1.17-3.27.29-1.49,0-4.08-1.23-3.82-4.54,1-7.62-1.52-11.08-3.41a2.39,2.39,0,0,0-2.73.82c-2.59,3.17-4.52,1.63-7-.41-5.14-4.22-10.32-3.31-14,2.11-3.34,5-6.6,10-9.88,15a5.53,5.53,0,0,0-.17,5.7c3.41,7.44,8.73,8.22,16.08,2.28,1.28-1,2.58-2.74,4.24-1.23a4.21,4.21,0,0,1,1.09,5.43,25.4,25.4,0,0,1-2.35,3.21c-3.58,4.46-3.11,6.35,2.13,8.46s6.73,6.5,3.26,10.83c-2.56,3.2-2.22,5.83-.42,9.06s2.43,7.44,7.7,6.92c.84-.08,1.94,1.16,2.7,2,4.41,4.77,4.39,4.79,9.19.11,5.14-5,8.93-5.33,15-1.31,6.67,4.39,13.3,8.87,20.64,12.14,3.42,1.52,5.41,4.25,6.7,7.65.87,2.33,1.91,4.6,2.84,6.91a3.83,3.83,0,0,0,3.8,2.65c8.89.26,12.88,12.58,10,19-3.09,6.85-2.21,9,5.08,11.8,19.05,7.23,38.22,14.15,57.23,21.51,4.38,1.69,6.1.11,7.31-3.61,2.67-8.21,5.14-16.48,8.1-24.58,2-5.4-.41-10.26-2.66-14.13a20.71,20.71,0,0,1-3.08-10.06c-.29-7.26.8-14.22,4.26-20.73a25.06,25.06,0,0,0,2.83-12.48c-.13-6.88-1.81-13.95,2.11-20.47C821.34,313.23,821.06,312,821.13,311ZM693.37,224a7.84,7.84,0,0,0-6,2.23A2.57,2.57,0,0,0,687,228c0,.23.83.69,1.1.59,1.94-.77,4.36-1.51,5.21.74s-2.12,3.36-3.19,5.1c-.25.41-.77.65-1.05,1-.93,1.35-1.42,3.07.16,3.92,1.82,1,2-1.14,2.46-2.19.81-1.69,1.54-3.44,3.76-3.45,1.92,0,3,1.17,3.39,3,.44,2,1.68,2.3,3.31,1.39s2.54-3.42,1.42-4.12c-3.29-2-4.48-5.09-5.86-8.33C697.05,224.26,695,223.83,693.37,224Zm7.13-26.45c2.19-.73,4.43-1.65,4.57-4.4.1-1.94-1.61-2.28-3.15-2.2a3.84,3.84,0,0,0-4,3.63A2.41,2.41,0,0,0,700.5,197.5Zm-1.78,43.66c-1.63,0-3.48-.11-3.94,2-.35,1.57,1,2.18,2.12,1.76,1.71-.64,4.45-.13,4.88-2.32C702.09,241,699.94,241.33,698.72,241.16Zm11.07,2.58c1.45-.43,3.42-.61,3.48-2.67,0-1.63-1.59-1.25-2.66-1.27-1.52,0-3.1.14-3.21,2.14C707.31,243.42,708.37,243.84,709.79,243.74Z" transform="translate(-14.36 -1)"/><path d="M640,577.3c-24.4-.28-45.68-4.93-66.06-13.8-2.26-1-3.68-2.38-3.63-4.8a44.21,44.21,0,0,0-2-13.27c-.3-1-.83-2.39.46-3.16,1-.6,1.92.2,2.75.69,11.88,7,24.79,11.17,38.27,13.77,13.64,2.62,27.44,2.74,41.2,1.88,17.73-1.1,34.59-6.18,51-12.69a193.54,193.54,0,0,0,42.51-23.78,220.74,220.74,0,0,0,51.76-52.81c10.81-15.5,19.15-32.13,26.4-49.49a209.4,209.4,0,0,0,15-63.07c1.63-19,1.09-38.09-2.81-57-2.32-11.3-5.19-22.48-9.57-32.93-7.12-17-16.21-33-29.17-46.62-21.3-22.46-47.35-35.46-77.36-41.36-1.66-.32-4.25.16-4.6-2.06-.28-1.78,2.12-2.25,3.37-3.27,3.1-2.51,6.22-5,9.2-7.66a8.27,8.27,0,0,1,8.28-2c28.11,7.67,53.47,20.31,73.79,41.66,13.43,14.11,23.18,30.74,31.48,48.25,1.13,2.37,2.25,4.82,1.41,7.68a3.45,3.45,0,0,0,.61,2.79c8.23,9.57,8.08,21.87,10.13,33.18,2.29,12.66,5.17,25.5,4,38.49-1.31,14.17-1.17,28.55-4.15,42.49-5.46,25.53-12.69,50.51-25.49,73.54-16.48,29.67-36.9,55.92-63.82,77.1-16.74,13.18-34.54,24.39-54,32.79a182.14,182.14,0,0,1-45.87,13.28C654.68,576.32,646.25,576.74,640,577.3Z" transform="translate(-14.36 -1)"/><path d="M659.29,699.86c-14.44,1.19-31.09.75-47.71,0-15.78-.68-31.53-2-46.61-7.3a40.74,40.74,0,0,1-6.68-3.32c-9.89-5.73-7-14.48-.43-17.73,11.5-5.66,22.58-12.36,34.52-16.95,11-4.24,22.9-5.38,34.75-5.81,5.13-.18,9.65-7.59,7.36-12.1-3.32-6.53-3.13-12.86.88-18.88a13.72,13.72,0,0,0,2.22-11.23c-1.18-5.85.32-12-.73-17.92-.27-1.47.62-2.26,2.23-2.69,7.21-1.88,14.35-4,21.55-6,4.66-1.24,6.19-.11,5.15,4.57-1.92,8.72-1.08,17.57-1.91,26.33-.18,2,.84,3.43,1.73,5.06,3.18,5.74,4.23,11.59,1.33,17.95-3.31,7.28.46,12.38,8.38,12.79,12.76.66,25.5,1.66,38.22,2.89a27.73,27.73,0,0,1,13.07,4.55c5.27,3.63,11.36,4.39,17.34,5.59a33.2,33.2,0,0,1,11.1,4.33c6.61,4.12,7.29,11.23,1.79,16.67-6.2,6.14-14.34,8.41-22.3,10.58a218.56,218.56,0,0,1-42.74,6.8C681.7,698.8,671.66,700.39,659.29,699.86Z" transform="translate(-14.36 -1)"/><path d="M724.84,777.77c10.45-5.31,19.81-1.88,30.22,3.13-4,1.78-6.49.25-8.95-.71-10.57-4.13-20.14-1-29.5,3.91-3.11,1.63-3.5,4.13-2.61,7.2,1.07,3.68,2.07,7.37,3.08,11.07a7.34,7.34,0,0,0,.4,1.94c1.71,2.85-2.38,6.55,1,8.86,4.22,2.87,9.36,3.24,14.22,4.33,2.14.47,6.36-1.61,6,1.93-.34,3.05-4.42,1.39-6.89,1.07-3.95-.52-7.95-1.14-11.37-3.29-4.12-2.58-6.65-1-8.86,2.64a45.54,45.54,0,0,1-4.15,5.55,1.85,1.85,0,0,1-2.66.48c-1.07-.87-.38-1.79.24-2.58s1.56-1.74,2.22-2.69c1.07-1.55,3.72-2.86,2.39-4.91-1.11-1.7-3.8-1-5.63-.66a55.22,55.22,0,0,0-16,5.35c-8.78,4.85-17,4.08-24.81-1.57-3.76-2.72-6.58-3.69-9.56,1.12a19.6,19.6,0,0,1-7.26,6.75c-1.14.62-2.54,1.7-3.52.16s.48-2.39,1.74-2.88c3.47-1.33,5.3-4.41,7.65-6.94s1.8-4.31-1.23-5.77c-10.89-5.22-21.45-5-31.77,1.56-6.07,3.85-12.41,7.16-19.87,7-2.42,0-3.71,1.45-5,2.88-3.14,3.59-7.36,5.68-11.11,8.41-1.43,1-3.56,1.75-4.44.11-1.22-2.29,1.39-2.43,2.78-3,3.61-1.57,5.8-5,9.15-6.88,1.78-1,1.26-2.18-.06-3.06-11.14-7.44-22.95-11.64-36-5.54-5.67,2.65-10.83,6.43-16.16,9.79a10.5,10.5,0,0,1-7.23,1.19c-2.18-.27-3.64-2.28-3-3.83,1.25-2.84,2,.4,3.05.8,1.41.54,2.56,0,3.83-.47,3.86-1.32,6.94-3.94,10.2-6.19,8.49-5.87,17.88-7.78,28-7.09,5.62.38,9.76,4.06,14.45,6.49,1.32.68,2.63,1.3,4,1.92,3.11,1.43,4.89.82,6-2.56,1.9-5.78,4.66-11.15,2.7-17.75a27.41,27.41,0,0,1,.9-18.62c1.41-3.38-.54-4.65-3.3-5.22-12.11-2.48-23.78-1.44-34.76,4.62a41.21,41.21,0,0,1-4.4,2.33c-1.34.54-3.14,1.34-4-.39-1-2,1-2.48,2.3-3.06,6-2.74,11.91-6.34,18.44-7.13,8.83-1.06,18-2.15,26.47,2.14,1.19.6,2.41,1.44,3.68.29,6.51-5.93,15-9.38,20.72-16.26a19.83,19.83,0,0,0,4-17.77c-.94-3.79-6.36-4.61-10.29-5.78-9.56-2.86-17.17,1.29-24.43,6.73-.93.7-1.73,1.56-2.66,2.26a1.72,1.72,0,0,1-2.64-.23c-.61-.86.12-1.48.74-2.08,7.24-6.92,15.37-11.72,25.87-10.27,3.23.45,6.65.39,9.54,2.54,2.6,1.93,4.19,1.08,4.82-2.13,1.35-6.81,5.45-11.5,11.62-14.46,1.17-.57,2.63-1.5,3.57,0,1.07,1.66-.1,3-1.63,3.47-6.12,1.73-8.11,6.92-10.38,11.94-1.35,3-.92,5.17,2,7.23,7.84,5.54,17.19,6,25.65.67,4.91-3.07,9.4-7.95,15.11-8.28,7.68-.45,11.91-5.19,16.79-9.67,2.44-2.25,5.15-4.19,7.7-6.31,1.15-1,2.29-1.58,3.38-.07.87,1.22.23,2.17-.82,2.95-3.21,2.36-6.49,4.64-9.59,7.14-2.69,2.17-2.25,4.23,1.16,4.62,7.84.89,13.76,5.58,20.14,9.43,4.44,2.67,9.07,3.85,14.28,2.1,3.72-1.24,6.79-2.51,6.58-7.34-.14-3,2.56-4.56,4.41-6.34,3.73-3.58,8.15-6.3,12.54-9,1.23-.76,2.82-1.84,3.75.07.73,1.49-.7,2.37-2,2.95-4.89,2.25-8.92,5.76-13.12,9-1,.75-2.5,1.9-1.78,3.26,1,1.81,2.24-.08,3.39-.28,4.8-.83,9.64-.31,14.46-.38,1,0,2.14.38,2,1.68s-1.33,1.18-2.31,1.26c-4.44.35-8.9-.6-13.38.75s-6.23,3.63-5.88,8.27c.52,6.75,1.21,13.42-1.92,20.07-2.49,5.27-6.7,8.57-10.54,12.41C725.94,774.87,724.66,775.31,724.84,777.77ZM704,784.32c2.79-.16,5.69.25,8.08-1.79,5.16-4.42,10.52-8.63,15.46-13.27,7.65-7.2,10.71-16,8.59-26.53-.61-3-1.59-3-3.92-2-5.31,2.18-10.45,1.11-15.3-1.5-2.91-1.56-5.69-3.42-8.44-5.27-4.83-3.26-10.28-4.58-15.93-5.19-1.76-.19-3.75-.33-4.21,2.3-.52,2.94-1.94,5.9-1.73,8.76.88,11.9-3,21.14-13.62,27.18a20,20,0,0,0-2,1.54c-2.23,1.66-2.18,2.66.71,3.43,6,1.61,11.36,4.62,16.68,7.73A30,30,0,0,0,704,784.32ZM633.2,743.85c.61,4.19-1.23,7.79-3.89,11.48-4.65,6.45-11.47,10-17.79,14.1-3.39,2.23-3.67,4.15-.66,6.42,7.78,5.88,16.28,8.14,25.69,4.28,6.29-2.58,12.28-6.47,18.8-7.71,9.15-1.74,15.07-7.93,22-12.83,3.92-2.79,5.14-7.19,5.57-11.8.51-5.28.73-10.61,1.6-15.84.5-3-.62-3-2.86-2.73-5.34.72-9.47,3.94-13.75,6.72-10.13,6.59-20.39,9.88-31.53,2.35-2-1.38-3.07-.69-3.15,1.67C633.17,741.12,633.2,742.28,633.2,743.85Zm33.86,30.24c-3-.13-4.82-.27-5.72,1.51-2.58,5.13-4.7,10.34-1.9,16.13s2.7,11.9.6,17.9c-.65,1.86-.62,3.16,1.05,4.31,10.18,7,13.94,9.51,25.79,3.58,6.78-3.4,13.91-6.31,21.85-6.14,5.63.12,7.16-1.82,5.84-7.32-1.11-4.67-2.74-9.22-3.82-13.89-.59-2.51-2-2.37-4-2.36a35.62,35.62,0,0,1-19.4-5.35C680.69,778.32,673.74,774.84,667.06,774.09Zm-10.09,3c-.5-2-1.5-1.74-2.7-1.18-3,1.41-6,2.84-9.06,4.14-7.32,3.13-14.58,6.17-23,4.19a33.76,33.76,0,0,1-13.61-6.88c-2.87-2.31-3.74-1.4-4.74,1.55-1.43,4.24-2,8.81-.87,12.8,2.18,7.54.88,14.5-1.61,21.44-1.27,3.54.56,3.32,2.79,2.8a50.62,50.62,0,0,0,14.52-6.48c11.55-7,23.24-6.89,34.74,0,2.77,1.67,3,.89,3.71-1.76a26.83,26.83,0,0,0-.44-15.17C655.09,787.47,653.22,782.09,657,777.14Z" transform="translate(-14.36 -1)"/><path d="M15.26,95.5c2.41,8.09,4.46,15,6.49,21.83,4.25,14.38,10.43,27.94,17,41.37,2.34,4.75,3.93,9.87,7,14.25.66.93,1.15,2.8,2.18,2.48,6.73-2.06,2.42,2.55,3.13,4.51a62.28,62.28,0,0,0,6.48,13.24c5.31,8,10.49,16.25,16.93,23.3,7.8,8.54,15,17.86,25.22,24,2,1.24,2.42,4.34,5.34,4.75,1.06.15,2.07,1.36,3.17.33.9-.84.21-1.81-.11-2.74-.48-1.39-1.19-3.27.91-3.62s2.06,1.71,2.22,3.16c.29,2.57-.59,5.19,1.19,7.7,1.08,1.53-.68,1.8-1.85,1.8-15,0-30-.1-45-.09-2.72,0-3.61-2-4.71-3.84-13.12-21.78-23-45-31-69.09-8.62-26.23-13.14-53.23-15.6-80.63C14.33,97.77,14.63,97.33,15.26,95.5Z" transform="translate(-14.36 -1)"/><path d="M116.16,551.37c-4.54-8.25-7.37-16.13-3.49-25.23a4.45,4.45,0,0,0-3.88,2.43c-6.17,8.5-14.88,10.65-24.7,9.92C77,538,74.15,541,74.84,548.33c.18,2,.5,4,.65,5.95.08,1-.2,2.17-1.4,2.29-1.63.16-1.78-1.17-1.82-2.37a73.7,73.7,0,0,1,1-15.58C68.07,542.47,65.67,547,63,551.25c-.69,1.12-.93,3.62-2.85,2.48s-.51-2.87.54-4.2c3.27-4.13,5-9.46,9.87-12.36,3.17-1.88,7.89-1.51,8.63-7a21.24,21.24,0,0,0-4-16A27.31,27.31,0,0,1,69.76,501c-.14-1.25-.68-2.91-2.06-3.2s-2.07,1.42-2.83,2.41c-1.72,2.24-3.21,4.66-4.92,6.91-.76,1-1.73,2.38-3.24,1-1.19-1.08-.28-2.15.42-3.07,1-1.32,2.08-2.59,3.12-3.89,4.88-6.09,10.18-11.74,11.51-20.13.58-3.66,3.81-6.89,5.75-10.37,3.85-6.9,4.07-13.81.31-20.9-1.56-3-3.66-3.5-6.57-2.67-4.7,1.34-8.45,3.76-10.36,8.52-.46,1.13-1.11,2.9-2.8,2.05-1.92-1-.77-2.45-.14-3.82,2.37-5.13,6-8.64,11.75-9.69,3-.55,3.45-1.82,2.1-4.89-4.73-10.77-1.73-20.42,5.32-29.16.69-.86,1.35-2.84,3-1.45,1.26,1.06-.07,2.11-.66,3-1.26,2-2.62,3.86-3.89,5.81-4.36,6.7-4.21,17.11.06,23.74,1,1.54,2.14,1.71,3.67,1.93,9.66,1.4,15.46-4.07,20.52-11.19,4.74-6.68,7.07-13.12,4.42-21.89-3.36-11.1,1.76-21.5,6.54-31.5.58-1.23,1.3-2.13,2.6-1.43s.86,2.08.42,3.13c-1.5,3.51-3.22,6.94-4.64,10.49a39,39,0,0,0-1.64,23c.7,3.34,1.9,5,5.75,3.54a22.07,22.07,0,0,1,14.66-.37c5.72,1.72,10.91-.61,15.85-2.73,3.56-1.52,1.94-4.74.49-7.25-3.4-5.89-6.95-11.47-6.62-18.93s3.18-13.81,7-19.92c1.6-2.54,3.15-5.11,4.76-7.64.63-1,1.39-2.15,2.73-1.16,1,.76.41,1.8-.1,2.67a98.86,98.86,0,0,1-5.06,8.57c-9.84,13.55-7.41,25.56,1,37.74,1.46,2.13,2.26.28,2.81-.54,1.86-2.75,4.46-5,5.73-8.14.41-1,.9-2.5,2.43-1.72,1.35.69,1,2,.32,3-2.28,3.67-4.22,7.58-7.55,10.48-1.27,1.1-2.44,2.23-2.44,4.14,0,7.31-3.32,13.44-7,19.4-5.52,8.84-4.93,17.55.15,26.4,1.5,2.61,2.66,2.46,4.44.63,2.09-2.14,4.52-4,6-6.66.49-.91,1.19-1.87,2.31-1.16s.65,1.86.12,2.69a28.58,28.58,0,0,1-7.3,7.45c-2.3,1.68-2.49,2.86-.76,5.19,5.85,7.84,7,16.08,2,25A40.92,40.92,0,0,0,145,508.8c-.14,1.09-1,2.32.33,3.16,1.2.74,2.21,0,3.14-.77a2.3,2.3,0,0,1,.38-.32c1.91-1,4.08-4.75,5.4-3,2,2.68-2.15,4-3.9,5-4.73,2.52-5.19,5.83-2.89,10,2,3.62,1.59,7.77,2.86,11.54.42,1.25.45,3-1.32,3.21-2.41.35-2-1.7-2-3.08A34.66,34.66,0,0,0,144.07,521c-.93-2.15-2-3-4.51-2.73a26.4,26.4,0,0,1-12.23-1.75c-5.87-2.11-8.4-.79-10.66,5.23-3,8-4.26,16-.65,24.17a18.58,18.58,0,0,1,1,3.8C117.05,550,116.72,550.29,116.16,551.37ZM119,506.88c.24-4.88-1.55-9-3.81-12.93-2.41-4.19-4.86-8.33-6.23-13-.37-1.26-.62-2.92-2-3.21-2-.41-2.13,1.76-2.85,2.89-3.9,6.17-8.51,10.94-16.6,11-4.1,0-8.19,1.17-12.3,1.53-3.47.31-4.2,2.14-3.43,5.09,1.37,5.31,2.82,10.51,6,15.21,3.66,5.41,6.76,11.21,4,18.2-1,2.5.09,3.5,2.76,3.82,7.93.95,15.08-.75,20.41-6.79C110.69,522.16,117.88,516.37,119,506.88Zm-2.83-66.49c0-6.45,0-6.45-1.75-9.61-4.24-7.87-5.9-8-10.57-.46-5.29,8.56-10.64,16.55-22.6,15.48-3.33-.3-1.5,2-.74,3.25,4.82,7.87,3.81,15.51-.74,23.07-1.63,2.71-3.26,5.42-4.72,8.22a26.87,26.87,0,0,0-2.22,5.53c-.88,3.35.59,4.94,3.89,3.75,2.8-1,5.59-.62,8.38-.71,6.37-.22,11.14-2.72,15.29-7.86,5.1-6.32,6.87-13.83,9.85-21C112.89,453.68,116.76,447.74,116.16,440.39ZM137.6,516c3.35.56,4.56-1.06,4.42-4.79-.26-6.79,2-13.08,5.15-19a18.85,18.85,0,0,0-2.66-22.07,3.27,3.27,0,0,0-3.58-1.1c-7.1,2.52-13.58.14-20.28-1.94-6-1.84-11.48,4.21-9.9,10.23A45.29,45.29,0,0,0,116.51,491,31.13,31.13,0,0,1,122,509.81c0,1.39-.13,2.87,1.65,3.08C128.26,513.46,132.46,515.89,137.6,516Zm-26.2-49.51c4.73-3.61,9.35-2.46,13.89-.79,4.06,1.5,8.2,1,12.33.89,3.43-.09,3.88-1.47,2.16-4.43-5.91-10.13-5.44-20.27.87-30a51.82,51.82,0,0,0,4.85-10.88c.38-1,.77-2.36-.11-3.34-1.14-1.27-2.08.13-3.07.47-4.45,1.53-9.08,2.84-13.68,1.52a24.55,24.55,0,0,0-12.7-.29c-4.62,1.06-5,1.72-2.1,5.71,5.65,7.76,7.57,15.81,3.68,25.2C115.46,455.44,112.91,460.26,111.4,466.45Z" transform="translate(-14.36 -1)"/><path d="M541,686.08c-2.87.75-6.33-1.74-7.59,1.55-1,2.51,2.17,3.57,4.38,5.08-1.68.4-2.8.65-3.91.93-.93.24-2.1.14-2.4,1.39s.51,1.87,1.42,2.33c1.73.87,3.34,1.78,2.27,4.13-1.21,2.68-2.8,1-4.49.51-3.68-1-6.88,1.16-10.63,2.42,1.69-3,4.51-3.63,6.87-4.9.85-.46,2.19-.76,1.59-2-.49-1-1.75-.77-2.69-.36-1.37.6-2.68,1.32-4,2-1.54.73-3.1,2.42-4.58-.15a1.35,1.35,0,0,0-1.73-.5c-3.47,1.16-2.94,1-3.88-2.49-2.55-9.49-3-19.27-4.39-28.92-.67-4.76-2.5-10.29-.84-14.21,2.2-5.18.36-8.8-.86-13.11-.34-1.21-.05-2.63-.7-3.85s-.72-2.66.88-3.31,3.47-1.41,5.27-.67a1.13,1.13,0,0,1,.16,2c-5.17,3.45.07,7.46-.45,11.22-.25,1.81,3.09,1.67,4.64,1.1,3.94-1.45-.72-3.36.22-5.59,8.11,2.44,15.31,6.61,22.25,11.32.77.52,1.62,1.61.78,2.51s-1.67-.08-2.39-.76a5,5,0,0,0-2-1.32c-1.28-.31-2.81-2.38-3.86-.39s1,2.31,2.44,3.22a31.74,31.74,0,0,1,10.35,9.81c2.3,3.63-2.21,4-3.83,5.46-.86.77-2.73.41-3.58,2-.44.85-3.24-.7-2.41,1.81a3.49,3.49,0,0,0,3.82,2.6,21.45,21.45,0,0,1,2.92-.49c.54,0,1.13.58,1.54,1a1.59,1.59,0,0,1-.64,1.15c-6.27,1.55-1.86,3.71-.38,5.73A6,6,0,0,1,541,686.08Z" transform="translate(-14.36 -1)"/><path d="M125.16,828.19c-14.7-.45-26.5-6.48-35.18-18.4-.7-1-1.66-2.24-.59-3.08,1.47-1.16,3.54-.81,5.27-.48s1.22,1.67.6,2.77a2.68,2.68,0,0,0-.22,2.36c1.86,5.37,14,11.11,19.35,9,4.36-1.72,8.12-4.52,12-7,1.6-1,2.29-7.62,1-8.84-.84-.8-1.88-.29-2.78.18-3.37,1.8-6.73,3.63-10.12,5.4a53.24,53.24,0,0,1-6.27,3c-1.47.53-3.74,1.09-4.11-1.16-.32-2,2-1,3-1.51a107.46,107.46,0,0,0,15.29-8.28,1.77,1.77,0,0,0,.93-2.1c-.35-1.08-2.34-2.19-.3-3.22,1.45-.73,1.75,1.09,2.46,1.89a4.82,4.82,0,0,0,4.09,1.42c1.85,0,3.73-.08,5.22,1.23,1.89,1.66,3.8,1.23,6.05.76,4.43-.93,8.18-1.66,12.46,2.8,3,3.09,8.57,7.29,14.77,3.91,2.56-1.4,5.82-2.2,7.63.74s-.32,5.44-2.4,7.87c-3.62,4.23-8,7.52-12.4,10.76-3.29,2.43-7,3.6-11.24,1.87a11.26,11.26,0,0,0-9.65.16c-3.83,1.88-7.42-.62-11.13-1.12A32.18,32.18,0,0,1,125.16,828.19Zm18.64-23.64c-2.87,1.09-6.17.88-8.09,3.45-4.6,6.13-10.68,10.34-17.36,13.85-.93.5-2.58.66-2.16,2.24.33,1.26,1.8,1.39,2.88,1.56a9.71,9.71,0,0,0,3.43-.19c7.34-1.51,12.66-7.13,19.5-9.7a2,2,0,0,0,.95-3C140.91,809.79,142.71,807.46,143.8,804.55Zm-8,22.84c6.8.14,11.6-3.13,16.39-7,3-2.41,3.41-4.8,2.66-8.17-.57-2.55-1.48-3-3.07-.94-2.87,3.65-6.74,5.83-10.73,8-2.93,1.56-5.76,3.28-8.63,5-.72.43-1.42,1-1.23,2s1.19,1,2,1C134.13,827.28,135.13,827.34,135.76,827.39Zm13.51-1c3.07,1.49,5.58,2.74,8,.73,3.89-3.21,9.13-4.91,11.49-9.79.66-1.35-.33-3-1.37-4-1.35-1.3-2.94-.24-4,.65C158.8,817.92,154.31,822,149.27,826.43Zm-1.75-15.1c1.93-.39,2.42-2,2.76-3.62a1.45,1.45,0,0,0-1.71-1.82,3.56,3.56,0,0,0-3.22,3.23C145.15,810.56,146.21,811.1,147.52,811.33Z" transform="translate(-14.36 -1)"/><path d="M501.42,562.59c-1.69,1.38-.68,2.68-.29,4.08.76,2.71,3.45,5.49-.59,8.12-1,.67-.06,2.84.63,4.18,3,5.87,4.82,12,4.12,18.7a7,7,0,0,0,2.25,6.34c.37.32.95,1,.85,1.15-2.51,5,3,6.4,4.44,9.57s-.05,6-.44,8.79c-.35,2.55-3.15,4.55-6.2,5.07-.65.12-1.73.15-1.69-.53.16-3.27-1.32-5.57-3.8-7.44-.09-.07.25-1.13.5-1.18,5-.92,2.21-3.32,1.2-5.57-1.16-2.56-2.07-5.24-3-7.88-.35-1-.67-2-1.9-1.94a2.15,2.15,0,0,0-1.61.81c-.55,1.06.17,1.82,1,2.51a7,7,0,0,1,1.68,1.81c.83,1.51,1.41,3.64,0,4.55s-2.46-1-3.2-2.26c-3.77-6.6-2.39-13.62-1.5-20.55.13-1,1.33-2,.29-3.09s-1.75-.46-2.76.46c-1.37,1.26-1.87-.3-2.38-1.32-.61-1.24.59-3.05-1.44-4.11-1.44,2.21-.26,4.46-.29,6.62,0,1.18-.3,2.51-1.86,2.37-1.19-.11-1.43-1.24-1.44-2.28,0-3.66,0-7.32-.05-11,0-1.22.24-2.84,1.53-2.76,4.7.3,6.22-3.9,9.16-6.07.39-.29,1-.85.94-1.06-1.72-4.66,1.19-6.9,4.42-9.25.72-.52.41-2.45.72-4.86,2.21,4.79,4,8.66,5.89,12.81C502.71,567.53,503.58,563.57,501.42,562.59Z" transform="translate(-14.36 -1)"/><path d="M190.86,725.36c7-1,14.09.85,21.21.93,12.14.14,24.21-1.71,36.36-1.2,1.19,0,3.09-1,3.15,1,0,1.69-1.9,1.56-3.17,1.5-13.8-.58-27.5,2.16-41.29,1.16-3.47-.25-6.91-.88-10.38-1.09-22.74-1.36-43.11,3.95-59.55,20.83-4,4.14-8.76,7.62-13.25,11.31-1.53,1.26-1.56,2.19-.27,3.67,1.72,2,2.93,4.14.89,6.7-.53.66-1,1.62-.38,2.27.74.81,1.84.37,2.83.17a52.49,52.49,0,0,0,20.18-8.25c6.93-4.88,14.81-6.41,22.85-7.77,9.64-1.64,18.66,2.15,28,3.13.85.09,1.74.49,1.59,1.52-.19,1.35-1.3,1.25-2.32,1.1-2.47-.35-5-.61-7.4-1.1a71.74,71.74,0,0,0-32.68,1c-4.54,1.2-8.27,4.06-12.19,6.55-6.86,4.36-14.28,7.12-22.57,6.74a14.18,14.18,0,0,1-4.84-1c-7.44-3.16-8-6.42-1.93-11.63s11.94-10.07,17.94-15.07c1.27-1.05,2.86-1.81,2.24-4-.25-.89.2-1.9,1.18-1.72,6.34,1.19,8.6-4.86,12.75-7.39,6.2-3.77,12.43-6.94,19.6-8.09S183.53,724.58,190.86,725.36Zm-68.71,42.4c-.45-1.75-1.09-3.5-3.21-3.15a4.29,4.29,0,0,0-3.72,4.11c0,1.81,1.88,2.92,3.52,2.76C120.66,771.3,121.84,769.74,122.15,767.76Z" transform="translate(-14.36 -1)"/><path d="M472.33,492c-1.31,10.05-2,20-7,30.26a17.47,17.47,0,0,1,2.53-11.45c1.91-3.12,1.29-5.76-.08-8.79-1.44-3.2-2.86-2.37-4.06-.21s-2.95,4-5.5,3c-2.4-.88-1.38-3.45-1.39-5.31A64.85,64.85,0,0,1,460.72,478c1.79-5.25,6.59-8.55,11.14-11.65,1.66-1.13,2.33.24,3.15,1.28a6.39,6.39,0,0,1,.9,4.79c-.73,6.75,3.28,12.17,4.84,18.26.43,1.67,6.58.57,2.34,3.63-2.56,1.85-7.45,2.51-9.83-2.21C473.21,492.05,473,492.07,472.33,492Z" transform="translate(-14.36 -1)"/><path d="M580.77,384.14c-1.16,4.46-3.45,9-2.91,14.13.17,1.67,0,2.82,1.49,4.25,2.68,2.62,1.41,7.18-2.13,8.59-1.79.71-2,2.15-2.21,3.57a38.15,38.15,0,0,0-.94,7.4c.12,4.74-2.45,5.49-6.37,5.14-2.05-.18-3.14-.67-2.83-3,1.9-14.14,3.68-28.3,5.69-42.43.69-4.88,4.74-2.28,7.27-2.6C581.52,378.77,580.1,382,580.77,384.14Z" transform="translate(-14.36 -1)"/><path d="M431.91,313.14c.53-8.86.14-16.32,5.79-22.13.68-.7,1.46-2,.32-2.55-5.15-2.29-1.38-4.88-.15-7,2.51-4.29,5.48-8.31,8.2-12.48,1.05-1.63,2.45-2.37,4.22-1.71,2,.74.88,2.42.94,3.84.45,12-6.51,21.4-11.52,31.31C438.1,305.62,434.8,308.66,431.91,313.14Z" transform="translate(-14.36 -1)"/><path d="M374.83,234.61c-1.13,4.63-2.36,9.25-3.36,13.91a8.75,8.75,0,0,1-5.15,6.25c-3.06,1.55-5.27,1.44-6.93-2s-3.74-6.62-5.43-10c-1.07-2.17-1.28-4.4,2.24-4.08a7.7,7.7,0,0,0,5.07-1.63c1.57-1,3.43-2,5.14-1.09C369.57,237.74,372,237.12,374.83,234.61Zm-6.76,10c-.26-1.38-1.24-1.9-2.2-1.51-2,.81-5.13-.35-5.69,2.79-.31,1.72,1.45,2,2.81,2A6,6,0,0,0,368.07,244.65Z" transform="translate(-14.36 -1)"/><path d="M255.5,777.15a49.43,49.43,0,0,0-26.38,2.56C223.38,782,218,785,214.51,790.44c-1.15,1.76-2.59,2.48-4.64,1.43-.84-.43-2.26-.25-2.3-1.5-.06-1.88,1.49-1.39,2.55-1.29,1.58.15,2.36-.87,3.31-1.83,11.18-11.35,24.78-15.34,40.39-13.22,1.31.18,2.66,0,4,.12,1.16.1,3-.95,3.19,1.11.13,1.76-1.63,1.76-2.94,1.88C257.39,777.2,256.72,777.15,255.5,777.15Z" transform="translate(-14.36 -1)"/><path d="M423.83,284.14c-2.61-4.86-1.06-8.83.92-12.64,1.61-3.09,3.54-6,5.41-9,.68-1.08,1.53-2.6,3.08-1.69,1.31.77,1.13,2.49.64,3.65-1.54,3.67-3.24,7.28-5.05,10.82C427.37,278.19,425.66,280.94,423.83,284.14Z" transform="translate(-14.36 -1)"/><path d="M431,538V507.47C434.21,512.16,434.54,530.92,431,538Z" transform="translate(-14.36 -1)"/><path d="M489.6,534.51c1.14-4.58.89-9.16,4.24-12.49.71-.7,1.49-1.48,2.59-.92a2.2,2.2,0,0,1,1.08,2.57c-.82,3.91-1.62,7.82-2.66,11.67-.37,1.36-1.15,3.2-3,2.7A3,3,0,0,1,489.6,534.51Z" transform="translate(-14.36 -1)"/><path d="M478.13,513.81c.57,5.33,1.38,9.67.06,14-.5,1.66-.63,4.11-3.11,3.63a3.81,3.81,0,0,1-2.83-4.59C473.09,522.47,473.68,517.85,478.13,513.81Z" transform="translate(-14.36 -1)"/><path d="M569.05,255.69c5.82-6.78,13.89-9.95,20.88-15.4-.61,4-3.39,5.72-6,7.37s-5,2.82-6.74,5.54C575.58,255.7,572.68,256.81,569.05,255.69Z" transform="translate(-14.36 -1)"/><path d="M278.7,446c2.08,7.1,2.34,14.3,2.1,21.52,0,.8,0,1.77-1,2.05s-1.59-.53-1.71-1.31A71.07,71.07,0,0,1,278.7,446Z" transform="translate(-14.36 -1)"/><path d="M474,555.21c.94-1.92,0-5.13,3.17-5a4.71,4.71,0,0,1,4.37,5.2c-.26,2.86-2.41,7.3-4.23,7.08C474.76,562.21,475.39,557.65,474,555.21Z" transform="translate(-14.36 -1)"/><path d="M427.8,587.11c-4.21.51-7.43-2.2-11.18-3.14-2.44-.61-4.68-2.37-7.39-2.67-.76-.09-1.82-.19-1.74-1.33s.94-1.69,2.09-1.53A32.41,32.41,0,0,1,427.8,587.11Z" transform="translate(-14.36 -1)"/><ellipse cx="382.32" cy="769.66" rx="0.64" ry="20.2"/><path d="M545.25,82.14c-1.41-4.33-1.36-7.27-.13-10,.7-1.52,2.68-.94,4.13-.77,1.18.13,2.36.53,2.72,1.84.43,1.55-.91,2.06-1.88,2.53C547.87,76.86,546,78.21,545.25,82.14Z" transform="translate(-14.36 -1)"/><path d="M848.16,872.82c.89,3.53,2.93,4.78,5.93,4.64,1-.05,2.12,0,2.14,1.42a2.3,2.3,0,0,1-1.76,2.17,6.86,6.86,0,0,1-7.36-1.58C845.3,877.58,845.31,875.29,848.16,872.82Z" transform="translate(-14.36 -1)"/><path d="M547.92,106.71c1,.9,4.2-.6,3.56,1.68-.86,3-4.24,4.35-7.12,5.5-1.24.49-1.79-.57-1.41-1.72C543.78,109.69,543.59,106.23,547.92,106.71Z" transform="translate(-14.36 -1)"/><path d="M433.52,558.54c.62,3,.51,5.21-1.08,7.15a1.35,1.35,0,0,1-1.29.07c-1.54-2.1-.88-4.45-.3-6.59.49-1.78-.65-5.16,1.61-5.06C435.11,554.22,432.74,557.49,433.52,558.54Z" transform="translate(-14.36 -1)"/><path d="M447.43,643.84c4.25-2.08,7-.28,9.69,1.57.95.66,1.43,2.25.17,3-2,1.13-4.59,1-5.72-1C450.67,645.82,449.36,645.22,447.43,643.84Z" transform="translate(-14.36 -1)"/><path d="M854.3,832a4.11,4.11,0,0,1-3.08,2.51c-2.41.51-4.14-.66-5.43-2.56a3.38,3.38,0,0,1-.4-3.72,1.3,1.3,0,0,1,2.1-.38c1.62,2,3.45,3.4,6.2,3.16C853.87,831,854.12,831.75,854.3,832Z" transform="translate(-14.36 -1)"/><path d="M407.87,572.13c5,1.41,10.55,1.51,14.37,6C417.15,576.87,411.71,576.54,407.87,572.13Z" transform="translate(-14.36 -1)"/><path d="M853.53,740.45c-2.28,2.24-4.51,3.22-7.43,1.61-2-1.11-2.41-2.94-1.28-4.55,1.58-2.24,2.6.25,3.15,1.09C849.34,740.71,851.7,739,853.53,740.45Z" transform="translate(-14.36 -1)"/><path d="M853.69,786.11c-2.47,3.34-4.59,3.07-6.81.57-1.22-1.37-3-3-1.3-4.61s2.32,1,3.17,1.92C850,785.31,851.82,785.05,853.69,786.11Z" transform="translate(-14.36 -1)"/><path d="M363.18,228.91c-.87-.34-2.12-.74-3.29-1.31a1.36,1.36,0,0,1-.75-2,2,2,0,0,1,1.73-.45c1.4.31,2.57,1.33,4.24.77,1.29-.43,3-3.35,3.82-.76.72,2.25-2.28,3.08-4.34,3.67A10.87,10.87,0,0,1,363.18,228.91Z" transform="translate(-14.36 -1)"/><path d="M554.71,36.77c-2.47,3.56-4.44,5.36-7.31,4.56-1.19-.34-1.23-2.7-.72-3.6C548.68,34.21,551.29,37.76,554.71,36.77Z" transform="translate(-14.36 -1)"/><path d="M354.35,190.4c-1.72-.15-4.06,1.53-4.36-.76-.25-1.9,2.17-2.52,4-2.54s4.79-.18,4.6,2.25C358.39,192,355.56,189.57,354.35,190.4Z" transform="translate(-14.36 -1)"/><path d="M852.49,694.17c-2.12,4.12-4.75,4.8-7.17,1.79-.74-.92-2.32-2.14-1-3.33,1.65-1.47,2,.41,2.61,1.52C848.73,697.23,850.65,692.87,852.49,694.17Z" transform="translate(-14.36 -1)"/><path d="M178.86,18.69c-.67,1.41.25,3.87-1.63,3.75-2.43-.16-1.81-2.67-1.79-4.38,0-1.37-.43-3.62,1.64-3.34C178.94,15,178.4,17.35,178.86,18.69Z" transform="translate(-14.36 -1)"/><path d="M379.45,129c.48-1.61-.28-4.06,2.08-4.46,1.88-.32,2,1.62,1.58,2.79-.59,1.9-.1,4.93-2.41,5.3C378.94,132.87,379.75,130.31,379.45,129Z" transform="translate(-14.36 -1)"/><path d="M179.43,71.53c2.51,3,3,5.58,1.18,8.29-.4.59-1.16.88-1.65.23C176.86,77.28,178.9,74.72,179.43,71.53Z" transform="translate(-14.36 -1)"/><path d="M852,603.58c-.64,3.68-2.21,4.51-4.59,4.58a5.29,5.29,0,0,1-5-2.43,1.43,1.43,0,0,1,0-1.8.93.93,0,0,1,1.62.14C846.25,607.57,848.72,605.36,852,603.58Z" transform="translate(-14.36 -1)"/><path d="M187.4,186.36c-.3,1.74.18,4.3-2.36,4.15-1.83-.11-1.11-2.44-1.15-3.76,0-1.54-.5-3.95,1.64-4.11C188.07,182.45,187,185,187.4,186.36Z" transform="translate(-14.36 -1)"/><path d="M275,62.2c2.65,4.09,1,7.31-.54,11.34C273.21,69.38,272.65,66,275,62.2Z" transform="translate(-14.36 -1)"/><path d="M178.73,86.22c3.69,2.58,4.83,4.5,3.15,7.2-.42.68-1.27,1.54-2,.79C177.91,92.11,179.36,89.69,178.73,86.22Z" transform="translate(-14.36 -1)"/><path d="M536.71,645.9c-4.27-.75-6.69-4.08-10.68-6.89C531.57,639.52,533.82,643.2,536.71,645.9Z" transform="translate(-14.36 -1)"/><path d="M182,110.28c-1.35-.67-1-1.53-.87-2.3.19-1.67-2-3.45.13-5,.93-.68,1.6.17,1.92.9C184.22,106.32,184.35,108.59,182,110.28Z" transform="translate(-14.36 -1)"/><path d="M99,59.7c-.45-.09-.66-.07-.73-.16a6,6,0,0,1-.75-6.86c.33-.65,1.43-.76,1.7-.27A7.16,7.16,0,0,1,99,59.7Z" transform="translate(-14.36 -1)"/><path d="M476.77,544.14c2,.94,2.52,4.62,5.35,2,1.07-1,1.36.34,1.49,1a2,2,0,0,1-1.42,2.31C479.7,550.29,477,547.9,476.77,544.14Z" transform="translate(-14.36 -1)"/><path d="M493.45,517c.37-3,1.87-4.5,4-4.71,1.94-.19,2.7,1.46,3,3.72C498.05,515.41,495.47,513.78,493.45,517Z" transform="translate(-14.36 -1)"/><path d="M183.32,241.76c1-1-.37-3.81,2.2-3.58,1.19.11,2,1.91,1.58,3.23s-.39,3.8-2.44,3.73C183.24,245.09,183.22,243.2,183.32,241.76Z" transform="translate(-14.36 -1)"/><path d="M187.4,199.25c-.06,1.78.09,3.87-1.91,4.15s-1.6-1.69-1.55-2.91c.09-1.92.22-4.77,2-5C188.2,195.26,187,198,187.4,199.25Z" transform="translate(-14.36 -1)"/><path d="M373.6,190.4c-1.22-.41-3.51.93-3.49-1.36,0-1.86,2.16-2.27,3.8-2.36s3.24.31,3.15,2.24C377,191.35,374.85,190,373.6,190.4Z" transform="translate(-14.36 -1)"/><path d="M482.35,653.37c.6-5,3-7.1,7.34-6l-7.47,5.81Z" transform="translate(-14.36 -1)"/><path d="M381.32,139.2c.3.41.76.76.78,1.13.13,2.39.87,4.91-1,7-.11.12-.92-.18-1.19-.47C378.85,145.7,379.59,141.74,381.32,139.2Z" transform="translate(-14.36 -1)"/><path d="M842.69,560.27c1.84,2.84,4.15,4.25,8.38,2.26C846.41,567.32,844.15,566.52,842.69,560.27Z" transform="translate(-14.36 -1)"/><path d="M380.73,36.53c.86,1.35,1.29,1.71,1.29,2.08,0,2.34,1.12,4.86-.95,6.89-.12.12-1-.2-1.15-.5C378.38,42.22,379.8,39.91,380.73,36.53Z" transform="translate(-14.36 -1)"/><path d="M279.06,241.86c-3.19-2.74-1.87-5.09-.95-7.36a1,1,0,0,1,1.67-.21C281.56,236.81,279.52,238.89,279.06,241.86Z" transform="translate(-14.36 -1)"/><path d="M480.65,234.55c-2.25-3.58-1.84-6.14,1-9C482,228.78,482.43,231.4,480.65,234.55Z" transform="translate(-14.36 -1)"/><path d="M851.52,649.71c-3.35,2.67-6.11,2.86-7.69-1.43C846.36,648.94,848.6,651,851.52,649.71Z" transform="translate(-14.36 -1)"/><path d="M281.29,206.18c-.17,1.92-.14,3.81-2.31,4-1.26.14-1.59-1.14-1.34-2.1.38-1.49,0-3.67,2-4.1C281.23,203.67,281,205.45,281.29,206.18Z" transform="translate(-14.36 -1)"/><path d="M183.79,213.51c.36-1.25-.51-3.41,1.86-3.18,1.53.14,1.85,1.73,1.62,3.11s-.52,3.58-2,3.6C183.19,217.07,184.18,214.79,183.79,213.51Z" transform="translate(-14.36 -1)"/><path d="M380.87,16.73a5.41,5.41,0,0,1-.54-6.79A.93.93,0,0,1,382,10C383.25,12.49,382.32,14.58,380.87,16.73Z" transform="translate(-14.36 -1)"/><path d="M273.53,42.31c-.3-.85-.63-1.32-.6-1.75.15-2-1.16-4.3,1.14-5.79a1.12,1.12,0,0,1,1.57.73A6,6,0,0,1,273.53,42.31Z" transform="translate(-14.36 -1)"/><path d="M97.81,83.49c.23-1.13-.46-3.06,1.64-2.83,1.68.19,1.59,1.91,1.53,3.21s0,3-1.85,2.87S98,84.74,97.81,83.49Z" transform="translate(-14.36 -1)"/><path d="M381.4,22.83a12.79,12.79,0,0,1-.44,9.9C378.68,28.9,379.33,26.31,381.4,22.83Z" transform="translate(-14.36 -1)"/><path d="M485.62,12.58c.47,1,.78,1.33.72,1.57-.45,1.81.69,4.08-1.49,5.35-.23.14-1.08-.22-1.2-.52C482.67,16.55,483.51,14.62,485.62,12.58Z" transform="translate(-14.36 -1)"/><path d="M100.5,69.52c-.08,1.22-.12,3-1.31,2.91-2.33-.11-1.54-2.46-1.88-3.87-.25-1.07,0-2.76,1.4-2.59C100.58,66.2,100,68.33,100.5,69.52Z" transform="translate(-14.36 -1)"/><path d="M184.52,231.52c-1-.7-.73-1.77-.65-2.67.13-1.38-.71-3.06.84-4.06.68-.43,1.17.34,1.56.85a3.18,3.18,0,0,1,0,4.47C185.8,230.69,185.62,231.67,184.52,231.52Z" transform="translate(-14.36 -1)"/><path d="M380.42,61.74c-2.2-3-1.49-5.2,0-7.34a1.43,1.43,0,0,1,1.29,0C383,57,381.81,59.17,380.42,61.74Z" transform="translate(-14.36 -1)"/><path d="M533.52,862.41a1.93,1.93,0,0,1-2.42,1.52c-2.12-.48-3.52-1.76-3.56-4.08,0-.76,1-1.4,1.26-1.07C530,860.58,532.72,860.39,533.52,862.41Z" transform="translate(-14.36 -1)"/><path d="M373.59,447.64c2-3.13,7.41-3.44,5.6-8.57-.25-.71,1.17-1,2-1.09a2.74,2.74,0,0,1,3,2.09c.76,4.82.28,9.75,1.29,14.58.15.74-1.6,1.87-2.41,2.76-1.73-1,0-2.81-1.75-3.68-1.73,1.44-3.75,3.43-3,5.69,1.56,4.93-3.19,7.1-4,10.87,0,.19-.9.37-1.3.27-.83-.22-.75-.95-.59-1.61,1.52-6.25.16-13,4.06-18.92C378.39,447.06,374.48,448.85,373.59,447.64Z" transform="translate(-14.36 -1)"/><path d="M396.55,474.4a5.22,5.22,0,0,1-3.11,3,14.23,14.23,0,0,0-7.57,7.57,6.12,6.12,0,0,1-3.24,3c-.74.34-1.64.74-2.31,0-.85-1-.29-1.87.53-2.55a60,60,0,0,0,11.26-11.92,2.67,2.67,0,0,1,3.11-1.05A2,2,0,0,1,396.55,474.4Z" transform="translate(-14.36 -1)"/><path d="M393.18,488.13a8.93,8.93,0,0,1-3.45,4.9c-1.23.86-3.28,1.94-4.26,0s1.27-1.73,2.35-2.14c1.58-.6,1.63-2.39,2.72-3.36.47-.42.93-1.14,1.63-.72C392.64,487.08,392.89,487.72,393.18,488.13Z" transform="translate(-14.36 -1)"/><path d="M356.34,381.4c-1.44-5.49,4.56-16.55,9-17.29a2.54,2.54,0,0,1,1.78.47,1.36,1.36,0,0,1,.08,2.17C361.78,370.12,360,376.28,356.34,381.4Z" transform="translate(-14.36 -1)"/><path d="M423.73,216.28c2.83-.84,3.35,1.25,3.16,3-1.07,10.29-4.13,19.91-10.49,28.49.07-2.43.44-4.81-2.2-6.19-1.66-.87-.87-2.09-.2-3.36,3.19-6,5.15-12.63,8.92-18.37a4.86,4.86,0,0,0,1-3.75Z" transform="translate(-14.36 -1)"/><path d="M322.45,649a1.45,1.45,0,0,1-2.23,1.08c-3.29-1.52-6.55-3.12-9.72-4.86-1.51-.82-1.23-1.81.33-2.36s10.65,3.5,11.37,5.16A6.36,6.36,0,0,1,322.45,649Z" transform="translate(-14.36 -1)"/><path d="M363.87,555.87c.45-1.16.48-1.41.56-1.42,2.54-.51,5.16-1.37,7.23,1.07.4.47.35,1.72-.24,1.66C369,556.92,366.5,556.35,363.87,555.87Z" transform="translate(-14.36 -1)"/><path d="M751.6,242.43c-2.27.25-4.94.76-4.54-2.23.48-3.67,3.88-5.6,7-6,3.79-.44,5,3.5,4.86,6.13C758.56,247.59,753.41,239.84,751.6,242.43Z" transform="translate(-14.36 -1)"/><path d="M681.38,294.21a6.52,6.52,0,0,1,1.87,1c3.1,3.14,5.73,6.81,10.22,8.28a1.91,1.91,0,0,1,.94,2.55,2.19,2.19,0,0,1-2.79,1.44,10.12,10.12,0,0,1-5.09-2.89c-2.25-2.6-3.77-5.77-6.44-8.09C678.84,295.43,679.45,294.48,681.38,294.21Z" transform="translate(-14.36 -1)"/><path d="M701.59,309.18c2.5,1,5.74,2.25,8.88,3.7a2.19,2.19,0,0,1,1.17,3.28c-.8,1.36-2,2.6-3.62,1.56-3.28-2.1-6.18-4.83-10.52-4.64a1.43,1.43,0,0,1-1-2.28C697.46,309.21,699.05,308.82,701.59,309.18Z" transform="translate(-14.36 -1)"/></g></g></svg>