<svg xmlns="http://www.w3.org/2000/svg" viewBox="0 0 559.17 866.63"><title>nyc</title><g id="Layer_2" data-name="Layer 2"><g id="Layer_1-2" data-name="Layer 1"><path d="M608.51,726c-.76,9.56,2.34,18.43-4.74,26.85-6.9,8.21-11.82,18-15.93,28-1.72,4.18-6.14,6.47-7.36,11.66,2.11-.79,3.68-1.31,5-2.59,6.71-6.63,13.46-13.24,20.17-19.88.65-.64.9-2.09,2.14-1.43.5.26.75,1.43.75,2.18.05,7,.68,14.09-.22,21-.68,5.22-3.33,10.19-5.13,15.26-.37,1-1.74,2.15-.54,3.1,1.37,1.08,1.92-.52,2.52-1.43s1.22-1.76,2.36-1.34,1.07,1.57,1.07,2.56c0,19.5-.05,39,0,58.49,0,3.94-2.65,3.52-5.15,3.52-22.33.07-44.66.17-67,.17Q299.21,872.09,62,872c-12.3,0-12.31,0-12.3-12.5,0-5,.24-10,0-15-.2-3.52,1.32-5.43,4.09-7.24C60,833.17,66,828.79,72.09,824.42c1.08-.77,3.22-1.83,1.92-3.41s-2.49.46-3.63,1.22l-17,11.39c-2.36,1.58-3.71,1.24-3.68-1.87,0-1.5,0-3,0-4.5V254.3c0-11.83.13-23.66,0-35.49,0-3.09,1-4,4-4,8,.17,16,.08,24,0,2.4,0,3.9.17,2.55,3.33-.73,1.73-.4,3.94-.41,5.93-.11,22.59-.42,45.19-.57,67.77-.12,18.5,1.87,37,4.07,55.47,1.51,12.68,2.18,25.45,4.27,38.06,3,18.18,5.25,36.51,11,54.16,1.22,3.75,1.85,7.69,3.28,11.43.57,1.49,1.33,4-.68,4.91-1.69.72-3.44-.91-4.57-2.32q-4.64-5.83-9-11.88c-6.75-9.31-13.44-18.66-20.83-27.86,1.83,3.92-1.31,8,.9,11.77.24.41.48,1.23.29,1.4-3.78,3.5-2,8.56-2.17,12.33-.25,5.6-3.62,11.39-.41,17.08.15.27.3.75.17.94-5.25,7.75,3.32,15.47-.11,23.67-1.5,3.58,3.46,8.11,2.88,12.71-.66,5.23,0,10.3,1,15.37C70.93,517.9,72,526.77,75,535.26c1.77,5,.73,10.52,2,15.74,3.25,13,6.14,26,11.13,38.53,2.57,6.42,4.68,13,7.12,19.5a164.93,164.93,0,0,0,9.2,19.26,38.07,38.07,0,0,1,2.72,6.41c.42,1.31,1.07,3.14-.81,3.95-1.67.71-2.65-.5-3.63-1.8-2.81-3.71-6.1-7.11-8.61-11-3.62-5.63-9.69-9.09-12.88-15.07-.49-.92-1.41-2-2.79-.86-1,.88-1.91.88-1.79-.69s1-3.24-1.65-3a3.18,3.18,0,0,0-3,3.91c.64,4.06.79,8.64,2.84,12,3.77,6.06,4.78,12.83,5.93,19.37,2.58,14.69,6.49,29.08,9,43.75,3.33,19.44,8.5,38.48,11.91,57.87a322.24,322.24,0,0,0,10,39.84c4.62,14.86,10.85,29.2,19.69,42.21a8.89,8.89,0,0,0,4.73,3.45c10.36,3.53,20.72,7,31.55,8.87l.48.12c10.25,3,10.78,2.77,12.4-7.71a45.51,45.51,0,0,1,3-11c2-4.59.58-8.19-2.58-11.24-9.51-9.15-14.21-21.23-19.8-32.67-9-18.41-14.17-38.22-19.37-57.93a141.28,141.28,0,0,1-3.74-24.52c-.93-11.39-5.66-21.4-10-31.64-2.39-5.68-4.47-11.48-6.7-17.22-.67-1.72-1.65-3.59.2-5,1.59-1.22,3.28-.1,4.63.78,10.7,6.9,21.66,13.41,31.89,21,1.91,1.42,4.31,4.41,6.21,2.89,2.29-1.84-.58-4.49-1.65-6.58-12.11-23.61-19.07-49-27-74.21-6.74-21.42-10.67-43.53-17.43-64.91a68,68,0,0,1-1.46-7.31c-.33-1.67-.71-3.42.94-4.57s3.17-.48,4.62.55c7.59,5.38,15.22,10.71,22.78,16.14,6.34,4.55,12.6,9.22,18.91,13.81.9.66,1.87,1.76,3,.7s.43-2.19,0-3.24c-6.13-13.85-11.6-27.94-14.28-42.9-1.6-9-2.64-18-3.84-27.08-1.83-13.81-2.15-27.78-4.65-41.52-.68-3.73-.5-7.64-.55-11.46s2.09-5.27,5.36-3.1a25.27,25.27,0,0,1,4.9,4.9c14.57,17.27,32.35,31,49.62,45.32,5.62,4.66,11.27,9.3,17,13.82,1.21.95,2.71,2.38,4.47,1.21s1.64-3,1.33-4.94c-1.74-11.14-3.59-22.26-5-33.43-2.52-19.57-1.57-39.23-1-58.85.3-10.95,2.7-21.7,4.1-32.54,1.73-13.33,3.66-26.63,5.49-39.95.07-.49,0-1,.13-1.49.64-3.24.69-7,4.71-8.06s6.48,1.89,8.65,4.69c5.71,7.35,11.08,15,17,22.12,13.11,15.71,25.8,31.72,37.68,48.38,9.85,13.81,18.66,28.29,27.85,42.54,1,1.59,1.76,3.35,4,3.12s2.33-2.21,2.83-3.71c4.35-13.07,8.38-26.25,13-39.24,7.05-20,15.64-39.19,28.43-56.29,4.51-6,9.67-5.92,13.09.86,4.34,8.61,8.25,17.43,12.21,26.22,4.39,9.72,10,18.71,15.32,27.93,8.8,15.34,18.72,30.25,22,48.14a33.62,33.62,0,0,0,1,3.33c.43,1.48.89,3.09,2.72,3.11a3.8,3.8,0,0,0,3.54-2.36c6.85-15.64,17.7-28.38,29.44-40.46,6.79-7,12.58-14.83,19.62-21.58,2.58-2.47,5.67-3.39,8.6-2.54,3.17.92,2.89,4.42,3,7.27.7,14.78,4.13,29.12,7.11,43.53,3.43,16.51,7.53,32.89,10.71,49.45,1.93,10.07,3.55,20.2,5.73,30.23.31,1.44.08,3.12,2.11,3.46,1.73.28,2.69-.59,3.63-2,8.56-12.7,20.44-22.1,31.91-31.91,3.4-2.91,6.78-5.86,10.24-8.7,2-1.64,4.42-2.85,6.9-1.54,2.24,1.18,2.56,3.61,2.63,6.08.2,6.85-1.82,13.41-2.41,20.17-.94,10.7-2.28,21.38-3.69,32-2.58,19.53-5.09,39.07-8.08,58.53-2.67,17.39-6,34.69-8.93,52-.36,2.13-.36,4.31-.52,6.47-.1,1.29-.77,2.84.54,3.72,1.57,1.06,3.11.24,4.64-.61q16.05-9,32.15-17.87a37.09,37.09,0,0,1,3.57-1.78c5.27-2.24,5-2.2,5.45,3.66.85,10.25-3.66,19.1-6.75,28.33a325.12,325.12,0,0,0-9.24,35.06c-4.3,20-7.69,40.31-17.38,58.82-7.52,14.36-13.82,29.38-22.59,43.07a318.93,318.93,0,0,1-20.63,27.92c-9.83,12.22-20,24.13-30.18,36a52.52,52.52,0,0,1-7.86,6.88c-1,.78-2.28,1.83-1.59,3.32.59,1.26,2.07.93,3.15.82,9.38-1,18.82-2.12,27.58-5.66,3.38-1.37,5.88-4.94,8.74-7.54,13.92-12.66,25.65-27.32,38.09-41.35,7.93-9,13.65-19.24,19.42-29.67,6.94-12.56,13.33-25.21,17.48-38.95C607,727,607.4,726.84,608.51,726Zm-219-68.09c19.26.27,37.12-.73,54.75-4.51,13-2.77,25.88-5.71,38.2-10.73,5.39-2.19,5.43-2.91,2.18-7.83-9.21-13.91-22.35-23.15-36.87-30.48A98.15,98.15,0,0,0,423,595.53c-.92-.18-1.94-.9-2.8,0-1,1.14-.11,2.17.37,3.18,1.42,3,2.81,6,4.29,9a14.93,14.93,0,0,1,.74,11.15c-3.12,11-10.34,18.3-20.68,22.7-12.6,5.35-25.67,6.31-39.27,5.47-11.9-.73-22.51-3.75-31.88-11.12a23.36,23.36,0,0,1-7.55-26.57c2.82-7.51,8.69-12.4,14.83-17,.85-.65,2.63-.7,2.21-2.26-.48-1.77-2.22-1.05-3.43-1.09-14.42-.49-28.41,2.25-42.14,6.2a222.54,222.54,0,0,0-24.94,8.73c-6.22,2.63-13.1,4-18.42,8.61-4.39,3.77-4.33,5.65.46,8.68,9.16,5.81,19.14,9.93,29.15,14,16,6.48,32.65,10.92,49.43,15.12C352.29,655.07,371.22,658.56,389.51,657.91ZM75.86,265.66c.16-6.47.67-13-3.38-18.73-1.07-1.52-1.8-4-3.83-2.81s-.79,3.47.36,4.78c2.55,2.91,4.63,5.42-1.09,6.92a1,1,0,0,0-.69,1.56c1.73,4-.46,7.35-1.58,10.91-1,3.15,1,6.13,4.3,6,2-.07,4-1,3.4,2.47A1.33,1.33,0,0,0,75,278.2c1-.2.87-1.26.88-2.06C75.87,272.65,75.86,269.16,75.86,265.66Zm6,405.65c-1.09,2.1-1.67,4-.63,5.9,3.19,5.86,1.3,12.42,2.65,18.51.93,4.22-2.89,9,1.2,12.62a15.93,15.93,0,0,1,5.26,10.19c.2,1.23.85,2.43,2.23,2.15,1.84-.37.86-1.75.62-2.79-3-13.15-5.87-26.31-9-39.4C83.56,676.22,84.91,673.35,81.83,671.31Zm-14-145.1c-2.4,2.36-3,4.18-1.27,6.89,1.37,2.12,1.87,4.83,2.63,7.31.32,1.06,0,2.82,1.62,2.47,2-.45.59-2,.54-3.24C71.18,535.13,67.64,531.59,67.86,526.21ZM56.47,261.08c-.46,3.29-.86,5.8.45,8.24.38.71.82,1.51,1.82,1.23s1.57-1.13,1.14-1.84C58.57,266.54,59.61,263.46,56.47,261.08Zm-2-14.35c.2,3.35.38,6.7.61,10,.06.94.56,1.58,1.61,1.33s1-1.14,1-2A15.27,15.27,0,0,0,54.47,246.73Z" transform="translate(-49.61 -5.5)"/><path d="M608.54,294.34q0,14.21,0,28.39c0,18,0,36,.07,54,0,3-.51,5.32-3.08,7.35-5.18,4.09-10,8.59-15.09,12.86-4.62,3.89-9,7.9-10.81,14-.42,1.43-1.09,3.11-2.84,3.11-2.17,0-2.16-2.08-2.74-3.6-1.25-3.26-.53-6.62-.42-9.88A352.86,352.86,0,0,0,570.54,343c-1.4-11-3-22-6-32.66-2.91-10.34-6.19-20.57-10-30.66-6.56-17.59-10.88-35.82-15-54.09-2.44-10.67-2.43-10.68,8.63-10.68,18.49,0,37,.11,55.48-.09,4,0,5.11,1.34,5,5.13-.21,9.32-.08,18.66-.1,28,0,1.84,0,3.52-1.71,4.94-15.44,13.21-28,28.68-37,47a4.42,4.42,0,0,0-.54,2.38q2.79,20.2,5.76,40.38c.2,1.31-.17,3.44,1.85,3.56,1.79.11,1.53-1.87,2-3,5.57-15,15.66-27.2,24.34-40.28,1.82-2.74,3-5.87,4.52-8.81Z" transform="translate(-49.61 -5.5)"/><path d="M72.79,17.12c1.5-.12,3-.22,4.48-.37,2.94-.29,4.73,1,5.5,3.83C86.39,34,93.45,46,98.28,58.86c.91,2.46,2.91,5.18,5.32,4.34,2.92-1,3.67-4.72,3-7.62-2.27-10.55-4.94-21-7.43-31.51-.58-2.48-2.72-5.35-.1-7.41s6.32-1.7,9.58-1.54c1.62.07,2.16,1.83,2.49,3.36,3.77,17.21,9.71,34,12.77,51.23,2.72,15.36,7.24,30.28,9.74,45.66,1.56,9.61,3.64,19.19,7.26,28.3,1.56,3.92.94,7.09-2,9.94-.84.81-1.64,1.65-2.42,2.52-6,6.8-6.62,6.92-9.37-1.56-4.24-13-12.5-24.26-16.27-37.5-.75-2.63-3.24-6.22-6.38-4.95-3.71,1.48-2.72,5.71-1.85,8.89,2.53,9.25,5.36,18.42,8,27.65,1.63,5.74,3.07,11.54,4.58,17.32,1,3.93.71,7.32-3.71,9-2.27.87-3.45,3.06-5.32,4.39-4,2.81-5.71,2.29-5.8-2.54-.2-10.79-3.89-20.9-5.4-31.42-1.74-12.2-5.61-23.92-9-35.68-3.61-12.6-5.11-25.6-8.79-38.14C72.31,55,69,38,63.48,21.64c-1.15-3.41.12-4.72,3.33-4.85,2-.08,4,0,6,0Z" transform="translate(-49.61 -5.5)"/><path d="M427.29,74.33c-2.27-9.07-.17-21.48-1.33-33.69-.47-4.91-.73-9.88-1.36-14.8-.5-4,1.08-5.09,4.92-4.31a25.45,25.45,0,0,0,7.45.26c4.41-.4,6.6,1.92,6.07,5.79-1.17,8.73,1.69,17.29.64,26.05-.23,1.91-.26,6.11,3.93,6.42,4.93.38,6.88-3.65,7.09-6.89.45-7,4.55-13.1,4.44-20.19,0-2.87,2.14-3.43,4.66-2.59,6.89,2.28,9.91,9.22,9,16.52-1.24,9.57-5.22,18.5-5.74,28.18-.21,4-2.28,7.57-3.24,11.45-1.82,7.35.6,13.86,2.54,20.45,5.78,19.59,11.82,39.11,17.95,58.59,1.84,5.84,4.27,11.48,6.5,17.19.49,1.24,1.41,2.52.53,3.72s-2.48.82-3.76.67c-8.08-1-13.41-4.66-15.94-13.16-4.49-15.09-10-29.88-15.09-44.8-.65-1.91-1.08-4.31-3.63-4s-4,2.33-4.23,4.91c-.17,1.65-.57,3.49-.05,5,3.13,8.87,1.37,18.54,4.62,27.37,1,2.8.64,5.87,1.6,8.77.85,2.56-1.1,3.09-3.24,2.78-7.68-1.12-12.18-6.12-13.11-13.88-1.13-9.38-2.71-18.7-4.24-28-1.68-10.25-4.23-20.52-3.93-31C430.54,93,428.06,85.38,427.29,74.33Z" transform="translate(-49.61 -5.5)"/><path d="M253,253c6.82-.06,9.91-3.51,8.37-10.16-1.39-6-3.5-11.74-5.33-17.59-1.32-4.21.22-6.28,4.46-5.61,1.8.29,3.54.9,5.4.68,3.27-.39,4.76,1.83,5.12,4.33a153.45,153.45,0,0,0,6.78,28c1.11,3.25.12,6.51-1.4,9.63-1.08,2.21-2.39,4.3-2.95,6.82-.48,2.18-2.24,3.29-4.75,3.68-6.61,1.05-13.57.88-19.47,4.9a3.16,3.16,0,0,1-2.42.27c-4.69-1.47-8-5.21-12.32-7.43-4.8-2.49-4.87-6.86-5.35-11.81-1.23-12.58-5.59-24.55-9.07-36.67a187.79,187.79,0,0,1-5.36-23.7c-1.47-9.77-4.35-19.35-6.78-29C206.3,163,206,157.48,209,150.82c3.88-8.6,8.28-11.29,17.67-10.71,7.45.45,12.08,3.36,16.36,8.44.86,1,1.44,2.37,2.49,3.11,10.73,7.53,12.95,19,14.18,30.82.27,2.68,4.34,5.3.64,8-2.48,1.83-5.52.1-8.3.27-3.58.22-5.32-1-5.88-4.93-.76-5.38-2.66-10.58-3.69-15.94s-5.14-7.46-9-9.75c-2.61-1.53-7.19.86-8,4.08-1.09,4.48-1.7,8.84-.37,13.69,6,21.88,11.55,43.87,17.06,65.87C243.85,250.59,246.33,253,253,253Z" transform="translate(-49.61 -5.5)"/><path d="M376.93,27.17c6.47,0,12.8-1.12,19.13-2.32a9,9,0,0,1,8.6,2.34c6.15,5.63,9.28,11.9,8.55,20.59-.74,8.89,1.51,17.74,2.51,26.61a9.8,9.8,0,0,1-2.12,7.44c-6.76,8.69-2.78,14,1.87,19.53,2.44,2.9,4.13,6,4,9.32-.7,15.92,4.23,31.11,5.63,46.75.12,1.39,1.18,2.87-.71,4s-3.32.61-5.15-.15c-11.59-4.81-14.32-14.9-15.24-25.8-.83-9.87-2.39-19.68-2.41-29.63,0-4.79-4.24-6-7.76-7.36-3.23-1.22-4.78,1.11-6,3.74-.9,2-2.43,2.18-3,0-3.56-14-12.76-25.93-14.13-40.7-.87-9.38-2.59-18.69-3.48-28.07-.6-6.27-.21-6.34,6.19-6.27C374.6,27.19,375.77,27.17,376.93,27.17Zm6,32.88c-.39,3.85.93,7.55,1.08,11.27.24,5.71,3.66,5.71,7.7,5.85,4.52.17,6.67-1.89,7.17-6.29.53-4.64-.57-9.2-.68-13.8-.08-3.23-1.09-7.79-5.84-8.84-3.44-.76-6.08.45-8.26,3.19S383.42,57.21,382.9,60.05Z" transform="translate(-49.61 -5.5)"/><path d="M224.17,30.75c-.56-3.47-.08-7-1.2-10.39-.66-2,.24-3.25,2.44-4A9.43,9.43,0,0,1,234.78,18c2.2,1.69.94,4.63.9,7.06-.09,5.56-.3,11.14-.07,16.69.33,7.88,1.19,15.74.71,23.64a23.52,23.52,0,0,0,.4,3.89c1.11,12,2,24.08,3.14,36.12.37,3.92-2.52,4.94-5.11,5.53-3.29.76-3.88-2-4.56-4.59-2.45-9.32-5-18.61-9.61-27.19-1-1.83-1.83-3.87-4.3-3.3s-1.59,2.88-1.75,4.59A101.31,101.31,0,0,0,216,107.57c.57,3.22-.22,6.32-3.87,7s-4.48-2.1-5.16-5.13c-2.42-10.87-7.09-21-10.92-31.34-5.51-14.94-9.94-30.28-15-45.39-1.47-4.38-3.66-8.51-5.19-12.88-.77-2.2-3.46-4.93.3-6.89,3.5-1.83,9.35.2,10.61,3.63,1.67,4.52,3.09,9.13,4.64,13.69A37.19,37.19,0,0,0,195.1,39a5,5,0,0,0,5.53,2.43c2.69-.56,2.58-2.7,2.51-4.72-.2-5.29.63-10.63-1.25-15.83-.65-1.78-1-4.28,1.64-5,2.38-.6,3.46,1.57,3.58,3.28.53,7.36,6.06,12.79,7.36,19.81.54,2.93,2.08,5.09,5.25,5,3.52-.11,3.85-3.35,4.34-5.77S224.17,33.24,224.17,30.75Z" transform="translate(-49.61 -5.5)"/><path d="M88.22,214.88c18.62,0,36.58.07,54.54-.06,3.21,0,4.24,1.32,3.82,4.15a123.42,123.42,0,0,0-1.06,30.27c1.49,14.84,1.63,29.75,3.34,44.55.47,4.09-.57,7.91-1.16,11.83a2.77,2.77,0,0,1-2.73,2.44,4.27,4.27,0,0,1-4.51-2.35c-3.12-5.1-6.41-10.08-9.45-15.22-5.2-8.77-12.1-16.2-18.51-24-4.28-5.23-6.24-11.66-9.08-17.6C98.17,237.87,93.45,226.64,88.22,214.88Z" transform="translate(-49.61 -5.5)"/><path d="M402.5,256c-1.44,8.15,2.84,14.45,4.41,21.32.78,3.43.44,5.94-2.94,7.37-3,1.25-5.74,1.21-6.76-2.51-2.09-7.62-4.59-15.05-5.32-23.11-1.28-14.2-4-28.2-9.64-41.51-5-11.93-11.25-23.35-16.29-35.22-5.23-12.32-10.46-24.68-15.44-37.12-1.32-3.28-1-5.87,3.35-7.15,10-2.91,9.89-3.11,13.12,6.73,1.56,4.73,3.43,9.36,5.06,14.07.88,2.57,2.37,4.77,5.16,4.62,3.35-.2,4.23-3.4,4.23-5.91,0-6.19,1.42-12.25,1.28-18.39-.09-4.33,1.66-4.3,4.74-2.79C394.9,140.09,399.9,150.58,398,159a11.9,11.9,0,0,0,0,6.35c1.81,6-.54,11.9-1.07,17.75-.84,9.3-.3,18.59-.57,27.84-.25,8.94,1.48,18.15,3.89,27C401.89,244.08,400.44,250.58,402.5,256Z" transform="translate(-49.61 -5.5)"/><path d="M157.1,57.35c1.43-.07,2.09-.12,2.76-.13,2.16-.06,3.83-3.2,6.32-1.06,2,1.69,1.36,4.35,2.3,6.46a21.47,21.47,0,0,1,1.44,4.72c.61,3.12,1,5.47-3.83,6-10.49,1.06-14.37,7.86-11.17,18,1.1,3.48,1.73,7.11,2.92,10.55,2.75,8,5.76,9.58,14.92,5.32,4.68-2.17,5.07-2.28,6.54,2.87,1.19,4.16.93,8.58,2.56,12.67.77,1.94-.42,3.55-2.15,4.57-8,4.74-16,9.39-24,14.2-3.56,2.16-4.47-.28-4.9-2.79-4.68-27.25-11.51-54-18.09-80.83-2.16-8.81-3.55-17.88-5.51-26.8-.94-4.23-3-8-3.77-12.35-.63-3.78.42-5,4-4.49,8.84,1.36,17.59,2.41,26.42-.7,3.44-1.21,4.61,2.45,4.93,4.84.49,3.74,4.87,7.6.48,11.27-1.14.95-3.53.47-5.35.53-6.54.21-8.59,2.09-9.19,8.54-.85,9.18,2.33,15.38,9.22,17.85A26,26,0,0,0,157.1,57.35Z" transform="translate(-49.61 -5.5)"/><path d="M295.12,24.59c-.47-3.28-1-6.88-1.52-10.49-.45-3.07.53-5.12,3.81-5.92s6.32-2.35,9.56-2.66c4.07-.38,3.49,3.26,3,5.43a82.69,82.69,0,0,0-2.22,16.21c-.22,8.77-.85,17.52-1.29,26.28-.36,7.08-1.24,14.19-.88,21.23a177.31,177.31,0,0,0,3.09,23.59c.94,5.07.33,10.3,2.08,15.24.57,1.63-.24,3-1.75,3.72-4.06,2.07-12-1-12.92-5.57-1.54-7.61-2.59-15.33-3.54-23-1.1-8.85-4.27-17-7.63-25.13C279,49,271.27,35.49,264,21.75c-1.9-3.58-1.15-5.35,3.09-5a19.49,19.49,0,0,0,8.7-1.8c3.49-1.41,4.55.43,5.66,2.78a79.3,79.3,0,0,1,4,9.14c1,3.09,2.56,5.11,6,4.61C295.3,30.9,295.11,27.8,295.12,24.59Z" transform="translate(-49.61 -5.5)"/><path d="M360.53,65.41c3.32,1.51,3.56,4.06,4.61,6,4.63,8.49,5.69,18.38,10.51,26.83,1.53,2.69-.3,5.22-1.86,7.31a4.47,4.47,0,0,1-5.9,1.26c-4.78-3.33-9.46-1.31-14.2-.49-1,.17-1.86.71-2.82.86-9.5,1.51-17.66-4.71-19.15-14.61-2.37-15.66-4.18-31.41-7.53-46.92-.79-3.68-.39-7.62-.48-11.45-.13-5.18-2-10-2.78-15.1-.69-4.58,1.6-8.13,7.32-10.45,3.65-1.49,6.84-.35,9.12,3,.46.69,1,1.36,1.44,2,1.76,2.51,3.2,4.09,1.31,8.22-2.18,4.75-1.59,11.17-.16,16.68,2,7.65,2.1,15.36,2.31,23.16.18,6.78,1.28,13.53,1.79,20.32.59,7.8,5.75,11.06,13.64,9.53,3.63-.71,7-9.12,5.06-14.06C361.28,73.71,362.25,69.78,360.53,65.41Z" transform="translate(-49.61 -5.5)"/><path d="M506.79,215.32c-13.5,10.14-22.5,22.88-34.24,32.86a41.7,41.7,0,0,0-12.4,17.2c-.52,1.38-1.49,2.59-2.11,3.95a5.18,5.18,0,0,1-5.24,3c-2.18-.06-2.74-2.05-3.11-3.94-1.53-7.79-3.14-15.57-4.66-23.37-2-10.08-6.09-19.49-9.14-29.72Z" transform="translate(-49.61 -5.5)"/><path d="M341,166.11c.32,3.18-.44,5-4.08,5.55-7.34,1.15-9.36,4-7.79,11.27,1.8,8.25,4,16.42,6.24,24.57,4.08,15.06,8.59,30,9.71,45.7.55,7.64,5.21,14.21,8.1,21.23.44,1.07,1.15,2,1.58,3.11.57,1.42,1,3.08-.07,4.3-1.2,1.4-3,1.13-4.68.72-5.61-1.4-8.71-4.89-8.82-10.91C341,261.47,338,252.11,334,242.89c-2.65-6.12-3.62-12.76-4.62-19.29-2.07-13.67-6.83-26.65-9.89-40-.74-3.25-1.62-6.46-2.2-9.73-1-5.62-4.23-9.14-9.85-9.73-5.82-.62-8-4.25-8.44-9.27-.27-3-3.4-6.83-.38-8.81,2.66-1.75,6.31,1,9.21,2.43,8.23,4.14,16.4,1.13,24.34-.47,4.48-.9,5.55-.09,6.09,4C338.91,156.7,340.07,161.39,341,166.11Z" transform="translate(-49.61 -5.5)"/><path d="M308.44,274c-7.62-.23-8.46-1-9.61-9.21-1.38-9.73-5-18.86-7.73-28.2-3.84-13.06-5.44-26.67-10.27-39.48-5.86-15.55-8.13-32-12-48.12a16.78,16.78,0,0,0-1.75-4c-1.92-3.59-.89-5.28,3.2-5.41,6.95-.22,11.31,2.94,12.16,9.88,1.67,13.65,7.25,26.28,9.88,39.64,3,15.32,10,29.49,12.46,45,1.74,11,6.11,21.35,9.45,31.93C316.35,272.58,315.48,274.17,308.44,274Z" transform="translate(-49.61 -5.5)"/></g></g></svg>