<svg xmlns="http://www.w3.org/2000/svg" viewBox="0 0 754.34 829.77"><title>ou</title><g id="Layer_2" data-name="Layer 2"><g id="Layer_1-2" data-name="Layer 1"><path d="M301.05,652.85c-6.58,2.49-6.27,1.71-9.47-4.56-2.91-5.68.65-11.3-1.93-16.75-1.48-.24-2.45,2.44-4,1.27-1.72-1.28-.19-3.06-.24-4.63a32.27,32.27,0,0,0-2.1-11.26c-1.93-5-5.14-10.06-5.69-15-.7-6.27-1.39-12.7-2.08-19-.62-5.65-2.87-11.13-3.06-16.95,0-1.15-.73-2.5-.33-3.39,3.87-8.59.88-17.69-1.6-25-2.61-7.72-.85-15.32-3.28-22.58a5,5,0,0,1-.1-3c3.18-9.43,1-19,.86-28.52,0-1.66-.55-3.95.31-4.87,3.82-4.1,1.77-8,.93-12.44-.88-4.72-.83-9.85-.84-14.62,0-11-4.4-20.94-5.91-31.5-.9-6.3-.18-12.52.46-18.81,1.43-14.2,2.09-28.41-.56-42.63-.88-4.66-1.14-9.64.81-14.29,1.85-4.43,1-9.53,3.7-13.83a17.43,17.43,0,0,1,5.44-5.63c13.76-8.77,27.44-17.66,41.21-26.41,2.63-1.66,4-3.44,3.72-6.82-.39-5.48.34-11-.24-16.48-.76-7.08,1.36-13.06,5.42-18.54a204.4,204.4,0,0,0,14.73-23c1.5-2.71,3.41-2.86,6.08-1.12,14.76,9.67,29.66,19.12,44.42,28.8a17.7,17.7,0,0,0,10.21,3.17c28.5-.11,57-.06,85.5,0a13.09,13.09,0,0,0,7.92-2.39c5.07-3.49,10.36-6.67,15.52-10,1.6-1.05,2.79-1.56,4,.6q7.11,12.76,14.44,25.4c1,1.76.8,3.53.81,5.33,0,18.83.14,37.66-.08,56.5,0,3.86,1.33,6,4.47,8,15.87,10.08,31.55,20.44,47.4,30.55,2.57,1.64,3.58,3.41,3.44,6.45-.42,8.8-.06,17.67-.94,26.42-.8,7.91-4.18,15.21-8.35,22-1.52,2.45-1.87,4.48-.58,6.92a4.41,4.41,0,0,1,.54,1.38c1.07,6.68-.21,13.83,4.9,19.67,1.17,1.34.22,4.25-1.37,6-2.44,2.68-1.42,4.59,1,6.64,5.66,4.71,5.87,10.74.7,16.05-1.07,1.1-1.82,1.68.05,2.94,4.49,3,5.86,7,4,12.38-.76,2.26-.58,4,1,5.44,3.78,3.64,3.77,8,2.39,12.49-1.13,3.63-1.3,6.52,2.23,9.17,4.22,3.17,2.36,7.63,1,11.43-1,3-.74,4.76,1.54,7,2.93,2.83,2.39,6.46.29,9.53-1.39,2-1.92,3.25-.26,5.59a8.67,8.67,0,0,1-.09,10.73c-2,2.65-2.09,4.75.55,7.31a8,8,0,0,1,1.93,7.43c-1.27,5.13-.44,10.28-.71,15.41-.17,3.09.73,6.46-2.65,8.56a1,1,0,0,0-.4.87c1.61,6.9-1.38,13.66-.66,20.46.49,4.56,1.62,8.9-3.08,12-1.16.77-1.47,1.86-.92,3.46,1.28,3.69.12,6.85-2.91,9.32-2.86,2.33-4.77,5-3.53,9a2.21,2.21,0,0,1,0,1.48c-2.54,5-4.73,10.11-4.26,16,.11,1.36-1.45,2.21-2.57,2.84-1.67.95-2,2-1.07,3.66a6.43,6.43,0,0,1-.71,7.12,64.88,64.88,0,0,0-8.55,13.07c-2.54,5.46-10.25,7.26-9.48,14.49,0,.16,0,.45-.09.47-5.48,1.66-4.08,8.05-7.86,11.19-4.24,3.52-4.79,9.42-6.12,14.45-1.18,4.42-1.76,8.48-6.1,11.3-3.63,2.35-5.07,6.84-6.62,10.65a50,50,0,0,1-6.47,11.46c-2.08,2.77-2.8,6.54-4.26,9.81-.62,1.42-.44,3.33-2.71,4.35-.08-3-2-5.88,1.93-7.7,1.34-.61,1-2.08.85-3.12-.65-4.59,2.33-7.85,5-10.3a7.58,7.58,0,0,0,2.83-5.2c.62-5.43,5.38-10,3.26-16a1,1,0,0,1,.34-.88c6.59-2.18,3.79-8.68,5.82-12.95,1.31-2.77,4.46-5.23,2.4-9.4-.61-1.25,1.72-4.21,3.73-5.52,1.81-1.19,3.18-2,1.85-4.63-.91-1.81,1-2.44,2.59-2.66,2.64-.35,4.82-.92,2.25-4.17a2.22,2.22,0,0,1,1.06-3.66c3.3-.77,3.63-2.59,3-5.38a4.84,4.84,0,0,1,1.54-4.51c3.39-3.66,3.71-9.17,7.6-12.57,1.2-1.05.35-2.45.27-3.75-.4-6.32,2.71-12.37,1.41-18.83-.39-2,1.82-3,2.8-4.47,1.61-2.42,4.66-4.1,2.85-8.16-.84-1.88,1.29-4.53,3.26-5.68,2.8-1.63,3.26-3.57,2-6.21-1.61-3.34-.76-6.61.57-9.65,1.08-2.46.73-3.93-1.42-5.45-3.14-2.22-3.27-5.45-1.51-8.41,2.39-4,2.41-8,1.43-12.38-1.35-5.92.47-8.34,6.33-9.18,2.94-.41,5.32-2.63,8.4-2.81a1.14,1.14,0,0,0,.85-1.56,2.33,2.33,0,0,0-1.28-1.3c-2.38-.43-4.45-.19-6.21,2-1.41,1.76-3.65,3.37-6,2.29s-2.67-3.77-1.9-5.72c2.74-6.91.87-13.14-2.05-19.34-.66-1.4.55-2.53.67-3.74.32-3.19,1.35-6.48-1.52-9.35s-.37-6.09-.07-9c.39-3.86.6-7-4-8.21-1.81-.48-1.06-1.68-.89-2.77.81-5.43,2.76-10.79-2.79-15.45-1.63-1.36-1.8-5.22-1-8.13.31-1.11.93-2.5.54-3.38-3.57-7.9-2.17-16.51-3.69-24.69a16.46,16.46,0,0,1,.32-8.35c.75-2.26.2-4.72-2.48-5s-2.11,2.32-2.24,4a17.86,17.86,0,0,1-.36,3.45,1.57,1.57,0,0,1-2,1.11c-.57-.16-1.39-.63-1.47-1.07-.41-2.46-1.3-5.86.78-7.07,3.58-2.07,3.35-5.33,3.45-8.12.25-7.41,3.8-14.31,2.82-22-.53-4.09.06-8.15-3.11-11.66-2.1-2.34-1.19-5.65-.81-8.65-.52.09-.95,0-1,.2-.8,1.45,1.29,4.06-1.53,4.59-2.36.45-2.9-2-3.68-3.45-5.62-10.73-16-13.59-26.51-14.77-8.85-1-17.88,0-26.39-3.69-2.19-1-3.64-1.3-3.16-4.43s-1.62-5.68-4.93-3.82c-8.24,4.64-15.33.21-22.64-2.3a5.2,5.2,0,0,1-3.61-5.4c.25-9.08-.41-18.22,2.33-27.09a3.68,3.68,0,0,0-.23-1.88c-2.57-9.22.92-15.15,10.39-18.42,6.61-2.29,13.45-3.44,20.22-5,2.09-.47,4,.32,5.79,1.12,4.48,2,9,1.32,13.81,1.07a7.53,7.53,0,0,0-4.69-5.13c-5-1.5-9.12-5.09-12.7-7.77-5.12-3.84-13.27-2.43-16.14-9.61-.27-.66-2.08-.73-3.19-1-7.61-2.05-15.43-3.19-23.08-4.92-10.56-2.4-20.44-1.37-30.89.6-7.6,1.43-15.08,3.43-22.68,4.84a26.67,26.67,0,0,0-10.39,4.55c-8.84,6.41-18.77,11.12-27.31,18a58.75,58.75,0,0,1-11.92,7c-2.83,1.33-3.86,2.59-1.53,5.06,1.32,1.39,2,2.93.71,4.39-1.46,1.68-3,.31-4.44-.51-1.76-1-4.3-1.49-4.5.68-.29,3.18-7.72,4.25-2.5,8.69,2,1.74,1,3-.69,3.73-2.93,1.18-2.71,3.55-3.32,6-1.25,5-1.87,10.5-7.51,13.43-2.77,1.45-4.27,4.71-4.73,7.87-.55,3.77-.52,7.63-.79,11.44-.25,3.48,3.19,7.78-2.54,10.19-.77.33-2.09,4.29-.79,5.5,3.14,2.93,2,6.45,2.25,9.72.39,4.37,4.07,6.29,6.22,9.35a10.21,10.21,0,0,1,2.14,6c0,3.52-.56,7,4.66,7.73,1.88.24,1.38,2.7.72,4.3-2.11,5.13-1.07,9.24,2.9,13.35,3,3.13,3,8,4.39,12.13.68,2-1.69,2.55-2.87,3.56-.85.72-1.59.11-1.93-.73-.73-1.77-1.64-3.78-3.83-3s-1.85,3.23-2.18,5.12c-.11.64-.08,1.31-.15,2.63-2.66-3-5.83-4.8-4.52-9.3.39-1.34-.62-3.22-1.3-4.71a5.88,5.88,0,0,0-5.56-3.49c-2.54.15-4.25,2.76-4.19,4.95.12,4.48-2.26,8.74-.93,13.23.77,2.64-2,3.51-2.35,5.19-4.93-3-7.41-7.84-9.63-12.78a7.46,7.46,0,0,1-.48-3.89c.82-5.95-1.91-12.06,1.06-18,.71-1.41.18-4.49-2.46-4.53-2.88-.05-1.17,2.44-1.36,3.83s.45,3.34-1.46,3.85c-2.51.67-2.95-2.23-4.48-3.15a1.38,1.38,0,0,0-1.3,1.81c1.37,6.33-.35,12.67.28,19.13.78,8,1.79,16.48.86,24-.81,6.64,2.45,13.53-1.18,19.81a1.06,1.06,0,0,0,.05,1c4.19,4.23,2.16,10.34,4.63,15.18a12,12,0,0,1-.09,11.48,11,11,0,0,0-1,4.55c-.67,6.86,3.86,13,2.21,20a3.68,3.68,0,0,0,1.29,3.62c4.26,3.67,2.63,8.56,2.72,13.07a1.82,1.82,0,0,1-1.82,2c-1,0-1.29-.73-1.54-1.6-.37-1.26-.75-2.75-2.6-2.25a1.58,1.58,0,0,0-1.22,1.91c.34,1.52,1,3,2.88,2.83,4.48-.5,5.08,2.12,4.54,5.54-.21,1.3-1,2.69-2.75,2s-3.11-.48-3.05,1.65a2.62,2.62,0,0,0,2.85,2.77,11.08,11.08,0,0,1,3.83.88c3.61,1.45,4.54,4.9,1.64,7.35s-3.28,3.29.74,4.6c5.22,1.69,8.17,10.23,5.83,15.34-1.17,2.54-2.07,5.21-3.09,7.82ZM476.34,375.58c4.17,0,7.07,2.79,11,2.41,2.18-.21,3,1.74,3.14,3.24.2,1.86-1.8,1.42-3,1.63-4.23.75-8,2-9.28,7.66,9.89-1.19,18.69-7,29.68-3.9-2-2.73-5-2.73-4.51-4.94.51-2.45,3.13-1.87,5-2.22,2.24-.42,4.32-.5,3.88-4.14-.4-3.28,1.08-5.07,5.11-3,2.35,1.21,3.09,2.33,3.22,4.76.16,3.06,2.87,3.92,5.26,4.31,1.11.18,3-1.77,2.57-2.5-1.71-2.65-1.74-6.55-3.92-8.24-5.11-4-10.29-8.29-16.45-10.34-4.71-1.56-10.17-2.36-14.74,1C487.61,365.49,481.75,369.49,476.34,375.58Zm57.79,33.23c-.4,3.07.79,4.41,2.57,5.19a3.14,3.14,0,0,0,4-1c1-1.62,1.1-3.8-.48-5-3-2.29-2-4.48-.81-7.21.75-1.7,1-3.93-.69-5.55-.86-.8-2.16-.82-2.44.31-.67,2.73-5.6,4.77-3.62,6.7C535.49,405,534.7,407,534.13,408.81Zm46.38,225.51c-.59-3.14-3.12-3.57-5.55-3.88-.86-.11-2.3.68-1.76,1.75,1.12,2.2,2.83,4,5.66,3.83C579.9,636,580.83,635.64,580.51,634.32Zm2.07-57c-1.72,2.26-2.39,3.78-4.32,3.78-1.6,0-4.38.26-3.76,2.39.5,1.7,3.09.83,4.86.3C581.77,583.09,582.65,581.47,582.58,577.35Z" transform="translate(-42.89 -19.4)"/><path d="M43,297c0-20,.14-40-.11-60,0-4.31,1.25-5.18,5.29-5.11q21,.39,42,0c3.78-.06,4.73,1,4.72,4.74-.14,36.17,0,72.34-.16,108.5,0,3.79,1.35,5.83,4.36,8a35.91,35.91,0,0,0,24,7.23c14.3-.71,28.66-.33,43-.1,4.72.07,8.76-.81,12.42-3.91a39.12,39.12,0,0,1,6.74-4.21,4.77,4.77,0,0,0,2.75-4.82c-.12-5.16-.13-10.33,0-15.5.07-2.43-.86-3.37-3.21-3.06-.16,0-.34,0-.5,0-11.35,2-20.43-2.8-29.41-9-11.73-8.13-23.92-15.59-36-23.22-2.54-1.6-3.45-3.5-3.45-6.51q.15-49.5,0-99c0-2.84,1-4.36,3.42-5.91q22.1-13.95,43.88-28.38a16.64,16.64,0,0,1,9.69-3.08c27.83.13,55.67.07,83.5.07,4.81,0,9,.76,9.47,6.88.14,2,2.07,2.47,3.42,3.34,13.44,8.66,26.88,17.32,40.39,25.86a5.41,5.41,0,0,1,2.88,5.22q-.12,48,0,96c0,2.68-.95,4.11-3.21,5.54C294,306,279,315.28,264.57,325.32c-5.25,3.64-10.49,3.44-16.07,3.46-8.69,0-8.69,0-8.69,8.59,0,6.84-.11,13.67.05,20.5a6.25,6.25,0,0,1-3.19,6.13c-15.39,9.85-30.68,19.87-46,29.87a13.9,13.9,0,0,1-8,2.22q-41.25-.1-82.5,0a14.52,14.52,0,0,1-8.37-2.57Q69.68,379.17,47.43,365c-3.06-1.95-4.58-4.08-4.53-8C43.13,337,43,317,43,297Zm124.05-56.47c0,12.67,0,25.33,0,38,0,1.68-.65,3.51,1.56,4.8,4.57,2.69,8.84,5.9,13.43,8.57,4.27,2.49,5.91,1.41,5.91-3.55,0-17.5.08-35-.05-52.48,0-3.05.76-4,3.88-3.94,14.33.17,28.66.26,43,0,4.38-.09,5.15,1.43,5.1,5.39-.21,17-.11,34-.08,51,0,5.18,1.86,6.22,6.28,3.53,3.69-2.24,7.22-4.76,11-6.84,2.69-1.49,3.5-3.41,3.49-6.42-.12-25.16-.06-50.31-.08-75.47,0-1.3.6-3-.53-3.82-5.63-3.88-10.44-9.63-18-9.71-18.83-.19-37.65,0-56.48-.16a11.23,11.23,0,0,0-6.5,2c-2.92,1.89-5.77,3.91-8.75,5.69a6.05,6.05,0,0,0-3.31,6C167.17,215.55,167.06,228.05,167.05,240.54Z" transform="translate(-42.89 -19.4)"/><path d="M538,163.5c0,19.84-.06,39.67.06,59.5,0,2.92-.64,4.82-3.28,6.49-15.72,9.94-31.32,20-46.92,30.18a9.67,9.67,0,0,1-5.67,1.37q-41.74,0-83.49,0a11.7,11.7,0,0,1-6.63-1.76C376,249,360,238.59,343.86,228.37c-2.07-1.32-1.77-3-1.77-4.71,0-8.84-.06-17.67,0-26.5,0-2.09-.2-3.86-2.86-3.35-13.35,2.59-23.62-4-33.9-11-10-6.8-20.26-13.3-30.47-19.82-3-1.94-4.45-4.16-4.43-8,.18-32.17.13-64.33,0-96.49,0-3.29.79-5.5,3.76-7.37C290,41.19,305.58,31.06,321.2,21a10.71,10.71,0,0,1,6.18-1.51q40.75,0,81.49,0a13,13,0,0,1,7.45,2.32c15.31,10,30.58,20,46,29.8a6.15,6.15,0,0,1,3.23,6q-.14,49,0,98c0,3.56-1.14,5.54-4.3,7.5-14.39,8.91-28.76,17.9-42.63,27.58-5,3.48-9.89,3-15.1,3.18a18.57,18.57,0,0,1-3.5-.05c-4.65-.76-7,.77-6.05,5.8a4.2,4.2,0,0,1,0,1.5c-2.11,10.63,1.54,18.07,11.76,22.38a17.43,17.43,0,0,0,7,1.83c18-.05,36-.15,54,0,7.95.08,12.67-5.86,18.69-9.35,1.68-1,.73-3.43.73-5.19.05-35.66.11-71.32-.05-107,0-4.37.83-6,5.65-5.93,13.66.36,27.33.28,41,0,4.05-.07,5.38.87,5.33,5.16C537.87,123.17,538,143.34,538,163.5ZM414.79,107.08c0-10.67-.4-21.35.15-32,.34-6.61-1.27-10.79-7.38-14.33s-11.74-6-19-5.7c-14.48.52-29,.65-43.48,0-9.82-.45-15.67,6.21-22.95,10.44-1.2.7-.85,2.08-.85,3.21q0,38,0,76c0,1.77.26,3.31,1.85,4.34,4,2.61,7.95,5.45,12.14,7.78,5.06,2.82,6.82,1.67,6.82-4,0-16.83.1-33.66-.06-50.49,0-3.52,1-4.51,4.5-4.47,14.32.18,28.66.24,43,0,4-.07,4.59,1.39,4.55,4.89-.16,16.83-.09,33.65-.07,50.48,0,4.94,2.47,6.37,6.79,3.84,3.72-2.17,7.24-4.68,10.95-6.87,2.44-1.44,3.18-3.32,3.15-6.12C414.7,131.74,414.79,119.41,414.79,107.08Z" transform="translate(-42.89 -19.4)"/><path d="M797.09,346.11c0,20.17-.06,40.33.06,60.49a6.64,6.64,0,0,1-3.5,6.42Q770.73,427.57,748,442.49a12.21,12.21,0,0,1-7,2q-41,0-82,0a12,12,0,0,1-7-2.09q-23.35-15.27-47-30.08c-2.08-1.3-2-2.78-2-4.54,0-8.83-.2-17.66.06-26.49.1-3.61-1.11-4.84-4.52-4.31-11.22,1.74-20.45-2.29-29.43-8.84-11-8-22.72-15-34.19-22.35a7.22,7.22,0,0,1-3.8-6.84q.18-49,0-98a6.41,6.41,0,0,1,3.28-6.12c15.38-9.85,30.66-19.84,46-29.79a14.1,14.1,0,0,1,8-2.23c26.83.06,53.66.1,80.48-.08,3.71,0,6.4,1.73,9.12,3.47,15.11,9.62,30.1,19.43,45.17,29.11,2.65,1.7,2.26,4.22,2.26,6.67q0,41.75,0,83.49c0,4.5-.2,9,.07,13.49.19,3.24-1,5.22-3.68,6.92-14.4,9.23-28.91,18.31-43,28-5.59,3.86-11.36,2.94-17.21,3-7.71.12-7,.08-7.88,7.53-1.25,10.42,1.57,17.83,11.65,22,2.27,1,4.16,2.36,6.88,2.34,18.16-.12,36.32.06,54.48-.14,7.86-.09,13-6,18.83-10.18.89-.64.55-3.14.55-4.78,0-35.66.1-71.32-.07-107,0-4.47,1-6,5.72-5.84,13.15.34,26.33.27,39.49,0,4.35-.08,6,.81,5.9,5.66C796.91,306.45,797.1,326.29,797.09,346.11Zm-215-56c0,12.66,0,25.32,0,38,0,1.34-.72,2.9,1,4,4.37,2.73,8.45,6,13,8.38s6.89.65,6.89-4.53c0-16.83.09-33.65-.07-50.48,0-3.46,1-4.53,4.48-4.49q21,.3,42,0c3.89-.07,4.7,1.25,4.66,4.87-.18,16.66-.09,33.32-.07,50,0,5.8,2.47,7.15,7.63,4.07,3.27-1.95,6.38-4.19,9.66-6.12a6.34,6.34,0,0,0,3.6-6.23c-.16-23.15-.33-46.31.07-69.46.12-6.49-1.54-10.37-7.3-13.93-5.93-3.67-11.52-5.73-18.53-5.48a372.56,372.56,0,0,1-38-.08c-10-.66-18.08,2.27-25.76,8.08-2.35,1.78-3.46,3.45-3.42,6.48C582.15,265.47,582.05,277.8,582.05,290.12Z" transform="translate(-42.89 -19.4)"/><path d="M456.86,681.08c4.68-2.32,4.08-5.46,2.06-8.45-3.09-4.58,1.7-7.8,1.81-11.82,0-.78,1.46-1.29,2.55-.84a1.9,1.9,0,0,1,1.15,2.43,37,37,0,0,1-1.08,4.82c-1.05,2.9.64,5.8,2.42,6.18s4.57-1.61,5.22-4.37c1.18-4.94,1.95-9.81,1.19-15-1-6.89-4-12.66-7.94-18.12-.69-1-1.14-2.21-2.61-1.7a2.69,2.69,0,0,0-1.76,2.77,17,17,0,0,1-2.05,8.57c-1.25-5.54-1-10.08-1.94-14.37-1.09-5.23-5.38-5.77-8.48-8.06-1.1-.81-2.26.28-2.43,1.62a11,11,0,0,0,0,4c1.63,6.19,2.19,11.74-2.76,17.3-3.34,3.76.41,14.93,6,20.18-5.2.05-8.28-5.1-13.57-2.76A60.72,60.72,0,0,0,439,637.7a11.27,11.27,0,0,0-.62-4.4c-1.39-3.09-3-5.89-3.66-9.53-1.06-5.62-7.53-6.85-12.09-9.22-10.58-5.5-21.47-10.41-31.63-16.67-3.24-2-6.3-3.38-10.24-2.85-3.15.42-6.63.64-6.83-4.18a2.11,2.11,0,0,0-1.83-2.1c-5-.64-7.68-4.62-11.24-7.35-2.85-2.19-5.73-2.42-8.57.08-.95.84-1.78,2.39-3.3,1.4a3.59,3.59,0,0,1-1.69-3.91c1.65-5.14.31-9.67-1.94-14.3a5.27,5.27,0,0,1,1.84-7.08c1.05-.75,1.66-2.14,2.72-2.88,1.61-1.12,1.76-4.55,4.71-3.44,3.36,1.26,0,3.27.26,5,.43,2.42.55,4.22,4,2.7,4.76-2.13,9.75-3.55,14.31.89a4.26,4.26,0,0,0,3.2,1.11c10.5-1.88,19,4.17,28.06,7.36,7.38,2.59,14.32,2.51,21.93,1.34,9.14-1.42,18.35-2.22,27.46-4.1,2.74-.57,6.05,1.27,9,2.24,6.28,2.05,12.53,3.46,19,.7,1.36-.58,2.73-.79,3.95.84,3.38,4.52,8.58,5.61,11.87,1.43,4.14-5.26,11.77-6.85,13.74-14.46.92-3.53,4.54-2.12,7.17-.55,1,.59,2.19,2.3,3.34.63.83-1.22-.14-2.42-1.29-3.36-.86-.71-1.22-1.9-2.37-2.47-2.54-1.27-2.87-3-.08-4.15,3-1.24,2.11-2.38.34-3.77a7.79,7.79,0,0,1-2.31-3.18c-1.24-2.85-.83-4.47,2.74-4.26,1.92.11,3.06-.89,3.4-2.87,1-5.62,5-9.53,9.28-12.08,6.53-3.92,8.51-10,9.92-16.38.78-3.58,3.34-7.89-1.27-11.33-1.11-.82-.12-2.53,1.65-2.63,3.78-.21,9.78,7.26,7.58,10-4.06,5.11-2.72,11.59-5.52,16.8-3.09,5.74-.62,12.6-4,18.3-.63,1.07.16,2.89,2.13,1.53,1.25-.86,2.31-2.18,3.77-.43,1.6,1.94-.83,1.93-1.4,2.82-1.06,1.68-.4,3.57-.52,5.35-.15,2.44-.08,4.54-2.09,6.78-2.3,2.57,1.39,4.86,2.45,7.08s2.61-.41,3.3-1.29c2.1-2.69,6.16-2.68,8.1-7.41.55,4.78-1.2,9.12,3.48,10.82-1.88,2.71-.61,4.58,1.22,6.84,1,1.21-1.1,1.94-2.32,2.43s-3.06.24-3.34,2.37c-.21,1.55,0,3.55-2.15,4-2.58.58-2.25-2.51-3.84-3.25-4.25,4-2.81,8.31-.35,12.36,1.72,2.84,3.29,4.83-.12,8-1.88,1.73-2,5-1.59,8.46.81,7,.58,14.23,2.23,21.23.07.32-.11.76,0,1,3.65,5.16,3,11.78,5.93,17.17.8,1.51,1.67,2.65-.33,3.59-2.62,1.23-2.51,3.64-2.77,6.4-3.25-1.68-6.95-4.2-5.51,2.85.37,1.81-1.43,4.38-2.78,6.19-9.24,12.35-18.46,24.58-31.27,33.85-5.3,3.84-10.77,8-15.13,13.24a5.41,5.41,0,0,1-1.34,1.43c-3.56,1.9-7.11,3.89-11.39,3.47.59,6.36-6.06,4.29-8.51,7.21a3,3,0,0,1-4.48-.29c-1.36-1.59.73-2.6,1.06-3.94a1.83,1.83,0,0,1,.95-1.12c6.74-2.43,9.13-10.31,15.92-12.65.31-.11.87-.21.9-.37,1.19-8.4,13.5-12.18,9.42-22.88-.76-2-2.5-3.76-4.35-2.34-6.64,5.1-14.58,3.79-22,4.52C468.16,680.53,463.26,683.79,456.86,681.08Zm57.73-73.75c.07-5.75-1-7.13-5.94-6.78-1.7.13-2.69-.36-3.16-1.61-1.48-3.92-4.08-2.34-6.51-1.46-4.16,1.5-2.84,7.87-7.72,8.84a4.1,4.1,0,0,0-.06,1.44,4,4,0,0,1-1.74,3.91c-2.4,1.47-3.27,4-3.61,6.3a79.18,79.18,0,0,0,.35,27.25c.3,1.51.22,3.59,2.32,4.44,1.19-4.28,1.64-8.27.59-12.49-.48-1.9-1.16-4.92,1.17-5.94,6.06-2.67,9.33-8.29,14.07-12.32,1.06-.91,3.11-1.35,2.42-3.2s-2.56-1.13-4-1.21c-2.31-.12-5,.32-4.74-3.38.22-3.06,2.25-5.41,3.41-8.08a2,2,0,0,1,3.6.16c1.13,3.33,2.46,5,6.09,2.92C512.3,605.44,513.12,607,514.59,607.33Zm-37.81,42.94c1.38-.49,1.17-1.42,1.24-2.19.61-7.38-1.08-14.75-.08-22.15.18-1.35,0-3.61-1.93-3.4-6.08.7-8.77-2.9-10.69-7.75-5.18,4-6.68,10.38-2.69,14.55A71.2,71.2,0,0,1,476.78,650.27Zm3.65,23.19c3-1.5,8.76-1.59,11.08-7.78,1.66-4.44.1-7.54-4.63-7.71-2-.07-4,0-5.16-2.17-.42-.79-.66-2.15-2-1.6-1.17.48-.72,1.72-.73,2.63-.08,4.08.46,8.1-2.9,11.62C475.07,669.48,472.74,674.33,480.43,673.46ZM499,660.16h0c0,1-.07,2,0,3s-.48,2.48,1.2,2.81a3.07,3.07,0,0,0,3-1.32c1.38-1.57,1.67-3.16.36-4.92-.81-1.11-2.67-1.59-2-3.59a1.18,1.18,0,0,0-1.21-1.66c-1.05,0-1.29.86-1.31,1.73C499,657.51,499,658.84,499,660.16Zm-20-48.81c-.08-1.42-.37-3-1.51-2.32a9.74,9.74,0,0,0-4.65,7.16c-.32,1.94,2,2.62,3.1,2.34C480,617.45,476.79,613.08,478.94,611.35Zm27.85-16.52c1.59-.71.95-3.28,2.89-3.66,1.63-.33,2.39-1,1.64-2.7-.24-.55-.6-1.65-1.21-1a48,48,0,0,0-4.51,5.62c-.18.26.4,1.09.67,1.64C506.32,594.8,506.57,594.78,506.79,594.83Z" transform="translate(-42.89 -19.4)"/><path d="M401.52,370.46C403.46,372,405.68,372,408,372c5.75,0,9.26,3.53,10.05,9.39.82,6.17,1.54,12.07-6,14.79a1.19,1.19,0,0,0-.79,1.6c3.22,5.66-3.29,7.17-4.63,10.88-.19.53-.95,1.21-1.58.57-4-4.08-6.84.3-8.77,2-6.68,6-15.12,3.58-21-.74-.92-.68-1.58-2-2.92-1.52s-1.22,2-1.06,3c.57,3.63-1.44,4.1-4.35,4.09-6.71,0-13.31-.73-19.41-3.64-4.63-2.22-6.9-7.41-11.55-9.75-6.55-3.29-6.31-9.6-6.82-15.57a4.43,4.43,0,0,1,.76-3.18c3.23-4.84,6.32-9.79,9.22-14.83.93-1.6,2.65-1,3.75-2.12,2.64-2.74,5.56-5.22,8.35-7.82,1.08-1,2-2.5,3.65-2.32,8.72.9,15.83-4.34,23.84-6.09a74,74,0,0,1,9.85-1.33c5.68-.47,10.17,2.09,14,6,2.07,2.13,3.69,3.07,5.5-.5,2-4,4.31-4.07,7-.42a15.18,15.18,0,0,1,2.77,10.86c-.29,2.52-2.61,4.68-4.39,3.23C408.45,364.63,405.22,367.83,401.52,370.46Zm-27.1,15.64a40.58,40.58,0,0,1,8.17-1.67c5.18-.69,10.6.2,15.55-2.3a3.63,3.63,0,0,0,2.11-2.5c.51-1.89-1.15-1.73-2.07-2.1a25.4,25.4,0,0,1-8.43-6c-4.3-4.46-9.94-5.26-15.38-5.33-12.7-.16-23.26,4.5-30.38,15.64-1.7,2.66-4.93,5.78-3.1,8.27s5.38.18,7.83-1.62a2.75,2.75,0,0,1,3.28-.05c1.45.94.63,2,0,3-.49.8-1.46,1.66-.24,2.5.93.64,1.84.24,2.61-.61,2.79-3.1,7.24-2.89,10.51-5.18a2.87,2.87,0,0,1,4,.8c.77,1.42-.3,2.44-1.43,3.29-.47.36-1.22.65-.75,2,8.69,1.35,15.67-5.91,24.39-5.12A83.76,83.76,0,0,1,374.42,386.1Z" transform="translate(-42.89 -19.4)"/><path d="M334,541.9c.29,10.6,2.92,20.71,5.74,30.88,1.46,5.29,2.91,10.63,4.24,16a33.49,33.49,0,0,0,7.61,14.37c1.9,2.12,5.5,2.78,8.41,3.89a2.08,2.08,0,0,1,1.56,2.19A1.68,1.68,0,0,1,359.6,611c-1.26,0-2.86-.61-3.26,1.29s.11,4.38,1.61,4.94c5.64,2.13,6.07,7.49,8,11.87,2.15,4.89,2.75,10.6,8.3,13.48,1.2.62,2.12,2.86,1.16,3.88s-2.88.87-4.4-.51c-5.23-4.74-11.68-8.58-15.65-14.18-4.11-5.8-8.23-10.4-15-13-3.72-1.42-4.47-4.21.07-6.45a2.87,2.87,0,0,0,1.68-3.74,3.57,3.57,0,0,0-3.61-2.21c-2,.29-2.2,2.17-2.34,3.91-.09,1.13,1.21,2.84-1,3.21-1.71.29-1.88-1.47-2.72-2.41-7.52-8.37-10.18-18.71-11.85-29.41-.24-1.57.44-3.26.61-4.91a4.73,4.73,0,0,0-1-3.74c-5.6-6.82-5.77-11.28-.65-18,1.3-1.7,1.41-3.49,1.46-5.58.12-4.91,0-9.92,2.93-14.35,1.87-2.77,4.38-4.28,7.47-3.73,3.87.7,2.17,4.17,2.45,6.56A35.55,35.55,0,0,1,334,541.9Z" transform="translate(-42.89 -19.4)"/><path d="M506.36,503.63c-3.94.05-6.28,1.83-6.61,5.88-.07.94.05,2.18-1.51,1.88a1.07,1.07,0,0,1-.95-1.44c1.78-5.56-2.13-3.46-4.81-3.75.27.84.38,1.3.56,1.72.55,1.28,3.64,2,1.43,3.78-1.88,1.49-4.58.94-6.5-.44-1.26-.91-.22-2.11.9-2.71,1.33-.71,2.86-1.12,1.76-3.25-.75-1.44-1.6-2.85-3.32-2.3-6.26,2-8.78-2.16-11.57-6.44-3.31-5.06-9.3-5.63-14.35-7.61-1.27-.5-3.31.51-4.29,2.05-1.45,2.27,1.61,2.87,1.82,4.56-2.64,1.53-5.32,1.18-8.05.1-1.07-1.87,4-2.86,1.07-4.56a10.46,10.46,0,0,0-10.08-.1c-2.72,1.39.62,2.9.63,4.87-8.33-1-14.65,4.34-21.81,7.11-4.9,1.9-9.86,1.34-14.78,1.62-2.65.16-3.45-1.75-1.7-3.92,1.24-1.54,2.6-3.35,4.32-4.05,7.19-2.94,11.56-9.29,17.4-13.83,2.67-2.06,5.64-2.49,8.88-2.48,2.43,0,5.54,1,6.07-3.16.19-1.51,1.87-1,2.94-1.07,5.25-.38,10.51-.39,15.4-3,2.89-1.55,5.87-1.3,8.87.77,2.39,1.64,5.35,2.48,8.07,3.62,1.07.45,2.67.42,3.21,1.18,4.78,6.78,13.9,6.89,19.44,13.35C501.89,495.6,504.78,498.83,506.36,503.63Z" transform="translate(-42.89 -19.4)"/><path d="M300.87,653c1.32,0,2.94.28,3.79-.77,3.69-4.61,6.28-.9,8.28,1.42,2.53,2.93,3,6.24-1.36,8.62-1.12.62-2.81,1.7-2.14,3.52.53,1.42,2.25,1.68,3.42,1.66,3.1-.05,4.11,1.57,4.2,4.27.08,2.51.24,5.06-3.66,3.71-1.37-.48-2.85-.33-3.25,1.28s1.24,1.53,2.18,2.13c3.34,2.15,8.26,3.75,3.93,9.23-.74.94.26,1.45.63,2.12,1.65,2.95,2.3,5.84-.26,8.7a3.6,3.6,0,0,0-.17,4.26c2.32,3.34,1.23,6.65.52,10-.48,2.28-1.14,4.48-.16,6.84a3,3,0,0,1-1.41,3.88c-.9.59-1.92,2-1.25,2.31,4.58,2.49.63,7.37,3.12,10.38.77.94.56,2.12.15,3.32-1.79,5.26-.65,10.62-.55,16,.14,7.81-.24,15.64-.77,23.44-.49,7.23-3.35,14.13-3.31,21.47a2.46,2.46,0,0,1-2.07,2.47c-.42-7.82.29-15.38,1-23a70.42,70.42,0,0,0-.68-17c-.82-5.64.37-11.22-.46-16.85a72.62,72.62,0,0,0-3.28-14.91c-1-2.63-2.62-5.68.21-8.32.9-.84.5-1.38,0-2.07-4.05-5.6-3.89-12.07-3.82-18.52,0-1.31.61-2.7-.36-3.85-2.31-2.75-.95-5.38.31-7.89,1-1.89,2-3.84.48-5.58-2.37-2.81-1.59-6.74-2.83-9.16-3-5.84-.16-12.2-3.07-17.68-1.67-3.13,3.22-3,2.76-5.56Z" transform="translate(-42.89 -19.4)"/><path d="M432,438a11.34,11.34,0,0,1,5.85.92c3.72,1.3,7.3,2.43,10.31-1.36a1.18,1.18,0,0,1,.86-.46c6.61,1.46,12.38-1.65,18.43-3.25,1.9-.5,3.46.87,5.16,1.52,3.86,1.47,6.45,5.26,11.3,5.25,2.73,0,7.18,12,5.18,13.88a13.37,13.37,0,0,1-10.9,3.23c-5.54-.85-11.69-.73-15.51-6.37-1.26-1.85-3.57-1.4-5.49-.48-4.92,2.36-9.68,2.61-14.5-.45-4.48-2.85-9.41-.38-14.11-.78-.74-.07-1.05.71-.88,1.46.27,1.17,3,2,.7,3.52a12.09,12.09,0,0,1-7.51,2,8.08,8.08,0,0,1-4.06-1.77c-1.69-1.26-1.74-4.54-.73-4.68,5.22-.7,3.64-5.35,5.43-7.93C423.86,438.78,427.74,437.6,432,438Z" transform="translate(-42.89 -19.4)"/><path d="M503.23,811.61c.42-.53.73-.88,1-1.26.86-1.18.71-4.16,2.86-3,1.77,1,1.57,3.8-.09,5.19-2.86,2.4-2,4.88-2,8.11.11,7.27.78,14.76-1.4,22.46a9.9,9.9,0,0,1-2.36-7.84c.59-5.94-1.2-11.89.17-17.82.31-1.33-.53-3-1.59-2.4-5.84,3-10.51-1.41-15.68-2.24-4.37-.7-8.76-1.11-13.15-2.36-7-2-11.6-6.74-11-14,.71-8.19,1.1-8.49,9.68-8.57,5,0,9.94-.21,14.28,3,1,.73,2.72,1.36,3.72,1,6.43-2.42,9.48,2.41,13.1,5.88,2.06,2,1.37,4.69.86,7.09S500.64,809.72,503.23,811.61Z" transform="translate(-42.89 -19.4)"/><path d="M403.89,216.45c23-2.23,46-5.25,68.79,2.68-1.9,2.77-4.45,2.91-7.18,2.9-16.46-.05-32.92-.22-49.37.08C411,222.2,407.52,219.67,403.89,216.45Z" transform="translate(-42.89 -19.4)"/><path d="M460.58,521.07c-5-.56-10,.22-14.85,1.17-3,.58-5.22.63-5.13-3,.06-2.48-5.5-2.91-2.24-5.8,1.5-1.31,4.41-1,6.67-1.48,7.43-1.59,15-1.57,22.49-1.37,2.66.07,4.74-1.33,7.2-1.51,3-.23,5.54-.06,4.6,4.09-.07.32-.27.74-.14,1,3.92,6.32-1.69,5.31-4.72,6A52.51,52.51,0,0,1,460.58,521.07Z" transform="translate(-42.89 -19.4)"/><path d="M386.89,638.92c1.86,5.19-2.36,10.47-.77,16.11a2.2,2.2,0,0,1-1.21,2.51,1.86,1.86,0,0,1-2.54-.84c-.78-1.09-3-1.85-1.64-3.59,2.32-3,.65-5.22-1.08-7.51-.69-.9-1.9-1.85-.74-3,3.26-3.12,2-7.1,2.36-10.79.17-1.69-.93-4.64,2.35-4.24,2.46.29,4,2.15,3.8,5C387.25,634.54,387.09,636.51,386.89,638.92Z" transform="translate(-42.89 -19.4)"/><path d="M393.91,658.6c3.06-10.58,2.66-20.83,3.13-31a19.69,19.69,0,0,1,2.52-8,2.55,2.55,0,0,1,2.91-1.43,3.18,3.18,0,0,1,1.76,1.6c.62,1.41-.62,2.3-1.57,2.68-4.93,2-3.6,6.88-3.18,9.78a39.54,39.54,0,0,1,.36,10.18,44.24,44.24,0,0,0,0,7.46C400.2,656.24,400.25,656.23,393.91,658.6Z" transform="translate(-42.89 -19.4)"/><path d="M429.11,627.27c-3,3.05-3.39,6.28-3.16,9.84.3,4.88-1,9.72.13,14.72.66,2.84.21,5.87,2.58,8.23.8.8,1.3,2.15,0,3.06-1,.75-1.72-.32-2.55-.84-3.45-2.16-4.81-6.32-3.78-9.06,2.7-7.24-.8-14.25.5-21.35C423.7,627.43,423.45,627.09,429.11,627.27Z" transform="translate(-42.89 -19.4)"/><path d="M323.73,501.7a16.22,16.22,0,0,1,1.22,3c.37,2.21,2.25,4.86.58,6.55-2.06,2.09-4-.4-5.93-1.57-.88-.54-2.26-.19-3.34-.51-1.37-.42-3.09-.77-3.12-2.66a4.63,4.63,0,0,1,2.22-3.67c1.55-1,2.08.94,2.95,1.72C322.25,508.13,322,503.51,323.73,501.7Z" transform="translate(-42.89 -19.4)"/><path d="M529.28,509.53a12.88,12.88,0,0,1-.83-10.39c1.19-3.69,4.45-1.91,6.77-1.11,2.93,1,.63,2.92,0,3.91A95,95,0,0,1,529.28,509.53Z" transform="translate(-42.89 -19.4)"/><path d="M526.21,517c0,3-4.48,9.88-7,10.69-.87.27-1.65.2-2.08-.68-.29-.58-.47-1.51.24-1.74,4.52-1.49,3.72-5.7,4.61-9,.41-1.49.84-2.47,2.53-2.28C526.42,514.19,526.11,515.71,526.21,517Z" transform="translate(-42.89 -19.4)"/><path d="M308.57,808.88c1.38,5.91,2.17,11.4-.77,16.74C306.91,820.13,306.65,814.67,308.57,808.88Z" transform="translate(-42.89 -19.4)"/><path d="M313.4,567.07c-2.25,2.27-3,5.51-5.35,8-1.33-1.43-2.6-2.8-4.27-4.58C307.17,569.14,311,570,313.4,567.07Z" transform="translate(-42.89 -19.4)"/><path d="M304.53,849.18c-.89-6.37-2.87-11.6.55-17.72C305.61,837.67,305.83,842.92,304.53,849.18Z" transform="translate(-42.89 -19.4)"/><path d="M544.91,460a16.08,16.08,0,0,1-3.29-7.77c-.19-.95-.59-2,1-2.24a2,2,0,0,1,2.27,1.42C545.84,453.82,545.52,456.22,544.91,460Z" transform="translate(-42.89 -19.4)"/><path d="M535.37,802.25a2,2,0,0,1-2.44,2.06c-1.75-.2-3.91-.18-4.22-2.6-.18-1.32,1-1.51,2.07-1.45C532.57,800.36,534.48,800.27,535.37,802.25Z" transform="translate(-42.89 -19.4)"/><path d="M358.94,589.94c2.8-.92,4.77-2.59,6.86-.84.88.73.92,3.16-.06,3.6C363.13,593.88,361.62,591.43,358.94,589.94Z" transform="translate(-42.89 -19.4)"/></g></g></svg>