<svg xmlns="http://www.w3.org/2000/svg" viewBox="0 0 567.11 828.55"><title>pawn</title><g id="Layer_2" data-name="Layer 2"><g id="Layer_1-2" data-name="Layer 1"><path d="M477,726.64c-3.73-3.16-5.71-5.83-6.1-10.39-.49-5.77-2.75-11.39-4.14-17.1-2.42-9.93-6.33-19.4-8.94-29.32-2.34-8.84-.69-17.58-2.44-26-1.89-9.09-.05-18.4-2.92-27.36-1-3.18-.16-7-.24-10.44s-1.09-6.32-4.54-8.06c-4-2-8.06-4-11.51-6.72-7.7-6.09-16.29-10.8-24.63-15.78-3.57-2.13-7-5.65-12.09-5.41-3.81.18-5.74,1.62-5.48,5.33.63,9-1.49,18.2,1.38,27.19.88,2.75-1.59,4.36-4.32,6.66-.46-22.34-1.33-43.71,2.05-65.39-2.93.64-4.69,1.49-5.78,4.83-2.2,6.69-4.57,13.46-9.29,19a5.46,5.46,0,0,0-1.49,3.58c0,1.15-.19,2.68-1.87,2.19-1.41-.4-1-1.93-.91-3,.32-5,3.82-8.86,5.29-13.22,3.05-9.11,8.71-16.88,11.75-25.88,1.31-3.87,2.88-7.64,4.34-11.45.63-1.64,1.1-3.81-.68-4.4-2.7-.88-5.72-3.31-8.57-.28-1.65,1.76-.15,3.94.8,4.74,3.86,3.26,1.4,6.09.13,9.25-1.92,4.77-5.2,8.9-5.75,14.34-.3,2.92-2.23,6.09-3.74,8.27A38.31,38.31,0,0,0,371,566.49c-.33,1.66-.82,4-3.76,3.76-2.53-.16-4.06-1.22-4.78-3.54-.66-2.08-2.8-4.31-.16-6.29,6.14-4.59,7-11.36,8.28-18.2,1.11-6,4.35-11.4,6.69-17s4-11.42,7.11-16.71c1.32-2.27,2-2.79,3.82-.83,2.36,2.51,6.06,2.47,8.71,4.45a1.54,1.54,0,0,0,2.65-1c1-6.48,7.24-11.19,6.11-18.41-.24-1.58,1.53-2.49,2.52-3.54,1.32-1.42,1.25-2.51-.21-3.68-1.7-1.35-2.67-.18-3.74,1s-.92,2.43-1,3.75c-.07,2.61.53,5.49-3.74,5.47-1.73,0-1.21,1.6-.54,2.64,1.94,3-1.31,3.91-2.38,5.65-1,1.57-2.28,1.39-3.85.5-2.1-1.19-4.83-2.81-4.18-5,1.24-4.14,2.27-8.82,6.8-11.08a14.56,14.56,0,0,1,2.91-.64c-3.29-2.69-3.5-5.35-.64-8.21.76-.75.91-2.08,1.48-3.07,1-1.71,2.57-4.06,1.38-5.33-1.8-1.91-3.51,1.61-4.9,1.55-7.7-.36-5.87,6.42-8.05,10.12-2.66,4.51-3.44,9.83-5.12,14.64-2.34,6.73-5.17,13.34-7.67,20-3.26,8.65-5.15,17.88-9.93,26a5,5,0,0,0-.79,3.31c.75,5-2.66,8.68-4.34,12.74-3.74,9.06-8.12,17.8-8.38,27.87a10.18,10.18,0,0,1-.73,3.85,3,3,0,0,1-4.13,1.75,2.5,2.5,0,0,1-.94-3.85c2.14-2.89.45-6.56,2.43-9.51a3.65,3.65,0,0,0-.95-4.57c-1.93-1.59-2.38,1-3.6,1.31-9.18,2.41-7.44,11.71-11.11,17.57-3.56,5.7-4.43,12.84-9.18,17.93-1.09,1.18-2.24,4-4.11,2.18a4.33,4.33,0,0,1,.27-6.28c5-4.25,6.15-10.67,9.28-16,1-1.7,1.58-3.68,0-5s-3.35-.12-4.77,1.19c-5.25,4.84-12.15,7-18,10.9-4.42,3-9.08,5.57-13.56,8.46-6.21,4-12,8.94-19.41,11-4,1.11-4.7,4.32-1.8,7.17,2.41,2.38,3.4,5.59,4.6,8.56,2.88,7,5.22,14.29,8,21.39a21.27,21.27,0,0,0,3.25,5.5c7.78,9.78,7.44,21.78,9.83,33.17a91,91,0,0,0,6.63,20.29c3,6.32,5.67,12.82,5.66,20,0,1.49-.31,3.38.45,4.39,4.49,6,2,13.22,3.87,19.72,2.29,8,4.22,16.33,4.34,24.55.12,8,3.35,15.06,4,22.74.17,2.09,1.15,4.11,1.38,6.21.14,1.29.78,3.38-1.38,3.65-1.61.21-3.31-1.42-3.14-2.63.83-6.22-2.18-11.74-3.63-17.3C312,785.1,313.3,774,309.57,763.35c-2.05-5.87-3-12.84-3.38-19.19-.57-8.94-4.25-16.88-5.6-25.45a30.66,30.66,0,0,0-4.35-11.85c-4.47-7-3.67-15.52-6.2-23.09a33.92,33.92,0,0,1-1.94-11.62c.08-3.81-3.89-5.5-5.22-8.83-2.28-5.69-5.63-10.83-7.64-16.83-1.64-4.88-2.93-10.23-5.89-14.81-3.12-4.83-9.26-6.27-13.42-2.37-1.86,1.74-5.34,1-6.1,4.36-.19.84-1.78.37-2.54-.43-1-1-1.91-2.19-1-3.51a13,13,0,0,1,3.73-3.91c3.62-2.09,3.85-5,.6-7.54a114.29,114.29,0,0,1-30-34.36c-1.79-3.19-4.45-5.73-6.56-8.68-3.59-5-5.64-10.77-9.07-15.81-6.1-8.94-10.9-18.67-17.33-27.43-8.07-11-16.38-21.84-22.86-33.95-3.13-5.86-8.73-9.79-13.47-14.41-6.74-6.56-11.15-15.15-17.84-21.88-5.21-5.25-10.38-10-17.36-13.38-6-2.92-11.29-8.44-14.84-14.55-1.54-2.64-3.81-3.93-5.7-5.89-7.16-7.43-12.37-16.24-17.46-25.12a5.88,5.88,0,0,1-.84-2.79c0-1.39-.7-3.33,1.21-3.9s1.8,1.49,2.56,2.46c5,6.45,7.38,14.79,13.57,20.19,6.46,5.63,10.11,13.34,16,19.31,4.93,5,10.77,5.44,16,.9.5-.43,1.14-1.28,1.5-1.18,6.79,1.89,7.78-3.41,9.51-7.66,1.8-4.41,5.1-7.64,8.14-11.12,1-1.2,2.56-2.27,2.1-4.68-4,.58-5.9,3.19-7.81,6.34-3.07,5-4.62,11.53-11.65,13.24a3.28,3.28,0,0,1,.32-4.44c3.62-4.08,5.7-9.29,9.81-13,3.84-3.5,5.67-8.58,10.19-11.85,4.05-2.94,3.21-8.8,0-12.86-7.86-9.8-16.62-18.6-28.49-23.24-5.79-2.26-10.75-6.47-17.36-6.94-3.31-.24-5.73-3.62-9.62-3.41s-8,0-11.32,2.73a5.06,5.06,0,0,1-4.27.79c-1.66-.29-2.34-1.22-1.09-2.78,4.63-5.75,16.46-7.45,23.6-4.62,7,2.77,13.78,5.91,21,8.26,7.94,2.58,15,8.28,21,14.8,6.15,6.77,11.53,14.21,17.45,21.08,7.21,8.38,15,16.53,24.24,23.11,4.74,3.36,8,8.93,11.61,13.75a21.72,21.72,0,0,0,4.2,3.94c3.78,3,9,2.5,12.77,5.9,1.73,1.56,5.31.93,8-1.56,5.81-5.34,8.75-11.66,10-19.41.61-3.83,3.57-7.28,5.47-10.89a17.63,17.63,0,0,0,2.15-10c-.74-7.83,1.87-16-2.31-23.48a2.15,2.15,0,0,1,.27-2.31c3.19-5.64,3.48-11.66,2-17.77-.89-3.62-1.71-7.24-3-11,0,2.38-.05,4.76,0,7.14a4.11,4.11,0,0,1-2.69,3.87c-1.65.8-3.19.17-4.42-1.28-2-2.39-4.12-4.73-4.48-8.82-2.65,2.67-3.86,6.51-8.25,5.3-1.76-.48-3.56-.34-4.81-2-1.4-1.9-3.28-2.31-5.24-1-2.59,1.77-3,.39-3.33-1.91-.45-3.62.45-6.88,3.59-8.69,3.83-2.2,7.6.15,10.52,2.14,4,2.75,8.42,1.54,12.54,2.16,2.54.38,5-1.62,3.15-5.74-3.66-8-7.72-15.44-16.19-19.2-4.14-1.83-8.37-3.9-13-3.43-3.43.34-6.63-1-10.17-.47-2.27.37-3-2.47-3-4.84-.09-6.23.95-12.62-2.31-18.53-1.41.73-1,3.25-3.51,3.22a13.68,13.68,0,0,0-2.5-6.51c-.23.08-.66.14-.67.25-.28,2.49-1.3,6.15-3.14,5.92-3.09-.38-1.8-4.07-1.85-6.38,0-2.47-1-5.41,2.07-7.28,1.5,2.11,1.91,5.49,5.93,2.07,3.56-3,2,2.14,3.28,3.19,1.64,0,1.25-2.62,3.21-2.46,5.15.4,10.36.33,15.45,1.09,1.78.26,2.72-.46,4.05-.89,3.8-1.23,5.82.27,5.52,4.21-.14,1.87.61,2.43,2.2,2.44,4.5,0,9,.08,13.5,0,4.33-.11,3.07-3.66,2.52-5.53-1.36-4.58-1.82-9.42-3.18-13.84-2.72-8.81-.74-17.51-1-26.32,1.28,4.14,3,8.1,3.09,12.57,0,1.41-1.51,4.41,2.43,3.7,1.11-.19,1,1.47.74,1.92-3,4.53,1.21,9,0,13.45-1.23,4.63,3.61,7.33,3.48,11.58,0,.25.71.61,1.15.75a3.69,3.69,0,0,0,1.48.14c14.48-1.17,28.79,2.31,43.25,1.57,1.47-.07,3,.21,4.28-.92.9-.79,1.68-2.38,3.28-1a2.63,2.63,0,0,1,.51,4,1.5,1.5,0,0,0-.19,1.82c5.95-.66,7.16-2.76,4.52-7.79-.53-1-.89-2.13-1.34-3.19-1.48-3.53-2.93-5.5-5.84-.81a6.68,6.68,0,0,1-5.57,2.76c-2.45,0-4.41-.82-5-3.22s.48-4.84,3.15-5.4c2.37-.5,4.07-1.31,4.72-3.73.43-1.58,2.08-3.61-1.45-3.67-1.23,0-1.6-1-1.81-2-1.07-5.13-4.65-9.47-4.65-14.94a2.93,2.93,0,0,0-.44-1.89c-4.25-4.14-3.5-9.45-3.52-14.57,0-6.61-2.3-9.05-9-9.32a61.68,61.68,0,0,0-10,.06c-7,.83-13.53-3-20.53-2.1-1.7.21-2.24-1-2.29-2.55-.07-2.48,1.6-2.52,3.35-2.52l27,0c6.79,0,7.08-.48,4.55-6.6-.87-2.1-2.07-4.09-1.93-6.74-1.89,1.3-1,2.85-1.13,4.11-.15,2.1-.05,4-3.07,4-2.79,0-4.6-1-4.85-3.82-.21-2.45,0-4.93,0-7.77-3.79.68-6.38,3.14-9.91,2.89-1.58-.12-2.73,1.85-2.81,3.61-.11,2.21-.79,3.38-3.26,3.24-2.17-.12-4.42.29-5-2.76-.16-1-1.05-1.83-1-2.75,0-2.92-1.51-4-4.1-3.41s-5.25,1.14-5.49,4.65c-.56,8,.57,15.89,2.17,23.67.58,2.84.29,5.61.63,8.39.19,1.55-.62,2-2.06,2s-2.32-.38-2.26-1.92c.33-9.11-5-17.54-3.21-26.83.21-1.1.29-2.76-.34-3.4-4.21-4.26-3.12-9.58-3-14.59a61.35,61.35,0,0,0-5.54-26.67c-3.23-7.44-3.93-16-5.69-24s.37-16.45-2.84-24.38c-1.28-3.16-3.17-2.22-5.08-2.38-2.59-.21-3.21,1.57-2.8,3.58.64,3.17,1.81,6.25,2.4,9.43.46,2.49,1.7,6.43-1.43,6.84-2.1.28-7,1.52-7.77-4.33-.33-2.68-.18-6-2-8.52-3.09-4.19-6.23-7.44-12.52-7.22-16.15.56-32.33.45-48.49,0-6.06-.15-11.78,1.56-17.72,1.74-1.17,0-2.34,0-3.5,0-2.75.11-4.58-.94-4.75-3.87-.2-3.6,2.58-2.79,4.57-2.8,16.16,0,32.33,0,48.49,0,9.67,0,19.33,0,29,0,2.26,0,4.6.13,4.27-3.2-.26-2.51,1.41-6-3.44-6.14-3.51-.09-3.78-3.42-4.39-5.69-2.86-10.62-6.54-21-10.18-31.33-.89-2.51-2.17-5.24.7-7s6.22.34,7.35,4.12c1.77,6,3.46,11.93,5,18,.43,1.72.89,2.74,2.82,2.65s2-1.26,2.2-2.69c.67-4.89,1.69-9.7,1.63-14.73-.08-7.08,1.81-8.44,8.89-6.9,1.73.38,1.75.09,2.17-1.31,2.57-8.71,5.85-16.89,14.9-21.2,3.06-1.45,5-.74,8.08.44,8.58,3.3,11.4,11.12,15.08,17.9,2.31,4.26,2.53,9.77,5.66,13.9C246,76.05,247,82.22,252.17,87c-.45-8,1-15.21-.88-22.37-.46-1.76-1-3.61,1.62-3.55,1.82,0,4.58-1.52,5.19,2a223.05,223.05,0,0,1,3.4,35.63c0,3.12,1.25,7.4-3.43,8.16-4.49.72-7.91-1.58-9.91-6.58-1.88,4.92-.72,9,1,13,.67,1.55,2.25,1.2,3.53,1.2,18.49,0,37,0,55.49-.15,4.68,0,5.91-2.71,4.63-9.79-2.65,1.13-6.13,1.1-4.13,5.87.9,2.17-1.7,2.06-3,1.88a10.12,10.12,0,0,1-4.47-1.81c-4.13-3.31-9.71-3.66-13.66-7.19-2.42-2.16-4.44-4.72-5.1-7.77-1.71-7.9-3.29-15.92-.26-23.87,2.05-5.35,5.82-9.22,11.42-10.62,6.18-1.55,7.07-2.67,6.2-8.83-.36-2.54-.93-5.58,2.17-7,2.57-1.22,4.94.6,6.16,2.16,1.76,2.25,1,5.53.56,8.21-1.25,7-1.44,6.94,5.59,9.77.87-.23.87-1,.79-1.61-1.48-9.88,2.31-19.3,3.69-28.75s3.65-20.05,11.52-27.92,20.14-7.12,25,2.69c3.8,7.59,5.68,15.82,7.26,24.28,1.85,10,1,19.8,1.37,29.68.2,5.31-1.27,10.45-2.73,15.41s.41,9.65,1.46,14.05C364.05,98.84,364,104.37,364,110c0,3.54,1.24,4.71,4.65,4.57a106.15,106.15,0,0,1,14.49,0c4.78.48,3.83-3.1,4.12-5.34.39-3-2.38-2.11-4-2.11-3,0-5.92-.13-8.6-1.83a5.39,5.39,0,0,1-2.7-5.44c.18-2.43.38-4.13,3.44-2.08a12.15,12.15,0,0,0,7.93,2.35c3.07-.24,4.3-2.43,5.42-4.54s-.91-3.54-2.23-4.51c-2.76-2-5.88-3.56-8.79-5.39-5.12-3.22-7.86-13.23-4.92-17.72,4.62-7,13.58-9.34,19.87-5.15,1.45,1,2.71,2.1,2.77,3.92.1,2.72.58,6.09-4,3.38-1-.56-2.42-.34-3.27-1-3.51-2.68-5.88-.63-7.19,2.19a5.32,5.32,0,0,0,2.89,7c5.17,1.94,8.89,5.4,12.5,9.24.83.89,1.68,2.68,3.16,1.47s.28-2.71-.64-3.88c-.71-.92-1.53-1.76-2.28-2.65a2.82,2.82,0,0,1,.07-4c1-1.17,2-1.71,3.42-.73,2.68,1.79,3.13.11,3.14-2.12,0-3.5,0-7,.05-10.5,0-2.12.48-4.5,3.18-4,7.25,1.22,7.69-4.57,9.4-8.86,2.63-6.61,6.3-12.09,13.34-14.58a5.8,5.8,0,0,0,.85-.51c3.08-1.76,5.86-4.53,9.56-.53,2.37,2.56,4.82,4.5,6.69,7.93,4.12,7.55,1.16,15.36,3,22.64,1.56,6.22.06,12.37,1.37,18.42.71,3.28-2.15,5.86-1.69,9.19.28,2.09.31,4.5,2.77,4.48,2.65,0,2.23,1.49,2.12,2.84-.14,1.8.89,4.46-2,4.87-3.75.52-2.74,3.2-2.64,5.32.14,2.82,2.54,2.18,4.21,2.16,19.48-.21,38.95.49,58.45-.31,7.21-.3,14.37.1,21.55-1.43,3.61-.77,7.52.4,11.28.74,6.17.55,12.47-.57,18.72-.61,24.66-.18,49.32-.19,74-.3,2.51,0,4,.57,4,3.63,0,3.55-2.16,3.56-4.61,3.56h-62c-22.16,0-44.34.42-66.49-.13-19.47-.48-38.8,2-58.23,1.73-3.42,0-4.17,1.46-4.15,4.53.11,15,.05,30.1.08,45.14,0,4.15.24,8.32-1.52,12.23-3.6,8-1,15.89.87,23.66.89,3.65.86,6.28-3.26,7.21-2.05.47-2.13,1.72-2.07,3.32.08,1.92,1.43,2,2.8,2,14.17,0,28.33,0,42.5.1,3.48,0,3.7-3.64,6-5,.62-.36,0-2-.78-1.95-3.44,0-4.69-3.48-7.54-4.29,2-5.58,6.22-4,10.06-3.05,1.94.48,4.3,1.68,4.66-1.18.33-2.62,2-5.93-1.65-8-1.84-1.06-3.8-1.91-5.35-3.56-4.3-4.59-5-13.05-1.24-17.74,3.07-3.86,12.6-4.61,17.51-2,3.05,1.63,2.33,4,1.75,5.93-.73,2.44-2.86,1.59-4.47.56s-3.55-.79-5.34-.75a3.45,3.45,0,0,0-3.57,3.95c.34,2.2,2,4.74,4.61,4.37,4.41-.65,7.72-4,11.52-6.06a2.37,2.37,0,0,0,.38-2.26c-1.09-2.13-1-4.09,1.17-5.06,1.73-.77,3.92-1.08,5.53.74s3.17,4.18,1.85,6.13c-5,7.36-7.45,15.83-11.13,23.76-2.55,5.49-5.43,10.68-12.94,10.07-3-.24-2.32,1.32-1.09,3,2.46,3.38,6,2.07,9.21,2.31s2.27-2.45,3.23-3.93c3.19-5,5.25-10.5,8-15.66,3.27-6.19,6.3-12.48,10.21-18.3.92-1.37.25-2.52-.58-3.64a37.25,37.25,0,0,1-6.16-12.08c-.33-1.16-1.15-2.08.06-3a2.82,2.82,0,0,1,3.28-.07c5,2.62,7,7.07,5.63,13.21,3.63-3.59,6.87-6.62,9.9-9.86,4.22-4.51,12.32-6.93,17.52-5,4.7,1.71,10.1,9.75,10.54,15.5,1,13-2.73,24.82-7.15,36.49-2.05,5.42-6.36,9.95-8.8,15.28-6.21,13.54-10.49,28-17.9,40.93-5,8.68-6.55,17.5-5.84,27.12.3,4-.67,7.05-5.63,6.67a2.73,2.73,0,0,0-2.8,1.74c-3.71,9.2-9.74,17.41-10.81,27.77-.4,3.81-2.31,7.71-3.8,11.37-4.06,9.95-11.51,18.47-14,29-2.58,10.78-7.62,21.08-7.13,32.56.08,1.75.49,3.77-1.93,4.59-1.18.39-1.14,1.51-1.16,2.5-.09,5.6-1.18,11.23-1.33,16.66-.28,10.13-1.37,20.21-2.1,30.25-.89,12.47-.61,25.08-3,37.44-1.51,7.85-2.67,15.83-4.94,23.47-3.37,11.37-4,23.14-6.24,34.64a102.41,102.41,0,0,1-4.24,15.39c-3,8.25-1.24,16.45-1.73,24.65a3.51,3.51,0,0,0,2.47,3.47c4.3,1.39,6.85,5.1,10.38,7.5,1,.66,2.73,1.51,1.63,2.88a3,3,0,0,1-4,.87c-1.84-1.1-3.79-2-5.7-3-3.62-1.82-5.9-.72-4.71,2.78,4.83,14.17.7,28.85,3,42.94,1.27,7.66,3.35,15.5,5.43,23.17,1.52,5.58,3.81,11,4.23,17.11.37,5.46,3.18,10.81,5.25,16.08S477.91,719.62,477,726.64ZM328.88,329.93c.55-.36,1.38-.59,1.6-1.09,2.2-5,2.31-5.14,6-.7,2.44,2.91,4.94,4.29,8.6,2.44a5.6,5.6,0,0,1,2.84-.71c13.11,1.31,26-2.65,39-1.88,1.16.06,2.34-.08,3.5,0,3.1.28,5.86.36,5.92-4.05,0-1,.66-2.9,2.35-2.78,1.94.13,1.5,1.92,1.51,3.14,0,2.29.46,3.76,3.3,3.74,8.72-.06,17.45.1,26-1.91.86-.2,1.64-.37,1.83-1.36s-.09-1.76-1-2c-1.58-.35-2.62-3-4.78-1a2.27,2.27,0,0,1-3.8-.67c-.91-1.73-3.18-3.45-1.56-5.66,3.46-4.74.09-5-3.23-5.06-5.16-.13-10.33,0-15.5,0a7.86,7.86,0,0,1-5.05-1.5c-6.87-5-12.75-10.84-22.59-11.5-9.51-.63-19-3.4-28.71-3.13-3.74.1-7.56.69-11.12-1.62a5.31,5.31,0,0,0-5.32.19c-4.05,2.61-8.42,1.12-12.64,1.41-1.91.13-3-1-3.36-2.84,3.47-.48.8-6.87,5.7-5.91a2.05,2.05,0,0,1,1.4,1.14c.63,3.42,3.64,2.91,5,2,3-2,6-1.54,9.09-1.56,2.3,0,4-.9,4.74-2.92s-.16-3.53-2.32-4.72c-1.32-.73-4.18-2.24-2.49-4.32,1.34-1.67,3.7-3.48,6.53-1.43,1.86,1.35,4.06,2.22,6,3.44,2.41,1.49,4,1.68,5.35-1.52.9-2.12,2.42-4.54,5.45-4.47,3.3.07,3.72-2,3.69-4.6-.07-5.5,0-11,0-16.5,0-1.6-.23-3.11,2.07-3.9,4.21-1.46,5-4.6,1.18-7.33-3.48-2.49-3.36-5.3-3.27-8.54.08-2.47-.87-3.33-3.38-3.81-5.21-1-6.43,2-6.68,6.38-1.82-6.44-2.49-6.72-8.72-3.95a2.37,2.37,0,0,1-1.36.3c-7.79-2.19-15.7.33-23.51-.62a1.57,1.57,0,0,0-1.86,1.21,35.65,35.65,0,0,0-1.39,20.52c2,8,1.34,15.93.85,23.77-.3,4.84-1.09,10.71-3.76,14.53-4.2,6-3.73,13.63-8.19,19.27-.64.81.39,1.82.7,2.74,1.75,5.29,5.58,8.93,9.54,12.51,1.19,1.08,2.06,3.23,3.84,2.69,2-.62,1.09-2.87,1.1-4.38,0-3.87,2.08-7.1,5.44-7.17,5.14-.1,6.33-2.21,5.9-6.63-.18-1.82.83-2.72,2.73-2.66s2,1.46,1.94,2.79c-.24,3.74.35,7.38-1.31,11.2-1.53,3.51-4.9,6.67-3.71,11.15a5.73,5.73,0,0,0-1.92.14c-2.57,1.19-1.68,2.93-.89,4.9s2.22,2.26,3.54,1.48c2.2-1.3.3-2.81-.25-4.24A17.35,17.35,0,0,1,328.88,329.93ZM222.6,448c4.74,4.59,10.34,5.65,16.23,4.63,2.88-.49,5.54-2.15,8.65-1.59,1.11.2,2.53-.17,2.87,1.34a2.78,2.78,0,0,1-1.51,3c-7.23,4-15.76,4.59-22.52,1.78-6.38-2.64-13.19-5.41-19.11-9.55-3.89-2.73-5.45-1.56-5.49,3.38a9.87,9.87,0,0,0,.74,4.37c1.21,2.69.95,5.65.41,8.36-.35,1.72-.72,4.92-2.75,4.74-2.6-.23-1.13-3.22-1.47-5-.55-2.84,1.51-6.6-1.28-8.44-4.3-2.83-4.49-7.28-4.93-11.19a20,20,0,0,0-4.82-11.61c-8.12-9.25-18.92-15.58-27-24.84a2.92,2.92,0,0,0-3.21-.78c-1.7.51-1.59,2-1.46,3.33.37,3.44-.87,6-3.36,8.38a74.69,74.69,0,0,0-9.68,12c-3.11,4.47-4.37,10.11-10.32,13s-5.61,5.76-.41,10.23a19.34,19.34,0,0,1,2.37,2.58c4.55,5.66,10.05,10.51,13.61,17,2.24,4.11,7.69,5.43,10.31,8.87,5.34,7,11.89,13.29,14.82,22.05,1.34,4,3.62,3.88,6.82,1,2.87-2.59,4-7.94,9.79-6.47,1,.26,2.25-1.79,2.3-3.44a4.56,4.56,0,0,1,1.34-3.62c.74-.65,1.42-1.62,2.52-.94s.75,1.59.5,2.65c-2.57,10.69-5.53,21.33-4.43,32.55a17,17,0,0,0,2,7c3.58,6.61,8.44,12.28,11.72,19.27,5.32,11.33,12.58,21.84,19.89,32.17a231.87,231.87,0,0,0,23.69,28c3.94,4,8.28,7.72,15.08,6.53,3.79-.66,4.63-4.35,7.44-5.29,8.49-2.83,14.78-9.19,22.4-13.4,5.37-3,10.12-7.19,15.66-9.74,7.39-3.41,13.71-8.28,20.39-12.7,1.28-.84,1.55-1.8,2.07-3.05,1.84-4.44.92-9.22,1.94-13.66a153.93,153.93,0,0,0,2.85-19.41c1.48-14.82-1.71-29.27-3.58-43.76a56.59,56.59,0,0,0-4.49-14.92c-1.18-2.67-3.43-1.26-5.21-1.53a1.71,1.71,0,0,0-2.16,1.53c-.25,2.18,2.12,1.75,2.92,2.87.64.9,2.65.57,2.27,2.16a2.94,2.94,0,0,1-3,2.19c-1.31,0-2.63-.13-3.84.74-2.76,2-4.65,1.63-5.08-2.11-.12-1.05-.42-2.13-1.73-1.87s-1.14,1.44-1.22,2.43a18.3,18.3,0,0,0,2.24,9.53c1.35,2.7-1,6.73,3.54,8.48-.56-4.66,1.46-7.69,5.46-9.52a3.61,3.61,0,0,1,4.19.35c1.05.92,1.68,2,1,3.52-1,2.21-1.09,4,1.73,5.15,2.17.92,2.11,2.64.33,4.29a20.31,20.31,0,0,1-3.53,2.69c-2.69,1.62-2.28,4.21.26,4.74,5.59,1.16,3.53,4.34,2.69,7.42-.21.77-.76,2.09-.51,2.26,4,2.84,0,7.25,2.12,10.46.63.94-.23,2.13-1.14,2.43-2.32.77-4.15,4.09-7.11,1.76s-3-6.67-1.49-8.13c4-3.92-1.05-5.16-1.54-7.72.79,8-1.95,15.57-2.06,23.32-.1,6.86-4.53,12.67-3.79,19.58.11,1-.81,2.12-1.37,3.13-.46.84-1,1.88-2.21,1.5a2.45,2.45,0,0,1-1.91-2.08c-.17-1.52.52-2.81.95-4.23,2.35-7.67,5.58-15.14,5.33-23.44-.19-6.32,0-12.66-.07-19,0-5-.34-9.64-2.23-14.54-1.59-4.14-4-8.74-3.74-13,.37-6.16-2.51-11.27-4.31-16.34-3.25-9.2-8.53-17.74-13.44-26.27A115.82,115.82,0,0,0,269,428.14c-2.52-2.31-5.66-3.81-8.51-5.34-4.35-2.34-6.86,2.41-9.75,4.78-4.82,3.95-9.19,8.33-14.76,11.5C231.39,441.67,226.09,443.48,222.6,448Zm172.82,94.64c2.69,5.73,1.35,11.79,1.65,17.71.1,1.8,1,2.53,2.5,3.25,4.9,2.42,9.86,5.1,14.33,7.88,9.47,5.88,19.12,11.47,28.6,17.35,1.16.71,3,.91,3.34,2.72.47,2.3,2.11,2.48,3.8,1.69s2.12-1.84,1.63-4c-1.07-4.71-1.46-9.86,0-14.33A145.46,145.46,0,0,0,457,551.16c1.17-8.42,5.73-16.13,4.93-24.92a3.78,3.78,0,0,1,1.16-2.64,6.45,6.45,0,0,0,1.88-5.94c-1.42-9.72,4.93-18.56,3.19-28.31a2.16,2.16,0,0,1,.26-1,49.6,49.6,0,0,0,2.74-15.92c0-7.32-.82-14.8.4-21.93,1.28-7.45,2.94-14.75,3-22.39,0-6.08-1.16-12.27,1.2-18.27.64-1.6-.09-2.9-2.24-3.64-4.3-1.48-8.74-2.71-12.89-4.28s-4.67-.56-6.87,2.47c-5,6.84-3.69,15.5-8.53,22.75-5.6,8.38-9.1,18.44-12.55,28.23-1.58,4.49-3.05,9.24-5.58,13.48-1.75,3-4,6.35-3.88,9.45.12,2.74,4.9,2.41,7.16,4.32a51.81,51.81,0,0,0,4.93,3.25c1.14.77,3.44,1.13,2.32,3.05s-4.08,1.59-4.82.53c-3.11-4.49-8.93-3.39-12.5-6.65-1.48-1.34-2.46-.79-3.94.48-3.13,2.68-2.75,6.5-4.07,9.75-3.35,8.23-8.92,15.5-11.27,24.15-.85,3.09-3.48,5.14-3.8,8.18C396.57,531.14,398.12,537.05,395.42,542.62Zm139.17-290c4.86-5.14,3.18-11.69,5.27-17,4.09-10.51,5.35-21.89,10.26-32.08,2-4,2.11-8.69,4.06-12.56,2.62-5.2,1-11.57,5.09-16.28.52-.61.15-2.34-.27-3.36-2.17-5.21-10.1-6.87-14.65-3.53a50,50,0,0,0-13.69,15.35c-5.07,8.6-11.41,16.4-14.28,26.31-1.44,5-3.35,10.65-6.48,14.15-6.28,7-8.61,16-14.32,23.33-6.29,8-10.09,18-15.13,27-.8,1.44-.93,2.36.25,3.41s2.27,1.06,3.06-.07c2.24-3.18,3.85-1.38,5.23.65,2.22,3.26,5.19,4.27,9,3.92a75.13,75.13,0,0,1,8.49,0c5.16.11,10.8,1.08,11-6.82,0-.55.75-1.07,1.13-1.61,4.2-6,8.52-12.1,10.49-19.23C530.4,249.64,531.74,249.23,534.59,252.61ZM312.11,147.71c0-3.83,0-7.66,0-11.5,0-4,0-8-.06-12,0-1.2-.18-2.41-1.77-2.49a1.09,1.09,0,0,0-1.21,1.25c.91,5.09-2.24,5.63-6.19,6.45-4.74,1-6.26.7-6.44-4-.13-3.45-1.58-4.1-4.62-4.07-12.16.12-24.33.2-36.49,0-3.89-.07-5.1,1.35-4.7,4.92.17,1.49-.2,3.1.23,4.48q4.94,15.71,9.92,31.39c2,6.16,2.06,12.82,5.55,18.64,2.15,3.58,2.84,8,4.27,12.05.41,1.16.11,3.06,1.9,3.12,2,.07,1.27-1.88,1.76-3,2.11-4.68,1.91-10,4-14.67,1.35-3.07,2.52-5.54,6.64-5.26,3.88.27,5.25,2.77,6.65,5.71,4.8,10.12,6.75,21.28,11.55,31.39.88,1.87,2,4.08-.06,5.32a5.81,5.81,0,0,1-6.6-.4c-1.6-1.33-3.5-2.75-3.37-5.26.11-2.28-1.15-2.83-3.13-2.76a24.89,24.89,0,0,1-6-.06c-4.25-.89-5.42,1.94-6.43,4.94s1.56,5.56,2,8.49c.21,1.53,3.26.75,5,.77,6.83.08,13.67-.1,20.5.09,3.13.08,3.79-1.16,4-4.07s-1.89-5.26-1.87-8.12q.1-15.51,0-31c0-2.08.77-3.89,2.47-4.53,2.54-.95,2.46-2.73,2.46-4.77C312.08,161.71,312.1,154.71,312.11,147.71Zm116.16,163a31,31,0,0,0,.19-3.84c-.35-4.91,1.58-10.21-1.13-14.64-1.87-3.06-2.43-6.24-1.42-9,2.69-7.4,2.46-15,2.6-22.56a14.89,14.89,0,0,1,.47-4.93c3.44-9,2.78-18.45,2.74-27.81,0-2.32-1-3.22-3.31-3.2-11.74.1-23.5-.44-35.15,1.7-2,.37-3,1.64-4,3.29-2.19,3.54-.27,8-1.92,11.07-4.78,9-.6,19-4.2,28.11-2.61,6.62-1.44,14-2.23,21-.2,1.73-.23,3,1.29,3.78a3,3,0,0,0,4.05-.74c1-1.24,2.09-2.4,3.69-1,3.25,2.77,7.13,2.19,10.9,2.25s7.06,1.39,8.7,4.7c3,6.13,6.05,7.44,12.12,4.44,4.13-2,5.33-1.34,4.82,3.19C426.24,308.4,427.23,309.43,428.27,310.76ZM341.89,533.52c-.56,6.74.06,13.46-1.17,20.31-1,5.55-2.53,11.34-1.85,17.18.13,1.17.73,3.77,1.65,2.47,2.51-3.49,7.39-3.39,9.37-6.24,4.85-7,9.32-14.38,9-23.48-.06-1.64-.33-4.1,1-4.7,5.24-2.4,5-7.93,6.88-12,3.82-8.09,6.55-16.72,9.34-25.25.94-2.88,3-5.27,3.6-8.06,1.8-8.51,5.07-16.45,8.44-24.37,1.12-2.63,2.1-5.95,0-7.37-6.19-4.31-11.66-9.52-17.87-13.78-1.63-1.12-4-2-4.34.52-.55,3.73-2.69,6.7-3.7,10.19-.94,3.22-.07,4.75,2.7,6,1,.44,3.22-.42,2.74,1.84-.35,1.65-1.9,2.33-3.54,2.09-6.15-.92-7.11,3.71-8.07,7.84-.67,2.88-1.74,4.44-4.86,4.5-4,.07-3.69,2-1.5,4.3a5.91,5.91,0,0,1,1.14,6.93c-1.17,2.39-3.87,1.2-5.92,1.38-2.64.22-3.87-1.54-4.47-3.81s-1.18-4.76-1.75-7.15c-.43-1.78-1.79-1.88-3.13-1.52-1.61.44-.56,1.42-.32,2.32,1.94,7.37,4.9,14.59,3.61,22.48a1,1,0,0,0,.06.49A75.13,75.13,0,0,1,341.89,533.52ZM501.4,225.25c-2,2-7-.25-6.51,4.7.15,1.78.29,4.29-1.86,4.62-2,.31-3.69-.93-4.92-3.18-2-3.74-5.35-5.21-10-5.11-10.21.22-20.44.65-30.64-1.16-6.57-1.17-7.55.24-7.58,7.21,0,10.41.81,20.93-1.95,31.08-2.51,9.21-1.74,18.77-4.26,28.11-2.09,7.76-.89,16.58-.2,24.85.31,3.63,2.35,8,6.08,9.48,4.15,1.62,8.34-.25,10.93-3.94a56.11,56.11,0,0,0,7.4-13.88c.58-1.68.36-2.83-1.78-3.18-4.17-.69-8.14-2.27-12.55-1.83-3.35.34-6.22-.29-4-5,.72-1.51.24-3.61.24-5.44,0-10.66,0-10.67,10.55-10.79,2.16,0,4.48.32,5.83-1.93,3.36-5.62,4.54-12.72,11.05-16.23.43-.23.59-1.19.64-1.82.66-9.34,7.7-15.65,11.27-23.61,2.15-4.8,5.11-1.46,7.46.43,2.72,2.18,2.16,4.66,0,6.83-3.11,3.2-3.19,3.12.33,6.89A110,110,0,0,0,501.4,225.25ZM397.15,378.53a98,98,0,0,1-.07,10c-.37,3.51,1,5.55,4.09,6.86a65.7,65.7,0,0,1,15.16,8.5c1.85,1.47,2.15,0,2.93-1.56,3.05-6.17,6.41-12.18,9.72-18.22.53-1,1.19-2.22,2.67-1.47,1.32.67,1.2,1.65.56,2.91-1.9,3.79-3.79,7.6-5.42,11.51-1.35,3.23-5,5.77-3,10.14.57,1.2-.1,2.63-1.95,2.74-1,.06-2,.09-2.55,1.18-2.11,4.38-4.89,8.58-6.17,13.19-1.66,6-5.23,11.19-7.69,16.69s-4.48,11.5-7.93,16.73c-1.06,1.61-2.17,5.86,1.55,7.23,3.5,1.31,5.78-.48,7.06-4,1.9-5.24,4.3-10.32,6.37-15.47,7.08-17.63,14.4-35.16,21.49-52.78,5.86-14.58,10.3-29.76,17.68-43.75,1.48-2.79.42-5.82-1.12-8.54-1.13-2-3.08-2-4.11-.68-6.55,8.58-16.81,10.63-25.76,15a103.1,103.1,0,0,1-12.49,4.77c-11.17,3.71-11,4.11-11.06,16.11ZM208.35,127.28c2.93,6.5,2.86,12.93,2.73,19.4-.06,2.64-.3,5.44.41,7.92,3.16,11.09,8.55,21.47,9.62,33.26.29,3.19.74,6.5,1.17,9.74.32,2.38,1.5,5,4.5,3.06s3.62-6.22,7.73-7c.29,0,.7-2.48.2-3.22-2.92-4.29-1.16-9-1.59-13.55-.17-1.86-.06-3.66,2.66-3.83,2.51-.17,4.3.61,5,3a15.81,15.81,0,0,1,.23,4c.16,8.35.94,8.82,9.07,9.16,4.76.2,6.35-2,5.12-5.8-1.77-5.54-.69-11.23-1.74-16.66-.76-3.9,0-8-1.08-11.34-1.21-3.7-3.57-7.36-4.35-11.27-1.29-6.55-6-12.74-2.49-19.95.73-1.48-.1-2.72-1.79-2.73-3.85,0-7.67-1-10.91,2.84-4.08,4.91-12.72,6.27-18.26,3.46C212.61,126.76,210.87,126.72,208.35,127.28Zm232.64,4c0-3.15.82-6-.54-8.88-8.91,6.36-18.52,6.26-27.65,0-2.29-1.55-3.79-1.9-4.88,1.78a38.46,38.46,0,0,0-1.32,13.19c.19,3.57-.14,7.06-2,10a7.87,7.87,0,0,0-1.36,5.08,20.52,20.52,0,0,1-2.16,10c-2.29,5-.92,9.31,3.39,12.15,3.38,2.22,4.94,9.1,2.91,12.84-2.14,3.94-1.61,4.94,2.86,5.13,2.16.09,4.33,0,6.49,0,1,0,2.28,0,2.25-1.35-.12-4,2.95-6.86,3.47-10.71.66-4.9,2.49-9.17,9.06-7.59,2.48.6,3.59-.77,3.5-3.37-.13-3.66,0-7.32,0-11,0-2.19.63-4.5,2.82-4.69,5.45-.47,3.52-3.41,2.46-6.18-1.69-4.42-3.3-8.88-5.17-13.23-1.66-3.86-.11-4.67,3.36-4A25.72,25.72,0,0,1,441,131.3Zm-79.57,41.78c-1.92-2.72-4.19-3.32-6.95-3.42-9.61-.36-19.21,1.41-28.82.05-1.4-.19-3.29.51-3.86-1.4s.9-3.3,2.41-3.85,2.45-2.35,4.36-2.17c6.59.64,12.43-2.64,18.67-3.85,3-.57,3.9.24,4,2.27.14,2.85,1.81,4.22,4,4,3.06-.26,2.22-3.17,2.32-5.21.05-1.14.21-2.68-.41-3.39-3.17-3.56-2.3-7.8-2.34-11.88-.07-5.83-.2-11.67.06-17.48.18-4-1-5.62-5.32-5.48-9.15.3-18.31.08-27.47.1-5.9,0-6.94,1-6.95,7q0,19,0,38c0,6.86.05,6.86,6.91,6.7.67,0,1.34,0,2,0ZM350.33,67.79l1-1c0-14.3,0-28.59-.05-42.88a3.93,3.93,0,0,0-1.1-2.67c-2.45-2.23-2.46-4.79-1.66-7.72.91-3.36-3.36-8-6.55-6.78-4.32,1.67-9.25,2.93-11.58,7.62-4.46,9-7.88,18.36-8.93,28.43-.36,3.44-.45,6.88-.84,10.33-.78,6.81-3.45,13.38-2.63,20.43a6.42,6.42,0,0,0,3.67,5.38c2.52,1.42,3.18.6,3.14-2-.06-4.16.11-8.33,0-12.48-.07-2.51.73-3.64,3.41-3.55C336.16,61.23,344.75,58.93,350.33,67.79Zm44.05,104.28c2.86-10.51,6.64-20.57,7.25-31.16.32-5.62,2.36-11,1.57-16.74-.16-1.17-.12-2.44-1.63-2.69-1-.15-2.34-.26-2.52.94-.4,2.75-4.26,4.51-2.11,8a2.19,2.19,0,0,1-1.21,3.29,3.18,3.18,0,0,1-3.61-.88,18.06,18.06,0,0,1-4.49-8.67c-.35-2.07-1.21-2.86-3.25-2.83-5.32.07-10.65,0-16,.05-1.27,0-3-.22-3,1.72.1,3.81,0,7.71.81,11.4,1.33,6.12.84,12.06.18,18.2-.91,8.46-3,17.54,6,23.69A8.82,8.82,0,0,1,375,180c1.45,3.16,2.68,6.41,4,9.63.41-3.87,2.32-7.9-.29-11.35-1.73-2.27-.85-2.92.78-4.56,2.33-2.36,7.05-4,3.78-9.13-.86-1.33,1.78-3.94,2.46-2.82C388.09,165.71,396,164.89,394.38,172.07ZM287.47,342.13a12.77,12.77,0,0,0,.31,2.1c3.16,8.23,9.3,14.92,11.68,23.64,1.32,4.85,4.09,9.34,6.45,13.85,1,2,1.63,5.08,5.25,3.65,1.25-.5,2.81-.82,3.57.61s.92,3.22-.24,4.25c-3.16,2.78-2.3,5.37.14,8.49.24-2.74,2.63-3.9,3.33-6.09.32-1,.49-2.06,1.72-2.08,1.59,0,1.55,1.33,1.91,2.44,1.55,4.71,7.28,4.32,9.89,7.91.5.69,2.42-.23,2.85-1.35,1.28-3.28,3.69-6.48,2.34-10.21-2.11-5.83-1.64-12.13-2.11-18-.45-5.54-3.66-8.2-6.57-8.89-7.09-1.68-12.31-6.66-19.05-9C301.61,351,295.05,346.27,287.47,342.13ZM424,114.46h0c3.83,0,7.66.09,11.48,0,2.51-.08,3.89-1.73,4.27-4.08.26-1.6-.12-3.15-2.16-3.19-6.33-.13-6.7-3.4-4.64-8.29.48-1.14.17-2.63.17-3.95,0-9.15.05-18.3,0-27.45,0-3.85,1-6.56,5.48-6.54,1.81,0,3.2-.86,2.24-2.73-1.49-2.9-1.07-4.31,2.35-4.5.38,0,.93-.94,1-1.49.7-4.72-8.08-12.86-12.19-10.72-6.12,3.18-11.55,7.52-13,15.1-.59,3.07-.66,4.93,3.38,4.47,3.13-.36,4.55,1.68,4.47,4.63-.07,2.8-1.69,4.17-4.49,4.15-1,0-2,0-3,0-4.58-.16-4.75,2.89-4.95,6.33-.21,3.71,1.54,4.63,4.76,4.36,2.64-.22,4.89-.26,4.82,3.67-.06,4.13-2.77,3.55-5.12,3.39-4.1-.28-6.44.41-6.1,5.53.47,6.9.09,6.93,7.12,7,.66,0,1.33,0,2,0,2.85-.23,3.79,1.17,3.76,3.89s-1.62,3.21-3.9,3.13c-2.66-.1-5.33.09-8,0s-3.95.63-3.94,3.6c0,2.78.92,3.94,3.73,3.84C417,114.37,420.54,114.46,424,114.46ZM308.9,248.4c0-5.05,0-9,0-13,0-6.33-.72-7-7.25-7H285.7c-6.16,0-6.15,0-3.83,5.11.2.44.06,1,.25,1.46,1.18,2.79.55,6.13,1.84,8.64,6.73,13.08,9.6,27.63,15.9,40.84.9,1.9,2.09,4.24,4.4,4.26,2,0,2.55-2.23,3.16-4,2.06-5.91,3.71-12.43,2.68-18.17C308.94,260,309.5,253.7,308.9,248.4ZM223.4,47.56c-2.85-2.82-7-4.28-9.58-2.25-5.79,4.49-11.13,10.06-12,17.86-1,8.31.13,16.46,4.39,23.94.72,1.26-.58,4,2,3.75s1.65-2.91,1.64-4.51c0-6.79,2.33-13.39,1.45-20.24-.29-2.2.61-4.19,2.73-4.77s4.51-1.17,6.15.52.21,3.4-.76,5a3.59,3.59,0,0,0-.34,1.44c-1.08,10.12-2,20.26-3.3,30.35-.52,3.92-.77,8.68-6.89,8.42-1.48-.07-4.09-.5-3.66,2,.38,2.12.53,5.36,3.92,5.48,6.55.24,13.24.92,18.77-3.84,1.48-1.29,3.07-.49,2.9.8-.35,2.69.67,3.18,2.9,3a4.07,4.07,0,0,0,4.2-4c.13-1.9.58-3.91-.42-5.79-7,3.93-9.06,2.74-9.06-5.28,0-8.95-1.79-17.75-1.64-26.74.08-4.41-.85-9.53-3.59-13.16C219.81,55,220.08,51.43,223.4,47.56ZM393.93,428.22c0-8-.14-16,.06-23.94.09-3.19-1.22-5.77-2.49-8.42-.93-1.93-2.88-1.91-4.78-1.83s-1.56,1.6-2,2.8c-1.62,4.78-3.42,9.5-5.17,14.24-3.38,9.18-6.79,18.35-9.49,27.78-.93,3.26.4,4.94,2.42,6.19,5.15,3.18,9.4,7.65,14.93,10.29,1.47.7,2,3.49,4.42,2.07,2.17-1.3,2.11-3.51,2.1-5.73C393.9,443.86,393.94,436,393.93,428.22Zm-64.05-70c3.52,0,5.15-1.26,3.87-3.31-2.36-3.78-6.87-6.47-5-12,0-.08-.48-.37-.75-.54-9.7-6.22-17.36-14.61-24.84-23.21-2.88-3.32-5.6-3-6.35,1.13-1,5.54-4.6,9.29-8.09,12.8-2.85,2.87-1.1,3,.79,4.47,6.25,4.91,14.19,6.67,20.66,11.38,2,1.45,4.37,4.12,7.57,4s5.69,1.57,7.74,3.67A5.2,5.2,0,0,0,329.88,358.21ZM337,114.47c5.16,0,10.33.08,15.49,0,3.16-.07,8.39-5.18,7.3-7.33-3.69-7.31-1.63-15-2.09-22.55-.16-2.51-.16-4.94-1.54-7.19-.51-.84-.53-2-1.87-1.88-1.11.07-1.15,1-1.33,1.8-1.49,6.55-4.5,13-.48,19.75a16,16,0,0,1,1.67,3.59c.68,2.21,1.58,5.11-1.11,6.08-2.31.83-5.58,1.6-6.86-2.48-.88-2.81-2.78-5.31-3.57-8.14-1.05-3.71-3.69-3.2-6.29-3-3.26.21-2.05,2.81-2.27,4.58-.15,1.14,0,2.33,0,3.49-.14,2.75,1.2,6.09-4,6s-3.76-3.68-3.74-6.23c0-4.1-.75-8.06-1.23-12.08a4,4,0,0,0-4.48-3.7c-2.08.07-2.54,2.15-2.52,4.18.07,7,.16,14,0,21-.1,3.43,1.41,4.3,4.49,4.2C327.34,114.37,332.18,114.48,337,114.47ZM482.38,367.23c1.48-4.47,6.13-7.42,5.74-11.37-1.2-11.94,6.5-20.43,11.31-29.74,2.51-4.85,4.05-10.33,7.42-14.82a2.91,2.91,0,0,0-.43-4.07c-1.09-.77-2.46-.5-3.7.38-3.6,2.57-7.63,4.57-10.41,8.17-6.26,8.1-9.09,17.89-13.33,27-1.59,3.4-4.24,6.76-2.82,10.69C477.86,358.18,480.27,362.65,482.38,367.23ZM275,425.21c-1.12-2.17-2.34-4.29-3.36-6.51-4.05-8.8-8.54-17.38-13.19-25.87-.83-1.52-1.42-2.56-3.24-2.16s-1.58,2-1.5,3.22a6.38,6.38,0,0,1-2.31,5.3c-4,3.59-5.66,8.82-9.4,12.7-2.88,3-4.87,7.06-6.48,11-1.22,3-2.78,8.15-1.44,9.4,3.29,3.08,6.07-1.75,7.93-3.56,3.4-3.32,9.2-5.61,7.73-12.51-.47-2.22,3.26-3.4,4.43-2.07,2.94,3.36,7.43,2.78,10.82,5.31C268,421.62,271,424.15,275,425.21ZM377.49,226.45c-7,0-7.07,0-7.11,6.94-.07,10.66-.48,21.35.07,32,.33,6.49-1.29,13.16,1.43,19.53.77,1.81,1.53,3.81,3.5,3.52,1.79-.26,1.26-2.51,1.13-3.87-1.05-11.32,4.63-21.79,3.82-33.26-.37-5.36,1.8-11.24,3.11-16.76C385.32,226.64,385.66,226.48,377.49,226.45Zm19.69,218.79c3.84-2.24,5-5,6.08-8a128,128,0,0,1,5.44-12.78c2.17-4.57,4.71-9,6.92-13.53a2.91,2.91,0,0,0-2-4c-4.17-.94-7.31-3.73-11-5.32-1.94-.83-5.37-1.92-5.39,2.4C397.12,417.4,397.18,430.84,397.18,445.24Zm71.42-77.41c-2.09,8.25-6.33,15.16-9.31,22.6-1.71,4.27-.44,6.58,4.28,6.78,2.8.12,5.34,0,7.53,2.71,1.45,1.81,4.49,2.51,6.09-.62,3.84-7.52,1.18-15.21-.14-22.66C476.36,372.73,472.35,370.39,468.6,367.83Zm-122-178.25c0-2.83,0-5.66,0-8.49,0-2.41-1.76-2.57-3.49-2.4-1.46.15-4-.9-4,1.63,0,8.42-1.38,16.94.78,25.23,1.44,5.55.16,8.14-5.58,8.55-2.57.18-3.45,1.12-3.46,3.64s1.09,3.52,3.6,3.41c3-.12,6,0,9,0,4.62,0,5.81-1.68,4.38-6.15-.6-1.87-2.19-3.76-2-5.5A181.29,181.29,0,0,0,346.57,189.58Zm88.49,26.57c-.27-2.87.45-5.44-2.63-5.46-4.58,0-9.44-1.22-13.55,1.77-3,2.19-4.76,1.44-6-1.75-.8-2.06-3.84-3.45-4.33-2.82-3.55,4.5-9.5,3.56-13.59,6.55-1.21.88-2.74,1.8-2.41,3.47.39,2,2.36,1.51,3.74,1.52,11.5.07,23,0,34.49.12C434.05,219.59,435.49,218.45,435.06,216.15ZM307.19,76.26c0,3.39,0,6.77,0,10.15,0,2.53-.81,3.22-3.35,1.93-3.9-2-6.95-8.52-5.55-14,.5-2,.57-3.24-1.19-4.08a3.67,3.67,0,0,0-4.82,1.3C289,75.7,288.45,92.64,294,96.82c1.47,1.1,3.68,2.31,4.29,1.14,2.78-5.34,5.52-.91,8.25-.35C310.61,87.48,312.29,89.34,307.19,76.26Zm7.94,112.79c0,5.14.23,10.3-.09,15.42-.19,3.07,1.71,5.81,1.28,8.64-1.24,8.06-1.42,8,6.7,8,1,0,2-.08,3,0,2.36.21,2.93-.9,3.27-3.16.56-3.76-3.53-5.32-3.79-6.95-.69-4.28-3.76-7.06-4.74-10.34C319.48,196.49,317,193,315.13,189.05ZM299.59,299.28c-1.6,2.45-4.88,1-6,2.8s-2.48,3.89-2,6.45c1.14,6.43,1,6.15-5.25,7.3-3.17.58-7.29.56-8.7,4.43-1.2,3.29,1.29,5.9,2.79,8.54,1.24,2.2,2.6,2.24,4.65.37,5.28-4.78,8.5-10.88,10.84-17.28C297.33,308,301,304.83,299.59,299.28ZM194.35,79.77c-.16,6.59-.31,13.17-1.54,19.5-.63,3.3.82,6.35,0,9.11-.83,2.94-.11,4.64,2.06,5.78,1.73.91,4.24,1.15,5.75-.07,2-1.64,1.13-4.2.68-6.52-1-5.13-2.06-10.28-2.63-15.47A26.52,26.52,0,0,0,194.35,79.77ZM466.86,281.64c4.24.36,6.22-2.13,7.4-5.16,2.57-6.62,6.26-12.64,9.63-18.84.59-1.08,1.3-1.85.23-3A3.64,3.64,0,0,0,481,253.5c-1.51.05-2.08.87-2,2.25.16,1.66-.81,2.74-1.67,4-2.8,4.07-5.48,8.19-6.42,13.23-.51,2.72-3,4.29-4.71,6.25-.72.8-3.29-1.32-2.56,1.39C464,282,465.94,281.58,466.86,281.64Zm-4.1,28c-.7,4.25-4.05,7.1-5.28,11.08-2,6.5-2.69,8.11.32,11.86C460.8,325,468.54,318.84,462.76,309.64Zm-96.1-36.82a6.86,6.86,0,0,0-.76,1.33c-.84,3.51,0,8.43-6.54,6.93-.56-.13-4.06-.38-4.56,2.62s1.87,3.89,3.51,4.68c2.71,1.3,5.87.61,8.83.37a1.48,1.48,0,0,0,1.23-2.22C365.93,282.34,367.9,277.66,366.66,272.82Zm-11.83-244c.12,9.34-.93,18.39-.13,27.48.08.93-.17,2.14,1.11,2.44S358,58,358.53,57a6.66,6.66,0,0,0,.67-2.84c.42-7.78-2.34-15.3-1.88-23.09C357.37,30.24,356.88,29.16,354.83,28.83Zm-112.34,365h.09c0,1.16-.09,2.33,0,3.48s-.48,2.94,1.18,3.44c1.81.54,3-.9,3.23-2.33.52-2.78,3.35-4.14,3.81-6.87.22-1.35,2.33-2.82.65-3.93a11.17,11.17,0,0,0-6.28-2c-1.63.09-2.79,2.13-2.71,4.22C242.54,391.16,242.49,392.49,242.49,393.81ZM332,198c-1.87-5.65-.93-11.37-1.16-17-.06-1.34-.59-2.32-2-2.29-2.26.05-4.8-.93-6.7.7-1.25,1.07.14,2.41.74,3.54C325.54,188.05,328,193.35,332,198Zm6-117.49c3.92.25,5.49-1.66,5.43-5.37a7.45,7.45,0,0,0-6.74-7.06c-2.26-.11-4.18,1.56-3.17,3.12C335.4,74.14,330.78,80.34,338,80.49ZM375.83,206a65.53,65.53,0,0,1-5.61,4.61c-2.26,1.48-1.51,3.57-1.26,5.37a3.77,3.77,0,0,0,3.78,3.36c4,.12,8,.1,12,.13,1.49,0,2.63-.44,2.63-2.22,0-1,.26-2.12-.88-2.61-1.46-.64-2.11.72-2.81,1.51-1.86,2.1-4.54,2.6-6.17,1-1.43-1.43-3.59-3.78-1.7-6.6A4,4,0,0,0,375.83,206Zm-36.9,151.77c0,3.57-.69,7.25,4.38,7.56,3.26.2,3.29-1.8,3.28-4.15,0-4.26-2.6-8.27-5.53-8.08C337.27,353.34,339.73,356.43,338.93,357.76Zm22-177.08c0,7.39,0,14.58.05,21.77,0,1.08-.89,3.08,1.17,3.08,1.45,0,1.87-1.63,1.87-3,0-6,0-11.89,0-17.83C364,182.38,363,181.08,360.9,180.68Zm-76.49,4.74a93.57,93.57,0,0,0-2.82,12c-.54,2.61.75,2.55,2.22,2.32,2-.3,6.21,1.14,5.6-1.57C288.52,194.17,287.72,189.64,284.41,185.42ZM394,372.06l-1.06-.07c-1.55,4.48-3.15,8.94-4.61,13.45-.58,1.79-1.8,4.2,1.37,4.7,2.55.39,4.14-1.37,4.24-3.81C394.08,381.58,394,376.81,394,372.06Zm48-290.93c-.74,3.44.09,14.3,1.15,16.79.33.79.74,1.57,1.72,1.43.37,0,.78-.56,1-1C447.49,94.7,445.29,84.12,441.91,81.13Zm-7.1,261c2.3-.28,3.45-3.22,6-4.08.9-.3,3-.79,2.66-2.39-.65-2.89-4.07-1.5-5.69-3.17a1.48,1.48,0,0,0-2.51.22,62.29,62.29,0,0,0-3.12,7.11C431.51,341.59,432.78,342.07,434.81,342.09Zm-190.22,25c-.09,4.9-2.16,8.59.4,12.31a4.13,4.13,0,0,0,5.21,1.65c2.5-1,.5-3,0-4C248.57,374.13,248,370.59,244.59,367.13Zm-3.24-260.46c5-8.17-2.35-13.49-2.43-20.06-1.16,2.67-.92,5.5-2.36,8-.52.9-.39,3,.55,3.14C242.52,98.41,240.58,102.68,241.35,106.67ZM354.87,185c0,6.69,0,13.21,0,19.73,0,.79,0,1.83,1.09,1.86,1.36,0,1.45-1.15,1.45-2.11.05-5.45.09-10.89,0-16.33A2.89,2.89,0,0,0,354.87,185ZM492,354.06c4.23-4.92,6.33-10.54,8.51-16.12.36-.91.77-2-.56-2.46-.89-.31-1.37.32-1.92,1.06-3.37,4.47-2.89,10.55-6.31,15C491.41,352,491.88,353,492,354.06ZM360.79,139.92c0-5.38,0-10.76,0-16.14,0-.88-.34-1.69-1.33-1.81a1.35,1.35,0,0,0-1.6,1.45C357.75,129,356.26,134.84,360.79,139.92Zm-130-79c.64-.14,2.32-.18,1.79-1.31-1.43-3-1.93-6.65-4.66-9a1.2,1.2,0,0,0-2,.35c-1.3,2.59.39,4.76,1.15,7A3.74,3.74,0,0,0,230.81,61Zm171.78,40.47c-3.26,3-2.08,6-2.3,8.62-.13,1.41-.59,3.4,1.19,3.91s2.88-1.19,3.14-2.55,3-3.21-.18-4.44C402.24,106.12,402.42,104.14,402.59,101.43ZM553.85,210.09c2.26-3.94,4.7-7.76,5.55-12.33a2.53,2.53,0,0,0-.08-1c-.17-.78-.18-1.74-1.26-1.85-1.24-.12-1.77.68-1.87,1.77-.18,2,.27,4.11-1.37,5.62C552.35,204.59,553,207.23,553.85,210.09ZM429.41,183c0,3.12-2.77,5.28-2.51,8.39.09,1.19-1.88,2.88,1,3.13,2.22.2,3.65-.16,3.9-3C432.09,188.31,429.27,186.17,429.41,183ZM189.08,507c-4.11-2.25-5.41,1.73-7.83,2.72-1.41.57-1.53,1.61-1.14,2.81a3.45,3.45,0,0,0,2.31,2.39c1.42.39,2.28-.74,2.73-1.66A28.24,28.24,0,0,1,189.08,507ZM358.82,219.14c-1.2-3.14-2.13-6.19-5.85-4.67-2,.83-3.57,3.91-2.68,5.18C353.17,223.75,355.63,218,358.82,219.14Zm32.08-35.31h0c0,.82,0,1.64,0,2.46.06,1.13-.09,2.47,1.51,2.63a3.65,3.65,0,0,0,2.32-.36c1.25-.93.47-2-.16-3-1-1.5-.48-3.2-.67-4.8-.1-.87-.33-1.67-1.33-1.78-1.36-.14-1.57.89-1.63,1.89S390.9,182.85,390.9,183.83ZM353,287.93c-4.56-.84-9.11-1.22-13.61.13A28.6,28.6,0,0,0,353,287.93Zm-14.15,87.43c.72,1.27-1,4.28,1.55,3.73s1.6-4.17,2.57-6.32c.58-1.29-1-1.9-2.24-1.73C337.78,371.46,339.48,373.89,338.86,375.36Zm76.32-22.71c-.1-2.39-1.77-3.52-3.27-2.81-2.57,1.23-6.64.22-8,5.57C407.76,352.05,411.65,353.44,415.18,352.65Zm-92.12-26.41c1.82-2.55,2.85-4,3.85-5.39a2.23,2.23,0,0,0,.31-2.72,2.34,2.34,0,0,0-2.68-.71c-1.15.24-1.47,1.17-1.48,2.24Zm-74.22-126c-.05-2.23-1.48-2.14-2.78-2.18-1.7,0-3.41,0-3.39,2.36,0,1.27-.11,3.16,1.72,2.74A6.72,6.72,0,0,0,248.84,200.24Zm118.68-13.17v9.67C371.82,193.39,368.09,190.17,367.52,187.07Zm-140.13-66.5-.12-.85c-1.9,0-3.8,0-5.69,0-1.1,0-2.41-.37-3.14.74-.22.34.2,1.24.53,1.76a2.71,2.71,0,0,0,3.48,1A51.17,51.17,0,0,0,227.39,120.57ZM323.1,416.4c1,2,.91,4.48,3,5.6.75.4,1.34-.63,1.49-1.52C328.18,417.23,325.51,417,323.1,416.4Z" transform="translate(-75.88 -1.76)"/><path d="M568.73,79.88c.79,8.13-.6,15.68-6.76,21.46-6.62,6.21-14.58,7.67-22.77,3.87-6.33-2.93-8.17-8.73-8.31-15.62-.18-8.94,1-17,7.62-23.74,5-5.14,10.74-6,17.46-5.17,3.79.48,6.7,1.37,9.55,4.25C570,69.46,568.35,74.79,568.73,79.88Zm-9.19,1.58c0-1.49-.06-3,0-4.49.23-4.43-1.07-8-5.89-8.9-4.36-.82-10.24,2.88-11.56,6.71a35.25,35.25,0,0,0-1.46,15.69c.38,3.16,1,7.17,5.38,8,5.89,1.1,9.4-.58,11.73-4.91C559.85,89.68,559.57,85.58,559.54,81.46Z" transform="translate(-75.88 -1.76)"/><path d="M436.13,693.07c-7.87-1.22-15.3,3-23.19,1.88-2.24-.32-4.6.4-5.31-3-.41-2-2.54-2.33-4.51-2.3-4.33.05-8.66-.15-13,.05-6.17.29-12.1-.34-17.73-3.12A10.43,10.43,0,0,0,368,686c-6.66,0-13.32,0-20,0-1,0-2.19-.28-3,.16-8.92,5-19.65,5.46-28.24,11.27a4.62,4.62,0,0,1-1.75.89c-2.08.28-4.9,1.22-5.79-1.13-1-2.52,2.39-3.16,3.77-3.63,4.2-1.42,7.7-5.36,12.76-3.94,3.82-6.63,11.41-3.22,17.08-6.18,8-4.15,18.15-4.07,27.56-1.78a65.14,65.14,0,0,0,12.95,2.24c8.45.26,16.68,2.32,25.1,2.18a58.83,58.83,0,0,0,18.13-3.4,14.43,14.43,0,0,1,3.45-.34c6.23-.53,12.51.78,18.76-1.37,4-1.36,4.51,2.85,5.87,5.35,1.66,3.08-1.24,3.27-2.73,4.08C447.05,693.14,441.67,693.61,436.13,693.07Z" transform="translate(-75.88 -1.76)"/><path d="M438.36,615.76a3.55,3.55,0,0,0,3.33.51c1.33-.26,2.82-2.94,4-.07.82,2.06,0,4.72-2,5-3.91.57-7,2.83-10.57,3.93-2.22.68-4.86.79-6.86-1.59-2.46-2.92-6-2.57-8.55-.76-3.29,2.31-6.65,2.49-10.36,2.62-5.05.17-10.21-1.15-15.17,1.42a6.77,6.77,0,0,1-5.82-.38c-3.38-1.76-6.56-2.07-9.4,1a5.74,5.74,0,0,1-1.21.79c-2.52-5.71-8.49-.49-12-3.88-2.63-2.51-5.79.48-8.3,1.21-4.7,1.35-9.38.18-13.86.38-7.91.37-14.3,5.39-22.33,5-6-.29-10.43,4.78-15.12,8.15-3.24,2.32-6,5.35-8.91,8.06-1.44,1.31-3.52,3.16-4.83,1.23A4.37,4.37,0,0,1,292,642.3c7.86-3.74,13.43-10.6,20.84-14.88a23.1,23.1,0,0,1,13.07-3c3.17.19,5.65-2,7.62-3.34,2.95-2,4.62-1.47,6.88.13,1.36,1,3,1.32,4.18.25,6.56-6,14.27-1.79,21.39-2.33,2.18-.17,4.34.76,7,0s6.34-2.15,8.8,1.78c1.25,2,3.06-.23,4.34-.81,3.42-1.55,6.23-2.25,9.49.79,2.77,2.57,7.43,2.15,10,.76,6.2-3.39,13.41-1.81,19.41-5a55.55,55.55,0,0,1,11.58-4.33c1.7-.47,3.49-3.3,5.05-1C443.4,613.93,439.7,614.2,438.36,615.76Z" transform="translate(-75.88 -1.76)"/><path d="M480.71,200c0,1.17,0,2.33,0,3.49.05,7.82-2.33,9.85-10.08,10.74s-13.55-3.27-20-5.75c-1.55-.59-1.22-4.8-1.34-7.06-.34-6.64-.4-13.14,2.1-19.91,3-8,17.81-12.28,24.46-9.38,2.62,1.14,5.05,2,5.95,5.12a3.64,3.64,0,0,1-1,3.62c-1,1.26-2,1-3.44.38-3.63-1.54-6.92-3-11.5-1.31-5.81,2.12-7.63,6.44-8.78,11.26a11.74,11.74,0,0,0,4.31,12.5c2.39,1.77,5.4,4.35,9.07,1.34,2.33-1.91.89-3.76.69-5.77s-1-3.15-3.08-3c-3.4.26-3.09-2-3.16-4.25-.08-2.67,1.54-3,3.56-2.87.33,0,.67,0,1,0C482.69,189.37,480.42,187.21,480.71,200Z" transform="translate(-75.88 -1.76)"/><path d="M573.79,87c1.83-6.35.86-15.4,3.17-24,1-3.86,4.49-1.73,6.81-1.84,2.76-.13,2.27,2.17,2.1,4-.77,8.46-3.09,16.75-2.91,25.33.1,4.79,2.77,7.88,6.87,8,4.36.1,6.51-2.59,7.45-7.44,1.77-9.18,2.31-18.47,3.46-27.71.54-4.25,4.54-2.06,7-2.19,2.88-.16,2.68,2.51,1.9,4-3,5.64-1.32,11.93-2.7,17.85-.93,4-1,8.44-2.15,12.52-2.86,10.43-18.74,16.19-27.86,7C573.71,99.22,573.36,94.05,573.79,87Z" transform="translate(-75.88 -1.76)"/><path d="M350.78,646.66a14.66,14.66,0,0,1,9.08,2.24c5.39,3.16,11.57.94,17.36,2.94,8.38,2.89,17.46,2.34,26.34,2.21,7.39-.11,14.48-1.8,21.64-3.31,2.08-.43,4.32-.07,6.46-.29,5.54-.55,11.27,1.37,16.68-1.31,1.22-.6,2.21.31,3,1.27,2.36,3,.73,10.5-2.75,11.85-2.29.89-4.62,1.68-6-1.91-1.15-3-3.43-4.49-6.61-1.8a4.49,4.49,0,0,1-4.33.36c-7.87-2.76-15.57-2.42-23.55-.09-3.08.9-6.67.32-10.2-.57-4.83-1.23-10.07-.86-15.14-1-2.81-.09-5.22-1.38-7.74-2.1-8.9-2.54-18.42-.55-27.62-2.38-1.45-.29-4.57,1.51-6.91,1.13-9.3-1.47-17,3.23-25.12,6.22-4,1.45-7.63,3.67-11.41,5.59-2.07,1.05-4.14.92-5.26-1.06-1.22-2.16,1.06-2.71,2.42-3.43,6.9-3.69,13.73-7.63,22-7.18a4,4,0,0,0,2.43-.32C333,647.83,342.5,649.38,350.78,646.66Z" transform="translate(-75.88 -1.76)"/><path d="M627.19,61h2.49c7.73,0,10.7,1.76,12.8,7.58,1.56,4.35-.49,11.54-4.72,14.86-1.73,1.36-2.12,1.71-1,4a67.07,67.07,0,0,1,4.35,13.33c.42,1.69.83,4.27-2.27,4.56-2.7.24-5.58.46-6.64-2.84a33.39,33.39,0,0,1-1.77-8.14c-.14-2.51-1.71-3.85-3-5.51a3.32,3.32,0,0,0-3.64-1c-1.81.43-1.36,2-1.49,3.25-.41,3.91.56,7.83-1.16,11.76-1.36,3.13-3.51,2.43-5.71,2.42-2.88,0-2.53-2.25-2.34-4,.83-7.27,1.63-14.55,2.84-21.77.77-4.57-.26-9.14,1.06-13.8,1.14-4.06,2.86-5.39,6.73-4.81A22.57,22.57,0,0,0,627.19,61Zm.26,7.16c-2.88,1.07-3.47,4.35-3.53,8,0,2.39-.29,4.67,3.37,4.42s7.92-4.23,7.1-8C633.88,70.09,632,67.74,627.45,68.13Z" transform="translate(-75.88 -1.76)"/><path d="M479.88,492.63c3.39,1.77,8.16,1.53,9.71,5.43,1.42,3.57-.79,6.57-3.82,8.75-1.28.92-1.56,2.32-2.08,3.76-2.63,7.33-2.13,15.29-4.74,22.6-.22.62-.23,1.59-.65,1.82-5.38,2.92-3.37,7-2.77,11.62.77,5.85-1.33,11.82-2.25,17.71-1,6.25-3.65,12.29-3.1,18.84a6.76,6.76,0,0,1-2,5.41,4.42,4.42,0,0,1-5.07.88c-1.73-.68-1.53-2.58-.91-3.9.76-1.58,0-2.8-.14-4.24-.54-4.8-.85-9.74,1.74-14.06a7.93,7.93,0,0,0,1.17-5.17c-.95-8.87,4-17,3.12-25.85,4.25-3.12.3-10.81,7-12.6.17,0,.34-.8.32-.81-5.14-2.47-.05-5.86-.7-8.85-.78-3.53-.46-6.72,4.57-8.34,3.15-1,1.58-5.1-.27-7.68-.86-1.2-2.12-2.32-.85-3.93C478.61,493.4,479,492.57,479.88,492.63Z" transform="translate(-75.88 -1.76)"/><path d="M144.68,61.4c5.35-1.18,7.33.78,8.77,4.41,4.47,11.31,9.22,22.51,13.87,33.75.82,2,2.23,4.43-.54,5.49s-5.74.74-7.37-2.37c-1.1-2.1-1-5.56-3.56-6-3.87-.66-7.95-.28-11.93-.12-2.44.1-1.94,2.22-2.14,3.8-.54,4.36-3.74,6.29-7.78,4.81-2.26-.82-1.75-2.49-1.39-4.11,1.51-6.81,3.15-13.59,4.52-20.42,1.18-5.91,3-11.67,3.49-17.77C140.85,59.69,144.15,61.59,144.68,61.4Zm2.69,10.53c-2.18,4.77-1.48,9.55-3.09,13.41-1.76,4.24.1,4.17,2.92,4.3a33.19,33.19,0,0,0,4.46,0c1.4-.12,2.49.22,1.85-2.47C152.25,81.85,149.73,77.26,147.37,71.93Z" transform="translate(-75.88 -1.76)"/><path d="M495.7,434.73c2.32-4.52,5.05-6.64,9.58-3.84,1.42.89,2.58-1.32,4.13-1.16,3.72.4,7.39-.35,11.25.92,3.29,1.09,6.71,2.42,11.05,1.07,4-1.23,9.06.62,13.55,1.59,2.4.52,1.22,3.06,1.49,4.74.55,3.31-1.38,5.44-3.8,7s-3-1.91-5.12-2.32a13.82,13.82,0,0,1-3,4.89c-1.34,1.39-2.68,2.06-4.14.22-4-5-9.67-5.68-15.4-5.71-3.26,0-5.1-.64-4.67-4.32.12-1.12,0-2.47-1.64-2.53-1,0-1.34.71-1.56,1.57-.44,1.67.83,4.34-1.34,4.86-2.66.63-6,1-8.32,0a19.78,19.78,0,0,0-10.16-1.3c-4.57.38-6-1.49-5.43-5.73a18.79,18.79,0,0,0,0-2.49c0-6.6,0-6.59,6.15-3.78.41.19,1.07.57,1.27.42,9.19-7.13,3.63,3.13,5.46,4.63A7.65,7.65,0,0,1,495.7,434.73Z" transform="translate(-75.88 -1.76)"/><path d="M174.59,354.74a27.22,27.22,0,0,1-8.86-1.35,16,16,0,0,0-11.16.54,10,10,0,0,1-9.48-.17,4.14,4.14,0,0,0-5,.12,4.66,4.66,0,0,1-5.56.24,3.42,3.42,0,0,0-4-.17c-4.85,2.29-8-.06-7.56-5.21.18-2.32,0-4.66.07-7,.09-2.63,1.17-4.87,4-4.58,2.48.26,4,1.85,3.18,4.93-.55,2.09,1.15,3.13,3.18,1.39,3.47-3,8,1.34,11-2.15,2,4.82,6.5-.14,9.16,2.38.84.79,1.73-.3,2.62-.59,3.43-1.1,7.1-2.36,10,1.08,1.49,1.78,2.62.22,3.93.06,2-.25,4.06-2.47,6.15.41,1.19,1.64,2.28-.24,3.11-1.1,1.17-1.22,2.54-1.81,4-1,2.85,1.56,2.55,4.38,2.45,7.05,0,1.47.17,2.95-2,3.34C180.53,353.55,177.52,356,174.59,354.74Z" transform="translate(-75.88 -1.76)"/><path d="M127.41,78.27c.31,6.06-7,13.06-13.62,12.84-2.9-.1-5.35-.28-3.66,4.14.83,2.18.23,4.94.14,7.43-.07,1.84.63,4.22-2.58,4.33-2.94.1-5-1.05-5.19-4.06-.23-3.62-1-7.18-1.3-10.72A221.82,221.82,0,0,0,98,66.81c-.71-3.45.86-6,4.84-5.77,4.54.27,9-.43,13.64,1.35C125.43,65.81,126.21,68.64,127.41,78.27Zm-20.52-4a25,25,0,0,0,.86,5.18c.83,2.23.79,5.61,4.83,4.75,3.37-.72,4.93-3,5.45-6.12a15.39,15.39,0,0,0,0-3.46c-.23-3.67-3.76-6.56-7.75-6.6C105.14,67.92,107.89,71.9,106.89,74.22Z" transform="translate(-75.88 -1.76)"/><path d="M512.48,76.4c3.78-3.71,4.8-8.54,7.22-12.58,1.38-2.31,6.88-4.22,8.58-2.43C530.57,63.8,528,66,527,67.94c-3.15,6.45-6.63,12.74-10,19.06-2.41,4.5-1.76,9.37-1.76,14.14,0,3.4-.7,6-4.84,5.9-3.86-.07-4.94-2.58-4.44-5.7,2-12.31-2.75-23-7.5-33.81-.84-1.89-1.7-5.2.85-6.15,2.73-1,6.16-1.43,8,2.62S509.12,72.69,512.48,76.4Z" transform="translate(-75.88 -1.76)"/><path d="M460.05,75c0-3,0-6,0-9s1.44-5,4.76-5.07,4.71,2,4.8,5c.11,3.77-.69,7.41-1.33,11.13-1,6-.27,12.24-.3,18.38,0,2.11,1.06,3,3.08,3,1.82,0,3.66.14,5.48,0,3.44-.32,4.19,1.45,4.18,4.48s-.93,4.26-4,4.13c-4.47-.19-9-.07-13.45-.06-3,0-4.92-1.56-4.86-4.45.09-5.06-.58-10,1.13-15.21,1.25-3.72.25-8.2.25-12.34Z" transform="translate(-75.88 -1.76)"/><path d="M421.77,713.64a3.22,3.22,0,0,0-2.7,2.72c-1.5,5.39-5.5,6.45-9.57,2.55-1.31-1.26-2.65-1-4.09-.43-2.92,1.2-5.84,2.33-8.78,0-.25-.19-.78-.45-.89-.35-4,3.63-8.26-1.57-12.21.22-3.12,1.41-4.73-.43-6.16-2.48-1.25-1.79-1.35-4.24.61-5.32s3.45-4.47,6.68-2.27c6,4.11,12.25,1.85,18.24.12,1.81-.51,2.82,0,4.33.19a69.24,69.24,0,0,0,15.93.73c3.62-.35,5.27.67,6.25,3.71s-.79,5.4-1.93,7.81c-.51,1.09-2.48.61-3.75.34-1.48-.31-1.38-1.64-1.44-2.81C422.22,716.83,422.64,715.17,421.77,713.64Z" transform="translate(-75.88 -1.76)"/><path d="M529.64,614.5a14.82,14.82,0,0,1,2.66-7.33c1.72-2.31,3.47-3.39,4.9.2.4,1,1,2.29,1.94,1.68,3.82-2.55,7.2-.09,10.82.39,3.29.44,7.09,1.16,9.43-2.66a2.26,2.26,0,0,1,1.77-.67c5,.17,9.34,2.85,13,5.48s-1.26,5.67-2.25,8.55c-.82,2.36-2.34.37-3.54.48-4.55.38-9.1-3.59-13.62,0-.31.24-1.16.31-1.35.1-3.7-4.23-6.5-1.57-9.58,1-1.64,1.36-3.76,1.71-4.68-1.09-1-3-3.06-3.49-5.78-2.68C530.17,618.86,529.46,617.18,529.64,614.5Z" transform="translate(-75.88 -1.76)"/><path d="M199.39,638.6c-1.27,1-1.11,3-2.71,3.58-3.83-4.58-3.89-6-.35-12.32,2,1.07,4.17,5.2,6-.08a1.07,1.07,0,0,1,1.72-.21c4.07,6,9.75,2.25,14.76,2.49,5.23.26,9.42-4.37,15.13-2.86,3.4.89,4.55,3.57,6.46,5.65,1.38,1.5,0,3.12-.66,4.6-.42,1-.9,1.79-2.23,1.13-.55-.28-1.5-.6-1.85-.34-7.48,5.58-16.1,1.73-24.09,3-2.73.43-5.06-2.54-8.34-.47C201.85,643.64,201.85,639.33,199.39,638.6Z" transform="translate(-75.88 -1.76)"/><path d="M201.2,214.31c1.53-7.93-.28-12.64-4.45-16.42-1.1-1-1.44-2.09-.55-3,2.51-2.47,2.66-4.95,1-8a4.08,4.08,0,0,1,.1-3.4c1.62-2.83,1.55-4.65-1.74-6.26-2.4-1.17-.55-3.31.1-4.77,1.06-2.42,2.21-.34,3.47.1,2,.7,3.39,2.94,6.31,1.62,1.49-.67,2.38,1.3,1.08,3-3.1,4-3.77,7.93-.15,12.09,1.85,2.13,1.8,4.9,1.61,7.6a8.24,8.24,0,0,0,1.74,6c1.65,2.13,2,4.32,1.23,7.55a19,19,0,0,0,1.91,13.29c.73,1.3,2.56,3.38.24,4.05s-6.79,1.86-7.67-.84C203.87,222.17,199.35,217.84,201.2,214.31Z" transform="translate(-75.88 -1.76)"/><path d="M483.81,777.59c-1.87,5.1-2.27,12.18-10.95,15-2.87.92-4.88,2.31-7,.15-2.51-2.53-7.66-3.9-5.5-9.07.92-2.2,3.72-3.79,4.19-6,1.08-5,5.31-7.62,7.68-11.58,1.05-1.76,2.82-1.91,4.82-1.06C482.11,767.18,484,770.12,483.81,777.59Z" transform="translate(-75.88 -1.76)"/><path d="M168.28,375.66c-3.1,7.91-9.44,5-13.75,7.18-1.25.64-5-1.31-4.65-4.94.22-2.64.06-5.31.05-8,0-1.5.4-2.65,2.14-2.71s2.17,1.08,2.28,2.57c.16,2.11-.5,4.36.88,6.29.67.93,1.37,2,2.77,1.64s1-1.53,1.09-2.47,0-1.67,0-2.49c.28-2.8-1.89-7.46,4.84-3.69,2.45,1.37,7.66,3.24,11.79,1.41,2.12-.94,4.06-.09,4.7,1.37a11,11,0,0,1,0,8.67,3.59,3.59,0,0,1-5.09,1.14C172.92,380.28,168.21,383.14,168.28,375.66Z" transform="translate(-75.88 -1.76)"/><path d="M110.57,412.85c-2.25-.9-3.32-1.3-4.38-1.75-3-1.28-6.44-3.39-5.65-6.54.68-2.74,2.06-6.62,6.19-7.22.86-.12,2.06-.53,1.87-1.27-1.23-4.85,3.92-6.33,5.12-9.94.86-2.57,2.92-3.12,5.6-1.48a9.1,9.1,0,0,1,.94,14.93c-.94.73-1.6.93-2.59.22-.71-.52-2.12-.54-2.12.2C115.55,405,108,406.36,110.57,412.85Z" transform="translate(-75.88 -1.76)"/><path d="M128.76,293.34c.72-3.42,2.58-6.61,2.15-10.77,5.26,3.32,10.53,3.75,16,2.89,2.35-.37,4.39.22,5.46,2.46,1.57,3.27-1.11,5.62-2.26,8.18a2.94,2.94,0,0,1-4.7.94c-1.74-1.38-4.32-.63-5.73-2.66-1.11-1.61-2.22-1.46-3.55,0-1.85,2.05-4.66,2.52-7.12,3.15-5.23,1.34-7.49-.62-7.59-6,0-2.88,0-5.77,0-9.36C126.56,285.08,122.62,292.23,128.76,293.34Z" transform="translate(-75.88 -1.76)"/><path d="M140.33,636.46a6.53,6.53,0,0,1,0-1.41c.52-1.9-1.24-5.3,1.59-5.42,2.16-.09.89,3.24,1.25,5,.14.65-.08,1.68.27,1.92,1.7,1.16.57,5.07,3.71,4.37,2.36-.53,2.94-2.85,2.73-5.24-.3-3.38-.11-5.32,4.51-3.6,3.23,1.2,7.24.21,10.89.48,2.67.19,5.33,1.2,6.26,3.91s-.28,5.16-2.48,7.07c-3.32,2.87-5.86-.45-8.27-1.5-2.25-1-2.6-2.89-5.6.06a12.77,12.77,0,0,1-12,2.61C138.9,643.27,140.78,639.13,140.33,636.46Z" transform="translate(-75.88 -1.76)"/><path d="M492.31,613.86c-2.2,3.78-11.37,6.17-15.57,4-3.07-1.59-3.19-8.79-.23-14.08,2.63,3.13-.15,9.65,7.19,10.19.22,0,0-.83.13-1.43,1.27-6.91,4.88-8.63,11.3-5.33,2.55,1.31,5.07,3.52,7.58-.16a1.79,1.79,0,0,1,3-.18c1.32,1.55,4,2.81,2.77,5.27-.74,1.53-.73,4.21-3.51,4.21a13.41,13.41,0,0,0-6.59,1.54C494.57,619.89,495.25,614.46,492.31,613.86Z" transform="translate(-75.88 -1.76)"/><path d="M486.08,471.43c-.67-1.72-4.8-.28-3.5-3.57.89-2.25,2.82-3.41,5.25-2.2,1.29.65,2.19.78,2.84-.57.8-1.63-.41-2.56-1.55-3.17a9.12,9.12,0,0,0-2.92-.49c-1-.15-2.07-.12-2.16-1.5-.1-1.69,1.1-1.75,2.32-1.87,2.93-.31,5.85.25,8.86-.75,2.32-.76,3.5,3.18,1.91,6.12-2.75,5.07-3.49,11.18-8.36,15.22-1,.81-.32,3.49-.5,5.3-.21,2.12-.9,4.1-3.4,4.16s-4.94-1.1-5.74-3.67C477.85,480.29,481.9,473,486.08,471.43Z" transform="translate(-75.88 -1.76)"/><path d="M373.23,578.39c.84,2.83-1.53,5-1.5,7.71A63.65,63.65,0,0,0,374.61,605a3.92,3.92,0,0,1,.32,1.93c-.46,2,1.54,5.36-1.82,5.8-3.89.51-2.56-3.16-2.57-5,0-2.32-1.75-4-1.74-6.15,0-1.89-1-2.67-2.87-2.56s-1.82,1.51-2,2.85.73,3.65-1.41,3.61c-2.44,0-1.68-2.53-1.58-4,.35-5.24,3.55-9.72,4.09-15,.24-2.28,1.29-4.65.13-6.68s-1-3.38.53-4.8c1.85-1.69,4.16-1.11,6.16-.71C374.2,574.66,372.85,577,373.23,578.39Z" transform="translate(-75.88 -1.76)"/><path d="M483.88,409.58c.69-1.89-1.33-5.9,1.46-6.07s1.22,3.75,1.57,5.84,1,4,3,3.93c2.4,0,1.53-2.46,1.73-4,.23-1.8.31-3.63,2.93-2.14.39.23,1.17.51,1.3.36,4.27-5,9.33-.27,13.95-1.14,4.16-.78,3.91,2.39,3.82,5.13s.62,6.05-4,5.52c-3.5-.4-7.62,1.49-9.62-3.59-.9-2.3-2.65-.36-3.48.54a12.74,12.74,0,0,1-5.66,3.58c-5.33,1.83-6.84,1-6.95-4.67C483.87,411.9,483.88,410.9,483.88,409.58Z" transform="translate(-75.88 -1.76)"/><path d="M205,374.3a4.76,4.76,0,0,1,0-1c.48-1.93-1.26-5.46,1.41-5.49s1.23,3.48,1.5,5.42c.37,2.56,1.16,4.66,4.1,4.65s2.25-2.62,2.57-4.45c.34-2-1.09-5.47,1.21-5.73,2.77-.32,6.32-1.39,8.89,1.39.55.6,1.38,1.6,1.88,1.49,1.9-.41,4-1.5,4.7,1.32a14.68,14.68,0,0,1-.16,8.83c-1.09,2.74-3.57,3.68-5.94,1.27-2.2-2.22-4-2.56-6.94-1.07s-6.74-.26-10,1.91c-1.28.86-2.84-1.37-3.08-3.07a38.37,38.37,0,0,1-.06-5.47Z" transform="translate(-75.88 -1.76)"/><path d="M336.33,708.4l-3.42,5.81c-.65-3.67-.34-7.15-4.11-8.69-1-.39-1.52-2.94.22-3.13,3.3-.35,7.17-1.8,9.89,1,1.89,1.92,4.63,2.49,6.21,4.83,1.18,1.76,2.58.61,3.68-.56,3.28-3.48,4.67-1.13,5.88,1.89s.67,6.1-1.14,7.87c-1.48,1.46-4.7,1.26-7-.35a3.84,3.84,0,0,0-3.31-.61c-5.14,1.2-5.89.62-6.11-4.78,0-1,0-2,0-3Z" transform="translate(-75.88 -1.76)"/><path d="M360.9,711.31c0-2.1,0-3.6,0-5.1a4.23,4.23,0,0,1,2.68-3.89c1.74-.72,3.15.14,4.33,1.56q2.86,3.47,5.93,6.75c1.37,1.47,1.24,2.85.45,4.55-2.1,4.51-7.07,4.15-10.14,4.06C359.4,719.12,361.3,713.93,360.9,711.31Z" transform="translate(-75.88 -1.76)"/><path d="M523.87,418.93c-5.67.46-4.17-4.37-4.4-6.91-.33-3.72,1.46-6.74,6.22-5.7.16,0,.34,0,.5,0,2.71.25,6.92-4,7.7,2C534.59,413.72,529.13,419.05,523.87,418.93Z" transform="translate(-75.88 -1.76)"/><path d="M200.13,371.32c-.24,2.75-1.51,5.91-2.44,8.88-.47,1.51-5.38,2.94-7.66,2.27-3.24-1-5-4.5-3.82-8.13.81-2.47,2.08-5.57,5.75-4.52,1.79.51,2.46-.44,3.28-1.39a3,3,0,0,1,3.54-1.06C200.47,368,199.89,369.55,200.13,371.32Z" transform="translate(-75.88 -1.76)"/><path d="M189,635.85c-.26,2,1,5-1.44,6.17a15.29,15.29,0,0,1-8.07,1.7c-3.65-.42-5-3.35-4.49-7,.44-3.49,3.05-4.47,5.87-4.89,1-.14,2,.79,3.25.12C189,629.3,189.05,629.35,189,635.85Z" transform="translate(-75.88 -1.76)"/><path d="M198.13,164.05c-1.34-.3-3.76,1-4.23-2.21-.64-4.32-4.13-8.77.33-12.79,2.32-2.1,6.84.23,7.35,3.65.24,1.61,0,3.24,1.13,4.71,1,1.32,3,2.42,1.54,4.68S200.7,164.2,198.13,164.05Z" transform="translate(-75.88 -1.76)"/><path d="M162.18,297.73c-3.86.37-4.85-2.91-5.18-5.72s.58-5.65,4-6.46a8.43,8.43,0,0,1,3.46-.15c2.31.46,5.62-4.65,6.69.36S166.55,297.61,162.18,297.73Z" transform="translate(-75.88 -1.76)"/><path d="M534.22,770.89c4,2.83,7.9,17.08,7.34,25.85C533.62,788.81,536,779.23,534.22,770.89Z" transform="translate(-75.88 -1.76)"/><path d="M525.53,606.6c-.3,3.42-3,6.24-2.74,10.06.14,1.72-5.45,2.36-7.3.74-1.1-1-2.57-2.94-1.15-3.7,2.67-1.42-2.85-6.62,3.22-6C520.13,607.94,522.41,604.67,525.53,606.6Z" transform="translate(-75.88 -1.76)"/><path d="M192.77,355.67c-1.35-2.15-5.67-2.11-5.15-5.84.3-2.22.2-5.72,3.09-6.24,3.5-.62,7.64,3.64,7.59,6.87C198.25,353.85,195.8,354.77,192.77,355.67Z" transform="translate(-75.88 -1.76)"/><path d="M244,830.26c-2.82,0-5.64,0-8.45,0-1,0-2-.33-2.12-1.59s.76-1.51,1.77-1.95a22.21,22.21,0,0,1,18.1,0c1,.43,1.84.75,1.77,2s-1.11,1.57-2.12,1.59C249.92,830.29,246.94,830.26,244,830.26Z" transform="translate(-75.88 -1.76)"/><path d="M454.88,830.31c-3.5,0-5.33-1-2.85-4,1.34-1.65,1.67-3.51,2.28-5.38.51-1.54,1.29-3.07,3.44-3.06a3.63,3.63,0,0,1,3.4,2.47c.72,1.56,1,3.38-.88,4.35a3.31,3.31,0,0,0-2,3.13C458.23,830.63,456.2,830.25,454.88,830.31Z" transform="translate(-75.88 -1.76)"/><path d="M312.07,38.49c-.39,1.22.74,3.28-1.14,4.17s-2.56-1.15-3.5-2.07c-1.36-1.33-3.92-.27-4.59-2.36-.49-1.54-.94-3.52.16-4.77,1.88-2.13,4.6-1,7-1,1.75,0,2,1.4,2.08,2.79C312.1,36.25,312.07,37.23,312.07,38.49Z" transform="translate(-75.88 -1.76)"/><path d="M525.25,703.31c-.51-.49-.85-.67-1-.94-.95-2.27-2.11-4.56-.35-6.91a1.94,1.94,0,0,1,1.67.17C526.53,698.16,527,700.72,525.25,703.31Z" transform="translate(-75.88 -1.76)"/><path d="M150.33,458.7c1.53,1.13,2.48,2.18,3.66,2.61,1.5.55,2.57,3.09,4.24,1.84s1.35-4,.52-5.52c-2.09-3.86-.77-6.58,1.88-9.32,2.43-2.51,3.37-6.21,4.37-9.11,1.63-4.73,6.13-6.25,8.1-10.13a1.11,1.11,0,0,1,1.65-.48c1.32.68,4,7.89,3.18,9a15.69,15.69,0,0,0-3,10.78c.09,1.59.49,3.62-1.53,4.35-7.69,2.78-10.84,9.54-14.26,16.06-.54,1-.9,1.66-2.15,1.32C152.9,469,149.74,463.85,150.33,458.7Z" transform="translate(-75.88 -1.76)"/><path d="M269.07,497.65c.79,2.83,3.1,4.56,3.28,7.4.22,3.51-.5,6.21-4.82,5.12a3.17,3.17,0,0,0-4,2c-.91,1.93-1.24,4.11-4,1.78-.19-.17-1.45.35-1.54.72-1.38,5.29-7.37,5.47-10.2,9.34-2.31,3.15-5.44,2.29-7-1.29-1.44-3.23-3.88-6.24-2.37-10.47a14.1,14.1,0,0,1,5.62,5.89c.5.86.67,2.09,1.89,1.9,1.6-.24,1.19-1.74,1.31-2.81.74-7.2,3.09-9.41,9.95-11.17C261.81,504.85,264.55,500.43,269.07,497.65Z" transform="translate(-75.88 -1.76)"/><path d="M220.73,465.25c.52,4.21-2,7.42-3.55,11-.58,1.37-1.84,1.28-3,1.08-1.6-.3-1.55-1.79-1.25-2.77a21.06,21.06,0,0,1,2.5-5.79,8.69,8.69,0,0,0,1.94-5.43c0-1.24-.21-3,1.64-3s1.59,1.71,1.69,3C220.78,463.92,220.74,464.59,220.73,465.25Z" transform="translate(-75.88 -1.76)"/><path d="M532.12,242.37c-5.23,1.44-5.79-4.43-8.83-6.7a9.3,9.3,0,0,0-2.9-2c-3.49-1.14-4.45-4.46-2.41-7.52,3.52-5.31,8-5.6,13-.23a27.71,27.71,0,0,1,6,10.79C538.31,241,537.11,242.35,532.12,242.37Z" transform="translate(-75.88 -1.76)"/><path d="M306.83,143.54a61.7,61.7,0,0,1-3.1,7.2,6.28,6.28,0,0,0,.22,7.37c1.63,2.5,2.94,5.31.74,8.31a2.4,2.4,0,0,0,0,2.81c2.86,4.65-.36,6.44-3.76,8.37-2.09,1.19-3.15.14-4-1.38-1.16-2-.41-3.11,1.91-3.19,1.29,0,2.18-1.16,1-1.73-6.22-3-2.73-8.67-3.29-12.89-1-7.18-.32-14.58-.22-21.89,0-1.76-.87-4.32,2.38-4.47s5.81,1.29,6.88,4.17C306.44,138.45,305.2,141.19,306.83,143.54Z" transform="translate(-75.88 -1.76)"/><path d="M351,538.12a3.36,3.36,0,0,1-3.95-2.85,176.17,176.17,0,0,1-2.53-19.91c-.12-2.43,1.27-6.2,5.08-5.35,3,.67,4.89,3.09,5,6.56.23,5.08.41,10.19,1.11,15.22C356.32,535.8,354.86,538.24,351,538.12Z" transform="translate(-75.88 -1.76)"/><path d="M354.63,502.8c-.19,1.14.2,3-1.91,3.19-2.41.19-5,.82-6.82-1.68-1-1.36-2.07-4-1.4-4.34a15.07,15.07,0,0,1,7.58-2.24C354,497.81,354.76,500.37,354.63,502.8Z" transform="translate(-75.88 -1.76)"/><path d="M390.28,141.06c2.53-.44,3.77.57,3.77,3.75,0,3.48-1.26,7.31,1.86,10.31.7.67.45,1.82-.58,1.82-1.6,0-2.5,2.06-4.52.95-5.39-3-7.29-6.91-6-13.31C385.34,142,386.59,141.13,390.28,141.06Z" transform="translate(-75.88 -1.76)"/></g></g></svg>