<svg xmlns="http://www.w3.org/2000/svg" viewBox="0 0 892.25 810.43"><title>pd</title><g id="Layer_2" data-name="Layer 2"><g id="Layer_1-2" data-name="Layer 1"><path d="M1,119c10.62-1.19,21.3-.52,31.93-.55,39.48-.12,79-.14,118.44.68,13.79.28,27.62-.14,41.38.73,10.11.65,20.21,1.22,30.36,1.42-6.42,2.13-13.16,1.1-19.68,2.18-5,.84-10.06,2.23-15.26,1-1-.24-2.47.64-1.53,1.59,2.32,2.34,1,5.58,2.29,7.83,1.71,2.88-.05,3.29-2.54,4.06,2.32,1.52,4.18,2.78,6.08,4,1.29.82,2.69,1.68,2.82,3.29a77.26,77.26,0,0,0,1.78,13.58c.58,2.3-2.11,2-3.66,1.95-19.23-1.16-38.46.15-57.68,0-3.29,0-5.14,1.46-6.8,4.08-4.43,7-9.28,13.66-15.64,19.06-1.34,1.14-1.32,2.35-.23,3.41,2.07,2,2.43,6.45,6.91,5.15,2.21-.65,4.28-1.64,6.74-1.42,3.85.35,4.89,2.47,4,5.82a9.12,9.12,0,0,1-3.53,5.34c-6.93,4.53-12.47,11-20,14.71-4.76,2.39-7.57,8.49-13.16,8.63-10.89.28-16.69,6-20.64,15.43-1.69,4-5.61,6.89-9.15,9.76-2.17,1.75-3.74,1-5.21-.42-1.63-1.55-1.28-3.4.36-4.79,7-5.91,10.57-13.81,13.63-22.22,2.14-5.9,8-7.74,13.46-9,4.35-1,5.36-4,6.55-7.6-5.28,2.41-10.31,5.21-16,6.13-1.5.23-2,1.71-2.56,2.88-2.62,5.77-6.9,10.51-10.25,15.79-3.21,5.06-7.71,9.52-10.8,14.82-4.71,8.08-11.59,14.47-16.84,22.1-1,1.46-2.62,3.13-1.71,4.93s3,.39,4.56.39c6,0,11.87-2,18.06-1.28,4.11.49,6.9-3.53,9.24-6,2-2.11,2.49-2,4.19-.61a3,3,0,0,0,1,.29c2,.64,5.57-.79,5.46,2.64-.1,2.83-3.16,4-5.76,4.83a10.65,10.65,0,0,0-3.6,1.57c-6.51,5.58-14.24,6.47-22.35,6.09a6.63,6.63,0,0,0-6.82,4,6,6,0,0,1-8,3.09c-.89-.34-1.87-.89-1.77-2.13.08-.95.85-1.37,1.6-1.75a22.66,22.66,0,0,0,3.5-1.81c1.21-.92,2.2-2.17,1.54-3.88a2.64,2.64,0,0,0-2.9-1.52,3.58,3.58,0,0,0-3.46,2.3A21.71,21.71,0,0,1,14.05,293c-1.81.48-2.62,1.21-2.61,2.95,0,1.9.8,3.35,2.87,3.33,3,0,5.33,1.34,7.62,3.18,3,2.39,5.94,3.43,7.66-1.57.68-2,2.57-2.63,4.48-2.32,2.12.35,3,1.95,2.87,4a32.37,32.37,0,0,1-.5,5.93c-1.45,5.74-4.76,6.63-9.3,2.68-.37-.33-.66-.81-1.09-1-3.55-1.69-7.21-4.72-11.16-2.63-3.31,1.75-2.27,5.73-2.36,9.07-1,38.66-.1,77.32.57,115.94.79,45.21,1.32,90.43,2.53,135.63.57,21.28.44,42.58,1.43,63.83.54,11.49-.17,23,1,34.42,1.7,16.64-.39,33.34,1.43,49.84,1.46,13.1.4,26.17,1.57,39.27,1.36,15.1.39,30.4.85,45.6.46,14.94,1.48,29.85,2.16,44.78.15,3.26,1.78,4.09,4.79,4.26,20.07,1.13,40.16,1.95,60.23,2.93q31.83,1.56,63.67,2.59c11.48.39,23-.34,34.39,1,10.67,1.25,21.28,1.14,31.88.91,21.07-.45,42.08,1.13,63.09,1.76,10.14.3,20.42.7,30.29-.41,6.44-.73,13,4.32,19.07-.63a2,2,0,0,1,1.89.2c3.9,3.65,7.09.82,10.26-1.15,1.88-1.18,3.35-1.81,5.25.06,3.43,3.39,9.42,4.32,13.51,2,2.12-1.19,4.46-1.17,6.63-2,1.16-.43,2.85.19,3-1.76.12-1.6.41-3.13-1.26-4.48-2.23-1.81-2.11-2.23.84-2.79s2.15-3.07,2.87-4.64c.88-1.94,1.53-3.45,3.86-2.38,2.07,1,3,2.68,2,4.9-.48,1-2.53,2.26-.41,2.94,1.9.6,3.87,3.89,6.09,1.1,2.56-3.22,5-.53,7.06.17,1,.33,1.79,3.77.07,5.75-.75.88-2,1.75-.14,2.59,1,.46,2.4.58,3.14-.64a9.13,9.13,0,0,0,1-2.81c1.45-7,2.51-7.72,9.45-6.23,8.77,1.89,17.56,3.58,26.61,3.13,1-.05,2,.27,2.6-1.48-5.71-2.05-11.48-3.87-17.62-3.64a63.23,63.23,0,0,1-12.9-1c-4.77-.8-5.81-2.65-4.1-7.36a40.24,40.24,0,0,0,1.61-4.71c.23-1,.52-2.82-1.07-2.81-4.72.05-2.66-3-2-4.68,1.83-4.8,6.05-7.83,9.41-11.47a2,2,0,0,1,1.81-.11c.87.46.72,1.39.37,2.19a3.52,3.52,0,0,1-3.12,2.13c-1.91.2-3.34,1.63-3.15,3.25.24,2.1,2.3,2.15,4,1.58,2.54-.86,2.81.55,2.87,2.5,0,1,.51,2.13,1.65,2.21,1.44.11,1.85-1.11,2.15-2.3.84-3.41,2-7,1-10.32-1.22-4.14.6-8.16-1-12.69,3.3,3,3.44,3.33,2.67,7.81a4.93,4.93,0,0,0,1.32,4.6c1.82,1.76,1.88-.55,2.7-1.31,1-1,1.72.22,2.5.72,4.26,2.71,7.5,2,10.82-1.8A22.86,22.86,0,0,0,441.17,798,10.92,10.92,0,0,1,449,787.84c4.42-1.16,7.71.7,9.95,4.61a12,12,0,0,0,1.8,2.35c.67.69,1.4,1.67,2.52,1.17s.67-1.73.73-2.66c.7-10.28,1.76-20.53,1.24-30.86-.09-1.88-.08-4.2,1.89-4.65,1-.23,3.57,1.72,3.59,2.72.07,3.66,7.06,5.4,2.28,10.54,5.08-4.49,6.85,1.62,10.33,2.59-4.12-3.46-2.91-8.66-5-12.6a2.8,2.8,0,0,1,1.36-3.85c1.54-.64,2.31.87,3.31,1.69,2,1.61.71,4.09,1.9,6.62,2-3.9,3.3-7.24.81-10.89-1.71-2.51-1-4.38,1.45-5.74,1.41-.78,2.91-1.78,2.07-3.41-1.83-3.53.39-5.92,1.73-8.71,1.25-2.6,3.28-5.15,1.55-8.43A2.91,2.91,0,0,1,493,726c4.84-7.79,4-17.07,6.67-25.25,3.13-9.69,5.11-20.15,11.7-28.52.25-.32.84-.69,1.16-.61a1.46,1.46,0,0,1,1,2c-1.08,3.15-1.71,6.69-3.61,9.26-3.36,4.51-2.69,9.77-3.79,14.66-1.85,8.22-1.22,16.82-3.5,25-.65,2.33,2.17,4.23,2.54,3.82,2.07-2.3,4.06.21,5.91-.4,2.74-.9,3.62-.33,2.14,2.43-.5.92-.18,1.77.75,1.93,1.21.21,1.11-.91,1.14-1.69.06-1.65,0-3.32.13-5,.14-1.42.89-2.62,2.5-2.6,2.4,0,1.37,1.62,1.16,2.81,2.06.06-1,6.53,4,3.1,1.31-.91,1.05.7,1.12,1.33.18,1.65.49,3.12,2.66,2.46,1.65-.49,2.85-1.18,2.7-3.45-.14-2-.85-4.21.32-6.25.39.19.84.26.92.47.92,2.53.77,7.16,3.81,6.51,2.49-.53,5.76-3.59,6.43-7.17.31-1.65.63-3.27,2.28-3.26s.82,1.71.85,2.76c0,.8.67,1.11,1.35,1.21a2,2,0,0,0,2.38-1.37c.72-2.2,2-4.56,1.73-6.67-.54-4.09,2.83-7.09,2.36-11-.13-1.15,1-1.49,2.16-1.45,4.37.13,6.07-2.44,6.88-6.36s1.43-7.73,5.66-10.48c3.92-2.56,5.92-7.51,8.22-11.72,1.55-2.84,3.72-4,6.51-3.31,3.11.76,1.46,3.59,1.57,5.52.11,2.1-.84,4.48,2.53,4.91.36,0,.68,1,.89,1.6.64,1.82-.93,5.29.94,5.33a10.58,10.58,0,0,0,7.25-3.57c2.87-3.38,5.46-6.68,9.78-8.46,1.63-.68,4-2.39,1.82-5.1-.86-1-.49-1.88.72-2.24a1.59,1.59,0,0,1,2.23,1.31,13.75,13.75,0,0,1,.62,4.35c-.2,1.68-2.08,3.77-.42,5,2.74,2,5.82,4.08,9,4.8,1.76.39,3.2-3.23,6-3.58.76-.09,1.94-1.57,2.87-.78,1.77,1.5,3.66,2.11,5.29.51,2.23-2.18-1.14-3.73-1.17-5.75l-.13.14c2.21-.88,4.57-1.53,3-4.91a3.73,3.73,0,0,1,1.08-4.56c1.78-1.14,3.47.81,4,1.91,1.38,2.8,7.86,1,5.42,6.81,7.41-4,10.12-7.56,8.29-10.68-1.68.22-.12,3.32-2.49,2.86a2,2,0,0,1-1.6-1.73,2.94,2.94,0,0,1,2.53-3.24c3.33-.55,4-2.38,3.07-5.31,2.7,0,2.71,2.35,2.65,3.22-.44,6.61,5.65,8.27,8.9,12,1.13,1.3,2.43,2.14,2.16,4.07-.6,4.16,1.11,6.33,6.49,5.65-2.76,2.87-3.42,4.87-.69,7.28,1.18,1,1.6,1.32,2.65.41.62-.54.77-2.21,2.1-1a2.22,2.22,0,0,1,.37,2.77c-.57,1.06-1.13,2.09-.46,3.27.77,1.35,2.84,2.08,2.95.67.23-3,3-5.9.54-8.93-3.2-4-.63-7.85.34-11.69.17-.7,1.45-1.27,2.34-1.61,1.49-.58,11,3.65,11.55,5.12a3.82,3.82,0,0,1,.21,1.92c-.22,1.39-2.95,2.81-.37,4.09,2.11,1,4.08,0,5.73-1.8.76-.84.19-4,2.52-2.3,1.74,1.3.47,3.38-.83,4.76-.53.57-1.48.72-2.12,1.21-1.84,1.4-1.75,1.74.6,2.86,4.5,2.14,5.19,5.55,2.32,11.38,4.43-.39,7-3.93,6.46-9.47,2.44,1.17,5.46,1.73,6.41-.81.88-2.35-.19-5.18-3.66-5.72-.35-.05-.56-1.05-.84-1.61,5.09.48,1.34-6.14,3.7-5.57s6.64,2.54,6.46,5.75c-.35,6.37,5.16,7.47,8.3,10.51,2.9,2.81,7.39,3.49,10.36,6.7,2.83,3.06,4.55-.58,6.48-1.89.67-.45.22-1.6-.35-2.25s-1.5-1.41-2.13-.74c-5.28,5.59-5.91-1.89-7.44-3.39s-2.23-2.74-4.9-2.45c-4.75.53-.15-3.23-1.84-4.45-1.36-.63-1.55,2.65-2.93,1.31-.93-.9-.59-2.55.07-3.78,2.92-5.43,2.66-9.56-1.42-14.48,3.34,1.14,3.79-1.47,5.45-4,.68,4.34,1.48,7.54.29,10.92-1.29,3.66.51,7.08,1.11,10.58.08.44.53.82.81,1.22,2.9-3.22,7.82.79,10.58-3a16.79,16.79,0,0,1,1.92-2.28c1-1,2.31-1.69,3.59-.84s1,2.22.21,3.51-2.11,2.67,0,3.74c1.4.69,2.89,1.44,4.53-.17s3.37-3.17,6.09-1.2c1.77,1.28,2.42-.69,2.18-1.94s-1.3-2.12-2.24-3.53c2.63-.18,4.71-.87,6.27-2.76,1.35-1.63,3.2-1.58,5.05-1,3.64,1.19,4.18-1,4.38-3.82.34-5,.82-9.92,1.24-14.91,2,0,1.65,1.5,1.73,2.52.23,3.09-.83,6,3,8.52,2.95,1.9,0,6.14,0,9.34,0,1.74-1.36,3.32,1.06,4.6,2.25,1.2,4,1.41,5.6-.87a3,3,0,0,1,2.56-1.3c.91,0,1.72-.43,1.54-1.49-.21-1.26-1-.65-1.84-.56-1.72.18-5.37-6.45-4-7.34,2-1.32,1.8-3.54,3-5s1.47-3.55,2.71-5c2.32,2.13,5,.31,7.51.78,2,.38,2.3,2.43,2.5,3.92.45,3.41-3.14,2-4.76,3.59,1.61,2.5,2.58,5.15,6.53,2.21,2.5-1.87,5.39-.27,7.62,1.72,2.45,2.18,4.89,4.37,2.39,8.08-.57.83-2,1.47-.85,3.3,2.28-2.65,7.15-1.16,8-6.53.36-2.3,2.73,1,4.77,1,.43-3-1.29-7.3,3.54-8.06,2.86-.45,1.32,3,3.34,4.12,2-2.71,6.1-3.35,7.62-7.09.45-1.11,1.55-1.06,2.55-1.16,1.22-.12,3,.45,3-1.58,0-1.45-1.08-2.35-2.65-2.45-1.33-.08-3.18-.06-2.36-2,.68-1.61,2.35-2.58,3.93-.67,1.11,1.34,1.85.91,2.78-.14,3.49-3.94,3.46-11.56-.09-15.32-.86-.91-3.52-1-1.91-3.12s3.44-1.54,4.94.51c.3-.58.61-1,.54-1.08-4.22-4.47.86-6.71,2.45-9.65.83-1.54,2.18-.46,2.47.74.42,1.76,1.27,4.37.45,5.3-2.78,3.15-1.5,3.88,1.71,4.58.86.18,1,1.72.26,2.59-.52.59-1.44.81-2.06,1.34-4.68,4-4.23,10.69,1.17,13.34,2.27,1.1,3.69-.63,3.63-3.12-.08-3,.5-5.07,4.19-5.81,2.84-.57,3.33-5.94,1-8.45a34.92,34.92,0,0,0-3.81-3.09c8.35-4.07,7.41-11.89,7.37-18.81,0-5.63-.52-11.27.32-16.85,1.45-9.76.93-19.6,1.36-29.39,1-22.93,1.76-45.88,2.75-68.81.31-7.05-1.5-13.84-2-20.78-.65-8.64-1-17.3,3.11-25.35a11.44,11.44,0,0,0,1-5.31c.1-6.16.24-12.32.38-18.48.55-23.63,1.22-47.24,1.23-70.88,0-25.41,1.56-50.8,2.7-76.17,1-23.48.28-46.93,1.12-70.37.2-5.64.62-11.27,0-16.91-.19-1.75.2-4-2.62-3.87-2.51.13-2.74,2.13-2.75,4-.06,7,0,14,0,21a29.21,29.21,0,0,1-.05,4.49c-.32,2-.06,5.35-2.54,5-2-.31-.47-3.39-.41-5.26q.43-13,.8-26c.1-3.33-2-4.21-4.85-4.25-7.49-.11-15,.36-22.46-.63-1-.14-2-.17-3-.31-1.21-.17-2.41-.6-2.37-2.05,0-1.66,1.54-1.6,2.63-1.55,6,.27,11.92.63,17.88,1,.17,0,.33.09.49.09,3,.09,6,.21,9,.25,4.59.08,1.36-5,4-6.23,1.8.8.91,2.75,1.81,3.89s1.87,3.25,3.85,2.11c1.68-1,1.44-2.78.73-4.47-2.09-5-7-5-11-5.23-12.74-.84-25.59-.41-38.28-1.67-19.84-2-39.77-1.68-59.61-3.4-10.34-.9-20.74-1.23-31.12-1.41-20-.34-40-.38-59.88-1.74-23.43-1.61-46.9-.36-70.22-2.4-15.65-1.38-31.29.18-46.82-1.2-15.81-1.4-31.65.1-47.36-1.3-12.11-1.09-24.25-.09-36.26-1.2-17.11-1.57-34.24-.31-51.33-1.46-12.75-.85-25.51-1.57-38.24-2.6-7.8-.63-8.46-2.33-5.5-9.58,1.73-4.24,1.93-9.91,6.23-11.91,4.83-2.25,3.51-5.68,3.43-8.91-.09-3.92-2.74-5.55-6.47-4.42-1.1.33-2.15,1.2-3.32.69-9.57-4.21-19.75-1.62-29.6-2.69-1.25-.13-2.68.55-3.81-1,1.73-2.21,4-.83,5.87-.71,18.45,1.17,36.93.22,55.39.88,32.58,1.15,65.18,1.55,97.76,2.7,23.05.81,46.11,1.78,69.18,2.62,23.92.86,47.84,1.65,71.75,2.61,12.47.5,24.95.56,37.39,1.28,23.24,1.35,46.45,2.74,69.75,2.76A334,334,0,0,1,797.35,139c15.19,1.66,30.43,1.64,45.62,2.67,13.73.93,27.45,2,41.22,2.34,2.95.07,5.76,1.66,8.81,1q0,362.17.12,724.35c0,4.26-1.11,4.75-5,4.75q-441.15-.17-882.31,0c-3.86,0-5-.51-5-4.76Q1.08,494.18,1,119ZM625.15,787.67c-4.43-.45-7.64,1.86-10,5.65-9.08,14.39-8.6,29.94-5.14,45.7,1.31,5.94,6.72,7.85,11.82,8.32,4.84.45,8.78-2.27,11.2-6.87a52.9,52.9,0,0,0,5.82-28c-.12-2.3-.55-5.41,1.73-6.36,2.65-1.1,2.9,2.49,4.26,3.9,3.4,3.5,4.7,3.62,6.41-.48,1.42-3.38,3.35-2.27,5.61-1.35s5.38,1.78,4.4,4.93c-.71,2.29-3.43,3-5.92,2.3-1.73-.46-3.85-1.95-5.07-.16-2.39,3.51-5.66,7.69-3.69,11.83a184.34,184.34,0,0,0,13,22.34c2.44,3.69,6,2.54,7.61-1.67s2.15-8.21-.47-11.89c-3-4.16-1.45-7.2.81-11.13,3.86-6.74,6.58-14,4.46-22.19a13.23,13.23,0,0,0-8.22-9.33c-3.55-1.48-6.74-1.61-9.65,2-1.86,2.31-3.44-.21-4.61-1.77-2.29-3.06-4.25-3.33-6.38.27-2.6,4.4-3.49,4.41-6.47.07C633.92,789.8,630.44,787.4,625.15,787.67Zm50.59,55.75c0,.83,0,1.67,0,2.5-.29,4.21.72,6.78,5.82,7.29a49.35,49.35,0,0,1,8.79,1.33c9.26,2.62,11.84-2,12.17-10.37.11-2.87-1.25-4.3-4.13-4.43-2.64-.12-5.3,0-7.91-.83-2.27-.72-5-1.18-4.37-4.3s3.23-1.87,5.29-1.58c7.76,1.1,9.65-.29,10.92-7.94,1.07-6.5,0-7.81-6.85-8.09a31.57,31.57,0,0,1-4.47-.34A2.76,2.76,0,0,1,688.4,814c0-1.76,1.51-2,2.86-2.07,2.15-.08,4.35-.44,6.42.43,3.15,1.32,5.2-.09,6.36-2.84a40.49,40.49,0,0,0,2.11-7.12c.72-3.22-.61-4.83-4-5.2-4.94-.54-9.94-.57-14.81-1.88-3.12-.84-5.56.48-6.63,3.73-.82,2.52-2,5-2.31,7.6C677,818.9,677.22,831.22,675.74,843.42Zm-80.47-59.54c-4.46-.44-7.22,2.19-9.31,5.53-8.65,13.76-8.4,29-6.72,44.3.61,5.57,5,8.86,10.16,9.64,4.49.69,8.08-2.1,10.63-6,5.13-7.78,6.34-16.57,6.77-25.57a3.86,3.86,0,0,0-.72-2.8c-4.31-3.6-2.46-7.59-1.15-11.74C606.83,791.27,601.6,784.19,595.27,783.88Zm163.66,21.47c-3.38-.39-5.33.86-6.15,4.33-.87,3.74-1.45,7.49-2,11.27-1.56,10-.69,20.25-2.38,30.28-1.31,7.79.57,9.79,8.56,10.28,2.15.14,4.27.6,6.42.83,7.41.8,10.26-1.85,10.74-9.49.23-3.68-1.21-5.3-4.8-5.25a37.5,37.5,0,0,1-9.36-1.39c-1.64-.39-3-1-2.35-3,.59-1.66,1.21-3.37,3.85-2.85,9.45,1.87,8.61,1.41,11-8.42.66-2.73-.12-4.87-3.71-5a46.66,46.66,0,0,1-6.85-1.22c-1.88-.34-3.09-1.35-3-3.35a2.86,2.86,0,0,1,3-2.72,33.56,33.56,0,0,1,8.45.21c3,.64,5.44.92,5.78-2.91.31-3.57,2.31-8.09-3.42-9.36C768.16,806.64,763.52,806.1,758.93,805.35Zm28.38,30.51a20.62,20.62,0,0,1-2.52,8.41c-2.33,4.23-4.64,8.5-5.62,13.29-.44,2.17-1.35,4.8,1.67,6s4.26-1.14,5.4-3.12c1.66-2.88,3-5.94,4.58-8.86.52-1,.64-2.46,2.09-2.54,1.62-.1,1.56,1.58,2,2.48A71.21,71.21,0,0,1,799,861.66c.83,2.86,2.61,4.68,5.19,4.47,3-.23,2.49-3.35,2.91-5.55,1.28-6.56-2.48-11.9-4.38-17.66a13.73,13.73,0,0,1,.44-10.59c2.08-4.51,5.12-8.61,6.07-13.62.35-1.81,2-4.23-.66-5.22-2.2-.82-4.78-1.07-6.2,2.2-1.31,3-3.35,5.74-5.06,8.59-.5.82-.63,2.14-1.84,2.1s-1.21-1.32-1.51-2.25c-1.2-3.79-2.38-7.6-3.71-11.35-.55-1.54-1.31-3.2-3.34-3.25-2.33-.06-3,1.74-3.61,3.52a14.1,14.1,0,0,0,.33,9.26C785.15,826.69,787.16,831,787.31,835.86Zm-62.23,12.83h.14c0,1.83.06,3.66,0,5.49-.09,2,.37,3.7,2.53,4.29,2.5.69,3.25-1.31,3.81-3a47.32,47.32,0,0,0,2.77-13c.31-7.09,1-14.17,1.66-21.24.17-1.8.68-4.41,2.82-4.06,6.56,1.08,6.72-3.91,7.94-7.8s-.54-6-4.55-6.42c-4.45-.46-8.9-1-13.34-1.51-6.85-.83-9.61,1.46-10.17,8.28-.22,2.63.17,4.62,3.3,5,3.91.5,5.11,2.88,4.82,6.65C726.11,830.48,725.63,839.59,725.08,848.69ZM657.57,676.11c-6,3.91-2.78,10.32-3.65,15.56-.24,1.44.24,6.43,2.11,7.58,5.51,3.38,2.85,5.93,0,8.84-.86.9-1.74,1.79-.58,2.93.89.87,6.16-1.08,6.11-2.37-.09-2.49,1.95-4.7,0-7.59-1.55-2.31-2.56-5.84-2-8.45a8.07,8.07,0,0,0-1.16-7c-1-1.61-4.41-5.09,1.44-6,2.29-.38,2.81-3.47,2.71-5.37-.12-2.27-2.62-1.21-4.11-1.36-1.7-.16-3.43,0-5.54,0C654,675.39,656.22,674.72,657.57,676.11ZM816.81,818.19c1.62,3.14-1.07,5.79-.84,8.69.1,1.29-1.29,3.59,1.72,3.59,2.18,0,4.43.21,4.38-3.09a22.21,22.21,0,0,1,1.26-7.84c.9-2.54-1.56-3.68-3-4.61s-4.56-1.71-5.39-.37a17,17,0,0,0-2.79,11.25C815.68,823.67,813.58,819.54,816.81,818.19Zm-98,6.24c.23-2.52-.87-4.15-3.44-4.47-3.32-.41-6,3.38-6.64,9.08-.29,2.7,0,5.05,3.31,5.6C715.05,835.13,718,830.65,718.79,824.43ZM559.56,734c-.68-2.68-.08-5.22.08-7.78s-.65-4.74-2.86-5.9-4.14,0-5.84,1.5a26,26,0,0,1-2.27,1.93c-2.37,1.65-1.77,4.08-1.64,6.34,0,.49.73,1.32,1.15,1.34,2.45.09,3.27-1.78,4.07-3.66.88-2.08,2.62-1.93,4.16-1.18a1.87,1.87,0,0,1,.52,3C552.8,734.08,558,732.88,559.56,734ZM572,692.39c.35-.82.89-2-.33-2.5a2.09,2.09,0,0,0-2.75,1.48c-1.36,3.6-4.1,6.31-6.24,9.34s-.7,5,.4,7.3c.51,1.08,1.95,2,2.59.3C567.68,702.94,573.28,699.09,572,692.39Zm143,3c-.78.32-2.41.44-1.72,1.69.88,1.62-1.45,4.48.93,4.61a6.89,6.89,0,0,1,5,2c1.17,1.08,2.86.5,3.56-1.29.61-1.54.86-3.35,1.85-4.57s.74-1.64-.22-2.59-1.75-1.46-3-1c-2,.73-.87,3.62-3,4.26C715.53,699.36,717.47,695.09,715.06,695.36ZM534.83,731.31c-4.83.64-6.74,3.57-5.44,8,.22.73.6,1.82,1.13,2,1.06.31,1.87-.6,2.15-1.57C533.43,737.08,534.05,734.39,534.83,731.31ZM693.37,678c-.1-1.11-1-2.24-1.33-1.72-1.76,2.55-6.09,2.26-6.62,5.75-.29,1.93,1.9,3,3.32,2.89C693.08,684.59,690.65,679.47,693.37,678ZM186.17,148.17c-.22-2.27-.52-4.65-3.34-5.35-1.16-.29-2.3.64-1.43,1.61,1.82,2-1.26,6.38,3.14,6.85C186.43,151.49,186,149.54,186.17,148.17Zm609,519.55c-.16,2.76,1.61,4.34,2.14,6.53.21.83,2.69,1.37,4.18,1.48.59,0,1.23-1.56.3-2.4C799.59,671.39,797.33,669.58,795.12,667.72ZM786,691.21c-.83-1.1-.63-3.13-2.22-3.13-2,0-3,1.83-3.56,3.57a1.48,1.48,0,0,0,1.74,1.84C783.55,693.32,785.14,692.85,786,691.21Zm-16.34-8.56c-.4,2-3.85-1-3.72,2.14.1,2.59,3,1.67,4.42,2.73.95.7,2.39-1.06,2.51-2.29C773,683.47,771.7,682.71,769.65,682.65ZM577.79,707.94c.65-2.12,1.42-4.22,1.89-6.38a1.9,1.9,0,0,0-1.52-2.25,1.62,1.62,0,0,0-1.75,1.92C576.6,703.42,575.61,705.7,577.79,707.94Zm87.49-15.69,1.09-.71c-1.77-2.11-2-4.74-2.92-7.14-.37-1-1-2.45-2.46-1.62a2.16,2.16,0,0,0-.58,3.1C661.88,688.1,663.64,690.14,665.28,692.25Zm158.53,141c3.73-4.36,4.41-7.77,2.81-12C824.19,824.74,825.1,828.8,823.81,833.27ZM705,692.32a7.07,7.07,0,0,0-3.92-2.62c-1.06-.19-1.21.83-1.15,1.68a3.36,3.36,0,0,0,3.13,3.19C704.23,694.76,704.8,694,705,692.32Z" transform="translate(-0.88 -63.67)"/><path d="M318.92,407c.85,18.81-.94,37.88-3.05,56.89-1.52,13.68-4.51,27.16-7.66,40.61a378.84,378.84,0,0,1-18.16,56.85c-13.73,33.66-30.49,65.7-54.45,93.55-11,12.75-22.27,25-35.45,35.49-2.72,2.16-4.94,4.94-7.44,7.38-2.19,2.14-4.26,2.59-6.94.28-8.21-7.07-15.23-15.29-22.61-23.14-18.23-19.36-32-41.92-45.47-64.65-8.11-13.73-14-28.66-20.61-43.15-7.59-16.54-12.7-33.94-17.44-51.41a382.32,382.32,0,0,1-9.37-48.36,548.51,548.51,0,0,1-5.18-65c-.24-13.45.43-26.95,1.37-40.38.57-8.26,2.05-16.46,2.58-24.76.19-3,2.58-4.83,5-6.46,16.85-11.28,35.73-17.92,55.23-22.15,22.56-4.89,45.48-8.18,68.74-6.27,10.94.9,21.56,3.75,32.22,6.14,16.23,3.65,32.29,8,47.37,15.28,12,5.79,23.14,13.08,34.17,20.5,5.36,3.6,4.21,9.88,4.86,15.07A298.22,298.22,0,0,1,318.92,407Zm-5.44-8c0-11.66.12-23.32,0-35-.13-9.25-2.64-17.07-12.19-21.3-7.43-3.28-14.4-7.59-21.63-11.32a206.34,206.34,0,0,0-70.46-22.06,223.81,223.81,0,0,0-43.14-1,227.34,227.34,0,0,0-31.55,4.47c-17.68,3.83-34.29,10.66-50.39,18.67-5.87,2.92-11.17,6.3-11.85,14.59s-1.35,16.83-1.68,25.29c-1.26,32.08-1,64,4.24,95.87,4.33,26.13,9.83,52,19,76.81,11.25,30.45,24.64,59.9,43.15,86.93a469.92,469.92,0,0,0,46.24,57.32c4.7,5,6.94,4.92,12,.11,1.32-1.26,2.35-2.85,3.77-4,10.78-8.46,19.65-18.89,28.87-28.86,8.45-9.12,15.51-19.55,22.19-30.09,13.91-22,26.28-44.75,35.79-69a358.28,358.28,0,0,0,16.87-54.75c2.48-11.36,4.47-22.77,6.38-34.23,1.83-11,3.28-22,4.24-33C314.27,422.71,313.47,410.82,313.48,399Z" transform="translate(-0.88 -63.67)"/><path d="M592.34,629.86c-.88-2.54-1.36-4.66-3.73-5.53-.82-.31-1.62-1.18-1.27-1.91,3.21-6.6-.74-13.25.27-19.92,1-7,2.61-13.18,8.45-17.94,8.05-6.55,18.36-3.2,23.82,5.34,4,6.18,3.44,13,3.42,19.82,0,1.91-.37,3.86.68,6.46a18.8,18.8,0,0,0,2.84-10.4c.13-5.49.47-11,.49-16.47,0-3.09,1.13-5.13,4.17-5.95s5.33.12,6.77,2.79c2.12,3.92,4.66,7.65,5.85,12,.34,1.24.85,2.94,2.34,2.89,1.81-.06,2.16-2,2.29-3.38.22-2.65.12-5.32.17-8,.05-3,1.35-5.52,4.46-5.62,3.36-.11,5,2.4,5.11,5.61.15,7.32.13,14.65.1,22,0,5.22,1.19,10.46-.56,15.66-.41,1.22-.21,2.66-1.32,3.62-1.68,1.44-1.67,2.49.29,3.84a2.55,2.55,0,0,1,.19,4c-1.37,1.38-2.37-.29-3.39-.93-4-2.49-8.11-4.88-8.59-10.34-.09-1-1.68-2.19-1.81-1.61-.74,3.25-5.31-1.19-5.39,3s-.75,6-5.4,2.62c-3.82-2.8-8.87-3.9-13.38-5.74a2,2,0,0,0-2.25.59c-5.5,4.82-11.43,5.1-17.8,1.8C596.77,626.87,594.07,625.44,592.34,629.86Zm12.92-37.09a5.36,5.36,0,0,0-1.69.59c-4.89,3.12-7.2,15.64-3.82,20.52,2.16,3.13,5.85,3.17,8.75,1,5-3.72,4.94-15.32,1.49-19.92C608.93,593.57,607.84,592.46,605.26,592.77ZM640,619.28c.79-1.79,1.49-3.88-1-4.4-2-.41-1.57,1.59-1.47,2.81.16,2-.43,5.08,2.28,5.1C642,622.8,639.67,620.47,640,619.28Z" transform="translate(-0.88 -63.67)"/><path d="M675.79,542c-2.9,3.06-2.39,5.92-3.26,8.34s-2.2,4.35-5.37,4-4.93-1.54-5.5-4.7c-.42-2.39-1.15-4.71-1.91-7.7-2.76,2.64-.71,5.27-1.51,7.45-.7,1.89,0,4.89-3.31,4.47-2.8-.34-5.81-1.15-6-4.82-.18-3.48-.17-7,0-10.47.38-8.13,1-16.25,1.33-24.38.13-3.19.69-5.56,4.5-5.81,4-.26,7.94-.38,9,4.67,1,4.7,1.73,9.45,2.56,14.18a2.27,2.27,0,0,0,1.92,2.14c1.2-4.55,2.65-9,3.52-13.66,1.11-5.91,2.75-7.42,8.65-6.88,4.59.42,5.66,2.15,5.58,8.1-.14,10.6-.24,21.21-.11,31.82,0,3.47-1.12,5.42-4.63,5.68-3.86.28-5.45-1.8-5.48-5.42C675.78,547.07,675.79,545.1,675.79,542Z" transform="translate(-0.88 -63.67)"/><path d="M689.69,594.37c.69,7.89-.43,14.77.87,22,.85,4.78-1,10.83-3.36,15.86-.75,1.63-2.63,1.31-4,.71-3.12-1.34-6.21-3-6.19-7,0-5,.32-10,.56-14.93.32-6.64.37-13.31,1.13-19.89s3.71-7.73,9.59-4.61c.71.38,1.81,1.11,2.2.86,6-3.89,12.35-.86,18.51-1.15,1.5-.07,3,.13,4.49,0,3.73-.41,5.6,1.28,6.07,4.9.42,3.23.35,5.93-3.83,6.73-2.91.56-4.06,2.8-4.45,5.78-1,7.88.15,15.8-.9,23.7-.49,3.75-1.45,6-5.53,5.75s-7.37-3.45-6.76-7.09c1.35-8.09-.4-16.28,1-24.36.33-1.86,0-3.85-2.62-3.88C694.14,597.73,692.7,595.9,689.69,594.37Z" transform="translate(-0.88 -63.67)"/><path d="M523.28,597.93c1.47-4.16,1.24-8.23,1.44-12.3.13-2.73-.5-6.82,3.92-6.81,4.15,0,5.43,3.1,5.3,6.94-.39,11.45.84,22.92-.9,34.38-.57,3.71-1.81,4.9-5.28,4.69-2.42-.14-5-.5-7.45,1.31,2.35-5.91-.46-10.37-3.23-14.85-.59-1-1-2.34-2.5-1.87a3,3,0,0,0-1.84,2.78c-.27,2.62-.07,5.29-.42,7.89-.31,2.32-1.07,4.86-3.74,5.35-2.83.53-4-2-5.1-4a7.55,7.55,0,0,1-1-3.81c.29-11.56.63-23.11,1.1-34.66.08-2,.65-4.1,3.3-4.3,3.07-.24,6-.25,7.57,3.26,2.24,5.12,6.35,9.33,7.37,15.06C521.92,597.3,522.59,597.49,523.28,597.93Z" transform="translate(-0.88 -63.67)"/><path d="M571.44,604.25c-1.76,5.77-1.79,12.6-6.36,18-5.53,6.58-16.63,7.85-23.35,2.53-1.49-1.18-1.76-2.7-1.88-4.4-.85-12,1-23.89.95-35.85,0-4.57,4-4.41,6.94-4.62,2.24-.16,4.39.46,6.62-.91,1.57-.95,3.35.16,5.08,1C569.35,585,570.28,594.34,571.44,604.25Zm-22,.51c0,2.31,0,4,0,5.61s.3,3.08,1.94,3.69a5.36,5.36,0,0,0,5.19-.73c4.82-3.57,5.63-16.07,1.49-20.56a5.51,5.51,0,0,0-5-1.6c-1.33.11-2.26.64-2.27,2.07C550.84,597.35,548.47,601.19,549.46,604.76Z" transform="translate(-0.88 -63.67)"/><path d="M391.14,445.2c2.72-6.88,2.89-12.91,4.38-18.61.54-2.11.54-4.83,3.94-4.81,2.62,0,4.47.54,4.84,3.68.55,4.77,2.25,9.36,2.34,14.22,0,1.52.18,3.57,1.81,3.73,2.41.23,1.88-2.24,2.21-3.7,1-4.38,1.89-8.78,2.78-13.18.59-2.91,2.12-4.47,5.25-3.78s2.45,3.32,2,5.23c-2.63,11.3-5.44,22.57-8.24,33.83-.53,2.15-1.39,4.37-4.17,4.08a5,5,0,0,1-4.84-4.28c-.66-3.75-1.29-7.52-1.8-11.29-.25-1.85-.45-3.63-2.26-4.94a58.14,58.14,0,0,0-3.14,13.5c-.25,2.91-.8,6-4.52,6.05-3.5,0-4.91-2.19-5.54-5.74-2-11.29-4.43-22.52-6.76-33.75-.41-2-1.53-4.15,1.56-4.68,2.85-.5,4.71.66,5.28,3.82,1,5.88,2.31,11.72,3.52,17.56A23.67,23.67,0,0,0,391.14,445.2Z" transform="translate(-0.88 -63.67)"/><path d="M615,506c3.94.24,7.9-.44,11.79,1.22,2.88,1.23,3.68,3,3.33,5.84-.38,3.05-2.17,4.32-5.12,4.2a67.87,67.87,0,0,1-8.93-.5c-1.81-.32-2.93-.41-3.32,1.58s.18,3.64,2.48,4.06a53.87,53.87,0,0,0,7.81,1.28c4.69.18,3.94,3.43,4.13,6.4.25,3.64-1.83,4.08-4.7,3.91-2.33-.14-4.67-.09-7,0-1.57,0-3.53-.47-3.52,2.22,0,2-.29,3.9,2.51,4.6a32.74,32.74,0,0,0,8.41.8c3.36,0,5.92.88,6,5,.1,4.24-1.44,6.67-6.07,6.43-5.47-.29-10.87-1.31-16.38-1.27-2.79,0-4.56-2-4.48-5,.34-12.12.66-24.24,1.16-36.35.12-2.77,1.68-4.6,4.91-4.39C610.29,506.13,612.63,506,615,506Z" transform="translate(-0.88 -63.67)"/><path d="M642.57,460.68c-.89-8.07,1.89-16.53,1.39-25.21-.18-3.07,1.57-4.85,5-4.67,3.65.2,7.28,0,10.91.9,8.44,2.07,13.64,9.83,10.05,17.55-2.37,5.09-1.35,9.34-.2,13.84.81,3.17.62,6.25.81,9.39.18,2.83-1.53,3.83-3.93,4.1s-4.34-.6-4.64-3.3a62.31,62.31,0,0,1-.33-7c0-4.3-2.13-6.63-6.37-6.59-4.44,0-3.46,3.55-3.61,6.24-.12,2-.14,4-.27,6-.15,2.25-.57,4.87-3.44,4.42-2.57-.4-5.71-1-5.46-5.1C642.73,468,642.57,464.61,642.57,460.68Zm10-15.69c-.15,2.81,0,5.11,3.85,4.81,3.06-.24,5.16-1.14,5.27-4.61s-1.58-4.6-4.93-4.57S652.08,441.81,652.58,445Z" transform="translate(-0.88 -63.67)"/><path d="M767.08,435.31c7.07.06,11.29,3.42,12.75,10.16.45,2.07.52,4.12-1.82,5.1a4.32,4.32,0,0,1-5.41-1.19c-1.17-1.4-2.17-3.13-3.65-4-1.63-1-4.08-1.53-5.07.91-.78,1.93-.35,4.26,2.22,4.7,3.45.59,5.89,3,8.76,4.53,5.37,2.88,7.42,10.82,5.12,17.31-1.92,5.45-9.56,10.37-15,9.65-6.85-.92-12.7-6.7-13.14-13.11-.16-2.39,0-4.89,2.85-5.71,2.5-.71,4.58,0,5.72,2.61a8.1,8.1,0,0,0,1.26,2.15,6.78,6.78,0,0,0,7,2.41c1.26-.32,2.53-1.17,2.3-2.83-.38-2.74-2.5-3.53-4.79-4.39-8.82-3.33-13.16-8.55-12.9-15.16C753.67,440.41,759.07,435.23,767.08,435.31Z" transform="translate(-0.88 -63.67)"/><path d="M704.82,509.83c4.84-.21,6.46,2.68,7.31,6.08q4.11,16.44,7.94,33c.57,2.48,1.8,5.86-1.59,6.88s-6.57-.37-8.1-4.1c-1-2.39-1.39-5.09-5.18-4.95-3.27.12-5.46,1.11-6.42,4.3-1.22,4.07-4.37,5-7.87,4.1-2.22-.58-4.51-1.63-3.21-5.35,4.13-11.76,7.83-23.67,11.63-35.54C700.3,511.17,701.72,509,704.82,509.83Z" transform="translate(-0.88 -63.67)"/><path d="M473,602.5c-.64-5.9.62-13.3,1-20.73.15-2.88,1.4-4.27,4.3-4.23,5.16.06,10.31-.06,15.46.15s6.53,1.88,5.89,6.85c-.57,4.52-3.56,3.7-6.69,3.21a55.47,55.47,0,0,0-8-.23c-1.56,0-3.1.11-3.06,2.27,0,1.63-.31,3.38,1.77,4.2a15.66,15.66,0,0,0,7.83.73c3.69-.44,6.68.3,6.75,5,.06,4.33-2,6-6.17,5.57-2.14-.23-4.31-.27-6.46-.37s-3.82.37-3.78,3.24c0,2.61,1.14,3.47,3.58,3.59,3.79.19,7.58-.2,11.38.88s2.73,4.05,2.73,6.45-1.33,4.17-4,4c-6.61-.34-13.23-.78-19.84-1.18-2.55-.16-2.71-2-2.7-3.91C473,613.39,473,608.74,473,602.5Z" transform="translate(-0.88 -63.67)"/><path d="M479.44,535.46a239.2,239.2,0,0,0,1.26-28.83c-.06-3.51,1.55-5.21,5.29-4.75,2.63.33,5.31.23,8,.39,10.1.62,15.86,7.54,12.69,17.2-2,6.09-.18,11.37.1,17,.12,2.31.27,4.63.41,7,.13,2.12-.81,3.63-2.85,4.09-2.23.51-3.74-.57-4.83-2.58s-1.06-4.14-1.07-6.31c0-2,.18-4-.75-5.88-1.37-2.76-3.83-3-6.39-2.74s-3,2.23-3,4.39c0,2.67,0,5.33-.19,8-.15,2.38-1.1,4.45-3.87,4.21s-4.8-1.4-4.74-4.65C479.47,539.8,479.44,537.63,479.44,535.46Zm8.81-20.67c0,3.85,1.21,6.34,4.44,6.06,2.8-.25,6.46-1.07,6.24-4.92s-3.7-4.65-6.9-4.86S488.2,513,488.25,514.79Z" transform="translate(-0.88 -63.67)"/><path d="M587.06,428c5.2-1,8.76,2.12,12.05,5.92,5.91,6.84,6.61,27.12-1.35,34.76-7.48,7.17-15.43,7.63-22.56.11-8.61-9.1-6.47-31.47,2.32-37.94C580.37,428.76,583.21,427.55,587.06,428Zm8.33,21.07c-.36-1.66-.7-3.79-1.29-5.85-.88-3.11-2-5.89-6-6.29s-6.62,1.24-8.26,4.82c-2.82,6.1-1.9,12.24,0,18.26a5.61,5.61,0,0,0,5.66,4c3.1.05,5.59-.68,7.09-3.51A26.08,26.08,0,0,0,595.39,449.08Z" transform="translate(-0.88 -63.67)"/><path d="M492.13,447.37c0-5.65.17-11.31-.06-16.95-.17-4.19,2.16-5.2,5.57-5.16,2.65,0,5.37.71,7.94.33C516.5,424,521.42,436.36,517.46,445c-1.13,2.48-1.64,4.5-.56,7,2,4.72,1.19,9.85,1.83,14.77.29,2.23-1.36,3.42-3.14,3.92-2,.57-3.44-.78-4.45-2.43-1.4-2.28-.82-4.85-1-7.31-.17-2.91-.61-5.64-3.87-6.88-4.36-1.66-6.59-.23-6.68,4.42,0,2.16-.08,4.32,0,6.48.08,3-1.28,4.18-4.24,4.11s-4-1.25-3.91-4.31c.24-5.81.07-11.64.07-17.46Zm8.75-8.33c-.19,2.91.05,5.73,3.56,5.38,3-.29,5.84-1.38,5.81-5.47,0-3.7-2.16-4.24-5.16-4.46C501.34,434.22,500.36,436,500.88,439Z" transform="translate(-0.88 -63.67)"/><path d="M734.43,434.48c3.45.28,7.9.66,12.36,1,2.49.19,3.56,1.63,3.46,4-.1,2.14-.81,4-3.37,4.16-3.15.15-6.31.14-9.47.14-2.43,0-4.31.56-4.33,3.52s1.6,4.07,4.44,3.9a32.26,32.26,0,0,1,6,.08c2.92.38,4.26,2.32,4.24,5.22,0,3.06-1.56,4.59-4.63,4.58-1.83,0-3.66,0-5.49,0-2.66-.06-4.85,0-5,3.75-.17,3.43,1.17,4.32,4.27,4.37,2.63.05,5.25.83,7.89,1,3.48.17,4.53,2.26,4.69,5.24.18,3.42-1.78,5-4.88,4.91-5.8-.15-11.6-.62-17.4-.91-2.69-.13-3.87-1.55-3.82-4.15.15-8.94.29-17.88.48-26.82,0-2.33.33-4.64.37-7,.09-6.45.47-6.88,6.73-6.94Z" transform="translate(-0.88 -63.67)"/><path d="M377.17,607.62c.9-9.46.55-19,.59-28.44,0-3.57,1.47-5.56,5.33-5.69,4.54-.14,9,.11,13.24,1.8,5,2,7.63,5.79,8.73,10.75a44.8,44.8,0,0,1-1,22.08c-2.33,8.25-9.27,9-16.11,9.93a22.71,22.71,0,0,1-3.5,0c-6.05-.18-7.26-1.42-7.28-7.45Zm19.91-12.92a15.38,15.38,0,0,0-1.15-7.81,7.2,7.2,0,0,0-7.69-4.31c-3.5.45-2.61,3.7-2.68,6-.12,4.64-.11,9.28,0,13.91,0,2-1.17,4.62,2,5.32,2.93.64,5.54.23,7.37-2.63C397,601.94,396.76,598.28,397.08,594.7Z" transform="translate(-0.88 -63.67)"/><path d="M440.13,522.67a24.18,24.18,0,0,1-2.32,12.16c-5,10.87-18.63,12.91-25.28,3.18-5.17-7.54-6.55-23.58-1.83-31.33,3.4-5.57,11-9.43,15.95-8.15a18.42,18.42,0,0,1,13.48,17.19C440.16,517.55,440.13,519.38,440.13,522.67Zm-7.86-1.93c.33-3.27.17-6.23-1.4-8.95-3.2-5.53-8.52-6.3-12.12-1.74-3.89,4.92-4.3,15.57-.79,20.87,3.09,4.65,8.77,4.68,11.78,0A15.45,15.45,0,0,0,432.27,520.74Z" transform="translate(-0.88 -63.67)"/><path d="M411.81,592.55c0-4.16.13-8.32-.05-12.47-.13-3.15,1.31-4.82,4.25-4.91a115,115,0,0,1,18.36.62c2.91.39,3.37,2.22,3.23,4.61-.15,2.63-1.05,4.61-4.12,4.46s-5.94-.49-8.92-.6c-2.26-.09-3.82.66-3.83,3.39s1.37,3.55,3.65,3.76c2.47.23,5,.28,7.42.7,3.15.53,4.47,2.6,4,5.76-.4,3-2.4,3.67-5,3.61-2.33-.06-4.66,0-7,0-2.77-.08-4.46.81-4.39,4s1.92,3.85,4.61,3.78c3-.07,6,0,9,0,3.87,0,4.63,2.43,4.67,5.62,0,3.36-1.5,4.79-4.88,4.69-5-.14-10,0-15-.09-5.57-.15-7.49-2.22-6.81-7.95A157.28,157.28,0,0,0,411.81,592.55Z" transform="translate(-0.88 -63.67)"/><path d="M636.15,447.39c-.72,5.62.3,11.28-1.11,16.9-1.65,6.64-7.36,12.38-12.74,12.28-6.68-.11-13.66-6.13-13.95-13.3-.39-9.61.13-19.27.49-28.91.1-2.5,1-5.26,4.42-4.82,2.91.37,4.74,2,4.87,5.3.27,6.83-1.92,13.5-1.17,20.35.18,1.64-.15,3.4.28,5,.67,2.41.83,5.84,4.54,5.44,3.36-.36,5.13-2.55,5.25-6.16.27-8.14.69-16.28,1.18-24.4.09-1.52-.17-3.67,2.12-4,3-.42,5.87-.44,5.83,3.87C636.12,439.07,636.15,443.23,636.15,447.39Z" transform="translate(-0.88 -63.67)"/><path d="M472.65,519.49c0,4.48.25,9-.06,13.45-.49,7.18-6.5,13-13.26,13.22-5.78.22-11.94-5-12.83-11.82-1.33-10.09-.22-20.24.26-30.36.12-2.45,1.66-3.41,4.07-3.28,2.72.15,3.82,1.65,3.82,4.2,0,7.15-.12,14.29,0,21.43.05,3.82-1.09,9.17,4.52,9.42,5.85.26,5.12-5,4.87-8.92-.47-7.34.94-14.53,1.27-21.81.1-2.26.81-4.24,3.22-4.2s4.59,1.28,4.64,4.21c.09,4.82,0,9.64,0,14.46Z" transform="translate(-0.88 -63.67)"/><path d="M440,423.07c2.5,0,5,0,7.49,0,3.21,0,5.09,1.45,5.16,4.71s-2,4.26-4.93,4.18-6-.08-9-.26c-2.56-.15-3.69,1-3.77,3.47-.07,2.19.33,4,3,4.25s5.28.79,7.93,1c3.18.21,4.2,1.84,4.24,4.88,0,3.35-1.87,3.85-4.48,3.82-2.16,0-4.33.08-6.49,0-3-.13-4.68.73-4.73,4.16s1.23,4.94,4.58,5c3,.08,6,.42,9,.46,3.6,0,4.6,2.23,4.46,5.24-.15,3.32-2.41,4-5.24,3.73-5.62-.47-11.19-1.51-16.87-1.19a2.74,2.74,0,0,1-3.21-3c0-11.89,0-23.78.2-35.67.06-3.84,2.17-5.6,6.18-5.09a51.68,51.68,0,0,0,6.47.05Z" transform="translate(-0.88 -63.67)"/><path d="M441.43,609.86c1.31-9.75.85-19.57.94-29.37,0-3.17,1.53-4.54,4.61-4.45,4,.11,7.87,0,11.84,1a11.13,11.13,0,0,1,7.6,5.79c6,10.87.09,22.57-12.16,23.73-2.89.27-4.32,1.26-4.17,4.23.09,1.66,0,3.33,0,5,.05,2.49-.12,4.91-3.45,4.85-3,0-5.1-1.46-5.22-4.77C441.37,613.86,441.43,611.86,441.43,609.86Zm9.74-19.22c-.1,2.64-.2,4.83,3.13,4.74s4.78-1.19,4.77-4.77-2.05-4.25-4.69-4.45C450.6,585.88,451.41,588.85,451.17,590.64Z" transform="translate(-0.88 -63.67)"/><path d="M482.48,469.08c-3.36.31-4.65-2-5-4.51-.75-5.21-4.6-4.83-8.23-5.15s-4.61,1.92-5.26,4.74c-.92,4-4,4.12-7,3.41-3.45-.8-2.41-3.55-1.73-5.68,3.57-11.4,7.28-22.75,10.93-34.12.73-2.29,1.91-3.58,4.64-3.54s4.8,1.08,5.47,3.45q5.38,18.9,10.29,37.93C487.34,468.72,484.64,468.9,482.48,469.08Zm-9-21.92c-1.15-2.1.44-6.54-2.57-6.86-2.19-.23-2.22,4.17-2.8,6.54-.52,2.15,1.16,3.16,3.36,3.08C473.18,449.87,473.94,449.15,473.52,447.16Z" transform="translate(-0.88 -63.67)"/><path d="M571.33,537.34c-.37-9.14,1.6-18.19,1.06-27.35-.18-3,1.35-4.47,4.57-4.41,5.49.1,11-.1,16.48-.14,3.79,0,5.51,2.25,5.52,5.66,0,3.2-1.9,4.72-5.22,4.55-2.83-.15-5.66-.09-8.49,0a3.63,3.63,0,0,0-3.81,3.81c-.06,2.47,1.78,2.79,3.8,2.83a39.71,39.71,0,0,1,6.46.45c3.27.6,4,3,3.84,6s-1.75,4-4.51,4.17c-9.65.67-9.64.72-9.83,10.26a18.64,18.64,0,0,1-.32,4c-.68,2.77-2.74,3.45-5.36,3.25s-4-1.56-4.15-4.06C571.22,543.35,571.33,540.34,571.33,537.34Z" transform="translate(-0.88 -63.67)"/><path d="M703.54,477.81c-4.18.52-5.06-2.43-5.72-5.47-2.43-11.19-4.77-22.39-7.24-33.57-.57-2.61-1.24-5.2,2.44-5.72,3.12-.44,5.61.63,6.33,4.11,1,5,2,10.08,3,15.13.25,1.28,0,3.11,1.59,3.29,2,.23,1.88-1.76,2.27-3.13,1.38-4.94,2.84-9.87,4.21-14.81.84-3,2.74-4.69,5.82-4.08,3.62.71,3.5,3.61,2.76,6.32q-4.56,16.81-9.33,33.57C708.83,476.45,707,478.46,703.54,477.81Z" transform="translate(-0.88 -63.67)"/><path d="M730.94,548.24c4.21-11.6-4.52-20.22-7-30.27-.59-2.36-2.45-5.08.75-6.52s6.32-.23,8.1,2.9a49.07,49.07,0,0,1,2.77,6.91c.39,1,.17,2.62,1.71,2.64,1.38,0,1.62-1.48,2.12-2.48,1-1.93,1.82-3.92,2.81-5.84,1.82-3.5,4.6-4.83,8.23-2.94,3.85,2,1.71,4.76.45,7.17-5.25,10-10.34,20.05-9.79,31.89.13,2.89-1.16,5.32-4.65,5.23-3.29-.09-5.28-1.77-5.47-5.2C730.88,550.57,730.94,549.41,730.94,548.24Z" transform="translate(-0.88 -63.67)"/><path d="M790.42,459.72c0-2-.11-4,0-6,.3-4.24.41-8-5.67-7.95-2.5,0-3.32-2.59-3.08-4.91.22-2.12,1.19-3.82,3.77-3.81,6.48,0,13-.05,19.46.14,2.63.08,5.06,1.1,5,4.38-.07,3-1.39,5.13-4.82,5.05s-4.47,1.57-4.58,4.93c-.27,8.1-1.51,16.13-1.5,24.28,0,2.93-.31,6.84-5.09,6.23-4.46-.58-5.27-4.16-4.52-7.49C790.53,469.62,790.25,464.69,790.42,459.72Z" transform="translate(-0.88 -63.67)"/><path d="M547.46,460.47c1.3-8.52-3.66-15.38-6.05-22.91-.45-1.42-1.4-2.69-1.77-4.12-.57-2.16-3.09-5,.5-6.33,3.08-1.14,6,.32,7.38,3.52,1.11,2.57,1.78,5.34,2.79,8,.39,1,.43,2.58,1.86,2.7,1.7.15,2-1.55,2.55-2.66,1.2-2.36,2.24-4.81,3.33-7.24,1.46-3.25,5.1-4.74,8-2.93s.92,4.08,0,6.08c-1.68,3.63-3.11,7.43-5.27,10.76a31.84,31.84,0,0,0-4.91,21.36c.33,3.21-.9,5.2-4.42,5.1s-4.59-2.21-4.4-5.33C547.12,464.45,547.31,462.46,547.46,460.47Z" transform="translate(-0.88 -63.67)"/><path d="M527.45,532.1c-.63-8.16,2.21-16.13,1.59-24.27-.21-2.8.79-4.47,3.81-4.59,3.45-.13,4.15,2,4.14,4.82,0,8.14.12,16.28,0,24.41-.08,3.61.72,5.72,4.9,5.48,1.75-.1,3.56,1,5.33,1,4.38-.11,4.7,2.63,4.72,5.9,0,3.64-2.07,4.39-5.2,4.27-4-.14-8,0-12,0-5.79-.09-7.22-1.58-7.29-7.49C527.42,538.4,527.45,535.25,527.45,532.1Z" transform="translate(-0.88 -63.67)"/><path d="M385.55,535.79c4-11.95-3.73-21.13-7.24-31.33-.76-2.2-3.93-5.12,0-6.7,3.4-1.39,6,1,7.17,4.42.95,2.66,1.85,5.34,3,7.93,1,2.28,2.38,2.2,3.45.06,1.41-2.82,2.57-5.77,3.95-8.61s3.33-4.34,6.41-2.83c3.42,1.67,1.72,4.12.61,6.33-2.08,4.13-3.65,8.49-6.14,12.46-3.53,5.63-3.27,12.05-3.07,18.39.09,2.82-.52,5-4,4.89C386.31,540.67,385.33,538.74,385.55,535.79Z" transform="translate(-0.88 -63.67)"/><path d="M565.38,517.64c0,8.63,0,17.27,0,25.9,0,3-.18,6.68-4.23,6.61s-5.32-2.76-5.36-6.85c-.11-10.8,2.06-21.49,1.39-32.31a11.61,11.61,0,0,1,.5-2.93c.46-2.18,1.45-3.72,4.05-3.35,2.34.34,4.19,1.12,4.18,4,0,3,0,6,0,9Z" transform="translate(-0.88 -63.67)"/><path d="M350,124.57c-24.52-.69-49.12,1-73.64-1.66C300.89,121.42,325.42,122.88,350,124.57Z" transform="translate(-0.88 -63.67)"/><path d="M424.12,800.15c-.48-1.76-.14-4.6-1.76-7-.49-.72-.82-1.56-.19-2.28s1.41-.06,2.14.24c2.58,1.07,5.14,2.27,8.07,1.47.46-.12,1.16-.28,1.42-.05,2.69,2.4,2.78,5.71,1.89,8.65-1,3.16-2.06,7.3-6.71,6.55C425.64,807.19,423.45,804.93,424.12,800.15Z" transform="translate(-0.88 -63.67)"/><path d="M819.42,481c.37,2.38-1.16,5.39-2.62,8.36-1,2-2.91,3.05-5,2-1.91-.95-1.39-2.9-.37-4.32,1.28-1.78,1.12-3.26-.12-5s-1-3.47-.94-5.31c.08-2.72,1.3-4.4,4.18-4.53s4.3,1.4,4.58,4.13C819.28,477.5,819.29,478.67,819.42,481Z" transform="translate(-0.88 -63.67)"/><path d="M718.74,628c.2-3.7.81-7.12,5.57-7.26,3.45-.1,6.19,3,6.13,6.93-.06,3.56-3.64,7.14-7,7C721.15,634.6,718.63,631,718.74,628Z" transform="translate(-0.88 -63.67)"/><path d="M814.25,665.8c1.68-.12,4.47,1.09,3.49-2.43-.19-.71.82-1.46,1.16-1,2.14,2.84,4.48,0,6.71.35,2.64.41,4.57-.51,4.28-3.81,0-.6-.21-2.73,1-1.83,1.65,1.21,2.87-1.14,3.93.06.72.82.09,1.91-.52,2.72-2.31,3-2.08,9.18-8.67,6.95-.44-.15-1.11,1-.71,1.55,1.06,1.55,1.86,3-.73,3.63a3,3,0,0,1-4-2.68c-.12-3.48-.46-4-2.68-.92C816.71,669.49,816.44,669.3,814.25,665.8Z" transform="translate(-0.88 -63.67)"/><path d="M867.8,92.27c-.62-2.42-2.24-3.15-4.29-3.68-1.3-.34-3.55-.84-2.81-2.76a35.39,35.39,0,0,1,6-10.22,1,1,0,0,1,1.77.57C868.24,81.45,871.23,86.81,867.8,92.27Z" transform="translate(-0.88 -63.67)"/><path d="M497.8,674.65c3-8.78,5.52-16.7,8.51-24.44,1-2.62,1.72-5.35,2.83-7.93.45-1,1.23-1.69,2.32-1.19a1.49,1.49,0,0,1,.51,2.18c-6.42,9.18-5.65,21.22-12.14,30.35C499.67,673.85,499.29,673.91,497.8,674.65Z" transform="translate(-0.88 -63.67)"/><path d="M829.78,74.17c2-3.26,4.14-3.9,6.37-2.21,2.45,1.87,3.56,4.57,2.13,7.53a36.34,36.34,0,0,1-3.74,5.27c-1.38,1.9-3.77,4,1.12,4.33.88,0,1.75.33,1.64,1.38s-1.07,1.11-1.92,1.15c-2,.07-4.42.18-5.51-1.6-1.2-2,.46-3.66,1.84-5.17a44,44,0,0,0,4.06-5c.87-1.3,2.15-2.65,1-4.53S834,73.74,832.34,74C831.73,74,831.11,74.06,829.78,74.17Z" transform="translate(-0.88 -63.67)"/><path d="M437.67,782.07c-4.15-3.12-6.95-6.51-4.37-11.93.34-.74-.51-2.14.77-2.49a2.9,2.9,0,0,1,3.27,1.73c1.55,3.33,2.81,6.81,4.23,10.35-2.3.47-1.33-2.58-3.06-2C435.83,778.72,439.55,780.68,437.67,782.07Z" transform="translate(-0.88 -63.67)"/><path d="M780.11,69.21c2.95-1.6,5-1.61,6.65.21s1.42,4.37.58,6.53a18.76,18.76,0,0,1-2.8,4.06c-1.58,2.12-5,4.52.92,5.37a1.18,1.18,0,0,1,1.12,1.34,1.29,1.29,0,0,1-1.48,1c-1.94-.07-4.13.46-5.53-1.41-1.64-2.21.31-3.61,1.43-5.16,1-1.33,2-2.64,3-4C787.71,72.09,787,70.31,780.11,69.21Z" transform="translate(-0.88 -63.67)"/><path d="M792,71.43c.9-3.37,3.32-3,5.19-2.32,2.66,1,3.26,3.6,2.79,6.21s-2.34,4.69-4,6.77-3,4.16,1.36,4.47c.82.06,1.86.31,1.63,1.39-.32,1.5-1.39.84-2.33.57a10.4,10.4,0,0,0-2.88-.59c-3.82,0-3.22-2.19-1.88-4.2s3.38-3.66,4.82-5.67,2.11-4.28.74-6.55S793.94,71.56,792,71.43Z" transform="translate(-0.88 -63.67)"/><path d="M234.6,121.77c10.78-.13,21.48.52,32.2.65A101.69,101.69,0,0,1,234.6,121.77Z" transform="translate(-0.88 -63.67)"/><path d="M704,64.1c-4.81,2.51-6.33,12.08-3.3,18.48-2.82,0-3.26-1.85-3.3-3.92-.07-3.31-.09-6.63,0-9.94C697.43,63.53,697.68,63.36,704,64.1Z" transform="translate(-0.88 -63.67)"/><path d="M631.1,673.05a8.59,8.59,0,0,0-1.9,0c-1.19.27-.74,3.09-2.69,2-1.49-.84.08-2,.2-3,.17-1.43-.29-2.49-1.91-1.34-4.06,2.91-6.7,1.25-9.59-3.27,3.93,1.19,6.67,1.6,9.95-.08,1.56-.8,5.25,2.33,5.81,5.8Z" transform="translate(-0.88 -63.67)"/><path d="M751.73,66.45c5.1,2.45,4.38,5,2.71,7.68A45.32,45.32,0,0,1,751.38,78c-3.65,4.6-3.46,5.18,2.27,6.47-1.27,1.25-2.78.52-4.1.62s-2.8.39-3.45-1.23c-.58-1.44.26-2.55,1.14-3.58,1.19-1.39,2.36-2.8,3.61-4.14C753.26,73.58,754.67,70.79,751.73,66.45Z" transform="translate(-0.88 -63.67)"/><path d="M395,819.19c.14,4-2.94,6.21-5.56,3.94-1.92-1.67-5.08,1.85-5.18-1.39-.05-1.93,3.69-.07,5-2a17.28,17.28,0,0,1,1.95-2.25,1.53,1.53,0,0,1,2.2-.31A13,13,0,0,1,395,819.19Z" transform="translate(-0.88 -63.67)"/><path d="M823.53,87.7c-2.58-3.92.26-8.7-3.47-12.47-1-1,.43-3,2-3.25s1.4,1.44,1.41,2.49C823.56,78.88,823.53,83.29,823.53,87.7Z" transform="translate(-0.88 -63.67)"/><path d="M589.74,671c-2.42-3.84-2.66-7.62-5.42-10a1.07,1.07,0,0,1,.16-1.71,1.82,1.82,0,0,1,1.36,0c3.18,1.14,6.21,2.37,4.74,6.81A39.41,39.41,0,0,0,589.74,671Z" transform="translate(-0.88 -63.67)"/><path d="M855,89.5c-2.23-4.42,1.27-9.12-3.16-12.2-.86-.6.76-2.31,1.8-3s1.63.09,1.74,1A41.51,41.51,0,0,1,855,89.5Z" transform="translate(-0.88 -63.67)"/><path d="M756.87,669.48c-2.2,0-2.16-1.35-2.17-2.47,0-2.88,2-4.74,3.8-6.52.45-.44,2.36,1.13,1.93,1.62C758.5,664.29,759.28,667.89,756.87,669.48Z" transform="translate(-0.88 -63.67)"/><path d="M771.52,82.64c-1-3.89.84-8.17-1.72-11.92-.69-1,.67-2.19,1.84-2.42,1.59-.3,1.25.93,1.24,1.92,0,4.1,0,8.2,0,12.31Z" transform="translate(-0.88 -63.67)"/><path d="M725.34,80c-.54-3.8,0-7.74-1.26-11.46a1.61,1.61,0,0,1,1.36-2.22c1.34,0,1.19,1.33,1.2,2.27,0,3.77,0,7.53,0,11.3Z" transform="translate(-0.88 -63.67)"/><path d="M688.5,63.74c-8.52,2-.12,8.47-4.46,11.64C680.79,67.17,681.93,63.08,688.5,63.74Z" transform="translate(-0.88 -63.67)"/><path d="M876.48,80.39c2.49,5.08,2.58,10.1-.75,15C876.27,90.39,875.8,85.39,876.48,80.39Z" transform="translate(-0.88 -63.67)"/><path d="M681.28,666.21c-2.6,1.59-5.21,2.73-6.61.06-1.68-3.18,1.2-4,4.54-5.16C676,665,678.14,665.73,681.28,666.21Z" transform="translate(-0.88 -63.67)"/><path d="M438.39,783.53c2.63,2.16,7.26,1.19,4.8,6.15-.39.78-.8,1.61-1.69,1.62-1.27,0-1.46-1-1.67-2.07C439.54,787.79,439.12,786.38,438.39,783.53Z" transform="translate(-0.88 -63.67)"/><path d="M210.39,155.52c-1,1-.58,3.62-2.72,3.43-1.57-.13-2.11-2-2.22-3.47-.15-2,1.31-2.45,3-2.25C209.65,153.37,210.69,153.82,210.39,155.52Z" transform="translate(-0.88 -63.67)"/><path d="M467.46,287.55c1,3.78-.25,6.22-1.81,8.55-.06.1-1.14-.2-1.18-.42C463.92,292.61,466,290.61,467.46,287.55Z" transform="translate(-0.88 -63.67)"/><path d="M706.87,672.46c1.27-2.27-4.06-3.72-.77-6.18a1.28,1.28,0,0,1,2.07.46C709.27,668.83,709.39,670.84,706.87,672.46Z" transform="translate(-0.88 -63.67)"/><path d="M708.34,78.91c1.17-4.54.6-8.83-1.61-13.86C710.78,69.55,711.22,74.22,708.34,78.91Z" transform="translate(-0.88 -63.67)"/><path d="M518.61,639c.78.56,1,.62,1,.74,1.32,3.12-.75,5.65-1.52,8.4a4.68,4.68,0,0,1-1.18-.31A27.4,27.4,0,0,1,518.61,639Z" transform="translate(-0.88 -63.67)"/><path d="M739.92,75.14c.29,1.93,2.87,3.41,1.13,5.45a1.66,1.66,0,0,1-2.61-.25C737.21,78.34,738.48,76.71,739.92,75.14Z" transform="translate(-0.88 -63.67)"/><path d="M618.25,817a67.18,67.18,0,0,1,.06-7.49c.28-2.2.17-4.93,3.48-5.18,2.89-.23,5.42.59,6.62,3.41,2.83,6.66,1.58,13.5,0,20.1-.8,3.31-5.43,3-8.09-.31C617.41,823.93,618.37,819.62,618.25,817Z" transform="translate(-0.88 -63.67)"/><path d="M588,812.6a29.36,29.36,0,0,1,.76-8.37c.51-1.82.91-3.86,3.29-3.59,2.15.24,3.46,1.83,3.85,4,.59,3.38-1.08,6.19-2.63,8.88-1.17,2-1.48,6.23-3.73,5.68C586.65,818.52,588.83,814.53,588,812.6Z" transform="translate(-0.88 -63.67)"/><path d="M182.67,319.83c23.3-1.26,46,3.54,68.08,11.14a227,227,0,0,1,47.7,22.57c4.25,2.69,5.17,6.67,5.45,11,.74,11.86,2.19,23.74,1.86,35.57-.49,18-1.69,36.09-3.32,54.12-1.93,21.32-6.83,42-12.12,62.47a304,304,0,0,1-16.4,47.06c-7.6,17.21-15.88,34.06-25.82,50-10.48,16.83-22.87,32.22-36.11,47-5.24,5.84-10.83,11.23-16.52,16.57-4.47,4.19-7,4.08-11-.23-19.65-21.11-37.63-43.48-52.06-68.58A401,401,0,0,1,90.71,505.39,453.83,453.83,0,0,1,80.89,453a392.27,392.27,0,0,1-2.62-39.26c-.45-17.47.08-34.9.86-52.34.16-3.8.78-7.59,1.26-11.38s3-5.7,6.17-7.24a247.77,247.77,0,0,1,42.24-16.28A177,177,0,0,1,182.67,319.83Zm2.82,88.22c-5.16,0-10.36-.4-15.47.07a149.34,149.34,0,0,0-54.36,15.55c-8.19,4.14-8.16,3.79-7.58,12.7,1.16,17.62,4.76,34.82,8.52,52a332.28,332.28,0,0,0,21.08,63.21c12.51,28.32,27.93,54.75,47.67,78.63,2.5,3,5.05,4.29,8.15.66,1.94-2.28,4.29-4.23,6.09-6.6,12.58-16.55,25.39-33,35-51.51A370.69,370.69,0,0,0,261.2,508.3c3.58-11.91,6-24.12,8.51-36.34,2.12-10.46,2.17-21.1,4.32-31.49.68-3.32-.9-5.54-3.79-7.39C244.39,416.55,216.18,408,185.49,408.05Zm43-11.24c1.14,1.36,1,2.92,1,4.37a11.23,11.23,0,0,0,1.68,7.15c.81,1.18,1.81,2,3.3,1.74,1.71-.32,1.83-1.81,1.89-3.12.07-1.82-.11-3.65-.1-5.48,0-6.16.18-12.31.13-18.47,0-2.94-.7-5.78-4.09-6.66s-4.26,1.82-5.54,3.93c-.44.72-.83,1.45-1.28,2.15-1.34,2.12-2.8,2.32-4,0-1-1.9-1.76-3.94-2.62-5.92-.74-1.69-1.4-3.63-3.45-4-6.52-1.1-12.86-3.35-19.59-3.11-1.3,0-2.86-.19-3.46,1.35a3.32,3.32,0,0,0,1.23,4c3.39,2.33,3.56,5.71,3.54,9.32,0,4.48-.33,9,.68,13.43.44,2,.42,4.37,3.1,4.35,3,0,2.41-2.65,2.46-4.51.12-5.33.18-10.66.15-16,0-2.75.8-4.6,3.91-4.49s3.15,2.45,3.17,4.66c0,5.17,0,10.33,0,15.49,0,1.83-.1,3.7,1.26,5.21.65.72,1.12,1.71,2.32,1.64,1.52-.08,1.88-1.32,2.08-2.42.42-2.36.65-4.75,1.11-8.36,2,3.36,2.83,6.53,4.87,7.86C226.19,403.58,225.53,397.6,228.54,396.81Zm-80.28-5.31c-2.34-3-1.68-5.36-1.69-7.57,0-9.38-2.51-11.19-11.54-8.61-4.14,1.18-7.4,2.5-6.95,7.86.6,7.14-1.29,14.36.57,21.47.48,1.84-1.24,5.07,2.11,5.15,2.66.07,3.09-2.71,3-4.89-.09-2.7,1.4-3.9,3.61-4.68a32.8,32.8,0,0,0,5.15-1.85c3.55-2,4.94-1.57,3.81,2.79-.32,1.25-.33,2.85,1,3.58,1.6.86,2.35-.66,3.16-1.64,4.25-5.17,5.13-5.3,11.36-1.59,1.16.7,2.36,1.36,3.74.63,1.55-.82,1.17-2.15.85-3.49-1.86-7.91-3.74-15.82-5.51-23.75-.52-2.33-1.92-3.54-4.13-3.55s-3.5,1.1-4.06,3.51C151.56,380.14,150,385.33,148.26,391.5Zm85.06-36.68h0c0,3.83,0,7.66,0,11.49,0,3.32,1.37,5.74,4.64,6.91,3,1.06,5.88,2.31,8.88,3.3,2,.66,4.49,1.69,5.54-1.18.95-2.63,0-4.94-2.71-6.18-2-.89-4-1.69-5.92-2.63-1.51-.73-3.36-1.63-2.52-3.65.75-1.81,2.61-1.13,3.91-.52,3.55,1.63,4.06-.78,4.38-3.23.37-2.82-1.53-3.95-3.77-5.15-2-1.05-5.74-1.75-4.37-5,1.18-2.77,4-.43,6.18-.24,1.84.17,4.22,1.52,5-1.45.64-2.62.2-5-3-5.95s-6.29-2.2-9.48-3.12c-4.44-1.27-6.37,0-6.68,4.57C233.11,346.82,233.32,350.83,233.32,354.82Zm36.37,46.35c-2.45-3.22-3.08-7.17-4.52-10.75-.81-2-2.38-3.32-4.64-3.05-2.74.33-2.06,2.71-2.08,4.35-.09,6.82,0,13.65,0,20.47a35.86,35.86,0,0,0,.29,6c.26,1.48,1.19,2.92,3,2.75s1.87-1.7,2-3c.18-2.39.25-4.78.38-7.6,1.93,1,2.05,2.29,2.43,3.52,1.2,3.81,2.44,7.6,3.75,11.36.74,2.11,2.24,3.36,4.6,2.87s1.71-2.53,1.75-4.07c.1-3.49,0-7,0-10.48,0-5.33,0-10.65,0-16,0-2.21-1.12-3.51-3.25-3.63-2.43-.14-2.32,1.83-2.55,3.47C270.69,398.56,271.44,400,269.69,401.17Zm-115.4-52.48c0,3.92.07,7.42,0,10.91-.11,4.49,2.59,6.39,6.48,6.63a31.48,31.48,0,0,0,7.86-.91c2.69-.54,4.13-2.14,4.49-5.14.93-7.65.15-15.32.55-23,.21-4-1.27-6.35-5.22-7.1-4.15-.78-12.15,1.77-13.15,4.15C153.24,339.11,154.83,344.17,154.29,348.69Zm55.46.63h.05c0,2.83,0,5.65,0,8.48.11,6.89,9.32,13.52,16,11.59a4,4,0,0,0,2.74-2.68,17.39,17.39,0,0,0,.29-8.86,3.32,3.32,0,0,0-3.15-2.75,2.33,2.33,0,0,0-2.78,2.18c-.37,2-1.52,2.93-3.54,2.49a3.26,3.26,0,0,1-2.79-3.55c0-2.82-.28-5.65-.1-8.45.14-2.16-.58-5.21,2.54-5.76,2.67-.48,3.42,1.89,4.13,4.05a3.34,3.34,0,0,0,3.83,2.49c1.93-.29,2-1.94,2.18-3.44,1.05-8.07-3.41-12.2-13.17-12.57-4.29-.16-6.18,1.78-6.27,5.82C209.69,342,209.75,345.67,209.75,349.32Zm-123,64.44c0,3.32-.1,6.65,0,10,.11,2.56-1.08,5.89,1.64,7.36s4.71-1.66,7-2.74c5.76-2.71,9.64-6.83,9.29-13.83-.31-6.13-.19-12.28-.58-18.4-.29-4.46-3.8-6.24-7.81-4.2-2.06,1.05-3.94,2.45-6,3.49-2.48,1.26-3.73,3-3.59,5.9C86.92,405.45,86.77,409.61,86.76,413.76Zm84.73-28.55h-.05c0,4-.05,8,0,12,0,1.91.46,3.87,2.88,3.9,2.09,0,2.62-1.59,2.84-3.41.15-1.3-.87-3.38,1.5-3.52,1.86-.11,2.08,1.85,2.78,3.1a19.94,19.94,0,0,0,1.13,2.21c1,1.26,2.28,2.05,3.91,1.37s1.05-2.17.95-3.47c-.13-1.77-1.84-3.72-.44-5.25,4.12-4.55,2.66-10,3-15.22.17-3-.32-6.39-3.45-7-4.61-.87-9.55-1.61-14.09.59-1.15.56-.9,2.42-.92,3.73C171.45,377.89,171.49,381.55,171.49,385.21Zm-29.41-51.39c-.42.08-1.73.29-3,.62-7.91,2-7.93,2-7.93,10.09q0,10.46,0,20.9c0,2-.43,4.57,2.35,4.65,3.2.1,2.92-2.86,2.68-4.82-.69-5.51,1.63-8.43,6.94-9.49,2.29-.46,4.76-1.38,4.72-4.3,0-3.19.85-6.23,1-9.35C149.26,336.45,147.27,333.86,142.08,333.82ZM108,402c0,1.83,0,3.66,0,5.49-.19,11.37-1.83,14,12,7.27,1.87-.91,4.6-1.36,3.73-4.34-1-3.32-3.45-1.47-5.39-1.08-1.47.29-3.12,1-3.91-.85s-.12-3.58,1.74-4.62a23.17,23.17,0,0,1,3.11-1.56c2.08-.79,4.55-1.55,4-4.24-.57-3-3.35-1.93-5.38-1.93-1.78,0-3.86.75-4.38-1.92a4.39,4.39,0,0,1,2.33-5.05c1.76-.93,3.83-1.27,5.53-2.27s4.29-2,2.85-4.86c-1.25-2.5-3.57-2.43-5.61-1.44-10.35,5-11,2.76-10.66,15.41C108.1,398,108.05,400,108,402Zm132.17-.82c-.45,10.47,1.53,13.11,11.66,15.33,1.37.3,3.17,1,4-.83s-.58-2.86-1.79-3.72c-1.75-1.24-3.74-2.17-5.49-3.43-1.33-1-2.8-2.22-2.14-4.12s2.17-1.7,3.75-1.06a2.2,2.2,0,0,0,2.94-1.15c.81-1.46.1-2.6-1-3.47s-2.61-1.51-3.71-2.49c-1.67-1.49-3-3.42-2-5.72,1.1-2.48,3.15-1.71,5.13-1s3.83.66,4.64-1.52-.58-3.63-2.25-4.48a49.06,49.06,0,0,0-7-2.71c-5.9-1.93-8.25-.23-7,6C240.91,391.71,239.68,396.44,240.21,401.22Zm2.88,199.2c3.33-.47,4.53-2.3,3.74-4.95-1-3.13-1.42-5.21,3-5.84,3.23-.46,3.38-3.46,2.17-6-2.11-4.32-4.55-8.47-6.85-12.69-.61-1.13-1.46-1.91-2.79-1.44a2.82,2.82,0,0,0-1.74,2.78,7.36,7.36,0,0,0,1.34,4.2c1.57,2.91,1.47,4.91-2.62,4.39-3.7-.47-5,1.61-3.43,4.37,2.67,4.81.59,5.21-3.47,4.78-1.53-.16-3,.23-3.59,2A2.24,2.24,0,0,0,230.1,595C234.49,596.92,238.94,598.7,243.09,600.42Zm-102.22,2.52c4,0,12.06-8.31,11.18-12.26-1.15-5.18-2.81-10.9-7.92-13.13s-7.1,3.61-10.34,6.1a11.78,11.78,0,0,0-1.06,1.06,5.73,5.73,0,0,0-1.13,6.9c1.55,3.27,3.67,6.27,5.51,9.4A3.78,3.78,0,0,0,140.87,602.94Zm120-81.7c0,3.17.53,5,2.2,6.39,9.59,8,14.83,6.27,17.47-5.85,1.47-6.72-6.63-14.64-13.63-13.35a3.13,3.13,0,0,0-2.66,2C262.91,514.32,261.73,518.29,260.82,521.24Zm23.27-101.08c0,5.23-.07,9.06,0,12.88.06,2.56,1.08,4.93,3.94,4.76,2.7-.15,2.32-2.78,2.4-4.72q.32-8.24.55-16.46c.05-1.85,0-3.46,2.25-4.45,4.21-1.87,2.55-4.6.13-6.47a94.39,94.39,0,0,0-9.73-6c-1.1-.65-2.4-1.69-3.53-.24a2.87,2.87,0,0,0,.2,3.73C286.08,408.43,283.14,415.41,284.09,420.16Zm-16.53,78.4c-.27,2.5,1.17,3.86,3.1,4.76,3.16,1.47,6.37,2.83,9.6,4.15,1.35.55,2.81,1.29,4-.44a2.9,2.9,0,0,0-.85-4.37c-4.77-3.21-2.78-4.93,1.18-6.51a5.1,5.1,0,0,0,3.42-4c.24-1.49-.1-3-1.86-2.75-3.27.51-5.14-2-7.65-3-2.79-1.19-6.1-2.57-7.78,1.19C269.18,491,268.57,494.88,267.56,498.56ZM93.18,484.16c-.06,1.94,2.46,11.11,3.45,12.36,1.56,2,3.52,2.66,5.66,1.14,2.51-1.78,1-3.23-.57-4.76A8.24,8.24,0,0,1,99,486.2c.16-2.76,2.22-3.61,4.44-3.85s3.36,1,3.76,3.13c.3,1.65.71,3.24,0,4.89s-1,3.25.54,4.57a2.77,2.77,0,0,0,3.26.21,4,4,0,0,0,2.4-4.49c-.48-3.11-.91-6.24-1.68-9.28-.92-3.64-2.07-7.4-7.21-6.18C96.39,477.12,92.64,479.5,93.18,484.16Zm192.62-1.25c2.2,0,3.9.13,4.74-1.79.94-2.18-.27-3.58-2-4.49-4.52-2.44-2.64-4.38.38-6.22,2.37-1.44,5.3-3.47,3.69-6.06s-4.29.17-6.27,1.25c-2.29,1.25-4.44,2.54-6.62,0-1.23-1.46-2.19-3.94-4.6-2-1.95,1.55-1.05,3.75.05,5.42,1.32,2,1.44,3.06-.85,4.69s-2.79,4.84,0,6.14C278.08,481.49,282.3,482,285.8,482.91ZM197.87,346.45c.19,4.31,0,9.61.84,14.9.4,2.54,1.25,4.18,3.87,4.24s3.38-2.08,3.4-4.1c.07-8.81.05-17.63-.16-26.43-.06-2.47-1.91-3.76-4.41-3.86-3-.11-3.56,1.83-3.54,4.26C197.89,338.79,197.87,342.13,197.87,346.45Zm11.91,277c-3.41-.18-5.17,2.14-3.65,5.11,2.12,4.15,5.54,7.31,8.88,10.48a1.93,1.93,0,0,0,2.69.33,2.16,2.16,0,0,0,.68-3.05c-2.18-3.86.25-4.19,3.18-4.1,1.95.06,3.52-.36,4.49-2.37,1-2.17.37-3.95-1-5.48-2.1-2.34-4.35-4.57-6.66-6.72-1.26-1.17-2.57-3.4-4.53-2.05-2.43,1.67.29,3.07.89,4.54.43,1,1.7,1.89.93,3.12s-2.25,1.15-3.58.83C211.28,623.84,210.49,623.6,209.78,623.4ZM179.59,347.31h0c0,1.67,0,3.34,0,5,.2,13.37-2.43,12.05,12.87,12.1h.49c1.66,0,3-.4,3.13-2.39.11-1.71.09-3.43-1.91-4.13a8.93,8.93,0,0,0-2.9-.63c-5.22,0-6.83-2.76-6.49-7.7s.07-10,.09-15c0-2.11-.11-4.34-2.84-4.36s-2.37,2.34-2.4,4.11C179.54,338.65,179.59,343,179.59,347.31ZM164.35,609.22c-2.21-3.48-4-7.65-7.37-10.72-1.06-1-2.2-.57-3.13.32-3.11,3-6.23,6-9.28,9a3.5,3.5,0,0,0-.44,4.2c.87,1.8,2.45,1.44,3.87.78,1.78-.83,3.42-1.26,5,.37a2.53,2.53,0,0,0,3.59.42c1.2-.94.48-2.08,0-3.16-.37-.84-1.23-1.89.17-2.48,1.16-.48,1.74.62,2.36,1.37a22.86,22.86,0,0,0,1.58,1.93c.67.66,1.31,1.68,2.48.93C164.12,611.63,164.34,610.65,164.35,609.22Zm66.74,1c1.25-3.6-.23-4-3.08-2.9-3.23,1.25-2.92-.61-2.27-2.67.24-.78.63-1.51.95-2.27.47-1.11.86-2.39-.37-3.09s-2.08.31-2.91,1.21c-5.37,5.77-5.36,7.8.17,13.68,1.24,1.32,2.56,2.58,3.86,3.85,4,3.91,4.92,3.8,8-1a13.2,13.2,0,0,0,1.44-2.59c.43-1.16,1.81-2.38.53-3.6s-2.42-.16-3.45.72c-.73.62-1.45,1.6-2.52.83A1.86,1.86,0,0,1,231.09,610.21ZM128.56,555.79c1.93-.29,4.15.66,5-1.64a2.64,2.64,0,0,0-2-3.5c-4.63-1.36-5.9-3.77-3.35-8.12,1-1.75-.22-3.31-1.72-4.12-1.74-.94-2.34.73-2.83,1.89-1.78,4.19-3.93,8-7.8,10.72a2.82,2.82,0,0,0-.81,3.61,2.47,2.47,0,0,0,3.35,1.35C121.89,554.65,125.33,555.33,128.56,555.79ZM124,528c-1.45-4.34-3-9.06-4.6-13.72a2,2,0,0,0-2.51-1.14,1.27,1.27,0,0,0-.91,1.56c1.52,6.33-4,7-7.43,9.43-1.66,1.17-4.57,1.81-2.89,4.71,1.42,2.44,3.64,1.58,5.73.59,3.06-1.44,6-2.75,9,.57C122.07,531.82,123.74,531.13,124,528Zm146.44,19.51c-.23-.58-.33-1.88-1-2.3-4.06-2.61-5.6-6.72-7.11-11-.5-1.4-1.07-3.79-3.18-3s-1.88,3-1.08,4.73c1.75,3.9,1.27,6.79-3.34,7.93-2.11.53-3.35,2-2.86,3.93.53,2.11,2.94,1.71,4.25,1.22a12.17,12.17,0,0,1,10.45.86C268.59,551,270.19,550.53,270.48,547.52ZM116.14,504.43c-.29-1.78-1.07-4-3.61-3.23A103.71,103.71,0,0,0,101,505.71c-1.44.62-1.48,2.08-1.24,3.45a2.26,2.26,0,0,0,2.91,2c4.26-1.23,8.46-2.7,12.65-4.18C116.18,506.66,116.15,505.63,116.14,504.43Z" transform="translate(-0.88 -63.67)"/><path d="M205.6,574.89c-12.87-.87-26.57-1.8-40.28-2.69-1.26-.08-2.67-.39-2.95-1.48-1.37-5.45-6.79-7.85-9.18-12.51-1.17-2.29-1.95-4.35-.76-7.05s1.27-5.23-3.18-3.63c-3.33,1.2-4.92-1.25-6.11-3.69a56.38,56.38,0,0,1-5.75-21.07,74.19,74.19,0,0,0-2.25-15.21,16.41,16.41,0,0,1-.13-7.41c.63-3.68.58-7.36-1.16-10.75-1.43-2.8-1.07-5.06,1.36-7.06,4.41-3.62,5.71-8.42,5-13.88-.24-1.93-.2-3.6,1.73-4.76,5.72-3.45,6.35-9.37,7.18-15.15.22-1.47,0-3,.33-4.45.45-1.9.95-4.27,3.31-4.44,2-.14,2.46,2,3.07,3.49.8,1.94,1.6,3.69,4.16,3.55s3.76-1.85,4.71-3.87c1.39-3,1.43-6.11,1.22-9.3-.43-6.32,6.6-12.34,12.43-10.26a7.22,7.22,0,0,0,7.76-1.66c4.16-3.83,7.18-3,10.31,1.11,1.71,2.24,4.25,3,7.1,3,8.11,0,12.92,5.3,12.3,13.46-.3,3.92-.12,7.71,3.41,10.39,2.56,1.93,4.64,2.71,5.74-1.49.42-1.57.45-4.09,3-3.94,2.72.17,3.27,2.61,3.68,4.7.52,2.59.66,5.26,1,7.89.53,4.6,1.78,8.77,6.1,11.4,2.65,1.61,3.81,3.6,2.61,7.09-1.36,3.92-.09,8,2.46,11.17,2.78,3.51,4.68,6.69,1.58,11.07-1.35,1.93-1.2,4.84-.36,6.79,1.84,4.25.89,8.2-.36,12.11a25.06,25.06,0,0,0-1.12,9.31c.58,9.63-3.34,17.8-8.32,25.63-1.7,2.66-3.57,2.64-5.62.4-1-1.09-2.2-1.68-3.49-.59s-.44,2.12,0,3.18c2.44,5.51,1.42,9.49-3.41,13.11-.92.7-2.6,1.08-2.83,1.9C217.75,577.06,211.49,574.38,205.6,574.89Zm-1.08-134c-1.91-.64-2.55-3.06-4.74-3.34s-4.92-1.26-4.49,2.32c.38,3.2,1.12,6.79,3,9.26,1.52,2,5,.34,7.65.63.66.07,1.33.11,2,.18,1.54.16,2.42.84,2.36,2.56a5.31,5.31,0,0,1-7.72,4.86c-5.66-2.68-5.47-2.68-5.52,3.58,0,4.11,2.32,5.91,5.53,7.41,9,4.2,18,8.51,27,12.69,2.17,1,4.68,3.39,6.83,1.37,2-1.86.72-5.06.65-7.67,0-1.44-1.33-2.27-2.28-3.17a16.38,16.38,0,0,1-5.39-9.87c-.29-2.07-1.17-3.59-3.62-4.13-11.66-2.6-14-5.55-14-17.34,0-5.55-2.15-7.82-7.64-8.25-1.16-.09-2.59.12-3.42-.47-5.28-3.74-10.3-3.74-16.86-2.37-11.67,2.43-11.89,1.4-14.55,12.56-2,8.19-5.75,11.34-14.12,11.25-2,0-2,1.29-2.65,2.34-1.8,3-1.5,7.33-4.32,9.39-3.68,2.68-4,6.07-4.32,9.95-.36,4.14,1.15,5.27,4.87,3.85,9.78-3.72,19.54-7.51,29.34-11.2,4.47-1.69,5.16-5.13,4.7-9.3-.26-2.46-.76-3.92-3.65-2.34-3.09,1.67-5.81.88-7.91-1.89-.8-1.07-1.49-2.32-.72-3.69s2-1.1,3.45-.84c7.52,1.39,7.79,1.15,8.94-6,.08-.49.25-1,.29-1.47.12-1.43,2.28-2.79,1-4-1.51-1.39-3.77-1-5.7-.31-1.39.49-2.77,1.64-4,0a2.8,2.8,0,0,1-.51-2.29c.71-1.88,2.47-1.87,4.18-1.95,2.78-.13,5.88,1,8.25-1,2.63-2.16,5-1.59,7.26.1a11.58,11.58,0,0,0,7.48,2.14C206.26,434.53,206.68,435.36,204.52,440.93Zm36.63,52.84c-.12-2.34-1.6-5.13-5.49-6.95-12.93-6.06-25.78-12.27-38.51-18.74a14.17,14.17,0,0,0-12.41-.62q-19.49,7.6-39,15.12c-7.79,3-7.81,2.94-6.69,11.07.64,4.7,2.22,5.9,6.72,4.21,13.94-5.26,27.84-10.64,41.64-16.24a8.35,8.35,0,0,1,7.45.09C208,487.65,220.47,495.09,234,500.3,239.33,502.37,240.83,501.37,241.15,493.77ZM140.86,521.12c0,5.57,1.9,10.73,3.65,15.89,1,2.94,2.9,4.25,6.54,3.71,6.88-1,9.45,2.37,7.51,9a13.39,13.39,0,0,0-.74,3.87c0,2.54,1.41,4.08,4.08,3.95s2.87-1.92,2.64-4.22c-.56-5.7-2.2-11.41.45-17.11.81-1.74.8-3.89,1-5.87.27-2.88-.4-5.13-3.63-6.21a21.91,21.91,0,0,1-5.57-3.29,3.58,3.58,0,0,1-1-4.92c1.29-2.22,2.49-.14,3.63.45s2.32,1.37,3.68.43c2.51-1.74,5-11.42,3.21-13.86-2.37-3.17-.44-4.45,2-5.7,2.17-1.14,4.11-.63,6,.92s3,.95,2.9-1.54c-.11-4.05.39-7.34,5.84-5.06a2.05,2.05,0,0,0,2.78-1.43c.47-1.23,1.16-2.63.46-3.85-.86-1.49-2.48-.83-3.61-.4-2.64,1-5.12,2.38-7.75,3.38-9,3.41-18.05,6.69-27.06,10.08-1.6.61-4.19,1-3.18,3.49,1.81,4.51.28,8.1-2.32,11.57C140.71,516.45,140.92,518.79,140.86,521.12Zm76.49,31.2,2,0c.55-1.53.79-3.29,1.7-4.55,2.07-2.85,3.6-7.37,8.61-3.47,2,1.57,3.72.32,5-1.51a19.28,19.28,0,0,0,3.25-8.28c.95-6.76,3.26-13.74-2.18-19.92a5.16,5.16,0,0,1-.28-6.9c1.8-2.43.59-4-1.5-5.24a116.73,116.73,0,0,0-15.83-7.16c-1.27-.51-2.62-1.08-3.67.13s-1.83,2.72-.94,4.55c.71,1.47,1.85,3.19,1.62,4.6-1.08,6.49,3.48,10.76,6,15.75,1.66,3.34,3,7.47,7.91,8.1,1.3.17,1.08,2.22.7,3.54-.22.8-1,2.07-1.46,1.64-2.26-2.29-6.79-.75-7.91-4.88-.39-1.48-.66-3.88-2.79-3.39-1.82.43-1.42,2.72-1.53,4.34a11.45,11.45,0,0,0-.06,2.48C216.94,538.83,220.58,545.14,217.35,552.32Zm-15.18-10.65c-.94-3.43.84-7.68-3.53-9.65a55.73,55.73,0,0,0-8-2.73c-3.78-1-12.08,3.09-12.19,6.14-.34,9.26.72,18.18,7.09,25.66,1.16,1.36,2.31,2.68,4.11,2.19,4.84-1.31,6.83-5.4,8.77-9.49,1.66-3.49-.74-4.69-3.2-6-1.08-.58-2-2.29-.57-2.59,2.24-.46,4.19,1.9,6.79,1.82.86,0-.1,2-.21,3.1-.51,5.09-3.66,8.75-6.59,12.56-.88,1.14-2.21,2.35-.91,3.93,1.47,1.81,9.38.51,10.51-1.56,5.28-9.78,2.55-20.44,3.44-30.7a1.63,1.63,0,0,0-1.37-1.81,1.9,1.9,0,0,0-2,1.11A18.87,18.87,0,0,0,202.17,541.67Zm-10.63-58.43c2.17,3.26,4.73,5.7,1.3,9.3-1.23,1.31,1.43,2.16,2.79,1.4,2.4-1.34,4.53-.76,5.58,1.3a97.25,97.25,0,0,1,5.29,12.81c.81,2.4-.66,3.31-3.08,2.7-6.44-1.62-6.85-1.24-5.1,5.26a44.08,44.08,0,0,0,2.34,6c.52,1.18,1,2.73,2.64,2.59s1.67-1.75,2.22-2.93c4.31-9.17,3.6-19,3.66-28.66a2.32,2.32,0,0,0-1.33-2.42C202.68,488.26,198.12,484.54,191.54,483.24Zm-6.62,81.41a4.34,4.34,0,0,0-.34-1A48.2,48.2,0,0,1,177,546.55a1.12,1.12,0,0,0-1.49-.92,2.22,2.22,0,0,0-.92,1.62c-.28,4.13-.78,8.29.76,12.32.55,1.44,2.65,2.77,1.13,4.38-1.29,1.36-2.71-.32-4-.83s-2.47-.72-2.86.77.95,1.92,2.15,2c3.46.16,6.93-.21,10.35,1C183.3,567.27,184.61,566.17,184.92,564.65Zm-1.42-52.54c.54-3.5-2.19-5.28-3.44-7.7s-3.09-2.91-5.3-1.13c-1.93,1.57-2.68,3.25-.77,5.45,1.3,1.5,2.3,3.24,3.53,4.8,1,1.21,1.18,3.77,3.17,3.23S182.88,513.69,183.5,512.11Zm15.26,14.43a5.92,5.92,0,0,0-.36-1c-2.78-5-13.66-5.29-17-.4-.48.71-.87,1.52-.27,2.26a1.92,1.92,0,0,0,2.71.19c4-3.29,7.71-2.44,11.62.22C196.67,528.62,198.44,528.81,198.76,526.54Z" transform="translate(-0.88 -63.67)"/><path d="M140.56,387.08c-.48,2.11.36,5.17-3.23,5.1s-3.44-2.72-3.51-5.36.68-4.86,3.58-4.89C140.87,381.88,140.17,384.92,140.56,387.08Z" transform="translate(-0.88 -63.67)"/><path d="M160.31,347.74c0-2,0-4,0-5.94.07-2.7,2.1-3.18,4.13-3.24s3.63.94,3.7,3.16c.12,3.95.21,7.93,0,11.87a3.87,3.87,0,0,1-4.29,3.87c-2.76-.06-3.68-1.79-3.67-4.27v-5.45Z" transform="translate(-0.88 -63.67)"/><path d="M91.78,410.76c.16-4-.37-6.88,1.4-9.43a3.22,3.22,0,0,1,3.41-1.44c1.42.18,1.85,1.28,2,2.49.35,4.12.91,8.24.89,12.35,0,2.59-.5,5.65-3.85,6.13-3.9.54-2.35-3.31-3.26-5S91.85,411.66,91.78,410.76Z" transform="translate(-0.88 -63.67)"/><path d="M180.64,375.86c3.1-.17,4.19,1.43,4.19,4.28,0,3-1,5.54-4.24,5.64-3.52.09-3.43-2.81-3.43-5.41S177.18,375.51,180.64,375.86Z" transform="translate(-0.88 -63.67)"/><path d="M143.12,344.54c-.17,2.43-.94,4.08-3.38,4.33-2,.19-3.16-.6-3.27-2.66-.15-2.73,1.67-3.82,3.91-4.07A2.28,2.28,0,0,1,143.12,344.54Z" transform="translate(-0.88 -63.67)"/><path d="M145.84,590c-.91,2.6-2,5.4-4.75,5.31s-4.67-2.7-4.54-5.56a5.35,5.35,0,0,1,5.21-5.14C144.65,584.61,145,587.87,145.84,590Z" transform="translate(-0.88 -63.67)"/><path d="M270.46,514.86c2.51,1.5,5.9,2.42,5.69,6-.12,2.27-1.59,4.52-4.51,4.26s-5.43-1.56-5.22-5.22C266.57,517.33,268,515.73,270.46,514.86Z" transform="translate(-0.88 -63.67)"/><path d="M276.58,493.61c-.06,1.4-.4,2.8-2,2.91s-1.65-1.27-1.6-2.44c.07-1.4.53-2.76,2.09-2.9S276.54,492.49,276.58,493.61Z" transform="translate(-0.88 -63.67)"/><path d="M189.05,470.15c2.55.19,3.41,1.82,3.77,3.62s-.74,2.72-2.53,2.83a3.35,3.35,0,0,1-3.82-3.05C186.17,471.57,187.73,470.75,189.05,470.15Z" transform="translate(-0.88 -63.67)"/><path d="M175.94,479.29c-.49,1.67-1,3.59-3.32,3.57a2.88,2.88,0,0,1-2.87-3.36c.14-1.82,1.3-3.65,3.31-3.67C174.82,475.81,176,477.14,175.94,479.29Z" transform="translate(-0.88 -63.67)"/><path d="M224.69,486.35c1.75.32,2.95,1.36,2.92,3.23,0,1.53-1.11,2.24-2.64,2.21a2.81,2.81,0,0,1-3-3.12C222,487.09,223.2,486.53,224.69,486.35Z" transform="translate(-0.88 -63.67)"/><path d="M207.57,483c-2.47.27-2.52-2-3-3.58a1.73,1.73,0,0,1,1.86-2.28c2.36,0,2.87,1.85,3.25,3.66C210,482.25,209.19,482.91,207.57,483Z" transform="translate(-0.88 -63.67)"/><path d="M156.33,486.49a2.49,2.49,0,0,1-2.36,2.62c-1.69.19-2.31-.86-2.35-2.35s.35-2.68,2.07-2.67C155.2,484.09,155.91,485.19,156.33,486.49Z" transform="translate(-0.88 -63.67)"/></g></g></svg>