<svg xmlns="http://www.w3.org/2000/svg" viewBox="0 0 898 893"><title>pigeons</title><g id="Layer_2" data-name="Layer 2"><g id="Layer_1-2" data-name="Layer 1"><path d="M453,1h6c-1.31,10-.25,20.21-3.55,30-1.06,3.15-.49,6.93-.29,10.41A3.43,3.43,0,0,0,459.08,45c2-.09,4.05.25,6-.1,8.95-1.61,17.71-.62,26.65.62,7.46,1,14.76,3.83,22.65,2.25,4.31-.86,5.72-2.37,5.78-6.78.08-6.35-1.46-12.58-1-18.86.31-4.17.59-9.08,6-10.2A39.09,39.09,0,0,1,537,11.09c7.83.85,15.63,2.22,23.37,3.72C569.79,16.64,579.15,19,588.8,19c7.62,0,11.3,3.21,13.1,10.92,1.24,5.35-.38,10.41-.36,15.6,0,4.54,1.9,6.12,5.62,7.2a52.65,52.65,0,0,0,7.47,1.76,62.69,62.69,0,0,1,16.91,4c5.09,2,9.31,5.23,14.16,7.44,2.52,1.15,3.52,3.88,4.19,6.49.38,1.51-.46,3.57,1.81,4.15s3.26-1.2,4-2.88c1.46-3.31,5.09-3.36,7.68-4.76,1.25-.68,1.17,2.92,2.62,4.2,1.77,1.56,2.51,4.48,5.82,3.6,1.19-.31,1.1.87,1.49,1.53,1.49,2.5,3.15,3.76,5.95,1.33,1.43-1.24,3-.56,4.12,1-6.25,3.17-6.24,3.16-3,10.16.42.9.68,1.87,1,2.81,2.61,6.86,7.1,11.8,14.18,14.36,1.5.54,4,.3,4.33,2.62.33,2.69,2.35,3.45,4.24,4.43a40.63,40.63,0,0,1,11.51,8.58c2.48,2.69,4.74,6.41,9.33,2.59,1.19-1,3.51-.41,4.37,1.26a8.12,8.12,0,0,1,.21,6.76c-.63,1.53-2.85,1.12-4,.42-4.85-2.87-11-3.63-14.45-8.87-1-1.45-2.7-2.42-4.17-3.5-4.91-3.57-9.85-7.1-14.78-10.64a2.77,2.77,0,0,0-2.81-.53c-.72.33-.7,1-.37,1.69,1.94,3.76.85,8.07,2.52,12.07s2.16,8.69,2.48,13.12c1.35,18.93-1.83,37.36-6.33,55.66-2.16,8.77-7.27,16.14-10.58,24.36a4.6,4.6,0,0,1-4.62,3.19c-1.7-.14-2.3.68-2.48,2.32-.49,4.35,2.29,10.79,6.06,12.64a20.71,20.71,0,0,0,7.16,2,289,289,0,0,0,35.19.93c1.9-.06,4.67.45,4.84-2.11.15-2.28-2.37-3.07-4.54-3.53,2.91.41,4.41-2.28,6.84-2.87,1.92-.46,4.13-1,4.29,1.56a68.9,68.9,0,0,1-.27,15.54c-4.38-4.43-5.07-5.28-9.79-4.28-6.73,1.42-13.27-.06-19.84-.37a29.26,29.26,0,0,0-11.64,1.47c7.9,8.46,16.19,16.57,20.44,27.81a201.8,201.8,0,0,1,5.94,19.94c2.78,10.55-.34,20.36-1.89,30.32-1.6,10.24-6.44,19.77-7.81,30.15-.25,1.91-2,3.9.39,6,2.79-4.57,4.38-9.5,7.43-13.66,9.9-13.48,22.65-18.72,39.32-10.46,9.11,4.51,15.81,11.25,22.08,18.94,3.59,4.41,4.48,8.84,3.71,14.29-1.78,12.61-3,25.29-4.74,37.91-.77,5.6-.68,11.39-2.8,17.87-4.87-7-9.65-12.69-15.79-17.4-7.27-5.57-16.75-4.73-19.73,6.22a58.64,58.64,0,0,0-1.5,21.63c1.31,12.68,5.74,23.24,19.64,27.36a40.33,40.33,0,0,1,16.13,9.42c16.34,15.46,23.38,35.47,27.66,56.83,1.73,8.6,2.35,17.36,3.62,26,1.81,12.33,1.8,24.73,1.77,37.09a192.26,192.26,0,0,1-3,33c-2.69,15.18-6.92,29.7-16,42.46-1.08,1.52-3.83,2.48-2.75,4.83s3.82,2.53,6,2.89a15,15,0,0,0,5.4-.44c1.17-.24,2.13-.63,3.26.21,2.49,1.85,5.44,1.58,8.18,1.1,4.43-.76,9,2.91,13.24-.43,5.8,4.42,12.78,1.58,19.07,3.09,3.25.77,3.76-1.14,3.49-3.93-.62-6.27-1.07-12.55-1.5-18.84-.59-8.62-.66-17.29-1.74-25.85-1.79-14.16-2.39-28.39-3.24-42.6-.76-12.91-1.68-25.83-2.87-38.67-1.47-15.86-2.43-31.76-3.46-47.61-1-14.61-3-29.11-3.35-43.81-.46-18.16-3.47-36.25-4.49-54.41-1.25-22.35-3.42-44.61-5-66.92-1.39-19.52-2.75-39-4.25-58.54-.18-2.39-1-2.94-3.23-3.19a119.18,119.18,0,0,1-28-6.57c-16-5.87-27.38-17.81-39.54-28.79a4.1,4.1,0,0,1-1-2.21c-1.06-5.72-5.2-10-7.18-15.26-.44-1.19-1.24-2.19-2.56-1.81-.63.17-1.21,1.15-1.45,1.89-.44,1.31.36,2.25,1.51,2.74.78.34,2.15-.37,2.06,1.56-2.84.76-4.84-.52-6-2.91s.49-3.65,2.58-4.41,2-2.33,1.42-4.08c-.9-2.79-3.24-5.81-3.12-8,.37-7.23-1.18-14.28-.7-21.54,1.79-27.6,14.42-49.31,37.32-63.58,32.91-20.51,67.08-18.58,98.42,3.11,29.48,20.4,41.54,49.89,34.16,85.67a75,75,0,0,1-28.59,45.65c-3,2.29-5.62,3.74-4.17,9.55,2.72,10.85,2.79,22.36,3.94,33.6,1.4,13.88,2.37,27.82,4.27,41.63,2.71,19.74,4.16,39.6,6.61,59.36,1.67,13.52,2.8,27.11,4.26,40.66,1.88,17.47,3.88,34.93,5.78,52.41,1.22,11.23,2.28,22.49,3.51,33.73,2.13,19.46,4.27,38.93,6.55,58.38,1,8.37,1.06,16.86,3,25.11v90c-2.38,1.5-1.4,3.86-1.42,5.9,0,1.83-.11,3.26-2.47,3.46-2.59.21-2.47-1.47-2.63-3.19-.2-2.17.66-4.52-.87-6.74-1.15,2-.48,3.83-.71,5.6-.17,1.35.63,3.28-1.66,3.54s-2.49-1.76-2.81-3.31c-.4-1.91-.58-3.87-.86-5.8a19.16,19.16,0,0,0-.52,5c-.07,1.77.3,4.13-2.52,3.82-2.3-.25-2.66-2.34-2.47-4.22a11.35,11.35,0,0,0-.89-6.85c-1.47,2.4-.73,4.61-1,6.67-.19,1.41,1,3.82-1.82,3.7-2.28-.09-2-2.19-2.27-3.8s.55-3.69-.89-5.7c-1.1,2.64-.54,4.83-.71,7-.09,1.15.06,2.49-1.59,2.63s-2.26-1-2.54-2.46c-.42-2.24.55-4.65-.92-7.07-1,1.92-.51,3.76-.67,5.51-.13,1.38.47,3.16-2,3.24-2.13.07-2.44-1.55-2.68-2.95-.35-2-.36-4.13-.51-6.19a14.58,14.58,0,0,1-1.48,5.15c-.57,1.12.51,3.42-2.09,3-1.88-.33-1.88-2.07-2.07-3.54-.28-2.26.59-4.72-.87-7.28a6,6,0,0,0-.69,5.65c.46,1.66,1.79,3.63-1.06,4.26s-4.17-1.08-4.51-3.86c-.23-1.84.82-3.84-.51-5.71-1.05,1.12-.24,2.06-.26,3-.06,2.43,1.31,5.63-3.16,5.83-7.44.34-7.88.09-8.14-5.12-.09-1.74.83-3.91-1.77-5.46,0,2.59,0,4.74,0,6.89,0,1.67-.21,3-2.39,2.84-1.86-.15-2.62-1.17-2.6-3,0-2.15,0-4.31,0-6.79-2.16.94-1.74,2.08-1.78,3-.25,5-.23,5-4.79,4.63-.37,0-.78.47-1.17.72-3.31,2.06-4.09-.36-4.54-2.76a64.32,64.32,0,0,1-.62-6.67,13.16,13.16,0,0,0-1.19,6.48c0,1.33.15,2.86-1.85,2.84-1.68,0-2.18-1.13-2.3-2.65-.18-2.38.73-5-1.79-7.39,0,2.72,0,5,0,7.32,0,1.89-1,2.8-2.76,2.71-1.61-.07-2.26-1.14-2.24-2.71,0-2.16,0-4.31,0-6.47a8.73,8.73,0,0,0-1.73,5.23c-.07,1.59-.37,2.43-2.29,2.22-1.68-.18-2.89-.36-2.78-2.49s0-4.55,0-8c-1.84,2.83-1.19,4.71-1.48,6.45s.85,4.15-2.26,3.89c-2.21-.19-3.52-1.48-3.57-4,0-2.28.6-4.73-1-6.8a69.43,69.43,0,0,0-.17,19.64c1.35,9,.5,18.21,1,27.35.91,15.09.74,30.25,1,45.38,0,.83.05,1.67.1,2.5,1.06,18.54,2.17,37.07,3.14,55.62.13,2.31.1,4.51,1.65,6.41,4.47-3.27,4.47-3.27,5.92,6.41,0-.5-.11-1.12.14-1.47,1.54-2.21-1.71-7.26,3-7,4.26.2,1.51,4.9,3.08,8,0-1.79,0-2.94,0-4.07-.11-1.94.6-3.39,2.63-3.53,2.33-.15,2.41,1.63,2.63,3.39.32,2.65.9,5.27,1.38,7.9a49.47,49.47,0,0,0,.52-6.48c.13-1.41-1-3.81,1.74-3.81s2,2.38,2.29,4.11c.36,2.61-1.14,5.57,1.76,8.44V851.3c0-6.51,0-6.44,6.47-6.21a4.26,4.26,0,0,1,3.83,1.78c.39.57.91,2.52,1.81.65a2.3,2.3,0,0,1,3.18-1.38c1.79.54.92,2.23,1.13,3.42.49,2.84-1.05,6,1.8,9.59,0-3.7-.1-6.35,0-9,.07-1.42-.91-3.65,2.05-3.5,2.39.13,3.06,1.54,3,3.69-.07,2.41,0,4.82,0,7.23a26.56,26.56,0,0,0,.85-8.42c0-1.68.67-2.42,2.37-2.34,1.39.07,2.72,0,2.65,2,0,.83-.24,1.85.86,2.53,1-1.62.61-4.53,3.75-3.62,2.52.73,1.9,2.75,1.91,4.5a13.82,13.82,0,0,0,1.24,6.59c.57-2.94-.11-5.91,1.91-8.19,3.92,1.94,1.75,6.27,3.79,9.1a13.64,13.64,0,0,0,.58-5.65c-.54-4.87,1.29-6.49,6.3-6,9.21,1,18.48,1.3,27.73,1.89v23c-12.18,1.07-24.2,4.68-36.6,2-2.39-.51-4.76-1.4-7.29-1-.91.15-1.83-.23-2.53,1-2.8,4.72-4.2,4.83-6.83.2-1.72-3-4.38-1.05-6.49-1.81a1.34,1.34,0,0,0-1.69,1.75c2.06,5.46-2.27,4.82-5.12,5.4-1.94.39-4,.29-6,.52-6.85.83-7,.86-7.37-5.79-.16-2.91-1.14-3.95-4-3.3a7.46,7.46,0,0,1-3.42.28c-6.29-1.68-7.94.93-7.12,7.32.5,3.87-1.12,3.94-3.43,4.2-11.21,1.29-22.45,2.33-33.63,3.79-4,.53-5.34-1.09-5.61-4.63-.94-12.2-1.92-24.4-2.87-36.6Q758,832.46,757,818.58c-.67-9.08-1.26-18.16-2-27.22-.26-3.2.34-4.71,4.17-4.71,4.76,0,9.52-1,14.27-1.67,1.72-.23,3.35-.76,3.35-2.94,0-7.45.06-14.9,0-22.35,0-2.08-.52-4.07-3.33-4-4,.15-8,0-12,.45-13.33,1.52-26.73,2.52-40.09,3.48-12.86.92-25.81,1.32-38.69,2.32-22,1.72-44.07,2.15-66,4.92-8.76,1.1-17.5.53-26.25,1-11.75.71-23.4,2.38-35.1,3.49-7.27.69-14.61.67-21.91.82-2.86.06-3.88.79-3,3.9a67,67,0,0,1,2.37,12.14c.71,7.85,3.37,15.64,1.23,23.61-1,3.56-.4,8.4-6.4,8.27-1.4,0-1.66,1.28-1.28,2.64,1.13,4,.16,7.92-.48,11.83-.42,2.58-.69,5.42-4,6.23s-5-.86-6.4-3.4c-.44-.78-.71-2.15-2-1.69-1.12.38-.9,1.62-1,2.6-.28,3-.42,6-1,8.89-.45,2.38-1.8,4.42-4.36,5s-4.51-.87-5.71-3c-.93-1.7-2.6-2.89-2.95-6a19.82,19.82,0,0,0-1.17,2.8,6.37,6.37,0,0,1-5.55,5.59c-3.08.42-5.23-1.69-6.79-4.27-4.76-7.85-7-16.83-12.24-24.67-4.25-6.29-4.64-15-5.3-23-.47-5.81-.39-11.63-.8-17.42-.15-2.07.66-6-3.83-5.32-12.86,2-26,.2-38.75,2.37-4.74.81-12.68-2.73-13.4,6.77a7.85,7.85,0,0,1-1.18.13c.52-5.34-2.84-5.8-6.86-5.21-8.44,1.25-17,.26-25.4,1-21.3,1.77-42.65,2.45-63.93,4.64-19.12,2-38.44,1.64-57.64,3.26-19.8,1.67-39.67,2.65-59.53,3.24-11.29.33-22.34,2.71-33.62,2.85-8.63.1-17.28.46-25.89,1-18.35,1.22-36.67,2.77-55,3.95-12.95.83-25.95.94-38.88,2C28.82,804,15,805.42,1,805V781c5.05-.65,10.09-1.82,15.14-1.83,12.82,0,25.54-1.5,38.33-2S79.9,775.65,92.62,775c11.52-.56,22.92-2.58,34.48-2.53,2.4,0,3.5-1,2-3.41-1.16-1.83-2.23-3.7.18-5.73a8.2,8.2,0,0,1,1.14,1.62c2.81,7.94,2.78,7.69,11.34,6.85,11.82-1.15,23.67-2,35.51-2.73,10.56-.69,21.14-1,31.7-1.69,19.8-1.31,39.59-2.85,59.39-4.18,8.44-.56,16.92-.64,25.35-1.24,11.52-.83,23-2.13,34.53-2.89,9.25-.6,18.54-.48,27.79-1.05,19.49-1.21,39-2.75,58.46-3.95,12-.74,24.06-1,36.08-1.67,4.46-.23,8.9-.84,13.35-1.32,1.49-.16,2.72-.35,3-2.5,1.24-10.83,2.72-21.64,4.1-32.45a3.5,3.5,0,0,0-1.65-3.88c-4-2.16-4.66-5.71-5.42-9.89-1.06-5.88.51-11.19,1.75-16.62.81-3.52-.58-5.46-3.52-6.64a63.87,63.87,0,0,1-10.18-4.88c-2.86-1.79-5.05-1.74-5.35,2.26-.16,2.11-1,2.26-2.54,1.34-3.72-2.28-7.75-3.23-12-4.14-4-.87-7.45-4.12-10.28-7.45-.68-.8-1.15-1.88-.31-2.65a3.09,3.09,0,0,1,2.32-.2c1.8.38,3.73,1,4.81,2.44,1.75,2.4,3.92,3.24,6.8,3.37,1.74.07,3.41,1.21,5.17,1.52,1.17.21,2.27,2.66,3.68.2,1-1.66,0-2.57-.84-3.91-4-6.37-9.39-9.45-17-8-.69.13-1.69.3-2-.57-.43-2.31,3.2-4.9-.65-6.53-1.14-.48-2.76.26-3.94-.16-3.81-1.35-3.42,5.36-7.28,3.65,0,0-.44.5-.39.69.91,3.38-1.47,3-3.43,3-2.93-.1-2.86,1.39-2.05,3.49,1.6,4.14-.11,8.1-.48,12.19A2.6,2.6,0,0,1,405,673c-1.17-5.84-2.37-11.67-3.43-17.53-.5-2.79-2.13-3.24-4.61-3s-2.05,1.77-1.91,3.21c1.13,11.37,2.16,22.75,3.58,34.09.39,3.07-.83,3.17-3.13,3.49-4.63.66-9.35.26-13.89,1-18.9,2.92-38,2.08-57,3.86-6.78.64-6.64.09-7.16-7-.7-9.74-1.68-19.46-3.18-29.12-.37-2.4-1.25-3-3.47-2.91-5,.14-10,0-15,.06-2.72,0-5,.41-5.17-3.81-.08-2.76-3.11-2.89-5.58-2.39s-2.87,1.84-1.68,3.95c.5.88.77,2.28-.77,2.11-4.43-.5-4,3.1-4.75,5.48-4.22,13.41-9.74,26.14-20,36.12-7.72,7.52-17.24,11.56-28,9.84C215.65,708.1,205,699.23,195.66,689a119.57,119.57,0,0,1-18.38-27.16,4.48,4.48,0,0,0-4.67-2.8c-9.49.08-19,.11-28.47,0-2.27,0-2.66.63-2.41,2.74,1.62,14,2.91,28,4.79,41.94.56,4.2-.25,6.52-4.5,6.84-9.75.73-19.51,1.32-29.27,1.9-3,.18-3.43-1.88-3.68-4.25-1.63-15-3.41-29.93-4.9-44.91-.32-3.19-1.38-4.58-4.58-4.21-2.35.26-4.52.08-5.23-2.79-1.81,1.14-2.83,3.33-5.73,2.91a56.35,56.35,0,0,0-10-.09c-2.45.08-4.25-.19-5.68-2.77-1.56-2.82-8.23-2.74-9.27.17s-3,2.56-5,2.56c-9.83,0-19.66,0-29.49.05-1.36,0-3.33-.85-4,1a4.05,4.05,0,0,0,1.58,4.8c1.54.91,1.81,1,.66,2.7-1.53,2.25-.8,5.17-.49,7.77,1.5,12.67,3.1,25.32,4.68,38,.33,2.65-.17,4.84-3.4,4.8C19.12,718,10.11,719.68,1,720V384c.83,0,1.66.1,2.49,0,3.27-.23,7.18.48,9.6-1.09,1.94-1.26-.87-5-.59-7.79a14.81,14.81,0,0,0,0-1.49c0-13.83-.05-27.66.07-41.49,0-2.76-1.36-7,4.35-5.88.31.06,1.21-.9,1.18-1.35-.36-5.37,4.07-8.49,6-12.76,4.38-9.65,11-18.09,18-25.81,8-8.77,15.67-17.94,25-25.42,4.72-3.78,7-8.39,3.37-14.35-.63-1-.15-2.69-.63-3.88-1.39-3.44-1.56-7.72-7.82-6.32-3.35.74-7,1.23-10.58,1.67-9.56,1.19-19.06-.46-28.59-.51-2.27,0-5.5-2.44-6.79.61-1.1,2.64,3.08,2.24,4.05,4.07.16.29.42.52.6.79,1.32,2,.61,3.93-.64,5.5-1.45,1.82-3.38,3.69-5.85,3.1-2.2-.53-1.72-2.95-1.73-4.73,0-7.5.05-15,0-22.49,0-2.86.77-4,3.84-3,2.52.78,4,1.74,3.75,4.78-.38,4.05,2.22,5.7,5.65,4.54a20.92,20.92,0,0,1,11.64-.82,10.42,10.42,0,0,0,7.23-1c2.22-1.15,5.11-1.77,6.53,1.87.72,1.85,2.63,2,4.31,1.62,2.65-.61,5.13-.86,7.78.31,2.43,1.08,3.22-.29,2-2.38-2-3.51-1.19-8.8-6.5-10.2-.22-.06-.8,0-.67-.88.54-3.63.48-3.74-3-4.38-4.23-.79-6.58-2.52-3.27-6.69.82-1-1-2.77,1.09-3.08,2.12,2.58,2.1,6.3,5.26,9.58-.51-7-1.1-12.8-1.32-18.64s0-11.92-.19-17.87A4.65,4.65,0,0,0,55,174.7c-3.7-2.08-7.24-4.31-12.11-2.52-2.76,1-6.42,1.08-7.09-4-.43-3.21-2.91-6.42,2.6-7.32.27,0,.55-1.17.5-1.77-.09-1.31-.69-3,1.44-2.81,1.5.16,3.32.74,2.95,3.18-.23,1.46-.22,3.5,1.74,3.57,7.37.24,2.34,2.8.85,4.3,2.1,3.05,3.81-1,6,.27,4.41,2.45,4.27-.28,4.23-3.74-.07-7.33-.57-14.58,1-22,1.5-6.91,4.72-14.55-1.08-21.37-.16-.18.26-.86.41-1.32,5.77,2.36,6.48,1.79,5.66-4.55-.12-.93-.15-1.8.86-2,3.75-.59,3.46-4.08,4.68-6.43,1.1-2.15.34-3.59-2.16-3.76-11.1-.74-22.18-2-33.33-1.56-1.8.07-3.95,0-3.31,2.91.57,2.66-.37,4.67-2.84,5.68a2.61,2.61,0,0,1-3.34-1.42c-1.43-2.59-.16-4.41,1.71-6.08.1-.09-.15-.57-.31-1.15-3.66,1.22-9.1-3-11.26,3.9V90.89c1.69.92.25,5.38,4.61,5.07,1.46-.11,3,.29,4-1.4,1.65-3-2.31-3.5-2.77-5.69,2.58-1.76,5.3-1.14,7.89-1.34,4.16-.32,6.47.81,5.29,5.66-.55,2.28.07,4.23,3.22,4.29,8.65.15,17.29.69,25.93.62,3.38,0,6.89-.47,10-2.58,4.87-3.34,9.47-7.55,16.17-6.46a1.5,1.5,0,0,0,1.93-1.64,3.61,3.61,0,0,0-1.46-3c-.82-.54-2.14-.64-2.43.64-.75,3.23-2.8,1.73-4.67,1.6-8.92-.6-17.82-3.07-26.77.44-6.34,2.49-14.48.16-17.62-5.25,7.22,3.42,13.86,2.42,20.39.43,2.7-.83,5.17-2,8-.32a2.73,2.73,0,0,0,3.65-.45c.6-.66,1.08-1.44.5-2.21a3.56,3.56,0,0,0-3.94-1.49c-1.08.29-2.08,1.15-2.82-.61s.27-2.43,1.3-3.29a16.93,16.93,0,0,0,4.76-7.36c-1.25-1.07-4.56,1-3.75-2.32.48-2,2.33-3.71,4.54-3.15a27.1,27.1,0,0,0,15.92-.58c.52,4.64.53,4.59,5.86,5.62,2.17.42,1.07,1.94.83,3.13s-3.5.66-1.55,2.54c1.35,1.3,3.13,3.28,5.6,1.31a2.77,2.77,0,0,1,3.22-.57c6.17,3.19,11,.74,15.46-3.64,4.74-4.72,4.73-4.72-1.69-7.55,2.11-1.75,3.93-4.05,5.83-.24,1.41,2.83,3.15,2.24,5.34,1.34,8.92-3.67,17.37-8.57,27-10.54,1-.19,2.27-.42,2.43-1.47.46-2.82,2.9-3.92,4.53-5.71,2.31-2.54,3.77-5.34,3.56-8.94-.19-3.15.22-6.34,0-9.49-.45-6.31,2.33-10.53,8-12.86,6.78-2.77,13.9-2.78,21-2.09,8.55.82,17.07,2.17,25.7,1.8,6.4-.28,14.64,6.13,15,12.49A56.3,56.3,0,0,1,230.34,40a24.86,24.86,0,0,0-.56,9.29c.44,2.39.74,3.54,3.68,2.85,3.86-.91,8.15.29,10.38,3,2.76,3.36,5,2.86,7.56,1,2-1.5,6.45,1.5,6.44-3.6,0-.73,1.08-1.58,1.84-2.13.22-.16,1.54.55,1.52.78-.48,4.87,4.32,5.1,6.75,7.26-.83,1.8-4,2.15-2.49,4.54,1.8,2.83,3-2.27,4.89-.62.87,1.29-2,3.44.71,4.15,1.62.43,3.45.08,5.24.08-.43,2.54.34,5.18-1.18,7.67-1,1.71.46,2.93,1.93,3.36,8.51,2.5,12.27,9.11,14.82,16.83a5.4,5.4,0,0,0,3.76,3.61c11.88,4,24,5.11,36.53,4.52,4.33-.21,5.89-1.72,6.14-5.79.31-4.94.76-9.87,1.53-14.79a120.34,120.34,0,0,0,1.09-15.32c.16-5.6,0-5.56-4.84-3.2a14.78,14.78,0,0,1-4.2,1.42c-2.29.34-4.62-.05-4.92-2.86a4.22,4.22,0,0,1,3.75-5,59.42,59.42,0,0,1,6-.29c3.26-.18,5.2-1.41,5.16-5.19C341.68,34.67,342.74,17.7,339,1h14c-5.28,14-4.46,28.74-5.45,43.26a40.59,40.59,0,0,0,.29,7c.25,2.47,1.06,3.57,4.2,3.09a133.65,133.65,0,0,1,17.34-1.05c9.29-.17,18.52,1.1,27.77,1.64,11.63.67,22.77,4,34.22,5.52,1.42.19,3.71.51,3.3,2.9-.35,2-2.23,1.6-3.68,1.66-6.76.25-13.05-2.29-19.55-3.49a210.53,210.53,0,0,0-41.85-3.43c-5.26.09-10.46,1.22-15.83.3-3.8-.65-6.18,1-6.43,5.89-.42,7.89-.62,15.83-2.05,23.71-.77,4.3-2,8.77-1.63,13.19.33,4.16-.88,5.91-4.64,4.57-1.83-.65-3.57-.5-5.35-.74-6.35-.86-12.64,2.1-19.18-.49-3.38-1.34-5.41,2.15-3.7,5.71,3.75,7.77,4.36,16.67,8.78,24.2.4.69.11,1.21-.32,1.78-2.19,2.9-.91,5.24,1.25,7.42,2.6-3.75,2.7-4.72.71-9.17,3.61,1.28,5.37-.94,7.46-3.16,8.65-9.16,19.33-8.37,25.69,1.95,6.76,10.94,6.58,23.05,4.95,35.17-.85,6.35-4.05,11.94-7.56,17.2-.95,1.42-3.35,2.22-2.41,4.32s3.25.92,4.91,1c13.77.61,27.55,1.07,41.32,1.63,3,.12,6.52,4,5.94,6.86-.64,3.12-3.52,2.37-5.72,2.38-11.83,0-23.66,0-35.49,0-5.54,0-10.77-1.47-16.06-2.77-3-.74-4-3.05-2.87-5.23,2.15-4.05,3.25-8.55,6-12.36a38.07,38.07,0,0,0,7.29-18.32c1.06-10.1,1-20-7.12-27.79-4.78-4.6-11.46-5.21-15.46-.11-7.94,10.1-13.14,21.28-11.44,34.84a84.92,84.92,0,0,1-.07,21.43c-1.28,9.86-2.28,19.54.37,29.45,3.89,14.58,5.1,16.1,20,15.76,7.12-.16,14.18-.4,21.32-.19,8.17.24,16.4,1.26,24.63.34,1.59-.17,3.63-.63,5.18,2.47-6.06-1.69-11.43.27-16.77-.36-13.61-1.61-27.25-.35-40.87-.73-4.68-.13-5.67,1.86-3.17,5.81a55.36,55.36,0,0,0,11.85,12.72,38.85,38.85,0,0,0,34.09,8.4c13.15-2.8,21.2-13.08,30-22.05,2.23-2.28.36-3.53-1.92-4s-4.64.42-6.9-.55c.76-1.4,2-1,3.13-1,6.19-.12,11.8-.14,17.17-5.2,6-5.69,7.83-12.2,7.82-19.52,0-4.31-2.74-7.75-7.4-9a10,10,0,0,1-3.25-1.22,6.33,6.33,0,0,1-2.48-6.51c.79-2.8,3.35-.47,5.05-.05,6.11,1.52,8.95,6.38,11.53,11.52,1.41,2.82,1.34,6.19,3.39,8.76.9,1.12,1.35,3,3.27,2.52s1.42-2.3,1.58-3.73c.34-3.16-1.22-5.83-2.27-8.6-3.89-10.2-8.67-20.2-10.71-30.91-4.05-21.18-4.45-42.56.23-63.76,1-4.7-.33-6.08-4.69-6.1-4.16,0-8.39.59-12.51-.84,3.41-1.35,6.92-.8,10.42-.74,4.31.09,8.69,1,11.18-4.55,1.39-3.08,3.68-6.27,7.61-7.28s6.14-3.77,7.88-7.13a21.71,21.71,0,0,1,6.55-8c2.35-1.7,2.73-3.63.6-6.28-3.73-4.65-7.06-9.63-10.41-14.57-2.86-4.24-5-9.06-8.39-12.83C428,37.22,421.81,31.24,416,24.89c-4.89-5.34-9.91-10.62-16.82-13.72A64.94,64.94,0,0,1,384,1h8c.45,1.88,2.29,2.26,3.54,3.27,5.62,4.6,12.41,7.79,17.26,13.24,8.57,9.64,18.55,18,25.92,28.74,4.73,6.9,10.37,13.17,15.14,20,4.62,6.67,12.51,9.06,19.17,4.22C480.52,65,488.25,60,496.2,55.3c.86-.51,1.88-1,1.68-2.19s-1.39-1.25-2.33-1.47c-1.13-.27-2.26-.49-3.4-.7-10.44-1.83-20.73-.61-31,1.25-6.72,1.21-11.72-3.06-12.05-9.82a38,38,0,0,1,1.38-12.29C453.15,20.54,453.64,10.82,453,1Zm33.46,324.83c2.05,1.59.71,2.93-.28,4.33-3.07,4.29-7.5,7.54-9.25,12.88a3.64,3.64,0,0,0,1.14,4.34c.56.54.92,1.58,1.94,1,1.45-.86.76-2.38.95-3.63.88-5.81,4.42-10.2,7.89-14.61,1.11-1.4,2-.38,2.86.46s1.4,2.39,2.69,1.53.78-2.48.47-3.69c-1.44-5.6-4.12-6.38-8.4-2.56,1.13-9.74-1.5-13.87-9.34-12.39-6.2,1.18-11.55-4-17.93-1.16-.94.43-1.92-.09-1.91,1.57,0,1,.42,2.3-.88,2.47-2,.25-1.18-1.53-1.42-2.49-1.67-6.73-1.89-6.64-8-3.3-7.51,4.1-12.75,8.8-9.88,18.62,1.33,4.53,5,8.26,9.61,6.54,2.08-.79,4.19-.5,6.52-1.14-2.5-4.63-2.25-9.34,1.66-11.83,2.43-1.56,3.3-3.44,5-7,1.07,5.95,4.65,4.66,7.52,4.18C474.82,318.69,480.41,322.9,486.46,325.83Zm-9.69,76.92c-3.18-4.49-1.87-9.35-.5-13.82,3.12-10.19-2.4-17.44-7.32-25.86-1.2,3-.22,5.63-2.43,7.34-2.35-2.41-1.72-5.34-1.15-8s-.44-3.19-2.69-3.41c-6.06-.6-11.39,3-14.49,9.88-5.17,11.4-5.09,23.52-4.95,35.65,0,1.23.32,2.78,1.65,2.66,5.6-.5,9.37,3.77,14.25,5.15,5.16,1.46,10.71-.24,15.67,2.35a1.26,1.26,0,0,0,1.88-1.43c-1.2-3.6,1.57-7.14,0-10.65,1.69.4,1.5,2.05,2,3.17,1.7,3.95,4.71,3.93,7.8,2.39,4.66-2.34,1-4.85-1.21-8.09,2,.84,2.89,1.21,3.76,1.55,1.25.51,2.49,2.48,3.8.9s0-3.3-1.06-4.46a35.63,35.63,0,0,0-8.68-6.91c-3.66-2-4.11-.31-5.05,2.34C476.93,396.55,478.35,399.84,476.77,402.75Zm-86.41,95.11c1-2.76.76-5.62.47-8.41-.88-8.51-1.81-17.18-.58-25.53,1.79-12.08-4.88-20-11.34-28.34-.54-.69-1.16-1.23-2.09-1s-1,1.29-.87,2c.91,4.55,1.28,9.33,3,13.58,6.11,15.35,9.11,31.39,11.45,47.62,1.11.87.63,2.13.78,3.24.38,2.84-.85,5.65-3.38,5.72-2.83.08-2.75-3.21-2.72-5.48.15-8.57-2.64-16.66-4.46-24.84-2.83-12.73-8-24.8-12.87-36.88-3.13-7.72-3.21-7.74-11.33-6.91a11.24,11.24,0,0,1-2.9-.07c-2-.29-4.83-.07-5.48,1.42-2.2,5-6.89,9.18-6.15,15.25,1,7.92-1.45,15.67-.88,23.56a59.75,59.75,0,0,1-.9,12.86c-.15,1-.82,3.12,1.22,3,8-.33,15.92-.66,23.83-1.52,5.08-.55,6.14-.2,6.62,4.91.81,8.74,1.49,17.49,2.36,26.22.3,3.1-.06,7.24,1.74,9,6,6,12.3,11.74,20.53,15.83-1.5-12.48-2.76-24.31-4.43-36.08C391.51,504.07,393.37,500.51,390.36,497.86ZM687,627.69c.64,6.57,1.36,13.14,1.91,19.72.75,8.92,1.37,17.85,2.07,26.77.19,2.44-.26,3.66-3.29,4.19-9.43,1.67-19,1.4-28.46,2.48-3,.34-4.77-1.55-5.9-4.37-5.18-13-10.57-25.82-15.73-38.79-1.12-2.8-2-2.58-4.13-.88-6.38,5-6.8,13-10.06,19.5-2,4-4.58,2.24-7,2.69s-3.26-.69-3.18-3.09c.05-1.66.64-4.3-2-4.22-2.42.07-2,2.57-2.11,4.36-.06,1.26.31,3-1.73,2.89-2.38-.11-6.4,1.24-6.73-1.19-.52-4-3.53-6.46-4.1-10.41-.73-5-3.88-9.39-9.15-12.39.37,15.62,3.36,30.14,3.76,44.91.13,4.85-1.53,5.95-5.79,6.14q-11.16.53-22.27,1.82c-7.78.9-8.09.83-8.91-6.74-.09-.82.06-1.68-.08-2.49-1.36-8-.68-16.19-3.83-23.92-1-2.33-2.89-3.88-3.52-6.45a96.78,96.78,0,0,0-10.07-25.33c-1.55-2.7-4.45-.48-6-2.37a13.83,13.83,0,0,0-1.35,3.48c-.73,7-3.69,13.67-1.38,21.09,1.06,3.41,2.3,4.41,5.33,4.09a18.72,18.72,0,0,1,11.41,2.1,54.05,54.05,0,0,1-10.07.65c-2.11,0-3.43.93-2.39,3.07,2.19,4.5-.78,4.11-3.57,4.06-2,0-4,.14-6,0-3-.3-4.75.75-6.22,3.6-2.43,4.68-5.61,9.09-10,12.14a10.69,10.69,0,0,0-4.32,5c-1.65,4.05-4.53,6.79-9.2,7.25-7.06.69-14.16,2.46-21.11-.44-2.34-1-3.55-.11-4.18,1.9a28.78,28.78,0,0,0-1.72,10.76c.14,1.88.79,3.94,2.52,4.55s2.88-1.2,3.86-2.57c.72-1,1.18-2.78,2.9-1.88,1.53.8.72,2.39.51,3.63a29,29,0,0,1-1,3.35c-1.66,5.65-2.54,11.28.06,16.95.84,1.84,1.41,4.1,3.77,4.09,2.95,0,2.61-2.87,3.4-4.77,1-2.47-.31-5.57,1.71-7.82,1.35.58,1.4,1.49,1.1,2.25-1.79,4.47-.53,8.87.52,13.16.49,2,1.1,5.12,4.23,4.68s2.93-3.22,3-5.55c.07-3.54,0-7.09,0-10.63A84.57,84.57,0,0,1,496.11,731c.44,1.81,1.05,4.11,3.22,3.77s3.08-2.52,3.14-4.64a24.42,24.42,0,0,0-3.18-12.38c-1.1-2.08-2.76-4.24-.68-7.34,1,2.09,1.79,3.84,2.7,5.51.7,1.29,1.34,3.17,3,2.91,2-.32,3-2.28,3.07-4.13.15-4.71-.31-9.34-4.55-12.5-1.12-.83-2.21-1.76-1.69-3.27s2-.73,3-.66c4.12.3,4.27-2.57,4-5.27-.38-3.61-1-7.25-3-10.43-.59-.91-1.65-2.28-.31-3.06,1.83-1.06,2.17,1.11,2.67,2,1.81,3.43,2.3,7.16,2.61,11,.4,5-1.94,10-.48,14.83,3.73,12.54,7.72,25,11.68,37.47.6,1.89,1.34,3.57,4.16,3.26,12-1.33,24-2.46,36.09-3.58,3.65-.34,7.16-4.08,11-.48,14-1.77,28.17-1.13,42.21-2.87,5.07-.62,10.11-2.13,15.16-2,14.25.41,28.39-.94,42.53-2.19,4.45-.4,8.94,0,13.58-1.42,2.48-.74,7.22,1.15,11,.6,9.82-1.46,19.68-2.41,29.58-3,13.33-.77,26.67-1.43,40-2.3,6.83-.45,8.07-1.88,8.48-8.63.07-1,0-2,0-3-.31-9.79-.68-19.58-.9-29.38-.08-3.49-.45-6.93-.78-10.4-.32-3.28-1.84-3-4-2.11a30.59,30.59,0,0,1-10,2.65c-12.21,1-21.87-4.29-30.42-12.22-5.76-5.35-11-11.19-20.29-8.93-2.43.59-5.8.52-4.75-4.38.59-2.72-3.95-3-4.6-5.39C697.11,640.92,692.05,634.32,687,627.69ZM802.59,263.13c31.86.39,51.26-7.47,65.67-23.78,18.57-21,24-46,13.66-72.77-10.13-26.14-29.52-42.29-56.81-48.59-19.16-4.43-38-2.56-54.87,7.59-26,15.71-38.68,39.18-36.16,70a69.35,69.35,0,0,0,16.44,39.33C766.47,253.89,787.57,262.72,802.59,263.13ZM74.11,403.63c-.53-6.91-1-13.67-1.59-20.43-.2-2.37.55-3.62,3.19-3.92,10.16-1.15,20.37-1.42,30.57-1.73,2.61-.08,3.48,1.38,3.72,3.67,1,10.38,2.18,20.74,3.18,31.12.22,2.39.87,4.37,3.47,4.72,7.86,1.05,15.75,2.71,23.63,2.73,9.36,0,9.49-.57,12.19-10.41.74-2.7,3.79-5,2.55-7.8-2-4.58-.93-10-4.48-14.21a11,11,0,0,1-2.36-6.95c.18-4.87-2.43-5.39-6.25-5.53s-7.61,1.16-11.18-1.05c3.72-5.7,2.68-8.77-3.13-9.94a2.58,2.58,0,0,1-1.64-1c-2.35-4.53-5-3.79-8-.65-1.18,1.26-2.78.8-4.24,1-5.44.63-9.76,3-12.83,8.12l13.76,1.94A117.07,117.07,0,0,1,73.21,373c2.61-.6,5.24-.41,7.83-.65,2.34-.22,4.2-.88,2.81-4.16-1.13-2.68-.09-5,2.48-6.78,4.33-3,7.32-7.6,12-10.28.83-.47,2.61-1.47.71-3-4.88-4.07-9.93-8-15.66-10.71-6.8-3.22-9.64-11.68-5.53-18.08,4.45-6.95,13.3-6.54,18.45.74,3.92,5.54,8,11,11.37,16.87.67,1.17,1.56,2.41,3.09,2s.81-2,1.17-3c3.84-11.22,3.22-22.79,2.69-34.35-.07-1.43-.47-2.85-2.1-3-2.06,1.91,1.06,3.42-.14,5.22-1.91-1.26-3.78-2.47-4.19-4.79-.69-4-3.58-5.9-6.4-8.36-4.07-3.55-10.23-5.14-11.61-11.8-2.54,2-1.51,5-2.51,7.55-2.86-5-3.39-10.78-9.41-13.36-2-.86-2.65-3.83-5.78-1.49a97.52,97.52,0,0,0-13.61,12.13c-4.6,5-8.4,10.66-12.79,15.86-4.87,5.76-9.51,11.83-12,19.28-5.26,15.43-3.58,31.05-2,46.7.23,2.35,1.28,3.88,3.79,5.13,3.47,1.72,7.43.68,11,2.65-1.84,1.09-3.92.64-5.26,2C49.47,387.84,59.84,397.64,74.11,403.63Zm625.35,77.06c-.13-3.59.1-7.52-.48-11.32-1.68-11-2.25-22.07-3.74-33.05-.24-1.81,1.63-5.69-3-5.37-2.47.17-5.38-1-7.31.63-3.61,3.12-7.44,5.41-12.2,6.1-1.41.21-1.82,1.29-1.85,2.57s0,2.45,1,3.2c1.36,1,1.94-.86,2.94-1,2.4-.43,2-3.94,4.6-4A10.4,10.4,0,0,1,690,448.85c0,2.17.45,4.29.66,6.41.29,3,2,6.39-.76,9a11.28,11.28,0,0,0-3.18,6.52,35.56,35.56,0,0,1-4.37,11.07c-1.92,3.3-3.17,7.07-5.46,10-2.52,3.26.18,6.25.08,9.22-.35,10.88,1.17,21.82,2.17,32.73.35,3.75,1.39,7,6.62,5.37a5.54,5.54,0,0,0,2.66-1.62,92.17,92.17,0,0,1,9.68-9.08,6.47,6.47,0,0,1,8.68.3c6.44,5.47,5.5,15-2.62,16.9-6.55,1.55-11,5.5-15.78,9.11-3,2.27-7.09,4.56-6.61,9.79.94,10.24,1.28,20.55,2.47,30.76.6,5.13.37,10.63,4.27,15a110.19,110.19,0,0,1,16.33,24.15c.44.89.94,1.86,2.18,1.63,1-.19,1.2-1.08,1.26-1.92.92-12.22,4.16-24.17,4.24-36.48,0-8.31-.33-16.65.81-24.9.53-3.87.45-8,3-11.38,2.17-2.88,4.77-4.5,7.87-1.71,2.65,2.38,4.36,5.68,3.57,9.32a42.52,42.52,0,0,0-1,9.38c0,1.33-.1,3.21-1.48,3.28-1.85.1-1.86-1.84-2-3.34-.15-1.32.72-3.28-1.68-3.43-1,0-2.24-.06-2.84.5-1.51,1.38-.15,2.83.58,4,5.4,8.49,11.64,16.41,19.42,22.76,9,7.34,17.94,4.6,22.18-6.39,3.08-8,2.16-16.26,1.83-24.62-.64-16.47-7.07-28.64-22.79-35.15A52,52,0,0,1,716,516c-6.56-10-10.82-20.87-13.74-32.36C701.39,480.15,701.41,480.15,699.46,480.69ZM100.11,236c13.07,0,23.56,12.14,20.76,24.33-1.27,5.51-4.34,10.37-7.56,14.9-2.34,3.29-1.7,5.49.9,7.71,4.28,3.66,8.65,7.22,13,10.75,1.09.88,1.86,2.82,3.6,2.12,1.51-.6,1-2.35.88-3.59-.15-1.63,1.12-4.1-1.56-4.6-4.91-.94-6.17-4.36-6.58-8.62a40.2,40.2,0,0,0-.86-5.89c-2.73-11.09,2-20.45,7.06-29.61,1.1-2,5.38-4.08,5.12-4.6-1.45-2.9-4.65-.73-7-1.44-1-.29-2.08-.5-2.27-1.63a2.31,2.31,0,0,1,.9-1.63c2.56-2.16,8-2.51,8.45-1.8,3.48,5.26,8.78,2.3,12.92,3.78,2.57.91,6.69-.94,7,.23,1.19,4.43,6.13,4.68,7.85,8.2.46.94,1.25,2.34,2.61,1.89s1.41-2,1.45-3.39c.11-3.83-.9-7.54-.84-11.42.1-7-.2-7-7.1-7.61-8.38-.71-12.2-3.32-13.56-9.72-.48-2.24-.22-4.64-.27-7,0-1.83.2-3.92-1.94-4.69-1.9-.68-2.82,1.29-4.18,2.13-2.72,1.68-4.17,5.33-7.6,5.64a89.46,89.46,0,0,0-10.16,1.36c-4.37.91-9.06,2.21-13.28,1.45-5.59-1-9-7-14.67-8.58-.5-.15-.94-1.41-1-2.18-.16-3.74-2.41-6.45-4.36-9.33-5.41-8-5.46-24.08-.13-31.75q3-4.29,5.9-8.62c4.1-6.09,9.56-9.75,17.14-9.54,2.4.07,3.65-.44,4.59-3.17,2.11-6,2.24-12.91,7.39-17.8,1.29-1.23.21-2.41-1.75-1.92a10.76,10.76,0,0,1-3.39.5c-2.4-.22-4.43-2.13-4.46-4,0-2.16,2.77-2,4.43-1.74,2.61.45,6.17-2,7.68,2.39.47,1.39,1.11,0,1.69-.35,4.74-3,7.81-8.08,12.87-10.75.91-.48,2.42-.83,1.7-2.49-.55-1.29-1.74-1.43-2.93-1.43-4.17,0-8.34.06-12.5,0a18.53,18.53,0,0,0-10.1,2.88c-6.21,3.51-12.88,9-20.71,3A52.77,52.77,0,0,1,91,104.25c-3-2.91-9.49-2.65-11.37.68-2.26,4-4.7,8.06-6.17,12.39-4.15,12.25-8,24.52-6.83,37.89.63,7-1,14.16-.32,21.13,1.2,12.27.85,24.59,4.19,36.83,2.73,10,7.71,18.06,13.44,26.09.82,1.14,1.85.54,2.58-.14C90.46,235.46,95.35,236,100.11,236ZM280.58,130.69c0-5.18-.39-8.2-6.76-9.62-7.08-1.58-13.75-5.81-16.44-13.95-1.38-4.18-9.41-5.53-12.37-2.3-1.87,2.05-3,4.43-.12,6.87,7.44,6.28,12.32,14,13.51,23.89.21,1.76,1,3.84,3.5,3.28,10.87-2.39,19.87,1.27,28.62,7.58,10.67,7.68,15.13,24.87,9.74,36.76-3.84,8.46-11.58,13.44-16.34,20.94-1.28,2-2.36-1.24-3.93-.33,0,1.59.1,3.26,0,4.91s-.86,3.62-.63,5.34.83,3.34-1.21,3.43-1.44-1.84-1.59-3.34c-.29-2.91.48-6.31-1.55-8.6-1.83-2.07-4.26.86-6.59.39-1.43-.29-3,.15-4.47-.07-3.35-.51-6.6-2.42-10,.21-1.07.83-1.62-.78-1.69-1.69-.24-3.08-2.47-2.54-4.42-2.6s-3.69.3-3.74,2.85c0,1-.22,2.05-1.6,2s-1.67-1.17-1.45-2.11c1.48-6.08-4.11-9-5.92-13.62a1.85,1.85,0,0,0-1.87-1.38c-1.24.16-1.33,1.23-1.47,2.26-.26,2.09-.81,4-.17,6.3,1.39,4.84,1,9.9.89,14.89-.16,7.12-5.11,11.69-12.17,12.1-2.8.17-6.72-2.14-8.28,2-.68,1.82-2.32,4.43-.47,6.11,2.42,2.2,5.81,3.7,9,2.7,7.14-2.19,14-1.26,20.92.69,3.78,1.08,6.24,4.09,8.59,7,3,3.77,3.73,8.6,5.61,13.3a45,45,0,0,0,2.81-3.52c3.86-5.9,9.16-8.15,16.3-8.66,7.59-.53,13.81,4.18,21.29,3.85,3.08-.14,4.25-.79,4.8-3.32a91.32,91.32,0,0,1,3.81-12.47,127.27,127.27,0,0,0,7.73-42.33c.22-13.62.52-27.28-.82-40.82-.76-7.61.73-16.29-6.82-21.94-.09-.07,0-.54.14-.73,3.07-4.19-.91-6.9-2.49-9.69-3-5.27-5.21-5.31-10-1.54a15.76,15.76,0,0,1-2.64,1.39C284.31,119.89,278.72,122.56,280.58,130.69ZM653.15,341.28c-1.71,4.8,2.1,4.22,4.28,3.46,5-1.76,5.78.62,5.84,4.73a101,101,0,0,0,.88,11.4c.34,2.52,2,5,4.63,3.69,3.94-2,8.38-2.59,12-5.65,10.41-8.77,16.29-20.17,20.45-32.74a85.91,85.91,0,0,0,4.31-27.9c-.13-10.06-4-19.68-9.3-28.4C690,259.57,682.11,250.8,671.32,245c-3-1.59-5.57-1.87-7.57,1.6s-3.42,7-8.18,7.89c-2.4.43-1.36,3-.7,4.65,1.07,2.73,1.73,5.51-.16,8.09-2.54,3.48-5.26,6.82-7.87,10.25-.47.61-.78.56-1.56.41-3.71-.69-9.62,4.24-9.19,7.88.75,6.23,2,12.42,2.84,18.64.34,2.36,1.44,2.73,3.41,1.93,2.77-1.12,5.53-2.24,8.32-3.29,1.79-.66,3.57-.92,5.09.68,1.78,1.88.17,3.35-.55,4.94a6.72,6.72,0,0,1-3.31,3.6,43.09,43.09,0,0,0-15.49,11.05c-3,3.43-2.28,4.58.88,6.15,3.72,1.84,7.64,3.29,11.26,5.29C650.94,336.07,653.63,337.59,653.15,341.28Zm-135.76-48.6c3.36,3,7.1,3.36,10.61,3.44,17.41.37,34.69,3.05,52.12,2.9,8.79-.07,17.59-.6,26.38-.77,6-.11,8.1-3.44,5-8.74-.76-1.31-1.63-2.13-.83-3.95,3.76-8.51,2.31-17.34-1.27-25.08a57.72,57.72,0,0,1-4.3-15.38c-.43-2.65-1.46-3.39-3.82-3.35-4.16.06-8.32.13-12.48,0-3-.09-7.41,1.59-6.14-4.72.27-1.33-1.78-3.62-3.31-4.7-4.55-3.25-6.1-8.1-7.71-13-.94-2.83-1.83-5.69-2.61-8.57-.66-2.47-2.56-4-4.68-3.73-5.53.75-10.69-1.71-16.18-1.23-2.88.24-4.09,1-4.36,4-.42,4.78-1.47,9.49-2,14.26-.78,6.83-4.44,11.22-11.08,12.68-1.27.28-2.18.47-2.18,2.07,0,2.51-2.08,3-3.8,2.78-1.54-.18-3.84-.1-3.86-2.87,0-1.8-.85-3.57-2.91-3.13-1.9.41-.5,2.22-.65,3.4s-.36,2.62-.62,3.91c-1.8,8.9-4.1,17.73-3.55,27,.15,2.48,0,4.94,1,7.35,1.29,3.27,4.62.73,6.83,2.48-2.49.67-5.53-.82-6.1,3.14-.67,4.62,3.28,2.53,4.9,3.76,1,.72,2.91.27,3,2.05,0,1.3-1.31,1.79-2.3,2.38C519.59,291.5,518.73,291.94,517.39,292.68Zm-321.1-56.05c2.81,0,4.83-1.36,4.42-3.76-.47-2.79-1.07-7-3.83-7.58-5.44-1.13-11-2.29-16.69-2.15-2.6.07-3.82,1-3.44,3.5,1,6.49-.48,12.88-.6,19.28-.19,9.68-4.49,16.7-11.3,22.7a10,10,0,0,1-12.54.25c-3-2.49-4.5-1.79-5.73,1.42-.48,1.24-1,2.46-1.4,3.73-4.56,15.8-4.77,32.08-5,48.32,0,3.07,1.77,5.52,5.51,5.93,4.3.46,8.58.74,12.9.84,22.53.55,45-2.27,67.51-1.59,7.39.22,8.56-.95,9.75-8.2.24-1.47,0-3,.15-4.49.53-4.18-1.42-8.3-.76-12.34,2.13-13.08-.79-25.7-2.92-38.4-.51-3.09-1.63-7.14-5.2-7-3.93.16-9.44-.65-10.46,5.73-.15.94-.65,2.05-2,1.71a1.92,1.92,0,0,1-1.4-2.34c.69-3.1-1.64-4.43-3.39-6.1-3.28-3.13-6.94-6.4-7.15-11S200.8,237.94,196.29,236.63Zm648.8,288.72c-.34,9.56,1.23,16.74,1.7,24,1.05,16.37,1.79,32.78,3.32,49.12,1.77,18.81,2.78,37.66,4,56.5.46,7.09,1.24,14.17,1.87,21.25.29,3.13,2.84,3.71,5,3.61,1.92-.1,5.54.5,5.5-2.05-.06-3.93.68-7.86.12-11.79-2-14.28-2.1-28.72-3.37-43.07-.78-8.76-1-17.57-1.59-26.35-1.07-14.84-2.37-29.67-3.43-44.51-.88-12.39-1.49-24.81-2.35-37.2-1.06-15.35-2.31-30.69-3.39-46-.63-9.1-.65-18.28-1.71-27.33-2.08-17.61-2.77-35.3-3.94-53-.68-10.41-1.32-20.85-2.14-31.24-1.4-17.67-2.58-35.35-3.81-53-.62-8.89-1.55-17.75-2.08-26.66-.49-8.27-1-8.16-9.05-6.55-2.91.58-4.2,1.77-3.89,4.93.72,7.41,1.14,14.85,1.72,22.28,1.37,17.83,2.82,35.65,4.14,53.47.9,12.07,1.06,24.22,2.58,36.2,2.14,16.81,2.32,33.73,3.84,50.57,1.17,13,1.67,26.06,3,39.05C842.87,494.2,842.88,511,845.09,525.35ZM491.86,221.82c3.35-11.19,12.55-18.8,21.68-17.53,3.84.54,3.85-.72,2.38-3a26.82,26.82,0,0,1-4-18.47,6,6,0,0,0-.44-2.93c-.8-2-3.49-2.55-3.72-1-.91,6.22-5.13,4.9-8.72,4.21-4-.78-7.06,2.26-10.87,2-9.79-.65-10.22-.3-12.86,8.77,0,.15-.56.16-.87.24-1.2-3.83.37-8.94-5.34-10.64-6.75-2-11.25-5.95-14.12-13s-4.67-14.24-3.69-21.57c.83-6.25,2.64-12.5,7.74-17.33,5.49-5.21,13.44-5,19.1-9.64.36-.29,1.3,0,1.93.2,4.89,1.43,6.73-.71,6.69-5.44,0-4.34,1.8-7.75,5.09-10.74,5.19-4.73,5.68-8.79,2.58-15.46-.72-1.53-1.43-3-1.16-4.75,1.31-8.51,12.28-17.56,21.06-16.34,4.16.58,3.73-.94,4-3.67.37-4.45-2.38-5.9-5.82-6.59s-6.39.54-9.3,2.52c-7.33,5-16.29,7.52-22.12,14.82-2.08,2.6-3.13,5-.53,7.91,2.79,3.12,3,6.62,2.16,10.71-.87,4.34-4.72,7.29-4.85,11.84,0,.39-1,1.1-1.46,1.07-7.44-.43-14.44,4.19-22,2-3.48-1-6.82-2.54-10.28-3.63-3.09-1-5.24-.11-6.72,3.18-7.27,16.18-7.14,33.21-6,50.35,1,14.25,6.64,27.21,11.66,40.33,4.5,11.76,6.13,12.4,17.81,7.88,7.3-2.82,14.49-3.77,21.89.78C487.88,211.94,488,217.78,491.86,221.82ZM621.22,88.4a23.9,23.9,0,0,1-5.11,5.38c-2.1,1.65-3.89,4.13-1.62,6.78s2.56,8.23,8.28,6.74c5.15-1.35,10.23.1,15.34.29,1,0,2.55.62,1.79,1.59-3.16,4,.75,3.11,2.43,3.65a16.66,16.66,0,0,1,5.65,3c9.53,7.83,15.73,16.63,16.61,30,.68,10.44-8.82,24.1-16.85,29.39-5.85,3.86-12.69,4-19.21,2.81-3.39-.62-6.43,3.57-7.86,1.62a22.07,22.07,0,0,0-7.3-6.44A50.43,50.43,0,0,1,600.74,163c-.82-.88-.09-3.18-2.11-2.73-1.79.39-1.07,2.22-1.09,3.4-.1,9,.1,17.9,2.08,26.73a13.83,13.83,0,0,1-2.09,10.78c-2.49,3.79-1.95,4.81,2.63,5.64a34.56,34.56,0,0,1,16,7.4c6.62,5.48,7.83,13.15,6.81,21.3-.17,1.35-.63,2.77,1.11,3.32a3.26,3.26,0,0,0,2.39-.15c1.65-1,.46-2.32,0-3.49-2.39-6.28-2-12.9-1.11-19.21.76-5.3,2.77-10.63,7.64-14.11,8.41-6,17.07-3.95,25.36-.28,8.62,3.8,11.62,3.7,16.59-4.12,6.44-10.16,8-21.85,9.07-33.54a82.07,82.07,0,0,0-.95-22.09c-1.56-8.91-4.9-17.05-7.5-25.52-1.09-3.55-5.07-5.29-5.34-8.74-.42-5.19-3.35-8.78-6.34-12.43a7.62,7.62,0,0,0-9.07-2.3,48.37,48.37,0,0,1-17.65,4.25C629.49,97.52,624.72,95.58,621.22,88.4Zm-335.07,464c3.77-2,6.8-3.7,9.87-5.28,4.69-2.39,6.71-6.09,5.72-11.31-3-15.63-3.55-31.51-4.92-47.31-.35-4-1.72-5.08-5.8-3.78-9.61,3.07-18.08,8.95-28.85,9.46-8,.37-16,2.91-24,3.16-18.64.6-37.19,3.09-55.87,2.7-1.4,0-3-.45-3.23,2-.72,7.84,0,15.67,0,23.5,0,.83.18,1.21,1.3,1.51,6.64,1.78,10.1,10.45,5.12,15.36s-4.05,9.32-2.75,14.63c.43,1.76.26,3.65.56,5.44.32,1.94.66,3.27,3.48,3.7,8.64,1.3,17.27.4,25.89.64,6.91.19,7,0,6.36-6.87-.06-.66-.26-1.3-.33-2-1.5-13.32-3-26.64-4.42-40-.22-2.14.61-3.82,3.36-3.9,4.46-.14,8.92-.55,13.38-.82,7.75-.48,15.5-.89,23.24-1.41q11.91-.82,23.8-1.83c3-.25,4.13,1.22,4.39,4C283.6,526.54,284.85,539.05,286.15,552.38ZM441,239.26c-2.2,1.17-4.1.27-5.77.77-4.13,1.23-8.47-1.74-12.76,2.15a106.64,106.64,0,0,0-22.41,29.38c-7.86,14.7-10.57,32.07,7.93,44.88,6.8,4.72,15,6.95,21.07,12.85a1.38,1.38,0,0,0,2.36-.74c.15-4.53,1.92-9.32-1-13.51-4.34-6.2-4.15-9.52,2-14.27,2.18-1.69,2.63-3.33,2.7-5.84A24.51,24.51,0,0,0,425,273.57c-3.06-2.33-3.9-4.92-2-8.64,3.28-6.33,12.21-8.81,19.37-5.52,6.69,3.08,12.5,7,16.88,13,3.58,4.93,8.33,9.17,8.27,16,0,1.3.83,2,2.08,2.48,3.27,1.2,6.43,2.73,9.76,3.74,5.07,1.54,8.78-.83,9.81-6,1-4.86,1.83-9.75,2.67-14.64.4-2.33.73-4.78-3.07-3-1.82.85-1.61-.64-2-1.72a8,8,0,0,0-7.54-5.41c-3.13.2-1.23,4.11-1.66,6.37a6.59,6.59,0,0,0,0,1c-.05,1.88-.95,3.46-2.77,3.56-2.55.14-1.36-2.15-1.54-3.37-.57-3.86.44-8-2.34-11.42-2.35-2.86-4.57-5.74-4.21-9.78.11-1.17-.62-1.83-1.79-1.94-3.75-.32-6.3-2.64-8.4-5.41a6.93,6.93,0,0,0-5.65-2.63c-2,0-4.13.78-4.53-2-.27-1.94-1.76-4,.19-6,.74-.74,1.38-1.82.5-2.63-1.3-1.21-1.36.76-2.08,1.06a2.35,2.35,0,0,1-1.84,0c-4.63-2.69-7.53,1.38-8.52,3.85-1.53,3.81,3.34,2.66,5.24,3.95C440.1,238.56,440.34,238.76,441,239.26ZM595.08,105.84c-4.17-3.19-5.89-8.87-11-11-7.49-3.11-15.65-2.36-23.52-3-10.71-.89-20.94,2.82-31.3,4.71-4,.73-10.79.19-11.32,7.49-.05.76-.85.71-1.57.67-9.82-.45-17.49,9.54-18.19,17.69-.19,2.18.63,3.52,2.54,4.89,2.93,2.09,6.26,3,9.44,4.28,6,2.5,8.21,5.38,8,11.7-.28,7.29-.92,14.47.74,21.79,1.53,6.74,2.44,13.63,4.34,20.31a9.08,9.08,0,0,0,4.48,5.78c7.32,3.74,15,6.22,23.41,5.64,1.62-.11,3-.89,4.86-.46,9.3,2.22,18.72.55,28.09.49,3.36,0,4.75-2.28,4.93-5.18a81.54,81.54,0,0,0-1.4-20.33c-.29-1.55-.18-3.34-3-2.77a1.12,1.12,0,0,1-.66-2.13c4.22-.83,2.61-4,2.75-6.26.37-6,1.72-10.35,8.46-12.88,5.79-2.17,10.8-7.41,11.2-14.1a24.32,24.32,0,0,1,3.64-12c3.25-5,.72-7.81-2.67-11.24-.92,2.43.58,3.88,1.11,5.52.33,1,.6,2-.73,2.43a1.71,1.71,0,0,1-2.26-1.38,10.1,10.1,0,0,1-.4-3.92c.44-2.87-1.07-3.56-3.42-3.47-1.57.06-3.13.27-4.8.42.64,2.93,3.64,3.72,4.1,6.47,1.55,9.25-4.82,19.14-14.14,21.61-7.71,2-9.82,4.68-10.05,12.49-.13,4.41-.28,8.82-.5,13.23s-6.56,12.77-10.6,13.37c-5.27.78-10.64,1.41-15.91.56-5.68-.93-11-3.07-13.59-8.79-4-8.89-3.48-18.75-5.65-28.06-1.25-5.42-6.9-8.57-11.89-5.5-.47-2.36-1.81-4.24-2.86-6.27-3.76-7.28-2.75-12.23,2.65-18.43,3.35-3.84,8-5.12,12-7.75,8.68-5.8,18.73-7.52,28.47-7.09C571.39,95.9,583.54,99.67,595.08,105.84ZM208.73,215c2.64-.17,5.32-.45,7.9-.53,5.61-.17,6.15-3.65,5.9-7.64-.31-5-.44-10.08-1.87-14.77-2-6.49,2.15-15.07,9-17.14,4.51-1.38,8.08-4.5,12.1-6.77,3.86-2.19,6-7.82,3.95-10-4-4.14-1.58-7.73.52-11.16,1.27-2.09,2.36-4,1.92-6.43-1.87-10.42-8.48-19.69-17.24-24.37-5.14-2.75-10.69-4.68-15.49-8.12-2.46-1.76-5.43-2-8.48-2.33-8.31-1-16.46.31-24.63,1.07-12.46,1.15-24.51,3.81-34.44,12.26a8.13,8.13,0,0,1-3,1.65c-7.4,2-10.73,8.14-13.38,14.3-1.66,3.86-.56,8.14,2.87,11.41a28.36,28.36,0,0,0,9.35,5.54,20.26,20.26,0,0,1,13.07,16.22c2.09,12.35-.55,24.74-.34,37.14.09,5.18,2.11,6.15,5.87,7.15,3,.79,5.93-.15,8.87.23C183.59,214.39,196.18,214.46,208.73,215ZM219.84,42.27c.25-4.18-.92-8.18-1.7-12.23a4.11,4.11,0,0,0-3.6-3.58c-7.28-1.33-14.58-2.85-22-1.38-3.63.72-7.18,1.39-10.79.3a3.41,3.41,0,0,0-3.56,1.17c-5.28,5.84-8.91,12.18-8.36,20.66s.81,17-.91,25.32c-1.37,6.62-.45,13.26-.67,19.89-.06,1.54-.17,3.8,2.56,2.9,11.25-3.71,23-1.73,34.43-2.6,7-.53,12.58-4.35,13-11.55C218.87,68.21,219.31,55.24,219.84,42.27ZM296.1,273.62c-.36,5.52-4.41,9.32-2.17,14.68a7.38,7.38,0,0,1-.85,6.26c-2.39,4.14-1.81,9.35-4.76,13.36a2.81,2.81,0,0,0,.14,3.73c1.46,1.24,2.32-.43,3.33-1.13,5.54-3.82,11.83-4.17,18.16-3.49,2.87.32,5.67,2.22,5.69,5.33s-2.24,5-5.71,5.75a40.57,40.57,0,0,0-20.19,10.25c-.73.7-1.74,1.37-1.49,2.42.39,1.59,1.9.9,2.95,1a22.43,22.43,0,0,1,13.36,5.64c5.87,5.2,8.48,12.18,9.1,19.33.45,5.07,2.26,6.15,6.2,5.5,6.66-1.09,14.64,1.8,18.79-7,3.47-7.34,7-14.62,8.08-22.71,2.61-19.71-8.89-33.24-21.27-45.92-5.6-5.74-12.82-9.86-19-15.11-2.79-2.39-4-1.89-4.63,1.23-.66,3.55-2.6,6.8-1.94,11.11C295.9,281.25,298.8,277.12,296.1,273.62ZM587.48,53.35c-.34-4.25.33-9.54-.56-14.87-1.27-7.55-3.83-10.15-11.58-10.31a68,68,0,0,1-10.89-.83C556.68,25.9,549,23.5,540.94,24c-2.81.16-4.21.77-4.4,3.89-.12,2.07.08,5.16-3.25,5.27-4.23.14-4.17,2.63-3.79,5.72.58,4.75,1.79,9.61,1.26,14.25-1,8.52.09,16.71,1.51,25,.64,3.75,2,4.5,5.64,4a159.82,159.82,0,0,1,42.7-.36c2.66.36,3.65-.92,4.51-3.35C587.9,70.54,587.51,62.46,587.48,53.35ZM199.68,468.16c5.47,2.84,7.68,6,7.31,11.36-.29,4.25,3.17,6,8.15,5,5.7-1.19,11.6-1,17.22-2.14,8.23-1.61,16.81-1.31,24.74-4.34,6-2.29,12.09-4,18.24-5.79,5.79-1.66,11.77-3.25,17-6.85,1.63-1.13,1.74-1.88,1.57-3.46q-2.44-23.17-4.78-46.37c-.18-1.76.31-4-2.09-4.49a4.19,4.19,0,0,0-4.3,2,38.12,38.12,0,0,1-14.46,12.51c-4.28,2.16-5.35,5.08-2.85,9.39,1.79,3.09,2.74,6.37.17,9.71-3.92,5.11-8,10.16-11.49,15.53-3,4.51-8.36,7.86-8.8,13.43-.31,4.05-2.27,4.45-4.81,4.14-3.54-.42-6.83-2.49-10.63-1.85-.34.06-1.14-.51-1.13-.78.07-3.36-3.52-3.78-4.68-5.91-1.3-2.38-4.19-4.32-3.31-7.52.31-1.14,1.7-2.75,2.9-2.35,2.54.83,4.79,2.59,5.34,5.36.44,2.2,1.76,2.48,3.18,1.88,1.8-.76.74-2.09.13-3.3a55.19,55.19,0,0,0-10.91-14.73c-7.56-7.32-14.44-8.73-22.44-4.42-5.59,3-10,7.95-10.39,14.18-.26,3.73-.95,7.32-3.07,9.44-3.44,3.44-1.88,5.46.57,7.76,1.86,1.73,3.79,3.44,3.83,6.09,0,2.19,1.28,3.67,2.85,2.86,2.09-1.07,4.84,1.27,6.63-2.48C201.48,477.44,200.83,473.32,199.68,468.16Zm176.91,72.72c.53,5,1,9.69,1.55,14.4.38,3.07,0,4.59-3.92,4.88-8.24.62-16.42,1.77-24.73,1.64-4.78-.07-7.67,3.74-7.16,8.68,1.52,14.81,3,29.63,4.53,44.43.16,1.61.45,4.23,1.34,4.56,2.95,1.08,6.72,1.53,9.2,0,2.63-1.59,2.78-6,1-8.12-3.52-4.21-4.31-9.6-7.28-14-1.16-1.72-3.83-3.82-2.06-6.49,1.06-1.58,1.1-5.34,2.93-4.57,3.42,1.46,7.69.47,10.36,3.28a43.21,43.21,0,0,1,6,8.45c1.09,1.93,3.9,3.6,2,6.51-1.85.34-3-2.95-5.63-.63,3.36,1.35,2.87,4.24,3.71,6.76.72,2.14,5.71.27,7.2,3,3,5.54,7.68,4.52,12.42,3.87,2.32-.31,3.69.21,3.81,3.08.23,5.63.86,11.23,1.38,16.85.11,1.2-.59,3.11,1.31,3.22a3.24,3.24,0,0,0,3.49-2.9,31.09,31.09,0,0,0,.2-3.48c.36-9.53-2.29-18.68-4.46-27.73C391.33,596.41,391,585,381,577.78c-2.81-2-2.23-6-.64-9.21,1.49-3,3.63-4.94,7.21-5.38,6.84-.83,12.52,4.55,13.31,12.38,1.63,16.32,2.8,32.68,4.12,49,.21,2.57-.57,6.6,2.84,6.37,3.67-.25,7.2-2.74,10.74-4.39a5.92,5.92,0,0,0-.51-2.23c-1.25-3.19-2.84-6.27-3.81-9.55-5-17-10.87-33.81-13.47-51.45a13.29,13.29,0,0,0-7.64-10.72c-3.36-1.68-6.25-4.35-9.24-6.71C381.75,544.22,380.44,541.39,376.59,540.88ZM366.31,367.07c-.24-2.57,1.28-3.69,3.3-4.9,2.53-1.51,5.24-3.24,6.91-5.57a4.55,4.55,0,0,1,6.75-1.12c1.7,1.75,1.45,4.78-1.29,6.84a142.51,142.51,0,0,0-11.41,9.53c-1.54,1.43-3.91,2.39-3.55,5.47.88,7.4,1,14.9,2.25,22.23.58,3.47-.26,7.31,2.3,10.5,6,7.48,10.37,16.19,16.72,23.46.81.92.88,2.9,2.68,2.26,1.44-.51,1.27-2.34,1.35-3.47A112.46,112.46,0,0,1,395,414.22c.52-2.23,1.27-4.46,1-6.87-.29-2.73-1.26-4.42-4.34-4.14-3.47.3-6.94.73-10.42.75s-7-1.12-8.09-4.62c-1.18-3.73-1.79-8.09,2-11,4.41-3.4,9.26-6.3,6.56-13.19-.2-.51.74-1.42,1-2.19,1.08-2.79,3.06-5.61,3-8.38-.22-9.77,5.07-17.5,8.76-25.77,4.07-9.1,4-10.45-3.6-16.77-1.75-1.46-4-2.23-5.34-4.32-1-1.58-2.63-1.13-3.54.59a43.29,43.29,0,0,0-2.18,4.43c-1.11,2.82-2.5,2.35-4.38.71-2.72-2.36-2.67-5.57-2.9-8.68-.62-8.11-5-11.82-13.06-10.77-2,.27-3.72-.47-6.32-1.78,1.22,3.73,2,6.53,3.06,9.24,4.36,11.55,7.13,22.95,1,35A44,44,0,0,0,353,357c-.33,1.56-.7,3.71,1.57,2.81,2.57-1,4.84.94,7.22-.24,2.66-1.31,3.66.42,4,2.65C366.12,363.8,366.16,365.44,366.31,367.07ZM603.74,610c5.56-.18,10.86.23,16.14-1,4.09-.95,5-2.34,3.25-6.45-8.74-20.79-17.21-41.71-25.7-62.62-3.34-8.21-3.26-8.25-11.89-8.18-7.89.07-7.9.07-7.32,8,0,.66.2,1.31.27,2q1.65,17.28,3.3,34.57c.89,9.22,1.89,18.44,2.71,27.67.32,3.57,1.53,5,5.58,5.41C594.74,609.9,599.37,609.67,603.74,610ZM215.86,630.31c8-1.42,15.89-3.22,23.92-4.11,3.82-.43,5.29-2.14,6.62-5.29,4.65-11,4.38-22.66,5-34.21.13-2.54-1.39-3.67-4.15-3.65A107.68,107.68,0,0,0,230,584.69c-2.56.42-5.83,1.44-7.51-.77s-3.22-2-5.1-2c-8.94-.07-17.89,0-26.83-.06-2.68,0-2.46,1.54-1.83,3.34,1.8,5.14,3.55,10.28,5.39,15.4,1.18,3.31,1.77,7.75,7,3.74.83-.62,2.66-.28,3.89.07,7,2,9.78,10.3,6,17.12-.8,1.42-3.72,2.33-2,4.44S212.31,630.71,215.86,630.31Zm91.61-374.94a8.57,8.57,0,0,0,2.83,7.15,143.65,143.65,0,0,0,14,12c1.13.87,2.48,2.05,4,.84,3.76-2.89,6,0,7.86,2.37,5,6.23,9.82,12.58,13,20,1.32,3.09,2.23,3.43,5.2,1.13,8.34-6.44,11.67-6.13,19.41-.37.53.39.94,1,1.5,1.3,1.77,1.05,3,1.26,3-1.56-.16-9.17,2.77-17.56,6.76-25.67.56-1.14,1.93-2.4,1.17-3.56-1-1.51-2.67-.55-4.1-.16-12.51,3.45-24.29,1.22-35.27-5.21-8.18-4.78-14.3-11.78-19.23-19.85-2.12-3.46-11.11-6.66-14.76-5.42a2.91,2.91,0,0,0-1.94,2A62.5,62.5,0,0,0,307.47,255.37Zm325.9,167.68c-1.18-13.24-2.3-25.44-3.34-37.64-.22-2.59-2.09-2.5-3.59-2.15-9.67,2.25-19.48,1.62-29.25,1.78-2.45,0-3.72,1-3.59,4,.19,4.17-1.25,8.69-4,11.34-5.66,5.46-6,10.65-1.89,16.81a12.31,12.31,0,0,1,.77,2.36c4.27,10.7,4.27,10.7,16.23,9.75a2.54,2.54,0,0,1,1-.07c7.73,2.6,15.14-1.05,22.74-1.18C632.32,428,634.19,426.06,633.37,423.05ZM178.92,340c-9.61.09-19.26-.49-28.79,1.13-1.66.28-3.95,0-4.81,2s1.05,3.08,2.19,4.07c3.55,3.09,7,6.45,11,8.8,8,4.66,7,13.34,9.78,20.29.36.9-1.34,2.63.45,3.36,1.49.6,1.7-1.28,2.4-2a41.39,41.39,0,0,1,26.28-13.74c6.05-.75,11.27.62,16.67,2.69,1.48.57,3.41,2.54,4.91-.66,2.86-6.1,3.94-12.6,5-19.13.53-3.19-1.06-5.18-4.13-5.7a51.62,51.62,0,0,0-9.33-1.13C200,340.11,189.47,340,178.92,340Zm419.7,102.29c3.37,10.54,7.72,18.89,11.25,27.58,4.93,12.14,9.94,24.24,14.91,36.36,1.06,2.58,2.63,5.62,5.64,3.59a13.39,13.39,0,0,1,8.75-2.23c1.74.07,1.13-1.12,1.06-2.37-.71-12.24-2.75-24.35-2.87-36.66-.07-8.09-1.6-16.16-2.3-24.25-.17-1.95-.84-2.78-2.71-2.5-7.94,1.16-15.94.13-23.89.75C605.56,442.77,602.86,444.93,598.62,442.28Zm-596.86,22a34.93,34.93,0,0,0,0,3.8C4,486.09,6.17,504.17,8.72,522.19c.49,3.43-1.9,11.09,6.9,7.13.22-.1,1,1.31,1.38,1.23,3.25-.8,3.75,4.21,6.62,3.29,4.94-1.59,9.54-3.69,11.49-9.3,3.12-8.94,5.6-11.24-8.08-11.3-3.56,0-8.42-.73-5.32,5.72a3,3,0,0,1,0,2c-1,3.22-4.08,3.68-6.59,4.51-1.53.51-2.57-1.1-2.57-2.89,0-6.95-.06-13.9.06-20.85,0-1.58.42-3.88,2.72-3s5.05.84,6,3.81c.82,2.58-.5,4-2.48,5.27-.9.56-1.68,1.38-1.1,2.42.34.63,1.44,1.41,2,1.27,4.74-1.29,9.4,1,14.29-.12,3.87-.86,4.62-2.57,4.3-5.7-1-9.54-1.83-19.07-5-28.29-4.35-12.84-10.75-19.46-25.41-18.4C3.42,459.24.51,459.67,1.76,464.23ZM518.62,791c.46,1.33.84,2.69,1.39,4,1.83,4.22,2.58,8.9,5.44,12.69.78,1,1.18,2.54,2.91,2.2s1.94-1.81,2.31-3a26,26,0,0,0,.82-12.32A336.17,336.17,0,0,0,522.24,757c-2.93-9.83-5.74-19.72-10.06-29.06-.53-1.15-1.08-3.4-2.86-2.83-1.48.46-2.36,2.28-2.45,4a14.36,14.36,0,0,0,.27,3.46c.79,4.23,1.65,8.44,2.48,12.66q4.17,21.32,8.33,42.63A63.7,63.7,0,0,1,513.29,774a277.68,277.68,0,0,0-8.06-30.7c-.45-1.39-.32-3.32-2.4-3.13s-2.71,2.21-2.69,3.7a67.42,67.42,0,0,0,1.1,10.3q5.2,29.55,10.58,59.07a48.81,48.81,0,0,0,4.43,14.21c.77,1.45,1.59,3.6,3.37,3.19,1.94-.45,2.89-2.54,2.86-4.66-.05-3.32-.13-6.65-.33-10C521.63,807.63,518.76,799.63,518.62,791Zm13.87-480.51c-2.54-.53-3.55.33-3.4,2.65a5.15,5.15,0,0,0,2.72,4.45c1.72.95,3.22.42,4.6-.62.71-.54.92-2.8,2.25-.76,5,7.65,14.26,9.61,20.55,15.53a3.69,3.69,0,0,0,1.34.63,149.83,149.83,0,0,0,25.18,6.37c1.16.21,2.89.79,3.27-.16,2.58-6.56,9.4-7.84,14-11.78,3.62-3.07,4.63-8,4.48-12.17-.13-3.63-5.18-1.34-7.66-2.87a10.23,10.23,0,0,0-2.83-.93c-5.94-1.56-11.93-3.33-18.11-2.51C563.49,310.33,547.88,307.32,532.49,310.46ZM453.17,443.74c1.43,3.27,4.95,1.32,6.52,2.79s2.1,3.57,4.79,1c1.27-1.22,4.6.49,5.54-2.61.58-1.93,1.38-3.55,3.68-4.25,1.76-.54,1.25-2.47,1.3-3.93,0-1.31-.76-1.65-1.91-1.71a55.26,55.26,0,0,1-22.74-6.11c-1.89-1-4.71-2.14-6.38,0s-1.72,4.92,0,7.82c10,16.81,19.72,33.77,29.56,50.67,3.17,5.44,6.49,10.8,9.53,16.31a6.77,6.77,0,0,0,7.6,3.4c2.61-.64,1.18-4.11.95-6.14-.54-4.74-1.81-9.39-2.61-14.1A219.15,219.15,0,0,0,479.07,449c-.76-2.11-1.9-2.48-4.29-2.7-3-.28-2.89,1.33-3.47,2.91-.52,1.38-.72,3.26-2.66,3.1-3.1-.26-7,5.25-9.33-1.16-.05-.15-.61-.15-.93-.18C454,450.58,453.67,447.22,453.17,443.74Zm93.7-113.64c.74,6.09,2,11.64,1.92,17.18-.07,5,1.85,5.45,5.78,4.55,4.24-1,6.68.78,8,5s3.42,8.26,5.06,12.42c.81,2.06,1.31,3.74,4.36,3.53a4.69,4.69,0,0,1,4.53,3.9c.37,3.07-2.89,1.77-4.62,2.87,2.17,5.2,4.36,10.39,6.5,15.59,1.11,2.71,2.07,2.3,3.65.21a18.32,18.32,0,0,0,3.5-15.89c-.33-1.47-1.17-3.13.07-4.23,2.25-2,1.8-4.47,1.88-6.92.23-6.9-.91-13.82.44-20.75.37-1.9.49-5.28-3-5.12-4.39.19-8.65-.87-12.75-1.73-6.93-1.45-14.43-2.06-19.94-7.57A10.94,10.94,0,0,0,546.87,330.1ZM482.46,732.65c-.6,3.34-1.43,5.89-1.45,8.44-.15,19.78-.27,39.57.83,59.33.38,6.8.68,13.62,1.45,20.38.57,5.07.44,10.35,3,15,.73,1.35,1,3.4,3.31,3.16,2.56-.26,2.51-2.56,2.76-4.16a60.73,60.73,0,0,0,.86-10.91c-.73-21.06-1.22-42.12-3.05-63.14C489.3,751.24,489.2,741.68,482.46,732.65ZM132.09,500.94c-6.81,0-8.69,1.94-8,8,1.65,13.45,3.33,26.89,4.89,40.34,1.44,12.52,1.39,12.41,13.94,13.67,2.87.29,3.17-.84,2.92-3-1.31-11.33-2.7-22.65-3.94-34-.57-5.17-1.39-10.4-1.12-15.55C141.17,504.15,138.65,500.91,132.09,500.94ZM287.5,614.21c-1.07,2.69.23,3,2.54,2.57,5.71-1.14,11.06-3.44,16.57-5.21,1.75-.57,2.47-1.8,2.25-3.86-1.66-14.94-3.19-29.91-4.75-44.86-.18-1.73-.27-3-2.63-1.5-3.6,2.32-7.55,4-11.17,6.42-2,1.29-2.85,2.26-2.84,4.5C287.52,586.25,287.5,600.23,287.5,614.21Zm200.71-20.43c-9.2-19.8-20.69-38.29-31.68-57.15a27.21,27.21,0,0,1-5,12.45c-4.76,6.83-4.57,13.22-.31,19.79C459.93,582.24,472.93,589.44,488.21,593.78ZM135.06,580c-3.17-.28-2.67,2-2.49,3.67,1.34,12.27,2.78,24.54,4.14,36.81.25,2.26,1.07,3.17,3.6,3.72,6,1.3,12.19,1.07,18,3.09,1,.34,2.24,1.41,3.2.25s-.16-2.16-.49-3.22c-3.94-12.62-8-25.21-10.08-38.32-.33-2.15-1.51-3.15-3.3-2.73-3.32.79-6,.41-8.47-2.17C138.33,580.24,136.41,580.36,135.06,580ZM495.71,739.1a12.18,12.18,0,0,0-2.75,7.29c.22,8.11.78,16.21,1.33,24.3.85,12.37,1.67,24.74,2.74,37.09.84,9.69.93,19.51,4.2,28.84.82,2.35,1.72,5.34,4.73,4.79,2.72-.5,3-3.22,3.2-6,.47-7.87-.94-15.59-1.88-23.28-2.45-20-5.33-39.95-7.37-60C499.47,747.79,499.67,742.82,495.71,739.1Zm-25.8,55.38a113.89,113.89,0,0,0,3.26,25.26c.18.83.28,1.84,1.16,2a2.1,2.1,0,0,0,2.28-1.55,31.48,31.48,0,0,0,1.32-4.27c2.3-9.29.83-18.83,1.81-28.25.86-8.21-.28-16.65-.71-25-.42-8.12-.95-16.23-1.65-24.33-.24-2.83-1.41-6.63-4-6.77-3.11-.17-.62,3.91-1.95,5.71a.83.83,0,0,0-.17.46c-1,10.87-3.88,21.65-2.85,32.58C469.2,779.14,468.6,788,469.91,794.48ZM595.15,361.12c-.64,2.7,0,5.09-.29,7.29-.66,4.84,3,5.95,5.64,5.34,6.63-1.55,13.17,1.09,19.7-.44,2.71-.63,6.34,1.12,8.19-.74,2.14-2.16-.29-5.59-.26-8.54.09-8.3-.15-8.26-8.34-11.13-1-.36-1.74-1.79-2.75-2-3.46-.78-6.35-6.37-10.64-1.28-1.13,1.34-2.34.16-2.19-1.19.4-3.81-2.72-1.13-4-2.12s-3,1.27-3,2.41C597.1,353.12,593.4,356.88,595.15,361.12Zm-328.4,33.69c.49,6.84-2.75,11.47-7.3,15.3-1.47,1.25-4.31,1-2.7,4.42,1.48,3.14,3.37,3.15,6,2,12.18-5.66,17.24-16.08,14.81-28.79-1-5.53-2.11-12.82-11-11.92-1.38.14-1.14-1.24-1.54-2.08-3.78-7.8-12.72-10.32-18.92-5.38a1.79,1.79,0,0,1-2.25,0c-1.54-.88-2.6-.41-2.79,1.38s1.14,1.9,2.57,2.09c6.41.85,12.46,2.34,16.7,8C263.76,384.46,267.6,388.85,266.75,394.81ZM548.6,128c5.38,1.2,10.82,2.05,16.2,0,2.93-1.11,5.17-.85,6.8,2,.74,1.29,1.36,2.87,3.33,2.15,4.67-1.72,9.51-3.17,13.17-6.81,1.9-1.89,2.66-4.28,1.51-6.82-2.09-4.61-5.93-8.36-10.46-9.15-7-1.23-13.84-3.6-21.32-3.13-10.68.68-20.54,2.91-29.14,9.49-4,3-3.7,6.24.71,8.33a43.71,43.71,0,0,0,12.3,4.06c-1.08-3.44-4.35-5.67-3.29-9.64,1.6-6,4.39-8.22,12.18-8.39,7-.16,13.78,1.31,20.59,2.82,4,.89,7.05,2,7,6.69-.07,5.14-4.36,4.52-7.5,5.4C563.46,127,555.78,124.71,548.6,128ZM84.8,497.15c-7,4.64-10.53,9.54-9.17,18.21s.27,17.85.31,26.79c0,1.58-.59,3.42,1.3,4.47,2.9,1.6,5.72,3.38,8.73,4.74,4.38,2,5.36,1.41,4.92-3.4-.82-9-2-18-3.12-27.05C86.83,513.11,86.55,505.22,84.8,497.15ZM509.22,385.87c-2.87.11-3.59,1.91-2.71,4.61.77,2.36,2,4.6,2.56,7,1.87,7.81,8.66,13.73,8.53,22.31a3.18,3.18,0,0,0,1.91,2.73c3,1.68,6.37,1.7,9.58,2.39,1.95.42,2-1.27,1.81-2.64-1.84-10.25-2.32-20.64-3.38-31-.14-1.32.05-2.75-1.8-3ZM566,148.09c.36-4.54-.39-5.6-4-4.7-5.35,1.36-9.73-.06-14-3.22-3.3-2.45-6.35-.92-6.23,3.19.11,3.64.12,7.25,0,10.89-.51,11.65,5.55,14.83,16,13.5,6.21-.78,8.5-3.82,8.9-10.38A31.87,31.87,0,0,0,566,148.09ZM669.32,413.4c2.9-2,4.8-5.36,7.09-6.83,6.07-3.92,6.25-8.12,3.9-13.91-.77-1.88-1-4.33,1.07-6,1.81-1.43,3.21-.38,4.88.67,3,1.85,4.4.78,4.78-2.78s-2.21-5.05-3.55-7.51c-1.67-3.07-2.78-6.41-6.65-5.91-3.15.4-6.89,1.51-8.91,3.67-1.87,2-6.06,2.78-5.74,5.19.89,6.89-.84,14.22,3.15,20.71,1.07,1.75,1.09,4.14,1.59,6.23C666.07,408.07,668.78,410.91,669.32,413.4ZM256.75,311.74a12.39,12.39,0,0,1,.37,1.72c.6,8.6,5.25,16.45,4.74,25.27a1.93,1.93,0,0,0,1.71,2.1c1.29.2,1.78-.95,2-1.82.94-3.69,3.75-6.14,5.66-9.18,3.28-5.22,7.89-10,7.78-16.81a32.58,32.58,0,0,1,1.53-11.22c.6-1.77.19-3.46-1.08-3.82-1.5-.44-1.68,1.59-2.19,2.76a53.43,53.43,0,0,0-2.25,4.95c-.49,1.54-.86,2-2.73,1.56-2.9-.69-6.35-3.56-8.79,1-.09.18-1,.16-1.32-.06C256.92,304.62,258.12,310,256.75,311.74Zm262.06,62.88c1.57-2,3.23-1.4,4.74-1.15.9.16,1.94,1.11,2.27-.55.23-1.15-.31-2.07-1.57-2-8.33.59-13.94-5.16-20.43-8.8-2.15-1.21-2.57-3-2.68-6-.17-5,2.88-10.17-.84-15.16-2.39-3.19-3.65-3.69-6-.49-4.07,5.44-4.78,16.5-.85,22.18C500.63,373.1,512,376,523.49,378.31c1.31.26,2.3-.05,2.39-1.67s-.88-1.69-2.22-1.72S520.75,375.75,518.81,374.62Zm-389-275.57c6.49,0,6.12,0,5.93-6.72a30.09,30.09,0,0,1,6.05-19.5c2.9-3.8,7.27-2.33,11.06-2.76,1.86-.21,3.26-.3,3.1-2.72-.13-2-.84-3.28-2.92-3.27a36.17,36.17,0,0,0-8.39.66c-3.61.87-7.35.71-7.52,5.93,0,1.43-1.91,2-3.23,1.51-2.2-.76-3,0-3.32,2.09a2.6,2.6,0,0,1-2.46,2.2c-6.82.07-5.3,4.54-4.19,8.32s1.6,7.47,0,11.17c-1.13,2.62,0,3.27,2.4,3.1C127.5,99,128.67,99.05,129.83,99.05Zm-48,365.21c-2.36-13.57-3.73-26.87-4.76-40.18-.35-4.63-1.82-6.07-5.94-5.82-.79.05-1.91,0-2.28.53-.84,1.08.42,1.72,1,2.37,3.27,3.44,3.44,7,1.54,11.36-2.62,6.05-6.16,11.76-5.25,19.09.72,5.82,3.85,10.65,9.71,11.63Zm60.6-6.82c-.09-.68.6-2.47-1.07-2.39-2,.09-5.1-2-5.5-.63-1.29,4.38-4.72,2.6-7.19,3.31-1.63.47-2.13,2.95-4.63,1.95-5.91-2.36-5.85-2.23-5,4.24.23,1.86,1.15,2.66,2.36,3.89,3.67,3.72,8,6.92,10.43,11.76,1.64,3.24,5,3.13,7.84,2.85,2.55-.25,1.3-2.9,1.26-4.38C140.7,471.23,141.54,464.52,142.4,457.44Zm475-203c.61,5.37,1,10.31,1.78,15.2.28,1.86,1.16,3.77,3.67,2,4.48-3.11,8.93-6.26,13.4-9.39,1.54-1.09,2.24-2.13.9-4.08a57.56,57.56,0,0,1-7.37-13.94c-1-2.8-5.1-3.83-6.43-1.66C621,246.42,618.06,250.19,617.38,254.48ZM534.21,467.19c-.59-6.93-1.25-13.85-1.76-20.78-.27-3.71-1.42-5.51-5.78-6-3.92-.4-3.18.65-2.69,3.21,1.19,6.23,3.29,12.2,4.46,18.49,2.85,15.3,4.31,30.76,6.56,46.13.28,1.9-1.06,5.49,2,5.08,2.55-.34,1.12-3.84.93-5.91C536.69,494,536.29,480.53,534.21,467.19ZM297.75,364.08c5.75,0,8.43-2.14,8.06-6.2a23.82,23.82,0,0,0-4.54-11.79c-3.1-4.31-11.93-5.18-15.89-1.55-1.86,1.72-2.52,3.75-.31,5.92,2.83,2.77,5.46,5.87,6.84,9.53C293.14,363.22,294.87,364.56,297.75,364.08ZM648.23,344.8c-10.2-9.06-21.3-9.89-32.91-8.61-1.57.17-2.5,1.55-3.63,2.51-2.23,1.89-1.69,3.35.65,4.49,2.67,1.29,5.43,2.39,8,3.77s5,4.73,7.65-.09c.49-.88,2.79-1.21,4.17-1C637.26,346.46,642.07,344.7,648.23,344.8ZM542.61,561.92c-.36,3.09.69,6.74-1.27,9.07-4,4.7-3.73,10-3.89,15.5,0,1.62.32,3.58-1.24,4.61-3.93,2.58-2.81,6.81-2.57,10,.2,2.68,4.3,1,6.51,2a10,10,0,0,0,2.47.13c3.67.42,4.55-1.44,4.16-4.71C545.34,586.32,544,574.12,542.61,561.92ZM235.06,70.26c-1.2.55-4.29-2.13-5.47,2.32-.78,3,.59,3.91,2.33,4.43,6.28,1.89,7,6.76,7.12,12.15a17.14,17.14,0,0,0,2,7.6,2,2,0,0,0,1.93,1.29,1,1,0,0,0,1-1.34c-1.39-5.73,2.69-6.79,6.68-7.49,2-.35,3.32-.87,3.28-2.85-.05-2.46-1.71-2.08-3.56-1.88-3.33.36-5-2.14-6.53-4.57-1.75-2.75,1.1-3.36,2.26-4.66,2-2.26,1.25-3.88-1.3-4.18C241.86,70.73,239,69.41,235.06,70.26ZM500,294.07c-.08,4.73.65,9.06,3.81,12.5,1.65,1.8,3.89,3.72,6.3,1.37,4.76-4.64,5.39-16.28,1-21.2-2.4-2.69-6.07-2.86-9.56-2.39a1.69,1.69,0,0,0-1.46,2.21C501.12,289.19,499.55,291.71,500,294.07ZM97.08,600.15C96,591.51,95,583.07,94,574.63a1.75,1.75,0,0,0-.67-1.18c-2.91-1.78-8.89.85-10,4.34C80.5,586.67,87.11,597.77,97.08,600.15ZM125.32,344c5.16,1,6.4-2,5.58-6.32a33.7,33.7,0,0,1,.22-12.23c.63-3.55.11-6.89-.13-10.33-.11-1.59-.23-3.18-2.24-3.22a2.73,2.73,0,0,0-2.73,2.44c-1.83,8.37-4.85,16.51-5,25.19C120.91,342.26,120.23,345.82,125.32,344ZM618.51,630.94c.24-1-1.23-1.66-3.09-2.5-4.45-2-9.53,0-13.91-2.41-.74-.4-1.6.25-2,1a2.08,2.08,0,0,0,1,3c2.15,1.11,3,3,3.7,5,1.24,3.41,3.22,6.54,3.54,10.29a3.73,3.73,0,0,0,2.86,3.15,1.82,1.82,0,0,0,2.39-1.24C614.67,642.27,617.38,637.63,618.51,630.94ZM500,254.53c2-3.75-2.56-6.36-3.14-10.08-.33-2.14-.72-4-3.11-4.37s-4.48-.47-6.09,2c-7.13,11.12-7,7.55,2.54,14.42a29.88,29.88,0,0,0,4.36,2.34C500,261.52,500,261.51,500,254.53ZM251.86,327.16a37,37,0,0,0-3.28-12.5c-.34-.75-.87-1.6-1.84-1.1a2.1,2.1,0,0,0-.75,1.61c0,3.11-.38,6.2,1.15,9.23,2,3.86,1.9,7.71-1.84,10.73a5,5,0,0,0-2,5.26,49.22,49.22,0,0,0,3.07,9.35c1.12,2.33,4,2.49,6.18,2.3s1.38-2.6,1.49-4.11a9,9,0,0,0-.17-3.95A30.57,30.57,0,0,1,251.86,327.16Zm-5.94-31.75c0,2.16,0,3.67,3.28,3.25s6.2-2.15,9.44-2.72c2.89-.5,3.82-2.23,2.71-5-1.85-4.66-3.64-9.35-5.52-14-.85-2.11-1.74-1.15-2.72,0C248.63,282.3,247.37,288.88,245.92,295.41ZM409,642.26c-.3,3.55,2.37,7.15,4.49,7.22,4.12.13,8.6,3.17,12.63-.32a3.65,3.65,0,0,0,1.32-3.09c-.4-4.47-3.07-8.06-5.54-11.39-1.43-1.93-3.52,1.48-5.53,1.82a20.22,20.22,0,0,1-2.46.19C410.42,636.86,409,638.89,409,642.26Zm-150.84-247c.1-3.73-7.07-12.9-10.36-13.43-2.27-.37-4.19-.2-4.65,2.93-.67,4.6,3.68,15.22,7.55,17.37a3.28,3.28,0,0,0,3.74-.44A9.72,9.72,0,0,0,258.19,395.28Zm315.75,92.16c1,9.8,1.45,19.14,3.1,28.26.68,3.76,5,1.64,7.65,1.43s2.35-2.1,1.56-4c-2.74-6.56-5.41-13.14-8.2-19.67C577.19,491.46,577.06,488.92,573.94,487.44ZM87.54,638.25c-.05-4.83-.67-8.92-4.31-12.1-1.29-1.14-1.74-3.54-4.1-2.64s-1.55,3-1.57,4.78c-.11,6.84,3.7,12.64,5.08,19.09a1.61,1.61,0,0,0,1.75,1.43c.92-.1,1.35-.84,1.49-1.73C86.38,644,87.83,641.05,87.54,638.25ZM83,66.23c-2.16-.49-2,4.78-4.92,1.3-.48-.57-1.5.91-1.22,1.54,1.42,3.21,3,6.31-2.31,7.39a3.12,3.12,0,0,0,.22,1.33c1.29,2.06,2.28,5.43,4.91,4.94C83,82.12,87,83,89.45,80.35c1.35-1.41,1.43-4-1.66-5-.91-.28-3.3-.45-2.48-1.53C88.58,69.54,81.94,69.18,83,66.23Zm522.14.12c-1.65-.61-3.2-.5-3.26,1.58-.07,2.4-.32,5.17,2.84,6.12,3.64,1.08,7.2,2.25,10.31,4.57,1.48,1.1,3.43.84,3-1.25-.69-3.38.2-6.57.15-9.85,0-.83-.17-1.79-1.19-1.89s-1.19.79-1.12,1.67c.1,1.33-.67,1.77-1.85,1.62a1.34,1.34,0,0,1-1.27-1.73c.62-3.28-1.22-2.14-2.86-1.66S606.87,66.94,605.14,66.35ZM37.55,609.91c-3.13.17-6.13,1.3-9.33,1.08-2.77-.18-7.22-.7-7.47,2.15-.35,3.87,4.47,2.64,7,3.62,4.85,1.87,10.67-1,15.17,3.1.59.53,1.9.15,2-1.3C45.2,616.46,39.61,609.93,37.55,609.91ZM622.93,304.09c-2.37,6.07-4,10.86-6.13,15.47-1,2.26-3.07,4.65-1.61,6.81,1.63,2.43,4.88.79,7.4,1.1,2,.24,3-1.1,2.36-2.72C622.38,318.43,623.66,311.75,622.93,304.09Zm20,243.54c.79-7.27-.56-12.94-.76-18.66-.15-4.07-2.22-4.58-5.44-3.7-1.08.29-2.12.73-3.38,1.17C636.45,533.13,638.35,540.12,642.91,547.63ZM283.61,375.46c1.9-7.36-.33-12.36-5.66-16.22-1.09-.79-1.89-2-3.39-1.57-1.8.5-1.3,2.08-1.31,3.33C273.22,368.21,279,371.09,283.61,375.46ZM542.78,555.3c-1-9.27-2-17.81-3-26.33-.13-1.08-1.27-1.42-2.36-1.26a1.59,1.59,0,0,0-1.31,2.22c1.46,5.39.68,10.87.54,16.28C536.51,550.42,538.12,553,542.78,555.3ZM99.53,627c-.8.55-1.52.8-1.55,1.11-.74,7-1.47,14.06-2,21.11-.14,1.79,1,2.74,2.92,2.18s4.17-.45,3.62-3.49C101.28,641.16,101.54,634.18,99.53,627ZM19.9,384.54c7.59,1.59,13.1,6.1,18.91,10.28-5.18-4.81-8.33-11-12.38-16.55-2.88-3.93-3-4-8-2.09C23.94,379.69,24.11,380.43,19.9,384.54ZM33.42,649.92c-1.1-3.11-1.48-6-3-8-1.67-2.25-3.72-6.14-6.66-5.06s-1,4.86-.71,7.5a20.52,20.52,0,0,1,.16,2.48c0,1.4.54,2.09,2,2.19C27.69,649.22,30.11,649.56,33.42,649.92ZM128,438.86c-.83,1.83-2.62.72-3.52,1.68s-1.5,2.34-.19,2.95c2.58,1.22,4.17-1.44,6.09-2.41,1.16-.58.73-2.43-.48-3.82-3.53-4.06-8.36-1.89-12.52-2.83-1.38-.31-1.6,1.45-1.38,2.63.31,1.61.79,3.18,1.28,5.07C120.5,439.52,123.55,436.94,128,438.86Zm309.12-160c-.8,5.54-.77,10.44.89,15.26.3.88.06,2.23,1.41,2.27.83,0,1.2-.92,1.68-1.62C445.52,288.39,445.12,286.5,437.11,278.84Zm85.21,74.54c.46-2.72-.11-4.42-2.9-4.28-3,.14-7.07,1.09-7.18,3.75-.18,4,4.39,5.44,7.59,5.85C524.93,359.37,519.69,354.18,522.32,353.38ZM317.2,221.6c-2.79,4.14-3.89,7.8-3.39,11.84s3.74,2.16,5.88,2.46c1.8.26,2.64-1.07,1.85-2.47C319.59,230,319.35,225.89,317.2,221.6ZM313.31,650c-.55-4.66-1-8.86-1.53-13-.1-.85-.29-1.74-1.35-1.67a2.37,2.37,0,0,0-2.15,1.74C305.94,643.43,306.61,645.38,313.31,650ZM532.62,219.36c1.47-9.28-.48-13.49-6.15-14.65-1.37-.28-2.6-1-3.25.8a2.27,2.27,0,0,0,1.48,2.82C529.32,210.31,530.37,214.77,532.62,219.36ZM292.82,643.14c-2.2.9-6.29-1.12-6.91,2.93-.38,2.45,2.36,3.08,4.7,3.08,3,0,6-.56,6.58-3.74C297.62,642.94,294.86,643.32,292.82,643.14ZM143.13,448c.29-2.93.28-5.79-2.13-6.59-3.07-1-1.17,2.73-2.55,3.64-.13.09-.23.24-.37.33-1.46.95-3,2-1.54,3.93s3.5,3.08,5.59,2.53C144.05,451.35,142.9,449,143.13,448ZM878.18,855.3a1.2,1.2,0,0,1,.81,1.57c-.78,2.88,1.65,3.7,3.14,3.41,2.42-.47.47-2.6.55-4,.26-4.33-1.1-5.75-5.12-2.94-.88.62-2.34.43-3.62.62.55,2,1.07,3.95,1.6,5.89,1.41-.55,1.15-1.48,1.28-2.24C877,856.66,876.93,855.58,878.18,855.3ZM598.28,240c1.68,0,3.73,0,3.23-2.43-.38-1.82-1-4.61-3-4.64-2.47,0-2.88,2.94-3.27,4.88S596.68,240,598.28,240ZM893.62,853.37c-1.87,3.2-1.87,3.2-3.8.26-1.78,6.94-1.15,8,5.31,8C893.43,859.1,894.59,856.18,893.62,853.37ZM141.42,434c-1.95,1.19-4.45,1-6.92,1-.84,0-1.77.07-1.73,1.22s.93,1.22,1.8,1.25a67.07,67.07,0,0,1,7.38.26c1.66.23,3.19.71,3.14-1.6C145,434.12,143.28,434.15,141.42,434ZM397.55,644.11c-1.67.43-3.57.66-3.49,3.23.06,1.87,1,2.64,2.79,2.68,2,.05,3.19-.59,3.14-2.8C400,645.58,399.68,644.21,397.55,644.11ZM358.28,196.2c7.64,2.55,10.55,2.44,14.67,0Zm28.13,197.66c-.53-1.73-1.26-3.12-3.4-2.91-1.76.17-2,1.36-2.09,2.8-.15,2.26,1.27,2.26,2.87,2.21S386.44,395.64,386.41,393.86ZM872.24,861c1-4,.63-6.85-3.14-8.22C866.06,857,870.76,858.06,872.24,861Zm13.67-9c-.94,3.33-1.58,5.19-2,7.1-.33,1.59.31,2.19,2.14,2.37,2.15.21,2.33-.77,2-2.2C887.63,857.23,886.91,855.27,885.91,852Zm-837-205.18c-1.6,0-3.12.42-3.4,2.11s1.32,2,2.64,2c1.51.07,3.15,0,3.34-2C51.67,647.24,50.4,646.8,48.92,646.81Zm-6.5-247.35c2.15,3.25,4.91,6,6.81,9.47C50.2,403.29,45.59,401.92,42.42,399.46Z" transform="translate(-1 -1)"/><path d="M708,894c-2.38-6.81-2.18-14-2.83-21-1.82-19.65-2.7-39.39-4.32-59.07-.53-6.4-1.5-12.78-2-19.21-.19-2.33.29-2.74,2.43-2.94,11.79-1,23.57-2.25,35.35-3.45,2.86-.29,4.18.53,4.39,3.73,1.22,18,2.62,36.06,4,54.08,1,13.2,1.92,26.43,3.38,39.59.42,3.84-1.11,4.07-3.92,4.33-11.08,1-22.16,2.16-33.23,3.29-.44.05-.84.45-1.26.69Z" transform="translate(-1 -1)"/><path d="M419,894c-1.32-14.34-2.55-28.69-4-43-.59-5.75-1.82-11.43-1.8-17.25,0-.81,0-1.63-1-2-2.94-1.2-2.93-1.23-.37-3.53,1.07-.95.66-2.14.5-3.25-.77-5.15-.29-10.53-3.21-15.59,2.64,2.54,5.33,1.36,7.94,1.22,5.44-.3,11.46.94,16.16-1s8.71.11,13-.4c2.63-.32,5.27-.09,7.92-.6,5.57-1.07,7.13-.13,7.49,5.42.57,8.78,1.54,17.5,2.46,26.24,1.36,13,2.65,26,3.73,39,.42,4.94,1.65,9.82,1.21,14.83Z" transform="translate(-1 -1)"/><path d="M594,894c-.86-11.55-1.69-23.1-2.79-34.63-1.32-14-3.48-28-3.72-42.06-.07-4.14.16-8.46-.93-12.37-1.37-5,1.54-5.87,4.74-5.72,4.5.21,7.6-.75,8.63-6.16,1.54,6.25,5.73,5.29,9.92,4.84,5.11-.53,10.28-.63,15.4-1.1,3.28-.31,4.47,1.32,4.73,4.23,1.06,12,2.43,24.05,3.14,36.1.82,13.89,2.92,27.64,4,41.5.4,5.11.59,10.24.87,15.37Z" transform="translate(-1 -1)"/><path d="M651,894c-1.26-13.18-2.55-26.36-3.76-39.54-1.1-11.85-2.11-23.7-3.16-35.56-.53-5.94-.65-11.95-1.76-17.78-.82-4.33,1.42-5.59,4.53-5.9,11-1.07,22.1-1.82,33.15-2.71,2.68-.22,3.86.86,4.09,3.66,1.58,19.29,3,38.6,5.09,57.82,1.29,11.69,1.74,23.44,3.2,35.1A8.26,8.26,0,0,1,692,894Z" transform="translate(-1 -1)"/><path d="M359,894c-1-10-2-20.11-3.05-30.15-1.57-14.79-3.14-29.58-4.91-44.35-.44-3.68.88-5.18,4.38-5.43,13.9-1,27.8-1.75,41.73-1.88,2.87,0,2.62,1.51,2.89,3.41,2.31,16.23,3,32.63,5.08,48.86,1.29,9.83,2.08,19.68,2.88,29.54Z" transform="translate(-1 -1)"/><path d="M537,894q-2.52-26.64-5-53.28c-.35-3.66-.47-7.3,1-10.81,3.16-7.66,6.32-15.32,9.39-23,1.26-3.15,3.28-4.49,6.81-4.57,5.78-.13,11.55-.88,17.32-1.36,2.76-.23,4.38.07,4.66,3.77,1,13,2.42,26,3.9,38.95,1.81,15.79,3,31.63,4.12,47.48A13.16,13.16,0,0,0,580,894Z" transform="translate(-1 -1)"/><path d="M303,894c-1.87-20.41-5-40.7-6.25-61.18a85.84,85.84,0,0,0-1.52-10.3c-.51-2.76.41-4.17,3.25-4.27,12.54-.46,24.94-3,37.58-2.43,3.57.16,4.77,1.58,4.85,4.59.43,15.57,2.94,31,4.27,46.45C346,875.9,347.1,885,348,894Z" transform="translate(-1 -1)"/><path d="M245,894l-4.86-43.31c-.88-7.88-1.76-15.77-2.59-23.65-.32-3,.15-4.66,4.1-4.89,11.2-.65,22.37-2,33.55-3.11,3.54-.36,5.41.53,5.82,4.57,2.26,22.53,4.77,45,7.22,67.54A19.35,19.35,0,0,0,289,894Z" transform="translate(-1 -1)"/><path d="M188,894c-2.56-6.08-2-12.65-2.87-19-2-14.57-3.37-29.2-5.09-43.8-.51-4.34,1.44-6.8,6-6.13,7.81,1.15,15.39-.65,23-1.59,13-1.62,13.49-1.85,15.09,10.94,1.9,15.25,3.32,30.55,5,45.82.51,4.6,1.28,9.16,1.93,13.74Z" transform="translate(-1 -1)"/><path d="M133,894c-2.24-20.54-4.54-41.08-6.69-61.64-.48-4.6,3.71-4,6-3.9,11.23.27,22.4-.79,33.5-1.94,4.62-.48,4.7,1.87,5,4.53.93,7.55,1.51,15.14,2.37,22.71,1.35,12,2.84,23.88,4.19,35.83A22.82,22.82,0,0,1,177,894Z" transform="translate(-1 -1)"/><path d="M17,894c-2.81-16-3.52-32.24-5.73-48.31-.36-2.62-.88-5.46-.27-7.93.92-3.66,4.54-1.54,6.84-2,7.42-1.44,15-1,22.54-.95a73,73,0,0,0,10.84-1c6.16-.93,7-.6,7.7,5.54,1.3,10.64,2.35,21.31,3.53,32,.83,7.55,2.74,15,2.55,22.63Z" transform="translate(-1 -1)"/><path d="M76,894q-3.45-27.33-6.88-54.65c-.67-5.43.69-7.15,8-7.19,9.91-.06,19.77-.8,29.65-1.28,3.14-.15,4.62,1,5,4Q115,863.44,118.2,892a8.93,8.93,0,0,1-.2,2Z" transform="translate(-1 -1)"/><path d="M481,894c-1.17-14.34-3.51-28.59-3.46-43,0-1.39-.94-3.38,1-3.91s2.12,1.75,3,2.82a32.41,32.41,0,0,1,2.33,3.82c3.42,5.58,6.61,6.14,11.67,2,1.52-1.24,2.46-3,4.82-.75,5.19,4.89,9.33,4.21,13.32-1.62.8-1.18,1-2.88,2.75-3.49,2.4,1.87,2.11,4.83,2.43,7.24,1.4,10.82,2.46,21.68,3.55,32.54A22.94,22.94,0,0,1,522,894Z" transform="translate(-1 -1)"/><path d="M1,839q1.5,12,3,24.06Q6,878.54,8,894c-7,0-7,0-7-7Z" transform="translate(-1 -1)"/><path d="M899,840c-1.45-1.56-.73-3.49-.75-5.23-.26-24.37-.44-48.74-.7-73.12a54.45,54.45,0,0,0-.62-5.93c-.22-1.76-.25-3.38,2.07-3.72Z" transform="translate(-1 -1)"/><path d="M899,847c-6.25-1.74-12.74-1.32-19.11-1.9-4.89-.45-9.67-1.68-15.6-1,2.83-3.53,5.69-2.47,8-2.22,8.9,1,17.76,2.61,26.76,1.07Z" transform="translate(-1 -1)"/><path d="M559,1a10.51,10.51,0,0,0,4.44,5.08c.69.38,1.53,1,.95,1.93a2.53,2.53,0,0,1-1.6.94c-4.38.71-9-3.09-9.79-7.95Z" transform="translate(-1 -1)"/><path d="M531,1c.93,1.54,2.1,3,.19,4.73a3.4,3.4,0,0,1-4.45.38c-2.25-1.39-1.6-3.24-.74-5.11Z" transform="translate(-1 -1)"/><path d="M613.46,43.41c-1.35.22-3,.5-4.58.75a2,2,0,0,1-2.46-1.2c-.46-1.26.54-1.77,1.45-2.17,1.81-.81,3.59-2,5.48-2.26,7.54-1,14.27-4.41,20.9-7.62,3.88-1.87,7.91-4.5,10.64-8.22a8,8,0,0,0,1.52-7c-1-4.41,1.13-6.29,5.45-5.51a1.94,1.94,0,0,1,.92.36c2.14,1.94,5.9-2.8,6.88,1.11.85,3.38-1.47,6.77-3.22,9.76a31.28,31.28,0,0,1-17.05,14.3c-7.44,2.56-14.32,6.67-22.27,7.81A6.17,6.17,0,0,1,613.46,43.41Z" transform="translate(-1 -1)"/><path d="M716.39,109.2c3.13-2.67,4.19-6.45,9.42-5,4.46,1.27,5.31,4,3.81,6.78-1,1.83-5,1.76-7.19.53C720.72,110.58,718.89,110.24,716.39,109.2Z" transform="translate(-1 -1)"/><path d="M725,83.25c2.1.91,4.89.93,4.93,4a4.18,4.18,0,0,1-4.16,4.17c-2.54.19-3.48-2.18-3.81-4.39S723,83.81,725,83.25Z" transform="translate(-1 -1)"/><path d="M727.56,139.89c.71.25,2.13-.27,2.3,1.06.21,1.69-1.06,1.11-2,1.06a1.51,1.51,0,0,0-1.79,1.78c.14,1.45,1.35,1.31,2.25,1,1.5-.46,1.66.32,1.65,1.43,0,.87-.17,1.62-1.22,1.83a3.42,3.42,0,0,1-3.45-1.48c-1-1.25-2.35-2.54-1.1-4.37C725,141.08,725.33,139.22,727.56,139.89Z" transform="translate(-1 -1)"/><path d="M730,269.62c-2.94.54-5.29.78-6.73-2-.54-1.06-.85-2.31.44-3.1a1.46,1.46,0,0,1,2.33,1C726.63,267.36,729,267.49,730,269.62Z" transform="translate(-1 -1)"/><path d="M727.1,115.92c.94.41,2.64-1.06,2.78.94s-1.39,2.52-3,2.38c-1.43-.12-3.58-.2-3.43-2C723.61,115.07,725.87,116.41,727.1,115.92Z" transform="translate(-1 -1)"/><path d="M725.56,9.86c-1.34-.16-2.22-1.39-2-1.5,2.14-.87,4-1.88,4.58-4.34.53.59,1.63,1.43,1.5,1.73A6.74,6.74,0,0,1,725.56,9.86Z" transform="translate(-1 -1)"/><path d="M794.28,405.77c-.85-3.56-.89-6.95,1.92-10.8C797.23,399.58,794,402.4,794.28,405.77Z" transform="translate(-1 -1)"/><path d="M406,716c0,8.67,1.86,17.08,3.56,25.51a23.16,23.16,0,0,1-.12,9.16c-2.71-3.8-2-8.39-3-12.53-1.48-6.66-3.1-13.5-1.3-20.44a6.6,6.6,0,0,1,1-1.58Z" transform="translate(-1 -1)"/><path d="M406.1,716.09c-.74-3.15-1.86-6.32,1-10.11,0,3.85,1.95,7-1.12,10Z" transform="translate(-1 -1)"/><path d="M37.91,757.92c1.35.94,2.65,1.46,3.3,2.43s.38,2.18.53,3.3c-.25-.24-.58-.74-.74-.69-3.37,1-3.41,1.07-3.44-1.37A36,36,0,0,1,37.91,757.92Z" transform="translate(-1 -1)"/><path d="M79.47,812.42c5.42-1.1,5.42-1.1,5.37,6.68C80.91,818.55,80.25,815.45,79.47,812.42Z" transform="translate(-1 -1)"/><path d="M290.74,893.28c-.63-3.21-2.19-5.38-1.74-8.09.1-.64.22-1.41,1.06-1.42.4,0,1.15.34,1.17.58C291.45,887,293.32,889.8,290.74,893.28Z" transform="translate(-1 -1)"/><path d="M35.7,35.07c-.55,2.82-1.83,3.37-2.71,4.31-1.79,1.92-2.16,4.21.68,5.56,2.23,1.07,3.3,3.19,5,4.61,3.24,2.69,1.59,4.37-1.16,6.65,2.5.13,4.9.19,3.76,3.53-.22.64.78,2.14,2.3,2.1,1.2,0,2.41.09,2.3,1.81,0,.65,0,1.45-.76,1.62-1.3.29-2.15-.5-2.9-1.47-1.27-1.66-3.32-2.1-5-3.1-1.07-.63-2.34-1.1-3.22-.12-3.13,3.54-7.45,3.75-11.62,4.59-1.24.25-2.1.65-3-.55C16.93,61.2,19,54,23,52.81c3.09-.89,4.48-2.46,3.82-5.66s1.71-5.7,1.34-8.74c-.18-1.48.91-1.5,1.91-1.57C31.82,36.73,33.66,37.11,35.7,35.07Z" transform="translate(-1 -1)"/><path d="M12.47,270.41c.4-1.7-1-4.28,1.52-5.11,2.07-.69,3.6,1.16,5,2.51,1,.91,1.39,2.25.36,3-2.15,1.65-2.18,6-4.59,5.85C11.92,276.51,12.6,272.91,12.47,270.41Z" transform="translate(-1 -1)"/><path d="M25.08,144.55c-2.82.9-4.41-.16-4.93-2.37A3.44,3.44,0,0,1,22.77,138c2.34-.66,5.08-1.47,7.05.49,1.67,1.66.34,3.29-1.17,4.57-2-.41-.34-4.74-3.5-3.47C22.28,140.75,23.65,142.84,25.08,144.55Z" transform="translate(-1 -1)"/><path d="M12.44,199.14c.49-1.5-.89-4.18,2.23-3.95,2,.15,4.16.85,4.22,3.38.06,2.91-2.32,4.1-4.59,4.29C11.59,203.08,13,200.48,12.44,199.14Z" transform="translate(-1 -1)"/><path d="M56.68,56.6a12.06,12.06,0,0,1-7.64,3c-.93,0-1.92.93-2.12-.69-.14-1.14-.23-2.34,1.66-2.18A34.9,34.9,0,0,0,56.68,56.6Z" transform="translate(-1 -1)"/><path d="M46.82,74.87c-.29-2.46-2.07-5.2.49-6.62,1.69-.94,2.4,1.58,2.89,2.61C51.74,74.11,47.58,73.11,46.82,74.87Z" transform="translate(-1 -1)"/><path d="M393.55,105q-21.89,0-43.77,0c-1,0-2.75.57-2.69-1.2.06-1.54,1.72-1.29,2.81-1.26q21.84.6,43.67,1.27Z" transform="translate(-1 -1)"/><path d="M857.62,843.39c-9.73-.62-19.45-1.39-29.19-1.78-6.57-.27-12.8-2.87-19.45-2.5-1.42.08-2.88-.73-4.34-1-2.33-.36-1.92-2.18-2.14-3.69-.44,1.41-.64,3-2.36,3.52-2.11.61-2.61-.92-2.84-2.46-.5-3.27-1.09-6.55-1.27-9.84-.72-13.25-1.46-26.5-1.91-39.76-.87-25.57-1.56-51.15-2.29-76.73-.15-5.44-.13-4.3,5.21-4.08,3,.13,6.4-.5,9.75-.17,11.19,1.12,22.42,1.87,33.61,2.93,18,1.71,35.88,3.63,53.84,5.25,2.65.24,3.73,1.49,3.76,3.62.12,10.1,0,20.2,0,30.29h-1.24q0-10.84,0-21.7c0-8,0-8.23-7.62-9.13-8-1-16.19-1-24.15-2.29-10.94-1.8-22-2.42-33-3.56-9.37-1-18.64-3-28.15-2.94-3,0-4.1.77-4,3.93q1.38,31.08,2.46,62.18c.22,6.55,0,13.12,0,19.49-1.46.41-1.4-.33-1.41-.69-.36-12.14-.39-24.29-1.12-36.41-.67-11.23-1.36-22.44-1.86-33.76a79.81,79.81,0,0,0-.49,8.3c.74,16.25,1.15,32.51,1.6,48.78.46,16.54,2.4,33,1.85,49.61,0,.43.34.87,1.09,2.67,1.19-12.18-1.62-23.07.13-34,1.42.76,1,2,1,3,.29,10.46.6,20.92.8,31.39.07,4,2.2,5.5,5.9,5.73,12.41.76,24.84,1.29,37.18,2.62,3.48.37,7.34.37,10.76,1.69C857.79,842.41,857.7,842.9,857.62,843.39Z" transform="translate(-1 -1)"/><path d="M861.51,798.23c3.47,1.92,3.73,6,5.67,9,1.54-1,1-2.24.89-3.26-.11-1.28-.9-2.74,1.26-3,1.56-.2,2.45.54,2.94,2,1.53,4.68,3.14,9.34,4.73,14l1.24-.09c0-3.67-.08-7.34,0-11,.05-1.55-.33-3.84,2-3.9,2.84-.07,2.16,2.45,2.18,4.12q.1,13.47,0,27c0,1.23.41,3-1.28,3.4-2,.51-2.44-1.33-2.92-2.69a132.25,132.25,0,0,0-5.82-14.93c0,4.36,0,8.72,0,13.08,0,1.63.19,3.74-2.28,3.57-2-.13-1.79-2-1.93-3.51-.2-1.92.47-3.93-.79-6.38-.81,2-1.4,3.69-2.11,5.27-1.8,4-4.64,4.54-7.62,1.29-4.09-4.44-4.61-10.22-4.75-15.77-.12-4.89-.08-9.94,1.85-14.67,1.27-3.1,2.95-5.25,6.73-3.42-3.82,5.09-3.5,9.78,1.68,16.09C861.61,808.57,864.18,803.21,861.51,798.23ZM861,826.48c1.88-4.67-1.57-6.74-2.72-11.05C857,820.41,858.26,823.2,861,826.48Z" transform="translate(-1 -1)"/><path d="M867,761.34c-3.55.6-3.9,2.69-3.86,5.23.09,6.06,0,12.11,0,18.86C860,783.9,860,782,860,780c0-3.67,0-7.33,0-11,0-2.62,0-5-1.69-7.52-2.29-3.36-.68-5.59,3.37-5.54,7.25.09,7.81.59,8.29,8,.11,1.8.21,3.56,2.55,3.38s1.24-2.25,1.54-3.53c.53-2.25-1.23-6.35,1.41-6.4,2.81-.06,1.68,4.18,1.79,6.39.34,7.52.13,15.07.13,23.57-4.39-3-3-6.41-3.32-9.31-.2-1.59,1-4.07-2.2-4-2.79.1-1.66,2.35-1.82,3.77s.11,3-.08,4.49c-.15,1.09.91,3.15-1.29,3-1.46-.09-1.69-1.73-1.68-3.17C867,775.32,867,768.4,867,761.34Z" transform="translate(-1 -1)"/><path d="M825.84,810.07c1.33-3.77.95-8,3.38-11.39s5.59-3.69,8.06-.42a20.55,20.55,0,0,1,2.59,5.35,2.56,2.56,0,0,1-1.24,3c-1.35.94-2,.2-2.8-.87-2.23-3.18-3.51-1.21-4.52,1-2.41,5.24-.72,10.35.68,15.44a3.13,3.13,0,0,0,2.79,2.49c1.27.14,1.61-.81,2-1.76.73-1.61.54-2.84-1.16-3.62-2.83-1.29-1.87-3.94-1.32-5.63.68-2.13,3.23-1.25,4.86-1,3.12.46,2.22,3.7,2.21,5.27A24.48,24.48,0,0,1,839,829.36c-2.14,4-5.51,4.3-8.22.7a21.3,21.3,0,0,1-3.9-11.64C826.66,815.62,827,812.78,825.84,810.07Z" transform="translate(-1 -1)"/><path d="M808.22,808.19c0-3.16-.08-6.33,0-9.49,0-1.5-1.31-3.58,1-4.33a6.37,6.37,0,0,1,6.9,1.64c3,3.18,4.09,16.33,1.77,20.21-.26.42-.54,1.12-.88,1.16-6.41.75-4.25,5.65-4.59,9.35-.11,1.18.57,3.06-1.58,2.94-1.74-.1-1.56-1.75-1.81-3.07C808,820.5,808.23,814.34,808.22,808.19Zm5.19,2.51c2.91-2.23,1.64-4.84,1.1-7.24-.15-.67-1.51-1.17-2-.53-1.65,1.94,0,4,.1,6C812.59,809.51,813.07,810,813.41,810.7Z" transform="translate(-1 -1)"/><path d="M851.44,731.75c-1.45,3.57.95,6.72.34,10-.3,1.61-.25,3.91-2.29,3.8s-1.18-2.43-1.19-3.71c-.06-7.3.06-14.59-.65-21.87-.13-1.31-.58-3.39,1.58-3.58,1.59-.14,1.84,1.66,2.4,2.81,1.75,3.62,1.85,7.95,5.18,12.21,0-4.51,0-7.93,0-11.34,0-1.1-.16-2.6,1.53-2.58S860,718.85,860,720c0,8,0,16,0,23.94,0,.9.42,2.2-.91,2.49s-2.12-.9-2.5-2c-1.17-3.26-2.21-6.58-3.26-9.88A4.18,4.18,0,0,0,851.44,731.75Z" transform="translate(-1 -1)"/><path d="M848.06,833.17c-3.62.58-4.71-1.26-4.81-4.54-.3-9.26.55-18.55-.66-27.8-.2-1.48,0-3.41,2.1-3.12s5.12-.54,6,2.11c.56,1.66,2,4.08-.9,5.69-4.1,2.31-4.07,3.29-.27,6.52,2.12,1.81,2,5.63-.23,7-3.11,1.86-3.2,5.16.3,6.79,3.18,1.48,2.16,3.81,2,5.87C851.46,833.87,849.35,832.93,848.06,833.17Z" transform="translate(-1 -1)"/><path d="M824.14,728.71c.09,4.23-.18,7.71-1.54,11a5.86,5.86,0,0,1-6.34,3.78c-2.52-.41-2-3.11-2.29-5.27-1.06-7.1-.63-14.21-.71-21.31,0-1.43-.47-3.16,1.31-4s3.66,0,5,1.29C823.72,718.45,824.14,723.9,824.14,728.71ZM821,727.6a8.75,8.75,0,0,0-1.42-6.06c-.48-.64-.79-1.52-1.82-1.31s-.82,1.23-1,2c-.55,3.12,1.39,6.13.42,9.3-.5,1.63-.63,3.83,1.44,3.91,1.53.06,2.46-1.93,2.34-3.8C820.92,730.63,821,729.64,821,727.6Z" transform="translate(-1 -1)"/><path d="M838.2,731.17c.18,3.26.09,7.05-2,10.51-1.89,3.18-5.45,3.36-7.61.36-3.78-5.25-4.28-20.25-.82-25.63,2-3.14,4.39-3.36,6.76-.42C838,720.26,838.36,725.37,838.2,731.17Zm-3.13-1.45c-.47-2.81.73-8.21-3.47-8.09-4,.12-2.9,5.29-2.67,8.63.2,2.83.36,6.76,3.65,6.59S834.79,732.7,835.07,729.72Z" transform="translate(-1 -1)"/><path d="M849.05,770.38c.41,3-.58,6.21-1.61,9.33-.84,2.58-2.75,4.08-5.69,3.6s-2.53-2.67-2.78-4.89a169.47,169.47,0,0,1-.7-20.27c0-1.94-.4-4.27,2.31-4.8,2.4-.46,4.22,1,5.31,2.82C848.39,760.39,849.24,765.1,849.05,770.38Zm-7.24-9.9c0,4.43,0,8.86,0,13.3,0,1,.34,2.13,1.45,2.35,1.27.26,1.5-.86,1.82-1.83C846.74,769.21,846.37,764.5,841.81,760.48Z" transform="translate(-1 -1)"/><path d="M874.11,732.48c.2,4.93-.13,8.88-1.89,12.58s-4.3,3.92-7,1.05c-4.1-4.4-4.89-21.61-1.2-26.27,2.42-3.06,6-2.4,7.81,1.49S874.59,729.14,874.11,732.48Zm-9.12-.73a30.32,30.32,0,0,0,0,3.35c.28,2.46.76,5.76,3.34,5.84,2.85.1,2.49-3.24,2.66-5.47a12.32,12.32,0,0,0,.1-3.42c-.54-2.54.25-6.76-3.24-6.7C864.18,725.41,865.26,729.5,865,731.75Z" transform="translate(-1 -1)"/><path d="M891,826.7c.44-2-1.11-3.12-2.37-4.46-4-4.23-4.89-12.73-2-17.65,1-1.72,2.28-3.08,4.37-2.33,1.6.58,3,2.11,2.75,3.72-.21,1.28.42,3.41-3,3.55-3.18.13-1.65,4.06-.15,5.25,5.32,4.22,4.62,9.87,4.44,15.48a13.28,13.28,0,0,1-.72,3.36c-.79,2.68-2.27,4.81-5.34,3.35-2.65-1.27-4.5-3.4-3.09-6.8.42-1,.21-2.51,2.05-1.12C890.87,831.35,891,829.09,891,826.7Z" transform="translate(-1 -1)"/><path d="M829.05,764c0-2.49,0-5,0-7.46,0-1.72-.59-3.88,2.31-4,2-.09,4.16-.2,5,2.24.67,2.08.67,3.78-2.26,4.38-2.61.53-1.74,2.59-.64,3.8,2.46,2.7,4.3,4.9.22,8-1.38,1-1.35,3.86,1,4.92,2.8,1.23,2.37,3.52,1.75,5.46-.54,1.68-2.56,1.14-4,1-2.65-.19-2.16-2.3-2.45-4.07A86.59,86.59,0,0,1,829.05,764Z" transform="translate(-1 -1)"/><path d="M820,760.38c0-2,.07-4,0-6s.72-2.74,2.63-2.59,4.24-.62,4.75,2.27c.28,1.61.69,3.34-1.71,3.93-4.07,1-2.3,3.51-.81,5,2.52,2.59,3.33,4.49.1,7.22-1.3,1.1-2.12,3.77.63,4.69,3.25,1.08,2,3.54,1.79,5.32-.31,2.39-2.62,1.42-4.12,1.43-3,0-2.09-2.4-2.21-4C820.58,771.91,820.28,766.14,820,760.38Z" transform="translate(-1 -1)"/><path d="M879.07,772.43c0-3.83,0-7.67,0-11.5,0-1.89.53-3.33,2.74-3.33,1.47,0,3.26-.27,3.75,1.62.43,1.65,1.35,3.8-1,4.73-3,1.16-2.21,2.7-.86,4.55,1.81,2.47,4.72,4.68-.52,7.13-1.72.8-.63,4,1.35,5.42s2.93,2.91,1.92,5.07-3,.57-4.47.59c-2.44,0-2.89-1.77-2.88-3.79V772.43Z" transform="translate(-1 -1)"/><path d="M825,817.92c0,4.38,0,7.7,0,11,0,.88.43,2.2-1,2.41s-2.1-.77-2.73-1.79a.9.9,0,0,1-.12-.48q-.54-15.87-1-31.73c0-1.11.61-2.07,1.75-2,2,.15,2.23,1.85,2.18,3.32C823.8,805.48,826,812.15,825,817.92Z" transform="translate(-1 -1)"/><path d="M813.66,750.35c2.18.75,4.57.52,5.19,3,.49,1.93.29,3.54-2.11,4.27s-2,2.66-.81,4c2.57,2.82,3.29,5,.33,8.36-1.34,1.53-.36,5.09-.39,7.73,0,1.37,0,2.93-1.84,2.83-1.5-.08-1.49-1.51-1.53-2.69-.23-8-.5-15.93-.67-23.9C811.79,752.38,811.45,750.41,813.66,750.35Z" transform="translate(-1 -1)"/><path d="M877.55,736.56c-.54-4,1.32-8.37-2.32-12-.9-.91-1.16-3.85.62-5a6,6,0,0,1,5.76-.07c1.51.77,2.19,3.23,1.32,4.4-3.58,4.85-1.38,10.25-1.95,15.36-.22,2,0,4-.06,6,0,1.07.39,2.62-1.31,2.73-1.85.12-2-1.45-2-2.79C877.51,742.32,877.55,739.49,877.55,736.56Z" transform="translate(-1 -1)"/><path d="M702.54,684.47c.32,1.59,1,4.11-1.85,4.27s-2.55-2.65-2.49-4.43c.07-2.13-.88-5.82,1.65-6C703,678.13,702.3,681.78,702.54,684.47Z" transform="translate(-1 -1)"/><path d="M809.15,241.79a47.62,47.62,0,0,1-46.78-37.24c-.64-2.71-.46-5.62-.55-8.44-.05-1.6-.4-3.54,2.23-3.53,2.14,0,2.9,1.39,3.09,3.2a49.82,49.82,0,0,0,4.36,16.74c9,18.63,31.75,28.79,52,21,7.4-2.85,13.26-7.29,18.74-12.7,1.51-1.49,3.15-5.11,5.92-2.22s-.89,4.41-2.37,6C834.81,236.15,822.64,241.78,809.15,241.79Z" transform="translate(-1 -1)"/><path d="M801,155.67c.25,6.51-2.78,10.94-8.63,13.56a6.8,6.8,0,0,1-8.48-2c-4.86-5.84-1.31-18.41,5.79-21.26C795.92,143.43,801,147.77,801,155.67Z" transform="translate(-1 -1)"/><path d="M843.4,185.92c-4.59,0-7.72-2.86-8.28-8a16.19,16.19,0,0,1,5.39-13.79c4-3.83,9.93-2.66,12.6,2.33s1.17,10-1.22,14.61A8.44,8.44,0,0,1,843.4,185.92Z" transform="translate(-1 -1)"/><path d="M533.06,284.17c4.7-1.12,2.05-6.83,6.49-7.9.75-.18-.45-1.67-1.27-2.16-10.37-6.21-7.88-25.59,4.8-29.08,3.65-1,6.07-4.15,9.68-5.05,5.28-1.32,9.92,1.21,13.63,4a41,41,0,0,1,10.83,12.15c4.35,7.59,1,15.86-7.44,19.62-4.93,2.21-10,3.68-15.81,2.67-6.23-1.1-12,1-16.73,5.47C536.31,284.74,535.43,285.29,533.06,284.17Zm24.15-13.3c3.46-.93,7.2-1.69,10.75-3a5.29,5.29,0,0,0,3.68-4.36c.15-2.43-1.9-4.25-3.72-4.84-5.62-1.83-10.72-5.14-16.67-6-4.58-.64-7.55,2.1-9.75,5.43-1.51,2.28-.68,5,1.43,6.73C547,268.15,552.06,269.35,557.21,270.87Z" transform="translate(-1 -1)"/><path d="M178.76,314.91c-7.2,1.11-13.72-.66-18.57-7.92-3.5-5.25-2.36-10.36-.9-15.36,2.56-8.75,10.2-12.61,17.68-16.25,5.94-2.89,12.32-6.45,18.88-4.2,8.63,2.95,19,3.34,23.45,14,2.7,6.5,1.08,14.47-4.63,18.6C204.18,311.35,192.7,315.81,178.76,314.91Zm6.41-10.84c11.57,0,20.9-3.92,25.1-10.29.93-1.41,2.32-2.76,1-4.43s-3-4.74-5.19-4c-3.85,1.26-6.38-.79-9.33-2.07-9.46-4.09-21.94,1.29-26.42,11.29a6.12,6.12,0,0,0,4.93,8.56C178.69,303.49,182.09,304.6,185.17,304.07Z" transform="translate(-1 -1)"/><path d="M663.81,107.85c-5.12,2.85-10.54,2-15.85,2.13-1.32,0-3.12.2-3.48-1.24-.59-2.37,1.57-4.06,2.4-6.1.51-1.24,2.32-1.15,3.07-.45C653.86,105.79,658.82,106.63,663.81,107.85Z" transform="translate(-1 -1)"/><path d="M194.72,534.28c.46-3.37-.42-6.61,3-8a6.15,6.15,0,0,1,6.5,1.32c4.11,3.42,2.61,15.22-2.37,17-2.08.74-5.05,1-4.74-2.79C197.39,538.74,192,537.32,194.72,534.28Z" transform="translate(-1 -1)"/><path d="M189.12,204.94c-1,.25-1.25,1.31-1.81,2.1-.81,1.16-.8,3.47-2.55,3.28s-1.34-2.34-1.54-3.73c-.13-.93-.5-1.87-1.45-1.4-2.67,1.33-4.45-1.48-6.34-1.4-6.55.3-7.13-3.67-7-8.44.32-8.35-2.87-16.33-2.52-24.66.06-1.32-.25-3.15.48-3.85,4.22-4,1.14-5.29-2.1-7.33a38.06,38.06,0,0,1-12.41-13.27c-3.84-6.54-1.94-15.13,4.19-20,4.08-3.26,9.35-4.61,12.94-8.84,1.19-1.4,4.76-.59,7.13-1.21a119.84,119.84,0,0,1,20.48-3.6c4-.31,7.88-.6,11.31,2.42a11.91,11.91,0,0,0,5.48,2.15c5.5,1.07,10,3.87,14.77,6.73a17.5,17.5,0,0,1,7.31,8c7.09,13.86,5.27,24.51-7.79,33.13-4.18,2.75-8.43,5.69-13.83,6.08-2.9.21-3.92,2.75-4.53,5.27a157.3,157.3,0,0,0-3.45,19.5c-.45,4.08-2,7.38-6.48,8.15A2.72,2.72,0,0,0,197,206c-.69,2.12.56,5.2-4.27,4.46C188.16,209.79,191.34,206.37,189.12,204.94Zm9.61-80.09c-5.22-.62-10.24,1-15.39,1.2a26.78,26.78,0,0,0-16.45,6.07c-5.32,4.37-5.94,8.57-1.31,13.85a37.85,37.85,0,0,0,13.14,9.66c1.34.6,3,2.61,4.3.58s0-3.59-1.9-4.93c-5.87-4-6.11-12.1-.09-15.7,4.81-2.88,10.57-4.62,16.13-3.36s11.85.45,17.15,4.31c2.22,1.62,6.4-.29,7.73-2.55s-2.2-3.11-4-4.18C212.12,126.2,205.56,124.93,198.73,124.85Zm30.49,18.89c.37-1.4-.91-3.42-2.19-5.38s-3.07-2-4.86-1.16-5.41.17-5.21,2.71c.49,6.22-3.44,9.58-6.88,13.6-2,2.28-2.54,7.41-6,1.19a1.52,1.52,0,0,0-1.31-.53c-4.28,1-8.63.08-12.93.52a2.44,2.44,0,0,0-2.31,2.22,2.35,2.35,0,0,0,1.74,2.7,8.07,8.07,0,0,0,3.42.35c4.63-.57,10-1,13.82-.32,5.14.89,8.69-.66,12.24-2.54C223.63,154.53,229,151.75,229.22,143.74Zm-53.58,22.58a53.41,53.41,0,0,1,2,10.53c.45,3.64,1,7.29.55,10.9-.59,4.92,2.86,5,5.93,5.23,3.68.3,4.28-2.3,4.17-5.28a30.32,30.32,0,0,0-.08-5c-.84-4.12.64-8.53-.35-12.21-1.28-4.72-7.49-1.84-10.76-4.36C176.87,166,176.44,166.23,175.64,166.32Z" transform="translate(-1 -1)"/><path d="M300.55,286.66c2.59,4.29.53,8.63,0,13Z" transform="translate(-1 -1)"/><path d="M215.88,460c-.85,2.72-3.48,5.07-6.75,6.72-2.94,1.49-5.62.87-8.29-1.2a9.26,9.26,0,0,1-3.82-8.62c.37-3.62,5.79-5.22,13.45-4.37C214.19,452.93,216,455.05,215.88,460Z" transform="translate(-1 -1)"/><path d="M264.26,461.76c1.29.47,3.69-.91,3.56,2-.07,1.52-1.19,2.6-2.72,2.08-1.7-.57-4.62.21-4.8-2.22S262.72,462.11,264.26,461.76Z" transform="translate(-1 -1)"/><path d="M12.54,488.94c-.19-3.39.24-5.7,3.71-5.8,4.26-.14,4.82,3.56,4.95,6.07.21,3.89-3.71,4.62-6.47,4.59C11,493.75,13.31,490.15,12.54,488.94Z" transform="translate(-1 -1)"/><path d="M21.76,473.16c.15,3.75-2.59,4.65-5.5,4.91-3.21.28-3.8-2.08-3.69-4.63.09-2.35.29-5.24,3.43-4.95C18.49,468.72,22,468.89,21.76,473.16Z" transform="translate(-1 -1)"/><path d="M468.33,386.52c-.67,1.45.95,4-1.53,4.06-2.17.09-1.72-4.05-4.57-3.85,3-.77.39-5.44,3.19-5.48C468.49,381.22,467.85,384.49,468.33,386.52Z" transform="translate(-1 -1)"/></g></g></svg>