<svg xmlns="http://www.w3.org/2000/svg" viewBox="0 0 893.47 893"><title>ratkiller</title><g id="Layer_2" data-name="Layer 2"><g id="Layer_1-2" data-name="Layer 1"><path d="M639,894c-8-9.33-10.45-19.87-8.31-32,1.78-10.14,4.47-20,7.07-29.91,3.53-13.46-1.06-25.48-7.74-37-3.21-5.52-5.94-11.31-9-16.91-.64-1.17,2.41-3.35-.62-3.31-2.1,0-1.5,2.6-2,4.25-3,9.57,4.65,16.14,6.39,24.32,1.5,7.08,4.51,14.06,1.7,21.41-1.81,4.74-4.21,9.33-10,10.06-6.45.82-11-2.89-13.91-7.92-4.28-7.38-6.4-15.56-7.81-24.05-2.59-15.72,3-29.75,8-44q1.15-3.29,2.06-6.65a1.65,1.65,0,0,0-.84-2.11,1.89,1.89,0,0,0-2.52,1c-5.19,13-13,25.12-15.35,39.23-1.12,6.64,1.61,12.78,3.94,18.81a62.24,62.24,0,0,1,3,34.76,11.1,11.1,0,0,1-4.78,7.27c-13,9.35-22.83,6.6-28.29-7.43-3.5-9-4.22-18.37.27-28,3.36-7.2,8.51-13.31,11.14-20.94,3.74-10.86,2.82-21.1-1.61-31.45a95,95,0,0,1-7-23.28c-.41-2.78-.33-5.63-.46-8.44-.08-1.59.65-3.89-1.56-4.16-2.36-.29-3.16,1.77-3.5,3.91a38.44,38.44,0,0,0,.2,13.86c2.29,11.36,5.13,22.58,4.48,34.43-.74,13.75-10.64,23.58-24.47,23.12-8.5-.28-20.48-11-22.63-20-4.44-18.75.39-35.15,12.78-49.42,5.1-5.86,7.51-12.82,9.94-19.85,7.44-21.52,1.44-40.77-10.26-59-.15-.23-.58-.27-1.24-.57-1.07.72,3,6.91-3,2.74,2.44,10,4.7,19.52,7.13,29,1.14,4.44.59,8.77.24,13.25-.62,7.92-4.43,14.19-9.14,20a23.69,23.69,0,0,1-16.52,9.19c-6.43.57-10.92-3.08-14-8.6-5.64-10.23-5.9-21.27-5.07-32.52,1.66-22.29,8.21-43.7,11.64-65.65,2.16-13.78.53-27.47-6.6-40-.82-1.44-1.68-2.87-3.32-2.09a3.23,3.23,0,0,0-1.74,4.05c1.54,6.58,2.17,13.32,4.33,19.82,1.79,5.39,1.16,11-.05,16.67-3.12,14.47-9.51,27.93-12.69,42.38-1.76,8-5.87,15.19-8.2,23-5.58,18.59-6.29,36.83,4.33,54.26,3.52,5.79,8.73,8.58,14.84,9.94,12.46,2.77,16.78,10,12,21.56-4.84,11.83-1.25,21.66,6.21,30.89a39.33,39.33,0,0,0,21.79,13.76c9,2.24,13.81,8.8,15.73,17.47s3.55,17.22,8.69,24.67c2,2.88,3.91,5.8,7,7.64,1,.57,2.58.82,1.6,2.36-.79,1.24-2.18.66-3.1-.07a48.42,48.42,0,0,1-9-8.45,35.64,35.64,0,0,1-6.95-19.93c-.72-11.78-6.53-18.64-18.12-21.82-14.68-4-24.51-13.64-28.09-28.82a30.66,30.66,0,0,1,.88-17.17,37.55,37.55,0,0,0,1.76-6.74c.93-6.52-.73-9.1-7.26-10.5-13.48-2.9-21.24-11.11-25.64-24.14-6.28-18.64-2.81-36,3.3-53.85,5.31-15.52,10.05-31.3,15.14-46.9,4.35-13.33,1.3-25.39-.87-38.12s-5.42-25.66-1.4-38.87a42.87,42.87,0,0,1,8.21-14.58,11.39,11.39,0,0,0,2.68-9.29c-.56-3.47-1.11-6.85-.05-10.34.63-2.08-1-3.4-2.32-4.67a52.15,52.15,0,0,1-15.33-31.46A30.12,30.12,0,0,0,466.75,465c-7.48-7.74-16.25-14.49-20.68-24.67a93.46,93.46,0,0,1-6.62-23.39c-.84-5.54-2.84-10.88-2.63-16.63.08-2-1.95-2.53-3.28-2.13-2.37.7-5.49,2.2-4.36,5,2.59,6.46-1.49,10.46-4.65,14.67s-8.38,4.35-13.06,5.31a6.27,6.27,0,0,1-4.84-.79c-2.28-1.63-4-1.51-6.68-.3-4.32,2-8.08-1.5-9.18-4.58-1.92-5.37-6.25-8.43-9.24-12.69-2-2.83-3.88-5.71-4-10.64,3.76,5.35,6.72,9.74,9.89,14,1,1.36,2.25,3.48,4.4,2.37,2.77-1.43.57-3.54.05-5.2a9.26,9.26,0,0,0-5.26-5.68,2.5,2.5,0,0,1-1.25-3.74c1-1.91,1.8,0,2.67.44,2.18,1,13.24-2.55,13.94-4.67s-2-3.43-2-5.79c0-1.6-1.81-.23-2.82-.11-3,.38-5.69,1.89-8.79,1.7-2.28-.14-3.48.7-2.74,3.28.29,1,.64,2.34-.85,3-2.12-.9-.78-2.89-1.13-4.67l-7.88,4.46c2-4.11,4.54-5.87,6.88-7.61-6,0-11.91-.16-17.83.05s-11.69-9.89-12.18-15.78c-.09-1.16.26-2.44-.12-3.47-1.41-3.87,2.48-9.43-.8-11.42C343,350,337,341,326.57,338c-10.93-3.16-22.05-4.15-33.29-4.56-2.09-.07-3.66-.68-4.21-2.74-1-3.58-3.44-4.48-6.77-4.19-3.62.32-4.81-4.83-8.92-3.84s-7.21-2.45-10.95-3.44c-3.28-.86-6.51,1-9.66-1,1.69-2.93,3.2-4.14,7.39-3.37,4.64.85,9.78-.75,14.64-1.65,1.63-.29-1.07-2.46,1-3.49,1.23.73,1.95,4,4.47,1.67s9.47.86,7.56-6.51c-.42-1.62,0-3,1.94-3.4a3,3,0,0,1,3.77,2.46c1.27,7.62,6.83,8,13,8.79C325,315,343.7,313.89,362,317.55c2.62.52,5.12,1,7.2-1.62,1-1.29,3.24-2.28,4.41-.74,2.62,3.44,6.35,4.88,9.89,6.85,1.84,1,2.32,3.47,2.32,5.77s-.47,4.93.5,7.64c2.05-1.08,2.09-2.83,2.3-4.63.32-2.83,2.06-5,4.85-4.57,3.81.63,7.62.42,11.4.85,2,.22,4.28.78,4.39,3.26.08,2.14-2.12,2.18-3.67,2.68-7.51,2.48-7.5,2.49-14.52,13.8,3.68-.4,5.76-2.33,7.35-5.21,1.38-2.52,1.92-6.2,5.65-6.28s4.49,3.31,5.92,5.93a18.28,18.28,0,0,0,8.27,8.31,15.19,15.19,0,0,1,8.57,11c.81,3.52,1.73,7.06,5.73,8.77,2.1.9,3,.63,3.75-1.41a12.16,12.16,0,0,1,2.56-4.8c3-3.07,7.06-3.14,9.18.58,2,3.48,3.2,3.37,5.5.42,2.52-3.25,8.71-2.86,11.76.46,4.42,4.83,6.68,5.24,12.25,1.7,2.45-1.55,3.79-.95,5.08,1.37,1.39,2.48,3.3,4.25,6.46,2.88,1.54-.66,2.53.24,3.58,1.06,2.42,1.9,4.58,3.25,7.85.92,2.63-1.87,3,1.39,4,2.92,1.7,2.79,4.47,3.14,5.47.26,2.55-7.32,8-11.86,13.57-16.72,6.12-5.31,11.73-11.24,18-16.38,7.72-6.3,15.81-12.1,24-17.72,6.4-4.37,6.33-4.47.78-9.4,1.38-2.45,3.62-.45,5.42-1a16.27,16.27,0,0,0,10.33-8.83c3.22-7.64,8.57-9.34,15.9-8.14.88.14,1.88.89,3.06-.26-1-2.05-1.22-4.62-4.07-5.56-8.61-2.83-9.39-10.16-10-17.56-1.14-14,6-24.41,14.94-33.94A94.16,94.16,0,0,0,614.24,224c1.07-1.79,1.72-3.61-.18-4.84-4.7-3-3.48-7.38-2.13-11.14,1.19-3.32.44-5.08-2-7.13-3.8-3.15-7.45-6.39-8.64-11.7-1.61-7.13,1.46-12.56,6.18-16.93,8.36-7.73,13.5-18.27,22.69-25.26,2.84-2.15,3.54-5.61,2.3-9.05-1.16-3.22-3.6-4.32-7-5.22-13-3.4-23-12.57-17.94-28.52.95-3,1.32-6.09,2.79-9a5.61,5.61,0,0,0-1.5-6.84c-.88-.79-2-1.7-.89-2.84s2.5-.73,3.73-.07c4.87,2.58,6.89,6.92,5.85,12.49-.06.32-.2.63-.29,1-5,17.21,6.12,20.7,19.21,17.81,8.3-1.83,16.11-1.23,23.42,3.27,3.19,2,2.84,5.58,3,8.48.33,5.73-1,11.22-5.34,15.51a2.37,2.37,0,0,0-.34.37c-1.24,1.94-3.36,4-2.6,6.18.6,1.76,3.36-.34,4.94.82a2.28,2.28,0,0,0,1,.26c8.84,1.25,8.84,1.25,10.1,9.78,10.11-4.7,20.56-7.88,31.89-7.18,4.54.28,11.35,6.09,12.75,10.43,1.23,3.83.34,7.85,1.36,11.55,1.71,6.19.22,12.16-.07,18.26a9.07,9.07,0,0,0,5.45,8.84c5.63,2.47,7.23,8.33,10.51,12.58,3.46,4.47,2.3,10.56,1.06,16.29-.82,3.78,0,7.6,2.76,11.46,4.21,5.85,10.57,9.43,14.4,15.53,3.72,5.94,4.09,11.66,0,17.42-1.14,1.6-.79,2.49.09,3.91q10.22,16.47,20.24,33.07c1.37,2.28,3,1.3,4.73,1,10.17-1.66,19.39.38,26.07,8.61,6.94,8.57,12.75,17.86,12,29.68-.14,2.16.15,4.35-.06,6.5-.55,5.74,1.9,9.72,6.44,13.12,8.44,6.33,11.89,19.29,7.75,27.27-.84,1.61-2.44,2.67-2.83,4.64-.26,1.33-.77,2.39.25,3.68,3.42,4.36,3.07,9.61-.84,14-.89,1-2,1.81-2.82,2.83-1.44,1.73-5.09,3.32.46,5.07,2.27.72,4.34,4,3.39,7.49-.77,2.88-.92,6-2,8.7-1.39,3.61-3.13,7,.06,10.47a.53.53,0,0,1,.08.47c-3.56,6.56,1.84,12.91.34,19.62-1.21,5.39.39,10.62,4.05,15.37,3.38,4.36.21,9.14-1.06,13.59-.67,2.36-2.1,4.51-3.27,6.72-2.23,4.22-1,7.41,2.66,10.13,7.14,5.35,8.5,9.9,4.28,17.43-3.22,5.77,1.62,9.13,3,15.22,6-13.69,15.38-24.24,16.12-38.53.34-6.69-2.56-12.69-5.4-18.37-5.83-11.62-3.71-21.88,3.92-31.6,2.71-3.46,3.85-7.51,5-11.7,1.62,3.62,2,7.42,0,10.67-6.23,9.84-5.94,18.91-.55,29.52,5.59,11,10.23,22.82,8.56,36.12-1,7.89-5,14.29-7.65,21.37-3,8.23-7.15,16-6.69,25.3a37.7,37.7,0,0,0,3.52,13.32c4.32,9.8,7.67,19.76,9,30.39,2.27,17.69-.33,33.9-12.73,47.86-3,3.42-7.64,7.87-3.22,13.7a.94.94,0,0,1-.16.77c-6.21,1,.05,6.8-3.4,8.85.33.57.54,1.31,1,1.67,1.84,1.35,3,2.64,1.3,5-.44.6.75,1.28,1.63,1.41l-.14-.14c-.15,2.13,1.16,3.94.93,6.25s1.87,3.6,4.3,4c1.56.23,3.15-.43,4.76.75a2.68,2.68,0,0,0,3.86-1,3.35,3.35,0,0,0-.21-2.19c-1.6-.07-2.66-2.64-4.44-1.21s-3.63,2.12-5.66.23c3.44-3.34,8.4-2.84,11.57-4.67s7.54.23,9.82-3.33c-.93-1.58-4.21.42-4.15-3.49.1-5.72,5.38.14,5.83-3.63-1.15-1.37-1.76-3.53-3.8-4.86-1.06-.7-.65-2.36,0-3.69.72-1.55,4.07-.45,3.31-2.87-1.16-3.72-.74-8-3.63-11.09a2.49,2.49,0,0,1-.91-1.93c-.58-13.71,4-25.79,12.06-36.55A67.15,67.15,0,0,0,887.48,611c1.68-5.29-.3-10.39-3-15.19-3.3-6-4.08-12.11-.07-19.2.55,5-1.42,9.15.46,13.3,1.5,3.27,4.24,5.51,5.94,8.58,5.89,10.59,4,20.79-1.54,30.66-6.2,11-10.86,22.48-9.81,35.45.78,9.58,5.34,18.09,8.33,27,4.28,12.82,5.07,25.79.25,38.52-5.09,13.44-22.64,24.65-36.58,24.28-6.47-.17-11.44-4.23-17.13-6.41-6.91-2.66-13.54-4.08-19.77,1.79-2.28,2.14-4.13,4.3-4.53,7.44-.73,5.73-3.77,9.41-9.44,10.84-5.15,1.29-7.29,4.61-7.08,9.9a40.41,40.41,0,0,0,2.61,12.65c1.89,5,1.73,10.1,1.66,15.25,0,1.08.27,2.71-1.42,2.64-2-.09-1-1.55-.86-2.62.64-6.66-1.76-12.79-3.58-19a30.69,30.69,0,0,1-1-12.35c.53-4.58,2.66-8.26,7.69-9.25,5.83-1.13,8.51-4.84,9.58-10.51,1.35-7.22,7.19-11.11,14.35-11.78s13.42,2.17,19.44,5c11.26,5.21,21.44,3.51,29.88-4.66,8.2-8,15.26-17.06,16.9-29.14,1.2-8.84-2.12-16.67-4.92-24.62-2.36-6.73-5.67-13.17-7.5-20-3.22-12-2.24-23.72,5.22-34.26,1-1.34,2-2.6,2-4.46-13.33,13.43-18.55,27-12,44.48,4.7,12.54,6.24,25.86,1,38.47-3.16,7.56-7.43,15.49-17.37,16.91s-19.5-3.08-22-13.82c-2.7-11.42-4.68-22.71,0-34.12A30.24,30.24,0,0,1,839,673c19.27-20,21.65-43.08,13-68.29-1.68-4.87-3.5-9.69-5.4-14.47-5.09-12.77-2.07-24.62,3.43-36.5,3.59-7.78,8.43-15.17,8.91-24.19.27-5,.86-10.12-.75-14.83-1.06-3.09-3.85-5.58-4.66-9.09-1.51,8.58-.18,17.45-4.25,25.46-3.6,7.07-7.39,14.06-10.66,21.29-4.47,9.85-8.52,19.93-5.66,31.12,1.32,5.16,4.21,9.71,6.47,14.5,8.2,17.38,11,35,2.51,53.18-3,6.47-8.34,10.45-14.55,12.91-8.67,3.43-17.78-3.71-19.89-13.47C804.89,638.65,809,628,811.89,617c.45-1.72,1.8-4.12-.08-4.84-2.19-.83-2.45,1.88-3.52,3.49a64.26,64.26,0,0,0-10,27.21,26.14,26.14,0,0,0,3.18,16.76c3.15,5.83,6.8,11.46,9.35,17.55,6.64,15.83,4.76,31.11-4,45.74a42.12,42.12,0,0,1-11.29,12.48c-8.58,6.34-20.16,3.54-26.3-6.93a38.88,38.88,0,0,1-4.72-29.17c2.66-12,4.23-24.16,6.23-36.26a21.37,21.37,0,0,0,.06-3.49c0-.89-.15-1.71-1.3-1.62-.94.07-2.24-.23-2.4,1.14-1.54,12.59-8.51,23.34-12,35.28-2.49,8.56-1.65,17.13-.56,25.73,1.82,14.42,7.78,27.3,14.84,39.8,9.46,16.73,13.1,34.56,9.25,53.59-1.9,9.42-5.46,18.42-12.44,25-12.65,11.94-25.61,7.32-35-5.12-4.59-6.06-4.17-12.71-1.6-19.45,5.51-14.45,3.31-28.47-4.77-40.86-7.85-12-8-24-3.43-36.54,2.84-7.76,4-15.71,4.94-23.78.16-1.39.74-3.17-1.38-3.69s-3.35.51-4,2.62c-2.4,7.9-4.8,15.81-7.42,23.63-1.87,5.59-5.3,10.62-5.19,16.9.13,7,.43,13.57,3.34,20.34,4.5,10.43,9.38,21,8.47,33-.23,3,1.49,5.67,1,8.83-1.19,8.32-11.15,17.22-21.09,15.21-4.07-.82-6.38-3.79-8.46-6.57-6.18-8.24-8.28-17.76-7.82-28.05a113.72,113.72,0,0,1,3.57-23.52c.27-1.06.65-2.56-.67-3.12-1.8-.75-1.5,1.28-2.11,2-8.08,10.17-12,21.66-11.2,34.73a47.3,47.3,0,0,0,6.25,20.31c4.22,7.58,5.88,15.85,7.07,24.14,1.13,8-1.67,15.69-3.63,23.33-2.13,8.35-6.89,15.24-13,21.19Zm84.08-676.06c-.47,3.09.47,5.89,1.83,8.69-.62-2.12,1.15-3.64,1.11-5.62,0-2.21-.58-3.46-3-3-.51-6-5.58-8.21-9.57-11.29C715.67,211.3,718,215.79,723.08,217.94ZM643,214c11.51-3.69,18.37-12.76,25.27-21.79-8.69,4.84-15.51,12.05-23.2,18.14-1.14.91-2.29,2-2,3.74-7.16,2-11.49,7.39-16.61,13.77,3.59-1.66,5-4.31,7.7-5.19C638.43,221.25,641.07,217.92,643,214Zm39.49,149.73c4.78-3.57,5.78-9.22,7.12-14.36a29.46,29.46,0,0,1,3.32-8.13c2.59-4.21,5.34-8.3,7.79-12.62,2.74-4.82,5.55-9.71,10.61-12.9,4.11-2.59,6.6-6.67,7.51-12.36-4.71,2.49-7.06,6.58-10.56,9.38C701.44,318.13,698,326.53,694,334c-4.94,9.32-7.74,19.79-11.43,29.78a40.81,40.81,0,0,0-4.73,17.37c2.32-3.63,1.54-7.3,4.39-9.23C679.9,369.12,687.19,366.53,682.44,363.68Zm-15.64,481c3.51,1.75,5.74,5,8.48,7.59,2.36,2.24,3.43,1.49,4.84-.8,2.26-3.68.57-7.61.84-11.39s-3.07-6.34-5.75-8c-1.93-1.22-3.91,2.26-6.12,3.12-5.68,2.2-4.43,5.82-2.12,9.72-1.45.36-2.19-.8-2.84-1.62-2.61-3.35-4.79-1.3-7,.4-1.31,1-3.51,2.87-2,3.75,2.95,1.69,3.19,6.52,7.68,6.16,1.93-.16,2.74-3.48,4.54-2.13,2.53,1.9-1.23,2.74-1.36,4.34,0,.31,0,.82.15.93,3.82,2.26,4.65,7.22,9,10.11a8.81,8.81,0,0,0-.76-2.05c-1-1.15-2.29-2.41-1.2-3.91,1.33-1.84,2.16.19,3.15.8.66.4,1.37.39,1.6-.37a2.79,2.79,0,0,0-.19-1.86c-.82-1.61-2.4-1.6-3.92-1.54-1.74.07-2.82-1-2.16-2.41,1.36-2.9,0-4.23-2.23-5.58C667.48,848.8,667.16,846.7,666.8,844.72Zm-20,10.55c-1.21.67-2.41,1.19-3.65,0a1.12,1.12,0,0,0-2,.46c-.67,2.65-.85,6.25.59,7.67s5.59,5.17,7.56-.71c.24-.71,1.24-1.09,2.62,0-1.5,2.22-2.72,4.86-4.69,6.72s-.76,1.85.48,3.05c3,2.88,4.72-1.62,7.36-.92.87.23,2.23-.88,2.86.62s-.4,2.26-1.65,2.42c-2.33.29-2.82,1.39-1.71,3.75,3.09-3.48,6.42-4.74,10-.42-2.16-3.34-1.94-3.21.08-6.69a13.05,13.05,0,0,0,1.33-9.29c-.66-2.75-5-2.35-7.07-4.63-.81-.88-2.67.5-3.74,1.67a1.39,1.39,0,0,1-2.19.13c-.84-1-.37-1.82.37-2.61s2.15-.22,2-1.84c-.41-.95-4,1.2-2.21-2.23.69-1.34-.66-2.45-2-3-1.75-.65-2.81.5-3.83,1.63-1.15,1.29,0,2.95-.66,4.33ZM633.49,245.61c-8.35,4.32-12.31,11.38-11.71,20,.17,2.52,2.7,4.17,1.76,7s.74,5.44,2.27,7.87c4.71,7.49,13.36,6.59,20.21,9.46,4.33,1.81,9.82.64,12.85,5.73,4.47,7.53,8.85,15.08,12.18,23.22a14.89,14.89,0,0,0,4.24,6c.77.64,1.61,1.37,2.63.59s.29-1.66-.25-2.51c-2.53-3.92-3.86-8.38-5.69-12.61-4.92-11.39-10.93-21.33-25.43-22.61-10.6-.93-15.47-8.88-19.36-18.18-3.64-8.73-.48-14.88,4.77-21.07.72-.85,1.84-1.55,1.51-2.93a4.38,4.38,0,0,0,3.69-.61,60.18,60.18,0,0,0,10.55-7.49c5.27-3.16,9.12-8.11,14.18-11.48,6.4-4.25,12.35-8.79,16.44-15.5a59.18,59.18,0,0,1,7.2-9.46c5.17-5.53,11.23-4.87,15.36,1.45a20.32,20.32,0,0,1,2.34,4.94c2.34,7.44,4.58,14.92,6.78,22.4.79,2.7,1.33,5.5,3.94,7.18.8,6.42,6.41,8.68,10.67,12.1-3.74-3.86-6-9-10.8-12-.06-3.3-.46-6.64-.09-9.89s-.31-6.25-2.46-8.29c-2.9-2.74-4-6.15-4.6-9.67a51.93,51.93,0,0,0-2.51-8.46c-3.39-9.76-11.82-11.61-19.37-4.76-3.44,3.12-5.43,8.19-10.92,8.78l.14.13c-1-3.67,2.26-5.15,3.74-7.56,5.86-9.55,13.58-15,25.66-11.4-6.32-6.72-11.36-7.44-18.69-3.25-4.78,2.72-7.89,7-11,11.28-6.67,9.45-9.62,21.18-18.57,29.37,1.86.75,3.1-1.85,4.45-.1.61.78,0,1.64-.74,2.06-4,2.2-5.8,6.76-9.76,9-1.23.69-2.26,1.47-1.43,3.12C641.93,238.37,638,242.52,633.49,245.61ZM605.12,811.69c2.67.43,4.55-1.72,6.61-2.62,4.41-1.92,4-.54,3.25,2.79-.17.8-.93,3.15,1.27,3,1.29-.09,2-1.25,2.41-3.05.93-4.23.12-7.84-.8-12-1.42-6.5-4.36-13-3-20a1.36,1.36,0,0,0-.7-1.68,1.12,1.12,0,0,0-1.59.7c-.6,4.62-5.56,4.29-7.8,7,.19-1.94,1.46-3.19,2.65-4.62,3.26-3.93,7.86-6.64,8.39-12.85.7-8.23,5.14-15.09,11.6-20.2,4.61-3.65,5.07-8,3.22-12.81-1.25-3.27-.51-5.63,1.63-8.42.34,3.72-2.64,9.78,5.23,6.45a1.74,1.74,0,0,1,1.39.42c3.73,3.2,4.65.37,5.67-2.54.66-1.86,2-3.44,2.16-5.53.13-2.42,1.89-1.76,3.31-1.7-1.23,2.46-.57,5.48-2.59,7.8a23.7,23.7,0,0,0,4.88-1.53c.78-.32,1.56-.79,2.28-.07s.42,1.56.09,2.32-2.51,1.52-.68,2.62c1.41.84,2.29-.65,3.14-1.71,4.15-5.13,7.21-10.91,10.2-16.81-.36,7.67,1.08,15.91-8.57,20.67,7.29.64,8.92-3.89,9.95-8.08.81-3.3,2.06-3.28,4.45-2.19,1,.44,3.12,1.23,2.83.38-1.27-3.73,4.32-6,1.45-10.21,3.88,8.17,7.52,1.5,11,0,.6,1.71-1.68,2.53-.37,3.59,3.35,2.71,5.75,7.59,11.39,4.63.17,2.08-1.14,2-1.85,2.62-3.3,2.64-3.84,2.44-5.8-1.23-1.07-2-3.19-3.55-5.36-2.57s-2.64,3.71-2,5.66c.93,2.71,3,.62,4.54.26.45-.1,1,.11.86,1-1.48,2-6.77,1.71-5.07,5.63,2.16,5,5.64,9.36,12.93,7.32-4.17.85-3.94,3.3-2.68,6-1.94,0-3-2.35-4.46-1-1.18,1.12.21,2.48.51,3.71.63,2.6,1.49,5.27.73,7.85-1.13,3.86.12,3.88,2.91,2.21.7-.42,1.4-1,2.3.78-8.65,3.15-7.35,11.22-8.7,18.11-.42,2.13.05,4.29,1.68,5.44s2.94-.78,4.35-1.49c1-.52,2.07-1,3.12-1.51,4.86-2.21,4.86-2.2,2-6.29a1.3,1.3,0,0,1,2.09.5c2,4,4.45,2.29,7.24.88,3.55-1.81.7-3.64.22-5.31-.92-3.19-2.18-6.29-3.34-9.4-.51-1.38-.71-3.07-2.42-3.53-1.18-.31-2.32-.24-1.73-2.07.36-1.14.16-2.35,2.06-1.59,1,.4,1.25-.65,1.36-1.54.49-3.78,1-7.55,1.53-11.32.16-1.16.49-2.33-.88-3.06-2.19-1.17-3.43-3.27-4-8,2.82,5.7,6.21,5.87,8.43,1.93,2.06-3.66,2.73-8.11,3.94-12.23.29-1,.16-2-1.24-2.2s-1.79.58-2,1.64c-.53,2.39-2,2.94-4.42,1.71-.62-.31-1.71,0-1.63-1.45,2.44-1.17,4.44-3.28,7.51-3.38,3.77-.13,4.06-3.32,5-6s-.89-3.8-2.62-4.69-2.59-1.87-1-4.49A37.34,37.34,0,0,0,716.4,708c.87.86,1.64.59,2.34-.55,3.23-5.32,2.27-14.78-2-19.43-1.51-1.64-4.39-4.16-4-5.06,2-4.41-2.59-6.28-2.44-9.92-4,1.8,2.25,7.8-4.36,7.58.22-4.22-2-3.35-4.43-1.31-1.82,1.54-5.51,1.75-4.3,5.63.3,1-.57,1.37-1,1.08-3.52-2.11-3.12.74-3.79,2.71a65.07,65.07,0,0,1-3.22,6.75c-1.41-3.23,1.94-5,.24-7.64-8.09,4.68-15.58,9.73-16.65,20.1-.24,2.28-1.83,2.69-3.95,3.44,2.35-2.91,0-5.37-.39-7.62,5.44.45,4-3.85,5.66-6.73-4.21,1.6-6.36,5.17-10.16,5.64-2.55.31-3.52,2-4.57,4-3.06,5.89-6.32,11.67-9.49,17.48-.41-3,1.08-5.4,2.52-7.88,1.58-2.74.59-5.47-.81-8-1.05-1.92-3.1-1.48-4.48-1a7.35,7.35,0,0,0-4.9,6.26c0,4.06-1.68,3.24-4,2.7.54-3.42,3.36-5.41,5.06-9.32-3.16,1.32-5.5,2.59-7.85,1.05-4.07-2.67-6.67.4-7.1,3.19-.58,3.8-3.53,3.72-5.25,5.55,1.68-2.63,1.86-5.73,3.66-8.59a24.45,24.45,0,0,1-4.26-.05c-1.68-.33-3.49-2.19-5-.24s-.85,4.45.37,6.13c2.84,3.9,3.54,8.64,5.63,12.81.74,1.47,2.3,3,.94,5-2.13-.28-1.83-2.12-2.29-3.43-.85-2.43-2.43-4.13-5.09-3.85-3.17.32-8.82,8.44-8.87,11.76-.13,8.08,1.47,16.32-2,24.14a2.61,2.61,0,0,0,.38,2.89c2.7-.83,3.15-4.45,6.14-5-3.44,3.64-4.75,8.54-8.36,12.22-6.33,6.45-7,12.89-3.24,18.17,1.55-.62,2-2.67,3.84-2.92-1.39,2-2.89,4-4.16,6.06a8.54,8.54,0,0,0,.45,10.37c1.76,2.28,2.62-2,4.8-.55.16,2.89-3.34,6.23-.16,9.41,0,0-.37.46-.51.73s-.06.33-.11.48c-2,6.32,7.57-.16,6.13,5.54a4.87,4.87,0,0,0,1.31.07c.26-.06.51-.41.66-.69.46-.81,1.53-2,.33-2.49s-1-3.07-3.27-1.82C608.47,813.85,606.65,813.12,605.12,811.69Zm-36-88.48-.13-.14c-4.2,6.47-3.52,13.46-2.12,20.51.23,1.21.08,2.93,1.85,3.07,1.31.11,1.83-1.16,2.48-2.15,1.91-2.92,3.52-6.17,6-8.58,8.15-8,17.15-15.34,18.6-27.85.18-1.58,1-3.45-1.18-3.36-6.74.28-12.28-4.2-18.94-4.34-2.52,0-4.13.38-5.29,2.55a39.38,39.38,0,0,0-4.39,18.72C565.92,724.72,567.55,723.7,569.1,723.21Zm261.44-92.67c2.81.74,3.07-2.51,5.06-3.47.38,4.87,4.34,4,6.68,3.68,2.09-.3-.67-2.75,0-4.38.29-.73-1.43-1.68-.52-2.65,2.49-2.64.88-2.9-1.51-2.77-1.65.1-2.47-.58-2.51-2.28s.63-2.45,2.33-2.45c2.12,0,2-1.39,1.44-2.75-2.36-6.33-3.73-13-7-19-4.13-7.65-6.94-15.73-4.7-24.69.24-1,.5-2.18-.54-2.71-1.56-.81-2,.67-2.43,1.68-2.36,6.06-7.59,8.73-13.2,10.19-4,1-4,2.53-2.46,5.49,2.12,3.93,4.19,7.85,4.88,12.38,1.71,11.14-1.21,21.65-4.12,32.39,1.92.42,5.19.86,5.14,2.27-.15,4.35,3,4.28,6.9,5.11-3.94,1.52-7.15,1.25-9.93,3.3,2.47.45,4.49-.75,6.64.59s6-1.89,4.87-4.19c-1.68-3.48,1-4.7,2.41-6.9l-2.89-.62c2.14-2.47,4.84-1.86,7.53-1.77a3.79,3.79,0,0,1-1.9,3.73c-2,1.34-2.52,3.29-2.43,5.59,0,1-1.26,2.34.4,3,1.36.49,2.57-.5,3.59-1.31a1.42,1.42,0,0,0-.1-2.49C830,634.24,831.63,632,830.54,630.54ZM697.36,597.76c-1.16,4.33-4.75,7.17-7.44,11.28,4.44-.72,7.29-3.12,10.18-5.14,2.34-1.63,1.74-4.83.71-6.87s-2.28.83-3.6.9c2.4-5.75,6.64-9.49,12.35-11.9,2.85-1.2,5.05-2.42,4.38,2.43,5-1.87,5.36-5.14,3.9-9.23-1-2.8-1.65-5.72-2.67-8.5-3.55-9.66-5.2-10.12-13.7-4.76s-16.2,11.39-24.19,17.23c-8.77,6.4-17.21,13.36-26.63,18.94-5.88,3.49-5.61,4,.21,9-8.2-3-7.85,4.09-11.11,6.76-5.65,4.63-2.36,7.93.3,12.15,6-8.84,10.62-18.17,19.85-24.31,8.8-5.84,14.46-15.51,23.34-21.52,1-.68,1.73-2.2,4-.75-5,5.62-9.59,11.34-14.72,16.58-4.16,4.25-8.47,8.44-13.8,11.38-.62.34-3.39,1.25-1,3,.58.42,2.28-.81,1.86,1.09a2.31,2.31,0,0,1-1.91,1.23c-4.2-.73-5.7,2-7.32,5.07-1.22,2.33-3.9,4.13-4.46,6.51-1.85,7.75-14.21,8.49-12.13,18.63,0,.2-1,.48-1.1.87-2.25,5.8-7.14,11.12-3.64,18.33a9.41,9.41,0,0,0,4.56-6c2.12-7.11,6-14,11.08-18.38,7.81-6.73,11.79-16.09,19.2-23,7-6.5,12.23-14.85,18.65-22C686,593,688.75,588.3,693.94,586c-5,14.93-19.59,23.15-26.71,37.4,6.53-1.18,10.95-4,14.34-8.9C685.94,608.1,690.11,601.42,697.36,597.76ZM572.3,493.13c1.77.3,4-4.45,4.71-.75a50.16,50.16,0,0,1,1.13,12.56c-.79,12.32-6,22.9-10.94,33.83-3.94,8.74-10.67,15-16.54,22.08-1.42,1.72-4.61,3.13-2.26,5.46s3.81-1,5.37-2.43c.16-.15.55-.06,1-.09.42,2.2-.72,3.65-1.94,5.32-1.93,2.63-.09,4.73,1.88,6.3,2.18,1.73,3-.41,4.29-1.73,2.16-2.26,2-5.22,2.62-8a8.72,8.72,0,0,1-1,9.39c-2.59,3.3-2.3,5.53.14,9A24.66,24.66,0,0,0,583,594.93c9.12-.51,16.71-5.42,21-14.5,1.85-3.85,1.08-7.92,2.67-12.74,2.87,6.74,0,11.86-1.66,16.95-2.14,6.41-8.09,9.1-13.34,12.32-.83.5-2.42.94-1.41,1.69,3.35,2.47,2.32,6.75,4.28,9.46a120.65,120.65,0,0,0,15.73,18.31c1.27,1.17,2.74,2.93,1.77,5.33-10.79-7.32-18.51-16.82-22.78-29-.36-1-.09-3-2.28-2.47-1.91.48-2.11,1.75-1.62,3.47a56.67,56.67,0,0,0,7.53,16.75c4.71,6.88,11.08,12.36,16.93,18,4.78,4.66,7.42,8,5.43,14.9-1.26,4.4-.68,9.52-.87,14.3-.21,5.28-2.11,10.65-.6,16.11,1.41-.44,1.47-1.29,1.74-2.06,1.83-5.24,3.35-10.66,5.44-15.71,3.34-8.1,7.94-15.67,8.85-24.63a4.08,4.08,0,0,1,2.08-3.24c5.58-3.09,3.32-7.55,1.08-10.76s-1.55-4.86.6-7.2c4.06-4.41,7.15-9.33,7.67-17.18-2.36,4.45-4.6,3.88-6.78,2-.92-.78-2.15-.81-2.89-1.25-4-2.44-8.67-1.46-13-2.34.79-2.76,2.66-3.16,4.64-3.75,5.58-1.67,11.72-3.59,14.94-8.21,3.58-5.14,8.4-8,13-11.58s8.42-8.57,14.77-3.07c.52.45,1.6.33,2.43.36a33.27,33.27,0,0,0,18.18-4.41c2.34-1.34,3.35-2.9,3.29-5.55-.1-3.64-.12-7.23,1.16-10.82a140.19,140.19,0,0,0,8-44.87c.15-8.1-.08-16.89,6.35-23.39a217.62,217.62,0,0,1,17.16-15.65c15.06-12.29,28.94-25.94,44-38.22,11.28-9.19,22-19,32.92-28.71,8-7.09,9.34-11.75,5.57-18.86-11.74-22.11-23.28-44.33-35.43-66.21-6.44-11.59-13.91-22.6-21-33.78-2-3.17-2.3-3.06-4.73,0-.63.79-1.16.34-1.72.31-3.84-.23-6.51,2.05-9.29,4.19s-3.45,4.32-1.54,7.63c2.05,3.55,4.48,6.82,6,10.83,2.41,6.53,4.17,13.33,7.06,19.6a180.79,180.79,0,0,1,12.56,36.14c2.67,12,6.55,23.34,16.94,31.13.9.67,1.4,1.49.85,2.55a1.77,1.77,0,0,1-2.55.8c-8.21-4.66-15.36-.51-21.81,3.52-13,8.1-27.06,14.46-38.58,24.85-3.43,3.1-8.1,4.29-11.74,7.4-7.77,6.63-16.26,11.89-26.93,13.27-8.92,1.15-14.61,7.12-17.7,15.54-1.23,3.37-1.9,7.31-4.13,9.86-2.82,3.24-6.83,5.47-9.8,8.76a1.78,1.78,0,0,1-2.27.43c-1.11-.68.06-1.37.15-2.08.41-3,3.32-3.3,5.1-4.75s4-3.24,2.22-5.16c-4.72-5.05-2.25-11-3-16.57-.25-1.92.68-4.23-.7-5.71-1.64-1.76-2.82,1.95-4.44,1.18-1.49-1.38,1.55-2.33,0-3.35-.62-.4-1.79-1.49-2.43.06-1.63,3.89-3.93,1.7-6,.65-3-1.49-4.4-7.45-9.32-3.08-.07.06-.53-.27-.77-.45-5.78-4.3-13.17-4-19.55-7.21.15,7.68,1.21,14.82,1.11,22.11-.08,6.34-.31,13,2,19.34,1.08,2.92,3.89,4.93,4.42,8.75-4.44-1.77-5.44-5.41-6.6-8.66-2.55-7.08-5.9-13.79-11.28-19-3.47-3.33-6.74-7.53-12.39-9,.35,1.55.58,2.5.78,3.46s1.22,2.46-.53,2.88-1.69-1.32-1.93-2.34c-2.32-9.82-8.25-18-12.38-27-6.16-13.41-13.19-26.42-20.46-39.28-.59-1.06-2.56-2.55-1.21-3.89,1.77-1.76,2.81.38,4,1.45a1.44,1.44,0,0,0,1.8.33c5.15-2.83,10.92-4.71,15-9.58-1.44-1.32-3.55,0-4.84-2,7.8-7.05,7.84-16.24,6.89-25.67-.11-1.09.34-3.49-1.76-2.16-4.53,2.87-8.35,6.8-13.31,9.08a1.75,1.75,0,0,0-.83,1.18c-.41,4.23-2.9,5.92-6.93,5.86a4.49,4.49,0,0,0-4.67,3c-.41,1.18.21,2.8-1.94,2.61a3.42,3.42,0,0,1-2.95-2.38c-.57-1.51.52-2.44,1.7-3.22,2.75-1.8,6-3.2,8.09-5.58A76.78,76.78,0,0,1,562,339.18c4.47-2.52,6.34-6.19,7.57-11.91-6,4.14-11.09,7.68-16.2,11.24-12.55,8.73-22.93,20-34.57,29.78a17.13,17.13,0,0,0-5.71,17.16,155.63,155.63,0,0,0,15.16,41.42A527.42,527.42,0,0,1,559,494.28c2.91,7.74,6.53,15.23,10,22.75.44,1,.68,3.47,3,2,.89-.55,3.35-11.54,2.62-11.86-5.74-2.56-1.48-5.24.29-8-6.1.28-2.26-4.32-3.7-6.24Zm39,213.3c-.36-8-1.12-15.11-.9-22.18.35-11.53,2.2-23,2-34.57,0-3.31-.81-6-3.18-7.95a106.5,106.5,0,0,1-8.68-8.17c-8.78-8.81-16.67-18.1-17.63-31.34-.23-3.14-2.14-4.51-5.43-4.48-7,.07-12.07-3.57-16.66-8.5-5.9-6.34-8.41-14.92-14.67-21.07-2.65-2.61-2.08-6.48.82-9.44a119.53,119.53,0,0,0,18.73-24.11c3.09-5.39,5.54-10.78.2-16.52-1.59-1.71-2-4.5-2.94-6.82a295.74,295.74,0,0,0-14.78-32.49c-1.61,8.84-2.1,16.38-.1,24.08,2.06,7.9,3.91,16.32.68,23.93-2.72,6.42-5.84,12.33-4.82,19.53a1.16,1.16,0,0,1-1.15,1.34c-1.15,0-1.76-.87-2.13-1.83-2.63-6.65-5.31-13.3-5.24-20.61.05-4.92-1.83-9.16-3.83-13.42a5,5,0,0,0-.6,2.56,18.79,18.79,0,0,0,.26,2.48,105.21,105.21,0,0,1-1.75,42,54.4,54.4,0,0,0,.62,28c2.51,8.71,5.66,17,11,24.35.89,1.22,2.25,3.2.24,4.28-1.65.9-2.54-1-3.12-2.41-1.83-4.42-6.67-4.82-9.74-7.86.55,5.75-2.4,9.91-4.29,14.52-3.84,9.31,0,18,3.79,26.24,6.85,14.94,13.6,29.87,17.5,45.91.56,2.3,1.34,3.21,4,3a129,129,0,0,1,13.49-.17,11.28,11.28,0,0,0,11.1-14.78,12.1,12.1,0,0,1,1.67-11.59c-1.78,9,5,17.31,1.56,26.37-.7,1.85.52,2.5,2.07,2.36,4.24-.36,8,1.68,12.18,2.16,3.17.38,5.43,1.39,5.65-3.89C598.63,703.66,605.33,703.58,611.28,706.43Zm158.3,88.5c.84-1.69,1.47-2.5,2.76-2.86,3.76-1.05,5.43-3,2.87-6.86a8.06,8.06,0,0,1-.63-2.9c-1.71-9.36-5.45-17.81-10.22-26.07a105.5,105.5,0,0,1-13-38.31c-2.23-15.84,2-30.51,8-45,2.63-6.37,5.84-12.81,6.07-19.89.14-4.25,2-8.57.57-13-8.27,5.87-10.21,13.8-8.92,22.68.45,3.09-.14,5.77-.69,8.69-1.4,7.5-5.58,13.8-8.65,20.54-3.58,7.88-5.17,15.64-2.32,24,.79,2.32,1.7,4.6,2.32,7a2.3,2.3,0,0,1-1.38,2.9c-1.16.38-1.92-.51-2.19-1.51-1.5-5.58-3.92-11-4.17-16.8-.38-8.58-2.68-11.68-11.91-14.58,1.82,3.7.34,7.65,1.93,11.19,1.76-.45.43-3.34,2.76-3,1.23,4.6-3.07,7.51-3.51,11.53a169.73,169.73,0,0,1-5.79,28.7c-2.05,7.14-3,14.13-.35,21.43,1.51,4.2,4.56,7.32,6.47,11.13,5.95,11.88,10.32,24.08,4.3,37.48,2,.3,3.47-1.67,4.64-.18,1.65,2.11-1.63,3.37-1.07,6.61,5.48-3.78,11.36-2.58,17.2-1.85-.29.43-.6,1.45-1.21,1.7-1.72.69-1.67,1.93-1.27,3.25.51,1.68,2,.51,3,.88,2.63,1,1.47-1,1.77-2a4.66,4.66,0,0,1,1.05-1.45c5.09,3.49,5.14-1.21,6.45-3.91,1.84-3.77,5.1-7.32,1.37-11.8-.66-.8-2.15-2.15,0-3.18,1.66-.78,2.92-.58,3.35,1.46.16.75-.06,1.75,1.69,1.54-1.21-4.32,3.43-5.28,5-8.14C773.67,792.92,771.93,794.53,769.58,794.93ZM496,521.31c3.4,7.81,2.18,14.78-3.12,21-4.87,5.7-5.11,12.33-4.4,19.25s4.11,13.19,6.51,19.65c4.59,12.4,8.5,25,7,38.34-1.7,15.52-5.81,30.61-9.69,45.73a75.63,75.63,0,0,0-1.3,28.69c.15,1.12.21,4.44,3.67,3,2.21-.89,2.18,1,1.33,2.12-1.63,2.23-7.25,4.41.43,6,1.14.24.3,1.77.48,2.69.46,2.41,5.77,6.67,6.88,5.44,3-3.29,9.34-3.48,9.15-9.8,0-.36.49-5.12,3.41-1.05a2.58,2.58,0,0,0,4.67-1.52c.19-2.94,1.35-4.06,4.3-4-3.32-3.58-1.25-7.27-.86-10.56a33.19,33.19,0,0,0,.53-6.2c-.36-5.74-2.32-11-4-16.38-5.57-17.68-7.66-35.1,1.09-52.7,3.37-6.77,2.46-14.9-1.07-21.5-4.87-9.13-8.92-18.35-9.84-28.69-.7-7.95-1.77-15.86-4.37-23.36A35.15,35.15,0,0,0,496,521.31ZM714.8,656.7a25.83,25.83,0,0,0,4.52-5c1.73-2.19,1.41-3.76-.43-5.6a125.41,125.41,0,0,0-19.83-16.64,87.07,87.07,0,0,0-10.47,20.26c-.89,2.63-3.34,3.42-5.59,3.44-2.64,0-4.84,1.13-7.15,1.91-3.66,1.22-7.38-1.79-11,.41-.25.15-1.13-.58-1.64-1-3.28-2.74-5.32-5.91-4.49-10.55a7.83,7.83,0,0,0-1.52-7.06c-2.66,5.42-7.89,7.68-10.51,13.79-2.46,5.74-3.36,12.34-7.25,17.56-1.88,2.51-3.26,4-7.15,4.15-4.87.2-10.49,1.73-12.74,7.66a20.89,20.89,0,0,1-2.93,5.21c-4.56,5.92-4.44,10,.79,15.38,1.27-3.41-.48-6.8.14-10.13.23-1.25.45-2.44,2.07-2.09,1.08.24,2.08.44,1.7,2.29s.12,3.9.35,5.85c.37,3.13,1.66,4.56,5.33,5a63.87,63.87,0,0,0,13.83-.23c7.07-.76,14.38-1.14,20.63-4.67,10.09-5.69,19.86-12,29.59-18.3,3.9-2.52,8.36-5,7.91-10.88,1.63.47.32,3.11,2.6,2.47,3.12-.86,9.53-9.88,9.3-13.1-.15-2.1-.68-5.27,1.59-5.48S713.69,654.58,714.8,656.7ZM603.43,361.9c3.05.65,5.56,3.12,9,1.6,2.34-1.05,5.83-1.14,6.22,1.8.37,2.77-2.11,4.58-5.59,4.72-6.41.25-13.26-4.24-19.21,1.59-.18.17-.65.08-1,.06-4.06-.3-8.13,2.44-8.82,6-2,10.62.56,20.16,6.81,28.85,1.12,1.56,3.23,3.24,2,5.22-1.31,2.16-.52,3.7.18,5.56,5.42,14.48,15.19,20,30.44,17.41,3.71-.63,7.42-1.92,11.32-.89,7.07,1.87,11.49-2.19,13.62-9,.64-2.07,2.55-5.52.86-6.51-5.72-3.34-1.14-6.06,0-8.84,2.72-6.58,5.74-13.06,6-20.32.12-3.14.69-6.75-1.82-9s-4.54,1.09-6.61,1.9c-5,2-9.74.52-14.61-.08-1.21-.15-2.72.9-3.43-.84-.63-1.54,0-2.83,1.09-4.06,5.55-6.1,11.41-11,20.14-5.17a20.61,20.61,0,0,1,.52-3.63c1.48-4,.17-5.27-4.06-5.2-7.38.13-17.72,4.53-19.64,14.09-.19.94.32,2.58-1.86,2.39-1.33-5.63.41-10.65,3-15.59,3.82-7.35,11.45-4.34,18-6.39l-24.11-11.42c1,4.09,1.46,7.68,3.49,10.83.85,1.33,1.24,3.43,0,4.11-1.86,1-2.24-1.2-2.9-2.45l-4.8-9c-2.53,3.63-4.63,6.79-6.91,9.82-.69.92-1.92,2.94-3,1.49C605.37,357.57,604.91,361.72,603.43,361.9Zm183,254.33c-2,1.5-1.13,3.65-1.27,5.53-.43,5.48-3.35,9-8.7,10.26-3.7.87-4,3.42-3.34,6.53,2.19,10.61,1.24,21.15-.55,31.71-1.42,8.38-2.41,16.84-3.59,25.26a1.35,1.35,0,0,0,.87,1.52c4,2.22,4,2.24,0,4.8,4.48,6,11.13,7.15,19.2,7.53-2.66,2.58-4.39,5.66-6.2,5.72-3.92.11-1.59,1.6-1.14,2.79,1.08,2.87,3.1,1.45,5,1.18,2.16-.3,3.17-1.16,2.12-3.25-.94-1.85.47-2,1.5-2.26,1.54-.38,2,.38,2,1.93-.06,1.33-.31,3.53,1.93,2.95s1.56-2.15.52-3.78c-.8-1.27.33-2.55,1.29-3.46a1.3,1.3,0,0,1,2.12.38c.64,1.42,1.08,3.3,3,1.52,2.05-1.93-.76-2.42-1.51-3.15-1.17-1.13-2.87-2.53-.48-3.08,4.55-1,7.89-3.69,9.22-7.57.86-2.5,3.74-3.75,3.15-7.23-1.42-8.41-4.43-16.33-9.56-22.73-9.07-11.33-7.65-23.43-4.9-36,1.87-8.5,6.87-15.78,9.49-24,2.33-7.32,3.31-14.61,1-22.56-2.78,2.16-3.15,4.66-3.11,7.35.08,4.38-1.11,8.12-5,10.75a4.84,4.84,0,0,0-2.29,4.26c.34,3.49-1.74,6.38-2,9.72-.14,1.6-1.06,3.42-2.85,3.68s-2.1-1.84-3.08-2.89S788.14,616.75,786.41,616.23ZM552.82,767.36c.73-2.06,3.79-2.5,3.23-4.48-1.33-4.74-.51-9.65-1.79-14.41-3.62-13.41-1.44-26.17,4.82-38.44a87.94,87.94,0,0,1,4.93-8c1.4-2.12,1.09-3.32-1.77-3.27-4.33.08-8.66.1-13,0-2.77-.07-3.86,1.41-4.23,3.85a57.13,57.13,0,0,1-10.24,25.09c-5,7-6.21,16.36-13.75,21.71a2,2,0,0,0-.63,2.67,1.11,1.11,0,0,0,1.66.43c.55-.29.88-1.85,1.72-.57a2,2,0,0,1-.68,2.64c-1.17,1-3.87,2.39-2.66,3.52,4.58,4.27.74,7.49-.89,10.92a4.63,4.63,0,0,0,1,.67c1.51.4,3.66-.32,4.19,1.86.71,2.92-1.93,1.21-2.88,1.87a1.3,1.3,0,0,0-.62,1.68,1.14,1.14,0,0,0,1.62.66c2.31-1.33,4.07-.89,4.27,1.81.24,3.31-2.55,1.37-3.95,1.89-.36.13-.56.69-1.64,2.14,6.94-2.28,6.86,3.2,9.06,6.93,1.58-3,6-3.27,4.4-8.35,2.56,2,2.74,4.16,4.16,6.7-1.06-4.53,3.64-4.81,4-7.84a1.65,1.65,0,0,1,1.24-.11c.29.24.53,1.1.37,1.27-4.77,4.76-.46,5.46,3.27,6.7-1-3.12-1.76-5.94,2.8-6.82,1.34-.26,2.78-2.12,4-3.26,1.9-1.76.94-4.91,1.29-7.44S553.58,769,552.82,767.36Zm31.77-14c2.63-3.13,4.38-5.3,6.23-7.4,2-2.25,4.06-4.4,6-6.63,4.52-5.05,5-13.3,1.19-18.67-1.39-1.93-2.87-2.86-4.61-.26-5.26,7.9-12.52,14.09-18.34,21.54-4.33,5.54-7.85,10.53-3.22,17.48.79,1.19.53,3.17,1.92,3.91,1.66.9,2.23-1.93,4.79-1.74-4.6,3.53-3.48,7.45-2.45,11.56a31.24,31.24,0,0,1,1,11.77c-1.51,11.83-8.84,21.77-10.37,33.55-.21,1.56-1.78,3.61.79,3.92,3.72.45,2.55,1.79,1.31,3.71-1,1.51-3.1,3.62,0,4.66,2.86,1,2.56,2.09,1.15,3.79-1.68,2-.53,3.26,1.22,2.45,2.21-1,2.83.52,3.64,1.39,1.49,1.6-2.13,1.4-1.22,3.15,1.18-.35,2.84-.36,3.57-1.18,1.62-1.8.15-5.25,3.45-6.57.58-.23-2.73-.22-2.1-2.72,2.06-.15,4.6-.69,5.66-2.82,3-6-2.39-12-.14-18.09,0-.15-1-.81-1.53-1-1.5-.57-2.15-1.35-.31-2.14s1.18-1.9,1-3.25a66.84,66.84,0,0,1,1.09-21.11c1.49-7.47,5.77-13.31,8.23-20.11.84-2.35.64-4.82,2.51-7.37,3-4.16,4.52-9.78,5.19-16C594.43,743.52,591.83,749.84,584.59,753.35ZM820.25,512.56c2-4.42,3.91-8.25,5.35-12.27.87-2.42,2-5.4-.18-7.6-3.69-3.75-3.84-8.25-3.71-13,.07-2.66,0-5.33-.18-8-.14-2.25-1.68-4.48-3.61-3.45-2.45,1.3-5.4,1.26-7.55,3.51a63.18,63.18,0,0,1-8.24,6.62c-5.63,4.21-11,4.34-15.5.72-2.19-1.75-2.35-3.5.09-4.59,6.48-2.88,12.6-6.93,19.57-8.23a34.8,34.8,0,0,0,10.91-4.44c2.47-1.4,2.53-4,1.14-6.08-1.54-2.35-3.41-.89-5.11.26-2.68,1.81-4.47,4.64-8.32,5.06-5.39.59-10.65.61-15.46-1.8-5.34-2.69-10.32-2.51-15.54,0-1.09.53-2.66,2.5-3.75.52s.45-3.25,2.3-4.21c6.44-3.34,10.76-8.54,13.69-15.2,2.8-6.37,7.28-11.27,14.13-13.71,3.93-1.4,7.11-4.11,10.26-6.67-5.94-2.58-11.48.86-16.16,2.6-3.62,1.34-7.89,5.91-10.07,10.86-2.51,5.67-4.63,12.49-9.1,16.07-5.36,4.28-9.14,11.3-17,12.35a4.35,4.35,0,0,0-2.73,3.07c-.31,2.53-1.58,4.23-3.13,6-.61.7-1.88,2-.58,3,1,.83,2.41.11,3.09-.79,1.95-2.55,4.12-4.9,7.15-6,9-3.26,18.32-5,28-3.73,1.34.18,3.5-.37,3.43,1.86-.06,1.66-1.76,2.3-3.3,2.48a11.4,11.4,0,0,0-9,5.45c-3.53,6.17-8.8,9.68-15.39,11.65-4.67,1.4-7.73,4.21-7.91,9.39-.05,1.26-1.87,2.84.58,3.72,1.94.69,2.8-.75,3.53-2a12.82,12.82,0,0,1,9-6.53c4-.66,6.87-4.39,10.86-4,2.65.26,5.15.64,7.82.12,3-.58,7.12,2.57,7.33,5.21.6,7.38-5.77,13.67-13,12.17a12.53,12.53,0,0,0-10.1,1.91,6.52,6.52,0,0,1,5.95,2.74c1.8,2.31,4.87,4.58,7.12,3.95,6.2-1.72,9.4,2.69,13.64,5.13,2.06,1.19,3,2.43,2.78,5.14-.4,4.45,2.83,7.69,7.14,8.38,2.77-4.56-2.19-6.73-3.5-9.95s-3.25-7.14-7.33-8.89c-1.93-.84-3.89-3.49-2.63-5.32,3.71-5.4,4.44-11.2,4-17.41a2.44,2.44,0,0,1,.54-1.38c3-4.35,6-8.76,9.16-13,1.34-1.78,3-4.12,5.71-2.87,2.52,1.16,3.44,3.27,3.65,6.4C820.84,489.21,816.15,500.47,820.25,512.56ZM404.05,351.1c1.87,2.52,3.11,5.75,6.84,6.41,1.81.33,5.58-.35,5,2.39-.61,2.9-3.89,1.09-6.05.76a6.57,6.57,0,0,1-1.4-.52c-.83-.34-1.86-.48-2.22.35-.51,1.19.44,1.8,1.5,2.05,3.75.89,6.24,3.4,8.68,6.2,6.09,7,7,15.88,9.46,24.25.5,1.7.62,4.37,2.69,4.13s1.7-2.85,1.69-4.66a4.09,4.09,0,0,1,0-1c.3-1.11-1.36-3,.77-3.23,1.9-.17,1.93,1.82,2.12,3.31s-.78,3.59,1.91,3.82c10,.84,19,6.41,29.21,6.67.91,0,1.9,1.09,2.72.09s0-1.93-.56-2.7a93.14,93.14,0,0,0-17.33-18.94c-2.41-2-5.13-3.92-8.29-4.37-10.37-1.49-15.34-7.61-18.3-17.51-2.07-7-10.81-9.1-15.49-14.57a.47.47,0,0,0-.46,0c-4.24,3.38-2-2.34-3.85-2.8-2,3.53-5.38,6.06-5.82,10.63-.22,2.33-2,4.45-4.18,5.93-1,.69-3.35,1.09-2.31,3.11.82,1.58,2.72,1.94,4.41,1.72,4.43-.6,7.24-3.09,8.09-7.58C403.11,353.86,402.24,352.42,404.05,351.1ZM641.91,833c4.61-1.69,7.54-5.62,11.46-7.1,6.06-2.3,10.41-7.12,16.26-9.51a2.87,2.87,0,0,0,1.8-3.26c-.65-4-1.35-7.9-1.95-11.41-6.17,1.37-9.35,7.3-15.82,8.35,1.27-3,1.46-5.18,5.44-5.36s9.18-3,10.13-6.28c2.06-7.15,3.72-14.54,5.44-22A133.17,133.17,0,0,0,662.43,785c-1.45,1.11-2.83,2.46-3.54-.44-.47-1.94-1.31-4-3.22-3.88-2.26.14-2.21,2.83-3,4.56-2.52,5.51-2.58,11.64-4.53,17.36-1.11,3.23-3,7-1.7,11.24,2-.69,3.06-2.85,5.72-2.3-3.92,2.08-4.2,6.4-6.33,9.22C642.92,824.56,642.57,828.46,641.91,833Zm-3-52c1.65-.68,2-.94,2.21-.89,2.29.47,4.62-.13,4.2-2.62-.69-4.18-1.72-.19-2.7.12-.79.25-1.12-.55-1.05-1.23a2.26,2.26,0,0,0-1.67-2.66c-2.47-.92-2-2.66-.42-3.74,4-2.82-1.75-5.68.23-8.4a2.36,2.36,0,0,1-.69.06c-3.83-1.08-2.17-4.64-3.08-7s.48-1.87,2.17-1.86c1,0,2.07-2.6.24-2.76-5.69-.51-2.91-3.92-2.52-6.41.22-1.38,1-2.66-1-4-1,4.19-.92,8.1-3.33,11.53-8.58,12.17-7.35,24.83-1.06,37.5,4.05,8.14,10.85,15.05,10.63,26,2.9-4.08,3-7.88,3.52-11.32C645.74,795.44,650.08,786.68,638.9,781ZM791.09,593.59c3.17-3.45.2-6.81.23-10a54.63,54.63,0,0,0-5.7-24.46c-5.78-11.89-13.35-22.68-21.1-33.34-1.45-2-4.2-4.21-2.16-7,2.18-3,5.41-1.75,8.24-.69a7.53,7.53,0,0,1,2.89,1.89c4.23,4.76,9.72,8,14.46,12.15,7.55,6.63,14.32,13.6,17.21,23.72,1.54,5.35,3.2,10.7,4.72,16.26,2.1-1.27,1.69-2.89,1.41-4.5A101.3,101.3,0,0,0,805,545.21c-1.46-3.47-2.23-7.54-5.5-9.9-7.68-5.53-15.16-11.54-23.44-16-5.69-3.08-9-6.45-8.56-13.28-1.55,5-4.72,7.5-9.18,9.29-3.38,1.36-4,4.43-2.11,7.93,3.8,6.9,9.41,12.29,14.38,18.26a76.32,76.32,0,0,1,15.82,31.72C788,579.9,788.12,586.94,791.09,593.59Zm-70.24,77.28a17,17,0,0,0,.29-2.9,5,5,0,0,0-4.69-4.84c-2.45-.08-2.88,2.51-3,4.88a12.35,12.35,0,0,0,3.4,9.12c5.76,6.61,11.53,13.26,19.18,17.88,1.27.77,2.51,1.68,3.78-.24,3.64-5.54,2.57-9.95-3.34-13.28-1.53,2.24-1.16,5-2,8.31-1.9-5.47,3-11.51-4-15.45,5.07,2.75,5.39-.59,5.79-3.25.72-4.67-4.58-13.8-9-15.59-2.91-1.16-4.78.13-6.62,2.69s-1.69,4,.78,5.53c2.45-1.72-.5-5.76,3.09-7.11,1.28,4.27-3.71,8.86,1.82,12.58A6.73,6.73,0,0,0,720.85,670.87ZM706,605.72c-2.08,1.39-1.48,3.19-2.21,4.44a23.48,23.48,0,0,1-2.64,4.18c-5.08,5.54-5,6.31.67,11.17,3.47,3,7.07,5.72,10.69,8.49,5.37,4.08,8.67,10.52,15.15,13.5a5.42,5.42,0,0,1,2.86,3.21c1.15,6.23,6.92,9.12,10,14,1.07,1.72,4,5.72,5.1,4.58,2.06-2.06,1.05-5.86-.11-8.85-.17-.45-.66-.76-.89-1.19-3.64-6.54-9.53-11.06-14.69-16.2C719.23,632.43,709.4,621.33,706,605.72Zm46.75,35.68c2.32-2.36,2.83-5,3-8.18.52-8.21-3.3-15.9-2.58-24.09A27.7,27.7,0,0,0,751,595.48c-3.07-6.93-3.15-14.5-5.73-21.62-3.08-8.49-5.25-17.33-9.11-25.59-1.94-4.17-2.57-5-3.79-5.48C740.88,574.89,746.28,608.12,752.74,641.4ZM370.61,355c-2.65.09-5.36-.49-7.94.43-2.22.8-5.13-.52-6.68,2.36-3,5.55.1,19.85,5.16,23.55,1.06.77,2.45,2.12,3.38.6,1.23-2-1.17-1.76-2.12-2.34-6.47-3.91-7.49-16.57-1.62-20.25,5.12-3.2,18.66-1.13,20.65,4.39,2.83,7.87,8.63,8.32,15,9a33.31,33.31,0,0,1,3.36.78c1.24.26,2.21.76,2.25,2.21s-1,2-2.17,2.32-3.14.2-2.45,2.18c.55,1.61,2.4,1.05,3.51.71a103.78,103.78,0,0,1,14-2.7c2.14-.34,2.5-1.59,1.62-3.16-3-5.35-11.2-11.15-18.16-9.54-4.41,1-8.68.9-10.81-4.35a3.52,3.52,0,0,0-2.11-1.92c-3.07-.57-7,.55-7.19-4.63,0-.78-1.42-.14-2.2-.06C374.25,354.77,372.42,354.89,370.61,355Zm346,438.66c-1.63-2.81-2.25-4.7-2-7.12.49-4.18-3.84-6.31-7.61-4.33-4.34,2.28-8.68,4.59-13.13,6.64-2.71,1.25-5.65,2.83-5,5.89.65,2.84,3.18,5.25,2.85,8.58a3.8,3.8,0,0,1,1-.14c1.13.13,1.52,1.12.72,1.59-2.14,1.24-1.85,2.55-.42,3.9,2,1.91,2.28-.66,3.28-1.39a4.51,4.51,0,0,1,1.79-.8c5.91-.93,2.34-4.23.63-4.92-3.13-1.26-4.21-3.92-6-6.1-.77-.93-2.14-2.3-.36-3.27,1.31-.72,2,.46,2.84,1.76,2.5,3.84,6.81,5.61,10.69,7.6,2.48,1.28,4.47-1.32,6.5-2.64.76-.49,2,.55,2.6-.61-.69-3.45-4-5.53-4.81-8.93C714.16,788.22,712.86,792.78,716.66,793.69ZM342.17,327.36c2.22.62,3.62.14,4.26-2.5.73-3-1.29-2.82-2.88-3.33a17.9,17.9,0,0,0-2.89-.7c-15.87-2.47-32.08-1.82-47.85-5.19-4.84-1-4.72,2.74-5.19,5.41-.64,3.64,2.49,2.1,4.08,2.29,2.31.26,4.67,0,7,.18C313.18,324.76,327.68,326.07,342.17,327.36ZM651,843.67a15.82,15.82,0,0,1,2.67-1.65c3-1.1,4.4-5.1,6.61-5.53,5-1,8.76-3.49,12.42-6.49,3.32-2.72,3.56-6.53.4-10.73-2.86-3.8-3.71,1.07-5.59,1.64-.47.14-1,.05-1.45.29-6.25,3.77-12.54,7.48-18.66,11.46-1.17.77-3.46,2.14-2.47,3.81C646.47,839.09,648.85,841.22,651,843.67ZM749.8,651.83c1.19-2.09,2.32-5.11,1.17-5.74-4.07-2.24-3.42-6.24-4.25-9.51-1.83-7.27-6.31-13.57-7.61-20.94-1.46-8.33-6.67-15.07-9.19-22.93-.37-1.18-1.49-2.66-2.94-2.16-1.71.59-.8,2.18-.48,3.39,1.79,6.87,3.87,13.67,5.35,20.61C734.81,628.46,743.81,639.37,749.8,651.83ZM671.29,769.39c1.62.53,1.89,2.23,2.89,3.28.78.8,1.4,1.11,2.47.2,2.34-2,5.65-10.9,4.63-13.73-.82-2.3-2.23-5.7-5.07-2.71s-8.63,2.91-8.29,8.73c.05.78-.92.62-1.57.72-4.86.76-9.49,5.31-10.17,9.91-.35,2.29,3.94,8,5.46,7.07a54,54,0,0,0,9.55-7.08C673.74,773.4,670,771.49,671.29,769.39Zm18.05-350.95c2.09-.54,4.3,1.29,4.53-3.09.18-3.47-1.34-6.35-1.14-9.64.78-13,0-26.13,4.49-38.71a7.29,7.29,0,0,0-.69-6c-4.08,4.42-4.87,9.71-6.52,14.62-3.58,10.67-.85,21.76-2.15,32.59-.21,1.71-.17,4.23,1.53,5C693.25,414.93,691.63,416.43,689.34,418.44Zm-1.67,194.23c-4.82,3.7-5.87,9.58-9.71,13-5.69,5.07-6.09,11.1-5.28,17.81.22,1.79,0,2.49,2.75,2.41,6.58-.2,10.32-2.64,11.12-9.32.13-1.07,1-2.07,1.63-3.05.88-1.4,3.32-2.92.81-4.36-1.59-.9-3.33.77-4.17,2.56-1,2.24-2,4.54-3.08,6.75-.52,1-2.68,1.6-2.36.78,1.29-3.36-2.74-7.57,1.91-10.29C687.36,625.43,689.11,619.92,687.67,612.67Zm80-53.5c.16,6.5,2.42,12.32,5.2,17.54,5.66,10.63,7.16,21.92,7.09,33.51-.06,9-.89,9.26-9.16,6.12.13,3.68.29,7.25,4.69,8s5.54-2.5,6.19-6c1.74-9.23,2.55-18.45,1.12-27.85C781,578.42,769.9,571,767.71,559.17Zm-146.5-436a2.92,2.92,0,0,0,2.86,2.63c4.28.51,8.57,1.41,12.85,1.35s7,1.26,8.9,4.94c2,3.88,1.17,7.47-1.24,10.76-3,4.17-6.38,8.11-10.85,10.84-2.61,1.59-3.87,4.07-4.88,7,4.56-5,10.31-8,15.92-11.34,3-1.82,5.3-5.53,7-8.84a10.76,10.76,0,0,0-6.07-15.47C637.79,122.4,629.55,122.62,621.21,123.2ZM383.49,352.73c4.56-.28,5.87-1.8,3-5.47a21.07,21.07,0,0,1-4.78-13.62c0-2.31.7-4.94-.71-7.24-.47-.76-.93-1.35-1.91-1.23s-1,.89-.84,1.47c1.38,4.65.59,9.41.95,14.07.23,3-.4,3.36-2.86,3.32-5.31-.07-10.63,0-15.94,0-3.22,0-3,2.16-3.29,4.4-.38,3.14,1.7,2.66,3.44,2.62,4.13-.11,8.3-.76,12.38-.36s8,1.45,8.17-5.15C383.43,348,384.17,350.14,383.49,352.73ZM713.78,540.57c1.46.14.91-1.86,1.72-1.93,5.38-.47,4-4.47,4.4-7.77.71-5.63.6-11.44,1.72-16.89,1.5-7.32,1.67-14.63,2.13-22,.06-1,.74-3-1.78-2.45-1.83.41-2.39,1.43-1.89,3.25,1.54,5.67-.23,11.08-1.65,16.44C715.72,519.52,711.73,529.57,713.78,540.57Zm-38.85,39.17c-4.88-.24-9.49-.65-13.67-3.07a2.09,2.09,0,0,0-2.77.23c-3.94,5.39-11.36,7.54-13.54,14.55-.38,1.2-1,.52-1.82.47-3.68-.26-4.3,2.64-5,5.34-.26.92-1,2,.64,2.2,2.58.34,4.49-.93,6-2.88.4-.51.47-1.3.91-1.74,5.71-5.72,13.27-8.78,20.58-10.51C670,583.45,672.47,582.34,674.93,579.74ZM738,397.37c1.94-2.11,4.38-2.38,6.44-2.84,2.34-.53,3.29-.43,2.31-3.57-1.7-5.44-2.78-11.19-1-17,.86-2.8.26-5.84,2-8.6,1.14-1.82.29-4.09-.76-6.12s-2.38-1.65-2.77-.23c-1.27,4.63-4.82,8.37-5,13.38C738.84,380.73,738.41,389.05,738,397.37Zm-9.09-52.12c-1.71-.35-1.7.6-2,1.64-4.55,15.32-9.81,30.47-13,46.16-.76,3.8-2.51,8.39,1.64,12.36,1,.95,1.35,3.25,3.19,2.48s.67-2.75.43-4.37c-.93-6.17-1.61-12.61-.21-18.58,2.88-12.25,6.81-24.26,10.37-36.35C729.77,347.22,731.2,345.83,728.92,345.25ZM680.71,736c-3.18,3.55-9.64,3.8-8.26,10.49,0,.13-.46.45-.74.53-5.1,1.47-5,6.75-7.37,10.19a2.41,2.41,0,0,0,.31,2.8c.92,1,1.94.28,2.68-.2,5.49-3.56,11.67-6.49,16.09-11.1,2.46-2.56-2.11-7.17-1.92-11.17C681.51,737.28,681.22,737,680.71,736ZM620.16,170.69a74.63,74.63,0,0,1-5.06,5.59c-1.26,1.13-3,2-2.17,3.93,1,2.16,2.93.46,4.43.65s3-2,4.62-.45c1.41,1.31.09,8.75-1.67,9.91-5,3.29-5.18,4.38,0,6.43s5.57,4.8,2.95,9.07c-.6,1-1.76,3.37-.58,3.36,2.52,0,5.44,1.7,7.5,0s-1.19-2-1.7-3.15a3.75,3.75,0,0,1,.52-3.74c.89-1.44.32-2.26-.84-3.33-6.87-6.32-6.58-12.21.82-17.92,1.48-1.15,3-2.16,3.58-4.36C621.22,179.37,621,179.28,620.16,170.69ZM606.64,713.38c-1-1.62-3.23-2-3.32-4.5-.06-1.78-2.1-2.88-3.69-2.58-2.31.43-1.74,3.62-1.23,4,2.88,2.25,1.18,5.76,2.69,8.21,1.82,3,3.84,5.79,4.82,9.16.52,1.75,1.7,2.27,2.92,1.23,2.84-2.42,5.48-5.09,8.1-7.75.27-.28-.07-1.15-.12-1.75-5.58,1.71-2.69-2.42-3-4.37a6.52,6.52,0,0,0-5.34-5.16C605.56,709.3,608.16,712.17,606.64,713.38Zm36-534c15.84-.42,18.46-4.88,21.24-13.71,1.56-5-2.1-9.69-7.23-8.88-4.82.77-9.64,1.79-14,4.33-2,1.17-1.46,2.26-.83,3.62,1,2.14,1.7.18,2.48-.23,3.94-2,7.69-4.6,12.43-4.4,2.6.1,3.52,1.19,2.86,3.86-1,4.19-3.73,6.89-7.26,9C649.23,174.77,645.72,175.93,642.64,179.35ZM617.34,287c-2.94-7.19-3.54-14.54-3.07-22.22.51-8.23,6-13.42,11.25-19.92-10.52,2.33-14.2,9.8-16.58,17.93C606.1,272.57,610.25,280.41,617.34,287Zm85-116.78a10.42,10.42,0,0,0-2-1.14c-9.84-3-18.11-.13-25.63,6.45-6.3,5.52-12.41,11.51-19.52,15.76s-13,10.13-19.93,14.57c-.81.52-2,1.21-1.57,2.77,1.67-1,3.18-2,4.72-2.92a199.88,199.88,0,0,0,29.11-21.32C677.49,175.69,688.36,170,702.3,170.26Zm-32.17,95.58c-9.56-3.17-18.52-5.74-28.58-6.92C653.06,272.71,658,273.89,670.13,265.84Zm37.19,100.54a15,15,0,0,0-1.1,2.52c-1.54,6.41-2.87,12.87-4.56,19.24-1.86,7-2,14.21-2.42,21.38-.07.93.25,2.6,1.42,1.72,2.06-1.55,3,2.23,4.77.7C703.19,396.59,705.58,381.56,707.32,366.38ZM809.4,406.26c3.74-2.15,7.52-4.24,11.21-6.47,2.43-1.47.95-3.92,1.21-5.92,1-7.67-1.56-11.47-8.14-12.08-1.09-.1-2.67-.6-3,.72s.5,2.15,2.11,2.68c5.88,1.93,7,7.28,2.7,11.63-2,2-4,3.86-7,4.29-1.65.24-3.57,1.36-3.23,3.18C805.44,405.68,807.32,406.14,809.4,406.26ZM563.91,381.55c-1.48,3.85-4,5.7-7.9,6.56-3.47.77-4,3.53-2.17,6.48a20.88,20.88,0,0,1,1.56,3.9c.6,1.56,1.59,4.52,3.57,4.2a5.67,5.67,0,0,0,4.69-4.61,3.29,3.29,0,0,0,0-1C562.92,392,565,386.86,563.91,381.55Zm-155,30.63c2.05-.34,4.43.37,5.84-1.88.61-1,.13-1.81-.45-2.7-1.67-2.57-3.86-1.14-5.79-.72a11.79,11.79,0,0,1-6.32,0c-2.39-.74-5.15.38-5.2,2.36-.07,2.94-1.62,2.88-3.47,3.66-2,.85-2.41,2.48-.46,4.23,3.12,2.81,6.31,2.15,10.19-2.65C404.84,412.57,406.13,410.79,408.93,412.18ZM713.57,555.26c-1.41,1.31-1,2.93-.05,4.27,5.23,7.69,7.55,16.43,9.5,25.34.25,1.13.52,3.1,2.34,2.5,1.44-.47,3.23-1.46,2.5-3.65s-1.46-4.06-2.34-6c-2.91-6.46-4.23-13.62-8.34-19.56C716.36,556.94,715.63,555.52,713.57,555.26Zm-213.19-178c-1.35.41-2.84,1.26-2.61,2.61,1.67,9.89,2.34,20,6.06,30.56C505.74,403.35,503.63,385.4,500.38,377.28ZM707.24,512c-2.44,9.84-5.46,19.59-1.21,29.69a2.08,2.08,0,0,0,2.67,1.48c2.16-.44,1.54-2.48,1-3.13-4.28-5.07-1.71-10.44-1.11-15.78C709.05,520.1,709.44,515.92,707.24,512ZM479.76,420.7c1-15.86-16.89-38.73-27.93-45.61C464.12,388.42,476.32,401.79,479.76,420.7Zm7.29-18.36a7.08,7.08,0,0,0,.95,5.8c3.22,5.88,3.18,12.62,5,18.87,1.35,4.58,4.75,13.36,8.32,17C493.05,431.68,497.49,415.07,487.05,402.34ZM362.49,339.2v0c1.32,0,2.65.09,4,0a34.63,34.63,0,0,0,4.4-.67c3-.65,4.75-4.79,3.64-8.39-1.28-4.16-3.55-1.4-5.41-.75a18.18,18.18,0,0,1-9.31.34c-2.82-.49-1.53-3.21-2.12-4.93-.27-.8-.67-1.64-1.71-1.38s-1,1.19-.8,2c.61,3.21,1.85,6.29.7,9.72-1,3,.29,4.59,3.66,4.07A19.74,19.74,0,0,1,362.49,339.2ZM662.8,627.74q-.46,6.69-.91,13.38c-.21,3.23,2.55,3.89,4.61,4.92,1.08.54,2-.22,2.41-1.67C670.73,638.55,668,630.94,662.8,627.74ZM346,333.27c-.6-1.77-1.88-1.43-2.95-1.53-5.26-.52-10.51-1.22-15.79-1.48a243.53,243.53,0,0,1-28.66-2.71c-.87-.14-1.73,0-1.9,1.08s.66,1.47,1.53,1.41c5.68-.4,11,2.24,16.71,1.95a76.18,76.18,0,0,1,19.85,1.14C338.3,333.88,342.1,333.27,346,333.27ZM753.74,559.7c-3.38-7.48-5.28-15.5-10.25-22.07-.73-1-1.38-2.7-3-2-2,.87-.94,2.42-.43,3.84A52.44,52.44,0,0,0,753.74,559.7ZM368.11,372.32c-1.22,5.49-.52,8.77,1.94,9.43s4.94.67,5.38-3c2,1.47,3.2,4.89,6.12,2.31,1.88-1.66-.38-5,2.91-6.51-2.88-.73-5.15-1.06-6.91.3C373.7,377.81,370.91,376.43,368.11,372.32ZM513.89,520.79l1.35-.08c0-9.05,0-18.11,0-27.17,0-3-.31-5.93-.52-8.9-.08-1.11-.69-1.94-1.89-1.78a2.3,2.3,0,0,0-1.49,1.06c-.49.9.1,1.61.92,1.94,3.2,1.27,2.1,3.63,1.38,5.72C510.24,501.45,512.1,511.11,513.89,520.79ZM610,322.91c-8.92-.73-17.87,4.26-19.62,10.63-.36,1.29-.89,2.93.35,3.66,1.43.84,2.26-.59,3-1.77A29.71,29.71,0,0,1,610,322.91Zm188,25.27c-.74-7.9-6.13-12.64-12-17.07-1.87-1.42-4.37-2.29-5.88-.66-1.75,1.89.74,3.85,1.53,5.73.58,1.39,1.67,1.19,2.92,1,2.79-.51,4.87.76,7.17,2.41C795,341.85,795.56,345.55,798,348.18ZM586.71,333.05c2-3.63,5.15-5.92,7.86-8.66a16.88,16.88,0,0,1,10.48-5.18c1.27-.17,2.34-.49,2.49-1.88.12-1.06-.81-1.2-1.63-1.4C597.6,313.85,586,324.12,586.71,333.05ZM408.38,399.76c-.3-.34-.64-.68-.94-1.07-1.9-2.45-13.23-1.7-14.88.93-.83,1.32.05,2.24.58,3.16.64,1.11,1.61,2.72,3,1.87,3.24-2,6.95-1.85,10.36-2.94C407.38,401.44,408.51,401.19,408.38,399.76Zm301.34,198.3c-2.09,10.19,9,30.31,18.28,36.39A87.22,87.22,0,0,1,709.72,598.06ZM814,535.19a48.54,48.54,0,0,0,5,2.85,9.68,9.68,0,0,0,9.46-1c2.58-1.83.59-4.91.13-7.38-.23-1.21-1.1-2.73-2.5-2.76-1.59,0-1.73,1.75-2.18,2.91a15.92,15.92,0,0,1-1.3,3.54C820,537.23,816.91,534.25,814,535.19ZM707.4,250.45c-6.46,3.26-10.62,7.56-15.15,12.21,8.78,2,8.76,1.95,12.07-5.73C705.13,255,706.09,253.19,707.4,250.45ZM600.82,283.12c-1.92-7.13-3.77-14.25-2.41-21.75C593,269,591.49,277.26,600.82,283.12ZM738.52,518c3.66-5.1,3.45-9.71.08-14.86a12.42,12.42,0,0,1-2.07-8c.11-.86.7-2.44-1-2.54C733.52,501.4,736.47,509.54,738.52,518ZM659.84,309.45c-1.34-4.61-3.87-7.44-5.56-10.72-2.77-5.42-8.72-2.15-12.77-4.6-1.25-.76-3.59-4.53-6.78-1.43,2.14,1.62,4.21,4.52,6.28,4.52C649.78,297.24,654.13,303.51,659.84,309.45Zm-297.39,67c1.61-2.71.67-5.52,3.51-6.64,2.12-.84,3.34-2.45,2.15-5.18-1-2.22-2.46-2.57-4.37-2.12a4.55,4.55,0,0,0-3.81,5C360,370.45,361.1,373,362.45,376.48Zm163.39,56.46c.77,11.54,3.32,21.42,5.95,31.28C529.31,454.33,534.22,443.16,525.84,432.94Zm99.85-111.57a70,70,0,0,0,7.29,2.47c2.17.48,3,2.48,4.71,3.41,3.64,2,.84-4,3.76-3.14.51.15,1.72,1.13,1.43-.62-.1-.61-.79-1.68-.93-1.63-3,.91-3.73-1.48-5.05-3.14-.58-.72-1.53-.83-1.8.36-.4,1.79-1.6,2.15-2.94,1.5C630,319.54,628.37,320.88,625.69,321.37ZM738.49,670c-2.37,4.75-2.38,8.67,2.11,11.59.93.61,1.73,2.57,3.18.95a2.76,2.76,0,0,0,.55-3.57C742.56,676.06,741.44,672.74,738.49,670Zm63.76-300.16c.69-3.64,1.41-6.77,1.82-9.94.3-2.25-.69-3.89-3.21-4-1.39-.06-3.14.29-2.79,1.94C798.93,361.8,798.56,366.28,802.25,369.84ZM425.12,401c-.47-1.51-.93-3.24-1.57-4.91-.74-1.95-2.15-.86-2.54-.05-1,2-2.33,2.46-4.45,2.42-1.14,0-2.82,1.08-2.66,2.47.19,1.69,2.33,1.05,3.44,1.83,1.35.95,3-2.29,4.2.15.7,1.45,1.61,1.53,2.74,1S425.07,402.17,425.12,401Zm140.66,17.08c-1.07-3.44.25-6.14,2-8.72.68-1,1.42-2.09-.1-2.88-2.28-1.19-4.5-.32-6.67.54-.92.36-2.25,1.2-1.39,2.06C562.21,411.64,562.76,415.49,565.78,418.07Zm-81.13-19.55c-1.69-9-7.25-16.09-11.81-23.66C477,382.63,478.7,391.61,484.65,398.52Zm20.19,79.73c1.46-9.39-3-15.79-5.56-22.72C500.22,462.88,500.87,470.3,504.84,478.25ZM702.78,807.46c-1,1.76-.58,3.54-2.29,5-1.33,1.12-1.49,4,.67,5.66.79.62,1.73,1.42,2.6.63,1.21-1.1-.12-1.52-.84-2.11-1.68-1.38-1.63-3,.18-4,1.44-.77,3.48-1.67,3.9,1.52.34,2.54,2.29,1.68,3.89,1.35A14.3,14.3,0,0,0,702.78,807.46ZM765.44,554.4c-1.27-7.13-3.33-13.92-8.32-19.43C759.14,541.77,761.18,548.57,765.44,554.4ZM716.17,801.81c-2.66-.7-1.39,5.22-4.71,2.4a2.37,2.37,0,0,0-4,.84c-.89,3.37,4.9,2.45,4.39,6.06-.06.44,1,.76,1.61.14a1.89,1.89,0,0,0,.57-.8C714.56,807.52,716.35,804.86,716.17,801.81ZM765.9,593.5q-4.26-13.66-8.54-27.34l-1.41.46C759.65,575.45,760.19,585.31,765.9,593.5ZM732.58,273.7c2.31-5.6,4.36-11.19-1.37-16C732.76,263,731.52,268.41,732.58,273.7ZM751,384.27c6.71.31,7.31-.5,5.57-6.5-.35-1.21-.26-3.19-2.14-2.48-1.42.54-3,2.16-1.38,3.94C755.58,382.12,753.34,383.06,751,384.27ZM641.31,838.67c.48,3.44,1.51,6.38-1,8.92-.78.79-.23,2.32.94,3a.87.87,0,0,0,1.33-.87c-.83-4.38,1.59-5.11,5.56-4.12C646.42,842.53,645.22,840,641.31,838.67Zm66.1-536.91A50,50,0,0,0,722,287.92C714.91,291,712.29,297.62,707.41,301.76ZM683.62,162.18c6.54-1.52,13.25-1.28,19.94-1.38C696.67,157.6,690.17,160.1,683.62,162.18ZM818.09,564.65c1.46-2.9.4-6.61,4.5-6.31.87.07.3-1.59-.3-2.38-1.06-1.41-1.87-3.34-4.13-2.81-1.24.3-1.13,1.4-.72,2.41C818.51,558.13,817.52,560.88,818.09,564.65Zm-95-245.17c3.6-1.15,4.89-4.64,7.41-6.9a1.5,1.5,0,0,0,.29-2.2c-.87-1-1.78-.45-2.56.21C725.45,312.87,725,316.56,723.07,319.48ZM415.88,389.62c1.44-1.07,5,1.19,5.09-2.75,0-1.05-.65-3-1.58-2.62-2.21,1-4.07,2.76-6.07,4.22C413.89,389.26,414.37,390.24,415.88,389.62Zm1.22,27.89c-2.61.46-5.19,2-7.15-1.45-.65-1.12-2.73-1.1-3.71.62-.47.81-.49,1.46.69,1.82C410.4,419.54,413.86,421.08,417.1,417.51ZM353.64,347c-.14-1.35-.25-2.94-2-2.69-1.38.19-3,.89-2.87,2.79.06,1.54.56,3.28,2.22,3.41C353.16,350.64,353,348.4,353.64,347Zm21.11,15.74c1.11,2.53,1.87,4.3,1.89,6.31,0,1.46,1,2,2.37,1.51,1.08-.39,2.41-.75,1.67-2.37C379.62,365.83,378.87,363.17,374.75,362.7Zm217-48.51c3.15-2,6.77-1.42,10.13-2.24a1.28,1.28,0,0,0,.73-1c0-.33-.75-.95-.85-.9C598.57,311.9,593.88,309.1,591.7,314.19ZM670.14,170c.12.41.24.82.37,1.23,4.27-1.25,7.2-4.74,11-6.72l-.79-1.42ZM393.54,332.2c-1.92,2.44-2.13,6-5.44,7.56a1.22,1.22,0,0,0-.08,2.08c.8.57,1.5-.07,2.1-.67C392.53,338.74,392.82,335.44,393.54,332.2ZM742.6,823.9c2.55-.16,3.18-2.29,4.86-3a1.55,1.55,0,0,0,.31-2.49,4.67,4.67,0,0,0-2.6-1.11c-1.15-.13-1.22,1-1,1.7C744.7,820.85,743.47,822.22,742.6,823.9Z" transform="translate(-1 -1)"/><path d="M1,12c21.5.05,43,.14,64.49.15q63.49,0,127,0c2,0,4.91-1.07,6,1.1a6.12,6.12,0,0,1-1.2,7.38c-1.62,1.55-1.3,3.3-.14,4.95.84,1.22,1.17,2.49.18,3.67-1.42,1.68-2.2,0-3.2-.73a2.73,2.73,0,0,0-3.65,0,2.81,2.81,0,0,0-.63,2.79c.32,2,1.74.8,2.73,1s2.2.62,3.31.88c4.23,1,5.36-.72,5.7-5,.32-4-.88-8,1-12.22,1.26-2.86,2.32-3.82,5.2-3.78q12.75.16,25.5,0c2.58,0,3.43.58,4,3.45,1.11,5.33-.46,11,2.34,16.08.87,1.6-.19,3.18-1.7,4.27-1.24.9-1.72,2-.47,3.3,1,1,1.82,1.79,3.43,1.18,5.18-2,9.78-5.65,15.93-4.8,2.15.29,1.65-2,1.7-3.42.19-5.47,0-10.94.68-16.42.33-2.45.85-3.63,3.47-3.61,11.33.06,22.67,0,34,0,2.64,0,3.73,1,2.69,3.69-.48,1.25-.77,2.69.62,3.59a2.12,2.12,0,0,0,1.85-.09c1.53-.91,1-2.17.42-3.46s-1.13-2.9.62-3.34a9.34,9.34,0,0,1,6.7.35c3,1.49,5.56,2.95,6.67,6.52.62,2,3.06,1.78,4.84,1.35A3.2,3.2,0,0,0,323.66,17c-.71-4.66,1.84-5.17,5.56-4.92s7.33.1,11,.07c1.86,0,3.63-.13,4.74,1.87.95,1.71,2.69,1.54,3.93.69,1.9-1.31,3.62-1.77,3.47,1.09-.13,2.44,3.43,6-1.64,7.34-1.31.33-3.37-.69-3.47,1.57-.07,1.42.66,3.3,2.12,3.69,2.18.58,1.92-1.61,2.38-2.89,1.21-3.36,3.08-1.17,4-.09,2.07,2.5,3.26,2.28,4.48-.59a3.29,3.29,0,0,1,1.72-1.72c2.44-.82,4.34-5,6.64-3.11s-2.28,3.14-2.48,5.46a16.72,16.72,0,0,1-1.61,5.16c-.34.76-1.43.6-5-.16,1.27,7.72,3.82,15.35-2.23,22.71-2.47,3-6.55,2.3-8.26,4.72s2.05,5.76.47,9A7.71,7.71,0,0,1,345,70.75c-5.09,1.52-4.31,5.26-3.61,8.68,1.37,6.65-.27,9.33-7.11,9.9-1.38.12-1.12.73-1.28,1.41a62.88,62.88,0,0,1-1.47,6.31c-1,3-.39,4.06,2.94,4.48,2.95.36,5,4,8.76,2.8.57-.17.62,1.3.3,2.11-.75,1.89-.29,4.35-3,5.28a6.48,6.48,0,0,1-4.35-.1c-1.17-.36-2.51-1.76-3.59-.29a4.31,4.31,0,0,0-.05,4.29c2,4.47,2.67,8.44.05,13.39-2.15,4.05-1.49,9.56,0,14,1.37,4,1.38,7.36-.67,10.9-2.27,3.93-1.9,9.49.23,11.55,2.91,2.8,3,6.07,4.65,9,.87,1.58.11,3.11-.34,4.84-1.74-1.35-.09-4.62-2.77-4.44-2.36.17-3.08,2.59-3.86,4.62-1.47,3.83-.65,7.5.57,11.17s1.81,7.34-.76,10.9a4.48,4.48,0,0,0-.18,5.24c3.64,4.72.57,7.94-2.24,11.2-2.61,3-.78,6,.24,8.72.81,2.21,2.47,4.23,5.81,2.25-1.9,3,0,7.7-4.56,8.64-5,1-5.4-4.35-8.29-6.94-1.93,4.81,2.13,8.18,2.53,12.74-3.3-1.5-4-4.87-6.29-6.42-3-2-5,1.65-7.62,2.1-1.06-2.52,1.26-3,2.13-4.12a6.29,6.29,0,0,0,.62-7c-1.24-2.5-3.34-1.95-5.59-1.89-6.14.16-12.28-.06-18.43-.12-.82,0-2.19-.32-2.4,0-3,5.18-9.82,4.49-13.38,8.68-2.77,3.25-3,9.55-.51,12.63,1.72,2.15,4.42.43,6.63,1.78-1.83.82-2.17,5.22-6,1.25-2.1-2.19-4.66.1-5.36,3.45-1.86,8.93,1.35,16.95,3.74,25.19.67,2.3.36,4.88.49,7.29a4,4,0,0,1-1.11.27c-1.77-.22-2.07-3.87-4.22-2.33a5.12,5.12,0,0,0-1.53,6c1.25,2.77-.43,3.48-2.14,4.35-2.47,1.26-2.67-1.26-4-2.27-5.63-4.38.26-9.3-1.43-13.91,1.88.17,1.47,1.73,2.19,2.45,1.17,1.18,1.95,2.91,4,1.82s1.35-2.47,1.09-4.47c-.47-3.81-1.56-7.75-1.45-11.33.11-4-2.94-6.57-2.65-10.27.11-1.31-1.15-2-2.51-1.58s-2.12,1.57-1.57,2.7c2.54,5.17.06,7.44-4.52,9.2a6.52,6.52,0,0,0-3.59,4.56c-1.48,5.73-5.14,10.64-6.32,16.53-.29,1.45-1.2,2.84-3.2,1.71-6.55-3.71-6.55-3.7-9.66,3.47a18.49,18.49,0,0,1-.69-10.91c1.06-4.77.69-8.13-4.85-9.39,1.58-1.88,2.9.33,4.08-.19.16-.24.29-.36.32-.5.51-2.08,5.54-9.48,7.69-11.11a2.73,2.73,0,0,0,.9-2.68c-.24-4.26.82-8.58-1-12.95,4.2-.12,5.4,3.27,8.13,5.88-.7-4.86-3.14-8.08-5.19-11.45a6,6,0,0,0-1.45-1.23c-1.2,3.83-8,1.21-7.79,6.81.06,1.38-1.1,2.08-2.37,2.06-1.77,0-1.46-1.51-1.46-2.6,0-2.66.2-5.33.12-8-.06-2-.24-4.17-2.82-4.61s-3.86,1.4-4.62,3.58a5.09,5.09,0,0,0-.4,1.93c.16,2.69-.66,4.87-3.62,4.89s-4-1.82-3.48-4.71c.19-1-.53-1.39-1.49-1.5-9.39-1.07-18.51,7.86-17.06,16.82.25,1.55-.32,2.34-1.25,3.43-4.1,4.84-4.56,10,.32,14.28,7.68,6.7,2.64,14.83,3.76,22.2.26,1.75-1.68,1.75-3,1.75-9.83,0-19.65,0-29.48,0-2.64,0-3.44-1.09-2-3.33,1.16-1.75.86-3-.64-4.32s-2.16.28-3.21.86c-2.77,1.52-6.92,1.18-7,6.09,0,1.06-20.18,1.22-20.9,0a6.75,6.75,0,0,1,.75-7.92c1.83-2.36,4.13-3.29,6.91-1.19.82.63,1.15,2.44,2.67,1.59,1.21-.68.59-2.1.69-3.2.5-5.28-.84-10.58.16-15.86a1.55,1.55,0,0,0-1-2c-1.16-.37-2.19.17-2.11,1.33.14,2-1.63,3.18-1.87,5.06-.44,3.39-1.8,5.75-5.9,3.68-1.34-.67-3.48-1.06-3.46,1.15,0,4.3-2.3,8.32-1.12,12.73.91,3.42.4,6-4.21,5.38-3.14-.44-5.85.08-7.6,3.29-1,1.95-2.44,2.31-4.2.15-2.34-2.85-5-2.31-5.81,1.49-.94,4.48-3.42,8.09-5.08,12.14-1,2.4-2.82,2-4.53,2.05-2.23.1-1.93-1.68-2.22-3.14a15.88,15.88,0,0,1,2.43-11.46c2.35-3.9,1-4.79-3-4.59-4.49.22-9,.1-13.5,0-1.87,0-4.07.64-5-2.07-.38-1.11-2-1.35-2.39-.44-1.7,3.95-5.07,2.46-7.77,2.48C41,295,21,295,1,295ZM139.17,186.74c-.86-6.55.62-13.81.89-21.11.13-3.78,1.13-8.5,5-9.46a20.3,20.3,0,0,0,10.16-5.56c2.8-2.79,6.68-1.22,10-2,2.09-.48,1.76,2.43,2.55,3.73,4.54,7.54,5,16.5,6.41,24.69,2,12,4.41,24.09,4.86,36.39.25,6.7,2.89,9.32,8.55,10.5,3.24.68,6.27-.51,9.35-1,2.77-.42,1.74-3.61,2.78-5.37a4.7,4.7,0,0,1,1.19-1.57c3.28-2.31,2.29-5.31,1.83-8.52-1-7.11-4.47-13.78-3.64-21.25.39-3.45.17-6.93.67-10.43a37.36,37.36,0,0,0-1.11-16.8c-1.92-5.76-2.86-11.52-1.86-17.12,2.39-13.31-3-26.08-1.88-39.22a3.85,3.85,0,0,0-.92-2.25c-2.31-3.14-2-6.6-1.18-10.05.3-1.3.75-2.45.25-3.85-2.3-6.44-3.51-13.19-8.25-18.77a17.87,17.87,0,0,0-9.74-6.33c-1.35-.33-3.48-.73-3.63,1.38-.21,2.93-3,4.78-2.73,7.89.11,1.17-.39,3.06-2.13,2.72s-1.9-2.29-1.52-3.72a18.53,18.53,0,0,0,.19-6.26c-.41-6.48-5.39-9.47-9-13.6-1.68-1.89-2.4-2.28-4,0-2.13,3.17-4.79,5.38-8.32,1.42a2.51,2.51,0,0,0-2.7-.94A90.3,90.3,0,0,1,123,56a18.63,18.63,0,0,0-7.64,3.36c-1.74,1.54-1,5.9-1.34,9-.7,5.82-1.16,11.73-1.76,17.48a56.28,56.28,0,0,0,1.19,19.39c1.18,4.61,1,10-2,13.9-6.81,9-2.9,18.33-1.11,27.44.43,2.24,2,4.55,1.55,7-2.18,11.4-1,23.08-3,34.48a14.38,14.38,0,0,0,.23,6c1.13,4.31,0,8.54.13,12.78.12,6.87,1.21,14,7.09,18.77,3.29,2.68,7.21,4.52,11.12,6.31,2.67,1.22,4.42-.07,6.41-1.28s2-2.73,1.3-4.73a5.39,5.39,0,0,1-.14-3.43C139.2,211.07,138.65,199.25,139.17,186.74ZM63.5,59c-1.84-1.27-1.3-3.14-1.13-4.64.53-4.67-4.09-4.67-6.19-6.85-1.43-1.49-3.44.61-5.2,1.11-4,1.13-6.2,5.06-10,5.86-4.21.9-7.65,2.34-10,6.18-.8,1.29-2.45,3.07-4.56,1.28s-2.65-.5-3.81,1.41c-5,8.19-2.2,17.74-5.14,26.48-3.19,9.49-1.48,19.91-.36,29.87.86,7.63-3.74,15.83,2.33,22.92a1.07,1.07,0,0,1,0,1c-3,4.94-.92,10.39-1.15,15.53-.21,4.53-2.71,8.72-2,13,1,6,.41,11.94.71,17.9a6.68,6.68,0,0,1-1.79,5.39c-2.17,2.33-2.57,5.09.86,7,2.62,1.46,3.58,3.89,2.44,6.33-1.94,4.17-1.14,8.47-1.58,12.72-.4,3.89,1.45,5.73,4.68,7.16s5.13-.2,7.48-2.1A11.78,11.78,0,0,0,33.67,216c-.66-6.51.74-13,0-19.31-.77-6.62-.37-13.25-1.38-19.86-1.24-8.13.37-16.17,2.44-24.09.47-1.79.37-3.9,2.14-4.78,2.1-1,4.14.54,5.23,1.9,3.18,3.93,4.12,9.62,9.47,11.9.36.15.18,1.3.48,1.86,4.83,9.22,6.09,20.1,12.49,28.46,3.71,4.84,5.1,10.29,7.22,15.66,3.16,8,6.39,16.24,17.43,15.64.55,0,1.15.58,1.7.92,3.86,2.35,6.61,1.14,7.21-3.26A13.21,13.21,0,0,0,94.71,210c-3.86-4.17-5.66-9.18-7.42-14.39-1.9-5.66-4.05-11.28-7.9-16a4.28,4.28,0,0,1-1.14-2.64c.74-8.37-5.55-14.27-8-21.5A117,117,0,0,1,65.93,141c-.89-4.42,1.13-6.48,5.24-4.8,4.84,2,8.17-.07,12-2.09,4.82-2.52,10.09-3.3,14.16-8.29,2.54-3.12,4.68-5.89,4.85-9.48.48-10.24,1.35-20.46,1.2-30.75-.08-5.92-.52-10.74-6.18-14.49-6.73-4.46-8.41-13.43-16-18-5.18-3.13-9.8-2.87-14.55-2.23-4,.54-1,5.21-2.39,7.68C64.2,58.63,64,58.68,63.5,59Zm146.34-5a64.47,64.47,0,0,0-7.49.06c-4.1.47-6,3.52-6,7.14-.06,3.87,2.58,4.28,5.74,3a1.22,1.22,0,0,1,1.65.7,1.66,1.66,0,0,1-.63,2.18c-1.39.8-2.64,2.17-4.54,1.24-1-.48-2-.65-2.22.83-.19,1.11.17,2,1.4,2.21,3.28.42,3.56,3.1,4.18,5.48,2.17,8.44,7.46,11.13,15.49,7.8a4.24,4.24,0,0,1,2.33-.48,101.59,101.59,0,0,0,17.37,1.06c3.38-.15,9.16-1.27,9.62,3.24.7,6.81,2.39,13.78.8,20.77a19.92,19.92,0,0,0,0,9.4c2.26,8.76,4.24,18.09,1.87,26.55-3.27,11.69,4.23,22.54.68,33.81-.13.4.36.95.36,1.43,0,5.27,1.12,10.61-1.58,15.63-2.54,4.71-1.46,9.05,3.44,11,2.88,1.14,3.1,2.78,3.49,5.16.27,1.68-.1,4.15,1.92,4.81,2.22.72,4.07-1,5.79-2.28a11.64,11.64,0,0,0,2.27-2.56c2.34-3.15,4.54-4.52,6.77.15a2.37,2.37,0,0,0,3,1.24c.8-.26,1.93-.86,1.52-1.64-2.23-4.28,1.43-9-.13-12.45-2.46-5.37-2.49-10.4-1.87-15.82a3.48,3.48,0,0,0-.43-2.4c-4.05-4.6-2.11-9.36-.39-14a14.17,14.17,0,0,0,.83-5.37c-.26-10.74-.49-21.49-.81-32.23-.22-7.09-2.12-14-1.93-21.15s-2.7-14-2.85-21.07c-.12-5.78,3.87-8.53,9.49-7.15,3.67.9,6.74-.8,7.79-4,1.46-4.54,4-4.42,7.2-2.64,2.33,1.29,4.64,1.89,7.13,1.07,1.69-.55,2.74-2.57,4.81-2.35,3.5.38,5.58-1.75,6.26-4.57,1.42-5.85,6.15-10.67,3.81-17.81-1.45-4.42-2.44-6.82-6.83-5.19-1.78.66-2.67.63-4.21-.73-3.16-2.78-11-3.75-13.3-1.74-6.22,5.5-14.15,0-20.63,3.44-.09,0-.3-.11-.45-.18a5,5,0,0,0-4.77,0c-2.14,1.19-4,.59-6-.64-3.9-2.36-12.47-1-14.1,2.36s-4.21,4.33-7.67,4a14.35,14.35,0,0,0-4.44.09C225.72,53.09,217.78,53.53,209.84,54ZM249,260.66c4.4,1.12,5.3-1.58,5.1-4.7-.41-6.46,1.48-11.84,6.48-16,1.2-1,1.67-2.34.63-3.47A6.62,6.62,0,0,0,255,234.1a3.79,3.79,0,0,0-2.54,5.21c2.5,5.27-.6,9.38-2,13.87-.71,2.25-2,3.09-4.5,2.62-2.31-.43-4.46.34-5.1,2.91-1,4.16-1.72,8.36-4.38,12a3.64,3.64,0,0,0,.87,5c1.39,1.06,4,1.31,4.6.11,1.64-3.54,4.16-7.16,3.73-11.1C245.25,261.21,246.3,260.49,249,260.66ZM332.22,60.43c-.74-2.08-1.46-4.09-2.15-6.1-.39-1.13.31-3-1.72-3-2.18,0-1.76,1.92-1.93,3.37-.73,5.91,1.29,11.82,0,17.74-.18.81.11,2.19.81,2.1,3.41-.47,3.54,2.21,4.36,4.22a2.7,2.7,0,0,0,3.18,1.76,2.22,2.22,0,0,0,2-2.45c-.88-4.18,2.91-7,2.91-11.26,0-3.14-1.2-4.87-2.45-6.88C335.62,57.25,334,60.46,332.22,60.43ZM175,262.08c1.14.62,2.23,1,2.85-.12,2.14-3.74,4.49-7.57,4.34-12-.08-2.39-1.68-5.23-4.36-5.34-2.37-.1-2.85,2.82-3.5,4.8a10.43,10.43,0,0,0,0,2.95,2.5,2.5,0,0,1-2.79,2.76c-1.72,0-2.13-1.32-2.31-2.7-.11-.81.07-1.68-.11-2.47-.35-1.54.51-4.41-2.38-3.74-2.22.51-4.54,2.61-3.46,5.18,1.64,3.88,2.93,7.94,6,11.28C172,265.71,173.1,260.32,175,262.08ZM340.7,43.24a11.37,11.37,0,0,1-.23,2.38c-.82,2.38.13,3.48,2.32,4.52,2.45,1.17,3.91.8,5.34-1.42,1.33-2.06,3.13-3.83,4.43-5.92,1.6-2.56,2.09-5.55-.49-7.61-2.89-2.31-9.09-1.51-11,.83a3.06,3.06,0,0,0-.72,2.7A39.93,39.93,0,0,1,340.7,43.24Zm-13.84-1.8c.31,2,.65,5,3,5.37s3.95-1.81,4.3-4.47a5.13,5.13,0,0,1,3.06-4.22c2.11-1,1.56-2.68,1-4.23-.38-1-.81-2.24-2.28-2.25C331.93,31.61,326.76,37,326.86,41.44ZM222,47.59c2.25-.41,2.9-2.83,5-2.68,2.93.2,3.51-1.92,3.93-4.12.34-1.76-.67-4.48-1.38-4.37-2.7.41-5.15-.3-7.69-.64a2,2,0,0,0-.55,1.26C221.55,40.44,220.35,43.93,222,47.59ZM89.33,278.75c.53,1.34-1.19,3.07.46,4.05,1,.61,2.25-.2,3.14-1,2.21-2,3.39-12.93,1.58-15.13a3.4,3.4,0,0,0-2-1.25,1.42,1.42,0,0,0-1.47,1.63C91.92,271.18,88.84,274.7,89.33,278.75Zm156-29.26c2.14-1.59,2.71-3.09,1.55-5.33-1.51-2.92-2.69-6-4-9-.5-1.14-.38-2.81-2.24-2.81-1,0-2.19.25-2.44,1.32-.28,1.24-.89,2.3.42,3.88A38.29,38.29,0,0,1,245.33,249.49Zm-85,25.55a60.58,60.58,0,0,1-2.12,7.38c-1.88,4.26,3.76,2.13,3.86,4.75,0,1,1,1.21,1.88.58a4.65,4.65,0,0,0,1.93-4.78C165.31,279.67,162.82,277.74,160.38,275ZM141,242.37c1.61,2.15,3,3.92,4.28,5.77,1.38,2,2.2,9.63,4.44.33.23-.95,2.06-1,1.88-2.88C147.53,246.39,146.26,239.56,141,242.37ZM283.66,24.31c-.29-1.8.66-4.81-2.27-3.55a5.75,5.75,0,0,0-3.44,6c.28,2,1.11,3.86,2.95,4.15,2.82.45,1.46-2.27,2-3.55A21.08,21.08,0,0,0,283.66,24.31ZM124.41,246.36c0,2.65,8.31,11.36,10.25,11.42a1.34,1.34,0,0,0,1.48-1c.09-.39-.1-1.2-.32-1.26C131,254.15,128.8,249.39,124.41,246.36Zm51.67,36.47c0-2.25,0-4.87-2.41-5-2-.09-2.35,2.52-2.52,4.26a3.24,3.24,0,0,0,3.06,3.8C176.34,286,176,284,176.08,282.83Zm-73.64-33c0-1.67-1.22-1.91-2.39-1.79-2.4.23-3.59,2.3-4.33,4-.54,1.25,1.38,2.06,2.71,2C101,253.87,101.91,251.94,102.44,249.81Zm6,41.69c1.94-.59,2.41-2.51,2.71-4.16.26-1.47-.47-3.4-2.23-3.23-2,.18-2.94,2-3.09,4C105.7,289.8,106.67,290.89,108.44,291.5Zm119.62-55.17a7.26,7.26,0,0,0,1.4-7.13,1.51,1.51,0,0,0-1.27-.08C226.36,231.39,227.05,233.83,228.06,236.33Z" transform="translate(-1 -1)"/><path d="M485,894c-.22-4.15-.55-8.28.3-12.42.62-3-1.1-5.38-2.46-7.87-3.26-6-3.91-10.65,1.42-15.23,2.06-1.77.93-4,1.18-6.08.17-1.35.23-3.06,1.93-2.93,1.85.13,1.5,1.57,1.09,3s-1.15,3.58,1.46,3.86,1.93-2,2.39-3.45c.61-1.94.11-4.48,2.54-5.54,1,.11,1,.75,1,1.43.15,5.51-1.22,11.38,3.95,15.69.65.55.78,1.82,1,2.79.51,2.31,2.34,5.82-.34,6.58-2.34.65-2-3.31-2.59-5.32a4.94,4.94,0,0,0-2.78-3.38c.82,7.52-3,14.87,3.34,21.17A22,22,0,0,1,503,894H491c.09-2.62.22-5.24.24-7.86,0-1.2-.45-2.58-1.73-2.63-1.69-.06-1.28,1.56-1.32,2.62-.1,2.62-.13,5.25-.19,7.87Zm6.06-16.64c.5-5-.23-9.3,1.07-13.48a1.91,1.91,0,0,0-1.06-2.49,1.36,1.36,0,0,0-1.71.56C487.83,864.08,488.65,874.56,491.06,877.36Z" transform="translate(-1 -1)"/><path d="M589.61,30.49a46.17,46.17,0,0,0-7.86-12.34c-2.93-3.17-.53-7.33-.41-11.07.17-5.19,4.89-4.34,7.66-6.08h2c0,3.3,2.23,5.19,5.45,7.07-3,.47-4.52,1.54-4.41,4.41-1.24-2.41-.75-4.64-1.82-6.55-.64-1.13-1.33-2-2.64-1.85A2.69,2.69,0,0,0,585,6.68c-.42,5.09,1.47,9.69,3.42,14.14,1,2.34,3.57,1.85,6.22-1.25,0,2.78,1.33,4.39,3,6,4.68,4.58,6.78,10.06,4.32,16.47-1.52,4,.82,7.7.31,11.48-1.13.28-1.33-.34-1.59-1-.68-1.55.43-4.57-1.95-4.48s-3.82,2.38-3.74,5.09a21.6,21.6,0,0,1-.23,2.39C589.47,49.26,591,41.88,590,35.06c3.18,2.58,1.53,6.49,2.6,9.66.38,1.12.43,2.39,1.74,2.7,1.14.26,1.68-.86,2.34-1.56,1.14-1.22,2.16-2.41,1.57-4.37-.38-1.26.1-1,1.62-2.06,2.1-1.5,1.31-3.83.64-5.91-.49-1.5-.53-4-2.67-3.42s.18,2.5-.21,3.82c-.14.5-.16,1-1.07.78a50.09,50.09,0,0,1-1.2-5.53c-.32-2.92-2.28-4.5-4.66-3.94C587.89,25.89,588.76,28.44,589.61,30.49Z" transform="translate(-1 -1)"/><path d="M240.74,398.78c6.56-3.68,6.34-3.54,10.23,2.51,1.6,2.49,4.75,3.26,7.86,3.38s6.33.08,7.88,4.3a5.13,5.13,0,0,0,6.79,2.64c2.34-1,4.41-.41,4.95,1.62.88,3.37,3.47,4,6,5.24,5.47,2.65,10.83,5.91,16.18,8.3,5.13,2.3,8.86,8.13,15.72,7.16,2.08-.3,4.13,2.48,5.93,4.24,3,3,6.33,4.19,10.22,1.35,3-2.2,4.59-.47,5.49,2.3,1.91,5.92,5.47,7.82,11.89,7.06,3.26-.39,4.94,3.12,7.39,4.71,3.27,2.11,6.11,4.58,10.28,4.26,2.13-.17,2.83,1.66,3.73,2.89,2.91,4,6.49,5.89,11.45,4.56a3.59,3.59,0,0,1,3.24.86c3.38,2.58,6.33,4.73,11.5,3.71,4.88-1,5.87,5.21,6.89,8.45,1.55,4.93,3.54,10,3,15.54-.33,3.65.16,7.23-3.07,10.05-1.11,1-2.14,2.85-1.13,4.55,1.74,2.91,0,5.13-1.25,7.41s-3.6,4.34-1.61,7.55c.87,1.39-.72,2.51-1.72,3.22-6.12,4.35-7.71,11.49-10.76,17.65-1.52,3.09,1.56,5.88,2.26,8.88.43,1.85,2.66,3.14,1.59,5.79-2.53-1.75-2.61-4.86-4.39-6.84-1.43-1.57-2.4-2.38-3.53.13-2.69,6-7,11.22-7.39,18.2-.25,4.41-4.71,6.6-6.36,10.45-1.31,3.07-2.69,5.68-2.32,9.35s-1.15,8.14-4.09,10.31c-5.19,3.85-7.75,9.46-9.72,14.72-2.66,7.08-7.07,13.71-7.44,21.6,0,.67.16,1.54-.18,2-4.55,5.67-3.44,13.52-7.49,19.35a11.73,11.73,0,0,0-1.58,4.66,17.08,17.08,0,0,1-3.64,8.1c-2.76,3.21-6.49,2.73-7.92-1.22-2.09-5.74-4.58-11.46-3-17.86.54-2.14-.36-3.86-2-5.31-3.13-2.8-2.58-5.65.45-8,3.47-2.65,4.89-5.42,2.84-9.76-1.05-2.21.08-4.44,2.12-6.14,2.93-2.44,5.67-5.12,8.5-7.68.43-.4.68-1.57,1.4-1,5.58,4.39,5.47-2,5.65-3.74.43-4.35,2.09-7.93,4.11-11.6,3-5.52,1.25-11.4.73-17.12a27.58,27.58,0,0,0-1.84-6.7c-1.45-4-3.63-4.7-7.37-2.53-1.48-1-.28-2.1-.07-3.06a5.7,5.7,0,0,0-2.12-6.23c-2-1.48-2.76,1.1-4,1.84-2.66,1.54-8.7-.63-9-3.83-.31-3.36-1.62-2.76-3.79-2.08-1.56.49-3.29.35-4.76,1.3-.51.33-1.63.68-1.76.5-2.7-3.71-7-4.17-10.62-6-3.24-1.7-7.09-2-9.84-4.24-5.29-4.29-10.33-2.44-15.58-.25-2.36,1-4.69,2.78-7.45.75-1.82-1.34-3.11.12-4.32,1.19-2.08,1.84-3,4.37-3.77,6.94-1.39,4.44-2.58,9-5.59,12.7a.81.81,0,0,0-.21.45c.11,10.58-8.9,16.76-12.33,25.63-.48,1.24-1.05,2.45-1.45,3.71-.5,1.61-1,3.93-3,2.95-1.54-.76-.68-3.08.33-4.45A47.44,47.44,0,0,0,246,581c1.36-7.29,4.65-12.57,8.35-18.44,4.88-7.76,10-15.51,13.36-24.16.61-1.55,1.86-3.1,1-4.68-1.74-3.35-.31-6.35,1.14-9,4.64-8.35,7-17.52,10.41-26.3s7-17.77,13-25.48c2.15-2.74,1.64-6.95,3.13-10.33.57-1.31-1-1.8-2.28-.85a16.62,16.62,0,0,1-4.58,2.74c3.91-4.17,4.48-8.54,1.05-13.18,1.17-.12,1.64-.3,1.77-.16,5.34,5.7,6.74,5.62,9.69-1.85,1.78-4.52,3.34-9.44-1.77-13.53-2.24-1.79-4.17-2.69-6.33-2-12.38,4-18.42,13.54-21.61,25.13a113.86,113.86,0,0,1-10.25,24.26c-4.09,7.48-5.68,15.92-9.58,23.43a25.54,25.54,0,0,1-2.76,4.74c-2,2.43-3.08,4.69-2.08,8.09.81,2.77-1.27,5.44-2.44,8-2.45,5.28-4.63,10.77-9,16.29.2-6.43,2-11.07,3.9-15.85,4.28-10.78,8-21.79,11.9-32.71.39-1.09.47-2.4,1.13-3.26,8-10.37,8.87-23.55,14-34.95,2.41-5.29,4.23-10.68,6.31-16,2.87-7.41-1.21-13.82-2.39-20.64-.17-1-1.26-2.2-2.12-1.36-2.72,2.69-7.34,3.75-7.74,8.48a10.31,10.31,0,0,1-4.2,8.08,15.62,15.62,0,0,0-6,10.54c-1.74,10.69-6.55,20.59-8.39,31.23-1.27,7.37-6.52,12.32-9.59,18.51-6.41,12.93-17.37,22.54-24.07,35.15a18.79,18.79,0,0,0-2.24,5.48c-.48,2.62-1.28,4.84-3.67,6.65a6.42,6.42,0,0,0-2.1,7.68c1.28,3.14.41,5.73-.94,8.53-3.61,7.47-8.21,14.46-10.85,22.41a4.87,4.87,0,0,1-3.28,3.49c-1.08.27-1.29-1-1.46-1.66a4.56,4.56,0,0,1,1.11-4.85c5-5.41,6.52-12.64,8.46-19.45,1.23-4.34,2.3-8.51,5-12.27,2.36-3.27,4-6.91,1.27-11.05-1.68-2.52-.47-4.69,1.48-6.65a71.63,71.63,0,0,0,9.41-11.55,9.55,9.55,0,0,0,1.39-5.7c0-2-.89-3.56-3.52-2.63A12.1,12.1,0,0,1,197,507.44c-2.55-2-4.55-1.32-5.9,1.6-2.39,5.15-6.74,9.41-5.81,16,.46,3.3-2.66,5.91-4.24,8.81-7.26,13.4-17.55,25.27-20.75,40.75a15.83,15.83,0,0,1-1.36,3.74c-4.86,10-5.27,21.33-9.6,31.57-1.34,3.16-.19,7.43-4.3,10.77,1.06-4.25,1.38-7.43-3.34-8.56-1.42-.33-.33-2.39.27-3.5,5.33-9.88,4.51-20.55,4-31.16a12.19,12.19,0,0,1,.48-5.37c1.9-4.76.44-9.29-.28-14.11-1.09-7.34-1.89-14.85-1-22.4.88-7.33,1.41-14.72,1.76-22.09.15-3.15,1.73-5.16,3.61-7.36,4.71-5.51,11.81-8.17,16.35-13.79a36.36,36.36,0,0,1,8.45-7.6c.81-.54,1.81-1.53,2.51-1.37,4.44,1,5.71-2.43,7.49-5.13s3.45-5.73,6.59-7.21c1.4-.66,1.39-1.77,1.41-2.9.09-6.16.28-12.19-4.22-17.45-3.31-3.86-6.2-5-9.47-.86-6.56,8.23-17.3,11.52-23.18,20.41-1.2,1.82-3.25,2.66-5.22,3.66-3.66,1.85-7.18,3.8-9,8.1-1.54,3.63-4.29,6.14-8.92,3.51-1.28-.73-3.24-.42-4.88-.38-3.15.08-4.47-2-2.63-4,9.54-10.36,10.77-24,14.88-36.46,2.61-7.89,7.27-14.86,9.3-23,2.83-11.43,8-22,12.74-32.77A11,11,0,0,0,156.25,374c-1.77-.68-2.8-1.64-2.87-3.58,0-1.27.25-2.84-1.72-3a4.09,4.09,0,0,0-3.95,1.64c-1.38,1.86-2.69,3.78-4.16,5.58-1.15,1.41-2.39,2.86-4.58,2.39-4-.85-5.66,2.12-6.44,4.85A9.52,9.52,0,0,1,128,388a4.94,4.94,0,0,0-2.53,4.12c0,7.9-4.76,14-7.32,21-2.06,5.56-3,11.41-4.14,17.21-.94,4.74-3.1,8.91-7.64,11.55-4.72,2.74-5.9,7.72-7.11,12.57-.5,2,2.44,1.6,2.35,3.79-4.37-1.51-5.55,1.53-6.69,4.72-3,8.27-7.88,15.35-13.33,22.13a13.13,13.13,0,0,0-2.15,4.43c-.63,2.11-1.26,3.84-3.53,5-3,1.53-2.24,5.31-3.64,7.9-1.31,2.43-2.11,4.4-1,7.93,1.51,4.81-2,10-3.83,14.89s-6.69,6.09-10.41,8.64c-6.62,4.53-7.14,5.7-4.42,13a3.39,3.39,0,0,1-.51,3.59c-4.2,6.23-8,12.59-7.65,20.63.16,3.89-2.29,7.25-3.81,10.72s-.83,5.12,3.07,4.29c4.67-1,7.15,1.23,8.69,5.23,12.25-4.86,17-16.52,22.89-26.72,3.62-6.25,6.78-12.91,10-19.47a5.13,5.13,0,0,1,1.51-2c8.55-5.66,9.76-15.83,14.63-23.75.87-1.43,1.11-3.28,3.31-3s3,1.46,3.35,3.64a51.85,51.85,0,0,1,.2,12.33c-.53,6.47-1.21,13-.79,19.62.27,4.16-.09,8.82,2.17,11.79,3.14,4.13,1.72,7.18,1.22,11.46a117.05,117.05,0,0,1-4.3,20.4c-1.32,4.34,1.41,8.17,4,10,6,4.27,10.71,9.2,13.53,16,.8,1.93,3,2.14,4.72,2.19,3.91.11,4.48,2,3.14,5.13a11.17,11.17,0,0,0-.45,1.42c-.35,1.29-.88,2.83.92,3.31,1.52.4,2-1.06,2.14-2.18.84-5.68,4.84-7.83,10.45-9.14-1.51,5.29,1.62,10.45-.8,15.6a2,2,0,0,0,1,2.95,3.08,3.08,0,0,0,3.68-.54c3.09-2.84,6-5,10.15-1.17,2,1.83,3.7-.62,4.41-2.48,1.87-5,3.36-10,5.23-15,2.89-7.61,4.28-15.75,8.24-23A13.92,13.92,0,0,1,179,596c1.2-1.27,2.72-2.32,4.39-1.14s.52,2.74-.12,4c-5.91,11.28-9.1,23.73-15.32,34.9-2.76,5-.39,13.63,4,17.48,2.08,1.85,3.5,4.36,6.33,5.48,2.62,1.05,4.27.65,5.92-1.72,2.51-3.64,3.26-8,5.26-11.81.69-1.32,1.16-2.82,2.52-3.63a2.52,2.52,0,0,1,1.81-.35c.75.22.68,1,.48,1.68-1.16,3.7-.34,7.91-3.24,11.19-1.52,1.73-2,4.11-.17,5.9,1.65,1.6,2.32,5.38,6.07,3.38a1.93,1.93,0,0,1,2.33.28c4.42,4.42,9.05,2.83,13.63.34,2.54,5.92,5.75,7.77,12.42,7.28a6.77,6.77,0,0,1,5,1.58c4.75,3.78,7.41,3.61,11.74-.84,1.34-1.37,2.57-3.23,4.49-2.15,5.5,3.1,10.52.37,15.69-.79.79-.18,1.61-.78,2.27,0s.13,1.53-.14,2.32c-2.23,6.48-1.54,6.8,5.36,7.71,3.24.43,5.87,1.85,8.9-.73,2-1.73,3.5-3.2,3.47-6.11a6.81,6.81,0,0,1,3.67-6.6c2.4-1.28,3.75-3.74,5.29-5.9,1.11-1.54,2.55-2.55,4.2-1.73,2.07,1,.89,3,.31,4.38-.94,2.28-2.27,4.4-3.26,6.66a2.77,2.77,0,0,0,.36,2.85,2.59,2.59,0,0,0,1,0c1.75-.8,2.94-3.66,5-2.63,2.22,1.12,1.09,3.87,1.18,6a17.13,17.13,0,0,1-.79,7.26c-1.62,4.29.45,6.85,5,8.28,2.51.79,6.45-.25,7.21,3.18.91,4.12-.89,7.79-4.24,10.56-2.9,2.4-5.52,1.91-6.65-1.48-1.26-3.75-3.86-4.38-7-4a17.45,17.45,0,0,1-12.58-3.64,5.58,5.58,0,0,0-2.13-1.21c-10.18-1.71-19.66-5.76-29.51-8.56a13.35,13.35,0,0,0-5.89-.56,11.2,11.2,0,0,1-8.12-1.26,6,6,0,0,0-3.82-.88c-9.09,1.85-17-2.82-25.44-4.2-5.2-.85-9.45-1.56-12.37-6.19-.27-.42-1.62-.42-2.37-.23-11.59,2.93-20.48-2.52-28.72-9.48a22.92,22.92,0,0,0-8.39-4.94c-2.76-.82-5.88-1.59-7.18-4.84-.14-.35-.83-.86-1-.78-4.64,2.41-8.42-2.83-13-1.43-1.31.4-2.74-.59-3.39-1.74a12.25,12.25,0,0,0-9.85-6.61c-2.38-.28-3.94-2.33-5.41-4.13-3.38-4.15-7.26-7.23-13.07-6.08-1.81.35-3.54,0-4.55-1.37-7.33-10-17.71-14.53-29.38-16.84a3.66,3.66,0,0,1-2.74-1.86A4.14,4.14,0,0,0,61.73,608c-5.37-1.13-11.2-1.46-13.12-8.13-5.71-.31-10-4.22-15-6.18-4.28-1.66-8.26-3.75-10.87-8.11-1.75-2.91-2.43-5.51-1-8.4,4.5-9.18,7.39-19.32,15.54-26.35.36-.31.84-.82.8-1.18-.76-6.63,3.5-10.36,7.62-14.62,5.33-5.5,6.61-13.33,9.48-20.19,4.43-10.61,11.09-20.05,15.32-30.77,1.33-3.37.42-6.51,1.1-9.65a41.36,41.36,0,0,1,7.84-17.06A43.23,43.23,0,0,0,87,443.46a34.77,34.77,0,0,1,6.23-11.87,21.61,21.61,0,0,0,4.61-8.78c2.74-12,9-22.47,14.37-33.3,1.59-3.17,1.78-6.85,3.1-9.84,4.49-10.21,4.93-23.3,18.24-27.85,1.45-.49,2.38-2.34,3.81-3.05,2.76-1.38,5.77-4.25,7.87,1.21,1,2.76,4.19,3.06,6.89,3.06,2.36,0,4.81-.59,5.3,2.84,0,.36.81,1,1,.91,5.28-2,6.34,2.38,8.87,5.23a5.9,5.9,0,0,0,7.39.91c2.53-1.66,4.42-.48,6.32,1,2.66,2,4.33,5.78,8.66,4.82.24-.05.8.3.81.48.47,8.5,10.13,4.77,13.49,10.13,1.65,2.65,6.1,3,9.34-.11,1.93-1.83,4-3.51,4.95,1.24a4.86,4.86,0,0,0,5.77,3.75c4.08-.8,8.5.18,12.27-2.27,1.53-1,3.29-1.3,4.61,0s0,2.85-.77,4C237.08,390.33,241.51,394,240.74,398.78ZM232,386.11a8.65,8.65,0,0,0-3.27,4.06c-.61,1.43.66,2.22,1.85,2.26a3.45,3.45,0,0,0,3.69-3.22C234.4,388,233.37,386.82,232,386.11Z" transform="translate(-1 -1)"/><path d="M300.26,585.64c-2,4.41-5.76,6.05-6.66,9.46-1.46,5.55-2.92,11.15-2.51,17,.08,1.19.4,2.46-.49,3.31-6.72,6.45-7.22,15-8.88,23.43-1,5.34-6.52,9.23-10.52,13.26-1.42,1.43-3.39-.24-3.72-2.4-.62-4-1.41-7.39-6.33-8.88-2.27-.68-5.42-3.8-4.63-6.95,1-4.09,5.38-5.56,8.87-6.33,8.83-1.94,14.44-6,14.19-15.88-.05-2,1.36-3.63,2.7-5.21,2.38-2.8,2.33-6.07-.27-8.48-3-2.77-3.22-6.8-5.42-9.9-.95-1.35,0-3.26,1.52-4.29,1.33-.88,3.12-1.32,4.15,0C287.17,589.9,293.08,588.69,300.26,585.64Z" transform="translate(-1 -1)"/><path d="M447.66,572.79c-3.3-3.58-4.76-7.53-8.31-9.54-1-.54-2.05-1.54-3.22-.86-1.38.8-.41,2.08-.22,3.14,1.33,7.65,2.8,15.29,4,23,.55,3.58,2,5.92,5.38,7.65a20.74,20.74,0,0,1,10.57,24.46,8,8,0,0,1-1.21,2.65c-3.5,4.5-8.58,8.21-6.42,15.33-2.86-.66-2.62-2.36-2.89-3.72s-.18-2.65-2.31-2.14c-1.87.44-2.51,1.38-2.23,3.16s.57,3.25.73,4.89c.07.84-.23,1.8-1.19,1.93s-1.37-.76-1.49-1.61a29,29,0,0,0-.29-3c-.67-2.58-1.12-4.44-5.11-4.15-8.47.63-15.67-4.2-18-10.7-.45-1.24-1-2.47.1-3.75,2,.32,2.51,2.08,3.25,3.42,3.41,6.16,8.49,8.57,15.2,7.62,2.68-.39,3.47-1.53,3.08-3.89q-2.46-14.65-5-29.29a7.3,7.3,0,0,0-4.43-6c-10.31-5.09-14-17.24-11.53-25.35a10.71,10.71,0,0,1,2.57-4.2c4-4.28,4-4.29,3.79-9.71,2.08,0,2.17,1.83,2.48,3.05.66,2.62,2.45,3.1,4.56,2.53,2.31-.62,1.64-2.42,1.15-4.08-.42-1.39-.92-2.87.54-4.12,1.51.65,1.58,2.2,1.71,3.3.42,3.58,2.27,5.45,5.61,6.77A14.85,14.85,0,0,1,447.66,572.79Zm6.25,41.76a17,17,0,0,0-8.14-14c-.81-.52-1.53-1.5-2.63-1-1.43.66-.88,2-.72,3.08.82,5.37,1.46,10.8,2.8,16,.61,2.38-.78,6.63,2.18,6.86,3.31.26,4.45-3.93,5.81-6.68C453.84,617.55,453.71,615.92,453.91,614.55Zm-23.77-26c-1.86-8-3.45-15-5.17-22-.33-1.34-.48-3.32-2.29-3.44s-2.83,1.59-3.64,2.93a9.7,9.7,0,0,0-.93,3.79C417.11,578.62,422,583.88,430.14,588.51Zm7.16-1.67c-1.38-6.74-3.09-14.29-4.4-21.92-.41-2.4-.47-4.18-3.58-4-3.71.26-2.06,3-1.86,4.43,1.15,7.81,4.32,15.17,5.11,23.11a3.76,3.76,0,0,0,4.36,3.12C438.89,591.13,437,589.1,437.3,586.84Zm6.06,40.31c-1.27-9.33-2.53-18.66-3.86-28a5.41,5.41,0,0,0-1.13-2.19,2.49,2.49,0,0,0-2.6-1.08c-1.44.33-.69,1.58-.83,2.46-.54,3.43,1.25,6.46,1.63,9.74.75,6.41,1.6,12.8,2.49,19.18.17,1.25.44,2.88,2.27,2.63A2.15,2.15,0,0,0,443.36,627.15Z" transform="translate(-1 -1)"/><path d="M526.45,175.62a6.14,6.14,0,0,1,3.21,5.32c.37,4,2.91,2.57,5,2.51,3.57-.11,1.38-2.63,1.51-4,.17-1.69-1.31-3.49.63-5.53,2,2.74,2.08,6.06,3.07,9s1.65,5.46,3.81,7.85c2.44,2.69,3.5,6.37,3.74,10.13.21,3.3-1.23,3-3.83.67,2.13,8,.93,15.82,8.7,21,4.89,3.29,6.74,15.6,2.34,21.13a9.81,9.81,0,0,0-1.84,9.38c.41,1.42.78,2.94-.95,4.37-1.53-.9-1.78-2.5-2-4-.23-1.39.23-3.49-2.29-2.6-1.64.58-4.28.48-3,3.8.77,2,1.57,5.74-.4,6.15-2.89.6-2-3.27-2.37-5-.54-2.68-1.79-3.27-4.15-3.81-6.46-1.47-7.73-3-7.22-7.78,2.46,1.11,3.68,3.78,6.42,4.55,3,.83,4.22.49,3.47-2.89-1.89-8.54-4.15-17-4.84-25.8a3.4,3.4,0,0,0-2.21-3c-8.1-4.31-12.1-12.78-9.27-21C526.21,189.4,529.26,183.07,526.45,175.62Zm6,16.54c1.23,6.14,2.59,13.06,4,20a5.32,5.32,0,0,0,.89,1.78c1.16,1.71,3,1.4,4.5,1,1.79-.48,1.14-2.09.89-3.34q-2.1-10.44-4.25-20.86c-.4-1.92-1.34-3.54-3.59-3.43C532.23,187.42,532.48,189.52,532.43,192.16Zm15.79,51.4c-1.11-6.35-2.48-12.68-3.22-19.07-.41-3.6-2.52-5.7-5.31-5.16s-1.48,3.74-1,5.83c1.43,6.28,3.07,12.53,3.84,19,.2,1.65-.46,4,2.56,3.74C547.69,247.59,548.33,245.91,548.22,243.56ZM532.89,212a101.64,101.64,0,0,0-3-17.62c-.17-.64-.22-1.37-1.06-1.43s-1.41.63-1.87,1.36C523.92,199.12,527,209,532.89,212Zm14.94,12.78c1.7,5.75.69,11.74,3.8,17.18C555.74,235.72,554,227.81,547.83,224.76Z" transform="translate(-1 -1)"/><path d="M765.09,180.46c3.3-4.51,2.42-9.32,4.49-13.82,1.11,4.61-.18,8.49-1,12.36-.84,4.11,0,5.14,3.9,3.59,5.4-2.14,10.6-4.81,15.92-7.16,1.21-.53,2.78-2.26,3.86-.36.78,1.37-.5,3-1.71,3.8-3.58,2.4-7.31,4.58-11,6.84-3.34,2.06-6.69,4.57-7.29,8.47a35.44,35.44,0,0,0,1.16,16.24c1.51,4.72,3,9.47,4.25,14.25.31,1.14.68,3-1,3.44-2.13.51-1.52-1.61-1.94-2.69-2.54-6.48-5-13-7.62-19.44-.47-1.16-.82-2.85-2.43-2.83s-1.55,1.71-1.93,3c-.69,2.26-2.4,4.16-2.33,6.74-.47-4.31.46-8.39,1.68-12.68-5.51-.91-10.24,1.35-15.2,2.5-1.75.4-4.55,2.65-5.69.08-1-2.33,2-3.4,3.67-4.64a19.18,19.18,0,0,1,3.37-2.14c12.32-5.78,12.84-12.11,9.31-24-1-3.35-1.89-6.72-2.92-10.06-.44-1.42-1.49-3.23.6-3.72s1.94,1.84,2.44,3.11C760.11,167.4,762.44,173.55,765.09,180.46Zm6,27.48c-3.63-8.53-2.55-16.08,4.43-23.32-8,5.43-10.54-.9-14.13-5.52,2.39,8.93-2.14,14.2-9.49,18.81C763.39,196.26,763.39,196.26,771.05,207.94Z" transform="translate(-1 -1)"/><path d="M287.13,239.84c0,8.24.62,16.54-.19,24.69-.7,7.05,1,13.81.9,20.73,0,1.62,1.53,3.16,3,3.79s2.55-1.11,3.37-2c4-4.62,7.85-9.44,11.81-14.13q6.42-7.58,13-15c.62-.71,1.25-1.62,2.84-1.36-1.32,8.25.56,16.67-1.37,25,.42-5.41-4.84-10.15-1.77-15.88-9.15,9.4-16.5,20.05-23.29,31.15l-1.35-.9,5.35-10c-4.84,2.28-6.15,6.63-9.62,8.87-3.26,2.1-4.15.86-4.6-2a15.71,15.71,0,0,1,0-4.49c.43-3.06-.49-5.15-3.81-5.86-1.73,1.66.32,4.49-1.79,6.49-2.7-3.57-3.82-7.61-4.83-11.75-.55-2.27.58-2.26,2.1-1.86,3.65.94,5.57.1,5.28-4.19-.17-2.59,4.55-5,.38-7.85,2.57-7.54,2.6-15.46,2.75-23.36Z" transform="translate(-1 -1)"/><path d="M395.35,279.25c-3.74-.72-7.5-1.34-11.2-2.19-5.45-1.25-6.62-.45-8.07,4.85-1.13,4.08-2.76,8-4.19,12-.29.8-.77,1.58-1.71,1.55-1.54-.06-1.77-1.52-2-2.52-1.11-4.84-2.1-9.7-3-14.57-1-5.35-1.85-5.9-7.43-4.85-3.4.64-6.75,1.67-10.28,1.49-1,0-2.09.4-2.58-.81s.4-1.85,1.11-2.55c3.91-3.85,7.7-7.82,11.78-11.48,2-1.8,3-3.27,2.64-6.27-.62-5.24-.34-10.58-1.77-15.76-.3-1.09-.63-2.93,1-3.42,1.24-.36,2.05,1,2.69,1.91,2,2.8,4,5.69,5.81,8.62,1.55,2.48,3.43,2.9,5.85,1.38,4.06-2.54,8.14-5.07,12.18-7.65,1-.63,2.12-1.65,3.12-.86a2.85,2.85,0,0,1,.28,3.7c-3.17,4.66-3.4,10.36-5.71,15.29-1,2.14-.63,3.53.94,5.28,3.63,4,6.87,8.42,11.1,11.93,1.23,1,2.43,2.45,1.82,4.32C397.35,279.89,396.35,279.88,395.35,279.25Zm-45.79-9c4.68,2.27,8.41,1,12,.38s4.89.38,5.13,3.79a63.67,63.67,0,0,0,4,16.62c1.73-4.72,2.94-9.5,4.4-14.2.72-2.3,1.32-4.53,5.12-3.05,3.24,1.26,7.08,1,11.06,1.4-1.6-4-4.58-6.55-7.12-9.2-3.46-3.6-3.45-7.17-1.8-11.38,1.42-3.61,3.18-7.15,3.73-12-4.72,2.85-9.09,4.89-12.67,7.87-2.41,2-3.14,1.19-4.53-.63-2.13-2.77-4.42-5.41-7-8.52a8.88,8.88,0,0,0-.27,2.44c2.56,9.43,1,17.47-7.65,23.2C352.42,267.94,351,269.13,349.56,270.23Z" transform="translate(-1 -1)"/><path d="M879.42,452.58c2.38.76,3.3-.47,3.51-2.61.41-4.13.78-8.26,1.2-12.39.16-1.55-.61-3.35,1.55-4.95.92,6.57-.86,12.56-1.59,18.57-.53,4.34-.16,8,2.35,11.79,3.6,5.36,2.71,15.59-2.06,19.78-3,2.63-4.47,5.32-4.63,9.13,0,.93.1,2.36-1.27,3-1.5-1.48-.63-3.15-.57-4.72s1.59-3.65-1.53-3.51c-2.09.09-5-.49-4.46,3.41.17,1.3.75,3-1.45,4.29a20.53,20.53,0,0,1-.43-3.69c.21-3.18,0-5.53-4-6.66s-7.29-7.93-6.79-12.11c2.25,1.12,1.72,3.52,2.6,5.1a12.38,12.38,0,0,0,4.21,4.76c2.77,1.77,3.3.94,4.09-2,1.61-6,1.24-12.19,2.29-18.21,1.48-8.44,1.37-16.62-2.07-24.81a9.8,9.8,0,0,1,1.79-10.8c3.65-3.64,1.84-9.37,5.52-13.28.07,1,.17,1.8.16,2.57,0,2-2.82,4.52.46,5.81a6.26,6.26,0,0,0,8.66-4.1,12.52,12.52,0,0,1,2.08-4c-1.56,5.55.09,11.56-2.72,17.49-1.42-7.4-2.05-7.86-6.85-6.44a4.38,4.38,0,0,0-3.39,4.36c-.44,8.33-2.23,16.88,3.37,24.36-1.14-.88-2-2.18-3.68-2.25-2.4,10.24-2.45,20.66-3.79,30.93-.32,2.53.86,3.23,3.2,2.85,4.22-.69,3.89-4.06,4-8.32,1.12,2.58.16,5,2.22,5.35s3.1-1.84,3.77-3.44c1.78-4.26,2.15-8.65.09-13-.39-.83-.44-2.22-1.75-2.07s-1.56,1.48-1.67,2.66c-.21,2.14,1,4.62-2.14,6.73C880.7,465.24,882.28,458.8,879.42,452.58Z" transform="translate(-1 -1)"/><path d="M805.13,246.75c2.3,6.42,2.18,12.24,2.73,18,.18,1.82.12,4.22,1.84,4.82,2.23.77,2.54-2.07,3.74-3.29,1.95-2,2.28-5.21,5.45-7.06-.64,4.3-3.47,6.95-5,10.19-.62,1.29-2.42,2.4-1.54,3.95,1,1.74,3.08,1,4.55.8,4.09-.53,8.14-1.37,12.17-2.26,1.38-.31,3-1.88,3.8.17S831,274.1,830,274.61c-4.17,2-8.68,3.27-12.74,5.43a12.61,12.61,0,0,0-7.06,11.85c.18,6.79-.82,13.62.65,20.39.29,1.32-.28,3-1.74,3.13-2.1.17-1.54-1.84-1.48-3,.17-2.88-.66-5.58-1.05-8.36-1.27-8.86,1.73-16.75,6.09-24.22.75-1.27.87-1.86-.45-2.76a20,20,0,0,1-6-7.34c-2.33,5.44-7.4,6.79-12,9.14,1.29,2,3.12,1.14,4.52,1.15,3.66.05,5.55,2.14,6.25,5.31.23,1,2.28,4.68-2.35,2.75-1.61-.68-2.85,2.47-5,3.54-.24-2,1.48-2.84,2-4.18s2.33-2,1.66-3.32c-.79-1.58-2.69-1.94-4.38-1.78-4.29.41-8.55,1-12.84,1.44-1,.11-2.53.74-2.83-1-.21-1.16.93-1.64,1.85-2,3-1.27,6.12-2.51,9.18-3.78,11-4.52,13.33-8.79,11.54-20.59C803.28,253.44,802.35,250.32,805.13,246.75Z" transform="translate(-1 -1)"/><path d="M798.11,49.57c1,4.94-.13,9.79-1.37,14.53a9.5,9.5,0,0,0,1,7.51c3.07,5.79,4.71,11.78,3.28,18.52-1,4.85-2.57,8.89-7.79,10.36-2.67.76-2.54,3.2-3.08,5.15-.72,2.57-.49,5.4-2.1,8.62-1.21-3.31,0-5.67.2-8,.33-4.68-.8-6.18-5.29-4.93-3.67,1-3.33-.68-2.66-2.88C783.93,86.5,785,74.05,788,62c.68-2.72-.4-5.29-1-7.83-1.21-5.23-1.7-10.1,2.76-14.29,2.26-2.13,2.43-5.39,3.26-8.25.46-1.55.35-3.33,2.44-4.47,1.15,2.25,0,4.31-.63,6-1.39,4.09.74,4.1,3.68,3.93,1.07-.07,2.4-2.33,3.22,0,.52,1.45,1.46,3.06.08,4.72a8.14,8.14,0,0,0-1.92,5.66c-1.38-1.81-.9-3.09-1-4.26s1.26-2.71-.78-3.36A4.52,4.52,0,0,0,793.55,41c-2.4,2.3-3.79,17.11-1.95,20,.59.93.91,2.43,2.37,2.23s1.31-1.79,1.58-2.81C796.5,56.87,797.27,53.21,798.11,49.57Zm-4.17,20.84a9.2,9.2,0,0,0-2.76-5.9c-1.73-1.59-2.2-.75-2.5.95q-2.67,15.41-5.32,30.8c-.25,1.49-1.51,3.66,1.23,3.86,2.06.15,4.86-.07,5.09-2.89A197.46,197.46,0,0,1,793.94,70.41Zm2,2.69c-2.88,6.76-3.24,13.68-3.82,20.51-.12,1.36-1.5,3.63.62,4.25,1.76.52,3.38-1,4.55-2.49C801.24,90.23,800.75,78.91,795.91,73.1Z" transform="translate(-1 -1)"/><path d="M823.18,231.08c-2.3-2.07-1.68-4.16-1.69-6,0-4.8-.15-9.61.23-14.38.24-2.93-.26-4.29-3.82-3,1.07-3.05,7.17-4.58,1.19-8.42,6.76,1.4,3.34,7,5.41,10.67,1.71-4.11,3.48-7.93,8.67-9.05-10.13-1.55-7.14-8.67-7.25-15.06-2.93,11.48-9.72,15.23-20.45,11.24,3.37-1.61,7.3-1.15,10.84-2.76,3.75-1.71,6.36-3.9,7.23-8,1.07-5,2.06-10,3.37-15,.32-1.2,0-3.73,2-3.4s.87,2.35.74,3.74c-.64,7.08-1.22,14.15-1.87,21.76,6.19-2.13,9.81-7,14.65-10.17-1.88,3.73-4.89,6.34-8,8.9-1.47,1.22-4.26,2.23-3.52,4.22s3.54.78,5.43.9c2.49.17,5,0,7.49.1.84,0,1.78.14,1.87,1.19s-.88,1.22-1.66,1.45l-7.19,2.08c-7.27,2.11-10,5.67-11,13.11C825.31,220.41,824.17,225.51,823.18,231.08Z" transform="translate(-1 -1)"/><path d="M462.76,264.5c-4.84-4.57-5.7-11.53-10.32-17.07-1.26,5.3-2.92,9.86-3.28,14.51-.39,5-3.14,6.46-7.27,7-2,.27-5-1-5.46,2-.42,2.56,2.37,3.35,4.3,4.09,3.69,1.41,4.84,3.79,4.37,7.71s-.1,7.82-.1,12.87c3.91-3.8,6.56-7.1,9.9-9.72,2.64-2.07,4.65-1.9,7,.19a35.69,35.69,0,0,0,9.89,6.16c.51-4.2-1.62-7.46-2.91-10.63-1.72-4.19-1.18-6.39,2.94-8.2a12.81,12.81,0,0,0,6.11-5.64c-4.83-.59-9.42-.61-14.79-3.3,6.4-.52,11.43.51,16.37,1.51,3,.59,2.81,2.42.57,4.16-1.84,1.43-3.46,3.28-5.51,4.23-4.47,2.08-4.88,4.71-2.83,9,2,4.09,3,8.64,4.67,13.8-5.89-2.12-10.17-5.26-14.37-8.22-3-2.14-4.57-1.68-7.29.28-3.44,2.47-5.51,6.22-9,8.56-.79.54-1.46,1.58-2.57.81s-.66-1.74-.46-2.72c.28-1.3.45-2.62.78-3.9,2.63-10.07-3-15.42-11-19.62-1.14-.6-3.47-.61-3-2.69.35-1.53,2.21-1,3.44-1.32a42.75,42.75,0,0,1,9.23-1.74c2.7-.14,4.27-2.14,4.91-4.88,1.27-5.48,2.72-10.91,4-16.37.55-2.26,2-2.67,2.84-.66C456.69,251.38,460.18,257.69,462.76,264.5Z" transform="translate(-1 -1)"/><path d="M366.64,30.65c7.15-2.2,6.33-1.38,8.65,5,2.56,7-1.39,14.16,2.17,20.67a2.08,2.08,0,0,1-.64,2.67c-3.4,3.23-4.52,7.19-4,11.76.11,1-.06,2.08-1.35,2.28-1,.16-1.38-.69-1.77-1.42-.08-.15-.12-.35-.24-.43-10.73-7.42-2.79-15.91-1-23.7C370,41.36,370.44,35.92,366.64,30.65Z" transform="translate(-1 -1)"/><path d="M297,351.2c.17,1.71,2.64.31,1.89,1.65-3.65,6.55,1.36,11.49,3,17,.68,2.33,2.29,4.38,3.4,6.6.41.81.3,1.75-.68,2a1.83,1.83,0,0,1-1.58-.8c-2.73-7.82-8.61-14.4-8.76-23.28-.06-3.82-2.92-7-4-10.61-.41-1.34-1.73-3.19-.37-4.18,1.78-1.28,2.86.91,3.93,1.95A116.28,116.28,0,0,0,308,353.43c-2.61-6.21-8.35-9-9.65-14.72,9.22,9.34,16.84,20,25.81,29.68-5.13-1.72-8.85-5.57-13.05-8.61a83,83,0,0,1-8.7-7.41A4.7,4.7,0,0,0,297,351.2Z" transform="translate(-1 -1)"/><path d="M504.94,322.46a3.12,3.12,0,0,1-1.49,2.6c-4.85,3.41-2.95,6.95-.29,10.53.2.26.47.48.69.73,1.5,1.72,4.29,3.74,3,5.73-1.62,2.59-4.2-.32-6-1.07-4.14-1.73-6.92-1.29-8.88,2.95a28,28,0,0,1-2.56,3.66c-.49.71-1,1.38-2,1.2-1.34-.24-1.25-1.35-1.33-2.32a8.94,8.94,0,0,1,0-2c.84-5.24-.49-9.1-6.27-10.37-2.45-.53-2.14-2.23-.47-3,5.15-2.28,7.82-5.61,6.85-11.55-.4-2.43,1.56-3.29,2.88-1.24,3.42,5.3,7.88,4.36,12.69,3C503,321,504.56,320.53,504.94,322.46Zm-17.5-1c2.06,6-.93,8.5-4.36,11.36,8.19.94,3.6,7.64,5.71,11.4,5.34-6.39,5.34-6.39,12.16-6.67-1.07-3.56-4.32-6.51-2.86-10.69.24-.7-.75-1.13-1.37-1C493.31,326.79,491.37,324.11,487.44,321.5Z" transform="translate(-1 -1)"/><path d="M458.69,525.88a14.07,14.07,0,0,0-4.41-7.1c-3.95-3.69-5.82-7.88-2.4-13.09,1.45-2.21,2.45-4.69,1.33-7.59-4.3.29-6.7,6.17-11.64,4.06-1.84-.79-2.48-2.75-3-4.93,3.21,4.66,6.43,2.24,9.51.47,2.15-1.24,4.1-2.83,6.25-4.09,1-.6,2.21-2.14,3.42-.85a3.15,3.15,0,0,1,0,3.77c-2.11,3.09-2,6.92-3.68,10.19-1.89,3.65-1.84,7.2,1.93,10.21,3.08,2.44,4.16,6.82,8,8.76a1.92,1.92,0,0,1,.82,2.62c-.73,1.29-2.08.79-3.14.51-5-1.3-10.09-2.23-14.78-4.2-3.51-1.48-3.87.09-4.62,2.63-1.33,4.53-2.84,9-4.38,13.47-.34,1-.51,2.72-2.11,2.18a2,2,0,0,1-.62-3.32c4.19-4.21,3.73-10.15,5.84-15.12,1.41-3.33,2.68-3.92,5.9-2.49C450.35,523.53,454.18,524.43,458.69,525.88Z" transform="translate(-1 -1)"/><path d="M203.9,241.71c-.25,4,1.42,6.94.31,10.42s2.23,5.62,4.44,7.7c2.81,2.63,4.06,13.42,1.67,16.43-.57.73-1.2,1.26-2,.77-1.68-1-4.38-1.64-4.22-3.8.54-7.19-5-10.76-8.68-15.4-1.18-1.51-1.84-2.74-1.14-4.38s2.32-1.8,3.82-1.15c3.08,1.33,3.58-.07,3.81-2.86C202.06,247.14,201.57,244.51,203.9,241.71Z" transform="translate(-1 -1)"/><path d="M341.23,149.26c-1.6-4.5,2.29-7.37,3.94-11,.7-1.55,1.87-1,2.95-.44,3.21,1.56,4.21,0,4.27-3a8.6,8.6,0,0,1,.24-1.48c.39-2.07,1.36-4.36,3.57-3.92,1.82.37,1.94,2.68,1.46,4.68-.39,1.59-.2,3.31-.49,4.93-.43,2.4,1.41,6.92-4.55,3.81-3.08-1.61-4.25,1.88-3.4,4.56,1.12,3.53.59,6.86,0,10.31a3.68,3.68,0,0,1-2.69,3.23c-1.65.47-2-1.14-2.93-2.06C340.94,156.17,340.93,152.93,341.23,149.26Z" transform="translate(-1 -1)"/><path d="M449.44,334.26c1.53-.52,2.89-2.29.59-2.24-6.17.13-7.07-4.47-9.32-9.17-2.56,4.64-.15,12.38-10,11.16,6.4,3.43,7.37,13,3.18,18.11a11.38,11.38,0,0,1-.1-7.59c1.05-3.41.66-6-3.49-6.87-1.23-.25-2.84-.6-2.86-2.28a3,3,0,0,1,2.49-2.8c6.74-.43,7.3-5.38,8.15-10.36.22-1.31.09-3.46,1.95-3.62,2.06-.18,1.87,2.1,2.27,3.33,1.5,4.6,3.9,7.34,9.33,6.65,2-.25,5.61-1.46,5.91,1.5.27,2.74-3.24,3.76-5.72,4.63-.64.22-1.55-.29-2.34-.46Z" transform="translate(-1 -1)"/><path d="M327.82,409.26c-5.1-2.19-6.28.7-7,4.23-.26,1.3-.52,2.61-.85,3.89s-.73,2.89-2.37,2.66c-1.48-.21-1.08-1.75-1.14-2.9-.1-1.82-.4-3.63-.51-5.45-.33-5.46-2.49-8.75-8.65-7.69a2.36,2.36,0,0,1-2.86-1.34c.05-.19.05-.46.15-.5,8.67-3.48,11.69-9.85,9.65-18.83-.17-.76-.43-1.74.72-2a1.86,1.86,0,0,1,2,1.11c.46.87.64,1.9,1.18,2.71,2.41,3.65,4.43,7.89,10.12,7.23-5.2,2.33-8.26-.29-11.17-5.33-1.77,5.44,1.8,12-6.21,14,9.55.67,4.53,8.34,7.81,11.7,2.16-1.6.44-6.31,4.32-6.88C324.9,405.63,326.28,407.06,327.82,409.26Z" transform="translate(-1 -1)"/><path d="M401.34,184.29c2.91,0,3.24,1.19,3.64,2.54a82.69,82.69,0,0,0,2.68,8c3.13,7.74,5.69,8.61,13.39,5,2.1-1,5.11-4.37,6.28-2,1.37,2.73-3.21,3.17-5.22,4.37-2.3,1.38-4,3.38-6.79,5.63.9-3.34-.17-4.26-2.65-3.9s-3.18-2-4.87-3.44c-.84,1.93-1.33,3.88-2.41,5.4-2.58,3.6-5.64,7,2.44,6.79,1.56,0,2.83,1.55,3.54,3.79-3.17-.66-5.36-3.26-8.71-2.63-3,.55-5.06,3.16-9.78,3.14C404.2,207.68,408.85,197.38,401.34,184.29Z" transform="translate(-1 -1)"/><path d="M191.12,331.3c.28,4.14-4.27,11.27-8.23,13.2-2.39,1.16-4.64,2.58-6.95,3.88-.71.41-1.49,1.07-2.25.46a2.14,2.14,0,0,1-.62-2.71c3.89-6.65,7.19-13.93,15.74-16C190.82,329.62,191,329.69,191.12,331.3Z" transform="translate(-1 -1)"/><path d="M325.21,674.54c-.33,4.36,3.09,7.57,3.08,11.6s-5.78,12.25-9.67,12.24c-2.59,0-5.39-1.28-4.77-4.89a7.55,7.55,0,0,1,3.59-5.65c4.05-2.36,7.14-5.38,6.71-10.67C324.08,676.33,324.83,675.42,325.21,674.54Z" transform="translate(-1 -1)"/><path d="M248.89,12.26c4-.71,5.2.88,4.16,4.65a26.34,26.34,0,0,0-.87,5.86c-.09,1.85-.11,3.3-2.68,2.72-2.06-.46-2.66,1.35-3.71,2.63s-3,2.17-4.32.94c-1.52-1.41.13-2.79,1.25-3.61,2.86-2.08,2.31-4.69,1.82-7.58C244,14.62,243.75,11.15,248.89,12.26Z" transform="translate(-1 -1)"/><path d="M345,97.58c-.43-4.92,2.82-7.91,3.06-11.77,0-.24.79-.64,1.17-.6a1.87,1.87,0,0,1,1.59,2.16c-.16,3.34.42,5.92,4.47,6.36,1.59.18,1.49,1.2.75,2.54-1.67,3-5.16,4.87-5.27,9,0,1.31-1.74,1-2.68-.06C345.84,102.77,344.69,100,345,97.58Z" transform="translate(-1 -1)"/><path d="M386.52,49.2c0,2.49.06,5,0,7.45-.05,1.38.44,3.16-1.77,3.49a5.38,5.38,0,0,1-4.6-1.36c-1.91-1.72.22-2.51.91-3.59,1.42-2.23,2.34-4.27,0-6.65-1.77-1.81-1.71-4.25-.89-6.55s2.33-4,4.69-3.7c2.6.34,1.45,2.86,1.59,4.46.18,2.14,0,4.3,0,6.45Z" transform="translate(-1 -1)"/><path d="M273.74,355a22.3,22.3,0,0,0-2.95,0c-2.61.35-3.76-.21-2.68-3.16,1.35-3.69,2.33-7.52,3.62-11.23.32-.93.42-2.66,2-2.19a3.07,3.07,0,0,1,1.69,2.23c.4,5.42,1.43,11,.63,16.27-.77,5-3.1-.45-4.88-.39l2.75-.83Z" transform="translate(-1 -1)"/><path d="M228.91,565.38c-4.77,8.65-3.65,20.89-15.6,25a4.67,4.67,0,0,1,1.71-4.79c4.23-2.4,4.74-6.37,5.55-10.46.59-3,1.16-6.21,5.36-6.73C227,568.24,227.92,566.43,228.91,565.38Z" transform="translate(-1 -1)"/><path d="M221.21,264.67c-.18,1.15.23,2.74-1.14,3.49s-2.62-.53-3.43-1.36a23.46,23.46,0,0,1-6.36-13.62c-.21-1.63.72-2.52,2.45-2.07C213.55,251.32,221.22,263.6,221.21,264.67Z" transform="translate(-1 -1)"/><path d="M261.9,351.48c-1.82-.63-2.69,2.34-4.25.42-1.31-1.62.66-2.25,1-3.37,1.26-3.86,4.18-6.55,6.94-10.36,2.06,8.1-2,15.05-1.19,22.32C264.94,357.07,259.77,355.42,261.9,351.48Z" transform="translate(-1 -1)"/><path d="M255.63,333.9c-.36,5-3.19,8.2-4.77,11.94-.55,1.3-1.55.71-2.49.27a24.29,24.29,0,0,0-2.76-.95c-1.19-.39-1.07,3.41-2.61,1-.87-1.36,0-3,1.17-4.48C247,338,251.07,336.21,255.63,333.9Z" transform="translate(-1 -1)"/><path d="M316.12,599.76c.21-3.71,1.92-6.62,5.47-8,1.67-.65,3.25.37,3.83,2.13,1.28,3.91-1.2,6.25-3.93,8.21-1.11.79-2.35,2.29-3.92,1.67S316.38,601.26,316.12,599.76Z" transform="translate(-1 -1)"/><path d="M362.27,83c-.94,3.22-.93,8.32-3.47,8.35-3.25,0-2.09-4.73-2.55-7.44-.34-1.94-.28-3.94-.87-5.88a1.93,1.93,0,0,1,1.15-2.47c1.18-.5,2.45-.42,3.09.75A20.47,20.47,0,0,1,362.27,83Z" transform="translate(-1 -1)"/><path d="M284.44,339.27a15,15,0,0,1,1.9,2.21c.88,1.56,1.28,3.5,2.43,4.78,3,3.35-.59,5-2,5.93-2.19,1.38-5-1.58-5.38-2.72-1.12-3.07.5-6.37,1.67-9.43C283.16,339.71,283.83,339.59,284.44,339.27Z" transform="translate(-1 -1)"/><path d="M63,370.9c-1.56,2.54-3.22,5.56-5.21,8.34-1,1.35-2.37.41-3.54-.25s-2-1.68-1.55-3.22A12.09,12.09,0,0,1,59.76,368C61.76,367.16,62.87,368.19,63,370.9Z" transform="translate(-1 -1)"/><path d="M209.45,353.32c-3.56-1.38-6.65-2.14-10,2.25,1.07-4.89,2.76-8.37-.68-11.12a1.52,1.52,0,0,1-.08-1.38c.15-.34.73-.48,1.12-.71,1.63,3.93,6.84-.61,6.57,1.32C205.86,347.5,208.41,349.68,209.45,353.32Z" transform="translate(-1 -1)"/><path d="M230.08,619.58c0-4.59.95-8.14,4.09-10.76.82-.69,1.1-3.11,2.69-1.63,1.22,1.14,3.26,2.67,1.35,5C236,614.84,234.13,617.74,230.08,619.58Z" transform="translate(-1 -1)"/><path d="M256.94,389.42l6-25.53C264.83,368.12,261.36,384.46,256.94,389.42Z" transform="translate(-1 -1)"/><path d="M345,216c-.4,2.15.9,5.37-3,5.63-2.32.15-3.86-1.09-3.41-3.67.5-2.86.7-6.54,4.35-6.76C345.7,211,344.74,214.05,345,216Z" transform="translate(-1 -1)"/><path d="M345.61,122.93c-2.52-2.43-2.53-5.71-4.43-8-1.08-1.33.72-1.65,1.83-1.93,1.92-.48,3.84-.75,4.05,1.9S347.61,120.13,345.61,122.93Z" transform="translate(-1 -1)"/><path d="M329.94,403.73c-.71-1.52-3.12-2.65-2.1-4.56a73.4,73.4,0,0,0,4.17-8.78,1.75,1.75,0,0,1,2.63-.29c1.13,1.08.23,2-.48,3C331.87,396.21,329,399.15,329.94,403.73Z" transform="translate(-1 -1)"/><path d="M449.44,334.25c-.86,6.14,2.68,11.17,4.54,16.83-5.38-2.06-7.81-11.72-4.53-16.82Z" transform="translate(-1 -1)"/><path d="M277.18,400.31c-1.59-6.31-.19-12.42.25-18.59H279c0,3.14.45,6.36-.12,9.4S278.11,397.28,277.18,400.31Z" transform="translate(-1 -1)"/><path d="M250.39,298.28c1.28-2.23,1.81-4,3.94-3.55,2.4.54,4.84,1.48,6.38,3.33,1.1,1.32-.68,1.61-1.76,2C255.64,301.1,254,297,250.39,298.28Z" transform="translate(-1 -1)"/><path d="M843.86,700.88c1.84-2.22,2.72-7.27,7-2.2.62.74,2.42.48,3.69,1.22-3.54,1.16-7.09,1.93-10.83.85Z" transform="translate(-1 -1)"/><path d="M69.7,332.13c0-3.8,2.47-6.73,4.21-9.89a1.36,1.36,0,0,1,1.28-.15,2.52,2.52,0,0,1,.64,3.18c-1.43,2.57-3.19,4.94-4.83,7.39Z" transform="translate(-1 -1)"/><path d="M378.73,129.78c.06-1.61-.26-3.69,2.16-3.6,3.06.11,1.9,3,2.41,4.61.46,1.5,0,3.32-1.92,3.11C379.27,133.67,378.66,131.78,378.73,129.78Z" transform="translate(-1 -1)"/><path d="M380.75,451.9c.74,2,0,2.74-1.31,3-2.15.36-4.53-.43-6.36,1.61-.29.33-1.82-.28-2.65-.7a1.18,1.18,0,0,1-.42-1.7c.62-1.12,1.61-.7,2.58-.71C375.39,453.32,378.3,454.11,380.75,451.9Z" transform="translate(-1 -1)"/><path d="M218.71,643.17c.91,5.68-4.5,7.46-5.73,11.34C214.7,650.87,214,646,218.71,643.17Z" transform="translate(-1 -1)"/><path d="M275.23,389.71V364.13h.66v25.44Z" transform="translate(-1 -1)"/><path d="M423.33,513.86c2.39-3.49,8.26-3.48,6.93-9.34C432.58,510,431,512.06,423.33,513.86Z" transform="translate(-1 -1)"/><path d="M423.11,520c-2.44,0-4.89,0-7.34,0-.83,0-1.72-.11-1.93-1.09a2.21,2.21,0,0,1,1.21-2.46c.81-.47,2.34-1.28,2.53-.29C418.24,519.65,421.4,518.19,423.11,520Z" transform="translate(-1 -1)"/><path d="M318.4,287.28c.28-1.2,0-3,1.7-3a2.51,2.51,0,0,1,2.41,2.57c-.18,1.48-.62,3.58-2.6,3.55C318.18,290.38,318.7,288.46,318.4,287.28Z" transform="translate(-1 -1)"/><path d="M229.29,551.06c1.76.57,2,2,1.94,3.52-.06,1.34-.27,3.1-1.84,2.91-2.09-.26-1.75-2.46-1.9-4A2,2,0,0,1,229.29,551.06Z" transform="translate(-1 -1)"/><path d="M145.76,329.75c-1-.29-1.49-.93-1.16-1.84.66-1.81,1.09-4,3.64-3.92a1.59,1.59,0,0,1,1.28,2.22C148.6,327.67,147.72,329.39,145.76,329.75Z" transform="translate(-1 -1)"/><path d="M413.83,218.38c1.72,2.83,3.28,5.65,2.81,10.55C415.6,224.42,412.39,222.15,413.83,218.38Z" transform="translate(-1 -1)"/><path d="M571.23,493c-3.42-4.18.35-9.62-2.42-13.89-.57-.9-.55-1.51.41-1.92s1.81-.8,2.8-.14,5.13,10.35,4.55,11.27c-1.14,1.81-3.53,2.58-4.27,4.81Z" transform="translate(-1 -1)"/><path d="M690.38,456.55c-1.44,3.84-6.06,6.42-.79,9.14.79.4.08,1.39-.7,1.92s-1.41,1.49-2.28,1.86c-2,.86-2,2.83-2,4.22,0,2.27,2.8-1.61,3.08,1.79-.52,2-3.39,1.7-5.11,3,1.77,2.05,1.18,4.22.47,6.52-2.35,0-.41-2.38-1.75-2.8-.28.16-.76.29-.79.48-1.32,8.73-3.59,17.32-3.08,26.3,1,17.27-.24,33.89-10.27,49.17-4.39,6.69-11.3,7.89-16.7,12-6,4.55-12.36,1.91-18.44,3-2.17.4-5.27-1.58-7.25-3.28-11.14-9.58-15.13-22.27-14.15-36.45.54-8,.47-16.27,4.92-23.52.81-1.34,1-4,3-3.23,2.45.93.33,2.83-.2,4.15-5.53,13.84-7.35,28.06-2.37,42.28,5.42,15.47,18.89,19.51,33.47,13,16.92-7.52,21.44-22.54,24.55-38.85,1.7-8.88-.24-17.51-.21-26.25,0-10.7.83-21.32,4.47-31.39C680.14,464.33,684.35,460.35,690.38,456.55Z" transform="translate(-1 -1)"/><path d="M671.39,479.11a1.8,1.8,0,0,1-.09,2.45c-6.23,5.62-5.53,13.15-5.29,20.33.23,6.74,1.51,13.45,2,20.19.87,12.21-.67,23.92-9.16,33.52-6.87,7.76-16.36,11.8-27.1,8.22-6.57-2.19-9.57-7.84-11.29-13.62-1.75-5.93-2.89-12.31-.88-18.63.47-1.47.16-4,2.3-3.53,1.56.34.58,2.49.28,3.92-.68,3.22-1.7,6.42-.67,9.78,1.71,5.56,3.09,11.28,6.79,16,2,2.52,5.66,1.67,8.12,3.47,3.47,2.54,4.79-2.47,7.81-2.26,4.95.34,7.45-4.58,11.71-6.09,2.9-1,2.42-4.89,3.94-7.34,5.29-8.56,5.8-18.14,4.26-28.1-1-6.59-.72-13.4-.85-20.11A22.27,22.27,0,0,1,671.39,479.11Z" transform="translate(-1 -1)"/><path d="M747.69,289.55a4.29,4.29,0,0,1,2.89,3.23c1.49,5.07,4.8,9.16,7.41,13.56q10.37,17.51,19.71,35.54c2.59,5,3.33,11.1,6.5,15.6,3.48,4.95,5,10.41,7.1,15.77a43,43,0,0,1,1.27,4.29c.37,1.38,0,2.37-1.58,2.37-1.39,0-2.92.55-3.54-1.67-2-7.17-4.19-14.17-8.63-20.47a50.79,50.79,0,0,1-7.4-15.76c-.8-2.92-2.74-4.52-3.61-6.55-1.16-2.72-2.81-5.32-3.89-8.13-2.9-7.5-7.23-14.24-11.64-21-2.72-4.17-2.83-9.77-5.87-14.07A1.85,1.85,0,0,1,747.69,289.55Z" transform="translate(-1 -1)"/><path d="M535.08,418.54c-1,2.34,1.44,3.21,1.82,4.83,1.36,5.8,3.75,12,6.79,16.12,4.12,5.52,4.56,12.19,8.58,17.45,2.83,3.69,4.22,8.48,6.21,12.8.54,1.16.48,2.4-.8,3-1.45.69-2.17-.59-2.64-1.56-5.25-10.83-10.66-21.59-15.59-32.57-7.06-15.73-14.26-31.42-19.69-47.82-.26-.78-.41-1.58-.62-2.37a2.1,2.1,0,0,1,1.75-2.6c2.44-.47.59,1.42,1,2.14,2,3.9,4.92,7.66,5.53,11.76.69,4.61,4.47,7.85,4.36,12.47,0,1.57,1.5,1.63,1.92,2.48C534.27,415.88,537,416.54,535.08,418.54Z" transform="translate(-1 -1)"/><path d="M773.21,414.76c-11,13.69-23.36,23.68-36.63,32.91-10.11,7-20.16,14.38-28.72,23.43-2.48,2.63-6.49,3.31-8.67,6.56-.08-3.85,3-5.64,5.24-7.89,4.73-4.69,11-7.53,14.83-13.48,2-3.08,6.18-4.86,9.57-6.89,10.13-6.1,19.7-13,27.72-21.67,4-4.36,9-7.55,12.91-12C769.89,415.23,771,415.3,773.21,414.76Z" transform="translate(-1 -1)"/><path d="M695,512.06c.25,14.36-2.76,28.26-6,42.13-.28,1.18-.31,2.8-1.86,3.24-.92.25-1.54-.53-1.9-1.3-.59-1.27-1.34-2.19.35-3.72s.93-4.41,1.49-6.56c2.13-8.24,4-16.25,3.37-25-.38-4.92,1.92-10.16,1.06-15.47a2.29,2.29,0,0,1,2.09-2.43c1.76,0,1.31,1.6,1.35,2.65C695.08,507.73,695,509.89,695,512.06Z" transform="translate(-1 -1)"/><path d="M600.16,564.19c.3,9.35-5.89,21.54-14.3,25.15-4.7,2-8.84-.36-13-1.62-3-.91-5.53-3.38-8.26-5.16-.69-.46-1.58-.95-1.2-1.92.5-1.29,1.6-.68,2.54-.53,3.24.53,4.9,3.64,8.07,4.61,8,2.45,13.14-.74,18-7.7C595,572.9,597.62,568.58,600.16,564.19Z" transform="translate(-1 -1)"/><path d="M624,478.71c.55,3.72,5.07,1.88,6.14,4.63.94-2.68,4.08-3.66,4.86-6.59.52-2,.19-4.85,4-5.35-.74,2.66-1.38,5-2.06,7.34-.23.8-1,1.92-.77,2.28,3.77,5-2.27,6.05-3.66,8.9-.77,1.56-3.61,1.4-3.76.43C628.07,486.09,624.17,483.22,624,478.71Z" transform="translate(-1 -1)"/><path d="M631.72,532.14c1.53,1.07,2.65,1.75,3.65,2.58,6.78,5.57,13.15-.67,14.35-6.9.22-1.14-.7-3.23,1.41-3,2.38.3,1.11,2.28.85,3.59a25.27,25.27,0,0,1-1.2,4.29,11.48,11.48,0,0,1-18.68,4C630.8,535.4,631.15,534.07,631.72,532.14Z" transform="translate(-1 -1)"/><path d="M645,525.88c.27,2.9-.57,5.11-3.9,5a4.64,4.64,0,0,1-4.59-4.94,4.85,4.85,0,0,1,4.78-4.8C644.35,521.17,645.15,523.2,645,525.88Z" transform="translate(-1 -1)"/><path d="M617.91,667.53c.48-6.17.6-12.36,1.42-18.51C621.88,655.33,621.11,661.49,617.91,667.53Z" transform="translate(-1 -1)"/><path d="M617.49,464.12c-4.48-3.46-5.45-8.81-8.12-13.21-.59-1-.54-2,.61-2.48s1.51.66,1.76,1.26C613.72,454.48,615.59,459.31,617.49,464.12Z" transform="translate(-1 -1)"/><path d="M741.17,806.9c1.31,1,4.24-3.31,4.52,1.08.08,1.31-1.11,4.13-2.27,3.68-1.8-.7-4.47-1.73-4.55-4.35C738.81,805.06,740.17,806.34,741.17,806.9Z" transform="translate(-1 -1)"/><path d="M756.85,802.84a2.41,2.41,0,0,0,2.63.21c1.07-.6,2-2,3.46-.75.23.21.07,1.29,0,1.29-2,.15-2.33,3.37-4.75,2.68a16,16,0,0,1-1.77-.86c-1-.42-2.73-.13-2.21-1.93S756.08,802.7,756.85,802.84Z" transform="translate(-1 -1)"/><path d="M763.77,812.78c-2.1-1.15-3.9.06-6.07.75.28-2.71,1.68-4.5,3.39-4.79S763.18,810.82,763.77,812.78Z" transform="translate(-1 -1)"/><path d="M501.94,713.13c.3-3.1-4-3.7-.84-6.44,1-.85,2.63-2.39,3.29-1.36C505.93,707.75,504.08,709.86,501.94,713.13Z" transform="translate(-1 -1)"/><path d="M646.54,685.31c2,3.12,3.25,5.73,3.43,8.72.09,1.42-.32,2.63-2,2.78a2.51,2.51,0,0,1-3-2.37C644.34,691.4,645.72,688.73,646.54,685.31Z" transform="translate(-1 -1)"/><path d="M634.71,676.48c-2.49,1.1-1.83,4.74-4.38,6.16-1,.56-1.45-.33-1.48-1.26-.1-2.85,2.76-4.59,2.8-7.4C632.59,674.75,634.48,674.14,634.71,676.48Z" transform="translate(-1 -1)"/><path d="M626.17,425.85c-4.7-.39-7.51-4.21-11.14-6.65a.94.94,0,0,1-.17-.92c2.27-4,4.13-8.3,7-11.77,2.15-2.58,6.23-1.38,9.39-2.21,1.25-.33,2.11.79,2.73,1.81a18.83,18.83,0,0,1,2.16,3.89c.93,2.81,6.07,4.84,3.23,7.95C636,421.68,632.35,426.14,626.17,425.85Z" transform="translate(-1 -1)"/><path d="M603,386c-5-1.54-10.69-3.28-16.37-5.09-.72-.24-1.67-.65-1.48-1.71a2,2,0,0,1,2-1.85c4.24.2,7.45-2.5,11.09-3.93,6.36-2.5,14-.56,17.78,4.9,1.16,1.66,1.35,4.19-.84,4.49C611.23,383.33,607.8,385.58,603,386Z" transform="translate(-1 -1)"/><path d="M594.11,396.73c0,1.85.24,4-2.47,4a3.41,3.41,0,0,1-3.53-4,105.5,105.5,0,0,0,.65-11.91c0-.85.31-1.77,1.33-1.73.5,0,1.41.73,1.39,1.07C591.18,388.61,594.24,392.34,594.11,396.73Z" transform="translate(-1 -1)"/><path d="M691.92,718.73a7.36,7.36,0,0,1,0-1.51c2.82-8.34,2.85-8.38-4.7-13.3-1.57-1-1.22-2.58-1.72-3.91a1.28,1.28,0,0,1,.9-1.91c1.24-.35,1.93.13,2,1.4.07,2.67,2,4,3.79,5.49C698.12,710.16,698.14,712,691.92,718.73Z" transform="translate(-1 -1)"/><path d="M577.1,823.93c.51,5.16.51,5.16-5.87,5.23C572,825.7,576.05,826.68,577.1,823.93Z" transform="translate(-1 -1)"/><path d="M815.47,628.05c1.1-5.65,1.1-5.65,6.21-6.32C820.85,625.09,816.34,624.73,815.47,628.05Z" transform="translate(-1 -1)"/><path d="M444,388.09c-2.15-.48-4.56-.91-6.89-1.6a2.36,2.36,0,0,1-1.37-1.79c.13-1.19,1.35-1.35,2.32-1.16,2.23.44,4.42,1.11,6.64,1.57,1.08.23,2.57-.08,2.3,1.68C446.73,388.36,445.31,388,444,388.09Z" transform="translate(-1 -1)"/><path d="M434.23,390.65c4.89-2.42,8.21-1.06,11.46.59.51.26.76,1.45,0,1.57C441.93,393.41,438.46,392.41,434.23,390.65Z" transform="translate(-1 -1)"/><path d="M569.1,723.21c1.48-5.25,6-7.63,10-10.47-4.27,2.59-4.16,9.41-10.19,10.32Z" transform="translate(-1 -1)"/><path d="M673.87,204.87c1.19,2.66-1,4.28-1.92,6.3-1.68,3.7-4.91,6.2-7.28,9.37-.59.78-1.52,1.47-2.57.72a1.66,1.66,0,0,1-.43-2.59c4.55-4.17,7-10.28,12.35-13.67Z" transform="translate(-1 -1)"/><path d="M646.69,855.41c1.34-.85,2.91-2.48,4.18-.4,1.56,2.55-1.71,1.4-2.28,2.45-.82,1.49.58,5-3.34,3.76-.92-.28-2.55.92-2.52-1.17,0-1.25.9-1.57,2.08-1.41,3.28.45,2.5-1.57,2-3.38Z" transform="translate(-1 -1)"/><path d="M662.52,868.49c-.44,1.3-.86,2.73-1.93,2.24a6.85,6.85,0,0,1-3.64-4.27c-.27-.94,1.22-2.81,1.94-2.31C660.44,865.24,661.43,867.11,662.52,868.49Z" transform="translate(-1 -1)"/><path d="M364.28,337.37a16.24,16.24,0,0,1-3,0c-1.41-.25-3.85,1-3.89-1.52,0-1.84,1-4.25,3.14-4.54a41,41,0,0,1,9.33,0c2,.19,2.33,2,2.31,3.77,0,2.13-1.41,2.32-3,2.32Z" transform="translate(-1 -1)"/><path d="M169.14,87.35c-.16,2.7.93,5.68,1.71,8.71.43,1.67.79,3.41-.58,4.69s-2.82.37-4.08-.44c-2.79-1.81-4,.26-5.05,2.15-1.26,2.39-1.37,5.1-1.46,7.78-.13,4-2.22,6-6.15,7.23s-4.45-1.68-6-3.61c-.52-.65-.95-1.72-1.58-1.86-7.95-1.82-5.88-9-7.35-14.07-.95-3.27,5.9-12.29,9.55-12.81,2.22-.31,4-1.33,6.06-1.92,2.95-.85,6.06-2.37,8.58,1.09.81,1.12,2.14.93,3.11.13s1.25-2.21,2.74-1.17S169.77,85.52,169.14,87.35Z" transform="translate(-1 -1)"/><path d="M44.82,103.17c0-1.67.63-3.7-.1-4.93-4.41-7.43.68-12.59,4.3-17.79,2.22-3.19,5.82-5.38,10.06-3a3.21,3.21,0,0,0,4.1-.52c4.24-4.7,9.07-2.18,13.24-.69,4.59,1.64,9,4.27,10.26,9.87.74,3.29,1.9,6.29,5.47,7.78,2.62,1.1,2.09,3.44.63,4.92-4.39,4.47-10.33,6.66-15.57,9.88-.62.39-1.86-.28-2.82-.38-1.64-.18-3.9-1.06-4.83-.32C64,112.38,57.68,112,51.18,112.29c-5,.22-6.09.1-6.32-5.13-.06-1.33,0-2.66,0-4Z" transform="translate(-1 -1)"/></g></g></svg>