<svg xmlns="http://www.w3.org/2000/svg" viewBox="0 0 896.2 876.21"><title>snitched</title><g id="Layer_2" data-name="Layer 2"><g id="Layer_1-2" data-name="Layer 1"><path d="M897,683q0,95,.09,189.94c0,3.29-.48,4.16-4,4.16q-444.1-.17-888.22,0c-3.75,0-3.91-1.19-3.91-4.27Q1.05,617.92,1,363c2.17-.51,3.79-.55,4,2.51a129.7,129.7,0,0,0,1.64,15.76c1.07,5.8,2.93,11.24,9.82,13,3.58.91,7.13,1.16,8.76-2.31a7.52,7.52,0,0,0-2.93-9.62c-2.94-1.89-3.71-4.44-4.2-7.39-.79-4.72-1.39-9.46-2.3-14.15s3.73-10.17,8.59-9.68a2,2,0,0,1,1.78,1.46c1.35,3.6,2.71,4.66,3.93-.05.36-1.39,1.63-1.46,2.56-2.08a7.89,7.89,0,0,0,2.07-11.73c-2.91-4-6.3-2.69-9.53-.45C17.62,343.49,9.18,347,1,351Q1,178,.9,5C.9,1.58,1.58.9,5,.91q444,.15,888,0c3.42,0,4.13.66,4.1,4.09-.19,23-.1,46-.1,69-3.3-1.5-8.24-.27-9.1-5.86a3.39,3.39,0,0,0-3.47-2.42c-4.84.44-8.88.2-13.32-3.32-5.2-4.12-6.83-9.12-2.82-14.67,2.17-3,4.4-6.6,2.18-11.12-1.86-3.77,1-9.06-3.54-12.34-.25-.19,2.22-3.33-.71-4.15-1.84-.51-4-.61-5.55,1.2-4.72,5.37-11.77,7.78-16.61,13-.95,1-2.63,2.26-3.82,2.11-5.08-.62-5.46,2.67-5.88,6.7-1.84-3.76-4.6-5.7-7.91-7.85-6.07-3.94-13.39-4.67-19.05-8.86-2.35-1.74-5-.47-7.18-2-3.44-2.46-7-4.56-10.53,0a5.93,5.93,0,0,1-1.64,1c-2.34-4.39-5.54-.56-7.73-.14-3.65.69-7.26-1-10.57.32-3.07,1.18-5.86,2.64-9.35,2.62-3.73,0-4.59,6.53-9.48,4.62-1.12,4.43-5.31,5.88-8.28,8.51s-1.25,6.71-3.2,9.89c-1.05,1.71,3.86,4.42,5.87,2.91,6.44-4.83,13.36-6.94,21.34-4.65,1.21.34,3.31.49,3.85-.19,3.39-4.25,5.79-.17,8.18,1,1.85.92,3.15,2.84,5.64,2.54a1.51,1.51,0,0,1,1.79,1.83c-.51,3.47,1.95,2.59,4.2,2.44-5,3.75-1,11.5-7.24,14.23a2,2,0,0,0,.22,1.32c2.56,3.85.16,5.21-3,6.46s-1.1,4.07-1.52,6.14c-.27,1.32.06,2.78,2,2.7,3.84-.17,4.48.94,2,4-.86,1.06-.23,2.43,1.57,2.89,2.38.6,2.91,4.44,6.18,3.7-1.45,4.21,3.16,6.72,3.07,10.2-.13,4.7,2.09,5.19,5.76,4.93,1.68-.12,4.7-.5,4.25,1.88-.49,2.65,0,5,.2,7.47.7,7.93-2.76,15.73-.63,23.71a3.45,3.45,0,0,1-.49,2.82,6,6,0,0,0-1.31,6.08c1,3.54-1,6.71-.85,10.3s-2,8.23-2.63,12.37c-.51,3.37-2.64,6.5-1.42,10.35,1.08,3.38,1.62,7.24-2.36,9.81-.52.33-.24,1.87-.37,2.85-.45,3.19.41,6.79-4.41,8-1.54.39-3.66,4.85-2.87,5.39,4,2.73.5,4.71-.2,6.8-2,5.81-2.36,12-5.17,17.63-1.19,2.38-.95,7.31-2.12,7.56-5.69,1.23-5.13,7.16-8.51,9.86-1.44,1.14-1.26,2.68-.9,4.11.44,1.78,2.09,1.17,3.33,1.4,6.31,1.14,12.54-2.11,18.88-.36.33.09.84-.44,1.27-.68,7.09-4.17,9.47-3.82,14.24,2a2.9,2.9,0,0,0,1.26.68c6.46,2.41,7.25,3.49,8,10.89a1.25,1.25,0,0,0,.43.85c4.61,2.76.08,6.51,1,9.83,1.31,4.55-1.86,6.9-5.86,8.28a2,2,0,0,0-1.14,1.39c.23,4-2.74,4.66-5.51,6-5.68,2.64-10.47,7.39-17.63,6.2-3.24-.54-6.65-.09-10-.07a4.65,4.65,0,0,0-4.64,3.05c-.57,1.66-1,4.28.38,5.22,1.73,1.21,2.77,3.08,4.31,4.09,5.52,3.63,6.66,10,10.18,14.87,3.83,5.27,1.91,13.34,8.38,17.4.92.57,1,1.72.87,2.74a26.59,26.59,0,0,0,1.76,11.5c.68,1.89,3.85,4.29.29,6.57.28.39.46.94.84,1.14,4.42,2.3,4.23,7.55,4.36,10.68.35,8.49,3.68,16.7,2.26,25.25s3.5,17.89-3.49,25.67c-.29.33.27,1.3.14,1.91-1.45,6.21,1.88,13.15-3,18.74a5.79,5.79,0,0,1-1.07-1.5c-3-9-9.8-15.75-14.16-23.94-1.37-2.57-4.55-4.06-5-7.12s-1.75-5.28-3.94-7.92c-4.78-5.75-9.57-11.66-13-18.63-5.31-10.91-13-20.41-20.06-30.25-.56-.79-.73-1.9-1.39-2.55-2.23-2.2-2.37-5.42-4.16-8-2.7-3.92-8.57-6.76-6.92-13.14.22-.82-.44-1.56-1.32-1.88-3.07-1.11-2.44-7.09-7.46-5.7a1.28,1.28,0,0,1-.44-.81c.17-3.12-2.34-4.39-4-6.39-2-2.39-3.49-5.26-5.25-7.88-2.37-3.52-1.73-9.09-7.46-10.31-.53-.11-1.35-1.25-1.31-1.3,2.44-2.95-.82-3.69-2.06-4.88-5.09-4.89-4.76-9.68,1.08-13.56.79-.53,1.91-1.33,2-2.08.45-5.33,4.48-5.21,8.15-5.48,4.16-.31,7.59,2,11.12,3.7.94.46,2,2.22,2.73.47,1.11-2.53,1.1-.19,1.83-.06,4.09.74,6.24,5.07,10,5.47a4.59,4.59,0,0,1,4,2.42c1,1.57,1.36,4.36,4.07,3,2.44-1.24,6.06-3.24,4.77-6.12-2.23-5,2.27-12.07-4.86-15.4-.6-.28-.33-1.32.17-1.76,2-1.69.18-2.55-.75-3.55a13.83,13.83,0,0,0-8.2-4.1c-1.12-.18-2-.09-2.9-1.34-4.22-6.19-5.42-6.61-12.43-4.3-2.12.71-3.34-.2-3.72-1.8-.67-2.8-.51-3-3.3-1.83-3.62,1.52-5.58.81-4.89-3.42s-1.61-7.7-2.43-11.52c-.42-2-4.39-4.56-5-2-1.05,4-3.32,2.07-5.05,2.53-3,.81-7.53-1.46-7.54,5.34-2.51-3.74-5.32-3.78-7.27-1.78-3.42,3.5-8.11,2.95-12.08,4.55-2.15.88-4.93,1.82-6-2.57-.71-3-3-7.66-4.77-8.27-5.56-1.91-5.41-7.32-7.59-10.79-2.52-4-3.85-8.5-8.77-10.38-.4-.15-1-.75-.95-1,1.32-4.71-4.31-6.16-4.78-10.21-.14-1.27-.78-3.92-3.68-3.93-1.74,0-1.48-1.44-.47-2.45.59-.59,1.53-1.29.56-1.94-5.53-3.68-8.34-9.31-11.12-15a3.74,3.74,0,0,0-1.35-1.44c-5.48-3.35-4.15-11.56-10.31-14.41.7-5.52-6.19-7.76-5.64-13.48.29-3.09-4.32-3.25-5.34-6.31-.79-2.37-2.36-5-6.16-4,1-2.77,7.66-6-.74-7-1-.11-.67-.71-.38-1.4,1.74-4.14-2.26-2.62-3.49-3.84s1.84-5.09-.81-5.82c-5.19-1.43-5.4-8-10.53-9.1-.92-.2-.18-1-.11-1.55.51-4.31-2.28-5.77-5.83-6.19-1.16-.14-1.81-.22-.77-1.15,1.75-1.55.34-2.43-.27-3.75-1.19-2.54-4.08-4.59-2.09-8.2.79-1.45-.57-2.7-2.48-2.82-.73,0-2.69.39-2-1,1.54-3-2-3.89-2-4.35,0-4.2-6.31-4.7-5.14-9.42.53-2.14-1.74-1.76-3.11-2.17-2.81-.84-5.36-1.17-6.47-5.27-.92-3.4-.72-7.59-3.54-10.37s-2.2-6.39-1.43-9.33c.83-3.17,5-5.14,7.28-5.78,6.12-1.73,12.91,0,19.26-2a2.24,2.24,0,0,1,1.89.38c2.06,2,3.17.24,4.5-1,.95-.85,1.55-2.24,3.57-2.16-1.91,4.8,4.94,6.66,3.61,11.51-.25.93,1.27,1.35,2.3,1.37,3.55.07,8.05-6.18,5.71-8.44-4.65-4.49-2.29-14.56-11.93-14.86-.19,0-.49-.46-.54-.75-.76-4.55-3.49-1.82-5.56-1.49-.52-3.26-.53-3.31-4-2.72a3,3,0,0,1-2.26-.68c-2.33-1.36-5.33-1.48-7.18-.36-2.59,1.58-3.66.5-5.38-.9-2-1.65-5-3.66-7-2.59-4.79,2.5-8.93,2-13.57,0-1.63-.72-3.66-.76-5.37,1.87-1.94,3-6.71,2.86-9.42,5.56-6-4.26-6,5.15-10.4,4.58.46,2.88-1.59,4.45-3.67,4.22a9.69,9.69,0,0,1-6.13-2.9A42.35,42.35,0,0,0,478.61,22c-4.15-1.21-9.39.06-9.33,2.92.14,6-1.47,12.09,1.12,18.08,1.3,3,2.55,6.93-.84,9.48-2.64,2-4.08,6.22-8.8,5-1-.24-3,1.48-2.84,3,.63,4.71-2.7,5.48-5.85,7-2.63,1.28-6.77,3.36-6.87,5.27-.33,6.24-3.84,6.48-8.35,6.25-1.83-.09-3.67,0-5.51,0a15,15,0,0,0,5.29,1.71c8,1.17,9.77,4.24,6.05,11.54a214.12,214.12,0,0,1-11.56,20.33c-4.78,7.29-9.79,7.49-15.86,1.37-7.1-7.17-15.25-12.23-25.64-12.72-6.86-.32-13.52,1-20,3-3.95,1.18-7.42,3-11.82.36-2.34-1.39-6-.69-6,3.89,0,2.11-1.28,3.45-3.28,4.51a99.38,99.38,0,0,1-26.21,9.17c-7.84,1.66-15.67,3.81-23.88,2.86-2-.23-4.16.41-4.88,2.68-.9,2.8-1.25,6.33,1.19,7.89,2.7,1.72,3.65,3.41,3.42,6.33a1.89,1.89,0,0,0,1.83,2,1.27,1.27,0,0,0,1.51-1.5c-.45-5.88,4.3-6,8-7.54s7.86-.43,11.78-1.61a253.32,253.32,0,0,0,26.7-9.6c2.74-1.17,5-1.76,5.45,2.48.83,7.89,2.87,15.68,2.24,23.68-.87,10.88-1.52,21.77-.64,32.66.3,3.67,1.25,7.77,5.75,9,4.83,1.31,9.58,1.56,14-1.54,3.45-2.4,7.59-3.25,11.54-4.43,8.38-2.52,13.69,1.06,14.45,9.66.22,2.48.5,5,.72,7.44a63,63,0,0,0,15.19,36.55C424,247.61,431,256.63,430,269a4.68,4.68,0,0,0,.87,2.79c3.52,5.15,5.51,10.56,3.44,16.83-.28.85-.22,1.74.66,2.15,1.3.6,1.8-.48,2.14-1.38a12.7,12.7,0,0,0,1-5.85,6.7,6.7,0,0,1,1.63-5.59c3.6-3.5,2.92-7.49,1.79-11.58-3.29-11.93-10.67-21.68-17.9-31.24-8.61-11.37-13.22-23.6-12.84-37.82a31.54,31.54,0,0,0-2.63-13.1c-3.62-8.65-11.34-12-20.31-9.24-5.76,1.75-11,4.66-16.68,6.59-5.24,1.79-8.41.11-8.72-4.67a110.46,110.46,0,0,1,.12-16.47c.84-10.21,2.48-20.36.71-30.72-1.86-10.94-1.06-11.82,9.31-15.33a47.66,47.66,0,0,1,9.14-2.44c8-1,16-1.68,22.8,4.07,2.66,2.26,5,4.88,7.57,7.26,6.51,6,14.15,7.77,19.33,3.5,6.92-5.7,11.73-13,13.1-22.15.6.95,1.31,2,1.94,3.06.52.9.3,2.74,2,2.07,1-.37,2.45-1.66,2.34-2.29-.68-3.86,2-5.75,4.24-7.83,3.45-3.16,4.55-8,7.85-11.17,2.91-2.83,8.56-3,9-.18.65,4.26,3.79,5.31,6.38,7s3.43,3.7,4.26,6.75a78.71,78.71,0,0,0,4.81,13.59c1.69,3.52,2.79,6.85,2.55,10.77-.27,4.38-2.66,8.76-.09,13.24a3,3,0,0,1-.32,2.83c-2.46,2.13-1.76,4.88-1.7,7.44.14,6,.64,11.89-1.58,17.83-.95,2.55-1.34,6.24,1.09,9a2.32,2.32,0,0,1,.16,2.83c-2.13,2.46-1.23,5.36-1.51,8.1-.43,4.07,1.76,8.83-3,11.81-.65.4-.58,1.14.11,1.65,4,3,.94,6.45.36,9.52-.86,4.58-5.12,9.14-4.62,12.9.86,6.39-7.31,9.3-4.39,15.51,0,.06-.21.25-.33.36-2.53,2.31-4.83,4.51-5.65,8.31-.42,1.94-3.44,3.2-3.3,6.16.06,1.25-1.46,1.16-2.29.44-2.85-2.47-3-.33-2.86,1.74.13,2.93-.31,5.23-2.94,7.33s-1.42,7.75,1.92,8.6,4.27,3.39,5.73,5.63c3.82,5.89,4.46,13.63,10.61,18.17a1.43,1.43,0,0,1,.2,1.32c-1.62,3.69,1.4,5.69,3,8.17.61.95,1.72,1.56,1.77,2.88A40.52,40.52,0,0,0,483.3,323a39.19,39.19,0,0,1,2.53,17.6c-.55,5.88,3,11,2.18,17.08-.42,3.08-2.4,5.76-1.66,9.35a28.7,28.7,0,0,1-.51,12.68c-.62,2.43-1.83,4.41-1.45,7.39A26.54,26.54,0,0,1,481,403.31c-2.07,3.6-4.67,6.58-4.42,11,.11,2-.48,3.53-2.88,1.82-1.37-1-2.68-1.2-2.72.91-.09,4.72-3.91,6.55-7,8.2-3.29,1.75-7.15-.73-10.17-1.91-2.31-.9-6.13-.35-7.58-4.31-.58-1.6-2.24.35-2.24,2.07,0,4.66.41,9.37-.1,14-.77,7,1.35,11.37,8.64,13.11,3.3.79,4.69,3.15,3.08,7.17-1.2,3-1.26,6.26-3.17,9.32-1.19,1.93-.57,5.07-3.32,6.59-.79.44-.83,1.31,0,2.07,1.91,1.81.95,3.28-.23,5.19-1.85,3-.11,7.74,1.48,6.75,3.58-2.23,7.2-1,10.68-1.09,6.75-.28,13.21-3.94,20-2,3,.86,8.17-.14,6.81,6.29-.45,2.11,2.15,3.66,4.49,3.62,2.13,0,3.87.81,4.51,2.5,2,5.19,7.37,6.42,11.19,8.85,4.82,3.06,12.41-.34,16.91,5.47a1.46,1.46,0,0,0,1.42,0,8.82,8.82,0,0,1,9.71-1.79c.36.14,1.08-.63,1.63-1,2.74-1.79,5.46-1.92,8.11.14,2,1.54,3.06,1.17,3-1.4s1.08-2.86,3.6-3.21,7.07.57,7.35-3c.33-4.3,3-7.09,4.58-10.89A17.32,17.32,0,0,1,566.19,500c-1,3.79-.76,7.45-1.42,11.09A45.23,45.23,0,0,1,558.9,526c-2.47,4.1-5.52,9.55-4.9,12.67,1,5.23-2.47,7.37-4,10.42-2.25,4.58-6.39,8.23-5.91,14,.11,1.21-.4,1.9-1.51,2.74A27.48,27.48,0,0,0,532.9,579c-2.88,8.85-6.6,12-15.77,12-22.67,0-45.34-.11-68,.09-4.14,0-5.25-1.05-5.23-5.21.18-32.34.12-64.67.07-97,0-1.65.62-3.5-.55-4.93-2.37.49-2.27,3.52-4.69,3.68-.45-1.49,1.27-3.74-1.23-4.24-2.3-.47-3.09,2.19-3,3.18.79,6.52-4.34,9.63-6.94,14.29-2.71,4.86-9.15,8.52-7.38,15.63a1.39,1.39,0,0,1-1.56,1.7c-.41-2.66-2.34-4.9-2.15-7.86.21-3.32-2.85-4.7-4.42-6.91-3.83-5.38-5.48-5.39-10.75-.74-3.84-5.23-6.75-5.85-11.63-4.18-8.1,2.77-16.34,4.6-25.16,2.94-4.31-.81-5-2.73-4.53-6.28.39-2.64.46-5.21-1.05-7.61-1.24-2-1.56-5-5.14-3.89-3,1-4,3.09-3.93,6.12.12,5.65,0,11.3,0,17,0,8.35,0,8.23-7.91,9.51-3.85.63-5.75-.33-5.51-4.53.34-5.81.49-11.63.71-17.45.15-3.71-1.08-7.07-5-7.42-4.44-.39-5.5,3.69-5.55,6.91-.18,11.73-3.07,23.35-1.13,35.61-2.25-1.29-3.71-3.87-6.53-1-4.3,4.4-12.42,5.09-18,2.38-3-1.44-4.43-3.92-3.62-6.91,1.86-6.89,2.71-14.5,11.31-17.21,2.05-.65,3.91-2.59,5.34-4.35a7.8,7.8,0,0,0,.38-8.95c-1.5-2.51-4.42-1.8-7.19-.66-4.48,1.84-7.8,5.31-11.86,8-.93-9.85-3.39-12.56-10.16-9.91-11.35,4.45-23.34,6.24-35.27,9.39a30.73,30.73,0,0,0,0-4.89c-1-6.25-3.64-7.51-9.15-4.38a21.17,21.17,0,0,1-10.4,2.69c-1.75,0-3.55-.95-5.21.29-2.65,2-5.76,2.23-8.87,2.67-3.69.51-7.5.55-10.72,2.95a30.28,30.28,0,0,1-1.21-3.65c-.44-2.38-.92-4.74-3.91-5-3.17-.28-4.26,2.17-5.24,4.47-1.83,4.31-1.13,8.76-.7,13.25.61,6.43.87,12.9,1.28,19.36-3.75-5.61-6.29-11.49-9-17.28s-3.71-12-7.49-17.18c-2-2.78-4.1-5.76-7.76-5.22s-5,3.85-5.68,7.34a163.74,163.74,0,0,0-2.2,32.25c-.61-.28-1.39-.38-1.7-.81-5.1-7.29-12.88-9.52-21-11.17-3.23-.65-6.46-1.33-9.71-1.81-3.58-.54-3.49-2.36-1.94-4.86,2.15-3.44,5.28-5.83,8.63-7.95,6.28-4,13-5.64,20.41-4,2.72.59,4.67-.79,4.71-3.71,0-2.49,1.21-5.95-2.38-6.78-4.45-1-8.88-2.54-13.72-1.15-12.11,3.45-21.32,11.06-28.16,21-5.7,8.3-2.45,19.13,10.29,18.43,6.6-.36,13.28-.39,19.23,3.5,1.48,1,3.9,1.11,3.67,3.39s-2,3.72-4.11,4.58c-3.79,1.56-7.76,1.64-11.78,1.6-2.55,0-4.67-.05-4.65-3.5,0-1.68-1-2.76-3-2.4-3.15.55-6.77,6.64-6.15,10.42s5.45,7.56,8.92,7c4.82-.77,9.47-2.17,14.57-1.91,4.83.24,9.77-.78,13.71-4.56,1.5-1.44,1.9-3.89,4.54-4.72,0,5.37-.24,10.53.11,15.65.15,2.31.82,5.07,4.31,5s3.53-2.77,3.66-4.95c.28-4.32.14-8.66.11-13-.08-10-.09-20,2.66-31.43,3.53,6.71,6.36,12.21,9.31,17.64,4.09,7.56,4.76,16.54,10.19,23.57,3.54,4.58,6.82,5.07,8.5-.37,1.91-6.15,4.55-9.5,11-9.5.91,0,1.82-.7,2.72-1.07,4.24-1.77,8.4-3.45,12.28.87,1.1,1.22,2.56.51,3.5-.57,3.3-3.8,7.72-3,11.93-3,2.83,0,5.7.31,8.47-.07,4.31-.59,5.86-4.72,4.41-10.35-1.18-4.55-4.07-2.84-6.66-1.94-3.85,1.34-7.87,1-11.81,1.26-1.42.09-4,0-3.76-2.85.36-4.51-.51-8.93-1-13.38-.32-3,1.18-4.78,3.87-5.57,3.21-1,6.62.43,9.89-.69,1.14-.39,1.05.85,1.21,1.63,1.75,8.54,3.3,9.32,10.57,5.33,3.52-1.94,5.29-.93,5.39,3,.15,5.63-.54,11.29.78,16.89a5,5,0,0,1-3.46,6.32c-8.34,3.05-9.09,10.14-9.14,17.41,0,6.69,2.45,13.06,1.35,20.12-.57,3.63-.29,5.92-4.88,6.83,4.41-.07,4.63,1.89,3.64,4.8a21,21,0,0,0-1.45,6.25c0,3.43-1.68,3.88-4.67,3.91-58.69.48-117.42-1.48-176.09,1.69-4,.21-8.07-.44-12,.16a12,12,0,0,1-8.35-1.35c-4.22-2.31-8.81-.11-11.71,3.74-2.45,3.23-2.31,7.45-5,10.46a1.88,1.88,0,0,0,.5,2.66c1.41,1,1.52-1.42,3-1.07-.05,5.14-2.39,9.92-2,15.11-1.55-1.5-.94-3.16-1-4.73,0-1,.09-2.2-1.11-2.47-1.45-.32-1.14,1.22-1.67,1.91-3.55,4.6-2.55,10.6-3,15.43-.8,8.45-2.44,16.87-2.69,25.44s-.75,17.22-.62,25.5c.15,9.41-.17,19.07.83,28.56a6.58,6.58,0,0,0,.31,2c2.64,5.71,2.08,12,3.27,18A53.82,53.82,0,0,0,33.5,750c1.5,3.19,3.45,4,6.53,4,4.57,0,9.6-1.86,13.21,2.9.34.44,1.6.36,2.39.23,6.93-1.16,15.83-12.88,14.46-19.69-.69-3.48-3.51-6.16-6-8.73-1.35-1.41-2.13-2.94-1-4.37,2.17-2.72,3.12-6.07,5.35-8.8,4.68-5.7,9.53-11.23,14.39-16.77a14.19,14.19,0,0,1,9.84-5c2.39-.09.66,4.83,1.11,7.48a17.53,17.53,0,0,1,0,3c-.06,7.14,3.57,9.62,10.06,6.5,12.33-5.92,23.17-14.34,34.9-21.28,1.73-1,3.26-2,5-1.12s3.26,2.41,2.77,4.8a4.13,4.13,0,0,0,1.88,4.31c4.23,3.21,15.21,1.85,16.53-3.08,1.64-6.15,5.45-4.2,8.93-4.41,3-.18,6,0,9-.06s10.4-6,11-8.84c1.22-5.37,4.4-9.82,7.62-13.92,4-5,9.34-8.21,16.44-7.57,5.29.48,10.66.1,16,.1,7.35,0,10.71-2.5,12.45-9.72.44-1.85.93-3,2.73-3.2,2.07,3.36-1.48,5.31-1.52,8-.06,3,.07,6,0,9-.15,4.23,1.89,6.15,6,6.08a42.93,42.93,0,0,1,12.22,1.34c6.28,1.7,13,7.57,13.72,13.86.48,4.26.41,8.49-1.71,12.89C274,706,266.41,710.82,261.8,718c-3.5,5.47-9.05,8.91-12.59,14.32a88.24,88.24,0,0,1-10.77,13.25,203.83,203.83,0,0,0-14.49,17c-7.29,9.28-15.23,18.08-22,27.8-3.56,5.12-3.8,9.68.18,12.39,9.45,6.43,20.46,9.16,31.19,11.75,7.85,1.89,15.38,5.08,23.51,6,7.12.79,13.92,4.18,21.26-.41,4.95-3.1,7.53-7.78,4.67-12.86-1.52-2.69-1.33-4.87.14-7.65,4.68-8.92,11.92-16,16.77-24.9,2.74-5,6.86-9.48,14-9,6.43.46,7.85-1,8.79-7.12.38-2.53-1.33-4.71-2.67-6.58-1.9-2.66-1.42-4.81.17-7.14,4.63-6.8,9.32-12.88,19.29-11.35,5.39.83,11-.28,16.64-1.1,9-1.33,18.35-.53,27.59-1.73,12.5-1.64,25.05,1,37.61,1.34,3.1.08,3,1.78,3,3.89q0,14.76,0,29.5c0,1.33-.27,2.81.21,4,3,7.08,1.8,14.76,3.23,22.09,1,5,2.35,10,2.8,15.28.66,7.76,3.18,15.37,5.08,23,1.44,5.77,3.62,11.4,4.61,17.24,1,6.08,4.8,11.25,5,17.6.18,5.43,7,11.41,12.5,11a218.32,218.32,0,0,0,24.1-3.28c8.89-1.63,17.37-4.86,26.53-5.65,6.89-.6,13.63-3.49,20.71-2.82,5.34.5,9.41-2.42,13.9-4.23,1.42-.57,2.08-1.9,2.23-3.61.61-7-1-13.53-2.94-20.12-1.62-5.33-3-10.73-4.63-16.08-2.39-8-3.78-16.34-6-24.3-2.31-8.29-3.42-16.71-4.9-25-1.36-7.62-.36-15.57-1.75-23.41-1.06-6-.11-12.29-.27-18.46-.07-2.67.91-3.57,3.49-3.33,6.41.6,12.82-3,19.27,0a2.1,2.1,0,0,0,1.91-.19c2.67-3.09,7-2,9.8-3.68,8.55-5,18.62-7.52,24.85-16.51,2.7-3.89,2.57-4.79-1.32-6.59a11.65,11.65,0,0,0-4.77-.91c-7.37-.23-14.73,4.34-22.16.09-.35-.2-1.27.31-1.78.68-3.56,2.61-7.69.88-9.51-1.18-2-2.27-3.46-4.26-6.43-5.72s-3.88-13.22-2.39-16.67,4.9-4.06,7.5-5.91c7-5,14.71-6.33,23.23-6.09,4.72.13,8.89,2.21,13.53,2.09,39.26-1,78.49,1.29,117.74,1.46.67,0,1.34,0,2,0,1.37,0,1.94.65,2.25,2.06,1.31,5.91,3.74,8.3,9.58,7.9s9.5,3.3,13.95,5.46A12,12,0,0,1,732.43,694c-4.24-1.9-8.31-.87-9.67,2.88-1.44,4,1.22,5.34,4.56,6.68,2.53,1,4.87,4.48,4,6.62-3.19,8.33-.94,17.07-2.76,25.63a74,74,0,0,0-.61,25.63c.57,3.84-1.21,7.81-1.42,11.45-.29,5.21-.51,10.59-.56,15.89,0,4.83,2.26,7,5.94,9.22,8.51,5.16,17.8,3.4,26.71,3,7.89-.38,11.23-5.11,11.53-13a7.29,7.29,0,0,1,.06-2c3-8.77,3-18.06,3.28-27,.31-10.88,3.48-21.49,2.32-32.43-.3-2.86.88-3.44,3.59-1.79,1.85,1.11,5.32,2.41,6.42.33,2.84-5.43,5.55-1.39,8.2-.44,1.71.63,2.95,1.32,4.06-.86,1.89-3.72,4.93-4.47,8.92-3.53,2.52.59,5.22.55,7.29-1.94s5.58-2,7.79.55c2.64,3,4.46,6.8,7,9.58,3.38,3.73,9.62,4.44,12.25,9.69.24.49,1.48.65,2.25.65,2.92,0,5.33-1.53,7.74-2.91s-.11-2.75-.19-4.14c0-.43.38-.87.52-1.32,1.61-5.25,3.41-10.37,3.25-16.07a30.18,30.18,0,0,1,2-10.47c.43-1.23,1.14-3.82,2.84-3.67,5.55.51,9.87-7.07,16-2.33.23.18,1.35-.72,2-1.19,6-4.2,12.67-7.51,17.27-13.5C895.32,682.81,896.34,683,897,683ZM174.77,368.77c-5.59-11.72-11.79-22.81-18-33.9-.51-.91-.25-2.29-.26-3.45-.08-10.76.61-21.54-.75-32.28-.92-7.25.35-14.83-3.5-21.66C150,273.37,149,268.05,144,266.3c-2.69-1-3.36-2.23-3.88-4.65-.85-3.91-2.53-8.4-7-8.4-9.14,0-18.3,1.09-25.35,8.09C95.09,274,89.13,288.7,94.07,306.81c2.55,9.32,8.26,13.89,18,14,4,.05,7.36-1.82,11-2.94,7.17-2.23,9-.62,7.69,6.75-.33,1.84-1.1,3.28-3.08,3.29-2.15,0-3.71,1.3-5.55,2-10.41,3.88-20.76,8.13-32.14,8.06-5.06,0-7.51,1.42-7.73,5.34s2.37,5.81,7.08,6.72a25.11,25.11,0,0,0,13.6-1.15c2.25-.81,3.32-.49,3.73,2A108.06,108.06,0,0,1,108,372.79c0,1.44-.44,2.51-2.06,3-5.42,1.54-10.72,3.6-16.51,3.18-4.56-.33-7.81-3.18-7.87-7.26-.12-7.73,2.13-15.28-1.28-23.22-2-4.66-2.69-10.47-2.5-16.06a5.08,5.08,0,0,0-5.55-5.24,5.24,5.24,0,0,0-5,5.82,55.42,55.42,0,0,0,1,6.87c.55,3.42,1.2,6.83,1.67,10.26.44,3.26-.78,5-4.41,4.85a39.26,39.26,0,0,0-10.9.7c-3.35.84-4.85-.78-4.69-4.34.22-4.8.18-9.62.08-14.43-.07-3.5-1.62-6.73-5.33-6.58s-4.75,3.52-4.71,7c.06,6.33.6,12.73-.16,19-1.05,8.53,1.95,16.66,1.49,25.06a5.4,5.4,0,0,0,1.54,3.6c3.61,4.41,6.34,4.14,9-.88,2.12-4,1.26-7.59-.75-11.34-2.27-4.27-1.57-5.18,3.19-6.32,4-.95,7.95-.5,11.93-.63,2.84-.09,4.37,1.2,4.56,4.07.23,3.31.52,6.62.76,9.93.43,6.07,4.09,11.57,8,11.68,6.14.16,12.13-.32,18.07-2.54,6.32-2.35,12.68-6.57,19.87-2.17,1.3.79,2.43-.32,2.8-1.35,2-5.57,7-4.87,11.25-5.41,3.48-.44,7-.34,6.61,4.82a2.34,2.34,0,0,0,2,2.5c.66.15,1.82,0,1.68-.51-1.63-5.4,3.88-6.64,5.95-9.69,3.31-4.88,4.25-10.21,5.57-15.6.37-1.5.89-3.46,2.72-3.88,2-.46,2.21,1.75,3,2.81,6,7.79,9,17.34,14.94,25.18,1.25,1.65,2.2,3.33,4.15,1.85,2.13-1.63,4.77-2.92,5.08-6.34.63-6.74,2.33-13.44,2.29-20.16-.05-7.39,1.68-14.42,2.46-21.62.35-3.2-.7-6.18-4.65-6.27-3.65-.07-5.67,1.8-6.21,5.68-1.11,8-.41,16-.69,23.94C176.38,364.58,177.2,366.71,174.77,368.77Zm110.73,75.7c7.08,13.76,15.37,14.31,25.07,8.06,12.48-8,16.26-33.69,7.51-46-4.17-5.88-11.32-7.08-17.57-3.39-8.43,5-11.9,13.15-14.4,21.9-.83,2.92-1.27,4.57-4.13,1.5a14.34,14.34,0,0,0-6.86-3.8c-6-1.7-6.63-3.3-1.88-7.28,5.41-4.53,5.9-14.11,1.05-19.67-1.9-2.18-.33-10.9,2.34-11.79,5.18-1.73,10.65-3.12,15.95-.79,2.3,1,3.54.38,4.62-1.21,2.52-3.66,2.4-7.45-.12-11.08-.86-1.22-2-2.45-3.75-1.54-4.3,2.21-9.14,1.39-13.64,2.49-3.9,1-5.43-1-5.64-4.82-.29-5.3.69-10.67-.76-15.91-.32-1.13,0-1.88,1.35-2.07,4.09-.59,8.21-1.71,12.3-.79,2.47.56,4.37,1.09,6.07-1.4,2.56-3.75-.4-6.63-1.31-9.82-.76-2.62-3.15-2.48-5-2-10.45,2.57-21.36,2.14-31.74,5.13-3.38,1-6.95,2.1-5.14-4.08a8,8,0,0,0-1.27-7.15c-2-2.61-3.7-3.19-6.57-.92-10,7.89-21.73,12.63-33.23,17.77-2.75,1.23-3.93.4-3.86-2.73a66.79,66.79,0,0,0-3-21.57c-.74-2.36-1.8-4.73-5.19-4.26-3.61.5-4,3.47-4.09,5.92-.06,4.44.64,8.89,1,13.33.62,7.55,2.18,14.94,1.59,22.68-.5,6.47-1.75,13.33,1.61,19.64,1.57,3,4.26,5.27,7.12,5.59,2.42.27,2.9-3.56,4.22-5.56,2.17-3.28.31-6.45-1-9.46a4.68,4.68,0,0,1,.75-5.5c1.71-1.91,2.8-.42,4.12.65a4.33,4.33,0,0,0,2.36.45c4.07.18,6.88,2.33,9.83,5.06,8.29,7.65,11.42,18.37,17.25,27.46.79,1.22,0,1.77-.84,2.35-4.77,3.13-3.9,7.59-2.77,12.05.56,2.24,1.86,4.39,1.95,6.62.49,12.27,2.7,24.33,4.17,36.48.34,2.87,5.87,10.08,7.81,9.89,4.51-.43,8.8-.56,12.88-3.77C271.53,455.7,280.22,452.68,285.5,444.47Zm74.25-161.92c6.36,4.17,8.27-.11,10.58-4.17,2-3.48,2.49-6.69.35-10.28s-5.23-2.57-8-2c-4.06.79-5.51-.67-5.58-4.57a122,122,0,0,0-1-16.3c-1-6.62-4.27-12.49-5.91-18.88-.52-2-.63-3.81-3-4.54-2.67-.81-4.34.42-6.16,2.11-7.3,6.81-7.72,15.47-6.51,24.43a65.57,65.57,0,0,1,.33,10.79c-7.32-3.2-10.64-2-11,3.61-.73,11.12-1.1,22.26-3.49,33.25-2.46,11.34,2.24,19.53,12.72,23.44,2.92,1.08,4.72,3,5,6.13a13.14,13.14,0,0,0,5,9.79c2.24,1.76,3.24,3.92,2.13,7-.71,1.95.35,3.9,2.18,6,.37-1.46.91-2.34.7-3-1.69-5.3.68-7.56,5.67-8.67a12.54,12.54,0,0,0,8-6.56c2.64-6.22,4.81-13.17,0-19.73a4.47,4.47,0,0,1-.82-2.28C360.4,299.67,363.53,291.19,359.75,282.55ZM143.06,421.21c.36,9.61.94,19.18,2.93,28.63a13.35,13.35,0,0,0,4.7,8c2.06,1.69,3.61,1.87,5.27-.66,2-3,2.88-5.86,1.24-9.32-1-2.09-1.43-4.44-2.31-6.58-1.43-3.47,0-5.2,3.23-6.41,5.23-1.95,10.9-.31,15.67,4.55a50,50,0,0,1,10.61,15.45c1,2.27,2.71,3.54,5.09,3.16,2.54-.4,3.32-2.56,3.55-4.83.25-2.5.19-5.08-1.18-7.25-4.54-7.17-9.44-14.07-16-19.6-2.09-1.75-6.56-1.82-6.34-4.66s4.45-3.45,6.78-5.25c7.22-5.56,8-15.41,1.45-20.68-7.75-6.27-31.22-7.78-37.82,1a3.85,3.85,0,0,1-4.7,1.6c-6.08-1.7-12.11-.88-18,1.09-1.61.54-3.57,1.14-4.78-.09-4-4.07-5.87-1.15-8,2-2.48,3.65-4.76,7.1-1.71,11.64.72,1.07.25,2.93.35,4.42.48,7.66-3.06,14.89-1.14,23,2,8.49,5.09,12,13.84,11.33,6.88-.51,13.83-.61,18.2,6.4,1,1.55,2.87,2.48,4.31,1.63,3.77-2.22,4.4-6.05,3.91-10.06-.38-3.14-1.32-5.42-5.4-5.8-6.73-.61-13.38-2.07-20.06-3.2-1.76-.3-3.39-1.12-3.3-3.11.08-1.66,1.56-2.39,3.12-2.8,4.34-1.11,8.7-2,13.23-1.6,3.87.36,7.06-.92,8.3-4.76a10.14,10.14,0,0,0-2.56-10.87c-2-2-4.66-2.17-5.95.19-2.63,4.85-6.93,4.47-11.19,4.44-1.67,0-4.64,1.17-4.26-2.29.34-3.11-2.15-7.33,2.84-9,5.76-1.89,11.21-1.21,16,2.57,1.81,1.43,3.39,1.94,5.39.8,4.74-2.69,4.74-2.69,4.74,2.94ZM149,209.36v-2.81c0-1.71-1.13-3.93,1.42-4.67,2-.6,3.36,1.05,4.52,2.42a14.93,14.93,0,0,1,2.05,3.41c3.62,8.17,7.48,16.31,8.95,25.16.81,4.9,4.78,7.78,6.32,12.1.36,1,1.65.91,2.6.25,3.62-2.53,6-12.47,3.09-15.54-7.63-7.9-8.54-18.45-12-28-2.16-6-2.14-11.43,4.34-15.21,2.07-1.22,3.7-3.35,5.24-5.3,3.82-4.81,8.39-9.62,9.1-15.77,1.31-11.42-6.07-20-21.69-16.83-9.06,1.86-16.84,7.06-25.53,9.59-5.48,1.59-5.63,4.4-4.86,8.74.91,5.21,2.1,10.44,2.26,15.69.49,16.1,5.65,31.64,5.34,47.85-.07,3.64,2.27,8.26,6,8.12,4.14-.17,5.29-4.84,5.36-8.88a18.16,18.16,0,0,0-.44-4.94C149.63,219.43,149.61,214,149,209.36ZM99,251a13.35,13.35,0,0,1-.22,2.47c-.36,1.3-.2,2.58,1.17,2.64,1.55.07,1.68-1.55,1.49-2.65-1-6,.86-11.45,3.8-16.39,2.07-3.5,2.62-7.73,5.6-10.74,3.15-3.17,6.2-6.43,9.25-9.69,7-7.47,10.87-16.44,10.5-26.56C130.08,175.36,124,163.17,113,153c-6.55-6-13.26-7.7-21.39-5.6-7,1.82-12.83,8.36-11.44,14.13,1.85,7.64,1.85,15.46,3.22,23,3,16.57,6.81,33,8,49.83.19,2.7,1,5,3.23,6.41C98.54,243.27,99.62,246.7,99,251ZM9,447.68c.12,4.25-.69,8.72,2.34,12.37,3.47,4.18,6.87,3.95,14,1,6.68-2.74,13.67-5.87,21.1-2.39,5.25,2.45,9.72-.09,10.05-6,.24-4.35-2.89-8-6.64-7.61q-7.92.9-15.79,2.12c-3.43.53-6.79,1.48-10.23,1.9-1.78.22-4,0-3.76-2.75.3-3.8,1.09-7.2,6.09-7.33,5.23-.14,9.88-2.64,14.65-4.42,3.24-1.2,4.39-4.34,4.1-7.83-.26-3.15-1.25-6-4.31-7.33-2.76-1.2-5.3.74-6.46,2.55-2.18,3.39-5.35,4.22-8.71,5.08-1.56.4-4,2.32-4.36-.72-.36-2.81-3.69-6.93,1.4-8.54,8.31-2.64,16.56-6.15,25.66-4.14,2.91.64,4.94-.8,4.7-3.54-.33-3.8-3-6.86-5.14-9.86-1.68-2.39-4.68-.37-7,0-10.26,1.81-19.7,6.93-30.45,7.16-5,.1-8.32,7.42-5.11,11C9,422.69,9.09,427.33,9,432.35S9,442.57,9,447.68ZM229.77,218.11a37.85,37.85,0,0,0,2.53,15.71c3.37,8,12.16,14.07,19,12.52,12.49-2.81,22.06-9,24.67-22.72,1.35-7.1-.74-13.08-5.82-18.07-4.69-4.61-9.52-2.11-14.31-.15-5.93,2.42-8.63,8.86-4.34,13.6s2.27,8.76,1.5,13.27c-.56,3.21-2.38,3.93-5.44,2.79-5.09-1.91-8.27-8.64-7.55-15.3A50.09,50.09,0,0,1,246,200.4c4.32-7.66,9.25-14.92,19.49-15.55,4.05-.25,5.58-3.18,4.4-7.17-1.67-5.63-4.66-7.46-10.41-6a17.52,17.52,0,0,0-6.29,2.88C239.11,185.72,230.74,200,229.77,218.11Zm68.1,69.08A157.79,157.79,0,0,1,300,303.91c.56,5.73.41,11.75,3.84,16.76,1.05,1.54.8,5.07,3,4.46,2.79-.78,4.76-3.65,5.28-6.74a13.21,13.21,0,0,0-1.35-8.73,10.75,10.75,0,0,1-1.64-4.1c-.58-8.74-1.86-17.45-.28-26.28.77-4.33.76-9-1.24-13.19-1.28-2.7-2.46-5.52-6.33-5.41-3.64.1-4.69,2.79-5.74,5.39-2.15,5.39-4,10.88-6.23,16.25-.64,1.59-1.17,4.25-3.17,4-2.42-.33-2-3-2.11-5a27.25,27.25,0,0,1,0-3.5c.4-4.9-1.89-8.65-5.16-11.92-2.88-2.88-6.34-2.78-9.07.25a20,20,0,0,0-4,7.91c-3.34,11.12-4.76,22.74-8.64,33.72-.95,2.67-1.75,5.39-1.37,8.28.34,2.64,1.92,4.39,4.48,4.59,2.26.17,4.31-.83,4.72-3.47,1.28-8.21,5.39-15.61,6.71-23.83.35-2.17.18-4.84,3.16-6.79-.08,4.47.3,8.22,2.18,11.65,1.53,2.79,3.3,6.38,6.41,6.1s5.91-2.81,7.51-5.95a16.69,16.69,0,0,0,1.73-3.59C293.41,291.88,295.21,289.8,297.87,287.19ZM324,182.78c.14-8.2-4.56-12-12.34-9.74-6.58,1.93-12.65,4.72-17.37,10.1-9.4,10.72-13.51,28.52,5,37.93,5.23,2.66,10.68,5.34,14.71,10.05,2.12,2.48,2.3,4.45-.37,6.19-5.22,3.4-10.09,8.19-17.28,5.13a2.61,2.61,0,0,0-1.91.16c-3.1,1.47-4.5,4-3.61,7.31,1.06,4,3.79,6.77,7.11,9,.17.11.66-.11.9-.3,5.23-4.09,11.91-4.77,17.71-7.55,8.6-4.13,13-11.39,10.47-19.43-1.89-5.88-6.25-10.41-11.4-14s-11.08-6-15.72-10.49a6,6,0,0,1-1.83-6.72c2.14-7,12-13.37,19.3-12.44C321.82,188.52,324,186.85,324,182.78Zm42.51,241.47c-.19-2.46.17-4.89-.93-7.33-5.89-13-14.46-21.45-30.13-20.17-7.53.61-14.08,7.72-12.61,14.72s2.24,14.32,3.68,21.41c1.25,6.21-.78,12.76,1.76,18.7,1.87,4.38,4.2,8.36,2.73,13.5-.47,1.65.81,3.8,1.25,5.73.17.73.52,1.19,1.29,1.25a1.65,1.65,0,0,0,1.93-1.18,13.35,13.35,0,0,0,.29-3.45c-.34-7.87,3.38-12.92,10.68-15.46C356.23,448.57,367.4,434.77,366.53,424.25Zm-44.94-58.57a45.3,45.3,0,0,1,.06-6.49c.36-2.48-.6-6.42,2-7,2.77-.63,4.19,3,5.83,5.3C337,367.92,343,379.58,352.81,388.3c4,3.5,7,3.48,9.59-1.12,5.11-9,9.21-18.6,17.47-25.61,3.38-2.87,2.11-9.53-1.71-11.81-4.48-2.67-6.47,1.1-8.61,4.06-4.21,5.83-7.08,12.38-10.3,18.74-2.39,4.72-3.9,5-6.88.91-3.5-4.82-7.26-9.42-10.29-14.63-4.4-7.58-8.83-15.22-14.68-21.85-2.43-2.76-5.16-6-9.21-4.24s-6,5.5-6,10.1c0,6.83-.21,13.66.08,20.48.26,6.21-.8,12.24-1.5,18.33-.35,3,1,4.95,3.89,5.4,2.66.42,3.57-1.51,4.45-3.73C321.38,377.61,321.59,371.68,321.59,365.68Zm68.32,69.5c-2.66-3.85-3.8-7.68-4.9-11.51-2.19-7.61-4.16-15.3-6.45-22.88-1-3.41-3.22-6.2-7.29-5s-3.61,4.49-2.27,7.7c5.91,14.24,7.23,30.06,15,43.64a3.86,3.86,0,0,1-.62,5,8.21,8.21,0,0,0-2.07,5.4c-.24,2.74-.87,5.48-3.54,7.27a5.22,5.22,0,0,0-1.91,4.46c.11,5.54,1.87,10.7,4.2,15.67.7,1.51,2.44,1.43,2.56.27.46-4.59,5.63-6.52,5.89-11a17,17,0,0,1,3-8.18c4.07-6.53,5.46-13.91,7.09-21.41,2.48-11.4,9.28-21.12,15.44-30.93,3.14-5,4.58-10.2,3.21-16.06-.93-4-3.44-4.6-6.88-2.24-2.93,2-1.79,5.16-3,7.58-3,5.9-5.62,12-9,17.75C395.64,425.37,394.08,430.75,389.91,435.18Zm-158.52-29.8c.37-5.19-1.43-8.32-4.77-9.23s-4.42,2.53-5.8,5c-2.94,5.32-3.76,11.29-5.61,16.94-.35,1.07-.4,2.54-1.7,2.85s-1.84-1.12-2.5-2c-1.26-1.75-2.64-3.43-3.81-5.24-4.41-6.81-8.65-13.74-13.18-20.48-3-4.42-6.46-4.29-9.53.06-3.2,4.52-1,8.69,2,11.71,7.89,7.95,13.52,17.47,19.84,26.54a10.36,10.36,0,0,1,1.6,8.77c-1.18,5.9-3.28,11.5-5.11,17.17-2.1,6.49.83,11.12,4.52,15.72a1.7,1.7,0,0,0,2.64.26c2.36-2,4.27-4.25,3.71-7.61-1.11-6.58.61-12.11,4.92-17.34,1.92-2.33,5.11-4.55,4.5-8.49-1.12-7.2,1.45-13.75,3.65-20.37C228.44,414.47,230.12,409.27,231.39,405.38ZM178.93,309a20.1,20.1,0,0,0,16.28-6.42c5.89-6.13,9.27-12.69,10-21.38.7-7.89-.08-15.1-3.3-22.17-1.24-2.72-3.41-5.32-6.32-4.78-3.27.61-6.56.46-9.81,1.16-16.49,3.55-26,25.06-24.11,38.11C163.05,302.55,170.35,309,178.93,309Zm24.39-70c4.18-.16,9.71-5.28,11.58-11.08,3.17-9.77,4.66-19.91,5.83-30.08.25-2.19.43-4.09,1.93-5.95,3.52-4.36,1.8-10.66-3.3-13.13-3.34-1.62-5.88-1-7,2.72-1.17,4-1.3,8.12-1.69,12.24-.91,9.54-1.79,19.1-4.73,28.31-.59,1.87-1.49,3.6-3.48,3.75-1.75.13-2.95-1.46-3.92-2.8a7.84,7.84,0,0,1-1.64-3.58c-.83-9.56-2.95-19.08-1.54-28.71.67-4.62-1-8-3.88-11.25-2.07-2.34-4.72-1.72-6.9-1-2,.68-2.57,3.21-2,5.12,2.72,9.25.43,18.85,2.25,28.18,1.4,7.23,2.81,14.35,7.32,20.39A17.49,17.49,0,0,0,203.32,239Zm3.2,23.88c-.07,8.26,4.93,12.38,12.22,11.15,2.77-.47,5.55-.93,8.33-1.35,1.52-.23,3.07.25,2.57,2-1.75,6.19-.27,12.51-1.26,18.8-1.44,9.15,1.44,17.38,9,23.51,1.73,1.41,2.86,1.28,4-.58,1.64-2.68,3-5,2-8.71-.92-3.2-3.25-5.65-3.54-9.17-.61-7.53,1.45-14.75,1.78-22.14.21-4.6,2.36-5.79,6.57-3.89,5.54,2.5,8.55,1.22,10.39-4.41,1.52-4.62-3.17-11.26-7.24-9.74-9.47,3.55-19.37,2.32-29,3.42a5.51,5.51,0,0,1-6.05-3.36c-1.1-2.24-2.36-4.79-5.42-4.24s-3.18,3.55-3.94,5.84A10.1,10.1,0,0,0,206.52,262.89ZM98,407.91c-1.24-2.55-.44-6.52-4.49-7-3.84-.45-4.74,2.94-6.07,5.55a6.18,6.18,0,0,0-.26,1.47c-2,9.55-4.06,19.1-6.16,28.64-.22,1-.16,2.64-1.83,2.44-1.27-.15-.88-1.56-1.21-2.43a262.29,262.29,0,0,1-8-26.16c-1.19-4.6-5.65-8.33-8.29-7.19-4.54,1.95-2,5.86-1.55,8.67,2.53,15.83,7.12,30.94,16.7,44.17,1.8,2.49,3,1.85,4.61.08,3.36-3.6,4.61-7.92,6-12.63,3.13-10.94,4.66-22.39,9.73-32.76A19.92,19.92,0,0,0,98,407.91Zm327.26,81.48c-1.41,6.59-6,11-4.87,17.3C424.34,504.65,427.39,495.26,425.25,489.39Z" transform="translate(-0.9 -0.91)"/><path d="M897,637c-3.31-.68-5.2.85-5.49,4-.24,2.6-1.53,3.61-4.16,4.14,3-4.76,1.83-13.43-2.09-17.11-2.39-2.24-5.78-2.12-8.62-2.81a80.56,80.56,0,0,0-13-1.69c-6.74-.49-13.51-1.35-20.12-2.23-11-1.46-22.56-2.05-31.48-10.22-.94-.87-2.24-1.52-2.19-3.13a21.46,21.46,0,0,0-6.95-16.81c-2-1.92-1.92-3.17.24-4.64,4.81-3.27,3.4-8.66,2.24-12.25-.91-2.81-5.14-5.37-9.56-5.22-6.54.23-7.83-1.8-10.64-7.77-2.21-4.69-6-8.77-7.92-13.72a117.7,117.7,0,0,0-7-15.32c-1.6-2.91-3.43-5.68-5-8.65-1.85-3.53-2-7.45-3.79-10.93-1-1.91,2.31-3.72,1-7.55,3.9,3.78,6,7.75,11,6.84,1.39-.25,3.12.75,4.36,2.05,2.63,2.74,5.42,2.81,8.19.11,1.84-1.8,3.66-2.69,6.11-.76,1.67,1.31,4,.92,5.81.52,5.43-1.17,11-1.38,15.66-5.72,3.21-3,6.5-6,9.63-9.12,5.21-5.14,8.11-3.9,14.11-.54a24.12,24.12,0,0,1,4.13,2.47c3.47,3.18,7.44,3.16,11.59,3a2.94,2.94,0,0,1,2.73.88c3.61,4.62,5.88.79,7.6-1.61,5.61-7.83,4.78-13.36-2.52-20.44-1.29-1.24-3.49-2.6-2.28-4.44s1.54-3.89,4.53-5.05c7.75-3,15.72-6,22.23-11.54,1.5-1.28,2.7-3.13,4.72-3.51,1.83-.35,2-1.41,2-2.83,0-1.13-.51-2.86.55-3.27,4.3-1.68,4.22-3.93,1.54-7.09-.82-1,.52-1.66,1-2.46,1.08-1.7,1.2-3.62-.32-5s-3.17-2.88-2.92-5.39c.09-1-.76-1.42-1.65-1.52a2.32,2.32,0,0,0-2.77,1.44c-2.36,5.12-7.25,5.69-12,7.22-4.27,1.39-8.82.59-12.87,2.58-1.4.69-3.27.88-4.27-.23-3.3-3.65-6.78-6.88-7.69-12.47-1.43-8.82-1.24-17.88-4.84-26.5-2-4.83-1.51-11-.07-16.22,1.51-5.44,2.15-10.48-.17-15.71a2.88,2.88,0,0,1,.54-3.65c4.35-3.73,3.2-8.2,1.64-12.64-.28-.81-.74-1.4-.21-2.23,5.36-8.25,7-17.7,8.77-27.1a3.87,3.87,0,0,1,1-2.14c5.45-4.73,7.61-11.35,10.91-17.45,2.89-5.36,4.34-12.46,11.61-14.87,2.7-.9,3.82-4.24,5.91-6.23,2.59-2.46.06-9.15-1.9-10.12-6.57-3.24-7.67-10.68-13-14.47-.89-.63-.11-1.06,0-1.6a5.84,5.84,0,0,0,.38-2.41c-.72-2.71-4.75-4.68-1.72-8.19-.5-.38-1-1.13-1.51-1.08-4.91.55-4.52-2.83-4.11-5.78.66-4.79-4.85-6.91-4.66-11.36.2-4.7-4.56-8.79-1.14-14.07,1.54-2.37-2.6-3.75-3.11-6.43-.59-3.12-3.78-5.62-.65-9.34,1.22-1.45-1.74-3.35-1.87-5.7-.15-3-.54-6,0-9,1.09-6.5-4.31-13.09.3-19.52-2.2-4.75,2.79-10.76-2.64-15-1-.8.27-1.34.34-2,.36-3.52,1.57-7.13-1-10.43a2.86,2.86,0,0,1,.14-4.07c5.51-5.12,3.47-10.41.37-15.67-.51-.87-1.6-1.66-.59-2.47,5.47-4.42,6.38-12,12.09-16.52,5.08-4.07,9.89-3.25,15.2-2.38.16,0,.45.07.45.12.56,6.31,7.69,5,10.33,9,.45.68,1.64,1.3,1.57,1.82-.88,6.6,4.4,5.21,7.85,6.19Z" transform="translate(-0.9 -0.91)"/><path d="M528.52,134.16c7.17-.55,4.38-5.25,3.17-8.26-1.87-4.64-3.63-8.82.06-13.34.78-1,.12-2.24-.87-3.09-1.22-1-1-2.24-.51-3.7,3,1.29,3.49,4.18,4.49,6.39,1.89,4.13,7.63,6.47,5.93,12.33,0,.17,1,.93,1.5.94,2.84.09,4.88.14,2.13,3.74-1.39,1.82.61,3.8,2.26,4.21,4,1,5.72,3.93,7.69,7,4,6.23,8.45,12.12,11.59,18.86.55,1.19,1.31,2.28,1.84,3.48,2.42,5.5,2.4,5.51,8,4.49.3,1.32-.84,1.71-1.57,2.27-3.06,2.36-2.45,4.46.52,6.17,4.59,2.65,5.88,7.64,8.75,11.51,2.72,3.66,2.55,9.63,8.27,11-.5,4.95,8.83,5.51,5.3,11.85-.11.2.08.85.2.87,5.86,1,6.36,6.78,9.26,10.4,1.54,1.94,5.36,2.64,3.67,6.45a.48.48,0,0,0,.22.42c3.81,1.29,4.33,5.76,7,7.62s2.28,3.51,1.61,5.17c-2.32,5.8-5.06,11.42-9.2,16.22-.75.87-1.29.14-1.56-.22-3.19-4.19-4.15-.4-5.15,1.61-1.3,2.6-2.71,4.22-5.53,2.16-1.58-1.15-2.25.19-3.42.62-4.57,1.71-7.7,6-12.71,6.9-2.67.49-.92,3.17-1.9,4.59-2,2.86-2.54,6.24-3.55,9.29-1.12,3.38.66,5.71,0,8.5-.92,3.92,3.18,7.07,5,6.58,3.08-.81,8,.25,9.19-4.94,1.1-4.65,5.88-7.83,10.73-8.56,2.06-.3,3.55-.73,5.59.51,1.71,1,3.67-.27,5.28-1.77,2-1.9,4.24-2.84,5.8.81a4.11,4.11,0,0,0,2.87,2.57c6.5,1.18,9.31,5.89,11.62,11.42,2.24,5.36,2.34,11.14,3.74,16.65.59,2.3,1,5.24-1.15,7.61a4,4,0,0,0-.44,3.31c3.89,11.85,1.51,24,1.3,35.95-.09,5.4-1,10.71.32,16.09.1.43-.73,1-1,1.6-1.19,3.09-4.76,5.73-1.18,9.67,1.32,1.45-2,2.64-1.61,4.78,1.29,6.75-.41,13.23-1.49,19.89A117.67,117.67,0,0,1,627,428.85c-1.92,6.28-6,11.11-9.74,15.89-6.06,7.78-13.84,14.2-21.92,19.89-5.13,3.6-10.37,7.49-16.46,9.42-3.26,1-5.06,4.34-8.53,4.69-2.37.23-4.8,3.21-7.1-.39-.65-1-2.16-.22-2.47.64-1.3,3.68-4.53,2.74-6.48,2-4.39-1.72-9.17,2.34-13.2-1.31-6.8,3.92-8.64-2.5-12.91-5.15-5.28-3.28-5.3-8-7.38-12.19-1.34-2.68-2-5.68-3.22-8.44a5.77,5.77,0,0,1-.35-4.35c3.22-7.89,2-15.52.46-23.64-.69-3.71.76-8.82,1.93-13.16.82-3,3.33-5.59,1.27-9.35-1.1-2,3.06-4.21,1.58-6.82-1.11-1.95-.3-3.63-.39-5.31-.47-9,5.9-16.09,6.37-24.91a20.6,20.6,0,0,1,4-11c2.6-3.46,5-8.12,3.76-13.18a2.17,2.17,0,0,1,.16-1.84c4.06-6.49,6.47-14,12.18-19.47,4.11-3.92,6-9.32,9.2-13.84,2.28-3.19.08-6.5-3.76-6.64s-7,.4-10.61-2.85c-1.95-1.76-6.89-3.46-10.39-3.46-4,0-5.43-3.68-6-4.91-2.18-5.17-8-8.21-8.62-13.76-.89-7.42-4.43-15.86,2.55-21.85,3.58-3.08,6.82-7.33,13.45-6.77,8.47.71,16.49.85,23.62,6.47,2.77,2.19,6.31-.88,9-2.12,1.68-.79-.24-3.88-2.25-4.38-3.56-.9-4.28-2.94-4.87-6.35a17.37,17.37,0,0,0-4.88-9.31c-3.54-3.24-4.19-7.53-4.55-11.3-.32-3.28-3.43-5.88-1.91-9.6.39-.94-1.91-2.44-2.76-4.06A23.65,23.65,0,0,1,543,193.5c.18-4.05-1.88-7.72-2.08-11.81-.13-2.81-.13-5.74-1.13-8.64-.73-2.12.11-4.34-3.29-5-1.73-.33-1.26-3.17-.56-4.41,1.08-1.89,1.08-3.4-.26-4.85-3.52-3.77-2.76-9-2.12-12.72.68-4-1.88-6.44-1.71-9.78C532,134.45,529.7,135.47,528.52,134.16Z" transform="translate(-0.9 -0.91)"/><path d="M733.7,566.53c-7.8-2.11-14.58,1.28-21.63,1.14S699.65,571,695,576c-1.6,1.73-3.94,2.34-6.08,3-1.37.43-3.16,1.25-3.19,2.06-.2,5.13-3.69,3.14-6.24,3.15-6.23,0-12.47,0-18.71,0-2.44,0-4.44.24-4.08,3.4s-1.29,3.48-3.9,3.48c-25.31-.07-50.63,0-75.94-.07-1.19,0-3.78.18-3.18-.94.86-1.62.16-3.66,2-5a17.46,17.46,0,0,0,6.87-10.14c.07-.32.12-.89.27-.92,4.82-.92,4.67-6.29,7.69-8.62,5-3.85,6.71-10,10.94-14.26,5.72-5.68,9-13.4,15.6-18.29,2.43-1.79,6.4-1.87,7.71-3.87,3-4.5,9.72-4,11.42-9.67.33-1.09,2-1.62,3.29-2,2.29-.72,3.88-2.34,3.22-4.85s2.43-3.49,2.1-5.73c-.66-4.56-1.24-9.17-4.42-12.86-.65-.75-1.93-1.65-1.38-2.42,2.35-3.3-.36-7.76,2.58-10.76a3.58,3.58,0,0,0,1-3.52c-1.29-9.57,6.77-18.7,16.24-18.81,5.13-.05,10.27.49,15.4-.41,3.89-.68,4.26,3.44,4.55,5.21a8.37,8.37,0,0,0,3.94,5.86c2.69,1.87,3.33,5,2.08,7-3.56,5.59-.85,11.5-1.71,17.18a66.67,66.67,0,0,1-3.2,12c-1.29,3.71-1,9.93,1.65,10.05,7.4.31,10.77,7.06,16.79,9.47,2.12.84,4,3.1,5.46,5.34,1.36,2,1.84,5.23,5.87,4.93,2.53-.19,1.33,3.39,2.66,5.16,2.43,3.24,6.24,4.28,8.75,7.2A98.3,98.3,0,0,1,733.7,566.53Z" transform="translate(-0.9 -0.91)"/><path d="M213.87,653.58c.53-2.46,1.94-4.76-.46-7.24-1.6-1.66,1.14-3.12,1.76-4.65,1-2.41,2.35-4.37.27-6.77-1-1.14-.1-2,.38-3.07,2.56-5.84.06-10.28-6.34-10.09-10,.3-20.1-1.17-30.23.86-3.49.71-8-1-12.11-1-18.19.06-36.39,0-54.59,0-11.37,0-22.79-.69-34.1.18-10.23.78-20.43,1.25-30.68,1.31a2.83,2.83,0,0,0-.5,0c-2.34.37-5.14,3.77-6.42,1.93-1.57-2.25.82-5.85,1.72-8.5A23.69,23.69,0,0,1,49,606.36c3.75-3.35,7.88-3.08,12.19-3.08,5.74,0,11.53,1.44,17.17-1,1.14-.5,2.62-.28,3.94-.28,9,0,18-.33,27,.07,15.09.68,30-2.52,45.07-2,7.93.28,15.55,2.59,23.59,2.18,4.35-.23,8.19-2.63,12.57-2,15.45,2.39,31,1.62,46.56,1.76,2.65,0,2.61.2,1.9,3.29-1.46,6.41-3.52,12.74-4.94,19.15-2,9,.41,18.4-3.14,27.14-.8,2-1.88,2-3.39,2Z" transform="translate(-0.9 -0.91)"/><path d="M331.32,578.62c-2.08,5.2.51,10.38-.43,15.48-.44,2.41,2.41,1.64,3.85,1.64,15.15.08,30.31,0,45.47.09,1.55,0,3.63-.85,4.54.81.8,1.46-1.1,2.55-1.67,3.85-2,4.57-5.36,6.44-10.24,5.81-18.47-2.37-37-1.72-55.59-1.65-2.69,0-4.18-3-7.81-1.14,2.67-2.9,7-4.16,6.13-6.6s-5-.86-7.71-.89c-7.66-.08-15.33-.14-23,0-3.42.07-4.08-1-3.71-4.42,1-9.25,2.36-18.41-2.46-27.48-1.65-3.11-.52-8.44.82-12.22,1.87-5.26,1.09-9.58-1.7-14a9,9,0,0,1-1.29-4.76c-.1-6.65-.06-13.28-.6-19.93-.61-7.38,3.59-9.33,10.89-7.24,5.36,1.53,3.87,3.57,2.7,7.12-2.76,8.42-4.95,17,1.4,25,1.41,1.79,3.1,3.62,5.1,3.69,6.15.23,12,2.45,18.22,2.14,1.89-.1,3.92-1.07,5.49,1,.56.75,1.59.44,2.21-.21,5.65-5.85,4.35-.09,4.52,2.77.34,5.47,3.21,9,7.46,8.86,3.19-.1,7-6,5.83-10.19-.86-3.09,0-6.57-2.61-9.39-1.32-1.43-1.5-4.55.32-6s4-3.51,7.08-2.81c2.71.62,2.83,2.83,3.44,4.9,2.57,8.75.94,18.22,4.67,26.74a2.74,2.74,0,0,1-1.16,3.49c-6.48,4-9.24,11.39-14.77,16.23-.84.74-.78,1.76-1,2.73-.27,1.45-.52,3.46-2.36,3.26-1.69-.18-1-2.14-1.17-3.38S332.57,579.78,331.32,578.62Z" transform="translate(-0.9 -0.91)"/><path d="M260.57,655.69c.7,2.47,3,2.31,5,2,6.9-.94,14.13,2.22,20.83-1.62.27-.16,1.37,1.18,2.11,1.78,4.18,3.41,8.58,4.4,13.73,2,4.43-2.07,6.16-5.53,6.38-10.09.18-3.8,2.89-5.43,7.43-3.47,3,1.27,5.77,1.31,8.72,1.31,12.16,0,24.33-.38,36.48,0,11.38.4,22.7,2,34.16,1.84,3.31,0,6.85,1.78,10.6,1.58-.3,1.55-.84,2.84-.73,4.07.25,2.77-1,3.76-3.48,3.26s-3.95,1.44-5.94,2.1c-3,1-1.62,3.65-1.68,5.58-.08,2.31,2,1.95,3.34,1.78,3.51-.45,4.16,1.26,4.13,4.32-.17,14.55,1.64,13.68-13.22,13.6-7.49,0-15,0-22.49,0-10.53.1-19,4.72-23.46,14-2.34,4.84-2.07,11.37.11,16.53,1.85,4.38-1.16,7.24-1.31,10.85,0,.72-1,.82-1.65.64-1-.27-1.08-1.18-1.09-2q0-6.25-.05-12.49c0-4.5-.09-9,.11-13.49.54-11.93-4.63-13.34-13.69-13.93-10.79-.7-21.65-.24-32.47-.1-2.62,0-4.06-.6-5.26-3.15A35.63,35.63,0,0,0,271,666.19a11.63,11.63,0,0,0-5.2-1.08C258.42,664.9,257.24,661.61,260.57,655.69Zm64.46,3c-2.84.07-5.4-.55-7.14,2-2.43,3.57-4.17,7.48-2.13,11.5,2.14,4.22,6.46,4.76,10.79,4.17,4.58-.63,6.35-4.61,8-7.92,1.27-2.51,1.08-5.9-2.33-7.69-.76-.4-1.49-1.44-1-2.07,5-6-1.24-4.59-3.72-5.81a4.75,4.75,0,0,0-6.05,1.55C320.35,656.33,323.65,656.68,325,658.66Zm40.24,12c-2.92-.37-5-.1-5.24,4.44s2.66,5.24,5.51,5.82c2.49.51,6.89-4.07,6.57-6.56C371.63,670.46,368.53,670.62,365.27,670.61ZM304.66,669v0c-1.82,0-3.64,0-5.46,0-1.17,0-2.41,0-2.45,1.69a1.92,1.92,0,0,0,2,2.25q5.71,0,11.42,0c1.48,0,2-.94,1.94-2.28s-.94-1.6-2-1.61C308.31,669,306.49,669,304.66,669Zm32.2,3.08c4,1.44,6.77.83,9.47.87,1.09,0,3.09.85,3.06-1.27,0-1.27-1.37-2.25-2.72-2.59C343.33,668.21,340.74,670,336.86,672Z" transform="translate(-0.9 -0.91)"/><path d="M779.33,486c-5.38,1-10.34-.13-15.25-1.51,1.47-5.44-1.6-9.11-7.55-10.21-3.94-.73-8.36-1.47-10.76-5.56-.74-1.25-2-.84-3-1.22-2.68-1-6.46-.61-6.56-5.16,0-1.9-2-1.53-3.17-1.45-3,.21-4.55-1.23-6.28-3.73-2.21-3.18-5.5-5.65-8.46-8.27-4.93-4.36-10-9-12.46-14.92-2.08-5-6-9.57-5.44-15.8.12-1.23-2.67-2.68-3.56-5.23-2.63-7.55-.86-15.09-1.53-22.57-.29-3.18.9-6.41-1.47-9.56-1.18-1.57,1.85-3.58,1.64-6.16-.45-5.42-.14-10.9-.14-17.72,2.39,3.57,8.13,3.59,5,9.1-.12.2.34,1,.7,1.19,6.68,3.72,8.95,11.17,12.51,16.92,3.85,6.22,10.75,9.81,13,17.24.89,2.94,5.33,4.48,6.2,8,1.87,7.66,8.07,12.56,11.58,19.06,1.54,2.86,5,5,4.49,9.23-.35,2.8,3.65,2.63,4.8,5.24,2.35,5.31,8.14,8.82,8.31,15.4,4.22,1.23,5.25,5.08,7.34,8.22.63.95,3.29.55,2,3.17-.21.43.2,1.67.53,1.76,4.83,1.31,2.42,7.44,6.42,9.53C779.16,481.51,779,484.26,779.33,486Z" transform="translate(-0.9 -0.91)"/><path d="M307.54,691.45c5.5,0,11,0,16.49,0s8.05,2.69,8.07,8.23c0,4.66-.32,9.36.11,14s-3.2,8.37-2.18,13c.16.7-.46,1.1-1.18,1.33-7.33,2.28-9.49,9.45-14,14.48a11.7,11.7,0,0,0-3.3,9.34c.12,1.89.3,3.55,2,4.83,3.32,2.53.52,5.08-1.22,4.81-12.12-1.87-16,7.66-21.43,14.93s-10.58,15-15.78,22.54c-1.94,2.83-1.43,5.94-.26,8.88.6,1.51,4,2.21,2.29,4.2-2,2.4-4,5.29-7.85,5.59-4.41.33-8.53-1.19-12.52-2.19-12.85-3.21-25.32-8-38.22-10.83a21.77,21.77,0,0,1-10.51-5.44c-1.08-1-2.4-1.62-1.42-3.63.79-1.63,1.32-2.83,3.48-2.67,2.44.19,5,.5,7.15-1.31a1.37,1.37,0,0,1,2.27,1c.87,7.87,8.09,8,13.11,10.2,5.85,2.53,12.34,3.6,18.57,5.22,3.51.92,13.62-4.16,15.76-7.8,5.37-9.1,11.76-17.47,17.91-26,4.26-5.93,7.94-12.32,12.2-18.31,2.22-3.12,4.38-6.3,6.42-9.58,5.34-8.56,4.35-16.48-5.56-20.16-1.46-.55-2.52-2.11-3.91-3-3.93-2.39-7.94-4.46-12.85-3.56-2.21.41-2.11-1.48-2.9-3-3.37-6.4,2.93-9.6,4.42-14.31.94-3,3.66-5.3,3.46-8.93-.12-2.25,2-1.8,3.37-1.83,3-.07,6,0,9,0Z" transform="translate(-0.9 -0.91)"/><path d="M487.73,745.52c-2,8.37,2,18.08,2.62,28.08.46,7.78.91,16.07,3.32,23.5,3.45,10.67,4.47,21.86,8.69,32.43a73,73,0,0,1,4.37,20.71c0,.33,0,.67,0,1,.39,2.9,3.88,5.81.79,8.64s-7.67,2.38-11.56,3c-5.66,1-4.1-4.66-5.25-7.45-3.81-9.22-3.57-19.5-7.34-28.86-1.44-3.57-1.07-7.93-2-12A136.11,136.11,0,0,0,477.66,801c-1.26-3.65-.6-8.13-2.11-12-3.42-8.71-3.62-18.07-5.14-27.1-1.44-8.58-.34-17.6-.29-26.42,0-.53.51-1.44.92-1.53,3.52-.8,5.29-3.91,7.9-5.87,2.43-1.83,5.2-1.41,7.6-.75,2.22.61,1.07,3.17,1.14,4.85C487.84,736.06,487.73,739.9,487.73,745.52Z" transform="translate(-0.9 -0.91)"/><path d="M44.23,658.21c1,.69,1.89,1,1.91,1.4.28,6.25,4.88,4.93,8.64,5,7.66,0,15.33-.28,23,.14,3.89.21,6.85-1.26,8.44-4.06s3.36-2.86,5.92-3c5-.3,10.06-1.93,14.83-1.21a81.25,81.25,0,0,0,11.11,1.26c4.33,0,8.67,0,13,.05,1.5,0,3.61-.78,4,1.75.3,2,.32,4.23-1.86,5.24-11.34,5.24-21.53,12.62-33.74,16.38-9.67,3-18.58,8.35-28,12.22-8.47,3.47-17.08,6.58-25.34,10.6-2.43,1.18-4,.17-4-3,.12-7-1.12-14.23.33-20.91C44,672.91,43.37,665.79,44.23,658.21Z" transform="translate(-0.9 -0.91)"/><path d="M402.12,632.28c.37,3.39-4.42,6-.93,9.7.66.7-1.14,1.24-2.11,1.19-11.55-.6-23.07.47-34.7-1-10.49-1.38-21.3-.72-31.95-.28-10.47.42-20.63-2.44-31.12-2.09-3.45.12-7.34-2.26-10.55-4.54-6-4.3-1-8.81.05-13,.5-2,1.64-4.14-.12-5.32-5.23-3.5-4.83-7.61-1.91-12.54,4.85,5.51,11.34,6.42,18.18,6.29,1.55,0,3.56-.61,3,2.32-.13.71.87,1,1.5.91,5.36-1.05,10.13,2,15.48,2,10.44,0,20.78,1.5,30.46,6,1.81.84,4.53,1.1,4.31,3.26-.25,2.44-2.63,4.24-5.08,4.81-8.63,2-17.3,3.59-26.26,3.32-4.29-.13-8.83-1.28-12.92,1.59a4.07,4.07,0,0,1-3.85-.05c-3.22-2.79-5,.69-7.46.89.11,1.53,1,1.84,1.77,1.74,8.83-1.17,17.47,1.08,26.1,1.94a414.12,414.12,0,0,0,42.39,1.59c3,0,6,1.73,9.18,1.25,1.36-.2,3.38.61,3.58-1.62.23-2.52-1.83-2.18-3.47-2.34-11.93-1.14-23.86-2.14-37.24-1.12,5.67-2.23,10.5-2.42,14.41-5.46,3.2-2.48,5.05-5.21,4-9.24s-4.77-5-8-5.76c-10.25-2.35-20.26-6.2-31.08-5.65,7.58.2,15-1,22.74.71,6.37,1.39,13.26.4,19.92.43s6.62,0,6.61,6.77c0,11.82,1.54,13.35,13.61,13.37Z" transform="translate(-0.9 -0.91)"/><path d="M459.9,736.78c1.62,4.41-3.79,8.49-2,13.18,2.73,7.13,1.27,14.74,3.33,22,1.3,4.58.82,9.7,2.23,14.47,2.14,7.23,2,14.95,5.15,22,1.61,3.6,1.19,7.88,2.16,11.88,2.51,10.29,4.62,20.7,7.31,31,1.17,4.47,1.61,9.1,4,13.19a1.25,1.25,0,0,1,.17.94c-1.36,3.19-4.9,2.95-7.35,4.4-1.71,1-4.1-.46-4.37-2.18-.39-2.5-2.16-4.34-2.5-6.7-1.2-8.3-4.07-16.31-5.22-24.49-1-7.27-3-14.38-4.65-21.34-2.41-10.26-2.49-21-6.61-31-1.62-3.92-1-8.87-2.23-13.37-3.43-12.25-1.55-24.93-2.08-37.42-.16-3.86,1.18-4.79,4.83-4.68C461.56,729,459.69,728,459.9,736.78Z" transform="translate(-0.9 -0.91)"/><path d="M516,736.78c0,5.56-1.32,11.55.32,16.58,2.21,6.77,0,13.62,1.85,19.9,2,6.83,3,13.83,4.87,20.67,1.65,6.19,2.44,12.72,4.37,18.85,2.68,8.5,4.2,17.28,7.17,25.74A105.71,105.71,0,0,1,538.06,853c.72,3.66-4.07,4.08-6.8,5-2.47.79-4.26-.63-5-3.46-2.31-8.7-5.44-17.23-7.07-26-1.15-6.2-3-12.25-4.58-18.24-1.77-6.79-2.3-13.92-5-20.48a5.5,5.5,0,0,1-.21-2c-.13-11.29-3.12-22.25-4.34-33.42-.93-8.58-1.14-16.59.31-25,.54-3.09,1.46-3.72,4.5-4.23,5.6-.94,7.44.55,6.15,6.12-.41,1.74-.07,3.65-.07,5.48Z" transform="translate(-0.9 -0.91)"/><path d="M659,644.69c-5,3.27-3.21,7.42-1.29,11.3,1.7,3.43.74,4.75-2.8,4.35-3.83-.44-8,1.5-11.45-1.58-4.06,4-7.82-.6-11.82-.52-16.63.35-33.28.16-49.92.17a21.33,21.33,0,0,1-3,0c-6.53-1-6.94-1.82-4.24-8,.38-.87.18-2,.6-2.85,1.41-2.86,2.46-5.52,6.94-5.33,11.13.48,22.3.4,33.44.09C630,641.91,644.38,643.24,659,644.69Z" transform="translate(-0.9 -0.91)"/><path d="M159.39,684.1c-4.33,0-8.72.48-13-.11-7.73-1.06-13.47,2.9-19.35,6.68-7,4.48-14.37,8.23-21,13.22-1.69,1.27-5,4.07-7.06,1.49-1.8-2.27-.92-5.74,0-8.91,2.19-7.16,8-10.33,13.67-13.78,6.25-3.78,12.43-7.69,18.8-11.28a13.82,13.82,0,0,1,7.11-1.71c10.48.18,21,.06,31.45.09,7.45,0,11.35,3.55,12,10.7.2,2.35-.3,3.74-3.16,3.67C172.37,684,165.88,684.11,159.39,684.1Z" transform="translate(-0.9 -0.91)"/><path d="M393.85,691.46c2.82,0,5.65,0,8.47,0,5.17-.08,9.87,1.83,12.05,6.25,2.4,4.85.41,9.78-3.09,13.91-2,2.37-5,3.79-6.22,7-.56,1.44-2.33.88-3.62.88-6.32,0-12.65.34-18.94,0-2.35-.14-4.05,3.12-6.35,1s-3.6-5-4.87-7.86c-2.18-4.83,0-11.43,3.12-15.54C379.71,690,386.88,691.54,393.85,691.46Z" transform="translate(-0.9 -0.91)"/><path d="M471,604.54c-14.49,0-29,0-43.47,0-2.83,0-5.63-.18-6.12-3.59-.22-1.48-1.85-3.28-.23-4.6,1.33-1.06,3.12-.61,4.78-.13,4.54,1.33,9.1.57,13.72.32,5.8-.32,11.69-3.12,17.55.18,1.16.65,2.94.27,4.44.27,18.07,0,36.14,0,54.22.09,1.33,0,4-1.76,4.1,1.47.1,2.76-.57,5.41-4,5.85a22.9,22.9,0,0,1-3,.05H471Z" transform="translate(-0.9 -0.91)"/><path d="M599,597c5.81,0,11.63-.06,17.44,0,2.24,0,4.07,0,3.08,3.62-.85,3.08,1.77,5.66,4,7.84,1,1,2.28,1.92,3.4,2.9.51.44.92,1,.48,1.69a1.42,1.42,0,0,1-1.63.68c-13.7-2-27.46-.54-41.19-.7-4.54,0-6.41-1.19-5.7-5.78a7.5,7.5,0,0,0-.25-3.43c-2.34-6.84-2.38-6.83,4.47-6.83Z" transform="translate(-0.9 -0.91)"/><path d="M417.25,631.6c.11-2.26-.16-3.73,2.33-4.71a6.06,6.06,0,0,0,3.41-6.38c-.31-2.76,1-3.37,3.48-3.35,10,.07,19.92.11,29.88,0,3,0,3.75,1.22,3.52,3.88-.15,1.79-.45,3.67.63,5.34.38.59.71,1.34.07,1.76-2.92,1.93-5.5,4-5.29,8,0,.54-1.13.58-1.69.13-3.11-2.48-6.73-.8-10.09-1.27-2.85-.41-6.09,1.17-8.17-2.7-.78-1.45-3.92-1.3-5.39.26-2.53,2.67-5.58,2.34-8.72,2.48C418.27,635.16,416.72,634.29,417.25,631.6Z" transform="translate(-0.9 -0.91)"/><path d="M447.69,688.22c1.42,3.86,1.31,8.43,7,5.15,1.24-.71,4.81-2.66,6.18.09,2.15,4.34,6.32,8.39,3.55,14.07-1,2.15-3.5,3.84-1.43,6.94,1,1.45-1,1.64-2.12,1.59-7.42-.38-14.57,2.88-22.05,1.68a4.21,4.21,0,0,0-1.5,0c-6.7,1.33-6.7,1.34-6.69-5.48,0-3.13,0-6.26,0-9.72C439.14,708.34,445.65,700.22,447.69,688.22Z" transform="translate(-0.9 -0.91)"/><path d="M42.41,746.41c-1.77-5.92-4.48-10.65-4.39-16.29,0-2.73.08-5.35-1.21-8.16-2.14-4.68.59-9.15,6.7-11.83,8-3.51,16.19-6.75,24.28-10.14,2.08-.87,4.17-1.73,6.15-2.79,1-.52,1.9-1,2.64-.06s.14,1.92-.7,2.56C67.59,706.05,64,715.85,58,723.88c-.92,1.23-1.91,2.55-3.58,2.19s-1.25-2.09-1.29-3.33c-.08-2.33,0-4.66,0-7,0-3.29-1.8-4.7-5-4.75-3.45-.06-3,2.31-3,4.45,0,1-.08,2,0,3C45.78,727.6,44.19,736.55,42.41,746.41Z" transform="translate(-0.9 -0.91)"/><path d="M434.13,731.19c3.46.67,3.26,2.81,3.06,4.77-.74,7.27.27,14.54,0,21.8s1.61,14,3.35,20.94c1.17,4.65,1.21,9.61,2,14.43,1.2,7.67,3.87,14.94,4.9,22.64a111.63,111.63,0,0,0,2.86,14.71c1.83,6.65,3,13.49,5,20.14,1.05,3.54,1.15,7.29,2.36,10.89a21,21,0,0,0,2.12,5.27,2,2,0,0,1-.77,3c-1.36.55-1.87-.28-2.49-1.54-2.08-4.28-1.91-9.07-3.4-13.5-2.11-6.23-3.6-12.66-5.26-19-.9-3.46-.87-7.06-2.09-10.52-2.72-7.75-3.47-16-5.34-24-1.11-4.72-2-9.83-2.82-14.75-.89-5.64-.12-11.75-3.08-17.07a5.23,5.23,0,0,1-.36-2.42C434.13,755.18,434.13,743.38,434.13,731.19Z" transform="translate(-0.9 -0.91)"/><path d="M174.49,651.41c-1.78-.66-1.28-2.79-2.37-2.36-7.05,2.78-13.77-2.54-20.75-.68-1.25.34-2.72,0-3.89.51s-2.68,1.36-2.35,2.83,1.91,1,3,1c5.6-.07,10.86,2.91,16.59,1.81.91-.18,2.57.43,1.86,1.46-1.07,1.53-.92,4.45-3.3,4.53-6.65.22-13.31.07-20,0a1.79,1.79,0,0,1-1.92-1.86c-.18-3.52-2.56-5.33-5.41-6.42-2.33-.9-2.07-1.47-1-3.5,2.27-4.18,2.59-4.63,7.82-4.58,8.65.07,17.31.06,26,.05,1.62,0,3.31.29,4.66-1.15s2.37-.55,3.42.45c1.28,1.23.51,2.13-.54,2.79C174.57,647.41,174.72,649.34,174.49,651.41Z" transform="translate(-0.9 -0.91)"/><path d="M497.26,726.33c0,6.08.51,11.26-.11,16.3C496,752,498.44,761,499.63,770c1,7.41,1.54,15.23,4.81,22.56,1.75,3.94,1.07,9.23,2.21,13.88,1,4.19,1.52,8.45,3.57,12.39,1.34,2.59.55,5.67,1.59,8.63,2.6,7.37,4.15,15.12,6.22,22.69.33,1.21,1.62,2.23,1.74,3.41.14,1.44,1.19,3.78-1,4.27-2,.42-3.22-1.18-3.72-3.21-1.85-7.46-3.27-15.07-5.77-22.31-3.16-9.18-4.31-18.82-6.9-28.13-1.38-5-1.89-10.89-2.8-16.24-1-5.6-.34-11.65-3.12-17-.62-1.21-.26-2.94-.3-4.43-.23-7.38,0-14.69-1.56-22.08A27,27,0,0,1,497.26,726.33Z" transform="translate(-0.9 -0.91)"/><path d="M204.21,507.53c4.51,5.05,8.79,4.49,13.15,1.85,2-1.24,4.21-1.52,4.35,1.3.21,4.35,2.26,8.26,2.32,12.61,0,2.9-1.3,4.05-3.93,4.76-4.37,1.18-8.71.87-13.12.62-1.73-.09-2-1.08-1.94-2.19C205.62,520.51,203.58,514.67,204.21,507.53Z" transform="translate(-0.9 -0.91)"/><path d="M33.48,629.82c-.57,7.27,2.58,14.73-1.37,21.77,2.6,4.39-.87,8.61-.35,13,.86,7.24-1.05,14.35-1.6,21.53a77.72,77.72,0,0,0,3.34,28,15.27,15.27,0,0,1,.33,3.46c.6,9.25,1.87,18.36,5.21,27.1a4.36,4.36,0,0,1-.42,4.43c-5-2.84-4.44-8.31-5.67-12.7-2.43-8.76-1.15-18.12-3.91-26.9a12.2,12.2,0,0,1-.12-3.48c0-9.49.27-19-.07-28.48-.42-12.07,2.85-23.85,2.25-36C30.93,638.06,32.45,633.76,33.48,629.82Z" transform="translate(-0.9 -0.91)"/><path d="M360.58,514.42c2.84,4.31,6.26,4.17,10.17,2.53,2.14-.89,3.36-.24,3.28,2.43-.14,5-.12,10,0,14.92.07,2.78-1,3.79-3.81,3.78-2.37,0-4.55-.81-6.84-1s-2.71-1.53-2.59-3.43.08-4,.31-5.94C361.6,523.33,362.83,519,360.58,514.42Z" transform="translate(-0.9 -0.91)"/><path d="M483.09,627.6c3.56-1.81,5.07-4.53,5.3-6.73.42-4.18,2.89-4.07,5.48-3.61,4.31.77,8.39-3.35,12.84-.22,1.35.94,2.47,2.23,1,2.58-5.2,1.22-4.35,6.08-6.26,9.21-3.12,5.1-7.95,6-12.52,2.24C487.42,629.83,486.37,627.94,483.09,627.6Z" transform="translate(-0.9 -0.91)"/><path d="M398.18,534.18c-3.63-2.6-6.51-1.78-9.33-.17-3.26,1.85-4,.34-3.94-2.76a53,53,0,0,1,.94-11.32c.44-2-.81-4.9,3-5.08,3.54-.16,5,1.66,5.66,4.91,0-3.36,1.26-5.86,4.58-7.27C399,519.53,397.43,526.37,398.18,534.18Z" transform="translate(-0.9 -0.91)"/><path d="M275.36,648.31c-2.81,0-5.64-.19-8.44.05s-3.5-.87-3.32-3.4c.5-7,9.15-12.77,14.49-8.7,3.32,2.54,7.5,4.47,10,8,2.12,2.94-.91,3.74-2.82,3.95a93.7,93.7,0,0,1-9.92.09Z" transform="translate(-0.9 -0.91)"/><path d="M37.19,655.17c3.27,2,5.69,4,2.58,8-.77,1-.46,2.88-.47,4.36,0,12,0,23.95-.09,35.93,0,1.44,1,4-1.41,4-2.25,0-3-2.14-3-4.4.05-9.48-.08-19,.07-28.45C35,668.21,33.54,661.65,37.19,655.17Z" transform="translate(-0.9 -0.91)"/><path d="M398.84,611.16c-.44-3,1.15-4.44,3.76-6,3.31-2.06,7.3-.27,10.36-2.79,1-.79,2,.69,2.87,1.45,1.26,1.12.28,1.87-.3,2.92-1.64,2.95-4,6-4.25,9.1-.41,5.61-2.94,3.58-5.4,2.18C403,616.32,398.14,616.6,398.84,611.16Z" transform="translate(-0.9 -0.91)"/><path d="M358.46,694c-3.46,6.54-2.12,18.84,2.3,23.88.67.76,1.67,1.57,1,2.52-.84,1.25-1.82.35-2.94-.14-5.38-2.33-9.53-5.88-10.82-11.7C346.81,703.1,350,695.59,358.46,694Z" transform="translate(-0.9 -0.91)"/><path d="M871.38,658c-1.1,3.58-7.14,7-10.26,5.32-2.47-1.38-3.68-.66-4.89,1-2,2.68-4.57,2.19-6.46.68-2.56-2-6.15-2.86-7.62-6.38-.75-1.8-.48-2.47,1.37-2.55,1.32-.06,2.82-.42,4,.05C855.11,659.26,863.12,657,871.38,658Z" transform="translate(-0.9 -0.91)"/><path d="M485.07,614.39c-2.24,1.14-5.07,1.3-4.19,5.49.36,1.73-1.48,5.56-4.9,5-2.88-.51-8,3-8.09-3.72a1,1,0,0,0-.18-.46c-1.36-2-5-3.25-2.77-6.48,1.87-2.73,4.47.56,6.85-.22,1.93-.63,4.09.25,6.12-1.27C480.63,610.65,482.67,613.76,485.07,614.39Z" transform="translate(-0.9 -0.91)"/><path d="M437,696.64c-1.77-7.72-1.77-7.7-10-7.57-3.32,0-6.64,0-10,0-1.62,0-3.31.18-4.11-2.14a11.17,11.17,0,0,1,6.42-.45c5.64.8,9.57-1.67,12.7-6,.43-.6.3-1.88,1.45-1.44.69.26,1.07,1.21,1.69,1.72,3,2.51,7.84,3.92,5.72,9.43C440,692.49,439.45,695.09,437,696.64Z" transform="translate(-0.9 -0.91)"/><path d="M248.49,640c-1.2,0-1.66-.44-1.81-1.13a3.09,3.09,0,0,1,.79-3.18c3.56-3.47,4.88-7,.61-11.12-.67-.64.28-3,.5-4.55A59.48,59.48,0,0,1,252,607.5c1.07-2.86,3.72-2.3,5.45-3.6.9-.67,1.76.53,1.28,1.72A79.11,79.11,0,0,0,253,629.8c-.18,2.41-1.67,4.77-1.76,7.46C251.19,638.56,249.61,639.61,248.49,640Z" transform="translate(-0.9 -0.91)"/><path d="M772.53,683.61c-3.35,3.8-6.43,6.58-11.94,5.58-4.34-.79-9,0-13.44-.22-3.62-.22-7-1.39-8.91-4.92a2.94,2.94,0,0,1-.34-2.3c.42-.8,1.57-.56,2.26-.17,6.45,3.63,13.49,3.46,20.55,3.32C764.56,684.83,768,681.47,772.53,683.61Z" transform="translate(-0.9 -0.91)"/><path d="M572.14,629.43c-4.08,4,.24,10.73-3.66,15.89-1.6,2.13-3.17,3.9-5.49,2.63-1.88-1-1.46-3.75-.23-5.26,1.63-2,1.27-4.16,1-6.12-.55-4.08,1.14-7.56,2.14-11.26.52-1.91,2.09-1.55,3.22-1.28C571.31,624.56,572.32,626.21,572.14,629.43Z" transform="translate(-0.9 -0.91)"/><path d="M193,659.37c-2.12,3.8-6.39,4.74-7.43,8.57-.24.87-1-.16-1.58-.3-3.94-1-7.1-4-11.44-4-1.13,0-1.31-1.37-1.11-2.39a3.81,3.81,0,0,1,3.33-3.28c3.3-.27,6.92-.88,9.87.18A21,21,0,0,0,193,659.37Z" transform="translate(-0.9 -0.91)"/><path d="M684.12,660.19c-7.53.36-7.61.36-7.7-6.11-.06-3.76-2.18-6.35-5-9.39H686.4C680.05,650.82,678.75,649,684.12,660.19Z" transform="translate(-0.9 -0.91)"/><path d="M716.48,592.57c-2.14-.18-4.76.12-7.54-1.21-2.44-1.16-2.88-2.52-2.42-4.48.58-2.49,3.22-2.58,4.74-2.12,3.74,1.13,7.3,2.57,11.35,2.29,1.83-.12,1.68,1.64,1.69,3,0,1.53-.58,2.54-2.28,2.55Z" transform="translate(-0.9 -0.91)"/><path d="M451.29,653h28C473,660.66,461.69,660.61,451.29,653Z" transform="translate(-0.9 -0.91)"/><path d="M696,644.25c2.5,0,4.49,0,6.47,0,6.23,0,6.26.11,4.08,5.91-1,2.66,1.2,4.71,1.69,7.1.18.86,1.4,1.75.49,2.59-1.19,1.08-2.85.52-4.31.48a1.66,1.66,0,0,1-1.73-2C703,652.69,698.76,649.11,696,644.25Z" transform="translate(-0.9 -0.91)"/><path d="M441.11,642.43h47.21c-7.92,0-15.29,4.45-23.8,1.32C457.15,641,448.83,648.39,441.11,642.43Z" transform="translate(-0.9 -0.91)"/><path d="M840.76,636.4c.46,4.47-2.18,7.52-2.87,11.16-.43,2.28-2.55,2.51-3.73.08-1.37-2.81-3.59-5.42.57-8.38,2.57-1.83.73-5.64,1.15-8.52.17-1.2-.65-3,1.21-3.31,2.13-.37,1.67,1.5,1.82,2.71C839.2,632.52,842.39,634.09,840.76,636.4Z" transform="translate(-0.9 -0.91)"/><path d="M737.26,646c-5.56,2-6.88,4.59-4.71,9.86.24.6.84,1.17.82,1.74,0,1.49,1.09,3.91-1.1,4.09-1.24.1-4.45-.15-3.52-3.75.59-2.27-1.65-4.06-2.67-6-2.51-4.86-2-5.9,3.27-5.91h7.91Z" transform="translate(-0.9 -0.91)"/><path d="M711.53,599.8a16.29,16.29,0,0,1,1.84,0c5.63,1.29,5.56,1.32,7.86,6.66,1,2.27,2.15,4.6,4.77,5.37a3.18,3.18,0,0,1,2.35,3.82c-.33,1.56-2.27.76-3.5.85-1.81.12-3.63,0-5.37,0-1-3.31,4.4-6.21-.13-9.42C716.7,605.23,714.55,602.66,711.53,599.8Z" transform="translate(-0.9 -0.91)"/><path d="M637.39,598.75c2.39,0,4.79,0,7.18,0,.65,0,1.95-.11,1.51,1.2-2.31,6.77,2.95,9.37,6.88,12.73a8.27,8.27,0,0,1,1.13,1.55c-1.53,1.18-3.05.5-4.43.49-3.31,0-8,2.09-5.18-5.27,2-5.1-3.45-7.29-7.5-9.29C637.12,599.71,637.25,599.23,637.39,598.75Z" transform="translate(-0.9 -0.91)"/><path d="M687.79,599h8.71c-2.46,4-.27,10.12,4.47,12.95.87.52,2.75.12,2.24,1.89-.41,1.41-2,.87-3.06.93a27.1,27.1,0,0,1-3.49,0c-2-.15-5.2.54-2-3.22,1.34-1.58.88-3.58-.83-5.32C691.61,604,689.78,601.4,687.79,599Z" transform="translate(-0.9 -0.91)"/><path d="M757.83,678.52c1.11-1.91,2.57-3.51,3.41-5.67,1.31-3.38,5.24-1.2,8-1.47,2-.2,3.43,1.14,3.76,3.24.15,1,.08,2.47-1.1,2.37C767.16,676.59,763,680.68,757.83,678.52Z" transform="translate(-0.9 -0.91)"/><path d="M392.13,609.87c.12,4.07-.65,7.3-4.84,8.64-1,.32-1.76,1.83-3,.79-1-.83-.79-2.27-.46-3.27a42.07,42.07,0,0,0,2.17-7.84c.21-1.66,2-3.93,4.14-3.47C393,605.33,391.85,608.18,392.13,609.87Z" transform="translate(-0.9 -0.91)"/><path d="M661.4,598.75c3.3,0,5.23,0,7.16,0,.75,0,1.93-.09,1.68,1.14-1.35,6.64,3.57,9.67,7.48,13.31a5.07,5.07,0,0,1,.63,1.24H668C674.36,606.6,666.6,603.91,661.4,598.75Z" transform="translate(-0.9 -0.91)"/><path d="M572.19,609.26c.3,2.4-.45,5.13-3,5.24-3.17.12-3.19-2.91-3.4-5.49-.26-3.28-.93-6.45,1.7-9.21,1-1.1,2.73-1.19,2.6-.12C569.65,603.19,572.6,605.75,572.19,609.26Z" transform="translate(-0.9 -0.91)"/><path d="M281.63,605.62c-3.47.43-.13,6.9-5,5.57-1.83-.5-6.32,0-5.39-4.07.58-2.57,1.67-5.78,5.84-5.13C279.33,602.33,280.79,603.13,281.63,605.62Z" transform="translate(-0.9 -0.91)"/><path d="M743.91,585.38c5.57-2,4.55,3.58,6.28,5.83.84,1.09-1.56,2.65-2.35,1.84-2.14-2.19-7.56,3.1-7.48-3.42C740.39,587.19,739.12,583.82,743.91,585.38Z" transform="translate(-0.9 -0.91)"/><path d="M47.86,740.07V718.35c2.77,1.51,3.13,4,3,6.78-.15,2.53-.15,5,2.34,6.62,1.74,1.15,1.33,2.34-.13,3.55S50.11,738,47.86,740.07Z" transform="translate(-0.9 -0.91)"/><path d="M209,639.06c-8,2.14-24.55,1.27-27.71-1.82C190.72,637.67,199.42,636.22,209,639.06Z" transform="translate(-0.9 -0.91)"/><path d="M758.92,661.68c-3.95,1-5.79.38-5.91-4.06-.08-2.66-2.27-5.27-3.47-7.91-.28-.62-1.49-1.24-.26-2a2.21,2.21,0,0,1,1.88-.16c1.92,1.23,4.7,2.38,4.76,4.63C756,655.7,757.77,658.39,758.92,661.68Z" transform="translate(-0.9 -0.91)"/><path d="M745.65,669.82c-.72,2.49-1,4.56.15,7a35.43,35.43,0,0,1-10.93-3.54c-.89-.5-2.11-1.31-1.69-2.68s1.63-.81,2.54-.82C738.84,669.8,742,669.82,745.65,669.82Z" transform="translate(-0.9 -0.91)"/><path d="M79.81,658.55c-9.12-1.45-17.82,3.76-27.33,1.8C58.84,657.68,72.31,656.57,79.81,658.55Z" transform="translate(-0.9 -0.91)"/><path d="M108.89,637.39H132l0,1H109.08Z" transform="translate(-0.9 -0.91)"/><path d="M145,637.43h22.66l0,.61h-22.6Z" transform="translate(-0.9 -0.91)"/><path d="M283.12,622.84c.26,2.16-.06,4.31-2.62,5.09-1.19.36-2.82.67-3.67-.64a2.39,2.39,0,0,1,.46-3.18c.77-.67,1.54-1.28,1.42-2.45-.18-1.87.38-3.69,2.46-3.42C283.61,618.56,283.15,620.88,283.12,622.84Z" transform="translate(-0.9 -0.91)"/><path d="M44.24,640.1c5.87-3.05,11.38-3,16.91-2.83,1.17.05,2.57.06,2.39,1.72-.14,1.35-1.47,1.08-2.39,1.09C55.76,640.11,50.38,640.1,44.24,640.1Z" transform="translate(-0.9 -0.91)"/><path d="M94.69,637.25c-1.52,1.8-3.34,1.23-5,1.37-4,.32-8.21-.82-12.14,1.32-.82.44-3,.9-3.27-1s1.61-1.7,2.84-1.71C83,637.23,88.83,637.25,94.69,637.25Z" transform="translate(-0.9 -0.91)"/><path d="M426.2,656.89c-3.32,0-6.59,0-9.86,0-1.29,0-3.2-.14-1.9-2.11,2.14-3.25,5.68-1.66,8.65-1.93C425.86,652.57,426.25,654.42,426.2,656.89Z" transform="translate(-0.9 -0.91)"/><path d="M389.85,624.69c3.49-3.17,9.6-3.3,12.71-.52.32.29.7.84.63,1.19-.18.93-1,1.07-1.86,1.26C397.41,627.5,394.14,624.81,389.85,624.69Z" transform="translate(-0.9 -0.91)"/><path d="M104.07,651.8c-1.76-1-8.53,3.55-4.21-4.1.83-1.47-.85-4.25.77-6.23C107.43,643,100.6,649,104.07,651.8Z" transform="translate(-0.9 -0.91)"/><path d="M746.11,608.77c2.63,2.45,4.42,4.1,6.19,5.77.72.68,1.52,1.39.51,2.43-.58.58-1.4,1.45-2.08.89-1.9-1.56-7.12-.36-4.83-5.59C746.2,611.58,746,610.68,746.11,608.77Z" transform="translate(-0.9 -0.91)"/><path d="M60,739.15c.1,1.62-5,7.15-6.4,6.81A2.58,2.58,0,0,1,52,744.38c-.33-1.64,4.6-6.94,6.34-7.09C59.75,737.17,60,738.07,60,739.15Z" transform="translate(-0.9 -0.91)"/><path d="M744.64,607.81l-7.08-6.58C745.11,599.25,745.38,599.49,744.64,607.81Z" transform="translate(-0.9 -0.91)"/><path d="M411.26,662.56c.72,3.7-2,6-2.17,8.89-.18,3-1,6.47,3.23,8.14-2.68,1.87-4.64,3.21-4.33-1.3C408.35,673.1,406.6,667.52,411.26,662.56Z" transform="translate(-0.9 -0.91)"/><path d="M799.28,580.25c.09,1-.63,3.06-1.58,2.73-2.81-1-3.18-4.25-4.5-6.55-.92-1.6,1.19-1.56,2.18-1.47C798.22,575.24,799.27,577.11,799.28,580.25Z" transform="translate(-0.9 -0.91)"/><path d="M297,655.33c-1.67-1.09-2.58-2.94-2.21-4.13.53-1.74,2.07-3.6,4.28-3.35,1.3.15,3.19,1.19,2.73,2.85C301.17,653,298.87,654,297,655.33Z" transform="translate(-0.9 -0.91)"/><path d="M546,657.38c.12,1.67-.18,3-2.26,3-2.84,0-2.39-2.2-2.35-3.92,0-1.32-.61-3.52,1.58-3.36S546.15,655.11,546,657.38Z" transform="translate(-0.9 -0.91)"/><path d="M184.29,627.33h23.77c-1.59,4.58-4.3.23-6.49.58-2.91.48-6,.13-8.95.13h-8.34Z" transform="translate(-0.9 -0.91)"/><path d="M669.67,655.26c.13,1-.31,1.47-1,1.57-1.14.15-2.4.41-3.17-.71a2.5,2.5,0,0,1-.29-1.89c.58-2-3.1-2.55-1.41-4.66.23-.29,1.26-.24,1.76,0C668,650.76,668,653.69,669.67,655.26Z" transform="translate(-0.9 -0.91)"/><path d="M134.65,627.83H117.91C120.94,625.16,130.33,625,134.65,627.83Z" transform="translate(-0.9 -0.91)"/><path d="M721.58,574.94c2.33,0,4.66,0,7,0,.85,0,1.72.43,1.67,1.45,0,1.2-1.22,1.22-1.85.92-4.51-2.16-8.93-1.69-13.45,0-1,.36-2.61.48-2.65-1.24,0-1.41,1.38-1.15,2.3-1.17,2.33-.05,4.66,0,7,0Z" transform="translate(-0.9 -0.91)"/><path d="M425.19,644.81h-10.5C417.86,641.45,421.62,641.41,425.19,644.81Z" transform="translate(-0.9 -0.91)"/><path d="M652,601.24c3.9,2.38,6.58,3.94,9.18,5.64.78.52,1.63,1.45.69,2.46s-1.71.2-2.45-.51C657.28,606.72,654.48,605.25,652,601.24Z" transform="translate(-0.9 -0.91)"/><path d="M548.31,641.33c-1.39,1.68,1.13,5.45-3,5.54-1.54,0-2.9-.66-2.81-2C542.69,641.47,546.29,642.65,548.31,641.33Z" transform="translate(-0.9 -0.91)"/><path d="M715.32,651.07a3.37,3.37,0,0,1,2.91,2.24c.35,1.76,2.43,2.71,1.95,4.63-.08.3-1.25.69-1.66.5-2.56-1.21-2.89-4.12-4.4-6.16C713.8,651.84,714.53,651.16,715.32,651.07Z" transform="translate(-0.9 -0.91)"/><path d="M146.61,627.31h22.78v.47H146.82Z" transform="translate(-0.9 -0.91)"/><path d="M694.19,656.33c-.15,1.19-.21,2-1.29,2.17-.59.07-4.64-6.36-4.33-7.11.21-.51,1-1.25,1.33-1.16C693.12,651.15,692.7,654.54,694.19,656.33Z" transform="translate(-0.9 -0.91)"/><path d="M687.85,609.19c-5.26.63-7.29-3.69-10.21-6.73C681.52,603.91,683.9,607.68,687.85,609.19Z" transform="translate(-0.9 -0.91)"/><path d="M67.8,651.94a8.5,8.5,0,0,0-1.21-6.42c-.63-1-.53-2.94,1.29-3.1s1.53,1.54,1.43,2.6C69.1,647.32,70.51,649.91,67.8,651.94Z" transform="translate(-0.9 -0.91)"/><path d="M628.81,602.43c3.69,1.33,6,4.32,8.43,7.09C633.5,608.33,631.14,605.36,628.81,602.43Z" transform="translate(-0.9 -0.91)"/><path d="M777.69,656.63c3.76,1.36,3.22,3.77,2.92,6-.13.94-1.12,1.55-1.8,1C776.71,661.76,778.2,659.36,777.69,656.63Z" transform="translate(-0.9 -0.91)"/><path d="M156.29,692.43c-1.8-.12-3.88.23-4.55-2-.31-1,1-2.24,1.7-1.65,1.78,1.65,5.14-.19,5.84,2.32C159.74,692.76,157.39,692.15,156.29,692.43Z" transform="translate(-0.9 -0.91)"/><path d="M744.78,659.64a5,5,0,0,1-.95-.19c-2.12-1.63-4.2-3.31-3.35-6.45.08-.28,1.06-.62,1.1-.57C743.08,654.56,745.53,656.28,744.78,659.64Z" transform="translate(-0.9 -0.91)"/><path d="M40.74,650.79c.53-3-3.72-4.45-2.41-7.83C42.86,644.45,41.08,647.92,40.74,650.79Z" transform="translate(-0.9 -0.91)"/><path d="M705.15,604.41c2.74.93,3.8,4.51,7.07,4.7.7,0,.88.91.42,1.53a1.44,1.44,0,0,1-2.18.18c-2.09-1.74-4.08-3.6-6.11-5.41Z" transform="translate(-0.9 -0.91)"/><path d="M437.23,724.54c2.8-1.44,5.63-1,8.47,0Z" transform="translate(-0.9 -0.91)"/><path d="M117,310.15c-10.31-.29-15.36-6.72-15-15.79.48-11.69,9.93-23.78,21.11-26.86a10.66,10.66,0,0,1,5.35-.54c3.22.72,4.29.82,3.66,5.52-1.28,9.61-7.57,11-14.69,12.36-6.37,1.2-9,6.76-5.4,12.31,1.33,2.06,3.23,3.67,3.18,6.46a2.43,2.43,0,0,0,2.27,2.32c1.32.17,1.69-1,1.94-1.89,1.29-4.65,7.4-4.26,9-8.65.22-.61,1.85-.53,1.81.52-.12,2.83,1.54,6.09-1.46,8.34C124.45,307.46,119.84,310,117,310.15Z" transform="translate(-0.9 -0.91)"/><path d="M132.21,358.14c0,9.54-1.61,11.63-8.56,13-2.68.54-4.1-.24-4.67-2.91-1.4-6.52-1-13.19-1.71-19.76a2.45,2.45,0,0,1,1.56-2.75c5.52-2.67,12.46,1,13,7C132,354.87,132.13,357,132.21,358.14Z" transform="translate(-0.9 -0.91)"/><path d="M241.93,343.55c-1.09,7.57,5,11,10.47,8.92,9.18-3.43,9.18-3.2,10.94,6.16a31.71,31.71,0,0,1,.65,6.42c-.08,7.37-.55,7.92-7.8,9.24-.82.14-1.61.43-2.43.55-1.86.29-4.76-.19-4.26,2.67s-.57,6.8,4.08,7.5c2.12.33,4.13,1,6.38.34a10,10,0,0,1,6.83.41c2.94,1.17,3.32,3.88,3,6.1s-2.65.86-4.15.9c-6.52.17-12.64,2.05-18.62,4.44-.91.36-1.68,1.11-2.82.53-.73-1.85.9-2.59,1.82-3.59,4.67-5.12,4.46-9.33-.61-14.25-6.09-5.91-9.88-13.76-16.29-19.4-1.74-1.53-3.52-3-5.24-4.57-1.56-1.41-2.57-2.9.16-4.16Z" transform="translate(-0.9 -0.91)"/><path d="M313.06,427.74c.18,6.53-2.71,10.94-7,14.38-1.81,1.45-4.26,2.44-6.91,1.09a7.34,7.34,0,0,1-3.91-7.53c.5-5.63,2.13-11,6.24-15.39,1.95-2.08,4-3.75,6.88-3s3.35,3.31,4.05,5.78A14.82,14.82,0,0,1,313.06,427.74Z" transform="translate(-0.9 -0.91)"/><path d="M253.06,440c.06-2.56,6.12-6.83,9.94-6.75a44.55,44.55,0,0,1,7.36.88,4.14,4.14,0,0,1,3.55,3c.44,1.89-.83,2.75-2.24,3.9-4.47,3.68-10.29,3.3-15.32,5.26C253.82,447.27,253.15,442.79,253.06,440Z" transform="translate(-0.9 -0.91)"/><path d="M260.6,405.82c1.85.19,3.15,1,1.42,3.08-2.66,3.16-5.45,6.22-8.37,9.13-1.72,1.7-2.43.51-2.82-1.37C249.42,410,253.27,405.51,260.6,405.82Z" transform="translate(-0.9 -0.91)"/><path d="M335,304.61c.09,1-.24,1.78-1.28,1.72-2.37-.12-2.16-2.24-2.53-3.72a1.17,1.17,0,0,1,1.54-1.37A3,3,0,0,1,335,304.61Z" transform="translate(-0.9 -0.91)"/><path d="M159.63,404a13.27,13.27,0,0,1,4.66.56c2.89,1.05,2.83,2.84.89,4.38-3.11,2.45-6.55,4.49-9.88,6.67-2,1.31-2.76.5-2.45-1.64.38-2.6.74-5.2,1.29-7.76C154.89,402.64,157.89,404.55,159.63,404Z" transform="translate(-0.9 -0.91)"/><path d="M166.31,160.77c6.1-.06,7.49,1.68,4.22,6.48-2.94,4.33-5.1,9.34-9.47,12.62-.53.4-1.11,1.38-1.44,1.28-4.29-1.25-8.73-2.25-12.72-4.18-1.77-.85-.06-8.86,1.85-10.47C153.83,162.23,159.88,160.91,166.31,160.77Z" transform="translate(-0.9 -0.91)"/><path d="M96.6,169.86c.47-1.77-1.36-4.91,1.43-6.29,3-1.47,5.74.27,8.27,2,9.34,6.52,13.89,20.79,10.16,32-2.36,7.1-7,12.71-12,18-1.54,1.62-2.64,1.27-2.88-1C100,199.87,96.68,185.32,96.6,169.86Z" transform="translate(-0.9 -0.91)"/><path d="M257,228.91c-.83-4.22,4.38-4.91,6.71-7.74.78-.94,2.15.05,1.94,1.63a11.88,11.88,0,0,1-6,9C257.56,233.07,256.6,232.26,257,228.91Z" transform="translate(-0.9 -0.91)"/><path d="M355.76,424.73c-.41,4.36-3.31,9.07-7.86,13.1-2.63,2.34-5.35.3-8,.77-4.68.82-2.65-3.71-3.27-5.94a17.16,17.16,0,0,1,.34-9.13c.8-3.1-1.84-6.62-2.5-10.15-.61-3.29.05-4.3,3.14-5C345.56,406.54,355.76,414.58,355.76,424.73Z" transform="translate(-0.9 -0.91)"/><path d="M195.78,279.25A18.15,18.15,0,0,1,189.27,295c-4.09,3.56-9.9,4.13-13.79,1.26-3.35-2.47-4-7-2-12.25,2-5.46,4.86-10.25,10.21-13C191.29,267.2,195.8,270,195.78,279.25Z" transform="translate(-0.9 -0.91)"/><path d="M328.28,667.38a4.42,4.42,0,0,1-4,3.24c-1.54.15-2.6-.44-2.6-2.17a3.52,3.52,0,0,1,3.33-3.63C326.7,664.58,327.5,666.1,328.28,667.38Z" transform="translate(-0.9 -0.91)"/></g></g></svg>