<svg xmlns="http://www.w3.org/2000/svg" viewBox="0 0 734.48 800.41"><title>spills</title><g id="Layer_2" data-name="Layer 2"><g id="Layer_1-2" data-name="Layer 1"><path d="M508.35,402.11c1.12.93.59,2,.68,2.92.19,1.88,1.31,2.65,2.44.89,3.69-5.69,9.6-4.81,14.85-4.8,6.4,0,12.81,1.14,19.21,1.77,1.14.12,2.43-.12,3.13,1.1s-.43,2.07-1.07,3c-1.78,2.59-3.35,5.31-6.41,6.72-2.1,1-2.44,2.88-2.42,5.05,0,4.81,0,9.6.9,14.38.35,1.81.72,4.77-1.68,5-1.8.2-1.68-2.62-2.15-4.33a36.91,36.91,0,0,1-1-8.87c-.09-2.45-1.88-4.46-3.84-4.47s-1.82,2.67-2,4.46c-1.26,11.76-.91,23.57-1,35.37a33.16,33.16,0,0,0,1,6.88c.55,2.77,2.12,4,4.86,3.89s3.65-2.24,3.87-4.42c.31-3,.09-6,.2-9a3.91,3.91,0,0,1,2-3.52c2.94,2.69,1.51,6.58,2.55,9.74.89,2.69,1.11,5.46,4,7,2.07,1.12,2.3,3.37,1.62,5.3-1.83,5.26-3.94,10.39-10.85,10.57a5.88,5.88,0,0,0-2.79,1c-7.35,4.57-13.94,2.74-20.11-2.38-1.79-1.48-3.35-3.25-5.16-4.71-4.21-3.41-6-6.91-2.53-12.22,2.34-3.59,1.08-8.74,4.1-12.64,3.16,3.12,1.87,6.78,2,10.09.1,2.4.88,4.12,3.31,4s5.69,1.71,7.24-2.26c2.14-5.45,2.57-32.11.21-37.84-3.73,3.57-3.22,8.69-5.29,12.65-1,1.86-.4,5.88-3.39,5-2.48-.76-.63-4.08-.07-6.17,1.85-6.87,3.92-13.66,5.13-20.7.55-3.18-.47-4.9-2.82-6.69a13.78,13.78,0,0,0-19.68,3.17c-8.52,12-15.77,24.87-26.77,34.93a2.77,2.77,0,0,0-1.05,3.11c2,4.89,2.66,10.45,6.45,14.4,2.42,2.52,2.36,4.76,1,7.62-5.93,12.35-20.54,12.58-29.77,7.91a31,31,0,0,1-5.3-3.68c-6.73-5.48-6.89-6.64-2.4-14.11a29.56,29.56,0,0,0,2.07-4c1.17-2.83,1.3-5-2.7-5.8s-7.95-2.37-12-3.43a9.05,9.05,0,0,0-8.74,2.59c-2.2,2.15-.77,4.78.21,7.37a12.67,12.67,0,0,1-.43,10.64,26.57,26.57,0,0,0-3.45,14.83c.43,4.67-7,8.79-1.5,13.11,4.19,3.29,5.65,7.61,7.63,11.93,3.22,7,6.47,14.07,9.65,21.13.61,1.34,1.34,3.21-.14,4.06s-2.55-1.13-3.55-2.06c-4.12-3.88-3.24-10-6.2-14.42-.91-1.36-1.24-3.08-2.06-4.51-.6-1-.67-3.1-2.37-2.67a3.34,3.34,0,0,0-2.23,4c.7,2.82.5,5.62.61,8.43,0,.49,0,1.36.17,1.43,5.88,2,3.26,6.84,3.74,10.7.5,4,9.49,8.86,12.85,6.78,2.48-1.54,3.75.05,5.19,1.23,3.34,2.73,6.44,5.8,9.49,8.8,6.48,6.38,14.32,10.73,21.61,15.89,8,5.64,9.51,10,6.82,19.45-1.52,5.33-.71,11.31-4.69,16-.87,1,.48,2.5,1,3.67,3.8,8.23,3.61,10.37-3.34,16.37-2.77,2.38-2,3.31.36,4.78a20.63,20.63,0,0,1,3.17,2.4c4.2,3.9,8.32,7.25,6.55,14.55-1.72,7,1.52,14.34,1.79,21.61.07,2,1.33,2.07,2.75,1.11a23.07,23.07,0,0,0,3.59-2.67c8.66-8.76,21.06-13.16,27.94-24,.75-1.18,2.22-2.73,3.64-1.18a3.3,3.3,0,0,1-.53,4.56c-2.76,2.62-5.73,5-8.56,7.57-3.6,3.22-9.56,5-7.16,12,.42,1.23-1.35,1.43-2.18,1-3.94-1.8-6.28.62-8.62,3.08s-4.86,5-8.89,4.75c-2.67-.15-2.14,2.15-2,3.65a200.12,200.12,0,0,0,5.15,30.26c.41,1.72,2.91,2.87,3.62,4.61,1.28,3.14,3.17,6.54.84,9.92-2.09,3-.1,5.07,1.36,7.17,7,10,4.81,19.39-6,25.16-2.5,1.33-5,2.44-5.19,6-.08,2-1.41,3-3.73,2.92-16.79-.22-33.58.32-50.35-1-2.84-.22-3.46-2.1-4.52-3.92-1-1.64-2.09-3.18-4.27-2.81s-1.1,2.46-1.73,3.66c-2.49,4.74-2.48,10.46-7.69,14.28-3.59,2.64-2.25,8.55-2.1,12.73.15,4.42.64,9,.49,13.39-.4,12,1.11,23.87,1.35,35.82a5.9,5.9,0,0,1-2.31,5.18c-2,1.56-2.78-.21-3.77-1.52s-2.28-.41-3.06.21c-6.36,5-13.38,2-20.14,1.74-1.37,0-2.33-.88-1-2.72a7.9,7.9,0,0,0-2.22-11.73c-1.59-1-1.68-2.31-1.72-3.82-.33-11.75-.82-23.49-.91-35.23,0-4-.79-7.89-1-11.84-.07-1.29-.48-2.37-1.82-2.64-4.92-1-7-4.73-8.66-8.85-1.27-3.13-2.91-4.53-6.32-2.36-1.56,1-4.45,3.38-3.93-1.8.13-1.3-2.26-.83-3.44-.56-1.82.41-2.34,1.79-1.53,3.44.56,1.15,1,2.29-.39,2.92-1.28.57-2.39-.42-2.88-1.41-2.23-4.45-4.88-5.39-10-3.56s-10.81-.52-16.25-1a48.65,48.65,0,0,0-6.39-.6,8.6,8.6,0,0,1-8.86-5.19c-1.37-2.87-3.38-4-6.54-4.48-8.52-1.19-13.88-7.18-13.71-14.23.06-2.85,2-4.44,3.2-6.54,1-1.77,2.37-3.31-.28-5-1.89-1.18-1.26-3-.23-4.38,7.77-10.37,7.35-23,9.79-34.87,1.35-6.53-4.13-13.69-11-14.78-5.88-.93-11.68-2.75-17.76-2a1.83,1.83,0,0,1-1,0c-8.64-4.71-19.18-4.6-27.24-10.85a82.72,82.72,0,0,0-8.4-5.32c-2.34-1.4-2.5-3.29-1.5-5.52,2-4.43,9.94-10,15.56-10.77-.12,2.34-1.83,3.35-3.35,4.41-1.07.74-2.66,1.19-2.09,2.89s2,1.91,3.65,2c4.79.24,9.54-1.45,12.38-4.46,5.76-6.11,13.15-9.94,19.27-15.51,5.63-5.13,11.59-9.91,16.95-15.37,1.35-1.39,2.81-3.87,5.08-.71.53.74,2.23.74,2.29-.54.09-1.93,1.44-4.25-1-5.78-5-3.17-7.41-2.66-11.21,1.94-1.7,2.07-3.36,4.35-6.51,5.83,1-5.19,4.94-7.63,7.43-10.94,3.68-4.87,3.45-9.73,1.54-14.91-.42-1.12-1.17-2.24-.38-3.25,1.21-1.54,1.89.37,2.82.7,2.94,1,6.37-1,5.38-3.58-2.17-5.69,1.87-9.07,4.82-11.41,7.8-6.18,13.7-15.1,22.87-19,9.9-4.18,15-11.92,19.84-20.39,2-3.55,5.39-5.85,8-8.85,2.91-3.34,4.43-7,3.06-11.45-.46-1.48-.88-3.08-.15-4.39,4.29-7.76-.25-13.67-3.71-20-2.72-5-5.77-9.94-7.53-15.45-.2-.62-.51-1.22-.68-1.85-.41-1.47,2.18-3.38-.15-4.35-2.06-.86-3.33,1.39-4.36,2.7-6.84,8.66-14.43,16.9-18.44,27.41-3.89,10.18-11.53,17.24-19.23,24.27-5.36,4.9-11.3,9.19-16.5,14.24s-5,12-5.72,18.57a3,3,0,0,0,1.19,2.09c2.28,2,3,3,.4,6.06s1.08,6.71,3.51,8.73,4,3.35,2.3,6.41c-1.64,2.88-3.92,4.75-7.37,3.42-10-3.84-11-.83-15.32,5.55-11.27,16.59-22.46,33.25-33.78,49.81q-19.07,27.87-38.36,55.59a46.3,46.3,0,0,1-6.2,6.49c-1.13,1.09-2.17,3.18-4,2.14s-.42-3-.08-4.46c3.38-15.11,11.2-28.15,18.93-41.3,13.08-22.27,25.89-44.69,38.71-67.12,2.7-4.72,6-9.09,8.21-14.11,1.38-3.09,1.07-4.89-2.19-6.29s-5.92-3.69-4.27-7.69a7.86,7.86,0,0,1,11.21-3.48c2,1.22,3.87,2.08,4.58-.89,2.29-9.44,7-17.35,13.42-24.64,5.44-6.23,6.3-14.83,9.83-22.13,4-8.31,8.38-16.09,15.56-22.14,9.48-8,13.57-19.52,19.14-30.05a3,3,0,0,0,.05-2.89c-1.75-3.42-1-6.74.19-10.13.71-2,1.76-4.77-.31-5.88-2.44-1.32-4.7.67-6.24,2.79-.75,1-.44,3.52-2.78,2.19-1.88-1.07-1-2.66-.55-4.37.84-2.91,5.3-4.89,3.86-7.53-1.59-2.89-5.41,1-8.2-.28-2.19-1-6.69,0-3.84-5.21,1.27-2.35-1.91-3.14-3.61-3.41-2.6-.42-5.32-.09-8-.19-1.06,0-2.62.49-2.92-1.09-.32-1.75,1.35-2,2.52-2.56a3,3,0,0,1,1-.2c1.45-.06,2.9-.57,3-2.05.18-2-1.79-2.28-3.1-2.54-5.89-1.15-10.12-4.75-14-9a2.45,2.45,0,0,1-.89-2.51c3.77,1,7.57.21,11.66,1.71,4.35,1.61,9.78.82,14.43-.79,3-1,4.26-3.42.79-5.78-2.5-1.7-1.19-3.22.36-4.15,7.23-4.32,14.84-8,23.55-6.45,9.59,1.74,17.35-.55,23.69-8.12,3.92-4.69,8.32-9,12.53-13.45,8.2-8.7,17.84-13.06,30.18-11.54,11.47,1.4,18.61,7.38,20.17,18.44a8.31,8.31,0,0,0,.6,2.39c7.69,15.73,2.81,29.55-6.64,42.53-2.75,3.79-2.29,6,2.33,7.28.16,0,.31.16.46.15,14.62-1.28,27.63,7.53,42.23,6.7,4.11-.23,6-1.79,7.63-5.52,3.06-7,2.23-12.47-4-17a12.33,12.33,0,0,1-2.41-2.53c-1.36-1.76-3.65-3.33-2-6a5.8,5.8,0,0,1,6.86-2.79c7.32,2,14.78,1.93,22.26,1.86,1.71,0,3.51,0,3.85,2.19a3,3,0,0,0,3,2.72c1.15.11,1.9.55,1.88,1.81,0,2.22-.07,4.74,2.48,5.43,4.27,1.16,8.44,3.36,13.1,2,1.38-.39,1.65-1.49,1.63-2.75,0-1.07-.61-1.54-1.6-1.27a2.39,2.39,0,0,1-3.21-1.56c-.51-1.46.85-2.12,1.85-2.5,1.61-.62,4-3.14,4.73-1.53C502,408.2,505.37,402.3,508.35,402.11ZM353,462.13c2.29,4.26,2.64,8.05.29,11.69-2.69,4.17-.64,7.1,2.47,9.35,3.41,2.47,15.15,3.87,19.47-1.08.87-1,1.85-1.92,2.81-2.83s1.86-1.79,3-.77-.31,1.77-.57,2.64c-.41,1.39-2.79,3.41-.23,4,3.9.93,8.46,1.76,12,.54,2.85-1,5.33-1.61,7.87-.68,3.19,1.16,5.42-.1,7.69-1.84,4.88-3.76,5.73-9,5.65-14.73,0-2.5-.82-2.74-3.32-2.55-6,.45-11.74,4.06-18,1.58-1.25-.49-2.18.55-2.62,1.76-1.65,4.5-3.64,2.49-4.87,0a21.61,21.61,0,0,0-6.76-7.88c-6.82-5-11.44-11.82-15.86-18.81-1.2-1.9-2.12-4-4.5-5.21a104.29,104.29,0,0,1,9.67,31.49c-5.19-8.42-7.61-18.22-13.79-26.09-.09,4.58,1.34,9.09-.83,13.46,1.18-5.75-4.41-8.93-5.09-14.2-.61-4.74-.81-11.4-7.4-12.84-7.1-1.54-10.65,4.06-14.41,8.65-6.53,8-11.11,17.19-16,26.2-4.41,8.18-8,17.1-15.33,23.05-9.38,7.61-14,17.86-18.51,28.46-3.08,7.27-4.88,15.27-11,20.9-2.43,2.23-3.72,5.08-4.95,8-.95,2.23-3,5.41-1.16,6.9,2.23,1.81,4-1.57,6-2.92,1.64-1.17,3.45-2.21,4-4.25,1.62-6,5.78-10,10.48-13.5A223.61,223.61,0,0,0,303.84,509c4.09-4.16,8.5-8.84,8.85-14.61.31-5.16,1.43-8.27,5.59-11.65,7.5-6.09,12.51-14.43,16.37-23.32a10.26,10.26,0,0,1,5.71-5.93c.9-.35,2.63-.58,2.4.56-1.05,5.39,6.16,7.89,4.41,13.61-.57,1.84,1.89,2.54,3.52,2.35,1.85-.22,2.34-1.69,1.76-3.38A4.09,4.09,0,0,1,353,462.13ZM372.63,431c-3.35-2.17-2.07-5-2.85-7.22-.36-1-.31-3.67-2.73-2-2.76,1.93-5,12.78-3.54,16.16,3.81,8.85,10.43,15.25,18.08,20.73,7.24,5.19,15.49,5.6,23.89,4.66a9.29,9.29,0,0,0,7.82-6.17c3.09-7.49,8.56-9.87,16.28-7.31,2.2.73,4.37,1.53,6.53,2.36,5.06,1.94,8,.34,9-5.07.47-2.59.66-5.24,1.1-7.84.91-5.45,0-6.53-5.68-6.55-4.14,0-8.23.16-12.29-1.37-9.53-3.58-19.39-5.67-29.63-4.36-3.84.49-5.84-1.11-6.32-4.54-.54-4-2.53-3.78-5.17-2.25a23.24,23.24,0,0,1-10.46,2.7c-2.88.19-3.82,1.34-3.63,4A28,28,0,0,1,372.63,431Zm12.48,151c2.69-.32,5-3,7.43-5,4.9-4.15,8-9,6.9-16.39-.66-4.42-4-9.37,0-14.08,3.25-3.82,3.93-8.66,4.39-13.44.23-2.43.39-4.65,3.11-5.68,1-.38,2.56-.88,1.63-2.4-.83-1.35-2.39-1.05-3.58-.41a10.69,10.69,0,0,0-2.15,2.06c-5,5-7.8,5.63-14.23,2.93-3.17-1.33-6.37-4.54-9,.74-.14.29-1.13.55-1.28.39-2.63-2.72-5.66-.49-8.43-.59-8.33-.28-8.33-.08-5.2,7.8.25.61.17,1.38.5,1.91,2.95,4.68,4.62,10.15,11,12.26a43.24,43.24,0,0,0,13.64,2c1,0,2.64-.71,2.93.9.21,1.19-1,2.07-2,2.6a4.76,4.76,0,0,1-2.81.78,10.25,10.25,0,0,0-8.18.92c-1.13.69-1.8-.06-2.65-.58-2.44-1.48-4.4-5.56-7.2-4.18-3.82,1.88-.91,6-.9,9.09,0,.5,0,1,0,1.5C369.79,572.54,378.45,582.15,385.11,582Zm-67.9,40.5c.43-.88.63-2.07,1.33-2.59,5.37-4,5.68-11,9.65-15.9a3.24,3.24,0,0,0-.9-5.16c-2.19-1.36-3.33.32-4.31,1.91-.76,1.24-1.06,3.22-2.12,3.75-5,2.47-5.58,6.6-6.05,11.55-.3,3.18.92,8.31-2.72,9.41-4,1.21-6.68,4.08-10.28,5.58-4.15,1.73-9.63-1.38-8.56-5.31.84-3.05-.3-5.21-.67-7.68-.63,0-.83-.06-.95,0-13,7.32-22.66,18.54-33.52,28.35a2.16,2.16,0,0,0-.36,2.76c.67,1.22,1.86,1.23,3,1.3,2.59.16,4-1.78,5.17-3.44,2.89-4.14,6.77-7.3,10.14-11,1.33-1.44,2.76-2.68,4.94-2.4a5,5,0,0,1-1.68,4.74c-4.42,4.57-4.48,5,.47,8.93a20.27,20.27,0,0,0,5.18,2.94c2.63,1,3.48,2.6,2.91,5.39s3.56,8.58,6.13,8.42c3.42-.22,2.4-3.72,3.3-5.81.33-.76.73-1.52-.5-2.91-1.23,1.47-2.79,4.27-5,1.18s.62-4.43,2.23-5.61c4.06-2.95,7-6.38,7.72-11.55.28-2.07,2.19-3.13,3.76-4.39,4-3.17,9.13-4,13.2-6.87,1.3-.93,3.33-1.39,3-3.53C321.41,622,318.91,623.9,317.21,622.47ZM462.73,640c4,6.57,0,12.85.87,19,0,.27-.25.6-.4.9a4.93,4.93,0,0,0-.24,4.35c1.11,2.35-.53,4.65-.32,6.34.67,5.31,1.42,10.38-.86,15.44,4.54,4.94,2.52,11,2.67,16.61.09,3.75.61,7,4.64,8.44,2.22.81,2,2.76,2.08,4.6.06,3.06,1.84,4.88,4.53,5.9a3.29,3.29,0,0,0,4-1c1.31-1.6-.09-2.32-.89-3.31-2.77-3.41-4.67-7.31-4.71-11.7-.17-18.57.33-37.15-1.9-55.68C471.46,643.46,470.41,641.7,462.73,640Zm-252,7.95A15.31,15.31,0,0,0,215,643.6c14.62-21.25,29.2-42.53,44.09-63.59,3.6-5.09,5.65-9.34.7-14.73-2.31-2.52-4.92-3.2-6.77-.35-4.36,6.72-9.65,12.83-13.44,19.94-2.88,5.4-5.67,10.84-8.49,16.26l1.24.71c6.12-11,15.2-19.91,20.64-31.72,1.79,2,1.39,3.26.69,4.46-3.66,6.25-6.74,13-11.19,18.59A109.69,109.69,0,0,0,232,610C225.22,622.77,218.25,635.42,210.76,647.92ZM482.47,424.57c-1.21-1.75.09-3.18.36-4.73.93-5.2-.2-6.43-5.57-6.55-2.47-.05-5.06.64-7.38-.46-5.11-2.42-7.52-1-7.18,4.67a133.67,133.67,0,0,0,3.52,22.92c.4,1.68-.28,3.87,2.11,4.55s4.07-.39,5.73-2a95.39,95.39,0,0,0,15.69-21.53c.5-.91,1.22-1.86.23-2.64s-1.65.49-2.42,1C485.56,421,485.61,424.5,482.47,424.57ZM371.4,624.28c1.3-.48,2.13-2.46,3.12-1,.77,1.11,1.8,2.66.42,4.5-2,2.63-.53,4.56,1.48,6.79,2.76,3.08,5.48,2.24,8.72,1.44,6.59-1.61,12.51-2.85,11.31-12.31-.65-5.15-2.71-11.39-7.55-13.4C378.3,605.84,370.2,612.18,371.4,624.28ZM374.83,397c-1.93,0-3.26,0-4.59,0a6.8,6.8,0,0,0-6.4,3.12c-1.54,2.5-.12,4.74,1.34,6.86,2.06,3,3.84,6.19,6.63,8.65,4.5,4,11.1,4.85,15.63,1.49,3.57-2.64,5.07-6.72,6.1-11,1.6-6.62-.69-9.74-7.47-10.14C382,395.72,378.27,397.75,374.83,397Zm5.58-3.71c5.27-1.52,10.47-2.48,16.06-1.35a3.72,3.72,0,0,0,4.42-4.59c-.65-3.41-1.24-7.62-6.19-6.52-11,2.44-21.32-.88-31.75-3.32-2.15-.5-4.19-1.39-6,.58-2,2.29-1.2,4.83.07,7,1.57,2.63,3.8,4.52,7.32,4.19,4.54-.44,8.92.08,12.72,3A5.77,5.77,0,0,0,380.41,393.29ZM355.79,648.53a22.08,22.08,0,0,0-2.85,0c-1.74.31-4.12.22-3.8,2.84.27,2.26,2.41,1.93,4,1.78,1.46-.14,2.93-.06,4.35-.14,6.5-.35,12.76,1.65,19.26,1.55,7.93-.12,15.89.38,23.8,1,5.81.45,11.48-.83,17.24-.74,1.38,0,2.28-1.07,2.36-2.71a2.58,2.58,0,0,0-2.49-3c-1.8-.26-3.63-.34-5.43-.58-8.3-1.13-16.41,2.28-24.71.94-5.29-.86-10.64-.41-16.05-1.31C366.34,647.29,360.58,650.18,355.79,648.53Zm109.73-52.24c2.7,5.42-1.2,8.22-3.37,11.52-1.08,1.62-2.4,3.39-.54,4.73s3.37-.47,4.57-1.88a5.21,5.21,0,0,0,1.52-2.52c.36-4.67,2.25-8.93,3.34-13.39a6.31,6.31,0,0,0-.5-3.36c-2.08-5.79-10.69-11.46-16.84-11.39-3.24,0-4.65,1.84-3.27,4.38,2.78,5.13,2.46,10,.72,15.28-.41,1.24-1.22,3.63,1,4.25,1.87.53,2.21-1.6,2.86-2.85,1-1.95,2.73-4.7,4.56-2.86C463,601.67,463.64,598,465.52,596.29ZM293.94,711.2c.11,2.09-.23,3.8,1.57,4.48a4.34,4.34,0,0,0,4.68-.62c1.26-1.11,2.84-2.32,2.88-3.93.13-5.65,2.32-10.81,3.35-16.24.36-1.92.87-4,.42-5.83a51.07,51.07,0,0,1-.53-21.56c.26-1.43.72-3.07-.6-4.19a2.33,2.33,0,0,0-2.82.1c-1.38,1.05-1.38,2.62-.84,4.07,1.46,3.88.5,7.48-1,11.08C296.7,689.22,297.23,700.93,293.94,711.2ZM430.81,596.91l-1-1.11c-5,3.74-10,7.41-14.86,11.25-1.18.94-2,2.21-3.78,1.86-2.52-.49-.28-2.15-.78-3.16-1.08-2.19-2.57-5.85-5-3.89-3.88,3.15-6.19,1.45-9-.79a1.71,1.71,0,0,0-2.61.2,1.36,1.36,0,0,0,.19,2.16c2.65,2.19,5,5.11,8.09,6.29,2.65,1,4.73,1.75,4.59,4.74-.17,3.81,2.43,8.4-2.84,11-1.59.78-3.13,2.82-.78,3.62,5.51,1.86,4.74,6,4.7,10.09,0,1.76-.43,4.36,2.06,4.29s2.65-2.88,2.26-4.66c-1.76-8,.95-15.87.48-23.82-.12-2.22,1.7-3.68,3.23-5.27C420.36,604.94,425.82,601.2,430.81,596.91Zm-4.46,114.23c-2.35,6-2.74,12.3-4.66,18.3s-4.07,8.08-10.28,6.92c-3.9-.73-5.09,1.4-6.24,4.07a11.68,11.68,0,0,0-.33,2.94c-1.16,8.35,3.19,16.46,1,24.86-.18.71-.33,1.79.66,2.15a2.46,2.46,0,0,0,2.65-1,6,6,0,0,0,1.47-3.59c.51-6.26,1.09-12.51,1.84-18.74.4-3.38,1.15-6.14,5.87-6.28,5-.15,7-3.65,6.7-8.87-.14-2.12-.46-4.74.55-6.33C428.73,720.75,424.37,715.89,426.35,711.14ZM341.8,602.83c2.58,3.67,3,7.7,6.7,7.65,3.33,0,3.83,1.52,4.31,4,1.61,8.07.74,16.24,1,24.36,0,1.05-.42,2.67,1.27,2.74s1.5-1.48,1.53-2.6c.12-4.78-.22-9.61.4-14.32.87-6.63,1.38-13.53,7.84-18,2.17-1.49,3.53-4.16,5.3-6.34-1.76-1.09-2.95.16-4.23-.06-1.47-.24-3.05,0-4.42-.49-2.88-1-3.9.16-4.34,2.87-.8,4.8-4,6.42-8,3.9A46.8,46.8,0,0,0,341.8,602.83ZM455.91,445.67c0-2.26,0-4.08,0-5.9,0-1.47.29-3.33-1.55-3.76-2-.47-2.79,1.27-3.41,2.87-3,7.81-3.64,16.15-5.28,24.26-.49,2.43,3.89,5.23,7.31,5.09,3.25-.14,3.54-2.7,2.83-4.61C453.49,457.39,456.75,451.35,455.91,445.67Zm-42.7,267.08c.24-4.27,4.15-8.49-.49-12.66-2-1.81-1-4,.64-5.68,1.51-1.55,2.95-2.95,2.91-5.47-.14-8,0-15.94-.08-23.92,0-1.35.52-3.5-1.71-3.36-1.68.1-2,2-2,3.51-.2,5.62-1,11.18-1.12,16.83-.09,4.82,0,9.87-3.18,14.28-1.2,1.68-2.88,5.56-1.64,6.25C410.79,704.89,410.73,709.31,413.21,712.75Zm-14.5-204.62c-6.4-9.31-10.29-10.13-18.34-4.65a8.37,8.37,0,0,1-3.68,1.37c-3.93.39-7.27.67-1.36,4.25.82.5.89,2.12,1.53,3.06,1.84,2.72,4.73,2.51,7.52,2.48,1.5,0,3.54.1,3.65-1.77C388.46,505.45,393.08,506.5,398.71,508.13ZM323.24,758.61a17.12,17.12,0,0,0,8.95-.24c7.32-2.25,12.66-6.7,17.38-12.57,3-3.69,3.36-6.37.62-10.36-2.44-3.56-4.8-5-8.94-3.41-1.67.65-4.18.46-3.74,3,.35,2,1.68,4.19,4,4.57,1.35.23,2.88-.49,4.31-.85.93-.23,2-1,2.71.06a2.64,2.64,0,0,1-.33,3.24c-.85,1-1.85,1.92-2.79,2.86-3.9,3.87-10.18,5.07-12.28,11.08-.34,1-2.25,1.11-3.64,1.19C327.76,757.22,325.88,756.83,323.24,758.61ZM312.18,657.55a12,12,0,0,0,2-6.26,13.22,13.22,0,0,1,3.16-8.16c.7-.81,1.94-2.45,2.71-1.32,2.76,4.06,4.23,0,6.33-.6,3.74-1.11,2.11-3.39,1.45-5.47-.9-2.87-3.05-2.41-4.73-1.23-4.26,3-9.21,4.46-13.77,6.79a7.86,7.86,0,0,0-4.29,4.58c-.64,2,.17,3.76,2.2,3.37,4.93-.94,5.48,1,4.07,5A3,3,0,0,0,312.18,657.55Zm56.38,92.28,1.46-.25c0-2.9,0-5.81,0-8.71,0-2.67-.94-4.91-3.91-4.44-2.65.42-5.74.43-5.14,5.3,1,8,2.46,16,2.32,24.14-.05,2.58,1.46,4.66,3.1,6.58.68.78,1.44,1.52,2.52,1.27,1.66-.38,1-1.85,1.09-2.88a11.07,11.07,0,0,0-1.91-7.5c-2.8-4.19-3.3-9.28-4.85-14-.43-1.28-.77-3.82,1-4.51,2.29-.91,2,2,3.05,3A12.08,12.08,0,0,1,368.56,749.83Zm91.12-314.31c0,10.4,0,19.94,0,29.49,0,5.51,4.2,4.46,7.18,4,3.68-.62,2.65-3.82,1.76-6A106.31,106.31,0,0,1,463,442.92C462.51,440.66,463.42,437.82,459.68,435.52Zm-75-57.66c2.51,0,4,0,5.5,0,2.4-.05,5.54-.5,5.34-3.07-.18-2.31-2.52-4.58-5.59-4.81a7.6,7.6,0,0,0-4.33.92c-1.22.66-2.42,1-3.66-.08-3.69-3.24-7.49-1.26-11.22-.09-1.06.33-2.39.77-2.38,2.19s1.24,1.82,2.34,2.25A35.32,35.32,0,0,0,384.71,377.86ZM360.37,702.34c.61-2.2-1.33-3.43-3.07-4.11-2.27-.88-3,1.39-3.85,2.92a6.71,6.71,0,0,0-.3,5.79c2.45,5.56,1.9,10.89-.42,16.29-.84,2-1.66,4.08.28,6a3.23,3.23,0,0,0,4.08.51,5.29,5.29,0,0,0,3.33-5.51c-.15-4.33-2.34-8.21-1.69-12.92C359.12,708.4,360.64,705.72,360.37,702.34Zm-20.86-18.09c-6.4,7.62-10.83,34.41-8.24,41.36-.64-6.49,2.27-12.72,5-17.45,3.37-5.88,4.82-10.56,3-16.83C338.68,689.29,341,687,339.51,684.25Zm-45.66-92.76a21.63,21.63,0,0,0,1.12,3c.67,1.27.94,3.29,2.64,3.31,2,0,.92-2.05,1.39-3.13s.88-1.82,2.07-1.79,1.46,1.06,1.65,2.07a6.85,6.85,0,0,0,2.73,4.59,2.59,2.59,0,0,0,3.23.2c.94-.77.51-1.85,0-2.71-1.66-3-2.07-6.26-2.66-9.53-.66-3.68-5.11-6.53-7.41-4.77A13.08,13.08,0,0,0,293.85,591.49Zm59.92,85.88c0,3.59,0,6.09,0,8.59,0,2,0,4.59,2.38,4.73,2.91.18,2.35-2.66,2.39-4.53.09-5,0-9.92.79-14.91.5-3.16.87-6.65-.53-9.85-.47-1.08-1.1-2.3-2.47-2s-1.55,1.55-1.56,2.77C354.73,667.59,353,673,353.77,677.37Zm28.42,6.87c.62-4.07-2.77-5.3-5.13-5.48s-6.38-.83-7,3.55c-.34,2.32-3.1,6,2.78,4.93,1.07-.2,1.44,1.28,1.79,2.15.61,1.53,1.44,2.57,3.24,2.54,2,0,2.28-1.68,2.8-3C381.26,687.36,381.7,685.76,382.19,684.24Zm-43-137a3.33,3.33,0,0,0,2.68-1.11c2.84-3.11,7.42-4.61,8.09-9.79.23-1.7,1.74-3.71.24-4.94-1.77-1.45-4.2-.1-5.25,1.36-2.7,3.76-4.91,7.86-7.26,11.86C336.78,546.2,337.37,547.13,339.21,547.23Zm53.38,134.92c-2.34-.06-3.79,1.51-4.66,3.24-1,2,1.1,3,2.31,3.84a27,27,0,0,0,9.08,3.86c2.29.59,2.63-.7,2.61-2.38C401.9,688.85,394.46,682.09,392.59,682.15ZM221.21,620.73c-8,9.73-13.42,21-18.92,32.2C209.71,642.84,216.33,632.29,221.21,620.73ZM491.29,744.84c-.58-3.37-2.14-6-5.19-6.9s-6.39-3-9.79-.85c-1.95,1.23-.65,2.76.57,2.65,4.91-.43,7.45,2.75,10.1,5.91.82,1,1.78,1.5,3,.9A2,2,0,0,0,491.29,744.84ZM265.19,565c2.62-1.37,6.69-2.56,6.73-5.52,0-4-5-2.4-7.56-3.77-2.37-1.26-3.31,2.81-3.69,4.66C260.13,563,262.76,563.91,265.19,565ZM413.12,716.44c-.85,4.13-.5,8.23-1.51,12.22a2.64,2.64,0,0,0,2.46,3.53c1.94.27,2.57-.5,3.38-2.4C420,724,415,720.79,413.12,716.44Zm32-74.05c.08,1-.31,2.15.64,2.75,1.11.7,1.89-.4,2.44-1.07,1.85-2.3,4.44-3.28,7-4.4.94-.41,2.27-1.15,1.83-2.53a3.14,3.14,0,0,0-2.57-2.08C451.05,634.47,445.35,638.92,445.14,642.39ZM327.62,743c.73,1.72-1.2,4.73,2.11,4.68,2.68,0,5.47-1.49,5.48-4.54s-2-6.67-4.68-6.65C327.22,736.53,328.61,740.8,327.62,743Zm112.76-9.86c1.47,6,1.44,6.09-2.17,12.53-1,1.84-.9,3.51.75,4.91.9.76,1.85,1.47,3,.28C444.17,748.62,443.5,736.39,440.38,733.15Zm-9.55-100.56c2.52.9,3.74,4.12,6.51,4.11,1.84,0,4.18-2.07,3.44-3.93a6,6,0,0,0-5.91-3.57C432.84,629.3,431.55,630.33,430.83,632.59ZM452.65,763c3.81,1.22,6.37,2.15,9,2.84,1.41.37,3.06.63,4.15-.75a2.42,2.42,0,0,0-.25-3.2,3.61,3.61,0,0,0-4.38-1.35C458.82,761.3,456.43,761.92,452.65,763Zm-24.94-7.28c-1.69,1.06-3.72,2-3.54,4.34.17,2.08,1.88,3.1,3.89,3,1.65-.08,3.77-.52,3.51-2.62A5.2,5.2,0,0,0,427.71,755.72ZM314.49,602c-2.21,3.15-4.64,5.55-8.93,4.34-.86-.24-1.48.64-1.3,1.62.14.79.35,1.57,1.39,1.8C310.43,610.78,314.12,607.81,314.49,602Zm63.83-245.36a5.47,5.47,0,0,0-4.19,4,1.69,1.69,0,0,0,1.84,2.27c2.37-.39,4.29-1.65,4.71-4.28C380.92,357.08,379.87,356.66,378.32,356.61Zm14.5,6.11c-1.57-1.93-2.94-4.31-5.66-5-1.29-.34-1.85.85-1.43,1.87.91,2.25,1.71,4.84,5,4.58C391.58,364.08,392.82,364.49,392.82,362.72Zm144.8,116.57c0-1.43-.8-2.3-2.12-2.19a5.29,5.29,0,0,0-4.3,3.54c-.47,1.11.81,2.17,2.06,2.09C535.43,482.59,536.55,480.9,537.62,479.29ZM365.77,507.43c-2.9-1-4.53-.15-5.95,1.49-1.2,1.37-2.07,3.07-.45,4.29s2.08-.9,2.89-1.81C363.34,510.2,364.4,509,365.77,507.43Zm-48.42-85.38c-2.17-.36-3.58.49-3.79,2.68-.14,1.34.86,2.42,2.11,2.06,1.76-.5,3.89-1.18,4.18-3.35C320.08,421.72,318.37,422.19,317.35,422.05Zm117.22,303.8c1.31-1.76,2.81-3.26,3.67-5.06a2.63,2.63,0,0,0-1.81-3.92c-2.21-.43-1.6,1.61-1.67,2.73C434.64,721.51,432.92,723.27,434.57,725.85ZM299.44,736.73c-3.41-2.56-7.82-2.52-9.95.1A35.68,35.68,0,0,0,299.44,736.73Zm136.48-33.37c.43-2.71,1.87-5.65-1.58-7.89C433.2,698.67,434.18,701.09,435.92,703.36Z" transform="translate(-24.75 -46.51)"/><path d="M538.68,345.22c.57,4.92-.78,9.32-3,13.49-.81,1.54-2.45,2.71-4.09,2-1.35-.6-.74-2.43-.31-3.62,3.87-10.64,3.86-21.37.87-32.18-.35-1.28.27-2.25.79-3.29a25.87,25.87,0,0,0,2.83-12.9c-.52-10.14,2.17-20.4-1.68-30.46-1.36-3.55,1.63-6.95,2.8-10.37a2,2,0,0,1,1.44-1.14c.9,0,1.39.81,1.41,1.71.21,7.16,3.55,13.78,2.36,21.38a117.25,117.25,0,0,0-1.39,25.83c.17,2.65,1.15,4.73,3.77,5.93a25.48,25.48,0,0,1,3.64,2.56c1.3.91,2.13,3.28,3.89,2.55s1.88-3.05,2-4.79c.33-8.43,1.16-16.8,2-25.19.59-6.08-.6-11.79-4.57-16.79-2.26-2.83.19-10,3.43-11.06,1.53-.5,1.54.82,2,1.54,1.84,3.08,2.71,6.73,5.9,9.05a3,3,0,0,1,.6,4.09c-3.59,5.46-3.12,11.84-3.16,17.8-.06,7.89-1.48,15.78-.21,23.68.44,2.73-.6,4.27-3.51,5-1.51.35-3.64,0-4.55,1.65-3.21,5.75-5.25,2.65-7.58-.73-.65-.94-1.22-2.77-2.88-2.26-1.43.44-1.54,1.95-1.64,3.34C539.44,336.43,539,340.88,538.68,345.22Z" transform="translate(-24.75 -46.51)"/><path d="M50.48,262.88c4.09-4.92,4.19-10.43,5.79-15.44,2.36.46,1.73,3.88,3.74,3.64s3-2.43,4.1-4.06a89.41,89.41,0,0,0,10.45-19.18,1.66,1.66,0,0,0,.19-.46c.65-13.15,7.93-25,7.29-38.46-.11-2.33-.1-4.54-1.39-6.71s-.5-4.78,0-7.24c1.6-8.26-1.43-15.34-6-21.89-1.32-1.87-3.35-4.06-5.57-3.62-2.38.48-2.53,3.58-3.31,5.72-.26.75,0,1.69-.85,2.21-2.18-2.55-2.2-2.56-1.38-4.75.46-1.24,1.41-2.46,1.4-3.69-.05-6.2,5.42-6.26,9.06-8,2.32-1.08,4.61.23,6.24,2.72,4.48,6.83,6.4,14.55,7.46,22.36a111.19,111.19,0,0,1,1.21,19.34c-.88,23.51-6.67,45.48-20.41,64.85C64.28,256.13,59.4,261.63,50.48,262.88Z" transform="translate(-24.75 -46.51)"/><path d="M352.75,146.21c-2.91,2.16-2.58,5.47-4.34,7.67-1.45,1.8-2.49,3.45-3.72-.3-.84-2.54-1.77-5.44-5.58-5.41-2.14,0-2.07-2-1.75-3.4,1.95-8.81,1.88-17.74,1.79-26.67,0-2.48.15-4.92-.72-7.39-.58-1.64-.75-3.66.75-5.17,1-1,2-2.65,3.62-2.28,2.1.47,1.18,2.47,1.14,3.73-.32,9.12,1,18.27-.83,27.36a9.25,9.25,0,0,0,.64,5.88c1.18,2.38,3.11,4.26,5.69,4.23s2.81-2.8,3.4-4.85a31.09,31.09,0,0,0,1-7.87c.2-8.28.63-16.56.92-24.84a16.14,16.14,0,0,0-2.54-9.9c-1.19-1.78-2-3.86-.15-5.44,2.18-1.87,4.66-.61,7,.15s2.62,2.74,2.06,4.41c-5.08,15.29-1.65,31-2.62,46.52-.16,2.56,1.1,4.82,2.09,7.12,3.24,7.5,2,14.64-2,21.67C360.35,162.11,356.14,154.41,352.75,146.21Z" transform="translate(-24.75 -46.51)"/><path d="M618.48,234.92a16.92,16.92,0,0,1,1.27,1.51c2,3.44,3.84,4.35,5.77-.19.79-1.86,2.29-3.42,3.56-5.25a3.6,3.6,0,0,1,.61,4.26c-6.25,16.33-5.57,33.5-6.24,50.53-.59,14.91-3.48,29.65-3.23,44.64.06,3.05-.21,5.78,2.56,8,3.2,2.52.81,4.69-.91,6.67s-3.21,3.05-5.76.66c-5.31-5-5.42-4.83-2.08-11.59a7.67,7.67,0,0,0,.84-3.33C614.64,315.34,617,300,617,284.56c.07-12.07,1.66-24.12,1.8-36.24C618.9,244.05,616.74,239.91,618.48,234.92Z" transform="translate(-24.75 -46.51)"/><path d="M194.76,351.71c-.36-9.82,2.37-19.44,2-29.28-.12-2.79.59-5.36-4.2-5.47-2.84-.06-2.23-4.52-.74-6.07,8.12-8.44,6.44-18.95,6.8-29.06.06-1.5,0-3,0-4.5.08-3.11,2-6.7,4.23-6.42,2.68.34,1.18,4.11,1,6.46-.49,7.11-1.1,14.21-1.46,21.33-.19,3.7,1.37,5.89,5.48,4.52,3.4-1.13,3.49,1,2.9,3.11-.67,2.36-1.4,5.43-3.82,6.16-4.86,1.47-5.47,5.44-5.43,9,.12,11.82-1.71,23.57-1.1,35.4.11,2.19.29,4.12,1.82,6,1.77,2.19-1.66,11.66-4.14,11.4-2.67-.28-5.1-2.28-7.75-3.33-1.14-.45-.7-3.68.68-4.93C195.5,362,194.92,356.86,194.76,351.71Z" transform="translate(-24.75 -46.51)"/><path d="M417.17,48c2.57,3.78,2.44,7.57,1.76,11-1.3,6.64-.42,13.28-.78,19.9-.14,2.75,1.09,4.36,3.77,5,1.53.34,3.85-1,4.1,2.15.21,2.67-.69,5.3-3,5.64-7,1-6.38,6.63-6.6,11-.52,10.26,0,20.58-1.14,30.83a8.23,8.23,0,0,0,1.81,6.55c2,2.28,1.54,4.57.39,6.92-1.42,2.93-2.72,6.49-6.36,1.77-.46-.6-1.43-.81-2.18-1.16-3.64-1.73-4.18-3.88-1.19-6.62a7.47,7.47,0,0,0,2.84-6c-.41-10,1.6-19.88,1-29.87-.11-1.79.61-3.62.57-5.42-.07-3.36.56-7-4.07-8.45a3.6,3.6,0,0,1-.2-6.63c5.63-2.51,5-7.41,5.4-11.79.46-5.12.14-10.31.11-15.47A12.08,12.08,0,0,1,417.17,48Z" transform="translate(-24.75 -46.51)"/><path d="M44.4,161.93c-2.1,7.45-3.87,14.26-5.93,21C33.26,200,32.06,217.48,33,235.1c.53,9.59,3.86,18.45,11.63,25,.69.58,1.78,1.08,1.61,2.64-5.43,1-9.2-1.92-12-5.85-6-8.3-8.34-17.9-9.19-28-1.88-22.15,4.91-42.21,14.68-61.56A11,11,0,0,1,44.4,161.93Z" transform="translate(-24.75 -46.51)"/><path d="M534,133.76c0-5.12,1.47-10.15,1-15.33-.12-1.47.39-3.44,2.13-3.5,5.24-.18,7.31-4.1,9.44-7.75,1.75-3,3.19-3,4.93-.27,1.62,2.54,3.88,3.65,6.82,4.28,4.37.93,5.06,3.58,2.09,7.15-1.91,2.3-3.32,5.91-7.23,1.38-2-2.27-5.89-2.83-8.9-4.21-1.65-.75-2.23-.28-2.68,1.51a33.61,33.61,0,0,0-.77,11.89c.55,4.8,3,6.2,7.64,4.41,1.94-.75,3.2-1.25,4.47.94s3.22,1.43,5.24.85c2.66-.76,4.07.24,3.6,3.35-1,6.67-2.45,13.33-.91,20.14a8.17,8.17,0,0,1,0,3.48c-.53,2.56-2.72,2.63-4.71,2.65-2.23,0-2.25-1.74-2-3.21a59.39,59.39,0,0,0,.9-12.83c-.35-7.44-5.35-10.19-11.7-6.43-2.64,1.57-9.2-1.92-9.35-5C533.92,136.1,534,134.93,534,133.76Z" transform="translate(-24.75 -46.51)"/><path d="M500.44,587.76c-.54,0-2.1.62-2.57-.66-.56-1.47.91-2.27,2-3,3-1.92,7.51-.3,10,3.58,4.69,7.47,8.8,7.46,14.06,0,2.11-3,4.26-6.34,8.53-5.63s6.23,4,7.47,7.86a14.26,14.26,0,0,0,2.69,5.23c4.92,5.69,2.6,14.76-4.4,17.86-.73.32-1.75.82-2.3.55-6.81-3.3-12.56-.15-18.66,2.4-2.65,1.11-5.55-1-6.82-3.64-1.68-3.53-2.67-7.06-1.09-11.3C511.7,594.72,507,587.73,500.44,587.76Zm37.17,21.31c1.9.61,2.63-1.27,3.72-3.07,1.53-2.51,1.4-4.8-.47-6.82-2.27-2.45-4.47-4.56-3.91-8.54.28-2-1.84-3.92-4-4.57A5,5,0,0,0,527.6,588c-1.31,1.69-2,3.6-.67,6s1.74,5.38,3.19,7.7C531.89,604.46,531.91,609.1,537.61,609.07Zm-17.35-4.58c.26,2.14,1,4.41,3.93,4.25,1.72-.1,3.89-1,3.7-3.21-.27-2.95-2-5.63-5-5.9C520.54,599.41,520.54,602.22,520.26,604.49Z" transform="translate(-24.75 -46.51)"/><path d="M229.12,256.73c-.71,6.14-2.35,11.8-2.94,17.68a283.08,283.08,0,0,0-1.59,29.81c0,3.79.58,7.66-.84,11.36a.75.75,0,0,0,0,.49c3.52,11.81-3.27,23.32-1,35.1.3,1.6-.16,3.3,1.58,4.44,2.9,1.9,1,4.19.07,6.08-1,2.12-1.71,5.08-4.63,5.24-2.65.14-4.18-2.44-6-3.93-1.12-.9.16-2.54.86-3.57,2.27-3.37,2.07-7.14,2.5-10.95,2.42-21.1,1.74-42.36,3.64-63.49.72-7.93.12-16,.17-24,0-1.94-.48-4.65,3-2.26C226.15,260.35,226.53,256.84,229.12,256.73Z" transform="translate(-24.75 -46.51)"/><path d="M669.09,144.45c-1.05,2.89-.76,6.46-1.38,9.84a47.53,47.53,0,0,0,1.77,23.44c.89,2.82-.53,5-2.52,6.53-2.69,2.08-3.13-1.25-4.46-2.31-3.26-2.59-5.24-5.27-2-9.56,1.25-1.66,1.48-4.43,1.45-6.69-.32-23.77,1.84-47.5,1.06-71.27-.13-3.79-1.43-7.47-1-11.34.24-2.3,1-3.41,2.95-1.43,2.16,2.15,3.5,1.8,4.79-.84.35-.73,1.14-2,2.27-1.37s.85,2.09.19,3.09c-4.16,6.31-4.34,13.41-4.29,20.61.06,10.32.13,20.65-.07,31C667.76,137.52,668.89,140.66,669.09,144.45Z" transform="translate(-24.75 -46.51)"/><path d="M598.38,234.48c7,5.71,5.2-4.75,9.66-4.31a6.93,6.93,0,0,1-.52,4c-4.3,12-4.81,24.62-5.22,37.14-.6,17.72-2,35.39-2.87,53.09-.19,4-1,8.17,3.62,11,3,1.83-.31,3.84-1.25,5.33s-2,4.31-4.87,3.06a8.51,8.51,0,0,1-4.13-11.56c2.93-6.21,2.56-13,2.65-19.54.26-17.93,2.51-35.76,2.27-53.73-.1-6.91,1.19-13.84-.2-20.78A4.06,4.06,0,0,1,598.38,234.48Z" transform="translate(-24.75 -46.51)"/><path d="M749.81,168.57c.87,7.24-1.39,15.44-1,23.77.17,3.68,0,7.3,2.12,10.56,1.41,2.22.72,4-1.14,5.72-2.41,2.16-3-.75-4.26-1.51a35.07,35.07,0,0,1-3.64-2.56c-1.59-1.24-2.78-3.18-1.3-4.71,4.71-4.89,3.81-11.18,4.2-16.88.67-9.6.14-19.29.23-28.93,0-3-.74-5.25-4.09-5.75-1.45-.22-2.7-.72-2.27-2.5.31-1.34.2-3.1,2.46-3.06,4.16.08,4.92-2.9,4.8-6.07-.27-7,.86-14-.66-20.86a2.33,2.33,0,0,1,0-1.46c1-1.83,1-4.94,3.44-4.87,1.78,0,1.56,3.06,1.79,4.61,1,6.78-1.07,13.52-.74,20.34a47.27,47.27,0,0,0,.81,6.88c.56,2.78,1.92,4.17,4.62,4.22,2.22,0,4.21.38,4,3.14A3.56,3.56,0,0,1,755,152c-5.14-1.06-5,2.28-5.17,5.5S749.81,164.15,749.81,168.57Z" transform="translate(-24.75 -46.51)"/><path d="M608.85,85.18c-1.38,5.75-4.84,10.55-5.44,16.39s1.82,10.19,7.47,11.29c1.84.36,2.22,1,1.59,2.62-.47,1.23-.5,2.65-1.05,3.82-6.65,14-4.45,28.69-3.43,43.29a8.25,8.25,0,0,0,2.67,5.75c4.92,4.09.34,5.65-1.87,7.73-3.46,3.25-4-.72-5.84-2.29-4.37-3.83-6.36-7.67-2-12.84.68-.8.26-2.58.24-3.91-.1-9.12,1-18.15,1.63-27.22.32-4.65-1.33-9.43-2-14.16-1.39-9.37-1.12-18.52,3.85-27C605.6,87.12,606.25,85.35,608.85,85.18Z" transform="translate(-24.75 -46.51)"/><path d="M444.24,46.51c-6.3,18.17-4.07,36.6-4.45,54.68-.24,11.08-1.77,22-2.19,33-.14,3.52-.22,6.87,2.5,9.8,3.08,3.34-.84,5.13-2.41,6.87s-3.49.27-4.89-1.43c-2.21-2.68-3.31-4.78-1.38-8.72,2.77-5.64,2.07-12.37,2.22-18.57.56-23.73,2.84-47.41,2-71.18-.09-2.67.44-4.34,3.64-3C441,48.64,441.91,46.73,444.24,46.51Z" transform="translate(-24.75 -46.51)"/><path d="M641.24,326.37c0-4.3-.65-6.95-4.88-6.62-1.56.12-1.5-1.72-1.24-2.74,1.81-6.89.43-13.9.93-20.83.11-1.46-.3-3.16,1.47-3.9,1.31-.54,2.63-1.78,4.18-.71a3.35,3.35,0,0,1,1,4.09c-1.19,3.27-.88,6.6-.66,9.87.15,2.39.5,5.19,3.29,6.25s4.76,0,6.33-2.49c.84-1.3,2.19-2,2.58.38.49,2.94,2.23,3.67,4.94,3.5,2.49-.15,3.63.37,3.19,3.73-1,7.36-2,14.81-1.21,22.28.26,2.64.1,4.68-3.28,4.8-3.88.15-2.49-2.77-2.59-4.57-.26-4.73,2-9.36.15-14.25-.87-2.28-1.28-4.55-4-5.07a5.63,5.63,0,0,0-6.36,2.74C644.38,323.9,643.16,324.62,641.24,326.37Z" transform="translate(-24.75 -46.51)"/><path d="M542.56,649.09c0,8.88-7.06,15.68-15,14.82a10.44,10.44,0,0,1-2.84-.79c-1.22-.53-2.66-1.23-2.16-2.87s2-1.27,3.32-.84c4.86,1.65,8.76,0,11.88-3.7,2.39-2.81,3.27-5.91,0-8.77-2-1.71-1.73-3.53-1.22-5.84.72-3.23,1.29-7.21-2.52-8.73-3.64-1.46-6,1.07-7.86,4.32-3.26,5.72-7.89,6.4-13.94,1.91-2.7-2-5.06-1.88-7.86-.81-8.87,3.41-14.46,0-15.63-9.55a26.94,26.94,0,0,0-1-3.81c-.37-1.35-2.29-3-.81-3.91,1.23-.8,3.54-.53,5.14,0,2.11.66.76,2.44.58,3.81-.48,3.57-.74,7.09,3.25,9.06,3.16,1.56,10.47.16,12.61-2.39s.83-4.9-.45-7.29c-.58-1.08-1.91-2.58-.45-3.53,1.64-1.07,3.36.12,4.18,1.57,1.12,1.95,2.38,3.9,1.51,6.55-1,3.11-1.38,7,2.41,8.06,3.36,1,7.36.29,9.2-3.66,1.59-3.41,4.31-5.21,7.76-5.17,3.66,0,5.65,3.37,6.57,6.12C540.93,638.74,541.57,644.21,542.56,649.09Z" transform="translate(-24.75 -46.51)"/><path d="M556.5,635.38c-2,6-2.51,10.58,2.69,13.67,1.63,1,3.28,1.73,5.18,1.27,2.11-.52,4.42-1.16,5.27-3.33s-.86-3.63-2.28-5.1a10.89,10.89,0,0,1-.68-14.33c1.74,2.08,1,4.52,1,6.69-.11,2.86,1.63,3.87,3.76,4.49a4.59,4.59,0,0,0,5.55-2.22c3.09-4.87,1.17-9.77-4.83-12.14-5.82-2.29-8.89-6.46-8.85-12.37,0-1-.86-2.6.76-2.94s1.49,1.24,1.8,2.33a18.12,18.12,0,0,0,1.7,4.64c2.81,4.52,7.17,6.41,10.78,4.92,5.48-2.26,9.44-8.32,8.62-13.19-.63-3.73-5.52-5.81-9.62-4-1.15.52-2.42,2.12-3.37.55-1.13-1.85.67-3.09,2.1-3.86,3.47-1.86,7.39-2.21,10.37.3s5.12,6.12,4.11,10.54a6.19,6.19,0,0,1-1,2.78c-5.9,6.38-6.26,15.09-9.73,22.36-3.24,6.8-5.29,15.82-15,17.54-3.93.69-10.56-2.27-12-5.46C551,644.62,552.26,638.56,556.5,635.38Z" transform="translate(-24.75 -46.51)"/><path d="M287.75,123.82a18.48,18.48,0,0,1,3.29-10.2,7,7,0,0,1,2.4-2.42,3.64,3.64,0,0,1,5,2c1.22,3.49,9.18,3.1,5.43,9-2.85,4.5-3.22,9.24-3.15,14.28.12,7.82,0,15.65.06,23.47,0,3.54-.84,7.19,2.44,10.22,1.56,1.43-2.4,8.64-4.61,8.79-1.95.14-2.38-1.21-2.73-2.84-1.77-8.21-1.27-16.5-.43-24.72a126.53,126.53,0,0,0,.17-23.35C295.14,121.94,293.66,121.53,287.75,123.82Z" transform="translate(-24.75 -46.51)"/><path d="M513.66,287c-.48,5.3,2,6.83,6.29,6.12,2.23-.36,2.77.67,2.45,2.94-1.06,7.5-2.32,15-1.15,22.64.57,3.68-2.55,4.38-5.07,4.85-1.82.33-2.36-.93-1.85-2.94a49.2,49.2,0,0,0,1.31-14.82c-.36-6.64-5-9.1-10.6-5.64-2.83,1.74-9.18-1.45-8.69-4.69,1.06-7.13.62-14.27.91-21.4.11-2.75,1.9-3.23,4.13-3.05,2.52.21,2.07,1.69,1.82,3.56A68.38,68.38,0,0,0,503,283c0,2.82-.5,6.09,2.42,7.62C508.65,292.3,510.33,288.84,513.66,287Z" transform="translate(-24.75 -46.51)"/><path d="M618.83,167.61c2.88-11.77,2.31-23.42,3.29-34.94.35-4.18.26-7.9-1.57-11.56-1.44-2.87-.69-5.19,1.66-7,2-1.54,3.36-1.35,5.35.84,4.08,4.49,4.77,8.29,1.23,13.62-1.72,2.59-1.38,6.72-1.47,10.17-.19,7.15,0,14.3-.08,21.46-.06,4.48.85,8.48,4,11.95,2.63,3,1,4.92-1.8,6.75s-4.88,1.78-6.31-1.54S620.16,170.66,618.83,167.61Z" transform="translate(-24.75 -46.51)"/><path d="M57.07,160.94a384.88,384.88,0,0,1-3.63,44.59c-1.16,8.67-1.63,17.43-2.36,26.16a32.53,32.53,0,0,1-3.76,12.78c-.7,1.29-1.31,3.12-3.1,2.5-1.5-.52-1-2.47-.77-3.58,1.69-7.11,2.25-14.34,2.91-21.59.78-8.53,1.85-17.05,2.8-25.57.58-5.24,1.23-10.47,1.71-15.72.19-2.14.55-4.49-.11-6.42C48.73,168.1,52,164.83,57.07,160.94Z" transform="translate(-24.75 -46.51)"/><path d="M377,276.6c-.52-3.74.44-8.33-5.14-9.83-1.38-.37-1-2.13-.53-3.06,1.56-3.09,3.31-6.1,5.07-9.09a1.73,1.73,0,0,1,2.55-.77c2.14,1.74,2.68,4.64,5.22,6.42,3,2.07.55,4.83-.68,7.34a14.93,14.93,0,0,0-1.64,6.67c.31,11.64-.77,23.22-1.1,34.83-.05,2,.07,3.91,1.75,5.46a4,4,0,0,1,1,2.71c-.09,3.22-1.69,6.58-4.54,6.86-2.69.26-2.9-3.47-2.93-5.83C375.78,304.48,375.39,290.63,377,276.6Z" transform="translate(-24.75 -46.51)"/><path d="M127.47,339c-10,13.57-10.73,28.35-10.74,43.28,0,2-.06,4,1.73,5.47,3.32,2.69,1.88,5.7.26,8.47-1.75,3-3.92,1.13-6,.23a9.52,9.52,0,0,0-2.9-.47c-2.43-.2-3.54-1.65-2.32-3.67,5.46-9,3.72-19.34,5.28-29,1-6.21,2.21-12.57-1.49-18.87-2.12-3.63,1.27-7.23,3.49-10.22,1.3-1.76,3.07-1.09,3.6,1.1a65.21,65.21,0,0,1,1.13,6.85c.17,1.3-.12,3,1.53,3.28s1.86-1.6,2.76-2.47S124,339.87,127.47,339Z" transform="translate(-24.75 -46.51)"/><path d="M102.58,200.81c-1.69,6.93-3.62,13.61-3.75,20.59s-3.48,14.26,1.89,21c1.75,2.2-.6,4.75-2,6.77s-3.14.77-4.87.16c-6.17-2.18-6.38-2.21-3.74-8.28,2.56-5.88,1-12.16,2.32-18.17,1-4.31.51-8.94,1.29-13.32a12.19,12.19,0,0,0-1-7.67c-2.29-4.77-.59-8.73,2-12.57.82-1.22,1.85-2.55,3.64-2.1s2.33,2.16,2.47,3.45C101.26,194.12,101.21,197.61,102.58,200.81Z" transform="translate(-24.75 -46.51)"/><path d="M286.17,314.14c.13-4.19-.17-9.3.79-14.45a16.73,16.73,0,0,0-1.87-12.05c-1.26-2.05-1.6-4.53.05-6.54,1.1-1.33,2.29-3.35,4.26-3s1.86,2.56,2.4,4.06c1.7,4.66,1.34,9.11.64,14.18-1.58,11.43-1.09,23.14-1.42,34.74a2.76,2.76,0,0,0,2,3.09c5.07,1.6,2.16,4.75,1.06,7.07-1.22,2.57-2.76,5.91-6.55,2.56a2.79,2.79,0,0,0-2.77-.71c-4.41,1.52-3.94-1.62-2.74-3.48C286.88,332,286.05,323.46,286.17,314.14Z" transform="translate(-24.75 -46.51)"/><path d="M573.15,323.13c2.44-10,.09-21.83,1.89-33.52.42-2.77-.82-5.44-2.34-7.93-1.64-2.67.48-9,3.22-10.39.29-.15.7-.36.94-.25,3.53,1.54,4.31,5.92,8,7.61,1.3.59-.08,3.62-1.72,5-2.46,2.1-2.94,4.81-3.22,8-.82,9.43-.86,18.86-.9,28.3a19.14,19.14,0,0,0,2,9.6,6.17,6.17,0,0,1,.49,5.74c-1,2.14-2.25,4.59-4.74,4.56s-2-2.93-2.7-4.67C572.78,331.77,573.66,328.25,573.15,323.13Z" transform="translate(-24.75 -46.51)"/><path d="M439.39,267.94c-4,11.81-3.66,23.27-3.78,34.7,0,3.16.43,5.93,2.88,8.12,3.7,3.31,1.36,6.25-.65,9.15a2,2,0,0,1-3.06.44c-.67-.47-1.21-1.51-1.88-1.58-9.17-.94-4.93-5.46-3.12-10.06,2.19-5.57,1.3-11.75,1.93-17.64.59-5.59.09-11.3.16-16.95,0-3.67-.17-7.11-2.12-10.5-2.46-4.27.23-8.08,2.48-11.51,1.18-1.79,3-1.14,3.87.77C438.43,257.9,436.37,263.8,439.39,267.94Z" transform="translate(-24.75 -46.51)"/><path d="M490.14,396.08c5.11-.11,7.13-3.92,10.32-5.67.66-.37,1.2-1.49,2-.54a1.6,1.6,0,0,1-.34,2.59c-4.55,2.16-7.57,6.41-12,8.64-1.87.93-4.1,1.55-5.63.18s-.25-3.52.7-4.95c3-4.56-1.53-8.12-.38-12.76-1.31.61-1.69.67-1.86.89-1.06,1.37,1.54,4.32-2,4.65-2.1.2-2.94-1.32-3.51-2.93-1-2.78-.52-5.3,2.05-7a8.07,8.07,0,0,1,3.73-1.27c2.59-.18,3.88-1.59,4.48-3.9.13-.48,0-1.14.31-1.44,2-2.09,3.2-5.57,6.65-5.34,3.9.27,3.4,3.88,3.87,6.54.52,2.93.84,5.9,1.4,8.82.42,2.2-.7,3.44-2.31,4.53C494.46,389.28,492.62,392.46,490.14,396.08Z" transform="translate(-24.75 -46.51)"/><path d="M130.67,380.37c1-11.33,2.45-22.64,2.86-34,.11-3,1.92-9.08-5.21-8.64-.3,0-1-.68-.91-.85,1.07-3.11,1.66-6.61,4.63-8.54,2.49-1.63,3.88.61,5.87,1.88,5.14,3.31,4.4,6.84,2.25,11.55s-1.91,10-2.13,15.05c-.27,6.45-1.07,12.82-1.66,19.23a13.09,13.09,0,0,0,1.42,7.12c1.42,2.84,1.46,5.26-.75,7.76-1,1.09-1.49,3.05-3.16,2.71-2-.41-2.61-2.49-2.74-4.27-.21-3,0-6,0-9Z" transform="translate(-24.75 -46.51)"/><path d="M139.94,183c-.87,7.28-2.15,14.29-2.05,21.44.09,5.54,3.34,10.88.28,16.72-1,1.92,2.22,2.76,4.12,3.33,4.83,1.46,5.11,2.25,2.21,6.36-.57.81-1.16,1.61-1.74,2.42-3.82,5.38-8.06,5.76-12.65,1.17a4,4,0,0,1-.8-4.19c3-10.27,3.35-20.82,3.85-31.41.22-4.77,1-9.53.87-14.35a3.28,3.28,0,0,1,1.21-3.08c1.08-.79,2.16-1.93,3.51-1.61C140.62,180.24,139.38,182.09,139.94,183Z" transform="translate(-24.75 -46.51)"/><path d="M269.65,344.3a36.59,36.59,0,0,1-2.15,5.24c-4.2,6.92-7.78,7.32-13.15,1.47-1.73-1.89-.94-4.16.06-6.09a18,18,0,0,0,1.9-9.63c-.76-12.3,1.21-24.53,1-36.81,0-.34,0-.67,0-1,.07-2.49,1.16-4.41,3.77-4.34,3.41.09,2.13,3.14,1.84,4.55-1.63,7.93-.82,15.92-.68,23.85.08,4.61.48,9-.92,13.58C259.86,339.9,263.48,343.56,269.65,344.3Z" transform="translate(-24.75 -46.51)"/><path d="M478,111.8c.79,4.64-1.34,9.76-1.07,15.11s1.28,10.33.23,15.67c-.89,4.54,1.73,8.25,5.38,11,3,2.25,2.27,4.13-.17,6.42s-4.44,2.85-6.5-.15c-1.52-2.22-3.11-4.15-5.83-5.15-2.44-.88-2-3.31-1.47-5.17,3-9.76,2.41-19.92,3.45-29.89.53-5.07,1.68-10.13,1.18-15.31-.17-1.69.64-3,2.54-3S478,103,478,104.62C478,106.78,478,108.94,478,111.8Z" transform="translate(-24.75 -46.51)"/><path d="M506,100c2.22.19,2.23,2.28,2.84,3.88,3.56,9.33.1,18.59-.51,27.84-.45,6.82-.25,13.61-.24,20.41a4.57,4.57,0,0,0,2.2,3.74c4.21,2.63,2.36,5.53.39,8.42-.27.4-.68.93-1.08,1-4.1.6-6.13-3.22-9.37-4.57-2-.82-1.45-3.23-.24-4.74,2.92-3.65,3.21-7.82,3.07-12.22a185.77,185.77,0,0,1,.87-22.37c.41-4.76.37-9.55-1.53-14.24C501.18,104.09,502,101.12,506,100Z" transform="translate(-24.75 -46.51)"/><path d="M449,302.69c.67-10.91,1.46-21.81,2-32.73.19-4-.43-8-4.6-10.24-1-.57-1.85-1.6-1-2.9,1.42-2.15,1.78-5.22,4.81-6,1.78-.47,2.1,1.35,2.89,2.27,1.91,2.21,2.79,5.16,5.62,6.77,1.59.91,1.51,3.3.34,4.51-4.33,4.48-3.21,10.36-3.88,15.57-1.05,8.19-.81,16.53-1.2,24.81-.13,2.77.25,5.33,2.14,7.45s1.61,4.24-.26,6.14c-1.1,1.12-1.91,3-4,2.37s-1.51-2.6-1.79-4.18A62.82,62.82,0,0,1,449,302.69Z" transform="translate(-24.75 -46.51)"/><path d="M277.75,141.72a18.5,18.5,0,0,0-2.35-9.94c-2.42-4.28-.21-8.71,2.14-12.54,1.34-2.21,3.52-1.48,4.18.57.95,3,1.06,6.09,4.09,8.09,1,.64-.11,2.16-.51,3.22-4.46,11.9-3.89,24.34-3.87,36.71,0,1.66.09,3.69,1.81,4.34,3,1.15,4.68,2.55,2.6,5.81-1.79,2.81-2,7.14-7.68,5.34s-6-1.26-3.62-6.64c2-4.56,2.34-9.28,2.14-14.14A119.81,119.81,0,0,1,277.75,141.72Z" transform="translate(-24.75 -46.51)"/><path d="M202.5,206.19c4.26-14.09,2-28,3.6-41.64.43-3.64.16-7.39-3.55-10.17-2.41-1.8,0-4.59.41-6.9a4.31,4.31,0,0,1,3.9-3.39c2.43-.29,2.63,2.09,3.16,3.72,2.87,8.79,1.64,17.61.72,26.58-1,9.22-2.38,18.62,1,27.81a6.6,6.6,0,0,1-1.81,7.33c-1.81,1.68-3.67.45-5.48-.42C202.83,208.34,202.27,207.18,202.5,206.19Z" transform="translate(-24.75 -46.51)"/><path d="M91.74,354.7a65.44,65.44,0,0,0-1.14-8.06c-.57-2.21.16-3.91,1.14-5.64s2.08-3.51,3.93-3.48c2.31,0,2.1,2.53,2.73,4.17,1.27,3.33.93,6.44.22,10-2.33,11.69-3.41,23.59-4.31,35.49a6.94,6.94,0,0,0,.87,4.33c3.26,4.38.26,7-2.35,9.86-.72.8-1.31,1.57-2.46,1.12a2.29,2.29,0,0,1-1.45-2.41c.58-6.64-2.51-12.89-.41-20C90.91,371.93,90.78,363.06,91.74,354.7Z" transform="translate(-24.75 -46.51)"/><path d="M152.16,357.54c-.21-4.37.79-9.93,1.67-15.46.35-2.17-.93-3.8-.69-5.81.29-2.36-.69-5.23,3-5.84,1.77-.29,3.56-2.58,5-1.36,1.9,1.57-.39,3.58-.8,5.37a149.21,149.21,0,0,0-3.29,34.93,8.6,8.6,0,0,0,4.08,7.5c4.38,2.74,2.28,5.31-.12,8-2.21,2.51-4.2,4.56-6.66.27-.47-.83-1.3-1.86-2.12-2-5.62-1-4-4.47-2.67-7.78C151.73,370.05,152.38,364.5,152.16,357.54Z" transform="translate(-24.75 -46.51)"/><path d="M195.66,166.17c-4.17,10.58-1.7,21.94-3.56,32.85-.6,3.47.59,6.53,1.44,9.71a7.93,7.93,0,0,1-1.77,7.36c-1.38,1.64-3.4.19-5.15-.16-3.13-.64-3.43-3.58-2.22-4.92,4.1-4.56,2.81-10.26,3.26-15.21.69-7.72,1.11-15.54,1.38-23.32a13.2,13.2,0,0,0-1.92-6.61c-2.38-4.53-.47-8.63,1.54-12.62a2.91,2.91,0,0,1,2.75-1.87c1.69.17,2.17,1.8,2.21,2.94A39.18,39.18,0,0,0,195.66,166.17Z" transform="translate(-24.75 -46.51)"/><path d="M257.28,157.22c.24-4.45-.48-8.92.83-13.36.49-1.64.69-3.88-.58-5.29-4.06-4.53-.49-8.45,1-12.36,1-2.63,3-2.48,4.18.15A18.6,18.6,0,0,1,264,139.23c-1.6,6.47-1.87,13.39-1.79,20.11.08,7.17-1.53,14.45,1.85,21.57,1.37,2.9-1.07,6.36-3.39,8.83-1.87,2-3-.1-2.95-1.29.3-6.2-4.09-12-1.38-18.4C258.07,166,257,161.51,257.28,157.22Z" transform="translate(-24.75 -46.51)"/><path d="M366.34,276.3c-4.76,9.77-2.06,19.91-3.93,29.53-.78,4-.46,8.25,2.72,11.69,2.21,2.38.74,4.69-.87,6.7-1.12,1.38-2.37,3.15-4.46,1.27-1.81-1.62-6.47-2-4.73-5.24,3-5.69,2.64-11.66,2.85-17.5.38-10.4,2.73-20.78.69-31.25-.35-1.79-.51-3.47-2.22-4.76-1.32-1-1.71-2.57-.78-4.42,1.2-2.41,2.22-5.61,5.08-5.39,2.39.18,2.78,3.55,3.14,5.72C364.61,267.34,363.72,272.28,366.34,276.3Z" transform="translate(-24.75 -46.51)"/><path d="M216.25,154.75c.63-4.85,2.64-8.61,4.49-12.45,1-2,2.4-5,4.15-3.84,2.3,1.47,6.09,2.23,6.28,6.09a8.36,8.36,0,0,1-.33,3.43c-5.64,14.25-2.63,29.15-3.41,43.76-.08,1.42,1.09,2.33,1.8,3.44,1.78,2.74.08,8.18-2.84,9.4-2.3,1-2.61-1-2.83-2.3-.85-5.19-2.36-10.37-1.48-15.7,1.52-9.19-.34-18.57,1.57-27.73a4.94,4.94,0,0,0-.19-2C222.3,151.69,221.05,151.25,216.25,154.75Z" transform="translate(-24.75 -46.51)"/><path d="M168.54,375.79c6.38-14.23,6-29.09,5.77-43.92-.05-2.47-1.84-4.05-4-5.37-3.56-2.21-3.31-4.35.22-8.95,2.4-3.12,4.47-2.79,6.8-.05a6.88,6.88,0,0,0,2.62,2.24c3.75,1.32,3.72,3.87,2.24,6.69a29.14,29.14,0,0,0-3,14.94c.35,8.75-2.51,17.46-.15,26.22.43,1.59-.55,2.82-1.88,3.78C174.54,373.29,171.81,375.1,168.54,375.79Z" transform="translate(-24.75 -46.51)"/><path d="M349.26,276.41c-.85,2.86-1.63,5.21-2.24,7.61-1.49,5.87-.92,11.87-1,17.83-.07,3.64.08,7.24-.76,10.9-.6,2.58-1,5.59,1.1,8.11,1.29,1.54.73,3.56.51,5.3s-.87,4.19-2.75,4.33c-2.46.18-4.4-2-6.24-3.45-1.4-1.11-.18-2.64.64-4a16.57,16.57,0,0,0,2.61-10.41c-.74-8.31,1.2-16.52,1-24.82-.12-4.62,0-9-2.28-13.53-2.16-4.22.89-8.4,3.51-11.73,1.93-2.46,3,.56,3.2,1.72C347.37,268.47,346.51,273,349.26,276.41Z" transform="translate(-24.75 -46.51)"/><path d="M111.65,233.66c1-11.18,2-22.37,3-33.54.34-3.5-.09-6.45-3-8.93-3.69-3.12-1.47-6.32.7-9.08,2.47-3.13,4-.26,6.38.81,6.57,3,4.6,6.58,2,10.86-2,3.29-1.1,7.17-1.58,10.75-1.06,8-1.67,16.1-2.39,24.16A10.53,10.53,0,0,0,117.9,235a5.08,5.08,0,0,1,.64,2.86c-.33,2.53-1.23,5.57-3.91,5.57-2.06,0-2.68-3-2.7-5.23,0-1.5,0-3,0-4.49Z" transform="translate(-24.75 -46.51)"/><path d="M232.27,309.2c1.21-4.15,2.32-7.95,4.37-11.41.66-1.12.93-2.55,2.58-2.72,2.16-.23,1.34,2,2.22,2.68,5.69,4.6,3.53,10.06,1.86,15.52a8.09,8.09,0,0,0-.35,2.44,236.16,236.16,0,0,1-.95,26.86,14.43,14.43,0,0,0,.56,5.92c1,3.13-.29,5.32-3.06,7.07-2.41,1.53-3.62,1.72-3.42-1.65.39-6.45.29-13,1.28-19.32,1.14-7.33.29-14.6.64-21.89C238.2,308.55,234.9,309.35,232.27,309.2Z" transform="translate(-24.75 -46.51)"/><path d="M720.64,157.47c.17-5.3.88-10.69-1.22-15.78-1.14-2.78.77-4.42,2.59-5.19,2.74-1.15,2.38,1.84,3.13,3.24a16.51,16.51,0,0,1,.91,14.85,10.29,10.29,0,0,0-.32,3.45c-.27,7.62.44,15.26-.84,22.89a21.44,21.44,0,0,0,1.33,12.23c1.09,2.49,1.2,5.36-1.92,6.24-3.68,1-3-2.33-3.55-4.42-2.42-8.68-1.36-17.33-.19-26C721.06,165.17,720.64,161.29,720.64,157.47Z" transform="translate(-24.75 -46.51)"/><path d="M643.25,174.35c-2.23-.45-4.54-.67-3.53-4.85,3.26-13.55,2.06-27.4,2.09-41.16,0-1.89-1.17-3.77-1.61-5.7a5.25,5.25,0,0,1,2.85-6.29c2.48-1.08,2.92,1.84,4.15,3.24,3.15,3.59,3.91,6.72,1,11.29-1.76,2.74-1.44,7.08-1.38,10.68.16,9.8-.91,19.62.67,29.4C647.85,173.41,646.62,174.33,643.25,174.35Z" transform="translate(-24.75 -46.51)"/><path d="M411.57,286.81a87.32,87.32,0,0,1,.7-13.14c.6-4,.72-8.26-1.06-12.25-.73-1.64-1.44-3.5-.46-5.28s1.13-4.84,3.49-5c2.65-.24,1.68,3.18,2.95,4.46,3.61,3.61,2.16,7.1.45,11-1.32,3-1.48,6.38-1.47,9.74,0,9.13-.22,18.26-.25,27.39,0,1.78-.06,4,.88,5.29,3,4.15.49,7.2-1.53,10.37-1.37,2.15-3.33,1.58-3.19-.58.47-6.88-3.89-13.37-1.4-20.33C412.06,294.55,411.34,290.52,411.57,286.81Z" transform="translate(-24.75 -46.51)"/><path d="M389.2,151.42a48,48,0,0,1-2.55-21.59c.39-3.8.59-7.57.72-11.36.16-4.8-.19-9.6.81-14.4a11.74,11.74,0,0,0-1.2-8.7c-.65-1.08-1.65-2.36-.89-3.71,1.31-2.31.91-6.53,4.47-6.39,2.62.11,2.45,3.82,3.26,6,1.3,3.43-.29,6.92-.87,10.24-1.14,6.46-.59,12.9-.81,19.34-.14,4,.32,8-.84,11.89-.5,1.67-.66,3.86.57,5.31C396.07,143,393.57,146.8,389.2,151.42Z" transform="translate(-24.75 -46.51)"/><path d="M453,119.27c-.14-8.07,1-14-3.87-18.74-1.42-1.37,2.07-8.88,4-9.2a2,2,0,0,1,2.28,1.52c1.38,5.48,6.78,10.36,2.64,16.73a2.53,2.53,0,0,0-.2,1.46c.61,9.31-.83,18.54-.94,27.81a25.08,25.08,0,0,0,.59,7.39c.95,3.36-1.41,5.78-5,5.64-2.64-.11-1.57-2.25-1.42-3.31C452.64,138.07,452,127.45,453,119.27Z" transform="translate(-24.75 -46.51)"/><path d="M682.2,178c1.4-10.08.93-20.23,1-30.36,0-4.25-.28-8.33-4.36-11-2.29-1.49-.76-3.46,0-4.84.86-1.67,1.47-4.13,3.67-4.41,2.48-.32,2.33,2.42,3.14,3.85,2.69,4.73,3.42,9.38,2.89,15.27-1,11.15-1.52,22.58.45,33.8.65,3.71-1.48,4.9-4.3,5.31-3.67.52-2-2.55-2.37-4.15A16.91,16.91,0,0,1,682.2,178Z" transform="translate(-24.75 -46.51)"/><path d="M406,308.44c-.87,5.22-4.24,7.94-6.57,11.23-1.9,2.68-5.57,1.61-6.86-1.95-2.64-7.3-1.42-14.62.09-22,.92-4.49,3.56-7.65,6.8-10.56a18.66,18.66,0,0,0,3.28-3.66c.59-.9.27-2.43,1.65-2.82.7-.19,1.17.44,1.28,1.15.22,1.52.24,3-1.21,4-5,3.55-6.45,9-7.34,14.53a14.85,14.85,0,0,0,.7,7.34C399.27,309.87,401.32,311.71,406,308.44Z" transform="translate(-24.75 -46.51)"/><path d="M655.65,304.87c1.36-5.22.89-8.6-5-9a5.81,5.81,0,0,1-5.39-5.65c0-3,1.79-6,4.24-8.17,1.26-1.12,2.2-.18,2.73.93,2.32,4.84,6.89,5.64,11.31,5.58,3.87-.06,3.36,1.41,2.23,3.69A40.63,40.63,0,0,1,655.65,304.87Z" transform="translate(-24.75 -46.51)"/><path d="M77.45,374.13c1.34,1.69-.24,2.63-.87,3.87A20.78,20.78,0,0,0,75,393.85c.43,1.46.86,3.16,2.72,3,4.21-.25,2.22,2.21,1.85,4a2.71,2.71,0,0,1-.68,1.31c-2.1,2.15-3.31,6.22-7,5.26s-3.3-4.95-3.31-8c0-8.18.74-16.21,6-23C75.27,375.37,75.84,374.1,77.45,374.13Z" transform="translate(-24.75 -46.51)"/><path d="M142.86,207.76c1-2.72,2.08-5.44,3.16-8.14,3.17-7.88,4.45-15.59-1.4-23-1.22-1.52,1.24-8.43,3.06-9.27s2.46.7,2.86,1.82c3.65,10,6.27,20.09-1.08,29.73C147.27,201.82,146.42,205.55,142.86,207.76Z" transform="translate(-24.75 -46.51)"/><path d="M373.85,122.7c.28,5.12-1.56,9.26-.86,13.52.49,3,.83,6.16,5.23,5.61.94-.12,2-.11,2.25,1.29.4,2.42-5,9.58-7.45,9.89a2.85,2.85,0,0,1-2.87-1.52C366,145.61,367.76,128.79,373.85,122.7Z" transform="translate(-24.75 -46.51)"/><path d="M242.93,166.82c0,4.23-.14,8.46,0,12.68.24,5.72,2.51,7.73,7.41,6.57-1.38,2.76-1.79,5.74-4.19,7.82-3.46,3-7,2.33-7.88-2a41.45,41.45,0,0,1,3.07-25.18Z" transform="translate(-24.75 -46.51)"/><path d="M517.26,281.76c-1.16-3.36-2-6.36-6.45-6.5-2.15-.07-4.52-2.55-4.63-5.2a8.82,8.82,0,0,1,3.32-7c1.93-1.62,3.06.18,3.93,1.54a8.66,8.66,0,0,0,7.47,4.21c4.4,0,3.73,2.59,2.64,4.87A22.58,22.58,0,0,1,517.26,281.76Z" transform="translate(-24.75 -46.51)"/><path d="M651.77,345.19a8.17,8.17,0,0,1-4.7,6.18c-2.5,1.27-2.45-1.91-3.59-3.06-2.67-2.68-5.2-5.55-8.11-7.94-1.61-1.32-2.82-2.47-1.92-4.47s1.4-4.26,3.88-4.84,2,2.2,3.12,3c3.39,2.38,6.74,4.73,9.39,8C650.64,343,651.84,343.74,651.77,345.19Z" transform="translate(-24.75 -46.51)"/><path d="M551.08,165.53c-.79,2.66-1.33,5.34-3.94,6.29s-3.83-1.54-4.9-3.25a18.25,18.25,0,0,0-7.83-7.42c-3.55-1.6-2.39-3.78-.93-6,1.61-2.44,3.18-2.67,5.51-.39a33.6,33.6,0,0,0,7.65,5.43C548.76,161.34,550.78,163,551.08,165.53Z" transform="translate(-24.75 -46.51)"/><path d="M511.94,324.22c-1.37,2-2,4.75-4.36,5.72s-2.78-1.9-3.68-3.17c-2.49-3.51-4.69-7.16-9-8.82-2.72-1-1.41-2.88-.51-4.39s2-4.62,4.08-3.05c4.6,3.44,9.29,7,12.79,11.66A7.69,7.69,0,0,1,511.94,324.22Z" transform="translate(-24.75 -46.51)"/><path d="M336.35,177.58c.11-1.66.54-4,2.59-4.54,2.77-.81,5.23.91,7,2.83,1.95,2.12,3.14,4.72,5.8,6.49,1.71,1.15,0,3.95-1.4,5.43s-1.78,4.17-4.14,3.8c-2-.32-1.74-2.82-2.44-4.39-1-2.25-2-4.65-4.9-5.11C336.36,181.69,336.32,179.89,336.35,177.58Z" transform="translate(-24.75 -46.51)"/><path d="M519.36,101.22c1,.85,1.94,1.22,2.26,1.88,1.31,2.71,3.46,4.69,5.34,7,2.61,3.12,0,5.93-2.39,7.42-4.68,2.86-6.49-3.19-10.19-4-2.28-.52-1.17-2.68-.58-4.18C515,106.18,517.09,103.76,519.36,101.22Z" transform="translate(-24.75 -46.51)"/><path d="M310.2,283.26c-.53,4.17-3.31,5.77-6.64,6.69-3.15.87-5.67-.94-8.15-2.38-.94-.55-.2-1.81.2-2.7a35.25,35.25,0,0,1,1.66-3.51c4.42-7.44,7.93-7.36,12.41.29A6.73,6.73,0,0,1,310.2,283.26Z" transform="translate(-24.75 -46.51)"/><path d="M272,309.13c.79-4.54.75-8.65-1.06-12.51a26.39,26.39,0,0,0-1.91-4,7.75,7.75,0,0,1,1.32-10.32c.85-.68,1.47-1.07,2.46,0,4.54,4.85,5.31,20.71,1.13,26C273.7,308.61,273.12,308.67,272,309.13Z" transform="translate(-24.75 -46.51)"/><path d="M704.93,165.87c1.47,4.95-1.62,9.81.28,14.71,1.25,3.23,1.67,6.83,5.36,8.31,1.83.74,1.29,1.49.43,2.51-2.06,2.48-6.51,2.22-8.72-.52-4-4.91-3.27-19.81,1.17-24.42C703.74,166.15,704.3,166.11,704.93,165.87Z" transform="translate(-24.75 -46.51)"/><path d="M338.2,777c1.48.24,2.23,1.42,3.1,2.38,1.09,1.19.26,2.12-.65,3-6.95,6.41-6.45,13.84-3.16,21.78.58,1.41,3,3.41.3,4.59-2.06.91-3-1.52-3.8-3.1-2.65-5.13-2-10.62-1.22-16,.46-3.22.78-6.59,2.38-9.59C335.88,778.73,336.6,777.46,338.2,777Z" transform="translate(-24.75 -46.51)"/><path d="M248.73,139.17c0,1.82.07,3.65,0,5.47-.06,1.4.4,3.18-1.76,3.52-1.72.27-2.31-1-2.8-2.28-2-5.15-3.58-10.33-.73-15.73.55-1,1-2.06,2.46-2,1.78.06,2.29,1.35,2.44,2.63.33,2.78.4,5.59.58,8.39Z" transform="translate(-24.75 -46.51)"/><path d="M489,120.42a39.21,39.21,0,0,0-4.55-18.11c-1.08-2-.31-3.89.74-5.61.82-1.34,1.93-1.69,3.25-.44,3.93,3.7,5.6,18.47,2.53,22.95C490.69,119.56,490.16,119.7,489,120.42Z" transform="translate(-24.75 -46.51)"/><path d="M397,260.09c.11-4.46-.54-9.48,3.75-9.27,2.88.14,2.24,5,1.43,8.19-.86,3.43,1.44,6.77.71,10.28-.19.88.41,2.12-1,2.45-1.17.28-1.61-.67-2.24-1.49C397.17,266.87,397.08,263,397,260.09Z" transform="translate(-24.75 -46.51)"/><path d="M557.29,605.06c-5.08-.11-9.73-7.34-7.77-12.14.21-.53.78-1.26,1.22-1.29,1-.06,1.08.93,1.32,1.74,2.27,7.89,4.39,8.73,12,4.89.79-.4,1.68-1.58,2.61-.53,1.15,1.29-.29,2-1,2.88A10.61,10.61,0,0,1,557.29,605.06Z" transform="translate(-24.75 -46.51)"/><path d="M79.7,360.86c-4-6-5.08-11.07-3.53-16.63.48-1.72,1.68-3,3.52-2.92a2.58,2.58,0,0,1,2.14,3C81.21,349.41,81.49,354.69,79.7,360.86Z" transform="translate(-24.75 -46.51)"/><path d="M582.07,259.1c-3.53.35-5.12-2.2-6.06-4.77-1.09-3,1.22-5.2,2.8-7.44.19-.28.89-.35,1.31-.27.8.16,5.87,8.94,5.81,9.82C585.76,259,584,259.18,582.07,259.1Z" transform="translate(-24.75 -46.51)"/><path d="M377,104.43c-4.09-4.28-5.73-12.5-3.76-17,.56-1.28,1.38-2.38,2.94-2.16a2,2,0,0,1,1.63,2.19C377.61,92.91,378.58,98.39,377,104.43Z" transform="translate(-24.75 -46.51)"/><path d="M710.11,139.79c.09,3.08-.09,8.18-2.11,8.15-2.87,0-2.78-4.79-3.49-7.68-.63-2.51-1.51-5.16.8-7.4a2,2,0,0,1,2.69-.25C710.41,134.45,710.23,137.15,710.11,139.79Z" transform="translate(-24.75 -46.51)"/><path d="M674.63,348.31c0-3-.11-7.05,3.53-6.94,3.1.09,2.92,4.2,3,7,.12,3-.61,6.61-3.76,6.5S674.69,350.94,674.63,348.31Z" transform="translate(-24.75 -46.51)"/><path d="M234.15,374.24c3.92,3.48,5,10.05,2.89,13.53-.35.59-.57,1.23-1.36,1a2.26,2.26,0,0,1-1.46-2.34c0-.49-.07-1-.07-1.49Z" transform="translate(-24.75 -46.51)"/><path d="M541.07,566.34a11.12,11.12,0,0,0-3-5.88c-.53-.58-1.43-1.15-.61-2,.65-.7,1.5-.38,2.27,0,3.57,2,5.08,8.3,2.86,11.75-.77,1.2-1.63,2.47-3.07,1.55s-.23-2,.37-3A25.73,25.73,0,0,0,541.07,566.34Z" transform="translate(-24.75 -46.51)"/><path d="M594.4,552.26c.11,4.26-5.7,8.7-9.4,7.55-.86-.27-1.54-.79-1.58-1.67a1.84,1.84,0,0,1,2.22-2C589.33,556.71,591.91,554.82,594.4,552.26Z" transform="translate(-24.75 -46.51)"/><path d="M524,549.83c-4,1.06-7.71-.74-11,1.73-1.17.87-1.68-1-1.1-2.21a4.71,4.71,0,0,1,5.77-2.7C519.7,547.17,521.9,547.57,524,549.83Z" transform="translate(-24.75 -46.51)"/><path d="M323.86,799.38c-.17.32-.33,1-.78,1.38a1.46,1.46,0,0,1-2.13-.56,25.43,25.43,0,0,1-2.86-8.26,1.88,1.88,0,0,1,1.49-2.26c1.47-.23,1.17,1.13,1.46,2C321.88,794.17,322.83,796.61,323.86,799.38Z" transform="translate(-24.75 -46.51)"/><path d="M450.07,182.1c0-3.22,0-5.87,0-8.51,0-.66.11-1.47.93-1.45a2.54,2.54,0,0,1,1.64.8C455,175.54,454.09,179.64,450.07,182.1Z" transform="translate(-24.75 -46.51)"/><path d="M681.63,205.38c.94.43,1.16.45,1.23.57,2,3.16,1.89,6.5.68,9.86-.2.56-1.43.88-1.65.29C680.65,212.68,681.19,209.21,681.63,205.38Z" transform="translate(-24.75 -46.51)"/><path d="M559.65,547.85c-2.88.34-4.82-.71-6-3.25-.73-1.59-1.19-3.55.75-4.26,2.28-.84,1.29,1.63,1.8,2.56C557.17,544.6,559.25,545.48,559.65,547.85Z" transform="translate(-24.75 -46.51)"/><path d="M59.54,222.9c-1.37-4.92.07-8.5.77-12.49C63,214.6,61.66,218.24,59.54,222.9Z" transform="translate(-24.75 -46.51)"/><path d="M380.5,534.08c4.3.37,8.1,2.42,12.06,3.92,1.16.43,2.39,1.53,1.88,3.09s-1.83,2.78-3.39,2.27c-5.83-1.93-11.65-1.19-17.52-.52a2.77,2.77,0,0,1-3-2.69,4.5,4.5,0,0,1,3.2-5C375.85,534.59,378.06,533.49,380.5,534.08Z" transform="translate(-24.75 -46.51)"/><path d="M380.88,413.43c-1.63-1.43-5.49.43-5.67-3-.16-3.11,3.36-2.95,5.36-3.22,1.64-.22,4.43.15,4.61,2.73S383.28,413.1,380.88,413.43Z" transform="translate(-24.75 -46.51)"/></g></g></svg>