<svg xmlns="http://www.w3.org/2000/svg" viewBox="0 0 870.1 863.97"><title>stones</title><g id="Layer_2" data-name="Layer 2"><g id="Layer_1-2" data-name="Layer 1"><path d="M342,1c-1.67,15.06-5.85,29.64-8.39,44.54-1,5.9-2.16,11.76-3.2,17.66-.23,1.27-.65,2.84.84,3.58s2.51-.7,3.33-1.57A17.54,17.54,0,0,0,339,57c1.83-8.12,3.58-16.26,5.36-24.38a30.1,30.1,0,0,1,.83-3.4c.26-.78.82-1.56,1.8-1.35,1.16.24.74,1.29.81,2.05.55,5.21-.83,10.23-1.54,15.31-.22,1.58-1.26,3.81.68,4.38s2.77-1.65,3.71-3.26C354,40.71,358.07,35.93,364.83,33,362.56,41,359.34,47.6,353,52.46c-5.26,4-8.67,9.33-9.32,16.15-.1,1.11-.89,2.33.39,3.17,1,.64,2-.07,2.78-.56,4.07-2.54,8.71-3.83,12.62-6.88,12.26-9.56,26.55-15.78,40-23.38a2.45,2.45,0,0,1,2.88.1c0,2.28-2,2.94-3.39,3.87-12.7,8.44-25.85,16.18-38.33,25-4.84,3.43-10.55,5.59-15.35,9.19a19.32,19.32,0,0,0-3,2.61c-1.41,1.62-3.62,3.89-2.68,5.51,1.45,2.5,3.28-.68,4.95-1.13a72.9,72.9,0,0,0,14.84-5.84c1.87-1,3.9-1.94,7.17-.74A78.38,78.38,0,0,1,348,88.41c-7.39,2.24-8.26,4.24-4.18,10.92,5,8.15,5.6,7.27,13.53,12.84,10.84,7.64,24.15,10.18,34.6,18.39a136,136,0,0,1,23.8,24c6.92,8.93,14.17,17.57,19.48,27.62a5.32,5.32,0,0,0,2.91,2.45c18.89,8.31,31.32,23.6,42.56,40,3.18,4.64,5.8,9.7,8.79,14.51,7.51,12.08,9.89,25.56,9.67,39.57s-1.74,27.77-6.15,41.13c-3.95,12-9.93,22.77-17,33.28-7.39,10.94-16.7,20-25.07,30a231.31,231.31,0,0,1-45.76,42.2c-18.16,12.54-37.32,22.87-58.54,29.07-8.24,2.4-16.7,4-24.07,8.81a7.29,7.29,0,0,1-4.35.78c-7-.69-14,.4-21,0-5.88-.34-11,1.5-16.26,3.36-8.17,2.91-16,3.36-24.21-.67-2.84-1.4-6.85-.55-10.32-.51-9.08.1-18.07,2.26-27.26.07-4.5-1.08-9.28,0-13.69,1.89-2.73,1.15-4.89,1-7.75-.9a16,16,0,0,0-12.38-2c-5.83,1.22-11.65,2.51-17.72,2.31-3.67-.11-6.22-1.44-7.1-5-.64-2.6-2-3.42-4.54-3.5-16.13-.46-32.26-1.07-48.22-3.82a6.46,6.46,0,0,0-3,.08c-4.38,1.46-6-.16-5.27-4.53A2.45,2.45,0,0,0,98,448c-8.23-4.52-16.26-9.36-24.85-13.25-7.33-3.31-12.93-9-18.84-14.42-8.36-7.72-14-17.64-22.33-25.27-2.16-2-1.69-5.19-3-7.76-6.2-12.46-12.94-24.77-16.93-38.14C5.12,326,2.35,302.55,7.72,278.32c2.79-12.63,4.48-25.56,8.71-37.83,7.54-21.85,17.62-42.36,35-58.3,14.47-13.25,29.61-25.89,47.22-34.64,17.1-8.48,34.82-15.72,53.46-20.5,8.36-2.15,16.7-4.36,25.1-6.36.95-.22,2.09-1,2.81-.71,5.65,2.31,7.25-1.64,9.13-5.53,7.17-14.86,6.55-18-5.78-30.17-2.18-2.15-5-3.73-6.83-7.1,3.41-.24,5.51,1,6.68,3.5,2.51,5.33,8.22,7.52,11.58,12a2.71,2.71,0,0,0,4.39.14c2-2.58,3.5-5.61,1.69-8.78-2.31-4-4.54-8.32-7.78-11.51s-4.42-7.73-7.26-11.16c-.68-.82-1.73-2.14-.26-3,1.18-.67,2.11.49,2.79,1.49a131.91,131.91,0,0,0,10.11,12.78c6.67,7.56,7.11,7.66,11.21-1.47.81-1.83,1.66-3.64,2.39-5.5,1.2-3.09,1.33-5.94-1-8.79-2.85-3.47-5.25-7.29-7.93-10.9-.81-1.1-1.69-2.06-.94-4,4.89,1.61,6.94,6.33,10.19,9.44,3,2.86,4.41,2.43,5.83-.75,4-8.91,8.08-17.79,11.6-26.88,1.42-3.68,1.41-7.59-1.87-11.15-2.36-2.56-2.56-6.61-4.9-9.5l1.18-.7c1.92,3,3.91,6,5.74,9.08.71,1.19,1.22,2.39,2.89,2.23s2.1-1.38,2.57-2.68c1.2-3.28,2.49-6.53,2.56-10.1h2c.11,5,0,9.89-2,14.62a12.34,12.34,0,0,0-.49,5.41c.14,2.68,2,4.15,4.4,4.79,2.58.72,3.52-1.33,4.29-3.19,3-7.2,5.9-14.42,8.84-21.63h2c-.29,6.61-3.3,12.38-5.78,18.29a48.18,48.18,0,0,0-3.67,13.9c-.33,3.29,1.69,6.54,4.2,7.27s2.89-3.33,4.28-5.22c.36-.49.22-1.33.5-1.92,1.71-3.55,4.54-6,7.73-8.23-2.61,6.49-3.26,13.48-6.51,19.57-2,3.74,0,6.68,2,9.56,1.15,1.65,3,1.23,4.6,1,2.13-.24,1.85-2,1.86-3.47,0-2.46-1.09-5.56,3.5-4.89.89.13,1.43-1.34,1.38-2.38-.26-6.05,2.23-11.72,2.34-17.77.06-3.56.2-7.43,2.25-10.74,1.35.7,1,1.56.94,2.35-.25,7.31-.51,14.62-.71,21.93,0,1.09-.43,2.5.85,3.14,1.46.73,2.48-.35,3.45-1.29,3.05-2.94,5.29-6.13,5.89-10.63C287.43,21.35,287.4,11,290,1h3c-.26,2.63-.31,5.31-.83,7.89-2.11,10.54,2.91,21.69-2.91,32-.85,1.5-.43,4,0,5.89.79,3.27,2.61,4.45,5.81,2.1,2-1.48,3.48-3.86,6.31-4.56.28,2.06-1.18,3-1.73,4.28-1.58,3.71,1.08,4.69,3.66,5.67s5.84,2.4,6.51-1.5c1.53-8.9,5.19-17.16,7.13-25.92a49.23,49.23,0,0,1,6.38-16.44c1.66,3.94.74,6.42-.1,9q-2.56,7.82-4.89,15.71c-.41,1.4-.79,3.19,1,3.93,1.51.62,2.39-.69,3.14-1.83.55-.83,1.13-1.9,2.28-1.47,1.65.61.77,2,.49,3-.92,3.25-.95,6.59-1.13,9.91-.07,1.37-.89,3.43,1.2,3.74s2.67-1.56,3-3.31c.55-2.93,1-5.88,1.68-8.79Q334.47,20.6,339,1ZM292.39,177.3c-4.71,1.39-7.71-.12-9.6-2.59-4.67-6.13-11.06-9.72-17.58-13.28-5.18-2.82-10.57-3.69-15.63-.35-4.46,2.94-9.18,2.44-14.26,2.81.41-.82.51-1.48.85-1.64,4.66-2.21,8.35-6.05,13.25-7.81,1.89-.67,3.51-2,3.35-3.81-.21-2.33-2.55-1.69-4.06-1.51-8.1,1-15.65-2.34-23.56-3-6.84-.54-13.54-3.08-20.52-1.88a168.26,168.26,0,0,0-35.28,10.48c-12.15,5-24,10.56-34,19.48-10.28,9.13-17.82,20.51-26.48,31C98.43,217.76,90,231.55,84.78,247.36c-4.75,14.52-9.13,29.06-11.36,44.18a316.56,316.56,0,0,0-2.88,36.26c-.37,11.93-1.12,23.89.56,35.78,1.4,10,6.41,18.79,9.94,28.06,1.46,3.85,1.76,8.21,4.61,11.5,7.8,9,17.53,15.53,27.95,21,6.5,3.43,13.83,4.67,20.81,6.83a208.81,208.81,0,0,0,60.35,9.47c6.31.05,6.34,0,5.43-6.12a7.17,7.17,0,0,1,.26-2.9c1.68-5.89,4.83-6.95,12.7-4.24,1.64.56,4,.52,3.86,3.1-.08,2-.63,4-2.65,5.05-.87.48-1.73,1-2.6,1.48s-1.5,1-1.42,1.88c.12,1.28,1.3,1.38,2.26,1.5a32.89,32.89,0,0,0,4,.2c13-.11,26-.39,39-.31a186.38,186.38,0,0,0,25.07-2c17.85-2.31,34.56-9.29,51.53-15.08,16.55-5.64,31.32-13.9,43.86-26.42,6.73-6.72,14.31-12.93,19.79-20.52,6.53-9.05,12.7-18.5,18.74-28,5.33-8.35,8.38-17.7,12.85-26.37,6.95-13.46,7-27.86,6.89-42.17-.08-9.7-2.55-19.35-3.55-29.06-2-19.72-6-39-13.27-57.45-3.06-7.81-8.34-14.27-16.37-17.9-7.56-3.43-15.28-6.55-22.82-10-11.91-5.42-23.32-10.87-37-11.64-8.15-.47-16.63-2.47-24.85-4.64-6.92-1.83-14.15-2.7-21.67-1.31-5.8,1.06-9.78,4.66-14.63,7-1,.49-2.13,1.56-3,.21s0-2.4,1.34-3.15,3.2-1.11,3.56-3.26c-4.12-1.35-6.87,1.43-10.09,2.92-2.47,1.15-3.62,1.24-1.45,4.5a73.84,73.84,0,0,0,7.55,8.91C282.14,169.28,286.84,173,292.39,177.3Zm6.71-49.53c-2.28,2.58-5.22.87-7.58,2.16-1,.56-2.21,1-2.21,2.39,0,1.61,1.27,1.69,2.45,1.83,4.79.55,9.57,1.16,14.35,1.67,2.82.3,5-.89,5.94-3.53.85-2.46-1-4.06-2.71-5.37-2.9-2.17-6.83-2.8-9.26-5.6-3.93-4.53-7.9-7.76-13.7-2.82-.1.09-.32,0-.48.06-2.43.09-5,0-5.75-2.79s2-3.13,3.62-4a37.35,37.35,0,0,1,5.16-1.77,43.26,43.26,0,0,0,10-4.46c3.56-2.36,1.95-5.42.49-7.92-1.78-3.06-3.92-1-5.81.32s-3.33,2.83-5.23,3.77c-10.38,5.12-19.8,11.81-29.63,17.84-2,1.26-4.39,2.26-5.77,5.59C269.09,120.67,283.94,125.78,299.1,127.77ZM266,99.3c-.54-1.54,2-4-.24-4.79-2.43-.89-2.84,2.06-3.93,3.59-3.26,4.59-6.52,9.18-9.88,13.7-.81,1.09-1.7,3-3.5,1.66-1.41-1-1-2.63-.34-4.1a29.61,29.61,0,0,1,5.88-9.14c3.53-3.64,7.36-7.24,7.34-13.06,0-2.68-1.29-4.15-3.51-4.72s-3.12,1.38-3.81,3.1c-4.43,11.09-11.66,20.76-16,31.88-.7,1.79-2.8,3.53-.94,5.34s4.3.78,6.37-.47c4.38-2.65,8.54-5.72,12.63-8.7C260.73,110.18,268.13,107.87,266,99.3ZM234,50.8c-.38-4.7-.39-8.75-3.67-11.76-.77-.71-1.49-1.34-2.59-1.09a1.83,1.83,0,0,0-1.48,2.24c.9,3.77-1.4,6.66-2.45,9.91-1,3-1.69,6-2.36,9.11-.81,3.71,2.23,4.67,4.58,6.11,1.39.86,3,.6,3.45-.64C231.27,59.9,232.69,55,234,50.8Zm-10,25a7.92,7.92,0,0,0-5.69-7.07c-3.7-1.23-3.9,2.59-4.79,4.92s-1.71,5-2.48,7.54,4.41,10.1,6.92,10.25a1.29,1.29,0,0,0,1.43-1C220.94,85.72,222.42,81,224,75.85Zm104.18,44.91a13.88,13.88,0,0,0,5.78-5c1.52-2.07,1.29-4.41.74-6.71-.21-.87-1.15-1-2-1.3-5.86-2-5.84-2-2.29-6.5.7-.88,1.51-1.9.64-3.14a1.09,1.09,0,0,0-1.72-.26c-1.91,2.64-5.38,2.48-7.65,4.44-1,.88-2.47,1.88-1.19,3.21,3.42,3.55,3.85,8.17,4.93,12.56C325.82,119.49,326.35,120.58,328.21,120.76ZM282.82,79.55c0-1.48.38-3.22-1.18-4.07-1.94-1-3.05.7-4.17,1.82-4.4,4.37-4.63,9.67-3.35,15.32.35,1.52-.7,3.84,1.4,4.32,2.32.54,3.25-1.64,4.35-3.36C282.64,89.25,282,84.26,282.82,79.55Zm6.26-11c-.36,2,.19,4.32.68,6.59.26,1.23.78,2.17,2.41,1.63,5.22-1.74,8.19-10.37,4.91-14.85-1-1.32-1.44-4.24-3.67-3.3a7.1,7.1,0,0,0-4.29,5.11A31.79,31.79,0,0,0,289.08,68.57ZM241,98.6c-.2-1.87-.16-3.8-1.94-4.49s-2.55,1.13-3.34,2.29c-1.53,2.25-3,4-6.26,4-3,0-3.55,1.92-1.85,4.37s5.35,2.8,5.71,6.48c.09,1,1.49.4,1.89-.31C237.47,106.91,240.09,103.05,241,98.6Zm-25.82,4.62c.31-3.67-2.09-6.85-5-9.56C208.31,92,206.7,92,205,94.7c-3.71,5.94.47,8.62,4.1,11.75,1.19,1,2,3,4,2.16S215.17,105.81,215.17,103.22Zm68.17-51.78c-.14-3,1.23-5.16-.83-5.9-1.59-.57-2.12,1.71-3.14,2.71-1.18,1.16-2.39,2.3-3.53,3.49-2.2,2.28-2.33,4.7-.27,7.11,1.19,1.37,2.51,2.64,3.8,3.92.74.74,1,2.36,2.63,1.51a3.37,3.37,0,0,0,1.59-2.94A36.94,36.94,0,0,0,283.34,51.44Zm-42.79,83.39c-.9.2-2.13-.16-2.43,1.15-.25,1.07.88,1.19,1.45,1.71,6.91,6.38,14,7.43,22.07,3.23,1-.54,2.42-1,2.18-2.36s-1.75-1.14-2.86-1.26c-2.75-.29-5.23.85-7.84,1.3-2.17.37-5.36,2.4-4.94-2.53.1-1.24-1-1.31-1.72-1.06A9.78,9.78,0,0,1,240.55,134.83Zm2.37-75.4a3.58,3.58,0,0,0-1.85-3.89c-1-.69-2.18-.48-2.48.57C237,61.45,234,66.27,233.2,71.88a1.45,1.45,0,0,0,.67,1.68c.77.38,1.22-.21,1.7-.64C239.82,69.12,240.19,63.28,242.92,59.43ZM241,34.52c-1.19-2.67-.54-7.06-4.52-7.19-3.55-.12-3.6,3.87-3.72,6.44-.15,3.17,1.92,6.19,4.86,6.49C241.16,40.61,239.83,36.6,241,34.52Zm-40.19,81.34c1.21-1.79,6.3.7,5.81-4-.29-2.8-2.85-6.35-5.52-6-3.1.43-3.72,4.55-4.24,7.59C196.46,115.86,198.3,116,200.83,115.86ZM267,77.36a40.52,40.52,0,0,0-1.24-7c-.64-1.83-1.62-4.77-4.26-3.64a4.54,4.54,0,0,0-2.16,6.71c1.2,2.1,3.15,3.79,4.81,5.61.54.59,1.18,1.27,2.12.78S267,78.48,267,77.36Zm36.38-6.16c-1.85,2.09-4,4.33-5.91,6.74a4.35,4.35,0,0,0-.12,5.58c1.5,2,3.5,1.51,4.37-.49A91,91,0,0,0,305,73.14C305.28,72.28,305,71.51,303.39,71.2ZM249,70.72c-.3-2.19-.34-3.8-1.76-4.68-.85-.52-1.52.07-1.88.95-1.79,4.27-3.6,8.52-5.37,12.8a1.63,1.63,0,0,0,.44,2.2,1.38,1.38,0,0,0,1.35-.23C244.32,78,246.8,74.1,249,70.72Zm8.91-10.61c-.52-2.22-1-4.72-2.65-6.54-.71-.78-2.16.19-3,1.1-2,2.25-1.23,4.67-.14,6.93.71,1.47,1,4.08,3.43,3.33C257.51,64.35,257.48,62.06,257.9,60.11Zm85.79,72.11c-3.88-2.43-7-4.47-10.22-6.37-1.35-.81-3-1-4,.47s-.12,2.94,1,4a5.77,5.77,0,0,0,3.93,1.89C337.16,132.24,339.94,132.22,343.69,132.22ZM314.37,72.48a6.82,6.82,0,0,0-1.18-1.77,1.4,1.4,0,0,0-2.11.59c-1.67,2.87-3.44,5.73-4,9.09-.18,1.11-.31,2.45,1.07,3s2.46-.18,3.48-1.21C314.45,79.37,311.58,75.23,314.37,72.48ZM253.7,79.07a3.89,3.89,0,0,0-.67-1.33c-.22-.23-1.21-.19-1.3,0-1.92,4.09-6.72,6-8,10.59a1.78,1.78,0,0,0,.57,2.21,1.55,1.55,0,0,0,1.36,0A19.85,19.85,0,0,0,253.7,79.07ZM203.4,126c2.94,1.66,4.46-.06,6.21-.23,2.08-.19,4-1.62,6.25-.56.94.45,1.71,1.94,3,.7a2.79,2.79,0,0,0,.4-2.81c-.42-1.62-1.76-1.84-3.11-1.88C211.48,121.1,207.67,123,203.4,126Zm12.74,11.33c4.47,1.24,8.15,2.61,12.18,2.35.84,0,1.78,0,2.14-.91.55-1.36-.77-1.4-1.46-2C224.89,133.16,220.88,132.84,216.14,137.32Zm50.52-3.8c4.25.8,8,1.31,11.75.57,1.2-.24,3.08.38,2.95-1.59-.11-1.6-1.81-1.67-3.15-1.65-3.35.06-6.5,2-10.12.38-1.8-.79-5.39.35-5.18,2.17C263.26,136.47,265.68,133.19,266.66,133.52Zm46.57-46.47c-.1-.87-.37-2.32-1.63-1.41-2.52,1.81-5.73,2.9-7.32,5.78-1,1.79-.31,3.33,2,3.45C307.87,95,313.28,88.85,313.23,87.05ZM206.11,435.12c1.25-2.49,5.68.12,6.38-3.48.24-1.22-1.82-3.51-2.78-2.29-1.74,2.23-6.66-1.08-6.21,3.89C203.61,434.56,204.3,435.37,206.11,435.12ZM249.86,47c-1.09-1.41-.6-4.32-3.27-4.76-2.21-.35-2.6,1.75-2.71,3.42a4.67,4.67,0,0,0,3.7,5.17C249.32,51.16,249.25,48.75,249.86,47Zm67.31,10.4c-.14-1.05.37-3.45-1.25-2.86-2.48.92-3.75,3.56-3.88,6.39-.05,1.29-.24,3.21,1.63,2.92C317.2,63.28,316.77,60.08,317.17,57.38ZM284.72,95.66l.81,1a68.84,68.84,0,0,0,6.31-4.46c1.37-1.19,1.22-3,.47-4.64-.25-.56-.46-1.36-1.37-1.1-1.49.44-1.78,1.82-2.34,3C287.56,91.65,286.58,93.92,284.72,95.66Zm-85.1,358.82c-1.24.1-3.24-.2-2.94,1.55.37,2.17,3,2.14,4.67,2.82,1.25.51,2.14-.73,2-2C203.13,454.56,201.14,454.84,199.62,454.48ZM272,104c-.15-1.67-.83-3.07-2.57-3.16s-1.95,1.55-2.26,2.8c-.43,1.71.62,2.44,2.13,2.59S271.74,105.51,272,104Zm-44.77,18.79c1.72.12,1.83-1.16,2.05-2.25s.11-2.43-1.51-2.39a2.81,2.81,0,0,0-2.95,2.12C224.59,121.9,226.19,122.27,227.25,122.83Z" transform="translate(-4.9 -1)"/><path d="M147.07,757.89c.51-26.72,10.84-50,25.57-71.68a59.33,59.33,0,0,1,4.68-6.48c2.63-2.91,3-6.08,2.17-9.74a47.44,47.44,0,0,0-13.89-24.36c-3-2.89-6.34-5.39-9.53-8-5.74-4.8-5.24-9.1,1.71-11.72,21.95-8.29,37.14-24,48.88-43.7,7.15-12,13.1-25,23.35-34.71,12.83-12.22,27.06-22.4,45.93-22.39a32.18,32.18,0,0,1,30,21.08c1.52,4.09,2.91,4.5,6.15,1.43,9.67-9.14,20.61-16.41,33.55-20,14.46-4,28.46-3.95,40.34,7,5.29,4.85,7.56,11.7,10.48,18,3.78,8.14,6.94,16.56,10.6,24.76,8.94,20,25.12,32.74,43.68,43,8,4.39,8.15,5.94,1.07,12-16.55,14.06-31.9,29.21-44.09,47.36-8.52,12.68-14.43,26.6-20.13,40.64-6.59,16.23-13.71,32.13-25.13,45.72s-25.22,23-42.54,26.07c-7.59,1.35-12.28,4.74-16.59,10.75-14.17,19.79-32.8,33.51-57,38.34-43.05,8.6-82.5-15.08-95.08-54.67C148.29,777.18,146.37,767.75,147.07,757.89Zm104-171c-10.4.67-20.53,3.53-29.33,10.09-5,3.75-5,6.4-.76,11a13.66,13.66,0,0,0,4.52,3c5.78,2.74,11.4,1.32,16.93-.74,2.22-.82,3.66-.75,4.84,1.66,5.46,11.15,13.91,15.39,26,13.36a49.88,49.88,0,0,0,19.27-7.81c2.59-1.71,4-1.53,6.1,1.08,4.9,6.13,11.64,9.16,19.47,9.8,11.45.94,20.74-3.72,28.91-11.13,2.2-2,3.46-2.37,5.4.46,7.26,10.63,16,13,27.68,8.09,3.24-1.36,3.95-2.82,2.16-6-4-7.15-8.45-14-14.22-19.83-4.21-4.26-8.69-8.22-14.68-10-13.26-4-26.19-2.41-38.2,3.73-15,7.7-29.24,7.4-43.57-1.41C265.48,588.55,258.54,587.43,251.05,586.87ZM276.27,799c4.69-.34,9.28-2.84,13.3-6.55,7.33-6.77,11.69-15.36,14.34-24.74,4.19-14.84,6.49-30.15,11.59-44.79,7.57-21.71,17.72-41.6,36.08-56.35a33,33,0,0,0,5.2-5.37,7.52,7.52,0,0,0,.61-8.89c-1.7-2.72-4.74-1.74-7.32-1.12-9.51,2.32-17.2,7.76-24.21,14.31-13.28,12.41-19.89,28.91-27.22,44.92-8.92,19.48-16.3,39.69-28.48,57.56a42.22,42.22,0,0,0-6.28,15.08C262.19,791,268.11,799.16,276.27,799ZM173.84,747.5c-.4,5.73-.56,11.37,2.88,16.41a10.07,10.07,0,0,0,16.56.6,20.91,20.91,0,0,0,4.5-11.94c.46-13.78,3.7-27,8.69-39.75,8.1-20.71,20.94-38.07,37.52-52.79,2.48-2.2,6.74-5,4.7-8.35-2.44-4-7.1-1.35-10.36.23-13.4,6.49-24.05,16.53-34,27.38C186.71,698.64,175.26,720.85,173.84,747.5ZM276.32,533c-13.23,0-23.9,6.31-27.3,15.73-.84,2.32-2.2,4.62,0,6.95s5.07,2,7.88,1.34a13,13,0,0,0,2.84-.93c6.11-3.22,11.46-2.55,17,1.89,5.73,4.61,13.79,2.54,18.2-3.86,3.45-5,1.44-13.51-4.26-17.06C286.11,534.2,281.11,532.48,276.32,533Zm81.83.31c-8.88.48-17,2.85-23.3,9.61a7.47,7.47,0,0,0-1.67,7.88c.94,2.86,3.49,3.8,6.25,4.26,2.59.44,5-.45,7.32-1.21a13.88,13.88,0,0,1,13.62,2.26c4.19,3.2,8.72,4,13.51,1.29,3.7-2.1,6.27-4.83,5.74-9.58-.61-5.52-2.65-9.88-8.29-11.88A39,39,0,0,0,358.15,533.3Z" transform="translate(-4.9 -1)"/><path d="M469.73,762.17a11.4,11.4,0,0,0,3.11-8.78c-.42-8.45.57-16.92-1-25.38-1.25-6.58,1-13.22.82-19.86-.27-12.52-1.7-25.13-.67-37.54,1.71-20.77-.31-41.57,1.58-62.31.87-9.42.1-19,.34-28.45.38-15.27-.2-30.54,1.12-45.82.88-10.08.33-20.28.33-30.44,0-26.92.09-53.86-.18-80.78-.09-8.64-.72-17.26-.05-25.92.27-3.47,1-5,4.72-5.32,8.67-.64,8.66-.8,9,8.09.45,10.55,1.05,10.86,11.52,11.29,7.81.32,15.55-1.14,23.32-.56a160.33,160.33,0,0,0,19.11.11,1.83,1.83,0,0,1,2,1.54c-4.37,3.12-9.84,1.74-14.13,1.43a90.1,90.1,0,0,0-19.74.91c-5,.72-10,.8-14.93,1.12-5.78.38-7,1.43-7.05,7.14-.06,9.16-.09,18.33,0,27.49.11,16-.12,31.95.56,47.9,1.82,42,.5,83.92.7,125.88.1,20.22-1.27,40.46-1.51,60.69-.18,14.81.4,29.64.6,44.45,0,2.83,0,5.67-.21,8.49-.51,7,.63,13.41,6.22,18.46.84-2.68.21-7.52,5.83-6.92,1.45,2.66-3.85,4.4-2,7,1.44,2,5,.44,7.16,2.73-2-3-5.43-6.37-1.43-8.75,2.41-1.44,2.77,3.14,4,5.71,1.11-2.68,2.12-5,3-7.35.17-.47-.57-1.6.63-1.19,5.07,1.69,5.55-3.24,6.62-5.43,7.16-14.63,16.21-28.21,23.45-42.77,5.77-11.61,13.09-22.38,18.27-34.32,1.59-3.66.81-4.58-3-4.74-8.66-.37-17.28,1.57-25.94.44-1.65-.21-3.32-.31-5-.59-2.07-.36-4.23-1-3.67-3.7.65-3,3.06-1.87,4.87-1.4,9.39,2.46,18.77,1.92,28.18.14,1.29-.25,2.79-.84,3.9-.44,6.23,2.22,8.19-2.31,10.59-6.34,7.77-13.08,14.9-26.52,22.74-39.57,6.06-10.09,12.51-20,18.07-30.37,2-3.64,4.16-7.15,6.41-10.61,2.85-4.38,2.26-8.16,0-13-4.44-9.4-7.73-19.34-11.39-29.1-.68-1.81-.39-4.3-3.1-4.42s-3.23,2.28-3.55,4.13c-.7,4.06-4.43,6-6.09,9.46-3.3,6.92-8.54,13-11.43,20-3.39,8.14-9.84,14.07-13.26,22.26-2.36,5.66-7.12,10.92-10.57,16.55-7,11.45-14.7,22.47-21.24,34.25-2.43,4.38-4.62,9.19-8.39,12.77a6.47,6.47,0,0,0-1.75,4c-.2,1.13-.51,2.48-2.08,2.26s-2.09-1.51-2.07-3a3.09,3.09,0,0,1,.47-1.89c4.36-4.71,6.14-11.19,10.89-15.65a21.43,21.43,0,0,0,4.21-5.46c5.09-9.41,10.21-18.81,17.12-27.13,2.38-2.85,3.85-6.48,5.56-9.85,3.1-6.15,8.26-11.24,10.75-17.41,1.78-4.39,4.55-8.14,6.65-12.15s4.94-8.18,6.93-12.51c2.24-4.87,6.62-8.59,7.47-14.18.5-3.3,4-4.6,4.94-7.9,1.84-6.68,5.66-12.5,9.24-18.39.45-.74,1.09-1.42,2-1a2.07,2.07,0,0,1,.89,1.55,15.27,15.27,0,0,1-.67,5.91c-2,6-1,11.46,1.62,17.21,3.18,6.9,5.3,14.28,7.86,21.45a21.59,21.59,0,0,0,.79,2.87c1.07,2,2.07,4.73,4.68,4.66s3.53-2.48,4.71-4.61c5.8-10.43,11.81-20.75,17.77-31.09,8.34-14.52,16.36-29.2,22.72-44.73,1.72-4.21,4.07-8.15,5.94-12.29,1.08-2.4,1.3-5.43-.75-7-3.43-2.63-3.34-5.91-1.88-8.81s4.32-1.33,6.66-.46c1,.36,2,.54,2.41-.8,2-6.38,5.71-12,7.73-18.42,1.67-5.3-1.74-6.09-5-7.2-3.55-1.23-5.84.58-6.69,4-.64,2.58-.78,5.28-1.35,7.88-.26,1.22-.5,3.1-2,3.07-1.71,0-2.22-1.92-2.33-3.34a73,73,0,0,1-.13-8.5c.09-2.5-.86-3.35-3.43-3.63-7.25-.8-14.43-2.13-21.68-3-3.75-.44-7.55,1.23-11.32.39-12.5-2.79-25.25-.77-37.88-1.78-9.15-.73-18.49-.79-27.75-1.26-3.19-.16-6.26-.06-10.56-1.51,4.8-1.44,8.63-.17,12.23-.32,12.79-.56,25.63-.22,38.46-.12,1.82,0,4.12-.94,5.15,1.73.31.81,1.07.74,1.65.33,6-4.27,12.6-1.86,18.67-1,18.15,2.65,36.24.07,54.35.38a4.32,4.32,0,0,0,3.73-1.93c2.31-2.89,5-2.75,7,.16,2.42,3.48,5.72,3.91,9.52,4.32,2.7.29,7.42-.21,7.62,2.77.24,3.49-4.43.89-6.51,2.32a2.46,2.46,0,0,1-1,.23c-11.13,2.23-12.2,3.42-9.52,14.67,4,17,6.78,34.23,11,51.1,3.79,15.09,7.39,30.25,11.19,45.34,2.38,9.42,4.66,19,6.4,28.65s5,18.82,7.82,28.15c3.5,11.6,6.8,23.29,11,34.65,6.1,16.68,9.64,34.15,15.91,50.72,2.45,6.47,5.88,13.39,14.88,13.13,3.5-.1,5.31,1.58,5.31,5,0,3.61-2.67,3-5,3-2.52,0-2.81,1.64-1.79,3.36a7,7,0,0,0,3.21,3c5.05,1.73,4,5.77,4,9.48a2,2,0,0,1-1.66,2.15,2,2,0,0,1-2.37-1.37c-1.84-5.27-6.24-5.83-11-7.62-15-5.72-30.56-10-45.76-15.2-10.91-3.74-22.31-6.05-33.55-8.81-2.62-.64-3.33,1.77-3.79,3.72-1.46,6-1,12.24-1.41,18.37-1.13,17.27-.32,34.6-1.17,51.85-.53,10.65,1.17,21.23-.11,31.87-.46,3.83.73,7.63,6.19,5.74.46,1.94-.61,2.18-1.61,2-5.2-.64-5.4,3-5,6.36.8,7.57,2.54,15,2.4,22.72-.06,3.51,1.6,5.38,5.39,5.74,5.41.53,10.65,1.38,16.18.09a21.7,21.7,0,0,1,11.38.64c6.39,2.06,12.78-.44,19.25-.09,5.32.28,10.83.45,16.22.65,13.74.51,27.51.46,41.22,1.31,13.13.81,26.4.76,39.37,3.93,9.09,2.22,11.12.2,11.21-9.43.19-22.24.84-44.49.63-66.73-.23-23.58,1.27-47.11,1.36-70.69.07-17.87.94-35.78,1.6-53.66.48-13.05,1.85-26.15,2.36-39.17.42-10.65.1-21.51-.12-32.27-.16-7.94-.54-15.92,0-23.82.59-8.12-.51-16.14-.57-24.2-.09-11.33-2.92-22.58-2.41-34,1-21.35-3.18-42.39-3.44-63.66,0-.66,0-1.33,0-2-.1-2.61.1-5.76,3.25-5.68,2.88.07,1.85,3.32,2,5.31.9,9.4,1.48,18.84,2.69,28.19,1.17,9-.31,17.94.27,26.94,1.1,16.92.27,33.89.89,50.87.55,15.1.71,30.32-.06,45.55-1.24,24.69-1.27,49.46-1.1,74.19.15,20.63-2.16,41.15-2.31,61.68-.14,19.91-1.36,39.8-.77,59.73.39,13.11-.29,26.26-.13,39.38.12,9.8.76,19.59,1.28,29.38.32,6.08,5,9.85,10.88,8.05,5-1.52,6.3,1,6.26,4.73,0,4.37,2,8.39,1.43,12.85-.39,3.28-1.68,4.55-4.75,3.91-2.37-.5-3.91-.14-5.26,2.2-2.59,4.49-7.1,3.18-10.76,2.32-15.7-3.71-32-4.51-47.47-8.63-9.76-2.6-20.09-2.23-29.43-6.42a5.09,5.09,0,0,0-2.44-.39c-9.34.81-18.4-1.61-27.61-2.3-22.17-1.65-44.3-3.91-66.5-4.83-17.28-.71-34.51-2.16-51.69-3.68-20.89-1.86-41.79-2.28-62.69-3.36-10.07-.52-20.29-1-30.31-1.25-10.49-.23-21-1.29-31.58-.74-6.86.36-7,.72-7.15,7.17-.11,5.21,1.33,10.23,1.17,15.39a13,13,0,0,1-.58,4.39c-.59,1.48-1.37,3.27-3.34,3.34a3.59,3.59,0,0,1-3.56-3c-1.13-4.62-3.5-6.61-8.63-6.68-3.54,0-4.95-3.65-4.93-7.42.1-16.31,0-32.61.07-48.92,0-4.21.32-8.36-5.94-7.66a2,2,0,0,1-2.39-2,3.8,3.8,0,0,1,3.47-3.7,6.05,6.05,0,0,0,5.44-5c.71-2.78.06-4.15-3-4.16-6.74,0-13.47-.12-20.21-.19-1.27,0-2.77.52-3.29-1.33-.17-.6-.64-1.41.12-1.74a4.22,4.22,0,0,1,3.36.24c6.95,2.72.83-4.29,3.52-4.77-1.48-4.57,2-3.54,4.36-4,2.57-.44,5.55.12,7.3-2.57a2.72,2.72,0,0,1,3.12-.91C470.38,759.43,468.09,761.16,469.73,762.17ZM681.64,712h.4c0-9.49-.06-19,0-28.47,0-3-1.11-4.26-4.18-4.94-5.19-1.16-10.34,0-15.57-.58-11-1.29-22.19-1-33.26-1.93A265.48,265.48,0,0,0,564.13,679c-1.63.27-2,1.27-2.75,2.42-5.08,8.29-10.41,16.43-15.33,24.81-3.58,6.09-7.45,12-11.23,17.94-5,7.9-9.21,16.29-14.44,24-1.26,1.87.14,2.79.87,3.91s2,.92,3,0c2.06-1.84,3.62-1.18,4.59,1.06.33.75-.59,2.13,1.2,1.95,1.3-.13,2.1-.65,2.06-2.22-.06-2.37.7-3.6,3.18-1.81,1.06.77,1.78-.32,2.65-.69,1.28-.55,2.9-1.4,1.94,1.37-.43,1.26.31,1.64,1.2,1,3.15-2.28,2.49.8,2.54,2,.2,5-.06,10,.3,15,.27,3.91-1.29,4.79-4.9,4.7-9.16-.22-18.32-.07-27.48-.06-3.52,0-8.48,4.19-8.86,7.54a3.23,3.23,0,0,0,2.4,3.41,14.66,14.66,0,0,0,4.39.76c10.11.52,20.21,1.43,30.31,1.39,37.91-.16,75.8.07,113.69,1.36,6.62.22,8.32-1.81,7.06-8.37-.75-3.86-.25-7.64-.13-11.45,0-1.18.64-2.51,2-2.33,1.12.15,1.12,1.48,1.13,2.49q0,4.49,0,9c0,10.58,0,10.4,10.26,11.59,3.9.45,5.5-.59,5.65-4.56.6-15.9-.39-31.84,1.95-47.74C682.65,729.1,681.64,720.46,681.64,712ZM696.32,465.4c-.65,3.63-1.35,6-1.47,8.49-.85,16.55-.32,33.14-1.51,49.7-.73,10.22-.46,20.5-.87,30.75-.69,17.26-1.43,34.52-2.39,51.77-.64,11.45-.73,22.92-1.8,34.36-.91,9.74-.94,19.56-1.44,29.34-.16,3.31,1.29,5.35,4.54,5.17,13.72-.76,27.17,1.89,40.73,3.06,7.88.67,15.77,1.61,23.58,2.9,3.6.6,3.91-.27,3.3-3.46-2.89-15.3-9.09-29.49-14.5-43.94-1-2.57-3.18-4.66-3.5-7.59-1-8.61-6.59-16.08-6-25.06a1.56,1.56,0,0,0-.7-1.23c-3.2-1.64-2.81-4.4-2.71-7.34a30.19,30.19,0,0,0-.9-7.9c-3.08-12.89-6.63-25.67-9.37-38.63-2-9.58-3.28-19.31-6.79-28.55a69.16,69.16,0,0,1-2.78-9.53c-3.09-13.82-6.49-27.57-9.78-41.35-2.09,4.74,1.45,9.39-.91,14.44C697,476.56,699.86,470.77,696.32,465.4Zm-7.19,52.08h.57c0-3.66-.1-7.32,0-11,.61-19.33,1.28-38.66,1.85-58,0-1.44,1-3.76-1.43-4.07-1.93-.24-2.66,1.64-3.15,3.3a104.79,104.79,0,0,1-5.58,14.9c-3.19,6.9-5.45,13.91-4.73,21.85.34,3.86,1.24,8.25-1.45,12.05-1.18,1.68-2.25,3-3.39.42-1.81-4.11-3.09-2.92-5.41-.31A25.84,25.84,0,0,0,663,502c-2.91,5.41-5.68,10.9-8.75,16.21-7.9,13.65-16,27.16-23.85,40.86-2.27,4-3.41,8.49-.9,12.89,3,5.32,4.56,11.24,7.46,16.69,7.48,14.06,14.18,28.52,22.83,42,5.91,9.18,10.34,19.29,17.07,28,1.82,2.35,3.81,4.8,2.84,7.51-.86,2.38-3.85.62-5.87.94a4.7,4.7,0,0,0-3.12,1.31c-.59.67-1.06,1.5-.23,2.15,3.14,2.5,6.94,1.95,10.46,1.62,3-.28,2.95-3.3,3.08-5.51.55-9.74,1.4-19.46,2.17-29.16,1.25-15.69,2.21-31.48,2.72-47.22C689.7,566,689.13,541.72,689.13,517.48ZM661.6,808c2.14,4.74,1.85,9.69,2.13,14.58.33,5.54,1,6,6,4.29,2.59-.86,4.9-.08,7.29.55,3.38.88,5.08-.1,4.73-3.91-.84-9.19-3.53-18.2-2.31-27.59.34-2.62-1.92-3-4-3.36-4.85-.73-9.55,1.09-14.42.55-19.6-2.17-39.3-2.23-59-2.36-19.29-.11-38.58.05-57.87-.17-14.09-.16-28.16-1.19-42.25-.23-5,.34-10.52,5.6-10.53,10.58,0,6.28.32,12.56.62,18.83.19,4.07,1.35,5.22,4.87,5.73a57.43,57.43,0,0,0,23.55-1.37c6.8-1.86,13.78,1,20.85-1.18,4.33-1.32,9.56.64,14.38.54,9.28-.19,18.48.83,27.88,0,6.95-.62,14.37,0,21.57.11a89.84,89.84,0,0,1,10,.2c5.36.66,10.62,2.84,16.05.13.85-.42,2.34,0,3.35.43,2.19,1,4.48,1,6.78,1.41,4.66.75,9.56-.79,13.85.51,5.82,1.77,5.8-1.92,5.39-5C659.83,816.72,661.43,812.48,661.6,808Zm4.49-151.92a13.92,13.92,0,0,0-1.14-6.84c-4.77-11.17-11.84-21.07-17.37-31.83-6.31-12.29-13.42-24.16-18-37.3a28.81,28.81,0,0,0-2.48-4.85c-1.8-3.09-3.45-3-5.43,0-3.42,5.26-6.81,10.51-9.89,16-5.22,9.28-11,18.26-16.3,27.5-4.48,7.78-7.87,16.15-13.63,23.24a19.34,19.34,0,0,0-4,9c-.41,2.44.34,2.9,2.34,3.14,4.58.53,9.24,2,13.72,1.58,9.21-.89,17.18,4.9,26.55,3.66,12.74-1.68,25.42,1.8,38.18,2.15C665.29,661.76,665.89,661.49,666.09,656.12ZM630,670.94c1.83,0,3.66-.07,5.48,0,2.64.13,3.92-1,4.23-3.66.37-3.19-2.08-2.51-3.63-2.69-18.5-2.09-36.88-5.25-55.56-5.94-4.87-.18-8.23.46-10.95,4.58-1.29,2-3.42,3.53-2.09,6.09,1.24,2.4,3.8,1.59,5.87,1.62C592.23,671.23,611.11,668.37,630,670.94ZM494,774.27c-1.44.27-3.48-.26-3.65,2.24-.12,1.78.75,3,2.59,2.93a4.19,4.19,0,0,0,3.89-3.34C497.33,774.09,495.3,774.49,494,774.27Zm261.49-83.42c-1.62-.75-3.43-.61-3.67-3-.09-.91-3.09-1.78-4.88-.68-1,.63-1.06,2.12,0,2.42C749.5,690.39,751.84,693.38,755.46,690.85Z" transform="translate(-4.9 -1)"/><path d="M604.75,367.47c11,0,21.47-.23,31.92.07a158.28,158.28,0,0,0,28.78-1.69,4.49,4.49,0,0,0,2.91-1.69c9.92-11.61,19.95-23.13,29.7-34.88,2.5-3,3.39-6.84,4.08-11,1.85-11.07-3.92-18-10.8-25.29-5.64-6-10.09-13-15.07-19.64-2.07-2.74,0-3.32,1.94-3.07,4.12.51,8.3.24,12.39,1.33,1.94.52,4.64,1.19,6-.85,1.49-2.21-1.18-3.43-2.2-5q-2.59-4-5.26-7.89c-4.58-6.75-10.09-10.83-19.11-10.83-17.95,0-36-.52-53.82-2.21-12.24-1.15-24.51-1.32-36.75-2.25-8.14-.62-16.48,1.27-24.72,2.06-1.39.13-3.09,1.37-3.87-.69-.52-1.38-.93-2.7-2.6-2.16-1.34.43-.9,2-1.08,3.07-2.11,12.46-1.86,25.16-3.88,37.66-2.2,13.58-4,27.23-5.65,40.9-1.29,10.78-2,21.63-3.14,33.77,5-3.59,5.47-9.38,10.35-11.53a44.3,44.3,0,0,1-7.44,13.3c-1.92,2.39-1.5,3.89,1.61,4.46a36.44,36.44,0,0,1,9.2,2.57c-5.11,0-10.22.16-15.32-.07-2.38-.11-2-2.39-1.82-4,2.09-17.77,2.69-35.69,5.69-53.4A298.16,298.16,0,0,0,541,275.57c.86-15.38,3.23-30.67,4.75-46,2.35-23.85,4.59-47.74,3.59-71.74-.37-8.93-.82-17.95-3.44-26.65-.74-2.47-.77-4,3-3.53,17.62,2.1,35.17,4.51,52.93,5.79,26.79,1.92,53.54.59,80.29,1.33,2.38.06,2.38,0,8.33-5.34.87,2-1,4.37,1,6.11.54.47.06,1.33-.61,1.6-1.94.76-4.3-.38-6.06,1.62-1.21,1.38-1.35,3.94-4,4-1.43-1.76,2.25-3.55.12-4.84-1.28-.77-3.22-.51-4.86-.57-14.64-.55-29.29,0-43.92-.88-14.06-.84-28.2-.79-42.22-2-11.75-1-23.52-1.8-35.27-2.74-4-.33-4.16,1.17-3.88,4,1.7,16.6,1.34,33.26,1.3,49.9,0,12.66-2.4,25.1-3.56,37.65-1,11.42-.3,12.56,11.14,12.77,3.91.07,7.79-.06,11.17-3,2.26-1.94,5.64-1.37,8.19-.62,9.93,2.9,20.11,2.09,30.2,2.65,4.56.26,9.19,1.9,13.67-.47.29-.15.83-.34.94-.22,5.3,5.57,12.28,2.27,18.4,3.29,6.35,1.05,12.95.65,19.43.87,1.5.05,3,.09,4.5,0,2.11-.14,6,1.2,3.08-3.51a1.87,1.87,0,0,1,1.08-2.5c1.55-.79,2.84.47,3.46,1.29,4.46,5.83,11.1,6.13,17.42,7,4.6.63,9.81,1.58,10.08-6.5-1.08,8.92,5.76,7,9.62,7.56,4.44.66,9.23-.23,13.74-.29,5-.06,10.26,1.64,15.52,1.72,5.64.07,11.29.16,16.92.32a8.24,8.24,0,0,0,7-3c2-2.48,3.28-1.73,3.87,1.08.46,2.18,1.93,2.91,4,3,15.23.78,30.51,1.07,45.68,2.54,13.49,1.31,27.16.53,40.52,3.34a8.18,8.18,0,0,0,1.49.15c2.09,0,3.58,3.78,5.63,1.68s1.94-5.25,2-8c.18-8,0-16,.09-24,.14-23.83.2-47.65.57-71.48.07-4.52-1.41-6.23-5.81-6.49-13.66-.82-27.33,0-41-.45-24.93-.77-49.87-1.57-74.78-2.75-5.8-.27-11.59-.84-17.41-.95-3.63-.07-5.25,1.19-5,4.94a31.91,31.91,0,0,1-.39,7.78c-1.8-4.55-.49-9.81-4.14-13.93-.85-1,1.8-1.34,3-1.33,7.49.08,15-.32,22.45.54,15.42,1.79,30.85,1.88,46.32,1.92,13.46,0,26.93,1.36,40.37,1,10.32-.28,20.56,1,30.87.53,4-.17,5.79-1,5.48-5.3-.19-2.78.49-5.62.83-8.42.1-.8.19-1.83,1.26-1.85,1.37,0,1.4,1.18,1.48,2.14a10,10,0,0,1,0,3c-2.81,12.69-.92,25.58-1.64,38.36-.9,15.8-.63,31.63-.78,47.45-.31,33.65,2,67.22,2.72,100.84.35,16.51,1.79,33.12,3,49.67.11,1.55.79,3.86-1.6,4s-2.58-2-2.45-4c.91-13.46-.28-26.91-1-40.3-.69-12.42,0-24.78-.43-37.14-.32-9.26.22-18.62-1.4-27.85-.4-2.31-1.68-2.93-3.64-3.35-7.35-1.57-14.83-1.84-22.29-2.14-24.54-1-49.19-.85-73.6-3.18-9.5-.91-11.13,5.76-16,9.54a3.81,3.81,0,0,0-.91,1.18c-1.05,1.89-4.73,2.95-3.11,5.51,1.71,2.73,5.12,1.52,7.88,1.26,1.35-.13,3-2.25,3.91-.44s-1.42,2.58-2.68,3.52c-.54.39-1.51.67-1.6,1.13-1.5,7.72-9.7,9.75-13.35,15.9s-9,11-13.66,16.35c-1.25,1.42-2.36,2.71-2.39,4.74-.31,18.9-.51,37.79,1.39,56.64.33,3.2,1.61,4,4.79,4,30.7.34,61.38,0,92.08-.7,13.77-.3,27.52-.31,41.22-1.86,1.36-.15,3.37-.83,3.47,1.51.08,2-1.73,2-3.26,2.19a229.58,229.58,0,0,1-27.88,1.44c-34.82-.13-69.65-.07-104.48,0-2.09,0-4.39-.61-6.08,1.36a1.37,1.37,0,0,1-1.79.38c-6.83-4.08-14.24-1.43-21.35-2.07-5.43-.49-10.93-.63-16.3-1.41-6.67-1-13.31-.24-19.92-.73-20-1.47-40.11-1-60.17-1.53A3.43,3.43,0,0,1,604.75,367.47Zm119.52-34.81c0-5.48.19-9.15-.06-12.79-.16-2.32,1.42-6.21-1.17-6.61-2.83-.43-4.37,3.46-6.1,5.82a3.43,3.43,0,0,0-.34,1.94c0,2.52-1.45,3-3.58,2.94-6.57-.12-8.74,2-8.73,8.8,0,7.3.6,14.63.14,21.89-1,15.92-1,16,15,16.24,4.31.07,5.8-1.26,5.87-5.66C725.45,353.74,723.67,342.33,724.27,332.66Zm-21.13-69.73c-.15,7.47.36,9.61,3.19,9.58,6.18-.06,12.91,2.82,18.35-2.58.58-.57,1.09-.65,1.65,0,3.89,4.2,7.87,1.63,10.7-.83,5.07-4.41,9.42-9.66,14-14.62,1.6-1.73,1.33-3-1.25-3.18a15,15,0,0,0-3.48,0c-6.92,1.13-14.16-2.93-20.89,1.25-5.31-4.17-11.84-1.61-17.63-3.2-3.93-1.07-5.64.37-5.24,4.49C702.88,257.08,703,260.4,703.14,262.93Zm-1.59,69.84c-2.49,2.15-4.67,3.26-6.1,5.38Q687,350.71,678.37,363.2c-1.88,2.72-1.25,4.35,1.91,4.82a101.79,101.79,0,0,0,17.35,1.31c2,0,3.28-.95,3.23-2.95C700.57,355.5,702.81,344.67,701.55,332.77Zm-.67-49c.07-9.09,0-9.16-7.92-9.1a67,67,0,0,0-7,.2c-2.41.27-3.4,2.05-1.89,3.84,4.73,5.62,7.81,12.55,13.71,17.23.87.68,1.33,2.22,2.72,1.62s1.32-2.25,1.24-3.52C701.54,290.22,701.13,286.44,700.88,283.73Zm2.28,11.13c-1.36,4.33,1.51,7.92,4.25,11.49,1.33,1.75,3,3.7,5.25,1.41,1.71-1.73,4.63-3.71.84-6.31-1.14-.79-.92-1.73-1-3-.13-5.85-3.59-10.48-6.19-15.39a2.05,2.05,0,0,0-2.59-1c-.93.38-.79,1.46-.63,2.17C703.91,287.6,702.88,290.88,703.16,294.86Zm10.52-19.48c-1.95.58-4.51-.88-5.45,1.54-.8,2.05.88,3.8,2.12,5.32,1.57,1.93,3.26,3.72,4.66,5.82s3.27,2.8,5.1.11c.94-1.36,2.31-2.42,3.26-3.77,2.63-3.79,1.06-7.56-3.39-8.24C717.85,275.83,715.69,275.63,713.68,275.38ZM694.84,249c-1.36.13-3.24-.78-4.13.55-1.11,1.67.82,3,1.53,4.32,1.42,2.77,3.13,5.4,4.71,8.09a2.3,2.3,0,0,0,2.42,1.36c1.23-.24,1.28-1.42,1.28-2.36,0-2.14-.39-4.29-.21-6.4C700.81,250.32,699.47,248.11,694.84,249Zm33.51,45.41a6.51,6.51,0,0,0,1.93-1.19c3.48-4.2,6.88-8.46,10.28-12.73a1.29,1.29,0,0,0,0-1.8c-.82-.83-1.47-.2-2.11.34-4.33,3.65-7.43,8.34-10.88,12.74C726.69,292.81,726.38,293.79,728.35,294.37ZM706,316.83a4.5,4.5,0,0,0,1.87-3.54c0-1.07-.6-2-1.76-1.91-1.68.1-2.07,1.38-1.94,2.8C704.25,315.24,704.1,316.55,706,316.83Z" transform="translate(-4.9 -1)"/><path d="M53.2,842.61c-17.52.15-29.84-12.26-30.29-29.4-.26-9.67,3.19-17.89,8.11-25.74,4.72-7.53,4.3-11.46-2.36-17.57-5-4.58-5-4.57,1.26-7.75,7.8-4,12.57-10.77,16.63-18.14a35.7,35.7,0,0,1,14.39-14.83c7.86-4.25,13.62-3.28,19.12,3.88,1.71,2.23,2.81,2,4.78.41,4.19-3.35,8.7-6.17,14.32-6.5,7.3-.42,11.67,1.7,14.14,8.5,4,11,9.38,20.55,20.26,26.1,2.63,1.34,1.82,3.33,0,4.76-12.69,9.86-19.84,23.33-25.74,37.89-4.32,10.66-11.84,18.52-23.87,20.62-2.2.39-2.86,2.06-4,3.44C72.93,836.92,64.57,843,53.2,842.61Zm7.29-93.45c-3.68-.26-6.81,1.33-9.91,3-1.24.64-2.27,1.53-2,3.09A3.37,3.37,0,0,0,51.08,758c1.56.52,3.08,1.19,4.82.5,1.28-.51,2.64-.61,3.56.79,3.95,6,9.16,4.93,14.49,2.48,2-.93,3.54-1.06,5.42.48,3.35,2.74,7.5,3.46,11.24,1.47,3.9-2.07,7-3.52,10.94.11,1.85,1.71,5.09,1.14,6.81-.93,1.59-1.92-.41-3.71-1.57-5.26-6.75-9-12.49-10.57-22.9-6-5.07,2.25-9.94,2.37-14.81-.4A15.34,15.34,0,0,0,60.49,749.16Zm5,72.19c0,2.59.29,4.36,2.31,5.27,2.27,1,4.34.24,6.09-1,4.23-3.12,6.35-7.76,7.29-12.66,2.58-13.44,6.4-26.11,17.57-35.24,1.09-.88,2.35-2.24,1.32-3.88s-2.69-1.08-4.09-.66c-5.76,1.73-9.52,6-12.58,10.78-6.88,10.82-10.08,23.51-17.18,34.25C65.52,819.19,65.6,820.72,65.46,821.35Zm-33.12-16c-.25,5.48-.88,10,4.07,10.46,4.49.44,4.71-4,5-7.19a48.71,48.71,0,0,1,15.92-31.71c1.08-1,3.43-2.18,2.11-3.91s-3.44-.16-4.87.74C42.2,781.51,33.94,792.12,32.34,805.33Zm37.37-76.28c-3.76.39-7.12,1.55-9.34,4.9a3.15,3.15,0,0,0-.29,3.3,2.09,2.09,0,0,0,3,1c2.9-1.66,5.31-.84,7.89.75,2.22,1.37,4.37.29,5.75-1.43,1.55-1.92.9-4-.72-5.85S72.09,729.29,69.71,729.05Zm30.44.52c-2.53,0-4.93.32-7.06,1.94-1.41,1.07-2.73,2.16-2.14,4.06s2.27,1.78,3.77,1.6a12.7,12.7,0,0,1,7.17,1.3c2.69,1.27,5.12-.08,6.24-2.52s-1-4-2.69-5.3C104,729.51,102,729.7,100.15,729.57Z" transform="translate(-4.9 -1)"/><path d="M51.22,598.43a11.21,11.21,0,0,0-1.41-.08c-2.66.15-5.48,0-6.62,3.22-.3.82.09,2.16.89,1.93,2.93-.85,5.65,1.81,9-.45,3.7-2.5,7.73-5.13,12.46-5.71,4.13-.51,7.09,1,8.5,5.17,2,5.83,5.22,10.74,10.67,14,2.28,1.35,1.91,2.75,0,4.21-6.93,5.43-10.73,12.88-14,20.85-2.33,5.67-6.25,10.23-12.69,11.78-2.65.64-3.93,2.91-5.59,4.75a18.36,18.36,0,0,1-20.52,4.59c-6.54-2.71-11.45-10.37-10.79-17.52.44-4.69,2.61-9,5.27-12.72,2.8-3.95,2.38-7-1-10-2.33-2-2.79-3.47.56-5,5.64-2.61,8-8.23,11.24-13C40.57,599.35,44.88,596.29,51.22,598.43Zm-8.16,11.13c-1.9.69-5.51.4-6.13,3.22-.83,3.82,3.13,2.13,4.92,3a5.76,5.76,0,0,1,.88.48c5.35,3.73,11.62.46,17.38,2.2,2,.61,5-1.8,7.75.25a2.33,2.33,0,0,0,3.11-.83,2.22,2.22,0,0,0,0-2.34c-1.62-3.65-6.63-6.89-10.22-5.58-5.36,2-10.41,3.07-15.62-.08A7.44,7.44,0,0,0,43.06,609.56Zm6,45.36a5.87,5.87,0,0,0,4.58-3.57,29.18,29.18,0,0,0,2.59-7.46,29.62,29.62,0,0,1,6.94-15.11c1.16-1.33,4.31-2.48,2.46-4.59s-3.78.6-5.52,1.6a6.65,6.65,0,0,0-1.78,1.73c-5.37,6.85-7.58,15.37-11.87,22.81C45.4,652.16,46,654.71,49.05,654.92Zm-8.4-31.35a6.72,6.72,0,0,0-1.15.57c-6.59,4.84-12,10.44-12.6,19.23-.14,2.19-.44,5,2.47,5,2.5.08,3.31-2.49,3.42-4.74A21.32,21.32,0,0,1,34.57,636a28.52,28.52,0,0,1,7-9.54c.6-.55,1.2-1.23.85-2.16C42.18,623.6,41.59,623.32,40.65,623.57Zm25.49-25c-1.87.33-4.87.15-4.67,2.54.32,3.73,4.33,1.5,6.48,2.72,1.47.83,3-.74,2.78-2.45C70.44,598.8,68.18,598.77,66.14,598.57Z" transform="translate(-4.9 -1)"/><path d="M129.94,599.07c5.86-3.48,9.92-2.58,12.51,3.47,2.41,5.62,4.91,10.89,10.58,14,2.05,1.12,1.55,2.69,0,4-6.72,5.63-10.62,13.09-13.92,21-2.4,5.75-6.08,10.31-12.63,11.74-2.45.54-3.74,2.69-5.34,4.35-6.42,6.67-15.11,8.44-22.19,4.46-7.28-4.09-10.51-12.8-7.83-21.72a23.29,23.29,0,0,1,3.46-7.7c3.16-4,2.7-7.32-.85-10.41-2.53-2.21-2.35-3.47.66-5,4.79-2.45,7.49-6.9,10.13-11.4,2.77-4.72,6.43-8.35,12.58-8-1,.41-2.06.78-3.06,1.22-1.47.66-2.69,1.68-2.31,3.42s2.14.85,3.3,1.16c6.09,1.65,9.8-4,15.08-4.73-2.48,6.64,3.86,3.17,5.73,4.84,1,.87,2.64.23,3-1.45a2.54,2.54,0,0,0-2-3.41C134.54,598.28,132.24,598.79,129.94,599.07Zm-17,10.67a9.64,9.64,0,0,0-6.31,1.37c-2.29,1.25-2.27,2.81,0,4,6.65,3.61,14.25,1.92,21.24,3.7a1.34,1.34,0,0,0,1-.24c2.28-1.5,4.51-1.79,6.93-.16a2.48,2.48,0,0,0,3.55-.66c.94-1.25-.09-2.18-.69-3.12-2.73-4.31-6.8-5.93-11.54-4-4.12,1.68-7.92,2.24-11.88-.25A5.47,5.47,0,0,0,113,609.74Zm21.78,15.51c-.53-1.77-1.6-2-3.06-1.37a14.1,14.1,0,0,0-7,6.17c-3.64,6.53-6,13.73-10,20.08a2.87,2.87,0,0,0,.59,4,3.27,3.27,0,0,0,4.54-.26,12.52,12.52,0,0,0,4-6.77c1.64-7.54,3.51-14.94,9.76-20.26A8.37,8.37,0,0,0,134.76,625.25ZM94.83,644.12a3.63,3.63,0,0,0,2.82,4.14,2.24,2.24,0,0,0,2.82-2.13c.93-7.86,3.72-14.77,9.73-20.17a1.38,1.38,0,0,0,.18-2.17c-.57-.56-1.18-.28-1.83-.06C103,625.64,94.77,637.89,94.83,644.12Z" transform="translate(-4.9 -1)"/><path d="M74.94,663.11c6.62-3.11,9.77-2,12.57,4.49,2.27,5.27,4.73,10.27,10.33,12.89,2,1,2,2.63.31,3.94-7.57,5.84-11.52,14-14.86,22.61-.82,2.1-2.17,4.56-4,5.59-7.17,4.07-13.2,9.8-20.32,13.78-6.71,3.75-13.49,2.05-18.9-3-5.67-5.26-6.45-12.2-4.28-19.36a29.4,29.4,0,0,1,4-8c2.44-3.55,2-6.65-.92-9.35-2.64-2.42-3.16-3.85.69-5.58,4.45-2,6.81-6.14,9.1-10.27,3.92-7.07,8.77-9.88,16.11-8.73-2.91,1.1-5.46.18-7.11,1.91-.71.74-1.48,1.51-1.27,2.57.25,1.26,1.44,1,2.38,1.21,4.94,1.33,8.66-1.66,12.69-3.48,1.2-.54,2.24-1.4,3.65-1.39-3.17,7.26,4.08,2.93,5.73,5,.57.7,2.69,0,2.89-1.7s-.53-3.06-2.34-3.19C79.24,662.89,77.08,663.07,74.94,663.11ZM57.43,673.82a12.11,12.11,0,0,0-6.18,1.58c-1.52.89-2.13,3.31-.6,3.4,4.38.25,7.6,4.73,12.27,3.07a6.42,6.42,0,0,1,5.71.48,5.14,5.14,0,0,0,4.79.4c2.52-1.17,4.83-1.9,7.39,0a2.32,2.32,0,0,0,3.15-.58c.82-1.13.2-2.13-.44-3.17-2.86-4.66-6.64-6.32-11.88-4.3-4,1.54-7.54,2.18-11.33-.19A8.63,8.63,0,0,0,57.43,673.82ZM79.15,689.7c.07-2.36-1.25-2.38-2.63-1.81a14.36,14.36,0,0,0-7.41,7.05C66.43,700.25,64,705.71,61.32,711c-1.13,2.23-2.73,4.29-1.38,6.91a2.27,2.27,0,0,0,3,1.1c2.65-1.06,4.11-3.23,5-5.84.21-.63.22-1.31.4-2,2.12-7.28,3.6-14.87,9.85-20.14A6.65,6.65,0,0,0,79.15,689.7Zm-39.3,17.79c0,2.2-.34,4.63,2.34,5s3.09-2.22,3.38-4.08c1.09-6.95,3.4-13.19,9.06-17.79.77-.63,1.53-1.52.57-2.51s-1.91-.41-2.73.17C45.72,693.08,40.8,699.1,39.85,707.49Z" transform="translate(-4.9 -1)"/><path d="M144.17,663c5.21-2.71,9.15-1.68,11.27,3.47,2.39,5.83,5.25,11.11,11,14.31,2.17,1.21,1.53,2.57-.1,3.84-6.63,5.21-10.63,12.21-13.64,19.93-2.46,6.3-6.11,11.42-13.28,13-1.8.4-3.1,1.78-4.36,3.19-7.32,8.17-16,9.71-24.48,4.42-7.13-4.48-9.39-14.29-5.36-23.68a27.09,27.09,0,0,1,3.06-5.69c2.67-3.55,2-6.62-1.23-9.08-3.51-2.68-2.66-3.87.87-5.61,4.46-2.2,7-6.39,9.47-10.65,3.91-6.89,8.44-9.3,14.83-8.18-.24.17-.46.43-.69.44-2.64.13-5.53-.31-6.76,2.93a2.43,2.43,0,0,0,.28,1.73c3,.3,6.28,1.69,9.13-.15a28.37,28.37,0,0,1,10.12-4.36c-2.21,4.16-1.75,4.66,4.62,5,1.52.08,3.16.16,3.26-1.92a2.66,2.66,0,0,0-2.63-3C147.76,662.89,146,663,144.17,663Zm-19,10.7a12.83,12.83,0,0,0-2.57.47c-1.75.72-4.43.77-4.31,3.35s2.56,2,4.27,2.34A24.24,24.24,0,0,1,125.2,681c5.35,1.8,11.09,0,16.45,1.78a1.3,1.3,0,0,0,.93-.3c2-1.48,3.93-2,6.11,0a2.48,2.48,0,0,0,3.59-.35c1.06-1.28.23-2.39-.56-3.54-3.05-4.4-6.67-5.9-11.56-3.85-3.94,1.66-7.52,2.19-11.35,0A14.8,14.8,0,0,0,125.12,673.68Zm22.39,16c-.16-2.27-1.42-2.33-2.79-1.67-2.42,1.18-4.76,2.62-6,5.06-3.7,7-7.29,14.17-10.84,21.3a3.1,3.1,0,0,0,.78,4.08c1.58,1.21,3.19.73,4.49-.58a16.88,16.88,0,0,0,4.37-8.78c1.39-6.57,3.42-12.88,8.61-17.62A12.06,12.06,0,0,0,147.51,689.71Zm-22.17-1.86c-9.3,1.15-18.77,14.5-17,22.08.33,1.38.75,2.64,2.45,2.66s2.71-1.07,3-2.73a58.6,58.6,0,0,1,1.36-7.33C117,697,120.53,692.74,125.34,687.85Z" transform="translate(-4.9 -1)"/><path d="M64.75,527.34c-.9,1.4-4.27,2.71-2.25,4s6.44,3.17,8.18.86c3-4,8.15-1.91,10.73-6.75.86,3.31-4,4.23-1.1,5.77,2.36,1.24,5.91,2.3,8.48.63,2.28-1.48-.64-3.25-1.31-5.36,3.45.11,4.43,2.49,5.3,4.68,2.24,5.64,4.71,11,10.5,14,2,1,1.83,2.67.18,4-7.27,5.86-11,13.93-14.54,22.27-2.11,5-5.63,9-11.42,10.21-2.44.5-3.93,2.3-5.49,4.08-6.23,7.15-15.57,9.16-22.87,5s-10.5-13.35-7.59-22.19a31.38,31.38,0,0,1,3.65-7.61c2.45-3.67,2.28-6.91-.93-9.79-2.38-2.13-2.56-3.58.5-5.12,4.34-2.18,7-6,9.34-10.1,1.85-3.2,3.93-6.17,7.13-8.19C62.38,527,63.38,526.07,64.75,527.34Zm-1.72,11c-3.83,0-7.65,1.91-7.49,3.43.32,3.05,2.94,1.87,4.67,2.4a7.09,7.09,0,0,1,2.47,1.6,4.62,4.62,0,0,0,5.09,1.06,7.37,7.37,0,0,1,7.11.32,4.78,4.78,0,0,0,4.82,0c2.21-1.44,4-1.71,6.28,0a2.61,2.61,0,0,0,3.63-.53c1-1.35-.08-2.53-.8-3.59-3-4.41-7.12-5.75-12.22-3.59a12,12,0,0,1-10.11,0A24.33,24.33,0,0,0,63,538.35Zm4.39,45.28c2.12,0,3.23-1.2,4.32-2.53,2.34-2.85,2.57-6.43,3.51-9.76,1.4-5,2.7-9.89,6.6-13.68,1.29-1.27,4.26-2.75,2.64-4.63-2-2.38-4,.52-5.85,1.71a7.14,7.14,0,0,0-1.79,1.72c-5.08,7.07-7.65,15.44-11.78,23C64,581.51,65,583.35,67.42,583.63ZM45.86,571.41c.1,2.2-.78,5.05,2.14,5.45s2.76-2.69,3.57-4.54a1.61,1.61,0,0,0,.12-.48A25.41,25.41,0,0,1,60.16,555c.69-.62,1.82-1.31.81-2.4-.84-.91-1.92-.36-2.69.23C52,557.61,46.45,562.94,45.86,571.41Z" transform="translate(-4.9 -1)"/><path d="M132.11,526.9c.22,2-3.49,3.84-1.27,4.49,2.62.77,5.78,2.93,8.86.59,3.23-2.45,7-3.81,11.31-5.71-.89,2.38-4.38,3.41-2.14,4.88s5.46,2.19,8,.88c2.71-1.39.13-3.22-1.07-5.19,3.76.06,4.74,2.52,5.56,4.66,2.2,5.73,5,10.85,10.65,14,1.58.88,2.16,2.06.35,3.46-7.1,5.47-11.16,13-14.38,21.15-2.2,5.58-5.88,10-12.12,11.63A10.31,10.31,0,0,0,141,585c-7.56,8.2-17,10.19-24.33,5.12-8.11-5.58-10.13-15.07-5.36-25.25a10.89,10.89,0,0,1,1.67-3.06c3.84-4,3-7.7-.71-11.14-2-1.88-2-3.47.52-4.6,4.71-2.13,7.19-6.22,9.77-10.34C124.89,532.06,127.06,528.05,132.11,526.9ZM131,538.19a34.46,34.46,0,0,0-3.86.92c-1.38.5-3.06,1-3,2.85,0,2.14,2,1.61,3.28,2.17,4,1.77,7.8,4.33,12.48,1.69.52-.29,1.78.67,2.67,1.1a5.85,5.85,0,0,0,4.85.35c2.56-1.15,4.89-1.56,7.49-.14a2.4,2.4,0,0,0,3.18-.57c.79-1.16,0-2.16-.67-3.17-2.76-4.45-7.08-6-12-4-3.78,1.56-7.34,1.81-11-.22A16.7,16.7,0,0,0,131,538.19Zm22.49,15.89c-.43-2.07-1.74-2.16-3-1.58a14.53,14.53,0,0,0-5.71,4.71c-4.87,6.61-6.68,14.8-11.07,21.69a3,3,0,0,0,1.07,4.38c1.69.94,3.2.29,4.47-1a16.18,16.18,0,0,0,4.06-8.94c1.12-6.75,3.58-12.74,8.69-17.48A21.94,21.94,0,0,0,153.48,554.08Zm-39.62,17.4c.32,2.63-.47,5.11,2.4,5.51,2.3.31,3.45-1.55,3.52-3.36.31-7.58,3.68-13.56,9-18.67.59-.57,1.28-1.36.74-2.15-.7-1-1.82-.68-2.65-.11C119.92,557.46,115,563.55,113.86,571.48Z" transform="translate(-4.9 -1)"/><path d="M720.73,790.73c11.48,1.59,23,.62,34.51,1.66,7.15.64,14.75-.56,22.17.18.82.08,1.78-.25,2.47.06,8.66,3.84,18.12,2,27.07,4A153.09,153.09,0,0,0,838,800.19c3.37,0,4.9,1.15,4.81,4.64-.11,4-2,5.49-7.82,3.62-12.89-4.13-26.69-3.58-39.36-7.36-14.51-4.32-29.45-3.24-44-6.32-7-1.48-15-1.35-22.52-1.64C726.18,793,723.14,793.23,720.73,790.73Z" transform="translate(-4.9 -1)"/><path d="M787.79,417.06c9.35-1.39,18.42-3.58,27.72-3.15a138.58,138.58,0,0,0,24.18-1.35c1.81-.23,2.36,1.06,2.3,2.5-.12,2.9-.69,5.62-4,6.71-4,1.32-8,.82-11.77-.23-7.75-2.13-15.81-.59-23.6-2.29-3.23-.71-6.55-2.12-10.09,0A3.6,3.6,0,0,1,787.79,417.06Z" transform="translate(-4.9 -1)"/><path d="M697.44,132.53c2.66,9.79,1.78,19.76.89,29.74l-2.42-29.68Z" transform="translate(-4.9 -1)"/><path d="M550.29,338.78c1.16-6.64,6-10.42,9.21-15.3C560.41,325.28,554,336.07,550.29,338.78Z" transform="translate(-4.9 -1)"/><path d="M197.65,256.22c-6.25-1.37-7.61,1.08-7.91,5.72-.75,11.58.49,23.18-.78,34.62-3.93-4.06-5.19-8.08-4.76-15.17.41-6.81.69-13.62,1.13-20.43.19-2.93-.77-3.91-3.8-3.24-6,1.33-10.65,5.35-15.93,8.08-5.77,3-10.49,7.4-14.95,12.09-.79.83-1.72,1.65-3.28.75,9.89-15,21.29-28,39.17-33.66,11.16-3.53,21.66.66,27.29,11.35,2.28,4.35,4.39,2.42,6.32,0,6.41-7.94,14.87-12.86,24.4-15.6,12.82-3.69,21.55-1.68,30.08,10.64.76,1.09,1.61,2.12,2.41,3.18,5.27,6.93,9.91,6.38,14.61-2-2.69-.88-3.85,1.38-5.48,2.48-.83.56-1.72,1.4-2.6.42s.05-1.85.68-2.56c3.5-3.85,7.33-7.12,12.48-8.77,6.62-2.13,12.9-5.08,20-5.72,10.17-.91,18.17,2.63,24.73,10.17,4.57,5.26,9.25,10.44,12.75,16.5.65,1.12,2.07,2.83.65,4-1.63,1.34-2.29-.9-3.45-1.58-8.9-5.26-14.65-15.45-26.59-16.08-6.2-.32-7.19.3-8.16,6.4a73,73,0,0,0,.16,24,34.73,34.73,0,0,1,0,7c-.05,1.19.53,3-1.57,3-1.81,0-2.66-1.16-2.7-2.92,0-2-.14-4-.07-6,.26-8.24-1.64-16.36-.73-24.7.58-5.29-1.27-6-6.33-4-5.52,2.22-11.6,2.88-16.72,6.2-3.9,2.53-8.9,4.38-6.43,11-2.95-3.43-6-6.77-8.82-10.31-3.38-4.24-8-6-13.06-6.32-7-.51-8.4.64-8.57,7.51s-.44,13.62.44,20.45c.48,3.75,1.31,7.74-.54,11.29-6.43-9.51-3.19-20-3.53-30.09-.09-2.67,1.48-6.42-1.89-7.58a11.33,11.33,0,0,0-10.43,1.71,54.16,54.16,0,0,0-14.47,15c-2.67,4.22-3.72,4.23-6.51,0a53.33,53.33,0,0,0-10.49-11.83c-1.09-.9-3.2-1.18-2.3-3.15.73-1.62,2.31-.57,3.56-.38.48.08,1,.06,1.87.11-.15-5.69-4.29-8.19-8.26-10.35-4.59-2.51-8.89-.45-12.84,2.19-.57.37-1.08,1.14-.5,1.65a3.36,3.36,0,0,0,2.23.68C191.54,251.74,194.37,252.66,197.65,256.22Z" transform="translate(-4.9 -1)"/><path d="M284.42,341.6c-6.12-3-6-8.35-5.3-13,1.23-8.16-.12-16.25.34-24.36.15-2.54-1.38-4-4-4a15.14,15.14,0,0,0-8.61,2c-7.52,4.8-16.35,8.32-17.8,18.92-.33,2.36-2.24,1.95-3.18.49-1.49-2.29-3.8-3.76-5.36-5.89-4.5-6.12-11.46-6.17-17.9-7.37-3.32-.62-3.6,1.86-3.66,4.45-.26,10.63-.62,21.26-1,31.89,0,1.11.37,2.33-.57,3.28-6-.86-6.44-4.49-5.76-9.71a151,151,0,0,0,1.28-24.9c-.14-4-1.37-4.77-5.58-4.2-9.5,1.29-17.71,5.09-25.4,10.45-.57.39-1.2.83-1.78.36-1-.77-.62-1.85-.22-2.75,1.82-4.08,5.16-6.88,8.41-9.72,9.65-8.41,21.35-11.48,33.65-13.65,7.95-1.4,14.6.59,21.17,4.5,2.64,1.58,3.85,4,4.9,6.68.49,1.23.83,2.75,2.37,2.94s2.42-1.08,2.95-2.3c5.22-12,16.48-14,27.41-16.26,9.58-2,18.72-.61,26.74,5.45,4.29,3.24,7.28,7.75,10.27,12,4.23,6,9.25,11.95,9.09,20.08,0,.93.64,2.06-.7,2.53a2,2,0,0,1-2.16-.94c-2.48-2.9-5.59-5.46-6.79-9.15a13,13,0,0,0-3.8-5.68c-6.8-6.36-14.53-10.79-23.95-12-3.91-.51-5.27,1.48-5.36,4.72-.21,7.15-.68,14.31.31,21.45A54.22,54.22,0,0,1,284.42,341.6Z" transform="translate(-4.9 -1)"/><path d="M226.07,431.07c-1.66-2-1.24-4.23-.4-6s3-.85,4.51-.63a89.37,89.37,0,0,0,25.77.05,15.61,15.61,0,0,1,3-.06c1.05.06,2,.42,2.15,1.63s-.7,1.74-1.76,1.94c-1.63.3-3.37,1.1-4.88.79-6.26-1.26-12.61-.25-18.85-1.1C229.5,426.83,229.52,426.73,226.07,431.07Z" transform="translate(-4.9 -1)"/><path d="M664.18,731.85a3.33,3.33,0,0,1-1.55-3.57c1.2-6.23-.33-12.53.69-18.75.18-1.11,0-2.63,1.59-2.61,1.36,0,1.09,1.42,1.11,2.34C666.18,716.81,666.3,724.36,664.18,731.85Z" transform="translate(-4.9 -1)"/><path d="M669.73,522c.13-3.26,0-5.58.78-7.82.42-1.15.9-2.14,2.35-2.11,1.64,0,1.66,1.25,1.76,2.43.39,4.53-1.54,8.71-2,13.12-.06.72-.62,1.32-1.3,1.13a2,2,0,0,1-1.25-1.3C669.86,525.33,669.81,523.18,669.73,522Z" transform="translate(-4.9 -1)"/><path d="M668.92,583.71c1,4.82,1,8.22-.07,12C666.78,592.5,666.72,589.77,668.92,583.71Z" transform="translate(-4.9 -1)"/><path d="M667.72,630.55c-1.79-4.39-.68-8.58.52-12.76C671,622.18,667.29,626.27,667.72,630.55Z" transform="translate(-4.9 -1)"/><path d="M670.12,555.3a49,49,0,0,1,.08-12.77C672.72,546.33,672.71,550.36,670.12,555.3Z" transform="translate(-4.9 -1)"/></g></g></svg>