<svg xmlns="http://www.w3.org/2000/svg" viewBox="0 0 851 878.65"><title>struggle</title><g id="Layer_2" data-name="Layer 2"><g id="Layer_1-2" data-name="Layer 1"><path d="M852,546c-2.33,2.37-4.64,4.76-7,7.09-2.79,2.75-5.81,4.93-10.1,4.41a10.11,10.11,0,0,0-3.89.6,2.15,2.15,0,0,0-1.83,2.09c.1,1.35,1.32,1.39,2.26,1.35,2.86-.11,6,1.08,8.24-2a3.55,3.55,0,0,1,5-.45c1.92,1.54,3.53,4.2,2.62,6.54-4.32,11.08-4.71,22.54-4.45,34.2.08,3.7-1.06,7.47-2,11.13-1.94,7.81-7.85,10.94-15.12,12.35-4.44.86-4.91,2-2,5.26a33.67,33.67,0,0,0,5.71,5.55c6.15,4.37,9.41,14.89,6.15,21.67-1.05,2.18-2.25,4-.8,6.41a1,1,0,0,1,0,1c-6.33,6.45-2.22,15-4.44,22.26a12.92,12.92,0,0,0,.29,7.84,21.62,21.62,0,0,1,0,14.14,18.87,18.87,0,0,0-.38,10.36c3,13.53,1,27.19,1,40.76A33.5,33.5,0,0,1,829,770c-1.15,2.93.88,5.75,1.35,8.62a123.92,123.92,0,0,0,4.78,20.16c1.82,5.27,5.14,10,7.57,15.08,3.24,6.79,2.91,7.21-4.45,7.24-3.45,0-7-.54-9.8,2.43-1.05,1.1-2.46.6-3.4-.72-1.68-2.37-.89-9.41,1.64-10.89,1.94-1.14,2.74-2.77,3.52-4.6.6-1.41,1-2.91-.14-4.22s-2.42-.4-3.65.07c-3.07,1.15-6.44-.16-9.37.74-7.47,2.3-14.32.13-21.42-1.64-3.62-.9-7.42-.63-8,4.81-.32,3.18-1.73,4-4.46,1.27-3.62-3.55-3.72-7.51-2.52-11.9a25.29,25.29,0,0,0,1.19-3.77c.88-8.52.56-8.9-8-11-8.83-2.14-8.83-2.14-12.41,1.77,6.11,2.15,13.67,2.41,14.61,11.37-4.82-1.62-5.16,1.1-5,5,.27,7,.08,14,.1,21a20.71,20.71,0,0,1-3.6,12.18c-.09.14-.2.27-.28.41-1.69,3.13-1.89,6.44,1.15,8.52s5.19-1,7.26-2.61c1.07-.85,1.59-2.51,2.1-3.9.89-2.4,2.36-3.6,5-2.85s4.09,2.83,3.22,5.33c-2,5.76-4.39,11.33-5.54,17.43-.55,2.92-4,2.47-6.39,1.26a40.94,40.94,0,0,1-6.2-4.12c-3-2.32-6.12-3.94-10.05-3.55-4.54.45-8.69-1.62-13.11-2.18-8.09-1-10.26.11-15.63,7-.57.74-.49,2.39-1.63,2.23-5.44-.77-10.39,2.27-16.2,1-5.38-1.12-11.14-4.59-17-1a1.23,1.23,0,0,1-1,0c-8.73-3.7-17.39,1.1-26.21.26-5.18-.5-10.68,1.34-16,2.53-6.06,1.36-12.3,2.87-18.66,2.15-3.61-.41-7-.67-10.29,1.55-3,2-6.38,2.76-9.57-.11-.73-.66-2-1-2.76-.2-3.13,3.57-6.31,2.18-9.94.81a11,11,0,0,0-7.8.45c-4.35,1.69-6.13.36-6.23-4.41-.1-4.49-.09-9,0-13.49,0-1.75-.4-3.91,2.17-4.4a4.21,4.21,0,0,1,5,2.46c2.88,6.26,8.53,9,14.32,11.67,2.49,1.16,2.91.13,2.9-2,0-6.34,0-12.67-.07-19a4.08,4.08,0,0,0-2.86-4.25c-2.29-.65-3.14,1.34-4,3a19.9,19.9,0,0,0-2,5.6c-.31,1.65-1.23,3.49-3.24,3.09s-4.42-1.53-3.83-3.84c2-7.58-.69-14.59-1.92-21.8-.45-2.61,0-5.28,3-6.12s3.67,1.83,5,3.76c1.93,2.8,4.23,7.35,7.18,6.72s1.1-5.48,1.12-8.42c0-6.31.69-12.67-.34-18.95-.51-3.15,1.69-2.21,3.09-2.22,7.17-.08,14.33-.07,21.5-.07,12.14,0,24.28.05,36.42,0,2.55,0,3.71-.11,4.56,3.55,1.27,5.53.75,10.89,1.06,16.3.24,4,7.31,8.81,10.85,7.2,1.53-.7,1.26-2.21,1.26-3.51,0-6.67.16-13.34-.08-20-.09-2.49.07-3.62,3-3.56,7.83.17,15.67.05,23.5,0,2.26,0,3.3.51,1.68,2.83a3.32,3.32,0,0,0-.67,2.29c3.11,12.83.75,25.85,1.32,38.76.19,4.46,2.49,7.83,4.31,11.51a2.64,2.64,0,0,0,2.86,1.61c1.63-.34,1.85-1.74,1.86-3.13q0-6,0-12c0-2.71.44-5,3.75-5.47a.92.92,0,0,0,.48-.12c3.16-3.07,6.26-7.71,7.51,1.5.22,1.65,3.37.06,4.72-2.52,5.27-10.11,2.69-20.88,3.06-31.36.1-3.12.63-4.29,3.72-3.92,2.71.33,4.59-.51,4.71-3.64.12-3.32-2.22-3-4.42-3.21-10-1.07-20.17-1.55-29.29-6.55a3.51,3.51,0,0,0-4.19.17,14.45,14.45,0,0,1-7.39,2.7c-9.34,1.09-18.61,3.5-28.1,1a6,6,0,0,0-6.07,1.17c-8.61,7.9-18.17,4.42-27.57,2.52,5.3.06,10.64.27,16,.12a13.19,13.19,0,0,0,4.43-.43c2.27-.91,5.52-1.5,6.13-3.79.75-2.8-3-2.82-4.58-4.35-.35-.35-1-.49-1.19-.87-2.82-7.11-8.9-5.36-14.34-5.33-8.48,0-15.86-3.29-22.79-7.73a12.08,12.08,0,0,1-4.68-6.9c-2.47-8-4-9.52-11.89-10.06a79.75,79.75,0,0,0-28.6,3.51c-3.19,1-3.94,2.76-3,5.6.83,2.4.9,4.82.92,8.33-2.84-3.93-2.35-7.74-3.21-11.1-2.82-11-8.91-14.4-17.51-15.33a197.08,197.08,0,0,0-22.37-1c-5,0-6.31,2-4.87,6.68.46,1.5,2.76,2.52,1.54,4.38-1.08,1.65,1,3.13,0,4.62a4.65,4.65,0,0,1-1,0c-.86-4.58-1.67-9.17-2.5-13.76-.53-2.91,1.09-4,3.63-4.1,4.31-.2,8.63.4,12.87.46a89.28,89.28,0,0,1,22.33,2.89c2.32.63,4.13-1.94,6-3.2,10-6.93,21.13-7.16,32.53-6,5.76.6,11.63.73,16.81,3.92,1.4.87,2.53-.44,3.66-1,8.28-4,17-3.95,25.85-2.94,7.07.8,14.12,1.63,21.31-.16,9.68-2.4,19.6-1.64,29.15.62,6.56,1.56,12.68.93,19.17.18,13.63-1.59,27.4-3.57,40.6,2.91,4.64,2.28,8.94-1.14,13.34-2.14,1.35-.31.83-2.15,0-3-2.72-2.89-2.29-6.42-2.37-9.9-.08-4.12.28-8.18-1.33-12.29-1.16-3-1.08-6.31,2.7-8.64,3.53-2.18,2.31-6.34,1-9-4.93-9.85-6.35-20.16-5.5-30.95.13-1.64.32-3.29.6-4.91.73-4.34,3.81-7.88,0-13.2-2.71-3.81-.89-10.37,1.31-15.37,1.12-2.56,2-5.42,1-7.74-2.67-6.37,1.24-13-1.28-19.32a8.72,8.72,0,0,1,0-6.38c2.51-5,.43-9.63-.76-14-1.27-4.69-.64-9.22-.89-13.81a3.21,3.21,0,0,1,1.85-3.29c1.54-.68,2.47.46,3.43,1.39,4.68,4.51,11.24,4.18,16.8,6.44.78.31,2.14.39,2.62-.74s-.69-1.61-1.45-2.21a90.22,90.22,0,0,0-13.43-8.92,17.94,17.94,0,0,1-9-14.3c-.82-9.17-2.28-18.51,2.1-27.29,1.9-3.8,4.29-6.63,9.22-7.3,4.51-.61,8.12-4.29,12.73-5.47,8.88-2.26,17.79-2,26.56-.22,3.31.65,5.23.52,6.19-2.62,1.11-3.65-1.73-3.64-4.16-4.54-6.46-2.4-13.1-1.55-19.68-1.69-2.75-.07-5.84.16-6.2-3.39-.34-3.25,2.13-5.08,5-5.94a13.71,13.71,0,0,0,5.36-2.46c1.22-1.09,2.22-2.74,1.59-4.45s-2.3-.84-3.55-1.06c-5.3-1-10.64-1.8-15.89-3a5.53,5.53,0,0,0-5.06,1c-1.38,1-1.85,4.3-4.56,2.3a6,6,0,0,1-2-7.59c.65-1.55.8-3.24,1.36-4.67,2.91-7.45-.5-15.65,3.05-23,.82-1.7,1.18-3.55,3.25-4,2.3-.49,2.57,1.67,3.43,3,2.91,4.37,7.47,5.66,12.13,5.53,6.45-.17,12.38,1.58,18.36,3.45,2.79.87,5.24,1.62,8.5.57,3.64-1.18,7.48-2.73,11.62-2.19a4.1,4.1,0,0,0,4.12-2.37c.85-1.66,2-2.6,3.89-2.37v63c-3,0-6-.05-9,.07-2.69.11-3.33,1.11-1.29,3.28,2.7,2.89,5.75,5.5,7.31,9.35a2.44,2.44,0,0,0,3,1.3ZM677.79,756.48c0-2,.07-3.92,0-5.88-.44-9.69-6.36-19.23-13.51-20-8.69-1-17.49-2.18-26.27-.46-10.92,2.13-11,2.4-5.7,12.35,1.31,2.45,2.75,3.33,5.87,3.11,7.94-.55,16-.67,23.81,1.3a9.84,9.84,0,0,1,7.12,5.55c2.29,5.05,2,10.78,10.92,11.58a194.74,194.74,0,0,0,23.39.56c3-.1,4.78-1.94,3.57-5.46a22.47,22.47,0,0,1-.8-9.87c.37-3.31-1-4.41-4-4.82-5.81-.78-11.62-.45-17.43-.24-4.09.14-6.49,1.85-5.4,6.63C679.7,752.58,680,754.71,677.79,756.48Zm134.86-11.72c-2.1,0-3.44.1-4.76,0-1.82-.16-4.31.9-4.86-2-.47-2.53.31-4.65,2.89-5.7a8.57,8.57,0,0,0,4.31-4c1-1.79,1.45-4-.69-5.33-3.66-2.36-10.79,1.71-11.09,6.09-.41,6.17-.07,12,5.52,16.08a4.51,4.51,0,0,1,1.35,5.84c-1.17,2.45-2.74-.07-4.15-.33-.65-.13-1.4.07-2-.18-4.8-2.06-10.66-1.73-13.87-7.32-1.4-2.44-4.7-2.94-7.61-1.52s-1.64,3.57-1,5.61a20.1,20.1,0,0,1,.34,10.35c-.64,2.81,1.32,4.59,3,3.85,4.43-2,7.85.31,11.61,1.46a3.27,3.27,0,0,0,1,0c2.9,0,6.28-.83,6.2,4,0,1,1.15,1.42,2.18,1.72,7.4,2.2,14.35,2.64,20.81-3,2.46-2.14,3.3-3.1.12-4.9-2.21-1.24-4.59-2.82-3.55-5.72,1.38-3.89,1.88-8.1,4.17-11.65.67-1,1.15-2.08.41-3.23s-2-1-3.12-.64C817.22,745.09,814.53,744.63,812.65,744.76Zm-66.48,37.46c5.2,0,8.88-.17,12.38-1.31,6.06-2,6.13-2.37,2.92-7.77a9.3,9.3,0,0,1-1.41-3.66c-.4-3.67-2.48-4.48-5.83-4.37-5.65.2-11.4.63-17-.18-7.59-1.11-15.17-3-17.89-11.88-1-3.24-3.83-4.51-6.52-5.77-3.07-1.43-5.23,0-5.06,3.14.49,9.06,1.7,17.92,10.06,23.78C726.88,780.51,737.29,781.28,746.17,782.22Zm-4.51-52.74c-5.35-.19-11.82-.24-18.2,1.29-3.94.94-4.46,2.26-1.64,5.17a24.16,24.16,0,0,1,4.88,7.47c1,2.32,2.6,3.35,4.61,2.82,7.28-1.9,14.2.36,21.18,1.56,6.52,1.12,12.67,3,14.56,10.79.68,2.79,3.69,3.78,6,4.9,2.06,1,2.07-.92,1.95-2.22-.48-5.3-.47-10.73-1.74-15.84-2.34-9.34-9.93-15.23-19.49-15.9C750.15,729.27,746.47,729.48,741.66,729.48Zm-93.82,82c0-6.13.15-10.46-.05-14.78-.16-3.35-2.21-4.92-5.6-5.08-3.18-.14-6.68.71-6.29,4,.89,7.38-7,14.3-.92,21.76a1.17,1.17,0,0,1,.09,1c-3.59,9.1,1.17,18,.76,27-.18,4.06,3.84,5.47,6.89,7.1s4-1.31,5.66-2.73c4.69-4.16,3.12-9.79,2.25-14.51C649.06,826.72,647.25,818.35,647.84,811.47ZM799,520.9c-4,0-7.21,0-10.37,0-2.5,0-4.88.4-5.45,3.24-.6,3,1.54,4,4,4.6a16,16,0,0,1,2.77,1.1c7.52,3.37,15.54,6,23.54,3.91a30.46,30.46,0,0,1,21.14,1.64,6.23,6.23,0,0,0,5.77-.5c1.31-.76,2.74-1.42,2.43-3.33-.26-1.55-.87-3.1-2.43-3.52-4.84-1.28-8.27-7.9-14.53-3.9-.2.12-.63-.11-1-.17C816,522.53,807.22,520.42,799,520.9Zm16.64,132.22c-3.82-.71-7,1.78-10.66,2-1.4.1-2.88,1.63-1.53,3.79,6,9.64,5.47,20.83,7.09,31.47.7,4.61,1.73,5.91,6.2,4.47a27.61,27.61,0,0,0,5.51-2.22,3.92,3.92,0,0,0,1.6-5.24c-1-2.23-2.91-2-4.63-1-2.43,1.43-4.73,1.49-5.77-1.29-1.19-3.18-1.59-6.8,1.8-9,5.48-3.6,7.87-9.58,11.63-14.48,2-2.62.68-5.35-2.19-6.46S818.93,652.36,815.63,653.12Zm-162,115.4c7.71-.17,7.71-.17,6-7.66a8.11,8.11,0,0,0-.33-2c-1.83-3.46,1.3-8.56-2.81-10.87-3.46-1.95-7.8-.91-11.77-.95-9.53-.1-9.53-.07-9,9.15a4.17,4.17,0,0,1,0,.5c-.85,9.11.74,7.43,8,10.42A21.53,21.53,0,0,0,653.6,768.52Zm92.84-5.26c2.32,0,4.66-.15,7,0,3,.26,4.06-.84,4.08-3.94,0-9.18.16-9.17-9-10.31-3.28-.42-6.55-1.14-9.84-1.27-2.92-.11-6.11-.21-8.72.83-2.33.94.17,11.74,2.8,13C737.13,763.59,741.8,763.23,746.44,763.26Zm93.24-291c-3.64,1.76-7.54,1.05-11.23,1.87-1.68.38-4.07-.6-4.67,1.69s1.53,3.36,3.25,4.44c3.5,2.22,6.84,4.43,6.25,9.54a2,2,0,0,0,3.37,1.78c2.75-2.37,6.28-3.72,8.43-6.83,1.84-2.66,3.67-5.72,2.34-8.68S842.13,474,839.68,472.25Zm-150.91,365h0c0-2.16.09-4.32,0-6.47s-.24-5.34-2.65-5.18c-3.16.22-7.29-.38-9.18,3.52S678,844.35,681.65,847a4.44,4.44,0,0,0,7.07-3.23A46.52,46.52,0,0,0,688.77,837.29Zm98.3-234c5.81-.55,10.3-4.1,15-7a3,3,0,0,0,1.06-4.35,3.26,3.26,0,0,0-4.79-1.05,11.16,11.16,0,0,1-9.56.74c-1.87-.61-3.81-2.34-5.33-.16-1.65,2.37-3.82,5-2.82,8.11C781.52,602.26,783.91,603.72,787.07,603.32Zm40.93-4.9c3.32.88,4.19-4,6.63-6.29,1.11-1-.58-2.89-2.4-2.44-5.44,1.34-10.93.32-16.38.72-1.38.1-3.34-.48-3.62,1.64a3.65,3.65,0,0,0,3,4.08C818.86,597,822.62,597.48,828,598.42Zm-38.29,68.66a39.87,39.87,0,0,0,6.43-.06c3.42-.6,3.73-3.36,3.57-6.16-.08-1.35.59-3.45-1.72-3.41-3,0-6.23-.11-8.79,1.06-2.83,1.3-8.27.68-7.69,5.44C782.12,669,787.05,666.52,789.71,667.08Zm7.46,25.6c-3.07.18-6.26-.67-9.07,1.54-1.41,1.1-3.58,1.62-2.82,4,.66,2.09,2.67,2.17,4.53,2.28,4,.21,7.5-2.19,11.6-2,1.67.1,3.11-2,2.81-4s-2.11-1.74-3.57-1.79C799.49,692.65,798.33,692.68,797.17,692.68Zm30.26,38.85c-1-2.32.73-6.64-4.21-6.33-1.6.1-4-.2-3.74,2.71.3,3.79,2.23,6.15,6.06,6.5C827.44,734.59,827.42,733,827.43,731.53Z" transform="translate(-1 -1)"/><path d="M852,345c-4,2.37-1.92,7-3.82,10.3s-1.66,7.39-6.68,8.17c-2.31.35-1.9,2.85-1.25,4.61.58,1.56,1.8,3.2.74,4.71-4.65,6.63-2,15.44-6.77,22-.77,1.06.06,2.33.49,3.32,2,4.53,1.5,9.46,2.55,14.13.19.84.39,1.58-.34,2.27-1.44,1.34-12.29.55-13.42-1-2-2.69-.54-7.82,2.88-10.1,2-1.31,3.41-3,2.58-5.38-1-3-3.64-1-5.42-1.52-7.56-2.17-14.94,3.79-22.68-.11-2.79-1.41-6.88-.26-10.38-.26a2.48,2.48,0,0,0-2.72,2.34c-.37,2.47-1.21,5.09-4.18,4.44a5.93,5.93,0,0,1-4.94-6.05c0-4-.67-8.17.26-11.95,1.32-5.31,1-10.56,1.13-15.85,0-1.16-.2-2.46.23-3.46,1-2.37,1.29-5.72,4.08-6.43s4.3,1.86,5.56,4.08c1.14,2,3,2.23,5.13,2.4,6.22.51,12.43.16,18.72.95,5.48.7,12.46-1.07,15.84-7.87-1.56-1.35-5.29-.64-5-4.22.29-3.05,5.33-7.92,8.34-7.93,2.45,0,4.92-.36,7.29,1.05,2.2,1.3,4.07,0,4.75-2.06.75-2.27,1.59-5.24-1.52-6.45s-6-2.8-9.55-2.11c-4.74.91-9.11-1.48-13.74-1.72a2.91,2.91,0,0,1-2.09-1.15c-1.49-2.58-3.14-2.31-5.32-.83-3.53,2.39-7.17,3.22-11.15.62-1.56-1-3.45-.48-5.26.3-6.87,3-9.25,1.36-9.6-6.24a14.2,14.2,0,0,0-.64-3.89c-2.21-6.49.62-10.92,7.5-12.47s12.4-5.78,17.61-10.34a1.71,1.71,0,0,0,.62-1.23c-.17-1.07-1.11-1-1.94-1.05a46.25,46.25,0,0,1-18.32-5.21c-1.93-1-3.23-1.12-4.45,1.13-.88,1.63-2.65,1.94-3.22-.26-1.47-5.74-4-11.26-3.92-17.34,0-1.11-.34-2.65,1.12-3s1.86,1.18,2.21,2.22c1.61,4.82,5.74,7.66,8.84,11.3.87,1,2.13,2.14,3.34.78,1-1.1-.2-2.31-1-2.94-8.6-6.53-11.15-17.49-18.36-25.09-1.78-1.87-2.3-5.11-3-7.82-1.34-5.08-2.75-10.15-4-15.21-1.86-7.37,1.18-10.7,9.76-12.3,2.21-.42,4.26-.3,5-3.06.65-2.54-1.69-3.68-2.19-5.22-1.59-4.93-6.58-4.13-9.22-6.8-6.13-6.21-10.59-13.38-10-22.5.4-6-.73-12,0-17.81,1-7.23-.25-14.54,1.37-21.73.49-2.15.87-4,3.27-4.29s3.84,1.16,4,3.46c.17,2.84,1.92,3.09,4.1,3.1,3.8,0,7.5,0,11.27,1.34a14.41,14.41,0,0,0,9.23.58,9.1,9.1,0,0,1,7.6,1.19c4.47,2.8,9.39,2.64,14.37,1,4.09-1.32,8.72.13,12.5-3.64,1.81-1.81,4.56.6,4.6,3.32.05,3.93.21,7.8-.9,11.83-2,7.27-.69,14.88-.62,22.35.06,6.28.06,12.37-6.37,16.33a12.3,12.3,0,0,0-5.32,7.48c-1.23,4.4-6.07,5.2-9.81,6.67-2,.79-3.79,1.49-4.3,3.62-.56,2.29,1.84,2.37,3,3.39,3.46,3,7.67,4.94,11.44,7.49C828.53,238,835.42,252.2,832,260.6c-1.89,4.69.29,10.09-1.58,15.21-3,8.23-8.2,13.31-17,14.56-.94.13-2.07-.06-2.5,1.74a66.26,66.26,0,0,0,7.65,3.92c2.71,1,5.23.4,6.77-2.52,2-3.88,4.83-3.14,7.21-.61,4,4.21,6.79,9.37,11.07,13.38,1.64,1.54,1.35,3.22-.71,5-5,4.27-11.37,6.17-16.39,10.31-1.41,1.17-3.41,2-2.86,4.2.61,2.43,2.9,1.76,4.63,1.8,3.34.07,6.67,0,10,0s6.85.64,7.75-4.6c.54-3.08,3.47-3.13,5.88-1ZM808.43,193.9c6-.79,12.6-.17,17.07-5.81,1.31-1.65,1.7-3.65-.79-3.46-5.12.4-9.59-2.78-14.69-2-7.68,1.17-15.08-1.76-22.74-1.92-3.37-.07-6.94-.3-10.36-.66-3-.33-6-1.48-6.72,2.35s2.27,5.49,5.65,6.31c6.86,1.67,14,1.62,20.88,3.29C800.49,192.92,804.21,195.11,808.43,193.9Zm5.15,72.89c4.62.19,7.31-1.74,10.22-2.79,2-.73,2-2.57.92-4.58-2.12-3.9-6.17-4.57-9.65-5.39-11.09-2.64-22.33-4.68-33.53-6.88-1.41-.28-3.15-.71-4.17.72s.16,2.57.78,3.68c2.23,3.9,5.85,6.07,9.67,8.25,4.92,2.81,10.33,3.78,15.64,4.61C807.35,265,811,266.26,813.58,266.79Z" transform="translate(-1 -1)"/><path d="M1,302c1,1.27,1.2,3.05,3,3.8,3,1.3,5.06,2.94,3,6.8-1,1.85,1.75,3,2.19,4.69,3.2,11.87,7.67,23.49,7.48,36.06,0,2.41-5,6-6.48,4.44C6.93,354.47,4,356.71,1,357Z" transform="translate(-1 -1)"/><path d="M23,1c.63,6.51-3.43,11.07-6.82,15.78C11.09,23.83,5.13,30.26,1,38V1Z" transform="translate(-1 -1)"/><path d="M264.21,791.55c-8.1-1.67-15-1.95-21.14-5.28a3.05,3.05,0,0,0-1.88-.11c-1.41,5.68-6.47,3.4-9.85,4.27-4,1-8.22.94-12.35,1.24-1.94.14-3.54.32-2.13,2.86s.09,3.88-2,4.67c-3.38,1.26-3.82,3.67-4.1,7-.78,9.17-2.41,18.42-1.39,27.49a171.59,171.59,0,0,1,1.31,28.19c-.25,4.83-2.76,8.06-7.54,7.73-6.85-.48-13.62,1.17-20.68-.7-3.61-1-8.72.39-13,1.34s-7.88-1.94-6.7-6.15c1.3-4.6-1.52-9.22.79-13.66.49-1-.45-2-1.51-2.19-1.62-.31-2.07.94-2,2.16.68,7.46-3.89,12.27-8.33,17.29A15.93,15.93,0,0,1,139.36,873c-4.9.06-10,1.2-14.69-1.49-1.48-.84-2.81.48-4.18,1-3.36,1.35-5.92.79-5.28-3.47,1-6.59-2.27-12.69-1.83-19.17.1-1.45-.34-3.19,1.77-3.57,1.93-.36,3.45-.09,4.5,2,1.62,3.25,2.94,6.61,5.07,9.67,1.84,2.63,4.21,4,6.64,5.7,3.51,2.45,6.53,1.36,9-1,2.14-2.1,3.45-5,1.06-8A6,6,0,0,1,140.2,852c-.58-4.42-2.26-6-7.25-5.06-6.85,1.22-15-4.12-18-10.41-1.43-3-2.75-6.07-4.21-9.06-4.06-8.28-.61-16.25,1.71-23.89,2.18-7.15,12.89-9.85,19.36-5.74,1.39.88,2.35,1.1,3.43-.12.93-1,2-1.92,3.45-1.69,5.81.94,11.48,2.14,17.48.17,2.65-.87,3.83,2,3.84,4.62q0,9.24,0,18.49c0,1.52,0,3.15-2,3.48s-3.93.06-4.73-1.9c-1.66-4-4.34-7.38-6.7-11a8.48,8.48,0,0,0-6.32-4.13,8.74,8.74,0,0,1-4.94-2,4.86,4.86,0,0,0-7.78,2.41c-.63,1.87-1.08,3.8-1.64,5.7-2,6.79.32,9.76,7.82,9.93a30.23,30.23,0,0,1,21.72,9.55,16.81,16.81,0,0,1,3.56,5.39c1.55,3.74,3.47,6.22,8.32,6.39,4.39.16,4.75,5.11,5.73,8.35,1.2,4,2.86,7.39,6,10.11,1,.87,2,2,3.49,1.34a2.62,2.62,0,0,0,1.23-3.47c-3-6.21-.58-12.29-.08-18.47.39-4.9.52-9.83-1.17-14.79a14.68,14.68,0,0,1,.62-10.24c1.47-3.59.66-7.56.57-11.36,0-2.2-2.08-2.16-3.6-2.78-2-.84-3.91-2.25-3.94-4.66s2.4-3,4.17-3.71c4.66-1.78,9.6,0,14.47-1.25a20.06,20.06,0,0,0-8.94-2.21c-26.48-.11-53-.08-79.44-.27-3.8,0-4.94,1.31-4.8,4.92.22,5.66,0,11.33.12,17,.05,2.54-.39,4.79-3,5.72s-4-.91-4.91-3-2.38-2-4.14-1.48c-11.8,3.58-23.91,4.65-36.19,5-7.17.18-14.62.19-20.47,5.64-1.43,1.32-2.88.78-3.74-.76-1.35-2.44-2.5-4.72-2-7.94a84.12,84.12,0,0,0,.08-28.23A15.45,15.45,0,0,1,31,773.14a24.2,24.2,0,0,0,5-7.35A16.07,16.07,0,0,1,44.36,757c1.51-.7,3.89-1.21,3.49-3.62-.31-1.93-2-2.64-3.81-3.46-7.68-3.47-15.36-6.95-18.46-16-1.09-3.17-2.75-6.19-2-9.55a41,41,0,0,0,.09-15.45c-.88-5.45,2.49-9.88,5.79-13.81,3-3.54,6-7.22,10.29-9.35,3.94-2,7.57-4.59,12.21-4.77-.64-2.57-2.2-2.09-3.42-2.19s-3,.14-3.33-1.48c-1-5.56-4.07-3.15-6.36-1.48-2.55,1.85-6.1,2.95-6.44,7a2.48,2.48,0,0,1-2.83,2.28,2.61,2.61,0,0,1-2.39-2.75c-.16-2.49-.17-5-.18-7.49,0-7,0-14,0-21a6.18,6.18,0,0,1,3.13-5.7,135.75,135.75,0,0,1,16-9.1c3.4-1.7,5.86-4.34,8.29-7.09.64-.73,1.54-1.43.9-2.58s-1.69-.91-2.67-.91c-5,0-10,.13-15,0-3.29-.09-4.62,2.24-6.07,4.45-.86,1.31-1.6,2.62-3.45,2.18a3.5,3.5,0,0,1-2.81-3.69c.22-6.74-1.47-13.59,1.08-20.21a3.28,3.28,0,0,0-.28-3.26c-3.95-6.17-3.79-8.77.84-14.48a2.57,2.57,0,0,0-.31-4c-3.35-2.48-3.07-5.89-3.18-9.44-.13-4.27,1-8.68-1.05-12.8-.14-.28-.29-.73-.17-.95,3.81-6.93.28-14.27,1.15-21.38.36-3,1.44-3.68,4.24-4.2,6.55-1.2,12.58,2.61,19.12,1.46,2-.36,2.21,2,2.21,3.75,0,2.79-1.45,4-4.16,4.66-4.93,1.18-10,2.41-13.68,6.25-1.05,1.09-3.31,2-2.35,3.9.74,1.5,2.73.79,4.17.8q20.94.06,41.87,0c2.83,0,5.67-.09,8.5,0,4,.16,7.75.11,8.79-5,.39-1.94,2-1.86,3.57-1.91,2,0,2.17,1.25,2.68,2.81a19,19,0,0,1,.27,10.13c-1.19,6-.81,12.3-.05,18.4a13.75,13.75,0,0,1-.3,6.29c-.47,1.42-.39,3-2.43,3.23s-3.37-.44-3.86-2.34c-1.13-4.41-4.34-4.52-8.09-4.62-5.76-.15-11.87-1.12-17.23-.67-8.53.71-17.22-.62-25.61,1.58-1.31.34-2.48.84-3.86.33-2.53-.94-6-2.19-6.7,1.24-.53,2.7,1.67,5.79,4.95,7,3.44,1.23,6.87,2.49,10.34,3.58s3.62,3.67,3,6.42c-.76,3.28-2.62,2.43-5.29,1.77-3.62-.89-7.6-.36-11.43-.38-1,0-2.46.46-2.31,1.43.43,2.67.63,5.63,2.77,7.6A8.92,8.92,0,0,0,39,620.68c6-.13,12-.12,18,0,2.67,0,5.72-.93,7.4,2.54.6,1.25,2.14.88,3.1.14,4.05-3.16,8.77-2.55,13.42-2.7,3.94-.13,8,.94,11.79-1.14.4-.22,1.23-.38,1.41-.18,4.5,5,6.22-.28,9.31-2.12,11.44-6.79,21-16.17,32.2-23.21,6.85-4.29,7.16-4.58,11.54,2.54,5.83,9.45,11,19.29,16.54,28.92,2.38,4.15,5.1,8.11,7.49,12.26,3.43,5.95,3.36,6,3.78,15.59,5.22-5.54,10.11-10.57,14.81-15.79,3.43-3.81,7.34-7.2,9.8-11.91,2-3.91,6.78-5.24,9.46-8.67,12.88-16.47,28-31,42.07-46.31,8.79-9.56,17.88-18.85,26.78-28.31,4.72-5,10.85-9.31,8.95-18.36,3.46,5.37,5.28,3.26,7.15-.35.54-1.05,2-1.68,3.11-2.36,1.64-1,3.1-2.28,2.89-4.3s-2-2.6-4-3.06c-18.82-4.43-37.25-10.29-55.91-15.34-19.77-5.35-39.32-11.62-59.05-17.09-18.67-5.19-37.13-11-55.57-16.82-7.25-2.3-14.23-5.5-21.19-8.58-6-2.68-7.66-8.27-6.37-16.94,1.91-12.82,6.5-24.49,12.8-35.77,2.25-4,2.42-9.24,3.28-14,.78-4.23,3.26-6.75,7.07-8.32,6.82-2.82,14.28-2.55,21.29-4.41.64-.17,1.34-.18,1.84-1.78-5.33-.52-10.29-2.28-15.7-2.11-6.86.21-6.59.18-3.91-5.76,2.51-5.57,6.43-8.59,12.21-10.6,10.91-3.81,21.28-9.08,32.4-12.37,1-.3,2-.85,1.88-2-.16-1.62-1.63-1.5-2.72-1.41-6.24.51-12,2.84-17.52,5.44C145,348.8,139.36,352,133.58,355c-1.07-.94-.69-2-.12-3,3-5.56,5-11.55,8-17.11,2.34-4.26,1.91-9.36-.44-13.91-1.2-2.32-2.09-4.6-.36-7,.46-.64,1.41-1.72,1.65-1.6,3.13,1.5,6.15-.52,9.23-.13,3.6.46,5.3,2.19,4.75,6-1,6.64,2.9,11.82,5.69,17.19,2.1,4.06,6.33,2.95,9.88,2.37,7.76-1.27,15.52-2.66,23.22-4.26,6.26-1.3,12.91-1.85,17-8,1.51-2.29,3.88-2.84,6.64-2.24,5.66,1.23,11.42,2,17.15,2.84s8.63,5.92,11.56,10.21c2.49,3.65,3.58,8.18,6.29,11.85a8.94,8.94,0,0,1,1.47,6.21c-.16,1.83-.18,3.7,1.4,5.08s1.63,3.07.76,5a6.48,6.48,0,0,0,1.76,7.79c6.14,5.25,9.84,12.77,17.09,17.08,5,3,7.36,8.89,11,13.42a33.68,33.68,0,0,0,9.59,8.6c7.61,4.2,12.75,10.91,19.08,16.39a244.42,244.42,0,0,0,36.29,26.18c2.64,1.55,4.88,1.71,6.49-.83,6.74-10.67,16.63-18.52,24.77-27.93,2.94-3.4,6-6.69,9.14-9.92,2.1-2.16,2.95-3.44-1-4.48-17.64-4.6-33.29-13.41-47.33-24.69-9.23-7.43-17.92-15.54-24.93-25.53-6.2-8.83-12.68-17.56-17.35-27.15a186.5,186.5,0,0,1-13.61-38.95c-4.11-17.4-4.35-34.85-4.19-52.46,0-4.28-1.11-7.27-4.6-10.66a302.9,302.9,0,0,0-24.84-22.1c-9.22-7.17-18.36-14.76-29.17-19.71-.71-.32-1.3-1.29-2.18-.68a2.65,2.65,0,0,0-.71,3.2c2.91,8.61,4.13,17.74,7.83,26.09,6.4,14.44,12.63,29,19.53,43.16,7,14.46,15.14,28.34,23.56,42.08,6.67,10.9,13.26,21.83,20.54,32.35,6.47,9.34,12.68,18.85,19.19,28.15,11.64,16.65,23.45,33.18,35.12,49.81,4.09,5.82,7.95,11.79,11.93,17.68.81,1.2,2.43,2.47.71,3.81s-3.11-.19-4.08-1.54c-3.68-5.12-7.28-10.3-10.91-15.46-6-8.5-12-17-18-25.5-7.46-10.67-14.55-21.62-22.39-32-9.27-12.29-16.57-25.85-25.55-38.33-5.48-7.62-9.41-16.33-14.33-24.37q-10.1-16.49-19.05-33.61C240.26,251.85,234.87,239,229.62,226c-2.52-6.22-6-12.09-7.45-18.7-1.84-8.53-5.64-16.58-5.9-25.5-.09-3.14.48-4.2,3.47-2.27,6.54,4.19,13.15,8.28,19.67,12.5a202.89,202.89,0,0,1,36.3,29.83,26.36,26.36,0,0,0,4.85,3.41c1.45.93,2,3.88,4,3,1.68-.77,2-3.33,2.34-5.29,3.86-22.13,12.33-42.44,24.36-61.3A155.34,155.34,0,0,1,332,135.52c1.12-1.12,3.23-2.05,2.51-3.89s-2.94-1-4.48-1q-62.76,0-125.5,0c-6.86,0-6.92,0-5-6.69.57-2-.05-4.34-1.65-3.49-3.6,1.91-7.22-.71-10.68,1.07s-5.75-.2-7.4-3.06,1.06-4.68,2.71-5.53c3.55-1.82,3.07-3.83,2-6.91-1.74-5-.63-10.24-.69-15.37-.05-5-2.33-7.55-7.07-8.78-4-1-4.77,1.52-4.18,3.94a15.87,15.87,0,0,1-.8,10.67,2.89,2.89,0,0,0-.14,2c2.16,5.7-.71,12.4,4.12,17.74,2.29,2.52.19,5.06-3,5.72-1.76.36-3.91.68-5.44,0-6.57-2.92-12.92,1.2-19.41.3-2.2-.31-5.13,1.22-6.24-1.47-1.06-2.54-1.58-6.33.23-8.16,4.19-4.25,2.38-9.13,2.28-13.65-.07-2.89-1.55-5.67.13-8.65a2.75,2.75,0,0,0-.66-3.23c-1.46-.11-1.48,1.08-1.72,2a3,3,0,0,1-3.37,2.35c-2.09-.15-2-1.9-2.08-3.38-.56-6.73-.22-13,7.5-15.86a1.48,1.48,0,0,0,.69-2.44,1.56,1.56,0,0,0-2.57-.19c-4.28,4-6.58.88-8.19-2.6a91.78,91.78,0,0,1-6.05-15.7c-.92-3.62-4.51-5.51-5.95-9-.72-1.72-2.43-.29-3.08,1.37-.79,2.07.5,3.93.38,5.91-.38,6.44.42,12.86-1.07,19.36a29.64,29.64,0,0,0,.5,14.34A22.92,22.92,0,0,1,118.55,96c-1.35,4.44-.63,8.94-.64,13.4,0,3.19,3.31,3.31,5.18,4.75,1.52,1.17,3.9,1.69,3.46,4.3s-2.23,3.36-4.94,3.78c-5.94.93-11.53-.3-17.24-1.37-6.15-1.14-12.19-3.09-18.61-2.45-2.64.26-5.72.36-6.37-3.21-.59-3.24,1.68-4.16,4.41-4.79a4.52,4.52,0,0,0,3.46-4.94c-.57-9.34.87-18.53,1.69-27.77.71-8-2.19-15.74-1.79-23.8A121.5,121.5,0,0,1,89,38.14c.76-4.16,4-5.94,8-4.47,2.29.85,4.59.62,6.91.68,3.49.08,8.23-1.34,10.24.41,4.43,3.86,8.26,2.64,12.84,1.49,4.13-1,7.92,1.86,12.12,2,2.51.06,3,2.7,3,5,0,5.84,0,11.67,0,17.5,0,1.57-.64,3.36,1.13,4.79,1.81-1.33,1.1-3.28,1.14-4.92.07-3,.15-5.58,3.41-7.6,3.81-2.35-.36-4.17-1.5-5.8-1.43-2-2.56-3.91-1.68-6.4s3.08-3.61,5.34-4c1.49-.26,3.16.86,4.76.9,6.66.16,13.34-.05,20,.28,4.11.2,1.62-3.06,3.06-5.07,4.09,4.55,9.69,5.67,15,7.4,5,1.63,10,3.09,15.1.15a8.6,8.6,0,0,1,4.87-.81c1.53.06,3.1.18,3.8,1.82s-.14,3-1.25,4c-9.57,8.73-7.07,19.39-4.91,30a4.58,4.58,0,0,0,.53,1.91c1.56,1.91.42,6,2.94,6.17s3.28-3.25,4.48-5.41c.45-.81,1.32-1.81,2.12-1.92,5.17-.75,5.48-4.58,5.59-8.52.1-3.33-.06-6.67.08-10,.2-5,.24-9.63-5.34-12.22-2.09-1-1.46-3.4,0-4.68,2-1.76,4.58-3.66,7.17-2.8,9.49,3.15,19.59,2,29.18,4.67,4.34,1.2,9.16,1.21,13.71,1.65,6.2.6,10.47,1.65,11.06,8.83.29,3.55,1.67,7,2.27,10.55.23,1.33.53,3.18-1.26,3.94s-2.76-.46-3.94-1.44c-2.37-2-3.65-4.72-5.23-7.24-3.4-5.4-9.81-6.82-14.29-10.84-1.48-1.32-2.85.18-2.87,2-.1,7.5-.1,15-.12,22.5,0,1.06.27,2.23,1.49,2.18,2.15-.09,4.45-.26,6-1.93,1-1.05,1.45-2.61,2.37-3.77,1.44-1.8,3.35-2.81,5.71-2.06,2.2.7,2.28,2.62,2.28,4.51,0,2.67-.08,5.33,0,8,.13,3.25,2.11,4.15,4.74,2.84,1.82-.9,4.52-.94,5.38-1.87,3-3.25,7-2.42,10.41-3.7a14.19,14.19,0,0,1,11.56.46,76.29,76.29,0,0,0,9.18,3.77c1.32.44,3.12.72,4.13-.76.8-1.18-.31-2.11-.92-3.09-3.64-5.85-4.14-12.73-6.14-19.11-.78-2.5,1.46-4.25,2-6.49,1.84-7.3,4.85-14.05,12.19-17.78,2.08-1.06,4.17-2.12,5.83-.14,1.39,1.67,2.91,3.83,1.17,6.34-4.71,6.8-1,13.43,7.36,15.12,6.56,1.33,13.63.4,19.68,4.09.85.52,2.07.86,2.48,1.62,2.88,5.38,5.67,6.27,8.92.27.7-1.29,2.45-.7,3.75-.75,5.7-.25,7.47-3.07,8.9-8.52,2.45-9.32.37-18-1.5-26.92-.76-3.65,1.76-4.85,4.42-6.23,4.53-2.35,9.79-2.65,14.39-3,5.89-.43,9.61-4.38,14.66-5.66,7.08-1.79,14.19-3.07,21.47-.71,4.38,1.42,8.2-2.06,12.51-1.83.78,0,1.93-.92,2.32-.63,4.21,3.16,8.16.14,12.24-.23,6.88-.63,13.33,2.35,18.65,5.64,5.51,3.4,6.84,10.73,7.72,17.21.68,5,.44,9.84-5.27,12.55-2.52,1.2-3.17,3-.74,5.93,2.24,2.66,3.5,6.38,4.44,9.85a58.19,58.19,0,0,0,6.71,15.42c.63,1,1.3,2.3,2.59,1.82,1.86-.68.67-2,.43-3.31a52.91,52.91,0,0,1,.09-21.16c1-4.52-.78-9.08-1.94-13.42-1.19-4.51-1.53-8.92,0-13.19A4.82,4.82,0,0,0,497,18.3c-1.52-1.6-4-3.41-2.07-5.92,1.55-2,4.32-3.2,6.75-2.12,4.37,1.94,8.84,1.3,13.28,1.29,5.79,0,11.12,3.2,17,2.18a1.73,1.73,0,0,1,2,1.77,3.27,3.27,0,0,1-1.75,3.35c-5.23,2.66-6.34,7.29-6.17,12.58.07,2.18-.59,4.25-.9,6.35-.67,4.57-3.69,8.95-1,13.95.82,1.52.55,4-.37,5.84-2.82,5.73-2.2,11.28-.1,17.18,1.34,3.75,1.81,7.69,5.33,10.28,1.17.86,2.09,1.34,3.59.86,8.06-2.59,12.83-9.46,13.93-18.14.62-5,.91-10.22,3.49-14.78a10.06,10.06,0,0,0,1.28-6.25,34.64,34.64,0,0,1,2.91-18.47c2.08-4.72-1.91-5.57-4.87-6.91-1.26-.57-3.41-.12-3.27-2.28.16-2.38,2.33-2.06,3.88-2.09q8.49-.15,17,0c2.33,0,4.39.87,4.73,3.51s-2.16,2.41-3.73,3c-4.91,1.9-9.1,10.74-7.43,15.69.8,2.35,2.67,2.6,3.49.62,2.84-6.82,9.75-9.71,14-15.29,5.08-6.68,13.65-9.74,21.36-7.07,6.3,2.18,13.83.28,19.17,5.84,1.59,1.66,4.39.84,6.58-.41a4.66,4.66,0,0,1,5.62.31c1.64,1.43,1.68,3.54,1.24,5.58-1.48,6.93-4.41,13.49-5,20.7-.16,2.13-1.92,4.91-4.39,4.53-3.06-.47-6.09-2.12-6-6.18a25,25,0,0,0-4.31-14.94c-2.11-3.16-5.65-4.48-7.82-7.47-1.14-1.57-2.53,0-3.72,1-6.91,5.81-9.72,13.62-10.67,22.21-1,9.2-4.3,17.86-6.12,26.87-.88,4.33-1.34,8.58.13,12.77,1.07,3,2.94,3.48,4.93.64,3.94-5.58,5.35-12,6.3-18.64a3.58,3.58,0,0,0-1.31-3.57c-2.63-2-2.51-4.94-1.07-7.16s4.12-3,7.1-2.38c8.46,1.91,17,3.55,25.43,5.51,2.78.65,3.71-.86,4.37-2.83,2.17-6.53,6-12.21,11.49-15.93,6.43-4.34,11-11.33,18.86-13.5,5.55-1.54,11.27-3,16.44,1.4.68.58,2.12,1.11,2.73.78,4.54-2.46,7.88.45,11.39,2.39,2.53,1.39,5,1.88,7.52.3s4.55-.89,5.62,1.76,2.65,3.16,5.71,3c11.7-.65,23.07,1.19,33.69,6.52a2,2,0,0,1,1.35,2.36c-.35,1.67-1,3.38-2.8,3.82-6.33,1.51-7.49,7.19-10,11.88-4.9,9.07-5.18,19.67-10.35,28.85-2.4,4.26-4,9.68-5.57,14.68-.82,2.59-.38,4.51,3.54,3.35,7.48-2.21,14.08-5.63,19.18-11.62a13.78,13.78,0,0,1,4.27-3.39c1.36-.69,2.72-1.63,4.07-.2s1.73,3.54.34,5c-2.92,3.06-3.38,7.11-4.94,10.72-.42,1-.87,2,.15,2.65.54.33,1.6,0,2.33-.23,2-.7,3.91-1.85,4-4,.66-11.52,7-21.18,10.54-31.71a103.2,103.2,0,0,1,4.41-9.9c1.93-4.17,4.14-7.93,1.78-13.1-1.71-3.75,1.82-7.28,5.94-7.58,13.64-1,27.08,2.28,40.7,1.68,3.65-.17,3.89,2.1,2.3,4.58a44.54,44.54,0,0,0-5.94,15.64c-.93,4.74-4.5,5.81-8,6.82-2.36.68-3.08,1.71-3.56,4-1.42,6.65-5,12.6-6.28,19.35-.52,2.81-3.4,3.12-5.6,3.31-2.66.24-2.76-2.36-3.28-4.17-.36-1.21.46-2.66-.73-3.8-1.67-.41-1.74,1.12-2.31,2-3,4.68-4.16,10.19-6.34,15.24-1.09,2.51-.32,2.66,2.5,2.53,8.69-.39,12.7-7,17.7-12.26,1.41-1.49,2.46-3.48,4.8-2.62s1.74,3.22,1.45,4.83a123.36,123.36,0,0,1-5.42,20c-.73,2-2.58,2.57-4.56,1.68-4.65-2.09-9.32-1.82-14.06-.44-.62.18-1.4.57-1.89.36-9.13-4-19-1.66-28.28-3.24-16.16-2.75-32.94-2.57-48.35-9.25-3.38-1.47-6.92-.59-10.38-.75-2.54-.12-5-.65-5.38-3.38-.41-3.45-2.32-3.85-5.11-3.89-5-.07-9.91-.6-14.69,1.51A6.93,6.93,0,0,1,656,108c-4.48-1.84-9.12-1.45-13.74-1.84-5-.41-15.63-10.14-15.75-16.39-.09-4.42-1-9,1.17-13.27.78-1.52.85-3.47-.8-4.51-1.83-1.16-3.35-.11-4.87,1.21-4.38,3.78-5.79,8.71-5.92,14.22C615.94,94,614,96,607.39,96a35.56,35.56,0,0,0-6.8,1c-5,1-9.91,4.81-15.19.84a1.53,1.53,0,0,0-1.44,0c-7.28,4.91-11.86-1.57-15.86-5a23,23,0,0,1-8.27-16.49c-.09-2.83.06-5.67,0-8.5,0-1.57.4-3.85-2.07-3.72-2.11.1-2.3,2.25-2.26,3.88a28.92,28.92,0,0,1-1.39,9.31c-.74,2.38-1.63,4.28-4,5.33a6.7,6.7,0,0,0-3.82,3.8c-1.7,5.5-6.46,6-10.88,7.24-1.35.37-2.22-.3-3.06-1.18s-2.14-1.8-3.55-1.16c-6.13,2.83-10.74-.86-15.56-3.58-1.72-1-3.29-2.21-5-3.28-2.25-1.46-4.4-2.69-5.87,1A2.81,2.81,0,0,1,498.55,87c-6.37-2.93-13-1-19.47-1.19-3.33-.09-6.57,0-9.78-1.44-4.59-2-8.55,2.16-12.94,1.88-5.85-.38-12,2.11-17.5-1.37-2.68-1.71-4.36.37-6.48.82-1.72.36-3.63,1.57-4.91-.65-1.13-2,0-3.56,1.31-4.91,4.61-4.77,4.43-10.57,3.73-16.54-.25-2.14-.24-4.31-.37-6.46-.45-7.61.68-15.24-1.32-22.85a16,16,0,0,1,.66-10.81c1.14-2.44-.28-4.19-1.38-6-1.33-2.17-3.57-1.8-5.39-1.15-2.3.82-1.17,2.69-.62,4.22,1.36,3.79.92,7.85,1.59,11.77.55,3.24-2.26,6.44-5.75,7.24-3.91.89-5.43,3.38-6,6.75-1.42,8.63-7.77,16.2-5.51,25.59.7,2.91-.7,6.53,3.81,8.13,1.92.68,1.53,3.91.2,5.8-1.13,1.62-2.54,3.85-4.16,4.16-4.42.87-4.8,4.76-5.65,7.54s-1.24,5-4,6.69c-2.31,1.41-.79,5.53-4.08,6.47.72,1.55,1.82,1.39,2.78,1.39,15.66,0,31.43,1.15,47-.28,15-1.38,29.91-.44,44.84-1.07,7.64-.32,15,2.27,22.41,2.77,11.63.79,22.53,4.67,34,6.19,15.66,2.08,31.26-.11,46.74,1.62,8,.88,16,1.56,23.94,2.63,6.92.94,13.13,5,20.31,4.1,1.07-.13,2.73-.09,2.58,1.5s-1.76,1-2.86,1.22c-3.28.53-6.14-1-9.16-1.75-11.07-2.93-22.46-3-33.77-4.06-8.21-.75-16.12,1.25-24.16.34a9.06,9.06,0,0,0-5.33,1,9,9,0,0,1-6.35.57c-9.12-2.21-18.51-3-27.65-5-6.55-1.43-13.15-2.69-19.65-4.33a23.07,23.07,0,0,0-10.05-.27c4.6,4,8.72,7.39,12.65,11A159.9,159.9,0,0,1,545,168.48c8.9,16,14.3,33.2,19,50.72.54,2-.95,5.06,1.45,5.86,2.08.7,3.48-2.17,5.13-3.41,7.67-5.72,15.22-11.63,22.52-17.81s15.62-11,23.72-16.15a33.59,33.59,0,0,1,4.89-2.5c1.63-.69,2.61-3.52,4.46-2.48,2.13,1.21,1,3.95,1,6,.12,5.08-2.55,9.52-3.59,14.36-3.82,17.65-11.89,33.77-18.92,50.22-4,9.4-9.52,18.17-14.52,27.13S580.07,298.22,575,307.12c-5.42,9.51-11.71,18.46-17.71,27.59-10.88,16.54-22.46,32.6-33.6,49-4.77,7-10.13,13.83-15.29,20.65-5.64,7.46-10.56,15.52-16.22,23-4.88,6.47-9.59,13.06-14.42,19.56q-8.6,11.55-17.27,23c-5.18,6.83-10.56,13.52-15.62,20.44-5.73,7.85-12.25,15.13-17.22,23.53a2.15,2.15,0,0,1-.66.74c-7.72,4.41-6.15,12.41-7.43,19.28-1.12,6,4,9,7.05,12.49A30.58,30.58,0,0,1,434,565.54c.33,6.76,3.61,12.74,4.64,19.34,1.57,10,2.35,19.85-3.63,28.85a39.7,39.7,0,0,1-10.89,11.51c-1,.67-2.08,1.31-3.21.54s-.94-2.08-.5-3.18c3.36-8.54-1-15.14-5.65-21.47-5.81-7.86-12.24-15.11-14.06-25.4-1.67-9.44,1.93-17.27,5.46-25.28,2.47-5.62,5.39-11,8.07-16.57a2.64,2.64,0,0,0-.44-3.14,17.9,17.9,0,0,0-5.28,6.16c-1.11,2-2.55,2-4.09.69-6.7-5.9-13.36-11.85-20-17.77-3.19-2.84-5.12-6.47-6.71-10.37-.58-1.41-1.57-3.93-3.37-2.3-1.62,1.46-6.28,1.36-4.27,5.37s-.21,6.34-2.8,8.93c-4.39,4.41-8.42,9.19-12.8,13.61-3.15,3.18-5.4,6.31-11.74,5.36-13.65-2.07-23,.51-31.23,15.54-4.9,9-8.34,18.68-13.69,27.46-1.41,2.32-3.32,4.11-4.83,6.29-3.87,5.58-6.31,11.49-4.75,19.35-2.22-2.86,0-6.58-2.35-7.19-3.16-.83-3,3.29-4.4,5.07-10.58,13-20.87,26.22-32.75,38.06a142.19,142.19,0,0,1-33.15,24.82c-9.27,5-14.4,12.92-16.21,23.42-.82,4.79-1.08,9.51-1.43,14.29-.28,3.75-2,6.52-6.12,8.06-8.64,3.23-17.15,4.72-26.16,1.6-6.1-2.12-9.89-6.94-12.49-12-1.7-3.31-2.7-2.61-4.51-1.35-6.68,4.65-13.62,8.85-20.57,13.08-11.6,7.07-9.81,6.85-15.72-3.81-5-9-10.16-18-15.16-27a4.48,4.48,0,0,0-3-2.28,5.77,5.77,0,0,1-2.45-1.54c-1.41-1.45-.19-4.87-3.26-5-4.81-.19-9.64-.07-14.47,0a1.74,1.74,0,0,0-1.69,2.06c.16,1.36,1.2,1.76,2.4,2.17,8.44,2.88,14.91,8.75,21.34,14.56,1.28,1.17,2,3.65,1.94,5.52-.08,13.2,1,26.86-11.7,36a8.22,8.22,0,0,1-3,1.74,15.69,15.69,0,0,0-2.37.79c-3.67,1.42-7.23,4.08-6.29,7.88.79,3.16,4.74,5.43,8.34,6.09,9,1.62,16.76,10.56,16.8,19.75,0,11.76.09,11.1,11.56,11.92,10.73.78,21.43,1.39,32.18,1.38,2.55,0,5.1.15,6-4.49.73,3.77,2.27,4.5,4.56,4.47,8.49-.13,17-.17,25.48-.18,2.71,0,2.89-1,1.4-3a3.85,3.85,0,0,1-1-1.69c-.7-8.59-6.5-9-13.21-8.7-5.44.26-10.9-.22-16.36-.29-.89,0-1.73.18-1.77-1,0-.75.62-1.09,1.32-1.21a12.46,12.46,0,0,1,6.92.38c5.38,2.29,10.89.82,16.33,1,2.72.1,4.1-1.51,4.35-4.38.72-8.33.35-9.15-7.91-10.21-6.43-.82-12.89-1.66-19.41-1.44-1.12,0-2.44.45-3.23-.73-.52-.78,0-1.55.44-2.29,1.45-2.42,1.82.7,2.95.57,4.52-.48,8.89,1.38,13.36,1.23,5.59-.19,10.87,1.18,16.2,2.43,4.7,1.1,6.66,5.12,9,8.72.86,1.29,1.3,3.75,3.26,3.18s1.11-3,.89-4.39c-.9-5.7-1.64-11.47-3.82-16.87-1.63-4-5.06-5.92-9-7.09-11.21-3.28-22.61-2.21-33.88-1.64,1.56-1.24,6.82-3.35,9.53-2.64,7.35,1.92,15.25-.6,22.18,2.21,6.36,2.58,10.25-.19,14.95-3.41,7.81-5.37,16.91-5.54,26-4.82,6.56.52,13.29-.12,19.48,3.17,1.89,1,4.23.2,6.3-.67,10.58-4.46,21.67-3,32.51-2a48.44,48.44,0,0,0,13.26-.84,66.57,66.57,0,0,1,31.51,1.24c6.74,2,12.65-1,18.93-1.7,1.59-.18,3.09-1.2,5.1.19-3.69,1.08-7.08,2-10.44,3.07-3,.92-3.57,2-1.91,5.35,3.76,7.67,8,12,17.69,10.28,6.31-1.11,13.17,1,19.35,3.84a10.67,10.67,0,0,1,5.92,5.82c3.44,9.78,12.29,10.35,20.26,12.11,4.89,1.08,9.92-.49,14.89-.85,3.81-.28,5-2.8,4.58-6.58a26.47,26.47,0,0,0,6.3,17.08c1.55,1.81-.14,2.75-1.78,2.9-14.24,1.26-28.54,5.89-42.68-.57-1.6-.73-2.88-.07-4.19.74-6.07,3.76-12.25,6.06-19.69,3.88-5.05-1.47-11.51-.19-15.47-2.89-9.68-6.61-18-.41-26.92.75-7.25,1-14.47,2.4-21.69-.13-1.33-.46-3.18-.71-3.74.37-3,5.78-8.93,5-13.86,6.46a2.91,2.91,0,0,0-1.76,1.3,28.07,28.07,0,0,0,13.57.39c5.61-1.24,11.22-.44,16.83,0,1.82.13,3.63.5,5.44.5,16.54,0,33.26,1.47,49.56-.53,10.71-1.32,20,4.43,30.36,2.53,3.2-.58,5.8,4.33,3.45,6.86-5.23,5.64-1.34,11-.35,16.33a18.76,18.76,0,0,0,4.85,9.18c.59.62,1.22,1.36,2.09,1.08s.93-1.26,1-2.1c.32-5.75-.78-11.61,1.7-17.2.62-1.4-.78-2.78-1.79-3.92s-2.46-2.33-2.73-4.09c-.19-1.29-.61-2.77.46-3.81s2.13.06,3.08.59c7.76,4.34,14.75.39,21.82-2.1,2.07-.73,4.34-2.11,5.86,0,1.37,1.89.89,4.48-.15,6.68a45.94,45.94,0,0,0-3.65,28.7,47.11,47.11,0,0,1,.87,12.36c-.37,5.11,1.28,9.82,1.91,14.73.31,2.37,2.41,3,4,3,2.11,0,1.62-2.13,1.51-3.52-.25-3.44.85-7-1.06-10.29-1.58-2.73-.24-4.63,2.25-5.49s5.67-.43,6,2.64c.62,6.48,6.36,9.55,8.85,14.69a1.76,1.76,0,0,0,2.12.9c1.47-.33,1.58-1.5,1.58-2.72,0-8.13,0-16.26,0-24.39,0-4-.28-8,0-12,.42-6-2.84-11.58-2-17.67.31-2.27-2.41-2.45-3.58-3.76s-2.77-2.27-2.2-4.19c.62-2.12,2.58-2.43,4.47-2.43,10.67,0,21.33,0,32-.05,2.22,0,4,.63,4.56,3,.62,2.53-1.21,2.86-3,3.59a6.19,6.19,0,0,0-4.34,6c-.37,9.28-1.29,18.5.81,27.78a18.75,18.75,0,0,1-.75,11.8,7.89,7.89,0,0,0-.48,2.43c-.41,3.94.27,8,4.42,9,3.65.84,5-3,6.29-5.84,1.12-2.57,2-5.26,3.06-7.84a4.54,4.54,0,0,1,5.65-2.92c7.09,1.53,13.05,4.17,18,10.31a15.94,15.94,0,0,0,17,5.31c1.73-.51,4.1-.53,4-2.91s-.17-5.3-2.68-6.62a40.93,40.93,0,0,0-9.61-3.74c-7.81-1.88-16.24-2.92-20.63-11.76-2.17-4.38-6.87-7-7.58-12.9s.44-11.78,5.94-15.3a15.44,15.44,0,0,0,4.7-4.92c3-4.56,6.61-8.41,12.86-7.8,1.19.11,2.36.18,3.12,1.24,1.83,2.56,3.7,2.3,5.78.25,2.36-2.33,5.32-2,7.9-.85,2.86,1.28,5.26,1,8.11,0,6.69-2.48,8.75-.88,8.69,6.17-.05,5.33,1.22,10.46,2.44,15.57.37,1.5.52,2.52-.69,3.5s-2.6,1.44-4.11.47a7.91,7.91,0,0,1-3.28-3.69c-3.42-9-11.86-12-19.36-16.06-2.5-1.34-8.16,3.27-9.27,7.09-1.23,4.25.42,7.08,4.14,8.75,7.86,3.54,15.8,6.82,23.94,9.65,9.25,3.22,15.51,23.82,6.34,32.73-5.06,4.91-10.66,8.49-16.35,8.3-6.23-.21-12.33,1.65-18.38.56-2.93-.53-5.58-1.66-8.39.09a1.35,1.35,0,0,1-1,.05c-7.74-2.71-14.51,1.79-21.73,2.92-.32.06-.8.29-.94.16-4.6-4.19-8.08.91-12.06,1.53-6.32,1-12.59.39-18.89.37-8.8,0-17.7-.6-26.35.93a81.12,81.12,0,0,1-25.81.4,169.48,169.48,0,0,1-22.09-4.46c-6.68-1.92-11.61-8.15-12-17.35-.28-5.94-1-12.12,4.95-16.3a3.71,3.71,0,0,0,1.23-4.55c-4.07-8.63-6.58-18.07-13.11-25.44-1.43-1.62-3-2.73-5.19-2.1a4.56,4.56,0,0,0-3.45,4.91c.06,2.51-1.22,4.49-2.22,6.54a10.63,10.63,0,0,0-.66,8.25c1.87,5.42,1,10.8.78,16.27-.2,5.92.3,11.87.58,17.8.08,1.57,1.58,2,2.71,2.66a3.69,3.69,0,0,1,1.5,5.18c-1,2.27-2.92,2.66-5,1.5-3.62-2-8,0-11.61-2.32-1.09-.7-2.05.61-3,1.34-3.29,2.63-6.57,2.87-9.8-.19-.57-.54-1.69-1.39-2-1.2-6.27,3.72-12.3-1.6-18.46-.39-.65.13-1.43,0-2,.27-5.24,3-5.82.1-5.71-4.26.07-3.14.47-6.31-.46-9.44-.56-1.88-.31-3.85,2-4.47s4.66-.62,5.63,1.85c2.94,7.55,10.78,8.33,16.4,12.13,1.64,1.11,2.47-.15,2.48-1.77,0-6.33.13-12.67-.08-19-.1-3.09-2.62-4-5.25-2-2.2,1.66-3.39,4.13-4.33,6.61-.88,2.3-2.33,3.11-4.62,2.66a3.23,3.23,0,0,1-2.5-4.24c1.73-6.28.09-12.56.45-18.83.13-2.25.09-4.67,2.62-5.35s3.66,1.71,4.43,3.29c1.27,2.62,3.91,4.05,5.05,6.72a2.34,2.34,0,0,0,2.83,1.51c1.16-.34,1.31-1.46,1.32-2.45,0-8.16.1-16.33,0-24.49,0-2-1.24-3-2.77-1-3.9,5-9.85,7.16-14.79,10.7-1.94,1.39-2.3,3.6-3.64,5.27-1.71,2.11-3.74,3.63-6.43,2.73s-1.28-3.43-1.48-5.26a8.76,8.76,0,0,1,1.18-5.26,6,6,0,0,0-.59-6.62c-1.13-1.59-2.68-.92-4-.16A5.21,5.21,0,0,0,287,806c.1.65.58,1.41.38,1.91-5.57,13.73,1.08,27.78-1.1,41.59-.52,3.31,1.91,5.22,4.28,6.77,1.68,1.09,2.5,2.26,1.7,4.08-.93,2.13-2.6,2.29-4.56,1.34-2.47-1.19-5.42.83-7.07.25-7.5-2.65-14.09,5.94-21.49,1.3-.5-.31-1.6.15-2.35.45a13.83,13.83,0,0,1-10.68-.26c-2.24-.92-4.87-1.42-6.72,0-2.77,2.18-4.6,3.46-7-.48-1.14-1.82-2.22.46-2.55,1.47-1.89,5.73-6.62,3-10.18,3.43-3.36.42-4.08-3.31-6.28-4.81-.87-.6,0-2.56,1-3.53,4.17-4,5.55-9.31,6.95-14.63s4.59-6.53,9.22-3.31c.67.46,1.62,1.22,2.17,1,5.45-1.84,7.9,1.93,10.36,5.48,3.3,4.8,8.76,6.21,13.47,8.77,2.15,1.17,2.12-.83,2.48-2.34,1.08-4.6.08-9.15-.15-13.7-.12-2.45,1.39-6.32-1.71-7-3.4-.78-5.4,2.44-6.63,5.57-.66,1.67-1.21,3.52-3.39,4-2.75.58-5.53-.22-4.42-3.22,2.64-7.19-.67-14.05-.18-21,.12-1.82-.22-3.87,2.34-4.28,2.24-.36,4.09.44,4.8,2.63.93,2.89,3.26,4.56,5.17,6.61.82.89,1.36,2.65,3.07,1.84,1.23-.58,1-2,1-3.13,0-7.17,0-14.33,0-21.5,0-1.12.3-2.53-1-3.08s-2.15.59-2.84,1.5c-1.15,1.55-2.83,2.28-4.45,3.12-4.56,2.39-9.23,4.49-11.43,9.83a5.36,5.36,0,0,1-6.22,3.18c-2-.39-3.85-1.68-2.9-3.73,2.25-4.86.93-9.86,1.08-14.76.11-3.38,1.3-5.79,4.49-4.58,7.12,2.68,14.36-1.18,21.4,1.06C259.08,794.53,261.06,793.35,264.21,791.55Zm219.6-522h0c0-13.48,0-27,0-40.45,0-6.82-.09-6.51-6.86-6.9-18.45-1.07-36.75,2-55.17,1.71-17-.25-34,.06-50.95-.1-4,0-5.57,1-5.37,5.3.67,14.34.09,28.68,1.22,43.06,1.1,13.9.49,28,.15,41.94-.14,5.85,2.06,10.12,5.87,14.14,8.1,8.56,16.53,16.89,23.88,26.08,4,5,3.91,3.36,5.56-1.08,3.5-9.48,9.58-16.6,20.17-18.69a26.44,26.44,0,0,0,7.06-2.17c2.07-1.09,2.92-.85,3.67,1.28a4,4,0,0,0,1.84,2.23,25.59,25.59,0,0,1,13,11.65c1.27,2.28,2.82,2.54,4.7.46,3-3.31,6.1-6.53,9.2-9.76,5.4-5.62,9.87-12.36,15.7-17.21,5.53-4.6,6.5-9.32,6.4-15.53C483.68,293.47,483.81,281.49,483.81,269.5ZM527,367.32c-3,3.12-5.71,6.47-8.91,9.31-11.55,10.26-23.4,20.12-37.83,26.26-7.6,3.24-15,6.93-23.27,8.43-6.67,1.21-13.6,1.47-20,3.12-11.15,2.86-21.7-.36-32.47-1.17-2.62-.19-4.45-.18-6.15,1.78-3.69,4.25-7.58,8.29-11.15,12.7-7.26,9-15.5,17.17-23.42,25.61-2.16,2.3-3.55,3.39,1.12,4.49a20.89,20.89,0,0,1,13.94,10.37c5.23,9.48,4.85,19.58,1.74,29.33-2.41,7.57,1.37,13.24,5.37,17.49a175.39,175.39,0,0,0,17.51,16c1.87,1.52,3.26,1.39,4.64-.36,3.59-4.55,7.2-9.1,10.71-13.71,5.9-7.74,11.69-15.56,17.6-23.29,5.42-7.1,11.39-13.82,16.28-21.25,6.56-9.95,14.23-19.05,21.23-28.65,4.95-6.78,9.74-13.71,14.95-20.33,6.91-8.79,13-18.25,19.4-27.41S522,377.87,527,367.32Zm22-29.49a416.08,416.08,0,0,0,24.95-39.37c10.34-18.23,21.07-36.27,29.46-55.56,6.41-14.7,12.88-29.36,16.6-45,.31-1.31,1.68-3,0-4.14s-2.78.6-4,1.3c-9.24,5.46-17.77,12-26.24,18.51-6.64,5.12-13,10.6-19.73,15.64-1.92,1.45-4.39,3.31-4.07,6.48a195.29,195.29,0,0,1-.11,39.72,162.4,162.4,0,0,1-14.32,52.41C550.3,330.51,548.41,333.25,549,337.83ZM129.08,674.39A15.46,15.46,0,0,0,135,672q15.79-10.12,31.69-20.1c5.9-3.7,6.36-6.12,2.59-12.12-4.76-7.56-9.69-15-13.61-23.11-2.82-5.81-6-11.47-9.26-17.06-3.74-6.4-8.15-6.84-13.32-1.38a44,44,0,0,1-5.25,4.51c-8.54,6.54-17,13.15-25.53,19.71-2.27,1.75-2.72,3.37-1.44,6.35,6.5,15.11,15.56,28.77,23.89,42.84C125.74,673.26,126.84,674.74,129.08,674.39Zm189.69,80.34,1,0c0,1.13-.06,2.26,0,3.38.91,14.83,6.72,21.31,20.79,25.18,6.2,1.71,12.49,1.49,18.68,2.57,4.15.72,8.51-.75,12.47-2.63,1.48-.7,3-1.87,2.08-3.36-2.11-3.4-3.43-7.09-5-10.72-.79-1.86-2.45-.94-3.92-.74a55.16,55.16,0,0,1-21.71-1.32c-5.78-1.57-10.58-4.11-12.2-10.93-1-4.27-4.63-6.76-9.46-6.32a4.15,4.15,0,0,1-2.38-.24c-8.61-4.21-17.53-2.58-26.29-.87-2.76.54-3.42.1-4-2.4-1.25-5.16-3.69-10.51-8.87-11.77-9.23-2.25-18.8-4.27-28.37-1.28s-9.4,3-6.23,12.48c1.05,3.16,2.54,3.65,5.32,3.6,6.65-.13,13.32-.18,20,0s9.73,3.36,11.18,9.6c.81,3.5,2,7.87,5.86,8.66a74.57,74.57,0,0,0,27,.59c3.16-.51,5.16-1.78,4.15-5.75C318.27,760,318.77,757.3,318.77,754.73ZM268.89,774c1.82-1.75,5.18-1.88,4-5.19-1.63-4.56-1-9.23-1.1-13.86,0-1.54.08-3.1-2-3.44-4.58-.77-9.11-2-13.82-1.38-7.5,1-8,1.58-7.6,8.9a17.79,17.79,0,0,1,0,3.5c-.34,2.37,1.3,6.29-.76,6.8-2.89.73-5.78-1.89-7.82-4.41a14.4,14.4,0,0,1-2.69-5.84c-1.85-7.61-6.2-10.6-14-10.1-7,.45-13.88,1-20.68,2.85-9.31,2.54-10.81,3.42-8.34,11.43a12,12,0,0,1,.23,4.47c-.34,3.85,1.85,5.7,5.16,6,9.1.94,18.22,1.34,27-1.95,2.67-1,4.14-.6,5.4,2.25a16.73,16.73,0,0,0,9.52,9.48,99,99,0,0,0,23.58,6c5.24.68,10.67.64,15.64-2,1.47-.77,3.45-1.2,3.45-3.14,0-1.78-2-2-3.28-2.67a9,9,0,0,1-3.65-3.33C275.3,775.35,273,773.4,268.89,774ZM448.15,214.2V214c13.32,0,26.65,0,40,0,2.09,0,4.91.37,5-2.7.23-7.32,1-14.81-.25-21.92-.89-5.06-6.53-1.61-9.95-2.15-2.19-.35-6-1.71-6.61,2.21a37.9,37.9,0,0,0,.77,14.37c.19.85.7,1.66,1.69,1.31a2,2,0,0,0,1.08-1.45c.11-2,0-4,0-6,0-1.29-.19-2.89,1.5-3.33a9.19,9.19,0,0,1,7.68,1c2.29,1.54,1.58,3.7.81,5.83a5.55,5.55,0,0,0-.43,2.89c.6,2.72,1.28,5.59-2.08,6.76-3.14,1.09-7.05,1.29-9.17-1.25-2.27-2.74-4.71-2.55-7.46-2.59a66.79,66.79,0,0,0-7.49.05c-3.82.4-5.52-.77-5.06-4.92.38-3.46.07-7,.17-10.48.07-2.49-.77-3.59-3.5-3.43-4.32.26-8.66.3-13,.13-3.34-.14-4.4,1.26-4.26,4.42.2,4.33,0,8.67.17,13,.08,2.12-.36,3-2.72,2.87-4.48-.2-9,0-13.48,0-10.68,0-10.64,0-10.68-10.7,0-11.49,1.13-9.3-9.54-9.46-11.46-.17-11.42-.05-11.48,11.22-.05,9.8,1.72,8.9-9.1,8.9-10.43,0-10.43-.06-10.44-10.48s0-10.3-10.28-9.7c-2.71.16-3.9,1.1-3.85,3.9.09,6,.09,12-.05,18-.1,3.79,1.31,5.34,5.28,5.22,13.6-.43,27.19,0,40.82-1C417.48,213.38,432.84,214.2,448.15,214.2ZM367.94,331.12a4.29,4.29,0,0,0-1,3.48c.19,19-.76,38,1.51,56.87a4.55,4.55,0,0,0,2.31,3.94c8.18,5.1,17.63,6.57,26.45,9.81,1.86.68,3.3.1,3.21-2.79-.3-10.15-.24-20.32-.28-30.48,0-2.69-.07-5.28-2.1-7.46C387.86,353.59,379.16,341.35,367.94,331.12Zm67.61,261.35c0-4.68-.16-9.44-2.09-13.7a40.31,40.31,0,0,1-3.25-11.89c-1.07-8.6-4.06-16.43-10.78-22.41-1.95-1.73-4.13-3.08-5.78-.17-3.16,5.56-7.58,10.59-8.38,17.28-1.19,10-1.56,19.74,5.05,28.49,5.45,7.22,12.54,13.47,14.53,22.94a3.28,3.28,0,0,0,2.71,2.67c1.73.17,2.56-1.27,3.3-2.62A35.59,35.59,0,0,0,435.55,592.47Zm48.28-236.15h-.07q0-14.19,0-28.39c0-1.13.38-2.48-.95-3.1a2.49,2.49,0,0,0-3.13.9c-4.5,7.29-11.5,12.38-16.68,19-1.59,2-3.23,4-4.83,5.9-2.07,2.45-6.41,3.1-6.35,7.58.2,14.63.12,29.26.17,43.89,0,2.26.67,3.39,3.36,2.41,6.54-2.37,13.19-4.41,19.75-6.73,3.28-1.16,6.65-2.47,9-5.06s-.48-5.31-.4-8.07C484,375.24,483.83,365.78,483.83,356.32ZM652,92.39c.77,1.38-1.5,4.78,2,5.7,3.67,1,5.3-2,6.72-4.69a76.21,76.21,0,0,0,3.49-7.7c1.49-3.74,2.88-7.45-1.5-10.54-1-.67-2.17-2.54-.68-3.94,2.82-2.63,5.75-5,10.17-3.59,7.94,2.51,16.35,3.24,24.13,6.41a3.16,3.16,0,0,0,4.26-1.62c3.11-6.68,6.67-13.18,8-20.59.53-3.09-1.31-4.32-3.59-5.08-2.84-.94-2.53,2-3.37,3.29-2.38,3.68-1.58,8.44-4,12.18a4.81,4.81,0,0,1-5.07,2.33c-1.8-.2-3.52-.8-3.49-2.83.06-3-1.79-5.4-1.94-8.16-.38-7.13-5.58-11-9.92-15.48-1.21-1.24-2.74-1.09-4,.18-4.07,4.1-7.68,8.6-9.54,14.11-3.69,10.93-5.86,22.36-10.64,32.94A14.12,14.12,0,0,0,652,92.39ZM196.32,336.88c3.46,2.26,6.24.9,8.78,1.56a71.63,71.63,0,0,1,33.37,18.91c5.3,5.28,4.9,7.83,0,13.46-3.59,4.14-7.94,7.44-11.43,11.64-8.68,10.49-17.06,21.17-23.71,33.12-2,3.66-4.6,5.79-9.28,3.4-5.89-3-12.15-5.3-18.13-8.14-3.25-1.55-4.85-3.69-2-7.38,2.65-3.39,3.24-7.42.39-11.11-4.84-6.26-18.39-10.43-25.09-4.72-4.65,4-10,7.16-15,10.64-1.18.81-3.33,1.28-2.21,3.13,1.23,2,3.31,1.1,4.82,0,3.22-2.31,6.46-4.64,9.44-7.26,7-6.09,13-6.88,20.95-2.44,6.11,3.42,6.63,5.65,2.62,11.27-3.63,5.09-3.42,6.8,2.06,9.69,7.32,3.86,14.89,7.24,22.21,11.12,4.52,2.4,6.55,2.15,9.4-2.14,7.79-11.71,15.07-23.83,24.41-34.4,5.16-5.83,11.25-10.8,16.16-16.9a10.4,10.4,0,0,0,.35-12.79c-9.21-11.91-22.26-17.4-36.08-21.34C205,335.25,201,335.49,196.32,336.88Zm100.07,131c-.19,4,1.3,7.25,5.85,8.78a37.36,37.36,0,0,1,6.3,3c6.82,3.84,10.95,1.89,10.59-5.7-.32-6.53,1.68-10.42,7.5-14.09,7.75-4.9,7.89-12.4,2.38-17.81-8.5-8.34-18.52-15-28.81-21.08-3.8-2.25-7.19-1.66-9.84,1.45-8.19,9.58-16.16,19.34-24.2,29-2.6,3.12-2.29,5.83,1.41,7.72,5,2.55,10.11,5,15.25,7.37,2.56,1.16,4.67.36,6.63-1.83,1.77-2,3.09-6.16,6-5C298.58,461,296.13,464.77,296.39,467.9Zm-75-36.42c0,2.49,1.45,3.92,3.42,5.07,5.84,3.42,11.64,6.9,17.5,10.29,2,1.14,3.8.93,6.07-.08,4.24-1.88,5.59-6,8.06-9.18q11.72-15,22.8-30.55c1.74-2.43,2.1-5.58-.41-8.18-3.54-3.68-7.21-7.25-10.61-11.06-6-6.72-8.5-5.06-13.48.81-10.41,12.24-20.4,24.84-30.66,37.2C222.6,427.53,221.39,429.17,221.35,431.48ZM48.69,722.94c5.4-.09,12,.33,18.44-1.91,6.23-2.17,12.57-4,18.83-6.16,1.79-.61,3.28-1.76,3-4-.38-2.68-2.53-2.22-4.27-2.24q-7.23-.09-14.47,0c-2.32,0-5.79-.68-6.73.52C60,713.45,55.66,712,51.6,712c-5.06,0-10.15-1-15.13.22-3,.72-7,1.63-6.74,5.38C30,721,33.15,723,37,723,40.51,722.89,44,722.94,48.69,722.94Zm21.48-53.81c2.77,0,4.94.07,7.1,0,5.59-.23,10.47-1.5,11-8.5.22-3,1.45-5.82,1.87-8.78.39-2.73,2.81-6.65.89-7.87-2.3-1.48-5.7,1.14-8.48,2.54-10,5-17.68,13.3-26.89,19.44-1,.69-1.88,1.52-1,2.86s2.22,2.42,3.78,1.57C62.47,668.21,66.7,669.57,70.17,669.13Zm1,119.28c7.79,3.55,14-3.28,21.46-3.42,2.27,0,2.84-2.5,1.16-4.6a6.91,6.91,0,0,0-5.51-2.84c-7.33-.2-14.36,1.64-21.45,3-2.82.54-5.59,1.06-8.27,0-1.85-.75-3.55.05-5.11-.07-5.51-.46-9.09,4.31-14.26,4.5-2.64.09-3.08,2.74-3.82,4.72-.83,2.18.22,2.6,2.22,2.25C48.63,790,59.9,790.65,71.16,788.41ZM483,157.32h0c0,7,0,14,0,21,0,1.39-.16,3.51,1.86,3.43,1.8-.08,1.17-2.09,1.19-3.28a143.52,143.52,0,0,0-.06-15c-.45-5.09,1.38-6.71,6.39-6.58,11,.3,22,.11,32.94.08,1.1,0,2.49.49,3.19-.72.89-1.52-.51-2.43-1.34-3.39-3.15-3.64-6.66-7-9.45-10.92-4.83-6.77-10.63-10.56-19.34-8.94a34.84,34.84,0,0,1-9.46,0c-4.48-.41-6.32,1.15-6.07,5.86C483.26,145,483,151.17,483,157.32Zm-32.95,8.2h.19c0-4.5.09-9,0-13.49-.08-3,1.06-4.23,4.09-4.17,6,.12,12-.09,18,0,3.31.08,4.93-1,4.83-4.54-.17-6-.11-12,0-18,0-3.15-1.18-4.51-4.45-4.42-6.16.17-12.32.1-18.49.05-1.86,0-4.66,1.22-3.87-2.86.3-1.5-1.48-1.51-2.62-1.35-.86.12-1.85.82-1.17,1.68,2.42,3,0,6,.05,9,.55,17.45-.34,34.92.58,52.37.06,1.21-.28,2.58,1.3,2.67S450,181.15,450,180C450.07,175.18,450.05,170.35,450.05,165.52Zm-85.75-4.79H364c0-6.16-.23-12.33.07-18.48.21-4.26-1-6.1-5.56-5.83-5.31.32-10.66.2-16,0a8,8,0,0,0-6.92,3.07c-4.8,5.53-9.77,10.91-14.61,16.41-1.17,1.32-2.93,2.72-1.85,4.74.94,1.75,3,1.12,4.57,1.12,11,0,22,.09,33,0,3.75,0,5.49,1.14,5.21,5.2-.31,4.64-.09,9.32-.06,14,0,1-.1,2.34,1.14,2.39,1.77.06,1.29-1.52,1.29-2.58C364.31,174,364.3,167.38,364.3,160.73Zm-7.23,605.63v0h2c9-.06,8.85-.06,8.79-9.08,0-3.12-1.22-4.35-4.06-5-6.63-1.65-13.36-2-20.13-2.15-2.35,0-3.16,1-3.19,3.33-.15,10.7,1.94,12.9,12.62,13ZM173.26,64.13c0,1.91-.08,3.08,0,4.23.2,2.16-.86,5.08,2.38,5.75s6.36-.52,7.67-3.35c2.61-5.63,5.46-11.51,2.06-17.9-1.09-2-1.13-5.41-4.34-5.3s-5.25,2.6-6.13,5.63C173.81,57,172.57,60.81,173.26,64.13Zm199.06,66.68c-1.53,5.22-.43,9.54-.94,13.71-.57,4.63.81,6.27,5.86,6.36,5.4.09,10.34-2.08,15.73-1.88,4.09.14,5.27,1.58,5.11,5.31-.17,4,0,8,0,12,0,4.82-.05,9.65-.05,14.47,0,1.16,0,2.66,1.61,2.5s1.42-1.72,1.06-2.78a19.63,19.63,0,0,1-.56-6.42q0-21.72.08-43.43c0-6.2-1.57-7.53-7.76-6.58-.84.13-1.91.15-2,1.09-.11,1.35,1.11,1.58,2.1,1.42,4.36-.7,4.41,2,4.41,5.15,0,3.47-.39,7,.54,10.42.84,3.12-.46,4.74-3.8,4.71-5.15,0-10.32-.16-15.47.12-3.56.19-4.59-1.15-4.55-4.58S374.55,135.25,372.32,130.81Zm92.48-53c4,0,6.28-1.32,6.81-5,1.15-8-3.4-14.17-6.59-20.76a2.37,2.37,0,0,0-2.66-1c-1.46.33-1.58,1.58-1.56,2.75,0,2.51-1.13,5-1.19,7.19-.11,4.14-.41,8.31-.33,12.45C459.36,76.88,462.18,78,464.8,77.81ZM248.71,608.35a8.61,8.61,0,0,0,8.59-8.91c-.07-4.63-4-8.93-8.1-9-3.34,0-8.75,5.34-8.9,8.84C240.14,603,245.1,608.33,248.71,608.35Zm-75.46,67.24c0,6.27,2.47,9.35,7.65,9.4,4.93,0,7.73-2.94,7.76-8.27s-2.76-8.31-7.65-8.38C175.74,668.26,173.28,670.56,173.25,675.59ZM200.3,358.83c-2.29.17-4.56-.1-6.86.85s-4.88,1-7.2,1.83c-5.23,1.85-8.21,7-6.05,10.78,2.47,4.38,7.08,6.36,11.42,8.32,3,1.35,4.71-1.67,7-2.84,4-2.08,6.28-5.85,9.07-9.11.75-.88,2.43-2,.75-3.25-1.11-.81-2.13.49-2.84,1.37-2.83,3.5-5.64,7-9.58,9.35-4.29,2.58-13.36-1.9-13.82-6.87-.1-1,.47-1.45,1.21-1.94,6.61-4.35,13.24-8.55,21.67-4.93a1.32,1.32,0,0,0,.48.13c1.12.08,2.59.56,2.89-1s-1.17-1.83-2.19-2.29C204.32,358.33,202.28,358.92,200.3,358.83Zm69-245.43c-6.72,0-7.32-.1-7.59,1.61-.55,3.59-2.86,3.36-5.43,3.46-1.56.06-4.1-1.14-4.34,1.65-.29,3.23,3.64,7.37,5.55,6,4.2-3.08,10.18-1.32,13.65-5.59,1.61-2,5.76-2.73,4.88-5.55C275.11,112,271.34,114,269.31,113.4ZM460.83,31.35a47.05,47.05,0,0,0,0,4.71c.2,1.68-.8,4,1.61,4.69s3.43-1.55,4.41-3.24c2.9-5,1.58-16.41-2.34-20.71-1.11-1.2-2.18-2.85-4.1-2.15S459,17.44,459,19C459,23.44,462.14,27.46,460.83,31.35ZM312.25,521.43c0,5.6,3.75,9.32,8.71,9,4.42-.29,7.34-4.84,6.47-10-.24-1.42-.54-2.84-2.33-2.47-2.59.53-4.92-.42-7.36-.83C314.19,516.56,311.68,517.38,312.25,521.43Zm85.33,326.42a11.39,11.39,0,0,0,0-2.12c-.56-2.89,1.8-7.85-1.7-8.28-4.36-.54-4.36,5.08-4.72,8.06-.65,5.34-2.37,11.36,3.18,15.68,1.06.83,1.81,2.12,3.34,1.13,1.22-.79,2.08-2.15,1.28-3.39C396.63,855.35,398,851.45,397.58,847.85ZM798,67.58c.64-3-1.34-4.78-4.25-5.79-2.21-.77-3.5.58-4,2.56-1.45,5.38-2.44,10.91-5.78,15.61a1.79,1.79,0,0,0,.27,2.67c1,.65,1.94,0,2.54-.84s1.08-2.06,1.79-3c2.13-2.65,2.73-6.83,7.61-6.72C798.16,72.16,798,69.78,798,67.58ZM684.71,99.36c-.07,1.79-.13,3.26,1.53,3.67a2.83,2.83,0,0,0,3.64-2.5c-.2-5.55,4.7-9.28,4.82-14.65,0-.95.77-2.13,0-2.78-1.22-1-2.41.22-2.81,1.09C689.47,89.38,686,94.08,684.71,99.36ZM142.63,686.51a8.58,8.58,0,0,0,4.81-7c.12-2.5-3.36-4.59-4.78-4.11a7.14,7.14,0,0,0-4.85,6.69C137.84,684.93,140.37,685.58,142.63,686.51Zm-5.95,12.65c1.25-2.9,3.53-4.75,3.58-7.71s-2.65-5-4.3-4.46c-2.61.78-4.15,4-4.37,6.76C131.39,696.2,134.42,697,136.68,699.16ZM150.38,666c-2.36,1-5.79,1.86-5.83,4.82a5,5,0,0,0,5.06,4.51c3.09-.31,3.92-3.62,4.47-6.14C154.53,667.18,152.59,666.22,150.38,666Zm-6.47,27.14c-2.4,2-4.26,4.47-4.75,7.39-.37,2.2,2.13,3.3,3.76,3.09,3.09-.39,4.77-3.14,5.27-5.84C148.64,695.34,145.82,694.63,143.91,693.18ZM171.47,468.8c1.12-.38,2.65.31,3.13-1.07.61-1.74-1.08-2.17-2.18-2.72a31.75,31.75,0,0,0-9.18-3.26c-1.07-.17-2.46-.25-2.85,1.23-.32,1.2.71,1.68,1.51,2.24C164.8,467.25,168.12,468.08,171.47,468.8ZM125.35,687.7c.3,1.84.66,4.67,2.83,3.48,2.37-1.3,4.61-3.94,4.48-7.17a4.09,4.09,0,0,0-3.65-3.59c-2.06-.36-2.14,1.68-2.59,3S125.69,686.29,125.35,687.7Zm7.5,14.49c.13-2.06-.67-4.24-3.35-4-3.16.23-3.33,3.3-3.66,5.64a3.48,3.48,0,0,0,3.64,3.84C132.33,707.59,132.87,705.05,132.85,702.19Zm16.78-9.07c1.92-1.57,2.75-3.91,3.2-6.47.31-1.76.24-3.92-2-3.6-2.87.42-4.11,3.16-4.64,5.77C145.82,690.8,147.11,692.22,149.63,693.12Zm-11.37-252c-.2-4.25-4.41-4.62-7-6.56-.68-.5-2.06-.46-2,.51A10.57,10.57,0,0,0,133,441.8a13.3,13.3,0,0,0,2.08,1.36C137.16,444.44,138.13,443.71,138.26,441.16ZM120.85,712.37c.35,1.66-.6,4.56,2.49,4.24A4.12,4.12,0,0,0,127,712c-.24-2.2-1.64-4.54-3.88-4.49C120.47,707.59,121,710.35,120.85,712.37Zm41-43.91c2.13-1.44,2.94-4,3.94-6.41.4-.95-.62-2.33-1.6-1.92-2.62,1.09-3.34,3.81-4.23,6.2C159.59,667.24,160.17,668.29,161.82,668.46ZM489,127.27c-.32-1.6-1-3.15-2.75-3-2.14.17-2.95,2-3.07,4a2.16,2.16,0,0,0,2.36,2.56C487.71,130.72,488.71,129.33,489,127.27ZM158.78,673.5c-.07-1.26-.89-2.66-1.6-1.88-1.69,1.83-4.3,3.16-4.52,6a2.44,2.44,0,0,0,1.59,2.33c.67.28,1.6.19,1.64-.49C156,677,157.68,675.33,158.78,673.5ZM411.05,44.94c-.8-1,.91-3.61-1.58-3.55-1.69,0-1.2,2.39-1.12,3.74S407.47,49,409.83,49C411.66,48.88,410.53,46.5,411.05,44.94ZM170.73,655c.16-1.1-.16-2-1.19-1.79-1.64.36-3.24,1.15-3.56,3-.24,1.43.83,2.22,2.1,2.23C170.47,658.5,169.9,656.11,170.73,655Z" transform="translate(-1 -1)"/><path d="M713.78,319.75c-13.48-3-25.18-11.13-39.75-7.88,6.66,3.93,13.54,4.07,19.93,5.88A174.75,174.75,0,0,0,716.08,323c1.39.21,10.18,10.4,9.62,11.36-1.43,2.47-4.22,2.64-6.7,2.88-6.24.61-10.87,1.92-14.4,4.43,1.17,1.76,3,1,4.52,1.09,5.76.19,11.44,0,17.24,1.23s9.16,3.78,10.25,9.26c2.08,10.47,9.47,18.11,14.18,27.18a2.89,2.89,0,0,0,2.55,1.54,3.57,3.57,0,0,0,.57-4.06c-2.34-5.65-1.34-11.52-1.37-17.29-.11-24.33,0-48.66-.08-73,0-2.77-.11-5,3.68-5.8,2.54-.52,4.3-3,4.3-6.09,0-7.33.19-14.67-.15-22-.14-3.06-.28-7.43-5.75-4.88a1.25,1.25,0,0,1-1.86-1c-.87-4,2.06-5.1,4.84-6.41,2.62-1.23,3.52-.14,4.07,2.36,2.76,12.5,4.77,25,1.73,37.78a73.73,73.73,0,0,0-1.53,13.22c-.64,13.07-3,25.94-4.17,38.92-1.14,12.48-.65,24.86-1.12,37.27-.36,9.55,3.28,18.52,4.25,27.87.5,4.76,2.34,9.24,2.3,14.08-.08,9-.23,18,0,27,.3,9.89-3.21,18.88-6,28.05a35.46,35.46,0,0,1-3.78,8.2c-1.07-2.83-1.56-5.7,0-8.54,2.95-5.31,3.5-11.36,5.38-17,.85-2.56-.3-5-2.92-5.48-3.32-.6-3.27-2.64-3.26-5.06,0-6.33,0-12.66,0-19,0-4.89-1.12-5.75-5.14-3-9.46,6.54-19.72,11.48-30,16.5-14.45,7-29.48,12.72-44,19.57C656.73,462.1,639.67,469,623,476.75c-12.64,5.84-25.65,10.9-38.25,16.84s-25.55,9.74-38.65,13.65c-2.16.64-4.61.29-6.92.42-1.46.08-3.24-.44-4.12,1.09-1.12,2,.76,3.1,1.8,4.21,12.18,13,23.42,26.74,35.5,39.81,10.8,11.68,22,23.16,31.89,35.54,9,11.19,19.88,20.57,28.47,31.91,8.79,11.61,20,21,28.75,32.42,6.47,8.44,14.81,15.27,20.27,24.5,5.71,9.65,9.82,19.75,7.86,31.22-.95,5.58-5.36,9.4-9.49,12.45-5.94,4.4-12.88,6.9-20.53,3.54a34.81,34.81,0,0,0-6.6-2.13c-7.8-1.7-9.74-4.28-10-12.38a61.12,61.12,0,0,0-4.46-21.63c-3.22-7.69-9.21-12.18-16-15.72-7.73-4-14.25-9.39-20.76-15.08a172.65,172.65,0,0,1-18-17.92c-15.46-18.14-30.54-36.61-42.49-57.33a109.47,109.47,0,0,1-7.73-17.79,37.18,37.18,0,0,0-14.09-18.21c-5.53-3.8-12.54-6-19.74-3.16-3.25,1.27-6.1.88-8.61-1.83-6-6.48-12.12-12.83-18.11-19.3-2.62-2.82-2.65-6-.52-9.13,2.53-3.7,4.75-7.62,8.25-10.59,1.51-1.27,3.34-2.94,2.86-5-.54-2.33-.75-5.68-3.12-6.47-2.7-.9-2.7,2.63-4,4.16-3.58,4.32-7.78,8.11-10.62,13.09-1.24,2.18-2.74,4.23-3.15,6.69s-1.9,4.13-3.72,5.66c-6.59,5.53-13.85,10.2-20.06,16.2-2.65,2.57-5.13,2.82-7.34-.7-.87-1.39-2.25-2.46-3.19-3.81s-1.42-3.25.35-4.38c1.51-1,2.75-.08,3.76,1.31,3.19,4.39,4.18,4.58,7.67.6a28.61,28.61,0,0,1,7.68-6.28c9.43-5.2,12.51-15.22,18-23.31,3.75-5.52,9.35-9.43,12.3-15.57.89-1.85,1.91-3.49,1.71-5.54-.43-4.46.81-8.61,2.4-12.63,1.07-2.69,2.45-5-.29-7.62-1-1-.58-2.55.62-3.53a2.28,2.28,0,0,1,3.52.36c2.12,2.65,4.08.83,6.52.41,11.1-1.92,17.49-10.46,25.5-16.85,12.55-10,23.08-21.82,32.51-34.7a5.82,5.82,0,0,1,1.74-1.72c8.85-4.8,13-13.38,17.73-21.59a21.11,21.11,0,0,1,3.6-4.74c6.25-6,10.43-13.66,16.2-20.07,2.13-2.37,2.78-5.7,1.42-9.37-1.55-4.19.79-8.54,1.38-12.72a53.74,53.74,0,0,1,10-24.2,9.11,9.11,0,0,1,5-3.75c5.42-1.6,11-2.94,16.2-5,3.52-1.37,6.17-.77,8.57,1.67,3.76,3.83,8.13,4.74,13.47,4.73,8.78,0,17.63-.95,26.38,1.23,4.43,1.11,9.6-2,11.51-6.19a27.75,27.75,0,0,0,2.45-15.08c-.64-5.11,1-7.28,6.2-7.48a21.75,21.75,0,0,0,3.41.08c5.63-1.19,7.31-.31,5.72,5.36-2.78,9.88,1.63,16.92,6.92,24.18C710.51,312.35,711.7,315.68,713.78,319.75Zm-70-7.52c-2.72-1.84-4.53-1.19-6.4-.38a117.59,117.59,0,0,0-17.26,9.61c-6.53,4.25-12.19,9-16,15.79-3.59,6.35-2.55,11.53,3.29,16,10.31,7.84,20.65,15.6,28.84,25.85,4.47,5.58,9.53,10.68,14.16,16.14,2.75,3.24,5.95,3.82,9.28,1.64q11.67-7.59,23-15.71c3-2.16,3.52-5.16.66-8.12a25.07,25.07,0,0,0-2.45-2.49c-3.24-2.56-2.46-4.93.1-7.45,8.5-8.35,16-7.77,27.14-.4a40.77,40.77,0,0,0,7.33,4.12c1.18.47,2.9.8,3.57-.66.76-1.63-.9-2.34-2-2.92-6-3.17-11.65-7.09-18.12-9.43-5.72-2.07-15.35.88-20.28,6.4-4.39,4.9-4.48,6.7.19,15,1.36,2.4,1.33,3.74-1.08,5.27-5.62,3.54-11,7.41-16.67,10.93-4.06,2.53-7.42,1.92-10.82-2-7.94-9.15-15.51-18.63-24.58-26.79-4.58-4.11-9.85-7.34-14.2-11.66-6.75-6.72-8.12-6.26-1.61-14.32C618.72,325.56,629.53,317.14,643.74,312.23ZM563.42,452.14c0-.37-.16-1.86-.25-3.36-.06-1-.14-2.11,1-2.6s1.76.49,2.49,1.13c7,6,8.91,6.05,16.3.44,2-1.5,4.06-2.87,6-4.39,6-4.63,6.24-8.18.19-12.78-8.59-6.53-15.79-14.56-24-21.49-3.56-3-6.37-3.39-10-.58-9.23,7.08-17.36,15.34-25.37,23.68-6.15,6.4-4.85,13.91,2.95,18.15,5.49,3,9.15,6.05,8.87,13.25-.23,5.72,2.29,7.19,6.92,6.58C555.69,469.22,563.53,460.37,563.42,452.14Zm47.78-24.85c1.13-.2,2.33-.06,3-.59,6.24-4.64,12.53-9.22,18.5-14.19,2.57-2.13,3-5,0-7.72s-5.89-5.85-8.92-8.69c-9.81-9.16-19.58-18.37-29.54-27.37-3.67-3.32-6.81-2.9-9.58,1.15-3.19,4.66-7.55,8.35-10.31,13.41-2.23,4.07-2.49,7.58.81,10.66,9.46,8.83,18.39,18.14,27,27.76C604.56,424.22,607.27,427.12,611.2,427.29Zm-89.58,88.48c-4.73,0-7,2.57-7,8s3.07,8.75,8,8.68c4,0,7.41-4,7.42-8.41C530.09,519.2,526.54,515.76,521.62,515.77Zm63.46,87.82c-.07,5,2.33,8,6.62,8.21s8.5-4,8.6-8.53-2.83-7.57-7.29-7.63C587.74,595.57,585.17,598.16,585.08,603.59Zm75.44,86.51c3.64,0,7-4.39,7-9.23a7.29,7.29,0,0,0-6.79-7.19c-3.52-.08-8.66,4.71-8.72,8.14S656.89,690.05,660.52,690.1ZM638,337.82c3,1.19,5.12-.3,7.07-1.2,4.59-2.12,8.87-1.85,13.45.07,9.09,3.83,9.14,3.7,2.49,11.11-3.81,4.25-5.37,4.35-10,.72-2.87-2.26-5.78-4.47-8.65-6.73-.84-.66-1.79-1.26-2.62-.37s0,1.95.69,2.52c3.79,3,7.58,5.92,11.51,8.69,1.88,1.32,4.17,1.09,6.28.43,4.3-1.35,7.39-4.62,9.8-8,2-2.81,1.54-6.54-2.19-8.51-2.5-1.31-5.07-2.8-7.78-3.33C651,331.87,644.09,332.18,638,337.82Zm48.64,99.88c3.54-1.28,7.51-2,10.23-5.23.54-.64,1.08-1.33.52-2.18a1.66,1.66,0,0,0-2.17-.61c-3.42,1.57-7.15,2.55-10,5.25-.58.55-1.42,1-.94,2S685.7,437.66,686.67,437.7Zm39.15-40.63a26.77,26.77,0,0,0-7.76,5.69c-1.08,1.17-1.77,2.63-.59,4,1.39,1.65,3.16,1,4.41-.14A11.54,11.54,0,0,0,725.82,397.07Zm21,5.82c1.4-.75,4,0,4-2.66,0-1.47-1.41-1.66-2.63-1.57-1.69.13-3.51.35-3.79,2.46C744.21,402.7,745.42,403,746.8,402.89Z" transform="translate(-1 -1)"/><path d="M45.45,324c5.47-1.52,8.91,1.7,11.08,7.15.91,2.28,2.21,4.54,5.17,2.94,6.9-3.75,14.78-4.72,21.9-7.9,2.73-1.23,5.43-2.05,7.56-4.43a3.85,3.85,0,0,1,6.75,2.09c.48,4.27.8,8.66-.31,12.9s-2.22,8.31,1.19,12.16c1.26,1.42.88,3.5.88,5.32,0,13.49,0,27,0,40.48,0,3.49-2.1,6.25-2.86,9.3-2.46,9.87-10.84,17.33-10.45,28.45.28,8.33-5.24,14.85-9.21,21.91-4.75,8.45-13.08,6.91-20,9.28a2.65,2.65,0,0,1-1.93-.37c-4-2.39-8.18-5.63-8.27,3,0,.64-1.33,1.37-2.16,1.86-4.94,2.94-6.92,8.4-10.61,12.4-1.44,1.56-.25,2.89,1.24,3.54,5,2.18,10,4.53,15.75,2.24a18.48,18.48,0,0,1,4.35-.9c1.45-.2,3.27.2,3.73-1.7.54-2.24-1.54-2.62-2.92-3.43-2.43-1.43-4.92-2.78-7.28-4.33a2.6,2.6,0,0,1-1.35-3c.38-1.22,1.39-2.35,2.51-2.06,7.07,1.87,13.77-1.62,20.73-1.26,2.4.13,4.84.06,5.72,2.89,1,3.15-2,3.29-3.61,4.48-1.06.8-2.48,1.24-3.27,2.23-1.31,1.64-1.45,4.22,1,4.08,4.4-.26,8.37,2.22,13.09.75,3.44-1.07,6-1.85,7.54-5.35,1-2.35,2.59-2.13,3.85.29a11.18,11.18,0,0,1,.82,9.64c-1.57,3.75-1.2,6.91.4,10.49,1.72,3.81,2.57,7.83.69,12.07-1.32,3-3.27,3.58-5.31,1.52-2.2-2.23-4.63-2.12-7.29-2.28-8.59-.54-17.26-.59-25.79-.82-8.21-.22-16.8.39-25.21,1a2.7,2.7,0,0,0-2.43,1.5,3.17,3.17,0,0,1-4.63,1.53A4.61,4.61,0,0,1,24,508.2c1.95-5.24.87-10.56,1.12-15.83.15-3.14-.38-6.39,2.44-8.8a2.11,2.11,0,0,0,.67-1.79c-2.95-7.24,3.86-13.58,1.87-20.77-.6-2.16.8-3.4,3.14-3.32a15.62,15.62,0,0,0,4-.1c1.91-.45,4.33,2.23,5.42,0s-1.3-4.2-2.43-6.16c-3.63-6.31-7.81-12.35-9.59-19.56a20.91,20.91,0,0,1-.59-3.42c-.12-1.52-.05-3.22,1.36-4.06,1.81-1.09,2.48,1.06,3.64,1.78.55.35.86,1.05,1.41,1.41,3.59,2.32,3.72,8.67,10.83,7.36,4.49-.83,9.51.47,14-1.87,4.71-2.47,9.91-3.85,14.45-6.71,1.82-1.14,2.75-2.63,2.42-4.48-.36-2-2.37-1.16-3.73-1.46-6.27-1.38-12.51.47-18.77.09-4.92-.3-10,.91-14.64-1.78-.78-.44-2,0-2.94-.3-2.49-.81-5.8,2.68-7.3-.38-1.75-3.55-1-7.81-.3-11.75.14-.78,1-1.45,1.07-2.22.71-5.73,3.47-9.52,9.27-11.16,2.17-.62,5.45-1.8,3.19-5.2-2-3-5-2.92-7.89-1-1.06.68-1.75,2.49-3.26,1.77-1.68-.81-.83-2.66-1-4.07-.73-8.29,3-16.37,1.15-24.75-.42-1.95,1-2.88,2.81-1.89,5.08,2.88,11,2.17,16.3,4,2.71.94,4.3.14,3.52-3.14-1.14-4.76-11.56-10.57-16.16-9a2.85,2.85,0,0,0-1.28.7c-1,1.28-1.25,3.93-3.88,2.46a4.65,4.65,0,0,1-2.41-5.57c1.86-5,1.07-10.17,1.52-15.25C34,325.76,36.66,324,45.45,324Zm27,39.86c3.48,0,7,.37,10.43-.1s6.63-2.64,7.46-5.55c.63-2.2-2.31-4.76-5.06-5.16-8.92-1.33-16.92,1.8-24.65,5.79a2.85,2.85,0,0,0-1.45,3.41c.37,1.35,1.66,1.56,2.82,1.59C65.51,363.93,69,363.89,72.48,363.89Z" transform="translate(-1 -1)"/><path d="M99.66,240.31V251.8c0,3.89-1.08,7.32-2.43,11.06-1.74,4.81-.82,10.7.17,16.2,1.89,10.6,2.91,21.43-2.31,31.45-4.24,8.16-10.81,13.33-20.71,12.68-2.84-.19-5.55.7-8.31,1.07-8.29,1.11-15.48-1.78-19.68-9.13-2.47-4.3-6.35-6.68-9.75-9.65-6.32-5.5-9.15-12.34-9.63-20.41-.27-4.42-3.19-8.95.55-13.27a1.45,1.45,0,0,0-.64-2.14c-4.32-1.84-3-5.66-3.51-9-1.12-7.32-1.11-14.73-2.62-22-1.73-8.36-3.85-17-3.23-25.35.48-6.61-2.67-12.24-2.17-18.5.15-1.81-.33-4.17,1.43-5.05,4.26-2.13,3.26-4.21,1-7.3s-3.1-6.29-1.32-10.28c1.7-3.83.62-8.23.57-12.36-.05-3.93,1.2-6.05,5.44-5.75q21.63,1.58,43.33,1.87c4.47.07,9.07,1.5,13.74,1.46,3,0,5.25-.72,6.28-3.76.59-1.73,1.67-2.9,3.6-2.91,2.2,0,3.07,1.54,3.9,3.29a13.33,13.33,0,0,1,1.59,6.18,146,146,0,0,0,1.72,24.71,23.22,23.22,0,0,1,0,4.49c-.09,2.25-.49,4.48-3,5.2-2.73.78-3.89-1.16-4.79-3.26-1.84-4.32-6.34-4.8-9.66-4.92-7.25-.25-14.41-1.08-21.6-1.57s-14.73,1.93-22.24,1.33a51,51,0,0,0-7,0c-1.64.1-4.1-.9-4.43,1.79-.25,2.1,1.11,3.57,3.1,4.64,4.76,2.56,10.12,2.9,15.17,4.38,4.36,1.27,5.57,5.31,2.57,8.84-3.74,4.4-3,5.77,2.29,7.45,7.14,2.25,14,1.31,21.07-.08,2.87-.57,3.07-2,2-4.29-1.47-3.22-.41-4.33,3.13-4.6,6.7-.51,13,1.85,19.69,1.92,3,0,5,2.29,5.39,6.37A226,226,0,0,1,99.66,240.31ZM48.43,253.88V254c-4,0-8-.1-12,0A3.5,3.5,0,0,0,33,257.62c-.06,2.42,2.06,2.17,3.68,2.18,4.83,0,9.66,0,14.48,0,2,0,4,.55,3.91,2.81-.06,1.82-.52,4.57-2.82,4.67-4.79.21-7.45,4.1-11.34,5.8-4.14,1.81-4.92,6.44-5.38,10-.45,3.35,3.74,5,6.63,5.83,4.75,1.42,9.38,2.9,14.63,3.23,8.09.49,16.36,1.24,24.29,3.95a12.54,12.54,0,0,0,10.17-1c2.73-1.55,3-3,1.1-5.5-3.42-4.56-8.75-4.84-13.4-6.81-3.94-1.66-5.91-.17-7.87,2.66-1,1.39-1.21,3.75-3.88,2.79-2.12-.76-2.22-2.56-2.55-4.42a111.68,111.68,0,0,1-1.7-25.68c.17-3-1-4.32-4-4.26C55.42,253.93,51.93,253.88,48.43,253.88Zm32.72-25.1c1.71,0,2.71.06,3.71,0,1.59-.12,3.58.64,4.58-1.1s-.63-3.09-1.18-4.59c-2.18-5.88-7.43-8-12.57-10.19-.76-.33-1.59-.71-2.31,0-1,.94-.4,1.86.32,2.58,2.59,2.55.48,4.19-1.2,5.73-1.2,1.11-2.8,1.77-4.08,2.8a2.78,2.78,0,0,0-1.07,3.11,2.13,2.13,0,0,0,2.73,1.58C74.05,227.21,77.94,229.67,81.15,228.78Zm-40.7,0v0c2.66,0,5.32.06,8,0,2-.07,3.7-1,3.76-3.19.06-2-1.61-2.88-3.39-2.92-4.12-.07-6.44-2.08-7.27-6.06-.61-2.9-2.14-3-4.22-1.26-3.1,2.64-5.11,6.12-7.14,9.52-1.35,2.26-.53,3.88,2.31,3.94C35.13,228.82,37.79,228.77,40.45,228.77Zm38,23.26c-2.53.2-5.44-.13-5.86,2.84-.38,2.64,2.55,2.35,4.15,3.31,2.81,1.67,6,1.61,9,2.5,2.7.81,5.54-.37,7.66-2.14,1.18-1,.51-2.88-.22-4.19-1.5-2.68-4.22-2.56-6.62-2.11C83.66,252.78,80.94,252.28,78.41,252Z" transform="translate(-1 -1)"/><path d="M372.29,731.75c4.21.92,8.15,5.66,12.91.64-1.26-2.11-3.76-1.32-5.57-2.1-33.24-14.47-58.42-36.9-69.14-72.55-2.86-9.5-4.85-19.77-1.72-30,.46-1.48.15-3.83,2.22-3.86,1.74,0,1.69,2.25,2.16,3.56,4.87,13.71,11.29,26.6,20.4,38a114.43,114.43,0,0,0,18.73,18.6c1.38,1.07,2.86,2.2,4.47,1s0-2.6-.36-3.94c-3.21-11.07-5.32-22.18-3.89-33.88,1.17-9.56,1.34-19.24,5.21-28.29a39.47,39.47,0,0,1,2.19-5,38.59,38.59,0,0,0,5.68-23.9c-.82-8.93,3.53-16.39,6.19-24.35a5.06,5.06,0,0,1,1.49-2c1.77-1.58,3.13-4.26,6.25-2.71,2.94,1.45,1.72,4.11,1.35,6.14a60.25,60.25,0,0,0-.37,17.42c1.25,10.85,7,19.54,15.67,25.63,9.65,6.75,14.61,16.34,17.91,26.86,1.94,6.17-.53,12.84-.76,19.3-.35,9.9-4.47,19-7.05,28.43a94.19,94.19,0,0,0-3.58,23.06c-.12,6.7,3,13.5,5,20.17.55,1.81,2.89,2.13,4.64,2.56,3.71.9,7.48,1.46,11,3.15,2.54,1.22,3.54.27,5.05-2.48,5.74-10.45,6.21-21.36,3.34-32.35-1.78-6.84-5.35-13.19-7.95-19.82-3.73-9.51-2.91-19.09-.14-28.67,3.75-12.95,12.65-22.87,20.05-33.59,9.35-13.55,12.14-28.31,10-44.16-.71-5.25-4-9.81-7.07-14.18-.7-1-1.22-2.23-.08-3.11.91-.71,1.83,0,2.59.76,10.82,10.11,21.15,20.65,28.18,33.86,1.69,3.16,2.27,6.92,3.4,10.39.29.88,0,2.23,1.25,2.45,1.59.28,1.64-1.33,2.19-2.26a36.15,36.15,0,0,0,5-15.53c.88-12.34,2.62-24.89-4.18-36.48-1.21-2.06-3.46-5.21-1.09-7.2s4.79,1.13,6.28,2.63c10,10,16.84,21.87,17.92,36.25a83.82,83.82,0,0,1-.71,19.42c-1.44,9.12.85,17.62,4.42,26.15,9.35,22.34,7.69,43.61-7.28,63.45-10.48,13.89-22.91,25.26-38.54,33.05-1.5.75-3.5,1.08-4.28,3.21,8.9,2.11,17.19-.83,25.38-2.86a135.8,135.8,0,0,1,19.58-3.42c4.62-.47,3.8,4.08,4.64,6.64.44,1.33-.45,3.14.36,4.79,1.13,2.27,0,3-2.27,3.72-6.08,1.85-12.36,2.49-18.56,3.62-3.51.64-6.87,1.46-9.46,5.48-1-8.3-4.93-13.36-12.39-15.08-4.6-1.06-9.23-.43-13.81.46-7.48,1.45-14.45,4.83-22.13,5.68-3.22.35-5.08,1.75-2.41,5.66,5.06,7.4,4.69,7.25,13.47,4.32,7.24-2.42,14.77-4.14,22.43-1.35,5.29,1.92,8.47,5.25,8.91,11.29.64,8.65,5.78,10.95,16.6,7.67,6-1.84,12-3.89,17.95-6,2.3-.83,2.25-.34,2.83,2,1.17,4.73-.83,9.58,1.16,14.14.79,1.81-.32,2.85-1.88,3.44a74.16,74.16,0,0,1-23.2,5.18c-9.28.37-18.18.74-27.35,3.91-10.8,3.74-22.65,2.55-34-.07-.79-.18-1.59-.56-1.45-2.22,6,.81,11.82,2.33,17.91,2.39a88.89,88.89,0,0,0,21.65-2.59c5.6-1.33,6.18-2.44,2.44-6.95-1.88-2.25-.71-7-5.06-6.9-2.92.08-5.84,1.19-8.69,2.07-7.1,2.2-13.82,2.41-20.6-1.62-2.86-1.7-4.93-3.45-5.38-6.55a15,15,0,0,0-2.78-6.3c-1.39-2-3-4.44-5.82-4.14-2.71.27-2,3.43-3.26,5.16-.18-.47-.43-.78-.41-1.07.5-7.11.13-7.87-7.11-7.93-7.41-.06-14.95-1-22.2,1.53-1.19.42-2,.19-2.28-1-1.68-7-5.34-12.4-12-15.6-.19-.09,0-.86-.06-1.32ZM494.53,575.92c.68,3.21-.44,8-1.56,12.63-2.46,10.21-5.56,20.22-12.76,28.32-1.18,1.33-2.67,3.26-4.56,2.21s-.32-3,0-4.53c2.12-11.28.51-21.76-6.7-31-1.63-2.09-3.35-4.12-4.9-6.27-1-1.42-2.13-2.93-4-2.36s-1.08,2.57-1.08,3.92A71.26,71.26,0,0,1,456.91,597c-3.05,11.77-10.41,21.12-16.5,31.13-4.46,7.32-9.75,14.21-12.69,22.3A38.77,38.77,0,0,0,425,664.9c.36,9.06,4.48,17.2,8,25.45,4.71,10.93,5.5,22.4,3.14,34.06-.31,1.5-2.39,2.9-1,4.45,1.24,1.36,3.16.4,4.75.06,15-3.18,27.94-10.45,40-19.59,14.37-10.89,25.43-24.36,31.31-41.52,5-14.61.9-28.77-4.38-42.3-3.69-9.46-5.5-18.53-3.41-28.6a47.77,47.77,0,0,0-5.71-35c-.57-1-.8-3-2.62-2.4-1.66.57-1.89,2.29-1.45,3.81C494.73,566.9,494.22,570.58,494.53,575.92ZM411,640.78c-1.22-10.06-6.84-20-16.35-28-9.71-8.1-17.19-17.62-18.38-30.83-.17-1.82-.08-3.67-.29-5.49-.15-1.28-.32-2.91-2.06-2.93-1.39,0-1.78,1.38-2.07,2.48a52.74,52.74,0,0,0-2,11.24c-.3,7.87.11,16-4.52,23.05-8.13,12.42-8.64,26.72-9.61,40.79a71.49,71.49,0,0,0,10,42.07c.61,1,2.29,2.17,1,3.44-1.52,1.5-2.64-.31-3.79-1.11-2.59-1.82-5.21-3.6-7.71-5.52-14-10.74-26.38-22.86-34.22-39a66,66,0,0,0-4.87-8.69c-.77-1.12-1.18-3.65-3.53-2.65-1.85.8-1.69,2.56-1.53,4.32a79.32,79.32,0,0,0,12.79,37.33c15.28,23.05,35.83,39.41,62.47,47.76a25.11,25.11,0,0,0,12.61.9c4.64-.84,4-3,2.89-5.69-6.12-15.27-2.34-30.25,2.29-44.73C407.93,667.56,410.92,655.64,411,640.78Zm53.51,114.47h.22c0-2.49-.16-5,0-7.46.28-3.51-2.16-4.53-4.64-4.45A45.82,45.82,0,0,0,448.36,745c-14.79,4.45-11.76,1.54-12,15.6a49.32,49.32,0,0,0,.17,6A3.43,3.43,0,0,0,440,770a46.49,46.49,0,0,0,17.12-1.74c7.61-2.38,7.53-2.65,7.4-11.06C464.46,756.57,464.47,755.91,464.47,755.25Z" transform="translate(-1 -1)"/><path d="M763.46,622.76c-.21,7.3,1.94,14,1.52,20.83-.12,1.84-.18,3.48-1.74,4.95-7.82,7.38-12.22,17.32-18.91,25.58-5.11,6.31-9.61,13.11-14.46,19.63-1.47,2-2.66,3.16-5.54.84-10-8-20.39-15.35-29.45-24.41a19.64,19.64,0,0,0-2.54-1.48c-4.8-3.41-8.32-6.88-8.6-13.88-.49-12.4-2.46-24.78-4.35-37.08-1.06-6.84,3.63-10.63,7.12-14.63,8.84-10.15,15.83-21.61,24-32.19.4-.52.65-1.17,1-1.7,6.79-9.06,8-9,16.17-1.47,8.38,7.74,15.85,16.45,25,23.36,7.37,5.56,9.58,13.49,9.84,22.19C762.7,616.63,764,619.84,763.46,622.76Zm-11.3-20.2c2-6-1.75-9.7-6.07-13.54-6.78-6-13.51-12.13-19.05-19.43-3.7-4.88-7.8-4.82-11.79-.24-1.63,1.88-3,4-4.46,6-8.15,10.9-15.87,22.11-24.75,32.46-4.24,4.94-3.81,8.06,1.34,12.14,1.92,1.52,4.35,2.51,6,4.28,7.87,8.59,17.42,15.09,26.71,21.93,2.47,1.83,4.42,1.6,6.38-.83,5.41-6.73,11.47-13,16.25-20.13C747.16,618.5,754.17,612.57,752.16,602.56ZM698.35,647c-1.72-2-2.16-5.92-4.7-5.91-1.94,0-6,1.16-5.79,4.85.14,2.68.47,6.37,3.85,6.62C694.78,652.78,696.76,650,698.35,647Zm9.91-1.14c-2.2,1.33-5.55,2-5.24,4.75s1.24,6.46,4.58,6.87c2.19.26,5.34-1.54,5.08-4.39A8.66,8.66,0,0,0,708.26,645.85Zm-9.4,6.93c-2.57.86-5.46,1.74-4.78,4.78.53,2.42,1.32,6,4.56,6,2.31,0,5-1.61,4.68-4.64C703,656.26,702.19,653.39,698.86,652.78Zm18.56,12.71c-1.23-2.18-1.3-5.49-3.7-6.9-1.42-.84-3.21,1.32-4.41,2.54-2.15,2.18.07,4.26.67,6.35.42,1.47,1.07,3.19,3,2.38S717.09,668.42,717.42,665.49Zm-33.15-31.35c1.88,1.2-.71,5.46,3,5.45,2.17,0,5.38-1.27,5-4.48-.31-2.51-.44-6.23-4-6.34C685.75,628.69,684.36,631.1,684.27,634.14Zm20.83,40.74c1.95-.43,4.11-1.29,3.59-3.36-.65-2.54-1-6.08-4.07-6.76a3.84,3.84,0,0,0-4.35,3.83C700.36,671.58,702.2,673.77,705.1,674.88Zm2.17-33.71a8.45,8.45,0,0,0-6.27-5.06,2.62,2.62,0,0,0-3.12,3c.5,2.51,1.22,5.89,3.85,6.5C704.17,646.13,705.75,643.32,707.27,641.17Zm14.78,35.31c-1.51-1.91-.3-5.83-4.09-5.85-2,0-4.09,1.55-3.86,3.71s.21,5.39,3.34,5.89C719.85,680.61,721.18,678.69,722.05,676.48Zm1.54-17.72c-1.43-1.47,1.56-5-2.1-5.38a3.68,3.68,0,0,0-4.14,4.34c.43,2.64,1,6.21,4.4,6.18C724.61,663.89,722.7,660.71,723.59,658.76Zm2.3,25.37c0-1.89-.48-3.83-2.25-3.34-2.12.59-4.45,2-4.4,4.74a3.74,3.74,0,0,0,3.86,3.83C726.52,689.12,724.89,685.7,725.89,684.13Zm-41.6-57.19c1.32-.35,2.76-.78,3-2.23.26-1.94-1.11-3-2.84-3.34-1.39-.27-1.55,1-1.53,1.91C682.92,624.63,682.27,626.32,684.29,626.94Zm8.76,37.38c-.4-2.22.18-4.84-2.35-6a1.36,1.36,0,0,0-1.85,1.17C688.47,662.48,691.51,662.74,693.05,664.32Zm23.18-11.92a2.25,2.25,0,0,0,1.89-2.26,3.06,3.06,0,0,0-2.74-3.06c-1.33-.27-1.82.56-1.66,1.73C713.92,650.28,714.09,651.84,716.23,652.4Z" transform="translate(-1 -1)"/><path d="M623.61,518.52c1.27-7.09,4.57-13.48,7.37-20,2.34-5.46,5.66-10.49,8.07-15.93a10.34,10.34,0,0,1,7.14-6.3c16.31-4.58,31.92-11,47.63-17.28,7.59-3,7.28-2.83,8.75,4.13,3.9,18.33,9.57,36.27,12.12,54.89a7.23,7.23,0,0,1-.37,4.41q-9,17.52-18,35a6.17,6.17,0,0,1-5,3.54,158.47,158.47,0,0,0-24.5,6.49c-5.75,2-11.87,1.57-17.68,3-1.63.41-2.3-.69-3-1.93-6.74-11.41-13.65-22.7-16.81-35.84-.84-3.47-3-6.63-4.56-9.91A9.56,9.56,0,0,1,623.61,518.52Zm87.48-2.68c-.52-17.37-7.14-34.08-10.92-51.41-.69-3.17-2.45-2.84-4.82-2.1-16.47,5.15-32.3,12-48.61,17.6-3.09,1.05-2.67,3-2.27,5.56,2.5,15.62,9.16,30.06,12.71,45.39,1.22,5.27,3.53,6,9,4.49,13.93-3.78,27.08-10,41.16-13.22C710.52,521.4,711.84,519.66,711.09,515.84Zm-68.8,7c-.41-4.74-2.66-6.3-6.15-4.29-1.44.83-3.12,8.32-2.1,9.61a2.43,2.43,0,0,0,1.22.71C639.54,530,642.67,527.26,642.29,522.87Zm3,14.13c0,3.08.47,5.33,3.77,4.93,4.26-.51,3.38-4.33,3.9-6.89.46-2.26-1.49-3.69-3.7-3.65C645.08,531.47,645.8,535,645.24,537Zm-3.18-.61c-.67-.94,2-4.41-2.17-3.9-2.46.29-6.46-.87-6.11,3.59.19,2.32-.34,5.95,4,6.07C641.66,542.26,642.76,540.37,642.06,536.39Zm3.68-13.2c-.06,5.17-.06,5.17,2,5.41,3.83.46,5.4-1.39,4.16-5.53-.7-2.32-.57-6.26-4.06-6S645.6,520.83,645.74,523.19Zm-3.68-14.55c-.07-.25,1-3.14-2.19-2.82-2.77.28-6.26.4-6.3,4.75,0,2.57.17,4.56,3.64,4.5S642.7,514,642.06,508.64Zm-2.64-14c-3.4.07-6.65,3.31-6.43,6.26.14,1.91,1.45,2.75,3,2.26,2.63-.82,6.78.12,6.26-4.94C642.09,496.11,642.38,494,639.42,494.6Zm9.08,57.79c2.54.18,3.45-1.59,3.64-4,.14-1.78-.14-3.32-2.46-3.45-3.07-.19-4,1.65-4.23,4.26C645.27,551.24,646.07,552.37,648.5,552.39Zm-2.58,7.88c.18,1.21-.28,3.17,1.58,3,2.9-.22,3-3.14,3.74-5.16.51-1.45-.86-1.89-2.15-1.86C646.43,556.33,645.78,558,645.92,560.27Zm-7.69-11.47c.44,1.59.06,4.11,2.41,4.2,1.82.07,2.46-2,2.54-3.69s-.8-3.42-2.65-3.64S638.26,547.12,638.23,548.8Zm-7.51-22.59c.42-2.43.88-4.9-.42-7.28a1.31,1.31,0,0,0-2.13.16c-1.74,2.76-.11,4.91,1.47,7C629.7,526.2,629.94,526.15,630.72,526.21ZM640,492c2.13-.26,2.14-2.11,2.47-3.67.22-1,0-2.18-1.25-2.25-2.26-.14-2.56,1.64-2.81,3.33C638.24,490.59,638.3,491.72,640,492Zm8.25,18.63c-.47-1.18.5-3.38-2-3.64-1.26-.13-1.63,1-1.38,2.05.4,1.65-.44,4.17,1.69,4.69C648.38,514.12,648.05,512,648.26,510.59Z" transform="translate(-1 -1)"/><path d="M242.21,558.66c-.47,1.46-.6,3.12-1.44,4.26-7.06,9.72-10.44,21.54-17.75,31.11-3,3.94-6,7.9-9,11.91-1.43,1.95-3.08,1.93-5.27,1.43-14-3.21-26.52-10.57-40.14-14.89a5.07,5.07,0,0,1-3.26-3.48q-6.33-17.82-12.82-35.57a7.28,7.28,0,0,1-.2-4.87c3.57-11.55,5.91-23.46,11.68-34.35,3.08-5.8,4.38-12.52,6.7-18.74s2.71-6.14,8.52-3.68c8.74,3.7,16.18,9.76,24.9,13.53,5.63,2.43,10.9,5.78,16.64,7.87,5.54,2,9.13,4.76,11.16,10.74,3.66,10.84,7.24,21.65,9.76,32.81C241.87,557.39,242.05,558,242.21,558.66Zm-15.84-36.34c.18-2.27-.76-3.45-2.83-4.21a61.31,61.31,0,0,1-7.23-3.25c-12.49-6.57-25.15-12.8-37.68-19.31-3.32-1.73-4.79-.75-5.79,2.55a91.73,91.73,0,0,1-3.45,9.34c-5.43,12.66-10.63,25.37-13.54,38.94-.82,3.83.35,5.7,3.6,6.86,13.2,4.69,25.12,12.12,38,17.52,5.84,2.44,7.48,2.26,10.15-3.56,4.35-9.47,8.5-19,12.57-28.64C222.42,533.22,224.31,527.74,226.37,522.32Zm-3.85,41c-1.36,3.78,1.85,4.22,5.15,4.92s3.1-1.3,3.32-3.37c.57-5.54-.77-8.09-5-8.23S223.44,560.25,222.52,563.33ZM221.45,575c-.22,3.22-.71,5.78,3.57,5.92s4.49-3,4.78-5.55c.49-4.22-3.08-3.87-5.82-4.22C219.79,570.61,222,574,221.45,575Zm3.29-25.44c-.57,2.9,1.08,4.38,4.57,4.78,3,.35,3.88-1.27,4.09-3.63.35-3.92-2.44-5.1-5.51-5.66S225,546.91,224.74,549.55Zm4.49-15.7c-2.39-.72-3.34,1.28-3.66,3.53-.67,4.66,3.39,4.49,6.1,5.52,1.74.67,3.16-.33,3.06-2.09C234.54,537.65,233.93,534.48,229.23,533.85Zm-8.67,27.5c-1.52-1.86,1.18-6-2.61-5.89-3.41.08-4.31,4.09-5,7.12s1.32,3.41,3.69,3.9C222.08,567.59,218.73,563,220.56,561.35Zm-2.5,13.3c-.26-2.31.85-5.35-3-5.69-3.29-.29-3.83,1.93-3.72,4.46s-.42,5.63,3.46,6S217.66,576.71,218.06,574.65ZM216.56,587c0-2.88-1.37-4.51-4.12-4.52-1.46,0-3.05.68-2.74,2.71.4,2.7,1,5.34,4.59,5.31C216.86,590.49,216.33,588.46,216.56,587Zm-3.73,6.58c-2.06-.29-2.92.38-2.81,1.8.17,2.16.61,4.63,3,5.09,2,.38,1.92-1.83,2.09-3.22C215.37,595.14,214.5,593.74,212.83,593.59Zm11.09-6.2c0-1.68-.25-2.95-2.08-2.89-2.05.08-2.9,1.4-2.9,3.29,0,1.69.27,3.86,2.31,3.66S223.34,588.83,223.92,587.39Zm11-20.85c2.18-2.42,3.83-4.09,2.49-6.68-.2-.39-1.43-.75-1.68-.54C233.68,561.09,234,563.28,234.9,566.54ZM231.22,529c-.26-1.44-.29-3.17-2.17-3.42-1.58-.21-1.88,1.11-1.73,2.33.2,1.62.41,3.59,2.48,3.72C231.35,531.77,231.21,530.2,231.22,529Zm-11.11,23.28c1.79-1.15,1.29-3.67,2.28-5.4.54-.93-.27-2.36-1.27-2.18-2.52.46-2,3.06-2.73,4.77C217.87,550.74,218.1,551.81,220.11,552.32Z" transform="translate(-1 -1)"/><path d="M642.65,784c-11.78-5.16-21.55,1.3-31.78,2.29-12,1.17-23.74.92-35.64-1.84-8.54-2-17.55-.29-26.36-.34-2.82,0-5.66,0-8.46-.31-1.65-.17-3.53.15-4.23-2.47-1.81-6.81-2-6.77.65-9.29-1.24,8.08.87,10.58,8.78,10.5,7.32-.08,14.64-.13,21.95-.19,1,0,2.09.33,2.61-.84.43-1-.51-1.45-1-2.06s-1.36-1.28-1.45-2c-1.33-9.78-8.51-8.94-15.43-8.62a12,12,0,0,1-2-.08c-.27,0-.52-.28-1.76-1,4.59,0,8.21-.09,11.82,0,3,.09,4-1.33,4.23-4.21.57-9,.64-9-8.06-10.6-1.35-.24-3,.57-4.11-1,7.39-2.19,18.24,1.27,22.41,8.33,3.85,6.51,9.81,8.49,16.22,9.49,8.12,1.28,16.17-.45,24-2.84,1.29-.39,2.46-1.66,3.14.26C622,778,631.26,780.46,640.9,782.49,641.17,782.55,641.38,782.88,642.65,784Z" transform="translate(-1 -1)"/><path d="M812.6,879.41c10.92-6.42,13.83-17.33,18-27.6,2.4-5.9,5.86-11.42,9.34-16.8a57.69,57.69,0,0,0,3.43-5.37c.89-1.8,2.15-3.69,4.56-3s2,2.75,1.89,4.59c-.21,2.63.2,5.39-1.25,7.81-4,6.74-2,14.29-2.71,21.44-.54,5.46-.1,11-1.82,16.38-.54,1.68-1.25,2.59-3,2.59Q826.81,879.39,812.6,879.41Z" transform="translate(-1 -1)"/><path d="M380.5,27.59c-.29,1-.55,2-.83,2.91-1.9,6.31-4.61,12.35-3.92,19.29.37,3.81-2.77,5.75-6.38,4.27-2.25-.91-4.38-1.57-6.72-1.14-2.81.51-4.29-.84-5.44-3.19-3-6.1-7.3-10.56-14.53-11.11-2.11-.15-3.18-1.71-4.31-3.08-1.81-2.2-1.64-3.93,1.5-4.64a11.34,11.34,0,0,1,4.92-.1c2.13.44,4.63.83,6.32-.47,3.34-2.58,6.33-4.28,10-.68.81.79,1.75.31,2.29-.88,2.54-5.54,8.33-5.07,12.9-6.33C379.36,21.6,379.6,25.37,380.5,27.59Z" transform="translate(-1 -1)"/><path d="M339.85,626c-10.34.11-13.5-4.61-17-16.39-5.38-18.17.09-34.62,11-49.58,7.17-9.81,15.76-18,26.65-23.41,5.17-2.58,10.67-4.5,16.08-6.58,1.13-.43,2.78-.85,3.49.79.6,1.4-.7,2.09-1.59,2.77-16.48,12.52-20.8,30.5-21.83,49.7-.59,11.1.28,22.33-3.48,33.05C350.65,623.59,347.15,626,339.85,626Zm-15.33-28.9a34.69,34.69,0,0,0,5.75,21.55c2.47,3.88,5.92,5.48,10.5,5.29s6.85-2.82,8.59-6.5c3.21-6.8,3.48-14.13,3.57-21.42.11-8.47,0-16.92,1.27-25.33,1.5-9.85,6.27-18.51,9.78-27.63.52-1.35,1.82-2.85.44-4.11s-2.81.42-3.92,1.1c-7.49,4.63-14.51,9.82-20.3,16.62C330.55,568,323.81,580.41,324.52,597.1Z" transform="translate(-1 -1)"/><path d="M724.87,879.45a13.81,13.81,0,0,1-1.72,0c-2.63-.52-7.16,1.44-7.55-1.26-.51-3.51,1.27-7.68,4.72-10.23s8-4,8-9.7c0-1.9,2.16-1.74,3.57-.93,2.68,1.53,3.45.51,3.7-2.21.13-1.43-.2-3.75,2.28-3.74,2.07,0,2.48,2,3.08,3.49,2.13,5.16-.53,9.72-2.23,14.27a40.24,40.24,0,0,1-4.85,8.58C731.33,881.39,727.31,878.31,724.87,879.45Z" transform="translate(-1 -1)"/><path d="M70.36,61.42c-1.83-.12-4.5-.15-4-2.54,1.72-7.92.21-16.17,2.7-24C70,32,71.3,30.93,74.94,32c3.47,1,6.93.79,8.81,4.88,1,2.26,1.3,3.68-.94,4.94-5.54,3.11-7,8.5-7.47,14.15C75.06,59.47,73.85,61.28,70.36,61.42Z" transform="translate(-1 -1)"/><path d="M593,790.83c3.16,0,6.32,0,9.48,0,.93,0,2.19-.34,2.58.86s-.31,2.25-1.27,3c-1.56,1.22-3,2.89-4.75,3.5-5.56,1.91-8.16,6.49-10.69,11.14-1.33,2.45-3.17,4.23-5.85,3.52-2.9-.77-1.55-3.53-1.61-5.57-.15-4.46.75-9-.64-13.39-.71-2.24,0-3.1,2.27-3.07,3.49,0,7,0,10.48,0Z" transform="translate(-1 -1)"/><path d="M27.7,131.54c4.18-.65,8.24,2.82,12.86,1.07,1.18-.44,1.83,1.23,1.9,2.42.12,2.17.21,4.53-2.21,5.59-5.84,2.55-11.92,4.43-16.83,9-1.78,1.65-5.2,1-4.77-2.89a77.22,77.22,0,0,1,2.33-13C21.88,130.6,25.08,131.71,27.7,131.54Z" transform="translate(-1 -1)"/><path d="M139.22,106.15c-1.29,1.5,2.78,3.66-.12,4.93-1.51.67-3.59.23-5.39,0-1.05-.12-2-1.84-1.32-2,2.94-.85,3.93-3.26,5.33-5.43a1.44,1.44,0,0,1,1.37-.27C140.43,104.05,139.55,105,139.22,106.15Z" transform="translate(-1 -1)"/><path d="M372.4,731.67c-5.22-.08-10.34-1.59-15.59-1.25a20.79,20.79,0,0,1,15.47,1.34Z" transform="translate(-1 -1)"/><path d="M615.42,762V749.8C617.66,754.56,617,758.27,615.42,762Z" transform="translate(-1 -1)"/><path d="M544.09,768c-2.49.67-5-1.82-7.37.33-.15.14-1-.14-1.17-.43a1,1,0,0,1,.65-1.55C539,766,541.76,766,544.09,768Z" transform="translate(-1 -1)"/><path d="M362.73,737.69c1-.53,1.33-.81,1.61-.8,2.24.05,4.68-.65,6.37,1.54.14.18-.16,1.05-.44,1.16C367.55,740.71,365.33,739.73,362.73,737.69Z" transform="translate(-1 -1)"/><path d="M432.79,241.17c2.58,4,4.93,7.92,4.93,12.71,0,9-.11,18,0,27,.08,4.26-1.52,6.13-5.87,5.94-5-.22-10-.15-15-.09-2.39,0-3.18-.7-3.66-3.35-2-10.77-.72-21.58-.91-32.36-.11-6.56,3.78-11.43,8.86-12.38.67,1.46-.66,1.58-1.4,2.08a11.74,11.74,0,0,0-5.36,10.11c0,8.5.13,17,0,25.5-.06,3.62,1.19,5.18,4.93,5s7.66-.15,11.49,0c3,.12,4.28-1,4.26-4-.06-9,0-18,0-27C435.15,247,432.51,244.46,432.79,241.17Z" transform="translate(-1 -1)"/><path d="M459.32,263.28c0-5.82-.17-11.64,0-17.45.22-6.21,7.87-10.44,13-7.31,3.09,1.87,3.49,5.34,3.57,8.3.3,11.63.15,23.27.21,34.9,0,2.49-1,3.75-3.56,3.53-.33,0-.67,0-1,0-13.57-.21-12.35,2.16-12.28-12C459.34,269.91,459.33,266.6,459.32,263.28Zm2.41-1.86h.11c0,5,.27,10-.07,15-.37,5.29,2.86,4.88,6.37,4.86s6.58.14,6.41-5c-.29-8.64-.06-17.3,0-25.95A12.83,12.83,0,0,0,473.1,244c-1.43-2.69-2.93-5.75-6.61-4.84-3.46.85-4.79,3.75-4.76,7.27C461.76,251.44,461.73,256.43,461.73,261.42Z" transform="translate(-1 -1)"/><path d="M388,246.46c-1.6-.26-1.78-1.84-2.51-2.83-1.63-2.18-3.58-3.54-6.38-2.93-3.1.68-3.71,3.54-3.77,5.81-.25,11-.1,22-.13,33,0,2.32,1.12,3.28,3.33,3.39a23.8,23.8,0,0,0,7.86-1.27c1.27-.38,2.66-1.17,3.26.77s-.21,3.78-2,3.95a90.59,90.59,0,0,1-12.44.17c-1.65-.07-1.79-1.83-1.8-3.15-.08-12.82-.31-25.65-.06-38.46.09-4.52,4.59-7.56,8.71-6.79A7.26,7.26,0,0,1,388,246.46Z" transform="translate(-1 -1)"/><path d="M448.47,226.66c4.71-2.19,9.2.51,13.68,0,.82-.09,1.68,1.19.9,1.73-1.83,1.27-.75,2.54-.5,3.91.22,1.2,1.26,2.7-.48,3.49s-3.3,0-4.6-1.05c-1.72-1.44.45-2,.72-3.06,1.08-4.1-2.82-3.05-4.5-3.42S449.93,229,448.47,226.66Z" transform="translate(-1 -1)"/><path d="M441.78,322.17c.91,0,2.09.67,1.8,1.28-1.47,3-.13,6-.24,9-.1,2.49-2.55,2.73-4.68,2.14s-3.33-1.49-1.59-3.87c1.36-1.85.51-4.55,2.2-6.44C440,323.4,440.36,322.18,441.78,322.17Z" transform="translate(-1 -1)"/><path d="M445,233.38c-3.2.5-5.63-.66-6.21-3.36-.45-2.1,1.1-4.06,3.82-4,.95,0,2.57.4,1.38,1.44C441.12,230,444.7,231,445,233.38Z" transform="translate(-1 -1)"/><path d="M470.87,229.45c.32,1.53.85,3.28-1.12,3.71s-2.48-1.26-2.48-2.79-.63-4,1.92-4.34C473.11,225.44,469.29,228.83,470.87,229.45Z" transform="translate(-1 -1)"/><path d="M141.38,635.66c.06,4.37-2.41,7.48-6.07,7.65-3.5.16-8-3.91-8.1-7.32a7.72,7.72,0,0,1,7.42-7.69C139.05,628.31,141.31,630.77,141.38,635.66Z" transform="translate(-1 -1)"/><path d="M151.18,642.81c.23-5.38,2.42-8.2,6.19-7.95,3.36.21,6.43,4,6.24,7.72-.21,4.35-4.16,9.34-7.34,8.69C151.82,650.37,151.05,646.74,151.18,642.81Z" transform="translate(-1 -1)"/><path d="M110.27,628.46c.09-4.7,2.87-7.87,6.7-7.64,3.24.19,6.35,4.16,5.57,8.12-.61,3.07-1.31,6.94-5.88,6.81C112.52,635.63,110.19,632.83,110.27,628.46Z" transform="translate(-1 -1)"/><path d="M229.59,754.9v11.28C227.89,762.46,228.34,758.72,229.59,754.9Z" transform="translate(-1 -1)"/><path d="M447.54,191c8.67-.45,7.58,2.86,7.5,10.2a1.55,1.55,0,0,1-.51,1.19c-2.81,1.69-2.73,2.59.6,4.86,1.34.91,3.71,1.6,3.16,3.3-.67,2.09-3.19,1.46-4.85,1.05-3.32-.83-6.49.59-9.77.18-2.15-.26-2.86-.5-1.88-3a15.84,15.84,0,0,0-.38-12.7C439.75,192.35,441.49,191,447.54,191Z" transform="translate(-1 -1)"/><path d="M359.87,208.35c-.49-3-1.05-6-1.45-9.08-.16-1.2,5.41-7,6.53-7,.66,0,1.65.21,1.3,1-1.82,4.13-1.47,8.75-3,12.88A3.56,3.56,0,0,1,359.87,208.35Z" transform="translate(-1 -1)"/><path d="M397.4,201.48c-1.65-3.06-1.21-6.26-1-9.46C398.74,195,398.25,198.21,397.4,201.48Z" transform="translate(-1 -1)"/><path d="M388.38,390.62c.62,1.44-.22,2.57-.85,3.71a2.17,2.17,0,0,1-1,1,1.06,1.06,0,0,1-1.44-.9c.28-3.15-7.59-4.41-2-8.55.8-.6,2-1.93,3.51-1.18C387.45,385.16,388.28,387.86,388.38,390.62Z" transform="translate(-1 -1)"/><path d="M397.61,394.51c-.09,1.55.14,4-2.3,3.08-1.65-.61-5.34.68-4.75-2.76.33-1.92,1.88-4.72,4.05-4.95C397.22,389.61,398,392,397.61,394.51Z" transform="translate(-1 -1)"/><path d="M396.85,373.8c.45,2.46-.88,4.32-.14,6.32.34.92.24,2.14-1.06,2.33s-2-.81-2.31-2C392.7,377.41,393.87,375.3,396.85,373.8Z" transform="translate(-1 -1)"/><path d="M476.65,369c.92,1.33,2.13,2.59,1.55,3.79-2.28,4.71.37,9.44-.27,14.24-.46,3.45.91,5.86-4.43,6.94-4.55.93-9,3.8-13.6,5.72-3.94,1.65-4.64.19-4.5-3.33.17-4.16.06-8.33.11-12.49,0-2,1.95-4,2.89-2.68,3.71,5.2,7.05-1.25,10.71.1,1.71.63,4.29-2,4.07-4.15C472.83,373.73,474.64,371.6,476.65,369Z" transform="translate(-1 -1)"/><path d="M455.45,377.68c0-6.71-.21-13.42.08-20.12.15-3.49,3.45-4.19,6.15-4.8,3.1-.71,2.71,2.22,3.34,3.88,1.35,3.57,4.22,6.83,2,11.17-.93,1.84-1.08,3.72-3.45,1.12-1.45-1.57-3.05-1.73-2.69,1.31.42,3.47-3.26,4.7-3.68,7.72Z" transform="translate(-1 -1)"/><path d="M300.24,464.55c0-1.58,0-2.42,0-3.25.16-2.7-.31-5.09-3.35-5.87-2.88-.73-5.08.29-6.93,2.69-5,6.41-5,6.36-11.55,2.76-10.29-5.68-10.43-5.8-2.7-14.47,5-5.58,9.35-11.64,14-17.43,4.55-5.61,6.24-5.62,12.21-2.16,7.35,4.26,14,9.53,21,14.28s7.46,11.19.49,15c-7.27,4-8.06,9.64-7.68,16.64.31,5.72-.95,6.32-6.17,3.53-1.17-.63-2.24-1.45-3.44-2C301.58,472.23,298.68,469.28,300.24,464.55Z" transform="translate(-1 -1)"/><path d="M261,388.89a5.27,5.27,0,0,1,4.9,2c3,3.52,6.16,7,9.26,10.45,1.81,2,2.47,4.28,0,6-9.24,6.53-14.3,16.37-20.49,25.33-1.79,2.59-3.32,5.36-5.26,7.83s-4.38,4-7.74,2c-4-2.31-8.15-4.47-12.28-6.61-3.11-1.6-4-3.81-2.21-6.91a35.19,35.19,0,0,1,2.65-4.18q13.2-16.55,26.46-33C257.71,390.08,258.92,388.19,261,388.89Z" transform="translate(-1 -1)"/><path d="M506.93,153.32c-5.46.09-10.93-.41-16.38.48-2.73.45-4.95.2-4.44-3.68.53-4.07-1.64-9.11.93-12.05s7.77.08,11.37-1.18c7.92-2.78,11.94,1.86,16.09,7.1a65.26,65.26,0,0,0,6.21,6.35c.69.65,2.06,1,1.69,2.11-.47,1.47-1.93.86-3,.86C515.22,153.33,511.08,153.32,506.93,153.32Z" transform="translate(-1 -1)"/><path d="M462.1,124.93c11.55,0,11.55,0,11.51,11.61,0,7.29,0,7.29-7.39,7.31-3.82,0-7.65-.1-11.47.05-3.47.13-4.92-1.36-4.52-4.78a20.67,20.67,0,0,0,0-2.49C450.24,124.93,450.24,124.93,462.1,124.93Z" transform="translate(-1 -1)"/><path d="M343.2,157.77H328.74c-.95,0-2.22.35-2.5-.9a3.12,3.12,0,0,1,.94-2.14c3.78-4.42,7.63-8.76,11.43-13.16,1.12-1.3,2.59-1.3,4.1-1.31,4.49,0,9,.12,13.46,0,2.94-.1,4.29.82,4.1,4a23.75,23.75,0,0,0,1.27,8.82c1.12,3.47-.24,4.93-3.88,4.82C352.85,157.66,348,157.77,343.2,157.77Z" transform="translate(-1 -1)"/><path d="M574.29,447.87c-2.65.29-3.91-1.61-5.2-3.33-1.8-2.42-4.22-3.77-6.88-2.2a6.51,6.51,0,0,0-3.3,7.63c1.77,7.29.48,10-6.15,13.69-.73.41-1.48.78-2.16,1.25-4.24,2.88-6.36,2.08-6-3.25.52-7.57-1.9-11.93-9.28-14.76-6.47-2.48-7.06-9.09-1.85-14.13,6.66-6.45,13.62-12.6,20.6-18.71,3.84-3.36,7.51-2.61,11.32.91,6.9,6.39,14,12.53,21.24,18.6,3.87,3.26,3.87,3.92-.09,7.27C582.85,444,579.5,447.5,574.29,447.87Z" transform="translate(-1 -1)"/><path d="M628.67,409c.1,2-1,3.12-2.39,4.18-3.81,3-7.55,6-11.37,8.89-3,2.3-6.08,1.25-7.89-1.22a137.13,137.13,0,0,0-29-29.73c-2.6-1.92-2.35-3.39-.46-5.66,3-3.55,5.67-7.32,8.32-11.12,2.85-4.1,4.89-4.65,8.37-1.37,6.76,6.37,13.38,12.91,20,19.45,4.24,4.19,8.92,7.95,12.53,12.77C627.64,406.36,628.81,407.35,628.67,409Z" transform="translate(-1 -1)"/><path d="M714.69,608.42c.06-5.3,2.53-8.13,7.15-8.17,3.83,0,7.14,3.73,7,8-.14,4-3.76,7.12-8.11,7S714.56,612.58,714.69,608.42Z" transform="translate(-1 -1)"/><path d="M704.31,612.3c0,4.54-3.26,8.6-6.69,8.44-2.8-.13-6.21-5.13-6.26-9.18,0-3.53,3.8-7.28,7.39-7.21S704.36,607.45,704.31,612.3Z" transform="translate(-1 -1)"/><path d="M746.73,602.94c-.25,4.81-2.78,7.47-7,7.09s-5.18-3.6-5.16-7.14c0-4.33,3.18-8.06,6.55-8.07C744,594.8,746.93,599.09,746.73,602.94Z" transform="translate(-1 -1)"/><path d="M672.89,500.51c0-5.5,2.58-8.47,7.23-8.44,5.16,0,8.7,3,8.73,7.43,0,4.16-4.21,8.47-8.19,8.34C675.13,507.65,672.86,505.51,672.89,500.51Z" transform="translate(-1 -1)"/><path d="M195.65,535.13c0,4.39-3.17,7.15-8.08,7.1-3.89-.05-6.85-3.57-6.9-8.2-.06-5.57,2.06-7.51,8.1-7.41C194.23,526.71,195.71,528.54,195.65,535.13Z" transform="translate(-1 -1)"/></g></g></svg>