<svg xmlns="http://www.w3.org/2000/svg" viewBox="0 0 896.11 887.08"><title>takewhatsyours</title><g id="Layer_2" data-name="Layer 2"><g id="Layer_1-2" data-name="Layer 1"><path d="M1,466V442c4.32-7.11,11-11.5,18.05-15.31C31,420.3,43.23,414.44,52,403.56a5.18,5.18,0,0,1,4.76-2.21c5.17.56,9.8-1.21,14.23-3.51a6.27,6.27,0,0,1,5.22-.68c.89.31,2.24.87,1.29,2-2.76,3.41-2.39,7.82-4,11.56a52.82,52.82,0,0,0-4.14,24.87A10.41,10.41,0,0,0,71,440.68a1.9,1.9,0,0,0,2.09.95c1.05-.15,1.25-1,1.32-1.82.55-7,2.54-13.84,3.34-20.72,1.22-10.5,5.29-19.54,11-28,1.69-2.51,3.76-6.4,7.59-6,8.65,1,17.29,0,25.92.44,6,.29,11.9.32,15.3-6.19.69-1.32,2.31-2.2,3.93-2.9,8.21-3.53,15.1-13.51,15.8-22.41-3.7-1.31-5.66,1.08-6.94,3.8-4.35,9.26-11.33,15.32-20.76,19.27-8.66,3.63-17.54,3-26.46,3.08-5.2,0-6.34-2.1-3.66-6.67a7.14,7.14,0,0,0,1.2-2.11c1.1-6.49-1.29-12.62-3.75-18.11-2.67-6-8.63-9.48-15.23-11.14-2.57-.65-4.73-2.22-3.44-4.87,1.63-3.34,3.77-6.72,7.47-8.29,5.71-2.42,11.7-4.25,17.22-7,3.69-1.85,8.75-2.62,9.36-8.29.72-6.69-1.4-13.13-1.54-19.74,0-2-1.92-3.05-3.66-3.68-8-2.91-12.05-10.49-9.44-18.63,1.47-4.62,1.21-9.39-1.44-12.8-6.72-8.67-16.39-12.52-27.09-14-1-.14-2.54.56-2.93-1-.32-1.32.91-2,1.67-2.85,1.15-1.3,2.66-1.18,4.15-1.24,5.18-.21,10.05.94,15,2.5,10.45,3.28,21.71,3.47,31.68,8.9,4.58,2.49,7.35,5.34,7.27,10.62,0,1.83,0,3.66.09,5.49a2.38,2.38,0,0,0,2.06,2.46c1.86.16,1.45-1.42,1.45-2.49,0-4.16.07-8.33-.1-12.49a9.07,9.07,0,0,0-5.66-8.21A182.56,182.56,0,0,0,92.9,236.29c-7.89-1.93-15.43-5.88-24.34-1.75-6.11,2.84-7.33,1.75-8.39-5.08-.81-5.27-4.73-9.69-1.29-16.45,4.12-8.07,7.77-16.19,14.31-22.48C81.74,182.31,91.94,177.62,104,176s23.71-3.9,35.86-3.94c6.24,0,9.48,3.95,13.28,7.48.74.68.55,2.45,2.15,2.23s2.15-1.56,2.58-2.8a31.92,31.92,0,0,1,12.35-15.87c2.36-1.66,2.17-3.13.2-4.7a17,17,0,0,1-6-9.53c-.6-2.45-2-3.12-4.29-3a59.6,59.6,0,0,1-15.37-1.06c-1.3-.27-3-.32-2.91-2.06.05-1.29,1.47-1.52,2.63-1.84,4.3-1.19,8.53-2.73,12.9-3.64,3.93-.82,5.27-2.95,4.83-6.71-.85-7.22,3-11.56,9.07-14.44a39.21,39.21,0,0,1,3.65-1.6c1.19-.41,2.19-.86,2.12-2.34s-1.21-1.42-2.16-1.53c-3.42-.43-4-2.51-4-5.61.15-15.66,0-31.33.16-47,0-3.6-1-5.66-4.17-7.59A399,399,0,0,1,131,25.88c.3-1.37,1.19-1.36,1.94-1.68Q160.48,12.63,188,1H360c7.25,3.24,14.46,6.59,21.77,9.71,10.69,4.56,21.48,8.93,32.19,13.45,2.51,1.06,3.64,2.34.47,4.39C400.91,37.28,387.46,46.13,374,55a3.86,3.86,0,0,1-2.79.79c-5.46-.8-9,3.49-13.68,4.71,6.14,3.41,13.24,2.85,19,6.67-5.46,1-9.86,4.2-15.25,5.26-7.43,1.45-7.28,2.18-7.2-5.29,0-.5,0-1,0-1.5,0-1.11.6-2.45-.57-3.21s-1.85.24-2.52,1-1.82,1.25-1.4,3.18c.79,3.58,3.75,7.23.49,11.13-.89,1.06.52,1.71,1.27,2.26,1.12.81,2.35,1.41,3.59.25a24.23,24.23,0,0,0,2.69-2.86c1.78-2.29,3.31-4,6.16-.9.91,1,3.35,2.33,4.92,1.21,4.09-2.94,4,.2,4.06,2.65.29,7.82-.38,15.66.56,23.46.18,1.51-.21,2.86-1.76,3.13-3.89.67-3.79,3.39-3.76,6.38.1,9.83.08,19.66.06,29.49,0,1,.63,2.28-1,3-3.26-8-.57-16.51-2.59-24.54-.35,2.66-.07,5.34-.41,8-.6,4.6.82,9.32-.93,13.84-.3.78-.35,1.77-1.47,1.52-.55-.13-1.45-.82-1.41-1.15.57-4.21-.53-4.56-3.33-1.57-.12.14-1-.12-1.18-.41-3.17-5.65-10.74-3.86-14.49-8.56-.25-.32-1.33-.3-1.84,0-2.61,1.24-4.43-.37-6.3-1.65-4.13-2.82-8.17-5.74-12.3-8.55a3.59,3.59,0,0,0-4.22.38c-1.83,1.31.32,2.33.72,3.31,1.06,2.55,2.87,4.89.5,7.76a14.13,14.13,0,0,1-1.27-.78c-1.68-1.32.87-5.24-4.08-5.12-3.67.09,1.57-4.15-.95-5.87a19,19,0,0,0-2-1.39c-3.35-1.77-6.38-3.66-5.51-8.31.18-1,.25-2.44-1.56-2.88-2.1,1.53.06,4.43-1.75,6.27-.71-1.64-1.38-2.94-3.53-2.78a16.52,16.52,0,0,1-5.95-.53c-9.37-2.86-19.1-3.51-28.73-4.49a96.19,96.19,0,0,1-20.5-4.29c.79,3.43-.52,6.37-1.61,10-1.6-4.2-1.67-3.82-6.43-4.74-1.85-.36-5.86-.19-5.5-2.72.71-4.92-2.08-3.29-4.33-3.19-2.65.11-5.28.67-7.88.88-8.48.7-16.44,4.17-25,4.21a12.33,12.33,0,0,0-9.71,4.61c16.16-2.35,30.59.14,44.82,4.28,3.63,1.06,8,3.68,7.22,7.14-1.65,7.44,7.07,13.76,1.6,21.13,4.8,5.85,2.32,9.27-3.25,12.93-1.32.87-2.24,4.73-4.87,6.39,4.91,2.66,9.39,4.47,14.6,4.35a41.44,41.44,0,0,1,11.41,1c7.39,2,14.51-.28,21.65-.95,5.29-.49,10.62-2.28,15.86-3.3,8.41-1.65,16.64-4.55,25.35-4.66,2.14,0,4.62.13,6.36-.84,7.77-4.37,16.23-4.46,24.71-4.58,4.28-.06,8.05-1.94,12-3,1.16-.31,2.6-1.23,2.53-2.79-.11-2.42-1.61-.47-2.45-.67-.36-.09-.91-.67-.86-.94a2.44,2.44,0,0,1,.84-1.63c1.72-.92,3.22-.52,4,1.37.61,1.49,1.11,2.19,3.18,2.15,9.37-.22,15.82-9.12,25.44-8.32.21,0,.48-.38.7-.6a14.28,14.28,0,0,1,10.38-4.15c9.6.08,19.26-1.25,28.83.92a12.9,12.9,0,0,0,7.37-.38,6.12,6.12,0,0,1,7.2,1.68c2.05,2.23,1,5.47.14,8.12s-3.18,3.23-5.7,3.16c-5-.15-10,.42-14.94-.71-3.71-.85-9.54-.28-10.23,1.56-1.8,4.73-5.17,4.19-8.49,5-2.37.57-4.79,2.15-5.25,4.27-1.34,6.15-5.71,5.36-10,5.09-6-.37-11.91-1-17.88-1.13-3.63-.08-5.51,1.24-5,5.87,1.22,10.59-.29,21.34,1.2,32,1.15,8.28-1.4,16.48-.76,24.75.13,1.63-1.11,4.07,1.4,4.71a6.65,6.65,0,0,0,6.9-1.81c1.66-1.79,1.49-3.88,1.72-6,.35-3.36-3.64-2.15-4.62-4.54h32.84c-.9,2.11-3.52.75-3.46,3.76a88,88,0,0,1,15.56-.41c2,.14,4.21.24,5.82-1,2.74-2.08,5.65-1.54,8.7-1.91,4.69-.56,9.07,1.26,13.61.51.92-.15,2.16.49,2.42-.87s-.78-2.15-2-2.38a19.27,19.27,0,0,0-3.49-.15l-34,0c-11.09,0-10.88,0-10.88-11.33,0-2.88.85-3.62,3.21-3.59,2.87,0,3.95-1.24,3.33-4-.32-1.42-.1-2.78,1.49-3.23,1.25-.36,2.83-.7,3.68.65,1.38,2.2,3.83,1.74,5.74,2.44,2.65,1,5.11.6,4.67-3.3-.3-2.7,1-3.79,3.59-4.26,8.45-1.5,16.95-.74,25.43-.93,2.43-.06,2.41,1.61,2.36,3.44-.09,4.33-.05,8.66,0,13,0,1.25.29,2.35,1.81,2.52,1,.1,1.94-.43,1.73-1.28-.91-3.75,2.58-3.53,6-5.46-6.52,0-7-3.36-7.7-7.34-.84-5,1.48-9.75.63-14.63-.58-3.33,1.36-4.55,3.94-5.1,3.56-.76,7.19-1.21,10.78-1.8,1.41-.23,2.67-3.61,3.86-1.18,1.29,2.62-2.58,1.4-3.47,2.79-.17.26-.38.5-.63.83,1.7,1.22,4.42-.41,5.64,2-1.26,2.12-4.66.47-5.67,3.14,2.52,1.11,5.15-.38,8.73.65-5.26,1.76-9.53.22-13.7.62-.95.09-1.39-.82-1.57-1.67-.33-1.49.81-1.49,1.78-1.71s2.06.33,2.74-1.21h-8.82c1.69,8.53,9.25,5.2,14.24,6.65-.47,1.9-1.49,1.88-2.5,2s-3.19-.44-2.61,1.67c.4,1.43,2.22,1.23,3.51.81a16,16,0,0,0,2.08-1.31c1.18-.61,2.13-3.29,3.46-1.56s-1.83,2-2.5,3.38c-.25.5-1.52.79-2.26.7-4.72-.59-8.93,2.07-13.29,1.64-1.54,8.77,6.9,4.7,9.79,8.07-2.34,1.15-4.94-.32-7.92,1.69,4.46,0,7.94-.13,11.4.06,1.3.07,3.76-1.28,3.55,1.81-.18,2.67-2.32,1.8-3.82,1.83-3.91.08-7.83,0-11.74,0,1.75,1.91,3.46,2.82,5.81,1.81,2.68-1.14,5.6-.39,8.42-.52.75,0,1.79-.25,2,.9.14.94-.63,1.47-1.3,1.95-1.32,1-2.86.79-4.35.73a15.39,15.39,0,0,0-10.27,2.76c6.54-2.35,10.59,3.82,16.37,4.35a24.52,24.52,0,0,1-6.07.55c-.84,0-1.74.15-1.67,1.3,0,.83.78,1,1.44,1.09,2.87.58,5.33,1.89,6.59,4.62.35.75-.38,2.11,1.22,2,1.41-.11,1.13-1.4,1.31-2.32a17,17,0,0,0,.58-3.42c-.15-12.08,0-24.17-.67-36.22-.57-11-.66-21.95-.46-32.93,0-1.29-.33-2.92,1.48-3.23s2.31,1.09,2.7,2.4c.63,2.13,1.16,4.3,1.73,6.46,1.71-2.62,1.37-5.37,1.41-8.07,0-1.09-.4-2.41,1.15-2.92.82-.27,15.55,4.23,16,5a4.63,4.63,0,0,1,.69,2.32c-.7,10.15.62,20.36-.77,30.46-1.15,8.29,0,16.59-.64,24.87-.06.92-.14,2.33,1.34,2,1.25-.24,1.05-1.5.8-2.48-.44-1.72-1.55-3.57,1.76-5.58v21.2c2.81-1.24,2-3.13,2.33-4.63s-.64-3.11,1.34-4.79c0,3.15,0,5.64,0,8.13-.06,3.13,1.36,3.31,3.73,2,2.56-1.4,4-11.65,1.22-12.94-5.57-2.53-1.24-6.41-2.65-9.22,1.25-.62,1.47.18,1.93.6,2.53,2.25,2.9-2,4.84-1.61-.62-.2-1.5-.21-1.8-.63-.61-.87.45-.87.91-1.14,2.2-1.31,4.58-1.84,6.31.4,2,2.58-2.18,2.66-2.23,4.1.45,2.19,3.87.87,3.3,4-.62,3.4.17,7.21-1,10.28-.91,2.29,2.53,10.09-5.62,6.13-.23-.12-.8.52-1.24.74-5.2,2.66.13,5.91-1.65,9.07,3.75-1.17-.52-5.59,3.55-5.38,2.43.12,5-1.08,7.29.38,1.1.7,2.19.5,3.36.44,2.07-.1,2.7-1.27,2.12-3-1.91-5.7-.9-11.55-1-17.32-.17-10,0-10.05,10-8.47,3.65.57,5.88,2.42,6.24,6.47a22.34,22.34,0,0,0,3.92,11.58c1.28,1.76,3.43,4.14,2.22,6.19-1.07,1.81-4,.72-6.1.73-10.59.06-10.58,0-13.15,10-.29,1.12-1.14,2.44-.15,3.28,2.13,1.79,1.37-1.52,2.51-1.62s2.3-.2,3.45-.29c4.23-.35,8.52.38,12.85-.85-.91,2-3.49,1.18-4.45,3.19h15.19l.09-.52-5.24-1c7.28-.73,14.59-1.71,21.48-.46,7.12,1.3,13.93.37,20.9.29-14.09-3.88-28.81.23-42.87-3.8,19.06.5,38.1,1,57.15.17-25-4.18-50.21-1-76.22-2.5,2.66-2.54,5.11-2.09,7.24-1.94,12.3.85,24.6,1.34,36.93,1.16,15.66-.24,31.3.21,46.93,1.2,1.53.1,3.39,1.5,3.9-1.27.48-2.6-1.59-2.29-3.11-2.8-1.36-.45-4.29-.33-3.08-2.66,2.42-4.7-1.37-9.49.76-14.08.32-.69-.27-2-1.83-1.85-1.56,4-.36,8.18-.22,12.2.16,4.56-2.4,5.51-5.83,5.42-17.07-.42-34.12,1.37-51.19.19-1.22-.09-3,.91-3.11-1.13,0-1.54,1.7-1.19,2.81-1.09,11.1,1,22.23.82,33.35.84,1.13,0,2.78.62,3.29-2.17h-17c2.24-2.7,3.54-6,6.38-1.89.25.36,1.26.26,1.92.26,6.65,0,13.3.12,20,.05,1.92,0,4.5.34,5.11-2.09.77-3,1.08-6.26-.29-9.31-.48-1.07-1.54-1.13-2.57-1.05-.66,0-1.61.27-1.07,1,1.14,1.53,1.22,2.54-.91,2.46a2.5,2.5,0,0,1-2.63-2.45c0-1.26.66-2.37,2.16-2.16,6.36.9,5.43-2.56,4-6.47a11,11,0,0,1-.65-3.4c-.15-4.51-.59-8.72-7.55-8.47,5.7-.53,4.49-2.6,2.38-5.24-1.1-1.38-2.55-2.93-2.21-4.88.45-2.54-.5-3.32-2.87-3.22a2.42,2.42,0,0,1-2.69-1.78c-.35-1.56.69-2.43,1.91-3.15a20.62,20.62,0,0,0,2.91-1.92c3.68-3.16,3.51-4.25-.27-7.17-2-1.52-4.66-1.22-6.36-2.71-6.19-5.41-13.59-6.7-21.4-7a12.55,12.55,0,0,1-7.37-2.78c-2.23-1.79-4.71-2.07-7.45-2.24-13.92-.87-27.83-2.6-41.75-2.68-9.61-.06-18.41-4-28.06-3.94a52,52,0,0,1-15-1.72c4-2.71,8-5,12.65-5.18,3.19-.15,5.27-.75,6-4.19.31-1.44.44-3.56,2.86-3.45,2.18.09,2.25,2.06,3.12,3.41s.21,4,3.34,4.17c10.11.51,20.2,1.34,30.31,2.06a6.94,6.94,0,0,0,4.68-1.45c2.57-1.92,5.43-2,8.5-2.08,5.53-.1,11,2.52,16.35,1.15,4.37-1.11,8.5-1,12.81-.69,7.2.48,14.42,2.64,21.6-.36a4,4,0,0,1,2.87.51c3.87,2,8,2.08,12.19,2,6-.12,11.92.93,17.78,1.69,10.49,1.36,21,2.22,31.54,3.27,8.16.81,16.64-.11,23.32,6.14a2.79,2.79,0,0,0,2.78.63c4.38-1,7.63.88,10.72,3.76,2,1.87,4.39,3.54,7.45,2.78a22.42,22.42,0,0,0-4.48-4.08c-2.57-1.94-5-4-7.71-5.84s1.29-5.21.39-7.17c-1-2.13-5.33-1.84-5.48-5.5-.07-1.5-.07-3-.13-4.5-.06-1.14.39-2.64-.73-3.27-4.6-2.59-2.59-5.76-.93-8.89a43,43,0,0,1,3.91-6.72c1.63-2,1-3.6-.63-4.63-7.3-4.78-15.53-7.68-23.6-10.7-6-2.22-11.79-4.23-16.31-8.9-.56-.57-1.05-1.72-1.59-1.72-8.08-.14-15.69-4.35-24.12-2.22-5.77,1.46-12,2.16-17.28-1.75a11.66,11.66,0,0,0-8.73-2.44c-2.65.31-4.47-.27-5-3.84a13.35,13.35,0,0,0-6-8.8c-6.49-4.21-13.65-7.32-19.81-12.06a3.34,3.34,0,0,0-3.77-.45c-4,2.26-8.66,2.12-13,3.17-11.42,2.75-23.06,2.59-34.67,3-1.12,0-2.91.31-3-1-.21-3.13-3.5-6.57.76-9.43,1.55-1,2.28-2.84,2.84-4.62,1.42-4.57,5-6.77,9.3-7.18,6.14-.59,12.28-.85,18.21-2.7,1.59-.5,4.32,1.09,4.63-1.32.24-1.84-2.83-1.83-4.07-3.16a2.21,2.21,0,0,0-1.85-.53c-8.37,2.57-10.07-5.14-12-9.42s-4.34-6.1-8.48-6.91a63.72,63.72,0,0,1-8.16-2.18C517.5,6,517.4,5.59,522,1h37c-2.48,3.66-5.7,2.09-8.75,1.14-1.68-.53-3.85-1.09-4.4.65-.65,2.08,2.14,2.89,3.31,4.3s2.29.3,2.77-1.18c.42-1.32,1.34-2.08,2.63-1.49,1.71.78.59,1.87,0,2.84-.34.61-.49,1.23.73,1.9,1.43-1.09,3.75.77,5.26-.77,1.13-1.16,1.78-1.91,3.12-.61,3.81,3.68,5.43.33,7.13-2.3A38.52,38.52,0,0,0,573,1h16c-.19,1-.08,2.5-.61,2.76-5.51,2.68-7.72,8.64-12,12.17-4.87,4-4.76,11.09-10.51,14.23-1.59.87-.14,3,1,4.26,3.75,4,8.9,5,13.91,5.9,2.35.41,3.86-2.09,4.55-4,.87-2.4-1.69-1.67-2.85-2.22s-2.81-.43-2.21-2.8c3.37.44,6.81,1.56,10.07,1.16,4.87-.6,15-13.4,15.57-18.63.09-.88-.26-2.65,1-2.28,4.78,1.44,4.88-2.74,6.41-5.07.78-1.19,1.49-1.88,2.74-1.06s1.35,1.79,0,2.75c-.92.66-2,2.6-.77,2.43,2.84-.42,4.43,1.62,6.08,2.61,4.73,2.83,8.75-.5,12.87-1A30.07,30.07,0,0,0,655,1h3c-3,5.55-8.2,9.91-9.23,17.13,3.06-1,5.39-4.38,8.32-.22,2.38,3.37,5.14,2.52,6.52-1.65C665.41,10.83,667.49,5.58,671,1h4c-1.27,3.37-1.11,4.84,3.44,5.65,5.56,1,6.9-2,8.56-5.65h18c-3.46,2.27-7.06,4.36-10.33,6.88-1.35,1-4.34,2.59-2.7,4.39s.87,3.68,1.81,5.43c2.45-.57,4.13-2.09,5.8-3.64.76-.69,1.7-1.38,2.41-.1.5.9-.35,1.31-1.09,1.81-2.17,1.48-5.07,2.28-6,6.17,3.64-1.93,7.16-.76,10.22-1.67.55-1.77-2.21-1.5-1.21-3.49l13.37,9c-3.18-1.85-6.91-2.12-10.24-3.71-2.13-1-5.46-.93-6.74,1.6-1.75,3.43-6.8,6.27-4.88,10.32,4.51,9.55,7.49,19.85,13.61,28.61a19.61,19.61,0,0,0,7.66,7c10.42,4.86,21.35,7.89,32.63,10.2,18.51,3.78,37.16,4.75,55.95,4.73,4.42,0,3.91-1.81,2.16-4.43-2.19-3.28-4.89-6.38-3.81-10.78,1-4.09-1.28-5.12-4.63-4.9-5,.33-9.83-.84-14.65-2-15.24-3.78-27-13.87-40-21.79-5.25-3.21-10-7.18-16.28-10.22.61,3.33,4.65,4.18,2.85,8-2-2.93-3.59-5.64-5.63-7.9-1.6-1.77-2.71-5-6.23-3.58,1.71-2.45.12-3.64-1.82-4.57-2.35-1.12-4.32-2.54-5-5.38,4.36,2.9,8,7.13,12.54,9.28,14.81,6.94,26.94,18.1,41.55,25.37,11,5.46,22,10,34.35,10.3,5.64.13,8.09-4.43,5.56-9.57-2.39-4.86-6.7-9.92-4.42-15.34,2.51-6-.34-8.08-3.81-12-6.9-7.77-12.5-16.7-20-24h5q8.44,11.37,16.88,22.73c1.71,2.31,4,4.17,6.7,2.41,6.07-3.92,6.13-10.22.49-14.42C801.24,7.38,801,6.28,805,1h82a6.15,6.15,0,0,1-3.51,6.51c-2.2,1.14-3.66,4.09-2.64,5.23,2.59,2.88.16,3.16-1.38,4a3.68,3.68,0,0,0-1.82,1.53c-3.32,6.51-6.66,13.07-8.29,20.21-2.14,9.35,7.73,20.17,17.25,19.33,1.07,11-.15,12.76-8.88,14.16-24.9,4-46.34,14.64-63.94,32.94-9.24,9.6-14.14,20.69-13.59,34.07.24,5.93.8,12,.29,17.75-.47,5.25-1.24,10.37-.39,15.6.23,1.42-.51,4,2.23,3.41,2.17-.47,1.1-2.45,1.14-4.09.11-6.25-2.77-12.93,2.3-18.59a2.23,2.23,0,0,0,.17-1.82,26.3,26.3,0,0,1,1.76-22.34c1.55-2.84,1.8-6.82,4.77-8.35,2.72-1.4,2.55-2.94,1.57-5.28.85.25,1.17.34,1.48.45,1.48.52,2.34,3.34,4,2.08,1.89-1.41-1.29-1.65-1.35-2.81,0-.42.31-1.23.47-1.23,4.18.1,7.06-3.87,11-3.83,4.34.06,4.33.44,3.37-5.54,3.22,5.89,7.16,4,10.81,3.61.83-.08,2,0,2.24-1.37.36-2.58.41-2.7,3.09-2.16,1.1.22,1.42-.6,2.12-.88,3.58-1.43,7.06-3.74,10.74-4.09s5.13-2.44,6.85-4.71c1.19-1.57,1.93-3.49,3.07-5.11.71-1,2-2.8,3.09-1.61,2.06,2.25,3.52.91,5.07-.17s3.2-.72,4.82-.77c1.11,0,2,.49,1.84,1.77s-1.12,1.14-1.92.93c-2.79-.73-4.83.78-6.83,2.28-7.18,5.36-14.17,11-21.54,16.1-4.9,3.39-5.55,8.24-6.07,13.35-.27,2.63-.19,5.26-.65,7.92-2,11.93-3.8,23.91-5.64,35.87-1.5,9.8-2.85,19.63-4.5,29.41-1.88,11.1-4.3,22.1-5.75,33.3-.66,5.1-.31,10.31-1.6,15.29-2.83,10.93-3.76,22.13-5,33.29-.24,2.11.95,2.68,2.51,2.95,2.18.38,2.4-1.11,2.47-2.76.14-3.63-.05-7.32.61-10.85,1.54-8.26,2.5-16.64,3.53-24.93,1.83-14.59,5.83-28.8,7.1-43.41.65-7.58,3.44-14.67,3.44-22.45s2.22-15.38,3-23.11c.93-9.23,3.89-18.07,4.5-27.41.29-4.31-.34-9.55,3.4-13.13a196.72,196.72,0,0,1,22.32-18.3c2.74-2,4.25-1.58,6.88,1-5-.07-8.29,2.49-11.6,5.33-4.79,4.1-9.82,7.91-14.67,11.94-1.1.92-2.55,1.8-2.64,3.49-.51,9.13-2.74,18-3.91,27.06-1.31,10.18-2.45,20.4-4.33,30.48-2.15,11.51-3.05,23.19-5.52,34.68-2.74,12.72-4,25.75-6.2,38.6-1.78,10.46-3.43,20.9-3.14,31.56,0,.95-.68,2.44.46,2.66,3.38.67,5,3.92,8.13,5,7.07,2.37,13.73,5.83,20.62,8.58,6.55,2.61,12.28,8.34,20.3,6.58.79-.18,2.31.38,2.06.75-2,2.85,1.83,5.68-.32,8.63-3.19-1.53-6.51-3-9.69-4.67-9.79-5.28-20.9-7.65-30.33-13.66-5.39-3.43-11.6-1.79-17.25-3.44-.75-.22-1.6.37-1.82,1.68,1,.56,2.11,1.24,3.27,1.79q20.21,9.62,40.42,19.18c4,1.92,8.16,3.73,12.22,5.64,1.2.56,3.76-1,3.56,1.34-.22,2.64-2.88,1.29-4.5,1.49s-2.82-.77-4.14-1.5c-4.52-2.46-9-5-13.67-7.18-14.06-6.47-27.86-13.4-41.56-21,4-3.91,8.88-4.22,13.86-4.57-1.08-2.13-2.36-1.93-3.45-2.23-9.16-2.5-18.71-2.46-28-3.66-5.86-.76-12.47-2.27-18.56,1-6.48,3.5-13.64,2.86-20.76,3.25-4.8.25-7.79-3.3-12.34-3.08-15.29.75-30.64.53-45.9,1.62-7.78.56-15.64.57-23.38,1.8a136.19,136.19,0,0,0-48,16.86c-6.13,3.58-12.25,5.74-19.9,5.24a230.92,230.92,0,0,0-46.74,2.06c-9.36,1.29-18.63,2.81-27.8,5-1.43.34-3.38.39-3.57,2.19-.59,5.6-3,10.89-2.68,16.64.06,1-.31,2.21,1.07,2.31,1.11.09,2.6-.07,2.81-1.5.41-2.77,3.13-3.13,4.37-4.64,1.68-2.08,7-2.31,4.6-7.38,1.34,2.09,5.7-.37,5.23,4.13-.07.7,1.34.8,1.93-.05,2.86-4.1,6-2.14,9.41-.74-1,.93-2.56-.13-3,1.35h10v-.63l-3.79-.43c1.92-3,5.36.62,7.58-2.45-7.55-4.12-17,2.9-24.57-4.72,9.6,0,18.19,0,26.78,0,1.73,0,4.12-1,5,1,.69,1.66-1.8,2.53-2.49,4-.51,1.09-2.13,1.72-1.43,3.48a92.24,92.24,0,0,0,9.78,1.32c15.46.53,30.91-.18,46.4,1.17,16.36,1.44,32.86.52,49.31,1.09,26.28.92,52.6,2.25,78.93,1.67,8.32-.18,16.75-.56,25,.47,9.12,1.14,12.93-5.42,18.14-10.27l-.08.07c1.11.25,2.54-.09,3.25,1,2.43,3.67,5.31,3.82,9.46,2.68,4.59-1.26,7.15,2.65,9.07,6.19,1.53,2.83,1.61,5.77-1.56,7.86-1.55,1-2.08,2.3-.35,3.52a4.61,4.61,0,0,1,1.62,4c0,3.38,2,3.69,4.41,3.67,12.16-.12,24.32-.27,36.47-.38,2,0,3.67-.36,3.83-3.15-14.24-1.34-28.63,0-42.73-2.78,9.23-.26,18.44-.21,27.66-.29,2.7,0,6,1.24,7-3.22.27-1.19,2.7-2.29,4.34-1.3,2,1.22-.33,1.62-.75,2.42-.73,1.42.32,2.3,1.32,2.79,1.52.74,2.13-.12,2-1.65-.24-2.55,1.67-3,3.46-3.41s4.06-1.11,4.12-2.37c.26-4.88,5.25-4.69,7.18-7.82a112.34,112.34,0,0,1,.54,13.58c-.05,10.45-.06,10.45,10.14,11.17v54a1.93,1.93,0,0,1-.49-.06c-4.54-1.75-10.25-2.16-9.72-9.36.09-1.24-1.9-1.23-3-1.09-9.84,1.29-19.09-2.84-28.74-3.12-8.61-.26-16.89-3.42-25.52-3-6.84.32-13.49-1.27-20.22-1.76-4.16-.31-8.7.31-12.71-1.43-5.6-2.41-11.38-1.61-17-.88-3.28.42-5.31,2.59-4,6.92a50.13,50.13,0,0,1,2.4,14.55c-.22,13.36,4.55,26.75-.14,40.06a1.42,1.42,0,0,0,.06.93c2.41,5.61-1.46,11-.64,16.44.79,5.23-1.59,8.73-5.08,12-.12.11.06.54.1.81,1.22.73,1.79-1.54,3.43-.39-1.81,1.68-1.61,3.91-1.6,6.15s-.82,3.31-2.64,1c-.6-.74-1.1-1.32-2-.81-1.63.94-.07,1.47.32,2.19.8,1.47-1.07,2.64-.42,4.24,2.12,5.21-5.6,8.93-2.29,14.39a4,4,0,0,1-1.28.55c-.88,0-1.85-.05-1.06,1.22,2.38,3.8,2.84,9.2,8.49,10.31.85.17,1.79.46,1.42,1.52s-1.22.77-2.08.45c-3.5-1.29-6.47-.53-9.54,2.27,2.45,1.11,4.52-1.75,6.47.73-2.42,1.61-5.25,2.39-7.25,4.73l5.61,1.2c.71-4.54,4.05-.92,6-1.85.59-.29,1.92-.2,1.82,1a3.7,3.7,0,0,1-1.25,2.54c-1.54,1-1.35-.54-1.59-1.4-.31-1.11-1.18-1.08-2-.71-2.89,1.34.35,5-2.37,6.44,1.06,1.18,2.49.74,3.75.72,12-.24,24-.76,35.92-.66,2.54,0,6-1.87,6.56-1.08,2.09,2.74,4.53,1.58,6.8,1.63,6.41.16,12.86-.36,19.21.28,5.23.52,7.25-2.74,9.7-6.31-2.52,1.52-5.22.48-7.74,1.09-.81.19-1.78.46-2-.7-.26-1.37.79-1.66,1.84-1.69,1.85,0,3.7,0,5.55,0,0-.6-.06-1.2-.08-1.79-3.16,2.5-6.63-4.64-9.7,1.32-.8-1.33-1.15-5.13-2.81-3.11-3.3,4-5.83.34-8.57.26-2.12-.06-3.55-1.26-2.27-4,.57-1.22,1.34-3.29-.59-4.51a2,2,0,0,0-2.32,0c-1.89,1.23-1.11,2.84-.81,4.45.06.31-.44.73-.81,1.3-2.93-2-3.12-3.83-.71-6.33.94-1,2.86-.8,2.91-2.95.11-4.69,2.9-3.71,5.87-2.61,1.64.61,3.21,2.58,5,1.45,3-1.86,5,.05,7.32,1.32-5.95-1.26-8.87,4.26-13.56,5.3,5.29,4.09,10.81,1.74,16.13.92,2.9-.45,6.75-1.36,8.19-3.43,3.41-4.93,7.19-3.26,11.28-2.19,2.74,1.51,3.92,3.3.7,5.48-2.46,1.67-1.36,3.64-.81,5.72.5-2-.21-4.74,3.28-4.45,4.27.36,3.72-2.09,2.81-4.82-1.2-3.56-3.76-2.28-6.11-1.82,1.65-3,7.31-1.06,7.35-6,2,.08,2.45,3.48,5.49,2.13-4.53-3.34-2-5.12,1.15-7.05.67-.41,2.56-.49,1.91-2.28-2-.82-7.06,2-4.54-4,.29-.7-.94-1.36-1.75-.63-3.64,3.3-8.18,1.47-11.74.93-5.55-.84-12.69-2-18.47-.23-1.22.37-2-.22-2.83-1.37-2.1-3.11-4.27-2.84-6.32.5-.75,1.23-1.48,2.63-3.42,1.91-5.65-2.11-11.19-4.87-17.55-3.16-3.79,1-7.29-2.58-11.21-.7a2.6,2.6,0,0,1-3.74-1.45c-.69-2.44,1.36-1.9,2.81-2a1.6,1.6,0,0,0,1.56-2.08c-.43-1.4-1.36-1.1-2.21-.28-2.77,2.67-2.8.42-2.8-1.6,0-3.77.75-7.59-1.9-11-.76-1,.38-2.2.86-3.36,1.49-3.7,2.46-7.93.44-11.65-1-1.92-1.44-3-.11-4.78,1.2-1.62,2.12-2.46,4.45-1.92,3.56.82,8.65,2.32,10.63,1.49,6.47-2.71,11.69.5,17,1.81,10.24,2.51,14,.69,15.2-9.25.35-3,5.39-5.54,6.7-3.29,3,5.22,5.67,1.33,9.46.53-2.43-.87-4-1.33-5.49-2-4.49-1.93-9.55-.84-14.13-3.48-3.73-2.16-8.55,1.77-12.93,0-1.36,3.76-4.89,2.57-6,1.21-1.42-1.7-2-.9-3.09-.42-5,2.22-9.84,1.7-15,.53-3.62-.81-4.23-2.46-4.58-5.72-1-9.83,3.5-18.57,4.93-27.9.73-4.8,4.52-6.93,9.18-6.32,9,1.19,18,1.31,27,3.22,11,2.35,22.52,2.28,32.37,8.44-.67,2.39-3.52.91-4.88,2.36.91,2.17,2.24,1.73,3.67.86,4.25-2.59,9-2.21,13.58-1.82s5.37-.4,1.12-5.36c5.19,1.84,9.6-.62,12.44,3.76v27c-2.58.5-5.18,2.05-4.45,4.48.42,1.4,1.91,4.07,4.45,4.52V579c-2-2.07-4.9-1.87-7.34-2.84a133.22,133.22,0,0,0-42.86-9A69.74,69.74,0,0,0,811,575.33c-6.22,3.27-11.37,8.82-12,16.67-.25,3-.76,7.47.85,8.74,4.22,3.34,2.26,4.23-1.44,5.88,3.9-.48,6.38,7.69,11,.5.82,4.68,5.85,2.93,7.92,5.56,3.1,3.93,9.65.51,11.91,5.88,3.29-1.32,6.29.39,9.16,1.3,9.8,3.13,20.1,4.8,29.22,10,2.35,1.34,3.56,3.78,5.92,4.91.67.32,1.92,0,1.69,1.21a3.77,3.77,0,0,1-1.52,1.82c-1.39,1-2.84.47-4.29,0a1.63,1.63,0,0,0-2.16.7c-.44,1.1.26,1.93,1.28,2.33,1.23.48,2.52.82,3.78,1.24,1.09.37,2,1.62.92,2.06-4.18,1.68-6.23,6.42-10.21,7.63A28.12,28.12,0,0,1,850.22,653c-7.57-1.29-15.17-1.38-22.77-3.8-6.94-2.2-13.33-5.4-19.66-8.52-3.95-1.94-8.16-1.62-11.58-3.24-5.4-2.56-6.09,3.15-9.37,3.82-.79.16-1.53.82-2.3.83-4,0-4.61,1.13-2,4.44a5.69,5.69,0,0,0,2.83,2.13c4.88,1.93,9.55,4.4,14.47,6.2,6.25,2.28,12.63,5.61,19,5.81,15.76.5,31.54,2.37,47.37.55,6.11-.7,11.07-4.81,17.25-4.93a2.38,2.38,0,0,0,1.58-1c2.76-4.11,5.63-8.16,8.11-12.44,2.68-4.63.9-12.89-2.4-17.23-6-7.92-14.93-11.12-23.59-14-11.9-4-24.18-6.87-36.06-11.09A25.36,25.36,0,0,1,820,592.32c-1.89-2.24-1.44-4.75.3-7.28,3-4.37,7.19-6.34,12-8.32,7.84-3.2,15.54-2.91,23.13-.81,5.43,1.5,10.22,5.23,15.63,6.94,4.9,1.54,7.49,7.29,13.91,6.26,4.4-.7,8-2.9,12-4.11q0,149.41.11,298.82c0,3.81-1,4.26-4.43,4.26Q620.84,887.95,349,888c0-6-.27-12,.06-18,.75-13.68-1.28-27.36,1-41.12.62-3.75-.88-8.77-1-13.22-.19-6.54-2.61-10.27-8.78-12.93-5.29-2.28-10.86-2.35-16.5-2.64-11.28-.57-22.75,2.08-33.84-2.19-9.75-3.76-20.43-3.42-30.35-6.4-6.06-1.82-11.73-3.61-14-11.32-3-10.07-11.49-16.82-18.07-24.65-1-1.16-2.38-2.13-4-1.32s-1.05,2.66-1.06,4.07q-.06,17.21,0,34.41c0,1.49-.17,3.18.45,4.43,4.51,9.23,3.37,19.63,6.14,29.33,1.78,6.22,4.53,12.36,5.22,19,.72,6.84,4.76,12.75,5.81,19.55.64,4.21,3,5.24,6.71,3.15,1-.59,2.09-1.31,3.24-.56a2.61,2.61,0,0,1,.68,3.6C247,876.51,249.42,882.39,249,888h-5a47.66,47.66,0,0,1-.23-6c.31-3.77-.07-6.58-4.59-7.89-2.69-.78-4-3.95-4.2-6.81-.33-5-2.29-9.58-3.68-14.18-2.81-9.3-3.91-18.91-6.37-28.23-.34-1.26.21-2.82-.31-3.94a40.53,40.53,0,0,1-3.56-15.47c-.15-3.22-1.31-6.42-1.39-9.75a2.21,2.21,0,0,0-2.38-2.11c-1.76.15-1.48,1.73-1,2.69,2.41,5.14,1.26,10.82,3,16.32,2.42,7.91,3,16.46,5.25,24.68,3.13,11.27,4.75,22.94,8.68,34.07.8,2.23.73,5.17-2.46,6.76-4.48,2.22-4.49,3.27-.8,6.7,1.08,1,2.6,1.56,3.12,3.12h-7a10.35,10.35,0,0,0-4.36-5.88c-2.35-1.5-3.81-2.57.21-3.92,3-1,4.51-3.15,4.47-6.84-.06-7.26-2.85-13.89-4.44-20.73-1.44-6.23-2.16-12.6-3.94-18.82a83.35,83.35,0,0,1-2.51-14.64c-.51-5.2-2.82-10.28-3-15.45-.25-9.57-2.14-19-1.4-28.64.07-.93.3-2.15-.78-2.65a2.86,2.86,0,0,0-3.18.67c-5.35,4.37-11.72,7.2-17.26,11.39-2.47,1.87-6.45,7-10.55,1.12a1.44,1.44,0,0,0-1.38-.12c-4.76,3.12-10.2,2.28-15.42,3-6.26.8-7.93,3.4-6.44,9.57a68.11,68.11,0,0,0,7.38,18.6c2.58,4.4,5,8.89,7.47,13.35,4,7.27,7.84,14.65,12.09,21.78,2.88,4.83,6.32,9.32,9.54,13.93s5.72,9.55,9,14.14c2.24,3.14,6.23,5.65,6.48,10.19h-6a34.1,34.1,0,0,1-3.18-3.75,150.13,150.13,0,0,0-21-26.39c-1.37-1.35-1.32-2.76-1.66-4.37-1.2-5.63-1.71-11.82-5.56-16.23-6.37-7.29-9.55-16.18-14.14-24.38-2.55-4.56-3.39-10-7.76-13.87-1.64-1.44-4.07-4.37-3.43-7.53.28-1.37,1.9-2.7-.43-3.52a3.55,3.55,0,0,0-4.69,1.64c-2,3.37-1,6.53,1.1,9.13a85.09,85.09,0,0,1,9.35,14.92q8.92,17.48,17,35.38c2,4.38,3.32,10.64,10.07,11.79,1.85.32,2.65,2.31,1.32,4.42-3.35,5.34-6,11.17-11.29,15.06-1.12.83-2.5,1.77-1.4,3.12a2.34,2.34,0,0,0,3.84-.55c1.19-3,4.86-4,5.41-7.47.31-2,1.84-2.4,3.72-2.5,6.95-.35,11.75,6.37,10.66,15.1H152c4.52-5,10.28-8.38,15.37-12.63,6.74-5.65,7.14-6.42,2.88-13.83-4.05-7.07-6.94-14.75-10.88-21.77-5.45-9.71-10.71-19.53-16.32-29.15-3-5.08-5.21-10.58-9-15.17-.9-1.09-1-3-3.23-1.41-5.35,3.78-11.67,5.12-17.94,6.11-10.27,1.62-18.56,6.16-24.44,14.83-.58.86-.27,2.76-2,2.12-1.15-.43-2.86-1.67-2.85-2.51.08-4.05-2.28-7.51-2.59-11.24-.58-6.78-1-13.8.11-20.42a46.11,46.11,0,0,1,5.33-14.84c3.84-6.76,10.37-10.64,15.63-15.71,6.54-6.31,8.86-11.26,3.37-19.5-4.11-6.16-6.74-12.75-15.15-14.76a35.2,35.2,0,0,1-10.06-3.59c-7.81-4.66-9.46-12.45-12.2-20-2-5.42-3-11.4-8.41-15.21-4.23-3-4.78-3.25-7,1.68a69.47,69.47,0,0,0-6.35,26.86c0,2.8-.37,3.46-3.21,2.92a6.44,6.44,0,0,0-7.1,3,80.83,80.83,0,0,1-10.4,12.28c-2.42,2.33-5.6,5.34-8.91.19-1.58-2.45-3.65-.87-4.6,1.08-1.44,2.94-2.83,5.9-3,9.36C8.94,741.45,5.48,744,1,743V610c4.43-.1,7.89-3.32,12.73-3.07,9.32.46,10.48-1.87,6.27-9.81-.15-.3-.3-.6-.46-.89-3.92-7.11-9.65-8.8-16.69-4.93A14.11,14.11,0,0,1,1,592V565c.47.17,1.15.2,1.37.54,5.62,8.63,13.67,15.17,20,23.09,3.75,4.72,8.64,10.06,7,17.58-.69,3.24,2,5.36,4.06,7.44,3.44,3.42,7.92,5.17,12,7.58,4.73,2.77,10.59,3.35,14.66,6.5,4.22,3.26,8.16,7.11,12.28,10.62,1.1.94,2.88,2,1.86,3.62-1.33,2.11-2.9-.11-4.37-.34-1.28-.21-2.19-2.46-3.85-.73-2.39,2.51-2.31,12.55.25,14.84s2.67,3.36-1,4.42c-2.5.72-5,1.81-1.21,5.29a26.45,26.45,0,0,1,8.2,13.07c.29,1.22,1.65,2.64-.07,3.38s-2.15-1.13-2.72-2.27c-1.4-2.77-2.16-5.93-5-7.79-.71-.47-1.46-1-2.15-.09-.45.58-.21,1.2.23,1.78a56.89,56.89,0,0,1,9,19.17c.79,2.78,1.44,6.15,3.87,8.4.61.56,1.25,1.24,2.11.61a1.36,1.36,0,0,0,.28-1.3c-3.06-3.75-2.27-8.83-4.45-12.88-.5-.93-1.72-2.11-.11-2.94,1.4-.72,2.07.64,2.58,1.66,2.48,4.92,5.26,9.72,7.27,14.83,2.32,5.89,8.09,6.39,12.5,9,1,.6,1.65-.21,1.92-.94,2.63-7.33,8.12-4.8,12.94-3.53,2.85.76,4.43.32,5.41-2.46,3.56-10.15,8.75-19.54,13.92-28.91a139.79,139.79,0,0,1,17.08-24.69c1.73-2,1.32-3-.25-4.48-3.65-3.45-8.51-3.57-13.35-4.7,2.69-4.24,7.72-2.53,10.67-5.15.87-.78,3.09.3,2.86-1.91-.16-1.55-1.47-2-2.85-2.34a33.28,33.28,0,0,1-14.91-8.51c-2-1.91-3.68-3.38-1.45-6.18,1.37-1.73.11-3-1.09-4.27-3-3.28-7.6-4.11-10.59-7.25-1.52-1.59-4.18-3.63-3.09-5.56,1.29-2.27,3.79-.18,5.7.65,1.6.7,3.22,1,4.57-.56s.49-3.1-.52-4.46-2.32-2.71-2.92-4.57c-2.66-8.28-4.28-17-10.37-23.83-.89-1-2.77-2-1.86-3.7.7-1.32,2.42-.72,3.67-.67,4,.16,4.3-2,2.75-4.69a94,94,0,0,0-8.22-12.93c-3.2-3.94-2.1-8.2-2-12.32.06-2.24,1.21-4.38,4.67-2.2,2.83,1.77,5.71,3.89,9.23,4.45,7.81,1.23,15.78,1,23.58,2.52,3,.59,4.67-.5,3-3.86-.66-1.35-.46-2.35,1.23-2.33,2.32,0,5.19-.61,6.86.49,8.37,5.54,18.84,5.69,27.24,11.06,2.33,1.49,5.21,2.1,7.85,3.1a4.43,4.43,0,0,0,5.72-1.65,115.41,115.41,0,0,0,6.71-10.38c3.28-6.15,5.71-12.91,9.26-18.69,5.14-8.37,2.7-16.07-.54-22.89-2.42-5.09-6.5-10.14-10.47-14.49-7.5-8.23-17.39-13.41-27.38-18.3s-20.16-9.29-27.8-17.47c-2.51-2.68-3.94-2.52-6-.62-5.69,5.3-10.32,11.55-17,16-5.59,3.73-11.19,7.8-17.59,5.69s-10.39,1.08-13.35,4.81c-3.33,4.21-5.7,3.07-8.82.77a49.69,49.69,0,0,1-5-4.1c-2.2-2.13-4-1.42-5.24.8a38.19,38.19,0,0,0-2.75,4.63c-1.82,4.63-5.16,8.1-10.39,8.57a66.7,66.7,0,0,1-22.15-1.9c-5.54-1.37-10.79-4.13-16.22-5.2A146.69,146.69,0,0,1,1,466ZM343.81,77.69c-2.82.9-3.62,2.23-1,4.35.9.71,2.59,1.66,2.47,2.18-.35,1.61,2.16,4.23-.55,4.64-3.71.57-4.19.36-4.65,2.76-.16.82-1.25,1.71-1.84,1.28-1.63-1.2-4.79-1.23-3.81-4.76.34-1.19.72-2.91-.82-4-2.95,2-3.87,7.92-9.43,4.11,0,2.31,1.83,3.44,1,5.64s1.81,1.57,3,2c1.95.71,2-.58,1.63-1.81-.37-1.39,0-1.84,1.37-1.55,1.12.24,2.58.23,2,2-.45,1.32-1.22,2.92.93,2.93,6,0,11.63,5.34,18.17,1.29.63-.39,3.13,1.44,3.69-1.51.06-.31,1.37-.26,1.58.5,1.7,6.16,7.33,4.88,11.58,6.23,1,.3,1.66.22,1.76-.91s-.55-2.44-1.51-2.09c-7.11,2.62-3.57-2.88-3.75-5.09-.12-1.4-.3-2.34-1.64-2.49a2,2,0,0,0-2.23,2.15,9.1,9.1,0,0,0,.72,2.81c.25.82.47,1.73-.39,2.2s-1.52-.23-1.87-1a20,20,0,0,0-5.49-6.8c1.35-1.83,3.94,1.07,4.64-1.87a1.86,1.86,0,0,0-.55-2.17c-2-1.58-3,.56-4.32,1.23-2.59,1.34-3.06.56-3.15-2.07s-.93-7-3.26-6.34c-5.1,1.57-3.71-2-4.49-4,1.29.7,2.5,3.21,4,1.16.94-1.28-1.18-2.16-2.24-3.16-2.83-2.66-5.46-2.57-8.34-.38-1,.75-3,.39-2.84,2.2A3.27,3.27,0,0,0,336,79.65c1.88.84,2.32-.92,3.25-2.06C340.94,75.45,341.85,75.59,343.81,77.69Zm256.4,184.42.16.13c-.64-2.31-4.19-3.23-4.3-3-1.46,3.37-3.53.88-5.32.82-5.88-.18-11.82-1-17.28,2.32-2,1.2-3.92,2.41-3.41,4.9a54.45,54.45,0,0,1,.72,13.35c-.14,3.47,1.25,4.34,4.4,4,8.1-.82,16.2-1.53,24.31-2.18,1.8-.14,2.73-.65,2.69-2.63-.1-5.16-.06-10.32-.13-15.48C602,263.19,602,261.9,600.21,262.11ZM873.05,462c2.47.83,5.83.55,5.7,4.86a4.5,4.5,0,0,0,3.1-3.43c0-2.31,0-3.81,2.24-5.39,3-2.18,3.48,2.14,5.7,1.88-.6-3.46-1.25-6.29-5.68-4.33-1.36.6-3,.34-3.07-2.17a13.65,13.65,0,0,0,7-1.22c-3.06.38-5.86-1.86-9-.55-.38.16-1.59.79-1.72-.73-.24-2.82-1.92-2.74-4.3-2.5-3.21.31-5.28,2.62-8,3.73-1.67.67-4.63.85-4.44,3.27.15,1.93,2.71,2.67,4.39,3.66.68.41,1.7.31,2.29.79a1.78,1.78,0,0,1,.26,2.64c-.74.84-1.48.27-2-.45a1.87,1.87,0,0,0-2.33-.95c-.26,1.42-.42,3.12-1.53,4.41-2.59,3-.15,4,2.05,4.87a5.21,5.21,0,0,0,4.35-.33c1-.53,2-.72,2.27.71.23,1.1-.4,1.59-1.45,2.16-2.1,1.15-4.33.72-6.68.62.54,2,1.74,1.75,2.86,2,1.73.44,4.24-2.36,4.66-.2.51,2.63-3.21.75-4.63,2.23-.8.83-2.42.88-3.68,1.24-1.81.52-4.09-.25-3.92-1.67.36-2.94-1.43-1.57-2.36-1.6-4.23-.1-8.32.32-12.41-2.18-1.66-1-4.18-3.32-6.94-2.18-.53,2.52,3.56,1,2.61,3.52-.69,1.8-3.26-.14-4.19,1.92,1.22.85,2.38,1.77,3.65,2.51,1.59.93,2.81-1.7,4.75-.49-1.79,1.93-2.66,5-6.12,4.18a17.19,17.19,0,0,0-14.93,2.67c3.87,1,8.46-1.4,11.69,2.2.22-.2.6-.38.64-.62.83-4.5,4.17-1.26,4.39-.7,1.15,3,3.49,1.85,5,1.42,2.57-.76-1.43-2.67.22-3.93,3.14-.34,2.81,2.19,2.92,4.19,2.17-.65,2.31-5,4.61-2.72s-1.46,2.33-2.33,3.52a3,3,0,0,0-.58,1.76c0,.76.63,1,1.43.87,4.32-.57,8.61,1.1,13,.08,1.3-.3,3.49,1.07,3.68-1.06.15-1.67-2.34-.71-3.19-1.42-3.22-2.67-9.92-1.27-9.63-8.32-2.76,1.16-5.52,2.15-8.33.1,3.14-2.83,4.68-3.07,8.55-2.89,3,.15,3,2,3.27,4a1,1,0,0,0,1.47.82c2.72-1.66,5.09-.16,7.39.87,1.4.62,3,0,3-.6.48-4.33,3.22-2.06,5.45-1.4-.9-3.76-1.65-6.92-2.61-11a13.4,13.4,0,0,0,5.58,1.28c1.64.12,3.21,1.37,4.92,2.17a3.83,3.83,0,0,0-3-4.06c-4.7-1-5.23-4.53-5.83-8.2Zm-649,39.1c-.31,2.15-3,4.57-2.39,4.78,4.21,1.38,1.18,3.05,1,5.12-1.09,11.55-7.77,20.32-13.58,29.62-2,3.16-3.11,6.86-2,10.8.36,1.27.33,2.93,2.25,2.59a3.37,3.37,0,0,0,2.8-2.55,9.31,9.31,0,0,0,.17-2.48c-.09-2,.49-3.63,2.53-4.38a4,4,0,0,1,4.79,1.85c2.71,4.09,6.45,7.33,9,11.61,1.93,3.25,4,6.49,8.09,8.13,5.33,2.17,11.66,3.84,13.24,10.44a37.93,37.93,0,0,0,4.61,10.62c3.24,5.44,4.13,5.59,8.08.94a3.08,3.08,0,0,1,3.57-.87c1.8.5.41,1.75.47,2.74.26,4.89-1.85,9.49-1.14,14.6.25,1.77,2,4.24.49,6.29-4,5.58-1.56,11.9-2.13,17.87-.14,1.51-.72,3.76,1.26,4.42s4.31-.51,5.82-1.86c.87-.77,1.48-2,2.55-2.84,10.88-8.72,12.75-21.39,7.13-32.95a35.87,35.87,0,0,0-11.77-13.77c-1.1-.78-3.14-1.05-2.4-3.18.59-1.69,2-1.79,3.62-2,2.33-.3,4.61,0,3.08-4.38a63.21,63.21,0,0,0-6-12.31c-1.06-1.73-2.7-4.35.5-5.24,6.25-1.72,7.62-2.69,7.24-9.24a49.37,49.37,0,0,1,1.77-16.08c.66-2.35.21-6.56,3.95-7.72,7-2.18,10.6-8.08,14.52-13.47,3.3-4.52,3.6-4.61,7.3-.24,1.36,1.61,2.67,4.7,5.8,2.66,9.09-5.92,18.49-11.53,26.42-18.9,4.14-3.84,5.93-5.73,7.61,1.3.46,1.92,2.72,2.91,5,2.5,2.49-.45,1.61-2.54,1.7-4,.12-2,0-4,0-6,0-18.17,0-36.33.06-54.49,0-1.56-1.06-3.91,2-4.24,11.68-1.28,23.33-2.95,35.14-2.64,2.76.08,4.08,1.21,4.11,3.8A59.55,59.55,0,0,0,394,449c1.34,3.41,1.29,7.13,1.35,10.82a116.15,116.15,0,0,0,1.25,16.68c.83,5.17-1.62,10.92-1.38,16.63.32,7.93-.23,15.83-3,23.43-.75,2.09.13,3.47,2.2,4.28,4.2,1.65,8.37.93,12.61.22,8-1.35,16-4.05,23.94-.1.59.29.53.14.81-.33,2.07-3.6,4.17-7,.31-10.94-2.9-3-4.27-7.22-5.17-11-2-8.53-5.27-16.75-7.91-25-3.08-9.6-1.42-19.08-3.05-28.48-.68-3.89.69-8.49.7-12.81,0-6.7.45-6.64,7-7.18,13.37-1.09,26.7,2.5,40.06.07,3.42-.63,6.89-6.83,5.43-10-2.62-5.63-7.44-7.47-13.54-6.62-6.45.9-13,2.34-19.35,2.54-27.13.9-54.3.49-81.46.75-4.44,0-6.1-1.14-6-5.91.33-13.49,0-27,.17-40.49.06-4.25-1.15-5.91-5.64-5.55a149.59,149.59,0,0,1-16,.08c-2.6-.06-3.55.87-3.48,3.46.11,4.66-.46,9.38.07,14,.62,5.3-1.73,5.9-7,4.58,3.62-.25,4.4-1.82,4.37-4.35-.08-7,0-14,.14-21,0-1.63.11-3-2.18-2.95-16.16.25-32.35-.51-48.47,1.3-.85.1-1.81.19-1.86,1.21s.84,1.26,1.71,1.4c8.21,1.37,15.67,5.21,23.67,7.26.76.19,1.87-.08,1.9,1.06s-1.07,1.48-2.08,1.62c-2.45.32-4.89-.08-7.41.54-8,2-16.15,3.56-24.23,5.29-1,.21-2.08.59-2.4-.81s.4-2.25,1.85-2.26c6.78,0,13.1-3.26,20-2.84,1.64.1,3.64.42,4.74-2.14-7.06-2.4-13.94-4.51-20.62-7.16-1.94-.77-5.74.78-5.61-2.19.13-2.75,4-1.06,5.93-2.21.2-.12.27-.45.41-.69-12.52-.58-18.15,3.4-23.4,14.07-3.09,6.3-6.18,13.05-12.87,17-3.09,1.8-5.21,4.54-4.49,8.66a4.73,4.73,0,0,1-1.6,4.95c-1.84,1.45-4.06,3.92-5.92,2.84-2.59-1.49.84-3.41,1.49-4.63,2.75-5.21-.7-5.09-3.6-4.31-4.3,1.15-8.73.25-12.85,1.28a45.32,45.32,0,0,1-21.41,0,15.48,15.48,0,0,0-11.5,1.68c-6.43,3.69-13.34,7.5-20.89,2.32-2.59-1.77-4.95-3.87-7.4-5.86-1-.79-2.24-1.45-3.15-.6s-2.75,2.17-2.13,3.48c2.12,4.52,2.14,9.82,6.23,13.7,3.9,3.7,6.28,9.23,4.65,14.32-1.74,5.47.58,8.62,3.74,11.78a49.11,49.11,0,0,0,8.9,7.19c11.67,7.07,23.58,13.75,35.23,20.85,3.87,2.36,8.31,5.1,9.63,9.41,1.71,5.58,6.58,8.06,9.58,12.27.91,1.29,2,.36,3-1,2.46-3.13.77-6.94,2-10,2.91-7.2-1.2-14-.85-21.07a18.24,18.24,0,0,0-1.21-7.21c-3.5-7.82-4-16-3.46-24.27.35-5.46-1.77-11.25,1.87-16,3.78,3,3.17,7.74,3.87,12.22a36.21,36.21,0,0,0,.87-8.69c0-1-.88-2.63,1-2.77,1.21-.09,1.95.84,2.38,2.13a28.64,28.64,0,0,1,1.67,8.47c.31,11.25-1.73,22.69,3.06,33.61,1.65,3.75,5.12,5.46,8.55,2.77,4-3.16,8-6.38,10.76-10.86a53.17,53.17,0,0,1,6.1-8.31c3.15-3.4,6.66-6.48,11.76-6.57a5,5,0,0,1,4.15,2.37,1.86,1.86,0,0,1-.37,2.66c-5.11,4.74-9.17,10.5-14.11,15.3-5.9,5.72-11.79,11.51-17.88,17-6.56,5.93-6.86,13.93-8.83,21.32-1.44,5.41-1.55,11.05-8,13.21-1,.32-1.86.79-1.51,2.33ZM189.26,657.16c-.3-3.84-2.51-5.42-5.45-6.11-4-.93-7.94-1.82-12-2.41-4.32-.64-7.13,1.21-9.91,4.89s-5.39,7.28-8.16,10.86c-11.77,15.15-22.86,30.73-28.49,49.41-1.07,3.54-2.07,8,.28,10.48s5.68-1.15,8.6-2a23,23,0,0,0,2.22-1.11c9.42-4,19.3-6.3,29.42-4.65,4.16.67,7.89,1.05,11.56-.68a6,6,0,0,1,6.53.63c5.33,3.65,10.46,7.35,13.86,13.26,2.71,4.7,5.55,9.56,10.27,12.82,1.64,1.13,3.31,2.47,4.15-.29,2.69-8.84,4.93-17.82,7.68-26.63,1.47-4.7,2.63-9.48,4.34-14.14,1.63-4.43,4.4-8.56,5.3-12.89,1.22-5.92,4.94-10.23,7.41-15.24,3.84-7.78,9.81-14.36,15.66-20.79,2.19-2.4-.07-3.23-.66-4.56s-1.87-2.16-3.61-.9c-8.81,6.36-18.75,8.37-29.45,7.79a22.72,22.72,0,0,1-8.18-1.63c-5.26-2.34-9.76,2.49-14.89,1.57A6.84,6.84,0,0,0,189.26,657.16Zm293.16,172.5c2.24.44,1.47,4.34,3.32,3.25,2.6-1.53,4.68-.28,6.79-.46,5.21-.44,9.69,1.35,14.41,2.38,8.22,1.81,15.7-1.6,23.12-3.69,5.25-1.48,9.64-5.94,14.51-8.92a24.79,24.79,0,0,0,8.84-9.05c3.6-7,8.46-13.27,9.81-21.77.91-5.76,1.12-12,3.71-17.71s-4.43-11.57-.18-17.52c.13-.19-.28-1-.62-1.25-7-5.27-6.26-14.49-11-20.89-.8.89-1.5,3.59-3.52.63-1-1.45-2.85-1.68-4.15-2.63-2.6-1.9-6.37-3-5.83-7.46.23-2-1.47-2-2.09-1-2.45,4.18-5.55,2-8.66,1.39-2.73-.59-5.33-1.55-8.16-2-5.34-.81-10,1-15.05,1.83-13.81,2.32-26.25,5.94-34.94,18.61a56,56,0,0,0-9.72,27.67c-.95,11.35-.27,22.72,4.51,33.53,1.06,2.41,3.83,6.42-2.85,8.31a62,62,0,0,0,6.3,1.93c1.11.21,2.66-.33,2.93,1.14.75,4,5.14,7,3,11.88-.55,1.25-1.11,3.88,1.24,4.68S481.83,831.58,482.42,829.66ZM367.76,232.87c.26-17.63-.31-35.25-1.19-52.86-.29-6-1-7-6.3-4.49-6.75,3.25-13.78,5.45-20.82,7.67-12.59,4-25.16,8.12-38,11.14-8.33,2-16.83,3.15-24.95,6.08s-7.78,2.56-3.18,9.51c10.55,15.91,23,30.36,34,46,1.66,2.37,3,3.27,6.07,2,5.67-2.31,11.68-1.22,17.38.13,8.18,1.94,8.12,2.18,8.17,10.71a23.16,23.16,0,0,1,0,2.5c-.29,2.65.61,3.6,3.49,4,5.47.67,11,.2,16.4,1,6.31,1,8.82-3.67,8.9-8.89C367.87,255.84,367.76,244.36,367.76,232.87ZM737.51,808.71c0,7.42.12,12.59,0,17.75-.09,2.62.95,3.67,3.36,4.58,5.79,2.19,12.19,1.39,17.9,4.07,1.76.83,4.67,1.57,5.94-.59a6.81,6.81,0,0,0-.35-6.7c-1.32-2.31-3-4.5-3.82-7-3.21-10.05-5.73-20.33-9.31-30.23-1.87-5.16.55-10.92-3.25-15.76-1.18-1.5,0-4.13,2.85-4.79a40,40,0,0,0,7.1-2.3c4.81-2.17,10.26-3.87,13.22-8.43,5-7.72,7.73-15.92,5.78-25.7-1.66-8.3-6.69-13.48-13.27-16.65-12-5.78-25.45-6.35-38.45-8-8.87-1.14-17.92-.47-26.88-1.32-3-.29-7.7,0-8,3.81-.47,5.34-1.06,10.85.41,16.32a55.46,55.46,0,0,1,1.75,12.71c.27,9.62.2,19.26.12,28.88a118.9,118.9,0,0,1-2.61,26c-1.68,7.24-2.38,14.65-5.43,21.7-3.21,7.4-1.24,9.5,6.44,9.51a40.19,40.19,0,0,1,5.49,0c4.23.58,6.09-1.77,5.88-5.35-.39-7.06,1.44-13.79,2.34-20.64,1.14-8.58-.4-17.26,1.57-25.8.59-2.57,1.56-3.32,3.94-3.25,4,.1,8,.07,12,0,8.14,0,7.48.23,10.63,7.65C737.12,789.58,737.88,800.12,737.51,808.71Zm-155.39-24.6a92.17,92.17,0,0,0,2.62,25.82c2.12,8.56,7.48,14.51,16.06,16.36,8.9,1.93,18.08.76,27.07,0,6.76-.57,13.31-3.85,18.75-7.25,5.9-3.67,10.19-10.45,12.91-17.26a88.77,88.77,0,0,0,6.08-36.71,34.46,34.46,0,0,1,.57-5.58c.67-5.92,1.89-12.45.11-17.82-2.88-8.7-.63-16.29,1.82-24.12,1.09-3.5-.74-6-3.1-6.24a27.31,27.31,0,0,0-16.66,3c-1.17.66-2.55,2.34-2.52,3.52.09,3.4-1.9,6.42-1.94,9.44-.2,14.89-2.29,29.67-2.65,44.5A78,78,0,0,1,633.31,805a19.73,19.73,0,0,1-11.71,10.1c-13.24,3.92-21.3-5.81-21.94-17.29C599,786.16,601.38,774.65,601,763a3.43,3.43,0,0,1,.12-1.48c2.87-6,2.79-12.57,3.9-18.93.78-4.46.43-8.91,1.26-13.28,1.08-5.69-.27-7.58-6-8-6.11-.42-12.22-.89-18.33-1.27-1.3-.08-3.25.38-2.07,1.93s3.75,1.94-.13,3.13c-1.11.34-.1.92.49,1,2.62.32,1.61,2.45,2,3.89,2.62,10.24-.26,20.66,1.05,31C584.25,769,581.08,776.81,582.12,784.11Zm75.77-339c-.09-5.24,2.86-8.4,2.07-12.31-.45-2.2.38-4.55.7-6.82.86-6.15,3.33-11.87,4.15-18,.49-3.57-1.61-5.56-5.42-4.81a119.4,119.4,0,0,1-15.65,2.25c-4.82.3-8.61,5.06-6.18,8.42s1.11,6.52,1.5,9.74c.26,2.14-.42,4.66.5,6.38,2.65,5,1.48,10.19,1.14,15.15-.69,10.31-2.83,20.54-3.31,30.85a186,186,0,0,1-3.69,27c-1.11,5.7.31,7.5,6.22,7.82,4.24.22,8.1-1.55,12.26-1.77,1.67-.09,4-1,3.91-3.71-.09-3.67.47-7.44-.22-11-2.16-10.93-.52-21.9-.94-32.84a11,11,0,0,1,1.45-5.17c1.61-3.13,5.72-3.89,7.68-1.6,12,14,21.36,29.44,27.26,46.94,1.08,3.21,3.08,5.33,6.9,5.25,6.16-.12,12.33,0,18.5,0,.95,0,2.48,0,2.77-.49,1.89-3.36,4.19-1.82,6.33-.63a8.32,8.32,0,0,0,4.77,1.12,7,7,0,0,0,5.82-4.14c1.05-2.26-1.68-3.67-3.22-4.32-5.74-2.45-10.18-6.76-15.35-10-7.71-4.79-15.45-10-21.1-16.71-7.06-8.43-15.52-15.74-21-25.66-2.24-4.07-1.31-5.48,1.55-7.54q11.87-8.49,23.69-17c9.53-6.91,19.42-13.24,29.43-19.43,4.33-2.69,9.19-4.7,13-8.24.83-.78,2.52-1.66,1.51-3.24-.88-1.36-2.16-1.43-3.91-1-5.11,1.3-10.29,2.67-15.51,3.06-6.29.47-11.09,3.2-15.36,7.45C694.14,416,676,429.38,657.89,445.12ZM445.26,741c-.46-1.72-3.08-.15-2.83-2.11.19-1.52,1.8-1.15,2.89-1.27,1.35-.14,3.14-.13,3.41-1.53.53-2.71,2-3,4.45-3.46,3.2-.55,3.41-3.94,3.35-6.32,0-1.88-2.49-2.46-4.37-2-7.59,1.64-15.25.3-22.87.72-.9,0-2.75.19-2.52-.64.49-1.72-1.45-3.87.14-4.8,3.7-2.15,3.11-6.38,6.3-9.74-4.39.85-7.06,2.36-8.9,5-1,1.37-2.54,2-2.43.43.21-2.94-1.28-1.6-2.31-1.49-1.76.18-2.79-.18-3-2.26-.13-1.23-1.08-2.37-1.61-3.57-.38-.87-3,.11-1.73-1.9.58-.93,1.42-2.55,3.17-1.34.54.37,1.31,1.66,1.41-.23a2.12,2.12,0,0,0-.64-1.69,3.7,3.7,0,0,0-3.82.21c-2.86,2.07-5.26,4.89-9.26,4.79-.34,0-.87.52-1,.91-1.25,3.74,1.41,8.39,5.5,9.68-4.46,3.79-9.71,4.62-15.21,3.6-.46,1.75.61,2.21,1.33,2.81,1.48,1.23,2.06,2.15-.3,3.12a37.71,37.71,0,0,0-4.71,2.74,1.4,1.4,0,0,1-2.15-.39c-.69-1.2.34-1.36,1.14-1.46a2.22,2.22,0,0,0,2.16-2.31c0-1.53-1.46-1.72-2.42-2.14-3.34-1.42-7.16-1.58-10.59-5,1.34,7.37-8.22,7-6.3,15-6.33-6.9-12-6.39-17.69-2.75-2.32,1.48-3.67,3.74-.33,5.2,2.88,1.26,1.22,6.12,5.32,5.87-3,4,1.62,3.29,2.81,4.74a4.46,4.46,0,0,1,1.16,2.65,13.66,13.66,0,0,0,3.79,10.71c.7.75,2.34,2.43.16,3-5.19,1.38-1.77,2.6-.56,4.83,1.86,3.4,3.85,4.19,7.15,2.6.51-.24,1.47-.88,1.55.08.41,4.52,3.94,3.22,6.59,4,2.34.7,5.5.79,6.43,4,1.09,3.7-2.63,7-1,10.73-5.64.22-1.61,4.72-4.27,7.46,3.56-1.65,6.41-3.47,4.54,1.62-.56,1.49.76,2.41,1.07,3.59.7,2.6,2.8,5.39-.74,7.9a2.68,2.68,0,0,0,.19,4.6c1.55.93,1.39,2.06,1.4,3.35,0,4.64.18,9.29,0,13.92-.23,4.83,2.44,6.56,6.65,6.7s8.63-.08,12.94.06c2.6.08,3.52-.9,3.46-3.49-.19-8.9-4.16-17.31-3.34-26.33,0-.4-.62-.84-.66-1.28-.77-9.37-4.18-18.78.92-28,.87-1.58,0-4.09,3.14-3.71.78.09,1-.56,1-1.33.16-2.34.2-2.32,2.73-1.39,1.31.48,2.73.78,3.52-.72.9-1.72-.55-2.09-1.7-2.86-1.41-.94-3.55-.52-4.62-2.32,1.47-.89,3.24.16,4.3-1.36,3.28-4.72,7.09-8.76,13.06-10,1.15-.24,1.22-1.35,1.34-2.4.73-6.17,4.64-10.39,10.77-11.81A18.05,18.05,0,0,0,445.26,741ZM600.05,512.8c2.67,0,5.33,0,8,0,2.44,0,5.42.51,6.46-2.44s-.48-5.38-2.79-7.43A82.5,82.5,0,0,1,601.36,492c-5.88-7.59-12.65-14.44-17.86-22.63s-12-15.39-17.39-23.47a96.69,96.69,0,0,1-12.67-27.24c-1.42-5-4.18-7.25-9.41-6.71-4.29.45-8.62.69-12.94.73a4.41,4.41,0,0,0-4.55,3.85c-1.59,10.51-6.54,19.9-10,29.73-4.52,12.89-9.14,25.85-15.31,38.11-2.27,4.53-4.19,9.35-7.59,13.2s-7.45,7.61-9.87,12.43c-2.64,5.26-1.8,7,4.3,6.84,6.79-.12,13.62-.67,20.37-1.34,3.95-.4,7.29-2.92,7.36-8.43a55.78,55.78,0,0,1,2.93-15.92c1-3.2,1.9-6.83,6.92-7.72,14.63-2.57,29.33-2.68,44.06-2.76,1.89,0,4.22.42,4.74,2.19,1.86,6.25,6.55,11,8.45,17.25C586.81,512.78,586.87,512.76,600.05,512.8Zm169-379c-.09,5.33,4.07,10.18,10.26,11.9,4.29,1.2,8.8,1.74,13,3.23,3.61,1.29,3.93-.2,4-3.09.23-5.47-.66-11,.63-16.43a54.52,54.52,0,0,1,17.54-28.82c1.77-1.57,6-3.81-.21-5.47-1.11-.29-1.42-1.83-1.48-3-.14-2.45-1.59-3-3.7-2.9-7.14.49-14.18-.15-21.32-.74-14.5-1.19-29-2.55-43.49-3.78-14.05-1.2-26.73-5.49-39.11-11.88-5.77-3-9.13-7.35-11.82-12.83-4-8.18-7.24-16.73-15.46-22.3-5.06-3.43-6.86-4.33-11.54-.41-.87.72-1.91,1.59-1.73,2.86.2,1.45,1.5.87,2.41.91,1.09,0,2.16.4,2,1.62s-1.31,1.5-2.32,1.45c-3.92-.21-7.87.64-11.7-1.46-5.08-2.79-10.74-3-16.47-2.87-4.09.13-4.71,3.89-5.34,6-.48,1.64,3.22,1,5,1a68.79,68.79,0,0,1,15.81,1.89c1.08.22,3.69.16,2.69,2.53-2.68,6.27,2.09,9.71,5.86,11.49C672.59,67.36,680,75.25,689,81.15c5,3.29,8.33,7.17,15.85,6.52C714,86.88,722.66,91.87,730,98a8.8,8.8,0,0,0,5.42,2.08c9.75.6,18.85,2.66,26.74,9.23,4.32,3.59,6.92,7.3,6.71,12.93-.13,3.33-1.15,7.73,5,5a2.7,2.7,0,0,1,3.47,1.32c.89,2-.92,2-2.14,2.36s-1.48,1.24-.42,2.11c.75.6,2.08,1,1.34,2.18s-2.08.71-3.15.16S770.92,133.64,769.09,133.78ZM661.46,270.16c1.31,3.75.72,6.76.77,9.72.09,5.85.37,6.13,6,4.45,6.54-2,13.18-3.79,20-4.17,13-.73,26-1.08,38.95-1.2,3.86,0,5-1.58,5-4.95-.19-14-.41-27.95-.52-41.93a4.3,4.3,0,0,0-3.14-4.52c-3.77-1.27-7.56-2.5-11.41-3.54-14.84-4-29.47-2.08-43.67,2.68-10.32,3.47-9.82,2-9.8,12.93,0,6.33-.1,12.66-.28,19,0,1.58.11,4.21-1.79,4.19-6.12-.08-11.67,3.2-18.13,1.87-12.55-2.58-16.37.93-16.19,13.39a6.66,6.66,0,0,1,0,1c-.32,3.14,1.27,4,4.17,4,8.13,0,16.25-1.43,24.39-.25,3.61.52,4.69-1.28,4.47-4.65C660.09,275.78,659.4,273.25,661.46,270.16ZM348.3,782.56a17.87,17.87,0,0,0,1.28-8.12c-1.84-13.81.83-27.64-.6-41.4-.14-1.34.95-3.36-1-3.86-1.58-.4-2.55,1.31-3.48,2.45-3.92,4.78-4.05,4.53-8.93.86-5.7-4.3-12-7.52-19.48-7.48-1.25,0-3.24-.46-3.25,1.34,0,6.24-3.4,3-5.78,2.14-1.86-.66-3.54-1.8-5.37-2.55-6.32-2.58-11.7-7.28-19.08-7.62-3.17-.15-5.76-2.29-7.56-5.67-3.12-5.9-6.11-11.91-9.32-17.7a23.1,23.1,0,0,1-2.57-12.09c.18-5.28,2.19-10.13-3.79-13.51-.61-.35-.64-2.2-.51-3.3.29-2.44-.74-4.51-1.43-6.7-.89-2.79-2-2.64-3.57-.5q-5.29,7.23-10.67,14.4c-4.64,6.18-6.83,13.59-10.29,20.36-1.38,2.7-3.34,5.47-3.56,8.32-.45,5.89-2.85,11.27-3.74,17.09-1.22,8-3.66,15.77-3.12,24,.12,1.76-.74,4.07,1.19,5,2.2,1.11,3.41-1.36,5.08-2.25,2.89-1.52,4.1-5.36,7.5-5.83,4.62-.64,9.08-1.5,13.15-3.92,8.09-4.8,16.91-6.17,26.22-5.87,5,.16,9.9,1,14.79,1a19.27,19.27,0,0,1,13.53,5.18,50.48,50.48,0,0,0,24.18,11.95c6.1,1.2,12.08,2.78,14.74,9.76,1.69,4.45,1.08,8.9.78,13.24C343.3,775.87,345.11,778.94,348.3,782.56ZM817,849.35c3.31.08,6.94.33,10.57-.54,7.53-1.82,13.21-6.3,18.95-11.31,13.25-11.58,13.61-30,3.79-43-7-9.32-16.62-15.62-26.3-21.54a49.15,49.15,0,0,1-13.73-12c-9.15-11.82-1.37-23.32,8.84-25.51a35.36,35.36,0,0,1,21.08,2.1c8.25,3.44,15.07,8.59,19.94,16.22a6.38,6.38,0,0,0,5.82,3c7,.06,11.16-5.37,16.73-8,3.83-1.83,3.41-4-.11-6.49a97,97,0,0,0-30.41-14.33c-6.76-1.84-13.44-4.28-20.74-4.3-6.59,0-12.81,1.58-19.13,2.76-9.37,1.75-19.19,11.82-19.58,20.06-.41,8.62-.29,17.08,5,24.78,5.11,7.48,11.72,13,19.17,17.91,6.77,4.44,14.55,7.58,20,13.8,5,5.75,8.52,11.7,5.15,20.35-5.49,14.09-23,20.85-35.52,12.83-7.19-4.59-10.81-11.79-14-19.22-2.22-5.11-4.9-6.42-10.74-4-3.24,1.35-6.78,3.56-4.93,7.83C781.88,832.46,797.39,851.58,817,849.35ZM669.71,653.6v0c2.67,0,5.33,0,8,0,2.83,0,4-1.7,3.41-4.26-2.81-11.55-5.76-23-10.24-34.14-2.34-5.81-6.33-10.67-8.37-16.71-1.19-3.53-1.47-7.47-3.6-10.65-4.38-6.56-3.71-13.42-1.27-20.31,1-2.92.22-4.12-2.69-4.19a23.28,23.28,0,0,0-5.34.65c-7.58,1.63-12.06,6.92-17.19,12.19-14.73,15.14-30.18,29.6-44.17,45.48-6.83,7.76-13.84,15.37-20.83,23-1,1-2.85,1.48-2.24,3.41s2.52,1.87,4.17,1.88c5,0,10-.18,15,.08,3.24.17,5.23-.73,6.64-3.84,1.7-3.74,4.61-7,5.87-10.86s6.42-4.37,6.16-9c-.06-1.15,1.83-1.79,3.07-2.3,5.59-2.33,11.52-2.66,17.47-3,8.33-.46,16.49,2,24.84,1.28,1.84-.16,3.76,0,1.78,2.69-1.12,1.53-.31,2,1.26,2,4,0,8.13,3.47,8.3,7.48.15,3.61.44,7.22-.66,10.88-2.06,6.92-.88,8.27,6.13,8.28Zm-258.13,10c-2-1.21-.19-2.6-.72-3.81-3.79-8.58-4.89-17.62-4.57-26.91,0-1,.31-2.25-.17-3-4.19-6.16,3.12-13.22-1.57-19.3-.06-.08.38-.5.53-.79,1.92-3.58-1-4.65-3.21-4.75a39.09,39.09,0,0,0-12.78,1.63c-3.31,1-4.57,2.84-3.07,6.38a105.18,105.18,0,0,1,7.46,28.82c1.17,10.21,3.95,20.31,3.61,30.8-.19,5.69,2.41,8.09,7.42,7.28a34.08,34.08,0,0,1,7.49-.05c2.51.14,4-.67,5.65-2.83,4.26-5.45,7.42-11.78,12.72-16.4.86-.74,2.22-2.82,3.1-1,2,4.24,7,6.61,7.23,12.05.05,1.8.5,4.06,2.84,4.86,7.94,2.71,16.28-1.21,19.75-8.91,2.63-5.82,5.08-11.7,8.65-17.12,7-10.67,13.55-21.66,20.29-32.52a115.6,115.6,0,0,1,15.07-20c1.33-1.38,2.53-3.11,1.46-5.36s-3-1.51-4.77-1.78c-4.56-.7-8.87,1.82-13.33,1.13-4.77-.75-7.34,1.61-9.65,5.24-1.05,1.64,0,3.27-.81,4.79-5.57,10.61-8.39,22.31-13.1,33.29-3,7-5.5,14-10.76,19.67-1.86,2-1.71,7.12-5.09,5.86-2.35-.89-3.45-5.32-4.92-8.25-.73-1.45-1-3.14-1.57-4.66-.47-1.19-.65-3-2.25-3a71.73,71.73,0,0,0-19.45,2.47,4.2,4.2,0,0,0-2.44,3A25.41,25.41,0,0,1,411.58,663.56ZM450.2,276.08c9.17,0,18.34-.17,27.5.08,3.4.09,4.27-1,4.21-4.25-.16-8.83,0-17.66-.07-26.49,0-5,1.48-11-.74-14.7-2.43-4.05-9.06-4.35-14-5.27-7.55-1.4-14.93-4.16-23-2.18-6.82,1.67-13.62,2.57-19.87,6.44-3,1.83-5.59,2.81-4.81,6.67,1.52,7.46-.56,14.87-.15,22.31.18,3.05,1.31,7.06-4.38,6.57-1.62-.14-1.69,1.78-2,3.05a3.46,3.46,0,0,1-3.88,3,17.06,17.06,0,0,0-4.36.84c-1.08.28-2.51.42-2.37,2s1.63,1.73,3,2c2.59.5,4.92-1.29,7.3-1C425.06,276.85,437.65,275.85,450.2,276.08Zm-134-209.27.89-1.43c-5.46-.12-6.75-3.3-7-7.38-.09-1.33-1.42-1.28-2.36-1.1-1.46.27-2.15,1.42-2.53,2.78-1.74,6.09-2.7,6.79-8.7,5.88a12.19,12.19,0,0,0-4.89-.11c-3,.73-5.17.45-3.29-3.57a32.48,32.48,0,0,0,.8-3.37c.75-2.22-1.35-1.82-1.7-1.39-3.58,4.35-8.25,1.86-12.4,2-7.12.31-14.45-.75-21.35.57a31.68,31.68,0,0,1-14.18-.17c-1.48-.36-4.66-1-4.37,1.5.58,5-2.11,5-5.51,4.89-.86,0-1.51.54-1.08,1.73,8.67-1.51,17.36-.35,27.32-.8-2.56,1.56-3.88,2.6-5.7,2.26-6.25-1.18-12.47.44-18.68.2-3.34-.12-4,1.13-4,4,.06,6.65.22,13.32-.17,20-.18,3.08.81,3.72,3.52,3.71q39-.12,77.93-.11a9.9,9.9,0,0,0,6.1-1.81c1-.72,2.16-2.09.77-2.75-4.73-2.26-1.93-4,.5-5.63-2-1.85-5.17.19-6.34-2.71,1.55-2,5.75,1.12,5.89-2.8.12-3.12-3.55-.48-4.72-2.52,5.14-1.14,1.74-5,2.23-7.59.4-2.07-2.43-1.31-3.94-1.67-1.85-.44-4.23.53-6.34-2.59ZM720.3,656.42c8.22.51,8.77-.22,7.15-8.45-.07-.32-.15-.65-.22-1a48.52,48.52,0,0,1,.92-25.45c2.35-7.11,6.78-13.63,10.85-20.06,6.39-10.11,15.8-18.09,20.91-29.15.77-1.68,2.16-3.08,3.85-2.45,4.88,1.81,10.08.86,15.1,2.53,5.73,1.91,12.25,3.72,17.38-2.39,1.59-1.88,4.48-4,3.74-5.88-1-2.39-4.51-2.25-7.15-2a98.55,98.55,0,0,1-25.25-1.7A221.43,221.43,0,0,0,734.15,557c-2.16-.07-4.53.4-6.45-.31-9.56-3.55-19.42-1-29.11-1.64a7.27,7.27,0,0,0-7.06,5.13c-.62,1.92-1.16,4.17,1.13,5.86,3,2.17,5.71,3.14,9,.56.9-.7,2.54-.65,3.84-.63,9.52.14,19.05.39,28.57.55,2,0,1.85,1.4,2,2.72.84,10.06-3.19,19.14-8,27.14-3.5,5.84-6.92,12-11.17,17.62a127.39,127.39,0,0,0-17.48,33c-1.89,5.15-.43,7.84,4.91,7.85,3,0,6,0,9,0s6.16-.47,5.47,4.44c-.31,2.2,1.92,1.76,3.33,1.79,1,0,2.31.22,2.61-.91.56-2.13-1.77-1.4-2.58-2.23C721.78,657.58,721.37,657.29,720.3,656.42ZM523.19,625.5c1.91-3.73,3.6-6.55,4.83-9.56,3.09-7.56,5.18-15.56,9.82-22.42,1-1.5,2-2.68.67-4.38a4.76,4.76,0,0,0-4.86-1.88c-4.53.8-9,1.67-13.58,2.43-4.31.73-6.22,4-4.51,8.1a6.54,6.54,0,0,1,.51,4.84c-2.85,7.17-1.5,15.3-5.26,22.25-2.8,5.19-3.87,11.11-7.71,15.94-6,7.51-10.67,16-17.15,23.12-1.37,1.52-1,3.28,1.05,3.09,4.89-.47,10.06-1.2,13.28-5.38,4.22-5.49,7.51-11.72,12-17,2.73-3.23,3.29-8.27,7.85-9.88,10.59-3.73,21.22-7.35,31.83-11,.83-.29,1.67-.36,2.2.48s-.07,1.14-.58,1.64c-7.22,7-12,15.94-18.12,23.82-1.5,1.93-.94,3.79,1.63,3.76,5.13-.05,10.29-.46,15-2.85,2.37-1.2,3.43-3.17,4-5.87a52.09,52.09,0,0,1,7.27-18.11c10.67-15.9,23.91-29.72,36.22-44.3,1.18-1.41,1.67-2.56,1.11-3.8-.74-1.65-2.4-.64-3.5-.24a36.3,36.3,0,0,1-12,2.68c-3.67.06-6.39,1.71-7.68,5.79a73.13,73.13,0,0,1-9.43,18.69c-3,4.41-6,8.74-12,10.27C545.31,618.45,534.77,622,523.19,625.5ZM349,627.09c0-2.83,0-5.66,0-8.5,0-1.38-.11-3.05-1.92-2.81-6.19.84-12-2.17-18-1.93-10,.4-19.77-1.8-29.65-2.61-2.23-.19-4.34-2.36-5.8,1.28-3.18,7.88-9.93,12.89-15.55,18.8-4.4,4.62-9.32,8.89-11.41,15.2-1.54,4.67-.73,5.72,4,5.74a61.53,61.53,0,0,0,14.38-2c9.08-2.14,17-6.77,25.47-10.06a92.82,92.82,0,0,1,19-5.22c3.14-.51,5.3,2.09,8.47,2.24C349,637.71,349,638,349,627.09ZM208.88,70.36c-.35.58-.46,1.06-.68,1.11-9.61,2.27-19.21,4.62-28.87,6.69-3.91.83-6.15,2.28-5.89,6.83.35,6.31.16,12.64.06,19-.05,2.56.05,4,3.47,3.27,15.83-3.57,31.71-6.89,47.58-10.25,1.33-.28,1.34-1,1.34-2.09,0-19.58.1-39.16.15-58.75,0-.81-.11-1.69-2.33-1.66,0,5.64,0,11.33,0,17,0,4.42.06,4.41-3.79,4.6a1.09,1.09,0,0,0-.81.41c-1.28,2.76-3.82,1.67-5.71,1.55-4.57-.31-8.84,1.24-13.28,1.72-1.74.18-4.06.7-4.2,3.44s2.08,3,3.87,3.69C202.81,68.06,205.82,69.2,208.88,70.36Zm446.89-8.51c.23-2.87-6.19-9.77-9.31-9.92-4.15-.2-8.32-.16-12.48-.12-5.6,0-11.33-2.69-13.12-6.68-2.31-5.13-6.37-7.51-10-10.38-3.12-2.45-7.67-3-10.88-5.88-.68-.61-1.89.28-2.66.93a94,94,0,0,0-8.9,7.85c-.69.75-7.12,2.3-.65,4.72.83.31.17,1.4-.64,1.86-1,.57-1.72,1.55-.56,2.27,2.09,1.3,2.6,2-.17,3-1.54.55-.68,1.6,0,2.27,2.37,2.23,4.16,5.06,7.53,6.26,2.76,1,5.77,1.62,8.07,3.68,4.63,4.13,10.67,4.77,16.22,6.62,6.43,2.15,13.32.34,20,3.13,4.14,1.74,8.13,3.93,12.32,5.62,3.1,1.24,3.45.65,4.67-2.29C657,70.37,655.54,66.15,655.77,61.85Zm7.46,280.7c8.54-1,13.26,3.77,18.51,7.7,1.88,1.41,4.51.85,6.83.83l100.86-.89a37.84,37.84,0,0,0,4-.09c2.51-.27,1.78-2.45,2.05-3.91.37-2-1.12-2-2.54-2-26.12-.1-52.21-1.22-78.3-2.39-15.11-.67-30.28.69-45.37-1.29C667.8,340.3,666,339.62,663.23,342.55ZM734,255.34c5.12-1.4,9.18.87,12.63,3.55s7.79,2.9,11.72,4.18c2.21.72,4.46,0,5.16-1.65s-2.1-1.44-3.06-2.48c-.42-.46-1.16-.63-.49-1.72,2.71.72,5.53,1.41,8.32,2.23.86.26,1.59.47,2.2-.35a1.72,1.72,0,0,0-.1-2.27c-.58-.74-1.74-1.15-1.37-2.48,1.78-1.12,3.09.23,4.5,1s2.83.89,3.16-.88c.57-3.14,2.08-3.19,4.59-2.17a4.86,4.86,0,0,0,5.47-1.53c1.63-1.73-.48-2.53-1.24-3.63-.51-.73-1-1.54.18-1.94,3.53-1.2,2.87-3.26,1.21-5.51a1.53,1.53,0,0,1,.58-2.48c4.16-2,5.82-6.65,7.32-9.81,3.39-7.14,11.06-12.19,10-22-.41-3.82,1.46-8.28,1-12.89a28.07,28.07,0,0,1,.39-10.18c.2-.75,2-2,.5-2-1.89-.1-2.59-1.9-4-1.86-1.19,0-1.15,1.45-1.11,2.41.17,4.07.35,8.15.64,12.21.79,10.73.36,21-8.8,28.77a64.31,64.31,0,0,0-8.94,10,35.25,35.25,0,0,1-13.95,10.76A221.3,221.3,0,0,1,734,255.34ZM549.74,283.76h2.78c7,.05,7,.05,7-7a11.13,11.13,0,0,1,0-2c.65-3.49-2.31-6.07-2.51-9.42,0-.3-3.69-.35-5.66-.59-.64-.08-1.28-.62-1.89-.58-6.31.45-13.5-3.56-18.53,3.63-.82,1.17-2.11.33-3.23.35-10,.16-12.35,3-11,12.73.25,1.79.67,2.73,2.62,2.76,6.26.1,12.5,0,18.76.95C542.17,285.19,546.32,283.34,549.74,283.76Zm59.07,56.11-.15-1.4c-8,0-16,.35-23.93-.07-19-1-37.89-2.06-56.88-2.23-1.86,0-3.27,0-3.33,2.48,0,2.11-1.21,1.86-2.7,1-1.65-.93-3.94-1.44-4.58.74-.89,3,2.12,2.42,3.61,2.55,9.75.81,19.51,1.64,29.28,2.07,12.47.55,25-.1,37.43,1.28,2.72.3,5.82,1.29,8.3-.51A38,38,0,0,1,608.81,339.87ZM661.93,66.08c-2.6.85-2.83,3.38-1.56,4.67,2,2,3.34,4.53,6,5.88,4.38,2.25,9,4.23,10.91,9.48a5.24,5.24,0,0,0,2.85,2.68c5.45,2,9.91,6.06,15.62,7.54a11.49,11.49,0,0,1,8.18,6.71c1,2.2,2.16,2.74,4.67,1.94,5.06-1.6,10.29-2.64,15.46-3.92,1.05-.26,2.74.17,2.78-1.4s-1.47-1.58-2.65-1.55A8.33,8.33,0,0,1,717.59,95c-2.71-3.3-6.19-4-10-4.87s-7.6,0-11.37.47c-4.37.58-9.63,0-11.26-3.48-1.89-4.09-5.13-6.58-7.3-10-3.55-5.56-10.15-6.18-14.21-10.53C663.17,66.25,662.54,66.26,661.93,66.08ZM576.44,41c-4.43,0-7.38-2-10-4.26s-5-2.64-8.15-2.54c-3.88.13-8.72-.22-11.08,1.94-3.67,3.38-6.65.11-9.75.91a6.29,6.29,0,0,0-3,1.57c-2.87,3.19-5.57,6.53-8.35,9.81a2.34,2.34,0,0,0-.77,2.23c.39,1.24,1.5,1.05,2.49,1.09,4.63.17,9.15.46,13-3.3a13.33,13.33,0,0,1,7.2-3.21c2.12-.34,4.86-3.35,6-1.09,1,2-3.08,2-4.52,3.42-.64.64-2.19.72-1.73,2,.53,1.52,2,1.19,2.95.64,2.48-1.43,5.16-1.13,7.8-1.24C565,48.73,571.2,47.43,576.44,41ZM155,653c-3.62,1-5.28,2.28-6.64,3.86-7.57,8.86-12.84,19.22-18.66,29.19-4.32,7.39-7.59,15.38-12.78,22.29-1.43,1.9-2.82,3.26-5.36,2.23-5.88-2.39-8.25-.82-8.23,5.68,0,6.69,3.57,11.83,7.79,16.56,1.21,1.35,1.71,4.11,4.4,3.22s4.53-2.59,4.66-5.67c-4.14-.31-9.64-9.52-8-13,.76-1.57,2.37-.88,3.44-1.58,1.51-1,3.34-.85,4.28-3.38,5.19-14,12.92-26.63,21.33-38.88C145.68,667.08,149.93,660.61,155,653ZM225.27,202.5a24.75,24.75,0,0,1-5.53-7c-3.6-6.31-4.69-6.37-9.19-.48a15.43,15.43,0,0,0-1.12,1.65c-1.05,1.79-2,3-4.1.89-.72-.7-2.55-.4-3.86-.32s-3.51-.75-4,1,1.52,3.19,2.86,3.61c4.8,1.49,2.52,3.52.73,5.65-.82,1-2,1.78-1.63,3.64,9.42,0,18.85,0,28.29,0,1.52,0,3.7,0,1.71-2.36-2.26-2.65-4-4.82.83-6.55.93-.32,1.5-1.7,2.18-2.63s.83-2.1-.57-2.21c-2.47-.19-5.36-.76-7.34.26C222.2,198.84,226.7,200.14,225.27,202.5ZM634.1,220.94c.83,1.83,2.54,1.79,4.11,1.72,10.28-.44,20.55-1,30.83-1.4,1.94-.08,3.34-.51,3.13-2.77-.41-4.4,2.47-4.84,5.72-4.84,6.15,0,12.3,0,18.45.09,2.74,0,5.61-.58,6.56,3.53.46,2,3,1.86,3.77,0a46.92,46.92,0,0,0,2-8.66c.31-1.61-.45-2.57-2.18-2.48-2.14.11-4.3.16-6.41.45-4.56.63-9.08,1.54-13.64,2.09-7,.85-14.12,1.7-21.21,2.13-3.69.23-4.6,1.78-3.85,5s-.55,4.34-3.66,4.07c-1.48-.14-3,0-4.48,0-3.48-.11-7.43.46-6.74-5.19.14-1.13-.88-1.74-2-1.65-1.31.09-2.59.86-2,2.17,2.57,6.22-2.16,4.47-5,4.8C636.28,220.08,635,219.44,634.1,220.94ZM325.44,275c2.66,0,5.31,0,8,0,1,0,2,0,2.6-1,1.09-1.78-1.08-11.72-3-12.4-6.59-2.35-13.24-4.1-20.28-1.58-2.13.76-2.38,1.93-1.93,3.77C313.43,274.4,314.23,275,325.44,275Zm453.07-76.58c-5.1-8-10.75-14.73-13.86-23-.9-2.4-2.61-3-4.18-.2-4.17,7.38-8.37,14.74-12.69,22.34C750.4,197,774.91,197.65,778.51,198.41ZM318.87,53.22c.73,10.65-1.23,21.18.55,31.93,2.28-1.23,1.94-3,1.88-4.58-.16-4.62-.18-9.26-.56-13.87-.14-1.64.29-2.26,1.71-2.12.61.07,3.06-.36,1.05,1.65,1.25,1.11,1.41,3.3,4.18,2.83,4.72-.79,9.2,2.07,14.06,1.55,1.09-.12,2,2.83,3.65-.08,1.13-2,3.11-3.21,2.08-6-1.48-4-6-6.32-11.34-5.11-4.38,1-1.83,4.52-2.28,6.95-.08.45-.17.89-.31,1.61l-4.78-1.48c2.58-4.51,1.94-7.17-1.92-7C322.27,59.71,319.15,59,318.87,53.22Zm254.62,189h37.64c-13.58-.61-27.11-2.32-40.68-1.35-2.66.19-5.05,1.45-7.81,1.41-8.31-.12-16.62,0-24.93.12-1.29,0-2.77-.25-3.71,1a2.78,2.78,0,0,0-.43,1.85c.11.73,1.24,1.18,1.49.81,3.19-4.77,7.24-.73,10.76-.9,10.12-.49,20.28-.17,30.43-.16,1.16,0,2.79-.41,3.4.19,3.88,3.82,9.05,3.21,13.58,3.57,8.43.65,16.95.17,25.44.07,1.32,0,2.93.59,4.65-1.61-7.92,0-15.15.6-22.87-.27,1.53-1,3.13-.08,4-1.92C593.88,244.88,583.58,245.38,573.49,242.2ZM180.82,268.48c-.17,3.3.89,4.94,2.54,6.14.52.39,1.06-.37,1.38-1,3.72-7.39,9.81-10.55,18-10.08,2.44.14,3.11-1.1,1.73-3a63.54,63.54,0,0,0-10.09-11.57c-1.65-1.43-2.27-1.67-3.43.77-2.27,4.75-5.28,9.14-7.85,13.76A48.72,48.72,0,0,0,180.82,268.48ZM590.61,350c-.83-1.56-2.33-1.21-3.51-1.22-18.63-.25-37.17-2.67-55.82-2.34-2.6,0-5.72-1.32-7.46,2.17-.18.36-2.22.27-2.24.17-.8-4.41-5-1.37-6.92-3.16-1.56-1.43-2.49.33-3.23,1-1.31,1.25.12,2.47.79,3.49.93,1.41,2.31,1.35,3.3.09s2.67-2,3-.54c.66,2.84,2.55,1.72,3.86,1.73q32,.1,63.92,0C587.8,351.43,589.68,352.07,590.61,350Zm272,100.34c5.65-2.65,11.78-5.36,16.91-2,3.81,2.5,6.29-3.91,9.07.1a39.31,39.31,0,0,0,1.94-3.9c.09-.25-1-1.31-1.13-1.25-4.81,3-5.29-2.34-8.26-3.75,1.59-.51,2.55-.4,3.32.37.92.94,1.74,2.25,3.3,1.43,1.36-.7,1.39-2.1,1.44-3.48.18-4.53-2.11-6.12-6.23-3.91-2,1.06-3.48,2.54-4-1.09,0-.3-.66-.52-1-.77-2,3.14-5.76,2.55-8.5,4.09a.84.84,0,0,0,.21,1.55c1,.42,2,.72.75,1.92a2,2,0,0,1-2.3.28c-1.55-.68-2.64-2.77-5.08-1.44l8.3,4.11C864.5,440.53,864.19,445.87,862.63,450.35ZM814.27,568.46c2,.5,4.11-1,6-3a60.71,60.71,0,0,1,13.6-10.92,3,3,0,0,0,1.59-2.87c0-.91-.42-1.84-1.32-1.84-4.24,0-8.74-2.47-12.44,2.12-3.29,4.08-7.21,7.65-10.83,11.46-1,1.06-2.49,2.06-1.61,3.79S811.91,568.16,814.27,568.46ZM653.08,22.38c-.56,3.15-3,4.63-2.34,7.46.24,1,.8,2.58-.93,2.79-1.32.17-1.94-1.11-2.3-2.24-.78-2.39-.44-5.15-3.12-8.46,1,5.67-3.79,3.2-5.11,5.83,3,.1,3.6,1.77,3.41,4.53-.21,3.14,3.68,5.86,6.09,4.08,2.8-2.07,5.91-1.15,8.65-2.21,3.69-1.43,8.41.63,11.31-3.42,1-1.46,3.76-2.5,1-4.69-1.64-1.3-3.46-4.05-5.4-2.58-2.25,1.72.1,3.69,1.47,5.29.16.2-.2.85-.46,1.76-2.12-2-4.3-3.46-5.66-5.79-2.05,2.19.12,4.61-.15,7.18C654.72,30.76,655.76,26.09,653.08,22.38ZM178.92,76c3.72-.9,8.23-1.78,12.6-3.1a3.32,3.32,0,0,0,1.4-5.83c-3.32-3-12-3.91-15.95-1.4-3.2,2-2.7,5.69-2.87,8.68C174,76.55,176.59,75.7,178.92,76ZM758.11,351.86v.64H867.48v-.64Zm-3.76-18.45c-28.87-2.41-57.65-2.82-86.43-2.94C673.74,331.86,749.19,334.14,754.35,333.41ZM188,463.6a26.42,26.42,0,0,0-9.44-7.69c-9.62-5-19.14-10.08-27.68-16.82-.66-.53-1.06-1.38-1.92-.66s-.35,1.62.26,2.14c3.86,3.27,6.57,7.85,11.16,10.28,7,3.71,14,7.45,21.2,10.8C183.49,462.53,185,465.26,188,463.6ZM161.5,312.67c5.75.07,8.48-2.41,6.54-6-2.27-4.19-5.33-8-8.08-11.88-.47-.67-1.14-1.41-2.05-1.1s-1.26,1.25-1.43,2.33c-.68,4.06,1.15,8,.67,12C156.69,311.72,158.07,313.41,161.5,312.67ZM364.4,774.52a8.2,8.2,0,0,0-.59-.85c-3.43,1.86-2.37-1.66-3.2-2.76-.36-.49,1.16-2.12-.85-1.82a1.66,1.66,0,0,0-1.33,2.24c.77,3.15.38,6.1-.33,9.34-.67,3,2.39,8.74,3.57,8.47,3.78-.89,5.74,1,8,2.78,1.08.83,2,1.51,2.79.07a1.8,1.8,0,0,0-1.26-2.75c-4.66-.63-3.22-2.39-1-4.42a3.87,3.87,0,0,0,1-4.53c-.52-1.54-1.78-1.56-2.84-1.3C364.57,779.94,361.37,780.47,364.4,774.52Zm299.11-596.9c7.81-.58,13.82-4.9,20.43-7.64,2.6-1.08,1.15-3.51.21-5.12s-9.86-2.09-10.86-.65C670.13,168.71,667.44,173.55,663.51,177.62Zm-330.67-138L332.49,41c10.14,5.43,22.87,3.84,32.28,11.31-2.62-.15-6.85,5.66-7.45-2a2.44,2.44,0,0,0-1.23-.28c-1,2.25-2,4.52-2.81,6.85,0,.13.47,5,2.56.68.5-1,1.35-.91,2.1-.73,4.34,1,6.75-3.08,10.42-3.89.69-.15,1.49-1.46,1.59-2.31.18-1.39-1.25-1.14-2.14-1.42-7.55-2.38-15.06-4.94-22.66-7.13C341.13,41,337,40.41,332.84,39.58Zm175,214.16c5.61.09,5.61.08,7.25-.89.84-.5,2-.92,1.59-2.12-.23-.62-1.45-1.47-1.89-1.31-3.44,1.25-7.17-1-10.08.12-4.36,1.73-8.78.3-13,1.55a3.43,3.43,0,0,1-2.86-.28c-1.56-1.5-3.36-2.4-4.11,0-.68,2.21,1.8,2.42,3.54,3.11C494.87,256.53,501.33,253.67,507.84,253.74ZM119,271.31a2.65,2.65,0,0,0-1,.2,26.66,26.66,0,0,0-9.62,11.95c-.46,1.16-.78,3.17,1.08,3.86,1.35.5,3.06.88,4.27-.13,4.28-3.56,6.23-8.46,7.27-13.75C121.29,272.17,120.5,271.24,119,271.31ZM813,335c1.76,1.75,3.35,3.49,6,1.66.93-.64,2.9.33,2,1.62-1.88,2.68,2.07,7.48-3.3,8.71a1.43,1.43,0,0,0-.27,1.25c1,1.24,2,.39,3.07,0,3-1.13,4.57-2.18,4.13-2.75-3.21-4.22-.42-7.56,2.62-12.07-6.62,2-12.07,0-17.49.77a4.19,4.19,0,0,1-3.58-.86c-2.82-2.52-4.74-1.11-6.85,1.9,5.41-1.42,9.12,2.51,13.69,3.64C813.67,337.51,811.68,336.78,813,335ZM219.83,505.47c-.1-1.09-.25-1.9-1.26-2.14-1.37-.32-2.11.24-2.65,1.55a205.44,205.44,0,0,0-8.13,22.29c-.36,1.28-1.15,2.93.35,3.5,1.66.62,2.53-1,3.09-2.45,2.29-6.17,4.83-12.25,6.78-18.52C218.5,508.12,220.09,507,219.83,505.47ZM176.46,47.8c3.58-.94,8.17-2.36,12.85-3.35,10.19-2.15,20.24-4.82,30.27-7.59,1-.28,2.22-.47,1.73-1.75s-1.63-.87-2.54-.32a14.93,14.93,0,0,1-4.56,1.85c-13,3-26,6.06-39,9.09-.88.2-1.69.48-1.47,1.53C173.93,48,174.68,48.09,176.46,47.8ZM561.79,248.2l-2.27,1.32c5.31,3.59,8.55-.34,12.15-3-14,.24-28.27-2.36-42.71,4,5.23,1.48,10.34,1.75,13.48-.52C548.86,245.34,555.28,248.31,561.79,248.2ZM567,24.89a6.08,6.08,0,0,0-.37-1.28c-1.68-3.41-11.57-6.92-15.18-5.47-.69.28-1.16.58-1.13,1.36,0,1.09.43,2,1.6,2.19,4,.63,6.69,3.28,9.3,6a2.64,2.64,0,0,0,3.57.45A3.86,3.86,0,0,0,567,24.89ZM636.6,159.08c1.69,2.25,3.27,3.49,3.4,5.74.1,2-1.38,4.91,1.36,5.68,2.57.71,3.81-2.14,5.28-3.84a21.82,21.82,0,0,0,3-4c.83-1.56.43-3.08-1.54-3.36C644.53,158.83,641,158.22,636.6,159.08ZM485.71,181.4c-1.44-.37-1.84.14-1.83.87q.18,18.45.43,36.91c0,.8,0,1.88,1.16,1.72s1.25-1.41,1.23-2.38C486.52,206.09,485,193.7,485.71,181.4Zm63.73,146.35c4.76.33,9,.7,13.34.91,10.9.53,21.86-.21,32.72,1.45,1,.15,2.7.4,2.5-1.42-.14-1.22-1.54-.95-2.48-1q-21-.7-42.08-1.34C552.25,326.33,550.79,325.8,549.44,327.75ZM474.17,224.14c-4.7-1.39-8.14-5.32-13-6.31-2.76-.57-5-1-4.54-4.73.21-1.59-1.75-2.84-2.41-1.52-1,2-.89,4.7-1,7.12a2.24,2.24,0,0,0,2.33,2.18C461.94,221,467.68,223.89,474.17,224.14Zm127.3,104.8c19.65.37,39.23,3.14,58.93,1.59C640.7,331.15,621.17,327.27,601.47,328.94Zm47.74-98.67c-1.7-1-.53-2.71-.9-4-.42-1.48-1.22-2.49-2.81-1.74-1.27.6-.92,9.15.32,9.2,3.1.14,6.71,1.08,9.19-.64s.92-4.9.75-7.64c-2.49.75-.76,3.35-2.68,4.1-1.88-1.09.45-4.85-2-4.62C648.35,225.17,651,228.74,649.21,230.27ZM238.47,56.61c3.18,2.49,6.38.45,9.57.61-.61-1.48-3.2-1.82-2.09-3.66.72-1.19,2.54-.16,3.74-.49,2-.57,4.28,2.93,6.11-.38-2.57-1.63-5.1-2.55-8.22-2-1.27.22-4.11,1-4-1.25s2.66-1,4.19-1.19c.22,0,.41-.36,1-.9-2-.42-3.16-2.48-5.48-.63-4,3.22-3.11,6.49.07,9.64C241.24,57.52,240.27,54.45,238.47,56.61ZM553.35,252.47c-3.79-.35-7.6-.71-11.29.56-1,.33-2.49.65-2,2.25.36,1.24,1.63.91,2.54.89,6.66-.16,13.17-2.77,20-1.24.83.18,1.79-.24,1.67-1.27s-1.06-1.19-1.92-1.2C559.29,252.44,556.32,252.45,553.35,252.47ZM506,262.81c2.54-.15,5.26-.31,5.34-2.51.1-2.65-2.74-1.42-4.25-1.48-6.83-.3-13.73,1.36-20.51-.77-1.11-.35-2,0-2.09,1.29-.12,1.64,1,1.85,2.28,1.88C493.37,261.36,500.06,260.26,506,262.81ZM368.92,66.89c-.08-.85-.74-1-1.39-1.1-2.9-.56-5.8-1.08-8.69-1.68-2.08-.43-3.29.15-3,2.48.28,2.18,1.06,4.61,3.57,4.3,2.84-.36,5.55-1.77,8.33-2.72C368.38,68,369,67.76,368.92,66.89ZM357.48,85.43c3.79,2.8,7.6,3.28,11.66,4.91-1.06-3.18-4.19-2.23-5.32-4.06,1.61-1.36,3.41,1.27,5.21-.41-1.15-2-4.19-1.83-4.64-3.44-.95-3.38,3.36-.16,3.74-2.42C362.21,76.88,362.17,84.49,357.48,85.43ZM187.49,60l-7.31-4.56c-1.34-.84-2.75-2.56-4.2-.52s-3.44,4.08-1.72,6.75c1.39,2.17,3.38,1.78,5.4.85-.68-2.46-3.9-1.16-4-4C179.6,57.66,182.93,62.25,187.49,60ZM348.27,354c-3.87,0-7.19-.1-10.49,0-1.26.06-3.49-1-3.51,1.28,0,2,1.12,3.47,3.74,3.76C342.54,359.55,345.27,357.24,348.27,354Zm176.87-26c2.46-1.33.92-5,2.58-5.14,3.7-.42,3.32-4.68,6.22-5.56a.93.93,0,0,0,.06-1.63,1.92,1.92,0,0,0-1.38-.18C525.54,317.12,523.5,320.46,525.14,327.94Zm253.94-50.11c2-1.18.34-3.86,2.41-5.18-6.25.19-12.23-1-18.19.74C768.28,275.94,775,272.21,779.08,277.83Zm-559,141.89c-.11,5.86-1.22,11.7.62,17.42.28.86.48,2.15,1.89,1.66,1-.34.58-1.32.62-2.11C223.48,430.84,221.44,425.35,220.08,419.72Zm299.73-199c2.76-5.33,3.27-10.58-.64-16.55C518.15,210.4,518.92,215.56,519.81,220.76ZM215.7,212.31c-1.38.76-4.54-1.14-4.08,1.68a5.72,5.72,0,0,0,5.22,4.43c2.13,0,3.12-2.44,3.21-3.77C220.25,211.71,217.49,212.61,215.7,212.31ZM514.46,261.6c6.29,1.43,12.16-.48,18.09-1.9C526.24,258,520.33,259.65,514.46,261.6ZM317.65,42.25c.17,2.73.2,5.21.52,7.66a1.72,1.72,0,0,0,2.07,1.65,1.43,1.43,0,0,0,1-2.31c-1.39-2.14-.58-4.56-1.09-6.78-.58-2.46,1.41-7.14-.81-7C315.78,35.7,319.17,40.21,317.65,42.25ZM655.16,181.67,647,177.74c-.75-.36-1.55-.77-2.22,0s-.12,1.54.22,2.26C646.8,183.91,650.15,184.54,655.16,181.67Zm126.76.59c-3.06,0-5.21,0-7.36,0-1.09,0-2.64-.51-2.89,1.05-.13.78.75,1.75,1.24,2.59.7,1.23,2.07,1.67,2.93.82C777.45,185.14,780.16,185.17,781.92,182.26ZM161.2,319.62c.87,5.11,2.33,9.93,6.71,14.41C168.32,327.26,164.25,323.67,161.2,319.62ZM265.53,56.85c2.48.1,5.36-.45,5.13-2.32-.29-2.32-3.36-2.6-5.65-2.61-1.16,0-3.07-.39-2.71,1.77C262.61,55.56,263,57.81,265.53,56.85ZM809,341.38c-4.05-1.19-3.71,3-5.55,4.38-.43.32.07,1.4.81,1.45,3.42.2,6.6,2.88,11,1C811.3,347,805.74,347.82,809,341.38Zm-289.79-88c4.24,2.14,8.78,1.86,13.32,1.53.7,0,1.29-.31,1.35-1.12s-.73-1.51-1.15-1.28C528.27,254.93,523.69,251.14,519.18,253.36Zm33.7-116.67c5.23,2.26,11,1.25,16.28,2.87.26.08.9-.41,1-.76a1.06,1.06,0,0,0-1-1.41C563.8,137.25,558.37,136.89,552.88,136.69Zm268.64,195.6c.53-2.26-3.13-1.83-2.23-3.36,2.05-3.46-.74-2.49-2.13-2.57s-2.64-.43-3.84.59c0,1.85,6.49-.41,2.59,4-.61.69.56,1.2,1.12.93C818.62,331.11,819.73,333.27,821.52,332.29Zm-640.18,2c-2.87,2.64-7.13,1.36-10.32,3.58C175.89,341,178.15,340.29,181.34,334.32ZM295.53,33.2c5.07,1.13,10.15,1.5,15.14-.16A26.12,26.12,0,0,0,295.53,33.2ZM499.81,338.85c2.74,0,5.49.06,8.23-.05a2,2,0,0,0,1.45-1.06c.27-.72-.41-1.26-1.09-1.21C505.47,336.71,502.3,335.44,499.81,338.85ZM332.08,74.61c-2.29-.16-3.92-.6-5.91.92,3.59,1.37.57,5.43,3.46,7.15C333.07,80.85,329.53,77.23,332.08,74.61ZM615.46,237.36c5.07,0,10.14,0,15.21,0,.91,0,2.29.25,2.33-1.08,0-1.79-1.59-1.22-2.62-1.34C625.27,234.31,620.5,236.66,615.46,237.36ZM744.7,183c1,2.06,3,2.49,4.81,2.91,1.62.37,3.13-.34,3.34-2.08.26-2.22-1.7-1.55-2.78-1.52C748.36,182.34,746.52,181.63,744.7,183ZM705.18,662.92c4.6.06,3.82-6.71,9.27-6.17C707.38,654.15,706,658.12,705.18,662.92ZM631.61,241.07c0-.66,0-1.32,0-2H611.13C618,239.94,624.8,240,631.61,241.07ZM370.28,798.25c-.17-1.51.11-3.39-2.65-2.7-1,.25-2.47-1.76-3.21.35-1,2.84,1.71,1.4,2.58,2.1a2.55,2.55,0,0,1,.72,1.19c.27.88.1,2.27,1.5,2C370.86,800.91,370,799.37,370.28,798.25ZM213,330.6a10.52,10.52,0,0,0,10.29,3C219.89,333.13,217.48,329.53,213,330.6ZM853.37,521.52c3-.2,5.37-1.44,6.36-4,.41-1-1.41-1.56-2.53-1.74C852,515,856.85,521,853.37,521.52ZM353,48.63c-2.35.27-5-.45-6.31,2.12A1.7,1.7,0,0,0,348.1,53C351.56,53.78,351.89,50.79,353,48.63ZM667.37,21.18c2.1,1.28,4.14,2.28,5.13,4.43a1.45,1.45,0,0,0,2,.88,1.69,1.69,0,0,0,.33-2.23C673.35,21.25,671.11,19.86,667.37,21.18ZM432,338.19c-3.9-1.06-7.29,1-11,1.62C425.1,342,428.38,338.75,432,338.19ZM347.88,787.78c-2.27,1.37-1.06,3.36-1.21,5-.12,1.28-.1,2.86,1.87,2.7,1.2-.1,2.66-.92,1.59-2.16C348.73,791.68,349.92,789.07,347.88,787.78Zm39.72,20.05c-.7-1.81-1.23-3.34-1.89-4.81-.32-.73-.77-1.61-1.81-1.34-1.23.33-1.16,1.55-1.27,2.45-.32,2.66,3.06,2.6,3.59,4.7a4.81,4.81,0,0,0,1.33-.42C387.7,808.31,387.6,807.8,387.6,807.83ZM319.87,87c-2,2.5-.61,5.31-1.4,7.74-.26.78.34,1.15,1.1,1.21s1.46-.26,1.5-1C321.2,92.32,322.28,89.49,319.87,87ZM378.73,783c1.19-.43,3.38-.35,2.82-1.94s-2.75-2-4.49-2.16c-.93-.11-2.34,0-1.91,1.38A3.41,3.41,0,0,0,378.73,783Zm452-305.46c-3.5-1.11-5.82-2.47-8.54-1.85a2.53,2.53,0,0,0-1.51.93,1,1,0,0,0,.76,1.43C824.12,477.65,826.91,479.42,830.7,477.55Z" transform="translate(-1 -1)"/><path d="M1,325c3.74,1.33,6.73,4.17,9.67,6.41,7.52,5.69,15.89,9,24.48,12.22a39.54,39.54,0,0,0,11.49,2.61c9.07.54,18,2.72,27.21,1.75,6.4-.68,11.63,2.62,17.15,5,1.73.74,1.42,2.71,1.56,3.9.94,7.68,1.6,15.14-2.84,22.48-4.72,7.8-12,11.32-19.92,13.09-5.32,1.19-11,2.67-16.68,1.88-14.42-2-28.88-3.69-42.16-10.37C7.78,382.34,4.33,381.3,1,380Z" transform="translate(-1 -1)"/><path d="M1,203c3,.4,5.32-1.6,8-2.43,18.3-5.75,36.83,1.6,43.2,17.59,3.28,8.23,2.17,16.69-.76,24.76a7.91,7.91,0,0,1-5.87,4.7c-9,2.2-18,4.34-26.63,8-7,2.95-11.42,9-17.9,12.37Z" transform="translate(-1 -1)"/><path d="M1,384c7.29,2.54,13.21,7.95,21,9.61,6,1.29,11.76,4.07,17.81,5.06,4.51.73,3.84,2.86,2.69,5.37a25.73,25.73,0,0,1-12.82,12.54C20.59,420.79,11.09,424,1,425Z" transform="translate(-1 -1)"/><path d="M1,278c1.68-.49.33-2.39,2-3.45,7.78-4.93,12.78-15,24.49-13.06-3.51,9-7.43,17.49-10,26.39-1.13,3.85-2.54,8-1.9,12.47,1.05,7.26-1.3,14.76,1.73,22,1,2.51-.41,3.86-3.54,2.78C8.53,323.34,5.58,318.57,1,316Z" transform="translate(-1 -1)"/><path d="M749,1c1.49,2.44,5.77,2.67,5.43,7.62L744,1Z" transform="translate(-1 -1)"/><path d="M515.45,108.94c-2.58,1.54-6.88-.16-8.18,4.19-.17.57-3.92.64-4.94-1-4.08-6.41-10.6-4-16.12-4.56s-11-.12-16.48-.09c-4,0-7.94-.11-11.63-2.16-2.17-1.21-2.4-.95-2.37,1.92,0,.78-.32.83-.74.89a1.73,1.73,0,0,1-1.71-.66c-3.15-3.7-6.1-7.64-9.64-10.93-3.24-3-4-5.94-1.83-9.69s3.43-7-2-9.17a4.35,4.35,0,0,1-2.11-3.6c.4-2,2.66-1.12,3.81-.82,7.81,2,12.71-3.55,18.36-7a60,60,0,0,1,5.35-2.76c-3.09-1.44-4.4,1.31-6.32,1.74-1.12.25-2.55,1-3.1-.35-.69-1.68,1.06-1.52,2.06-2,6.47-2.93,6.46-3,14.09-1.8-.58,1.46-2.2.24-2.88,1.19.17.23.38.68.51.66,2-.34,4.71,1.33,5.84-1.17.71-1.58,2-3.42.72-5.64-.81-1.39-1-3.63,1.27-4,2.5-.38,1.7,1.91,1.73,3.19.1,5.8,2.57,9.54,8.44,11.1,4.66,1.25,7.89,4.68,10.87,8.38,2.57,3.19,5.12,6.72,10.21,5.6,1.81-.4,2.05,1.28,2.57,2.47.34.76.84,1.6-.06,2.22-1.12.77-2,.31-3.09-.51-3.22-2.52-4.09.91-4.24,2.46-.62,6.32-5.05,9.84-9.08,13.77-1.12,1.09-3.34,2.09-2.53,3.87,1,2.19,2.53-.74,3.75-.26,2.37.94,5.28,1.62,6.76,3.4,1.84,2.21,2.5,2.45,5,.84,1.92-1.23,4.91-.77,7.43-1.07C515.24,108.12,515.35,108.53,515.45,108.94Z" transform="translate(-1 -1)"/><path d="M561.87,218.65c.53-6.45-3.24-7.6-8.13-7.58-.93,0-2.2.27-2.5-1-.37-1.48,1-1.33,1.9-1.62a2.43,2.43,0,0,0-.35-4.8c-4.06-.67-2-3.31-.94-4.49s4-.29,4.31-3.11c0-.47.47-.48.65,0,2,5,3.67.31,4.74-.47,2.12-1.55,3-1.38,3.05,1.15A97.07,97.07,0,0,1,561.87,218.65Z" transform="translate(-1 -1)"/><path d="M473.61,158.63c-3.49,3-7.69,2.83-11.73,3.31-1.34.16-3.58-.72-3.53,1.48s2.4,1,3.66,1.48a11.7,11.7,0,0,1,1.43.84c-2,2.22-4.8,1.29-6.92,2.36a1.13,1.13,0,0,1-1.54-1.33c.84-3.37.07-7,1.75-10.24,1-2.07,3.14-2.67,4.41-1.77,1.71,1.22-.59,1.84-1.27,2.78-1.36,1.9-.37,2.37,1.69,2.56C465.71,160.48,469.55,158.74,473.61,158.63Z" transform="translate(-1 -1)"/><path d="M459.47,112.14c8.76-2.6,20.42.69,23.16,6.15C475.5,114.69,468.07,114,459.47,112.14Z" transform="translate(-1 -1)"/><path d="M382.49,211.64c4.77-.5,8.6-1.63,11.86,1.67.87.88,2.56,1.71,1.82,3.15-.39.76-2,1-3.07,1.3-1.36.38-3.64-.22-3.51-.93,1-5.05-2.93-2.74-4.79-3.48A15.81,15.81,0,0,1,382.49,211.64Z" transform="translate(-1 -1)"/><path d="M496.63,68.49C492.27,66.62,489,64,484.8,63c2.18-1.54,4.57-.92,6.58-2,1.37-.73,3-2.18,4.55-1,1.89,1.44-.57,2.44-.91,3.68C494.51,65.48,496.64,66.06,496.63,68.49Z" transform="translate(-1 -1)"/><path d="M428.28,97c5.46,2,12.37-.76,16.46,5.61C439.36,100.35,432.45,103,428.28,97Z" transform="translate(-1 -1)"/><path d="M529.3,204.22l.73,15.63-1.31.08c-1.21-5.14-.33-10.43-.62-15.63Z" transform="translate(-1 -1)"/><path d="M523.53,112.42c-4.25,3.13-7.74,1.19-11.26-.38C515.88,111.65,519.52,108.49,523.53,112.42Z" transform="translate(-1 -1)"/><path d="M456.64,172.27c3.71-3.5,8.43-3.58,13.16-3.62C466.05,171.91,460.64,169.59,456.64,172.27Z" transform="translate(-1 -1)"/><path d="M590,215.51c-.18-2,2.11-1.86,2.38-3.56.22-1.39,1.8-.84,2.88-.45-3,3.66,5.52,2.82,2.49,6.43-.21.26-1.22.27-1.23.22C595.51,214.56,591.81,217.13,590,215.51Z" transform="translate(-1 -1)"/><path d="M606.71,182.17c-3.1,0-6.2,0-9.3,0-.91,0-2.17.25-2.33-1.11s1.22-1.52,2-1.73C600.73,178.3,603.69,180.26,606.71,182.17Z" transform="translate(-1 -1)"/><path d="M460.22,151.89c2.41-3.14,5.18-3.3,7.48-4.3,1.36-.59,2.29.17,2.54,1.48a1.52,1.52,0,0,1-1.72,1.89C466,150.49,463.75,151.88,460.22,151.89Z" transform="translate(-1 -1)"/><path d="M585.86,206.27c3.93-1.66,6.91-.06,9.86-.19,1.57-.06,1.24,1.09.87,2.06-.46,1.18-1.82,2.4-2.44,1.28C592.37,206.18,589.09,208,585.86,206.27Z" transform="translate(-1 -1)"/><path d="M436,81.23c-3.52,3.32-6.74,4.34-9.8,6C426.78,84.71,429.8,82.76,436,81.23Z" transform="translate(-1 -1)"/><path d="M61.45,341.36c-14.84.76-26.21-5-36.35-13.91-8.69-7.63-7.57-24.23.07-29.59,1.77-1.24,2.93-2,4.7-.34,5.9,5.43,13.89,6.5,20.8,9.83.59.28,1.44.14,1.91.52,8.56,6.9,17.3,2.29,25.84.19,5.19-1.27,13.71,1.28,16.23,5.72.61,1.08.61,1.81-.64,2.33-9,3.79-16.5,10.5-20.28,18.71C70.36,342.13,66.05,341.53,61.45,341.36Z" transform="translate(-1 -1)"/><path d="M54.27,291a16.86,16.86,0,0,0-.25-2.4c-.72-3-.07-4.42,3.17-2.71,4.4,2.33,9.53,1.42,14.17,3.72,3.75,1.87,8.07.29,11.44-3.42,5.44-6,5.68-5.78,10.14.4,3.64,5,8.36,9.38,9.77,15.79.11.48.49.93.5,1.4.06,2.28,1.19,5.29-.75,6.6-2.36,1.58-3.44-1.77-4.87-3a15.12,15.12,0,0,0-8-3.5c-2-.28-3.93-.06-5.59-1.57a2.5,2.5,0,0,0-3.26-.24c-4.91,4-11,.44-16.39,2.41-1.31.47-5-3.29-6.32-5.78S52.05,295.24,54.27,291Z" transform="translate(-1 -1)"/><path d="M58.64,251.2c10.06.08,19.6,1.85,27.73,8.39.75.6,2,.72,1.85,2-.14,1.49,2.36,2.59,1,4s-2.47-.7-3.72-1.22c-15.39-6.4-36.62-7.71-49.49,9.27-2.57,3.38-5.33,6.5-6.81,10.52-.37,1-1,2-2,1.87-1.6-.13-1.32-1.6-1.46-2.71-1.22-9.62,3.8-16.88,9.24-23.88C41,251.57,49.79,251.31,58.64,251.2Z" transform="translate(-1 -1)"/><path d="M71.26,266.13c4.07.47,8.17.75,12.19,1.49,3.27.59,4.59,4.28,2.82,7.31-2,3.49-5.44,5.65-8.36,8.27a3.5,3.5,0,0,1-3.32.49A80.16,80.16,0,0,1,57,277.36c-2.43-1.28-1.88-5.48,1.16-7.23C62.2,267.84,66.36,265.72,71.26,266.13Z" transform="translate(-1 -1)"/><path d="M36.81,286.55c-.54-7.3,4.78-11.81,10.38-16a3.32,3.32,0,0,1,4.2.06c1.17,1.17-.73,1.87-1,2.83-1.81,6.42-3.77,12.79-1.15,19.58.85,2.2.57,4.87.65,7.33.07,2.22-1.28,1.65-2.7,1.33C41.36,300.35,36.72,294,36.81,286.55Z" transform="translate(-1 -1)"/><path d="M834.69,299.9c-5.86-.23-10.21-4.06-15.43-5.22a34.29,34.29,0,0,1-4.66-1.62c-1.08-.41-2.36-1.24-2.83.47-.33,1.2.59,1.94,1.79,2.56,6.88,3.54,13.81,6.48,21.84,4.68,2.33-.52,4.09,1.3,6,2.18A172.77,172.77,0,0,1,866.61,317c.82.56,1.67,1.09,2.23,1.45-.8,2.08-2,1.66-2.86,1.64-24.58-.62-49.16-1.38-73.74-1.82-5-.09-9.92-.29-14.88-.41-32.11-.77-64.21-2.39-96.34-1.53-6,.16-11.83-1.61-17.86-1.29-3.26.17-4.32-1.83-2.12-4.48,12.36-14.84,27.12-25.31,47.41-25.37,15.66-.05,31.32-.24,47-.1,15.46.13,30.88,1.77,46.27,2.95,9.19.7,18.45,4,26.84,8.44C830.49,297.53,833.36,296.92,834.69,299.9Zm-83.37,4.88c0,3,0,5.35,0,7.67,0,3,1.65,4.24,4.48,3.8a19.6,19.6,0,0,1,8-.08c3,.74,3.47-1.45,3-4a159.56,159.56,0,0,1-3.17-21.54c-.19-3.59-2.92-3.12-5.13-3s-5.66-1.41-5.77,2.6C752.61,295.38,750.21,300.27,751.32,304.78Zm-17.94.31c3.49,0,7-.14,10.45.05,2.74.16,4-.67,3.85-3.58s2.9-6.26.85-8.34c-1.88-1.9-5.7-.44-8.65-.62a33,33,0,0,1-4,0c-7.65-1.43-11.55,3.3-14.95,8.93-1.43,2.36-1.13,3.7,2,3.63C726.42,305.06,729.9,305.11,733.38,305.09Z" transform="translate(-1 -1)"/><path d="M684.69,323.89c-4.41,1-8.46,3.26-13.28,1.64-2.85-.95-6.23-.34-9.37-.41-1.23,0-2.45-.2-2.52-1.71s.91-1.91,2.26-2C669.54,320.71,677,322.83,684.69,323.89Z" transform="translate(-1 -1)"/><path d="M774.41,328.91l-9.5-1.19c-.71-.08-1.36-.38-1.4-1.13,0-1.07.83-1.37,1.66-1.37q10.2,0,20.4.08c1,0,2.13.3,2,1.61-.1,1.14-1.21.83-2,.9Z" transform="translate(-1 -1)"/><path d="M886.81,220.7c0,4.72,0,9.45,0,14.17,0,1-.15,2.08-1.5,2.1a1.92,1.92,0,0,1-2.11-1.72c-.6-5.14.59-10,1.71-14.83Z" transform="translate(-1 -1)"/><path d="M851.14,322.62H824.31v-.76h26.89Z" transform="translate(-1 -1)"/><path d="M841.06,338.7c-1.4-2.22,3.39-2.55.79-4.1-1.77-1.05-2.8.91-3,2.75-.17,1.65-1.89,1.66-2.75,2.59a1.46,1.46,0,0,1-2.2.17c-.89-.84.07-1.48.45-2.08a29,29,0,0,1,2.84-4c1.83-2,4.26-1.34,6.49-1,1,.16,2.05,1.23,1.76,2.1C844.8,337.11,843,338,841.06,338.7Z" transform="translate(-1 -1)"/><path d="M855.63,333.9h-7.3c4.28-2.1,7.66-.46,11.23-.68-2.48,1.33-1.1,3.85-2.12,5.54-.55.91-.71,2.6-2.2,2.25-1.91-.46-.9-2.13-.91-3.32S856.09,335.7,855.63,333.9Z" transform="translate(-1 -1)"/><path d="M806.6,320.45c-10.19,1.93-20.41.14-30.61.31,10.16-.42,20.32-1.09,30.51-.22Z" transform="translate(-1 -1)"/><path d="M851.75,339.31c-.12,1.16-1.26,2.3-1.82,1.75-1.64-1.62-2.7-2.47-4,.22-.23.47-1.23-.13-1.51-.76-.44-1,.23-1.64.92-2,1.4-.83,2.87-1.74,4.61-1.27A2.3,2.3,0,0,1,851.75,339.31Z" transform="translate(-1 -1)"/><path d="M804.62,512.29c2.17,1.15,4.49.76,6.71,1,1.2.13,2.5.69,2.44,2-.09,1.87-1.72.9-2.69,1C808.17,516.39,806.38,514.42,804.62,512.29Z" transform="translate(-1 -1)"/><path d="M808.89,522.78c5.52-5.59,5.75-5.6,8.09-.18C814,518.32,812,523.77,808.89,522.78Z" transform="translate(-1 -1)"/><path d="M795.36,42.21c-4.73.86-6.88-2.83-10.25-4.37.24-.42.48-.85.73-1.27Z" transform="translate(-1 -1)"/><path d="M588.21,28.91c-5.81,1-10.58-.81-14.53-5A88.38,88.38,0,0,0,588.21,28.91Z" transform="translate(-1 -1)"/><path d="M317.77,370.24c-4-7.42-9.24-6.3-14.63-4.5-.91.3-2.37,1.6-2.85-.29s1.47-1.54,2.39-1.8a76.15,76.15,0,0,1,8.67-2C317.84,360.56,318.32,361.14,317.77,370.24Z" transform="translate(-1 -1)"/><path d="M327.54,364c5.93-1.76,11.92-2.81,18.09-1.62C339.8,365,333.5,363,327.54,364Z" transform="translate(-1 -1)"/><path d="M504.39,810.47c-1.51-5.88-4.67-7.57-8.33-5.07-1.36.92-1.93,3.45-4.42,2.24-2-1-2.88-3.15-2.71-7.91,1.87,2.5,3.54,6.66,6.23,1.57.89-1.69,1.41-3.77-1.9-3.43-4.78.49-6.55-3.33-7.47-6.51-3.67-12.58-.62-24.86,4-36.44,3-7.65,8.56-14.12,16.73-17.47,1.95-.8,2.9-2.87,5-3.68,5.94-2.29,11.71.37,12.88,6.44.31,1.59.91,2.34,2.47,2.54a2.51,2.51,0,0,1,2.45,2.13c.18,1.79-1.6,1.92-2.68,2.48a10.73,10.73,0,0,1-2.9.55c-3,.61-1.42,1.43-2.23,3.48-1.76,4.47,2,2,2.65,3,1.11,1.84,4.82,3.68.68,6.12-2.88,1.69-.2,5-2.18,7,2,.83,2.84,3.61,5.8,3.14,2.23-.36,3.73,2.68,6.68,1.69,1.08-.36,1.18,1.72-.23,2.79-2.29,1.73-2.68,3.95-.15,5.6,2.9,1.9,3.11,3.75,1.12,6.37-.5.66-.36,1.8-.54,2.85,5.41-1.16,7.21,1.7,5.2,8.07-.71,2.26-1.94,4.37-1.79,6.77-1.65.19-1.68-.75-1.74-1.55-.12-1.67-1.14-1.83-2.45-1.54-2.09.46-.29,1.29-.23,2a1.53,1.53,0,0,1-.54,1.23c-1.21.82-3.95-.31-3.69,2.21.28,2.7,3.29,1.31,5.51,2.74-4.71,4.5-9.2,8.87-13.78,13.16-3.08,2.89-14.36,2.57-16.09-1.16-1.26-2.69-1.75-4.44-5-4.48-.4,0-.26-1.93,1.62-2.51,2.11-.65,6.72,1.16,5.64-4.2-.06-.29,2-1.5,2.95-1.42,3,.24,4.42-.94,4.17-3.88a2.39,2.39,0,0,1,2.52,2.42c.11,1.53-2.47,4.06,1.65,3.79,2-.13,2.89-.21,4.3-2.95,2.18-4.25.76-6.87-.27-10.23-.75-2.43-4.36-2.09-4.72-5.31,2,.24,3.85.38,5.7.72,1.2.22,3.2,2.11,3.12,1.43-.29-2.78,4.14-2.43,3-5.43-1-2.61,1.52-3.13,3.93-4.38-5.55-2.29-8.62,3.8-13,2.19-.69,1.67,2.09,2,1,3.53-1.22.56-1.87-.48-2.68-.94-2-1.12-4.8-2.14-5.92-.57-1.27,1.77.6,3.84,2.75,4.89,1.37.67,1.5,1.54.28,2.68-1.43,1.34-7.33,1.7-8.77.23-.71-.71-1.78-1.14-1.92-.37-.45,2.51-4.37,2.46-3.82,5.11.26,1.28,2,.39,3.07.08a10.33,10.33,0,0,1,2.89-.66c1.89,0,4,.72,4.43,2.47.5,2.21-1.76,2.5-3.41,2.53C506.92,806.6,506.23,808.75,504.39,810.47Zm18.12-38.94c2,2.34-1.84,5,1.52,6,2.49.75,2,1.16.84,2.61a2.54,2.54,0,0,0-.25,3.22,1.89,1.89,0,0,0,1.21.48c1.52-2.39,3.42-4.69,4.26-7.32.56-1.76-1.43-3.16-3.24-3.82C525.79,772.35,524.69,772.13,522.51,771.53Zm-22,26.28c.32,0,1.66-1.17,1.33-1.25-2.81-.64,0-4.84-3-4.71a3,3,0,0,0-2.75,3C496.13,797.12,497.73,797.92,500.49,797.81Z" transform="translate(-1 -1)"/><path d="M540.8,761.7c-.48.57-.81,1.32-1.34,1.52-2,.75-3.32,1.51-2.74,4.25.47,2.29-2.22,2.2-3.52,2.36-1.75.23-1.13-1.63-1.15-2.62-.06-2.5-.07-5-1.83-7-1.24-1.45-.31-2.44.91-3.2s2.58-1.46,3.93.13,1.31,5.3,5,3.4C540.12,760.5,540.53,761.24,540.8,761.7Z" transform="translate(-1 -1)"/><path d="M319.15,227.75v-33h.74v33Z" transform="translate(-1 -1)"/><path d="M720.87,760.1c-2.49,0-5,.1-7.49,0-4.94-.22-7.35-3.71-4.86-8,1.42-2.45,1.39-4.66,1.43-7.07a54.79,54.79,0,0,1,3.58-19.81c.9-2.26,2-2.71,3.88-2.81,9.37-.51,18.61.15,27.33,4,7,3.05,9.73,9.9,7.5,18-2.38,8.65-12,15-23.87,15.71C725.88,760.22,723.37,760.1,720.87,760.1Z" transform="translate(-1 -1)"/><path d="M399.64,750.26a17.78,17.78,0,0,1,1.85,1c4.6,3.08,4.65,5.61.19,9.46-3.89,3.36-3.89,3.36-3,7.67-3.13-.25-3.27-2.42-3.68-4.77-.31-1.75.63-4.67-3.8-3.52-4.07,1-.47-2.66-1.4-4.21-1.44-.17-3.48,1.08-4.61-1-1.38-2.55,1.51-1.86,2.18-2.86a2,2,0,0,0-.15-2.73c-1.07-1-1.66-.33-2.15.75-.63,1.41-1.75,1.55-2.78.57s-.28-1.94.57-2.48c2.69-1.71,1.64-6.22,5.57-7.12,1.09-.25.46-1.64-.29-2.43-1.2-1.27-2.41-3-.54-4.18a5,5,0,0,1,5.64.53c1,.76,1.56,2.15,2.56,2.93s2,2.79,3.71,1.89c1.48-.79.6-2.31.14-3.56-.66-1.8.56-2.07,1.82-1.89,2.74.4,4.75.64,6-3,.64-1.93,4.12-2.77,6.1-4.61,2.45-2.27,4.12,3.22,7,1.51.06,0,.8.66.76.93a1.94,1.94,0,0,1-2,1.85c-3.72-.33-4.92,3.5-7.84,4.8a8.24,8.24,0,0,0,1.78.43c1.35,0,3.34-2.1,3.86-.18.65,2.4-2.23,2.35-3.82,2.71a8,8,0,0,0-3.2,1.78c-2,1.53-2.47,4-4.18,5.7S401.15,747,399.64,750.26Z" transform="translate(-1 -1)"/><path d="M373.42,760.79c2.76,1.57,1.68,4.54,2.55,6.72.51,1.26-1.06,1.5-2,1.39-1.53-.18-3.48.94-4.51-.85-.58-1,.49-2,1.41-2.26C373.61,765.08,372,762.23,373.42,760.79Z" transform="translate(-1 -1)"/><path d="M382.15,733a3.26,3.26,0,0,1,0,.71,1.47,1.47,0,0,1-2,1c-2.74-.88-3.13-3.9-4.91-5.7-.46-.47.29-1.24,1-1.35,1.34-.22,2.94-.37,2.74,1.66C378.69,731.87,381.57,731.55,382.15,733Z" transform="translate(-1 -1)"/><path d="M539.79,473c-3.33,0-6.68.24-10-.07-3.1-.3-5-1-3.4-5.43,2.3-6.24,6.24-11.75,7.37-18.59.66-4,5.15-6.7,6.17-11.1.27-1.14,1.33-.05,2.21.41,4.85,2.51,7.69,6.94,10.21,11.28,3.67,6.31,8.62,11.69,12.19,18,1,1.77,1.4,2.71-.94,3C555.7,471.57,547.93,474.07,539.79,473Z" transform="translate(-1 -1)"/><path d="M723.62,260.28c-.79-8-1.47-16,0-24Z" transform="translate(-1 -1)"/><path d="M614.5,611.13c1.57-5.4,5.47-8.64,8.85-12.13,4.23-4.38,7-10,12.1-13.63,1.76-1.25,3.55-2.77,4.41.59,1.78,6.94,5.14,13.13,8.8,19.19,2.05,3.39,1.06,4.78-2.86,4.72-7.49-.12-15,0-22.47,0C620.39,609.83,617.41,609.54,614.5,611.13Z" transform="translate(-1 -1)"/><path d="M732.2,40.07c2.59.78,3.26,3,4.32,5,3.46,6.44,8.09,11.61,15,14.54a147.65,147.65,0,0,0,24.22,8c5.32,1.23,10.53,1.36,15.76,2.16.83.13,1.63.31,2.15,2.13a84.47,84.47,0,0,1-8.59,0,94.7,94.7,0,0,1-39.14-13.16C739,54.52,734.74,47.81,732.2,40.07Z" transform="translate(-1 -1)"/><path d="M237.23,65.39c1.82-1.12,3.92-.89,5.36-2.63.45-.54,1.77-1.11,2.14-.86,7.15,4.9,15.26,1.3,22.78,2.67a14.36,14.36,0,0,1,1.94.82Z" transform="translate(-1 -1)"/><path d="M222.91,72.67c-3.07-3.18-6-4.74-9.71-1.58a1.54,1.54,0,0,1-2.54-.32c-.6-1.15.37-2,1.3-2.21,3.17-.83,6.45-2.3,9.54-2C225.56,67,223.11,70.3,222.91,72.67Z" transform="translate(-1 -1)"/><path d="M873.17,461.9c-2.42-.2-3.63-.87-1.52-3.27,1.5-1.71,3.36-1.91,5.4-1.75.81.06,2,0,1.88,1.06a6.81,6.81,0,0,1-1.15,3.17c-.62.94-1.38.31-2-.31-2-2-2.72-1.22-2.75,1.2Z" transform="translate(-1 -1)"/><path d="M600.21,262.11c-1.25,3.84.08,7.85-.94,12.58-1.72-4.29-.49-8.26-1.85-11.92-.63-1.73,1.91-.2,2.94-.53Z" transform="translate(-1 -1)"/><path d="M531.61,49.6c.36-1.34.34-1.8.55-2C534.22,46.2,535,43,538.3,43.3c.28,0,.75,1,.69,1.05A24.61,24.61,0,0,1,531.61,49.6Z" transform="translate(-1 -1)"/></g></g></svg>