<svg xmlns="http://www.w3.org/2000/svg" viewBox="0 0 881.09 889.37"><title>taliban</title><g id="Layer_2" data-name="Layer 2"><g id="Layer_1-2" data-name="Layer 1"><path d="M882,32q0,428.25.09,856.5c0,3.75-.84,4.62-4.59,4.6-32.83-.17-65.67-.1-98.5-.1-.18-8.1-.79-16.18-.42-24.33.09-2.13,1.52-5.54-.87-7.21s-5.12-3.26-8.21-3.43c-9.24-.52-18.48-.26-27.72-.08-3.22.07-7.08,1.2-9.3-2.79-3.94-7.1-8.26-14-11.9-21.26-14-27.94-30.75-54.43-43.79-82.88-.53-1.16-1-2.88-2.6-2.61-1.74.29-1.25,2.09-1.31,3.34-.4,8.17,1.28,16.22,1.18,24.41-.13,11.31.62,22.63,1,34l1.41,42.35c.13,4-1.33,6.11-5.81,6-9.49-.12-19,.11-28.46.3-2.89.06-4.49-1-4.4-4,.16-5.66-.74-11.25-1-16.87-.65-13.6-.64-27.23-1.25-40.85-.7-15.82-1.25-31.69-1.48-47.55-.15-11.16-.33-22.32-.71-33.47-.48-14.12-1.13-28.23-1.83-42.33-.16-3.36,1.45-5.37,4.47-5.38,11.15,0,22.12-2.61,33.29-2.19a4.87,4.87,0,0,1,4.07,2.2c3.58,4.5,5.34,9.93,8.08,14.84,9.38,16.76,18.73,33.55,27.83,50.47,7.16,13.3,13.91,26.82,20.9,40.22.6,1.15.52,3.51,2.71,2.74,1.55-.54.75-2.33.82-3.59.64-12.33-.64-24.62-1-36.93-.31-12-1.12-23.91-1.38-35.87-.24-11-1.66-21.92-1.18-32.93.12-2.68.65-4.45,3.68-4.86,11.33-1.53,22.71-2.19,34.12-2.64,3-.11,4.57.71,5,4.43.48,3.94-.14,8,1,11.86.39,1.31,1,2.18,2.34,2,1.21-.16,1.47-1.24,1.41-2.29a10.61,10.61,0,0,0-.44-2.94c-1.42-3.91-2.37-7.67,1.59-10.81.5-.39,1.5-1.49.4-2-3.78-1.61-1.11-3.72-.53-5.55.93-3-.91-8.35-3.24-8.36-8.66,0-17.36-.31-26,.36-15.91,1.23-31.77,3.09-47.65,4.65-10.75,1.06-21.52,2-32.28,3.07-14.37,1.45-28.71,3.32-43.1,4.35-10.77.77-21.53,1.85-32.23,3-18.65,2.06-37.35,3.57-56,5.71-15.34,1.76-30.78,2.71-46.16,4.17-20.36,1.93-40.74,3.74-61.05,6.11-9.41,1.11-19,.33-29.7,3.26,8.51.88,15.63.74,22.72,1.61,11.5,1.39,20,7,26.46,15.83,7.85,10.78,9.68,23.27,8.43,36.38-1.3,13.54-6.49,24.62-19,31.33-1.21.65-2.41,1.39-2.16,3,.21,1.38,1.53,1.63,2.62,2,3.65,1.14,7.3,2.24,10.55,4.39,9.35,6.16,13.85,15.21,16.22,25.86,4.43,20-.73,37-15.8,50.49-9.21,8.28-21.22,9.8-33.08,10.63-7.28.52-14.6.49-21.9.6-14.81.23-29.62.39-44.44.59-2.95,0-4.22-1.49-4.22-4.33,0-13.48-1.75-26.85-2.56-40.28-1.25-20.54-1.74-41.11-3.36-61.64-1.71-21.69-2.29-43.46-3.15-65.2-.16-4.17-.88-6.44-5.74-5.17a37.42,37.42,0,0,1-7.45.68c-2.74.15-4.18,1.16-4.17,4.27,0,13.66.92,27.31,1.82,40.9,1.08,16.37,1.84,32.78,3,49.16,1,13.58.91,27.32,1.9,40.88.88,12.24,1.49,24.47,2.07,36.71.14,2.84-.59,4.51-3.84,4.24-8.11-.68-16.2.36-24.26.87-5.17.34-6.63-1.84-6.88-6.09-1.13-19.56-2.14-39.13-3.45-58.69-2.3-34.49-4-69-5.86-103.56-.18-3.4-.91-4.65-4.64-4.26-18.81,2-37.65,3.71-56.49,5.37-3,.27-3.61,1.74-3.48,4.23.36,7,.66,13.95,1,20.92,1.26,22.89,2.69,45.77,3.78,68.67.49,10.14,1.7,20.21,1.73,30.39,0,7,.89,7.24,8,7.31,12.66.13,25.25-1,37.88-1.45,6.59-.24,7.77,1.15,8.11,7.68.42,8.3.92,16.59,1.42,24.89.19,3.21-.91,4.82-4.5,4.94-25.11.87-50.23.87-75.34,1.34-5.07.09-6.4-2-6.49-6.39-.16-7.32-.37-14.64-.82-22q-2.7-44-5.58-88c-1-14.75-1.17-29.53-2.62-44.25-.44-4.44-2.13-4.67-5.63-4.29-14.89,1.62-29.79,3.1-44.7,4.56-5.91.59-6.15.59-4.3,6.22,9.2,27.93,18.55,55.81,27.79,83.72,7.15,21.58,14.36,43.14,22.2,64.48.78,2.12,2.31,5.48-2.49,5.81-8.13.54-16.23,1.28-24.41,1.33-4.76,0-7.39-2.07-8.22-6.19s-2.68-8.12-3.32-12.47c-1.15-7.82-3.06-8.88-10.85-9-2.54,0-4.93,1.29-7.28,1-8.6-1.08-17.13,1.09-25.69.21-2.94-.31-4.22,1.07-4.75,3.8-1,4.89-2,9.76-2.46,14.75-.4,4.08-1.56,8.92-6.52,8.48-7.34-.67-14.51.75-21.77.44-4.89-.21-5.8-1.46-4.75-6.23,3.62-16.54,7.27-33.07,10.75-49.63,4.92-23.41,9.66-46.85,14.56-70.26,2-9.56,4.23-19.08,6.31-28.63.37-1.74,1.1-4.22-2.12-3.47-4.94,1.15-10,.15-14.88,1.34-4,1-9.32-.91-11.93,2.16s-.72,8.34-.9,12.61c-.25,5.71-1.26,6.88-7.12,7.07-5.16.17-10.31.34-15.47.44-3.58.07-5,1.78-4.85,5.36.23,8,.76,16,.9,23.9.29,16.14.94,32.26,1.37,48.39s-.18,32,1.34,48c.74,7.79.43,7.84-7.33,7.82-3.17,0-6.34.08-9.5,0-6.81-.27-7.8-1.31-7.83-7.88q-.21-52.49-.44-105c0-5.46-.51-10.91-.74-16.37-.05-1.22-.16-2.23-1.45-2.87-4.33-2.13-8.63.59-8.89,5.48C2.35,745.92,3.9,751.21,1,756V640c.9,1.91.42,3.93.48,5.9C2,663,.43,680.17,2.56,697.27c.39,3.16,1.18,4.3,4.5,4.15,9.52-.43,19.05-.46,28.58-.76,2.59-.08,3.69-1.53,3.42-4.28-1.51-15-2.86-30.11-4.33-45.16s-3.06-30-4.48-45.05c-.93-9.89-1.79-19.81-2.91-29.67-1.71-15-2.85-30-4.48-45-1.59-14.51-2.7-29.07-4.08-43.6-1.55-16.38-3.17-32.74-4.74-49.11-1.43-14.88-2.8-29.77-4.26-44.65Q7.56,371.53,5.18,349C3.81,336.32,3.72,323.51,1,311V19c2.28-1.19,4.79-1.29,7.28-1.49,6.63-.54,13.26-1,19.88-1.69,19.32-1.91,38.64-3.9,58-5.81C96,9,106,8.16,115.86,7.21,127.58,6.09,139.29,3.94,151,3.93q357.86-.28,715.71-.15c2.83,0,5.67.15,8.49,0s3.63.74,4,3.54C880.29,15.51,880.05,23.88,882,32ZM484.94,157.49c-4-3.09-6.35-9.12-11.42-3.39a1.39,1.39,0,0,1-1.32-.13c-2-2.88-7.24.1-8.3-4.63-.15-.67-1.76-.66-2.15.09-1.82,3.57-4.86,1.41-7.37,1.84-5.37.92-11-3.38-16.27,1-1,.79-3.33.37-4.66-.9-1.92-1.83-3.34-1.1-4.34.85-1.2,2.35-2,4-5.56,2.91-2.56-.75-5.79,3.35-8.91,0a2.2,2.2,0,0,0-1.6.78c-2.92,5.92-12.33,1.64-14.28,9.08,0,.18-.93.12-1.42.2-3.56.56-7.06,1.16-7.28,5.9-.07,1.25-1.5,1.09-2.16,1.66-2.24,2-6.25,1.46-7.37,4.41-1.56,4.1-2.48,8.3-8.07,8.36-.3,0-.9.79-.83,1.09,1.1,4.81-2.95,7.86-4.14,11.91-1.26,4.31-3.9,8.22-4.7,12.78-.25,1.44-1,1.92-2.5,1.4-2.06-.74-2.84.62-2.85,2.27,0,6.17-3.55,11.45-5.68,16.67-3.89,9.5-2.68,19.47-5.22,29-1.72,6.48-2.91,14.36,0,21.56a5,5,0,0,1-.24,3.4c-1.9,4.49-.82,8.76.39,13.16,1.13,4.11,3.39,8.35,2.22,12.52-1.4,5-1.76,9.06,2.8,12.44,1,.74.93,2,1.12,3.2.57,3.59,1.41,7.11,1.32,10.81-.07,2.75,1,4.92,4.36,4.79,3.54-.13,4.1,2.74,3.3,4.75-2.74,6.88,1,11.46,5,16,1.36,1.57,2.83,3.15,2.6,5.19-.5,4.39,1.54,7.7,4,10.87,3,3.79,4.93,7.89,4.42,12.86a4.5,4.5,0,0,0,1.68,4c4,3.43,3.3,9.66,7.75,12.91.58.42.36,2.23.18,3.35-.42,2.51.12,5,.15,7.45.05,4.83,4.39,7.95,4.87,12.31.72,6.53,2.54,12.72,4.23,19,.6,2.24.79,4.29-.92,6.06-3,3.12-2.49,6.53-.19,9.46a11.27,11.27,0,0,1,2.28,7.88c-.05,1.82.26,3.65.25,5.47-.05,9.47,4.42,18.24,4.23,27.76-.06,3,.4,6.18,4.79,6.07,2.44-.06,1.62,2,1.82,3.3.71,4.57-1.34,8.87-.3,13.74C411,542.08,418,551.21,421,562.06c.51,1.84,1.87,6.18,5,5.13s2.66-5.42,2.45-7.93c-1-11.38-.55-22.83-2-34.2-.73-5.75.18-11.72-.69-17.43-.64-4.16.54-7,2.92-10,1.34-1.68,2.38-2.27,3.87-.34,2.12,2.77,4.45,2.11,6.87.42a11,11,0,0,1,6.93-1.73c8.41.47,15.87-1.31,21.58-7.84,1.5-1.72,2.07-.71,3.54-.1,4.39,1.83,8.44,4.61,14,2.81,2.37-.78,3.39-1.12,3.45-3.43,0-1.57.68-2.78,2.41-2.25,3.42,1,5.76-1.48,8.49-2.51,1.31-.49,2-1.11,3.47-.24,5.17,3.09,10.73,2.08,15.33-.61,2.76-1.62,3.26-.95,4.33,1,4.64,8.53,8.89,17.15,7.3,27.36a10.2,10.2,0,0,0,.24,3.47c3.43,16.94-.56,33.26-4.14,49.61-.28,1.28-1,1.38-2.2,1.15-3.16-.6-3.72,1-3.18,3.77.62,3.09-.53,1.89-2.79,1.78-4.49-.23-9.07,1.29-13.59,2.18-.26,0-.4.86-.55,1.34-1.12,3.68-2.23,2.48-3.62.09-.75-1.29-1.18-3.74-3.27-2.93-1.8.7-.94,2.93-1,4.53,0,.66.1,1.33.07,2-.18,4.07-1.4,4.76-4.77,2.3-1.66-1.22-3-1.75-4.1.17-2.78,4.84-5.45,3.16-8,0-.9-1.11-1.65-2.2-3.21-1.67s-1.17,2.12-1.35,3.39c-.21,1.47.26,3.24-1.79,4.71-.89-4.88-5.56-3.71-7.7-5.54-5.29-4.51-10.9-2.83-16.24-2.13-2.18.28-2.89.8-4.77-.94-2.79-2.59-7.38-.36-7.73,3.5-.41,4.47-.78,9.15,2,13.06a46.31,46.31,0,0,0,9.48,9.24c4,3.09,7.74,6.35,11.39,9.78,2,1.9,4.14,3.49,5.16,6.47.89,2.6,2.17,1.52,4.73-6.65,0-.16.52-.19,1-.36a26.9,26.9,0,0,1,1.91,3.93c1.7,5.72,7.36,6.38,11.53,8.5,2.52,1.27,1.77-3.13,3.26-4.4a4.22,4.22,0,0,1,1.37-.5c3.76-1.33,5.46.5,6.39,4,.36,1.36,1.05,3.08,2.94,2.89s1.58-2,1.74-3.19c.61-4.33,3.56-6.1,7.27-5.73,2.63.26,3-1.34,3.28-2.65.55-2.45,1.58-3.8,4.19-4.12s3.59-2.83,5.49-4.07c4.35-2.86,8.2-5.94,8.57-11.7a2,2,0,0,1,1.37-1.29c2.46-.37,2.75-2.65,3.85-4.18,1.86.18,3,3.3,5.29,1.05,1.94-2,.83-3.9.18-6-2.69-8.5-1-16.87,3-24.22,2.36-4.39,2.65-7.53.2-11.32-1.64-2.54-3.75-5.32-2.89-8.19,1-3.46,1-6.9,1.15-10.32.27-8.78,1.34-17.8-.22-26.3-1.83-10-1.34-19.65-.28-29.47a8.27,8.27,0,0,0-.34-3.36c-2.63-9.06-2.87-18.49-4.05-27.76-1.17-9.1,2.46-18,2.6-27.22.06-4.25.14-9.73,5-12.82.73-.46.88-2.09,1-3.2,1-10.25,3.08-20.38,2.79-30.78-.11-4,.33-8.56,2-12.14,3.1-6.49,2.22-13.48,3.82-20.11.83-3.46-1.91-8.42,4.41-9.33.33-.05.32-1.54.72-2.21,1.12-1.91,1.08-4.18,3-6,2.36-2.26.66-5.75-2.45-6.17a2,2,0,0,1-1.27-1.26c-.63-2.21-2.12-4.36-1.45-6.73,1.79-6.38.88-12.46-1.17-18.62-1.4-4.24-.7-8.2,3.23-11.11,2.68-2,2.44-4.31.71-6.89-5.32-7.91-6.11-16.32-2.49-25.12a3.39,3.39,0,0,0-.23-3.3c-3.32-5.43-4.36-11.42-4.42-17.66,0-2.72-.35-5.09-4-5-1.43,0-2.4-1.06-2-2.27,1.57-4.54-1.31-9.21.63-13.75,1.15-2.72-.88-4.42-2.94-3.24-6.64,3.82-4.33-1.92-4.85-4.32s.76-5.53-2.33-7.12a14.24,14.24,0,0,1-5.88-5.93,7.65,7.65,0,0,0-6.41-4.23c-2.65-.09-3.63-1.35-3.3-3.77.62-4.43-1.6-5.91-5.65-7.05-4.84-1.36-8.44-5.32-13.51-7.14a43.85,43.85,0,0,1-11.37-5.83C486.94,151.65,484.62,152.28,484.94,157.49ZM135.78,681.55c3.12-.28,6.06-.58,9.05-1,7.53-1,14.2-4.66,21.4-6.47,12.78-3.22,25.42-6.65,36.51-14.1,4.62-3.11,9.35-5.85,10.81-12.26,1.24-5.43,3.78-10.67,6.37-15.67,8.17-15.81,18-30.69,26.68-46.2,3.88-6.93,7.15-14.11,7.15-22.51,0-20.39-10-37.32-20.29-53.29-15.36-23.78-39.89-32.36-67.17-33.89-18.11-1-35,3.6-50.48,12.81-24.47,14.55-37,36.62-38.59,64.77-.57,10.11.85,20.31.46,30.44-.53,14,.6,27.71,5,41.13,3.46,10.43,6.77,20.82,12.47,30.38C104.48,671.27,118.09,679.55,135.78,681.55Zm724.38-156h.43c0-8.15.53-16.35-.1-24.45-1.88-24.27-13.48-43.38-33.28-57-18.28-12.54-38.8-17.07-61.07-14.46-11,1.29-21.65,3.44-31.64,8.26-13.85,6.68-25.24,16.19-32.11,30.16-2.78,5.66-5.57,11.31-8.43,16.93-6.58,12.91-10,26.63-6,40.83,3.07,10.69,9.53,20,15.41,29.5,8.43,13.54,16.62,27.21,22.3,42.21,1.1,2.91,1.45,6.29,4,8.47a71.21,71.21,0,0,0,21.39,12.54c11.47,4.37,23.68,6.58,35.25,10.83,22.58,8.29,42-2.66,51.73-15.32,13.64-17.77,19.5-38.73,21.94-60.58C861,544.26,860.16,534.84,860.16,525.52ZM676.51,287.26c-1.75-2.72-3.64-6.46-6.13-3.77-3.2,3.46-7.23,3.68-11,5.09-1.78.66-2.3,2.74-4.89,2.75a80.73,80.73,0,0,0-17.14,1.81c-4.67,1.06-6.16-1-6.82-4.73-.69-3.92.75-7.87-.07-11.86-.28-1.34,1.11-3.88,2.13-3.43,3.38,1.47,6.49-1.62,9.69-.05,3.49,1.71,6.79.28,9.34-1.69s4.73-2.87,7.71-2.6a5.89,5.89,0,0,0,4.29-1c1.47-1.12,2.92-1.52,4.53-.28,3.2,2.48,3.09-.21,3.35-2.19,1-7.49,1.62-8.12,9.22-9,3.58-.41,7.25-1.76,9-4.53,2.33-3.64,6.47-5.16,9.26-6.1,7.65-2.58,9.53-9.86,14-14.73,3.4-3.73,5.3-8.49,10.87-10,2.09-.55,4.63-1.3,5.13-4.15s-.42-5.39-3.14-6.69c-3.16-1.52-5.43,1.08-6.55,3-2.43,4.1-6.31,4.7-10.13,5.22a25.66,25.66,0,0,0-7.39,2.22c-2.61,1.17-5.32,6.37-8.83.95-.12-.19-1.33.08-1.84.42-3.82,2.56-10-.14-12.42,5.58-.1.24-1.16.37-1.22.27-2-3.87-6.89-1.3-9.25-4.31-1.94-2.47-3.71-2.5-5.14.56-.4.86-.73,2-2,1.84a2.45,2.45,0,0,1-2-2.55,25.36,25.36,0,0,1,.6-9.83c2.79-9.1,2.66-9.15,11.46-5.16,1.26.57,2.83,2.45,3.8.45,2-4.16,4.75-3.88,8.66-3.1,7.12,1.42,12.45-5.88,19.76-4.8,1,.14,1.61-1.08,1.74-2.15.46-3.72,2.78-5,6.25-5,2,0,3-1.14,3.67-2.84,1.53-4.12,4.38-6.83,7.87-9.6,3.28-2.61,8.06-3.22,10-8.28s2.31-10.41,4.56-15.27c.46-1,.38-2.12,1.74-2.75,5.23-2.4,8.62-12.3,6-17.9a169.08,169.08,0,0,1-15.45,16.91c-6.67,6.46-14.26,11.77-21.89,16.76-6.19,4.05-14.1,5.21-21.54,6.55-2.11.38-3.83.92-5.12,2.61-1,1.36-5.58,3.9-7.05,3.93-4.36.08-10.58-5.11-11.25-9.37-1.1-7,2.47-11.88,10.78-13,4.15-.54,7.9-2.88,10.5-4.59,4.72-3.1,10.39-6.72,12.17-13.17.41-1.51,1.33-3,3.16-2.56,3.19.69,5-1.28,6.8-3.22,3.25-3.47,7.3-6.54,11.6-7.31,3.32-.61,4.24-2.79,6.32-4,6.18-3.62,9.65-9.32,13.64-14.72.09-.12.28-.16.42-.25,6.54-4.31,13.42-8,15-17.06.67-3.86.33-5.93-2.93-7.66-3.42-1.81-8-1-9.72,1.7-4.16,6.75-4.56,6.8-10,.86-.63-.69-1-2.08-2.2-1.21-.88.65-.45,1.77-.14,2.77,2.7,8.91.68,12.66-6.94,16.81-4.19,2.28-7.18,6.8-12.82,6.12-.27,0-.94,1-1,1.57-.2,5.34-4.59,7.8-7.53,11.3-2.6,3.1-5.66,4-9.31,2.5-1.77-.73-2.94-.84-3.1,1.39-.28,3.74.82,8.55-5.81,6.92-2,4.58-8,5.45-10,8.37-4.28,6.14-12.61,7.57-15.36,14.81-.08.21-.65.19-.89.39-2.48,2.12-5.52,3.87-7.28,6.47-4.85,7.17-7.6,15.15-7,24,.08,1,.08,2.31-1.38,2-4.89-1-4.59,2.33-4.72,5.41a53.37,53.37,0,0,1-.45,6.46c-1.53,9.37-5.64,18.2-4.91,28.11.26,3.6-.73,7.53-.92,11.34-.27,5.29-.35,10.69-4.84,14.71-.86.77-1,2.42-1.32,3.69-2.93,10.22-3.39,21-7.27,31-1.54,4-2.26,8.59-5.22,11.53-2.06,2.06-2.93,3.66-2.62,6.33s-.33,5.15-3.78,5.12c-3.18,0-4.14,1.68-3.81,4.43.78,6.69-5.72,8.71-8.38,13.19a1.77,1.77,0,0,1-1.35.48c-4.25-.06-6.81,2.78-9.17,5.62-1.65,2-2.87,2.64-4.67.42-1.38-1.7-2.94-2.69-4,.14-1.65,4.33-4.8,8.23-4.9,13-.19,9.05-2.68,17.64-4.6,26.35-1.15,5.24-.15,6.75,5.09,7.82a4.07,4.07,0,0,1,2.58,2.15c.85,1.27,1.71,2.48,3.39,2.7,4.06.53,6.75,2.47,7.47,6.78.33,2,1.7,3.09,3.57,1.64,1.69-1.31,2.94-3.5,5.38-1.31,1.57,1.4,3.18,2.49,3.75,5,.91,4,6.45,7.68,9,5.52,6.26-5.25,11.57,4.89,17.27.23a3,3,0,0,1,1,.94c2.79,4.73,4.13,2.39,5.91-.92s4.08-6.15,8.72-3.63c2.24,1.21,4.49-.55,6.61-1.37a2.23,2.23,0,0,0-1.44-4.23c-3.89,1.67-6.06-1.28-8.7-3a12.81,12.81,0,0,0-2.4-1.67c-8.34-2.87-14.5-9-21.08-14.41-1.77-1.45-4.83-1.63-5.44-4.58-.41-2-1.55-1.68-3.49-1.76-3.8-.16-8.46,3-11.45-1.52-1.53-2.32-2.19-5-4.83-1a1.18,1.18,0,0,1-2-.47c-1-5.48-9.17-8.39-5.4-15.58,1.16-2.21-1.3-9.51,5-3.1.2.2.75.38.91.26,3.29-2.47,6.74.11,10.13-.29,3.23-.39,7.26-1.17,6.94,4.36.61-.14.82-.13.9-.22a2,2,0,0,0,.51-.81c.54-3.33.09-6.83,5.92-5.53,1.94.43,4.63-2.16,6.31,1.39a2.16,2.16,0,0,0,1.78-.2c2.71-2.88,4.87-.7,6.91.83,1.36,1,2.84.9,4.14,1.3,5.94,1.84,8.85-7.5,14.92-3.62,3.34-3.86,6.69-.79,9.75.3,2.81,1,4.4.84,5.35-2.08a3.5,3.5,0,0,1,4.11-2.74c4.41.43,9.12-2,13.24,1.79.85.77,2.89.19,4.38.33,1.12.11,2.06-.12,2.4-1.23a1.81,1.81,0,0,0-1.2-2.41c-2.3-.65-2.82-2.69-3.65-4.46-1.26-2.71-2.53-5.13-6.31-3.92a3.37,3.37,0,0,1-2.8-.67c-3.25-3.14-6.76-3.8-11.39-4.27-4.06-.41-7.94-4.36-12.93-2.37-.23.09-.6-.28-.93-.32-4.52-.52-9-2.52-13.6-.61-2.42,1-4.34,2.86-6.53-.77-1.3-2.16-4.07-3.43-4.06-6.48,0-3.83-.15-7.68.17-11.49.21-2.6,1.25-4.64,4.42-2.2,1.48,1.13,3.35,1.86,5,.29s2.76-1.11,4.5.37c2.14,1.81,4.58,4.88,8,1.61.32-.3,1.3-.07,1.9.13,6.68,2.31,12.62,1.57,17.57-3.94,2-2.2,4-2.28,5.59.55,1.33,2.34,2.72,1.95,5.27,1.31,3.88-1,7.74-5.39,12.29-1.16,1,.93,2.05,0,2.56-1.36.91-2.37.89-6.83,5.14-2.18,1.2,1.32,2.87-.38,4.21-1.52,2.54-2.16,5.3-3.3,8.43-.63,2.47,2.12,3.6.94,3.53-1.92,0-1.81-1.1-4.3.43-5.24,4.48-2.75,3.91-10.68,11.28-10.5,2.38.06,1.07-2.22.63-3.5s-1.23-1.31-2.21-.38c-3.4,3.22-7.87,2.63-11.14,1.15-5.09-2.32-9.61-1.75-14.2.21-2.09.9-3.15,1-4.39-1-1.76-3-3.61-2.8-5.69,0A35.19,35.19,0,0,0,676.51,287.26Zm-513.9,21.52c-1.7-1.72-.89-6.82-3.88-4.54-4.65,3.55-6.94,1.48-9.94-1.54a7,7,0,0,0-3.68-1.43c-3.12-.51-6.65-1.14-8.85,1.55s-.82,5.81.56,8.86c1.84,4.1,5.62,5.74,8.63,8.43s8.51,3.75,8.88,9.25c5.23.06,8.61,5,13.41,5.5,7.5.78,14.21,5.7,22.12,4a2.23,2.23,0,0,1,1.39.48c4.62,2.9,9.23-.34,13.89-.05,5.27.33,7.62-7,13.53-5.94.24.05.76-.64.93-1.08.78-2,1.79-1.86,3.82-1.42,3.63.79,7.29.23,9.11-3.93a4.32,4.32,0,0,1,3.15-2.94c1.86-.33,2.36-1.66,2.36-3.3,0-1.36,0-3.05,1.51-3.27,1.75-.26,2.46,1.58,3.06,2.87a110.55,110.55,0,0,1,5.8,14.32c1.24,4.06-1.2,8.56-5.28,7.65-5.36-1.19-5.6,1.43-6.25,5.14-.36,2.07-1.86,3.36-3.84,1.11-2.54-2.89-3.57-1.63-4.54,1.33-1.52,4.62-4.54,7.53-9.74,6-2.48-.71-4.43-.82-6.48.85A2.57,2.57,0,0,1,209,357c-1.6-1.17-2.84-.43-4,.72-2.1,2.16-4.14,3.93-7.21,1.35a1.62,1.62,0,0,0-2.5.81c-.63,2.66-2.58,2.46-4.6,2.76-3.66.56-3.71,3.91-4.19,6.55-.44,2.41.83,4.6,3.42,4.55,4-.08,6.28,2.45,8.17,5,4.42,6,11.09,7.55,17.49,9.75A6.09,6.09,0,0,0,221,388c3.33-2.14,5.67-1.54,8,1.74,1.57,2.22,4.79,5,6.83,3.57,3.32-2.29,4.23,0,6,1.38s3.86,5,4.5-.74c.05-.42.93-.74,1.43-1.1,3.62,5.94,7.75.3,11.61.57,7.16.5,12.94-2.91,18.76-6.17,6.53-3.67,11.95-8.79,17.51-13.73,1.36-1.21,3-3.08,4.44-3,3.53.16,4.37-2.81,6.05-4.5,2.41-2.43-.4-10.25-3.34-9.68-5.23,1-4.52-2.15-5-5.25-.74-4.38-1.21-9.29-5.31-11.93-3.1-2-4.37-4.66-5.47-7.82-1.19-3.43-2.19-7.33-5.33-9.3-3-1.88-4-4.54-5.42-7.36-2.46-4.88-.71-11.91-7.49-14.66-1.3-.52-.83-2.41-1.12-3.68-.94-4.12-2.13-8.23-6-10.49-7.39-4.26-13-10.42-18.31-16.84-1.57-1.89-3-3.08-5.37-2.7-6.42,1-11.13-1.78-15.13-6.43-1.22-1.44-2.81-2.84-4.61-.93-2,2.1-3.35,1-5.11-.26-2.12-1.49-4.27-3.48-7.24-1.86-3.67,2-7.11,2.21-10.51-.74-1.59-1.36-3.38-.08-5.15.22-4.16.72-6.2,5.4-12.58,3.16-8.39-2.94-17.54-6-27-5.11-1.35.13-2.84-.79-4.21-1.35-2-.81-4-2-6.2-1.62a3.58,3.58,0,0,1-4.49-2.87c-.89-3.27-2.29-3.3-5-1.85-2,1.08-5.07,2.48-6.48-.72-2.36-5.32-7.28-7-11.78-9.42-3.44-1.87-4.56.38-4.35,2.81.41,4.82,1.53,10,5.47,13,4.46,3.34,4.82,11.52,12.64,10.74,1.83,5.89,8.3,6.81,11.78,11,1.68,2,3.37,5.77,6.84,1.52.88-1.06,1.74.43,2,1.31,2.5,7.53,9.92,4.44,14.87,6.31,2.08.78,5.69.08,8.31,1.44,2.11,1.11,3.87.58,6.06.33,4.77-.56,9.25-2.23,14.33-2.14,7.54.14,15.38-.63,22.44-4.32,3.44-1.8,6.19-.88,7.63,2.78a103.72,103.72,0,0,1,3.34,9.9c.92,3.27-.18,5.51-3.79,6.19-4.36.83-8.75,1.56-13,2.73-4.11,1.13-8,2.8-12.22,3.82-6,1.46-13,.24-18.25,4.91-1.09,1-1.46-.81-2.15-1.34C169.17,303.51,166.06,303.8,162.61,308.78Zm452.73-88.52c-1.05-5.35,1.6-9.91,2.86-14.65,3.3-12.44,2.09-26.4,12-36.7.82-.86.85-2.47,1.26-3.73.52-1.56.57-3.82,1.65-4.56,3.44-2.34,4.28-6.1,6.22-9.3,2.25-3.74,4.6-8.08,8.68-9.68,4.44-1.73,8-3.52,9.39-8.38.82-2.87,2.63-4.11,5.69-2.72,2.62,1.19,4.12.84,3.75-2.66-.31-3,.4-5.4,4.49-4.23,2.21.62,5.25-.32,5.94-1.69,2.43-4.79,4.64-9.12,10.49-10.84,1.15-.34,2.75-2.52,4.8-3.26,2.63-1,5.73-2,7.12-4.38,2.57-4.43,7.4-6.27,10.91-9.26,5.26-4.49,9.15-9.81,13.51-14.86,2.13-2.46,3.25-5.84,7.54-5.5,1.74.13,1.83-2,2.51-3.28,2.46-4.67,2-11.4,9-12.95a2.7,2.7,0,0,0,1.55-1.85c.92-4.92,5-8.23,6.42-12.89a4.16,4.16,0,0,1,3.45-3c3.17-.8,6.15-2.37,7.81-5.55a2.65,2.65,0,0,0-.73-3.57,2,2,0,0,0-3.35.62c-1.38,2.43-3.1,2.19-5.47,1.48-2.63-.78-5,.7-5,3.44,0,9.08-10.22,10.17-12.88,17.07-.06.17-1,.21-1.36,0-2.4-1.18-3.29.58-4.28,2.13-.71,1.12-1.56,3.18-2.51,2.82-4.7-1.78-4.56,2.23-5.62,4.5-1.18,2.5-2.08,4.24-4.92,1.58-1.17-1.1-2.84-2-4,.44-.67,1.36-.79,3.87-2.95,3.3-1.8-.47-1.58-2.68-1.61-4.35,0-1,.07-2.13-1.12-2.52a2.74,2.74,0,0,0-3,1.19c-1.19,1.48-1.93,3.1-1.22,5.08.95,2.67-.23,3.37-2.83,3.71-3,.38-8.26,1.05-8.54,2.42-1.64,8-12.3,5.66-14,13.06-.15.66-1.48.51-2.3.23s-2-.78-2.82,0c-5.37,5.14-11.89,8.26-18.73,10.86a2.31,2.31,0,0,0-1.24,1.46c-1.51,7.26-8.5,10.31-12.22,15.92-4.64,7-13.21,11.41-13.49,21.23a2,2,0,0,1-2.81,2c-6.26-2.83-5.67,1.41-5.7,5.24a6.68,6.68,0,0,1-.6,2.9c-4,7.91-9,15.47-7.62,25,.11.72-.62,1.53-.83,2.33-1.23,4.59-2.73,9.14-3.52,13.8-.53,3.17-.22,6.07-5,5.26-2-.35-2.58,1.72-2.52,3.52.07,2.14,1.35,2.54,3.06,1.83,3.3-1.39,4.2.34,4.37,3.17.22,3.63.69,7.23-1.94,10.42a7.77,7.77,0,0,0-1.72,5.13c.31,11.46-2.32,22.8-1.36,34.28.14,1.69.22,3.65-1.27,4.61-4,2.6-3,6.86-4.26,10.46-1.9,5.58.76,14.08-8.5,15.79a1,1,0,0,0-.6.73c-.12,5.25-2.59,8-7.2,11.17-6.54,4.45-6.24,13.49-8.74,20.6a5.86,5.86,0,0,0,2.4,6.6c2,1.4,3.5-1.07,5-2.19,2.32-1.72,3.05-5.58,5.16-6.45,6.15-2.56,8.29-8.47,11.42-13.05,8.09-11.86,9.36-26.7,15.55-39.52,1.17-2.43,1.69-5,.34-7.67-.94-1.89.38-3.53,1.18-5.15.65-1.32,1.84-2.54,2-3.91C613.64,235.66,614.46,227.9,615.34,220.26ZM96,185.07c-5-.26-5.06,2.16-3.48,4.68a17.9,17.9,0,0,0,5.43,5.78c5,3.12,8.31,7.44,10.78,12.7,1.33,2.82,3.43,5.71,6.57,6.29,4.61.86,7.24,4.09,10.62,6.65,4,3,6.53,10,13.77,6.19a2.38,2.38,0,0,1,3.24,1.61c1.26,6.05,6.19,5.16,10.43,6.12,5.83,1.32,12.46-.37,17.39,4.57a2,2,0,0,0,3.08-.45c1.26-2.46,3.32-1.61,5.24-1.67,2.64-.08,5.52,1,7.84-.45,1.44-.89,2-.83,3.62-.36,3.2.93,6.94,3.84,10-.8.59-.91,2.07-.47,3.28-.27,5.42.91,10.43,3.91,16.19,3.16,1.18-.15,2.15.57,3.21,1.11,6.36,3.19,13.41,4.55,19.88,7.8,2.87,1.44,6.24,1.85,9.45,4.23A58.67,58.67,0,0,1,266,265.69c3.05,4.37,6.73,8.09,12.21,9.36.9.2,1.66.57,1.81,1.46,1.07,6.62,5.65,11.43,8.45,17.09,3.23,6.54,4.9,14,9.14,20.08,4.08,5.85,2.62,15.48,12,17.75.64.16,1.22,1.14,1.57,1.87,1.88,3.89,3.82,7.76,5.48,11.75,1.91,4.61,8.43,4.51,9.69,9.7,0,0,.31,0,.48,0,4.59-.22,7,3.8,10.59,5.6,1.6.81,2.41,3.31,4.82,1.86s1.43-3.4.86-5.34c-2.92-9.79-11.59-20.6-19.83-28.28-2.86-2.66-5.48-6.43-8.29-9.59-3.28-3.67-3.75-9.77-9.66-11.21-.46-.11-1-1-1-1.6-.28-3.1-1.94-5.73-3.31-8.29-2.65-5-4.42-10.95-10.58-13-2.86-.94-4-2.86-4.39-5.43-.74-4.5-1.48-8.85-6.19-11.21-1.27-.63-1-2.36-1.15-3.67-.18-1.48.11-3.3-.66-4.37-4.15-5.82-8.9-11.2-13.29-16.85-2.26-2.91-4.44-5.62-5.8-9-1.44-3.65-1.39-8.55-7.16-8.79-.49,0-.94-1.24-1.4-1.9-2.06-3-4.06-6.07-6.2-9-1.66-2.3-4.64-4.57-6.7-2.93-4.58,3.65-5.45,0-7.18-2.6-1-1.43-1.84-4.11-3.93-2-2.88,3-4.89,1.88-7-.5a2.79,2.79,0,0,0-2.53-1.27c-5.94.88-11.87,1.8-17.81,2.68-5.12.76-10.11-1.13-15.16-1.41-3.61-.19-8.48-1.44-12.37-2.14-5.75-1-11.78-.82-17.5-3.1-1.87-.75-4.72-1.12-6.18.6-2.43,2.87-3.62,1.18-5.42-.53a23.9,23.9,0,0,0-12.23-5.79c-5.88-.87-11.08-.26-16.41-4.84-4.3-3.68-12-1.86-17.12-5.76C96.27,184.86,95.61,185.07,96,185.07ZM339.29,465.72c2.73.28,3.25,5.49,6,3.19,3.87-3.18,10.25-2.4,12.35-8.14.44-1.22,1.62-.8,2.59-.51,5,1.53,5.6,1.1,6-4.32.16-2.44-.32-5,1.44-7.18,4.53-5.67,6.12-21.78,1.93-27.69-2.77-3.91-3.4-7.76-3.28-12.14.06-2.23-.21-4.47-2.26-5.78-4-2.55-4.93-6.37-5-10.72,0-1.62.51-3.71-1.05-4.68a66.26,66.26,0,0,1-8.73-6.33c-.19-.16-.92.2-1.35.43-3.53,1.89-7.07.66-10.56-.07-9.49-2-16.13-8.84-23.68-14.12-.79-.56-1.46-1.7-2.49-1s-.3,1.86.29,2.61c2.86,3.6,2.66,7.85,2.23,11.95-.32,3.1-2.18,6.44-5.7,5.27-4.58-1.52-5.07.18-5.33,4-.23,3.41-.83,7.14-3.78,9.31-3.75,2.74-8.95,3.14-12,7.25-.84,1.15-1.74.56-2.36-.4-1.94-3-3.92-7.11-5.17.35-.07.44-.54,1.16-.83,1.16a21.71,21.71,0,0,0-12.66,4.22c-1.17.8-3.45,1.15-4.71,2.8-.48.62-.92,1.28-2,.94a16.35,16.35,0,0,0-12.71.94,3.87,3.87,0,0,1-3.37-.06c-2.35-1-5.24-2.21-6.16,1.31-.78,3-2.1,6.73,2,8.81a9.19,9.19,0,0,1,5.26,6.82c.35,1.81,2,3.64,3.45,2.18,3.12-3.14,6.84-1.25,9.9-1.3,3.51-.06,7.23,2.06,11,2.94,2.07.48,13.06,2.07,14.06.46,2.31-3.76,3.13-1.46,4.48.54,1,1.48,2.71,2.25,3.11-.2.77-4.76,4.36-4.34,7.55-4.6,2.23-.18,4.31-.17,5.4-2.65,1.54-3.48,3.08-2.75,4.69.06.78,1.35,1.28,3.44,3.45,3,1.85-.37,2.25-2.19,2.9-3.75a9.92,9.92,0,0,1,11.37-6.19c3,.59,3.56-.78,3.48-3.15-.1-3,2.79-4.12,4.23-4,2.76.21,6.62-1.89,8.17.79a20.66,20.66,0,0,1,2.51,15c-.36,1.61-1.49,1.71-2.79,2.23-2.79,1.11-6,.22-8.59,2.39-3.07,2.59-5.21,6.8-10.31,6.13-1.4-.18-1.79,1.09-2.17,2.28a34.81,34.81,0,0,0-1.22,5.84c-.53,3.91-2,6.91-6.89,4.86-2-.84-2.53.23-3.22,1.83-1.08,2.53-2.37,5.29-.2,7.41,1.86,1.83,4.6,1.29,6.85-.14s3.33-1.09,3.66,1.66c.45,3.73,2.36,4.17,5.52,2.5,2.35-1.24,5.27-2.34,7.67-1.18C336.26,470.78,338.35,469.7,339.29,465.72ZM379.05,808c.61,5.79-.44,11.62.72,17.42.68,3.43,2.31,4.56,5.76,4.66a221.45,221.45,0,0,0,28.34-1.34c11.83-1.16,18.2-8.6,17.45-20.6-.71-11.41-6.13-21.14-20.21-20.8-9.35.22-18.72,1.12-28.1.25-2.42-.22-5.09,1.09-4.61,4C379.31,797,378.33,802.5,379.05,808Zm10-54.17c4.79.41,10.69-.89,16.67-1.07,15.18-.46,19.74-12.59,16-25.31-1.76-6-5.9-9.19-12-10.46-6.85-1.43-13.48,1-20.26.58a40,40,0,0,0-10.86.82c-3.56.73-4.27,2.48-4.15,5.44.25,6,.53,11.9.74,17.86C375.69,753.92,375.68,753.92,389.09,753.78Zm-275.38-9.67a34.69,34.69,0,0,0-1.23,3.93q-4.64,29-9.22,58c-.46,2.91.94,3.77,3.63,3.94,6.18.39,12.14-1.57,18.35-1.22,7.11.41,7.76-.74,5.79-7.69-3.36-11.82-6.48-23.71-10.22-35.41C118.64,758.82,118.06,751.44,113.71,744.11Zm358.38-172c.7-3.75,1.53-6.43,5.2-8.21,3.51-1.7,4.59-9.22,1.63-10.71-5.53-2.77-4.84-7.24-4.82-11.82,0-1.81.31-4-1.81-4.76-3.25-1.2-7.19.66-10.19-2.47-.63-.66-2.4,1.06-2.78,2.3-1.49,4.93-2.61,9.84-.81,15C461.27,559.55,468.6,564.43,472.09,572.16Zm21.45-9.48c2.25-.59,1.47-2.9,3.13-3.45,5.89-2,8.73-7,6.8-12.32a63.09,63.09,0,0,1-3.06-11c-.6-3.63-3.12-5.2-6.55-4.25-2.63.72-4.75,1.42-6.28-1.65a2.15,2.15,0,0,0-3-1c-1.12.59-1.4,1.6-1.2,3C485,542.83,489.53,552.63,493.54,562.68Zm-3.27-68.25c-1.16,2.25-1.55,3.16-2.07,4-1.68,2.62-5.42,3.44-7.18,3.24-3.85-.45-5.94-.09-5.71,3.68.31,4.91,2.67,9.13,4.93,13.35.48.89,1.18,1.25,2,.79,2.61-1.44,3.28.56,4.6,2.15,2.48,3,6.06,3,8.86,1,2.52-1.76,4-5.21,1.35-7.81-2.84-2.79-3.06-5.92-3.52-9.43C493.11,502.12,491.67,498.94,490.27,494.43Zm-23.55,26.44c-1-3.45-2.17-7.92-3.75-12.23-1.94-5.29-2.07-5.2-6.05-1.49a8.48,8.48,0,0,1-2.59,1.43,3.81,3.81,0,0,0-2.44,4.83c.83,3.1.61,6.26,1,9.36.38,2.83.35,6.31,4.81,6C464.51,528.4,466.81,526.64,466.72,520.87ZM436.5,549.65c-.29,5.65,1.94,8.63,5.91,11,2.09,1.25,3.65-1.74,5-.09,3.5,4.33,3.61.57,4.4-1.69,1.09-3.13.25-6.33.2-9.48,0-1.17-.56-3.39-2-3-4.57,1.23-5.42-2.56-7.46-4.86-1.57-1.77-3.49-2.65-4.47.35A57.32,57.32,0,0,0,436.5,549.65ZM521,546.08c1.12-4.71-2.4-8.49-3.37-12.94a3.27,3.27,0,0,0-3-2.34c-1.51-.21-1.55,1.4-2.27,2.19-4.33,4.72-4,9.74-1.4,15.12,1.51,3.1,2.61,7.64,6.48,7C521.53,554.42,521.2,549.87,521,546.08ZM516,507.62c2.76-4.91-2.56-4.88-4-7.17-2.47-3.82-4.18-1.85-5.42,1.08-2.05,4.84-1.52,9.7.27,14.45.91,2.42,2.68,2.9,5.19,2C517.58,516.08,516.89,511.78,516,507.62ZM756.42,82.54A18.11,18.11,0,0,0,756,86.3c.19,1.7,1.37,3.25,2.87,1.6,2.2-2.44,5.13-2.8,7.81-3.94,2.26-1,4.25-2.4,3.78-5.14-.52-3-.85-6.4-3.46-8.49-1.33-1.06-2.76-.4-3.47,1.41-.58,1.49-.68,4-2.38,4.06C756,76,756,79.21,756.42,82.54Zm-323.9,436c1.67,1.88-.26,7.08,4.38,7.06,2.57,0,7.9.93,7.17-4.91-.45-3.56-.88-7.52-4.82-9C437.26,510.92,432.53,515.67,432.52,518.5ZM60.15,172.31c.88-.32,2.61.64,3.32-.72.92-1.76-1-2.6-2-3.56a68.6,68.6,0,0,0-7.24-6.72c-2.67-2.07-3.92-.62-4,2.26C50.18,168.32,54.54,172.29,60.15,172.31ZM709.76,151.4c1.79.29,2.07,2.58,3.74,1.72.92-.48,1.75-2,1.15-2.45-2.19-1.85-.71-6.25-4.3-6.68s-3.19,3.14-4.26,5.19a16.46,16.46,0,0,0-1,1.72,4,4,0,0,0,.82,4.6,2.41,2.41,0,0,0,2.76.52C710.83,155.05,709.63,153.18,709.76,151.4Zm-13.84,11.5c1.65-.66,3.28-1.22,4.81-2,1.91-.92,1.82-2.54,1.15-4.21-.56-1.41-1.23-2.9-3.09-2.61a2.74,2.74,0,0,0-2.24,3.33C696.76,159.27,695.05,160.78,695.92,162.9ZM527.78,524.05c-.36-1.39-.44-3.67-2.75-3.65a2.77,2.77,0,0,0-2.64,3.45c.5,1.75,1.12,4.21,3.55,4.12C527.9,527.9,527.59,525.87,527.78,524.05ZM69.92,184.85c-1.13,0-3.08-.27-3,1.4.07,2.1,1.9,3.36,4,3.63,1.25.16,2.93.41,3.06-1.54C74.17,185.67,72.27,185,69.92,184.85ZM721.44,53.36a21.82,21.82,0,0,0-3.53-4c-.67-.49-2.52.39-2.29,1.78a4.75,4.75,0,0,0,4,3.85C720.48,55.13,721.22,54.78,721.44,53.36ZM548.2,542.75l.73.17c.2-2.45.48-4.89.58-7.35,0-1.32-.11-3.12-1.86-2.86s-1.39,2.08-1.12,3.36C547,538.31,547.63,540.52,548.2,542.75Zm-114.67,37c-.22-1.51-.93-2.77-2.62-2.86-1.43-.07-1.86,1.13-1.87,2.35,0,1.45-.11,3.2,1.78,3.48S432.87,581.08,433.53,579.76ZM564.16,294.31c-.31-1.51.23-3.59-2-3.89-1.45-.19-1.93,1.16-1.8,2.35.18,1.64.71,3.53,2.39,3.94S563.83,295.25,564.16,294.31Z" transform="translate(-1 -3.73)"/><path d="M1,844c2.91,4.4.37,9.21.77,13.82.42,4.81-.49,9.74.68,14.65A7.2,7.2,0,0,1,1,879Z" transform="translate(-1 -3.73)"/><path d="M1,813c1.82,3.32,1.39,7,1.39,10.52,0,5.83-.88,11.65-1.39,17.48Z" transform="translate(-1 -3.73)"/><path d="M1,780a173.35,173.35,0,0,1,0,29Z" transform="translate(-1 -3.73)"/><path d="M615.74,858.8c-8.9,1.49-17.88,1.05-26.83,1.28-3.88.09-5.76-1.34-6.73-5-1.67-6.25-4.22-12.31-5.35-18.63-1-5.72-4.83-6.45-8.93-6.13-13.63,1.06-27.27.64-40.9.92-7,.15-8.19,1.2-9.46,8.12-1,5.55-2.4,11-3.33,16.61-.61,3.67-2.72,5.18-6.13,5.2-10.33,0-20.66,0-31,0-3.57,0-3.15-2-2.57-4.3q4.41-17.33,8.84-34.63c6.8-26.55,13.77-53.06,20.33-79.67,5.2-21.1,10.72-42.1,16.34-63.08.79-2.93,2.07-4.26,4.9-4.64,11.4-1.5,22.9-.92,34.34-1.66,3.12-.2,3.54,2.87,4.13,4.9,3.94,13.74,9.48,26.9,14,40.41q9.55,28.3,19.3,56.53,11.68,33.9,23.47,67.76c1.09,3.14,2.34,6.23,3.27,9.42,1.61,5.55.87,6.48-4.75,6.52ZM542.38,723.91a72.63,72.63,0,0,0-2.13,7.47c-3.09,19.51-7.66,38.71-11.72,58-1.48,7.09-.53,9,6.42,8,7.64-1.08,15.27-.9,22.92-1,5.31,0,6.2-1.21,4.72-6.3-3.76-12.92-7.39-25.88-11.37-38.74C548.54,742.69,547,733.65,542.38,723.91Z" transform="translate(-1 -3.73)"/><path d="M473.84,366.93c4.15,6.23,2.52,12.62,1.8,18.87,2.63.6,3-1.8,3.73-2.78,3-4.11,5.22-2.15,6.16,1,1.66,5.59,5.22,9.34,9.51,12.94s5.87,8.42,6.52,14c1.08,9.39.06,18.92,2.24,28.21.4,1.68-.18,2.73-2.14,1.52-2.61-1.62-3.92.6-3.4,2.13,1.15,3.37-1,6.1-1.27,9.4-.93-2-2.24-3.83-2.73-5.9-1.16-4.94-6.66-7.2-7.25-12.59-.23-2.1-.55-4.22-.74-6.36-.22-2.64,1.1-6.62-4.33-5.2-1.52.39-1.48-1.32-1.69-2.47a71.79,71.79,0,0,0-1.72-7.72c-1.66-5.3-3.47-6.36-8.39-4.41-2.29.91-1.85,3.59-1.79,5.69,0,1.71,1.62,4.28-.62,4.83-2.63.65-2.4-2.57-3.1-4.2-1.3-3.06-2.22-6.28-3.41-9.39-.42-1.08-1.18-2.25-2.61-1.71-1.14.43-.72,1.68-.85,2.63-.33,2.44,1.07,4.49,1.51,6.76,1.37,7.1,2.35,14.11-2.8,20.35-1.85,2.26-1.93,4.85-.69,7.51.55,1.16,1.44,2.74-.3,3.37C454,444,454,442,453.29,441.2a1.14,1.14,0,0,1-.24-.43c-.77-2.42-1.24-6.38-4.46-5-2.54,1.1-.76,4.72.17,7.19,1.7,4.51,2.27,8.88-.33,13.42-1.88,3.26-1.31,7.05-.47,11.25-2.89-1.69-2.39-4.08-3.07-6-2.78-7.64-5.34-15.38-8.54-22.85-2.78-6.48-.83-12.93,1.48-18.24,1.26-2.89,3.15-5.16,2.59-8.58a2.9,2.9,0,0,1,.61-1.72c7.45,1.41,5.94-6.2,8.91-9.21,3.84-3.9,4-9.21.81-14.26-.91-1.45-3.22-3.91-.58-5,2.09-.89,5.09-3.51,7.3-1,2.85,3.29,6.22,1.51,9.32,1.88,2.39.28,2.21-2,2.37-3.58A22.9,22.9,0,0,1,473.84,366.93Z" transform="translate(-1 -3.73)"/><path d="M401.75,318.91c-2.75,1.42-1.45,3.47-3,4.69-1.88-1.89-.62-4.29-1-6.34-.2-1.12,0-2.56-1.6-2.66s-1.73,1.21-2.08,2.35c-.72,2.37,1.39,6.18-2,7-4,.95-2.4-3.94-4.25-5.55-3.83-3.36-4.43-8-4.88-12.65-.12-1.29-.5-4.11-2.27-2.05-3.38,3.92-3.64.36-3.8-1.4-.52-5.69-2.41-11.25-.38-17.21,1.52-4.48,1.58-9.46,2.36-14.2.18-1.06,1-3.05,2-1.55,2.73,4,2.85.67,4-.93a37.55,37.55,0,0,1,4.66-5c1.24-1.17,1.92-.48,3.11.69,2,2,4.28,6,7.56,1.19.21-.32,0-.85.85-.52,2.78,1.08,2.88,1,2.39-1.69-.24-1.3-1.06-2.85,1.09-3,1.62-.1,4.11-.94,4.28,1.89.15,2.4,1.74,4.69.35,7.28-1,1.91.16,3.47,1.66,4.76,1.06.91,2.22,1.89,3.49.8s-.32-1.93-.67-2.91c-.63-1.81-1.59-4.65.67-5,1.6-.24,5.24-.65,5.89,3,.24,1.33-.93,3.62,1.08,3.78,1.69.13,2.36-2,2.76-3.68a9,9,0,0,1,.53-1.31c1.82-.56,1.62,1.62,2.47,1.83,8.76,2.16,7.55,8.68,5.35,14.26-2,5.15-1,11.56-6.5,15.57-1.92,1.4-.95,5-.21,7.61,1,3.36,0,6.13-2,8.92-1.9-1.7-2.24-3.81-2.68-5.9-.27-1.26-.46-3-2.23-2.72-1.61.23-.94,1.84-1.07,2.9s.15,2.15-.28,3c-3.6,6.72-1.27,13.6-.71,20.43a19.87,19.87,0,0,1,.21,3c-.05,1-.08,2.27-1.18,2.54-1.69.41-1.62-1.21-2-2.22-1-2.91-2.74-5.65-1.21-9,.42-1-.45-2.53-.83-3.78-.24-.8-.71-1.64-1.68-1.54-1.12.12-1,1.14-1,1.94,0,1.77,0,3.54,0,6.36C405.87,327.13,402.27,324.15,401.75,318.91Z" transform="translate(-1 -3.73)"/><path d="M526.66,294.36c-1.42-.17-1.4-1.12-1.69-1.87-.47-1.22-.8-2.92-2.35-2.87-1.71.05-1.65,2-1.82,3.13-.59,4-4.9,4.57-6.75,7.49-.54.87-2.26-2.19-4.43-1.72a3.83,3.83,0,0,0-.55,1c-.51,1.77,1,4.51-1.66,5.15-2.37.58-2.58-2.1-3.4-3.6-1.13-2.08-2.06-2.28-3.49-.16a3.81,3.81,0,0,1-4.29,1.77c-1.53-.56-1.6-2.61-1.54-3.93.19-4.36-2.65-7.87-3-12-.07-.83-.53-1.72-1.55-1.58-1.4.18-1.23,1.42-1.09,2.33.81,5.21-.86,10.56,1,15.75.43,1.17.89,3.41-.8,3.9-1.51.45-3.07-.89-4.19-2.17a2.12,2.12,0,0,1-.65-1.32c.66-5.88-4.58-7.86-7.67-11.05-1.82-1.88-2.9-3.52-2.63-6,.41-3.7-.9-7.21-1.12-10.85,0-.62-.27-1.53-.71-1.78-7-4.08-3.55-9.77-2-14.82,1.12-3.73,2.66-7.56,6.35-9.84,1.71-1.06,1.25-3.27,1.87-4.78,1.86-.14,1.55,1.27,2,2a2.87,2.87,0,0,0,3.24,1.76c2.11-.47,1.48-2.34,1.46-3.72,0-.95-.72-1.89-.75-2.85-.07-2,.15-4.49,2.18-5s2.44,2.05,2.64,3.52c.51,3.73,4.09,3.48,6.21,4.64s2.39-2,3.16-3.51c.89-1.8,2-1.71,2.8,0a20.63,20.63,0,0,1,1.5,5.24c.33,1.64-2.32,6.74,3.43,3.72,1-.52,1.33.64,1.43,1.49.13,1.23.55,2.71,1.83,2.56,3.65-.43,3.09,2.11,3.26,4.17.1,1.22.33,2.49,1.55,2.88s1.58-.84,2.22-1.59c1.07-1.24,2.22-4.18,3.88-2.4,1.92,2.06,2,5.46,1.74,8.48,0,.12-.81.24-1.24.22-.64,0-1.14-1.75-1.86-.3a2.25,2.25,0,0,0,.6,2.69c5.13,5.2,5.84,12.57,8.95,18.78C529.76,289.44,528.18,292.29,526.66,294.36Z" transform="translate(-1 -3.73)"/><path d="M121.92,547.6c3.12,1,4.61-.52,5.69-3.23,4.14-10.34,8.47-20.61,12.58-31,3.42-8.59,7.46-10.55,15.8-6.69,17.5,8.1,34.55,17.17,52.59,24.08,1.4.54,2.76,1.2,4.17,1.67,7.19,2.39,9.23,6.67,6,13.82-4.68,10.46-9.59,20.83-14.55,31.17-1.28,2.67-1.57,4.39.89,6.91,3.55,3.62,3.6,8.34,1.42,13-7.52,16.13-15.93,31.83-23,48.2-4.06,9.44-7,10.59-17.17,8.54a164,164,0,0,1-65.88-29.4c-6.61-4.89-9-10.7-6.23-18.72,6-17.45,11.4-35.1,18.11-52.31C114.17,549.1,117.12,547.05,121.92,547.6Zm47.78,86.27c3.21.51,4-1.94,4.92-4,3.68-8.72,7.17-17.51,10.94-26.18,1.32-3,.64-4.21-2.47-5.42-11.13-4.31-22.64-7.64-33.48-12.74-6.31-3-12.63-5.91-18.7-9.36-2.82-1.61-5.19-1.92-6.77,1.84-3.77,9-7.49,18-10.8,27.26-1.14,3.16-.26,4.55,2.38,6.41,13.81,9.72,29.58,14.74,45.44,19.59C164,632.09,166.85,633,169.7,633.87Zm16.37-57.55c2.79.25,3.89-1.7,4.88-3.67,2.82-5.63,5.47-11.36,8.43-16.91,1.34-2.51.53-3.6-1.73-4.56q-19-8-37.39-17.55c-3.73-1.92-6.13-1.27-7.73,2.88-2.14,5.54-4.44,11-7.11,16.36-2,4.08-1.24,6.38,2.94,8.09,11.66,4.77,23.24,9.73,34.87,14.58A20.89,20.89,0,0,0,186.07,576.32Z" transform="translate(-1 -3.73)"/><path d="M845.35,561.46c0,6.67-1.69,11-6.07,13.95-15.2,10.21-30.52,20.15-48.45,25.14-7.19,2-14.31,4.23-21.62,5.77-5.13,1.09-9-.64-11.21-5.13q-13-26.66-25.64-53.51c-2.05-4.34-1.92-8.85,2.14-12.31,2.11-1.79,1.73-3.43.67-5.68-4.82-10.22-9.38-20.56-14.14-30.81-3.41-7.35-.88-12.59,6.29-15,19.41-6.53,37.44-16.32,55.84-25.18,8.51-4.09,12.26-.56,14.76,5.59,4.38,10.78,9.07,21.44,13.43,32.22,1,2.42,2.32,3.83,4.8,3.14,6.15-1.71,8.65,2.35,10.38,6.78,3.46,8.82,6.5,17.81,9.64,26.75q4.29,12.18,8.42,24.41A20.67,20.67,0,0,1,845.35,561.46Zm-19.1-2.28c-.14-.43-.33-1.07-.57-1.68-3.53-8.8-7.22-17.54-10.54-26.42-1.66-4.47-4-5.06-7.95-2.87-16.33,9.12-33.64,15.93-51.37,21.76-2.29.76-3.44,2-2.43,4.47,3.83,9.2,7.75,18.36,11.55,27.57,1.16,2.81,3,3.82,5.9,2.91,18.44-5.71,36.84-11.52,53-22.62C824.91,561.55,826.21,561,826.25,559.18Zm-44.38-74.26a7.2,7.2,0,0,0-3.78,1c-11.68,6-23.33,12-35.69,16.48-3.5,1.27-3.09,3.56-2,5.93,2.58,5.55,5.34,11,8.12,16.47,1.24,2.43,3.1,4.06,6,2.84,12.73-5.27,25.8-9.74,38-16.27,1.78-1,2.51-2,1.68-4-3-6.87-5.91-13.72-8.78-20.61C784.73,485.07,783.49,484.74,781.87,484.92Z" transform="translate(-1 -3.73)"/></g></g></svg>