<svg xmlns="http://www.w3.org/2000/svg" viewBox="0 0 758.39 890.5"><title>trespass</title><g id="Layer_2" data-name="Layer 2"><g id="Layer_1-2" data-name="Layer 1"><path d="M142,897c.92-2.9-3.65-5.54-.22-8.65,2.49,2.42,2.31,5.55,2.22,8.65Z" transform="translate(-28.69 -6.5)"/><path d="M647.44,874.6c-8,2.07-14-1.88-17.51-8.1a28.93,28.93,0,0,1-3.07-12.16c-.46-9.63-1.36-19.24-.92-28.89.08-1.7.26-3.84-1-4.75-5.12-3.63-6.62-10.36-12.44-14.19-.39,3.62-1.72,6.28-4.6,8.14-.92.6-1.37,2.32-1.55,3.59-1.4,10-3.05,20-2.29,30.15.12,1.67.53,2.78,2.32,3.31,5,1.49,5,1.55,3.7,7.61-2-3.75-5.15-5.74-7.79-8.29-1.24-1.21-1.25-2.59-1.32-4.1-.94-18.83,2.68-37.41,3-56.17.23-12.75.6-25.53-3-38-.36-1.27-1.08-2.63-.9-3.84.78-5.19-2.24-6.77-6.52-7.37-10.15-1.44-19.41-5.79-29-9-16.76-5.62-32.64-13.33-48.61-20.86a53.37,53.37,0,0,0-18.16-4.77c-6.77-.55-13.58-.72-20.38-.95-4.1-.14-6.79,1.32-7.75,5.91-1.21,5.75-4.1,6.51-9.43,2.93-2.24-1.49-4.79-.73-7.19-1.41-8-2.26-16.83,2.22-22,8.4-8.69,10.35-13.24,23.77-24.31,32.27-4.82,3.71-9.53,7.55-14.34,11.27-1.13.87-2.44.75-4,0,1.89-3.7,5.09-5.84,8.11-8,10.21-7.27,18.09-16.55,25.25-26.78,3-4.34,4.2-10,9-13.15,1.14-.75.6-1.91,0-2.61-1.27-1.42-2.2-.3-3.3.56-7.65,6-13.57,13.57-19.75,21-8.21,9.84-15.9,19.9-26.46,27.94-7.6,5.79-16.82,10.14-22.87,18.47,3.33,1.23,5.35-4.21,8.95-.76-6.66,1.52-8.93,8.87-15.91,11.34,1.6-3.66,3.81-6,6.23-8.62-2.34-.81-4-1-5.52.42-6.94,6.25-15.31,10.45-23,15.56a16.86,16.86,0,0,0-7.92,12A116.1,116.1,0,0,0,320,836.36c.07,2.26.61,4.71-1.49,6.79-2.19-2.3-1.61-5.12-1.64-7.77-.06-3.83-.08-7.67,0-11.5,0-2.4,0-5-2.46-6s-1.54,3.1-4.47,3.06c1.06-3.94,3.26-6.83,5.55-9.86,1.15-1.53,4.32-3.15,2.88-5.05-1.59-2.07-3.76.7-5.6,1.42-5.63,2.2-6.78,8.3-10.36,12.33-5.11,5.75-8.41,13.21-16.12,16.43a2,2,0,0,0-1.07,1.48c.77,8.39-6,15-5.41,23.44.16,2.35-1.47,5.15-3,7.21-3.62,4.89-4.16,9.47-.23,14.4a2.64,2.64,0,0,1,.12,3.51c-3.34-2.11-5.39-4.54-4.92-9,2-18.59,1.63-37.42,5.49-55.83a5.44,5.44,0,0,0,.28-2c-1.61-8.06,3.53-11.71,9.33-15.63a159.52,159.52,0,0,0,32.88-30.13c7.55-9,13.18-19,19-29a42.65,42.65,0,0,0,3.92-10.12c1.8-6.51,2.79-13.28,4.94-19.66,4.5-13.33,1.62-27,2.39-40.46.35-6,1.79-11.81,5-16.44,6.36-9.08,3.9-18.2,1.16-27.13a122.07,122.07,0,0,1-3.77-15.88c-.27-1.61-.28-2.95,1.26-3.92a3.82,3.82,0,0,1,4.65.13c3.58,2.69,7.24,5.3,10.64,8.19,8.41,7.17,18.54,9.12,28.81,7.64,13.89-2,27.83-3.9,41.66-6.29,14.17-2.45,28.5-3.63,42.69-6.22,14.4-2.62,29.08-4.24,43.62-6.42,6-.9,12-2.27,17.93-3.72,12.5-3,24.84-6.94,37.68-8.44,5-.59,9.65-2.57,14.24-4,9.64-3.07,19.61-6.19,27.4-13.38,4.57-4.21,7.66-9.57,11.18-14.56a453.55,453.55,0,0,1,33.46-42.59c6.7-7.42,15.1-13.29,22.65-20,6.33-5.58,12.66-11.18,17.41-18.27.45-.68.8-1.49,2-1.5,2.06,3.87-1.44,6.1-3.31,7.74-5.28,4.64-7.92,11.22-12.88,16.07-2.78,2.72-1.94,8.69.65,10.36,3.36,2.17,9.69,1.11,11.28-2.5a119.14,119.14,0,0,0,5.46-15.89c.73-2.56,1.7-5,2.36-7.57.84-3.24,2.7-6.66-1.27-9.71-2.37-1.82-.13-4,1.36-5.42s3.24-2.06,4.34.54a2.94,2.94,0,0,0,3,2.11c4.21.12,5.78,3.16,3.54,7.1a47.89,47.89,0,0,0-4.47,11c-1.72,6.19.05,9.71,5.14,13.6,5.9,4.52,12.61,7.81,18.16,12.88a21.61,21.61,0,0,1,5.82,8.51c3.48,9.38,11,14.79,18.94,19.49,5.83,3.42,11.3,7.36,16.95,11,2.71,1.75,3.57,4.4.29,6.86-2,1.46-3.84,3-6.51,5.13.58-4.45-1.16-8.14,1.28-11.14-7.79-5.87-16.86-4.46-25.56-5.14a20.62,20.62,0,0,1-11.35-4.53,5.5,5.5,0,0,0-6-.95c-6.22,2.88-12.44-.36-18.66.21-2.17.2-3.6-1.86-2.92-4.23a2.81,2.81,0,0,0-2-3.88c-2.28-.79-3.92.53-5,2.32-1,1.55-1.65,3.1.29,4.84,2.63,2.36,2.06,7.72-.65,9.69-1,.72-3.08.26-2.86,2.17.18,1.61,2,1.54,3.14,2.09.88.41,1.78.79,3.63,1.61-5.12,3.11-7.06,8.05-10.06,12.23-1.19,1.65-.19,3.65-1.37,5.19-.54.7,0,2.32-1.47,2.16-1.67-.18-1.5-1.84-1.18-2.77,1.45-4.17,3-8.31,4.78-12.33a6.82,6.82,0,0,0,.46-5.27c-.48-1.36-1.84-1.31-2.95-1.43-1.92-.22-2.78,1.18-3,2.68-.78,5.07-3.46,9.92-2.73,15.07.45,3.13-3.77,4.52-2.07,7.58,1.68,1,2.82-2.63,4.26-.61,1.06,1.49-.38,3.1-.9,4.65-3.1,9.22-6.58,18.27-9.2,27.69-1.8,6.46-2.74,13.11-4.66,19.55-1.49,5-1.11,10.47-1.64,15.74-1.1,10.87-1.18,22-3.62,32.55-3.65,15.86-11.25,29.93-24.37,40.38-5.41,4.31-8.32,9.42-10.15,16.63a324.67,324.67,0,0,0-6.29,34.08c-1.38,9.76-4.12,19.33-4.08,29.43,0,6.94-2.35,13.87-2.66,21.06-.28,6.54,2.37,11.76,5.06,17,1.42,2.8,1.06,3.32-1.7,3.71-3.18.46-4.53,1.87-2.07,4.9,1.54,1.89,1.69,4.3,2,6.59.35,2.73,1.41,4.91,4.33,5.35,2.53.38,4.7.77,6.71-2.39,1.41-2.22,4-3.85,4.41-7.35,2.62,5.14,2,7.92-2.08,9.89-2.13,1-2.48,2-.79,3.62.93.93,1.76,2,2.64,3ZM512.89,656.39c5.86-1.67,9.33-6.41,13.88-9.49,5.56-3.76,6.48-4.07,11.29.75,4.27,4.29,6.13,4.47,11.21.88,2.57-1.82,5.1-3.71,7.56-5.69a3.76,3.76,0,0,1,4.15-.79c1.8.91.55,2.24,0,3.36-.32.63-.6,1.32.22,1.66s1.46-.1,1.88-1c3-6.39,8.47-9.64,14.72-12,1.58-.6,4-.56,3.41-3.26-.51-2.3-2.6-2-4.1-1.63-5.53,1.21-11.36.86-16.7,2.21-12.91,3.25-26.48,1.79-39.19,6a11.94,11.94,0,0,1-4,.1c-13.72-.47-27.25,2.35-40.92,2.34-11.31,0-22.44,2.35-33.73,2-7.69-.21-14.12,3.59-20.87,6.31-1.1.45-4.09,1-3,3,1.26,2.38,3.77,1.32,5.72.24.86-.48,1.48-1.53,2.36-1.8,3.47-1,7-3.92,10.59-1.51a5.26,5.26,0,0,0,5.81.55c3.33-1.37,6.55-4.1,10.43-.68,1.16,1,3.12-.11,4.66-.89,8.47-4.27,12.68-2.42,14.88,6.46.48,1.94.67,4,3.1,4.58s3.76-.74,5.09-2.34c2.1-2.53,4.47-4.7,8.07-3.88,3.39.76,6-.61,8.93-2,4.64-2.29,8.92-5.71,14.74-5,3.11.41,3.7,1.25,2.47,4.09C514.56,651.28,512,653.08,512.89,656.39Zm-43.84,31.75c-3.88-1.74-7.68-2.51-11.19-4.12a80.4,80.4,0,0,1-21.23-13.95c-3.63-3.32-8.27-2.17-9,1.95-1.5,8.37-4.11,16.26-9.08,23.27a2.3,2.3,0,0,0,.53,3.45c8.72-10,24.74-14.17,37.49-10.08C460.5,689.92,464.64,691.39,469.05,688.14ZM352.44,732.63c3.74-6.07,6.58-12.38,9.95-18.34,8-14.15,11.94-29,10.78-45.21-.11-1.52,1.16-4.06-2.07-4-3,0-2.89,2.22-2.85,4.26.19,10.9-2.81,21.28-5.85,31.51-2.79,9.36-7,18.29-10.46,27.44C351.47,729.51,350.35,731,352.44,732.63Zm289.28-92.46c1.19-4.72-2.05-8.17-3.2-12.22-2.17-7.64-6.85-13.31-12.89-17.93-2-1.57-5.59-4.35-7.32-2.5-2.28,2.44,2,4.45,3.1,6.79a2.83,2.83,0,0,0,.67.72A60.77,60.77,0,0,1,638,640.81c.63,2.09-1.26,6.29,2.43,5.88C643.15,646.38,641.18,642.38,641.72,640.17Zm26.48,44.35a7.73,7.73,0,0,0-2.7-7.69,4.49,4.49,0,0,0-5-1.11c-2.37,1-1.05,2.61-.67,4.15a7.64,7.64,0,0,1-.25,4.4c-2.11,6.06-3.15,12.5-6.27,18.21a9,9,0,0,0-.7,5.35c.08.86.45,1.67,1.4,1.8a1.48,1.48,0,0,0,1.74-1.39c.22-3.4,3.08-4.81,4.91-7.07C664.55,696.32,667.83,691,668.2,684.52Zm-196.55,17.4c-10.72-.57-20.75.85-30.25,5.31-.89.42-2,.78-2,2,0,1,1.13,1.23,1.8,1.34a172.5,172.5,0,0,0,22.59,1.89,2.12,2.12,0,0,0,2.34-1.49C467,707.5,470.74,705.91,471.65,701.92ZM677.1,625.71c1.65-.7,1.86-1.5,1.9-2.35.34-9.07,3.79-17.59,4.59-26.59a13,13,0,0,1,1.46-4.71c3.17-6.22,1.87-12.6-.06-19C683,590.65,672.88,607,677.1,625.71Zm-20.65-52.36c2.81-13.19,10.39-24.52,15-37C660.8,546.49,652.5,557.54,656.45,573.35ZM312.14,799.72c-1.31-1.83-3-2-4.32-.92-2,1.59-4.38,2.3-6.47,3.54-4.19,2.48-8.79,4.6-10.81,9.69-.59,1.5-2.37,2.92-.82,4.34s3.36-.45,4.23-1.35c5.06-5.22,11.29-9,16.56-13.92C311,800.67,311.48,800.27,312.14,799.72ZM591.32,701c-8.14-12.9-10.58-15.28-19.19-18.85-1.4-.58-3.14-2.33-4.1.13-.77,2,1.17,2.76,2.68,3.55,5,2.59,9.72,5.52,13.28,10.14C585.63,698.09,587.54,700.41,591.32,701Zm64.76-20.26c-.32-1.66.38-3.09-1-3.65s-1.91.49-2.51,1.64a177.33,177.33,0,0,1-12,20.25c-.6.84-2.2,1.72-.87,2.85s2.22-.29,3-1.32c2.14-2.7,4.57-5.21,6.47-8.06C651.72,688.54,653.93,684.38,656.08,680.73ZM736.4,534.47c3.23,1.62,6.26,3.29,4.89-2.6a3.6,3.6,0,0,1,.42-1.9c.68-1.68,1-3.32-1.17-4-1-.33-2.25-1.63-3.15-.62-1.16,1.32-1.17,3.61,0,4.59C739.81,532,737.31,532.8,736.4,534.47Zm-2.82,0c-.49-2.58-1.29-4.49-4-4.52-1.7,0-3.49,0-3.55,2.31-.08,3,2.15,3.93,4.47,4.22A2.69,2.69,0,0,0,733.58,534.47ZM596.79,729.81c-.47-1.15,1.06-3.79-1.56-3.66-3,.15-2,3.32-2.58,5.14-.46,1.32.39,3,1.87,2.88C596.91,734,596.86,731.86,596.79,729.81Zm-234.3-93.58c-1.71,2.79-4.05,4-2.51,6.66.47.79,1.72,1.59,2.5.87C364.59,641.84,363.18,639.62,362.49,636.23Z" transform="translate(-28.69 -6.5)"/><path d="M706.26,436.71c9.48-.25,18.94.57,28.41.77,6.42.14,12.87-.83,19.31-1.24a71.09,71.09,0,0,1,24.63,2.32c2.86.83,4.09,2.59,3.92,5.51-.08,1.33,0,2.66,0,4,0,10.92-2,12.52-13.06,11.13-3.94-.5-8-.15-12-.15a48.38,48.38,0,0,1-21.1-4.53,9,9,0,0,0-3.91-.45c-22.62.42-45.17-1.38-67.75-2.21-3.24-.12-6.1.87-6.37,4.75-.25,3.5-2.16,4.59-5.32,4.35-2.57-.2-4.82.73-7.18,1.67-4.63,1.84-8.43-.89-8.76-5.87-.17-2.48-.17-5.47-3.52-5.72-3.16-.23-2.87,2.61-3.77,4.76a39.56,39.56,0,0,0-3.27,15.33c0,3.46-2.95,5.09-6.42,4.7-3.21-.35-4.6-2.31-4.17-5.55.14-1,.06-2,.14-3,.61-7.57-1.09-9.25-8.78-9.23-35.61.09-71.24-.48-106.84.35-30.31.7-60.6.3-90.9.7-4,0-6.9-.52-8.72-4.77-1.68-3.94-5.36-6.32-9.77-5.18-4.11,1.07-7.9,3.73-7.56,8.54a107.74,107.74,0,0,1-2.37,29.95c-1.48,7.13.61,14.56.61,21.86,0,6.57-3.46,10.37-9.89,11.55a25.52,25.52,0,0,1-7.42.71c-7.95-.86-15.47,1.5-23.11,3-8.42,1.61-10.35.16-10.37-8.28,0-6.66,0-13.33,0-20s-2.1-8.67-8.52-9c-7.92-.36-15.78-1.3-23.75-1.19-6.14.09-9.15,3.56-11.09,8.29-2.64,6.46-7.05,11.9-9.78,18.27-.58,1.37-1.51,2.83-1.44,4.2.47,9.31-10.58,14.08-17.7,11.45-6.18-2.28-12.52-4.13-18.76-6.25A7.84,7.84,0,0,1,236,510.1c7.69-10.05,11.94-22.17,19.79-32.09,1.75-2.21,3.09-4.73,4.66-7.08,4.91-7.35,2-15.15-6.7-17.76-5.3-1.59-10.72-.43-15.78.38-16.33,2.61-32,7.84-47.82,12.76-12.42,3.86-24.28,9.43-37.11,12-1.23.25-3,.93-3.37,1.87-2.83,6.9-10.51,5.86-15.24,9.55a1.47,1.47,0,0,1-1.42-.09c-5.64-4.59-10.73-.92-15.59,1.37-11.53,5.45-21.14.1-21.41-12.38-.1-4.9-2.55-9.15-3.14-14C91,449,88.35,433.53,86,418c-1.13-7.49,3.21-16.28,13.62-16.24,20.12.08,40.19,1,60.27,2.17,5.63.32,11.25.71,16.88,1.08,20.69,1.36,41.49.27,62.13,3.06,6.3.85,12.17-2.33,18.15-4.11,10.74-3.2,14.2-12.44,17.85-21.46,3.29-8.12,8-10.65,16.66-9.89,12,1.06,24,2.94,35.89,4.63,16.21,2.3,32.52,3.72,48.68,6.24,5.82.91,10.12,5.62,11.44,11.4a73.7,73.7,0,0,1,1.61,10.24c.49,6,6.54,8.2,11.31,3.68,5.1-4.82,10.45-5.58,16.81-3.82,8.22,2.27,16.72,2.08,25.16,2.63,17.33,1.14,34.63,2.69,51.95,4,7.78.6,15.59.89,23.35,1.65,11.51,1.13,23.13.5,34.6,3,8.41,1.86,17.31-.46,25.86,1.26,9.8,2,19.72,1.93,29.62,2.57,5.19.33,8.33-1.79,11.2-5.64a224.24,224.24,0,0,1,19.13-22.18c2.72-2.8,5.73-5.14,10.1-3.33a11.54,11.54,0,0,1,7.46,10.67c.2,5.74-.63,11.53-1.35,17.26a95.09,95.09,0,0,0-.26,13c0,2.46,1.84,3.18,4.1,3.38C674.23,434.67,690.07,438.09,706.26,436.71ZM418.56,411h-10.5c-1.41,0-2.94.29-2.89,2s1.76,1.12,2.76,1.12a24.54,24.54,0,0,1,12.22,3.19c2.91,1.61,5.57,4,9.51,3.83a171.79,171.79,0,0,1,19.89.62c13.51,1,27.17,1.43,40.52,2.95,16.78,1.9,33.72,1.81,50.36,4.58,7.29,1.21,14.56.47,21.84,1.28,12.19,1.35,24.4,2.55,36.76,1.86,4.47-.25,9.73-1.62,13.64,2.38,1.52,1.55,3.24,3,5.17,1.57,2.13-1.55,2.26-4.25,2.12-6.79s-2.21-2.42-4-2.72a296,296,0,0,0-31.07-3.08c-18-1.1-35.94-3.7-54-3.71-1.66,0-3.47.31-5-.22-12.54-4.43-25.76-1.31-38.55-3.67a163.38,163.38,0,0,0-28.13-2.3C445.64,413.67,432.2,410.73,418.56,411ZM310.94,423.17c2.83,0,5.68.15,8.49,0,2.06-.15,4.24-1,4.27-3.37s-2-2.84-4.26-3A404.83,404.83,0,0,0,277.22,415c-2.32,0-4.74.31-6.84-.91-5.2-3-10.88-2.25-16.47-2.27-11.45,0-22.92-.39-34.36.08-13.19.55-26.11-2.16-39.14-2.61-18.75-.65-37.47-.36-56.14-3.12-8.15-1.21-16.63-.25-25-.16-2.09,0-4.18.72-4.18,3.31s2.28,2.4,4.06,2.46c8.31.27,16.62.58,24.92.73,7.83.14,15.68-.19,23.49.19,19.37.93,38.72,2.22,58.08,3.23,11.29.59,22.74-1.39,33.86,1,9.63,2.1,19.5,2.87,29.13,4.21C282.48,423.09,296.82,422.75,310.94,423.17Zm11.88-20c5.2,0,10.21,1.88,15.37,1.93,10.76.11,21.62-1.28,32.27,1.61a8.88,8.88,0,0,0,4,0c4.57-.93,5.56-3.64,3-7.57a9.86,9.86,0,0,0-8.66-5c-18.21.09-36.35-2.4-54.59-1.63a25.79,25.79,0,0,1-6-.45c-5.13-1-8.7,1-11.23,5.37-1.84,3.17-.7,5.67,2.88,5.74C307.55,403.25,315.19,403.15,322.82,403.15ZM395.15,415c-1.55.21-4.2-1-4.62,2.34-.5,3.88-.64,7.86,2.2,10.9,1.09,1.16,2.78,2.41,5.18.7,4.22-3,3.91-6.74,3-10.91C400.22,415,398,414.88,395.15,415ZM761,441.7v0c-3.5,0-7,0-10.5,0-2.07,0-4.42.21-4.38,2.88s2.48,2,4.23,2.19c7.26.62,14.48-2.06,21.78-.1,1.59.43,4.16.64,4.3-2,.12-2.29-2.14-2.85-3.95-2.93C768.65,441.58,764.82,441.7,761,441.7Zm-101.35.11c17.25,2.29,34.57,1,51.87.75C694.27,439.19,677,439.54,659.64,441.81ZM636.25,437c-3.8-.09-7.63-.69-11.37.48-1,.32-2,.65-1.91,1.86s1.16,1.45,2.21,1.54c3.78.31,7.58.47,11.34,1a45.85,45.85,0,0,0,8.91.55c1.83-.12,3.39-.89,3.44-2.86s-1.77-2.4-3.2-2.49C642.54,436.9,639.39,437,636.25,437ZM374.07,462.6c.18,3.42-.88,7.72,2.53,11.06.73.72,1.48,1.46,2.56,1.12,1.31-.41.94-1.71.79-2.51a42.1,42.1,0,0,1,0-14.12,5.67,5.67,0,0,0-.06-2,3.29,3.29,0,0,0-3.51-2.83c-1.9.07-2.33,1.55-2.33,3.18C374.07,458.34,374.07,460.16,374.07,462.6Zm-57.21,4.19c-2.54,0-5.26-.24-5.12,3.61.11,3,4.23,6.88,7.54,6.81,2.54-.06,5-.5,4.86-4.15C324,469.13,321.52,466.84,316.86,466.79Zm321.31-42.73c1.48,0,4-.51,4.17-1.63.47-3.45-3.49-5.31-4-8.71-.14-1-1.36-1.4-2.45-1.12a2.32,2.32,0,0,0-1.31.67c-1.81,2.72-5.33,5.25-5,8.22.42,3.37,5,1,7.29,2.42C637.21,424.07,637.61,424,638.17,424.06ZM374.09,496.48h0c0,3.65,0,7.3,0,10.95,0,1.19,0,2.73,1.33,2.9,1.78.23,2-1.56,2.08-2.8.62-7.43-1.73-14.83-.21-22.28a1.78,1.78,0,0,0-1.55-2.19c-1.77-.11-1.59,1.39-1.6,2.47C374.05,489.18,374.09,492.83,374.09,496.48Zm-34.48-56.74a6.14,6.14,0,0,0,4.46,2c8.95.25,17.9.51,26.85.66,1.32,0,3.61.83,3.75-1.14s-2.41-1.66-3.8-2.16a11.68,11.68,0,0,0-3.46-.1C358.47,438.9,349.63,440.85,339.61,439.74Zm377.54,3.38c3.66.95,7.3,2,11,2.78a41,41,0,0,0,7.81.73c1.2,0,2.86-.4,2.85-2.12,0-1.55-1.6-1.48-2.61-1.73C729.91,441.2,723.53,441.83,717.15,443.12ZM295.9,473.68c.92,1.48.46,4.27,3.4,5.46,1.44.59,2.71,1.41,4,.12s.05-2.44-.57-3.51c-.74-1.27-1.76-2.39-2.4-3.69s-.72-3.34-2.68-2.81C296.14,469.66,295.92,471.48,295.9,473.68Zm88.88-51.31c-.45-1.45-.95-3-2.7-3.07-1.6-.05-2.27,1.2-2,2.7s.7,3.09,2.53,3.12C384.28,425.15,384.64,423.76,384.78,422.37Z" transform="translate(-28.69 -6.5)"/><path d="M196,118.14c0-15.66.51-31.34-.14-47-.74-17.94-.62-35.87-.91-53.81-.08-4.42,1.27-5.66,5.64-5.66,17.29,0,34.58.54,51.86-.42,3.5-.19,6.64,1.55,9.11,4.31,13,14.58,26.06,29.1,39.06,43.68Q318,78.75,335.25,98.34c.91,1,1.64,2.31,3.19,1.61,1.37-.62,1.61-2,1.55-3.42-.31-6.69-.85-13.38-.89-20.07-.12-20,.08-40-.14-60,0-4.4,1.2-5.74,5.63-5.64,12.33.29,24.66.19,37,.06,5.14-.06,10.27-.53,15.4-.93,4.15-.32,5.85,1.62,5.54,5.62,0,.17,0,.33,0,.5q.36,77.69.8,155.38c0,4.33-1.51,5.39-5.47,5.36-18.33-.13-36.65-.07-55,0-2.25,0-4.1-.41-5.71-2.32C320.63,154.81,303,136.17,285.84,117q-10.95-12.23-21.9-24.44c-1.17-1.31-1.85-4.09-3.72-3.46-2.25.77-1.11,3.54-1.12,5.4q-.09,37.23,0,74.47c0,8.5,0,8.5-8.31,8.49q-22.74,0-45.47,0c-9.32,0-9.32,0-9.32-9.35Z" transform="translate(-28.69 -6.5)"/><path d="M551.77,7c13.23-1.49,26.51.29,39.38,3.29,21.33,5,41.06,13.72,55.18,31.5,6.6,8.31,10.63,17.82,13.15,28.45a121.59,121.59,0,0,1,3,30.07c-.09,7.53-3.53,14.31-5.37,21.45a56.16,56.16,0,0,1-11.46,21.78c-9,10.82-20.31,18.65-33.2,24.4a90.89,90.89,0,0,1-23.7,7.09c-8.31,1.24-16.48,3.6-25.08,3.22-10.59-.45-21.14,1.56-31.82,0-19.15-2.86-38.15-5.46-55.35-15.65-14.91-8.83-26.8-20.22-33.33-36.24a74,74,0,0,1-5.49-23c-1.26-18.78.12-37,10.39-53.3A82.77,82.77,0,0,1,481.25,20.2c8.58-4.38,17.52-8.28,26.77-9.86C522.35,7.89,536.88,5.57,551.77,7ZM504.09,92.81c-.5,3.62.38,8,.88,12.48,2.18,19.34,20.36,36.11,39.7,35.47,10.41-.34,20.93-1.17,30.58-6.48,8.85-4.86,15.14-11.65,16.84-21.43,2.12-12.3,4.35-24.5.84-37.33-3.28-12-9.2-20.84-20.6-25.5a59.11,59.11,0,0,0-40.26-2c-8.89,2.7-17.12,7.25-21.81,16.16C505.68,72.88,503.75,82.14,504.09,92.81Z" transform="translate(-28.69 -6.5)"/><path d="M705.94,248.11c0,15.32-.51,30.67.14,46,.8,18.79.47,37.58.77,56.37.07,4.46-1.4,6.63-6,6.29-1-.07-2,0-3,0-9.86.07-11.5-.82-12.58-10.4-.66-5.87-2.74-11.28-4.37-16.7-3.38-11.22-6.15-22.62-9.2-33.9-1.64-6.08-4.77-12-4.38-18.73.07-1.23-.07-3.55-2-3.52s-1.84,2.34-1.9,3.59a120,120,0,0,0-.16,16c1.66,19.62.27,39.27.75,58.89a4.68,4.68,0,0,1-.26,2.45c-3.52,5.53-9.09,2-13.66,2.77-3.33.58-4.22-2.3-4.21-5.36.05-17,.7-34-.11-51-1.66-34.45-.26-68.89-.79-103.34-.1-6.35.15-6.52,6.41-6.58,11.93-.11,11.32-2.9,15.33,12.68,4,15.37,8.36,30.62,12,46.08,1.8,7.63,4.83,15,6.25,22.74.16.9.43,1.73,1.45,1.49.43-.1.86-.93,1-1.49a17.49,17.49,0,0,0,.1-3c0-15.82.33-31.66-.14-47.47-.25-8.31-.59-16.61-.58-24.92,0-6.2,1.92-7.88,7.85-6.74a9.89,9.89,0,0,0,3.87.06c5.35-1,7.4.73,7.41,6.25C706,213.79,705.94,231,705.94,248.11Z" transform="translate(-28.69 -6.5)"/><path d="M155,303c0-17.16.81-34.36-.22-51.45s-.29-33.91-.7-50.86c-.15-6.53.93-7.59,7.55-7.41,9.62.27,19.23-.22,28.89.56,8.45.68,13.13,5.16,15.88,12,5.57,14,6,28.72,5,43.51-.46,6.89-1.08,13.67-3.57,20.4-2,5.42-4.15,10.42-8.47,14.18-1.86,1.63-1.92,2.64-.53,4.49,5.4,7.18,6.7,15.8,9,24.22,2.81,10.22,3.72,20.76,6.47,30.94,1,3.82,1.59,7.76,2.33,11.65.55,2.85-.62,4.62-3.55,4.7-5,.14-10,0-15,.06-2.94,0-3.76-2.07-3.91-4.23-.6-8.63-3.1-16.95-4.68-25.38-1.94-10.28-4.56-20.53-7.13-30.73-.77-3-2.52-6.9-5.59-6.71-4.09.27-2.75,4.65-2.69,7.4.31,12.44-.32,24.89.36,37.36.28,5,1.21,10.09.6,15.23-.67,5.65-1.76,7-7.26,7.05h-6c-6.71,0-6.79,0-6.81-7.07-.05-16.65,0-33.3,0-49.95Zm19-59c0,3.33,0,6.66,0,10,0,6.89,1.8,8.11,8.7,6.45,3.7-.9,6.08-2.72,7.44-6.4,2.41-6.52,2.25-13.11.62-19.6-1.49-5.92-7.09-8.79-13.08-7.5a4.18,4.18,0,0,0-3.68,4.57C174.08,235.62,174.07,239.79,174.06,244Z" transform="translate(-28.69 -6.5)"/><path d="M780.94,293.76c.51,8.92-.74,19.74.8,30.53,1.34,9.44-5.12,15.74-10,22.54a29.93,29.93,0,0,1-14.85,11.09c-8.68,3.07-21.24-2-26.14-10.31-8.3-14.1-11.18-29.4-13-45.23a273,273,0,0,1-.67-56.66,179.45,179.45,0,0,1,3.15-22.08c2.59-11.51,6.08-23.24,15.25-31.6,10.43-9.5,28.65-5.93,35.46,7.34,4.8,9.36,8,19.56,8.06,30.41,0,2.12-.13,4.14-2.14,5.21-4.25,2.25-8.65,4.2-12.9,6.47-2.41,1.28-3.57-1.32-4.28-3.49-1.06-3.27-1.16-6.79-3.31-9.8-3.81-5.33-9.62-5.7-13.38-.4-4.8,6.77-6.15,14.68-6.2,22.66-.11,16.31-.62,32.63.58,48.92a43.15,43.15,0,0,0,5,17.07c3.81,7.19,9,7.38,15.22,2.4,6.86-5.53,5.66-12.62,5.31-19.64-.17-3.29-3.19-3.57-5.76-3.25-4.89.6-6.43-1.5-6.41-6.23,0-7.55-.68-15.09-.8-22.64-.08-5.5,1.84-7.13,7.19-7.08,5.94.05,11.88,0,17.82,0,4,0,6.09,1.41,5.95,5.9C780.76,274.56,780.94,283.23,780.94,293.76Z" transform="translate(-28.69 -6.5)"/><path d="M281.78,340.91c0,4.66-.08,9.33,0,14,.09,3.74-2.18,5.62-5.25,4.9-4.22-1-8.16,0-12.25.09-10.48.32-21,.08-31.49.11-3.75,0-5.49-1.76-5.29-5.52.6-11.11.11-22.27-.25-33.34-.83-25.48-.12-50.95-.45-76.43-.16-11.83,0-23.66,0-35.49a46.14,46.14,0,0,0-.74-8.91c-.85-4.34,1.19-6.89,5.48-7,7.45-.21,14.9-.09,22.35-.1,6.61,0,13.23.1,19.84,0,3.75-.06,5.45,1.34,5.39,5.29-.12,8.16.06,16.32.17,24.49.05,3.72-1.51,5.4-5.41,5.29-7-.2-14-.12-21,0-5.28.06-6.72,1.68-7,6.86-.24,5.34,1.31,10.54.86,15.9-.27,3.37,2.39,4,5.09,4,6.83,0,13.66.13,20.49,0,3.65-.09,5.19,1.42,5.16,5q-.07,12.26,0,24.5c0,3.44-1.56,4.8-4.91,4.62-6.63-.35-13.26.38-19.92-.45-3.43-.43-6.07,1.09-6,5.46.18,7.32.1,14.66,0,22,0,4.14,1.64,6,6,5.81,7.66-.28,15.34.13,23-.16,4.7-.17,6.25,1.78,6,6.2S281.78,336.57,281.78,340.91Z" transform="translate(-28.69 -6.5)"/><path d="M291.78,315.56c0-12.5,0-12.5,11.2-13.77,7-.8,7-.8,7,6.53,0,6.44,2.34,12.21,5.85,17.41a6,6,0,0,0,10.44-.84c4.94-10.77,4.6-27.19-10.17-35.17C304,283.16,297.52,272,294.72,258c-2.84-14.2-2-28,.36-41.87a46.42,46.42,0,0,1,7.29-18.19c7.53-11.31,29-10.71,35.13,2.21,4.37,9.14,6.35,18.54,7.49,28.34.11,1,.42,1.94.62,2.91,1.4,6.62,1.34,6.57-5.47,7.75-2.08.35-4,1.48-6.05,2.17-5,1.72-6.85.38-7.37-4.76-.41-4-.57-8.12-3-11.83-1.76-2.72-3.94-3.31-6.74-3.09s-4.15,2-4.74,4.86c-2.37,11.46-.15,16.58,8.25,21.28C328.16,252,335.65,257,339.94,265a69,69,0,0,1,8.28,33.27c0,8.64.79,17.39-.85,25.89-2.21,11.44-4.1,23.18-13.11,31.93-8.25,8-24,7-31-2.12-4.46-5.76-6.73-12.34-8.37-19.4C293.28,327.77,291,321.17,291.78,315.56Z" transform="translate(-28.69 -6.5)"/><path d="M518.2,309.68c1.69-9.66-4-16-12.51-21.18-13.33-8.14-19.86-20.24-21.91-35.87-1.55-11.75-.82-23.17.34-34.7,1.09-10.77,5.44-20.26,14-27.1,7.54-6.06,23.3-1.7,28.6,7.41,4.68,8,6.32,16.93,7.4,26,.35,2.94,1.27,5.8,1.8,8.73.51,2.77-.7,4.61-3.54,4.88a41,41,0,0,0-10.05,2.64c-3.17,1.16-4.88,0-5.56-3.52-.94-4.78-.1-10-3.64-14.22-1.82-2.18-3.67-3.24-6.41-2.62s-4.42,2.34-4.94,5.39c-1.21,7.15-1.77,14.06,5,19,3.34,2.41,7,4.43,10.42,6.66,8.9,5.72,13.77,14,17.13,24,5.34,16,4.1,32.22,2.77,48.25A54.76,54.76,0,0,1,526.66,352c-10.06,13.31-31.75,9.74-38.26-6.12-5-12.28-6.62-25.22-7.41-38.32a5.11,5.11,0,0,1,3.86-5.68c1.88-.59,3.77-1.16,5.7-1.58,7.13-1.54,8.23-.53,8.56,6.71.27,6.06,3.22,11.39,5.44,16.86a6,6,0,0,0,6.56,3.64c2.84-.41,4.62-2.29,5.79-4.92C518.59,318.71,518.21,314.71,518.2,309.68Z" transform="translate(-28.69 -6.5)"/><path d="M605.1,308.31c.82,8.36-.67,19.55-4.18,30.39-3.93,12.11-12.1,22-23.48,21.31-9.79-.57-16.87-5.05-21-14-5.51-11.95-6.71-24.83-8.23-37.65-.47-4,1.36-5.91,4.95-7.35,3.38-1.35,6.87-.74,10.26-1.46,1.76-.38,3.66,1.38,4,3.71.52,3.44,1.51,6.89,1.46,10.32-.07,4.4,2.27,7.61,4.41,10.87,2.48,3.77,7.19,3.07,9.86-.61,7.21-9.93,4-29.64-9.5-35.55-9.13-4-15.27-12.35-19-22.53-5.63-15.23-4.54-30.47-3.11-46a45.61,45.61,0,0,1,8.76-23.73c7.88-10.55,24.46-10.62,32.51-.25,7.18,9.25,8.37,20.28,9.7,31.31.12,1,.13,2,.3,3,1.08,5.95.47,7.76-5.48,7.6-1.71-.05-3.48,1-5.18,1.62-5.23,2-8.63,0-8.78-5.55a21.63,21.63,0,0,0-2.51-10.54,5.91,5.91,0,0,0-6.18-3.23c-2.85.24-4.47,1.67-5.47,4.29-3.46,9.06.79,18.16,10.2,23.06,14.73,7.66,22.57,20.12,24.76,36.52C605.11,291,604.83,298.1,605.1,308.31Z" transform="translate(-28.69 -6.5)"/><path d="M418.2,358.21h-2.5c-7.88,0-9-1.63-6.64-9.14,2.87-9.24,2.27-19,4.16-28.42s2.35-19,3.83-28.42,3.73-19.1,4-28.9c.19-6.76,2.14-13.37,2.58-20.17.77-11.89,4.35-23.42,4.73-35.42.14-4.4,1.79-8.75,2.8-13.11.33-1.4,1.32-2.73,2.69-2.57,5.44.6,10.91-1.15,16.32.45,2.09.62,2.72,1.84,3.08,3.92,2.16,12.54,3.55,25.2,5.55,37.77,1.9,11.87,3.92,23.76,5.4,35.73,1.24,10,2.07,20.18,4.27,29.95s2.42,19.67,4.8,29.35c1.87,7.64,2.4,15.62,3.4,23.47.52,4-1.34,5.87-5.5,5.55a50.15,50.15,0,0,0-8.49,0c-4.95.49-6.63-2.26-6.69-6.49-.09-5.85-1.8-11.42-2.58-17.14-.38-2.8-1.69-3.7-4.21-3.68-3.33,0-6.67,0-10,0-6.9,0-8,.8-9.06,7.6A66.47,66.47,0,0,0,429,350.91c.19,7-.3,7.29-7.3,7.3Zm17.74-73.28c0,9.16,2.81,11.6,9.76,9.39,2.72-.87,3.67-2.24,3.08-5.16a200.52,200.52,0,0,1-4.23-38.09c0-2.27-.63-5.35-3.28-5.35-1.94,0-2.32,2.89-2.2,4.94a92.41,92.41,0,0,1-2.37,26.63A29.9,29.9,0,0,0,435.94,284.93Z" transform="translate(-28.69 -6.5)"/><path d="M377.17,192.46c3.5,0,7,.14,10.5,0,12-.51,15.49,3.53,19.36,14.72,6,17.44,6.29,35.5,4.23,53.85-1,9.05-2.71,17.56-7.08,25.45-3.81,6.86-9.37,10.78-17.69,10.39-7.42-.34-7.43-.06-7.43,7.29,0,16.16-.2,32.33.11,48.49.1,5.07-2.11,6.45-6.43,6.41-2,0-4,0-6,0-8.11,0-8.51-.34-8.51-8.77,0-34.66.37-69.33-.19-104-.25-15.48-.39-30.95-.52-46.43-.06-7.27.13-7.38,7.15-7.39C368.84,192.45,373,192.46,377.17,192.46Zm1,52c0,3.65,0,7.31,0,11,0,2.75-.71,6.09,3.09,6.93s7.45-.09,9.06-4.18c3.83-9.7,3.69-19.44-.88-28.85-1.52-3.14-4.82-4.05-8.18-3.33s-3,3.56-3.07,6C378.15,236.17,378.21,240.32,378.21,244.48Z" transform="translate(-28.69 -6.5)"/><path d="M106,334.67c-1.43-31.1-.93-62.22-.89-93.33,0-4.56-1.88-6.39-6.18-6.35-3.17,0-6.34-.12-9.5,0-3.32.17-5.19-1.3-5.22-4.54q-.15-16.23,0-32.47c0-3.28,2.37-4,5.18-4,12.48,0,25-.11,37.45.07,4.42.06,8.72-1.94,13.3-.21,2,.77,2.92,1.44,3.23,3.59,1.59,11.27.48,22.58.58,33.87,0,2.57-1.64,3.75-4.32,3.66-3.49-.13-7-.08-10.49,0-3.33.07-5.11,1.43-5.09,5.18.13,17.49-.75,35,.26,52.45,1.17,20.14.25,40.25.72,60.37.15,6.64-1.24,7.91-7.74,7.92-12.36,0-11.3,1-11.28-11.28C106,344.66,106,339.66,106,334.67Z" transform="translate(-28.69 -6.5)"/><path d="M635,228.35c1.29,40.59.88,81.19.92,121.78,0,7.16-.2,7.43-7.25,7.32-3.8-.05-8.14,1.35-11.27-.75-3.43-2.29-1.06-6.77-1.48-10.25a136.17,136.17,0,0,1-.89-16.16q-.1-57.45,0-114.89c0-6-1.26-11.85-1-17.87.15-4.6,1.74-6.72,6.47-6.62,16.94.37,14.39-2.46,14.57,14.46C635.08,213,635,220.69,635,228.35Z" transform="translate(-28.69 -6.5)"/><path d="M223.12,881c-.59-5.31.44-10-1-14.72-.72-2.33,3.8-2.43,4-5.65.25-4.7,3.06-9.12,1.55-14.12-.61-2,1.59-3.16,2.19-4.82a62.16,62.16,0,0,0,3.4-17c.12-1.74-.56-4.06,1.92-4.51,2.31-.42,2.82,1.88,3.71,3.41,3.82,6.5,5.48,13.84,8.1,20.82.73,1.94,1.36,4.53-.88,5.25-2.54.82-2.28-2.27-2.72-3.71a98.56,98.56,0,0,0-7.12-17c-1,7.78-6.44,15.13-1,23.42,2.24,3.41,3.22,7.61,5,11.34,1,2.13.35,4-1.26,4.66-2,.81-2-1.61-2.41-2.85a40.61,40.61,0,0,0-5.52-11.74c-3.93,8-3.94,14.64-.22,22,1.5,3,2.86,6,4.39,8.92,1,1.85.45,3.58-1.09,4.3-1.79.82-1.82-1.37-2.41-2.38a39.33,39.33,0,0,1-2.72-5.33C227.59,877.62,226,876.39,223.12,881Z" transform="translate(-28.69 -6.5)"/><path d="M173.15,648.48a99.44,99.44,0,0,0-5.64,28.68,23.12,23.12,0,0,1-.07,2.5c-.22,1.33-.66,3-2.1,3-2,0-1.23-2.06-1.21-3.15.14-9.51,3.2-18.58,4.43-27.93.81-6.22,3-12.24,2.43-18.65-.28-3.21,1.69-5.08,5.46-7.3-2.08,12.47-.88,23.8,2.84,36,2-9.29,3.82-17.51,4.23-26,.08-1.7-.6-5.5,2.09-5.19,2.31.27,1.17,3.67.85,5.61-1.89,11.26-3.94,22.49-4.94,33.88-.16,1.72-.34,3.44.38,4.86,2.35,4.7-1.77,7.09-3.43,10.35a1,1,0,0,1-1.68.23,3,3,0,0,1-.65-3.23,29.23,29.23,0,0,0,.64-14.77C175.5,661.05,174.35,654.76,173.15,648.48Z" transform="translate(-28.69 -6.5)"/><path d="M202.39,562.43c-3.83,8.16-4.46,17.27-9,26.21-1.44-4.9.75-8,1.58-11.3,3.25-12.65,6.74-25.23,10-37.87.71-2.75,2.3-5.11,4.57-5.93,2.63-.94,3.73,2,5,3.9,7.67,11,5.53,24.45-5.2,31.6a3.86,3.86,0,0,0-1.79,3.74c0,6,0,12,.15,18,0,1.59,1.11,3.77-1.37,4-2.74.21-2.24-2.35-2.25-4.06-.06-7.65,0-15.3,0-23C204,566,204.61,564,202.39,562.43ZM216,553.28c0-4.64-2-10.83-3.89-13.21-1.55-1.93-3-2.9-4,.49-1.2,4-2.56,7.88-3.82,11.82-.52,1.6,3.06,11.31,4.32,11.2,4.06-.35,5.39-3.91,6.91-6.93A8.58,8.58,0,0,0,216,553.28Z" transform="translate(-28.69 -6.5)"/><path d="M236.86,587.27c-1.59,1-1.2,3.64-3.26,2.91-1.48-.54-1-2.22-.66-3.53a5.07,5.07,0,0,0-1.1-4.61c-1.42-2-1.84-4.11,1.63-4.58a1.67,1.67,0,0,0,1.54-1.63c1.66-11.11,3.45-22.19,4.92-33.32.48-3.59.45-7.31-1.81-10.59a2.36,2.36,0,0,1,.71-3.51,2.43,2.43,0,0,1,3.21.34c3.1,4,8.36,5.42,11.17,9.74.81,1.25,2.27,2.13.87,3.77-1.59,1.85-2.58.19-3.68-.68-.26-.2-.45-.48-.71-.7-1.84-1.61-3.66-4.53-6.07-3.63s-.83,4.15-1.12,6.34c-.37,2.79.05,5.82-.89,8.38-1.67,4.55.58,6.79,3.89,8.87a15.2,15.2,0,0,1,5.83,6,2.43,2.43,0,0,1-.42,3.19c-1.29,1.08-2.08-.08-2.89-.9-2.3-2.31-4.69-6.59-7.49-5.58s-1.7,5.92-2.5,9.08c-1.31,5.13-1.2,9.76,3,13.57a4,4,0,0,1,.86,1.22c1.15,2.45,4.08,5.84,1.6,7.43s-2.7-3.18-4.45-4.69A17.41,17.41,0,0,1,236.86,587.27Z" transform="translate(-28.69 -6.5)"/><path d="M54.43,761.31c-1.2-6.16.91-12.26,1-18.4.1-4.78.91-9.54,1.31-14.32.12-1.46.19-3-1.16-4.13-2.38-2.08-2.24-3.57.87-5.05,2.28-1.08,1.6-3.74,1.76-5.86.25-3.33-1-6.93,1.78-10.35,2.36,3.75,1.49,7.76.66,10.76-1.8,6.51.47,10.86,5.4,15a23.89,23.89,0,0,0,1.46-8.05c.1-4.15.43-8.28.71-12.42.08-1.28,0-3.11,1.86-2.82,1.48.24.91,2,.78,3-1.49,11.49-1.26,23.13-3.13,34.59C67,748.15,66.53,753.1,66,758c-.14,1.26-.44,2.26-2.47,2.74-.69-4.79.63-9.37,1-13.93.49-5.47,1.57-10.93-2.56-15.61-.62-.7-.89-2-2.17-1.62-1.1.31-1.35,1.48-1.43,2.42-.36,4.62-.57,9.26-.9,13.88-.37,5.21-.8,10.42-1.21,15.63Z" transform="translate(-28.69 -6.5)"/><path d="M29.32,659.29c-1.61-6.46.31-11.72,1.08-16.94C32,631.6,34.12,620.92,36,610.21c.58-3.32,3.89-4.55,7.28-2.63,4.86,2.76,8,10.81,6.4,17.06-1.29,5-2.74,9.82-5.56,14.29-2.11,3.35-1.15,7.46-.52,11.13.78,4.5.22,9,.47,13.42.07,1.14,0,2.74-1.49,2.64-1.2-.08-1.55-1.59-1.56-2.81,0-4-.28-8,0-12,.28-3.72-1.05-7.19-1.1-10.84,0-2.56-2.1-3.22-4.16-3.35-2.46-.16-2.24,2.11-2.46,3.5-.67,4.25-1.14,8.54-1.48,12.83A8.42,8.42,0,0,1,29.32,659.29Zm18.15-36.85c-.85-3.47-.76-7.45-4-10.19-2.66-2.21-4.58-2.5-5.31,1.63-.86,4.88-1.62,9.79-2.82,14.59-.78,3.13.88,4.47,3.17,5.21,2.13.7,4.47,1.25,6-1.62A35.31,35.31,0,0,0,47.47,622.44Z" transform="translate(-28.69 -6.5)"/><path d="M168,842.42c-2.77,3.73-4.22,7.94-6.09,12s-2.46,8.38-6.17,11.27c.07-4.19,1.47-8,3.1-11.64,1.88-4.24,3.92-8.42,5.9-12.63.21-.44.75-1,.63-1.3-2-5.37,3.64-7.54,4.83-11.62a129.7,129.7,0,0,1,5.09-13c.49-1.17.9-2.89,2.56-2.6,1.87.32,1.27,2.17,1.13,3.3-1.61,13.44-3.24,26.88-5.1,40.28a20,20,0,0,1-3.53,8.69c-.45.62-.61,1.74-1.69,1.4s-1.27-1.5-.91-2.47c.57-1.54,1.45-3,2-4.53C171.75,853.74,173.81,847.86,168,842.42Zm4.78-2.33c.41-3.94,2.16-7.35.44-12C172,832.56,168.78,835.87,172.78,840.09Z" transform="translate(-28.69 -6.5)"/><path d="M216.42,639.69c-.92-.79-1.76-1.53-2.62-2.24-5.09-4.18-9.82-3.09-13,2.62-6.07,11-3.67,21.4,1.78,31.67,1.27,2.4,3.27,3.91,6.11,3.16a6,6,0,0,0,4.4-5.47c.65-5.39-.2-10.3-5.37-13.43-1.15-.7-2.3-1.5-2.56-2.89a3.52,3.52,0,0,1,.44-2.31c.46-.76,1.41-.72,2.25-.44,4.71,1.52,10.59,10.75,9.49,15.7a32.4,32.4,0,0,1-3.78,9.65c-3.1,5.09-9.07,5-12.64.14-7.77-10.52-8.12-30-.73-40.43a10.31,10.31,0,0,1,14.1-3C216.77,633.91,217.5,636.25,216.42,639.69Z" transform="translate(-28.69 -6.5)"/><path d="M77.35,825.22a55.89,55.89,0,0,1-4.26,16c-1.09,2.41-3.34,4.72-1,7.75.79,1-.44,2.95-1.25,2.67-3.79-1.3-5.25,1.6-7.28,3.52-1,.91-2.13,1.38-3.05.38s.34-1.79,1-2.35c3.53-3,3-5.28.76-9.52-5.91-11.11-7.1-23-.39-34.53,1.29-2.23,2.89-4.93,5.83-4.8s3.66,3,4.91,5.13A35.49,35.49,0,0,1,77.35,825.22Zm-3.29-.51c-1.26-4.42-2-9.35-4.92-13.6-2.08-3-3.44-2.17-5.1.29-2.64,3.89-3.36,8.45-3.44,12.81-.12,6.17.1,12.57,4.38,17.79,1.53,1.86,2.64,2.57,4.19-.34A47,47,0,0,0,74.06,824.71Z" transform="translate(-28.69 -6.5)"/><path d="M118.22,676C115,670,120,665.65,121,660.54q3.11-16.31,6.32-32.58c.28-1.4,0-3.38,1.83-3.77s3.12.82,4.44,2.27c11.63,12.8,11.17,31.81-1.25,43.75-2.66,2.55-5.49,5.08-9.63,3.22C120,672.23,119.94,675.72,118.22,676Zm20.71-26.59c-.28-6.77-2-12.35-5.84-17.22-.73-.93-1.34-2-2.65-2-2,.11-1.51,2-1.74,3.09-2.22,10.49-4.29,21-6.4,31.54-.29,1.43-.91,2.88.92,3.91a4.42,4.42,0,0,0,5.05.08C135.8,664.17,138.31,656.92,138.93,649.37Z" transform="translate(-28.69 -6.5)"/><path d="M115.22,722.14c-1.54-5.17-4.5-7.27-8.51-7.87-3.51-.53-5.87.54-5.79,4.68.12,5.71-1,11.54,5.31,15.42,5.32,3.28,5.23,9.45,5.79,14.87.69,6.69-4.25,14.51-10.22,17.44a9.49,9.49,0,0,1-5.33.71,2.32,2.32,0,0,1-2.37-2.6c0-1.83,1-2.3,2.53-2.19,6,.42,9.89-2.59,11.81-7.9a13,13,0,0,0-3.91-14.56c-8.4-7.5-7.33-16.76-6-26.23a5,5,0,0,1,1.15-2.18c2.45-3.18,7.65-3.54,12.31-.91C116.79,713.56,117.61,715.75,115.22,722.14Z" transform="translate(-28.69 -6.5)"/><path d="M105.17,616.05c-1.45,20.45-3.19,40.87-4,61.35A2.27,2.27,0,0,1,99,679.73c-3.66-9.52,4-20.38-3.21-30.4-2.89,6.61-5.39,12.34-5.79,18.74-.08,1.3-.28,3.15-1.77,3-1.93-.14-1.09-1.87-1-3.16a52,52,0,0,1,4-14.77c1.07-2.6,3.18-5.27,1-8.4a1.56,1.56,0,0,1,.86-2.45c4-.81,3.57-4.22,4.41-7,2-6.55,4.06-13.08,6.1-19.61Zm-3.79,18.49a16.09,16.09,0,0,0-3.72,9.89c-.06,1.05.14,2.6,1.66,2.62s1.59-1.39,1.61-2.56C101,641.22,100.62,637.91,101.38,634.54Z" transform="translate(-28.69 -6.5)"/><path d="M227.5,741.4c-1.74-2.69-3.16-5.55-5.18-7.89-3-3.42-5.57-2.6-7.52,1.44-2.68,5.54-1,10.13,1.93,14.94,4,6.47,6.68,13.37,4.28,21.23a22.24,22.24,0,0,1-10.57,13.2,5.81,5.81,0,0,1-4.83.32c-1.41-.46-1.91-1.87-2-3.2-.16-2,1.53-1.29,2.51-1.39,6.9-.69,10.75-4.15,11.85-11,.82-5.1,0-9.78-3.69-13.81-5.16-5.69-5.07-20.91,0-26.59,3-3.4,6.09-3.51,9.44-.34C227.85,732.23,229.51,737.77,227.5,741.4Z" transform="translate(-28.69 -6.5)"/><path d="M104.91,832.86a17.18,17.18,0,0,1-2.34,11c-.17.29-.44.62-.4.9,1.18,9.58-7.36,7.53-12,10.07a1.67,1.67,0,0,1-2.53-.69c-.52-1,.4-1.54,1.13-1.8,3.12-1.11,2.28-3,1.23-5.15-5.28-10.53-5.76-21.46-2.35-32.6,1.23-4,3.08-8.74,7.81-8.37s6.64,4.82,7.16,9.49C103.21,821.47,105.62,827,104.91,832.86Zm-16.76-6.11c.2,4.46.21,8.88,1.92,12.82,1.23,2.83,1.51,7.78,5.32,7.52,4.09-.29,5.65-4.84,6.31-8.57,1.57-8.88-.64-17.39-4-25.49-1.6-3.81-4.29-2.27-6.14.15C88.41,817.22,88.53,822.14,88.15,826.75Z" transform="translate(-28.69 -6.5)"/><path d="M60.34,647.54c-1.43,3.2-1.53,7-2.1,10.71a6.56,6.56,0,0,0,2,5.86A24.25,24.25,0,0,1,63.59,669c.66,1.18,1,3-.05,3.72-1.54,1-2.07-1.08-3-1.84-1.75-1.41-2.14-5.53-5.92-2.92-.16.1-.78-.46-1.18-.72,2.21-2.86-3.06-6.27,1.34-9.68,3.07-2.38,2.6-7.81,2.47-11.74C57,639.11,59.6,633,60.28,626.51c.33-3.11,2.43-6.36-2.17-8.17-1-.39-.72-1.87-.14-2.7.8-1.16,2.1-1.95,3.43-1.12,5.14,3.19,9.66,7.05,12.39,12.61a2,2,0,0,1-.82,2.62c-1.2.79-1.68-.18-2.29-1-1.78-2.5-3.36-6.69-6.54-5.73-2.08.63-1.23,5.35-2,8.16-1.76,6.57-1.35,12.4,5,16.51a9.3,9.3,0,0,1,1.9,2.28c1.14,1.47,2.45,3.3.49,4.68s-2.15-1.36-3.19-2.17C64.38,650.93,62.48,649.3,60.34,647.54Z" transform="translate(-28.69 -6.5)"/><path d="M159.07,554.06c-.4,7.39,0,14.93-5.48,21.09-2.32,2.63.4,4.21,2,5.64,1.33,1.22,2.87,2.38,1.38,4-1.88,2.06-2.89-.49-3.83-1.45-2.14-2.21-3.67-4.84-7.52-4.73-1.66.05-2.9-2.16-.78-3.56,2.45-1.63,1.41-2.81.5-4.82-5.3-11.75-6.71-23.56.6-35.14,1.54-2.45,3.23-4.81,6.65-4.14,3.13.61,4.14,3.43,4.63,5.84C158.35,542.48,159.48,548.19,159.07,554.06Zm-2.3,0a44.68,44.68,0,0,0-1.59-14.89c-.69-2.26-2-4.06-4.23-4.3-2-.22-2.86,1.85-3.86,3.41-7.43,11.5-3.39,22.22,2.21,32.8,1.52,2.88,3.23,1.52,4.45-.36C157,565.74,156.87,560.05,156.77,554.09Z" transform="translate(-28.69 -6.5)"/><path d="M349.09,855.29c-.32-4.69-.86-8.76-5.76-11.74C333,837.24,330.9,827,336.44,816.13c1.82-3.56,2.29-7.76,3.45-11.64,1.47-4.86,5.51-6.85,8.64-9.9a1.28,1.28,0,0,1,2.12.25c.43.81,0,1.52-.75,2.13-8.78,7.48-10.43,18.24-12.6,28.55-1.88,8.9,2.16,14.65,10.81,17.33,5.75,1.79,8.94,6.12,8,11.75a5,5,0,0,1-5.22,4.45C347.43,859.09,349,856.87,349.09,855.29Z" transform="translate(-28.69 -6.5)"/><path d="M56.3,587.24c-2.43-6.73-.42-13.37-.22-20,.17-5.49,1.75-10.69.57-16.56-.59-3,1.29-7.73,1.92-11.72.47-2.94,1.33-5.88-.91-8.53-1-1.15-.53-2.23.48-3a2.15,2.15,0,0,1,3.14.2,62.78,62.78,0,0,1,9.41,13.94,2,2,0,0,1-1,2.93c-1.32.47-1.44-1-2-1.7-1.58-2.25-2.77-4.81-5.5-7-1.64,7.52-3.1,14.26,3,20.16a29.48,29.48,0,0,1,4.5,6.51c.57,1,.7,2.57-.3,3.25-1.29.88-1.93-.49-2.65-1.43-2-2.69-3.87-5.6-7.12-8.23C58,566.79,58,577.11,56.3,587.24Z" transform="translate(-28.69 -6.5)"/><path d="M769.91,579.85c-5.28,2.17-9.88,4.77-16.68,3-10.7-2.73-20.76-7.6-31.85-9-2.77-.36-5-3.34-8.28-3.63a1.82,1.82,0,0,1-1.08-1.39c0-1,.94-1.36,1.81-1.19,1.29.25,2.95.29,3.75,1.11,3.71,3.77,8,2.65,12,1.28a6.92,6.92,0,0,1,6.56.6c9.6,7,20.5,8,31.8,7.62a12,12,0,0,1,1.78.21Z" transform="translate(-28.69 -6.5)"/><path d="M192.78,540.74c.68,6.1-2,10.54-2.83,15.33-1.29,7.7-3.07,15.24-7,22.14-2.67,4.7-6,5.18-9.12.79A20.48,20.48,0,0,1,170,567.88c-.6-11.51,1.64-22.75,3.19-34,.17-1.25-.1-3.17,1.81-2.85s1,2.24.88,3.33c-1,9.36-3.3,18.57-3.34,28a31.4,31.4,0,0,0,1.85,11.22c.73,2,1.83,4.44,4.28,4.23,2-.17,3-2.38,3.77-4.28,3.42-8.15,4.83-16.83,6.68-25.4C189.61,545.76,189.91,543.3,192.78,540.74Z" transform="translate(-28.69 -6.5)"/><path d="M187,715.17c2.51.59,3.31,3.37,5.4,4.76,4.31,2.86,7.06,7.23,9.95,11.42,1,1.47,1.54,3.38-.15,4.46s-2.3-1-3.28-2c-1.79-1.84-2.55-6-5.2-5.27-2.32.64-1.54,4.63-1.85,7.14-1.53,12.66-2.9,25.34-4.31,38-.18,1.6.1,3.95-2.38,3.32-1.86-.47-.78-2.39-.6-3.83,1.55-12.64,3-25.29,4.52-37.94.13-1.15.29-2.3.53-3.43.89-4.25,1.16-8.23-3.25-11-1.36-.85-2.62-2.22-1.9-4.2A2.21,2.21,0,0,1,187,715.17Z" transform="translate(-28.69 -6.5)"/><path d="M198.19,833.65c.09-2.77-2.23-3.9-3.8-5.51s-3.1-2.9-1.14-5,2.68.65,4,1.12c7.49,2.63,9.18,10.36,13.8,15.5,1.73,1.93,1.76,4.08-.17,5s-2.06-1.78-3-2.93c-1.85-2.26-3.21-6.43-5.93-6.08-2.95.39-2.57,4.74-3.24,7.45-2,8.18-2.31,16.71-5.2,24.69-.95,2.64-2.25,5.16-3.44,7.71-.45,1-1.21,1.81-2.32,1.21s-.77-1.73-.27-2.61c6.88-12.3,6.15-26.63,10.53-39.59A6.19,6.19,0,0,0,198.19,833.65Z" transform="translate(-28.69 -6.5)"/><path d="M49.09,800.72c-.23.81.37,2.1-.93,2.47s-1.7-.67-2.24-1.53c-1.38-2.16-2.4-6.17-4.76-5.52s-1.74,4.77-2.22,7.46c-1.67,9.48-1,19.2-3,28.62a29,29,0,0,1-.89,3.32c-.28.8-.86,1.58-1.8,1.39-1.34-.27-1.16-1.36-.95-2.37,2.67-12.8,2.9-25.91,5-38.77.63-4-.42-6.62-3.89-8.07-1.94-.8-2.57-1.84-2.36-3.71.08-.79-.09-1.74,1-2,1.75-.44,2.82.7,3.84,1.79,3.95,4.23,8.82,7.59,11.8,12.71C48.36,797.79,49.23,799,49.09,800.72Z" transform="translate(-28.69 -6.5)"/><path d="M42.72,702.9c-1.37,16.7-2,33.19-5.27,49.42-1.26-4.88.11-9.76.32-14.62.47-10.74,2.35-21.38,2.27-32.17,0-5.72-1.72-8.07-7.17-9.45-1.26-.32-2.78.15-2.79-1.89a4.42,4.42,0,0,1,1.23-3.66c1.28-1.07,2.45-.25,3.57.57,5.32,3.88,11.53,6.57,15.55,12.16,1.22,1.69,2.14,3.55.62,4.84s-2.27-1.07-3.25-2C46.49,704.93,45.43,703.37,42.72,702.9Z" transform="translate(-28.69 -6.5)"/><path d="M144,808.52c-.07,5.66-1.87,11-3.58,16.24-2.12,6.5-3.21,13.19-4.35,19.86-1,5.92,2.25,9.92,9.38,12.41,1.49.52,4.36.12,3.38,3-.86,2.53-3.17,1.78-5.12,1.31-3.78-.93-6.15-5.58-11-4-.82.27-.8-2.25-.82-3.5-.12-6.7,1.86-13,3.29-19.49,1.61-7.25,3.23-14.5,5-21.7C140.6,811,140.74,808.51,144,808.52Z" transform="translate(-28.69 -6.5)"/><path d="M114,585.69c1.33-10.68,4.3-19.79,4.38-29.34.07-9.26-3.6-18.18-2.2-27.55,1.84,6.75,2.48,13.72,5.46,20.76a92.38,92.38,0,0,0,7.14-14.28c.41-1,.17-3.27,2.23-2.32,1.43.65.85,2.31.34,3.56a110.87,110.87,0,0,1-5.55,12.22c-5.23,9.29-5.48,20-8.27,30C116.93,580.72,117.24,583.05,114,585.69Z" transform="translate(-28.69 -6.5)"/><path d="M308.69,821.11c.94,5.78-2.83,8.8-4.19,12.6-4.21,11.8-7.56,23.54-5.45,36.23.34,2,1.81,2.61,3,3.69.81.73,2,1.7.69,2.83-.73.63-2.29.62-2.66-.31-1.22-3.09-4.54-5-4.24-9.06.44-6-.18-12,.07-17.94.24-5.8,2.56-11,5.39-16.07C303.4,829.31,305,825.28,308.69,821.11Z" transform="translate(-28.69 -6.5)"/><path d="M160.45,778.05c-1.36-7.55.13-14.58.65-21.6.83-11.22,2-22.42,3-33.62a15.85,15.85,0,0,1,.5-3.4,2.39,2.39,0,0,1,1.53-1.12c.82-.24,1.27.6,1.25,1.15-.07,2.34,1.62,4.51-.39,7.09-2.43,3.11-1.37,7.41-1.76,11.08-1.25,11.66-2.75,23.34-2.73,35.11C162.49,774.47,162.89,776.44,160.45,778.05Z" transform="translate(-28.69 -6.5)"/><path d="M38.27,589.43c-3.72-6.34.34-47.79,4.67-54.12C41.32,554.09,39.79,571.76,38.27,589.43Z" transform="translate(-28.69 -6.5)"/><path d="M84.8,711.12c-3,18.87-2.91,38-5.45,57C76.62,763.28,81,716.72,84.8,711.12Z" transform="translate(-28.69 -6.5)"/><path d="M162.61,625.53c2.8,4.93.06,9.45-1.16,13.54-3.65,12.27-7.2,24.45-6.5,37.45.06,1.12.08,2.37-1.48,3.23-2.54-3.11-1.76-6.74-1.41-10.15,1.26-12.58,5.76-24.45,8.31-36.75C160.86,630.52,160.38,627.77,162.61,625.53Z" transform="translate(-28.69 -6.5)"/><path d="M647.31,874.72c4.66,2,1.65,6.14,2,9.07.21,1.67-2.48,4.93-6.13,4.49-1.41-.16-2.9.52-4.36.67a2.46,2.46,0,0,1-2.64-1c-.7-1.24.14-2.25.77-3.18.78-1.17,1.71-.64,2.48.09,2.14,2,3.19.55,4.13-1.25,1.52-2.9,3.48-5.61,3.86-9A1.36,1.36,0,0,1,647.31,874.72Z" transform="translate(-28.69 -6.5)"/><path d="M612.09,830.59a26.27,26.27,0,0,0,0,7.68c.14,1.69-.55,3.62-2.43,3.59-1.59,0-1.38-2-1.4-3.24,0-2.65-.13-5.3,0-7.93.11-1.59,1.56-2.18,2.89-2.11C612.83,828.66,612,830,612.09,830.59Z" transform="translate(-28.69 -6.5)"/><path d="M293.21,895c-4-.41-6.6-5.92-4.52-9.52a1.85,1.85,0,0,1,2-1.06,2,2,0,0,1,1.65,2.18c-.16,2.38.93,4.06,2.56,5.62a2.64,2.64,0,0,1,.8,2.14C295.31,895.45,294.05,894.83,293.21,895Z" transform="translate(-28.69 -6.5)"/><path d="M304.38,885.23c.18,3.34,6.68,1.43,4.86,6.16a3.37,3.37,0,0,1-5,1.52C301.51,890.8,304.36,888,304.38,885.23Z" transform="translate(-28.69 -6.5)"/><path d="M342.1,854.83c1.18,1.63,2.16,2.56,2.61,3.71s3.47,1.08,2,3.14c-1,1.38-2.78,1.7-4.5,1.41s-3.47-.71-6.05-1.25C339.63,860.31,342.67,859.24,342.1,854.83Z" transform="translate(-28.69 -6.5)"/><path d="M311.59,886.41c-1.51-2.88-2.63-5.75-5.91-6.47-.29-.06-.67-1.31-.45-1.64a2.2,2.2,0,0,1,1.72-.6C309.74,877.88,312.61,882.83,311.59,886.41Z" transform="translate(-28.69 -6.5)"/><path d="M321.56,850.58c1.2,2.5.42,5.78,4,6.86.26.08.48,1.29.25,1.74-.48,1-1.26.51-2.07.15C319.11,857.31,321.71,853.59,321.56,850.58Z" transform="translate(-28.69 -6.5)"/><path d="M615.25,881.72c2.82,5,7.81,5.2,14,5.37-10,2.7-13,1.29-13.86-5.5Z" transform="translate(-28.69 -6.5)"/><path d="M615.39,881.59c-4.19-.44-4.85-3.05-1.95-7.91,1.4,2.53,1.54,5.31,1.8,8.05Z" transform="translate(-28.69 -6.5)"/><path d="M388.6,767.63c-3.25,2.21-5.76,3.85-9,4.17C382.2,770.14,383,765.35,388.6,767.63Z" transform="translate(-28.69 -6.5)"/></g></g></svg>