<svg xmlns="http://www.w3.org/2000/svg" viewBox="0 0 848.23 878.97"><title>vacation</title><g id="Layer_2" data-name="Layer 2"><g id="Layer_1-2" data-name="Layer 1"><path d="M643,1c-1,16.11,2.44,32,2,48.16-.36,11.59-1.23,23.21-2.33,34.65-1.08,11.27-.5,22.88-3.35,33.81-2.2,8.43-3,17-4.75,25.5-1.92,9.32-4.15,18.58-6.17,27.88-2.61,12-6.43,23.65-10.5,35.29-4.27,12.22-7.45,24.9-12.94,36.65-5.15,11-9.72,22.26-15.72,32.89-6.49,11.47-12.36,23.23-19.83,34.19-2.76,4.05-5.91,7.93-8.38,12.18-6.86,11.81-15.59,22.23-24.49,32.43a162.44,162.44,0,0,1-16.83,17.29c-3.76,3.19-6.69,7.21-10.45,10.53-8.1,7.15-16.2,14.22-24.94,20.61-4.64,3.39-9.11,7-14.18,9.74-2.64,1.45-4.37,11.5-2.49,14.22,3.06,4.47,3.71,9.28,4,14.59.41,8,2.47,16,2.79,24,.32,7.79,3.39,15.23,2.48,23.1-.58,5.07,1.38,9.61,2.43,14.34l1.27.08c.84-4.88,1.81-9.75,2.5-14.65,1.23-8.8,2.09-17.63,4.16-26.34,2.25-9.45,5-18.93,5-28.75,0-5.62,3.68-8.38,7.5-10.91,2.83-1.88,6.13.2,6.39,3.66.19,2.65,0,5.33,0,8,0,3.53.66,6.67,4.82,7.66,2.35.56,2.36,2.54,2.37,4.39,0,4.33.09,8.67,0,13-.12,4,0,7.95,2.51,11.46,1.74,2.48,1.06,5.47,1.24,8.28.08,1.23-.66,3.13,1,3.48,1.95.42,1.36-1.75,1.92-2.78,1.65-3.07,1.7-6.36,1.64-9.71a124.28,124.28,0,0,1,3.5-30.48c.51-2.22.25-4.64.21-7-.09-5,3.47-8.21,7-9.47,3-1.07,5.77,2.87,7.45,5.8.85,1.49.81,3.51,1.06,5.31.77,5.42-1.23,10.58-2.28,15.67-1.7,8.29-1.42,16.74-3.16,25-.62,3-3.42,5.93-.95,9.78,4.07-4.35,4.35-9.72,5.38-14.75,1.75-8.56,3.37-17.14,5-25.72a27.27,27.27,0,0,0,.48-4.93c0-5.06,3.7-7.88,7.17-10.09,2.61-1.66,4.15,2.36,5.46,3.87,2.45,2.78,4,2.88,6.35.42,1.11-1.15,2.92-2.12,4-1,4,4.14,9.14,3,13.66,2.52,8.38-.87,10.38,4.35,11.8,11.51.32,1.61,0,3.33.07,5,.15,2.82.7,5.06,4.5,3.7,2.51-.9,4.1.09,4.56,2.92.52,3.25,2.29,6.25,1.89,9.72a2.48,2.48,0,0,0,1.7,2.76c5.37,1.94,6.76,6.61,7.23,11.44.77,7.82,4.27,14.89,5.73,22.51a1.89,1.89,0,0,0,1.29,1.23c1.2.11,1.56-1,2-1.88,3.51-6.33,5.18-13.31,6.52-20.28,1.25-6.43,9.52-13.89,16-12.76,5,.87,7.46-3.46,11.35-4.78.72-.24,1.37-1.53,1.88-1.43,7.79,1.53,14.39-4.05,22-3.57,3,.2,6.36.82,9-1.68,1.42-1.32,2.34-.34,3.11,1a12.66,12.66,0,0,1,1.48,8.22c-.86,6.92-8.68,10.87-14.41,7.39-4.55-2.77-9.74-.71-11.08,4.24q-5.84,21.58-11.88,43.12a19.53,19.53,0,0,0-.83,5.39c0,8.81-1.84,17.36-3.52,26-.9,4.53-3.21,7.69-7.89,8-5.42.37-6.1-4.72-7.33-8.12a18.31,18.31,0,0,1,0-11.34c3.35-10.77,4.63-22.06,8.5-32.68a196.18,196.18,0,0,0,7.65-24.64c.28-1.23,1.36-2.61-.08-3.64s-2.21.65-3.33,1.14c-8.76,3.82-9.5,11.91-10.58,19.71-1.09,8-4.84,14.75-8.81,21.46a13.11,13.11,0,0,0-2.07,8.56c.7,5.33-1.93,9.32-5.23,12.94-1,1.14-2.08,2-2.2,3.68-.09,1.38-.48,2.73-2.14,2.93s-2.13-1.38-2.79-2.45a35.86,35.86,0,0,1-5.1-15.93,27.94,27.94,0,0,0-2.37-9.58c-3.6-7.41-5-15.42-7.37-23.19-.39-1.34-.3-3.41-2-3.66s-2.14,1.83-2.82,3c-3.49,6.16-4.87,13.08-6.08,19.87-.8,4.53-2.25,8.93-2.41,13.67-.14,4-4,6.36-7.07,8.51a3,3,0,0,1-4.29-1.28c-.82-1.45-1.61-2.92-2.44-4.36-.65-1.14-1.11-2.85-2.61-2.7-1.71.18-1,2.26-1.69,3.24-1.52,2.16-1.35,8.09-6.44,3.25-4.26,2.86-9.08-1.14-12.18,0-3.72,1.37-5.8,2.77-8.85-.52-1-1.1-2.32.14-3.44,1-4.45,3.35-8,2.35-10-2.7-1.09-2.68-2.78-2.76-4.5-.8-1.2,1.37-2.25,2.47-4.19,1.62a3.71,3.71,0,0,1-2.08-4.17c.38-3.39-2.47-5.18-3.45-7.77-4.26-11.28-9-22.42-11.41-34.34-.36-1.8-.79-4.21-2.75-4.32-2.22-.11-1.49,2.54-2,4-2.39,6.08-1.37,12.75-3.25,19s-2.1,12.66-2.21,19.13c-.06,3.8-3.18,6.13-6,7.43-2.18,1-4.57-1.85-5.54-3.83-2.1-4.25-4-4.55-6.9-.9-2.11,2.68-3.38,1.7-5.23-.71-3.33-4.33-1.9-9.64-3.74-14.31-2.74-7-6.4-8.49-12.09-3.48-3.38,3-6.07,4.07-8.58-.67-.35-.67-.88-1.08-1.57-.68a3,3,0,0,0-1.2,2.62A99.87,99.87,0,0,1,438.6,536c-.48,1.78-.33,3.73-2.86,4s-4.63.09-5.94-2.51c-.63-1.25-1-3.25-2.9-2.93-1.67.29-.79,2.31-1.42,3.37-1.28,2.15-3.1,4.29-5.33,4.86-2.61.68-3.27-2.34-4.21-4.17-2.35-4.62-3.06-9.67-4.14-14.71-1.9-8.81-.19-18.17-3.83-26.65-1.44.23-2,.91-2.07,1.74-1,11.28-7.88,21.49-5.93,33.37.56,3.41-1.87,6.3-3.61,9.13a2.43,2.43,0,0,1-3.8.88c-5.2-3.25-10.51-18-7.45-23.34,1.55-2.67,3.72-4.7,3.1-8.07-.18-1,0-2.2-1.2-2.5s-1.53,1-2.08,1.73c-.74,1.06-1,3-2.49,2.83-2-.22-1.25-2.4-1.73-3.7-1.14-3.1-3.26-5.84-3.48-9.3a1.82,1.82,0,0,0-1.18-1.32c-1.05-.12-1.39.87-1.34,1.68.28,5.16-2.18,9.65-3.4,14.44a4.39,4.39,0,0,0-.25,2.44c4.07,9.72.44,20.09,2.67,30.13,1.21,5.48-2.26,11.23-7.65,14.66-1.59,1-3.18,1.09-4.51-.39-2.05-2.29-3.36-1.36-4.48.88a14.29,14.29,0,0,1-1.24,2.15c-2.65,3.55-5.52,4-8.73.64-4.71-4.87-9.56-9.68-12.75-15.73-2.88-5.47-7.87-9.36-10.47-15.06-1.14-2.49-.49-5.83-3.37-7.54a1.78,1.78,0,0,0-2.07-.19c.49,6.76,4.41,12.57,6,19.08,1.78,7.22,5.28,13.9,6.87,21.23a20,20,0,0,1,.09,6.26c-.38,4.74-2.71,6.37-7.17,5.85-2.63-.31-3.45.74-3,3.53.7,4.25-.84,7-5,9.59-4,2.51-7.89,6.46-9.11,11.69a22.46,22.46,0,0,1-2,5.59c-1.53,2.85-3,6.12-7,4.92-3.34-1-6.34-3-6.71-7.07-.23-2.49-2-4.18-2.93-6.27-.49-1.07-.88-2.26.27-3.19a2.06,2.06,0,0,1,2.75,0c.95.74,1.64,2.67,3.12,1.1,1.22-1.3.75-3.16.5-4.8s-1.29-3.26-2.88-2.83c-6.29,1.66-5.8-2.29-6.65-6.54-1.26-6.28-3.91-12.28-5.83-18.44-1.33-4.27-2.36-8.64-3.64-12.93-.36-1.22-.83-2.89-2.47-2.71-1.86.2-1.28,2-1.42,3.23a161.62,161.62,0,0,1-9.76,40.37,11.89,11.89,0,0,0-1.08,5.81c1,8.19,1.49,16.48,3.87,24.43,1.39,4.63,6.05,5.23,9.75,6.9.57.26,1.34.07,2,.24,7.12,1.87,7.82,3.63,3.1,9.14-6.2,7.24-8.73,16.35-12.61,24.71-6.6,14.22-12.81,28.64-19.43,42.87-2.78,6-5.94,12.08-4.8,19.27.59,3.81-.23,5.88-5.29,4.12-6.15-2.15-12.8-2.89-19.22-4.29-3.32-.73-4.95-2.91-3.95-6.18,1.56-5.13,1.18-10.13,0-15.23s-1-10.25-1.46-15.35c-1.32-14.7-3-29.38-4-44.13-.65-9.45-.17-19.3-3.77-28.45-.51-1.31-1-2.58.14-3.7,1.29-1.31,2.35-.12,3.54.43,3.93,1.81,8.3.94,12.52,2.41,8.93,3.1,9.23,2.55,7.31,11.32-1.71,7.78.75,15.34,1,23,.05,1.87.78,3.86.76,5.86-.12,10.6,2.58,20.84,3.74,31.7,2.76-1,3-3.57,3.8-5.19,3.29-6.68,6.09-13.61,9-20.48a37.38,37.38,0,0,1,3.16-6.76c4.8-7.07,3.16-14.54.86-21.89-1.11-3.57-4.34-2.48-6.8-2-1.5.28-1.35,1.8-.23,2.67,1.3,1,2.81,1.76,4.19,2.69a5.68,5.68,0,0,1,2.39,7c-1,2.85-1.07,6.79-5,7.34-3.16.44-6.5,1-9.11-2.32-6.81-8.63-4-17.45,7.4-22.5,5.06-2.24,6.06-4.41,4.45-9.7a5.36,5.36,0,0,1-.37-.92c-1.33-13.54-6.72-26.12-9.33-39.35-.16-.77-.26-1.92.17-2.39,3.76-4.09,2.72-8.5,1.28-13.09a8,8,0,0,1,0-4.46c2.76-9.18-2.42-15.72-7.24-22.4a4.2,4.2,0,0,0-3.36-1.89c-2.83-.08-5.6.35-6.28-3.83s-2.19-8.33,2.92-10.74c1.6-.76,1.59-1.83,1.44-3.24a27.29,27.29,0,0,1-.27-5.48c.46-4.52-1.18-6.51-5.92-5.95-1.77.21-4.62.78-4.73-2.15a5.14,5.14,0,0,1,4.58-5.63c7.44-1.22,14.39.77,20.62,4.42a13.78,13.78,0,0,0,7.4,2c8.65.08,15.14,6.25,15.3,15.08.06,3.45,1.65,6,3.2,8.74.52.91,1.21,1.86,2.32,1.26s.92-1.83.55-2.72c-1.75-4.13-2.09-8.73-4.64-12.6-7.78-11.86-8.74-25.13-7.75-38.77a3.94,3.94,0,0,1,1.5-3,52.37,52.37,0,0,0,14.78-17.08c-4-4.33-10.14-3.33-15.21-5.25-7.37-2.78-14.91-5.2-22.33-7.93-7.79-2.85-15-6.82-22.52-10.24-4.54-2.07-8.53-4.88-12.74-7.38-8.43-5-16.94-9.9-24.82-15.67-7.23-5.29-13.84-11.47-20.69-17.28-7.3-6.19-13.58-13.4-20.77-19.7-3.34-2.92-5.83-6.81-8.65-10.31-8.66-10.76-17.81-21.18-25.76-32.44a261.93,261.93,0,0,1-16.21-25.92c-3.21-5.9-6.49-11.81-10-17.57a138.93,138.93,0,0,1-7.65-15.48c-5.25-11.75-11.28-23.2-15.17-35.53C48.29,220.09,43,207.31,40,193.81c-2-8.92-5.35-17.59-6.84-26.57-1.23-7.46-2.94-14.8-4.26-22.23-1.78-10.07-1.31-20.62-3.74-30.27-5.69-22.6-3-45.31-2.85-67.9.07-9.64.27-19.59,1.63-29.21C24.67,12.1,25.29,6.54,26,1h84c-.2,4.83,2.37,9.18,2,14.18-1.42,19.57,1.38,39.06,1.8,58.6a5.67,5.67,0,0,0,.14,1.49c2.58,8.42,1.42,17.4,3.62,25.77,1.41,5.39,1.28,10.78,2.16,16.11,1.49,9,3.29,18,5.15,27,.9,4.37.83,9.05,2,13.12,3.27,11,5.06,22.39,8.36,33.43,5.26,17.6,9.95,35.36,16.81,52.45,4.43,11,8.24,22.32,13.28,33,2.86,6.1,5.66,12.29,8.89,18.24,5.11,9.4,8.95,19.42,14.92,28.46,2.6,3.94,5.7,7.77,7.63,12.06,4.87,10.81,15.23,16.75,22.12,25.77a32.55,32.55,0,0,0,6.89,7c6.9,4.77,12.7,10.88,18.42,16.82a91.27,91.27,0,0,0,22.22,16.87c13.54,7.3,27.13,14.72,41.3,20.92,7.49,3.27,15.07,4.79,22.61,2.16,6.18-2.15,12.58-3.49,18.68-6.06,7.77-3.28,15.73-6.32,22.95-10.51a168.49,168.49,0,0,0,21.35-14q19.17-15.41,37.54-31.69c8.36-7.43,15.69-16.05,23.18-24.36a353.1,353.1,0,0,0,33.75-44.25c2.32-3.56,5-7.12,6.6-11,4-9.53,9.64-18.15,14.14-27.39q9.59-19.66,17.24-40c4.27-11.36,7.66-23.05,11.27-34.65a137.82,137.82,0,0,0,4.81-18.06c1.24-7.43,2.38-15,4.33-22.13,2.65-9.64,4.49-19.45,6.55-29.14,2-9.37,4-18.89,4.36-28.67.16-4.11.43-8.72,1.77-12.62C562.52,59.33,561,48,564.34,37.53,566.29,31.4,565.72,25.15,567,19c1.17-5.73,3.77-11.78,2-18ZM343.53,477.51c2.25,6.64-3.15,13-4.6,20.18a16.57,16.57,0,0,1-4.49,8.5c-3.79,4-2.73,9.87,1.05,14.05s8.55,7.62,10,13.55c.32,1.36,1.45,1.73,2.68,1.79,1.57.09,2.19,1.28,3,2.36,1.18,1.61,1.56,4.73,4.46,3.67,2.31-.84,1.51-3.44,1.54-5.35.24-16.54-1.3-33.15,3.41-49.46a16.83,16.83,0,0,0-.88-12.22,4.12,4.12,0,0,1,.24-3.84c1.67-3.49.67-7.21.86-10.83.1-2-1-2.45-2.85-2.39-4.15.14-8.33.24-12.48,0-4-.2-4.85,1.81-3.5,4.87C343.91,466.92,343.44,471.55,343.53,477.51ZM453,425.06c-.6-.26-.77-.4-.86-.36-10.56,5.37-20.91,11.2-32.24,15-1.91.64-1.91,2.38-1.39,4.2a133.34,133.34,0,0,1,5,25.06c1.15,12.81.68,25.8,2.18,38.66.16,1.4-.65,3.5,1.16,3.92,2.12.48,2.56-1.74,3-3.25,3-10.24,3.51-21,7.61-31.1,2.93-7.17,3.82-15.15,6.67-22.35C448,445.06,449.94,434.89,453,425.06Zm108.27,94v0c2.5,0,5-.18,7.49,0,4.78.43,6.77-1.7,7.67-6.36a77.44,77.44,0,0,1,4.8-16.16c3.82-8.82,6.33-18.05,9.51-27.07a2.61,2.61,0,0,0-.36-2.82c-1-1-1.78-.31-2.5.41-1.76,1.77-3,.66-4.75-.35-6.83-4-13.14-9.58-22.08-7.87-1.84.35-4.13.12-3.87,2.68.32,3-2.27,7,1.86,8.88,1.7.8,3.31,1.48,4.46,2.91,2.74,3.43,6.22,4.61,10.52,4,1.57-.22,3.34-.35,4.44,1.44,3.5,5.73,2.83,15-1.36,20.27-1.36,1.71-3.23,2.64-4.67,1.28-2-1.91-4.74-2.17-6.85-3.8-5.91-4.55-15.06-1.77-17.16,5.24-.71,2.37-1.33,4.77-2,7.15-1.89,6.59,1,10.12,7.86,10.11Zm-258.55-1.75c-1.52,2.2-1.15,4.51-1.06,6.75.21,5-2.17,8.92-5.56,12.25a12.84,12.84,0,0,0-2.8,3.42c-3,6.1,0,22.84,5,27.28,1.92,1.69,3.63,1,5.77-.28,7-4.06,3.9-13,9-17.88.15-.14,0-.65-.07-1C310.34,537.54,305.74,527.79,302.75,517.34Zm-.8-6.81a346.73,346.73,0,0,1-5.19-45.72c-.12-2.25,1.79-6.29-.94-6.43-2.9-.15-2.67,4.25-3.27,6.87a8.76,8.76,0,0,0,0,3c.55,4.49-1.76,7.93-3.82,11.58-1.34,2.37-4.31,1.34-5.72,3.56-3.81,6-6.54,12.14-5.24,19.59.45,2.62,1.85,4.19,3.93,4.42a3.89,3.89,0,0,0,4.19-3.47c.33-2.38.87-4.19,3.81-4.15s5.56-.2,7.09,3.21C297.86,505.43,298.9,508.13,302,510.53Zm98.61-63.67c-5.08,1.32-9.28,4-14.55,4.17-4.39.14-5.25,2.8-3.24,7a13.67,13.67,0,0,1,.88,2.83c2,8.3,5.47,16.19,7,24.64.25,1.36-.29,4,2.17,3.61,1.72-.25,2.06-2.41,2.36-4.06.61-3.26-.19-6.59.64-9.89,1.69-6.69,3.6-13.37,3.32-20.39A14.27,14.27,0,0,1,400.56,446.86ZM256.89,545.74c.73-4.12-1.44-6.75-4.61-8.65-2.39-1.43-4.38-3.5-7.15-4.36-1-.31-1.51-2.13-2.85-1.37s-1,2.41-.84,3.65a65.77,65.77,0,0,0,5.15,18c1.52,3.18,1.19,6.94,3.57,9.71.76.89,1.5,1.88,2.85,1.7a2.14,2.14,0,0,0,1.86-2.55C254.27,556.33,256.52,551.14,256.89,545.74Zm51.5,24.45a2.42,2.42,0,0,0-1.17,2.61c.44,2.36-.32,3.45-2.41,3.67-.53.06-1.06.64-1.46,1.1-3.19,3.6-10,2.32-11.68-2.23-.34-.91-.4-2.09-1.76-1.9-1,.14-1.2,1.13-1.21,1.93-.06,3.14-.32,6.32,1.13,9.3,1.12,2.32,1.93,4.38,4.64,1,1.87-2.34,9.43-1.33,10.55,1,.67,1.36-.07,3.76,2.37,3.76,2.2,0,2.66-2.19,3.71-3.63,1.84-2.51,2.31-5.46,3.07-8.34.23-.86.35-2.2-.35-2.14C309.37,576.68,310.49,572.1,308.39,570.19Zm5.85-88.43h-.05c0,3.48-.06,7,0,10.43,0,1.39-.4,3.48,1.48,3.7,1.71.2,2.24-1.89,2.6-3.18.76-2.7.7-6,2.95-7.72,4.38-3.37,2.61-6.61.4-9.87-1.18-1.74-2.95-3.08-4.36-4.67-.53-.59-.68-1.68-1.72-1.47-1.23.24-1.3,1.39-1.31,2.36C314.22,474.81,314.24,478.29,314.24,481.76ZM368.1,543c-.27-1.41.57-3.53-.89-4.07-1.71-.64-3.51.77-4.77,2-2.39,2.29-3.24,9.24-1.3,10.06,3.07,1.29,4.09-2.08,6-3.3C368.67,546.75,367.88,544.64,368.1,543Zm91.21-70h.1c0-1,.07-2,0-3-.12-1.39.51-3.47-1.45-3.68-1.57-.16-2.42,1.59-2.69,3.08a29.66,29.66,0,0,1-1.79,6.64c-.83,2-.3,3.63,2.08,4.06,2.11.39,3.62-.31,3.76-2.69C459.38,476,459.31,474.54,459.31,473.06Zm-156.93,127c-.39-1.22.24-3.52-1.77-2.81-2.84,1-3.95,3.82-4.37,6.67-.2,1.37.49,3.05,2.09,2.69C301.77,605.85,301.71,602.62,302.38,600.06Zm234.16-81.53c-1.85,3.67-1.65,7.39-.68,11.66C540.8,526.14,538.62,522.34,536.54,518.53Zm-5.62-13.41a5,5,0,0,0-1.25.82c-2.35,3-1.95,6.47-1.41,9.89.14.88,1,.7,1.56.35.76-.44,2.79-9.59,2.26-10.21A7,7,0,0,0,530.92,505.12Z" transform="translate(-21.5 -1)"/><path d="M550,1c-1.78,12.53-3.19,25.13-5.47,37.57-1.66,9.08-2.11,18.35-3.91,27.28-2.63,13-4,26.23-6.42,39.28-2,10.62-4.2,21.27-6.5,31.76-3.45,15.73-7.06,31.5-11.72,47.05-5.8,19.33-13.45,37.83-21.35,56.25-4.52,10.53-10.89,20.26-16.32,30.41C467,291.69,451,309.29,435.83,327.41a202.37,202.37,0,0,1-20.18,20.3c-7.33,6.57-14.72,13.08-22.21,19.45-13.27,11.27-27.2,21.52-44.16,26.83-4.31,1.34-8.27,3.74-12.52,5.26-8.44,3-16.39,5.28-25.53,0-10.07-5.79-20.59-11.06-31.11-16-8.06-3.8-13.57-10.12-20.47-14.95-8.65-6.05-16-13.57-23.64-20.69a195.86,195.86,0,0,1-26.91-31.15c-3.92-5.6-6.35-12.25-9.42-18.44-1.12-2.25-.71-3.61,1.64-5.27,8.42-6,17.13-11.72,24.52-18.81,4.16-4,11.15-6.69,10.49-15,1.58,5.35,5.39,4.74,8.93,4.7,1.8,0,3.46.3,3.45,2.6s-1.52,3-3.36,2.65c-8.15-1.69-12.38,4.7-17.22,8.87-6.33,5.48-11.89,11.7-20.29,14.27a3.67,3.67,0,0,0-2.3,5.27c1.46,3.31,3.2,6.55,4.2,10,1.41,4.86,5.62,7.31,8.51,10.88,1.76,2.17,4.26,3.81,4.9,6.73s2.52,2.88,4.47,1.75c2.71-1.56,5.86-3,7.7-5.32,4.51-5.77,10.88-9.72,14.93-15.89a11.71,11.71,0,0,1,8-5.36c3.08-.48,3-2.43,2.51-4.35-.73-3.05-3-5.43-4.57-8.05-1.25-2.13-3.69.16-5,2a60.2,60.2,0,0,1-18.68,16.68,7.85,7.85,0,0,1-4.14,1.3c-1.1,0-2.43.53-3.12-.86s.25-2.16.93-3.12c3.47-4.89,8.29-8.51,12.62-12.47a87.29,87.29,0,0,0,7.65-7.61c4-4.77,10.21-3.05,14.47-6.4,1.34-1,2.67-1.89,3.26-3.54.42-1.19.67-3.21,2.38-2.15,1.38.85.86,2.83-.24,4a26.49,26.49,0,0,0-5.63,9.26c-.75,2,1.91,11.53,3.68,12.56.34.2,1.12.23,1.3,0,2.63-3.15,6.2-1.81,9.37-1.86,3.49-.06,5.78-2.21,8.32-3.95,6.66-4.57,10.22-4.21,15.84,1.89,3,3.27,6.89,2.31,10.52,2.23,2.48-.06,4.81-.66,7.07,1.21s5.45,1.4,7.67.66c7.5-2.52,15.18-4.82,21.74-9.49a12.06,12.06,0,0,0,3.44-4.2,155.71,155.71,0,0,1,17.23-26c2.12-2.6,3.08-5.87,3.9-9,1.8-6.88,5.76-12.8,8.17-19.39.41-1.14,1.23-2.21,0-3.11s-2.05.28-2.86,1.1c-1.13,1.15-1.9,2.9-3.89,2.78-5.64-.32-6.6,3-6.41,7.69.22,5.48-4.35,9.56-4.73,14.95a1.82,1.82,0,0,1-2.32,1.36c-1.21-.38-1.21-1.56-1.06-2.5a26.91,26.91,0,0,1,1.08-4.31c.84-2.55.85-5-1.07-7-2.68-2.81-1.59-4.92.26-7.84,3.58-5.67,9.39-7.62,14.9-9.89s12.65-11.47,10.09-16.31c-2.65-5-1.09-8.54.18-12.85.53-1.78,1.07-4.49-.65-5.6-2-1.31-2.94,1.42-4.2,2.55a50.25,50.25,0,0,1-15.72,9.92c-1.73.66-3.88.93-4.57-1.46s.67-3.29,2.91-3.58c7.5-1,12.95-5.84,18.75-10,.66-.48,1.3-1.29.79-2.12-.25-.41-1.15-.59-1.76-.59-1.48,0-3.87-.43-4.31.29-3.07,5-8.78,3.86-13.11,5.75a11.4,11.4,0,0,1-11.34-.73c-4-2.66-8-5.09-10.73-9.23-1.17-1.79-2-3.2-1.08-5.45,1.1-2.77.78-6.51,5.7-3.23,2.16,1.44,4.32-1.73,6.43-2.83,7.82-4.11,15.33-9,24.79-8.18,1.61.14,3.32.25,4.73-1,2-1.82,3.55-1.65,4.3,1.22.26,1,.75,2.1,2,1.45,1-.56.5-1.63.35-2.64-.81-5.11-4.54-8.68-6.7-13.06-1.69-3.44-4.85-3.52-8.15-3.38-1.57.07-3.57.59-4.48-1.29-.81-1.69.2-3.18,1.17-4.6s2.72-2.5,1.59-4.32-3.06-.72-4.63-1c-7.14-1.35-14.41-1.92-21.46-4-3.08-.9-6.61-.25-9.92-.47s-7,.93-10.31-.89a1.5,1.5,0,0,0-2.4.78,1.87,1.87,0,0,0,.92,2.55c6.67,3.31,5.67,10.09,7.5,15.73,2.3,7.12.15,15,4.2,21.71.64,1.07,1.11,2.15-.34,3-1.08.6-1.92,0-2.67-.73-1.12-1-2.3-2.3-2.18-3.8.44-5.72-1.91-11.06-2-16.74-.17-8.21-2.6-15.57-10.31-20.18-1.73-1-3.36-2.1-4.92-.65-2.2,2-4.68,1.42-7.09,1.39-1.51,0-3.74,1-4.34-1.16-.52-1.91,1.8-2.1,2.93-2.86,7.5-5.06,15.45-4.42,23.57-1.72a12.7,12.7,0,0,0,3.91.42c6.66,0,13.33,0,20,0,8.24,0,16,2.59,24,4,5.21.91,10,1.45,13.22,6.31,2.13,3.25,3.73,6.58,3.72,10.56,0,9.67,1,19.47-.26,29-1.32,9.92-.38,19.89-1.76,29.61-1.5,10.59-1.7,21.28-3.48,31.77-1.3,7.7-3.92,15.18-6.07,22.73-.41,1.42-1.42,3-3,2.93-7.71-.5-9.82,5.55-12.34,10.69-3.24,6.63-7.18,12.9-9.94,19.82-.95,2.38-4.65,4.37-7.48,5.18-7.34,2.08-12,8-18.13,11.74-7.59,4.61-7.54,4.93-5.54,13.95.54,2.43-1.4,2.17-2.42,3-2.3,1.85-3.94,3.81-1.06,6.54,1.31,1.25,2.74,1.67,3.7-.1,1.78-3.28,4.68-3.3,7.75-3.16,1.33.06,2.67,0,4,0,14.83.57,26.09-6.77,36.65-16.07,4.29-3.77,9.3-6.59,10.54-12.91a27.41,27.41,0,0,0,.93-4.79c.1-3.8.09-7.47,1.49-11.25,1.78-4.8-.37-9.45-2.63-13.76-.77-1.46-1.55-3.14.06-3.89,2-.94,1.48,1.42,2.06,2.39,5.47,9.19,13.38,15.91,22.5,21.13,2.82,1.62,6.66,1.5,9.88,2.14,5.83,1.15,11.5,4.34,17.83,2.93,1.62-.36,3.46,0,4.18-1.94s-1.3-2.06-2.15-2.86c-9.18-8.68-19.17-16.43-28.65-24.74-4.32-3.78-9.18-6.93-13.07-11.21-1.37-1.51-3.11-2.8-5.18-2.56-3.75.44-2.69-1.62-2.28-3.66,1.83-9,6.69-16.78,11.09-24.58,5.08-9,8.16-18.78,12.21-28.16,3.41-7.9,4.56-16.34,6-24.87,1.54-9.35.75-18.51,1.37-27.72.08-1.25.37-3.29-1.26-3.34-2.18-.07-1.62,2.17-1.55,3.48.29,5.62-2.38,10.66-2.8,16.22-2.16-1.88-2-4.37-1.51-6.35,2.65-10.66,1.27-21.48,1.65-32.22.06-1.89-.2-3.31,2.31-4.69,2.75-1.52,1.18-5.29.74-8.1-.17-1.12-1-2.14-1.15-3.25a2.07,2.07,0,0,1,1.83-2.53,1.87,1.87,0,0,1,2.24,1.5c.86,2.82,2.44,5.35,2.13,8.6a116.71,116.71,0,0,0-.06,12c0,1,0,2.15,1.33,2.3,1.06.13,1.15-.89,1.48-1.65,3.49-7.82,7-15.61,10.53-23.42.87-1.94,1-3.92-.37-5.68-2.44-3.16-4.83-6.38-7.53-9.31-2.12-2.3-4.42-3.32-5.77,1-1.1,3.49-5.11,5.33-5.48,9.33,0,.26-.91.73-1.19.61-1.28-.53-2.58-1.59-2.45-2.9.53-5.09-2.5-9.56-2.26-14.6.38-8.21-2.46-15.79-5-23.38-.51-1.52-.22-3-.49-4.39-.22-1.21.51-2.8-1.16-3.47a1.4,1.4,0,0,0-1.24.46,3.53,3.53,0,0,0-.23,3.81c2.16,3.56,1.35,7.45,1.54,11.21.19,3.48.05,7,0,10.49,0,.95.09,2.28-1.28,2.27s-1.4-1.28-1.31-2.27c1-11-3.39-21.44-3.75-32.34-.11-3.62-3.2-7.42,1.67-10.29.47-.27.37-2.4-.13-3.3C392.43,17.75,390.75,6.78,381,1ZM479.9,13.71c0-7.73-4.38-11.14-9.33-7.92-3.14,2-3.93,5.91-4.63,9.45-.29,1.47,0,3.24-2,3.49-4.75.62-6.11,4.52-8.12,7.91-4.79,8.08-9.22,16.43-14.75,24-3.33,4.54-5.71,9.58-8.89,14.17-3.59,5.19-3,5.6-7.24.2-1.52-2-3.06-3.79-3.76-6.35-.49-1.79-2-3.43-3.43-4.8a4.29,4.29,0,0,0-5.54-.39,3.49,3.49,0,0,0-.42,5c3.05,3.57,4.05,8.28,7.36,11.74,7.63,7.95,13.26,17.51,21.62,25,5.42,4.88,11.09,6.13,17.51,6.86.93.1,1.91-.46,2.88-.59,6.13-.82,10.22-5.3,15.14-8.33a19,19,0,0,0,6.84-7.71,57.91,57.91,0,0,0,5.74-36.37c-1-5.85-2.28-11.88-6.18-17-3.45-4.49-6.46-9.36-3.09-15.46A5.82,5.82,0,0,0,479.9,13.71ZM290.54,293.76c-4.87.06-3.94,3.21-3,5.55,1.33,3.32,3.59,6.27,5,9.58s3.52,5.26,6.24,7.37c4.4,3.41,6-1.37,8.8-2.29,3.4-1.09,3-3.18.94-5.19-4-3.9-8-7.75-11.72-11.91C295.33,295.28,293.06,293.4,290.54,293.76Zm68.49-112c6.38,0,12-6.29,11.25-12.51-.09-.82-.12-1.72-1-2a2,2,0,0,0-2.44,1.22,6.23,6.23,0,0,0-.9,3.28c.45,3.64-2.76,4.31-4.7,5.7-2.24,1.61-3.45-.86-4.78-2.23-.68-.71-1.33-1.7-2.47-1.19-1.36.6-1.09,2-.94,3.06C353.52,180.62,355.61,182.25,359,181.75Z" transform="translate(-21.5 -1)"/><path d="M287,1c-3.1,5.65-8,10.08-10.61,16.12a220.16,220.16,0,0,0-7.86,21.13c-3.21,9.9-2.25,20.18-4.74,30.05-1,3.93-.57,8.32-.25,12.45s-1.6,7.41-2.17,11.17c-.34,2.28-3.45,3.63-5.71,4.11a7.2,7.2,0,0,0-5.28,4.07c-5.4,10.69-7.19,21.75-3.56,33.48.86,2.76,3,3.43,4.41,2.43,4-2.91,8.85-1.68,13.1-3.71a23.32,23.32,0,0,0,7.14-5.73c1-1.09,1.91-2.32,3-3.31a1.88,1.88,0,0,1,2.71,0c.92,1,.24,1.84-.68,2.4-1.1.68-3,1.1-2.49,2.63.59,1.82,2.61.57,3.94.94,5,1.36,9.21-2.3,14-2.17,1.29,0,2.94-.46,3.61,1,.82,1.79-1.21,1.94-2,2.8-5.1,5.2-10.15,10.46-15.2,15.7-4.59,4.76-8.39,10.32-14.28,13.76a3.89,3.89,0,0,0-2.1,3.73c.14,1.59,1.75,1.13,2.63,1.69,4.09,2.62,3.52,7.32,4.19,11.19.81,4.64-.82,9.45.14,14.24a133.75,133.75,0,0,1,2.22,24.57c.06,4.95,3.15,6.09,7,2.73s8.88-2.08,13-4.1c.94-.46,1.44.6,1.51,1.46.09,1.21-.08,2.52-1.41,2.88a10,10,0,0,1-3.95.29c-3.58-.53-6.12.88-7.95,3.8-1.25,2-2.89,3.37-5.33,2.9-3.39-.64-6.48-1.93-10.17-.09-1.94,1-4.25-1.63-4.13-3.84s2.15-.77,3.5-.74c3,.07,5.66-1.06,4.65-4.63-3.62-12.76-3.44-25.8-3.37-38.85,0-1.81.33-3.77-1.44-5-.82-.58-1.58,0-2.2.55-2.1,1.91,0,3.42.3,5.21,1.09,6.9,1.41,13.87-2.51,20.22-1.07,1.75-2.84,1.9-4.58,2.5-5.55,1.93-10.88,4.35-17,4.19-2.75-.08-4.65,2.63-7.82,2.5-6.42-.27-10.2-3.19-10.3-10.33-.05-4-2.5-7.2-2.17-11.11a2,2,0,0,0-2.19-2.24c-1.41,0-2,1.21-2.07,2.41a19.81,19.81,0,0,0-.12,5c1.18,7.77,2.17,15.6,3.95,23.24.72,3.1,3.44,5.64,6.28,7.53.81.55,2,.82,1.86,2.06-.15,1.57-1.88,1.1-2.57,1.73-2.92,2.66-8.52,0-10.12,5.32-.36,1.18-1.71.28-2.5-.3-2.46-1.76-4.42-.59-5.28,1.59-4,10.07-11,18-17.67,26.27-1.22,1.51-.45,4.8-2.95,4.57-2.74-.25-2.69-3.45-3.53-5.53-4.51-11-9.74-21.84-13.16-33.2-2.87-9.53-5.65-19.14-8.26-28.77-1.2-4.42-3.36-8.54-4.23-13.13-1.42-7.39-3.26-14.71-4.86-22.07s-3.15-14.66-4.63-22c-.94-4.66-2.15-9.33-2.44-14a82.54,82.54,0,0,0-3.2-18.34c-1.39-4.73-1.28-9.86-1.7-14.65-.62-7.21-1.84-14.35-2.58-21.53-2.36-23-1.44-46.09-1.85-69.14h58c-.62,1.62-.94,3.49-.06,4.86,3,4.64.93,8-2.17,11.49-10.72,12.19-10.43,26.52-6.79,41a44.8,44.8,0,0,0,13.1,21.55c5.62,5.31,12.08,8.62,19.94,8.72a6.55,6.55,0,0,0,3.33-.69c6.44-3.94,12.72-8.06,17.35-14.27a53.51,53.51,0,0,1,5.74-6c6.26-6.09,12.34-12.53,15.48-21,.56-1.5,1-3.54-.76-4.53-1.88-1.07-3.4.06-4.65,1.68-2.34,3-4.7,6.05-7.25,8.9-1.7,1.9-2.63,5.57-5.56,5.08s-.92-4.05-1.83-6c-.07-.15-.06-.34-.15-.48-4.43-6.94-7.34-14.79-11.86-21.6C218.54,20.1,214.45,9.1,206,1ZM210.46,170.76c.32,1.59-.21,3.14,1.33,3.87s2.81,0,3.89-1.27A26.4,26.4,0,0,1,232.56,164c9-.93,17.09-5.79,26.28-5.08a2.77,2.77,0,0,0,2.52-1.37c4.43-6.68,11.82-10.69,15.87-17.7,1.07-1.85,4.07-3.11,2.15-5.92s-3.34.54-5.05.65a6.81,6.81,0,0,1-1,.11c-8.27-.89-15.53,3.44-23.06,5.43-9,2.39-18.33,4.38-26.86,8.32-4.65,2.15-9.84,4.45-10.86,10.54C211.88,163,213.31,167.38,210.46,170.76Zm45.15-83.13c-.34-5.53-2.92-10.35-5.36-15.14-1.73-3.38-4.1-4.8-6.85-.59-.58.89-1.92,1.25-2.83,2-6.35,4.89-7.65,8.78-4.16,15.68,2,4,4.27,7.75,5.75,12,.87,2.51,2.4,1.62,3.68.1,2.24-2.66,4-6,6.83-7.82C255.29,92.07,255.79,90.28,255.61,87.63Z" transform="translate(-21.5 -1)"/><path d="M349,1c.06,24.32,1,48.68-.24,72.93-.53,10-1,20.07-1.34,30.11-.08,2.49-1,3.78-3.58,3.58-3.7-.29-7.43.84-11-1.78-2.39-1.74-5.85-.65-8.81-.53-3.48.15-4.37-1.26-4.74-4.64-1-8.88,2.36-17.31,2-26.15-.47-12.64-1.48-25.5.21-37.92,1.64-12,1.22-23.73,1.49-35.6Z" transform="translate(-21.5 -1)"/><path d="M533.33,767.13c-2.13-3-6.94.52-7.79-3.2-.64-2.83,3-5.17,3.11-8.09.26-5,2.15-9.65,2.06-14.73-.24-13.81-.08-27.63,0-41.45a48.89,48.89,0,0,1,.61-6.94c.68-4.7-2.06-7.27-6.39-5.4a31.43,31.43,0,0,1-7.47,2.26c-3.07.5-4.72,3.32-4.66,6.24s2.83,2.19,4.71,2.15c2.56-.05,4.83.53,5.56,3.19.8,2.91,1.34,6.27-1,8.54-1.89,1.84-4.52,3.26-7.61,2.33-5-1.5-7.05-5.51-7.45-13.6-.22-4.57,1.87-8.7,1.83-13.29s-1.62-6-5.86-5.68c-2.32.19-4.66,0-7,.06-1.91.05-3.46-.54-3.56-2.6-.16-3.39-2.08-4.32-5-3.93-3.24.43-4.73-2.15-6.7-3.76-3.42-2.82-6.26-4.85-11.62-3.55-3.65.89-6.82,1-9.21,4.26-1.28,1.74-1.3,2.77.63,4a12.58,12.58,0,0,0,7.57,1.84c4-.16,8,.09,12,0,2.9,0,5.15,1.23,5.55,4,2,13.92,5.86,27.45,8,41.38,2,12.64,3.68,25.45,7.2,37.85,1.65,5.84.16,7.2-5.94,5.86-4.91-1.08-9.88-1-14.87-1-5.35,0-5-.21-3.66-5.23,1.9-7,.77-14.23.51-21.35-.09-2.49-2.59-2.68-4.22-1.64-3.29,2.11-6.13,1.29-9.38-.11-4.46-1.91-6.73-.49-7,4.23-.37,6.21-2.84,12.36-.45,18.71.73,1.95-.88,3.14-2.82,3.17-6.33.11-12.66.17-19,.11-3.6,0-2.9-2.48-2.21-4.6,1.71-5.21,4-10.19,5.23-15.6,2-9.2,3.92-18.44,7-27.38a5.58,5.58,0,0,0-.47-4.85c-1-1.55-1.64-4.58-4-3.56s.34,2.73.72,4.07c1,3.54-.61,5.71-3.57,6.6s-6.65,1.92-8.91-1.84a7.68,7.68,0,0,1,3.38-10.75c5-2.55,9.74-6.09,15.58-1.87.95.69,1.78-.36,2.11-1.43,1.5-4.9,3.26-9.75,4.42-14.74.76-3.29-.56-5.95-4.49-6.19-2.16-.13-4.33,0-6.5-.06-4.35-.13-5.93-2.46-3.07-5.47,6.54-6.85,9.56-16.37,17.3-22.24a8.51,8.51,0,0,0,2-2.82c1.4-2.57,2.67-4.11,5.64-1.38,2.3,2.12,6.31,1.09,8.48,4.37.9,1.36,2.57-.38,3.54-1.59,1.76-2.18,3.48-1.85,5.52-.15,5.33,4.44,7.05,3.88,9.68-2.31,4.36-10.31,5.59-21.34,7.63-32.18.29-1.53-.23-3.9,2.29-3.58,2.21.29,1.72,2.54,1.75,4.11.22,9.53-1.56,18.86-3.77,28s1.05,13,10.82,13.45c4.16.18,8.33,0,12.5.07,1.17,0,2.53,0,2.48,1.66,0,1.27-1.13,1.4-2.16,1.57-4.12.69-8.11,2.68-12.43.24-1.14-.64-3.57-1-4.44.84-.72,1.56,1.47,1.91,2.14,3,2,3.06,5,5.19,7,8.3a10.18,10.18,0,0,0,9.39,4.51c8.15-.35,16.35.23,24.49-.24,6.87-.4,13.62-2.15,20.62-1.93,4.15.13,5.69,1.68,5.59,5.66-.13,5.67-.26,11.35,0,17a13.67,13.67,0,0,1-3.85,10.37c-2,2.28-4,3.33-7,2.13-4-1.59-5.55-5-5.47-8.66.07-3,2.28-5.47,5.62-6.14,2.1-.43,5.25.69,5.19-3-.07-3.49-2.56-5.43-5.72-5.94a40.69,40.69,0,0,0-8.48-.17c-3.39.16-3.81,2.79-3.84,5.39-.08,8.16-.08,16.33-.08,24.5,0,9.33.56,18.7-.18,28-.61,7.8,2.51,14.58,3.92,21.82.38,1.94,2,1.5,3.21,1.51,8.66.06,17.33.06,26,0,1.11,0,2.63.34,2.86-1.22.19-1.33-1.11-1.35-2.11-1.46-2.78-.31-2.79-2-1.75-3.92,3.91-7.27,4.48-15.16,4.47-23.18q0-23.51,0-47c0-3.82.2-7.61-1.56-11.26-1.38-2.87-.07-4.32,3.11-4.42,6.16-.18,12.32.43,18.47-.42,2.94-.4,3.18,1.64,1.91,3.44-2.12,3-2,6.25-2,9.58,0,20.67.19,41.33-.1,62-.07,5.12,1.71,9.62,3.62,13.84,1.81,4,6.5,1.78,9.94,1.59,1.67-.1,3.28-1.28,5.63-2.27-5.82-4.2-4.57-10.12-4.58-15.68,0-20.16-.09-40.33.08-60.49,0-5.06,1.21-9.94,6.42-12.55.44-.22,1.12-.56,1.15-.89.62-7.54,6.68-11.23,11.3-15.87a18.14,18.14,0,0,1,11.06-5.62,79.55,79.55,0,0,1,17.27.39c4.25.49,9.82,1.46,12.66,6.79,1.81,3.38,4.85,6.18,7.67,8.91,3.16,3.06,5,6.15,2.78,10.53a4.66,4.66,0,0,0,0,4.77c2.55,4.33,3.07,9.08,2.73,14-1,14,.84,27.91,1.87,41.78.47,6.35.68,12.39-.5,18.55-.72,3.76-1.42,7.58-5.33,9.65-1.43.75-1.5,2.41.12,2.25,6.45-.65,13.26,3,19.37-2.93,3.72-3.6,4.21-7.91,5.06-12.05a39,39,0,0,0,.06-13.92,131.22,131.22,0,0,1-1.05-29.62c.52-8.56-2.25-16.74-2-25.25,0-2.62-3-4.62-5-6.6-.73-.72-1.52-1.42-1.13-2.55s1.57-1,2.48-1.29c6.77-2.26,13.63-1.72,20.24.11,5.1,1.41,7.23,6.39,9.76,10.65a214.21,214.21,0,0,1,15.56,32.7,2.26,2.26,0,0,0,1.28,1.34c1,.18,1.36-.72,1.7-1.48a5.11,5.11,0,0,0,.68-1.87c0-11.09,1.38-22.26-1.75-33.19a6.17,6.17,0,0,0-.36-.93c-1-2.1-4.84-3.74-2.71-6.18,2.32-2.64,6.59-1.73,9.45-.77a35.37,35.37,0,0,0,9.65,1.64c4.66.26,6.25,2.34,5.35,6.83A74.59,74.59,0,0,0,777,705.45c.39,4.78-1.68,9.22-1.48,13.83.48,11.09,1.23,22.16,2.6,33.2a103.42,103.42,0,0,1,.2,18.46c-.29,5.15-1.45,10.21,4.35,13.3,1.21.65,1.43,2.09-.11,2.7-3,1.18-2.39,3.67-2.4,5.91,0,6.33-.13,12.67,0,19,.14,4.9-.22,9.62-2.63,14-.46.84-1.27,1.79-.38,2.7s1.87.4,2.79,0c5.81-2.75,11.66-1.59,17.49-.16,1.56.38,4.15,1,3.34,2.83-1.26,2.86,1.29,6.86-3,8.77s-8.84,1.38-13.23,1.69c-8,.56-16.08,0-24.12,1-2.48.31-2,1.6-2.15,3-.86,8.54,1.71,16.41,4.76,24.17,2.16,5.52,1.73,6.19-4.37,6.26-4,0-8,0-12,0-2.12,0-3.73-.59-3.17-3.19,1.52-7-.44-13.18-4.27-18.92-1.47-2.21-3.78-4-4.72-6.41-3.26-8.31-10.23-5.71-16.23-5.91-2.61-.09-2.23,2.16-2.06,3.67,1,9.21,2.63,18.35,6.06,27,1.8,4.51,1.36,5.74-3.38,5.78-5.67.05-11.33,0-17,0-3.28,0-4.93-1.3-3.41-4.6,4.34-9.42,1.62-18.93.41-28.38-.43-3.33-2.23-5.92-6.42-5.3a43.65,43.65,0,0,1-5,.06c-5.27.22-6.59,2.4-5.17,7.49,2,7.33,1.37,14.87.46,22.25-.58,4.76-6.1,8.39-11.6,8.43q-21.24.13-42.49,0c-6.18,0-12-6.39-13.36-14.28-.88-5-2.36-9.89-2.26-15.15.11-5.54-4.58-4.72-8.14-4.58s-6.66,2-5.92,5.79c1.63,8.37.49,17.44,6.06,24.89,1.69,2.27.48,3.33-2,3.33-7.5,0-15,0-22.49,0-3.07,0-4-1.8-2.65-4.28,4.25-7.86,2.24-16.34,2.5-24.55.18-5.71-3.87-6.28-11.61-4.63-4.19.9-7.48,1.85-11.74-.14-2.83-1.32-7.22-1.74-10,.77s-2,6.52-.84,9.87c1,3,.76,5.93.76,8.91a22,22,0,0,0,1.34,7.32c.7,2,3.77,4,2.32,5.59a11.47,11.47,0,0,1-7.49,3.09,136.52,136.52,0,0,1-16.14-.81c-7.57-.73-3.35-3.75-2.58-6.36,2.38-8,1.33-16.12,1.26-24.21,0-2.21-1.83-2.44-3.63-2.43-7.83,0-15.66.09-23.49,0-3.33,0-3.73,1.71-3.63,4.48.25,7.53,2.46,14.66,4.19,21.88,1.29,5.38,1.26,5.57-4.44,5.56-5.27,0-10.51.11-15.74-1.14-3-.72-2.42-2.33-2.21-4.42.63-6.3,1.14-12.59-.74-18.83-.87-2.88-1.91-3.7-5-2.29-3.32,1.52-7,2.06-10-1.27-1.47-1.61-2.5-1.2-3,1-1.63,7.17-2.55,14.39-1.11,21.67.56,2.83-.93,3.13-3,3.21-6,.23-11.78-1.82-17.75-2.24-2.54-.17-1.65-2.15-.86-3.79,2.9-6,5-12.25,4.66-19.09-.22-4.63-1.86-5.9-6.31-4.14-2,.81-4,1.95-6.19,1.41-4.46-1.09-5.56.85-5.39,4.95.22,5.65,0,11.33,0,17,0,3-1.51,4.45-4.42,3.68a99.15,99.15,0,0,0-31.38-3.11c-4.84.29-9.27-1.32-13.37-3.25-6.57-3.11-7.24-9.82-8-16.11-.28-2.33.05-4.83-2.11-6.36a7.09,7.09,0,0,0-7.15-.41c-2.1.94-1,3.12-1,4.91,0,3.8,1.51,7.09,2.79,10.53,1.62,4.33.48,5.25-4.07,4.73s-9-.29-13.46-.36c-6.1-.08-7.92-2.18-6.15-8a24.13,24.13,0,0,0,1-9.84c-.37-3.3-1.68-5.65-5.84-5-2.43.4-5.06-.37-7.45.13s-5.25-1.44-6.57.81a19.15,19.15,0,0,0-2.42,12c.73,6.31.68,6.31-5.66,4.23-3.9-1.29-7.94-.51-11.91-.63-5.3-.17-6-1.25-3.73-5.87,1.45-3,2.69-6.07,3.88-9.17s-.84-4.88-3.32-4.76c-9.29.44-17.93-2.88-26.88-4.29-4.76-.75-6,1.63-6.72,5.06-.48,2.25-.25,4.64-.41,7-.28,4.22-2,5.49-5.82,3.8-4.73-2.1-9.87-2.3-14.78-3.46-5.57-1.32-8.48-4.31-6.56-9.71,3.48-9.81-.27-9.8-7.73-13-1.13-.47-3.06.13-2.84-1.85.16-1.4,1.78-1.41,2.89-1.28,7.34.91,15-1.62,22.09,2a1.76,1.76,0,0,0,1,.16c8.88-1.54,17.28,2.12,26,2.6,5,.29,10.63,1,15.61,3.16,2.71,1.18,5.59.33,8.39.56,6.41.53,12.82-.6,19.31,1.27,3.68,1.07,4.77-4.18,5.23-6.52,1-5.14.58-10.59.47-15.91-.05-2.27-2.17-2.36-3.8-2.2a13,13,0,0,1-10.56-3.34c-2-1.77-2.56-1.2-3.74,1.18-3.24,6.54-5.05,13.22-4.63,20.53.15,2.65-.23,3.42-3.68,2.45-4.45-1.25-8.82-3.65-13.86-2.9a6.38,6.38,0,0,1-6.28-3.33c-1.34-2.33,1.11-3.8,2.18-5.61,4.32-7.35,6.31-15.71,9.9-23.41,2.73-5.85,4.56-12.13,6.83-18.2,1.21-3.24.76-6-1.78-8.54-1.92,1.26-1,2.85-.91,4.21.39,4-1.85,6.91-4.81,8.68-2.12,1.26-5.84,1.61-7.55-.26-2.51-2.73-2-7.17-.39-9.88,2.5-4.12.75-5.35-2.48-6.79-5.19-2.32-8.42-1.52-10.66,2-7.25,11.41-12.65,23.86-20.18,35.11a24.14,24.14,0,0,0-4.09,12.68c-.13,4.18-2.65,4.47-5.86,3.43-6-2-12-4.26-18.17-5.82-2.82-.71-3.85-1.64-3-4.31,2.83-8.92,2.68-17.78,1.25-27-1.18-7.64-.53-15.64,0-23.44.24-4-.7-5.27-4.7-5.42a203.51,203.51,0,0,1-31.2-3.76,8,8,0,0,0-2.48-.19c-8.7,1.22-16.91-3.4-25.62-2.11-1.34.2-2.65-1.37-3.64-1.29-3.78.33-8.52-5.86-11.41,1.67-.86,2.21-3.19,1.92-5.18.7-2.69-1.65-5-1.89-6.21,1.83-.5,1.48-1.64,2.57-3.49,2-5.17-1.72-10-2.48-14.27,2.37-2,2.26-4.55-.71-7-.72-1.62,0-.93-2.47-1-3.9-.31-4.21,2.53-7.83,2.18-12.13-.16-1.9,1.81-2,3.36-2.08,10.4-.31,20.79-.5,30.65,3.71a3.77,3.77,0,0,0,1.45.31c10.61.17,20.93,3,31.7,2.68,5.89-.16,12.2,1.82,18.27,3.11.64.13,1.28.69,1.87.62,7.35-1,14.29,2,21.61,2.13a115.55,115.55,0,0,1,31.14,4.94,6.11,6.11,0,0,0,2.41.55c7.86-1.06,15.45,1.44,23,2.6,10.89,1.69,22.19.83,32.67,4.2,6.46,2.09,12.86.88,19.08,2.06,12.73,2.42,25.66,2.18,38.37,3.84,6.77.88,13.68.24,20.17,1.74,9.25,2.14,18.79.1,27.64,2.16,10.11,2.35,20.39-.42,30.06,2.45,6.8,2,13-.06,19.36-.7,4-.41,6.92,1.93,10.59,1.91,22-.13,44,0,66-.06C531.05,768.23,532.31,768.56,533.33,767.13ZM395.6,773.4h-8.49c-7.64,0-8.31,1.17-9.07,8.92a153.15,153.15,0,0,1-4.06,22.8,29.21,29.21,0,0,0-.58,11.8c.44,2.84,2.39,5.86,5.93,5.71,5.37-.21,10.56,1.62,15.32,3,6.28,1.77,10.77,1.41,15.35-2.71.89-.81,2-1.42,3.17-.68s.85,2,.34,3.11c-1.08,2.21-.84,4.55-.81,6.87,0,1.81-.17,3.68,2.21,4.45,7.4,2.4,14-.91,16.73-8.36,2.44-6.7,3.37-13.83,6.24-20.48a15.16,15.16,0,0,0-.5-12.17c-.47-1-1.33-2.41-2.58-1.9-1.65.66-.46,1.92,0,2.89,1.71,3.5.36,6.63-1.62,9.31-3.21,4.32-8.21,4.42-10.43.27a11.23,11.23,0,0,1-1.26-8.66c1.94-6.66,5.13-8.81,13.53-8.75,9.07.06,9.07.06,11.54-7.29,1.54-4.58.79-5.7-4-5.76-5-.06-10,.21-15-.1-6.65-.41-7.55-.06-8.86,6.5a26.67,26.67,0,0,1-7.4,13.88c-8.87,8.83-21.37,9-25.64-4.83-1.73-5.56,1.76-11.84,7.14-12.44,8-.89,12.58,5.4,9.4,12.87-.43,1-1.67,1.94-.45,3.07,1,.93,2.22.3,3.32.05a6.58,6.58,0,0,0,4-3.51c2.84-4.85,2.57-10.24,2.25-15.56-.13-2.24-2.11-2.25-3.81-2.26C403.59,773.38,399.6,773.39,395.6,773.4Zm130.21,17.33c0-2.83,0-5.66,0-8.49,0-1.16.2-2.69-1-3.17-3.77-1.54-8.08-2.43-11.58-.49a9.8,9.8,0,0,0-5.15,9.6c.19,2.19,1.52,2.8,3.42,2.67,3.49-.24,5,1.8,6,4.8,1.39,4.13-.23,10.38-3.76,13-2.52,1.89-4.95,1.6-7.1-.72-3-3.27-5.09-6.74-4.58-11.58.54-5.09-.28-10.26,1.45-15.32,1.21-3.53-.07-5.75-4.41-5.38a72.4,72.4,0,0,1-10,0c-4.17-.24-5.25,1.25-5.08,5.58.7,17.37,4.65,34.39,5.28,51.74.08,2.09.83,3,3,3.82,7.34,2.77,14.92,2,22.45,2.26,3.56.13,5-1.39,5.85-4.62,1.29-5.18,1.61-10.46,2.26-15.72C524,809.43,526.06,800.21,525.81,790.73ZM561,838.93v0c4.17,0,8.36-.33,12.49.09,4.45.45,6.14-2.06,6.72-5.57,1.94-11.71,3.82-23.43,3.71-35.36,0-1.66-.31-3.42.13-5,1.51-5.32-.55-10.49-.4-15.76.08-2.85-2.16-4.47-5.18-4-2.2.37-6.15-1.44-6.13,2.15,0,5.26-2.49,10-2.11,15.24a126.46,126.46,0,0,1,0,13.49c-.19,5.39-3.63,11.16-6.74,11.71-5.13.91-9-2.18-9.58-7.58-.94-9.17.51-11.47,7.43-11.77,2.19-.09,4.6.13,4.85-2.95.57-6.94-8.64-15-15.68-13.85-2.42.41-3.32,2.22-3.36,4.33-.13,6.81-.94,13.54-1.52,20.3-.86,10,.31,20.26-1.91,30.27-.7,3.12.78,4.25,3.77,4.19C552,838.87,556.5,838.93,561,838.93Zm91.83-157.72-1.3-.43c-.77,1.19-1.37,3.24-2.34,3.43-5.75,1.15-6.27,5.88-6.37,10-.34,14.48-.2,29-.08,43.47,0,3.71,1.63,7.65,5.38,8.15,6.34.85,12.48,3.23,19.08,2.45,8.27-1,10.15-2.8,10.14-11.12A134.18,134.18,0,0,0,676,716.37c-1-6.5-.19-13.29-.18-20S665.66,682.72,659.34,685a3.23,3.23,0,0,0-2.17,1.91c-2.06,6.12-4.69,12.1-5.2,18.65-.18,2.34.32,3.83,3.42,3,4.4-1.16,8.51-1,11.34,3.64s2.5,8.84.24,13.25a9.86,9.86,0,0,1-12,4.6c-7.18-2.78-9.39-8.93-10.31-15.66-.83-6,1.1-11.73,3.18-17.38C649.75,691.88,651.18,686.51,652.83,681.21Zm35.1,92.86a27.34,27.34,0,0,1,2.61,4.61,75.14,75.14,0,0,1,2.39,39.08c-.71,3.56-3.43,8.85-1.11,10.71s7.61.58,11.59.57c1.25,0,2.62.27,3.42-1.32,3.38-6.78,7.77-13.19,6.94-21.38a28.14,28.14,0,0,1,.12-7.45C716.56,783.05,703.65,770.53,687.93,774.07Zm46.5-18.87c0,4-.14,7.65,0,11.3.2,4.36,1.63,8.26,6.08,9.88,4.17,1.52,9-.39,13.08,2.12.23.14.91-.28,1.28-.56,4.21-3.16,7.17-13.83,4.72-18.45-3.47-6.56-6.53-13.44-11.49-19.07-5.48-6.2-8.65-13.7-12.36-20.91-.49-1-.24-2.65-1.81-2.52s-1.05,1.82-1.22,2.84a22,22,0,0,0-.09,3.45C732.48,734.07,734.94,744.71,734.43,755.2ZM616.11,773.39c-8.43,0-8.58,0-10.55,6.68-1,3.46-2.16,7.06-2.23,10.61-.23,12.45-.38,24.86-1.54,37.29-.82,8.74-.29,8.69,8.58,8.82,2.85,0,4.33-.31,5.12-3.68,3-12.83,2.84-26,4-38.93.48-5.34.67-10.73,2.7-15.61,2.09-5,.19-5.73-4.08-5.19A16.67,16.67,0,0,1,616.11,773.39ZM340.2,806.11c1.48,7.42,1.42,15.07,3.57,22.41,1.07,3.68,3.86,5.45,8,4.31s.54-3.37.6-5.08a21.3,21.3,0,0,0-.11-3c-.53-4.73,1.5-9.21,1.59-13.75.24-12.35,3.85-24.13,5.36-36.25.39-3.16-.48-3.88-3.36-3.6-3.47.33-6.87.35-10.23-1.25-2.82-1.35-4.73.66-4.93,3.19-.46,5.93-1.25,11.95.53,17.8a10.61,10.61,0,0,1,.2,6.83A27,27,0,0,0,340.2,806.11Zm332.64.79c0-2.89-.1-4.9,0-6.89.31-5.12-3.12-7.2-7.16-8-7.79-1.65-11-.3-12.61,4.91-2,6.47-3.64,13-5.52,19.56-.33,1.13-1.08,2.3-.12,3.26s2.06-.16,3.09-.54c8.29-3.06,12.68,0,12.5,8.71,0,1.37-.08,2.93,1.68,3.11,1.59.16,3.52.56,4.63-1.05a9.78,9.78,0,0,0,2.13-5.53C671.35,818.21,673.71,812.23,672.84,806.9Zm84.72,15.39c5.08-12.46,5.82-23.79.43-35.06-1-2-2.7-4.57-4.93-4.65-5.3-.2-10-3.42-15.41-2.69-1,.13-2.12-.27-2.71.74-.79,1.32.29,2.09,1.09,2.94a44.53,44.53,0,0,1,7.46,11.11C747.81,803.56,752.43,812.28,757.56,822.29ZM648,854.82c3,0,6,.06,8.94,0,5.91-.15,6.81-1.74,6.52-9.44-.21-5.64-4.36-4-7.23-4s-5.41.74-8.25-.42c-5.08-2.07-9.67,1.59-14.62,1.87-1.12.06-1.44,2.05-1.51,3.42-.29,5.44,2.68,8.57,8.2,8.62C642.69,854.85,645.34,854.83,648,854.82Zm5.69-80.18-1.12-.41a19.25,19.25,0,0,1-.88,2c-2.64,4.56-2.23,10.73-6.61,14.22-4.76,3.79-5.79,8.61-5.65,14.12a36.9,36.9,0,0,1-1,7.31c-1.17,6.48-1.65,13.07-2.34,19.63-.13,1.18.13,2.71,1.53,2.69,1.58,0,1.34-1.6,1.19-2.75-.77-6.09.93-11.81,2.35-17.63,2.2-9.07,6.77-17.3,9-26.36C651.15,783.16,652.48,778.92,653.68,774.64Zm-190.46,10c-1.63,4.7-3.64,9.09-4.64,13.7-1.54,7.18-1.18,14.24,4.23,20.12.93,1,1.76,2.23,3.27,1.46a2.69,2.69,0,0,0,1.2-3.47,18.25,18.25,0,0,1-1-7.85c.74-7.33-2.17-14.44-1.17-21.77C465.18,786,464.87,785.13,463.22,784.59Zm-150.9-8.78c.4,5.45,2.76,9.37,4.17,13.59.49,1.46.78,3.67,3.1,3.08,1.83-.47,1.37-2.38,1.49-3.82.56-6.72-1-13.54,1.22-20.21a3.45,3.45,0,0,0-2.06-4.14c-1.56-.65-3.12-.33-3.82,1.26C314.84,769.17,313.48,772.87,312.32,775.81Zm156.36-80.74c-3.37,4.89-3.51,9.13-4.56,13-1.67,6.16.78,11.65,6,15.1,1,.67,2,1.37,3.14.52a2.38,2.38,0,0,0,.86-2.68C471.59,713,470.11,704.79,468.68,695.07ZM236,761.06c0,2,0,4,0,6,0,1-.3,2.12,1,2.51.93.29,1.46-.51,2-1.14,3.1-3.7,5.13-8,7.13-12.35.91-2,.53-3.52-1.65-4.4-4.93-2-8.41.25-8.43,5.45C236,758.41,236,759.74,236,761.06Zm156,85.15c-.66,0-1.33-.05-2,0-1.26.11-3.28-.46-3.4,1.12-.16,2.21,2.18,1.15,3.36,1.7,5.51,2.58,11.75,1.08,17.37,3.35a9.53,9.53,0,0,0,8.19-.78c.93-.52,1.69-1.2,1.41-2.33-.23-.95-1.18-1.06-2-1.08C407.19,848,399.39,849.12,391.94,846.21Zm66.21-9.49v-.07a77.24,77.24,0,0,0,7.91-.06c2.05-.21,2.56-1.88,2.08-3.73-.28-1.08-.82-2.71-2.2-1.9-4.15,2.39-7.86,1.15-11.73-.64a2.92,2.92,0,0,0-4,1c-.74,1.27-1.56,2.76-1,4.19.69,1.75,2.51,1.18,3.93,1.22C454.85,836.75,456.5,836.72,458.15,836.72Zm278.35-7.86c-1.86-2.59-1.51-6.24-4.74-6.54-1.11-.1-3.13,3.07-2.56,4.82C730.36,830.72,733.44,828.68,736.5,828.86Z" transform="translate(-21.5 -1)"/><path d="M338.54,653.93c.85,7.87,1.85,14,6.33,19.26,1.84,2.15,3.95,5.4-1.36,6.6-1.74.39-1.73,1.89-1.62,3.21.7,8.75,1.16,17.53,2.36,26.2a75.38,75.38,0,0,1,1,10.37,97.33,97.33,0,0,0,3.83,26.88c1,3.38.27,5.53-3.5,5.09-6.39-.74-12.69-2-19.19-2.17-3.16-.06-3.73-3-2.84-5.7,2-6.31,1.83-12.78,1.82-19.27,0-2.56-.84-3.74-3.52-3.38-4.26.57-8.25.16-11.71-2.85-1.8-1.56-3.5-1-4.2,1.32-2.07,6.88-6.25,13.45-2.94,21.12a3.63,3.63,0,0,1-.81,4.18c-1.27,1.19-2.62.77-4.16.26-4.79-1.56-9.49-3.46-14.71-3.47-5.72,0-6.61-2.09-4-7.32,3.14-6.39,5.18-13.23,7.28-20s4.11-13.88,6.48-20.71c1.74-5,.24-9.1-2.84-12.89-.68-.84-1.75-2-2.89-.67-.87,1,0,1.82.76,2.5,3.16,2.78,3.4,5.93,1.13,9.34-1.89,2.84-4.37,4.74-7.94,3.54-3.9-1.32-5.61-4.3-5.76-8.42-.27-8,7.79-13.86,15.9-11.71,3.45.91,6.87.56,8.6-3.73,3.59-8.89,6.68-17.76,4.11-27.57-.81-3.06.56-4.54,3.78-3.69q14.22,3.75,28.4,7.59C340.74,649,338.12,652.81,338.54,653.93Zm-16.24,44,.33,0c-.14-2.48.12-5.08-.54-7.42a30.49,30.49,0,0,1-1-7.86c0-1.71-.72-2.94-2.68-2.83a2.64,2.64,0,0,0-2.76,2.89,12,12,0,0,1-.8,4.36c-2.89,7.44-1.2,14.32,4.63,19.59.76.69,1.44,1.51,2.54.9s1-1.67.9-2.66C322.74,702.53,322.51,700.22,322.3,697.91Z" transform="translate(-21.5 -1)"/><path d="M414.47,697.66a25.52,25.52,0,0,0-1.31-10.8c-1.25-3.36-3.8-4.85-6.91-5.82-6.69-2.09-14,0-20.59-2.95-1.22-.55-2.14.54-2.56,1.77-.59,1.73-1.77,3.51-1.65,5.2.47,6.71-2.22,13.17-1.59,19.8.56,5.94-1.84,11.46-1.72,17.31.17,7.68,3.75,11.65,11.44,11.94,4.13.15,8.1.13,12.18,1.78,4.92,2,9.3-.69,13.27-3.74,1.07-.83,2.16-2.66,3.81-1.65s.12,2.7.09,4.08c-.1,5.83-.19,11.66-.24,17.48-.07,7.68-3.82,10.2-10.87,6.86a12,12,0,0,0-5.72-1.16c-11.38.29-22.49-1.79-33.36-4.73-4.56-1.23-8.83-4.54-9.67-9.75-1.16-7.25-3.51-14.3-1.28-22.08,1.51-5.24.56-11.17,1.8-16.73,2.78-12.43,2.07-25.34,5.19-37.74a11.05,11.05,0,0,1,14.58-7.93c4.83,1.82,5.57,1.25,7.07-3.81,1.79-6,2.55-12.27,3.62-18.44.26-1.5.36-3.19,2.27-3.39a2.6,2.6,0,0,1,2.76,2.43c.39,6.41,6.55,10.09,7.46,16.25a5,5,0,0,0,2.69,3.47c1.43.76,2.68,1.85,2.77,3.34.51,8.88,7.47,10,13.9,11.56,2.53.61,3.56,2,3.14,4.21-1.75,9.24-.14,18.9-4.25,27.89-3.62,7.92-10.47,11.36-17.92,12.73-9.05,1.65-16.45-8.27-13.11-16.69,1.28-3.22,4.88-3.75,7.89-4.33s6.16.4,7.72,3.34c1.33,2.5,3.38,5,1.19,8.33-1.44,2.16.43,2.54,2.08,2.38,3.53-.34,5.22-2.73,5.78-5.91A22,22,0,0,0,414.47,697.66Z" transform="translate(-21.5 -1)"/><path d="M152.19,811.06c10.94-1.23,23.49,1.93,36.17,4,1,.16,2.09.42,1.91,1.74-.14,1-1.16,1.15-2,1.1-5.58-.35-11.26,1.21-16.77-1.07a14.85,14.85,0,0,0-5.4-.59c-8.32,0-16.63,0-24.95,0-1.16,0-2.33,0-3.49,0-3.26,0-8.05-1.69-7.81-3.42.42-3.1,4.69-1.41,7.27-1.62C141.45,810.81,145.79,811.06,152.19,811.06Z" transform="translate(-21.5 -1)"/><path d="M806.55,835.21c.11-6.09,3.06-7.88,9.14-6.53,3.82.85,7.91.58,11.88.57,1.41,0,2.75-.29,3.3,1.32.43,1.26-.42,2.13-1.29,3-5.93,6-12.81,8-20.92,5.08A2.87,2.87,0,0,1,806.55,835.21Z" transform="translate(-21.5 -1)"/><path d="M869.72,824.49a15.37,15.37,0,0,1-.25,3.7c-.38,1.45-1.87,2-2.33.32-.92-3.21-3.78-4-6-5.62-1.37-1-2.74-2.11-2.46-4s2.23-1.77,3.57-2.1C868.5,815.19,869.81,816.45,869.72,824.49Z" transform="translate(-21.5 -1)"/><path d="M237.59,560.83a7.69,7.69,0,0,1,0,2c-.46,1.73,1.28,4.86-1.23,5s-2.94-3.09-3.28-5.36c-.39-2.65.51-5.43-2.09-7.76-1.41-1.25.61-1.55,1.66-1.82,1.77-.47,4-2.22,4.66,1.07a45,45,0,0,1,.41,6.9Z" transform="translate(-21.5 -1)"/><path d="M848.46,814.38a2.36,2.36,0,0,1-1,2.15c-.66.41-1.61.31-1.66-.33-.3-4-4.58-5-6.06-8.11-.36-.76-1-1.53-.41-2.27a2.18,2.18,0,0,1,1.71-.64C843,805.38,848.55,812.36,848.46,814.38Z" transform="translate(-21.5 -1)"/><path d="M212.41,821.71c-1.76-.37-4.69.55-4.64-1.6,0-2.57,3-1.71,4.82-1.65,1.58,0,4.48-1.08,4.48,1.39C217.08,822.75,214,821.12,212.41,821.71Z" transform="translate(-21.5 -1)"/><path d="M793.13,789.64c-1.6-.29-3.73.45-3.88-1.54s1.94-1.81,3.32-1.74,3.88-.55,3.91,1.68C796.52,790,794.17,789.15,793.13,789.64Z" transform="translate(-21.5 -1)"/><path d="M197.49,819.73c-1.31-.26-3.42.36-3.51-1.72-.07-1.8,1.84-1.53,3.1-1.58s3-.29,3.25,1.44C200.59,819.81,198.87,819.66,197.49,819.73Z" transform="translate(-21.5 -1)"/><path d="M819.74,795.63c1.28,1.64,4.71-.12,5.31,2.92.2,1-1.25,1.45-2.23,1.3-2.12-.33-4.11-1.19-5.09-3.16C817.39,796,818.57,795.52,819.74,795.63Z" transform="translate(-21.5 -1)"/><path d="M70.84,560.9c.39-1.42-.58-3.44,1.41-3.38a3.09,3.09,0,0,1,.1,6C70,563.73,71.54,561.56,70.84,560.9Z" transform="translate(-21.5 -1)"/><path d="M405.78,138c0,8,.81,16.07-.23,23.92-1.07,8.08-1.06,16.27-3,24.32-1.08,4.52-1,9.4-2.26,14-.5,1.82-1.07,4.22-3,4-2.58-.24-1.83-3.26-1.32-4.44,3-7,.13-14.91,3.4-21.83a1.73,1.73,0,0,0,.17-1c-1.17-8.67,1.24-17.09,2.15-25.56,1.48-13.71,1.33-27.38,1.46-41.09,0-1.1-.32-2.82,1.16-2.88,2-.08,1.43,1.87,1.44,3,.05,9.14,0,18.29,0,27.43Z" transform="translate(-21.5 -1)"/><path d="M230.81,245.21c-.11,2.87.05,5.81-4.23,5.75-1.36,0-2.3,1.34-3,2.48-4,7.1-11.1,10.59-17.51,14.87a2.06,2.06,0,0,1-2.71,0,1.26,1.26,0,0,1-.33-1.77c4.86-5.62,4.77-13.74,9.82-19.26,1.65-1.81,2.34-4.23,6.17-2.74,1.86.72,5.38-1.25,8.23-1.82C230.86,242.05,230.79,241.69,230.81,245.21Z" transform="translate(-21.5 -1)"/><path d="M303.53,145.46c5.07-.9,8.53,1.18,11.47,4.26,1.28,1.34,2.2,3.25.49,4.88a3.26,3.26,0,0,1-4.58,0c-3.69-3.61-6.9-2.76-10.32.41-4.34,4-10.48,4.16-15.44,6.93a2.77,2.77,0,0,1-3.6-.93,2.74,2.74,0,0,1,0-3.3c3.39-4.63,6.4-9.6,13.16-10.14C297.85,147.32,300.4,144,303.53,145.46Z" transform="translate(-21.5 -1)"/><path d="M327.43,233c-.11-10.53-1.39-20.81.1-31.28.93-6.59,4.7-12.35,4.46-19.15a17.64,17.64,0,0,0-1.65-6.6,1.88,1.88,0,0,1,.81-2.59c1.43-.58,1.44.74,1.8,1.63,2.31,5.72,3.27,11,.71,17.43-2.24,5.62-1.88,12.55.06,18.61,1.34,4.18.91,8.19.82,12.29a3.61,3.61,0,0,1-1.25,2.62C330.67,227.73,329.11,230.2,327.43,233Z" transform="translate(-21.5 -1)"/><path d="M376.66,291c.38,6.32-1.4,12.8-8.33,17.11-2,1.23-3,1.12-4.48-.69-3.42-4.27-3.62-9.18-.18-13.62,2.45-3.16,5-6.26,7.48-9.36,1-1.26,1.85-3.08,3.91-2.41s1.57,2.63,1.6,4.24C376.68,287.4,376.66,288.57,376.66,291Z" transform="translate(-21.5 -1)"/><path d="M263.37,233.47c.43,2.52-1.45,3.92-2.61,5.7s-2.36,3.88-1.1,5.45,3.74.55,5.68.29c.45-.06.85-.65,1.28-.68,8.44-.48,16.05-4.47,24.31-5.66,1.25-.18,3-.33,2.93,1.65,0,1.6-1.59,1.68-2.66,1.43-3.5-.8-6.26,1.71-9,2.69-7.75,2.71-16.56,1.18-23.63,6.14-.73.51-1.92.48-2.22-.31-.81-2.09-3-4.4-1.75-6.37,2.29-3.69,3.57-7.73,5.38-11.58.42-.89,1.16-1.81,2.28-1.59C263.86,231,263.23,232.43,263.37,233.47Z" transform="translate(-21.5 -1)"/><path d="M341.55,316.86c-2.39-.39-4.76.53-5.66-2-1-2.76,1.68-3.07,3.05-4.29,3.24-2.9,7.54-3.73,11.19-5.82,1.48-.84,3.46-.7,4.26,1.18s1.33,4.31-.54,5.49A46,46,0,0,1,341.55,316.86Z" transform="translate(-21.5 -1)"/><path d="M308.43,161.09c2.76.21,4.36-.18,5.56,1,.95.92,2.09,2,1.62,3.39s-1.82,1.24-3,1.14a27.84,27.84,0,0,0-17.28,4.07c-2.16,1.3-3.36-.57-4.28-2.14-1.24-2.11.47-2.17,1.88-2.87C298.27,163,304.46,163.85,308.43,161.09Z" transform="translate(-21.5 -1)"/><path d="M295.82,256.6c-2.19.94-4.48,2.76-6.8,2.79a45.88,45.88,0,0,0-18.84,4.24,1.43,1.43,0,0,1-1.3-.29c-.72-.8.06-1.46.38-2.18,1.37-3.1,5.11-3.28,7.1-3.58,5.59-.82,10.85-3.25,16.54-3.32C294.26,254.24,295.62,254.32,295.82,256.6Z" transform="translate(-21.5 -1)"/><path d="M339.73,258.18a61,61,0,0,1-5.62,5.17c-1.51,1.1-2.24-.64-3.06-1.6a4.48,4.48,0,0,1-.62-.76c-.76-1.43-4.43-1.26-2.85-3.58,1.39-2.05,3,.43,4.54,1.21,1.84,1,3-.47,4.34-1.42C337.63,256.38,338.93,256.33,339.73,258.18Z" transform="translate(-21.5 -1)"/><path d="M325.77,259.61c-1.18,2.45-2.43,5.1-3.75,7.72-.39.79-1.14,1.36-2,.73a2,2,0,0,1-.67-1.66c1-2.72,2.13-5.41,3.35-8a1.71,1.71,0,0,1,2.07-.93C325.77,257.72,325.9,258.51,325.77,259.61Z" transform="translate(-21.5 -1)"/><path d="M402.76,90.68c-2.18-3.67-1.22-7.6-1.21-11.45a1.09,1.09,0,0,1,1.3-1.11,1.33,1.33,0,0,1,1.06,1.46C403.92,83.28,404.62,87,402.76,90.68Z" transform="translate(-21.5 -1)"/><path d="M235.62,218c1.42.35,3.83-.61,3.47,2.11a3.37,3.37,0,0,1-3.35,3.06,3.43,3.43,0,0,1-3.44-3.51C232.27,217.3,234.32,218.21,235.62,218Z" transform="translate(-21.5 -1)"/><path d="M313.45,281.74c.43,1.13.57,1.31.53,1.42-1.06,2.76-2.32,5.39-5.64,6A1.1,1.1,0,0,1,307,288C307.37,284.12,311.16,284.06,313.45,281.74Z" transform="translate(-21.5 -1)"/><path d="M322.33,277.79c-1.55-2-1.37-5.36-4.84-5.81,2.16-.58,4.69-1.56,5.78-.23S324.45,275.8,322.33,277.79Z" transform="translate(-21.5 -1)"/><path d="M235.41,235.74c.17-1.22-.32-3.37,1.22-3.21,2.41.25,1.25,3.29,2.53,4.79.8,1-.28,1.81-1.4,1.85C235.26,239.26,235.53,237.35,235.41,235.74Z" transform="translate(-21.5 -1)"/><path d="M257.56,262.45c-.31,2.35-1.93,1.8-3.13,1.81s-2.66,0-2.15-1.78c.34-1.22.94-2.78,2.44-2.82C256.55,259.61,256.77,261.51,257.56,262.45Z" transform="translate(-21.5 -1)"/><path d="M213.14,75.67c-10.22,1-15.43-5.71-19-12.44a49.54,49.54,0,0,1-6.36-24.61c.16-6.84,3.09-12,7.33-16.87a4,4,0,0,1,4.95-1.2c2.17,1.09.11,2.48-.27,3.74-1.15,3.77,1.53,8.74,5.76,9.57s5.31,3.38,4.92,6.79c-.59,5.15,1.12,8.92,5.88,10.77,3.25,1.27,3.5,3.52,3.35,6.33-.24,4.6.28,8.45,6.53,8,2.39-.17,2.66,1.42,1.3,3.33C223.81,74.26,219,76.84,213.14,75.67Z" transform="translate(-21.5 -1)"/><path d="M482.72,49.56c-.57,18.76-9.05,30.55-22.81,39-4.6,2.82-17-.44-19.42-5.18-1-1.93-1.94-5.92,1.59-6,6.18-.15,6.05-4.55,6.84-8.32.57-2.7,1.37-4.87,4.3-5.32,4.12-.62,4.89-3.38,4.81-6.86-.11-4.65-.27-8.94,6.32-9.73,2.6-.31,4.31-3.5,4.64-6.5.36-3.33,1.07-7.7,3.88-8.3,3.33-.72,5,3.81,6.76,6.41C482.14,42.53,483.13,47,482.72,49.56Z" transform="translate(-21.5 -1)"/></g></g></svg>