<svg xmlns="http://www.w3.org/2000/svg" viewBox="0 0 889.17 883.16"><title>victory</title><g id="Layer_2" data-name="Layer 2"><g id="Layer_1-2" data-name="Layer 1"><path d="M492,1Q688.75,1,885.5.91c3.75,0,4.61.84,4.6,4.59q-.23,78.26-.1,156.5c-4.52,1.47-9.06,2.86-13.53,4.47-1.59.57-3.32,3.06-1.52,3.5,5.89,1.42,9.54,5.53,13.64,9.26.22.2.93-.14,1.41-.23v45c-3.3.8-6.62,1.56-9.6,3.51,2.89,2.23,6.5,2.82,9.6,4.49v3c-2.09,3.31-5.24,4.77-9,5.62-5.33,1.2-10.77,1.69-16,3.38-10.24,3.29-20.39,7-31,9.06-2.16.42-4.66.34-4.63,3.34,0,2.74-.14,5.63,3.48,6.89,4.82,1.67,9.47,3.82,14.25,5.64a8.19,8.19,0,0,0,5.37.53Q871.24,263.75,890,258v29c-18.35,6.74-37.86,8.41-56.73,12.94-11.74,2.82-23.49,5.78-35.46,7.8-14.85,2.51-29.24,7.42-44.29,9.06-2.32.25-4.35,1.59-6.79,1.41-1.91-.13-2.12,1.17-1.62,2.7,2,6.19,1.87,5.8-4.84,5.28-8.75-.67-17.72-1.78-26.28,1-5.24,1.72-10.11,3.37-15.84,2-2.61-.64-5.81.73-8.64,1.55-2.31.67-2,2.45-.73,3.93,2.68,3.17,5.47,6.25,8.23,9.35,10.9,12.24,27,15.51,40.45,23.28a8.38,8.38,0,0,0,1.4.52c20.77,7.09,42.4,6.35,63.77,6,22.45-.42,42.88-9.8,63.45-17.76,5.84-2.25,11.21-5.71,17.09-8,1.13-.44,2.73-1,2.79-2.55.06-1.3-1.31-1.19-2.26-1.32-14.3-2-28.79-1.55-43.07-3.39-5.23-.67-10.67-.14-15.73-2.12-1.56-.6-3.53-1.06-3.38-3.11s2.22-2.38,3.83-2.42c7-.14,13.59-2,20.3-3.63,6.12-1.46,12.42-2.24,18.66-3.17,3.71-.55,5.91-2.11,6.51-6.18s-.43-5.72-4.53-6.46a3.61,3.61,0,0,1-2.21-6.1c2.13-2,12.4-3.26,14.39-1.2,3.44,3.53,7.32,3.38,11.53,2.67v46a8.52,8.52,0,0,0-2.26.8c-1.08.78-3.51.41-3,2.59.44,1.81,2.2,1.66,3.76,1.42A5,5,0,0,1,890,360v26c-4.58,3.82-4.89,10-8.06,14.72-4.47,6.67-10.17,12.28-14.61,18.88-2.27,3.37-4.38,5.44-8.9,3.86-3.22-1.13-6.59.37-9.65,1.71a8.86,8.86,0,0,1-5.8.77c-3.07-.73-5.35.3-7.51,2.64-6.54,7.09-12.45,14.58-20.09,20.9-14.41,11.93-30.09,15.33-47.8,11.79a20.11,20.11,0,0,0-13,1.83c-7.93,4.09-15.74,9.11-20.9,16.52-3.49,5-8,8.36-12.65,11.79-2.54,1.88-6,3-5.32,6.94s4.7,3.13,7.23,4.2c4,1.68,9.34,1.8,11.69-1.31,2.85-3.79,6.22-6.16,10-8.47,1.31-.8,2.18-3.31,4-1.95,2,1.48,2.08,4.29,1.45,6.4a9.56,9.56,0,0,1-4.11,5.34c-4.66,3.06-9.61,5.91-12.71,10.9a33.43,33.43,0,0,1-14.47,13.18c-.95.43-2.76.44-2.2,2.05A2.49,2.49,0,0,0,720,530c3.21-1.24,6.45-1.54,9.72-3.72a174.85,174.85,0,0,0,33.62-29c8.86-9.87,20.15-16.82,34.71-15.44,3.84.36,6.27.64,4.64,5.37-.68,2-.46,4.08,2,5,2.89,1.1,3,3.21,2.24,5.7-2.6,8.7-10.49,12.54-16.93,17.33-4.82,3.6-11,5.47-16.68,7.77a22.62,22.62,0,0,0-7.55,5.37c-4.37,4.3-9.17,8.75-15.22,10.09a41.36,41.36,0,0,0-18.61,9.67c-1.09.95-2.07,1.76-1.67,3.28s1.88,1.87,3.2,1.8a136.93,136.93,0,0,0,13.9-1c7.61-1.18,14.08-4.78,20.86-8.59,9.37-5.27,19.41-9.46,28.4-15.55,4.5-3,9.18-5.69,13.29-9.49,3.67-3.4,7-7.34,11.83-9.71,6.64-3.27,13-8.12,16.94-13.86,4.87-7,12.07-11,17.48-17.15,6.69-7.62,16.12-12.27,19.83-23.22,2.77-8.21,9.26-15.17,14.09-22.69v40c-6.44,4.52-11.36,10.59-16.63,16.29-4.33,4.69-8,9.72-15.84,8.67-3.41-.46-6.14,2-5.27,6.56.79,4.16-1,7-5.47,7.08-8.55.24-13.68,4.9-16.61,12.49a13.58,13.58,0,0,1-5.38,7c-4.66,2.89-9.42,5.6-14,8.52-5.39,3.4-10.49,6.49-17.31,2.76-3.24-1.78-6.2-.21-5.56,4.45.36,2.58-.68,2.18-2.56,1.49-6.36-2.33-9.14-1.11-12.49,4.87a6.65,6.65,0,0,1-2.2,2.61c-6.76,3.8-11.92,10.23-19.19,12.88-6.72,2.45-13.68,6.34-21.31,2.09a9.28,9.28,0,0,0-6.86-.52c-2.47.66-3.95,1.9-1.41,4.48,3.79,3.85,2.4,9.18-2.8,10.68a32.74,32.74,0,0,1-10.29,1.43c-2.58-.09-5.24.53-6.83,2.51-3.25,4.07-7.53,4.4-12.14,4.29s-12.13,4.44-12,8.45c.13,6.75-6.13,11.11-5.44,17.77.66,6.27-4,11-5,16.8-.87,4.72-1.78,9.37-4,13.76-2.78,5.46-1.8,16.51,1.94,18.76,3.27,2,5.19,5.37,8.8,6.92a5.06,5.06,0,0,1,3.13,5.27c-.29,1.86-1.73,3-3.65,3.68-9.73,3.33-10.31,4.25-8,14.07.64,2.74-1.06,6.64,2.56,8,4.17,1.62,1.19,4.53,1.57,6.7.44,2.57-2.13.92-3.27,1.39a15.23,15.23,0,0,0-3,1.72c-2.56,1.8-5.18,4.8-7.25,5.68-4.53,1.94-10,1.64-12.89,6.8-.17.3-.91.3-1.4.41-7.57,1.62-15.91,0-22.59,5.43-.32.27-1,.21-1.45.2-10.6-.09-21.2,0-31.8-.18-7.56-.13-15.08-.94-22.77.06-8.7,1.13-16.07-2.94-21.78-9.75-3.62-4.31-6-9.53-10.11-13.51-5.4-5.17-8.19-11.93-5.77-19,1.91-5.54-1.11-7.45-4.22-9.93a13.09,13.09,0,0,0-6.38-2.67c-2.48-.37-5.56-1.66-5.62-3.75a8.22,8.22,0,0,1,3.76-6.67c5.63-3.74,12.1-4.53,18.43-4.49,7.47.06,10.73-1.13,13.81-7.68,2.11-4.46,2.11-8.6-2.19-11.9-.78-.59-1.72-1-2-2.11-1.72-7.84-6.25-14.67-8-22.48-.58-2.54-2.34-4.94-4.29-5.08-5.38-.39-7.31-4.11-10.5-7.5-4.21-4.48-3.09-6.51,1-9.24,1.13-.77,2.56-2.2.34-2.82-5-1.38-8.76-3.84-11.28-8.54-.71-1.33-3-2-4.76-2.53a47.56,47.56,0,0,1-12-5.41c-10.67-6.55-22.22-11.68-33-18.06-8.24-4.88-17.74-7.87-24.41-15.19a54.85,54.85,0,0,0-15.55-11.41,66.64,66.64,0,0,1-10.06-6.4c-9.23-7.25-19.35-13.18-29-19.77C368,500.61,358,490.93,348,481.34c-4-3.78-8.43-7.82-11-12.62-6-11.47-11.28-23.37-16.15-35.37-2.14-5.25-6.29-9.79-6.78-15.45-.84-9.66-6.57-17.82-7.35-27.61-.51-6.39-5.3-12.48-5.67-18.85-.37-6.55-6.66-11.88-3.33-18.85.08-.17-.22-.68-.45-.8-4.09-2.16-3.25-5.5-2.73-9.19.39-2.86.45-5.5,2.87-7.55a3.36,3.36,0,0,0,.84-4.13c-1.82-3.9-1.08-7.93-.26-11.76,1.05-4.92-1.59-6.85-5.47-6.77-10.23.21-18.31-6.27-27.82-8.32-9.22-2-17.64-6.91-27.16-8.18-2.41-.33-5-.76-7.24-.86-5.08-.24-8.85-3.66-13.64-4.22-9-1-17.64-4-26.24-6.51-6.35-1.84-12.56-4.56-19-6.67-12.59-4.14-25.85-6-38-11.67-9.93-4.62-20.93-6-31.48-8.69-2.29-.59-5,.86-7-1.71-2.24-2.89-5.72-4.09-9.17-4.62-7.91-1.23-15-5.44-23.06-6.1a6.06,6.06,0,0,1-2.6-1.34c-4.05-2.92-9-3.89-13.57-5-4-1-6.42-3-6.64-6.13-.68-9.61-1.29-19.32.85-28.86.51-2.3,2.07-5.64,4.9-4.3,4.47,2.11,9.37,2.05,13.81,3.93,10.88,4.62,21.81,9.13,33,12.9,6.18,2.07,12.51,3.91,18.34,6.74,7,3.4,13.65,7.18,21.64,8,2.33.25,5.05.35,7.32,2.28A29.7,29.7,0,0,0,154,239.31a35.57,35.57,0,0,1,8.54,2.46,338.61,338.61,0,0,0,31.62,12.7c10.65,3.65,21.74,6.1,31.8,11.37,3.82,2,8.06,2.61,11.85,5,5.59,3.47,11.33,7.15,18.28,7.74a13.47,13.47,0,0,1,4.77,1.25c11.75,5.84,24.13,10.07,36.39,14.62,2.29.85,3.37.78,3.88-1.73.94-4.65,2.68-9.26,2.81-13.92.2-7.57-1.51-9.11-9.35-10.68-3-.6-6-1.61-8.09-3.48-3.33-3-7.24-4-11.24-4.91a181.39,181.39,0,0,1-41.89-14.95c-3.17-1.62-6.45-4.26-9.83-4.34-7.73-.17-13.61-4.74-20.42-7-3.6-1.18-6.1-4.36-9.44-5-9.08-1.78-16.82-6.79-25.36-9.85-10.33-3.7-19.83-9.83-30.51-13-2.63-.77-3.33-4.23-6.63-3.87-6.5.7-11.52-2.5-16.07-6.65-1.78-1.62-3.66-3.05-6.18-2.8-7.88.8-13.56-4.6-20.12-7.33-5.09-2.11-10.12-4.6-15.27-6.54a166.29,166.29,0,0,1-27.66-12.86c-2-1.24-3.72-2.9-3.69-5.56.07-7.81-.11-15.63.4-23.41.23-3.58,1.52-7.71,6.41-7.4,2.91.19,6.29.81,8.52,2.48,7.52,5.6,15.82,9.26,24.33,13.13,12.23,5.58,24.43,11.44,36.43,17.62,4.09,2.1,8.55,3.43,12.59,5.72,5.93,3.36,13.26,4.52,18.52,8.06,6.8,4.57,14.42,6.95,21.44,10.54,10,5.1,19.57,11.12,30.17,15.13,2.48.94,5.15.55,7.47,2.13a159.79,159.79,0,0,0,32.76,16.52c8.54,3.27,16.14,8.32,24.16,12.58,5,2.63,9.56,6,14.74,8.11,8.6,3.54,17.14,7.14,25.16,11.88,1.05.62,1.87,2.07,2.75,1.6,2.9-6.38.43-12.73,2.44-18.82,1-3.15.49-6.5-3.82-7.89a78.06,78.06,0,0,1-10-4.5c-6.12-3-13.79-3-18.78-7.63-7.48-6.9-17.12-9.31-25.75-13.35a236.33,236.33,0,0,1-24.34-13c-7.82-4.83-16.48-7.79-24.1-12.78-3.64-2.38-8.77-2.86-11.37-5.49-4.21-4.26-9.63-5.29-14.39-7.41-7.69-3.42-15.17-6.93-22.09-11.76-2.88-2-5.7-4.48-9.42-5.05-6-.92-10.83-4.55-15.84-7.51A205.55,205.55,0,0,0,107,127.05c-7.24-3.09-14.55-6-21.1-10.41-7.29-4.87-15.36-8.3-22.87-12.73-2.69-1.58-5-4-7.77-5.22-8.1-3.59-10.54-7.09-10.55-16.06,0-6.17,1.73-12.16,1.63-18.37-.06-3.44,5-5.32,7.93-3.09.89.69,1.51,1.66,2.67,2.1C67,67.12,75.22,74.64,85.4,78.44a9.76,9.76,0,0,1,3,2.55c2.37,2.42,5.39,3.8,8.33,5.31s6.49,2.72,9.08,4.87c6.84,5.69,14.5,9.85,22.53,13.44a53.09,53.09,0,0,1,9.92,5.69c5.69,4.19,11.89,7.66,17.74,11.64,7.12,4.83,15.79,7.15,23,12.33s15.52,8.38,23,13.07c5.6,3.49,10.19,8.85,16.72,10.48,6.17,1.53,10.82,5.7,16.47,8,4.93,2,7.78,7,12.84,9,13.33,5.08,24.27,14.55,37.25,20.39,5.43,2.45,9.85,7.07,15.17,9.89,3.57,1.89,6,5.09,9.7,6.75,2.27,1,3.67,1,3.47-1.81-.33-4.47.85-8.6,2.43-12.64.94-2.4.13-4-2-4.86-4-1.67-7.44-5.29-10.94-6.31-8.85-2.59-14.36-9.68-21.46-14.28-9.25-6-19.46-10.25-28.57-16.67-6.48-4.56-13.47-10.18-22.08-11.88a9.31,9.31,0,0,1-5.47-4c-2.11-3.55-5.28-4.84-8.82-5.87-1.26-.37-3-.06-3.69-1.27-4.09-6.8-12.62-6.71-18.18-11.93a62.11,62.11,0,0,0-14.19-9.34c-6.62-3.33-11.87-9.26-19.55-11a5.73,5.73,0,0,1-2.91-1.79c-3.6-4.19-8.66-6.31-13-9.4C139,84.32,131,82.56,125.44,76.88c-6.41-6.6-15-9.84-22.55-14.55C96.26,58.18,89.78,53.65,83,49.68c-5.1-3-9.67-6.88-14.63-9.8C63,36.71,57.32,34,52.44,30c-1.26-1-3.3-1.45-3.56-3.29-1-6.77-1.34-13.62.95-20.17,1.47-4.19,5.67-4.84,9.09-1.74,1.13,1,2.1,2.13,3.69,2.37,7.2,1.12,12.25,6.38,17.8,10.19,6.09,4.19,11.78,9,18.36,12.5,1.73.92,3.89,1.1,5.07,3,3.29,5.24,8.57,8.31,13.67,11.06a123.28,123.28,0,0,1,18.76,11.8c5.19,4.16,10.39,8.71,16.13,11.49,9.17,4.45,17.12,10.24,24.85,16.59,1.15.94,2.32,2.23,3.65,2.5,4.75.93,7.94,4.15,10.9,7.39a26.52,26.52,0,0,0,8.8,6.33c11.93,5.19,21.84,13.43,32.68,20.25,5.33,3.35,10.91,6.28,16.27,9.34,4.79,2.73,10.31,6.25,14,11.22a6.6,6.6,0,0,0,3.44,2.78c4.45,1.17,7.69,3.69,11.2,6.9,7.09,6.47,15.7,11.2,23.07,17.52,5.34,4.58,13.53,4.76,17.95,11,.2.29.89.23,1.29.33.85-1.9,1.59-3.74,2.49-5.51,1.38-2.74.84-5-1.9-6.26-4.33-1.94-7.07-5.55-9.86-9a12.59,12.59,0,0,0-6.44-4.15c-3.25-1.08-7.74-.49-9.63-3.25-7-10.14-17.93-14.88-27.64-21.13-6.79-4.36-11.79-10.86-18.92-14.52-4.34-2.24-6.93-7-11.38-8.44-8.15-2.61-12.1-12.14-21.61-12.37-2.61-.07-1.81-4.71-3.92-5.25-7.78-2-11.42-10.28-19.47-12-5.82-1.28-8-8-13.73-10.49-7-3-12-9.41-18.25-13.67-9.93-6.77-20.09-13.2-29.69-20.47-8.7-6.58-18.25-11.86-27.45-17.67-2.9-1.83-4.4-4.36-3.06-7.54S104,3.9,107.16,4.89a20,20,0,0,0,5.43.64,32.71,32.71,0,0,1,20.29,7.69c6.21,5.42,13.92,9.2,18.88,16.15a6.57,6.57,0,0,0,4.84,2.31c4.24-.16,6.66,2.58,9.21,5s5.57,4.51,7.82,7.48c1.26,1.66,2.51,3.84,5.12,4.46,7.23,1.71,11.45,7.8,16.76,12.21,4.05,3.37,7.59,7.33,13,8.55a5.44,5.44,0,0,1,3.93,2.71c2.27,4.07,6.2,5.82,10.4,7.07.93.27,2.22,0,2.64,1,2.89,7.23,10.89,8.91,15.44,14.3,2.16,2.56,5.68,2.15,8.23,4.35,6.82,5.87,13,12.53,21.87,15.93,3.74,1.44,8.07,3.61,10.22,8,1.37,2.82,6.35,3.26,8.09,1,.59-.76,1.94-2.06,0-2.73-6.85-2.34-11.81-7-16.1-12.6a8.37,8.37,0,0,0-6.86-3.56c-1.16,0-3.27.34-2.33-1.92,1.34-3.19-.25-4-2.87-4.89-2.14-.74-4.82-1.87-5.8-3.64-2.93-5.3-7.66-7-13-8a42.56,42.56,0,0,1-4.4-.77c-1.61-.48-2.32-1.39-.51-2.66,3.83-2.67,1.72-4.17-1.13-5.39-4-1.7-8.07-3.49-11.06-6.47-4.56-4.57-10.14-7.86-14.91-12.19-4.95-4.5-10.51-9.71-17.57-11.83-1.44-.43-2-1.75-2.62-2.88-3.45-6.08-11.63-6.16-15.22-12-.12-.2-.66-.28-.95-.2-2.91.75-4.69-1.12-6.41-2.88-3.78-3.88-7.33-8-11.52-11.45-1.23-1-1.83-3.23-2-5-.33-2.9.32-4.55,4.26-3.77a29.41,29.41,0,0,1,13,5.57c5.13,4,8.13,3.29,13.36-1.64,1-.95,2-.82,3.16-1,4.68-.56,7.58,2.92,11.24,4.69,3,1.43,6.05,4.19,9.1,0,3.93-5.38,6.72-5.78,12.11-1.68,2.89,2.19,5.23,5,8.76,6.51,4.35,1.85,7.35.58,8.46-4.21,1.07-4.59,2.37-5.14,6.57-2.82,5,2.75,8,7.81,12.94,10.59,2.27,1.28,4.14,3.35,6.89,3.75.31-2.57.6-5.14.93-7.7.22-1.72-.79-4,1.34-4.94s4.22-.19,6,1.22c3.69,2.85,7.43,5.7,10,9.65,1.55,2.42,3.59,2.14,5.68,1.78,2.33-.39,1.76-2.45,1.86-4,.07-1.16,0-2.34.06-3.5.32-4.48,1.67-5.15,5.68-3.34,5.07,2.29,8.57,6.17,11.6,10.62,2.14,3.15,5.7,3.36,8.39,2.42,3.1-1.07,1.44-4,.59-6.41-1.18-3.3.82-5.29,4.47-4.88,4.84.53,7,4.13,9.55,7.62,2.07,2.86,4.86,5.25,8.86,3.76,3.47-1.29,2.37-4.25,2.08-6.84-.39-3.5,1.33-4.65,4.49-3.77a14.76,14.76,0,0,1,9.68,8c1.79,3.59,5.06,6.46,9.16,5.61,3.86-.79,1.4-4.78,2-7.29.47-2.07-.06-4.88,2.4-5.56,2.66-.73,5.31.61,7.07,2.73,2,2.42,3.59,5.19,5.43,7.76,2,2.76,4.61,3.51,7.91,2.71,3.51-.86,3-3.41,2.85-5.92a13.22,13.22,0,0,1,.3-2.48c.23-1.6,0-3.47,2.14-4.05s3.44.68,4.61,2.2a34.17,34.17,0,0,0,3.44,4.27c3.86,3.58,8,6.82,13.31,7.94,1.11.23,2.46.64,3.31-.39,1.15-1.4-.69-1.87-1.09-2.81-1.15-2.69-1.72-5.67.72-7.78s4.29.6,5.92,1.95a27,27,0,0,0,5.7,4,3,3,0,0,0,3.23-.11c9.7-5.63,19.6-10.91,29.11-16.9,4.41-2.77,8-7.32,13.8-7.46S487.15,3.91,492,1ZM622.07,537.25c3.29-2.1,6.45-4.45,9.9-6.22,2.56-1.31,3.69-2.9,3.77-5.77.2-7.47,4.31-13.8,7.21-20.26,1.59-3.54,4.76-6.93,7.09-10.51s2.67-7.78,6.11-10.66c1.64-1.38-.28-2.42-1.65-2.21-5.61.88-9.27-2.75-13.56-5.24-2.48-1.44-3.47-3.08-2.84-5.57a9.37,9.37,0,0,0-2.85-9.52c-1.26-1.22-1.54-4.5-4.18-3.2-2.17,1.07-4.16,3.1-3.58,6,2,9.79-5.27,18.16-3.84,28.19,1.07,7.45-2.07,15.18-1.74,22.89.23,5.25-.44,10-5.13,13.1,1.16,1.47,4.67-1.21,3.6,1.79-1.19,3.34,1.53,4.85,1.81,7.3a6,6,0,0,0-3.73-2.19,1.51,1.51,0,0,0-1.28.41,1.66,1.66,0,0,0,.05,1.23c2.86.53,1.59,3.56,2.87,5.09C622.33,540.84,622.31,539.09,622.07,537.25Zm154.24-87.88c5,.46,10.09.15,13.55-3.66,4-4.43,8.75-8,12.95-12.21a9.67,9.67,0,0,0,2.85-9.6c-1.75-7.15-3.92-7.85-14.59-9.44-12.79-1.91-25.6-3.61-38.25-6.31-2.48-.52-5-.34-5.9-4.08s-.15-6,2.65-8.11a31.61,31.61,0,0,0,6.23-6.42c2.56-3.38,1.8-5.59-1.69-7.63-2.87-1.67-5.74-1.48-8.69-.78a37.36,37.36,0,0,0-11.07,4.42c-3.41,2.1-5.7.77-6.25-3.18a10.76,10.76,0,0,1,0-3.49c1.07-5.45-1.72-8.54-6.39-10.22a49.88,49.88,0,0,1-9.76-4.85c-10.58-6.63-20.17-14.22-26.93-25-3.37-5.36-7.42-9.75-14.75-8.89-2.25.26-4.61-.51-6.92-.75a3.4,3.4,0,0,1-3.14-3.32c-.27-2,1.38-2.31,2.86-2.74s2.77-1.2,4.21-1.54c2.9-.69,3-2,1.35-4.19-2.47-3.29-3.47-7.57-7-10.23a1.64,1.64,0,0,1,.17-2.91c1.1-.56,1.68.44,2.19,1.4,4.19,7.89,13.57,8.35,20.19,2.19,4.18-3.89,7.46-8.68,12.43-11.92,3.28-2.14,5.35-6,9-8.21a3.17,3.17,0,0,0,1.16-4c-.54-.94-1.88-.67-2.79-.37-10.77,3.62-21.73,6.78-32.17,11.19A45.55,45.55,0,0,1,658,298.38c-1.32.12-2.77-.06-3.76,1-3.55,3.81-8.34,4.46-13.07,5.45-2.66.55-5.18,1.59-5.38,5-.28,4.64-.5,9.29-.87,13.93a9.51,9.51,0,0,0,2.2,7,48.4,48.4,0,0,0,16.64,12.82c13.65,6.27,30.07,7.36,40,21.19,2.8,3.91,7,7,9.79,11.16,1.49,2.2,3.5,4,6,4.13,4.42.2,4.39,2.57,3.56,5.69-1,3.85-1.45,7.7,1.63,10.8,2.77,2.79,1.26,2.94-1.47,3.2-4.18.41-7.71,2.08-8.12,6.87-.22,2.67,0,5.29-.41,8-.65,4,2.86,6,6.87,5a16,16,0,0,1,5.44-.15c2.75.29,3.7,2.39,2,4.19-5,5.35-6.09,12.37-9,18.62-2.5,5.38-8.79,7.06-13.14,3.07-2.32-2.13-4.54-2.37-7.18-2.34-7.23.09-8.36-1.53-6.57-8.57a14.79,14.79,0,0,1,3.8-6.76c3.62-3.86,5.89-8.82,10.36-12.06,1.27-.92,1.93-3.17,2.17-4.9a86.49,86.49,0,0,0,.91-11.92c0-7.45-2.16-9.71-9.56-10.64-6.82-.87-13.38-2.5-19.16-6.46a17,17,0,0,0-6.85-2.9c-2-.32-4.53-.38-4.73,2.28-.37,5-3.66,4.76-7.12,4.53-2.49-.17-5-.49-7.47-.5-5.45,0-7.51,2.61-7.63,8-.1,4.94,3.12,7.8,5.64,11.22,3.45,4.67,6.21,10.26,11.3,13.06,4.6,2.54,5,5.67,4.2,9.89-.95,5.23-2.12,10.44-2.68,15.71-.37,3.55-.53,7.55,4,9.15,3.88,1.38,7.2,1.23,8.79-3.5.42-1.23,1.5-2.33,3.12-1.65s2.79,1.65,2.45,3.78c-.44,2.79-.67,5.62-.92,8.44-.18,2.09.13,4.23,2.22,5.17,7.65,3.47,14.85,8.24,23.67,8.52,11.47.36,21-6.51,31.92-8.38.72-.12,1.3-1,2-1.49,2.3-1.75,2.48-3.38.51-5.79-3.83-4.69-3.35-6,2.51-7.51,9.86-2.48,19.81-4.37,29.95-1.67A28,28,0,0,0,776.31,449.37ZM598.23,402.52c1.85-3.34,6.59-4.34,6.39-8.94-.32-7.61-.42-15.23-.89-22.83-.94-15.24-.36-30.57-2.56-45.74-.2-1.38.92-3.22-.78-4.05-1.37-.66-2.4.79-3.47,1.51-7.11,4.82-14.91,3.6-22.66,2.56-1.28-.17-2.66-.63-3-2.27a3.49,3.49,0,0,1,1.9-3.75,28.83,28.83,0,0,1,3.55-1.8c5.91-2.65,11.68-5.68,17.78-7.77,5.3-1.81,6.94-4.54,5.26-9.86-.62-2,.4-4.47-.24-6.42-.79-2.37,3.78-4.76.29-6.18-1.88-.77-4.75.91-7.17,1.49a3.37,3.37,0,0,0-.92.38c-15.53,9.36-32,16.74-48.79,23.46-2,.79-5.56,2.13-4,5.24,2.36,4.6,1.39,9.81,3.49,14.32,1.62,3.5.65,6.9-.24,10.23-2.07,7.71-.31,15.38,1.12,22.73,1,5.34,2.39,10.5,2.61,16,.35,8.88-.65,17.95,3.32,26.46a9.68,9.68,0,0,1-.19,8.27c-1.67,3.53-1.15,7-.11,10.66,2.48,8.7,6.26,17.15,5.2,26.6-.22,2,.4,4.24.78,6.36,1.5,8.45,12.25,14.06,7.46,24.4a1.9,1.9,0,0,0,.21,1.45c1.59,3,1.63,6.35,2.61,9.48,3,9.52,3.41,19.44,4.68,29.23.4,3.09-1.33,6.72,3.43,8.17,1.55.47,1.35,2.87,1.55,4.51.33,2.63.16,5.42,1,7.88,1.46,4.39.19,9.84,3.45,13.22,2.55,2.63,4.18,4.48,2.37,8-.37.72-.7,1.67.17,2.25,1.08.72,1.79-.25,2.57-.84a3.26,3.26,0,0,0,1.44-3.49,48.76,48.76,0,0,1-.82-20.51,4.33,4.33,0,0,0-.52-2.41c-2.46-4.88-2-10-1.4-15.17.23-1.89.38-3.69-.54-5.33-3-5.35-1.43-10.93-1-16.46.2-2.47.92-4.92.88-7.38-.16-9.55,1.36-19,.69-28.63-.67-9.4.09-18.94-1-28.26-1.81-15-1.37-30-1-45,.08-3.89,3.3-6,7.21-6.25,3.42-.22,5.82,1.23,6.36,4.86C595.22,396.34,598,398.89,598.23,402.52ZM470,286.69c-2.36.1-4.64.68-3.79,3,1,2.82-.4,4.17-1.85,5.92-2,2.46-2.06,4.1,1.14,6.29,5.77,4,12.69,6.15,17.53,11.56,1.44,1.61,2.73,3,1.84,5.16a2,2,0,0,1-3,.94c-3.89-2.91-9.23-3-12.71-6.68-1.16-1.22-2.66-2.38-4.39-1.86-2.18.66-1.37,2.79-1.35,4.3.08,8.55-1.57,17,0,25.71,1.1,6.3,2.66,12.75,2.75,19.09a152.47,152.47,0,0,0,2.25,22.94c1.9,11.43,4.4,22.7,7.08,33.9,1.43,6,.21,12.78,4.93,17.86,1.42,1.53,1.68,3.23,1.57,5.44-.54,10.71,6.51,19.15,9.15,29,.11.41.67.71,1,1.06,2.94,3,4.69,6.74,6.68,10.42,3,5.5,6,11.19,11,15.27,5.28,4.33,10.35,8.12,10.64,16.26.12,3.46,2.08,8.6,5.94,10.74,5.3,2.93,7.66,8.38,11.84,12.2.87.79.67,2.94,2.43,2.6,1.3-.25,1.84-1.75,2.45-3,2.86-5.66-.28-9.86-3.4-14-1.37-1.83-3.57-3.15-3.52-5.81.08-4.73-3.08-8.27-5-12.06-4.71-9.2-13.51-16.25-14.4-27.52a6.11,6.11,0,0,0-1.14-2.2c-3.21-5.37-5.93-11-7.2-17.14-.68-3.3-2.31-6.19-3.53-9.27-2.18-5.54-5.16-10.64-5.52-17.12-.45-8.11-.52-16.33-1.81-24.38a74.66,74.66,0,0,1-1.37-14.88c.6-14.67-4.73-28.7-4.07-43.54a84.51,84.51,0,0,0-3.3-27.05c-2.11-7.22-1.62-7.8,5.8-8.67,2.5-.29,5-1.77,3.7-3.88-1.41-2.29-2.06-5.13-5-6.92-7.1-4.41-16.13-5.77-21.37-13.21C471.62,286.65,470.41,286.77,470,286.69ZM664.81,120.15c.61-3.82,3.75-4.78,6.25-4.82,3.32-.07,4.84,3,5.68,6,.63,2.16,0,4-2.5,4.61-1.64.36-3.42.31-3.28,2.77.16,2.79,2.2,2.36,4,2.45,1.53.07,3.16,1.72,2,2.29-4.9,2.35-1.53,9.4-6.89,11.23-1,.33-1,1.64-.68,2.67a1.64,1.64,0,0,0,1.84,1.32c1.21-.17,1.5-1.11,1.59-2.18.16-1.86,1.22-2.39,2.7-1.4,1.64,1.1,2.6-.06,4-.51,2.39-.78,3.53-2.88,5.33-4.2,6.52-4.78,15-6.65,20.13-13.45,1.46-1.94,3.11-1.77,4,.81.33,1,.75,2,2.06,1.39,1-.48,1.12-1.55,1.19-2.58.14-2.11-2.33-3.29-1.83-6.24,3.52,1.8,5.63-.21,7.88-2.69a8.32,8.32,0,0,1,6.74-2.84c5.69.53,6-3.11,6.29-7.19.17-2.18-1.42-4.49.2-6.67,2.3,1.18-.8,5.29,2.71,5a20.16,20.16,0,0,0,7.92-2.81c2.15-1.22-.46-2.43-.65-3.7,0-.3.05-.87.16-.89,3.95-.77,5-4.23,6.89-7,.66-1,3.21-1.58,4.15-.5,5,5.73,8.92-4.88,13.66-.74a4.06,4.06,0,0,1,.5-.84c2.52-2.47,5-4.94,7.59-7.36a25.19,25.19,0,0,1,5.86-4.4c1.68-.87,4.07-5.51.83-8.73-1-1-1.72-2.19-.56-2.92,4.15-2.63,5.17-4.67-.55-6.35-.36-.1-.63-.78-.77-1.24-.75-2.48-2.17-1.68-3.89-1.05-4.6,1.68-7.86,5.49-12.25,7.49-1.55.71-3,2.91-4.67.68s-.72-4,1.67-5.42c-2.24.62-3.87-.8-5.73-1.24-2.77-.66-5.49-1.05-7.89,1.32-2,2-.52,3.74.23,5.43.94,2.14,1.69-.25,2.31-.21,2.26.14,5-.07,6.42,2s-.2,4-2.07,4.91c-5.76,2.84-9.55,8-14.32,12-3.4,2.85-5.33,3.77-8.91,4.4-1.49.26-2.12,0-2.49-1.47-1.5-5.89,4.14-12.87,10.33-12.58,1.25,0,2-.15,1.92-1.46s-.08-2.43,1.18-3c1.43-.66,3-1.21,1.88-3.18-.89-1.56-2.5-1.17-4-1.11-3.83.13-7.35,2.75-11.46,1.19-1.1-.42-2.5.65-2.67,2.29.27.21.5.44.77.61,1.06.67,3.21-2.14,3.38.84.1,1.65-1.2,2.07-3.13,2.07-2.42,0-4.87,1.67-5.62-2.43-.15-.76-2-2.5-4.42-2.17,1.64,3.64,1.38,7.17,1.15,10.6-.29,4.26-.61,8.67-4,12-2,1.91-8.22,2.14-8,.54.79-5.26-3.56-7.9-5.33-11.82-2.15-4.8-2.64-4.93-6-1.36-1,1-2,3.33-3.27,2.08-1.58-1.53,0-3.42,1.63-4.42a5.94,5.94,0,0,0,2.84-3.25c1.51-4.49.84-5.47-3.94-5.32-4.09.12-7.13,3.66-7.8,9.51-.16,1.44.71,3-1.57,3.4-2,.38-3.57.9-5.44-.92-4.51-4.37-4.55-4.18-6.75,1.33a32,32,0,0,0-1.8,5.65c-1.2,6.21-4.29,11-10.68,12.76a6.2,6.2,0,0,0-4.81,5.11c-1.51,7.11-3.07,14.21-4.26,21.37-.25,1.53.37,4.22,2.49,4.26s2.2-2.3,1.74-3.87c-.8-2.81.91-4.28,2.86-5s4.39-1,6.13,1.23a7.89,7.89,0,0,0,2.66,2.22c2.57,1.22,3.06-2,4.85-2.58.71-.25.89-1.48.21-2.18C667.18,118.05,666.61,120.81,664.81,120.15Zm-243,240.07c-1.39-11.49-2.13-19.72-3.45-27.87-1.16-7.13-.44-15.79-11-17-.9-.1-1.7-1-2.57-1.49-3.93-2.16-7.9-4.26-11.8-6.46-3.19-1.79-4.48-1.56-4.72,2.71-.39,6.94,1.8,13.43,2.41,20.14.38,4.29.89,8.18,3.55,11.61,3.28,4.22,2.54,8.38-.43,12.32-1.29,1.72-1.46,3.41-1.53,5.52-.11,3.39,2.5,6.44,1.29,9.71-1.72,4.61-.29,8.66,1.1,13,3.35,10.41,4.13,21.33,10.77,31.06,5.35,7.85,7.26,18,14.45,25.13a9.8,9.8,0,0,1,1.58,3.05,51.64,51.64,0,0,0,7.2,11.84,101.83,101.83,0,0,1,13.51,20.48,13.68,13.68,0,0,0,2.93,4.2,67.05,67.05,0,0,1,8.32,10.66c.76,1.13.39,3.28,2.59,2.67,2-.55,2.11-2.37,1.73-4.12-1.8-8.26-5.9-15.68-9.23-23.32-1.24-2.85-3.09-5.48-3.72-8.71a19.6,19.6,0,0,0-1.67-4.11c-3.34-7.42-6.66-14.85-9.62-22.44-2.21-5.68-4.21-11.84-8-16.45-6.39-7.87-6.7-7.34-2.89-16.4,2.3-5.46,4.89-11.63,2-17.25C421,371.59,423.28,364,421.79,360.22ZM838.52,70.71c-2.12-1.85-3.59-4.78-6.6-5.6-2.06-.56-3.1-3.79-6.08-2-8.41,5.17-18,8.52-25.43,15.19-6.6,5.92-15,8.87-21.93,14.13s-14,10.55-21.85,14.6a105.41,105.41,0,0,0-16.89,10.72c-10.29,8.14-21.72,14.42-32.53,21.57-8.55,5.67-17.44,11-26.29,16.34-4.25,2.54-7.51,6.66-12.21,8.14-6.7,2.11-13.7,3.35-16.68,11-.35.91-1.29.6-2.08.76-5.16,1-10.7,1.45-13.12,7.39a2.76,2.76,0,0,1-1.05,1c-4.12,2.88-.66,6,.55,8.06,1,1.6,3.73,6.32,7.12,1.38a3.53,3.53,0,0,1,2.2-1.08c6-1,10.77-4.26,15-8.32,4.58-4.42,10.49-6.91,15.67-10.31a115,115,0,0,1,15-8.59c4.47-2,7.59-5.73,11.59-8.34,3.71-2.41,8.42-2.23,11.56-5.48,3.94-4.06,9.46-5.85,13.69-9.64,2.28-2,4.51-4.89,7.3-5.76,9.24-2.88,16.56-9,24.65-13.8,5.21-3.07,8.7-8.19,14.75-10.93,18-8.14,33.92-19.81,49.72-31.62,3.4-2.54,8.09-3.48,11.63-6.21C837,72.72,838.36,72.39,838.52,70.71Zm27.16,121.7c.48-2.33-4-1.52-2.58-3.27,3.2-4-1-4.79-2.52-5.58-3.72-1.95-7.86-3.11-11.89-4.44a3.85,3.85,0,0,0-2.36.55c-11.18,5-23.3,7.67-34,13.75-7.82,4.43-16.47,6.82-24.61,10.32-13.92,6-27.26,13.28-41.86,17.66-1.47.44-3.45.19-4.32,2,.6,1.3,1.88,1.33,3,1.61,3.86,1,7.75,1.88,11.62,2.81,1.77.42,4.09.48,4.45,2.58s-2,2.77-3.44,3.81c-4.86,3.62-10.5,5.62-16.07,7.87-8.11,3.28-16.92,5.06-23.85,11-2.05,1.76-3.94,3.55-2.27,6.26,1.49,2.44,3.9,2,6.21.9,10-4.81,21.16-6.36,30.93-11.79,8.77-4.87,18.83-6.42,28-10.35,4.56-2,8.69-5.48,13.39-6.44,9.09-1.84,16.42-7.39,25.6-10.27-1.86-1.93-5.48-3.61-2.7-6.1,5.13-4.59,10.26-9.92,17.46-10.72,6.38-.7,11.74-3.06,17.13-6.21C855.5,195.72,859.92,192.27,865.68,192.41Zm-42.56,55c-3.18-1.5-5.23-.17-7.43.4-10.73,2.8-20.86,7.62-31.81,9.58-9.72,1.74-18.17,7-27.7,9.39-6.8,1.69-13.09,5.06-20,7a53,53,0,0,0-28.7,19.87c-.29.38-.81.58-1.17.93-5.11,4.93-10.28,9.8-15.27,14.85-1.53,1.55-4.08,3.67-2.38,5.82,1.29,1.64,4.07,0,6-.8,10.76-4.73,22.38-6.75,33.37-10.74,3.24-1.17,6.81.15,9.84-1.12a89.47,89.47,0,0,1,19.29-5.86c1.4-.25,3.69-.46,2.94-2.43-2.13-5.56,2.6-5.49,5.21-6.05,13.6-2.94,27.35-5.24,40.93-8.27,4.44-1,9.37-.53,13.29-3.71,1.38-1.12,3.57-1.51,3.47-3.79-.13-2.65-2.3-3.28-4.38-4.11-6.85-2.75-14.13-3.73-21.21-5.5-1.41-.35-3.21-.43-3.3-2.41-.07-1.58,1.29-2.11,2.56-2.68,4.7-2.12,9.42-4.14,14.25-6C814.74,250.38,819.06,250.31,823.12,247.43Zm-462.4,131.3c.46-5-.82-8.13-1.59-11.32-.45-1.89-1.46-4.29-4.07-4.57-4.92-.51-11.37,6.05-11.18,11,.45,12.32,5.71,23.31,9.61,34.64,1,2.84,1.46,5.85,3,8.71,2.2,4,5.57,7.8,6.21,12.35,1,7.08,6.35,12.26,7.25,19.34s9.63,8.31,11.47,15a12.42,12.42,0,0,0,3.83,6.31c8.95,7.39,13.34,18.5,21.59,26.48,4.21,4.06,7.5,9.07,12.8,12a8.47,8.47,0,0,1,3.11,2.38c5.7,8.79,14.21,14.27,23.38,18.22a52.93,52.93,0,0,1,16.22,10.27c1.87,1.79,3.46,2.2,5.45,0,1.81-2,2.81-4,.74-6.07-2.22-2.22-4.6-4.8-7.41-5.76a12.15,12.15,0,0,1-7.36-6.19c-2.66-5.13-7.87-7.39-11.87-11-6.26-5.58-13.83-9.63-19.31-16.11-6.13-7.26-14.23-12.94-17.82-22.24-.45-1.17-1.73-1.43-2.74-2-5.07-2.95-7.83-8.34-12.37-11.9-1.21-.94-.71-2.52-.06-3.71a2.93,2.93,0,0,0-.64-4c-3.62-3-5.29-7.36-7.84-11.12-4.05-6-6-12.83-9.09-19.21a91.15,91.15,0,0,1-6.43-19C363.82,393.27,362.14,385.26,360.72,378.73Zm426.44-242c-8.38-8.7-15.62-10.8-23.72-6.44a147.15,147.15,0,0,0-17.35,10.63c-7,5.12-15.19,8.62-22.68,13.14-8.62,5.19-17.1,10.62-25.49,16.17-3.48,2.3-7.94,2.41-11,5.56-3.39,3.46-7.57,5.78-11.8,8.19s-9.2,3.49-12.67,6.77c-7.43,7-17.47,9.95-25.07,16.67-2.61,2.31-6.16,3.15-9.66,3.79-1.56.29-3.66,1.11-3.35,3.09s2.45,1.1,3.82,1.12c3.31.07,6.87-.59,8.46,3.52,1.42,3.69,3.51,3.49,6.59,1.69,4.45-2.6,8.36-6.7,12.94-8.18,8.27-2.68,14.69-8.22,22.27-11.81,3.85-1.83,6.38-5.93,10.09-7,5.29-1.58,9.4-4.81,14.12-7.08,6.13-3,11.14-7.7,17.67-10.12,2.62-1,6.1-1.45,8.11-4.29,4.1-5.8,8.82-10.84,16.27-12.31a48.4,48.4,0,0,0,18-7.83C770.62,146.52,779.55,142.7,787.16,136.7ZM638.9,237.22c-.31,3.94,1.23,6.84,1.74,9.94.72,4.38,5.74,7.25,8.46,4.26,3.55-3.92,8.24-4.73,12.45-6.67,12.81-5.89,24-14.74,37.4-19.62,2.07-.76,7.41-.8,4.56-6.07-.11-.21,1-1.27,1.64-1.64,7-3.78,13.65-8.73,21.11-10.95,13-3.89,24.43-11.21,37-15.83,2.28-.83,4.52-2.17,4.43-4.8s-3-2.79-4.9-3.53c-4.74-1.86-10.1-.44-14.73-1.77-8.07-2.31-15.34.79-20.89,4.53-5.78,3.89-11.87,6.84-17.87,10.12-10.72,5.88-21.94,10.94-32.36,17.17-10.85,6.47-22.6,11.12-33.24,17.92C640.54,232.33,638.42,234,638.9,237.22Zm153.45,147c1.53.8,3,2.17,4.61,2.3,11.22.94,20.19,6.88,29.36,12.55,11.55,7.15,27.25,4.71,36.49-6.77,6.15-7.65,10.9-16.22,17-23.82,1.38-1.71,3.39-3.39,2-5.62-1.56-2.45-4.27-1.36-6.37-.65-10.49,3.56-21,7-32,8.91-2.12.37-4.49.73-6.15,1.92-4.68,3.36-10.06,4.14-15.48,4.86C811.89,379.23,802.53,383.34,792.35,384.22Zm-86-117.77c0-.45,0-.89,0-1.34l-12.9-3c-1.19-.28-2.26-.63-2.26-2.17a2.36,2.36,0,0,1,1.51-2.36c6.32-2.53,11.51-7.72,18.24-8.91,7.18-1.27,12.31-6.11,18.58-8.86,3.25-1.42,6.05-4.06,4.13-7.77-2.18-4.21-6.1-2.75-9-.71-10.61,7.33-23.31,9.87-34.8,15.24-13.83,6.47-28,12.35-42,18.55-3.7,1.64-3.59,3.71-2.43,6.66,1.65,4.19,4.9,7.69,6.24,11.8s3.44,3.83,6.45,3.3a15.32,15.32,0,0,0,5.95-2.44,40.46,40.46,0,0,1,11.85-5.78C686.69,275.84,695.37,268.4,706.38,266.45Zm63.4-98.88c5.4-.07,3.48,4.85,6.23,5.56,10.54,2.72,21.06,5.65,31.64-.55,6.42-3.76,13.4-6.57,20-10,1.7-.87,4.73-1.51,4.63-3.21-.17-2.62-3.39-1.84-5.31-2.52-1-.35-2.67,0-2.32-1.77.25-1.27,1.46-1,2.47-.84,6.13,1,11.89-2,18.05-1.6a8.47,8.47,0,0,0,6.88-3.61c1.45-2.08,5.06-4.17,2.47-7.41-1.71-2.16-3.69-4.38-6.39-5.46-3.71-1.49-5.5-3.31-1.92-6.81a2.38,2.38,0,0,0,.46-3.18c-.68-1-1.76-.47-2.75-.42-6.27.31-10.14,5.34-15.33,7.78a1.51,1.51,0,0,0,0,2.8c3,1.59,2.64,6,6.31,7.12,1.81.57.62,2-.14,3.19-3.47,5.35-9.31,4.9-14.48,6-5,1-10.34.94-14.94,2.8C794.37,159.88,782.47,161.47,769.78,167.57Zm-164.53-62.7a6.42,6.42,0,0,1-1.9.2c-7.27-1.94-8.66-1.33-11.57,5.5a2.68,2.68,0,0,1-1.71,1.61c-4.49,1.16-6.37,5.79-10.35,7.64-1.09.51-2,2.44-3.18.82-1-1.28.31-2.68,1.39-3.33,5.18-3.13,5.82-11,12.8-12.26.6-.11,1.2-1.19,1.47-1.94,1.58-4.3,4.84-7.48,7.36-11.15,2-2.85,1.88-6,1.52-9.12-.25-2.14-1.22-3.17-3.74-1.57-7.19,4.56-11.32,11.91-16.86,18a3.28,3.28,0,0,0-.7,1.8c-.2,2.26,4,1.35,3,3.66-.69,1.72-3.6-1.15-4.84,1.62-1.49,3.3-3.75,6.24-5.4,9.48-1.15,2.25-2.06,5.64-.11,7,5.33,3.76,1.47,5.69-1.08,7.73-3.13,2.51-2.59,6-2.4,9.06.13,2.09,2.73,2.76,4,.57s3-2.77,5-3.66,4.83-2,5.14-3.52c1.45-6.8,7.58-9,11.65-13.21,3-3.14,7.64-5,8.55-10a2.15,2.15,0,0,1,2.19-1.73c6.54-.19,7.83-4.88,8.58-10,.38-2.63,1-5.92-1.11-7.5s-3.16,2-5,2.9C601.84,96.52,601.34,98.94,605.25,104.87ZM497.28,127c0,1.93.32,3.56,2.65,4.17,3.16.84,5.2-.35,7.43-2.59,8.44-8.47,13.48-19.54,21.85-28.07,1.59-1.62,3.78-4.22,2.11-7.13s.09-3.36,2.1-4.3a7.09,7.09,0,0,0,2-11.07c-.69-.74-1.72-1.25-1.15-2.38s1.68-.87,2.67-.94c1.78-.15,4.47.65,5.08-1.09,1.43-4.07,4.9-7.45,4.94-11.8a11.22,11.22,0,0,1,4-9.13c1-.91,2.78-2.37.93-3.59-1.34-.88-2.27,1-3.34,2.06-2.92,2.87-3.73,6.92-6.23,10-4.68,5.79-9.41,11.57-13,18.18-.86,1.61-1.61,3.44-2.9,4.62-8.12,7.46-12,18-19.09,26.18-1.81,2.1-2.64,5-6.25,4.87-2.26-.1-1.84,1.87-1.28,2.85,1.35,2.37.61,3.88-1.23,5.48A4.57,4.57,0,0,0,497.28,127Zm85.66-38.84A130.64,130.64,0,0,0,594.49,75c6.69-8.31,14.6-15.68,21.39-24.05,4.85-6,5.67-8.16,1.83-15.08a6.65,6.65,0,0,1-.44-5.6c1-3.66,2.69-7.2,2.66-11.12,0-2.4-.93-4.08-3.61-3.12-6.51,2.33-12.47,11.34-12.2,18.26,0,1.17-.59,3.15,1.48,3,5.72-.35,3.11,2.76,1.92,4.76-2.89,4.84-8,8-9.45,14.14-.71,3.12-4.1,5.55-5.8,8.56-1.4,2.47-2.78,4.3-5.86,4.48-1.48.09-3.37.88-2.69,2.77C585.68,77.52,584.89,82.72,582.94,88.15ZM567.25,279.61c-4.16,2.22-9.81.78-14.23,3.21-3.15,1.73-5.6,4.51-9.68,4.09-1.46-.16-3,1-2.87,2.24.58,5.53-3.49,9.4-4.7,14.25-.43,1.74.16,3.2,1.73,2.13,3.61-2.48,8.12-2.69,11.64-5.41a58.41,58.41,0,0,1,10.43-6.29c7.89-3.78,15.94-7.22,23.9-10.84,2.66-1.21,4.29-3.1,3.63-6.26s1.17-5.27,3.55-7c1.61-1.17,3.23-2.33,4.81-3.55s1.79-2.57.93-4.38c-.91-2-2.26-2.82-4.34-2.41a8.93,8.93,0,0,0-4.8,2.49,26.74,26.74,0,0,1-9.66,5.95c-2.34.93-6.43,1.56-5.72,4.23.62,2.34,4.25.7,6.56,0a3.72,3.72,0,0,1,4.07,1.23c1.1,1.27-.32,2-.84,2.93-3.4,6.29-3.37,6.28-10.85,3.88A23.07,23.07,0,0,0,567.25,279.61ZM635.59,625a9.06,9.06,0,0,0,2.76.21c4-1.16,8.93-1.12,11.26-4.79,1.23-1.93,2.13-4.51,3.73-6.18,2.27-2.37,2.57-5.3,3.54-8.06.35-1,.59-2.14-.43-2.68a2.42,2.42,0,0,0-2.24.43c-2.11,2.08-4.82,1.94-7.41,2.4-5.34.94-12.57.28-15.56,3.5-5.48,5.89-16.78,7-16.32,18.16,0,1.08-1.55,1.54-2.62,2a22.6,22.6,0,0,0-4.3,2.41c-1.59,1.2-1.42,2.87-.52,4.48.66,1.19,1.48,2.48,3,2,2.53-.7,5.23-1.29,7.41-2.65,2.48-1.56,5.11-4,3.74-7.27-.8-2-1.26-2.81.37-4.55a4,4,0,0,1,5.15-1.11C630,624.48,632.8,625.4,635.59,625ZM598.73,236.33c-.8-1.12,1.3-3.84-1-4.36-1.54-.34-3.66,1.15-5.3,2.17-1.37.86-2.23,2.62-3.65,3.31-3.16,1.55-4.5,5.71-8.4,6-6.27.43-11.8,2-14.37,8.52-.7,1.8-1.71,1.11-2.7.41-3.86-2.73-6.43.85-9,2.35-2,1.15-2.61,4.21-1,6.71a4.45,4.45,0,0,1,.23,4.72c-.51,1-1.48,2.17,0,3a2.29,2.29,0,0,0,3.35-1.18c1.09-2.2,3-2.15,5-2.43,3.8-.52,7.52-1.41,9.46-5.36.56-1.14,1.74-1.51,2.84-1.88,4.88-1.65,10.52-2,12.76-8,.15-.39,1.18-.48,1.81-.64C596.32,247.75,598.57,244.85,598.73,236.33ZM338.19,316.58c0,1,0,2,0,3-.05,3.42.47,6.43,3.52,8.79s6.17-1.84,8.88.81c.06.05.75-.29.78-.51.7-4.42,3.25-8.72,2.5-13.12-1.05-6.07-2.71-11.92-.1-18,1.1-2.55.69-5.23-1.83-6.52a91.82,91.82,0,0,0-11.92-4.9c-2.17-.75-3.67-.78-3.94,2.83C335.38,298.33,339.49,307.25,338.19,316.58Zm52.41-26.91c-.79,3.53,1.89,5.24,5,6.64,6,2.68,12.17,5.17,18.06,8.17,3.31,1.68,5,1,5.89-2.36.79-2.87,1.9-5.74,2.14-8.66.22-2.57,1.46-5.93-1.71-7.6A111.86,111.86,0,0,0,405.19,279,11.15,11.15,0,0,0,390.6,289.67ZM629.68,414.58c0-10.35,0-10.35-7.64-12.62-5.49-1.63-9.74,1.64-9.46,7.41.24,5,.65,10,1,15a10.15,10.15,0,0,0,2.11,5.51c3.44,4.44,8.51,3.88,10.77-1.2C628.62,423.9,630.62,419.15,629.68,414.58ZM501.9,152c2.07.5,3.29-1,4.21-2.93a4.57,4.57,0,0,1,4.1-3c3.93-.34,10.62-7.61,9.95-11.59-.83-4.91,1.36-8,4.07-11.35a23.71,23.71,0,0,0,2.71-5.31c.45-1,1.27-2.25-.23-3-1.05-.54-1.74.55-2.6,1-2.91,1.53-2.36,5.73-4.88,7-6.4,3.21-9.07,9.25-12.42,14.84-3.65,6.11-5.65,6.32-10,1.05q-1.57-1.92-3.06-3.92c-1.3-1.75-2.76-4.17-5.1-2.4s-.49,3.91.73,5.7c2.79,4.12,8.16,6.35,8.72,12.19C498.27,151.64,500.18,151.7,501.9,152ZM801.84,51.23c-.47,3.69-1.74,6.18-3.85,6.49-3.78.54-4.89,3.58-7,5.74s-1.26,3.86.93,5.32c3.68,2.46,9.16,1.44,12.65-2.07,2.88-2.89,6-5.55,9.11-8.21.9-.78,3.09-.19,2.87-2-.17-1.42-2-1.65-3.13-2.19-3-1.4-6.76-1.13-9.16-3.44-3.5-3.37-6.29-4.47-9.83,0-1.33,1.67-3.78,2.31-4.83-.9-.36-1.11,1.19-3.14-.87-3.25a4.65,4.65,0,0,0-4.43,2.68c-.82,1.87.82,2.65,2,3.54s3.09,1.61,2.38,3.82c-.25.78-.67,1.67.36,2.14s1.56-.22,2.15-.83C794,55,797.9,54.17,801.84,51.23ZM697.53,504c-.66-2.87-3.18-3-5.39-3.43-3.53-.75-7-1.5-9.09-4.93-.8-1.33-1.9-2.6-3.53-2.25-2,.42-2.31,2.39-2.14,4,.83,8-2.09,15.75-1.41,23.71.17,2-.15,3.66-2.52,4.09-1.24.22-2.21.74-2.14,2.25a1.66,1.66,0,0,0,1.51,1.67c1.42.24,2.67,0,3.33-1.5s.73-2.76,2-3.91c3.5-3.24,6.44-7.18,10.27-9.93,3.49-2.52,4-7.81,8.81-8.82C697.36,504.94,697.4,504.39,697.53,504ZM345.83,210.72c-.91,0-1.39.5-1.83,1.6-3.95,9.93-1.87,17.14,6.85,23.3,4.3,3,6.91,2.5,9.21-2.43,1.54-3.3,0-7.23,1.54-10.67.12-.26-.66-1.14-1.19-1.43a31,31,0,0,1-8.15-7.2C350.71,212.11,348.28,211.58,345.83,210.72ZM483.35,44.35c-1,1.28-2.15,2.59-3.14,4-1.24,1.75-3.17,2.24-5,3a3.07,3.07,0,0,0-1.77,3.27,18.42,18.42,0,0,1-1.23,6.79c-.82,2.42,2.76,8.51,5.53,9,3.49.61,3.75-3,4.46-4.93,2.08-5.68,4.15-11.19,9.43-14.78a2.37,2.37,0,0,0,1-3.07c-1.62-2.72.06-3.89,2-5.1,1.77-1.1,1.79-2.79,1.05-4.38-1-2.14-2.83-1.23-4.31-.65-2.8,1.1-3.9,3.39-4.05,6.28-.09,1.72.56,3.75-1.62,4.77C483.71,47.81,485.45,45.2,483.35,44.35Zm-80.14,176.5c-1.49.14-2.29,1.12-1.79,2,2,3.63.39,7.09-.11,10.62-.3,2.17.77,3.77,2.35,5.22,3.69,3.38,8.89,3.75,12.9,6.7,1.69,1.26,4.95-.24,6.55-2.21,1.39-1.71.76-3.84-.64-5.52-2.63-3.13-2.5-8.71-8.22-9.15-.6,0-1-1.31-1.68-1.75C409.43,224.73,406.23,222.76,403.21,220.85ZM346,194.39c-.36,3,0,5.65,3.15,6.67s5.3,3.1,7.61,5.3c5,4.76,7.33,4,9.17-2.53.32-1.11.25-2.42.82-3.36,2.53-4.19-.37-6.59-3.28-7.85a55.88,55.88,0,0,1-12.56-7.78c-1.07-.84-2.75-1.15-2.71.2C348.27,188.5,345.17,191.07,346,194.39Zm141.76-110c6.33-.2,14.38-7.68,16.85-13.76,1.95-4.8,4-9.39,7.78-13,1.84-1.74,2.33-4.07.67-5.73-2-2-3.42.57-4.25,1.82-5.12,7.66-13.56,12.4-18,20.64a2.59,2.59,0,0,1-3,1.25c-2.62-.5-5.68.33-5.14,2.83C483.14,80.73,484.51,84.29,487.72,84.36Zm-29-29.07c-3.22,1.37-3.74,4.76-5.11,7.45-1.48,2.92-.88,4.75,2.92,4.69s7.37,5.26,5.53,8.51c-2.87,5.06-.08,7.19,3.6,9.77,4.41,3.08,5-1.42,6.81-3.1s4.28-3.47,1.83-6.28c-3.13-3.57-4.64-8.44-8.75-11.18-1.53-1-1.89-2.14-2.26-3.92C462.83,58.88,462.35,55.83,458.74,55.29ZM779.35,498.94c-2.86,0-4.87.21-6.06,2.62a15.16,15.16,0,0,1-7.93,7.2,8.36,8.36,0,0,0-4.57,4.38,10.4,10.4,0,0,1-5.46,5.53c-1.12.53-2.91,1.05-1.94,2.78a2.48,2.48,0,0,0,4.24.39c2.75-3.16,6.63-3.68,10.21-4.72s5.91-2.72,6.68-6.41c.74-3.54,2.64-4.73,6.12-3.08,3.3,1.56,6.11-.49,8.75-1.87,1.55-.82,2.72-3-.29-4C785.69,500.63,782.2,499.76,779.35,498.94ZM457.94,110.87c.23-1.83-1.15-3.24-2.56-4.71-3-3.16-7.34-5.16-8.86-9.72-.27-.81-1-1.49-1.94-1a10.26,10.26,0,0,0-4.33,5.84c-.7,2-.41,3.56,1.41,4.76a10.3,10.3,0,0,1,4.64,6.58c.73,2.89,4,6.52,6,6A8,8,0,0,0,457.94,110.87ZM446,86.48c3.58,4.53,6.72,8.41,9.76,12.37,1.83,2.38,3.95,1.3,5.76.39,1.59-.81,4.6-1.89,3.11-4.14-2.11-3.18-2.65-7.64-6.88-9.3-1.57-.61-2.81-1.49-2.8-3.61,0-3-1.63-2.4-3-.92C450.19,83.16,448.89,85.53,446,86.48Zm36.65-51.56a3.49,3.49,0,0,0-2.06-3.53c-2-1-3.45.31-4.87,1.44-5,4-7.27,10.1-11.12,15-.89,1.13-.51,2.57.31,3.72s2.11,1,3.52.75a7.72,7.72,0,0,0,6.09-4.6c1.59-4.06,5-6.78,6.9-10.52C481.9,36.29,482.4,35.45,482.69,34.92ZM437.34,112c-2.75.6-3.64,2.7-3,4.84,1.24,4,2.7,8.37,8.12,8.34,2.23,0,3.22.44,2.49,2.77-.65,2.09.52,3.07,2.26,3.68,2.64.94,2.33-1.72,3.18-2.8s2.27-2.78-.14-4.06c-2.85-1.5-3.91-4.36-5.2-7C443.5,114.47,440.45,113.25,437.34,112Zm197,62.71c7.38-3,13.56-7.52,19.72-12.07a15.61,15.61,0,0,0,2.64-2.91c.74-.94,1.3-2,.32-3.12-.8-.92-1.69-.58-2.68-.17-7.41,3.07-13.53,8-19.21,13.49a9,9,0,0,0-1.9,2.85C632.79,173.93,633.3,174.71,634.38,174.73ZM550.54,91.57c3-.68,6.19-1.41,8.88-3.61,1.66-1.35,2.35-3.16,1.29-4.84-1.46-2.32-3.14-4.94-5.41-6.18-1.33-.72-3.59,1.89-4.07,3.69-.69,2.63-3,3.91-4,6.18C545.79,90,546.85,91.7,550.54,91.57ZM408.18,259.32a13.9,13.9,0,0,0,6.82-1c1.57-.64,2.58-1.73.7-2.66-4.64-2.3-7.53-7-12.51-8.75-.92-.32-1.8-1.14-2.72-.3s-.58,1.88.08,2.68c1.9,2.33,2.64,4.44,0,6.91-1.31,1.23.11,1.86,1.25,2.36A14.71,14.71,0,0,0,408.18,259.32Zm-80,161.39c-1.23,2.41-4.23,3.91-2.54,5.46,3.87,3.57,3.61,7.87,3.78,12.3a4.67,4.67,0,0,0,3.15,4.59c1.13.42,2.45.49,3.09-.73a5.85,5.85,0,0,0-.06-6.1A70.71,70.71,0,0,1,328.15,420.71ZM481.58,552.57c1.58,0,3.17-.68,1.57-3.79a7.66,7.66,0,0,1-.58-2.34c-.44-2.73-6.75-6.91-9.18-6a2.28,2.28,0,0,0-1.18,1.38C471.28,545.54,476.47,552.18,481.58,552.57Zm71.2-515.88c2.62-3,9.51,0,10.15-6.85.14-1.48,2-3-.2-4.13-1.61-.81-3.57-1-5,.6-2.12,2.41-3.53,5.41-6.2,7.4-.48.35-.52,1.49-.5,2.26S551.73,37,552.78,36.69Zm69.11,218.36c3.45.13-1.67,5.89,3.85,5.4,3-.27,5.75-1.53,5.21-4.62-.45-2.59-.29-6.78-4.87-6.75C622.57,249.09,622.57,251.93,621.89,255.05ZM326.16,414.32c-.6-2.72-.89-5.85-1.33-8.9-.34-2.27-2.39-4.94-5.19-4.18-3.59,1-1.62,4-.71,5.72,1.37,2.56,3,4.93,3.48,7.89.23,1.47-.69,3.95,1.76,3.88C326.46,418.65,325.35,416.07,326.16,414.32ZM351.5,256.91c1.15,0,2.31,0,3.47,0s2-.32,2.3-1.45a2.07,2.07,0,0,0-1.38-2.36c-3.06-1.57-6.13-3.11-9.23-4.59-1.69-.81-2.38,0-2.6,1.7C343.5,254.4,346.28,257,351.5,256.91ZM883.09,126c1.23-.44,4.88,1.27,4.2-2.71-.41-2.44-.79-6-4.61-6-3.24,0-5.59,1.25-5.29,5.41C877.66,126.47,879.67,126.63,883.09,126ZM614.19,557.81c-.46,1.23,1.23,2.39,0,3.71-2.79,3,3.67,2,2.08,4.8-.28.48,1.2.84,1.89.21,1.18-1.08,1.91-2.67,1.24-4-1.63-3.23-.85-6.38-.33-9.6.27-1.7.24-3.69-1.71-4.09s-1.07,2-1.9,2.87C613.82,553.45,614.14,555.67,614.19,557.81ZM610.54,230.9c3.92,0,6.58-3.18,6.49-7.35,0-1.32-.3-2.2-1.92-2.16-2.38.06-9.32,5-9,6.69C606.62,230.57,608.84,230.57,610.54,230.9Zm-218.9-191c.13,2.62,1.09,4.72,4,4.69,2.21,0,4.35-.94,4.81-3.5.29-1.63-4.47-6.12-6.15-5.89C391.46,35.6,392.17,38.11,391.64,39.91Zm-21.76-.34c-.47,3.93,2.72,4.11,5.43,4.59,1.25.22,3.46-.2,2.77-1.7-1.23-2.68-1.92-6.42-5.54-7C370.16,35.13,369.87,37.4,369.88,39.57ZM317.55,380.09c-.13-1.9-.19-3.56-.37-5.22-.14-1.24.18-2.94-1.76-3s-2.49,1.43-2.92,2.91c-.62,2.1.47,3.88,1.22,5.73s-.28,5.07,2.28,4.8C319.06,385,316,381.5,317.55,380.09ZM633.78,658.82c-.14-1.9-1.38-2.69-2.67-2-2.39,1.36-5.66-.89-7.53,2,3.46-.09,0,5.23,3.71,4.82C630.39,663.37,633,662.13,633.78,658.82ZM482.44,94.12A6.74,6.74,0,0,1,479.49,89c-.28-1.7-1.19-3.43-3.32-2.36-1.63.82-2.88,2.21-2,4.45C475.44,94.32,477.94,94.76,482.44,94.12ZM639.69,119.6c-.47,2.21-.55,3.81-1.17,5.17s-1,3.62-3.28,2.64c-1.35-.57-2.55-1.59-2.75.71-.15,1.73.5,3.2,2.8,3.23C639.83,131.42,641.93,126.58,639.69,119.6Zm22.69,413.22c.18,1.28,0,3.4,1.33,2.78a9.24,9.24,0,0,0,5.26-6.54c.43-2.2-1.46-1.77-2.59-1.77C662.37,527.29,663,530.63,662.38,532.82ZM817,121.52c-3-.72-5.72-1.77-8.36-.43-1.82.91-3,2.74-2.12,4.48,1,1.92,2.55.29,3.78-.37C812.56,124,814.79,122.75,817,121.52ZM330.09,42A6.14,6.14,0,0,0,327,37.25c-2-1.08-3.47,1.09-5,2a1.45,1.45,0,0,0,.28,2.48c2.26,1,5.25-1.24,7.22,1.49ZM661.3,154.15c1.56-1.6,5.84.21,5.69-4.27,0-1.47-.91-3.1-2.26-2.38a20.67,20.67,0,0,0-6.21,5.13C657.85,153.48,659.81,154,661.3,154.15Zm-160,14.42c3.26-.77,3.88-4.89,7.36-5,1,0,2.07-.86,1.47-2a2.09,2.09,0,0,0-2.69-.66c-2.57,1.42-5,3-7.47,4.69a1.48,1.48,0,0,0-.18,2.22A4.42,4.42,0,0,0,501.31,168.57ZM712.09,535c-1.06-.64-.46-3.19-2.66-2.67-1.9.44-4,1.5-4.32,3.67s1.77,2.9,3.32,2.91C710.45,539,711.53,537.31,712.09,535ZM543.91,47.86c-2.48,2.45-6,2.5-8.79,4.16-1.7,1-1.76,2.26-.86,3.71.47.75,1.5,1.21,2,.3C538.15,52.68,541.73,51.09,543.91,47.86ZM320.65,387.11c-3.79,1.09-4.24,4.18-5.18,6.74-.31.85.62,1.85,1.75,2a1.32,1.32,0,0,0,1.63-1.39C318.62,392,320.55,390,320.65,387.11ZM475,281.68c-.14-1.35.62-3.3-1.84-3.19-1.31.06-3,.51-2.83,2.1a4.16,4.16,0,0,0,3.49,3.68C475.52,284.46,475,282.76,475,281.68ZM674.69,483c2.68-.86,5.51-1,5.93-4.07.21-1.55-1.45-1.42-2.59-1.38C674.74,477.65,674.61,479.94,674.69,483ZM838.11,241.55c4-.85,8.26-.8,11.4-4.05C846,239.79,841,237.3,838.11,241.55Zm-251,330.92c-.94-.86,1.2-3.41-1.56-3.52-1.55-.06-2,1.76-1.72,3,.28,1.62-.07,4.28,2,4.38C587.86,576.43,586.91,574.09,587.16,572.47Zm0,10.51c-.3-1.1.59-3-1.53-2.94-1.49,0-2.18,1.39-2.32,2.77a2.21,2.21,0,0,0,2.28,2.62C587.4,585.55,587,584.06,587.13,583ZM344.19,452.89A3,3,0,0,0,341.3,451a2.31,2.31,0,0,0-2.6,1.79c-.29,1.66.86,2.38,2.38,2.37A2.83,2.83,0,0,0,344.19,452.89ZM306.82,140.05c.39,1.56,1.13,3,2.95,3.32.93.17,1.51-.55,1.47-1.48-.06-1.67-.3-3.35-2.43-3.58C307.73,138.19,307,138.77,306.82,140.05Z" transform="translate(-0.93 -0.91)"/><path d="M1,599c1.93-3.25,2-7,2.43-10.54,2.6-19,5.44-37.87,8.9-56.68a20.92,20.92,0,0,0,.38-2.46c.56-8.19,1.4-8.89,9.19-8.23,15.73,1.33,31.56,1.36,47.26,2.52,26.21,1.94,52.49,1.28,78.71,3.74,18,1.69,36.09,3.08,54.21,3.67,14.92.48,29.85,1.09,44.75,2.44,9.93.89,20,.18,29.95.94,11.75.91,23.44,2.52,35.29,2.55,5.62,0,6.65,2.29,5.67,7.85-1.35,7.69-2.38,15.44-3.67,23.14-.47,2.77.82,5.11,2.25,6.93,2.63,3.36,3.94,7.28,5.61,11a3.55,3.55,0,0,0,3.43,2.57c2.34.31,2.9-.83,3.67-2.36a36.7,36.7,0,0,0,3.55-20.22c-.51-5.19,1.16-8.07,5.31-10,7.31-3.32,13.11-8.91,20-12.91,1.8-1,3.14-1.41,5-.82,10.83,3.33,21.67,6.58,32.49,9.94,1.12.35,3.21.27,2.88,2-.35,1.91-2.13.89-3.34.72a10.32,10.32,0,0,0-7.12,1.73c-1.19.75-3,1.25-2.59,3.21.51,2.18,2.48,1.75,4.09,1.94a75.59,75.59,0,0,0,9.89.59c6.52-.12,12.24,4,19.5,3.11-4.16-4.16-9.16-5-13.92-6.49,6.81-2.81,12.88-.39,18.83,2,2.81,1.12,1,3.5.44,5.21q-11.67,38-23.46,75.87c-5.11,16.56-10.1,33.15-15.34,49.66-1.17,3.69-.32,5.71,2.59,8.39,10.17,9.37,21.68,17.06,33.08,24.54C428.4,729.55,435.8,735,444,739c2.88,1.41,5.08,2.91,6.56,6.19,1.69,3.76,5.64,6,9.21,8.15a118.89,118.89,0,0,0,13.1,6.83c5.54,2.41,9.83,6.55,14.74,9.83.89.59,2,1.92,1.88,2.76-.56,4.22-.35,8.17,1.68,12.06a2.9,2.9,0,0,1-1.65,3.78c-1.64.62-2.36-1.06-2.84-2.2-2.88-6.81-8.48-10.58-14.66-14a8.84,8.84,0,0,1-4.43-7.34c-.36-4.11-2.78-5.28-6.68-4.14-1.73.51-2.52,1.17-2.25,3.11a66.31,66.31,0,0,1,.54,7.46c0,2.27.44,4,3.34,3.56.85-.14,2.27,0,2.18.64-.82,6.2,6.41,8.8,6.25,15.07-.16,6.09-.79,8.37-6.39,11.14-2.18,1.08-3.93,3-5.89,4.53-.92.72-1.76,1.84-2.79,2.06-9.24,2-13.73,9.6-19.14,16-2.71,3.22-4.2,7.12-2.11,11.45.36.73.45,1.69,1.44,1.85s1.27-.83,1.66-1.51c4.71-8.11,10.62-14.92,20-17.64,4.06-1.18,5.58-6.24,10.35-6.25,5.58,0,10.3-3.29,15.61-4.43,2.22-.47,4.6-.57,6,1.28,1.56,2-.8,3.63-1.57,5.26-1.41,3-4.45,4.4-7.24,5.83-6.66,3.41-13.44,6.58-20.11,10-7.87,4-10.23,7.15-9.17,11.92,2.54,11.45,7.14,16.27,15.95,16.85,4.43.3,7.62-.86,10.6-4.81a43.77,43.77,0,0,1,11.71-11c5.27-3.31,11.52-6.58,12.58-14.32.54-3.93,6.47-7,10.68-5.93,3,.74,5.06.52,7.55-1.78,3-2.83,7.38-3.84,11.51-4.31,6.8-.77,13.45-2.27,20.16-3.49,4.8-.87,8.75-.09,12.66,3.69,6.62,6.41,15.45,6.82,23.87,5.13,2.93-.59,5.26-4.67,7.63-7.36a37.69,37.69,0,0,1,9.08-7.37,76.66,76.66,0,0,0,13.53-10.13c3.16-3,7.48-3.28,10.69-6.13,6.92-6.15,14.34-11.73,21.51-17.6,2.12-1.74,1.83-5.74,5.09-6.3,6.85-1.18,12.18-5.6,18.4-8.05a6.19,6.19,0,0,0,3.32-2.52c2.64-4,7.85-5.85,9-11.08a2.06,2.06,0,0,1,1.36-1.34c6.28-.33,10.59-3.26,12.82-9.23.34-.91,1.37-.74,2.2-.54,2.88.7,3.56-1,3.58-3.33a6.5,6.5,0,0,1,2-4.39c.93-1.06,1.31-2.29,2.65-.21.84,1.31,2.39.64,3.53-.27.78-.64,1.83-1.5,2.65-.71,4.26,4.1,5.23.34,5.54-2.62s1.65-3,3.84-2.93c1.7.07,3.78-.23,4.22-2,.65-2.56-2.26-1-2.94-1.94-2.74-3.69-7.58-6.25-6.69-12,.21-1.33,4.11-3,5.91-2.12.93.46,1.3,1.36,2.26,0,3.75-5.3,4-5.41,9.83-1.61,1.48,1,2.38.95,3.38-.19,2.14-2.44,4.94-3.2,8-3.36a4.51,4.51,0,0,0,4.27-3.6c.26-1.77-2.29-2-3.75-2.65-1.05-.46-2.28-.52-3.36-.94s-3-.11-3-1.93,1.49-2.45,3-2.9,3-1.26,3,1.44c0,1,1.06,1.81,1.6,1.13,3.67-4.59,8.51-1.37,12.71-2.17,1.65-.32,4.06-.45,1-3.27-2.25-2.1-3-5.73-4.65-8.58-.53-.93-.57-1.57.23-2.06,1.77-1.08,2.43-3.31,3.94-4.31,4.12-2.74.83-4.06-.87-5.41-1.25-1-4.38-.71-2.9-3.34,1.26-2.24,3.2-1.7,4.63.55.86,1.36,2.3,1.11,2.54-.36,1.11-6.82,6.2-5.44,10.56-5.15,2.13.14,3.21.28,1.74-2.14-1-1.59-.56-2.77,1-3.73,1.85-1.11,1.09-1.65-.52-1.87-1-.14-1.6-.69-1.31-1.66s1.26-1,2.09-1c3.49.06,7,.18,10.47.23,1.32,0,2.85.16,3.19-1.62.29-1.52-.5-2.48-2-3-1.3-.45-2.65-1.17-2.28-2.8a2.81,2.81,0,0,1,3.59-1.94c5.21,1.59,7-3.76,10.8-5,1.36-.44,1-1.73.94-3,0-2.27,1.23-4.06,3.7-3.48,3,.7,4.23-.92,5.53-3,1.5-2.4,3-4.81,5.74-6.1,2-.93,1.39-2.74,1.59-4.35.38-3.14,1.34-5.88,5.3-6,.77,0,2-.28,2.24-.8,2.9-5.74,9.5-8.19,12.3-14,3.67-7.63,11.52-10.13,17.92-14.38a2.09,2.09,0,0,1,2.76.44c.74,1-.4,1.67-.89,2.5-3.2,5.35-5.07,11.06-3.8,17.37,1.43,7.07.3,13.8-2.3,20.39-.89,2.25-3.21,2.21-5,2.74-2.43.7-3.3,2.83-1.8,4,3.46,2.67,2.46,6.57,3.72,9.79.35.89.07,2.62,1.1,2.51,5.54-.56,7,4.2,9.78,7.18,3.2,3.41,3.17,3.44,7.45,1.65-1.41,3.26,1.78,5.11,2.57,7.7.57,1.91,3.17.44,4.37-.19,3.87-2.06,2.59,2.66,4.62,3-1.65.54-2.67,3-4.7,1-.77-.76-1.84-1-2.34.4a1.79,1.79,0,0,0,1,2.48c5.67,1.18,4.42,7.76,8.24,10.39.83.56.72,1.65-.46,2.4-3,1.88-5.23,5.1-9.09,4.33-1.26,1.33,4.93,2.21-.18,3.36-1.34.31-1.26,1.24-1.2,2.3.1,1.76,1.37,2.22,2.7,2.4a33.29,33.29,0,0,1,11,4V865c-2.88,1.81-5.78,3.09-8.91.49-2.17-1.8-4.15-1.37-4,1.44.18,4-1.76,3.14-4,2.41-1-.33-2.57-1.94-2.78-.37-.46,3.34-4.17,4.22-4.71,7.32-.2,1.13-3.63,3.49-5,3.79-2.48.54-1.85,2.3-1.6,3.92h-1c-2.09-2.67-4-5.63-8.08-2.74a2.59,2.59,0,0,1-3.24-.49c-.91-.89-1.67-2.56-3.12-1.1-1.12,1.14-.15,2.46.52,3.61-3.44-2.12-6.05-6.89-11.24-3.37-.72.49-2.39.75-2.64-.33-1-4-3.17-1.27-4.88-1.07-1,.11-2.37,1-2.82.57-4.67-3.9-8.3-1.84-11.66,1.84-1.46,1.59-1.79,0-2.56-.69-3.38-3.16-6.87-5.71-11.94-3.5a3.23,3.23,0,0,1-4.38-1.37c1-1.15,2.64.77,3.83-1.45-4.51-1.54-3.23-7.32-7.33-9.78-1.73-1-3.19-2-4.82-.74-.78.59-1,2.55-2.32,1.37-1.06-1-.28-2.41.77-3.46.69-.69,2.43-.32,2.13-2.24-1.63-.07-3.3.34-4.83-.69-.7-.47-2.09-.79-1.92,1,.11,1,1.44,2.29-.5,2.72-.5.12-1.26-.84-1.88-1.33-1.19-1-1.64-2.08-.68-3.45.53-.76,1.86-.94,1.61-2.44-1.75-.7-3.14-.66-3.53,1.69-.18,1.13.39,3.21-1.78,2.2-1.54-.71-5.19-1.23-1.07-4.78-3.66.68-6.93.08-6.31,4.71.28,2.1-1.75,1.9-2.85,1.41-4.61-2-8,.48-11.34,2.91-2.2,1.58-4.35,2.79-7.26,2.63s-4.52,1.78-4.75,4.64c-.19,2.38-1,4.61-3.42,4.94-6.7,1-11.33,5.54-16.71,8.82H625a31.46,31.46,0,0,0,.31-5.87c-2-14.8-9.88-26.09-21.19-35.31-6.39-5.2-14.32-7-21.87-9.32-6.39-2-12.45-5.9-19.65-4.54-1,.18-2.22,0-2.45,1.2s1.05,1.76,1.92,1.82c5.77.35,7.11,6.52,11.52,8.67a2,2,0,0,1,1,3,2.51,2.51,0,0,1-3.14.82,7.33,7.33,0,0,1-2.93-1.78,15.71,15.71,0,0,0-15.82-5.07c-5.06,1.18-10.1,1-15.13,1.55-3,.32-4.53,1.37-2.89,4.91,2.11,4.55.77,6-3.87,8.2-7.48,3.47-14.26,1.38-21-1.67a9.64,9.64,0,0,0-10.33,1.1c-3.84,2.77-3.58,7.09-4,11.11-.11,1.15.93,1.42,1.7,1,3.06-1.61,7.24-.33,9.49-4.34,1.61-2.88,4-2.54,5.68.52a8.94,8.94,0,0,0,2.2,2.62c3.06,2.41,1.64,4.76-.31,6.68-1.23,1.22-3.13,1.82-4.8,2.53-3.32,1.41-3.87,3.21-1.43,6.07,1.57,1.84,3.83,3.34,4,6.13H398c1.68-1.47,3.35-3.16,2.2-5.5-1.26-2.58-3.76-2-6.11-1.77-4.44.36-8.29,2.62-12.9,2.94-9.46.67-19.09,1-28.19,4.33H329c7.73-3.78,13.76-10.15,21.38-14.08a5,5,0,0,0,2.74-5.8c-.6-2.52-2.71-.07-4.17-.25a33.26,33.26,0,0,0-5.46.1c-9.46.41-12.24,2.52-15,11.46-.88,2.84-1.66,5.71-2.48,8.57H282c1.28-6.13-1-12.75,2.55-18.58.22-.38,0-1,.12-1.48.7-4.25,1.5-8.48,2.08-12.74.45-3.35,1.83-7.26-3.52-8.16-7.23-1.21-10.9.54-11.75,5.62-.44,2.61-.8,5.24-1.1,7.87-1.07,9.22-4.17,18.11-4.38,27.47H223c.07-2-.75-3-3-2.94-1.47,0-2.23-1.38-2.41-2.77a2.76,2.76,0,0,1,1.91-3.18c5.24-1.26,5.07-4.89,4.24-8.94-.28-1.34.79-3.62-1.24-3.72-1.79-.09-1.55,2.13-1.74,3.59-.65,4.8-2.15,5.5-6.08,2.81-3.18-2.19-4.28-4.59-1.75-8.31,2.41-3.55,6.28-6.32,7.14-10.69,1.41-7.22,6.75-11.8,10.8-17.64.71,6.63,4.31,12.54,3.7,18.95a18.93,18.93,0,0,0,3.62,13.19c1,1.47,2.36,1.8,2.85-.1.75-2.9,2.39-3.84,5.24-4.12,2.12-.2,3.67-1.88,5.16-3.6,2.46-2.85,4.15-6.63,7.88-8.1,2.22-.88,2.82-2.43,3.46-4.41,1.15-3.58-.29-7.62,1.23-10.82,2.28-4.79,1-9.78,2-14.6.55-2.7-.8-3.75-3.48-2.15-1.95,1.16-4.19,3.29-6,3-6.21-1-12.88,0-18.51-4-1.74-1.27-5.1-3.63-6.12-2-2,3.29-4.78,2.37-7.32,3-6.24,1.47-8.86,6.92-12.44,11.32-.43.53,0,1.28.59,1.67,1.66,1,3.21,2.54,5,3,2.16.49,2.49,1.37,1.71,3-1,2.12-.5,4.53-1.77,6.68-1.16,2-1.1,6.2-3.43,5.51-2.09-.62.13-4.28.42-6.61.18-1.43,2.56-3.33,0-4.16-2.1-.69-3.52,1.06-4,3.37-.82,4-1.89,8-2.75,12s-1.55,8.17-2.41,12.24a3.05,3.05,0,0,1-1.2,2c-.93.43-1.36-.61-1.78-1.31-2.72-4.43-5.53-8.8-8.1-13.32-.86-1.51-.75-4.06-3.29-3.49s-2.91,2.93-2.8,5.2c.18,3.32.47,6.63.68,10,.18,2.86,1.23,6.56-4.05,3.65A2.67,2.67,0,0,0,181.1,869c-.51,2.11,1.1,2.71,2.71,2.45,4.52-.75,3.7,2.13,3.05,4.54-.73,2.72-1.89,5.32-2.86,8H140c-.06-1.78-.79-3.73-2.61-3.27S132,880.09,132,884h-4a4,4,0,0,0-.52-3.74c-3.3-5.36-8.53-8.77-13.1-12.79-2.82-2.47-7.66-1.38-8.65,2.19C104,876,98.4,879.11,95,884H88a13.94,13.94,0,0,1-.72-3.41c.16-4.47-.79-7.62-6.37-6.87-2.14.3-1.5-1.4-1.47-2.75,0-1.86,1.27-4.5-1.15-5.39-5.41-2-10.67-4.59-16.49-5.31-.72-.09-1.56-.41-1.82.91-.73,3.73-3.76,1.86-4.68,1-2.21-2-4.85-4.63-5.33-7.34-.9-5.09-2.24-9.21-7.43-11.22a2.23,2.23,0,0,1-1.4-2.86,2.06,2.06,0,0,1,2.27-1.57c5.79.42,5-3.37,4.5-7-.39-3-1.74-6.15,1.45-8.74,1.2,3.1,2,6.1,3,9.08,1,3.4.59,7.29,4.55,10,1.71,1.15,5.36,3.74,3.94,7.76-.39,1.1-.77,2.93,1,3.32s2-1.43,2.61-2.54a8,8,0,0,0,1-3.31c.16-6,1.41-11.88,2.27-17.8,1.2-8.29,1.13-8.3,9.37-7.44a9.93,9.93,0,0,1,2,.24c2.84.9,4.75.21,6.9-2.16A13.33,13.33,0,0,1,96.1,816c1.8,0,3.83-.16,5-1.82,5-7.15,13.92-8.1,20.32-13.14,2.94-2.32,2.44-4,1.07-6-.85-1.29-2.61-1.94-3.86-3-2.13-1.82-2.4-3.86.5-4.9,4.89-1.75,4.38-5.34,3.37-9s-3-4-5.79-1.36c-2.47,2.31-3,5.39-3.15,8.62-.11,3.74-.59,7.3-5.14,8.32-2.12.46-2.28,2-2.29,3.81,0,2.26-1.87,4.1-3.28,2.24-1.22-1.61-3.65-3.25-3.3-5.67.3-2.14,2.73-1.35,4.15-2,.9-.42,1.94-.82,2-2a1.05,1.05,0,0,0-1.31-1.1c-4.18.63-8.92-.48-12.11,3.36-1.72,2.07-4.21,2.61-6.34,3.84-1.35.79-3.2.24-3-1.32.75-5.09-3-4.81-6-5.66a29.84,29.84,0,0,1-5.49-2.37c-1.21-.61-2.32-1.56-1.82-3.16a2.71,2.71,0,0,1,2.8-1.71c3.64,0,7.38-.88,10.84.76a5.62,5.62,0,0,0,6.87-1.12c5.23-4.93,10.68-9.52,17.51-12.14a4.54,4.54,0,0,0,1.67-1.06c1.24-1.37,2.72-3,1.36-4.8-1.11-1.41-3.11-1.18-4.55,0a16.55,16.55,0,0,1-6.37,2.74c-18,4.79-36.7,5.28-55,8.38a2.14,2.14,0,0,1-1.76-.41,1.83,1.83,0,0,1,.26-1.72c1-1.12,2.14-2.06,3.19-3.11,4.73-4.73,11-7.37,16.09-11.54,7-5.7,14.69-9.65,24.09-9,2,.12,4,.28,6,.25,1.71,0,3.65-.34,3.78-2.44a3.13,3.13,0,0,0-3.27-3.17c-6.82.21-11.52-4.58-16.66-7.53-12-6.86-22.61-15.55-29.77-27.89-3.66-6.31-8.18-12.11-12.3-18.15-.64-.95-1.62-1.94-.89-3.15a1.91,1.91,0,0,1,2.7-.38c4.56,2.55,9.69,3.45,14.57,5,9.5,3,17,9.69,26.21,13.18a46.41,46.41,0,0,1,16.33,11.19c.8.8,1.46,2.16,2.8,1.52,1.61-.77.76-2.31.6-3.55a25,25,0,0,0-3.07-8.36c-2.22-4.25-5.54-7.81-7.24-12.38-2.52-6.75-5.15-13.47-7.94-20.12-4.24-10.07-5-21.18-9.5-31.19a1.3,1.3,0,0,1-.06-.49c-.2-10.24-.72-20.48-1-30.73-.11-5.15.58-11.25-4.7-15-1.11-.8-2.49-1.35-1.84-3s1.7-3.12,3.58-3a62,62,0,0,1,10.83,1.1c2.6.58,3.75,3.07,1.08,4.65-4.67,2.75-3.47,6.62-1.51,9.37,3,4.13,4.39,8.88,6.92,13.14,5.76,9.7,11.94,19.15,17.43,29,1.69,3-.25,6.38,2.08,9,7.14,7.91,8.23,18.64,12.5,27.89,2.88,6.27,3.53,13.91,4.6,21,1.4,9.31,3.39,18.57,3.55,28.06a23.67,23.67,0,0,0,2.56,10.09c.69,1.41,1.23,3,3.09,2.51s.88-2.37,1.06-3.75c1.06-8.19-4.88-16-1.15-24.34.32-.73-.21-2-.61-2.87-1.86-4.16-1.53-8.45-.75-12.73.36-2,.82-4.1-.35-5.83-2.18-3.23-1.91-6.16.24-9.24a5.38,5.38,0,0,0,1.15-3.23c-1.11-9.83,2-19.49,1.12-29.3-.14-1.62-.32-3.39.75-4.84,3.37-4.62,3.49-10.38,5.4-15.52,3.15-8.51,3.33-17.8,7-26.38,2.94-6.89,6.74-13.35,9.31-20.39s4.63-14.25,8-20.95c1-2,1.83-5.42,4.4-4.51s.88,4,.47,6.2a86.72,86.72,0,0,0-1.31,25.2c.93,8.86,2.35,18,.49,26.86-1.57,7.43-1,14.84-1.28,22.27,0,1.14-.38,3,1.76,2.89,3.39-.14,1.41,1.29.95,2.63-1.95,5.65-5.61,10.42-7.67,16.12-3.56,9.89-2.44,20.59-6.39,30.46-1.08,2.68-2.3,6.94-1.41,10.9,2.1-.65,2.78-1.83,2.6-3.5-.13-1.27,0-2.5,1.29-2.91,3.86-1.2,4.59-4.8,6.49-7.66,4.45-6.71,7.49-14.36,14.15-19.65A30.46,30.46,0,0,0,181.72,661c2.68-5.34,7.32-8.37,11.4-12.22,2.93-2.78,6.65-3.51,9.71-5.74,4.34-3.17,8.45-6.83,13.89-8.29a7.64,7.64,0,0,0,4.28-3.3,21.11,21.11,0,0,1,8.29-6.95c1.7-.89,3.38-2.86,5.34-1s.89,4.2.07,6.45c-1.51,4.1-5.82,6-7.69,9.44-7.79,14.35-18.87,26.26-28.26,39.4-7,9.82-15.23,18.63-22.33,28.39-2.35,3.23-4.23,7.57-7.83,9.61-5.16,2.93-8.06,8-12.72,11.5-6.35,4.73-9.64,12.62-15.8,17.8-.77.65-1.65,1.46-1.13,2.52a1.75,1.75,0,0,0,2.63.45c4.83-3.73,11.14-5.19,15.38-9.67a24.11,24.11,0,0,1,8.55-5.82c5.05-2.05,10.21-3.82,15.33-5.7A110.66,110.66,0,0,1,203.46,722c14.61-2.05,29.15-.36,43.64,1.78,1,.14,2.19.11,2.41,1.32.3,1.67-1.14,1.67-2.24,2-10,2.78-18.81,8.31-28.2,12.46-10.95,4.85-21.87,9.1-33.63,11.33-2.86.54-5.46-.86-8.38,0-5.22,1.62-10.58,3.09-16.2,2.27-1.45-.22-2.74,0-3.18,1.58a3.56,3.56,0,0,0,1.13,3.63c1.05,1,2.48.8,3.74,1.16,14.53,4.19,27.71,10.72,36.59,23.46,4,5.76,9,8.55,15.74,8.9,9.43.48,18.87-.16,28.33.7,7.77.71,15.54,2.09,23.4,1.62,2-.12,5,.61,5-2.55,0-2.94-2.82-2.22-4.67-2.1-2.59.15-3.73-.75-3.41-3.43a35.42,35.42,0,0,0,0-4c0-7,0-7,7-7,1.79,0,3.95.45,4.07-2.33.21-5.22,1.87-10.12,3.09-15.12.7-2.86,0-5.68-2.68-6.9-3.26-1.5-5-6.18-9.78-4.69-1.31.41-1.65-1.28-1.66-2.51,0-2,0-4-.09-6-.18-2.72,1.22-3.21,3.64-3.38,3.93-.27,7.05,1.73,10.46,3,1.54.56,3.28,1.6,3.62-1.3.83-6.92,1.88-13.83,2.47-20.78.49-5.67-.81-6.64-6.5-5.7-1,.17-2.07.52-2.75-.4-1-1.34.17-2.3,1.08-2.84,2.67-1.6,3-3.46,1.56-6.16a13.85,13.85,0,0,1-1.41-5.28c-.44-5.06-3.17-6.65-7.91-5.82-2.87.5-4.37-.63-4.23-3.8.16-3.83,0-7.67.07-11.5.08-3,2-5,4.79-4.4a27.27,27.27,0,0,0,10.8,0,6.54,6.54,0,0,1,6.68,2.55c1.35,2.13-1.2,3.46-2.26,5s-1.86,3.25-.79,5.06,2.86,1.53,4.5,1.33c2.58-.31,2.41-2.46,2.4-4.23-.07-12.66,3.62-24.94,3.78-37.58a10.49,10.49,0,0,1,.55-3.93,23.41,23.41,0,0,0,.4-16.92c-2.56,1.89-7.84,1.2-9.46-1.18-1.45-2.12-2.15-11.19-.79-11.75,8.6-3.53,8.72,4.27,11.23,9.06a117.9,117.9,0,0,0,1.68-12.12c.24-2.3-.21-3.92-3.1-3.87a14.24,14.24,0,0,1-4.38-.85c-2.59-.81-3.17-2.15-1.05-4.28,5.66-5.68,8-13.66,13.5-19.52a4,4,0,0,0,.81-3.25c-1.16-3.65.27-7,1.21-10.25.74-2.54,1.89-5,2.15-7.65.21-2.26.21-4.68-2.4-5.36-2.8-.73-3.64,1.65-4.36,3.73s-1.7,5.14-4.07,3.92c-4.11-2.1-10.56-1.6-11.13-8.52-.12-1.35-1.55-1.61-2.7-1.83a308.48,308.48,0,0,0-44.58-5c-10.66-.48-21.45,3.11-32.07-.88a4.37,4.37,0,0,0-2,.07c-8.36,1.05-16.74-2.67-25.09.09-18-5.26-36.66-2-55-4.6-13.62-1.92-27.63-1.16-41.47-3.38-10.21-1.64-20.89-.19-31.35-.55-8.77-.31-17.51-1.26-26.26-1.9-2.55-.18-4.62.25-5,3.46-1.61,14.85-3,29.74-5,44.52-1.33,9.5-2.45,19.05-4.93,28.39-1.64,6.19-3.77,12.57-.64,19a2.61,2.61,0,0,1-.69,3.57c-3.4,2.57-3.28,6.46-3.4,10A31.57,31.57,0,0,1,1,652ZM139.09,871c-3-4.45-5.7-5.46-8.29-3.15-1.3,1.16-1.72,2.48-.87,4s1.88.37,2.95.11c2.07-.52,4.22-.74,6.34-1.08,1.13,5.06,1.13,5.06,10.62,2C145.74,872.31,143.06,868.6,139.09,871ZM297.53,685c.14,1.35-.1,4.05,2,5.06,5.59,2.67,7.41,9.1,13.22,12,3.27,1.64,6.3,5,10,6.77,1,.47,2.08,1.67,3.14.68,1.28-1.2.05-2.61-.55-3.6-2.65-4.39-4.3-9.55-8.09-13.06-5.95-5.51-5.42-12.07-3.8-18.81,2.44-10.17-2.07-17.55-9.16-23.94-2-1.78-2.32-.17-2.66,1.56A261.34,261.34,0,0,0,297.53,685ZM280.12,795.23q-2.91,16.18-5.82,32.37c-.61,3.33.81,3.87,3.88,3.66,4.21-.3,7.48-3,11.84-3.34,9.19-.69,15.75-6.13,20.44-14,1.52-2.55.11-3.66-1.64-4.81-4-2.64-8.93-2.08-13.67,1.67-2.67,2.12-5.24,2.06-7.62-.17-3-2.87,1-3.23,1.82-4.76,1-1.88,4.44-4.33-.48-5.31C285.24,799.83,282.41,798.56,280.12,795.23Zm149.57-53.54c-1.43.31-3.3-.1-4,1.45-.88,1.86,1.21,2.46,2.15,3.45a5.52,5.52,0,0,0,2.85,1.81c2.46.31,3.18,1.26,3.26,3.86.17,5.82,8.34,13,14.16,12.8a8.3,8.3,0,0,0,6-3.06c1.06-1.24-.09-2.49-1.23-3.31-5.38-3.89-10-8.58-14.66-13.3A12.56,12.56,0,0,0,429.69,741.69ZM283.44,770.94c.36,1.42-1.12,3.84,1.33,5.36,3.66,2.26,12.45,1.9,15.74-.76,2.31-1.86,2.64-3.65-.32-5.33s-6.2-3.29-8.82-5.51c-1.77-1.49-2.46-5.36-5.23-4.34s-2,4.89-2.67,7.54A15.4,15.4,0,0,0,283.44,770.94Zm-157.68,6.28c.06,1,.09,1.54.11,2,.28,5.58,7,9.46,12,7a2.72,2.72,0,0,0,1.46-3.74c-1.82-5-3.59-10-5.74-14.83-1.54-3.47-3.58-3.41-5.61,0C126.08,770.74,125.93,774.27,125.76,777.22Zm487.55,40.16c-1.08,2.81,1.75,4.8,3.36,6.71.93,1.09,3.27-1.47,4.94-2.43.86-.5,1.72-1,2.59-1.45,2.26-1.19,6.18-.42,6.09-4.39-.09-4.36-4.47-3.6-7-5a7.6,7.6,0,0,0-2.45-.34C616.25,809.68,613.31,812.15,613.31,817.38ZM178.47,793.59a9.18,9.18,0,0,0-.78-1.05c-5.11-5.3-12.2-7.73-17.87-12.23a1.91,1.91,0,0,0-2.72.25,2.87,2.87,0,0,0,.2,3.68,17.71,17.71,0,0,0,9.23,6.41c3.24,1,7,.77,9.51,3.78C176.88,795.43,177.83,794.71,178.47,793.59Zm-71.34,53.59c2.58-5.65,4.14-10.4,3.68-15.53a3.44,3.44,0,0,0-4.71-3c-2.75,1.15-3.21,4.36-2.69,6.91.71,3.42,2.24-.87,3.71.15A15.56,15.56,0,0,0,107.13,847.18Zm142.18,29.49c.52,3.3-1.15,6.13,2.3,6.52,2.7.29,5.76-5.18,5.54-9.48-.11-2.22-.55-4.15-3.37-3.63C249.09,870.94,249.28,874.57,249.31,876.67Zm136.39-300,0,.24a17.05,17.05,0,0,0,3.88-.55c1.57-.58,3.23-1.68,3-3.54-.32-2.21-2.28-2-4-1.69a14.54,14.54,0,0,1-4.92-.29c-2.38-.37-6.15-1.36-6.52,1.26s3.38,3.81,6.05,4.54A9.77,9.77,0,0,0,385.7,576.71ZM135.35,742.24a22.71,22.71,0,0,0,7.06-8.44c.91-2,.5-4-1.61-5.1s-3.43.35-4.39,2C134.43,734.16,134.6,737.82,135.35,742.24ZM431,862.55c-.36-2.65-1.75-4.44-4.47-4.46a4.41,4.41,0,0,0-.1,8.82C429.18,867,430.6,865.18,431,862.55ZM143.5,725.67a6,6,0,0,0,1.24-.44c.91-.54,4.1-10.05,3.77-11s-1.28-1.31-1.92-.82c-2.89,2.2-5.6,4.71-6,8.57C140.47,723.58,141.57,725.05,143.5,725.67Zm708.81,6.23c1.09,0,3.11-.08,2.71-1.66-.74-2.87-3-4.58-6.19-4.74-1.63-.08-3.55-.11-3.17,1.91C846.26,730.64,849.14,731.48,852.31,731.9ZM75.17,827.57c-1.85,2.13-2,4.69-1.85,7.27.06,1.24.05,3.25,1.85,2.69,2.82-.87,2.91-3.78,3-6.16C78.16,829.81,77.06,828.38,75.17,827.57Zm218-93.32c.64-2.16-.41-3.76-2.52-4.44-1.33-.43-1.66,1-1.41,1.88.82,2.74-2.77,5.72.37,8.16.79.61,1.81-.4,2.43-1.19C293.05,737.42,292.93,735.88,293.19,734.25ZM174.36,875c1.11-.62,3.82.48,3.93-2.11.1-2.2-2.21-2.6-3.94-2.9-2-.35-3.1.76-3.25,2.73S172.3,875.11,174.36,875ZM742.59,706.56c.13-1.56,0-3-1.74-3.64-1-.36-2.39-1.13-3.25-.24-1.61,1.67.85,2.39,1.23,3.64.45,1.47-1.22,4.23,1.82,4.18C743.07,710.46,741.81,707.86,742.59,706.56ZM372.52,560.69a13.09,13.09,0,0,0,10.38.09C379.14,558.68,376.2,558.43,372.52,560.69ZM299.2,743c1-.79,3.15,2.25,3.63-.84.26-1.67-1.57-1.9-2.86-1.77-1.77.17-4.68-1.29-5,1.2C294.71,743.69,297.59,742.39,299.2,743ZM629.76,847.08c-1,.16-2.14.93-1.72,1.47a48.18,48.18,0,0,0,5.21,5.49c.42.4,1.31,0,1.58-.65C635.46,851.81,631.38,847,629.76,847.08ZM201,844.36c.24,2.91-.25,5.3,2.26,6.32a1.9,1.9,0,0,0,2.5-1.77C206.14,845.56,203,846.14,201,844.36Zm147.66-23.44c1.08-.65,3.35.08,3.47-1.76s-1.87-2-3.31-2.08-2.7.29-2.65,2.07C346.21,820.62,347.19,821.06,348.66,820.92Zm-37.25-18c1.88-.42,4.61.74,5.17-1.82.44-2-1.76-1.32-2.9-1.35-1.79,0-3.95-.22-4.32,2.19C309.12,803.59,310.61,802.94,311.41,803ZM403.68,582.5a14.51,14.51,0,0,0-8.73-2.39c-.18,0-.55,1-.41,1.15,2.07,2.5,5.19,1.25,7.74,2.08C402.47,583.4,402.79,583.05,403.68,582.5ZM113.73,733.08c-1.34-.19-1.72.55-1.75,1.42a4,4,0,0,0,3.11,4.47c.84.24,2-.12,1.6-1.14C116.07,736,115.32,734.14,113.73,733.08Zm4,119.85c-2.12,3.37-3.57,5.89-2.7,9.05C117.32,859.68,118.36,857,117.73,852.93Z" transform="translate(-0.93 -0.91)"/><path d="M1,779c5.78-2.1,10.86,2.29,16.53,1.79,1.55-.13.89,1.79.91,2.86.19,7.6.59,7.9,7.89,8.53,3.23.29,5.34,2.24,4.59,5.76-1.3,6.07-3.33,12.54-7.5,16.55-3.34,3.2-5,9.26-11.27,9.3-1.75,0-2.42,1.82-1.79,3.43,1.19,3,.53,6.24,1,9.34.25,1.69.24,3.71,2.11,4.14,2.48.58,1.91-2.12,2.8-3.31.27-.35.67-.61,2-.59C17.07,840.87,16,845,14.58,849s-2.89,7.89,2.68,10.2c1.69.7,2.54,2.53,2.56,4.55s1.7,2.7,3.31,3.16c.51.16,1.55-.06,1.73-.42.86-1.71-.36-2.71-1.51-3.75-.94-.85-1.55-1.86-.09-2.83.62-.41,1.2-1,.3-1.41-5.09-2.11-2.73-6-2-9.17a41.62,41.62,0,0,0,.75-15.3c-.57-3.83.23-7.89.68-11.82a2.76,2.76,0,0,1,3.16-2.58c2,.4,4.66-.52,5.86,1.77.8,1.54-.58,2.81-1.81,3.72-1.51,1.11-1.75,2.63-2,4.35a125.87,125.87,0,0,0-.4,27.37c.12,1.45.3,1.91,1.7,2.32,4,1.18,7.86,2.79,11.87,3.87,2.17.59,4.56,1.94,6.64-1,.93-1.31,2.82-.16,3.84,1,1.26,1.48,0,2.36-1,3.27-2.75,2.56-5.53,4.76-6.16,9.13-.42,3-4.09,4.08-7.08,4.76-2.35.54-3.27,1.55-1.64,3.76-10.83,0-21.67-.08-32.5.07-2.15,0-2.62-.42-2.57-2.57.18-7.16.07-14.33.07-21.5.66,0,1.33.1,2,.1,7.25,0,8.39-1.45,6.74-8.43a8.24,8.24,0,0,1-.11-1.49c-.33-9.54-3.77-18.49-5.21-27.82-.29-1.84-.83-3.71-3.41-3.36Zm7.58,12.46a3.25,3.25,0,0,0-3.69-2.67c-1.14.07-2.7.18-2.36,1.8.46,2.19,2.62,2.32,4.37,2.66C8.2,793.51,8.66,792.64,8.58,791.46Z" transform="translate(-0.93 -0.91)"/><path d="M548,884c3-4.11,5.27-8.7,8.86-12.48a19.77,19.77,0,0,1,8.47-5.61c3-1,5.1-3.57,9-3.36,9.66.51,14.33,3.5,17.75,12.41,1.15,3,3.82,5.41,2.92,9Z" transform="translate(-0.93 -0.91)"/><path d="M105,884c-.36-3.1,0-5.26,4.12-4.14a34.39,34.39,0,0,0,7.8.83c2.58.08,2.53,1.5,2.08,3.31Z" transform="translate(-0.93 -0.91)"/><path d="M1,845c.91,3,6.47,6,0,9Z" transform="translate(-0.93 -0.91)"/><path d="M173.45,492.94c-1.36,5.13,1.93,9.68,5,14.29.95,1.44,2,2.79,1.11,4.55-1.09,2.14-3.13,1.48-4.89,1.33-14.71-1.24-29.41-2.9-44.15-3.55-4-.17-8.1-.76-12.27.17-5.25,1.16-6.84-.87-4.74-5.67a26.23,26.23,0,0,0,1.88-12.18c0-1.12.1-2.72-1.49-2.65s-1.39,1.62-1.46,2.75c-.18,2.81-.7,5.67-.75,8.36-.11,5.64-4.46,6.41-7.86,8.34-2.14,1.22-3.92-.05-5.08-1.83-1.41-2.17.09-3,1.86-4.12,6.37-4.16,4.28-10.48,3.65-16.3a11.87,11.87,0,0,0-3.06-6.76c-6.75-7.08-13.22-14.51-22.49-18.6-6.34-2.8-12.16-2.22-17.94,1.62-12.94,8.59-18.26,21.9-22.69,35.83-.51,1.58-.9,3.21-1.56,4.72-.92,2.12-2.72,2.64-4.95,2.47-2.54-.19-3.23-2-3.9-3.93-.78-2.27.59-3.42,2.35-4.3a5.66,5.66,0,0,0,3.15-3c3.5-9.39,8.65-17.91,13.63-26.55,2.93-5.09,2.89-11.22,4.28-16.86.79-3.23,1.89-4.72,5.82-3.49C93.21,459,129.64,470.18,166,481.47,173.67,483.84,173.65,483.88,173.45,492.94Z" transform="translate(-0.93 -0.91)"/><path d="M37,289.7c0-5-.42-10,1.13-14.86,1.7-5.34,4.14-6.42,9.45-4.45,11.47,4.25,23.49,6.37,35.27,9.41,5.12,1.32,11.22,1.21,15.75,5.31,3.45,3.13,8.29,2.07,12.46,2.65a88,88,0,0,1,23.23,6.5c4,1.76,8.06,1.59,12,2.52,8.2,1.92,15.7,6.45,24.43,6.41,1.29,0,3,.73,2.7,2.33-.42,2.29-1.48,4.83-3.92,5.35-5,1.08-10.06,2-15.2,1.45-7.1-.75-14.21-1.5-21.32-.72-2.58.28-4.35-1.35-6.68-1.55-7.94-.69-15.92,1.26-23.84-.55-5.5-1.26-11.32,1.42-16.42.08-6.53-1.71-13.2-1.41-19.62-3-2.38-.6-5-.65-6.86.27-5.07,2.56-9.78,0-14.34-.76-8.17-1.37-8.21-2.2-8.26-10.88C37,293.36,37,291.53,37,289.7Z" transform="translate(-0.93 -0.91)"/><path d="M271.87,519.71c-6.64-.86-13.68-2-20.76-2.61-5.58-.51-11.22-.45-16.83-.64s-5.76-.53-3.63-5.39c.39-.9.47-1.94.88-2.84,1.19-2.6.81-9.44,5.73-1.8a5.83,5.83,0,0,0,8.48,1.3c1.78-1.32,3.41-.65,5.17-.11,7.46,2.29,14.94,4.48,22.39,6.81,1.77.56,4.78.55,4.43,3.06C277.34,520.24,274.36,519.44,271.87,519.71Z" transform="translate(-0.93 -0.91)"/><path d="M83.32,507.8c-1.9,0-2.95-1.05-2.54-2.79.65-2.72,2.41-5,5.17-5.44A2.82,2.82,0,0,1,89,503.16,5.48,5.48,0,0,1,83.32,507.8Z" transform="translate(-0.93 -0.91)"/><path d="M697.27,634c.05,2.24-1.14,3.35-2.93,3.45a2.47,2.47,0,0,1-2.65-2.9c.33-2.13.34-5.31,3.21-5.38C698.27,629.11,695.3,633,697.27,634Z" transform="translate(-0.93 -0.91)"/><path d="M288.88,327.93c1.38-1.44,2.31-2.32,3.13-3.3s-.38-3.15,1.82-2.69c1.52.33.67,1.95.72,3,.08,1.58.47,3.56-1.88,3.82C291.63,328.86,290.52,328.31,288.88,327.93Z" transform="translate(-0.93 -0.91)"/><path d="M55,788a4.16,4.16,0,0,1-2.47,4.58A10.9,10.9,0,0,0,47,798c-.41.86-.93,2-2.19,1.37a1.77,1.77,0,0,1-.71-2.56A9.89,9.89,0,0,0,44.3,788a4.75,4.75,0,0,1,4.12-6.57C52.16,780.9,54.93,783.55,55,788Z" transform="translate(-0.93 -0.91)"/><path d="M98.13,590.56c3.45-1.41,5.8-5,9.63-2a3.09,3.09,0,0,1,1.46,3c-.32,1.61-1.73,1.18-2.82,1.11C103.84,592.39,101.16,592.73,98.13,590.56Z" transform="translate(-0.93 -0.91)"/><path d="M38.29,848.3c-.19,2.93,2.07,6.25-1.32,8.62-.65.46-1.42,1-2.23.31-.62-.55-.29-1.23,0-1.83C35.78,853,35.91,850.22,38.29,848.3Z" transform="translate(-0.93 -0.91)"/><path d="M57.9,585.17c-1.84-.43-1.92-1.75-1.64-3.13s.63-2.9,2.33-2.74c1.93.18,1.46,1.84,1.36,3.13S59.74,585.18,57.9,585.17Z" transform="translate(-0.93 -0.91)"/><path d="M838.66,436.78c-.38,7.32,1.27,13.67,7.19,18.33,1.23,1,1.32,2,.47,3.46A121.73,121.73,0,0,1,832.75,477c-2.55,2.9-6.72,4.61-10.45,6.16-2.65,1.11-4.32,2.12-4.1,5.24.26,3.59-2.1,4-4.93,3.74-2.09-.19-3.07-1.75-1.65-2.88,4.08-3.23,4.4-8.75,8.19-12.19,2-1.78,3.57-3.85,6.21-4.69,2-.64,4.51-.74,3.83-4-.28-1.35.88-3.28-1.11-3.92-2.45-.78-5-.72-7.07,1.13a15.48,15.48,0,0,0-1.77,1.76c-1.21,1.42-2.48,2-4.34,1s-1-2.44-1.14-3.86c-.64-5.44,2.11-8,7-8.91,3.23-.58,5.5-2.19,6.58-5.3C830,444.59,836,442.08,838.66,436.78Z" transform="translate(-0.93 -0.91)"/><path d="M495.82,437.64c-.2,1.75-1.6,1.83-2.91,1.81-1.55,0-3.19-.39-3.07-2.34s1.93-1.26,3.11-1.37C494.32,435.62,495.65,435.73,495.82,437.64Z" transform="translate(-0.93 -0.91)"/><path d="M690.65,110c-.48-3.16.94-4.32,2.37-5.46,1.1-.88,2.08-.64,3.05.28,1.45,1.36,1.38,2.84.5,4.46-.23.43-.29.94-.48,1.39-.59,1.42,2.4,4.48-1.46,4.21C691.56,114.62,691,111.58,690.65,110Z" transform="translate(-0.93 -0.91)"/><path d="M679.72,123.87c-2.17-4.33.71-7.72,1.67-11.25.3-1.13,2.39-.57,3.66-.41,1.51.2,2.47,1.16,2.19,2.7s.49,3.08-.85,4.16a2.16,2.16,0,0,1-1.85-.07c-3.33-1.88-3.3-1.91-3.53,2.23A2.49,2.49,0,0,1,679.72,123.87Z" transform="translate(-0.93 -0.91)"/><path d="M703.71,114.73c-1.2.06-2.68.1-2.29-1.2.75-2.52,3.61-2.47,5.51-3.57a1.32,1.32,0,0,1,1.9,1.47C708.37,114.48,705.55,114.05,703.71,114.73Z" transform="translate(-0.93 -0.91)"/></g></g></svg>