<svg xmlns="http://www.w3.org/2000/svg" viewBox="0 0 740.63 869.52"><title>worldwar</title><g id="Layer_2" data-name="Layer 2"><g id="Layer_1-2" data-name="Layer 1"><path d="M99,876c-8.14-2.66-11.22-9.71-14.46-16.63-1.61-3.46-3-7-4.88-10.37-3.67-6.68-10.34-6.81-14.48-.44a4.72,4.72,0,0,1-.62.78c-1.74,1.81-2,5.82-5.28,5.18s-3.89-4.56-4.23-7.28A90.89,90.89,0,0,1,58.25,810c3.42-11.7,7.64-23.09,10.13-35.18,3.43-16.58-.08-31.79-6.2-46.44-8.57-20.49-14.87-41.49-17.92-63.41-1.64-11.79-3.33-23.81-2.74-35.62.9-18.15.9-36.37,3.54-54.49,1.68-11.48,3.51-22.87,6.09-34.16A237.15,237.15,0,0,1,67.6,492.45C72,483,78.18,474.54,84.83,466.39c5-6.11,9.81-12.19,16.94-15.72,15.2-7.54,30.06-9.39,40.83,7.16,1.94,3,5.44,4.81,6.79,8.39a1.62,1.62,0,0,0,2.09.88c.93-.42.57-1.45.58-2.21.08-6.14-.38-12.31,1-18.39.1-.48-.06-1,.08-1.49.85-2.74.51-6.9,4.27-7,4.12-.16,3.74,4,4.8,6.92,3.53,9.72,6.46,19.6,17.75,24.29,5.64,2.34,10.82,4,16.45,2.3,6.78-2,10.49-7.83,13.72-13.62,2.48-4.46,4.2-9.32,6.36-14,.51-1.08.29-3.08,2.1-2.89,1.42.15,1.83,1.79,2.33,3,2,5,1.74,10.24.68,15.23-2.35,11.15-5.2,22.13-10.91,32.28-4.65,8.25-11.66,13-20,16.16-4.8,1.8-13.7-2.44-17.38-7.64-1.44-2-2.64-4.25-4.13-6.23-.86-1.14-1.92-2.91-3.54-2.17-1.29.59-1.7,2.48-1.55,3.95.43,4.3.61,8.7,1.74,12.83,1.76,6.42,3.28,12.91,7.42,18.6,3.16,4.35,2.41,10,.66,14.87-1.27,3.54-4.4,2.62-6.65.51-6-5.67-9.41-13.23-14-19.94-6.25-9.16-11.39-19.07-18.42-27.7A25.49,25.49,0,0,0,116,485c-6.39-.3-11,3.91-14.91,8.56-10.17,12.08-16.92,25.83-21.66,40.94-5.94,18.91-8.53,38.17-9.78,57.84a284.73,284.73,0,0,0-.43,35.4,194.74,194.74,0,0,0,6.12,39.17c3.39,12.59,8,24.87,9.8,37.86,1.77,12.47,3.59,24.91,3,37.6a162,162,0,0,1-5.22,32.27c-1.6,6.26-.74,8.21,5.22,10.71,3.94,1.66,6,5.2,7.62,8.88,3,7,6,14,8.46,21.24a7.55,7.55,0,0,0,6,5.27c2.65.56,3.51-2.19,4.34-4.07,4.49-10.19,6.5-20.71,4.21-31.87-4.85-23.7-11.62-46.93-17.15-70.47-3-12.78-3.9-25.86-5.25-38.87-.58-5.61-.59-11.29-.74-16.93a27.45,27.45,0,0,1,.54-4.93,3.59,3.59,0,0,1,2.69-3.27c2.19-.5,2.34,1.59,2.88,2.75,3.12,6.68,7.8,11.51,15.25,12.93,3.69.7,4.9,3.76,5.58,6.36,3.39,12.8,7,25.53,9.73,38.52,3.61,17,2,34.08,2.59,51.13.35,9.53-2.79,18.66-3,28-.36,14.82.8,29.44,10.3,41.89,4.23,5.55,10.92,5.31,14.4-.63a37,37,0,0,0,4.4-12c4.26-22.29,1.83-44.26-2.43-66.17-4-20.68-8-41.4-8.5-62.5a190.54,190.54,0,0,1,4.76-45.9c1.69-7.58,4.27-15,4.9-22.79.25-3.09-.35-4.45-3.57-4-3.93.6-6.11-1.3-8.42-4.48-6.35-8.73-9.24-18.47-10.67-29-.91-6.71-2.94-13.27-4.4-19.92-2.23-10.2,4.7-16.87,14.63-14.08,6.85,1.92,11.13,6.88,14.26,12.86,2,3.84,5.11,6.89,7.08,10.81,1.33,2.66,4.14,4.23,7.62,2.17,3.22-1.9,5.22-.7,6.17,2.93,2.61,10,2.73,19.56-2.46,28.91A37.63,37.63,0,0,0,176.05,619c-3.32,16.71-4.89,33.65-1.88,50.47,3.37,18.86,8.14,37.46,11.89,56.26,2.06,10.34,3.77,20.81,3.7,31.44-.1,15.3,1.21,30.71-1,45.89-2.43,16.84-4.74,33.87-12.05,49.55C172.42,861.8,164,866.79,155,869.81c-5.67,1.91-11.1-1.81-15.37-6.19-6.86-7.06-9-16.07-10.67-25.27-.47-2.52-1-5-1.64-8.48-3.86,7.17-4.59,14.29-6.76,20.9-3,9.07-7.56,16.78-14.71,23.07-1.77,1.57-4.45,0-5.85,2.16Z" transform="translate(-41.4 -6.48)"/><path d="M606.21,308.17c-2.35,13-8.19,24.82-12.43,37.17-2.33,6.76-4,13.66-5.77,20.55-.2.76.11,1.88-1,1.95-1.42.1-1.39-1.15-1.42-2.11-.06-2,0-4-.06-6,0-7.06-.18-7-7-8-3.19-.48-4.6.61-5.64,3.31-.87,2.25-.87,4.92-2.75,6.71-1.39,0-1.24-1.12-1.45-1.76-1.77-5.29-6.22-7.68-11.71-6.22-2.69.71-2.4,3.28-3.25,5.15-.54,1.17-.84,2.92-2.43,2.75-1.31-.14-1.24-1.75-1.44-2.88-1.08-6-9.75-10.33-15-7.23-2.8,1.65-4.36,1.57-6.56-1.06-3.08-3.69-7.82-4.15-12.32-4.22-2.61-.05-4.12,2-5,4.27-.79,2.15-.71,3.92,1.4,5.71C523.88,366.05,537.2,371.54,552,374a72.44,72.44,0,0,0,27.44-.5,169.19,169.19,0,0,1,16.87-3.14c1.49-.18,3.39-1,3.28-2.6-.49-6.77,2.88-12.56,4.45-18.79,2.83-11.12,3.71-22.48,4.93-33.81.15-1.34.19-2.67,2.25-3.44-.35,5.16-.68,10.07-1,15-.11,1.49-.37,3-.39,4.46,0,1.71.07,3.46,2.45,3.58,1.92.11,3.32-.07,4.17-2.44,4.8-13.42,9.84-26.77,14.81-40.14a27.82,27.82,0,0,1,1.12-2.78c.53-1.07,1.34-2.14,2.63-1.85,1.45.33,1.33,1.79,1.22,2.93-.8,8.07-1.54,16.16-2.55,24.21a109.24,109.24,0,0,1-2.32,11.09,6.12,6.12,0,0,0,1.94,5.9c3.09,3.08,3.25,6.52,2.45,10.56a37.57,37.57,0,0,0,.21,17.79c1.56,5.55-.48,10.81-3.9,14.85-3.07,3.64-4.48,7.67-5.71,11.93-1.8,6.21-4.69,10.95-11.55,13-3.3,1-6.36,3-9.85,4-4.32,1.3-4.92,4-2.2,7.52a11.7,11.7,0,0,1,2.24,4.38c1.41,5.77,6,9.29,9.65,13.46,1.4,1.6,3.39,1.74,5.4,2.15,11.51,2.33,19.32-2.92,25.41-12a39.82,39.82,0,0,0,5.07-11.33c.52-1.81,1.33-4,3.4-3.49,1.55.35,1.53,2.64,1.63,4.3,1,16.64-3.62,32.09-12.25,45.85-8.06,12.86-17.79,13.29-29.17,2.94-4.6-4.17-8.06-9.59-12.85-15.43,0,6.35-1.07,11.75,1.11,16.85,2.66,6.24,5.89,12.24,8.72,18.41,1.59,3.47,3,7.06,2.84,11-.17,4.36-2.72,5.92-6.67,4a13,13,0,0,1-5.39-5.69c-6.53-11.74-13.22-23.39-19.77-35.12-5.18-9.27-16.74-14.8-25.65-11.33a59.31,59.31,0,0,0-18.7,11.18c-8.6,7.87-15.9,16.85-20.46,27.67a125.85,125.85,0,0,0-7.47,22.53,281.6,281.6,0,0,0-5.78,66.7A205.11,205.11,0,0,0,507.42,600c1.95,10.65,5.78,20.75,7.82,31.26,2.11,10.85,4.34,21.74,3.83,33-.55,12.14.24,24.34-.23,36.49a171,171,0,0,1-4.53,32.33,32.65,32.65,0,0,0-.33,6.94c0,1.28.38,1.26,1.77,1.09,3.74-.45,6.66,1.23,8.86,4.45,4.31,6.3,5.4,13.85,8.36,20.67,1.5,3.46,2.31,7.27,5.18,10,3.58,3.41,7.52,2.2,8.92-2.56,3.74-12.71,2.52-25.42,1.29-38.4-2.16-22.77-9.31-44.46-13.13-66.85s-5.65-44.94-3.61-67.41a228.23,228.23,0,0,1,7.59-41.42c2.82-9.94,5.85-19.68,10.51-28.82,5.47-10.76,13.9-19.09,23.77-25.84,6-4.09,16.79-1.39,20.8,4.64,5.93,8.92,11.91,17.8,17.63,26.85,1.14,1.81,2.19,2.1,3.49,1.06,2.47-2,3.33-.51,4.43,1.5,4,7.34,2.57,14.74-.74,21.51-5.09,10.41-8.9,21-9.66,32.66a162.17,162.17,0,0,0,1.45,37.14c2.55,15.37,7,30.28,9.87,45.56a270.19,270.19,0,0,1,4.49,67.38,202.66,202.66,0,0,1-14.19,62.32c-4.22,10.63-11.62,17.92-20.26,24.49-3.51,2.67-13.52-.24-17.57-4.92s-7-9.8-8-15.75c-1.23-7-4.2-13.61-4.23-21.33-5.35,3.61-4.34,9.43-6.05,13.95C551,812.28,548,822.79,541.2,831.69c-5,6.52-8,6.67-15,2.54-6.2-3.65-8.71-9.35-11.22-15.27-2.35-5.53-4.79-11-8.87-15.47-2.89-3.19-5-3-7,.71-.09.14-.12.33-.24.43-2.18,1.87-2,6.82-5.57,6.18-3.8-.7-3.71-5.32-4.11-8.32-2-15.54.46-30.74,5.31-45.44,6.62-20.09,9.67-40.45,4.32-61.12-2.7-10.43-7.55-20.29-11.57-30.76-2.15,2.11-1.79,4-1.75,5.74.48,17.84-2.44,35.34-4.66,52.94-1,8.24-2.49,16.38-3.75,24.57-.43,2.79-.74,5.64-2.73,7.89s-4.3,2.77-5-.73c-1-5.13-4.63-4.53-8.05-4.32-3.72.23-5.26,2.66-5.87,6.23-.93,5.38-2.29,10.68-3.46,16a7.5,7.5,0,0,1-4.11,5.69c-2.6-6.72-2-13.5-1.22-20.15,1.62-13.6,3.11-27.25,5.63-40.69,1.38-7.39,1.75-15.11,5.15-22.13,1.63-3.37,2.63-2.57,4.34-.3,1.58,2.1,1.68,6.14,5.49,5.52,3.63-.59,6.08-3.28,7.62-6.58,2.18-4.65,1.79-9.75,2.09-14.66.23-4,.15-8,1.24-11.83.73-2.56.57-6.25,4.93-6.46,2.17-.1,1.55-2.19,1.63-3.57.41-7.23-1.44-14.17-3.07-21.08-2.39-10.19-3-20.63-4.51-30.94-2-13.2-.94-26.57-.9-39.86,0-8.28.24-16.62,1.75-24.78.67-3.65-2.11-4.16-3.92-5.38-2.22-1.5-2.47,1.18-3.56,2.2-2,1.85-3.1,4.7-5.9,5.62-1.43-1.1.16-3.15-1.57-4a1.69,1.69,0,0,0-1.59,1.64c-1.27,7.84-8.84,11.22-12.34,17.49-1,1.79-2.23.69-2.75-.83-.58-1.69-1.33-3.27-3.48-2.65-2,.57-2.78,2.28-3.07,4.18-1.09,7.2-6.81,13.28-3.74,22.17-3.13-1.55-3-3-3.1-4.4-1.31-24.69.85-49.14,4.35-73.58A173.47,173.47,0,0,1,443,478c2.11-7,6.72-12.86,8.16-20.14.73-3.7,2-7,1.14-11.11-1-4.79-.45-9.89.36-14.92-10,17.7-10.46,38.15-16.9,56.92-.44-10,.94-19.75,3.1-29.46-6.07,13.11-6.67,27.71-11.29,41-4.67,13.5-5,27.95-9.21,41.45l-2-.31c0-2-.6-4.27.1-6,3.31-8,1.47-16.45,2.21-24.61,1.08-11.9,3.21-23.59,4.86-35.36,1.24-8.84,1.79-17.82,4.44-26.44,1.05-3.44,2.16-6.84,3.4-10.22,1.15-3.14-.06-6.69.42-10.23,1.46-10.84,3.74-21.53,5.19-32.36a38.36,38.36,0,0,0,0-5.05c-3.49.63-3,3.3-3.5,5.13-2.43,9.45-3.47,19.26-7.4,28.32-.38.89-.46,2-1.65,2.35-3.16-8,2.06-15.95,0-24-2.19,6.2-5.41,12-5.52,18.76,0,1.17,0,2.33,0,3.5-.05,11.1.42,22.12-3.13,33-3.29,10.1-2.23,21-3.74,31.47-.23,1.56.54,3.4-1.64,4.62a26.17,26.17,0,0,1-1-12c.92-8.07,1.07-16.22,1.54-24.34l2-34.69c-2.68,6.87-3.24,14.15-3.69,21.26-.78,12.09-5.77,23.22-7,35.1-2.19,21.18-9.62,41.28-12.37,62.34-.31,2.38.27,4.61.58,6.92.27,2,1.51,2.59,3.11,2.24,10.14-2.21,12.78,5.68,15.64,12.24s2.54,14,1.43,21.14c-.41,2.63-1.64,4.41-4.41,4.49-3.18.08-2.25-2.84-2.77-4.46-1.18-3.66-.76-8-4.55-10.81-3.34,5.15-2.49,10.38.09,14.85,4.35,7.52,8.74,15.29,14.59,21.58,6.49,7,10.93,15.13,15.5,23.1,8.18,14.24,11,30.2,13.2,46.43a237.91,237.91,0,0,1,2.3,44.17c-1,19.55-3.65,39-9.93,57.61-3.7,11-11,20-18,29.05-6,7.75-12.18,15.33-14.68,25.12a18.94,18.94,0,0,1-1.25,2.72c-.87,2-1.72,4.72-3.89,4.81-2.67.1-2-3.3-3.15-4.88-6.43-8.6-10.36-19-18.82-26.14-6.08-5.15-3.81-11.91-1.82-17.54,3.42-9.71,5.41-19.35,5.08-29.67-.41-12.46.36-25-.24-37.41-.43-9.14-.57-18.27-.88-27.4a22.52,22.52,0,0,0-3.24-10.92c-3.94-6.49-2.88-12.9,2.81-18,4.68-4.16,10.33-7.14,13.69-12.93,2.68-4.6,2.37-9.1-.22-12.63-12.15-16.6-15.61-35.48-14.24-55.23.74-10.61,1.89-21.53,7.05-31.35.44-.85,1.05-2.18.7-2.81-3.09-5.53-3.39-12-5.68-17.82-3,1.16-1.93,3.57-2.55,5.33-.44,1.28-.12,3.46-2.07,3.43-1.36,0-1.78-1.67-2.05-3.07-.31-1.62-.9-3.19-1.54-5.37-2.91,5.61-3.84,2-5.23-.58a38.89,38.89,0,0,0-5.78-8.22c1.21,10.77,3.9,21.33,3.19,33.1-2.86-2.85-3.07-6.07-4.33-9.22-1.26,3.7.5,7.23-1.07,10.65-1.8-11.72-6.86-21.67-14.12-30.89a3.45,3.45,0,0,0-.79,3.81c.54,2,1.52,3.86-1.8,4.36-2.47.37-4.88,1.47-5.69-2.25-1.13-5.16-4.46-9.13-7.66-13.28,2.55,8.78,4.75,17.58,4.16,26.91a30.31,30.31,0,0,1-5.69-14,25.93,25.93,0,0,0-.54-3.91c-.41-1.22-2.2-2.12-2.55-.79-1.29,4.9-8.13,8.59-3.16,15,1.22,1.6.62,4.55,0,6.83-.87,3.21-1.81,6.39-1.56,9.79.06.9.3,2.23-1.06,2.4a2.44,2.44,0,0,1-2.58-1.93,8.18,8.18,0,0,1-.32-3.94c1.94-8.35.14-16.9,1.67-25.3,2.36-13,1.15-26.25,2.74-39.17,1.27-10.38.11-20.93,2.73-31.11.67-2.61-.46-4.92-.45-7.4a89.65,89.65,0,0,1,5.05-28.94,7,7,0,0,0,.55-2.41c-.94-19.84,1.49-39.37,6-58.6,1.87-7.91,4.43-15.61,4.16-23.87a8.49,8.49,0,0,0-.54-3.9c-7.51-14.67-11.84-30.51-15.32-46.42a267.8,267.8,0,0,1-6.07-43.16c-.76-14.17-1.52-28.32-1.49-42.5,0-8.2,0-16.47,1-24.58,1.94-15.16,3.72-30.39,7.52-45.25.85-3.3,2.41-6.43,3.78-10,2.47,2.8,3.93,5.86,5.63,9.75-6.58-3.87-6.95-3.94-8.31,2.95-2.05,10.38-4.3,20.76-4.79,31.39-.1,2.19-.22,4.66,3.42,3.1,2-.84,2.59.39,2.77,2.22.12,1.15.61,2.29,2.08,2.43.7.07,1.41,0,1.65-.75a2.9,2.9,0,0,0-1.28-3.5c-3.05-1.85-5.1-5.6-4-7.85,2.3-4.83.1-10,2.2-14.42a8.15,8.15,0,0,0,.55-6.17c-.31-1.12-.73-2.43.61-3.09,1.58-.76,1.83.89,2.52,1.71s1,2.9,2.76,2.22,1.09-2.65.81-3.93c-.46-2.12-.59-3.38,1.82-4.73,2.26-1.26,1.44-4.43.87-6.48-.94-3.32-2.71-6.42-4.17-9.58a1.93,1.93,0,0,0-1-1c-3.08-1-4-3.81-1.75-6.94A39.81,39.81,0,0,0,330.3,112c1.47,1.83.54,3-.06,4.32-1.4,3,.29,5.08,2.54,6.79,1.26,1,3.08,1,3.13-.7.23-8.48.1-17,.1-26.22-2.81,4.38-.82,9.87-5.25,14.13a64.25,64.25,0,0,1,1.35-18.94c1-4.38,2.55-8.53,1.06-13.16-1-3,1.44-5.7,1.65-8.7a67.09,67.09,0,0,0-1.24-15.85c-1.21-7.08.67-14.23-1.35-21.21,3.57,10.55,3.09,21.81,5.17,33.09,3.08-1.85,2.44-3.81,2.24-5.51-1.07-9.17-2.27-18.32-3.34-27.49-.16-1.38-1-3.53.64-4,2.3-.68,2.53,2.06,2.76,3.3C341,39,341.88,46.19,343,53.38c.88,5.55,2.14,11,3.44,16.49a77.76,77.76,0,0,1,2.43,21.18c-.22,6,2.15,13.1,4.56,19.42a38,38,0,0,0,9.35,14.4c3.33,3.18,3.76,8,3.22,12.55-.61,5.08-1.46,10.14-2.12,15.22-.19,1.44-.45,3,.88,4.68,1.64-4.52.54-9.31,2.61-13.82,2.49,2,1.13,4.5,1.57,6.53.28,1.31-1,3.35,1.24,3.75,1.68.3,3.7.84,5-1,.67-.92,1.14-2.25,2.63-1.64s1.16,2,1,3.06c-1,6.71,1.12,13.51-.75,20.24-.58,2.07-.8,4.75,3.11,6.11-.48-11.82,2-23.56-2.25-34.58-5.22-13.45-9.61-27.13-13.89-40.88-3.89-12.49-9.08-24.48-14.21-36.48-4.41-10.34-5.46-21.49-7.81-32.31-.83-3.83-2.69-7.51-1.82-12.21,3.91,8.06,5.08,16.35,6.75,24.49A205.9,205.9,0,0,0,363.21,94.2c4,8.48,6.23,17.5,9.62,26.15,2.1,5.37,4.29,10.74,6.89,15.88,2.32,4.6,5.62,5,9.08,1.35A38.92,38.92,0,0,1,399,129.8c7.73-4,13.4-10.69,19.83-16.37,2-1.76,3.92-3.47,6.61-4.19,2.16-.57,3.19-2.35,3.42-4.47,2.11-19.31,6.35-38.2,11.29-57,3.33-12.63,5.11-25.7,10.89-37.63,1-2,1.88-4.39,4.54-3.52,2.27.75,2,3.48,1.76,5.24-1.56,13.09-1.24,26.23-1.13,39.35.09,10.78,2.6,21.44,1.75,32.29a3.69,3.69,0,0,0,1.54,3.51c1.34.82,2.38-.4,3.5-1.11,4.84-3.06,9.57-6.37,14.66-9,10.79-5.47,20.16-.31,28.87,5.27,5.24,3.35,10.26,7.17,15.45,10.68a8.77,8.77,0,0,0,8,1.28c8.53-2.61,16.47-1.82,24,3.76,7.1,5.27,14.17,10.43,19.22,17.87,1.84,2.73,3.71,5.3.73,8.39a1.39,1.39,0,0,0-.34,1.8c.73,1.11,1.72.56,2.69.42,4.58-.67,7.11-4.72,11-6.65,3-1.5,5.85-3.13,9.2-3.59,2.76-.39,5-1.91,7.06-3.55,5.64-4.44,12.31-6.35,19.1-7.84,5.59-1.23,9.68-5.44,15.26-6.88a173.25,173.25,0,0,1,24.23-4.87c2.93-.32,5.33,1.46,8,3.6-14.1-1.94-22,7.54-30.58,15.83-1.07-1.33.33-2.49.25-3.76s.3-2.36-1.18-3.54c-2.91,3.26-4,7.64-6.53,11.16-2.72,3.82-5.36,7.24-9.3,9.84-2.78,1.83-4.55,4.8-6.25,7.69-.72,1.22-1.88,2-3.36,1.09-1.27-.79-.79-1.88-.48-3.07.57-2.21,3-5.32.24-6.48-1.94-.82-2.74,3.15-3.9,5-3.11,5-5.09,10.46-9.75,14.69-2.57,2.34-2.78,7.27-4.07,11-.65,1.87-.79,4-4,2.35-2.54-1.26-3.27,2.1-4.89,3.26-2.46,1.78-4.2,6.76-7.06,5.11s1-5.41,1.25-8.37c.21-2.22,2-4.19,1.38-6.47-7,5.18-9.16,12.93-11,20.8-2.75,11.79-10.75,20.4-17.83,29.55-1.23,1.59-2.8,3.25-4.93,1.09-1.73-1.76-1.45-3.73.16-5.32,5.63-5.56,5.6-13.11,7.16-20.09.32-1.44,0-2.66-2.21-1.62-2.44,1.16-4.73,2.05-5.36,5.21a10.35,10.35,0,0,1-4.4,6.33c-3.38,2.49-3.89,6.83-5.5,10.44-1.74,3.92-2.72,8.25-6.18,11.2-1,.89-1.94,2.83-3.66,1.25s-.15-3,.83-4.18c1.25-1.54,3.7-2.84,3.85-4.42,1-9.95,8.52-18.08,7.74-28.46-.12-1.63.27-3.6-1.48-4.44-1.3-.64-2.33.9-3.52,1.34-12.22,4.57-13.57,16.2-16.38,26.33s-5.69,20-11.23,29.07c-4,6.61-7,13.9-11.74,20.1-1.68,2.19-3.15,7-7.11,1.37-1.5-2.13-3.34.52-4.28,2.2-3.21,5.8-6.31,11.64-10.56,16.84-2.67,3.26-6,5.72-9.07,8.38-2.76,2.36-5.28,1.13-5.32-2.5-.13-13,1.05-25.75,7.07-37.59.52-1,1.35-1.88.43-3.16-1.06-1.46-2.19-.94-3.52-.53-7.19,2.24-9.63,9.11-13.6,14.33-2.2,2.89-4.23,6.38-4.32,10.45,0,1.27-.09,2.45,1.18,2.95s1.67-.58,1.92-1.58c.29-1.16,1.11-1.84,2.18-1.42,1.33.52.53,1.65.29,2.54a6.13,6.13,0,0,1-.67,1.87c-9.21,13.28-11.06,29-14.52,44.15-1.84,8.08-3.36,16.24-5.26,24.31-1.29,5.46-5.88,9.6-6.34,15.51-.33,4.28-2.66,8.47-.67,13.58.87-1,1.55-1.43,1.58-1.88.38-7.05,5.09-9.45,11.1-10.46,4-.67,6.52-4.91,11-4.24a1.46,1.46,0,0,0,1.14-.83c1-5.84,7.77-7.68,9.14-13.24.11-.46.24-1.12.58-1.31,9.65-5.53,9.05-15.09,9.52-24.22.06-1.23.2-2.31,1.65-2.75,1.56,2.65,1.3,5.7,1.92,9.39,4.65-3.21,6.16-8,8.72-12,1.51-2.36,1.35-7.24,4.6-6.6,2.67.52.75,5,1.22,7.67s-.52,5.07-1.86,7.52C475.56,321,467.6,337.4,465.78,356c-.68,7-.82,13.93,2.34,20.51,1.09,2.26,1.9,4.66,4.57,5.59a2.77,2.77,0,0,1,1.95,3.55c-.48,2-2.11,2.36-3.89,2.21-.92-.09-1.61-.84-2.79-.28-3.94,1.86-6.45.5-7.41-4a12.43,12.43,0,0,0-3.05-6.8c-1.72,8.53-2.94,16.25-5.78,24,4.06-.6,3.88-3.48,4.48-5.68.37-1.33.55-2.88,2.1-3s1.26,1.65,1.76,2.59.76,1.91,2.14,2.44c3.9,1.48,3.95,4.67,2.24,7.73-1.1,2-1.67,3.33-.06,5.29,2.1,2.57.58,4.93-.79,7.33-.67,1.17-2.1,2.86-.53,4,2,1.51,2.77-1,3.82-2,2-1.83,2.57-5,6.62-6.8-2.87,11.44-9,20.61-11.2,31.16a54.17,54.17,0,0,0,9.08-16.67,28.32,28.32,0,0,1,3.93-7.46c.51-.67,1.27-1.23,2.1-.53s.46,1.48.08,2.26c-1,2.09-1.64,4.54-3.13,6.22-4.48,5-3.8,10.85-3.39,17.71C476.91,439,480.69,432,485,425.3c2.31,2,.49,3.59-.35,5.17s-2.1,3.26-2.09,5.7c4.57-1.05,5.63-5.75,9.25-8.45-.17,4.63-2.85,7.47-4.67,10.63-1.57,2.73-3.46,5.27-5.25,7.87-.61.89-1.05,2-.46,2.77,1,1.41,2,0,3-.39,2.94-1.09,4.41-4,6.94-5.62,4.74-3,9.19-6.55,14.68-8.29,4.27-1.35,6.26-5.14,9.66-9.57-6,2.91-8.56,1.28-8.84-4.13-.09-1.83-1.77-1.21-2.7-.69-2.24,1.23-4.51.73-7,.48a14.46,14.46,0,0,1,4.26-7.72c1-1,1.51-1.82.46-2.94s-2.14-.35-2.89.55c-1.81,2.18-4.93,2.6-6.49,5.31-1,1.76-3.32,1.37-5,.72s-1.3-2.1-.89-3.45c.28-.94.79-2.06-.47-2.58a2.55,2.55,0,0,0-2.77.7c-1.45,1.45-3.24,2.47-4.68.61-1.56-2-.72-4.12,1.44-5.48,3.88-2.47,3.44-7.35,6-10.67,1.21-1.6-1.3-1.62-2.37-2.11-1.48-.69-3.3-1.11-3.14-3.32.15-1.92,1.64-2.49,3.07-3.46,4.41-3,9-5.85,12.44-10.06,1.6-2,2.78-2.19,5-.8a100.57,100.57,0,0,0,30.25,13.11c7.37,1.79,15.31,2.44,22.84,4.08a94.36,94.36,0,0,0,16.14,2.22c2,.09,4,0,5.69-1.33a4.27,4.27,0,0,1,2.74-1c14,1.7,25.35-4.41,36.13-12.22,2.19-1.59,4.82-2.14,7.37-2.86,7.26-2.07,12.09-8.45,11.72-15.42-.22-4.27-1.42-4.93-5.14-3.07-2.47,1.24-4.58,2.66-5.29,5.56-.59,2.41-2.64,3.24-4.69,4-5.39,2.08-11,3.38-16.05,6.61-2.74,1.77-6.26,3-9.93,1.18-2.36-1.19-5.2-.43-7.29.42-10.73,4.35-21.63,2.28-32.47,1.31a65.35,65.35,0,0,1-18.31-4.07c-1.12-.44-2.5-1.16-3.32-.47-5,4.19-9.7.83-13.63-1.33-8-4.41-17-8.89-16.47-20.12.38-8.56,1.1-17.13,4.38-25.33a420.68,420.68,0,0,1,27.48-55.12c8-13.8,16.52-27.2,26.45-39.7,2.42-3.05,5.51-5.25,8.2-7.92,12.67-12.58,24.52-25.94,37.93-37.87,8.29-7.39,17.79-10.61,27.79-13.2,3.57-.92,7.79.65,11.71,1.15,2.38.31,4.52.73,5.48-2.5.85-2.88,2.85-2.51,5.14-1.24,1.66.92,3.89,2.14,5.36-.15s1.06-4.79.19-7.18c-.19-.54-1.22-1.33-1.4-1.22-4.28,2.51-8.84-2.28-13.18.67-2.93,2-6.32.21-9.18-.38s-.67-2.87.64-3.38c5.66-2.21,5.64-7.08,6.37-12.92-2.53,3.08-4.54,3.25-6.27.54-.87-1.37-1.87-1.79-3.27-.67s-2.87,1.24-4-.06-.53-2.84-.08-4.29c2.45-7.87,6.93-14.7,11-21.73a34.55,34.55,0,0,0,3.06-5.71c1-2.77,3.23-3.46,5.32-5,5.9-4.32,12.77-2.71,19-4.56,4.57-1.35,5.3-2.37,2.62-7,5.4,1.89,6.23,6.67,7.38,10.59,3.46,11.86,3,23.89.16,35.84-3.11,13-8.4,25.43-10.85,38.61-1.69,9.08-5.27,17.69-6,27a18.58,18.58,0,0,1-5.4,11.51c-3.24,3.35-2.86,8.31-4.28,12.49-3.43,10-5.61,20.45-10.05,30.17a66.15,66.15,0,0,1-11,17.56c-1,1.15-2.18,3.1-4,2-1.62-1-1.25-3.2-.71-4.62,3.28-8.61,4.14-17.76,6-26.66,2.22-10.84,4.81-21.7,4.75-32.89,0-1.34.68-3.42-1.63-3.48-2-.05-1.45,1.84-1.65,3.05-2.47,15.38-5.2,30.69-9.8,45.62A85.16,85.16,0,0,1,617.16,282c-.68,1.18-1.36,2.51-3,2.05-1.45-.42-1.13-1.87-1.14-3-.17-11.46.9-22.85,1.65-34.26.35-5.48.09-11,.08-16.5,0-.78.16-1.76-.89-2.07-1.63-.48-2.45.77-3.25,1.78a168,168,0,0,0-15.09,22.22c-9.53,17.13-18.7,34.46-28,51.73-1.72,3.21-3.47,6.44-4.89,9.79-2.22,5.21-1,10.23,4.57,13.79s10.08,8,15.89,11c7.39,3.82,10.75,2.31,13.11-5.59s5.45-15.59,8.27-23.35a1.68,1.68,0,0,1,1.84-1.31ZM566.84,765.66c.89,7.81,1.59,15.36,4.58,22.5,2.3,5.47,3.84,6.23,9.81,5,7.6-1.55,10.36-7.53,12.26-13.74,4.84-15.78,5.53-32,3.2-48.24-3-20.48-6.87-40.82-9.46-61.34-2.73-21.68-.59-43.35,2.1-65,.91-7.29,3.74-14.09,4.83-21.32.45-3.07-.07-5.21-2.79-7.17a32.45,32.45,0,0,1-10.92-13.23c-2.58-5.73-4.17-11.94-7.91-17.15-4.42-6.18-10.48-6.21-13.52.31-4.67,10-7.65,20.47-7.83,31.63-.16,9.32,1.32,18.44,2.67,27.62,1.51,10.27,2.78,20.54,5.53,30.61,3.14,11.48,6.2,23,8.53,34.67,3.6,18,3.79,36.32,3.1,54.57-.23,6.08.44,12.38-1.33,18.33C567.53,751,568.21,758.56,566.84,765.66ZM424,726.71c-1-11.85-2.28-27.21-7.52-41.86-2.68-7.48-5.52-15-10.43-21.4-1.56-2-3.59-4-4.92-.15-1.56,4.52-3.17,9.23-3.09,14,.27,14.94-.5,29.87.67,44.84,1.28,16.36,1.48,32.83,1.6,49.26,0,6.79,1.58,12.74,5.45,18.21,1.46,2.06,2.74,4.58,5.63,4.28s3.84-2.82,4.82-5.18a107.48,107.48,0,0,0,7.95-34.63C424.72,746.09,423.75,738.2,424,726.71ZM369.19,471.56c1.81-2.21,1.05-3.66,1-5.08-.65-10.74-1.91-21.41-3-32.1-.56-5.69,1.15-11.32,2.13-17,2.52-14.63,2.17-29.61,5.8-44.32,2.58-10.45.48-21.81,2.85-32.59.16-.75.51-1.94-1-2.58a15,15,0,0,0-1.61,7.13c-.22,8.31-3.19,15.79-6.67,23.15-1.41,3-.23,6.29-.81,9.36-.39,2.06,0,5.7-2.5,5.59-3-.13-2.39,1.19-2.4,2.72,0,4.5,0,9-.05,13.5,0,1.48-.29,3.35-2.12,3.36-1.59,0-1.61-1.79-1.85-3.08-.59-3.17-1.39-6.24-5.49-9.32,1.89,9.8,1.1,18.29.27,26.84a45.5,45.5,0,0,1-2.56-7.82c-1.1-4.33-.81-8.94-2.72-13.12-.7-1.53-.68-2.39-3.3-1.66-4.37,1.23-4.18,3.28-2.79,6.3.82,1.79.3,3.62.63,5.39.94,5.08-3,10.11-1.48,14.55,2.77,8.18,4.64,16.61,7.47,24.75.36,1,.57,2.77,2,2.39,1.94-.52.5-2.13.51-3.3,0-2.71-1.44-5.55.61-8.89,2.25,6.55,2.15,12.73,3.28,18.69s1.56,12.05,6.13,17.15c1.74-4.62-2.44-8.76-.09-13.52,1.65,6.81,3.14,13,4.63,19.14.29-13.44-3.94-26.38-2.55-39.8C365.3,448.57,365.3,460,369.19,471.56ZM616.38,192.8c-.19-1.84.61-3.65-1-4.49s-2.37.87-3.28,1.7c-7.35,6.73-15,13.15-21.84,20.4-10.66,11.35-22.19,21.84-31.94,34.11-11.83,14.89-21,31.36-30.43,47.72-.66,1.15-1.52,2.44,0,3.5a3,3,0,0,0,3.73-.22,17.89,17.89,0,0,0,3.23-3.72c4.38-6.85,8.52-13.83,11-21.68.8-2.58,2.36-4.73,5.27-4.42,7.11.75,9.32-3.6,11.32-9.29,1.52-4.36,2.49-10,7.73-11.56,8.5-2.58,13.38-8.15,15.9-16.32a6,6,0,0,1,5.79-4.61c7.59-.61,10.17-2.81,11.91-10.17.61-2.61-.45-6.56,4.31-2.74,1.25,1,2.58-1,3.51-2.14C615.63,204.08,615.07,198,616.38,192.8ZM339.13,309.38a4.94,4.94,0,0,0,.87.15c3.68-.51,8,2,9.54-5a43.3,43.3,0,0,1,3.4-10.56,1.8,1.8,0,0,0-.66-1.62c-.93-.41-1.51.26-1.74,1.18-.72,2.75-1.47,6.39-3.92,7.08-2.72.76-4.24-3.11-6.47-4.74-5.8-4.27-9.69-9.83-10.49-17.32-1.24-11.64-4.22-23.12-3.43-35,.22-3.3-2.34-6.2-.85-9.75,1.74-4.15,1.21-8.13-2.33-11.42-.91-.85-2.35-2.57-1.08-3.34,4.52-2.74,1.75-5.37-.09-7.47-2.87-3.26-3.73-6.53-2-10.49a6.73,6.73,0,0,0-1-7.08c-1.08-1.44-1.45-4.43-3.92-3.65-2.14.68-.89,3.23-1.07,4.94a40.22,40.22,0,0,0-.05,5.49c.16,4.64-1.32,9.52-.45,13.78,1.34,6.61,2.85,12.87.57,19.5-.34,1,.38,2.26.33,3.39-.38,8.7,3,17,2.79,25.64-.17,8.38,2.35,16.33,3.59,24.47,1.57,10.38,9.92,17.77,13.18,27.5.06.16.57.16,1.16.3.69-6.63-2.38-12.61-3-19.06C334.53,300.66,340.87,302.66,339.13,309.38Zm278.63-79h.12c0,4.33.34,8.69-.07,13-.78,8.08-1.69,16.15-1.54,24.28,0,1.07-.58,2.73.87,3s2.26-1.08,2.71-2.4c1.39-4.06,2.89-8.09,4.12-12.2a289.63,289.63,0,0,0,8.63-40.7c1.52-10.31,3.41-20.58,3.13-31.06,0-1.46,0-3-1.49-4-4.25-2.75-14.16,2.21-14.43,7.37C619.06,201.93,618.43,216.17,617.76,230.4ZM360.45,207.53a9.91,9.91,0,0,0,1.6-6.4c-.78-6.85.14-13.48-2.49-20.64-3.1-8.49-2.12-18.51-4-27.73-1.15-5.58.77-11.7-1.15-16.75-2.2-5.77-2.41-11.52-3.29-17.35-.78-5.12-1-10.46-3.72-16.08-3.38,6.93-1.59,14-3.81,20.34a12.46,12.46,0,0,1-.58-4c-1-11.49,2.3-22.78,1.68-34.21-.31-5.81-.75-11.84-4.43-18.2-1.89,13.05,1.81,24.61-.16,36.5-1.64,9.88-.31,20.26-.3,30.41,0,1.83-.31,3.87,1.36,5.09,1.95,1.44,1.79,3.36,1.89,5.36.09,1.84-.46,3.8,1.09,6.83,1.52-7.61-.25-14.32,1.83-20.59,3.34,8.13,2.21,16.7,2.72,25,.55,9,2,17.79,2.71,26.71.13,1.51.28,3.66,2.09,4.27,4.08,1.39,3.67,5,4.54,8.1C359.21,198.43,358.12,203.13,360.45,207.53Zm293.73-13.67c2.21,2.49,1,4.59.48,6.59-.91,3.68-2.1,7.34-1.54,11.19.26,1.81.88,3.63,3.2,3.87s3.11-1,3.79-3a66.48,66.48,0,0,0,2.18-10.13c2.33-13.36-5.6-22.89-19.14-22.58-1.94,0-3.83.33-4.13,2.68q-1.47,11.81-2.75,23.64c-.2,1.78.42,3.62,2.29,3.93,2,.34,2.65-1.67,3.25-3.19a12.2,12.2,0,0,0,.26-2.46q1.26-7.49,2.56-15c1.16,5.13,1.23,10.12-1,14.82-1.27,2.62-.88,5.49,1.31,6.63,2.89,1.51,4-2,4.81-3.74C651.52,203,652.61,198.66,654.18,193.86ZM613.83,348.2c0-1.63.3-3.12-.08-4.4s-.46-3.41-2.2-3.59-2.11,1.77-2.58,3.14q-3.35,9.63-6.62,19.29c-.42,1.26-.76,2.77.18,3.81,1.17,1.29,2.42.06,3.6-.4,4.8-1.86,9.46-4.32,14.43-5.45,9.43-2.13,11.77-9.34,13.25-17.17.47-2.51,1.5-6.51-1.83-7.49-3-.89-3.82,2.92-5.16,5.1a9.25,9.25,0,0,0-.47.88c-.43.91-.87,2-2,2-1.34-.06-1-1.4-1.35-2.28-.56-1.49-.84-3.54-3-3.47s-3.07,2.08-3.49,3.76C616,344.09,615.78,346.35,613.83,348.2ZM484.13,96.62c2.72-1.49,5.4-3.84,5.87,1.58.24,2.75,2.32,2.1,4.2,1.54,2.33-.69,5.44-2.11,6.45,1.21,2.32,7.64,8.47,9,15,10.15,5.65,1,9,4.26,10.17,9.91.57,2.8,1.36,5.47,3.32,7.66.82.92,1.13,2.91,2.83,2.1,2-.92.69-2.46.22-3.83-1.88-5.43-5-10.35-5.55-16.39a8.45,8.45,0,0,0-5.63-7,12.79,12.79,0,0,1-5-3.28c-6.33-7-15.34-8.76-23.49-12.09-5.62-2.29-6.26-1.61-8.06,4.17C484.07,93.54,483.45,94.76,484.13,96.62ZM654.05,223.07c-1.06-2.37-1.15-5.63-3.78-7-2.33-1.26-5.07.31-7,1.4-2.78,1.55-2.45,5.08-2.8,8a384.14,384.14,0,0,1-7.22,41.38c-.47,2-2.94,4.94,0,6.06,2.2.84,3.41-2.5,4.55-4.43a47.48,47.48,0,0,0,2.43-4.9,294.44,294.44,0,0,0,11-29.74C652.33,230.35,653.08,226.8,654.05,223.07ZM448.79,532.58c2.85-4.66,5.54-7.61,10.22-7,.59.08,1.38-1.29,2.05-2,6.52-7.07,10-16.38,17-23.11a5.26,5.26,0,0,0,1.23-2.69c.32-1.66-1-2.42-2-1.59-3.95,3.18-9.73,4.12-11.7,9.81-.83,2.39-2.46,4.5-4.23,7.64-1.77-4.73-2.29-8.3-.16-12.14,3-5.51,5.93-11.12,8.74-16.75.89-1.76,1.61-4.42-.26-5.35-2-1-2.57,1.86-3.56,3.19-8,10.82-12.16,23.43-16.1,36.07C448.77,522.48,447.23,526.46,448.79,532.58Zm-117.55-138c-1.25.22-1.42.89-1.42,1.54-.07,7.95-1.46,16-1.32,23.75.26,14,3.59,27.85,8.56,41.13.55,1.47,1.55,3.21,3.05,2.69,2.22-.76.86-2.8.45-4.23-1-3.65-3.63-7-2.13-11.08,1.17-.13,1.21.68,1.6,1.16,1.11,1.36.79,4.8,3.59,3.62,2.55-1.06.75-3.61.2-5.31-4-12.51-6-25.52-9.55-38.14C332.88,404.77,333.69,399.33,331.24,394.6Zm105.12-157c-2.77,1.05-3.47,3.19-4.39,5.23-1.58,3.47-2.45,8.12-5.18,10-5.92,4.1-5.18,10.37-7.1,15.78-.27.77-.23,1.76-.71,2.33-5.74,6.8-6,15.63-8.8,23.52a6.69,6.69,0,0,0,.57,6c1.91-3.85,1.75-7.63,4.22-10.45.34,13.37-7.28,25.29-7.58,38.54a17.41,17.41,0,0,0,1.7-4.12c3.6-13.39,8.34-26.47,10.72-40.18.17-1,.63-2.63,1.55-1.62,4.16,4.57,3.17-.94,3.41-1.9,2-8.16,3.62-16.34,7-24.2C434.28,250.6,434.9,243.91,436.36,237.57ZM483,87.72c-.07-3.42-3.49-6.24-4.67-4.29-2.61,4.29-7.33,4-10.87,6.13-9.67,5.74-18,13.41-27.82,18.89a6,6,0,0,0-2.33,2.54c-.7,1.53-2.64,3.2-.92,4.91s4,.75,5.94-.32a4,4,0,0,0,1.82-2.83c.43-1.75,1.6-2.53,3.34-2,5.33,1.6,8.86-.84,10.66-5.46,2.29-5.9,8.36-5.91,12.61-8.54,3.19-2,6.53-4.34,10.55-5.13C482.49,91.37,483.12,89.34,483,87.72Zm8.26,47.71c.74-4.85-2.19-5.85-6-5.56-4.49.35-8.07,2.63-11.22,5.77-3.5,3.48-3.74,7.1-1.08,11.15,3.42,5.19,8.75,5.6,14.23,6.53,3,.51,3.65-.14,3.51-2.57A68.8,68.8,0,0,1,491.26,135.43ZM411,233.77c-.7,8-7,14.3-6.35,22.82a78.19,78.19,0,0,1-.24,12.42c-.3,3.91.44,7.92,1,11.85.19,1.38,1,3.18,2.56,3.31,1.89.15,1.91-1.93,2.47-3.23,3.75-8.72,3.24-18,3.47-27.15,0-1.19,0-2.46-1.27-3-2.61-1.18-1.91-3.49-2.18-5.57C410,241.33,413.23,237.93,411,233.77ZM534.33,111c.22,2.78.5,5.31,2.44,7.41.91,1,1.82,3.52-.45,3.33-4-.35-1.69,1.92-1.41,2.82,1.22,4,2.92,7.79,4,11.79.77,2.92,2.78,6.45-2.26,8.13-1.34.45-1.6,2.58-.62,4s2,.38,3-.23c2.94-1.84,6-3.58,8.8-5.55a4.4,4.4,0,0,0,1.63-6.1c-2.55-5.39-5.05-10.82-7.4-16.31C540.42,116.36,538.17,113.08,534.33,111Zm99.86,192.73c-.18-1.5.35-3.55-1.32-4-1.94-.55-2.16,1.58-2.64,2.88-3.1,8.36-6.12,16.75-9.23,25.1-1.25,3.35.21,5.69,2.48,7.94,1.71,1.7,2.61,1.46,3.51-.75C631.08,324.82,631.82,314,634.19,303.69Zm26.59-162.54a4.35,4.35,0,0,0,2.27-2.79c1.84-6.7.9-13.52.64-20.26-.11-2.86-4.66-3.56-6.05-.72-4.44,9.11-8.53,18.45-4.89,29,1.74-8,.71-16.83,8-24.36Zm-188.22,54.2c-6.3,1.25-10.61,5.51-13.89,10.35-2.15,3.19-6.06,6.05-5.14,10.74.52,2.69.48,4.55-2.83,5-1.67.23-2.16,1.62-1.38,3a1.75,1.75,0,0,0,3,.35c3.55-4.25,9.87-6.69,9-13.9-.21-1.82,1-3.28,2.55-4.55,2.67-2.23,5.07-4.78,7.59-7.18C472.58,198.11,473.58,197,472.56,195.35ZM452.94,55.2c-.55,4.31-2.45,7.89-4.17,11.7-3.12,6.94-5.93,14.11-6.64,21.84-.09,1-.59,2.54.92,3s1.81-1.08,2.17-2.1c1.88-5.31,3.23-11,6.64-15.49C456.61,67.88,454.79,61.64,452.94,55.2ZM399,214.28c-4.84-8.45,2.34-16,.47-23.69-5.13,11.43-3.75,23.89-5.93,35.79a55.7,55.7,0,0,0,2.65-8.28c.31-1.07.7-2.41,2.28-2.11s1.34,1.72,1.3,2.82c-.07,2.48-.32,4.95-.46,7.43-.3,5.31-3.8,10-2.59,15.59,2.07-11.68,7.58-22.72,7.22-34.86l-1.42-.37C401.42,208.94,400.35,211.28,399,214.28Zm-9.3,187.18c5.24-3.54,7.67-28.91,3.67-35C392,378.25,389.2,389.39,389.67,401.46Zm-4.53-21.74c-1.15,11.1-2.27,22.2-3.48,33.29-.16,1.5.1,3,1.49,3.16s1.5-1.53,1.6-2.57A184.43,184.43,0,0,0,385.14,379.72ZM389,408.06c-3,11.8-1.61,23.75-1.7,35.65C390.16,431.93,390,420,389,408.06ZM366.65,235.38c3.21-8.24,4-22.69,1.88-27.39C367.4,217.1,364.56,226.08,366.65,235.38Zm121.26-69.71c2.85.8,6.27-1.45,9.95-2.17.82-.16,2-.71,1.62-2.06a1.33,1.33,0,0,0-1.6-.85L478.77,163c-.89.11-1.7.35-1.68,1.42s1.08,1.23,1.82,1.26C481.53,165.73,484.16,165.67,487.91,165.67ZM419,322.41c2.13-8.29,6-16.21,5.23-25.08C421.19,305.41,417.94,313.44,419,322.41ZM539,100.81a6.89,6.89,0,0,1,5.86,1.92,10,10,0,0,0,4.84,2.43c1.13.28,2.37.86,3.06-.53s-.46-2.2-1.41-2.82A22.46,22.46,0,0,0,538.7,98c-1.16,0-3.08-.67-3,1.44C535.69,101.92,537.56,101.07,539,100.81Zm-127.35,99c-2.62,7.86-5.95,15.3-4,24.89C410,215.91,413.3,208.51,411.63,199.84Zm-84.57,311.8c.07-3.42-1.74-6.08-4-5.95-2.68.16-1.71,2.33-1.78,3.75-.14,2.62-.42,5.7,3.35,5.89C327.06,515.45,327.15,513.28,327.06,511.64Zm123-303.85-1.32-.51c-4,3.39-7.93,12.25-8.11,19Zm221.36-74.23c2.05-3.4,4.9-5.38,4.83-9,0-.79.13-1.78-.8-2.15a1.66,1.66,0,0,0-2.1.9C671.9,126.15,669.46,128.82,671.42,133.56ZM419,122.6c-.25-1-.76-2.27-1.79-1.85-2.77,1.1-3.11,4-4,6.44-.38,1.08.48,2.21,1.57,1.79C417.58,127.92,418,125.09,419,122.6ZM436,89.11c3.81-7,3.81-7,2.13-11.18C436.13,81.17,434.84,84.41,436,89.11Zm4.09-14.57L442.05,60l-1.32-.15A22.33,22.33,0,0,0,440.13,74.54Zm-68,381.54c1.37-3.89,1-7.66-1.18-12.42A23.61,23.61,0,0,0,372.1,456.08Zm215.79-35.46c1.27-2.18,1.75-4.45.37-6.4-.64-.92-2.55-.08-3,.76C583.46,418,587.61,418.35,587.89,420.62Zm87.16-270.85c3.36-5.76,3.55-7.18,1.82-12.37A44.14,44.14,0,0,0,675.05,149.77Z" transform="translate(-41.4 -6.48)"/><path d="M291.31,684.07a130.88,130.88,0,0,0,11.28-24.24c.7-1.93,1.1-4.66,3.93-4.37,2.65.27,3,2.93,3.47,5,.86,3.81,2.9,7.05,4.44,10.53,1.69,3.8,3.7,6.58,8.37,6.23,1.9-.14,2.35,1.3,2.72,2.91.87,3.8,1.34,7.74.41,11.41-3.24,12.87-6.4,25.8-13,37.49a25.25,25.25,0,0,1-2.2,3.3c-1.9,2.39-3.2,2.55-4.71-.66a74.61,74.61,0,0,0-8.33-13c-2.24-3-3.57-2.09-5,.53a12.07,12.07,0,0,0-1.42,6.22c.07,8.3.83,16.53,1.51,24.8,1.11,13.4.07,26.94,1.15,40.41a45.49,45.49,0,0,0,1.29,6.83c.53,2.24,1.71,4,4.41,3.94s5.3-.6,6.46-3.61q3-7.62,5.92-15.23c.41-1.06.5-2.51,2-2.47,1.67,0,2,1.5,2.29,2.82,2.28,9.08.31,17.87-2.32,26.44-4.42,14.35-11.89,27.32-19.4,40.23a3.12,3.12,0,0,0-.43.88c-.55,3.07-1.64,6.74-4.71,6.92s-4.86-3.36-6.58-5.91a182.48,182.48,0,0,1-12.1-21.24c-2.75-5.56-2.38-11.56-1.31-17.15a111.79,111.79,0,0,0,1.7-20.32c.12-23.47-.24-46.94-.61-70.42a51.16,51.16,0,0,0-1.71-10.79c-.8-3.41-2.53-4.37-5.54-1.61-6.22,5.7-6.8,12.82-6,20.58a172.23,172.23,0,0,1,0,36.81c-1.1,10.5-2.4,21-5.14,31.26A171.35,171.35,0,0,1,240,831.46c-4.78,9.53-11.42,17.82-16.89,26.88-.17.29-.35.56-.54.84-4.83,7.13-6.34,7-10.36-.37-3.51-6.4-7.42-12.58-11.16-18.85a6.77,6.77,0,0,0-3.75-3.13c-4.82-1.6-5.41-5.56-4.92-9.66,1.42-11.84,3.5-23.61,3.18-35.59q-.77-27.93-1.61-55.84a14.9,14.9,0,0,0-2.2-7.56c-2.74-4.4-3-9.43-3.51-14.32-.55-5.57,2.76-9.09,8.24-12.23a41.36,41.36,0,0,0,14.38-13.58c5.59-8.82,11.24-17.64,14.84-27.55.76-2.11,1.07-5,4-5,3.12-.09,3.87,2.8,4.89,5,6.33,13.65,13.83,26.79,18,41.39.3,1-.28,3.06,1.72,3.07s2.16-1.76,2.55-3.19c3-10.85,6.17-21.66,8.89-32.57,1.16-4.62,4.11-8,6.73-11.53s7.72-2.57,10.07,1.38c3.34,5.62,4.85,11.93,6.38,18.22C289.45,679.43,289.56,681.78,291.31,684.07Zm-73.83,25c-2.2,2.94-2.85,6.49-2.75,10.39.19,6.82.35,13.62.68,20.44.81,17,1.12,33.93,1.65,50.9a5,5,0,0,0,.3,2.43c4.25,6.38,6.5,13.71,9.92,20.48.83,1.64,1.56,3.66,3.73,3.49a5,5,0,0,0,4.29-3.06c1.87-4.92,4.53-9.85,5-14.94.75-8.85,1.7-17.65,1.24-26.71C240.29,748.51,231.26,727.91,217.48,709Z" transform="translate(-41.4 -6.48)"/><path d="M675.46,781.53c-4.39,2.58-4.29,7.45-5.66,11.23-3,8.36-8.33,15.43-12.26,23.26-1.92,3.82-6.89,3.18-9.89-1.54-3.82-6-8.08-11.71-11.71-17.89-6.07-10.34-7-21.12-5.67-32.69.81-7.24.26-14.64.27-22,0-16.32.07-32.64,0-49,0-6.62-.58-13-4.12-19.16-4.28-7.41-1-15.45,6.83-19.19,9.8-4.69,15.71-13,20.56-22.3,2.68-5.13,6.12-9.87,7.71-15.58.48-1.73,1.55-3.63,3.62-3.65,1.75,0,2.94,1.64,3.58,3.12,3.7,8.56,9.94,15.14,16.4,21.58,4,4,7.65,4.23,11.9.38,2.18-2,3.31-1.5,4.21,1.18,2.24,6.67.16,12.9-2.31,18.85a35.53,35.53,0,0,0-2.57,14c.11,22.8.46,45.59.75,68.39.06,4.71,1.6,9.16,2.94,13.58.92,3,3.66,3.18,5.36.84,2.48-3.43,6.62-5.73,7.32-10.44a2.14,2.14,0,0,1,1.94-2c1.58,0,1.67,1.5,1.76,2.58.87,9.52.23,18.91-4.18,27.55-6,11.67-10.48,23.93-15.57,36a19.83,19.83,0,0,1-.77,1.84c-2.65,4.83-4.43,5.19-7.92,1-5.85-7-8.93-15.42-10.81-24.25C676.72,785.37,676.59,783.44,675.46,781.53ZM653,705c0,10.67-.17,21.33,0,32,.18,8.66,1.44,17.18,5,25.2.92,2,1.89,3.93,4.53,4,2.91.14,11-6.36,11.3-9.31.41-4.28.76-8.59.85-12.89.35-17.16-1.45-34.28-.8-51.43a6.25,6.25,0,0,0-2.05-5.34c-5.79-5.27-10-11.94-15.22-17.72-.79-.88-.8-3-2.65-2.15-1.45.64-1,2.31-1,3.61Q653,688,653,705Z" transform="translate(-41.4 -6.48)"/><path d="M739.24,636.06c6.68-5.26,9.08-12.89,13-19.52a65,65,0,0,1,4.68-7.64c3-3.82,4.74-3.67,6.55.73,2.06,5,4.72,9.35,9.16,12.62,2,1.45,3.3,3.77,6.3,3.34,1.35-.19,2.11.71,2.29,2.09.26,2,1.05,4,.8,5.87a88.64,88.64,0,0,1-20.33,46.27c-2.81,3.35-4.25,2-5.58-1-2.49-5.58-4.05-11.64-8.4-16.26a18.68,18.68,0,0,0-2.71-2.89c-2.14-1.45-3.41-1.3-3.82,1.87-.71,5.49,0,10.91,0,16.36.13,13.83,0,27.66.05,41.5,0,9.17,2,18.09,3.87,27,.65,3.18,2,7.27,5.48,7.71s5.39-3.16,6.9-6.18a49.41,49.41,0,0,1,3.29-6.14c.86-1.24,1.63-3.47,3.38-3s1.85,2.42,2.12,4.14c1.41,9-.6,17.52-4.32,25.6-6.16,13.41-12.62,26.69-19,40-1.68,3.52-3.92,4-6.4,1.09-11.28-13.11-19-28.23-17.29-45.62,1.89-19.66.93-39.24,1.09-58.83a283.45,283.45,0,0,0-2.31-40.73c-.29-2.09-.7-4.3-2.92-4.69s-3.38,1.52-4.16,3.42c-.06.16-.11.32-.17.47-.9,2.23-2.43,5.07-4.5,4.71-2.34-.4-1.22-3.65-1.51-5.69-1.22-8.64,2.42-16.14,5.31-23.9s4.7-15.89,9.12-23.05c1.69-2.73,3.52-6.27,6.58-6.15,3.33.12,6.05,3.17,7.86,6.24C737.26,621.9,738,628.88,739.24,636.06Z" transform="translate(-41.4 -6.48)"/><path d="M325.52,807.75c0-4.37.28-8.73,2.59-12.55,2.54-4.18,3.07-8.79,3.1-13.44.12-23.16.81-46.35-.11-69.47-.82-20.6,1-41.33-2.29-61.78-1.27-7.91-2.34-16-6.29-23.33-3.74-6.94-1-13.85,5.42-18,6.14-4,9.63-10.26,11.46-17.33,2.19-8.49,4.16-17.05,6.48-25.5.79-2.87,1.55-7.4,4.9-7s3,4.89,3.17,8c.54,8.54-3,16.5-3.06,25.11,0,10.44-.49,20.91-.41,31.37.25,31.32.31,62.64.8,94,.34,21.9,3.38,43.71,2.72,65.68a15.22,15.22,0,0,0,1.17,5.81c1.57,4,4.4,4.71,8,2.28,3.4-2.32,4.49-1.83,4.84,2.31a28.63,28.63,0,0,1-1.52,12.24c-4.41,12.19-8.79,24.39-13.33,36.53a24.73,24.73,0,0,1-3.63,6.48c-2.34,3-5.16,2.42-6.24-1.13a96.87,96.87,0,0,0-15.89-31.2C325.19,814,325.7,810.86,325.52,807.75Z" transform="translate(-41.4 -6.48)"/><path d="M489.82,351.54c1.65-8.1,2.47-16.58,6.19-23.94,3.43-6.78,4.7-14,6.95-21.08a107.51,107.51,0,0,1,14.47-29.65c3.78-5.36,5.66-11.94,9.57-17.35,4.58-6.35,7.23-14,13.29-19.4,2.16-1.93,3.09-5,4.07-7.89,2.52-7.34,5.91-13.95,13.3-17.89,3.7-2,5.46-6.21,7.73-9.63,3.53-5.34,10.28-6.55,13.94-11.58a1.57,1.57,0,0,1,2.27.08c.95.87.51,1.88-.15,2.63-1.74,2-3.35,4.18-5.44,5.72-5.23,3.85-8.33,9.42-12.16,14.39-2.22,2.87-4.12,5.76-8,7-3.13,1-4.84,4.23-5.91,7.06-4.26,11.19-12.74,19.69-18.53,29.87-4.08,7.18-8.21,14.34-12.12,21.61-3.15,5.85-6.79,11.56-9.82,17.58s-4.38,12.5-6.32,18.82c-2.53,8.18-5.53,16.22-7.3,24.67-.78,3.7-2.19,7.25-2,11.14.09,1.63.25,4-1.85,4-2.45.05-2-2.5-2.23-4.2A16.67,16.67,0,0,1,489.82,351.54Z" transform="translate(-41.4 -6.48)"/><path d="M609.36,170.93c3.37-1.36,6.39-4.14,8.76-6.89,2.82-3.27,6.9-3.7,10-6.14,1.72-1.35,2.18.61,2.2,1.95.07,3.65-4.39,8.61-8.22,9.07-1.38.16-2.94.31-3.5,1.52-2,4.25-6.43,5.68-9.48,8.67-.23.23-.41.72-.63.72-9.84.39-13,10.25-20.32,14.29-1,.57-1.7,1.67-2.94.64-.93-.77-.77-1.72-.33-2.7,1.49-3.28,2.34-7,7-7.48a4.45,4.45,0,0,0,3.53-2.56c2.05-5,8.16-6.21,10.34-11.12C606.29,169.71,607.65,169.72,609.36,170.93Z" transform="translate(-41.4 -6.48)"/><path d="M511.93,264.25c-1.17,4.43-2.2,8.77-3.47,13.05-1.41,4.75-3,9.45-4.54,14.18-.79,2.46-2.11,5.46-4.79,4.66-3.51-1.05-1.34-4-.61-6.27.87-2.66,1.94-5.29,2.6-8a9.36,9.36,0,0,1,3.34-5.69c3.55-2.89,2.88-7.86,4.46-11.79.37-.93.58-2,1.82-1.92C511.71,262.56,511.87,263.52,511.93,264.25Z" transform="translate(-41.4 -6.48)"/><path d="M626.79,131.5c-.6,4.78-2.69,9.15-2,14.08.17,1.19-.72,3.86-2.69,3.6-2.62-.34-1.78-3.05-1.5-4.51A31.71,31.71,0,0,1,626.79,131.5Z" transform="translate(-41.4 -6.48)"/><path d="M606.34,308.29c-1-1.24-.12-2.53-.07-3.78.07-1.71.6-3.31,2.51-3.71a1.52,1.52,0,0,1,1.74,1.4c0,1.68.69,3.7-1.85,4.45a10.36,10.36,0,0,0-2.47,1.52Z" transform="translate(-41.4 -6.48)"/><path d="M357.83,436.5c3,4.74,1.89,10,2.05,15.12C359.55,446.5,356.69,441.8,357.83,436.5Z" transform="translate(-41.4 -6.48)"/></g></g></svg>