<svg xmlns="http://www.w3.org/2000/svg" viewBox="0 0 885.13 814.49"><title>youngrectums</title><g id="Layer_2" data-name="Layer 2"><g id="Layer_1-2" data-name="Layer 1"><path d="M463.53,389H746.86c1.7-2.18-3.6-3-.42-4.47,1.61-.76,3.23.65,3.35,3s2.32,1.35,3.5,1.35c21.32.05,42.65,0,64,0h17c-1.85,12.89-3.76,25.15-5.34,37.45-1.19,9.19-2,18.43-2.91,27.66-.9,9.56-1.79,19.12-2.44,28.7-.41,6.06-5.36,8.09-9.15,11.2a.51.51,0,0,1-.46.11c-9.88-6.28-20.77-1-31.05-2.74a9.12,9.12,0,0,0-1.72,0c6.37,4.48,14,1.15,20.93,2.89,4.23,1.06,8.24,2.35,12.73,2.36,3.47,0,5.79,2.31,5.21,6.37-2.15,15.08-2.2,30.35-4.55,45.44-1.66,10.61-1.3,21.54-2.88,32.17-1.86,12.51-1.29,25.13-3,37.66-1.28,9.49-.75,19.25-1.87,28.83-2.31,19.62-2.25,39.39-3.62,59.07a11,11,0,0,1-3,7.23,4.11,4.11,0,0,0-.64,5.5c5.14,6.93,2.15,14.49,1.9,21.78a251.3,251.3,0,0,1-2.38,27.66c-1.1,7.58-.51,15.15-.19,22.77.44,10.61-.3,21.27-.58,31.9-.14,5.37-2.1,7.61-7.6,7.58-11.31-.07-22.65-.07-33.92-.94-8.83-.68-17.65.16-26.41-.51-13.38-1-26.83,2.82-40.14-.86-1.4-.39-3,0-4.49-.11-25.53-1.06-51.1-1.66-76.59-3.44-10.77-.76-21.52-1.11-32.28-1.65-22.55-1.14-45-2.83-67.65-3.37-24.84-.6-49.67-2.79-74.45-4.84-24.29-2-48.65-3.13-72.89-5.3-21.88-2-43.72-3.53-65.63-3-10.14.24-20.33,1.31-30.41.51-14.31-1.14-28.59,0-42.79.48-16.65.62-33.28.26-49.91.57-7.59.15-10.12-2.1-9.84-9.72.6-16-1.22-31.92-1.64-47.89-.22-8.55-2.94-16.94-2.6-25.61a170.84,170.84,0,0,0-.74-22.27c-.77-8.24,3.56-11.86,11.94-11a143.85,143.85,0,0,0,33.31-.52c7.29-.92,14.51.55,21.87-.26a237.16,237.16,0,0,1,37.41-.84c19.82,1,39.65,0,59.44.79,17.68.67,35.34,1.05,53,3.68,11.68,1.74,23.8,1.52,35.72,2.61,15.67,1.44,31.45,1.44,47.06,3.73a47.5,47.5,0,0,0,6.95.51c16.79,0,33.59-.05,50.38,0,13.1.08,26.21-.51,39.29,1.52,4,.63,8.48-1.1,12.74-1.8A28.89,28.89,0,0,1,583.18,702c.47.17,1,.61,1.37.54,2.54-.4,6.54,0,6.74-2.68.19-2.47-3.63-2-5.78-1.83-14.32,1.39-28.41-2.47-42.52-2.14-14.8.35-29.5-2.69-44.29-.63-6.39.89-8.6-1.2-8.62-7.64,0-13.5-.74-27,.2-40.49,1-14.32-.27-28.64.88-42.88,1.26-15.48-.18-31,1-46.37.77-10.13,1.15-20.34.94-30.36-.23-11.17.85-22.27.43-33.4a40.31,40.31,0,0,1,1.72-12.77c1.22-4.17-.23-7.47-4.55-8.2a181.56,181.56,0,0,0-22.65-2.6c-18.78-.79-37.62-.45-56.34-1.88-11.93-.92-23.91.53-35.78-1.56-5.17-.91-10.41.44-15.73.12-14.09-.85-28.25-.39-42.35-1.11-33.44-1.7-66.91-.69-100.35-1.6-17.47-.48-34.93-.2-52.39-.56a45,45,0,0,1-7.87-1c-3.21-.64-5.19-2.7-5.16-5.83.2-21.28-3.79-42.31-3.65-63.59,0-3.76,1-4.73,4.74-4.68q25,.3,50,0c3.06,0,4.79,1.1,6.55,3.33q11.87,14.94,24,29.66a9.14,9.14,0,0,1,2.31,6.85,76.3,76.3,0,0,0,1,16.88c.51,3.45,1.6,6.81,5.43,8.29,4.26,1.66,8.44-.61,8.48-5.18.05-5.78.59-11.59-.63-17.37-.82-3.85.24-7.38,2.54-10.78,6.13-9.06,13.94-16.83,20-25.86,3.13-4.69,6.25-6,11.56-5.87,15.65.37,31.32.14,47,.14h5.37c-7.79,8.85-15,17.5-14.69,29.38.32,11.3,4.19,21.56,12.52,29.57,15.9,15.29,40.54,15.1,55.56,1.3,16.44-15.1,14.72-39.48-3.8-60h67.4c-2.23,4.53-2,9.19-1.77,13.78.55,12.09-1.27,24.19,0,36.26,1.36,12.64,12.76,22.66,25.54,22.81,6,.07,11.84,1.6,17.87.77,8.5-1.16,14.85-6.25,21.38-11.47,1.59,1.62.94,3.52.94,5.18,0,23.33.11,46.67-.06,70,0,4.09.61,5.68,5.33,5.65q59.49-.33,119,0c3.76,0,5.06-.78,5-4.86-.19-28.66.21-57.34-.25-86-.18-11.1.49-22.17.3-33.26-.08-4.6-.85-6.39-5.93-6.11-14.29.77-28.6.07-42.93.67-10.46.43-21.06.57-31.64.06-6-.29-12.7,1.11-19.12,1.27a8.79,8.79,0,0,1-3,0c-6.28-2.12-12.49,0-18.72.26-1.76.08-2.48.19-2.19-1.82.18-1.3,0-2.66.06-4,.32-7.24-2.64-9.66-9.64-7.64-2.07.6-3.9,1.73-4,4.41-.69,13.75-1.5,27.5-2.15,41.26-.27,5.85-4.47,12.39-9.94,14.36a31.67,31.67,0,0,1-22.78.07c-6.3-2.43-10.19-7.75-9.95-14.65.41-11.25-1.84-22.47-.1-33.7C465.72,398.05,467.2,393.68,463.53,389Zm249.19,54c.16-12.66,2.86-22.52,14.1-28.69,8-4.41,22.77-5.26,29,1.06,2.44,2.47,5.26,4.57,7.85,6.89,2.77,2.5,6,2.7,8.53.38s1.22-5.05-.38-7.71c-5.78-9.66-15.06-13.16-25.46-14.11-30.78-2.81-49.83,19.15-45.89,48.35,2.66,19.74,30.7,35.35,49.55,25.78,3.08-1.57,6.57-1.87,9.82.64,4.23,3.26,8.47,1.7,9.44-3.64,1.27-7,2.28-14.08,2.9-21.17.3-3.43-.4-7-3.34-9.55-4.12-3.59-17.91-5.48-22.88-3.08a5.74,5.74,0,0,0-3.46,4c-.45,2.31,1.61,3,3.08,4,2.28,1.59,4.8,1.91,7.55,2,3.18.06,6.64.74,7.67,4.28,1,3.34-1.73,5.53-3.92,7.53a19.79,19.79,0,0,1-5,3.3c-9,4.12-18.08,5.43-27.14.3C716.38,458.75,712,451.68,712.72,443ZM631.49,752.59c3.13,1.33,5.83,3.16,6.58,6.79,1.77,8.51,5.91,16.13,9,24.14,1.18,3.06,2.48,5.78,6.61,5.48s6.71-2.52,8.21-6.14c3.39-8.2,9.23-14.79,14.17-22,2.35-3.42,3.54-1.92,4.31,1,1.13,4.24.81,8.53.19,12.81-.46,3.21-1.76,6.37-.56,9.7.73,2,1.33,4.63,3.78,4.49a5.75,5.75,0,0,0,5.24-4.67c.19-.8.11-1.67.28-2.47,1.29-6.08-.26-12.44,1.18-18.34,2-8.44,1.23-16.87,1.44-25.31a6.7,6.7,0,0,0-4.42-6.55,6.51,6.51,0,0,0-7.64,2c-1.75,2-3.68,4-4.46,6.55-3.27,10.67-10.59,19-16,28.5-1.1,1.93-2.45,4.68-5,4.12a6.9,6.9,0,0,1-5.25-6c-1.35-8.32-6.24-15.25-9.09-23-1.3-3.54-2.32-7.22-4.59-10.45-2.56-3.63-5.89-4.15-9.61-3.28-3.94.92-4,4.13-3.93,7.5.09,2.8,1.74,5.54.57,8.35-3.61,8.69-2.53,17.93-3.2,27a41.16,41.16,0,0,0,.25,8.45c.25,1.9.67,4.36,3,4.66,2.13.26,3.56-1.62,4.81-3.17a6,6,0,0,0,1.17-3.74c.19-6.14.55-12.27.64-18.41C629.22,757.69,629.54,755,631.49,752.59ZM197.78,708.68c-2.85.32-5.65.1-8.45,1-4.64,1.45-8.91,6.08-8.07,10.64,1.71,9.24-.16,18.56,1.3,27.83.68,4.34,2.49,8.76,1.46,13.28-.91,4,.79,6.24,4.37,7,3.25.69,5.82-2.23,5.76-6.5,0-3-.78-5.91-.93-8.89s.1-6,3.41-7.56c7.27-3.48,18.12.91,21.27,8.47,1.66,4,3.58,7.84,5.61,11.63a5.78,5.78,0,0,0,7.23,2.69c3-1,2.58-4,1.46-6.4-2.25-4.94-3.86-10.19-7.48-14.48a8.5,8.5,0,0,1,.24-11.43c4.29-4.3,4.19-9.24,2.37-14.25-2.08-5.72-5.88-10.16-12.24-11.17C209.37,709.61,203.55,709.27,197.78,708.68Zm62.27,36.92c0,4.08-.09,7.08,0,10.08.26,7.52,4.06,12.33,10.95,13.05,7.42.77,14.92-.11,22.38.8,2.73.34,5.64-.35,8.4-.89,1.79-.34,3.72-1.19,4.09-3.22s-1.27-3.25-2.91-4.2a8.31,8.31,0,0,0-4.65-1.19c-6.61.14-13.24.07-19.84-.34-5.37-.33-7.9-4.17-7.37-10.73.37-4.59,3.3-6.75,7.71-6.79a147.18,147.18,0,0,1,15.43.21c2.84.28,6.18-.33,6.69-4.16s-2.91-4.27-5.47-5.11A11.51,11.51,0,0,0,292,733c-4.34,0-8.67.09-13,0-4.73-.14-7-2.53-7-7,0-4.67,2.12-7,7-7,5.91,0,11.74-1.13,17.76-.21,5.45.83,7.76-1.42,7.68-5.74-.08-5-3.68-5-7.32-5-6.44,0-12.77,1.68-19.33.54-10.28-1.78-16.15,1.52-17.89,11.33a49.17,49.17,0,0,0-.65,5.42C258.75,732.44,260.84,739.5,260.05,745.6Zm92.74-3c0-10,3.25-17.38,9.69-19.78,8.25-3.07,16.22-2.61,23.1,4,1.08,1,1.58,2.45,2.87,3.27,2.88,1.81,5.95,2.59,8.73.35,3.24-2.61.23-4.72-1.21-6.71-4.54-6.28-10.72-10-18.19-12.09-16.92-4.85-36.88,7.7-37.67,27.81-.56,14.29,5.88,25,18.51,31.45,16.43,8.34,25.33,5.3,37-6.34,1.25-1.24,3.46-2.83,2.11-5s-3-3.75-6.1-3.51c-2.69.21-4.16,1.71-5.76,3.42-3.46,3.7-7.78,5.26-12.84,5.55C362.12,765.61,351,755.54,352.79,742.63Zm215,4.8h0c0,4.33.07,8.66,0,13-.11,6-1.92,11.62-7.13,14.56-7.09,4-14.88,4.53-22.33.28-6.84-3.9-6.94-10.67-6.18-17.1,1.08-9.15.31-18.28.68-27.41.14-3.36-.71-6.13-4.68-6.2-4.26-.07-6.36,2.31-6.14,6.7.09,2,1,4,.68,5.88-1.52,9-.41,17.93-.67,26.88-.2,6.65,3.24,11.47,8.07,15.76,8.33,7.43,18.38,7.84,28.15,5.93,10.84-2.12,18.37-10.74,19.38-20.22,1.11-10.38.72-20.91.93-31.38.08-3.85-.81-7-5.6-7.1-5-.11-4.8,3.85-5,7C567.54,738.42,567.79,742.94,567.79,747.43Zm191.9,47.72c3.5.81,8.37-2,13.09-4.76,7.55-4.4,8.92-18.13,2.64-24.31-4.07-4-9.44-5.44-14.61-7.09-4.09-1.3-8.4-1.89-12.14-4.21-4.14-2.56-5.09-8.27-1.57-10.92,5.51-4.14,14.57-4.92,18.48.81a29,29,0,0,0,3.88,3.88c1.71,1.69,3.62,1.52,5.47.4s1.24-3,.85-4.49a10.13,10.13,0,0,0-3.44-5.37c-8.44-6.88-17.67-8.24-27.78-4.26-5.09,2-11.25,9.3-10.79,13.94.61,6.05,2.54,10.71,10.23,14a60.37,60.37,0,0,0,14.8,4.25,21.46,21.46,0,0,1,7.28,2.9c4,2.29,4.93,5.9,3.83,9.84-1,3.76-3.87,6-8,6.44-8.38,1-15.61-.71-21.44-7.44-3.33-3.84-7.16-3.28-8.71.62-1.11,2.83.88,4.77,2.51,6.44C740.57,792.28,748.6,794.43,759.69,795.15ZM444.44,719c-1.67,0-3.34-.13-5,0a5.3,5.3,0,0,0-4.92,4.23c-.41,2.27,2.19,2.71,3.76,3.33a23.24,23.24,0,0,0,7.76,1.53c3.49.12,6,1.65,6.11,5.67.26,12.91,2.49,25.78.65,38.74-.56,3.92,1.57,6.33,5.38,5.9,3.63-.42,4.36-3.43,4-6.78-1.29-10.77-1.46-21.48.52-32.26,1.52-8.34,3.88-10.73,12.28-9.33a16.71,16.71,0,0,0,6.82-.41c1.22-.29,2.86-.64,2.8-2.35s0-3.52-1.72-4.45a9.16,9.16,0,0,0-4.18-1.45C467.18,721.55,455.84,719.91,444.44,719Z" transform="translate(-5.9 -15.91)"/><path d="M536,55.44c0,18.53-.15,36.35.1,54.17.07,4.59-1.25,6.43-5.87,5.91a67,67,0,0,0-7.5,0c-8.83,0-9,0-9.16-8.88-.19-8.61-.05-17.24-.06-25.86q0-28.62,0-57.24c0-6.2,0-5.61,6.31-5.73,4.59-.09,9.22-.73,13.86-.69,2.65,0,5.29.51,7.89.7,3.45.24,4.6,2,5.3,4.74,2.4,9.66,4.84,19.3,7.2,29,.4,1.62.52,3.92,2.27,4,2.22,0,1.62-2.58,1.89-4,1.89-9.75,3.72-19.53,5.24-29.34.56-3.64,1.91-5.21,5.75-5.09,7.66.23,15.33.06,23,.07,6.7,0,8.33,1.69,7.72,8.57-1.38,15.59-1,31.21-.58,46.79.33,13.23-.36,26.43-.12,39.64,0,3.09-1.35,4.18-4.19,4.15-4.34,0-8.67-.15-13,0-4,.16-5.07-1.72-5.16-5.45-.42-17.12-1.25-34.22-.91-51.35,0-1-.1-1.9-.2-3.41-2.19,1.71-1.92,3.87-2.24,5.6C570.61,77.75,567.7,93.86,565,110c-.66,4-2,5.67-6.35,5.58-9.37-.21-9.55.08-11.46-8.77-3.28-15.21-5-30.71-8.57-45.86C538.23,59.2,538.34,57.34,536,55.44Z" transform="translate(-5.9 -15.91)"/><path d="M129.21,79.1q0,15.86,0,31.7c0,7.94-.86,8.62-8.63,7.78a38.5,38.5,0,0,0-8.65-.08c-3.88.45-5-1.28-5-4.78.08-7.34.6-14.73-.14-22-.83-8.3-.08-16.52.37-24.7.41-7.29-.09-14.54-.15-21.77-.06-7.66,1.45-15.23.77-22.86-.29-3.2.93-4.75,4.23-4.41.5.05,1,0,1.5,0,13.4-.11,13.62-.14,18.64,12.45,4.44,11.14,11,21.23,15.47,32.33a3.07,3.07,0,0,0,3.45,2.29c-.89-6-.5-12.15-1.27-18.1-1.13-8.82-.07-17.61-.52-26.39-.13-2.51,1.32-3.49,3.76-3.53a104.94,104.94,0,0,0,12.93-.6c5-.71,6.93,2,6.46,6-.66,5.68.51,11.21.45,16.83-.23,23.81-.08,47.62-.1,71.44,0,8.06-1.62,9.38-9.62,8-.81-.13-1.66-.75-2.39-.6-10.28,2-12.49-6.08-16-12.61Q137.61,92.25,130.38,79Z" transform="translate(-5.9 -15.91)"/><path d="M687.53,54.91c1.7-2,.92-4.27.94-6.32.1-9.17.14-18.33,0-27.49-.05-3.61,1.19-5.16,4.95-4.94a69.2,69.2,0,0,0,12-.15c4.25-.51,5.57.95,5.68,5.12.49,19.31-1.14,38.56-1.08,57.85,0,10.64.37,21.28-.65,31.92-.29,3-1,4.09-4.07,3.94a100.41,100.41,0,0,0-11,.2,4.58,4.58,0,0,1-4.84-2.82c-2.24-5.49-4.86-10.81-7-16.39a170,170,0,0,0-8.83-18.75c-1.51-2.89-2-6.39-4.83-8.8-1.75,1.45-1,3.4-1,5-.14,12.74.11,25.48-.8,38.22-.22,3.1-1.21,4.07-4.13,4a112.91,112.91,0,0,0-11.49,0c-4.73.29-6.31-1.59-6.45-6.39-.62-21.9,1.74-43.75,1.1-65.65-.23-7.78-.33-15.58.77-23.38.43-3.11,1.53-4.35,4.35-3.68,3.78.9,7.6.55,11.56.93.64,2.09-4.1,4.47.25,6.55a24.11,24.11,0,0,1,1.42-4.18c.69-1.26,1.48-2.7,3.34-2.58s1.93,1.63,2.46,2.78c4.5,9.81,8.94,19.65,13.48,29.44C684.62,51.37,685.17,53.74,687.53,54.91Z" transform="translate(-5.9 -15.91)"/><path d="M414.21,97.88c0,4.83-.06,9.66,0,14.49,0,2.35-.57,3.83-3.29,3.81-6.5-.05-13-.07-19.49.06-2.66.05-2.74-1.49-3-3.49-.88-7.76-.14-15.5-.05-23.27.26-22.14.17-44.3,0-66.45,0-4.35,1-6.16,5.86-6.08,12.06.2,24.08-1.14,36.21,0,8.56.78,14.16,5.52,19.86,10.85,1.65,1.54,1.6,3.6,2.16,5.45,2.31,7.63,2,15.52,1.49,23.29-.56,8.37-4.48,12.53-12.5,14.68-.77.21-1.75,0-2.07,1-.45,1.38.76,1.63,1.56,2.11,6.47,3.85,8.69,10.17,9.94,17,1.29,7.13.17,14.64,3.51,21.44,1.11,2.25-.67,2.61-2.22,2.63-6.49.07-13,0-19.48.06-3,0-3.4-2-3.82-4.22-1.52-7.9-1.07-15.89-1.2-23.86-.06-3.86-1-7.45-5.46-8.37-6.83-1.39-8.09-.25-8.09,6.87Zm0-50.47v12c0,.17,0,.34,0,.5,0,1.49-.18,3.17,1.66,3.76,5.7,1.8,12.21-1.38,12.78-6A70.14,70.14,0,0,0,429,42.22C428.38,35.68,424.16,32,418.4,32c-2.89,0-4.35.84-4.22,4C414.33,39.77,414.21,43.59,414.21,47.41ZM411,27.14l15-1c-1.78-1.74-3.36-2.79-4.18-5.68-1.88,3.24-3.53,5.91-6.32,1.94-.47-.67-2.33,0-2.06,1.14C414,25.74,411.42,24.75,411,27.14Z" transform="translate(-5.9 -15.91)"/><path d="M115.44,642.05c4.57-5.55,2.67-8.78-1.81-11.68-2.91-1.88-2.25-4.73,1.31-6.25,4.54-1.94,9.15-3.71,14.69-5.93-4.83-2.15-8.79-.69-12.58-1.15-1.53-.18-3.66.62-4-1.79s2-2.32,3.4-2.85c6.53-2.59,7.22-3.59,6.38-10.2-.16-1.3,0-3-1.76-3-1.53-.06-2.16,1.31-2.65,2.6a21.66,21.66,0,0,1-1.7,4.11c-.55.84-1.37,2.22-2.77,1.53s-.8-2-.28-3c1-2.06,1.32-4.37,2.65-6.39,1.07-1.62,2.29-3.72.33-5.88-1-1.08-.45-2.45.07-3.75,2.47-6.16,4.81-12.37,7.3-18.52.53-1.31,1.09-3.86,2.42-3.35,5.33,2.06,5.06-2.59,6.38-5,2.37-4.34,4.42-8.86,6.49-13.36.82-1.78,1.93-3.79,3.88-3s.48,3-.12,4.3c-5.06,11-10.26,21.85-15.37,32.78-.62,1.33-1,2.77-1.65,4.5,4.06.2,7.79.52,9.32,5,.56,1.63,2.57,1.08,4,1.23,7,.71,13.88-.59,20.81-1,17.85-1.09,35.69-2.44,53.53-3.73,6.89-.49,13.29,5.28,14,13.34,1,11.85-4.35,21.66-11.46,30.4-3.07,3.77-8.42,3.73-13,3.53-11.17-.47-22,2.55-33.12,2.92-6,.2-12.21.56-18.29,1.07C140.1,640.49,128.31,639.93,115.44,642.05Zm87.26-26.63c.26,2.63.42,6,1,9.21a6.09,6.09,0,0,0,4.35,5c2.3.68,4.33-.44,5.69-2.25,5.51-7.34,8.75-15.6,8.07-24.82-.27-3.58-1.56-8-5.38-9.32-4.64-1.53-7.17,2.43-9.25,5.89A31.91,31.91,0,0,0,202.7,615.42Z" transform="translate(-5.9 -15.91)"/><path d="M347.8,118.93c-7.5,0-15-.25-22.49.09-4.35.2-5.39-1.5-5.32-5.49.2-10.73.68-21.51-.07-32.19-1.29-18.31-.34-36.61-.68-54.91-.16-8.69,2.58-11.09,11.39-9.9,9.43,1.28,18.82-.62,28.2,0,5.15.34,10.21-.44,15.31-.28,2.64.08,3.8,1.15,3.73,4-.08,3.64.52,7.28.6,10.93.12,5.19-1.07,6.11-6.13,5.84-6.92-.38-13.87-.42-20.79-.86-4.77-.3-6.49,2-5.48,6.24a47.58,47.58,0,0,1,.86,11.4c0,2.72,1.1,3.39,3.74,2.92,6.27-1.12,12.62-.48,18.93-.39,6,.08,4.85,5.27,4.3,8.1-.78,4,4.5,11-4.45,11.65-6,.42-12,.09-18,.16-3,0-4.88.46-4,4.69s.41,9,.24,13.45c-.11,2.83.82,3.89,3.68,3.64a198.13,198.13,0,0,1,23.37-1c6.79.19,7.1.39,7.16,6.88,0,.5,0,1,0,1.5,0,14.43,2.78,12.1-13.17,13.4C361.83,119.4,354.79,118.93,347.8,118.93Z" transform="translate(-5.9 -15.91)"/><path d="M782.1,69.71c0,9.3-.47,18.43-4.54,27.14s-10.48,13.05-19.72,13.45c-11.29.48-22.6.52-33.9,1-4.05.16-5.36-1.82-5.36-5.37q0-42.46,0-84.91c0-2.69,1.07-3.9,3.85-3.95,10.47-.19,20.93-.54,31.39-.78,10.22-.24,17.56,4.3,21.77,13.6a64.75,64.75,0,0,1,5.55,22C781.56,57.84,782,63.77,782.1,69.71Zm-22.91-.29a137.16,137.16,0,0,0-2.14-28c-1.23-6.61-4.94-9.26-11.47-9.41-3.39-.08-5,1-4.6,4.56a121.23,121.23,0,0,1,.46,21.09c-.79,11.75.46,23.41-.12,35.09-.09,1.76,1.15,2.32,2.45,2.61a12.19,12.19,0,0,0,14.66-10.74C758.89,79.29,759.74,74,759.19,69.42Z" transform="translate(-5.9 -15.91)"/><path d="M223.54,38.93a106,106,0,0,1-11-.08c-4.15-.43-4.89,1.34-4.85,5.07.13,12.3,0,12.3,12.05,12.3,4.17,0,8.33.05,12.5,0,2.72,0,3.94,1.11,3.78,3.91-.3,5.13,2,11.62-.87,15s-9.39,1-14.31,1c-11.64.17-11.64,0-11.64,11.6,0,9,0,8.45,9.65,8.78,6.1.21,12.22.34,18.33.53,1.73.05,2.46.61,3,2.44,1.51,5.11.62,10.25.69,15.36,0,2.43-2.18,2.11-3.77,2.11-10,0-20,.57-30,.34-6.37-.15-12.79.64-19.24.39-3.29-.13-4.36-1.11-4.4-4.31-.11-9.27-.54-18.53-.7-27.79-.33-20.46-.45-40.92-.93-61.37-.12-4.9,1.65-6.31,6.36-6.35,9-.06,17.88.29,26.87-.51,5.18-.46,10.62.12,16-.23,6.49-.42,7.9,1.15,8.11,7.57.45,14.21.45,14.21-13.64,14.21Z" transform="translate(-5.9 -15.91)"/><path d="M97.17,250.45c-4.67,0-9.34-.11-14,.05-2.45.08-3.11-1.12-3.34-3.23s.1-3.21,2.43-3.33c3-.16,3.84-2,3.77-4.78-.11-4,.07-8-.06-12-.1-3.13.44-5.83,2.78-8.2,2.1-2.14,2.26-4.2-.82-6.16-2.05-1.3-2-4-1.92-6.34.18-9.47-.59-19,.79-28.4.59-4-.07-7.36-4.84-8.26-2.06-.39-2-2-1.84-3.49.16-1.94,1.43-2.37,3.14-2.36,9.62.08,19.24,0,28.85.28,1.39,0,3.83-.22,3.93,2.69.1,2.51-.74,3.55-3.28,3.8-2.12.21-3.39,1.46-3.63,4-.79,8.29-.58,16.59-.6,24.9,0,2.61,1.31,3.45,3.75,3.42,6-.07,12-.08,18,0,2.3.05,3.29-.62,3.25-3.09a175.58,175.58,0,0,1,.69-22.93c.37-3.24-.61-5.55-4.15-6.2-2-.37-3.33-1.35-3.1-3.71.28-2.81,2.4-2.32,4.13-2.33q12.75-.09,25.5-.07c2.19,0,4.53,0,5.25,2.72.79,3-1.21,3.51-3.53,4.13-2,.53-2.36,2.43-2.34,4.43.16,21-1.59,41.89-1,62.85.08,2.65.15,5,3.29,5.89s1.6,3.26,1.55,5c0,2-1.83,1.36-3.09,1.33-8.61-.18-17.22-.34-25.83-.56-2.22-.06-4.85.57-5-3.17-.09-3.26,1.83-3.42,4.2-3.32s3.26-1.16,3.25-3.41c0-9.33,0-18.66.09-28,0-2.24-.87-2.87-3-2.84q-9.24.09-18.49,0c-2.57,0-3.56,1.19-3.55,3.65,0,8.83,0,17.66,0,26.49,0,2.45,1.09,4.22,3.9,4.11,2.37-.09,3.26,1,3.16,3.32-.12,2.67-1.6,3.27-4,3.22C106.84,250.39,102,250.46,97.17,250.45Z" transform="translate(-5.9 -15.91)"/><path d="M282.85,74.53c2.15-6.29,2.16-12.14,3.08-17.79q2.83-17.35,4.83-34.85c.42-3.71,1.94-4.9,5.32-4.84,4.49.08,9,.14,13.49,0,3.14-.12,4.13,1,3.56,4.13-2.24,12.39-4.3,24.81-6.48,37.21-2.95,16.79-6.06,33.55-8.87,50.36-1.29,7.74-1.13,7.66-9,8.38a124.44,124.44,0,0,1-13.79.47c-4.69-.07-5.72-2.4-6.63-5.68-1.89-6.88-3.64-13.8-5.45-20.7q-6.3-24-12.61-48C248.48,36.13,246.71,29,244.71,22c-.93-3.25.16-4.15,3.3-4.06,5.66.15,11.38.51,17-.1,5.12-.55,6.57,1.78,7.32,6.11,2.47,14.21,5.15,28.38,7.74,42.56A22.21,22.21,0,0,0,282.85,74.53Z" transform="translate(-5.9 -15.91)"/><path d="M314.39,166.25c9.67-.7,20.22.09,30.51,1.18,12.54,1.33,23.14,6.26,22.1,23.13-.48,7.73-4.37,12.68-13.73,16.24-.95.36-2.71,0-2.39,1.8.2,1.16,1.48,1.05,2.46,1.21,12.33,2,15.88,11.27,15.78,19.65-.13,10.93-7.73,20.13-17.72,21.63-10.21,1.52-20.47,1.18-30.76.35-6.94-.55-14-.16-20.95-.27-1.89,0-4.18.5-4.56-2.51-.36-2.86,1-3.86,3.66-4,2.86-.19,3.9-2.16,4-4.79,0-.33,0-.67,0-1l.75-59.87c0-3.57.41-7.22-5.06-7.09-2.32.06-1.3-2.23-1.44-3.53-.21-1.89,1.11-2.11,2.58-2.1Zm9.82,61.14c0,4.16.07,8.31,0,12.47-.05,2,.43,3.59,2.32,4.54,7.87,4,18.11.25,19.56-8.31,2.55-15,1.7-25.23-16.62-25.64-3.66-.09-5.64.78-5.3,5C324.47,219.4,324.21,223.4,324.21,227.39Zm20.86-37.78c0-1.44,0-2.27,0-3.1-.16-11.39-8.16-14.07-16.72-13.45a3.26,3.26,0,0,0-3.2,3.24c-.39,8.41-.66,16.83-.94,25.24a2.73,2.73,0,0,0,2,3c4.06,1.35,14.1-1.3,16.48-4.57S345.28,192.87,345.07,189.61Z" transform="translate(-5.9 -15.91)"/><path d="M769.41,203.91c8.14-10.33,15.44-19.5,22.63-28.75,1.4-1.8,3-3.8,1.66-6.35-1.17-2.26-3.4-1.84-5.32-1.72-2.82.18-4.09-1.13-4-3.76.11-3.16,2.37-2.06,4.33-2.29,7.14-.82,14.29-.41,21.44-.48,1.64,0,3.79-.74,4.07,2.26.24,2.57-.92,3.64-3.17,4.13-6.21,1.35-8.32,7.23-12.07,11.23-3.5,3.72-8.25,7.77-8.92,12.22s4.11,8.93,6.71,13.31c6.18,10.42,12.14,21,18.18,31.46.33.58.46,1.44.94,1.73,2.94,1.76,4.61,4.53,2.89,7.4-1.47,2.44-4.9,1.07-7.44,1.12-6.32.13-12.63,0-18.93.72-1.51.18-3.68.69-4.3-1.44-.53-1.84-1.14-4.27.87-5.51,3-1.84,1.3-3.73.38-5.48-3.32-6.31-6.78-12.54-10.23-18.78-1.17-2.11-1.92-5.79-4.54-5.19s-5,3.81-5.18,6.75a153.93,153.93,0,0,0,.06,18c.14,3.16,2.07,5.36,5.43,5.27,3.11-.08,3.06,2.16,3.24,4,.28,2.89-2.09,2.41-3.83,2.48-10.29.45-20.61-.78-30.9.65a2.71,2.71,0,0,1-3.36-2.75c-.14-2.11.4-4,2.57-4.07,5.06-.21,5.31-3.38,5.19-7.21q-1-30.15-1.77-60.28c-.08-3.1-1.21-4.72-4.45-4.53-2.14.12-3-1-2.93-3.08,0-2.22,1.38-2.74,3.27-2.84,9.6-.49,19.2-1.05,28.81-1.51,2-.09,4-.3,4.36,2.72.3,2.72-.73,3.89-3.29,4.3s-4.29,2.22-3.9,4.87c1.23,8.47.23,17,.62,25.43C768.61,199.48,769,201.05,769.41,203.91Z" transform="translate(-5.9 -15.91)"/><path d="M597.48,471.06c-1.29,9.28.1,17,.27,24.71.15,6.54-.87,7.17-7.63,6.48a89.13,89.13,0,0,0-10.47-.18c-2.49,0-3.66-.9-3.65-3.49,0-12.49,0-25,.06-37.47a3.16,3.16,0,0,1,.49-1.12c1.25-.25,1.7.59,2.13,1.22,1.05,1.5,1.69,3.09,4.25,2.26,2.38-.78,4-2.17,4.08-4.41a101.61,101.61,0,0,0-.22-12.46c-.22-3-1.92-5.07-5.11-5s-2.83,2.72-3.11,4.81c-.44,3.33-.83,6.67-1.32,10.65-2.28-3.82-.4-7-.33-10.09.12-5.49,0-11,.06-16.48,0-1.48-.19-3,1.17-4.15C581,424,594,425.7,596,429c6,9.74,11.77,19.57,17.61,29.38.83,1.4,1.27,3.11,3.7,3.54-.43-8.74-1.07-17.34-1.23-25.95-.22-11.13-.06-11.13,11.09-11.13,10.25,0,10.32,0,10.6,10,.2,7-.07,14,.36,20.9.24,3.76-4.11,5.32-3.74,8.05.33,2.43,3.81,3.75,3.57,7.48-.51,8.27-.15,16.59-.16,24.89,0,5.71-1.76,7.23-7.51,6.47-1-.13-2-.68-2.91-.48-8.12,1.82-11.94-3.2-15.57-9.18C607.52,485.86,602.78,479.1,597.48,471.06Z" transform="translate(-5.9 -15.91)"/><path d="M184.39,166.22q21.18,0,42.35,0c2.43,0,3.87.32,4.09,3.47.56,7.92-2,15.77-.18,23.71.35,1.47-.14,3.69-2.91,3.69-2.36,0-4.3-.09-4.55-3.09-.41-5-1.29-9.66-4.05-14.11-3.5-5.62-8.66-7.47-14.62-7.79-12.58-.69-12.58-.58-12.58,11.92,0,5.5.16,11-.06,16.49-.14,3.57,1.65,3.87,4.33,3.23,5.72-1.35,8-4.67,8.82-13.35.23-2.43.52-4.19,3.57-4.18,2.47,0,3.79.68,3.59,3.4-.85,11.59.39,23.24-1.07,34.84-.37,2.94-1.83,2.62-3.63,2.58s-3.28-.2-2.81-2.83c.7-3.94-1-7.51-2.6-10.93-1.73-3.64-5.34-3.75-8.65-3.43-3.61.35-2.34,3.5-2.38,5.56-.13,7.83,0,15.66-.09,23.49-.05,3.13,1,5.05,4.17,5.75A22,22,0,0,0,222,225.27c.33-3,.47-6,5-5.55,2.36.22,3.22.84,3.12,3.21q-.56,12.84-.86,25.7c-.06,2.41-1.47,2.62-3.29,2.58-11.13-.23-22.25.22-33.39-.59-8.42-.6-16.92-.08-25.38-.17-1.61,0-4,.93-4.29-2-.22-2.2-.33-4.21,2.9-4.68,3.5-.52,3.36-3.62,3.36-6.31,0-14.66,0-29.32.12-44,.05-5.63.51-11.27.82-16.9.15-2.61-.5-4.48-3.46-5.1-1.73-.36-3.84-1-3.41-3.46.45-2.65,2.65-2.55,4.7-2.55h16.49Z" transform="translate(-5.9 -15.91)"/><path d="M613.2,250.47c-16.65,1.78-30.49-12.76-35.23-26.87-5.87-17.47-1.56-32.87,9.54-46.37,8.19-10,19.07-13.5,32.53-11.6,19.05,2.7,28.23,14.85,32,31.53,4.23,18.94-4.39,41.19-24.13,51.14C624.52,250,621.23,250.45,613.2,250.47Zm16.08-49.83a71.34,71.34,0,0,0-1.53-17.49c-2-9.69-9.92-14.63-17.67-11.19-3.82,1.69-5.19,5.39-6.8,8.75-3.54,7.32-3.93,15.26-4.46,23.22-.7,10.68-.48,21.2,3.41,31.31,1.74,4.53,4.54,8.39,9.9,8.66s8.94-2.75,11.37-7.43C629,225.9,629.15,214.46,629.28,200.64Z" transform="translate(-5.9 -15.91)"/><path d="M373.31,212.53c.07-19.16,5-33,18.59-42.75,9.74-7,20.57-7.17,30.81-2.38,16,7.5,23.36,21.11,24.29,38.64a49.82,49.82,0,0,1-11.51,35.51c-11.72,14.37-34.69,15.22-47.69,2.07C378.35,234.06,372.55,223.28,373.31,212.53Zm50.9.34c0-2.3,0-3.47,0-4.63-.09-11-.59-21.92-6.11-31.87-2.48-4.47-6.33-6.09-11.25-4.68-5.54,1.58-7.57,6.13-8.9,11-3.61,13.34-3.71,26.9-1.68,40.45.89,6,1.43,12.25,4.85,17.61,2.58,4.05,6.16,6.48,11.11,6.29,4.72-.19,6.87-3.46,8.36-7.37C424,230.66,424.47,221.24,424.21,212.87Z" transform="translate(-5.9 -15.91)"/><path d="M109.44,642.07c4.44-1.24,5.54,2.07,7.28,4.54a4.09,4.09,0,0,1,.16,5.07c-1.29,2-2.42.83-3.7,0-1.56-1-2.42.3-3.36,1.19l-34.59,32.8c-.94.89-1.61,2.11-3.15,2.24-12.6,1-24.17-.73-32.39-11.75-4.82-6.46-3.39-15.7,2.33-21.42,11.56-11.57,24.64-21.56,35.31-34.07,2.41-2.83,5.68-4.92,8-8,2.06-2.71,9.76-.93,11.18,2.3.18.41.29,1.16.07,1.4a2.43,2.43,0,0,1-3.21.17c-3.43-2-5.72-1-7.83,2.17-1.61,2.39-1,2.93,1.53,3.51,4.74,1.08,5.1,2.59,2.15,6.29-.87,1.09-3.55,2-1.51,3.87,1.62,1.51,3.65,3,6.27,1.76a7.21,7.21,0,0,0,3.1-3.13c.94-1.64,3.12-2.91,4-1.69,2.88,3.83,9.42,2.22,10.85,7.59C112.45,638.62,110.19,639.54,109.44,642.07Z" transform="translate(-5.9 -15.91)"/><path d="M854.54,156.22a22.24,22.24,0,0,1,12.25,2.49c2.26,1.12,5,2.54,7.06-1.4,1.1-2.11,4.33-1.23,6.51-1,3,.3.8,2.61.95,3.95q1.25,11.1,2.17,22.23c.2,2.37.28,4.77-3.4,4.62-2.87-.11-4.76-.06-5.15-4.07-1.66-17-20.3-26.09-33.89-16.86-4.62,3.13-4.86,8-5.56,12.66-.19,1.26,1.13,1.88,2.26,2.32,9,3.47,17.81,7.26,27.21,9.47,5.24,1.24,9.95,3.73,14.53,6.43,9,5.31,12.17,13.63,11.46,23.64-.75,10.64-6.35,18.06-16.12,21.94-12.16,4.83-24.31,4.89-35.82-2.15-3.07-1.88-5.16-2.2-6.27,1.84-.91,3.28-3.55,2.42-5.76,2.24-3-.24-1.79-2.47-1.91-4.17-.59-8.28-1.74-16.52-1.47-24.84.06-1.89-1.11-4.67,2.44-5,2.69-.21,4.52.18,5.39,3.54,1.39,5.3,4.15,10.13,7.14,14.75,6,9.34,20.91,13,30.59,7.46a11,11,0,0,0,5.94-11.18c-.35-4.58-2.53-7.59-6.55-9.76-8.83-4.76-18.77-6.38-28-10.16-12.49-5.14-17.65-13.56-18-24.17-.41-11.39,12.36-24.74,26.22-24.86Z" transform="translate(-5.9 -15.91)"/><path d="M44.63,251.21c-4.61.47-10.07-.3-15.52.69-1.92.35-4.95,1.28-5.48-2.41-.43-3,1.08-4.11,3.82-4.67,3.84-.78,3.24-4.1,3.1-6.74-.43-8.21.09-16.39.13-24.57,0-7.43-.57-14.91-.6-22.38,0-4.83.11-9.66-.06-14.49-.08-2,1.29-4.86-1.43-5.75-3-1-6.22-.77-8.77,1.88-4.23,4.38-6.16,9.76-7.06,15.62-.3,2-.63,3.93-.85,5.9-.28,2.54-1.61,2.9-3.84,2.25-2.45-.72-2.37-2.21-1.91-4.24,1.69-7.58,3.43-15.16,4.77-22.8.37-2.13.83-2.57,3-3.25,9.54-3.07,19.3-2.23,29-2.21,10,0,20-.88,29.91.6,2.11.31,3,.66,3.34,3.11,1,7.74,1,15.53,1.7,23.29.27,3.33-1.53,4.55-4.33,4.74-3,.21-3.15-2.12-3.53-4.34-1-5.74-2.33-11.37-5.43-16.46-1.92-3.17-4.43-4.7-8.19-4.53-4,.19-6.22,1.92-5.22,5.93,2.08,8.29-.95,16.5,0,24.77,1.49,13.09.62,26.24.77,39.36,0,3.37,2,4.29,4.86,4.21,2.66-.07,4.42.46,4.32,3.83-.12,3.84-2.79,2.53-4.62,2.61C52.79,251.33,49.12,251.21,44.63,251.21Z" transform="translate(-5.9 -15.91)"/><path d="M682.69,200.77c1,10.48-.35,21.24,4,31.35,3.33,7.74,9.09,11.24,18.74,10.88,8.13-.3,14.14-4.8,16.49-12.57a31.74,31.74,0,0,0,1.5-7.8c.09-2.69.75-3.77,3.68-3.79,3.61,0,3.07,2.19,2.92,4.31-.87,12.44-4.85,21.84-19.78,25.28-16.3,3.75-35.19,0-44.08-15.76-9.24-16.39-11.8-44.15,7-59.84,11.26-9.38,30.52-10.73,42.28-4.5,3,1.58,4.29,1.66,5.69-1.41,1.09-2.41,3.42-2.48,5.61-2s1.64,2.59,1.7,4.14c.29,7.31.41,14.62.79,21.92.15,2.8-.92,3.63-3.6,4s-3.26-.49-3.87-2.95a58.5,58.5,0,0,0-4.08-10.67c-4.2-8.89-11.77-12.68-21.18-10.87-7.37,1.41-12.4,8.12-13.15,17.28A110.06,110.06,0,0,0,682.69,200.77Z" transform="translate(-5.9 -15.91)"/><path d="M634.2,36.31c-1.09,22.42-.55,44.86-.76,67.3-.12,12.61-.29,12.61-12.92,12.6s-13.07,0-12.66-12.84c.8-24.77.55-49.54.68-74.31C608.6,18,608.7,18.16,620,17.9c4.27-.1,8.13,2.71,12.61,1.09,1.79-.65,1.6,1.63,1.62,2.84C634.24,26.65,634.2,31.48,634.2,36.31Z" transform="translate(-5.9 -15.91)"/><path d="M467.12,165.51c4.84,0,9.67,0,14.5,0,1.71,0,3.42.06,3.4,2.55,0,2.08-.6,3.39-2.89,3.92-5.58,1.27-7.07,3.27-5.93,9.08a64.5,64.5,0,0,1,.72,11.42c.29,16,.62,31.93.73,47.9,0,3.35,1.35,4.26,4.43,4.4,11.37.51,12.94-.4,18.15-11.21.65-1.35,1.38-2.63,3.31-2.38,1.74.22,2.66-1.15,3.65-2.26.76-.84.34-1.59-.36-2.1-.86-.63-1.54-.39-1.71.75s-.35,2.2-1.72,1.82a1.91,1.91,0,0,1-1.17-2.84c.81-1.77.5-3.6.56-5.41.06-2,.82-3,3-3.16s3.34.81,3.34,2.76c0,9.3.56,18.62-.55,27.91-.38,3.19-2.55,2.51-4.4,2.51q-20.7.06-41.39,0c-3.45,0-6.89.65-10.37,0-1.49-.27-3.07,0-3.12-2.21-.05-1.64.17-3.31,2.07-3.38,5.27-.21,4.72-3.76,4.7-7.34-.07-15.84-.14-31.67,0-47.5.06-5-1-9.93-1-14.92,0-2.38-1.24-3.8-3.66-3.79-2.67,0-2.82-1.66-2.88-3.66-.07-2.66,1.6-2.91,3.62-2.9C457.12,165.53,462.12,165.51,467.12,165.51Z" transform="translate(-5.9 -15.91)"/><path d="M386.88,421.53c1.33,17.77-13.27,28.4-26,27.5S337.34,437,336.87,424.22c-.33-9.1,1-17.29,7-24.68,9.45-11.73,32.63-9.13,38.82,4.66C385.26,410,388,415.71,386.88,421.53Z" transform="translate(-5.9 -15.91)"/><path d="M538.56,175.24c-.69,15.53.86,30.24.67,45-.09,6.49,0,13-.05,19.47,0,3.59,1.49,5,5.08,5.1,11.31.31,17.6-4.89,19.29-16.19.4-2.62,1.17-5.19,1.51-7.81.32-2.46,1.79-2.87,3.86-2.79s3,1.13,3,3.14c0,8.66-.06,17.31-.13,26,0,3-1.95,3.34-4.41,3.37-15.79.19-31.58.46-47.37.72a43.36,43.36,0,0,0-5.47.21c-1.58.22-3.11.72-3.4-1.51-.24-1.81-.58-3.95,2-4.35,5.41-.83,5.64-4.57,5.43-8.86-.38-7.8.44-15.62-.71-23.43-.93-6.41.59-12.82.93-19.23.15-2.81,3.13-4.44,5.45-5.93,3-1.9,5.58-4,6.89-7.46C532.21,177.78,535,176.74,538.56,175.24Zm-10,23.49c2.6-.81,2.88-3.4,3.3-5.72.27-1.48-.94-1.86-2.25-1.78-2.9.16-3.61,2.55-4,4.61A2.63,2.63,0,0,0,528.53,198.73Z" transform="translate(-5.9 -15.91)"/><path d="M332.78,353c0,3.95,0,7.91,0,11.87,0,2.46,0,4.77-3.45,4.82-3.19.05-6.48.6-7.21-3.89-.77-4.76.49-9.47,0-14.3-.63-5.93,0-12-.2-18-.11-3.43,1-4.91,4.58-4.58,3.25.29,6.57.08,6.22,4.93a68.75,68.75,0,0,0,.1,8c.05,1.17-.54,3,1.63,2.89,1.94-.13,1.67-1.88,1.52-3.1-.31-2.46.37-4.91-.49-7.4-1-2.87.1-5.11,3.39-5.18,3-.07,7.16-1.58,7.14,4,0,11-.09,22,0,33,0,3.93-2.53,3.59-5.05,3.62s-4.94.14-5-3.7C335.81,361.6,337.3,356.82,332.78,353Z" transform="translate(-5.9 -15.91)"/><path d="M371,359.4c-.94-9-.79-18-.7-27.08,0-1.82.51-3.22,2.83-3.18,3,.05,5.93-.16,8.89-.18,10.64-.07,15.46,7,11.06,16.81a4.74,4.74,0,0,0-.07,4.68c2.36,5.61,1.78,11.69,1.06,17.46-.37,3-4.21,1.51-6.54,1.72s-3.25-1.29-3.27-3.41c0-3.34,0-6.67,0-10,0-1.28.17-3-1.7-3.06-2.24-.1-1.43,1.84-1.47,2.95a57.4,57.4,0,0,0,0,9c.61,5.24-3,4.35-6.05,4.67-3.52.37-4.32-1.31-4-4.38C371.15,363.41,371,361.4,371,359.4Zm9.85-18.73c1.14.89-1.18,3.62,1.51,3.64,1.82,0,1.52-2.4,1.32-3.73s.76-4.07-1.61-4C380.12,336.66,381.41,339.07,380.85,340.67Z" transform="translate(-5.9 -15.91)"/><path d="M513.54,347.31c0-5,.14-10,0-15-.13-3.52.38-5.5,4.79-5.42s5.47,1.79,5.23,5.69c-.16,2.63.27,5.29.32,7.94,0,1.35.39,2.37,1.9,2.3s1.28-1.37,1.18-2.26c-.32-2.92,1.57-5.66.23-8.79-.72-1.69-.91-4.83,2.54-4.63,3,.18,7.65-2.06,8,3.72.26,4.14,0,8.31,0,12.47,0,6.82-.16,13.65.07,20.46.15,4.39-2.53,4.13-5.52,4.23-3.35.11-5.13-1-4.7-4.56s-1.49-6.79-.07-10.3a2.15,2.15,0,0,0-1.76-2.59c-1.61-.13-2.28,1.08-2.26,2.62,0,3.47,0,6.95.18,10.41.3,5.15-3.29,4.18-6.39,4.42-3.86.3-3.81-2.09-3.78-4.77.06-5.32,0-10.64,0-16Z" transform="translate(-5.9 -15.91)"/><path d="M443.33,329c7.09,0,10.11,1.81,10.83,6.87.19,1.32,1.6,4-1.18,3.73-2.57-.22-6,3.34-7.75-1.13-.58-1.45-.76-3.43-2.63-2.53-1.3.64-.8,2.69-.18,4.11,1,2.2,2.84,3.64,4.51,5.24,3.25,3.11,6.45,6.21,7.69,10.79,1.46,5.42-2.2,11.3-8.13,12.82-6.39,1.64-13.16-1.67-14.24-7.13-.31-1.58-1.3-4.36,1.29-4.38,2.78,0,6.67-2.54,8.37,2.07.39,1,.13,2.65,1.82,2.27s1.61-2.09,1.1-3.27a16.11,16.11,0,0,0-4.31-5.82c-3.88-3.45-8.1-6.81-7.81-13.11C433.07,332,435.75,329,443.33,329Z" transform="translate(-5.9 -15.91)"/><path d="M348.6,349.83c0-5.89.07-11.34,0-16.8-.05-2.91,1-4.25,4.1-4.1,3.65.18,7.31.12,11,0,2.91-.06,4.89.69,4.85,4.1s-2.49,3.27-4.57,3c-4.34-.47-5.37,1.3-5,5.42.28,3.38,1.68,4.29,4.67,4,2.65-.27,4.45.22,4.3,3.66-.14,3.16-1.61,4.25-4.39,3.76-4.1-.72-4.77,1.6-4.65,4.81s.41,6,4.93,5.32c2.05-.3,4.79-1,4.84,2.94.05,3.81-2.19,3.83-4.88,3.78-3.65-.07-7.31-.09-11,0-2.5.06-3.56-.87-3.56-3.5C349.2,360.66,348,355.07,348.6,349.83Z" transform="translate(-5.9 -15.91)"/><path d="M550.68,327.08a31.41,31.41,0,0,0,5.49-.05c4.81-.88,4.08,3,4.25,5.31.23,3.07-2.63,1.52-4,1.49-3.37-.06-5.35.43-6,4.53-.68,4.39.51,5.86,4.74,5.64,2.23-.12,4.85-.68,4.86,3.12s-2.59,3.46-4.82,3.25c-4.88-.46-5.28,2.22-5.29,6.12,0,4.27,2.12,5.12,5.65,4.75.83-.08,1.69.06,2.5-.07,2.8-.47,3.62,1.41,3.7,3.48a2.94,2.94,0,0,1-3.59,3.18c-3.88-1.14-7.52.34-11.28.22-6.43-.19-6.83-.68-6.73-6.82.12-7.64,1.73-15.28-.05-23-.56-2.44.55-5.07,0-7.72-.51-2.45,1-3.63,3.52-3.49C546,327.18,548.34,327.08,550.68,327.08Z" transform="translate(-5.9 -15.91)"/><path d="M397.78,355.74c-1.11-6.4.48-14.84-.19-23.26-.21-2.54.73-3.64,3.37-3.55,4,.13,8,.09,12,0,2.61-.06,3.94.75,4,3.67.1,3.32-2.15,2.73-4,2.85-5.86.37-7.07,2.08-5.51,7.23.75,2.5,2.29,2.92,4.46,2.83s4.24-.33,4.21,3.13c0,3.05-1.32,3.66-3.9,3.42-6.21-.59-4.05,4.09-4.39,7.12-.39,3.58,1.32,4.12,4.55,3.49,1.83-.35,4.5-.59,4.62,2.88s-1.57,4.4-4.57,4.24c-.83-.05-1.66,0-2.49,0C397.82,369.82,397.82,369.82,397.78,355.74Z" transform="translate(-5.9 -15.91)"/><path d="M494.21,351.47c0-3.83-.06-7.66,0-11.48.07-2.94.35-5.76-4.07-5.4-1.41.11-2.67-.85-1.86-2.61.62-1.34-.54-4,2-3.85,5.52.33,10.89-1.32,16.37-1,1.93.11,4.07.09,4.3,3s-1.3,4.22-3.66,4.36c-3.18.2-3.18,2.06-3.17,4.39.06,8.43-.2,16.87.11,25.29.2,5.39-3.47,3.48-6.05,3.83-3.11.43-4.49-.49-4.14-4.05C494.53,359.83,494.21,355.63,494.21,351.47Z" transform="translate(-5.9 -15.91)"/><path d="M223.52,389.24h36.32c-.7,1.72-.91,3.39-1.86,4.33a92.67,92.67,0,0,0-10.77,13.59c-2.73,3.95-6,3.4-9.28.53C232.14,402.65,228.53,395.94,223.52,389.24Z" transform="translate(-5.9 -15.91)"/><path d="M125.08,664.27c0,6.83-.73,13.76.2,20.47s.34,13.59.69,20.38c.12,2.48,0,5,.7,7.41a2.44,2.44,0,0,1-2.25,3.24c-1.55.15-2.27-1.13-2.38-2.62-.07-1-.05-2-.08-3-.54-18.59-1-37.19-1.68-55.78-.06-1.86.91-3.66,2-3.24,2.43.88,6,1.2,6.5,4.42,1.34,9.6,3.53,19.09,3.83,28.83,0,1.52-.07,2.76-1.84,2.89-2.18.15-2.19-1.46-2.31-3-.52-6.68,0-13.48-1.92-20Z" transform="translate(-5.9 -15.91)"/><path d="M82.24,589.34C79.63,582.86,75,577.71,71,572.09c-3.59-5.14-7.39-10.15-11-15.29-.69-1-1.56-2.56,0-3.5a2.52,2.52,0,0,1,3.47,1,47.06,47.06,0,0,0,3,4.54c1.95,2.22,2.69,6.42,7.37,4.67.67-.25,2.17.84,2.89,1.66,5.21,6,10.33,12,15.46,18,.43.5.71,1.13,1.1,1.67.85,1.17,1.31,2.59.33,3.66-1.46,1.61-2.1-.22-3-1a4.81,4.81,0,0,0-3.92-1.39,6.73,6.73,0,0,0,2.5,5.52c3.4,3.24,5.76,7.25,8.47,11,.84,1.16,2.25,2.76.84,3.87-1.66,1.31-2.92-.15-3.84-1.76-2.38-4.17-6.12-7.37-8.22-11.8a6.61,6.61,0,0,0-4.36-3.84Zm-3.3-15.45c-.55,4.52,3.45,5.73,4.06,8.69.18.88,1.22,1.89,2.27,1.24,1.3-.8.72-2-.1-2.91C83.28,578.77,81.38,576.64,78.94,573.89Z" transform="translate(-5.9 -15.91)"/><path d="M58.6,618c-7-.67-13.12,0-19.24.48-2.45.21-4.85,1-7.3,1.27-1.45.18-3.59.3-3.83-1.4-.27-1.91,1.93-1.92,3.31-2,4.13-.36,8.27-.63,12.41-.77s8.42.58,12.39-.77c4.86-1.66,7.12,3.8,11.46,3.76,1.12,0,.07,2-1.07,2.28a50.22,50.22,0,0,1-5.89.79c-13.35,1.45-26.51,4.41-40,4.78-2.09.06-4.13,1.16-6.24,1.54-1,.18-2.59.53-2.73-1.21-.08-1.13.94-1.71,2-1.79,12.68-.9,24.91-5.21,37.73-5.09A11.26,11.26,0,0,0,58.6,618Z" transform="translate(-5.9 -15.91)"/><path d="M142.44,591.16c-.95-.19-2,.14-2.11-1.06a2.18,2.18,0,0,1,1.67-2.21c4.33-1.66,8.64-3.41,13-4.9,17.76-6,34.91-13.49,52-21,1.81-.8,3.46-2,5.28-2.76,1.06-.46,2.42-.56,3.07.75.82,1.67-.8,2-1.72,2.4-8.72,4.06-17.34,8.42-26.26,12-14,5.58-28.25,10.59-42.39,15.84C144.13,590.48,143.22,590.86,142.44,591.16Z" transform="translate(-5.9 -15.91)"/><path d="M82.11,589.19c-2.17,5.74,3.75,7.41,5.59,11.13.77,1.54,4,2.84,1.3,4.7a4.44,4.44,0,0,1-6.16-1.76c-2.07-4.42-6-6.24-9.6-8.91-6.55-4.92-12.6-10.49-18.79-15.89-1.13-1-3.15-2.33-1.22-4,1.59-1.38,3,.18,4.26,1.29,4.26,3.61,7.84,8,13,10.59,1.42.7,2.63,1.7,4.46,1.67-.2-2.16-2.31-2.3-3.22-3.58-.78-1.08-2.3-1.71-.85-3.11,1.21-1.17,2.59-.62,3.45.57a29.8,29.8,0,0,0,7.9,7.45Z" transform="translate(-5.9 -15.91)"/><path d="M141,583.41c6.8-4.91,14.05-8.1,21.18-11.43,12.33-5.76,24.77-11.29,37.24-16.74,1.56-.68,4.16-2.76,5.2-.36s-2.29,2.92-3.84,3.63C191,563,181,567,171.17,571.53c-8.24,3.79-16.34,7.91-24.37,12.12C144.79,584.7,143.28,585.08,141,583.41Z" transform="translate(-5.9 -15.91)"/><path d="M56.58,605.72c-5.3,3.41-10.82-1-16.92,2.26a109.59,109.59,0,0,0,21.73,2c4.3-.1,8.61,0,12.9.14,1.16,0,2.58.48,2.34,1.94A2.34,2.34,0,0,1,74,613.72c-4.76-1.75-9.76-.63-14.66-1.45-9.34-1.57-18.91-1.75-28.39-2.49-4.12-.32-8.25-.59-12.36-.92-1-.08-2.12-.33-1.95-1.65.13-1.09,1.24-.94,2-.92a36.21,36.21,0,0,1,5.42.38c2.81.49,5.56,1.39,7-2.29a2.3,2.3,0,0,1,2.53-1.28C40.92,604.79,48.67,602.81,56.58,605.72Z" transform="translate(-5.9 -15.91)"/><path d="M105,586.55a37.15,37.15,0,0,1,.84-6.39c.39-2.12.81-4.27-2.16-5.82-3.29-1.71-2.5-5.63,1.07-7.26.29-.13.65-.14.94-.28,1.6-.75,2-4.47,4.48-2.52,1.93,1.54.24,4.33.36,6.53.36,6.75-3.81,13.58.33,20.28.83,1.36-.27,2.4-1.44,2.55-1.68.21-3.45-.39-4-2.15A23,23,0,0,1,105,586.55Z" transform="translate(-5.9 -15.91)"/><path d="M140.44,647.16c3.39.75,5.78,3.18,8.38,5.19,4.74,3.65,8.12,8.78,13.05,12.26.85.6,1.77,2,.42,2.92a3.12,3.12,0,0,1-4.12-.41c-2.56-2.63-5.86-4.47-8.33-7a125.2,125.2,0,0,0-10.1-9.46,2.2,2.2,0,0,1-.89-2.61A1.37,1.37,0,0,1,140.44,647.16Z" transform="translate(-5.9 -15.91)"/><path d="M143.28,679.31c0,1.79.05,3.05-1.44,3.4a2.13,2.13,0,0,1-2.58-1.8Q136,667.5,132.89,654a2.3,2.3,0,0,1,1.36-2.89,2.16,2.16,0,0,1,2.49,1.92C138.49,662.12,139.8,671.29,143.28,679.31Z" transform="translate(-5.9 -15.91)"/><path d="M429.19,335.22c.23,3.82-3.1,5.92-6,8.28a1.2,1.2,0,0,1-1.76,0,1.41,1.41,0,0,1,.33-2.14c1.72-1.45,2.22-2.82,0-4.28-2-1.28-3.34-3.05-2-5.36a4.89,4.89,0,0,1,5.9-2.46C428.29,330,429.22,332,429.19,335.22Z" transform="translate(-5.9 -15.91)"/><path d="M865.06,373.8c2.21,2.18,2.86,5.32,5.78,6.7,1,.5.95,3.53-.5,4.4-4.24,2.56-8.83,3.68-14.43.73C865.15,386.12,864.32,379.66,865.06,373.8Z" transform="translate(-5.9 -15.91)"/><path d="M135.33,709.11c.48,2.27,1.08,5.17,1.69,8.07.35,1.68.72,3.56-1.67,3.85-2,.24-2.41-1.43-2.53-3-.4-5.29-.75-10.58-1.13-15.87-.06-.85-.17-1.73.84-2.06,1.44-.48,1.7.72,1.94,1.62C135.07,703.91,136.27,706,135.33,709.11Z" transform="translate(-5.9 -15.91)"/><path d="M104.29,672.78c.5-6.1,3-10.29,4.85-14.68a1.85,1.85,0,0,1,2.6-.75c1.22.54,1,1.65.42,2.5-2.67,3.75-3.07,8.3-4.56,12.45-.34.94-.61,2.56-2.17,2.19A1.4,1.4,0,0,1,104.29,672.78Z" transform="translate(-5.9 -15.91)"/><path d="M766.65,386.06a2.75,2.75,0,0,1-2.51-1.25c-1.21-1.61.87-1.16,1.18-1.8,1.55-3.25,5.54-3.45,7.55-6.12a1.5,1.5,0,0,1,2.21-.22,1.57,1.57,0,0,1,.45,2.17C773.69,382.61,771.23,385.62,766.65,386.06Z" transform="translate(-5.9 -15.91)"/><path d="M149.18,709.64c-.22,1.58.19,3.81-1.87,4-2.23.23-2.06-1.84-2.26-3.52-.24-2.1-.93-4.14-1.33-6.22-.19-1-.12-2,1-2.49s1.71.38,2.33,1.23C148.58,704.77,148.62,707.28,149.18,709.64Z" transform="translate(-5.9 -15.91)"/><path d="M836.84,378.51c-2.11-2.95-6.75,0-7.55-4.31-.32-1.73.92-3.21,3.1-2.89C836.15,371.85,837.75,373.93,836.84,378.51Z" transform="translate(-5.9 -15.91)"/><path d="M60.47,630.05c-3.58,4-7.85,4.24-11.41,5.81A1,1,0,0,1,47.6,635a1.71,1.71,0,0,1,1-2C52.11,631.87,55.34,629.72,60.47,630.05Z" transform="translate(-5.9 -15.91)"/><path d="M170.12,671.45c2.76,1.4,5.68,2.46,6.8,5.44a1.57,1.57,0,0,1-2.15,1.88c-2.68-1.23-5.45-2.69-6.64-5.59C167.65,672,169.34,672,170.12,671.45Z" transform="translate(-5.9 -15.91)"/><path d="M873.12,374.59c-1.12,1.15,1.18,4-1.73,3.2-1.53-.41-4-1.74-3.36-4,.49-1.82.38-5.34,3-4.85S872.09,372.88,873.12,374.59Z" transform="translate(-5.9 -15.91)"/><path d="M97.75,690.47c.32-2.25.28-4.67,3.23-4.88,1.55-.11,2,1.23,1.69,2.41-.54,1.92-.26,4.58-3.07,5C97.37,693.4,98.08,691.48,97.75,690.47Z" transform="translate(-5.9 -15.91)"/><path d="M519.38,166.2a58.19,58.19,0,0,1-4.44,3.84c-1.17.82-2.73,1.73-3.64-.33-.72-1.63.08-2.87,1.64-3.52A7.51,7.51,0,0,1,519.38,166.2Z" transform="translate(-5.9 -15.91)"/><path d="M538.76,172.73a8.89,8.89,0,0,1,5.55-4.5c1.13-.38,2.81-.87,3.29.94s-.9,2.33-2.26,2.67C543.21,172.38,540.9,171.51,538.76,172.73Z" transform="translate(-5.9 -15.91)"/><path d="M852.53,377.1c4.24-1.18,7.29-1.39,11,.43C859.7,379.62,856.61,379.31,852.53,377.1Z" transform="translate(-5.9 -15.91)"/><path d="M793.09,375.52c2.06.61,5.28-1.28,5.38,2.63,0,1.57-.72,2.81-2.16,2.87C792.32,381.2,795.1,376.94,793.09,375.52Z" transform="translate(-5.9 -15.91)"/><path d="M785.75,363.48c-1.28,1.18-5.11-.89-3.85,3.07.12.37-1.37,1.2-2.45.33s-2-1.95-1.74-3.35,1.94-2,2.63-1.43C781.93,363.48,783.85,362.67,785.75,363.48Z" transform="translate(-5.9 -15.91)"/><path d="M759,381.78a6.22,6.22,0,0,1,2.83,4.84,1.3,1.3,0,0,1-1.69,1.31c-1.71-.58-3.29-1.53-3.1-3.69C757.17,383.13,757.49,382,759,381.78Z" transform="translate(-5.9 -15.91)"/><path d="M111.23,608.36c-.64,3.06-2.56,4.1-5.29,3.84-.33,0-1-1.22-.81-1.48A4.8,4.8,0,0,1,111.23,608.36Z" transform="translate(-5.9 -15.91)"/><path d="M204.19,734.78c-1.82,0-3.66,0-5.48,0-4-.11-6.11-2.28-6.65-6.08s-.18-7,4-8.54c7.11-2.6,13.83-1,20.14,2.24,3.75,1.93,2.73,9.28-1.25,11.14C211.52,735.13,207.83,734.74,204.19,734.78Z" transform="translate(-5.9 -15.91)"/></g></g></svg>