<svg xmlns="http://www.w3.org/2000/svg" viewBox="0 0 801.51 725.13"><title>yr</title><g id="Layer_2" data-name="Layer 2"><g id="Layer_1-2" data-name="Layer 1"><path d="M786.42,747.21c.87,1.31,4,1.46,2.67,3.84-1.06,2-2.31,4.13-5.23,3.66-.64-.1-1.66-.41-1.88-.13-3.13,4-8.43,2.94-12.06,5.26-3.41,2.18-6.24,1.07-7.92-1-3.85-4.81-7-4.47-10.24,0-1.15-.39-1.37-1.08-1.06-1.69.94-1.9,2.87-3.59-.83-5.1-1.26-.51-.9-4.78-3.93-1.58-1.09-3.25-5.49-3-6.61-6.13-.69-2-1.84-2.67-3.78-1.68-3.85,2-6.61,1.09-8.72-2.84a3.51,3.51,0,0,0-5.5-1.28c-2.11,1.53-4.75.72-5.38-.55-2.67-5.33-8.13-4.88-12.41-6.86-2.66-1.22-5.86-1-7.39-4.92-.69-1.77-5-2-7.57-3.18-3.08-1.39-7.56-.64-8.57-5.49-.11-.53-1.71-.8-2.64-1.11-6.8-2.24-13.66-4.32-20.39-6.76-2.58-.94-5.71-1-7-4.73-.75-2.28-3.66-2-5.62-.52-10.72,8-22.4,14.57-34.24,20.73-13,6.73-25.85,13.56-39.73,18.52-11.33,4-22.79,7.74-34.13,11.78-9.59,3.42-19.85,4.93-29.74,7.55-10.24,2.7-20.86,3-31.15,5.59-5.84,1.45-12.17,1.24-18.28,1.27q-35.49.2-71,0c-16.27-.09-32.23-2.76-48.11-6.17a403.21,403.21,0,0,1-39.12-10.58c-22.06-7.12-44-14.32-64.65-25.22a427.26,427.26,0,0,1-69.63-45.62,379.69,379.69,0,0,1-51.17-49.38c-9.43-11.11-19-22.14-27-34.29-11.14-16.92-22.06-34.2-29.67-53-4.56-11.25-8.86-22.77-12.36-34.53-2.91-9.76-6.31-19.45-8.23-29.4-2.16-11.15-4-22.41-5.63-33.7-2.36-16.56-2.69-33.05-2.9-49.65-.11-9.19,2-18.11,2.61-27.19.69-10.78,3.12-21.27,4.83-31.87A135.4,135.4,0,0,1,39.39,322c4.39-14.71,9.68-29.11,15-43.53,6.39-17.3,15-33.29,24.61-48.9,2.82-4.61,5.17-9.51,8.05-14.08a190.56,190.56,0,0,1,19.7-26.66c8.36-9.21,16.92-18.3,26-26.79,14.25-13.3,28.8-26.28,44.28-38.23,11.15-8.61,22.21-17.37,34.77-23.79,14.21-7.28,27.87-15.6,42.71-21.74,12.66-5.23,25.74-9.15,38.56-13.83,19.71-7.2,40-11.67,60.53-15.08,15.82-2.63,31.79-4.75,48-4.48,19,.32,38-.57,56.88,1,10.86.93,21.59,3.22,32.42,4.62,11.67,1.52,22.81,5.32,34.31,7.62,5.32,1.06,10.42,3.26,15.62,5,8.77,2.86,17.7,5.32,26.25,8.72,10,4,19.93,7.93,29.33,13.12,13.18,7.26,26.93,13.48,39.39,22,7.78,5.34,15.45,10.79,23,16.47s14.9,11,21.75,17.25c9.94,9,19.92,18,29.25,27.66A356.89,356.89,0,0,1,737.63,201c8.44,11.11,14.74,23.52,22.27,35.16,6.44,10,10.82,21,16.78,31.16.83,1.44,1.64,2.5,3.19,2.73,4.83.72,6.71,4.78,9.34,8s6.33,5.53,8.13,9.53c.94,2.09,2.23-2.09,4,.23,2,2.66,4.72,4.45,3.36,8.53a4.12,4.12,0,0,0,2.16,4.68,1.51,1.51,0,0,1,.6,2.45c-1.9,2.92-1.2,5.72,2.18,7,2.3.89,2.53,1.93,2.1,4.11-.59,3,.12,5.32,2.48,10.05,1.54-8.73,7.5-11.56,15-13.32-.6,3.73-3.4,6.14-4.85,9.15-1.25,2.6-4.7,5.14.43,7.4,1.1.49.77,1.74.27,2.67a1.87,1.87,0,0,1-2.56.82c-2.47-.86-5.47-.8-7.21-3-1.4-1.77-2.51-.24-2.44.31.83,6.11-3.14,9.72-6.94,13.21-5.06,4.66-4.63,10.4-4,16.31,3.32,29.87,1.11,59.85,1.32,89.77.06,8.82-2.14,17.7-3.81,26.51-1.43,7.46-2.76,15-4.6,22.3-2.18,8.75-5.21,17.31-8.2,25.83s-6.16,16.76-9.59,25c-2.39,5.73-5.34,11.23-8,16.84-5.95,12.37-13.69,23.7-20.86,35.34a235.41,235.41,0,0,1-24.31,32c-7,7.95-13,16.83-20.94,24-2.59,2.32-5.19,4.63-7.75,7-1.72,1.57-.93,1.89.69,3.42,6.36,6,16,5.82,21.9,10.78,5.41,4.52,12.47,4.38,17.08,9.17,1.5,1.57,2.4-.61,3.89,0,4.46,1.89,9.44,2.74,13.55,5.14a13.5,13.5,0,0,1,4.94,5.52c1.1,2.45,2.39,2.95,4.62,1.73s4.11-1,4.95,1.88c.17.57.76,1.45,1.16,1.46,5.49.08,7.58,5.59,12,7.63a10.52,10.52,0,0,1,5.93,8.05c.5,4.65,4.52,7.89,5.7,12.7C793.35,737.35,792.51,742.91,786.42,747.21ZM392.34,332.36c3.07-7.22-2.87-12-3.17-18.11,0-.41-.45-1.11-.76-1.15-7.38-1-6.84-8.17-7-12-.22-6-2.15-11.44-2.63-17.24-.66-7.88-4-15.32-4.55-23.35-.1-1.5-1-5.18-2.58-5.34-4.21-.43-3-2.55-2.26-4.79.51-1.59,1.35-3.34-.42-4.52-2.43-1.61-1.53-3.79-1.35-5.85.1-1.13.76-2.14.33-3.39-1.87-5.56-1.29-11.62-3.92-17.14-1.41-2.93-1.82-8.44-4.15-8.5-5.87-.16-3.46-2.57-3.16-5.63.33-3.47,2.09-7.14-1.82-10.74-1.59-1.47-4.69-3.14-5-6.56-.39-4-.93-8.43-6.5-9-1.21-.13-1.18-1.4-1.42-2.36-.47-1.89-2.26-1.84-3.63-2.12-1.81-.38-2.05,1.26-2.46,2.49-.75,2.21-1.15,4.59-2.25,6.6-1.62,3-1.27,6.91-5,10.13,1-6.67.6-12.35,3.2-17.64,1.39-2.81,1.83-6.07,3.07-9,1.39-3.27.71-4.21-2.93-4.19-28.63.14-57.27.3-85.9-.75-3.65-.13-7.3.06-11-.63-6-1.13-10.79.23-14.44,5.85-3,4.65-7.17,8.58-10.8,12.85-6.55,7.72-10.94,16.87-16.58,25.18a139.78,139.78,0,0,0-17.81,37.43c-3.89,12.64-7.94,25.53-8.65,39.08-.4,7.72-2.42,15.34-2.66,23.11a251.69,251.69,0,0,0,6,62.64c2.21,9.95,4.8,19.9,9,29.17a332.81,332.81,0,0,0,22.84,42.67c7.85,12.23,17.17,23,26.39,33.92,3.21,3.83,4,3.55,5.53-1.23,2.29-7.1,2.29-7.1-4.82-9.17.54-.32,1-.78,1.28-.73,5.87,1.08,8.46-1.89,9.3-7.27a10.2,10.2,0,0,1,1.28-3.24c.27-.49,1.23-1.19,1.38-1.08a7.89,7.89,0,0,1,3.73,6.61c0,2.13-1,3.06-3.13,2.61-1.49-.3-2.86,0-2.77,1.8s1.69,1.14,2.73,1.26A343.87,343.87,0,0,0,285.17,465c9.83-.08,19.68.32,29.49-.17,12.28-.6,24.53-1.89,37.61-2.94a8.76,8.76,0,0,1-4.2,2.19c-8.52,1.69-17.19.64-25.78,1.61-16.57,1.89-33.27.51-49.91.81a154.29,154.29,0,0,1-22.82-1.41c-3.4-.45-7.78-1.52-10.2.5-3.94,3.29.09,9.52-3.3,13.71-.93,1.16.47,2.45,1.25,3.52.09.13.26.2.38.31,5.88,5,10.67,11.53,18.79,13.4.61.14,1.48.47,1.67.94,2.77,6.72,9.3,9.49,14.51,13.49,4.82,3.69,10.72,3.11,13.56-.78.76,2.83,3.18,3,5.18,4,4.33,2,8.52-.29,12.78-.11,14,.61,27.82-1.12,41.69-2.44,1.16-.11,2.56-.56,3.74.88-5.95,2-11.95,1.66-17.77,2.43-6.73.89-13.53,1.16-20.31,1.66-2.14.15-3.22,1-2.12,3.14.42.85,13.06,4.82,13.6,4.16,2.54-3.11,5.27.4,7.84-.41,1.13-.36,1.15-.23,4.23,5.22.26.45,1,.6,1.67.93.77-8.51.77-8.51,5.58-7.19a23.75,23.75,0,0,0-1.79,2c1.42,1.57,2,2.83-.33,4.19-.49.29.34,1.14,1,1.26a4.54,4.54,0,0,1,3.11,2.32c3.09,5,7.7,5.8,12.94,4.79.71-.14,1-.24,1.65.24,5.53,4.46,11.18,8.55,19,6.23,1.65-.49,1.19,1.08,1.5,1.84,2.15,5.14,6.1,6.52,11.43,6.35,4.59-.15,9.21.81,13.82,1.19,2.15.18,4.32.18,6.48.19.84,0,1.75-.12,1.62-1.32s-.58-1.92-1.93-1.31c-3.76,1.7-2.78-1.78-3.08-3.15-.44-2.07.43-3.69,3.08-3,1.06.3,2.09.3,2.71-.63.79-1.17,3.55-.18,2.88-3.09-.49-2.14-1.78-2.59-3.4-3-3.41-.92-1,2.84-2.57,3.34-1.1-1-3.12-2-3.05-2.89.56-6.89-4.87-10.07-8.3-14.57-1.15-1.51-1.78-3.48-3.55-4.46-4-2.22-6.48-7.2-6.27-11.94.09-1.94.28-4.3-2.23-5.51s-3.53,0-4.65,2c-1.48,2.63-4.92,1.91-5.48.53-1.93-4.86-6.53-4.48-10-6.16-2.47-1.19-4.77-7.65-3.28-9.82.64-.94,1.52-1.24,2.46-.25.47.49.75,1.89,1.71.69a1.74,1.74,0,0,0-.41-2.61c-4.91-4-7.45-8.56-3.26-14.62.24-.33.47-1,.3-1.23-3.69-4.25-1.15-8.39,0-12.61.41-1.46,1.93-4.13-2.13-2.78-.57.19-5.29.58-4.26-3,2.31-8,1.44-16.71,5.95-24.14,3.24-5.34,6.31-10.78,9.76-16.69,1.13,2.11,1.81,3.39,2.67,5,2.84-3.12,5.83-5.63,5.61-10.21-.1-1.86.36-3.33,3.22-4,3.37-.74,5.48-5.83,10.17-3.27a4,4,0,0,0,.84-1.14c2.37-4.83,6.51-8.51,8.29-13.82,1.46-4.32,3.19-8.72,7.47-11.52,3.22-2.11,3.43-4.47-.89-5.77-1.25-.37-2.12-1.05-1.77-2.51.32-1.3,1.17-1.71,2.54-1.86a9,9,0,0,0,8-10.53c-.45-2.74-1.41-4.24-4.61-4.73-5.64-.87-9.35-4.68-12.84-9.17C400.45,334.79,398.48,330.26,392.34,332.36ZM249.59,92.45c-2.91,1.25-5.65,2.36-8.33,3.59A206,206,0,0,0,211,113.53c-15.39,10.5-31.07,20.53-45.35,32.68-12.39,10.54-23.74,22-35.17,33.52-7.78,7.82-13.93,16.86-21,25.23-9.63,11.47-17.6,24.1-25,36.93C80,249.62,76.15,258,72.15,266.05,65.76,279,59.46,292,55.6,305.86c-3.44,12.41-8.6,24.34-9.87,37.38-1.36,14-3.57,27.92-3.68,42-.11,14.79-.08,29.57.52,44.38,1,24,3.78,47.5,11.25,70.33,1.29,3.95,1.36,8.23,3,11.95,5.7,12.94,10.21,26.35,16.69,39,7.83,15.31,15.45,30.8,25.64,44.57,10.79,14.57,21.5,29.33,34.72,42,10.26,9.85,19.82,20.44,31.08,29.21,1.47,1.15,3.61,4.46,4.85-.24,2.44-9.23,6.56-17.86,9.13-27.08,3.57-12.82,8.06-25.39,12.46-38,1.14-3.26.65-5.24-2.17-7-8.35-5.32-14.67-12.82-20.85-20.33-2.44-3-3.87-6.69-5.07-10.6-3-9.63-2.11-19.38-2.29-29.12-.2-10.61-.55-21.16-3-31.62-2-8.73-5.34-17-7.68-25.57-3.92-14.29-7.23-28.77-10.22-43.29-2.6-12.59-4.64-25.32-6.53-38-2.69-18.23-1.66-36.7-3.25-55-1.79-20.84-.09-41.85,1.63-62.73a51.82,51.82,0,0,1,1.52-9.8c3.19-11.09,6.62-22.11,10-33.14,2.35-7.73,4-15.76,7.79-22.93,5.52-10.52,10.1-21.55,16.8-31.46,4.17-6.16,7.65-12.84,12.14-18.75A300.52,300.52,0,0,1,218.83,120c9.08-8.16,17.85-16.83,28.79-22.68C249.38,96.39,250.58,95.16,249.59,92.45ZM791,376.4c0-4.17.06-8.33,0-12.5,0-1.31-.39-2.87-1.62-3.41-1.52-.67-2.32,1.07-3.22,1.87-1.19,1.07-1.71,3.06-3,3.81-9,5.25-18.87,8.51-28.35,12.68-.62.27-1.64-.14-2.4-.43-1.33-.5-2.53.3-3.6.33-3.84.12-7.18,2.08-11,2.27-4,.2-8.31-.77-12.11,1.28-2.07,1.12-4,.62-6.14.68-3.22.09-8.69-.36-9.37.92-2.9,5.44-6.29,2.55-9.73,1.82-1.11-.24-3-1.77-3.23.34-.31,3-2.24,5.13-3,7.83-4,13.71-8.43,27.32-14.93,40.06-7.37,14.42-12.61,29.51-17.09,45-4.53,15.72-5.11,31.65-5.23,47.75a213.53,213.53,0,0,1-1,23.34c-.89,7.51-2.68,14.9-6.64,21.6-3.42,5.8-8.6,9.61-14,13.2-4,2.65-7.8,5.08-6.6,10.94.55,2.68-1.28,4-3.62,2.63-3.94-2.22-7.88,2.09-11.78-.38-.67-.43-1.66,1-1.9,2a27,27,0,0,0-1.19,6.33c0,8.7-2.5,17-4.57,25.24-1.07,4.23.24,4.67,3.22,5.64,22.16,7.25,44.35,14.43,66.39,22,4.36,1.5,7.23.78,10.06-2.35,1.12-1.23,2.43-2.3,3.51-3.56,11.75-13.64,25-25.88,35.34-40.88,7.69-11.17,16.67-21.52,23.2-33.45,7.15-13.06,14.34-26.11,20.17-39.88,3.64-8.61,7.25-17.18,10.31-26,6-17.44,9.52-35.4,12.35-53.56,1.92-12.38.59-24.86,1.62-37.29C793,407,791.71,391.69,791,376.4ZM365.67,83.07c4.28,0,8.6.32,12.85-.09,4.63-.45,5.92,1.14,5.8,5.74-.29,11.71,2,14.62,12.75,18.13,2.68.87,9.24,11,8.88,13.69a4.37,4.37,0,0,1-1.56,2.43c-2.58,2.66-1.77,4.29,1.64,5.16,1.61.41,3.13,1.12,4.72,1.64,2,.64,2.47,2.49,1.16,3.4-4.27,3-1.43,7.43-2.71,11a3.25,3.25,0,0,0,2,4.11,4.49,4.49,0,0,1,2.28,6.64c-2.87,4.71-1.42,10.2-1,14.25,1,9.37-2.34,18.66.75,28,1.58,4.78.06,10.49.9,15.62.65,3.87-.05,8.43,3.78,11.45,1,.81.47,2.29-.76,2.89a2.11,2.11,0,0,0-1,3.32c1.76,2.35,3.5,5.16,5.95,6.46,4,2.15,4.6,6.45,7.11,9.47a2,2,0,0,1-1.14,2.86c-1,.36-2.22.13-2.46-1-.8-3.75-3.93-3.18-7-4.39,1,1.47,1.51,2.34,2.15,3,3.64,3.93-.25,10.07,4.08,13.78-2.24,4.43.59,7.1,2.56,10.79,1.7,3.17,2.15,7.62,3.4,11.44.2.61-.29,1.73,1,1.75a21.24,21.24,0,0,0,18.07-9.06c3-4.35,4-5,6.59.66-.37-8,5.18-10.59,10.15-13.26,5.41-2.91,11.34-4.91,15-10.67-1.19-.41-2.26-.82-3.35-1.14-2.95-.87-2.39-2.81-.63-3.88,5.9-3.58,12.3-6.24,18.18-10,2.93-1.87,5.15-3.32,5-7a7.73,7.73,0,0,1,4.81-7.94,10.27,10.27,0,0,0,4.75-3.26c3.36-4.85,10.37-7.16,10.16-14.53,0-.81,1-1.18,1.79-1.49,2.57-.93,5.08-2.06,8.08-.88a4.82,4.82,0,0,1-.08-6.53,89.52,89.52,0,0,1,12-12.31,103.18,103.18,0,0,0,9-9.48c-7.15,0-13.34-.14-19.53,0-23.28.64-46.5-.77-69.74-1.75a10.9,10.9,0,0,1-5.17-1.63c-2.54-1.49-2.59-4.33-2.29-6.59.33-2.43,2.73-.87,4.22-.93,2.59-.11,5.19,0,8,0-2.72,4.9-2.16,6.46,1.87,6.93A393.17,393.17,0,0,0,517,172.26c5.22,0,10.43.47,15.65.69,8.69.35,17.41.61,25.91-1.44,1.87-.45,4.73-.93,5.14-4,.14-1.06,1.44-2.12,2.14-1.47,2.58,2.41,6.14.88,8.86,2.61,4,2.59,10.44,1,12.52,7.12,5.14-.77,4.91,3.74,6.35,6.55.36.72.35,1.72,1.27,2,6.36,1.72,3.82,7.44,4.73,11.37.37,1.6,2,5.31-1.11,6.16-4.31,1.21-1.21,4.43-.9,4.51,3.81,1,2,4.26,2.45,6.53,6.92-2.76,6.92-2.76,6.92,4.69q0,6.3,0,12.61c4.82-9.41,4.82-9.41,10.57-10.54.58,1.75-.21,3.4-.91,4.75-3.32,6.37-4.75,12.49.53,18.64,1.6,1.86.82,3.45-1.29,4.86-5.26,3.51-5.31,3.58-7.77-1.91-.32-.71-.94-.86-2-.42.49,5.23.06,10.26-7.5,11,0-8.54,0-17,0-25.48,0-1.43.75-3.35-.83-4.17-4.66-2.43-3.57-6.2-2.34-9.79a6.43,6.43,0,0,0-.84-6.07,5.65,5.65,0,0,0-.49.91c-1.2,4.13.09,10.55-8,8.19a2.16,2.16,0,0,0-2,3.59c1.32,1.89.79,3.5-1.2,3.72-2.71.29-2.34,1.95-2.8,3.74-1.16,4.44-3.07,8.13-8.74,8.27-2.23.06-4.79,2-4.14,4.63,1.39,5.53-.84,10.87-.16,16.32.86,6.88-5.29,15.55-12.45,18-3.05,1.06-5.23.56-7.4-2.07-2.74-3.33-1.49-7.26-2.3-11.11-3.55,6.4-4.61,9.48-3.28,11.71s3.43,4.34.49,6.37c-2.16,1.5-3.23,7-7.61,2.79-.21-.2-.93.05-1.37.21-5.44,1.94-7.65,5.83-6.53,11.69.34,1.78,1.29,3.55-1.64,5.2-.56-3.09-1.11-5.94-1.59-8.79-.33-1.94-1-3.67-3.24-3.83s-4.05,1.09-4.13,3.33c-.15,4-5.5,4.9-5.17,9.13.05.69-.88.65-1.56.3-3.52-1.83-4.34-1.63-5.72,2.1a11.92,11.92,0,0,1-4.39,5.9c-4.91,3.37-8.49,7.91-11.55,12.91-2.88,4.68-4.15,10.23-9.42,13.59-3.26,2.07.89,4.56,1.81,6.49.84,1.77,2.71.18,3.64-1.44,1.4-2.42,2.7-5.66,5.5-6,4.87-.62,8.92-3.85,14.34-3.33,2.41.24,4.94,2.45,5.88,1.65,3.92-3.37,4.05.84,5.56,2.62.2-3.35.35-3.45-2.91-8.38-1.07-1.61-1.27-2.92.09-3.8,1.55-1,3.77-.33,4.09,1.37.74,4,4.57,2.71,6.52,4.46,3.7,3.33,4.33-1.63,6.52-2.38.44-.14.74-.79,1.16-.86,4-.7,2.93-2.7,1.86-5.4-4.13-10.44-2-22.27,7.89-29.3a7.51,7.51,0,0,1,4.63-1.31c2.68-.05,2.41,1.82,2.28,3.42s1,4.42-1.88,4.22c-4.49-.32-6.22,2.27-7.66,5.69a14.42,14.42,0,0,0-.87,10.18c.38,1.2.49,3.12,3,2.06,4.75-2,8.47-7.07,8.29-12.41-.25-7.54,2.94-13.47,8.06-18.6,3.84-3.85,7.89-3.65,11.48.38.8.9,1.12,2.88,2.82,2.21,1.53-.6.89-2.34.88-3.58,0-3.63-.48-7.4,4.91-7.89,0,.91,0,1.73.13,2.55.2,1.43-.74,3.48.63,4.17,1.84.92,2.71-1.41,3.91-2.37,3.07-2.46,3.76-6.61,6.3-9.46,2.94-3.3,5.57-7.23,11.19-4.2,2,1,4,.44,4.11-2.93.1-4.26,4.32-4.66,7.13-6,2.33-1.12,3.46,1,4.2,2.95.67,1.77,1.38,1.41,2.95.63a93.76,93.76,0,0,1,13.78-5.89c6.74-2.13,13.65-4.89,20.52-5,4.82-.08,7.5-3.77,12.06-3.67-12.33-39.67-34.17-72.81-64.67-100.42a11.24,11.24,0,0,0-.38,4.24c.55,11.25-.31,8.65,9.23,8.9,1.83.05,3.66-.6,4.33,2.61-51.24-.06-102.28.71-153.17-3.94,1.46-1.61,4-1.19,3.43-4.45-.45-2.51.4-5.23.35-7.85-.36-20.31.61-40.6.81-60.91,0-3.16,1.08-4.09,4-3.86,2.72.21,5.48.05,8.22.05C456.5,77.61,390.58,75.07,365.67,83.07ZM188.48,518.93c0,8.67-.31,17.35.09,26s2.2,17.13,9.29,23.3c1,.89,1.17,3.69,2.88,2.55a5.37,5.37,0,0,0,1.88-6.21,16.24,16.24,0,0,0-2.19-3.29c-3.64-5.51-7.61-11-8.37-17.72-.74-6.45.69-12.86,1.47-19.29,1.34-11,4.14-21.73,4.39-32.88.09-4.26-3-7.51-2.75-11.46.27-5.05-2.12-9.22-4.51-12.95-6-9.29-12.34-18.2-17.56-28.06a340.83,340.83,0,0,1-17.45-39.25c-1.9-5-2-10.45-4.42-15.21-.67-1.3-1.92-2.88,0-3.89s2.56.94,3.32,2.14c4.35,6.94,6.21,14.95,9.27,22.42,3.63,8.86,7.56,17.64,12,26,5.12,9.78,12,18.66,18.47,27.71,6.63,9.3,14.27,18.09,15.43,30.06.93,9.6,1.36,19.42-2.59,28.42-3.79,8.67-4.75,17.18-1.93,26.12.55,1.75.82,4.75,3.29,4.14,1.79-.45,1.89-3.28,1.84-5.29a16.07,16.07,0,0,0-.75-2.36c-1.07-5.27-1.42-10.65.66-15.65,3.2-7.7,4.58-15.83,5.7-23.92,2.36-17.22-4.76-31.64-14.74-45A228.76,228.76,0,0,1,180.9,422c-3.29-6.46-5.87-13.29-8.63-20-4.5-11-8.79-22.09-11.11-33.71A265.88,265.88,0,0,1,156.1,323c-.54-20.72-.5-41.48,4.85-61.77,1.38-5.25,2.59-10.57,4.37-15.69,2.61-7.46,6.11-14.64,8.43-22.18,3.6-11.65,9.92-21.88,16.31-32,9.54-15.07,20.2-29.37,33.46-41.51,7.31-6.69,14-14.19,21.91-20,17.82-13.16,35.46-26.69,56.05-35.58,9.69-4.18,18.58-10.1,29.1-12.53,15.68-3.63,30.58-10.47,47-11,6.77-.23,13.33-2.72,20.16-2.62,21.39.29,42.9-1.66,64.07,3.31,2.88.68,5.94-.22,8.92.62,8.1,2.3,16.35,4.13,24.36,6.68,11.14,3.55,22.59,5.94,33.17,11.46,14.64,7.64,29.87,14,43.29,24,12.72,9.48,25.18,19.11,36.77,30,13.12,12.31,24,26.39,34.66,40.74,8.36,11.31,14.56,23.9,20.06,36.87,3.6,8.51,7.2,17,9.77,25.87.43,1.49,1.41.56,2.13.79,3.56,1.12,6.89-1.34,10.27-.48,3.14.8,3.33-.36,3-3-.94-6.58-3.63-12.71-6-18.71-6.64-17.06-15.83-32.92-25.87-48.24-6.46-9.87-14.39-18.54-21.93-27.57-12.7-15.22-27.77-27.76-42.84-40.37-9.8-8.2-20.85-14.53-31.81-20.94C548.65,82.63,537.23,76.36,525,72.3c-16.08-5.36-32.13-10.84-49-14a383,383,0,0,0-40.85-4.9,189.1,189.1,0,0,0-39.73,1.13c-15.37,2.07-30.79,3.28-46,6.61-13.69,3-26.73,7.52-39.62,12.67-7.52,3-14.54,7.14-21.83,10.64-17.7,8.48-34.48,18.43-49.52,31A287.18,287.18,0,0,0,199,155.25c-9.35,11.56-18.82,23-26.17,36.06-4.53,8.09-9.45,16-13.2,24.44-4,9.05-7.06,18.47-10.4,27.78a151.51,151.51,0,0,0-8.86,48c-.55,26.21-1.73,52.5,1.38,78.74A153.78,153.78,0,0,0,151,408.53c3.84,9.79,7.36,19.73,12.48,29.07,6,11,10.42,22.89,16.33,34,5.46,10.24,10.41,20.24,8.78,32.39C187.93,508.86,188.48,513.93,188.48,518.93Zm-8.84,142.78c-.43,3.67,2,7.32-2,9.59s-2.45,4.23.29,6.59c6.93,5.93,14.89,10.33,22.26,15.61a266.74,266.74,0,0,0,41.74,24.71c7.18,3.39,14.56,6.42,21.61,10C273,733,283,736.25,292.88,740c8.21,3.11,16.79,5,25.09,7.72A122.45,122.45,0,0,0,338.58,753c2.64.38,6.15.95,7.23-2.63,1-3.2-.67-5.78-3.56-7.52-4.89-2.94-10.33-4.39-15.83-5.57-7.75-1.66-10.69-4.88-11.39-12.65-.81-9-3.95-17.32-6.87-25.75-2.63-7.63-6.08-15-8.49-22.63-1.77-5.61-4.44-8.56-10.09-9.16-15.8-1.66-31.57-3.52-47.08-7.1-2.13-.5-3.09,1.29-4.95,2.1a10.13,10.13,0,0,0-.18-2.17c-.88-2.75-3.78-2.82-5.75-4.11-1-.62-1.16.58-1.47,1.38s.58,2.73-1.52,2.35c-1.39-.25-2-1.1-2.49-2.64a33.38,33.38,0,0,0-5.25-11.31c-6.3-8.52-12-17.33-11.91-29.09.14-14.78,1.61-11-11.65-16.71a5.82,5.82,0,0,0-1.12-.19c-.17,1.32.14,3-.57,3.85-2.53,3-2.17,5.6-.52,8.85s1,6.66-2.73,8.36c-6.16,2.84-6.78,9.15-8.09,14.3-1,4.08-1.5,8.55-2.4,12.82-.38,1.83-.67,3,1.29,4.57,2.45,2,5,5,5.5,7.92s-2.39,5.83-2.51,9.2c-.05,1.37-1.16,2.77-2.69,2.18-1.82-.71-1-2.41-.13-3.27,1.37-1.32,1.65-2.18-.45-2.53S181.61,663,179.64,661.71ZM363.4,648.94l-1.21.32c-1.16,3.44-3.14,6.85-3.27,10.33a14.08,14.08,0,0,1-3.08,9.06c-1.35,1.66-1.22,4.07-1.85,6.09-1.55,5,1.17,9.16,1.86,13.71,1.36,8.88,4.93,16.73,9.82,24.06,3.11,4.67,5.85,4.8,10.88,2.42,3.34-1.58,6.79-4.23,10.7-3.32,7.9,1.83,15.17,6,23.39,6.81.28,0,.54.38.76.63,4.71,5.22,9.71,4.57,14.84.71,4.75-3.56,9.42-3.34,14.24-.06,3.48,2.36,7.44,2.76,10.71.07a14.43,14.43,0,0,1,9.62-3.25,12.78,12.78,0,0,0,6.08-1.94c7-3.83,11.56-10.27,17.3-15.44,2-1.8,4.62-2.91,6.22-1.43,3.84,3.55,5.37.06,6.54-2a20.86,20.86,0,0,0,2.88-13.87c-.75-4.56-3.48-7-8.26-7-2.17,0-4.33,0-6.5,0-1.53,0-3.35-.32-3.64-1.77a3.57,3.57,0,0,1,2-3.65c8.76-4.71,17.74-8.79,27.64-10.54,10.25-1.83,20.58-.47,30.86-.9,2.27-.1,4.64.23,6.2-1.86-7.64-6.12-17.11-4-25.67-5.72-2-.41-4.37,1.75-5.32-2-.22-.85-2-1.26-2.65-.62-2.59,2.46-5.19,1-7.38-.14-8-4.26-17.18-2.56-25.48-5.23a3.59,3.59,0,0,0-1.88.23c-4.76,1.38-9.46,2.88-14.4.45-1.23-.61-3.07-1.76-4.22-.68-2.27,2.12-4.32.9-6.46.22-6.17-2-12-5.06-18.8-.75-2.14,1.36-3.14,1.9-3.12,4.3.06,8.25,4.14,15.23,7,22.59,2.38,6.13,1.7,8.32-4,11.53-9.47,5.29-14.33,3.79-16.75-5.21a19.31,19.31,0,0,1-.37-3c-1-9.8-.89-19.49,2.9-28.79a54.13,54.13,0,0,1-6.37-1.68,4.6,4.6,0,0,0-5.36,1c-2,1.7-.3,3-.06,4.43,1.92,11.54,2.94,23-1.9,34.18-1.66,3.83-4.41,4.92-6.69,2-6.37-8-10.55-16.89-8.57-27.56a55.91,55.91,0,0,0,1.18-11c-7.66,3.52-16.51-.34-23.56,4.79.9.74,2.44,3.09.05,4C366.94,654.81,364.35,652.74,363.4,648.94ZM517,448.86c.31,2.46-.88,4.83-.14,7.28a1.74,1.74,0,0,1-2.16,2.06c-4.78-.92-5.87,2.41-7,5.83-.9,2.68-2.08,5.27-2.93,8-1.64,5.23-4.67,10.59-4.37,15.73.64,10.68-6.25,17.77-10.11,26.32-1.91,4.25-7.18,6.36-7.73,11.09-.45,3.92.29,7.78-4.7,9.3-.53.16-.95,2.23-.66,3.2a7.51,7.51,0,0,1-1.27,6.59c-1.68,2.54-.76,3.54,2,3.75a13.8,13.8,0,0,0,5.41-.61q8-2.54,16.08-4.88A203.46,203.46,0,0,0,533,529.55c2.12-1,2.39-1.76,2.19-3.86-.44-4.67,1.46-6.69,5.19-4.6,5,2.81,8.28.1,12.22-1.48,1.84-.74,3-1.4,2.64-3.87-.44-2.94-2.48-1.76-3.75-1.69-9.16.5-18.23-1.09-27.37-1.1-3.89,0-7.78-.86-11.67-1.32.05-.44.1-.88.14-1.32,13.87,1.41,27.77,1.15,41.66,1.22,2.66,0,5.18-.2,5.94,3.74,1.71-5,9.56-7.48,4.3-14.45-1-1.27-.21-3.89-.15-5.88,0-1.24.49-2.46,1.94-2.45,1.72,0,1.35,1.51,1.51,2.6.33,2.12-.89,4.65,1.84,6.63a65.9,65.9,0,0,0,3.11-6.25c.46-1.21.17-2.76,1.92-3.06s.73,2.4,2.38,2.48c1.89-1.87,1.1-5.22,3.53-6.69,1.75.26,1.27,3.52,2.34,2.65,2.93-2.33,7-3.15,9.92-6.62-2.64-.54-3.92,2.46-4.76,1.31-2.65-3.61-3.25.34-4.5,1.17-1.73-1.73.15-3,.07-4.32a3,3,0,0,0-.89-1.65c-.16-.17-1,0-1.21.24-.88.91-.62,3.58-2.87,2.23-1.52-.91-.54-2.71-.38-4.16a11.15,11.15,0,0,0,0-3.46c-.36-1.68-.22-3.08,1.54-3.68,2.29-.78,4.76-.84,6.63.82a2.94,2.94,0,0,1,.23,4.44c-.79.91-1.89,2.31-.18,3.37a3.54,3.54,0,0,0,4.57-.19c1.51-1.28,1.37-2.45.44-3.87s-1.74-2.71-2.61-4.06c3.63,1.58,6.7-.58,10.73-1.86l-4.12,6.71c2.88,1.7,4.95.59,6.88-1.21,3.53-3.27,6.74-7,10.69-9.64,3.4-2.27,3.8-8.42,9.63-7.41.1,0,.31-.54.46-.84,1.12-2.31,5-3.85,2-7.37-.23-.28.34-1.66.89-2.12,2.9-2.46,3-6,.62-7.75-2.76-1.95-3.37-7-5.47-6.62-4.09.79-3.8-2.33-4.45-3.77-2.06-4.54-7.58-4.76-10-8.71-.56-.9-2,.06-3.09.67-1.33.76-1.92,2.63-3.85,2.76-1.14-2.21,2-4.88-2-6.88s-5.12.94-7.16,2.14c-16.6,9.79-33.41,19.19-50.7,27.74-3.13,1.55-5.4,2.75-8.49-.66-2.39-2.63-5.37-4.92-8-7.49-5.1-5.07-5-5.11-8.35.75-.64,1.12-2,1.93-2.36,3.09-.55,1.76-2.49,3.57-.81,5.52S515.07,448.72,517,448.86Zm117,247.75a14,14,0,0,0-1.43-1.05c-5.08-2.68-12-1.79-15.32-8-.45-.82-2.1-.94-3.13.11-.69.69-1.16.61-2,0a97.94,97.94,0,0,0-16.78-10.51c-2.81-1.38-7.15-1.37-8.59-3.48-3.52-5.2-8-5.06-13.18-4.89-4.14.13-7.52,2.37-11.54,2.85-8.31,1-16.62.41-24.92.58-2.66.05-5.53.43-6.51,2.84-3.77,9.32-9.53,17.7-12.22,27.57-1.55,5.65-1.82,11.38-2.86,17-1.92,10.37-9.76,17-17.06,23.71-1.23,1.13-2.56,2.09-3.26,3.63s-2.47,3.1-1.51,4.92c1,2,3.38,1.45,5,1.13,6.16-1.21,12.4-2.28,18.33-4.25,9.42-3.14,19.09-5.36,28.5-8.61,10.13-3.5,19.94-7.72,29.81-11.83,7.73-3.22,15.19-7.11,22.74-10.73C610.65,711.56,622.82,705.12,634.05,696.61Zm-3-335.76c2.48.94,5,2.8,6.51,1.75,3.59-2.45,6.65-.65,9.28.77,4.54,2.45,8.82-.58,13.28.06,1.28.19,3.54-.82,5.37-.18,2.1.74,3.07.4,3.09-2.07.1-9.15,3.52-17.81,3.8-27,.48-16,1.29-31.88-1.24-47.76-.41-2.59-1.7-3.16-3.7-2.56-5.47,1.64-10.77,4.18-16.35,5.07-6.15,1-10.82,4.85-16.46,6.66-2.92,1-5.89,1.8-8.74,2.92-5.23,2.06-9.69,5.39-14.22,8.65-7,5-15.78,7.85-19.86,16.42-.5,1-1.79.75-2.56,1.22-3.88,2.37-7.18,5.34-9.1,9.64,15.37-6.06,29.15-14.79,43-23.47a129.35,129.35,0,0,1-14.32,11.49C597.83,330,586.5,336.93,575,343.63c-1.18.69-3.18,1-2.75,3,.37,1.76,2.27,1.73,3.6,2.3a4.93,4.93,0,0,0,4.32-.36c13.81-6.92,27.59-13.88,39.94-23.31a12.67,12.67,0,0,1,6.61-3.21c-12.94,12-27,20.28-40.81,29.63,1.55.84,3,1.13,3.17,1.79,1.52,5,4.34,2.44,6.64,1.12,7.9-4.55,15.67-9.31,23.19-14.5,4.3-3,7.73-7.24,12.94-8.9-10,10.57-21.7,19.13-33.7,27.25,2.41,3.21,6.22.11,6.6.74,2.91,4.85,4.57.25,6.3-.71,8-4.48,15.08-10.41,22.43-16-4.6,7.83-13,12.05-19.11,20,7.56-2.18,14.79-1.65,20.22-6.87Zm-186.71,37.8c-2-2.72-1-6.1-2.59-8.47-5.43,3.87-5.9,10.69-9.11,16-2.28,3.76-6.35,8.82-2.42,14.56.73,1.07,0,4-2.85,2.8-2-.86-3-.09-3.16,1.67a32.56,32.56,0,0,1-4.1,12.62c-.41.75-1.09,1.92.13,2.64.86.51,1.36-.35,2.06-.78,2.24-1.39,3.35-.64,3.2,2.05-.23,4.42,1.12,7.78,5.75,9.39,1.73.6.92,3,0,3-3.25-.08-4.15,1.35-3.51,4.13.51,2.22-.24,5.55,1.71,6.45,3.72,1.71,2.74,3.87,1.83,6.45s.41,5.42,2.16,5.31c4.3-.26,3.83,1.87,3.43,4.56-.23,1.53,1,1.91,2.06,2.39s2.63.75,2.92,2.39c.4,2.35,1.81,2.7,3.58,1.53s4.45-2.35,2.6-4.9c-2.26-3.13-.83-5.23,1-7.46,3.87-4.62,9.59-7.26,13.21-12.17.43-.58,1.14-1.5,2-.76s.54,1.93-.16,2.63c-1.53,1.52-3.17,2.9-2.59,5.43,2.29.68,2.72-2.87,5.23-2,2.76,1,4.55-1.18,5.25-3.28,1.28-3.86,2.94-7.57,2.91-12,0-3-1.6-7.09,2.44-9.5,1-.6.16-1.09-1-1.61-2.3-1-1.72-8.19.54-9.33,4.1-2.07,7-5.42,7.1-9.87.09-5,3-9,3.87-13.8.59-3.25.39-5-1.46-7.38-5.95-7.51-12.28-14.7-17.49-22.84-3-4.61-1-6,2.62-7.72,1.33-.65,3.9-.52,3.52-2.83-.85-5.2,1.75-10.06,1.25-15.12-.23-2.24-1.51-4.93-3.62-5.72-3-1.12-2.49,2.29-3.36,3.79-.66,1.13-1,2.29-2.32,3.06-5.44,3.22-8.28,9.07-12.91,13.26-3.3,3-3.94,9.09-5.35,13.93C447.08,386.92,445,392.53,444.29,398.65Zm149.5-300.9a13.67,13.67,0,0,0,4.39,5.45,240.93,240.93,0,0,1,24.2,20.7C633,134.61,644,145.12,653.3,157a222.68,222.68,0,0,1,21.11,31.72c4.3,8,9.2,15.8,12.06,24.29,3.47,10.32,6.82,20.68,10.38,31,.81,2.35,2.64,3.32,3.95,2.45,3.34-2.22,6-.27,9,.42,6.37,1.5,13.29-.26,19.36,3.2a1,1,0,0,0,1-.12c2.48-2.65,4.95-.65,7.34.08,6.06,1.83,12.07,3.8,18.67,5.89-6.15-14.61-14.19-27.06-22.23-39.51-.56-.86-1.12-2.63-2.42-2.07-2.43,1.05-2.88.31-2-1.78.68-1.65-.51-2.42-1.11-3.54-3.29-6.16-8.6-10.78-12.72-16.32-8.87-11.92-20-22.18-30.85-32.17C671.18,148.07,657.91,135,642,125.24c-12.25-7.55-23.74-16.35-36.54-23C602,100.44,598.91,97.25,593.79,97.75ZM775,321.32c-.41-6.72-2-10.74-8.08-17-3.77-3.89-7.78-8.8-12.56-10.15-7.08-2-12.1-7.56-19.36-9.1-2.41-.51-3.53,1.67-5.81.53a47.74,47.74,0,0,0-22-4.6c-2.43,0-2.92.37-2.46,2.67a153.14,153.14,0,0,1,2.68,21.17,206.21,206.21,0,0,1-.1,30.34,147.83,147.83,0,0,1-2.79,19.17c-.32,1.44.22,4.74,1.56,3.48,4-3.74,11,.65,13.61-5.75.53-1.31,2.23-1,2.94.05,1.09,1.53,2.46,1,3.55.64,5.64-1.89,10.88-4.27,17.19-4.86,8.26-.79,15-6.95,21.69-11.63C769.74,332.93,775.54,328.84,775,321.32ZM238.21,500.64c-1.16-.89-1.24-1.78-.78-2.48,2-3.11-.71-4.45-2.23-6.24-.67-.79-2-1.6-2.57-1a9.39,9.39,0,0,0-2.09,6,14.18,14.18,0,0,0,.51,3.44c.26,1.35.52,2.79-1.07,3.42-3.7,1.48-3.37,4.52-3.83,7.73-.4,2.79.22,6.13-1.3,8.35-3.18,4.67-3.34,12.64-.15,17.63A64.52,64.52,0,0,0,243,555.94c4.07,2.79,7.31,6.8,12.12,8.46,1.78.61,4.56,1.7,5-1,.48-3.1,1.45-6.79-1-9.56-1.66-1.91-.92-2.83.12-4.62,2.78-4.8,6-9.44,7.6-14.87.62-2-.6-4.13.9-6.23,3.62-5.08,3.18-8.44-1.76-11.67a230,230,0,0,1-21.41-16C242.49,498.82,240.17,496.55,238.21,500.64Zm247.68,54.6c-3.24-.2-4.35.81-4.66,4.2-.11,1.32,4.22,5.51,5.69,5.53,5.1.07,9.58-2.57,14.48-3.3,18.75-2.78,37.34-3,55.59,3.18,3.59,1.22,7.32,2,11,3,1.6.42,3,.43,3.21-1.79.16-1.54,1.49-3.4-1.12-4-6.9-1.74-7.82-8-9.82-13.26-2.34-6.06-.39-12.8-2.3-19.08-.75-2.48-1.06-3.47-3.86-1.84-9,5.21-18.27,9.88-27.72,14.19-12.3,5.62-26.15,6.82-38.11,13.4A2.44,2.44,0,0,1,485.89,555.24ZM318.53,629.48c.34-.32,1-.7,1-1-1-5.6,3.15-9.21,5.31-13.52a5,5,0,0,1,5.67-3c3.67.66,4.6-3.65,7.33-5,.65-.32-.3-2.11-1.81-2.09-9.75.14-19.61-1-29.13,2.18-3.12,1-4.77,3-3.16,6.43,2.9,6.18,2.91,6.16-3.83,6.39-8.87.3-17.65,10.12-12.94,20.12,3.73,7.91,9.58,13.7,18.18,16.42,4.63,1.47,7.84-.74,7.11-5.62-1.13-7.65,0-14.94,2.48-22.13.54-1.58.79-3.45,2.73-4.16C318.51,626.23,316.72,628.14,318.53,629.48ZM696.72,316A133.92,133.92,0,0,0,695,283.29c-.24-1.43-.21-4.24-2.45-2.9-1.93,1.16-3.24.75-5,.48-4.24-.64-7.91,1.67-7.46,4.57.59,3.92,1.6,7.78,2,11.7a137.54,137.54,0,0,1,1.11,16.33c-.13,13.75-2.72,27.3-4,41-.06.71-1.19,2.62,1.05,2.32,3.19-.43,5.94,1,8.57,2.19,3.92,1.79,4.94.19,5.21-3.32C695.15,342.25,698.34,329,696.72,316ZM628,557.53c4.79-6.67,6.26-14.12,5.25-22.32a77.73,77.73,0,0,1,.34-21.86c.26-1.63.45-3.85,2.44-3.77,2.33.09,1.65,2.45,1.74,4,.46,7.94,1.54,15.92,1.09,23.81-.42,7.41,1.2,15.44-4.31,22-2.22,2.65,0,6.06-1,9.08-.42,1.23,1.13,1.42,2,.57a18.45,18.45,0,0,0,2.76-3.48c4.24-7.2,5.41-15.25,5.91-23.35.66-10.76.26-21.58.5-32.35.15-6.42,5.91-12.38,1.49-19-.16-.24.17-1,.49-1.32,4.28-3.95,5.22-9.17,5.92-14.56-4.63.5-6,3.23-5.58,7.21.17,1.55.37,3.19-1.47,3.74s-2.17-.91-2.56-2.27-1.28-1.52-2.13-.44c-4.19,5.28-8.27,11-9.48,17.5-2.12,11.34-4.53,22.78-3.57,34.5A21.14,21.14,0,0,1,626.22,546C624.25,550.14,623.5,554,628,557.53Zm12.19-144.19c1.09,1.52,0,2.54,0,3.64-.21,3.34,2.86,2.55,4.54,3.48,1.45.8,2.54.88,3.58-1a171.27,171.27,0,0,0,13.41-32.69c1.28-4.15-1.75-7.52-5.56-5.81-5,2.2-9.54-.73-14.54,0-5.37.77-9.25,3-8.56,9.15.16,1.49-.52,3.41-1.81,2.76-5-2.51-6.09,2.21-8.49,4.24-.82.7-3.76,1.65-2,3.05,1.61,1.25,1.37,3.39,3.11,4.21a1.86,1.86,0,0,0,2.83-1c.47-1,.4-2.36,1.52-2.69,3.94,2.72,5.82,6.77,7.09,10.89C636.36,414.86,637.63,415.49,640.19,413.34Zm-29.05,93c-1,1.71-1.53,3.38-2.2,3.46-5.93.7-8.46,3.78-8,9.79.13,1.78-2.07,4.37-3.4,2.15-3-5.13-3.12.18-3.82,1s-.36,2.45-1.77,3.3c-3.82,2.31-3.45,4.07.82,5.29,1.32.38,3.19.42,3.27,2.47s-1.09,2.49-2.91,2.41c-2.09-.09-1.93,1.67-1.71,2.86a1.92,1.92,0,0,0,3.06,1.28c1.46-1.47,3.57-.79,4.87-2.08,1-1,2-1.38,3-.4,1.23,1.16.52,2.32-.27,3.52-2.12,3.21-1.1,5.17,2.56,6,1.45.35,2.83,1,4.25,1.44,6.24,2,6.5,1.54,8.19-4.81,4-14.92,2.21-31,9.66-45.22a2.64,2.64,0,0,0-.92-3.56c-1.35-.81-2.49-.35-3.57.7s-1.65,2.05-2.47,3c-3.22,3.72-3.9,8.8-6.93,13.65C612.17,510.13,611.79,508.73,611.14,506.35Zm48.39-51.29c9.77-23.09,21.26-45.58,28.41-70.3-2.25,3.13-4.56,1.28-6.65.66-6.79-2-10.92.51-12.09,7.54a16.38,16.38,0,0,1-.94,3.83c-4,9.21-8.2,18.33-12,27.63-1.44,3.55-4.64,7.48-1,11.38C660.65,441.43,659.43,448.09,659.53,455.06ZM560.79,624.22l.48-.93c-1.85-.68-3.68-1.4-5.54-2-1.51-.49-2.27-1.44-1.79-3a1.93,1.93,0,0,1,2.83-1.2c2.67,1.19,6.58.36,7.46,4.6.27,1.33,1.82,1.48,2.89,1.54,1.81.09,1.25-1.64,1.49-2.6,1.5-6.08-.84-10.64-7-13.54-1.56-.73-3.25-1.3-3-3.4s1.84-2.83,3.94-2.9c7.43-.25,14.2-4.42,21.83-3.75a5,5,0,0,0,3.17-1.26c1-.8,2-2,1.23-3.45-.68-1.24-2-.83-3.14-.57-1.61.37-3.17,1.13-4.78,1.24-15.36,1-30.47,4.63-45.94,4.16-3.94-.12-7.67.78-12.05,1.37,4.83,6.44,9.81,11.46,17.5,13.09a73.07,73.07,0,0,1,8.52,2.79c2.52.86,5.51,1.34,3.61,5.32-.67,1.41.52,2.08,1.72,2.46C556.44,622.88,558.61,623.54,560.79,624.22ZM430.7,755.9c6,0,9.79-2.37,12.26-6.65,4.42-7.68-1.9-21.89-10.57-24.08a3.07,3.07,0,0,0-3.75,1.41c-5.47,7.63-5.93,16.16-4.27,24.89A5.18,5.18,0,0,0,430.7,755.9Zm-95.09-60c3,1.57,5.47,2,6.71,4.51a1.71,1.71,0,0,0,2.56.66,2,2,0,0,0,1.28-2.37c-.77-4.59-1.61-9.13-4.25-13.11-.54-.84-1.21-1.43-1.87-.48-1.76,2.55-3.6-.06-5.66.24a15.75,15.75,0,0,1-2.28,7.37c-4.76,9-5,18.79-4,28.63.28,3.13,1.63,6.39,5.15,6.24,3.83-.16,4.78-3.36,4.62-7C337.45,712.63,338.8,704.48,335.61,695.93Zm37.92,43.37c.08,3.94-.64,8,1.71,11.61,2.63,4.05,5.8,4.31,8.51.3,4.74-7,4.37-15.33,5.06-23.22a6.27,6.27,0,0,0-5.44-6.3c-3.13-.34-5.4,1.45-7.22,4.22C373.39,730.11,373.33,734.63,373.53,739.3ZM466,745c-1.14-5.34-2.1-10.84-3.59-16.2a5.58,5.58,0,0,0-4.06-4c-2.23-.42-3.65,1.54-4.1,2.94-1.7,5.31-4,10.55-4.16,16.21-.12,4.25,5.51,10.68,8.88,10.76C462,754.77,466.07,749.25,466,745Zm-53.47-5.64c-.78-2.9-.66-6.6-3.54-9.52-3.34-3.38-4.89-3.55-7.78.15-5,6.43-5,17.25-.06,23.57,1.42,1.81,3.16,3.25,5.48,2.78s3.65-2.55,4.1-4.65C411.6,747.82,412,743.84,412.57,739.36Zm-49.63-5.5c-.95-6.2-.91-13-3.81-19.34-.47-1-.42-2.51-1.75-2.8-1.53-.34-2.3,1-3.15,2-1.27,1.48-1.29,3.27-1.47,5.12-.89,9,1.23,17.68,3.2,26.37.35,1.56-.17,3.63,2.34,3.51a3.65,3.65,0,0,0,3.52-3.57C362.26,741.57,362.54,738,362.94,733.86ZM174.23,549c-1.87,15.84,8.6,25.33,20.34,34.09.84.63,1.7,1.19,2.55.11a1.94,1.94,0,0,0-.15-2.72c-1.87-1.88-3.95-3.56-5.75-5.49-5.31-5.7-9.5-11.94-10.29-20.07-.48-5.08-1.58-10.11-2.44-15.15-.24-1.38-.88-2.79-2.44-2.67s-1.75,1.79-1.79,3.09C174.17,542.79,174.23,545.46,174.23,549Zm310,176c0-3.66,0-7.32,0-11,0-.82,0-1.74-1-2-.77-.21-1.13.39-1.53.93-6.74,9.19-8.73,19.38-6.53,30.47.4,2,1.9,2.66,3.6,2.88s1.84-1.29,2.55-2.41C485,738,484.19,731.42,484.19,725Zm-253.6-99c.13,5,3,9,4.67,13.51,1.21,3.25,3.76,5.72,6,8.32a3.08,3.08,0,0,0,4,.89c1.85-1,.19-2.34-.32-3.34-3.34-6.62-5.24-13.73-7.48-20.74-.46-1.44-.65-4.07-3.28-3.36A4.82,4.82,0,0,0,230.59,626ZM179.07,517.83c2.39-1.55,1.76-3.52,1.94-5.26,1.33-12.65-4.3-23.92-7.08-35.75-.25-1.08-.69-2.34-2.33-1.94-1.95.48-1.29,1.7-1.11,3.09,1.14,8.28,3.7,16.27,4.95,24.57A104.24,104.24,0,0,0,179.07,517.83ZM495,722c.26,1.88-.44,3.54,1,4.64,1,.79,1.79,0,2.61-.6a18.64,18.64,0,0,0,6-21.75,4.08,4.08,0,0,0-3.37-2.51,1.88,1.88,0,0,0-2.46,1.81C498.38,710,495.77,716,495,722ZM382.52,604.64c-1.5-2.17-3.27-3.57-5-3-8.88,3.05-18,2.15-27.12,2.38-1.19,0-3.28-.32-2.72,2.19.42,1.9,1.23,3.76,3.52,3.25,4-.91,8.34-.43,12-2.71a6.83,6.83,0,0,1,1.78-.54c1.34,4.74,4.49,1.27,6.78,1.77C376.4,609,379.26,606.77,382.52,604.64ZM613.65,397.41c7.54-5.27,15.13-10.7,21.44-18a5.66,5.66,0,0,1-6.8.59,3,3,0,0,0-3.63.6c-4.14,3.56-8.35,7-12.51,10.54-.37.32-1.28,1.19-.73,1.24C615.45,392.77,611.64,395.89,613.65,397.41ZM588.05,413c-3.68-1.94-5.79-2.24-8.73-.48-8.05,4.82-16.41,9.13-24.68,13.59-5.78,3.12-11.61,6.16-17.42,9.24C554.46,429.22,570.81,421.33,588.05,413Zm-16.62-5.56c-6.75-3.72-10.36,1.69-14.69,3.48-4.86,2-9.46,4.76-14.19,7.14-4.12,2.07-9.06,3.26-11.78,7.67ZM254.21,630.88c0,6.63,3.09,11.91,7.43,16.6.63.68,1.36,1.71,2.46,1a2,2,0,0,0,.18-3.09c-4.24-4.51-3.23-10.79-5.58-15.91-.72-1.56-.47-4.33-2.68-4.12s-1.63,2.81-1.81,4.54C254.18,630.21,254.21,630.55,254.21,630.88ZM598,611.06c-7.28,7-4.61,15.25-5.3,22.74-.11,1.16,1.1,1.58,2.12,1.72.82.11,1-.51,1.16-1.22C597.19,626.9,599.55,619.6,598,611.06ZM320.07,684.61h0c0-2.32.08-4.64,0-7-.07-1.42,0-3.24-2.18-3.16-1.54.06-3.09.66-3.3,2.44-.59,4.91-1.15,9.88,1.65,14.38.65,1.06,1.16,2.92,2.67,2.57,2-.47,1-2.48,1.13-3.82C320.19,688.26,320.07,686.43,320.07,684.61Zm-50.88-55.05c1.08,4,2.16,9,6.21,12.59.67.6.76,2.78,2.35,1.15a1.83,1.83,0,0,0-.45-3c-2.84-1.33-2.18-3.76-2.23-6,0-2,.06-4-.05-6s-.69-4.26-3.24-4.21C268.89,624.16,269.29,626.64,269.19,629.56ZM514.3,685.81c1.91-3.42,3.76-6.87,5.73-10.25,1.34-2.31,1.84-4.67-1.08-5.78-3.16-1.21-5.27,1-5.83,3.72A20.25,20.25,0,0,0,514.3,685.81Zm70.77-63.72c-.67-2,1.41-6.15-1.38-6.46-2.35-.26-4.08,3.74-5,6.6a9,9,0,0,0-.22,1.47c-.2,1.23-1.27,2.74.41,3.52s3.67,2.15,5.59,1.4c1.27-.5.51-2.38.63-3.64C585.14,624.16,585.07,623.32,585.07,622.09ZM224.61,498.38c2-1.89,1.75-4.26,2.74-6.05,2.8-5.09.73-7.58-4.5-10.32-.71-.37-1.35-1.1-2.17-.33a1.81,1.81,0,0,0-.1,2.29C222.75,488.4,223.63,493.23,224.61,498.38Zm-8.69,80.8c-.8-2.8-4.06-4.12-6.31-6.38-1.09-1.1-1.89-3.32-3.7-1.86a3.58,3.58,0,0,0-.34,5,18.24,18.24,0,0,0,8.2,6C215.66,582.56,216.08,581.48,215.92,579.18ZM615,382.39c-3.85-2.79-7.06-2.69-10.82.17-2.51,1.91-1,3.35-.48,4.92.77,2.46,2.4,1,3.57.39A22.33,22.33,0,0,0,615,382.39Zm-51.62-88.32c-.87-1.87-2.38-3.22-4.8-1.78-3.43,2-4.37,5.59-5,9.22-.14.88.2,1.6,1.35,1.52C556.48,302.93,563.48,295.91,563.41,294.07ZM526.73,411.88l.62,1.29c9.41-4.53,19.79-7,28.06-13.95l-.56-1.15Zm-325,171.06c.38,6.15,6.55,10.25,13.36,9.37C212,587.39,206.56,586.26,201.74,582.94ZM557.67,247.05c-3.48,5.83-2.5,11.27-3.4,16.3-.2,1.1,0,2.6,1.48,2.69s1.85-1.4,1.88-2.5C557.72,258.47,557.67,253.4,557.67,247.05ZM244.15,602.33c.15-3.6-.53-5.25-3-5a4.67,4.67,0,0,0-4.43,4.59c-.18,2.28,1.37,3.09,3.57,3.06C243.13,604.92,244.09,603.33,244.15,602.33ZM274.37,612c2-.74,4.27-1.37,4.06-4.12-.09-1.16-.33-3.14-2.05-2.69s-4.45.84-4.37,3.76C272.05,610.5,272.36,612,274.37,612Zm-60.66-63.76c3.33,9.05,3.33,9.05,8,8.21C219.66,553.49,217.73,550.6,213.71,548.28Zm75.35,59.08c-1.71,0-2.88.59-3,2.52-.09,1.37.21,2.34,1.83,2.22a3.32,3.32,0,0,0,3.22-3.21C291.26,607.54,290.11,607.4,289.06,607.36Zm-29.41,2.08a4.49,4.49,0,0,0,2.87-3.73c.17-1.42-1.32-1.73-2.45-1.64-2.27.16-2.39,1.88-2.24,3.6C257.92,608.72,258.36,609.57,259.65,609.44Z" transform="translate(-27.72 -44.86)"/><path d="M816.47,301.49c.38-4.08-2.33-9.24,4.6-11.71C820,294.31,819.27,298.26,816.47,301.49Z" transform="translate(-27.72 -44.86)"/><path d="M748.21,205.65c.46-3.45,4.42-7.42,7.21-7.06,1.8.23,1.36,1.56.61,2.6C754.13,203.86,751.12,204.56,748.21,205.65Z" transform="translate(-27.72 -44.86)"/><path d="M764.5,196.49c-.37,3.29-3.8,1.77-5.34,3.33-.42.42-1.16-.64-.92-1.24a6.08,6.08,0,0,1,4.52-4.05C763.81,194.33,764.47,195.33,764.5,196.49Z" transform="translate(-27.72 -44.86)"/><path d="M328.38,307.15C287.53,334,241.14,351.66,201.66,381l.94,1.56c4.7-3.15,9.25-6.56,14.13-9.4,14.39-8.35,29.8-14.62,44.94-21.4,25.56-11.46,51.39-22.35,76.09-35.81-2.18,3-5.58,4.5-8.62,6.38-22.59,14.06-46.39,25.95-69.94,38.24-16.35,8.53-32.26,17.75-48,27.21-1.5.91-3.31,1.66-4.15,4.29,45.29-25.76,95.05-41.06,139.35-67.78-5.53,6.33-13.12,9.73-20,13.9C301.72,353,276,366,250.61,379.3c-11.3,5.92-22.56,11.93-32.93,19.5,44.43-21.62,91.43-37.79,133.92-63.55-39.27,29.37-84.42,48.56-126.4,73.26,45.63-21.7,94.05-37.69,136-66.88-5,6.39-12.07,10.32-18.46,14.95-6.56,4.75-13.58,8.9-20.54,13.09-7.12,4.28-14.36,8.35-21.62,12.38s-14.29,7.76-21.48,11.57-14.45,7.45-21.63,11.26-14.8,6.64-21,12.11c44.89-20.77,92.23-36.69,132.22-67.2-38.13,34.59-84.87,55.21-129.3,79.63,46.25-21.78,95.81-37.28,135.49-72.37-.51,4.11-4,5.59-6.16,7.55-12.4,11.29-26.06,20.89-40.23,29.94-24.92,15.91-51.52,28.64-77.58,42.39a10,10,0,0,0-2.44,1.69c6-1.13,11.36-4.09,16.84-6.52,17.31-7.68,34.76-15.13,51.63-23.7,23.07-11.73,45.87-24.08,63.42-44-1.21,4.4-4.46,7.47-7.46,10.41-13.65,13.35-28.92,24.61-45.14,34.72-21.6,13.47-44.38,24.73-66.7,36.86-3,1.65-6.44,2.58-9.31,4.63-2.11,1.51-3.81.32-5.26-1.19-18.56-19.34-35.87-39.58-46.17-64.81-1-2.43-1.67-5-2.61-7.47-1.33-3.5,1.14-5.29,3.23-7.1A111.4,111.4,0,0,1,227,354.12Q260.39,338.54,294,323.4c11-5,21.85-10.2,32.5-15.88A6.82,6.82,0,0,1,328.38,307.15Z" transform="translate(-27.72 -44.86)"/><path d="M228.53,276.24a33.38,33.38,0,0,1,5.26-19.76,16.73,16.73,0,0,1,9.24-7.14c4.25-1.5,8.68,1.74,10.16,7.1,1.7,6.12.8,12.21-.2,18.28-.24,1.48-1.09,3,.09,4.25,4.32,4.65-.79,6.92-2.51,10a2.64,2.64,0,0,1-1.65.69c-2.74-4.57-4.3-.29-6.13.86-5.94,3.71-11.66,1.52-13.46-5.29A27.41,27.41,0,0,1,228.53,276.24Zm8.43-3.16c.33,1.23-.66,3.21.8,4.75.93,1,3.12,1.67,2.9.19-.55-3.64,2.25-4.81,3.69-7s1-4.46,0-6.68c-.48-1.13-1.25-2.06-2.65-1.76-2.46.52-3.24,2.63-4.13,4.6C236.82,268.89,237,270.73,237,273.08Z" transform="translate(-27.72 -44.86)"/><path d="M320.62,235.14a46.63,46.63,0,0,0,2.28-6.52c.86-4.5,5.12-4.85,8-6.73,1.46-.94,1.81.71,1.33,2-1.14,3.11-1.84,6.51-3.59,9.24-2.75,4.28-.27,7.29,1.74,10.38,1.91,2.93,4.19,5.35-.71,7.66-5.55,2.62-5.74,2.67-8.31-3-.12-.27-.45-.44-.83-.79-1.63.54-1.55,2.08-1.29,3.17,1.2,5-2.1,6.6-5.64,8.36-2.88,1.44-3.62.25-3.56-2.36.32-12.61.7-25.21.95-37.82.05-2.11,1.49-2.62,2.8-3.64,2.06-1.59,5.31-1,6.67-3.81a1.63,1.63,0,0,1,2.87-.43c1.16,1.21.68,3.14-.53,3.3-3.59.5-2.66,3-2.78,5.09-.22,4,.55,8-.7,11.9C318.92,232.51,319.34,233.8,320.62,235.14Z" transform="translate(-27.72 -44.86)"/><path d="M277.78,258.34c.63,7-.89,14.14-7.64,19.39-2.78,2.16-5.56,4.32-9.42,2.69s-3.79-4.91-3.81-8.34c0-4.12.37-8.24-.78-12.35-.73-2.64,5-7.91,7.61-7.42,1.72.33,1.26,1.73,1.28,2.77.07,3.66,0,7.32.06,11,0,1.06-.4,2.64,1.31,2.71,1.46.05,1.86-1.4,1.91-2.5a93.13,93.13,0,0,0,.13-11.45c-.34-4.27,1.92-5.87,5.5-6.95,2.94-.89,4-.07,3.87,2.94C277.68,253,277.78,255.12,277.78,258.34Z" transform="translate(-27.72 -44.86)"/><path d="M304.58,266.84c.6,2.16.67,3.83,3.65,4.15,3.45.37,4.57,4,5.51,7,2.42,7.78-1.59,20.55-8,25.82-5.11,4.2-10.46,2.84-12.29-3.5-2.47-8.52-1.46-16.71,4.14-23.85C300,273.41,303.14,270.92,304.58,266.84Zm3.94,19.28a13.56,13.56,0,0,0-.94-5.85c-1.52-3.39-4.16-2.66-5.36-.65A27.26,27.26,0,0,0,298,293.26c0,1.84.59,4.1,3,4.66s4.07-.47,5.25-2.69A20.74,20.74,0,0,0,308.52,286.12Z" transform="translate(-27.72 -44.86)"/><path d="M259.23,308.33c0-7.77,2.1-14.67,8.47-19.76,3.73-3,7.43-2.56,10.28,1.32,5.89,8.06,1.43,26.7-7.51,31.32-5.45,2.82-9.13-.16-11.19-8.4A19.13,19.13,0,0,1,259.23,308.33Zm15.89-6.63c-.23-1.7.24-3.37-.68-4.93-1.43-2.43-3.32-3.18-5.72-1.49-3.74,2.64-5.89,12-3.77,16,1.7,3.18,4.12,3.54,6.67.89C274.45,309.21,274.91,305.46,275.12,301.7Z" transform="translate(-27.72 -44.86)"/><path d="M292.91,254.94c-.68-9.31,2.18-15.58,9.17-19.72,1.68-1,3.6-2.17,5.31-.26,1.31,1.46.3,8.49-1.25,8.91-3.18.86-4.08,3-4.17,5.92,0,1.18,0,2.66,1.69,2.31,7.3-1.48,3.26,4.7,4.55,7.1.79,1.48-6.54,6.8-9.08,6.46a6.74,6.74,0,0,1-6.17-6.1A26.61,26.61,0,0,1,292.91,254.94Z" transform="translate(-27.72 -44.86)"/><path d="M320,287c0,2.59-.1,4.68,0,6.76a3.1,3.1,0,0,1-3.24,3.59c-2.22.07-1.73-2-1.74-3.37,0-8.16-.07-16.32,0-24.48,0-3.24,5.11-7.4,8.8-7.16,4.13.27,4.14,3.71,4.52,6.64.26,2,.42,4.2-.74,5.86-3.22,4.59-2.87,8.69.82,12.84,1.26,1.42,1.68,3.17-.69,4.5-2,1.12-3.39,1.08-4.44-1.12C322.75,289.78,322.74,288.07,320,287Zm0-13.73c.27,1.21-.44,3.2,1.4,3.21,2.25,0,2.16-2.14,2.07-3.74-.07-1.28.85-3.56-1.38-3.44C320.16,269.44,320.28,271.73,320,273.3Z" transform="translate(-27.72 -44.86)"/><path d="M243.37,315.63c1.19-7.6,1.45-15.67,9.45-20.1,1.38-.76,3-2,4.59-.63,1.84,1.53,1.12,3.72,1,5.62-.23,2.69-2.14,1-3.4,1.12-2.46.23-3.57,2.24-4.73,4-2.44,3.75-1.89,8-1.59,12.12.11,1.66.33,3.84,2.6,4.37,1.9.44,3-1,4.24-2.13.67-.6.53-2.19,1.93-1.84,1.63.41,1,1.88,1.05,2.94.42,4.65-2.76,7.26-6.26,8.48-3.86,1.34-5.74-2-7.3-5.15C243.52,321.64,243.38,318.72,243.37,315.63Z" transform="translate(-27.72 -44.86)"/><path d="M290.06,255.61c0,3.32-.12,6.64,0,9.95.13,2.65-.59,4.44-3.33,5.29-2,.61-3.94,2.93-5.85,1.72s-1.12-4.1-.73-6c1.22-5.94.65-11.89.81-17.83.08-3.07,4.29-7,7.37-6.94,1.85,0,1.64,1.28,1.65,2.38,0,3.82,0,7.63,0,11.44Z" transform="translate(-27.72 -44.86)"/><path d="M282,297.67c0-4,.07-8,0-12-.05-2.42.41-4.67,3.23-4.58s1.68,2.73,1.72,4.25c.16,5.66.08,11.32.08,17,0,1.62.06,3.13,2.42,2.51,1.14-.29,2.73-1.63,3.2.55.36,1.69.79,3.82-1.21,4.95a44.45,44.45,0,0,1-7.13,3.42c-2.31.82-2.28-1.08-2.28-2.61Q281.95,304.4,282,297.67Z" transform="translate(-27.72 -44.86)"/><path d="M316.44,498.64c1.38-2.45,3.76-3.64,6.24-4.43,3.3-1,7.79,1.42,8.28,4.53.64,4.05-2.23,6-5.31,7.36-2.9,1.27-5.63,0-7.83-1.87-3.56-3-6.35-2.84-9.47,1.14-.55.69-1.08,1.4-1.94,1.26a1.76,1.76,0,0,1-1.3-1.88,57.81,57.81,0,0,1,.08-7.45c.3-2.46,4.85-3.43,7.93-1.67A20.55,20.55,0,0,1,316.44,498.64Zm7.44-2.14c-1.66.59-3.62,1-3.82,3.53a3.14,3.14,0,0,0,3.18,3.6,4,4,0,0,0,4.42-3.68C327.92,497.57,325.83,497.2,323.88,496.5Z" transform="translate(-27.72 -44.86)"/><path d="M290.09,232.15a9,9,0,0,1-5.35,8.92,2.73,2.73,0,0,1-3.83-1.29c-2-3.74-.54-7,1.66-10.1,1.34-1.87,3.19-3,5.57-2.33C291,228.11,289.73,230.56,290.09,232.15Z" transform="translate(-27.72 -44.86)"/><path d="M281.33,475c5,0,7.79,2.28,7.84,6,.05,3.31-3.09,5.7-7.23,5.82s-5.45-1.7-5.07-5.69C277.19,477.76,276.26,473.89,281.33,475Zm-.35,5.72c.29,1.28-.66,3.26,1.8,3.24,2.12,0,2.88-1.75,2.84-3.31s-.86-3.33-2.95-3.26C280.28,477.42,281.3,479.43,281,480.67Z" transform="translate(-27.72 -44.86)"/><path d="M292,481.66c0-6.59,1.69-8,6.93-6.63,2.06.54,3.25,2,2.34,4-1,2.17-2.18,4,.09,6.11.57.52,0,1.28-.56,1.59-.88.47-1.56-.14-2.2-.67-1.4-1.14-2.47-3.67-4.38-.13-.81,1.49-2.35.47-2.37-1.35C291.81,483.23,292,481.91,292,481.66Z" transform="translate(-27.72 -44.86)"/><path d="M325.54,479.35c-1.56,1.89,1,6-1.82,5.87-3.17-.13-1.42-4.05-1.69-6.3-.19-1.68-.77-4,1.41-4.83s3.16,1.28,4.55,2.37c1.09.86,1.28,3.21,3.2,2.53,1.55-.55.48-2.33.78-3.52.22-.87-.26-2.22,1.29-2.11,1.15.07,1.65,1,1.59,2.12a3.5,3.5,0,0,1-.35,1.43c-1.39,2.48,1.7,6.41-1.32,7.64-3.36,1.37-3.75-3.43-6-4.83A1.86,1.86,0,0,0,325.54,479.35Z" transform="translate(-27.72 -44.86)"/><path d="M292.69,501.42c.76-1.71-1.21-4.32,1.61-5.52a7.06,7.06,0,0,1,6.63.34c.86.51,1.94,1.29,1.69,2.25-.64,2.5-4.11,4.88,0,7.39-.27.36-.46.88-.81,1-.87.39-1.57-.11-2.21-.68-1.48-1.35-3-3.87-4.24.26-.09.31-1.18.54-1.75.45-1.09-.16-.94-1.09-.9-1.93C292.73,503.87,292.69,502.71,292.69,501.42Z" transform="translate(-27.72 -44.86)"/><path d="M277.88,500.14c0-1-.06-2,0-3s.35-1.73,1.37-1.77c1.32-.06,1.62.94,1.67,2,.07,1.49,0,3,.12,4.49a2.66,2.66,0,0,0,2.57,2.61,2.49,2.49,0,0,0,2.53-3,27.34,27.34,0,0,1-.1-3c0-1.26.31-2.37,1.84-2.46,1.85-.11,2.1,1.15,2.19,2.62.24,3.7-.14,7.14-4.37,8.41C280.86,508.5,277.75,505.72,277.88,500.14Z" transform="translate(-27.72 -44.86)"/><path d="M337,480c0-5.31,3.87-8.62,7.89-7.86,1.17.22,2.49.46,2.3,2s-1.57.84-2.39.76c-3.51-.35-5.49.89-5,4.67a2.66,2.66,0,0,0,3.2,2.4c1.68-.18,2.06-.87,1.16-2.65-1-1.95.85-2.12,2.18-2s3.19.23,2.58,2.07c-1.05,3.2-3.45,5.68-6.93,5.37A5.37,5.37,0,0,1,337,480Z" transform="translate(-27.72 -44.86)"/><path d="M261.43,474.73c-.88,2.47-3.67.77-3.65,3,0,2,2.2.85,3.11,1.68,1.11,1,2.32,2.12,1.66,3.81a5.09,5.09,0,0,1-4.67,3.18c-1.46.12-3.54-.17-3.8-1.54-.58-3.06,2.89-.86,3.91-2.73-.75-2.38-7.44-2.77-3-7.53C257.63,471.79,259.25,473.75,261.43,474.73Z" transform="translate(-27.72 -44.86)"/><path d="M266.05,499.75c-.62-3.45.34-5.46,4.35-4.83,2.76.43,5.66,1,5.47,4.46-.26,4.67-5,3.5-7.68,4.63C266.74,504.61,264.76,502.28,266.05,499.75Z" transform="translate(-27.72 -44.86)"/><path d="M250.79,485.64c-5.78-.7-9.77-7.15-7.25-10.86,1.23-1.81,2.86-2.78,4.15-.45a74.52,74.52,0,0,1,4,9.45C252.16,484.92,251.47,485.59,250.79,485.64Z" transform="translate(-27.72 -44.86)"/><path d="M336.2,496.7c1.54,1.56,5.2,1.43,4.59,4.87a5.18,5.18,0,0,1-3.62,3.83c-1.44.54-3.4.83-3.8-1-.53-2.38,1.89-.85,2.79-1.49.39-.27.81-.51,1.44-.91-.88-2.5-6.55-2.07-4.18-6.31,1.33-2.37,3.41-3.52,6.22-2.08C339.81,496.2,336.94,495.07,336.2,496.7Z" transform="translate(-27.72 -44.86)"/><path d="M304.43,474.28c.62.3,1.41.44,1.77.91,1.59,2,2.9,2.33,4.56,0,.49-.7,1.92-1.72,3-.52.8.89.17,1.89-.6,2.57a8.58,8.58,0,0,0-3.14,7.47c.07.9-.28,1.69-1.36,1.57-.86-.1-1.66-.58-1.59-1.58.22-3.25-1.18-5.68-3.47-7.85C302.5,475.79,302.93,474.76,304.43,474.28Z" transform="translate(-27.72 -44.86)"/><path d="M342.74,498.29c-.11-3.08-.42-6.26,4.2-6a7.41,7.41,0,0,1,1.76.54c-2.72,1.61-.09,4.35-1.31,6.18-.55.83-1.65,1.39-.35,2.25.87.58,2.62.45,1.82,2.14-.47,1-1.78.53-2.72.56-1.37,0-2.79-.12-3.13-1.74A27.07,27.07,0,0,1,342.74,498.29Z" transform="translate(-27.72 -44.86)"/><path d="M267.68,474c1.67.29,3.52-.63,4.34,1,1,2-1.33,1.74-2.07,2.59-1.47,1.69-.48,3.81-.74,5.72-.15,1.14.06,2.6-1.49,2.71s-1.66-1.27-1.71-2.46a17.49,17.49,0,0,0-1.94-7.71C262.44,472.65,266.73,475.12,267.68,474Z" transform="translate(-27.72 -44.86)"/><path d="M319.43,480c-1,2.12,1.23,5.92-1.8,5.94s-1.45-3.74-1.51-5.77-1.42-5.6,1.84-5.5C320.38,474.72,318.5,478.26,319.43,480Z" transform="translate(-27.72 -44.86)"/><path d="M350.34,529.64c-2.36,1.65-4.37,2.27-5.49,0a9.3,9.3,0,0,1,0-7.69c.09-.23,1.06-.41,1.2-.24a2.64,2.64,0,0,1,.79,1.66C346.69,526,346.83,528.51,350.34,529.64Z" transform="translate(-27.72 -44.86)"/><path d="M630,603.13c-.33,1.57-1,2.56-2.71,2.13-1.22-.31-2.76-.47-2.73-2.23,0-1.48.78-2.57,2.44-2.35C628.46,600.88,629.94,601.27,630,603.13Z" transform="translate(-27.72 -44.86)"/><path d="M595.9,248.39c0,5.34,1,10.5-4.74,13.42-4.1,2.08-7.21.25-8.74-3-3.95-8.46,1.88-25.92,11.75-27.55a13.14,13.14,0,0,1,1.82,0v6.43c0,1.81.36,3.73-2.39,4-1.27.13-1.71,1.45-2.25,2.47-.76,1.46-1.91,3-.77,4.63C592.14,251,593.75,248.73,595.9,248.39Z" transform="translate(-27.72 -44.86)"/><path d="M579.23,239.23c0,8.51.06,16.65,0,24.79,0,2.62-5.22,6.7-7.75,6.37-1.43-.18-1.31-1.26-1.31-2.23,0-7.66-.43-15.34.11-23C570.57,240.44,575.25,240.36,579.23,239.23Z" transform="translate(-27.72 -44.86)"/><path d="M421.36,115c.58.28,2.14.59,2.21,1.11.49,3.5,3.53,3.45,5.78,4.47,1,.44,1.76.91,1.59,2.15-.11.83-.29,1.85-1.18,2-3.29.52-6-1.51-8.9-2.44-2.17-.69-1.76-3-2-4.63C418.62,116.35,419.21,115,421.36,115Z" transform="translate(-27.72 -44.86)"/><path d="M498.09,223.3c2.33,6,2,6.77-3.25,9.75-1.51.86-2.68,2.33-4.49,4-.6-3.33-.57-6,2.52-6.79s3.92-2.45,3.73-5.3A1.46,1.46,0,0,1,498.09,223.3Z" transform="translate(-27.72 -44.86)"/><path d="M408.12,122.58a34.39,34.39,0,0,1,1.23-3.5c.43-1,1.47-1.67,2.39-1.06,3.09,2.07-.55,5.13.93,7.65.49.85-.44,2.22-1.9,2.27-1.17,0-1.74-.69-1.95-1.77S408.38,123.94,408.12,122.58Z" transform="translate(-27.72 -44.86)"/><path d="M421.1,206.68c-.46,2.72,5,4,1.72,7.07-1.09,1-2.81.36-3.52-.64C417.52,210.64,419.17,208.63,421.1,206.68Z" transform="translate(-27.72 -44.86)"/><path d="M511.39,322.86c-.18-2.8-.12-5.29,2.66-6.18,1.15-.37,3.2,0,3.57,1.71a2.16,2.16,0,0,1-2.08,2.73C514,321.1,513.09,322.52,511.39,322.86Z" transform="translate(-27.72 -44.86)"/><path d="M418.92,112.5c-.36,1.48-1.07,2.83-2.65,2.22s-4.35-.18-4.23-3.16c.06-1.31.79-2.32,2.23-1.89C416,110.2,418.36,110,418.92,112.5Z" transform="translate(-27.72 -44.86)"/><path d="M447.9,271.11c-.24-2.51-.51-5,2.28-6.09a1.37,1.37,0,0,1,1.82,1.14C452.53,269.39,449.55,269.65,447.9,271.11Z" transform="translate(-27.72 -44.86)"/><path d="M498.93,220.76c-.08-2.42-.5-4.92,2.24-5.87a1.48,1.48,0,0,1,1.86,1.22C503.68,219.3,500.44,219.26,498.93,220.76Z" transform="translate(-27.72 -44.86)"/><path d="M656.3,180.92c12.36,24.87,12.36,24.87,10.26,28.17-5.34-6.53-7.44-14.88-11.92-22C653.17,184.82,654.69,182.83,656.3,180.92Z" transform="translate(-27.72 -44.86)"/><path d="M192.6,633.67c1.79,1.87,3,4.22,5.17,5.8.93.68-.34,2.38-1.46,3.25-.52.41-.93,1-1.47,1.33-1.17.81-3.21,2.71-3.31,2.33-.56-2.2-3.93-3.13-2.8-5.89C189.68,638.18,189.31,635.09,192.6,633.67Z" transform="translate(-27.72 -44.86)"/><path d="M213,687.51c-3.71-1.14-8-2.42-12.19-3.76-1.37-.44-1.66-1.49-1.18-2.78.38-1,1-1.84,2.21-1.42,4.31,1.56,8.62,3.15,12.87,4.88.75.3,2,.91,1.5,2.19S214.5,687.36,213,687.51Z" transform="translate(-27.72 -44.86)"/><path d="M196.69,672.58c1.59.43,1.53,2,2,3.12,1.09,2.6-1,3.45-2.61,4.52-1.27.83-2.68.92-3.59-.19-1.18-1.44.17-2.38,1.23-3.16C195.21,675.77,194.49,673.18,196.69,672.58Z" transform="translate(-27.72 -44.86)"/><path d="M378.17,664.41c.41,3.2.18,5.4-2.05,6.74a1.49,1.49,0,0,1-2.22-1.24C373.55,666.93,376.25,666.49,378.17,664.41Z" transform="translate(-27.72 -44.86)"/><path d="M609.69,461c-32.27,3.92-64.65,4.84-98.34.94,4.31-2.27,9.86,1.33,10.77-5.81.25,6.44,4.47,5.12,8,5.4,11.29.92,22.6.45,33.89.74C579.25,462.67,594.39,460.78,609.69,461Z" transform="translate(-27.72 -44.86)"/><path d="M567.79,484c-2.09.15-4.21,0-4.16-3.48.09-6.73,1.25-8.83,5.34-9,3.71-.12,7.12,2.82,7,6.05C575.87,481.6,572.94,484,567.79,484Zm0-5.77c.19,1.2-.19,3.06,1.86,2.64,1.38-.29,2.9-1.27,2.92-2.95a2.75,2.75,0,0,0-2.82-2.86C567.29,474.92,568,476.85,567.77,478.22Z" transform="translate(-27.72 -44.86)"/><path d="M552,498.41c0-5.86,2.08-7.63,7-6a5,5,0,0,1,3.78,4.65c.1,2.41-1.83,2.88-3.53,3.47-.77.27-1.88,0-2.37.49-1.22,1.16-1.3,4.33-4,2.69C550.94,502.53,552.34,500,552,498.41Z" transform="translate(-27.72 -44.86)"/><path d="M517.32,503c-2.14,0-2.42-.78-1.77-2.21,1.09-2.39,2-4.88,3.23-7.19,1.65-3.07,4.11-3,5.73.25,1.33,2.64,2.31,5.47,3.41,8.23.49,1.24-.28,2.36-1.26,1.69C523.45,501.56,520.36,500.46,517.32,503Z" transform="translate(-27.72 -44.86)"/><path d="M530.79,481.43c.17,0-.17.07-.49,0-1.93-.17-3.64,3.24-5.65.49-.78-1.07,3.92-9.77,5.33-10.23,1.22-.4,2.63-.22,3.17.81a69.94,69.94,0,0,1,4.23,9.44c.7,2-.84,2.3-2.21,1.35S533,481.3,530.79,481.43Z" transform="translate(-27.72 -44.86)"/><path d="M544.84,480.58c-1.39-2.62-6.78-1.74-5.13-6.14.87-2.34,3.07-3.37,5.7-2.85,1,.2,2.11.63,2.17,1.72.15,2.55-2.51.63-3.27,1.85,0,1.32,1.23,1.48,2,1.93,2.27,1.3,3.83,2.78,2,5.49-1.4,2.05-6.27,2.64-8,.93a2.48,2.48,0,0,1-.59-1.75c0-.85.85-.84,1.51-.75C542.35,481.16,543.48,481.75,544.84,480.58Z" transform="translate(-27.72 -44.86)"/><path d="M524.26,525.45c.2-2.15-.72-5.28,3.79-4.79,2.65.3,5,.5,5.26,3.8.08,1.1-5.91,6.17-7.21,6.19C524.55,530.67,524.18,529.71,524.26,525.45Z" transform="translate(-27.72 -44.86)"/><path d="M539.23,497.74c0-1,0-2,0-3,0-1.21.15-2.4,1.74-2.42s1.72,1.17,1.8,2.38c.19,3-1.33,6.88,3.85,7.27.25,0,.74,1,.63,1.14a4.38,4.38,0,0,1-1.8,1.49c-3.23.89-6.11-1.46-6.21-4.93,0-.65,0-1.31,0-2Z" transform="translate(-27.72 -44.86)"/><path d="M518.48,527.1c-1.49-1.76-4.76-2.19-3.39-5.41.95-2.24,2.95-1.72,4.72-1.68.75,0,1.91-.17,1.88,1-.06,1.88-2.34.64-3.13,2.09,1.19,1.87,5.64,1.9,3.83,5.6-1,2.06-3.07,2.34-5.18,2-1.08-.18-2.11-.89-2-1.87C515.44,526.92,517.67,528.83,518.48,527.1Z" transform="translate(-27.72 -44.86)"/><path d="M537.38,503.3c-2.59.49-5.92,1.83-6.72-.18a15.46,15.46,0,0,1-.41-10.5,1.23,1.23,0,0,1,1.5-.92c1.7.39,1.85,1.79,1.71,3.11C533.11,498.32,533.25,501.52,537.38,503.3Z" transform="translate(-27.72 -44.86)"/><path d="M523.83,472c-.15,1.37-7.18,1.9-.68,4.31,1.22.45.06,2-.79,2.13-1.56.26-2.39.74-2.35,2.47,0,1-.53,2.06-1.81,1.74s-2.27-1.21-1.74-2.5a11.22,11.22,0,0,0,.47-4.39C517.06,470.08,518.09,469.47,523.83,472Z" transform="translate(-27.72 -44.86)"/><path d="M555.42,472.06c1-.27,2.72-1,3.47.85s-1.51,1.54-2.19,2.33c-1.5,1.75-.44,4.07-.71,6.13-.15,1.08.22,2.51-1.56,2.48s-1.51-1.36-1.63-2.5c-.26-2.59-.41-4.83-1.95-7.51C549.13,470.84,553.33,472.34,555.42,472.06Z" transform="translate(-27.72 -44.86)"/><path d="M439.53,411.37c.23,3.82-1.74,7.43-.13,11.18.51,1.17.19,2.64,1.42,3.57,1.77,1.35,1.61,3.13-.13,3.95a3,3,0,0,1-4.38-1.92A17.21,17.21,0,0,1,439.53,411.37Z" transform="translate(-27.72 -44.86)"/><path d="M469.32,427.75c-.24,2.06-1.19,2.94-2.74,2.45-1.73-.54-4.34-.34-4.05-3.3.12-1.27,1-2.26,2.41-1.76C466.62,425.73,469.13,425.35,469.32,427.75Z" transform="translate(-27.72 -44.86)"/><path d="M696.4,210.46c-1.72-.87-4.28-.38-4.5-2.76-.24-2.74,2-1.84,3.69-2.37,4.83-1.54,9.35-4,14.11-5.83,1.86-.71,4.87-3.11,5.64-1.25,1,2.4-2.3,3.68-4.54,4.79-4.3,2.12-9.3,2.91-12.78,6.64A4.76,4.76,0,0,1,696.4,210.46Z" transform="translate(-27.72 -44.86)"/><path d="M704.58,227.73c1.55-6.41,7.81-6,12.92-9.69C715.54,226,708.62,224.9,704.58,227.73Z" transform="translate(-27.72 -44.86)"/><path d="M664.72,159.74c-.32,1.65-.75,3-2.48,2.69-1.36-.25-3.14-.41-3.06-2.46a2,2,0,0,1,2.17-2.12C662.78,158,664.27,158.22,664.72,159.74Z" transform="translate(-27.72 -44.86)"/><path d="M263.29,533.77c.16,2-3.77,7-5.53,7-1.2,0-2.35-.26-2.59-1.75-.2-1.17,3.91-7.69,4.87-7.64C261.62,531.45,263,531.9,263.29,533.77Z" transform="translate(-27.72 -44.86)"/></g></g></svg>