<svg xmlns="http://www.w3.org/2000/svg" viewBox="0 0 807.34 800.97"><title>z</title><g id="Layer_2" data-name="Layer 2"><g id="Layer_1-2" data-name="Layer 1"><path d="M387.59,50c-.39,9.95-.09,19.9-3.23,29.63A18.87,18.87,0,0,0,384.18,91c1.73,4.9,7,6.19,11.75,6.89a48.41,48.41,0,0,1,11.15,2.57,12.64,12.64,0,0,1,6.37,17c-1.9,3.68-6.26,4.14-11.39,1.44-1.72-.91-3.48-4-5.42-1.8s1.13,4.11,2.43,5.78c16.17,20.75,31,42.45,46.43,63.76C467,216.27,488.74,245.72,509.26,276c22.58,33.35,44.77,67,65,101.89,4.91,8.5,10.92,16.32,15.62,25a23,23,0,0,0,6.84,7.19,17.35,17.35,0,0,1,7.44,15c-.15,7.16-.66,14.31-.88,21.47-.09,3-1.65,5.32-3,7.81C584,484.62,568.08,515,551.6,545.08c-17.82,32.58-36.06,64.92-54.24,97.3q-27,48.15-54.3,96.15c-3.29,5.79-7.07,11.29-10.49,17-.87,1.46-2.93,3.41-1.1,4.83,2.16,1.68,3.38-1.1,4.67-2.37,2.6-2.56,4.89-5.46,7.55-8,5.35-5,9-4.23,14.65,3.08,3.88,5,3.36,8-2.46,11.81-6.15,4-12.44,7.75-18.72,11.52-5.35,3.2-9.75,7.52-14.11,11.86-3.43,3.42-2.25,8-1.79,11.92,1.09,9.17.36,18.32.54,27.46.13,6.51-3.7,10-10.21,10a51.93,51.93,0,0,1-6.49-.13c-4.9-.6-7.72-4.1-8.16-9-1.26-13.9-2.72-27.79-4.05-41.69a5.3,5.3,0,0,0-2.59-4c-26.39-18.07-48.74-40.71-71.45-63C304.7,706,290.26,692.49,274,681c-10.11-7.13-16.72-18-23.67-28.15-18.29-26.77-29.53-56.52-37-87.89-7.87-33-11.56-66.54-13.65-100.31-.1-1.66-.26-3.32-.43-5-.34-3.34-2-5.14-5.57-5-24.65,1.29-49.23-2.17-73.9-1.17-9.51.39-18.94.85-28.24,3-2.08.48-4.45,1.07-6.39.54-11.86-3.18-24.33-4.06-35.54-9.67-6.31-3.16-13.51-3.53-20.13-5.78-1.8-.61-4.42-.44-4.31-3.22s2.24-3.47,4.55-3.76l46-5.85c2.81-.35,5.65-.51,8.41-1.08,4.83-1,9-1.06,12,4,1.31,2.2,4.4,2.27,6.91,2,3.63-.44,7.2-1.24,10.89-.83a2.33,2.33,0,0,0,2.78-1.63c1.65-7.7,7.78-12.69,11.43-19.16a45.08,45.08,0,0,0,4.55-10c1.12-4.07,1.31-7.64-3.24-10.3-3.48-2-3.74-6.2-3.5-9.84.25-4,.48-8,2.38-11.66,1.26-2.44,1.11-5.17,1.1-7.84,0-7.33-.34-14.68,0-22,.41-8.6,3.79-10.78,11.83-8.33,1.12.34,2.37.93,3.29-.07,1.2-1.3,0-2.46-.63-3.58-2.38-4.37-4.94-8.65-7.15-13.11-7.55-15.28-3.66-35.68,8.94-48.46,7.74-7.85,16.69-14.31,24.66-21.88.73-.69,1.48-1.6,2.56-1,1.37.82.6,2.14.25,3.13-1.71,4.69-3.75,9.27-5.28,14-3,9.23-1.45,18.48.57,27.63,2.2,9.95,4.33,19.87,2.27,30.13a17,17,0,0,1-3.22,7.76c-2.55,3.06-1.44,4.68,2,5.65,6.62,1.88,7.33,2.34,5.59,9-2.64,10.09,0,19.63,2.57,29,2.17,7.89,1.31,15.46.72,23.23-.48,6.45-1.93,12.86-.52,19.38.61,2.83,1.66,4.53,4.85,5.42,7.58,2.12,10.12,7.12,7.71,14-.59,1.67-.9,3.28.3,4.7s2.9,1.42,4.58.78a5.2,5.2,0,0,0,3.77-4.79c.25-4.48.33-9,.63-13.46C202.32,379,212,339.8,225.07,301.34a846.81,846.81,0,0,1,35.33-86.42c8-17.11,18.88-32.49,29.77-47.86,20.38-28.78,44-54.72,69.08-79.38a12.24,12.24,0,0,0,3.36-6.5c2.87-13.17,5.78-26.33,8.52-39.53.67-3.24,1.88-4.84,5.55-4.89,10.93-.12,10.93-.28,10.91,10.76C387.58,48.36,387.59,49.19,387.59,50ZM228.53,478.9c-.84,22.79,2.11,45.15,7.59,67.26,5.22,21.06,11,42.07,21.1,61.23a278.05,278.05,0,0,0,43.38,61.42c14.51,15.38,29,30.67,45.07,44.54,19.73,17,39.32,34,63.59,44.44,3.62,1.56,4.87.72,6.5-2.35C426,736,436.48,716.7,446.84,697.32c8-15,17.38-29.2,25.62-44Q505.28,594.4,538,535.42q24-43.5,48.32-86.89c.55-1,1.66-1.92,1-3.15s-2.11-.67-3.17-.46c-7.42,1.49-14.93,1.19-22.41,1-3.8-.09-4.41,1.63-3,4.61s3,5.94,4.76,8.77a16.56,16.56,0,0,1,2.46,8c.36,7.28.11,7.47-6.78,5.7-1.28-.33-2.67-.23-3.93-.61-8.36-2.49-17.13-2-25.65-2.94s-16.85-3.6-25.48-3.57c-3.89,0-5.61-2.52-6.85-5.54a46.54,46.54,0,0,1-1.29-5.33c-2-7.23-5.22-9.13-12.52-7.44a14.64,14.64,0,0,1-2,.23c-15.25,1.49-30.55,2-45.84,2.64-40.29,1.79-80.62.82-120.92,1.88-27.13.72-54.26,1.42-81.4,2-3.78.08-4.94,1.55-4.86,5.08C228.63,465.9,228.53,472.4,228.53,478.9ZM577.91,424c1.62-.47,4.32,1.11,5.93-1.31,1-1.49-.45-2.7-1.29-3.95-20-29.84-40.11-59.65-60-89.6-27.25-41.05-53.87-82.51-82.26-122.79-19.29-27.35-39.56-54-59.17-81.07-1.08-1.49-2-2.59-4.05-1.69-8.65,3.88-17.72,7.46-24.78,13.7-15.48,13.7-29.76,28.67-40.72,46.4a678.36,678.36,0,0,0-44.09,84.54c-14.92,34.05-24.28,69.76-30.63,106.31-3.14,18.07-4.72,36.33-6.53,54.55-.24,2.44.1,4.35,3.36,4.07,14.78-1.23,29.6-.51,44.42-1.21,35.27-1.66,70.59-2.05,105.89-3.23,30.78-1,61.55-2.57,92.33-3.61,12.3-.42,12.4-.06,15.84-11.87.85-2.91,2.12-4.8,5.27-5,19.32-1.15,37.64-7.52,56.57-10.76,5.3-.92,8.15,1.93,6.65,7.08-1.4,4.79-3.06,9.51-4.6,14.26-.85,2.61-.38,4.29,2.83,4.13C565.08,422.62,571.2,423.55,577.91,424ZM378.42,756.61c1.37-1,2.46-.06,3.62.5a55.9,55.9,0,0,1,12.65,8c3.66,3.19,8.11,3.64,12.53,4.37,1.15.19,2.53.23,3-1.12s-.73-2.05-1.78-2.58c-2.67-1.35-5.38-2.63-8-4-20.8-10.83-39.4-24.72-57-40.17-21.44-18.81-42.52-37.89-59.93-60.65a320.07,320.07,0,0,1-42-73.53c-8.25-20.13-14.4-41-16.65-62.58a448.38,448.38,0,0,1-1.08-82.27c2.44-30.77,5.19-61.37,12-91.51,5.84-25.84,12.14-51.56,22.18-76.16,6.68-16.35,14.82-32,22.5-47.93,12.78-26.46,26.78-52.13,46.32-74.42,12.22-13.93,26.08-25.77,42.78-33.81,4.86-2.34,7.4-4.72,7.55-10.13.08-2.69-.42-4.52-2.6-5.91-2.43-1.55-4.3-.53-6.28,1.08-5.94,4.84-12,9.56-18,14.27-1.07.84-2.18,2.86-3.7,1.39-1.78-1.72.25-3,1.37-4q7.36-6.72,14.91-13.26c2-1.75,4.08-3.65,1.81-6.2s-4.08.21-5.85,1.44a17.26,17.26,0,0,0-1.79,1.74c-11.66,11-22.26,23-32.66,35.1-26,30.32-49.79,62-65.83,99-16.89,39-33.33,78.18-42.78,119.75-8.19,36.08-14.93,72.35-11.12,109.81,2.71,26.5,3.58,53.18,8.81,79.4,6.09,30.55,15.62,59.92,30.38,87.44,9.19,17.13,19.76,33.55,34.81,45.93,18.19,15,35.48,30.8,52,47.44,16.71,16.81,34.66,32.16,53.14,46.94,2.85,2.27,5.69,4.65,9.17,6,1.52.58,3.21,1.72,4.38-.37s-.47-3.06-1.77-4.1c-4.82-3.84-9.68-7.64-14.47-11.51C380,759.05,378.18,758.64,378.42,756.61ZM599.86,433.2c-1-4.72.95-9.95-2.92-14.28-8.35-9.33-15.28-19.77-22-30.25q-21.51-33.37-42.38-67.18c-13.54-21.82-29.49-41.93-44-63q-26.64-38.63-53.28-77.26c-15.84-23-33.1-45.1-49.8-67.55-1-1.4-1.63-4.67-4.06-3.07-1.88,1.24-.67,4,.17,6a12.59,12.59,0,0,0,1.84,2.35c6.87,8.78,13.88,17.46,20.58,26.37,17.12,22.75,33.51,46,49.42,69.61,20.47,30.37,41.25,60.54,61.53,91,26.08,39.23,50.51,79.58,78.71,117.38,3.82,5.11,4.17,10.35,2.7,16a87.79,87.79,0,0,1-3.53,10.4c-4.8,12-12.56,22.3-18.73,33.52-16.82,30.65-34.32,60.94-51.37,91.46q-35.58,63.68-70.88,127.51c-10.47,18.94-20.58,38.08-30.83,57.14-.88,1.63-3.07,3.63-.35,5,2.36,1.23,3.32-1.16,4.29-3,3.61-6.75,7.21-13.51,11-20.17,11.32-20,22.84-39.88,34.07-59.93q31.6-56.45,63-113c21.7-39.18,43.29-78.42,63.63-118.34C599.29,444.59,600.88,439.24,599.86,433.2Zm-447.54-6.28a25,25,0,0,0-.16,3c.13,2.37-.6,5.64,3.3,5.35s9,2.24,10.57-3.63c.95-3.65,1-7.7-2.37-10.65-7.38-6.41-7-14-3.71-22.27,3.1-7.9,7.85-15.8,2.05-24.56-.8-1.2-.09-2.67,1.1-3.5,1.39-1,2.05.35,2.85,1.12,3.52,3.4,4.44,7.56,4,12.33-.58,6.41-3.2,12.18-5.19,18.16-1.81,5.43-1.69,11.08,2.82,14.77,4.26,3.49,4.95,7.69,3.92,12-1.21,5-.89,7.34,5,7.53,3.43.11,9.31-2.11,9.76-5.5.6-4.51-2.21-6.15-6.34-6.33-4.59-.2-6.87-2.81-7.14-7.3a94.8,94.8,0,0,1,.07-16.93c1.17-9.88,2.14-19.73-.77-29.68-2.37-8.1-4.05-16.51-3.12-25.13.77-7.16-.64-8.58-7.81-7.7a49.34,49.34,0,0,0-5.81,1.35,35.08,35.08,0,0,1-14.32.28c-2-.3-3.89-3-5.83-.54a7.26,7.26,0,0,0-.89,7.16,22.32,22.32,0,0,1,1,9.35,194.75,194.75,0,0,1-3,25.72c-.3,1.63-1,3.55,1.12,4.26s4.27.56,5.81-1.58c1.16-1.6,1.09-3.41,1.3-5.23.5-4.27.43-8.68,2.57-12.62.55-1,1.1-2.27,2.56-1.81,1.11.34,1.25,1.52,1.25,2.52,0,5.81.43,11.67-1.33,17.33-.48,1.53-1.28,3.53-2.52,4.16-6.21,3.16-6.39,8.88-6.48,14.52-.15,8.8-3,16.17-10.12,21.67-2.56,2-5.28,4.8-4.08,7.88,1,2.6,4.79,1,7.32,1.33,4.1.63,5.72-1.27,5.82-5.22a18,18,0,0,1,1.93-8.2c.69-1.28,1-3.28,2.9-2.77,2.12.56,1.78,2.63,1.47,4.21-.5,2.61-1.46,5.13-1.91,7.73-.41,2.34.74,3.85,3.22,4.09,2.66.26,3.57-1.15,3.53-3.59a22.33,22.33,0,0,1,.24-4.48c.46-2.42,1.06-5.9,3.81-5.56,3,.38,1.23,3.86,1.54,6A4.86,4.86,0,0,1,152.32,426.92Zm213.85,10.51c-53.89,1.05-93.5,3.28-133.17,2.21-3.6-.1-4.7,1.94-4.66,5,0,3.8,2.58,3.47,5.28,3.18A527.12,527.12,0,0,1,294,445.12c49.66.39,99.31.87,148.89-2.62,9.81-.69,19.62-1.19,29.43-1.89,4.18-.3,4.77-2,2.56-5.49-1.83-2.89-4.5-2.41-7.11-2.34C429.12,433.93,390.58,437.26,366.17,437.43ZM138.07,299c-.24,7,2.26,13,6.33,18.52.75,1,1.46,2.52,3.11,1.88,1.43-.56.87-2,.8-3.08a49.53,49.53,0,0,1,1.06-11.9c.31-1.78,1.37-3.11,3.35-3.09a3.7,3.7,0,0,1,3.88,3.19c.46,2.32.64,4.7-.85,6.74a13.47,13.47,0,0,0-2.46,6.95c-.38,4.2-1.86,10.87,1.67,11.7,4.07,1,7.49-4.69,9.12-9.12,2.85-7.71,2.59-15.67.72-23.58-2.67-11.29-6.33-22.49-3.11-34.32.22-.77.42-1.71-.55-2.16s-1.56.25-2.12.86c-2.93,3.17-5.61,6.62-8.82,9.49C141.8,278.55,138.53,288.13,138.07,299ZM539.85,450.7c-.16,1.43,1.4,3.83-.93,4.58-1.9.62-2.37-1.89-3.31-3.15-1.2-1.6-2.24-3.32-3.46-4.9a4.61,4.61,0,0,0-6.23-1.37c-2.1,1.14-1.11,3.2-.64,4.94a29.86,29.86,0,0,1,1.1,3.81,2.68,2.68,0,0,1-1.78,3.21c-1.4.42-2.16-.76-2.67-1.75-1.23-2.35-2.68-4.58-3.3-7.24-.93-4-4.15-3.55-6.81-2.76-2.93.87-1.46,3.13-.73,4.95.31.77.61,1.55.85,2.35s.91,1.95-.29,2.63-1.89-.13-2.64-.81c-1.85-1.7-3.6-3.41-4.05-6.1a2.72,2.72,0,0,0-2.91-2.25c-1,0-1.45.63-1.63,1.56-.75,3.93,3.35,9.93,7.5,10.77,10.59,2.14,21.17,4.18,32.05,4.22a78.17,78.17,0,0,1,12.41,1.08c5.37.89,5.7.72,4.11-4.41-.54-1.75-1.22-3.45-1.76-5.2-1.19-3.84-2.3-7.61-6.25-9.8a7.09,7.09,0,0,0-7.13.08C539.05,446.29,539.63,448.47,539.85,450.7Zm-19.91-22a179.41,179.41,0,0,0-26.2,2.37c-3.17.52-4.43,2.06-4.36,5.41.09,4.24,1.71,6,6,5.81,19.63-.73,39.14-3.5,58.81-3.5,2.55,0,3.5-1.32,3.45-3.79-.08-4.15-2.45-5.42-6.18-5.33C540.34,429.94,529.19,430,519.94,428.67Zm33.24-18.59c.31-4.28-1.78-4.52-4.45-3.9-5,1.17-9.93,2.66-15.06,3.44-11.17,1.69-22.26,3.81-33.37,5.86-4.46.82-3.77,4.82-3.66,7.63s3,1.74,4.82,1.57c4.79-.46,9.57-1.48,14.36-1.51,6.38,0,12.44.16,14.52-7.78a2.27,2.27,0,0,1,3.34-1.21c1.32.64,1.22,1.91,1,3a15.92,15.92,0,0,1-1.15,2.74c-.58,1.31-.91,2.63.68,3.43a2.6,2.6,0,0,0,3.48-1.08c.92-1.37,1.52-3,2.44-4.33s2.16-2.91,4-2.2,1.09,2.43.65,3.84c-.36,1.13-.78,2.39.57,3.09,1.52.78,2.56-.3,3.37-1.36C551.43,417.81,552.23,413.54,553.18,410.08ZM153.43,447.46v.21c4.16,0,8.31-.05,12.47,0q14,.18,27.92.45c2,0,3.68-.21,3.7-2.82,0-2.44-1.41-3.15-3.49-3.22-1,0-2,0-3-.07-12.79-.31-25.68.32-38.32-1.18s-25.23-.52-37.82-1.26c-2.87-.17-4.3,1-4.24,4.08s1.45,3.89,4.38,3.86C127.83,447.39,140.63,447.46,153.43,447.46ZM44.74,440.11c3.14.87,6.42,1.4,9.41,2.65,8.52,3.57,17.58,4.93,26.51,6.81C87.37,451,89.57,448.8,89,442c-.08-1-.29-2-.42-3-.41-3.17-1.74-4.37-5.32-4-8.26.81-16.48,2-24.85,1.92C54,436.86,49.24,437.36,44.74,440.11ZM398.05,786.36c-.13,4.5,2.44,6.17,6,4.34,2.49-1.31,5-2.51,7.53-3.81,5.27-2.74,8.15-7.55,7.29-11.85-.44-2.24-1.5-3.35-3.79-2.43a78.56,78.56,0,0,0-9.52,4.2C401.7,779,398.73,782.1,398.05,786.36Zm17.71,33.27h-.22c0-2.17,0-4.33,0-6.5,0-1.69-.61-2.82-2.64-2.84-7.52-.06-11.11,3.8-10.2,11.15.13,1,.34,2,.56,2.94,1.2,5.38,2.72,6.34,8.35,5.76,4.7-.48,4.23-3.81,4.17-7C415.75,822,415.76,820.79,415.76,819.63Zm11.65-43.14a14.38,14.38,0,0,0,1.41-.78,266.72,266.72,0,0,1,23-14.8c1.86-1.06,2.5-2.51,1.54-4.58-1.12-2.41-2.84-2.26-5-1.51-3.57,1.26-6,4-8.88,6.28a91.27,91.27,0,0,0-12.41,12.14c-.68.76-1.33,1.58-.83,2.64C426.42,776.2,427,776.31,427.41,776.49ZM582,438.85c1.5,0,3,0,4.49,0,2.26-.07,4.91.52,5.44-2.83s-.93-5-4-6.43c-4.05-1.84-7.45,1.08-11.16.7-3.2-.32-5.18.22-4.91,4.06.23,3.36,1.33,5.39,5.18,4.75A43.31,43.31,0,0,1,582,438.85ZM417.09,796.53c-.09-4-1.16-4.56-4.91-2.67-1.76.88-3.73,1.34-5.58,2.06-2.69,1.05-5.06,2.54-6.17,5.38-.55,1.41-.89,2.94.26,4.23s2.41.72,3.71.43a37.22,37.22,0,0,0,8.93-3A6.46,6.46,0,0,0,417.09,796.53ZM405.44,114.19c2.24,0,3.68.07,4.12-1.63s0-3.31-1.85-4.1c-6.83-2.94-13.68-5.88-20.54-8.75a2,2,0,0,0-1.8.16c-.84.72-.18,1.43.37,2.07C391.24,108.33,398.78,111.26,405.44,114.19ZM382.15,51.34h0c0-1.66.12-3.32,0-5s.15-3.66-1.92-4.12-3.43,1.1-4.32,2.7a25,25,0,0,0-2.94,9.4c-.32,2.76,3.95,7.35,6.51,7,3.4-.46,2.17-3.55,2.61-5.58A21.91,21.91,0,0,0,382.15,51.34Zm-3.79,40.15c.05-4.54-4.16-9.13-8.4-9.45-1.77-.13-2.2,1-2.68,2.3-1.57,4.36-.34,6.84,5.26,10.22,1.4.85,2.91,2.07,4.57,1.25S378.1,92.88,378.36,91.49Zm-9.79-22.32c-.13,4,4.47,8.71,8.32,8.6,3-.08,3.95-2.29,4.27-4.67.43-3.25-4.65-7.37-9.16-7.72C369.06,65.16,369,67.37,368.57,69.17ZM562,434.35h.13c0,1.17,0,2.33,0,3.49s.64,2.28,2.07,2.33,2.93-.29,3.19-1.81a10.17,10.17,0,0,0-2.37-8.78c-.89-1-2.29-.7-2.67.81A24.6,24.6,0,0,0,562,434.35Zm-464.3,10c-.58-1.82.48-4.79-2.62-5.07-2.41-.23-2.26,2.13-2.12,3.68.19,2.16-.37,5.3,2.88,5.44C98.15,448.53,97.45,446,97.72,444.38Zm387.51-6.73c-1-2.1.26-5.52-3-6.48-1.54-.46-2.07,1.5-1.83,2.83.47,2.51.4,5.71,3.19,6.69C485.48,441.35,484.88,439,485.23,437.65Zm-379.39,5.63c-.46-1.21.27-3.41-1.88-3.78-1.86-.32-1.88,1.44-1.81,2.71.09,1.73-.06,4,2.18,4.3C106.12,446.71,105.62,444.72,105.84,443.28Z" transform="translate(-25.12 -36.74)"/><path d="M198.72,233.24c.64,8.51-3.93,15.79-8.75,22.75a138,138,0,0,0-9.63,15.12c-.65,1.27-1.3,3.1-3.19,2.46s-1.41-2.46-1.35-3.91A26,26,0,0,1,180,256.54c6.95-11,8.3-22.83,5-35.33a76.48,76.48,0,0,1-1.41-7.86c-.17-1.13-.38-2.43.77-3.19s2.27.1,3.07.87C193.67,217,199.4,223.16,198.72,233.24Zm-8.28,10.36c4.16-6.19,4.21-13.24.11-17.76A93.94,93.94,0,0,0,190.44,243.6Z" transform="translate(-25.12 -36.74)"/><path d="M664.55,818.23c1.67-5.69,3.41-11.35,5-17.07.35-1.28-.79-3.13,1.72-3.28,2.25-.13,2.63,1.36,3.12,3.09,1.41,4.95,3,9.86,4.51,14.78.28.93.41,2,2.23,2.4,1.61-5.64,3.27-11.33,4.82-17,.31-1.13-.88-2.81,1.21-3.18a2.47,2.47,0,0,1,1.88.32c1.24,1.15.34,2.5,0,3.71-2,6.53-3.93,13-6,19.54-.43,1.32-.23,3.38-2.11,3.59-2.13.24-3.32-1.51-4-3.2-1.37-3.57-2.48-7.23-3.68-10.86-.41-1.23-.78-2.48-1.64-5.24-2.05,6.27-3.59,11.19-5.28,16.06-.45,1.28-.08,3.41-2.13,3.48-1.83.07-3.1-1.45-3.68-3-1.61-4.19-2.93-8.48-4.38-12.73-.91-2.67-1.9-5.32-2.73-8-.36-1.17-2.37-2.71.06-3.58,1.9-.69,3.43.06,4.07,2.39,1.47,5.27,3.15,10.49,4.78,15.73a17.46,17.46,0,0,0,1,2.14Z" transform="translate(-25.12 -36.74)"/><path d="M721.88,811.67c0,7.93-6.49,14.11-14.85,14.17-9,.07-15.46-6.05-15.35-14.6.09-8.12,6.64-14.18,15.39-14.25A14.24,14.24,0,0,1,721.88,811.67Zm-15.36-11.31c-6.18,0-10,4.07-10,10.53,0,7.23,4.24,12,10.56,11.9s10.23-4.47,10.12-11.13C717.06,804.74,712.92,800.34,706.52,800.36Z" transform="translate(-25.12 -36.74)"/><path d="M551.27,811.51c0-2.32,0-4.65,0-7-.13-6.66-.15-6.7,6.67-6.67,3.82,0,7.64.06,11.05,2.32,4.88,3.24,7,7.94,5.95,13.69a13.27,13.27,0,0,1-10.5,10.69c-4.39.74-10.42,2.57-12.83-.19-2.19-2.51-.46-8.44-.46-12.87Zm4.44-.28h-.07c0,2.16.09,4.33,0,6.49-.17,3.21,1.08,4.64,4.42,4.23,3.78-.47,7.25-1.34,9.14-5.1a11.3,11.3,0,0,0-.7-11.87c-2.53-3.93-6.56-4.79-10.56-3.94s-1.7,4.69-2.17,7.19A16.67,16.67,0,0,0,555.71,811.23Z" transform="translate(-25.12 -36.74)"/><path d="M742.74,776.33c-.17,1.75-1.44,2-2.85,2-4,.17-7.3-1.18-9.29-4.69a9.57,9.57,0,0,1,0-10.43c2.27-3.66,5.73-5.82,9.66-4.55,5.79,1.86,5.6-1.08,5.12-5-.18-1.49-.51-3.26,1.8-3.27,1.93,0,1.74,1.61,1.81,2.93.36,7.64-.54,15.31.6,22.93.19,1.3-.6,1.8-1.76,1.78a2.08,2.08,0,0,1-2.28-2.13c-.11-2.5-.14-5-.14-7.49,0-3.69-1-6.76-5.24-7.18a5.47,5.47,0,0,0-6.29,4.48,7.93,7.93,0,0,0,4.63,9.44C739.92,775.74,741.64,774.83,742.74,776.33Z" transform="translate(-25.12 -36.74)"/><path d="M606.08,826c-6.24-.51-11.65-2.23-14.44-8.29a13.63,13.63,0,0,1,2.08-15.39c4.14-4.87,9.66-6.06,15.84-4.61,2,.45,3.84,1,3.08,3.43s-2.39.54-3.62.27c-4.67-1-9.07-.87-12.07,3.48-2.72,3.95-2.44,8.12-.12,12.2,2.68,4.69,6.77,5.82,11.9,5.18,1.68-.21,4.18-3.34,4.9-.43s-2.79,3.43-5.24,3.87C607.57,825.82,606.74,825.88,606.08,826Z" transform="translate(-25.12 -36.74)"/><path d="M489.82,778.09a10.72,10.72,0,0,0-1.5,0c-4.62.66-6.75-.25-6-5.92.79-6,.14-12.3-.22-18.44-.14-2.35.07-3.45,2.73-3.23,2.48.22,5,0,7.49.16,1.51.1,3.91-.37,3.63,2.14-.26,2.33-2.35,1.12-3.65,1-3.7-.43-6.17.07-5.72,4.85.3,3.25,2.13,3.23,4.43,3.15,1.37,0,2.92,0,2.69,2-.2,1.7-1.68,1.32-2.77,1.16-5-.75-4.12,2.7-4.32,5.66-.26,3.75,1.64,4.66,4.86,4.29,1.48-.18,3-.33,4.46-.43,1.06-.07,2.66-1.93,3,.52a2.66,2.66,0,0,1-2.66,3c-2.15.17-4.32,0-6.48,0Z" transform="translate(-25.12 -36.74)"/><path d="M678.58,765.61c.7-2,2.52-2.08,3.52-3.17a5.32,5.32,0,0,0,.66-6.47c-1.16-2.21-3.51-2.41-5.68-2.18-3,.32-2.26,2.86-2.22,4.67.13,5.63-.65,11.3.43,16.88.51,2.58-.87,2.78-2.75,2.79s-2.44-.76-2.25-2.78a114.12,114.12,0,0,0,0-22.33c-.22-2.1.36-2.7,2.34-2.55,2.48.18,5,.07,7.46.3,5.21.46,8.23,3.35,8.13,7.58S684.34,765.61,678.58,765.61Z" transform="translate(-25.12 -36.74)"/><path d="M715.58,758.47c6.13,0,10.73,4.49,10.57,10.22-.15,5.37-5.14,9.73-11.19,9.76s-10.75-4.3-10.7-10C704.31,762.54,709,758.43,715.58,758.47Zm6,10.29c0-4.5-2.79-7.62-6.72-7.57-3.71,0-6.23,2.84-6.19,6.86,0,4.53,2.8,7.61,6.75,7.56C719.21,775.57,721.61,772.89,721.6,768.76Z" transform="translate(-25.12 -36.74)"/><path d="M534.29,778.4c-7.41-.17-12.25-4.81-11.47-11.23.52-4.34,2.9-7.52,7.27-8.41s8.64-.21,11.24,4.23c2.15,3.68,1.43,5.07-2.79,5.21-2.65.09-5.31.12-8,0-3.72-.11-3.4,1.8-2,4,2,3.28,5.33,3.5,8.78,3.27,1.24-.08,3.24-1.92,3.6.38.33,2-2.12,2.12-3.69,2.42A16.33,16.33,0,0,1,534.29,778.4Zm-1.71-12.65c1.51-.79,4.52,1.32,4.53-1.91,0-2.35-2.43-2.74-4.5-2.76s-4.42.68-4.36,2.94C528.32,766.76,531.09,765,532.58,765.75Z" transform="translate(-25.12 -36.74)"/><path d="M653.72,775.89c-3.66,3.87-8,2.81-11.87,1.79-4.86-1.26-7.26-5.24-6.89-10.21.37-4.75,3.08-7.69,7.55-8.72,5.28-1.22,9.66.78,11.42,4.78,1.29,2.91,1.06,4.85-2.87,4.69-2.82-.11-5.65,0-8.47,0-3.38,0-3.1,1.87-1.84,3.87,1.63,2.59,4.1,3.59,7.22,3.59C649.71,775.73,651.41,774.2,653.72,775.89Zm-8.83-10.1c1.34-1,4.37,1.3,4.64-1.79.22-2.43-2.33-2.83-4.4-2.89s-4.54.61-4.65,2.79C640.35,766.85,643.17,765.09,644.89,765.79Z" transform="translate(-25.12 -36.74)"/><path d="M749.62,811.65a100.52,100.52,0,0,0-.58-10.44c-.46-2.92.63-3.48,3.15-3.32,2.32.14,4.65-.08,7,0,1.49.07,3.91-.65,3.68,1.93-.2,2.25-2.37,1.21-3.67,1.09-3.39-.31-5.87-.14-5.52,4.49.24,3.12,1.76,3.51,4.2,3.4,1.3-.06,3-.24,2.93,1.71,0,1.6-1.46,1.62-2.62,1.41-4.26-.78-4.72,1.69-4.42,5,.15,1.66-.06,3.36.24,5,.4,2.22.17,3.47-2.57,3.4-2.43-.07-2.51-1.15-2.37-3.17.25-3.47.07-7,.07-10.46Z" transform="translate(-25.12 -36.74)"/><path d="M809.75,778.32c-5.12.26-9.34-1.52-11.28-6.42A9.45,9.45,0,0,1,801,761c4.89-4.56,13.37-2.87,16,3.13,1.16,2.62.85,4.17-2.43,4.14s-6.31,0-9.47,0c-2.81,0-3.12,1.47-1.91,3.55,2,3.49,5.37,4.08,9.07,3.85,1.26-.08,3.33-1.82,3.65.38.29,1.9-2.09,2.14-3.74,2.31C811.42,778.39,810.58,778.32,809.75,778.32Zm-1.87-12.62c1.53-.6,4.25,1.06,4.45-1.63.19-2.41-2.19-3-4.29-3s-4.9.38-4.69,3.09C803.54,766.68,806.32,765.1,807.88,765.7Z" transform="translate(-25.12 -36.74)"/><path d="M584.76,769.18c0,1.17,0,2.33,0,3.5.1,2.94,1.65,7.25-4.26,4.43-.13-.06-.32,0-.49,0-12.09,1-12.08,1-12.24-11.07a25.68,25.68,0,0,0-.24-4.48c-.3-1.55-.25-2.7,1.63-2.82,2-.13,2.46,1,2.34,2.86-.18,2.65-.11,5.32,0,8,.09,3.2,1.35,5.75,5,5.52,3.13-.2,4.58-2.39,4.55-5.51,0-2.67,0-5.34-.11-8-.08-1.39-.53-2.76,1.55-2.86s2.47,1.17,2.44,2.89c0,2.5,0,5,0,7.5Z" transform="translate(-25.12 -36.74)"/><path d="M772.45,768.82a31.55,31.55,0,0,0,0,5c.53,3.36.29,5.47-3.92,3.54-.59-.27-1.56.21-2.33.41-7.27,1.91-10.49-.33-10.88-7.69-.14-2.82-.07-5.64-.25-8.45-.09-1.5-.06-2.67,1.83-2.75s2.26,1,2.25,2.53c0,2.81-.19,5.64,0,8.45s1.16,5.39,4.66,5.28,4.82-2.49,4.85-5.69a67.75,67.75,0,0,0-.19-7.94c-.17-1.6-.19-2.61,1.73-2.67s2.2,1,2.19,2.55c0,2.49,0,5,0,7.47Z" transform="translate(-25.12 -36.74)"/><path d="M502.46,759.38c3.23-1.74,5.09.21,6.4,2.57,2.14,3.88,4.32,2.78,5.54-.19,1.31-3.16,3.14-3.34,6.88-2.27-9.38,6-7.28,12,0,17.64-4.53,1.29-4.53,1.29-7.3-2.32-3.32-4.32-3.85-4.31-7,.23a18,18,0,0,1-1.57,2.51,2.51,2.51,0,0,1-3.24.27c-1.55-1.08-.11-1.94.54-2.78C508.34,767.78,508.35,767.79,502.46,759.38Z" transform="translate(-25.12 -36.74)"/><path d="M743.71,820.83c.85,1.8,0,2.82-1,3.71-.83.76-13.86,1-14.78.45s-.64-1.35-.57-2.17a138.7,138.7,0,0,0,0-22.42c-.18-2.33.85-2.38,2.51-2.5,2.1-.15,2.43.75,2.34,2.68C732,805.73,732,810.89,732,816c0,6,1.07,6.91,7.1,6A43,43,0,0,0,743.71,820.83Z" transform="translate(-25.12 -36.74)"/><path d="M615.11,758.72c1.82-.06,2.63,1,3.23,2.55,1.18,3.09,2.51,6.13,3.79,9.19.37.88.52,2.09,1.7,2.18s1.46-1.18,1.76-2c1.13-3.26,3.38-6.13,3.58-9.7.11-1.92,1.28-2.2,2.69-2,2,.31,1.66,1.59,1,3-2.24,4.8-4.52,9.59-6.63,14.45-1.44,3.32-3.33,3.07-4.89.47-1.94-3.24-3.35-6.81-5-10.23a37.46,37.46,0,0,0-2.7-5.28C612.08,759,613.31,758.8,615.11,758.72Z" transform="translate(-25.12 -36.74)"/><path d="M639.5,825a6.67,6.67,0,0,1-7.76-3c-.64-1-1.43-1.82-2.1-2.77-5.73-8.09-5.8-8.15,0-16.18,1.35-1.87.81-5.76,4.85-5.1.63.1,1.52,0,1.83.39.61.73-.13,1.43-.47,2.18-1.84,4-8.79,5.89-5.89,11.65a33.8,33.8,0,0,0,8.7,10.78A1.7,1.7,0,0,1,639.5,825Z" transform="translate(-25.12 -36.74)"/><path d="M791.48,775.47c1,0,2.63-1.38,3.08.65.28,1.32-1.24,1.77-2.36,2.1-4.47,1.35-10.65-.4-13.19-3.88a8.86,8.86,0,0,1-.63-10.3c2.44-4.24,7.22-6.31,12.45-5.48,1.36.21,2.93.38,2.65,2.18s-1.62,1-2.76.75c-3.12-.77-6.08-.47-8,2.4a6.91,6.91,0,0,0,0,8C784.66,775,787.67,776.11,791.48,775.47Z" transform="translate(-25.12 -36.74)"/><path d="M557,778.39c-4.49.1-8.24-1.39-10.35-5.55a9,9,0,0,1,1-9.88c3-4.07,7.3-4.89,12-4.38,1.23.14,2.57.52,2.42,1.94-.23,2.15-1.86,1.28-3.07,1-3.22-.8-6.09-.24-7.94,2.62a7.15,7.15,0,0,0,.17,8c1.77,2.74,4.56,3.56,7.8,3.49,1.4,0,3.73-2.14,4.1.37.31,2.12-2.35,2.26-4.17,2.37C558.28,778.43,557.62,778.39,557,778.39Z" transform="translate(-25.12 -36.74)"/><path d="M594.87,752.84c.67,3.67,1.21,6.89,5.5,6.34.58-.07,1,.78.87,1.53a1.38,1.38,0,0,1-1.4,1.18c-1.92.09-4.58-.53-4.26,2.56.37,3.58-1.77,7.77,2.18,10.62.82.59,2.76.31,2.07,2.07-.57,1.44-2.13,1.45-3.48,1.18-2.56-.51-3.86-2.09-4.46-4.69-1-4.18,1.94-9-2.24-12.66-.09-.08.24-1,.53-1.14C593.14,758.8,593,755.6,594.87,752.84Z" transform="translate(-25.12 -36.74)"/><path d="M585.23,811.85c0,3.49-.2,7,.07,10.45.17,2.3-.57,3-2.72,2.92s-2.23-.81-2.18-2.77q.32-11-.06-21.9c-.07-2.07.42-2.62,2.34-2.66s2.68.4,2.56,2.52c-.2,3.81,0,7.63,0,11.44Z" transform="translate(-25.12 -36.74)"/><path d="M623.26,800.62c0,7.28-.23,14.57.12,21.83.12,2.63-.94,2.74-2.76,2.79s-2.4-.64-2.16-2.72a119.12,119.12,0,0,0,.06-21.86c-.13-1.91,0-2.88,2.09-2.81C622.41,797.92,624.14,798,623.26,800.62Z" transform="translate(-25.12 -36.74)"/><path d="M692.73,767.83c0-.5,0-1,0-1.5-.16-7.75.61-8.47,8.26-7.75.87.08,1.68.27,1.93,1.22a1.31,1.31,0,0,1-1.12,1.82c-5.74.33-5.21,4.45-5.13,8.32,0,2,.1,4,.16,6,.07,1.8-1,2.26-2.53,2.18s-2-.93-1.88-2.31c.16-2.65.26-5.3.39-7.95Z" transform="translate(-25.12 -36.74)"/><path d="M825.86,759.23c.8-.06,1.61-.07,2.4-.19,1.56-.25,3.66-1.29,4.14,1s-2,1.62-3.21,2.1a4.11,4.11,0,0,0-2.79,4.22c0,3-.09,5.95.07,8.92.1,1.81-.28,2.9-2.31,2.88-1.82,0-2-1.13-2-2.65,0-4.78.1-9.57,0-14.35C822,757.73,824.31,759.22,825.86,759.23Z" transform="translate(-25.12 -36.74)"/><path d="M605,768.45c-.14-2.26-.21-4.75-.47-7.22-.15-1.38.05-2.28,1.63-2.39s2.61.32,2.64,2.11c.06,5,.1,9.94.23,14.92.05,1.82-.92,2.26-2.46,2.27-1.77,0-2.23-.83-2-2.52C604.84,773.32,604.87,771,605,768.45Z" transform="translate(-25.12 -36.74)"/><path d="M606.41,756.1c-1.6-.09-2.44-.89-2.22-2.53a2.37,2.37,0,0,1,2.66-2.31c1.6.11,2.24,1.18,2.21,2.7C609,755.69,607.93,756.17,606.41,756.1Z" transform="translate(-25.12 -36.74)"/><path d="M221.21,383.19c1.75,6.57-.1,12.44-.66,18.19-1.26,12.9-.93,25.95-3.53,38.72-.23,1.13-.21,2.34-.55,3.44-.39,1.27.28,3.73-1.8,3.43s-.93-2.42-.8-3.79q2.67-27.56,5.39-55.09C219.41,386.53,219.43,384.88,221.21,383.19Z" transform="translate(-25.12 -36.74)"/><path d="M257.94,265.46c-5.46,12.28-10.65,24.12-15,36.31-.29.81-.57,1.68-1.66,1.36s-.89-1.29-.84-2.09a8,8,0,0,1,.41-2.46c4.27-10.47,8.05-21.15,13.58-31.08A3.12,3.12,0,0,1,257.94,265.46Z" transform="translate(-25.12 -36.74)"/><path d="M258.08,633c3.31,2.4,4.95,6,7.07,9.21,3.3,5,5.87,10.39,9.67,15,.82,1,2,2.24.61,3.41-1.2,1-2.12-.37-2.84-1.17-6.66-7.5-11.4-16.17-15.18-25.39C257.34,633.88,257.72,633.54,258.08,633Z" transform="translate(-25.12 -36.74)"/><path d="M234.41,321.89c.63-3.88,2.69-7.55,4.16-11.42a2,2,0,0,1,1.42-1.11c1.08,0,1.2,1,1.13,1.81-.4,4.57-2.29,8.64-4.29,12.68-.31.62-.75,1.19-1.5.9C234.11,324.28,234.4,323.15,234.41,321.89Z" transform="translate(-25.12 -36.74)"/><path d="M216.09,456c.5,4.6,1.12,8.58.68,12.64A1.94,1.94,0,0,1,215.6,470c-.42.08-1.16-.51-1.46-1C212.24,466,213,459.56,216.09,456Z" transform="translate(-25.12 -36.74)"/><path d="M158.81,386.09c-2.75-9.16-4.76-17.22-4.92-25.65a7.75,7.75,0,0,1,1.66-5.12c2.08-2.5,4.56-4.45.36-7.45-1.59-1.14.26-2.69,1.54-3.39a4,4,0,0,1,4.7.31c1.84,1.58,3,3.7,2.44,6.14-.39,1.72-.94,3.8-2.6,4.68-5.07,2.69-4.66,7.24-4.17,11.73.48,4.27,1.29,8.51,2,12.75A7.85,7.85,0,0,1,158.81,386.09Z" transform="translate(-25.12 -36.74)"/><path d="M143.88,352.5c.58-1.4-.8-4.35,2-4,2.46.31,1.75,3.17,1.69,5-.06,1.6.6,4.47-2,4.11S144.24,354.38,143.88,352.5Z" transform="translate(-25.12 -36.74)"/><path d="M143.16,302.81c-1.46-6.54-.46-12.77,1.93-18.85A37.13,37.13,0,0,1,143.16,302.81Z" transform="translate(-25.12 -36.74)"/><path d="M509.71,432.53a9.65,9.65,0,0,0,8.16-.55,1.51,1.51,0,0,1,2.37.9c.26,1.05-.69,1.41-1.45,1.66-5.86,2-12.11,1.42-18.09,2.67a1.4,1.4,0,0,1-1.66-1.42,1.82,1.82,0,0,1,1.88-1.9A36.5,36.5,0,0,0,509.71,432.53Z" transform="translate(-25.12 -36.74)"/></g></g></svg>